<svg width="24" height="24" viewBox="0 0 24 24" fill="none" xmlns="http://www.w3.org/2000/svg">
<mask id="mask0_16_1963" style="mask-type:alpha" maskUnits="userSpaceOnUse" x="0" y="0" width="24" height="24">
<rect width="24" height="24" fill="#D9D9D9"/>
</mask>
<g mask="url(#mask0_16_1963)">
<path d="M12.1249 11.8589C12.6224 11.8589 13.0478 11.6817 13.4009 11.3274C13.7543 10.9731 13.9309 10.5472 13.9309 10.0497C13.9309 9.55215 13.7538 9.12674 13.3994 8.7734C13.0451 8.42024 12.6191 8.24365 12.1214 8.24365C11.6239 8.24365 11.1986 8.42082 10.8454 8.77515C10.4921 9.12949 10.3154 9.55549 10.3154 10.0532C10.3154 10.5507 10.4926 10.976 10.8469 11.3292C11.2013 11.6823 11.6273 11.8589 12.1249 11.8589ZM12.1232 19.5072C14.0795 17.7558 15.5766 16.076 16.6144 14.4677C17.6523 12.8593 18.1712 11.4507 18.1712 10.2417C18.1712 8.41865 17.592 6.91999 16.4337 5.74565C15.2754 4.57132 13.8385 3.98415 12.1232 3.98415C10.4079 3.98415 8.97103 4.57132 7.8127 5.74565C6.65436 6.91999 6.0752 8.41865 6.0752 10.2417C6.0752 11.4507 6.59411 12.8593 7.63195 14.4677C8.66978 16.076 10.1669 17.7558 12.1232 19.5072ZM12.1232 21.5032C9.60653 19.3225 7.71936 17.2931 6.4617 15.4149C5.20403 13.5366 4.5752 11.8122 4.5752 10.2417C4.5752 7.93399 5.32161 6.06574 6.81445 4.6369C8.30745 3.20807 10.077 2.49365 12.1232 2.49365C14.1694 2.49365 15.9389 3.20807 17.4319 4.6369C18.9248 6.06574 19.6712 7.93399 19.6712 10.2417C19.6712 11.8122 19.0424 13.5366 17.7847 15.4149C16.527 17.2931 14.6399 19.3225 12.1232 21.5032Z" fill="#111111"/>
</g>
</svg>
