<svg width="24" height="24" viewBox="0 0 24 24" fill="none" xmlns="http://www.w3.org/2000/svg">
<mask id="mask0_15_1123" style="mask-type:alpha" maskUnits="userSpaceOnUse" x="0" y="0" width="24" height="24">
<rect width="24" height="24" fill="#D9D9D9"/>
</mask>
<g mask="url(#mask0_15_1123)">
<path d="M5.5 17.25C4.03633 17.25 2.79542 16.741 1.77725 15.723C0.759083 14.705 0.25 13.4643 0.25 12.0008C0.25 10.5374 0.759083 9.2965 1.77725 8.278C2.79542 7.25933 4.03633 6.75 5.5 6.75C6.08283 6.75 6.642 6.8535 7.1775 7.0605C7.713 7.26767 8.19617 7.56158 8.627 7.94225L10.5385 9.627L9.404 10.6307L7.623 9.05775C7.33083 8.80642 7.002 8.60892 6.6365 8.46525C6.27117 8.32175 5.89208 8.25 5.49925 8.25C4.46375 8.25 3.58 8.61625 2.848 9.34875C2.116 10.0811 1.75 10.9653 1.75 12.0015C1.75 13.0377 2.116 13.9215 2.848 14.653C3.58 15.3843 4.46375 15.75 5.49925 15.75C5.89208 15.75 6.27117 15.6783 6.6365 15.5348C7.002 15.3911 7.33083 15.1936 7.623 14.9423L15.373 7.94225C15.7975 7.55508 16.2785 7.25958 16.816 7.05575C17.3537 6.85192 17.915 6.75 18.5 6.75C19.9637 6.75 21.2046 7.259 22.2227 8.277C23.2409 9.295 23.75 10.5357 23.75 11.9992C23.75 13.4626 23.2409 14.7035 22.2227 15.722C21.2046 16.7407 19.9637 17.25 18.5 17.25C17.9153 17.25 17.3573 17.1448 16.826 16.9345C16.2945 16.7243 15.8102 16.4321 15.373 16.0577L13.4808 14.373L14.596 13.3595L16.377 14.9423C16.6692 15.2013 16.998 15.4007 17.3635 15.5405C17.7288 15.6802 18.1079 15.75 18.5008 15.75C19.5363 15.75 20.42 15.3837 21.152 14.6512C21.884 13.9189 22.25 13.0347 22.25 11.9985C22.25 10.9623 21.884 10.0785 21.152 9.347C20.42 8.61567 19.5363 8.25 18.5008 8.25C18.1079 8.25 17.7288 8.32175 17.3635 8.46525C16.998 8.60892 16.6692 8.80642 16.377 9.05775L8.627 16.0577C8.2025 16.4449 7.7215 16.7404 7.184 16.9443C6.64633 17.1481 6.085 17.25 5.5 17.25Z" fill="#111111"/>
</g>
</svg>
