<svg width="24" height="24" viewBox="0 0 24 24" fill="none" xmlns="http://www.w3.org/2000/svg">
<path d="M8.52269 8.03854L10.7977 5.08167C10.9487 4.88153 11.1281 4.73458 11.3358 4.64083C11.5435 4.54694 11.7628 4.5 11.9936 4.5C12.2244 4.5 12.4437 4.54694 12.6514 4.64083C12.8591 4.73458 13.0384 4.88153 13.1895 5.08167L15.4645 8.03854L18.9434 9.20187C19.2757 9.30771 19.5349 9.49431 19.7209 9.76167C19.907 10.0292 20 10.3246 20 10.6479C20 10.7972 19.978 10.946 19.9339 11.0944C19.8899 11.2427 19.8176 11.3849 19.7169 11.5208L17.4515 14.6346L17.5357 17.9392C17.5497 18.3779 17.4036 18.7477 17.0975 19.0485C16.7915 19.3495 16.4349 19.5 16.0276 19.5C16.0157 19.5 15.8749 19.4818 15.6052 19.4454L11.9936 18.4198L8.38196 19.4454C8.31184 19.4732 8.23948 19.4892 8.16487 19.4935C8.09026 19.4978 8.02183 19.5 7.95956 19.5C7.54852 19.5 7.19091 19.3495 6.88674 19.0485C6.58256 18.7477 6.43748 18.3779 6.45151 17.9392L6.53565 14.6138L4.28314 11.5208C4.18245 11.3843 4.11009 11.2416 4.06605 11.0927C4.02202 10.9437 4 10.7947 4 10.6458C4 10.3315 4.09242 10.0392 4.27725 9.76896C4.46209 9.49868 4.72026 9.30701 5.05179 9.19396L8.52269 8.03854Z" fill="#111111"/>
</svg>
