<svg width="24" height="24" viewBox="0 0 24 24" fill="none" xmlns="http://www.w3.org/2000/svg">
<mask id="mask0_4793_14387" style="mask-type:alpha" maskUnits="userSpaceOnUse" x="0" y="0" width="24" height="24">
<rect width="24" height="24" fill="#D9D9D9"/>
</mask>
<g mask="url(#mask0_4793_14387)">
<path d="M7.30775 22.5C6.80908 22.5 6.38308 22.3234 6.02975 21.9703C5.67658 21.6169 5.5 21.1909 5.5 20.6923V3.30775C5.5 2.80258 5.675 2.375 6.025 2.025C6.375 1.675 6.80258 1.5 7.30775 1.5H16.7308C17.2294 1.5 17.6553 1.67658 18.0085 2.02975C18.3618 2.38308 18.5385 2.80908 18.5385 3.30775V6.4655V6.90234C18.5385 6.90234 18.5385 7.21533 18.5385 7.5V9.51562V10V10.7078V20.6923C18.5385 21.1909 18.3618 21.6169 18.0085 21.9703C17.6553 22.3234 17.2294 22.5 16.7308 22.5H7.30775ZM7.30775 21H16.7308C16.8204 21 16.8942 20.9712 16.952 20.9135C17.0097 20.8558 17.0385 20.7821 17.0385 20.6923V3.30775C17.0385 3.21792 17.0097 3.14417 16.952 3.0865C16.8942 3.02883 16.8204 3 16.7308 3H7.30775C7.21792 3 7.14417 3.02883 7.0865 3.0865C7.02883 3.14417 7 3.21792 7 3.30775V20.6923C7 20.7821 7.02883 20.8558 7.0865 20.9135C7.14417 20.9712 7.21792 21 7.30775 21ZM9.94225 19.6152H14.0962C14.3091 19.6152 14.4872 19.5435 14.6307 19.4C14.7744 19.2563 14.8462 19.0781 14.8462 18.8652C14.8462 18.6526 14.7744 18.4744 14.6307 18.3307C14.4872 18.1873 14.3091 18.1155 14.0962 18.1155H9.94225C9.72942 18.1155 9.55125 18.1873 9.40775 18.3307C9.26408 18.4744 9.19225 18.6526 9.19225 18.8652C9.19225 19.0781 9.26408 19.2563 9.40775 19.4C9.55125 19.5435 9.72942 19.6152 9.94225 19.6152Z" fill="#1C1B1F"/>
</g>
</svg>
