<svg width="24" height="24" viewBox="0 0 24 24" fill="none" xmlns="http://www.w3.org/2000/svg">
<mask id="mask0_15_1059" style="mask-type:alpha" maskUnits="userSpaceOnUse" x="0" y="0" width="24" height="24">
<rect width="24" height="24" fill="#D9D9D9"/>
</mask>
<g mask="url(#mask0_15_1059)">
<path d="M4.69625 20.0268C4.40142 20.141 4.12833 20.1083 3.877 19.9288C3.62567 19.7493 3.5 19.5038 3.5 19.1923V6.07708C3.5 5.87958 3.55292 5.70232 3.65875 5.54532C3.76442 5.38832 3.91283 5.27457 4.104 5.20407L9 3.53857L15 5.63857L19.3038 3.97332C19.5986 3.85916 19.8717 3.88699 20.123 4.05683C20.3743 4.22666 20.5 4.46416 20.5 4.76933V12.3386C20.3013 12.0642 20.076 11.812 19.824 11.5818C19.5722 11.3517 19.2975 11.1487 19 10.9731V5.70007L15.75 6.92708V10.1156C15.4833 10.1219 15.2266 10.1447 14.9798 10.1838C14.7331 10.2228 14.4898 10.2847 14.25 10.3693V6.92708L9.75 5.35383V18.0828L4.69625 20.0268ZM5 18.3001L8.25 17.0538V5.35383L5 6.45007V18.3001ZM15.9423 18.1058C16.5538 18.1058 17.0631 17.9152 17.4703 17.5338C17.8772 17.1523 18.0859 16.6251 18.0962 15.9521C18.1064 15.3404 17.9028 14.8285 17.4855 14.4163C17.0682 14.0042 16.5538 13.7981 15.9423 13.7981C15.3308 13.7981 14.8189 14.0042 14.4068 14.4163C13.9946 14.8285 13.7885 15.3404 13.7885 15.9521C13.7885 16.5636 13.9946 17.0754 14.4068 17.4876C14.8189 17.8997 15.3308 18.1058 15.9423 18.1058ZM15.9423 19.6058C14.9384 19.6058 14.0785 19.2478 13.3625 18.5318C12.6465 17.8158 12.2885 16.9559 12.2885 15.9521C12.2885 14.9482 12.6465 14.0883 13.3625 13.3723C14.0785 12.6562 14.9384 12.2981 15.9423 12.2981C16.9461 12.2981 17.806 12.6562 18.522 13.3723C19.238 14.0883 19.596 14.9482 19.596 15.9521C19.596 16.3289 19.5454 16.685 19.4443 17.0203C19.3429 17.3555 19.1942 17.6667 18.998 17.9538L21.5 20.4463L20.4557 21.5001L17.9538 18.9981C17.6666 19.2007 17.3554 19.3527 17.0203 19.4538C16.6849 19.5552 16.3256 19.6058 15.9423 19.6058Z" fill="#111111"/>
</g>
</svg>
