<svg width="24" height="24" viewBox="0 0 24 24" fill="none" xmlns="http://www.w3.org/2000/svg">
<mask id="mask0_15_1106" style="mask-type:alpha" maskUnits="userSpaceOnUse" x="0" y="0" width="24" height="24">
<rect width="24" height="24" fill="#D9D9D9"/>
</mask>
<g mask="url(#mask0_15_1106)">
<path d="M13.75 6V10.75H12.25V8.57875L9.698 11.0963C10.0212 11.5693 10.2773 12.0703 10.4663 12.5995C10.6554 13.1287 10.75 13.6788 10.75 14.25C10.75 15.7137 10.241 16.9546 9.223 17.9728C8.205 18.9909 6.96425 19.5 5.50075 19.5C4.03742 19.5 2.7965 18.991 1.778 17.973C0.759333 16.955 0.25 15.7143 0.25 14.2508C0.25 12.7874 0.759083 11.5465 1.77725 10.528C2.79542 9.50933 4.03633 9 5.5 9C6.06283 9 6.60933 9.092 7.1395 9.276C7.6695 9.46 8.16592 9.71867 8.62875 10.052L11.1807 7.5H9V6H13.75ZM5.4985 10.5C4.46233 10.5 3.5785 10.8663 2.847 11.5988C2.11567 12.3311 1.75 13.2153 1.75 14.2515C1.75 15.2877 2.11625 16.1715 2.84875 16.903C3.58108 17.6343 4.46533 18 5.5015 18C6.53767 18 7.4215 17.6337 8.153 16.9012C8.88433 16.1689 9.25 15.2847 9.25 14.2485C9.25 13.2123 8.88375 12.3285 8.15125 11.597C7.41892 10.8657 6.53467 10.5 5.4985 10.5Z" fill="#111111"/>
</g>
</svg>
