<svg width="24" height="24" viewBox="0 0 24 24" fill="none" xmlns="http://www.w3.org/2000/svg">
<mask id="mask0_15_1062" style="mask-type:alpha" maskUnits="userSpaceOnUse" x="0" y="0" width="24" height="24">
<rect width="24" height="24" fill="#D9D9D9"/>
</mask>
<g mask="url(#mask0_15_1062)">
<path d="M11.4905 20.5595C11.2763 20.5595 11.0612 20.5211 10.8453 20.4443C10.6293 20.3673 10.4392 20.2467 10.275 20.0827L8.8385 18.777C7.0655 17.1603 5.4825 15.5722 4.0895 14.0125C2.6965 12.4528 2 10.782 2 9C2 7.58083 2.4785 6.39267 3.4355 5.4355C4.39267 4.4785 5.58083 4 7 4C7.80633 4 8.60283 4.18592 9.3895 4.55775C10.176 4.92958 10.8795 5.53342 11.5 6.36925C12.1205 5.53342 12.824 4.92958 13.6105 4.55775C14.3972 4.18592 15.1937 4 16 4C17.4192 4 18.6073 4.4785 19.5645 5.4355C20.5215 6.39267 21 7.58083 21 9C21 10.8013 20.2917 12.4907 18.875 14.0682C17.4583 15.6458 15.8788 17.2204 14.1365 18.7922L12.7153 20.0827C12.5513 20.2467 12.3597 20.3673 12.1405 20.4443C11.9212 20.5211 11.7045 20.5595 11.4905 20.5595Z" fill="#111111"/>
</g>
</svg>
