<svg width="24" height="24" viewBox="0 0 24 24" fill="none" xmlns="http://www.w3.org/2000/svg">
<mask id="mask0_15_1066" style="mask-type:alpha" maskUnits="userSpaceOnUse" x="0" y="0" width="24" height="24">
<rect width="24" height="24" fill="#D9D9D9"/>
</mask>
<g mask="url(#mask0_15_1066)">
<path d="M4.30775 19.5C3.80258 19.5 3.375 19.325 3.025 18.975C2.675 18.625 2.5 18.1974 2.5 17.6923V6.30775C2.5 5.80258 2.675 5.375 3.025 5.025C3.375 4.675 3.80258 4.5 4.30775 4.5H9.798L11.798 6.5H19.6923C20.1974 6.5 20.625 6.675 20.975 7.025C21.325 7.375 21.5 7.80258 21.5 8.30775V11.1365C21.2602 11.0417 21.0127 10.9798 20.7577 10.951C20.5026 10.9222 20.25 10.9231 20 10.9538V8.30775C20 8.23075 19.9679 8.16025 19.9038 8.09625C19.8398 8.03208 19.7693 8 19.6923 8H11.1845L9.1845 6H4.30775C4.21792 6 4.14417 6.02883 4.0865 6.0865C4.02883 6.14417 4 6.21792 4 6.30775V17.6923C4 17.7692 4.03208 17.8398 4.09625 17.9038C4.16025 17.9679 4.23075 18 4.30775 18H11.9845L11.923 18.0615V19.5H4.30775ZM14.1155 21.5V18.8577L19.5443 13.4537C19.6686 13.3294 19.8032 13.2419 19.948 13.1912C20.0928 13.1407 20.2377 13.1155 20.3827 13.1155C20.5378 13.1155 20.6893 13.1449 20.8375 13.2037C20.9855 13.2627 21.1185 13.3512 21.2365 13.4692L22.1615 14.4038C22.2692 14.5283 22.3525 14.6629 22.4115 14.8077C22.4705 14.9526 22.5 15.0974 22.5 15.2423C22.5 15.3871 22.4731 15.5345 22.4193 15.6845C22.3654 15.8345 22.2795 15.9717 22.1615 16.096L16.7578 21.5H14.1155ZM15.3077 20.3077H16.2578L19.5038 17.046L19.0443 16.571L18.5788 16.102L15.3077 19.3577V20.3077ZM19.0443 16.571L18.5788 16.102L19.5038 17.046L19.0443 16.571Z" fill="#111111"/>
</g>
</svg>
