<svg width="24" height="24" viewBox="0 0 24 24" fill="none" xmlns="http://www.w3.org/2000/svg">
<mask id="mask0_15_1083" style="mask-type:alpha" maskUnits="userSpaceOnUse" x="0" y="0" width="24" height="24">
<rect width="24" height="24" fill="#D9D9D9"/>
</mask>
<g mask="url(#mask0_15_1083)">
<path d="M11.25 10.75V13C11.25 13.2128 11.3218 13.391 11.4655 13.5345C11.609 13.6782 11.7872 13.75 12 13.75C12.2128 13.75 12.391 13.6782 12.5345 13.5345C12.6782 13.391 12.75 13.2128 12.75 13V10.75H15C15.2128 10.75 15.391 10.6782 15.5345 10.5345C15.6782 10.391 15.75 10.2128 15.75 10C15.75 9.78717 15.6782 9.609 15.5345 9.4655C15.391 9.32183 15.2128 9.25 15 9.25H12.75V7C12.75 6.78717 12.6782 6.609 12.5345 6.4655C12.391 6.32183 12.2128 6.25 12 6.25C11.7872 6.25 11.609 6.32183 11.4655 6.4655C11.3218 6.609 11.25 6.78717 11.25 7V9.25H9C8.78717 9.25 8.609 9.32183 8.4655 9.4655C8.32183 9.609 8.25 9.78717 8.25 10C8.25 10.2128 8.32183 10.391 8.4655 10.5345C8.609 10.6782 8.78717 10.75 9 10.75H11.25ZM6.0385 17.5L4.0365 19.5018C3.752 19.7864 3.42475 19.8509 3.05475 19.6952C2.68492 19.5394 2.5 19.2589 2.5 18.8538V4.30775C2.5 3.80258 2.675 3.375 3.025 3.025C3.375 2.675 3.80258 2.5 4.30775 2.5H19.6923C20.1974 2.5 20.625 2.675 20.975 3.025C21.325 3.375 21.5 3.80258 21.5 4.30775V15.6923C21.5 16.1974 21.325 16.625 20.975 16.975C20.625 17.325 20.1974 17.5 19.6923 17.5H6.0385ZM5.4 16H19.6923C19.7693 16 19.8398 15.9679 19.9038 15.9038C19.9679 15.8398 20 15.7692 20 15.6923V4.30775C20 4.23075 19.9679 4.16025 19.9038 4.09625C19.8398 4.03208 19.7693 4 19.6923 4H4.30775C4.23075 4 4.16025 4.03208 4.09625 4.09625C4.03208 4.16025 4 4.23075 4 4.30775V17.3848L5.4 16Z" fill="#111111"/>
</g>
</svg>
