<svg width="24" height="24" viewBox="0 0 24 24" fill="none" xmlns="http://www.w3.org/2000/svg">
<mask id="mask0_15_1114" style="mask-type:alpha" maskUnits="userSpaceOnUse" x="0" y="0" width="24" height="24">
<rect width="24" height="24" fill="#D9D9D9"/>
</mask>
<g mask="url(#mask0_15_1114)">
<path d="M7.25 20.5V18.5H5.25V17H7.25V14.4385C5.9525 14.25 4.87817 13.6625 4.027 12.676C3.17567 11.6895 2.75 10.5373 2.75 9.21925C2.75 7.76675 3.26183 6.53375 4.2855 5.52025C5.30933 4.50675 6.5475 4 8 4C9.4525 4 10.6907 4.50675 11.7145 5.52025C12.7382 6.53375 13.25 7.76675 13.25 9.21925C13.25 10.5373 12.8243 11.6895 11.973 12.676C11.1218 13.6625 10.0475 14.25 8.75 14.4385V17H10.75V18.5H8.75V20.5H7.25ZM8.0015 13C9.03767 13 9.9215 12.6337 10.653 11.9012C11.3843 11.1689 11.75 10.2847 11.75 9.2485C11.75 8.21233 11.3837 7.3285 10.6512 6.597C9.91892 5.86567 9.03467 5.5 7.9985 5.5C6.96233 5.5 6.0785 5.86625 5.347 6.59875C4.61567 7.33108 4.25 8.21533 4.25 9.2515C4.25 10.2877 4.61625 11.1715 5.34875 11.903C6.08108 12.6343 6.96533 13 8.0015 13Z" fill="#111111"/>
</g>
</svg>
