<svg width="24" height="24" viewBox="0 0 24 24" fill="none" xmlns="http://www.w3.org/2000/svg">
<mask id="mask0_15_1072" style="mask-type:alpha" maskUnits="userSpaceOnUse" x="0" y="0" width="24" height="24">
<rect width="24" height="24" fill="#D9D9D9"/>
</mask>
<g mask="url(#mask0_15_1072)">
<path d="M7.33887 18.625V5.375H12.2004C13.2195 5.375 14.141 5.69233 14.9649 6.327C15.7885 6.9615 16.2004 7.816 16.2004 8.8905C16.2004 9.63783 16.0199 10.2471 15.6589 10.7182C15.298 11.1894 14.9093 11.5314 14.4926 11.7442C15.0055 11.9211 15.4952 12.2708 15.9619 12.7933C16.4285 13.3158 16.6619 14.0193 16.6619 14.9038C16.6619 16.1819 16.1907 17.1217 15.2484 17.723C14.306 18.3243 13.3567 18.625 12.4004 18.625H7.33887ZM9.48887 16.6328H12.3196C13.1068 16.6328 13.6632 16.4142 13.9889 15.977C14.3145 15.5398 14.4774 15.1206 14.4774 14.7192C14.4774 14.3179 14.3145 13.8987 13.9889 13.4615C13.6632 13.0243 13.0914 12.8058 12.2734 12.8058H9.48887V16.6328ZM9.48887 10.875H12.0831C12.6908 10.875 13.1725 10.7013 13.5284 10.3538C13.884 10.0064 14.0619 9.59042 14.0619 9.10575C14.0619 8.59042 13.8738 8.16925 13.4976 7.84225C13.1213 7.51542 12.66 7.352 12.1139 7.352H9.48887V10.875Z" fill="#111111"/>
</g>
</svg>
