<svg width="24" height="24" viewBox="0 0 24 24" fill="none" xmlns="http://www.w3.org/2000/svg">
<mask id="mask0_15_1061" style="mask-type:alpha" maskUnits="userSpaceOnUse" x="0" y="0" width="24" height="24">
<rect width="24" height="24" fill="#D9D9D9"/>
</mask>
<g mask="url(#mask0_15_1061)">
<path d="M5.30788 19.5V11.5C5.30788 9.2725 6.08413 7.38233 7.63663 5.8295C9.1893 4.2765 11.079 3.5 13.3059 3.5C15.5327 3.5 17.4231 4.27633 18.9771 5.829C20.531 7.3815 21.3079 9.27117 21.3079 11.498C21.3079 13.725 20.5314 15.6154 18.9784 17.1693C17.4254 18.7231 15.5352 19.5 13.3079 19.5H5.30788ZM6.80788 18H13.3079C15.1079 18 16.6412 17.3667 17.9079 16.1C19.1745 14.8333 19.8079 13.3 19.8079 11.5C19.8079 9.7 19.1745 8.16667 17.9079 6.9C16.6412 5.63333 15.1079 5 13.3079 5C11.5079 5 9.97455 5.63333 8.70788 6.9C7.44122 8.16667 6.80788 9.7 6.80788 11.5V18ZM13.3079 14.75C14.2104 14.75 14.9776 14.434 15.6096 13.802C16.2418 13.1698 16.5579 12.4025 16.5579 11.5C16.5579 10.5975 16.2418 9.83017 15.6096 9.198C14.9776 8.566 14.2104 8.25 13.3079 8.25C12.4052 8.25 11.6379 8.566 11.0059 9.198C10.3739 9.83017 10.0579 10.5975 10.0579 11.5C10.0579 12.4025 10.3739 13.1698 11.0059 13.802C11.6379 14.434 12.4052 14.75 13.3079 14.75ZM13.3066 13.25C12.8203 13.25 12.4072 13.0798 12.0674 12.7393C11.7277 12.3988 11.5579 11.9853 11.5579 11.4988C11.5579 11.0124 11.7281 10.5993 12.0686 10.2595C12.4091 9.91983 12.8225 9.75 13.3089 9.75C13.7954 9.75 14.2085 9.92025 14.5481 10.2607C14.888 10.6012 15.0579 11.0148 15.0579 11.5013C15.0579 11.9876 14.8876 12.4007 14.5471 12.7405C14.2066 13.0802 13.7931 13.25 13.3066 13.25ZM2.69238 19.5V15H4.19238V19.5H2.69238Z" fill="#111111"/>
</g>
</svg>
