<svg width="24" height="24" viewBox="0 0 24 24" fill="none" xmlns="http://www.w3.org/2000/svg">
<mask id="mask0_2127_16703" style="mask-type:alpha" maskUnits="userSpaceOnUse" x="0" y="0" width="24" height="24">
<rect width="24" height="24" fill="#D9D9D9"/>
</mask>
<g mask="url(#mask0_2127_16703)">
<path d="M11.2498 22.2V20.4693C9.16647 20.2551 7.41264 19.4359 5.9883 18.0115C4.56397 16.5872 3.74472 14.8334 3.53055 12.75H1.7998V11.25H3.53055C3.74472 9.16672 4.56397 7.41288 5.9883 5.98855C7.41264 4.56421 9.16647 3.74496 11.2498 3.5308V1.80005H12.7498V3.5308C14.8331 3.74496 16.587 4.56421 18.0113 5.98855C19.4356 7.41288 20.2549 9.16672 20.4691 11.25H22.1998V12.75H20.4691C20.2549 14.8334 19.4356 16.5872 18.0113 18.0115C16.587 19.4359 14.8331 20.2551 12.7498 20.4693V22.2H11.2498ZM11.9998 19C13.9331 19 15.5831 18.3167 16.9498 16.95C18.3165 15.5834 18.9998 13.9334 18.9998 12C18.9998 10.0667 18.3165 8.41672 16.9498 7.05005C15.5831 5.68338 13.9331 5.00005 11.9998 5.00005C10.0665 5.00005 8.41647 5.68338 7.0498 7.05005C5.68314 8.41672 4.9998 10.0667 4.9998 12C4.9998 13.9334 5.68314 15.5834 7.0498 16.95C8.41647 18.3167 10.0665 19 11.9998 19ZM11.9998 15.5C11.0373 15.5 10.2134 15.1573 9.52805 14.4718C8.84255 13.7865 8.4998 12.9625 8.4998 12C8.4998 11.0375 8.84255 10.2136 9.52805 9.5283C10.2134 8.8428 11.0373 8.50005 11.9998 8.50005C12.9623 8.50005 13.7862 8.8428 14.4716 9.5283C15.1571 10.2136 15.4998 11.0375 15.4998 12C15.4998 12.9625 15.1571 13.7865 14.4716 14.4718C13.7862 15.1573 12.9623 15.5 11.9998 15.5ZM11.9998 14C12.5498 14 13.0206 13.8042 13.4123 13.4125C13.804 13.0209 13.9998 12.55 13.9998 12C13.9998 11.45 13.804 10.9792 13.4123 10.5875C13.0206 10.1959 12.5498 10 11.9998 10C11.4498 10 10.979 10.1959 10.5873 10.5875C10.1956 10.9792 9.9998 11.45 9.9998 12C9.9998 12.55 10.1956 13.0209 10.5873 13.4125C10.979 13.8042 11.4498 14 11.9998 14Z" fill="#111111"/>
</g>
</svg>
