<svg width="24" height="24" viewBox="0 0 24 24" fill="none" xmlns="http://www.w3.org/2000/svg">
<mask id="mask0_15_1101" style="mask-type:alpha" maskUnits="userSpaceOnUse" x="0" y="0" width="24" height="24">
<rect width="24" height="24" fill="#D9D9D9"/>
</mask>
<g mask="url(#mask0_15_1101)">
<path d="M12 22.3845L5.223 17.302C4.99867 17.1378 4.82208 16.9269 4.69325 16.6693C4.56442 16.4116 4.5 16.1404 4.5 15.8558V4.30775C4.5 3.80258 4.675 3.375 5.025 3.025C5.375 2.675 5.80258 2.5 6.30775 2.5H17.6923C18.1974 2.5 18.625 2.675 18.975 3.025C19.325 3.375 19.5 3.80258 19.5 4.30775V15.8558C19.5 16.1404 19.4356 16.4116 19.3068 16.6693C19.1779 16.9269 19.0013 17.1378 18.777 17.302L12 22.3845ZM12 20.5L17.875 16.0962C17.9135 16.0641 17.9439 16.0272 17.9663 15.9855C17.9888 15.9438 18 15.8974 18 15.8462V4.30775C18 4.23075 17.9679 4.16025 17.9038 4.09625C17.8398 4.03208 17.7692 4 17.6923 4H6.30775C6.23075 4 6.16025 4.03208 6.09625 4.09625C6.03208 4.16025 6 4.23075 6 4.30775V15.8462C6 15.8974 6.01125 15.9438 6.03375 15.9855C6.05608 16.0272 6.0865 16.0641 6.125 16.0962L12 20.5ZM10.95 14.6538L16.2538 9.35L15.2 8.2655L10.95 12.5155L8.83075 10.3962L7.74625 11.45L10.95 14.6538Z" fill="#111111"/>
</g>
</svg>
