<svg width="24" height="24" viewBox="0 0 24 24" fill="none" xmlns="http://www.w3.org/2000/svg">
<mask id="mask0_90_1488" style="mask-type:alpha" maskUnits="userSpaceOnUse" x="0" y="0" width="24" height="24">
<rect width="24" height="24" fill="#D9D9D9"/>
</mask>
<g mask="url(#mask0_90_1488)">
<path d="M20.4462 21.4999L17.7653 18.8286C17.4307 19.0324 17.077 19.1953 16.704 19.3171C16.331 19.439 15.9425 19.4999 15.5385 19.4999C14.4423 19.4999 13.508 19.1136 12.7355 18.3411C11.9632 17.5688 11.577 16.6345 11.577 15.5384C11.577 14.4422 11.9632 13.5079 12.7355 12.7354C13.508 11.963 14.4423 11.5769 15.5385 11.5769C16.6347 11.5769 17.5689 11.963 18.3413 12.7354C19.1138 13.5079 19.5 14.4422 19.5 15.5384C19.5 15.9397 19.4423 16.3291 19.327 16.7066C19.2115 17.0841 19.0423 17.437 18.8193 17.7651L21.5 20.4461L20.4462 21.4999ZM15.5363 17.9999C16.2249 17.9999 16.8077 17.7621 17.2845 17.2866C17.7615 16.8111 18 16.2291 18 15.5406C18 14.852 17.7622 14.2691 17.2867 13.7921C16.8112 13.3153 16.2293 13.0769 15.5408 13.0769C14.8521 13.0769 14.2693 13.3146 13.7923 13.7901C13.3154 14.2655 13.077 14.8475 13.077 15.5361C13.077 16.2248 13.3147 16.8075 13.7902 17.2844C14.2656 17.7614 14.8476 17.9999 15.5363 17.9999ZM20.5 10.3461H19V5.30762C19 5.23062 18.9679 5.16012 18.9038 5.09612C18.8398 5.03195 18.7692 4.99987 18.6923 4.99987H16.5V7.61512H7.5V4.99987H5.30775C5.23075 4.99987 5.16025 5.03195 5.09625 5.09612C5.03208 5.16012 5 5.23062 5 5.30762V18.6921C5 18.7691 5.03208 18.8396 5.09625 18.9036C5.16025 18.9678 5.23075 18.9999 5.30775 18.9999H10.25V20.4999H5.30775C4.81058 20.4999 4.385 20.3229 4.031 19.9689C3.677 19.6149 3.5 19.1893 3.5 18.6921V5.30762C3.5 4.81045 3.677 4.38487 4.031 4.03087C4.385 3.67687 4.81058 3.49987 5.30775 3.49987H9.7135C9.852 3.0127 10.135 2.60887 10.5625 2.28837C10.99 1.96787 11.4692 1.80762 12 1.80762C12.5513 1.80762 13.0382 1.96787 13.4605 2.28837C13.883 2.60887 14.1635 3.0127 14.302 3.49987H18.6923C19.1894 3.49987 19.615 3.67687 19.969 4.03087C20.323 4.38487 20.5 4.81045 20.5 5.30762V10.3461ZM12.0017 5.11537C12.2583 5.11537 12.4728 5.02853 12.6453 4.85487C12.8176 4.68137 12.9038 4.46628 12.9038 4.20962C12.9038 3.95312 12.817 3.73862 12.6435 3.56612C12.47 3.39378 12.2549 3.30762 11.9983 3.30762C11.7417 3.30762 11.5273 3.39437 11.3548 3.56787C11.1824 3.74153 11.0963 3.95662 11.0963 4.21312C11.0963 4.46962 11.183 4.68412 11.3565 4.85662C11.53 5.02912 11.7451 5.11537 12.0017 5.11537Z" fill="#111111"/>
</g>
</svg>
