<svg width="24" height="24" viewBox="0 0 24 24" fill="none" xmlns="http://www.w3.org/2000/svg">
<mask id="mask0_15_1068" style="mask-type:alpha" maskUnits="userSpaceOnUse" x="0" y="0" width="24" height="24">
<rect width="24" height="24" fill="#D9D9D9"/>
</mask>
<g mask="url(#mask0_15_1068)">
<path d="M6.58623 15.6538H13.894V15.2963C13.894 14.6654 13.5546 14.1507 12.8757 13.752C12.1969 13.3532 11.3184 13.1538 10.2402 13.1538C9.1619 13.1538 8.28332 13.3532 7.60448 13.752C6.92565 14.1507 6.58623 14.6654 6.58623 15.2963V15.6538ZM10.2402 11.8463C10.7261 11.8463 11.1392 11.676 11.4795 11.3355C11.82 10.9952 11.9902 10.5821 11.9902 10.0962C11.9902 9.61025 11.82 9.19708 11.4795 8.85675C11.1392 8.51642 10.7261 8.34625 10.2402 8.34625C9.75423 8.34625 9.34107 8.51642 9.00073 8.85675C8.6604 9.19708 8.49023 9.61025 8.49023 10.0962C8.49023 10.5821 8.6604 10.9952 9.00073 11.3355C9.34107 11.676 9.75423 11.8463 10.2402 11.8463ZM4.54773 19.5C4.04273 19.5 3.61523 19.325 3.26523 18.975C2.91523 18.625 2.74023 18.1974 2.74023 17.6923V6.30775C2.74023 5.80258 2.91523 5.375 3.26523 5.025C3.61523 4.675 4.04273 4.5 4.54773 4.5H15.9325C16.4375 4.5 16.865 4.675 17.215 5.025C17.565 5.375 17.74 5.80258 17.74 6.30775V10.8848L21.2592 7.3655V16.6345L17.74 13.1152V17.6923C17.74 18.1974 17.565 18.625 17.215 18.975C16.865 19.325 16.4375 19.5 15.9325 19.5H4.54773ZM4.54773 18H15.9325C16.0222 18 16.0958 17.9712 16.1535 17.9135C16.2113 17.8558 16.2402 17.7821 16.2402 17.6923V6.30775C16.2402 6.21792 16.2113 6.14417 16.1535 6.0865C16.0958 6.02883 16.0222 6 15.9325 6H4.54773C4.45807 6 4.3844 6.02883 4.32673 6.0865C4.26907 6.14417 4.24023 6.21792 4.24023 6.30775V17.6923C4.24023 17.7821 4.26907 17.8558 4.32673 17.9135C4.3844 17.9712 4.45807 18 4.54773 18Z" fill="#111111"/>
</g>
</svg>
