<svg width="24" height="24" viewBox="0 0 24 24" fill="none" xmlns="http://www.w3.org/2000/svg">
<mask id="mask0_15_1085" style="mask-type:alpha" maskUnits="userSpaceOnUse" x="0" y="0" width="24" height="24">
<rect width="24" height="24" fill="#D9D9D9"/>
</mask>
<g mask="url(#mask0_15_1085)">
<path d="M8.8111 21.8653L7.0266 18.8578L3.6381 18.1153L3.96885 14.627L1.67285 12L3.96885 9.37301L3.6381 5.88477L7.0266 5.14227L8.8111 2.13477L11.9996 3.48851L15.1881 2.13477L16.9726 5.14227L20.3611 5.88477L20.0304 9.37301L22.3264 12L20.0304 14.627L20.3611 18.1153L16.9726 18.8578L15.1881 21.8653L11.9996 20.5115L8.8111 21.8653ZM10.9496 15.2038L16.2534 9.90002L15.1996 8.81552L10.9496 13.0655L8.7996 10.9463L7.74585 12L10.9496 15.2038Z" fill="#111111"/>
</g>
</svg>
