<svg width="24" height="24" viewBox="0 0 24 24" fill="none" xmlns="http://www.w3.org/2000/svg">
<mask id="mask0_15_1137" style="mask-type:alpha" maskUnits="userSpaceOnUse" x="0" y="0" width="24" height="24">
<rect width="24" height="24" fill="#D9D9D9"/>
</mask>
<g mask="url(#mask0_15_1137)">
<path d="M17.9873 19.8147L14.0802 15.9073C13.5802 16.3202 13.0052 16.6433 12.3552 16.8766C11.7052 17.1099 11.0327 17.2266 10.3379 17.2266C8.62874 17.2266 7.18224 16.6348 5.99841 15.4513C4.81457 14.2678 4.22266 12.8217 4.22266 11.1128C4.22266 9.40418 4.81441 7.95751 5.99791 6.77284C7.18141 5.58834 8.62757 4.99609 10.3364 4.99609C12.0451 4.99609 13.4917 5.58801 14.6764 6.77184C15.8609 7.95568 16.4532 9.40218 16.4532 11.1113C16.4532 11.8255 16.3333 12.5076 16.0937 13.1576C15.8538 13.8076 15.5339 14.3729 15.1339 14.8536L19.041 18.7607L17.9873 19.8147ZM10.3379 15.7268C11.6264 15.7268 12.7177 15.2797 13.6119 14.3853C14.5062 13.4912 14.9534 12.3998 14.9534 11.1113C14.9534 9.82284 14.5062 8.73151 13.6119 7.83734C12.7177 6.94301 11.6264 6.49584 10.3379 6.49584C9.04941 6.49584 7.95807 6.94301 7.06391 7.83734C6.16957 8.73151 5.72241 9.82284 5.72241 11.1113C5.72241 12.3998 6.16957 13.4912 7.06391 14.3853C7.95807 15.2797 9.04941 15.7268 10.3379 15.7268Z" fill="#111111"/>
</g>
</svg>
