<svg width="32" height="32" viewBox="0 0 32 32" fill="none" xmlns="http://www.w3.org/2000/svg">
<g clip-path="url(#clip0_2325_10244)">
<path d="M16 4.49756C8.82004 4.49756 2.99817 9.08256 2.99817 14.7463C2.99817 18.4019 5.43567 21.6194 9.09129 23.4344C8.88942 24.1182 7.81129 27.8532 7.76754 28.1426C7.76754 28.1426 7.74129 28.3619 7.88129 28.4494C8.02129 28.5369 8.18817 28.4669 8.18817 28.4669C8.60004 28.4057 12.9313 25.3632 13.685 24.8376C14.43 24.9426 15.2019 24.9951 15.9907 24.9951C23.1707 24.9951 28.9925 20.4101 28.9925 14.7463C29.0019 9.09131 23.18 4.49756 16 4.49756Z" fill="black"/>
</g>
<defs>
<clipPath id="clip0_2325_10244">
<rect width="32" height="32" fill="white"/>
</clipPath>
</defs>
</svg>
