<svg width="80" height="76" viewBox="0 0 80 76" fill="none" xmlns="http://www.w3.org/2000/svg">
<path d="M49.3882 57.3555C49.3882 57.3555 49.4196 57.4339 49.4511 57.4653C49.8603 56.2266 50.0649 54.9251 49.8446 53.6394C49.8288 53.4983 49.8446 53.3728 49.8761 53.2474C49.7344 52.5104 49.6242 51.7735 49.4983 51.0365C49.1363 49.6567 48.617 48.3239 48.0976 47.1166C47.8772 46.6148 47.5782 45.58 47.106 45.2664C45.485 42.8203 42.7464 41.1269 39.8347 40.7819C36.8129 40.437 33.6652 41.5189 31.509 43.667C27.7631 47.3988 24.82 60.4601 33.492 60.0211L34.1058 59.3625C34.4049 59.8172 34.8456 60.1622 35.5695 60.2563C38.1664 60.6012 38.796 59.0019 38.9376 57.0733C39.0793 59.0019 39.7088 60.6169 42.3057 60.2563C44.9498 59.8956 48.0976 59.6918 49.3882 57.3398V57.3555Z" fill="white"/>
<path d="M33.1138 54.926C33.1138 55.8668 32.9879 56.8076 33.0508 57.7484C33.1138 58.7833 33.3971 59.8181 34.2785 60.4296C34.7664 60.7746 35.3802 60.8687 35.9625 60.9157C36.4976 60.9471 37.0642 60.9 37.5521 60.6962C38.04 60.4923 38.4492 60.1631 38.7797 59.724C39.0473 59.3477 39.2204 58.9087 39.3306 58.4697C39.5981 57.3721 39.5824 56.2274 39.5824 55.1142C39.5824 54.8006 39.3148 54.5183 38.9843 54.5183C38.6538 54.5183 38.3863 54.7692 38.3863 55.1142C38.3863 55.5846 38.3863 56.055 38.3863 56.541C38.3863 56.7762 38.3705 57.0114 38.339 57.2466C38.339 57.3564 38.3233 57.4661 38.3076 57.5759C38.3076 57.6229 38.2761 57.7327 38.3076 57.5289C38.3076 57.5602 38.3076 57.5916 38.3076 57.6073C38.3076 57.67 38.2918 57.717 38.2761 57.7797C38.2446 57.9836 38.1974 58.1874 38.1344 58.3913C38.103 58.4853 38.0715 58.5794 38.04 58.6578C37.9928 58.7989 38.103 58.5324 38.04 58.6578C38.0085 58.7049 37.9928 58.7676 37.9613 58.8146C37.9141 58.893 37.8669 58.9714 37.8197 59.0498C37.8039 59.0812 37.7725 59.1125 37.7567 59.1439C37.6938 59.2223 37.8511 59.0184 37.7882 59.0968C37.7725 59.1282 37.741 59.1439 37.7252 59.1752C37.6623 59.238 37.5993 59.3007 37.5364 59.3634C37.5364 59.3634 37.5049 59.3948 37.4892 59.3948C37.4419 59.4418 37.6151 59.3007 37.5364 59.3477C37.4892 59.3791 37.4419 59.4104 37.3947 59.4418C37.316 59.4888 37.2216 59.5202 37.1429 59.5672C37.2531 59.4888 37.2688 59.5202 37.2059 59.5359C37.1744 59.5359 37.1586 59.5516 37.1272 59.5672C37.0642 59.5829 37.0013 59.6143 36.9383 59.63C36.8281 59.6613 36.718 59.677 36.6235 59.6927C36.6235 59.6927 36.7809 59.677 36.6865 59.6927C36.655 59.6927 36.6235 59.6927 36.592 59.6927C36.5134 59.6927 36.4504 59.6927 36.3717 59.6927C36.2458 59.6927 36.1199 59.6927 35.994 59.6927C35.9153 59.6927 35.8366 59.6927 35.7736 59.677C35.7264 59.677 35.6949 59.677 35.6477 59.677C35.5061 59.6613 35.7736 59.6927 35.6477 59.677C35.5376 59.6613 35.4116 59.63 35.3015 59.5986C35.2385 59.5829 35.1913 59.5672 35.1283 59.5359C35.0182 59.5045 35.27 59.5986 35.1598 59.5359C35.1283 59.5359 35.1126 59.5202 35.0811 59.5045C34.9867 59.4575 34.908 59.4104 34.8293 59.3477C34.7349 59.285 34.9395 59.4418 34.8608 59.3791C34.845 59.3634 34.8136 59.3477 34.7978 59.332C34.7664 59.3007 34.7191 59.2693 34.6877 59.2223C34.6562 59.1752 34.6247 59.1439 34.5932 59.1125C34.6877 59.2066 34.6719 59.2066 34.6404 59.1752C34.6404 59.1596 34.609 59.1282 34.5932 59.1125C34.5303 59.0341 34.4831 58.94 34.4358 58.846C34.4358 58.8303 34.4201 58.7989 34.4044 58.7833C34.3571 58.6892 34.4516 58.9244 34.4201 58.8303C34.4201 58.7833 34.3886 58.7519 34.3729 58.7048C34.3414 58.6108 34.3099 58.501 34.2785 58.3913C34.247 58.2972 34.2312 58.1874 34.2155 58.0933C34.2155 58.062 34.2155 58.0306 34.2155 58.0149C34.247 58.2031 34.2155 58.1247 34.2155 58.0777C34.2155 58.0149 34.2155 57.9522 34.1998 57.8895C34.1053 56.886 34.247 55.8982 34.247 54.8947C34.247 54.5811 33.9794 54.2988 33.6489 54.2988C33.3184 54.2988 33.0666 54.5497 33.0508 54.8947L33.1138 54.926Z" fill="#231F20"/>
<path d="M47.7666 45.2044C45.7836 42.0684 42.1951 40.0614 38.4651 40.1555C35.2386 40.2339 31.9964 41.7862 30.1235 44.4361C28.8644 46.2393 28.0618 48.4188 27.6053 50.5512C27.1489 52.6837 26.9758 55.0827 27.7942 57.1681C28.2034 58.2186 28.8644 59.1594 29.8245 59.7709C30.8947 60.4765 32.2168 60.6804 33.4916 60.6177C34.2471 60.5863 34.2471 59.4103 33.4916 59.4417C31.6187 59.5201 29.9347 58.8929 29.069 57.1681C28.2034 55.4433 28.3136 53.4049 28.6126 51.6018C28.9431 49.5948 29.6041 47.5877 30.6429 45.8316C31.9964 43.5267 34.3258 41.99 36.9699 41.4883C40.7629 40.767 44.7133 42.5702 46.7594 45.8002C47.1686 46.4431 48.1916 45.8473 47.7824 45.2044H47.7666Z" fill="#231F20"/>
<path d="M43.5801 54.9259C43.5801 55.8197 43.6903 56.7134 43.6588 57.6072C43.6588 57.7169 43.6588 57.8267 43.643 57.9364C43.643 57.9835 43.643 58.0462 43.6273 58.0932C43.6273 58.1246 43.6273 58.1403 43.6273 58.1716C43.643 57.9678 43.6273 58.1089 43.6273 58.1559C43.5958 58.3598 43.5486 58.5636 43.4857 58.7675C43.4857 58.8145 43.4542 58.8459 43.4384 58.8929C43.407 58.987 43.5014 58.7518 43.4542 58.8459C43.4542 58.8615 43.4384 58.8929 43.4227 58.9086C43.3755 59.0027 43.3283 59.0811 43.2653 59.1751C43.2653 59.1908 43.2338 59.2065 43.2338 59.2222C43.2024 59.2692 43.1709 59.2692 43.2653 59.1751C43.2338 59.2065 43.2024 59.2535 43.1709 59.2849C43.1394 59.3163 43.1079 59.3476 43.0765 59.379C43.0607 59.3946 43.045 59.4103 43.0135 59.426C42.9033 59.5201 43.1079 59.3633 43.0292 59.426C42.9505 59.4887 42.8719 59.5358 42.7774 59.5828C42.5728 59.6455 42.7302 59.6142 42.7774 59.5828C42.7145 59.5985 42.6515 59.6298 42.5886 59.6455C42.4784 59.6769 42.3682 59.7082 42.2423 59.7239C42.1793 59.7239 42.2108 59.7082 42.2895 59.7239C42.258 59.7239 42.1951 59.7239 42.1636 59.7239C42.0849 59.7239 41.9905 59.7396 41.9118 59.7396C41.7859 59.7396 41.66 59.7396 41.5341 59.7396C41.4711 59.7396 41.4081 59.7396 41.3295 59.7396C41.2665 59.7396 41.0619 59.6926 41.2665 59.7396C41.1563 59.7239 41.0619 59.7083 40.9517 59.6769C40.9045 59.6769 40.8416 59.6455 40.7943 59.6298C40.7629 59.6298 40.7471 59.6142 40.7156 59.5985C40.6527 59.5828 40.6369 59.5201 40.7629 59.6142C40.6842 59.5671 40.5897 59.5358 40.511 59.4887C40.4638 59.4574 40.4323 59.4417 40.3851 59.4103C40.2907 59.3476 40.3694 59.4103 40.3851 59.4103C40.4796 59.473 40.3851 59.4103 40.3694 59.3947C40.3064 59.3319 40.2435 59.2692 40.1805 59.2065C40.1333 59.1595 40.0546 59.0183 40.1648 59.2065C40.1333 59.1595 40.1018 59.1281 40.0861 59.0811C40.0389 59.0027 39.9917 58.9243 39.9444 58.8459C39.9287 58.7988 39.8972 58.7518 39.8815 58.7047C39.8815 58.7047 39.8815 58.6734 39.8658 58.6577C39.8185 58.5636 39.9287 58.8145 39.8658 58.6734C39.7871 58.4852 39.7241 58.2814 39.6926 58.0775C39.6611 57.9521 39.6454 57.8424 39.6139 57.7169C39.6139 57.6542 39.5982 57.6072 39.5825 57.5444C39.5667 57.4347 39.5982 57.7012 39.5825 57.5915C39.5825 57.5601 39.5825 57.5288 39.5825 57.4817C39.551 57.2308 39.5352 56.98 39.5195 56.7134C39.488 56.1803 39.5038 55.6472 39.5038 55.1141C39.5038 54.8005 39.2362 54.5182 38.9057 54.5182C38.5752 54.5182 38.3234 54.7691 38.3076 55.1141C38.3076 56.1333 38.3076 57.1681 38.4807 58.1716C38.6539 59.0967 39.0788 60.0062 39.9287 60.5079C40.4009 60.7902 40.9517 60.8999 41.4868 60.9156C42.1007 60.9313 42.7459 60.8529 43.3125 60.5863C44.3041 60.1159 44.6818 59.0654 44.792 58.0619C44.9021 57.0584 44.7605 55.9608 44.7448 54.9259C44.7448 54.6123 44.4772 54.3301 44.1467 54.3301C43.8162 54.3301 43.5486 54.581 43.5486 54.9259H43.5801Z" fill="#231F20"/>
<path d="M46.7438 45.7226C47.153 45.9735 47.3261 46.8202 47.515 47.2592C47.7038 47.7296 47.9084 48.2 48.0973 48.7174C48.5065 49.7993 48.8528 50.9126 49.0888 52.0415C49.3092 53.0921 49.4508 54.174 49.3721 55.2559C49.3407 55.7106 49.262 56.1497 49.1046 56.6357C48.9944 56.9964 48.7583 57.4511 48.538 57.7176C47.814 58.6427 46.6651 59.0347 45.4689 59.1288C44.7135 59.1915 44.7135 60.3675 45.4689 60.3048C46.7753 60.195 48.0816 59.8187 49.0416 58.8936C49.8443 58.1253 50.3007 57.0434 50.4581 55.9615C50.8201 53.4998 50.1433 50.944 49.3092 48.639C49.0888 48.0432 48.8056 47.3846 48.5852 46.8359C48.2862 46.0989 48.0501 45.1424 47.3104 44.7034C46.6493 44.3114 46.067 45.3306 46.7123 45.7226H46.7438Z" fill="#231F20"/>
<path d="M30.7536 19.9448C34.2791 18.5964 38.1665 18.5807 41.9124 19.0668C44.2102 19.3647 46.5395 19.8664 48.5698 21.0424C49.6716 21.6853 50.5214 22.7829 51.6546 23.269C53.1498 23.9118 54.2358 23.9432 55.5106 25.2446C58.7685 28.6158 60.7674 33.21 61.0349 37.9453C61.1136 39.4976 60.9562 41.0499 60.3109 42.4767C60.1221 42.8844 58.5639 45.2677 57.8242 43.982C57.7455 43.8409 57.6668 43.7154 57.5881 43.5743C57.1317 44.029 56.5494 44.3269 55.9198 44.4367C55.4319 44.5308 54.7394 44.2956 54.8024 43.7938C54.1099 44.6405 52.6462 44.6092 52.0009 43.7311C50.7575 46.0831 48.3652 46.4907 46.0359 46.6632C43.1715 46.8827 40.2598 46.9141 37.3639 46.9611C34.6096 47.0082 31.8238 46.8984 29.1482 46.2242C27.5114 45.8165 26.5356 44.5464 25.1191 43.9663C24.3479 43.6527 24.2378 43.982 23.4823 44.0133C23.3879 44.0133 21.9714 43.8879 22.113 43.8095C20.8539 44.421 19.2801 44.3426 18.0996 43.59C16.6674 42.6962 15.8962 40.9715 15.7074 39.278C15.5185 37.5846 15.8647 35.8598 16.2582 34.1978C16.8405 31.7047 17.5488 29.1802 19.0282 27.1105C19.7365 26.1227 20.6336 25.2446 21.6723 24.6331C22.7898 23.9589 23.9072 24.0686 25.0247 23.6453C26.992 22.8926 28.5974 20.7915 30.7693 19.9605L30.7536 19.9448Z" fill="white"/>
<path d="M39.9446 17.3898C39.0633 17.7818 38.2763 18.3619 37.6625 19.1146C37.0015 18.0483 35.3017 15.9786 34.3889 17.6563C33.9639 18.4247 34.3731 20.1338 34.6407 20.9021C34.6879 21.0275 34.7351 21.1529 34.861 21.2157C34.9712 21.2784 35.1128 21.247 35.2388 21.2157C35.7739 21.0432 36.2775 20.7296 36.6552 20.3062C36.8756 20.0554 37.1117 19.7574 37.4422 19.7574C37.6468 19.7574 37.8199 19.8986 37.993 20.024C38.7328 20.5885 41.6602 22.376 41.4083 20.5101C41.2824 19.6006 41.0936 18.6912 40.8575 17.7975C40.8103 17.625 40.7473 17.4212 40.5899 17.3271C40.4168 17.2173 40.1807 17.2957 39.9919 17.3741C39.9919 17.3741 39.9604 17.3741 39.9446 17.3898Z" fill="#EF4668"/>
<path d="M24.3318 31.7994C22.2857 36.127 21.6562 43.2613 26.5981 45.974C28.4868 47.0088 30.6902 47.2597 32.7992 47.2597C33.5547 47.2597 33.5547 46.0837 32.7992 46.0837C29.9662 46.0837 26.6926 45.582 25.103 42.9478C23.8911 40.9407 23.8124 38.3849 24.2058 36.127C24.4262 34.8413 24.8039 33.5712 25.3548 32.3952C25.6695 31.721 24.6623 31.1095 24.3318 31.7994Z" fill="#231F20"/>
<path d="M45.0755 47.2277C47.3104 47.3375 49.624 46.9141 51.4025 45.4873C53.1809 44.0604 54.0308 41.63 54.1725 39.3408C54.2984 37.3965 53.9679 35.4365 53.4642 33.5706C53.2596 32.8337 52.1265 33.1473 52.3311 33.8842C53.055 36.5498 53.4485 39.5603 52.3783 42.1945C51.6858 43.9193 50.3008 45.158 48.538 45.6911C47.4048 46.0361 46.2402 46.1145 45.0598 46.0517C44.3043 46.0204 44.3043 47.1964 45.0598 47.2277H45.0755Z" fill="#231F20"/>
<path d="M25.4179 23.2386C21.8295 22.5487 19.1696 25.5592 17.5328 28.3345C15.896 31.1099 14.8887 34.3869 14.8887 37.6483C14.8887 39.4672 15.2192 41.3017 15.9117 42.9951C16.195 43.6851 17.3439 43.3871 17.0449 42.6816C15.9274 39.9689 15.8173 36.9898 16.4625 34.1517C17.1078 31.3137 18.4614 28.4129 20.4759 26.2805C21.6563 25.0418 23.3246 24.0383 25.1031 24.3832C25.8428 24.5243 26.1576 23.3954 25.4179 23.2543V23.2386Z" fill="#231F20"/>
<path d="M17.4065 38.9495C17.2963 40.831 17.8629 42.791 18.9804 44.3119C19.0748 44.4374 19.1692 44.5315 19.3266 44.5785C19.4683 44.6099 19.6571 44.5942 19.783 44.5158C20.0348 44.359 20.1922 43.9827 19.9876 43.7161C19.7201 43.3555 19.4997 42.9792 19.2951 42.5872C19.2479 42.4931 19.2007 42.3833 19.1535 42.2736C19.1535 42.2422 19.1377 42.2265 19.122 42.1952C19.1535 42.2736 19.1535 42.2736 19.122 42.2109C19.1063 42.1638 19.0748 42.1011 19.059 42.0541C18.9804 41.8502 18.9174 41.6464 18.8544 41.4425C18.7915 41.2387 18.7443 41.0349 18.6971 40.8154C18.6813 40.7056 18.6498 40.5958 18.6341 40.4861C18.6341 40.4234 18.6026 40.3763 18.6026 40.3136C18.6026 40.4861 18.6026 40.2979 18.6026 40.2509C18.5554 39.8118 18.5397 39.3728 18.5711 38.9181C18.5869 38.6045 18.2878 38.3223 17.9731 38.3223C17.6426 38.3223 17.4065 38.5731 17.375 38.9181L17.4065 38.9495Z" fill="#231F20"/>
<path d="M20.3027 39.7813C20.3027 40.973 20.6962 42.1803 21.4202 43.1368C21.6405 43.419 21.8609 43.6856 22.1284 43.9365C22.3645 44.1403 22.7422 44.1717 22.9626 43.9365C23.1672 43.717 23.2144 43.325 22.9626 43.1054C22.7422 42.9173 22.5534 42.6978 22.3802 42.4783L22.4747 42.6037C22.2071 42.2587 21.9868 41.8824 21.8137 41.4747L21.8766 41.6159C21.7035 41.1925 21.5776 40.7535 21.5146 40.2988V40.4556C21.5146 40.236 21.4989 40.0165 21.4989 39.797C21.4989 39.4834 21.2313 39.2012 20.9008 39.2012C20.5703 39.2012 20.3027 39.452 20.3027 39.797V39.7813Z" fill="#231F20"/>
<path d="M51.7805 23.7713C54.881 23.5988 56.8955 26.3898 58.0602 28.8829C59.398 31.7209 60.6414 34.9196 60.7043 38.0869C60.7358 39.796 60.4053 41.5051 59.5397 43.0104C59.1619 43.6689 60.1849 44.2648 60.5627 43.6062C62.3254 40.58 62.1051 36.9266 61.1607 33.6809C60.6571 31.9718 59.9961 30.3097 59.2721 28.679C58.5796 27.1424 57.7454 25.6372 56.4863 24.4768C55.2272 23.3165 53.5589 22.5012 51.7805 22.5953C51.025 22.6423 51.025 23.8183 51.7805 23.7713Z" fill="#231F20"/>
<path d="M55.1955 39.2326C55.2585 39.9068 55.2585 40.5811 55.1955 41.2396C55.1955 41.318 55.1798 41.4121 55.164 41.4905C55.164 41.6003 55.1798 41.3651 55.164 41.4905C55.164 41.5375 55.164 41.5846 55.1483 41.6316C55.1168 41.8041 55.0853 41.9766 55.0381 42.149C55.0066 42.3058 54.9594 42.4626 54.8965 42.6194C54.865 42.6978 54.8492 42.7762 54.8178 42.839C54.8178 42.8703 54.7548 42.9801 54.802 42.9017C54.8492 42.8233 54.7863 42.9487 54.7706 42.9644C54.6919 43.1212 54.6132 43.278 54.5187 43.4191C54.503 43.4505 54.4715 43.4818 54.44 43.5289C54.44 43.5289 54.4243 43.5602 54.4086 43.5602C54.3456 43.6543 54.4715 43.4818 54.44 43.5289C54.3771 43.5916 54.3299 43.67 54.2669 43.7327C54.0466 43.9522 54.0308 44.3442 54.2669 44.5637C54.503 44.7833 54.8807 44.7989 55.1011 44.5637C56.1398 43.4818 56.3916 41.8198 56.4231 40.3929C56.4231 40.0009 56.4231 39.6089 56.3759 39.2169C56.3759 39.0601 56.3129 38.919 56.2028 38.7936C56.0926 38.6838 55.9352 38.6211 55.7778 38.6211C55.4788 38.6211 55.164 38.8877 55.1798 39.2169L55.1955 39.2326Z" fill="#231F20"/>
<path d="M57.7293 39.922C57.7765 40.4551 57.7608 40.9882 57.6821 41.5213V41.3645C57.6191 41.9604 57.4775 42.5405 57.2414 43.105L57.3043 42.9639C57.2099 43.1834 57.0997 43.4029 56.9738 43.6068C56.8164 43.8733 56.9109 44.2653 57.1784 44.4064C57.446 44.5475 57.808 44.4691 57.9811 44.2026C58.5792 43.1991 58.8625 42.0074 58.9097 40.8471C58.9097 40.5335 58.9097 40.2356 58.894 39.922C58.894 39.7652 58.831 39.6241 58.7208 39.4987C58.6107 39.3889 58.4533 39.3262 58.2959 39.3262C57.9969 39.3262 57.6821 39.5927 57.6978 39.922H57.7293Z" fill="#231F20"/>
<path d="M26.9604 22.5796C26.9604 22.5796 27.0706 22.4856 27.1336 22.4385C27.165 22.4228 27.1965 22.3915 27.2123 22.3758C27.165 22.4072 27.165 22.4072 27.2123 22.3758C27.3224 22.2817 27.4483 22.2033 27.5743 22.1249C27.8103 21.9524 28.0622 21.7956 28.314 21.6545C28.5658 21.5134 28.8176 21.3723 29.0852 21.2312C29.2111 21.1684 29.3527 21.1057 29.4786 21.043C29.5416 21.0116 29.6045 20.9803 29.6832 20.9489C29.5731 20.996 29.7462 20.9176 29.7619 20.9176C30.2971 20.6981 30.8479 20.5256 31.3988 20.4001C31.6821 20.3374 31.9654 20.2747 32.2487 20.2277C32.3273 20.2277 32.3903 20.212 32.469 20.1963C32.532 20.1963 32.5477 20.1963 32.469 20.1963C32.5005 20.1963 32.5477 20.1963 32.5792 20.1963C32.7208 20.1806 32.8625 20.1649 33.0199 20.1493C33.3189 20.1179 33.6179 19.8984 33.6179 19.5534C33.6179 19.2555 33.3504 18.9419 33.0199 18.9576C31.0682 19.1144 29.1796 19.7259 27.5113 20.7608C27.0234 21.0587 26.567 21.4036 26.1263 21.7643C25.8902 21.9681 25.9059 22.3915 26.1263 22.5953C26.3781 22.8305 26.7086 22.7991 26.9604 22.5953V22.5796Z" fill="#231F20"/>
<path d="M42.2581 19.7736C43.3283 19.8207 44.3199 19.9932 45.3901 20.3538C46.3659 20.6831 47.3102 21.1691 48.2231 21.7807C48.711 22.1099 49.1517 22.4706 49.6081 22.9253C49.8442 23.1448 50.2219 23.1448 50.4423 22.9253C50.6626 22.7058 50.6783 22.3138 50.4423 22.0943C48.7582 20.4636 46.602 19.3189 44.3042 18.8485C43.6274 18.7074 42.9506 18.629 42.2739 18.5977C41.9591 18.5977 41.6758 18.8799 41.6758 19.1935C41.6758 19.5228 41.9276 19.7736 42.2739 19.7893L42.2581 19.7736Z" fill="#231F20"/>
<path d="M38.2132 18.7691C37.9771 18.4555 37.7253 18.1576 37.442 17.891C37.1587 17.6245 36.8439 17.3893 36.5291 17.1854C36.3718 17.0757 36.1986 16.9816 36.0255 16.9032C35.8839 16.8248 35.7265 16.7934 35.5691 16.8405C35.4274 16.8718 35.2858 16.9816 35.2228 17.107C35.1441 17.2481 35.1127 17.4049 35.1599 17.5617C35.2071 17.7028 35.3015 17.844 35.4274 17.9067C35.7422 18.0635 36.0412 18.2516 36.3245 18.4712L36.1986 18.3771C36.5764 18.675 36.9226 19.02 37.2217 19.3963L37.1272 19.2708C37.1272 19.2708 37.1744 19.3179 37.1902 19.3492C37.2217 19.4119 37.2846 19.4747 37.3476 19.5217C37.4105 19.5687 37.4735 19.6158 37.5522 19.6315C37.6938 19.6628 37.8827 19.6471 38.0086 19.5687C38.1345 19.4903 38.2447 19.3649 38.2761 19.2238C38.3076 19.0827 38.3076 18.8945 38.2132 18.7691Z" fill="#231F20"/>
<path d="M33.6807 17.9708C33.6807 18.943 33.8066 19.9151 34.0269 20.8559C34.0741 21.0911 34.1371 21.3263 34.2473 21.5458C34.3732 21.8124 34.6407 22.0162 34.924 22.0946C35.4749 22.2201 35.9785 21.9378 36.3877 21.6085C36.7969 21.2793 37.2061 20.9186 37.5996 20.5737C37.7098 20.4796 37.7727 20.2914 37.7727 20.1503C37.7727 20.0092 37.7098 19.8367 37.5996 19.727C37.4894 19.6172 37.3321 19.5545 37.1747 19.5545C37.0173 19.5545 36.8756 19.6172 36.7497 19.727C36.3248 20.0876 35.9156 20.4482 35.4906 20.7932L35.6165 20.6991C35.4906 20.7932 35.349 20.8873 35.2073 20.95L35.349 20.8873C35.349 20.8873 35.2073 20.9343 35.1286 20.95H35.286C35.286 20.95 35.1758 20.95 35.1286 20.9343H35.286C35.286 20.9343 35.2073 20.9343 35.1758 20.9343L35.3175 20.997C35.3175 20.997 35.2545 20.9657 35.2073 20.9343L35.3332 21.0284C35.3332 21.0284 35.2703 20.9657 35.2388 20.9343L35.3332 21.0598C35.3332 21.0598 35.2703 20.9657 35.2545 20.9186L35.3175 21.0598C35.2231 20.8089 35.1758 20.5423 35.1286 20.2758C35.0657 19.9935 35.0185 19.7113 34.987 19.4291V19.5859C34.9398 19.0527 34.8925 18.5039 34.8925 17.9708C34.8925 17.6572 34.625 17.375 34.2945 17.375C33.964 17.375 33.6964 17.6259 33.6964 17.9708H33.6807Z" fill="#231F20"/>
<path d="M38.5279 19.6163C38.764 19.3811 39.0158 19.1459 39.2677 18.9107C39.3936 18.8009 39.5195 18.6912 39.6454 18.5971C39.7083 18.5501 39.7713 18.4873 39.8343 18.4403C39.8657 18.4089 39.8972 18.3933 39.9287 18.3619C39.9759 18.3305 39.9759 18.3305 39.9129 18.3776C39.9287 18.3619 39.9602 18.3462 39.9759 18.3305C40.1018 18.2365 40.2435 18.1424 40.3694 18.0483C40.4323 18.0013 40.4953 17.9542 40.5582 17.9229C40.5897 17.9072 40.7156 17.8601 40.5582 17.9229C40.6212 17.9072 40.6054 17.9072 40.511 17.9229C40.574 17.9229 40.5582 17.9229 40.4638 17.9229L40.3851 17.8915C40.3851 17.8915 40.4166 17.9072 40.3379 17.8445H40.3536C40.3536 17.8445 40.3851 17.8915 40.3222 17.8131C40.3222 17.8288 40.3536 17.8758 40.3694 17.8915C40.4323 17.9856 40.3222 17.7504 40.3694 17.8601C40.4323 18.0169 40.4795 18.1894 40.5268 18.3462C40.6212 18.6755 40.6999 19.0048 40.7471 19.3497C40.7471 19.4124 40.7786 19.4908 40.7786 19.5536V19.4752C40.7786 19.4752 40.7786 19.5222 40.7786 19.5536C40.7786 19.6006 40.7786 19.632 40.7786 19.679C40.7943 19.8515 40.8101 20.0396 40.8258 20.2121C40.8258 20.5571 40.8258 20.902 40.8258 21.247C40.8258 21.3097 40.7943 21.3881 40.8258 21.2156C40.8258 21.247 40.8258 21.2783 40.8101 21.294C40.7943 21.3097 40.8101 21.3411 40.7943 21.3724C40.7628 21.4822 40.8573 21.247 40.7943 21.3254C40.7314 21.4038 40.9045 21.2156 40.8258 21.294L40.9045 21.2313C40.9045 21.2313 40.873 21.247 40.9832 21.1999C40.8573 21.247 41.298 21.247 41.1406 21.1999C41.298 21.2627 41.1563 21.1999 41.1248 21.1686C40.4323 20.7295 39.7398 20.2905 39.0473 19.8515C38.7798 19.679 38.3863 19.7888 38.2446 20.0553C38.0873 20.3532 38.1817 20.6825 38.4492 20.855C39.1417 21.294 39.8343 21.7487 40.5425 22.1878C40.8101 22.3446 41.1091 22.4073 41.3924 22.2818C41.6442 22.1721 41.8016 21.9526 41.896 21.7017C41.959 21.5292 41.9747 21.3411 41.9905 21.1529C41.9905 20.9491 42.0062 20.7609 42.0062 20.5571C42.0062 19.7574 41.896 18.942 41.6914 18.1581C41.5813 17.7661 41.4868 17.3114 41.2035 17.0134C40.9989 16.7782 40.6841 16.6998 40.3851 16.7312C40.149 16.7626 39.9444 16.888 39.7398 17.0291C39.0001 17.5465 38.3076 18.1267 37.678 18.7696C37.4577 18.9891 37.442 19.3811 37.678 19.6006C37.9141 19.8201 38.2761 19.8358 38.5122 19.6006L38.5279 19.6163Z" fill="#231F20"/>
<path d="M30.7694 38.0707C31.5777 38.0707 32.2331 37.4179 32.2331 36.6125C32.2331 35.8072 31.5777 35.1543 30.7694 35.1543C29.961 35.1543 29.3057 35.8072 29.3057 36.6125C29.3057 37.4179 29.961 38.0707 30.7694 38.0707Z" fill="#231F20"/>
<path d="M46.0047 38.0707C46.8131 38.0707 47.4684 37.4179 47.4684 36.6125C47.4684 35.8072 46.8131 35.1543 46.0047 35.1543C45.1963 35.1543 44.541 35.8072 44.541 36.6125C44.541 37.4179 45.1963 38.0707 46.0047 38.0707Z" fill="#231F20"/>
<path d="M38.3867 40.2193C39.9513 40.2193 41.2197 39.4331 41.2197 38.4632C41.2197 37.4933 39.9513 36.707 38.3867 36.707C36.8221 36.707 35.5537 37.4933 35.5537 38.4632C35.5537 39.4331 36.8221 40.2193 38.3867 40.2193Z" fill="#231F20"/>
</svg>
