<svg width="100" height="100" viewBox="0 0 100 100" fill="none" xmlns="http://www.w3.org/2000/svg">
<path d="M90.0002 50.0402C90.0002 72.1095 72.1095 90.0002 50.0402 90.0002C27.9708 90.0002 10.0801 72.1095 10.0801 50.0402C10.0801 27.9708 27.9708 10.0801 50.0402 10.0801C72.1095 10.0801 90.0002 27.9708 90.0002 50.0402Z" fill="white"/>
<mask id="mask0_3647_3518" style="mask-type:alpha" maskUnits="userSpaceOnUse" x="10" y="10" width="80" height="80">
<path d="M89.9202 49.9601C89.9202 72.0294 72.0294 89.9202 49.9601 89.9202C27.8907 89.9202 10 72.0294 10 49.9601C10 27.8907 27.8907 10 49.9601 10C72.0294 10 89.9202 27.8907 89.9202 49.9601Z" fill="#D9D9D9"/>
</mask>
<g mask="url(#mask0_3647_3518)">
<path d="M101.567 39.019C95.1966 39.7176 89.1307 42.1124 84.0013 45.9535C78.8719 49.7947 74.8667 54.9417 72.4037 60.8578C69.9408 66.7737 69.1099 73.2421 69.998 79.5884C70.8861 85.9348 73.4606 91.9268 77.4528 96.9395C81.4451 101.952 86.7092 105.802 92.696 108.088C98.6827 110.373 105.173 111.011 111.49 109.934C117.807 108.858 123.72 106.106 128.611 101.966C133.503 97.8261 137.194 92.4498 139.301 86.3976L143.212 87.759C140.862 94.5108 136.743 100.508 131.286 105.127C125.829 109.745 119.233 112.815 112.186 114.017C105.138 115.218 97.8978 114.506 91.2189 111.956C84.54 109.406 78.6674 105.112 74.2136 99.5195C69.7597 93.9273 66.8878 87.2425 65.8971 80.1624C64.9063 73.0823 65.8331 65.866 68.5808 59.266C71.3285 52.6661 75.7965 46.9242 81.5188 42.6389C87.2412 38.3537 94.0087 35.6821 101.115 34.9027L101.567 39.019ZM11.6804 -21.1816C18.7869 -20.4022 25.5543 -17.7307 31.2767 -13.4454C36.9991 -9.16017 41.467 -3.4182 44.2147 3.1817C46.9625 9.78166 47.8892 16.998 46.8985 24.0781C45.9077 31.1582 43.0358 37.8429 38.582 43.4351C34.1282 49.0274 28.2555 53.3221 21.5767 55.872C14.8978 58.4219 7.65716 59.1336 0.60973 57.9324C-6.43771 56.7312 -13.0339 53.661 -18.4909 49.0425C-23.9479 44.4241 -28.0662 38.4265 -30.416 31.6747L-26.5051 30.3133C-24.3988 36.3655 -20.7073 41.7418 -15.8157 45.8816C-10.9242 50.0215 -5.01148 52.7732 1.30565 53.85C7.6227 54.9267 14.1129 54.2891 20.0996 52.0035C26.0863 49.7179 31.3504 45.8678 35.3427 40.8551C39.335 35.8424 41.9095 29.8504 42.7976 23.5041C43.6856 17.1577 42.8547 10.6894 40.3918 4.77345C37.9288 -1.14257 33.9237 -6.28962 28.7943 -10.1308C23.6649 -13.9719 17.5989 -16.3667 11.2289 -17.0653L11.6804 -21.1816Z" fill="#FF7C7C"/>
</g>
</svg>
