<svg width="100" height="100" viewBox="0 0 100 100" fill="none" xmlns="http://www.w3.org/2000/svg">
<path d="M76.65 10C78.9426 10 80.8012 11.8585 80.8012 14.1512V65.2936C80.8012 65.5298 80.7811 65.7613 80.7433 65.9867C80.7027 73.407 75.7371 80.1829 68.2233 82.1962L41.2622 89.4204C32.2535 91.8343 22.9935 86.4881 20.5796 77.4794C18.1657 68.4707 23.512 59.2107 32.5207 56.7969L48.422 52.5361V14.1512C48.422 11.8586 50.2806 10 52.5732 10H76.65Z" fill="#FFE17E"/>
<mask id="mask0_3647_3528" style="mask-type:alpha" maskUnits="userSpaceOnUse" x="20" y="10" width="61" height="80">
<path d="M76.65 10C78.9426 10 80.8012 11.8585 80.8012 14.1512V65.2936C80.8012 65.5296 80.7811 65.7608 80.7433 65.986C80.703 73.4067 75.7373 80.1828 68.2233 82.1962L41.2622 89.4204C32.2535 91.8343 22.9935 86.4882 20.5796 77.4794C18.1657 68.4707 23.512 59.2108 32.5207 56.7969L46.0973 53.1589V14.1512C46.0973 11.8586 47.9559 10 50.2485 10H76.65Z" fill="white"/>
</mask>
<g mask="url(#mask0_3647_3528)">
<path d="M14.9351 61.4737C25.1603 61.4737 33.4494 69.7628 33.4494 79.9879C33.4494 90.2131 25.1603 98.5022 14.9351 98.5022C4.71 98.5022 -3.5791 90.2131 -3.5791 79.9879C-3.5791 69.7628 4.71 61.4737 14.9351 61.4737ZM80.6897 55.9941C90.9149 55.9941 99.204 64.2832 99.204 74.5084C99.204 84.7335 90.9149 93.0226 80.6897 93.0226C70.4646 93.0226 62.1755 84.7335 62.1755 74.5084C62.1755 64.2832 70.4646 55.9941 80.6897 55.9941Z" fill="#F5C06A"/>
</g>
</svg>
