<svg width="100" height="100" viewBox="0 0 100 100" fill="none" xmlns="http://www.w3.org/2000/svg">
<path d="M77.2834 20.2246C73.3027 17.4711 68.6635 15.8249 63.6502 14.5977C48.4007 10.8864 30.5473 13.3407 19.3384 25.1332C15.4175 29.2486 13.6666 34.9204 12.0504 40.3677C11.0178 43.8247 9.9852 47.3415 10.0002 50.9331C10.0301 55.1832 11.5266 59.2687 13.1578 63.1895C15.0284 67.694 17.1385 72.1836 20.2363 75.9548C24.8605 81.5667 31.535 85.293 38.6135 86.9242C45.692 88.5554 53.1446 88.1514 60.1932 86.4154C62.857 85.757 65.4759 84.9039 67.9302 83.6618C71.4919 81.8511 74.5897 79.2621 77.6575 76.7031C81.9825 73.0665 86.5019 69.1906 88.4025 63.863C89.3303 61.2441 89.5698 58.4456 89.7344 55.677C90.4078 44.8722 90.2731 35.4292 83.5089 26.2406C81.6981 23.7714 79.603 21.8109 77.2984 20.2246H77.2834Z" fill="#86D7A9"/>
<path d="M61.5999 45.2455C59.6095 39.5588 58.7266 33.2435 58.6518 27.2425C58.5919 22.8876 59.0109 18.0539 60.9564 14.0283C46.3504 11.2148 29.8888 14.0283 19.3384 25.1473C17.2432 27.3472 15.7767 29.996 14.6094 32.8095C15.2379 32.8544 15.8664 32.9292 16.4651 33.019C19.2037 33.438 22.047 34.2611 24.4265 35.6828C24.7108 35.8474 24.9653 36.0569 25.2346 36.2515C28.512 37.5385 31.4751 39.6336 34.0042 42.1328C41.2922 49.3011 44.8838 59.5372 44.1655 69.6986C43.971 72.4671 43.4322 75.1608 42.6241 77.7498C42.1602 80.9972 41.3521 84.1848 40.1848 87.2526C46.7844 88.4948 53.6684 88.0608 60.2081 86.4445C62.8719 85.7861 65.4908 84.9331 67.9451 83.6909C71.5068 81.8802 74.6046 79.2912 77.6724 76.7322C80.3063 74.5173 83.015 72.2127 85.155 69.5489C74.7692 64.7601 65.3861 56.0204 61.6298 45.2754L61.5999 45.2455Z" fill="#CFF4B3"/>
</svg>
