<svg width="100" height="100" viewBox="0 0 100 100" fill="none" xmlns="http://www.w3.org/2000/svg">
<path d="M69.5706 54.7848C69.5706 71.4858 56.0317 85.0247 39.3307 85.0247C22.6297 85.0247 9.09082 71.4858 9.09082 54.7848C9.09082 38.0838 22.6297 24.5449 39.3307 24.5449C56.0317 24.5449 69.5706 38.0838 69.5706 54.7848Z" fill="#FFAAAA"/>
<path d="M81.4244 57.0197C83.5505 55.346 86.0879 54.511 89.2481 55.3093C98.4665 57.6382 100.845 66.0347 99.7544 70.5294C99.5184 71.5017 98.5389 72.0985 97.5666 71.8626C96.5943 71.6266 95.9975 70.6471 96.2335 69.6748C96.9234 66.832 95.3839 60.5967 88.3605 58.8223C86.4451 58.3384 85.0421 58.783 83.6655 59.8667C82.156 61.0549 80.7751 62.9366 79.0692 65.311C75.7887 69.8773 71.5995 75.8663 63.7239 77.9234C57.5133 79.5455 51.4788 78.4379 46.5357 76.4792C41.6007 74.5237 37.6187 71.6688 35.413 69.5782C34.6869 68.8899 34.6562 67.7434 35.3444 67.0173C36.0326 66.2911 37.1794 66.2604 37.9055 66.9487C39.7959 68.7404 43.3898 71.3353 47.8705 73.1108C52.3431 74.8831 57.5641 75.7878 62.8083 74.418C69.2512 72.7352 72.7556 67.8894 76.1267 63.197C77.7466 60.9422 79.4311 58.5888 81.4244 57.0197Z" fill="#FFAAAA"/>
</svg>
