<svg width="100" height="100" viewBox="0 0 100 100" fill="none" xmlns="http://www.w3.org/2000/svg">
<g clip-path="url(#clip0_3647_3512)">
<path d="M99.9999 54.5463C99.9999 79.6502 79.6492 100.001 54.5454 100.001C29.4415 100.001 9.09082 79.6502 9.09082 54.5463C9.09082 29.4425 29.4415 9.0918 54.5454 9.0918C79.6492 9.0918 99.9999 29.4425 99.9999 54.5463Z" fill="#72FF82"/>
<mask id="mask0_3647_3512" style="mask-type:alpha" maskUnits="userSpaceOnUse" x="9" y="9" width="91" height="91">
<path d="M99.9999 54.5463C99.9999 79.6502 79.6492 100.001 54.5454 100.001C29.4415 100.001 9.09082 79.6502 9.09082 54.5463C9.09082 29.4425 29.4415 9.0918 54.5454 9.0918C79.6492 9.0918 99.9999 29.4425 99.9999 54.5463Z" fill="#D9D9D9"/>
</mask>
<g mask="url(#mask0_3647_3512)">
<path d="M113.156 42.0094C105.911 42.8041 99.0106 45.5281 93.1759 49.8974C87.3412 54.2668 82.7854 60.1215 79.9837 66.851C77.1822 73.5804 76.237 80.9381 77.2472 88.157C78.2574 95.376 81.1859 102.192 85.7271 107.894C90.2683 113.596 96.2562 117.975 103.066 120.575C109.876 123.175 117.259 123.9 124.444 122.675C131.63 121.451 138.356 118.321 143.92 113.612C149.484 108.902 153.683 102.787 156.079 95.9025L160.528 97.4511C157.855 105.131 153.17 111.954 146.963 117.207C140.755 122.46 133.252 125.953 125.236 127.319C117.219 128.686 108.983 127.876 101.386 124.976C93.7887 122.075 87.1086 117.19 82.0424 110.829C76.9762 104.467 73.7094 96.8636 72.5824 88.81C71.4555 80.7564 72.5096 72.5478 75.6352 65.0404C78.7607 57.533 83.843 51.0015 90.3521 46.1271C96.8614 41.2526 104.559 38.2137 112.643 37.3271L113.156 42.0094ZM10.911 -26.4688C18.9946 -25.5822 26.6926 -22.5433 33.2018 -17.6688C39.711 -12.7943 44.7933 -6.26286 47.9188 1.24452C51.0443 8.75196 52.0985 16.9606 50.9715 25.0142C49.8445 33.0678 46.5778 40.6716 41.5115 47.0328C36.4453 53.3939 29.7652 58.2792 22.168 61.1797C14.5708 64.0802 6.33457 64.8897 -1.68188 63.5234C-9.69834 62.157 -17.2014 58.6646 -23.4088 53.4112C-29.6162 48.1578 -34.3008 41.3354 -36.9736 33.6553L-32.525 32.1067C-30.1291 38.991 -25.9299 45.1066 -20.3658 49.8157C-14.8017 54.5247 -8.076 57.6548 -0.89027 58.8796C6.29536 60.1044 13.6779 59.3792 20.4878 56.7793C27.2977 54.1794 33.2856 49.8 37.8269 44.098C42.368 38.3961 45.2966 31.5802 46.3067 24.3612C47.3169 17.1422 46.3718 9.78452 43.5702 3.05513C40.7686 -3.67433 36.2127 -9.52909 30.378 -13.8984C24.5434 -18.2677 17.6433 -20.9918 10.3974 -21.7865L10.911 -26.4688Z" fill="white"/>
</g>
</g>
<defs>
<clipPath id="clip0_3647_3512">
<rect width="100" height="100" fill="white"/>
</clipPath>
</defs>
</svg>
