<svg width="100" height="100" viewBox="0 0 100 100" fill="none" xmlns="http://www.w3.org/2000/svg">
<path d="M79.622 31C85.3535 31 90 35.6612 90 41.4109C90 44.8531 88.3341 47.9046 85.7675 49.7998C88.3342 51.6951 90 54.7468 90 58.1891C90 63.9388 85.3535 68.6 79.622 68.6C74.3342 68.5999 69.9703 64.6324 69.3264 59.503H30.6736C30.0297 64.6324 25.6658 68.5999 20.378 68.6C14.6465 68.6 10 63.9388 10 58.1891C10 54.7469 11.6656 51.6951 14.2322 49.7998C11.6657 47.9046 10 44.853 10 41.4109C10 35.6612 14.6465 31 20.378 31C25.596 31.0001 29.9139 34.8636 30.6457 39.8945H69.3543C70.0861 34.8636 74.404 31.0001 79.622 31Z" fill="white"/>
</svg>
