<svg width="100" height="100" viewBox="0 0 100 100" fill="none" xmlns="http://www.w3.org/2000/svg">
<path d="M87.5126 45.5037C88.8862 45.5037 89.9998 44.3901 89.9998 43.0165C89.9998 41.6428 88.8862 40.5293 87.5126 40.5293C86.1389 40.5293 85.0254 41.6428 85.0254 43.0165C85.0254 44.3901 86.1389 45.5037 87.5126 45.5037Z" fill="#F7D58B"/>
<path d="M87.5126 45.5037C88.8862 45.5037 89.9998 44.3901 89.9998 43.0165C89.9998 41.6428 88.8862 40.5293 87.5126 40.5293C86.1389 40.5293 85.0254 41.6428 85.0254 43.0165C85.0254 44.3901 86.1389 45.5037 87.5126 45.5037Z" stroke="#9E5F3C" stroke-width="0.651096" stroke-miterlimit="10"/>
<path d="M25.0007 58.6875C24.9812 59.2409 24.9486 59.8465 24.8965 60.5106C24.6817 63.2452 24.0892 64.1437 22.7609 64.1437C21.4327 64.1437 20.4105 62.9912 20.4105 60.2436C20.4105 59.8399 20.4105 59.3972 20.3975 58.9349" fill="#F7D58B"/>
<path d="M23.1779 61.9701C22.312 61.9635 21.446 61.944 20.5801 61.9701C20.9252 63.4741 21.7521 64.1382 22.7547 64.1382C23.8225 64.1382 24.4085 63.5587 24.7145 61.918C24.2002 61.9505 23.6858 61.9766 23.1779 61.9701Z" fill="white"/>
<path d="M25.0007 58.6875C24.9812 59.2409 24.9486 59.8465 24.8965 60.5106C24.6817 63.2452 24.0892 64.1437 22.7609 64.1437C21.4327 64.1437 20.4105 62.9912 20.4105 60.2436C20.4105 59.8399 20.4105 59.3972 20.3975 58.9349" stroke="#9E5F3C" stroke-width="0.651096" stroke-miterlimit="10"/>
<path d="M79.4392 58.6875C79.4197 59.2409 79.3871 59.8465 79.335 60.5106C79.1202 63.2452 78.5277 64.1437 77.1994 64.1437C75.8712 64.1437 74.849 62.9912 74.849 60.2436C74.849 59.8399 74.849 59.3972 74.8359 58.9349" fill="#F7D58B"/>
<path d="M77.6155 61.9701C76.7495 61.9635 75.8835 61.944 75.0176 61.9701C75.3627 63.4741 76.1896 64.1382 77.1922 64.1382C78.26 64.1382 78.846 63.5587 79.152 61.918C78.6377 61.9505 78.1233 61.9766 77.6155 61.9701Z" fill="white"/>
<path d="M79.4392 58.6875C79.4197 59.2409 79.3871 59.8465 79.335 60.5106C79.1202 63.2452 78.5277 64.1437 77.1994 64.1437C75.8712 64.1437 74.849 62.9912 74.849 60.2436C74.849 59.8399 74.849 59.3972 74.8359 58.9349" stroke="#9E5F3C" stroke-width="0.651096" stroke-miterlimit="10"/>
<path d="M82.8905 42.377H24.0575C20.4364 42.377 17.501 45.3124 17.501 48.9335V53.4847C17.501 57.1057 20.4364 60.0412 24.0575 60.0412H82.8905C86.5116 60.0412 89.4471 57.1057 89.4471 53.4847V48.9335C89.4471 45.3124 86.5116 42.377 82.8905 42.377Z" fill="#F7D58B"/>
<path d="M25.6267 57.5273C25.6267 57.5273 25.5681 57.4752 25.542 57.4427C23.7841 55.7173 24.2203 53.4449 24.1682 51.1205C24.1226 49.2975 24.0966 47.4809 23.9794 45.6578C23.9338 44.8895 23.8622 44.1212 23.8492 43.3529C23.8492 43.0274 23.8687 42.7018 23.9208 42.3828C20.3658 42.4609 17.501 45.3583 17.501 48.9328V53.4775C17.501 57.0976 20.4374 60.034 24.0575 60.034H26.6489C26.6293 59.715 26.5968 59.3959 26.5577 59.0769C26.421 58.25 26.1671 58.0417 25.6267 57.5143V57.5273Z" fill="white"/>
<path d="M87.9559 55.066C87.3504 55.7756 86.6668 56.4398 85.944 57.0453C85.7552 57.8657 85.612 58.6991 85.4492 59.526C87.7997 58.5298 89.4469 56.1989 89.4469 53.4838V52.6699C89.1409 53.5619 88.5289 54.3888 87.9559 55.066Z" fill="white"/>
<path d="M79.2967 56.709H32.3592C32.3136 56.7481 32.255 56.7871 32.1769 56.7936C32.1118 56.8001 32.0466 56.8066 31.9815 56.8132C31.3109 57.2038 31.1091 58.0698 31.0114 58.7925C30.9593 59.2092 30.9398 59.6259 30.9268 60.0426H80.5728C80.5924 59.8668 80.6054 59.691 80.6249 59.5152C80.4947 58.4083 80.1431 57.334 79.2902 56.709H79.2967Z" fill="white"/>
<path d="M82.8905 42.377H24.0575C20.4364 42.377 17.501 45.3124 17.501 48.9335V53.4847C17.501 57.1057 20.4364 60.0412 24.0575 60.0412H82.8905C86.5116 60.0412 89.4471 57.1057 89.4471 53.4847V48.9335C89.4471 45.3124 86.5116 42.377 82.8905 42.377Z" stroke="#9E5F3C" stroke-width="0.651096" stroke-miterlimit="10"/>
<path d="M33.5375 37.4684C33.4593 37.2666 33.3682 37.0713 33.264 36.8759C33.1273 36.622 32.971 36.3681 32.7496 36.1793C32.3329 35.8342 31.7404 35.7626 31.2196 35.8928C30.6987 36.023 30.2299 36.316 29.8002 36.6416C28.5891 37.5596 27.5799 38.7446 26.8702 40.0858C25.4899 39.6952 23.9403 39.3306 22.4623 39.2524C21.108 39.1808 19.1873 39.3176 17.9112 39.7668C17.2861 38.7837 16.6545 37.8005 15.8472 36.9671C15.0398 36.1337 14.0176 35.4631 12.8782 35.2547C12.6373 35.2091 12.3833 35.1896 12.149 35.2547C11.5239 35.437 11.2504 36.1597 11.1267 36.7913C10.6384 39.2004 10.9509 41.7592 11.9992 43.9794C12.0904 44.1747 12.1945 44.3831 12.1945 44.5979C12.1945 44.7217 12.162 44.8454 12.1294 44.9691C11.6867 46.6359 11.602 48.4003 10.5928 49.8523C10.1631 50.4773 10.7556 51.2196 11.3741 51.2652C11.3416 51.2717 11.3155 51.2847 11.283 51.2912C10.8858 51.9228 11.4197 52.665 12.0643 52.7041C12.9954 52.7627 13.7051 53.6807 14.4017 54.2211C15.2091 54.8462 16.062 55.1587 17.0452 55.3215C19.3566 55.6926 21.7787 56.0572 24.1226 55.9856C26.1605 55.927 28.2636 55.4387 29.9174 54.1495C30.5424 53.6612 30.9982 53.0361 31.786 52.8213C32.4306 52.6455 32.8864 52.958 33.0231 51.9163C33.0491 51.7405 33.0556 51.5907 33.0231 51.4149C33.264 51.2977 33.4593 51.0698 33.5244 50.8159C33.837 49.6244 33.5179 49.6765 32.9775 48.7259C32.8147 48.4329 32.7887 48.0553 32.7236 47.7297C32.665 47.4497 31.8902 44.6565 31.7925 44.7477C33.8044 42.9962 34.5076 39.9166 33.5375 37.4489V37.4684Z" fill="#F7D58B"/>
<path d="M16.0813 39.733C15.873 39.1275 15.2544 38.2876 15.0396 38.0857C14.6749 37.7276 14.0434 37.5453 13.5746 37.363C13.4313 37.3044 13.2751 37.2523 13.1253 37.2784C12.5263 37.3825 12.3831 38.3852 12.3635 38.8475C12.3115 40.4101 12.5914 41.7319 13.21 43.1643C14.0173 42.5783 14.395 41.5561 15.1698 40.9245C15.4432 40.7031 15.7558 40.5404 16.0422 40.332C16.1855 40.2278 16.1725 40 16.0813 39.733Z" fill="white"/>
<path d="M31.2906 37.4157C29.8387 38.0538 28.7383 39.6034 28.0547 40.9772C27.9831 41.1269 29.9103 42.5007 30.0926 42.6505C30.4507 42.95 30.7567 43.4578 31.1995 43.1323C31.6748 42.7807 31.8571 41.5501 31.9547 41.0032C32.1045 40.1503 32.0719 39.2778 31.9808 38.4184C31.9482 38.1058 31.9027 37.7933 31.7529 37.5199C31.7138 37.4482 31.6618 37.3701 31.5771 37.3506C31.512 37.331 31.4404 37.3571 31.3818 37.3831C31.3492 37.3961 31.3232 37.4092 31.2906 37.4222V37.4157Z" fill="white"/>
<path d="M32.9834 48.7442C32.8206 48.4512 32.7946 48.0736 32.7294 47.7481C32.0588 48.0411 31.3426 48.2429 30.6655 48.3796C28.4583 48.8289 25.0465 49.0047 23.9657 46.4459C23.0607 44.2973 23.5164 41.7189 23.8745 39.4401C22.5203 39.2187 21.1464 39.2057 19.7922 39.401C19.8638 40.4623 19.9875 41.5236 20.0396 42.5914C20.0982 43.7308 20.1503 44.9614 19.7531 46.0487C19.408 46.9928 18.8155 47.8978 17.9561 48.4057C17.7087 48.5489 17.4482 48.6466 17.1878 48.7052C16.3023 48.9851 15.3256 48.9851 14.4271 48.907C13.4049 48.8159 12.3632 48.627 11.393 48.2559C11.2172 48.8159 10.9568 49.3563 10.5987 49.8706C10.169 50.4957 10.7615 51.2379 11.38 51.2835C11.3475 51.29 11.3214 51.303 11.2889 51.3096C10.8917 51.9411 11.4256 52.6834 12.0702 52.7224C13.0012 52.781 13.7109 53.6991 14.4076 54.2395C15.215 54.8645 16.0679 55.1771 17.0511 55.3398C19.3624 55.711 21.7845 56.0756 24.1285 56.004C26.1664 55.9454 28.2694 55.457 29.9232 54.1679C30.5483 53.6795 31.004 53.0545 31.7919 52.8396C32.4364 52.6638 32.8922 52.9764 33.0289 51.9346C33.055 51.7588 33.0615 51.6091 33.0289 51.4333C33.2699 51.3161 33.4652 51.0882 33.5303 50.8343C33.8428 49.6428 33.5238 49.6948 32.9834 48.7442Z" fill="white"/>
<path d="M14.4983 41.9216C15.807 40.678 17.5975 40.053 19.349 39.786C21.3413 39.48 23.4313 39.6363 25.3521 40.2548C26.4524 40.6064 27.4877 41.1273 28.4122 41.8109C28.7508 42.0584 29.0763 41.4984 28.7378 41.251C25.4042 38.7834 20.4688 38.3015 16.6469 39.8381C15.6898 40.2223 14.7913 40.7497 14.036 41.4659C13.73 41.7524 14.1923 42.2146 14.4983 41.9281V41.9216Z" fill="#9E5F3C"/>
<path d="M12.4943 44.1232C11.7521 43.101 11.4786 41.7532 11.2572 40.5357C11.0098 39.1358 11.1987 37.6513 11.6349 36.3101C11.7651 35.9129 11.1335 35.7371 11.0098 36.1343C10.5476 37.5537 10.3652 39.1098 10.6127 40.5878C10.8275 41.8965 11.1401 43.3614 11.9344 44.4553C12.1753 44.7939 12.7417 44.4683 12.4943 44.1297V44.1232Z" fill="#9E5F3C"/>
<path d="M12.7085 38.3342C12.741 38.0868 12.7736 37.8394 12.8387 37.5984C12.8517 37.5594 12.8647 37.5203 12.8777 37.4812C12.8582 37.5333 12.8777 37.4878 12.8908 37.4682C12.9233 37.4227 12.8387 37.5073 12.9038 37.4552C12.8843 37.4747 12.8387 37.4943 12.8582 37.4878C12.754 37.5138 12.8777 37.4878 12.9168 37.4943C12.9624 37.4943 13.008 37.4943 13.047 37.5073C13.1512 37.5203 13.2489 37.5464 13.3465 37.5789C13.5614 37.644 13.7567 37.7482 13.9521 37.8719C14.3362 38.1128 14.6748 38.4318 14.9678 38.7769C15.085 38.9202 15.1956 39.0699 15.2933 39.2262C15.3389 39.3043 15.3845 39.3759 15.43 39.4606C15.4496 39.4931 15.4626 39.5322 15.4821 39.5648C15.5082 39.6168 15.4691 39.5257 15.4952 39.6038C15.5538 39.7666 15.7165 39.8773 15.8988 39.8317C16.0551 39.7861 16.1853 39.5973 16.1267 39.428C15.8728 38.7248 15.3063 38.0933 14.7334 37.631C14.3753 37.3445 13.9846 37.1036 13.5484 36.9604C13.2163 36.8497 12.7215 36.7325 12.435 37.0059C12.3048 37.1297 12.2462 37.312 12.2006 37.4812C12.129 37.7612 12.0964 38.0477 12.0639 38.3342C12.0378 38.51 12.2332 38.6597 12.3894 38.6597C12.5848 38.6597 12.6889 38.51 12.715 38.3342H12.7085Z" fill="#9E5F3C"/>
<path d="M13.4311 42.2726C12.8256 42.9562 12.4154 43.7961 12.0573 44.6296C11.6992 45.463 11.4062 46.3029 11.2434 47.1884C11.1523 47.6702 11.0872 48.1585 10.9244 48.6208C10.7486 49.1286 10.3645 49.4412 10.117 49.8969C9.93474 50.242 9.96078 50.6587 10.2277 50.9517C10.4947 51.2447 10.9049 51.3358 11.2109 51.5767L11.1262 51.2577C10.9374 51.7591 10.8007 52.3581 11.2174 52.7943C11.5755 53.1654 12.1289 53.1719 12.6042 53.1198C13.0144 53.0743 13.0209 52.4232 12.6042 52.4687C12.3438 52.4948 12.0052 52.5469 11.7708 52.4036C11.4323 52.1953 11.6406 51.72 11.7513 51.4335C11.7904 51.3358 11.7513 51.1796 11.6667 51.1145C11.3932 50.9061 11.0416 50.8019 10.7877 50.5806C10.41 50.2615 11.009 49.8253 11.1979 49.5388C11.6667 48.8161 11.7448 47.9306 11.9141 47.1102C12.0834 46.2898 12.3503 45.5671 12.6628 44.8379C12.9754 44.1087 13.3465 43.3339 13.8869 42.7284C14.1604 42.4158 13.7046 41.9535 13.4246 42.2661L13.4311 42.2726Z" fill="#9E5F3C"/>
<path d="M13.0402 53.4526C13.7564 54.4293 14.8633 54.9892 15.9962 55.3538C17.2528 55.7575 18.5746 55.9268 19.8898 56.0245C20.3065 56.057 20.3065 55.4059 19.8898 55.3734C18.6983 55.2887 17.5002 55.126 16.3543 54.7809C15.3386 54.4749 14.2513 54.0061 13.6002 53.1206C13.3528 52.7885 12.7928 53.1076 13.0402 53.4461V53.4526Z" fill="#9E5F3C"/>
<path d="M11.8809 35.6514C13.157 35.6319 14.303 36.3025 15.2145 37.149C15.9958 37.8717 16.6599 38.7311 17.1743 39.6687C17.3761 40.0398 17.9361 39.7078 17.7342 39.3432C16.5883 37.2401 14.4592 34.9678 11.8809 35.0003C11.4642 35.0003 11.4642 35.658 11.8809 35.6514Z" fill="#9E5F3C"/>
<path d="M32.5606 44.6171C34.1949 42.3969 34.6311 39.4409 33.6675 36.8561C33.5243 36.4654 32.8927 36.6347 33.0424 37.0319C33.954 39.4735 33.5373 42.1951 32.0007 44.2916C31.7533 44.6301 32.3197 44.9557 32.5606 44.6171Z" fill="#9E5F3C"/>
<path d="M30.8611 37.2728C29.5134 38.0672 28.4716 39.3759 27.788 40.7627C27.6057 41.1404 28.1656 41.4659 28.3479 41.0883C28.986 39.7926 29.9301 38.5685 31.1867 37.8328C31.5448 37.6179 31.2192 37.058 30.8611 37.2728Z" fill="#9E5F3C"/>
<path d="M31.7988 53.0363C33.0684 53.1861 33.8107 51.7276 33.127 50.7119L32.847 51.2002C33.7325 51.1416 34.1948 50.204 33.7976 49.4227C33.6935 49.2209 33.5307 49.0646 33.3875 48.8953C33.1856 48.6544 33.14 48.3875 33.101 48.088C33.0489 47.7364 32.9968 47.3913 32.9187 47.0462C32.541 45.2948 31.7662 43.6084 30.4119 42.3974C30.0994 42.1174 29.6371 42.5797 29.9497 42.8597C31.0891 43.8819 31.7858 45.2557 32.1699 46.7272C32.3262 47.3327 32.3913 47.9382 32.5085 48.5503C32.5801 48.9214 32.7624 49.1753 33.0033 49.4553C33.2768 49.7678 33.4981 50.5166 32.8405 50.5621C32.6126 50.5752 32.4108 50.8356 32.5606 51.0505C32.9838 51.682 32.5736 52.4829 31.7923 52.3917C31.3756 52.3461 31.3821 52.9972 31.7923 53.0428L31.7988 53.0363Z" fill="#9E5F3C"/>
<path d="M30.7238 52.9297C30.0206 54.0952 28.6923 54.59 27.4487 54.9481C26.2703 55.2867 24.9681 55.5797 23.731 55.4234C23.3143 55.3713 23.3208 56.0224 23.731 56.0745C25.0788 56.2438 26.5372 55.9052 27.8264 55.5146C29.1742 55.1044 30.5284 54.5119 31.2902 53.2553C31.5051 52.8972 30.9451 52.5651 30.7303 52.9297H30.7238Z" fill="#9E5F3C"/>
<path d="M31.9747 35.4026C30.5554 35.611 29.3053 36.4379 28.3351 37.4601C27.6254 38.2023 26.9613 39.0943 26.5902 40.0645C26.4404 40.4551 27.072 40.6244 27.2152 40.2403C27.2543 40.1296 27.3324 39.9668 27.4171 39.8105C27.5213 39.6217 27.6319 39.4329 27.7491 39.2506C28.0551 38.7753 28.4067 38.3326 28.7909 37.9224C29.6959 36.9718 30.8223 36.223 32.144 36.0277C32.3198 36.0016 32.411 35.7803 32.3719 35.624C32.3198 35.4352 32.144 35.3701 31.9682 35.3961L31.9747 35.4026Z" fill="#9E5F3C"/>
<path d="M32.7165 35.7233C32.7035 35.7819 32.6905 35.834 32.6644 35.8861L32.697 35.8079C32.6709 35.873 32.6319 35.9316 32.5863 35.9902L32.6384 35.9251C32.5993 35.9772 32.5472 36.0293 32.4951 36.0684L32.5602 36.0163C32.5602 36.0163 32.5537 36.0163 32.5472 36.0228C32.5082 36.0423 32.4756 36.0684 32.4561 36.1074C32.43 36.14 32.4105 36.1725 32.3975 36.2181C32.3844 36.2637 32.3844 36.3028 32.3975 36.3483C32.3975 36.3939 32.4105 36.433 32.4365 36.4721C32.4821 36.5437 32.5472 36.6023 32.6319 36.6218L32.7165 36.6348C32.7751 36.6348 32.8272 36.6218 32.8793 36.5893C32.9444 36.5437 33.003 36.4981 33.0551 36.4395C33.1072 36.3809 33.1527 36.3223 33.1983 36.2572C33.2439 36.1921 33.2699 36.1205 33.296 36.0488C33.3155 35.9968 33.3285 35.9447 33.3416 35.8926C33.3611 35.8079 33.3546 35.7233 33.309 35.6386C33.2699 35.5735 33.1918 35.5084 33.1137 35.4889C33.029 35.4694 32.9379 35.4759 32.8597 35.5215C32.7946 35.567 32.7295 35.6321 32.71 35.7168L32.7165 35.7233Z" fill="#9E5F3C"/>
<path d="M17.4099 48.0288C17.8989 48.0288 18.2954 47.6323 18.2954 47.1433C18.2954 46.6543 17.8989 46.2578 17.4099 46.2578C16.9209 46.2578 16.5244 46.6543 16.5244 47.1433C16.5244 47.6323 16.9209 48.0288 17.4099 48.0288Z" fill="#231F20"/>
<path d="M26.6101 48.0288C27.0991 48.0288 27.4956 47.6323 27.4956 47.1433C27.4956 46.6543 27.0991 46.2578 26.6101 46.2578C26.1211 46.2578 25.7246 46.6543 25.7246 47.1433C25.7246 47.6323 26.1211 48.0288 26.6101 48.0288Z" fill="#231F20"/>
<path d="M22.0073 49.3237C22.953 49.3237 23.7197 48.8486 23.7197 48.2625C23.7197 47.6763 22.953 47.2012 22.0073 47.2012C21.0616 47.2012 20.2949 47.6763 20.2949 48.2625C20.2949 48.8486 21.0616 49.3237 22.0073 49.3237Z" fill="#231F20"/>
<path d="M30.9001 58.6875C30.8806 59.2409 30.848 59.8465 30.7959 60.5106C30.5811 63.2452 29.9886 64.1437 28.6604 64.1437C27.3321 64.1437 26.3099 62.9912 26.3099 60.2436C26.3099 59.8399 26.3099 59.3972 26.2969 58.9349" fill="#F7D58B"/>
<path d="M29.0842 61.9701C28.2182 61.9635 27.3523 61.944 26.4863 61.9701C26.8314 63.4741 27.6583 64.1382 28.661 64.1382C29.7288 64.1382 30.3148 63.5587 30.6208 61.918C30.1064 61.9505 29.5921 61.9766 29.0842 61.9701Z" fill="white"/>
<path d="M30.9001 58.6875C30.8806 59.2409 30.848 59.8465 30.7959 60.5106C30.5811 63.2452 29.9886 64.1437 28.6604 64.1437C27.3321 64.1437 26.3099 62.9912 26.3099 60.2436C26.3099 59.8399 26.3099 59.3972 26.2969 58.9349" stroke="#9E5F3C" stroke-width="0.651096" stroke-linecap="round" stroke-linejoin="round"/>
<path d="M85.3386 58.6875C85.3191 59.2409 85.2865 59.8465 85.2344 60.5106C85.0196 63.2452 84.4271 64.1437 83.0988 64.1437C81.7706 64.1437 80.7484 62.9912 80.7484 60.2436C80.7484 59.8399 80.7484 59.3972 80.7354 58.9349" fill="#F7D58B"/>
<path d="M83.5149 61.9701C82.6489 61.9635 81.7829 61.944 80.917 61.9701C81.2621 63.4741 82.089 64.1382 83.0917 64.1382C84.1595 64.1382 84.7454 63.5587 85.0515 61.918C84.5371 61.9505 84.0227 61.9766 83.5149 61.9701Z" fill="white"/>
<path d="M85.3386 58.6875C85.3191 59.2409 85.2865 59.8465 85.2344 60.5106C85.0196 63.2452 84.4271 64.1437 83.0988 64.1437C81.7706 64.1437 80.7484 62.9912 80.7484 60.2436C80.7484 59.8399 80.7484 59.3972 80.7354 58.9349" stroke="#9E5F3C" stroke-width="0.651096" stroke-miterlimit="10" stroke-linecap="round"/>
</svg>
