<svg width="100" height="100" viewBox="0 0 100 100" fill="none" xmlns="http://www.w3.org/2000/svg">
<path d="M90 41.2441L88.1533 43.0908L90 44.9365L88.1533 46.7832L90 48.6289L88.1533 50.4746L90 52.3213L88.1533 54.167L90 56.0137L88.1533 57.8594L89.7549 59.4609H11.0654L10 58.8457L11.8457 56.999L10 55.1533L11.8457 53.3066L10 51.4609L11.8457 49.6152L10 47.7686L11.8457 45.9229L10 44.0762L11.8457 42.2305L10.001 40.3848H88.5107L90 41.2441Z" fill="#AFC4B9"/>
<mask id="mask0_3710_32716" style="mask-type:alpha" maskUnits="userSpaceOnUse" x="10" y="40" width="80" height="20">
<path d="M90 41.2441L88.1533 43.0908L90 44.9365L88.1533 46.7832L90 48.6289L88.1533 50.4746L90 52.3213L88.1533 54.167L90 56.0137L88.1533 57.8594L89.7549 59.4609H11.0654L10 58.8457L11.8457 56.999L10 55.1533L11.8457 53.3066L10 51.4609L11.8457 49.6152L10 47.7686L11.8457 45.9229L10 44.0762L11.8457 42.2305L10.001 40.3848H88.5107L90 41.2441Z" fill="white"/>
</mask>
<g mask="url(#mask0_3710_32716)">
<circle cx="11.458" cy="54.6094" r="1.03904" fill="white"/>
<circle cx="11.458" cy="45.4316" r="1.03904" fill="white"/>
<circle cx="19.25" cy="50.1054" r="1.03904" fill="white"/>
<circle cx="19.25" cy="40.7539" r="1.03904" fill="white"/>
<circle cx="19.25" cy="59.2851" r="1.03904" fill="white"/>
<circle cx="22.541" cy="54.6094" r="1.03904" fill="white"/>
<circle cx="22.541" cy="45.4316" r="1.03904" fill="white"/>
<circle cx="30.334" cy="50.1054" r="1.03904" fill="white"/>
<circle cx="30.334" cy="40.7539" r="1.03904" fill="white"/>
<circle cx="30.334" cy="59.2851" r="1.03904" fill="white"/>
<circle cx="33.624" cy="54.6094" r="1.03904" fill="white"/>
<circle cx="33.624" cy="45.4316" r="1.03904" fill="white"/>
<circle cx="46.958" cy="50.1054" r="1.03904" fill="white"/>
<circle cx="46.958" cy="40.7539" r="1.03904" fill="white"/>
<circle cx="46.958" cy="59.2851" r="1.03904" fill="white"/>
<circle cx="50.248" cy="54.6094" r="1.03904" fill="white"/>
<circle cx="50.248" cy="45.4316" r="1.03904" fill="white"/>
<circle cx="13.709" cy="50.1054" r="1.03904" fill="white"/>
<circle cx="13.709" cy="40.7539" r="1.03904" fill="white"/>
<circle cx="13.709" cy="59.2851" r="1.03904" fill="white"/>
<circle cx="16.999" cy="54.6094" r="1.03904" fill="white"/>
<circle cx="16.999" cy="45.4316" r="1.03904" fill="white"/>
<circle cx="24.791" cy="40.7539" r="1.03904" fill="white"/>
<circle cx="24.791" cy="50.1054" r="1.03904" fill="white"/>
<circle cx="24.791" cy="59.2851" r="1.03904" fill="white"/>
<circle cx="28.082" cy="54.6094" r="1.03904" fill="white"/>
<circle cx="28.082" cy="45.4316" r="1.03904" fill="white"/>
<circle cx="41.416" cy="50.1054" r="1.03904" fill="white"/>
<circle cx="41.416" cy="40.7539" r="1.03904" fill="white"/>
<circle cx="41.416" cy="59.2851" r="1.03904" fill="white"/>
<circle cx="44.707" cy="54.6094" r="1.03904" fill="white"/>
<circle cx="44.707" cy="45.4316" r="1.03904" fill="white"/>
<circle cx="35.875" cy="50.1054" r="1.03904" fill="white"/>
<circle cx="35.875" cy="40.7539" r="1.03904" fill="white"/>
<circle cx="35.875" cy="59.2851" r="1.03904" fill="white"/>
<circle cx="39.166" cy="54.6094" r="1.03904" fill="white"/>
<circle cx="39.166" cy="45.4316" r="1.03904" fill="white"/>
<circle cx="52.5" cy="50.1054" r="1.03904" fill="white"/>
<circle cx="52.5" cy="40.7539" r="1.03904" fill="white"/>
<circle cx="52.5" cy="59.2851" r="1.03904" fill="white"/>
<circle cx="55.79" cy="54.6094" r="1.03904" fill="white"/>
<circle cx="55.79" cy="45.4316" r="1.03904" fill="white"/>
<circle cx="58.041" cy="50.1054" r="1.03904" fill="white"/>
<circle cx="58.041" cy="40.7539" r="1.03904" fill="white"/>
<circle cx="58.041" cy="59.2851" r="1.03904" fill="white"/>
<circle cx="61.332" cy="54.6094" r="1.03904" fill="white"/>
<circle cx="61.332" cy="45.4316" r="1.03904" fill="white"/>
<circle cx="69.124" cy="50.1054" r="1.03904" fill="white"/>
<circle cx="69.124" cy="40.7539" r="1.03904" fill="white"/>
<circle cx="69.124" cy="59.2851" r="1.03904" fill="white"/>
<circle cx="72.415" cy="54.6094" r="1.03904" fill="white"/>
<circle cx="72.415" cy="45.4316" r="1.03904" fill="white"/>
<circle cx="80.208" cy="50.1054" r="1.03904" fill="white"/>
<circle cx="80.208" cy="40.7539" r="1.03904" fill="white"/>
<circle cx="80.208" cy="59.2851" r="1.03904" fill="white"/>
<circle cx="83.498" cy="54.6094" r="1.03904" fill="white"/>
<circle cx="83.498" cy="45.4316" r="1.03904" fill="white"/>
<circle cx="63.583" cy="50.1054" r="1.03904" fill="white"/>
<circle cx="63.583" cy="40.7539" r="1.03904" fill="white"/>
<circle cx="63.583" cy="59.2851" r="1.03904" fill="white"/>
<circle cx="66.873" cy="54.6094" r="1.03904" fill="white"/>
<circle cx="66.873" cy="45.4316" r="1.03904" fill="white"/>
<circle cx="74.666" cy="40.7539" r="1.03904" fill="white"/>
<circle cx="74.666" cy="50.1054" r="1.03904" fill="white"/>
<circle cx="74.666" cy="59.2851" r="1.03904" fill="white"/>
<circle cx="77.956" cy="54.6094" r="1.03904" fill="white"/>
<circle cx="77.956" cy="45.4316" r="1.03904" fill="white"/>
<circle cx="85.749" cy="50.1054" r="1.03904" fill="white"/>
<circle cx="85.749" cy="40.7539" r="1.03904" fill="white"/>
<circle cx="85.749" cy="59.2851" r="1.03904" fill="white"/>
<circle cx="89.04" cy="54.6094" r="1.03904" fill="white"/>
<circle cx="89.04" cy="45.4316" r="1.03904" fill="white"/>
</g>
</svg>
