<svg width="100" height="100" viewBox="0 0 100 100" fill="none" xmlns="http://www.w3.org/2000/svg">
<mask id="mask0_3759_4996" style="mask-type:luminance" maskUnits="userSpaceOnUse" x="10" y="41" width="80" height="19">
<path d="M86.4205 55.6013L90 53.239L86.9337 49.9753L90 47.2775L86.5455 44.6916L88.7959 41.2305H10C11.5792 43.0926 13.4216 45.2509 13.4216 45.2509L10.0987 48.1724L13.5532 50.6465L10.0987 53.4562L14.0599 55.8184L10.4145 59.0755H89.8552L86.4205 55.5947V55.6013Z" fill="white"/>
</mask>
<g mask="url(#mask0_3759_4996)">
<path d="M86.4205 55.6013L90 53.239L86.9337 49.9753L90 47.2775L86.5455 44.6916L88.7959 41.2305H10C11.5792 43.0926 13.4216 45.2509 13.4216 45.2509L10.0987 48.1724L13.5532 50.6465L10.0987 53.4562L14.0599 55.8184L10.4145 59.0755H89.8552L86.4205 55.5947V55.6013Z" fill="#FFF1B6"/>
<path d="M18.4356 39.2695H15.4351V61.7009H18.4356V39.2695Z" fill="#FFF1B6"/>
<path d="M25.8452 39.2695H22.8447V61.7009H25.8452V39.2695Z" fill="#FFF1B6"/>
<path d="M33.2539 39.2695H30.2534V61.7009H33.2539V39.2695Z" fill="#FFF1B6"/>
<path d="M40.6631 39.2695H37.6626V61.7009H40.6631V39.2695Z" fill="#FFF1B6"/>
<path d="M7.55908 52.3433V55.3438L92.6718 55.3438V52.3433L7.55908 52.3433Z" fill="#FFF1B6"/>
<path d="M7.56543 44.9351V47.9355L92.6781 47.9355V44.9351L7.56543 44.9351Z" fill="#FFF1B6"/>
<path d="M48.0723 39.2695H45.0718V61.7009H48.0723V39.2695Z" fill="#FFF1B6"/>
<path d="M55.4814 39.2695H52.481V61.7009H55.4814V39.2695Z" fill="#FFF1B6"/>
<path d="M62.8901 39.2695H59.8896V61.7009H62.8901V39.2695Z" fill="#FFF1B6"/>
<path d="M70.3062 39.2695H67.3057V61.7009H70.3062V39.2695Z" fill="#FFF1B6"/>
<path d="M77.7153 39.2695H74.7148V61.7009H77.7153V39.2695Z" fill="#FFF1B6"/>
<path d="M85.1245 39.2695H82.124V61.7009H85.1245V39.2695Z" fill="#FFF1B6"/>
</g>
<mask id="mask1_3759_4996" style="mask-type:luminance" maskUnits="userSpaceOnUse" x="10" y="41" width="80" height="18">
<path d="M86.4205 55.3708L90 53.0086L86.9337 49.7449L90 47.047L86.5455 44.4611L88.7959 41H10C11.5792 42.8621 13.4216 45.0204 13.4216 45.0204L10.0987 47.9419L13.5532 50.416L10.0987 53.2257L14.0599 55.5879L10.4145 58.845H89.8552L86.4205 55.3642V55.3708Z" fill="white"/>
</mask>
<g mask="url(#mask1_3759_4996)">
<path d="M86.4205 55.3708L90 53.0086L86.9337 49.7449L90 47.047L86.5455 44.4611L88.7959 41H10C11.5792 42.8621 13.4216 45.0204 13.4216 45.0204L10.0987 47.9419L13.5532 50.416L10.0987 53.2257L14.0599 55.5879L10.4145 58.845H89.8552L86.4205 55.3642V55.3708Z" fill="#FFF1B6"/>
<path d="M18.4356 39.0391H15.4351V61.4704H18.4356V39.0391Z" fill="#FFF1B6"/>
<path d="M25.8452 39.0391H22.8447V61.4704H25.8452V39.0391Z" fill="#FFF1B6"/>
<path d="M33.2539 39.0391H30.2534V61.4704H33.2539V39.0391Z" fill="#FFF1B6"/>
<path d="M40.6631 39.0391H37.6626V61.4704H40.6631V39.0391Z" fill="#FFF1B6"/>
<path d="M7.55908 52.1128V55.1133L92.6718 55.1133V52.1128L7.55908 52.1128Z" fill="#FFF1B6"/>
<path d="M7.56543 44.7046V47.7051L92.6781 47.7051V44.7046L7.56543 44.7046Z" fill="#FFF1B6"/>
<path d="M48.0723 39.0391H45.0718V61.4704H48.0723V39.0391Z" fill="#FFF1B6"/>
<path d="M55.4814 39.0391H52.481V61.4704H55.4814V39.0391Z" fill="#FFF1B6"/>
<path d="M62.8901 39.0391H59.8896V61.4704H62.8901V39.0391Z" fill="#FFF1B6"/>
<path d="M70.3062 39.0391H67.3057V61.4704H70.3062V39.0391Z" fill="#FFF1B6"/>
<path d="M77.7153 39.0391H74.7148V61.4704H77.7153V39.0391Z" fill="#FFF1B6"/>
<path d="M85.1245 39.0391H82.124V61.4704H85.1245V39.0391Z" fill="#FFF1B6"/>
</g>
</svg>
