<svg width="100" height="100" viewBox="0 0 100 100" fill="none" xmlns="http://www.w3.org/2000/svg">
<path d="M90 40.8594L88.1533 42.7061L90 44.5518L88.1533 46.3984L90 48.2441L88.1533 50.0898L90 51.9365L88.1533 53.7822L90 55.6289L88.1533 57.4746L89.7549 59.0762H11.0654L10 58.4609L11.8457 56.6143L10 54.7686L11.8457 52.9219L10 51.0762L11.8457 49.2305L10 47.3838L11.8457 45.5381L10 43.6914L11.8457 41.8457L10.001 40H88.5107L90 40.8594Z" fill="white"/>
<mask id="mask0_3710_32715" style="mask-type:alpha" maskUnits="userSpaceOnUse" x="10" y="40" width="80" height="20">
<path d="M90 40.8594L88.1533 42.7061L90 44.5518L88.1533 46.3984L90 48.2441L88.1533 50.0898L90 51.9365L88.1533 53.7822L90 55.6289L88.1533 57.4746L89.7549 59.0762H11.0654L10 58.4609L11.8457 56.6143L10 54.7686L11.8457 52.9219L10 51.0762L11.8457 49.2305L10 47.3838L11.8457 45.5381L10 43.6914L11.8457 41.8457L10.001 40H88.5107L90 40.8594Z" fill="white"/>
</mask>
<g mask="url(#mask0_3710_32715)">
<rect x="89.7891" y="41.5898" width="3.92638" height="79.7897" transform="rotate(90 89.7891 41.5898)" fill="#F3F099" fill-opacity="0.47"/>
<rect x="89.7891" y="49.582" width="3.92638" height="79.7897" transform="rotate(90 89.7891 49.582)" fill="#F3F099" fill-opacity="0.47"/>
<rect x="89.7891" y="57.5762" width="3.92638" height="79.7897" transform="rotate(90 89.7891 57.5762)" fill="#F3F099" fill-opacity="0.47"/>
<rect x="12.0332" y="24.4102" width="3.92638" height="50.6223" fill="#F3F099" fill-opacity="0.47"/>
<rect x="20.0264" y="24.4102" width="3.92638" height="50.6223" fill="#F3F099" fill-opacity="0.47"/>
<rect x="28.0195" y="24.4102" width="3.92638" height="50.6223" fill="#F3F099" fill-opacity="0.47"/>
<rect x="36.0117" y="24.4102" width="3.92638" height="50.6223" fill="#F3F099" fill-opacity="0.47"/>
<rect x="44.0049" y="24.4102" width="3.92638" height="50.6223" fill="#F3F099" fill-opacity="0.47"/>
<rect x="51.998" y="24.4102" width="3.92638" height="50.6223" fill="#F3F099" fill-opacity="0.47"/>
<rect x="59.9912" y="24.4102" width="3.92638" height="50.6223" fill="#F3F099" fill-opacity="0.47"/>
<rect x="67.9834" y="24.4102" width="3.92638" height="50.6223" fill="#F3F099" fill-opacity="0.47"/>
<rect x="75.9766" y="24.4102" width="3.92638" height="50.6223" fill="#F3F099" fill-opacity="0.47"/>
<rect x="83.9697" y="24.4102" width="3.92638" height="50.6223" fill="#F3F099" fill-opacity="0.47"/>
</g>
</svg>
