<svg width="100" height="100" viewBox="0 0 100 100" fill="none" xmlns="http://www.w3.org/2000/svg">
<path d="M86.4205 55.3708L90 53.0086L86.9337 49.7449L90 47.047L86.5455 44.4611L88.7959 41H10C11.5792 42.8621 13.4216 45.0204 13.4216 45.0204L10.0987 47.9419L13.5532 50.416L10.0987 53.2257L14.0599 55.5879L10.4145 58.845H89.8552L86.4205 55.3642V55.3708Z" fill="#ABDAE6"/>
<path d="M71.5758 51.5611C71.5758 51.0084 71.1284 50.5544 70.5756 50.5544C70.3124 50.5544 70.069 50.6596 69.8913 50.8241C69.7729 50.403 69.3912 50.0938 68.9306 50.0938C68.4174 50.0938 68.0028 50.4754 67.937 50.9755C67.766 50.8373 67.5488 50.7518 67.3185 50.7518C66.7658 50.7518 66.3184 51.1992 66.3184 51.7519C66.3184 52.2652 66.7 52.6797 67.1935 52.7455C67.1803 52.8113 67.1738 52.8705 67.1738 52.9363C67.1738 53.489 67.6212 53.9431 68.1739 53.9431C68.5424 53.9431 68.8648 53.7391 69.0359 53.443C69.2136 53.7259 69.5228 53.9102 69.8847 53.9102C70.4375 53.9102 70.8849 53.4627 70.8849 52.91C70.8849 52.7784 70.8586 52.6468 70.8125 52.5349C71.2534 52.4297 71.5758 52.0349 71.5758 51.5611Z" fill="white"/>
<path d="M86.2164 50.2252C86.2164 49.6724 85.769 49.2184 85.2163 49.2184C84.9531 49.2184 84.7096 49.3237 84.5319 49.4882C84.4135 49.0671 84.0319 48.7578 83.5713 48.7578C83.058 48.7578 82.6435 49.1395 82.5777 49.6395C82.4066 49.5014 82.1894 49.4158 81.9591 49.4158C81.4064 49.4158 80.959 49.8633 80.959 50.416C80.959 50.9292 81.3406 51.3438 81.8341 51.4096C81.821 51.4754 81.8144 51.5346 81.8144 51.6004C81.8144 52.1531 82.2618 52.6071 82.8145 52.6071C83.183 52.6071 83.5055 52.4031 83.6765 52.107C83.8542 52.39 84.1635 52.5742 84.5254 52.5742C85.0781 52.5742 85.5255 52.1268 85.5255 51.5741C85.5255 51.4425 85.4992 51.3109 85.4531 51.199C85.894 51.0937 86.2164 50.6989 86.2164 50.2252Z" fill="white"/>
<path d="M36.5501 48.1137C36.5501 47.7453 36.254 47.4492 35.8856 47.4492C35.7079 47.4492 35.55 47.5215 35.4315 47.6334C35.3526 47.3505 35.096 47.1465 34.7933 47.1465C34.4511 47.1465 34.1748 47.4031 34.1353 47.7321C34.0234 47.64 33.8787 47.5873 33.7207 47.5873C33.3523 47.5873 33.0562 47.8834 33.0562 48.2519C33.0562 48.5941 33.3128 48.8705 33.6352 48.9099C33.6286 48.9494 33.622 48.9955 33.622 49.0415C33.622 49.41 33.9181 49.7061 34.2866 49.7061C34.5301 49.7061 34.7472 49.5679 34.8591 49.3705C34.9775 49.5548 35.1815 49.6798 35.425 49.6798C35.7934 49.6798 36.0895 49.3837 36.0895 49.0152C36.0895 48.9297 36.0698 48.8441 36.0369 48.7652C36.3264 48.6928 36.5436 48.4296 36.5436 48.1203H36.5501V48.1137Z" fill="white"/>
<path d="M40.8934 55.6665C40.8934 55.298 40.5973 55.0019 40.2288 55.0019C40.0512 55.0019 39.8932 55.0743 39.7748 55.1861C39.6958 54.9032 39.4392 54.6992 39.1365 54.6992C38.7944 54.6992 38.518 54.9558 38.4785 55.2848C38.3667 55.1927 38.2219 55.1401 38.064 55.1401C37.6955 55.1401 37.3994 55.4362 37.3994 55.8047C37.3994 56.1468 37.656 56.4232 37.9785 56.4627C37.9785 56.5021 37.9653 56.5482 37.9653 56.5943C37.9653 56.9627 38.2614 57.2588 38.6299 57.2588C38.8733 57.2588 39.0905 57.1207 39.2023 56.9233C39.3208 57.1075 39.5248 57.2325 39.7682 57.2325C40.1367 57.2325 40.4328 56.9364 40.4328 56.5679C40.4328 56.4824 40.4131 56.3969 40.3802 56.3179C40.6697 56.2455 40.8868 55.9823 40.8868 55.6731H40.8934V55.6665Z" fill="white"/>
<path d="M50.7762 46.7583C50.7762 46.3898 50.4801 46.0937 50.1116 46.0937C49.934 46.0937 49.7761 46.1661 49.6576 46.2779C49.5787 45.995 49.322 45.791 49.0194 45.791C48.6772 45.791 48.4008 46.0476 48.3614 46.3766C48.2495 46.2845 48.1047 46.2319 47.9468 46.2319C47.5783 46.2319 47.2822 46.528 47.2822 46.8965C47.2822 47.2386 47.5388 47.515 47.8613 47.5545C47.8613 47.5939 47.8481 47.64 47.8481 47.6861C47.8481 48.0545 48.1442 48.3506 48.5127 48.3506C48.7562 48.3506 48.9733 48.2125 49.0852 48.0151C49.2036 48.1993 49.4076 48.3243 49.651 48.3243C50.0195 48.3243 50.3156 48.0282 50.3156 47.6597C50.3156 47.5742 50.2959 47.4887 50.263 47.4097C50.5525 47.3373 50.7696 47.0741 50.7696 46.7649H50.7762V46.7583Z" fill="white"/>
<path d="M18.225 51.5532C18.225 51.1847 17.9289 50.8886 17.5604 50.8886C17.3827 50.8886 17.2248 50.961 17.1063 51.0729C17.0274 50.7899 16.7708 50.5859 16.4681 50.5859C16.1259 50.5859 15.8496 50.8426 15.8101 51.1716C15.6982 51.0794 15.5535 51.0268 15.3955 51.0268C15.0271 51.0268 14.731 51.3229 14.731 51.6914C14.731 52.0335 14.9876 52.3099 15.31 52.3494C15.31 52.3889 15.2968 52.4349 15.2968 52.481C15.2968 52.8495 15.5929 53.1456 15.9614 53.1456C16.2049 53.1456 16.422 53.0074 16.5339 52.81C16.6523 52.9942 16.8563 53.1192 17.0998 53.1192C17.4682 53.1192 17.7644 52.8231 17.7644 52.4547C17.7644 52.3691 17.7446 52.2836 17.7117 52.2046C18.0012 52.1322 18.2184 51.869 18.2184 51.5598H18.225V51.5532Z" fill="white"/>
<path d="M64.3836 44.2368C64.3836 43.8683 64.0875 43.5722 63.7191 43.5722C63.5414 43.5722 63.3835 43.6446 63.265 43.7565C63.1861 43.4735 62.9295 43.2695 62.6268 43.2695C62.2846 43.2695 62.0083 43.5262 61.9688 43.8552C61.8569 43.763 61.7122 43.7104 61.5542 43.7104C61.1858 43.7104 60.8896 44.0065 60.8896 44.375C60.8896 44.7171 61.1463 44.9935 61.4687 45.033C61.4687 45.0725 61.4555 45.1185 61.4555 45.1646C61.4555 45.5331 61.7516 45.8292 62.1201 45.8292C62.3636 45.8292 62.5807 45.691 62.6926 45.4936C62.811 45.6778 63.015 45.8028 63.2585 45.8028C63.6269 45.8028 63.923 45.5067 63.923 45.1383C63.923 45.0527 63.9033 44.9672 63.8704 44.8882C64.1599 44.8158 64.3771 44.5526 64.3771 44.2434H64.3836V44.2368Z" fill="white"/>
<path d="M54.0399 54.4477C54.0399 54.0793 53.7438 53.7832 53.3753 53.7832C53.1977 53.7832 53.0397 53.8555 52.9213 53.9674C52.8423 53.6845 52.5857 53.4805 52.283 53.4805C51.9409 53.4805 51.6645 53.7371 51.625 54.0661C51.5132 53.974 51.3684 53.9213 51.2105 53.9213C50.842 53.9213 50.5459 54.2174 50.5459 54.5859C50.5459 54.9281 50.8025 55.2044 51.1249 55.2439C51.1184 55.2834 51.1118 55.3295 51.1118 55.3755C51.1118 55.744 51.4079 56.0401 51.7764 56.0401C52.0198 56.0401 52.237 55.9019 52.3488 55.7045C52.4673 55.8888 52.6712 56.0138 52.9147 56.0138C53.2832 56.0138 53.5793 55.7177 53.5793 55.3492C53.5793 55.2637 53.5596 55.1781 53.5267 55.0992C53.8162 55.0268 54.0333 54.7636 54.0333 54.4543H54.0399V54.4477Z" fill="white"/>
<path d="M66.0555 55.6528C66.0555 55.2843 65.7594 54.9882 65.3909 54.9882C65.2133 54.9882 65.0554 55.0606 64.9369 55.1725C64.858 54.8895 64.6013 54.6855 64.2987 54.6855C63.9565 54.6855 63.6801 54.9422 63.6406 55.2712C63.5288 55.179 63.384 55.1264 63.2261 55.1264C62.8576 55.1264 62.5615 55.4225 62.5615 55.791C62.5615 56.1332 62.8181 56.4095 63.1406 56.449C63.134 56.4885 63.1274 56.5345 63.1274 56.5806C63.1274 56.9491 63.4235 57.2452 63.792 57.2452C64.0354 57.2452 64.2526 57.107 64.3645 56.9096C64.4829 57.0938 64.6869 57.2189 64.9303 57.2189C65.2988 57.2189 65.5949 56.9228 65.5949 56.5543C65.5949 56.4687 65.5752 56.3832 65.5423 56.3042C65.8318 56.2319 66.0489 55.9687 66.0489 55.6594H66.0555V55.6528Z" fill="white"/>
<path d="M82.2621 45.0259C82.2621 44.6574 81.966 44.3613 81.5975 44.3613C81.4198 44.3613 81.2619 44.4337 81.1435 44.5455C81.0645 44.2626 80.8079 44.0586 80.5052 44.0586C80.163 44.0586 79.8867 44.3152 79.8472 44.6442C79.7353 44.5521 79.5906 44.4995 79.4327 44.4995C79.0642 44.4995 78.7681 44.7956 78.7681 45.164C78.7681 45.5062 79.0247 45.7826 79.3471 45.822C79.3405 45.8615 79.3339 45.9076 79.3339 45.9536C79.3339 46.3221 79.6301 46.6182 79.9985 46.6182C80.242 46.6182 80.4591 46.48 80.571 46.2826C80.6894 46.4669 80.8934 46.5919 81.1369 46.5919C81.5054 46.5919 81.8015 46.2958 81.8015 45.9273C81.8015 45.8418 81.7817 45.7562 81.7488 45.6773C82.0383 45.6049 82.2555 45.3417 82.2555 45.0324H82.2621V45.0259Z" fill="white"/>
<path d="M28.2201 42.9614C28.2201 42.5929 27.924 42.2968 27.5555 42.2968C27.3778 42.2968 27.2199 42.3692 27.1015 42.4811C27.0225 42.1981 26.7659 41.9941 26.4632 41.9941C26.121 41.9941 25.8447 42.2508 25.8052 42.5798C25.6933 42.4876 25.5486 42.435 25.3907 42.435C25.0222 42.435 24.7261 42.7311 24.7261 43.0996C24.7261 43.4417 24.9827 43.7181 25.3051 43.7576C25.2985 43.7971 25.292 43.8431 25.292 43.8892C25.292 44.2577 25.5881 44.5538 25.9565 44.5538C26.2 44.5538 26.4171 44.4156 26.529 44.2182C26.6474 44.4024 26.8514 44.5275 27.0949 44.5275C27.4634 44.5275 27.7595 44.2314 27.7595 43.8629C27.7595 43.7773 27.7397 43.6918 27.7068 43.6128C27.9963 43.5404 28.2135 43.2772 28.2135 42.968H28.2201V42.9614Z" fill="white"/>
<path d="M25.1009 55.5552C25.1009 55.1867 24.8048 54.8906 24.4363 54.8906C24.2587 54.8906 24.1008 54.963 23.9823 55.0748C23.9034 54.7919 23.6467 54.5879 23.3441 54.5879C23.0019 54.5879 22.7255 54.8445 22.6861 55.1735C22.5742 55.0814 22.4294 55.0288 22.2715 55.0288C21.903 55.0288 21.6069 55.3249 21.6069 55.6933C21.6069 56.0355 21.8636 56.3119 22.186 56.3513C22.1794 56.3908 22.1728 56.4369 22.1728 56.4829C22.1728 56.8514 22.4689 57.1475 22.8374 57.1475C23.0809 57.1475 23.298 57.0093 23.4099 56.8119C23.5283 56.9962 23.7323 57.1212 23.9757 57.1212C24.3442 57.1212 24.6403 56.8251 24.6403 56.4566C24.6403 56.3711 24.6206 56.2855 24.5877 56.2066C24.8772 56.1342 25.0943 55.871 25.0943 55.5617H25.1009V55.5552Z" fill="white"/>
<path d="M79.7157 55.2778C79.7157 54.9093 79.4196 54.6132 79.0511 54.6132C78.8734 54.6132 78.7155 54.6856 78.5971 54.7975C78.5181 54.5145 78.2615 54.3105 77.9588 54.3105C77.6166 54.3105 77.3403 54.5672 77.3008 54.8962C77.1889 54.804 77.0442 54.7514 76.8863 54.7514C76.5178 54.7514 76.2217 55.0475 76.2217 55.416C76.2217 55.7582 76.4783 56.0345 76.8007 56.074C76.7941 56.1135 76.7876 56.1595 76.7876 56.2056C76.7876 56.5741 77.0837 56.8702 77.4521 56.8702C77.6956 56.8702 77.9127 56.732 78.0246 56.5346C78.143 56.7188 78.347 56.8439 78.5905 56.8439C78.959 56.8439 79.2551 56.5478 79.2551 56.1793C79.2551 56.0937 79.2353 56.0082 79.2024 55.9292C79.492 55.8569 79.7091 55.5937 79.7091 55.2844H79.7157V55.2778Z" fill="white"/>
<path d="M60.8043 48.1197C60.8043 47.567 60.3569 47.1129 59.8042 47.1129C59.541 47.1129 59.2975 47.2182 59.1198 47.3827C59.0014 46.9616 58.6197 46.6523 58.1591 46.6523C57.6459 46.6523 57.2314 47.034 57.1656 47.5341C56.9945 47.3959 56.7773 47.3103 56.547 47.3103C55.9943 47.3103 55.5469 47.7578 55.5469 48.3105C55.5469 48.8238 55.9285 49.2383 56.422 49.3041C56.4089 49.3699 56.4023 49.4291 56.4023 49.4949C56.4023 50.0476 56.8497 50.5017 57.4024 50.5017C57.7709 50.5017 58.0933 50.2977 58.2644 50.0016C58.4421 50.2845 58.7514 50.4688 59.1133 50.4688C59.666 50.4688 60.1134 50.0213 60.1134 49.4686C60.1134 49.337 60.0871 49.2054 60.041 49.0935C60.4819 48.9883 60.8043 48.5935 60.8043 48.1197Z" fill="white"/>
<path d="M45.4664 44.3423C45.4664 43.7896 45.019 43.3356 44.4663 43.3356C44.2031 43.3356 43.9596 43.4409 43.7819 43.6054C43.6635 43.1843 43.2819 42.875 42.8213 42.875C42.308 42.875 41.8935 43.2566 41.8277 43.7567C41.6566 43.6185 41.4394 43.533 41.2091 43.533C40.6564 43.533 40.209 43.9804 40.209 44.5332C40.209 45.0464 40.5906 45.461 41.0841 45.5268C41.071 45.5926 41.0644 45.6518 41.0644 45.7176C41.0644 46.2703 41.5118 46.7243 42.0646 46.7243C42.433 46.7243 42.7555 46.5203 42.9265 46.2242C43.1042 46.5072 43.4135 46.6914 43.7754 46.6914C44.3281 46.6914 44.7755 46.244 44.7755 45.6913C44.7755 45.5597 44.7492 45.4281 44.7031 45.3162C45.144 45.2109 45.4664 44.8161 45.4664 44.3423Z" fill="white"/>
<path d="M32.3195 51.022C32.3195 50.4693 31.872 50.0153 31.3193 50.0153C31.0561 50.0153 30.8126 50.1206 30.635 50.2851C30.5165 49.8639 30.1349 49.5547 29.6743 49.5547C29.161 49.5547 28.7465 49.9363 28.6807 50.4364C28.5096 50.2982 28.2925 50.2127 28.0622 50.2127C27.5095 50.2127 27.062 50.6601 27.062 51.2129C27.062 51.7261 27.4437 52.1406 27.9372 52.2064C27.924 52.2722 27.9174 52.3315 27.9174 52.3973C27.9174 52.95 28.3649 53.404 28.9176 53.404C29.2861 53.404 29.6085 53.2 29.7796 52.9039C29.9572 53.1869 30.2665 53.3711 30.6284 53.3711C31.1811 53.3711 31.6286 52.9237 31.6286 52.3709C31.6286 52.2393 31.6022 52.1077 31.5562 51.9959C31.997 51.8906 32.3195 51.4958 32.3195 51.022Z" fill="white"/>
<path d="M47.3087 53.9947C47.3087 53.442 46.8613 52.9879 46.3085 52.9879C46.0453 52.9879 45.8019 53.0932 45.6242 53.2577C45.5058 52.8366 45.1241 52.5273 44.6635 52.5273C44.1503 52.5273 43.7358 52.909 43.67 53.4091C43.4989 53.2709 43.2817 53.1853 43.0514 53.1853C42.4987 53.1853 42.0513 53.6328 42.0513 54.1855C42.0513 54.6988 42.4329 55.1133 42.9264 55.1791C42.9132 55.2449 42.9067 55.3041 42.9067 55.3699C42.9067 55.9226 43.3541 56.3767 43.9068 56.3767C44.2753 56.3767 44.5977 56.1727 44.7688 55.8766C44.9465 56.1595 45.2557 56.3438 45.6176 56.3438C46.1704 56.3438 46.6178 55.8963 46.6178 55.3436C46.6178 55.212 46.5915 55.0804 46.5454 54.9685C46.9863 54.8633 47.3087 54.4685 47.3087 53.9947Z" fill="white"/>
<path d="M76.6622 44.3306C76.6622 43.7779 76.2148 43.3239 75.6621 43.3239C75.3989 43.3239 75.1554 43.4292 74.9777 43.5937C74.8593 43.1725 74.4777 42.8633 74.0171 42.8633C73.5038 42.8633 73.0893 43.2449 73.0235 43.745C72.8524 43.6068 72.6353 43.5213 72.405 43.5213C71.8522 43.5213 71.4048 43.9687 71.4048 44.5214C71.4048 45.0347 71.7864 45.4492 72.2799 45.515C72.2668 45.5808 72.2602 45.6401 72.2602 45.7059C72.2602 46.2586 72.7076 46.7126 73.2604 46.7126C73.6288 46.7126 73.9513 46.5086 74.1223 46.2125C74.3 46.4955 74.6093 46.6797 74.9712 46.6797C75.5239 46.6797 75.9713 46.2323 75.9713 45.6795C75.9713 45.5479 75.945 45.4163 75.8989 45.3045C76.3398 45.1992 76.6622 44.8044 76.6622 44.3306Z" fill="white"/>
<path d="M21.2975 46.1509C21.2975 45.5982 20.85 45.1442 20.2973 45.1442C20.0341 45.1442 19.7907 45.2495 19.613 45.414C19.4946 44.9929 19.1129 44.6836 18.6523 44.6836C18.1391 44.6836 17.7245 45.0652 17.6587 45.5653C17.4876 45.4271 17.2705 45.3416 17.0402 45.3416C16.4875 45.3416 16.04 45.789 16.04 46.3418C16.04 46.855 16.4217 47.2695 16.9152 47.3353C16.902 47.4011 16.8954 47.4604 16.8954 47.5262C16.8954 48.0789 17.3429 48.5329 17.8956 48.5329C18.2641 48.5329 18.5865 48.3289 18.7576 48.0328C18.9353 48.3158 19.2445 48.5 19.6064 48.5C20.1591 48.5 20.6066 48.0526 20.6066 47.4998C20.6066 47.3682 20.5803 47.2366 20.5342 47.1248C20.9751 47.0195 21.2975 46.6247 21.2975 46.1509Z" fill="white"/>
</svg>
