<svg width="100" height="100" viewBox="0 0 100 100" fill="none" xmlns="http://www.w3.org/2000/svg">
<path d="M78.6995 39.6389C80.1228 39.204 81.6055 39.349 83.0288 39.718C84.3071 40.0541 85.6184 40.6339 86.4421 41.6948C87.2131 42.6833 87.3712 43.8166 86.9495 44.9039C86.5278 45.9911 85.5327 47.0455 84.5575 47.7637C83.9842 48.1854 83.7075 48.9169 84.0963 49.5692C84.4323 50.1359 85.3285 50.4522 85.9018 50.0305C87.4305 48.9103 88.7418 47.5331 89.4271 45.7473C90.1124 43.9616 89.8488 42.0177 88.7945 40.489C87.6611 38.8482 85.9413 37.8334 84.0501 37.2799C82.159 36.7264 79.9383 36.5156 77.9681 37.1152C76.3471 37.6094 77.0588 40.1463 78.6863 39.6521L78.6995 39.6389Z" fill="#A09D97"/>
<path d="M78.7327 39.5988C80.1626 39.177 81.6452 39.3286 83.0619 39.7174C84.3403 40.06 85.6384 40.6531 86.4555 41.7206C87.2199 42.7156 87.3648 43.8489 86.9365 44.9296C86.5082 46.0103 85.5066 47.058 84.5182 47.7696C83.9449 48.1848 83.6616 48.9162 84.0437 49.5751C84.3798 50.1418 85.2694 50.4647 85.8493 50.0496C87.3846 48.9426 88.7091 47.5785 89.4141 45.7928C90.1192 44.0071 89.8688 42.0698 88.8277 40.5279C87.7075 38.8739 85.9942 37.8526 84.1096 37.2793C82.2251 36.706 80.0044 36.482 78.0276 37.0618C76.4066 37.5429 77.0919 40.0864 78.7261 39.6053L78.7327 39.5988Z" stroke="#565250" stroke-width="0.658942" stroke-linecap="round" stroke-linejoin="round"/>
<path d="M24.7779 59.3984C24.7581 59.9585 24.7251 60.5714 24.6724 61.2435C24.455 64.011 23.8553 64.9204 22.5111 64.9204C21.1669 64.9204 20.1323 63.754 20.1323 60.9733C20.1323 60.5648 20.1323 60.1167 20.1191 59.6488" fill="white"/>
<path d="M24.7779 59.3984C24.7581 59.9585 24.7251 60.5714 24.6724 61.2435C24.455 64.011 23.8553 64.9204 22.5111 64.9204C21.1669 64.9204 20.1323 63.754 20.1323 60.9733C20.1323 60.5648 20.1323 60.1167 20.1191 59.6488" stroke="#565250" stroke-width="0.658942" stroke-linecap="round" stroke-linejoin="round"/>
<path d="M79.8716 59.3984C79.8518 59.9585 79.8189 60.5714 79.7662 61.2435C79.5487 64.011 78.9491 64.9204 77.6049 64.9204C76.2606 64.9204 75.2261 63.754 75.2261 60.9733C75.2261 60.5648 75.2261 60.1167 75.2129 59.6488" fill="white"/>
<path d="M79.8716 59.3984C79.8518 59.9585 79.8189 60.5714 79.7662 61.2435C79.5487 64.011 78.9491 64.9204 77.6049 64.9204C76.2606 64.9204 75.2261 63.754 75.2261 60.9733C75.2261 60.5648 75.2261 60.1167 75.2129 59.6488" stroke="#565250" stroke-width="0.658942" stroke-linecap="round" stroke-linejoin="round"/>
<path d="M83.3641 42.9004H23.8221C20.1574 42.9004 17.1865 45.8712 17.1865 49.5359V54.1419C17.1865 57.8067 20.1574 60.7775 23.8221 60.7775H83.3641C87.0288 60.7775 89.9996 57.8067 89.9996 54.1419V49.5359C89.9996 45.8712 87.0288 42.9004 83.3641 42.9004Z" fill="white"/>
<path d="M35.6236 50.4231C35.9135 50.4033 36.2034 50.3638 36.4868 50.3111C38.0814 49.9882 39.5574 49.0459 40.447 47.6819C40.9676 46.878 41.2839 45.9621 41.5474 45.0395C41.8374 44.0445 42.0482 43.2999 41.1455 42.898C40.3218 42.529 38.4636 42.898 37.5477 42.898C36.3286 42.898 31.637 42.2193 30.8001 43.155C30.5299 43.4515 30.4509 43.8732 30.3981 44.2752C30.2664 45.3756 30.2993 46.4892 30.4113 47.5897C30.4575 48.0443 30.5299 48.5188 30.8001 48.8878C30.9912 49.1448 31.268 49.3293 31.5513 49.494C32.7374 50.1925 34.22 50.5219 35.6236 50.4297V50.4231Z" fill="#F7BE4E"/>
<path d="M65.5268 46.485C66.5679 47.4603 68.2087 47.7502 69.5858 47.6975C70.7983 47.6514 71.8592 47.1835 72.6763 46.2808C73.4934 45.378 73.9942 44.1392 74.0732 42.9004H63.9189C64.367 44.1458 64.5054 45.5164 65.5334 46.485H65.5268Z" fill="#F7BE4E"/>
<path d="M83.2918 42.9004C82.4682 43.5857 82.0794 44.6598 82.2639 45.8063C82.4945 47.2362 83.5818 48.5146 84.7547 49.3053C85.8946 50.0763 87.2652 50.3728 88.6227 50.1685C89.0905 50.096 89.5518 49.9774 89.9933 49.8193V49.5359C89.9933 45.8722 87.0214 42.9004 83.3577 42.9004H83.2918Z" fill="#A09D97"/>
<path d="M78.224 47.1352C78.224 47.1352 78.224 47.1089 78.2175 47.0957C78.2109 47.0627 78.2043 47.0298 78.1911 46.9969C78.1911 46.9771 78.1647 46.9178 78.1647 46.9112C78.1582 46.8914 78.145 46.8717 78.1318 46.8519C78.112 46.8189 78.0923 46.7926 78.0791 46.7596C78.0791 46.753 78.0791 46.7465 78.0725 46.7465C78.0725 46.7465 78.0725 46.7465 78.0593 46.7333C78.033 46.7069 78.0066 46.674 77.9802 46.6476C77.9802 46.6476 77.9473 46.6213 77.9341 46.6081C77.9143 46.5949 77.8814 46.5685 77.8748 46.5685C77.8484 46.5488 77.8221 46.5356 77.7957 46.5224C77.7826 46.5224 77.743 46.4961 77.7233 46.4895C77.7035 46.4895 77.6574 46.4631 77.6508 46.4631C77.5849 46.4433 77.519 46.4236 77.4531 46.4104C77.4333 46.4104 77.407 46.4038 77.3872 46.3972C77.3542 46.3972 77.3213 46.3906 77.2818 46.3906C77.2093 46.3906 77.1368 46.3906 77.0643 46.3906C77.0182 46.3906 76.9721 46.3906 76.9259 46.3972C76.9062 46.3972 76.8996 46.3972 76.893 46.3972C76.893 46.3972 76.893 46.3972 76.8732 46.3972C76.7941 46.4104 76.7151 46.4236 76.636 46.4499C76.5503 46.4697 76.4647 46.4961 76.3856 46.529C76.3724 46.529 76.2538 46.5817 76.3131 46.5554C76.2736 46.5685 76.2406 46.5883 76.2011 46.6081C75.6871 46.8585 75.3181 47.2407 75.1204 47.748C75.1072 47.9984 75.1204 48.1895 75.2259 48.4268C75.2852 48.5651 75.384 48.7035 75.529 48.8353C75.6212 48.921 75.8453 49.0396 75.9705 49.0857C76.2011 49.1582 76.3131 49.1779 76.5372 49.1714C76.8666 49.1714 77.1961 49.0659 77.4926 48.8617C77.7891 48.6574 77.9802 48.3081 78.112 47.9325C78.1779 47.748 78.224 47.5372 78.2372 47.4054C78.2372 47.3197 78.2372 47.2275 78.2372 47.1418L78.224 47.1352Z" fill="#F7BE4E"/>
<path d="M49.9685 45.002C48.9076 44.2508 47.2866 43.9609 46.1664 44.7516C46.1532 44.7582 46.1401 44.7648 46.1269 44.7714C45.5536 45.2854 45.0199 45.8784 44.7299 46.5901C44.5191 47.1106 44.4795 47.6773 44.7036 48.1254C45.1319 48.9952 46.173 49.4103 47.1285 49.4697C48.2882 49.5421 49.4611 49.1402 50.2453 48.2506C50.667 47.7696 51.0097 47.1304 50.9372 46.4781C50.8713 45.8718 50.4561 45.3513 49.9751 45.0086L49.9685 45.002Z" fill="#A09D97"/>
<path d="M83.3641 42.9004H23.8221C20.1574 42.9004 17.1865 45.8712 17.1865 49.5359V54.1419C17.1865 57.8067 20.1574 60.7775 23.8221 60.7775H83.3641C87.0288 60.7775 89.9996 57.8067 89.9996 54.1419V49.5359C89.9996 45.8712 87.0288 42.9004 83.3641 42.9004Z" stroke="#565250" stroke-width="0.658942" stroke-linecap="round" stroke-linejoin="round"/>
<path d="M30.7476 59.3984C30.7278 59.9585 30.6949 60.5714 30.6422 61.2435C30.4247 64.011 29.8251 64.9204 28.4808 64.9204C27.1366 64.9204 26.102 63.754 26.102 60.9733C26.102 60.5648 26.102 60.1167 26.0889 59.6488" fill="white"/>
<path d="M30.7476 59.3984C30.7278 59.9585 30.6949 60.5714 30.6422 61.2435C30.4247 64.011 29.8251 64.9204 28.4808 64.9204C27.1366 64.9204 26.102 63.754 26.102 60.9733C26.102 60.5648 26.102 60.1167 26.0889 59.6488" stroke="#565250" stroke-width="0.658942" stroke-linecap="round" stroke-linejoin="round"/>
<path d="M85.8423 59.3984C85.8225 59.9585 85.7896 60.5714 85.7369 61.2435C85.5194 64.011 84.9198 64.9204 83.5755 64.9204C82.2313 64.9204 81.1968 63.754 81.1968 60.9733C81.1968 60.5648 81.1968 60.1167 81.1836 59.6488" fill="white"/>
<path d="M85.8423 59.3984C85.8225 59.9585 85.7896 60.5714 85.7369 61.2435C85.5194 64.011 84.9198 64.9204 83.5755 64.9204C82.2313 64.9204 81.1968 63.754 81.1968 60.9733C81.1968 60.5648 81.1968 60.1167 81.1836 59.6488" stroke="#565250" stroke-width="0.658942" stroke-linecap="round" stroke-linejoin="round"/>
<mask id="mask0_3759_4987" style="mask-type:luminance" maskUnits="userSpaceOnUse" x="10" y="36" width="24" height="22">
<path d="M10.2871 39.7616C10.2475 41.6199 10.5111 43.4847 11.0515 45.2572C11.1569 45.6065 11.2755 45.9557 11.3084 46.3247C11.348 46.7332 11.2755 47.1418 11.2228 47.5437C10.8867 50.1927 11.5193 53.1118 13.4961 54.9107C15.7299 56.9403 19.051 57.105 22.069 56.9864C23.7493 56.9205 25.4362 56.8019 27.0506 56.3472C28.665 55.8925 30.2135 55.0689 31.3073 53.7905C31.7422 53.2765 32.0981 52.6967 32.3616 52.0773C32.7636 51.1218 33.0667 49.9028 33.014 48.855C32.9679 47.9589 32.5396 47.2143 32.6911 46.2654C32.7965 45.5801 33.0535 44.9277 33.2578 44.2622C33.8706 42.3117 34.0815 40.2097 33.6532 38.2131C33.5214 37.6003 33.3039 36.9545 32.7965 36.5789C31.9794 35.9661 31.3271 36.6646 30.6418 37.06C29.5677 37.686 28.6188 38.5294 27.8677 39.5178C27.6173 39.8473 27.3669 40.2097 26.9847 40.3613C26.6157 40.5128 26.2005 40.4338 25.8118 40.3679C24.428 40.1372 23.0244 40.0516 21.6209 40.1109C20.6456 40.1504 18.8599 40.012 17.9769 40.4008C17.8649 40.4469 17.7529 40.5062 17.6343 40.4931C17.4959 40.4733 17.3971 40.3547 17.3114 40.2493C16.0265 38.6612 14.5768 37.0863 12.6593 36.3944C10.7615 35.7091 10.3134 38.4174 10.2871 39.7682V39.7616Z" fill="white"/>
</mask>
<g mask="url(#mask0_3759_4987)">
<path d="M10.2871 39.7616C10.2475 41.6199 10.5111 43.4847 11.0515 45.2572C11.1569 45.6065 11.2755 45.9557 11.3084 46.3247C11.348 46.7332 11.2755 47.1418 11.2228 47.5437C10.8867 50.1927 11.5193 53.1118 13.4961 54.9107C15.7299 56.9403 19.051 57.105 22.069 56.9864C23.7493 56.9205 25.4362 56.8019 27.0506 56.3472C28.665 55.8925 30.2135 55.0689 31.3073 53.7905C31.7422 53.2765 32.0981 52.6967 32.3616 52.0773C32.7636 51.1218 33.0667 49.9028 33.014 48.855C32.9679 47.9589 32.5396 47.2143 32.6911 46.2654C32.7965 45.5801 33.0535 44.9277 33.2578 44.2622C33.8706 42.3117 34.0815 40.2097 33.6532 38.2131C33.5214 37.6003 33.3039 36.9545 32.7965 36.5789C31.9794 35.9661 31.3271 36.6646 30.6418 37.06C29.5677 37.686 28.6188 38.5294 27.8677 39.5178C27.6173 39.8473 27.3669 40.2097 26.9847 40.3613C26.6157 40.5128 26.2005 40.4338 25.8118 40.3679C24.428 40.1372 23.0244 40.0516 21.6209 40.1109C20.6456 40.1504 18.8599 40.012 17.9769 40.4008C17.8649 40.4469 17.7529 40.5062 17.6343 40.4931C17.4959 40.4733 17.3971 40.3547 17.3114 40.2493C16.0265 38.6612 14.5768 37.0863 12.6593 36.3944C10.7615 35.7091 10.3134 38.4174 10.2871 39.7682V39.7616Z" fill="white"/>
<path d="M32.8303 45.7848C33.0807 45.0995 33.5815 44.3417 33.7463 43.6762C34.1812 41.9498 34.1812 40.1179 33.7331 38.3915C32.9094 35.2549 30.7415 36.4081 29.0876 38.0686C28.4813 38.6748 27.1832 40.0916 26.3134 40.2234C25.8324 40.2958 25.3645 40.0586 24.9165 39.8807C23.078 39.1559 23.0648 40.6517 23.0055 42.0223C22.9264 43.808 23.1505 45.6267 23.7633 47.3136C23.9742 47.8869 24.218 48.4535 24.6067 48.9214C25.0087 49.409 25.549 49.7648 26.1223 50.035C27.6577 50.7598 32.8567 51.2804 33.1005 48.8028C33.1862 47.9264 32.5997 47.0895 32.6854 46.3252C32.7051 46.1538 32.7513 45.9759 32.8238 45.7848H32.8303Z" fill="#F7BE4E"/>
<path d="M14.7018 51.1953C16.2371 51.1294 17.7856 50.8263 19.1299 50.0948C19.8481 49.5347 20.4609 48.8099 20.909 47.8808C21.7854 46.0423 21.9501 43.9733 21.7854 41.9635C21.5745 39.4595 20.6652 39.8615 18.405 40.1975C18.1744 40.2305 17.9306 40.2568 17.7065 40.1843C17.443 40.1053 17.2387 39.9142 17.0344 39.7297C16.0592 38.8599 15.0115 38.1284 13.9374 37.3904C13.4498 37.0544 12.6459 36.1055 12.0726 35.9869C11.1303 35.7826 10.8469 36.5997 10.6163 37.3707C10.0694 39.2223 10.1221 41.8053 10.5438 43.6833C10.8272 44.9353 11.2819 46.1675 11.3016 47.4459C11.3148 48.2564 10.7613 50.2662 11.407 50.8921C11.954 51.4259 13.9901 51.215 14.7018 51.1821V51.1953Z" fill="#A09D97"/>
<path d="M14.3592 40.1452C14.0495 39.7564 12.6789 38.6033 12.1978 39.0909C11.9738 39.3149 11.9408 39.6642 11.9211 39.9805C11.8354 41.4829 11.8618 43.0511 12.5075 44.4086C12.4021 44.1911 13.6739 43.2159 13.8122 43.1104C14.2208 42.7942 15.0115 42.3065 15.1235 41.753C15.2421 41.2127 14.6557 40.5208 14.3526 40.1386L14.3592 40.1452Z" fill="white"/>
<path d="M31.4652 44.7188C32.3152 43.3812 32.2823 41.1408 32.0055 39.612C31.9725 39.4407 31.933 39.2562 31.8012 39.131C31.2477 38.6038 30.5822 39.5 30.2659 39.8492C29.7453 40.4225 29.205 41.1342 28.9678 41.8986C29.1984 42.5707 29.9957 43.1044 30.4636 43.5789C30.826 43.9479 31.1159 44.3828 31.4256 44.7913C31.4388 44.7715 31.452 44.7452 31.4718 44.7254L31.4652 44.7188Z" fill="white"/>
</g>
<path d="M16.8378 49.5096C17.3728 49.5096 17.8064 49.0759 17.8064 48.5409C17.8064 48.0059 17.3728 47.5723 16.8378 47.5723C16.3028 47.5723 15.8691 48.0059 15.8691 48.5409C15.8691 49.0759 16.3028 49.5096 16.8378 49.5096Z" fill="#231F20"/>
<path d="M26.9452 49.5096C27.4802 49.5096 27.9139 49.0759 27.9139 48.5409C27.9139 48.0059 27.4802 47.5723 26.9452 47.5723C26.4102 47.5723 25.9766 48.0059 25.9766 48.5409C25.9766 49.0759 26.4102 49.5096 26.9452 49.5096Z" fill="#231F20"/>
<path d="M21.891 50.1935C22.3751 50.1935 22.7674 49.9486 22.7674 49.6465C22.7674 49.3445 22.3751 49.0996 21.891 49.0996C21.407 49.0996 21.0146 49.3445 21.0146 49.6465C21.0146 49.9486 21.407 50.1935 21.891 50.1935Z" fill="#231F20"/>
<path d="M16.1718 41.5227C19.7037 40.0796 23.6706 39.961 27.2816 41.2064C27.6835 41.3448 27.8549 40.7056 27.4595 40.5738C23.7497 39.3021 19.6313 39.4141 16.0005 40.8901C15.6117 41.0483 15.783 41.6875 16.1784 41.5227H16.1718Z" fill="#565250"/>
<path d="M11.9026 36.6394C13.9782 37.5355 15.8167 38.8929 17.2927 40.6128C17.5695 40.9357 18.0307 40.4678 17.7606 40.1449C16.2582 38.3921 14.3604 36.9886 12.2386 36.0727C11.8565 35.9079 11.5204 36.4746 11.9092 36.6394H11.9026Z" fill="#565250"/>
<path d="M10.749 36.8568C9.64852 39.8879 9.77372 43.2419 11.0389 46.2006C11.2036 46.5894 11.7703 46.2533 11.6056 45.8711C10.4063 43.0772 10.347 39.8879 11.3815 37.0347C11.5265 36.6327 10.8873 36.4614 10.749 36.8568Z" fill="#565250"/>
<path d="M12.4687 39.3728C13.4637 39.9066 14.2347 40.75 14.6959 41.7846C14.7684 41.9493 15.0056 41.9822 15.144 41.9032C15.3087 41.8043 15.3351 41.6132 15.2626 41.4551C14.7684 40.3349 13.8788 39.386 12.7982 38.8061C12.64 38.7205 12.4423 38.7666 12.3501 38.9247C12.2578 39.0829 12.3105 39.2938 12.4687 39.3728Z" fill="#565250"/>
<path d="M13.1673 43.3947C10.9467 45.8327 10.1164 49.4108 11.4079 52.4946C12.2777 54.5571 13.9383 56.0727 16.0535 56.7975C17.8458 57.4104 19.7897 57.4762 21.6545 57.3181C22.0762 57.2852 22.0762 56.6262 21.6545 56.6592C18.9858 56.8766 15.9678 56.6592 13.8526 54.8207C12.1657 53.3579 11.3025 51.0845 11.4541 48.8771C11.5793 47.0188 12.3766 45.2331 13.6286 43.8625C13.9119 43.5528 13.4507 43.085 13.1607 43.3947H13.1673Z" fill="#565250"/>
<path d="M27.098 40.7115C28.0535 39.7758 28.9496 38.8137 30.0105 37.9901C30.4125 37.6803 30.821 37.3641 31.2494 37.0939C31.5525 36.9028 32.0137 36.5667 32.3893 36.6722C33.0549 36.8567 33.213 38.0098 33.2987 38.5633C33.4239 39.3409 33.4436 40.1316 33.4568 40.9158C33.4766 42.6158 33.1735 44.3027 32.5013 45.871C32.3366 46.2598 32.9033 46.5958 33.068 46.2005C34.1026 43.7887 34.3332 41.1003 33.951 38.5172C33.8324 37.7133 33.6215 36.6129 32.8572 36.1648C31.9544 35.631 30.8672 36.5206 30.1687 37.0346C29.6547 37.4168 29.1407 37.799 28.6597 38.2207C27.9415 38.8533 27.3089 39.5715 26.6236 40.2436C26.3205 40.5402 26.7883 41.008 27.0914 40.7115H27.098Z" fill="#565250"/>
<path d="M31.3014 38.8061C30.2207 39.386 29.3377 40.3349 28.8369 41.4551C28.7644 41.6198 28.7908 41.8109 28.9555 41.9032C29.0939 41.9822 29.3311 41.9493 29.4036 41.7846C29.8649 40.75 30.6358 39.9066 31.6308 39.3728C31.789 39.2872 31.8351 39.0697 31.7495 38.9247C31.6572 38.7666 31.4529 38.7205 31.3014 38.8061Z" fill="#565250"/>
<path d="M30.4705 43.8548C31.9794 45.5088 32.8097 47.7557 32.6384 50.0027C32.467 52.2497 31.2282 54.1409 29.37 55.2677C28.3552 55.8805 27.2087 56.2034 26.0292 56.1638C25.6075 56.1507 25.6075 56.8096 26.0292 56.8228C28.3289 56.8887 30.5034 55.6894 31.8674 53.8707C33.3434 51.9071 33.6466 49.3174 32.9678 46.9914C32.5725 45.6537 31.874 44.4281 30.9383 43.4001C30.655 43.0838 30.1871 43.5517 30.4705 43.868V43.8548Z" fill="#565250"/>
</svg>
