<svg width="100" height="100" viewBox="0 0 100 100" fill="none" xmlns="http://www.w3.org/2000/svg">
<path d="M90 41.2471L88.1533 43.0928L90 44.9385L88.1533 46.7852L90 48.6309L88.1533 50.4775L90 52.3232L88.1533 54.1699L90 56.0156L88.1533 57.8623L89.7539 59.4619H11.0635L10 58.8477L11.8457 57.002L10 55.1553L11.8457 53.3096L10 51.4629L11.8457 49.6172L10 47.7705L11.8457 45.9248L10 44.0781L11.8457 42.2324L10 40.3867V40.3848H88.5068L90 41.2471Z" fill="#BFD3EB"/>
<mask id="mask0_3710_32719" style="mask-type:alpha" maskUnits="userSpaceOnUse" x="10" y="40" width="80" height="20">
<path d="M90 41.2471L88.1533 43.0928L90 44.9385L88.1533 46.7852L90 48.6309L88.1533 50.4775L90 52.3232L88.1533 54.1699L90 56.0156L88.1533 57.8623L89.7539 59.4619H11.0635L10 58.8477L11.8457 57.002L10 55.1553L11.8457 53.3096L10 51.4629L11.8457 49.6172L10 47.7705L11.8457 45.9248L10 44.0781L11.8457 42.2324L10 40.3867V40.3848H88.5068L90 41.2471Z" fill="white"/>
</mask>
<g mask="url(#mask0_3710_32719)">
<circle cx="11.458" cy="54.6113" r="1.03904" fill="white"/>
<circle cx="11.458" cy="45.4336" r="1.03904" fill="white"/>
<circle cx="19.25" cy="50.1074" r="1.03904" fill="white"/>
<circle cx="19.25" cy="40.7558" r="1.03904" fill="white"/>
<circle cx="19.25" cy="59.2871" r="1.03904" fill="white"/>
<circle cx="22.541" cy="54.6113" r="1.03904" fill="white"/>
<circle cx="22.541" cy="45.4336" r="1.03904" fill="white"/>
<circle cx="30.334" cy="50.1074" r="1.03904" fill="white"/>
<circle cx="30.334" cy="40.7558" r="1.03904" fill="white"/>
<circle cx="30.334" cy="59.2871" r="1.03904" fill="white"/>
<circle cx="33.624" cy="54.6113" r="1.03904" fill="white"/>
<circle cx="33.624" cy="45.4336" r="1.03904" fill="white"/>
<circle cx="46.958" cy="50.1074" r="1.03904" fill="white"/>
<circle cx="46.958" cy="40.7558" r="1.03904" fill="white"/>
<circle cx="46.958" cy="59.2871" r="1.03904" fill="white"/>
<circle cx="50.248" cy="54.6113" r="1.03904" fill="white"/>
<circle cx="50.248" cy="45.4336" r="1.03904" fill="white"/>
<circle cx="13.709" cy="50.1074" r="1.03904" fill="white"/>
<circle cx="13.709" cy="40.7558" r="1.03904" fill="white"/>
<circle cx="13.709" cy="59.2871" r="1.03904" fill="white"/>
<circle cx="16.999" cy="54.6113" r="1.03904" fill="white"/>
<circle cx="16.999" cy="45.4336" r="1.03904" fill="white"/>
<circle cx="24.791" cy="40.7558" r="1.03904" fill="white"/>
<circle cx="24.791" cy="50.1074" r="1.03904" fill="white"/>
<circle cx="24.791" cy="59.2871" r="1.03904" fill="white"/>
<circle cx="28.082" cy="54.6113" r="1.03904" fill="white"/>
<circle cx="28.082" cy="45.4336" r="1.03904" fill="white"/>
<circle cx="41.416" cy="50.1074" r="1.03904" fill="white"/>
<circle cx="41.416" cy="40.7558" r="1.03904" fill="white"/>
<circle cx="41.416" cy="59.2871" r="1.03904" fill="white"/>
<circle cx="44.707" cy="54.6113" r="1.03904" fill="white"/>
<circle cx="44.707" cy="45.4336" r="1.03904" fill="white"/>
<circle cx="35.875" cy="50.1074" r="1.03904" fill="white"/>
<circle cx="35.875" cy="40.7558" r="1.03904" fill="white"/>
<circle cx="35.875" cy="59.2871" r="1.03904" fill="white"/>
<circle cx="39.166" cy="54.6113" r="1.03904" fill="white"/>
<circle cx="39.166" cy="45.4336" r="1.03904" fill="white"/>
<circle cx="52.5" cy="50.1074" r="1.03904" fill="white"/>
<circle cx="52.5" cy="40.7558" r="1.03904" fill="white"/>
<circle cx="52.5" cy="59.2871" r="1.03904" fill="white"/>
<circle cx="55.79" cy="54.6113" r="1.03904" fill="white"/>
<circle cx="55.79" cy="45.4336" r="1.03904" fill="white"/>
<circle cx="58.041" cy="50.1074" r="1.03904" fill="white"/>
<circle cx="58.041" cy="40.7558" r="1.03904" fill="white"/>
<circle cx="58.041" cy="59.2871" r="1.03904" fill="white"/>
<circle cx="61.332" cy="54.6113" r="1.03904" fill="white"/>
<circle cx="61.332" cy="45.4336" r="1.03904" fill="white"/>
<circle cx="69.124" cy="50.1074" r="1.03904" fill="white"/>
<circle cx="69.124" cy="40.7558" r="1.03904" fill="white"/>
<circle cx="69.124" cy="59.2871" r="1.03904" fill="white"/>
<circle cx="72.415" cy="54.6113" r="1.03904" fill="white"/>
<circle cx="72.415" cy="45.4336" r="1.03904" fill="white"/>
<circle cx="80.208" cy="50.1074" r="1.03904" fill="white"/>
<circle cx="80.208" cy="40.7558" r="1.03904" fill="white"/>
<circle cx="80.208" cy="59.2871" r="1.03904" fill="white"/>
<circle cx="83.498" cy="54.6113" r="1.03904" fill="white"/>
<circle cx="83.498" cy="45.4336" r="1.03904" fill="white"/>
<circle cx="63.583" cy="50.1074" r="1.03904" fill="white"/>
<circle cx="63.583" cy="40.7558" r="1.03904" fill="white"/>
<circle cx="63.583" cy="59.2871" r="1.03904" fill="white"/>
<circle cx="66.873" cy="54.6113" r="1.03904" fill="white"/>
<circle cx="66.873" cy="45.4336" r="1.03904" fill="white"/>
<circle cx="74.666" cy="40.7558" r="1.03904" fill="white"/>
<circle cx="74.666" cy="50.1074" r="1.03904" fill="white"/>
<circle cx="74.666" cy="59.2871" r="1.03904" fill="white"/>
<circle cx="77.956" cy="54.6113" r="1.03904" fill="white"/>
<circle cx="77.956" cy="45.4336" r="1.03904" fill="white"/>
<circle cx="85.749" cy="50.1074" r="1.03904" fill="white"/>
<circle cx="85.749" cy="40.7558" r="1.03904" fill="white"/>
<circle cx="85.749" cy="59.2871" r="1.03904" fill="white"/>
<circle cx="89.04" cy="54.6113" r="1.03904" fill="white"/>
<circle cx="89.04" cy="45.4336" r="1.03904" fill="white"/>
</g>
<path d="M90 40.8623L88.1533 42.708L90 44.5537L88.1533 46.4004L90 48.2461L88.1533 50.0928L90 51.9385L88.1533 53.7852L90 55.6309L88.1533 57.4775L89.7539 59.0771H11.0635L10 58.4629L11.8457 56.6172L10 54.7705L11.8457 52.9248L10 51.0781L11.8457 49.2324L10 47.3857L11.8457 45.54L10 43.6934L11.8457 41.8477L10 40.002V40H88.5068L90 40.8623Z" fill="#BFD3EB"/>
<mask id="mask1_3710_32719" style="mask-type:alpha" maskUnits="userSpaceOnUse" x="10" y="40" width="80" height="20">
<path d="M90 40.8623L88.1533 42.708L90 44.5537L88.1533 46.4004L90 48.2461L88.1533 50.0928L90 51.9385L88.1533 53.7852L90 55.6309L88.1533 57.4775L89.7539 59.0771H11.0635L10 58.4629L11.8457 56.6172L10 54.7705L11.8457 52.9248L10 51.0781L11.8457 49.2324L10 47.3857L11.8457 45.54L10 43.6934L11.8457 41.8477L10 40.002V40H88.5068L90 40.8623Z" fill="white"/>
</mask>
<g mask="url(#mask1_3710_32719)">
<circle cx="11.458" cy="54.2265" r="1.03904" fill="white"/>
<circle cx="11.458" cy="45.0488" r="1.03904" fill="white"/>
<circle cx="19.25" cy="49.7226" r="1.03904" fill="white"/>
<circle cx="19.25" cy="40.3711" r="1.03904" fill="white"/>
<circle cx="19.25" cy="58.9023" r="1.03904" fill="white"/>
<circle cx="22.541" cy="54.2265" r="1.03904" fill="white"/>
<circle cx="22.541" cy="45.0488" r="1.03904" fill="white"/>
<circle cx="30.334" cy="49.7226" r="1.03904" fill="white"/>
<circle cx="30.334" cy="40.3711" r="1.03904" fill="white"/>
<circle cx="30.334" cy="58.9023" r="1.03904" fill="white"/>
<circle cx="33.624" cy="54.2265" r="1.03904" fill="white"/>
<circle cx="33.624" cy="45.0488" r="1.03904" fill="white"/>
<circle cx="46.958" cy="49.7226" r="1.03904" fill="white"/>
<circle cx="46.958" cy="40.3711" r="1.03904" fill="white"/>
<circle cx="46.958" cy="58.9023" r="1.03904" fill="white"/>
<circle cx="50.248" cy="54.2265" r="1.03904" fill="white"/>
<circle cx="50.248" cy="45.0488" r="1.03904" fill="white"/>
<circle cx="13.709" cy="49.7226" r="1.03904" fill="white"/>
<circle cx="13.709" cy="40.3711" r="1.03904" fill="white"/>
<circle cx="13.709" cy="58.9023" r="1.03904" fill="white"/>
<circle cx="16.999" cy="54.2265" r="1.03904" fill="white"/>
<circle cx="16.999" cy="45.0488" r="1.03904" fill="white"/>
<circle cx="24.791" cy="40.3711" r="1.03904" fill="white"/>
<circle cx="24.791" cy="49.7226" r="1.03904" fill="white"/>
<circle cx="24.791" cy="58.9023" r="1.03904" fill="white"/>
<circle cx="28.082" cy="54.2265" r="1.03904" fill="white"/>
<circle cx="28.082" cy="45.0488" r="1.03904" fill="white"/>
<circle cx="41.416" cy="49.7226" r="1.03904" fill="white"/>
<circle cx="41.416" cy="40.3711" r="1.03904" fill="white"/>
<circle cx="41.416" cy="58.9023" r="1.03904" fill="white"/>
<circle cx="44.707" cy="54.2265" r="1.03904" fill="white"/>
<circle cx="44.707" cy="45.0488" r="1.03904" fill="white"/>
<circle cx="35.875" cy="49.7226" r="1.03904" fill="white"/>
<circle cx="35.875" cy="40.3711" r="1.03904" fill="white"/>
<circle cx="35.875" cy="58.9023" r="1.03904" fill="white"/>
<circle cx="39.166" cy="54.2265" r="1.03904" fill="white"/>
<circle cx="39.166" cy="45.0488" r="1.03904" fill="white"/>
<circle cx="52.5" cy="49.7226" r="1.03904" fill="white"/>
<circle cx="52.5" cy="40.3711" r="1.03904" fill="white"/>
<circle cx="52.5" cy="58.9023" r="1.03904" fill="white"/>
<circle cx="55.79" cy="54.2265" r="1.03904" fill="white"/>
<circle cx="55.79" cy="45.0488" r="1.03904" fill="white"/>
<circle cx="58.041" cy="49.7226" r="1.03904" fill="white"/>
<circle cx="58.041" cy="40.3711" r="1.03904" fill="white"/>
<circle cx="58.041" cy="58.9023" r="1.03904" fill="white"/>
<circle cx="61.332" cy="54.2265" r="1.03904" fill="white"/>
<circle cx="61.332" cy="45.0488" r="1.03904" fill="white"/>
<circle cx="69.124" cy="49.7226" r="1.03904" fill="white"/>
<circle cx="69.124" cy="40.3711" r="1.03904" fill="white"/>
<circle cx="69.124" cy="58.9023" r="1.03904" fill="white"/>
<circle cx="72.415" cy="54.2265" r="1.03904" fill="white"/>
<circle cx="72.415" cy="45.0488" r="1.03904" fill="white"/>
<circle cx="80.208" cy="49.7226" r="1.03904" fill="white"/>
<circle cx="80.208" cy="40.3711" r="1.03904" fill="white"/>
<circle cx="80.208" cy="58.9023" r="1.03904" fill="white"/>
<circle cx="83.498" cy="54.2265" r="1.03904" fill="white"/>
<circle cx="83.498" cy="45.0488" r="1.03904" fill="white"/>
<circle cx="63.583" cy="49.7226" r="1.03904" fill="white"/>
<circle cx="63.583" cy="40.3711" r="1.03904" fill="white"/>
<circle cx="63.583" cy="58.9023" r="1.03904" fill="white"/>
<circle cx="66.873" cy="54.2265" r="1.03904" fill="white"/>
<circle cx="66.873" cy="45.0488" r="1.03904" fill="white"/>
<circle cx="74.666" cy="40.3711" r="1.03904" fill="white"/>
<circle cx="74.666" cy="49.7226" r="1.03904" fill="white"/>
<circle cx="74.666" cy="58.9023" r="1.03904" fill="white"/>
<circle cx="77.956" cy="54.2265" r="1.03904" fill="white"/>
<circle cx="77.956" cy="45.0488" r="1.03904" fill="white"/>
<circle cx="85.749" cy="49.7226" r="1.03904" fill="white"/>
<circle cx="85.749" cy="40.3711" r="1.03904" fill="white"/>
<circle cx="85.749" cy="58.9023" r="1.03904" fill="white"/>
<circle cx="89.04" cy="54.2265" r="1.03904" fill="white"/>
<circle cx="89.04" cy="45.0488" r="1.03904" fill="white"/>
</g>
<mask id="mask2_3710_32719" style="mask-type:alpha" maskUnits="userSpaceOnUse" x="10" y="40" width="80" height="20">
<path d="M90 40.8623L88.1533 42.708L90 44.5537L88.1533 46.4004L90 48.2461L88.1533 50.0928L90 51.9385L88.1533 53.7852L90 55.6309L88.1533 57.4775L89.7539 59.0771H11.0635L10 58.4629L11.8457 56.6172L10 54.7705L11.8457 52.9248L10 51.0781L11.8457 49.2324L10 47.3857L11.8457 45.54L10 43.6934L11.8457 41.8477L10 40.002V40H88.5068L90 40.8623Z" fill="white"/>
</mask>
<g mask="url(#mask2_3710_32719)">
<circle cx="11.458" cy="54.2265" r="1.03904" fill="white"/>
<circle cx="11.458" cy="45.0488" r="1.03904" fill="white"/>
<circle cx="19.25" cy="49.7226" r="1.03904" fill="white"/>
<circle cx="19.25" cy="40.3711" r="1.03904" fill="white"/>
<circle cx="19.25" cy="58.9023" r="1.03904" fill="white"/>
<circle cx="22.541" cy="54.2265" r="1.03904" fill="white"/>
<circle cx="22.541" cy="45.0488" r="1.03904" fill="white"/>
<circle cx="30.334" cy="49.7226" r="1.03904" fill="white"/>
<circle cx="30.334" cy="40.3711" r="1.03904" fill="white"/>
<circle cx="30.334" cy="58.9023" r="1.03904" fill="white"/>
<circle cx="33.624" cy="54.2265" r="1.03904" fill="white"/>
<circle cx="33.624" cy="45.0488" r="1.03904" fill="white"/>
<circle cx="46.958" cy="49.7226" r="1.03904" fill="white"/>
<circle cx="46.958" cy="40.3711" r="1.03904" fill="white"/>
<circle cx="46.958" cy="58.9023" r="1.03904" fill="white"/>
<circle cx="50.248" cy="54.2265" r="1.03904" fill="white"/>
<circle cx="50.248" cy="45.0488" r="1.03904" fill="white"/>
<circle cx="13.709" cy="49.7226" r="1.03904" fill="white"/>
<circle cx="13.709" cy="40.3711" r="1.03904" fill="white"/>
<circle cx="13.709" cy="58.9023" r="1.03904" fill="white"/>
<circle cx="16.999" cy="54.2265" r="1.03904" fill="white"/>
<circle cx="16.999" cy="45.0488" r="1.03904" fill="white"/>
<circle cx="24.791" cy="40.3711" r="1.03904" fill="white"/>
<circle cx="24.791" cy="49.7226" r="1.03904" fill="white"/>
<circle cx="24.791" cy="58.9023" r="1.03904" fill="white"/>
<circle cx="28.082" cy="54.2265" r="1.03904" fill="white"/>
<circle cx="28.082" cy="45.0488" r="1.03904" fill="white"/>
<circle cx="41.416" cy="49.7226" r="1.03904" fill="white"/>
<circle cx="41.416" cy="40.3711" r="1.03904" fill="white"/>
<circle cx="41.416" cy="58.9023" r="1.03904" fill="white"/>
<circle cx="44.707" cy="54.2265" r="1.03904" fill="white"/>
<circle cx="44.707" cy="45.0488" r="1.03904" fill="white"/>
<circle cx="35.875" cy="49.7226" r="1.03904" fill="white"/>
<circle cx="35.875" cy="40.3711" r="1.03904" fill="white"/>
<circle cx="35.875" cy="58.9023" r="1.03904" fill="white"/>
<circle cx="39.166" cy="54.2265" r="1.03904" fill="white"/>
<circle cx="39.166" cy="45.0488" r="1.03904" fill="white"/>
<circle cx="52.5" cy="49.7226" r="1.03904" fill="white"/>
<circle cx="52.5" cy="40.3711" r="1.03904" fill="white"/>
<circle cx="52.5" cy="58.9023" r="1.03904" fill="white"/>
<circle cx="55.79" cy="54.2265" r="1.03904" fill="white"/>
<circle cx="55.79" cy="45.0488" r="1.03904" fill="white"/>
<circle cx="58.041" cy="49.7226" r="1.03904" fill="white"/>
<circle cx="58.041" cy="40.3711" r="1.03904" fill="white"/>
<circle cx="58.041" cy="58.9023" r="1.03904" fill="white"/>
<circle cx="61.332" cy="54.2265" r="1.03904" fill="white"/>
<circle cx="61.332" cy="45.0488" r="1.03904" fill="white"/>
<circle cx="69.124" cy="49.7226" r="1.03904" fill="white"/>
<circle cx="69.124" cy="40.3711" r="1.03904" fill="white"/>
<circle cx="69.124" cy="58.9023" r="1.03904" fill="white"/>
<circle cx="72.415" cy="54.2265" r="1.03904" fill="white"/>
<circle cx="72.415" cy="45.0488" r="1.03904" fill="white"/>
<circle cx="80.208" cy="49.7226" r="1.03904" fill="white"/>
<circle cx="80.208" cy="40.3711" r="1.03904" fill="white"/>
<circle cx="80.208" cy="58.9023" r="1.03904" fill="white"/>
<circle cx="83.498" cy="54.2265" r="1.03904" fill="white"/>
<circle cx="83.498" cy="45.0488" r="1.03904" fill="white"/>
<circle cx="63.583" cy="49.7226" r="1.03904" fill="white"/>
<circle cx="63.583" cy="40.3711" r="1.03904" fill="white"/>
<circle cx="63.583" cy="58.9023" r="1.03904" fill="white"/>
<circle cx="66.873" cy="54.2265" r="1.03904" fill="white"/>
<circle cx="66.873" cy="45.0488" r="1.03904" fill="white"/>
<circle cx="74.666" cy="40.3711" r="1.03904" fill="white"/>
<circle cx="74.666" cy="49.7226" r="1.03904" fill="white"/>
<circle cx="74.666" cy="58.9023" r="1.03904" fill="white"/>
<circle cx="77.956" cy="54.2265" r="1.03904" fill="white"/>
<circle cx="77.956" cy="45.0488" r="1.03904" fill="white"/>
<circle cx="85.749" cy="49.7226" r="1.03904" fill="white"/>
<circle cx="85.749" cy="40.3711" r="1.03904" fill="white"/>
<circle cx="85.749" cy="58.9023" r="1.03904" fill="white"/>
<circle cx="89.04" cy="54.2265" r="1.03904" fill="white"/>
<circle cx="89.04" cy="45.0488" r="1.03904" fill="white"/>
</g>
</svg>
