<svg width="100" height="100" viewBox="0 0 100 100" fill="none" xmlns="http://www.w3.org/2000/svg">
<mask id="mask0_3759_4991" style="mask-type:luminance" maskUnits="userSpaceOnUse" x="10" y="41" width="80" height="19">
<path d="M86.4205 55.6013L90 53.239L86.9337 49.9753L90 47.2775L86.5455 44.6916L88.7959 41.2305H10C11.5792 43.0926 13.4216 45.2509 13.4216 45.2509L10.0987 48.1724L13.5532 50.6465L10.0987 53.4562L14.0599 55.8184L10.4145 59.0755H89.8552L86.4205 55.5947V55.6013Z" fill="white"/>
</mask>
<g mask="url(#mask0_3759_4991)">
<path d="M86.4205 55.6013L90 53.239L86.9337 49.9753L90 47.2775L86.5455 44.6916L88.7959 41.2305H10C11.5792 43.0926 13.4216 45.2509 13.4216 45.2509L10.0987 48.1724L13.5532 50.6465L10.0987 53.4562L14.0599 55.8184L10.4145 59.0755H89.8552L86.4205 55.5947V55.6013Z" fill="#A8EABD"/>
<path d="M16.4816 48.6072C16.679 48.6269 16.8764 48.5282 16.9685 48.3374C17.0869 48.1005 16.9817 47.811 16.7448 47.6926C16.5079 47.5741 16.2184 47.6794 16.1065 47.9163L14.7839 47.278C14.8958 47.0412 14.7971 46.7516 14.5602 46.6398C14.3233 46.5279 14.0338 46.6266 13.9154 46.8635C13.8496 47.0017 13.8562 47.1596 13.9154 47.2912C13.9351 47.3307 13.9549 47.3702 13.9878 47.4031H13.9483C13.7706 47.4031 13.5995 47.5018 13.5206 47.6728C13.4021 47.9097 13.5074 48.1992 13.7443 48.3177C13.9812 48.4361 14.2707 48.3308 14.3826 48.094L15.7051 48.7322C15.5933 48.9691 15.692 49.2586 15.9289 49.3705C16.1657 49.4824 16.4553 49.3837 16.5737 49.1468C16.6658 48.9559 16.6198 48.7388 16.4816 48.6006V48.6072Z" fill="#7AD6B4"/>
<path d="M31.629 55.845C31.8264 55.8648 32.0238 55.7595 32.1094 55.5687C32.2212 55.3318 32.1094 55.0357 31.8659 54.9304C31.6224 54.8251 31.3461 54.9304 31.2342 55.1673L29.8985 54.5619C30.0037 54.3185 29.8985 54.0421 29.6616 53.9302C29.4247 53.8184 29.1286 53.9302 29.0233 54.1737C28.9575 54.3185 28.9707 54.4764 29.0431 54.6014C29.0628 54.6409 29.0891 54.6804 29.1154 54.7133C29.1023 54.7133 29.0891 54.7133 29.076 54.7133C28.8983 54.7198 28.7338 54.8251 28.6548 54.9896C28.543 55.2265 28.6548 55.5226 28.8983 55.6279C29.1418 55.7332 29.4181 55.6279 29.53 55.391L30.8657 55.9964C30.7604 56.2398 30.8657 56.5162 31.1026 56.628C31.3395 56.7399 31.6356 56.628 31.7409 56.3846C31.8264 56.1938 31.7804 55.9766 31.6356 55.8384L31.629 55.845Z" fill="white"/>
<path d="M75.8334 45.4878C75.636 45.468 75.4386 45.5799 75.3531 45.7707C75.2412 46.0142 75.3531 46.2971 75.5965 46.409C75.84 46.5208 76.1229 46.409 76.2282 46.1721L77.5705 46.7709C77.4653 47.0143 77.5706 47.2973 77.814 47.4026C78.0575 47.5078 78.3404 47.4026 78.4523 47.1591C78.5181 47.0143 78.5049 46.8564 78.4325 46.7314C78.4128 46.6919 78.3865 46.6524 78.3602 46.6195H78.3996C78.5773 46.6195 78.7418 46.5077 78.8208 46.3366C78.9326 46.0931 78.8208 45.8102 78.5773 45.6983C78.3338 45.5865 78.0509 45.6983 77.9456 45.9352L76.6033 45.3364C76.7086 45.093 76.6033 44.81 76.3598 44.7048C76.1164 44.5995 75.8334 44.7048 75.7216 44.9482C75.636 45.139 75.6887 45.3562 75.8268 45.4944H75.8334V45.4878Z" fill="white"/>
<path d="M48.355 45.4888C48.4866 45.6401 48.6972 45.6993 48.8946 45.627C49.1446 45.5283 49.2631 45.2519 49.1709 45.0019C49.0788 44.7518 48.7959 44.6334 48.5524 44.7255L48.0194 43.3569C48.2629 43.2582 48.3879 42.9818 48.2892 42.7383C48.1905 42.4949 47.9141 42.3698 47.6641 42.462C47.5193 42.5212 47.4141 42.6396 47.3746 42.7778C47.3614 42.8173 47.3483 42.8634 47.3483 42.9094C47.3417 42.9028 47.3285 42.8897 47.3154 42.8831C47.1838 42.7647 46.9929 42.7186 46.8153 42.791C46.5652 42.8897 46.4468 43.166 46.5389 43.4161C46.631 43.6661 46.914 43.7846 47.1574 43.6924L47.6904 45.0611C47.447 45.1598 47.3219 45.4361 47.4206 45.6796C47.5193 45.9231 47.7957 46.0481 48.0457 45.956C48.2431 45.877 48.3616 45.6928 48.355 45.4888Z" fill="white"/>
<path d="M65.3978 57.4908C65.5755 57.583 65.7926 57.5632 65.9505 57.4185C66.1479 57.2408 66.1545 56.9315 65.9768 56.7407C65.7992 56.5499 65.4965 56.5367 65.2991 56.7078L64.2989 55.6287C64.4898 55.451 64.5029 55.1484 64.3253 54.951C64.1476 54.7536 63.8383 54.747 63.6475 54.9246C63.5291 55.0299 63.483 55.1813 63.4962 55.326C63.4962 55.3721 63.5027 55.4181 63.5159 55.4576C63.5027 55.4576 63.4896 55.4576 63.4764 55.4445C63.3119 55.3787 63.1145 55.4116 62.9763 55.5366C62.7789 55.7142 62.7724 56.0235 62.95 56.2143C63.1277 56.4051 63.4304 56.4183 63.6278 56.2472L64.6279 57.3263C64.4371 57.504 64.424 57.8067 64.6016 58.0041C64.7793 58.2015 65.0885 58.2081 65.2794 58.0304C65.4307 57.8856 65.4702 57.6685 65.3912 57.4843H65.3978V57.4908Z" fill="white"/>
<path d="M23.996 44.4415C23.996 44.2441 23.8578 44.0599 23.6604 44.0007C23.4104 43.9217 23.134 44.0599 23.055 44.3165C22.9761 44.5731 23.1143 44.8363 23.3643 44.9219L22.9169 46.3234C22.6668 46.2445 22.397 46.3892 22.3181 46.6393C22.2391 46.8893 22.3773 47.1657 22.6339 47.2446C22.7852 47.2907 22.9366 47.2644 23.055 47.1788C23.0945 47.1525 23.1274 47.1262 23.1603 47.0933C23.1603 47.1065 23.1603 47.1196 23.1603 47.1328C23.1866 47.3104 23.3117 47.4618 23.4893 47.521C23.7394 47.6 24.0157 47.4618 24.0947 47.2052C24.1736 46.9485 24.0355 46.6853 23.7854 46.5998L24.2329 45.1982C24.4829 45.2772 24.7527 45.1324 24.8316 44.8824C24.9106 44.6324 24.7724 44.356 24.5158 44.277C24.3184 44.2112 24.1078 44.2902 23.9894 44.4481L23.996 44.4415Z" fill="white"/>
<path d="M48.5126 55.4103C48.5126 55.2129 48.3744 55.0287 48.177 54.9694C47.927 54.8905 47.6506 55.0287 47.5716 55.2853C47.4927 55.5419 47.6309 55.8051 47.8809 55.8906L47.4335 57.2922C47.1834 57.2132 46.9136 57.358 46.8347 57.608C46.7557 57.8581 46.8939 58.1344 47.1505 58.2134C47.3019 58.2594 47.4532 58.2331 47.5716 58.1476C47.6111 58.1213 47.644 58.0949 47.6769 58.062C47.6769 58.0752 47.6769 58.0884 47.6835 58.1015C47.7098 58.2792 47.8348 58.4305 48.0125 58.4898C48.2625 58.5687 48.5389 58.4305 48.6179 58.1739C48.6968 57.9173 48.5586 57.6541 48.3086 57.5685L48.756 56.167C49.0061 56.246 49.2759 56.1012 49.3548 55.8512C49.4338 55.6011 49.2956 55.3248 49.039 55.2458C48.8416 55.18 48.631 55.259 48.5126 55.4169V55.4103Z" fill="white"/>
<path d="M82.9393 55.3458C82.9393 55.1484 82.8012 54.9642 82.6038 54.905C82.3537 54.826 82.0774 54.9642 81.9984 55.2208C81.9194 55.4774 82.0576 55.7406 82.3077 55.8262L81.8602 57.2277C81.6102 57.1488 81.3404 57.2935 81.2614 57.5436C81.1825 57.7936 81.3206 58.07 81.5773 58.1489C81.7286 58.195 81.88 58.1687 81.9984 58.0831C82.0379 58.0568 82.0708 58.0305 82.1037 57.9976C82.1037 58.0108 82.1037 58.0239 82.1037 58.0371C82.13 58.2147 82.255 58.3661 82.4327 58.4253C82.6827 58.5043 82.9591 58.3661 83.038 58.1095C83.117 57.8528 82.9788 57.5896 82.7288 57.5041L83.1762 56.1025C83.4263 56.1815 83.696 56.0367 83.775 55.7867C83.854 55.5367 83.7158 55.2603 83.4592 55.1813C83.2618 55.1155 83.0512 55.1945 82.9328 55.3524L82.9393 55.3458Z" fill="white"/>
<path d="M34.7603 45.9747C34.9577 46.0207 35.1683 45.9418 35.2736 45.7641C35.4183 45.5404 35.3525 45.2443 35.1288 45.0995C34.9051 44.9548 34.6156 45.0206 34.4708 45.2443L33.2272 44.4547C33.3719 44.231 33.2996 43.9349 33.0758 43.7967C32.8521 43.6585 32.556 43.7177 32.4113 43.9414C32.3257 44.073 32.3191 44.231 32.3652 44.3691C32.3784 44.4152 32.3981 44.4547 32.4178 44.4876C32.4047 44.4876 32.3915 44.4876 32.3784 44.4876C32.2073 44.4678 32.023 44.5468 31.9178 44.7047C31.773 44.9284 31.8388 45.2245 32.0625 45.3693C32.2862 45.5141 32.5758 45.4483 32.7205 45.2245L33.9641 46.0141C33.8194 46.2379 33.8918 46.534 34.1155 46.6722C34.3392 46.8103 34.6353 46.7511 34.7801 46.5274C34.8919 46.3497 34.8788 46.126 34.7472 45.9747H34.7603Z" fill="#7AD6B4"/>
<path d="M20.0212 56.0831C20.1528 55.9317 20.1791 55.708 20.0738 55.5303C19.9422 55.3 19.6461 55.2211 19.4158 55.3527C19.1855 55.4843 19.1065 55.7738 19.2381 56.0041L17.9616 56.7411C17.83 56.5108 17.5339 56.4384 17.3102 56.57C17.0865 56.7016 17.0009 56.9977 17.1325 57.228C17.2115 57.3662 17.3431 57.4451 17.4879 57.4649C17.5339 57.4649 17.58 57.478 17.6195 57.4649C17.6195 57.478 17.6063 57.4846 17.5997 57.4978C17.501 57.6425 17.4879 57.8399 17.58 58.0044C17.7116 58.2347 18.0077 58.3137 18.238 58.1821C18.4683 58.0505 18.5472 57.761 18.4156 57.5307L19.6922 56.7937C19.8238 57.024 20.1199 57.0964 20.3436 56.9648C20.5673 56.8332 20.6528 56.5371 20.5212 56.3068C20.416 56.1226 20.212 56.037 20.0146 56.0765L20.0212 56.0831Z" fill="#7AD6B4"/>
<path d="M55.9089 50.3391C55.8299 50.1548 55.6457 50.0298 55.4351 50.043C55.1719 50.0627 54.9679 50.2864 54.9876 50.5562C55.0074 50.826 55.2311 51.0234 55.4943 51.0036L55.5864 52.471C55.3232 52.4907 55.1258 52.7145 55.139 52.9777C55.1522 53.2409 55.3825 53.4448 55.6522 53.4251C55.8102 53.4251 55.9418 53.333 56.0207 53.208C56.047 53.1751 56.0668 53.1356 56.0865 53.0895C56.0865 53.1027 56.0997 53.1093 56.1063 53.1224C56.1918 53.2738 56.3629 53.379 56.5537 53.3659C56.8169 53.3461 57.0209 53.1224 57.0011 52.8526C56.9814 52.5829 56.7577 52.3855 56.4945 52.4052L56.4024 50.9378C56.6656 50.9181 56.863 50.6944 56.8498 50.4312C56.8366 50.168 56.6063 49.964 56.3366 49.9837C56.126 49.9969 55.9549 50.1417 55.9023 50.3325H55.9089V50.3391Z" fill="#7AD6B4"/>
<path d="M40.0252 53.325C39.9068 53.4895 39.9133 53.7133 40.0318 53.8843C40.1897 54.0949 40.4924 54.1475 40.7029 53.9896C40.9135 53.8317 40.9596 53.5356 40.8082 53.325L41.9992 52.4499C42.1571 52.6604 42.4532 52.7065 42.6638 52.5486C42.8743 52.3907 42.927 52.088 42.7691 51.8774C42.6769 51.7524 42.5322 51.6866 42.3874 51.68C42.3479 51.68 42.2953 51.68 42.2558 51.68L42.269 51.6471C42.3545 51.4892 42.3479 51.2918 42.2295 51.1405C42.0716 50.9299 41.7689 50.8773 41.5583 51.0352C41.3478 51.1931 41.3017 51.4892 41.4531 51.6998L40.2621 52.5749C40.1042 52.3643 39.8081 52.3183 39.5975 52.4762C39.3869 52.6341 39.3343 52.9368 39.4922 53.1474C39.6172 53.3185 39.8278 53.3843 40.0186 53.3185L40.0252 53.325Z" fill="#7AD6B4"/>
<path d="M71.9642 53.6257C71.8458 53.7837 71.8326 54.0074 71.9445 54.1785C72.0892 54.4022 72.3919 54.4614 72.6091 54.3166C72.8262 54.1719 72.892 53.8758 72.7472 53.6521L73.9777 52.8427C74.1225 53.0599 74.4186 53.1191 74.6423 52.9743C74.866 52.8296 74.9252 52.5269 74.7805 52.3097C74.6949 52.1781 74.5568 52.1058 74.412 52.0926H74.2804C74.2804 52.0926 74.2936 52.0663 74.3001 52.0597C74.3923 51.9084 74.3923 51.7109 74.287 51.553C74.1422 51.3293 73.8395 51.2701 73.6224 51.4148C73.4052 51.5596 73.3394 51.8557 73.4842 52.0794L72.2537 52.8888C72.109 52.6716 71.8129 52.6124 71.5892 52.7572C71.3654 52.9019 71.3062 53.2046 71.451 53.4218C71.5694 53.5994 71.7734 53.6718 71.9708 53.6257H71.9642Z" fill="#7AD6B4"/>
<path d="M61.6527 44.823C61.5343 44.9809 61.5211 45.2046 61.633 45.3757C61.7777 45.5994 62.0804 45.6587 62.2975 45.5139C62.5147 45.3691 62.5805 45.073 62.4357 44.8493L63.6662 44.04C63.811 44.2571 64.1071 44.3163 64.3308 44.1716C64.5545 44.0268 64.6137 43.7241 64.469 43.507C64.3834 43.3754 64.2452 43.303 64.1005 43.2899H63.9689C63.9689 43.2899 63.982 43.2635 63.9886 43.257C64.0807 43.1056 64.0807 42.9082 63.9755 42.7503C63.8307 42.5266 63.528 42.4674 63.3109 42.6121C63.0937 42.7569 63.0279 43.053 63.1727 43.2767L61.9422 44.086C61.7975 43.8689 61.5014 43.8097 61.2776 43.9544C61.0539 44.0992 60.9947 44.4019 61.1395 44.619C61.2579 44.7967 61.4619 44.8691 61.6593 44.823H61.6527Z" fill="#7AD6B4"/>
<path d="M87.184 47.2053C86.9931 47.2645 86.855 47.4356 86.8418 47.6461C86.8418 47.9093 87.0458 48.1331 87.3024 48.1396C87.559 48.1462 87.7827 47.9422 87.7959 47.679L89.2632 47.7317C89.2632 47.9949 89.4672 48.2186 89.7304 48.2252C89.9936 48.2318 90.2174 48.0212 90.2239 47.7646C90.2239 47.6067 90.1581 47.4685 90.0397 47.3764C90.0068 47.3435 89.9739 47.3171 89.9278 47.2974C89.941 47.2908 89.9476 47.2777 89.9607 47.2777C90.1252 47.2053 90.2371 47.0408 90.2502 46.8565C90.2502 46.5933 90.0463 46.3696 89.7896 46.363C89.533 46.3565 89.3093 46.5604 89.2961 46.8236L87.8288 46.771C87.8288 46.5078 87.6248 46.2841 87.3616 46.2775C87.0984 46.2709 86.8747 46.4815 86.8681 46.7381C86.855 46.9487 86.9866 47.1263 87.1774 47.2053H87.184Z" fill="#7AD6B4"/>
</g>
<mask id="mask1_3759_4991" style="mask-type:luminance" maskUnits="userSpaceOnUse" x="10" y="41" width="80" height="19">
<path d="M86.4205 55.6013L90 53.239L86.9337 49.9753L90 47.2775L86.5455 44.6916L88.7959 41.2305H10C11.5792 43.0926 13.4216 45.2509 13.4216 45.2509L10.0987 48.1724L13.5532 50.6465L10.0987 53.4562L14.0599 55.8184L10.4145 59.0755H89.8552L86.4205 55.5947V55.6013Z" fill="white"/>
</mask>
<g mask="url(#mask1_3759_4991)">
<path d="M86.4205 55.6013L90 53.239L86.9337 49.9753L90 47.2775L86.5455 44.6916L88.7959 41.2305H10C11.5792 43.0926 13.4216 45.2509 13.4216 45.2509L10.0987 48.1724L13.5532 50.6465L10.0987 53.4562L14.0599 55.8184L10.4145 59.0755H89.8552L86.4205 55.5947V55.6013Z" fill="#A8EABD"/>
<path d="M16.4816 48.6072C16.679 48.6269 16.8764 48.5282 16.9685 48.3374C17.0869 48.1005 16.9817 47.811 16.7448 47.6926C16.5079 47.5741 16.2184 47.6794 16.1065 47.9163L14.7839 47.278C14.8958 47.0412 14.7971 46.7516 14.5602 46.6398C14.3233 46.5279 14.0338 46.6266 13.9154 46.8635C13.8496 47.0017 13.8562 47.1596 13.9154 47.2912C13.9351 47.3307 13.9549 47.3702 13.9878 47.4031H13.9483C13.7706 47.4031 13.5995 47.5018 13.5206 47.6728C13.4021 47.9097 13.5074 48.1992 13.7443 48.3177C13.9812 48.4361 14.2707 48.3308 14.3826 48.094L15.7051 48.7322C15.5933 48.9691 15.692 49.2586 15.9289 49.3705C16.1657 49.4824 16.4553 49.3837 16.5737 49.1468C16.6658 48.9559 16.6198 48.7388 16.4816 48.6006V48.6072Z" fill="#7AD6B4"/>
<path d="M31.629 55.845C31.8264 55.8648 32.0238 55.7595 32.1094 55.5687C32.2212 55.3318 32.1094 55.0357 31.8659 54.9304C31.6224 54.8251 31.3461 54.9304 31.2342 55.1673L29.8985 54.5619C30.0037 54.3185 29.8985 54.0421 29.6616 53.9302C29.4247 53.8184 29.1286 53.9302 29.0233 54.1737C28.9575 54.3185 28.9707 54.4764 29.0431 54.6014C29.0628 54.6409 29.0891 54.6804 29.1154 54.7133C29.1023 54.7133 29.0891 54.7133 29.076 54.7133C28.8983 54.7198 28.7338 54.8251 28.6548 54.9896C28.543 55.2265 28.6548 55.5226 28.8983 55.6279C29.1418 55.7332 29.4181 55.6279 29.53 55.391L30.8657 55.9964C30.7604 56.2398 30.8657 56.5162 31.1026 56.628C31.3395 56.7399 31.6356 56.628 31.7409 56.3846C31.8264 56.1938 31.7804 55.9766 31.6356 55.8384L31.629 55.845Z" fill="white"/>
<path d="M75.8334 45.4878C75.636 45.468 75.4386 45.5799 75.3531 45.7707C75.2412 46.0142 75.3531 46.2971 75.5965 46.409C75.84 46.5208 76.1229 46.409 76.2282 46.1721L77.5705 46.7709C77.4653 47.0143 77.5706 47.2973 77.814 47.4026C78.0575 47.5078 78.3404 47.4026 78.4523 47.1591C78.5181 47.0143 78.5049 46.8564 78.4325 46.7314C78.4128 46.6919 78.3865 46.6524 78.3602 46.6195H78.3996C78.5773 46.6195 78.7418 46.5077 78.8208 46.3366C78.9326 46.0931 78.8208 45.8102 78.5773 45.6983C78.3338 45.5865 78.0509 45.6983 77.9456 45.9352L76.6033 45.3364C76.7086 45.093 76.6033 44.81 76.3598 44.7048C76.1164 44.5995 75.8334 44.7048 75.7216 44.9482C75.636 45.139 75.6887 45.3562 75.8268 45.4944H75.8334V45.4878Z" fill="white"/>
<path d="M48.355 45.4888C48.4866 45.6401 48.6972 45.6993 48.8946 45.627C49.1446 45.5283 49.2631 45.2519 49.1709 45.0019C49.0788 44.7518 48.7959 44.6334 48.5524 44.7255L48.0194 43.3569C48.2629 43.2582 48.3879 42.9818 48.2892 42.7383C48.1905 42.4949 47.9141 42.3698 47.6641 42.462C47.5193 42.5212 47.4141 42.6396 47.3746 42.7778C47.3614 42.8173 47.3483 42.8634 47.3483 42.9094C47.3417 42.9028 47.3285 42.8897 47.3154 42.8831C47.1838 42.7647 46.9929 42.7186 46.8153 42.791C46.5652 42.8897 46.4468 43.166 46.5389 43.4161C46.631 43.6661 46.914 43.7846 47.1574 43.6924L47.6904 45.0611C47.447 45.1598 47.3219 45.4361 47.4206 45.6796C47.5193 45.9231 47.7957 46.0481 48.0457 45.956C48.2431 45.877 48.3616 45.6928 48.355 45.4888Z" fill="white"/>
<path d="M65.3978 57.4908C65.5755 57.583 65.7926 57.5632 65.9505 57.4185C66.1479 57.2408 66.1545 56.9315 65.9768 56.7407C65.7992 56.5499 65.4965 56.5367 65.2991 56.7078L64.2989 55.6287C64.4898 55.451 64.5029 55.1484 64.3253 54.951C64.1476 54.7536 63.8383 54.747 63.6475 54.9246C63.5291 55.0299 63.483 55.1813 63.4962 55.326C63.4962 55.3721 63.5027 55.4181 63.5159 55.4576C63.5027 55.4576 63.4896 55.4576 63.4764 55.4445C63.3119 55.3787 63.1145 55.4116 62.9763 55.5366C62.7789 55.7142 62.7724 56.0235 62.95 56.2143C63.1277 56.4051 63.4304 56.4183 63.6278 56.2472L64.6279 57.3263C64.4371 57.504 64.424 57.8067 64.6016 58.0041C64.7793 58.2015 65.0885 58.2081 65.2794 58.0304C65.4307 57.8856 65.4702 57.6685 65.3912 57.4843H65.3978V57.4908Z" fill="white"/>
<path d="M23.996 44.4415C23.996 44.2441 23.8578 44.0599 23.6604 44.0007C23.4104 43.9217 23.134 44.0599 23.055 44.3165C22.9761 44.5731 23.1143 44.8363 23.3643 44.9219L22.9169 46.3234C22.6668 46.2445 22.397 46.3892 22.3181 46.6393C22.2391 46.8893 22.3773 47.1657 22.6339 47.2446C22.7852 47.2907 22.9366 47.2644 23.055 47.1788C23.0945 47.1525 23.1274 47.1262 23.1603 47.0933C23.1603 47.1065 23.1603 47.1196 23.1603 47.1328C23.1866 47.3104 23.3117 47.4618 23.4893 47.521C23.7394 47.6 24.0157 47.4618 24.0947 47.2052C24.1736 46.9485 24.0355 46.6853 23.7854 46.5998L24.2329 45.1982C24.4829 45.2772 24.7527 45.1324 24.8316 44.8824C24.9106 44.6324 24.7724 44.356 24.5158 44.277C24.3184 44.2112 24.1078 44.2902 23.9894 44.4481L23.996 44.4415Z" fill="white"/>
<path d="M48.5126 55.4103C48.5126 55.2129 48.3744 55.0287 48.177 54.9694C47.927 54.8905 47.6506 55.0287 47.5716 55.2853C47.4927 55.5419 47.6309 55.8051 47.8809 55.8906L47.4335 57.2922C47.1834 57.2132 46.9136 57.358 46.8347 57.608C46.7557 57.8581 46.8939 58.1344 47.1505 58.2134C47.3019 58.2594 47.4532 58.2331 47.5716 58.1476C47.6111 58.1213 47.644 58.0949 47.6769 58.062C47.6769 58.0752 47.6769 58.0884 47.6835 58.1015C47.7098 58.2792 47.8348 58.4305 48.0125 58.4898C48.2625 58.5687 48.5389 58.4305 48.6179 58.1739C48.6968 57.9173 48.5586 57.6541 48.3086 57.5685L48.756 56.167C49.0061 56.246 49.2759 56.1012 49.3548 55.8512C49.4338 55.6011 49.2956 55.3248 49.039 55.2458C48.8416 55.18 48.631 55.259 48.5126 55.4169V55.4103Z" fill="white"/>
<path d="M82.9393 55.3458C82.9393 55.1484 82.8012 54.9642 82.6038 54.905C82.3537 54.826 82.0774 54.9642 81.9984 55.2208C81.9194 55.4774 82.0576 55.7406 82.3077 55.8262L81.8602 57.2277C81.6102 57.1488 81.3404 57.2935 81.2614 57.5436C81.1825 57.7936 81.3206 58.07 81.5773 58.1489C81.7286 58.195 81.88 58.1687 81.9984 58.0831C82.0379 58.0568 82.0708 58.0305 82.1037 57.9976C82.1037 58.0108 82.1037 58.0239 82.1037 58.0371C82.13 58.2147 82.255 58.3661 82.4327 58.4253C82.6827 58.5043 82.9591 58.3661 83.038 58.1095C83.117 57.8528 82.9788 57.5896 82.7288 57.5041L83.1762 56.1025C83.4263 56.1815 83.696 56.0367 83.775 55.7867C83.854 55.5367 83.7158 55.2603 83.4592 55.1813C83.2618 55.1155 83.0512 55.1945 82.9328 55.3524L82.9393 55.3458Z" fill="white"/>
<path d="M34.7603 45.9747C34.9577 46.0207 35.1683 45.9418 35.2736 45.7641C35.4183 45.5404 35.3525 45.2443 35.1288 45.0995C34.9051 44.9548 34.6156 45.0206 34.4708 45.2443L33.2272 44.4547C33.3719 44.231 33.2996 43.9349 33.0758 43.7967C32.8521 43.6585 32.556 43.7177 32.4113 43.9414C32.3257 44.073 32.3191 44.231 32.3652 44.3691C32.3784 44.4152 32.3981 44.4547 32.4178 44.4876C32.4047 44.4876 32.3915 44.4876 32.3784 44.4876C32.2073 44.4678 32.023 44.5468 31.9178 44.7047C31.773 44.9284 31.8388 45.2245 32.0625 45.3693C32.2862 45.5141 32.5758 45.4483 32.7205 45.2245L33.9641 46.0141C33.8194 46.2379 33.8918 46.534 34.1155 46.6722C34.3392 46.8103 34.6353 46.7511 34.7801 46.5274C34.8919 46.3497 34.8788 46.126 34.7472 45.9747H34.7603Z" fill="#7AD6B4"/>
<path d="M20.0212 56.0831C20.1528 55.9317 20.1791 55.708 20.0738 55.5303C19.9422 55.3 19.6461 55.2211 19.4158 55.3527C19.1855 55.4843 19.1065 55.7738 19.2381 56.0041L17.9616 56.7411C17.83 56.5108 17.5339 56.4384 17.3102 56.57C17.0865 56.7016 17.0009 56.9977 17.1325 57.228C17.2115 57.3662 17.3431 57.4451 17.4879 57.4649C17.5339 57.4649 17.58 57.478 17.6195 57.4649C17.6195 57.478 17.6063 57.4846 17.5997 57.4978C17.501 57.6425 17.4879 57.8399 17.58 58.0044C17.7116 58.2347 18.0077 58.3137 18.238 58.1821C18.4683 58.0505 18.5472 57.761 18.4156 57.5307L19.6922 56.7937C19.8238 57.024 20.1199 57.0964 20.3436 56.9648C20.5673 56.8332 20.6528 56.5371 20.5212 56.3068C20.416 56.1226 20.212 56.037 20.0146 56.0765L20.0212 56.0831Z" fill="#7AD6B4"/>
<path d="M55.9089 50.3391C55.8299 50.1548 55.6457 50.0298 55.4351 50.043C55.1719 50.0627 54.9679 50.2864 54.9876 50.5562C55.0074 50.826 55.2311 51.0234 55.4943 51.0036L55.5864 52.471C55.3232 52.4907 55.1258 52.7145 55.139 52.9777C55.1522 53.2409 55.3825 53.4448 55.6522 53.4251C55.8102 53.4251 55.9418 53.333 56.0207 53.208C56.047 53.1751 56.0668 53.1356 56.0865 53.0895C56.0865 53.1027 56.0997 53.1093 56.1063 53.1224C56.1918 53.2738 56.3629 53.379 56.5537 53.3659C56.8169 53.3461 57.0209 53.1224 57.0011 52.8526C56.9814 52.5829 56.7577 52.3855 56.4945 52.4052L56.4024 50.9378C56.6656 50.9181 56.863 50.6944 56.8498 50.4312C56.8366 50.168 56.6063 49.964 56.3366 49.9837C56.126 49.9969 55.9549 50.1417 55.9023 50.3325H55.9089V50.3391Z" fill="#7AD6B4"/>
<path d="M40.0252 53.325C39.9068 53.4895 39.9133 53.7133 40.0318 53.8843C40.1897 54.0949 40.4924 54.1475 40.7029 53.9896C40.9135 53.8317 40.9596 53.5356 40.8082 53.325L41.9992 52.4499C42.1571 52.6604 42.4532 52.7065 42.6638 52.5486C42.8743 52.3907 42.927 52.088 42.7691 51.8774C42.6769 51.7524 42.5322 51.6866 42.3874 51.68C42.3479 51.68 42.2953 51.68 42.2558 51.68L42.269 51.6471C42.3545 51.4892 42.3479 51.2918 42.2295 51.1405C42.0716 50.9299 41.7689 50.8773 41.5583 51.0352C41.3478 51.1931 41.3017 51.4892 41.4531 51.6998L40.2621 52.5749C40.1042 52.3643 39.8081 52.3183 39.5975 52.4762C39.3869 52.6341 39.3343 52.9368 39.4922 53.1474C39.6172 53.3185 39.8278 53.3843 40.0186 53.3185L40.0252 53.325Z" fill="#7AD6B4"/>
<path d="M71.9642 53.6257C71.8458 53.7837 71.8326 54.0074 71.9445 54.1785C72.0892 54.4022 72.3919 54.4614 72.6091 54.3166C72.8262 54.1719 72.892 53.8758 72.7472 53.6521L73.9777 52.8427C74.1225 53.0599 74.4186 53.1191 74.6423 52.9743C74.866 52.8296 74.9252 52.5269 74.7805 52.3097C74.6949 52.1781 74.5568 52.1058 74.412 52.0926H74.2804C74.2804 52.0926 74.2936 52.0663 74.3001 52.0597C74.3923 51.9084 74.3923 51.7109 74.287 51.553C74.1422 51.3293 73.8395 51.2701 73.6224 51.4148C73.4052 51.5596 73.3394 51.8557 73.4842 52.0794L72.2537 52.8888C72.109 52.6716 71.8129 52.6124 71.5892 52.7572C71.3654 52.9019 71.3062 53.2046 71.451 53.4218C71.5694 53.5994 71.7734 53.6718 71.9708 53.6257H71.9642Z" fill="#7AD6B4"/>
<path d="M61.6527 44.823C61.5343 44.9809 61.5211 45.2046 61.633 45.3757C61.7777 45.5994 62.0804 45.6587 62.2975 45.5139C62.5147 45.3691 62.5805 45.073 62.4357 44.8493L63.6662 44.04C63.811 44.2571 64.1071 44.3163 64.3308 44.1716C64.5545 44.0268 64.6137 43.7241 64.469 43.507C64.3834 43.3754 64.2452 43.303 64.1005 43.2899H63.9689C63.9689 43.2899 63.982 43.2635 63.9886 43.257C64.0807 43.1056 64.0807 42.9082 63.9755 42.7503C63.8307 42.5266 63.528 42.4674 63.3109 42.6121C63.0937 42.7569 63.0279 43.053 63.1727 43.2767L61.9422 44.086C61.7975 43.8689 61.5014 43.8097 61.2776 43.9544C61.0539 44.0992 60.9947 44.4019 61.1395 44.619C61.2579 44.7967 61.4619 44.8691 61.6593 44.823H61.6527Z" fill="#7AD6B4"/>
<path d="M87.184 47.2053C86.9931 47.2645 86.855 47.4356 86.8418 47.6461C86.8418 47.9093 87.0458 48.1331 87.3024 48.1396C87.559 48.1462 87.7827 47.9422 87.7959 47.679L89.2632 47.7317C89.2632 47.9949 89.4672 48.2186 89.7304 48.2252C89.9936 48.2318 90.2174 48.0212 90.2239 47.7646C90.2239 47.6067 90.1581 47.4685 90.0397 47.3764C90.0068 47.3435 89.9739 47.3171 89.9278 47.2974C89.941 47.2908 89.9476 47.2777 89.9607 47.2777C90.1252 47.2053 90.2371 47.0408 90.2502 46.8565C90.2502 46.5933 90.0463 46.3696 89.7896 46.363C89.533 46.3565 89.3093 46.5604 89.2961 46.8236L87.8288 46.771C87.8288 46.5078 87.6248 46.2841 87.3616 46.2775C87.0984 46.2709 86.8747 46.4815 86.8681 46.7381C86.855 46.9487 86.9866 47.1263 87.1774 47.2053H87.184Z" fill="#7AD6B4"/>
</g>
<mask id="mask2_3759_4991" style="mask-type:luminance" maskUnits="userSpaceOnUse" x="10" y="41" width="80" height="18">
<path d="M86.4205 55.3708L90 53.0086L86.9337 49.7449L90 47.047L86.5455 44.4611L88.7959 41H10C11.5792 42.8621 13.4216 45.0204 13.4216 45.0204L10.0987 47.9419L13.5532 50.416L10.0987 53.2257L14.0599 55.5879L10.4145 58.845H89.8552L86.4205 55.3642V55.3708Z" fill="white"/>
</mask>
<g mask="url(#mask2_3759_4991)">
<path d="M86.4205 55.3708L90 53.0086L86.9337 49.7449L90 47.047L86.5455 44.4611L88.7959 41H10C11.5792 42.8621 13.4216 45.0204 13.4216 45.0204L10.0987 47.9419L13.5532 50.416L10.0987 53.2257L14.0599 55.5879L10.4145 58.845H89.8552L86.4205 55.3642V55.3708Z" fill="#A8EABD"/>
<path d="M16.4816 48.3767C16.679 48.3965 16.8764 48.2978 16.9685 48.107C17.0869 47.8701 16.9817 47.5806 16.7448 47.4621C16.5079 47.3437 16.2184 47.449 16.1065 47.6858L14.7839 47.0476C14.8958 46.8107 14.7971 46.5212 14.5602 46.4093C14.3233 46.2974 14.0338 46.3961 13.9154 46.633C13.8496 46.7712 13.8562 46.9291 13.9154 47.0607C13.9351 47.1002 13.9549 47.1397 13.9878 47.1726H13.9483C13.7706 47.1726 13.5995 47.2713 13.5206 47.4424C13.4021 47.6793 13.5074 47.9688 13.7443 48.0872C13.9812 48.2057 14.2707 48.1004 14.3826 47.8635L15.7051 48.5018C15.5933 48.7386 15.692 49.0282 15.9289 49.14C16.1657 49.2519 16.4553 49.1532 16.5737 48.9163C16.6658 48.7255 16.6198 48.5083 16.4816 48.3702V48.3767Z" fill="#7AD6B4"/>
<path d="M31.629 55.6145C31.8264 55.6343 32.0238 55.529 32.1094 55.3382C32.2212 55.1013 32.1094 54.8052 31.8659 54.6999C31.6224 54.5946 31.3461 54.6999 31.2342 54.9368L29.8985 54.3314C30.0037 54.088 29.8985 53.8116 29.6616 53.6998C29.4247 53.5879 29.1286 53.6998 29.0233 53.9432C28.9575 54.088 28.9707 54.2459 29.0431 54.3709C29.0628 54.4104 29.0891 54.4499 29.1154 54.4828C29.1023 54.4828 29.0891 54.4828 29.076 54.4828C28.8983 54.4894 28.7338 54.5946 28.6548 54.7591C28.543 54.996 28.6548 55.2921 28.8983 55.3974C29.1418 55.5027 29.4181 55.3974 29.53 55.1605L30.8657 55.7659C30.7604 56.0094 30.8657 56.2857 31.1026 56.3976C31.3395 56.5094 31.6356 56.3976 31.7409 56.1541C31.8264 55.9633 31.7804 55.7461 31.6356 55.608L31.629 55.6145Z" fill="white"/>
<path d="M75.8334 45.2573C75.636 45.2376 75.4386 45.3494 75.3531 45.5402C75.2412 45.7837 75.3531 46.0667 75.5965 46.1785C75.84 46.2904 76.1229 46.1785 76.2282 45.9416L77.5705 46.5404C77.4653 46.7839 77.5706 47.0668 77.814 47.1721C78.0575 47.2774 78.3404 47.1721 78.4523 46.9286C78.5181 46.7839 78.5049 46.626 78.4325 46.5009C78.4128 46.4615 78.3865 46.422 78.3602 46.3891H78.3996C78.5773 46.3891 78.7418 46.2772 78.8208 46.1061C78.9326 45.8627 78.8208 45.5797 78.5773 45.4679C78.3338 45.356 78.0509 45.4679 77.9456 45.7047L76.6033 45.106C76.7086 44.8625 76.6033 44.5796 76.3598 44.4743C76.1164 44.369 75.8334 44.4743 75.7216 44.7177C75.636 44.9086 75.6887 45.1257 75.8268 45.2639H75.8334V45.2573Z" fill="white"/>
<path d="M48.355 45.2583C48.4866 45.4097 48.6972 45.4689 48.8946 45.3965C49.1446 45.2978 49.2631 45.0214 49.1709 44.7714C49.0788 44.5214 48.7959 44.4029 48.5524 44.495L48.0194 43.1264C48.2629 43.0277 48.3879 42.7513 48.2892 42.5079C48.1905 42.2644 47.9141 42.1394 47.6641 42.2315C47.5193 42.2907 47.4141 42.4092 47.3746 42.5473C47.3614 42.5868 47.3483 42.6329 47.3483 42.6789C47.3417 42.6724 47.3285 42.6592 47.3154 42.6526C47.1838 42.5342 46.9929 42.4881 46.8153 42.5605C46.5652 42.6592 46.4468 42.9356 46.5389 43.1856C46.631 43.4356 46.914 43.5541 47.1574 43.462L47.6904 44.8306C47.447 44.9293 47.3219 45.2057 47.4206 45.4491C47.5193 45.6926 47.7957 45.8176 48.0457 45.7255C48.2431 45.6465 48.3616 45.4623 48.355 45.2583Z" fill="white"/>
<path d="M65.3978 57.2604C65.5755 57.3525 65.7926 57.3328 65.9505 57.188C66.1479 57.0103 66.1545 56.7011 65.9768 56.5103C65.7992 56.3194 65.4965 56.3063 65.2991 56.4774L64.2989 55.3982C64.4898 55.2206 64.5029 54.9179 64.3253 54.7205C64.1476 54.5231 63.8383 54.5165 63.6475 54.6942C63.5291 54.7994 63.483 54.9508 63.4962 55.0955C63.4962 55.1416 63.5027 55.1877 63.5159 55.2271C63.5027 55.2271 63.4896 55.2271 63.4764 55.214C63.3119 55.1482 63.1145 55.1811 62.9763 55.3061C62.7789 55.4838 62.7724 55.793 62.95 55.9839C63.1277 56.1747 63.4304 56.1878 63.6278 56.0168L64.6279 57.0959C64.4371 57.2735 64.424 57.5762 64.6016 57.7736C64.7793 57.971 65.0885 57.9776 65.2794 57.7999C65.4307 57.6552 65.4702 57.438 65.3912 57.2538H65.3978V57.2604Z" fill="white"/>
<path d="M23.996 44.2111C23.996 44.0137 23.8578 43.8294 23.6604 43.7702C23.4104 43.6913 23.134 43.8294 23.055 44.0861C22.9761 44.3427 23.1143 44.6059 23.3643 44.6914L22.9169 46.093C22.6668 46.014 22.397 46.1588 22.3181 46.4088C22.2391 46.6588 22.3773 46.9352 22.6339 47.0142C22.7852 47.0602 22.9366 47.0339 23.055 46.9484C23.0945 46.922 23.1274 46.8957 23.1603 46.8628C23.1603 46.876 23.1603 46.8891 23.1603 46.9023C23.1866 47.08 23.3117 47.2313 23.4893 47.2905C23.7394 47.3695 24.0157 47.2313 24.0947 46.9747C24.1736 46.7181 24.0355 46.4549 23.7854 46.3693L24.2329 44.9678C24.4829 45.0467 24.7527 44.902 24.8316 44.6519C24.9106 44.4019 24.7724 44.1255 24.5158 44.0466C24.3184 43.9808 24.1078 44.0597 23.9894 44.2177L23.996 44.2111Z" fill="white"/>
<path d="M48.5126 55.1798C48.5126 54.9824 48.3744 54.7982 48.177 54.739C47.927 54.66 47.6506 54.7982 47.5716 55.0548C47.4927 55.3114 47.6309 55.5746 47.8809 55.6602L47.4335 57.0617C47.1834 56.9828 46.9136 57.1275 46.8347 57.3776C46.7557 57.6276 46.8939 57.904 47.1505 57.9829C47.3019 58.029 47.4532 58.0027 47.5716 57.9171C47.6111 57.8908 47.644 57.8645 47.6769 57.8316C47.6769 57.8447 47.6769 57.8579 47.6835 57.8711C47.7098 58.0487 47.8348 58.2001 48.0125 58.2593C48.2625 58.3382 48.5389 58.2001 48.6179 57.9434C48.6968 57.6868 48.5586 57.4236 48.3086 57.3381L48.756 55.9365C49.0061 56.0155 49.2759 55.8707 49.3548 55.6207C49.4338 55.3706 49.2956 55.0943 49.039 55.0153C48.8416 54.9495 48.631 55.0285 48.5126 55.1864V55.1798Z" fill="white"/>
<path d="M82.9393 55.1154C82.9393 54.918 82.8012 54.7337 82.6038 54.6745C82.3537 54.5956 82.0774 54.7337 81.9984 54.9904C81.9194 55.247 82.0576 55.5102 82.3077 55.5957L81.8602 56.9973C81.6102 56.9183 81.3404 57.0631 81.2614 57.3131C81.1825 57.5631 81.3206 57.8395 81.5773 57.9185C81.7286 57.9645 81.88 57.9382 81.9984 57.8527C82.0379 57.8263 82.0708 57.8 82.1037 57.7671C82.1037 57.7803 82.1037 57.7934 82.1037 57.8066C82.13 57.9843 82.255 58.1356 82.4327 58.1948C82.6827 58.2738 82.9591 58.1356 83.038 57.879C83.117 57.6224 82.9788 57.3592 82.7288 57.2736L83.1762 55.8721C83.4263 55.951 83.696 55.8063 83.775 55.5562C83.854 55.3062 83.7158 55.0298 83.4592 54.9509C83.2618 54.8851 83.0512 54.964 82.9328 55.122L82.9393 55.1154Z" fill="white"/>
<path d="M34.7603 45.7442C34.9577 45.7903 35.1683 45.7113 35.2736 45.5336C35.4183 45.3099 35.3525 45.0138 35.1288 44.8691C34.9051 44.7243 34.6156 44.7901 34.4708 45.0138L33.2272 44.2242C33.3719 44.0005 33.2996 43.7044 33.0758 43.5662C32.8521 43.428 32.556 43.4872 32.4113 43.711C32.3257 43.8426 32.3191 44.0005 32.3652 44.1387C32.3784 44.1847 32.3981 44.2242 32.4178 44.2571C32.4047 44.2571 32.3915 44.2571 32.3784 44.2571C32.2073 44.2374 32.023 44.3163 31.9178 44.4743C31.773 44.698 31.8388 44.9941 32.0625 45.1388C32.2862 45.2836 32.5758 45.2178 32.7205 44.9941L33.9641 45.7837C33.8194 46.0074 33.8918 46.3035 34.1155 46.4417C34.3392 46.5799 34.6353 46.5206 34.7801 46.2969C34.8919 46.1193 34.8788 45.8955 34.7472 45.7442H34.7603Z" fill="#7AD6B4"/>
<path d="M20.0212 55.8526C20.1528 55.7013 20.1791 55.4775 20.0738 55.2999C19.9422 55.0696 19.6461 54.9906 19.4158 55.1222C19.1855 55.2538 19.1065 55.5433 19.2381 55.7736L17.9616 56.5106C17.83 56.2803 17.5339 56.2079 17.3102 56.3395C17.0865 56.4711 17.0009 56.7672 17.1325 56.9975C17.2115 57.1357 17.3431 57.2147 17.4879 57.2344C17.5339 57.2344 17.58 57.2476 17.6195 57.2344C17.6195 57.2476 17.6063 57.2541 17.5997 57.2673C17.501 57.4121 17.4879 57.6095 17.58 57.774C17.7116 58.0043 18.0077 58.0832 18.238 57.9516C18.4683 57.82 18.5472 57.5305 18.4156 57.3002L19.6922 56.5632C19.8238 56.7935 20.1199 56.8659 20.3436 56.7343C20.5673 56.6027 20.6528 56.3066 20.5212 56.0763C20.416 55.8921 20.212 55.8065 20.0146 55.846L20.0212 55.8526Z" fill="#7AD6B4"/>
<path d="M55.9089 50.1086C55.8299 49.9244 55.6457 49.7993 55.4351 49.8125C55.1719 49.8322 54.9679 50.056 54.9876 50.3257C55.0074 50.5955 55.2311 50.7929 55.4943 50.7732L55.5864 52.2405C55.3232 52.2603 55.1258 52.484 55.139 52.7472C55.1522 53.0104 55.3825 53.2144 55.6522 53.1946C55.8102 53.1946 55.9418 53.1025 56.0207 52.9775C56.047 52.9446 56.0668 52.9051 56.0865 52.859C56.0865 52.8722 56.0997 52.8788 56.1063 52.8919C56.1918 53.0433 56.3629 53.1486 56.5537 53.1354C56.8169 53.1157 57.0209 52.8919 57.0011 52.6222C56.9814 52.3524 56.7577 52.155 56.4945 52.1747L56.4024 50.7074C56.6656 50.6876 56.863 50.4639 56.8498 50.2007C56.8366 49.9375 56.6063 49.7335 56.3366 49.7533C56.126 49.7664 55.9549 49.9112 55.9023 50.102H55.9089V50.1086Z" fill="#7AD6B4"/>
<path d="M40.0252 53.0946C39.9068 53.2591 39.9133 53.4828 40.0318 53.6539C40.1897 53.8644 40.4924 53.9171 40.7029 53.7591C40.9135 53.6012 40.9596 53.3051 40.8082 53.0946L41.9992 52.2194C42.1571 52.43 42.4532 52.476 42.6638 52.3181C42.8743 52.1602 42.927 51.8575 42.7691 51.647C42.6769 51.5219 42.5322 51.4561 42.3874 51.4496C42.3479 51.4496 42.2953 51.4496 42.2558 51.4496L42.269 51.4167C42.3545 51.2587 42.3479 51.0613 42.2295 50.91C42.0716 50.6994 41.7689 50.6468 41.5583 50.8047C41.3478 50.9626 41.3017 51.2587 41.4531 51.4693L40.2621 52.3444C40.1042 52.1339 39.8081 52.0878 39.5975 52.2457C39.3869 52.4037 39.3343 52.7063 39.4922 52.9169C39.6172 53.088 39.8278 53.1538 40.0186 53.088L40.0252 53.0946Z" fill="#7AD6B4"/>
<path d="M71.9642 53.3953C71.8458 53.5532 71.8326 53.7769 71.9445 53.948C72.0892 54.1717 72.3919 54.2309 72.6091 54.0862C72.8262 53.9414 72.892 53.6453 72.7472 53.4216L73.9777 52.6122C74.1225 52.8294 74.4186 52.8886 74.6423 52.7438C74.866 52.5991 74.9252 52.2964 74.7805 52.0793C74.6949 51.9477 74.5568 51.8753 74.412 51.8621H74.2804C74.2804 51.8621 74.2936 51.8358 74.3001 51.8292C74.3923 51.6779 74.3923 51.4805 74.287 51.3226C74.1422 51.0988 73.8395 51.0396 73.6224 51.1844C73.4052 51.3291 73.3394 51.6252 73.4842 51.849L72.2537 52.6583C72.109 52.4412 71.8129 52.3819 71.5892 52.5267C71.3654 52.6715 71.3062 52.9741 71.451 53.1913C71.5694 53.3689 71.7734 53.4413 71.9708 53.3953H71.9642Z" fill="#7AD6B4"/>
<path d="M61.6527 44.5925C61.5343 44.7505 61.5211 44.9742 61.633 45.1453C61.7777 45.369 62.0804 45.4282 62.2975 45.2834C62.5147 45.1387 62.5805 44.8426 62.4357 44.6189L63.6662 43.8095C63.811 44.0267 64.1071 44.0859 64.3308 43.9411C64.5545 43.7964 64.6137 43.4937 64.469 43.2765C64.3834 43.1449 64.2452 43.0725 64.1005 43.0594H63.9689C63.9689 43.0594 63.982 43.0331 63.9886 43.0265C64.0807 42.8751 64.0807 42.6777 63.9755 42.5198C63.8307 42.2961 63.528 42.2369 63.3109 42.3816C63.0937 42.5264 63.0279 42.8225 63.1727 43.0462L61.9422 43.8556C61.7975 43.6384 61.5014 43.5792 61.2776 43.724C61.0539 43.8687 60.9947 44.1714 61.1395 44.3886C61.2579 44.5662 61.4619 44.6386 61.6593 44.5925H61.6527Z" fill="#7AD6B4"/>
<path d="M87.184 46.9748C86.9931 47.034 86.855 47.2051 86.8418 47.4157C86.8418 47.6789 87.0458 47.9026 87.3024 47.9092C87.559 47.9158 87.7827 47.7118 87.7959 47.4486L89.2632 47.5012C89.2632 47.7644 89.4672 47.9881 89.7304 47.9947C89.9936 48.0013 90.2174 47.7907 90.2239 47.5341C90.2239 47.3762 90.1581 47.238 90.0397 47.1459C90.0068 47.113 89.9739 47.0867 89.9278 47.0669C89.941 47.0604 89.9476 47.0472 89.9607 47.0472C90.1252 46.9748 90.2371 46.8103 90.2502 46.6261C90.2502 46.3629 90.0463 46.1391 89.7896 46.1326C89.533 46.126 89.3093 46.33 89.2961 46.5932L87.8288 46.5405C87.8288 46.2773 87.6248 46.0536 87.3616 46.047C87.0984 46.0404 86.8747 46.251 86.8681 46.5076C86.855 46.7182 86.9866 46.8958 87.1774 46.9748H87.184Z" fill="#7AD6B4"/>
</g>
<mask id="mask3_3759_4991" style="mask-type:luminance" maskUnits="userSpaceOnUse" x="10" y="41" width="80" height="18">
<path d="M86.4205 55.3708L90 53.0086L86.9337 49.7449L90 47.047L86.5455 44.4611L88.7959 41H10C11.5792 42.8621 13.4216 45.0204 13.4216 45.0204L10.0987 47.9419L13.5532 50.416L10.0987 53.2257L14.0599 55.5879L10.4145 58.845H89.8552L86.4205 55.3642V55.3708Z" fill="white"/>
</mask>
<g mask="url(#mask3_3759_4991)">
<path d="M86.4205 55.3708L90 53.0086L86.9337 49.7449L90 47.047L86.5455 44.4611L88.7959 41H10C11.5792 42.8621 13.4216 45.0204 13.4216 45.0204L10.0987 47.9419L13.5532 50.416L10.0987 53.2257L14.0599 55.5879L10.4145 58.845H89.8552L86.4205 55.3642V55.3708Z" fill="#A8EABD"/>
<path d="M16.4816 48.3767C16.679 48.3965 16.8764 48.2978 16.9685 48.107C17.0869 47.8701 16.9817 47.5806 16.7448 47.4621C16.5079 47.3437 16.2184 47.449 16.1065 47.6858L14.7839 47.0476C14.8958 46.8107 14.7971 46.5212 14.5602 46.4093C14.3233 46.2974 14.0338 46.3961 13.9154 46.633C13.8496 46.7712 13.8562 46.9291 13.9154 47.0607C13.9351 47.1002 13.9549 47.1397 13.9878 47.1726H13.9483C13.7706 47.1726 13.5995 47.2713 13.5206 47.4424C13.4021 47.6793 13.5074 47.9688 13.7443 48.0872C13.9812 48.2057 14.2707 48.1004 14.3826 47.8635L15.7051 48.5018C15.5933 48.7386 15.692 49.0282 15.9289 49.14C16.1657 49.2519 16.4553 49.1532 16.5737 48.9163C16.6658 48.7255 16.6198 48.5083 16.4816 48.3702V48.3767Z" fill="#7AD6B4"/>
<path d="M31.629 55.6145C31.8264 55.6343 32.0238 55.529 32.1094 55.3382C32.2212 55.1013 32.1094 54.8052 31.8659 54.6999C31.6224 54.5946 31.3461 54.6999 31.2342 54.9368L29.8985 54.3314C30.0037 54.088 29.8985 53.8116 29.6616 53.6998C29.4247 53.5879 29.1286 53.6998 29.0233 53.9432C28.9575 54.088 28.9707 54.2459 29.0431 54.3709C29.0628 54.4104 29.0891 54.4499 29.1154 54.4828C29.1023 54.4828 29.0891 54.4828 29.076 54.4828C28.8983 54.4894 28.7338 54.5946 28.6548 54.7591C28.543 54.996 28.6548 55.2921 28.8983 55.3974C29.1418 55.5027 29.4181 55.3974 29.53 55.1605L30.8657 55.7659C30.7604 56.0094 30.8657 56.2857 31.1026 56.3976C31.3395 56.5094 31.6356 56.3976 31.7409 56.1541C31.8264 55.9633 31.7804 55.7461 31.6356 55.608L31.629 55.6145Z" fill="white"/>
<path d="M75.8334 45.2573C75.636 45.2376 75.4386 45.3494 75.3531 45.5402C75.2412 45.7837 75.3531 46.0667 75.5965 46.1785C75.84 46.2904 76.1229 46.1785 76.2282 45.9416L77.5705 46.5404C77.4653 46.7839 77.5706 47.0668 77.814 47.1721C78.0575 47.2774 78.3404 47.1721 78.4523 46.9286C78.5181 46.7839 78.5049 46.626 78.4325 46.5009C78.4128 46.4615 78.3865 46.422 78.3602 46.3891H78.3996C78.5773 46.3891 78.7418 46.2772 78.8208 46.1061C78.9326 45.8627 78.8208 45.5797 78.5773 45.4679C78.3338 45.356 78.0509 45.4679 77.9456 45.7047L76.6033 45.106C76.7086 44.8625 76.6033 44.5796 76.3598 44.4743C76.1164 44.369 75.8334 44.4743 75.7216 44.7177C75.636 44.9086 75.6887 45.1257 75.8268 45.2639H75.8334V45.2573Z" fill="white"/>
<path d="M48.355 45.2583C48.4866 45.4097 48.6972 45.4689 48.8946 45.3965C49.1446 45.2978 49.2631 45.0214 49.1709 44.7714C49.0788 44.5214 48.7959 44.4029 48.5524 44.495L48.0194 43.1264C48.2629 43.0277 48.3879 42.7513 48.2892 42.5079C48.1905 42.2644 47.9141 42.1394 47.6641 42.2315C47.5193 42.2907 47.4141 42.4092 47.3746 42.5473C47.3614 42.5868 47.3483 42.6329 47.3483 42.6789C47.3417 42.6724 47.3285 42.6592 47.3154 42.6526C47.1838 42.5342 46.9929 42.4881 46.8153 42.5605C46.5652 42.6592 46.4468 42.9356 46.5389 43.1856C46.631 43.4356 46.914 43.5541 47.1574 43.462L47.6904 44.8306C47.447 44.9293 47.3219 45.2057 47.4206 45.4491C47.5193 45.6926 47.7957 45.8176 48.0457 45.7255C48.2431 45.6465 48.3616 45.4623 48.355 45.2583Z" fill="white"/>
<path d="M65.3978 57.2604C65.5755 57.3525 65.7926 57.3328 65.9505 57.188C66.1479 57.0103 66.1545 56.7011 65.9768 56.5103C65.7992 56.3194 65.4965 56.3063 65.2991 56.4774L64.2989 55.3982C64.4898 55.2206 64.5029 54.9179 64.3253 54.7205C64.1476 54.5231 63.8383 54.5165 63.6475 54.6942C63.5291 54.7994 63.483 54.9508 63.4962 55.0955C63.4962 55.1416 63.5027 55.1877 63.5159 55.2271C63.5027 55.2271 63.4896 55.2271 63.4764 55.214C63.3119 55.1482 63.1145 55.1811 62.9763 55.3061C62.7789 55.4838 62.7724 55.793 62.95 55.9839C63.1277 56.1747 63.4304 56.1878 63.6278 56.0168L64.6279 57.0959C64.4371 57.2735 64.424 57.5762 64.6016 57.7736C64.7793 57.971 65.0885 57.9776 65.2794 57.7999C65.4307 57.6552 65.4702 57.438 65.3912 57.2538H65.3978V57.2604Z" fill="white"/>
<path d="M23.996 44.2111C23.996 44.0137 23.8578 43.8294 23.6604 43.7702C23.4104 43.6913 23.134 43.8294 23.055 44.0861C22.9761 44.3427 23.1143 44.6059 23.3643 44.6914L22.9169 46.093C22.6668 46.014 22.397 46.1588 22.3181 46.4088C22.2391 46.6588 22.3773 46.9352 22.6339 47.0142C22.7852 47.0602 22.9366 47.0339 23.055 46.9484C23.0945 46.922 23.1274 46.8957 23.1603 46.8628C23.1603 46.876 23.1603 46.8891 23.1603 46.9023C23.1866 47.08 23.3117 47.2313 23.4893 47.2905C23.7394 47.3695 24.0157 47.2313 24.0947 46.9747C24.1736 46.7181 24.0355 46.4549 23.7854 46.3693L24.2329 44.9678C24.4829 45.0467 24.7527 44.902 24.8316 44.6519C24.9106 44.4019 24.7724 44.1255 24.5158 44.0466C24.3184 43.9808 24.1078 44.0597 23.9894 44.2177L23.996 44.2111Z" fill="white"/>
<path d="M48.5126 55.1798C48.5126 54.9824 48.3744 54.7982 48.177 54.739C47.927 54.66 47.6506 54.7982 47.5716 55.0548C47.4927 55.3114 47.6309 55.5746 47.8809 55.6602L47.4335 57.0617C47.1834 56.9828 46.9136 57.1275 46.8347 57.3776C46.7557 57.6276 46.8939 57.904 47.1505 57.9829C47.3019 58.029 47.4532 58.0027 47.5716 57.9171C47.6111 57.8908 47.644 57.8645 47.6769 57.8316C47.6769 57.8447 47.6769 57.8579 47.6835 57.8711C47.7098 58.0487 47.8348 58.2001 48.0125 58.2593C48.2625 58.3382 48.5389 58.2001 48.6179 57.9434C48.6968 57.6868 48.5586 57.4236 48.3086 57.3381L48.756 55.9365C49.0061 56.0155 49.2759 55.8707 49.3548 55.6207C49.4338 55.3706 49.2956 55.0943 49.039 55.0153C48.8416 54.9495 48.631 55.0285 48.5126 55.1864V55.1798Z" fill="white"/>
<path d="M82.9393 55.1154C82.9393 54.918 82.8012 54.7337 82.6038 54.6745C82.3537 54.5956 82.0774 54.7337 81.9984 54.9904C81.9194 55.247 82.0576 55.5102 82.3077 55.5957L81.8602 56.9973C81.6102 56.9183 81.3404 57.0631 81.2614 57.3131C81.1825 57.5631 81.3206 57.8395 81.5773 57.9185C81.7286 57.9645 81.88 57.9382 81.9984 57.8527C82.0379 57.8263 82.0708 57.8 82.1037 57.7671C82.1037 57.7803 82.1037 57.7934 82.1037 57.8066C82.13 57.9843 82.255 58.1356 82.4327 58.1948C82.6827 58.2738 82.9591 58.1356 83.038 57.879C83.117 57.6224 82.9788 57.3592 82.7288 57.2736L83.1762 55.8721C83.4263 55.951 83.696 55.8063 83.775 55.5562C83.854 55.3062 83.7158 55.0298 83.4592 54.9509C83.2618 54.8851 83.0512 54.964 82.9328 55.122L82.9393 55.1154Z" fill="white"/>
<path d="M34.7603 45.7442C34.9577 45.7903 35.1683 45.7113 35.2736 45.5336C35.4183 45.3099 35.3525 45.0138 35.1288 44.8691C34.9051 44.7243 34.6156 44.7901 34.4708 45.0138L33.2272 44.2242C33.3719 44.0005 33.2996 43.7044 33.0758 43.5662C32.8521 43.428 32.556 43.4872 32.4113 43.711C32.3257 43.8426 32.3191 44.0005 32.3652 44.1387C32.3784 44.1847 32.3981 44.2242 32.4178 44.2571C32.4047 44.2571 32.3915 44.2571 32.3784 44.2571C32.2073 44.2374 32.023 44.3163 31.9178 44.4743C31.773 44.698 31.8388 44.9941 32.0625 45.1388C32.2862 45.2836 32.5758 45.2178 32.7205 44.9941L33.9641 45.7837C33.8194 46.0074 33.8918 46.3035 34.1155 46.4417C34.3392 46.5799 34.6353 46.5206 34.7801 46.2969C34.8919 46.1193 34.8788 45.8955 34.7472 45.7442H34.7603Z" fill="#7AD6B4"/>
<path d="M20.0212 55.8526C20.1528 55.7013 20.1791 55.4775 20.0738 55.2999C19.9422 55.0696 19.6461 54.9906 19.4158 55.1222C19.1855 55.2538 19.1065 55.5433 19.2381 55.7736L17.9616 56.5106C17.83 56.2803 17.5339 56.2079 17.3102 56.3395C17.0865 56.4711 17.0009 56.7672 17.1325 56.9975C17.2115 57.1357 17.3431 57.2147 17.4879 57.2344C17.5339 57.2344 17.58 57.2476 17.6195 57.2344C17.6195 57.2476 17.6063 57.2541 17.5997 57.2673C17.501 57.4121 17.4879 57.6095 17.58 57.774C17.7116 58.0043 18.0077 58.0832 18.238 57.9516C18.4683 57.82 18.5472 57.5305 18.4156 57.3002L19.6922 56.5632C19.8238 56.7935 20.1199 56.8659 20.3436 56.7343C20.5673 56.6027 20.6528 56.3066 20.5212 56.0763C20.416 55.8921 20.212 55.8065 20.0146 55.846L20.0212 55.8526Z" fill="#7AD6B4"/>
<path d="M55.9089 50.1086C55.8299 49.9244 55.6457 49.7993 55.4351 49.8125C55.1719 49.8322 54.9679 50.056 54.9876 50.3257C55.0074 50.5955 55.2311 50.7929 55.4943 50.7732L55.5864 52.2405C55.3232 52.2603 55.1258 52.484 55.139 52.7472C55.1522 53.0104 55.3825 53.2144 55.6522 53.1946C55.8102 53.1946 55.9418 53.1025 56.0207 52.9775C56.047 52.9446 56.0668 52.9051 56.0865 52.859C56.0865 52.8722 56.0997 52.8788 56.1063 52.8919C56.1918 53.0433 56.3629 53.1486 56.5537 53.1354C56.8169 53.1157 57.0209 52.8919 57.0011 52.6222C56.9814 52.3524 56.7577 52.155 56.4945 52.1747L56.4024 50.7074C56.6656 50.6876 56.863 50.4639 56.8498 50.2007C56.8366 49.9375 56.6063 49.7335 56.3366 49.7533C56.126 49.7664 55.9549 49.9112 55.9023 50.102H55.9089V50.1086Z" fill="#7AD6B4"/>
<path d="M40.0252 53.0946C39.9068 53.2591 39.9133 53.4828 40.0318 53.6539C40.1897 53.8644 40.4924 53.9171 40.7029 53.7591C40.9135 53.6012 40.9596 53.3051 40.8082 53.0946L41.9992 52.2194C42.1571 52.43 42.4532 52.476 42.6638 52.3181C42.8743 52.1602 42.927 51.8575 42.7691 51.647C42.6769 51.5219 42.5322 51.4561 42.3874 51.4496C42.3479 51.4496 42.2953 51.4496 42.2558 51.4496L42.269 51.4167C42.3545 51.2587 42.3479 51.0613 42.2295 50.91C42.0716 50.6994 41.7689 50.6468 41.5583 50.8047C41.3478 50.9626 41.3017 51.2587 41.4531 51.4693L40.2621 52.3444C40.1042 52.1339 39.8081 52.0878 39.5975 52.2457C39.3869 52.4037 39.3343 52.7063 39.4922 52.9169C39.6172 53.088 39.8278 53.1538 40.0186 53.088L40.0252 53.0946Z" fill="#7AD6B4"/>
<path d="M71.9642 53.3953C71.8458 53.5532 71.8326 53.7769 71.9445 53.948C72.0892 54.1717 72.3919 54.2309 72.6091 54.0862C72.8262 53.9414 72.892 53.6453 72.7472 53.4216L73.9777 52.6122C74.1225 52.8294 74.4186 52.8886 74.6423 52.7438C74.866 52.5991 74.9252 52.2964 74.7805 52.0793C74.6949 51.9477 74.5568 51.8753 74.412 51.8621H74.2804C74.2804 51.8621 74.2936 51.8358 74.3001 51.8292C74.3923 51.6779 74.3923 51.4805 74.287 51.3226C74.1422 51.0988 73.8395 51.0396 73.6224 51.1844C73.4052 51.3291 73.3394 51.6252 73.4842 51.849L72.2537 52.6583C72.109 52.4412 71.8129 52.3819 71.5892 52.5267C71.3654 52.6715 71.3062 52.9741 71.451 53.1913C71.5694 53.3689 71.7734 53.4413 71.9708 53.3953H71.9642Z" fill="#7AD6B4"/>
<path d="M61.6527 44.5925C61.5343 44.7505 61.5211 44.9742 61.633 45.1453C61.7777 45.369 62.0804 45.4282 62.2975 45.2834C62.5147 45.1387 62.5805 44.8426 62.4357 44.6189L63.6662 43.8095C63.811 44.0267 64.1071 44.0859 64.3308 43.9411C64.5545 43.7964 64.6137 43.4937 64.469 43.2765C64.3834 43.1449 64.2452 43.0725 64.1005 43.0594H63.9689C63.9689 43.0594 63.982 43.0331 63.9886 43.0265C64.0807 42.8751 64.0807 42.6777 63.9755 42.5198C63.8307 42.2961 63.528 42.2369 63.3109 42.3816C63.0937 42.5264 63.0279 42.8225 63.1727 43.0462L61.9422 43.8556C61.7975 43.6384 61.5014 43.5792 61.2776 43.724C61.0539 43.8687 60.9947 44.1714 61.1395 44.3886C61.2579 44.5662 61.4619 44.6386 61.6593 44.5925H61.6527Z" fill="#7AD6B4"/>
<path d="M87.184 46.9748C86.9931 47.034 86.855 47.2051 86.8418 47.4157C86.8418 47.6789 87.0458 47.9026 87.3024 47.9092C87.559 47.9158 87.7827 47.7118 87.7959 47.4486L89.2632 47.5012C89.2632 47.7644 89.4672 47.9881 89.7304 47.9947C89.9936 48.0013 90.2174 47.7907 90.2239 47.5341C90.2239 47.3762 90.1581 47.238 90.0397 47.1459C90.0068 47.113 89.9739 47.0867 89.9278 47.0669C89.941 47.0604 89.9476 47.0472 89.9607 47.0472C90.1252 46.9748 90.2371 46.8103 90.2502 46.6261C90.2502 46.3629 90.0463 46.1391 89.7896 46.1326C89.533 46.126 89.3093 46.33 89.2961 46.5932L87.8288 46.5405C87.8288 46.2773 87.6248 46.0536 87.3616 46.047C87.0984 46.0404 86.8747 46.251 86.8681 46.5076C86.855 46.7182 86.9866 46.8958 87.1774 46.9748H87.184Z" fill="#7AD6B4"/>
</g>
</svg>
