<svg width="100" height="100" viewBox="0 0 100 100" fill="none" xmlns="http://www.w3.org/2000/svg">
<path d="M86.4652 49.6374C88.551 48.6758 90 46.5575 90 44.0949C90 40.729 87.3034 38 83.9766 38C81.8389 38 79.9675 39.1306 78.8954 40.8265H21.1046C20.0325 39.1306 18.1611 38 16.0234 38C12.6966 38 10 40.729 10 44.0949C10 46.564 11.449 48.6823 13.5348 49.6374C11.449 50.5991 10 52.7173 10 55.18C10 58.5458 12.6966 61.2749 16.0234 61.2749C18.1611 61.2749 20.0325 60.1442 21.1046 58.4483H78.8954C79.9675 60.1442 81.8389 61.2749 83.9766 61.2749C87.3034 61.2749 90 58.5458 90 55.18C90 52.7109 88.551 50.5926 86.4652 49.6374Z" fill="#FFF2D7" stroke="#BE966B" stroke-width="0.649773" stroke-linecap="round" stroke-linejoin="round"/>
</svg>
