<svg width="100" height="100" viewBox="0 0 100 100" fill="none" xmlns="http://www.w3.org/2000/svg">
<path d="M15.3203 42.9503C15.3203 42.3576 15.8444 41.9019 16.4313 41.9842L82.2784 51.2218C82.7601 51.2894 83.1184 51.7014 83.1184 52.1878V89.0259C83.1184 89.6075 82.6128 90.0598 82.0348 89.9954L16.1877 82.6527C15.6939 82.5977 15.3203 82.1801 15.3203 81.6832V42.9503Z" fill="#FFE4B9"/>
<path d="M15.3203 69.2902C15.3203 68.6975 15.8444 68.2418 16.4313 68.3241L82.2784 77.5616C82.7601 77.6292 83.1184 78.0413 83.1184 78.5277L83.1184 82.1983C83.1184 82.7799 82.6128 83.2323 82.0348 83.1678L16.1878 75.8252C15.6939 75.7701 15.3204 75.3526 15.3204 74.8557L15.3203 69.2902Z" fill="white"/>
<path d="M15.3203 53.1925C15.3203 52.5998 15.8444 52.1441 16.4313 52.2264L82.2784 61.464C82.7601 61.5315 83.1184 61.9436 83.1184 62.43L83.1184 66.1007C83.1184 66.6822 82.6128 67.1346 82.0348 67.0702L16.1878 59.7275C15.6939 59.6724 15.3204 59.2549 15.3204 58.758L15.3203 53.1925Z" fill="white"/>
<path d="M16.8705 43.8917C14.7847 43.5869 14.5973 40.6495 16.6275 40.0822L72.7909 24.387C73.7919 24.1072 74.8364 24.6613 75.1662 25.6469L83.5746 50.7781C84.036 52.157 82.8811 53.5379 81.4423 53.3276L16.8705 43.8917Z" fill="white"/>
<path d="M65.7948 35.5281C61.5588 40.5729 51.4633 44.4154 46.4938 40.2426C41.5244 36.0698 43.5628 25.4619 47.7988 20.4171C52.0348 15.3723 58.467 15.8925 63.4365 20.0653C68.4059 24.2381 70.0308 30.4834 65.7948 35.5281Z" fill="#E47C7C"/>
<path d="M65.9631 17.8493C66.2375 17.8494 66.4578 18.0758 66.4505 18.35L66.361 21.7034C66.3582 21.8087 66.3896 21.9121 66.4504 21.9981L68.7075 25.1898C68.9558 25.5409 68.6612 26.0182 68.236 25.9536L65.4007 25.5227C65.2305 25.4968 65.0592 25.5626 64.9501 25.6958L63.4203 27.5633C63.2035 27.828 62.7886 27.793 62.6192 27.4957L60.5178 23.8077C60.4767 23.7356 60.4179 23.6751 60.3469 23.6321L56.7171 21.4316C56.4245 21.2542 56.4007 20.8386 56.6712 20.629L58.5794 19.1503C58.7155 19.0448 58.7859 18.8754 58.7647 18.7046L58.4107 15.8586C58.3576 15.4319 58.8427 15.1503 59.187 15.408L62.3164 17.7507C62.4007 17.8138 62.5032 17.8479 62.6085 17.8479L65.9631 17.8493Z" fill="#8AC97E"/>
<path d="M32.4285 58.0398C32.2402 59.5235 28.8802 60.3193 24.9236 59.8172C20.967 59.3152 17.9122 57.7054 18.1005 56.2217C18.2888 54.7379 21.6488 53.9422 25.6054 54.4442C29.562 54.9463 32.6168 56.5561 32.4285 58.0398Z" fill="#E47C7C"/>
<path d="M30.5236 58.7073C30.3981 59.6965 27.8908 60.1931 24.9233 59.8165C21.9559 59.44 19.6521 58.3329 19.7776 57.3437C19.9031 56.3546 22.4105 55.858 25.3779 56.2345C28.3453 56.6111 30.6491 57.7182 30.5236 58.7073Z" fill="#F9A8A8"/>
<path d="M33.4031 74.6238C33.2148 76.1075 29.8548 76.9033 25.8982 76.4012C21.9416 75.8991 18.8868 74.2894 19.0751 72.8056C19.2634 71.3219 22.6234 70.5261 26.58 71.0282C30.5366 71.5303 33.5914 73.1401 33.4031 74.6238Z" fill="#E47C7C"/>
<path d="M31.4992 75.2913C31.3737 76.2805 28.8664 76.7771 25.8989 76.4005C22.9315 76.024 20.6277 74.9169 20.7532 73.9277C20.8787 72.9386 23.386 72.442 26.3535 72.8185C29.3209 73.1951 31.6247 74.3022 31.4992 75.2913Z" fill="#F9A8A8"/>
<path d="M52.4266 60.4792C52.2383 61.9629 48.8782 62.7587 44.9217 62.2567C40.9651 61.7546 37.9103 60.1448 38.0986 58.6611C38.2868 57.1774 41.6469 56.3816 45.6035 56.8837C49.56 57.3857 52.6148 58.9955 52.4266 60.4792Z" fill="#E47C7C"/>
<path d="M50.5217 61.1468C50.3961 62.1359 47.8888 62.6325 44.9214 62.256C41.954 61.8794 39.6501 60.7723 39.7757 59.7832C39.9012 58.794 42.4085 58.2974 45.3759 58.674C48.3434 59.0505 50.6472 60.1576 50.5217 61.1468Z" fill="#F9A8A8"/>
<path d="M53.4012 77.0632C53.2129 78.5469 49.8528 79.3427 45.8963 78.8407C41.9397 78.3386 38.8849 76.7288 39.0732 75.2451C39.2614 73.7614 42.6215 72.9656 46.5781 73.4677C50.5346 73.9697 53.5894 75.5795 53.4012 77.0632Z" fill="#E47C7C"/>
<path d="M51.4963 77.7308C51.3708 78.7199 48.8634 79.2165 45.896 78.84C42.9286 78.4634 40.6248 77.3563 40.7503 76.3672C40.8758 75.378 43.3831 74.8814 46.3505 75.258C49.318 75.6345 51.6218 76.7416 51.4963 77.7308Z" fill="#F9A8A8"/>
<path d="M71.9363 62.9128C71.748 64.3965 68.388 65.1923 64.4314 64.6903C60.4749 64.1882 57.42 62.5784 57.6083 61.0947C57.7966 59.611 61.1566 58.8152 65.1132 59.3173C69.0698 59.8193 72.1246 61.4291 71.9363 62.9128Z" fill="#E47C7C"/>
<path d="M70.0314 63.5843C69.9059 64.5734 67.3986 65.07 64.4312 64.6935C61.4637 64.3169 59.1599 63.2098 59.2854 62.2207C59.4109 61.2315 61.9183 60.7349 64.8857 61.1115C67.8531 61.488 70.1569 62.5951 70.0314 63.5843Z" fill="#F9A8A8"/>
<path d="M72.9109 79.5007C72.7227 80.9844 69.3626 81.7802 65.406 81.2782C61.4495 80.7761 58.3947 79.1663 58.5829 77.6826C58.7712 76.1989 62.1313 75.4031 66.0878 75.9052C70.0444 76.4072 73.0992 78.017 72.9109 79.5007Z" fill="#E47C7C"/>
<path d="M71.007 80.1702C70.8815 81.1594 68.3742 81.656 65.4067 81.2794C62.4393 80.9029 60.1355 79.7958 60.261 78.8066C60.3865 77.8175 62.8939 77.3209 65.8613 77.6974C68.8287 78.074 71.1325 79.1811 71.007 80.1702Z" fill="#F9A8A8"/>
<path d="M81.8748 52.7298L72.8387 24.908C72.7363 24.5928 72.9712 24.2695 73.3026 24.2695H75.2091C75.4177 24.2695 75.6032 24.4021 75.6707 24.5995L85.2867 52.7265C85.3041 52.7773 85.313 52.8307 85.313 52.8843V87.6759C85.313 87.8305 85.2397 87.976 85.1154 88.0679L82.6766 89.8727C82.3547 90.111 81.8987 89.8811 81.8987 89.4807V52.8805C81.8987 52.8293 81.8906 52.7785 81.8748 52.7298Z" fill="white"/>
</svg>
