<svg width="100" height="100" viewBox="0 0 100 100" fill="none" xmlns="http://www.w3.org/2000/svg">
<path d="M85.545 54.7276C85.545 74.2081 69.753 90.0001 50.2725 90.0001C30.792 90.0001 15 74.2081 15 54.7276C15 35.2471 30.792 19.4551 50.2725 19.4551C69.753 19.4551 85.545 35.2471 85.545 54.7276Z" fill="#F95656"/>
<path d="M65.0237 17.9734C65.6503 17.5688 66.4883 17.91 66.654 18.6372L68.8962 28.4781C68.9667 28.7878 69.1707 29.0504 69.4534 29.1953L80.5844 34.9043C81.497 35.3723 81.2974 36.7308 80.2888 36.9167L70.391 38.7406C69.9271 38.8261 69.5732 39.2042 69.5186 39.6728L68.5553 47.9392C68.4539 48.8094 67.4096 49.1988 66.7631 48.6075L57.393 40.0365C57.2038 39.8634 56.959 39.7637 56.7028 39.7554L44.0105 39.3434C43.1349 39.315 42.6597 38.3068 43.195 37.6133L48.28 31.0251C48.5682 30.6517 48.5791 30.1339 48.3069 29.7487L42.4982 21.5295C41.9063 20.692 42.7125 19.5805 43.6924 19.883L55.6454 23.5732C55.9489 23.6669 56.2783 23.6215 56.5452 23.4492L65.0237 17.9734Z" fill="#80DD6E"/>
</svg>
