<svg width="100" height="100" viewBox="0 0 100 100" fill="none" xmlns="http://www.w3.org/2000/svg">
<g clip-path="url(#clip0_3647_3697)">
<path d="M67.1983 28.7168C83.5812 28.7168 96.8627 44.6743 96.8627 64.3587C96.8627 84.0431 83.5812 100.001 67.1983 100.001C58.8566 100 49.8236 100.001 41.4819 100.001C25.0992 100 11.8184 84.0429 11.8184 64.3587C11.8184 44.6744 25.0991 28.717 41.4819 28.7168C49.8235 28.7168 58.8568 28.7168 67.1983 28.7168Z" fill="#F95656"/>
<path d="M50.3926 16.8735C50.3926 15.4408 51.554 14.2793 52.9868 14.2793C54.4195 14.2793 55.5809 15.4408 55.5809 16.8735V31.3106C55.5809 32.7434 54.4195 33.9048 52.9868 33.9048C51.554 33.9048 50.3926 32.7434 50.3926 31.3107V16.8735Z" fill="#96643B"/>
<path d="M68.7474 28.7631C63.3813 33.0847 58.98 32.1983 54.261 30.6647C53.6393 26.1638 53.8407 21.2382 59.2068 16.9166C64.5728 12.5951 70.7821 13.9457 73.6931 15.015C74.1766 18.5158 74.1134 24.4416 68.7474 28.7631Z" fill="#80DD6E"/>
</g>
<defs>
<clipPath id="clip0_3647_3697">
<rect width="100" height="100" fill="white"/>
</clipPath>
</defs>
</svg>
