<svg width="100" height="100" viewBox="0 0 100 100" fill="none" xmlns="http://www.w3.org/2000/svg">
<path d="M86.9419 73.4229C86.7425 70.5094 86.3899 67.596 85.9605 64.6979C85.1478 59.2236 84.3811 53.7494 83.6297 48.2752C82.9397 43.3223 82.0657 38.3694 80.4556 33.5852C78.7382 28.5097 76.1468 23.5722 71.9146 19.892C71.8993 19.8767 71.8686 19.8613 71.8379 19.846C71.9146 19.2787 71.9453 18.7113 71.9606 18.1439C71.9913 16.9632 72.0373 15.7825 72.1446 14.6018C72.1906 14.1878 72.2366 13.7738 72.2826 13.3597C72.2826 13.2524 72.3133 13.1604 72.3286 13.0531C72.3286 13.0531 72.3286 13.0531 72.3286 12.9917C72.3286 12.9457 72.3439 12.8844 72.3593 12.8384C72.3899 12.593 72.4359 12.3477 72.4819 12.1024C72.4973 12.0104 72.4973 11.9337 72.4819 11.8417C72.8806 11.4583 72.6966 10.6303 71.9453 10.615C64.0789 10.477 56.2279 10.2623 48.3616 10.0476C40.2346 9.83293 32.0923 10.431 23.9653 10.1396C23.2906 10.1089 23.0912 10.753 23.3366 11.1977C23.4899 12.041 23.6279 12.8844 23.7813 13.7278C23.8426 14.0804 23.9039 14.4485 23.9499 14.8011C23.9806 14.9698 23.9959 15.1538 24.0266 15.3225C24.0266 15.3532 24.0419 15.4758 24.0573 15.4912C24.0573 15.5832 24.0879 15.6752 24.0879 15.7518C24.2413 16.8559 24.3333 17.9753 24.3793 19.0946C16.605 32.8645 14.4889 48.7659 14.0749 64.0998C13.9675 67.9793 13.9829 71.8742 14.0749 75.7537C14.1209 77.6704 14.1669 79.5871 14.2589 81.5039C14.3355 83.1753 14.7649 84.6934 16.421 85.5674C18.0924 86.4568 20.2085 86.8248 22.0639 87.2695C24.1033 87.7601 26.158 88.1742 28.2435 88.5115C32.2763 89.1862 36.3551 89.5849 40.4493 89.7996C50.6157 90.3209 60.8281 89.7229 70.9792 89.1709C71.0099 89.1709 71.0252 89.1709 71.0406 89.1709C71.0866 89.1709 71.1326 89.1709 71.1786 89.1709C73.77 88.4808 75.9934 87.2695 78.0328 85.6594C79.0142 84.8927 79.9496 84.0647 80.9156 83.298C82.0503 82.3933 83.2924 81.6112 84.3964 80.6605C85.3931 79.8018 86.2519 78.7898 86.6659 77.5631C87.1259 76.229 87.0032 74.7876 86.9112 73.4076L86.9419 73.4229Z" fill="#AE8E69"/>
<path d="M55.17 60.8473C55.492 60.4026 55.722 59.9426 55.9366 59.4519C56.2587 58.6698 56.4427 57.8111 56.4427 56.9678C56.4427 54.9437 55.0933 52.8583 52.6552 52.9196C50.6464 52.9656 48.8064 54.5297 47.8556 56.0631C47.7023 56.2931 47.595 56.5538 47.4723 56.8144C43.3168 56.6764 39.1613 56.5384 35.0058 56.4004C35.0058 56.0324 34.9905 55.6644 34.8831 55.2964C34.1931 52.7049 30.6969 51.0642 28.3355 53.0116C26.6641 54.407 26.7254 56.5078 27.6915 58.1945C26.1581 59.6359 25.1154 61.5066 25.9434 63.5614C26.8788 65.9228 29.8382 67.0269 32.123 65.5088C33.089 64.8648 33.6871 63.9141 34.0551 62.856C38.2259 63.27 42.4274 63.4847 46.6443 63.4387C47.0429 63.4387 47.457 63.4387 47.871 63.408C48.6683 65.9228 50.5544 68.6983 53.7286 67.4102C55.2466 66.7968 56.2893 65.3555 56.2433 63.8067C56.2127 62.626 55.6453 61.8286 55.0473 60.9699C55.0779 60.9239 55.1239 60.8779 55.1546 60.8319L55.17 60.8473ZM53.0539 57.6885C53.0539 57.6885 53.0232 57.6885 53.0079 57.6885C53.2072 57.5658 53.2379 57.5658 53.0539 57.6885ZM30.7736 62.1353C30.6203 62.1507 30.8656 62.1507 30.7736 62.1353V62.1353Z" fill="#FFEFB4"/>
<path d="M32.3999 21.4554C42.3363 21.5474 52.2727 22.0687 62.2091 22.1607C63.2058 22.1607 63.2058 20.75 62.2091 20.7347C52.2727 20.6427 42.3363 20.1213 32.3999 20.0293C31.4032 20.0293 31.4032 21.44 32.3999 21.4554Z" fill="#9A683E"/>
<path d="M67.5749 31.8516C65.2135 47.1549 67.8969 62.5656 68.311 77.8995C68.3416 78.8196 69.875 78.8196 69.8444 77.8995C69.4303 62.7189 66.7009 47.3849 69.047 32.2196C69.185 31.3303 67.6976 30.9316 67.5596 31.8363L67.5749 31.8516Z" fill="#9A683E"/>
</svg>
