<svg width="100" height="100" viewBox="0 0 100 100" fill="none" xmlns="http://www.w3.org/2000/svg">
<path d="M47.6719 45.7999C47.6719 44.301 48.887 43.0859 50.3859 43.0859C51.8848 43.0859 53.0998 44.301 53.0998 45.7999V89.1191C53.0998 89.6051 52.7059 89.9991 52.2199 89.9991H48.5519C48.0659 89.9991 47.6719 89.6051 47.6719 89.1191V45.7999Z" fill="white"/>
<path fill-rule="evenodd" clip-rule="evenodd" d="M50.3213 10C60.9919 10 69.6424 18.6498 69.6426 29.3203C69.6426 36.2585 65.9839 42.3407 60.4922 45.748C62.0354 48.67 61.8368 51.8235 59.9248 53.0596C58.2881 54.1175 55.885 53.4543 53.9531 51.6064C53.131 53.1478 51.8677 54.1367 50.4482 54.1367C49.0283 54.1367 47.7635 53.1477 46.9414 51.6055C45.0096 53.453 42.6083 54.1173 40.9717 53.0596C39.0856 51.8404 38.8643 48.7543 40.3398 45.8662C34.7425 42.4822 31 36.3383 31 29.3203C31.0002 18.6498 39.6508 10.0001 50.3213 10Z" fill="#FFCFCF"/>
<mask id="mask0_3647_3972" style="mask-type:alpha" maskUnits="userSpaceOnUse" x="31" y="10" width="39" height="45">
<path fill-rule="evenodd" clip-rule="evenodd" d="M50.3213 10C60.9919 10 69.6424 18.6498 69.6426 29.3203C69.6426 36.2585 65.9839 42.3407 60.4922 45.748C62.0354 48.67 61.8368 51.8235 59.9248 53.0596C58.2881 54.1175 55.885 53.4543 53.9531 51.6064C53.131 53.1478 51.8677 54.1367 50.4482 54.1367C49.0283 54.1367 47.7635 53.1477 46.9414 51.6055C45.0096 53.453 42.6083 54.1173 40.9717 53.0596C39.0856 51.8404 38.8643 48.7543 40.3398 45.8662C34.7425 42.4822 31 36.3383 31 29.3203C31.0002 18.6498 39.6508 10.0001 50.3213 10Z" fill="#D9D9D9"/>
</mask>
<g mask="url(#mask0_3647_3972)">
<path d="M63.3097 14.0076C63.3097 19.8604 57.4946 21.8911 50.3214 21.8911C43.1481 21.8911 37.333 19.8604 37.333 14.0076C37.333 8.1548 43.1481 3.41016 50.3214 3.41016C57.4946 3.41016 63.3097 8.1548 63.3097 14.0076Z" fill="#FFEECD"/>
</g>
</svg>
