<svg width="100" height="100" viewBox="0 0 100 100" fill="none" xmlns="http://www.w3.org/2000/svg">
<path d="M94.7235 42.5176C94.7235 48.9292 76.9383 54.1269 54.999 54.1269C33.0597 54.1269 15.2744 48.9292 15.2744 42.5176C15.2744 36.1059 33.0597 30.9082 54.999 30.9082C76.9383 30.9082 94.7235 36.1059 94.7235 42.5176Z" fill="#FF4848"/>
<path d="M55.947 51.2856C42.361 51.1785 24.5386 43.3284 18.3206 40.3822C17.1477 39.8264 15.7363 40.4493 15.3852 41.6988L9.16829 63.8258C8.90661 64.7571 9.3226 65.7367 10.1937 66.1574C15.6494 68.7925 35.4425 77.5944 55.947 77.3474C74.5679 77.1231 93.3027 70.3796 98.738 68.2627C99.6528 67.9064 100.158 66.9405 99.9555 65.9798L94.967 42.3271C94.6863 40.9961 93.2173 40.2851 91.9909 40.8735C85.7676 43.8588 68.7828 51.3867 55.947 51.2856Z" fill="#FF4848"/>
<path d="M91.5646 42.5185C91.5646 47.2727 75.5825 51.1268 55.8677 51.1268C36.1529 51.1268 20.1709 47.2727 20.1709 42.5185C20.1709 37.7642 36.1529 33.9102 55.8677 33.9102C75.5825 33.9102 91.5646 37.7642 91.5646 42.5185Z" fill="#CAEDFF"/>
<path d="M53.4483 62.5513C53.4483 60.6283 51.3916 59.0694 48.8545 59.0694C46.3174 59.0694 44.2607 60.6283 44.2607 62.5513C44.2607 64.4743 46.3174 66.0332 48.8545 66.0332C51.3916 66.0332 53.4483 64.4743 53.4483 62.5513Z" fill="white"/>
<path d="M51.0184 56.0958C51.1494 55.0265 50.4797 54.0646 49.5227 53.9473C48.5656 53.8301 47.6836 54.6019 47.5526 55.6712C47.4216 56.7406 48.0913 57.7025 49.0483 57.8197C50.0054 57.9369 50.8874 57.1651 51.0184 56.0958Z" fill="white"/>
<path d="M55.6672 58.8824C56.2244 57.9604 56.0071 56.8087 55.1818 56.31C54.3566 55.8113 53.236 56.1545 52.6788 57.0766C52.1216 57.9986 52.3389 59.1503 53.1641 59.649C53.9894 60.1477 55.11 59.8045 55.6672 58.8824Z" fill="white"/>
<path d="M44.6874 58.9597C45.5884 58.6164 46.0079 57.522 45.6244 56.5153C45.2408 55.5086 44.1995 54.9707 43.2984 55.314C42.3974 55.6573 41.9779 56.7517 42.3615 57.7584C42.745 58.7651 43.7864 59.3029 44.6874 58.9597Z" fill="white"/>
</svg>
