<svg width="100" height="100" viewBox="0 0 100 100" fill="none" xmlns="http://www.w3.org/2000/svg">
<path d="M49.7477 13.709C68.5474 13.709 83.7875 24.2644 83.7875 37.2851C83.7875 41.3503 82.3018 45.1749 79.6862 48.5132C78.5038 50.0223 77.6948 51.826 77.6948 53.7432V79.0918C77.6948 83.0682 74.4712 86.2918 70.4948 86.2918H29.0007C25.0243 86.2918 21.8007 83.0682 21.8007 79.0918V53.7432C21.8007 51.826 20.9917 50.0223 19.8093 48.5132C17.1937 45.1749 15.708 41.3503 15.708 37.2851C15.708 24.2644 30.9481 13.709 49.7477 13.709Z" fill="#FFE6CF"/>
<path d="M83.7881 37.2848C83.7881 24.264 68.548 13.7086 49.7483 13.7086C30.9487 13.7086 15.7086 24.264 15.7086 37.2848C15.7086 41.3499 17.1943 45.1745 19.8099 48.5128C20.9923 50.0219 21.8013 51.8257 21.8013 53.7428V79.0914C21.8013 83.0678 25.0249 86.2914 29.0013 86.2914H70.4954C74.4718 86.2914 77.6954 83.0678 77.6954 79.0914V53.7428C77.6954 51.8256 78.5044 50.0219 79.6868 48.5128C82.3024 45.1745 83.7881 41.3499 83.7881 37.2848ZM87.4967 37.2848C87.4967 42.0046 85.8685 46.3503 83.1461 50.0838C82.0978 51.5214 81.404 53.2127 81.404 54.9919V82.8C81.404 86.7764 78.1804 90 74.204 90H25.2927C21.3163 90 18.0927 86.7765 18.0927 82.8V54.9919C18.0927 53.2127 17.3989 51.5214 16.3506 50.0838C13.6282 46.3503 12 42.0046 12 37.2848C12 29.2142 16.727 22.3026 23.5669 17.5652C30.4213 12.8178 39.6893 10 49.7483 10C59.8074 10 69.0754 12.8178 75.9298 17.5652C82.7697 22.3026 87.4967 29.2142 87.4967 37.2848Z" fill="#CE7A2E"/>
</svg>
