<svg width="100" height="100" viewBox="0 0 100 100" fill="none" xmlns="http://www.w3.org/2000/svg">
<g clip-path="url(#clip0_3647_3972)">
<path d="M51.6729 49.7736C51.6729 48.0703 53.0537 46.6895 54.757 46.6895C56.4603 46.6895 57.8412 48.0703 57.8412 49.7736V99.0012C57.8412 99.5535 57.3934 100.001 56.8412 100.001H52.6729C52.1206 100.001 51.6729 99.5535 51.6729 99.0012V49.7736Z" fill="white"/>
<path fill-rule="evenodd" clip-rule="evenodd" d="M54.6836 9.08984C66.8096 9.08984 76.6395 18.9199 76.6396 31.0459C76.6396 38.9303 72.4827 45.8417 66.2422 49.7139C67.9961 53.0344 67.7705 56.6187 65.5977 58.0234C63.7378 59.2257 61.0069 58.4717 58.8115 56.3721C57.8773 58.1235 56.4412 59.2471 54.8281 59.2471C53.2148 59.2471 51.777 58.124 50.8428 56.3721C48.6476 58.471 45.9182 59.2255 44.0586 58.0234C41.9152 56.6379 41.6649 53.1307 43.3418 49.8486C36.9806 46.0032 32.7275 39.0214 32.7275 31.0459C32.7277 18.92 42.5577 9.08997 54.6836 9.08984Z" fill="#FFCFCF"/>
<mask id="mask0_3647_3972" style="mask-type:alpha" maskUnits="userSpaceOnUse" x="32" y="9" width="45" height="51">
<path fill-rule="evenodd" clip-rule="evenodd" d="M54.6836 9.08984C66.8096 9.08984 76.6395 18.9199 76.6396 31.0459C76.6396 38.9303 72.4827 45.8417 66.2422 49.7139C67.9961 53.0344 67.7705 56.6187 65.5977 58.0234C63.7378 59.2257 61.0069 58.4717 58.8115 56.3721C57.8773 58.1235 56.4412 59.2471 54.8281 59.2471C53.2148 59.2471 51.777 58.124 50.8428 56.3721C48.6476 58.471 45.9182 59.2255 44.0586 58.0234C41.9152 56.6379 41.6649 53.1307 43.3418 49.8486C36.9806 46.0032 32.7275 39.0214 32.7275 31.0459C32.7277 18.92 42.5577 9.08997 54.6836 9.08984Z" fill="#D9D9D9"/>
</mask>
<g mask="url(#mask0_3647_3972)">
<path d="M69.4436 13.6444C69.4436 20.2955 62.8354 22.6032 54.6837 22.6032C46.5321 22.6032 39.9238 20.2955 39.9238 13.6444C39.9238 6.99335 46.5321 1.60156 54.6837 1.60156C62.8354 1.60156 69.4436 6.99335 69.4436 13.6444Z" fill="#FFEECD"/>
</g>
</g>
<defs>
<clipPath id="clip0_3647_3972">
<rect width="100" height="100" fill="white"/>
</clipPath>
</defs>
</svg>
