<svg width="100" height="100" viewBox="0 0 100 100" fill="none" xmlns="http://www.w3.org/2000/svg">
<path d="M94.7097 59.9178C94.7097 82.0545 76.7644 99.9997 54.6278 99.9997C32.4912 99.9997 14.5459 82.0545 14.5459 59.9178C14.5459 37.7812 32.4912 19.8359 54.6278 19.8359C76.7644 19.8359 94.7097 37.7812 94.7097 59.9178Z" fill="#F95656"/>
<path d="M71.3904 18.1524C72.1024 17.6926 73.0547 18.0804 73.243 18.9067L75.7909 30.0894C75.8711 30.4413 76.1029 30.7397 76.424 30.9044L89.0728 37.3917C90.1098 37.9236 89.883 39.4673 88.7369 39.6785L77.4895 41.7512C76.9623 41.8483 76.5602 42.278 76.4982 42.8104L75.4035 52.204C75.2883 53.1928 74.1016 53.6354 73.367 52.9634L62.7193 43.2237C62.5043 43.0271 62.2261 42.9138 61.9349 42.9043L47.5121 42.4362C46.5171 42.4039 45.977 41.2582 46.5853 40.4701L52.3637 32.9836C52.6912 32.5593 52.7036 31.9709 52.3942 31.5332L45.7936 22.1934C45.121 21.2417 46.0371 19.9786 47.1506 20.3224L60.7334 24.5157C61.0783 24.6222 61.4526 24.5706 61.7558 24.3747L71.3904 18.1524Z" fill="#80DD6E"/>
</svg>
