<svg width="100" height="100" viewBox="0 0 100 100" fill="none" xmlns="http://www.w3.org/2000/svg">
<path d="M99.9999 66.1245C99.9999 77.1429 79.6492 86.0751 54.5454 86.0751C29.4415 86.0751 9.09082 77.1429 9.09082 66.1245C9.09082 55.106 29.4415 46.1738 54.5454 46.1738C79.6492 46.1738 99.9999 55.106 99.9999 66.1245Z" fill="white"/>
<path d="M90.5384 66.3305C90.5384 73.8276 74.5157 79.9052 54.7506 79.9052C34.9856 79.9052 18.9629 73.8276 18.9629 66.3305C18.9629 58.8334 34.9856 52.7559 54.7506 52.7559C74.5157 52.7559 90.5384 58.8334 90.5384 66.3305Z" fill="#F3F3F3"/>
<path d="M33.1465 43.0672C33.1465 42.7013 33.4701 42.42 33.8324 42.4708L74.4829 48.1736C74.7803 48.2153 75.0015 48.4697 75.0015 48.77V71.5119C75.0015 71.8709 74.6893 72.1502 74.3325 72.1104L33.682 67.5774C33.3771 67.5434 33.1465 67.2856 33.1465 66.9789V43.0672Z" fill="#FFE4B9"/>
<path d="M33.1465 59.327C33.1465 58.9611 33.4701 58.6797 33.8324 58.7306L74.4829 64.4333C74.7803 64.475 75.0015 64.7294 75.0015 65.0297L75.0015 67.2958C75.0015 67.6548 74.6894 67.9341 74.3325 67.8943L33.682 63.3613C33.3771 63.3273 33.1465 63.0696 33.1465 62.7628L33.1465 59.327Z" fill="white"/>
<path d="M33.1465 49.3895C33.1465 49.0236 33.4701 48.7422 33.8324 48.7931L74.4829 54.4958C74.7803 54.5375 75.0015 54.7919 75.0015 55.0922L75.0015 57.3583C75.0015 57.7173 74.6894 57.9966 74.3325 57.9568L33.682 53.4238C33.3771 53.3898 33.1465 53.1321 33.1465 52.8253L33.1465 49.3895Z" fill="white"/>
<path d="M34.1034 43.6479C32.8158 43.4598 32.7001 41.6463 33.9534 41.2961L68.6258 31.6067C69.2437 31.434 69.8886 31.7761 70.0922 32.3846L75.2831 47.8992C75.5679 48.7505 74.8549 49.603 73.9667 49.4732L34.1034 43.6479Z" fill="white"/>
<path d="M64.3067 38.4857C61.6916 41.6001 55.4592 43.9723 52.3913 41.3962C49.3234 38.8201 50.5818 32.2713 53.1969 29.157C55.812 26.0426 59.7829 26.3637 62.8508 28.9398C65.9187 31.5158 66.9218 35.3714 64.3067 38.4857Z" fill="#E47C7C"/>
<path d="M64.4103 27.5736C64.5797 27.5736 64.7157 27.7134 64.7112 27.8827L64.656 29.9529C64.6543 30.0179 64.6736 30.0817 64.7112 30.1348L66.1046 32.1052C66.2579 32.322 66.076 32.6166 65.8135 32.5767L64.0631 32.3107C63.9581 32.2948 63.8523 32.3354 63.785 32.4176L62.8405 33.5705C62.7067 33.7339 62.4506 33.7123 62.346 33.5287L61.0487 31.252C61.0233 31.2074 60.987 31.1701 60.9432 31.1435L58.7023 29.7851C58.5217 29.6756 58.507 29.419 58.674 29.2896L59.852 28.3767C59.9361 28.3116 59.9795 28.207 59.9664 28.1015L59.7479 26.3446C59.7151 26.0812 60.0146 25.9073 60.2271 26.0664L62.1591 27.5127C62.2111 27.5516 62.2744 27.5727 62.3394 27.5727L64.4103 27.5736Z" fill="#8AC97E"/>
<path d="M43.7081 52.3825C43.5919 53.2985 41.5176 53.7897 39.075 53.4798C36.6324 53.1698 34.7466 52.176 34.8628 51.2601C34.979 50.3441 37.0533 49.8528 39.4959 50.1628C41.9385 50.4727 43.8244 51.4665 43.7081 52.3825Z" fill="#E47C7C"/>
<path d="M42.5328 52.7971C42.4553 53.4077 40.9074 53.7143 39.0755 53.4819C37.2435 53.2494 35.8213 52.5659 35.8988 51.9553C35.9762 51.3446 37.5241 51.0381 39.3561 51.2705C41.188 51.503 42.6103 52.1864 42.5328 52.7971Z" fill="#F9A8A8"/>
<path d="M44.3107 62.6208C44.1945 63.5367 42.1201 64.028 39.6776 63.7181C37.235 63.4081 35.3491 62.4143 35.4653 61.4983C35.5816 60.5824 37.6559 60.0911 40.0985 60.4011C42.541 60.711 44.4269 61.7048 44.3107 62.6208Z" fill="#E47C7C"/>
<path d="M43.1353 63.0334C43.0578 63.6441 41.5099 63.9506 39.678 63.7182C37.8461 63.4857 36.4238 62.8023 36.5013 62.1916C36.5788 61.581 38.1267 61.2744 39.9586 61.5068C41.7905 61.7393 43.2128 62.4228 43.1353 63.0334Z" fill="#F9A8A8"/>
<path d="M56.0539 53.8883C55.9376 54.8043 53.8633 55.2956 51.4207 54.9856C48.9781 54.6757 47.0923 53.6819 47.2085 52.7659C47.3247 51.85 49.399 51.3587 51.8416 51.6686C54.2842 51.9786 56.1701 52.9724 56.0539 53.8883Z" fill="#E47C7C"/>
<path d="M54.8785 54.301C54.801 54.9116 53.2531 55.2182 51.4212 54.9858C49.5892 54.7533 48.167 54.0698 48.2445 53.4592C48.322 52.8485 49.8698 52.542 51.7018 52.7744C53.5337 53.0069 54.956 53.6904 54.8785 54.301Z" fill="#F9A8A8"/>
<path d="M56.6564 64.1266C56.5402 65.0426 54.4658 65.5339 52.0233 65.2239C49.5807 64.914 47.6948 63.9202 47.811 63.0042C47.9273 62.0882 50.0016 61.597 52.4442 61.9069C54.8867 62.2169 56.7726 63.2107 56.6564 64.1266Z" fill="#E47C7C"/>
<path d="M55.481 64.5393C55.4035 65.1499 53.8556 65.4565 52.0237 65.224C50.1918 64.9916 48.7695 64.3081 48.847 63.6975C48.9245 63.0868 50.4724 62.7802 52.3043 63.0127C54.1362 63.2452 55.5585 63.9286 55.481 64.5393Z" fill="#F9A8A8"/>
<path d="M68.0988 55.3903C67.9825 56.3063 65.9082 56.7975 63.4656 56.4876C61.0231 56.1776 59.1372 55.1838 59.2534 54.2679C59.3696 53.3519 61.444 52.8606 63.8865 53.1706C66.3291 53.4805 68.215 54.4743 68.0988 55.3903Z" fill="#E47C7C"/>
<path d="M66.9234 55.8049C66.8459 56.4155 65.298 56.7221 63.4661 56.4897C61.6342 56.2572 60.2119 55.5737 60.2894 54.9631C60.3669 54.3524 61.9148 54.0459 63.7467 54.2783C65.5786 54.5108 67.0009 55.1943 66.9234 55.8049Z" fill="#F9A8A8"/>
<path d="M68.7003 65.6325C68.5841 66.5485 66.5098 67.0397 64.0672 66.7298C61.6246 66.4198 59.7387 65.426 59.855 64.5101C59.9712 63.5941 62.0455 63.1028 64.4881 63.4128C66.9307 63.7227 68.8166 64.7165 68.7003 65.6325Z" fill="#E47C7C"/>
<path d="M67.525 66.0451C67.4475 66.6558 65.8996 66.9624 64.0677 66.7299C62.2357 66.4974 60.8135 65.814 60.8909 65.2033C60.9684 64.5927 62.5163 64.2861 64.3483 64.5186C66.1802 64.751 67.6025 65.4345 67.525 66.0451Z" fill="#F9A8A8"/>
<path d="M74.234 49.1031L68.6556 31.9273C68.5924 31.7328 68.7374 31.5332 68.942 31.5332H70.119C70.2477 31.5332 70.3622 31.6151 70.4039 31.7369L76.3404 49.1011C76.3511 49.1324 76.3566 49.1653 76.3566 49.1985V70.677C76.3566 70.7724 76.3113 70.8622 76.2346 70.919L74.729 72.0332C74.5302 72.1803 74.2488 72.0384 74.2488 71.7911V49.1961C74.2488 49.1645 74.2438 49.1331 74.234 49.1031Z" fill="white"/>
</svg>
