<svg width="100" height="100" viewBox="0 0 100 100" fill="none" xmlns="http://www.w3.org/2000/svg">
<path d="M85.3576 40.2162C85.3576 45.8585 69.7066 50.4325 50.4 50.4325C31.0934 50.4325 15.4424 45.8585 15.4424 40.2162C15.4424 34.574 31.0934 30 50.4 30C69.7066 30 85.3576 34.574 85.3576 40.2162Z" fill="#FF4848"/>
<path d="M51.2334 47.9311C39.2778 47.8369 23.594 40.9288 18.1222 38.3362C17.0901 37.8471 15.848 38.3953 15.5391 39.4948L10.0682 58.9665C9.83789 59.7861 10.204 60.6481 10.9706 61.0184C15.7716 63.3373 33.1895 71.0829 51.2334 70.8656C67.6198 70.6682 84.1065 64.7339 88.8895 62.871C89.6946 62.5575 90.1392 61.7075 89.9609 60.8621L85.5711 40.0477C85.324 38.8764 84.0313 38.2507 82.952 38.7685C77.4756 41.3955 62.5289 48.0202 51.2334 47.9311Z" fill="#FF4848"/>
<path d="M82.5774 40.2159C82.5774 44.3997 68.5132 47.7912 51.1642 47.7912C33.8151 47.7912 19.751 44.3997 19.751 40.2159C19.751 36.0322 33.8151 32.6406 51.1642 32.6406C68.5132 32.6406 82.5774 36.0322 82.5774 40.2159Z" fill="#CAEDFF"/>
<path d="M49.0353 57.8461C49.0353 56.1538 47.2254 54.782 44.9927 54.782C42.7601 54.782 40.9502 56.1538 40.9502 57.8461C40.9502 59.5383 42.7601 60.9102 44.9927 60.9102C47.2254 60.9102 49.0353 59.5383 49.0353 57.8461Z" fill="white"/>
<path d="M46.8963 52.1639C47.0116 51.2229 46.4223 50.3764 45.5801 50.2733C44.7379 50.1701 43.9617 50.8493 43.8464 51.7903C43.7311 52.7313 44.3204 53.5778 45.1626 53.6809C46.0048 53.7841 46.781 53.1049 46.8963 52.1639Z" fill="white"/>
<path d="M50.9873 54.6161C51.4776 53.8047 51.2864 52.7912 50.5602 52.3523C49.834 51.9135 48.8478 52.2155 48.3575 53.0269C47.8672 53.8383 48.0584 54.8518 48.7846 55.2907C49.5108 55.7295 50.497 55.4275 50.9873 54.6161Z" fill="white"/>
<path d="M41.3249 54.6847C42.1178 54.3826 42.487 53.4195 42.1495 52.5336C41.8119 51.6477 40.8956 51.1744 40.1027 51.4765C39.3098 51.7786 38.9406 52.7416 39.2781 53.6275C39.6156 54.5135 40.532 54.9868 41.3249 54.6847Z" fill="white"/>
</svg>
