<svg width="100" height="100" viewBox="0 0 100 100" fill="none" xmlns="http://www.w3.org/2000/svg">
<path d="M74.1544 62.1835C64.5512 73.6201 41.6643 82.3313 30.3984 72.8714C19.1324 63.4115 23.7536 39.3629 33.3568 27.9262C42.96 16.4896 57.542 17.6687 68.808 27.1286C80.0739 36.5885 83.7576 50.7468 74.1544 62.1835Z" fill="#FF6969"/>
<path d="M74.5344 22.1047C75.1564 22.1049 75.6559 22.6181 75.6393 23.2399L75.4365 30.8421C75.4301 31.0808 75.5012 31.3151 75.639 31.51L80.756 38.7458C81.3189 39.5418 80.651 40.6239 79.6871 40.4774L73.2594 39.5006C72.8735 39.4419 72.4852 39.5911 72.2379 39.8931L68.7697 44.1267C68.2782 44.7268 67.3377 44.6474 66.9537 43.9734L62.1897 35.6126C62.0965 35.449 61.9632 35.312 61.8022 35.2144L53.5733 30.2259C52.91 29.8238 52.8561 28.8815 53.4693 28.4063L57.7952 25.0541C58.1038 24.815 58.2634 24.4309 58.2152 24.0436L57.4127 17.5918C57.2924 16.6243 58.3921 15.9859 59.1726 16.5701L66.2672 21.8811C66.4584 22.0241 66.6907 22.1015 66.9294 22.1016L74.5344 22.1047Z" fill="#8AC97E"/>
</svg>
