<svg width="100" height="100" viewBox="0 0 100 100" fill="none" xmlns="http://www.w3.org/2000/svg">
<path d="M61.7346 27.2695C76.1516 27.2695 87.8393 41.3122 87.8394 58.6345C87.8394 75.9568 76.1516 89.9995 61.7346 89.9995C54.3939 89.9994 46.4447 89.9995 39.104 89.9995C24.6872 89.9993 13 75.9567 13 58.6345C13 41.3123 24.6871 27.2697 39.104 27.2695C46.4446 27.2695 54.394 27.2696 61.7346 27.2695Z" fill="#F95656"/>
<path d="M46.9453 16.8473C46.9453 15.5865 47.9674 14.5645 49.2282 14.5645C50.489 14.5645 51.5111 15.5865 51.5111 16.8473V29.5521C51.5111 30.8129 50.489 31.835 49.2282 31.835C47.9674 31.835 46.9453 30.8129 46.9453 29.5521V16.8473Z" fill="#96643B"/>
<path d="M63.0975 27.3108C58.3754 31.1138 54.5022 30.3338 50.3495 28.9842C49.8024 25.0234 49.9796 20.6889 54.7018 16.8859C59.4239 13.0829 64.8881 14.2714 67.4498 15.2125C67.8753 18.2931 67.8196 23.5079 63.0975 27.3108Z" fill="#80DD6E"/>
</svg>
