<svg width="100" height="100" viewBox="0 0 100 100" fill="none" xmlns="http://www.w3.org/2000/svg">
<path d="M62.1587 48.2057C65.3257 47.6704 68.227 46.1033 70.4111 43.7482C72.5952 41.3931 73.9396 38.3821 74.2351 35.1838C74.5306 31.9855 73.7606 28.7791 72.045 26.0638C70.3294 23.3484 67.7643 21.2763 64.749 20.1698C61.7337 19.0634 58.4372 18.9847 55.3725 19.946C52.3078 20.9073 49.6468 22.8547 47.8035 25.4851C45.9602 28.1155 45.0381 31.2814 45.1806 34.4902C45.3231 37.699 46.5223 40.7707 48.5914 43.2274L50.3965 41.7069C48.6626 39.6483 47.6578 37.0743 47.5384 34.3855C47.419 31.6966 48.1917 29.0437 49.7363 26.8395C51.2809 24.6353 53.5107 23.0035 56.0788 22.198C58.6469 21.3924 61.4093 21.4584 63.936 22.3855C66.4627 23.3127 68.6121 25.049 70.0498 27.3244C71.4874 29.5998 72.1326 32.2866 71.885 34.9667C71.6373 37.6468 70.5108 40.1699 68.6806 42.1434C66.8504 44.1168 64.4193 45.43 61.7654 45.8785L62.1587 48.2057Z" fill="#696969"/>
<path d="M49.3955 40.7793L51.523 42.289L26.3612 77.7477L24.2338 76.238L49.3955 40.7793Z" fill="#696969"/>
<path d="M63.1494 45.8965L60.5525 45.6485L56.4196 88.9309L59.0165 89.1788L63.1494 45.8965Z" fill="#696969"/>
<path d="M17.0732 44.6367L80.5749 61.3038L71.1925 97.0504L7.69093 80.3833L17.0732 44.6367Z" fill="#FFB761"/>
<path d="M9.67773 72.8125L73.1793 89.4796L72.4067 92.4235L8.90507 75.7563L9.67773 72.8125Z" fill="#F39B4A"/>
<path d="M58.3214 45.9218C61.4196 45.0746 64.1509 43.227 66.0902 40.6666C68.0296 38.1062 69.0682 34.9766 69.0446 31.7647C69.0209 28.5528 67.9363 25.4389 65.9595 22.9073C63.9826 20.3758 61.2244 18.5687 58.1141 17.7673C55.0038 16.9658 51.7158 17.215 48.7617 18.4759C45.8077 19.7369 43.3532 21.939 41.7804 24.7395C40.2075 27.54 39.6044 30.7818 40.0649 33.9606C40.5254 37.1394 42.0238 40.0768 44.3267 42.3157L45.9719 40.6235C44.0421 38.7473 42.7865 36.2859 42.4006 33.6222C42.0147 30.9585 42.5201 28.2419 43.8381 25.8952C45.1561 23.5485 47.2129 21.7033 49.6883 20.6466C52.1637 19.59 54.9189 19.3812 57.5252 20.0528C60.1315 20.7244 62.4428 22.2386 64.0993 24.3599C65.7558 26.4813 66.6647 29.0907 66.6845 31.7821C66.7044 34.4735 65.834 37.0961 64.2089 39.2416C62.5838 41.3871 60.2951 42.9353 57.6989 43.6452L58.3214 45.9218Z" fill="#696969"/>
<path d="M44.8838 39.7988L47.1507 41.0897L25.6355 78.8724L23.3685 77.5815L44.8838 39.7988Z" fill="#696969"/>
<path d="M59.0791 43.5234L56.4704 43.5347L56.6572 87.0134L59.2659 87.0022L59.0791 43.5234Z" fill="#696969"/>
</svg>
