<svg width="100" height="100" viewBox="0 0 100 100" fill="none" xmlns="http://www.w3.org/2000/svg">
<path d="M41.394 61.6653C41.394 61.6653 41.474 61.7353 41.514 61.7653C42.804 62.6753 45.704 62.0753 47.154 61.9553C50.194 61.7053 53.244 61.6153 56.294 61.6853C57.274 61.7053 59.174 61.9853 60.034 61.4053C60.954 60.7853 61.334 58.5953 61.694 57.5453C62.714 54.5653 63.584 51.5353 64.814 48.6353C61.874 50.7053 59.424 52.5953 56.044 53.8453C55.714 50.5953 55.684 47.3153 55.944 44.0553C54.304 47.3853 52.184 50.4853 49.674 53.2253C48.534 51.6953 47.694 49.9353 46.854 48.2353C46.354 47.2053 45.824 46.1753 45.384 45.1253C45.284 44.8853 44.314 43.2153 44.314 43.1953C44.264 45.6353 43.914 48.0453 43.554 50.4553C43.374 51.7053 43.184 52.9553 43.004 54.2053C42.974 54.4153 42.934 54.6453 42.804 54.8053C42.164 55.6153 40.304 53.9853 39.774 53.5153C39.034 52.8553 37.974 51.4553 36.824 51.6653C38.644 54.5853 39.504 57.9853 41.004 61.0653C41.104 61.2753 41.214 61.4853 41.374 61.6453L41.394 61.6653Z" fill="#FFE557"/>
<path d="M36.584 51.166C38.564 54.566 40.114 58.216 41.204 61.996L36.584 51.166Z" fill="#FFE557"/>
<path d="M36.254 51.3556C38.214 54.7356 39.754 58.3456 40.834 62.0956C40.964 62.5556 41.694 62.3656 41.554 61.8956C40.454 58.0856 38.884 54.4056 36.894 50.9756C36.654 50.5556 36.004 50.9356 36.244 51.3556H36.254Z" fill="#FFB800"/>
<path d="M35.934 51.0261C37.014 51.9561 38.114 52.8561 39.244 53.7261C39.814 54.1661 40.384 54.5961 40.964 55.0161C41.464 55.3761 42.064 55.7961 42.694 55.4861C43.154 55.2661 43.354 54.7561 43.444 54.2861C43.564 53.6061 43.624 52.9061 43.704 52.2261C43.884 50.7561 44.064 49.2761 44.244 47.8061C44.454 46.1261 44.654 44.4461 44.864 42.7661L44.164 42.9561C45.794 46.5461 47.424 50.1261 49.054 53.7161C49.154 53.9261 49.494 53.9661 49.644 53.7961C52.254 50.7461 54.464 47.3661 56.214 43.7561L55.514 43.5661C55.524 47.0061 55.544 50.4461 55.554 53.8861C55.554 54.1961 55.864 54.3161 56.114 54.2061C59.384 52.7761 62.444 50.9061 65.234 48.6761L64.644 48.2261C62.434 52.5461 60.784 57.1461 59.774 61.8861C59.674 62.3561 60.394 62.5561 60.494 62.0861C61.494 57.4061 63.104 52.8661 65.294 48.6061C65.494 48.2161 65.034 47.8861 64.704 48.1561C61.974 50.3461 58.944 52.1661 55.734 53.5661L56.294 53.8861C56.284 50.4461 56.264 47.0061 56.254 43.5661C56.254 43.2161 55.724 43.0261 55.554 43.3761C53.834 46.9361 51.674 50.2661 49.104 53.2661L49.694 53.3461C48.064 49.7561 46.434 46.1761 44.804 42.5861C44.634 42.2061 44.144 42.4561 44.104 42.7761C43.774 45.4361 43.454 48.0961 43.124 50.7561C43.044 51.4361 42.954 52.1061 42.874 52.7861C42.804 53.3261 42.804 53.9361 42.614 54.4561C42.554 54.6261 42.464 54.8061 42.264 54.8461C41.964 54.8961 41.644 54.6061 41.424 54.4461C40.904 54.0761 40.394 53.6861 39.894 53.3061C38.714 52.4061 37.574 51.4661 36.444 50.5061C36.084 50.1961 35.544 50.7161 35.914 51.0361L35.934 51.0261Z" fill="#FFB800"/>
<path d="M41.2041 62.1577C47.3941 61.9677 53.5841 61.7777 59.7741 61.5977L41.2041 62.1577Z" fill="#FFE557"/>
<path d="M41.204 62.5269C46.024 62.3769 50.844 62.2369 55.654 62.0869L59.764 61.9669C60.244 61.9569 60.244 61.2069 59.764 61.2169C54.944 61.3669 50.124 61.5069 45.314 61.6569L41.204 61.7769C40.724 61.7869 40.724 62.5369 41.204 62.5269Z" fill="#FFB800"/>
<path d="M32.9741 48.1255C32.2341 47.6755 32.3941 46.3456 33.2141 46.0756C34.0341 45.8056 34.9541 46.7556 34.6741 47.5756C34.3941 48.3956 33.1041 48.5855 32.5841 47.8955C32.0641 47.2055 32.5841 46.0255 33.4441 45.9355" fill="#FFE557"/>
<path d="M33.164 47.7956C33.164 47.7956 33.104 47.7556 33.074 47.7356L33.154 47.7956C33.094 47.7456 33.034 47.6956 32.994 47.6356L33.054 47.7156C33.004 47.6456 32.954 47.5656 32.924 47.4856L32.964 47.5756C32.924 47.4756 32.894 47.3756 32.884 47.2756V47.3756C32.884 47.2556 32.884 47.1356 32.894 47.0256V47.1256C32.894 47.0056 32.934 46.8856 32.974 46.7756L32.934 46.8656C32.974 46.7756 33.024 46.6856 33.084 46.6056L33.024 46.6856C33.074 46.6156 33.134 46.5556 33.204 46.5056L33.124 46.5656C33.184 46.5156 33.264 46.4756 33.334 46.4456L33.244 46.4856C33.314 46.4556 33.394 46.4356 33.474 46.4256H33.374C33.464 46.4256 33.544 46.4256 33.634 46.4356H33.534C33.634 46.4356 33.734 46.4656 33.824 46.5056L33.734 46.4656C33.834 46.5056 33.934 46.5656 34.024 46.6356L33.944 46.5756C34.034 46.6456 34.124 46.7356 34.194 46.8256L34.134 46.7456C34.204 46.8356 34.264 46.9356 34.304 47.0356L34.264 46.9456C34.304 47.0356 34.334 47.1356 34.344 47.2356V47.1356C34.344 47.2256 34.344 47.3156 34.334 47.4056V47.3056C34.334 47.3856 34.314 47.4656 34.284 47.5456L34.324 47.4556C34.294 47.5356 34.244 47.6056 34.194 47.6756L34.254 47.5956C34.194 47.6656 34.134 47.7356 34.064 47.7856L34.144 47.7256C34.054 47.7956 33.964 47.8456 33.864 47.8856L33.954 47.8456C33.844 47.8956 33.724 47.9256 33.604 47.9456H33.704C33.574 47.9456 33.454 47.9456 33.324 47.9356H33.424C33.314 47.9356 33.214 47.9056 33.114 47.8656L33.204 47.9056C33.124 47.8656 33.044 47.8256 32.964 47.7656L33.044 47.8256C32.974 47.7756 32.914 47.7156 32.864 47.6456L32.924 47.7256C32.874 47.6556 32.834 47.5856 32.794 47.5056L32.834 47.5956C32.794 47.5056 32.774 47.4156 32.754 47.3156V47.4156C32.754 47.3056 32.754 47.1956 32.764 47.0856V47.1856C32.764 47.0556 32.804 46.9356 32.854 46.8156L32.814 46.9056C32.864 46.7956 32.924 46.6856 33.004 46.5856L32.944 46.6656C33.014 46.5756 33.094 46.4956 33.174 46.4356L33.094 46.4956C33.174 46.4356 33.254 46.3856 33.344 46.3456L33.254 46.3856C33.334 46.3556 33.424 46.3256 33.514 46.3156H33.414C33.414 46.3156 33.434 46.3256 33.444 46.3256C33.544 46.3156 33.634 46.2956 33.714 46.2156C33.784 46.1456 33.824 46.0456 33.824 45.9456C33.824 45.8456 33.784 45.7456 33.714 45.6756C33.644 45.6156 33.544 45.5556 33.444 45.5656C33.214 45.5956 32.994 45.6556 32.794 45.7856C32.594 45.9156 32.444 46.0756 32.304 46.2656C32.184 46.4356 32.104 46.6256 32.054 46.8256C31.994 47.0556 31.984 47.2856 32.024 47.5156C32.084 47.9356 32.354 48.3156 32.724 48.5056C33.094 48.6956 33.534 48.7456 33.944 48.6456C34.354 48.5456 34.714 48.2956 34.924 47.9356C35.174 47.5056 35.144 46.9756 34.914 46.5456C34.694 46.1456 34.294 45.8056 33.844 45.7056C33.394 45.6056 32.904 45.7156 32.574 46.0556C32.004 46.6256 31.944 47.6856 32.524 48.2656C32.594 48.3456 32.684 48.4056 32.774 48.4656C32.944 48.5656 33.194 48.5056 33.284 48.3356C33.374 48.1656 33.324 47.9356 33.154 47.8256L33.164 47.7956Z" fill="#FFB800"/>
<path d="M42.594 38.807C42.654 39.717 43.804 40.367 44.614 39.937C45.424 39.507 45.544 38.197 44.824 37.627C44.104 37.057 42.854 37.487 42.634 38.377" fill="#FFE557"/>
<path d="M42.224 38.8062C42.254 39.1762 42.394 39.5062 42.634 39.7962C42.854 40.0562 43.154 40.2362 43.464 40.3462C43.774 40.4562 44.144 40.4762 44.464 40.3962C44.814 40.3062 45.104 40.0862 45.314 39.7962C45.694 39.2862 45.764 38.5562 45.514 37.9762C45.384 37.6662 45.164 37.3962 44.864 37.2162C44.584 37.0562 44.244 36.9762 43.924 37.0062C43.284 37.0462 42.624 37.4062 42.354 38.0162C42.314 38.1062 42.274 38.1962 42.254 38.2862C42.204 38.4762 42.314 38.7062 42.514 38.7462C42.714 38.7862 42.924 38.6862 42.974 38.4862C42.984 38.4262 43.004 38.3762 43.034 38.3162L42.994 38.4062C43.034 38.3162 43.084 38.2262 43.154 38.1462L43.094 38.2262C43.164 38.1362 43.244 38.0562 43.344 37.9762L43.264 38.0362C43.374 37.9562 43.494 37.8862 43.614 37.8362L43.524 37.8762C43.654 37.8262 43.794 37.7862 43.934 37.7662H43.834C43.964 37.7662 44.094 37.7662 44.224 37.7762H44.124C44.234 37.7762 44.344 37.8062 44.444 37.8462L44.354 37.8062C44.444 37.8462 44.534 37.8962 44.614 37.9562L44.534 37.8962C44.614 37.9562 44.684 38.0262 44.744 38.1062L44.684 38.0262C44.754 38.1162 44.804 38.2062 44.854 38.3162L44.814 38.2262C44.864 38.3462 44.894 38.4662 44.914 38.5862V38.4862C44.914 38.6262 44.914 38.7762 44.904 38.9162V38.8162C44.904 38.9462 44.864 39.0762 44.814 39.2062L44.854 39.1162C44.804 39.2262 44.744 39.3362 44.674 39.4262L44.734 39.3462C44.674 39.4262 44.604 39.4962 44.524 39.5662L44.604 39.5062C44.524 39.5662 44.434 39.6162 44.344 39.6562L44.434 39.6162C44.334 39.6562 44.244 39.6862 44.134 39.6962H44.234C44.114 39.6962 43.994 39.6962 43.874 39.6862H43.974C43.844 39.6862 43.714 39.6462 43.594 39.5962L43.684 39.6362C43.554 39.5762 43.434 39.5062 43.314 39.4262L43.394 39.4862C43.294 39.4062 43.204 39.3162 43.124 39.2162L43.184 39.2962C43.114 39.2062 43.064 39.1162 43.014 39.0062L43.054 39.0962C43.014 38.9962 42.984 38.8962 42.974 38.7862V38.8862C42.974 38.8862 42.974 38.8362 42.974 38.8162C42.974 38.7162 42.934 38.6262 42.864 38.5462C42.794 38.4762 42.694 38.4362 42.594 38.4362C42.404 38.4362 42.204 38.6062 42.214 38.8162L42.224 38.8062Z" fill="#FFB800"/>
<path d="M55.5638 40.6671C56.3638 41.1971 57.6338 40.6271 57.7538 39.6771C57.8738 38.7271 56.7938 37.8471 55.8938 38.1571C54.9938 38.4671 54.6838 39.8371 55.3638 40.5071" fill="#FFE557"/>
<path d="M55.3739 40.9962C55.9439 41.3762 56.7239 41.3062 57.2939 40.9562C57.5739 40.7862 57.8239 40.5362 57.9739 40.2362C58.1439 39.8862 58.1839 39.5062 58.0939 39.1362C57.9139 38.4462 57.2639 37.8562 56.5539 37.7562C56.1739 37.7062 55.7939 37.7562 55.4639 37.9662C55.1939 38.1362 54.9639 38.3962 54.8239 38.6862C54.6839 38.9762 54.6039 39.3162 54.6239 39.6462C54.6439 39.9762 54.7339 40.3062 54.9239 40.5662C54.9839 40.6462 55.0339 40.7162 55.1039 40.7862C55.2439 40.9262 55.4939 40.9362 55.6339 40.7862C55.7739 40.6362 55.7839 40.4062 55.6339 40.2562C55.6039 40.2262 55.5839 40.1962 55.5539 40.1662C55.5039 40.0962 55.6039 40.2362 55.5639 40.1862C55.5539 40.1662 55.5439 40.1562 55.5339 40.1362C55.4939 40.0762 55.4539 40.0062 55.4239 39.9362L55.4639 40.0262C55.4139 39.9162 55.3839 39.7962 55.3639 39.6662V39.7662C55.3639 39.6262 55.3639 39.4862 55.3739 39.3462V39.4462C55.3739 39.3062 55.4139 39.1662 55.4739 39.0262L55.4339 39.1162C55.4639 39.0362 55.5039 38.9662 55.5539 38.8962C55.5639 38.8762 55.5739 38.8562 55.5939 38.8462C55.6039 38.8262 55.6539 38.7662 55.6039 38.8262C55.5539 38.8862 55.6039 38.8262 55.6239 38.8062C55.6339 38.7862 55.6539 38.7762 55.6639 38.7562C55.6939 38.7262 55.7239 38.6962 55.7539 38.6762C55.7739 38.6662 55.7839 38.6462 55.8039 38.6362C55.8339 38.6062 55.7239 38.6962 55.7639 38.6662C55.7639 38.6662 55.7839 38.6562 55.7939 38.6462C55.8639 38.5962 55.9439 38.5562 56.0239 38.5262L55.9339 38.5662C56.0239 38.5262 56.1239 38.5062 56.2239 38.4862H56.1239C56.2339 38.4862 56.3439 38.4862 56.4639 38.4962H56.3639C56.4939 38.4962 56.6139 38.5362 56.7339 38.5862L56.6439 38.5462C56.7339 38.5862 56.8239 38.6362 56.9039 38.6862C56.9239 38.6962 56.9439 38.7162 56.9639 38.7262C56.9739 38.7262 57.0139 38.7662 56.9639 38.7262C56.9139 38.6862 56.9539 38.7262 56.9639 38.7262C57.0039 38.7562 57.0339 38.7862 57.0739 38.8262C57.1039 38.8562 57.1339 38.8962 57.1739 38.9262C57.1739 38.9362 57.1939 38.9462 57.2039 38.9562C57.2339 38.9962 57.1739 38.9162 57.1739 38.9162C57.1839 38.9162 57.2039 38.9662 57.2139 38.9762C57.2739 39.0562 57.3139 39.1462 57.3539 39.2362L57.3139 39.1462C57.3539 39.2462 57.3839 39.3562 57.4039 39.4662V39.3662C57.4039 39.4662 57.4039 39.5762 57.3939 39.6762V39.5762C57.3939 39.6762 57.3639 39.7762 57.3239 39.8762L57.3639 39.7862C57.3239 39.8662 57.2839 39.9462 57.2339 40.0262C57.2339 40.0362 57.2239 40.0462 57.2139 40.0562C57.1839 40.1062 57.2639 39.9862 57.2439 40.0162C57.2339 40.0362 57.2139 40.0462 57.2039 40.0662C57.1739 40.1062 57.1439 40.1362 57.1039 40.1662C57.0639 40.1962 57.0339 40.2262 57.0039 40.2562C56.9739 40.2862 57.0839 40.1962 57.0339 40.2262C57.0339 40.2262 57.0139 40.2362 57.0139 40.2462C56.9939 40.2562 56.9739 40.2762 56.9539 40.2862C56.8739 40.3362 56.7939 40.3862 56.7039 40.4162L56.7939 40.3762C56.6639 40.4262 56.5339 40.4662 56.3939 40.4862H56.4939C56.3639 40.4862 56.2339 40.4862 56.1139 40.4762H56.2139C56.1039 40.4762 55.9939 40.4462 55.8939 40.4062L55.9839 40.4462C55.9139 40.4162 55.8539 40.3862 55.7839 40.3362C55.6239 40.2262 55.3639 40.2962 55.2739 40.4662C55.1739 40.6562 55.2339 40.8662 55.4039 40.9762L55.3739 40.9962Z" fill="#FFB800"/>
<path d="M66.2139 45.7748C65.3339 45.1548 66.2139 43.5048 67.2839 43.6948C68.3539 43.8848 68.8239 45.3248 68.3139 46.2748C68.1139 46.6448 67.7639 46.9748 67.3539 46.9748C66.9439 46.9748 66.5539 46.4748 66.7739 46.1248" fill="#FFE557"/>
<path d="M66.4039 45.4558C66.3439 45.4158 66.4739 45.5158 66.4239 45.4758C66.4239 45.4758 66.4039 45.4658 66.3939 45.4558C66.3739 45.4358 66.3539 45.4158 66.3339 45.3958C66.3239 45.3858 66.3139 45.3658 66.3039 45.3558C66.3039 45.3558 66.3639 45.4358 66.3339 45.3958C66.3139 45.3658 66.2939 45.3458 66.2839 45.3158C66.2439 45.1958 66.2639 45.2758 66.2839 45.3158C66.2839 45.2858 66.2639 45.2658 66.2539 45.2458C66.2439 45.2258 66.2439 45.1958 66.2339 45.1658C66.2339 45.1558 66.2339 45.1358 66.2339 45.1258C66.2339 45.0958 66.2339 45.2358 66.2339 45.1558C66.2339 45.1058 66.2339 45.0458 66.2339 44.9958C66.2339 44.9558 66.2539 44.8658 66.2339 44.9958C66.2339 44.9658 66.2439 44.9358 66.2539 44.9058C66.2639 44.8558 66.2839 44.8058 66.2939 44.7458C66.2939 44.7158 66.3139 44.6958 66.3239 44.6658C66.2739 44.7958 66.3239 44.6758 66.3339 44.6458C66.3639 44.5958 66.3939 44.5458 66.4239 44.4958C66.4439 44.4758 66.4539 44.4458 66.4739 44.4258C66.5139 44.3758 66.4239 44.4858 66.4539 44.4558C66.4639 44.4358 66.4839 44.4258 66.4939 44.4058C66.5339 44.3658 66.5739 44.3158 66.6139 44.2758C66.6339 44.2558 66.6539 44.2358 66.6839 44.2158C66.7239 44.1758 66.6539 44.2458 66.6539 44.2458C66.6739 44.2358 66.6939 44.2158 66.7139 44.2058C66.7639 44.1758 66.8039 44.1458 66.8539 44.1258C66.8639 44.1258 66.8839 44.1158 66.8939 44.1058C66.7939 44.1558 66.8339 44.1358 66.8639 44.1158C66.8939 44.0958 66.9239 44.0958 66.9539 44.0858C66.9839 44.0858 67.0039 44.0758 67.0339 44.0658C67.0539 44.0658 67.0639 44.0658 67.0839 44.0658C66.9739 44.0858 67.0039 44.0658 67.0339 44.0658C67.0939 44.0658 67.1639 44.0658 67.2239 44.0658C67.2939 44.0658 67.1439 44.0458 67.1839 44.0658C67.2039 44.0658 67.2139 44.0658 67.2339 44.0658C67.2639 44.0658 67.2939 44.0758 67.3239 44.0858C67.3539 44.0958 67.3839 44.1058 67.4139 44.1158C67.4239 44.1158 67.4839 44.1458 67.4139 44.1158C67.3439 44.0858 67.4239 44.1158 67.4339 44.1258C67.4939 44.1558 67.5439 44.1858 67.5939 44.2158C67.6039 44.2158 67.6139 44.2258 67.6239 44.2358C67.6839 44.2758 67.5539 44.1758 67.6039 44.2258C67.6339 44.2458 67.6539 44.2658 67.6839 44.2958C67.7239 44.3358 67.7639 44.3758 67.8039 44.4258C67.8139 44.4358 67.8239 44.4558 67.8439 44.4658C67.7739 44.3858 67.8039 44.4158 67.8239 44.4358C67.8439 44.4658 67.8639 44.4958 67.8839 44.5258C67.9139 44.5758 67.9539 44.6358 67.9739 44.6958C67.9839 44.7258 68.0039 44.7558 68.0139 44.7858C67.9539 44.6758 68.0139 44.7858 68.0239 44.8258C68.0439 44.8858 68.0639 44.9558 68.0839 45.0158C68.0839 45.0458 68.1039 45.0758 68.1039 45.1158C68.1039 45.1258 68.1039 45.1458 68.1039 45.1558C68.1039 45.1658 68.1139 45.2558 68.1039 45.1858C68.0939 45.1158 68.1039 45.2258 68.1039 45.2458C68.1039 45.2758 68.1039 45.3158 68.1039 45.3458C68.1039 45.4158 68.1039 45.4858 68.1039 45.5558C68.1039 45.5858 68.1039 45.6258 68.1039 45.6558C68.1039 45.7358 68.1239 45.5558 68.1039 45.6358C68.1039 45.6458 68.1039 45.6658 68.1039 45.6758C68.0939 45.7458 68.0739 45.8158 68.0539 45.8858C68.0539 45.9158 68.0339 45.9458 68.0239 45.9758C68.0239 45.9958 68.0139 46.0058 68.0039 46.0258C67.9839 46.0758 68.0439 45.9358 68.0139 45.9958C67.9739 46.0658 67.9439 46.1458 67.8939 46.2158C67.8939 46.2258 67.8739 46.2458 67.8639 46.2558C67.8639 46.2658 67.8439 46.2858 67.8339 46.2958C67.8639 46.2558 67.8739 46.2458 67.8539 46.2658C67.8239 46.3058 67.7939 46.3358 67.7639 46.3658C67.7339 46.4058 67.6939 46.4358 67.6539 46.4658C67.5939 46.5258 67.7239 46.4258 67.6539 46.4658C67.6339 46.4758 67.6139 46.4958 67.5939 46.5058C67.5839 46.5058 67.5639 46.5258 67.5539 46.5258C67.5439 46.5258 67.5239 46.5458 67.5139 46.5458C67.4739 46.5658 67.4839 46.5558 67.5339 46.5458C67.5339 46.5458 67.4239 46.5858 67.4039 46.5858C67.3839 46.5858 67.3539 46.5858 67.3439 46.5958C67.4039 46.5958 67.4139 46.5958 67.3739 46.5958H67.3539C67.3539 46.5958 67.3039 46.5958 67.2839 46.5958C67.3439 46.5958 67.3639 46.6058 67.3339 46.5958C67.3239 46.5958 67.3139 46.5958 67.3039 46.5958C67.2839 46.5958 67.2639 46.5858 67.2439 46.5758C67.1739 46.5558 67.3239 46.6158 67.2539 46.5758C67.2239 46.5558 67.1839 46.5258 67.1439 46.5058C67.1439 46.5058 67.2139 46.5658 67.1739 46.5258C67.1539 46.5058 67.1339 46.4958 67.1239 46.4758C67.1139 46.4658 67.1039 46.4458 67.0939 46.4358C67.1639 46.4858 67.1239 46.4758 67.1039 46.4358C67.0939 46.4158 67.0839 46.3958 67.0739 46.3858C67.0339 46.3258 67.1039 46.4658 67.0739 46.4058C67.0739 46.3858 67.0639 46.3658 67.0539 46.3458V46.3258C67.0539 46.3258 67.0539 46.2958 67.0539 46.3658C67.0539 46.3558 67.0539 46.3358 67.0539 46.3258C67.0339 46.3858 67.0539 46.2258 67.0539 46.3258C67.0539 46.3158 67.0539 46.2958 67.0639 46.2858C67.0739 46.2458 67.0639 46.2558 67.0439 46.3158C67.0439 46.3058 67.0539 46.2958 67.0639 46.2758C67.1639 46.1058 67.1039 45.8558 66.9339 45.7658C66.7639 45.6758 66.5239 45.7158 66.4239 45.8958C66.1639 46.3458 66.3939 46.8658 66.7939 47.1458C67.1939 47.4258 67.7139 47.3358 68.0839 47.0558C68.7539 46.5558 68.9839 45.6958 68.8339 44.8958C68.7039 44.2058 68.2439 43.5658 67.5639 43.3358C67.2139 43.2158 66.8539 43.2458 66.5139 43.3958C66.2139 43.5258 65.9639 43.7758 65.7739 44.0458C65.5839 44.3358 65.4539 44.7058 65.4639 45.0558C65.4839 45.4758 65.6739 45.8158 66.0139 46.0558C66.1739 46.1658 66.4339 46.0858 66.5239 45.9258C66.6239 45.7358 66.5639 45.5358 66.3939 45.4158L66.4039 45.4558Z" fill="#FFB800"/>
</svg>
