<svg width="100" height="100" viewBox="0 0 100 100" fill="none" xmlns="http://www.w3.org/2000/svg">
<g clip-path="url(#clip0_4008_34614)">
<rect x="68.3711" y="23.7266" width="9.90415" height="26.5176" rx="3.19489" fill="#4667C5"/>
<rect x="19.4893" y="50.2441" width="61.0224" height="49.8403" rx="3.19489" fill="#FFFFE0"/>
<path d="M54.3135 71.65C54.3135 69.8855 55.7439 68.4551 57.5084 68.4551H66.454C68.2185 68.4551 69.6489 69.8855 69.6489 71.65V100.084H54.3135V71.65Z" fill="#FEDC54"/>
<circle cx="68.2109" cy="85.0673" r="1.91693" fill="#4667C5"/>
<rect x="25.8789" y="64.9395" width="19.1693" height="12.1406" rx="1.91693" fill="#C9EAEE"/>
<path d="M47.92 23.913C49.1167 22.8865 50.8833 22.8865 52.08 23.913L86.7491 53.6495C89.0001 55.5803 87.6347 59.2695 84.6691 59.2695H15.3309C12.3653 59.2695 10.9998 55.5803 13.2509 53.6496L47.92 23.913Z" fill="#F45E5D"/>
<path fill-rule="evenodd" clip-rule="evenodd" d="M78.7549 2C80.308 2.0001 81.7206 2.60034 82.7754 3.58008C83.7799 2.79126 85.0456 2.32039 86.4219 2.32031C89.6862 2.32031 92.333 4.96618 92.333 8.23047C92.333 11.355 89.9082 13.9116 86.8379 14.125C87.0844 14.7757 87.2207 15.4807 87.2207 16.2178C87.2207 19.482 84.5748 22.1278 81.3105 22.1279C79.3008 22.1279 77.5259 21.1246 76.458 19.5918C75.874 19.785 75.2503 19.8916 74.6016 19.8916C71.3373 19.8916 68.6905 17.2457 68.6904 13.9814C68.6904 11.3234 70.4453 9.07547 72.8594 8.33203C72.8496 8.19299 72.8438 8.05267 72.8438 7.91113C72.8438 4.64683 75.4906 2 78.7549 2Z" fill="white"/>
</g>
<defs>
<clipPath id="clip0_4008_34614">
<rect width="100" height="100" fill="white"/>
</clipPath>
</defs>
</svg>
