<svg width="100" height="100" viewBox="0 0 100 100" fill="none" xmlns="http://www.w3.org/2000/svg">
<path d="M26.45 43.2002C24.81 40.7602 26.02 35.2202 27.7 32.8202C31.34 27.6202 38.83 25.5502 44.62 28.1402C45.38 28.4802 46.33 28.8702 46.96 28.3302C47.22 28.1102 47.35 27.7902 47.5 27.4802C49.56 23.2702 55.21 22.4202 59.87 22.9802C63.95 23.4702 68.29 24.8702 70.53 28.3202C72.8 31.8102 72.27 36.3502 71.65 40.4702C75.67 42.0602 79.46 44.4002 82.24 47.7102C85.02 51.0202 86.69 55.3802 86.25 59.6802C85.67 65.3102 81.72 69.9602 77.71 73.9502C73.87 77.7802 69.8 81.4002 65.29 84.4102C61.56 86.8902 57.44 88.9702 53 89.5102C47.69 90.1502 42.14 88.4402 38.12 84.9202C34.1 81.4002 31.66 76.1302 31.59 70.7802C28.23 72.5302 23.9 71.8802 20.89 69.5902C17.88 67.3002 16.14 63.5602 15.82 59.7902C15.21 52.5702 19.94 45.2302 26.78 42.8102" fill="#FFE3B7"/>
<path d="M24.51 52.7297C22.84 53.8197 22.46 56.0897 22.46 58.0897C22.46 59.1197 22.57 60.2697 23.33 60.9697C23.81 61.4097 24.47 61.5997 25.1 61.7697C26.52 62.1497 27.97 62.5097 29.44 62.4597C30.91 62.4097 32.43 61.8897 33.38 60.7697C34.39 59.5797 34.62 57.9197 34.63 56.3597C34.63 54.9797 34.46 53.4897 33.51 52.4997C32.38 51.3297 30.57 51.2397 28.95 51.2197C27.44 51.2097 25.75 51.2597 24.69 52.3297" fill="#FFA597"/>
<path d="M35.6598 36.8996C34.7198 36.8296 33.8498 37.5196 33.4598 38.3796C33.0698 39.2396 33.0798 40.2196 33.1998 41.1596C33.4898 43.4596 34.5798 45.8296 36.6498 46.8796C38.1398 47.6296 39.9198 47.5896 41.5298 47.1695C44.0598 46.4995 46.5498 44.5295 46.6098 41.9195C46.6398 40.4395 45.8898 39.0496 44.9698 37.8896C43.8398 36.4596 42.3598 35.2096 40.5798 34.8296C38.7998 34.4496 36.7198 35.1296 35.8698 36.7296" fill="#FFA597"/>
<path d="M58.5598 29.5006C56.1498 29.6906 53.9298 31.4006 53.1298 33.6806C52.3298 35.9606 52.9998 38.6906 54.7698 40.3306C56.5398 41.9706 59.2998 42.4606 61.5198 41.5106C62.4398 41.1106 63.2598 40.5006 63.9698 39.7906C64.7398 39.0106 65.4098 38.0906 65.6798 37.0306C66.1098 35.4006 65.5498 33.6306 64.5298 32.2906C63.0698 30.3906 60.6598 29.2606 58.2598 29.3706" fill="#FFA597"/>
<path d="M57.1602 77.5002C61.3402 73.5402 62.0902 68.6402 68.2902 67.6002C73.4502 66.7302 76.8902 62.9502 76.9002 57.7102C76.9002 52.7502 72.1802 49.5902 67.5802 48.4902C66.1702 48.1602 64.7302 48.0202 63.2802 47.9502C53.6402 47.5002 43.2502 53.8602 40.4102 63.3302C37.2002 74.0602 46.8302 87.2802 57.1502 77.5002H57.1602Z" fill="#FFA597"/>
<path d="M59.93 54.8197C60.26 54.7197 60.58 54.6397 60.92 54.5797C61 54.5597 61.09 54.5497 61.17 54.5397C60.87 54.5797 60.83 54.5797 61.04 54.5597C61.21 54.5497 61.38 54.5297 61.55 54.5197C61.89 54.4997 62.23 54.5097 62.57 54.5297C62.65 54.5297 62.74 54.5397 62.82 54.5497C63.03 54.5697 62.99 54.5697 62.69 54.5297C62.72 54.5797 63.12 54.5997 63.19 54.6197C63.52 54.6897 63.85 54.7697 64.18 54.8797C64.34 54.9297 64.5 54.9897 64.66 55.0497C64.85 55.1297 64.82 55.1097 64.56 54.9997C64.64 55.0297 64.71 55.0697 64.79 55.1097C65.1 55.2597 65.39 55.4197 65.68 55.5997C65.82 55.6897 65.96 55.7897 66.1 55.8797C66.27 55.9997 66.24 55.9797 66.02 55.8097C66.09 55.8597 66.15 55.9197 66.22 55.9697C66.99 56.6097 68.19 56.7797 68.93 55.9697C69.58 55.2597 69.75 53.9397 68.93 53.2597C66.16 50.9597 62.39 50.0597 58.92 51.1297C57.96 51.4197 57.26 52.4797 57.58 53.4897C57.9 54.4997 58.91 55.1397 59.94 54.8297L59.93 54.8197Z" fill="#FFE3D2"/>
<path d="M38.7902 39.3704C39.1202 39.2504 39.4602 39.1604 39.8102 39.1204L39.4702 39.1704C39.9102 39.1104 40.3502 39.1104 40.7902 39.1704L40.4502 39.1204C40.5102 39.1204 40.5702 39.1404 40.6302 39.1504C40.8002 39.2004 40.9702 39.2104 41.1402 39.1704C41.3102 39.1704 41.4702 39.1104 41.6202 39.0204C41.8902 38.8604 42.1402 38.5604 42.2102 38.2604C42.2802 37.9304 42.2702 37.5704 42.0802 37.2804C41.9102 37.0204 41.6402 36.7504 41.3202 36.6904C40.7802 36.6004 40.2502 36.5404 39.7002 36.5904C39.1502 36.6404 38.6202 36.7304 38.1102 36.9204C37.7902 37.0404 37.5202 37.2104 37.3502 37.5104C37.1902 37.7804 37.1202 38.1904 37.2202 38.4904C37.3202 38.7904 37.5102 39.1004 37.8102 39.2504C38.1102 39.4004 38.4702 39.5004 38.7902 39.3804V39.3704Z" fill="#FFE3D2"/>
<path d="M59.2499 33.7405H59.2699C59.1699 33.7705 59.0699 33.8205 58.9599 33.8605C59.0699 33.8105 59.1899 33.7805 59.3099 33.7705L58.9699 33.8205C59.0999 33.8005 59.2199 33.8005 59.3499 33.8205L59.0099 33.7705C59.1499 33.7905 59.2799 33.8205 59.3999 33.8805L59.0899 33.7505C59.2099 33.8005 59.3199 33.8605 59.4199 33.9405L59.1599 33.7405C59.2499 33.8105 59.3299 33.8905 59.3999 33.9805L59.1999 33.7205V33.7405C59.2899 33.8905 59.3999 34.0105 59.5399 34.1005C59.6599 34.2105 59.8099 34.2905 59.9699 34.3305C60.1399 34.3805 60.3099 34.3905 60.4799 34.3505C60.6499 34.3505 60.8099 34.2905 60.9599 34.2005C61.2299 34.0205 61.4699 33.7605 61.5499 33.4405L61.5999 33.1005C61.5999 32.8705 61.5399 32.6505 61.4299 32.4505C61.3199 32.3005 61.2099 32.1405 61.0699 32.0105C60.9299 31.8805 60.7899 31.7705 60.6299 31.6705C60.5599 31.6205 60.4899 31.5805 60.4099 31.5505C60.2399 31.4705 60.0599 31.3905 59.8799 31.3405C59.6999 31.2905 59.4999 31.2705 59.3199 31.2505C59.2399 31.2505 59.1499 31.2405 59.0699 31.2505C58.8799 31.2605 58.6799 31.2905 58.4899 31.3305C58.2999 31.3705 58.1299 31.4605 57.9599 31.5405C57.8099 31.6205 57.6899 31.7305 57.5999 31.8705C57.4899 31.9905 57.4099 32.1405 57.3699 32.3005C57.3199 32.4705 57.3099 32.6405 57.3499 32.8105C57.3499 32.9805 57.4099 33.1405 57.4999 33.2905C57.6799 33.5605 57.9399 33.8005 58.2599 33.8805L58.5999 33.9305C58.8299 33.9305 59.0499 33.8705 59.2499 33.7605V33.7405Z" fill="#FFE3D2"/>
<path d="M27.3398 55.8706C27.6598 55.7406 27.9998 55.6506 28.3398 55.6006L27.9998 55.6506C28.3598 55.6006 28.7198 55.6006 29.0798 55.6506L28.7398 55.6006C28.7898 55.6006 28.8498 55.6206 28.8998 55.6306C29.0698 55.6806 29.2398 55.6906 29.4098 55.6506C29.5798 55.6506 29.7398 55.5906 29.8898 55.5006C30.1598 55.3406 30.4098 55.0406 30.4798 54.7406C30.5498 54.4106 30.5398 54.0506 30.3498 53.7606C30.1798 53.5006 29.9098 53.2306 29.5898 53.1706C29.0998 53.0806 28.6098 53.0306 28.1098 53.0906C27.6098 53.1506 27.1298 53.2306 26.6698 53.4206C26.4998 53.4606 26.3598 53.5406 26.2398 53.6506C26.0998 53.7406 25.9898 53.8606 25.9098 54.0106C25.7498 54.2806 25.6798 54.6906 25.7798 54.9906C25.8798 55.2906 26.0698 55.6006 26.3698 55.7506L26.6798 55.8806C26.9098 55.9406 27.1298 55.9406 27.3598 55.8806L27.3398 55.8706Z" fill="#FFE3D2"/>
</svg>
