<svg width="100" height="100" viewBox="0 0 100 100" fill="none" xmlns="http://www.w3.org/2000/svg">
<path d="M49.7002 67.8392C48.7002 67.8692 47.7002 67.7892 46.7002 67.7892C46.2102 67.7892 45.7202 67.8692 45.2302 67.8692C44.6402 67.8692 44.0802 67.7092 43.5202 67.5592L43.9802 67.7292C43.3202 67.4292 42.6102 67.3592 41.9102 67.1892C41.2902 67.0292 40.6902 66.8392 40.0902 66.6292L40.5802 66.8092C36.4202 65.2492 32.6302 62.8392 29.7802 59.3992L30.2602 59.9792C29.6102 59.1792 29.0102 58.3292 28.5002 57.4292C28.2602 57.0092 28.0502 56.5792 27.8302 56.1592C27.4902 55.4892 28.1702 56.9992 27.9202 56.3492C27.8202 56.0992 27.7202 55.8492 27.6202 55.5892C27.5402 55.3692 27.4602 55.1392 27.3902 54.9092C27.0802 53.9292 27.6602 56.0392 27.4702 55.2192C27.4102 54.9492 27.3502 54.6892 27.2902 54.4192C27.1202 53.6592 27.4502 55.6592 27.3602 54.8392C27.3302 54.5692 27.3102 54.2992 27.2802 54.0292C27.3602 55.2492 27.3802 55.6092 27.3602 55.1192C27.3602 55.0192 27.3602 54.9192 27.3502 54.8192C27.3502 54.6892 27.3502 54.5492 27.3502 54.4192C27.3502 53.8192 27.3502 54.1492 27.3302 55.4092C27.3402 55.1692 27.3502 54.9392 27.3702 54.6992C27.3702 54.5992 27.3802 54.4992 27.3902 54.3992C27.4402 53.8492 27.4102 54.1292 27.3002 55.2292C27.3402 54.9592 27.3702 54.6892 27.4202 54.4292C27.4502 54.2292 27.4902 54.0292 27.5302 53.8292C27.6702 53.0392 27.2002 55.1892 27.4902 54.0492C27.6102 53.5792 27.7402 53.1192 27.8902 52.6692C27.9502 52.4692 28.0202 52.2792 28.0902 52.0792C28.2302 51.6992 28.1802 51.8192 27.9502 52.4392C28.0002 52.3092 28.0502 52.1792 28.1002 52.0492C28.8702 50.1492 29.8802 48.3592 31.0202 46.6592L30.6002 47.2692C34.7302 41.3192 40.6702 36.7292 47.0902 33.4592L46.6502 33.6792C50.4702 31.7592 54.5202 30.3092 58.7302 29.4892C63.0802 28.6392 67.7002 28.5792 71.7602 30.5592L71.3302 30.3492C73.3402 31.3592 75.1102 32.7992 76.3602 34.6992L75.9702 34.0792C76.1802 34.4092 76.3802 34.7492 76.5502 35.1092C76.6602 35.3192 76.7402 35.5492 76.8402 35.7592C77.0302 36.1592 76.6902 35.3192 76.7002 35.3492C76.7702 35.4792 76.8002 35.6592 76.8402 35.8092C76.8702 35.9192 76.9002 36.0392 76.9302 36.1592C77.0802 36.6292 76.7902 35.4192 76.7802 35.4792C76.7602 35.6692 76.8602 35.9992 76.9102 36.1792C76.9502 36.3192 76.7402 34.6892 76.7902 35.2792C76.7902 35.3992 76.8102 35.5192 76.8302 35.6392C76.9202 36.5292 76.7602 33.8492 76.7902 35.0392C76.7902 35.1592 76.7902 35.2792 76.7902 35.3992V34.1992C76.8002 34.2792 76.7902 34.3592 76.7902 34.4392C76.7902 34.6792 76.7702 34.9192 76.7602 35.1592C76.7602 35.2792 76.7402 35.3992 76.7402 35.5192C76.7002 36.1292 76.8402 34.4192 76.8202 34.5892C76.7802 34.8492 76.7702 35.1192 76.7402 35.3892C76.6902 35.8392 76.6302 36.2792 76.5602 36.7292C76.5402 36.8392 76.5202 36.9492 76.5102 37.0592C76.3902 37.8092 76.6302 36.4092 76.6202 36.4192C76.5602 36.6692 76.5202 36.9292 76.4702 37.1892C76.2802 38.0992 76.0502 38.9992 75.8202 39.9092C75.7702 40.0992 75.6002 40.4392 75.8802 39.7492C75.8402 39.8492 75.8102 39.9592 75.7802 40.0692C75.7102 40.2792 75.6402 40.4992 75.5602 40.7092C75.4002 41.1692 75.2502 41.6292 75.0802 42.0792C74.4202 43.8792 73.6402 45.6092 72.7802 47.3192C71.7702 49.3392 70.6302 51.2892 69.3902 53.1692L69.8302 52.4992L69.2602 53.3592L69.7002 52.6892C67.3302 56.2592 64.6002 59.5592 61.7202 62.7392C60.2202 64.3892 58.6802 65.9992 57.1102 67.5792C55.5402 69.1592 53.8502 70.6792 52.3202 72.3292C51.4002 73.3192 50.4402 74.2892 49.5502 75.2992C48.4702 76.5192 47.6302 77.9992 46.7202 79.3492C46.3502 79.8892 46.2602 80.6392 46.1802 81.2692C46.0702 82.1192 46.0502 83.0092 46.1802 83.8592C46.2702 84.4492 46.3802 85.0492 46.5902 85.6092C46.6702 85.8192 47.1602 86.9092 47.6302 86.7492C48.9602 86.3092 50.3102 85.9592 51.4602 85.1592C52.6102 84.3592 53.8602 83.5492 54.9402 82.6192C57.2202 80.6592 59.4602 78.6392 61.6102 76.5292C66.0302 72.1792 69.9402 67.3192 73.0802 61.9692C76.3502 56.4092 78.3802 50.3292 79.4302 43.9792C80.2102 39.2892 80.3402 34.3492 79.5202 29.6592C78.9302 26.2392 77.6502 22.8592 74.9902 20.5092C70.4702 16.5192 64.1802 16.2492 58.5502 17.4492C52.8702 18.6592 47.3502 20.9592 42.3902 23.9692C37.6702 26.8392 33.2702 30.4592 29.9602 34.9092C27.9802 37.5692 26.4302 40.3692 25.2802 43.4892C23.9602 47.0692 23.4902 50.9092 23.5002 54.7192C23.5202 58.8092 24.3502 62.8892 26.1202 66.5892C27.2902 69.0192 29.1502 71.2092 31.2002 72.9592C33.2502 74.7092 35.7102 76.1192 38.2902 77.0492C39.5502 77.4992 40.9502 77.7192 42.2902 77.7992C42.9702 77.8392 43.5502 77.8192 44.2102 77.6792C44.9102 77.5292 45.6202 77.4092 46.3202 77.2692C47.9002 76.9392 49.1502 75.8692 50.2002 74.7092C51.0602 73.7592 51.0302 72.0492 50.9502 70.8692C50.9002 70.2092 50.8302 69.4892 50.5802 68.8792C50.4402 68.5292 50.2002 67.8692 49.7302 67.8792L49.7002 67.8392Z" fill="#E9526D"/>
</svg>
