<svg width="100" height="100" viewBox="0 0 100 100" fill="none" xmlns="http://www.w3.org/2000/svg">
<path d="M22.8684 66.5972C16.9664 66.5617 12.4155 60.553 12.8421 54.8643C13.2688 49.1756 19.5263 45.3713 25.0373 45.6558C27.9883 45.798 30.7615 47.1846 32.6103 49.4956C34.4591 51.8067 35.5969 55.5043 34.1747 58.3842C32.9659 60.8374 30.0149 62.5441 27.2772 62.1885C23.7217 61.7619 22.1929 57.7798 21.6596 54.6866C21.0907 51.38 21.6596 47.5401 24.1128 45.0513C26.1039 42.9892 29.4815 42.1359 32.1837 43.167C34.8858 44.198 35.8102 46.7224 35.028 49.3179C34.2458 51.9133 31.7926 53.4422 29.1971 52.0911C26.0683 50.4911 24.0773 46.8646 23.3307 43.558C22.584 40.2515 23.1529 36.625 25.0728 33.7451C26.8861 31.0429 29.8726 29.0874 33.0725 28.5186C35.8102 28.0564 40.1834 28.803 40.7523 32.1451C41.3211 35.4872 38.0857 37.8694 35.0991 38.0116C31.9348 38.1538 29.2682 36.1628 28.2371 33.2117C25.8906 26.4209 32.077 20.2344 38.619 19.8078C45.161 19.3811 51.3475 23.2565 53.2318 29.3719C55.1162 35.4872 52.5563 42.3492 47.2587 45.5491C45.801 46.438 43.6677 47.2557 42.1389 46.0824C40.8945 45.1224 40.5034 43.2736 40.6811 41.7803C41.1078 38.616 43.9521 36.0561 46.8676 35.1317C50.1386 34.1006 54.1562 34.9539 55.2584 38.5449C56.2895 41.9581 54.6896 45.2647 52.5207 47.8246C51.3119 49.2467 49.9253 50.5267 48.5387 51.7711C47.152 53.0155 45.6943 54.4021 43.881 54.8643C42.4944 55.2199 40.7167 54.7577 40.1123 53.3355C39.4367 51.7355 41.5345 50.74 42.6366 50.1712C45.9787 48.429 49.8542 46.438 53.694 47.5757C55.2584 48.0379 56.6095 49.0334 57.285 50.5623C58.0317 52.2689 57.7472 54.2243 57.285 55.9309C56.8228 57.6376 56.0406 59.4153 55.2229 61.0863C54.4051 62.7574 53.6229 64.3218 52.4496 65.6373C50.7075 67.5217 47.3298 68.9083 45.161 66.775C42.6366 64.2507 46.6543 61.1219 48.6098 59.9486C51.4541 58.2064 55.7562 55.8598 58.4939 58.9531C63.6848 64.784 55.9695 73.2815 51.4185 76.7302C48.7164 78.7924 45.4454 80.499 41.9611 80.499C38.7612 80.499 35.9524 78.7924 34.3169 76.0903C32.6814 73.3881 32.077 70.0816 32.077 66.9172C32.077 63.2196 32.717 59.3086 34.4236 56.0021C36.1302 52.6955 38.939 50.0645 42.6011 49.2112C45.9076 48.429 49.1075 49.6734 51.3119 52.1977C56.3606 58.0287 54.0496 66.135 50.423 72.0015C48.4675 75.1658 46.0854 78.2946 42.7789 80.1434C41.3922 80.9256 39.7923 81.4945 38.1924 81.2456C36.5213 80.9612 35.2413 79.8235 34.4591 78.3657C32.7881 75.2725 33.0014 71.1482 33.7481 67.8061C34.5658 64.144 36.308 60.6241 38.6546 57.7087C43.4899 51.6644 50.743 47.9312 58.1739 46.1535C62.0849 45.2291 66.5647 44.8736 70.0846 47.149C73.2844 49.2112 74.5644 52.66 73.2489 56.2154C71.9334 59.7708 69.3735 62.9352 66.8847 65.6373C64.3959 68.3394 61.4093 70.7927 58.2094 72.7481C56.7161 73.6726 55.1162 74.6325 53.4451 75.2014C52.7341 75.4503 51.8808 75.6992 51.1697 75.4503C50.3164 75.2014 50.1386 74.3125 50.103 73.5303C49.8897 69.9749 51.2052 66.2061 53.0896 63.2551C57.1072 56.9265 64.8936 53.5488 72.2889 54.971C73.8533 55.2554 76.271 55.611 75.9866 57.6731C75.7732 59.3442 74.4933 60.9441 73.4622 62.2241C71.1867 65.0684 68.3069 67.3794 65.0359 68.9794C64.2537 69.3705 63.4715 69.6905 62.6182 69.9749C61.516 70.3304 60.7693 70.4016 60.2005 69.2638C59.4183 67.6283 58.9916 65.6728 58.7783 63.8951C58.3516 60.1264 58.9205 56.1798 60.5205 52.7311C63.507 46.2957 70.049 41.6026 77.1243 40.9981C77.7287 40.927 78.7243 40.7493 78.7954 41.567C78.8665 42.3492 78.1198 43.2381 77.7287 43.8425C76.7332 45.3358 75.5244 46.6513 74.1377 47.7535C71.4356 49.9578 68.0935 51.4511 64.6448 51.8778C60.8404 52.3755 56.8228 51.7355 54.5473 48.3579C52.6985 45.6558 51.8452 42.2425 51.7741 38.9716C51.6319 32.5007 54.5118 25.852 59.6671 21.8699C61.0538 20.8033 62.8315 19.63 64.6448 19.9856C66.1736 20.27 67.3469 21.5144 68.058 22.8299C69.9068 26.3498 67.8447 30.5452 65.9247 33.5673C64.0048 36.5894 61.5871 39.2915 58.3161 40.6426C55.5073 41.7803 51.8808 41.6737 49.4631 39.7182C47.0454 37.7627 46.6898 34.2784 47.8631 31.4696C49.2142 28.1986 52.0941 26.1009 55.3651 25.0698C58.8494 23.9321 62.6537 23.7187 66.2803 23.8965C69.1957 24.0387 72.4311 24.572 74.8488 26.3498C77.4088 28.2341 78.1554 31.4696 76.911 34.385C75.5244 37.6916 72.5378 40.2515 69.5513 42.1714L71.3645 43.9847C72.7867 41.1048 75.3466 38.936 78.4398 38.0827C81.142 37.3361 84.5907 37.6205 86.5107 39.9315C88.8572 42.7759 85.4796 46.4735 83.8085 48.7845C81.5331 51.9489 78.9731 54.8999 76.271 57.7087L78.5109 58.9886C79.2576 56.8198 82.5286 57.1042 83.7374 58.6331C85.5862 60.9797 84.5196 64.3929 82.7775 66.455C80.6442 69.0149 77.551 70.8282 74.6 72.3215C71.4712 73.8859 68.0224 74.9881 64.5025 75.2369C58.6361 75.628 52.2008 73.4237 48.7875 68.375C47.8987 67.0594 47.0454 65.4595 47.0809 63.8596C47.1165 62.2596 48.3253 61.193 49.7119 60.553C51.9874 59.4508 54.8673 59.593 57.0717 60.8374C59.1338 62.0107 60.4849 64.3218 59.6316 66.6684C58.8494 68.8727 56.6095 70.4016 54.4051 70.8638C48.9297 72.0015 45.9787 65.6017 46.6898 61.0508C47.6498 55.1488 53.694 51.7355 59.1694 51.0245C61.9071 50.6689 64.9647 50.8467 67.3824 52.3044C70.0135 53.9044 70.8312 56.8198 70.0846 59.6997C69.2313 63.0063 67.0625 65.7795 64.8581 68.3039C62.476 71.0415 59.8449 73.5303 56.965 75.7703C56.2895 76.3036 53.7651 78.6857 53.054 77.4769C52.4496 76.4102 53.1963 74.597 53.5163 73.5659C54.4762 70.4727 56.0762 67.5572 58.1739 65.0684C59.2049 63.8596 60.3427 62.7574 61.5871 61.7263L59.4894 61.4419C62.1204 67.3439 60.6271 75.7347 54.1207 78.3657C51.383 79.4679 48.112 79.539 45.481 78.0813C43.0277 76.7302 41.6767 74.2059 41.6767 71.4326C41.6767 68.6594 43.0277 65.5306 45.7654 64.464L44.7343 64.3218C46.0498 64.9617 46.4765 66.4195 46.1921 67.8061C45.8365 69.5127 44.3432 70.4371 42.6722 70.4727C38.0857 70.5793 36.0946 65.8506 35.9524 61.9396L34.2814 63.2196C36.5568 63.6107 38.4412 64.8551 39.6145 66.8106L40.3967 64.8551C36.3435 66.4195 32.6103 68.5527 29.2327 71.2549C27.5972 72.5348 26.175 74.0281 24.6106 75.3792C23.2951 76.5169 21.5529 77.4058 19.8819 76.3747C16.9309 74.5259 16.7531 70.2238 17.4997 67.2017C18.3886 63.6462 20.6641 60.5886 23.4373 58.242C25.0373 56.8909 26.8505 55.7887 28.7349 54.971C29.4815 54.651 30.2282 54.4732 31.0459 54.5799C31.3304 54.6154 31.7926 54.6866 32.0059 54.8999C32.1481 55.0421 32.1126 54.6866 32.0059 55.0777C31.5081 56.7132 34.0681 57.4242 34.5658 55.7887C35.1347 53.9044 33.7481 52.4822 31.9704 52.0555C29.8726 51.5578 28.0238 52.2689 26.175 53.2288C22.1218 55.3265 18.5308 58.5975 16.3976 62.6507C14.2643 66.7039 13.5888 71.3615 15.6154 75.4147C16.5398 77.2635 18.1397 78.899 20.2019 79.3968C22.584 79.9657 24.7173 78.7924 26.4594 77.2991C28.6638 75.3792 30.6548 73.3526 33.0725 71.6815C35.4902 70.0105 38.2635 68.5527 41.0722 67.4506C41.8544 67.1306 42.3522 66.3128 41.8544 65.4951C40.3612 62.9707 37.8368 61.1574 34.9214 60.6597C34.1036 60.5175 33.2147 61.0152 33.2503 61.9396C33.357 65.3173 34.388 68.9438 37.0902 71.1482C39.5079 73.1392 43.0988 73.8148 45.9076 72.2504C48.3609 70.8993 49.4631 67.8061 48.6453 65.1395C48.2542 63.8596 47.4365 62.7218 46.2632 62.0819C44.9477 61.3708 43.4544 62.4729 42.4589 63.3262C38.3346 66.7395 37.8368 73.637 41.0722 77.7613C44.841 82.5967 52.3074 82.8456 57.2139 79.6812C63.6492 75.4858 64.6803 66.6684 61.7293 60.0553C61.3382 59.202 60.236 59.3086 59.6316 59.7708C56.4673 62.4018 53.8718 65.7439 52.1652 69.4771C50.9563 72.1437 48.6809 77.228 51.4541 79.6457C53.2674 81.2101 55.5073 80.0368 57.1072 78.8635C58.9561 77.5124 60.7338 76.0547 62.4048 74.4903C65.5336 71.6104 68.6624 68.3394 70.7957 64.6062C72.7867 61.1574 73.96 56.7843 71.8623 53.1222C70.049 49.9223 66.3869 48.5357 62.867 48.2157C55.7206 47.5401 47.2587 51.2022 44.5921 58.2064C42.3167 64.1796 45.2677 72.8192 52.3785 73.5303C58.8139 74.1703 65.427 66.8106 61.0893 60.873C59.1338 58.2064 55.6495 56.9265 52.3785 57.1042C48.752 57.3531 44.5921 59.5575 44.3788 63.6107C44.1655 67.415 47.0809 71.1838 49.8897 73.4237C52.9118 75.8058 56.5028 77.2635 60.3427 77.7257C64.5381 78.2591 68.8402 77.4769 72.7511 75.948C76.6621 74.4192 80.7153 72.1793 83.773 69.1927C86.4396 66.5617 88.2173 62.6152 86.8307 58.882C85.6218 55.6821 82.2441 53.8688 78.9731 55.1132C77.4799 55.6821 76.4132 56.7487 75.9155 58.242C75.4888 59.5219 77.231 60.4464 78.1554 59.5219C80.7153 56.8909 83.0974 54.1177 85.2663 51.2022C87.2217 48.6068 90.1372 45.3358 89.995 41.8514C89.8883 39.0071 87.7551 36.8383 85.2307 35.7717C82.493 34.5984 79.3642 34.7406 76.6266 35.7717C73.3556 37.0161 70.6179 39.3982 69.0535 42.527C68.5202 43.6292 69.6935 45.1224 70.8668 44.3402C74.6 41.9226 78.3687 38.5805 79.7198 34.2073C80.9642 30.1896 79.3287 26.1009 75.9155 23.7899C72.7156 21.621 68.5202 21.0877 64.7159 21.0877C60.1294 21.0877 55.2584 21.5855 51.1697 23.861C47.5787 25.8876 44.9832 29.4786 44.4855 33.6384C43.9877 37.7983 46.1921 41.4248 49.9253 43.0247C58.7783 46.8291 66.8847 38.7227 70.0846 31.1852C71.8267 27.0964 71.9689 21.941 68.2357 18.8478C66.6002 17.4612 64.5737 16.8923 62.4404 17.319C60.3071 17.7456 58.3516 19.2389 56.7161 20.6966C50.6008 26.1364 47.8276 34.9539 49.4275 42.9536C50.2808 47.0779 52.4141 51.6289 56.4673 53.4777C60.5205 55.3265 65.7825 54.7577 69.9068 53.1222C74.0311 51.4867 77.5154 48.749 79.9331 45.0869C80.9997 43.4869 82.1019 41.1404 80.6797 39.3982C79.2576 37.656 76.4488 38.2249 74.4933 38.5805C65.5692 40.3226 58.245 47.469 56.3962 56.3932C55.4717 60.9086 55.7562 65.9217 57.6406 70.1882C58.6716 72.4637 60.6627 73.2459 63.0093 72.4993C65.1781 71.8237 67.3113 70.7215 69.1957 69.4416C72.7156 67.095 76.3066 63.6818 77.9421 59.6997C78.7598 57.7087 78.7954 55.3265 77.0177 53.8688C75.3111 52.4822 72.6445 52.1622 70.5468 51.9489C61.0893 51.0956 52.2719 56.7487 48.7875 65.4951C47.9342 67.5928 47.472 69.7971 47.3298 72.0726C47.1876 74.2059 47.5076 76.588 49.6053 77.6191C51.4897 78.5791 53.7296 77.868 55.5073 77.0502C57.605 76.0903 59.6316 74.917 61.516 73.6014C65.3203 70.9704 68.6979 67.735 71.5067 64.0373C74.3155 60.3397 77.2665 55.8598 76.1643 51.1311C75.1688 46.9002 71.1512 43.878 67.0625 43.0247C62.0493 41.9937 56.7161 43.3447 52.023 45.158C43.17 48.5357 35.3836 54.7932 32.0059 63.8951C30.4771 68.0905 29.8371 73.0681 31.1526 77.4058C32.4681 81.7434 35.9169 84.5166 40.3967 83.7344C44.8766 82.9522 48.3253 79.3613 50.8497 75.9125C53.694 72.0015 56.0406 67.5928 56.6806 62.7574C57.7472 54.6154 52.1652 45.0513 42.9566 46.3313C33.1081 47.7179 29.126 58.562 29.3393 67.3083C29.4104 71.2549 30.3348 75.4147 32.8236 78.5791C35.3124 81.7434 39.3656 83.4855 43.4899 82.9522C47.8631 82.4189 51.8097 79.9657 55.0095 77.0502C58.2094 74.1348 61.6937 69.9749 62.5471 65.4951C63.2937 61.6552 61.9071 57.0687 58.1739 55.291C56.0406 54.2955 53.6585 54.5443 51.5252 55.3621C49.392 56.1798 47.1876 57.3887 45.3388 58.8464C43.8099 60.0197 42.3522 61.5841 41.89 63.504C41.4278 65.424 41.9967 67.3794 43.4188 68.6949C46.3343 71.2904 50.743 70.6149 53.4807 68.1972C55.0807 66.8106 56.1828 64.9262 57.1428 63.0774C58.2094 60.9797 59.2049 58.8109 59.8449 56.5354C61.0538 52.2333 60.2005 47.4335 55.7917 45.4069C51.383 43.3803 46.5121 45.1224 42.3878 47.2201C40.5389 48.1446 38.4057 49.1401 37.5879 51.2022C36.8413 53.1222 37.7657 55.1488 39.3301 56.322C43.4188 59.4153 47.792 55.9665 50.8141 53.1577C54.0851 50.1712 57.4983 46.7224 58.1028 42.1003C58.6716 37.9405 56.8228 33.674 52.5919 32.3584C48.3609 31.0429 43.7033 32.6429 40.7878 35.7361C38.0146 38.6871 36.8057 43.3447 39.3301 46.8291C42.3522 50.9534 47.7209 48.749 50.8497 45.9757C56.645 40.7848 58.3161 31.2563 53.9785 24.6432C49.6408 18.0301 40.2189 14.9368 32.8236 18.4923C29.0549 20.3055 25.8905 23.8254 25.1795 28.0208C24.4684 32.2162 25.9261 36.4472 29.3038 38.8649C32.3259 41.0692 36.8057 41.1048 39.899 39.0071C43.4188 36.625 44.7343 31.5051 41.57 28.2341C38.6901 25.2476 33.8192 25.0698 30.1215 26.4209C26.175 27.8786 22.904 30.9363 21.3041 34.8473C19.7041 38.7582 19.9885 43.5225 21.7663 47.5046C23.4018 51.1667 27.0639 55.5043 31.5081 55.2199C35.028 55.0065 37.339 51.7711 37.7657 48.5001C38.2279 44.8025 36.0235 41.567 32.5037 40.4293C28.9838 39.2915 24.4684 40.5004 21.9085 43.3092C18.9219 46.6157 18.2108 51.2733 18.993 55.5043C19.7752 59.7353 22.1218 64.0373 26.5305 64.7129C30.1926 65.2817 34.0325 63.3618 35.988 60.233C38.1568 56.7487 37.4813 52.0911 35.3125 48.7845C33.1436 45.478 29.6593 43.3803 25.7128 42.9181C18.4241 42.1003 10.6378 47.0779 10.0333 54.7221C9.50002 61.833 15.4376 69.0505 22.7262 69.1216C24.4328 69.1216 24.4328 66.455 22.7262 66.455L22.8684 66.5972Z" fill="#343B3F"/>
</svg>
