<svg width="100" height="100" viewBox="0 0 100 100" fill="none" xmlns="http://www.w3.org/2000/svg">
<g clip-path="url(#clip0_3647_3435)">
<path d="M69.1661 46.8202C72.765 46.212 76.0619 44.4312 78.5438 41.755C81.0257 39.0788 82.5534 35.6573 82.8892 32.0229C83.225 28.3884 82.35 24.7449 80.4004 21.6593C78.4509 18.5737 75.536 16.219 72.1095 14.9617C68.683 13.7044 64.9369 13.615 61.4543 14.7073C57.9717 15.7997 54.9478 18.0126 52.8532 21.0016C50.7586 23.9907 49.7107 27.5883 49.8727 31.2346C50.0346 34.8809 51.3973 38.3715 53.7487 41.163L55.7999 39.4353C53.8296 37.096 52.6877 34.1711 52.552 31.1156C52.4163 28.0601 53.2944 25.0455 55.0496 22.5407C56.8048 20.036 59.3387 18.1817 62.257 17.2664C65.1753 16.351 68.3143 16.4259 71.1856 17.4795C74.0569 18.5331 76.4994 20.5062 78.1331 23.0919C79.7668 25.6775 80.5 28.7306 80.2186 31.7761C79.9372 34.8217 78.6571 37.6888 76.5773 39.9313C74.4976 42.1739 71.7349 43.6661 68.7192 44.1758L69.1661 46.8202Z" fill="#696969"/>
<path d="M54.6621 38.3809L57.0797 40.0964L28.4869 80.3898L26.0693 78.6742L54.6621 38.3809Z" fill="#696969"/>
<path d="M70.292 44.1953L67.341 43.9135L62.6447 93.0973L65.5957 93.3791L70.292 44.1953Z" fill="#696969"/>
<path d="M17.9336 42.7656L90.0947 61.7056L79.4332 102.326L7.27202 83.3861L17.9336 42.7656Z" fill="#45C5AB"/>
<path d="M9.5293 74.7832L81.6905 93.7232L80.8124 97.0684L8.65129 78.1284L9.5293 74.7832Z" fill="#3DA892"/>
<path d="M64.806 44.2242C68.3267 43.2615 71.4304 41.162 73.6342 38.2525C75.838 35.343 77.0183 31.7867 76.9914 28.1369C76.9645 24.487 75.7319 20.9485 73.4855 18.0718C71.2391 15.1951 68.1048 13.1416 64.5703 12.2308C61.0358 11.3201 57.2994 11.6032 53.9426 13.0361C50.5857 14.469 47.7965 16.9713 46.0092 20.1536C44.2218 23.3359 43.5365 27.0198 44.0599 30.632C44.5832 34.2442 46.2859 37.5821 48.9029 40.1264L50.7724 38.2034C48.5794 36.0714 47.1527 33.2744 46.7141 30.2475C46.2756 27.2206 46.8498 24.1336 48.3476 21.4669C49.8453 18.8003 52.1825 16.7034 54.9954 15.5027C57.8084 14.302 60.9393 14.0648 63.9011 14.828C66.8628 15.5911 69.4893 17.3119 71.3717 19.7224C73.2541 22.133 74.287 25.0982 74.3095 28.1566C74.332 31.215 73.343 34.1951 71.4963 36.6332C69.6496 39.0712 67.0488 40.8305 64.0986 41.6372L64.806 44.2242Z" fill="#696969"/>
<path d="M49.5371 37.2676L52.1132 38.7345L27.6641 81.6687L25.0881 80.2018L49.5371 37.2676Z" fill="#696969"/>
<path d="M65.667 41.5L62.7026 41.5127L62.915 90.9198L65.8794 90.907L65.667 41.5Z" fill="#696969"/>
</g>
<defs>
<clipPath id="clip0_3647_3435">
<rect width="100" height="100" fill="white"/>
</clipPath>
</defs>
</svg>
