<svg width="100" height="100" viewBox="0 0 100 100" fill="none" xmlns="http://www.w3.org/2000/svg">
<g clip-path="url(#clip0_3647_3493)">
<path d="M9.09082 54.6198C9.09082 43.0312 18.4853 33.6367 30.0739 33.6367H79.0169C90.6055 33.6367 99.9999 43.0312 99.9999 54.6198C99.9999 66.2084 90.6055 75.6029 79.0168 75.6029H30.0739C18.4852 75.6029 9.09082 66.2084 9.09082 54.6198Z" fill="#FFE5B7"/>
<path d="M37.3985 33.7432L37.2655 34.7655L37.3985 33.7432ZM43.6767 33.503L43.5506 32.4798L43.6767 33.503ZM47.8622 33.3001L47.6837 34.3154L47.8622 33.3001ZM49.9549 33.668L50.1334 32.6527L49.9549 33.668ZM52.0477 33.7477L51.9454 32.7218L52.0477 33.7477ZM56.2331 33.4143L56.2531 34.445L56.2331 33.4143ZM58.3259 33.3737L58.3059 32.343L58.3259 33.3737ZM62.5114 33.6227L62.4233 34.6498L62.5114 33.6227ZM66.6968 33.3268L66.5711 32.3036L66.6968 33.3268ZM70.8823 33.7364L70.7081 34.7525L70.8823 33.7364ZM75.0678 33.5522L75.1864 34.5762L75.0678 33.5522ZM79.2407 33.8246L79.112 34.8474L79.2407 33.8246ZM81.3498 33.9342L81.329 32.9035L81.3498 33.9342ZM85.5542 34.2397L85.9108 33.2724L85.5542 34.2397ZM87.562 34.9797L87.2055 35.947L87.562 34.9797ZM90.2023 36.7159L89.5417 37.5073L90.2023 36.7159ZM91.0206 37.399L91.6812 36.6076L91.0206 37.399ZM92.5142 38.8686L93.2963 38.197L92.5142 38.8686ZM93.865 40.4416L93.0829 41.1132L93.865 40.4416ZM95.1127 42.0715L94.2596 42.6504L95.1127 42.0715ZM95.685 42.9149L96.538 42.336L95.685 42.9149ZM96.2572 43.7583L95.4042 44.3371L96.2572 43.7583ZM97.2622 45.5253L96.3287 45.9626L97.2622 45.5253ZM98.1277 47.3727L99.0612 46.9354L98.1277 47.3727ZM98.8258 49.29L97.8298 49.5561L98.8258 49.29ZM99.3566 51.2774L98.3606 51.5434L99.3566 51.2774ZM99.6561 53.3058L100.686 53.2718L99.6561 53.3058ZM99.6903 54.3406L98.66 54.3746L99.6903 54.3406ZM99.7245 55.3754L100.755 55.3413L99.7245 55.3754ZM99.5665 57.4284L100.58 57.6195L99.5665 57.4284ZM99.1822 59.4648L98.1691 59.2736L99.1822 59.4648ZM98.57 61.4268L99.5118 61.8459L98.57 61.4268ZM98.15 62.3707L97.2081 61.9515L98.15 62.3707ZM97.7299 63.3145L96.7881 62.8954L97.7299 63.3145ZM96.7364 65.1123L97.5922 65.6871L96.7364 65.1123ZM95.5893 66.8202L94.7335 66.2455L95.5893 66.8202ZM94.2717 68.3802L93.5621 67.6324L94.2717 68.3802ZM92.7835 69.7923L92.0739 69.0445L92.7835 69.7923ZM91.1813 71.0515L91.7398 71.918L91.1813 71.0515ZM90.3231 71.6046L89.7646 70.7381L90.3231 71.6046ZM89.465 72.1578L90.0235 73.0243L89.465 72.1578ZM87.6709 73.1211L88.0847 74.0653L87.6709 73.1211ZM86.735 73.5313L86.3212 72.587L86.735 73.5313ZM85.799 73.9414L85.3852 72.9972L85.799 73.9414ZM83.8639 74.6239L84.1349 75.6185L83.8639 74.6239ZM81.8656 75.1683L81.5946 74.1737L81.8656 75.1683ZM77.7336 75.6784L77.8116 76.7063L77.7336 75.6784ZM75.6429 75.7339L75.6195 76.7645L75.6429 75.7339ZM74.5965 75.7102L74.5731 76.7408L74.5965 75.7102ZM73.5501 75.6865L73.5268 76.7171L73.5501 75.6865ZM70.411 75.6805L70.4022 74.6497L70.411 75.6805ZM67.2719 75.6862L67.2838 74.6554L67.2719 75.6862ZM65.1792 75.662L65.1672 76.6929L65.1792 75.662ZM63.0864 75.6489L63.0875 74.618L63.0864 75.6489ZM58.9009 75.5343L58.7919 76.5595L58.9009 75.5343ZM57.8546 75.423L57.7455 76.4481V76.4481L57.8546 75.423ZM56.8082 75.3117L56.9173 74.2866V74.2866L56.8082 75.3117ZM54.7155 75.1968L54.719 74.1659L54.7155 75.1968ZM52.6227 75.1895L52.6192 76.2204L52.6227 75.1895ZM50.53 75.3698L50.3516 74.3544L50.53 75.3698ZM48.4372 75.7375L48.6157 76.7529L48.4372 75.7375ZM46.3445 75.7835L46.2098 76.8056L46.3445 75.7835ZM44.2518 75.5078L44.3864 74.4857L44.2518 75.5078ZM36.9272 75.2863L36.8341 76.313L36.9272 75.2863ZM35.8808 75.1914L35.9738 74.1647L35.8808 75.1914ZM33.7881 75.3636L34.0429 76.3625L33.7881 75.3636ZM31.6953 75.8974L31.4405 74.8985L31.6953 75.8974ZM29.6072 75.944L29.8205 74.9354L29.6072 75.944ZM28.5654 75.7237L28.3521 76.7323L28.5654 75.7237ZM27.5236 75.5034L27.7369 74.4948L27.5236 75.5034ZM25.4447 75.0839L25.6391 74.0715L25.4447 75.0839ZM24.4075 74.8847L24.6019 73.8723L24.4075 74.8847ZM23.3703 74.6855L23.1759 75.6979L23.3703 74.6855ZM21.4125 73.9656L21.9199 73.0682L21.4125 73.9656ZM19.5711 72.9243L19.0636 73.8217L19.5711 72.9243ZM17.7738 71.8035L17.1914 72.6542L17.7738 71.8035ZM16.0206 70.6032L16.603 69.7526L16.0206 70.6032ZM14.581 69.1015L15.4555 68.5554L14.581 69.1015ZM14.018 68.1998L13.1436 68.7459L14.018 68.1998ZM13.455 67.2982L12.5806 67.8442L13.455 67.2982ZM11.4931 63.6277L10.5729 64.0926L11.4931 63.6277ZM10.5165 60.7172L11.5151 60.4609L10.5165 60.7172ZM10.2615 59.7235L9.26292 59.9798L10.2615 59.7235ZM9.6345 57.7159L8.66664 58.0708L9.6345 57.7159ZM8.70629 53.6226L9.72121 53.8034L8.70629 53.6226ZM8.89364 52.571L7.87871 52.3902L8.89364 52.571ZM9.08099 51.5194L8.06606 51.3386L9.08099 51.5194ZM9.72461 49.5197L10.6535 49.9667L9.72461 49.5197ZM10.6371 47.6235L9.70821 47.1764L10.6371 47.6235ZM11.5655 45.7641L10.6501 45.2899L11.5655 45.7641ZM12.5096 43.9417L13.425 44.4159L12.5096 43.9417ZM13.5925 42.1919L12.7592 41.585L13.5925 42.1919ZM14.814 40.515L15.6472 41.1219L14.814 40.515ZM17.9007 37.7791L18.5278 38.5974L17.9007 37.7791ZM20.6424 36.3804L20.2596 35.4232L20.6424 36.3804ZM23.4994 35.1246L23.0235 34.2101L23.4994 35.1246ZM32.1666 33.4857L32.2408 34.514L33.2872 34.4385L33.213 33.4102L33.1388 32.382L32.0925 32.4575L32.1666 33.4857ZM33.213 33.4102L33.2872 34.4385C33.9153 34.3932 34.5434 34.4113 35.1727 34.4932L35.3057 33.4709L35.4388 32.4486C34.6729 32.349 33.9059 32.3267 33.1388 32.382L33.213 33.4102ZM35.3057 33.4709L35.1727 34.4932L36.2191 34.6294L36.3521 33.6071L36.4851 32.5848L35.4388 32.4486L35.3057 33.4709ZM36.3521 33.6071L36.2191 34.6294L37.2655 34.7655L37.3985 33.7432L37.5315 32.7209L36.4851 32.5848L36.3521 33.6071ZM37.3985 33.7432L37.2655 34.7655C38.0269 34.8646 38.7894 34.8917 39.5521 34.8466L39.4912 33.8175L39.4304 32.7884C38.7979 32.8258 38.1653 32.8034 37.5315 32.7209L37.3985 33.7432ZM39.4912 33.8175L39.5521 34.8466L40.5984 34.7848L40.5376 33.7557L40.4767 32.7266L39.4304 32.7884L39.4912 33.8175ZM40.5376 33.7557L40.5984 34.7848L41.6448 34.7229L41.584 33.6938L41.5231 32.6647L40.4767 32.7266L40.5376 33.7557ZM41.584 33.6938L41.6448 34.7229C42.3643 34.6804 43.0837 34.6148 43.8028 34.5261L43.6767 33.503L43.5506 32.4798C42.8746 32.5631 42.1988 32.6248 41.5231 32.6647L41.584 33.6938ZM43.6767 33.503L43.8028 34.5261L44.8492 34.3972L44.7231 33.374L44.597 32.3508L43.5506 32.4798L43.6767 33.503ZM44.7231 33.374L44.8492 34.3972L45.8955 34.2682L45.7694 33.245L45.6433 32.2219L44.597 32.3508L44.7231 33.374ZM45.7694 33.245L45.8955 34.2682C46.491 34.1948 47.0859 34.2103 47.6837 34.3154L47.8622 33.3001L48.0407 32.2847C47.2433 32.1445 46.4431 32.1233 45.6433 32.2219L45.7694 33.245ZM47.8622 33.3001L47.6837 34.3154L48.73 34.4994L48.9086 33.484L49.0871 32.4687L48.0407 32.2847L47.8622 33.3001ZM48.9086 33.484L48.73 34.4994L49.7764 34.6834L49.9549 33.668L50.1334 32.6527L49.0871 32.4687L48.9086 33.484ZM49.9549 33.668L49.7764 34.6834C50.5657 34.8221 51.3578 34.8525 52.15 34.7735L52.0477 33.7477L51.9454 32.7218C51.3424 32.782 50.7393 32.7592 50.1334 32.6527L49.9549 33.668ZM52.0477 33.7477L52.15 34.7735L53.1963 34.6691L53.094 33.6433L52.9917 32.6175L51.9454 32.7218L52.0477 33.7477ZM53.094 33.6433L53.1963 34.6691L54.2427 34.5648L54.1404 33.539L54.0381 32.5132L52.9917 32.6175L53.094 33.6433ZM54.1404 33.539L54.2427 34.5648C54.9131 34.4979 55.5832 34.458 56.2531 34.445L56.2331 33.4143L56.2131 32.3836C55.4879 32.3977 54.7629 32.4409 54.0381 32.5132L54.1404 33.539ZM56.2331 33.4143L56.2531 34.445L57.2995 34.4247L57.2795 33.394L57.2595 32.3633L56.2131 32.3836L56.2331 33.4143ZM57.2795 33.394L57.2995 34.4247L58.3459 34.4044L58.3259 33.3737L58.3059 32.343L57.2595 32.3633L57.2795 33.394ZM58.3259 33.3737L58.3459 34.4044C59.0073 34.3916 59.6688 34.4136 60.3305 34.4703L60.4186 33.4432L60.5067 32.416C59.7733 32.3531 59.0397 32.3288 58.3059 32.343L58.3259 33.3737ZM60.4186 33.4432L60.3305 34.4703L61.3769 34.5601L61.465 33.5329L61.5531 32.5058L60.5067 32.416L60.4186 33.4432ZM61.465 33.5329L61.3769 34.5601L62.4233 34.6498L62.5114 33.6227L62.5995 32.5955L61.5531 32.5058L61.465 33.5329ZM62.5114 33.6227L62.4233 34.6498C63.1923 34.7158 63.9616 34.7015 64.7298 34.6071L64.6041 33.5839L64.4784 32.5607C63.8515 32.6377 63.2256 32.6492 62.5995 32.5955L62.5114 33.6227ZM64.6041 33.5839L64.7298 34.6071L65.7762 34.4786L65.6505 33.4554L65.5248 32.4321L64.4784 32.5607L64.6041 33.5839ZM65.6505 33.4554L65.7762 34.4786L66.8225 34.35L66.6968 33.3268L66.5711 32.3036L65.5248 32.4321L65.6505 33.4554ZM66.6968 33.3268L66.8225 34.35C67.4196 34.2767 68.0162 34.291 68.6154 34.3937L68.7896 33.3776L68.9638 32.3616C68.1678 32.2251 67.3692 32.2056 66.5711 32.3036L66.6968 33.3268ZM68.7896 33.3776L68.6154 34.3937L69.6618 34.5731L69.8359 33.557L70.0101 32.5409L68.9638 32.3616L68.7896 33.3776ZM69.8359 33.557L69.6618 34.5731L70.7081 34.7525L70.8823 33.7364L71.0565 32.7203L70.0101 32.5409L69.8359 33.557ZM70.8823 33.7364L70.7081 34.7525C71.5017 34.8885 72.2978 34.9108 73.0937 34.8186L72.9751 33.7945L72.8565 32.7705C72.2571 32.8399 71.6581 32.8234 71.0565 32.7203L70.8823 33.7364ZM72.9751 33.7945L73.0937 34.8186L74.14 34.6974L74.0214 33.6734L73.9028 32.6493L72.8565 32.7705L72.9751 33.7945ZM74.0214 33.6734L74.14 34.6974L75.1864 34.5762L75.0678 33.5522L74.9492 32.5281L73.9028 32.6493L74.0214 33.6734ZM75.0678 33.5522L75.1864 34.5762C75.802 34.5049 76.4151 34.5079 77.0276 34.585L77.1564 33.5622L77.2851 32.5393C76.508 32.4415 75.7287 32.4378 74.9492 32.5281L75.0678 33.5522ZM77.1564 33.5622L77.0276 34.585L78.0698 34.7162L78.1985 33.6934L78.3273 32.6705L77.2851 32.5393L77.1564 33.5622ZM78.1985 33.6934L78.0698 34.7162L79.112 34.8474L79.2407 33.8246L79.3695 32.8017L78.3273 32.6705L78.1985 33.6934ZM79.2407 33.8246L79.112 34.8474C79.8572 34.9412 80.6102 34.9803 81.3706 34.9649L81.3498 33.9342L81.329 32.9035C80.6669 32.9169 80.0139 32.8828 79.3695 32.8017L79.2407 33.8246ZM81.3498 33.9342L81.3706 34.9649L82.4374 34.9434L82.4166 33.9127L82.3959 32.882L81.329 32.9035L81.3498 33.9342ZM82.4166 33.9127L82.4374 34.9434L83.5043 34.9219L83.4835 33.8912L83.4627 32.8605L82.3959 32.882L82.4166 33.9127ZM83.4835 33.8912L83.5043 34.9219C84.0865 34.9102 84.6488 35.0047 85.1977 35.207L85.5542 34.2397L85.9108 33.2724C85.1211 32.9814 84.3029 32.8436 83.4627 32.8605L83.4835 33.8912ZM85.5542 34.2397L85.1977 35.207L86.2016 35.577L86.5581 34.6097L86.9146 33.6424L85.9108 33.2724L85.5542 34.2397ZM86.5581 34.6097L86.2016 35.577L87.2055 35.947L87.562 34.9797L87.9185 34.0125L86.9146 33.6424L86.5581 34.6097ZM87.562 34.9797L87.2055 35.947C87.7645 36.1531 88.2689 36.4447 88.7235 36.8242L89.3841 36.0328L90.0448 35.2414C89.4084 34.7102 88.6981 34.2998 87.9185 34.0125L87.562 34.9797ZM89.3841 36.0328L88.7235 36.8242L89.5417 37.5073L90.2023 36.7159L90.863 35.9245L90.0448 35.2414L89.3841 36.0328ZM90.2023 36.7159L89.5417 37.5073L90.3599 38.1904L91.0206 37.399L91.6812 36.6076L90.863 35.9245L90.2023 36.7159ZM91.0206 37.399L90.3599 38.1904C90.8629 38.6103 91.3199 39.0602 91.7321 39.5402L92.5142 38.8686L93.2963 38.197C92.8079 37.6282 92.2692 37.0984 91.6812 36.6076L91.0206 37.399ZM92.5142 38.8686L91.7321 39.5402L92.4075 40.3267L93.1896 39.6551L93.9717 38.9835L93.2963 38.197L92.5142 38.8686ZM93.1896 39.6551L92.4075 40.3267L93.0829 41.1132L93.865 40.4416L94.6471 39.77L93.9717 38.9835L93.1896 39.6551ZM93.865 40.4416L93.0829 41.1132C93.5082 41.6085 93.9003 42.1209 94.2596 42.6504L95.1127 42.0715L95.9657 41.4927C95.562 40.8976 95.1223 40.3234 94.6471 39.77L93.865 40.4416ZM95.1127 42.0715L94.2596 42.6504L94.8319 43.4937L95.685 42.9149L96.538 42.336L95.9657 41.4927L95.1127 42.0715ZM95.685 42.9149L94.8319 43.4937L95.4042 44.3371L96.2572 43.7583L97.1103 43.1794L96.538 42.336L95.685 42.9149ZM96.2572 43.7583L95.4042 44.3371C95.7552 44.8543 96.0633 45.396 96.3287 45.9626L97.2622 45.5253L98.1958 45.088C97.8843 44.423 97.5224 43.7867 97.1103 43.1794L96.2572 43.7583ZM97.2622 45.5253L96.3287 45.9626L96.7614 46.8863L97.6949 46.449L98.6285 46.0117L98.1958 45.088L97.2622 45.5253ZM97.6949 46.449L96.7614 46.8863L97.1941 47.81L98.1277 47.3727L99.0612 46.9354L98.6285 46.0117L97.6949 46.449ZM98.1277 47.3727L97.1941 47.81C97.4565 48.3702 97.6684 48.952 97.8298 49.5561L98.8258 49.29L99.8218 49.024C99.6292 48.3032 99.3757 47.6068 99.0612 46.9354L98.1277 47.3727ZM98.8258 49.29L97.8298 49.5561L98.0952 50.5497L99.0912 50.2837L100.087 50.0177L99.8218 49.024L98.8258 49.29ZM99.0912 50.2837L98.0952 50.5497L98.3606 51.5434L99.3566 51.2774L100.353 51.0113L100.087 50.0177L99.0912 50.2837ZM99.3566 51.2774L98.3606 51.5434C98.5171 52.1295 98.6056 52.7278 98.6258 53.3398L99.6561 53.3058L100.686 53.2718C100.661 52.504 100.55 51.75 100.353 51.0113L99.3566 51.2774ZM99.6561 53.3058L98.6258 53.3398L98.66 54.3746L99.6903 54.3406L100.721 54.3066L100.686 53.2718L99.6561 53.3058ZM99.6903 54.3406L98.66 54.3746L98.6941 55.4094L99.7245 55.3754L100.755 55.3413L100.721 54.3066L99.6903 54.3406ZM99.7245 55.3754L98.6941 55.4094C98.7144 56.0237 98.6676 56.6325 98.5535 57.2372L99.5665 57.4284L100.58 57.6195C100.722 56.8666 100.78 56.1067 100.755 55.3413L99.7245 55.3754ZM99.5665 57.4284L98.5535 57.2372L98.3613 58.2554L99.3743 58.4466L100.387 58.6377L100.58 57.6195L99.5665 57.4284ZM99.3743 58.4466L98.3613 58.2554L98.1691 59.2736L99.1822 59.4648L100.195 59.6559L100.387 58.6377L99.3743 58.4466ZM99.1822 59.4648L98.1691 59.2736C98.0558 59.8741 97.8756 60.4516 97.6281 61.0077L98.57 61.4268L99.5118 61.8459C99.8244 61.1435 100.052 60.413 100.195 59.6559L99.1822 59.4648ZM98.57 61.4268L97.6281 61.0077L97.2081 61.9515L98.15 62.3707L99.0918 62.7898L99.5118 61.8459L98.57 61.4268ZM98.15 62.3707L97.2081 61.9515L96.7881 62.8954L97.7299 63.3145L98.6718 63.7337L99.0918 62.7898L98.15 62.3707ZM97.7299 63.3145L96.7881 62.8954C96.5321 63.4706 96.2297 64.0178 95.8806 64.5376L96.7364 65.1123L97.5922 65.6871C98.0078 65.0683 98.3678 64.4169 98.6718 63.7337L97.7299 63.3145ZM96.7364 65.1123L95.8806 64.5376L95.3071 65.3915L96.1629 65.9663L97.0187 66.5411L97.5922 65.6871L96.7364 65.1123ZM96.1629 65.9663L95.3071 65.3915L94.7335 66.2455L95.5893 66.8202L96.4452 67.395L97.0187 66.5411L96.1629 65.9663ZM95.5893 66.8202L94.7335 66.2455C94.3933 66.7521 94.0031 67.214 93.5621 67.6324L94.2717 68.3802L94.9813 69.1281C95.5325 68.6051 96.0207 68.027 96.4452 67.395L95.5893 66.8202ZM94.2717 68.3802L93.5621 67.6324L92.818 68.3384L93.5276 69.0863L94.2372 69.8341L94.9813 69.1281L94.2717 68.3802ZM93.5276 69.0863L92.818 68.3384L92.0739 69.0445L92.7835 69.7923L93.4931 70.5401L94.2372 69.8341L93.5276 69.0863ZM92.7835 69.7923L92.0739 69.0445C91.6242 69.4712 91.1406 69.8512 90.6227 70.185L91.1813 71.0515L91.7398 71.918C92.3661 71.5143 92.9507 71.0548 93.4931 70.5401L92.7835 69.7923ZM91.1813 71.0515L90.6227 70.185L89.7646 70.7381L90.3231 71.6046L90.8817 72.4711L91.7398 71.918L91.1813 71.0515ZM90.3231 71.6046L89.7646 70.7381L88.9065 71.2913L89.465 72.1578L90.0235 73.0243L90.8817 72.4711L90.3231 71.6046ZM89.465 72.1578L88.9065 71.2913C88.3805 71.6303 87.8309 71.9254 87.2571 72.1769L87.6709 73.1211L88.0847 74.0653C88.7589 73.7699 89.4053 73.4228 90.0235 73.0243L89.465 72.1578ZM87.6709 73.1211L87.2571 72.1769L86.3212 72.587L86.735 73.5313L87.1487 74.4755L88.0847 74.0653L87.6709 73.1211ZM86.735 73.5313L86.3212 72.587L85.3852 72.9972L85.799 73.9414L86.2128 74.8857L87.1487 74.4755L86.735 73.5313ZM85.799 73.9414L85.3852 72.9972C84.8081 73.2501 84.2109 73.4608 83.5929 73.6292L83.8639 74.6239L84.1349 75.6185C84.8491 75.4239 85.5419 75.1797 86.2128 74.8857L85.799 73.9414ZM83.8639 74.6239L83.5929 73.6292L82.5937 73.9014L82.8648 74.8961L83.1358 75.8907L84.1349 75.6185L83.8639 74.6239ZM82.8648 74.8961L82.5937 73.9014L81.5946 74.1737L81.8656 75.1683L82.1366 76.163L83.1358 75.8907L82.8648 74.8961ZM81.8656 75.1683L81.5946 74.1737C80.9924 74.3378 80.3759 74.4439 79.7442 74.4919L79.8222 75.5198L79.9002 76.5478C80.6609 76.49 81.4067 76.3619 82.1366 76.163L81.8656 75.1683ZM79.8222 75.5198L79.7442 74.4919L78.6998 74.5712L78.7779 75.5991L78.8559 76.627L79.9002 76.5478L79.8222 75.5198ZM78.7779 75.5991L78.6998 74.5712L77.6555 74.6504L77.7336 75.6784L77.8116 76.7063L78.8559 76.627L78.7779 75.5991ZM77.7336 75.6784L77.6555 74.6504C76.993 74.7007 76.33 74.7183 75.6662 74.7033L75.6429 75.7339L75.6195 76.7645C76.3509 76.7811 77.0816 76.7617 77.8116 76.7063L77.7336 75.6784ZM75.6429 75.7339L75.6662 74.7033L74.6199 74.6795L74.5965 75.7102L74.5731 76.7408L75.6195 76.7645L75.6429 75.7339ZM74.5965 75.7102L74.6199 74.6795L73.5735 74.6558L73.5501 75.6865L73.5268 76.7171L74.5731 76.7408L74.5965 75.7102ZM73.5501 75.6865L73.5735 74.6558C72.8652 74.6398 72.1569 74.6348 71.4486 74.6408L71.4574 75.6716L71.4662 76.7025C72.153 76.6967 72.8399 76.7015 73.5268 76.7171L73.5501 75.6865ZM71.4574 75.6716L71.4486 74.6408L70.4022 74.6497L70.411 75.6805L70.4198 76.7114L71.4662 76.7025L71.4574 75.6716ZM70.411 75.6805L70.4022 74.6497L69.3559 74.6586L69.3646 75.6894L69.3734 76.7203L70.4198 76.7114L70.411 75.6805ZM69.3646 75.6894L69.3559 74.6586C68.6652 74.6645 67.9745 74.6634 67.2838 74.6554L67.2719 75.6862L67.26 76.7171C67.9645 76.7252 68.6689 76.7263 69.3734 76.7203L69.3646 75.6894ZM67.2719 75.6862L67.2838 74.6554L66.2375 74.6433L66.2255 75.6741L66.2136 76.705L67.26 76.7171L67.2719 75.6862ZM66.2255 75.6741L66.2375 74.6433L65.1911 74.6312L65.1792 75.662L65.1672 76.6929L66.2136 76.705L66.2255 75.6741ZM65.1792 75.662L65.1911 74.6312C64.4899 74.6231 63.7887 74.6187 63.0875 74.618L63.0864 75.6489L63.0854 76.6798C63.7793 76.6805 64.4733 76.6848 65.1672 76.6929L65.1792 75.662ZM63.0864 75.6489L63.0875 74.618L62.0411 74.6169L62.0401 75.6478L62.039 76.6787L63.0854 76.6798L63.0864 75.6489ZM62.0401 75.6478L62.0411 74.6169L60.9947 74.6158L60.9937 75.6467L60.9926 76.6776L62.039 76.6787L62.0401 75.6478ZM60.9937 75.6467L60.9947 74.6158C60.3334 74.6151 59.6719 74.5796 59.01 74.5092L58.9009 75.5343L58.7919 76.5595C59.5251 76.6375 60.2588 76.6769 60.9926 76.6776L60.9937 75.6467ZM58.9009 75.5343L59.01 74.5092L57.9636 74.3979L57.8546 75.423L57.7455 76.4481L58.7919 76.5595L58.9009 75.5343ZM57.8546 75.423L57.9636 74.3979L56.9173 74.2866L56.8082 75.3117L56.6992 76.3368L57.7455 76.4481L57.8546 75.423ZM56.8082 75.3117L56.9173 74.2866C56.1848 74.2087 55.452 74.1684 54.719 74.1659L54.7155 75.1968L54.7119 76.2277C55.374 76.2299 56.0364 76.2663 56.6992 76.3368L56.8082 75.3117ZM54.7155 75.1968L54.719 74.1659L53.6727 74.1622L53.6691 75.1931L53.6655 76.224L54.7119 76.2277L54.7155 75.1968ZM53.6691 75.1931L53.6727 74.1622L52.6263 74.1586L52.6227 75.1895L52.6192 76.2204L53.6655 76.224L53.6691 75.1931ZM52.6227 75.1895L52.6263 74.1586C51.8668 74.156 51.1083 74.2215 50.3516 74.3544L50.53 75.3698L50.7084 76.3851C51.3468 76.2729 51.9835 76.2182 52.6192 76.2204L52.6227 75.1895ZM50.53 75.3698L50.3516 74.3544L49.3052 74.5383L49.4836 75.5537L49.662 76.569L50.7084 76.3851L50.53 75.3698ZM49.4836 75.5537L49.3052 74.5383L48.2588 74.7222L48.4372 75.7375L48.6157 76.7529L49.662 76.569L49.4836 75.5537ZM48.4372 75.7375L48.2588 74.7222C47.664 74.8267 47.072 74.8396 46.4792 74.7615L46.3445 75.7835L46.2098 76.8056C47.0122 76.9113 47.8154 76.8935 48.6157 76.7529L48.4372 75.7375ZM46.3445 75.7835L46.4792 74.7615L45.4328 74.6236L45.2981 75.6457L45.1635 76.6677L46.2098 76.8056L46.3445 75.7835ZM45.2981 75.6457L45.4328 74.6236L44.3864 74.4857L44.2518 75.5078L44.1171 76.5299L45.1635 76.6677L45.2981 75.6457ZM44.2518 75.5078L44.3864 74.4857C43.636 74.3868 42.8847 74.3468 42.1329 74.3658L42.159 75.3964L42.1851 76.427C42.8285 76.4107 43.4724 76.4449 44.1171 76.5299L44.2518 75.5078ZM42.159 75.3964L42.1329 74.3658L41.0866 74.3923L41.1127 75.4229L41.1388 76.4535L42.1851 76.427L42.159 75.3964ZM41.1127 75.4229L41.0866 74.3923L40.0402 74.4188L40.0663 75.4494L40.0924 76.48L41.1388 76.4535L41.1127 75.4229ZM40.0663 75.4494L40.0402 74.4188C39.3825 74.4355 38.7247 74.414 38.0666 74.3544L37.9735 75.3811L37.8805 76.4078C38.6175 76.4746 39.3549 76.4987 40.0924 76.48L40.0663 75.4494ZM37.9735 75.3811L38.0666 74.3544L37.0202 74.2596L36.9272 75.2863L36.8341 76.313L37.8805 76.4078L37.9735 75.3811ZM36.9272 75.2863L37.0202 74.2596L35.9738 74.1647L35.8808 75.1914L35.7878 76.2181L36.8341 76.313L36.9272 75.2863ZM35.8808 75.1914L35.9738 74.1647C35.1563 74.0907 34.3412 74.1585 33.5332 74.3646L33.7881 75.3636L34.0429 76.3625C34.6301 76.2127 35.2101 76.1658 35.7878 76.2181L35.8808 75.1914ZM33.7881 75.3636L33.5332 74.3646L32.4869 74.6316L32.7417 75.6305L32.9965 76.6294L34.0429 76.3625L33.7881 75.3636ZM32.7417 75.6305L32.4869 74.6316L31.4405 74.8985L31.6953 75.8974L31.9502 76.8963L32.9965 76.6294L32.7417 75.6305ZM31.6953 75.8974L31.4405 74.8985C30.8939 75.038 30.358 75.0491 29.8205 74.9354L29.6072 75.944L29.3939 76.9526C30.2454 77.1327 31.1016 77.1128 31.9502 76.8963L31.6953 75.8974ZM29.6072 75.944L29.8205 74.9354L28.7787 74.7151L28.5654 75.7237L28.3521 76.7323L29.3939 76.9526L29.6072 75.944ZM28.5654 75.7237L28.7787 74.7151L27.7369 74.4948L27.5236 75.5034L27.3103 76.512L28.3521 76.7323L28.5654 75.7237ZM27.5236 75.5034L27.7369 74.4948C27.0362 74.3466 26.3369 74.2055 25.6391 74.0715L25.4447 75.0839L25.2502 76.0963C25.9353 76.2279 26.622 76.3665 27.3103 76.512L27.5236 75.5034ZM25.4447 75.0839L25.6391 74.0715L24.6019 73.8723L24.4075 74.8847L24.213 75.8971L25.2502 76.0963L25.4447 75.0839ZM24.4075 74.8847L24.6019 73.8723L23.5648 73.6731L23.3703 74.6855L23.1759 75.6979L24.213 75.8971L24.4075 74.8847ZM23.3703 74.6855L23.5648 73.6731C22.9834 73.5614 22.4365 73.3603 21.9199 73.0682L21.4125 73.9656L20.905 74.863C21.6161 75.2651 22.3744 75.5439 23.1759 75.6979L23.3703 74.6855ZM21.4125 73.9656L21.9199 73.0682L20.9992 72.5476L20.4918 73.445L19.9843 74.3423L20.905 74.863L21.4125 73.9656ZM20.4918 73.445L20.9992 72.5476L20.0785 72.027L19.5711 72.9243L19.0636 73.8217L19.9843 74.3423L20.4918 73.445ZM19.5711 72.9243L20.0785 72.027C19.4905 71.6944 18.9164 71.3364 18.3562 70.9529L17.7738 71.8035L17.1914 72.6542C17.8 73.0708 18.4241 73.46 19.0636 73.8217L19.5711 72.9243ZM17.7738 71.8035L18.3562 70.9529L17.4796 70.3527L16.8972 71.2034L16.3148 72.054L17.1914 72.6542L17.7738 71.8035ZM16.8972 71.2034L17.4796 70.3527L16.603 69.7526L16.0206 70.6032L15.4382 71.4539L16.3148 72.054L16.8972 71.2034ZM16.0206 70.6032L16.603 69.7526C16.136 69.4328 15.7555 69.036 15.4555 68.5554L14.581 69.1015L13.7066 69.6475C14.1572 70.3691 14.7365 70.9734 15.4382 71.4539L16.0206 70.6032ZM14.581 69.1015L15.4555 68.5554L14.8925 67.6538L14.018 68.1998L13.1436 68.7459L13.7066 69.6475L14.581 69.1015ZM14.018 68.1998L14.8925 67.6538L14.3295 66.7522L13.455 67.2982L12.5806 67.8442L13.1436 68.7459L14.018 68.1998ZM13.455 67.2982L14.3295 66.7522C13.9701 66.1767 13.6423 65.5956 13.3458 65.0087L12.4257 65.4736L11.5056 65.9385C11.8309 66.5823 12.1893 67.2175 12.5806 67.8442L13.455 67.2982ZM12.4257 65.4736L13.3458 65.0087L12.8795 64.0858L11.9594 64.5506L11.0393 65.0155L11.5056 65.9385L12.4257 65.4736ZM11.9594 64.5506L12.8795 64.0858L12.4132 63.1628L11.4931 63.6277L10.5729 64.0926L11.0393 65.0155L11.9594 64.5506ZM11.4931 63.6277L12.4132 63.1628C12.1356 62.6134 11.9216 62.0444 11.7702 61.4546L10.7716 61.711L9.77311 61.9673C9.96184 62.7025 10.2287 63.4113 10.5729 64.0926L11.4931 63.6277ZM10.7716 61.711L11.7702 61.4546L11.5151 60.4609L10.5165 60.7172L9.51801 60.9736L9.77311 61.9673L10.7716 61.711ZM10.5165 60.7172L11.5151 60.4609L11.26 59.4672L10.2615 59.7235L9.26292 59.9798L9.51801 60.9736L10.5165 60.7172ZM10.2615 59.7235L11.26 59.4672C11.0809 58.7696 10.8615 58.0675 10.6024 57.3609L9.6345 57.7159L8.66664 58.0708C8.90329 58.7161 9.10186 59.3524 9.26292 59.9798L10.2615 59.7235ZM9.6345 57.7159L10.6024 57.3609L10.2305 56.347L9.26265 56.702L8.29478 57.0569L8.66664 58.0708L9.6345 57.7159ZM9.26265 56.702L10.2305 56.347L9.85866 55.3331L8.89079 55.6881L7.92293 56.043L8.29478 57.0569L9.26265 56.702ZM8.89079 55.6881L9.85866 55.3331C9.67285 54.8265 9.62868 54.3228 9.72121 53.8034L8.70629 53.6226L7.69136 53.4418C7.53409 54.3245 7.61293 55.1978 7.92293 56.043L8.89079 55.6881ZM8.70629 53.6226L9.72121 53.8034L9.90856 52.7518L8.89364 52.571L7.87871 52.3902L7.69136 53.4418L8.70629 53.6226ZM8.89364 52.571L9.90856 52.7518L10.0959 51.7002L9.08099 51.5194L8.06606 51.3386L7.87871 52.3902L8.89364 52.571ZM9.08099 51.5194L10.0959 51.7002C10.2046 51.09 10.3906 50.5131 10.6535 49.9667L9.72461 49.5197L8.79567 49.0727C8.45025 49.7905 8.20714 50.5467 8.06606 51.3386L9.08099 51.5194ZM9.72461 49.5197L10.6535 49.9667L11.1098 49.0186L10.1809 48.5716L9.25194 48.1246L8.79567 49.0727L9.72461 49.5197ZM10.1809 48.5716L11.1098 49.0186L11.5661 48.0705L10.6371 47.6235L9.70821 47.1764L9.25194 48.1246L10.1809 48.5716ZM10.6371 47.6235L11.5661 48.0705C11.866 47.4473 12.1709 46.8366 12.4809 46.2383L11.5655 45.7641L10.6501 45.2899C10.3306 45.9066 10.0167 46.5355 9.70821 47.1764L10.6371 47.6235ZM11.5655 45.7641L12.4809 46.2383L12.9529 45.3271L12.0376 44.8529L11.1222 44.3787L10.6501 45.2899L11.5655 45.7641ZM12.0376 44.8529L12.9529 45.3271L13.425 44.4159L12.5096 43.9417L11.5943 43.4674L11.1222 44.3787L12.0376 44.8529ZM12.5096 43.9417L13.425 44.4159C13.7155 43.8551 14.0489 43.3162 14.4257 42.7989L13.5925 42.1919L12.7592 41.585C12.3217 42.1856 11.9332 42.8132 11.5943 43.4674L12.5096 43.9417ZM13.5925 42.1919L14.4257 42.7989L15.0365 41.9604L14.2032 41.3535L13.3699 40.7465L12.7592 41.585L13.5925 42.1919ZM14.2032 41.3535L15.0365 41.9604L15.6472 41.1219L14.814 40.515L13.9807 39.908L13.3699 40.7465L14.2032 41.3535ZM14.814 40.515L15.6472 41.1219C15.996 40.6431 16.4052 40.2239 16.8771 39.8623L16.25 39.044L15.623 38.2258C14.9944 38.7074 14.4462 39.2689 13.9807 39.908L14.814 40.515ZM16.25 39.044L16.8771 39.8623L17.7024 39.2299L17.0754 38.4116L16.4483 37.5933L15.623 38.2258L16.25 39.044ZM17.0754 38.4116L17.7024 39.2299L18.5278 38.5974L17.9007 37.7791L17.2737 36.9608L16.4483 37.5933L17.0754 38.4116ZM17.9007 37.7791L18.5278 38.5974C19.0039 38.2326 19.5163 37.941 20.067 37.7207L19.6842 36.7635L19.3015 35.8063C18.5746 36.097 17.898 36.4824 17.2737 36.9608L17.9007 37.7791ZM19.6842 36.7635L20.067 37.7207L21.0251 37.3376L20.6424 36.3804L20.2596 35.4232L19.3015 35.8063L19.6842 36.7635ZM20.6424 36.3804L21.0251 37.3376L21.9833 36.9545L21.6005 35.9972L21.2178 35.04L20.2596 35.4232L20.6424 36.3804ZM21.6005 35.9972L21.9833 36.9545C22.6547 36.686 23.3186 36.3808 23.9752 36.0391L23.4994 35.1246L23.0235 34.2101C22.4258 34.5211 21.8239 34.7976 21.2178 35.04L21.6005 35.9972ZM23.4994 35.1246L23.9752 36.0391L24.9159 35.5495L24.44 34.6351L23.9641 33.7206L23.0235 34.2101L23.4994 35.1246ZM24.44 34.6351L24.9159 35.5495L25.8566 35.06L25.3807 34.1455L24.9048 33.231L23.9641 33.7206L24.44 34.6351ZM25.3807 34.1455L25.8566 35.06C26.35 34.8033 26.8057 34.6983 27.2359 34.7081L27.2595 33.6775L27.2831 32.6469C26.4625 32.6281 25.6657 32.8351 24.9048 33.231L25.3807 34.1455ZM27.2595 33.6775L27.2359 34.7081L28.174 34.7296L28.1976 33.699L28.2213 32.6684L27.2831 32.6469L27.2595 33.6775ZM28.1976 33.699L28.174 34.7296L29.1121 34.7512L29.1358 33.7205L29.1594 32.6899L28.2213 32.6684L28.1976 33.699ZM29.1358 33.7205L29.1121 34.7512C29.427 34.7584 29.6733 34.7618 29.8447 34.761C29.9272 34.7605 30.0093 34.7591 30.0783 34.7548C30.1068 34.7531 30.1677 34.749 30.2355 34.7373C30.2604 34.7329 30.3482 34.7177 30.4514 34.6766C30.4987 34.6578 30.6164 34.608 30.7393 34.504C30.8621 34.3999 31.1048 34.1378 31.1048 33.7157H30.0739H29.043C29.043 33.2947 29.2851 33.0337 29.4067 32.9306C29.5283 32.8276 29.6442 32.7788 29.689 32.761C29.7874 32.7218 29.8678 32.7084 29.883 32.7058C29.9312 32.6974 29.9628 32.6962 29.9522 32.6969C29.943 32.6975 29.9079 32.6988 29.8341 32.6992C29.6927 32.6999 29.47 32.697 29.1594 32.6899L29.1358 33.7205ZM30.0739 33.7157H31.1048V33.6894H30.0739H29.043V33.7157H30.0739ZM30.0739 33.6894H31.1048V33.663H30.0739H29.043V33.6894H30.0739ZM30.0739 33.663H31.1048C31.1048 34.1113 30.8305 34.3719 30.7435 34.446C30.637 34.5368 30.5373 34.5834 30.5007 34.5998C30.418 34.637 30.3506 34.6533 30.3386 34.6562C30.2997 34.6659 30.2761 34.6687 30.2898 34.6667C30.3073 34.6641 30.352 34.6586 30.4353 34.6505C30.5964 34.6348 30.8476 34.6145 31.1944 34.5895L31.1203 33.5612L31.0461 32.533C30.6954 32.5583 30.4233 32.5801 30.2356 32.5984C30.1446 32.6072 30.0585 32.6167 29.9887 32.627C29.9589 32.6314 29.9026 32.6401 29.8419 32.6552C29.819 32.6608 29.7435 32.6797 29.6553 32.7193C29.6159 32.737 29.5142 32.7847 29.4063 32.8767C29.3179 32.952 29.043 33.2136 29.043 33.663H30.0739ZM31.1203 33.5612L31.1944 34.5895L32.2408 34.514L32.1666 33.4857L32.0925 32.4575L31.0461 32.533L31.1203 33.5612Z" fill="black"/>
<path d="M84.3025 49.0882C84.4014 48.9892 84.5499 48.948 84.7478 48.9645C84.7973 48.981 84.888 48.9975 85.02 49.014C85.1684 49.0305 85.2674 49.0387 85.3169 49.0387C85.5148 49.0717 85.6468 49.1459 85.7127 49.2614C85.7787 49.3768 85.8447 49.6325 85.9107 50.0284C85.9437 50.3418 85.9601 50.9026 85.9601 51.7108C85.9601 52.5025 85.9354 52.9396 85.8859 53.0221C85.8694 53.0551 85.8859 53.1788 85.9354 53.3932C86.0014 53.6077 85.9931 53.8303 85.9107 54.0613C85.8447 54.2922 85.8199 54.5479 85.8364 54.8283C85.8694 55.1087 85.8529 55.3396 85.787 55.521C85.7045 55.686 85.6797 55.8757 85.7127 56.0901C85.7622 56.4365 85.787 57.0385 85.787 57.8962C85.8035 58.754 85.787 59.2983 85.7375 59.5292C85.688 59.7436 85.5395 59.9581 85.2921 60.1725C85.0447 60.3869 84.8303 60.4859 84.6488 60.4694C84.253 60.3869 84.0303 60.1395 83.9808 59.7271C83.9478 59.4467 83.8818 59.1993 83.7829 58.9849C83.6179 58.6055 83.5684 57.6571 83.6344 56.1396C83.6344 55.8922 83.6179 55.7025 83.5849 55.5705C83.552 55.4056 83.5684 55.2406 83.6344 55.0757C83.7169 54.9107 83.7334 54.6716 83.6839 54.3582C83.6509 54.0448 83.6509 53.7891 83.6839 53.5912C83.7169 53.4097 83.7416 53.1871 83.7581 52.9232C83.7581 52.6922 83.7829 52.486 83.8324 52.3046C83.8818 52.1067 83.9066 51.6283 83.9066 50.8696C83.9066 50.2593 83.9231 49.8552 83.9561 49.6572C84.0055 49.4593 84.121 49.2696 84.3025 49.0882ZM75.1233 49.2861C75.3212 49.2201 75.5109 49.2119 75.6923 49.2614C75.8408 49.3109 76.014 49.3109 76.2119 49.2614C76.4263 49.2119 76.6243 49.2284 76.8057 49.3109C77.0036 49.3768 77.2758 49.4181 77.6222 49.4346C77.9851 49.4346 78.282 49.5005 78.5129 49.6325C78.7273 49.7809 78.884 49.8552 78.983 49.8552C79.2964 49.8552 79.6922 50.1768 80.1706 50.8201C80.6654 51.4469 80.9541 52.0324 81.0365 52.5768C81.185 53.5005 81.218 54.2427 81.1355 54.8035C81.0695 55.3643 80.8798 55.8922 80.5664 56.387C80.3685 56.6839 80.2283 56.9726 80.1458 57.253C80.0304 57.6158 79.8737 57.9127 79.6757 58.1437C79.4943 58.3746 79.3129 58.49 79.1314 58.49C79.049 58.49 78.9335 58.5313 78.785 58.6138C78.6366 58.6962 78.4222 58.7952 78.1418 58.9107C77.8614 59.0096 77.6799 59.0591 77.5974 59.0591C77.515 59.0591 77.3583 59.1003 77.1273 59.1828C76.682 59.3643 76.3191 59.3395 76.0387 59.1086C75.8738 58.9766 75.7006 58.9272 75.5191 58.9601C75.3542 58.9931 75.1975 58.9684 75.049 58.8859C75.049 58.8694 74.8594 58.7622 74.48 58.5643C74.1336 58.3828 73.7542 58.0694 73.3419 57.6241C72.946 57.1787 72.6903 56.7911 72.5749 56.4612C72.2615 55.587 72.1378 55.018 72.2037 54.754C72.2532 54.5561 72.2532 54.3087 72.2037 54.0118C72.1707 53.7809 72.2037 53.4592 72.3027 53.0469C72.4017 52.6345 72.5336 52.2799 72.6986 51.983C72.814 51.785 72.9048 51.5871 72.9707 51.3892C73.0862 50.9768 73.3171 50.6881 73.6635 50.5232C73.779 50.4572 74.0099 50.251 74.3563 49.9047C74.7191 49.5418 74.9748 49.3356 75.1233 49.2861ZM77.1768 51.6118C76.6985 51.6118 76.3686 51.5953 76.1872 51.5624C75.9727 51.5294 75.7418 51.5953 75.4944 51.7603C75.247 51.9087 75.1233 52.0572 75.1233 52.2056C75.1233 52.2551 75.0738 52.3211 74.9748 52.4036C74.7934 52.552 74.6779 52.7912 74.6284 53.1211C74.5954 53.319 74.5295 53.517 74.4305 53.7149C74.1501 54.2757 74.1913 54.9272 74.5542 55.6695C74.7521 56.0654 74.8511 56.3128 74.8511 56.4117C74.8511 56.5602 74.9088 56.6839 75.0243 56.7829C75.1563 56.8653 75.3294 56.9066 75.5439 56.9066C75.8078 56.9231 76.0387 56.9726 76.2366 57.055C76.4181 57.1375 76.5665 57.1705 76.682 57.154C76.8139 57.1375 76.9789 57.055 77.1768 56.9066C77.3583 56.7911 77.5644 56.6839 77.7954 56.5849C78.0098 56.5025 78.1582 56.42 78.2407 56.3375C78.3397 56.2385 78.4057 56.0901 78.4387 55.8922C78.4552 55.6942 78.5211 55.521 78.6366 55.3726C78.8345 55.1582 78.95 54.82 78.983 54.3582C79.0325 53.8963 78.9912 53.5087 78.8593 53.1953C78.7273 52.8984 78.6448 52.6675 78.6119 52.5025C78.5624 52.1562 78.4387 51.9252 78.2407 51.8098C78.0428 51.6778 77.6882 51.6118 77.1768 51.6118Z" fill="black"/>
<path d="M59.6228 46.0449C60.3156 45.9954 60.7362 45.9954 60.8847 46.0449C61.0166 46.0944 61.2063 46.1274 61.4537 46.1439C61.7011 46.1604 61.9238 46.2264 62.1217 46.3418C62.3197 46.4573 62.5588 46.5892 62.8393 46.7377C63.1856 46.9026 63.5073 47.216 63.8042 47.6779C64.1176 48.1397 64.3485 48.6676 64.497 49.2614C64.6289 49.7727 64.6784 50.185 64.6454 50.4984C64.6124 50.8118 64.4722 51.2242 64.2248 51.7355C64.0763 52.0819 63.9609 52.3871 63.8784 52.651C63.7959 52.9149 63.73 53.0798 63.6805 53.1458C63.631 53.2118 63.532 53.2613 63.3836 53.2943C63.2186 53.3272 63.0619 53.4097 62.9135 53.5417C62.5836 53.8716 62.0723 54.119 61.3795 54.2839C60.6867 54.4324 60.1507 54.4241 59.7713 54.2592C59.4744 54.1602 59.2929 54.1107 59.227 54.1107C58.996 54.1107 58.5837 53.8881 57.9899 53.4427C57.4126 52.9809 57.0414 52.5932 56.8765 52.2798C56.794 52.1149 56.6786 51.9087 56.5301 51.6613C56.1342 51.0345 56.0683 50.2098 56.3322 49.1871C56.5961 48.1645 57.0579 47.5047 57.7177 47.2078C57.8827 47.1418 58.1136 46.9604 58.4105 46.6635C58.6744 46.3831 58.8641 46.2181 58.9795 46.1686C59.095 46.1027 59.3094 46.0614 59.6228 46.0449ZM60.9836 48.1727C60.1919 48.0902 59.7136 48.0655 59.5486 48.0985C59.3837 48.115 59.2105 48.2469 59.029 48.4944C58.7156 48.8902 58.5012 49.3603 58.3857 49.9046C58.2868 50.4325 58.328 50.8118 58.5094 51.0428C58.6249 51.1912 58.7156 51.3726 58.7816 51.5871C58.8806 51.9335 59.095 52.1067 59.4249 52.1067C59.5569 52.1067 59.7135 52.1479 59.895 52.2304C60.3074 52.4283 60.7197 52.4365 61.1321 52.2551C61.363 52.1231 61.5527 52.0407 61.7011 52.0077C61.965 51.9417 62.13 51.752 62.196 51.4386C62.262 51.2407 62.3444 51.0675 62.4434 50.9191C62.7073 50.5232 62.7073 50.0201 62.4434 49.4098C62.2784 49.0634 62.196 48.8407 62.196 48.7418C62.196 48.4449 61.7919 48.2552 60.9836 48.1727ZM66.3031 46.4903C66.567 46.2923 66.9464 46.2758 67.4412 46.4408C67.9361 46.6057 68.1835 46.8202 68.1835 47.0841C68.1835 47.315 68.233 47.4717 68.3319 47.5542C68.4474 47.6201 68.6783 47.6531 69.0247 47.6531C70.2288 47.6366 70.8308 47.983 70.8308 48.6923C70.8308 49.0387 70.7401 49.2778 70.5587 49.4098C70.3772 49.5418 70.0309 49.616 69.5195 49.6325C68.9092 49.6325 68.4886 49.682 68.2577 49.7809C68.0268 49.8799 67.8701 50.0531 67.7876 50.3005C67.7711 50.416 67.7711 50.5149 67.7876 50.5974C67.8041 50.6634 67.8701 50.7129 67.9855 50.7459C68.101 50.7788 68.2495 50.7953 68.4309 50.7953C68.6288 50.7788 68.8927 50.7541 69.2226 50.7211C69.4371 50.6881 69.5855 50.6881 69.668 50.7211C69.7669 50.7376 69.9566 50.8118 70.237 50.9438C70.6329 51.1252 70.8556 51.3149 70.9051 51.5129C70.9546 51.6943 70.8556 51.9665 70.6082 52.3293C70.4597 52.5603 70.3195 52.7005 70.1876 52.7499C70.0556 52.7829 69.7587 52.7912 69.2969 52.7747C68.7031 52.7417 68.2742 52.8324 68.0103 53.0468C67.7464 53.2613 67.6144 53.6159 67.6144 54.1107C67.6144 54.5231 67.4495 54.82 67.1196 55.0014C66.7897 55.1829 66.468 55.1499 66.1547 54.9025C65.9072 54.7045 65.7258 54.2674 65.6103 53.5912C65.4949 52.9149 65.5114 52.3541 65.6598 51.9087C65.7258 51.7273 65.7423 51.5129 65.7093 51.2654C65.6928 51.0675 65.6846 50.8943 65.6846 50.7459C65.6846 50.6139 65.6928 50.1768 65.7093 49.4345C65.7093 48.6593 65.7505 48.1892 65.833 48.0243C65.9155 47.8593 65.9237 47.6696 65.8577 47.4552C65.7753 47.0758 65.9237 46.7542 66.3031 46.4903ZM61.0826 55.5705C61.7754 55.4385 62.3527 55.4303 62.8145 55.5458C63.0619 55.6282 63.4083 55.6695 63.8537 55.6695C64.6619 55.653 65.2722 55.7519 65.6846 55.9664C65.866 56.0653 66.1547 56.2138 66.5505 56.4117C67.2763 56.7746 67.7134 57.2942 67.8618 57.9704C67.9278 58.2014 68.0103 58.4158 68.1092 58.6137C68.3072 58.9931 68.3649 59.422 68.2824 59.9003C68.2165 60.3786 68.0268 60.7663 67.7134 61.0632C67.5649 61.1951 67.4742 61.3683 67.4412 61.5827C67.3917 61.9621 67.1856 62.1848 66.8227 62.2508C66.6577 62.2838 66.3938 62.3827 66.0309 62.5477C65.3217 62.8941 64.6784 63.0673 64.1011 63.0673C63.7877 63.0673 63.466 63.1002 63.1362 63.1662C62.7898 63.2322 62.5094 63.2487 62.2949 63.2157C62.0805 63.1827 61.8826 63.1662 61.7011 63.1662C61.5197 63.1827 61.2475 63.1085 60.8847 62.9435C60.5218 62.7951 60.2331 62.6301 60.0187 62.4487C59.8208 62.2838 59.6228 62.1353 59.4249 62.0034C59.26 61.8879 59.0703 61.6735 58.8558 61.3601C58.394 60.6013 58.1301 60.1642 58.0641 60.0488C58.0146 59.9168 57.9816 59.7271 57.9651 59.4797C57.9651 59.2158 57.9486 58.9766 57.9156 58.7622C57.8827 58.5807 57.9156 58.3993 58.0146 58.2179C58.1136 58.0034 58.2043 57.7725 58.2868 57.5251C58.3528 57.2942 58.4847 57.055 58.6826 56.8076C58.8971 56.5602 59.1033 56.3952 59.3012 56.3128C59.6476 56.1643 59.9775 55.9994 60.2909 55.8179C60.4723 55.7025 60.7362 55.62 61.0826 55.5705ZM64.2248 57.5993C63.8454 57.5993 63.5485 57.5828 63.3341 57.5498C63.1856 57.5333 62.8558 57.5746 62.3444 57.6735C61.8496 57.756 61.4042 57.855 61.0084 57.9704C60.695 58.0529 60.5383 58.2096 60.5383 58.4405C60.5383 58.5065 60.4476 58.6385 60.2661 58.8364C60.0847 59.0508 60.0022 59.2405 60.0187 59.4055C60.0517 59.5539 60.2166 59.7931 60.5135 60.123C60.5795 60.189 60.6867 60.3127 60.8352 60.4941C61.0001 60.6591 61.1073 60.7663 61.1568 60.8158C61.2723 60.9642 61.3548 61.0549 61.4042 61.0879C61.4702 61.1044 61.5857 61.1127 61.7506 61.1127C61.998 61.1127 62.2784 61.1621 62.5918 61.2611C63.2351 61.426 63.8784 61.4013 64.5217 61.1869C65.1815 60.956 65.6598 60.6261 65.9567 60.1972C66.2536 59.7519 66.2536 59.323 65.9567 58.9106C65.8248 58.7292 65.7505 58.556 65.734 58.3911C65.6516 57.8797 65.1485 57.6158 64.2248 57.5993Z" fill="black"/>
<path d="M48.8486 47.8023C49.195 47.7199 49.5661 47.7281 49.9619 47.8271C50.2589 47.893 50.4485 47.9095 50.531 47.8765C50.63 47.8601 50.7702 47.8765 50.9516 47.926C51.1496 47.9755 51.298 48.0415 51.397 48.124C51.5124 48.2064 51.6444 48.2559 51.7928 48.2724C51.8258 48.2724 51.8836 48.2807 51.966 48.2972C52.065 48.3137 52.131 48.3301 52.164 48.3466C52.3454 48.3796 52.5681 48.5693 52.832 48.9157C53.1124 49.2456 53.2773 49.526 53.3268 49.7569C53.3763 50.0538 53.4423 50.2765 53.5248 50.425C53.6402 50.6724 53.7144 51.1837 53.7474 51.9589C53.7804 52.7177 53.7474 53.3115 53.6485 53.7403C53.566 54.1032 53.5248 54.4084 53.5248 54.6558C53.5248 54.9362 53.4505 55.3073 53.3021 55.7692C53.1701 56.165 53.0547 56.4042 52.9557 56.4867C52.8732 56.5692 52.7 56.6104 52.4361 56.6104C52.2217 56.6104 52.032 56.6434 51.8671 56.7094C51.6526 56.7753 51.4959 56.7671 51.397 56.6846C51.3145 56.6021 51.3063 56.4454 51.3722 56.2145C51.4217 56.0991 51.4135 55.9176 51.3475 55.6702C51.265 55.3568 51.2815 54.9197 51.397 54.3589C51.5949 53.3362 51.6691 52.6764 51.6196 52.3795C51.5867 52.2146 51.5537 51.9424 51.5207 51.5631C51.5042 51.2497 51.4217 50.9528 51.2733 50.6724C51.1413 50.3755 51.0011 50.1858 50.8527 50.1033C50.4403 49.9219 49.929 49.8064 49.3187 49.7569C48.7249 49.7074 48.23 49.7487 47.8342 49.8806C47.5373 49.9796 47.2816 50.0291 47.0672 50.0291C46.8692 50.0291 46.7125 50.0538 46.5971 50.1033C46.4651 50.1528 46.0115 50.1858 45.2363 50.2023C44.4445 50.2353 43.9662 50.2765 43.8013 50.326C43.2404 50.5074 42.8363 50.5652 42.5889 50.4992C42.358 50.4332 42.1601 50.2188 41.9951 49.8559C41.8632 49.5095 41.8549 49.2373 41.9704 49.0394C42.0858 48.8415 42.391 48.6188 42.8858 48.3714C43.1662 48.2394 43.3641 48.1652 43.4796 48.1487C43.5951 48.1322 43.859 48.124 44.2713 48.124C44.8157 48.124 45.195 48.0992 45.4095 48.0497C45.6074 48.0003 45.8053 48.0003 46.0033 48.0497C46.2012 48.0827 46.4239 48.058 46.6713 47.9755C46.9187 47.893 47.2981 47.8518 47.8094 47.8518C48.3372 47.8353 48.6836 47.8188 48.8486 47.8023ZM45.9785 54.9527C46.061 54.8867 46.3249 54.9032 46.7703 55.0022C47.2156 55.0846 47.4795 55.1836 47.562 55.2991C47.6445 55.4145 47.694 55.8104 47.7105 56.4867C47.7434 57.1465 47.7269 57.7155 47.661 58.1939C47.6115 58.4908 47.6197 58.7794 47.6857 59.0598C47.7517 59.3237 47.8507 59.4887 47.9826 59.5547C48.0816 59.6041 48.5599 59.6124 49.4176 59.5794C50.2918 59.5464 51.0671 59.4969 51.7434 59.4309C53.6732 59.2495 54.6876 59.365 54.7866 59.7773C54.8031 59.8928 54.8361 59.967 54.8856 60C54.935 60.033 54.9515 60.1567 54.935 60.3711C54.9185 60.5856 54.8856 60.7258 54.8361 60.7917C54.7206 60.9237 54.1845 61.0886 53.2279 61.2866C52.931 61.3526 52.6258 61.3526 52.3124 61.2866C52.0155 61.2206 51.6939 61.2124 51.3475 61.2618C49.8795 61.4433 49.0053 61.4763 48.7249 61.3608C48.428 61.2288 48.1723 61.2124 47.9579 61.3113C47.7929 61.4103 47.0259 61.501 45.6569 61.5835C44.3043 61.666 43.4714 61.6742 43.158 61.6082C42.8446 61.5422 42.5477 61.5093 42.2673 61.5093C41.8714 61.5093 41.5745 61.402 41.3766 61.1876C41.1951 60.9732 41.1456 60.7258 41.2281 60.4454C41.3271 60.1485 41.5498 59.9093 41.8961 59.7278C42.0281 59.6619 42.3662 59.6454 42.9106 59.6784C43.4714 59.6949 43.8425 59.6701 44.0239 59.6041C44.2054 59.5382 44.4363 59.5052 44.7167 59.5052C45.0136 59.5052 45.195 59.4557 45.261 59.3567C45.327 59.2413 45.36 58.9279 45.36 58.4165C45.36 57.8887 45.393 57.5506 45.459 57.4021C45.5249 57.2372 45.5579 56.9073 45.5579 56.4125C45.5744 55.7692 45.7146 55.2826 45.9785 54.9527Z" fill="black"/>
<path d="M37.1593 48.9898C37.2583 48.9073 37.4068 48.8743 37.6047 48.8908C37.8026 48.8908 37.9428 48.9403 38.0253 49.0393C38.1243 49.1548 38.1985 49.2125 38.248 49.2125C38.5119 49.2125 38.6768 49.5341 38.7428 50.1774C38.7593 50.4248 38.7923 50.7465 38.8418 51.1423C38.8583 51.3403 38.8418 51.5217 38.7923 51.6867C38.7593 51.8021 38.7181 52.0743 38.6686 52.5031C38.6191 52.932 38.6026 53.2124 38.6191 53.3444V53.9629V54.9278C38.6191 55.2247 38.5779 55.4557 38.4954 55.6206C38.4129 55.8515 38.3552 56.2639 38.3222 56.8577C38.3057 57.435 38.3387 57.8061 38.4212 57.9711C38.5531 58.235 38.5779 58.6473 38.4954 59.2082C38.4294 59.7525 38.3057 60.0246 38.1243 60.0246C38.0748 60.0246 37.9758 60.0906 37.8274 60.2226C37.547 60.4535 37.2913 60.5195 37.0604 60.4205C36.8294 60.3215 36.714 60.0906 36.714 59.7277C36.6975 59.5463 36.6315 59.3731 36.5161 59.2082C36.3346 58.9277 36.3346 58.1113 36.5161 56.7587C36.549 56.5608 36.5243 56.3793 36.4418 56.2144C36.3759 56.033 36.3676 55.8433 36.4171 55.6453C36.4666 55.4474 36.4666 55.3072 36.4171 55.2247C36.3676 55.1258 36.2439 55.0515 36.046 55.0021C35.6831 54.8866 35.3697 54.8619 35.1058 54.9278C34.8584 54.9773 34.7346 55.101 34.7346 55.299C34.7346 55.3649 34.6687 55.5381 34.5367 55.8185C34.4213 56.0824 34.347 56.2886 34.314 56.4371C34.2975 56.5855 34.314 56.8 34.3635 57.0804C34.4295 57.6247 34.413 58.1772 34.314 58.7381C34.2151 59.2824 34.0666 59.6288 33.8687 59.7772C33.7037 59.8762 33.6048 59.9504 33.5718 59.9999C33.4728 60.1318 33.2996 60.1401 33.0522 60.0246C32.8213 59.8927 32.6976 59.7277 32.6811 59.5298C32.6481 59.3649 32.5491 59.1257 32.3842 58.8123C32.2192 58.5154 32.1615 58.3092 32.211 58.1937C32.2605 58.0783 32.2687 57.7979 32.2357 57.3525C32.2192 56.9072 32.2605 56.5855 32.3594 56.3876C32.4584 56.1897 32.4914 56.033 32.4584 55.9175C32.3594 55.5381 32.3594 55.2577 32.4584 55.0763C32.5244 54.9443 32.5244 54.7464 32.4584 54.4825C32.3924 54.2021 32.3594 53.9876 32.3594 53.8392C32.3594 53.6742 32.3842 53.3526 32.4337 52.8743C32.5161 52.3464 32.5326 51.9753 32.4832 51.7609C32.4337 51.53 32.4419 51.3155 32.5079 51.1176C32.5904 50.9197 32.6069 50.7382 32.5574 50.5733C32.4749 50.2764 32.5079 49.963 32.6563 49.6331C32.8213 49.3032 32.978 49.1135 33.1264 49.064C33.2749 49.0146 33.547 49.064 33.9429 49.2125C33.9594 49.2125 33.9759 49.2125 33.9924 49.2125C34.2728 49.3115 34.4377 49.4352 34.4872 49.5836C34.5367 49.7156 34.5697 50.1609 34.5862 50.9197C34.5862 50.9527 34.5862 50.9856 34.5862 51.0186C34.5862 52.0578 34.6604 52.7093 34.8089 52.9732C34.9573 53.2206 35.2625 53.2371 35.7243 53.0227C35.9058 52.9402 36.0872 52.8743 36.2686 52.8248C36.4831 52.7588 36.615 52.5939 36.6645 52.3299C36.7305 52.0495 36.7552 51.4475 36.7387 50.5238C36.7222 49.6826 36.8624 49.1712 37.1593 48.9898ZM24.071 49.7815C24.2524 49.6991 24.3844 49.6661 24.4668 49.6826C24.5493 49.6826 24.7142 49.7403 24.9617 49.8558C25.2256 49.9712 25.3988 50.1114 25.4812 50.2764C25.5802 50.4413 25.6297 50.7052 25.6297 51.0681C25.6297 51.4145 25.572 52.0248 25.4565 52.899C25.341 53.9382 25.3245 54.5485 25.407 54.7299C25.473 54.8454 25.5472 55.0928 25.6297 55.4721C25.6957 55.934 25.7864 56.2391 25.9018 56.3876C26.0338 56.536 26.2482 56.6103 26.5451 56.6103C26.7761 56.6103 27.007 56.6433 27.2379 56.7092C27.4358 56.7752 27.6008 56.7752 27.7327 56.7092C27.8647 56.6598 28.1204 56.6185 28.4997 56.5855C28.8461 56.569 29.1183 56.5525 29.3162 56.536C29.5306 56.5031 29.6873 56.5113 29.7863 56.5608C29.8853 56.6103 30.075 56.6515 30.3554 56.6845C30.8667 56.7505 31.1883 57.0309 31.3203 57.5257C31.4193 57.8061 31.312 58.0948 30.9986 58.3917C30.7017 58.6886 30.3883 58.8123 30.0585 58.7628C29.6461 58.7133 29.044 58.7216 28.2523 58.7875C27.8729 58.8205 27.6338 58.837 27.5348 58.837C27.4358 58.8205 27.3204 58.7875 27.1884 58.7381C27.073 58.6721 26.974 58.6391 26.8915 58.6391C26.809 58.6226 26.6276 58.6473 26.3472 58.7133C26.2482 58.7463 26.0915 58.7133 25.8771 58.6144C25.6792 58.5319 25.4895 58.4906 25.308 58.4906C25.1596 58.4906 24.8792 58.2927 24.4668 57.8968C24.0545 57.501 23.7905 57.1711 23.6751 56.9072C23.4277 56.3793 23.2545 55.6701 23.1555 54.7794C23.073 53.8722 23.106 53.2289 23.2545 52.8495C23.304 52.7341 23.3287 52.3959 23.3287 51.8351C23.3287 50.697 23.5761 50.0125 24.071 49.7815Z" fill="black"/>
</g>
<defs>
<clipPath id="clip0_3647_3493">
<rect width="100" height="100" fill="white"/>
</clipPath>
</defs>
</svg>
