<svg width="100" height="100" viewBox="0 0 100 100" fill="none" xmlns="http://www.w3.org/2000/svg">
<path d="M55.8563 47.5555C55.8563 47.5555 55.8463 47.5955 55.8363 47.6255C55.7363 48.0455 59.8163 48.9855 60.2563 48.8455C62.5163 48.1355 64.6663 47.0955 66.6363 45.7855C66.2263 45.6555 62.6363 44.3555 62.5063 44.6455C62.6363 44.3655 63.4763 41.4355 63.4763 41.4355C62.0263 41.9255 60.5863 42.4055 59.1363 42.8955C58.1163 43.2355 57.3663 43.4855 56.8363 44.4055C56.2863 45.3555 56.1063 46.5055 55.8563 47.5655V47.5555Z" fill="white"/>
<path d="M44.6364 43.3257C44.0964 43.0157 43.5264 42.7557 42.9064 42.6757C41.3464 42.4757 39.8064 43.5857 39.1664 45.0257C38.5264 46.4657 38.6364 48.1457 39.0964 49.6557C40.0464 52.7657 42.9364 54.0157 45.2364 55.9557C46.1164 56.6957 46.7364 57.7057 47.6264 58.4357C47.7364 58.5257 47.8664 58.6257 48.0164 58.6257C48.2164 58.6257 48.3764 58.4557 48.5064 58.2957C50.2864 56.1557 52.0964 53.9657 53.1364 51.3757C53.9364 49.4057 54.3764 46.6557 53.7464 44.5857C53.4764 43.6957 53.1064 42.6957 52.2364 42.3557C51.3864 42.0157 50.4264 42.4657 49.7264 43.0457C48.2964 44.2257 47.4464 45.8957 47.4264 47.7357C47.1964 45.7457 46.3764 44.3157 44.6164 43.3157L44.6364 43.3257Z" fill="#E95659"/>
<path d="M47.4964 48.1159C47.8664 46.2159 46.9964 44.2059 45.3964 43.1259C43.7964 42.0459 41.6164 42.2159 40.0664 43.3359C38.3664 44.5659 37.7864 46.6459 38.2864 48.6459C38.8064 50.7559 40.2564 52.4959 41.8864 53.8659C43.7964 55.4759 46.0164 56.7959 47.5164 58.8459C47.6464 59.0259 47.9364 59.1259 48.1064 58.9259C50.6364 55.9559 53.3064 52.7959 54.0564 48.8459C54.4064 47.0459 54.3964 44.9859 53.5764 43.3059C53.2464 42.6259 52.7064 41.9859 51.9464 41.7759C51.0664 41.5359 50.1964 41.9559 49.5464 42.5259C48.0064 43.8859 47.1964 46.0659 47.1464 48.0859C47.1364 48.5659 47.8864 48.5659 47.8964 48.0859C47.9364 46.4359 48.5364 44.7759 49.6164 43.5259C50.0964 42.9659 50.8264 42.3359 51.6264 42.4659C52.3164 42.5859 52.7564 43.2459 53.0064 43.8359C53.6464 45.3559 53.6364 47.1559 53.3164 48.7459C52.9664 50.4859 52.2164 52.1059 51.2764 53.6059C50.1964 55.3159 48.8864 56.8559 47.5764 58.3859L48.1664 58.4659C45.7764 55.1959 41.5664 53.6959 39.6364 50.0459C38.7764 48.4259 38.4564 46.3559 39.6264 44.7959C40.6264 43.4559 42.5164 42.8059 44.1164 43.3259C45.9564 43.9259 47.1564 46.0259 46.7864 47.9159C46.6964 48.3859 47.4164 48.5859 47.5064 48.1159H47.4964Z" fill="#433638"/>
<path d="M46.8562 52.3172L59.3062 46.8672L62.8462 45.3172C63.2862 45.1272 62.9062 44.4772 62.4662 44.6672C58.3162 46.4872 54.1662 48.2972 50.0162 50.1172L46.4762 51.6672C46.0362 51.8572 46.4162 52.5072 46.8562 52.3172Z" fill="#433638"/>
<path d="M32.7864 57.5976C35.9164 56.4276 39.0464 55.2576 42.1864 54.0876C42.6364 53.9176 42.4364 53.1976 41.9864 53.3676C38.8564 54.5376 35.7264 55.7076 32.5864 56.8776C32.1364 57.0476 32.3364 57.7676 32.7864 57.5976Z" fill="#433638"/>
<path d="M32.6863 57.6264L34.8163 53.3064L34.1263 53.2164C34.6063 55.3664 35.0863 57.5164 35.5663 59.6664L36.1163 59.2464C35.2863 58.8064 34.3263 58.3364 33.8563 57.4764C33.6663 57.1364 33.5963 56.7664 33.6163 56.3764C33.6163 56.2464 33.6863 55.9964 33.7363 55.8864C33.8163 55.7164 33.9263 55.5764 34.0463 55.4864L33.4863 55.1664C33.5863 56.0764 33.6963 56.9864 33.7963 57.8964C33.8363 58.2064 34.1863 58.4064 34.4363 58.1664C34.6063 58.0064 34.7763 57.8364 34.9463 57.6764C35.2963 57.3364 34.7663 56.8064 34.4163 57.1464C34.2463 57.3064 34.0763 57.4764 33.9063 57.6364L34.5463 57.9064C34.4463 56.9964 34.3363 56.0864 34.2363 55.1764C34.2063 54.9364 33.9263 54.6564 33.6763 54.8564C32.9863 55.3864 32.7763 56.2164 32.9263 57.0464C33.0863 57.9364 33.7163 58.6264 34.4363 59.1364C34.8563 59.4364 35.3063 59.6764 35.7563 59.9064C36.0563 60.0664 36.3763 59.8064 36.3063 59.4864C35.8263 57.3364 35.3463 55.1864 34.8663 53.0364C34.7963 52.7364 34.3263 52.6564 34.1763 52.9464L32.0463 57.2664C31.9563 57.4464 31.9963 57.6764 32.1763 57.7764C32.3463 57.8764 32.5963 57.8264 32.6863 57.6464V57.6264Z" fill="#433638"/>
<path d="M56.1764 47.6567C56.5864 46.9767 56.6364 46.1967 56.8064 45.4467C56.8864 45.1067 56.9864 44.7567 57.1964 44.4767C57.4264 44.1667 57.7864 43.9767 58.1264 43.8167C58.9864 43.4167 59.8764 43.0967 60.7564 42.7667C61.6964 42.4067 62.6464 42.0767 63.6064 41.7567L63.1464 41.2967C62.8164 42.4267 62.4964 43.5667 62.1664 44.6967C62.0964 44.9267 62.2864 45.1667 62.5264 45.1667C63.9164 45.1667 65.2664 45.5167 66.4764 46.1967V45.5467C65.4764 46.0367 64.4764 46.5367 63.4864 47.0267C62.9764 47.2767 62.4564 47.5367 61.9464 47.7867C61.4764 48.0167 61.0164 48.2767 60.5364 48.4767C60.1464 48.6367 59.7564 48.6967 59.3364 48.5967C58.9564 48.4967 58.5964 48.3167 58.2464 48.1467C57.5464 47.8067 56.8164 47.4967 56.0264 47.7067C55.5664 47.8367 55.7564 48.5567 56.2264 48.4267C56.9764 48.2167 57.6964 48.7267 58.3464 49.0167C58.6964 49.1767 59.0464 49.3167 59.4264 49.3667C59.9164 49.4367 60.3764 49.3467 60.8264 49.1567C61.8264 48.7367 62.7964 48.1967 63.7664 47.7167C64.7964 47.2067 65.8264 46.6967 66.8564 46.1867C67.1064 46.0567 67.0864 45.6667 66.8564 45.5367C65.5364 44.7967 64.0464 44.4067 62.5264 44.4067L62.8864 44.8767C63.2164 43.7467 63.5364 42.6067 63.8664 41.4767C63.9464 41.2167 63.6764 40.9267 63.4064 41.0167C62.4164 41.3467 61.4364 41.6967 60.4564 42.0667C59.4764 42.4367 58.5664 42.7567 57.6664 43.1967C56.8764 43.5767 56.3664 44.1667 56.1264 45.0167C55.9164 45.7667 55.9264 46.5967 55.5164 47.2767C55.2664 47.6867 55.9164 48.0667 56.1664 47.6567H56.1764Z" fill="#433638"/>
</svg>
