<svg width="100" height="100" viewBox="0 0 100 100" fill="none" xmlns="http://www.w3.org/2000/svg">
<path d="M51.9662 46.4269C51.8762 45.4369 51.9662 44.4469 52.1962 43.4769C52.5662 41.8869 53.2662 40.4069 53.9562 38.9269C54.5262 37.7169 55.1162 36.4269 54.9762 35.0869C54.8062 33.3569 53.3662 31.8969 51.6862 31.4469C50.0062 30.9969 48.1662 31.4569 46.7162 32.4269C45.3262 33.3569 44.2662 34.8169 43.8962 36.4569C43.8062 36.8669 43.7562 37.2869 43.7662 37.7069C43.7662 37.9269 43.9462 38.4869 43.8162 38.6469C43.5762 38.9469 42.8362 38.5169 42.5562 38.4969C41.2962 38.3869 40.0162 38.3369 38.7962 38.6569C37.5762 38.9769 36.4162 39.6969 35.8162 40.8069C35.1262 42.0769 35.2762 43.6969 35.9862 44.9569C36.6962 46.2169 37.9062 47.1369 39.2162 47.7469C40.9262 48.5369 42.8662 48.8469 44.7362 48.6269C45.7662 48.5069 46.7662 48.2269 47.7962 48.0669C48.6462 47.9369 49.5062 47.8969 50.3662 47.9369C50.7862 47.9569 51.2362 47.9769 51.6462 48.0669C51.9262 48.1269 52.1862 48.2869 52.4662 48.3269C52.3362 47.6869 52.0162 47.0869 51.9562 46.4269H51.9662Z" fill="#FFA8A2"/>
<path d="M62.7162 44.0977C61.6762 44.0077 60.8562 44.9377 60.2362 45.7877C59.9562 44.6777 59.5162 43.3877 58.4162 43.0677C57.4462 42.7877 56.3762 43.5277 56.0562 44.4877C55.7362 45.4477 56.0562 46.5377 56.6462 47.3677C57.2262 48.1977 58.0462 48.8277 58.8562 49.4377L59.3362 49.7277C59.8362 48.7977 61.1062 48.7577 62.1062 48.4377C63.0862 48.1277 63.9862 47.3777 64.1962 46.3777C64.4162 45.3777 63.7262 44.1877 62.7062 44.0977H62.7162Z" fill="#FFA8A2"/>
<path d="M44.2863 38.777C43.3363 34.947 47.2063 31.027 51.0363 31.617C52.7863 31.887 54.3763 33.277 54.6063 35.077C54.7563 36.207 54.3263 37.317 53.8663 38.317C53.4063 39.317 52.8963 40.357 52.4863 41.407C51.6263 43.617 51.1463 46.107 52.0363 48.377C52.1663 48.717 52.8963 48.517 52.7563 48.187C51.8163 45.807 52.4363 43.267 53.3863 40.997C54.2263 38.977 55.8363 36.707 55.2263 34.417C54.7363 32.567 52.9763 31.277 51.1363 31.047C49.0863 30.787 46.9663 31.627 45.4963 33.047C43.9263 34.567 43.0163 36.807 43.5563 38.977C43.6463 39.327 44.3663 39.137 44.2763 38.787L44.2863 38.777Z" fill="#FF646B"/>
<path d="M44.0261 38.867C43.7961 38.517 43.4061 38.397 43.0161 38.337C42.4761 38.257 41.9161 38.237 41.3761 38.227C40.2761 38.207 39.1661 38.307 38.1361 38.687C36.2761 39.367 34.8961 40.917 35.0061 42.977C35.1161 45.037 36.6561 46.697 38.4261 47.657C40.3761 48.707 42.6761 49.077 44.8561 48.777C46.2961 48.587 47.6861 48.157 49.1461 48.107C50.6061 48.057 52.0461 48.267 53.4261 48.707C53.5861 48.757 53.7961 48.727 53.9361 48.637C54.0061 48.587 54.1761 48.437 54.0061 48.377C52.0161 47.747 49.9161 47.567 47.8561 47.877C46.7261 48.047 45.6261 48.367 44.4861 48.467C43.4461 48.557 42.3961 48.467 41.3761 48.227C39.5161 47.787 37.6361 46.787 36.5461 45.177C35.4561 43.567 35.3861 41.187 36.9361 39.817C37.8161 39.037 38.9561 38.707 40.1061 38.627C40.6961 38.587 41.2861 38.607 41.8761 38.647C42.3961 38.687 43.0361 38.667 43.3561 39.147C43.4761 39.327 44.1761 39.097 44.0361 38.877L44.0261 38.867Z" fill="#FF646B"/>
<path d="M59.136 49.2373C57.836 48.2473 56.246 46.9973 56.306 45.1773C56.326 44.4773 56.656 43.7873 57.296 43.4573C57.876 43.1473 58.516 43.3173 58.946 43.7973C59.466 44.3773 59.686 45.1573 59.876 45.8873C59.946 46.1573 60.416 46.0773 60.546 45.8973C60.976 45.3073 61.546 44.5173 62.326 44.3773C63.026 44.2573 63.596 44.8573 63.796 45.4773C64.036 46.2273 63.746 46.9873 63.196 47.5173C62.646 48.0473 61.896 48.2373 61.146 48.4173C60.316 48.6173 59.446 48.8973 59.006 49.6873C58.916 49.8473 59.086 49.9773 59.226 49.9973C59.406 50.0173 59.606 49.9373 59.696 49.7773C60.076 49.0973 61.006 48.9973 61.686 48.8273C62.586 48.6073 63.446 48.2173 64.036 47.4773C64.576 46.7973 64.796 45.8973 64.446 45.0773C64.096 44.2573 63.346 43.7373 62.466 43.8273C61.356 43.9273 60.566 44.8373 59.946 45.6773H60.616C60.426 44.9273 60.186 44.1173 59.666 43.5073C59.116 42.8673 58.266 42.5873 57.446 42.8273C56.626 43.0673 55.926 43.7373 55.696 44.5773C55.436 45.4973 55.696 46.4773 56.176 47.2773C56.766 48.2573 57.706 48.9673 58.596 49.6573C58.856 49.8573 59.486 49.4873 59.156 49.2373H59.136Z" fill="#FF646B"/>
</svg>
