<svg width="100" height="100" viewBox="0 0 100 100" fill="none" xmlns="http://www.w3.org/2000/svg">
<path d="M10 50.4651C10 40.2671 18.2671 32 28.4651 32H71.5349C81.7329 32 90 40.2671 90 50.4651C90 60.6631 81.7329 68.9302 71.5349 68.9302H28.4651C18.2671 68.9302 10 60.6631 10 50.4651Z" fill="#FFE5B7"/>
<path d="M31.2275 31.8007L31.1622 30.8959L31.2275 31.8007ZM40.4356 31.8823L40.3246 30.9819L40.4356 31.8823ZM42.2772 31.6553L42.1662 30.7549L42.2772 31.6553ZM44.1188 31.7037L43.9617 32.5972L44.1188 31.7037ZM45.0396 31.8656L45.1967 30.9722L45.0396 31.8656ZM45.9604 32.0276L45.8033 32.921L45.9604 32.0276ZM47.802 32.0976L47.712 31.1949L47.802 32.0976ZM51.4852 31.8043L51.4676 30.8973L51.4852 31.8043ZM55.1685 31.8297L55.0909 32.7336L55.1685 31.8297ZM57.0101 31.9876L57.0876 31.0838L57.0101 31.9876ZM58.8517 31.9535L58.7411 31.0531L58.8517 31.9535ZM59.7725 31.8404L59.6619 30.94L59.7725 31.8404ZM60.6933 31.7273L60.8039 32.6277L60.6933 31.7273ZM62.5349 31.772L62.6882 30.8779L62.5349 31.772ZM64.3765 32.0877L64.2232 32.9818L64.3765 32.0877ZM66.2181 32.1389L66.1138 31.2377L66.2181 32.1389ZM69.8977 31.9344L69.7844 32.8345L69.8977 31.9344ZM74.5267 32.2429L74.5084 31.3359L74.5267 32.2429ZM77.2878 32.5306L77.6015 31.6794L77.2878 32.5306ZM79.0546 33.1819L78.7409 34.0331L79.0546 33.1819ZM80.6581 34.1086L81.2395 33.4122L80.6581 34.1086ZM82.0982 35.3108L81.5168 36.0072L82.0982 35.3108ZM84.6013 37.9883L83.913 38.5793L84.6013 37.9883ZM85.6992 39.4226L86.4499 38.9132L85.6992 39.4226ZM86.7064 40.907L85.9558 41.4163L86.7064 40.907ZM87.5908 42.462L88.4124 42.0771L87.5908 42.462ZM88.3524 44.0877L87.5309 44.4725L88.3524 44.0877ZM88.9668 45.7749L89.8432 45.5408L88.9668 45.7749ZM89.2003 46.6493L88.3238 46.8834L89.2003 46.6493ZM89.4339 47.5238L88.5574 47.7579L89.4339 47.5238ZM89.6975 49.3088L88.7908 49.3387L89.6975 49.3088ZM89.7576 51.13L90.6643 51.1001L89.7576 51.13ZM89.6186 52.9366L88.7271 52.7684L89.6186 52.9366ZM89.4495 53.8327L88.558 53.6644L89.4495 53.8327ZM89.2804 54.7287L90.1718 54.8969L89.2804 54.7287ZM88.7417 56.4553L89.5705 56.8241L88.7417 56.4553ZM88.0024 58.1165L88.8313 58.4853L88.0024 58.1165ZM87.1281 59.6985L86.375 59.1927L87.1281 59.6985ZM86.1187 61.2015L86.8718 61.7073L86.1187 61.2015ZM84.9592 62.5743L84.3348 61.9162L84.9592 62.5743ZM83.6496 63.8169L84.274 64.475L83.6496 63.8169ZM82.2396 64.925L82.7311 65.6875L82.2396 64.925ZM81.4845 65.4118L81.976 66.1743L81.4845 65.4118ZM80.7293 65.8985L80.2378 65.136L80.7293 65.8985ZM79.1505 66.7463L79.5146 67.5772L79.1505 66.7463ZM77.5032 67.4682L77.1391 66.6372L77.5032 67.4682ZM75.8003 68.0687L75.5618 67.1934L75.8003 68.0687ZM74.9211 68.3083L74.6826 67.433L74.9211 68.3083ZM74.0418 68.5478L74.2803 69.4231L74.0418 68.5478ZM72.2436 68.8571L72.3123 69.7617L72.2436 68.8571ZM71.3246 68.9269L71.2559 68.0223L71.3246 68.9269ZM70.4056 68.9967L70.337 68.0921L70.4056 68.9967ZM66.7242 69.0038L66.7036 69.9107L66.7242 69.0038ZM64.8826 68.9907L64.8903 69.8979V69.8979L64.8826 68.9907ZM63.9618 68.9986L63.9695 69.9057L63.9618 68.9986ZM63.041 69.0064L63.0333 68.0992L63.041 69.0064ZM61.1994 69.0036L61.2099 68.0964L61.1994 69.0036ZM59.3578 68.9823L59.3473 69.8894L59.3578 68.9823ZM57.5161 68.9707L57.5152 69.8779L57.5161 68.9707ZM56.5953 68.9697L56.5963 68.0625L56.5953 68.9697ZM53.8329 68.8699L53.7369 69.772L53.8329 68.8699ZM50.1497 68.5728L50.1528 67.6656L50.1497 68.5728ZM48.3081 68.5665L48.305 69.4737L48.3081 68.5665ZM46.4665 68.7251L46.6235 69.6186L46.4665 68.7251ZM44.6249 69.0487L44.4678 68.1552L44.6249 69.0487ZM42.7833 69.0892L42.6647 69.9886L42.7833 69.0892ZM40.9416 68.8465L41.0602 67.9471L40.9416 68.8465ZM39.1 68.7485L39.123 69.6554L39.1 68.7485ZM37.2584 68.7952L37.2814 69.7021L37.2584 68.7952ZM34.496 68.6516L34.5779 67.7481L34.496 68.6516ZM33.5752 68.5682L33.4933 69.4717L33.5752 68.5682ZM31.7336 68.7196L31.9578 69.5987L31.7336 68.7196ZM29.892 69.1894L29.6677 68.3104L29.892 69.1894ZM28.0544 69.2304L28.2421 68.3429L28.0544 69.2304ZM27.1376 69.0366L26.9499 69.9241L27.1376 69.0366ZM26.2209 68.8427L26.0332 69.7303L26.2209 68.8427ZM24.3914 68.4735L24.2203 69.3644L24.3914 68.4735ZM23.4787 68.2982L23.3076 69.1891L23.4787 68.2982ZM22.566 68.1229L22.7371 67.232L22.566 68.1229ZM20.8431 67.4894L20.3965 68.2791L20.8431 67.4894ZM19.2226 66.5731L19.6692 65.7834L19.2226 66.5731ZM17.641 65.5868L17.1285 66.3354L17.641 65.5868ZM16.0982 64.5305L16.6107 63.782L16.0982 64.5305ZM14.8314 63.209L14.0619 63.6895L14.8314 63.209ZM13.8405 61.6221L14.61 61.1416L13.8405 61.6221ZM12.5243 59.2043L11.7146 59.6134L12.5243 59.2043ZM12.114 58.392L12.9237 57.9829L12.114 58.392ZM11.4791 56.7053L10.6004 56.9309L11.4791 56.7053ZM10.4784 53.1897L9.62672 53.502L10.4784 53.1897ZM9.66161 49.5876L8.76848 49.4284V49.4284L9.66161 49.5876ZM9.99135 47.7368L9.09821 47.5777L9.99135 47.7368ZM10.5577 45.977L11.3752 46.3704L10.5577 45.977ZM10.9593 45.1427L10.1418 44.7493L10.9593 45.1427ZM12.1777 42.6721L11.3722 42.2548L12.1777 42.6721ZM13.9614 39.5286L13.2282 38.9945L13.9614 39.5286ZM14.4989 38.7907L13.7656 38.2566L14.4989 38.7907ZM16.3001 36.7584L15.7483 36.0384L16.3001 36.7584ZM20.1654 34.4144L20.5022 35.2568L20.1654 34.4144ZM21.0085 34.0773L20.6717 33.2349L21.0085 34.0773ZM22.6795 33.3093L22.2607 32.5046L22.6795 33.3093ZM24.3351 32.4478L24.7539 33.2525L24.3351 32.4478ZM27.6395 32.0737L27.6188 32.9807L27.6395 32.0737ZM30.3067 31.8671L30.372 32.772L31.2928 32.7056L31.2275 31.8007L31.1622 30.8959L30.2414 30.9623L30.3067 31.8671ZM31.2275 31.8007L31.2928 32.7056C31.8455 32.6657 32.3983 32.6816 32.9521 32.7537L33.0691 31.8541L33.1862 30.9545C32.5122 30.8668 31.8373 30.8472 31.1622 30.8959L31.2275 31.8007ZM33.0691 31.8541L32.9521 32.7537L33.8729 32.8735L33.9899 31.9739L34.107 31.0743L33.1862 30.9545L33.0691 31.8541ZM33.9899 31.9739L33.8729 32.8735L34.7937 32.9933L34.9107 32.0937L35.0278 31.1941L34.107 31.0743L33.9899 31.9739ZM34.9107 32.0937L34.7937 32.9933C35.4637 33.0805 36.1347 33.1044 36.8059 33.0647L36.7523 32.1591L36.6988 31.2535C36.1422 31.2864 35.5855 31.2667 35.0278 31.1941L34.9107 32.0937ZM36.7523 32.1591L36.8059 33.0647L37.7267 33.0103L37.6731 32.1047L37.6196 31.1991L36.6988 31.2535L36.7523 32.1591ZM37.6731 32.1047L37.7267 33.0103L38.6475 32.9559L38.594 32.0502L38.5404 31.1446L37.6196 31.1991L37.6731 32.1047ZM38.594 32.0502L38.6475 32.9559C39.2807 32.9184 39.9137 32.8607 40.5465 32.7827L40.4356 31.8823L40.3246 30.9819C39.7297 31.0552 39.135 31.1095 38.5404 31.1446L38.594 32.0502ZM40.4356 31.8823L40.5465 32.7827L41.4673 32.6692L41.3564 31.7688L41.2454 30.8684L40.3246 30.9819L40.4356 31.8823ZM41.3564 31.7688L41.4673 32.6692L42.3881 32.5557L42.2772 31.6553L42.1662 30.7549L41.2454 30.8684L41.3564 31.7688ZM42.2772 31.6553L42.3881 32.5557C42.9121 32.4911 43.4356 32.5047 43.9617 32.5972L44.1188 31.7037L44.2759 30.8103C43.5742 30.6869 42.87 30.6682 42.1662 30.7549L42.2772 31.6553ZM44.1188 31.7037L43.9617 32.5972L44.8825 32.7591L45.0396 31.8656L45.1967 30.9722L44.2759 30.8103L44.1188 31.7037ZM45.0396 31.8656L44.8825 32.7591L45.8033 32.921L45.9604 32.0276L46.1175 31.1341L45.1967 30.9722L45.0396 31.8656ZM45.9604 32.0276L45.8033 32.921C46.4979 33.0432 47.1949 33.0699 47.892 33.0004L47.802 32.0976L47.712 31.1949C47.1814 31.2478 46.6507 31.2278 46.1175 31.1341L45.9604 32.0276ZM47.802 32.0976L47.892 33.0004L48.8128 32.9085L48.7228 32.0058L48.6328 31.1031L47.712 31.1949L47.802 32.0976ZM48.7228 32.0058L48.8128 32.9085L49.7336 32.8167L49.6436 31.914L49.5536 31.0113L48.6328 31.1031L48.7228 32.0058ZM49.6436 31.914L49.7336 32.8167C50.3236 32.7579 50.9133 32.7228 51.5028 32.7113L51.4852 31.8043L51.4676 30.8973C50.8295 30.9096 50.1914 30.9477 49.5536 31.0113L49.6436 31.914ZM51.4852 31.8043L51.5028 32.7113L52.4236 32.6935L52.406 31.7864L52.3884 30.8794L51.4676 30.8973L51.4852 31.8043ZM52.406 31.7864L52.4236 32.6935L53.3444 32.6756L53.3268 31.7686L53.3092 30.8615L52.3884 30.8794L52.406 31.7864ZM53.3268 31.7686L53.3444 32.6756C53.9265 32.6643 54.5086 32.6836 55.0909 32.7336L55.1685 31.8297L55.246 30.9258C54.6006 30.8704 53.955 30.849 53.3092 30.8615L53.3268 31.7686ZM55.1685 31.8297L55.0909 32.7336L56.0117 32.8125L56.0893 31.9087L56.1668 31.0048L55.246 30.9258L55.1685 31.8297ZM56.0893 31.9087L56.0117 32.8125L56.9325 32.8915L57.0101 31.9876L57.0876 31.0838L56.1668 31.0048L56.0893 31.9087ZM57.0101 31.9876L56.9325 32.8915C57.6093 32.9496 58.2862 32.937 58.9623 32.8539L58.8517 31.9535L58.7411 31.0531C58.1894 31.1209 57.6386 31.131 57.0876 31.0838L57.0101 31.9876ZM58.8517 31.9535L58.9623 32.8539L59.8831 32.7408L59.7725 31.8404L59.6619 30.94L58.7411 31.0531L58.8517 31.9535ZM59.7725 31.8404L59.8831 32.7408L60.8039 32.6277L60.6933 31.7273L60.5827 30.8269L59.6619 30.94L59.7725 31.8404ZM60.6933 31.7273L60.8039 32.6277C61.3293 32.5632 61.8543 32.5758 62.3816 32.6662L62.5349 31.772L62.6882 30.8779C61.9877 30.7578 61.285 30.7406 60.5827 30.8269L60.6933 31.7273ZM62.5349 31.772L62.3816 32.6662L63.3024 32.824L63.4557 31.9299L63.609 31.0357L62.6882 30.8779L62.5349 31.772ZM63.4557 31.9299L63.3024 32.824L64.2232 32.9818L64.3765 32.0877L64.5298 31.1935L63.609 31.0357L63.4557 31.9299ZM64.3765 32.0877L64.2232 32.9818C64.9215 33.1015 65.6222 33.1212 66.3225 33.0401L66.2181 32.1389L66.1138 31.2377C65.5863 31.2988 65.0592 31.2843 64.5298 31.1935L64.3765 32.0877ZM66.2181 32.1389L66.3225 33.0401L67.2433 32.9334L67.1389 32.0322L67.0346 31.1311L66.1138 31.2377L66.2181 32.1389ZM67.1389 32.0322L67.2433 32.9334L68.1641 32.8268L68.0597 31.9256L67.9554 31.0244L67.0346 31.1311L67.1389 32.0322ZM68.0597 31.9256L68.1641 32.8268C68.7058 32.764 69.2454 32.7667 69.7844 32.8345L69.8977 31.9344L70.011 31.0343C69.3271 30.9482 68.6414 30.945 67.9554 31.0244L68.0597 31.9256ZM69.8977 31.9344L69.7844 32.8345L70.7015 32.9499L70.8148 32.0498L70.9281 31.1498L70.011 31.0343L69.8977 31.9344ZM70.8148 32.0498L70.7015 32.9499L71.6186 33.0654L71.7319 32.1653L71.8452 31.2652L70.9281 31.1498L70.8148 32.0498ZM71.7319 32.1653L71.6186 33.0654C72.2744 33.1479 72.937 33.1823 73.6062 33.1688L73.5879 32.2618L73.5696 31.3548C72.987 31.3665 72.4123 31.3366 71.8452 31.2652L71.7319 32.1653ZM73.5879 32.2618L73.6062 33.1688L74.545 33.1499L74.5267 32.2429L74.5084 31.3359L73.5696 31.3548L73.5879 32.2618ZM74.5267 32.2429L74.545 33.1499L75.4838 33.131L75.4655 32.2239L75.4473 31.3169L74.5084 31.3359L74.5267 32.2429ZM75.4655 32.2239L75.4838 33.131C75.9962 33.1206 76.491 33.2038 76.974 33.3818L77.2878 32.5306L77.6015 31.6794C76.9066 31.4233 76.1866 31.302 75.4473 31.3169L75.4655 32.2239ZM77.2878 32.5306L76.974 33.3818L77.8575 33.7075L78.1712 32.8562L78.485 32.005L77.6015 31.6794L77.2878 32.5306ZM78.1712 32.8562L77.8575 33.7075L78.7409 34.0331L79.0546 33.1819L79.3684 32.3306L78.485 32.005L78.1712 32.8562ZM79.0546 33.1819L78.7409 34.0331C79.2328 34.2144 79.6767 34.4711 80.0767 34.805L80.6581 34.1086L81.2395 33.4122C80.6795 32.9446 80.0544 32.5835 79.3684 32.3306L79.0546 33.1819ZM80.6581 34.1086L80.0767 34.805L80.7968 35.4061L81.3781 34.7097L81.9595 34.0133L81.2395 33.4122L80.6581 34.1086ZM81.3781 34.7097L80.7968 35.4061L81.5168 36.0072L82.0982 35.3108L82.6796 34.6144L81.9595 34.0133L81.3781 34.7097ZM82.0982 35.3108L81.5168 36.0072C81.9594 36.3767 82.3616 36.7727 82.7243 37.195L83.4126 36.604L84.1008 36.013C83.671 35.5125 83.197 35.0463 82.6796 34.6144L82.0982 35.3108ZM83.4126 36.604L82.7243 37.195L83.3186 37.8872L84.0069 37.2962L84.6952 36.7052L84.1008 36.013L83.4126 36.604ZM84.0069 37.2962L83.3186 37.8872L83.913 38.5793L84.6013 37.9883L85.2895 37.3973L84.6952 36.7052L84.0069 37.2962ZM84.6013 37.9883L83.913 38.5793C84.2873 39.0152 84.6324 39.4661 84.9485 39.932L85.6992 39.4226L86.4499 38.9132C86.0946 38.3896 85.7077 37.8843 85.2895 37.3973L84.6013 37.9883ZM85.6992 39.4226L84.9485 39.932L85.4521 40.6742L86.2028 40.1648L86.9535 39.6554L86.4499 38.9132L85.6992 39.4226ZM86.2028 40.1648L85.4521 40.6742L85.9558 41.4163L86.7064 40.907L87.4571 40.3976L86.9535 39.6554L86.2028 40.1648ZM86.7064 40.907L85.9558 41.4163C86.2646 41.8715 86.5357 42.3482 86.7693 42.8468L87.5908 42.462L88.4124 42.0771C88.1382 41.4919 87.8197 40.9319 87.4571 40.3976L86.7064 40.907ZM87.5908 42.462L86.7693 42.8468L87.1501 43.6597L87.9716 43.2748L88.7932 42.89L88.4124 42.0771L87.5908 42.462ZM87.9716 43.2748L87.1501 43.6597L87.5309 44.4725L88.3524 44.0877L89.1739 43.7028L88.7932 42.89L87.9716 43.2748ZM88.3524 44.0877L87.5309 44.4725C87.7618 44.9655 87.9483 45.4774 88.0903 46.009L88.9668 45.7749L89.8432 45.5408C89.6738 44.9065 89.4507 44.2936 89.1739 43.7028L88.3524 44.0877ZM88.9668 45.7749L88.0903 46.009L88.3238 46.8834L89.2003 46.6493L90.0768 46.4152L89.8432 45.5408L88.9668 45.7749ZM89.2003 46.6493L88.3238 46.8834L88.5574 47.7579L89.4339 47.5238L90.3103 47.2897L90.0768 46.4152L89.2003 46.6493ZM89.4339 47.5238L88.5574 47.7579C88.6952 48.2737 88.773 48.8002 88.7908 49.3387L89.6975 49.3088L90.6042 49.2788C90.5819 48.6033 90.484 47.9397 90.3103 47.2897L89.4339 47.5238ZM89.6975 49.3088L88.7908 49.3387L88.8208 50.2493L89.7276 50.2194L90.6343 50.1895L90.6042 49.2788L89.6975 49.3088ZM89.7276 50.2194L88.8208 50.2493L88.8509 51.1599L89.7576 51.13L90.6643 51.1001L90.6343 50.1895L89.7276 50.2194ZM89.7576 51.13L88.8509 51.1599C88.8688 51.7005 88.8276 52.2363 88.7271 52.7684L89.6186 52.9366L90.51 53.1049C90.6351 52.4423 90.6866 51.7736 90.6643 51.1001L89.7576 51.13ZM89.6186 52.9366L88.7271 52.7684L88.558 53.6644L89.4495 53.8327L90.3409 54.0009L90.51 53.1049L89.6186 52.9366ZM89.4495 53.8327L88.558 53.6644L88.3889 54.5604L89.2804 54.7287L90.1718 54.8969L90.3409 54.0009L89.4495 53.8327ZM89.2804 54.7287L88.3889 54.5604C88.2892 55.0889 88.1306 55.5971 87.9128 56.0865L88.7417 56.4553L89.5705 56.8241C89.8456 56.206 90.0461 55.5631 90.1718 54.8969L89.2804 54.7287ZM88.7417 56.4553L87.9128 56.0865L87.5432 56.917L88.372 57.2859L89.2009 57.6547L89.5705 56.8241L88.7417 56.4553ZM88.372 57.2859L87.5432 56.917L87.1736 57.7476L88.0024 58.1165L88.8313 58.4853L89.2009 57.6547L88.372 57.2859ZM88.0024 58.1165L87.1736 57.7476C86.9483 58.2538 86.6822 58.7353 86.375 59.1927L87.1281 59.6985L87.8812 60.2044C88.247 59.6598 88.5637 59.0866 88.8313 58.4853L88.0024 58.1165ZM87.1281 59.6985L86.375 59.1927L85.8703 59.9442L86.6234 60.45L87.3765 60.9558L87.8812 60.2044L87.1281 59.6985ZM86.6234 60.45L85.8703 59.9442L85.3656 60.6957L86.1187 61.2015L86.8718 61.7073L87.3765 60.9558L86.6234 60.45ZM86.1187 61.2015L85.3656 60.6957C85.0662 61.1415 84.7228 61.548 84.3348 61.9162L84.9592 62.5743L85.5836 63.2324C86.0687 62.7722 86.4983 62.2635 86.8718 61.7073L86.1187 61.2015ZM84.9592 62.5743L84.3348 61.9162L83.68 62.5375L84.3044 63.1956L84.9288 63.8537L85.5836 63.2324L84.9592 62.5743ZM84.3044 63.1956L83.68 62.5375L83.0251 63.1588L83.6496 63.8169L84.274 64.475L84.9288 63.8537L84.3044 63.1956ZM83.6496 63.8169L83.0251 63.1588C82.6294 63.5343 82.2039 63.8687 81.7481 64.1625L82.2396 64.925L82.7311 65.6875C83.2822 65.3323 83.7967 64.9279 84.274 64.475L83.6496 63.8169ZM82.2396 64.925L81.7481 64.1625L80.9929 64.6492L81.4845 65.4118L81.976 66.1743L82.7311 65.6875L82.2396 64.925ZM81.4845 65.4118L80.9929 64.6492L80.2378 65.136L80.7293 65.8985L81.2208 66.661L81.976 66.1743L81.4845 65.4118ZM80.7293 65.8985L80.2378 65.136C79.775 65.4344 79.2913 65.6941 78.7864 65.9153L79.1505 66.7463L79.5146 67.5772C80.1079 67.3172 80.6768 67.0117 81.2208 66.661L80.7293 65.8985ZM79.1505 66.7463L78.7864 65.9153L77.9627 66.2763L78.3268 67.1072L78.691 67.9381L79.5146 67.5772L79.1505 66.7463ZM78.3268 67.1072L77.9627 66.2763L77.1391 66.6372L77.5032 67.4682L77.8673 68.2991L78.691 67.9381L78.3268 67.1072ZM77.5032 67.4682L77.1391 66.6372C76.6312 66.8598 76.1056 67.0452 75.5618 67.1934L75.8003 68.0687L76.0388 68.944C76.6673 68.7727 77.277 68.5578 77.8673 68.2991L77.5032 67.4682ZM75.8003 68.0687L75.5618 67.1934L74.6826 67.433L74.9211 68.3083L75.1596 69.1835L76.0388 68.944L75.8003 68.0687ZM74.9211 68.3083L74.6826 67.433L73.8033 67.6725L74.0418 68.5478L74.2803 69.4231L75.1596 69.1835L74.9211 68.3083ZM74.0418 68.5478L73.8033 67.6725C73.2734 67.8169 72.7308 67.9104 72.1749 67.9525L72.2436 68.8571L72.3123 69.7617C72.9817 69.7109 73.638 69.5981 74.2803 69.4231L74.0418 68.5478ZM72.2436 68.8571L72.1749 67.9525L71.2559 68.0223L71.3246 68.9269L71.3933 69.8315L72.3123 69.7617L72.2436 68.8571ZM71.3246 68.9269L71.2559 68.0223L70.337 68.0921L70.4056 68.9967L70.4743 69.9012L71.3933 69.8315L71.3246 68.9269ZM70.4056 68.9967L70.337 68.0921C69.754 68.1363 69.1705 68.1518 68.5864 68.1386L68.5658 69.0455L68.5452 69.9525C69.1889 69.9671 69.8319 69.95 70.4743 69.9012L70.4056 68.9967ZM68.5658 69.0455L68.5864 68.1386L67.6656 68.1177L67.645 69.0247L67.6244 69.9316L68.5452 69.9525L68.5658 69.0455ZM67.645 69.0247L67.6656 68.1177L66.7448 68.0968L66.7242 69.0038L66.7036 69.9107L67.6244 69.9316L67.645 69.0247ZM66.7242 69.0038L66.7448 68.0968C66.1215 68.0827 65.4982 68.0783 64.8749 68.0836L64.8826 68.9907L64.8903 69.8979C65.4947 69.8928 66.0992 69.897 66.7036 69.9107L66.7242 69.0038ZM64.8826 68.9907L64.8749 68.0836L63.9541 68.0914L63.9618 68.9986L63.9695 69.9057L64.8903 69.8979L64.8826 68.9907ZM63.9618 68.9986L63.9541 68.0914L63.0333 68.0992L63.041 69.0064L63.0487 69.9136L63.9695 69.9057L63.9618 68.9986ZM63.041 69.0064L63.0333 68.0992C62.4255 68.1044 61.8177 68.1035 61.2099 68.0964L61.1994 69.0036L61.1889 69.9107C61.8088 69.9179 62.4288 69.9188 63.0487 69.9136L63.041 69.0064ZM61.1994 69.0036L61.2099 68.0964L60.2891 68.0858L60.2786 68.9929L60.2681 69.9001L61.1889 69.9107L61.1994 69.0036ZM60.2786 68.9929L60.2891 68.0858L59.3682 68.0751L59.3578 68.9823L59.3473 69.8894L60.2681 69.9001L60.2786 68.9929ZM59.3578 68.9823L59.3682 68.0751C58.7512 68.068 58.1341 68.0641 57.5171 68.0635L57.5161 68.9707L57.5152 69.8779C58.1259 69.8785 58.7366 69.8824 59.3473 69.8894L59.3578 68.9823ZM57.5161 68.9707L57.5171 68.0635L56.5963 68.0625L56.5953 68.9697L56.5944 69.8769L57.5152 69.8779L57.5161 68.9707ZM56.5953 68.9697L56.5963 68.0625L55.6755 68.0616L55.6745 68.9688L55.6736 69.876L56.5944 69.8769L56.5953 68.9697ZM55.6745 68.9688L55.6755 68.0616C55.0935 68.061 54.5114 68.0298 53.9289 67.9678L53.8329 68.8699L53.7369 69.772C54.3822 69.8407 55.0278 69.8753 55.6736 69.876L55.6745 68.9688ZM53.8329 68.8699L53.9289 67.9678L53.0081 67.8698L52.9121 68.7719L52.8161 69.674L53.7369 69.772L53.8329 68.8699ZM52.9121 68.7719L53.0081 67.8698L52.0873 67.7719L51.9913 68.674L51.8953 69.5761L52.8161 69.674L52.9121 68.7719ZM51.9913 68.674L52.0873 67.7719C51.4427 67.7033 50.7979 67.6679 50.1528 67.6656L50.1497 68.5728L50.1466 69.48C50.7292 69.482 51.3121 69.514 51.8953 69.5761L51.9913 68.674ZM50.1497 68.5728L50.1528 67.6656L49.232 67.6625L49.2289 68.5697L49.2258 69.4768L50.1466 69.48L50.1497 68.5728ZM49.2289 68.5697L49.232 67.6625L48.3112 67.6593L48.3081 68.5665L48.305 69.4737L49.2258 69.4768L49.2289 68.5697ZM48.3081 68.5665L48.3112 67.6593C47.6429 67.657 46.9754 67.7146 46.3095 67.8316L46.4665 68.7251L46.6235 69.6186C47.1853 69.5199 47.7456 69.4717 48.305 69.4737L48.3081 68.5665ZM46.4665 68.7251L46.3095 67.8316L45.3887 67.9934L45.5457 68.8869L45.7027 69.7804L46.6235 69.6186L46.4665 68.7251ZM45.5457 68.8869L45.3887 67.9934L44.4678 68.1552L44.6249 69.0487L44.7819 69.9422L45.7027 69.7804L45.5457 68.8869ZM44.6249 69.0487L44.4678 68.1552C43.9444 68.2472 43.4234 68.2585 42.9018 68.1898L42.7833 69.0892L42.6647 69.9886C43.3708 70.0817 44.0776 70.066 44.7819 69.9422L44.6249 69.0487ZM42.7833 69.0892L42.9018 68.1898L41.981 68.0685L41.8624 68.9679L41.7439 69.8673L42.6647 69.9886L42.7833 69.0892ZM41.8624 68.9679L41.981 68.0685L41.0602 67.9471L40.9416 68.8465L40.8231 69.746L41.7439 69.8673L41.8624 68.9679ZM40.9416 68.8465L41.0602 67.9471C40.3998 67.8601 39.7386 67.8249 39.0771 67.8416L39.1 68.7485L39.123 69.6554C39.6892 69.6411 40.2558 69.6712 40.8231 69.746L40.9416 68.8465ZM39.1 68.7485L39.0771 67.8416L38.1563 67.8649L38.1792 68.7719L38.2022 69.6788L39.123 69.6554L39.1 68.7485ZM38.1792 68.7719L38.1563 67.8649L37.2355 67.8883L37.2584 68.7952L37.2814 69.7021L38.2022 69.6788L38.1792 68.7719ZM37.2584 68.7952L37.2355 67.8883C36.6567 67.9029 36.0778 67.884 35.4987 67.8316L35.4168 68.735L35.3349 69.6385C35.9835 69.6973 36.6324 69.7185 37.2814 69.7021L37.2584 68.7952ZM35.4168 68.735L35.4987 67.8316L34.5779 67.7481L34.496 68.6516L34.4141 69.5551L35.3349 69.6385L35.4168 68.735ZM34.496 68.6516L34.5779 67.7481L33.6571 67.6647L33.5752 68.5682L33.4933 69.4717L34.4141 69.5551L34.496 68.6516ZM33.5752 68.5682L33.6571 67.6647C32.9377 67.5995 32.2203 67.6592 31.5093 67.8406L31.7336 68.7196L31.9578 69.5987C32.4746 69.4668 32.985 69.4256 33.4933 69.4717L33.5752 68.5682ZM31.7336 68.7196L31.5093 67.8406L30.5885 68.0755L30.8128 68.9545L31.037 69.8336L31.9578 69.5987L31.7336 68.7196ZM30.8128 68.9545L30.5885 68.0755L29.6677 68.3104L29.892 69.1894L30.1162 70.0685L31.037 69.8336L30.8128 68.9545ZM29.892 69.1894L29.6677 68.3104C29.1867 68.4331 28.7151 68.4429 28.2421 68.3429L28.0544 69.2304L27.8667 70.118C28.616 70.2765 29.3695 70.259 30.1162 70.0685L29.892 69.1894ZM28.0544 69.2304L28.2421 68.3429L27.3253 68.149L27.1376 69.0366L26.9499 69.9241L27.8667 70.118L28.0544 69.2304ZM27.1376 69.0366L27.3253 68.149L26.4086 67.9551L26.2209 68.8427L26.0332 69.7303L26.9499 69.9241L27.1376 69.0366ZM26.2209 68.8427L26.4086 67.9551C25.7919 67.8247 25.1766 67.7005 24.5625 67.5826L24.3914 68.4735L24.2203 69.3644C24.8232 69.4802 25.4275 69.6022 26.0332 69.7303L26.2209 68.8427ZM24.3914 68.4735L24.5625 67.5826L23.6498 67.4073L23.4787 68.2982L23.3076 69.1891L24.2203 69.3644L24.3914 68.4735ZM23.4787 68.2982L23.6498 67.4073L22.7371 67.232L22.566 68.1229L22.3948 69.0138L23.3076 69.1891L23.4787 68.2982ZM22.566 68.1229L22.7371 67.232C22.2255 67.1337 21.7442 66.9568 21.2896 66.6997L20.8431 67.4894L20.3965 68.2791C21.0222 68.6329 21.6895 68.8783 22.3948 69.0138L22.566 68.1229ZM20.8431 67.4894L21.2896 66.6997L20.4794 66.2416L20.0329 67.0313L19.5863 67.8209L20.3965 68.2791L20.8431 67.4894ZM20.0329 67.0313L20.4794 66.2416L19.6692 65.7834L19.2226 66.5731L18.7761 67.3628L19.5863 67.8209L20.0329 67.0313ZM19.2226 66.5731L19.6692 65.7834C19.1517 65.4908 18.6465 65.1758 18.1535 64.8382L17.641 65.5868L17.1285 66.3354C17.6641 66.702 18.2133 67.0445 18.7761 67.3628L19.2226 66.5731ZM17.641 65.5868L18.1535 64.8382L17.3821 64.3101L16.8696 65.0587L16.3571 65.8072L17.1285 66.3354L17.641 65.5868ZM16.8696 65.0587L17.3821 64.3101L16.6107 63.782L16.0982 64.5305L15.5857 65.2791L16.3571 65.8072L16.8696 65.0587ZM16.0982 64.5305L16.6107 63.782C16.1998 63.5006 15.865 63.1514 15.6009 62.7285L14.8314 63.209L14.0619 63.6895C14.4584 64.3245 14.9682 64.8563 15.5857 65.2791L16.0982 64.5305ZM14.8314 63.209L15.6009 62.7285L15.1055 61.935L14.336 62.4155L13.5665 62.896L14.0619 63.6895L14.8314 63.209ZM14.336 62.4155L15.1055 61.935L14.61 61.1416L13.8405 61.6221L13.071 62.1026L13.5665 62.896L14.336 62.4155ZM13.8405 61.6221L14.61 61.1416C14.2938 60.6352 14.0053 60.1238 13.7444 59.6074L12.9347 60.0165L12.125 60.4256C12.4112 60.9921 12.7267 61.5511 13.071 62.1026L13.8405 61.6221ZM12.9347 60.0165L13.7444 59.6074L13.3341 58.7952L12.5243 59.2043L11.7146 59.6134L12.125 60.4256L12.9347 60.0165ZM12.5243 59.2043L13.3341 58.7952L12.9237 57.9829L12.114 58.392L11.3043 58.8012L11.7146 59.6134L12.5243 59.2043ZM12.114 58.392L12.9237 57.9829C12.6794 57.4995 12.4911 56.9988 12.3578 56.4798L11.4791 56.7053L10.6004 56.9309C10.7665 57.5779 11.0014 58.2016 11.3043 58.8012L12.114 58.392ZM11.4791 56.7053L12.3578 56.4798L12.1333 55.6053L11.2546 55.8309L10.3759 56.0564L10.6004 56.9309L11.4791 56.7053ZM11.2546 55.8309L12.1333 55.6053L11.9089 54.7308L11.0302 54.9564L10.1514 55.1819L10.3759 56.0564L11.2546 55.8309ZM11.0302 54.9564L11.9089 54.7308C11.7513 54.117 11.5582 53.4991 11.3302 52.8773L10.4784 53.1897L9.62672 53.502C9.83498 54.0699 10.0097 54.6298 10.1514 55.1819L11.0302 54.9564ZM10.4784 53.1897L11.3302 52.8773L11.0029 51.985L10.1512 52.2974L9.29949 52.6098L9.62672 53.502L10.4784 53.1897ZM10.1512 52.2974L11.0029 51.985L10.6757 51.0928L9.82398 51.4052L8.97225 51.7176L9.29949 52.6098L10.1512 52.2974ZM9.82398 51.4052L10.6757 51.0928C10.5122 50.647 10.4733 50.2037 10.5547 49.7467L9.66161 49.5876L8.76848 49.4284C8.63008 50.2053 8.69946 50.9738 8.97225 51.7176L9.82398 51.4052ZM9.66161 49.5876L10.5547 49.7467L10.7196 48.8213L9.82648 48.6622L8.93335 48.503L8.76848 49.4284L9.66161 49.5876ZM9.82648 48.6622L10.7196 48.8213L10.8845 47.8959L9.99135 47.7368L9.09821 47.5777L8.93335 48.503L9.82648 48.6622ZM9.99135 47.7368L10.8845 47.8959C10.9802 47.3589 11.1438 46.8512 11.3752 46.3704L10.5577 45.977L9.74027 45.5836C9.4363 46.2153 9.22237 46.8808 9.09821 47.5777L9.99135 47.7368ZM10.5577 45.977L11.3752 46.3704L11.7767 45.5361L10.9593 45.1427L10.1418 44.7493L9.74027 45.5836L10.5577 45.977ZM10.9593 45.1427L11.7767 45.5361L12.1782 44.7017L11.3608 44.3083L10.5433 43.915L10.1418 44.7493L10.9593 45.1427ZM11.3608 44.3083L12.1782 44.7017C12.4421 44.1533 12.7105 43.6159 12.9832 43.0894L12.1777 42.6721L11.3722 42.2548C11.091 42.7975 10.8148 43.3509 10.5433 43.915L11.3608 44.3083ZM12.1777 42.6721L12.9832 43.0894L13.3987 42.2875L12.5931 41.8702L11.7876 41.4529L11.3722 42.2548L12.1777 42.6721ZM12.5931 41.8702L13.3987 42.2875L13.8141 41.4857L13.0086 41.0684L12.203 40.651L11.7876 41.4529L12.5931 41.8702ZM13.0086 41.0684L13.8141 41.4857C14.0697 40.9922 14.3631 40.518 14.6947 40.0627L13.9614 39.5286L13.2282 38.9945C12.8431 39.523 12.5013 40.0753 12.203 40.651L13.0086 41.0684ZM13.9614 39.5286L14.6947 40.0627L15.2322 39.3249L14.4989 38.7907L13.7656 38.2566L13.2282 38.9945L13.9614 39.5286ZM14.4989 38.7907L15.2322 39.3249L15.7696 38.587L15.0364 38.0529L14.3031 37.5187L13.7656 38.2566L14.4989 38.7907ZM15.0364 38.0529L15.7696 38.587C16.0766 38.1656 16.4367 37.7967 16.8519 37.4785L16.3001 36.7584L15.7483 36.0384C15.1952 36.4622 14.7128 36.9563 14.3031 37.5187L15.0364 38.0529ZM16.3001 36.7584L16.8519 37.4785L17.5782 36.922L17.0264 36.2019L16.4746 35.4818L15.7483 36.0384L16.3001 36.7584ZM17.0264 36.2019L17.5782 36.922L18.3045 36.3654L17.7527 35.6453L17.2009 34.9252L16.4746 35.4818L17.0264 36.2019ZM17.7527 35.6453L18.3045 36.3654C18.7235 36.0444 19.1744 35.7877 19.659 35.5939L19.3222 34.7516L18.9854 33.9092C18.3458 34.165 17.7504 34.5042 17.2009 34.9252L17.7527 35.6453ZM19.3222 34.7516L19.659 35.5939L20.5022 35.2568L20.1654 34.4144L19.8285 33.5721L18.9854 33.9092L19.3222 34.7516ZM20.1654 34.4144L20.5022 35.2568L21.3454 34.9196L21.0085 34.0773L20.6717 33.2349L19.8285 33.5721L20.1654 34.4144ZM21.0085 34.0773L21.3454 34.9196C21.9362 34.6834 22.5205 34.4147 23.0983 34.1141L22.6795 33.3093L22.2607 32.5046C21.7348 32.7782 21.2051 33.0216 20.6717 33.2349L21.0085 34.0773ZM22.6795 33.3093L23.0983 34.1141L23.9261 33.6833L23.5073 32.8785L23.0885 32.0738L22.2607 32.5046L22.6795 33.3093ZM23.5073 32.8785L23.9261 33.6833L24.7539 33.2525L24.3351 32.4478L23.9163 31.643L23.0885 32.0738L23.5073 32.8785ZM24.3351 32.4478L24.7539 33.2525C25.1881 33.0266 25.5891 32.9342 25.9677 32.9429L25.9885 32.0359L26.0092 31.1289C25.2871 31.1124 24.5859 31.2946 23.9163 31.643L24.3351 32.4478ZM25.9885 32.0359L25.9677 32.9429L26.7932 32.9618L26.814 32.0548L26.8348 31.1479L26.0092 31.1289L25.9885 32.0359ZM26.814 32.0548L26.7932 32.9618L27.6188 32.9807L27.6395 32.0737L27.6603 31.1668L26.8348 31.1479L26.814 32.0548ZM27.6395 32.0737L27.6188 32.9807C27.8958 32.9871 28.1126 32.9901 28.2634 32.9893C28.336 32.989 28.4083 32.9877 28.469 32.984C28.494 32.9824 28.5476 32.9788 28.6073 32.9685C28.6293 32.9647 28.7065 32.9513 28.7973 32.9151C28.8389 32.8986 28.9425 32.8547 29.0506 32.7632C29.1587 32.6716 29.3723 32.441 29.3723 32.0695H28.4651H27.5579C27.5579 31.699 27.7709 31.4693 27.878 31.3786C27.985 31.288 28.087 31.245 28.1264 31.2293C28.2129 31.1949 28.2837 31.1831 28.2971 31.1808C28.3396 31.1734 28.3673 31.1724 28.358 31.173C28.3499 31.1734 28.319 31.1746 28.254 31.175C28.1297 31.1756 27.9336 31.173 27.6603 31.1668L27.6395 32.0737ZM28.4651 32.0695H29.3723V32.0463H28.4651H27.5579V32.0695H28.4651ZM28.4651 32.0463H29.3723V32.0232H28.4651H27.5579V32.0463H28.4651ZM28.4651 32.0232H29.3723C29.3723 32.4177 29.1309 32.6469 29.0544 32.7122C28.9606 32.7921 28.8729 32.833 28.8406 32.8475C28.7679 32.8803 28.7086 32.8945 28.6981 32.8972C28.6638 32.9057 28.643 32.9081 28.6551 32.9064C28.6705 32.9041 28.7098 32.8993 28.7832 32.8921C28.9249 32.8783 29.1459 32.8604 29.4512 32.8384L29.3859 31.9336L29.3206 31.0287C29.012 31.051 28.7726 31.0702 28.6074 31.0863C28.5273 31.094 28.4515 31.1023 28.3902 31.1114C28.3639 31.1153 28.3144 31.1229 28.2609 31.1362C28.2408 31.1412 28.1743 31.1578 28.0967 31.1927C28.0621 31.2082 27.9726 31.2502 27.8776 31.3311C27.7998 31.3974 27.5579 31.6277 27.5579 32.0232H28.4651ZM29.3859 31.9336L29.4512 32.8384L30.372 32.772L30.3067 31.8671L30.2414 30.9623L29.3206 31.0287L29.3859 31.9336Z" fill="black"/>
<path d="M76.1855 45.5983C76.2725 45.5112 76.4032 45.4749 76.5774 45.4894C76.6209 45.504 76.7007 45.5185 76.8169 45.533C76.9475 45.5475 77.0346 45.5548 77.0781 45.5548C77.2523 45.5838 77.3684 45.6491 77.4265 45.7507C77.4846 45.8523 77.5426 46.0773 77.6007 46.4257C77.6297 46.7015 77.6442 47.195 77.6442 47.9062C77.6442 48.6029 77.6225 48.9876 77.5789 49.0602C77.5644 49.0892 77.5789 49.1981 77.6225 49.3868C77.6805 49.5755 77.6733 49.7714 77.6007 49.9746C77.5426 50.1778 77.5208 50.4028 77.5354 50.6496C77.5644 50.8963 77.5499 51.0995 77.4918 51.2592C77.4192 51.4044 77.3975 51.5713 77.4265 51.76C77.4701 52.0648 77.4918 52.5946 77.4918 53.3494C77.5063 54.1042 77.4918 54.5832 77.4483 54.7864C77.4047 54.9751 77.2741 55.1638 77.0564 55.3525C76.8386 55.5412 76.6499 55.6283 76.4903 55.6138C76.1419 55.5412 75.946 55.3235 75.9024 54.9606C75.8734 54.7138 75.8153 54.4961 75.7282 54.3074C75.5831 53.9735 75.5395 53.1389 75.5976 51.8035C75.5976 51.5858 75.5831 51.4189 75.554 51.3028C75.525 51.1576 75.5395 51.0125 75.5976 50.8673C75.6702 50.7222 75.6847 50.5117 75.6411 50.2359C75.6121 49.9601 75.6121 49.7351 75.6411 49.5609C75.6702 49.4013 75.6919 49.2053 75.7065 48.9731C75.7065 48.7699 75.7282 48.5884 75.7718 48.4288C75.8153 48.2546 75.8371 47.8336 75.8371 47.1659C75.8371 46.6289 75.8516 46.2733 75.8806 46.0991C75.9242 45.9249 76.0258 45.758 76.1855 45.5983ZM68.1078 45.7725C68.2819 45.7144 68.4489 45.7072 68.6085 45.7507C68.7392 45.7943 68.8916 45.7943 69.0658 45.7507C69.2545 45.7072 69.4286 45.7217 69.5883 45.7943C69.7625 45.8523 70.002 45.8886 70.3068 45.9031C70.6261 45.9031 70.8874 45.9612 71.0906 46.0773C71.2793 46.2079 71.4172 46.2733 71.5043 46.2733C71.7801 46.2733 72.1285 46.5563 72.5494 47.1224C72.9849 47.674 73.2389 48.1893 73.3115 48.6683C73.4421 49.4811 73.4711 50.1343 73.3985 50.6278C73.3405 51.1213 73.1736 51.5858 72.8978 52.0213C72.7236 52.2825 72.6002 52.5365 72.5276 52.7833C72.426 53.1026 72.2881 53.3639 72.114 53.5671C71.9543 53.7703 71.7946 53.8719 71.635 53.8719C71.5624 53.8719 71.4608 53.9082 71.3301 53.9808C71.1995 54.0534 71.0108 54.1405 70.764 54.2421C70.5173 54.3292 70.3576 54.3727 70.285 54.3727C70.2125 54.3727 70.0746 54.409 69.8714 54.4816C69.4795 54.6412 69.1601 54.6195 68.9134 54.4163C68.7682 54.3001 68.6158 54.2566 68.4561 54.2856C68.311 54.3147 68.1731 54.2929 68.0424 54.2203C68.0424 54.2058 67.8755 54.1114 67.5417 53.9373C67.2369 53.7776 66.903 53.5018 66.5401 53.1099C66.1918 52.718 65.9668 52.3769 65.8652 52.0866C65.5894 51.3173 65.4805 50.8165 65.5386 50.5843C65.5821 50.4101 65.5821 50.1924 65.5386 49.9311C65.5096 49.7279 65.5386 49.4448 65.6257 49.0819C65.7128 48.7191 65.8289 48.407 65.974 48.1457C66.0756 47.9715 66.1555 47.7973 66.2135 47.6232C66.3151 47.2603 66.5184 47.0063 66.8232 46.8611C66.9248 46.8031 67.128 46.6216 67.4328 46.3168C67.7521 45.9975 67.9771 45.816 68.1078 45.7725ZM69.9149 47.8191C69.494 47.8191 69.2037 47.8046 69.044 47.7756C68.8553 47.7465 68.6521 47.8046 68.4344 47.9498C68.2166 48.0804 68.1078 48.211 68.1078 48.3417C68.1078 48.3852 68.0642 48.4433 67.9771 48.5158C67.8175 48.6465 67.7159 48.857 67.6723 49.1473C67.6433 49.3214 67.5852 49.4956 67.4981 49.6698C67.2514 50.1633 67.2877 50.7367 67.607 51.3899C67.7812 51.7382 67.8683 51.9559 67.8683 52.043C67.8683 52.1737 67.9191 52.2825 68.0207 52.3696C68.1368 52.4422 68.2892 52.4785 68.4779 52.4785C68.7101 52.493 68.9134 52.5365 69.0875 52.6091C69.2472 52.6817 69.3778 52.7107 69.4795 52.6962C69.5956 52.6817 69.7407 52.6091 69.9149 52.4785C70.0746 52.3769 70.256 52.2825 70.4592 52.1954C70.6479 52.1229 70.7786 52.0503 70.8511 51.9777C70.9382 51.8906 70.9963 51.76 71.0253 51.5858C71.0398 51.4116 71.0979 51.2592 71.1995 51.1286C71.3737 50.9399 71.4753 50.6423 71.5043 50.2359C71.5479 49.8295 71.5116 49.4884 71.3955 49.2126C71.2793 48.9513 71.2068 48.7481 71.1777 48.6029C71.1342 48.2981 71.0253 48.0949 70.8511 47.9933C70.677 47.8772 70.3649 47.8191 69.9149 47.8191Z" fill="black"/>
<path d="M54.4677 42.9194C55.0774 42.8758 55.4475 42.8758 55.5781 42.9194C55.6943 42.9629 55.8612 42.992 56.0789 43.0065C56.2966 43.021 56.4926 43.079 56.6668 43.1807C56.841 43.2823 57.0514 43.3984 57.2982 43.529C57.603 43.6742 57.8861 43.95 58.1473 44.3564C58.4231 44.7628 58.6263 45.2273 58.757 45.7498C58.8731 46.1998 58.9166 46.5627 58.8876 46.8385C58.8586 47.1143 58.7352 47.4771 58.5175 47.9271C58.3868 48.2319 58.2852 48.5005 58.2127 48.7327C58.1401 48.9649 58.082 49.1101 58.0385 49.1682C57.9949 49.2262 57.9078 49.2698 57.7772 49.2988C57.632 49.3278 57.4941 49.4004 57.3635 49.5165C57.0732 49.8068 56.6232 50.0245 56.0136 50.1697C55.404 50.3003 54.9322 50.2931 54.5984 50.1479C54.3371 50.0608 54.1774 50.0173 54.1194 50.0173C53.9162 50.0173 53.5533 49.8213 53.0307 49.4294C52.5227 49.023 52.1961 48.6819 52.051 48.4061C51.9784 48.261 51.8768 48.0795 51.7461 47.8618C51.3978 47.3102 51.3397 46.5845 51.572 45.6845C51.8042 44.7846 52.2106 44.204 52.7912 43.9427C52.9364 43.8846 53.1396 43.725 53.4009 43.4637C53.6331 43.2169 53.8 43.0718 53.9016 43.0282C54.0033 42.9702 54.192 42.9339 54.4677 42.9194ZM55.6652 44.7918C54.9685 44.7193 54.5476 44.6975 54.4024 44.7265C54.2573 44.741 54.1049 44.8572 53.9452 45.0749C53.6694 45.4232 53.4807 45.8369 53.3791 46.3159C53.292 46.7804 53.3283 47.1143 53.488 47.3175C53.5896 47.4481 53.6694 47.6078 53.7275 47.7965C53.8146 48.1013 54.0033 48.2537 54.2936 48.2537C54.4097 48.2537 54.5476 48.29 54.7072 48.3626C55.0701 48.5367 55.433 48.544 55.7959 48.3843C55.9991 48.2682 56.166 48.1956 56.2966 48.1666C56.5289 48.1085 56.674 47.9416 56.7321 47.6658C56.7902 47.4917 56.8627 47.3392 56.9498 47.2086C57.1821 46.8602 57.1821 46.4175 56.9498 45.8805C56.8047 45.5757 56.7321 45.3797 56.7321 45.2926C56.7321 45.0313 56.3765 44.8644 55.6652 44.7918ZM60.3464 43.3113C60.5786 43.1371 60.9125 43.1226 61.3479 43.2677C61.7834 43.4129 62.0011 43.6016 62.0011 43.8338C62.0011 44.037 62.0447 44.1749 62.1317 44.2475C62.2333 44.3056 62.4366 44.3346 62.7414 44.3346C63.801 44.3201 64.3308 44.6249 64.3308 45.2491C64.3308 45.5539 64.251 45.7643 64.0913 45.8805C63.9316 45.9966 63.6268 46.0619 63.1768 46.0764C62.6398 46.0764 62.2696 46.12 62.0664 46.2071C61.8632 46.2942 61.7253 46.4466 61.6527 46.6643C61.6382 46.7659 61.6382 46.853 61.6527 46.9256C61.6673 46.9836 61.7253 47.0272 61.8269 47.0562C61.9285 47.0852 62.0592 47.0997 62.2188 47.0997C62.393 47.0852 62.6253 47.0635 62.9156 47.0344C63.1043 47.0054 63.2349 47.0054 63.3075 47.0344C63.3946 47.0489 63.5615 47.1143 63.8082 47.2304C64.1566 47.39 64.3526 47.557 64.3961 47.7312C64.4397 47.8908 64.3526 48.1303 64.1348 48.4497C64.0042 48.6529 63.8808 48.7762 63.7647 48.8198C63.6486 48.8488 63.3873 48.8561 62.9809 48.8416C62.4583 48.8125 62.0809 48.8924 61.8487 49.0811C61.6165 49.2698 61.5003 49.5818 61.5003 50.0173C61.5003 50.3802 61.3552 50.6414 61.0649 50.8011C60.7746 50.9608 60.4915 50.9317 60.2157 50.714C59.998 50.5398 59.8383 50.1552 59.7367 49.5601C59.6351 48.9649 59.6497 48.4714 59.7803 48.0795C59.8383 47.9199 59.8529 47.7312 59.8238 47.5134C59.8093 47.3392 59.8021 47.1868 59.8021 47.0562C59.8021 46.9401 59.8093 46.5554 59.8238 45.9022C59.8238 45.22 59.8601 44.8063 59.9327 44.6612C60.0053 44.516 60.0125 44.3491 59.9545 44.1604C59.8819 43.8266 60.0125 43.5435 60.3464 43.3113ZM55.7523 51.3019C56.362 51.1858 56.87 51.1785 57.2764 51.2801C57.4941 51.3527 57.799 51.389 58.1909 51.389C58.9021 51.3745 59.4392 51.4616 59.8021 51.6502C59.9617 51.7373 60.2157 51.868 60.5641 52.0422C61.2028 52.3615 61.5874 52.8187 61.7181 53.4138C61.7761 53.6171 61.8487 53.8057 61.9358 53.9799C62.11 54.3138 62.1608 54.6912 62.0882 55.1121C62.0301 55.5331 61.8632 55.8742 61.5874 56.1354C61.4568 56.2516 61.377 56.404 61.3479 56.5927C61.3044 56.9265 61.1229 57.1225 60.8036 57.1805C60.6585 57.2096 60.4262 57.2966 60.1069 57.4418C59.4827 57.7466 58.9166 57.899 58.4086 57.899C58.1328 57.899 57.8498 57.9281 57.5595 57.9861C57.2546 58.0442 57.0079 58.0587 56.8192 58.0297C56.6305 58.0006 56.4563 57.9861 56.2966 57.9861C56.137 58.0006 55.8975 57.9353 55.5781 57.7902C55.2588 57.6595 55.0048 57.5144 54.8161 57.3547C54.6419 57.2096 54.4677 57.0789 54.2936 56.9628C54.1484 56.8612 53.9815 56.6725 53.7928 56.3967C53.3864 55.729 53.1541 55.3444 53.0961 55.2428C53.0525 55.1266 53.0235 54.9597 53.009 54.742C53.009 54.5097 52.9944 54.2993 52.9654 54.1106C52.9364 53.9509 52.9654 53.7912 53.0525 53.6316C53.1396 53.4429 53.2194 53.2397 53.292 53.0219C53.3501 52.8187 53.4662 52.6082 53.6404 52.3905C53.8291 52.1728 54.0105 52.0276 54.1847 51.9551C54.4895 51.8244 54.7798 51.6793 55.0556 51.5196C55.2153 51.418 55.4475 51.3454 55.7523 51.3019ZM58.5175 53.0872C58.1836 53.0872 57.9223 53.0727 57.7337 53.0437C57.603 53.0292 57.3127 53.0655 56.8627 53.1526C56.4273 53.2251 56.0354 53.3122 55.687 53.4138C55.4112 53.4864 55.2733 53.6243 55.2733 53.8275C55.2733 53.8856 55.1935 54.0017 55.0338 54.1759C54.8742 54.3646 54.8016 54.5315 54.8161 54.6767C54.8451 54.8073 54.9903 55.0178 55.2516 55.3081C55.3096 55.3661 55.404 55.475 55.5346 55.6347C55.6798 55.7798 55.7741 55.8742 55.8176 55.9177C55.9193 56.0483 55.9918 56.1282 56.0354 56.1572C56.0934 56.1717 56.195 56.179 56.3402 56.179C56.5579 56.179 56.8047 56.2225 57.0805 56.3096C57.6466 56.4548 58.2126 56.433 58.7787 56.2443C59.3593 56.0411 59.7803 55.7508 60.0416 55.3734C60.3028 54.9815 60.3028 54.6041 60.0416 54.2412C59.9254 54.0815 59.8601 53.9291 59.8456 53.784C59.773 53.334 59.3303 53.1018 58.5175 53.0872Z" fill="black"/>
<path d="M44.9861 44.4655C45.2909 44.3929 45.6175 44.4002 45.9659 44.4873C46.2272 44.5453 46.3941 44.5598 46.4667 44.5308C46.5538 44.5163 46.6771 44.5308 46.8368 44.5744C47.011 44.6179 47.1416 44.676 47.2287 44.7485C47.3303 44.8211 47.4464 44.8647 47.5771 44.8792C47.6061 44.8792 47.6569 44.8864 47.7295 44.901C47.8166 44.9155 47.8746 44.93 47.9037 44.9445C48.0633 44.9735 48.2593 45.1405 48.4915 45.4453C48.7383 45.7356 48.8834 45.9823 48.927 46.1855C48.9705 46.4468 49.0286 46.6428 49.1012 46.7734C49.2028 46.9911 49.2681 47.4411 49.2971 48.1233C49.3262 48.791 49.2971 49.3136 49.21 49.691C49.1375 50.0103 49.1012 50.2788 49.1012 50.4965C49.1012 50.7433 49.0358 51.0699 48.9052 51.4763C48.7891 51.8247 48.6875 52.0352 48.6004 52.1077C48.5278 52.1803 48.3754 52.2166 48.1432 52.2166C47.9545 52.2166 47.7875 52.2456 47.6424 52.3037C47.4537 52.3617 47.3158 52.3545 47.2287 52.2819C47.1561 52.2093 47.1489 52.0714 47.2069 51.8682C47.2505 51.7666 47.2432 51.607 47.1852 51.3892C47.1126 51.1134 47.1271 50.7288 47.2287 50.2353C47.4029 49.3353 47.4682 48.7547 47.4247 48.4935C47.3956 48.3483 47.3666 48.1088 47.3376 47.775C47.3231 47.4992 47.2505 47.2379 47.1198 46.9911C47.0037 46.7299 46.8803 46.5629 46.7497 46.4904C46.3868 46.3307 45.9369 46.2291 45.3998 46.1855C44.8773 46.142 44.4418 46.1783 44.0934 46.2944C43.8322 46.3815 43.6072 46.425 43.4185 46.425C43.2443 46.425 43.1064 46.4468 43.0048 46.4904C42.8887 46.5339 42.4895 46.5629 41.8073 46.5775C41.1106 46.6065 40.6896 46.6428 40.5445 46.6863C40.051 46.846 39.6953 46.8968 39.4776 46.8387C39.2744 46.7807 39.1002 46.592 38.9551 46.2726C38.8389 45.9678 38.8317 45.7283 38.9333 45.5541C39.0349 45.38 39.3034 45.184 39.7389 44.9663C39.9856 44.8502 40.1598 44.7848 40.2614 44.7703C40.363 44.7558 40.5953 44.7485 40.9582 44.7485C41.4372 44.7485 41.771 44.7268 41.9597 44.6832C42.1339 44.6397 42.3081 44.6397 42.4823 44.6832C42.6564 44.7123 42.8524 44.6905 43.0701 44.6179C43.2878 44.5453 43.6217 44.509 44.0717 44.509C44.5361 44.4945 44.841 44.48 44.9861 44.4655ZM42.4605 50.7578C42.5331 50.6998 42.7653 50.7143 43.1572 50.8014C43.5491 50.8739 43.7814 50.961 43.8539 51.0626C43.9265 51.1642 43.9701 51.5126 43.9846 52.1077C44.0136 52.6883 43.9991 53.1891 43.941 53.6101C43.8975 53.8713 43.9047 54.1253 43.9628 54.3721C44.0209 54.6043 44.108 54.7495 44.2241 54.8076C44.3112 54.8511 44.7321 54.8584 45.4869 54.8293C46.2562 54.8003 46.9384 54.7567 47.5335 54.6987C49.2318 54.539 50.1245 54.6406 50.2116 55.0035C50.2261 55.1051 50.2551 55.1704 50.2987 55.1995C50.3422 55.2285 50.3567 55.3374 50.3422 55.5261C50.3277 55.7147 50.2987 55.8381 50.2551 55.8962C50.1535 56.0123 49.6818 56.1575 48.8399 56.3316C48.5786 56.3897 48.3101 56.3897 48.0343 56.3316C47.773 56.2736 47.49 56.2663 47.1852 56.3099C45.8933 56.4695 45.124 56.4986 44.8773 56.397C44.616 56.2808 44.391 56.2663 44.2023 56.3534C44.0571 56.4405 43.3822 56.5203 42.1774 56.5929C40.9872 56.6655 40.2542 56.6727 39.9784 56.6147C39.7026 56.5566 39.4413 56.5276 39.1946 56.5276C38.8462 56.5276 38.5849 56.4332 38.4108 56.2446C38.2511 56.0559 38.2075 55.8381 38.2801 55.5914C38.3672 55.3301 38.5632 55.1196 38.868 54.96C38.9841 54.9019 39.2817 54.8874 39.7607 54.9164C40.2542 54.9309 40.5808 54.9092 40.7404 54.8511C40.9001 54.793 41.1033 54.764 41.3501 54.764C41.6113 54.764 41.771 54.7205 41.8291 54.6334C41.8871 54.5318 41.9162 54.256 41.9162 53.806C41.9162 53.3415 41.9452 53.044 42.0033 52.9133C42.0613 52.7682 42.0903 52.4779 42.0903 52.0424C42.1049 51.4763 42.2282 51.0481 42.4605 50.7578Z" fill="black"/>
<path d="M34.7001 45.5106C34.7872 45.4381 34.9179 45.409 35.0921 45.4236C35.2662 45.4236 35.3896 45.4671 35.4622 45.5542C35.5493 45.6558 35.6146 45.7066 35.6581 45.7066C35.8904 45.7066 36.0355 45.9896 36.0936 46.5557C36.1081 46.7735 36.1371 47.0565 36.1807 47.4049C36.1952 47.5791 36.1807 47.7387 36.1371 47.8839C36.1081 47.9855 36.0718 48.225 36.0283 48.6024C35.9847 48.9798 35.9702 49.2265 35.9847 49.3426V49.887V50.7361C35.9847 50.9974 35.9484 51.2006 35.8759 51.3457C35.8033 51.5489 35.7525 51.9118 35.7235 52.4344C35.7089 52.9424 35.738 53.269 35.8106 53.4141C35.9267 53.6464 35.9484 54.0093 35.8759 54.5028C35.8178 54.9818 35.7089 55.2213 35.5493 55.2213C35.5057 55.2213 35.4186 55.2793 35.288 55.3955C35.0412 55.5987 34.8163 55.6567 34.613 55.5696C34.4098 55.4826 34.3082 55.2793 34.3082 54.96C34.2937 54.8003 34.2357 54.6479 34.1341 54.5028C33.9744 54.256 33.9744 53.5375 34.1341 52.3473C34.1631 52.1731 34.1413 52.0134 34.0687 51.8683C34.0107 51.7086 34.0034 51.5417 34.047 51.3675C34.0905 51.1933 34.0905 51.0699 34.047 50.9974C34.0034 50.9103 33.8946 50.845 33.7204 50.8014C33.401 50.6998 33.1252 50.678 32.893 50.7361C32.6753 50.7796 32.5664 50.8885 32.5664 51.0627C32.5664 51.1208 32.5084 51.2732 32.3922 51.5199C32.2906 51.7522 32.2253 51.9336 32.1963 52.0642C32.1818 52.1949 32.1963 52.3836 32.2398 52.6303C32.2979 53.1093 32.2834 53.5956 32.1963 54.0891C32.1092 54.5681 31.9785 54.8729 31.8044 55.0036C31.6592 55.0906 31.5721 55.156 31.5431 55.1995C31.456 55.3156 31.3036 55.3229 31.0859 55.2213C30.8827 55.1052 30.7738 54.96 30.7593 54.7858C30.7302 54.6407 30.6432 54.4302 30.498 54.1544C30.3529 53.8931 30.302 53.7117 30.3456 53.6101C30.3891 53.5085 30.3964 53.2617 30.3674 52.8698C30.3529 52.4779 30.3891 52.1949 30.4762 52.0207C30.5633 51.8465 30.5924 51.7086 30.5633 51.607C30.4762 51.2732 30.4762 51.0264 30.5633 50.8667C30.6214 50.7506 30.6214 50.5764 30.5633 50.3442C30.5053 50.0974 30.4762 49.9087 30.4762 49.7781C30.4762 49.6329 30.498 49.3499 30.5415 48.929C30.6141 48.4645 30.6286 48.1379 30.5851 47.9492C30.5415 47.746 30.5488 47.5573 30.6069 47.3831C30.6794 47.2089 30.694 47.0492 30.6504 46.9041C30.5778 46.6428 30.6069 46.367 30.7375 46.0767C30.8827 45.7864 31.0205 45.6195 31.1512 45.576C31.2818 45.5324 31.5213 45.576 31.8697 45.7066C31.8842 45.7066 31.8987 45.7066 31.9132 45.7066C32.16 45.7937 32.3051 45.9026 32.3487 46.0332C32.3922 46.1493 32.4213 46.5412 32.4358 47.2089C32.4358 47.2379 32.4358 47.267 32.4358 47.296C32.4358 48.2105 32.5011 48.7838 32.6317 49.0161C32.7624 49.2338 33.0309 49.2483 33.4373 49.0596C33.597 48.987 33.7567 48.929 33.9163 48.8854C34.105 48.8274 34.2211 48.6822 34.2647 48.45C34.3227 48.2032 34.3445 47.6734 34.33 46.8606C34.3155 46.1203 34.4389 45.6703 34.7001 45.5106ZM23.1824 46.2074C23.342 46.1348 23.4582 46.1058 23.5307 46.1203C23.6033 46.1203 23.7485 46.1711 23.9662 46.2727C24.1984 46.3743 24.3508 46.4977 24.4234 46.6428C24.5105 46.788 24.554 47.0202 24.554 47.3396C24.554 47.6444 24.5032 48.1814 24.4016 48.9507C24.3 49.8652 24.2855 50.4023 24.3581 50.5619C24.4162 50.6635 24.4815 50.8813 24.554 51.2151C24.6121 51.6215 24.6919 51.8901 24.7935 52.0207C24.9097 52.1513 25.0984 52.2166 25.3596 52.2166C25.5628 52.2166 25.7661 52.2457 25.9693 52.3037C26.1435 52.3618 26.2886 52.3618 26.4047 52.3037C26.5208 52.2602 26.7458 52.2239 27.0797 52.1949C27.3845 52.1804 27.624 52.1658 27.7982 52.1513C27.9869 52.1223 28.1248 52.1296 28.2119 52.1731C28.299 52.2166 28.4659 52.2529 28.7126 52.282C29.1626 52.34 29.4457 52.5868 29.5618 53.0222C29.6489 53.269 29.5545 53.523 29.2787 53.7843C29.0175 54.0456 28.7417 54.1544 28.4514 54.1109C28.0885 54.0673 27.5587 54.0746 26.862 54.1326C26.5281 54.1617 26.3176 54.1762 26.2305 54.1762C26.1435 54.1617 26.0418 54.1326 25.9257 54.0891C25.8241 54.031 25.737 54.002 25.6645 54.002C25.5919 53.9875 25.4322 54.0093 25.1855 54.0673C25.0984 54.0964 24.9605 54.0673 24.7718 53.9802C24.5976 53.9077 24.4307 53.8714 24.271 53.8714C24.1404 53.8714 23.8936 53.6972 23.5307 53.3488C23.1678 53.0005 22.9356 52.7102 22.834 52.4779C22.6163 52.0134 22.4639 51.3893 22.3768 50.6055C22.3042 49.8071 22.3332 49.241 22.4639 48.9072C22.5074 48.8056 22.5292 48.508 22.5292 48.0145C22.5292 47.013 22.7469 46.4106 23.1824 46.2074Z" fill="black"/>
</svg>
