<svg width="100" height="100" viewBox="0 0 100 100" fill="none" xmlns="http://www.w3.org/2000/svg">
<rect x="64.7656" y="27.7207" width="8.07806" height="21.6284" rx="2.60583" fill="#4667C5"/>
<rect x="24.8955" y="49.3496" width="49.7713" height="40.6509" rx="2.60583" fill="#FFFFE0"/>
<path d="M53.2998 66.809C53.2998 65.3698 54.4665 64.2031 55.9056 64.2031H63.2019C64.6411 64.2031 65.8078 65.3698 65.8078 66.809V90.0008H53.2998V66.809Z" fill="#FEDC54"/>
<circle cx="64.6348" cy="77.7529" r="1.5635" fill="#4667C5"/>
<rect x="30.1074" y="61.3359" width="15.635" height="9.90214" rx="1.5635" fill="#C9EAEE"/>
<path d="M48.0847 27.8731C49.0607 27.0359 50.5016 27.0359 51.4777 27.8731L79.7546 52.1269C81.5906 53.7017 80.477 56.7107 78.0581 56.7107H21.5042C19.0854 56.7107 17.9717 53.7017 19.8077 52.1269L48.0847 27.8731Z" fill="#F45E5D"/>
<path fill-rule="evenodd" clip-rule="evenodd" d="M73.2344 10C74.5013 10.0001 75.6534 10.4898 76.5137 11.2891C77.333 10.6457 78.3657 10.2617 79.4883 10.2617C82.1506 10.2618 84.3085 12.4198 84.3086 15.082C84.3086 17.6304 82.3313 19.7146 79.8271 19.8887C80.0282 20.4194 80.1396 20.9945 80.1396 21.5957C80.1396 24.2581 77.9808 26.417 75.3184 26.417C73.6792 26.417 72.2323 25.5979 71.3613 24.3477C70.8848 24.5053 70.3761 24.5927 69.8467 24.5928C67.1844 24.5928 65.0256 22.4347 65.0254 19.7725C65.0254 17.6045 66.4567 15.7704 68.4258 15.1641C68.4178 15.0508 68.4131 14.9366 68.4131 14.8213C68.4131 12.1588 70.5719 10 73.2344 10Z" fill="white"/>
</svg>
