<svg width="100" height="100" viewBox="0 0 100 100" fill="none" xmlns="http://www.w3.org/2000/svg">
<path d="M50.0691 24.2274C60.39 16.6274 72.3002 14.727 80.5692 20.4641C92.14 28.4923 92.199 48.4352 80.7006 65.0077C72.7393 76.4822 61.3248 83.3316 51.215 83.7956C40.579 84.3534 28.013 77.3613 19.4457 65.0135C7.94738 48.441 8.00633 28.4981 19.5771 20.4699C27.8439 14.7343 39.7502 16.6323 50.0691 24.2274Z" fill="#FF9898"/>
<path d="M67.4881 16.1726C68.2681 15.9715 69.058 15.946 69.8489 16.0968L71.8636 16.4808C72.5206 16.6061 73.1805 16.7136 73.8432 16.8034L75.8752 17.0788C76.6914 17.1893 77.4357 17.494 78.0956 17.9878L79.7398 19.2181C80.264 19.6104 80.8077 19.9729 81.3705 20.3055L83.1358 21.3488C83.8151 21.7502 84.3974 22.2668 84.879 22.894L86.1324 24.5266C86.6128 25.1524 86.9632 25.8464 87.1806 26.6037L87.7471 28.5772C87.9296 29.2131 88.1361 29.8335 88.3666 30.4383L89.0831 32.319C89.3444 33.0049 89.5246 33.7131 89.6236 34.4426L89.8951 36.445C89.9925 37.1634 90.0221 37.8845 89.9838 38.6079L89.8768 40.6238C89.8407 41.3046 89.7937 41.9839 89.7357 42.662L89.5641 44.6696C89.5025 45.3905 89.3738 46.0996 89.1776 46.7957L88.6313 48.7339C88.4583 49.3479 88.3216 49.9753 88.2216 50.6159L87.9068 52.6338C87.7895 53.3853 87.5673 54.1041 87.24 54.7876L86.3625 56.6198C86.0625 57.2463 85.7434 57.8612 85.4056 58.4642L84.4182 60.2272C84.0786 60.8335 83.716 61.4248 83.3308 62.0012L82.211 63.6769C81.8264 64.2525 81.4211 64.8125 80.9952 65.3568L79.7555 66.9412C79.3671 67.4376 79.0122 67.9659 78.691 68.5266L77.6695 70.3093C77.2792 70.9907 76.7795 71.58 76.1731 72.0724L74.5919 73.3561C74.0587 73.789 73.5219 74.2123 72.9818 74.6253L71.3806 75.8495C70.8606 76.2471 70.3518 76.6619 69.8543 77.094L68.3236 78.4239C67.7763 78.8993 67.1904 79.3226 66.5669 79.6935L64.8225 80.731C64.197 81.103 63.5424 81.4138 62.8592 81.6632L60.9538 82.3588C60.3339 82.5851 59.7179 82.8306 59.1059 83.0953L57.2261 83.9082C56.5259 84.2111 55.7956 84.407 55.0376 84.4956L53.0027 84.7334C52.3027 84.8152 51.5999 84.869 50.8945 84.895L48.8435 84.9708C48.0405 85.0004 47.2614 84.8589 46.5143 84.5499L44.5967 83.7569C44.0298 83.5224 43.4458 83.3741 42.8429 83.3109L40.7964 83.0966C40.0217 83.0154 39.2828 82.8074 38.5841 82.4732L36.7446 81.5931C36.0672 81.2691 35.4404 80.8625 34.8661 80.3747L33.3045 79.0483C32.8284 78.6439 32.318 78.2968 31.7728 78.0062L29.9798 77.0509C29.3462 76.7133 28.7402 76.33 28.1621 75.9016L26.525 74.6883C25.922 74.2414 25.3858 73.7237 24.9174 73.1366L23.6453 71.5419C23.2309 71.0224 22.8038 70.517 22.3642 70.0256L21.014 68.5163C20.5331 67.9788 20.1006 67.4042 19.7165 66.7931L18.6382 65.0776C18.2644 64.4829 17.9211 63.8725 17.609 63.2467L16.709 61.4418C16.4093 60.8411 16.1094 60.2428 15.8096 59.6466L14.9086 57.8556C14.6109 57.2638 14.3055 56.672 13.9922 56.0806L13.0443 54.2912C12.7128 53.6654 12.4196 53.0208 12.1648 52.3575L11.4361 50.4594C11.1807 49.7945 10.9678 49.1145 10.7973 48.42L10.3102 46.4368C10.133 45.715 10.0395 44.9816 10.0297 44.2383L10.0027 42.1957C9.99347 41.4964 10.008 40.8002 10.0461 40.1075L10.1569 38.0854C10.1937 37.4151 10.2264 36.7415 10.2546 36.0646L10.3394 34.0233C10.3717 33.2489 10.5333 32.5003 10.8233 31.7817L11.5878 29.8872C11.8434 29.2538 12.1018 28.6212 12.3628 27.9892L13.1429 26.0992C13.4496 25.3565 13.9035 24.7114 14.4989 24.1713L16.0146 22.796C16.5259 22.3322 17.0379 21.8813 17.5508 21.4436L19.0703 20.147C19.602 19.6933 20.1659 19.2674 20.7618 18.8695L22.4712 17.7278C23.1197 17.2948 23.8256 16.9823 24.5845 16.7912L26.5892 16.2864C27.3698 16.0898 28.1612 16.0611 28.9554 16.1999L30.9981 16.5566C31.6375 16.6684 32.2717 16.729 32.9009 16.7391L34.9214 16.7716C35.6783 16.7837 36.4177 16.9091 37.1366 17.1472L39.0555 17.7828C39.727 18.0052 40.3807 18.2676 41.0168 18.5694L42.8332 19.4311C43.4209 19.71 44.0219 19.969 44.6359 20.2087L46.531 20.9491C47.23 21.222 47.8548 21.5717 48.3963 22.004L49.803 23.127C49.8718 23.1819 49.9353 23.2316 49.9929 23.277C50.112 23.1921 50.255 23.0899 50.4222 22.9718L52.0776 21.8018C52.6743 21.3802 53.3071 21.0221 53.9753 20.728L55.829 19.9122C56.4689 19.6305 57.1177 19.3785 57.775 19.1561L59.6772 18.5122C60.315 18.2963 60.9542 18.0853 61.5945 17.8788L63.5044 17.2632C64.1569 17.0529 64.8221 16.86 65.5001 16.6851L67.4881 16.1726ZM69.5407 17.7127C68.9885 17.6074 68.444 17.6251 67.8988 17.7657L65.9111 18.2782C65.2639 18.4452 64.63 18.6289 64.0092 18.829L62.0993 19.4446C61.4666 19.6486 60.8351 19.8572 60.2048 20.0706L58.3022 20.7145C57.6913 20.9213 57.0878 21.1556 56.4919 21.4179L54.6382 22.2337C54.0707 22.4835 53.5337 22.7874 53.0268 23.1456L51.3714 24.3152C51.0961 24.5097 50.8903 24.6564 50.7525 24.7557C50.7044 24.7904 50.6661 24.8184 50.6368 24.8399C50.4849 25.0182 50.2938 25.0912 50.1587 25.1159C50.0244 25.1406 49.9156 25.1258 49.8634 25.1166C49.7581 25.0979 49.6799 25.0625 49.6555 25.0514C49.5931 25.0229 49.5416 24.9906 49.518 24.9755C49.4608 24.9391 49.3959 24.8926 49.3323 24.8454C49.1997 24.7471 49.0128 24.6014 48.7767 24.4129L47.3696 23.2899C46.9732 22.9734 46.4972 22.7019 45.9327 22.4814L44.0372 21.7414C43.3876 21.4877 42.7511 21.2129 42.1279 20.9172L40.3118 20.0555C39.7371 19.7828 39.1459 19.5457 38.5382 19.3444L36.6192 18.7088C36.0588 18.5232 35.4849 18.4259 34.895 18.4164L32.8746 18.3843C32.157 18.3728 31.4371 18.3035 30.715 18.1773L28.6723 17.8204C28.105 17.7212 27.5471 17.7418 26.9912 17.8817L24.9862 18.3865C24.4086 18.532 23.8762 18.768 23.385 19.096L21.6756 20.2377C21.1319 20.6007 20.6195 20.9876 20.1384 21.3983L18.6189 22.6951C18.1189 23.1218 17.6192 23.5615 17.1199 24.0145L15.6043 25.3897C15.1891 25.7663 14.8773 26.2097 14.6638 26.727L13.8833 28.617C13.624 29.2449 13.3673 29.8735 13.1134 30.5029L12.349 32.3974C12.1293 32.9416 12.0077 33.5051 11.9833 34.0917L11.8981 36.133C11.8697 36.8171 11.837 37.498 11.7998 38.1757L11.6886 40.1977C11.6527 40.853 11.6391 41.5118 11.6478 42.1742L11.6748 44.2168C11.683 44.8352 11.7607 45.444 11.9081 46.0445L12.3949 48.028C12.549 48.6557 12.7415 49.2696 12.972 49.8698L13.7008 51.7675C13.9319 52.3694 14.1975 52.9538 14.498 53.521L15.4458 55.3104C15.7645 55.9119 16.0754 56.514 16.3783 57.1162L17.2793 58.9073C17.58 59.5051 17.8805 60.1053 18.1809 60.7076L19.0813 62.5125C19.3692 63.0897 19.6856 63.6529 20.0308 64.202L21.1094 65.9178C21.4443 66.4506 21.8211 66.9512 22.2402 67.4197L23.59 68.9286C24.0504 69.4432 24.4976 69.9724 24.9312 70.5159L26.2033 72.1106C26.583 72.5865 27.0164 73.0048 27.5047 73.3667L29.1415 74.5797C29.6545 74.9599 30.1918 75.2996 30.7535 75.5989L32.5465 76.5542C33.1966 76.9006 33.8046 77.3145 34.3697 77.7945L35.9313 79.1209C36.3981 79.5174 36.9054 79.8463 37.4543 80.1089L39.2939 80.989C39.8215 81.2414 40.378 81.3983 40.9677 81.4601L43.0145 81.6747C43.7759 81.7545 44.5135 81.9424 45.2252 82.2367L47.1431 83.0297C47.6745 83.2495 48.2185 83.3474 48.7828 83.3266L50.8338 83.2511C51.4957 83.2267 52.1552 83.1762 52.8118 83.0995L54.8468 82.8617C55.4454 82.7917 56.02 82.6375 56.5729 82.3983L58.4526 81.5851C59.0937 81.3078 59.7396 81.0506 60.3899 80.8133L62.2953 80.1179C62.8822 79.9037 63.4441 79.6369 63.9816 79.3172L65.726 78.2793C66.2654 77.9585 66.7717 77.5928 67.2449 77.1817L68.7757 75.8521C69.2988 75.3977 69.834 74.9612 70.3813 74.5427L71.9824 73.3181C72.5097 72.915 73.0341 72.5021 73.555 72.0791L75.1362 70.7951C75.5839 70.4316 75.9517 69.9986 76.2422 69.4915L77.2633 67.7089C77.6229 67.0811 78.0219 66.4869 78.4599 65.9271L79.6996 64.343C80.1002 63.8311 80.4813 63.3043 80.8432 62.7628L81.963 61.0874C82.3242 60.5468 82.6642 59.9919 82.9828 59.423L83.9703 57.6602C84.2908 57.088 84.5937 56.5044 84.8786 55.9093L85.7562 54.0769C86.0138 53.5388 86.1889 52.9741 86.2815 52.3803L86.5961 50.3621C86.706 49.6574 86.8568 48.9658 87.0479 48.2876L87.5941 46.3494C87.7621 45.7534 87.8723 45.1469 87.9251 44.5295L88.0967 42.5219C88.1531 41.8615 88.199 41.1998 88.2342 40.5367L88.3409 38.5208C88.3737 37.9004 88.3486 37.2824 88.265 36.6661L87.9935 34.6636C87.9114 34.0584 87.7623 33.4725 87.5459 32.9047L86.829 31.0241C86.5818 30.3751 86.3606 29.7106 86.1655 29.0309L85.599 27.0574C85.4387 26.499 85.1823 25.991 84.8272 25.5285L83.5741 23.8959C83.2201 23.4348 82.7963 23.0592 82.2988 22.7652L80.5334 21.7218C79.9193 21.3589 79.3261 20.9634 78.7543 20.5355L77.1101 19.3052C76.6739 18.9788 76.1926 18.7817 75.6542 18.7088L73.6225 18.4338C72.9306 18.34 72.2414 18.2278 71.5554 18.097L69.5407 17.7127ZM50.4019 23.5881C50.4019 23.588 50.4009 23.5872 50.3991 23.5861C50.3987 23.5859 50.3982 23.5858 50.3978 23.5855C50.4005 23.5873 50.4019 23.5881 50.4019 23.5881Z" fill="black"/>
</svg>
