<svg width="100" height="100" viewBox="0 0 100 100" fill="none" xmlns="http://www.w3.org/2000/svg">
<g clip-path="url(#clip0_3647_3475)">
<path d="M45.285 99.0361L53.2892 51.8464L58.2914 52.9734L45.285 99.0361Z" fill="#D8D8D8"/>
<path d="M77.5284 20.7926C76.7666 24.4886 69.2351 26.0597 60.7064 24.3017C52.1776 22.5438 45.8813 18.1225 46.6431 14.4265C47.4049 10.7305 54.9364 9.15947 63.4651 10.9174C71.9939 12.6754 78.2902 17.0966 77.5284 20.7926Z" fill="#FF4545"/>
<path d="M77.0058 55.1837C76.1877 58.87 65.8699 59.9663 53.9605 57.6323C42.0511 55.2983 33.0599 50.4178 33.878 46.7314C34.6961 43.045 45.0139 41.9487 56.9233 44.2828C68.8327 46.6168 77.8239 51.4973 77.0058 55.1837Z" fill="#FF4545"/>
<path d="M60.5999 21.0776L47.8062 13.8597C47.3633 13.6098 46.8052 13.8637 46.7026 14.3618L45.5899 19.7597C45.5463 19.9714 45.5943 20.1932 45.7344 20.3578C48.0356 23.0624 54.3462 26.0097 60.0677 27.189C65.7883 28.3682 72.7685 28.1608 76.0906 26.6159C76.2933 26.5216 76.4328 26.3322 76.4779 26.1132L77.6429 20.4609C77.7453 19.9645 77.3362 19.5116 76.832 19.5629L61.0447 21.1706C60.8904 21.1863 60.735 21.1538 60.5999 21.0776Z" fill="#FF4545"/>
<path d="M53.747 54.429L35.0214 46.0425C34.5879 45.8484 34.0748 46.1035 33.9639 46.5682L31.7815 55.7199C31.7207 55.9749 31.7965 56.2415 31.9931 56.4106C35.3471 59.2953 44.2661 62.6878 52.2572 64.2539C60.2599 65.8223 69.9225 66.0666 74.4086 64.7136C74.6607 64.6375 74.8481 64.4284 74.9085 64.1747L77.1438 54.7854C77.2564 54.3125 76.8947 53.8701 76.4064 53.8834L54.0744 54.4939C53.9612 54.497 53.8493 54.4748 53.747 54.429Z" fill="#FF4545"/>
<path d="M61.1908 17.678L51.9668 20.7025C51.7663 20.7683 51.6027 20.9154 51.5162 21.1079L41.3242 43.7789C41.2405 43.965 41.2342 44.1775 41.3195 44.3629C42.9188 47.8392 48.1372 51.4808 53.1155 52.8005C58.0736 54.1148 67.3246 53.5639 70.7526 51.3913C70.9548 51.2632 71.0648 51.0342 71.0621 50.7949L70.7642 23.9576C70.7615 23.7064 70.6331 23.4732 70.4224 23.3364L61.8331 17.7616C61.6427 17.638 61.4065 17.6073 61.1908 17.678Z" fill="#FF4545"/>
</g>
<defs>
<clipPath id="clip0_3647_3475">
<rect width="100" height="100" fill="white"/>
</clipPath>
</defs>
</svg>
