<svg width="100" height="100" viewBox="0 0 100 100" fill="none" xmlns="http://www.w3.org/2000/svg">
<g clip-path="url(#clip0_4008_34453)">
<circle cx="50" cy="50" r="50" fill="#F34C49"/>
<circle cx="50.5553" cy="50.5553" r="41.6667" fill="white"/>
<rect x="48.8887" y="5.55469" width="3.33333" height="10" rx="1.66667" fill="#473C33"/>
<rect x="48.8887" y="84.4434" width="3.33333" height="10" rx="1.66667" fill="#473C33"/>
<rect x="72.6533" y="10" width="3.33333" height="10" rx="1.66667" transform="rotate(23.5123 72.6533 10)" fill="#473C33"/>
<rect x="29.5449" y="77.7773" width="3.33333" height="10" rx="1.66667" transform="rotate(23.5123 29.5449 77.7773)" fill="#473C33"/>
<rect x="93.5869" y="26.666" width="3.33333" height="10" rx="1.66667" transform="rotate(68.4055 93.5869 26.666)" fill="#473C33"/>
<rect x="18.083" y="65.5566" width="3.33333" height="10" rx="1.66667" transform="rotate(66.8436 18.083 65.5566)" fill="#473C33"/>
<rect x="8.88867" y="28.5918" width="3.33333" height="10" rx="1.66667" transform="rotate(-65.6605 8.88867 28.5918)" fill="#473C33"/>
<rect x="79.6826" y="72.2637" width="3.33333" height="10" rx="1.66667" transform="rotate(-65.6605 79.6826 72.2637)" fill="#473C33"/>
<rect x="25.5557" y="11.1816" width="3.33333" height="10" rx="1.66667" transform="rotate(-20.7672 25.5557 11.1816)" fill="#473C33"/>
<rect x="67.3125" y="82.3906" width="3.33333" height="10" rx="1.66667" transform="rotate(-22.3292 67.3125 82.3906)" fill="#473C33"/>
<rect x="97.2539" y="48.8965" width="3.33333" height="10" rx="1.66667" transform="rotate(90.7115 97.2539 48.8965)" fill="#473C33"/>
<rect x="14.4854" y="47.918" width="3.33333" height="10" rx="1.66667" transform="rotate(90.7115 14.4854 47.918)" fill="#473C33"/>
<path d="M48.6661 23.0551C49.5348 21.6509 51.5772 21.6509 52.4459 23.0551L55.6751 28.2754C56.5908 29.7558 55.526 31.6667 53.7852 31.6667H47.3268C45.586 31.6667 44.5211 29.7558 45.4369 28.2754L48.6661 23.0551Z" fill="#473C33"/>
<rect x="47.6074" y="27.752" width="5.74163" height="22.9665" rx="2.87081" fill="#473C33"/>
<path d="M75.8335 47.5548C77.2378 48.4234 77.2378 50.4659 75.8336 51.3345L70.6133 54.5637C69.1328 55.4795 67.222 54.4147 67.222 52.6739L67.222 46.2155C67.222 44.4747 69.1328 43.4098 70.6133 44.3256L75.8335 47.5548Z" fill="#473C33"/>
<rect x="71.1113" y="46.666" width="5.55556" height="18.8889" rx="2.77778" transform="rotate(90 71.1113 46.666)" fill="#473C33"/>
<circle cx="51.1112" cy="50.0009" r="5.55556" fill="#FFC62F"/>
</g>
<defs>
<clipPath id="clip0_4008_34453">
<rect width="100" height="100" fill="white"/>
</clipPath>
</defs>
</svg>
