<svg width="100" height="100" viewBox="0 0 100 100" fill="none" xmlns="http://www.w3.org/2000/svg">
<path d="M32.8001 67.7108C32.6001 61.9308 31.9101 56.2008 31.3901 50.4508C30.9701 45.7308 30.5701 40.9808 29.6601 36.3208C25.4701 31.2608 19.3901 27.7908 12.8801 26.8308C11.3001 26.6008 9.85007 26.6708 8.53007 27.6308C7.65007 28.2708 7.61007 28.0408 7.79007 29.3908C8.13007 31.8908 8.76007 34.4008 9.18007 36.9108C11.1401 48.7208 13.9301 60.3308 15.4801 72.2308C15.5301 72.6208 15.6101 73.0608 15.9201 73.2908C16.4101 73.6508 18.1301 73.1008 18.8401 73.1508C20.4201 73.2608 21.9601 73.2808 23.5601 73.1808C26.6901 72.9808 29.8001 72.6608 32.9301 72.4808C32.8801 70.8908 32.8501 69.2908 32.7901 67.7008L32.8001 67.7108Z" fill="white"/>
<path d="M71.5398 65.8203C71.8798 59.7403 71.5998 53.6503 71.8398 47.5603C71.9598 44.5503 72.0098 41.5403 72.1198 38.5203C72.1698 37.1603 72.4598 35.8203 72.4498 34.4603C72.4498 33.9303 72.4098 33.3603 72.4598 32.8103C72.1498 32.4803 71.8098 32.1603 71.4698 31.8603C70.0798 30.6003 69.3698 28.9003 67.8898 27.6603C67.2298 27.1103 65.9598 26.3703 65.1798 25.9803C58.9298 22.8303 52.4698 21.1903 45.5198 23.1303C41.9798 24.1203 38.5398 25.8703 35.7398 28.2603C34.3298 29.4703 33.1298 30.8903 32.2998 32.5603C32.2098 32.7403 31.3998 34.7003 30.7998 35.9403C31.2498 38.2503 31.5798 40.5903 31.8498 42.9303C32.4998 48.6203 32.9998 54.3303 33.5098 60.0303C33.8798 64.1603 33.9598 68.3003 34.1098 72.4403C38.0898 72.2203 42.1298 71.8203 46.0598 72.2103C53.0998 72.9103 59.8498 72.2003 66.8898 71.5903C68.3598 71.4603 69.8298 71.3403 71.3098 71.3103C71.3698 69.4803 71.4498 67.6603 71.5498 65.8403L71.5398 65.8203Z" fill="#A9EAFF"/>
<path d="M94.5 24.0107C93.64 22.7207 89.15 23.8107 87.93 24.0607C85.5 24.5607 83.15 25.4407 80.99 26.6507C79.34 27.5707 77.6 28.6807 76.29 30.0607C76 30.3707 74.29 32.6907 73.63 33.6207C73.63 33.7307 73.63 33.8507 73.64 33.9507C73.64 34.5607 73.65 35.1407 73.58 35.7507C73.38 37.3907 73.31 39.0207 73.25 40.6607C73.04 46.5507 72.92 52.4307 72.96 58.3207C72.99 62.6507 72.71 66.9707 72.54 71.3007C72.75 71.3007 72.96 71.3007 73.17 71.3007C75.59 71.4007 77.99 71.8707 80.41 71.9007C82.77 71.9407 85.13 71.5707 87.49 71.7507C88.37 71.8207 89.29 71.9507 90.09 71.6107C91.52 71.0007 91.04 69.3607 91.07 68.1407C91.11 66.1307 91.22 64.1107 91.31 62.1007C91.5 58.0707 91.73 54.0507 92.02 50.0307C92.35 45.3407 92.75 40.6507 93.22 35.9707C93.45 33.6307 93.7 31.2907 93.97 28.9607C94.08 27.9807 95.04 24.8107 94.5 24.0107Z" fill="white"/>
<path d="M72.14 75.3805C71.57 71.2105 72.06 66.9005 72.67 62.7405C72.67 61.5905 72.67 60.4405 72.65 59.3005C72.62 56.3505 72.58 53.4005 72.47 50.4505C72.42 49.2105 72.45 48.0305 72.58 46.8005C72.64 46.1905 72.71 45.5505 72.7 44.9105C72.15 44.3505 71.3 44.1405 70.51 44.1805C68.52 44.2905 66.58 45.7705 66.23 47.7805C65.95 49.4105 66.95 51.1705 68.4 51.7705C67.45 51.7505 66.47 52.2105 65.89 52.9905C65.08 54.0705 65.02 55.5405 65.49 56.7805C64.22 55.3105 62.66 55.2805 61.11 56.4105C61.38 54.9505 60.6 53.3205 59.15 52.8705C57.73 52.4305 56.04 53.3305 55.58 54.7805C54.67 54.1805 53.4 54.2505 52.56 54.9505C51.72 55.6405 51.39 56.9105 51.78 57.9305C51.3 56.8805 50.21 56.1605 49.08 56.1405C47.95 56.1205 46.83 56.8105 46.32 57.8405C46.17 56.6305 45.31 55.5505 44.19 55.1405C43.07 54.7305 41.73 55.0305 40.87 55.8705C43.43 54.1605 40.2 51.6805 38.11 52.7705C39.37 52.1105 40.06 50.5405 39.8 49.1305C39.54 47.7105 38.41 46.5305 37.06 46.1205C35.39 45.6205 33.28 46.4105 32.36 47.9405C31.33 49.6505 32.01 51.6305 32.25 53.4705C32.51 55.5305 32.32 57.7405 32.52 59.8405C33.06 65.5605 33.96 71.2305 34.63 76.9405C38.55 76.7105 42.51 76.3205 46.38 76.7105C53.42 77.4205 60.17 76.7005 67.21 76.0805C68.84 75.9405 70.47 75.8005 72.1 75.7905C72.11 75.6605 72.13 75.5205 72.14 75.3805Z" fill="white"/>
<path d="M71.3798 71.2195C71.5398 70.1495 71.4298 69.0395 71.5998 67.9895C71.7498 67.0095 71.8498 66.0195 71.8998 65.0395C71.2498 64.7395 70.4398 64.6195 69.6498 64.5495C64.2198 64.0295 58.6298 64.4595 53.2398 63.7395C50.8998 63.4295 48.6298 62.8995 46.3298 62.4795C41.9898 61.6795 37.5098 61.2495 33.0098 61.1895C33.1598 62.6095 33.2598 64.0295 33.4698 65.4395C33.5998 66.3195 33.6998 67.1895 33.7698 68.0595C33.9498 69.1295 34.0698 70.1895 34.2298 71.2595C34.2898 71.6395 34.3398 72.0295 34.3798 72.4195C37.1298 72.3095 39.9098 72.1495 42.6698 72.1295C43.8498 72.1195 45.0398 72.1295 46.2098 72.1895C50.7898 72.5295 55.3498 71.9595 59.8598 71.5495C63.4898 71.2195 67.4198 71.4295 71.1398 71.2595C71.2198 71.2595 71.2998 71.2495 71.3798 71.2395V71.2195Z" fill="#75BD6A"/>
<path d="M71.7802 61.9102C71.1902 61.9802 70.6002 62.0602 70.0102 62.1402C68.4902 62.4002 66.9802 62.6802 65.4602 62.9602C60.5902 64.0002 55.8902 65.4602 51.1202 66.7802C49.7502 67.1602 48.3702 67.5302 46.9602 67.8902C45.8502 68.1802 44.7302 68.4502 43.6102 68.6902C40.8902 69.2602 38.1202 69.6502 35.3102 69.8302C34.3002 70.1002 33.2802 70.5002 32.9902 71.2802C34.7202 72.7002 40.2702 71.8502 42.6702 71.8102C46.1702 71.7502 49.6602 71.7602 53.1602 71.8202C56.6602 71.8802 60.1502 72.1502 63.6402 72.1902C66.4502 72.2302 69.2302 71.5802 72.1102 71.5902C72.1902 69.6202 72.2902 67.6402 72.1602 65.6702C72.1502 65.4802 71.9102 63.5902 71.7502 61.9202L71.7802 61.9102Z" fill="#A9D46A"/>
<path d="M68.8599 28.7302C68.4899 28.4002 68.0999 28.0502 67.7499 27.6602C66.8899 27.9302 66.0299 28.2002 65.1799 28.5002C64.0999 28.8902 63.3899 29.6802 62.5699 30.3702C62.5499 30.3702 62.5299 30.3702 62.5099 30.3702C61.4399 30.5402 60.3199 30.5202 59.2499 30.3302C58.7099 30.2302 58.1899 30.1002 57.6799 29.9202C57.1899 29.7502 56.7499 29.4902 56.2699 29.3102C55.7199 29.1002 55.1999 29.1402 54.6599 29.3302C54.1199 29.5202 53.5899 29.7002 53.0199 29.8302C51.8799 30.0902 50.6999 30.1602 49.5299 30.0702C49.2599 30.0502 49.0299 30.2702 49.0299 30.4802C49.0299 30.7202 49.2599 30.8702 49.5299 30.8902C50.7099 30.9802 51.9099 30.9102 53.0599 30.6702C53.6399 30.5502 54.1999 30.3902 54.7399 30.1902C54.9899 30.1002 55.2799 29.9502 55.5699 29.9702C55.8199 29.9902 56.0399 30.1202 56.2499 30.2202C57.7699 30.9502 59.4999 31.3102 61.2299 31.2802C60.4199 31.7402 59.5199 32.1302 58.5999 32.3102C57.7699 32.4802 56.8999 32.5702 56.0599 32.7002C55.4699 32.7902 54.5199 32.8102 54.0099 33.1102C53.6499 33.3202 53.5999 33.7402 53.3999 34.0402C53.0199 34.6102 52.4699 35.0902 51.8699 35.5102C51.2199 35.9602 50.5099 36.3602 49.7799 36.7402C49.5899 36.8002 49.4099 36.8802 49.2099 36.9302C49.0499 36.9702 48.9499 37.0602 48.9099 37.1702C48.3999 37.4202 47.8799 37.6602 47.3799 37.8902C45.6599 38.6902 43.8899 39.4102 42.0899 40.0602C41.5099 40.2702 42.0099 40.9802 42.5899 40.7702C45.1699 39.8302 47.7499 38.7702 50.1399 37.5002C51.9399 36.9202 53.5099 36.0702 54.9499 34.9702C55.3999 34.6302 55.8599 34.3602 56.4699 34.2702C57.0799 34.1802 57.7199 34.2102 58.3399 34.1502C59.3899 34.0302 60.4099 33.7702 61.3499 33.3602C62.2899 32.9602 63.1099 32.4202 63.8399 31.7802C64.6299 31.0802 65.3199 30.4202 66.4999 30.2002C66.6499 30.1702 66.7899 30.1502 66.9399 30.1302C66.7199 30.7102 66.4499 31.2702 66.0699 31.7902C65.6999 32.3002 65.2099 32.7002 64.6999 33.1102C64.5399 33.2102 64.3799 33.3002 64.2199 33.4002C63.8599 33.6302 63.5899 33.9002 63.4099 34.2502C63.3699 34.3202 63.3299 34.4102 63.2899 34.5002C63.2199 34.6002 63.1299 34.6802 63.0599 34.7802C63.0199 34.8402 62.9899 34.9102 62.9499 34.9702C62.9399 34.9802 62.9299 35.0002 62.9099 35.0102C62.7399 35.1102 62.6399 35.2702 62.6799 35.4402C62.4699 35.8202 62.2499 36.1902 61.9999 36.5502C61.6499 37.0402 61.1999 37.4902 60.7199 37.9002C59.7199 38.7302 58.5399 39.3702 57.2999 39.9202C55.9299 40.5302 54.4899 41.0302 53.0499 41.5302C52.7999 41.6202 52.6299 41.8002 52.6999 42.0302C52.7599 42.2202 53.0599 42.4002 53.3099 42.3202C55.9799 41.4002 58.7399 40.4702 60.9299 38.8602C62.0999 38.0002 62.8799 36.9902 63.5499 35.8302C63.6299 35.6902 63.7199 35.5502 63.7999 35.4102C63.9299 35.2702 64.0399 35.1202 64.1299 34.9602C64.1399 34.9402 64.1499 34.9102 64.1699 34.8902C64.3899 34.6002 64.6399 34.3302 64.9399 34.0802C65.0699 33.9702 65.1999 33.8602 65.3399 33.7602C65.4299 33.7102 65.5099 33.6602 65.5999 33.6102C65.9399 33.4002 66.2599 33.1902 66.5699 32.9502C67.7699 32.0502 68.7699 30.9502 69.4799 29.7402C69.5499 29.7202 69.6299 29.7102 69.6999 29.7002C69.7999 29.6802 69.8899 29.6402 69.9899 29.6202C69.6199 29.3302 69.2599 29.0302 68.8999 28.7202L68.8599 28.7302Z" fill="#7A4325"/>
<path d="M67.8599 30.3809C67.9099 30.2509 67.9499 30.1209 67.9999 29.9909C68.0599 29.9909 68.1199 29.9709 68.1799 29.9609C68.0799 30.1009 67.9699 30.2409 67.8599 30.3809Z" fill="#7A4325"/>
<path d="M38.94 40.8012C38.04 41.5312 37.63 42.7012 37.27 43.8012C37.95 43.8012 38.62 43.7512 39.29 43.6412C39.77 43.5612 40.26 43.4512 40.69 43.2212C41.45 42.8212 43.03 41.2212 42.34 40.5012C41.57 39.6912 39.66 40.2112 38.95 40.7912L38.94 40.8012Z" fill="#A9D46A"/>
<path d="M43.92 40.3598C43.64 40.8298 43.57 41.3998 43.51 41.9498C43.44 42.6398 43.36 43.3197 43.29 44.0097C44.07 43.7597 44.78 43.3097 45.34 42.7097C45.76 42.2597 46.1 41.6897 46.1 41.0697C46.1 39.7497 44.63 39.1598 43.91 40.3598H43.92Z" fill="#75BD6A"/>
<path d="M43.9599 38.2807C43.1899 37.8807 42.5799 37.2207 42.1099 36.4907C42.1099 36.4907 44.4399 36.0907 44.7199 36.1507C45.2699 36.2807 45.8399 36.4307 46.2699 36.7907C46.8899 37.3207 47.0899 38.3207 46.2899 38.6607C45.6999 38.9207 44.4999 38.5507 43.9599 38.2707V38.2807Z" fill="#A9D46A"/>
<path d="M48.45 40.52C48.57 41.16 48.78 41.79 48.86 42.43C49.36 41.93 49.86 41.43 50.24 40.85C50.75 40.06 51.31 37.9 49.84 37.66C48.37 37.42 48.3 39.73 48.45 40.52Z" fill="#75BD6A"/>
<path d="M59.66 42.4104C60.02 42.9604 60.45 43.4504 60.77 44.0204C61.04 43.3704 61.31 42.7104 61.44 42.0304C61.61 41.1004 61.3 38.9005 59.85 39.2405C58.4 39.5805 59.22 41.7404 59.66 42.4104Z" fill="#75BD6A"/>
<path d="M40.8498 39.6704C40.1798 38.8904 39.6098 37.9004 38.7798 37.2904C39.7698 37.2704 40.7598 37.3404 41.7298 37.5204C42.4198 37.6504 43.1498 37.8504 43.6298 38.3604C45.3898 40.2104 42.0198 41.0404 40.8498 39.6804V39.6704Z" fill="#75BD6A"/>
<path d="M54.2402 26.5702C54.7802 25.8102 55.5302 25.1102 55.8902 24.2402C56.1202 25.1002 56.2702 25.9902 56.3202 26.8802C56.3602 27.5102 56.3402 28.1902 56.0002 28.7302C54.7502 30.6702 53.3002 27.9002 54.2502 26.5702H54.2402Z" fill="#75BD6A"/>
<path d="M51.06 41.8093C50.31 42.3293 49.76 43.0793 49.23 43.8193C50.17 43.9993 51.17 44.0893 52.06 43.7193C54.36 42.7693 53.54 40.0893 51.06 41.8093Z" fill="#A9D46A"/>
<path d="M54.1602 43.011C54.0602 43.771 54.2002 44.551 54.2202 45.321C55.0402 44.911 55.7202 44.241 56.1402 43.441C56.3802 42.981 56.5402 42.461 56.4202 41.951C55.9802 40.001 54.3002 41.971 54.1602 43.011Z" fill="#A9D46A"/>
<path d="M53.5298 38.5506C54.6998 38.7006 55.8998 38.0906 57.0298 38.4106C57.3498 38.5006 57.6798 38.7006 57.7598 39.0206C57.8898 39.5006 57.4398 39.9206 57.0398 40.2206C56.4898 40.6306 55.4998 40.2906 54.9498 40.0106C54.6098 39.8306 53.6798 38.5706 53.5298 38.5506Z" fill="#75BD6A"/>
<path d="M57.74 40.681C57.54 41.011 57.47 41.401 57.42 41.791C57.3 42.671 57.28 43.551 57.25 44.441C57.72 44.001 58.35 43.751 58.81 43.291C59.51 42.611 59.73 41.481 59.34 40.581C58.97 39.721 58.13 40.001 57.74 40.681Z" fill="#A9D46A"/>
<path d="M63.1698 36.8605C63.3998 37.6005 63.6398 38.3405 63.8698 39.0905C64.5598 38.2405 65.9398 35.7905 64.8798 34.7205C63.8198 33.6505 62.9098 36.0105 63.1698 36.8605Z" fill="#A9D46A"/>
<path d="M69.5699 33.4403C70.1199 33.9003 70.6799 34.3603 71.2299 34.8203C71.3899 33.8003 71.3399 31.1803 69.9499 30.8903C68.5599 30.6003 68.9399 32.9103 69.5699 33.4403Z" fill="#A9D46A"/>
<path d="M46.3302 34.7802C46.2802 34.2402 46.2302 33.7002 46.1802 33.1602C46.8402 34.0102 48.2002 34.1602 48.7002 35.1202C49.1102 35.9002 48.8702 37.5802 47.7302 37.3702C46.6602 37.1702 46.4102 35.6302 46.3302 34.7902V34.7802Z" fill="#75BD6A"/>
<path d="M47.93 28.4399C47.13 28.2099 46.27 28.2699 45.46 28.4399C45.74 28.9599 46.07 29.4499 46.44 29.8999C46.77 30.2899 47.14 30.6699 47.61 30.8799C48.08 31.0899 48.65 31.1199 49.08 30.8499C50.48 29.9599 48.94 28.7299 47.93 28.4399Z" fill="#A9D46A"/>
<path d="M49.1899 26.9105C50.2799 26.7505 51.3299 27.4205 52.0999 28.2205C52.9599 29.1105 52.8099 30.6205 51.3299 30.3105C49.8499 30.0005 49.3799 28.2005 49.1899 26.9005V26.9105Z" fill="#75BD6A"/>
<path d="M52.2802 30.4211C51.3802 31.1911 51.0302 32.6511 50.6802 33.6911C51.9202 33.2111 54.0202 32.4511 54.3802 30.9511C54.6402 29.8711 53.5602 29.7411 52.8002 30.0911C52.6102 30.1811 52.4402 30.2911 52.2802 30.4211Z" fill="#A9D46A"/>
<path d="M60.9902 34.4199C60.3302 34.5499 59.7302 34.8899 59.1602 35.2399C59.6902 35.7599 60.3002 36.3099 61.0402 36.2999C61.5102 36.2999 62.8502 35.6699 62.8202 35.0699C62.7802 34.3399 61.5002 34.3299 60.9902 34.4199Z" fill="#75BD6A"/>
<path d="M59.1202 27.4006C59.7302 27.6206 60.3302 27.8906 60.9002 28.2106C61.2302 28.4006 61.5502 28.6006 61.7802 28.9006C62.0102 29.2006 62.1202 29.6106 61.9702 29.9606C61.2402 31.7506 58.7702 28.7606 59.1202 27.3906V27.4006Z" fill="#75BD6A"/>
<path d="M67.3999 33.1607C67.5099 33.9407 67.7999 34.7507 67.8699 35.3607C68.2799 34.9207 68.7699 34.5807 69.1799 34.1407C70.2999 32.9507 69.6899 29.3707 67.8699 31.2007C67.3499 31.7207 67.2999 32.4607 67.3999 33.1607Z" fill="#75BD6A"/>
<path d="M56.7399 35.7608C56.8099 36.3308 56.3999 36.8908 55.8399 37.2908C55.2799 37.6908 54.5799 37.9408 53.8799 38.1908C54.0099 37.4908 54.1499 36.7808 54.2799 36.0808C54.3499 35.6908 54.4299 35.3008 54.6899 34.9608C54.9499 34.6208 55.4199 34.3408 55.9399 34.3608C56.2699 34.2308 56.3999 34.6408 56.5299 34.8908C56.6599 35.1408 56.7099 35.4908 56.7499 35.7708L56.7399 35.7608Z" fill="#A9D46A"/>
<path d="M48.9599 30.7301C48.4599 31.2701 48.1499 31.9601 47.8599 32.6301C48.6399 32.6101 49.4499 32.5101 50.0899 32.0701C51.7499 30.9201 50.6299 28.9401 48.9699 30.7301H48.9599Z" fill="#75BD6A"/>
<path d="M94.47 22.1701C86.58 21.7901 77.01 25.1401 73.26 32.4901C69.98 27.1301 64.51 23.1301 58.36 21.7501C54.28 20.8301 49.98 21.1301 45.91 21.9901C42.01 22.8201 38.11 24.4001 35.11 27.0801C32.68 29.2501 30.77 32.0801 29.74 35.1901C28.04 33.0301 25.67 31.2401 23.43 29.8501C19.48 27.3901 14.76 25.8301 10.07 26.2201C9.15997 26.3001 7.90997 26.2201 7.16997 26.8201C6.12997 27.6601 6.56997 29.0901 6.74997 30.2101C7.16997 32.9201 7.63997 35.6201 8.12997 38.3101C9.15997 43.9601 10.29 49.5501 11.36 55.2001C12.49 61.1801 13.59 67.1901 14.22 73.2501C14.29 73.8701 14.73 74.5301 15.45 74.4801C34.27 73.0601 43.64 74.5001 62.46 73.0301C62.58 73.0301 68.73 73.3301 70.62 72.9401C70.79 73.0501 73.69 72.9401 73.94 72.9401C79.75 73.1401 84.57 73.0601 90.39 73.2601C91.09 73.2801 91.57 72.6801 91.62 72.0301C92.84 55.8101 94.49 39.6301 95.71 23.4101C95.76 22.7301 95.1 22.2101 94.48 22.1801L94.47 22.1701ZM93.14 24.6001C92.74 29.7901 92.31 34.9801 91.85 40.1701C85.84 40.7201 79.81 41.4801 73.93 42.8701C73.91 42.8701 73.89 42.8901 73.87 42.8901C74.13 42.8101 73.99 37.9901 74.06 37.4601C74.25 36.1001 74.68 34.7301 75.34 33.5201C76.75 30.9301 79.1 28.8601 81.67 27.4501C83.45 26.4801 85.38 25.7801 87.35 25.3101C87.81 25.2001 93.16 24.4401 93.15 24.6001H93.14ZM90.52 55.4201C84.94 55.6001 79.39 56.1401 73.81 56.3001C73.75 56.3001 73.7 56.3301 73.65 56.3401C73.7 52.6201 73.74 48.9001 73.82 45.1901C74.04 45.2901 74.3 45.3201 74.59 45.2501C80.19 43.9301 85.92 43.1801 91.64 42.6601C91.27 46.9201 90.89 51.1701 90.52 55.4301V55.4201ZM73.61 58.7201C73.68 58.7201 73.74 58.7601 73.81 58.7601C79.31 58.6001 84.8 58.0701 90.3 57.8901C89.93 62.1801 89.58 66.4701 89.25 70.7601C83.92 70.5701 78.59 70.3901 73.26 70.2001C73.45 66.3801 73.55 62.5501 73.61 58.7301V58.7201ZM38.62 27.4801C42.64 24.9001 47.6 23.8001 52.32 23.6601C56.38 23.5401 60.45 24.6001 63.94 26.6801C65.68 27.7201 67.27 29.0101 68.65 30.5001C69.33 31.2401 69.96 32.0201 70.53 32.8501C71.14 33.7401 71.7 34.7301 71.68 35.8001C71.66 37.2501 71.53 38.7001 71.48 40.1501C71.38 43.1101 71.32 46.0701 71.28 49.0301C71.19 54.9501 71.16 60.8701 70.94 66.7801C70.9 67.9001 70.85 69.0301 70.8 70.1501C70.8 70.1701 69.83 70.2201 69.74 70.2301C63.85 70.6401 57.76 70.3701 51.86 70.4901C46.13 70.6101 39.33 70.7001 34.7 70.8501C34.57 69.8401 34.54 68.3101 34.49 67.2901C34.21 61.5201 34.03 57.9901 33.54 52.9701C33.31 50.6101 33.03 48.2501 32.71 45.9101C32.54 44.6401 32.49 43.0601 32.29 41.8001C32.11 40.6501 31.93 37.5301 32.01 37.1001C32.58 33.7501 35.07 29.7801 38.64 27.4901L38.62 27.4801ZM12.19 46.6501C18.27 46.7101 24.34 47.0201 30.4 47.5001C30.84 51.0301 31.19 54.5701 31.49 58.1201C25.8 58.6701 20.09 58.1501 14.39 58.1001C13.69 54.2801 12.93 50.4601 12.19 46.6501ZM8.98997 28.8601C9.50997 28.5501 10.49 28.6401 11.1 28.6201C12.29 28.6001 13.47 28.6901 14.63 28.9201C16.77 29.3401 18.81 30.1101 20.73 31.1401C23.12 32.4301 25.59 33.8701 27.39 35.9401C28.24 36.9201 28.87 38.0701 29.2 39.3201C29.34 39.8301 29.88 45.0101 30.07 45.0301C23.96 44.5501 17.84 44.2401 11.71 44.1901C11.7 44.1101 11.68 44.0401 11.66 43.9601C11.17 41.4001 10.68 38.8401 10.22 36.2801C9.99997 35.0701 9.78997 33.8601 9.58997 32.6501C9.37997 31.3901 9.16997 30.1101 8.98997 28.8601ZM14.83 60.5701C20.42 60.6401 26.02 61.1301 31.6 60.5701C31.64 60.5701 31.66 60.5501 31.69 60.5401C31.97 64.1101 32.2 67.6801 32.41 71.2501C27.1 71.3701 21.8 71.5701 16.51 71.9401C16.07 68.1301 15.49 64.3401 14.83 60.5601V60.5701Z" fill="#C07A4F"/>
<path d="M77.6101 72.7693C77.3401 72.3593 76.7501 72.4093 75.9201 72.4193C72.6601 72.4393 69.4301 72.4093 66.1501 72.4493C63.1901 72.4893 60.2201 72.5193 57.2601 72.5493C51.3301 72.5993 45.4101 72.6193 39.4801 72.6093C35.9401 72.6093 33.4801 72.5893 29.9301 72.5593C29.4401 72.5593 28.7201 73.0593 29.0801 74.1293C29.5401 77.0493 29.7901 79.5693 30.2401 82.4893C30.2801 82.7293 30.4501 82.9493 30.7201 82.9593C42.7201 83.0893 54.6101 83.2693 66.6001 83.2193C68.4101 83.2193 70.2301 83.1893 72.0401 83.1493C72.9401 83.1293 76.4501 83.5593 76.9501 82.6893C77.0401 82.5293 77.0701 82.3393 77.0901 82.1593C77.4401 79.3393 77.6001 76.5593 77.7701 73.7193C77.8001 73.2593 77.7401 72.9593 77.6101 72.7693Z" fill="#F9E0A3"/>
</svg>
