<svg width="100" height="100" viewBox="0 0 100 100" fill="none" xmlns="http://www.w3.org/2000/svg">
<g clip-path="url(#clip0_5055_14604)">
<path d="M70.4987 14.4974C90.1062 25.8178 96.8242 50.8899 85.5038 70.4974C74.1834 90.105 49.1114 96.823 29.5038 85.5026C9.89629 74.1822 3.17826 49.1101 14.4987 29.5026C25.8191 9.89505 50.8911 3.17701 70.4987 14.4974ZM58.6473 34.6414C50.3095 29.8276 39.6481 32.6843 34.8342 41.0221C30.0204 49.3599 32.8772 60.0214 41.2149 64.8352C49.5527 69.649 60.2142 66.7923 65.028 58.4545C69.8418 50.1167 66.9851 39.4553 58.6473 34.6414Z" fill="#FBE8E0"/>
<path d="M85.5033 70.4976C85.27 70.9016 85.03 71.2997 84.7852 71.6927C81.2311 77.3919 76.3273 82.1374 70.4983 85.5028C68.1771 86.8429 65.7396 87.9461 63.2228 88.8036C61.4977 89.3907 59.7352 89.8626 57.9476 90.2166C55.3406 90.7317 52.6795 90.9951 50.0007 90.9951L50.0004 67.1719C55.9351 67.1426 61.6971 64.0816 64.9298 58.6194L85.5033 70.4976ZM34.7401 41.189C31.5679 46.8225 31.8657 53.4833 34.965 58.6808L14.4988 70.4972C12.9272 67.7751 11.6806 64.8932 10.7749 61.9108C10.7038 61.6764 10.6351 61.4413 10.5681 61.2056C10.4554 60.809 10.3485 60.4108 10.2478 60.011C10.1881 59.7741 10.1304 59.5366 10.075 59.2986C9.36786 56.2627 9.0063 53.1434 9.0063 49.9999C9.0063 42.8039 10.9007 35.7346 14.4987 29.5026L34.7401 41.189ZM70.4984 14.4972C70.9025 14.7306 71.3008 14.9703 71.694 15.2152C77.3931 18.7694 82.1383 23.6738 85.5037 29.5028L65.1586 41.2487C63.6771 38.5853 61.4784 36.2759 58.647 34.6412C55.9184 33.0659 52.941 32.3122 50.0011 32.303L50.0011 9.00537C56.7326 9.00538 63.3532 10.6626 69.2812 13.8217C69.6891 14.0394 70.095 14.2643 70.4984 14.4972Z" fill="#FE8B8C"/>
</g>
<defs>
<clipPath id="clip0_5055_14604">
<rect width="100" height="100" fill="white"/>
</clipPath>
</defs>
</svg>
