<svg width="100" height="100" viewBox="0 0 100 100" fill="none" xmlns="http://www.w3.org/2000/svg">
<path d="M62.1597 48.2018C65.3267 47.6665 68.228 46.0994 70.4121 43.7443C72.5962 41.3892 73.9406 38.3782 74.2361 35.1799C74.5316 31.9815 73.7616 28.7752 72.046 26.0598C70.3304 23.3445 67.7653 21.2723 64.75 20.1659C61.7346 19.0595 58.4381 18.9808 55.3734 19.9421C52.3087 20.9034 49.6477 22.8507 47.8044 25.4811C45.9612 28.1116 45.039 31.2775 45.1815 34.4863C45.324 37.6951 46.5232 40.7668 48.5924 43.2234L50.3975 41.703C48.6636 39.6444 47.6588 37.0704 47.5393 34.3816C47.4199 31.6927 48.1926 29.0398 49.7372 26.8356C51.2818 24.6314 53.5117 22.9996 56.0798 22.194C58.6479 21.3885 61.4102 21.4545 63.937 22.3816C66.4637 23.3088 68.6131 25.0451 70.0507 27.3205C71.4884 29.5959 72.1336 32.2827 71.8859 34.9628C71.6383 37.6429 70.5118 40.166 68.6816 42.1394C66.8514 44.1129 64.4202 45.4261 61.7664 45.8746L62.1597 48.2018Z" fill="#696969"/>
<path d="M49.3955 40.7754L51.523 42.2851L26.3612 77.7438L24.2337 76.2341L49.3955 40.7754Z" fill="#696969"/>
<path d="M63.1504 45.8926L60.5535 45.6446L56.4206 88.9269L59.0175 89.1749L63.1504 45.8926Z" fill="#696969"/>
<path d="M17.3828 44L80.8845 60.6672L71.5022 96.4137L8.0005 79.7466L17.3828 44Z" fill="#45C5AB"/>
<path d="M9.67871 72.8105L73.1804 89.4777L72.4078 92.4215L8.90605 75.7544L9.67871 72.8105Z" fill="#3DA892"/>
<path d="M58.3224 45.9179C61.4206 45.0707 64.1519 43.2231 66.0912 40.6627C68.0306 38.1023 69.0692 34.9727 69.0456 31.7608C69.0219 28.5489 67.9373 25.4349 65.9605 22.9034C63.9836 20.3719 61.2254 18.5648 58.1151 17.7634C55.0048 16.9619 51.7167 17.2111 48.7627 18.472C45.8086 19.733 43.3542 21.935 41.7813 24.7355C40.2084 27.536 39.6053 30.7779 40.0659 33.9567C40.5264 37.1355 42.0247 40.0729 44.3277 42.3118L45.9728 40.6195C44.043 38.7434 42.7875 36.282 42.4016 33.6183C42.0157 30.9546 42.5211 28.238 43.8391 25.8913C45.1571 23.5446 47.2138 21.6993 49.6892 20.6427C52.1646 19.5861 54.9198 19.3773 57.5262 20.0489C60.1325 20.7204 62.4438 22.2347 64.1003 24.356C65.7568 26.4774 66.6657 29.0868 66.6855 31.7782C66.7053 34.4696 65.835 37.0922 64.2099 39.2377C62.5848 41.3832 60.2961 42.9314 57.6999 43.6413L58.3224 45.9179Z" fill="#696969"/>
<path d="M44.8857 39.7949L47.1527 41.0858L25.6374 78.8685L23.3705 77.5776L44.8857 39.7949Z" fill="#696969"/>
<path d="M59.0801 43.5195L56.4714 43.5308L56.6582 87.0095L59.2669 86.9983L59.0801 43.5195Z" fill="#696969"/>
</svg>
