<svg width="100" height="100" viewBox="0 0 100 100" fill="none" xmlns="http://www.w3.org/2000/svg">
<g clip-path="url(#clip0_3647_3500)">
<path d="M99.9999 54.5463C99.9999 79.6502 79.6492 100.001 54.5454 100.001C29.4415 100.001 9.09082 79.6502 9.09082 54.5463C9.09082 29.4425 29.4415 9.0918 54.5454 9.0918C79.6492 9.0918 99.9999 29.4425 99.9999 54.5463Z" fill="#FFD784"/>
<path d="M37.2371 56.3256C37.2371 58.4697 35.499 60.2078 33.3549 60.2078C31.2108 60.2078 29.4727 58.4697 29.4727 56.3256C29.4727 54.1815 31.2108 52.4434 33.3549 52.4434C35.499 52.4434 37.2371 54.1815 37.2371 56.3256Z" fill="#3B3B3B"/>
<path d="M79.618 56.3256C79.618 58.4697 77.8799 60.2078 75.7358 60.2078C73.5917 60.2078 71.8535 58.4697 71.8535 56.3256C71.8535 54.1815 73.5917 52.4434 75.7358 52.4434C77.8799 52.4434 79.618 54.1815 79.618 56.3256Z" fill="#3B3B3B"/>
<path d="M67.5331 66.8398C68.1327 66.8398 68.6245 67.3272 68.5625 67.9235C68.4354 69.1452 68.0938 70.3454 67.5475 71.4826C66.8402 72.9545 65.8036 74.2919 64.4968 75.4185C63.19 76.545 61.6386 77.4387 59.9311 78.0483C58.2237 78.658 56.3937 78.9718 54.5456 78.9718C52.6975 78.9718 50.8675 78.658 49.16 78.0483C47.4526 77.4387 45.9012 76.545 44.5944 75.4185C43.2876 74.2919 42.251 72.9545 41.5437 71.4826C40.9974 70.3454 40.6558 69.1452 40.5287 67.9235C40.4667 67.3272 40.9585 66.8398 41.5581 66.8398C42.1577 66.8398 42.6369 67.3277 42.7102 67.9227C42.8303 68.8985 43.1124 69.8563 43.5497 70.7663C44.1478 72.0111 45.0245 73.1422 46.1297 74.0949C47.2349 75.0477 48.5469 75.8035 49.9909 76.3191C51.4349 76.8347 52.9826 77.1001 54.5456 77.1001C56.1086 77.1001 57.6562 76.8347 59.1003 76.3191C60.5443 75.8035 61.8563 75.0477 62.9615 74.0949C64.0667 73.1422 64.9434 72.0111 65.5415 70.7663C65.9788 69.8563 66.2609 68.8985 66.381 67.9227C66.4543 67.3277 66.9335 66.8398 67.5331 66.8398Z" fill="#3B3B3B"/>
</g>
<defs>
<clipPath id="clip0_3647_3500">
<rect width="100" height="100" fill="white"/>
</clipPath>
</defs>
</svg>
