<svg width="100" height="100" viewBox="0 0 100 100" fill="none" xmlns="http://www.w3.org/2000/svg">
<path d="M32.0202 28.2907C33.1202 30.4607 34.5102 32.5207 35.9502 34.4907C37.2902 36.3407 38.6302 38.1807 39.9702 40.0407C42.6602 43.7707 45.3502 47.5307 47.9402 51.3407C50.4602 55.0507 53.1002 58.6807 55.6102 62.3907C58.1102 66.1007 60.5202 69.8607 62.9102 73.6407C64.1902 75.6707 65.3702 77.7707 66.7102 79.7607C67.3602 80.7207 68.0002 81.6907 68.6302 82.6607C69.1402 83.4507 70.2102 85.6907 71.3002 85.2907C72.3202 84.9207 72.6002 83.9107 72.8102 82.9207C73.1402 81.3407 73.0202 79.7207 72.6902 78.1607C72.0402 75.0707 70.3202 72.2507 68.8902 69.4507C67.8502 67.4207 66.6502 65.4807 65.4602 63.5407C63.1502 59.7807 60.6802 56.1107 58.1502 52.4907C55.5402 48.7707 52.9202 45.0207 50.1002 41.4507C48.7802 39.7707 47.4502 38.1007 46.1202 36.4307C44.7902 34.7607 43.5102 33.0007 42.0902 31.3907C40.5102 29.6007 39.0102 27.7307 37.4802 25.8907C36.7602 25.0207 36.0002 24.1807 35.2402 23.3407C34.4802 22.5007 33.7602 21.7007 32.8102 21.0607C31.7702 20.3507 31.4502 22.9207 31.4002 23.3807C31.2302 24.9807 31.2902 26.8207 32.0302 28.2907H32.0202Z" fill="#599DFF"/>
<path d="M77.3302 21.3291C75.6602 22.6091 73.9802 23.8691 72.4502 25.3391C70.8302 26.8991 69.2202 28.4491 67.6302 30.0491C64.4102 33.2991 61.3002 36.6491 58.1602 39.9791C51.6502 46.8791 45.2802 53.9091 38.8402 60.8791C36.9702 62.8991 35.1602 64.9791 33.3502 67.0591C32.4902 68.0491 31.6602 69.0591 30.7802 70.0291C29.8202 71.0891 28.7902 72.1491 28.0702 73.3891C26.9202 75.3791 26.8102 77.8391 27.2802 80.0591C27.5202 81.1791 28.4202 84.0891 30.1202 83.0691C30.9302 82.5891 31.5202 81.8491 32.1602 81.1691C32.7002 80.5991 33.2202 80.0191 33.7502 79.4491C34.8202 78.2891 35.9102 77.1491 37.0002 75.9991C39.3502 73.5091 41.6302 70.9491 43.8702 68.3591L43.3302 68.9691C52.4802 58.6391 61.6502 48.3191 70.4402 37.6691C73.1302 34.4091 75.5902 30.9991 77.9602 27.4991C78.6902 26.4191 78.6702 24.7991 78.5202 23.5491C78.4702 23.1291 78.1502 20.6991 77.3202 21.3391L77.3302 21.3291Z" fill="#599DFF"/>
</svg>
