<svg width="100" height="100" viewBox="0 0 100 100" fill="none" xmlns="http://www.w3.org/2000/svg">
<path d="M24.2119 19.1343C25.5784 21.83 27.3051 24.389 29.0939 26.8361C30.7585 29.1342 32.423 31.4199 34.0876 33.7305C37.4292 38.364 40.7708 43.0347 43.9881 47.7676C47.1185 52.3763 50.398 56.8855 53.516 61.4942C56.6216 66.1028 59.6153 70.7736 62.5842 75.4692C64.1743 77.9909 65.6401 80.5996 67.3047 83.0716C68.1121 84.2641 68.9072 85.4691 69.6898 86.6741C70.3233 87.6554 71.6525 90.438 73.0065 89.9411C74.2736 89.4815 74.6214 88.2268 74.8823 86.997C75.2922 85.0343 75.1431 83.0219 74.7332 81.0841C73.9257 77.2456 71.7891 73.7425 70.0127 70.2643C68.7208 67.7426 67.2302 65.3327 65.7519 62.9227C62.8824 58.252 59.8141 53.693 56.6713 49.1962C53.4291 44.5751 50.1744 39.9168 46.6713 35.482C45.0316 33.3951 43.3795 31.3206 41.7273 29.246C40.0751 27.1715 38.4851 24.9852 36.7211 22.9852C34.7584 20.7617 32.8951 18.4387 30.9945 16.153C30.1001 15.0723 29.156 14.0288 28.2119 12.9853C27.2678 11.9419 26.3734 10.9481 25.1933 10.1531C23.9014 9.27109 23.5039 12.4636 23.4418 13.035C23.2306 15.0226 23.3051 17.3083 24.2244 19.1343H24.2119Z" fill="#599DFF"/>
<path d="M80.4971 10.4854C78.4226 12.0754 76.3357 13.6406 74.4351 15.4667C72.4227 17.4046 70.4227 19.33 68.4476 21.3176C64.4476 25.3548 60.5843 29.5163 56.6837 33.6529C48.5968 42.2242 40.6839 50.957 32.6839 59.6153C30.361 62.1246 28.1126 64.7085 25.8641 67.2923C24.7958 68.5221 23.7648 69.7767 22.6716 70.9817C21.4791 72.2984 20.1996 73.6152 19.3052 75.1556C17.8766 77.6276 17.74 80.6835 18.3238 83.4412C18.622 84.8325 19.74 88.4474 21.8517 87.1803C22.8579 86.584 23.5909 85.6648 24.3859 84.8201C25.0567 84.112 25.7026 83.3915 26.361 82.6834C27.6902 81.2425 29.0442 79.8263 30.3982 78.3978C33.3175 75.3046 36.1497 72.1245 38.9323 68.9072L38.2615 69.6649C49.6279 56.8328 61.0191 44.013 71.9382 30.7833C75.2798 26.7337 78.3357 22.4977 81.2797 18.1499C82.1866 16.8083 82.1617 14.7959 81.9754 13.2431C81.9133 12.7214 81.5158 9.70279 80.4847 10.4978L80.4971 10.4854Z" fill="#599DFF"/>
</svg>
