<svg width="100" height="100" viewBox="0 0 100 100" fill="none" xmlns="http://www.w3.org/2000/svg">
<path d="M90 50C90 72.0914 72.0914 90 50 90C27.9086 90 10 72.0914 10 50C10 27.9086 27.9086 10 50 10C72.0914 10 90 27.9086 90 50Z" fill="#FFD784"/>
<path d="M34.7693 51.5648C34.7693 53.4516 33.2397 54.9812 31.3529 54.9812C29.4661 54.9812 27.9365 53.4516 27.9365 51.5648C27.9365 49.678 29.4661 48.1484 31.3529 48.1484C33.2397 48.1484 34.7693 49.678 34.7693 51.5648Z" fill="#3B3B3B"/>
<path d="M72.0642 51.5648C72.0642 53.4516 70.5346 54.9812 68.6478 54.9812C66.761 54.9812 65.2314 53.4516 65.2314 51.5648C65.2314 49.678 66.761 48.1484 68.6478 48.1484C70.5346 48.1484 72.0642 49.678 72.0642 51.5648Z" fill="#3B3B3B"/>
<path d="M61.4296 60.8184C61.9573 60.8184 62.3901 61.2472 62.3355 61.772C62.2236 62.8471 61.9231 63.9033 61.4423 64.9039C60.8199 66.1992 59.9077 67.3762 58.7577 68.3675C57.6077 69.3589 56.2425 70.1453 54.7399 70.6818C53.2374 71.2184 51.627 71.4945 50.0006 71.4945C48.3743 71.4945 46.7639 71.2184 45.2613 70.6818C43.7588 70.1453 42.3936 69.3589 41.2436 68.3675C40.0936 67.3762 39.1814 66.1992 38.559 64.9039C38.0782 63.9033 37.7776 62.8471 37.6658 61.772C37.6112 61.2472 38.044 60.8184 38.5716 60.8184C39.0992 60.8184 39.521 61.2476 39.5855 61.7713C39.6912 62.63 39.9394 63.4728 40.3242 64.2736C40.8506 65.3691 41.6221 66.3644 42.5946 67.2028C43.5672 68.0413 44.7218 68.7063 45.9925 69.1601C47.2633 69.6138 48.6252 69.8474 50.0006 69.8474C51.3761 69.8474 52.738 69.6138 54.0087 69.1601C55.2795 68.7063 56.4341 68.0413 57.4066 67.2028C58.3792 66.3644 59.1507 65.3691 59.677 64.2736C60.0618 63.4728 60.3101 62.63 60.4158 61.7713C60.4803 61.2476 60.902 60.8184 61.4296 60.8184Z" fill="#3B3B3B"/>
</svg>
