<svg width="100" height="100" viewBox="0 0 100 100" fill="none" xmlns="http://www.w3.org/2000/svg">
<path d="M42.3837 60.03C39.1437 57.46 39.0537 52.6 39.7237 48.51C40.0937 46.26 40.6136 43.97 41.8236 42.04C43.0336 40.11 45.0337 38.54 47.3137 38.39C49.5937 38.23 52.0137 39.81 52.3437 42.07C52.8037 45.17 49.6736 47.43 47.3937 49.57C44.5936 52.2 42.6337 55.7 41.8437 59.46" fill="#97DCFF"/>
<path d="M42.6536 59.7691C40.0836 57.6991 39.6236 54.2091 39.8036 51.1091C39.9136 49.3091 40.2036 47.4891 40.6836 45.7391C41.1836 43.8991 41.9736 42.0991 43.3336 40.7291C44.5136 39.5491 46.1236 38.6791 47.8236 38.7491C49.3436 38.8091 50.8736 39.6691 51.6036 41.0191C52.3336 42.3691 51.9536 44.0191 51.0936 45.2791C50.1636 46.6591 48.8336 47.7291 47.6136 48.8391C44.8736 51.3291 42.8336 54.4491 41.8036 58.0091C41.6736 58.4491 41.5636 58.8991 41.4736 59.3391C41.3736 59.8091 42.0936 60.0091 42.1936 59.5391C43.0036 55.6991 45.0236 52.2291 47.9036 49.5791C49.2036 48.3791 50.6036 47.2491 51.6336 45.7891C52.5736 44.4591 53.0936 42.7591 52.4836 41.1791C51.8736 39.5991 50.4436 38.5191 48.8436 38.1391C47.0936 37.7291 45.2736 38.2591 43.8436 39.2891C40.5536 41.6691 39.5936 45.9591 39.1536 49.7791C38.7836 53.0391 38.9436 56.8191 41.2036 59.4191C41.4736 59.7391 41.7836 60.0191 42.1036 60.2791C42.4736 60.5791 43.0136 60.0491 42.6336 59.7491L42.6536 59.7691Z" fill="#42A7D4"/>
<path d="M47.8235 61.0286C48.8435 58.6786 50.7835 56.8685 52.6735 55.1285C53.6335 54.2385 54.6735 53.3186 55.9635 53.0986C57.9735 52.7586 60.0235 54.5385 60.1335 56.5785C60.2435 58.6185 58.5635 60.5386 56.5535 60.8886C55.0935 61.1386 53.6235 60.6885 52.1535 60.5585C50.6835 60.4285 48.9635 60.7786 48.2535 62.0686" fill="#97DCFF"/>
<path d="M48.1436 61.2191C49.0536 59.1591 50.6336 57.5391 52.2536 56.0291C53.6836 54.6991 55.4936 52.7691 57.6336 53.6891C58.4736 54.0491 59.1736 54.7591 59.5236 55.5991C59.8736 56.4391 59.8136 57.4391 59.4036 58.2791C58.9936 59.1191 58.2936 59.8191 57.4336 60.2291C56.3736 60.7391 55.1736 60.6291 54.0436 60.4591C52.8336 60.2791 51.6436 60.0491 50.4236 60.2791C49.4036 60.4691 48.4436 60.9791 47.9136 61.8991C47.6736 62.3191 48.3236 62.6991 48.5636 62.2791C49.0536 61.4291 50.0136 61.0591 50.9436 60.9591C52.1636 60.8291 53.3736 61.1491 54.5836 61.2891C55.7936 61.4291 56.9736 61.3591 58.0436 60.7591C58.9336 60.2691 59.6836 59.4691 60.1036 58.5491C60.5236 57.6291 60.6436 56.5491 60.3036 55.5691C59.9636 54.5891 59.3136 53.8091 58.4636 53.2791C57.6136 52.7491 56.5236 52.5491 55.5236 52.8191C54.4036 53.1291 53.4736 53.8991 52.6336 54.6591C50.6536 56.4591 48.6036 58.3491 47.5036 60.8391C47.3136 61.2791 47.9536 61.6591 48.1536 61.2191H48.1436Z" fill="#42A7D4"/>
</svg>
