<svg width="100" height="100" viewBox="0 0 100 100" fill="none" xmlns="http://www.w3.org/2000/svg">
<path d="M29.3393 43.0662C28.5553 43.0662 27.7593 43.0421 26.9752 43.0662C26.1068 43.0903 25.2987 43.3919 24.4905 43.7055C23.0552 44.2483 21.7284 45.0685 20.5705 46.0696C19.0145 47.4084 17.6274 48.9644 16.4815 50.6651C15.408 52.2452 14.4793 53.9218 13.6349 55.6346C13.261 56.3945 12.9112 57.1664 12.5856 57.9504C12.1634 58.9757 11.7292 60.0371 11.3794 61.0986C10.5109 63.8124 10.0647 66.5625 10.0043 69.4091C9.94404 72.4004 10.5109 75.3797 11.7292 78.1177C12.1513 79.0706 12.7424 79.9873 13.3937 80.8075C14.045 81.6277 14.7446 82.2187 15.5648 82.8338C16.8072 83.7626 18.2305 84.4139 19.7382 84.7878C21.4871 85.2221 23.224 85.4513 25.0212 85.2341C28.9654 84.7396 32.3669 82.6891 35.1893 79.9752C38.2289 77.0563 40.3397 73.4015 41.7027 69.4453C43.3672 64.6568 43.3189 59.5064 42.1731 54.6093C41.3046 50.8702 39.1456 47.3361 35.9854 45.1047C34.6586 44.1638 33.175 43.5246 31.607 43.1024C30.9074 42.9094 30.1957 42.7888 29.46 42.7647C29.1102 42.7647 28.7363 42.7285 28.3865 42.7888C27.9281 42.8612 27.4215 43.1386 26.9994 43.3436C26.1792 43.7537 25.3952 44.2483 24.7921 44.9479L25.1057 44.5981C24.7559 44.7669 24.4423 45.1288 24.1528 45.4062C23.3085 46.2264 23.2602 47.6617 23.3447 48.7594C23.3929 49.3263 23.4773 49.9776 23.7306 50.4963C23.8874 50.8099 24.189 51.4371 24.6353 51.3647C24.9609 51.3165 25.3348 51.3285 25.6364 51.232L25.2745 51.1235C25.9017 51.3165 26.5531 51.2923 27.2044 51.3888C27.7593 51.4733 28.302 51.6663 28.8689 51.6783C30.0027 51.7024 31.1607 51.8954 32.2462 52.2332L31.7758 52.0884C33.7419 52.7156 35.515 53.8132 36.9744 55.2607L36.5402 54.8144C37.3001 55.5863 37.9394 56.4548 38.4701 57.3956L38.0841 56.696C38.1927 56.889 38.2892 57.094 38.3857 57.287C38.4339 57.3835 38.458 57.5041 38.5304 57.5886C38.4942 57.5403 38.2047 56.5633 38.3736 57.1302C38.5304 57.6248 38.6752 58.1193 38.8078 58.6259C38.8681 58.843 39.0732 59.7959 38.8802 58.8792C38.6872 57.9625 38.8802 58.9033 38.9043 59.1325C38.9284 59.2652 38.9405 59.3978 38.9526 59.5305L38.8681 58.5776C38.8681 58.6621 38.8681 58.7586 38.8681 58.843C38.8681 59.0842 38.8681 59.3375 38.8681 59.5788C38.8681 60.2783 38.8923 58.7948 38.8923 58.8189C38.8923 58.9516 38.8802 59.0842 38.8681 59.2169C38.8561 59.4581 38.832 59.7114 38.7958 59.9527C38.7596 60.1939 38.7355 60.4472 38.6993 60.6884C38.6148 61.2915 38.8923 59.6632 38.7716 60.2301C38.7475 60.3628 38.7234 60.4955 38.6872 60.6281C38.4701 61.6534 38.2047 62.6666 37.867 63.6556L38.2047 62.6786C37.7223 64.0657 37.0951 65.3925 36.3472 66.659L36.8297 65.8871L36.2025 66.8882L36.685 66.1162L36.1301 67.0088L36.6126 66.2369C35.334 68.2512 33.8625 70.1207 32.0532 71.6767L32.6563 71.1581C30.7385 72.7985 28.5433 74.0529 26.1068 74.7525L26.8064 74.5474C24.7318 75.1143 22.5968 75.1746 20.4981 74.7042L21.2218 74.8731C19.509 74.463 17.8686 73.7272 16.4815 72.6296L17.1208 73.1362C16.2162 72.4004 15.396 71.5923 14.7446 70.6032L15.2512 71.3993L14.6843 70.5067L15.1909 71.3028C14.8773 70.8083 14.624 70.2896 14.4069 69.7468L14.7929 70.7721C14.6119 70.2896 14.4672 69.8071 14.3586 69.3126L14.624 70.5188C14.5396 70.1328 14.4793 69.7468 14.431 69.3488C14.3345 68.5286 14.5275 70.8203 14.4913 69.9881C14.4913 69.783 14.4793 69.5659 14.4793 69.3488C14.4793 69.2523 14.4793 69.1558 14.4793 69.0714C14.4793 68.9508 14.4069 70.5912 14.4431 69.976C14.4431 69.783 14.4672 69.59 14.4793 69.4091C14.5154 68.9749 14.5758 68.5527 14.6361 68.1185L14.4431 69.3126C14.6602 68.0099 15.022 66.7435 15.3236 65.4649L15.022 66.466C15.7457 64.2346 16.7469 62.1117 17.7842 60.013L17.3982 60.7608C17.9892 59.627 18.6768 58.5415 19.4125 57.5041C20.1483 56.4668 20.8237 55.5019 21.6319 54.5852L21.2218 55.0435C22.2832 53.8615 23.4532 52.8001 24.7318 51.8472C25.3469 51.3888 25.9862 50.9787 26.6616 50.6289C27.3853 50.243 28.0367 49.7002 28.8086 49.3986L28.483 49.5193C28.7966 49.4107 29.1222 49.3263 29.4358 49.2418C29.8942 49.1212 30.0992 48.7352 30.256 48.3131C30.5093 47.6497 30.5817 46.8054 30.5455 46.1178C30.5093 45.4303 30.449 44.5981 30.1475 43.9347C29.9786 43.5849 29.7495 43.0542 29.279 43.0542L29.3393 43.0662Z" fill="#A96DC0"/>
<path d="M60.0488 15.902C59.6508 17.5544 59.2045 19.2069 58.8788 20.8835C58.7341 21.6434 58.5894 22.3912 58.4446 23.1511C58.3722 23.5129 58.2999 23.8627 58.2396 24.2246C58.1069 25.0086 58.529 23.5974 58.2154 24.2487C58.0104 24.6588 57.9621 25.1533 57.8777 25.5996C57.5762 27.2159 57.3108 28.8322 57.0213 30.4485L56.8283 31.534C56.7801 31.7873 56.5509 33.0055 56.8042 31.9079C56.6354 32.6316 56.4062 33.3191 56.2856 34.0429L56.0443 35.3817C55.4774 38.5781 54.814 41.7624 54.2471 44.9587C54.1144 45.7307 53.9818 46.5027 53.8491 47.2746L53.6561 48.3722C53.6199 48.5532 53.632 48.9633 53.5355 49.108L53.6923 48.5532C53.5596 48.9874 53.4269 49.4095 53.3063 49.8438C52.9445 51.3997 52.7635 53.0281 52.4861 54.6082L52.2931 55.7058C52.269 55.8385 52.2569 56.3451 52.1725 56.4415C52.2087 56.4054 52.5344 55.3922 52.2811 56.1038C51.9071 57.1773 51.7503 58.2629 51.5574 59.3726C51.2799 61.0009 51.0146 62.6413 50.6889 64.2696C50.4597 65.4396 50.2909 66.6096 50.1099 67.7796L49.9531 68.7687C49.9169 69.022 49.8808 69.2632 49.8325 69.5165C49.6998 70.3729 50.0858 68.3224 49.8325 69.2391C49.531 70.3608 49.3742 71.4826 49.2415 72.6284C49.0003 74.6548 48.8435 76.9707 49.8566 78.8041C50.1702 79.3589 50.52 79.8775 51.1714 80.0223C52.7394 80.3841 53.3907 78.3216 53.7405 77.2119C54.0903 76.1022 54.3316 74.884 54.4522 73.7864V73.6657C54.4884 73.123 54.5004 72.5681 54.5245 72.0253V71.7841C54.4642 72.4354 54.4039 73.0747 54.3316 73.7261C54.4401 73.328 54.4763 72.9058 54.5487 72.5078C54.6934 71.6997 54.8381 70.8795 54.9708 70.0713C55.3086 68.0932 55.5739 66.091 55.8875 64.1008L56.2494 61.7487C56.3217 61.2904 56.2735 60.8562 56.3338 60.4099L56.563 58.9263L56.9851 56.2003C57.0816 55.5852 57.1781 54.9579 57.2746 54.3428C57.3832 53.6673 57.5159 52.7386 57.4194 52.1114C57.6727 53.8483 57.1419 54.584 57.3108 53.4744C57.6003 51.653 57.8777 49.8196 58.1551 47.9983C58.2758 47.1902 58.4326 46.37 58.517 45.5618C58.529 45.393 58.5411 45.2362 58.5532 45.0673C58.5532 44.8984 58.5773 44.7416 58.5894 44.5728L58.4808 45.2603C58.6135 44.3436 58.7582 43.4269 58.903 42.5102C59.2889 39.9893 59.7835 37.4563 59.7835 34.8992L59.6146 37.2272C60.1333 33.7775 60.8932 30.2796 60.9293 26.7817L60.7725 28.9166C61.2188 25.6237 61.6289 22.3429 61.9425 19.038C62.0511 17.9404 61.9787 16.3362 61.3394 15.3712C60.8087 14.5872 60.1694 15.1783 60.0006 15.914L60.0488 15.902Z" fill="#A96DC0"/>
<path d="M82.8093 36.542C82.363 36.7711 81.9167 37.0003 81.4704 37.2295C81.0241 37.4587 80.5899 37.8085 80.1557 38.0979C79.3234 38.6769 78.4912 39.2559 77.6589 39.8348C75.9461 41.0289 74.2695 42.2713 72.605 43.5137C69.2036 46.0466 65.8022 48.5796 62.3767 51.0764C61.4117 51.776 60.4709 52.4997 59.4939 53.1872C58.5169 53.8747 57.5881 54.6829 56.6232 55.4186C56.008 55.889 55.6944 56.5766 55.4532 57.3003C55.1275 58.3014 54.9828 59.3869 55.031 60.4363C55.0672 61.3168 55.1878 62.1853 55.417 63.0296C55.5376 63.5483 55.7547 64.0307 56.0563 64.4649C56.2372 64.8389 56.5146 65.1404 56.8765 65.3696C60.7001 66.8532 64.5719 68.18 68.5161 69.3379C72.7136 70.5682 77.0076 71.5211 81.3136 72.293C81.591 72.3413 81.8805 72.4257 82.1579 72.4378C82.4354 72.4498 82.7128 72.4257 83.0023 72.4619C83.5692 72.5463 84.1361 72.6187 84.703 72.6911C85.2699 72.7634 85.7885 72.8237 86.3313 72.8841C86.4519 72.8961 86.5725 72.9082 86.6811 72.9202C86.9947 72.9564 87.1274 72.9564 87.4531 72.872C88.0079 72.7152 88.0079 72.7273 88.5266 72.2327C88.6713 72.1 88.816 71.9553 88.9487 71.8106C89.8292 70.93 90.0222 69.3258 89.9981 68.1679C89.986 67.4442 89.8654 66.7446 89.6362 66.0571C89.4553 65.5023 89.1658 65.0077 88.7799 64.5735C88.4301 64.1152 88.225 63.8619 87.7064 63.5121C87.3807 63.295 86.9103 63.2708 86.5243 63.1985C86.078 63.114 85.6197 63.0175 85.1734 62.9331C84.2688 62.7522 83.3762 62.5471 82.4715 62.3541L83.1952 62.5109C82.1338 62.0526 80.9156 61.9199 79.7818 61.6787C78.841 61.4736 77.9001 61.2686 76.9593 61.0515L77.683 61.2203L76.115 60.8464L76.8266 61.0153L75.9823 60.8102L76.694 60.9791C71.7486 59.785 66.8154 58.422 61.9907 56.8057C60.6156 56.3474 59.2527 55.877 57.8897 55.3704C57.9741 58.6874 58.0585 62.0044 58.1309 65.3213C58.9994 64.67 59.904 64.0548 60.7604 63.3915C61.6168 62.7281 62.4008 62.0767 63.233 61.4254C64.8976 60.0986 66.55 58.7477 68.2145 57.4209C71.5798 54.7311 74.9933 52.0655 78.2499 49.2309C79.1787 48.4107 80.1074 47.6026 81.0362 46.7824C81.4825 46.3964 81.9529 46.0105 82.3751 45.5883C82.8696 45.0938 83.3279 44.563 83.7983 44.0444C84.2687 43.5257 84.4979 42.9347 84.6427 42.2231C84.8357 41.2702 84.8598 40.1605 84.715 39.2076C84.6065 38.4477 84.4738 37.5069 83.9793 36.8918C83.6536 36.4817 83.3521 36.2525 82.8334 36.5299L82.8093 36.542Z" fill="#A96DC0"/>
</svg>
