<svg width="100" height="100" viewBox="0 0 100 100" fill="none" xmlns="http://www.w3.org/2000/svg">
<path d="M54.5117 38.1816C62.34 38.1817 66.837 45.7255 67.1983 55.2723C73.3995 56.0701 79.9505 57.464 87.4409 59.4676C88.9095 59.8605 90.2579 60.6238 91.3655 61.6709L99.763 69.6094C100.256 70.0757 99.9282 70.9089 99.2516 70.9089H9.83907C9.17549 70.9089 8.84156 70.1029 9.30851 69.6284L16.8854 61.929C18.0781 60.7169 19.5778 59.8509 21.2235 59.4428C29.0006 57.514 35.7508 56.1386 42.0478 55.3295C42.3768 45.7556 46.6677 38.1817 54.5117 38.1816ZM54.5568 44.3735C51.534 44.3735 49.0836 46.8399 49.0836 49.8823C49.0836 52.9247 51.534 55.3911 54.5568 55.3911C57.5795 55.3911 60.0298 52.9247 60.0299 49.8823C60.0299 46.8399 57.5795 44.3735 54.5568 44.3735Z" fill="#E6E6E6"/>
</svg>
