<svg width="100" height="100" viewBox="0 0 100 100" fill="none" xmlns="http://www.w3.org/2000/svg">
<path d="M71.7599 41.1597C67.9399 36.4097 62.5499 31.5797 55.9499 32.8397C49.8299 34.0097 47.9399 40.1397 48.0799 45.6197C48.0799 45.6797 48.0799 45.7297 48.0899 45.7897C44.9499 43.5597 41.1299 42.3597 37.2699 43.5397C31.9299 45.1697 29.7599 50.4097 30.0699 55.6497C30.3799 60.8197 32.5699 66.0397 35.8899 70.0097C39.6599 74.5197 45.0399 75.9297 50.7299 75.7197C54.1999 75.5897 57.6399 75.0497 61.1199 75.0697C64.9299 75.0797 68.5799 76.4997 72.3799 76.3197C72.6799 76.3097 72.9299 76.2097 73.1399 76.0697C74.0499 76.0697 74.9199 75.8497 75.7999 75.4697C76.3099 75.2497 76.5699 74.6497 76.6099 74.1297C76.6699 73.2897 76.5399 72.5197 76.3199 71.7497C76.3699 71.6497 76.4399 71.5697 76.4699 71.4597C76.9199 69.9897 76.7699 68.1597 76.8799 66.6397C77.0299 64.5597 77.1799 62.4897 77.3199 60.4097C77.5799 56.7397 77.7599 52.9897 76.5699 49.4397C75.5299 46.3697 73.7799 43.6497 71.7599 41.1297V41.1597Z" fill="#FF6177"/>
<path d="M60.4299 45.2791C60.2699 45.6091 60.2399 45.6891 60.3299 45.5291C60.3599 45.4691 60.3999 45.4191 60.4399 45.3591C60.4499 45.4291 60.0599 45.7391 60.3099 45.5291C60.3599 45.4791 60.3999 45.4391 60.4499 45.3891C60.5899 45.2691 60.5099 45.3291 60.2299 45.5391C60.3199 45.5291 60.4499 45.4091 60.5199 45.3691C60.8499 45.1591 60.5599 45.3991 60.3899 45.3991C60.4899 45.3991 60.6299 45.3191 60.7199 45.2891C60.8299 45.2591 60.9499 45.2291 61.0599 45.2091C61.2999 45.1591 61.5799 45.2291 60.9999 45.2091C61.2299 45.2191 61.4699 45.1891 61.6999 45.1991C61.8199 45.1991 61.9399 45.2191 62.0699 45.2291C62.5499 45.2791 62.0199 45.2891 61.9699 45.2091C62.0199 45.2891 62.5899 45.3491 62.7099 45.3891C62.9799 45.4691 63.2299 45.5691 63.4899 45.6691C63.7699 45.7691 62.9699 45.3991 63.4099 45.6391C63.5199 45.6991 63.6299 45.7591 63.7499 45.8191C63.9699 45.9391 64.1899 46.0791 64.3899 46.2191C64.4899 46.2891 64.5999 46.3691 64.6999 46.4391C64.3199 46.0791 65.1299 46.7491 64.6999 46.4391C64.8799 46.6191 65.0699 46.7791 65.2399 46.9691C65.2799 47.0191 65.7499 47.5191 65.7299 47.5491C65.7299 47.5491 65.4399 47.1291 65.6799 47.4991C65.7499 47.5991 65.8199 47.7091 65.8799 47.8191C66.0199 48.0591 66.1499 48.2991 66.2699 48.5591C66.4499 48.9591 66.2099 48.5091 66.2499 48.4791C66.2399 48.4791 66.3899 48.8891 66.3999 48.9091C66.7699 50.0791 67.9999 50.9991 69.2599 50.6191C70.4299 50.2691 71.3599 49.0191 70.9699 47.7591C69.9899 44.6191 67.6199 42.1891 64.5499 41.0491C63.0799 40.4991 61.4399 40.3491 59.8999 40.6591C58.0299 41.0391 56.6399 42.2091 55.9099 43.9491C55.4299 45.0891 56.3499 46.5991 57.4899 46.8791C58.8399 47.2191 59.9099 46.5191 60.4199 45.2991L60.4299 45.2791Z" fill="#FFB6B1"/>
</svg>
