<svg width="100" height="100" viewBox="0 0 100 100" fill="none" xmlns="http://www.w3.org/2000/svg">
<path d="M27.9705 19.5489L45.8116 26.3162C46.7544 26.6738 47.7993 26.6507 48.7253 26.2518L69.0824 17.4826C71.0028 16.6554 73.2334 17.4971 74.1285 19.3868L77.7417 27.0146C78.7018 29.0416 77.7502 31.4582 75.6658 32.2862L52.3486 41.5492C51.5797 41.8547 50.7333 41.9066 49.9328 41.6974L21.7232 34.3244C19.3038 33.6921 18.104 30.9713 19.2686 28.7584L23.1566 21.3713C24.0705 19.6349 26.1359 18.853 27.9705 19.5489Z" fill="#F7977D"/>
<rect x="16.9902" y="34.6406" width="66.7961" height="48.932" fill="#FBE29A"/>
<g filter="url(#filter0_d_4008_34618)">
<rect x="10" y="34.6406" width="80" height="14.7573" fill="#FBE29A"/>
</g>
<rect x="57.3784" y="34.6406" width="48.932" height="14.7573" transform="rotate(90 57.3784 34.6406)" fill="#F7977D"/>
<defs>
<filter id="filter0_d_4008_34618" x="6.8932" y="34.6406" width="86.2136" height="20.9714" filterUnits="userSpaceOnUse" color-interpolation-filters="sRGB">
<feFlood flood-opacity="0" result="BackgroundImageFix"/>
<feColorMatrix in="SourceAlpha" type="matrix" values="0 0 0 0 0 0 0 0 0 0 0 0 0 0 0 0 0 0 127 0" result="hardAlpha"/>
<feOffset dy="3.1068"/>
<feGaussianBlur stdDeviation="1.5534"/>
<feComposite in2="hardAlpha" operator="out"/>
<feColorMatrix type="matrix" values="0 0 0 0 0 0 0 0 0 0 0 0 0 0 0 0 0 0 0.04 0"/>
<feBlend mode="normal" in2="BackgroundImageFix" result="effect1_dropShadow_4008_34618"/>
<feBlend mode="normal" in="SourceGraphic" in2="effect1_dropShadow_4008_34618" result="shape"/>
</filter>
</defs>
</svg>
