<svg width="100" height="100" viewBox="0 0 100 100" fill="none" xmlns="http://www.w3.org/2000/svg">
<path d="M17.5117 5.52148H82.3783V95.4009H17.5117V5.52148Z" fill="white"/>
<path d="M21.2352 5.00017L22.0623 5.00294C22.358 5.00397 22.6532 5.03143 22.9479 5.08501L23.775 5.23548C24.0301 5.28189 24.2847 5.30362 24.5389 5.30094L25.366 5.29215C25.6302 5.28936 25.8945 5.27295 26.159 5.24297L26.9861 5.14934C27.2808 5.11593 27.5758 5.10799 27.8708 5.12572L28.6979 5.17555C28.9679 5.19178 29.2378 5.20095 29.5077 5.20324L30.3348 5.21024C30.6153 5.21262 30.8958 5.22095 31.1762 5.23532L32.0033 5.27766C32.2709 5.29136 32.5384 5.29531 32.806 5.28938L33.633 5.27114C33.9154 5.26489 34.1978 5.267 34.4802 5.27766L35.3072 5.30892C35.5754 5.31904 35.8435 5.32005 36.1117 5.31202L36.9388 5.28727C37.2067 5.27924 37.4747 5.2619 37.7427 5.23516L38.5698 5.15259C38.862 5.12344 39.1544 5.11625 39.4467 5.13094L40.2738 5.17246C40.5502 5.18635 40.8266 5.20111 41.103 5.21675L41.9301 5.26349C42.1827 5.27779 42.4355 5.26592 42.6888 5.22783L43.5159 5.10358C43.8214 5.05762 44.1276 5.05336 44.4335 5.0912L45.2606 5.19363C45.5174 5.2254 45.7739 5.23491 46.0304 5.22229L46.8574 5.18158C47.1355 5.1679 47.4135 5.15718 47.6915 5.14934L48.5186 5.12605C48.8121 5.11778 49.1056 5.13282 49.3986 5.17132L50.2257 5.2801C50.4874 5.31448 50.7488 5.3318 51.0101 5.33237L51.8372 5.33416C52.1009 5.33474 52.3646 5.32118 52.6285 5.29329L53.4556 5.20584C53.7377 5.17602 54.0199 5.15448 54.3022 5.14136L55.1293 5.10293C55.4274 5.08906 55.7254 5.10525 56.0228 5.15113L56.8499 5.27864C57.1003 5.31726 57.3502 5.32678 57.5999 5.30713L58.427 5.242C58.6981 5.22068 58.9692 5.19361 59.2403 5.1609L60.0673 5.06124C60.3591 5.02604 60.6512 5.01217 60.9433 5.01988L61.7704 5.0417C62.0645 5.04946 62.3582 5.08151 62.6514 5.13761L63.4784 5.2959C63.7198 5.34209 63.96 5.34955 64.2003 5.31869L65.0274 5.21252C65.3159 5.17549 65.6045 5.15545 65.8933 5.15227L66.7203 5.14315C66.9985 5.14008 67.2766 5.1401 67.5548 5.14315L68.3818 5.15211C68.6628 5.15518 68.9438 5.16487 69.2247 5.18125L70.0518 5.22962C70.3219 5.24537 70.5921 5.25412 70.8621 5.25616L71.6892 5.26251C71.953 5.2645 72.2169 5.25242 72.4809 5.22636L73.308 5.14478C73.6112 5.11485 73.9145 5.12252 74.2172 5.16774L75.0443 5.29134C75.285 5.3273 75.5253 5.32491 75.7663 5.28401L76.5934 5.14364C76.8963 5.09225 77.1999 5.07898 77.5037 5.10407L78.3308 5.1723C78.5855 5.19334 78.8403 5.19032 79.0952 5.16318L79.9223 5.07524C80.2234 5.04319 80.5246 5.04568 80.8256 5.0829L81.6526 5.18516C81.8278 5.20682 81.9984 5.25987 82.1402 5.36608C82.288 5.47682 82.3823 5.62912 82.4235 5.80511L82.5708 6.43304C82.6262 6.66933 82.6566 6.93503 82.6649 7.22723L82.6883 8.05431C82.6963 8.33504 82.6978 8.61581 82.6931 8.89654L82.6789 9.72362C82.6744 9.98642 82.6852 10.2493 82.7111 10.5123L82.7927 11.3394C82.8223 11.6398 82.8183 11.9404 82.7808 12.2405L82.6776 13.0676C82.6468 13.3141 82.6487 13.5604 82.6833 13.8071L82.7992 14.6342C82.8417 14.9371 82.8465 15.2405 82.8136 15.5437L82.7235 16.3708C82.6948 16.6351 82.6797 16.8993 82.6782 17.1635L82.6737 17.9906C82.6721 18.2759 82.6582 18.5614 82.6318 18.8466L82.5551 19.6737C82.533 19.9124 82.5501 20.1518 82.6074 20.393L82.8039 21.2201C82.8767 21.5263 82.9048 21.8342 82.8875 22.1429L82.8411 22.97C82.8259 23.2408 82.8167 23.5115 82.8136 23.7823L82.8039 24.6094C82.8007 24.8855 82.7969 25.1618 82.7925 25.4379L82.7797 26.265C82.7754 26.537 82.7755 26.809 82.7802 27.081L82.7945 27.9081C82.7992 28.1814 82.8068 28.4548 82.8173 28.7282L82.8489 29.5553C82.8599 29.8424 82.856 30.1297 82.8373 30.4169L82.7836 31.2439C82.7666 31.5057 82.7659 31.7674 82.7818 32.0292L82.832 32.8563C82.8502 33.1569 82.8347 33.4574 82.7857 33.7573L82.6506 34.5844C82.6104 34.8302 82.6039 35.0755 82.6313 35.3207L82.7238 36.1478C82.7575 36.4491 82.756 36.7507 82.7196 37.0519L82.6198 37.879C82.5897 38.1281 82.5898 38.3769 82.6199 38.626L82.7201 39.4531C82.754 39.7332 82.7822 40.0134 82.8046 40.2937L82.8707 41.1208C82.8955 41.4313 82.8719 41.7413 82.8007 42.0495L82.6097 42.8767C82.552 43.1263 82.5258 43.3745 82.5307 43.622L82.5471 44.4491C82.5525 44.7196 82.5642 44.9901 82.5823 45.2606L82.6375 46.0877C82.6571 46.3807 82.6539 46.6738 82.6278 46.9667L82.554 47.7938C82.5306 48.056 82.5232 48.3182 82.5318 48.5803L82.5589 49.4074C82.5679 49.6817 82.5785 49.956 82.591 50.2302L82.6284 51.0573C82.6408 51.3311 82.6555 51.6051 82.6725 51.8789L82.724 52.706C82.7418 52.9921 82.746 53.2783 82.7367 53.5645L82.71 54.3916C82.701 54.6707 82.6877 54.9498 82.6701 55.2289L82.618 56.056C82.6022 56.3064 82.6149 56.5571 82.6559 56.8083L82.7911 57.6354C82.84 57.9346 82.8564 58.2343 82.8401 58.5343L82.7953 59.3614C82.7801 59.6429 82.7574 59.9243 82.7274 60.2057L82.6393 61.0328C82.6129 61.281 82.6173 61.5291 82.6527 61.7777L82.7702 62.6048C82.8128 62.9038 82.8233 63.2034 82.8015 63.503L82.7414 64.3301C82.7224 64.5917 82.72 64.8533 82.7343 65.1148L82.7794 65.9419C82.7949 66.2277 82.7974 66.5135 82.787 66.7993L82.7569 67.6264C82.7472 67.8919 82.7497 68.1575 82.7644 68.423L82.8101 69.2501C82.8267 69.5498 82.8109 69.8493 82.7631 70.1482L82.6307 70.9753C82.593 71.2108 82.5983 71.446 82.647 71.6825L82.817 72.5096C82.8812 72.8221 82.8917 73.1361 82.8481 73.4498L82.7329 74.2769C82.6973 74.5329 82.6849 74.7886 82.6957 75.0441L82.8 77.5255C82.812 77.8119 82.8101 78.0984 82.7943 78.3848L82.7489 79.2119C82.7343 79.4778 82.7314 79.7438 82.7401 80.0097L82.7673 80.8368C82.7763 81.1109 82.7873 81.3851 82.8 81.6593L82.8385 82.4864C82.8517 82.7715 82.8529 83.0567 82.8419 83.3418L82.81 84.1689C82.7993 84.4453 82.7878 84.7217 82.7755 84.9981L82.7385 85.8252C82.7263 86.0983 82.7172 86.3715 82.7113 86.6446L82.6932 87.4717C82.6873 87.7443 82.6853 88.0169 82.687 88.2895L82.6922 89.1166C82.6939 89.3827 82.707 89.6489 82.7315 89.9152L82.8075 90.7422C82.8344 91.0346 82.8392 91.327 82.822 91.6195L82.7733 92.4466C82.757 92.7238 82.7387 93.001 82.7186 93.2782L82.6587 94.1053C82.636 94.4184 82.5602 94.7018 82.4133 94.9381L82.0811 95.4725C81.987 95.624 81.8515 95.7355 81.6824 95.7961C81.5196 95.8545 81.344 95.8593 81.1706 95.8344L80.3435 95.7155C80.0886 95.6788 79.8341 95.6666 79.5798 95.6787L78.7527 95.7183C78.4632 95.7321 78.1737 95.7279 77.8843 95.7057L77.0572 95.6424C76.7949 95.6223 76.5327 95.6181 76.2705 95.6298L75.4434 95.667C75.1676 95.6793 74.8918 95.6915 74.616 95.7036L73.7889 95.7399C73.5195 95.7517 73.25 95.771 72.9805 95.7981L72.1535 95.8809C71.8461 95.9117 71.5388 95.8988 71.2326 95.8424L70.4055 95.6898C70.1697 95.6463 69.9349 95.6462 69.6991 95.6894L68.872 95.8412C68.5724 95.8962 68.272 95.9179 67.9713 95.9059L67.1442 95.8726C66.8556 95.8611 66.5672 95.8328 66.279 95.7878L65.4519 95.6585C65.215 95.6215 64.9784 95.6263 64.7406 95.673L63.9136 95.8355C63.6085 95.8955 63.3024 95.9136 62.9959 95.8894L62.1688 95.8241C61.8919 95.8022 61.6149 95.7788 61.338 95.7538L60.5109 95.679C60.2505 95.6555 59.9902 95.65 59.7299 95.6626L58.9029 95.7026C58.6146 95.7166 58.3263 95.7142 58.0382 95.6956L57.2111 95.6422C56.9424 95.6249 56.6738 95.6161 56.4052 95.6158L55.5781 95.615C55.3167 95.6148 55.0551 95.6314 54.7933 95.6647L53.9662 95.7699C53.658 95.8091 53.3496 95.8028 53.0419 95.7512L52.2149 95.6124C51.9748 95.5721 51.7354 95.5711 51.4954 95.6093L50.6683 95.7412C50.3633 95.7899 50.0575 95.7973 49.7518 95.7632L48.9247 95.6709C48.6634 95.6418 48.4022 95.6299 48.1411 95.6351L47.3141 95.6513C47.047 95.6566 46.7798 95.6722 46.5125 95.6981L45.6855 95.7782C45.3931 95.8065 45.1004 95.8126 44.8079 95.7966L43.9808 95.7513C43.717 95.7369 43.4532 95.7365 43.1894 95.7503L42.3623 95.7937C42.0788 95.8085 41.7953 95.8134 41.5118 95.8083L40.6847 95.7935C40.4173 95.7887 40.1498 95.7939 39.8824 95.809L39.0553 95.8555C38.7504 95.8727 38.446 95.85 38.1427 95.788L37.3156 95.6188C37.0654 95.5676 36.8163 95.547 36.5677 95.5562L35.7406 95.587C35.4767 95.5968 35.2126 95.6205 34.9483 95.6583L34.1213 95.7767C33.826 95.819 33.5302 95.8346 33.2344 95.8236L32.4073 95.7928C32.1281 95.7824 31.8489 95.7675 31.5697 95.7482L30.7426 95.6911C30.4806 95.6729 30.2186 95.671 29.9567 95.6852L29.1296 95.7302C28.8414 95.7458 28.5531 95.7452 28.2649 95.7284L27.4378 95.68C27.1621 95.6639 26.8863 95.6477 26.6106 95.6315L25.7835 95.5828C25.5396 95.5685 25.2952 95.5887 25.0492 95.644L24.2221 95.8301C23.9072 95.901 23.5903 95.9137 23.2736 95.8674L22.4465 95.7466C22.1901 95.7091 21.9341 95.6944 21.6783 95.7026L20.8513 95.7292C20.5685 95.7382 20.2856 95.7383 20.0028 95.7293L19.1758 95.7033C18.8799 95.6939 18.6047 95.6578 18.3523 95.5926L17.6782 95.4183C17.499 95.3719 17.3373 95.2718 17.2322 95.1026C17.1317 94.9406 17.1067 94.7534 17.1181 94.5736L17.1705 93.7466C17.1877 93.4741 17.201 93.2016 17.2104 92.9291L17.2391 92.102C17.2487 91.8221 17.2636 91.5422 17.2838 91.2624L17.3436 90.4353C17.363 90.1674 17.3728 89.8996 17.3731 89.6318L17.3741 88.8047C17.3744 88.5407 17.3609 88.2767 17.3335 88.0125L17.2479 87.1854C17.2173 86.89 17.2131 86.5943 17.2355 86.2987L17.298 85.4716C17.3175 85.2135 17.3167 84.9555 17.2952 84.6973L17.2267 83.8702C17.2021 83.5734 17.2057 83.2765 17.2378 82.9798L17.327 82.1527C17.3534 81.9077 17.346 81.6627 17.3044 81.417L17.1642 80.5899C17.1156 80.3032 17.0819 80.0162 17.063 79.7291L17.0086 78.902C16.9887 78.5997 17.0049 78.2975 17.057 77.9961L17.2 77.169C17.243 76.9204 17.2547 76.6726 17.2352 76.425L17.1699 75.5979C17.1476 75.3152 17.1344 75.0323 17.1303 74.7495L17.1181 73.9224C17.1141 73.6519 17.1039 73.3813 17.0873 73.1108L17.0365 72.2837C17.0189 71.9978 17.0146 71.7118 17.0235 71.4259L17.049 70.5988C17.0574 70.3291 17.0586 70.0594 17.0523 69.7898L17.0331 68.9627C17.0265 68.6824 17.0257 68.402 17.0308 68.1217L17.0458 67.2947C17.0511 67.0019 17.0789 66.7093 17.129 66.4173L17.2708 65.5902C17.3135 65.3415 17.3248 65.0936 17.3052 64.8458L17.2397 64.0187C17.2164 63.7239 17.2185 63.4291 17.2461 63.1343L17.3232 62.3072C17.3462 62.0611 17.3367 61.8148 17.2941 61.5678L17.1513 60.7407C17.1005 60.446 17.0757 60.1508 17.0772 59.8553L17.0813 59.0282C17.0827 58.7437 17.0953 58.4593 17.1192 58.1749L17.1886 57.3478C17.2117 57.0721 17.2349 56.7963 17.2581 56.5206L17.3275 55.6935C17.3498 55.4285 17.3592 55.1637 17.3557 54.8988L17.3447 54.0717C17.3411 53.7991 17.3337 53.5264 17.3226 53.2538L17.2891 52.4267C17.2777 52.1475 17.2707 51.8684 17.268 51.5892L17.2604 50.7621C17.2578 50.4854 17.2565 50.2086 17.2565 49.9319V49.1048C17.2565 48.8268 17.2595 48.5486 17.2654 48.2706L17.283 47.4435C17.2887 47.1781 17.282 46.9127 17.2632 46.6472L17.2044 45.8201C17.1838 45.5308 17.1812 45.2414 17.1962 44.952L17.2392 44.1249C17.2537 43.8477 17.27 43.5705 17.2882 43.2933L17.3426 42.4662C17.3588 42.2202 17.3425 41.9737 17.2931 41.7262L17.1282 40.8991C17.0655 40.5849 17.0593 40.2692 17.1096 39.9541L17.2417 39.1271C17.2802 38.8856 17.2808 38.6448 17.2436 38.4034L17.1159 37.5763C17.0692 37.2731 17.0609 36.9693 17.091 36.6655L17.1731 35.8384C17.1991 35.577 17.2081 35.3157 17.2001 35.0545L17.1747 34.2272C17.1661 33.9442 17.1669 33.6611 17.1772 33.378L17.207 32.5509C17.2165 32.2862 17.2132 32.0214 17.1967 31.7566L17.1451 30.9295C17.1265 30.6318 17.1374 30.3342 17.1777 30.0369L17.2897 29.2099C17.3243 28.9541 17.3355 28.6986 17.3232 28.4434L17.2837 27.6163C17.2711 27.3536 17.2432 27.0907 17.1998 26.8276L17.0632 26.0005C17.0143 25.7043 16.9938 25.4074 17.0016 25.1103L17.0235 24.2832C17.0311 23.9926 17.0583 23.7023 17.1047 23.4123L17.2371 22.585C17.2763 22.3403 17.2807 22.0962 17.2503 21.8519L17.1474 21.0248C17.1113 20.7351 17.094 20.4451 17.0953 20.1551L17.0989 19.328C17.1001 19.0476 17.1073 18.7673 17.1203 18.4869L17.1586 17.6598C17.1714 17.3836 17.185 17.1073 17.1992 16.8311L17.2417 16.004C17.2559 15.7271 17.2716 15.4502 17.2889 15.1734L17.3405 14.3463C17.3558 14.1001 17.3388 13.8534 17.2889 13.6057L17.1225 12.7786C17.0581 12.4589 17.0588 12.138 17.1246 11.8184L17.2949 10.9914C17.3472 10.7373 17.3733 10.484 17.3734 10.2314L17.3739 9.40429C17.374 9.15209 17.3478 8.89926 17.2948 8.6456L17.1216 7.81851C17.0588 7.51805 17.0311 7.2165 17.0391 6.9144L17.0609 6.08732C17.0646 5.94737 17.0698 5.83322 17.0769 5.74828C17.0803 5.70641 17.0847 5.66561 17.0909 5.62973C17.0939 5.61196 17.0983 5.58993 17.1049 5.56687C17.1097 5.55008 17.1232 5.5045 17.1547 5.45727L17.1814 5.41722L17.2081 5.37732C17.2565 5.30481 17.3196 5.26963 17.3426 5.25747C17.373 5.24148 17.4017 5.23122 17.4221 5.22473C17.4636 5.21157 17.5092 5.20217 17.5517 5.19477C17.639 5.17959 17.7556 5.16601 17.8963 5.15357L18.7234 5.08045C19.0059 5.05548 19.2884 5.03928 19.571 5.03176L20.3981 5.00978C20.6771 5.00236 20.9562 4.9992 21.2352 5.00017ZM17.9235 49.9319C17.9235 50.2065 17.9247 50.4811 17.9272 50.7557L17.9351 51.583C17.9376 51.8552 17.9445 52.1274 17.9556 52.3997L17.9891 53.2267C18.0004 53.5055 18.0079 53.7842 18.0116 54.0629L18.0227 54.89C18.0265 55.1765 18.0163 55.463 17.9922 55.7494L17.9227 56.5766C17.8995 56.8522 17.8764 57.1279 17.8533 57.4035L17.7839 58.2306C17.7615 58.4976 17.7496 58.7646 17.7483 59.0315L17.7442 59.8586C17.7429 60.1144 17.7644 60.3706 17.8087 60.6273L17.9513 61.4544C18.0038 61.7588 18.016 62.064 17.9875 62.3693L17.9101 63.1964C17.8862 63.453 17.8843 63.7096 17.9046 63.9661L17.9701 64.7932C17.9941 65.0968 17.9801 65.4004 17.9282 65.703L17.7864 66.5301C17.7419 66.7894 17.7175 67.0483 17.7128 67.3069L17.6978 68.134C17.6929 68.405 17.6934 68.6761 17.6997 68.9472L17.7191 69.7743C17.7257 70.056 17.7244 70.3377 17.7157 70.6195L17.6901 71.4465C17.6819 71.7119 17.6859 71.9774 17.7022 72.2428L17.753 73.0699C17.7702 73.3508 17.781 73.6318 17.7851 73.9126L17.7971 74.7397C17.8011 75.0083 17.8137 75.2769 17.8349 75.5455L17.9 76.3726C17.924 76.6763 17.9096 76.9799 17.8572 77.2827L17.7142 78.1098C17.671 78.3598 17.6578 78.6092 17.6742 78.8582L17.7286 79.6853C17.7459 79.9495 17.7771 80.2139 17.8219 80.4785L17.9619 81.3056C18.0137 81.6113 18.0232 81.9178 17.9901 82.2242L17.9009 83.0513C17.8734 83.306 17.8701 83.5605 17.8912 83.815L17.96 84.6421C17.9843 84.9353 17.9854 85.2287 17.9632 85.522L17.9005 86.349C17.8812 86.6048 17.8848 86.8606 17.9113 87.1165L17.9969 87.9438C18.0267 88.2309 18.0414 88.5182 18.0411 88.8055L18.0401 89.6326C18.0398 89.9162 18.0295 90.1998 18.009 90.4833L17.9491 91.3104C17.9294 91.5819 17.915 91.8535 17.9056 92.125L17.8771 92.952C17.8675 93.2309 17.8539 93.5099 17.8362 93.7887L17.7838 94.6158C17.7777 94.7116 17.7958 94.7458 17.7989 94.7508C17.8001 94.7527 17.8011 94.754 17.8045 94.7563C17.8087 94.7593 17.8206 94.7662 17.8453 94.7726L18.5193 94.9469C18.7162 94.9977 18.9414 95.0285 19.1969 95.0366L20.024 95.0627C20.2926 95.0711 20.5612 95.0711 20.8298 95.0625L21.6569 95.0359C21.9524 95.0265 22.2479 95.0435 22.5429 95.0866L23.37 95.2074C23.6047 95.2417 23.8393 95.2326 24.0757 95.1794L24.9028 94.9933C25.2082 94.9246 25.5151 94.8988 25.8226 94.9169L26.6498 94.9656C26.9255 94.9818 27.2011 94.998 27.4767 95.0141L28.3038 95.0625C28.567 95.0779 28.8301 95.0784 29.0933 95.0641L29.9204 95.0192C30.2098 95.0034 30.4993 95.0057 30.7887 95.0257L31.6157 95.0828C31.8879 95.1017 32.1601 95.1162 32.4322 95.1263L33.2593 95.1571C33.5149 95.1666 33.7707 95.1532 34.0268 95.1166L34.8539 94.9982C35.141 94.9571 35.4284 94.931 35.7158 94.9203L36.5429 94.8895C36.8457 94.8783 37.1479 94.9037 37.4491 94.9653L38.2762 95.1345C38.5243 95.1852 38.7713 95.2034 39.0178 95.1895L39.8449 95.1429C40.1288 95.127 40.4128 95.1216 40.6967 95.1267L41.5238 95.1415C41.7917 95.1463 42.0596 95.1416 42.3275 95.1276L43.1545 95.0843C43.4421 95.0693 43.7297 95.0696 44.0173 95.0853L44.8444 95.1306C45.1032 95.1447 45.3621 95.1394 45.6211 95.1143L46.4482 95.0342C46.7324 95.0066 47.0166 94.9901 47.3009 94.9845L48.128 94.9682C48.4183 94.9625 48.7085 94.9758 48.9985 95.0081L49.8256 95.1003C50.0713 95.1277 50.317 95.1218 50.5633 95.0825L51.3904 94.9506C51.7018 94.901 52.014 94.9023 52.3253 94.9545L53.1523 95.0934C53.396 95.1343 53.6389 95.1392 53.882 95.1083L54.7091 95.0029C54.9988 94.966 55.2887 94.9477 55.5787 94.948L56.4058 94.9488C56.6886 94.9491 56.9713 94.9583 57.2541 94.9765L58.0811 95.0299C58.3443 95.0469 58.6075 95.049 58.8706 95.0363L59.6977 94.9964C59.9888 94.9823 60.2799 94.9883 60.5709 95.0146L61.3979 95.0894C61.6724 95.1142 61.9469 95.1374 62.2213 95.1591L63.0484 95.2245C63.2933 95.2439 63.5386 95.2295 63.7849 95.181L64.612 95.0185C64.9256 94.9569 65.2405 94.9504 65.5549 94.9995L66.382 95.1288C66.6451 95.1699 66.9082 95.1956 67.1709 95.2061L67.998 95.2393C68.2487 95.2494 68.4998 95.2315 68.7517 95.1853L69.5787 95.0335C69.8943 94.9756 70.2109 94.9756 70.5265 95.0338L71.3536 95.1864C71.5987 95.2316 71.8428 95.2416 72.0869 95.2172L72.9139 95.1345C73.1958 95.1062 73.4778 95.0858 73.7598 95.0734L74.5868 95.0373C74.8624 95.0252 75.138 95.013 75.4136 95.0006L76.2407 94.9635C76.5299 94.9505 76.819 94.9552 77.1082 94.9773L77.9352 95.0407C78.1972 95.0607 78.4591 95.0644 78.721 95.0519L79.548 95.0125C79.8451 94.9983 80.142 95.0127 80.4385 95.0553L81.2657 95.1742C81.3679 95.1889 81.4268 95.1791 81.4572 95.1682C81.4813 95.1595 81.4979 95.1472 81.5145 95.1205L81.8467 94.586C81.9213 94.466 81.9762 94.2954 81.9935 94.0571L82.0534 93.23C82.0733 92.9558 82.0913 92.6815 82.1075 92.4073L82.1562 91.5802C82.1714 91.3213 82.1671 91.0624 82.1433 90.8033L82.0672 89.9762C82.041 89.6911 82.0271 89.406 82.0252 89.1208L82.02 88.2937C82.0182 88.0149 82.0203 87.736 82.0264 87.4572L82.0444 86.6301C82.0505 86.3519 82.0597 86.0736 82.0721 85.7954L82.1091 84.9683C82.1214 84.6933 82.1328 84.4182 82.1435 84.1432L82.1754 83.3161C82.1856 83.0499 82.1847 82.7837 82.1723 82.5175L82.1337 81.6904C82.1208 81.4132 82.1097 81.1359 82.1006 80.8588L82.0734 80.0317C82.064 79.7462 82.0672 79.4607 82.0829 79.1753L82.1283 78.3482C82.1429 78.0832 82.1448 77.8183 82.1337 77.5533L82.099 76.7263C82.0875 76.4506 82.076 76.175 82.0643 75.8993L82.0293 75.0721C82.0168 74.7762 82.0312 74.4805 82.0723 74.1851L82.1874 73.358C82.2205 73.1204 82.2128 72.8828 82.1636 72.6439L81.9936 71.8168C81.9289 71.502 81.9216 71.1857 81.9721 70.8699L82.1045 70.0428C82.1449 69.7904 82.158 69.5385 82.1441 69.2869L82.0985 68.4598C82.0827 68.174 82.0799 67.888 82.0904 67.6021L82.1205 66.775C82.1302 66.5094 82.1278 66.2439 82.1133 65.9782L82.0682 65.1511C82.0524 64.8613 82.0551 64.5715 82.0762 64.2817L82.1363 63.4546C82.1546 63.2029 82.1458 62.951 82.1099 62.6987L81.9923 61.8716C81.9493 61.5688 81.9438 61.2655 81.9761 60.9623L82.0641 60.1352C82.0929 59.8652 82.1146 59.5952 82.1293 59.3252L82.1741 58.4982C82.1877 58.2468 82.1741 57.9952 82.1329 57.7431L81.9975 56.9158C81.9485 56.6157 81.9333 56.3149 81.9523 56.014L82.0044 55.1869C82.0215 54.9146 82.0345 54.6423 82.0433 54.3701L82.0702 53.543C82.0788 53.2778 82.0748 53.0126 82.0583 52.7473L82.0068 51.9202C81.9896 51.6427 81.9746 51.365 81.962 51.0875L81.9246 50.2604C81.9121 49.9833 81.9013 49.7063 81.8922 49.4292L81.8652 48.6021C81.8557 48.3129 81.8638 48.0236 81.8896 47.7345L81.9633 46.9074C81.9864 46.6489 81.9894 46.3905 81.9721 46.1321L81.9168 45.305C81.898 45.0241 81.8859 44.7432 81.8803 44.4623L81.8639 43.6352C81.8578 43.3313 81.89 43.0282 81.9598 42.7264L82.1508 41.8993C82.207 41.6562 82.2251 41.4147 82.2058 41.1738L82.1397 40.3468C82.118 40.0757 82.0908 39.8045 82.058 39.5334L81.9578 38.7063C81.9212 38.404 81.9211 38.1014 81.9576 37.7991L82.0575 36.972C82.0877 36.7218 82.0888 36.4718 82.0609 36.2218L81.9686 35.3947C81.9344 35.0886 81.9423 34.7824 81.9922 34.4769L82.1273 33.6498C82.1684 33.3983 82.1813 33.1473 82.1661 32.8966L82.1159 32.0696C82.0984 31.7799 82.099 31.4902 82.1179 31.2006L82.1718 30.3735C82.189 30.1093 82.1925 29.845 82.1824 29.5808L82.1508 28.7537C82.1401 28.4757 82.1324 28.1977 82.1277 27.9196L82.1133 27.0926C82.1085 26.8132 82.1083 26.5339 82.1127 26.2546L82.1257 25.4275C82.13 25.1522 82.1337 24.8769 82.1369 24.6017L82.1465 23.7746C82.1498 23.494 82.1593 23.2133 82.175 22.9327L82.2215 22.1056C82.2351 21.8629 82.2133 21.6195 82.155 21.3743L81.9585 20.5472C81.8848 20.2371 81.8619 19.9248 81.8909 19.6122L81.9676 18.7851C81.9922 18.519 82.0052 18.253 82.0067 17.987L82.0112 17.1599C82.0128 16.8727 82.0292 16.5856 82.0604 16.2986L82.1505 15.4715C82.1774 15.2233 82.1735 14.9752 82.1387 14.7267L82.0228 13.8996C81.9801 13.5949 81.9777 13.2897 82.0158 12.9849L82.119 12.1578C82.1504 11.9066 82.1535 11.6558 82.1288 11.4048L82.0472 10.5777C82.0188 10.2893 82.0071 10.0008 82.012 9.71222L82.026 8.88514C82.0307 8.6145 82.0292 8.34384 82.0215 8.0732L81.998 7.24612C81.9907 6.98694 81.9642 6.76757 81.9215 6.5853L81.7741 5.95737C81.7663 5.92412 81.7549 5.91083 81.7402 5.89988C81.7196 5.88444 81.6712 5.85955 81.5707 5.84712L80.7436 5.74486C80.4932 5.71389 80.2431 5.71186 79.9928 5.73851L79.1657 5.82644C78.8692 5.858 78.5725 5.86152 78.2759 5.83703L77.4488 5.7688C77.2012 5.74835 76.9535 5.75904 76.705 5.8012L75.8779 5.94157C75.5676 5.99423 75.2564 5.99742 74.9458 5.95102L74.1187 5.82742C73.87 5.79026 73.6217 5.78403 73.3735 5.80853L72.5464 5.89011C72.2591 5.91847 71.9716 5.93169 71.6841 5.92952L70.8571 5.92317C70.5757 5.92105 70.2943 5.91189 70.013 5.89549L69.186 5.84712C68.9155 5.83135 68.6451 5.82208 68.3747 5.81911L67.5476 5.80999C67.2743 5.807 67.0009 5.80698 66.7277 5.80999L65.9006 5.81911C65.638 5.82201 65.3753 5.84041 65.1124 5.87416L64.2853 5.98033C63.9743 6.02026 63.6631 6.01035 63.3531 5.95102L62.526 5.79273C62.2678 5.74331 62.01 5.71533 61.7528 5.70854L60.9257 5.68672C60.6664 5.67988 60.4069 5.69204 60.1473 5.72336L59.3202 5.82319C59.04 5.857 58.7596 5.88484 58.4793 5.90689L57.6522 5.97202C57.3506 5.99575 57.049 5.98425 56.7481 5.93783L55.921 5.81032C55.667 5.77114 55.4135 5.75751 55.1602 5.76928L54.3331 5.80772C54.064 5.82023 53.7949 5.84066 53.5257 5.86911L52.6985 5.95655C52.411 5.98694 52.1234 6.0018 51.8358 6.00117L51.0087 5.99938C50.7186 5.99875 50.4285 5.97948 50.1388 5.94141L49.3117 5.83263C49.0534 5.7987 48.7954 5.78547 48.5375 5.79273L47.7104 5.81602C47.4371 5.82373 47.1637 5.83432 46.8903 5.84777L46.0633 5.88849C45.7683 5.903 45.4733 5.89204 45.1787 5.85559L44.3516 5.75316C44.1061 5.7228 43.8609 5.72613 43.6151 5.7631L42.788 5.88751C42.4899 5.93234 42.1913 5.94643 41.8925 5.92952L41.0654 5.88262C40.7904 5.86706 40.5154 5.85247 40.2404 5.83866L39.4134 5.79697C39.1544 5.78395 38.8953 5.79048 38.6361 5.81635L37.809 5.89874C37.5257 5.92702 37.2423 5.94546 36.9588 5.95395L36.1317 5.9787C35.8485 5.98718 35.5652 5.98613 35.282 5.97544L34.4549 5.94418C34.1859 5.93403 33.9169 5.93203 33.6479 5.93799L32.8208 5.95623C32.5369 5.96252 32.2529 5.95839 31.9691 5.94385L31.142 5.90151C30.8711 5.88764 30.6002 5.87954 30.3293 5.87725L29.5022 5.87025C29.2207 5.86786 28.9392 5.85818 28.6578 5.84126L27.8308 5.79159C27.5744 5.77618 27.318 5.78302 27.0613 5.81211L26.2342 5.90575C25.9473 5.93827 25.6601 5.95613 25.373 5.95916L24.5459 5.96795C24.2487 5.97108 23.9518 5.9456 23.6556 5.89174L22.8285 5.74127C22.5718 5.6946 22.3158 5.67085 22.0601 5.66995L21.233 5.66718C20.9606 5.66623 20.6882 5.66938 20.4158 5.67663L19.5887 5.69861C19.3199 5.70576 19.0511 5.72108 18.7822 5.74486L17.9551 5.81797C17.866 5.82585 17.7946 5.83364 17.7392 5.84094C17.7348 5.90527 17.7307 5.9927 17.7278 6.10491L17.7059 6.93199C17.6994 7.18122 17.722 7.43103 17.7745 7.68189L17.9476 8.50897C18.0099 8.80669 18.0411 9.10542 18.0409 9.40461L18.0404 10.2317C18.0403 10.5304 18.0095 10.8286 17.9482 11.1259L17.7779 11.953C17.7302 12.1848 17.7296 12.4153 17.7763 12.647L17.9429 13.4741C18.004 13.7777 18.0252 14.0825 18.0062 14.3876L17.9546 15.2147C17.9375 15.4892 17.922 15.7637 17.9079 16.0382L17.8654 16.8653C17.8512 17.1405 17.8377 17.4156 17.825 17.6908L17.7865 18.5178C17.774 18.7889 17.7671 19.0599 17.7659 19.3309L17.7623 20.158C17.7611 20.4193 17.7768 20.6808 17.8093 20.9424L17.9123 21.7697C17.9504 22.0767 17.9449 22.384 17.8958 22.6906L17.7633 23.5176C17.7214 23.779 17.6972 24.0401 17.6903 24.3009L17.6683 25.128C17.6616 25.3823 17.6793 25.6368 17.7214 25.8919L17.8579 26.719C17.9054 27.0072 17.9361 27.2958 17.9499 27.5845L17.9894 28.4116C18.0036 28.7077 17.9907 29.0037 17.9507 29.2993L17.8387 30.1265C17.8042 30.3806 17.795 30.6343 17.8108 30.888L17.8624 31.7151C17.8803 32.0017 17.884 32.2884 17.8737 32.575L17.8437 33.4021C17.834 33.6704 17.8332 33.9386 17.8414 34.2069L17.8668 35.034C17.8757 35.3241 17.8656 35.6143 17.8369 35.9042L17.7548 36.7313C17.7302 36.9789 17.737 37.2265 17.7753 37.4747L17.9028 38.3018C17.9506 38.6118 17.9497 38.9223 17.9002 39.2323L17.7683 40.0593C17.7306 40.2957 17.735 40.5315 17.7823 40.7687L17.9473 41.5958C18.0078 41.8996 18.0282 42.2046 18.0082 42.51L17.9538 43.3371C17.9358 43.6112 17.9197 43.8854 17.9054 44.1596L17.8623 44.9867C17.8486 45.2487 17.8511 45.5107 17.8698 45.7727L17.9285 46.5998C17.9489 46.8857 17.956 47.1717 17.9499 47.4577L17.9323 48.2848C17.9264 48.5581 17.9235 48.8315 17.9235 49.1048V49.9319Z" fill="#C5C5C5"/>
<path d="M23.3486 12.1914H75.7088V75.3905H23.3486V12.1914Z" fill="#C9C9C9"/>
</svg>
