<svg width="100" height="100" viewBox="0 0 100 100" fill="none" xmlns="http://www.w3.org/2000/svg">
<path d="M55.8299 65.6723C55.5868 62.9981 55.8299 60.3238 56.4512 57.7035C57.4507 53.4085 59.3416 49.4105 61.2055 45.4126C62.7452 42.1441 64.339 38.6594 63.9608 35.0397C63.5016 30.3664 59.6117 26.4225 55.0736 25.2069C50.5354 23.9914 45.565 25.234 41.6481 27.8542C37.8933 30.3664 35.03 34.3103 34.0305 38.7404C33.7874 39.848 33.6523 40.9825 33.6793 42.117C33.6793 42.7113 34.1656 44.2241 33.8144 44.6563C33.1661 45.4667 31.1671 44.3051 30.4108 44.2511C27.0071 43.9539 23.5495 43.8189 20.2539 44.6833C16.9583 45.5477 13.8248 47.4926 12.204 50.4911C10.3401 53.9217 10.7453 58.2978 12.6632 61.7014C14.5812 65.1051 17.8497 67.5902 21.3884 69.238C26.0076 71.3721 31.2481 72.2095 36.2996 71.6152C39.0819 71.291 41.7832 70.5347 44.5655 70.1025C46.8616 69.7513 49.1847 69.6432 51.5079 69.7513C52.6424 69.8053 53.858 69.8593 54.9655 70.1025C55.7219 70.2645 56.4242 70.6967 57.1806 70.8048C56.8294 69.076 55.965 67.4552 55.8029 65.6723H55.8299Z" fill="#FFA8A2"/>
<path d="M84.8685 59.3797C82.0592 59.1366 79.8441 61.6488 78.1693 63.9449C77.4129 60.9464 76.2244 57.4618 73.253 56.5974C70.6327 55.841 67.7423 57.84 66.8779 60.4332C66.0135 63.0264 66.8779 65.9709 68.4716 68.2129C70.0384 70.455 72.2535 72.1568 74.4415 73.8046L75.7381 74.588C77.0888 72.0758 80.5194 71.9677 83.2207 71.1033C85.868 70.2659 88.2992 68.2399 88.8664 65.5387C89.4607 62.8374 87.5968 59.6228 84.8415 59.3797H84.8685Z" fill="#FFA8A2"/>
<path d="M35.0852 45.0079C32.519 34.662 42.973 24.0729 53.319 25.6667C58.0462 26.396 62.3413 30.1508 62.9626 35.0131C63.3678 38.0656 62.2062 41.064 60.9636 43.7653C59.721 46.4666 58.3434 49.276 57.2358 52.1123C54.9127 58.0822 53.6161 64.8084 56.0203 70.9404C56.3714 71.8588 58.3434 71.3185 57.9652 70.4271C55.426 63.998 57.1008 57.1367 59.667 51.0048C61.9361 45.5482 66.2852 39.4162 64.6374 33.2303C63.3138 28.2329 58.5595 24.7482 53.5891 24.1269C48.0514 23.4246 42.3247 25.6937 38.3538 29.5295C34.1128 33.6355 31.6546 39.6864 33.1133 45.5482C33.3564 46.4936 35.3013 45.9804 35.0582 45.0349L35.0852 45.0079Z" fill="#FF646B"/>
<path d="M34.3823 45.251C33.761 44.3055 32.7075 43.9814 31.654 43.8193C30.1953 43.6032 28.6825 43.5492 27.2238 43.5221C24.2524 43.4681 21.254 43.7382 18.4716 44.7647C13.4472 46.6016 9.71945 50.7886 10.0166 56.3533C10.3137 61.918 14.4737 66.4021 19.255 68.9954C24.5225 71.8317 30.7355 72.8312 36.6243 72.0208C40.5142 71.5076 44.269 70.346 48.2129 70.2109C52.1568 70.0759 56.0467 70.6431 59.7744 71.8317C60.2066 71.9668 60.7739 71.8857 61.1521 71.6426C61.3412 71.5076 61.8004 71.1024 61.3412 70.9403C55.9656 69.2385 50.2929 68.7522 44.7282 69.5896C41.6758 70.0489 38.7043 70.9133 35.6249 71.1834C32.8155 71.4265 29.9792 71.1834 27.2238 70.5351C22.1994 69.3465 17.121 66.6452 14.1766 62.2961C11.2322 57.9471 11.0431 51.518 15.2301 47.8172C17.6072 45.7102 20.6867 44.8188 23.7932 44.6027C25.387 44.4946 26.9807 44.5486 28.5745 44.6567C29.9792 44.7647 31.708 44.7107 32.5724 46.0073C32.8966 46.4936 34.7875 45.8723 34.4093 45.278L34.3823 45.251Z" fill="#FF646B"/>
<path d="M75.1985 73.2641C71.6868 70.5898 67.3918 67.2132 67.5539 62.2968C67.6079 60.4059 68.4993 58.542 70.2281 57.6506C71.7949 56.8132 73.5237 57.2724 74.6853 58.569C76.0899 60.1358 76.6842 62.2428 77.1975 64.2147C77.3866 64.9441 78.6562 64.728 79.0073 64.2418C80.1689 62.648 81.7086 60.514 83.8156 60.1358C85.7065 59.8116 87.2463 61.4324 87.7865 63.1072C88.4349 65.1332 87.6515 67.1862 86.1658 68.6179C84.6801 70.0495 82.6541 70.5628 80.6281 71.049C78.386 71.5893 76.0359 72.3456 74.8473 74.4797C74.6042 74.9119 75.0635 75.263 75.4416 75.3171C75.9279 75.3711 76.4681 75.155 76.7112 74.7228C77.7377 72.8859 80.2499 72.6158 82.0868 72.1565C84.518 71.5623 86.8411 70.5088 88.4348 68.5098C89.8935 66.6729 90.4878 64.2418 89.5424 62.0267C88.5969 59.8116 86.571 58.407 84.1938 58.6501C81.1954 58.9202 79.0614 61.3784 77.3866 63.6475H79.1964C78.6832 61.6215 78.0349 59.4335 76.6302 57.7857C75.1445 56.0568 72.8484 55.3005 70.6333 55.9488C68.4183 56.5971 66.5274 58.407 65.9061 60.676C65.2037 63.1612 65.9061 65.8085 67.2027 67.9695C68.7964 70.6168 71.3357 72.5347 73.7398 74.3986C74.4422 74.9389 76.144 73.9394 75.2525 73.2641H75.1985Z" fill="#FF646B"/>
</svg>
