<svg width="100" height="100" viewBox="0 0 100 100" fill="none" xmlns="http://www.w3.org/2000/svg">
<path d="M35.8131 77.9023C27.7997 70.6368 19.813 63.3713 11.7996 56.1058L10.8379 57.7886C18.1569 59.0708 25.5025 60.3262 32.8214 61.6084C33.4358 61.7152 34.1303 61.3412 34.0769 60.6467C33.6495 50.0156 33.2221 39.4112 32.7947 28.78L30.9249 29.2876C36.2939 37.7016 41.6896 46.089 47.0586 54.5031C47.4593 55.1442 48.3675 55.1442 48.7949 54.5031C55.4727 43.8453 62.1773 33.1607 68.8551 22.5028L67.0121 21.7282C65.5162 30.9971 65.2224 40.4262 66.1573 49.7752C66.2374 50.443 66.9853 51.1375 67.6531 50.63C74.9453 45.261 82.2376 39.892 89.5031 34.523L88.0339 33.4011C84.0005 45.0206 81.0623 57.014 79.2993 69.1944C79.1123 70.4498 81.0355 71.0108 81.2225 69.7286C82.9855 57.5482 85.9237 45.5548 89.9572 33.9353C90.2243 33.1607 89.1825 32.2792 88.488 32.8135C81.1958 38.1825 73.9036 43.5514 66.6381 48.9204L68.1339 49.7752C67.199 40.6132 67.4394 31.3443 68.9086 22.2624C69.0688 21.194 67.7066 20.4728 67.0655 21.4878C60.3876 32.1457 53.6831 42.8302 47.0052 53.4881H48.7414C43.3725 45.074 37.9767 36.6866 32.6077 28.2725C32.1002 27.4712 30.7112 27.7383 30.7379 28.78C31.1653 39.4112 31.5927 50.0156 32.0201 60.6467L33.2755 59.6851C25.9566 58.403 18.611 57.1475 11.292 55.8654C10.3839 55.7051 9.50237 56.8003 10.3304 57.5482C18.3439 64.8137 26.3306 72.0792 34.344 79.3447C35.3056 80.1995 36.7213 78.7838 35.7597 77.929L35.8131 77.9023Z" fill="#42A7D4"/>
</svg>
