<svg width="100" height="100" viewBox="0 0 100 100" fill="none" xmlns="http://www.w3.org/2000/svg">
<path d="M44.2661 64.6385C42.8793 62.5833 39.6379 62.2492 37.6997 63.8031C35.7615 65.357 35.277 68.3311 36.3797 70.5533C37.4825 72.7755 39.9553 74.1623 42.4282 74.2459C47.257 74.4297 51.5343 69.3837 50.5653 64.6552C49.8802 61.2801 47.0732 58.6735 43.9654 57.1865C40.8576 55.6994 37.4157 55.0812 34.0907 54.1957C28.226 52.6251 22.6286 50.1021 17.5492 46.7771C16.5968 46.1589 15.5943 45.4738 14.4582 45.4905C12.5534 45.4905 11.2 47.4454 10.7823 49.3001C9.72965 54.0286 13.0881 59.3085 17.8166 60.3611C15.444 60.2609 13.3387 62.5833 13.4055 64.9559C13.4724 67.3286 15.4105 69.4505 17.733 69.9852C20.0555 70.5199 22.5785 69.651 24.2995 67.9969C21.2418 69.8682 22.1775 75.2484 25.4858 76.6018C28.7941 77.9552 32.8208 75.6995 34.1742 72.3745" fill="white"/>
<path d="M44.817 64.3205C43.0459 61.7975 39.1529 61.5135 36.9473 63.6354C34.5413 65.9412 34.7084 69.9178 36.8471 72.3239C39.1194 74.8636 42.9123 75.5152 45.9699 74.1284C48.8104 72.8418 50.9156 69.9847 51.2832 66.8936C51.7009 63.4349 49.6291 60.3104 46.9891 58.2887C43.7978 55.8326 39.7711 54.9637 35.9448 54.0113C32.1186 53.059 28.0417 51.6889 24.3324 49.8843C22.4945 48.9988 20.7234 48.013 19.0024 46.9269C17.4318 45.9411 15.7609 44.5042 13.7726 44.9219C12.1853 45.2561 11.0826 46.7097 10.5145 48.1467C9.94638 49.5836 9.87955 51.2711 10.1636 52.825C10.715 55.8827 12.7701 58.7398 15.5437 60.1601C16.2288 60.5109 16.9472 60.7783 17.6824 60.9454L17.8495 59.7089C14.6916 59.6421 12.3357 62.8334 12.9038 65.8243C13.4719 68.8151 16.6966 71.0039 19.7543 70.7198C21.6423 70.5528 23.38 69.7006 24.7501 68.4141C25.2681 67.9295 24.5997 67.044 23.9982 67.4283C21.492 69.0156 21.3082 72.4742 22.7117 74.8636C24.4327 77.8043 28.1085 78.2053 30.9657 76.7182C32.7034 75.8159 34.0401 74.3122 34.7919 72.5077C34.9256 72.1902 34.6416 71.8226 34.3575 71.7391C33.9899 71.6388 33.7226 71.8727 33.5889 72.1735C32.5363 74.6631 29.7627 76.618 27.0058 76.3172C24.6165 76.0499 23.0626 73.861 23.096 71.5386C23.096 70.3356 23.5972 69.166 24.6499 68.5143L23.898 67.5285C21.4585 69.8009 17.3984 70.3523 15.1093 67.5619C14.1569 66.3923 13.7726 64.805 14.3741 63.3681C14.9756 61.9312 16.329 60.8952 17.8662 60.9287C18.568 60.9287 18.7351 59.8593 18.0333 59.6922C15.3432 59.074 13.1711 57.0857 12.0349 54.5794C10.8988 52.0732 10.7818 48.7816 12.7868 46.8267C13.2547 46.3756 13.8395 46.0581 14.4911 46.0581C15.3766 46.0581 16.1619 46.5593 16.8804 47.0272C18.4009 48.013 19.9381 48.9654 21.5254 49.8175C24.7167 51.5385 28.0584 52.9587 31.5171 54.0448C34.9757 55.1308 38.7686 55.7323 42.2439 57.069C45.1345 58.1718 47.9415 60.0431 49.345 62.9003C50.6149 65.4734 50.1638 68.4308 48.3759 70.653C46.5881 72.8752 43.8479 74.095 41.0743 73.3932C38.3007 72.6915 35.9281 70.0515 36.5296 66.9939C36.797 65.6906 37.5321 64.4709 38.7519 63.8526C39.8379 63.3013 41.2247 63.2846 42.3442 63.7858C42.8956 64.0364 43.3968 64.4207 43.7477 64.922C44.2155 65.5736 45.3016 64.9554 44.8337 64.2871L44.817 64.3205Z" fill="#42A7D4"/>
<path d="M65.1679 60.0603C65.9365 57.6042 69.863 57.3869 71.3835 59.4588C72.904 61.5307 72.1187 64.6886 70.1972 66.3928C67.4069 68.849 62.5948 68.4647 60.2556 65.5741C57.3316 61.9985 58.7351 56.4513 61.609 52.8422C64.4829 49.2332 68.5597 46.7603 71.6842 43.3518C75.3267 39.3752 77.5322 34.2457 78.8188 28.9992C78.9692 28.3643 79.1529 27.6792 79.6876 27.2949C80.6567 26.6099 81.9767 27.462 82.6952 28.4144C84.7336 31.1212 85.1346 34.797 84.483 38.122C83.8313 41.447 82.2607 44.5214 80.64 47.4788C81.5924 45.8414 83.6308 44.889 85.5022 45.2064C87.3735 45.5239 88.9775 47.0778 89.3451 48.9491C89.7628 51.1045 88.61 53.3268 86.9725 54.7637C85.3351 56.2006 83.2298 57.0194 81.1914 57.8214C82.645 56.1839 85.5857 58.4396 85.168 60.5783C84.7503 62.717 82.5281 63.9868 80.4562 64.6886C77.6993 65.6075 74.107 65.7412 72.4863 63.3352" fill="white"/>
<path d="M65.7693 60.2261C66.4544 58.2211 69.5288 58.2545 70.7485 59.6747C72.5363 61.7466 71.1495 65.105 69.0943 66.4083C67.0392 67.7115 64.0484 67.6614 61.9598 66.2913C59.5705 64.7207 58.9021 61.663 59.4034 58.9897C60.6398 52.3731 66.9222 48.998 71.3166 44.6037C73.6558 42.2645 75.4937 39.4741 76.8805 36.4833C77.5655 34.9963 78.1503 33.4591 78.6516 31.8885C78.9022 31.1032 79.1194 30.3012 79.3199 29.5159C79.4536 28.9478 79.5539 27.9453 80.2222 27.7281C80.8905 27.5109 81.609 28.1458 81.9933 28.5802C82.4946 29.1316 82.8789 29.8333 83.1796 30.5184C83.8145 31.9386 84.0986 33.5092 84.1153 35.0464C84.1654 38.5051 82.8621 41.7966 81.325 44.8376C80.924 45.6229 80.5063 46.3915 80.0885 47.1768C79.7042 47.8785 80.7569 48.4967 81.1746 47.8117C82.6616 45.3555 86.1704 45.1383 87.9415 47.394C89.9131 49.917 88.142 53.2085 85.8697 54.8293C84.3826 55.8986 82.6783 56.567 80.9908 57.2186L81.5923 58.2712C82.3275 57.4859 83.4469 58.1041 84.015 58.8059C84.8003 59.775 84.5998 60.9112 83.8647 61.8468C83.0292 62.9162 81.7093 63.5678 80.4561 64.0189C79.203 64.4701 77.883 64.7207 76.563 64.6706C75.2431 64.6205 73.8061 64.186 72.9874 63.0331C72.5196 62.3815 71.4335 62.9997 71.9014 63.6681C73.9231 66.5419 77.9833 66.2579 80.924 65.1885C82.5447 64.6037 84.1821 63.7182 85.1345 62.2144C86.0201 60.8276 85.9699 59.1902 84.8839 57.9203C83.7978 56.6505 81.9265 56.0824 80.69 57.3857C80.289 57.8034 80.69 58.6722 81.2915 58.4383C84.7168 57.1183 88.5597 55.4475 89.7461 51.6212C90.2473 49.9671 90.0134 48.1626 88.9775 46.7591C87.9415 45.3555 86.4043 44.5368 84.7168 44.5368C82.8287 44.5368 81.0409 45.5728 80.0551 47.1768L81.1412 47.8117C83.0292 44.3697 84.8505 40.7607 85.2682 36.8175C85.452 35.0798 85.335 33.2753 84.8672 31.5877C84.416 29.9837 83.614 28.2126 82.2773 27.16C81.6758 26.6921 80.9072 26.3413 80.1219 26.4582C79.2865 26.5752 78.7351 27.2101 78.4344 27.962C78.1169 28.7807 77.9665 29.6997 77.7159 30.5351C77.4486 31.4374 77.1645 32.3396 76.8471 33.2252C75.5772 36.7172 73.7727 40.0757 71.2497 42.8326C68.7268 45.5895 65.6357 47.7114 62.9957 50.318C60.5396 52.7574 58.568 55.6981 58.0834 59.1902C57.649 62.3147 58.6014 65.6397 61.3583 67.4108C63.7977 68.9814 67.2397 69.0649 69.6958 67.4943C72.152 65.9237 73.6725 62.3147 72.1353 59.5578C70.8654 57.2854 67.507 56.7173 65.5187 58.3715C65.0342 58.7725 64.7167 59.3071 64.5162 59.8919C64.2489 60.6605 65.4686 60.978 65.7192 60.2261H65.7693Z" fill="#42A7D4"/>
<path d="M31.4835 29.9354C32.9539 31.5895 34.5412 33.1267 36.2622 34.5469C36.7801 34.9646 37.2981 35.3823 37.8328 35.7833C38.1001 35.9838 38.5512 35.8335 38.6849 35.5661C38.852 35.232 38.735 34.9145 38.4677 34.714C38.3675 34.6305 38.2505 34.5469 38.1502 34.4801C38.1335 34.4634 38.1001 34.4467 38.0834 34.43C38.0166 34.3798 37.9664 34.3297 37.8996 34.2963C37.6824 34.1292 37.4652 33.9621 37.2647 33.7783C36.847 33.4274 36.4293 33.0766 36.0115 32.709C35.1928 31.9905 34.4075 31.2219 33.6389 30.4366C33.2045 29.9855 32.7868 29.5344 32.3691 29.0665C32.1519 28.8159 31.7008 28.8326 31.4835 29.0665C31.2496 29.3339 31.2496 29.6847 31.4835 29.9521V29.9354Z" fill="#42A7D4"/>
<path d="M46.204 25.1741L47.0729 29.2844L47.4906 31.3061L47.7078 32.3087L47.8247 32.86C47.8247 32.86 47.8582 33.0104 47.8749 33.094C47.8916 33.2109 47.8916 33.1942 47.8749 33.0773C47.8749 33.1441 47.8749 33.1107 47.8749 32.9603L48.042 32.6762C48.1422 32.6261 48.2258 32.576 48.326 32.5259C48.443 32.5259 48.5432 32.5259 48.6602 32.5259C48.727 32.5259 48.844 32.6094 48.8941 32.6595C48.8941 32.6595 49.0111 32.7932 48.9442 32.7264C48.9442 32.7264 48.9275 32.6762 48.9108 32.6762C48.9108 32.6762 48.9776 32.8433 48.9275 32.7097C48.9108 32.5927 48.9275 32.693 48.9275 32.7097C48.9275 32.8099 48.9609 32.6762 48.9275 32.7765C48.8941 32.8935 48.9776 32.7264 48.9108 32.8266C48.9108 32.8433 48.7938 32.977 48.8607 32.9102C49.1113 32.693 49.0946 32.2418 48.8607 32.0246C48.5933 31.7907 48.2425 31.7907 47.9751 32.0246C47.5073 32.4423 47.6075 33.3446 48.1422 33.662C48.5933 33.9294 49.128 33.5952 49.1447 33.094C49.1447 32.9269 49.0946 32.7598 49.0612 32.6094L48.9275 31.9912L47.9751 27.4465L47.4237 24.84C47.3569 24.5225 46.9559 24.3053 46.6552 24.4055C46.321 24.5225 46.1372 24.84 46.2207 25.1741H46.204Z" fill="#42A7D4"/>
<path d="M60.9243 23.6349C61.0079 26.3083 60.5568 28.8814 59.5542 31.371C59.4373 31.6717 59.6879 32.0727 59.9887 32.1396C60.3562 32.2231 60.6236 32.0226 60.7573 31.7051C61.7765 29.1487 62.261 26.3751 62.1608 23.6349C62.1608 23.3008 61.8767 23 61.5259 23C61.175 23 60.8909 23.2673 60.8909 23.6349H60.9243Z" fill="#42A7D4"/>
</svg>
