<svg width="100" height="100" viewBox="0 0 100 100" fill="none" xmlns="http://www.w3.org/2000/svg">
<path d="M12.0542 36.8532C18.4732 34.8501 25.1245 34.0422 31.8312 34.4295L30.1711 32.7695C30.4036 35.005 28.5111 37.4619 27.4708 39.3433C26.2976 41.4682 25.0692 43.5599 23.7854 45.6295C21.1846 49.835 18.3736 53.8966 15.3854 57.8366C14.4115 59.1203 16.0163 60.5037 17.2558 60.2713C24.6265 58.9322 32.0304 57.7369 39.4454 56.6634C40.3419 56.5306 40.8177 55.4128 40.6075 54.616C40.3529 53.6642 39.4454 53.3322 38.56 53.454C31.145 54.5275 23.7522 55.7338 16.3704 57.0618L18.2408 59.4966C21.4281 55.2911 24.4162 50.9417 27.1609 46.4374C28.5111 44.224 29.8059 41.9663 31.0454 39.6864C32.1854 37.5726 33.7348 35.2596 33.4802 32.7584C33.3806 31.8288 32.7941 31.1537 31.8201 31.0983C24.8368 30.6888 17.8313 31.5631 11.1578 33.6327C9.12143 34.2635 9.99573 37.473 12.0432 36.8311L12.0542 36.8532Z" fill="#6BB9DE"/>
<path d="M46.0962 49.2369C48.5088 49.093 50.9436 49.1484 53.3452 49.4693C54.463 49.6132 55.5697 49.8235 56.6653 50.078C57.6282 50.2993 59.0226 50.4432 59.8305 51.0187L59.2329 50.4211L59.2661 50.4985V49.6132C59.1222 50.3657 58.259 51.1626 57.7942 51.7602C57.2851 52.4242 56.7649 53.0661 56.2337 53.708C55.1381 55.0361 53.9981 56.342 52.814 57.6037C50.4124 60.1712 47.8669 62.5949 45.1776 64.8526C44.3033 65.5831 44.7017 66.9111 45.5096 67.4645C46.7492 68.2945 48.2211 68.3831 49.6709 68.3167C51.3088 68.2392 52.9468 68.1728 54.5847 68.2171C57.8938 68.2945 61.1807 68.6708 64.4234 69.3459C66.504 69.7775 67.4005 66.5791 65.3088 66.1475C62.1546 65.4945 58.9562 65.074 55.7357 64.9412C54.1973 64.8748 52.6701 64.8748 51.1317 64.9301C49.8701 64.9744 48.2986 65.3507 47.1808 64.6092L47.5128 67.221C52.6369 62.9048 57.2297 58.0131 61.2582 52.6566C62.2653 51.3175 63.2835 49.3808 61.4906 48.1634C60.2179 47.3001 58.2701 47.0345 56.7871 46.7246C53.2677 45.9942 49.6709 45.7175 46.0851 45.9278C43.9602 46.0496 43.9492 49.3697 46.0851 49.248L46.0962 49.2369Z" fill="#6BB9DE"/>
<path d="M68.1866 39.1233C71.4182 38.8909 74.6609 38.8245 77.8925 38.9573C79.3644 39.0126 80.8585 39.234 82.3194 39.2782C82.7178 39.2893 82.4411 39.4996 82.4522 39.2118C82.4743 38.5257 82.253 38.8577 81.9984 39.2118C81.6775 39.6766 81.3123 40.1193 80.947 40.5399C77.6933 44.3027 73.4214 47.2687 71.2965 51.9058C70.8317 52.913 71.3518 54.562 72.7352 54.407C77.9368 53.8315 83.1383 53.256 88.3399 52.6805C89.2363 52.5809 90 51.9833 90 51.0205C90 50.2015 89.2363 49.2608 88.3399 49.3604C83.1383 49.9359 77.9368 50.5114 72.7352 51.0869L74.1739 53.588C75.3913 50.9209 77.3834 48.8513 79.453 46.8371C81.5225 44.8229 83.7913 42.875 85.1968 40.4071C85.9937 39.0237 85.6838 37.3415 84.2672 36.5114C82.9391 35.7257 81.1684 35.8253 79.6854 35.7367C75.8562 35.5043 72.0159 35.5486 68.1977 35.8142C66.0839 35.9691 66.0617 39.2893 68.1977 39.1344L68.1866 39.1233Z" fill="#6BB9DE"/>
</svg>
