<svg width="100" height="100" viewBox="0 0 100 100" fill="none" xmlns="http://www.w3.org/2000/svg">
<path d="M41.7365 89.549L48.7801 48.0227L53.1821 49.0145L41.7365 89.549Z" fill="#D8D8D8"/>
<path d="M70.1098 20.6962C69.4394 23.9486 62.8117 25.3311 55.3064 23.7841C47.8011 22.2371 42.2603 18.3465 42.9307 15.0941C43.6011 11.8417 50.2288 10.4592 57.7341 12.0061C65.2394 13.5531 70.7802 17.4438 70.1098 20.6962Z" fill="#FF4545"/>
<path d="M69.6508 50.9601C68.9308 54.204 59.8513 55.1688 49.371 53.1148C38.8907 51.0609 30.9784 46.7661 31.6984 43.5221C32.4183 40.2782 41.4979 39.3135 51.9782 41.3674C62.4585 43.4213 70.3708 47.7161 69.6508 50.9601Z" fill="#FF4545"/>
<path d="M55.2129 20.9462L43.9545 14.5946C43.5646 14.3747 43.0736 14.5981 42.9832 15.0364L42.0041 19.7865C41.9657 19.9728 42.0079 20.1679 42.1312 20.3128C44.1563 22.6928 49.7096 25.2864 54.7445 26.3242C59.7787 27.3619 65.9213 27.1794 68.8447 25.8199C69.0231 25.7369 69.1458 25.5702 69.1855 25.3775L70.2107 20.4036C70.3008 19.9668 69.9408 19.5682 69.4971 19.6134L55.6043 21.0281C55.4685 21.0419 55.3318 21.0133 55.2129 20.9462Z" fill="#FF4545"/>
<path d="M49.1825 50.2964L32.7039 42.9163C32.3224 42.7455 31.8709 42.9699 31.7734 43.3789L29.8529 51.4322C29.7993 51.6567 29.8661 51.8913 30.0391 52.0401C32.9906 54.5786 40.8393 57.5639 47.8714 58.9421C54.9138 60.3223 63.4169 60.5373 67.3647 59.3467C67.5866 59.2797 67.7515 59.0957 67.8046 58.8725L69.7717 50.61C69.8708 50.1939 69.5524 49.8046 69.1227 49.8163L49.4706 50.3534C49.371 50.3562 49.2725 50.3367 49.1825 50.2964Z" fill="#FF4545"/>
<path d="M55.7328 17.9566L47.6157 20.6181C47.4393 20.6759 47.2954 20.8054 47.2192 20.9748L38.2503 40.9249C38.1767 41.0887 38.1711 41.2757 38.2461 41.4388C39.6535 44.4979 44.2457 47.7026 48.6266 48.8638C52.9897 50.0204 61.1307 49.5357 64.1473 47.6238C64.3252 47.5111 64.422 47.3096 64.4197 47.099L64.1575 23.4825C64.155 23.2614 64.0421 23.0563 63.8567 22.9359L56.2981 18.0301C56.1305 17.9214 55.9226 17.8943 55.7328 17.9566Z" fill="#FF4545"/>
</svg>
