<svg width="100" height="100" viewBox="0 0 100 100" fill="none" xmlns="http://www.w3.org/2000/svg">
<path d="M49.9704 36C56.8593 36 60.8166 42.6847 61.1346 51.1443C66.5916 51.8511 72.3565 53.0863 78.948 54.8617C80.2405 55.2099 81.427 55.8862 82.4018 56.8141L89.7915 63.8485C90.2254 64.2617 89.9369 65 89.3415 65H10.6585C10.0745 65 9.78065 64.2858 10.1916 63.8653L16.8592 57.0428C17.9088 55.9687 19.2286 55.2014 20.6768 54.8397C27.5206 53.1307 33.4608 51.9118 39.0022 51.1949C39.2917 42.7114 43.0676 36 49.9704 36ZM50.01 41.4867C47.35 41.4867 45.1936 43.6722 45.1936 46.3681C45.1936 49.064 47.35 51.2495 50.01 51.2495C52.67 51.2495 54.8263 49.064 54.8264 46.3681C54.8264 43.6722 52.67 41.4867 50.01 41.4867Z" fill="#E6E6E6"/>
</svg>
