<svg width="100" height="100" viewBox="0 0 100 100" fill="none" xmlns="http://www.w3.org/2000/svg">
<path d="M30.3791 75.5068C30.3791 75.5068 30.5527 75.6586 30.6394 75.7237C33.4379 77.6978 39.7289 76.3962 42.8744 76.1359C49.4691 75.5935 56.0855 75.3983 62.702 75.5502C64.8279 75.5935 68.9496 76.201 70.8152 74.9427C72.811 73.5978 73.6353 68.847 74.4163 66.5692C76.629 60.1046 78.5163 53.5316 81.1846 47.2405C74.8068 51.731 69.4919 55.831 62.1596 58.5427C61.4438 51.4924 61.3787 44.377 61.9427 37.3051C58.385 44.5289 53.7861 51.2538 48.3411 57.1977C45.868 53.8787 44.0458 50.0607 42.2236 46.3728C41.1389 44.1384 39.9892 41.904 39.0347 39.6262C38.8178 39.1056 36.7135 35.4828 36.7135 35.4395C36.6051 40.7326 35.8458 45.9606 35.0648 51.1887C34.6744 53.9004 34.2622 56.612 33.8717 59.3236C33.8066 59.7792 33.7199 60.2782 33.4379 60.6252C32.0495 62.3824 28.0146 58.8464 26.8648 57.8268C25.2595 56.3951 22.96 53.358 20.4653 53.8136C24.4135 60.148 26.2791 67.5237 29.5331 74.2052C29.75 74.6607 29.9886 75.1163 30.3357 75.4634L30.3791 75.5068Z" fill="#FFE557"/>
<path d="M19.9443 52.7305C24.2396 60.1062 27.602 68.0242 29.9666 76.2242L19.9443 52.7305Z" fill="#FFE557"/>
<path d="M19.2289 53.1404C23.4808 60.4727 26.8216 68.3039 29.1644 76.4389C29.4464 77.4368 31.03 77.0246 30.7263 76.005C28.3401 67.7399 24.9342 59.7568 20.6173 52.3161C20.0967 51.405 18.6866 52.2293 19.2072 53.1404H19.2289Z" fill="#FFB800"/>
<path d="M18.5336 52.4258C20.8765 54.4433 23.2627 56.3957 25.714 58.283C26.9506 59.2375 28.1871 60.1703 29.4453 61.0814C30.5299 61.8624 31.8315 62.7735 33.1982 62.101C34.1961 61.6237 34.6299 60.5174 34.8252 59.4978C35.0855 58.0227 35.2157 56.5041 35.3892 55.029C35.7797 51.8401 36.1702 48.6295 36.5606 45.4406C37.0162 41.7962 37.4501 38.1517 37.9056 34.5073L36.3871 34.9194C39.9231 42.7073 43.4591 50.4734 46.9951 58.2613C47.212 58.7169 47.9496 58.8036 48.275 58.4348C53.9369 51.8184 58.7311 44.4861 62.5274 36.6549L61.0089 36.2427C61.0306 43.7052 61.0739 51.1676 61.0956 58.6301C61.0956 59.3026 61.7681 59.5629 62.3105 59.3243C69.4041 56.2221 76.0422 52.1655 82.0946 47.3279L80.8147 46.3517C76.0205 55.7232 72.4412 65.7021 70.2502 75.9846C70.0332 77.0042 71.5951 77.4381 71.8121 76.4185C73.9814 66.2661 77.474 56.4174 82.2248 47.1761C82.6587 46.33 81.6608 45.6142 80.9449 46.1999C75.0227 50.9507 68.4496 54.8989 61.4861 57.9359L62.7009 58.6301C62.6792 51.1676 62.6359 43.7052 62.6142 36.2427C62.6142 35.4835 61.4644 35.0713 61.0956 35.8305C57.3644 43.5533 52.6787 50.7771 47.1035 57.2851L48.3834 57.4586C44.8474 49.6708 41.3114 41.9046 37.7755 34.1168C37.4067 33.2924 36.3437 33.8348 36.2569 34.5289C35.5411 40.2993 34.8469 46.0697 34.131 51.8401C33.9575 53.3153 33.7622 54.7687 33.5887 56.2438C33.4368 57.4153 33.4368 58.7385 33.0247 59.8666C32.8945 60.2354 32.6993 60.6259 32.2654 60.7126C31.6146 60.8211 30.9204 60.192 30.4432 59.8449C29.3151 59.0423 28.2088 58.1962 27.1241 57.3719C24.5643 55.4195 22.0913 53.3803 19.64 51.2978C18.859 50.6253 17.6876 51.7533 18.4902 52.4475L18.5336 52.4258Z" fill="#FFB800"/>
<path d="M29.9668 76.5742C43.3949 76.162 56.823 75.7499 70.251 75.3594L29.9668 76.5742Z" fill="#FFE557"/>
<path d="M29.967 77.3752C40.4231 77.0498 50.8792 76.7461 61.3136 76.4207L70.2295 76.1604C71.2708 76.1387 71.2708 74.5117 70.2295 74.5334C59.7734 74.8588 49.3173 75.1625 38.8829 75.4879L29.967 75.7482C28.9257 75.7699 28.9257 77.3969 29.967 77.3752Z" fill="#FFB800"/>
<path d="M12.1133 46.1336C10.508 45.1574 10.8551 42.2722 12.6339 41.6865C14.4128 41.1008 16.4085 43.1617 15.8011 44.9405C15.1937 46.7193 12.3953 47.1315 11.2673 45.6347C10.1392 44.1379 11.2673 41.5781 13.1329 41.3828" fill="#FFE557"/>
<path d="M12.5251 45.4181C12.5251 45.4181 12.3949 45.3313 12.3298 45.2879L12.5034 45.4181C12.3732 45.3096 12.2431 45.2012 12.1563 45.071L12.2865 45.2445C12.178 45.0927 12.0695 44.9191 12.0044 44.7456L12.0912 44.9408C12.0044 44.7239 11.9394 44.507 11.9177 44.29V44.507C11.9177 44.2467 11.9177 43.9863 11.9394 43.7477V43.9646C11.9394 43.7043 12.0261 43.444 12.1129 43.2054L12.0261 43.4006C12.1129 43.2054 12.2214 43.0101 12.3515 42.8366L12.2214 43.0101C12.3298 42.8583 12.46 42.7281 12.6119 42.6197L12.4383 42.7498C12.5685 42.6414 12.742 42.5546 12.8939 42.4895L12.6986 42.5763C12.8505 42.5112 13.024 42.4678 13.1976 42.4461H12.9806C13.1759 42.4461 13.3494 42.4461 13.5447 42.4678H13.3277C13.5447 42.4678 13.7616 42.5329 13.9568 42.6197L13.7616 42.5329C13.9785 42.6197 14.1955 42.7498 14.3907 42.9017L14.2172 42.7715C14.4124 42.9234 14.6076 43.1186 14.7595 43.3139L14.6293 43.1403C14.7812 43.3355 14.9113 43.5525 14.9981 43.7694L14.9113 43.5742C14.9981 43.7694 15.0632 43.9863 15.0849 44.2033V43.9863C15.0849 44.1816 15.0849 44.3768 15.0632 44.5721V44.3551C15.0632 44.5287 15.0198 44.7022 14.9547 44.8758L15.0415 44.6805C14.9764 44.8541 14.8679 45.0059 14.7595 45.1578L14.8896 44.9842C14.7595 45.1361 14.6293 45.2879 14.4775 45.3964L14.651 45.2662C14.4558 45.4181 14.2605 45.5266 14.0436 45.6133L14.2389 45.5266C14.0002 45.635 13.7399 45.7001 13.4796 45.7435H13.6965C13.4145 45.7435 13.1542 45.7435 12.8722 45.7218H13.0891C12.8505 45.7218 12.6336 45.6567 12.4166 45.5699L12.6119 45.6567C12.4383 45.5699 12.2648 45.4832 12.0912 45.353L12.2648 45.4832C12.1129 45.3747 11.9828 45.2445 11.8743 45.0927L12.0044 45.2662C11.896 45.1144 11.8092 44.9625 11.7224 44.789L11.8092 44.9842C11.7224 44.789 11.6791 44.5937 11.6357 44.3768V44.5938C11.6357 44.3551 11.6357 44.1165 11.6574 43.8779V44.0948C11.6574 43.8128 11.7441 43.5525 11.8526 43.2922L11.7658 43.4874C11.8743 43.2488 12.0045 43.0101 12.178 42.7932L12.0478 42.9668C12.1997 42.7715 12.3732 42.598 12.5468 42.4678L12.3732 42.598C12.5468 42.4678 12.7203 42.3593 12.9156 42.2726L12.7203 42.3593C12.8939 42.2943 13.0891 42.2292 13.2843 42.2075H13.0674C13.0674 42.2075 13.1108 42.2292 13.1325 42.2292C13.3494 42.2075 13.5447 42.1641 13.7182 41.9906C13.8701 41.8387 13.9568 41.6218 13.9568 41.4049C13.9568 41.1879 13.8701 40.971 13.7182 40.8191C13.5664 40.689 13.3494 40.5588 13.1325 40.5805C12.6335 40.6456 12.1563 40.7757 11.7224 41.0578C11.2886 41.3398 10.9632 41.6869 10.6595 42.099C10.3992 42.4678 10.2256 42.88 10.1171 43.3139C9.98698 43.8128 9.96529 44.3117 10.0521 44.8107C10.1822 45.7218 10.7679 46.5461 11.5706 46.9583C12.3732 47.3705 13.3277 47.4789 14.2172 47.262C15.1066 47.0451 15.8875 46.5027 16.3431 45.7218C16.8854 44.789 16.8203 43.6392 16.3214 42.7064C15.8441 41.8387 14.9764 41.1011 14.0002 40.8842C13.024 40.6673 11.9611 40.9059 11.2452 41.6435C10.0087 42.88 9.87852 45.1795 11.1367 46.4377C11.2886 46.6112 11.4838 46.7414 11.6791 46.8715C12.0478 47.0885 12.5902 46.9583 12.7854 46.5895C12.9806 46.2207 12.8722 45.7218 12.5034 45.4832L12.5251 45.4181Z" fill="#FFB800"/>
<path d="M32.9824 25.92C33.1126 27.8941 35.6073 29.3042 37.3644 28.3713C39.1216 27.4385 39.3819 24.5967 37.82 23.3602C36.2581 22.1237 33.5464 23.0565 33.0692 24.9872" fill="#FFE557"/>
<path d="M32.1797 25.9183C32.2448 26.7209 32.5485 27.4368 33.0691 28.0659C33.5464 28.6299 34.1972 29.0204 34.8697 29.259C35.5421 29.4976 36.3448 29.541 37.039 29.3675C37.7982 29.1722 38.4273 28.695 38.8829 28.0659C39.7072 26.9595 39.8591 25.3759 39.3168 24.1177C39.0347 23.4452 38.5575 22.8595 37.9067 22.469C37.2993 22.1219 36.5617 21.9484 35.8675 22.0135C34.4792 22.1003 33.0474 22.8812 32.4617 24.2045C32.3749 24.3997 32.2882 24.595 32.2448 24.7902C32.1363 25.2024 32.3749 25.7013 32.8088 25.7881C33.2427 25.8749 33.6982 25.6579 33.8067 25.2241C33.8284 25.0939 33.8718 24.9854 33.9368 24.8553L33.8501 25.0505C33.9368 24.8553 34.0453 24.66 34.1972 24.4865L34.067 24.66C34.2189 24.4648 34.3924 24.2913 34.6093 24.1177L34.4358 24.2479C34.6744 24.0743 34.9347 23.9225 35.1951 23.814L34.9998 23.9008C35.2818 23.7923 35.5855 23.7056 35.8892 23.6622H35.6723C35.9543 23.6622 36.2363 23.6622 36.5183 23.6839H36.3014C36.54 23.6839 36.7787 23.7489 36.9956 23.8357L36.8003 23.7489C36.9956 23.8357 37.1908 23.9442 37.3644 24.0743L37.1908 23.9442C37.3644 24.0743 37.5162 24.2262 37.6464 24.3997L37.5162 24.2262C37.6681 24.4214 37.7765 24.6167 37.885 24.8553L37.7982 24.66C37.9067 24.9204 37.9718 25.1807 38.0152 25.441V25.2241C38.0152 25.5278 38.0152 25.8532 37.9935 26.1569V25.9399C37.9935 26.222 37.9067 26.504 37.7982 26.786L37.885 26.5907C37.7765 26.8294 37.6464 27.068 37.4945 27.2632L37.6247 27.0897C37.4945 27.2632 37.3427 27.4151 37.1691 27.5669L37.3427 27.4368C37.1691 27.5669 36.9739 27.6754 36.7787 27.7622L36.9739 27.6754C36.757 27.7622 36.5617 27.8273 36.3231 27.8489H36.54C36.2797 27.8489 36.0194 27.8489 35.7591 27.8273H35.976C35.694 27.8273 35.412 27.7405 35.1517 27.632L35.3469 27.7188C35.0649 27.5886 34.8046 27.4368 34.5443 27.2632L34.7178 27.3934C34.5009 27.2198 34.3056 27.0246 34.1321 26.8077L34.2622 26.9812C34.1104 26.786 34.0019 26.5907 33.8935 26.3521L33.9802 26.5474C33.8935 26.3304 33.8284 26.1135 33.8067 25.8749V26.0918C33.8067 26.0918 33.8067 25.9833 33.8067 25.9399C33.8067 25.723 33.7199 25.5278 33.5681 25.3542C33.4162 25.2024 33.1993 25.1156 32.9824 25.1156C32.5702 25.1156 32.1363 25.4844 32.158 25.9399L32.1797 25.9183Z" fill="#FFB800"/>
<path d="M61.118 29.9534C62.8534 31.1031 65.6085 29.8666 65.8688 27.8058C66.1291 25.7449 63.7862 23.8359 61.8338 24.5084C59.8814 25.1809 59.209 28.1529 60.6841 29.6063" fill="#FFE557"/>
<path d="M60.7059 30.669C61.9424 31.4933 63.6344 31.3415 64.8709 30.5822C65.4784 30.2134 66.0207 29.6711 66.3461 29.0203C66.7149 28.2611 66.8016 27.4367 66.6064 26.6341C66.2159 25.1372 64.8059 23.8573 63.2657 23.6404C62.4413 23.5319 61.617 23.6404 60.9011 24.096C60.3154 24.4647 59.8164 25.0288 59.5127 25.6579C59.209 26.287 59.0355 27.0245 59.0789 27.7404C59.1222 28.4563 59.3175 29.1722 59.7297 29.7362C59.8598 29.9097 59.9683 30.0616 60.1201 30.2134C60.4238 30.5171 60.9662 30.5388 61.2699 30.2134C61.5736 29.888 61.5953 29.3891 61.2699 29.0637C61.2048 28.9986 61.1614 28.9335 61.0963 28.8685C60.9879 28.7166 61.2048 29.0203 61.118 28.9118C61.0963 28.8685 61.0746 28.8468 61.0529 28.8034C60.9662 28.6732 60.8794 28.5214 60.8143 28.3695L60.9011 28.5648C60.7926 28.3261 60.7275 28.0658 60.6842 27.7838V28.0007C60.6842 27.697 60.6842 27.3933 60.7059 27.0896V27.3066C60.7059 27.0028 60.7926 26.6991 60.9228 26.3954L60.836 26.5907C60.9011 26.4171 60.9879 26.2653 61.0963 26.1134C61.118 26.07 61.1397 26.0267 61.1831 26.005C61.2048 25.9616 61.3133 25.8314 61.2048 25.9616C61.0963 26.0917 61.2048 25.9616 61.2482 25.9182C61.2699 25.8748 61.3133 25.8531 61.3349 25.8097C61.4 25.7446 61.4651 25.6796 61.5302 25.6362C61.5736 25.6145 61.5953 25.5711 61.6387 25.5494C61.7037 25.4843 61.4651 25.6796 61.5519 25.6145C61.5519 25.6145 61.5953 25.5928 61.617 25.5711C61.7688 25.4626 61.9424 25.3759 62.1159 25.3108L61.9207 25.3975C62.1159 25.3108 62.3328 25.2674 62.5498 25.224H62.3328C62.5715 25.224 62.8101 25.224 63.0704 25.2457H62.8535C63.1355 25.2457 63.3958 25.3325 63.6561 25.4409L63.4609 25.3542C63.6561 25.4409 63.8514 25.5494 64.0249 25.6579C64.0683 25.6796 64.1117 25.7229 64.1551 25.7446C64.1768 25.7446 64.2635 25.8314 64.1551 25.7446C64.0466 25.6579 64.1334 25.7446 64.1551 25.7446C64.2418 25.8097 64.3069 25.8748 64.3937 25.9616C64.4588 26.0267 64.5239 26.1134 64.6106 26.1785C64.6106 26.2002 64.654 26.2219 64.6757 26.2436C64.7408 26.3304 64.6106 26.1568 64.6106 26.1568C64.6323 26.1568 64.6757 26.2653 64.6974 26.287C64.8276 26.4605 64.9143 26.6558 65.0011 26.851L64.9143 26.6558C65.0011 26.8727 65.0662 27.1113 65.1096 27.3499V27.133C65.1096 27.3499 65.1096 27.5886 65.0879 27.8055V27.5886C65.0879 27.8055 65.0228 28.0224 64.936 28.2394L65.0228 28.0441C64.936 28.2177 64.8493 28.3912 64.7408 28.5648C64.7408 28.5864 64.7191 28.6081 64.6974 28.6298C64.6323 28.7383 64.8059 28.478 64.7625 28.5431C64.7408 28.5864 64.6974 28.6081 64.6757 28.6515C64.6106 28.7383 64.5455 28.8034 64.4588 28.8685C64.372 28.9335 64.3069 28.9986 64.2418 29.0637C64.1768 29.1288 64.4154 28.9335 64.3069 28.9986C64.3069 28.9986 64.2635 29.0203 64.2635 29.042C64.2202 29.0637 64.1768 29.1071 64.1334 29.1288C63.9598 29.2372 63.7863 29.3457 63.591 29.4108L63.7863 29.324C63.5043 29.4325 63.2223 29.5193 62.9186 29.5626H63.1355C62.8535 29.5626 62.5715 29.5626 62.3112 29.5409H62.5281C62.2895 29.5409 62.0508 29.4759 61.8339 29.3891L62.0291 29.4759C61.8773 29.4108 61.7471 29.3457 61.5953 29.2372C61.2482 28.9986 60.6842 29.1505 60.4889 29.5193C60.272 29.9314 60.4022 30.387 60.7709 30.6256L60.7059 30.669Z" fill="#FFB800"/>
<path d="M84.2207 41.0352C82.3117 39.6903 84.2207 36.1109 86.5418 36.5231C88.863 36.9352 89.8826 40.0591 88.7762 42.1199C88.3424 42.9226 87.5831 43.6384 86.6937 43.6384C85.8043 43.6384 84.9582 42.5538 85.4355 41.7945" fill="#FFE557"/>
<path d="M84.6331 40.3416C84.5029 40.2548 84.785 40.4718 84.6765 40.385C84.6765 40.385 84.6331 40.3633 84.6114 40.3416C84.568 40.2982 84.5246 40.2548 84.4813 40.2115C84.4596 40.1898 84.4379 40.1464 84.4162 40.1247C84.4162 40.1247 84.5463 40.2982 84.4813 40.2115C84.4379 40.1464 84.3945 40.103 84.3728 40.0379C84.286 39.7776 84.3294 39.9511 84.3728 40.0379C84.3728 39.9728 84.3294 39.9294 84.3077 39.8861C84.286 39.8427 84.286 39.7776 84.2643 39.7125C84.2643 39.6908 84.2643 39.6474 84.2643 39.6257C84.2643 39.5607 84.2643 39.8644 84.2643 39.6908C84.2643 39.5824 84.2643 39.4522 84.2643 39.3437C84.2643 39.257 84.3077 39.0617 84.2643 39.3437C84.2643 39.2786 84.286 39.2136 84.3077 39.1485C84.3294 39.04 84.3728 38.9316 84.3945 38.8014C84.3945 38.7363 84.4379 38.6929 84.4596 38.6279C84.3511 38.9099 84.4596 38.6495 84.4813 38.5845C84.5463 38.476 84.6114 38.3675 84.6765 38.2591C84.7199 38.2157 84.7416 38.1506 84.785 38.1072C84.8717 37.9987 84.6765 38.2374 84.7416 38.1723C84.7633 38.1289 84.8066 38.1072 84.8283 38.0638C84.9151 37.9771 85.0019 37.8686 85.0887 37.7818C85.132 37.7384 85.1754 37.695 85.2405 37.6517C85.3273 37.5649 85.1754 37.7167 85.1754 37.7167C85.2188 37.695 85.2622 37.6517 85.3056 37.63C85.4141 37.5649 85.5008 37.4998 85.6093 37.4564C85.631 37.4564 85.6744 37.4347 85.6961 37.413C85.4791 37.5215 85.5659 37.4781 85.631 37.4347C85.6961 37.3913 85.7611 37.3913 85.8262 37.3696C85.8913 37.3696 85.9347 37.348 85.9998 37.3263C86.0432 37.3263 86.0649 37.3263 86.1082 37.3263C85.8696 37.3696 85.9347 37.3263 85.9998 37.3263C86.1299 37.3263 86.2818 37.3263 86.4119 37.3263C86.5638 37.3263 86.2384 37.2829 86.3252 37.3263C86.3686 37.3263 86.3903 37.3263 86.4336 37.3263C86.4987 37.3263 86.5638 37.348 86.6289 37.3696C86.694 37.3913 86.759 37.413 86.8241 37.4347C86.8458 37.4347 86.976 37.4998 86.8241 37.4347C86.6723 37.3696 86.8458 37.4347 86.8675 37.4564C86.9977 37.5215 87.1061 37.5866 87.2146 37.6517C87.2363 37.6517 87.258 37.6734 87.2797 37.695C87.4098 37.7818 87.1278 37.5649 87.2363 37.6734C87.3014 37.7167 87.3448 37.7601 87.4098 37.8252C87.4966 37.912 87.5834 37.9987 87.6702 38.1072C87.6919 38.1289 87.7135 38.1723 87.7569 38.194C87.6051 38.0204 87.6702 38.0855 87.7135 38.1289C87.7569 38.194 87.8003 38.2591 87.8437 38.3241C87.9088 38.4326 87.9956 38.5628 88.0389 38.6929C88.0606 38.758 88.104 38.8231 88.1257 38.8882C87.9956 38.6495 88.1257 38.8882 88.1474 38.9749C88.1908 39.1051 88.2342 39.257 88.2776 39.3871C88.2776 39.4522 88.3209 39.5173 88.3209 39.604C88.3209 39.6257 88.3209 39.6691 88.3209 39.6908C88.3209 39.7125 88.3426 39.9077 88.3209 39.7559C88.2993 39.604 88.3209 39.8427 88.3209 39.8861C88.3209 39.9511 88.3209 40.0379 88.3209 40.103C88.3209 40.2548 88.3209 40.4067 88.3209 40.5585C88.3209 40.6236 88.3209 40.7104 88.3209 40.7755C88.3209 40.949 88.3643 40.5585 88.3209 40.7321C88.3209 40.7538 88.3209 40.7972 88.3209 40.8189C88.2993 40.9707 88.2559 41.1226 88.2125 41.2744C88.2125 41.3395 88.1691 41.4046 88.1474 41.4697C88.1474 41.513 88.1257 41.5347 88.104 41.5781C88.0606 41.6866 88.1908 41.3829 88.1257 41.513C88.0389 41.6649 87.9739 41.8384 87.8654 41.9903C87.8654 42.012 87.822 42.0554 87.8003 42.0771C87.8003 42.0988 87.7569 42.1421 87.7352 42.1638C87.8003 42.0771 87.822 42.0554 87.7786 42.0988C87.7135 42.1855 87.6485 42.2506 87.5834 42.3157C87.5183 42.4025 87.4315 42.4675 87.3448 42.5326C87.2146 42.6628 87.4966 42.4459 87.3448 42.5326C87.3014 42.5543 87.258 42.5977 87.2146 42.6194C87.1929 42.6194 87.1495 42.6628 87.1278 42.6628C87.1061 42.6628 87.0627 42.7062 87.0411 42.7062C86.9543 42.7496 86.976 42.7279 87.0844 42.7062C87.0844 42.7062 86.8458 42.7929 86.8024 42.7929C86.759 42.7929 86.694 42.7929 86.6723 42.8146C86.8024 42.8146 86.8241 42.8146 86.7374 42.8146H86.694C86.694 42.8146 86.5855 42.8146 86.5421 42.8146C86.6723 42.8146 86.7157 42.8363 86.6506 42.8146C86.6289 42.8146 86.6072 42.8146 86.5855 42.8146C86.5421 42.8146 86.4987 42.7929 86.4553 42.7713C86.3035 42.7279 86.6289 42.858 86.477 42.7713C86.4119 42.7279 86.3252 42.6628 86.2384 42.6194C86.2384 42.6194 86.3902 42.7496 86.3035 42.6628C86.2601 42.6194 86.2167 42.5977 86.195 42.5543C86.1733 42.5326 86.1516 42.4892 86.1299 42.4675C86.2818 42.576 86.195 42.5543 86.1516 42.4675C86.1299 42.4242 86.1082 42.3808 86.0865 42.3591C85.9998 42.2289 86.1516 42.5326 86.0865 42.4025C86.0865 42.3591 86.0649 42.3157 86.0432 42.2723V42.2289C86.0432 42.2289 86.0432 42.1638 86.0432 42.3157C86.0432 42.294 86.0432 42.2506 86.0432 42.2289C85.9998 42.3591 86.0432 42.012 86.0432 42.2289C86.0432 42.2072 86.0432 42.1638 86.0649 42.1421C86.0865 42.0554 86.0649 42.0771 86.0215 42.2072C86.0215 42.1855 86.0432 42.1638 86.0649 42.1205C86.2818 41.7517 86.1516 41.2093 85.7828 41.0141C85.4141 40.8189 84.8934 40.9056 84.6765 41.2961C84.1125 42.2723 84.6114 43.4004 85.4791 44.0078C86.3469 44.6152 87.4749 44.4199 88.2776 43.8125C89.731 42.7279 90.23 40.8623 89.9046 39.1268C89.6225 37.63 88.6246 36.2416 87.1495 35.7427C86.3902 35.4823 85.6093 35.5474 84.8717 35.8728C84.2209 36.1548 83.6786 36.6972 83.2664 37.2829C82.8543 37.912 82.5723 38.7146 82.5939 39.4739C82.6373 40.385 83.0495 41.1226 83.7871 41.6432C84.1342 41.8818 84.6982 41.7083 84.8934 41.3612C85.1103 40.949 84.9802 40.5152 84.6114 40.2548L84.6331 40.3416Z" fill="#FFB800"/>
</svg>
