<svg width="100" height="100" viewBox="0 0 100 100" fill="none" xmlns="http://www.w3.org/2000/svg">
<path d="M26.0651 82.0485C15.469 73.6435 15.1746 57.7493 17.3658 44.3733C18.5759 37.0149 20.2765 29.5256 24.2337 23.2137C28.1909 16.9018 34.7317 11.7672 42.1883 11.2767C49.6448 10.7534 57.5592 15.9207 58.6385 23.3118C60.1429 33.4501 49.9065 40.8412 42.4499 47.8399C33.2927 56.4411 26.8827 67.8876 24.2991 80.1844" fill="#97DCFF"/>
<path d="M26.9489 81.194C18.5439 74.4242 17.0395 63.0104 17.6282 52.8721C17.988 46.9854 18.9364 41.0332 20.5062 35.31C22.1414 29.2924 24.725 23.4057 29.1728 18.9252C33.0319 15.0661 38.2972 12.2209 43.857 12.4498C48.828 12.646 53.8317 15.4586 56.2191 19.8736C58.6065 24.2887 57.3638 29.6849 54.5512 33.8056C51.5097 38.3188 47.1601 41.8181 43.1702 45.4483C34.2092 53.5916 27.5376 63.7953 24.1691 75.438C23.7439 76.877 23.3841 78.3487 23.0898 79.7877C22.7628 81.3248 25.1175 81.9789 25.4445 80.4418C28.0935 67.8834 34.6998 56.535 44.1186 47.8684C48.3701 43.9439 52.9487 40.2483 56.3172 35.4735C59.3914 31.1239 61.092 25.5642 59.0971 20.3969C57.1021 15.2296 52.4254 11.6976 47.1928 10.4548C41.4695 9.11397 35.5174 10.8473 30.8407 14.2158C20.081 21.9994 16.9414 36.0295 15.5024 48.5225C14.2924 59.1841 14.8157 71.5462 22.2068 80.0493C23.0898 81.0958 24.1036 82.0116 25.1502 82.8619C26.3602 83.843 28.1262 82.1097 26.8835 81.1285L26.9489 81.194Z" fill="#42A7D4"/>
<path d="M43.8574 85.3137C47.1932 77.6282 53.5379 71.7087 59.719 66.0182C62.8586 63.1075 66.2598 60.0987 70.4786 59.3793C77.0522 58.2673 83.7565 64.0886 84.1163 70.7603C84.476 77.432 78.9817 83.7112 72.4082 84.8558C67.6334 85.6734 62.8258 84.2017 58.0183 83.7766C53.2108 83.3514 47.5857 84.4961 45.2637 88.7149" fill="#97DCFF"/>
<path d="M44.9033 85.9358C47.8793 79.1988 53.0466 73.9007 58.3447 68.9624C63.0214 64.6127 68.9408 58.3008 75.9395 61.3096C78.6867 62.4869 80.976 64.8089 82.1206 67.5561C83.2653 70.3032 83.069 73.5737 81.7282 76.3208C80.3873 79.068 78.098 81.3572 75.2854 82.6981C71.8188 84.366 67.8943 84.0063 64.1987 83.4503C60.2415 82.8616 56.3497 82.1094 52.3598 82.8616C49.024 83.483 45.8844 85.1509 44.1511 88.1597C43.3662 89.5333 45.4919 90.776 46.2768 89.4025C47.8793 86.6226 51.019 85.4126 54.0604 85.0855C58.0504 84.6604 62.0076 85.7069 65.9648 86.1648C69.922 86.6226 73.781 86.3937 77.2804 84.4314C80.1911 82.8289 82.6439 80.2126 84.0174 77.2038C85.391 74.195 85.7835 70.663 84.6715 67.458C83.5596 64.253 81.4338 61.702 78.654 59.9687C75.8741 58.2354 72.3094 57.5813 69.039 58.4643C65.3761 59.4782 62.3346 61.9964 59.5874 64.4819C53.112 70.3686 46.4077 76.5497 42.8102 84.6931C42.1888 86.132 44.2819 87.3748 44.936 85.9358H44.9033Z" fill="#42A7D4"/>
</svg>
