<svg width="100" height="100" viewBox="0 0 100 100" fill="none" xmlns="http://www.w3.org/2000/svg">
<path d="M58.3001 27.2793C56.6401 21.9893 51.6001 20.0893 46.4301 19.8193C42.9601 19.6393 39.6601 20.7793 37.0001 22.9993C33.3101 26.0693 31.3301 31.8193 32.9101 36.4393C33.1201 37.0693 33.3801 37.8093 32.9901 38.3493C32.7101 38.7393 32.2001 38.8493 31.7301 38.9593C24.0601 40.8393 19.4601 49.4493 19.9901 57.3293C20.5201 65.2093 25.0701 72.2793 30.3601 78.1393C33.5001 81.6193 37.0901 84.9993 41.2301 87.2493C45.6101 89.6193 50.1601 89.1493 55.0701 89.5293C56.1901 89.6093 57.3101 89.6993 58.4201 89.5393C59.7501 89.3493 61.0201 88.8293 62.2501 88.2993C67.8401 85.8793 73.7001 82.6593 76.0701 77.0493C77.4301 73.8293 77.4401 70.2193 77.4301 66.7193C79.6501 67.0993 82.6701 66.3793 84.5201 65.1093C89.5001 61.6993 90.7401 52.7393 87.0401 48.1293C85.8401 46.6393 84.3201 45.4393 82.7501 44.3593C81.2501 43.3293 79.5901 42.3693 77.7701 42.3193C77.9801 40.5693 77.4701 38.0693 76.8201 36.4593C75.7001 33.6693 73.7201 31.1993 71.2001 29.5593C69.1601 28.2293 66.7801 27.4493 64.3501 27.2493C62.5501 27.0993 60.0301 26.9093 58.2801 27.2793H58.3001Z" fill="#FFE3B7"/>
<path d="M68.07 68.2301C69.93 56.5201 59.66 45.2501 48.33 43.9501C40.53 43.0601 32.59 49.1301 31.41 56.8901C31.2 58.2501 31.18 59.6401 31.39 61.0101C32.01 65.0901 34.62 68.5701 37.32 71.6901C40.4 75.2401 43.89 78.7001 48.34 80.2001C52.49 81.5901 57.24 81.0601 60.98 78.8001C64.72 76.5301 67.39 72.5601 68.07 68.2401V68.2301Z" fill="#FFA597"/>
<path d="M39.7301 31.8708C38.3701 27.6708 44.6301 23.9008 48.2301 25.5108C51.2901 26.8808 53.0001 30.1708 51.6601 33.3808C50.7601 35.5408 48.4401 36.9808 46.1101 36.9308C42.9901 36.8708 40.5701 34.4908 39.7301 31.8708Z" fill="#FFA597"/>
<path d="M69.89 42.8004C69.55 43.2004 69.14 43.5604 68.71 43.8504C65.72 45.9004 61.51 45.5104 59.38 42.3004C58.24 40.5904 57.97 38.2804 58.89 36.4404C60.38 33.4404 64.17 32.9104 66.88 34.6304C68.99 35.9804 71.23 37.9604 70.97 40.4504C70.88 41.3204 70.47 42.1204 69.9 42.7904L69.89 42.8004Z" fill="#FFA597"/>
<path d="M82.0998 52.0707C81.3998 50.7107 80.4498 49.4407 79.1498 48.6407C77.8498 47.8407 76.1598 47.5607 74.7698 48.2007C72.6798 49.1507 71.8998 51.7207 71.6898 54.0107C71.6298 54.6507 71.5998 55.3107 71.7398 55.9407C72.0998 57.6007 73.5698 58.8307 75.1598 59.4107C77.8398 60.3707 81.2998 59.4907 82.5698 56.9407C83.3798 55.3107 83.1298 53.2107 81.9598 51.8107" fill="#FFA597"/>
<path d="M59.6299 59.9003C59.6799 59.9703 60.0799 60.5203 59.7899 60.1303C59.8999 60.2803 59.9999 60.4303 60.0999 60.5903C60.3099 60.9203 60.5199 61.2503 60.7199 61.5903C60.8999 61.9103 61.0699 62.2303 61.2199 62.5603C61.2799 62.7003 61.3399 62.8503 61.3999 62.9903C61.4799 63.2003 61.4699 63.1803 61.3799 62.9303C61.4099 63.0103 61.4299 63.0903 61.4499 63.1703C61.5299 63.4503 61.5899 63.7403 61.6399 64.0303C61.6499 64.1103 61.6599 64.2003 61.6699 64.2803C61.6899 64.4803 61.6899 64.4503 61.6699 64.1703C61.7099 64.2103 61.6699 64.5003 61.6699 64.5503C61.6699 64.7203 61.6499 64.8803 61.6399 65.0503C61.6399 65.1303 61.6199 65.2103 61.5999 65.3003L61.6399 65.0703C61.6399 65.0703 61.5199 65.4903 61.4999 65.5503C61.4599 65.6603 61.2099 66.1603 61.4599 65.6903C61.2299 66.1403 61.0999 66.5703 61.1999 67.0703C61.2899 67.5203 61.6099 68.0303 62.0199 68.2703C62.8199 68.7403 64.1299 68.6403 64.5999 67.7103C65.4199 66.1103 65.6099 64.3103 65.1499 62.5603C64.6299 60.6303 63.5299 59.0203 62.3999 57.4003C62.1499 57.0403 61.5399 56.8203 61.1299 56.7903C60.6699 56.7603 60.0999 56.9403 59.7599 57.2703C59.4199 57.6003 59.1599 58.0503 59.1499 58.5403C59.1499 59.0803 59.3299 59.4703 59.6299 59.9103V59.9003Z" fill="#FFE3D2"/>
<path d="M46.1301 29.7592C46.2401 29.7992 46.3501 29.8392 46.4501 29.8892L46.1601 29.7492C46.3801 29.8492 46.5801 29.9892 46.7701 30.1392L46.5201 29.9292C46.7201 30.0992 46.8901 30.2892 47.0301 30.4992L46.8401 30.2192C46.9801 30.4192 47.0901 30.6392 47.1701 30.8692L47.0601 30.5492C47.0601 30.5492 47.0801 30.6192 47.1001 30.6592C47.1301 30.8292 47.2001 30.9792 47.3001 31.1092C47.3801 31.2492 47.5001 31.3692 47.6401 31.4592C47.8901 31.6192 48.2701 31.7092 48.5601 31.6292C48.8801 31.5492 49.1901 31.3792 49.3601 31.0792C49.5101 30.8192 49.6301 30.4592 49.5301 30.1592C49.3301 29.5092 49.0301 28.9192 48.5501 28.4292C48.0701 27.9392 47.5201 27.5892 46.8901 27.3792C46.5901 27.2792 46.2301 27.3092 45.9401 27.4492C45.6501 27.5892 45.4001 27.8692 45.3201 28.1692C45.2401 28.4692 45.2301 28.8292 45.3901 29.1192C45.5501 29.4092 45.7901 29.6392 46.1101 29.7392L46.1301 29.7592Z" fill="#FFE3D2"/>
<path d="M66.01 38.9102C66.11 38.9402 66.2 38.9702 66.29 39.0202L66 38.8802C66.14 38.9502 66.27 39.0402 66.39 39.1402L66.14 38.9302C66.27 39.0402 66.38 39.1702 66.48 39.3102L66.29 39.0302C66.39 39.1802 66.48 39.3402 66.54 39.5102L66.43 39.1902C66.49 39.3502 66.52 39.5102 66.53 39.6802L66.51 39.3602C66.51 39.4802 66.51 39.6102 66.5 39.7302C66.46 40.0402 66.62 40.4202 66.82 40.6402C67.02 40.8602 67.36 41.0402 67.67 41.0502C68 41.0502 68.34 40.9702 68.58 40.7302C68.82 40.4902 68.94 40.2202 68.99 39.8802C69.01 39.7602 69.01 39.6302 69 39.5102C68.99 39.3002 68.98 39.0902 68.93 38.8902C68.85 38.5602 68.73 38.2302 68.54 37.9402C68.42 37.7602 68.3 37.5702 68.15 37.4102C68 37.2502 67.84 37.1102 67.67 36.9802C67.41 36.7802 67.09 36.6202 66.77 36.5302C66.45 36.4402 66.11 36.4502 65.82 36.6002C65.55 36.7402 65.28 37.0202 65.2 37.3202C65.12 37.6202 65.11 37.9802 65.27 38.2702C65.43 38.5602 65.67 38.8002 65.99 38.8902L66.01 38.9102Z" fill="#FFE3D2"/>
<path d="M77.7599 52.6008C77.7599 52.6008 77.8299 52.6508 77.8599 52.6808L77.6099 52.4708C77.7599 52.6008 77.8799 52.7408 77.9999 52.8908L77.8099 52.6108C77.9299 52.7908 78.0299 52.9908 78.1099 53.1908L77.9999 52.8708C78.0799 53.0908 78.1199 53.3208 78.1399 53.5608L78.1199 53.2408C78.1299 53.4508 78.1199 53.6508 78.0799 53.8508L78.1399 53.5408C78.0999 53.7308 78.0499 53.9108 77.9699 54.0908L78.1099 53.8008C78.0699 53.8708 78.0299 53.9508 77.9899 54.0208C77.8199 54.2908 77.7499 54.6308 77.8199 54.9408C77.8899 55.2508 78.0899 55.5808 78.3699 55.7408C78.9399 56.0708 79.7299 55.9608 80.0899 55.3708C80.5699 54.5908 80.7199 53.6608 80.5499 52.7608C80.3799 51.8608 79.8599 51.0608 79.1199 50.5008C78.8799 50.3208 78.4799 50.2708 78.1999 50.3308C77.8999 50.3908 77.5599 50.6008 77.3999 50.8808C77.2399 51.1608 77.1499 51.4908 77.2299 51.8008C77.3099 52.1408 77.4999 52.3908 77.7799 52.6008H77.7599Z" fill="#FFE3D2"/>
</svg>
