<svg width="100" height="100" viewBox="0 0 100 100" fill="none" xmlns="http://www.w3.org/2000/svg">
<path d="M76.0899 33.7491C73.7099 31.5491 71.1799 29.1991 67.8399 28.7591C64.8399 28.3691 61.6399 29.2191 59.2299 31.0291C57.6899 32.1891 55.8399 32.4791 54.2899 33.6091C53.1899 34.4091 52.3199 35.4991 51.6299 36.6691C50.3699 38.7991 49.6499 41.1791 49.0399 43.5791C45.1999 39.4691 39.1999 37.6191 33.7399 39.3091C26.8999 41.4291 23.9299 47.2291 22.2599 53.7391C21.3799 57.1791 21.1599 60.6391 23.2999 63.6691C25.4199 66.6691 28.4699 69.1291 31.0799 71.6991C33.6999 74.2791 35.9499 76.1491 39.7099 76.5391C43.6899 76.9491 47.1899 77.5991 50.9599 78.9691C55.2299 80.5291 59.6499 82.2791 64.0899 83.2691C64.1899 83.2891 64.2699 83.2891 64.3699 83.3091C65.3599 84.8391 67.8399 84.3391 68.9399 82.8691C70.1399 81.2591 70.9099 79.1791 71.8199 77.3991C72.6999 75.6791 73.6199 73.9591 74.3499 72.1691C75.9099 68.3291 76.5299 64.2091 77.5299 60.2091C78.4599 56.4891 80.2199 53.0791 81.1599 49.3791C82.7499 43.1291 80.7299 38.0691 76.0799 33.7591L76.0899 33.7491ZM50.4299 47.5791L50.1199 47.0791C50.1199 47.0791 50.1799 47.0691 50.2099 47.0591L50.4299 47.5791Z" fill="#FF6177"/>
<path d="M75.1 55.3307C75.33 54.2807 75.8 53.3107 76.05 52.2607C76.35 50.9807 76.08 49.8607 76.13 48.5907C76.16 47.6607 76.53 46.7307 76.7 45.8007C76.92 44.5307 76.93 43.2307 76.5 42.0007C75.76 39.8607 74.14 38.0607 72.32 36.7607C71.46 36.1407 70.45 35.6307 69.41 35.4007C68.09 35.1207 66.82 35.4707 65.49 35.3507C64.5 35.2607 63.64 36.2007 63.62 37.1407C63.6 38.1907 64.42 38.9207 65.41 39.0107C66.4 39.1007 67.78 38.8007 68.46 38.9307C69.22 39.0807 69.86 39.4707 70.5 39.9507C71.18 40.4607 71.84 41.1207 72.33 41.8207C72.8 42.4807 73.03 42.9407 73.15 43.6607C73.44 45.3607 72.45 47.0407 72.46 48.7707C72.46 49.6907 72.73 50.5507 72.48 51.4407C72.22 52.4007 71.8 53.3007 71.59 54.2907C71.38 55.2807 71.82 56.2707 72.82 56.5707C73.71 56.8407 74.89 56.3107 75.1 55.3407V55.3307Z" fill="#FFB6B1"/>
</svg>
