<svg width="100" height="100" viewBox="0 0 100 100" fill="none" xmlns="http://www.w3.org/2000/svg">
<g clip-path="url(#clip0_4008_34443)">
<path d="M70.4977 14.4974C90.1052 25.8178 96.8233 50.8899 85.5028 70.4974C74.1824 90.105 49.1104 96.823 29.5028 85.5026C9.89532 74.1822 3.17728 49.1101 14.4977 29.5026C25.8181 9.89505 50.8902 3.17701 70.4977 14.4974ZM58.6463 34.6414C50.3086 29.8276 39.6471 32.6843 34.8333 41.0221C30.0194 49.3599 32.8762 60.0214 41.214 64.8352C49.5517 69.649 60.2132 66.7923 65.027 58.4545C69.8409 50.1167 66.9841 39.4553 58.6463 34.6414Z" fill="#F0F4FA"/>
<path d="M85.5023 70.4976C85.2691 70.9016 85.029 71.2997 84.7842 71.6927C81.2301 77.3919 76.3263 82.1374 70.4973 85.5028C68.1761 86.8429 65.7386 87.9461 63.2218 88.8036C61.4967 89.3907 59.7342 89.8626 57.9467 90.2166C55.3396 90.7317 52.6785 90.9951 49.9997 90.9951L49.9995 67.1719C55.9341 67.1426 61.6962 64.0816 64.9288 58.6194L85.5023 70.4976ZM34.7391 41.189C31.5669 46.8225 31.8647 53.4833 34.964 58.6808L14.4978 70.4972C12.9262 67.7751 11.6796 64.8932 10.7739 61.9108C10.7028 61.6764 10.6341 61.4413 10.5672 61.2056C10.4545 60.809 10.3475 60.4108 10.2468 60.011C10.1871 59.7741 10.1295 59.5366 10.074 59.2986C9.36688 56.2627 9.00533 53.1434 9.00532 49.9999C9.00532 42.8039 10.8997 35.7346 14.4977 29.5026L34.7391 41.189ZM70.4974 14.4972C70.9015 14.7306 71.2999 14.9703 71.693 15.2152C77.3922 18.7694 82.1373 23.6738 85.5027 29.5028L65.1576 41.2487C63.6761 38.5853 61.4774 36.2759 58.646 34.6412C55.9174 33.0659 52.94 32.3122 50.0001 32.303L50.0001 9.00537C56.7316 9.00538 63.3522 10.6626 69.2802 13.8217C69.6881 14.0394 70.094 14.2643 70.4974 14.4972Z" fill="#99B3CE"/>
</g>
<defs>
<clipPath id="clip0_4008_34443">
<rect width="100" height="100" fill="white"/>
</clipPath>
</defs>
</svg>
