<svg width="100" height="100" viewBox="0 0 100 100" fill="none" xmlns="http://www.w3.org/2000/svg">
<g clip-path="url(#clip0_3647_3423)">
<path d="M69.1671 46.8202C72.766 46.212 76.0629 44.4312 78.5448 41.755C81.0267 39.0788 82.5544 35.6573 82.8902 32.0229C83.2259 28.3884 82.351 24.7449 80.4014 21.6593C78.4518 18.5737 75.537 16.219 72.1105 14.9617C68.684 13.7044 64.9379 13.615 61.4553 14.7073C57.9727 15.7997 54.9488 18.0126 52.8542 21.0016C50.7596 23.9907 49.7118 27.5883 49.8737 31.2346C50.0357 34.8809 51.3983 38.3715 53.7497 41.163L55.8009 39.4353C53.8306 37.096 52.6887 34.1711 52.553 31.1156C52.4173 28.0601 53.2954 25.0455 55.0506 22.5407C56.8058 20.036 59.3397 18.1817 62.258 17.2664C65.1763 16.351 68.3153 16.4259 71.1866 17.4795C74.0579 18.5331 76.5004 20.5062 78.1341 23.0919C79.7678 25.6775 80.501 28.7306 80.2196 31.7761C79.9382 34.8217 78.658 37.6888 76.5783 39.9313C74.4986 42.1739 71.7359 43.6661 68.7202 44.1758L69.1671 46.8202Z" fill="#696969"/>
<path d="M54.6641 38.3809L57.0817 40.0964L28.4889 80.3898L26.0713 78.6742L54.6641 38.3809Z" fill="#696969"/>
<path d="M70.293 44.1953L67.3419 43.9135L62.6457 93.0973L65.5967 93.3791L70.293 44.1953Z" fill="#696969"/>
<path d="M17.9346 42.7656L90.0956 61.7056L79.4341 102.326L7.273 83.3861L17.9346 42.7656Z" fill="#FFB761"/>
<path d="M9.53027 74.7832L81.6913 93.7231L80.8133 97.0684L8.65226 78.1284L9.53027 74.7832Z" fill="#F39B4A"/>
<path d="M64.807 44.2261C68.3276 43.2634 71.4313 41.164 73.6351 38.2545C75.8389 35.345 77.0192 31.7886 76.9923 28.1388C76.9655 24.489 75.7329 20.9504 73.4865 18.0737C71.24 15.197 68.1057 13.1435 64.5713 12.2328C61.0368 11.3221 57.3004 11.6052 53.9436 13.038C50.5867 14.4709 47.7975 16.9732 46.0102 20.1556C44.2229 23.3379 43.5375 27.0218 44.0609 30.634C44.5842 34.2462 46.2869 37.5841 48.9039 40.1283L50.7734 38.2053C48.5804 36.0734 47.1537 33.2763 46.7151 30.2494C46.2766 27.2225 46.8508 24.1356 48.3486 21.4689C49.8463 18.8022 52.1835 16.7054 54.9964 15.5047C57.8094 14.304 60.9403 14.0668 63.9021 14.8299C66.8638 15.5931 69.4903 17.3138 71.3727 19.7244C73.2551 22.135 74.2879 25.1002 74.3105 28.1586C74.333 31.217 73.344 34.1971 71.4973 36.6351C69.6505 39.0732 67.0498 40.8324 64.0996 41.6391L64.807 44.2261Z" fill="#696969"/>
<path d="M49.5371 37.2695L52.1132 38.7365L27.6642 81.6707L25.0881 80.2037L49.5371 37.2695Z" fill="#696969"/>
<path d="M65.668 41.502L62.7036 41.5147L62.916 90.9217L65.8804 90.909L65.668 41.502Z" fill="#696969"/>
</g>
<defs>
<clipPath id="clip0_3647_3423">
<rect width="100" height="100" fill="white"/>
</clipPath>
</defs>
</svg>
