<svg width="100" height="100" viewBox="0 0 100 100" fill="none" xmlns="http://www.w3.org/2000/svg">
<path d="M54.0961 62.5159C55.7061 60.8759 54.7361 58.8459 55.0761 56.8659C55.4961 54.9359 55.8261 53.2859 55.7661 51.2859C55.7061 49.0459 56.1061 46.8159 56.4061 44.6059C56.9561 40.5959 57.8461 36.4259 57.8761 32.3659C57.8961 29.2159 57.0761 25.6259 55.2961 22.9859C53.7861 20.7559 51.5161 19.7959 48.8561 20.0359C45.7561 20.3159 42.9861 21.7659 41.8061 24.7559C40.7361 27.4659 41.0361 30.5359 41.0461 33.3759C41.0661 37.2459 42.2561 40.8959 43.2761 44.5859C44.3361 48.4159 44.3761 52.4759 45.5861 56.2559C46.1161 57.9259 46.6261 59.8759 47.4761 61.4059C48.0861 62.4959 49.3661 62.8959 50.5261 63.1359C51.7961 63.3959 53.1161 63.5159 54.0961 62.5159Z" fill="#5AAC7E"/>
<path d="M48.9762 24.956C49.7662 24.896 50.5362 25.086 51.1462 25.606C51.8262 26.176 52.0962 26.996 52.3462 27.806C52.9262 29.686 53.7862 31.696 53.4262 33.696C53.3162 34.296 53.5862 34.906 54.2162 35.076C54.7662 35.226 55.4962 34.896 55.5962 34.286C56.0662 31.676 55.1662 29.156 54.3662 26.706C53.9962 25.566 53.4062 24.506 52.4462 23.766C51.4862 23.026 50.2162 22.596 48.9662 22.696C48.3562 22.746 47.8462 23.176 47.8462 23.816C47.8462 24.386 48.3662 24.986 48.9662 24.936L48.9762 24.956Z" fill="#9AD9A8"/>
<path d="M55.8958 69.627C54.5358 68.927 53.0458 68.927 51.5958 69.337C50.8458 69.557 50.1458 69.887 49.4258 70.197C48.9958 70.387 48.5458 70.527 48.1158 70.727C45.8858 71.727 45.8958 74.797 46.6858 76.767C47.6758 79.237 49.9858 80.907 52.6758 80.877C55.2558 80.847 57.5058 79.327 58.3558 76.877C59.2758 74.227 58.4158 71.057 55.8958 69.627Z" fill="#5AAC7E"/>
<path d="M53.4159 72.6863C53.4759 72.7563 53.5459 72.8363 53.6059 72.9063C53.6459 72.9563 53.6859 73.0063 53.7259 73.0463C53.8259 73.1563 53.5959 72.8763 53.6859 72.9963C53.8059 73.1663 53.9259 73.3363 54.0359 73.5163C54.0859 73.5963 54.1359 73.6863 54.1759 73.7763C54.1959 73.8163 54.2159 73.8763 54.2359 73.9063C54.1059 73.7363 54.1759 73.7663 54.2159 73.8763C54.2359 73.9363 54.4259 74.4163 54.3759 74.4563C54.3759 74.4563 54.3459 74.1663 54.3559 74.3363C54.3559 74.3763 54.3559 74.4163 54.3559 74.4563C54.3559 74.5363 54.3559 74.6263 54.3559 74.7063C54.3559 74.7563 54.3259 74.9463 54.3559 74.7363C54.3559 74.6963 54.3859 74.5463 54.3559 74.7363C54.3359 74.8163 54.3159 74.8963 54.2959 74.9763C54.2859 75.0263 54.2559 75.0763 54.2459 75.1163C54.2459 75.0863 54.3559 74.8763 54.2859 75.0163C54.2459 75.0863 54.2059 75.1563 54.1659 75.2263C54.0859 75.3563 54.2059 75.1663 54.2359 75.1463C54.1959 75.1763 54.1659 75.2263 54.1359 75.2563C54.1059 75.2863 54.0759 75.3063 54.0459 75.3363C53.9659 75.4263 54.2859 75.1663 54.1059 75.2863C53.8659 75.4563 53.6659 75.6663 53.5859 75.9563C53.5159 76.2263 53.5459 76.5863 53.6959 76.8263C54.0059 77.3063 54.7159 77.5963 55.2359 77.2263C56.1859 76.5563 56.7059 75.4263 56.5959 74.2663C56.4659 73.0163 55.8059 72.0063 54.9959 71.0763C54.6059 70.6363 53.7959 70.6463 53.4059 71.0763C52.9759 71.5463 52.9959 72.1963 53.4059 72.6663L53.4159 72.6863Z" fill="#9AD9A8"/>
</svg>
