<svg width="100" height="100" viewBox="0 0 100 100" fill="none" xmlns="http://www.w3.org/2000/svg">
<path d="M50.3946 43.7512C48.0446 42.9112 46.1246 41.0612 45.1246 38.7812C44.8746 38.2212 44.6846 37.6212 44.5746 37.0112C44.4646 36.4012 44.4646 35.7112 44.8646 35.2212C45.2046 34.8112 45.7546 34.6912 46.2646 34.7512C46.8646 34.8212 47.3646 35.1412 47.7546 35.5912C48.2346 36.1412 48.5146 36.8412 48.7246 37.5212C48.9946 38.4012 49.1946 39.3012 49.3046 40.2112C49.3646 40.6912 50.0046 40.7012 50.0546 40.2112C50.2546 38.2012 51.3946 36.2812 53.0746 35.1612C53.3846 34.9512 53.8746 34.6612 54.0246 35.1712C54.1446 35.5912 54.0246 36.0412 53.9246 36.4512C53.6446 37.6212 53.2646 38.7712 52.7846 39.8712C52.2446 41.1012 51.5946 42.2812 50.8446 43.3912C50.5746 43.7912 51.2246 44.1712 51.4946 43.7712C53.0246 41.5112 54.1446 38.9612 54.7346 36.3012C54.8346 35.8312 54.8846 35.3012 54.7046 34.8412C54.4846 34.2912 53.9346 34.0112 53.3546 34.1812C52.7746 34.3512 52.2446 34.8112 51.8146 35.2112C51.3846 35.6112 51.0046 36.0412 50.6746 36.5212C49.9046 37.6112 49.4446 38.8912 49.3146 40.2212H50.0646C49.9546 39.3112 49.7746 38.4112 49.5146 37.5312C49.3046 36.8112 49.0246 36.0712 48.5846 35.4512C48.1446 34.8312 47.5946 34.3512 46.8846 34.1312C46.2546 33.9312 45.5346 33.9512 44.9346 34.2512C43.4746 34.9812 43.6846 36.8512 44.0946 38.1412C44.5246 39.5012 45.2646 40.7612 46.2246 41.8212C47.3146 43.0212 48.6846 43.9412 50.2046 44.4812C50.6646 44.6412 50.8546 43.9212 50.4046 43.7612L50.3946 43.7512Z" fill="#E91940"/>
<path d="M42.9945 51.1416C42.1845 50.1116 41.2645 49.1816 40.2445 48.3616C39.2945 47.6016 38.2645 46.8716 37.1145 46.4616C36.1545 46.1216 34.9545 45.9916 34.0845 46.6216C33.1345 47.3116 32.9245 48.5816 33.3645 49.6316C33.8945 50.9116 35.2445 51.5816 36.5445 51.7916L36.4545 51.1016C35.3945 51.8016 34.2745 52.4616 33.2745 53.2516C32.4645 53.8916 31.8445 54.7716 32.0345 55.8416C32.1045 56.2616 32.3145 56.6716 32.6545 56.9416C33.0845 57.2916 33.6545 57.3316 34.1745 57.1716C34.7845 56.9816 35.3345 56.6016 35.8745 56.2916C36.4645 55.9616 37.0445 55.6216 37.6345 55.2916C38.9845 54.5216 40.3345 53.7516 41.6845 52.9816C42.1045 52.7416 41.7245 52.0916 41.3045 52.3316C39.2045 53.5316 37.1045 54.7216 35.0045 55.9216C34.5745 56.1616 34.0645 56.5416 33.5445 56.5116C33.1945 56.4916 32.9445 56.2616 32.8245 55.9416C32.5145 55.1116 33.0645 54.3816 33.6745 53.8816C34.1245 53.5116 34.6245 53.2116 35.1145 52.8816C35.6845 52.5016 36.2545 52.1216 36.8245 51.7416C37.0645 51.5816 37.0745 51.1116 36.7345 51.0516C35.7545 50.8916 34.6945 50.4816 34.1645 49.5816C33.7345 48.8316 33.7445 47.7416 34.4945 47.2116C35.2445 46.6816 36.2545 46.9116 37.0345 47.2116C38.0045 47.5816 38.8945 48.2216 39.6945 48.8616C40.7145 49.6716 41.6445 50.6116 42.4445 51.6416C42.5745 51.8016 42.8445 51.7716 42.9745 51.6416C43.1345 51.4816 43.0945 51.2716 42.9745 51.1116L42.9945 51.1416Z" fill="#E91940"/>
<path d="M56.9546 59.9521C53.5146 60.5521 50.2346 58.4121 47.9946 55.9921C47.0246 54.9321 45.9046 53.2721 46.3946 51.7621C46.8646 50.3321 48.5746 50.1021 49.8246 50.5321C51.5746 51.1421 52.5246 53.0321 53.3246 54.5621C53.4946 54.8921 54.0346 54.7421 54.0246 54.3721C53.9646 52.7721 54.1746 51.1821 54.6646 49.6521C55.0546 48.4221 55.6846 46.5921 57.1746 46.3621C58.7746 46.1121 58.8546 47.9521 58.8146 49.0621C58.7546 50.7421 58.5746 52.4121 58.2846 54.0621C57.9546 55.9021 57.4946 57.7221 56.8946 59.4921C56.7446 59.9521 57.4646 60.1521 57.6146 59.6921C58.7946 56.1721 59.4846 52.4521 59.5646 48.7421C59.5746 48.0621 59.5346 47.3521 59.2346 46.7321C58.9146 46.0621 58.2746 45.6421 57.5246 45.6021C55.8046 45.5021 54.8346 47.1221 54.2746 48.5021C53.5246 50.3621 53.1846 52.3821 53.2646 54.3821L53.9646 54.1921C53.1346 52.6221 52.1746 50.8121 50.4946 50.0121C49.0946 49.3421 47.1546 49.3821 46.1346 50.6921C44.9646 52.1921 45.7146 54.2021 46.7046 55.5821C47.8046 57.1221 49.3646 58.4421 50.9946 59.3821C52.8646 60.4721 55.0046 61.0421 57.1546 60.6721C57.6246 60.5921 57.4246 59.8621 56.9546 59.9521Z" fill="#E91940"/>
<path d="M45.7546 54.1005C47.0146 53.2105 48.3846 52.4905 49.8446 51.9705L49.4246 51.4205C48.6846 52.9205 47.7446 54.3105 46.6146 55.5505C46.2846 55.9105 46.7846 56.4105 47.1446 56.0805C48.6946 54.6605 50.4446 53.4905 52.3346 52.5805L51.8246 52.0705C50.8846 53.8905 49.7946 55.6305 48.5646 57.2705C48.3446 57.5705 48.7846 57.9905 49.0746 57.7805C51.9146 55.7605 54.7546 53.7505 57.5946 51.7305L57.1446 51.1405C54.8546 53.4305 52.8146 55.9605 51.0646 58.6805C50.8346 59.0405 51.3546 59.4305 51.6546 59.1305C53.2646 57.5105 55.0946 56.1405 57.1146 55.0605L56.6646 54.4705C55.8546 55.5205 55.0346 56.5805 54.2246 57.6305L53.6546 58.3705C53.4846 58.5905 53.2746 58.8105 53.1446 59.0605C52.9346 59.4405 52.8746 60.0105 53.3346 60.2305C53.4746 60.3005 53.6746 60.3005 53.7846 60.1705C54.6146 59.2005 55.5646 58.3505 56.6246 57.6405L56.0646 57.3205C55.9746 58.0805 55.6446 58.7905 55.1346 59.3605L55.7646 59.5305C55.7346 59.3605 55.7846 59.2205 55.9146 59.1005C56.2646 58.7605 55.7246 58.2305 55.3846 58.5705C55.0646 58.8805 54.9546 59.2905 55.0446 59.7305C55.1046 60.0005 55.4946 60.1005 55.6746 59.9005C56.3246 59.1705 56.7046 58.2905 56.8246 57.3305C56.8546 57.0505 56.4846 56.8605 56.2646 57.0105C55.1546 57.7505 54.1446 58.6405 53.2746 59.6605L53.7246 59.6005C53.7346 59.6705 53.7446 59.6805 53.7446 59.6405C53.7446 59.6005 53.7546 59.5705 53.7746 59.5405C53.7946 59.4805 53.8346 59.4205 53.8646 59.3705C54.0046 59.1505 54.1846 58.9505 54.3446 58.7405C54.6546 58.3405 54.9646 57.9305 55.2746 57.5305C55.9246 56.6905 56.5646 55.8605 57.2146 55.0205C57.4646 54.7005 57.1646 54.2205 56.7646 54.4305C54.6946 55.5405 52.8046 56.9505 51.1546 58.6205L51.7446 59.0705C53.4646 56.4005 55.4646 53.9305 57.7146 51.6905C58.0046 51.4005 57.6146 50.8505 57.2646 51.1005C54.4246 53.1205 51.5846 55.1305 48.7446 57.1505L49.2546 57.6605C50.4946 56.0305 51.5846 54.2905 52.5146 52.4605C52.6946 52.1205 52.3446 51.7805 52.0046 51.9505C50.0546 52.8905 48.2546 54.1105 46.6646 55.5705L47.1946 56.1005C48.3646 54.8205 49.3546 53.3805 50.1246 51.8205C50.2546 51.5505 50.0346 51.1505 49.7046 51.2705C48.1846 51.8105 46.7546 52.5505 45.4446 53.4705C45.0546 53.7505 45.4246 54.4005 45.8246 54.1205L45.7546 54.1005Z" fill="#E91940"/>
<path d="M55.4045 49.5404C56.2645 48.6604 57.2645 47.9604 58.3945 47.4504L57.8845 46.9404C57.0545 48.4104 56.1245 49.8204 55.0945 51.1604C54.8045 51.5404 54.4945 51.9104 54.1845 52.2804C54.0645 52.4204 54.0345 52.6204 54.1545 52.7704C54.2645 52.9104 54.4745 52.9604 54.6345 52.8704C56.1345 51.9804 57.5245 50.9104 58.7745 49.6904C59.1245 49.3504 58.5945 48.8204 58.2445 49.1604C57.0345 50.3304 55.7045 51.3604 54.2545 52.2204L54.7045 52.8104C55.8245 51.4804 56.8545 50.0604 57.7745 48.5804C58.0345 48.1704 58.2745 47.7404 58.5145 47.3204C58.5945 47.1704 58.5745 46.9804 58.4545 46.8704C58.3245 46.7404 58.1545 46.7404 58.0045 46.8104C56.8345 47.3404 55.7645 48.0904 54.8645 49.0104C54.5245 49.3604 55.0545 49.8904 55.3945 49.5404H55.4045Z" fill="#E91940"/>
<path d="M44.6645 37.9221C45.5045 37.2521 46.4645 36.7021 47.4645 36.3121L47.0445 35.7621C46.2745 37.1721 45.5045 38.5721 44.7345 39.9821C44.5645 40.3021 44.9245 40.7021 45.2445 40.4921C46.4145 39.7421 47.5945 38.9921 48.7645 38.2321L48.2145 37.8121C47.8445 39.1521 47.2545 40.4121 46.4845 41.5621C46.2445 41.9221 46.7845 42.3221 47.0745 42.0121C48.0745 40.9721 49.2745 40.1521 50.5945 39.5821L50.0845 39.0721C49.4545 40.3321 48.8245 41.5821 48.1945 42.8421C48.0345 43.1721 48.3645 43.5521 48.7045 43.3521C49.8445 42.6921 50.9945 42.0321 52.1345 41.3721L51.6245 40.8621C51.3945 41.1821 51.1645 41.5021 50.9345 41.8121L51.5845 42.1921C52.3045 40.7221 53.0245 39.2621 53.7445 37.7921C53.9945 37.2821 54.3045 36.7321 54.1345 36.1421C54.0645 35.9021 53.9045 35.6921 53.6545 35.6121C53.3145 35.5121 53.0245 35.6921 52.7845 35.9021C52.1045 36.5021 51.4345 37.1221 50.7645 37.7321L51.3545 38.1821C51.8545 37.1021 52.6845 36.2221 53.7345 35.6621C54.1645 35.4321 53.7845 34.7921 53.3545 35.0121C52.2045 35.6221 51.2545 36.6121 50.7045 37.8021C50.5245 38.1821 50.9645 38.5521 51.2945 38.2521C51.9445 37.6621 52.5945 37.0721 53.2545 36.4921C53.3045 36.4521 53.3745 36.4021 53.4145 36.3521C53.4945 36.2521 53.4245 36.3721 53.4345 36.3121C53.4345 36.3121 53.4145 36.3021 53.4145 36.2921C53.4045 36.2721 53.4145 36.2921 53.4245 36.3221C53.4245 36.2821 53.4445 36.4121 53.4445 36.3921C53.4745 36.6321 53.3845 36.8621 53.2845 37.0721C52.5145 38.6521 51.7345 40.2221 50.9645 41.8021C50.7445 42.2421 51.3345 42.5721 51.6145 42.1821C51.8445 41.8621 52.0745 41.5421 52.3045 41.2321C52.5345 40.9221 52.0945 40.5421 51.7945 40.7221C50.6545 41.3821 49.5045 42.0421 48.3645 42.7021L48.8745 43.2121C49.5045 41.9521 50.1345 40.7021 50.7645 39.4421C50.9445 39.0821 50.5945 38.7821 50.2545 38.9321C48.8745 39.5321 47.6245 40.4021 46.5845 41.4821L47.1745 41.9321C47.9845 40.7321 48.5945 39.4021 48.9845 38.0021C49.0645 37.6921 48.7145 37.4021 48.4345 37.5821C47.2645 38.3321 46.0845 39.0821 44.9145 39.8421L45.4245 40.3521C46.1945 38.9421 46.9645 37.5421 47.7345 36.1321C47.8745 35.8721 47.6345 35.4521 47.3145 35.5821C46.1845 36.0221 45.1345 36.6221 44.1845 37.3821C44.0245 37.5121 44.0545 37.7821 44.1845 37.9121C44.3445 38.0721 44.5545 38.0421 44.7145 37.9121L44.6645 37.9221Z" fill="#E91940"/>
<path d="M34.9546 47.3909C34.6346 48.1609 34.3646 48.9409 34.1346 49.7409C34.0246 50.1409 34.6446 50.4309 34.8246 50.0309C35.2146 49.1509 35.7446 48.3709 36.4246 47.6909L35.7846 47.4209C35.8146 48.2509 35.8546 49.0909 35.8846 49.9209C35.8946 50.2109 36.3046 50.4609 36.5246 50.1909C37.1646 49.3809 37.9546 48.7309 38.8646 48.2709L38.3146 47.8509C37.6546 49.6409 37.1046 51.4709 36.6646 53.3309C36.5846 53.6609 37.0346 54.0009 37.2946 53.6909C38.3646 52.3709 39.2046 50.9009 39.7846 49.3009L39.0446 49.2009C39.0646 50.4309 39.0846 51.6609 39.1146 52.8909C39.1146 53.2809 39.6046 53.3809 39.8146 53.0809C40.2946 52.3909 40.7746 51.7109 41.2546 51.0209H40.6046C40.8246 51.4609 40.9146 51.9609 40.8546 52.4509C40.8346 52.6209 40.8746 52.7809 41.0246 52.8709C41.1646 52.9509 41.3646 52.9309 41.4746 52.8109C41.8446 52.4409 42.2146 52.0709 42.5846 51.7009C42.9246 51.3609 42.3946 50.8309 42.0546 51.1709C41.6846 51.5409 41.3146 51.9109 40.9446 52.2809L41.5746 52.6409C41.6746 51.9409 41.5746 51.2609 41.2546 50.6309C41.1146 50.3609 40.7546 50.4209 40.6046 50.6309C40.1246 51.3209 39.6446 52.0009 39.1646 52.6909L39.8646 52.8809C39.8446 51.6509 39.8246 50.4209 39.7946 49.1909C39.7946 48.7509 39.1946 48.7009 39.0546 49.0909C38.5246 50.5609 37.7446 51.9409 36.7546 53.1509L37.3846 53.5109C37.8146 51.6509 38.3646 49.8209 39.0346 48.0309C39.1546 47.7009 38.7546 47.4709 38.4846 47.6109C37.5146 48.1009 36.6646 48.7909 35.9946 49.6409L36.6346 49.9109C36.6046 49.0809 36.5646 48.2409 36.5346 47.4109C36.5246 47.0909 36.1346 46.9109 35.8946 47.1409C35.1746 47.8609 34.5846 48.7009 34.1746 49.6309L34.8646 49.9209C35.0946 49.1209 35.3646 48.3409 35.6846 47.5709C35.7646 47.3809 35.6046 47.1609 35.4246 47.1109C35.2046 47.0509 35.0446 47.1809 34.9646 47.3709L34.9546 47.3909Z" fill="#E91940"/>
<path d="M33.7646 53.9215C33.7646 53.9215 33.7746 54.0115 33.7646 53.9515C33.7546 53.8915 33.7646 53.9715 33.7646 53.9815C33.7646 54.0315 33.7646 54.0715 33.7746 54.1215C33.7746 54.2115 33.7846 54.3015 33.7846 54.3915C33.7846 54.4815 33.7846 54.5715 33.7846 54.6615C33.7846 54.7115 33.7846 54.7515 33.7746 54.8015C33.7746 54.8315 33.7746 54.8515 33.7746 54.8815C33.7746 54.8915 33.7646 54.9715 33.7746 54.9115C33.7846 54.8515 33.7746 54.9415 33.7746 54.9415C33.7746 54.9615 33.7746 54.9915 33.7646 55.0115C33.7646 55.0515 33.7446 55.1015 33.7346 55.1415C33.7146 55.2315 33.6946 55.3215 33.6746 55.4115C33.6546 55.5015 33.6246 55.5915 33.5946 55.6715C33.5746 55.7115 33.5646 55.7615 33.5446 55.8015C33.5446 55.8215 33.5346 55.8415 33.5146 55.8615L33.5346 55.8215C33.5346 55.8215 33.5246 55.8515 33.5146 55.8715L34.2046 56.1615C34.2046 56.1615 34.2146 56.1315 34.2246 56.1115C34.2246 56.1115 34.1946 56.1815 34.2146 56.1415C34.2246 56.1115 34.2346 56.0915 34.2546 56.0615C34.2846 56.0015 34.3046 55.9415 34.3346 55.8815C34.3846 55.7715 34.4446 55.6615 34.5046 55.5515C34.6246 55.3315 34.7446 55.1215 34.8846 54.9215C34.9546 54.8215 35.0246 54.7115 35.1046 54.6115C35.1246 54.5915 35.1446 54.5615 35.1546 54.5415C35.1546 54.5415 35.1046 54.6115 35.1446 54.5615C35.1446 54.5615 35.1646 54.5415 35.1646 54.5315C35.2046 54.4815 35.2446 54.4315 35.2946 54.3715C35.4546 54.1815 35.6246 54.0015 35.7946 53.8315C35.9946 53.6315 36.2146 53.4415 36.4346 53.2715L35.7946 53.0015C35.7646 53.6115 35.8546 54.2415 36.0646 54.8115C36.1346 54.9915 36.3246 55.1415 36.5246 55.0715C36.7046 55.0115 36.8546 54.8115 36.7846 54.6115C36.6846 54.3415 36.6146 54.0615 36.5746 53.7815C36.5746 53.7615 36.5746 53.7415 36.5746 53.7215C36.5746 53.7715 36.5746 53.7815 36.5746 53.7315C36.5746 53.7015 36.5746 53.6715 36.5746 53.6415C36.5746 53.5615 36.5646 53.4915 36.5546 53.4115C36.5546 53.2715 36.5546 53.1215 36.5546 52.9815C36.5546 52.8415 36.4546 52.6915 36.3246 52.6415C36.1746 52.5815 36.0346 52.6215 35.9146 52.7215C35.0946 53.3615 34.4046 54.1715 33.9046 55.0815C33.7546 55.3615 33.6146 55.6415 33.4946 55.9415C33.4646 56.0215 33.4946 56.1615 33.5346 56.2315C33.5746 56.3015 33.6346 56.3515 33.7146 56.3815C33.8746 56.4515 34.1046 56.4015 34.1846 56.2315C34.3646 55.8315 34.4846 55.4215 34.5346 54.9915C34.5846 54.5615 34.5846 54.1315 34.5146 53.6915C34.5046 53.6015 34.4146 53.5115 34.3446 53.4715C34.2646 53.4215 34.1446 53.4015 34.0546 53.4315C33.9646 53.4615 33.8746 53.5215 33.8346 53.6015C33.7846 53.6915 33.7846 53.7815 33.7946 53.8915L33.7646 53.9215Z" fill="#E91940"/>
<path d="M63.7145 37.071L62.1945 40.671C61.8945 41.391 63.3445 41.321 63.5645 40.791L65.0845 37.191C65.3845 36.471 63.9345 36.541 63.7145 37.071Z" fill="#E91940"/>
<path d="M66.7945 40.9613L64.8845 44.1813C64.7045 44.4913 65.0445 44.7613 65.3245 44.7913C65.6945 44.8213 66.0745 44.6713 66.2645 44.3513L68.1745 41.1313C68.3545 40.8213 68.0145 40.5513 67.7345 40.5213C67.3645 40.4913 66.9845 40.6413 66.7945 40.9613Z" fill="#E91940"/>
<path d="M38.3746 61.772L40.7846 59.822C40.8546 59.772 40.9746 59.672 40.9446 59.562C40.9146 59.452 40.7646 59.422 40.6746 59.412C40.4946 59.392 40.3146 59.412 40.1446 59.462C39.9746 59.512 39.7946 59.572 39.6546 59.682L37.2446 61.632C37.1746 61.682 37.0546 61.782 37.0846 61.892C37.1146 62.002 37.2646 62.032 37.3546 62.042C37.5346 62.062 37.7146 62.042 37.8846 61.992C38.0546 61.942 38.2346 61.882 38.3746 61.772Z" fill="#E91940"/>
<path d="M42.5044 65.0113L43.3044 62.6313C43.3544 62.4813 43.3644 62.3413 43.2644 62.2113C43.1744 62.0813 42.9944 62.0013 42.8444 61.9913C42.6544 61.9713 42.4444 61.9913 42.2744 62.0913C42.1344 62.1713 41.9644 62.2813 41.9044 62.4513L41.1044 64.8313C41.0544 64.9813 41.0444 65.1213 41.1444 65.2513C41.2344 65.3813 41.4144 65.4613 41.5644 65.4713C41.7544 65.4913 41.9644 65.4713 42.1344 65.3713C42.2744 65.2913 42.4444 65.1813 42.5044 65.0113Z" fill="#E91940"/>
</svg>
