<svg width="100" height="100" viewBox="0 0 100 100" fill="none" xmlns="http://www.w3.org/2000/svg">
<path d="M68.0965 6.31641C82.7295 6.31641 94.592 18.1876 94.592 32.8316C94.592 39.4389 92.1766 45.4814 88.1819 50.124C92.1766 54.7667 94.592 60.8092 94.592 67.4165C94.592 82.0604 82.7295 93.9317 68.0965 93.9317C61.161 93.9317 54.8483 91.2646 50.1256 86.8999C45.4029 91.2646 39.0902 93.9317 32.1547 93.9317C17.5216 93.9317 5.65918 82.0604 5.65918 67.4165C5.65918 60.8093 8.07418 54.7667 12.0689 50.124C8.07418 45.4814 5.65918 39.4388 5.65918 32.8316C5.65918 18.1876 17.5216 6.31641 32.1547 6.31641C39.0901 6.31641 45.4029 8.98319 50.1256 13.3478C54.8483 8.98319 61.1611 6.31641 68.0965 6.31641Z" fill="#BCD897"/>
<path d="M34.3222 5.00498C35.2096 4.97061 36.0723 5.1141 36.9029 5.43412L39.0469 6.26035C39.7645 6.53687 40.4715 6.81343 41.1672 7.0902L43.2447 7.91688C44.004 8.21893 44.7178 8.60504 45.3848 9.07479L47.2085 10.359C47.7205 10.7196 48.2149 10.9241 48.695 11.0034L50.6018 11.3184C50.9549 11.3767 51.331 11.2995 51.772 10.9768L53.5877 9.64832C54.232 9.1768 54.9107 8.75747 55.624 8.39115L57.6359 7.35779C58.3624 6.98471 59.1204 6.68922 59.9089 6.47109L62.0943 5.86641C62.8739 5.65078 63.6669 5.50366 64.4724 5.42555L66.731 5.20669C67.1114 5.1698 67.4159 5.14502 67.6353 5.13494C67.7417 5.13006 67.8501 5.12748 67.9448 5.13178C67.9888 5.13379 68.0606 5.13852 68.1397 5.15389C68.1786 5.16144 68.247 5.17703 68.3261 5.20895C68.359 5.2222 68.4247 5.2508 68.5018 5.30281C68.6766 5.30863 68.928 5.31199 69.2618 5.31048L71.5398 5.3001C72.3908 5.29624 73.2254 5.41819 74.0405 5.66561L76.2232 6.32804C76.9884 6.56035 77.7347 6.84091 78.4616 7.16917L80.5333 8.1046C81.2986 8.4502 82.0051 8.89126 82.6509 9.42631L84.3978 10.8735C84.9679 11.3458 85.5518 11.8048 86.1497 12.2507L87.9807 13.6161C88.7063 14.1572 89.2767 14.8381 89.6845 15.6495L90.715 17.6995C91.0375 18.3411 91.4056 18.9533 91.8196 19.5365L93.1434 21.4011C93.6507 22.1156 94.0129 22.9008 94.2278 23.7507L94.7884 25.9668C94.9952 26.7848 95.0912 27.6149 95.0759 28.4545L95.0346 30.7248C95.0208 31.4778 95.0114 32.2247 95.0067 32.9652L94.9928 35.198C94.9878 35.9969 94.9128 36.7914 94.7677 37.5806L94.3616 39.789C94.2113 40.6065 93.9554 41.3902 93.5944 42.1377L92.6196 44.1561C92.3055 44.8068 92.0127 45.4784 91.7419 46.1714L90.9041 48.3157C90.6596 48.9414 90.6268 49.3644 90.6791 49.6352L90.9728 51.1577C91.0458 51.5357 91.2325 52.029 91.5752 52.6495L92.6834 54.6562C93.077 55.3689 93.4105 56.1088 93.6833 56.875L94.451 59.0315C94.7202 59.7873 94.9412 60.5585 95.1136 61.3446L95.606 63.5887C95.7837 64.3991 95.8768 65.2209 95.8854 66.0525L95.9087 68.357C95.9178 69.2448 95.7593 70.1063 95.4348 70.9345L94.5907 73.0883C94.3316 73.7497 94.1423 74.4233 94.022 75.1095L93.629 77.3535C93.4792 78.2089 93.1864 79.0143 92.7517 79.7646L91.6116 81.7325C91.1974 82.4474 90.7105 83.1067 90.1517 83.7094L88.6159 85.3659C88.0898 85.9333 87.5468 86.4802 86.987 87.0066L85.3537 88.5427C84.768 89.0936 84.1359 89.5865 83.4581 90.021L81.5674 91.233C80.9027 91.6591 80.2107 92.0397 79.4921 92.3756L77.4459 93.3322C76.6682 93.6957 75.8499 93.9173 74.9959 93.9965L72.7495 94.2049C72.0467 94.2701 71.3451 94.3885 70.6445 94.5605L68.4128 95.1088C67.4969 95.3337 66.5822 95.2903 65.6907 94.9802L63.5165 94.2234C62.8307 93.9848 62.143 93.7973 61.4537 93.6598L59.2585 93.2221C58.4319 93.0573 57.649 92.7671 56.9132 92.3535L54.9578 91.2547C54.2676 90.8667 53.6106 90.4317 52.9867 89.9501L51.2208 88.5874C51.0377 88.4461 50.9072 88.4095 50.821 88.4033C50.7372 88.3973 50.6136 88.4142 50.432 88.5215L48.5656 89.6248C47.925 90.0034 47.2613 90.3649 46.5752 90.71L44.5699 91.7186C43.8655 92.0728 43.143 92.3783 42.4025 92.6346L40.2966 93.3638C39.5779 93.6126 38.8481 93.8414 38.1076 94.0511L35.9362 94.6661C35.1025 94.9021 34.2516 94.9784 33.3892 94.8949L31.1422 94.6774C30.3694 94.6026 29.6059 94.4984 28.8517 94.3642L26.6623 93.9748C25.8826 93.8361 25.1192 93.6338 24.3732 93.3683L22.2785 92.6229C21.5237 92.3542 20.8024 92.0146 20.1156 91.604L18.211 90.465C17.5534 90.0718 16.9126 89.6504 16.2888 89.2006L14.4808 87.897C13.8103 87.4135 13.2161 86.8472 12.6997 86.2003L11.3071 84.4562C10.8479 83.8809 10.3764 83.3059 9.89347 82.7315L8.42996 80.9906C7.8597 80.3123 7.44842 79.5439 7.20003 78.6928L6.56306 76.5102C6.34463 75.7617 6.15424 75.0105 5.99212 74.2571L5.52 72.0631C5.35003 71.2732 5.25743 70.4738 5.24239 69.6661L5.20062 67.4229C5.18605 66.6403 5.21551 65.8587 5.28911 65.0787L5.50024 62.8423C5.57634 62.0362 5.73101 61.2441 5.96382 60.4669L6.60978 58.31C6.84729 57.5171 7.17922 56.7661 7.60432 56.0587L8.75967 54.1355C9.13389 53.5128 9.49133 52.8691 9.83193 52.2046L10.8817 50.1568C10.9883 49.9488 10.9889 49.8285 10.9783 49.7652C10.9677 49.7014 10.9276 49.5865 10.7577 49.4227L9.09882 47.8225C8.43754 47.1847 7.96058 46.424 7.67664 45.5509L6.96645 43.3665C6.72419 42.6215 6.50531 41.8769 6.31061 41.1323L5.74056 38.9519C5.5389 38.1807 5.39533 37.3986 5.31022 36.6059L5.0699 34.3645C4.98315 33.5563 4.97713 32.7469 5.05193 31.9377L5.25946 29.6941C5.32978 28.9334 5.41619 28.1697 5.51911 27.4031L5.82277 25.141C5.936 24.2976 6.16805 23.4861 6.51814 22.7097L7.45788 20.6258C7.80687 19.8519 8.25664 19.1418 8.80549 18.4982L10.2816 16.7672C10.7702 16.1943 11.2513 15.6203 11.7244 15.0452L13.1543 13.3075C13.664 12.688 14.2248 12.1131 14.8356 11.5828L16.5529 10.0919C17.2194 9.51344 17.9762 9.08743 18.8165 8.81712L20.9848 8.11949C21.6449 7.90715 22.2806 7.62496 22.8926 7.27205L24.8947 6.11731C25.684 5.66215 26.5362 5.40478 27.4408 5.34928L29.7268 5.20895C30.4955 5.16181 31.2645 5.12325 32.0339 5.09343L34.3222 5.00498ZM34.3931 6.85194L32.1049 6.94038C31.3491 6.96967 30.5937 7.00734 29.8386 7.05365L27.5531 7.19399C26.9339 7.23196 26.3566 7.40599 25.8111 7.72059L23.8085 8.87534C23.0857 9.29215 22.3312 9.62719 21.5459 9.87981L19.3775 10.5774C18.7725 10.7721 18.2343 11.0755 17.7559 11.4908L16.0386 12.9812C15.5046 13.4448 15.016 13.9462 14.5724 14.4852L13.1426 16.223C12.6625 16.8065 12.1746 17.3887 11.6791 17.9698L10.203 19.7008C9.76768 20.2112 9.41183 20.773 9.13431 21.3884L8.19412 23.4723C7.9177 24.0853 7.73535 24.723 7.64609 25.3878L7.34243 27.6504C7.24288 28.392 7.15925 29.1302 7.09133 29.8651L6.88379 32.1087C6.82035 32.7951 6.82547 33.4807 6.89907 34.1664L7.13984 36.4073C7.21511 37.1085 7.34192 37.8004 7.52032 38.4826L8.09036 40.6626C8.27571 41.3714 8.48395 42.0814 8.7152 42.7925L9.42585 44.977C9.61546 45.56 9.92816 46.0607 10.3728 46.4895L12.0317 48.0897C12.4148 48.4592 12.7022 48.915 12.7931 49.4592C12.8841 50.0038 12.7604 50.529 12.5173 51.0034L11.4679 53.0507C11.1088 53.7513 10.7312 54.4315 10.335 55.0908L9.17923 57.0135C8.83395 57.5881 8.56482 58.1973 8.37156 58.8425L7.7256 60.9994C7.52766 61.6602 7.3967 62.3325 7.3321 63.0169L7.12097 65.2529C7.0539 65.9635 7.02685 66.6753 7.04012 67.3882L7.08189 69.6313C7.09469 70.3192 7.17338 70.9994 7.31817 71.6723L7.79029 73.8668C7.94293 74.5761 8.12231 75.284 8.32844 75.9903L8.96541 78.173C9.14161 78.7767 9.43063 79.3158 9.83597 79.798L11.2995 81.5389C11.7923 82.125 12.2732 82.712 12.7423 83.2996L14.1349 85.0442C14.5468 85.5601 15.0193 86.0102 15.5539 86.3957L17.3615 87.6989C17.9428 88.118 18.5398 88.5105 19.152 88.8766L21.0567 90.0156C21.6397 90.3641 22.2516 90.6527 22.893 90.8811L24.9877 91.6265C25.638 91.858 26.3031 92.034 26.983 92.1549L29.1725 92.5444C29.878 92.6698 30.5936 92.7675 31.3188 92.8377L33.5657 93.0552C34.2013 93.1167 34.8231 93.0607 35.4371 92.8869L37.6086 92.2722C38.3158 92.072 39.0122 91.8533 39.6974 91.6161L41.8028 90.8874C42.466 90.6578 43.1138 90.3841 43.7461 90.0661L45.7513 89.0576C46.4018 88.7304 47.0289 88.3882 47.6326 88.0314L49.499 86.9286C49.9396 86.6682 50.4299 86.5227 50.9513 86.5599C51.4705 86.597 51.9369 86.809 52.3421 87.1217L54.1074 88.4845C54.6604 88.9113 55.2435 89.2973 55.8566 89.6419L57.8116 90.7407C58.379 91.0597 58.9795 91.282 59.6165 91.409L61.8122 91.8467C62.5865 92.0011 63.3555 92.2115 64.1189 92.4771L66.2926 93.2334C66.8502 93.4274 67.4041 93.4536 67.9758 93.3133L70.2074 92.765C70.9945 92.5717 71.7858 92.438 72.5806 92.3643L74.827 92.1563C75.4706 92.0966 76.0833 91.9303 76.6697 91.6563L78.7158 90.7001C79.3613 90.3985 79.982 90.0567 80.5778 89.6749L82.468 88.4628C83.0506 88.0894 83.5935 87.6665 84.0964 87.1935L85.7293 85.6574C86.2582 85.16 86.7714 84.6428 87.2691 84.106L88.805 82.4495C89.27 81.948 89.6756 81.3994 90.0214 80.8024L91.1615 78.8345C91.4869 78.2729 91.7047 77.6739 91.8169 77.0332L92.21 74.7891C92.3519 73.9791 92.5753 73.1862 92.8788 72.4115L93.7224 70.2577C93.9605 69.6499 94.0754 69.0246 94.0688 68.376L94.0454 66.0714C94.0382 65.3669 93.9595 64.6723 93.8091 63.9867L93.3168 61.7422C93.1611 61.0321 92.9617 60.3362 92.7189 59.6543L91.9508 57.4977C91.7116 56.8263 91.4196 56.1779 91.0744 55.5529L89.9662 53.5466C89.5701 52.8295 89.2895 52.1465 89.1666 51.5097L88.8724 49.9872C88.7287 49.2431 88.8772 48.4439 89.1913 47.6402L90.0295 45.4959C90.3173 44.7596 90.6288 44.0441 90.9643 43.3493L91.9391 41.3309C92.2278 40.7329 92.4319 40.1077 92.5522 39.4532L92.9583 37.2448C93.0838 36.5619 93.1485 35.8758 93.1528 35.1862L93.1672 32.9535C93.1719 32.2054 93.1812 31.4512 93.1951 30.6909L93.2364 28.4207C93.2487 27.747 93.1718 27.0816 93.005 26.4221L92.4444 24.2056C92.2858 23.5779 92.0204 23.0025 91.6453 22.4741L90.3215 20.61C89.8531 19.9503 89.4367 19.2575 89.0723 18.5325L88.0422 16.4825C87.7631 15.9272 87.3793 15.4695 86.8842 15.1003L85.0532 13.7348C84.4304 13.2704 83.8216 12.7919 83.2272 12.2994L81.4802 10.8523C80.9615 10.4225 80.3951 10.0687 79.7791 9.79047L77.7069 8.85503C77.0525 8.55948 76.3806 8.30678 75.6909 8.09738L73.5082 7.43495C72.8683 7.24071 72.216 7.14538 71.5483 7.14841L69.2699 7.15879C68.8864 7.16053 68.5805 7.15686 68.3612 7.14751C68.2546 7.14296 68.1487 7.13653 68.0575 7.12494C68.0148 7.11951 67.9481 7.10972 67.876 7.09065C67.8406 7.08127 67.7797 7.06314 67.7098 7.03109C67.6926 7.02318 67.664 7.00848 67.6276 6.98731C67.4575 6.99752 67.2192 7.01621 66.9075 7.04643L64.6489 7.26528C63.9488 7.33319 63.2604 7.46103 62.583 7.64839L60.3977 8.25306C59.7293 8.43794 59.0879 8.68778 58.4733 9.00349L56.4617 10.0368C55.8338 10.3594 55.2371 10.7278 54.6712 11.142L52.8555 12.4704C52.0863 13.0334 51.2218 13.294 50.3036 13.1423L48.3962 12.8274C47.605 12.6967 46.8557 12.3681 46.152 11.8725L44.3287 10.5883C43.78 10.2018 43.1932 9.88423 42.5673 9.63524L40.4893 8.80855C39.8 8.53431 39.0995 8.2601 38.3879 7.98593L36.2439 7.15969C35.6453 6.92907 35.0308 6.82725 34.3931 6.85194Z" fill="black"/>
<path d="M70.2177 50.1254C70.2177 61.2221 61.2221 70.2177 50.1254 70.2177C39.0288 70.2177 30.0332 61.2221 30.0332 50.1254C30.0332 39.0288 39.0288 30.0332 50.1254 30.0332C61.2221 30.0332 70.2177 39.0288 70.2177 50.1254Z" fill="url(#paint0_radial_3647_3609)"/>
<path d="M33.5218 34.5215C32.9337 33.911 32.952 32.9393 33.5625 32.3512C34.1731 31.7632 35.1447 31.7814 35.7328 32.3919L43.5073 40.4637C44.0954 41.0743 44.0771 42.0459 43.4666 42.634C42.856 43.2221 41.8844 43.2038 41.2963 42.5933L33.5218 34.5215Z" fill="#7F9168"/>
<path d="M66.6556 64.7137C67.2185 65.3475 67.161 66.3177 66.5272 66.8806C65.8934 67.4435 64.9232 67.386 64.3603 66.7522L56.9184 58.3728C56.3554 57.739 56.4129 56.7689 57.0467 56.206C57.6805 55.6431 58.6507 55.7006 59.2136 56.3344L66.6556 64.7137Z" fill="#7F9168"/>
<path d="M65.4527 32.7598C66.0883 32.1989 67.0582 32.2594 67.6191 32.895C68.1801 33.5305 68.1195 34.5005 67.484 35.0614L59.0813 42.477C58.4457 43.038 57.4758 42.9774 56.9149 42.3419C56.354 41.7063 56.4145 40.7363 57.0501 40.1754L65.4527 32.7598Z" fill="#7F9168"/>
<path d="M35.6194 64.883C34.9753 65.4341 34.0064 65.3587 33.4553 64.7146C32.9042 64.0704 32.9797 63.1015 33.6238 62.5505L42.1395 55.2649C42.7836 54.7138 43.7525 54.7892 44.3036 55.4334C44.8547 56.0775 44.7792 57.0464 44.1351 57.5975L35.6194 64.883Z" fill="#7F9168"/>
<defs>
<radialGradient id="paint0_radial_3647_3609" cx="0" cy="0" r="1" gradientUnits="userSpaceOnUse" gradientTransform="translate(50.1254 50.1254) rotate(90) scale(20.0922)">
<stop offset="0.552885" stop-color="#E1F6C5"/>
<stop offset="1" stop-color="#E1F6C5" stop-opacity="0"/>
</radialGradient>
</defs>
</svg>
