<svg width="100" height="100" viewBox="0 0 100 100" fill="none" xmlns="http://www.w3.org/2000/svg">
<path d="M70.5544 51.8148C71.8704 48.6248 71.7417 45.2202 70.0966 42.1876C67.2213 36.8089 61.0988 33.9193 55.1193 34.0194C55.062 33.9908 55.0477 33.9193 54.9619 33.905C48.9824 32.3886 42.4307 34.3913 38.082 38.7257C33.7332 43.0602 32.2741 49.7406 33.9907 55.7058C35.7073 61.671 40.6569 66.4632 46.9225 67.7077C50.041 68.3228 53.3597 68.1655 56.3924 67.1355C59.6253 66.034 62.3004 63.9884 64.489 61.3992C65.705 59.9687 66.7492 58.4381 67.7649 56.8502C68.7806 55.2624 69.8248 53.6173 70.5544 51.8435V51.8148Z" fill="#E95259"/>
<path d="M41.4296 25.764C43.5896 25.3348 44.3621 18.7831 44.4193 17.3097C44.4622 16.0938 44.3335 14.8921 44.0617 13.7048C43.8185 12.632 43.4466 11.5305 42.6312 10.7437C41.8158 9.95692 40.514 9.67082 39.5699 10.5005C38.7545 11.2301 38.5399 12.5604 38.3397 13.6047C37.9248 15.822 37.982 18.1108 38.4684 20.3138C38.683 21.2865 39.4841 25.0344 40.4425 25.578C40.8001 25.7783 41.1149 25.8355 41.4153 25.7783L41.4296 25.764Z" fill="#E95259"/>
<path d="M67.1924 27.3793C65.7619 27.8084 64.9751 27.0216 65.9907 23.7029C66.6345 21.6 67.8647 19.6975 69.6099 18.3528C71.4409 16.9366 75.0744 15.1771 75.3605 18.8678C75.4464 19.9407 74.8455 20.9563 74.1732 21.8146C72.9573 23.3882 69.3381 26.7355 67.178 27.3793H67.1924Z" fill="#E95259"/>
<path d="M23.7916 41.0572C22.0463 39.7554 18.5988 38.983 16.9681 38.8399C14.5219 38.6253 9.20044 40.3706 10.1017 43.8467C11.1316 47.8235 21.7889 46.4788 24.0061 44.3331C25.3508 43.0313 24.9503 41.9298 23.7916 41.0572Z" fill="#E95259"/>
<path d="M22.7902 62.5572C22.7902 62.5572 22.6901 62.5572 22.6329 62.5858C20.53 62.9292 18.3986 63.2725 16.4817 64.2023C14.5649 65.1321 12.8626 66.7343 12.3333 68.7942C11.4607 72.1702 13.6064 74.3589 16.5389 73.2002C19.4715 72.0558 23.8631 66.8058 24.0491 63.5729C24.0491 63.3297 24.0491 63.0579 23.9203 62.8433C23.6771 62.5 23.2051 62.5 22.7902 62.5429V62.5572Z" fill="#E95259"/>
<path d="M45.0918 74.2711C45.0918 74.2711 45.0203 74.3712 44.9773 74.4141C43.3895 76.5312 41.7873 79.9072 41.1007 82.4678C40.8575 83.369 40.6572 84.3561 40.6572 85.2859C40.6572 88.619 44.5339 90.5502 46.5366 87.775C48.5393 84.9998 47.3806 77.9617 46.4937 74.8433C46.3792 74.4284 46.1504 73.942 45.7212 73.9277C45.4637 73.9277 45.2491 74.0851 45.0775 74.2854L45.0918 74.2711Z" fill="#E95259"/>
<path d="M74.7745 70.3243C73.015 69.0511 70.9407 68.5648 68.8379 68.293C68.3086 68.7221 68.4231 69.5375 68.5947 70.1955C69.453 73.4714 70.7691 76.6185 72.4714 79.5367C74.6457 83.2417 78.0789 82.9413 78.551 78.564C78.88 75.4598 77.2922 72.1553 74.7888 70.3386L74.7745 70.3243Z" fill="#E95259"/>
<path d="M88.3643 47.7079C87.6348 47.3932 86.8051 47.3789 86.0326 47.3789C83.7295 47.3932 81.455 47.4218 79.1519 47.4361C79.0947 47.4218 79.0375 47.4361 78.9803 47.4361C78.9373 47.4361 78.8944 47.4361 78.8658 47.4361C78.8372 47.4361 78.8229 47.4647 78.8086 47.4647C78.7085 47.479 78.6083 47.4504 78.5082 47.5077C78.4653 47.5363 78.451 47.5935 78.4224 47.6221C78.2936 47.7079 78.2221 47.8224 78.1649 47.9654C78.1649 47.994 78.1506 48.0083 78.1363 48.0226C78.1077 48.1085 78.0361 48.1657 78.0361 48.2658C78.0361 48.6091 78.265 48.838 78.5654 48.9668C79.5382 50.2113 80.7398 51.2699 82.1703 51.9279C83.7581 52.6575 85.5177 53.1581 87.1627 52.7147C88.5646 52.3571 90.1954 51.2413 89.9808 49.5962C89.8521 48.6664 89.2083 48.0083 88.3787 47.6793L88.3643 47.7079Z" fill="#E95259"/>
</svg>
