<svg width="100" height="100" viewBox="0 0 100 100" fill="none" xmlns="http://www.w3.org/2000/svg">
<circle cx="49.7972" cy="49.9999" r="25.3807" fill="#F6AF2F"/>
<path d="M48.945 11.8274C49.4139 11.0152 50.5862 11.0152 51.0551 11.8274L55.2754 19.1371C55.7443 19.9492 55.1581 20.9645 54.2203 20.9645H45.7799C44.842 20.9645 44.2559 19.9492 44.7248 19.1371L48.945 11.8274Z" fill="#FE9331"/>
<path d="M48.945 88.1726C49.4139 88.9848 50.5862 88.9848 51.0551 88.1726L55.2754 80.8629C55.7443 80.0508 55.1581 79.0355 54.2203 79.0355H45.7799C44.842 79.0355 44.2559 80.0508 44.7248 80.8629L48.945 88.1726Z" fill="#FE9331"/>
<path d="M11.8274 51.054C11.0152 50.5851 11.0152 49.4128 11.8274 48.9439L19.1371 44.7237C19.9492 44.2548 20.9645 44.8409 20.9645 45.7787L20.9645 54.2192C20.9645 55.157 19.9492 55.7431 19.1371 55.2742L11.8274 51.054Z" fill="#FE9331"/>
<path d="M88.1726 51.054C88.9848 50.5851 88.9848 49.4128 88.1726 48.9439L80.8629 44.7237C80.0508 44.2548 79.0355 44.8409 79.0355 45.7787L79.0355 54.2192C79.0355 55.157 80.0508 55.7431 80.8629 55.2742L88.1726 51.054Z" fill="#FE9331"/>
<path d="M31.8276 83.585C31.0155 84.054 30.0002 83.4678 30.0002 82.53L30.0002 74.0895C30.0002 73.1517 31.0155 72.5656 31.8276 73.0345L39.1373 77.2547C39.9495 77.7236 39.9495 78.8959 39.1373 79.3648L31.8276 83.585Z" fill="#FE9331"/>
<path d="M70.0002 17.469C70.0002 16.5311 68.985 15.945 68.1728 16.4139L60.8632 20.6341C60.051 21.103 60.051 22.2753 60.8632 22.7442L68.1728 26.9645C68.985 27.4334 70.0002 26.8472 70.0002 25.9094L70.0002 17.469Z" fill="#FE9331"/>
<path d="M17.4695 69.9997C16.5316 69.9997 15.9455 68.9845 16.4144 68.1723L20.6346 60.8627C21.1035 60.0505 22.2758 60.0505 22.7447 60.8627L26.965 68.1723C27.4339 68.9845 26.8477 69.9997 25.9099 69.9997L17.4695 69.9997Z" fill="#FE9331"/>
<path d="M83.586 31.8291C84.0549 31.0169 83.4688 30.0017 82.531 30.0017L74.0905 30.0017C73.1527 30.0017 72.5665 31.0169 73.0355 31.8291L77.2557 39.1387C77.7246 39.9509 78.8969 39.9509 79.3658 39.1387L83.586 31.8291Z" fill="#FE9331"/>
<path d="M88.1726 48.946C88.9848 49.4149 88.9848 50.5872 88.1726 51.0561L80.8629 55.2763C80.0508 55.7452 79.0355 55.1591 79.0355 54.2213L79.0355 45.7808C79.0355 44.843 80.0508 44.2569 80.8629 44.7258L88.1726 48.946Z" fill="#FE9331"/>
<path d="M11.8274 48.946C11.0152 49.4149 11.0152 50.5872 11.8274 51.0561L19.1371 55.2763C19.9492 55.7452 20.9645 55.1591 20.9645 54.2213L20.9645 45.7808C20.9645 44.843 19.9492 44.2569 19.1371 44.7258L11.8274 48.946Z" fill="#FE9331"/>
<path d="M16.414 31.8272C15.9451 31.015 16.5312 29.9997 17.469 29.9997L25.9095 29.9997C26.8473 29.9997 27.4335 31.015 26.9645 31.8272L22.7443 39.1368C22.2754 39.949 21.1031 39.949 20.6342 39.1368L16.414 31.8272Z" fill="#FE9331"/>
<path d="M82.5305 69.9997C83.4684 69.9997 84.0545 68.9845 83.5856 68.1723L79.3654 60.8627C78.8965 60.0505 77.7242 60.0505 77.2553 60.8627L73.035 68.1723C72.5661 68.9845 73.1523 69.9997 74.0901 69.9997L82.5305 69.9997Z" fill="#FE9331"/>
<path d="M30.0003 17.469C30.0003 16.5311 31.0155 15.945 31.8277 16.4139L39.1373 20.6341C39.9495 21.103 39.9495 22.2753 39.1373 22.7442L31.8277 26.9645C31.0155 27.4334 30.0003 26.8472 30.0003 25.9094L30.0003 17.469Z" fill="#FE9331"/>
<path d="M68.1719 83.585C68.9841 84.054 69.9993 83.4678 69.9993 82.53L69.9993 74.0895C69.9993 73.1517 68.9841 72.5656 68.1719 73.0345L60.8622 77.2547C60.05 77.7236 60.05 78.8959 60.8622 79.3648L68.1719 83.585Z" fill="#FE9331"/>
</svg>
