<svg width="100" height="100" viewBox="0 0 100 100" fill="none" xmlns="http://www.w3.org/2000/svg">
<path d="M49.8946 30.873C54.1667 30.8731 57.8567 33.3643 59.5917 36.9732C60.7097 36.5794 61.9121 36.3645 63.1648 36.3645C64.0218 36.3645 64.8554 36.4652 65.6545 36.6546C67.317 35.6013 69.2882 34.9913 71.4019 34.9913C77.3409 34.9913 82.1553 39.806 82.1553 45.745V46.5484C86.2031 48.3797 89.0194 52.4535 89.0194 57.1851C89.0194 63.6296 83.7952 68.854 77.3508 68.8541H73.9186V68.8544H58.2999C58.2915 68.8544 58.283 68.8541 58.2746 68.8541H50.581V68.8544H34.962C34.9535 68.8544 34.9451 68.8541 34.9367 68.8541H22.4382C15.9937 68.854 10.7695 63.6296 10.7695 57.1851C10.7696 52.4535 13.5857 48.3797 17.6334 46.5484V45.745C17.6334 39.806 22.448 34.9913 28.3871 34.9913C30.9669 34.9913 33.3341 35.9002 35.1871 37.4146C36.5919 36.7416 38.1655 36.3645 39.8272 36.3645C40.054 36.3645 40.2792 36.3722 40.5026 36.3861C42.3418 33.097 45.8584 30.873 49.8946 30.873Z" fill="#8AC97E"/>
<path d="M48.465 30.0523C48.664 30.0104 48.8943 29.9812 49.1183 30.0143L49.4127 30.058L49.7074 30.1014C49.8393 30.1209 50.1337 30.1344 50.6352 30.1288L52.1341 30.1118C52.7541 30.1048 53.3451 30.2449 53.8966 30.5293L55.2316 31.2179C55.7465 31.4834 56.2045 31.8223 56.602 32.234L57.6236 33.2918C57.9719 33.6526 58.3108 34.0202 58.64 34.3945L59.6049 35.4914C59.8173 35.7329 60.0067 35.8076 60.1886 35.8146L61.4408 35.8626C61.8724 35.8791 62.3292 35.9094 62.8108 35.9532L64.2223 36.0811C64.5362 36.1096 64.8433 36.0461 65.1599 35.8698L66.473 35.1386C66.9878 34.8519 67.5364 34.665 68.1148 34.5811L69.58 34.3686C70.1143 34.2911 70.6485 34.265 71.1818 34.2904L72.639 34.3597C73.213 34.3871 73.7643 34.5151 74.2886 34.7433L75.6138 35.3197C76.0987 35.5308 76.5558 35.785 76.9841 36.0823L78.148 36.8902C78.5809 37.1907 78.976 37.5355 79.3323 37.9244L80.2907 38.9707C80.6687 39.3833 80.9647 39.8498 81.1762 40.367L81.7119 41.6767C81.8855 42.101 82.0769 42.5357 82.2858 42.9812L82.9273 44.3489C83.1391 44.8005 83.3305 45.1966 83.5018 45.5378L84.0265 46.5833C84.1572 46.8438 84.3616 47.1202 84.6585 47.4091L85.6872 48.4099C86.0626 48.7752 86.3997 49.1701 86.6976 49.5945L87.511 50.7536C87.8077 51.1763 88.0648 51.6238 88.2822 52.0952L88.8794 53.3899C89.0947 53.8568 89.2751 54.3451 89.4213 54.8543L89.8302 56.2778C89.994 56.8483 90.0392 57.4324 89.9662 58.0237L89.7836 59.5047C89.7162 60.0506 89.5912 60.5848 89.4093 61.1065L88.9147 62.5246C88.7127 63.1038 88.3908 63.6119 87.9535 64.041L86.8845 65.0899C86.5195 65.448 86.1512 65.7916 85.7795 66.1207L84.6938 67.0822C84.3041 67.4272 83.8859 67.7451 83.4399 68.0359L82.1898 68.8507C81.661 69.1954 81.0742 69.3814 80.4433 69.4039L78.9511 69.4571C78.4798 69.474 78.0151 69.5156 77.5569 69.5819L76.1023 69.7927C75.5403 69.874 74.9769 69.8658 74.4154 69.7688L72.9582 69.5172C72.5329 69.4438 72.1094 69.4245 71.6862 69.4591L70.2287 69.5785C69.6921 69.6223 69.1554 69.6102 68.6194 69.5428L67.1619 69.3597C66.7344 69.3059 66.3075 69.3033 65.8802 69.3522L64.4227 69.5189C63.9282 69.5755 63.4336 69.6229 62.9391 69.6616L61.4816 69.7754C60.9381 69.8179 60.3947 69.7963 59.8527 69.7113L58.3953 69.4827C57.9604 69.4145 57.5266 69.3927 57.0934 69.4172L55.6359 69.4994C55.1295 69.5279 54.6231 69.5352 54.1166 69.521L52.6591 69.4798C52.1657 69.466 51.6721 69.4445 51.1787 69.4151L49.7215 69.3286C49.3111 69.3042 48.8987 69.342 48.4822 69.4436L47.0251 69.7993C46.4277 69.9451 45.8249 69.9488 45.2266 69.8099L43.7691 69.4715C43.38 69.3812 42.9956 69.3719 42.6095 69.4419L41.1521 69.7061C40.5729 69.8112 39.9918 69.8034 39.414 69.6837L37.9565 69.3818C37.564 69.3005 37.1748 69.2965 36.7834 69.3694L35.3259 69.6409C34.7681 69.7448 34.208 69.7644 33.6479 69.6987L32.1905 69.5276C31.7658 69.4777 31.3417 69.4812 30.9167 69.5382L29.4592 69.7337C28.8893 69.8101 28.319 69.7881 27.7522 69.6688L26.295 69.3617C25.8683 69.2718 25.4441 69.2366 25.0213 69.255L23.5638 69.3185C23.0606 69.3405 22.5596 69.3444 22.0609 69.3303L20.6181 69.2895C20.0638 69.2738 19.5219 69.1768 18.9947 68.9991L17.6195 68.5353C17.079 68.3531 16.5855 68.0824 16.1428 67.7251L15.0188 66.8179C14.6473 66.518 14.2686 66.2171 13.8828 65.9154L12.7166 65.0036C12.2366 64.6283 11.8642 64.1607 11.6053 63.6086L10.9756 62.2652C10.7438 61.7709 10.5662 61.2584 10.4434 60.7287L10.1102 59.2916C9.97615 58.7134 9.96422 58.1304 10.0754 57.5492L10.3508 56.1102C10.4423 55.6323 10.5309 55.159 10.6171 54.6904L10.8767 53.2789C10.9783 52.7267 11.1694 52.204 11.4483 51.7139L12.1637 50.4568C12.448 49.9573 12.8152 49.5265 13.2626 49.169L14.3845 48.2725C14.7592 47.9731 15.1342 47.6746 15.5093 47.3771L16.6327 46.4864C16.8517 46.3128 16.9758 46.097 17.014 45.7949L17.1986 44.3331C17.2619 43.8314 17.34 43.3321 17.4329 42.8354L17.7037 41.3883C17.8211 40.7611 18.1089 40.2121 18.558 39.7586L19.5948 38.7117C19.9168 38.3865 20.2186 38.0375 20.4999 37.6645L21.4025 36.4681C21.7903 35.9539 22.2951 35.5843 22.9022 35.3709L24.3117 34.8752C24.8003 34.7035 25.2958 34.5516 25.7979 34.4195L27.247 34.0382C27.8195 33.8876 28.4035 33.8467 28.9943 33.9152L30.4961 34.0894C31.0626 34.1552 31.6109 34.2957 32.1393 34.5104L33.5398 35.0794C34.0221 35.2753 34.4726 35.4781 34.8909 35.6875L36.0884 36.287C36.3095 36.3976 36.5464 36.4237 36.8412 36.3382L38.2181 35.9388C38.6308 35.8191 39.0041 35.6669 39.3401 35.4845L40.4988 34.8557C40.8017 34.6912 41.0883 34.4616 41.3571 34.1567L42.3177 33.067C42.7002 32.633 43.1521 32.2845 43.6693 32.0247L44.9687 31.372C45.4278 31.1414 45.9015 30.9376 46.3893 30.7604L47.7729 30.2581C48.0226 30.1675 48.2553 30.0964 48.465 30.0523ZM48.9118 31.4721C48.9084 31.4725 48.8658 31.4725 48.7683 31.4931C48.6493 31.5181 48.4869 31.5653 48.2755 31.642L46.8917 32.1443C46.4572 32.302 46.0365 32.4833 45.6294 32.6877L44.3301 33.3401C43.9811 33.5154 43.6798 33.7478 43.4221 34.0403L42.4617 35.13C42.0903 35.5514 41.6704 35.8947 41.2009 36.1495L40.0422 36.7784C39.6058 37.0153 39.1337 37.206 38.6284 37.3526L37.2512 37.7519C36.628 37.9327 36.0066 37.8922 35.4294 37.6033L34.2319 37.0038C33.852 36.8136 33.4367 36.6264 32.9855 36.4431L31.5852 35.8741C31.18 35.7094 30.7609 35.6022 30.3264 35.5518L28.8247 35.3775C28.4145 35.33 28.0151 35.3583 27.6217 35.4618L26.1725 35.843C25.7086 35.9651 25.251 36.1057 24.7999 36.2643L23.3901 36.7597C23.0575 36.8766 22.7914 37.0711 22.5776 37.3546L21.6753 38.551C21.355 38.9757 21.01 39.3745 20.6408 39.7474L19.604 40.7945C19.3619 41.039 19.2137 41.3216 19.1506 41.6591L18.88 43.1062C18.7924 43.5742 18.7186 44.0446 18.6589 44.5174L18.4743 45.9792C18.3894 46.6516 18.0772 47.2198 17.5473 47.6399L16.424 48.5307C16.0502 48.827 15.6767 49.1244 15.3035 49.4226L14.1815 50.3191C13.881 50.5592 13.6358 50.8464 13.4432 51.1849L12.7278 52.4419C12.5299 52.7898 12.3962 53.1565 12.3247 53.5452L12.0651 54.9566C11.9782 55.4288 11.8886 55.9055 11.7965 56.3868L11.5214 57.8258C11.449 58.204 11.4563 58.5796 11.5444 58.9593L11.8776 60.3963C11.9769 60.8246 12.1202 61.239 12.3083 61.6402L12.9383 62.9835C13.0993 63.3269 13.3257 63.6111 13.6232 63.8438L14.7897 64.7558C15.1813 65.062 15.5659 65.3676 15.9435 65.6724L17.0674 66.5796C17.374 66.827 17.7136 67.0136 18.0899 67.1405L19.4651 67.604C19.8548 67.7354 20.2522 67.8064 20.6598 67.8179L22.1026 67.8588C22.5657 67.8719 23.0313 67.8683 23.4997 67.8478L24.9572 67.7843C25.5059 67.7604 26.0534 67.8064 26.5984 67.9212L28.0558 68.2282C28.4606 68.3135 28.8621 68.3287 29.2637 68.2748L30.7212 68.0793C31.2677 68.006 31.8152 68.0013 32.3621 68.0655L33.8196 68.2366C34.2311 68.2849 34.6425 68.2708 35.0562 68.1937L36.5137 67.9223C37.0939 67.8142 37.6762 67.8204 38.2552 67.9404L39.7127 68.2423C40.1065 68.3239 40.4971 68.3287 40.8895 68.2576L42.3467 67.9933C42.9323 67.8872 43.5196 67.9024 44.1021 68.0376L45.5595 68.3757C45.9327 68.4623 46.3016 68.4604 46.6757 68.3691L48.1332 68.0135C48.6883 67.878 49.2478 67.8257 49.8089 67.8591L51.2661 67.9456C51.7442 67.974 52.2224 67.9949 52.7005 68.0083L54.1577 68.0494C54.6228 68.0625 55.0879 68.0558 55.5531 68.0296L57.0106 67.9473C57.5489 67.917 58.0869 67.9442 58.6236 68.0284L60.0808 68.257C60.5104 68.3244 60.9388 68.3413 61.3669 68.3079L62.8243 68.194C63.3013 68.1568 63.7783 68.1109 64.2553 68.0563L65.7128 67.8895C66.257 67.8273 66.8017 67.8306 67.3457 67.899L68.8031 68.0822C69.2388 68.137 69.6738 68.1468 70.1088 68.1112L71.566 67.9919C72.1143 67.9471 72.6624 67.972 73.2086 68.0664L74.6661 68.3182C75.076 68.389 75.4834 68.3945 75.8912 68.3355L77.3461 68.125C77.8576 68.051 78.3751 68.0049 78.8985 67.9861L80.3907 67.9327C80.7544 67.9196 81.0814 67.816 81.3859 67.6175L82.636 66.8027C83.0233 66.5502 83.3838 66.2759 83.718 65.9801L84.8037 65.0186C85.1559 64.7067 85.5058 64.3801 85.8534 64.039L86.9224 62.9901C87.1977 62.72 87.3971 62.4059 87.5248 62.0398L88.0194 60.6217C88.1671 60.1981 88.2679 59.7659 88.3224 59.3244L88.5053 57.8434C88.5542 57.4472 88.524 57.0626 88.4153 56.6841L88.0064 55.2605C87.8801 54.8206 87.7251 54.4027 87.5424 54.0063L86.9452 52.7116C86.7645 52.3198 86.5516 51.9491 86.306 51.5992L85.4926 50.4404C85.2482 50.0923 84.9712 49.7672 84.6608 49.4652L83.632 48.464C83.2431 48.0856 82.9298 47.6798 82.7108 47.2434L82.186 46.1983C82.0076 45.8427 81.8105 45.4344 81.5946 44.9743L80.9528 43.6065C80.7341 43.1402 80.5328 42.6826 80.3493 42.2339L79.8137 40.9245C79.6681 40.5687 79.4662 40.2498 79.2053 39.965L78.2469 38.919C77.9643 38.6105 77.6517 38.3376 77.3087 38.0995L76.1448 37.2916C75.7973 37.0504 75.4247 36.843 75.0264 36.6697L73.7011 36.0929C73.3421 35.9367 72.9662 35.8493 72.5689 35.8304L71.1117 35.7608C70.6738 35.7399 70.2339 35.7613 69.7914 35.8255L68.3261 36.038C67.9277 36.0958 67.5499 36.2239 67.1893 36.4247L65.8761 37.1559C65.3174 37.467 64.7161 37.6042 64.0892 37.5472L62.6777 37.4193C62.2184 37.3775 61.7874 37.349 61.3844 37.3336L60.1322 37.2856C59.4795 37.2605 58.9301 36.9536 58.4994 36.4638L57.5344 35.3666C57.2204 35.0096 56.8972 34.6587 56.5646 34.3143L55.543 33.2565C55.2595 32.9629 54.9319 32.7196 54.5568 32.5261L53.2221 31.8378C52.8837 31.6633 52.5299 31.5797 52.1508 31.5839L50.6519 31.6006C50.1544 31.6062 49.7529 31.5963 49.492 31.5578L48.9118 31.4721Z" fill="black"/>
</svg>
