<svg width="100" height="100" viewBox="0 0 100 100" fill="none" xmlns="http://www.w3.org/2000/svg">
<path d="M49.0558 42.5215C51.197 42.5215 52.9328 44.2573 52.9328 46.3985V65.2363C54.2743 62.5692 56.1965 59.9447 58.7572 57.6334C66.3533 50.7768 75.8918 48.9637 80.0619 53.5836C84.2319 58.2035 81.4547 67.5069 73.8586 74.3635C66.8405 80.6983 59.4762 82.2881 52.9328 80.0493V91.5739C52.9328 93.7151 51.197 95.4509 49.0558 95.4509C46.9146 95.4509 45.1788 93.7151 45.1788 91.5739V88.1042C38.8819 89.8748 31.8942 88.1422 25.2196 82.1175C17.6236 75.2609 14.8463 65.9574 19.0163 61.3376C23.1864 56.7177 32.7249 58.5308 40.321 65.3874C42.3202 67.192 43.9302 69.1875 45.1788 71.245V46.3985C45.1788 44.2573 46.9146 42.5215 49.0558 42.5215Z" fill="#8AC97E"/>
<path d="M48.6264 41.6034C48.8955 41.5216 49.1334 41.5647 49.2045 41.5774C49.3258 41.5991 49.4431 41.6344 49.543 41.6686C49.7463 41.7383 49.9901 41.8427 50.2607 41.9695L51.812 42.6964C52.5828 43.0576 53.1239 43.6705 53.4186 44.4683L54.0415 46.1546C54.3063 46.8715 54.3883 47.6144 54.2825 48.3684L54.0356 50.1281C53.9592 50.6728 53.9174 51.2169 53.9105 51.7604L53.8881 53.5202C53.8811 54.0712 53.9033 54.6224 53.9543 55.1739L54.1169 56.9339C54.1781 57.5947 54.1664 58.2557 54.0817 58.9155L53.8559 60.6753C53.8207 60.9494 53.8062 61.2232 53.8108 61.497C53.9601 61.3148 54.124 61.1388 54.301 60.9693L55.584 59.7406C55.9995 59.3427 56.4013 58.9381 56.789 58.5271L57.988 57.2559C58.4508 56.7653 58.9724 56.3446 59.5505 55.9959L61.0492 55.0919C61.526 54.8043 61.9893 54.499 62.4392 54.1763L63.8545 53.1613C64.3838 52.7816 64.9475 52.4605 65.5448 52.199L67.1429 51.4993C67.7029 51.2541 68.2761 51.0327 68.8624 50.835L70.5389 50.2693C71.2449 50.0312 71.9728 49.9613 72.7101 50.0616L74.4567 50.2993C75.0651 50.3821 75.668 50.4887 76.2651 50.6187L77.9784 50.9913C78.7725 51.1641 79.4431 51.5748 79.9574 52.2039L81.0666 53.5606C81.495 54.0845 81.8471 54.6599 82.1221 55.2842L82.8385 56.9096C83.1584 57.6356 83.2498 58.4029 83.1115 59.1849L82.8007 60.941C82.6853 61.5927 82.5073 62.2215 82.266 62.8258L81.6207 64.4417C81.3889 65.022 81.1202 65.5828 80.8144 66.1237L79.9647 67.6269C79.6676 68.1524 79.3491 68.665 79.0093 69.1644L78.0367 70.5936C77.7358 71.0357 77.4531 71.5091 77.1893 72.0146L76.3461 73.6301C75.9897 74.313 75.492 74.8777 74.8597 75.3095L73.3827 76.3182C72.8626 76.6734 72.3291 76.9996 71.7827 77.2967L70.2347 78.1385C69.77 78.3912 69.324 78.6858 68.8967 79.0229L67.4826 80.138C66.926 80.577 66.3121 80.9179 65.6449 81.1586L63.949 81.7703C63.2077 82.0376 62.4373 82.0927 61.6583 81.9415L59.8439 81.5889C59.2908 81.4815 58.7606 81.4235 58.2527 81.4124L56.544 81.3752C56.0227 81.3638 55.5373 81.3906 55.0865 81.4532L53.7275 81.6415L53.843 83.3407C53.8861 83.9736 53.8857 84.6068 53.8414 85.2397L53.7182 86.9997C53.6847 87.4791 53.726 87.9607 53.8453 88.4483L54.2756 90.2084C54.4789 91.0395 54.3735 91.859 53.9829 92.6233L53.1299 94.2922C52.7076 95.1185 52.0001 95.6642 51.0492 95.7477L49.3645 95.8955C48.5877 95.9636 47.8506 95.7888 47.2252 95.319L46.0229 94.4159C45.4154 93.9597 45.0304 93.3288 44.8482 92.5894L44.4498 90.9725C44.3464 90.5528 44.2067 90.344 44.1002 90.2433L43.2241 89.4156C43.204 89.3967 43.0835 89.2968 42.6618 89.3155L40.934 89.3922C40.2803 89.4212 39.6327 89.3751 38.9928 89.2533L37.3055 88.9323C36.806 88.8373 36.2797 88.786 35.7252 88.7805L33.8931 88.7628C33.0224 88.7542 32.2488 88.4354 31.6227 87.8301L30.3002 86.5513C29.924 86.1876 29.5233 85.8957 29.0979 85.6703L27.5558 84.8538C26.9864 84.5523 26.4485 84.1997 25.9425 83.7973L24.57 82.7059C24.0365 82.2817 23.5728 81.789 23.181 81.2303L22.1722 79.7923C21.8997 79.4038 21.5612 79.0545 21.1503 78.7447L19.677 77.6335C19.0575 77.1664 18.5781 76.5806 18.2527 75.8837L17.4919 74.2543C17.1876 73.6025 17.0054 72.915 16.946 72.1976L16.7976 70.403C16.7526 69.8588 16.6648 69.3269 16.5345 68.8069L16.1026 67.0847C15.8968 66.2637 16.0007 65.4563 16.4147 64.7182L17.2726 63.1889C17.5774 62.6457 17.9059 62.1322 18.259 61.6495L19.2431 60.3042C19.7013 59.6777 20.3177 59.2418 21.0601 59.0074L22.6871 58.4935C23.2507 58.3155 23.8364 58.1513 24.4439 58.0003L26.2095 57.5614C27.0032 57.3642 27.7946 57.418 28.5527 57.7228L30.2311 58.3973C30.8039 58.6277 31.3635 58.867 31.9095 59.1151L33.5056 59.84C34.0118 60.07 34.5348 60.2819 35.0747 60.4758L36.7699 61.0845C37.4574 61.3314 38.0753 61.6997 38.6165 62.1864L39.9453 63.3819C40.3885 63.7805 40.8308 64.1786 41.2718 64.5763L42.5939 65.7688C43.1402 66.2614 43.5669 66.8498 43.8707 67.5249L43.9197 67.6342L44.1248 66.256C44.1974 65.7681 44.1971 65.2816 44.1245 64.7936L43.8628 63.0339C43.7625 62.3601 43.751 61.6847 43.8285 61.0098L44.0307 59.25C44.0881 58.7505 44.0806 58.2513 44.008 57.7507L43.7525 55.991C43.6545 55.316 43.6466 54.6392 43.7291 53.9633L43.9438 52.2036C44.0069 51.686 44.0163 51.1694 43.9721 50.6526L43.8216 48.8925C43.7592 48.1625 43.851 47.449 44.0979 46.7624L44.6891 45.1186C44.9469 44.4017 45.3718 43.7984 45.9728 43.3496L47.2561 42.3916C47.475 42.2281 47.6607 42.0938 47.8089 41.9932C47.9157 41.9208 48.1097 41.7895 48.2958 41.7219L48.4338 41.6719L48.5721 41.6215L48.6264 41.6034ZM48.9448 43.667C48.833 43.7428 48.6751 43.8565 48.4664 44.0124L47.1831 44.9704C46.9287 45.1603 46.7287 45.4241 46.5924 45.803L46.0015 47.4469C45.8543 47.8561 45.7993 48.2772 45.8372 48.7203L45.9876 50.4801C46.0438 51.1364 46.0317 51.7929 45.9517 52.4485L45.7371 54.2086C45.6764 54.7058 45.6822 55.2022 45.7545 55.7003L46.01 57.4604C46.1077 58.133 46.1177 58.8072 46.0403 59.4808L45.8382 61.2406C45.7809 61.7388 45.7892 62.2368 45.8635 62.7362L46.1256 64.496C46.2275 65.1812 46.2274 65.8681 46.1256 66.5533L45.8642 68.313C45.7766 68.9021 45.6608 69.4498 45.4727 69.8324L45.1366 70.5159C45.065 70.6615 44.8468 71.0413 44.3593 71.1536C43.8451 71.272 43.4734 70.997 43.3357 70.8738C43.0675 70.6338 42.8873 70.2684 42.7678 70.003L42.026 68.3549C41.8354 67.9314 41.5742 67.5732 41.2392 67.271L39.917 66.0786C39.4766 65.6815 39.0351 65.2839 38.5925 64.8858L37.2641 63.6903C36.9195 63.3804 36.5291 63.1474 36.0864 62.9884L34.3912 62.3797C33.8009 62.1677 33.2265 61.9351 32.6687 61.6817L31.0729 60.9568C30.5549 60.7214 30.0226 60.4939 29.4765 60.2743L27.7981 59.5994C27.4372 59.4542 27.0807 59.4294 26.6975 59.5246L24.9318 59.9632C24.3624 60.1047 23.8172 60.2579 23.2962 60.4224L21.6692 60.9364C21.327 61.0444 21.0733 61.2282 20.8757 61.4983L19.8916 62.8436C19.5889 63.2575 19.3037 63.7022 19.0366 64.1783L18.179 65.7075C18.0212 65.9889 17.9828 66.2657 18.0648 66.5928L18.4964 68.315C18.6538 68.9432 18.7595 69.5838 18.8134 70.2361L18.9619 72.031C19.0015 72.5101 19.1219 72.9642 19.3247 73.3986L20.0856 75.028C20.2673 75.4173 20.5322 75.7452 20.8948 76.0186L22.3681 77.1295C22.9393 77.5602 23.4283 78.0605 23.8282 78.6307L24.837 80.0688C25.1176 80.4689 25.4476 80.8197 25.829 81.123L27.2015 82.2144C27.6104 82.5395 28.0437 82.8233 28.5023 83.0661L30.0444 83.8826C30.6469 84.2017 31.2009 84.6084 31.7063 85.0971L33.0289 86.3759C33.2844 86.6229 33.5623 86.7365 33.9128 86.74L35.745 86.7578C36.4118 86.7643 37.0586 86.8261 37.6838 86.9451L39.3708 87.2661C39.8556 87.3583 40.3463 87.3935 40.8444 87.3714L42.5722 87.2947C43.3014 87.2624 44.0492 87.4125 44.6134 87.9456L45.4892 88.7733C45.9665 89.2244 46.2515 89.8305 46.4136 90.4886L46.812 92.1054C46.8954 92.4438 47.0437 92.6531 47.2377 92.7988L48.44 93.7018C48.6161 93.8341 48.8415 93.911 49.1877 93.8806L50.8724 93.7328C51.0445 93.7177 51.1825 93.6578 51.3287 93.3716L52.1814 91.7028C52.3594 91.3545 52.3944 91.0312 52.3108 90.6891L51.8805 88.929C51.7128 88.2436 51.6519 87.5522 51.7004 86.8585L51.8235 85.0984C51.8613 84.5582 51.8619 84.0182 51.8252 83.478L51.7053 81.7183C51.6765 81.2947 51.7337 80.8002 52.0375 80.375C52.3578 79.9267 52.8295 79.7244 53.2797 79.6619L54.8083 79.4495C55.3765 79.3707 55.9704 79.3392 56.5881 79.3527L58.2972 79.3903C58.9284 79.4041 59.5729 79.4758 60.2294 79.6033L62.0438 79.9556C62.4742 80.0391 62.8739 80.0077 63.2629 79.8673L64.9584 79.2556C65.4216 79.0886 65.8444 78.8538 66.2302 78.5494L67.644 77.4343C68.1592 77.0279 68.7009 76.6703 69.2684 76.3617L70.8164 75.5195C71.3021 75.2554 71.7773 74.965 72.242 74.6477L73.7189 73.639C74.0713 73.3983 74.3472 73.0881 74.5528 72.6941L75.396 71.0786C75.6942 70.5072 76.0169 69.9659 76.3642 69.4555L77.3368 68.0266C77.6452 67.5734 77.9342 67.1084 78.2036 66.6317L79.0534 65.1281C79.3141 64.6668 79.5438 64.188 79.7421 63.6913L80.3874 62.0758C80.5762 61.6031 80.7169 61.1078 80.8088 60.5887L81.1196 58.8323C81.1884 58.4433 81.1448 58.083 80.9873 57.7254L80.2712 56.0997C80.0687 55.6402 79.812 55.2216 79.5008 54.841L78.3916 53.4843C78.1665 53.209 77.8961 53.0434 77.5481 52.9677L75.8352 52.595C75.2903 52.4765 74.74 52.3793 74.1841 52.3037L72.4372 52.0659C72.0102 52.0078 71.597 52.0473 71.1855 52.1861L69.509 52.7517C68.9778 52.9309 68.4594 53.131 67.9541 53.3522L66.3563 54.0519C65.8884 54.2567 65.4477 54.5077 65.0335 54.8048L63.6181 55.8201C63.1246 56.1742 62.6166 56.5088 62.0942 56.824L60.5952 57.728C60.174 57.982 59.7962 58.2868 59.4597 58.6436L58.2606 59.9148C57.849 60.3512 57.4231 60.7801 56.9832 61.2014L55.6999 62.4304C55.347 62.7684 55.1269 63.0851 55.0012 63.3746L54.4304 64.6909C54.3727 64.8237 54.2771 65.0239 54.1252 65.1943C54.0486 65.2801 53.8962 65.4288 53.658 65.5156C53.3748 65.6187 53.053 65.6023 52.7724 65.4484C52.5358 65.3187 52.4054 65.1337 52.3431 65.0297C52.2751 64.9162 52.2327 64.8055 52.2058 64.7225C52.1518 64.5562 52.1187 64.373 52.0955 64.202L51.8571 62.4422C51.7657 61.768 51.763 61.0923 51.8495 60.4178L52.0754 58.6581C52.1412 58.1448 52.1505 57.6327 52.103 57.1203L51.9401 55.3605C51.8825 54.7388 51.8577 54.1166 51.8657 53.4945L51.8881 51.7347C51.8961 51.105 51.9441 50.4757 52.0323 49.8473L52.2792 48.0875C52.338 47.6684 52.2946 47.2624 52.1442 46.8552L51.5213 45.1693C51.4008 44.8431 51.2172 44.6517 50.9537 44.5283L49.4024 43.8013C49.2352 43.723 49.1044 43.6662 49.006 43.6268C48.989 43.6379 48.9684 43.6509 48.9448 43.667Z" fill="black"/>
<path d="M39.4641 10.4446C42.3624 7.095 46.1384 5.17438 50.1281 5.46669C53.7601 5.73279 56.9495 7.78746 59.2873 10.9724C62.6742 8.14138 66.6955 6.85353 70.5775 7.77228C78.459 9.63767 82.7799 19.8893 80.2285 30.6698C79.3393 34.4268 77.7319 37.7516 75.6825 40.411C72.0147 46.9126 61.4949 52.7732 49.0894 52.7732C36.0295 52.7732 25.0601 46.2781 21.9748 39.3776C20.0757 36.6129 18.6531 33.2095 17.9694 29.4144C16.0052 18.5116 20.8748 8.50872 28.8458 7.07266C32.5783 6.40024 36.3289 7.72573 39.4641 10.4446Z" fill="#FF9898"/>
<path d="M47.9473 5.08083C48.6324 4.97298 49.3169 4.97281 49.9967 5.08182L51.7163 5.35771C52.3485 5.45909 52.9744 5.6166 53.5932 5.82917L55.2901 6.4119C55.9703 6.64559 56.5951 6.99456 57.1614 7.45293L58.5922 8.61082C58.7572 8.74434 58.8611 8.78625 58.9043 8.79782C58.9112 8.79967 58.9164 8.80023 58.9198 8.80079L60.1129 8.35007C60.5357 8.19029 61.0536 8.0136 61.6623 7.82067L63.4579 7.25177C64.0893 7.05164 64.7269 6.88495 65.3704 6.752L67.1976 6.37437C68.0087 6.20681 68.8087 6.28737 69.569 6.61405L71.2771 7.34757C71.8753 7.60464 72.4466 7.88348 72.9904 8.18414L74.5292 9.03487C75.1319 9.3681 75.6749 9.78627 76.1559 10.2863L77.3915 11.5706C77.8776 12.0759 78.2746 12.6469 78.5807 13.2799L79.3606 14.8925C79.6418 15.4739 79.8797 16.0724 80.0741 16.6878L80.613 18.3942C80.8052 19.0028 80.9597 19.6236 81.0769 20.256L81.4065 22.0322C81.5175 22.6313 81.6241 23.2415 81.7261 23.8627L82.0287 25.7063C82.1531 26.4639 82.1142 27.2172 81.9115 27.956L81.4196 29.7483C81.2641 30.3149 81.1355 30.888 81.0341 31.4675L80.7134 33.3003C80.5891 34.0105 80.3627 34.6882 80.0352 35.33L79.1904 36.9857C78.8706 37.6126 78.4782 38.1903 78.0144 38.7168L76.7913 40.1052C76.4469 40.4961 76.159 40.9335 75.9271 41.4201L75.1132 43.1278C74.7642 43.8602 74.248 44.4586 73.5744 44.905L72.0188 45.9361C71.535 46.2568 71.0757 46.6039 70.6407 46.9775L69.2392 48.1815C68.7117 48.6345 68.1377 49.0202 67.5189 49.3381L65.8744 50.1828C65.2872 50.4845 64.6829 50.7467 64.062 50.9694L62.3237 51.5933C61.7553 51.7972 61.1875 52.0118 60.6206 52.2376L58.8879 52.9276C58.2402 53.1855 57.5716 53.3685 56.8835 53.4761L55.0431 53.7639C54.3782 53.8679 53.7094 53.9201 53.0372 53.9203L51.1773 53.9206C50.5325 53.9207 49.8904 53.897 49.2517 53.8495L47.4113 53.7122C46.804 53.667 46.1963 53.6276 45.5884 53.5937L43.746 53.4906C43.0465 53.4516 42.3617 53.3255 41.6936 53.1127L39.9329 52.5517C39.3308 52.3599 38.7368 52.1551 38.1511 51.9373L36.4394 51.3009C35.881 51.0933 35.3176 50.8962 34.7492 50.7093L33.0072 50.1364C32.3562 49.9224 31.7359 49.64 31.1477 49.2893L29.5747 48.3514C29.041 48.0332 28.5107 47.7056 27.9842 47.3683L26.4315 46.3737C25.8456 45.9984 25.3116 45.5575 24.8305 45.0525L23.5541 43.7125C23.0527 43.1862 22.6467 42.5906 22.3382 41.9301L21.551 40.2448C21.33 39.7715 21.0444 39.3352 20.6914 38.9344L19.444 37.5184C18.8862 36.8852 18.562 36.1328 18.4803 35.2912L18.2963 33.3942C18.2465 32.8812 18.1105 32.4011 17.8884 31.9479L17.0597 30.2569C16.7096 29.5428 16.5493 28.7824 16.585 27.9909L16.6689 26.1311C16.6975 25.4973 16.7388 24.8706 16.7927 24.2512L16.9507 22.4358C17.0073 21.786 17.1063 21.1445 17.2484 20.5114L17.6447 18.7455C17.7807 18.1393 17.9333 17.5346 18.1024 16.9317L18.5952 15.174C18.7853 14.4961 19.0673 13.856 19.4394 13.2562L20.4057 11.6987C20.7732 11.1061 21.2104 10.5683 21.716 10.0874L23.0457 8.82285C23.5575 8.33604 24.1288 7.92774 24.7567 7.59943L26.3917 6.74476C27.0649 6.39278 27.7851 6.19499 28.5425 6.15511L30.3783 6.05864C31.1158 6.01983 31.8344 6.11707 32.5262 6.35264L34.2277 6.93176C34.7879 7.12252 35.3576 7.30979 35.9367 7.49342L37.6938 8.05081C38.2892 8.23963 38.8837 8.48402 39.2665 8.85182L39.5401 9.11454C39.5524 9.10552 39.5658 9.0969 39.5789 9.08689L41.0322 7.98265C41.5533 7.58681 42.0947 7.23147 42.6562 6.91727L44.2148 6.04514C44.8376 5.69667 45.502 5.46577 46.203 5.35541L47.9473 5.08083ZM49.6764 7.07892C49.2098 7.00411 48.7397 7.00374 48.262 7.07892L46.5174 7.3535C46.0557 7.42621 45.6191 7.57754 45.2028 7.81047L43.6439 8.68259C43.1663 8.94985 42.7037 9.2534 42.2559 9.59357L40.8024 10.6975C40.5193 10.9125 40.1861 11.1202 39.8232 11.2137C39.4196 11.3177 38.887 11.2924 38.4638 10.8858L37.865 10.3103C37.8737 10.3187 37.8319 10.2786 37.6836 10.2073C37.5435 10.1399 37.3464 10.0626 37.0821 9.97877L35.325 9.42171C34.7327 9.23389 34.1495 9.04201 33.5755 8.84655L31.874 8.26744C31.4316 8.1168 30.971 8.05286 30.4847 8.07846L28.6489 8.17525C28.1826 8.1998 27.7458 8.3192 27.329 8.53708L25.6937 9.39208C25.2317 9.63367 24.8147 9.9322 24.44 10.2886L23.1103 11.5531C22.7294 11.9154 22.4012 12.3188 22.1246 12.7647L21.1579 14.3226C20.8858 14.7613 20.6814 15.2264 20.5429 15.7202L20.0501 17.4779C19.8906 18.0468 19.7466 18.6168 19.6185 19.188L19.2221 20.9543C19.1 21.4986 19.0147 22.0508 18.9659 22.6113L18.8076 24.4266C18.7561 25.0174 18.7167 25.616 18.6894 26.2222L18.6058 28.0821C18.5855 28.5305 18.6733 28.9538 18.8757 29.3667L19.7047 31.0576C20.035 31.7314 20.2365 32.4471 20.3095 33.1986L20.4939 35.0956C20.535 35.5186 20.688 35.8706 20.9617 36.1814L22.2092 37.5974C22.6877 38.1407 23.0801 38.7384 23.3839 39.3888L24.171 41.0741C24.3873 41.5372 24.6693 41.9503 25.0188 42.3172L26.2952 43.6572C26.665 44.0454 27.0739 44.3826 27.5229 44.6702L29.0752 45.6648C29.5837 45.9905 30.0954 46.307 30.6104 46.614L32.1835 47.5517C32.644 47.8262 33.1288 48.0473 33.639 48.2151L35.3809 48.7876C35.9738 48.9825 36.5616 49.1883 37.1443 49.4049L38.856 50.0413C39.4113 50.2477 39.975 50.4422 40.5469 50.6243L42.3076 51.1854C42.8134 51.3465 43.3297 51.4416 43.8586 51.4711L45.7013 51.5738C46.3217 51.6085 46.9417 51.6488 47.5614 51.695L49.4021 51.8323C49.9904 51.8761 50.582 51.8979 51.177 51.8978L53.0368 51.8975C53.6044 51.8973 54.1689 51.8533 54.7307 51.7655L56.5708 51.4774C57.1094 51.3931 57.632 51.2502 58.1395 51.0481L59.8723 50.3583C60.4606 50.1241 61.05 49.9008 61.6406 49.689L63.3792 49.0654C63.9173 48.8724 64.4408 48.6452 64.95 48.3836L66.5948 47.5388C67.0725 47.2934 67.5143 46.9964 67.9212 46.6469L69.3224 45.4433C69.8217 45.0144 70.3483 44.6164 70.9014 44.2498L72.457 43.219C72.8204 42.9782 73.0939 42.6637 73.2873 42.2577L74.1012 40.5499C74.4118 39.898 74.8026 39.3029 75.2736 38.7682L76.4967 37.3798C76.8482 36.9807 77.1452 36.5435 77.3885 36.0665L78.2333 34.4108C78.4691 33.9488 78.6314 33.4634 78.7209 32.9517L79.0416 31.1189C79.154 30.4765 79.2965 29.8412 79.4689 29.213L79.9611 27.4206C80.0863 26.9646 80.1104 26.5058 80.0329 26.0343L79.73 24.1906C79.6301 23.5826 79.526 22.986 79.4176 22.4009L79.088 20.6247C78.9857 20.0729 78.8511 19.5325 78.6841 19.0036L78.1451 17.2969C77.9802 16.7746 77.7784 16.2669 77.5397 15.7732L76.7597 14.1603C76.5459 13.7183 76.2712 13.3235 75.9337 12.9728L74.6981 11.6888C74.3555 11.3327 73.9736 11.0391 73.5504 10.8051L72.0116 9.9544C71.5295 9.68789 71.0186 9.43821 70.4784 9.20607L68.7707 8.47222C68.3925 8.30972 68.014 8.27123 67.6068 8.35534L65.7796 8.73297C65.2049 8.8517 64.6346 9.00077 64.0689 9.18006L62.2733 9.74897C61.6851 9.93542 61.2047 10.0998 60.828 10.2422L59.6286 10.6955C58.7575 11.0247 57.9416 10.6865 57.3198 10.1832L55.8889 9.02499C55.5015 8.71139 55.0838 8.47997 54.6329 8.32505L52.9361 7.74199C52.4237 7.56597 51.9105 7.43728 51.3963 7.35482L49.6764 7.07892Z" fill="black"/>
</svg>
