<svg width="100" height="100" viewBox="0 0 100 100" fill="none" xmlns="http://www.w3.org/2000/svg">
<path d="M75.1202 73.4702C73.1402 76.0502 70.7302 78.3002 67.8302 80.1102C66.5002 80.9402 65.1702 81.7702 63.8402 82.5902C61.0902 84.3002 58.1202 86.0102 54.9002 86.6302C53.0102 86.9902 51.0202 86.7102 49.0802 87.0202C45.9702 87.5102 42.9502 87.9602 39.7902 87.6102C37.1202 87.3102 34.4902 86.7002 31.9002 85.9802C30.5302 85.6002 29.0202 85.0602 28.4302 83.7702C28.8202 83.2502 30.4102 83.0902 30.9802 83.0502C33.7302 82.8802 36.4502 82.1502 39.0102 81.1502C41.3402 80.2402 42.9902 78.4602 45.0002 76.9702C46.6302 75.7602 48.2802 74.5402 49.6002 73.0002C50.4402 72.0302 51.1302 70.9402 51.8302 69.8602C54.0002 66.4702 56.3602 63.6502 56.3602 59.3902C56.8502 55.6102 54.2502 55.6302 51.4202 53.8902C49.0702 52.4402 47.6402 50.5002 50.6102 48.7002C52.7402 47.4002 55.6702 46.9902 57.9402 45.8002C62.2602 43.5402 63.6602 37.8802 63.3202 33.3502C63.0302 29.5502 61.7702 25.8802 60.1802 22.4102C58.9702 19.7902 57.4102 17.3102 55.5002 15.1402C53.8202 13.2202 51.2902 12.9402 49.6402 10.8902C52.4902 9.81018 55.6802 10.5702 58.5602 11.5602C61.9902 12.7402 65.3002 14.2402 68.4502 16.0402C69.1702 16.4502 69.8902 16.8802 70.5502 17.3902C72.4702 18.8602 74.0502 21.2602 75.6402 23.0902C79.6702 27.7302 81.3302 32.8402 82.4302 38.7602C83.3702 43.8102 83.4302 48.1902 82.5402 53.2202C82.4202 53.9002 82.3002 54.5902 82.1802 55.2702C80.9902 61.9602 79.3302 68.0002 75.1202 73.4802V73.4702Z" fill="#FFD770"/>
<path d="M56.8898 63.2198C57.5298 65.1098 59.0598 66.4698 61.1098 66.4898C63.0098 66.5098 64.8298 65.4498 65.9698 63.9698C66.7198 62.9998 67.1298 61.8898 67.2898 60.6898C67.3498 60.1898 66.8198 59.7598 66.3598 59.7598C65.8098 59.7598 65.4998 60.1898 65.4298 60.6898C65.4398 60.5798 65.4098 60.8098 65.3998 60.8398C65.3798 60.9398 65.3598 61.0298 65.3398 61.1298C65.2898 61.3298 65.2198 61.5398 65.1498 61.7298C65.1298 61.7698 65.1198 61.8198 65.0998 61.8598C65.0998 61.8398 65.1398 61.7598 65.0998 61.8598C65.0598 61.9498 65.0198 62.0298 64.9698 62.1098C64.8698 62.2998 64.7598 62.4898 64.6298 62.6698C64.4798 62.8898 64.2598 63.1498 63.9698 63.4198C63.6698 63.6998 63.5898 63.7698 63.2098 63.9998C63.0598 64.0898 62.9098 64.1698 62.7498 64.2498C62.7098 64.2698 62.5198 64.3598 62.5898 64.3298C62.6498 64.3098 62.4298 64.3898 62.3798 64.3998C62.2098 64.4598 62.0398 64.5098 61.8598 64.5498C61.7798 64.5698 61.6998 64.5798 61.6198 64.5998C61.5098 64.6198 61.6498 64.5998 61.6698 64.5998C61.6198 64.5998 61.5598 64.6098 61.5098 64.6198C61.3498 64.6298 61.1898 64.6398 61.0298 64.6298C60.9498 64.6298 60.8698 64.6298 60.7898 64.6198C60.6298 64.6098 60.8998 64.6498 60.6898 64.5998C60.5398 64.5598 60.3898 64.5298 60.2398 64.4798C60.2098 64.4698 60.0098 64.3898 60.0998 64.4298C60.1798 64.4698 59.9698 64.3598 59.9298 64.3398C59.8498 64.2998 59.7698 64.2398 59.6998 64.1998C59.5298 64.0998 59.7198 64.2398 59.5698 64.0998C59.4198 63.9598 59.2898 63.8298 59.1698 63.6798C59.0998 63.5998 59.1698 63.6798 59.1798 63.6998C59.1498 63.6498 59.1098 63.5998 59.0798 63.5498C59.0198 63.4598 58.9698 63.3698 58.9198 63.2698C58.7798 63.0098 58.7798 62.9898 58.6898 62.7198C58.3098 61.5998 56.5198 62.0798 56.8998 63.2098L56.8898 63.2198Z" fill="#744831"/>
<path d="M65.2301 39.9496C65.9601 41.1896 67.2901 41.8496 68.6801 42.0096C70.0701 42.1696 71.5901 41.6396 72.7801 40.8396C73.4901 40.3496 74.1401 39.7796 74.7401 39.1496C74.9901 38.8896 75.0201 38.4196 74.7401 38.1696C74.4601 37.9196 74.0201 37.8896 73.7601 38.1696C73.5301 38.4096 73.2901 38.6496 73.0501 38.8696C72.9301 38.9796 72.8101 39.0796 72.6901 39.1896C72.6301 39.2396 72.5701 39.2896 72.5001 39.3396C72.3901 39.4296 72.4501 39.3796 72.4801 39.3596C72.4401 39.3896 72.4101 39.4196 72.3701 39.4396C72.0901 39.6396 71.8101 39.8296 71.5101 39.9996C71.3701 40.0796 71.2301 40.1496 71.0901 40.2196C71.0601 40.2296 71.0301 40.2496 71.0001 40.2596C70.9901 40.2596 70.8601 40.3196 70.9301 40.2896C70.9901 40.2596 70.8901 40.3096 70.8901 40.3096C70.8401 40.3296 70.7801 40.3496 70.7301 40.3696C70.4301 40.4796 70.1201 40.5596 69.8101 40.6196C69.7701 40.6196 69.7301 40.6296 69.6901 40.6396C69.6901 40.6396 69.8101 40.6296 69.7301 40.6396C69.6601 40.6396 69.5901 40.6496 69.5301 40.6596C69.3801 40.6596 69.2401 40.6696 69.0901 40.6596C68.9501 40.6596 68.8201 40.6396 68.6801 40.6296C68.5701 40.6196 68.7901 40.6496 68.6901 40.6296C68.6601 40.6296 68.6301 40.6296 68.6001 40.6196C68.5201 40.6096 68.4501 40.5896 68.3701 40.5696C68.2401 40.5396 68.1101 40.4996 67.9801 40.4596C67.9101 40.4396 67.8301 40.4096 67.7601 40.3796C67.7501 40.3796 67.6601 40.3396 67.7401 40.3796C67.8301 40.4196 67.6701 40.3396 67.6701 40.3396C67.5301 40.2696 67.4001 40.1996 67.2701 40.1196C67.2101 40.0796 67.1401 40.0296 67.0801 39.9896C67.2001 40.0696 67.0401 39.9496 67.0001 39.9196C66.8801 39.8096 66.7701 39.6996 66.6601 39.5796C66.6401 39.5596 66.6201 39.5396 66.6101 39.5096C66.6701 39.5796 66.6401 39.5396 66.6001 39.4896C66.5501 39.4196 66.5001 39.3496 66.4601 39.2696C66.2801 38.9596 65.8201 38.8196 65.5101 39.0196C65.2001 39.2196 65.0601 39.6396 65.2601 39.9696L65.2301 39.9496Z" fill="#744831"/>
</svg>
