<svg width="80" height="80" viewBox="0 0 80 80" fill="none" xmlns="http://www.w3.org/2000/svg">
<g clip-path="url(#clip0_4008_34445)">
<path d="M6.56857 22.9912C5.42894 22.437 4.04921 22.9096 3.56122 24.0791C0.208934 32.113 -0.440706 41.0438 1.74843 49.5124C4.12947 58.7233 9.71317 66.7852 17.4987 72.2529C25.2842 77.7207 34.7626 80.2369 44.235 79.3506C53.7073 78.4642 62.5544 74.2333 69.1904 67.4161C75.8264 60.5989 79.8175 51.6411 80.4484 42.1483C81.0793 32.6555 79.1533 26.3938 73.4778 18.7583C67.8024 11.1229 59.9746 6.10149 50.7029 3.96939C42.1892 2.01163 33.2909 2.89682 25.3578 6.45294C24.1897 6.97657 23.7591 8.38875 24.3659 9.51588L37.1349 33.2331C38.1908 35.1943 36.1143 37.3583 34.1112 36.3843L6.56857 22.9912Z" fill="#C0D790"/>
</g>
<defs>
<clipPath id="clip0_4008_34445">
<rect width="80" height="80" fill="white"/>
</clipPath>
</defs>
</svg>
