<svg width="100" height="100" viewBox="0 0 100 100" fill="none" xmlns="http://www.w3.org/2000/svg">
<path d="M70.75 20C76.9632 20 82 23.6937 82 28.25C82 28.9554 82.3919 29.639 83.0563 29.8761C87.2956 31.3888 90 33.6812 90 36.25C90 37.559 89.2973 38.7954 88.0473 39.8939C86.5747 41.188 85.4006 42.8741 84.2834 44.485C82.4252 47.1644 78.63 49 74.25 49C72.5863 49 70.9258 49.4135 69.4316 50.1451C67.0646 51.3041 64.043 52 60.75 52C58.607 52 56.5786 51.7055 54.7708 51.1806C52.9716 50.6582 51.0284 50.6582 49.2292 51.1806C47.4214 51.7055 45.393 52 43.25 52C40.1016 52 37.2012 51.3639 34.8838 50.2953C33.4872 49.6513 31.9583 49.2618 30.4253 49.3842C29.4741 49.4602 28.4968 49.5 27.5 49.5C17.835 49.5 10 45.8064 10 41.25C10 38.0491 13.8669 35.2745 19.5184 33.9067C19.8122 33.8356 20 33.5523 20 33.25C20 30.1281 24.1681 27.4373 30.1742 26.2095C31.9977 25.8368 33.6229 24.7325 35.1403 23.6548C38.2304 21.4604 43.7301 20 50 20C53.4557 20 56.677 20.4446 59.3901 21.2108C61.5167 21.8114 63.839 21.5227 65.9255 20.7951C67.3876 20.2853 69.0233 20 70.75 20Z" fill="#DBE6EC"/>
<path d="M46.7503 66.5C42.824 66.0867 44.193 61.403 45.7741 58.3792C46.2235 57.5198 47.378 57.4493 47.9545 58.2292C52.3445 64.1683 48.6033 66.6951 46.7503 66.5Z" fill="#DBE6EC"/>
<path d="M62.8586 69.9872C58.3981 69.471 60.0483 63.5373 61.8509 59.8283C62.2994 58.9052 63.5309 58.8306 64.11 59.6779C69.1687 67.0805 64.9442 70.2285 62.8586 69.9872Z" fill="#DBE6EC"/>
<path d="M37.2592 77.9893C34.8269 77.6082 35.3472 73.6825 36.269 70.6427C36.6179 69.4919 38.0781 69.4052 38.5472 70.5124C40.8228 75.8837 38.4625 78.1779 37.2592 77.9893Z" fill="#DBE6EC"/>
<path d="M54.7592 79.9893C52.3269 79.6082 52.8472 75.6825 53.769 72.6427C54.1179 71.4919 55.5781 71.4052 56.0472 72.5124C58.3228 77.8837 55.9625 80.1779 54.7592 79.9893Z" fill="#DBE6EC"/>
<path d="M25.5445 71.4872C21.4969 70.9798 22.9003 65.237 24.5297 61.5188C24.9607 60.5354 26.2587 60.4607 26.8223 61.3746C31.2999 68.6363 27.4525 71.7264 25.5445 71.4872Z" fill="#DBE6EC"/>
<path d="M77.4791 64.4888C74.6451 64.0743 75.3741 59.6676 76.4777 56.4368C76.8538 55.3359 78.2684 55.2542 78.7717 56.303C81.5926 62.1825 78.8593 64.6906 77.4791 64.4888Z" fill="#DBE6EC"/>
<path d="M71.9791 74.4888C69.1451 74.0743 69.8741 69.6676 70.9777 66.4368C71.3538 65.3359 72.7684 65.2542 73.2717 66.303C76.0926 72.1825 73.3593 74.6906 71.9791 74.4888Z" fill="#DBE6EC"/>
<path d="M70.75 20C76.9632 20 82 23.6937 82 28.25C82 28.9554 82.3919 29.639 83.0563 29.8761C87.2956 31.3888 90 33.6812 90 36.25C90 37.559 89.2973 38.7954 88.0473 39.8939C86.5747 41.188 85.4006 42.8741 84.2834 44.485C82.4252 47.1644 78.63 49 74.25 49C72.5863 49 70.9258 49.4135 69.4316 50.1451C67.0646 51.3041 64.043 52 60.75 52C58.607 52 56.5786 51.7055 54.7708 51.1806C52.9716 50.6582 51.0284 50.6582 49.2292 51.1806C47.4214 51.7055 45.393 52 43.25 52C40.1016 52 37.2012 51.3639 34.8838 50.2953C33.4872 49.6513 31.9583 49.2618 30.4253 49.3842C29.4741 49.4602 28.4968 49.5 27.5 49.5C17.835 49.5 10 45.8064 10 41.25C10 38.0491 13.8669 35.2745 19.5184 33.9067C19.8122 33.8356 20 33.5523 20 33.25C20 30.1281 24.1681 27.4373 30.1742 26.2095C31.9977 25.8368 33.6229 24.7325 35.1403 23.6548C38.2304 21.4604 43.7301 20 50 20C53.4557 20 56.677 20.4446 59.3901 21.2108C61.5167 21.8114 63.839 21.5227 65.9255 20.7951C67.3876 20.2853 69.0233 20 70.75 20Z" fill="#DBE6EC"/>
<path d="M46.7503 66.5C42.824 66.0867 44.193 61.403 45.7741 58.3792C46.2235 57.5198 47.378 57.4493 47.9545 58.2292C52.3445 64.1683 48.6033 66.6951 46.7503 66.5Z" fill="#DBE6EC"/>
<path d="M62.8586 69.9872C58.3981 69.471 60.0483 63.5373 61.8509 59.8283C62.2994 58.9052 63.5309 58.8306 64.11 59.6779C69.1687 67.0805 64.9442 70.2285 62.8586 69.9872Z" fill="#DBE6EC"/>
<path d="M37.2592 77.9893C34.8269 77.6082 35.3472 73.6825 36.269 70.6427C36.6179 69.4919 38.0781 69.4052 38.5472 70.5124C40.8228 75.8837 38.4625 78.1779 37.2592 77.9893Z" fill="#DBE6EC"/>
<path d="M54.7592 79.9893C52.3269 79.6082 52.8472 75.6825 53.769 72.6427C54.1179 71.4919 55.5781 71.4052 56.0472 72.5124C58.3228 77.8837 55.9625 80.1779 54.7592 79.9893Z" fill="#DBE6EC"/>
<path d="M25.5445 71.4872C21.4969 70.9798 22.9003 65.237 24.5297 61.5188C24.9607 60.5354 26.2587 60.4607 26.8223 61.3746C31.2999 68.6363 27.4525 71.7264 25.5445 71.4872Z" fill="#DBE6EC"/>
<path d="M77.4791 64.4888C74.6451 64.0743 75.3741 59.6676 76.4777 56.4368C76.8538 55.3359 78.2684 55.2542 78.7717 56.303C81.5926 62.1825 78.8593 64.6906 77.4791 64.4888Z" fill="#DBE6EC"/>
<path d="M71.9791 74.4888C69.1451 74.0743 69.8741 69.6676 70.9777 66.4368C71.3538 65.3359 72.7684 65.2542 73.2717 66.303C76.0926 72.1825 73.3593 74.6906 71.9791 74.4888Z" fill="#DBE6EC"/>
</svg>
