<svg width="100" height="100" viewBox="0 0 100 100" fill="none" xmlns="http://www.w3.org/2000/svg">
<path d="M66.7414 55.41C64.6614 40.9979 56.8074 28.0519 50.6698 15.0719C49.7946 13.2192 48.8171 10.1049 46.2597 10.0026C43.6001 9.90031 43.2136 12.8328 42.7249 14.765C40.9518 21.7665 38.4967 28.5747 36.2235 35.4285C32.0067 48.1471 28.2445 62.0137 30.8701 75.4825C32.0181 81.3815 35.3029 86.3371 41.0314 88.5421C46.4189 90.6221 52.9657 90.3834 58.3532 88.4171C64.3204 86.2348 68.2644 81.6656 69.0373 75.312C69.8443 68.6628 67.662 62.0933 66.7868 55.5578C66.7868 55.5009 66.7414 55.4668 66.73 55.41H66.7414Z" fill="#8EC0E9"/>
<path d="M56.7512 55.4209C57.3877 59.2171 58.1947 63.0361 58.6266 66.8665C58.979 69.9922 58.9562 73.3906 56.6489 75.6638C53.9892 78.2894 58.0924 82.3925 60.7521 79.767C63.9232 76.6299 64.8552 72.0835 64.5142 67.7644C64.1391 63.1157 63.1162 58.4783 62.3433 53.8864C62.0819 52.3407 60.1724 51.4768 58.7744 51.8633C57.1376 52.3179 56.4898 53.8751 56.7512 55.4322V55.4209Z" fill="white"/>
<path d="M46.5095 83.3931C46.9642 83.6204 47.4416 83.825 47.9303 83.9728C48.419 84.1205 48.9191 84.166 49.4079 84.2228C50.1808 84.3137 50.9764 84.2115 51.7266 84.041C52.1016 83.95 52.4313 83.7795 52.7154 83.5181C53.0337 83.3135 53.2837 83.0407 53.4656 82.6998C53.6815 82.3702 53.7952 82.0064 53.8066 81.62C53.8975 81.2335 53.8748 80.8471 53.7497 80.4607L53.4542 79.7673C53.1928 79.3354 52.8518 78.9831 52.4199 78.733L51.7266 78.4375C51.2151 78.3011 50.7036 78.3011 50.1808 78.4375C50.0444 78.4716 49.908 78.4943 49.7716 78.5171L50.5445 78.4148C50.1467 78.4602 49.7489 78.4602 49.3511 78.4148L50.124 78.5171C49.7261 78.4602 49.3511 78.3579 48.976 78.1988L49.6693 78.4943C49.5897 78.4602 49.5102 78.4261 49.4306 78.3807C49.101 78.1647 48.7373 78.0511 48.3508 78.0397C47.9644 77.9488 47.578 77.9715 47.1915 78.0965C46.8164 78.1874 46.4868 78.3579 46.2027 78.6193C45.8844 78.8239 45.6344 79.0967 45.4525 79.4377L45.157 80.131C45.0206 80.6425 45.0206 81.154 45.157 81.6768L45.4525 82.3702C45.7139 82.8021 46.0549 83.1544 46.4868 83.4045L46.5095 83.3931Z" fill="white"/>
</svg>
