<svg width="100" height="100" viewBox="0 0 100 100" fill="none" xmlns="http://www.w3.org/2000/svg">
<path d="M70.2763 75.251C68.229 77.9186 65.7372 80.2451 62.7386 82.1166C61.3634 82.9748 59.9883 83.833 58.6131 84.6808C55.7696 86.4489 52.6987 88.217 49.3693 88.8581C47.4151 89.2303 45.3575 88.9408 43.3516 89.2613C40.1359 89.768 37.0133 90.2333 33.746 89.8714C30.9852 89.5612 28.2659 88.9305 25.5879 88.186C24.1713 87.7931 22.61 87.2348 22 85.9009C22.4033 85.3633 24.0473 85.1978 24.6366 85.1565C27.4801 84.9807 30.2925 84.2259 32.9395 83.1919C35.3486 82.251 37.0547 80.4105 39.133 78.8699C40.8184 77.6188 42.5244 76.3573 43.8893 74.765C44.7578 73.7621 45.4712 72.635 46.195 71.5183C48.4388 68.0132 50.8789 65.0973 50.8789 60.6926C51.3856 56.7842 48.6972 56.8049 45.7711 55.0057C43.3413 53.5065 41.8627 51.5006 44.9336 49.6394C47.1359 48.2952 50.1655 47.8713 52.5126 46.6409C56.9794 44.3041 58.427 38.4518 58.0754 33.7679C57.7756 29.8388 56.4727 26.0441 54.8287 22.4562C53.5776 19.7472 51.9646 17.1829 49.9897 14.9392C48.2526 12.954 45.6367 12.6644 43.9306 10.5448C46.8774 9.4281 50.1758 10.2139 53.1537 11.2376C56.7002 12.4577 60.1227 14.0086 63.3797 15.8698C64.1242 16.2937 64.8686 16.7383 65.551 17.2656C67.5363 18.7856 69.17 21.2671 70.814 23.1593C74.9809 27.9569 76.6973 33.2406 77.8347 39.3617C78.8066 44.5833 78.8687 49.1121 77.9484 54.313C77.8243 55.0161 77.7003 55.7295 77.5762 56.4326C76.3458 63.3499 74.6294 69.5951 70.2763 75.2613V75.251Z" fill="#FFD770"/>
<path d="M51.4269 64.6518C52.0886 66.606 53.6706 68.0122 55.7903 68.0329C57.7548 68.0536 59.6366 66.9575 60.8154 65.4273C61.5909 64.4243 62.0148 63.2766 62.1802 62.0358C62.2423 61.5188 61.6943 61.0742 61.2186 61.0742C60.6499 61.0742 60.3294 61.5188 60.257 62.0358C60.2674 61.9221 60.2363 62.1599 60.226 62.1909C60.2053 62.2943 60.1846 62.3874 60.164 62.4908C60.1123 62.6976 60.0399 62.9147 59.9675 63.1112C59.9468 63.1525 59.9365 63.2042 59.9158 63.2456C59.9158 63.2249 59.9572 63.1422 59.9158 63.2456C59.8745 63.3386 59.8331 63.4213 59.7814 63.5041C59.678 63.7005 59.5643 63.897 59.4298 64.0831C59.2747 64.3106 59.0473 64.5794 58.7474 64.8586C58.4372 65.1481 58.3545 65.2205 57.9616 65.4583C57.8065 65.5513 57.6514 65.6341 57.486 65.7168C57.4446 65.7374 57.2482 65.8305 57.3205 65.7995C57.3826 65.7788 57.1551 65.8615 57.1034 65.8719C56.9276 65.9339 56.7518 65.9856 56.5657 66.027C56.483 66.0476 56.4003 66.058 56.3176 66.0787C56.2038 66.0993 56.3486 66.0787 56.3693 66.0787C56.3176 66.0787 56.2555 66.089 56.2038 66.0993C56.0384 66.1097 55.873 66.12 55.7075 66.1097C55.6248 66.1097 55.5421 66.1097 55.4594 66.0993C55.2939 66.089 55.5731 66.1304 55.356 66.0787C55.2009 66.0373 55.0458 66.0063 54.8907 65.9546C54.8597 65.9442 54.6529 65.8615 54.7459 65.9029C54.8287 65.9442 54.6115 65.8305 54.5702 65.8098C54.4874 65.7685 54.4047 65.7064 54.3323 65.6651C54.1566 65.5617 54.353 65.7064 54.1979 65.5617C54.0428 65.4169 53.9084 65.2825 53.7843 65.1274C53.712 65.0447 53.7843 65.1274 53.7947 65.1481C53.7637 65.0964 53.7223 65.0447 53.6913 64.993C53.6292 64.8999 53.5775 64.8069 53.5258 64.7035C53.3811 64.4346 53.3811 64.414 53.288 64.1348C52.8951 62.9767 51.0443 63.473 51.4372 64.6414L51.4269 64.6518Z" fill="#744831"/>
<path d="M60.0506 40.5911C60.8054 41.8732 62.1806 42.5556 63.6178 42.7211C65.0551 42.8865 66.6267 42.3385 67.8571 41.5113C68.5913 41.0047 69.2633 40.4153 69.8837 39.7639C70.1422 39.4951 70.1732 39.0091 69.8837 38.7506C69.5942 38.4921 69.1393 38.4611 68.8704 38.7506C68.6326 38.9987 68.3845 39.2469 68.1363 39.4744C68.0122 39.5881 67.8882 39.6915 67.7641 39.8052C67.702 39.8569 67.64 39.9086 67.5676 39.9603C67.4539 40.0534 67.5159 40.0017 67.5469 39.981C67.5056 40.012 67.4746 40.0431 67.4332 40.0637C67.1437 40.2705 66.8542 40.467 66.544 40.6428C66.3992 40.7255 66.2545 40.7979 66.1097 40.8702C66.0787 40.8806 66.0477 40.9013 66.0167 40.9116C66.0063 40.9116 65.8719 40.9736 65.9443 40.9426C66.0063 40.9116 65.9029 40.9633 65.9029 40.9633C65.8512 40.984 65.7892 41.0047 65.7375 41.0253C65.4273 41.1391 65.1068 41.2218 64.7862 41.2838C64.7449 41.2838 64.7035 41.2942 64.6621 41.3045C64.6621 41.3045 64.7862 41.2942 64.7035 41.3045C64.6311 41.3045 64.5587 41.3148 64.4967 41.3252C64.3416 41.3252 64.1969 41.3355 64.0418 41.3252C63.897 41.3252 63.7626 41.3045 63.6178 41.2942C63.5041 41.2838 63.7316 41.3149 63.6282 41.2942C63.5972 41.2942 63.5661 41.2942 63.5351 41.2838C63.4524 41.2735 63.38 41.2528 63.2973 41.2321C63.1629 41.2011 63.0285 41.1598 62.8941 41.1184C62.8217 41.0977 62.739 41.0667 62.6666 41.0357C62.6562 41.0357 62.5632 40.9943 62.6459 41.0357C62.739 41.077 62.5735 40.9943 62.5735 40.9943C62.4288 40.9219 62.2943 40.8496 62.1599 40.7668C62.0979 40.7255 62.0255 40.6738 61.9635 40.6324C62.0876 40.7151 61.9221 40.5911 61.8808 40.56C61.7567 40.4463 61.6429 40.3326 61.5292 40.2085C61.5085 40.1878 61.4878 40.1671 61.4775 40.1361C61.5395 40.2085 61.5085 40.1671 61.4672 40.1154C61.4155 40.0431 61.3638 39.9707 61.3224 39.888C61.1363 39.5674 60.6607 39.4227 60.3401 39.6295C60.0196 39.8363 59.8748 40.2705 60.0816 40.6117L60.0506 40.5911Z" fill="#744831"/>
</svg>
