<svg width="100" height="100" viewBox="0 0 100 100" fill="none" xmlns="http://www.w3.org/2000/svg">
<path d="M46.5418 47.1915C45.6018 46.8015 44.6518 46.3915 43.7718 45.8615C43.0018 45.3915 42.2418 44.8015 41.8218 43.9915C41.4818 43.3315 41.3818 42.5015 41.7218 41.8115C41.9118 41.4315 42.2118 41.1215 42.5818 40.9115C43.0818 40.6315 43.5718 40.6715 44.0418 40.9815C44.9018 41.5515 45.4718 42.5315 45.3418 43.5815H45.8418C45.9218 42.5015 46.2318 41.4415 46.7318 40.4715C46.9918 39.9715 47.2918 39.4615 47.6718 39.0415C47.9318 38.7515 48.4918 38.3115 48.8918 38.5915C49.0718 38.7215 49.1218 38.9615 49.1718 39.1615C49.2518 39.4615 49.3018 39.7715 49.3218 40.0815C49.3718 40.6515 49.3218 41.2315 49.2018 41.7915C48.9518 42.8815 48.3718 43.8015 47.7318 44.6915C47.0618 45.6415 46.3418 46.5815 45.9818 47.7115C45.8818 48.0215 46.3718 48.1515 46.4618 47.8415C46.8118 46.7115 47.5718 45.7715 48.2418 44.8215C48.9618 43.8015 49.5718 42.7215 49.7618 41.4715C49.8518 40.8515 49.8518 40.2215 49.7618 39.6015C49.6818 39.1015 49.5918 38.4115 49.1018 38.1315C48.6118 37.8515 48.0618 38.0615 47.6618 38.3615C47.2018 38.7115 46.8718 39.2315 46.5718 39.7115C45.8618 40.8815 45.4218 42.2015 45.3318 43.5615C45.3118 43.8915 45.7918 43.8715 45.8318 43.5615C45.9718 42.5115 45.4618 41.4915 44.6718 40.8215C44.2218 40.4415 43.6918 40.1315 43.0818 40.2015C42.5518 40.2615 42.0618 40.5615 41.7018 40.9415C41.0618 41.6115 40.8718 42.5715 41.0818 43.4615C41.3218 44.4615 42.0218 45.2315 42.8318 45.8215C43.9018 46.6215 45.1518 47.1315 46.3818 47.6415C46.6818 47.7615 46.8118 47.2815 46.5118 47.1615L46.5418 47.1915Z" fill="#E91959"/>
<path d="M52.4115 52.0018C52.3115 52.2418 52.2615 52.4218 52.3315 52.6718C52.4315 53.0218 52.3515 53.4318 52.3515 53.7918C52.3515 54.7418 52.4015 55.7018 52.5115 56.6418C52.7415 58.5318 53.2015 60.3818 53.8715 62.1718C53.9815 62.4718 54.4715 62.3418 54.3515 62.0418C53.6915 60.3018 53.2315 58.4918 53.0115 56.6518C52.9015 55.7518 52.8515 54.8518 52.8515 53.9418C52.8515 53.5418 52.9215 53.1118 52.8515 52.7118C52.8415 52.6318 52.8015 52.5518 52.7915 52.4818C52.7915 52.4318 52.8615 52.2418 52.9015 52.1518C53.0215 51.8518 52.5415 51.7218 52.4215 52.0218L52.4115 52.0018Z" fill="#38A86C"/>
<path d="M52.9214 50.5726C51.9714 49.5426 51.4714 48.1226 51.7114 46.7226C51.8214 46.0926 52.0514 45.3826 52.5314 44.9326C52.8914 44.5926 53.7414 44.1826 54.0414 44.8426C54.2014 45.1926 54.1414 45.6526 54.1314 46.0226C54.1214 46.5426 54.0714 47.0626 54.0114 47.5826C53.9714 47.8726 54.4314 47.9126 54.5014 47.6526C54.7414 46.8126 55.3214 46.1126 56.0414 45.6326C56.4014 45.3926 56.7914 45.2026 57.2314 45.3326C57.6214 45.4526 57.9114 45.7726 57.9014 46.1826C57.8714 46.9326 57.1214 47.5326 56.5514 47.9126C55.9114 48.3426 55.2314 48.6926 54.5814 49.1026C53.8214 49.5826 53.1114 50.1626 52.7414 51.0126C52.6914 51.1426 52.7014 51.2826 52.8314 51.3526C52.9314 51.4126 53.1214 51.3826 53.1714 51.2626C53.5214 50.4426 54.1914 49.9226 54.9314 49.4726C55.6714 49.0226 56.4214 48.6526 57.1014 48.1326C57.7814 47.6126 58.5414 46.8326 58.3814 45.8926C58.3014 45.4126 57.9214 45.0526 57.4914 44.8826C57.0114 44.6926 56.5014 44.7826 56.0514 45.0326C55.1014 45.5626 54.3214 46.4626 54.0214 47.5126L54.5114 47.5826C54.5814 47.0526 54.6214 46.5226 54.6314 45.9826C54.6314 45.5826 54.6814 45.1326 54.5514 44.7526C54.4214 44.3726 54.1214 44.0926 53.7214 44.0126C53.3514 43.9426 52.9714 44.0426 52.6414 44.2326C51.9414 44.6326 51.5614 45.3626 51.3414 46.1226C51.1214 46.8826 51.1014 47.7026 51.2714 48.4826C51.4714 49.4026 51.9414 50.2326 52.5714 50.9226C52.7914 51.1626 53.1414 50.8026 52.9214 50.5726Z" fill="#E91959"/>
<path d="M46.1913 48.8723C46.4313 50.5923 46.8413 52.2323 47.7213 53.7423C48.7713 55.5223 50.1413 57.0623 51.5013 58.6023C52.3213 59.5323 53.1013 60.4923 53.7413 61.5523C53.9113 61.8223 54.3413 61.5723 54.1713 61.3023C52.1413 57.9523 48.6513 55.5323 47.3213 51.7423C46.9813 50.7723 46.8013 49.7523 46.6613 48.7423C46.6213 48.4223 46.1313 48.5623 46.1813 48.8723H46.1913Z" fill="#38A86C"/>
<path d="M45.6713 55.7323C45.1213 55.6923 44.5413 55.5323 44.0513 55.2823C43.9313 55.2223 43.8113 55.1523 43.6913 55.0723C43.5713 54.9923 43.4713 54.9223 43.3813 54.8523C43.2813 54.7723 43.1813 54.6823 43.0913 54.5823C43.0513 54.5423 43.0113 54.4923 42.9713 54.4423C42.9213 54.3823 42.9013 54.3623 42.8713 54.3223C42.8013 54.2223 42.7213 54.1123 42.6713 53.9923C42.6613 53.9623 42.6513 53.9423 42.6413 53.9123C42.6413 53.9123 42.6413 53.8723 42.6413 53.8923C42.6413 53.8923 42.6613 53.8723 42.6713 53.8623C42.6413 53.8823 42.6513 53.8623 42.6713 53.8623C42.6813 53.8623 42.6913 53.8523 42.7013 53.8423C42.6613 53.8523 42.6913 53.8423 42.7013 53.8423C42.7213 53.8423 42.7513 53.8323 42.7713 53.8223C42.8013 53.8223 42.7713 53.8223 42.7613 53.8223C42.7813 53.8223 42.7913 53.8223 42.8113 53.8223C42.8413 53.8223 42.8713 53.8223 42.9113 53.8223C42.9413 53.8223 42.9713 53.8223 43.0013 53.8223C43.0113 53.8223 43.0313 53.8223 43.0413 53.8223C43.1013 53.8323 43.1613 53.8523 43.2213 53.8623C43.4913 53.9423 43.7513 54.0723 44.0013 54.2123C44.2613 54.3523 44.5213 54.5123 44.7613 54.6923C45.2513 55.0523 45.7013 55.5123 46.0313 56.0223C46.1013 56.1323 46.2513 56.1823 46.3713 56.1123C46.4813 56.0423 46.5313 55.8823 46.4613 55.7723C46.1113 55.2223 45.6513 54.7523 45.1313 54.3523C44.8713 54.1523 44.5913 53.9723 44.3113 53.8123C44.0313 53.6523 43.7013 53.4923 43.3813 53.3923C43.1213 53.3123 42.7913 53.2623 42.5313 53.3623C42.3913 53.4123 42.2713 53.5023 42.2013 53.6423C42.1013 53.8523 42.1613 54.0723 42.2713 54.2623C42.5613 54.7923 43.0313 55.2223 43.5513 55.5423C44.1913 55.9323 44.9313 56.1523 45.6813 56.2023C45.8113 56.2023 45.9313 56.0823 45.9313 55.9523C45.9313 55.8123 45.8213 55.7123 45.6813 55.7023L45.6713 55.7323Z" fill="#38A86C"/>
<path d="M55.2817 57.2613C55.2817 57.2613 55.2817 57.2413 55.2817 57.2313C55.3017 57.2813 55.2817 57.2713 55.2817 57.2513C55.2817 57.2313 55.2817 57.2113 55.2817 57.1913C55.2817 57.1413 55.2817 57.1013 55.2817 57.0513C55.2817 57.0313 55.2817 57.0113 55.2817 56.9913C55.2817 56.9813 55.2817 56.9713 55.2817 56.9613C55.2817 56.9213 55.2817 56.9813 55.2817 56.9813C55.2917 56.9413 55.3017 56.8913 55.3117 56.8413C55.3117 56.8013 55.3317 56.7613 55.3417 56.7213C55.3417 56.7013 55.3517 56.6813 55.3617 56.6613C55.3617 56.6613 55.3617 56.6413 55.3717 56.6313C55.3517 56.6713 55.3917 56.5913 55.3717 56.6313C55.4117 56.5513 55.4517 56.4713 55.5017 56.3913C55.5217 56.3513 55.5517 56.3213 55.5717 56.2813C55.6117 56.2313 55.5417 56.3113 55.5817 56.2613C55.6017 56.2413 55.6117 56.2213 55.6317 56.2013C55.6917 56.1313 55.7617 56.0613 55.8317 55.9913C55.8617 55.9613 55.9017 55.9213 55.9417 55.9013C55.8917 55.9313 55.9417 55.9013 55.9617 55.8913C55.9817 55.8713 56.0117 55.8613 56.0317 55.8413C56.1217 55.7813 56.2017 55.7313 56.3017 55.6813C56.3217 55.6713 56.3517 55.6613 56.3717 55.6413C56.3817 55.6413 56.3917 55.6313 56.4017 55.6213C56.4017 55.6013 56.4417 55.6013 56.4017 55.6213C56.4017 55.6013 56.4717 55.5913 56.4917 55.5913C56.5217 55.5913 56.5417 55.5713 56.5717 55.5613C56.6917 55.5213 56.8117 55.4913 56.9317 55.4713L56.6217 55.3013C56.6517 55.3813 56.6817 55.4613 56.7017 55.5513C56.7117 55.5913 56.7217 55.6313 56.7317 55.6713C56.7317 55.6913 56.7317 55.7113 56.7417 55.7413C56.7417 55.7413 56.7417 55.6813 56.7417 55.7213C56.7417 55.7313 56.7417 55.7413 56.7417 55.7513C56.7417 55.8413 56.7517 55.9313 56.7417 56.0213C56.7417 56.0613 56.7417 56.1013 56.7417 56.1413V56.1713C56.7417 56.1713 56.7417 56.1213 56.7417 56.1513C56.7417 56.1713 56.7417 56.2013 56.7317 56.2213C56.7117 56.3113 56.6917 56.3913 56.6617 56.4713C56.6517 56.5113 56.6317 56.5513 56.6217 56.5913C56.6117 56.6213 56.6217 56.5713 56.6217 56.5713C56.6217 56.5713 56.6217 56.5913 56.6117 56.6013C56.6017 56.6213 56.5917 56.6513 56.5817 56.6713C56.5417 56.7513 56.4917 56.8313 56.4417 56.9013C56.4217 56.9413 56.3917 56.9713 56.3617 57.0113C56.3417 57.0413 56.3917 56.9813 56.3617 57.0113C56.3617 57.0113 56.3517 57.0213 56.3417 57.0313C56.3217 57.0513 56.3117 57.0713 56.2917 57.0913C56.2217 57.1713 56.1417 57.2513 56.0617 57.3213C56.0417 57.3413 56.0217 57.3613 56.0017 57.3813C56.0017 57.3813 55.9917 57.3913 55.9817 57.4013C55.9317 57.4513 55.9717 57.4013 55.9817 57.4013C55.9417 57.4413 55.8817 57.4713 55.8417 57.5013C55.7317 57.5713 55.6717 57.7213 55.7517 57.8413C55.8217 57.9513 55.9817 58.0113 56.0917 57.9313C56.7917 57.4713 57.3017 56.6813 57.2517 55.8213C57.2417 55.5913 57.1917 55.3713 57.1017 55.1613C57.0417 55.0313 56.9417 54.9613 56.7917 54.9913C55.9217 55.1513 55.0617 55.7613 54.8217 56.6413C54.7517 56.8813 54.7517 57.1213 54.7917 57.3713C54.8117 57.5013 54.9817 57.5813 55.1017 57.5413C55.2417 57.4913 55.3017 57.3713 55.2717 57.2313L55.2817 57.2613Z" fill="#38A86C"/>
<path d="M41.6015 43.1028C42.4315 42.2228 43.4415 41.5428 44.5415 41.0328L44.2015 40.6928C43.7515 41.3128 43.3115 41.9428 42.8615 42.5628L42.2115 43.4728C42.1215 43.5928 41.9615 43.7428 41.9615 43.9028C41.9615 44.0328 42.0515 44.1528 42.1615 44.2128C42.6715 44.4928 43.2715 43.8528 43.6215 43.5728C44.2215 43.1028 44.8315 42.6328 45.4315 42.1528L45.0415 41.8528C44.3615 43.0228 43.6815 44.2028 43.0015 45.3728C42.8515 45.6328 43.1815 45.8428 43.3915 45.6728C44.7715 44.5828 46.1515 43.5028 47.6315 42.5528L47.3315 42.1628C46.0915 43.4528 45.0015 44.8828 44.1015 46.4228C43.9515 46.6728 44.2815 46.9028 44.4915 46.7228C45.5615 45.7928 46.6415 44.8628 47.7115 43.9328L47.3215 43.6328C46.8015 44.3528 46.2915 45.0728 45.7715 45.7928C45.6015 46.0228 45.9715 46.3028 46.1615 46.0928C47.4615 44.6427 48.4815 42.9728 49.1015 41.1228C49.1615 40.9328 48.9115 40.7128 48.7315 40.8428C48.0315 41.3728 47.3315 41.9028 46.6315 42.4328L46.9715 42.7728C47.5415 41.8728 48.1015 40.9828 48.6715 40.0828C48.8315 39.8328 48.4815 39.5928 48.2815 39.7828C47.7415 40.2828 47.2015 40.7828 46.6615 41.2828L47.0815 41.5228C47.3915 40.6628 47.9415 39.9128 48.6115 39.2928C48.8215 39.0928 48.5515 38.7628 48.3115 38.9028C47.7315 39.2228 47.1915 39.5828 46.6715 39.9928C46.4515 40.1728 46.7415 40.5328 46.9715 40.3828C47.1615 40.2628 47.3615 40.1428 47.5515 40.0228C47.8215 39.8528 47.5715 39.4228 47.3015 39.5928C47.1115 39.7128 46.9115 39.8328 46.7215 39.9528L47.0215 40.3428C47.5015 39.9628 48.0215 39.6328 48.5615 39.3328L48.2615 38.9428C47.5215 39.6228 46.9515 40.4428 46.6015 41.3928C46.5115 41.6428 46.8515 41.7928 47.0215 41.6328C47.5615 41.1328 48.1015 40.6328 48.6415 40.1328L48.2515 39.8328C47.6815 40.7328 47.1215 41.6228 46.5515 42.5228C46.4215 42.7228 46.6915 43.0228 46.8915 42.8628C47.5915 42.3328 48.2915 41.8028 48.9915 41.2728L48.6215 40.9928C48.0315 42.7528 47.0515 44.3628 45.8115 45.7428L46.2015 46.0428C46.7215 45.3228 47.2315 44.6028 47.7515 43.8828C47.9215 43.6428 47.5615 43.4028 47.3615 43.5828C46.2915 44.5128 45.2115 45.4428 44.1415 46.3728L44.5315 46.6728C45.4115 45.1628 46.4815 43.7728 47.6915 42.5128C47.8815 42.3128 47.6315 41.9628 47.3915 42.1228C45.8815 43.1028 44.4615 44.2128 43.0515 45.3228L43.4415 45.6228C44.1215 44.4528 44.8015 43.2728 45.4815 42.1028C45.6315 41.8428 45.3015 41.6328 45.0915 41.8028C44.5815 42.2028 44.0815 42.5928 43.5715 42.9928C43.3215 43.1928 43.0715 43.3928 42.8115 43.5828C42.7415 43.6428 42.6615 43.6928 42.5815 43.7328C42.5415 43.7528 42.4915 43.7528 42.4515 43.7628C42.3515 43.8028 42.4115 43.6728 42.4615 43.8328L42.4315 44.0228C43.1615 42.9928 43.9015 41.9628 44.6315 40.9428C44.7915 40.7228 44.4915 40.5028 44.2915 40.6028C43.1615 41.1228 42.1115 41.8428 41.2515 42.7428C41.0315 42.9728 41.3815 43.3327 41.6015 43.0928V43.1028Z" fill="#E91959"/>
<path d="M52.1518 46.1125C52.6518 45.5125 53.4918 45.3025 54.2318 45.3925L54.0518 44.9625C53.1818 45.8525 52.4318 46.8725 51.8918 47.9925C51.7818 48.2225 52.0018 48.4425 52.2318 48.3325C53.0218 47.9625 53.7518 47.5025 54.4318 46.9625L54.0418 46.6625C53.3918 47.5825 52.7418 48.5025 52.0918 49.4225C51.9518 49.6225 52.2318 49.9125 52.4318 49.7625C53.3718 49.0925 54.3018 48.4325 55.2418 47.7625L54.8718 47.4825C54.6118 48.4025 53.9418 49.1525 53.1318 49.6425L53.5018 49.9225C53.5918 49.6625 53.8218 49.4625 54.0518 49.3125C54.3418 49.1125 54.6718 48.9725 55.0018 48.8425C55.6818 48.5625 56.4218 48.3225 56.9518 47.7825C57.2118 47.5125 57.4018 47.1625 57.3718 46.7825C57.3718 46.6625 57.2618 46.5125 57.1218 46.5325C56.5018 46.6025 55.8818 46.6725 55.2618 46.7525L55.4418 47.1825C55.8818 46.7225 56.4418 46.4025 57.0418 46.1925L56.9118 45.7125C56.4418 45.8825 55.9818 46.0425 55.5118 46.2125L55.8218 46.5225C56.0218 46.0125 56.4218 45.5925 56.8718 45.3025C57.1418 45.1325 56.8918 44.6925 56.6218 44.8725C56.0518 45.2425 55.5918 45.7525 55.3418 46.3925C55.2718 46.5625 55.4818 46.7625 55.6518 46.7025C56.1218 46.5325 56.5818 46.3725 57.0518 46.2025C57.1818 46.1525 57.2618 46.0325 57.2218 45.8925C57.1918 45.7725 57.0418 45.6725 56.9118 45.7225C56.2318 45.9525 55.6018 46.3225 55.0918 46.8425C54.9518 46.9825 55.0418 47.2925 55.2718 47.2725C55.8918 47.2025 56.5118 47.1325 57.1318 47.0525L56.8818 46.8025C56.9018 47.0825 56.7618 47.3025 56.5518 47.4925C56.3018 47.7325 55.9918 47.9025 55.6818 48.0425C55.0318 48.3525 54.3218 48.5325 53.7318 48.9525C53.4218 49.1725 53.1618 49.4425 53.0318 49.8125C52.9518 50.0225 53.2218 50.2025 53.4018 50.0925C54.3218 49.5325 55.0818 48.6825 55.3718 47.6325C55.4218 47.4325 55.1918 47.2225 55.0018 47.3525C54.0618 48.0225 53.1318 48.6825 52.1918 49.3525L52.5318 49.6925C53.1818 48.7725 53.8318 47.8525 54.4818 46.9325C54.5518 46.8325 54.5118 46.6825 54.4218 46.6125C54.3118 46.5325 54.1918 46.5525 54.0918 46.6325C53.4518 47.1425 52.7318 47.5725 51.9918 47.9225L52.3318 48.2625C52.8618 47.1725 53.5718 46.1925 54.4218 45.3325C54.5918 45.1625 54.4518 44.9325 54.2418 44.9025C53.3818 44.7925 52.3718 45.0825 51.8018 45.7625C51.7118 45.8625 51.7018 46.0125 51.8018 46.1125C51.8918 46.2025 52.0718 46.2125 52.1518 46.1125Z" fill="#E91959"/>
</svg>
