<svg width="100" height="100" viewBox="0 0 100 100" fill="none" xmlns="http://www.w3.org/2000/svg">
<path d="M43.8818 70.7451C43.8818 67.721 46.3333 65.2695 49.3574 65.2695H50.3528C53.3769 65.2695 55.8284 67.721 55.8284 70.7451V83.5358C55.8284 86.5599 53.3769 89.0114 50.3528 89.0114H49.3574C46.3333 89.0114 43.8818 86.5599 43.8818 83.5358V70.7451Z" fill="#A46735"/>
<path d="M49.2479 64.4542C49.2719 64.4516 49.3504 64.4435 49.4439 64.456C49.4844 64.4615 49.6022 64.4794 49.7287 64.5569C49.7516 64.571 49.7748 64.5876 49.7982 64.6062C49.9154 64.6257 50.0724 64.6502 50.2718 64.6785L51.8992 64.9094C52.5611 65.0033 53.1705 65.2542 53.7196 65.6531L55.0938 66.6517C55.7128 67.1014 56.08 67.7273 56.1679 68.4869L56.3625 70.1681C56.431 70.7592 56.4604 71.3471 56.4502 71.9317L56.4214 73.5887C56.4115 74.1536 56.3866 74.7185 56.347 75.2833L56.2307 76.9402C56.1967 77.4253 56.2304 77.9114 56.333 78.4003L56.681 80.0572C56.8077 80.6605 56.8671 81.2694 56.8589 81.8825L56.8363 83.5634C56.8273 84.238 56.6622 84.8818 56.3467 85.4868L55.5516 87.0114C55.2262 87.6355 54.7578 88.1353 54.156 88.5001L52.6857 89.3912C52.088 89.7535 51.4326 89.9439 50.7321 89.9596L49.0033 89.9985C48.2904 90.0145 47.6203 89.8344 47.0081 89.4647L45.5167 88.564C44.8755 88.1768 44.4299 87.6199 44.218 86.9098L43.7423 85.3164C43.5763 84.7601 43.4413 84.196 43.3373 83.6245L43.0395 81.9876C42.9261 81.3646 42.9163 80.7369 43.0095 80.1079L43.255 78.451C43.3274 77.9624 43.3332 77.4749 43.2725 76.987L43.0662 75.33C42.9945 74.7538 42.952 74.1772 42.9393 73.6005L42.9028 71.9436C42.8889 71.313 42.9769 70.6922 43.1657 70.0844L43.6647 68.4786C43.8704 67.8161 44.2385 67.2551 44.7646 66.8128L46.0207 65.7568C46.4875 65.3643 46.9725 65.0714 47.4752 64.9284L48.5999 64.6085C48.79 64.5545 48.9464 64.5128 49.0605 64.4872C49.1127 64.4755 49.1813 64.4612 49.2479 64.4542ZM48.9908 65.9826L47.866 66.3025C47.6189 66.3727 47.3103 66.5387 46.9397 66.8502L45.6838 67.9062C45.3725 68.1679 45.1554 68.4943 45.0287 68.9024L44.53 70.5082C44.3863 70.9709 44.3203 71.4379 44.3307 71.912L44.3675 73.5689C44.3791 74.0968 44.4177 74.6249 44.4835 75.1533L44.6899 76.8105C44.7667 77.4271 44.7594 78.0442 44.6681 78.6602L44.4223 80.3171C44.3519 80.7928 44.3594 81.2634 44.4447 81.7318L44.7427 83.3688C44.8373 83.8887 44.9602 84.4018 45.1112 84.9079L45.5867 86.5014C45.6918 86.8537 45.902 87.1281 46.2551 87.3413L47.7465 88.242C48.1285 88.4727 48.5317 88.5801 48.9712 88.5703L50.7 88.5315C51.1519 88.5213 51.5628 88.4015 51.9452 88.1697L53.4155 87.2786C53.7939 87.0492 54.0804 86.7436 54.285 86.3512L55.0801 84.8265C55.2947 84.415 55.4019 83.9902 55.4079 83.5443L55.4305 81.8634C55.4373 81.356 55.3883 80.8522 55.2831 80.3509L54.935 78.6939C54.8058 78.0782 54.7623 77.4597 54.8058 76.8403L54.9223 75.1831C54.9602 74.6433 54.9838 74.1035 54.9932 73.5638L55.022 71.9068C55.031 71.3868 55.005 70.8621 54.9437 70.3324L54.7491 68.6513C54.7072 68.2902 54.5514 68.023 54.2543 67.8071L52.8801 66.8088C52.5131 66.5422 52.1217 66.3836 51.6986 66.3236L50.0711 66.0928C49.7978 66.054 49.5827 66.0208 49.4325 65.9932C49.3603 65.98 49.287 65.9653 49.2251 65.9488C49.2123 65.9454 49.1932 65.9401 49.1705 65.9328C49.1184 65.9469 49.0586 65.9633 48.9908 65.9826Z" fill="black"/>
<path d="M51.3543 10.7539C58.476 10.754 64.2491 16.5273 64.2491 23.6489C64.2491 24.6557 64.1336 25.6356 63.9153 26.576C70.7412 26.9078 76.1735 32.5474 76.1735 39.4556C76.1735 42.8322 74.8755 45.9055 72.7515 48.2042C78.9305 49.1591 83.661 54.5007 83.6611 60.9472C83.6611 68.0689 77.8877 73.8422 70.766 73.8422H28.6841C21.5624 73.8422 15.7891 68.0689 15.7891 60.9472C15.7891 55.5831 19.0644 50.9841 23.7242 49.0407C21.6298 46.5931 20.3647 43.4148 20.3647 39.9408C20.3647 32.2066 26.6346 25.9366 34.3689 25.9366C34.743 25.9366 35.1137 25.9515 35.4804 25.9803C35.3424 25.2242 35.2703 24.445 35.2703 23.6489C35.2703 16.5273 41.0434 10.754 48.1651 10.7539H51.3543Z" fill="#8AC97E"/>
<path d="M51.3984 10.0024C51.4106 10.0033 51.4578 10.0067 51.5151 10.02C51.5281 10.0231 51.5591 10.0309 51.5997 10.0458C51.6064 10.0463 51.6134 10.0468 51.6206 10.0472C51.7639 10.0559 51.9824 10.0672 52.2781 10.0812L54.0564 10.1653C54.769 10.199 55.435 10.4034 56.043 10.7756L57.5593 11.704C58.0793 12.0222 58.5827 12.3559 59.0693 12.7051L60.4861 13.7217C61.038 14.1177 61.4901 14.6094 61.8378 15.1922L62.7299 16.6876C63.0344 17.198 63.3258 17.7202 63.604 18.2541L64.4201 19.8202C64.7394 20.433 64.9184 21.0894 64.9562 21.7821L65.0532 23.5581C65.083 24.1048 65.1635 24.5389 65.2801 24.8743L65.7137 26.122C65.7411 26.2009 65.8115 26.3401 66.2354 26.4024L67.9865 26.6598C68.6942 26.7638 69.3345 27.0405 69.8957 27.4844L71.2843 28.5832C71.7813 28.9763 72.2346 29.408 72.6432 29.8781L73.7799 31.1861C74.2033 31.6733 74.5494 32.2099 74.8168 32.7942L75.5331 34.3598C75.7791 34.8977 76.0087 35.4526 76.2222 36.0242L76.8452 37.6926C77.0961 38.3643 77.1656 39.0606 77.0531 39.7691L76.7734 41.5305C76.668 42.1943 76.4593 42.8204 76.1468 43.4048L75.3243 44.943C75.0611 45.4352 74.8233 45.9371 74.611 46.4486L73.9473 48.0481C73.9318 48.0854 73.9221 48.1154 73.9159 48.1383C73.9345 48.147 73.9588 48.1573 73.9903 48.1678L75.6049 48.7095C76.2039 48.9105 76.7656 49.1876 77.2884 49.5402L78.6966 50.4902C79.1725 50.8112 79.6569 51.1492 80.1494 51.5045L81.6099 52.5582C82.2102 52.9913 82.6464 53.5607 82.9067 54.2528L83.5386 55.933C83.7757 56.5634 83.9076 57.2112 83.932 57.8738L83.9964 59.6249C84.019 60.2412 83.9991 60.8494 83.9362 61.4492L83.7583 63.1457C83.6962 63.7374 83.6006 64.3333 83.4719 64.9333L83.1013 66.6617C82.9478 67.3774 82.6021 67.9968 82.0735 68.5032L80.7971 69.7259C80.3703 70.1348 79.9449 70.539 79.521 70.9385L78.2532 72.1333C77.7475 72.6098 77.1564 72.9458 76.4884 73.1365L74.8135 73.6145C74.2227 73.7831 73.6257 73.9084 73.0229 73.9897L71.3176 74.2197C70.7599 74.2949 70.1931 74.3844 69.6174 74.4879L67.8605 74.8039C67.1914 74.9242 66.5202 74.9245 65.8511 74.8046L64.0941 74.4896C63.5853 74.3984 63.0785 74.3914 62.5706 74.4686L60.8137 74.7358C60.1962 74.8297 59.578 74.8811 58.9594 74.8897L57.2022 74.9141C56.5896 74.9226 55.9771 74.8965 55.3649 74.8357L53.6079 74.6614C53.0549 74.6065 52.5022 74.5898 51.9496 74.6114L50.1924 74.6802C49.5787 74.7043 48.9649 74.692 48.3514 74.6435L46.5944 74.5044C46.0296 74.4598 45.4647 74.4399 44.9 74.4449L43.1431 74.4607C42.5336 74.4662 41.9241 74.4411 41.3148 74.3854L39.5579 74.225C38.999 74.1739 38.4403 74.1544 37.8817 74.1666L36.1245 74.2052C35.5361 74.2181 34.9476 74.2274 34.3592 74.2334L32.6023 74.2513C32.0157 74.2572 31.4298 74.262 30.8447 74.2654L29.0922 74.2757C28.503 74.2792 27.9099 74.2765 27.3132 74.2675L25.5376 74.2408C24.8163 74.2299 24.1423 74.0321 23.5294 73.6514L22.0205 72.7145C21.5036 72.3935 20.9993 72.0557 20.5075 71.7009L19.0723 70.6654C18.5034 70.2549 18.0545 69.7348 17.7316 69.1121L16.9169 67.5419C16.6421 67.0119 16.3741 66.4751 16.113 65.9316L15.339 64.3207C15.0142 63.6447 14.9223 62.9263 15.0654 62.1888L15.4074 60.4263C15.5207 59.8424 15.6266 59.2716 15.7254 58.714L16.0242 57.0294C16.1326 56.4173 16.3068 55.8154 16.5454 55.2246L17.2073 53.5858C17.4651 52.9476 17.8429 52.3841 18.3365 51.9002L19.6082 50.6534C20.0728 50.198 20.5868 49.8021 21.1489 49.4658L22.692 48.5428C22.73 48.5201 22.7581 48.5 22.7787 48.4838C22.7689 48.4676 22.7562 48.4478 22.7392 48.425L21.7037 47.0337C21.3279 46.529 21.006 45.9839 20.7374 45.4L19.9923 43.7801C19.689 43.1205 19.579 42.4225 19.6643 41.7009L19.8737 39.927C19.9444 39.3288 20.0226 38.7417 20.1083 38.1659L20.3622 36.4608C20.4565 35.8272 20.6361 35.2162 20.8999 34.6297L21.6114 33.0483C21.8786 32.4543 22.2301 31.9142 22.6645 31.4305L23.8198 30.1441C24.2157 29.7032 24.6302 29.2721 25.0629 28.8507L26.3274 27.6193C26.8179 27.1417 27.3858 26.7768 28.026 26.527L29.6813 25.8814C30.2718 25.651 30.8804 25.4729 31.5066 25.3469L33.2649 24.9931C33.5103 24.9437 33.6628 24.8828 33.7503 24.831C33.8251 24.7867 33.8322 24.7618 33.8273 24.7708L34.2207 23.8525C34.3238 23.6116 34.4366 23.2248 34.5499 22.6654L34.9004 20.9343C35.026 20.314 35.2072 19.7124 35.444 19.1301L36.104 17.5078C36.3421 16.9226 36.6384 16.362 36.9922 15.8262L37.9772 14.3341C38.3745 13.7324 38.9001 13.2657 39.5444 12.9427L41.1416 12.1417C41.7022 11.8607 42.2705 11.622 42.8465 11.4264L44.4783 10.8721C45.0697 10.6712 45.6775 10.5337 46.3008 10.4597L48.0231 10.2551C48.6046 10.186 49.1038 10.1373 49.5182 10.11L50.7116 10.0317C50.9115 10.0185 51.0665 10.0091 51.1733 10.0042C51.2251 10.0019 51.2739 10.0003 51.3135 10C51.3302 9.99995 51.3628 9.99975 51.3984 10.0024ZM51.1824 11.4343C51.0918 11.439 50.9666 11.4462 50.8053 11.4568L49.6119 11.5354C49.2308 11.5605 48.758 11.6062 48.1914 11.6735L46.4694 11.8781C45.9445 11.9405 45.4341 12.0559 44.9377 12.2245L43.3061 12.7788C42.7943 12.9526 42.2862 13.1657 41.7819 13.4186L40.1845 14.2195C39.764 14.4303 39.4287 14.7281 39.1692 15.1211L38.1841 16.6132C37.8811 17.0722 37.629 17.5497 37.4271 18.046L36.7671 19.6684C36.564 20.1676 36.4086 20.6838 36.3005 21.2177L35.9499 22.949C35.8295 23.5436 35.6938 24.0412 35.5338 24.4149L35.1388 25.3367C34.8611 25.9848 34.1863 26.2649 33.5467 26.3936L31.7883 26.7472C31.2424 26.857 30.7133 27.0121 30.2004 27.2122L28.5451 27.8578C28.0818 28.0385 27.6764 28.2993 27.3239 28.6427L26.0593 29.8742C25.649 30.2737 25.2567 30.6818 24.8825 31.0985L23.7272 32.3848C23.3916 32.7586 23.121 33.1744 22.914 33.6344L22.2026 35.2156C21.9922 35.6832 21.85 36.1678 21.775 36.671L21.5212 38.3763C21.4376 38.9373 21.3614 39.51 21.2924 40.0944L21.0827 41.8685C21.0282 42.3296 21.0968 42.763 21.2901 43.1833L22.0352 44.8032C22.2633 45.2992 22.5347 45.758 22.8494 46.1807L23.8851 47.5722C24.1227 47.8914 24.3092 48.3144 24.2052 48.7886C24.1032 49.2544 23.7645 49.5658 23.4252 49.7687L21.8822 50.6915C21.4158 50.9705 20.9915 51.2978 20.6082 51.6735L19.3365 52.9204C18.9822 53.2677 18.7153 53.6663 18.5318 54.1207L17.8699 55.7595C17.6672 56.2613 17.5211 56.7675 17.4305 57.2786L17.132 58.9632C17.0318 59.5288 16.9244 60.1072 16.8098 60.6983L16.4678 62.4608C16.3829 62.8983 16.4354 63.3042 16.6266 63.7021L17.4005 65.313C17.6554 65.8434 17.9168 66.3672 18.1849 66.8841L18.9996 68.4546C19.2196 68.8788 19.5204 69.2274 19.9081 69.5071L21.3433 70.5424C21.8082 70.8778 22.285 71.1975 22.774 71.5012L24.2829 72.4381C24.6759 72.6821 25.0969 72.8057 25.5593 72.8126L27.3348 72.8394C27.9217 72.8482 28.5047 72.8509 29.0838 72.8475L30.8361 72.837C31.4192 72.8336 32.0032 72.8288 32.5879 72.8229L34.3448 72.805C34.9277 72.799 35.5105 72.7898 36.0934 72.7771L37.8503 72.7387C38.4629 72.7253 39.0755 72.7465 39.6879 72.8024L41.4448 72.9628C42.0068 73.0141 42.5686 73.0373 43.1303 73.0323L44.8873 73.0167C45.4939 73.0113 46.1005 73.0325 46.707 73.0805L48.4639 73.2195C49.0216 73.2636 49.5792 73.2748 50.1366 73.253L51.8936 73.1841C52.5122 73.1599 53.1308 73.1786 53.7491 73.2399L55.506 73.4143C56.065 73.4698 56.6238 73.4937 57.1825 73.4859L58.9394 73.4615C59.492 73.4538 60.0451 73.4078 60.5989 73.3236L62.3558 73.0565C63.0192 72.9556 63.6838 72.9647 64.3461 73.0835L66.1031 73.3985C66.6052 73.4885 67.1056 73.4883 67.6077 73.398L69.3647 73.0821C69.9602 72.975 70.5476 72.8822 71.1267 72.804L72.8318 72.5741C73.3658 72.502 73.8956 72.391 74.4213 72.2409L76.0962 71.7629C76.5445 71.635 76.9343 71.4134 77.2737 71.0936L78.5412 69.8991C78.9623 69.5023 79.385 69.1008 79.809 68.6945L81.0854 67.4716C81.4077 67.1629 81.6111 66.7984 81.7047 66.362L82.0753 64.6339C82.1937 64.0818 82.281 63.536 82.3376 62.9967L82.5157 61.3002C82.5714 60.7692 82.5891 60.2283 82.5689 59.6774L82.5045 57.9263C82.4859 57.4216 82.3858 56.9256 82.2016 56.4358L81.5697 54.7556C81.4086 54.3276 81.1473 53.9859 80.7741 53.7166L79.3136 52.663C78.8325 52.316 78.3605 51.9864 77.8977 51.6742L76.4898 50.7245C76.0738 50.444 75.6278 50.2239 75.1504 50.0638L73.5358 49.5221C73.1643 49.3974 72.7795 49.1633 72.5879 48.7318C72.3978 48.3037 72.4782 47.8613 72.6279 47.5006L73.2919 45.9011C73.5221 45.3463 73.7797 44.8024 74.0647 44.2694L74.8872 42.7313C75.123 42.2904 75.2816 41.8166 75.3627 41.3064L75.6423 39.5453C75.7163 39.0798 75.6715 38.6327 75.507 38.1922L74.884 36.5238C74.6821 35.9831 74.4653 35.4599 74.2339 34.9541L73.5179 33.3885C73.3077 32.9292 73.0362 32.5078 72.7018 32.123L71.5649 30.8151C71.2157 30.4133 70.827 30.0426 70.3981 29.7033L69.0094 28.6045C68.6447 28.316 68.2382 28.1406 67.7786 28.0731L66.0277 27.8157C65.2844 27.7064 64.6263 27.3439 64.3645 26.591L63.9307 25.3432C63.7581 24.8467 63.6616 24.2729 63.6268 23.6358L63.5299 21.86C63.5031 21.3689 63.3779 20.9113 63.1532 20.4802L62.3372 18.9144C62.0715 18.4044 61.7935 17.906 61.5033 17.4195L60.611 15.9241C60.3639 15.51 60.0463 15.1641 59.6536 14.8823L58.2366 13.8656C57.7787 13.5371 57.3044 13.2227 56.8135 12.9222L55.2972 11.9941C54.8944 11.7475 54.462 11.6145 53.989 11.5921L52.2107 11.508C51.9136 11.4939 51.6873 11.4824 51.5341 11.4731C51.4586 11.4685 51.3952 11.4642 51.3484 11.4601C51.327 11.4582 51.2979 11.4555 51.2693 11.4515C51.2588 11.45 51.2257 11.4451 51.1866 11.4354C51.1854 11.4352 51.184 11.4347 51.1824 11.4343Z" fill="black"/>
</svg>
