<svg width="100" height="100" viewBox="0 0 100 100" fill="none" xmlns="http://www.w3.org/2000/svg">
<path d="M14.9998 40.9802C15.6298 40.6802 16.2698 40.3602 16.8798 40.0102C17.4898 39.6602 18.0998 39.2102 18.6998 38.8102C19.8898 38.0002 21.0698 37.1902 22.2598 36.3802C23.4498 35.5702 24.7298 34.8402 25.9398 34.0202C26.5698 33.6002 27.1798 33.1402 27.8298 32.7402C28.4798 32.3402 29.1098 31.9602 29.7398 31.5702C32.2698 30.0002 34.8098 28.4502 37.3998 26.9702C38.6698 26.2402 39.9398 25.5302 41.2298 24.8602C42.5198 24.1902 43.8998 23.5602 45.2298 22.8902C46.7298 22.1402 48.2098 21.3502 49.6998 20.5802C51.1898 19.8102 52.6698 18.8602 54.3098 18.4702C54.4698 18.4302 54.5298 18.2302 54.5698 18.0902C54.6698 17.7502 54.6698 17.3702 54.6498 17.0202C54.6498 16.9202 54.5098 15.6702 54.1498 15.9702C52.9298 16.9902 51.5298 17.7302 50.1498 18.5202C48.7698 19.3102 47.4698 20.0402 46.0998 20.7502C43.4698 22.1202 40.7898 23.3502 38.2098 24.8102C35.6298 26.2702 33.0898 27.9102 30.5398 29.4702C29.2798 30.2502 28.0298 31.0602 26.7098 31.7302C25.3898 32.4002 24.1698 32.9802 22.9498 33.7002C21.5498 34.5302 20.2298 35.4802 18.9098 36.4402C18.2398 36.9202 17.5798 37.4002 16.8998 37.8602C16.1898 38.3502 15.5098 38.9002 14.7998 39.3902C14.4798 39.6102 14.5798 41.1702 14.9898 40.9702L14.9998 40.9802Z" fill="#FFD770"/>
<path d="M22.5502 52.0002C23.6102 51.2102 24.6502 50.3902 25.6502 49.5102C26.7102 48.5802 27.6902 47.5502 28.7002 46.5702C30.7002 44.6402 32.7502 42.7302 34.9902 41.0802C36.1102 40.2502 37.3202 39.5902 38.4802 38.8302C39.6402 38.0702 40.8202 37.1102 41.9102 36.1502C43.0002 35.1902 44.0602 34.2102 45.1402 33.2602C46.2902 32.2602 47.4902 31.3202 48.6602 30.3502C51.5002 27.9902 54.2802 25.5502 57.0802 23.1402C57.3902 22.8702 57.3102 22.1202 57.2802 21.7702C57.2702 21.6402 57.1402 20.7602 56.8602 21.0002C54.3602 23.1402 51.8802 25.2902 49.3502 27.4002C48.1402 28.4102 46.9002 29.3802 45.6902 30.3802C44.5902 31.2902 43.5402 32.2602 42.4702 33.2102C41.4002 34.1602 40.2702 35.1302 39.0802 35.9902C37.8902 36.8502 36.7002 37.4502 35.5502 38.2302C33.2402 39.8002 31.1802 41.6902 29.1902 43.6402C28.0502 44.7502 26.9402 45.8802 25.8102 46.9902C24.6802 48.1002 23.5602 49.4002 22.3802 50.5502C22.1702 50.7602 22.2002 51.2102 22.2302 51.4702C22.2402 51.5802 22.3402 52.1502 22.5502 51.9902V52.0002Z" fill="#FFD770"/>
<path d="M29.76 70.4703C30.48 69.8203 31.06 69.0703 31.64 68.3103C32.22 67.5503 32.79 66.8103 33.33 66.0403C34.46 64.4203 35.56 62.7803 36.76 61.2203C37.96 59.6603 39.21 58.1303 40.53 56.6703C41.85 55.2103 43.32 53.8203 44.59 52.2903C45.86 50.7603 47.11 49.1903 48.44 47.7003C49.67 46.3203 50.98 45.0103 52.32 43.7403C53 43.0903 53.59 42.3303 54.21 41.6203C54.83 40.9103 55.46 40.1603 56.07 39.4203C57.31 37.9303 58.54 36.4303 59.78 34.9303C62.55 31.6003 65.35 28.3003 68.32 25.1403C68.59 24.8503 68.55 24.2503 68.51 23.8903C68.5 23.7903 68.34 22.9403 68.1 23.1903C62.78 28.8903 57.89 35.0003 52.99 41.0603C51.7 42.6603 50.55 44.3603 49.25 45.9503C48.05 47.4103 46.69 48.7103 45.27 49.9503C43.85 51.1903 42.45 52.3903 41.11 53.6703C39.77 54.9503 38.47 56.4503 37.25 57.9103C35.88 59.5403 34.53 61.1903 33.19 62.8403C32.53 63.6603 31.9 64.5003 31.26 65.3503C30.56 66.2703 29.87 67.1803 29.29 68.1803C29.02 68.6403 29.01 69.2403 29.11 69.7503C29.15 69.9403 29.4 70.7703 29.75 70.4603L29.76 70.4703Z" fill="#FFD770"/>
<path d="M57.5799 51.7201C60.6099 46.5601 63.6699 41.4101 66.9199 36.3901C67.3699 35.7001 67.8199 35.0101 68.2999 34.3401C68.7799 33.6701 69.3299 33.0701 69.8099 32.4101C69.9499 32.2201 69.9799 31.8101 69.9999 31.6001C70.0199 31.2701 69.9999 30.8901 69.9299 30.5601C69.8599 30.2701 69.6199 29.6001 69.2999 30.0901C68.8599 30.7701 68.4899 31.4801 68.0699 32.1601C67.6499 32.8401 67.2499 33.4601 66.8199 34.1101C65.9899 35.3601 65.1599 36.6301 64.3499 37.9001C62.7299 40.4401 61.1499 43.0101 59.6899 45.6501C58.8099 47.2501 57.9399 48.8501 57.1099 50.4701C56.9599 50.7601 56.9899 51.2301 57.1099 51.5201C57.1799 51.6901 57.3999 52.0001 57.5699 51.7201H57.5799Z" fill="#FFD770"/>
<path d="M80.2399 30.0298C79.3399 31.7898 78.7199 33.6598 78.1299 35.5398C77.5399 37.4198 76.9599 39.2698 76.3899 41.1398C75.8199 43.0098 75.19 44.8898 74.48 46.7298C73.77 48.5698 72.8199 50.3998 71.9699 52.3498C70.3799 56.0298 69.3099 59.8998 67.8799 63.6498C67.1899 65.4698 66.3499 67.1998 65.4999 68.9598C64.6499 70.7198 63.8699 72.6398 63.1799 74.5298C62.4099 76.6198 61.7399 78.7398 61.0399 80.8598C60.6999 81.8698 60.3699 82.8898 60.0099 83.8898C59.6799 84.8098 59.3599 85.7898 58.8799 86.5698C58.4999 87.1898 58.5199 88.2298 58.8199 88.8898C58.8899 89.0398 59.0399 89.3198 59.2499 89.3098C59.5699 89.3098 59.6899 88.7898 59.7399 88.5698C60.1299 86.6498 60.7999 84.7798 61.4299 82.9298C62.0499 81.0998 62.7199 79.2798 63.4099 77.4698C64.0999 75.6598 64.7999 73.9298 65.6199 72.2098C66.4399 70.4898 67.3899 68.7598 68.1499 66.9698C69.6699 63.3698 70.7599 59.5998 72.2699 55.9898C73.0099 54.2198 73.9799 52.4798 74.7799 50.6698C75.5799 48.8598 76.2699 46.9698 76.8899 45.0598C77.5699 42.9598 78.1599 40.8298 78.7899 38.7098C79.4499 36.5098 80.1399 34.3198 80.8199 32.1298C80.9899 31.5798 80.9499 30.9098 80.8099 30.3598C80.7499 30.1198 80.4999 29.5598 80.2599 30.0298H80.2399Z" fill="#FFD770"/>
</svg>
