<svg width="100" height="100" viewBox="0 0 100 100" fill="none" xmlns="http://www.w3.org/2000/svg">
<g clip-path="url(#clip0_4008_34459)">
<circle cx="49.7464" cy="49.9993" r="31.7259" fill="#F6AF2F"/>
<path d="M48.681 2.28427C49.2672 1.26904 50.7325 1.26904 51.3187 2.28426L56.5939 11.4213C57.1801 12.4365 56.4474 13.7056 55.2751 13.7056L44.7246 13.7056C43.5523 13.7056 42.8196 12.4365 43.4057 11.4213L48.681 2.28427Z" fill="#FE9331"/>
<path d="M48.681 97.7157C49.2672 98.731 50.7325 98.731 51.3187 97.7157L56.5939 88.5787C57.1801 87.5635 56.4474 86.2944 55.2751 86.2944H44.7246C43.5523 86.2944 42.8196 87.5635 43.4057 88.5787L48.681 97.7157Z" fill="#FE9331"/>
<path d="M2.28426 51.3185C1.26904 50.7323 1.26904 49.267 2.28426 48.6808L11.4213 43.4056C12.4365 42.8194 13.7056 43.5521 13.7056 44.7244L13.7056 55.2749C13.7056 56.4472 12.4365 57.1799 11.4213 56.5938L2.28426 51.3185Z" fill="#FE9331"/>
<path d="M97.7157 51.3185C98.731 50.7323 98.731 49.267 97.7157 48.6808L88.5787 43.4056C87.5635 42.8194 86.2944 43.5521 86.2944 44.7244L86.2944 55.2749C86.2944 56.4472 87.5635 57.1799 88.5787 56.5938L97.7157 51.3185Z" fill="#FE9331"/>
<path d="M27.2844 91.9818C26.2692 92.5679 25.0002 91.8353 25.0002 90.663L25.0002 80.1124C25.0002 78.9401 26.2692 78.2074 27.2844 78.7936L36.4215 84.0689C37.4367 84.655 37.4367 86.1204 36.4215 86.7065L27.2844 91.9818Z" fill="#FE9331"/>
<path d="M75.0002 9.33669C75.0002 8.16441 73.7311 7.43173 72.7159 8.01787L63.5788 13.2932C62.5636 13.8793 62.5636 15.3447 63.5788 15.9308L72.7159 21.2061C73.7311 21.7922 75.0002 21.0595 75.0002 19.8873L75.0002 9.33669Z" fill="#FE9331"/>
<path d="M9.33669 74.9992C8.16441 74.9992 7.43173 73.7302 8.01787 72.7149L13.2932 63.5779C13.8793 62.5626 15.3447 62.5626 15.9308 63.5779L21.2061 72.7149C21.7922 73.7301 21.0595 74.9992 19.8873 74.9992L9.33669 74.9992Z" fill="#FE9331"/>
<path d="M91.9823 27.2854C92.5684 26.2702 91.8357 25.0011 90.6635 25.0011L80.1129 25.0011C78.9406 25.0011 78.2079 26.2702 78.7941 27.2854L84.0694 36.4225C84.6555 37.4377 86.1209 37.4377 86.707 36.4225L91.9823 27.2854Z" fill="#FE9331"/>
<path d="M97.7157 48.6815C98.731 49.2677 98.731 50.733 97.7157 51.3192L88.5787 56.5944C87.5635 57.1806 86.2944 56.4479 86.2944 55.2756L86.2944 44.7251C86.2944 43.5528 87.5635 42.8201 88.5787 43.4062L97.7157 48.6815Z" fill="#FE9331"/>
<path d="M2.28426 48.6815C1.26904 49.2677 1.26904 50.733 2.28426 51.3192L11.4213 56.5944C12.4365 57.1806 13.7056 56.4479 13.7056 55.2756L13.7056 44.7251C13.7056 43.5528 12.4365 42.8201 11.4213 43.4062L2.28426 48.6815Z" fill="#FE9331"/>
<path d="M8.01772 27.2835C7.43158 26.2682 8.16426 24.9992 9.33654 24.9992L19.8871 24.9992C21.0594 24.9992 21.7921 26.2682 21.2059 27.2835L15.9306 36.4205C15.3445 37.4357 13.8791 37.4357 13.293 36.4205L8.01772 27.2835Z" fill="#FE9331"/>
<path d="M90.6633 74.9992C91.8356 74.9992 92.5683 73.7302 91.9821 72.7149L86.7068 63.5779C86.1207 62.5626 84.6553 62.5626 84.0692 63.5779L78.7939 72.7149C78.2078 73.7302 78.9405 74.9992 80.1127 74.9992L90.6633 74.9992Z" fill="#FE9331"/>
<path d="M25.0003 9.33669C25.0003 8.16441 26.2694 7.43173 27.2846 8.01787L36.4216 13.2932C37.4369 13.8793 37.4369 15.3447 36.4216 15.9308L27.2846 21.2061C26.2694 21.7922 25.0003 21.0595 25.0003 19.8873L25.0003 9.33669Z" fill="#FE9331"/>
<path d="M72.7151 91.9818C73.7303 92.5679 74.9993 91.8353 74.9993 90.663L74.9993 80.1124C74.9993 78.9401 73.7303 78.2074 72.7151 78.7936L63.578 84.0689C62.5628 84.655 62.5628 86.1204 63.578 86.7065L72.7151 91.9818Z" fill="#FE9331"/>
</g>
<defs>
<clipPath id="clip0_4008_34459">
<rect width="100" height="100" fill="white"/>
</clipPath>
</defs>
</svg>
