<svg width="100" height="100" viewBox="0 0 100 100" fill="none" xmlns="http://www.w3.org/2000/svg">
<path d="M62.2427 51.2384C61.2551 50.9775 59.8761 51.6763 58.9816 52.0118C58.5437 52.1795 58.1058 52.3472 57.6772 52.5242C57.5188 52.5894 57.0249 52.8317 56.8665 52.7851C56.2516 52.5894 56.8106 51.9372 56.9411 51.7322C57.6678 50.5862 58.4039 49.4401 59.1307 48.3034C61.9632 43.8869 64.8237 39.4983 67.6935 35.1098C68.3271 34.1315 68.97 33.1624 69.6036 32.1841C69.9856 31.5971 70.3862 31.0194 70.7589 30.4231C71.0012 30.0411 71.2155 29.687 71.1689 29.2118C71.1037 28.5503 70.5912 27.9912 69.9297 27.8887C69.147 27.7676 68.2712 28.3639 67.5723 28.6714C65.5318 29.5752 63.5099 30.5256 61.4973 31.4946C60.9476 31.7555 60.3979 32.0257 59.8575 32.2959C59.5034 32.4729 57.9101 33.5072 58.143 32.3332C58.1989 32.0443 58.553 31.6716 58.7021 31.4201C58.9443 31.0287 59.1773 30.6374 59.4102 30.2461C61.5532 26.6961 63.6683 23.1182 65.7368 19.5216C67.386 16.6611 69.0725 13.7913 70.5167 10.8191C70.7869 10.2507 70.0601 9.75686 69.6874 10.1296C69.5104 10.1202 69.324 10.1762 69.1843 10.3439C64.656 16.2605 60.3699 22.3635 56.0093 28.4105C53.5961 31.7555 51.1735 35.1098 48.7137 38.4268C47.9031 39.5263 46.021 41.2407 47.3999 42.6011C47.9497 43.1415 48.6858 43.1881 49.3659 42.8713C50.6238 42.2936 51.8351 41.6041 53.0836 40.9985C53.5961 40.7562 54.5465 40.076 55.1148 40.0947C55.9721 40.1226 55.6646 40.9705 55.3291 41.3898C54.6676 42.247 53.9781 43.0763 53.2886 43.9148C51.7699 45.7318 50.2138 47.5114 48.6485 49.291C47.1297 51.0241 45.6017 52.7478 44.1015 54.5088C43.3655 55.3661 42.6387 56.2326 41.9212 57.1177C41.3622 57.7979 40.5236 58.5713 40.1975 59.4005C39.6012 60.9007 41.6138 61.8045 42.7878 61.2547C43.6729 60.8354 44.4929 60.1459 45.3128 59.5962C46.198 59.0092 47.0645 58.2824 48.0149 57.7979C48.3969 57.6023 48.6299 57.6395 48.6671 58.124C48.7044 58.5526 48.2292 59.0651 48.0056 59.3912C47.3347 60.3882 46.6639 61.3758 45.993 62.3728C40.0484 71.1685 34.0386 79.9177 28.3084 88.8532C28.2897 88.8811 28.2897 88.8998 28.2804 88.9277C28.2338 88.9743 28.1872 89.0209 28.15 89.0675C27.6748 89.5706 28.4388 90.344 28.914 89.8315C35.9115 82.4055 42.9182 74.9887 49.8132 67.4695C53.3072 63.6586 56.792 59.8291 60.2115 55.9437C60.696 55.394 64.3578 51.8068 62.2148 51.2477L62.2427 51.2384Z" fill="#FFCD74"/>
<path d="M62.2427 51.2384C61.2551 50.9775 59.8761 51.6763 58.9816 52.0118C58.5437 52.1795 58.1058 52.3472 57.6772 52.5242C57.5188 52.5894 57.0249 52.8317 56.8665 52.7851C56.2516 52.5894 56.8106 51.9372 56.9411 51.7322C57.6678 50.5862 58.4039 49.4401 59.1307 48.3034C61.9632 43.8869 64.8237 39.4983 67.6935 35.1098C68.3271 34.1315 68.97 33.1624 69.6036 32.1841C69.9856 31.5971 70.3862 31.0194 70.7589 30.4231C71.0012 30.0411 71.2155 29.687 71.1689 29.2118C71.1037 28.5503 70.5912 27.9912 69.9297 27.8887C69.147 27.7676 68.2712 28.3639 67.5723 28.6714C65.5318 29.5752 63.5099 30.5256 61.4973 31.4946C60.9476 31.7555 60.3979 32.0257 59.8575 32.2959C59.5034 32.4729 57.9101 33.5072 58.143 32.3332C58.1989 32.0443 58.553 31.6716 58.7021 31.4201C58.9443 31.0287 59.1773 30.6374 59.4102 30.2461C61.5532 26.6961 63.6683 23.1182 65.7368 19.5216C67.386 16.6611 69.0725 13.7913 70.5167 10.8191C70.7869 10.2507 70.0601 9.75686 69.6874 10.1296C69.5104 10.1202 69.324 10.1762 69.1843 10.3439C64.656 16.2605 60.3699 22.3635 56.0093 28.4105C53.5961 31.7555 51.1735 35.1098 48.7137 38.4268C47.9031 39.5263 46.021 41.2407 47.3999 42.6011C47.9497 43.1415 48.6858 43.1881 49.3659 42.8713C50.6238 42.2936 51.8351 41.6041 53.0836 40.9985C53.5961 40.7562 54.5465 40.076 55.1148 40.0947C55.9721 40.1226 55.6646 40.9705 55.3291 41.3898C54.6676 42.247 53.9781 43.0763 53.2886 43.9148C51.7699 45.7318 50.2138 47.5114 48.6485 49.291C47.1297 51.0241 45.6017 52.7478 44.1015 54.5088C43.3655 55.3661 42.6387 56.2326 41.9212 57.1177C41.3622 57.7979 40.5236 58.5713 40.1975 59.4005C39.6012 60.9007 41.6138 61.8045 42.7878 61.2547C43.6729 60.8354 44.4929 60.1459 45.3128 59.5962C46.198 59.0092 47.0645 58.2824 48.0149 57.7979C48.3969 57.6023 48.6299 57.6395 48.6671 58.124C48.7044 58.5526 48.2292 59.0651 48.0056 59.3912C47.3347 60.3882 46.6639 61.3758 45.993 62.3728C40.0484 71.1685 34.0386 79.9177 28.3084 88.8532C28.2897 88.8811 28.2897 88.8998 28.2804 88.9277C28.2338 88.9743 28.1872 89.0209 28.15 89.0675C27.6748 89.5706 28.4388 90.344 28.914 89.8315C35.9115 82.4055 42.9182 74.9887 49.8132 67.4695C53.3072 63.6586 56.792 59.8291 60.2115 55.9437C60.696 55.394 64.3578 51.8068 62.2148 51.2477L62.2427 51.2384Z" fill="#FFCD74"/>
</svg>
