<svg width="100" height="100" viewBox="0 0 100 100" fill="none" xmlns="http://www.w3.org/2000/svg">
<g clip-path="url(#clip0_3647_3634)">
<path d="M38.2088 20.2479L39.8222 20.251L41.4574 20.2541C42.6593 20.2563 43.846 20.4068 45.0143 20.7047L46.6065 21.1105L48.199 21.5168C49.2867 21.7942 50.3728 22.1064 51.4569 22.4538L53.0446 22.9628L54.6338 23.4716C55.8544 23.8627 56.9633 24.4685 57.9525 25.2837L60.5279 27.4065C61.4094 28.133 62.26 28.8835 63.0786 29.6579L64.2724 30.7874L65.4665 31.9175C66.3056 32.7113 67.0901 33.5583 67.8189 34.4582L69.8933 37.0205C70.6293 37.9293 71.2919 38.8919 71.8786 39.9077L72.706 41.3412L73.5336 42.7738C74.1211 43.7909 74.6232 44.8484 75.0406 45.9445L75.6294 47.4886L76.217 49.0319C76.6295 50.1155 76.9694 51.22 77.2361 52.3442L77.6155 53.9451L77.9956 55.5456C78.2647 56.6802 78.4433 57.8264 78.5317 58.9817L78.7805 62.236C78.8603 63.2797 78.9893 64.3311 79.1677 65.3896L79.7231 68.6826C79.9357 69.9437 79.9121 71.2042 79.6535 72.4559L79.3168 74.09L78.9799 75.7227C78.7418 76.875 78.4216 78.0059 78.0191 79.1143L77.4477 80.6861L76.8769 82.2575C76.4504 83.432 75.8582 84.5184 75.1025 85.5115L74.0921 86.8396L73.0812 88.1672C72.216 89.3042 71.0704 90.0332 69.6812 90.2759L68.1275 90.5473L66.5742 90.8191C65.3041 91.041 64.0358 90.9276 62.7913 90.4974L59.6708 89.4184C58.5768 89.0402 57.5171 88.596 56.4931 88.086L53.5791 86.6346C52.617 86.1553 51.6394 85.682 50.6471 85.2158L49.145 84.5109L47.6423 83.8049C46.5337 83.284 45.511 82.6256 44.5762 81.8326L43.3085 80.7576L42.0421 79.6834C41.1091 78.8918 40.2918 77.9925 39.593 76.9885L37.6951 74.2614C37.0542 73.3404 36.4329 72.4147 35.8316 71.485L34.9422 70.11L34.0525 68.7344C33.4639 67.8245 33.0157 67.1676 32.7018 66.7472L32.1901 66.0615L31.6781 65.3752C31.5056 65.1441 31.368 64.9569 31.2734 64.8207C31.2292 64.7571 31.178 64.6812 31.1352 64.6093C31.1191 64.5823 31.0729 64.5044 31.0316 64.4059C31.017 64.3708 30.9596 64.2335 30.9359 64.0488C30.9351 64.0426 30.9351 64.0353 30.9342 64.0281C30.8187 63.79 30.6415 63.4344 30.4002 62.9577L29.6503 61.4766L28.9001 59.995C28.3202 58.8493 27.9806 57.6293 27.8841 56.3461L27.7594 54.6841L27.6342 53.0225C27.5546 51.9624 27.4199 50.9197 27.229 49.8953L26.9283 48.285L26.6283 46.6758C26.4124 45.5177 26.3078 44.3401 26.314 43.1454L26.3314 39.8102C26.3381 38.53 26.5813 37.2916 27.0585 36.1036L27.6801 34.5555L28.3015 33.0083C28.7087 31.9948 29.0933 30.9746 29.455 29.9481L30.5599 26.8133C30.9866 25.6023 31.6197 24.5548 32.4788 23.7091L32.5259 23.6625L25.8669 13.3045L33.1958 8.59293L38.2088 20.2479Z" fill="#8AC97E"/>
<path d="M27.1629 12.0562C27.5865 10.8889 28.4276 10.0533 29.6417 9.72497L31.9181 9.10965C32.6271 8.91796 33.3524 8.99766 34.0025 9.38183C34.6075 9.73944 35.0481 10.3009 35.3784 10.9024L36.9727 13.8059C37.5155 14.7941 37.9569 15.6659 38.2902 16.4168L39.2293 18.5324C39.2905 18.6702 39.3452 18.7997 39.3959 18.9186C39.543 18.9209 39.7058 18.9252 39.8847 18.9273L43.2044 18.9679C44.4789 18.9834 45.7104 19.2323 46.89 19.7132L49.9615 20.9653C50.9329 21.3613 51.9252 21.6943 52.9389 21.9643L56.1443 22.8184C57.3794 23.1474 58.5131 23.6985 59.5363 24.4674L62.1938 26.465C63.158 27.1895 64.0324 28.0099 64.8151 28.9254L66.9721 31.4479C67.7032 32.3029 68.4135 33.1697 69.1027 34.0479L71.1351 36.638C71.8301 37.5236 72.4994 38.4349 73.1434 39.3711L75.029 42.1116C75.7259 43.1248 76.2755 44.2141 76.6759 45.3766L77.759 48.521C78.1544 49.6691 78.4094 50.8475 78.5232 52.054L78.8342 55.3554C78.9297 56.3686 79.123 57.3649 79.4142 58.3454L80.362 61.5371C80.7041 62.689 80.9243 63.8618 81.0218 65.0531L81.2921 68.348C81.3883 69.5229 81.3835 70.704 81.2789 71.8906L80.9846 75.2271C80.8713 76.5111 80.5197 77.7321 79.9327 78.8811L78.4065 81.8689C77.8818 82.896 77.3235 83.8891 76.7317 84.8481L75.0138 87.6308C74.3035 88.7816 73.3242 89.651 72.0987 90.2129L69.1497 91.5649C67.9514 92.1143 66.6712 92.332 65.3338 92.2277L61.9763 91.9663C60.616 91.8602 59.3657 91.4082 58.2493 90.6205L55.4892 88.6726C54.7051 88.1194 53.8529 87.7299 52.925 87.5005L49.6544 86.6915C48.3682 86.3734 47.2096 85.7884 46.1932 84.9422L43.613 82.7938C42.728 82.0569 41.8758 81.2925 41.0561 80.5012L38.6686 78.1963C37.7494 77.309 37.0241 76.2763 36.4971 75.1066L35.1239 72.0593C34.7407 71.2086 34.2052 70.4637 33.5093 69.8176L31.0329 67.5185C30.0665 66.6211 29.3266 65.5578 28.8206 64.3399L27.5237 61.2187C27.0435 60.0627 26.7344 58.8666 26.5983 57.6345L26.2322 54.3225C26.1138 53.2509 25.9578 52.192 25.7633 51.1459L25.1607 47.909C24.935 46.6949 24.8977 45.468 25.0471 44.2333L25.4465 40.9295C25.5832 39.8 25.7539 38.6926 25.9588 37.6077L26.5572 34.4428C26.7695 33.3184 27.0709 32.2066 27.4611 31.1081L28.5647 28.0029C28.9156 27.0153 29.1927 26.0575 29.3987 25.1294L30.0553 22.1699C30.1673 21.6645 30.0672 21.2012 29.5703 20.6664L27.2895 18.2127C26.3177 17.1669 25.787 15.8496 26.3022 14.4295L27.1629 12.0562ZM30.3414 12.3128C30.0383 12.3948 29.834 12.5561 29.6836 12.9707L28.822 15.3438C28.7633 15.5057 28.7052 15.7976 29.2534 16.3876L31.5337 18.8417C32.5568 19.9427 32.9976 21.2841 32.6721 22.7511L32.0161 25.7101C31.7844 26.7544 31.4751 27.8178 31.0906 28.9L29.9876 32.0049C29.6425 32.9762 29.377 33.9546 29.1909 34.94L28.5933 38.105C28.3998 39.1299 28.2381 40.1788 28.1083 41.2514L27.7089 44.5552C27.5919 45.5224 27.6214 46.4753 27.7968 47.4188L28.3985 50.6555C28.6053 51.7672 28.7713 52.8915 28.8968 54.028L29.2627 57.3408C29.3705 58.3168 29.6156 59.2655 29.9997 60.1902L31.2961 63.3118C31.6546 64.1744 32.1727 64.918 32.8572 65.5536L35.3339 67.8533C36.289 68.7401 37.0364 69.7779 37.5683 70.9586L38.9411 74.0053C39.3294 74.8671 39.8578 75.6187 40.5304 76.268L42.9179 78.5729C43.6897 79.318 44.4933 80.0379 45.3283 80.7332L47.9085 82.8816C48.6122 83.4675 49.4046 83.8682 50.2987 84.0893L53.5689 84.8978C54.8213 85.2075 55.9789 85.7374 57.0347 86.4823L59.7949 88.4302C60.5182 88.9406 61.3069 89.2251 62.1846 89.2935L65.542 89.5549C66.4426 89.6251 67.2646 89.48 68.0322 89.1282L70.9817 87.7759C71.722 87.4364 72.2984 86.9271 72.733 86.2228L74.45 83.4399C75.003 82.5438 75.5266 81.6137 76.0195 80.6491L77.5456 77.6613C77.9762 76.8186 78.2315 75.9316 78.3144 74.9915L78.6082 71.6553C78.6997 70.6178 78.7035 69.5884 78.6199 68.5666L78.3501 65.2713C78.2678 64.2659 78.0822 63.276 77.7925 62.3004L76.8442 59.1091C76.5035 57.9621 76.2771 56.7943 76.1652 55.6069L75.8542 52.3055C75.7604 51.3113 75.5504 50.3413 75.224 49.3936L74.1413 46.2498C73.8198 45.3165 73.3799 44.4446 72.8203 43.6311L70.9348 40.8906C70.3223 40.0001 69.6862 39.1343 69.0262 38.2933L66.9938 35.7032C66.328 34.8548 65.6416 34.0169 64.9348 33.1902L62.7775 30.6672C62.1223 29.901 61.3915 29.215 60.5837 28.6081L57.9257 26.6108C57.177 26.0483 56.3559 25.6489 55.4543 25.4087L52.2489 24.5547C51.1257 24.2554 50.0256 23.8864 48.9493 23.4476L45.8778 22.1955C45.0097 21.8417 44.1108 21.6595 43.1721 21.6481L39.8519 21.6079C39.2974 21.6012 38.8779 21.5937 38.5994 21.5853C38.4643 21.5811 38.3438 21.5762 38.2532 21.5697C38.2227 21.5675 38.1355 21.5618 38.0436 21.545C38.0167 21.54 37.966 21.5296 37.9049 21.512C37.8728 21.5027 37.7069 21.4568 37.528 21.3372C37.4398 21.2782 37.2343 21.1269 37.0866 20.8468C36.9544 20.5958 36.9036 20.3028 36.9491 20.0131C36.9023 19.9026 36.8462 19.7718 36.7788 19.62L35.8396 17.5043C35.547 16.845 35.1435 16.0438 34.623 15.0963L33.0287 12.1927C32.8308 11.8324 32.6834 11.7178 32.6404 11.6915C32.6345 11.6926 32.6271 11.695 32.6178 11.6975L30.3414 12.3128Z" fill="black"/>
<path d="M43.707 36.4648C43.6369 36.3063 43.7086 36.1209 43.8672 36.0508C44.0258 35.9807 44.2111 36.0525 44.2812 36.211L62.918 78.377C62.9881 78.5356 62.9164 78.7209 62.7578 78.791C62.5993 78.8611 62.4139 78.7894 62.3438 78.6308L43.707 36.4648Z" fill="#C3EFBA"/>
<path d="M43.2782 35.4331C43.5398 35.1946 43.8539 35.1507 44.0786 35.1781C44.2704 35.2015 44.4067 35.2742 44.4634 35.3071C44.5305 35.3462 44.5791 35.3857 44.6062 35.4085C44.6603 35.4541 44.6983 35.4956 44.7141 35.5133L44.7857 35.6026L44.997 35.8927C45.0938 36.0256 45.1546 36.1729 45.1818 36.2397C45.2198 36.3329 45.2585 36.4414 45.2974 36.5578C45.3049 36.5804 45.3114 36.6043 45.3192 36.6283L46.3499 38.5457C46.7002 39.1976 47.0682 39.8588 47.4527 40.5291L48.6193 42.5631C49.0482 43.3111 49.3829 44.1013 49.6232 44.9316L50.2777 47.1927C50.4849 47.9089 50.7315 48.607 51.018 49.287L51.9236 51.4364C52.2324 52.1692 52.5219 52.911 52.7922 53.6607L53.5853 55.8598C53.8175 56.5038 54.1377 57.1109 54.5481 57.6819L55.9386 59.6169C56.4408 60.3157 56.8661 61.0515 57.2125 61.8239L58.1666 63.9518C58.4898 64.6728 58.7997 65.4 59.0956 66.1331L59.9691 68.2973C60.2521 68.9985 60.5573 69.6899 60.8851 70.3712L61.8966 72.4737C62.2356 73.1784 62.5735 73.8929 62.9107 74.6159L63.9176 76.7742C64.0086 76.9692 64.0908 77.1651 64.1429 77.3422C64.1681 77.4279 64.1991 77.5514 64.2081 77.6905C64.2145 77.7897 64.2286 78.1183 63.9987 78.4278C63.6918 78.8411 63.2371 78.878 62.9829 78.8382C62.7675 78.8044 62.6041 78.7132 62.5283 78.6677C62.3578 78.5654 62.1921 78.4217 62.0528 78.2911L60.514 76.8495C59.844 76.2219 59.4019 75.4226 59.1671 74.4952L58.5863 72.2016C58.4199 71.5443 58.1532 70.9338 57.7838 70.3666L56.4945 68.3869C56.0084 67.6403 55.646 66.8366 55.4095 65.979L54.7826 63.7058C54.5978 63.0356 54.3283 62.4048 53.9724 61.8112L52.7636 59.7952C52.3435 59.0942 51.9613 58.376 51.6168 57.6408L50.6265 55.5282C50.2845 54.7985 49.9734 54.0549 49.6937 53.2978L48.8838 51.1062C48.6176 50.3857 48.3401 49.67 48.0511 48.9597L47.1718 46.7987C46.8883 46.1021 46.5783 45.4171 46.242 44.7437L45.1987 42.6553C44.8228 41.9025 44.5191 41.1178 44.2878 40.3029L43.645 38.0374C43.5739 37.7868 43.5112 37.5788 43.4591 37.4111C43.31 37.133 43.1984 36.9233 43.1292 36.7862C43.0984 36.7251 43.0526 36.6336 43.0226 36.5564C43.0177 36.5437 42.9898 36.4724 42.9712 36.3817C42.9669 36.3611 42.9294 36.1967 42.9674 35.9926C42.9878 35.8829 43.0518 35.6396 43.2782 35.4331Z" fill="#C3EFBA"/>
<path d="M45.6575 49.4065C45.694 49.237 45.861 49.1292 46.0305 49.1657C46.2 49.2022 46.3078 49.3692 46.2713 49.5387L43.5237 62.2958C43.4872 62.4652 43.3202 62.573 43.1507 62.5365C42.9812 62.5 42.8734 62.3331 42.9099 62.1636L45.6575 49.4065Z" fill="#C3EFBA"/>
<path d="M45.6782 47.8382C46.0617 47.7333 46.4049 47.8716 46.6144 48.0579C46.7785 48.204 46.8504 48.3646 46.8743 48.4212C46.8897 48.4578 46.9015 48.4917 46.9104 48.5207L46.9294 48.5911L46.9564 48.708L46.9836 48.8243C47.025 49.0029 47.0118 49.1856 47.0101 49.2204C47.0059 49.3069 46.9978 49.4087 46.9867 49.5186C46.9642 49.7409 46.9264 50.0427 46.8754 50.4179L46.572 52.647C46.4723 53.3804 46.3814 54.1315 46.2984 54.8999L46.0467 57.2311C45.9529 58.0992 45.7445 58.927 45.4196 59.7105L44.5599 61.7842C44.4849 61.965 44.4107 62.1314 44.3405 62.2619C44.3085 62.3214 44.2557 62.415 44.1835 62.5059C44.1494 62.5489 44.0782 62.6335 43.9702 62.7131C43.8804 62.7792 43.6123 62.9553 43.2314 62.9074C42.7931 62.8524 42.5566 62.554 42.4631 62.3838C42.3766 62.2264 42.3511 62.0826 42.3421 62.0223C42.3222 61.8893 42.3288 61.7674 42.333 61.7037C42.3429 61.5558 42.3699 61.3769 42.4032 61.1912L42.7857 59.0582C42.9199 58.31 43.1007 57.5461 43.3268 56.7665L43.9779 54.5206C44.1797 53.8244 44.3327 53.0852 44.4355 52.3026L44.7624 49.8148C44.817 49.399 44.8623 49.0819 44.8973 48.8745C44.913 48.7814 44.9333 48.6706 44.9581 48.5796C44.965 48.5544 44.9768 48.5127 44.9949 48.465C45.0021 48.4459 45.0516 48.3083 45.1655 48.1703C45.2178 48.107 45.3827 47.919 45.6782 47.8382Z" fill="#C3EFBA"/>
<path d="M51.2366 62.592C51.2731 62.4225 51.4401 62.3147 51.6096 62.3512C51.7791 62.3878 51.8869 62.5547 51.8504 62.7242L49.1028 75.4813C49.0663 75.6508 48.8993 75.7586 48.7298 75.7221C48.5603 75.6856 48.4525 75.5186 48.489 75.3491L51.2366 62.592Z" fill="#C3EFBA"/>
<path d="M51.2573 61.0237C51.6408 60.9189 51.984 61.0571 52.1935 61.2435C52.3576 61.3895 52.4295 61.5502 52.4534 61.6067C52.4688 61.6434 52.4806 61.6773 52.4895 61.7062L52.5085 61.7766L52.5355 61.8936L52.5627 62.0099C52.6041 62.1884 52.5909 62.3712 52.5892 62.4059C52.585 62.4924 52.5769 62.5942 52.5658 62.7042C52.5433 62.9265 52.5055 63.2282 52.4545 63.6034L52.1511 65.8325C52.0514 66.5659 51.9605 67.317 51.8775 68.0854L51.6258 70.4167C51.532 71.2848 51.3236 72.1126 50.9987 72.896L50.139 74.9698C50.064 75.1505 49.9898 75.3169 49.9196 75.4474C49.8876 75.507 49.8348 75.6006 49.7626 75.6915C49.7285 75.7345 49.6573 75.819 49.5493 75.8986C49.4595 75.9647 49.1914 76.1408 48.8105 76.093C48.3722 76.0379 48.1357 75.7395 48.0422 75.5693C47.9557 75.412 47.9302 75.2682 47.9212 75.2078C47.9013 75.0749 47.9079 74.9529 47.9121 74.8892C47.922 74.7414 47.949 74.5625 47.9823 74.3768L48.3648 72.2437C48.499 71.4956 48.6798 70.7316 48.9059 69.952L49.557 67.7061C49.7588 67.0099 49.9118 66.2708 50.0146 65.4882L50.3415 63.0004C50.3961 62.5845 50.4414 62.2674 50.4764 62.06C50.4921 61.9669 50.5124 61.8561 50.5372 61.7651C50.5441 61.74 50.5559 61.6982 50.574 61.6505C50.5812 61.6315 50.6307 61.4938 50.7446 61.3559C50.7969 61.2925 50.9618 61.1046 51.2573 61.0237Z" fill="#C3EFBA"/>
<path d="M56.1865 53.036C56.0172 52.9989 55.8498 53.106 55.8126 53.2754C55.7755 53.4447 55.8826 53.6121 56.052 53.6493L68.7985 56.4455C68.9678 56.4826 69.1352 56.3755 69.1724 56.2061C69.2095 56.0368 69.1024 55.8694 68.933 55.8322L56.1865 53.036Z" fill="#C3EFBA"/>
<path d="M54.7488 52.4037C54.4942 52.7091 54.4775 53.0787 54.5601 53.3466C54.6248 53.5566 54.7411 53.6887 54.7827 53.7339C54.8096 53.7631 54.8355 53.788 54.8582 53.8081L54.9143 53.8545L55.0095 53.9277L55.1041 54.0007C55.2493 54.1125 55.4211 54.1763 55.4534 54.1892C55.5338 54.2213 55.6298 54.2562 55.7344 54.2917C55.946 54.3636 56.2362 54.4544 56.5988 54.5638L58.7526 55.2132C59.4612 55.4269 60.1823 55.656 60.9158 55.8994L63.1412 56.6382C63.9699 56.9133 64.8095 57.0674 65.6571 57.097L67.9006 57.1758C68.0962 57.1826 68.2784 57.1841 68.4263 57.1745C68.4937 57.1701 68.6008 57.1609 68.7134 57.1329C68.7667 57.1197 68.8732 57.0901 68.9904 57.0249C69.0879 56.9706 69.3594 56.7998 69.474 56.4334C69.6058 56.0118 69.4325 55.6728 69.3165 55.517C69.2093 55.3731 69.089 55.2902 69.0379 55.2569C68.9252 55.1836 68.8115 55.139 68.7518 55.1164C68.6132 55.064 68.4392 55.0143 68.2564 54.9675L66.1571 54.43C65.4207 54.2415 64.6507 54.0889 63.8476 53.9709L61.5341 53.6309C60.8169 53.5255 60.0809 53.3578 59.3263 53.1265L56.9273 52.3911C56.5263 52.2682 56.219 52.1777 56.0157 52.1235C55.9245 52.0992 55.8153 52.0715 55.7222 52.0564C55.6965 52.0522 55.6536 52.0456 55.6027 52.0423C55.5824 52.0409 55.4366 52.0288 55.2638 52.0751C55.1845 52.0964 54.9451 52.1684 54.7488 52.4037Z" fill="#C3EFBA"/>
</g>
<defs>
<clipPath id="clip0_3647_3634">
<rect width="100" height="100" fill="white"/>
</clipPath>
</defs>
</svg>
