<svg width="100" height="100" viewBox="0 0 100 100" fill="none" xmlns="http://www.w3.org/2000/svg">
<path d="M50.3344 27.9922C55.189 27.9922 59.3822 30.8232 61.3538 34.9242C62.6242 34.4767 63.9906 34.2325 65.4141 34.2325C66.388 34.2325 67.3353 34.3469 68.2433 34.5622C70.1325 33.3652 72.3725 32.672 74.7744 32.672C81.5233 32.672 86.9942 38.1432 86.9942 44.8922V45.8051C91.594 47.8861 94.7943 52.5154 94.7944 57.8923C94.7944 65.2156 88.8578 71.1524 81.5345 71.1524H77.6343V71.1528H59.8858C59.8762 71.1528 59.8666 71.1525 59.857 71.1524H51.1143V71.1528H33.3654C33.3558 71.1528 33.3463 71.1525 33.3367 71.1524H19.1339C11.8106 71.1524 5.87402 65.2156 5.87402 57.8923C5.87406 52.5155 9.0742 47.8861 13.6738 45.8051V44.8922C13.6738 38.1432 19.145 32.672 25.894 32.672C28.8255 32.672 31.5156 33.7048 33.6213 35.4257C35.2176 34.661 37.0058 34.2325 38.8941 34.2325C39.1519 34.2325 39.4078 34.2413 39.6616 34.257C41.7516 30.5194 45.7477 27.9922 50.3344 27.9922Z" fill="#8AC97E"/>
<path d="M48.7102 27.0594C48.9364 27.0118 49.1981 26.9787 49.4526 27.0163L49.7871 27.0659L50.122 27.1153C50.272 27.1374 50.6065 27.1527 51.1764 27.1463L52.8797 27.127C53.5842 27.1191 54.2558 27.2783 54.8826 27.6014L56.3996 28.384C56.9846 28.6857 57.5051 29.0708 57.9568 29.5387L59.1177 30.7407C59.5136 31.1507 59.8986 31.5684 60.2727 31.9937L61.3692 33.2402C61.6106 33.5146 61.8257 33.5995 62.0325 33.6075L63.4554 33.662C63.9459 33.6808 64.465 33.7153 65.0123 33.765L66.6162 33.9104C66.973 33.9428 67.3219 33.8705 67.6817 33.6702L69.1739 32.8393C69.7588 32.5136 70.3822 32.3011 71.0396 32.2058L72.7046 31.9643C73.3117 31.8763 73.9187 31.8466 74.5248 31.8755L76.1807 31.9542C76.8329 31.9853 77.4594 32.1308 78.0552 32.3901L79.5611 33.0452C80.1122 33.285 80.6316 33.5738 81.1183 33.9117L82.4409 34.8298C82.9329 35.1712 83.3818 35.5631 83.7868 36.005L84.8758 37.194C85.3053 37.6629 85.6417 38.193 85.8821 38.7807L86.4908 40.2689C86.688 40.7511 86.9055 41.2452 87.143 41.7513L87.8719 43.3056C88.1126 43.8187 88.3301 44.2689 88.5247 44.6566L89.121 45.8446C89.2696 46.1407 89.5018 46.4547 89.8392 46.783L91.0082 47.9204C91.4348 48.3354 91.8179 48.7842 92.1564 49.2665L93.0807 50.5836C93.4178 51.0639 93.7099 51.5725 93.957 52.1081L94.6356 53.5794C94.8803 54.11 95.0854 54.6649 95.2515 55.2435L95.7161 56.8611C95.9023 57.5094 95.9536 58.1731 95.8707 58.8451L95.6632 60.5281C95.5866 61.1484 95.4445 61.7555 95.2378 62.3483L94.6758 63.9598C94.4463 64.618 94.0805 65.1953 93.5835 65.683L92.3687 66.8749C91.954 67.2818 91.5354 67.6723 91.1131 68.0462L89.8794 69.1388C89.4365 69.5309 88.9613 69.8922 88.4545 70.2226L87.0338 71.1486C86.433 71.5403 85.7662 71.7515 85.0493 71.7772L83.3535 71.8376C82.818 71.8568 82.2899 71.9041 81.7692 71.9794L80.1162 72.2189C79.4776 72.3114 78.8374 72.302 78.1993 72.1918L76.5434 71.9059C76.0601 71.8225 75.5788 71.8006 75.0979 71.8399L73.4417 71.9755C72.8319 72.0254 72.222 72.0116 71.613 71.935L69.9568 71.7269C69.4708 71.6658 68.9858 71.6629 68.5002 71.7184L66.844 71.9079C66.282 71.9722 65.72 72.0261 65.158 72.07L63.5018 72.1993C62.8842 72.2476 62.2667 72.2231 61.6508 72.1265L59.9946 71.8667C59.5004 71.7892 59.0075 71.7645 58.5152 71.7922L56.859 71.8857C56.2835 71.9181 55.708 71.9263 55.1325 71.9102L53.4763 71.8635C52.9155 71.8477 52.3546 71.8233 51.7939 71.7899L50.138 71.6916C49.6716 71.6639 49.2031 71.7068 48.7298 71.8223L47.0739 72.2265C46.3951 72.3922 45.7101 72.3964 45.0302 72.2385L43.374 71.854C42.9319 71.7514 42.495 71.7408 42.0563 71.8203L40.4001 72.1206C39.7419 72.2399 39.0816 72.2312 38.425 72.0951L36.7687 71.752C36.3227 71.6596 35.8804 71.6551 35.4357 71.738L33.7795 72.0464C33.1456 72.1645 32.5091 72.1868 31.8726 72.1121L30.2164 71.9177C29.7339 71.8611 29.2519 71.865 28.769 71.9298L27.1128 72.152C26.4651 72.2388 25.817 72.2138 25.173 72.0781L23.5171 71.7292C23.0322 71.627 22.5502 71.587 22.0696 71.608L20.4134 71.6802C19.8416 71.7051 19.2723 71.7096 18.7056 71.6936L17.066 71.6472C16.4362 71.6293 15.8203 71.5191 15.2213 71.3172L13.6585 70.7901C13.0443 70.583 12.4835 70.2755 11.9804 69.8694L10.7032 68.8386C10.281 68.4977 9.85071 68.1557 9.41228 67.8129L8.08705 66.7769C7.54162 66.3504 7.11842 65.819 6.82422 65.1915L6.10867 63.665C5.84528 63.1033 5.64343 62.5209 5.50389 61.919L5.1252 60.286C4.9729 59.6289 4.95934 58.9663 5.08567 58.306L5.39868 56.6706C5.50257 56.1276 5.60329 55.5898 5.70124 55.0572L5.99628 53.4533C6.11169 52.8258 6.3289 52.2318 6.64583 51.6749L7.45874 50.2464C7.78177 49.6788 8.19909 49.1892 8.70752 48.783L9.98243 47.7642C10.4082 47.424 10.8343 47.0848 11.2606 46.7468L12.5372 45.7345C12.786 45.5372 12.927 45.2921 12.9704 44.9487L13.1802 43.2876C13.2522 42.7175 13.3409 42.1501 13.4465 41.5857L13.7543 39.9412C13.8876 39.2285 14.2146 38.6046 14.725 38.0893L15.9032 36.8996C16.2691 36.5301 16.6121 36.1335 16.9317 35.7097L17.9574 34.3501C18.3981 33.7658 18.9717 33.3458 19.6616 33.1033L21.2633 32.54C21.8185 32.3449 22.3815 32.1723 22.9521 32.0222L24.5989 31.5889C25.2494 31.4177 25.9131 31.3712 26.5844 31.4491L28.291 31.6471C28.9348 31.7218 29.5578 31.8815 30.1583 32.1254L31.7498 32.772C32.2979 32.9947 32.8098 33.2251 33.2851 33.4631L34.646 34.1443C34.8971 34.27 35.1663 34.2996 35.5013 34.2025L37.0661 33.7486C37.5351 33.6126 37.9592 33.4396 38.341 33.2324L39.6577 32.5178C40.0019 32.331 40.3276 32.07 40.633 31.7235L41.7246 30.4852C42.1593 29.992 42.6728 29.596 43.2606 29.3008L44.7371 28.5591C45.2589 28.2971 45.7971 28.0654 46.3515 27.8641L47.9238 27.2933C48.2075 27.1903 48.4719 27.1096 48.7102 27.0594ZM49.218 28.6728C49.2141 28.6733 49.1657 28.6733 49.0549 28.6967C48.9196 28.7251 48.7351 28.7787 48.4949 28.8659L46.9223 29.4367C46.4286 29.616 45.9506 29.8219 45.488 30.0542L44.0115 30.7956C43.6149 30.9948 43.2725 31.2589 42.9796 31.5912L41.8883 32.8295C41.4663 33.3084 40.9891 33.6985 40.4556 33.9881L39.1389 34.7027C38.6429 34.9719 38.1065 35.1886 37.5323 35.3552L35.9673 35.809C35.2591 36.0144 34.553 35.9684 33.8971 35.6401L32.5362 34.9588C32.1045 34.7427 31.6326 34.5301 31.1198 34.3217L29.5286 33.6751C29.0682 33.488 28.592 33.3661 28.0982 33.3088L26.3917 33.1108C25.9256 33.0568 25.4717 33.0889 25.0246 33.2066L23.3779 33.6398C22.8507 33.7786 22.3307 33.9383 21.818 34.1185L20.2161 34.6814C19.8381 34.8143 19.5357 35.0353 19.2927 35.3575L18.2674 36.717C17.9034 37.1996 17.5114 37.6529 17.0918 38.0765L15.9136 39.2665C15.6385 39.5443 15.4701 39.8655 15.3984 40.249L15.0909 41.8934C14.9914 42.4253 14.9075 42.9598 14.8397 43.4971L14.6299 45.1582C14.5334 45.9222 14.1787 46.5679 13.5765 47.0454L12.3 48.0576C11.8753 48.3943 11.4508 48.7322 11.0267 49.0711L9.75176 50.0899C9.41027 50.3628 9.13158 50.6891 8.91271 51.0737L8.09979 52.5022C7.87485 52.8975 7.72294 53.3142 7.64171 53.7559L7.34667 55.3598C7.24799 55.8963 7.14613 56.438 7.0415 56.985L6.72882 58.6203C6.64662 59.05 6.65493 59.4768 6.75495 59.9083L7.13364 61.5413C7.24647 62.0279 7.40933 62.4988 7.62309 62.9547L8.33896 64.4812C8.52192 64.8714 8.77918 65.1945 9.11724 65.4588L10.4428 66.4952C10.8878 66.8432 11.3249 67.1904 11.754 67.5368L13.0312 68.5677C13.3795 68.8489 13.7654 69.061 14.1931 69.2051L15.7558 69.7318C16.1986 69.8811 16.6503 69.9618 17.1134 69.9749L18.753 70.0213C19.2792 70.0362 19.8083 70.0321 20.3406 70.0089L21.9968 69.9367C22.6203 69.9095 23.2426 69.9618 23.8618 70.0922L25.518 70.4412C25.978 70.5381 26.4342 70.5553 26.8906 70.4941L28.5468 70.2719C29.1679 70.1887 29.79 70.1833 30.4115 70.2563L32.0677 70.4507C32.5353 70.5055 33.0028 70.4896 33.473 70.402L35.1292 70.0935C35.7885 69.9707 36.4502 69.9778 37.1082 70.1141L38.7644 70.4572C39.2119 70.5499 39.6558 70.5554 40.1018 70.4745L41.7576 70.1742C42.423 70.0536 43.0904 70.0709 43.7524 70.2246L45.4086 70.6088C45.8326 70.7072 46.2518 70.705 46.677 70.6013L48.3332 70.1971C48.964 70.0431 49.5998 69.9838 50.2374 70.0217L51.8933 70.12C52.4366 70.1523 52.98 70.176 53.5233 70.1912L55.1792 70.238C55.7077 70.2528 56.2363 70.2452 56.7649 70.2154L58.4211 70.122C59.0328 70.0875 59.6442 70.1184 60.2541 70.2141L61.9099 70.4739C62.3982 70.5504 62.885 70.5697 63.3714 70.5317L65.0276 70.4023C65.5696 70.36 66.1117 70.3078 66.6538 70.2458L68.31 70.0563C68.9284 69.9856 69.5474 69.9893 70.1655 70.0671L71.8218 70.2752C72.3168 70.3375 72.8112 70.3486 73.3055 70.3082L74.9613 70.1726C75.5844 70.1217 76.2073 70.15 76.828 70.2572L78.4842 70.5435C78.95 70.6239 79.413 70.6301 79.8764 70.5631L81.5297 70.3239C82.1109 70.2398 82.699 70.1873 83.2937 70.1661L84.9895 70.1053C85.4027 70.0905 85.7743 69.9727 86.1203 69.7472L87.5409 68.8212C87.981 68.5343 88.3907 68.2227 88.7704 67.8864L90.0042 66.7938C90.4044 66.4395 90.8021 66.0683 91.1971 65.6807L92.4119 64.4887C92.7247 64.1818 92.9513 63.8249 93.0964 63.4089L93.6584 61.7974C93.8262 61.3161 93.9408 60.8249 94.0027 60.3232L94.2105 58.6402C94.2661 58.19 94.2318 57.753 94.1083 57.3228L93.6437 55.7052C93.5001 55.2052 93.324 54.7303 93.1163 54.2799L92.4377 52.8087C92.2323 52.3634 91.9904 51.9421 91.7114 51.5445L90.787 50.2278C90.5094 49.8322 90.1945 49.4627 89.8418 49.1195L88.6727 47.9818C88.2308 47.5518 87.8747 47.0907 87.6259 46.5948L87.0296 45.4071C86.8268 45.0031 86.6028 44.5391 86.3575 44.0162L85.6282 42.462C85.3796 41.932 85.151 41.412 84.9424 40.9021L84.3337 39.4142C84.1683 39.0099 83.9388 38.6475 83.6423 38.3239L82.5533 37.1352C82.2322 36.7847 81.877 36.4746 81.4872 36.204L80.1646 35.2859C79.7696 35.0118 79.3463 34.7762 78.8936 34.5792L77.3877 33.9238C76.9797 33.7462 76.5525 33.647 76.101 33.6254L74.4451 33.5464C73.9475 33.5227 73.4476 33.547 72.9447 33.6199L71.2797 33.8613C70.827 33.927 70.3976 34.0726 69.9878 34.3008L68.4956 35.1317C67.8607 35.4852 67.1774 35.6411 66.4649 35.5764L64.861 35.431C64.3391 35.3836 63.8493 35.3511 63.3914 35.3336L61.9684 35.279C61.2268 35.2506 60.6024 34.9018 60.1129 34.3452L59.0164 33.0984C58.6596 32.6927 58.2923 32.294 57.9143 31.9026L56.7534 30.7005C56.4313 30.3669 56.059 30.0904 55.6327 29.8706L54.116 29.0884C53.7315 28.8901 53.3295 28.7951 52.8986 28.7999L51.1954 28.8189C50.63 28.8252 50.1737 28.814 49.8773 28.7702L49.218 28.6728Z" fill="black"/>
</svg>
