<svg width="100" height="100" viewBox="0 0 100 100" fill="none" xmlns="http://www.w3.org/2000/svg">
<path d="M47.6221 73.6243C47.6221 70.1244 50.4593 67.2871 53.9592 67.2871H55.1112C58.6112 67.2871 61.4484 70.1244 61.4484 73.6243V88.4276C61.4484 91.9275 58.6111 94.7647 55.1112 94.7647H53.9592C50.4593 94.7647 47.6221 91.9275 47.6221 88.4276V73.6243Z" fill="#A46735"/>
<path d="M53.8325 66.3436C53.8603 66.3407 53.951 66.3312 54.0593 66.3458C54.1062 66.3521 54.2425 66.3728 54.3889 66.4625C54.4154 66.4788 54.4423 66.498 54.4693 66.5196C54.605 66.5421 54.7866 66.5705 55.0174 66.6033L56.9009 66.8705C57.667 66.9791 58.3722 67.2695 59.0078 67.7312L60.5983 68.8869C61.3147 69.4074 61.7396 70.1318 61.8414 71.0109L62.0666 72.9566C62.1458 73.6407 62.1798 74.3212 62.168 74.9978L62.1347 76.9154C62.1233 77.5692 62.0945 78.223 62.0486 78.8767L61.914 80.7944C61.8746 81.3558 61.9136 81.9183 62.0324 82.4841L62.4352 84.4018C62.5818 85.1001 62.6506 85.8047 62.641 86.5143L62.6149 88.4597C62.6045 89.2404 62.4133 89.9856 62.0483 90.6857L61.1281 92.4503C60.7515 93.1725 60.2093 93.7509 59.5128 94.1731L57.8112 95.2045C57.1195 95.6238 56.361 95.8442 55.5502 95.8624L53.5494 95.9073C52.7243 95.9258 51.9488 95.7175 51.2402 95.2895L49.5141 94.2471C48.7721 93.799 48.2564 93.1544 48.0111 92.3327L47.4606 90.4885C47.2684 89.8446 47.1122 89.1918 46.9919 88.5304L46.6472 86.6359C46.516 85.9149 46.5046 85.1884 46.6125 84.4605L46.8966 82.5428C46.9804 81.9773 46.9871 81.4132 46.9168 80.8485L46.6781 78.9308C46.5951 78.2639 46.546 77.5966 46.5312 76.9292L46.489 75.0115C46.4728 74.2817 46.5748 73.5632 46.7933 72.8597L47.3707 71.0012C47.6089 70.2345 48.0348 69.5852 48.6437 69.0733L50.0975 67.8512C50.6378 67.397 51.199 67.058 51.7808 66.8925L53.0826 66.5223C53.3025 66.4597 53.4835 66.4115 53.6156 66.3818C53.676 66.3683 53.7553 66.3517 53.8325 66.3436ZM53.5349 68.1125L52.2331 68.4827C51.9472 68.5641 51.5899 68.7561 51.1611 69.1167L49.7076 70.3388C49.3473 70.6417 49.0961 71.0194 48.9493 71.4918L48.3722 73.3502C48.2058 73.8858 48.1295 74.4262 48.1416 74.9749L48.1841 76.8926C48.1976 77.5035 48.2422 78.1147 48.3184 78.7263L48.5573 80.6442C48.6461 81.3578 48.6377 82.0721 48.532 82.785L48.2476 84.7026C48.166 85.2531 48.1748 85.7978 48.2734 86.3399L48.6184 88.2345C48.7279 88.8362 48.8701 89.43 49.0449 90.0157L49.5951 91.8599C49.7168 92.2677 49.9601 92.5853 50.3687 92.8321L52.0948 93.8745C52.5369 94.1415 53.0035 94.2658 53.5123 94.2544L55.5131 94.2095C56.0361 94.1977 56.5116 94.0591 56.9542 93.7908L58.6558 92.7594C59.0937 92.494 59.4253 92.1403 59.6622 91.6861L60.5824 89.9215C60.8307 89.4453 60.9548 88.9537 60.9618 88.4376L60.9879 86.4922C60.9957 85.905 60.9391 85.3218 60.8173 84.7416L60.4145 82.824C60.2649 82.1114 60.2145 81.3956 60.2649 80.6787L60.3997 78.7607C60.4435 78.136 60.4709 77.5113 60.4818 76.8866L60.5151 74.969C60.5256 74.3671 60.4954 73.7598 60.4244 73.1468L60.1992 71.2012C60.1508 70.7833 59.9705 70.474 59.6266 70.2242L58.0362 69.0688C57.6114 68.7602 57.1585 68.5767 56.6687 68.5072L54.7852 68.24C54.4688 68.1952 54.22 68.1567 54.0461 68.1249C53.9625 68.1096 53.8777 68.0925 53.8061 68.0735C53.7913 68.0696 53.7692 68.0633 53.7429 68.0549C53.6826 68.0712 53.6134 68.0902 53.5349 68.1125Z" fill="black"/>
<path d="M54.4476 5.76953C68.4148 5.76953 85.3264 26.4949 85.3265 37.2724C85.3265 41.2685 83.0012 44.0573 79.3634 45.9852C84.5611 52.4503 88.0512 59.6143 88.0512 64.7266C88.051 76.4838 69.5943 78.6642 54.3508 78.6642C39.1072 78.6642 21.0196 76.4838 21.0195 64.7266C21.0195 59.5936 24.4669 52.3921 29.6201 45.9067C26.1244 43.9818 23.9072 41.2143 23.9072 37.2724C23.9073 26.4949 40.4805 5.76961 54.4476 5.76953Z" fill="#8AC97E"/>
<path d="M53.8152 5.08639C54.2587 4.96517 54.8756 4.98597 55.5496 5.06029L57.5714 5.28308C58.2909 5.36242 59.0021 5.50135 59.7046 5.69933L61.6823 6.25685C62.4227 6.46554 63.1158 6.78122 63.7584 7.20291L65.474 8.3287C66.0645 8.71616 66.636 9.12522 67.1883 9.55567L68.7917 10.8052C69.3438 11.2355 69.8764 11.6865 70.3894 12.1584L71.879 13.5285C72.3771 13.9866 72.8736 14.4468 73.3686 14.9094L74.849 16.2927C75.3467 16.7577 75.8419 17.2301 76.3343 17.7096L77.7994 19.1365C78.3166 19.6401 78.7946 20.1787 79.233 20.752L80.4751 22.3761C80.9108 22.9459 81.3084 23.5423 81.6678 24.1649L82.693 25.9402C83.0548 26.5669 83.3688 27.2162 83.635 27.8878L84.3892 29.7901C84.6474 30.4413 84.883 31.0996 85.0964 31.7646L85.7195 33.7064C85.9628 34.4649 86.0395 35.2406 85.9464 36.0253L85.7096 38.0213C85.6266 38.7201 85.5005 39.4164 85.3315 40.1098L84.848 42.0945C84.6451 42.9274 84.2069 43.6341 83.5519 44.1965L81.9722 45.5529C81.5315 45.9312 81.5496 46.1211 81.5532 46.1472L81.734 47.4595C81.7655 47.6875 81.9101 48.0322 82.2916 48.5038L83.578 50.0942C84.0615 50.692 84.4421 51.3522 84.7183 52.0719L85.4542 53.9893C85.6997 54.6291 85.9419 55.2628 86.1807 55.89L86.8962 57.7701C87.147 58.429 87.3543 59.0975 87.5177 59.7754L87.983 61.7058C88.1505 62.4008 88.2492 63.1023 88.2787 63.8096L88.3602 65.7685C88.392 66.5326 88.2724 67.2805 88.005 68.0061L87.3138 69.8815C87.036 70.6351 86.5916 71.2859 85.9894 71.8255L84.4796 73.1787C83.9129 73.6866 83.2818 74.0966 82.5889 74.4067L80.7449 75.2317C80.1524 75.4969 79.5642 75.7912 78.9804 76.1148L77.1684 77.1187C76.4482 77.5178 75.6704 77.7299 74.8463 77.7521L72.771 77.8081C72.1103 77.8259 71.4627 77.8807 70.828 77.9719L68.8264 78.2596C68.1871 78.3515 67.5485 78.4763 66.9106 78.6347L64.9176 79.1295C64.1888 79.3104 63.45 79.4013 62.7029 79.4018L60.6636 79.4031C60.0166 79.4036 59.3707 79.4424 58.7257 79.5194L56.694 79.7618C55.9695 79.8483 55.2438 79.8718 54.5172 79.8323L52.4809 79.7217C51.7666 79.6828 51.0554 79.5979 50.3477 79.4672L48.328 79.0942C47.6819 78.9749 47.0366 78.8892 46.392 78.837L44.3732 78.6737C43.7493 78.6232 43.1157 78.6274 42.4717 78.6874L40.4004 78.8803C39.6166 78.9533 38.8451 78.8931 38.0901 78.6987L36.1062 78.188C35.452 78.0196 34.796 77.8599 34.1383 77.7091L32.1436 77.2516C31.4216 77.0861 30.7241 76.8459 30.0527 76.5316L28.1974 75.6633C27.5081 75.3406 26.8794 74.9286 26.3142 74.428L24.7988 73.0859C24.2846 72.6304 23.7796 72.1627 23.2836 71.6829L21.8215 70.2687C21.2168 69.6837 20.8173 68.9678 20.6282 68.1411L20.1659 66.1199C19.9898 65.3501 19.9537 64.5725 20.0585 63.7919L20.3335 61.7453C20.4367 60.9775 20.6558 60.2447 20.9906 59.5502L21.881 57.7036C22.1586 57.1277 22.3901 56.5315 22.5749 55.9145L23.1666 53.9387C23.3932 53.1825 23.7495 52.4912 24.2335 51.8699L25.4959 50.249C25.889 49.7443 26.2383 49.2112 26.544 48.6491L27.5258 46.8439C27.7765 46.3828 27.6883 46.2271 27.6555 46.1763L26.8698 44.9598C26.6544 44.6263 26.3214 44.2336 25.8495 43.7818L24.3489 42.3453C23.712 41.7356 23.3285 40.9772 23.2086 40.1001L22.9236 38.0162C22.8132 37.2088 22.8697 36.4147 23.0961 35.6421L23.6749 33.6672C23.8792 32.9699 24.1319 32.2969 24.4331 31.6486L25.2836 29.8181C25.5538 29.2366 25.7927 28.6356 26.0002 28.0148L26.6516 26.0654C26.8943 25.339 27.2368 24.6635 27.6781 24.0414L28.8604 22.375C29.2707 21.7967 29.7088 21.2414 30.1748 20.7092L31.5172 19.1763C31.9827 18.6448 32.4727 18.1385 32.9869 17.6577L34.4692 16.2717C34.9164 15.8536 35.3174 15.3821 35.672 14.8553L36.8373 13.1241C37.3028 12.4326 37.909 11.8911 38.6471 11.5094L40.4891 10.5569C41.0826 10.25 41.6528 9.92355 42.1999 9.57773L43.9034 8.50091C44.4988 8.1245 45.115 7.78417 45.7516 7.48032L47.5733 6.61095C48.2473 6.28924 48.9513 6.06315 49.6833 5.9337L51.6575 5.58444C52.3146 5.46824 52.7491 5.37787 52.9856 5.31322L53.8152 5.08639ZM55.3683 6.70351C54.6945 6.62922 54.3607 6.65121 54.2511 6.68118L53.4215 6.908C53.1049 6.99454 52.6045 7.09577 51.9454 7.21232L49.9712 7.56158C49.3871 7.66488 48.8256 7.84504 48.2852 8.10295L46.4636 8.97232C45.8858 9.2481 45.3269 9.55673 44.7868 9.8982L43.0833 10.975C42.4948 11.347 41.883 11.697 41.2485 12.0252L39.4064 12.9777C38.9165 13.2311 38.5203 13.5845 38.2088 14.0473L37.0434 15.7785C36.621 16.4059 36.1392 16.9734 35.5982 17.4793L34.1159 18.8653C33.642 19.3084 33.1903 19.7752 32.7609 20.2655L31.4185 21.7984C30.9897 22.2881 30.5865 22.7991 30.2087 23.3316L29.0264 24.9979C28.6797 25.4867 28.411 26.0164 28.2195 26.5895L27.5681 28.5387C27.3413 29.2172 27.0797 29.876 26.7829 30.5147L25.9324 32.3452C25.6667 32.9171 25.4428 33.5127 25.2613 34.1321L24.6828 36.1071C24.5234 36.6513 24.4819 37.2104 24.5615 37.7923L24.8464 39.876C24.9164 40.3881 25.1284 40.8031 25.4919 41.1511L26.9928 42.5877C27.5213 43.0936 27.9504 43.5855 28.2588 44.063L29.0442 45.2795C29.5351 46.0397 29.3817 46.8912 28.978 47.6336L27.9964 49.4388C27.6477 50.0802 27.249 50.6891 26.8004 51.265L25.5379 52.8859C25.1803 53.345 24.9184 53.8526 24.7503 54.4134L24.1584 56.3889C23.9487 57.089 23.6858 57.7668 23.37 58.4217L22.4799 60.2681C22.2213 60.8044 22.052 61.3691 21.9719 61.9654L21.6969 64.012C21.6186 64.5955 21.6452 65.1736 21.7774 65.7512L22.2396 67.7725C22.3588 68.2934 22.6011 68.7227 22.971 69.0805L24.4328 70.4947C24.9115 70.9577 25.3989 71.4088 25.895 71.8481L27.4104 73.1905C27.8555 73.5848 28.3508 73.9096 28.8984 74.1659L30.7536 75.0345C31.3191 75.2992 31.9053 75.5011 32.5131 75.6404L34.5077 76.0979C35.1797 76.2519 35.8499 76.415 36.5182 76.587L38.5023 77.0977C39.0699 77.2438 39.65 77.2897 40.247 77.2341L42.3183 77.0415C43.0551 76.9729 43.7848 76.9674 44.5067 77.0259L46.5255 77.1892C47.2267 77.246 47.9276 77.3392 48.628 77.4685L50.6479 77.8414C51.2867 77.9594 51.9275 78.036 52.5707 78.071L54.6071 78.1815C55.238 78.2159 55.8682 78.1957 56.4981 78.1205L58.5296 77.8778C59.239 77.793 59.9501 77.7504 60.6625 77.75L62.7018 77.7486C63.3141 77.7482 63.9195 77.6739 64.5194 77.525L66.5124 77.0302C67.2032 76.8587 67.8963 76.723 68.5912 76.6231L70.5929 76.3354C71.2924 76.2349 72.0038 76.1749 72.7266 76.1554L74.8019 76.0995C75.3614 76.0844 75.8795 75.943 76.3671 75.6727L78.1791 74.6688C78.803 74.323 79.4333 74.0076 80.0698 73.7228L81.9135 72.8975C82.4497 72.6576 82.9364 72.3415 83.3762 71.9474L84.8862 70.5945C85.2905 70.2322 85.5798 69.8067 85.7628 69.31L86.4541 67.4343C86.6475 66.9095 86.7312 66.3791 86.7086 65.8373L86.6268 63.8785C86.6019 63.2799 86.5184 62.6851 86.3758 62.0932L85.9106 60.1629C85.7638 59.554 85.5774 58.9522 85.3512 58.358L84.6357 56.4782C84.3975 55.8524 84.1558 55.2203 83.9108 54.5818L83.1749 52.6641C82.9606 52.1055 82.6668 51.5965 82.2926 51.1339L81.0062 49.5435C80.53 48.9548 80.1853 48.3318 80.0962 47.685L79.9154 46.3727C79.7985 45.524 80.283 44.8243 80.8953 44.2984L82.4748 42.9423C82.8729 42.6005 83.1225 42.1934 83.2419 41.7033L83.7254 39.7183C83.8788 39.0886 83.9927 38.4581 84.0677 37.8265L84.3047 35.8305C84.3695 35.2848 84.3172 34.7477 84.1452 34.2115L83.5223 32.2696C83.3203 31.6399 83.0969 31.0165 82.8523 30.3996L82.0981 28.4972C81.8616 27.9006 81.5828 27.3238 81.2613 26.7668L80.2361 24.9915C79.9122 24.4305 79.5543 23.8935 79.162 23.3806L77.92 21.7564C77.5304 21.247 77.1058 20.7685 76.6462 20.3209L75.1808 18.8941C74.6964 18.4224 74.2096 17.9577 73.7203 17.5005L72.2399 16.1172C71.748 15.6577 71.2545 15.2004 70.7597 14.7452L69.2704 13.3754C68.7905 12.9341 68.2922 12.5119 67.7754 12.1092L66.172 10.8596C65.6554 10.457 65.1204 10.074 64.567 9.71092L62.8514 8.58513C62.3502 8.25626 61.812 8.01078 61.234 7.84787L59.2563 7.29062C58.6404 7.11703 58.0184 6.99558 57.3901 6.9263L55.3683 6.70351Z" fill="black"/>
</svg>
