<svg width="100" height="100" viewBox="0 0 100 100" fill="none" xmlns="http://www.w3.org/2000/svg">
<path d="M43.8203 74.0289C43.8203 70.5924 46.6061 67.8066 50.0426 67.8066H51.1737C54.6102 67.8066 57.396 70.5925 57.396 74.0289V88.5639C57.396 92.0003 54.6102 94.7861 51.1737 94.7861H50.0426C46.6061 94.7861 43.8203 92.0003 43.8203 88.5639V74.0289Z" fill="#A46735"/>
<path d="M49.918 66.8806C49.9454 66.8778 50.0345 66.8685 50.1408 66.8827C50.1868 66.8889 50.3207 66.9093 50.4644 66.9974C50.4904 67.0133 50.5168 67.0322 50.5434 67.0534C50.6766 67.0755 50.8549 67.1034 51.0816 67.1356L52.9309 67.3979C53.683 67.5046 54.3755 67.7898 54.9995 68.2431L56.5612 69.3778C57.2646 69.8888 57.6818 70.6001 57.7818 71.4633L58.0029 73.3737C58.0807 74.0454 58.1141 74.7136 58.1025 75.3779L58.0697 77.2608C58.0586 77.9027 58.0303 78.5447 57.9852 79.1865L57.8531 81.0694C57.8144 81.6207 57.8527 82.173 57.9693 82.7285L58.3648 84.6114C58.5088 85.297 58.5763 85.9889 58.567 86.6856L58.5413 88.5957C58.5311 89.3624 58.3434 90.094 57.9849 90.7814L57.0814 92.514C56.7116 93.2231 56.1793 93.7911 55.4954 94.2056L53.8247 95.2183C53.1455 95.63 52.4007 95.8464 51.6047 95.8642L49.6401 95.9084C48.83 95.9265 48.0685 95.7219 47.3728 95.3018L45.678 94.2783C44.9494 93.8383 44.443 93.2054 44.2022 92.3985L43.6617 90.5878C43.473 89.9556 43.3196 89.3146 43.2015 88.6652L42.863 86.805C42.7342 86.0971 42.723 85.3838 42.8289 84.669L43.1079 82.7861C43.1902 82.2309 43.1968 81.677 43.1277 81.1225L42.8934 79.2396C42.8119 78.5849 42.7636 77.9296 42.7492 77.2743L42.7077 75.3914C42.6918 74.6748 42.7919 73.9694 43.0065 73.2786L43.5734 71.4538C43.8073 70.701 44.2255 70.0635 44.8233 69.5609L46.2508 68.3609C46.7813 67.9149 47.3323 67.5821 47.9036 67.4196L49.1817 67.056C49.3977 66.9946 49.5754 66.9473 49.7051 66.9181C49.7644 66.9048 49.8423 66.8886 49.918 66.8806ZM49.6258 68.6174L48.3477 68.981C48.0669 69.0608 47.7162 69.2494 47.2951 69.6034L45.868 70.8034C45.5142 71.1008 45.2675 71.4717 45.1235 71.9354L44.5568 73.7602C44.3934 74.2861 44.3184 74.8167 44.3304 75.3554L44.3721 77.2383C44.3854 77.8382 44.4292 78.4383 44.5039 79.0388L44.7385 80.922C44.8257 81.6226 44.8174 82.324 44.7137 83.0239L44.4344 84.9068C44.3543 85.4473 44.363 85.9822 44.4598 86.5144L44.7985 88.3746C44.906 88.9655 45.0456 89.5485 45.2173 90.1236L45.7575 91.9344C45.877 92.3347 46.1159 92.6466 46.5171 92.8889L48.2119 93.9124C48.646 94.1745 49.1041 94.2966 49.6037 94.2854L51.5682 94.2413C52.0817 94.2298 52.5486 94.0937 52.9832 93.8302L54.654 92.8176C55.0839 92.5569 55.4095 92.2096 55.6421 91.7637L56.5456 90.0311C56.7894 89.5635 56.9113 89.0808 56.9181 88.5741L56.9437 86.664C56.9515 86.0874 56.8959 85.5148 56.7762 84.9451L56.3807 83.0622C56.2338 82.3626 56.1844 81.6597 56.2339 80.9558L56.3662 79.0726C56.4093 78.4592 56.4361 77.8458 56.4468 77.2325L56.4796 75.3496C56.4898 74.7586 56.4602 74.1624 56.3905 73.5605L56.1694 71.6501C56.1219 71.2398 55.9448 70.9361 55.6072 70.6908L54.0455 69.5564C53.6285 69.2534 53.1837 69.0732 52.7029 69.005L50.8536 68.7427C50.5429 68.6986 50.2986 68.6609 50.1278 68.6296C50.0457 68.6146 49.9625 68.5978 49.8922 68.5791C49.8776 68.5753 49.8559 68.5691 49.8301 68.5609C49.7709 68.5769 49.7029 68.5955 49.6258 68.6174Z" fill="black"/>
<path d="M52.3127 5.85547C60.4055 5.85554 66.966 12.4161 66.966 20.509C66.966 21.6531 66.8346 22.7665 66.5866 23.8352C74.3434 24.2123 80.5164 30.6209 80.5164 38.4712C80.5164 42.3083 79.0414 45.8006 76.6278 48.4128C83.6494 49.498 89.025 55.568 89.0251 62.8935C89.0251 70.9864 82.4644 77.547 74.3716 77.547H26.551C18.4581 77.547 11.8975 70.9864 11.8975 62.8935C11.8975 56.798 15.6194 51.5718 20.9146 49.3634C18.5347 46.582 17.0971 42.9702 17.0971 39.0226C17.0971 30.2336 24.222 23.1086 33.011 23.1086C33.4362 23.1086 33.8574 23.1256 34.2741 23.1583C34.1172 22.299 34.0353 21.4136 34.0353 20.509C34.0353 12.4161 40.5957 5.85552 48.6885 5.85547H52.3127Z" fill="#8AC97E"/>
<path d="M52.3619 5.0027C52.3759 5.00373 52.4295 5.0076 52.4946 5.02278C52.5094 5.02624 52.5446 5.03512 52.5907 5.0521C52.5984 5.05258 52.6063 5.05319 52.6145 5.05369C52.7773 5.06356 53.0256 5.07637 53.3617 5.09226L55.3825 5.1879C56.1923 5.22619 56.949 5.45845 57.64 5.88141L59.3631 6.93633C59.9539 7.298 60.526 7.67713 61.079 8.07395L62.689 9.22927C63.3161 9.67924 63.8299 10.238 64.225 10.9003L65.2387 12.5996C65.5848 13.1796 65.9159 13.773 66.2321 14.3797L67.1594 16.1593C67.5223 16.8558 67.7257 17.6016 67.7687 18.3889L67.8788 20.407C67.9127 21.0283 68.0042 21.5216 68.1367 21.9026L68.6294 23.3206C68.6606 23.4102 68.7406 23.5684 69.2222 23.6392L71.2122 23.9316C72.0164 24.0499 72.744 24.3642 73.3817 24.8687L74.9597 26.1173C75.5244 26.5641 76.0396 27.0546 76.5039 27.5889L77.7956 29.0752C78.2767 29.6288 78.6701 30.2386 78.9739 30.9026L79.7879 32.6817C80.0675 33.293 80.3284 33.9236 80.5709 34.5731L81.279 36.4689C81.564 37.2323 81.643 38.0235 81.5152 38.8287L81.1973 40.8302C81.0775 41.5846 80.8405 42.296 80.4853 42.9602L79.5506 44.7081C79.2515 45.2675 78.9813 45.8378 78.7401 46.419L77.9858 48.2367C77.9682 48.2791 77.9572 48.3131 77.9501 48.3392C77.9713 48.349 77.999 48.3607 78.0347 48.3727L79.8695 48.9883C80.5501 49.2166 81.1884 49.5315 81.7825 49.9322L83.3828 51.0117C83.9236 51.3765 84.474 51.7607 85.0337 52.1644L86.6934 53.3617C87.3756 53.8539 87.8712 54.5011 88.167 55.2874L88.8851 57.1968C89.1546 57.9132 89.3044 58.6493 89.3321 59.4023L89.4053 61.3922C89.4311 62.0926 89.4084 62.7837 89.3369 63.4653L89.1348 65.3931C89.0642 66.0654 88.9555 66.7426 88.8093 67.4245L88.3882 69.3885C88.2137 70.2019 87.8208 70.9057 87.2202 71.4812L85.7697 72.8706C85.2847 73.3353 84.8014 73.7946 84.3196 74.2486L82.8789 75.6063C82.3043 76.1478 81.6326 76.5296 80.8734 76.7463L78.9702 77.2895C78.2988 77.4811 77.6204 77.6235 76.9354 77.7159L74.9975 77.9772C74.3638 78.0627 73.7197 78.1644 73.0655 78.2821L71.069 78.6411C70.3086 78.7778 69.5459 78.7782 68.7855 78.6419L66.789 78.2839C66.2108 78.1803 65.6349 78.1724 65.0578 78.2601L63.0613 78.5637C62.3595 78.6704 61.657 78.7288 60.954 78.7386L58.9573 78.7663C58.2611 78.776 57.5651 78.7464 56.8693 78.6773L54.8728 78.4791C54.2444 78.4168 53.6163 78.3978 52.9883 78.4223L50.9916 78.5005C50.2941 78.5279 49.5967 78.514 48.8994 78.4588L46.9029 78.3008C46.261 78.25 45.6191 78.2275 44.9775 78.2332L42.981 78.2512C42.2883 78.2573 41.5957 78.2288 40.9033 78.1656L38.9068 77.9833C38.2717 77.9252 37.6368 77.9031 37.002 77.9169L35.0052 77.9608C34.3366 77.9754 33.6679 77.986 32.9992 77.9928L31.0027 78.0131C30.3361 78.0199 29.6703 78.0253 29.0054 78.0292L27.0139 78.0409C26.3444 78.0448 25.6704 78.0418 24.9923 78.0316L22.9746 78.0012C22.1549 77.9889 21.3891 77.764 20.6925 77.3315L18.9779 76.2668C18.3905 75.902 17.8174 75.5181 17.2586 75.1149L15.6277 73.9382C14.9812 73.4717 14.4711 72.8807 14.1041 72.1731L13.1783 70.3888C12.866 69.7865 12.5615 69.1765 12.2648 68.5589L11.3853 66.7284C11.0161 65.9601 10.9117 65.1437 11.0743 64.3057L11.4629 62.3028C11.5917 61.6393 11.7121 60.9907 11.8244 60.3571L12.1638 58.4427C12.2871 57.7472 12.485 57.0632 12.7562 56.3918L13.5083 54.5295C13.8012 53.8043 14.2306 53.1639 14.7915 52.6141L16.2366 51.1972C16.7645 50.6797 17.3487 50.2298 17.9875 49.8477L19.7409 48.7989C19.7841 48.773 19.816 48.7502 19.8395 48.7318C19.8283 48.7134 19.8139 48.6909 19.7945 48.6649L18.6178 47.084C18.1909 46.5103 17.825 45.891 17.5198 45.2275L16.6731 43.3866C16.3284 42.637 16.2035 41.8439 16.3003 41.0239L16.5384 39.0081C16.6187 38.3283 16.7075 37.6611 16.8049 37.0068L17.0934 35.0692C17.2006 34.3492 17.4047 33.6549 17.7045 32.9885L18.5129 31.1914C18.8166 30.5163 19.216 29.9026 19.7097 29.3529L21.0225 27.8911C21.4725 27.3901 21.9435 26.9002 22.4352 26.4214L23.8721 25.022C24.4294 24.4793 25.0748 24.0646 25.8023 23.7808L27.6834 23.0471C28.3544 22.7853 29.046 22.5829 29.7575 22.4397L31.7556 22.0376C32.0345 21.9815 32.2078 21.9124 32.3073 21.8535C32.3922 21.8032 32.4003 21.7748 32.3947 21.7851L32.8417 20.7415C32.959 20.4678 33.0871 20.0283 33.2158 19.3925L33.6142 17.4253C33.757 16.7205 33.9628 16.0369 34.2319 15.3752L34.982 13.5317C35.2525 12.8667 35.5892 12.2296 35.9912 11.6207L37.1106 9.92515C37.562 9.24138 38.1593 8.71108 38.8915 8.34395L40.7065 7.43381C41.3435 7.11442 41.9894 6.84323 42.6438 6.62088L44.4982 5.99105C45.1703 5.76273 45.861 5.6065 46.5692 5.52237L48.5264 5.28988C49.1872 5.21138 49.7545 5.15598 50.2254 5.12502L51.5815 5.03599C51.8087 5.02105 51.9848 5.01037 52.1062 5.00481C52.165 5.00212 52.2205 5.00032 52.2655 5.00006C52.2845 4.99994 52.3215 4.99971 52.3619 5.0027ZM52.1165 6.62987C52.0135 6.63523 51.8713 6.64344 51.688 6.65549L50.3319 6.74479C49.8988 6.77327 49.3616 6.82523 48.7177 6.90172L46.7608 7.13421C46.1643 7.20507 45.5844 7.33623 45.0203 7.52786L43.1662 8.1577C42.5845 8.35528 42.0072 8.59744 41.4341 8.88476L39.6188 9.7949C39.141 10.0345 38.76 10.3728 38.4651 10.8194L37.3457 12.515C37.0014 13.0366 36.7149 13.5792 36.4855 14.1433L35.7355 15.9868C35.5047 16.5541 35.3281 17.1407 35.2052 17.7474L34.8068 19.7148C34.67 20.3905 34.5158 20.956 34.3339 21.3806L33.885 22.4281C33.5696 23.1646 32.8027 23.4829 32.0758 23.6291L30.0777 24.031C29.4574 24.1558 28.8561 24.332 28.2733 24.5594L26.3922 25.293C25.8658 25.4984 25.4051 25.7948 25.0044 26.1849L23.5675 27.5844C23.1012 28.0384 22.6554 28.5021 22.2301 28.9756L20.9174 30.4374C20.5359 30.8622 20.2284 31.3347 19.9932 31.8574L19.1848 33.6542C18.9457 34.1856 18.7841 34.7363 18.6989 35.3081L18.4104 37.2459C18.3155 37.8834 18.2289 38.5342 18.1505 39.1983L17.9122 41.2144C17.8503 41.7383 17.9282 42.2308 18.1478 42.7084L18.9946 44.5493C19.2538 45.1129 19.5622 45.6343 19.9198 46.1147L21.0968 47.6958C21.3668 48.0586 21.5786 48.5393 21.4605 49.0781C21.3445 49.6074 20.9598 49.9613 20.5742 50.1919L18.8207 51.2405C18.2907 51.5576 17.8086 51.9295 17.3729 52.3565L15.9278 53.7734C15.5252 54.168 15.222 54.621 15.0134 55.1374L14.2613 56.9997C14.031 57.5699 13.8649 58.1452 13.7619 58.7259L13.4227 60.6403C13.3088 61.283 13.1869 61.9402 13.0566 62.6119L12.6679 64.6148C12.5715 65.1119 12.6311 65.5732 12.8484 66.0253L13.7279 67.8559C14.0175 68.4587 14.3146 69.0539 14.6193 69.6413L15.545 71.426C15.795 71.908 16.1369 72.3041 16.5775 72.622L18.2083 73.7984C18.7366 74.1796 19.2785 74.5429 19.8342 74.888L21.5488 75.9527C21.9953 76.23 22.4738 76.3704 22.9992 76.3783L25.0169 76.4087C25.6838 76.4187 26.3464 76.4218 27.0044 76.4179L28.9956 76.406C29.6583 76.4021 30.3219 76.3966 30.9863 76.3899L32.9828 76.3696C33.6452 76.3629 34.3075 76.3524 34.9698 76.3379L36.9663 76.2943C37.6625 76.279 38.3587 76.3031 39.0545 76.3667L41.051 76.549C41.6897 76.6073 42.3281 76.6336 42.9664 76.6279L44.9629 76.6102C45.6523 76.6041 46.3417 76.6281 47.0308 76.6826L49.0273 76.8406C49.661 76.8908 50.2947 76.9035 50.9282 76.8787L52.9247 76.8005C53.6277 76.7729 54.3306 76.7941 55.0332 76.8639L57.0297 77.062C57.665 77.1251 58.3 77.1522 58.9348 77.1434L60.9313 77.1156C61.5593 77.1069 62.1879 77.0547 62.8171 76.959L64.8136 76.6554C65.5675 76.5408 66.3227 76.5511 67.0754 76.6861L69.0719 77.0441C69.6426 77.1463 70.2111 77.1462 70.7818 77.0435L72.7783 76.6845C73.455 76.5628 74.1225 76.4573 74.7806 76.3685L76.7182 76.1072C77.3251 76.0253 77.9271 75.8991 78.5245 75.7286L80.4277 75.1854C80.9373 75.04 81.3802 74.7883 81.7659 74.4248L83.2063 73.0674C83.6848 72.6165 84.165 72.1603 84.6469 71.6986L86.0973 70.309C86.4636 69.9581 86.6948 69.5439 86.8011 69.048L87.2223 67.0842C87.3568 66.4568 87.456 65.8366 87.5203 65.2238L87.7227 63.2959C87.786 62.6925 87.8062 62.0779 87.7832 61.4519L87.71 59.462C87.6889 58.8884 87.5751 58.3247 87.3657 57.7682L86.6477 55.8589C86.4647 55.3724 86.1677 54.9842 85.7436 54.6782L84.0839 53.4809C83.5372 53.0865 83.0009 52.712 82.475 52.3573L80.875 51.278C80.4024 50.9593 79.8955 50.7092 79.353 50.5272L77.5182 49.9116C77.096 49.77 76.6588 49.5039 76.4411 49.0136C76.225 48.5271 76.3164 48.0244 76.4865 47.6145L77.241 45.7968C77.5027 45.1665 77.7954 44.5484 78.1192 43.9427L79.0539 42.1948C79.3219 41.6938 79.5021 41.1554 79.5942 40.5756L79.912 38.5743C79.996 38.0453 79.9452 37.5373 79.7583 37.0367L79.0502 35.1408C78.8208 34.5264 78.5745 33.9318 78.3116 33.357L77.4978 31.5779C77.2591 31.056 76.9505 30.5772 76.5705 30.1399L75.2786 28.6536C74.8818 28.197 74.44 27.7758 73.9526 27.3902L72.3746 26.1416C71.9601 25.8137 71.4982 25.6144 70.976 25.5377L68.9863 25.2452C68.1416 25.121 67.3937 24.709 67.0963 23.8534L66.6033 22.4355C66.4072 21.8713 66.2975 21.2193 66.258 20.4953L66.1478 18.4774C66.1174 17.9193 65.9751 17.3992 65.7198 16.9094L64.7925 15.13C64.4905 14.5505 64.1747 13.9842 63.8448 13.4313L62.8309 11.732C62.5501 11.2614 62.1892 10.8683 61.7429 10.5481L60.1327 9.3928C59.6124 9.01948 59.0733 8.66213 58.5155 8.3207L56.7925 7.26604C56.3347 6.98586 55.8433 6.83467 55.3059 6.80925L53.285 6.71362C52.9474 6.69765 52.6902 6.68454 52.5162 6.67399C52.4304 6.66878 52.3584 6.66385 52.3051 6.65919C52.2808 6.65707 52.2477 6.65399 52.2153 6.64942C52.2033 6.64772 52.1657 6.64221 52.1213 6.63119C52.1199 6.63086 52.1184 6.63034 52.1165 6.62987Z" fill="black"/>
</svg>
