<svg width="100" height="100" viewBox="0 0 100 100" fill="none" xmlns="http://www.w3.org/2000/svg">
<g clip-path="url(#clip0_4008_34445)">
<path d="M8.39186 28.3366C6.96732 27.6439 5.24266 28.2346 4.63267 29.6965C0.442318 39.7389 -0.369727 50.9025 2.36669 61.4881C5.343 73.0018 12.3226 83.0791 22.0545 89.9138C31.7865 96.7485 43.6344 99.8938 55.4749 98.7859C67.3153 97.6779 78.3741 92.3893 86.6691 83.8677C94.9641 75.3462 99.9531 64.149 100.742 52.283C101.53 40.417 99.1228 32.5899 92.0284 23.0456C84.9341 13.5013 75.1494 7.22453 63.5597 4.5594C52.9177 2.1122 41.7948 3.21869 31.8784 7.66384C30.4183 8.31837 29.88 10.0836 30.6385 11.4925L46.5998 41.139C47.9197 43.5906 45.324 46.2956 42.8201 45.078L8.39186 28.3366Z" fill="#C0D790"/>
</g>
<defs>
<clipPath id="clip0_4008_34445">
<rect width="100" height="100" fill="white"/>
</clipPath>
</defs>
</svg>
