<svg width="100" height="100" viewBox="0 0 100 100" fill="none" xmlns="http://www.w3.org/2000/svg">
<ellipse cx="49.2776" cy="25.5556" rx="26.1111" ry="25.5556" fill="#EEF4FF"/>
<circle cx="41.7779" cy="20.8331" r="1.94444" fill="black"/>
<circle cx="59.0001" cy="20.2784" r="1.94444" fill="black"/>
<path d="M47.26 29.5211L47.1029 28.7807C46.7574 27.152 47.6665 25.5182 49.2327 24.9533L65.74 18.9992C66.8101 18.6133 68.0034 19.0424 68.5824 20.0215C69.2657 21.1768 68.8535 22.6685 67.6739 23.3089L52.1113 31.7587C50.1527 32.8221 47.7225 31.7012 47.26 29.5211Z" fill="#FA7D2E"/>
<path d="M87.6113 43.334L99.5558 45.2784" stroke="#613822" stroke-width="2.22222"/>
<path d="M75.3892 54.4451L94.8336 35.834" stroke="#613822" stroke-width="2.22222"/>
<path d="M14.8333 42.2227H4" stroke="#574E4E" stroke-width="2.22222"/>
<path d="M23.4443 55.8342L10.9443 36.9453" stroke="#574E4E" stroke-width="2.22222"/>
<circle cx="49.2777" cy="69.4442" r="30.5556" fill="#EEF4FF"/>
<circle cx="50.3891" cy="57.2231" r="2.77778" fill="black"/>
<circle cx="50.3891" cy="66.1118" r="2.77778" fill="black"/>
<circle cx="50.3891" cy="75.0004" r="2.77778" fill="black"/>
</svg>
