<svg width="100" height="100" viewBox="0 0 100 100" fill="none" xmlns="http://www.w3.org/2000/svg">
<path d="M75.9315 39.2897C70.9262 40.801 66.0494 42.6873 61.312 44.8738C65.6743 37.9071 69.8008 30.801 73.67 23.5449C74.0344 22.8589 73.4342 22.0443 72.6625 22.2373C67.4106 23.5341 62.2767 25.1954 57.2392 27.1676C60.3689 21.8836 63.5093 16.5888 66.6389 11.3048C67.132 10.4688 66.178 9.75071 65.4171 10.083L48.5468 17.3713C47.9895 17.6071 47.9895 18.143 48.2574 18.5395C44.7633 27.3927 40.2832 35.8171 34.9134 43.6734C34.4847 44.295 35.2028 45.2382 35.9209 44.981C40.8727 43.2232 45.8244 41.4655 50.7762 39.697C41.087 55.1203 31.9338 70.8759 23.3808 86.953C23.1664 87.3603 23.2951 87.7461 23.5523 88.0033C23.4344 88.1427 23.3272 88.2927 23.2093 88.4321C22.5019 89.3217 23.7559 90.5864 24.474 89.6968C30.5833 82.0548 36.6926 74.4128 42.8019 66.7708C44.2596 64.9488 45.6958 63.116 47.1642 61.3153C48.7505 59.3754 50.4868 58.1964 52.6947 57.0496C56.3174 55.1632 59.9509 53.2875 63.5736 51.4011C60.9691 58.0035 58.3539 64.5951 55.7494 71.1974C55.3957 72.0977 56.5639 72.5586 57.1856 72.0441C57.4321 72.0227 57.6679 71.9048 57.8394 71.6368C61.6872 65.3882 65.4063 59.0646 69.1684 52.7516C71.6228 48.6144 74.1201 44.4987 76.9283 40.5973C77.3892 39.9542 76.6282 39.0753 75.9208 39.2897H75.9315Z" fill="#FFCD74"/>
</svg>
