<svg width="100" height="100" viewBox="0 0 100 100" fill="none" xmlns="http://www.w3.org/2000/svg">
<path d="M65.5249 11.5742C78.402 11.5742 88.841 22.0209 88.841 34.9076C88.841 40.722 86.7154 46.0394 83.2 50.1249C86.7154 54.2105 88.841 59.5279 88.841 65.3423C88.841 78.229 78.402 88.6757 65.5249 88.6757C59.4217 88.6757 53.8665 86.3286 49.7105 82.4877C45.5545 86.3286 39.9993 88.6757 33.8961 88.6757C21.019 88.6757 10.5801 78.229 10.5801 65.3423C10.5801 59.528 12.7053 54.2104 16.2206 50.1249C12.7053 46.0394 10.5801 40.7219 10.5801 34.9076C10.5801 22.0209 21.019 11.5742 33.8961 11.5742C39.9993 11.5742 45.5546 13.921 49.7105 17.7618C53.8665 13.921 59.4218 11.5742 65.5249 11.5742Z" fill="#BCD897"/>
<path d="M35.8035 10.4184C36.5844 10.3882 37.3436 10.5145 38.0745 10.7961L39.9613 11.5232C40.5928 11.7665 41.2149 12.0099 41.8271 12.2534L43.6554 12.9809C44.3235 13.2467 44.9516 13.5865 45.5386 13.9999L47.1435 15.13C47.5941 15.4473 48.0291 15.6273 48.4516 15.6971L50.1296 15.9742C50.4403 16.0256 50.7713 15.9576 51.1594 15.6736L52.7572 14.5046C53.3241 14.0896 53.9215 13.7206 54.5491 13.3983L56.3196 12.4889C56.9589 12.1606 57.6259 11.9006 58.3199 11.7086L60.243 11.1765C60.929 10.9867 61.6269 10.8573 62.3357 10.7885L64.3233 10.596C64.658 10.5635 64.926 10.5417 65.119 10.5328C65.2127 10.5285 65.3081 10.5262 65.3914 10.53C65.4301 10.5318 65.4933 10.536 65.563 10.5495C65.5971 10.5561 65.6574 10.5698 65.727 10.5979C65.7559 10.6096 65.8137 10.6348 65.8816 10.6805C66.0354 10.6857 66.2567 10.6886 66.5504 10.6873L68.555 10.6781C69.3039 10.6748 70.0384 10.7821 70.7556 10.9998L72.6764 11.5827C73.3498 11.7872 74.0065 12.0341 74.6462 12.3229L76.4693 13.1461C77.1427 13.4502 77.7645 13.8384 78.3328 14.3092L79.8701 15.5827C80.3717 15.9984 80.8856 16.4023 81.4118 16.7947L83.023 17.9963C83.6615 18.4724 84.1635 19.0716 84.5224 19.7856L85.4292 21.5896C85.713 22.1542 86.0369 22.693 86.4012 23.2062L87.5662 24.847C88.0126 25.4758 88.3313 26.1667 88.5205 26.9147L89.0138 28.8648C89.1958 29.5847 89.2803 30.3152 89.2668 31.054L89.2304 33.0518C89.2183 33.7145 89.21 34.3718 89.2059 35.0234L89.1936 36.9883C89.1892 37.6913 89.1233 38.3905 88.9956 39.085L88.6383 41.0284C88.506 41.7478 88.2807 42.4375 87.9631 43.0952L87.1053 44.8715C86.8288 45.444 86.5712 46.0351 86.3329 46.6449L85.5956 48.5319C85.3805 49.0825 85.3516 49.4547 85.3976 49.693L85.6561 51.0328C85.7203 51.3655 85.8846 51.7996 86.1862 52.3456L87.1614 54.1115C87.5078 54.7387 87.8012 55.3898 88.0413 56.0641L88.7169 57.9618C88.9538 58.6269 89.1483 59.3055 89.3 59.9973L89.7332 61.9721C89.8896 62.6853 89.9716 63.4084 89.9791 64.1403L89.9997 66.1682C90.0077 66.9495 89.8682 67.7076 89.5826 68.4365L88.8399 70.3318C88.6118 70.9138 88.4452 71.5066 88.3394 72.1104L87.9935 74.0852C87.8617 74.8379 87.604 75.5467 87.2215 76.2069L86.2182 77.9386C85.8537 78.5678 85.4252 79.148 84.9335 79.6783L83.582 81.1361C83.119 81.6353 82.6412 82.1166 82.1486 82.5799L80.7113 83.9316C80.1958 84.4165 79.6396 84.8502 79.0431 85.2325L77.3793 86.2991C76.7944 86.674 76.1854 87.009 75.553 87.3046L73.7524 88.1464C73.068 88.4663 72.3479 88.6613 71.5964 88.731L69.6195 88.9144C69.0011 88.9718 68.3837 89.0759 67.7672 89.2273L65.8033 89.7098C64.9972 89.9077 64.1923 89.8696 63.4078 89.5966L61.4945 88.9307C60.891 88.7207 60.2859 88.5557 59.6793 88.4347L57.7475 88.0495C57.02 87.9045 56.3311 87.6491 55.6836 87.2851L53.9628 86.3182C53.3555 85.9768 52.7773 85.5939 52.2283 85.1702L50.6743 83.9709C50.5132 83.8466 50.3983 83.8144 50.3225 83.8089C50.2487 83.8036 50.14 83.8185 49.9802 83.913L48.3377 84.8839C47.774 85.217 47.19 85.5352 46.5861 85.8389L44.8215 86.7264C44.2017 87.0382 43.5658 87.307 42.9142 87.5325L41.061 88.1742C40.4286 88.3931 39.7863 88.5945 39.1347 88.779L37.2238 89.3203C36.4902 89.5279 35.7414 89.595 34.9825 89.5216L33.0052 89.3302C32.3251 89.2644 31.6532 89.1726 30.9895 89.0546L29.0628 88.7119C28.3767 88.5899 27.7049 88.4118 27.0484 88.1782L25.2051 87.5222C24.5409 87.2858 23.9061 86.9869 23.3017 86.6255L21.6256 85.6233C21.047 85.2773 20.4831 84.9064 19.9342 84.5106L18.3431 83.3634C17.753 82.9379 17.2302 82.4396 16.7757 81.8703L15.5503 80.3355C15.1461 79.8293 14.7312 79.3233 14.3063 78.8178L13.0184 77.2858C12.5165 76.6889 12.1546 76.0127 11.936 75.2638L11.3755 73.343C11.1833 72.6843 11.0157 72.0233 10.8731 71.3603L10.4576 69.4296C10.308 68.7345 10.2265 68.031 10.2133 67.3202L10.1765 65.3462C10.1637 64.6575 10.1896 63.9697 10.2544 63.2833L10.4402 61.3153C10.5072 60.6059 10.6433 59.9089 10.8482 59.225L11.4166 57.3269C11.6256 56.6291 11.9177 55.9682 12.2918 55.3457L13.3085 53.6533C13.6378 53.1053 13.9524 52.5389 14.2521 51.9541L15.1759 50.1521C15.2697 49.969 15.2702 49.8632 15.2609 49.8074C15.2515 49.7513 15.2163 49.6502 15.0668 49.506L13.607 48.0979C13.025 47.5366 12.6053 46.8672 12.3554 46.0989L11.7305 44.1765C11.5173 43.521 11.3247 42.8657 11.1533 42.2105L10.6517 40.2917C10.4742 39.6131 10.3479 38.9248 10.273 38.2272L10.0615 36.2548C9.98517 35.5436 9.97988 34.8314 10.0457 34.1192L10.2283 32.1449C10.2902 31.4755 10.3662 30.8034 10.4568 30.1288L10.724 28.1382C10.8237 27.396 11.0279 26.6818 11.336 25.9986L12.1629 24.1648C12.47 23.4837 12.8658 22.8588 13.3488 22.2925L14.6478 20.7692C15.0778 20.265 15.5011 19.7599 15.9175 19.2539L17.1757 17.7247C17.6243 17.1795 18.1178 16.6736 18.6554 16.2069L20.1666 14.8949C20.7531 14.3859 21.4191 14.011 22.1585 13.7731L24.0666 13.1592C24.6475 12.9724 25.2069 12.724 25.7455 12.4135L27.5073 11.3973C28.2019 10.9968 28.9519 10.7703 29.7479 10.7214L31.7596 10.5979C32.436 10.5565 33.1128 10.5225 33.7898 10.4963L35.8035 10.4184ZM35.866 12.0438L33.8523 12.1216C33.1872 12.1474 32.5224 12.1805 31.858 12.2213L29.8467 12.3448C29.3018 12.3782 28.7938 12.5313 28.3137 12.8082L26.5515 13.8244C25.9154 14.1912 25.2514 14.486 24.5604 14.7083L22.6522 15.3222C22.1198 15.4935 21.6461 15.7605 21.2252 16.1259L19.714 17.4376C19.2441 17.8455 18.814 18.2867 18.4237 18.7611L17.1655 20.2903C16.743 20.8038 16.3136 21.3161 15.8776 21.8275L14.5786 23.3507C14.1956 23.7999 13.8824 24.2943 13.6382 24.8359L12.8108 26.6697C12.5676 27.2091 12.4071 27.7703 12.3286 28.3554L12.0613 30.3464C11.9737 30.999 11.9001 31.6486 11.8404 32.2954L11.6577 34.2697C11.6019 34.8738 11.6064 35.4771 11.6712 36.0805L11.8831 38.0525C11.9493 38.6696 12.0609 39.2784 12.2179 39.8788L12.7195 41.7971C12.8826 42.4209 13.0659 43.0457 13.2694 43.6714L13.8947 45.5938C14.0616 46.1068 14.3368 46.5475 14.728 46.9249L16.1879 48.333C16.525 48.6581 16.7779 49.0592 16.8579 49.5382C16.938 50.0174 16.8292 50.4796 16.6152 50.897L15.6918 52.6987C15.3758 53.3152 15.0435 53.9138 14.6948 54.4939L13.6777 56.186C13.3739 56.6916 13.137 57.2277 12.967 57.7954L12.3985 59.6936C12.2243 60.2751 12.1091 60.8667 12.0522 61.469L11.8665 63.4366C11.8074 64.062 11.7836 64.6883 11.7953 65.3157L11.8321 67.2896C11.8433 67.895 11.9126 68.4935 12.04 69.0857L12.4555 71.0168C12.5898 71.641 12.7476 72.264 12.929 72.8855L13.4896 74.8063C13.6446 75.3376 13.899 75.812 14.2557 76.2363L15.5435 77.7683C15.9772 78.2841 16.4004 78.8006 16.8133 79.3177L18.0387 80.8529C18.4011 81.307 18.817 81.703 19.2874 82.0422L20.8781 83.1891C21.3897 83.5579 21.915 83.9033 22.4538 84.2255L24.1299 85.2278C24.6429 85.5345 25.1814 85.7885 25.7459 85.9894L27.5892 86.6454C28.1614 86.8491 28.7467 87.004 29.3451 87.1104L31.2718 87.4531C31.8927 87.5635 32.5224 87.6495 33.1605 87.7112L35.1378 87.9026C35.6971 87.9567 36.2443 87.9075 36.7846 87.7545L38.6955 87.2136C39.3179 87.0375 39.9308 86.8449 40.5337 86.6363L42.3865 85.9949C42.9701 85.7929 43.5401 85.5521 44.0965 85.2722L45.8612 84.3847C46.4336 84.0968 46.9854 83.7957 47.5167 83.4817L49.1592 82.5112C49.5468 82.2821 49.9783 82.154 50.4372 82.1868C50.894 82.2194 51.3045 82.406 51.661 82.6812L53.2145 83.8804C53.7012 84.256 54.2143 84.5957 54.7538 84.899L56.4742 85.8659C56.9735 86.1466 57.502 86.3422 58.0625 86.454L59.9947 86.8392C60.6761 86.975 61.3529 87.1602 62.0246 87.3939L63.9375 88.0595C64.4282 88.2302 64.9156 88.2533 65.4187 88.1297L67.3825 87.6473C68.0752 87.4772 68.7715 87.3595 69.4709 87.2947L71.4478 87.1116C72.0141 87.0591 72.5533 86.9127 73.0693 86.6716L74.8699 85.8302C75.4379 85.5647 75.9842 85.264 76.5084 84.9279L78.1719 83.8613C78.6846 83.5327 79.1623 83.1606 79.6048 82.7443L81.0418 81.3926C81.5072 80.9548 81.9589 80.4997 82.3968 80.0274L83.7484 78.5696C84.1576 78.1283 84.5145 77.6455 84.8189 77.1202L85.8221 75.3885C86.1085 74.8942 86.3001 74.3671 86.3989 73.8032L86.7448 71.8285C86.8696 71.1157 87.0663 70.4179 87.3334 69.7362L88.0757 67.8408C88.2853 67.306 88.3864 66.7557 88.3805 66.1849L88.36 64.1569C88.3536 63.5369 88.2843 62.9257 88.152 62.3223L87.7188 60.3472C87.5817 59.7223 87.4063 59.1099 87.1926 58.5098L86.5167 56.6121C86.3062 56.0212 86.0492 55.4506 85.7454 54.9006L84.7702 53.1351C84.4217 52.504 84.1748 51.903 84.0666 51.3426L83.8077 50.0028C83.6813 49.348 83.8119 48.6447 84.0883 47.9375L84.826 46.0505C85.0792 45.4025 85.3534 44.7728 85.6486 44.1615L86.5064 42.3852C86.7605 41.859 86.9401 41.3089 87.046 40.7329L87.4033 38.7895C87.5138 38.1886 87.5707 37.5848 87.5745 36.978L87.5871 35.0131C87.5913 34.3549 87.5994 33.6911 87.6117 33.0221L87.648 31.0243C87.6588 30.4315 87.5911 29.8458 87.4444 29.2655L86.9511 27.315C86.8115 26.7626 86.5779 26.2562 86.2479 25.7913L85.0829 24.1509C84.6708 23.5704 84.3043 22.9607 83.9836 22.3227L83.0772 20.5186C82.8315 20.03 82.4938 19.6272 82.0581 19.3023L80.4468 18.1007C79.8987 17.692 79.363 17.2709 78.8399 16.8375L77.3026 15.564C76.8461 15.1858 76.3477 14.8745 75.8056 14.6297L73.9821 13.8065C73.4062 13.5464 72.8149 13.324 72.208 13.1398L70.2872 12.5568C69.7241 12.3859 69.1501 12.302 68.5625 12.3047L66.5575 12.3138C66.22 12.3153 65.9508 12.3121 65.7578 12.3039C65.664 12.2999 65.5709 12.2942 65.4906 12.284C65.453 12.2792 65.3943 12.2706 65.3309 12.2538C65.2998 12.2456 65.2461 12.2296 65.1847 12.2014C65.1695 12.1945 65.1443 12.1815 65.1123 12.1629C64.9626 12.1719 64.7529 12.1883 64.4786 12.2149L62.4911 12.4075C61.8749 12.4673 61.2691 12.5798 60.6731 12.7446L58.7499 13.2768C58.1618 13.4394 57.5974 13.6593 57.0565 13.9371L55.2863 14.8465C54.7338 15.1303 54.2087 15.4545 53.7106 15.819L52.1128 16.988C51.436 17.4834 50.6752 17.7127 49.8671 17.5793L48.1887 17.3021C47.4924 17.1871 46.833 16.898 46.2138 16.4619L44.6092 15.3317C44.1264 14.9917 43.61 14.7122 43.0593 14.4931L41.2306 13.7656C40.624 13.5243 40.0076 13.283 39.3814 13.0417L37.4946 12.3146C36.9679 12.1116 36.4271 12.022 35.866 12.0438Z" fill="black"/>
<path d="M67.3916 50.1245C67.3916 59.8896 59.4755 67.8057 49.7105 67.8057C39.9454 67.8057 32.0293 59.8896 32.0293 50.1245C32.0293 40.3595 39.9454 32.4434 49.7105 32.4434C59.4755 32.4434 67.3916 40.3595 67.3916 50.1245Z" fill="url(#paint0_radial_3647_3609)"/>
<path d="M35.1001 36.3947C34.5826 35.8574 34.5986 35.0024 35.1359 34.4849C35.6732 33.9674 36.5283 33.9834 37.0458 34.5207L43.8873 41.6238C44.4048 42.1611 44.3888 43.0162 43.8515 43.5337C43.3142 44.0512 42.4592 44.0351 41.9417 43.4979L35.1001 36.3947Z" fill="#7F9168"/>
<path d="M64.2574 62.9628C64.7527 63.5205 64.7021 64.3742 64.1444 64.8696C63.5866 65.3649 62.7329 65.3144 62.2376 64.7566L55.6886 57.3828C55.1933 56.825 55.2438 55.9713 55.8016 55.476C56.3593 54.9806 57.2131 55.0312 57.7084 55.5889L64.2574 62.9628Z" fill="#7F9168"/>
<path d="M63.1992 34.843C63.7585 34.3494 64.6121 34.4026 65.1057 34.9619C65.5993 35.5212 65.546 36.3748 64.9867 36.8684L57.5924 43.3942C57.0331 43.8878 56.1795 43.8345 55.6859 43.2752C55.1923 42.7159 55.2456 41.8624 55.8049 41.3687L63.1992 34.843Z" fill="#7F9168"/>
<path d="M36.9453 63.1122C36.3785 63.5971 35.5258 63.5307 35.0409 62.9639C34.5559 62.3971 34.6223 61.5444 35.1891 61.0595L42.6829 54.6482C43.2498 54.1632 44.1024 54.2296 44.5873 54.7964C45.0723 55.3633 45.0059 56.2159 44.4391 56.7009L36.9453 63.1122Z" fill="#7F9168"/>
<path d="M65.5249 11.1602C78.402 11.1602 88.841 21.6068 88.841 34.4935C88.841 40.3079 86.7154 45.6254 83.2 49.7109C86.7154 53.7964 88.841 59.1138 88.841 64.9283C88.841 77.8149 78.402 88.2616 65.5249 88.2616C59.4217 88.2616 53.8665 85.9145 49.7105 82.0736C45.5545 85.9145 39.9993 88.2616 33.8961 88.2616C21.019 88.2616 10.5801 77.8149 10.5801 64.9283C10.5801 59.1139 12.7053 53.7964 16.2206 49.7109C12.7053 45.6254 10.5801 40.3078 10.5801 34.4935C10.5801 21.6068 21.019 11.1602 33.8961 11.1602C39.9993 11.1602 45.5546 13.5069 49.7105 17.3478C53.8665 13.5069 59.4218 11.1602 65.5249 11.1602Z" fill="#BCD897"/>
<path d="M35.8035 10.0044C36.5844 9.97414 37.3436 10.1004 38.0745 10.382L39.9613 11.1091C40.5928 11.3524 41.2149 11.5958 41.8271 11.8394L43.6554 12.5669C44.3235 12.8327 44.9516 13.1724 45.5386 13.5858L47.1435 14.716C47.5941 15.0333 48.0291 15.2132 48.4516 15.283L50.1296 15.5602C50.4403 15.6115 50.7713 15.5435 51.1594 15.2596L52.7572 14.0905C53.3241 13.6756 53.9215 13.3066 54.5491 12.9842L56.3196 12.0749C56.9589 11.7465 57.6259 11.4865 58.3199 11.2946L60.243 10.7624C60.929 10.5727 61.6269 10.4432 62.3357 10.3745L64.3233 10.1819C64.658 10.1494 64.926 10.1276 65.119 10.1187C65.2127 10.1145 65.3081 10.1122 65.3914 10.116C65.4301 10.1177 65.4933 10.1219 65.563 10.1354C65.5971 10.1421 65.6574 10.1558 65.727 10.1839C65.7559 10.1955 65.8137 10.2207 65.8816 10.2665C66.0354 10.2716 66.2567 10.2746 66.5504 10.2732L68.555 10.2641C69.3039 10.2607 70.0384 10.368 70.7556 10.5857L72.6764 11.1687C73.3498 11.3731 74.0065 11.62 74.6462 11.9089L76.4693 12.7321C77.1427 13.0362 77.7645 13.4243 78.3328 13.8952L79.8701 15.1686C80.3717 15.5843 80.8856 15.9883 81.4118 16.3806L83.023 17.5822C83.6615 18.0583 84.1635 18.6575 84.5224 19.3715L85.4292 21.1755C85.713 21.7402 86.0369 22.2789 86.4012 22.7921L87.5662 24.4329C88.0126 25.0618 88.3313 25.7527 88.5205 26.5006L89.0138 28.4508C89.1958 29.1706 89.2803 29.9011 89.2668 30.64L89.2304 32.6378C89.2183 33.3005 89.21 33.9577 89.2059 34.6094L89.1936 36.5742C89.1892 37.2773 89.1233 37.9764 88.9956 38.6709L88.6383 40.6143C88.506 41.3338 88.2807 42.0234 87.9631 42.6812L87.1053 44.4574C86.8288 45.03 86.5712 45.621 86.3329 46.2308L85.5956 48.1179C85.3805 48.6684 85.3516 49.0406 85.3976 49.279L85.6561 50.6188C85.7203 50.9514 85.8846 51.3855 86.1862 51.9316L87.1614 53.6975C87.5078 54.3247 87.8012 54.9757 88.0413 55.65L88.7169 57.5477C88.9538 58.2128 89.1483 58.8915 89.3 59.5833L89.7332 61.558C89.8896 62.2712 89.9716 62.9944 89.9791 63.7262L89.9997 65.7542C90.0077 66.5354 89.8682 67.2935 89.5826 68.0224L88.8399 69.9177C88.6118 70.4997 88.4452 71.0925 88.3394 71.6964L87.9935 73.6711C87.8617 74.4238 87.604 75.1326 87.2215 75.7928L86.2182 77.5246C85.8537 78.1537 85.4252 78.7339 84.9335 79.2642L83.582 80.722C83.119 81.2213 82.6412 81.7025 82.1486 82.1658L80.7113 83.5176C80.1958 84.0024 79.6396 84.4361 79.0431 84.8185L77.3793 85.8851C76.7944 86.26 76.1854 86.595 75.553 86.8905L73.7524 87.7324C73.068 88.0522 72.3479 88.2472 71.5964 88.3169L69.6195 88.5004C69.0011 88.5577 68.3837 88.6619 67.7672 88.8133L65.8033 89.2957C64.9972 89.4937 64.1923 89.4555 63.4078 89.1826L61.4945 88.5166C60.891 88.3067 60.2859 88.1416 59.6793 88.0207L57.7475 87.6355C57.02 87.4904 56.3311 87.2351 55.6836 86.8711L53.9628 85.9041C53.3555 85.5627 52.7773 85.1799 52.2283 84.7561L50.6743 83.5569C50.5132 83.4325 50.3983 83.4003 50.3225 83.3949C50.2487 83.3896 50.14 83.4045 49.9802 83.4989L48.3377 84.4698C47.774 84.803 47.19 85.1211 46.5861 85.4248L44.8215 86.3123C44.2017 86.6241 43.5658 86.8929 42.9142 87.1184L41.061 87.7602C40.4286 87.9791 39.7863 88.1805 39.1347 88.3649L37.2238 88.9062C36.4902 89.1139 35.7414 89.181 34.9825 89.1075L33.0052 88.9161C32.3251 88.8503 31.6532 88.7586 30.9895 88.6405L29.0628 88.2978C28.3767 88.1758 27.7049 87.9978 27.0484 87.7641L25.2051 87.1081C24.5409 86.8717 23.9061 86.5729 23.3017 86.2115L21.6256 85.2092C21.047 84.8632 20.4831 84.4923 19.9342 84.0965L18.3431 82.9493C17.753 82.5239 17.2302 82.0255 16.7757 81.4562L15.5503 79.9214C15.1461 79.4152 14.7312 78.9092 14.3063 78.4037L13.0184 76.8717C12.5165 76.2748 12.1546 75.5987 11.936 74.8497L11.3755 72.9289C11.1833 72.2703 11.0157 71.6093 10.8731 70.9462L10.4576 69.0155C10.308 68.3204 10.2265 67.6169 10.2133 66.9062L10.1765 64.9322C10.1637 64.2435 10.1896 63.5556 10.2544 62.8693L10.4402 60.9012C10.5072 60.1918 10.6433 59.4948 10.8482 58.8109L11.4166 56.9128C11.6256 56.2151 11.9177 55.5542 12.2918 54.9317L13.3085 53.2392C13.6378 52.6912 13.9524 52.1248 14.2521 51.54L15.1759 49.738C15.2697 49.555 15.2702 49.4491 15.2609 49.3933C15.2515 49.3373 15.2163 49.2361 15.0668 49.0919L13.607 47.6838C13.025 47.1225 12.6053 46.4531 12.3554 45.6848L11.7305 43.7625C11.5173 43.1069 11.3247 42.4517 11.1533 41.7965L10.6517 39.8777C10.4742 39.199 10.3479 38.5107 10.273 37.8132L10.0615 35.8408C9.98517 35.1295 9.97988 34.4173 10.0457 33.7052L10.2283 31.7308C10.2902 31.0614 10.3662 30.3893 10.4568 29.7147L10.724 27.7241C10.8237 26.9819 11.0279 26.2678 11.336 25.5845L12.1629 23.7507C12.47 23.0696 12.8658 22.4448 13.3488 21.8784L14.6478 20.3551C15.0778 19.851 15.5011 19.3458 15.9175 18.8398L17.1757 17.3106C17.6243 16.7655 18.1178 16.2595 18.6554 15.7929L20.1666 14.4809C20.7531 13.9718 21.4191 13.5969 22.1585 13.3591L24.0666 12.7452C24.6475 12.5583 25.2069 12.31 25.7455 11.9994L27.5073 10.9832C28.2019 10.5827 28.9519 10.3562 29.7479 10.3074L31.7596 10.1839C32.436 10.1424 33.1128 10.1085 33.7898 10.0822L35.8035 10.0044ZM35.866 11.6297L33.8523 11.7075C33.1872 11.7333 32.5224 11.7665 31.858 11.8072L29.8467 11.9307C29.3018 11.9641 28.7938 12.1173 28.3137 12.3941L26.5515 13.4103C25.9154 13.7771 25.2514 14.0719 24.5604 14.2942L22.6522 14.9081C22.1198 15.0794 21.6461 15.3465 21.2252 15.7119L19.714 17.0235C19.2441 17.4314 18.814 17.8727 18.4237 18.347L17.1655 19.8762C16.743 20.3897 16.3136 20.9021 15.8776 21.4134L14.5786 22.9367C14.1956 23.3858 13.8824 23.8802 13.6382 24.4218L12.8108 26.2556C12.5676 26.7951 12.4071 27.3562 12.3286 27.9413L12.0613 29.9324C11.9737 30.5849 11.9001 31.2346 11.8404 31.8813L11.6577 33.8557C11.6019 34.4597 11.6064 35.0631 11.6712 35.6665L11.8831 37.6384C11.9493 38.2555 12.0609 38.8644 12.2179 39.4647L12.7195 41.3831C12.8826 42.0068 13.0659 42.6316 13.2694 43.2574L13.8947 45.1797C14.0616 45.6928 14.3368 46.1334 14.728 46.5108L16.1879 47.9189C16.525 48.2441 16.7779 48.6452 16.8579 49.1241C16.938 49.6033 16.8292 50.0655 16.6152 50.483L15.6918 52.2846C15.3758 52.9011 15.0435 53.4997 14.6948 54.0799L13.6777 55.7719C13.3739 56.2775 13.137 56.8136 12.967 57.3814L12.3985 59.2795C12.2243 59.861 12.1091 60.4526 12.0522 61.0549L11.8665 63.0225C11.8074 63.6479 11.7836 64.2743 11.7953 64.9016L11.8321 66.8756C11.8433 67.4809 11.9126 68.0795 12.04 68.6717L12.4555 70.6027C12.5898 71.227 12.7476 71.8499 12.929 72.4715L13.4896 74.3923C13.6446 74.9235 13.899 75.3979 14.2557 75.8222L15.5435 77.3542C15.9772 77.87 16.4004 78.3865 16.8133 78.9037L18.0387 80.4389C18.4011 80.8929 18.817 81.289 19.2874 81.6282L20.8781 82.775C21.3897 83.1438 21.915 83.4893 22.4538 83.8114L24.1299 84.8137C24.6429 85.1204 25.1814 85.3744 25.7459 85.5753L27.5892 86.2313C28.1614 86.435 28.7467 86.5899 29.3451 86.6963L31.2718 87.039C31.8927 87.1495 32.5224 87.2354 33.1605 87.2971L35.1378 87.4885C35.6971 87.5427 36.2443 87.4934 36.7846 87.3404L38.6955 86.7996C39.3179 86.6234 39.9308 86.4309 40.5337 86.2222L42.3865 85.5809C42.9701 85.3789 43.5401 85.138 44.0965 84.8582L45.8612 83.9707C46.4336 83.6827 46.9854 83.3816 47.5167 83.0676L49.1592 82.0971C49.5468 81.868 49.9783 81.7399 50.4372 81.7727C50.894 81.8054 51.3045 81.9919 51.661 82.2671L53.2145 83.4663C53.7012 83.842 54.2143 84.1816 54.7538 84.4849L56.4742 85.4518C56.9735 85.7325 57.502 85.9282 58.0625 86.0399L59.9947 86.4251C60.6761 86.561 61.3529 86.7462 62.0246 86.9799L63.9375 87.6454C64.4282 87.8161 64.9156 87.8392 65.4187 87.7157L67.3825 87.2332C68.0752 87.0631 68.7715 86.9454 69.4709 86.8806L71.4478 86.6975C72.0141 86.645 72.5533 86.4987 73.0693 86.2575L74.8699 85.4161C75.4379 85.1507 75.9842 84.8499 76.5084 84.5139L78.1719 83.4473C78.6846 83.1187 79.1623 82.7465 79.6048 82.3302L81.0418 80.9785C81.5072 80.5408 81.9589 80.0856 82.3968 79.6133L83.7484 78.1555C84.1576 77.7142 84.5145 77.2314 84.8189 76.7061L85.8221 74.9744C86.1085 74.4801 86.3001 73.9531 86.3989 73.3892L86.7448 71.4144C86.8696 70.7016 87.0663 70.0038 87.3334 69.3221L88.0757 67.4268C88.2853 66.8919 88.3864 66.3416 88.3805 65.7709L88.36 63.7429C88.3536 63.1229 88.2843 62.5116 88.152 61.9083L87.7188 59.9331C87.5817 59.3082 87.4063 58.6958 87.1926 58.0957L86.5167 56.198C86.3062 55.6071 86.0492 55.0365 85.7454 54.4865L84.7702 52.721C84.4217 52.09 84.1748 51.4889 84.0666 50.9285L83.8077 49.5887C83.6813 48.9339 83.8119 48.2307 84.0883 47.5234L84.826 45.6364C85.0792 44.9885 85.3534 44.3588 85.6486 43.7474L86.5064 41.9712C86.7605 41.445 86.9401 40.8948 87.046 40.3189L87.4033 38.3755C87.5138 37.7745 87.5707 37.1707 87.5745 36.5639L87.5871 34.5991C87.5913 33.9408 87.5994 33.2771 87.6117 32.608L87.648 30.6102C87.6588 30.0174 87.5911 29.4318 87.4444 28.8515L86.9511 26.9009C86.8115 26.3486 86.5779 25.8422 86.2479 25.3772L85.0829 23.7368C84.6708 23.1563 84.3043 22.5466 83.9836 21.9086L83.0772 20.1046C82.8315 19.6159 82.4938 19.2132 82.0581 18.8883L80.4468 17.6866C79.8987 17.2779 79.363 16.8569 78.8399 16.4235L77.3026 15.15C76.8461 14.7718 76.3477 14.4604 75.8056 14.2156L73.9821 13.3924C73.4062 13.1323 72.8149 12.91 72.208 12.7257L70.2872 12.1428C69.7241 11.9718 69.1501 11.8879 68.5625 11.8906L66.5575 11.8997C66.22 11.9013 65.9508 11.898 65.7578 11.8898C65.664 11.8858 65.5709 11.8801 65.4906 11.87C65.453 11.8652 65.3943 11.8566 65.3309 11.8398C65.2998 11.8315 65.2461 11.8156 65.1847 11.7874C65.1695 11.7804 65.1443 11.7675 65.1123 11.7488C64.9626 11.7578 64.7529 11.7743 64.4786 11.8009L62.4911 11.9934C61.8749 12.0532 61.2691 12.1657 60.6731 12.3306L58.7499 12.8627C58.1618 13.0254 57.5974 13.2452 57.0565 13.5231L55.2863 14.4324C54.7338 14.7162 54.2087 15.0405 53.7106 15.4049L52.1128 16.574C51.436 17.0693 50.6752 17.2987 49.8671 17.1653L48.1887 16.8881C47.4924 16.7731 46.833 16.484 46.2138 16.0478L44.6092 14.9177C44.1264 14.5776 43.61 14.2981 43.0593 14.079L41.2306 13.3515C40.624 13.1102 40.0076 12.8689 39.3814 12.6276L37.4946 11.9005C36.9679 11.6976 36.4271 11.608 35.866 11.6297Z" fill="black"/>
<path d="M67.3916 49.7105C67.3916 59.4755 59.4755 67.3916 49.7105 67.3916C39.9454 67.3916 32.0293 59.4755 32.0293 49.7105C32.0293 39.9454 39.9454 32.0293 49.7105 32.0293C59.4755 32.0293 67.3916 39.9454 67.3916 49.7105Z" fill="url(#paint1_radial_3647_3609)"/>
<path d="M35.1001 35.9806C34.5826 35.4434 34.5986 34.5883 35.1359 34.0708C35.6732 33.5533 36.5283 33.5694 37.0458 34.1066L43.8873 41.2098C44.4048 41.7471 44.3888 42.6021 43.8515 43.1196C43.3142 43.6371 42.4592 43.6211 41.9417 43.0838L35.1001 35.9806Z" fill="#7F9168"/>
<path d="M64.2574 62.5487C64.7527 63.1064 64.7021 63.9602 64.1444 64.4555C63.5866 64.9509 62.7329 64.9003 62.2376 64.3425L55.6886 56.9687C55.1933 56.411 55.2438 55.5573 55.8016 55.0619C56.3593 54.5665 57.2131 54.6171 57.7084 55.1749L64.2574 62.5487Z" fill="#7F9168"/>
<path d="M63.1992 34.4289C63.7585 33.9353 64.6121 33.9886 65.1057 34.5479C65.5993 35.1072 65.546 35.9607 64.9867 36.4543L57.5924 42.9801C57.0331 43.4737 56.1795 43.4205 55.6859 42.8612C55.1923 42.3018 55.2456 41.4483 55.8049 40.9547L63.1992 34.4289Z" fill="#7F9168"/>
<path d="M36.9453 62.6981C36.3785 63.183 35.5258 63.1167 35.0409 62.5498C34.5559 61.983 34.6223 61.1304 35.1891 60.6454L42.6829 54.2341C43.2498 53.7492 44.1024 53.8156 44.5873 54.3824C45.0723 54.9492 45.0059 55.8018 44.4391 56.2868L36.9453 62.6981Z" fill="#7F9168"/>
<defs>
<radialGradient id="paint0_radial_3647_3609" cx="0" cy="0" r="1" gradientUnits="userSpaceOnUse" gradientTransform="translate(49.7105 50.1245) rotate(90) scale(17.6812)">
<stop offset="0.552885" stop-color="#E1F6C5"/>
<stop offset="1" stop-color="#E1F6C5" stop-opacity="0"/>
</radialGradient>
<radialGradient id="paint1_radial_3647_3609" cx="0" cy="0" r="1" gradientUnits="userSpaceOnUse" gradientTransform="translate(49.7105 49.7105) rotate(90) scale(17.6812)">
<stop offset="0.552885" stop-color="#E1F6C5"/>
<stop offset="1" stop-color="#E1F6C5" stop-opacity="0"/>
</radialGradient>
</defs>
</svg>
