<svg width="100" height="100" viewBox="0 0 100 100" fill="none" xmlns="http://www.w3.org/2000/svg">
<path d="M75.9375 12C83.7039 12 89.9999 16.6171 90 22.3125C90 23.194 90.4901 24.0482 91.3203 24.3445C96.6194 26.2354 99.9997 29.1016 100 32.3125C100 33.9498 99.121 35.4977 97.557 36.8724C95.7172 38.4895 94.2495 40.5957 92.8532 42.6082C90.53 45.9565 85.7866 48.25 80.3125 48.25C78.2345 48.25 76.1604 48.7677 74.2941 49.6815C71.3344 51.1306 67.5553 52 63.4375 52C60.7588 52 58.2233 51.6323 55.9635 50.9764C53.7144 50.3237 51.2856 50.3237 49.0365 50.9764C46.7767 51.6323 44.2412 52 41.5625 52C37.627 52 34.0015 51.2051 31.1048 49.8694C29.359 49.0644 27.4479 48.5775 25.5316 48.7304C24.3426 48.8253 23.121 48.875 21.875 48.875C9.79384 48.875 0.000123544 44.2579 0 38.5625C0 34.5614 4.8337 31.0932 11.8982 29.3834C12.2655 29.2945 12.5 28.9404 12.5 28.5625C12.5 24.6601 17.7103 21.2961 25.2182 19.7614C27.4973 19.2955 29.5286 17.9154 31.4253 16.5685C35.288 13.8254 42.1627 12 50 12C54.3195 12 58.346 12.556 61.7372 13.514C64.3955 14.2649 67.2985 13.904 69.9067 12.9942C71.7343 12.3568 73.7791 12 75.9375 12Z" fill="#DBE6EC"/>
<path d="M45.9377 70.125C41.0298 69.6084 42.741 63.7538 44.7174 59.974C45.2792 58.8997 46.7223 58.8116 47.4428 59.7865C52.9303 67.2104 48.2539 70.3688 45.9377 70.125Z" fill="#DBE6EC"/>
<path d="M66.0733 74.484C60.4976 73.8388 62.5604 66.4217 64.8136 61.7853C65.3743 60.6315 66.9137 60.5382 67.6374 61.5974C73.9609 70.8507 68.6803 74.7856 66.0733 74.484Z" fill="#DBE6EC"/>
<path d="M34.0739 84.4866C31.0336 84.0102 31.684 79.1031 32.8362 75.3033C33.2724 73.8649 35.0976 73.7565 35.684 75.1405C38.5285 81.8546 35.5781 84.7223 34.0739 84.4866Z" fill="#DBE6EC"/>
<path d="M55.9489 86.9866C52.9086 86.5102 53.559 81.6031 54.7112 77.8033C55.1474 76.3649 56.9726 76.2565 57.559 77.6405C60.4035 84.3546 57.4531 87.2223 55.9489 86.9866Z" fill="#DBE6EC"/>
<path d="M19.4307 76.359C14.3712 75.7247 16.1255 68.5463 18.1623 63.8985C18.701 62.6693 20.3235 62.5758 21.0279 63.7182C26.625 72.7954 21.8158 76.6579 19.4307 76.359Z" fill="#DBE6EC"/>
<path d="M84.3488 67.611C80.8064 67.0929 81.7176 61.5845 83.0971 57.546C83.5672 56.1698 85.3356 56.0677 85.9646 57.3788C89.4908 64.7282 86.0741 67.8633 84.3488 67.611Z" fill="#DBE6EC"/>
<path d="M77.4738 80.111C73.9314 79.5929 74.8426 74.0845 76.2221 70.046C76.6922 68.6698 78.4606 68.5677 79.0896 69.8788C82.6158 77.2282 79.1991 80.3633 77.4738 80.111Z" fill="#DBE6EC"/>
</svg>
