<svg width="100" height="100" viewBox="0 0 100 100" fill="none" xmlns="http://www.w3.org/2000/svg">
<path d="M41.4893 47.3527C43.7493 46.4527 45.5193 45.4727 47.4293 44.4627C45.7793 48.3727 44.2793 51.6227 42.9593 55.6827C45.2093 54.5327 46.9493 53.8127 49.1893 52.6527C47.1393 58.4227 45.4193 64.3127 44.0393 70.2727C44.1193 69.9427 45.4793 68.9927 45.7493 68.5427C46.2293 67.7427 47.1293 66.7127 47.6593 65.8927C49.0393 63.7627 50.4393 61.7127 51.8193 59.5827C54.5193 55.4127 57.8493 50.9927 60.5493 46.8227C59.1993 47.2727 55.9893 47.9827 54.6393 48.4327C56.1893 44.8327 59.1393 41.1527 60.6893 37.5527C58.1393 38.7627 54.7793 39.5727 52.2293 40.6427C53.7493 36.7227 56.0793 33.1427 57.5993 29.2227C55.1593 29.8327 52.2493 30.2227 49.8093 30.8327C48.3793 31.1927 47.2293 31.4827 45.7793 31.7727C44.7093 31.9827 42.9093 38.4727 42.4393 39.4827C41.3093 41.9027 40.7293 43.6727 39.9993 46.2827C39.8993 46.6527 39.3593 47.7227 39.6793 47.9127C39.8793 48.0327 40.1393 47.9727 40.3593 47.9127C40.5493 47.8527 41.2893 47.4327 41.4693 47.3627L41.4893 47.3527Z" fill="#FFE557"/>
<path d="M45.0495 31.4837C43.2895 35.7237 41.6795 40.0337 40.2295 44.3837C39.8095 45.6337 39.4095 46.8837 39.0195 48.1337C38.9095 48.4737 39.2895 48.6837 39.5695 48.5537C42.2895 47.3037 45.0095 46.0537 47.7395 44.8037L47.1895 44.3837C45.5495 48.3237 43.9095 52.2537 42.2595 56.1937C42.1395 56.4837 42.5595 56.8037 42.8095 56.6137C44.9195 55.0637 47.2095 53.7637 49.6195 52.7637L49.1595 52.3037C47.6595 56.5037 46.3095 60.7537 45.1095 65.0437C44.7695 66.2537 44.4395 67.4637 44.1295 68.6837C44.0095 69.1537 44.7295 69.3537 44.8495 68.8837C45.9695 64.5737 47.2395 60.2937 48.6495 56.0737C49.0495 54.8837 49.4595 53.6937 49.8795 52.5137C49.9695 52.2637 49.6795 51.9437 49.4195 52.0537C46.9395 53.0837 44.5895 54.3837 42.4295 55.9837L42.9795 56.4037C44.6195 52.4637 46.2595 48.5337 47.9095 44.5937C48.0495 44.2537 47.6195 44.0537 47.3595 44.1737C44.6395 45.4237 41.9195 46.6737 39.1895 47.9237L39.7395 48.3437C41.1095 43.9637 42.6195 39.6237 44.2995 35.3437C44.7795 34.1237 45.2695 32.9037 45.7695 31.6837C45.9495 31.2337 45.2295 31.0437 45.0495 31.4837Z" fill="#FF9A21"/>
<path d="M44.8693 32.3929C49.1493 31.2229 53.5093 30.3329 57.9093 29.7529L57.5893 29.1929C55.6393 32.9729 53.6793 36.7429 51.7293 40.5229C51.5893 40.7929 51.8293 41.1929 52.1493 41.0729C55.0893 40.0529 58.0193 39.0329 60.9593 38.0029L60.5393 37.4529C58.4293 41.0729 56.3093 44.6929 54.1993 48.3029C53.9993 48.6529 54.3893 48.9629 54.7093 48.8129C56.6693 47.9329 58.7493 47.3429 60.8693 47.0429L60.4493 46.4929C56.0293 52.7129 51.6793 58.9829 47.4093 65.2929C46.2093 67.0629 45.0293 68.8329 43.8393 70.6029C43.5693 71.0029 44.2193 71.3829 44.4893 70.9829C48.7293 64.6429 53.0293 58.3429 57.4093 52.0929C58.6293 50.3429 59.8593 48.6029 61.0993 46.8629C61.3093 46.5629 60.9593 46.2729 60.6793 46.3129C58.4893 46.6229 56.3593 47.2529 54.3393 48.1629L54.8493 48.6729C56.9593 45.0529 59.0793 41.4329 61.1893 37.8229C61.3493 37.5529 61.0793 37.1629 60.7693 37.2729C57.8293 38.2929 54.8993 39.3129 51.9593 40.3429L52.3793 40.8929C54.3293 37.1129 56.2893 33.3429 58.2393 29.5629C58.3593 29.3429 58.2193 28.9629 57.9193 29.0029C53.4493 29.5929 49.0293 30.4829 44.6793 31.6729C44.2093 31.8029 44.4093 32.5229 44.8793 32.3929H44.8693Z" fill="#FF9A21"/>
</svg>
