<svg width="100" height="100" viewBox="0 0 100 100" fill="none" xmlns="http://www.w3.org/2000/svg">
<path d="M78.3888 13.9188L79.274 14.4903L80.1711 15.0694C80.8306 15.4951 81.4293 15.9969 81.9659 16.5731L82.6972 17.3583L83.4285 18.1439C83.928 18.6804 84.4144 19.2355 84.8873 19.8091L85.5797 20.6494L86.273 21.4902C86.8054 22.136 87.2006 22.8604 87.4561 23.6576L88.1212 25.7332C88.3488 26.4436 88.551 27.1562 88.7272 27.8707L88.9841 28.9127L89.241 29.9552C89.4216 30.6876 89.5534 31.4299 89.6359 32.1817L89.8706 34.3218C89.954 35.0809 89.978 35.8437 89.9415 36.6089L89.8898 37.6886L89.8385 38.7678C89.8021 39.534 89.7045 40.2922 89.5466 41.0417L89.3248 42.0978L89.1025 43.1531C88.9465 43.8941 88.7431 44.6208 88.4926 45.3326L88.1357 46.346L87.7792 47.3594C87.5264 48.0777 87.2197 48.7704 86.8603 49.4362L85.8477 51.3118C85.523 51.9133 85.2225 52.5364 84.9467 53.1809L84.0889 55.1859C83.7603 55.9537 83.3022 56.6379 82.7181 57.2341L81.956 58.0129L81.1944 58.7908C80.6567 59.3397 80.0814 59.8478 79.4689 60.3145L78.5999 60.9762L77.7314 61.6378C77.0823 62.1324 76.3734 62.52 75.6076 62.7987L74.5835 63.1714L73.5594 63.5437C72.6825 63.8628 71.7958 63.8586 70.947 63.5014L69.9977 63.1017L69.0483 62.7025C68.2723 62.3759 67.6156 61.8657 67.0839 61.1899L65.7508 59.4952C65.2834 58.901 64.8581 58.2828 64.4758 57.641L63.3876 55.8146C63.0283 55.2116 62.6585 54.6064 62.278 53.9998L61.7018 53.0821L61.1257 52.1636C60.7006 51.486 60.3713 50.7632 60.1379 49.9974L59.8212 48.9592L59.5049 47.9219C59.2719 47.1575 59.1405 46.3749 59.1112 45.5766L59.0317 43.4083C59.0049 42.676 58.9906 41.9481 58.9886 41.225L58.9856 40.1556L58.9826 39.0858C58.9806 38.3781 58.9664 37.859 58.9424 37.5172L58.9035 36.9598L58.8646 36.402C58.8514 36.2141 58.842 36.0627 58.8381 35.9545C58.8363 35.9039 58.835 35.8442 58.8368 35.7895C58.8375 35.769 58.8397 35.7099 58.8518 35.6412C58.8561 35.6168 58.8731 35.5211 58.9253 35.4113C58.9271 35.4076 58.9296 35.4035 58.9317 35.3993C58.9523 35.2277 58.9805 34.9698 59.0163 34.6227L59.1275 33.5443L59.2386 32.4655C59.3246 31.6313 59.5689 30.8412 59.9691 30.1023L60.4875 29.1453L61.0056 28.1883C61.3362 27.5778 61.6304 26.9575 61.8873 26.3273L62.2908 25.3365L62.6943 24.3466C62.9847 23.6342 63.3431 22.9504 63.7684 22.2963L64.9558 20.4703C65.4116 19.7694 65.9825 19.175 66.6642 18.691L67.5524 18.0601L68.4401 17.4297C69.0217 17.0167 69.5933 16.5921 70.1545 16.1559L71.8685 14.8241C72.5306 14.3096 73.2483 13.9577 74.0188 13.7966L74.0611 13.7876V5.74609H79.751L78.3888 13.9188Z" fill="#8AC97E"/>
<path d="M75.2136 5.52031C75.8586 5.02866 76.6157 4.86672 77.3986 5.11512L78.8664 5.58101C79.3235 5.7261 79.6938 6.02602 79.9152 6.46662C80.1213 6.87672 80.165 7.34076 80.1341 7.78778L79.9845 9.94583C79.9337 10.6803 79.8683 11.3151 79.7862 11.8453L79.5549 13.3391C79.5399 13.4364 79.5242 13.5268 79.5101 13.6101C79.59 13.6633 79.678 13.7231 79.7755 13.7875L81.5848 14.9821C82.2794 15.4407 82.868 16.0124 83.3462 16.6931L84.5912 18.4656C84.985 19.0262 85.4125 19.5596 85.8739 20.0659L87.3331 21.667C87.8954 22.284 88.3235 22.987 88.6141 23.7708L89.3685 25.8066C89.6423 26.5451 89.8329 27.3046 89.9396 28.0839L90.2336 30.2312C90.3333 30.9591 90.4174 31.6861 90.4858 32.4119L90.6875 34.5525C90.7566 35.2844 90.8024 36.0213 90.8256 36.7631L90.8936 38.9344C90.9186 39.7371 90.8358 40.5295 90.6452 41.3096L90.1298 43.4193C89.9415 44.1897 89.6654 44.927 89.3018 45.6299L88.3068 47.5533C88.0015 48.1436 87.7558 48.7592 87.5695 49.4007L86.963 51.4886C86.7441 52.2422 86.4509 52.9642 86.0838 53.6531L85.0687 55.5585C84.7066 56.2379 84.2868 56.885 83.8103 57.4999L82.4704 59.2288C81.9547 59.8941 81.3304 60.4407 80.6021 60.8645L78.7086 61.9668C78.0577 62.3457 77.4003 62.6941 76.7365 63.0119L74.8101 63.9338C74.0136 64.3152 73.1686 64.4469 72.2969 64.3228L70.1995 64.024C69.3472 63.9026 68.5671 63.5701 67.8692 63.0405L66.1172 61.7112C65.4074 61.1726 64.8802 60.4827 64.5452 59.6558L63.7168 57.611C63.4815 57.0302 63.1509 56.5153 62.7222 56.0616L61.2113 54.4622C60.6171 53.8332 60.1872 53.1027 59.9278 52.2789L59.2691 50.1875C59.0432 49.4702 58.845 48.7494 58.6741 48.0252L58.1766 45.9159C57.9851 45.1039 57.9513 44.2805 58.0749 43.4518L58.3967 41.2929C58.4866 40.6903 58.4555 40.092 58.3014 39.4913L57.753 37.3538C57.539 36.5196 57.5081 35.6742 57.6603 34.8264L58.0501 32.6539C58.1945 31.8493 58.4471 31.0831 58.8075 30.3582L59.776 28.4096C60.0894 27.7791 60.3777 27.1423 60.6403 26.499L61.4524 24.5081C61.7571 23.7614 62.1699 23.0743 62.688 22.4488L64.0742 20.775C64.5481 20.2028 65.033 19.6548 65.5287 19.1311L66.9751 17.6039C67.4888 17.0613 68.0469 16.5569 68.6493 16.0913L70.3521 14.7753C70.8936 14.3567 71.3841 13.9284 71.825 13.4913L73.2308 12.0975C73.4709 11.8594 73.5795 11.5696 73.4954 11.1003L73.109 8.94695C72.9445 8.02925 73.1182 7.1182 73.9027 6.52005L75.2136 5.52031ZM76.869 6.78377C76.6736 6.72179 76.5044 6.73824 76.2753 6.91285L74.964 7.91216C74.8746 7.98036 74.7396 8.12026 74.8324 8.63792L75.2183 10.7913C75.3915 11.7574 75.16 12.6499 74.4631 13.3408L73.0577 14.7347C72.5616 15.2265 72.0162 15.7014 71.4228 16.1601L69.7204 17.4761C69.1878 17.8878 68.6965 18.3315 68.2462 18.8071L66.8003 20.3347C66.332 20.8294 65.8728 21.3485 65.4227 21.8918L64.0366 23.5656C63.6307 24.0556 63.3104 24.5895 63.0736 25.1697L62.261 27.1602C61.982 27.8439 61.6762 28.5202 61.3438 29.1888L60.3748 31.1378C60.0894 31.712 59.889 32.3197 59.7735 32.9633L59.3832 35.1359C59.2755 35.7364 59.2975 36.3278 59.449 36.9187L59.9974 39.0566C60.2089 39.8811 60.253 40.7151 60.1282 41.5515L59.8064 43.71C59.7153 44.3204 59.7402 44.92 59.8803 45.5141L60.3778 47.6234C60.5387 48.3053 60.7259 48.9846 60.939 49.6614L61.5977 51.7527C61.7773 52.3231 62.0711 52.8231 62.4842 53.2603L63.9951 54.8592C64.5737 55.4717 65.0225 56.1716 65.3393 56.9536L66.1677 58.9984C66.3848 59.5342 66.7176 59.969 67.1755 60.3166L68.9275 61.6458C69.3975 62.0025 69.9002 62.213 70.4462 62.2908L72.5439 62.5896C73.0705 62.6646 73.567 62.5883 74.0545 62.3549L75.9804 61.4326C76.6007 61.1356 77.2168 60.8096 77.8282 60.4538L79.7216 59.3514C80.2558 59.0406 80.7093 58.6435 81.0868 58.1564L82.4263 56.4275C82.843 55.8898 83.2087 55.3257 83.5235 54.7349L84.5391 52.8294C84.8489 52.2481 85.0966 51.6387 85.2819 51.0005L85.888 48.9125C86.1059 48.1622 86.394 47.4407 86.7519 46.7489L87.7469 44.8255C88.0465 44.2463 88.2737 43.6393 88.4291 43.0034L88.9445 40.8941C89.0975 40.2679 89.1638 39.6336 89.1437 38.9891L89.0757 36.8178C89.0537 36.1123 89.0101 35.4121 88.9445 34.717L88.7428 32.5765C88.6767 31.8753 88.5955 31.1726 88.4991 30.4689L88.2051 28.3211C88.1158 27.6688 87.9566 27.0339 87.7272 26.4152L86.9724 24.3794C86.7598 23.806 86.4498 23.2967 86.0393 22.8463L84.5801 21.2451C84.0688 20.6841 83.5948 20.0929 83.1585 19.4718L81.9134 17.6993C81.5616 17.1983 81.1321 16.7808 80.6205 16.4431L78.8108 15.2484C78.5086 15.0489 78.2808 14.8967 78.1308 14.7936C78.058 14.7437 77.9936 14.6984 77.9461 14.6629C77.9301 14.6509 77.8843 14.6169 77.8397 14.5752C77.8267 14.563 77.8025 14.5394 77.7752 14.5081C77.7608 14.4917 77.6859 14.4079 77.6298 14.279C77.6022 14.2155 77.5428 14.0598 77.5606 13.8537C77.5766 13.6692 77.6521 13.4903 77.7794 13.3472C77.7928 13.27 77.8081 13.1783 77.8247 13.0711L78.056 11.5773C78.1281 11.1117 78.1893 10.5291 78.238 9.82487L78.3876 7.66682C78.4062 7.39897 78.3656 7.28398 78.3513 7.25436C78.3477 7.2529 78.3428 7.25157 78.3368 7.24966L76.869 6.78377Z" fill="black"/>
<path d="M75.6822 24.7709C75.6997 24.659 75.8045 24.5825 75.9164 24.6C76.0283 24.6175 76.1048 24.7224 76.0873 24.8343L71.434 54.5786C71.4165 54.6905 71.3116 54.767 71.1998 54.7495C71.0879 54.732 71.0114 54.6271 71.0289 54.5153L75.6822 24.7709Z" fill="#C3EFBA"/>
<path d="M75.8105 24.053C76.0384 24.0143 76.2264 24.1012 76.3402 24.1956C76.4373 24.2762 76.4865 24.3642 76.506 24.4023C76.529 24.4475 76.5418 24.4863 76.5486 24.5085C76.5623 24.5527 76.5685 24.5889 76.5709 24.6041L76.5787 24.6785L76.5923 24.9125C76.5985 25.0196 76.5799 25.122 76.5713 25.1683C76.5592 25.233 76.5422 25.3062 76.5224 25.3839C76.5186 25.399 76.5137 25.4144 76.5095 25.4304L76.3986 26.8476C76.3608 27.3294 76.3294 27.8225 76.3039 28.3266L76.2265 29.8559C76.198 30.4182 76.1028 30.9705 75.9415 31.5115L75.5025 32.9847C75.3634 33.4513 75.2523 33.9219 75.1696 34.3966L74.908 35.8971C74.8188 36.4087 74.7159 36.9184 74.5996 37.4258L74.2587 38.9138C74.1588 39.3496 74.1203 39.7962 74.1441 40.2548L74.2246 41.8088C74.2537 42.37 74.2275 42.9244 74.1449 43.471L73.9176 44.9769C73.8406 45.4871 73.7539 45.996 73.6576 46.5031L73.3732 48.0005C73.281 48.4856 73.2045 48.9732 73.1439 49.4632L72.9571 50.9754C72.8944 51.4822 72.8277 51.994 72.7576 52.5103L72.5486 54.0515C72.5296 54.1907 72.5056 54.3274 72.4717 54.4431C72.4553 54.4991 72.4287 54.5779 72.3845 54.6574C72.353 54.7142 72.2447 54.8996 72.0091 54.9885C71.6946 55.1071 71.4318 54.9668 71.3062 54.8552C71.1998 54.7606 71.1423 54.6527 71.1167 54.601C71.0592 54.4846 71.0189 54.3471 70.9884 54.2262L70.6522 52.8909C70.5059 52.3095 70.5453 51.7143 70.7438 51.1219L71.2347 49.6569C71.3755 49.237 71.4445 48.8075 71.442 48.3655L71.4328 46.8226C71.4295 46.2409 71.5142 45.6714 71.6872 45.1168L72.1456 43.6467C72.2807 43.2133 72.3554 42.7716 72.3696 42.3198L72.4175 40.7855C72.4343 40.252 72.478 39.7225 72.5484 39.197L72.7505 37.6868C72.8203 37.1652 72.912 36.6468 73.0257 36.1322L73.3548 34.6422C73.463 34.1524 73.5633 33.6613 73.6554 33.169L73.9355 31.6714C74.0258 31.1886 74.0974 30.7029 74.1505 30.2142L74.3149 28.6985C74.3743 28.1523 74.4846 27.614 74.6453 27.0846L75.0922 25.6131C75.1417 25.4503 75.1807 25.314 75.2113 25.2035C75.2276 24.998 75.2403 24.8434 75.2507 24.7437C75.2554 24.6992 75.2625 24.6327 75.2733 24.5798C75.2751 24.5711 75.285 24.5221 75.3068 24.4656C75.3117 24.4528 75.3491 24.3493 75.4421 24.2506C75.4921 24.1976 75.6132 24.0865 75.8105 24.053Z" fill="#C3EFBA"/>
<path d="M72.1825 32.5671C72.2624 32.4869 72.3922 32.4867 72.4724 32.5666C72.5526 32.6465 72.5528 32.7763 72.4729 32.8565L66.4584 38.8939C66.3785 38.9741 66.2487 38.9744 66.1685 38.8945C66.0883 38.8146 66.0881 38.6848 66.168 38.6046L72.1825 32.5671Z" fill="#C3EFBA"/>
<path d="M72.7482 31.7124C72.9959 31.7903 73.1356 31.9874 73.1849 32.1638C73.2234 32.3019 73.2062 32.4156 73.1993 32.4551C73.1949 32.4807 73.1894 32.5035 73.1841 32.5225L73.1696 32.5679L73.1432 32.6417L73.117 32.7152C73.0767 32.8278 73.0049 32.9236 72.9917 32.9421C72.9589 32.9881 72.9185 33.0412 72.8736 33.0976C72.7827 33.2118 72.6554 33.3642 72.4948 33.5523L71.541 34.6697C71.2272 35.0373 70.912 35.4178 70.5951 35.8106L69.6335 37.0023C69.2754 37.4461 68.8686 37.8272 68.4135 38.1429L67.2088 38.9784C67.1038 39.0512 67.0043 39.1164 66.9197 39.1633C66.8811 39.1847 66.819 39.2175 66.7472 39.2419C66.7133 39.2535 66.6444 39.2748 66.5569 39.2804C66.4842 39.285 66.2748 39.287 66.0824 39.1262C65.8611 38.9412 65.8366 38.6938 65.8453 38.5673C65.8534 38.4503 65.8901 38.3623 65.9065 38.326C65.9425 38.2459 65.9892 38.1812 66.014 38.1477C66.0717 38.07 66.1497 37.9813 66.2336 37.891L67.1969 36.8543C67.5349 36.4908 67.904 36.135 68.3035 35.7866L69.4543 34.7828C69.8111 34.4716 70.1561 34.1196 70.4889 33.726L71.5471 32.4748C71.724 32.2657 71.8608 32.1075 71.9533 32.0059C71.9948 31.9603 72.045 31.9066 72.0908 31.8654C72.1035 31.854 72.1247 31.8352 72.1515 31.8154C72.1622 31.8075 72.238 31.7494 72.3493 31.7138C72.4004 31.6975 72.5573 31.6525 72.7482 31.7124Z" fill="#C3EFBA"/>
<path d="M70.5916 41.782C70.6716 41.7017 70.8014 41.7015 70.8816 41.7814C70.9618 41.8613 70.962 41.9911 70.8821 42.0713L64.8676 48.1088C64.7877 48.189 64.6579 48.1892 64.5777 48.1093C64.4975 48.0294 64.4973 47.8996 64.5772 47.8194L70.5916 41.782Z" fill="#C3EFBA"/>
<path d="M71.1574 40.9273C71.4051 41.0051 71.5448 41.2023 71.5941 41.3786C71.6326 41.5168 71.6154 41.6304 71.6085 41.6699C71.6041 41.6955 71.5986 41.7183 71.5932 41.7373L71.5788 41.7827L71.5524 41.8565L71.5262 41.93C71.4859 42.0427 71.4141 42.1384 71.4009 42.1569C71.3681 42.203 71.3277 42.256 71.2827 42.3125C71.1919 42.4267 71.0645 42.5791 70.904 42.7672L69.9502 43.8845C69.6364 44.2522 69.3212 44.6327 69.0042 45.0254L68.0427 46.2172C67.6846 46.6609 67.2778 47.0421 66.8226 47.3577L65.618 48.1933C65.513 48.2661 65.4135 48.3313 65.3288 48.3782C65.2902 48.3996 65.2281 48.4323 65.1564 48.4568C65.1225 48.4683 65.0535 48.4897 64.9661 48.4952C64.8934 48.4998 64.684 48.5019 64.4916 48.3411C64.2703 48.1561 64.2457 47.9086 64.2545 47.7821C64.2625 47.6651 64.2993 47.5772 64.3157 47.5408C64.3517 47.4607 64.3984 47.3961 64.4232 47.3626C64.4809 47.2848 64.5589 47.1961 64.6428 47.1059L65.6061 46.0692C65.944 45.7056 66.3132 45.3498 66.7127 45.0014L67.8635 43.9976C68.2202 43.6864 68.5653 43.3344 68.8981 42.9408L69.9563 41.6897C70.1331 41.4805 70.27 41.3223 70.3625 41.2208C70.404 41.1752 70.4542 41.1215 70.5 41.0803C70.5127 41.0689 70.5339 41.0501 70.5607 41.0303C70.5714 41.0224 70.6472 40.9642 70.7584 40.9287C70.8095 40.9123 70.9665 40.8673 71.1574 40.9273Z" fill="#C3EFBA"/>
<path d="M76.6847 38.28C76.6048 38.1998 76.475 38.1995 76.3948 38.2794C76.3146 38.3593 76.3143 38.4891 76.3943 38.5694L82.4087 44.6068C82.4886 44.687 82.6184 44.6873 82.6987 44.6074C82.7789 44.5275 82.7791 44.3977 82.6992 44.3175L76.6847 38.28Z" fill="#C3EFBA"/>
<path d="M76.119 37.4253C75.8712 37.5032 75.7315 37.7003 75.6823 37.8766C75.6437 38.0148 75.661 38.1285 75.6678 38.168C75.6723 38.1936 75.6778 38.2163 75.6831 38.2354L75.6975 38.2808L75.724 38.3546L75.7502 38.428C75.7905 38.5407 75.8623 38.6365 75.8755 38.655C75.9083 38.701 75.9487 38.7541 75.9936 38.8105C76.0845 38.9247 76.2118 39.0771 76.3724 39.2652L77.3262 40.3826C77.64 40.7502 77.9552 41.1307 78.2721 41.5235L79.2337 42.7152C79.5918 43.159 79.9986 43.5401 80.4537 43.8557L81.6584 44.6913C81.7634 44.7641 81.8629 44.8293 81.9475 44.8762C81.9861 44.8976 82.0482 44.9304 82.12 44.9548C82.1539 44.9664 82.2228 44.9877 82.3103 44.9933C82.383 44.9979 82.5924 44.9999 82.7848 44.8391C83.0061 44.6541 83.0306 44.4067 83.0219 44.2801C83.0138 44.1632 82.9771 44.0752 82.9607 44.0388C82.9247 43.9588 82.878 43.8941 82.8532 43.8606C82.7955 43.7829 82.7175 43.6942 82.6336 43.6039L81.6703 42.5672C81.3323 42.2037 80.9632 41.8479 80.5637 41.4994L79.4129 40.4957C79.0561 40.1845 78.7111 39.8325 78.3783 39.4389L77.3201 38.1877C77.1432 37.9786 77.0064 37.8204 76.9139 37.7188C76.8724 37.6732 76.8221 37.6195 76.7763 37.5783C76.7637 37.5669 76.7425 37.5481 76.7157 37.5283C76.705 37.5204 76.6292 37.4623 76.5179 37.4267C76.4668 37.4104 76.3099 37.3654 76.119 37.4253Z" fill="#C3EFBA"/>
<path d="M32.5769 41.582L33.6267 41.6728L34.6905 41.7647C35.4725 41.8323 36.2365 41.9955 36.9803 42.2537L37.994 42.6053L39.008 42.9574C39.7005 43.1977 40.3901 43.4606 41.0765 43.7463L42.0816 44.1649L43.0878 44.5834C43.8605 44.9051 44.5487 45.3603 45.1476 45.9452L46.7067 47.4682C47.2403 47.9895 47.7526 48.5247 48.2426 49.0736L48.9573 49.8743L49.6722 50.6754C50.1745 51.2381 50.6384 51.8325 51.0631 52.4582L52.272 54.2396C52.701 54.8715 53.0791 55.5344 53.4051 56.2277L53.8646 57.206L54.3244 58.1838C54.6507 58.8779 54.9192 59.5937 55.1305 60.3299L55.4287 61.3671L55.7262 62.4037C55.935 63.1316 56.0954 63.869 56.2071 64.6152L56.3659 65.6778L56.5251 66.7402C56.6378 67.4933 56.691 68.249 56.6849 69.0057L56.6678 71.137C56.6623 71.8205 56.6884 72.5118 56.7463 73.2104L56.9265 75.3838C56.9954 76.2161 56.9107 77.0351 56.6736 77.8354L56.3646 78.8802L56.0555 79.9241C55.8372 80.6609 55.5666 81.3791 55.2437 82.0783L54.7854 83.0696L54.3275 84.0608C53.9853 84.8016 53.5402 85.4759 52.9938 86.0806L52.2632 86.8893L51.5324 87.6975C50.9068 88.3898 50.1212 88.8011 49.2039 88.8827L48.178 88.9738L47.1522 89.0652C46.3135 89.1397 45.4944 88.9962 44.7083 88.6477L42.737 87.7739C42.0459 87.4676 41.3808 87.1203 40.7426 86.732L38.9262 85.6272C38.3265 85.2624 37.7164 84.9006 37.0963 84.5427L36.1576 84.0013L35.2186 83.4592C34.5259 83.0593 33.8966 82.5746 33.332 82.0071L32.5662 81.2378L31.8012 80.4691C31.2376 79.9027 30.7553 79.2725 30.3558 78.5807L29.2708 76.7017C28.9044 76.0672 28.5511 75.4306 28.211 74.7925L27.7078 73.8488L27.2045 72.9048C26.8716 72.2803 26.6161 71.8281 26.4349 71.5373L26.1397 71.0629L25.8443 70.5882C25.7447 70.4283 25.6656 70.2989 25.6115 70.2051C25.5862 70.1613 25.5571 70.1091 25.5332 70.0599C25.5242 70.0415 25.4984 69.9882 25.477 69.9218C25.4693 69.8982 25.4396 69.8057 25.4343 69.6842C25.4342 69.6802 25.4345 69.6754 25.4344 69.6706C25.3723 69.5094 25.2765 69.2682 25.1457 68.9447L24.7393 67.9397L24.3326 66.9343C24.0183 66.1568 23.8644 65.3443 23.8722 64.504L23.8826 63.4156L23.8925 62.3275C23.899 61.6332 23.8688 60.9473 23.8009 60.2702L23.6938 59.2058L23.5871 58.1421C23.5104 57.3767 23.5071 56.6046 23.5768 55.8275L23.7716 53.6582C23.8464 52.8255 24.0728 52.033 24.4487 51.2862L24.9384 50.313L25.4279 49.3404C25.7486 48.7033 26.055 48.0606 26.3469 47.4125L27.2383 45.4334C27.5827 44.6688 28.0523 44.022 28.6578 43.519L28.691 43.4913L24.9278 36.3847L29.9561 33.722L32.5769 41.582Z" fill="#8AC97E"/>
<path d="M25.8399 35.6422C26.1798 34.9059 26.7731 34.4085 27.5812 34.2616L29.0964 33.9865C29.5683 33.9007 30.0359 33.9925 30.4378 34.2783C30.8118 34.5443 31.0676 34.9339 31.2494 35.3434L32.1272 37.3206C32.426 37.9934 32.6653 38.5851 32.8408 39.092L33.3355 40.5204C33.3677 40.6134 33.3962 40.7007 33.4227 40.7809C33.5182 40.7905 33.624 40.8022 33.7403 40.8134L35.8983 41.0225C36.7267 41.1027 37.5144 41.3324 38.2556 41.7102L40.1854 42.694C40.7957 43.0051 41.4231 43.2764 42.0679 43.5079L44.1067 44.24C44.8923 44.5221 45.5997 44.9431 46.2233 45.4997L47.8427 46.9458C48.4303 47.4703 48.9541 48.0523 49.4131 48.6911L50.6779 50.4512C51.1066 51.0478 51.5211 51.6509 51.9213 52.2604L53.1013 54.0576C53.5048 54.6721 53.8902 55.302 54.2578 55.9466L55.334 57.8337C55.7318 58.5313 56.0294 59.2704 56.226 60.0489L56.7578 62.1546C56.952 62.9235 57.0531 63.7044 57.0607 64.4957L57.0814 66.6611C57.0879 67.3257 57.1588 67.9846 57.2944 68.6387L57.7355 70.7678C57.8948 71.5362 57.9735 72.3115 57.9714 73.092L57.966 75.251C57.964 76.0208 57.8959 76.7892 57.7625 77.5555L57.3874 79.7105C57.2431 80.5398 56.9471 81.315 56.5019 82.0304L55.3444 83.8907C54.9464 84.5301 54.5285 85.1457 54.0906 85.7371L52.8196 87.4534C52.2941 88.1632 51.609 88.675 50.7806 88.9733L48.7873 89.6907C47.9773 89.9823 47.1322 90.0536 46.2676 89.9121L44.0973 89.5573C43.2179 89.4134 42.4292 89.0505 41.7461 88.4765L40.0571 87.0571C39.5773 86.6539 39.0442 86.3536 38.453 86.1533L36.3693 85.4469C35.5498 85.1691 34.8281 84.7247 34.2132 84.1181L32.6524 82.5781C32.1171 82.0499 31.6046 81.5057 31.1147 80.9456L29.6879 79.3144C29.1386 78.6864 28.7235 77.9745 28.4449 77.1844L27.719 75.1258C27.5164 74.5512 27.2089 74.037 26.7916 73.5783L25.3067 71.9459C24.7272 71.3088 24.3042 70.5762 24.042 69.7558L23.3697 67.6534C23.1209 66.8748 22.9855 66.0794 22.9648 65.2702L22.9088 63.0949C22.8907 62.391 22.8475 61.6933 22.7784 61.002L22.5644 58.8625C22.4843 58.06 22.5276 57.2595 22.6927 56.4643L23.1344 54.3364C23.2855 53.6089 23.4575 52.8977 23.6505 52.203L24.2141 50.1765C24.4141 49.4565 24.6713 48.7496 24.9857 48.0562L25.8747 46.0963C26.1574 45.473 26.3904 44.865 26.5755 44.2723L27.1656 42.3826C27.2663 42.0599 27.2267 41.753 26.9327 41.3776L25.5836 39.6554C25.0087 38.9214 24.7358 38.035 25.1493 37.1392L25.8399 35.6422ZM27.8941 35.9841C27.6924 36.0208 27.5506 36.1145 27.4299 36.376L26.7386 37.8728C26.6915 37.9749 26.6377 38.1618 26.9619 38.5758L28.3107 40.2982C28.9159 41.071 29.129 41.9681 28.8364 42.9048L28.2468 44.7942C28.0385 45.461 27.7788 46.136 27.469 46.8191L26.5804 48.7788C26.3024 49.3918 26.0758 50.0139 25.9005 50.6449L25.3375 52.6716C25.1552 53.3279 24.9923 54.0015 24.8488 54.6923L24.4071 56.8202C24.2777 57.4432 24.2445 58.0649 24.3068 58.6885L24.5202 60.8278C24.5936 61.5626 24.6398 62.3034 24.6589 63.0498L24.7147 65.2257C24.7312 65.8667 24.8385 66.4975 25.0376 67.1204L25.7094 69.223C25.8952 69.8041 26.1914 70.3164 26.6019 70.7677L28.087 72.4005C28.6597 73.0301 29.089 73.7465 29.3702 74.5441L30.0959 76.6022C30.3011 77.1843 30.6036 77.7025 31.0055 78.162L32.4323 79.7933C32.8936 80.3206 33.3769 80.8333 33.882 81.3317L35.4428 82.8716C35.8685 83.2916 36.3621 83.596 36.9317 83.789L39.0152 84.495C39.8131 84.7655 40.5373 85.174 41.1833 85.7168L42.8723 87.1362C43.3149 87.5082 43.8125 87.7367 44.3798 87.8295L46.5502 88.1843C47.1324 88.2796 47.6753 88.2304 48.1941 88.0436L50.1878 87.326C50.6883 87.1458 51.0913 86.8461 51.4129 86.4117L52.6833 84.6953C53.0925 84.1426 53.4844 83.5661 53.8582 82.9655L55.0157 81.1053C55.3422 80.5806 55.5572 80.0175 55.6629 79.4103L56.0376 77.2555C56.1542 76.5854 56.2133 75.9157 56.2151 75.2462L56.2209 73.087C56.2226 72.4283 56.1563 71.7739 56.0215 71.1231L55.58 68.9942C55.4214 68.2292 55.3383 67.4568 55.3308 66.6779L55.3101 64.5125C55.3038 63.8604 55.2205 63.2176 55.0602 62.583L54.5286 60.4777C54.3708 59.8527 54.1325 59.2611 53.8132 58.7009L52.737 56.8139C52.3874 56.2007 52.0211 55.6023 51.6379 55.0187L50.4579 53.2215C50.0713 52.6328 49.6707 52.0498 49.2563 51.4729L47.9913 49.7125C47.6071 49.1778 47.1693 48.6912 46.677 48.2518L45.0573 46.8059C44.601 46.3986 44.0887 46.0936 43.5152 45.8876L41.4763 45.1556C40.7619 44.899 40.0663 44.5984 39.3901 44.2536L37.4603 43.2699C36.9149 42.9918 36.34 42.8239 35.7298 42.7648L33.5714 42.5559C33.211 42.5211 32.9384 42.4931 32.7576 42.4723C32.67 42.4622 32.5918 42.4523 32.5332 42.4431C32.5135 42.44 32.4571 42.4315 32.3982 42.4155C32.381 42.4108 32.3485 42.4012 32.3097 42.3864C32.2894 42.3786 32.1839 42.3396 32.0741 42.2519C32.0199 42.2087 31.8946 42.0989 31.8139 41.9085C31.7416 41.7379 31.7247 41.5445 31.7702 41.3585C31.7459 41.2839 31.7166 41.1958 31.6811 41.0933L31.1863 39.6649C31.0322 39.2197 30.8137 38.6762 30.5271 38.031L29.6494 36.0538C29.5405 35.8084 29.4508 35.7258 29.4243 35.7063C29.4204 35.7067 29.4155 35.7078 29.4093 35.709L27.8941 35.9841Z" fill="black"/>
<path d="M35.2631 52.436C35.2262 52.329 35.2831 52.2123 35.3901 52.1754C35.4971 52.1385 35.6138 52.1954 35.6507 52.3024L45.4582 80.7663C45.4951 80.8734 45.4382 80.9901 45.3312 81.0269C45.2241 81.0638 45.1074 81.007 45.0706 80.8999L35.2631 52.436Z" fill="#C3EFBA"/>
<path d="M35.0406 51.7422C35.224 51.6014 35.4308 51.5901 35.5755 51.6203C35.699 51.6461 35.7837 51.7009 35.8188 51.7254C35.8603 51.7545 35.8897 51.7829 35.9062 51.7993C35.9389 51.8319 35.9613 51.861 35.9706 51.8734L36.0123 51.9354L36.1338 52.1359C36.1895 52.2276 36.2209 52.3268 36.235 52.3718C36.2546 52.4346 36.2738 52.5073 36.2927 52.5852C36.2963 52.6003 36.2992 52.6162 36.303 52.6323L36.8682 53.9366C37.0603 54.3802 37.2634 54.8306 37.4767 55.288L38.1239 56.6758C38.3619 57.1861 38.5362 57.7187 38.6469 58.2723L38.9483 59.7796C39.0438 60.257 39.1658 60.7249 39.3149 61.1832L39.7859 62.6316C39.9465 63.1255 40.0941 63.6241 40.2288 64.1269L40.6239 65.6015C40.7395 66.0333 40.9145 66.446 41.1501 66.8402L41.9485 68.1758C42.2368 68.6582 42.4731 69.1604 42.656 69.6821L43.1598 71.1193C43.3305 71.6062 43.4921 72.0965 43.6443 72.5898L44.0937 74.0461C44.2392 74.518 44.3998 74.9847 44.5756 75.4461L45.1182 76.8699C45.2999 77.3471 45.4805 77.8306 45.6602 78.3197L46.1966 79.7795C46.2451 79.9114 46.2878 80.0434 46.312 80.1616C46.3237 80.2187 46.3371 80.3008 46.3353 80.3918C46.334 80.4567 46.325 80.6712 46.1585 80.86C45.936 81.1121 45.6381 81.1111 45.4749 81.0712C45.3365 81.0374 45.2352 80.969 45.1884 80.9352C45.0831 80.8593 44.9832 80.7566 44.8997 80.664L43.9777 79.6413C43.5762 79.196 43.3325 78.6516 43.2308 78.0352L42.979 76.5107C42.9069 76.0738 42.7669 75.6619 42.5578 75.2725L41.8277 73.9132C41.5525 73.4007 41.3608 72.8578 41.2542 72.2867L40.9713 70.773C40.8879 70.3267 40.7472 69.9014 40.5483 69.4955L39.8726 68.1171C39.6378 67.6379 39.4287 67.1495 39.2449 66.6521L38.7167 65.2229C38.5343 64.7293 38.3728 64.2282 38.2324 63.7202L37.826 62.2495C37.6924 61.766 37.5512 61.285 37.4022 60.8069L36.9489 59.3523C36.8028 58.8834 36.6388 58.4206 36.457 57.964L35.893 56.5475C35.6898 56.037 35.5354 55.5097 35.4297 54.9666L35.136 53.4571C35.1035 53.2901 35.0742 53.1513 35.0495 53.0393C34.9678 52.8501 34.9067 52.7075 34.8692 52.6145C34.8525 52.573 34.8277 52.511 34.8125 52.4591C34.81 52.4506 34.7958 52.4027 34.7886 52.3426C34.787 52.3289 34.7716 52.2199 34.8076 52.0892C34.8269 52.0189 34.882 51.8641 35.0406 51.7422Z" fill="#C3EFBA"/>
<path d="M35.82 60.9656C35.8531 60.8573 35.9677 60.7963 36.0759 60.8294C36.1842 60.8625 36.2452 60.9771 36.2121 61.0854L33.7223 69.2356C33.6892 69.3439 33.5746 69.4048 33.4663 69.3717C33.358 69.3387 33.2971 69.2241 33.3302 69.1158L35.82 60.9656Z" fill="#C3EFBA"/>
<path d="M35.9197 59.9435C36.1751 59.8963 36.3908 60.0052 36.5169 60.138C36.6156 60.2421 36.6535 60.3505 36.666 60.3887C36.674 60.4134 36.6798 60.4361 36.684 60.4554L36.6925 60.5022L36.7037 60.5798L36.7149 60.657C36.732 60.7755 36.7134 60.8937 36.7104 60.9162C36.7029 60.9723 36.692 61.0381 36.6788 61.109C36.6519 61.2524 36.6107 61.4467 36.5568 61.688L36.2368 63.1219C36.1315 63.5936 36.031 64.0774 35.9348 64.5728L35.6427 66.076C35.5339 66.6357 35.3528 67.1629 35.0982 67.6549L34.4247 68.957C34.366 69.0705 34.3085 69.1747 34.2557 69.2558C34.2316 69.2927 34.192 69.3508 34.1401 69.4059C34.1155 69.432 34.0646 69.4831 33.9899 69.529C33.9278 69.5671 33.7437 69.6669 33.4984 69.6148C33.2162 69.5549 33.0788 69.3477 33.0273 69.2318C32.9797 69.1246 32.971 69.0297 32.9684 68.9899C32.9628 68.9023 32.9738 68.8233 32.9801 68.7821C32.9946 68.6864 33.022 68.5715 33.0539 68.4525L33.4202 67.0855C33.5487 66.606 33.7084 66.1189 33.8984 65.624L34.4456 64.1983C34.6153 63.7564 34.7555 63.2839 34.8654 62.7802L35.215 61.1794C35.2735 60.9118 35.3204 60.7079 35.3546 60.5749C35.3699 60.5152 35.3892 60.4442 35.4104 60.3863C35.4163 60.3703 35.4262 60.3438 35.4406 60.3138C35.4463 60.3018 35.4861 60.2149 35.5678 60.1314C35.6053 60.093 35.723 59.9798 35.9197 59.9435Z" fill="#C3EFBA"/>
<path d="M38.7253 69.8523C38.7583 69.744 38.8729 69.6831 38.9812 69.7161C39.0895 69.7492 39.1504 69.8638 39.1174 69.9721L36.6275 78.1223C36.5945 78.2306 36.4799 78.2915 36.3716 78.2585C36.2633 78.2254 36.2024 78.1108 36.2354 78.0025L38.7253 69.8523Z" fill="#C3EFBA"/>
<path d="M38.825 68.8322C39.0804 68.785 39.2961 68.8939 39.4221 69.0266C39.5209 69.1307 39.5588 69.2392 39.5712 69.2773C39.5793 69.302 39.5851 69.3247 39.5893 69.3441L39.5978 69.3909L39.6089 69.4685L39.6202 69.5457C39.6373 69.6642 39.6187 69.7824 39.6157 69.8049C39.6082 69.8609 39.5973 69.9267 39.584 69.9977C39.5572 70.1411 39.516 70.3354 39.4621 70.5767L39.1421 72.0105C39.0368 72.4823 38.9363 72.9661 38.84 73.4615L38.548 74.9647C38.4392 75.5244 38.258 76.0516 38.0035 76.5436L37.33 77.8457C37.2712 77.9592 37.2138 78.0634 37.1609 78.1444C37.1368 78.1814 37.0973 78.2394 37.0454 78.2946C37.0208 78.3207 36.9698 78.3718 36.8951 78.4177C36.8331 78.4557 36.6489 78.5556 36.4037 78.5035C36.1215 78.4436 35.984 78.2364 35.9325 78.1205C35.8849 78.0133 35.8763 77.9184 35.8737 77.8786C35.868 77.791 35.8791 77.712 35.8853 77.6707C35.8999 77.5751 35.9273 77.4602 35.9592 77.3411L36.3254 75.9741C36.4539 75.4947 36.6136 75.0075 36.8036 74.5127L37.3509 73.087C37.5206 72.6451 37.6607 72.1725 37.7707 71.6689L38.1203 70.068C38.1787 69.8004 38.2256 69.5966 38.2599 69.4635C38.2752 69.4038 38.2945 69.3328 38.3157 69.275C38.3215 69.259 38.3315 69.2325 38.3459 69.2024C38.3516 69.1904 38.3914 69.1036 38.4731 69.0201C38.5106 68.9817 38.6282 68.8685 38.825 68.8322Z" fill="#C3EFBA"/>
<path d="M42.4712 63.9083C42.3631 63.8748 42.2482 63.9353 42.2148 64.0435C42.1813 64.1516 42.2418 64.2665 42.3499 64.2999L50.4906 66.8208C50.5987 66.8543 50.7136 66.7938 50.747 66.6857C50.7805 66.5775 50.72 66.4627 50.6119 66.4292L42.4712 63.9083Z" fill="#C3EFBA"/>
<path d="M41.5709 63.4141C41.3884 63.5988 41.3572 63.8384 41.3962 64.0173C41.4268 64.1575 41.4952 64.2498 41.5198 64.2815C41.5357 64.302 41.5512 64.3196 41.5649 64.334L41.5988 64.3673L41.6567 64.4201L41.7143 64.4728C41.8026 64.5536 41.9109 64.6046 41.9312 64.6147C41.9817 64.6401 42.0423 64.668 42.1084 64.6969C42.2421 64.7553 42.426 64.8304 42.6559 64.9215L44.0217 65.4626C44.4711 65.6406 44.9277 65.8294 45.3916 66.0282L46.7991 66.6314C47.3232 66.856 47.8611 67.0024 48.411 67.0683L49.8666 67.243C49.9935 67.2582 50.112 67.2692 50.2087 67.2711C50.2529 67.2719 50.3231 67.2719 50.3979 67.2599C50.4333 67.2542 50.5042 67.2408 50.5841 67.2048C50.6505 67.1748 50.8365 67.0786 50.9313 66.8465C51.0403 66.5794 50.9462 66.3493 50.8792 66.2415C50.8174 66.142 50.7437 66.0814 50.7122 66.0569C50.6429 66.003 50.5714 65.9678 50.5338 65.9498C50.4465 65.908 50.336 65.8661 50.2196 65.8256L48.8831 65.3603C48.4143 65.1972 47.9216 65.0555 47.4055 64.9345L45.9188 64.586C45.4579 64.478 44.9882 64.3283 44.5099 64.1363L42.9892 63.5258C42.735 63.4237 42.5401 63.3479 42.4108 63.3014C42.3528 63.2806 42.2832 63.2566 42.2235 63.2417C42.2069 63.2375 42.1794 63.2308 42.1465 63.2259C42.1333 63.2239 42.0391 63.208 41.9241 63.2286C41.8713 63.2381 41.7116 63.2718 41.5709 63.4141Z" fill="#C3EFBA"/>
</svg>
