<svg width="100" height="100" viewBox="0 0 100 100" fill="none" xmlns="http://www.w3.org/2000/svg">
<path d="M85.1225 40.4231C81.0905 39.2937 77.0707 38.1521 73.0387 37.0226C68.8609 35.8446 65.5819 36.0146 63.0194 32.3469C62.2543 31.2418 61.6956 29.9545 61.2098 28.6186C60.0075 26.3475 58.9752 23.9429 57.9672 21.6476C56.4977 18.32 55.6719 13.6929 52.405 11.4583C50.8505 10.4017 48.4945 9.22367 46.8064 10.681C45.7012 11.6404 45.1183 13.6929 44.3896 14.9559C42.2279 18.6843 41.6206 22.862 40.2119 26.8697C39.7989 28.0599 39.3739 29.2501 38.961 30.4402C38.5723 31.5333 38.1837 32.6384 37.5036 33.5736C36.4956 34.9459 35.0383 35.1766 33.6052 35.8567C33.5202 35.8932 33.423 35.9296 33.3016 35.9782C29.5368 37.6663 23.7924 38.65 20.9506 39.3179C17.9873 40.0102 12.0121 41.2975 12 45.3417C12 48.985 15.8255 50.4059 18.4609 52.3734C21.7764 54.8387 25.0433 57.3648 28.2737 59.9516C30.7148 61.9069 29.1481 67.3233 28.8202 69.983C28.3466 73.7964 27.6544 77.5855 26.7314 81.3139C26.3185 83.002 25.8448 84.7387 26.0877 86.4632C27.3143 95.2437 39.471 85.1759 42.6408 83.0142C45.8712 80.816 48.7981 76.2982 53.1823 77.0147C59.8618 78.1199 64.1367 85.5038 70.4762 87.8598C71.4842 88.2363 72.5529 88.5278 73.6338 88.4063C81.2363 87.5927 76.1477 77.9984 75.4311 73.845C74.7389 69.9101 72.1035 64.0686 73.9131 60.1459C74.3624 59.1743 75.7833 58.3364 76.5242 57.547C77.7143 56.2839 79.1231 55.2881 80.5197 54.2922C83.3008 52.3005 86.507 50.3452 87.8793 47.054C89.0817 44.1636 88.4016 41.3218 85.1468 40.3988L85.1225 40.4231Z" fill="#FFD770"/>
</svg>
