<svg width="100" height="100" viewBox="0 0 100 100" fill="none" xmlns="http://www.w3.org/2000/svg">
<ellipse cx="48.2219" cy="30.4445" rx="20.8889" ry="20.4445" fill="#EEF4FF"/>
<circle cx="42.2221" cy="26.6669" r="1.55556" fill="black"/>
<circle cx="55.9999" cy="26.2235" r="1.55556" fill="black"/>
<path d="M46.608 33.6177L46.4823 33.0253C46.2059 31.7224 46.9332 30.4153 48.1861 29.9634L61.3921 25.2001C62.2481 24.8914 63.2027 25.2347 63.666 26.018C64.2126 26.9422 63.8828 28.1356 62.9392 28.6479L50.489 35.4078C48.9222 36.2585 46.978 35.3617 46.608 33.6177Z" fill="#FA7D2E"/>
<path d="M78.8892 44.668L88.4447 46.2235" stroke="#613822" stroke-width="1.77778"/>
<path d="M69.1113 53.5569L84.6669 38.668" stroke="#613822" stroke-width="1.77778"/>
<path d="M20.6667 43.7773H12" stroke="#574E4E" stroke-width="1.77778"/>
<path d="M27.5552 54.6678L17.5552 39.5566" stroke="#574E4E" stroke-width="1.77778"/>
<circle cx="48.2218" cy="65.5558" r="24.4445" fill="#EEF4FF"/>
<circle cx="49.1114" cy="55.7789" r="2.22223" fill="black"/>
<circle cx="49.1114" cy="62.8902" r="2.22223" fill="black"/>
<circle cx="49.1114" cy="70.0015" r="2.22223" fill="black"/>
</svg>
