<svg width="100" height="100" viewBox="0 0 100 100" fill="none" xmlns="http://www.w3.org/2000/svg">
<path d="M74.8801 65.847C75.4562 64.0467 75.6825 61.907 76.4437 60.1993C77.3593 58.1522 77.6473 57.895 77.4827 55.6112C77.349 53.7184 78.316 52.3399 78.3572 50.5499C78.46 46.1984 78.9127 40.4685 77.0198 36.4051C76.6495 35.6027 76.4232 34.7385 76.2071 33.8847C75.7134 31.9713 75.3122 31.0249 74.1909 29.5332C73.4605 28.5662 72.1334 27.4449 71.6602 26.3339C71.1356 25.1097 69.4587 23.0832 68.5535 22.0853C67.319 20.7274 65.6936 19.7501 64.274 18.6082C61.4759 16.3553 57.7005 15.5941 54.8921 13.3618C54.4909 13.0429 53.9868 12.9091 53.493 12.7857C49.9028 11.8701 46.3332 10.8928 42.7018 10.2242C39.3687 9.60695 36.406 10.4196 33.1244 10.8003C32.2603 10.9031 25.3679 11.3352 29.4313 12.9194C32.4763 14.1127 35.6859 14.946 38.6281 16.4068C41.5702 17.8676 43.8437 20.0793 46.3126 22.219C46.9813 22.7951 47.6602 23.4021 48.1026 24.1736C48.3803 24.6777 48.5552 25.2332 48.8947 25.6961C49.121 25.9944 49.4193 26.2413 49.6662 26.5191C52.3615 29.4715 54.7275 35.4381 55.5711 39.2958C55.7048 39.8821 55.7974 40.4891 56.0957 41.0137C56.2809 41.3429 56.5483 41.6309 56.7335 41.9601C57.3713 43.1329 56.8364 44.3365 56.9804 45.5504C57.0936 46.4968 57.6079 47.2375 57.7211 48.1633C58.04 50.766 57.0936 53.9344 56.4043 56.4239C53.8634 65.6927 50.2937 73.8813 41.1073 78.0579C40.7884 78.2019 40.4695 78.3356 40.1814 78.5311C39.8934 78.7162 39.6465 78.9528 39.3893 79.1689C37.9697 80.3519 36.2106 81.0411 34.4823 81.7098C31.2316 82.9751 28.094 84.0244 24.6478 84.5182C24.0306 84.6108 23.3928 84.6622 22.8372 84.9503C19.3396 86.8019 27.8574 89.0754 29.0301 89.3223C30.0897 89.5383 31.1801 89.6721 32.2603 89.7955C34.4618 90.0527 36.1489 90.0938 38.2783 89.7647C39.7185 89.5383 40.9633 89.9601 42.352 89.919C44.6358 89.8675 47.7117 89.1371 49.8205 88.4273C51.95 87.7175 53.9251 86.9974 55.9517 86.0304C59.2024 84.4771 61.8462 83.2734 64.49 80.6502C66.9692 78.1813 69.6336 75.7741 71.5265 72.832C71.8865 72.2765 72.2466 71.721 72.5963 71.1654C73.0387 70.4865 73.4707 69.8075 73.8102 69.0669C74.1908 68.2336 74.448 67.3489 74.6949 66.4745C74.7669 66.2585 74.8287 66.0321 74.9007 65.8161L74.8801 65.847Z" fill="#FFD770"/>
</svg>
