<svg width="100" height="100" viewBox="0 0 100 100" fill="none" xmlns="http://www.w3.org/2000/svg">
<g clip-path="url(#clip0_3647_3943)">
<circle cx="54.5839" cy="72.6898" r="27.3109" fill="white"/>
<circle cx="54.7751" cy="31.6281" r="22.5363" fill="white"/>
<rect x="30.7109" y="41.9414" width="48.1283" height="14.8969" rx="6.36364" fill="#FF6161"/>
<rect x="74.2554" y="46.9043" width="22.9183" height="14.8969" rx="6.36364" transform="rotate(90 74.2554 46.9043)" fill="#FF6161"/>
<circle cx="54.5839" cy="67.3402" r="2.48281" fill="#454545"/>
<circle cx="43.1249" cy="31.4352" r="2.48281" transform="rotate(-90 43.1249 31.4352)" fill="#454545"/>
<circle cx="54.5839" cy="79.5629" r="2.48281" fill="#454545"/>
<circle cx="66.0434" cy="31.4352" r="2.48281" transform="rotate(-90 66.0434 31.4352)" fill="#454545"/>
<path d="M47.4444 34.2575C47.3018 33.4012 47.7953 32.5664 48.6142 32.2786L54.1448 30.3344C55.6611 29.8014 57.3041 30.7047 57.6665 32.2706C58.0501 33.9286 56.821 35.5231 55.12 35.5741L49.2603 35.7499C48.3669 35.7767 47.5911 35.1391 47.4444 34.2575Z" fill="#FBA455"/>
</g>
<defs>
<clipPath id="clip0_3647_3943">
<rect width="100" height="100" fill="white"/>
</clipPath>
</defs>
</svg>
