<svg width="100" height="100" viewBox="0 0 100 100" fill="none" xmlns="http://www.w3.org/2000/svg">
<path d="M61.4714 51.3566C51.5043 39.2457 36.0647 32.6636 25.9096 20.7031C26.4173 35.8418 26.549 50.9805 26.3233 66.1192C31.6454 59.8192 38.0958 54.5724 43.6999 48.5357C49.304 42.4991 54.2312 35.3717 55.4911 27.2099C41.462 32.0806 27.6773 37.6096 14.1936 43.7967C12.5386 44.5677 10.6016 45.7525 10.6957 47.5766C27.8466 47.8211 44.9787 48.8554 62.0356 50.6608" fill="#FFE43D"/>
<path d="M61.9608 50.8653C54.0811 41.3307 43.0609 35.3129 33.7144 27.4144C31.1004 25.1953 28.618 22.8258 26.3801 20.2118C25.9852 19.7416 25.1578 20.1177 25.1766 20.7195C25.5715 32.492 25.7408 44.2832 25.6843 56.0745C25.6843 59.4219 25.6467 62.7882 25.5903 66.1356C25.5903 66.7186 26.399 67.1135 26.7939 66.6434C35.2565 56.6763 46.6528 49.0787 52.8211 37.2687C54.4384 34.1845 55.6232 30.8747 56.1686 27.4332C56.2438 26.9443 55.8677 26.3801 55.3035 26.5681C42.2335 31.1003 29.3515 36.2343 16.7328 41.9137C15.1719 42.6095 13.4794 43.2301 12.0877 44.208C10.9218 45.0167 9.98147 46.1262 10.0003 47.6119C10.0003 47.988 10.32 48.3077 10.7149 48.3265C24.067 48.5145 37.4004 49.1727 50.7149 50.3199C54.4948 50.6396 58.2936 51.0157 62.0736 51.4106C62.9763 51.5047 62.9763 50.0942 62.0736 50.0002C48.7967 48.5898 35.4822 47.6495 22.13 47.1981C18.3313 47.0665 14.5325 46.9725 10.7149 46.916L11.4295 47.6307C11.4107 46.4271 12.4262 45.6373 13.3853 45.0731C14.6829 44.3208 16.1122 43.7567 17.4662 43.1549C20.5127 41.7821 23.5593 40.4468 26.6246 39.1492C32.7365 36.554 38.9048 34.0905 45.1296 31.7774C48.6462 30.4609 52.1629 29.201 55.6984 27.9598L54.8334 27.0947C52.8023 39.9015 42.572 48.9471 33.7144 57.4661C30.9876 60.0989 28.2983 62.7882 25.8348 65.6843L27.0383 66.192C27.2076 54.4008 27.17 42.6095 26.9067 30.8371C26.8315 27.4896 26.7375 24.1234 26.6246 20.7759L25.4211 21.2837C33.4511 30.6866 44.4902 36.6669 53.7614 44.6593C56.3566 46.8972 58.8014 49.3044 60.9829 51.9372C61.5658 52.633 62.5625 51.6363 61.9796 50.9405L61.9608 50.8653Z" fill="#FFA83D"/>
<path d="M82.7779 79.5812C83.3233 70.8741 79.6937 63.032 80.1075 54.3438C74.7478 61.49 69.2377 68.5421 63.5771 75.4627C67.9777 74.2215 72.4347 73.789 76.8352 72.7546C81.2358 71.7203 85.8056 69.9526 89.2847 66.5863C82.0069 64.4613 74.5785 62.7311 67.0186 61.3959C66.0971 61.2267 64.8936 61.1891 64.2542 62.0541C70.8738 67.5078 77.2114 73.3188 83.2292 79.4683" fill="#FFE43D"/>
<path d="M83.493 79.5825C84.0008 71.0446 80.4465 62.8829 80.8226 54.3451C80.8602 53.574 79.8823 53.48 79.5062 53.9878C74.1842 61.0964 68.7117 68.0733 63.0887 74.9562C62.675 75.464 63.0511 76.3479 63.7657 76.141C70.8555 74.1476 78.4531 74.0536 85.0727 70.4993C86.7841 69.5778 88.3825 68.4306 89.793 67.0766C90.1879 66.7005 89.981 66.0423 89.4733 65.8918C84.9975 64.5942 80.4653 63.4283 75.8955 62.4316C73.6012 61.9238 71.3069 61.4537 68.9937 61.0211C67.3388 60.7202 65.0069 59.968 63.7657 61.5289C63.5401 61.811 63.446 62.2623 63.7657 62.5256C70.4042 67.9793 76.7417 73.7903 82.7408 79.9398C83.3802 80.598 84.3769 79.5825 83.7375 78.9431C77.7196 72.8124 71.3821 67.0014 64.7624 61.5289V62.5256C65.2702 61.8862 66.0788 61.9238 66.8311 62.0555C67.8842 62.2247 68.9185 62.4316 69.9716 62.6384C72.1343 63.0522 74.2782 63.5035 76.422 63.9924C80.691 64.9515 84.9223 66.0423 89.116 67.2647L88.7963 66.0799C83.6435 71.007 76.5349 72.1918 69.8024 73.3954C67.6585 73.7715 65.4959 74.204 63.3896 74.787L64.0666 75.9718C69.746 68.9948 75.2937 61.905 80.691 54.7212L79.3745 54.3639C78.9984 62.9017 82.5527 71.0634 82.045 79.6013C81.9886 80.504 83.399 80.504 83.4554 79.6013L83.493 79.5825Z" fill="#FFA83D"/>
</svg>
