<svg width="100" height="100" viewBox="0 0 100 100" fill="none" xmlns="http://www.w3.org/2000/svg">
<path d="M14.4245 37.3145C15.1113 36.9875 15.809 36.6386 16.474 36.2571C17.1389 35.8755 17.8039 35.385 18.458 34.9489C19.7552 34.0659 21.0416 33.1829 22.3388 32.2999C23.6361 31.4169 25.0314 30.6212 26.3505 29.7273C27.0373 29.2694 27.7022 28.768 28.4108 28.3319C29.1194 27.8959 29.8062 27.4816 30.4929 27.0565C33.251 25.345 36.0199 23.6553 38.8433 22.0419C40.2277 21.2461 41.6122 20.4721 43.0184 19.7417C44.4247 19.0114 45.9291 18.3246 47.3789 17.5942C49.0141 16.7766 50.6275 15.9154 52.2518 15.076C53.8761 14.2366 55.4895 13.201 57.2773 12.7759C57.4517 12.7322 57.5171 12.5142 57.5607 12.3616C57.6697 11.991 57.6697 11.5767 57.6479 11.1952C57.6479 11.0862 57.4953 9.72351 57.1028 10.0505C55.7729 11.1625 54.2467 11.9692 52.7423 12.8304C51.238 13.6916 49.8208 14.4873 48.3273 15.2613C45.4603 16.7548 42.5388 18.0957 39.7263 19.6872C36.9138 21.2788 34.1449 23.0666 31.365 24.7672C29.9915 25.6175 28.6288 26.5005 27.1899 27.2309C25.7509 27.9613 24.421 28.5935 23.091 29.3784C21.5648 30.2832 20.1259 31.3188 18.6869 32.3654C17.9565 32.8886 17.2371 33.4119 16.4958 33.9133C15.7218 34.4475 14.9805 35.0471 14.2065 35.5812C13.8577 35.821 13.9667 37.5216 14.4136 37.3036L14.4245 37.3145Z" fill="#FFD770"/>
<path d="M22.6552 49.327C23.8107 48.4658 24.9444 47.5719 26.0345 46.6126C27.1901 45.5988 28.2584 44.476 29.3594 43.4077C31.5397 41.3037 33.7744 39.2216 36.2163 37.4229C37.4372 36.5181 38.7563 35.7986 40.0208 34.9701C41.2854 34.1416 42.5717 33.0951 43.7599 32.0486C44.9482 31.0021 46.1037 29.9338 47.281 28.8981C48.5347 27.808 49.8428 26.7833 51.1183 25.7259C54.2142 23.1532 57.2447 20.4933 60.2971 17.8661C60.635 17.5718 60.5478 16.7542 60.5151 16.3726C60.5042 16.2309 60.3625 15.2716 60.0573 15.5332C57.332 17.8661 54.6285 20.2099 51.8704 22.51C50.5514 23.6111 49.1996 24.6685 47.8806 25.7586C46.6815 26.7506 45.5368 27.808 44.3704 28.8436C43.204 29.8793 41.9721 30.9367 40.6749 31.8742C39.3776 32.8117 38.0804 33.4658 36.8268 34.3161C34.3086 36.0275 32.0629 38.0879 29.8936 40.2136C28.6508 41.4237 27.4408 42.6555 26.209 43.8655C24.9771 45.0756 23.7562 46.4927 22.4698 47.7464C22.2409 47.9753 22.2736 48.4658 22.3063 48.7493C22.3172 48.8692 22.4262 49.4906 22.6552 49.3161V49.327Z" fill="#FFD770"/>
<path d="M30.5152 69.462C31.3001 68.7534 31.9324 67.9358 32.5647 67.1074C33.1969 66.2789 33.8183 65.4722 34.407 64.6328C35.6388 62.8668 36.8379 61.079 38.1461 59.3784C39.4542 57.6778 40.8169 56.0099 42.2558 54.4183C43.6948 52.8268 45.2973 51.3115 46.6817 49.6436C48.0662 47.9757 49.4289 46.2642 50.8787 44.6399C52.2196 43.1356 53.6476 41.7075 55.1084 40.3231C55.8497 39.6145 56.4928 38.786 57.1687 38.012C57.8446 37.238 58.5314 36.4204 59.1964 35.6137C60.5481 33.9894 61.889 32.3543 63.2407 30.7191C66.2603 27.089 69.3127 23.4916 72.5504 20.0468C72.8447 19.7306 72.8011 19.0766 72.7575 18.6841C72.7466 18.5751 72.5722 17.6485 72.3105 17.921C66.5111 24.1347 61.1804 30.7954 55.8388 37.4015C54.4325 39.1457 53.1789 40.9989 51.7617 42.7322C50.4536 44.3238 48.971 45.741 47.423 47.0927C45.8751 48.4445 44.3489 49.7526 42.8881 51.148C41.4274 52.5433 40.0102 54.1785 38.6803 55.7701C37.1868 57.547 35.7151 59.3457 34.2544 61.1444C33.5349 62.0383 32.8481 62.954 32.1504 63.8806C31.3873 64.8835 30.6351 65.8755 30.0029 66.9656C29.7085 67.4671 29.6976 68.1212 29.8067 68.6771C29.8503 68.8843 30.1228 69.7891 30.5043 69.4511L30.5152 69.462Z" fill="#FFD770"/>
<path d="M60.8418 49.023C64.1449 43.398 67.4807 37.7839 71.0236 32.3115C71.5141 31.5593 72.0047 30.8071 72.5279 30.0767C73.0512 29.3463 73.6508 28.6923 74.174 27.9728C74.3266 27.7657 74.3593 27.3187 74.3811 27.0898C74.4029 26.73 74.3811 26.3158 74.3048 25.9561C74.2285 25.6399 73.9669 24.9095 73.6181 25.4437C73.1384 26.185 72.7351 26.959 72.2772 27.7002C71.8194 28.4415 71.3833 29.1174 70.9146 29.826C70.0097 31.1886 69.1049 32.5731 68.2219 33.9576C66.4559 36.7265 64.7336 39.5281 63.142 42.406C62.1827 44.1502 61.2343 45.8944 60.3295 47.6604C60.1659 47.9765 60.1986 48.4889 60.3295 48.805C60.4058 48.9903 60.6456 49.3283 60.8309 49.023H60.8418Z" fill="#FFD770"/>
<path d="M85.5442 25.3763C84.5631 27.2949 83.8872 29.3335 83.244 31.3829C82.6008 33.4323 81.9686 35.4491 81.3472 37.4876C80.7258 39.5261 80.0391 41.5756 79.2651 43.5814C78.4911 45.5872 77.4555 47.5821 76.5289 49.7079C74.7956 53.7195 73.6291 57.9383 72.0703 62.0262C71.3181 64.0103 70.4024 65.8962 69.4758 67.8148C68.5492 69.7334 67.6989 71.8264 66.9467 73.8868C66.1073 76.1651 65.3769 78.4762 64.6138 80.7873C64.2432 81.8883 63.8834 83.0002 63.491 84.0903C63.1313 85.0932 62.7824 86.1616 62.2592 87.0118C61.8449 87.6877 61.8667 88.8215 62.1938 89.5409C62.2701 89.7045 62.4336 90.0097 62.6625 89.9988C63.0114 89.9988 63.1422 89.4319 63.1967 89.1921C63.6218 87.0991 64.3522 85.0605 65.039 83.0438C65.7149 81.0489 66.4452 79.0649 67.1974 77.0917C67.9496 75.1186 68.7127 73.2327 69.6066 71.3577C70.5005 69.4827 71.5361 67.5968 72.3646 65.6455C74.0216 61.721 75.2098 57.6113 76.8559 53.6759C77.6626 51.7464 78.72 49.8496 79.5921 47.8765C80.4642 45.9033 81.2164 43.843 81.8923 41.7609C82.6336 39.4716 83.2767 37.1497 83.9635 34.8386C84.683 32.4403 85.4352 30.053 86.1765 27.6656C86.3618 27.066 86.3182 26.3356 86.1655 25.7361C86.1001 25.4744 85.8276 24.864 85.566 25.3763H85.5442Z" fill="#FFD770"/>
</svg>
