<svg width="390" height="844" viewBox="0 0 390 844" fill="none" xmlns="http://www.w3.org/2000/svg">
<g clip-path="url(#clip0_3759_3654)">
<mask id="mask0_3759_3654" style="mask-type:luminance" maskUnits="userSpaceOnUse" x="0" y="0" width="391" height="845">
<path d="M390.094 0H0V844.128H390.094V0Z" fill="white"/>
</mask>
<g mask="url(#mask0_3759_3654)">
<path d="M390.094 -0.00195312H0V844.126H390.094V-0.00195312Z" fill="#D0F1F7"/>
<path opacity="0.49" d="M35.5119 -15.5914C35.5119 -16.8318 35.5085 -18.0721 35.505 -19.3125H30.4749C30.4749 -17.7846 30.4714 -16.2566 30.4679 -14.7252C30.4575 -6.55549 30.4437 1.61427 30.4333 9.78402C30.4229 17.9538 30.4229 26.1235 30.4229 34.2933C30.4229 42.4353 30.4229 50.5739 30.4229 58.7159C30.4229 66.858 30.4229 74.9965 30.4229 83.1386C30.4229 91.3083 30.4229 99.4781 30.4229 107.648C30.4229 115.79 30.4229 123.928 30.4229 132.07C30.4229 140.24 30.4229 148.41 30.4229 156.58C30.4229 164.722 30.4229 172.86 30.4229 181.002C30.4229 189.172 30.4229 197.342 30.4229 205.512C30.4229 213.654 30.4229 221.792 30.4229 229.934C30.4229 238.104 30.4229 246.274 30.4229 254.444C30.4229 262.586 30.4229 270.724 30.4229 278.866C30.4229 287.008 30.4229 295.147 30.4229 303.289C30.4229 311.459 30.4229 319.628 30.4229 327.798C30.4229 335.968 30.4229 344.138 30.4229 352.307C30.4229 360.449 30.4229 368.588 30.4229 376.73C30.4229 384.872 30.4229 393.011 30.4229 401.153C30.4229 409.322 30.4229 417.492 30.4229 425.662C30.4229 433.832 30.4229 442.001 30.4229 450.171C30.4229 458.313 30.4229 466.452 30.4229 474.594C30.4229 482.736 30.4229 490.874 30.4229 499.016C30.4229 507.186 30.4229 515.356 30.4229 523.526C30.4229 531.695 30.4229 539.865 30.4229 548.035C30.4229 556.177 30.4229 564.316 30.4229 572.458C30.4229 580.6 30.4229 588.738 30.4229 596.88C30.4229 605.05 30.4229 613.22 30.4229 621.389C30.4229 629.559 30.4229 637.729 30.4229 645.899C30.4229 654.041 30.4229 662.179 30.4229 670.321C30.4229 678.463 30.4229 686.602 30.4229 694.744C30.4229 702.914 30.4229 711.084 30.4229 719.253C30.4229 727.423 30.4229 735.593 30.4229 743.763C30.4229 751.905 30.4229 760.043 30.4229 768.185C30.4229 776.327 30.4229 784.466 30.4229 792.608C30.4229 800.778 30.4229 808.947 30.4229 817.117C30.4229 825.287 30.4229 833.457 30.4229 841.626C30.4229 846.771 30.4229 851.92 30.4298 857.065H35.5223C35.5327 851.573 35.5258 846.078 35.5258 840.587C35.5258 832.445 35.5258 824.306 35.5258 816.164C35.5258 808.022 35.5258 799.884 35.5258 791.742C35.5258 783.572 35.5258 775.402 35.5258 767.232C35.5258 759.063 35.5258 750.893 35.5258 742.723C35.5258 734.581 35.5258 726.443 35.5258 718.3C35.5258 710.158 35.5258 702.02 35.5258 693.878C35.5258 685.708 35.5258 677.538 35.5258 669.369C35.5258 661.227 35.5258 653.088 35.5258 644.946C35.5258 636.776 35.5258 628.606 35.5258 620.437C35.5258 612.295 35.5258 604.156 35.5258 596.014C35.5258 587.844 35.5258 579.675 35.5258 571.505C35.5258 563.363 35.5258 555.224 35.5258 547.082C35.5258 538.912 35.5258 530.743 35.5258 522.573C35.5258 514.431 35.5258 506.292 35.5258 498.15C35.5258 490.008 35.5258 481.87 35.5258 473.728C35.5258 465.558 35.5258 457.388 35.5258 449.218C35.5258 441.049 35.5258 432.879 35.5258 424.709C35.5258 416.567 35.5258 408.428 35.5258 400.286C35.5258 392.144 35.5258 384.006 35.5258 375.864C35.5258 367.694 35.5258 359.524 35.5258 351.355C35.5258 343.185 35.5258 335.015 35.5258 326.845C35.5258 318.703 35.5258 310.565 35.5258 302.423C35.5258 294.281 35.5258 286.142 35.5258 278C35.5258 269.83 35.5258 261.66 35.5258 253.491C35.5258 245.321 35.5258 237.151 35.5258 228.981C35.5258 220.839 35.5258 212.701 35.5258 204.559C35.5258 196.417 35.5258 188.278 35.5258 180.136C35.5258 171.966 35.5258 163.797 35.5258 155.627C35.5258 147.457 35.5258 139.287 35.5258 131.118C35.5258 122.976 35.5258 114.837 35.5258 106.695C35.5258 98.553 35.5258 90.4144 35.5258 82.2724C35.5258 74.1026 35.5258 65.9329 35.5258 57.7631C35.5258 49.5934 35.5258 41.4236 35.5258 33.2539C35.5258 25.1118 35.5258 16.9733 35.5119 8.83123C35.5015 0.689192 35.4876 -7.44938 35.4772 -15.5914H35.5119Z" fill="#96C7E0"/>
<path opacity="0.49" d="M100.626 -15.5914C100.626 -16.8318 100.623 -18.0721 100.619 -19.3125H95.5891C95.5891 -17.7846 95.5856 -16.2566 95.5822 -14.7252C95.5718 -6.55549 95.5579 1.61427 95.5475 9.78402C95.5371 17.9538 95.5371 26.1235 95.5371 34.2933C95.5371 42.4353 95.5371 50.5739 95.5371 58.7159C95.5371 66.858 95.5371 74.9965 95.5371 83.1386C95.5371 91.3083 95.5371 99.4781 95.5371 107.648C95.5371 115.79 95.5371 123.928 95.5371 132.07C95.5371 140.24 95.5371 148.41 95.5371 156.58C95.5371 164.722 95.5371 172.86 95.5371 181.002C95.5371 189.172 95.5371 197.342 95.5371 205.512C95.5371 213.654 95.5371 221.792 95.5371 229.934C95.5371 238.104 95.5371 246.274 95.5371 254.444C95.5371 262.586 95.5371 270.724 95.5371 278.866C95.5371 287.008 95.5371 295.147 95.5371 303.289C95.5371 311.459 95.5371 319.628 95.5371 327.798C95.5371 335.968 95.5371 344.138 95.5371 352.307C95.5371 360.449 95.5371 368.588 95.5371 376.73C95.5371 384.872 95.5371 393.011 95.5371 401.153C95.5371 409.322 95.5371 417.492 95.5371 425.662C95.5371 433.832 95.5371 442.001 95.5371 450.171C95.5371 458.313 95.5371 466.452 95.5371 474.594C95.5371 482.736 95.5371 490.874 95.5371 499.016C95.5371 507.186 95.5371 515.356 95.5371 523.526C95.5371 531.695 95.5371 539.865 95.5371 548.035C95.5371 556.177 95.5371 564.316 95.5371 572.458C95.5371 580.6 95.5371 588.738 95.5371 596.88C95.5371 605.05 95.5371 613.22 95.5371 621.389C95.5371 629.559 95.5371 637.729 95.5371 645.899C95.5371 654.041 95.5371 662.179 95.5371 670.321C95.5371 678.463 95.5371 686.602 95.5371 694.744C95.5371 702.914 95.5371 711.084 95.5371 719.253C95.5371 727.423 95.5371 735.593 95.5371 743.763C95.5371 751.905 95.5371 760.043 95.5371 768.185C95.5371 776.327 95.5371 784.466 95.5371 792.608C95.5371 800.778 95.5371 808.947 95.5371 817.117C95.5371 825.287 95.5371 833.457 95.5371 841.626C95.5371 846.771 95.5371 851.92 95.544 857.065H100.637C100.647 851.573 100.64 846.078 100.64 840.587C100.64 832.445 100.64 824.306 100.64 816.164C100.64 808.022 100.64 799.884 100.64 791.742C100.64 783.572 100.64 775.402 100.64 767.232C100.64 759.063 100.64 750.893 100.64 742.723C100.64 734.581 100.64 726.443 100.64 718.3C100.64 710.158 100.64 702.02 100.64 693.878C100.64 685.708 100.64 677.538 100.64 669.369C100.64 661.227 100.64 653.088 100.64 644.946C100.64 636.776 100.64 628.606 100.64 620.437C100.64 612.295 100.64 604.156 100.64 596.014C100.64 587.844 100.64 579.675 100.64 571.505C100.64 563.363 100.64 555.224 100.64 547.082C100.64 538.912 100.64 530.743 100.64 522.573C100.64 514.431 100.64 506.292 100.64 498.15C100.64 490.008 100.64 481.87 100.64 473.728C100.64 465.558 100.64 457.388 100.64 449.218C100.64 441.049 100.64 432.879 100.64 424.709C100.64 416.567 100.64 408.428 100.64 400.286C100.64 392.144 100.64 384.006 100.64 375.864C100.64 367.694 100.64 359.524 100.64 351.355C100.64 343.185 100.64 335.015 100.64 326.845C100.64 318.703 100.64 310.565 100.64 302.423C100.64 294.281 100.64 286.142 100.64 278C100.64 269.83 100.64 261.66 100.64 253.491C100.64 245.321 100.64 237.151 100.64 228.981C100.64 220.839 100.64 212.701 100.64 204.559C100.64 196.417 100.64 188.278 100.64 180.136C100.64 171.966 100.64 163.797 100.64 155.627C100.64 147.457 100.64 139.287 100.64 131.118C100.64 122.976 100.64 114.837 100.64 106.695C100.64 98.553 100.64 90.4144 100.64 82.2724C100.64 74.1026 100.64 65.9329 100.64 57.7631C100.64 49.5934 100.64 41.4236 100.64 33.2539C100.64 25.1118 100.64 16.9733 100.626 8.83123C100.616 0.689192 100.602 -7.44938 100.592 -15.5914H100.626Z" fill="#96C7E0"/>
<path opacity="0.49" d="M165.74 -15.5914C165.74 -16.8318 165.737 -18.0721 165.733 -19.3125H160.703C160.703 -17.7846 160.7 -16.2566 160.696 -14.7252C160.686 -6.55549 160.672 1.61427 160.662 9.78402C160.651 17.9538 160.651 26.1235 160.651 34.2933C160.651 42.4353 160.651 50.5739 160.651 58.7159C160.651 66.858 160.651 74.9965 160.651 83.1386C160.651 91.3083 160.651 99.4781 160.651 107.648C160.651 115.79 160.651 123.928 160.651 132.07C160.651 140.24 160.651 148.41 160.651 156.58C160.651 164.722 160.651 172.86 160.651 181.002C160.651 189.172 160.651 197.342 160.651 205.512C160.651 213.654 160.651 221.792 160.651 229.934C160.651 238.104 160.651 246.274 160.651 254.444C160.651 262.586 160.651 270.724 160.651 278.866C160.651 287.008 160.651 295.147 160.651 303.289C160.651 311.459 160.651 319.628 160.651 327.798C160.651 335.968 160.651 344.138 160.651 352.307C160.651 360.449 160.651 368.588 160.651 376.73C160.651 384.872 160.651 393.011 160.651 401.153C160.651 409.322 160.651 417.492 160.651 425.662C160.651 433.832 160.651 442.001 160.651 450.171C160.651 458.313 160.651 466.452 160.651 474.594C160.651 482.736 160.651 490.874 160.651 499.016C160.651 507.186 160.651 515.356 160.651 523.526C160.651 531.695 160.651 539.865 160.651 548.035C160.651 556.177 160.651 564.316 160.651 572.458C160.651 580.6 160.651 588.738 160.651 596.88C160.651 605.05 160.651 613.22 160.651 621.389C160.651 629.559 160.651 637.729 160.651 645.899C160.651 654.041 160.651 662.179 160.651 670.321C160.651 678.463 160.651 686.602 160.651 694.744C160.651 702.914 160.651 711.084 160.651 719.253C160.651 727.423 160.651 735.593 160.651 743.763C160.651 751.905 160.651 760.043 160.651 768.185C160.651 776.327 160.651 784.466 160.651 792.608C160.651 800.778 160.651 808.947 160.651 817.117C160.651 825.287 160.651 833.457 160.651 841.626C160.651 846.771 160.651 851.92 160.658 857.065H165.751C165.761 851.573 165.754 846.078 165.754 840.587C165.754 832.445 165.754 824.306 165.754 816.164C165.754 808.022 165.754 799.884 165.754 791.742C165.754 783.572 165.754 775.402 165.754 767.232C165.754 759.063 165.754 750.893 165.754 742.723C165.754 734.581 165.754 726.443 165.754 718.3C165.754 710.158 165.754 702.02 165.754 693.878C165.754 685.708 165.754 677.538 165.754 669.369C165.754 661.227 165.754 653.088 165.754 644.946C165.754 636.776 165.754 628.606 165.754 620.437C165.754 612.295 165.754 604.156 165.754 596.014C165.754 587.844 165.754 579.675 165.754 571.505C165.754 563.363 165.754 555.224 165.754 547.082C165.754 538.912 165.754 530.743 165.754 522.573C165.754 514.431 165.754 506.292 165.754 498.15C165.754 490.008 165.754 481.87 165.754 473.728C165.754 465.558 165.754 457.388 165.754 449.218C165.754 441.049 165.754 432.879 165.754 424.709C165.754 416.567 165.754 408.428 165.754 400.286C165.754 392.144 165.754 384.006 165.754 375.864C165.754 367.694 165.754 359.524 165.754 351.355C165.754 343.185 165.754 335.015 165.754 326.845C165.754 318.703 165.754 310.565 165.754 302.423C165.754 294.281 165.754 286.142 165.754 278C165.754 269.83 165.754 261.66 165.754 253.491C165.754 245.321 165.754 237.151 165.754 228.981C165.754 220.839 165.754 212.701 165.754 204.559C165.754 196.417 165.754 188.278 165.754 180.136C165.754 171.966 165.754 163.797 165.754 155.627C165.754 147.457 165.754 139.287 165.754 131.118C165.754 122.976 165.754 114.837 165.754 106.695C165.754 98.553 165.754 90.4144 165.754 82.2724C165.754 74.1026 165.754 65.9329 165.754 57.7631C165.754 49.5934 165.754 41.4236 165.754 33.2539C165.754 25.1118 165.754 16.9733 165.74 8.83123C165.73 0.689192 165.716 -7.44938 165.706 -15.5914H165.74Z" fill="#96C7E0"/>
<path opacity="0.49" d="M230.852 -15.5914C230.852 -16.8318 230.848 -18.0721 230.845 -19.3125H225.815C225.815 -17.7846 225.811 -16.2566 225.808 -14.7252C225.797 -6.55549 225.784 1.61427 225.773 9.78402C225.763 17.9538 225.763 26.1235 225.763 34.2933C225.763 42.4353 225.763 50.5739 225.763 58.7159C225.763 66.858 225.763 74.9965 225.763 83.1386C225.763 91.3083 225.763 99.4781 225.763 107.648C225.763 115.79 225.763 123.928 225.763 132.07C225.763 140.24 225.763 148.41 225.763 156.58C225.763 164.722 225.763 172.86 225.763 181.002C225.763 189.172 225.763 197.342 225.763 205.512C225.763 213.654 225.763 221.792 225.763 229.934C225.763 238.104 225.763 246.274 225.763 254.444C225.763 262.586 225.763 270.724 225.763 278.866C225.763 287.008 225.763 295.147 225.763 303.289C225.763 311.459 225.763 319.628 225.763 327.798C225.763 335.968 225.763 344.138 225.763 352.307C225.763 360.449 225.763 368.588 225.763 376.73C225.763 384.872 225.763 393.011 225.763 401.153C225.763 409.322 225.763 417.492 225.763 425.662C225.763 433.832 225.763 442.001 225.763 450.171C225.763 458.313 225.763 466.452 225.763 474.594C225.763 482.736 225.763 490.874 225.763 499.016C225.763 507.186 225.763 515.356 225.763 523.526C225.763 531.695 225.763 539.865 225.763 548.035C225.763 556.177 225.763 564.316 225.763 572.458C225.763 580.6 225.763 588.738 225.763 596.88C225.763 605.05 225.763 613.22 225.763 621.389C225.763 629.559 225.763 637.729 225.763 645.899C225.763 654.041 225.763 662.179 225.763 670.321C225.763 678.463 225.763 686.602 225.763 694.744C225.763 702.914 225.763 711.084 225.763 719.253C225.763 727.423 225.763 735.593 225.763 743.763C225.763 751.905 225.763 760.043 225.763 768.185C225.763 776.327 225.763 784.466 225.763 792.608C225.763 800.778 225.763 808.947 225.763 817.117C225.763 825.287 225.763 833.457 225.763 841.626C225.763 846.771 225.763 851.92 225.77 857.065H230.862C230.873 851.573 230.866 846.078 230.866 840.587C230.866 832.445 230.866 824.306 230.866 816.164C230.866 808.022 230.866 799.884 230.866 791.742C230.866 783.572 230.866 775.402 230.866 767.232C230.866 759.063 230.866 750.893 230.866 742.723C230.866 734.581 230.866 726.443 230.866 718.3C230.866 710.158 230.866 702.02 230.866 693.878C230.866 685.708 230.866 677.538 230.866 669.369C230.866 661.227 230.866 653.088 230.866 644.946C230.866 636.776 230.866 628.606 230.866 620.437C230.866 612.295 230.866 604.156 230.866 596.014C230.866 587.844 230.866 579.675 230.866 571.505C230.866 563.363 230.866 555.224 230.866 547.082C230.866 538.912 230.866 530.743 230.866 522.573C230.866 514.431 230.866 506.292 230.866 498.15C230.866 490.008 230.866 481.87 230.866 473.728C230.866 465.558 230.866 457.388 230.866 449.218C230.866 441.049 230.866 432.879 230.866 424.709C230.866 416.567 230.866 408.428 230.866 400.286C230.866 392.144 230.866 384.006 230.866 375.864C230.866 367.694 230.866 359.524 230.866 351.355C230.866 343.185 230.866 335.015 230.866 326.845C230.866 318.703 230.866 310.565 230.866 302.423C230.866 294.281 230.866 286.142 230.866 278C230.866 269.83 230.866 261.66 230.866 253.491C230.866 245.321 230.866 237.151 230.866 228.981C230.866 220.839 230.866 212.701 230.866 204.559C230.866 196.417 230.866 188.278 230.866 180.136C230.866 171.966 230.866 163.797 230.866 155.627C230.866 147.457 230.866 139.287 230.866 131.118C230.866 122.976 230.866 114.837 230.866 106.695C230.866 98.553 230.866 90.4144 230.866 82.2724C230.866 74.1026 230.866 65.9329 230.866 57.7631C230.866 49.5934 230.866 41.4236 230.866 33.2539C230.866 25.1118 230.866 16.9733 230.852 8.83123C230.841 0.689192 230.828 -7.44938 230.817 -15.5914H230.852Z" fill="#96C7E0"/>
<path opacity="0.49" d="M295.966 -15.5914C295.966 -16.8318 295.963 -18.0721 295.959 -19.3125H290.929C290.929 -17.7846 290.925 -16.2566 290.922 -14.7252C290.912 -6.55549 290.898 1.61427 290.887 9.78402C290.877 17.9538 290.877 26.1235 290.877 34.2933C290.877 42.4353 290.877 50.5739 290.877 58.7159C290.877 66.858 290.877 74.9965 290.877 83.1386C290.877 91.3083 290.877 99.4781 290.877 107.648C290.877 115.79 290.877 123.928 290.877 132.07C290.877 140.24 290.877 148.41 290.877 156.58C290.877 164.722 290.877 172.86 290.877 181.002C290.877 189.172 290.877 197.342 290.877 205.512C290.877 213.654 290.877 221.792 290.877 229.934C290.877 238.104 290.877 246.274 290.877 254.444C290.877 262.586 290.877 270.724 290.877 278.866C290.877 287.008 290.877 295.147 290.877 303.289C290.877 311.459 290.877 319.628 290.877 327.798C290.877 335.968 290.877 344.138 290.877 352.307C290.877 360.449 290.877 368.588 290.877 376.73C290.877 384.872 290.877 393.011 290.877 401.153C290.877 409.322 290.877 417.492 290.877 425.662C290.877 433.832 290.877 442.001 290.877 450.171C290.877 458.313 290.877 466.452 290.877 474.594C290.877 482.736 290.877 490.874 290.877 499.016C290.877 507.186 290.877 515.356 290.877 523.526C290.877 531.695 290.877 539.865 290.877 548.035C290.877 556.177 290.877 564.316 290.877 572.458C290.877 580.6 290.877 588.738 290.877 596.88C290.877 605.05 290.877 613.22 290.877 621.389C290.877 629.559 290.877 637.729 290.877 645.899C290.877 654.041 290.877 662.179 290.877 670.321C290.877 678.463 290.877 686.602 290.877 694.744C290.877 702.914 290.877 711.084 290.877 719.253C290.877 727.423 290.877 735.593 290.877 743.763C290.877 751.905 290.877 760.043 290.877 768.185C290.877 776.327 290.877 784.466 290.877 792.608C290.877 800.778 290.877 808.947 290.877 817.117C290.877 825.287 290.877 833.457 290.877 841.626C290.877 846.771 290.877 851.92 290.884 857.065H295.976C295.987 851.573 295.98 846.078 295.98 840.587C295.98 832.445 295.98 824.306 295.98 816.164C295.98 808.022 295.98 799.884 295.98 791.742C295.98 783.572 295.98 775.402 295.98 767.232C295.98 759.063 295.98 750.893 295.98 742.723C295.98 734.581 295.98 726.443 295.98 718.3C295.98 710.158 295.98 702.02 295.98 693.878C295.98 685.708 295.98 677.538 295.98 669.369C295.98 661.227 295.98 653.088 295.98 644.946C295.98 636.776 295.98 628.606 295.98 620.437C295.98 612.295 295.98 604.156 295.98 596.014C295.98 587.844 295.98 579.675 295.98 571.505C295.98 563.363 295.98 555.224 295.98 547.082C295.98 538.912 295.98 530.743 295.98 522.573C295.98 514.431 295.98 506.292 295.98 498.15C295.98 490.008 295.98 481.87 295.98 473.728C295.98 465.558 295.98 457.388 295.98 449.218C295.98 441.049 295.98 432.879 295.98 424.709C295.98 416.567 295.98 408.428 295.98 400.286C295.98 392.144 295.98 384.006 295.98 375.864C295.98 367.694 295.98 359.524 295.98 351.355C295.98 343.185 295.98 335.015 295.98 326.845C295.98 318.703 295.98 310.565 295.98 302.423C295.98 294.281 295.98 286.142 295.98 278C295.98 269.83 295.98 261.66 295.98 253.491C295.98 245.321 295.98 237.151 295.98 228.981C295.98 220.839 295.98 212.701 295.98 204.559C295.98 196.417 295.98 188.278 295.98 180.136C295.98 171.966 295.98 163.797 295.98 155.627C295.98 147.457 295.98 139.287 295.98 131.118C295.98 122.976 295.98 114.837 295.98 106.695C295.98 98.553 295.98 90.4144 295.98 82.2724C295.98 74.1026 295.98 65.9329 295.98 57.7631C295.98 49.5934 295.98 41.4236 295.98 33.2539C295.98 25.1118 295.98 16.9733 295.966 8.83123C295.956 0.689192 295.942 -7.44938 295.931 -15.5914H295.966Z" fill="#96C7E0"/>
<path opacity="0.49" d="M361.076 -15.5914C361.076 -16.8318 361.073 -18.0721 361.069 -19.3125H356.039C356.039 -17.7846 356.036 -16.2566 356.032 -14.7252C356.022 -6.55549 356.008 1.61427 355.998 9.78402C355.987 17.9538 355.987 26.1235 355.987 34.2933C355.987 42.4353 355.987 50.5739 355.987 58.7159C355.987 66.858 355.987 74.9965 355.987 83.1386C355.987 91.3083 355.987 99.4781 355.987 107.648C355.987 115.79 355.987 123.928 355.987 132.07C355.987 140.24 355.987 148.41 355.987 156.58C355.987 164.722 355.987 172.86 355.987 181.002C355.987 189.172 355.987 197.342 355.987 205.512C355.987 213.654 355.987 221.792 355.987 229.934C355.987 238.104 355.987 246.274 355.987 254.444C355.987 262.586 355.987 270.724 355.987 278.866C355.987 287.008 355.987 295.147 355.987 303.289C355.987 311.459 355.987 319.628 355.987 327.798C355.987 335.968 355.987 344.138 355.987 352.307C355.987 360.449 355.987 368.588 355.987 376.73C355.987 384.872 355.987 393.011 355.987 401.153C355.987 409.322 355.987 417.492 355.987 425.662C355.987 433.832 355.987 442.001 355.987 450.171V474.594C355.987 482.736 355.987 490.874 355.987 499.016C355.987 507.186 355.987 515.356 355.987 523.526C355.987 531.695 355.987 539.865 355.987 548.035C355.987 556.177 355.987 564.316 355.987 572.458V596.88C355.987 605.05 355.987 613.22 355.987 621.389C355.987 629.559 355.987 637.729 355.987 645.899C355.987 654.041 355.987 662.179 355.987 670.321C355.987 678.463 355.987 686.602 355.987 694.744C355.987 702.914 355.987 711.084 355.987 719.253C355.987 727.423 355.987 735.593 355.987 743.763V768.185C355.987 776.327 355.987 784.466 355.987 792.608C355.987 800.778 355.987 808.947 355.987 817.117C355.987 825.287 355.987 833.457 355.987 841.626C355.987 846.771 355.987 851.92 355.994 857.065H361.087C361.097 851.573 361.09 846.078 361.09 840.587C361.09 832.445 361.09 824.306 361.09 816.164C361.09 808.022 361.09 799.884 361.09 791.742C361.09 783.572 361.09 775.402 361.09 767.232C361.09 759.063 361.09 750.893 361.09 742.723V718.3C361.09 710.158 361.09 702.02 361.09 693.878C361.09 685.708 361.09 677.538 361.09 669.369C361.09 661.227 361.09 653.088 361.09 644.946C361.09 636.776 361.09 628.606 361.09 620.437V596.014C361.09 587.844 361.09 579.675 361.09 571.505C361.09 563.363 361.09 555.224 361.09 547.082C361.09 538.912 361.09 530.743 361.09 522.573C361.09 514.431 361.09 506.292 361.09 498.15C361.09 490.008 361.09 481.87 361.09 473.728C361.09 465.558 361.09 457.388 361.09 449.218C361.09 441.049 361.09 432.879 361.09 424.709C361.09 416.567 361.09 408.428 361.09 400.286C361.09 392.144 361.09 384.006 361.09 375.864C361.09 367.694 361.09 359.524 361.09 351.355C361.09 343.185 361.09 335.015 361.09 326.845C361.09 318.703 361.09 310.565 361.09 302.423C361.09 294.281 361.09 286.142 361.09 278C361.09 269.83 361.09 261.66 361.09 253.491C361.09 245.321 361.09 237.151 361.09 228.981C361.09 220.839 361.09 212.701 361.09 204.559C361.09 196.417 361.09 188.278 361.09 180.136C361.09 171.966 361.09 163.797 361.09 155.627C361.09 147.457 361.09 139.287 361.09 131.118C361.09 122.976 361.09 114.837 361.09 106.695C361.09 98.553 361.09 90.4144 361.09 82.2724C361.09 74.1026 361.09 65.9329 361.09 57.7631C361.09 49.5934 361.09 41.4236 361.09 33.2539C361.09 25.1118 361.09 16.9733 361.076 8.83123C361.066 0.689192 361.052 -7.44938 361.042 -15.5914H361.076Z" fill="#96C7E0"/>
<path d="M66.2441 -19.3125H64.8574V857.044H66.2441V-19.3125Z" fill="white"/>
<path d="M1.67378 -19.3125H0.287109V857.044H1.67378V-19.3125Z" fill="white"/>
<path d="M391.265 -19.3125H389.878V857.044H391.265V-19.3125Z" fill="white"/>
<path d="M131.354 -19.3125H129.968V857.044H131.354V-19.3125Z" fill="white"/>
<path d="M196.469 -19.3125H195.082V857.044H196.469V-19.3125Z" fill="white"/>
<path d="M261.584 -19.3125H260.197V857.044H261.584V-19.3125Z" fill="white"/>
<path d="M326.694 -19.3125H325.308V857.044H326.694V-19.3125Z" fill="white"/>
<path opacity="0.49" d="M399.796 29.119C398.552 29.0948 397.307 29.0671 396.063 29.0116C394.222 28.9285 392.36 28.9908 390.516 28.9839C388.668 28.977 386.82 28.9735 384.969 28.9666C381.243 28.9562 377.519 28.9423 373.793 28.9319C366.398 28.9077 359.004 28.8869 351.613 28.8869C344.219 28.8869 336.824 28.8869 329.433 28.8869C322.042 28.8869 314.644 28.8869 307.254 28.8869C299.831 28.8869 292.409 28.8869 284.987 28.8869C277.593 28.8869 270.198 28.8869 262.807 28.8869C255.413 28.8869 248.019 28.8869 240.628 28.8869C233.233 28.8869 225.839 28.8869 218.448 28.8869C211.054 28.8869 203.659 28.8869 196.268 28.8869C188.877 28.8869 181.479 28.8869 174.088 28.8869C166.694 28.8869 159.3 28.8869 151.909 28.8869C144.487 28.8869 137.064 28.8869 129.642 28.8869C122.248 28.8869 114.854 28.8869 107.463 28.8869C100.068 28.8869 92.6738 28.8869 85.2828 28.8869C77.8884 28.8869 70.494 28.8869 63.1031 28.8869C55.681 28.8869 48.2588 28.8869 40.8367 28.8869C33.4423 28.8869 26.0479 28.8869 18.657 28.8869C11.2626 28.8869 3.86818 28.8869 -3.52275 28.8869C-6.53875 28.8869 -9.55475 28.88 -12.5742 28.873V33.9869C-5.71715 33.9869 1.13991 33.9869 8.00045 33.9869C15.3948 33.9869 22.7892 33.9869 30.1802 33.9869C37.5711 33.9869 44.969 33.9869 52.3599 33.9869C59.7543 33.9869 67.1487 33.9869 74.5397 33.9869C81.9618 33.9869 89.3839 33.9869 96.806 33.9869C104.2 33.9869 111.595 33.9869 118.986 33.9869C126.38 33.9869 133.775 33.9869 141.166 33.9869C148.556 33.9869 155.954 33.9869 163.345 33.9869C170.74 33.9869 178.134 33.9869 185.525 33.9869C192.919 33.9869 200.314 33.9869 207.705 33.9869C215.099 33.9869 222.494 33.9869 229.884 33.9869C237.307 33.9869 244.729 33.9869 252.151 33.9869C259.545 33.9869 266.94 33.9869 274.331 33.9869C281.722 33.9869 289.119 33.9869 296.51 33.9869C303.901 33.9869 311.299 33.9869 318.69 33.9869C326.112 33.9869 333.534 33.9869 340.956 33.9869C348.351 33.9869 355.745 33.9973 363.136 33.9765C370.531 33.9523 377.925 33.9315 385.316 33.9073C390.142 33.8934 394.967 33.8761 399.793 33.7929V29.0913L399.796 29.119Z" fill="#96C7E0"/>
<path opacity="0.49" d="M399.796 94.0526C398.552 94.0284 397.307 94.0007 396.063 93.9452C394.222 93.8621 392.36 93.9244 390.516 93.9175C388.668 93.9106 386.82 93.9071 384.969 93.9002C381.243 93.8898 377.519 93.8759 373.793 93.8655C366.398 93.8413 359.004 93.8205 351.613 93.8205C344.219 93.8205 336.824 93.8205 329.433 93.8205C322.039 93.8205 314.644 93.8205 307.254 93.8205C299.831 93.8205 292.409 93.8205 284.987 93.8205C277.593 93.8205 270.198 93.8205 262.807 93.8205C255.413 93.8205 248.019 93.8205 240.628 93.8205C233.233 93.8205 225.839 93.8205 218.448 93.8205C211.054 93.8205 203.659 93.8205 196.268 93.8205C188.874 93.8205 181.479 93.8205 174.088 93.8205C166.694 93.8205 159.3 93.8205 151.909 93.8205C144.487 93.8205 137.064 93.8205 129.642 93.8205C122.248 93.8205 114.854 93.8205 107.463 93.8205C100.068 93.8205 92.6738 93.8205 85.2828 93.8205C77.8884 93.8205 70.494 93.8205 63.1031 93.8205C55.681 93.8205 48.2588 93.8205 40.8367 93.8205C33.4423 93.8205 26.0479 93.8205 18.657 93.8205C11.2626 93.8205 3.86818 93.8205 -3.52275 93.8205C-6.53875 93.8205 -9.55475 93.8136 -12.5742 93.8066V98.9205C-5.71715 98.9205 1.13991 98.9205 8.00045 98.9205C15.3948 98.9205 22.7892 98.9205 30.1802 98.9205C37.5711 98.9205 44.969 98.9205 52.3599 98.9205C59.7543 98.9205 67.1487 98.9205 74.5397 98.9205C81.9618 98.9205 89.3839 98.9205 96.806 98.9205C104.2 98.9205 111.595 98.9205 118.986 98.9205C126.38 98.9205 133.775 98.9205 141.166 98.9205C148.56 98.9205 155.954 98.9205 163.345 98.9205C170.74 98.9205 178.134 98.9205 185.525 98.9205C192.919 98.9205 200.314 98.9205 207.705 98.9205C215.099 98.9205 222.494 98.9205 229.884 98.9205C237.307 98.9205 244.729 98.9205 252.151 98.9205C259.545 98.9205 266.94 98.9205 274.331 98.9205C281.725 98.9205 289.119 98.9205 296.51 98.9205C303.905 98.9205 311.299 98.9205 318.69 98.9205C326.112 98.9205 333.534 98.9205 340.956 98.9205C348.351 98.9205 355.745 98.9309 363.136 98.9101C370.531 98.8859 377.925 98.8651 385.316 98.8408C390.142 98.827 394.967 98.8097 399.793 98.7265V94.0249L399.796 94.0526Z" fill="#96C7E0"/>
<path opacity="0.49" d="M399.796 158.984C398.552 158.96 397.307 158.932 396.063 158.877C394.222 158.794 392.36 158.856 390.516 158.849C388.668 158.842 386.82 158.839 384.969 158.832C381.243 158.821 377.519 158.808 373.793 158.797C366.398 158.773 359.004 158.752 351.613 158.752C344.219 158.752 336.824 158.752 329.433 158.752C322.039 158.752 314.644 158.752 307.254 158.752C299.831 158.752 292.409 158.752 284.987 158.752C277.593 158.752 270.198 158.752 262.807 158.752C255.413 158.752 248.019 158.752 240.628 158.752C233.233 158.752 225.839 158.752 218.448 158.752C211.054 158.752 203.659 158.752 196.268 158.752C188.874 158.752 181.479 158.752 174.088 158.752C166.694 158.752 159.3 158.752 151.909 158.752C144.487 158.752 137.064 158.752 129.642 158.752C122.248 158.752 114.854 158.752 107.463 158.752C100.068 158.752 92.6738 158.752 85.2828 158.752C77.8884 158.752 70.494 158.752 63.1031 158.752C55.681 158.752 48.2588 158.752 40.8367 158.752C33.4423 158.752 26.0479 158.752 18.657 158.752C11.2626 158.752 3.86818 158.752 -3.52275 158.752C-6.53875 158.752 -9.55475 158.745 -12.5742 158.738V163.852C-5.71715 163.852 1.13991 163.852 8.00045 163.852C15.3948 163.852 22.7892 163.852 30.1802 163.852C37.5711 163.852 44.969 163.852 52.3599 163.852C59.7543 163.852 67.1487 163.852 74.5397 163.852C81.9618 163.852 89.3839 163.852 96.806 163.852C104.2 163.852 111.595 163.852 118.986 163.852C126.38 163.852 133.775 163.852 141.166 163.852C148.56 163.852 155.954 163.852 163.345 163.852C170.736 163.852 178.134 163.852 185.525 163.852C192.919 163.852 200.314 163.852 207.705 163.852C215.099 163.852 222.494 163.852 229.884 163.852C237.307 163.852 244.729 163.852 252.151 163.852C259.545 163.852 266.94 163.852 274.331 163.852C281.725 163.852 289.119 163.852 296.51 163.852C303.905 163.852 311.299 163.852 318.69 163.852C326.112 163.852 333.534 163.852 340.956 163.852C348.351 163.852 355.745 163.863 363.136 163.842C370.531 163.818 377.925 163.797 385.316 163.772C390.142 163.759 394.967 163.741 399.793 163.658V158.957L399.796 158.984Z" fill="#96C7E0"/>
<path opacity="0.49" d="M399.796 223.912C398.552 223.888 397.307 223.86 396.063 223.805C394.222 223.721 392.36 223.784 390.516 223.777C388.668 223.77 386.82 223.766 384.969 223.76C381.243 223.749 377.519 223.735 373.793 223.725C366.398 223.701 359.004 223.68 351.613 223.68C344.219 223.68 336.824 223.68 329.433 223.68C322.042 223.68 314.644 223.68 307.254 223.68C299.831 223.68 292.409 223.68 284.987 223.68C277.593 223.68 270.198 223.68 262.807 223.68C255.413 223.68 248.019 223.68 240.628 223.68C233.233 223.68 225.839 223.68 218.448 223.68C211.054 223.68 203.659 223.68 196.268 223.68C188.877 223.68 181.479 223.68 174.088 223.68C166.694 223.68 159.3 223.68 151.909 223.68C144.487 223.68 137.064 223.68 129.642 223.68C122.248 223.68 114.854 223.68 107.463 223.68C100.068 223.68 92.6738 223.68 85.2828 223.68C77.8884 223.68 70.494 223.68 63.1031 223.68C55.681 223.68 48.2588 223.68 40.8367 223.68C33.4423 223.68 26.0479 223.68 18.657 223.68C11.2626 223.68 3.86818 223.68 -3.52275 223.68C-6.53875 223.68 -9.55475 223.673 -12.5742 223.666V228.78C-5.71715 228.78 1.13991 228.78 8.00045 228.78C15.3948 228.78 22.7892 228.78 30.1802 228.78C37.5711 228.78 44.969 228.78 52.3599 228.78C59.7543 228.78 67.1487 228.78 74.5397 228.78C81.9618 228.78 89.3839 228.78 96.806 228.78C104.2 228.78 111.595 228.78 118.986 228.78C126.38 228.78 133.775 228.78 141.166 228.78C148.556 228.78 155.954 228.78 163.345 228.78C170.736 228.78 178.134 228.78 185.525 228.78C192.919 228.78 200.314 228.78 207.705 228.78C215.099 228.78 222.494 228.78 229.884 228.78C237.307 228.78 244.729 228.78 252.151 228.78C259.545 228.78 266.94 228.78 274.331 228.78C281.722 228.78 289.119 228.78 296.51 228.78C303.901 228.78 311.299 228.78 318.69 228.78C326.112 228.78 333.534 228.78 340.956 228.78C348.351 228.78 355.745 228.79 363.136 228.77C370.531 228.745 377.925 228.724 385.316 228.7C390.142 228.686 394.967 228.669 399.793 228.586V223.884L399.796 223.912Z" fill="#96C7E0"/>
<path opacity="0.49" d="M399.796 288.844C398.552 288.819 397.307 288.792 396.063 288.736C394.222 288.653 392.36 288.715 390.516 288.709L384.969 288.691C381.243 288.681 377.519 288.667 373.793 288.657C366.398 288.632 359.004 288.612 351.613 288.612C344.219 288.612 336.824 288.612 329.433 288.612C322.039 288.612 314.644 288.612 307.254 288.612C299.831 288.612 292.409 288.612 284.987 288.612C277.593 288.612 270.198 288.612 262.807 288.612C255.413 288.612 248.019 288.612 240.628 288.612C233.233 288.612 225.839 288.612 218.448 288.612C211.054 288.612 203.659 288.612 196.268 288.612C188.877 288.612 181.479 288.612 174.088 288.612C166.694 288.612 159.3 288.612 151.909 288.612C144.487 288.612 137.064 288.612 129.642 288.612C122.248 288.612 114.854 288.612 107.463 288.612C100.068 288.612 92.6738 288.612 85.2828 288.612C77.8884 288.612 70.494 288.612 63.1031 288.612C55.681 288.612 48.2588 288.612 40.8367 288.612C33.4423 288.612 26.0479 288.612 18.657 288.612C11.2626 288.612 3.86818 288.612 -3.52275 288.612C-6.53875 288.612 -9.55475 288.605 -12.5742 288.598V293.712C-5.71715 293.712 1.13991 293.712 8.00045 293.712C15.3948 293.712 22.7892 293.712 30.1802 293.712C37.5711 293.712 44.969 293.712 52.3599 293.712C59.7543 293.712 67.1487 293.712 74.5397 293.712C81.9618 293.712 89.3839 293.712 96.806 293.712C104.2 293.712 111.595 293.712 118.986 293.712C126.38 293.712 133.775 293.712 141.166 293.712C148.56 293.712 155.954 293.712 163.345 293.712C170.736 293.712 178.134 293.712 185.525 293.712C192.919 293.712 200.314 293.712 207.705 293.712C215.099 293.712 222.494 293.712 229.884 293.712C237.307 293.712 244.729 293.712 252.151 293.712C259.545 293.712 266.94 293.712 274.331 293.712C281.722 293.712 289.119 293.712 296.51 293.712C303.901 293.712 311.299 293.712 318.69 293.712C326.112 293.712 333.534 293.712 340.956 293.712C348.351 293.712 355.745 293.722 363.136 293.701C370.531 293.677 377.925 293.656 385.316 293.632C390.142 293.618 394.967 293.601 399.793 293.518V288.816L399.796 288.844Z" fill="#96C7E0"/>
<path opacity="0.49" d="M399.796 353.775C398.552 353.751 397.307 353.723 396.063 353.668C394.222 353.585 392.36 353.647 390.516 353.64L384.969 353.623C381.243 353.612 377.519 353.599 373.793 353.588C366.398 353.564 359.004 353.543 351.613 353.543C344.219 353.543 336.824 353.543 329.433 353.543C322.039 353.543 314.644 353.543 307.254 353.543C299.831 353.543 292.409 353.543 284.987 353.543C277.593 353.543 270.198 353.543 262.807 353.543C255.413 353.543 248.019 353.543 240.628 353.543C233.233 353.543 225.839 353.543 218.448 353.543C211.054 353.543 203.659 353.543 196.268 353.543C188.874 353.543 181.479 353.543 174.088 353.543C166.694 353.543 159.3 353.543 151.909 353.543C144.487 353.543 137.064 353.543 129.642 353.543C122.248 353.543 114.854 353.543 107.463 353.543C100.068 353.543 92.6738 353.543 85.2828 353.543C77.8884 353.543 70.494 353.543 63.1031 353.543C55.681 353.543 48.2588 353.543 40.8367 353.543C33.4423 353.543 26.0479 353.543 18.657 353.543C11.2626 353.543 3.86818 353.543 -3.52275 353.543C-6.53875 353.543 -9.55475 353.536 -12.5742 353.529V358.643C-5.71715 358.643 1.13991 358.643 8.00045 358.643C15.3948 358.643 22.7892 358.643 30.1802 358.643C37.5746 358.643 44.969 358.643 52.3599 358.643C59.7543 358.643 67.1487 358.643 74.5397 358.643C81.9618 358.643 89.3839 358.643 96.806 358.643C104.2 358.643 111.595 358.643 118.986 358.643C126.38 358.643 133.775 358.643 141.166 358.643C148.56 358.643 155.954 358.643 163.345 358.643C170.736 358.643 178.134 358.643 185.525 358.643C192.919 358.643 200.314 358.643 207.705 358.643C215.099 358.643 222.494 358.643 229.884 358.643C237.307 358.643 244.729 358.643 252.151 358.643C259.545 358.643 266.94 358.643 274.331 358.643C281.725 358.643 289.119 358.643 296.51 358.643C303.901 358.643 311.299 358.643 318.69 358.643C326.112 358.643 333.534 358.643 340.956 358.643C348.351 358.643 355.745 358.654 363.136 358.633C370.531 358.609 377.925 358.588 385.316 358.564C390.142 358.55 394.967 358.532 399.793 358.449V353.748L399.796 353.775Z" fill="#96C7E0"/>
<path opacity="0.49" d="M399.796 418.707C398.552 418.683 397.307 418.655 396.063 418.599C394.222 418.516 392.36 418.579 390.516 418.572L384.969 418.554C381.243 418.544 377.519 418.53 373.793 418.52C366.398 418.496 359.004 418.475 351.613 418.475C344.219 418.475 336.824 418.475 329.433 418.475C322.039 418.475 314.644 418.475 307.254 418.475C299.831 418.475 292.409 418.475 284.987 418.475C277.593 418.475 270.198 418.475 262.807 418.475C255.413 418.475 248.019 418.475 240.628 418.475C233.233 418.475 225.839 418.475 218.448 418.475C211.054 418.475 203.659 418.475 196.268 418.475C188.874 418.475 181.479 418.475 174.088 418.475C166.694 418.475 159.3 418.475 151.909 418.475C144.487 418.475 137.064 418.475 129.642 418.475C122.248 418.475 114.854 418.475 107.463 418.475C100.068 418.475 92.6738 418.475 85.2828 418.475C77.8884 418.475 70.494 418.475 63.1031 418.475C55.681 418.475 48.2588 418.475 40.8367 418.475C33.4423 418.475 26.0479 418.475 18.657 418.475C11.2626 418.475 3.86818 418.475 -3.52275 418.475C-6.53875 418.475 -9.55475 418.468 -12.5742 418.461V423.575C-5.71715 423.575 1.13991 423.575 8.00045 423.575C15.3948 423.575 22.7892 423.575 30.1802 423.575C37.5746 423.575 44.969 423.575 52.3599 423.575C59.7543 423.575 67.1487 423.575 74.5397 423.575C81.9618 423.575 89.3839 423.575 96.806 423.575C104.2 423.575 111.595 423.575 118.986 423.575C126.38 423.575 133.775 423.575 141.166 423.575C148.556 423.575 155.954 423.575 163.345 423.575C170.736 423.575 178.134 423.575 185.525 423.575C192.919 423.575 200.314 423.575 207.705 423.575C215.099 423.575 222.494 423.575 229.884 423.575C237.307 423.575 244.729 423.575 252.151 423.575C259.545 423.575 266.94 423.575 274.331 423.575C281.725 423.575 289.119 423.575 296.51 423.575C303.901 423.575 311.299 423.575 318.69 423.575C326.112 423.575 333.534 423.575 340.956 423.575C348.351 423.575 355.745 423.585 363.136 423.564C370.531 423.54 377.925 423.519 385.316 423.495C390.142 423.481 394.967 423.464 399.793 423.381V418.679L399.796 418.707Z" fill="#96C7E0"/>
<path opacity="0.49" d="M399.796 483.639C398.552 483.614 397.307 483.587 396.063 483.531C394.222 483.448 392.36 483.51 390.516 483.503C388.668 483.497 386.82 483.493 384.969 483.486C381.243 483.476 377.519 483.462 373.793 483.451C366.398 483.427 359.004 483.406 351.613 483.406C344.219 483.406 336.824 483.406 329.433 483.406C322.039 483.406 314.644 483.406 307.254 483.406C299.831 483.406 292.409 483.406 284.987 483.406C277.593 483.406 270.198 483.406 262.807 483.406C255.413 483.406 248.019 483.406 240.628 483.406C233.233 483.406 225.839 483.406 218.448 483.406C211.054 483.406 203.659 483.406 196.268 483.406C188.874 483.406 181.479 483.406 174.088 483.406C166.694 483.406 159.3 483.406 151.909 483.406C144.487 483.406 137.064 483.406 129.642 483.406C122.248 483.406 114.854 483.406 107.463 483.406C100.068 483.406 92.6738 483.406 85.2828 483.406C77.8884 483.406 70.494 483.406 63.1031 483.406C55.681 483.406 48.2588 483.406 40.8367 483.406C33.4423 483.406 26.0479 483.406 18.657 483.406C11.2626 483.406 3.86818 483.406 -3.52275 483.406C-6.53875 483.406 -9.55475 483.4 -12.5742 483.393V488.506C-5.71715 488.506 1.13991 488.506 8.00045 488.506C15.3948 488.506 22.7892 488.506 30.1802 488.506C37.5746 488.506 44.969 488.506 52.3599 488.506C59.7543 488.506 67.1487 488.506 74.5397 488.506C81.9618 488.506 89.3839 488.506 96.806 488.506C104.2 488.506 111.595 488.506 118.986 488.506C126.38 488.506 133.775 488.506 141.166 488.506C148.556 488.506 155.954 488.506 163.345 488.506C170.74 488.506 178.134 488.506 185.525 488.506C192.919 488.506 200.314 488.506 207.705 488.506C215.099 488.506 222.494 488.506 229.884 488.506C237.307 488.506 244.729 488.506 252.151 488.506C259.545 488.506 266.94 488.506 274.331 488.506C281.725 488.506 289.119 488.506 296.51 488.506C303.901 488.506 311.299 488.506 318.69 488.506C326.112 488.506 333.534 488.506 340.956 488.506C348.351 488.506 355.745 488.517 363.136 488.496C370.531 488.472 377.925 488.451 385.316 488.427C390.142 488.413 394.967 488.396 399.793 488.312V483.611L399.796 483.639Z" fill="#96C7E0"/>
<path opacity="0.49" d="M399.796 548.57C398.552 548.546 397.307 548.518 396.063 548.463C394.222 548.38 392.36 548.442 390.516 548.435C388.668 548.428 386.82 548.425 384.969 548.418C381.243 548.407 377.519 548.394 373.793 548.383C366.398 548.359 359.004 548.338 351.613 548.338C344.219 548.338 336.824 548.338 329.433 548.338C322.039 548.338 314.644 548.338 307.254 548.338C299.831 548.338 292.409 548.338 284.987 548.338C277.593 548.338 270.198 548.338 262.807 548.338C255.413 548.338 248.019 548.338 240.628 548.338C233.233 548.338 225.839 548.338 218.448 548.338C211.054 548.338 203.659 548.338 196.268 548.338C188.874 548.338 181.479 548.338 174.088 548.338C166.694 548.338 159.3 548.338 151.909 548.338C144.487 548.338 137.064 548.338 129.642 548.338C122.248 548.338 114.854 548.338 107.463 548.338C100.068 548.338 92.6738 548.338 85.2828 548.338C77.8884 548.338 70.494 548.338 63.1031 548.338C55.681 548.338 48.2588 548.338 40.8367 548.338C33.4423 548.338 26.0479 548.338 18.657 548.338C11.2626 548.338 3.86818 548.338 -3.52275 548.338C-6.53875 548.338 -9.55475 548.331 -12.5742 548.324V553.438C-5.71715 553.438 1.13991 553.438 8.00045 553.438C15.3948 553.438 22.7892 553.438 30.1802 553.438C37.5746 553.438 44.969 553.438 52.3599 553.438C59.7543 553.438 67.1487 553.438 74.5397 553.438C81.9618 553.438 89.3839 553.438 96.806 553.438C104.2 553.438 111.595 553.438 118.986 553.438C126.38 553.438 133.775 553.438 141.166 553.438C148.556 553.438 155.954 553.438 163.345 553.438C170.74 553.438 178.134 553.438 185.525 553.438C192.919 553.438 200.314 553.438 207.705 553.438C215.099 553.438 222.494 553.438 229.884 553.438C237.307 553.438 244.729 553.438 252.151 553.438C259.545 553.438 266.94 553.438 274.331 553.438C281.722 553.438 289.119 553.438 296.51 553.438C303.901 553.438 311.299 553.438 318.69 553.438C326.112 553.438 333.534 553.438 340.956 553.438C348.351 553.438 355.745 553.448 363.136 553.428C370.531 553.403 377.925 553.383 385.316 553.358C390.142 553.345 394.967 553.327 399.793 553.244V548.542L399.796 548.57Z" fill="#96C7E0"/>
<path opacity="0.49" d="M399.796 613.504C398.552 613.48 397.307 613.452 396.063 613.396C394.222 613.313 392.36 613.376 390.516 613.369C388.668 613.362 386.82 613.358 384.969 613.351C381.243 613.341 377.519 613.327 373.793 613.317C366.398 613.292 359.004 613.272 351.613 613.272C344.219 613.272 336.824 613.272 329.433 613.272C322.039 613.272 314.644 613.272 307.254 613.272C299.831 613.272 292.409 613.272 284.987 613.272C277.593 613.272 270.198 613.272 262.807 613.272C255.413 613.272 248.019 613.272 240.628 613.272C233.233 613.272 225.839 613.272 218.448 613.272C211.054 613.272 203.659 613.272 196.268 613.272C188.874 613.272 181.479 613.272 174.088 613.272C166.694 613.272 159.3 613.272 151.909 613.272C144.487 613.272 137.064 613.272 129.642 613.272C122.248 613.272 114.854 613.272 107.463 613.272C100.068 613.272 92.6738 613.272 85.2828 613.272C77.8884 613.272 70.494 613.272 63.1031 613.272C55.681 613.272 48.2588 613.272 40.8367 613.272C33.4423 613.272 26.0479 613.272 18.657 613.272C11.2626 613.272 3.86818 613.272 -3.52275 613.272C-6.53875 613.272 -9.55475 613.265 -12.5742 613.258V618.372C-5.71715 618.372 1.13991 618.372 8.00045 618.372C15.3948 618.372 22.7892 618.372 30.1802 618.372C37.5746 618.372 44.969 618.372 52.3599 618.372C59.7543 618.372 67.1487 618.372 74.5397 618.372C81.9618 618.372 89.3839 618.372 96.806 618.372C104.2 618.372 111.595 618.372 118.986 618.372C126.38 618.372 133.775 618.372 141.166 618.372C148.556 618.372 155.954 618.372 163.345 618.372C170.74 618.372 178.134 618.372 185.525 618.372C192.919 618.372 200.314 618.372 207.705 618.372C215.099 618.372 222.494 618.372 229.884 618.372C237.307 618.372 244.729 618.372 252.151 618.372C259.545 618.372 266.94 618.372 274.331 618.372C281.722 618.372 289.119 618.372 296.51 618.372C303.905 618.372 311.299 618.372 318.69 618.372C326.112 618.372 333.534 618.372 340.956 618.372C348.351 618.372 355.745 618.382 363.136 618.361C370.531 618.337 377.925 618.316 385.316 618.292C390.142 618.278 394.967 618.261 399.793 618.178V613.476L399.796 613.504Z" fill="#96C7E0"/>
<path opacity="0.49" d="M399.796 678.435C398.552 678.411 397.307 678.383 396.063 678.328C394.222 678.245 392.36 678.307 390.516 678.3C388.668 678.293 386.82 678.29 384.969 678.283C381.243 678.273 377.519 678.259 373.793 678.248C366.398 678.224 359.004 678.203 351.613 678.203C344.219 678.203 336.824 678.203 329.433 678.203C322.039 678.203 314.644 678.203 307.254 678.203C299.831 678.203 292.409 678.203 284.987 678.203C277.593 678.203 270.198 678.203 262.807 678.203C255.413 678.203 248.019 678.203 240.628 678.203C233.233 678.203 225.839 678.203 218.448 678.203C211.054 678.203 203.659 678.203 196.268 678.203C188.874 678.203 181.479 678.203 174.088 678.203C166.694 678.203 159.3 678.203 151.909 678.203C144.487 678.203 137.064 678.203 129.642 678.203C122.248 678.203 114.854 678.203 107.463 678.203C100.068 678.203 92.6738 678.203 85.2828 678.203C77.8884 678.203 70.494 678.203 63.1031 678.203C55.681 678.203 48.2588 678.203 40.8367 678.203C33.4423 678.203 26.0479 678.203 18.657 678.203C11.2626 678.203 3.86818 678.203 -3.52275 678.203C-6.53875 678.203 -9.55475 678.196 -12.5742 678.189V683.303C-5.71715 683.303 1.13991 683.303 8.00045 683.303C15.3948 683.303 22.7892 683.303 30.1802 683.303C37.5746 683.303 44.969 683.303 52.3599 683.303C59.7543 683.303 67.1487 683.303 74.5397 683.303C81.9618 683.303 89.3839 683.303 96.806 683.303C104.2 683.303 111.595 683.303 118.986 683.303C126.38 683.303 133.775 683.303 141.166 683.303C148.556 683.303 155.954 683.303 163.345 683.303C170.74 683.303 178.134 683.303 185.525 683.303C192.919 683.303 200.314 683.303 207.705 683.303C215.099 683.303 222.494 683.303 229.884 683.303C237.307 683.303 244.729 683.303 252.151 683.303C259.545 683.303 266.94 683.303 274.331 683.303C281.722 683.303 289.119 683.303 296.51 683.303C303.905 683.303 311.299 683.303 318.69 683.303C326.112 683.303 333.534 683.303 340.956 683.303C348.351 683.303 355.745 683.314 363.136 683.293C370.531 683.269 377.925 683.248 385.316 683.224C390.142 683.21 394.967 683.192 399.793 683.109V678.408L399.796 678.435Z" fill="#96C7E0"/>
<path opacity="0.49" d="M399.796 743.363C398.552 743.339 397.307 743.311 396.063 743.256C394.222 743.173 392.36 743.235 390.516 743.228L384.969 743.211C381.243 743.2 377.519 743.186 373.793 743.176C366.398 743.152 359.004 743.131 351.613 743.131C344.219 743.131 336.824 743.131 329.433 743.131C322.039 743.131 314.644 743.131 307.254 743.131C299.831 743.131 292.409 743.131 284.987 743.131C277.593 743.131 270.198 743.131 262.807 743.131C255.413 743.131 248.019 743.131 240.628 743.131C233.233 743.131 225.839 743.131 218.448 743.131C211.054 743.131 203.659 743.131 196.268 743.131C188.874 743.131 181.479 743.131 174.088 743.131C166.694 743.131 159.3 743.131 151.909 743.131C144.487 743.131 137.064 743.131 129.642 743.131C122.248 743.131 114.854 743.131 107.463 743.131C100.068 743.131 92.6738 743.131 85.2828 743.131C77.8884 743.131 70.494 743.131 63.1031 743.131C55.681 743.131 48.2588 743.131 40.8367 743.131C33.4423 743.131 26.0479 743.131 18.657 743.131C11.2626 743.131 3.86818 743.131 -3.52275 743.131C-6.53875 743.131 -9.55475 743.124 -12.5742 743.117V748.231C-5.71715 748.231 1.13991 748.231 8.00045 748.231C15.3948 748.231 22.7892 748.231 30.1802 748.231C37.5711 748.231 44.969 748.231 52.3599 748.231C59.7543 748.231 67.1487 748.231 74.5397 748.231C81.9618 748.231 89.3839 748.231 96.806 748.231C104.2 748.231 111.595 748.231 118.986 748.231C126.38 748.231 133.775 748.231 141.166 748.231C148.556 748.231 155.954 748.231 163.345 748.231C170.74 748.231 178.134 748.231 185.525 748.231C192.919 748.231 200.314 748.231 207.705 748.231C215.099 748.231 222.494 748.231 229.884 748.231C237.307 748.231 244.729 748.231 252.151 748.231C259.545 748.231 266.94 748.231 274.331 748.231C281.722 748.231 289.119 748.231 296.51 748.231C303.901 748.231 311.299 748.231 318.69 748.231C326.112 748.231 333.534 748.231 340.956 748.231C348.351 748.231 355.745 748.241 363.136 748.221C370.531 748.196 377.925 748.176 385.316 748.151C390.142 748.138 394.967 748.12 399.793 748.037V743.335L399.796 743.363Z" fill="#96C7E0"/>
<path opacity="0.49" d="M399.796 808.295C398.552 808.271 397.307 808.243 396.063 808.187C394.222 808.104 392.36 808.167 390.516 808.16L384.969 808.142C381.243 808.132 377.519 808.118 373.793 808.108C366.398 808.083 359.004 808.063 351.613 808.063C344.219 808.063 336.824 808.063 329.433 808.063C322.039 808.063 314.644 808.063 307.254 808.063C299.831 808.063 292.409 808.063 284.987 808.063C277.593 808.063 270.198 808.063 262.807 808.063C255.413 808.063 248.019 808.063 240.628 808.063C233.233 808.063 225.839 808.063 218.448 808.063C211.054 808.063 203.659 808.063 196.268 808.063C188.874 808.063 181.479 808.063 174.088 808.063C166.694 808.063 159.3 808.063 151.909 808.063C144.487 808.063 137.064 808.063 129.642 808.063C122.248 808.063 114.854 808.063 107.463 808.063C100.068 808.063 92.6738 808.063 85.2828 808.063C77.8884 808.063 70.494 808.063 63.1031 808.063C55.681 808.063 48.2588 808.063 40.8367 808.063C33.4423 808.063 26.0479 808.063 18.657 808.063C11.2626 808.063 3.86818 808.063 -3.52275 808.063C-6.53875 808.063 -9.55475 808.056 -12.5742 808.049V813.163C-5.71715 813.163 1.13991 813.163 8.00045 813.163C15.3948 813.163 22.7892 813.163 30.1802 813.163C37.5711 813.163 44.969 813.163 52.3599 813.163C59.7543 813.163 67.1487 813.163 74.5397 813.163C81.9618 813.163 89.3839 813.163 96.806 813.163C104.2 813.163 111.595 813.163 118.986 813.163C126.38 813.163 133.775 813.163 141.166 813.163C148.556 813.163 155.954 813.163 163.345 813.163C170.74 813.163 178.134 813.163 185.525 813.163C192.919 813.163 200.314 813.163 207.705 813.163C215.099 813.163 222.494 813.163 229.884 813.163C237.307 813.163 244.729 813.163 252.151 813.163C259.545 813.163 266.94 813.163 274.331 813.163C281.722 813.163 289.119 813.163 296.51 813.163C303.901 813.163 311.299 813.163 318.69 813.163C326.112 813.163 333.534 813.163 340.956 813.163C348.351 813.163 355.745 813.173 363.136 813.152C370.531 813.128 377.925 813.107 385.316 813.083C390.142 813.069 394.967 813.052 399.793 812.969V808.267L399.796 808.295Z" fill="#96C7E0"/>
<path d="M399.8 322.949H-12.584V324.336H399.8V322.949Z" fill="white"/>
<path d="M399.8 258.018H-12.584V259.404H399.8V258.018Z" fill="white"/>
<path d="M399.8 193.086H-12.584V194.473H399.8V193.086Z" fill="white"/>
<path d="M399.8 128.158H-12.584V129.545H399.8V128.158Z" fill="white"/>
<path d="M399.8 63.2266H-12.584V64.6132H399.8V63.2266Z" fill="white"/>
<path d="M399.8 647.609H-12.584V648.996H399.8V647.609Z" fill="white"/>
<path d="M399.8 582.678H-12.584V584.064H399.8V582.678Z" fill="white"/>
<path d="M399.8 517.746H-12.584V519.133H399.8V517.746Z" fill="white"/>
<path d="M399.8 452.814H-12.584V454.201H399.8V452.814Z" fill="white"/>
<path d="M399.8 387.883H-12.584V389.269H399.8V387.883Z" fill="white"/>
<path d="M399.8 777.471H-12.584V778.857H399.8V777.471Z" fill="white"/>
<path d="M399.8 842.547H-12.584V843.934H399.8V842.547Z" fill="white"/>
<path d="M399.8 712.539H-12.584V713.926H399.8V712.539Z" fill="white"/>
<path d="M137.54 57.9248C136.223 56.8958 134.406 56.5389 132.836 57.1868C132.004 57.5298 131.328 58.098 130.79 58.7736C130.399 58.2782 129.948 57.8278 129.39 57.4986C127.92 56.6359 126.083 56.674 124.613 57.5264C122.987 58.4722 122.179 60.2565 122.418 62.1067C122.675 64.1127 123.909 65.7169 125.254 67.1513C126.783 68.7762 128.468 70.2626 130.319 71.5133C130.461 71.6069 130.624 71.6277 130.787 71.6103C130.95 71.6242 131.116 71.6103 131.258 71.5133C132.901 70.4012 134.413 69.1088 135.8 67.6952C137.134 66.3336 138.504 64.823 139.003 62.9347C139.485 61.1123 139.062 59.1236 137.536 57.9317L137.54 57.9248Z" fill="#FFDCDE"/>
<path d="M7.42563 57.9248C6.1083 56.8958 4.29177 56.5389 2.72137 57.1868C1.88937 57.5298 1.21337 58.098 0.676032 58.7736C0.284299 58.2782 -0.166368 57.8278 -0.724501 57.4986C-2.19437 56.6359 -4.0317 56.674 -5.50157 57.5264C-7.12743 58.4722 -7.93517 60.2565 -7.69597 62.1067C-7.43943 64.1127 -6.2053 65.7169 -4.86023 67.1513C-3.33143 68.7762 -1.64663 70.2626 0.204565 71.5133C0.346699 71.6069 0.509632 71.6277 0.672565 71.6103C0.835499 71.6242 1.0019 71.6103 1.14403 71.5133C2.78723 70.4012 4.2987 69.1088 5.68536 67.6952C7.02003 66.3336 8.38937 64.823 8.88857 62.9347C9.37043 61.1123 8.9475 59.1236 7.42217 57.9317L7.42563 57.9248Z" fill="#FFDCDE"/>
<path d="M397.769 57.9248C396.452 56.8958 394.635 56.5389 393.065 57.1868C392.233 57.5298 391.557 58.098 391.02 58.7736C390.628 58.2782 390.177 57.8278 389.619 57.4986C388.149 56.6359 386.312 56.674 384.842 57.5264C383.216 58.4722 382.409 60.2565 382.648 62.1067C382.904 64.1127 384.138 65.7169 385.483 67.1513C387.012 68.7762 388.697 70.2626 390.548 71.5133C390.69 71.6069 390.853 71.6277 391.016 71.6103C391.179 71.6242 391.346 71.6103 391.488 71.5133C393.131 70.4012 394.642 69.1088 396.029 67.6952C397.364 66.3336 398.733 64.823 399.232 62.9347C399.714 61.1123 399.291 59.1236 397.766 57.9317L397.769 57.9248Z" fill="#FFDCDE"/>
<path d="M267.655 57.9248C266.338 56.8958 264.521 56.5389 262.951 57.1868C262.119 57.5298 261.443 58.098 260.906 58.7736C260.514 58.2782 260.063 57.8278 259.505 57.4986C258.035 56.6359 256.198 56.674 254.728 57.5264C253.102 58.4722 252.294 60.2565 252.534 62.1067C252.79 64.1127 254.024 65.7169 255.369 67.1513C256.898 68.7762 258.583 70.2626 260.434 71.5133C260.576 71.6069 260.739 71.6277 260.902 71.6103C261.065 71.6242 261.231 71.6103 261.374 71.5133C263.017 70.4012 264.528 69.1088 265.915 67.6952C267.25 66.3336 268.619 64.823 269.118 62.9347C269.6 61.1123 269.177 59.1236 267.652 57.9317L267.655 57.9248Z" fill="#FFDCDE"/>
<path d="M137.54 187.536C136.223 186.507 134.406 186.15 132.836 186.798C132.004 187.141 131.328 187.709 130.79 188.385C130.399 187.89 129.948 187.439 129.39 187.11C127.92 186.247 126.083 186.285 124.613 187.138C122.987 188.084 122.179 189.868 122.418 191.718C122.675 193.724 123.909 195.328 125.254 196.763C126.783 198.388 128.468 199.874 130.319 201.125C130.461 201.218 130.624 201.239 130.787 201.222C130.95 201.236 131.116 201.222 131.258 201.125C132.901 200.012 134.413 198.72 135.8 197.307C137.134 195.945 138.504 194.434 139.003 192.546C139.485 190.724 139.062 188.735 137.536 187.543L137.54 187.536Z" fill="#FFDCDE"/>
<path d="M7.42563 187.536C6.1083 186.507 4.29177 186.15 2.72137 186.798C1.88937 187.141 1.21337 187.709 0.676032 188.385C0.284299 187.89 -0.166368 187.439 -0.724501 187.11C-2.19437 186.247 -4.0317 186.285 -5.50157 187.138C-7.12743 188.084 -7.93517 189.868 -7.69597 191.718C-7.43943 193.724 -6.2053 195.328 -4.86023 196.763C-3.33143 198.388 -1.64663 199.874 0.204565 201.125C0.346699 201.218 0.509632 201.239 0.672565 201.222C0.835499 201.236 1.0019 201.222 1.14403 201.125C2.78723 200.012 4.2987 198.72 5.68536 197.307C7.02003 195.945 8.38937 194.434 8.88857 192.546C9.37043 190.724 8.9475 188.735 7.42217 187.543L7.42563 187.536Z" fill="#FFDCDE"/>
<path d="M397.769 187.536C396.452 186.507 394.635 186.15 393.065 186.798C392.233 187.141 391.557 187.709 391.02 188.385C390.628 187.89 390.177 187.439 389.619 187.11C388.149 186.247 386.312 186.285 384.842 187.138C383.216 188.084 382.409 189.868 382.648 191.718C382.904 193.724 384.138 195.328 385.483 196.763C387.012 198.388 388.697 199.874 390.548 201.125C390.69 201.218 390.853 201.239 391.016 201.222C391.179 201.236 391.346 201.222 391.488 201.125C393.131 200.012 394.642 198.72 396.029 197.307C397.364 195.945 398.733 194.434 399.232 192.546C399.714 190.724 399.291 188.735 397.766 187.543L397.769 187.536Z" fill="#FFDCDE"/>
<path d="M267.655 187.536C266.338 186.507 264.521 186.15 262.951 186.798C262.119 187.141 261.443 187.709 260.906 188.385C260.514 187.89 260.063 187.439 259.505 187.11C258.035 186.247 256.198 186.285 254.728 187.138C253.102 188.084 252.294 189.868 252.534 191.718C252.79 193.724 254.024 195.328 255.369 196.763C256.898 198.388 258.583 199.874 260.434 201.125C260.576 201.218 260.739 201.239 260.902 201.222C261.065 201.236 261.231 201.222 261.374 201.125C263.017 200.012 264.528 198.72 265.915 197.307C267.25 195.945 268.619 194.434 269.118 192.546C269.6 190.724 269.177 188.735 267.652 187.543L267.655 187.536Z" fill="#FFDCDE"/>
<path d="M202.651 -6.87794C201.334 -7.90696 199.517 -8.26382 197.947 -7.61592C197.115 -7.27292 196.439 -6.70471 195.902 -6.02909C195.51 -6.52454 195.059 -6.97495 194.501 -7.3041C193.031 -8.16681 191.194 -8.1287 189.724 -7.27638C188.098 -6.33052 187.29 -4.5462 187.53 -2.69605C187.786 -0.689993 189.02 0.914162 190.365 2.34855C191.894 3.97349 193.579 5.45984 195.43 6.7106C195.572 6.80415 195.735 6.82493 195.898 6.80761C196.061 6.82147 196.227 6.80761 196.37 6.7106C198.013 5.59843 199.524 4.3061 200.911 2.8925C202.246 1.53088 203.615 0.0202707 204.114 -1.86799C204.596 -3.69042 204.173 -5.67916 202.648 -6.87101L202.651 -6.87794Z" fill="#FFDCDE"/>
<path d="M72.3006 -6.87794C70.9833 -7.90696 69.1668 -8.26382 67.5964 -7.61592C66.7644 -7.27292 66.0884 -6.70471 65.551 -6.02909C65.1593 -6.52454 64.7086 -6.97495 64.1505 -7.3041C62.6806 -8.16681 60.8433 -8.1287 59.3734 -7.27638C57.7476 -6.33052 56.9398 -4.5462 57.179 -2.69605C57.4356 -0.689993 58.6697 0.914162 60.0148 2.34855C61.5436 3.97349 63.2284 5.45984 65.0796 6.7106C65.2217 6.80415 65.3846 6.82493 65.5476 6.80761C65.7105 6.82147 65.8769 6.80761 66.019 6.7106C67.6622 5.59843 69.1737 4.3061 70.5604 2.8925C71.895 1.53088 73.2644 0.0202707 73.7636 -1.86799C74.2454 -3.69042 73.8225 -5.67916 72.2972 -6.87101L72.3006 -6.87794Z" fill="#FFDCDE"/>
<path d="M332.998 -6.87794C331.681 -7.90696 329.864 -8.26382 328.294 -7.61592C327.462 -7.27292 326.786 -6.70471 326.248 -6.02909C325.857 -6.52454 325.406 -6.97495 324.848 -7.3041C323.378 -8.16681 321.541 -8.1287 320.071 -7.27638C318.445 -6.33052 317.637 -4.5462 317.876 -2.69605C318.133 -0.689993 319.367 0.914162 320.712 2.34855C322.241 3.97349 323.926 5.45984 325.777 6.7106C325.919 6.80415 326.082 6.82493 326.245 6.80761C326.408 6.82147 326.574 6.80761 326.716 6.7106C328.359 5.59843 329.871 4.3061 331.258 2.8925C332.592 1.53088 333.962 0.0202707 334.461 -1.86799C334.943 -3.69042 334.52 -5.67916 332.994 -6.87101L332.998 -6.87794Z" fill="#FFDCDE"/>
<path d="M203.192 122.729C201.875 121.7 200.058 121.344 198.488 121.992C197.656 122.335 196.98 122.903 196.443 123.578C196.051 123.083 195.6 122.632 195.042 122.303C193.572 121.441 191.735 121.479 190.265 122.331C188.639 123.277 187.831 125.061 188.071 126.911C188.327 128.917 189.561 130.522 190.906 131.956C192.435 133.581 194.12 135.067 195.971 136.318C196.113 136.412 196.276 136.432 196.439 136.415C196.602 136.429 196.768 136.415 196.911 136.318C198.554 135.206 200.065 133.914 201.452 132.5C202.787 131.138 204.156 129.628 204.655 127.739C205.137 125.917 204.714 123.928 203.189 122.736L203.192 122.729Z" fill="#FFDCDE"/>
<path d="M72.8456 122.729C71.5282 121.7 69.7117 121.344 68.1413 121.992C67.3093 122.335 66.6333 122.903 66.096 123.578C65.7042 123.083 65.2536 122.632 64.6954 122.303C63.2256 121.441 61.3882 121.479 59.9184 122.331C58.2925 123.277 57.4848 125.061 57.724 126.911C57.9805 128.917 59.2146 130.522 60.5597 131.956C62.0885 133.581 63.7733 135.067 65.6245 136.318C65.7666 136.412 65.9296 136.432 66.0925 136.415C66.2554 136.429 66.4218 136.415 66.564 136.318C68.2072 135.206 69.7186 133.914 71.1053 132.5C72.44 131.138 73.8093 129.628 74.3085 127.739C74.7904 125.917 74.3674 123.928 72.8421 122.736L72.8456 122.729Z" fill="#FFDCDE"/>
<path d="M333.539 122.729C332.222 121.7 330.405 121.344 328.835 121.992C328.003 122.335 327.327 122.903 326.789 123.578C326.398 123.083 325.947 122.632 325.389 122.303C323.919 121.441 322.082 121.479 320.612 122.331C318.986 123.277 318.178 125.061 318.417 126.911C318.674 128.917 319.908 130.522 321.253 131.956C322.782 133.581 324.467 135.067 326.318 136.318C326.46 136.412 326.623 136.432 326.786 136.415C326.949 136.429 327.115 136.415 327.257 136.318C328.901 135.206 330.412 133.914 331.799 132.5C333.133 131.138 334.503 129.628 335.002 127.739C335.484 125.917 335.061 123.928 333.535 122.736L333.539 122.729Z" fill="#FFDCDE"/>
<path d="M137.54 317.687C136.223 316.657 134.406 316.301 132.836 316.949C132.004 317.292 131.328 317.86 130.79 318.535C130.399 318.04 129.948 317.59 129.39 317.26C127.92 316.398 126.083 316.436 124.613 317.288C122.987 318.234 122.179 320.018 122.418 321.868C122.675 323.874 123.909 325.479 125.254 326.913C126.783 328.538 128.468 330.024 130.319 331.275C130.461 331.369 130.624 331.389 130.787 331.372C130.95 331.386 131.116 331.372 131.258 331.275C132.901 330.163 134.413 328.871 135.8 327.457C137.134 326.095 138.504 324.585 139.003 322.696C139.485 320.874 139.062 318.885 137.536 317.693L137.54 317.687Z" fill="#FFDCDE"/>
<path d="M7.42563 317.687C6.1083 316.657 4.29177 316.301 2.72137 316.949C1.88937 317.292 1.21337 317.86 0.676032 318.535C0.284299 318.04 -0.166368 317.59 -0.724501 317.26C-2.19437 316.398 -4.0317 316.436 -5.50157 317.288C-7.12743 318.234 -7.93517 320.018 -7.69597 321.868C-7.43943 323.874 -6.2053 325.479 -4.86023 326.913C-3.33143 328.538 -1.64663 330.024 0.204565 331.275C0.346699 331.369 0.509632 331.389 0.672565 331.372C0.835499 331.386 1.0019 331.372 1.14403 331.275C2.78723 330.163 4.2987 328.871 5.68536 327.457C7.02003 326.095 8.38937 324.585 8.88857 322.696C9.37043 320.874 8.9475 318.885 7.42217 317.693L7.42563 317.687Z" fill="#FFDCDE"/>
<path d="M397.769 317.687C396.452 316.657 394.635 316.301 393.065 316.949C392.233 317.292 391.557 317.86 391.02 318.535C390.628 318.04 390.177 317.59 389.619 317.26C388.149 316.398 386.312 316.436 384.842 317.288C383.216 318.234 382.409 320.018 382.648 321.868C382.904 323.874 384.138 325.479 385.483 326.913C387.012 328.538 388.697 330.024 390.548 331.275C390.69 331.369 390.853 331.389 391.016 331.372C391.179 331.386 391.346 331.372 391.488 331.275C393.131 330.163 394.642 328.871 396.029 327.457C397.364 326.095 398.733 324.585 399.232 322.696C399.714 320.874 399.291 318.885 397.766 317.693L397.769 317.687Z" fill="#FFDCDE"/>
<path d="M267.655 317.687C266.338 316.657 264.521 316.301 262.951 316.949C262.119 317.292 261.443 317.86 260.906 318.535C260.514 318.04 260.063 317.59 259.505 317.26C258.035 316.398 256.198 316.436 254.728 317.288C253.102 318.234 252.294 320.018 252.534 321.868C252.79 323.874 254.024 325.479 255.369 326.913C256.898 328.538 258.583 330.024 260.434 331.275C260.576 331.369 260.739 331.389 260.902 331.372C261.065 331.386 261.231 331.372 261.374 331.275C263.017 330.163 264.528 328.871 265.915 327.457C267.25 326.095 268.619 324.585 269.118 322.696C269.6 320.874 269.177 318.885 267.652 317.693L267.655 317.687Z" fill="#FFDCDE"/>
<path d="M137.54 447.298C136.223 446.269 134.406 445.912 132.836 446.56C132.004 446.903 131.328 447.471 130.79 448.147C130.399 447.651 129.948 447.201 129.39 446.872C127.92 446.009 126.083 446.047 124.613 446.899C122.987 447.845 122.179 449.63 122.418 451.48C122.675 453.486 123.909 455.09 125.254 456.524C126.783 458.149 128.468 459.636 130.319 460.886C130.461 460.98 130.624 461.001 130.787 460.983C130.95 460.997 131.116 460.983 131.258 460.886C132.901 459.774 134.413 458.482 135.8 457.068C137.134 455.707 138.504 454.196 139.003 452.308C139.485 450.485 139.062 448.497 137.536 447.305L137.54 447.298Z" fill="#FFDCDE"/>
<path d="M7.42563 447.298C6.1083 446.269 4.29177 445.912 2.72137 446.56C1.88937 446.903 1.21337 447.471 0.676032 448.147C0.284299 447.651 -0.166368 447.201 -0.724501 446.872C-2.19437 446.009 -4.0317 446.047 -5.50157 446.899C-7.12743 447.845 -7.93517 449.63 -7.69597 451.48C-7.43943 453.486 -6.2053 455.09 -4.86023 456.524C-3.33143 458.149 -1.64663 459.636 0.204565 460.886C0.346699 460.98 0.509632 461.001 0.672565 460.983C0.835499 460.997 1.0019 460.983 1.14403 460.886C2.78723 459.774 4.2987 458.482 5.68536 457.068C7.02003 455.707 8.38937 454.196 8.88857 452.308C9.37043 450.485 8.9475 448.497 7.42217 447.305L7.42563 447.298Z" fill="#FFDCDE"/>
<path d="M397.769 447.298C396.452 446.269 394.635 445.912 393.065 446.56C392.233 446.903 391.557 447.471 391.02 448.147C390.628 447.651 390.177 447.201 389.619 446.872C388.149 446.009 386.312 446.047 384.842 446.899C383.216 447.845 382.409 449.63 382.648 451.48C382.904 453.486 384.138 455.09 385.483 456.524C387.012 458.149 388.697 459.636 390.548 460.886C390.69 460.98 390.853 461.001 391.016 460.983C391.179 460.997 391.346 460.983 391.488 460.886C393.131 459.774 394.642 458.482 396.029 457.068C397.364 455.707 398.733 454.196 399.232 452.308C399.714 450.485 399.291 448.497 397.766 447.305L397.769 447.298Z" fill="#FFDCDE"/>
<path d="M267.655 447.298C266.338 446.269 264.521 445.912 262.951 446.56C262.119 446.903 261.443 447.471 260.906 448.147C260.514 447.651 260.063 447.201 259.505 446.872C258.035 446.009 256.198 446.047 254.728 446.899C253.102 447.845 252.294 449.63 252.534 451.48C252.79 453.486 254.024 455.09 255.369 456.524C256.898 458.149 258.583 459.636 260.434 460.886C260.576 460.98 260.739 461.001 260.902 460.983C261.065 460.997 261.231 460.983 261.374 460.886C263.017 459.774 264.528 458.482 265.915 457.068C267.25 455.707 268.619 454.196 269.118 452.308C269.6 450.485 269.177 448.497 267.652 447.305L267.655 447.298Z" fill="#FFDCDE"/>
<path d="M202.651 252.884C201.334 251.855 199.517 251.498 197.947 252.146C197.115 252.489 196.439 253.057 195.902 253.733C195.51 253.237 195.059 252.787 194.501 252.458C193.031 251.595 191.194 251.633 189.724 252.485C188.098 253.431 187.29 255.216 187.53 257.066C187.786 259.072 189.02 260.676 190.365 262.11C191.894 263.735 193.579 265.222 195.43 266.472C195.572 266.566 195.735 266.587 195.898 266.569C196.061 266.583 196.227 266.569 196.37 266.472C198.013 265.36 199.524 264.068 200.911 262.654C202.246 261.293 203.615 259.782 204.114 257.894C204.596 256.071 204.173 254.083 202.648 252.891L202.651 252.884Z" fill="#FFDCDE"/>
<path d="M72.3006 252.884C70.9833 251.855 69.1668 251.498 67.5964 252.146C66.7644 252.489 66.0884 253.057 65.551 253.733C65.1593 253.237 64.7086 252.787 64.1505 252.458C62.6806 251.595 60.8433 251.633 59.3734 252.485C57.7476 253.431 56.9398 255.216 57.179 257.066C57.4356 259.072 58.6697 260.676 60.0148 262.11C61.5436 263.735 63.2284 265.222 65.0796 266.472C65.2217 266.566 65.3846 266.587 65.5476 266.569C65.7105 266.583 65.8769 266.569 66.019 266.472C67.6622 265.36 69.1737 264.068 70.5604 262.654C71.895 261.293 73.2644 259.782 73.7636 257.894C74.2454 256.071 73.8225 254.083 72.2972 252.891L72.3006 252.884Z" fill="#FFDCDE"/>
<path d="M332.998 252.884C331.681 251.855 329.864 251.498 328.294 252.146C327.462 252.489 326.786 253.057 326.248 253.733C325.857 253.237 325.406 252.787 324.848 252.458C323.378 251.595 321.541 251.633 320.071 252.485C318.445 253.431 317.637 255.216 317.876 257.066C318.133 259.072 319.367 260.676 320.712 262.11C322.241 263.735 323.926 265.222 325.777 266.472C325.919 266.566 326.082 266.587 326.245 266.569C326.408 266.583 326.574 266.569 326.716 266.472C328.359 265.36 329.871 264.068 331.258 262.654C332.592 261.293 333.962 259.782 334.461 257.894C334.943 256.071 334.52 254.083 332.994 252.891L332.998 252.884Z" fill="#FFDCDE"/>
<path d="M203.192 382.491C201.875 381.462 200.058 381.105 198.488 381.753C197.656 382.096 196.98 382.664 196.443 383.34C196.051 382.845 195.6 382.394 195.042 382.065C193.572 381.202 191.735 381.24 190.265 382.093C188.639 383.039 187.831 384.823 188.071 386.673C188.327 388.679 189.561 390.283 190.906 391.718C192.435 393.343 194.12 394.829 195.971 396.08C196.113 396.173 196.276 396.194 196.439 396.177C196.602 396.191 196.768 396.177 196.911 396.08C198.554 394.968 200.065 393.675 201.452 392.262C202.787 390.9 204.156 389.389 204.655 387.501C205.137 385.679 204.714 383.69 203.189 382.498L203.192 382.491Z" fill="#FFDCDE"/>
<path d="M72.8456 382.491C71.5282 381.462 69.7117 381.105 68.1413 381.753C67.3093 382.096 66.6333 382.664 66.096 383.34C65.7042 382.845 65.2536 382.394 64.6954 382.065C63.2256 381.202 61.3882 381.24 59.9184 382.093C58.2925 383.039 57.4848 384.823 57.724 386.673C57.9805 388.679 59.2146 390.283 60.5597 391.718C62.0885 393.343 63.7733 394.829 65.6245 396.08C65.7666 396.173 65.9296 396.194 66.0925 396.177C66.2554 396.191 66.4218 396.177 66.564 396.08C68.2072 394.968 69.7186 393.675 71.1053 392.262C72.44 390.9 73.8093 389.389 74.3085 387.501C74.7904 385.679 74.3674 383.69 72.8421 382.498L72.8456 382.491Z" fill="#FFDCDE"/>
<path d="M333.539 382.491C332.222 381.462 330.405 381.105 328.835 381.753C328.003 382.096 327.327 382.664 326.789 383.34C326.398 382.845 325.947 382.394 325.389 382.065C323.919 381.202 322.082 381.24 320.612 382.093C318.986 383.039 318.178 384.823 318.417 386.673C318.674 388.679 319.908 390.283 321.253 391.718C322.782 393.343 324.467 394.829 326.318 396.08C326.46 396.173 326.623 396.194 326.786 396.177C326.949 396.191 327.115 396.177 327.257 396.08C328.901 394.968 330.412 393.675 331.799 392.262C333.133 390.9 334.503 389.389 335.002 387.501C335.484 385.679 335.061 383.69 333.535 382.498L333.539 382.491Z" fill="#FFDCDE"/>
<path d="M137.54 577.989C136.223 576.96 134.406 576.603 132.836 577.251C132.004 577.594 131.328 578.163 130.79 578.838C130.399 578.343 129.948 577.892 129.39 577.563C127.92 576.7 126.083 576.738 124.613 577.591C122.987 578.537 122.179 580.321 122.418 582.171C122.675 584.177 123.909 585.781 125.254 587.216C126.783 588.841 128.468 590.327 130.319 591.578C130.461 591.671 130.624 591.692 130.787 591.675C130.95 591.689 131.116 591.675 131.258 591.578C132.901 590.466 134.413 589.173 135.8 587.76C137.134 586.398 138.504 584.887 139.003 582.999C139.485 581.177 139.062 579.188 137.536 577.996L137.54 577.989Z" fill="#FFDCDE"/>
<path d="M7.42563 577.989C6.1083 576.96 4.29177 576.603 2.72137 577.251C1.88937 577.594 1.21337 578.163 0.676032 578.838C0.284299 578.343 -0.166368 577.892 -0.724501 577.563C-2.19437 576.7 -4.0317 576.738 -5.50157 577.591C-7.12743 578.537 -7.93517 580.321 -7.69597 582.171C-7.43943 584.177 -6.2053 585.781 -4.86023 587.216C-3.33143 588.841 -1.64663 590.327 0.204565 591.578C0.346699 591.671 0.509632 591.692 0.672565 591.675C0.835499 591.689 1.0019 591.675 1.14403 591.578C2.78723 590.466 4.2987 589.173 5.68536 587.76C7.02003 586.398 8.38937 584.887 8.88857 582.999C9.37043 581.177 8.9475 579.188 7.42217 577.996L7.42563 577.989Z" fill="#FFDCDE"/>
<path d="M397.769 577.989C396.452 576.96 394.635 576.603 393.065 577.251C392.233 577.594 391.557 578.163 391.02 578.838C390.628 578.343 390.177 577.892 389.619 577.563C388.149 576.7 386.312 576.738 384.842 577.591C383.216 578.537 382.409 580.321 382.648 582.171C382.904 584.177 384.138 585.781 385.483 587.216C387.012 588.841 388.697 590.327 390.548 591.578C390.69 591.671 390.853 591.692 391.016 591.675C391.179 591.689 391.346 591.675 391.488 591.578C393.131 590.466 394.642 589.173 396.029 587.76C397.364 586.398 398.733 584.887 399.232 582.999C399.714 581.177 399.291 579.188 397.766 577.996L397.769 577.989Z" fill="#FFDCDE"/>
<path d="M267.655 577.989C266.338 576.96 264.521 576.603 262.951 577.251C262.119 577.594 261.443 578.163 260.906 578.838C260.514 578.343 260.063 577.892 259.505 577.563C258.035 576.7 256.198 576.738 254.728 577.591C253.102 578.537 252.294 580.321 252.534 582.171C252.79 584.177 254.024 585.781 255.369 587.216C256.898 588.841 258.583 590.327 260.434 591.578C260.576 591.671 260.739 591.692 260.902 591.675C261.065 591.689 261.231 591.675 261.374 591.578C263.017 590.466 264.528 589.173 265.915 587.76C267.25 586.398 268.619 584.887 269.118 582.999C269.6 581.177 269.177 579.188 267.652 577.996L267.655 577.989Z" fill="#FFDCDE"/>
<path d="M137.54 707.601C136.223 706.572 134.406 706.215 132.836 706.863C132.004 707.206 131.328 707.774 130.79 708.449C130.399 707.954 129.948 707.504 129.39 707.174C127.92 706.312 126.083 706.35 124.613 707.202C122.987 708.148 122.179 709.932 122.418 711.782C122.675 713.789 123.909 715.393 125.254 716.827C126.783 718.452 128.468 719.938 130.319 721.189C130.461 721.283 130.624 721.303 130.787 721.286C130.95 721.3 131.116 721.286 131.258 721.189C132.901 720.077 134.413 718.785 135.8 717.371C137.134 716.009 138.504 714.499 139.003 712.611C139.485 710.788 139.062 708.799 137.536 707.608L137.54 707.601Z" fill="#FFDCDE"/>
<path d="M7.42563 707.601C6.1083 706.572 4.29177 706.215 2.72137 706.863C1.88937 707.206 1.21337 707.774 0.676032 708.449C0.284299 707.954 -0.166368 707.504 -0.724501 707.174C-2.19437 706.312 -4.0317 706.35 -5.50157 707.202C-7.12743 708.148 -7.93517 709.932 -7.69597 711.782C-7.43943 713.789 -6.2053 715.393 -4.86023 716.827C-3.33143 718.452 -1.64663 719.938 0.204565 721.189C0.346699 721.283 0.509632 721.303 0.672565 721.286C0.835499 721.3 1.0019 721.286 1.14403 721.189C2.78723 720.077 4.2987 718.785 5.68536 717.371C7.02003 716.009 8.38937 714.499 8.88857 712.611C9.37043 710.788 8.9475 708.799 7.42217 707.608L7.42563 707.601Z" fill="#FFDCDE"/>
<path d="M397.769 707.601C396.452 706.572 394.635 706.215 393.065 706.863C392.233 707.206 391.557 707.774 391.02 708.449C390.628 707.954 390.177 707.504 389.619 707.174C388.149 706.312 386.312 706.35 384.842 707.202C383.216 708.148 382.409 709.932 382.648 711.782C382.904 713.789 384.138 715.393 385.483 716.827C387.012 718.452 388.697 719.938 390.548 721.189C390.69 721.283 390.853 721.303 391.016 721.286C391.179 721.3 391.346 721.286 391.488 721.189C393.131 720.077 394.642 718.785 396.029 717.371C397.364 716.009 398.733 714.499 399.232 712.611C399.714 710.788 399.291 708.799 397.766 707.608L397.769 707.601Z" fill="#FFDCDE"/>
<path d="M267.655 707.601C266.338 706.572 264.521 706.215 262.951 706.863C262.119 707.206 261.443 707.774 260.906 708.449C260.514 707.954 260.063 707.504 259.505 707.174C258.035 706.312 256.198 706.35 254.728 707.202C253.102 708.148 252.294 709.932 252.534 711.782C252.79 713.789 254.024 715.393 255.369 716.827C256.898 718.452 258.583 719.938 260.434 721.189C260.576 721.283 260.739 721.303 260.902 721.286C261.065 721.3 261.231 721.286 261.374 721.189C263.017 720.077 264.528 718.785 265.915 717.371C267.25 716.009 268.619 714.499 269.118 712.611C269.6 710.788 269.177 708.799 267.652 707.608L267.655 707.601Z" fill="#FFDCDE"/>
<path d="M202.651 513.186C201.334 512.157 199.517 511.801 197.947 512.449C197.115 512.792 196.439 513.36 195.902 514.035C195.51 513.54 195.059 513.089 194.501 512.76C193.031 511.898 191.194 511.936 189.724 512.788C188.098 513.734 187.29 515.518 187.53 517.368C187.786 519.374 189.02 520.979 190.365 522.413C191.894 524.038 193.579 525.524 195.43 526.775C195.572 526.869 195.735 526.889 195.898 526.872C196.061 526.886 196.227 526.872 196.37 526.775C198.013 525.663 199.524 524.371 200.911 522.957C202.246 521.595 203.615 520.085 204.114 518.196C204.596 516.374 204.173 514.385 202.648 513.193L202.651 513.186Z" fill="#FFDCDE"/>
<path d="M72.3006 513.186C70.9833 512.157 69.1668 511.801 67.5964 512.449C66.7644 512.792 66.0884 513.36 65.551 514.035C65.1593 513.54 64.7086 513.089 64.1505 512.76C62.6806 511.898 60.8433 511.936 59.3734 512.788C57.7476 513.734 56.9398 515.518 57.179 517.368C57.4356 519.374 58.6697 520.979 60.0148 522.413C61.5436 524.038 63.2284 525.524 65.0796 526.775C65.2217 526.869 65.3846 526.889 65.5476 526.872C65.7105 526.886 65.8769 526.872 66.019 526.775C67.6622 525.663 69.1737 524.371 70.5604 522.957C71.895 521.595 73.2644 520.085 73.7636 518.196C74.2454 516.374 73.8225 514.385 72.2972 513.193L72.3006 513.186Z" fill="#FFDCDE"/>
<path d="M332.998 513.186C331.681 512.157 329.864 511.801 328.294 512.449C327.462 512.792 326.786 513.36 326.248 514.035C325.857 513.54 325.406 513.089 324.848 512.76C323.378 511.898 321.541 511.936 320.071 512.788C318.445 513.734 317.637 515.518 317.876 517.368C318.133 519.374 319.367 520.979 320.712 522.413C322.241 524.038 323.926 525.524 325.777 526.775C325.919 526.869 326.082 526.889 326.245 526.872C326.408 526.886 326.574 526.872 326.716 526.775C328.359 525.663 329.871 524.371 331.258 522.957C332.592 521.595 333.962 520.085 334.461 518.196C334.943 516.374 334.52 514.385 332.994 513.193L332.998 513.186Z" fill="#FFDCDE"/>
<path d="M203.192 642.796C201.875 641.767 200.058 641.41 198.488 642.058C197.656 642.401 196.98 642.969 196.443 643.645C196.051 643.149 195.6 642.699 195.042 642.37C193.572 641.507 191.735 641.545 190.265 642.397C188.639 643.343 187.831 645.128 188.071 646.978C188.327 648.984 189.561 650.588 190.906 652.022C192.435 653.647 194.12 655.134 195.971 656.384C196.113 656.478 196.276 656.499 196.439 656.481C196.602 656.495 196.768 656.481 196.911 656.384C198.554 655.272 200.065 653.98 201.452 652.566C202.787 651.205 204.156 649.694 204.655 647.806C205.137 645.983 204.714 643.995 203.189 642.803L203.192 642.796Z" fill="#FFDCDE"/>
<path d="M72.8456 642.796C71.5282 641.767 69.7117 641.41 68.1413 642.058C67.3093 642.401 66.6333 642.969 66.096 643.645C65.7042 643.149 65.2536 642.699 64.6954 642.37C63.2256 641.507 61.3882 641.545 59.9184 642.397C58.2925 643.343 57.4848 645.128 57.724 646.978C57.9805 648.984 59.2146 650.588 60.5597 652.022C62.0885 653.647 63.7733 655.134 65.6245 656.384C65.7666 656.478 65.9296 656.499 66.0925 656.481C66.2554 656.495 66.4218 656.481 66.564 656.384C68.2072 655.272 69.7186 653.98 71.1053 652.566C72.44 651.205 73.8093 649.694 74.3085 647.806C74.7904 645.983 74.3674 643.995 72.8421 642.803L72.8456 642.796Z" fill="#FFDCDE"/>
<path d="M333.539 642.796C332.222 641.767 330.405 641.41 328.835 642.058C328.003 642.401 327.327 642.969 326.789 643.645C326.398 643.149 325.947 642.699 325.389 642.37C323.919 641.507 322.082 641.545 320.612 642.397C318.986 643.343 318.178 645.128 318.417 646.978C318.674 648.984 319.908 650.588 321.253 652.022C322.782 653.647 324.467 655.134 326.318 656.384C326.46 656.478 326.623 656.499 326.786 656.481C326.949 656.495 327.115 656.481 327.257 656.384C328.901 655.272 330.412 653.98 331.799 652.566C333.133 651.205 334.503 649.694 335.002 647.806C335.484 645.983 335.061 643.995 333.535 642.803L333.539 642.796Z" fill="#FFDCDE"/>
<path d="M137.54 837.212C136.223 836.183 134.406 835.826 132.836 836.474C132.004 836.817 131.328 837.385 130.79 838.061C130.399 837.565 129.948 837.115 129.39 836.786C127.92 835.923 126.083 835.961 124.613 836.813C122.987 837.759 122.179 839.544 122.418 841.394C122.675 843.4 123.909 845.004 125.254 846.438C126.783 848.063 128.468 849.55 130.319 850.8C130.461 850.894 130.624 850.915 130.787 850.897C130.95 850.911 131.116 850.897 131.258 850.8C132.901 849.688 134.413 848.396 135.8 846.982C137.134 845.621 138.504 844.11 139.003 842.222C139.485 840.399 139.062 838.411 137.536 837.219L137.54 837.212Z" fill="#FFDCDE"/>
<path d="M7.42563 837.212C6.1083 836.183 4.29177 835.826 2.72137 836.474C1.88937 836.817 1.21337 837.385 0.676032 838.061C0.284299 837.565 -0.166368 837.115 -0.724501 836.786C-2.19437 835.923 -4.0317 835.961 -5.50157 836.813C-7.12743 837.759 -7.93517 839.544 -7.69597 841.394C-7.43943 843.4 -6.2053 845.004 -4.86023 846.438C-3.33143 848.063 -1.64663 849.55 0.204565 850.8C0.346699 850.894 0.509632 850.915 0.672565 850.897C0.835499 850.911 1.0019 850.897 1.14403 850.8C2.78723 849.688 4.2987 848.396 5.68536 846.982C7.02003 845.621 8.38937 844.11 8.88857 842.222C9.37043 840.399 8.9475 838.411 7.42217 837.219L7.42563 837.212Z" fill="#FFDCDE"/>
<path d="M397.769 837.212C396.452 836.183 394.635 835.826 393.065 836.474C392.233 836.817 391.557 837.385 391.02 838.061C390.628 837.565 390.177 837.115 389.619 836.786C388.149 835.923 386.312 835.961 384.842 836.813C383.216 837.759 382.409 839.544 382.648 841.394C382.904 843.4 384.138 845.004 385.483 846.438C387.012 848.063 388.697 849.55 390.548 850.8C390.69 850.894 390.853 850.915 391.016 850.897C391.179 850.911 391.346 850.897 391.488 850.8C393.131 849.688 394.642 848.396 396.029 846.982C397.364 845.621 398.733 844.11 399.232 842.222C399.714 840.399 399.291 838.411 397.766 837.219L397.769 837.212Z" fill="#FFDCDE"/>
<path d="M267.655 837.212C266.338 836.183 264.521 835.826 262.951 836.474C262.119 836.817 261.443 837.385 260.906 838.061C260.514 837.565 260.063 837.115 259.505 836.786C258.035 835.923 256.198 835.961 254.728 836.813C253.102 837.759 252.294 839.544 252.534 841.394C252.79 843.4 254.024 845.004 255.369 846.438C256.898 848.063 258.583 849.55 260.434 850.8C260.576 850.894 260.739 850.915 260.902 850.897C261.065 850.911 261.231 850.897 261.374 850.8C263.017 849.688 264.528 848.396 265.915 846.982C267.25 845.621 268.619 844.11 269.118 842.222C269.6 840.399 269.177 838.411 267.652 837.219L267.655 837.212Z" fill="#FFDCDE"/>
<path d="M202.651 772.409C201.334 771.38 199.517 771.023 197.947 771.671C197.115 772.014 196.439 772.582 195.902 773.258C195.51 772.763 195.059 772.312 194.501 771.983C193.031 771.12 191.194 771.158 189.724 772.011C188.098 772.957 187.29 774.741 187.53 776.591C187.786 778.597 189.02 780.201 190.365 781.636C191.894 783.261 193.579 784.747 195.43 785.998C195.572 786.091 195.735 786.112 195.898 786.095C196.061 786.109 196.227 786.095 196.37 785.998C198.013 784.886 199.524 783.593 200.911 782.18C202.246 780.818 203.615 779.307 204.114 777.419C204.596 775.597 204.173 773.608 202.648 772.416L202.651 772.409Z" fill="#FFDCDE"/>
<path d="M72.3006 772.409C70.9833 771.38 69.1668 771.023 67.5964 771.671C66.7644 772.014 66.0884 772.582 65.551 773.258C65.1593 772.763 64.7086 772.312 64.1505 771.983C62.6806 771.12 60.8433 771.158 59.3734 772.011C57.7476 772.957 56.9398 774.741 57.179 776.591C57.4356 778.597 58.6697 780.201 60.0148 781.636C61.5436 783.261 63.2284 784.747 65.0796 785.998C65.2217 786.091 65.3846 786.112 65.5476 786.095C65.7105 786.109 65.8769 786.095 66.019 785.998C67.6622 784.886 69.1737 783.593 70.5604 782.18C71.895 780.818 73.2644 779.307 73.7636 777.419C74.2454 775.597 73.8225 773.608 72.2972 772.416L72.3006 772.409Z" fill="#FFDCDE"/>
<path d="M332.998 772.409C331.681 771.38 329.864 771.023 328.294 771.671C327.462 772.014 326.786 772.582 326.248 773.258C325.857 772.763 325.406 772.312 324.848 771.983C323.378 771.12 321.541 771.158 320.071 772.011C318.445 772.957 317.637 774.741 317.876 776.591C318.133 778.597 319.367 780.201 320.712 781.636C322.241 783.261 323.926 784.747 325.777 785.998C325.919 786.091 326.082 786.112 326.245 786.095C326.408 786.109 326.574 786.095 326.716 785.998C328.359 784.886 329.871 783.593 331.258 782.18C332.592 780.818 333.962 779.307 334.461 777.419C334.943 775.597 334.52 773.608 332.994 772.416L332.998 772.409Z" fill="#FFDCDE"/>
</g>
</g>
<defs>
<clipPath id="clip0_3759_3654">
<rect width="390" height="844" fill="white"/>
</clipPath>
</defs>
</svg>
