<svg width="390" height="844" viewBox="0 0 390 844" fill="none" xmlns="http://www.w3.org/2000/svg">
<g clip-path="url(#clip0_3991_11363)">
<rect width="390" height="844" fill="#C9E5F3"/>
<path d="M70.138 6L73.8623 17.4622H85.9144L76.1641 24.5462L79.8884 36.0084L70.138 28.9244L60.3877 36.0084L64.112 24.5462L54.3617 17.4622H66.4137L70.138 6Z" fill="white"/>
<path d="M136.491 6L140.215 17.4622H152.267L142.517 24.5462L146.241 36.0084L136.491 28.9244L126.74 36.0084L130.465 24.5462L120.714 17.4622H132.766L136.491 6Z" fill="white"/>
<path d="M202.844 6L206.568 17.4622H218.62L208.87 24.5462L212.594 36.0084L202.844 28.9244L193.094 36.0084L196.818 24.5462L187.068 17.4622H199.12L202.844 6Z" fill="white"/>
<path d="M269.197 6L272.921 17.4622H284.973L275.223 24.5462L278.947 36.0084L269.197 28.9244L259.446 36.0084L263.171 24.5462L253.42 17.4622H265.472L269.197 6Z" fill="white"/>
<path d="M335.549 6L339.273 17.4622H351.326L341.575 24.5462L345.299 36.0084L335.549 28.9244L325.799 36.0084L329.523 24.5462L319.773 17.4622H331.825L335.549 6Z" fill="white"/>
<path d="M70.138 132.352L73.8623 143.814H85.9144L76.1641 150.898L79.8884 162.36L70.138 155.276L60.3877 162.36L64.112 150.898L54.3617 143.814H66.4137L70.138 132.352Z" fill="white"/>
<path d="M136.491 132.352L140.215 143.814H152.267L142.517 150.898L146.241 162.36L136.491 155.276L126.74 162.36L130.465 150.898L120.714 143.814H132.766L136.491 132.352Z" fill="white"/>
<path d="M202.844 132.352L206.568 143.814H218.62L208.87 150.898L212.594 162.36L202.844 155.276L193.094 162.36L196.818 150.898L187.068 143.814H199.12L202.844 132.352Z" fill="white"/>
<path d="M269.197 132.352L272.921 143.814H284.973L275.223 150.898L278.947 162.36L269.197 155.276L259.446 162.36L263.171 150.898L253.42 143.814H265.472L269.197 132.352Z" fill="white"/>
<path d="M335.55 132.352L339.274 143.814H351.326L341.576 150.898L345.3 162.36L335.55 155.276L325.8 162.36L329.524 150.898L319.774 143.814H331.826L335.55 132.352Z" fill="white"/>
<path d="M70.138 258.703L73.8623 270.165H85.9144L76.1641 277.249L79.8884 288.712L70.138 281.628L60.3877 288.712L64.112 277.249L54.3617 270.165H66.4137L70.138 258.703Z" fill="white"/>
<path d="M136.491 258.703L140.215 270.165H152.267L142.517 277.249L146.241 288.712L136.491 281.628L126.74 288.712L130.465 277.249L120.714 270.165H132.766L136.491 258.703Z" fill="white"/>
<path d="M202.844 258.703L206.568 270.165H218.62L208.87 277.249L212.594 288.712L202.844 281.628L193.094 288.712L196.818 277.249L187.068 270.165H199.12L202.844 258.703Z" fill="white"/>
<path d="M269.197 258.703L272.921 270.165H284.973L275.223 277.249L278.947 288.712L269.197 281.628L259.446 288.712L263.171 277.249L253.42 270.165H265.472L269.197 258.703Z" fill="white"/>
<path d="M335.55 258.703L339.274 270.165H351.326L341.576 277.249L345.3 288.712L335.55 281.628L325.8 288.712L329.524 277.249L319.774 270.165H331.826L335.55 258.703Z" fill="white"/>
<path d="M69.5882 385.055L73.3125 396.517H85.3646L75.6143 403.601L79.3386 415.063L69.5882 407.979L59.8379 415.063L63.5622 403.601L53.8119 396.517H65.8639L69.5882 385.055Z" fill="white"/>
<path d="M135.941 385.055L139.665 396.517H151.717L141.967 403.601L145.691 415.063L135.941 407.979L126.19 415.063L129.915 403.601L120.164 396.517H132.216L135.941 385.055Z" fill="white"/>
<path d="M202.294 385.055L206.019 396.517H218.071L208.32 403.601L212.045 415.063L202.294 407.979L192.544 415.063L196.268 403.601L186.518 396.517H198.57L202.294 385.055Z" fill="white"/>
<path d="M268.647 385.055L272.371 396.517H284.423L274.673 403.601L278.397 415.063L268.647 407.979L258.897 415.063L262.621 403.601L252.87 396.517H264.923L268.647 385.055Z" fill="white"/>
<path d="M335 385.055L338.725 396.517H350.777L341.026 403.601L344.751 415.063L335 407.979L325.25 415.063L328.974 403.601L319.224 396.517H331.276L335 385.055Z" fill="white"/>
<path d="M401.353 385.055L405.077 396.517H417.129L407.379 403.601L411.103 415.063L401.353 407.979L391.603 415.063L395.327 403.601L385.577 396.517H397.629L401.353 385.055Z" fill="white"/>
<path d="M70.138 511.406L73.8623 522.868H85.9144L76.1641 529.952L79.8884 541.415L70.138 534.331L60.3877 541.415L64.112 529.952L54.3617 522.868H66.4137L70.138 511.406Z" fill="white"/>
<path d="M136.491 511.406L140.215 522.868H152.267L142.517 529.952L146.241 541.415L136.491 534.331L126.74 541.415L130.465 529.952L120.714 522.868H132.766L136.491 511.406Z" fill="white"/>
<path d="M202.844 511.406L206.568 522.868H218.62L208.87 529.952L212.594 541.415L202.844 534.331L193.094 541.415L196.818 529.952L187.068 522.868H199.12L202.844 511.406Z" fill="white"/>
<path d="M269.197 511.406L272.921 522.868H284.973L275.223 529.952L278.947 541.415L269.197 534.331L259.446 541.415L263.171 529.952L253.42 522.868H265.472L269.197 511.406Z" fill="white"/>
<path d="M335.55 511.406L339.274 522.868H351.326L341.576 529.952L345.3 541.415L335.55 534.331L325.8 541.415L329.524 529.952L319.774 522.868H331.826L335.55 511.406Z" fill="white"/>
<path d="M70.138 637.758L73.8623 649.22H85.9144L76.1641 656.304L79.8884 667.766L70.138 660.682L60.3877 667.766L64.112 656.304L54.3617 649.22H66.4137L70.138 637.758Z" fill="white"/>
<path d="M136.491 637.758L140.215 649.22H152.267L142.517 656.304L146.241 667.766L136.491 660.682L126.74 667.766L130.465 656.304L120.714 649.22H132.766L136.491 637.758Z" fill="white"/>
<path d="M202.844 637.758L206.568 649.22H218.62L208.87 656.304L212.594 667.766L202.844 660.682L193.094 667.766L196.818 656.304L187.068 649.22H199.12L202.844 637.758Z" fill="white"/>
<path d="M269.197 637.758L272.921 649.22H284.973L275.223 656.304L278.947 667.766L269.197 660.682L259.446 667.766L263.171 656.304L253.42 649.22H265.472L269.197 637.758Z" fill="white"/>
<path d="M335.549 637.758L339.273 649.22H351.326L341.575 656.304L345.299 667.766L335.549 660.682L325.799 667.766L329.523 656.304L319.773 649.22H331.825L335.549 637.758Z" fill="white"/>
<path d="M70.138 764.109L73.8623 775.572H85.9144L76.1641 782.656L79.8884 794.118L70.138 787.034L60.3877 794.118L64.112 782.656L54.3617 775.572H66.4137L70.138 764.109Z" fill="white"/>
<path d="M136.491 764.109L140.215 775.572H152.267L142.517 782.656L146.241 794.118L136.491 787.034L126.74 794.118L130.465 782.656L120.714 775.572H132.766L136.491 764.109Z" fill="white"/>
<path d="M202.844 764.109L206.568 775.572H218.62L208.87 782.656L212.594 794.118L202.844 787.034L193.094 794.118L196.818 782.656L187.068 775.572H199.12L202.844 764.109Z" fill="white"/>
<path d="M269.197 764.109L272.921 775.572H284.973L275.223 782.656L278.947 794.118L269.197 787.034L259.446 794.118L263.171 782.656L253.42 775.572H265.472L269.197 764.109Z" fill="white"/>
<path d="M335.549 764.109L339.273 775.572H351.326L341.575 782.656L345.299 794.118L335.549 787.034L325.799 794.118L329.523 782.656L319.773 775.572H331.825L335.549 764.109Z" fill="white"/>
<path d="M29.5882 69.1758L33.3125 80.638H45.3646L35.6143 87.722L39.3386 99.1842L29.5882 92.1002L19.8379 99.1842L23.5622 87.722L13.8119 80.638H25.8639L29.5882 69.1758Z" fill="white"/>
<path d="M95.9408 69.1758L99.6651 80.638H111.717L101.967 87.722L105.691 99.1842L95.9408 92.1002L86.1905 99.1842L89.9147 87.722L80.1644 80.638H92.2165L95.9408 69.1758Z" fill="white"/>
<path d="M162.294 69.1758L166.019 80.638H178.071L168.32 87.722L172.045 99.1842L162.294 92.1002L152.544 99.1842L156.268 87.722L146.518 80.638H158.57L162.294 69.1758Z" fill="white"/>
<path d="M228.647 69.1758L232.371 80.638H244.423L234.673 87.722L238.397 99.1842L228.647 92.1002L218.897 99.1842L222.621 87.722L212.87 80.638H224.923L228.647 69.1758Z" fill="white"/>
<path d="M295 69.1758L298.725 80.638H310.777L301.026 87.722L304.751 99.1842L295 92.1002L285.25 99.1842L288.974 87.722L279.224 80.638H291.276L295 69.1758Z" fill="white"/>
<path d="M361.353 69.1758L365.077 80.638H377.129L367.379 87.722L371.103 99.1842L361.353 92.1002L351.603 99.1842L355.327 87.722L345.577 80.638H357.629L361.353 69.1758Z" fill="white"/>
<path d="M29.5882 195.527L33.3125 206.99H45.3646L35.6143 214.074L39.3386 225.536L29.5882 218.452L19.8379 225.536L23.5622 214.074L13.8119 206.99H25.8639L29.5882 195.527Z" fill="white"/>
<path d="M95.9408 195.527L99.6651 206.99H111.717L101.967 214.074L105.691 225.536L95.9408 218.452L86.1905 225.536L89.9147 214.074L80.1644 206.99H92.2165L95.9408 195.527Z" fill="white"/>
<path d="M162.294 195.527L166.019 206.99H178.071L168.32 214.074L172.045 225.536L162.294 218.452L152.544 225.536L156.268 214.074L146.518 206.99H158.57L162.294 195.527Z" fill="white"/>
<path d="M228.647 195.527L232.371 206.99H244.423L234.673 214.074L238.397 225.536L228.647 218.452L218.897 225.536L222.621 214.074L212.87 206.99H224.923L228.647 195.527Z" fill="white"/>
<path d="M295 195.527L298.725 206.99H310.777L301.026 214.074L304.751 225.536L295 218.452L285.25 225.536L288.974 214.074L279.224 206.99H291.276L295 195.527Z" fill="white"/>
<path d="M361.353 195.527L365.077 206.99H377.129L367.379 214.074L371.103 225.536L361.353 218.452L351.603 225.536L355.327 214.074L345.577 206.99H357.629L361.353 195.527Z" fill="white"/>
<path d="M29.5882 321.879L33.3125 333.341H45.3646L35.6143 340.425L39.3386 351.887L29.5882 344.803L19.8379 351.887L23.5622 340.425L13.8119 333.341H25.8639L29.5882 321.879Z" fill="white"/>
<path d="M95.9418 321.879L99.666 333.341H111.718L101.968 340.425L105.692 351.887L95.9418 344.803L86.1914 351.887L89.9157 340.425L80.1654 333.341H92.2175L95.9418 321.879Z" fill="white"/>
<path d="M162.294 321.879L166.019 333.341H178.071L168.32 340.425L172.045 351.887L162.294 344.803L152.544 351.887L156.268 340.425L146.518 333.341H158.57L162.294 321.879Z" fill="white"/>
<path d="M228.647 321.879L232.371 333.341H244.423L234.673 340.425L238.397 351.887L228.647 344.803L218.897 351.887L222.621 340.425L212.87 333.341H224.923L228.647 321.879Z" fill="white"/>
<path d="M295 321.879L298.725 333.341H310.777L301.026 340.425L304.751 351.887L295 344.803L285.25 351.887L288.974 340.425L279.224 333.341H291.276L295 321.879Z" fill="white"/>
<path d="M361.353 321.879L365.077 333.341H377.129L367.379 340.425L371.103 351.887L361.353 344.803L351.603 351.887L355.327 340.425L345.577 333.341H357.629L361.353 321.879Z" fill="white"/>
<path d="M29.5882 448.23L33.3125 459.693H45.3646L35.6143 466.777L39.3386 478.239L29.5882 471.155L19.8379 478.239L23.5622 466.777L13.8119 459.693H25.8639L29.5882 448.23Z" fill="white"/>
<path d="M95.9418 448.23L99.666 459.693H111.718L101.968 466.777L105.692 478.239L95.9418 471.155L86.1914 478.239L89.9157 466.777L80.1654 459.693H92.2175L95.9418 448.23Z" fill="white"/>
<path d="M162.294 448.23L166.019 459.693H178.071L168.32 466.777L172.045 478.239L162.294 471.155L152.544 478.239L156.268 466.777L146.518 459.693H158.57L162.294 448.23Z" fill="white"/>
<path d="M228.647 448.23L232.371 459.693H244.423L234.673 466.777L238.397 478.239L228.647 471.155L218.897 478.239L222.621 466.777L212.87 459.693H224.923L228.647 448.23Z" fill="white"/>
<path d="M295 448.23L298.725 459.693H310.777L301.026 466.777L304.751 478.239L295 471.155L285.25 478.239L288.974 466.777L279.224 459.693H291.276L295 448.23Z" fill="white"/>
<path d="M361.353 448.23L365.077 459.693H377.129L367.379 466.777L371.103 478.239L361.353 471.155L351.603 478.239L355.327 466.777L345.577 459.693H357.629L361.353 448.23Z" fill="white"/>
<path d="M29.5882 574.582L33.3125 586.044H45.3646L35.6143 593.128L39.3386 604.59L29.5882 597.506L19.8379 604.59L23.5622 593.128L13.8119 586.044H25.8639L29.5882 574.582Z" fill="white"/>
<path d="M95.9408 574.582L99.6651 586.044H111.717L101.967 593.128L105.691 604.59L95.9408 597.506L86.1905 604.59L89.9147 593.128L80.1644 586.044H92.2165L95.9408 574.582Z" fill="white"/>
<path d="M162.294 574.582L166.019 586.044H178.071L168.32 593.128L172.045 604.59L162.294 597.506L152.544 604.59L156.268 593.128L146.518 586.044H158.57L162.294 574.582Z" fill="white"/>
<path d="M228.647 574.582L232.371 586.044H244.423L234.673 593.128L238.397 604.59L228.647 597.506L218.897 604.59L222.621 593.128L212.87 586.044H224.923L228.647 574.582Z" fill="white"/>
<path d="M295 574.582L298.725 586.044H310.777L301.026 593.128L304.751 604.59L295 597.506L285.25 604.59L288.974 593.128L279.224 586.044H291.276L295 574.582Z" fill="white"/>
<path d="M361.353 574.582L365.077 586.044H377.129L367.379 593.128L371.103 604.59L361.353 597.506L351.603 604.59L355.327 593.128L345.577 586.044H357.629L361.353 574.582Z" fill="white"/>
<path d="M29.5882 700.934L33.3125 712.396H45.3646L35.6143 719.48L39.3386 730.942L29.5882 723.858L19.8379 730.942L23.5622 719.48L13.8119 712.396H25.8639L29.5882 700.934Z" fill="white"/>
<path d="M95.9408 700.934L99.6651 712.396H111.717L101.967 719.48L105.691 730.942L95.9408 723.858L86.1905 730.942L89.9147 719.48L80.1644 712.396H92.2165L95.9408 700.934Z" fill="white"/>
<path d="M162.294 700.934L166.019 712.396H178.071L168.32 719.48L172.045 730.942L162.294 723.858L152.544 730.942L156.268 719.48L146.518 712.396H158.57L162.294 700.934Z" fill="white"/>
<path d="M228.647 700.934L232.371 712.396H244.423L234.673 719.48L238.397 730.942L228.647 723.858L218.897 730.942L222.621 719.48L212.87 712.396H224.923L228.647 700.934Z" fill="white"/>
<path d="M295 700.934L298.725 712.396H310.777L301.026 719.48L304.751 730.942L295 723.858L285.25 730.942L288.974 719.48L279.224 712.396H291.276L295 700.934Z" fill="white"/>
<path d="M361.353 700.934L365.077 712.396H377.129L367.379 719.48L371.103 730.942L361.353 723.858L351.603 730.942L355.327 719.48L345.577 712.396H357.629L361.353 700.934Z" fill="white"/>
<path d="M29.5882 827.285L33.3125 838.747H45.3646L35.6143 845.831L39.3386 857.294L29.5882 850.21L19.8379 857.294L23.5622 845.831L13.8119 838.747H25.8639L29.5882 827.285Z" fill="white"/>
<path d="M95.9408 827.285L99.6651 838.747H111.717L101.967 845.831L105.691 857.294L95.9408 850.21L86.1905 857.294L89.9147 845.831L80.1644 838.747H92.2165L95.9408 827.285Z" fill="white"/>
<path d="M162.294 827.285L166.019 838.747H178.071L168.32 845.831L172.045 857.294L162.294 850.21L152.544 857.294L156.268 845.831L146.518 838.747H158.57L162.294 827.285Z" fill="white"/>
<path d="M228.647 827.285L232.371 838.747H244.423L234.673 845.831L238.397 857.294L228.647 850.21L218.897 857.294L222.621 845.831L212.87 838.747H224.923L228.647 827.285Z" fill="white"/>
<path d="M295 827.285L298.725 838.747H310.777L301.026 845.831L304.751 857.294L295 850.21L285.25 857.294L288.974 845.831L279.224 838.747H291.276L295 827.285Z" fill="white"/>
<path d="M361.353 827.285L365.077 838.747H377.129L367.379 845.831L371.103 857.294L361.353 850.21L351.603 857.294L355.327 845.831L345.577 838.747H357.629L361.353 827.285Z" fill="white"/>
</g>
<defs>
<clipPath id="clip0_3991_11363">
<rect width="390" height="844" fill="white"/>
</clipPath>
</defs>
</svg>
