<svg width="390" height="844" viewBox="0 0 390 844" fill="none" xmlns="http://www.w3.org/2000/svg">
<g clip-path="url(#clip0_3759_3310)">
<mask id="mask0_3759_3310" style="mask-type:luminance" maskUnits="userSpaceOnUse" x="0" y="0" width="391" height="845">
<path d="M390.094 0H0V844.128H390.094V0Z" fill="white"/>
</mask>
<g mask="url(#mask0_3759_3310)">
<path d="M390.094 0H0V844.128H390.094V0Z" fill="#AFCFE0"/>
<path d="M390.094 0H0V844.128H390.094V0Z" stroke="white" stroke-width="0.346667" stroke-miterlimit="10"/>
<path d="M27.8994 -11.416V853.899" stroke="white" stroke-width="0.346667" stroke-miterlimit="10"/>
<path d="M12.584 -11.416V853.899" stroke="white" stroke-width="0.346667" stroke-miterlimit="10"/>
<path d="M43.2119 -11.416V853.899" stroke="white" stroke-width="0.346667" stroke-miterlimit="10"/>
<path d="M58.5273 -11.416V853.899" stroke="white" stroke-width="0.346667" stroke-miterlimit="10"/>
<path d="M73.8398 -11.416V853.899" stroke="white" stroke-width="0.346667" stroke-miterlimit="10"/>
<path d="M89.1523 -11.416V853.899" stroke="white" stroke-width="0.346667" stroke-miterlimit="10"/>
<path d="M104.468 -11.416V853.899" stroke="white" stroke-width="0.346667" stroke-miterlimit="10"/>
<path d="M119.78 -11.416V853.899" stroke="white" stroke-width="0.346667" stroke-miterlimit="10"/>
<path d="M135.096 -11.416V853.899" stroke="white" stroke-width="0.346667" stroke-miterlimit="10"/>
<path d="M150.408 -11.416V853.899" stroke="white" stroke-width="0.346667" stroke-miterlimit="10"/>
<path d="M165.721 -11.416V853.899" stroke="white" stroke-width="0.346667" stroke-miterlimit="10"/>
<path d="M181.036 -11.416V853.899" stroke="white" stroke-width="0.346667" stroke-miterlimit="10"/>
<path d="M196.349 -11.416V853.899" stroke="white" stroke-width="0.346667" stroke-miterlimit="10"/>
<path d="M211.664 -11.416V853.899" stroke="white" stroke-width="0.346667" stroke-miterlimit="10"/>
<path d="M226.977 -11.416V853.899" stroke="white" stroke-width="0.346667" stroke-miterlimit="10"/>
<path d="M257.604 -11.416V853.899" stroke="white" stroke-width="0.346667" stroke-miterlimit="10"/>
<path d="M318.857 -11.416V853.899" stroke="white" stroke-width="0.346667" stroke-miterlimit="10"/>
<path d="M288.229 -11.416V853.899" stroke="white" stroke-width="0.346667" stroke-miterlimit="10"/>
<path d="M349.485 -11.416V853.899" stroke="white" stroke-width="0.346667" stroke-miterlimit="10"/>
<path d="M364.798 -11.416V853.899" stroke="white" stroke-width="0.346667" stroke-miterlimit="10"/>
<path d="M380.113 -11.416V853.899" stroke="white" stroke-width="0.346667" stroke-miterlimit="10"/>
<path d="M242.289 -11.416V853.899" stroke="white" stroke-width="0.346667" stroke-miterlimit="10"/>
<path d="M272.917 -11.416V853.899" stroke="white" stroke-width="0.346667" stroke-miterlimit="10"/>
<path d="M303.545 -11.416V853.899" stroke="white" stroke-width="0.346667" stroke-miterlimit="10"/>
<path d="M334.173 -11.416V853.899" stroke="white" stroke-width="0.346667" stroke-miterlimit="10"/>
<path d="M-15.9639 363.043H406.803" stroke="white" stroke-width="0.346667" stroke-miterlimit="10"/>
<path d="M-15.9639 378.309H406.803" stroke="white" stroke-width="0.346667" stroke-miterlimit="10"/>
<path d="M-15.9639 347.783H406.803" stroke="white" stroke-width="0.346667" stroke-miterlimit="10"/>
<path d="M-15.9639 332.518H406.803" stroke="white" stroke-width="0.346667" stroke-miterlimit="10"/>
<path d="M-15.9639 317.254H406.803" stroke="white" stroke-width="0.346667" stroke-miterlimit="10"/>
<path d="M-15.9639 301.99H406.803" stroke="white" stroke-width="0.346667" stroke-miterlimit="10"/>
<path d="M-15.9639 286.727H406.803" stroke="white" stroke-width="0.346667" stroke-miterlimit="10"/>
<path d="M-15.9639 271.461H406.803" stroke="white" stroke-width="0.346667" stroke-miterlimit="10"/>
<path d="M-15.9639 256.199H406.803" stroke="white" stroke-width="0.346667" stroke-miterlimit="10"/>
<path d="M-15.9639 240.934H406.803" stroke="white" stroke-width="0.346667" stroke-miterlimit="10"/>
<path d="M-15.9639 225.672H406.803" stroke="white" stroke-width="0.346667" stroke-miterlimit="10"/>
<path d="M-15.9639 210.406H406.803" stroke="white" stroke-width="0.346667" stroke-miterlimit="10"/>
<path d="M-15.9639 195.141H406.803" stroke="white" stroke-width="0.346667" stroke-miterlimit="10"/>
<path d="M-15.9639 179.879H406.803" stroke="white" stroke-width="0.346667" stroke-miterlimit="10"/>
<path d="M-15.9639 164.615H406.803" stroke="white" stroke-width="0.346667" stroke-miterlimit="10"/>
<path d="M-15.9639 134.086H406.803" stroke="white" stroke-width="0.346667" stroke-miterlimit="10"/>
<path d="M-15.9639 73.0312H406.803" stroke="white" stroke-width="0.346667" stroke-miterlimit="10"/>
<path d="M-15.9639 103.559H406.803" stroke="white" stroke-width="0.346667" stroke-miterlimit="10"/>
<path d="M-15.9639 42.5039H406.803" stroke="white" stroke-width="0.346667" stroke-miterlimit="10"/>
<path d="M-15.9639 27.2383H406.803" stroke="white" stroke-width="0.346667" stroke-miterlimit="10"/>
<path d="M-15.9639 11.9766H406.803" stroke="white" stroke-width="0.346667" stroke-miterlimit="10"/>
<path d="M-15.9639 149.352H406.803" stroke="white" stroke-width="0.346667" stroke-miterlimit="10"/>
<path d="M-15.9639 118.824H406.803" stroke="white" stroke-width="0.346667" stroke-miterlimit="10"/>
<path d="M-15.9639 88.2969H406.803" stroke="white" stroke-width="0.346667" stroke-miterlimit="10"/>
<path d="M-15.9639 57.7695H406.803" stroke="white" stroke-width="0.346667" stroke-miterlimit="10"/>
<path d="M-15.9639 744.643H406.803" stroke="white" stroke-width="0.346667" stroke-miterlimit="10"/>
<path d="M-15.9639 759.908H406.803" stroke="white" stroke-width="0.346667" stroke-miterlimit="10"/>
<path d="M-15.9639 729.381H406.803" stroke="white" stroke-width="0.346667" stroke-miterlimit="10"/>
<path d="M-15.9639 714.115H406.803" stroke="white" stroke-width="0.346667" stroke-miterlimit="10"/>
<path d="M-15.9639 698.85H406.803" stroke="white" stroke-width="0.346667" stroke-miterlimit="10"/>
<path d="M-15.9639 683.588H406.803" stroke="white" stroke-width="0.346667" stroke-miterlimit="10"/>
<path d="M-15.9639 668.322H406.803" stroke="white" stroke-width="0.346667" stroke-miterlimit="10"/>
<path d="M-15.9639 653.061H406.803" stroke="white" stroke-width="0.346667" stroke-miterlimit="10"/>
<path d="M-15.9639 637.795H406.803" stroke="white" stroke-width="0.346667" stroke-miterlimit="10"/>
<path d="M-15.9639 622.533H406.803" stroke="white" stroke-width="0.346667" stroke-miterlimit="10"/>
<path d="M-15.9639 607.268H406.803" stroke="white" stroke-width="0.346667" stroke-miterlimit="10"/>
<path d="M-15.9639 592.006H406.803" stroke="white" stroke-width="0.346667" stroke-miterlimit="10"/>
<path d="M-15.9639 576.74H406.803" stroke="white" stroke-width="0.346667" stroke-miterlimit="10"/>
<path d="M-15.9639 561.479H406.803" stroke="white" stroke-width="0.346667" stroke-miterlimit="10"/>
<path d="M-15.9639 546.213H406.803" stroke="white" stroke-width="0.346667" stroke-miterlimit="10"/>
<path d="M-15.9639 515.686H406.803" stroke="white" stroke-width="0.346667" stroke-miterlimit="10"/>
<path d="M-15.9639 454.629H406.803" stroke="white" stroke-width="0.346667" stroke-miterlimit="10"/>
<path d="M-15.9639 485.158H406.803" stroke="white" stroke-width="0.346667" stroke-miterlimit="10"/>
<path d="M-15.9639 424.102H406.803" stroke="white" stroke-width="0.346667" stroke-miterlimit="10"/>
<path d="M-15.9639 408.836H406.803" stroke="white" stroke-width="0.346667" stroke-miterlimit="10"/>
<path d="M-15.9639 393.576H406.803" stroke="white" stroke-width="0.346667" stroke-miterlimit="10"/>
<path d="M-15.9639 530.947H406.803" stroke="white" stroke-width="0.346667" stroke-miterlimit="10"/>
<path d="M-15.9639 500.42H406.803" stroke="white" stroke-width="0.346667" stroke-miterlimit="10"/>
<path d="M-15.9639 469.893H406.803" stroke="white" stroke-width="0.346667" stroke-miterlimit="10"/>
<path d="M-15.9639 439.365H406.803" stroke="white" stroke-width="0.346667" stroke-miterlimit="10"/>
<path d="M-15.9639 836.225H406.803" stroke="white" stroke-width="0.346667" stroke-miterlimit="10"/>
<path d="M-15.9639 805.697H406.803" stroke="white" stroke-width="0.346667" stroke-miterlimit="10"/>
<path d="M-15.9639 790.436H406.803" stroke="white" stroke-width="0.346667" stroke-miterlimit="10"/>
<path d="M-15.9639 775.17H406.803" stroke="white" stroke-width="0.346667" stroke-miterlimit="10"/>
<path d="M-15.9639 820.963H406.803" stroke="white" stroke-width="0.346667" stroke-miterlimit="10"/>
<path d="M390.094 0H0V844.128H390.094V0Z" stroke="white" stroke-width="0.346667" stroke-miterlimit="10"/>
<path d="M390.094 0H0V844.128H390.094V0Z" stroke="white" stroke-width="0.346667" stroke-miterlimit="10"/>
</g>
</g>
<defs>
<clipPath id="clip0_3759_3310">
<rect width="390" height="844" fill="white"/>
</clipPath>
</defs>
</svg>
