<svg width="390" height="844" viewBox="0 0 390 844" fill="none" xmlns="http://www.w3.org/2000/svg">
<g clip-path="url(#clip0_3759_3552)">
<path d="M390.094 0H0V844.128H390.094V0Z" fill="#F7FFE9"/>
<path d="M6.03893 186.207C8.10507 185.334 10.1643 184.443 12.2165 183.539C14.2133 182.659 16.1997 181.758 18.1792 180.84C20.1344 179.929 22.0827 178.997 24.0171 178.04C25.9376 177.091 27.8477 176.117 29.7405 175.113C31.6368 174.108 33.5192 173.079 35.3843 172.015C37.2701 170.941 39.1387 169.839 40.9864 168.706C42.8619 167.556 44.72 166.375 46.5573 165.162C48.4536 163.908 50.3325 162.622 52.1837 161.302C54.1043 159.937 56.004 158.538 57.8795 157.107C59.8451 155.606 61.7829 154.072 63.7 152.509C64.688 151.702 65.6725 150.884 66.6501 150.063C67.6555 149.218 68.6989 148.435 69.7632 147.662C71.8224 146.169 73.9301 144.741 76.0899 143.397C78.1179 142.136 80.1909 140.944 82.3091 139.835C84.3405 138.771 86.4136 137.781 88.5213 136.869C90.5563 135.989 92.6259 135.182 94.7163 134.448C96.7789 133.723 98.8659 133.072 100.974 132.483C103.071 131.898 105.186 131.378 107.314 130.91C109.446 130.442 111.592 130.03 113.745 129.659C115.946 129.282 118.154 128.946 120.37 128.644C122.633 128.336 124.904 128.059 127.175 127.799C129.529 127.532 131.882 127.286 134.24 127.047C136.687 126.797 139.138 126.558 141.589 126.316C143.95 126.08 146.307 125.841 148.665 125.585C150.835 125.346 153.005 125.093 155.171 124.809C157.213 124.542 159.252 124.244 161.283 123.908C163.197 123.589 165.103 123.236 166.996 122.823C168.806 122.432 170.602 121.995 172.383 121.493C174.106 121.008 175.812 120.464 177.497 119.851C179.157 119.244 180.794 118.572 182.395 117.827C184 117.082 185.571 116.261 187.099 115.374C188.684 114.456 190.223 113.462 191.717 112.405C193.291 111.29 194.816 110.101 196.29 108.854C197.863 107.52 199.382 106.12 200.852 104.672C202.446 103.099 203.982 101.467 205.469 99.7902C206.995 98.0717 208.562 96.3913 210.077 94.6659C211.564 92.9717 213.023 91.2497 214.465 89.5139C215.904 87.7815 217.322 86.0319 218.729 84.2753C220.13 82.5291 221.52 80.7794 222.914 79.0263C224.297 77.287 225.683 75.5477 227.084 73.8188C228.474 72.1003 229.878 70.3957 231.303 68.7084C232.714 67.0384 234.146 65.3892 235.612 63.7643C237.078 62.1428 238.576 60.549 240.115 58.9934C241.654 57.4412 243.232 55.9306 244.858 54.472C246.49 53.0064 248.172 51.5963 249.905 50.252C251.652 48.8973 253.448 47.6049 255.299 46.3923C257.192 45.1519 259.14 43.9912 261.137 42.9241C263.182 41.8293 265.28 40.8349 267.415 39.9341C269.838 38.9155 272.289 37.9454 274.754 37.0307C277.254 36.1056 279.77 35.2394 282.311 34.4287C284.832 33.6249 287.373 32.8765 289.924 32.1836C292.465 31.4941 295.024 30.86 297.593 30.2745C300.154 29.6924 302.727 29.1623 305.309 28.6842C307.878 28.2061 310.454 27.7765 313.037 27.3954C315.623 27.0108 318.216 26.6747 320.816 26.3767C323.426 26.0788 326.043 25.8258 328.664 25.611C331.289 25.3962 333.916 25.2195 336.547 25.0809C339.186 24.9423 341.824 24.8384 344.465 24.7656C347.1 24.6964 349.738 24.6548 352.373 24.6478C355.028 24.6375 357.687 24.6582 360.343 24.7033C363.009 24.7483 365.671 24.8211 368.337 24.9146C371.01 25.0082 373.679 25.126 376.348 25.2611C379.025 25.3962 381.701 25.5521 384.374 25.7219C386.284 25.8432 388.19 25.9748 390.101 26.11V0H0V188.722C2.0176 187.894 4.03173 187.055 6.03893 186.207Z" fill="#B3EBBC"/>
<path d="M381.919 743.29C377.059 743.892 372.206 744.53 367.349 745.167C362.436 745.812 357.521 746.456 352.605 747.07C347.686 747.683 342.76 748.261 337.827 748.778C335.348 749.037 332.869 749.28 330.391 749.502C329.146 749.613 327.905 749.727 326.657 749.82C325.461 749.911 324.255 749.914 323.059 749.931C318.299 749.994 313.543 749.755 308.804 749.315C304.151 748.882 299.523 748.254 294.906 747.544C290.285 746.834 285.678 746.034 281.067 745.264C276.456 744.492 271.839 743.747 267.204 743.137C262.586 742.531 257.948 742.066 253.295 741.848C248.556 741.626 243.804 741.661 239.075 742.046C236.641 742.243 234.229 742.586 231.802 742.829C229.372 743.071 226.938 743.269 224.498 743.418C219.898 743.698 215.29 743.802 210.683 743.716C206.315 743.633 201.954 743.38 197.607 742.957C193.433 742.552 189.273 741.99 185.137 741.301C181.012 740.611 176.904 739.794 172.824 738.882C168.671 737.954 164.542 736.932 160.427 735.854C156.166 734.739 151.923 733.568 147.683 732.376C143.184 731.111 138.687 729.833 134.188 728.568C131.047 727.688 127.955 726.645 124.824 725.72C121.68 724.788 118.522 723.901 115.353 723.056C111.984 722.155 108.604 721.296 105.21 720.481C101.691 719.636 98.1586 718.836 94.6191 718.084C90.9583 717.304 87.2836 716.573 83.602 715.898C79.8442 715.205 76.0759 714.567 72.2972 713.985C68.4839 713.4 64.6602 712.869 60.833 712.405C56.9815 711.937 53.1231 711.536 49.2543 711.206C45.4375 710.881 41.6138 710.628 37.7866 710.458C34.0183 710.288 30.2466 710.202 26.4714 710.205C22.7655 710.209 19.0596 710.306 15.3607 710.51C11.7935 710.708 8.23324 711.002 4.68684 711.421C3.12337 711.605 1.56337 711.816 0.00683594 712.052V844.136H390.1V742.319C387.376 742.631 384.651 742.957 381.929 743.293L381.919 743.29Z" fill="#B3EBBC"/>
<path d="M1.14053 175.748C5.38027 174.625 9.5368 173.177 13.5685 171.455C17.6107 169.73 21.5349 167.73 25.3309 165.517C29.1581 163.285 32.8536 160.836 36.4243 158.216C40.0192 155.58 43.4859 152.77 46.8381 149.825C50.1765 146.89 53.3971 143.828 56.5101 140.657C59.5851 137.529 62.556 134.296 65.4333 130.984C66.8547 129.349 68.2517 127.696 69.628 126.022C71.0112 124.342 72.3493 122.62 73.7429 120.95C76.3707 117.797 79.1787 114.78 82.2189 112.018C84.8432 109.634 87.6477 107.441 90.636 105.536C93.3781 103.786 96.2728 102.289 99.2888 101.066C102.242 99.8675 105.3 98.9355 108.41 98.2321C111.644 97.5011 114.93 97.0091 118.227 96.6661C121.805 96.2954 125.396 96.1013 128.991 95.9905C132.971 95.8657 136.954 95.8415 140.934 95.8311C145.361 95.8207 149.781 95.845 154.201 95.5539C158.385 95.2768 162.555 94.7848 166.681 94.026C170.515 93.3227 174.311 92.3976 178.031 91.23C181.601 90.1109 185.099 88.7701 188.5 87.2144C191.811 85.7003 195.028 83.9888 198.137 82.104C201.257 80.2123 204.273 78.1508 207.185 75.9576C210.167 73.7125 213.041 71.3253 215.824 68.8411C218.705 66.2703 221.496 63.5921 224.21 60.8481C227.049 57.9793 229.812 55.0378 232.527 52.0477C235.376 48.9122 238.174 45.7281 240.947 42.5198C241.72 41.6259 242.438 40.6766 243.187 39.7619C243.946 38.8334 244.712 37.9118 245.482 36.9902C246.965 35.2232 248.473 33.4735 250.006 31.7446C253.001 28.37 256.093 25.082 259.296 21.9049C262.434 18.797 265.678 15.7966 269.038 12.9313C272.393 10.066 275.863 7.33237 279.434 4.74424C281.701 3.10197 284.014 1.52207 286.361 -0.00585938H0V176.028C0.381333 175.935 0.762667 175.838 1.14053 175.737V175.748Z" fill="#D6F8D4"/>
<path d="M386.624 797.143C384.252 796.048 381.867 794.984 379.472 793.948C377.052 792.902 374.615 791.89 372.168 790.91C369.699 789.919 367.217 788.962 364.721 788.041C362.215 787.116 359.698 786.222 357.171 785.363C354.616 784.496 352.047 783.665 349.471 782.872C346.729 782.026 343.977 781.229 341.207 780.495C338.333 779.729 335.445 779.019 332.547 778.361C329.68 777.709 326.799 777.106 323.908 776.555C321.031 776.005 318.143 775.502 315.245 775.045C312.371 774.591 309.487 774.179 306.599 773.808C303.722 773.441 300.841 773.111 297.957 772.82C295.093 772.529 292.226 772.277 289.356 772.055C286.489 771.833 283.622 771.642 280.752 771.476C277.867 771.31 274.983 771.175 272.099 771.06C269.225 770.946 266.348 770.856 263.474 770.78C260.593 770.707 257.712 770.648 254.831 770.606C251.93 770.565 249.028 770.534 246.123 770.513C243.225 770.492 240.327 770.478 237.429 770.471C234.52 770.464 231.612 770.458 228.703 770.454C225.767 770.451 222.834 770.444 219.898 770.433C216.961 770.423 214.025 770.406 211.092 770.381C208.128 770.357 205.161 770.319 202.197 770.27C200.713 770.246 199.233 770.218 197.749 770.184C196.269 770.153 194.778 770.16 193.305 770.066C190.625 769.896 187.949 769.65 185.283 769.325C182.697 769.009 180.118 768.621 177.552 768.157C175.056 767.707 172.574 767.183 170.106 766.594C167.69 766.016 165.287 765.368 162.906 764.658C160.548 763.954 158.208 763.189 155.893 762.364C153.608 761.553 151.344 760.684 149.101 759.762C146.865 758.844 144.654 757.877 142.459 756.866C140.272 755.857 138.105 754.801 135.959 753.709C133.806 752.614 131.678 751.481 129.563 750.314C127.428 749.136 125.313 747.927 123.212 746.69C121.108 745.449 119.018 744.185 116.938 742.896C114.84 741.597 112.757 740.277 110.684 738.943C108.576 737.588 106.479 736.219 104.388 734.84C102.281 733.451 100.183 732.055 98.0825 730.652C95.947 729.224 93.815 727.793 91.6796 726.362C89.5268 724.921 87.3705 723.476 85.2108 722.042C84.1188 721.318 83.0268 720.594 81.9313 719.869C80.8878 719.18 79.8582 718.439 78.7697 717.818C77.2617 716.959 75.7502 716.103 74.2353 715.254C72.6233 714.354 71.0113 713.46 69.3889 712.576C67.6798 711.644 65.9673 710.726 64.2444 709.818C62.4417 708.869 60.6286 707.934 58.8086 707.015C56.9366 706.07 55.0577 705.145 53.1684 704.237C51.234 703.308 49.2892 702.4 47.3305 701.517C45.3268 700.613 43.3126 699.733 41.2881 698.884C39.2566 698.032 37.2148 697.21 35.159 696.42C33.0894 695.627 31.0025 694.865 28.9052 694.144C26.8252 693.427 24.7278 692.751 22.6201 692.121C20.5297 691.494 18.4254 690.915 16.3108 690.385C14.2134 689.862 12.1022 689.387 9.98063 688.978C7.90063 688.576 5.81023 688.23 3.70943 687.956C2.4753 687.797 1.23423 687.662 -0.00683594 687.551V844.12H390.087V798.761C388.932 798.213 387.778 797.669 386.617 797.136L386.624 797.143Z" fill="#D6F8D4"/>
<path d="M253.216 109.04C254.821 105.614 254.013 101.85 251.412 100.633C248.81 99.4164 245.401 101.208 243.797 104.634C242.192 108.06 243 111.824 245.601 113.041C248.202 114.257 251.612 112.466 253.216 109.04Z" fill="#C8ECC8"/>
<path d="M242.017 103.405C242.628 102.102 241.943 100.494 240.488 99.8133C239.033 99.1328 237.359 99.6377 236.749 100.941C236.138 102.244 236.823 103.852 238.278 104.533C239.733 105.213 241.407 104.709 242.017 103.405Z" fill="#C8ECC8"/>
<path d="M241.051 110.055C241.074 108.616 239.79 107.429 238.184 107.403C236.578 107.377 235.257 108.523 235.234 109.961C235.211 111.4 236.494 112.587 238.101 112.613C239.707 112.639 241.027 111.493 241.051 110.055Z" fill="#C8ECC8"/>
<path d="M246.925 98.8124C248.074 97.945 248.221 96.2034 247.252 94.9225C246.284 93.6415 244.568 93.3062 243.419 94.1736C242.27 95.041 242.124 96.7826 243.092 98.0635C244.06 99.3445 245.777 99.6798 246.925 98.8124Z" fill="#C8ECC8"/>
<path d="M324.656 139.507C326.184 136.046 325.292 132.301 322.664 131.143C320.037 129.985 316.668 131.852 315.141 135.313C313.613 138.774 314.505 142.519 317.133 143.677C319.76 144.836 323.129 142.969 324.656 139.507Z" fill="#C8ECC8"/>
<path d="M313.337 134.124C313.918 132.808 313.198 131.215 311.728 130.567C310.258 129.92 308.596 130.462 308.015 131.778C307.434 133.095 308.154 134.687 309.624 135.335C311.094 135.983 312.756 135.441 313.337 134.124Z" fill="#C8ECC8"/>
<path d="M309.643 143.413C311.25 143.403 312.545 142.228 312.535 140.79C312.526 139.351 311.217 138.192 309.611 138.202C308.004 138.213 306.709 139.387 306.719 140.826C306.728 142.265 308.037 143.423 309.643 143.413Z" fill="#C8ECC8"/>
<path d="M318.124 129.381C319.253 128.488 319.36 126.744 318.363 125.485C317.366 124.226 315.643 123.93 314.514 124.823C313.385 125.716 313.278 127.46 314.275 128.719C315.272 129.978 316.995 130.274 318.124 129.381Z" fill="#C8ECC8"/>
<path d="M379.735 191.259C381.263 187.798 380.371 184.053 377.743 182.895C375.116 181.737 371.747 183.604 370.22 187.065C368.692 190.526 369.584 194.271 372.212 195.429C374.84 196.588 378.208 194.721 379.735 191.259Z" fill="#C8ECC8"/>
<path d="M368.412 185.876C368.993 184.56 368.273 182.967 366.803 182.319C365.334 181.672 363.671 182.214 363.09 183.53C362.509 184.847 363.23 186.439 364.699 187.087C366.169 187.735 367.831 187.193 368.412 185.876Z" fill="#C8ECC8"/>
<path d="M364.721 195.159C366.327 195.149 367.622 193.975 367.613 192.536C367.604 191.097 366.294 189.938 364.688 189.949C363.081 189.959 361.787 191.133 361.796 192.572C361.805 194.011 363.114 195.169 364.721 195.159Z" fill="#C8ECC8"/>
<path d="M373.2 181.131C374.329 180.238 374.436 178.494 373.439 177.235C372.442 175.976 370.719 175.679 369.59 176.573C368.461 177.466 368.354 179.21 369.351 180.469C370.348 181.728 372.071 182.024 373.2 181.131Z" fill="#C8ECC8"/>
<path d="M306.821 93.1014C308.04 89.5198 306.824 85.8673 304.105 84.9433C301.386 84.0192 298.194 86.1736 296.975 89.7552C295.756 93.3368 296.973 96.9893 299.692 97.9133C302.411 98.8374 305.603 96.683 306.821 93.1014Z" fill="#C8ECC8"/>
<path d="M295.071 88.7272C295.535 87.3648 294.678 85.8414 293.157 85.3246C291.636 84.8078 290.027 85.4932 289.564 86.8555C289.1 88.2179 289.957 89.7412 291.478 90.2581C292.999 90.7749 294.608 90.0895 295.071 88.7272Z" fill="#C8ECC8"/>
<path d="M292.215 98.2963C293.814 98.1457 295.001 96.8624 294.866 95.4297C294.731 93.9971 293.325 92.9578 291.726 93.1083C290.127 93.2588 288.94 94.5422 289.075 95.9748C289.21 97.4075 290.615 98.4468 292.215 98.2963Z" fill="#C8ECC8"/>
<path d="M299.427 83.5884C300.474 82.6 300.428 80.8529 299.324 79.6861C298.221 78.5192 296.478 78.3745 295.432 79.3628C294.385 80.3511 294.432 82.0983 295.535 83.2651C296.638 84.432 298.381 84.5767 299.427 83.5884Z" fill="#C8ECC8"/>
<path d="M375.116 132.569C377.082 129.336 376.687 125.507 374.233 124.016C371.779 122.525 368.196 123.936 366.23 127.169C364.263 130.401 364.658 134.23 367.112 135.721C369.566 137.213 373.149 135.801 375.116 132.569Z" fill="#C8ECC8"/>
<path d="M364.596 125.751C365.344 124.522 364.838 122.849 363.465 122.015C362.093 121.181 360.374 121.501 359.626 122.731C358.878 123.96 359.384 125.633 360.757 126.467C362.129 127.301 363.848 126.981 364.596 125.751Z" fill="#C8ECC8"/>
<path d="M362.927 132.251C363.106 130.823 361.959 129.504 360.365 129.304C358.771 129.105 357.334 130.1 357.155 131.528C356.976 132.956 358.123 134.275 359.717 134.475C361.311 134.674 362.748 133.678 362.927 132.251Z" fill="#C8ECC8"/>
<path d="M369.947 121.684C371.183 120.945 371.517 119.23 370.693 117.852C369.869 116.474 368.199 115.955 366.963 116.693C365.728 117.431 365.394 119.147 366.217 120.525C367.041 121.903 368.711 122.422 369.947 121.684Z" fill="#C8ECC8"/>
<path d="M183.992 74.3548C184.79 70.6569 183.161 67.1685 180.354 66.5634C177.546 65.9584 174.624 68.4656 173.826 72.1636C173.028 75.8616 174.657 79.3499 177.464 79.955C180.271 80.5601 183.194 78.0528 183.992 74.3548Z" fill="#F7FFE9"/>
<path d="M171.813 71.3584C172.117 69.9518 171.09 68.5371 169.519 68.1987C167.949 67.8603 166.43 68.7262 166.127 70.1328C165.823 71.5394 166.85 72.9541 168.42 73.2925C169.991 73.6309 171.51 72.765 171.813 71.3584Z" fill="#F7FFE9"/>
<path d="M170.058 81.2043C171.629 80.8708 172.661 79.4594 172.362 78.0518C172.063 76.6442 170.546 75.7735 168.975 76.1071C167.404 76.4406 166.372 77.852 166.671 79.2595C166.971 80.6671 168.487 81.5378 170.058 81.2043Z" fill="#F7FFE9"/>
<path d="M175.544 65.7598C176.469 64.6576 176.222 62.9274 174.992 61.8953C173.762 60.8631 172.014 60.9198 171.088 62.022C170.163 63.1241 170.41 64.8543 171.64 65.8865C172.87 66.9186 174.618 66.8619 175.544 65.7598Z" fill="#F7FFE9"/>
<path d="M132.646 49.8001C133.757 46.184 132.433 42.5691 129.688 41.7261C126.943 40.8831 123.816 43.1312 122.704 46.7473C121.593 50.3635 122.917 53.9783 125.662 54.8213C128.407 55.6643 131.534 53.4163 132.646 49.8001Z" fill="#F7FFE9"/>
<path d="M120.772 45.7814C121.195 44.406 120.293 42.9087 118.758 42.4371C117.222 41.9656 115.635 42.6984 115.212 44.0739C114.789 45.4494 115.691 46.9467 117.227 47.4182C118.762 47.8897 120.35 47.1569 120.772 45.7814Z" fill="#F7FFE9"/>
<path d="M118.195 55.4359C119.789 55.2381 120.938 53.92 120.76 52.4921C120.583 51.0641 119.146 50.0669 117.552 50.2648C115.958 50.4626 114.81 51.7807 114.987 53.2086C115.165 54.6366 116.601 55.6338 118.195 55.4359Z" fill="#F7FFE9"/>
<path d="M124.987 40.5367C126.004 39.518 125.906 37.773 124.769 36.6392C123.632 35.5054 121.885 35.4121 120.868 36.4308C119.852 37.4495 119.949 39.1945 121.086 40.3284C122.224 41.4622 123.97 41.5555 124.987 40.5367Z" fill="#F7FFE9"/>
<path d="M229.541 47.2304C229.911 43.4656 227.895 40.1858 225.037 39.9047C222.179 39.6236 219.561 42.4477 219.191 46.2125C218.82 49.9773 220.836 53.2572 223.695 53.5382C226.553 53.8193 229.17 50.9952 229.541 47.2304Z" fill="#F7FFE9"/>
<path d="M217.106 45.6444C217.247 44.2123 216.065 42.924 214.467 42.7668C212.868 42.6096 211.458 43.643 211.317 45.075C211.176 46.5071 212.357 47.7954 213.956 47.9526C215.555 48.1099 216.965 47.0764 217.106 45.6444Z" fill="#F7FFE9"/>
<path d="M216.496 55.6158C218.019 55.1053 218.883 53.5855 218.425 52.2213C217.967 50.857 216.362 50.1648 214.839 50.6753C213.316 51.1858 212.452 52.7056 212.91 54.0698C213.368 55.4341 214.974 56.1263 216.496 55.6158Z" fill="#F7FFE9"/>
<path d="M220.177 39.649C220.971 38.4485 220.528 36.7578 219.188 35.8726C217.848 34.9875 216.118 35.2431 215.324 36.4435C214.53 37.644 214.973 39.3348 216.313 40.2199C217.653 41.1051 219.383 40.8495 220.177 39.649Z" fill="#F7FFE9"/>
<path d="M88.3819 72.3156C88.8609 68.563 86.9398 65.2265 84.091 64.8633C81.2422 64.5001 78.5445 67.2477 78.0655 71.0003C77.5865 74.7529 79.5076 78.0894 82.3564 78.4526C85.2052 78.8158 87.9029 76.0682 88.3819 72.3156Z" fill="#F7FFE9"/>
<path d="M75.9996 70.3699C76.1818 68.9426 75.0378 67.6207 73.4444 67.4176C71.8509 67.2144 70.4115 68.2069 70.2293 69.6342C70.0471 71.0616 71.1911 72.3834 72.7846 72.5866C74.378 72.7898 75.8174 71.7973 75.9996 70.3699Z" fill="#F7FFE9"/>
<path d="M75.1026 80.3291C76.6396 79.8626 77.5465 78.3683 77.1282 76.9915C76.7099 75.6146 75.1248 74.8765 73.5878 75.3429C72.0507 75.8094 71.1438 77.3037 71.5621 78.6806C71.9804 80.0574 73.5655 80.7955 75.1026 80.3291Z" fill="#F7FFE9"/>
<path d="M79.2471 64.4908C80.0753 63.3138 79.6817 61.611 78.3678 60.6874C77.0539 59.7638 75.3173 59.9692 74.489 61.1462C73.6607 62.3232 74.0544 64.0261 75.3683 64.9496C76.6822 65.8732 78.4188 65.6678 79.2471 64.4908Z" fill="#F7FFE9"/>
<path d="M47.5991 39.1112C49.338 35.7511 48.6799 31.9582 46.129 30.6395C43.5782 29.3209 40.1006 30.9758 38.3616 34.3359C36.6226 37.696 37.2808 41.4889 39.8316 42.8076C42.3825 44.1262 45.8601 42.4713 47.5991 39.1112Z" fill="#F7FFE9"/>
<path d="M36.6321 33.0345C37.2936 31.7564 36.6731 30.1224 35.2464 29.3848C33.8196 28.6472 32.1267 29.0854 31.4653 30.3635C30.8038 31.6416 31.4242 33.2757 32.851 34.0132C34.2778 34.7508 35.9706 34.3126 36.6321 33.0345Z" fill="#F7FFE9"/>
<path d="M35.415 39.6381C35.4952 38.2014 34.2599 36.9643 32.6561 36.8749C31.0522 36.7856 29.6871 37.8779 29.607 39.3146C29.5269 40.7513 30.7621 41.9884 32.3659 42.0778C33.9698 42.1671 35.3349 41.0748 35.415 39.6381Z" fill="#F7FFE9"/>
<path d="M41.7043 28.6122C42.8864 27.7908 43.1014 26.0563 42.1844 24.7382C41.2674 23.4201 39.5657 23.0174 38.3836 23.8388C37.2015 24.6603 36.9865 26.3947 37.9035 27.7129C38.8205 29.031 40.5222 29.4337 41.7043 28.6122Z" fill="#F7FFE9"/>
<path d="M86.9247 688.058C89.9074 685.729 90.8921 682.007 89.124 679.745C87.3558 677.483 83.5045 677.538 80.5218 679.867C77.5391 682.196 76.5544 685.918 78.3225 688.179C80.0906 690.441 83.942 690.387 86.9247 688.058Z" fill="#C8ECC8"/>
<path d="M91.5351 694.542C92.6696 693.656 92.7876 691.912 91.7987 690.647C90.8097 689.382 89.0883 689.074 87.9537 689.96C86.8191 690.846 86.7011 692.59 87.6901 693.855C88.679 695.12 90.4005 695.428 91.5351 694.542Z" fill="#C8ECC8"/>
<path d="M96.9452 687.169C97.6176 685.897 97.0111 684.257 95.5907 683.508C94.1703 682.758 92.4738 683.182 91.8014 684.454C91.1291 685.726 91.7354 687.366 93.1558 688.115C94.5763 688.865 96.2728 688.441 96.9452 687.169Z" fill="#C8ECC8"/>
<path d="M82.437 697.643C83.8542 697.389 84.7736 695.902 84.4905 694.322C84.2075 692.742 82.8291 691.666 81.4118 691.92C79.9946 692.173 79.0752 693.66 79.3583 695.24C79.6413 696.821 81.0197 697.896 82.437 697.643Z" fill="#C8ECC8"/>
<path d="M67.7635 743.936C70.7463 741.607 71.7309 737.886 69.9628 735.624C68.1947 733.362 64.3434 733.417 61.3607 735.746C58.3779 738.075 57.3933 741.796 59.1614 744.058C60.9295 746.32 64.7808 746.265 67.7635 743.936Z" fill="#F7FFE9"/>
<path d="M72.3749 750.419C73.5095 749.533 73.6274 747.789 72.6385 746.524C71.6495 745.259 69.9281 744.951 68.7936 745.837C67.659 746.723 67.5409 748.467 68.5299 749.732C69.5189 750.997 71.2403 751.305 72.3749 750.419Z" fill="#F7FFE9"/>
<path d="M77.7831 743.042C78.4555 741.77 77.8491 740.13 76.4287 739.381C75.0083 738.631 73.3117 739.055 72.6393 740.327C71.9669 741.599 72.5734 743.239 73.9938 743.988C75.4142 744.738 77.1107 744.314 77.7831 743.042Z" fill="#F7FFE9"/>
<path d="M63.269 753.521C64.6862 753.268 65.6056 751.781 65.3226 750.201C65.0395 748.621 63.6611 747.545 62.2439 747.799C60.8266 748.052 59.9072 749.539 60.1903 751.119C60.4734 752.7 61.8517 753.775 63.269 753.521Z" fill="#F7FFE9"/>
<path d="M27.6545 657.117C29.7919 653.994 29.6031 650.15 27.233 648.529C24.8628 646.908 21.2086 648.125 19.0713 651.247C16.9339 654.369 17.1226 658.214 19.4928 659.835C21.863 661.456 25.5171 660.239 27.6545 657.117Z" fill="#C8ECC8"/>
<path d="M34.0122 661.898C34.8252 660.711 34.4096 659.013 33.0839 658.106C31.7581 657.2 30.0243 657.428 29.2113 658.615C28.3983 659.803 28.814 661.501 30.1397 662.407C31.4654 663.314 33.1992 663.086 34.0122 661.898Z" fill="#C8ECC8"/>
<path d="M36.9656 653.243C37.2211 651.827 36.1467 650.448 34.5658 650.163C32.9849 649.878 31.4963 650.795 31.2409 652.211C30.9854 653.627 32.0599 655.006 33.6407 655.291C35.2216 655.576 36.7102 654.659 36.9656 653.243Z" fill="#C8ECC8"/>
<path d="M26.3536 667.515C27.6274 666.845 28.0531 665.149 27.3045 663.729C26.5558 662.309 24.9162 661.701 23.6424 662.372C22.3686 663.042 21.9428 664.737 22.6915 666.158C23.4402 667.578 25.0798 668.186 26.3536 667.515Z" fill="#C8ECC8"/>
<path d="M29.478 594.345C32.1348 591.65 32.6303 587.833 30.5847 585.818C28.5392 583.803 24.7271 584.354 22.0703 587.049C19.4135 589.743 18.918 593.561 20.9636 595.576C23.0091 597.59 26.8212 597.039 29.478 594.345Z" fill="#C8ECC8"/>
<path d="M34.8882 600.18C35.8988 599.155 35.7905 597.411 34.6463 596.284C33.5022 595.157 31.7554 595.074 30.7449 596.099C29.7343 597.124 29.8426 598.869 30.9867 599.995C32.1309 601.122 33.8776 601.205 34.8882 600.18Z" fill="#C8ECC8"/>
<path d="M39.3123 592.173C39.8146 590.824 39.0014 589.277 37.4961 588.717C35.9907 588.157 34.3631 588.796 33.8607 590.144C33.3584 591.493 34.1715 593.04 35.6769 593.6C37.1823 594.16 38.8099 593.521 39.3123 592.173Z" fill="#C8ECC8"/>
<path d="M26.3662 604.365C27.7387 603.93 28.458 602.337 27.9729 600.807C27.4877 599.276 25.9817 598.388 24.6092 598.822C23.2367 599.257 22.5173 600.85 23.0025 602.38C23.4877 603.911 24.9937 604.799 26.3662 604.365Z" fill="#C8ECC8"/>
<path d="M108.04 793.065C110.34 790.061 110.355 786.211 108.074 784.467C105.793 782.723 102.08 783.745 99.7799 786.749C97.4798 789.754 97.4642 793.603 99.7451 795.347C102.026 797.092 105.74 796.07 108.04 793.065Z" fill="#F7FFE9"/>
<path d="M114.133 798.18C115.008 797.037 114.683 795.32 113.407 794.345C112.131 793.369 110.388 793.505 109.513 794.648C108.638 795.79 108.963 797.508 110.239 798.483C111.514 799.459 113.258 799.323 114.133 798.18Z" fill="#F7FFE9"/>
<path d="M117.515 789.686C117.845 788.286 116.845 786.852 115.282 786.483C113.718 786.115 112.183 786.952 111.853 788.353C111.523 789.753 112.522 791.187 114.086 791.555C115.649 791.924 117.185 791.087 117.515 789.686Z" fill="#F7FFE9"/>
<path d="M106.216 803.403C107.524 802.8 108.039 801.13 107.367 799.672C106.694 798.214 105.089 797.52 103.782 798.123C102.474 798.725 101.959 800.395 102.631 801.853C103.304 803.311 104.909 804.005 106.216 803.403Z" fill="#F7FFE9"/>
<path d="M171.924 783.423C172.737 779.728 171.122 776.233 168.317 775.617C165.512 775.001 162.579 777.496 161.767 781.191C160.954 784.886 162.569 788.381 165.374 788.997C168.179 789.613 171.111 787.118 171.924 783.423Z" fill="#F7FFE9"/>
<path d="M179.613 785.485C179.922 784.08 178.901 782.661 177.332 782.316C175.763 781.971 174.241 782.831 173.932 784.237C173.623 785.642 174.644 787.061 176.213 787.405C177.782 787.75 179.304 786.89 179.613 785.485Z" fill="#F7FFE9"/>
<path d="M176.833 779.529C178.406 779.201 179.443 777.794 179.149 776.385C178.856 774.977 177.343 774.1 175.77 774.427C174.198 774.754 173.161 776.162 173.454 777.57C173.748 778.979 175.26 779.856 176.833 779.529Z" fill="#F7FFE9"/>
<path d="M174.58 793.684C175.511 792.586 175.271 790.854 174.045 789.817C172.819 788.78 171.071 788.829 170.14 789.927C169.21 791.026 169.45 792.757 170.676 793.794C171.902 794.832 173.65 794.782 174.58 793.684Z" fill="#F7FFE9"/>
<path d="M289.655 793.237C290.468 789.543 288.853 786.048 286.048 785.431C283.244 784.815 280.311 787.311 279.498 791.005C278.685 794.7 280.3 798.195 283.105 798.811C285.91 799.428 288.843 796.932 289.655 793.237Z" fill="#F7FFE9"/>
<path d="M297.342 795.296C297.651 793.89 296.63 792.471 295.061 792.127C293.492 791.782 291.97 792.642 291.66 794.047C291.351 795.453 292.372 796.871 293.941 797.216C295.51 797.561 297.033 796.701 297.342 795.296Z" fill="#F7FFE9"/>
<path d="M294.573 789.335C296.146 789.008 297.183 787.601 296.889 786.192C296.596 784.783 295.083 783.907 293.511 784.234C291.938 784.561 290.901 785.968 291.194 787.377C291.488 788.786 293.001 789.662 294.573 789.335Z" fill="#F7FFE9"/>
<path d="M292.328 803.504C293.258 802.406 293.019 800.675 291.793 799.637C290.567 798.6 288.819 798.65 287.888 799.748C286.958 800.846 287.198 802.577 288.424 803.615C289.65 804.652 291.398 804.602 292.328 803.504Z" fill="#F7FFE9"/>
<path d="M221.493 809.485C222.306 805.791 220.691 802.296 217.886 801.68C215.081 801.063 212.149 803.559 211.336 807.253C210.523 810.948 212.138 814.443 214.943 815.059C217.748 815.676 220.681 813.18 221.493 809.485Z" fill="#F7FFE9"/>
<path d="M229.179 811.548C229.488 810.142 228.467 808.723 226.898 808.379C225.329 808.034 223.806 808.894 223.497 810.299C223.188 811.704 224.209 813.123 225.778 813.468C227.347 813.813 228.87 812.953 229.179 811.548Z" fill="#F7FFE9"/>
<path d="M226.409 805.585C227.982 805.258 229.019 803.851 228.725 802.442C228.432 801.033 226.919 800.157 225.346 800.484C223.774 800.811 222.737 802.218 223.03 803.627C223.324 805.036 224.837 805.912 226.409 805.585Z" fill="#F7FFE9"/>
<path d="M224.156 819.754C225.087 818.656 224.847 816.925 223.621 815.887C222.395 814.85 220.647 814.9 219.717 815.998C218.786 817.096 219.026 818.827 220.252 819.865C221.478 820.902 223.226 820.852 224.156 819.754Z" fill="#F7FFE9"/>
<path d="M345.56 825.585C346.373 821.89 344.758 818.395 341.953 817.779C339.148 817.163 336.215 819.658 335.402 823.353C334.59 827.048 336.204 830.543 339.009 831.159C341.814 831.775 344.747 829.28 345.56 825.585Z" fill="#F7FFE9"/>
<path d="M353.249 827.643C353.558 826.238 352.537 824.819 350.968 824.474C349.399 824.13 347.877 824.989 347.568 826.395C347.258 827.8 348.28 829.219 349.848 829.564C351.417 829.908 352.94 829.049 353.249 827.643Z" fill="#F7FFE9"/>
<path d="M350.485 821.679C352.058 821.352 353.095 819.945 352.801 818.536C352.508 817.127 350.995 816.25 349.423 816.577C347.85 816.905 346.813 818.312 347.107 819.721C347.4 821.129 348.913 822.006 350.485 821.679Z" fill="#F7FFE9"/>
<path d="M348.236 835.86C349.167 834.761 348.927 833.03 347.701 831.993C346.475 830.956 344.727 831.005 343.797 832.103C342.866 833.201 343.106 834.933 344.332 835.97C345.558 837.007 347.306 836.958 348.236 835.86Z" fill="#F7FFE9"/>
</g>
<defs>
<clipPath id="clip0_3759_3552">
<rect width="390" height="844" fill="white"/>
</clipPath>
</defs>
</svg>
