<svg width="390" height="844" viewBox="0 0 390 844" fill="none" xmlns="http://www.w3.org/2000/svg">
<g clip-path="url(#clip0_3759_3401)">
<path d="M390.094 0H0V844.128H390.094V0Z" fill="#FFE3AB"/>
<path d="M97.7729 398.607C103.126 398.607 107.466 395.317 107.466 391.259C107.466 387.2 103.126 383.91 97.7729 383.91C92.4197 383.91 88.0801 387.2 88.0801 391.259C88.0801 395.317 92.4197 398.607 97.7729 398.607Z" fill="#EABD6C"/>
<path d="M97.2637 380.888C99.3009 380.888 100.952 379.048 100.952 376.779C100.952 374.51 99.3009 372.67 97.2637 372.67C95.2266 372.67 93.5752 374.51 93.5752 376.779C93.5752 379.048 95.2266 380.888 97.2637 380.888Z" fill="#EABD6C"/>
<path d="M111.403 381.411C112.332 379.34 111.579 376.986 109.72 376.153C107.862 375.32 105.601 376.323 104.672 378.393C103.743 380.464 104.496 382.818 106.355 383.651C108.213 384.485 110.474 383.482 111.403 381.411Z" fill="#EABD6C"/>
<path d="M88.3967 384.389C90.198 383.438 90.7986 381.041 89.7382 379.034C88.6778 377.027 86.3579 376.171 84.5565 377.122C82.7552 378.073 82.1546 380.471 83.215 382.477C84.2754 384.484 86.5954 385.34 88.3967 384.389Z" fill="#EABD6C"/>
<path d="M238.128 55.873C243.482 55.873 247.821 52.5829 247.821 48.5244C247.821 44.4659 243.482 41.1758 238.128 41.1758C232.775 41.1758 228.436 44.4659 228.436 48.5244C228.436 52.5829 232.775 55.873 238.128 55.873Z" fill="#EABD6C"/>
<path d="M237.615 38.1577C239.652 38.1577 241.304 36.318 241.304 34.0486C241.304 31.7792 239.652 29.9395 237.615 29.9395C235.578 29.9395 233.927 31.7792 233.927 34.0486C233.927 36.318 235.578 38.1577 237.615 38.1577Z" fill="#EABD6C"/>
<path d="M251.76 38.6786C252.69 36.6079 251.936 34.2539 250.078 33.4206C248.219 32.5873 245.959 33.5903 245.029 35.6609C244.1 37.7316 244.853 40.0857 246.712 40.919C248.571 41.7523 250.831 40.7492 251.76 38.6786Z" fill="#EABD6C"/>
<path d="M228.762 41.6548C230.563 40.704 231.164 38.3065 230.103 36.2997C229.043 34.293 226.723 33.437 224.922 34.3878C223.12 35.3386 222.52 37.7362 223.58 39.7429C224.641 41.7496 226.961 42.6056 228.762 41.6548Z" fill="#EABD6C"/>
<path d="M343.579 635.381C348.932 635.381 353.271 632.091 353.271 628.032C353.271 623.974 348.932 620.684 343.579 620.684C338.225 620.684 333.886 623.974 333.886 628.032C333.886 632.091 338.225 635.381 343.579 635.381Z" fill="#EABD6C"/>
<path d="M343.068 617.666C345.106 617.666 346.757 615.826 346.757 613.556C346.757 611.287 345.106 609.447 343.068 609.447C341.031 609.447 339.38 611.287 339.38 613.556C339.38 615.826 341.031 617.666 343.068 617.666Z" fill="#EABD6C"/>
<path d="M357.21 618.188C358.139 616.118 357.386 613.764 355.527 612.93C353.668 612.097 351.408 613.1 350.479 615.171C349.549 617.241 350.303 619.595 352.161 620.429C354.02 621.262 356.28 620.259 357.21 618.188Z" fill="#EABD6C"/>
<path d="M334.2 621.174C336.002 620.224 336.602 617.826 335.542 615.819C334.481 613.813 332.162 612.957 330.36 613.907C328.559 614.858 327.958 617.256 329.019 619.262C330.079 621.269 332.399 622.125 334.2 621.174Z" fill="#EABD6C"/>
<path d="M217.258 401.936C221.953 399.366 224.178 394.397 222.227 390.837C220.276 387.278 214.889 386.476 210.194 389.046C205.499 391.616 203.274 396.585 205.224 400.144C207.175 403.704 212.563 404.506 217.258 401.936Z" fill="#EABD6C"/>
<path d="M208.294 386.646C210.08 385.668 210.644 383.262 209.554 381.271C208.463 379.281 206.13 378.46 204.343 379.438C202.557 380.416 201.993 382.823 203.083 384.813C204.174 386.803 206.507 387.624 208.294 386.646Z" fill="#EABD6C"/>
<path d="M217.596 384.703C219.627 384.541 221.127 382.576 220.947 380.314C220.766 378.052 218.974 376.349 216.943 376.51C214.913 376.672 213.413 378.637 213.593 380.899C213.773 383.161 215.565 384.864 217.596 384.703Z" fill="#EABD6C"/>
<path d="M202.198 393.97C203.321 392.271 202.695 389.88 200.801 388.629C198.906 387.378 196.46 387.741 195.337 389.44C194.214 391.139 194.84 393.53 196.734 394.781C198.629 396.032 201.075 395.669 202.198 393.97Z" fill="#EABD6C"/>
<path d="M41.124 552.36C45.8191 549.79 48.0438 544.821 46.0931 541.261C44.1424 537.702 38.7549 536.899 34.0598 539.469C29.3647 542.04 27.14 547.009 29.0907 550.568C31.0415 554.128 36.4289 554.93 41.124 552.36Z" fill="#EABD6C"/>
<path d="M32.1588 537.064C33.9455 536.086 34.5096 533.68 33.4188 531.689C32.328 529.699 29.9954 528.878 28.2087 529.856C26.422 530.834 25.8579 533.24 26.9487 535.231C28.0395 537.221 30.3721 538.042 32.1588 537.064Z" fill="#EABD6C"/>
<path d="M41.4591 535.127C43.4898 534.965 44.99 533 44.8099 530.738C44.6297 528.476 42.8375 526.773 40.8068 526.934C38.7761 527.096 37.2759 529.06 37.456 531.323C37.6362 533.585 39.4284 535.288 41.4591 535.127Z" fill="#EABD6C"/>
<path d="M26.0591 544.39C27.182 542.691 26.5564 540.3 24.6618 539.049C22.7672 537.798 20.3211 538.161 19.1982 539.86C18.0753 541.558 18.7009 543.95 20.5955 545.201C22.4901 546.451 24.9362 546.088 26.0591 544.39Z" fill="#EABD6C"/>
<path d="M351.934 438.724C356.744 436.375 359.198 431.515 357.415 427.869C355.632 424.222 350.288 423.17 345.478 425.519C340.669 427.867 338.215 432.728 339.997 436.374C341.78 440.021 347.124 441.073 351.934 438.724Z" fill="#EABD6C"/>
<path d="M357.329 448.594C359.16 447.7 359.835 445.322 358.838 443.283C357.842 441.244 355.55 440.316 353.719 441.21C351.889 442.104 351.213 444.481 352.21 446.52C353.207 448.559 355.499 449.488 357.329 448.594Z" fill="#EABD6C"/>
<path d="M344.609 450.943C346.645 450.876 348.235 448.983 348.16 446.715C348.086 444.446 346.375 442.662 344.339 442.729C342.303 442.795 340.713 444.688 340.787 446.957C340.862 449.225 342.573 451.009 344.609 450.943Z" fill="#EABD6C"/>
<path d="M366.778 439.044C367.978 437.4 367.465 434.982 365.631 433.644C363.796 432.307 361.336 432.555 360.135 434.2C358.934 435.845 359.448 438.262 361.282 439.6C363.116 440.938 365.577 440.689 366.778 439.044Z" fill="#EABD6C"/>
<path d="M40.8502 801.707C45.6599 799.358 48.1138 794.498 46.3311 790.851C44.5484 787.205 39.2042 786.152 34.3944 788.501C29.5846 790.85 27.1307 795.71 28.9134 799.357C30.6961 803.003 36.0404 804.055 40.8502 801.707Z" fill="#EABD6C"/>
<path d="M46.2452 811.574C48.0756 810.68 48.7513 808.303 47.7544 806.264C46.7576 804.225 44.4657 803.296 42.6354 804.19C40.8051 805.084 40.1294 807.462 41.1262 809.501C42.1231 811.54 44.4149 812.468 46.2452 811.574Z" fill="#EABD6C"/>
<path d="M33.5217 813.929C35.5578 813.862 37.1479 811.969 37.0734 809.701C36.9989 807.433 35.288 805.648 33.252 805.715C31.216 805.782 29.6258 807.675 29.7003 809.943C29.7748 812.211 31.4857 813.996 33.5217 813.929Z" fill="#EABD6C"/>
<path d="M55.6838 802.025C56.8847 800.38 56.3713 797.963 54.537 796.625C52.7028 795.287 50.2423 795.536 49.0415 797.18C47.8407 798.825 48.3542 801.243 50.1884 802.58C52.0226 803.918 54.483 803.669 55.6838 802.025Z" fill="#EABD6C"/>
<path d="M120.674 158.562C125.484 156.213 127.938 151.353 126.155 147.707C124.373 144.06 119.028 143.008 114.219 145.357C109.409 147.705 106.955 152.565 108.738 156.212C110.52 159.859 115.865 160.911 120.674 158.562Z" fill="#EABD6C"/>
<path d="M126.068 168.438C127.899 167.544 128.574 165.166 127.578 163.127C126.581 161.088 124.289 160.16 122.459 161.054C120.628 161.947 119.953 164.325 120.949 166.364C121.946 168.403 124.238 169.331 126.068 168.438Z" fill="#EABD6C"/>
<path d="M113.344 170.778C115.38 170.712 116.97 168.819 116.896 166.551C116.821 164.282 115.11 162.498 113.074 162.565C111.038 162.631 109.448 164.524 109.523 166.792C109.597 169.061 111.308 170.845 113.344 170.778Z" fill="#EABD6C"/>
<path d="M135.522 158.878C136.723 157.234 136.209 154.816 134.375 153.478C132.541 152.141 130.08 152.389 128.879 154.034C127.679 155.678 128.192 158.096 130.026 159.434C131.86 160.772 134.321 160.523 135.522 158.878Z" fill="#EABD6C"/>
<path d="M254.633 230.693C256.329 227.006 253.761 222.205 248.898 219.97C244.034 217.735 238.716 218.913 237.02 222.601C235.323 226.288 237.891 231.089 242.755 233.324C247.619 235.559 252.937 234.381 254.633 230.693Z" fill="#EABD6C"/>
<path d="M243.596 241.555C244.544 239.493 243.813 237.132 241.962 236.282C240.111 235.431 237.842 236.414 236.893 238.476C235.945 240.537 236.676 242.898 238.527 243.749C240.378 244.599 242.647 243.617 243.596 241.555Z" fill="#EABD6C"/>
<path d="M234.176 235.463C235.886 233.97 236.185 231.516 234.845 229.983C233.504 228.45 231.031 228.418 229.321 229.911C227.612 231.405 227.312 233.858 228.653 235.391C229.993 236.924 232.466 236.956 234.176 235.463Z" fill="#EABD6C"/>
<path d="M251.906 245.019C253.94 244.907 255.488 242.979 255.363 240.713C255.239 238.447 253.488 236.701 251.454 236.813C249.42 236.925 247.873 238.853 247.997 241.119C248.122 243.385 249.872 245.131 251.906 245.019Z" fill="#EABD6C"/>
<path d="M268.252 767.883C269.948 764.195 267.381 759.394 262.517 757.16C257.653 754.925 252.335 756.102 250.639 759.79C248.942 763.477 251.51 768.278 256.374 770.513C261.238 772.748 266.556 771.57 268.252 767.883Z" fill="#EABD6C"/>
<path d="M257.21 778.743C258.159 776.681 257.427 774.32 255.576 773.469C253.725 772.619 251.456 773.601 250.507 775.663C249.559 777.725 250.29 780.086 252.141 780.936C253.992 781.787 256.262 780.805 257.21 778.743Z" fill="#EABD6C"/>
<path d="M247.791 772.65C249.501 771.157 249.8 768.704 248.46 767.171C247.119 765.638 244.647 765.605 242.937 767.099C241.227 768.592 240.927 771.045 242.268 772.579C243.608 774.112 246.081 774.144 247.791 772.65Z" fill="#EABD6C"/>
<path d="M265.505 782.199C267.539 782.087 269.087 780.159 268.962 777.893C268.837 775.627 267.087 773.881 265.053 773.993C263.019 774.105 261.471 776.032 261.596 778.298C261.721 780.564 263.471 782.311 265.505 782.199Z" fill="#EABD6C"/>
<path d="M363.345 832.892C367.985 830.225 370.106 825.211 368.082 821.693C366.058 818.175 360.655 817.484 356.014 820.151C351.373 822.818 349.252 827.833 351.277 831.351C353.301 834.869 358.704 835.559 363.345 832.892Z" fill="#EABD6C"/>
<path d="M354.066 817.789C355.832 816.774 356.346 814.356 355.214 812.389C354.082 810.422 351.733 809.649 349.967 810.664C348.201 811.679 347.687 814.097 348.819 816.064C349.951 818.032 352.3 818.804 354.066 817.789Z" fill="#EABD6C"/>
<path d="M363.319 815.65C365.346 815.447 366.805 813.451 366.577 811.193C366.35 808.935 364.523 807.269 362.496 807.473C360.469 807.677 359.01 809.672 359.237 811.93C359.464 814.188 361.292 815.854 363.319 815.65Z" fill="#EABD6C"/>
<path d="M348.127 825.256C349.215 823.534 348.54 821.156 346.619 819.945C344.699 818.734 342.261 819.147 341.174 820.869C340.087 822.591 340.762 824.968 342.682 826.18C344.602 827.391 347.04 826.977 348.127 825.256Z" fill="#EABD6C"/>
<path d="M367.497 119.344C369.193 115.656 366.626 110.855 361.762 108.621C356.898 106.386 351.58 107.563 349.884 111.251C348.188 114.938 350.755 119.739 355.619 121.974C360.483 124.209 365.801 123.031 367.497 119.344Z" fill="#EABD6C"/>
<path d="M356.458 130.202C357.407 128.14 356.675 125.779 354.824 124.928C352.973 124.078 350.704 125.06 349.755 127.122C348.807 129.184 349.539 131.545 351.389 132.395C353.24 133.246 355.51 132.264 356.458 130.202Z" fill="#EABD6C"/>
<path d="M347.042 124.109C348.752 122.616 349.051 120.163 347.711 118.63C346.37 117.097 343.898 117.064 342.188 118.558C340.478 120.051 340.178 122.505 341.519 124.038C342.859 125.571 345.332 125.603 347.042 124.109Z" fill="#EABD6C"/>
<path d="M364.776 133.673C366.81 133.561 368.358 131.634 368.233 129.368C368.109 127.102 366.359 125.355 364.325 125.467C362.291 125.579 360.743 127.507 360.868 129.773C360.992 132.039 362.742 133.785 364.776 133.673Z" fill="#EABD6C"/>
<path d="M365.866 288.11C368.799 285.303 368.175 279.895 364.472 276.031C360.77 272.167 355.391 271.31 352.458 274.117C349.525 276.924 350.149 282.332 353.851 286.196C357.554 290.06 362.933 290.917 365.866 288.11Z" fill="#EABD6C"/>
<path d="M371.819 273.391C373.459 271.822 373.646 269.357 372.237 267.887C370.828 266.416 368.357 266.497 366.717 268.066C365.077 269.636 364.889 272.1 366.298 273.571C367.707 275.041 370.179 274.961 371.819 273.391Z" fill="#EABD6C"/>
<path d="M375.708 284.141C377.847 283.38 379.027 281.208 378.344 279.29C377.661 277.372 375.373 276.435 373.234 277.196C371.094 277.957 369.914 280.129 370.598 282.047C371.281 283.965 373.569 284.903 375.708 284.141Z" fill="#EABD6C"/>
<path d="M362.459 266.868C363.176 264.714 362.19 262.448 360.257 261.805C358.324 261.162 356.176 262.387 355.459 264.54C354.742 266.694 355.728 268.96 357.661 269.603C359.594 270.246 361.742 269.021 362.459 266.868Z" fill="#EABD6C"/>
<path d="M30.5348 265.455C33.4677 262.648 32.8438 257.24 29.1413 253.376C25.4389 249.512 20.0598 248.655 17.1269 251.462C14.194 254.269 14.8178 259.677 18.5203 263.541C22.2228 267.406 27.6018 268.263 30.5348 265.455Z" fill="#EABD6C"/>
<path d="M36.4887 250.743C38.1287 249.173 38.316 246.709 36.9071 245.238C35.4981 243.768 33.0265 243.848 31.3865 245.418C29.7465 246.987 29.5592 249.452 30.9681 250.922C32.3771 252.393 34.8487 252.312 36.4887 250.743Z" fill="#EABD6C"/>
<path d="M40.3743 261.487C42.5134 260.726 43.6935 258.554 43.0102 256.636C42.3268 254.718 40.0387 253.78 37.8996 254.542C35.7605 255.303 34.5803 257.475 35.2637 259.393C35.947 261.311 38.2351 262.248 40.3743 261.487Z" fill="#EABD6C"/>
<path d="M27.1151 244.213C27.8318 242.06 26.8459 239.793 24.9129 239.151C22.9799 238.508 20.8319 239.733 20.1152 241.886C19.3984 244.039 20.3844 246.306 22.3173 246.949C24.2503 247.591 26.3983 246.367 27.1151 244.213Z" fill="#EABD6C"/>
<path d="M173.513 573.307C176.446 570.5 175.822 565.092 172.12 561.228C168.417 557.364 163.038 556.507 160.105 559.314C157.173 562.121 157.796 567.529 161.499 571.393C165.201 575.257 170.58 576.114 173.513 573.307Z" fill="#EABD6C"/>
<path d="M179.47 558.59C181.11 557.021 181.297 554.556 179.889 553.086C178.48 551.615 176.008 551.696 174.368 553.265C172.728 554.835 172.541 557.299 173.95 558.77C175.359 560.24 177.83 560.16 179.47 558.59Z" fill="#EABD6C"/>
<path d="M183.35 569.337C185.489 568.576 186.669 566.404 185.986 564.486C185.302 562.568 183.014 561.63 180.875 562.391C178.736 563.152 177.556 565.324 178.239 567.242C178.923 569.16 181.211 570.098 183.35 569.337Z" fill="#EABD6C"/>
<path d="M170.1 552.071C170.817 549.917 169.831 547.651 167.898 547.008C165.965 546.365 163.817 547.59 163.101 549.744C162.384 551.897 163.37 554.164 165.303 554.806C167.236 555.449 169.384 554.224 170.1 552.071Z" fill="#EABD6C"/>
<path d="M137.607 706.532C140.54 703.725 139.916 698.317 136.214 694.452C132.511 690.588 127.132 689.731 124.199 692.539C121.266 695.346 121.89 700.754 125.593 704.618C129.295 708.482 134.674 709.339 137.607 706.532Z" fill="#EABD6C"/>
<path d="M143.56 691.819C145.2 690.249 145.387 687.785 143.978 686.314C142.569 684.844 140.098 684.924 138.458 686.494C136.818 688.064 136.63 690.528 138.039 691.998C139.448 693.469 141.92 693.389 143.56 691.819Z" fill="#EABD6C"/>
<path d="M147.442 702.565C149.581 701.804 150.761 699.632 150.078 697.714C149.394 695.796 147.106 694.858 144.967 695.62C142.828 696.381 141.648 698.553 142.331 700.471C143.014 702.389 145.303 703.327 147.442 702.565Z" fill="#EABD6C"/>
<path d="M134.19 685.303C134.907 683.15 133.921 680.883 131.988 680.241C130.055 679.598 127.907 680.823 127.19 682.976C126.474 685.129 127.46 687.396 129.393 688.039C131.326 688.681 133.474 687.457 134.19 685.303Z" fill="#EABD6C"/>
<path d="M42.2242 44.4574C45.1571 41.6504 44.5333 36.2424 40.8308 32.3783C37.1283 28.5142 31.7493 27.6572 28.8164 30.4643C25.8835 33.2713 26.5073 38.6794 30.2098 42.5435C33.9123 46.4076 39.2913 47.2645 42.2242 44.4574Z" fill="#EABD6C"/>
<path d="M48.1772 29.7388C49.8172 28.1692 50.0045 25.7048 48.5956 24.2343C47.1866 22.7638 44.7149 22.8442 43.0749 24.4138C41.4349 25.9834 41.2477 28.4479 42.6566 29.9184C44.0656 31.3888 46.5372 31.3084 48.1772 29.7388Z" fill="#EABD6C"/>
<path d="M52.0637 40.4872C54.2028 39.7259 55.383 37.5539 54.6996 35.6359C54.0163 33.7179 51.7282 32.7802 49.5891 33.5415C47.4499 34.3028 46.2698 36.4748 46.9531 38.3928C47.6365 40.3108 49.9246 41.2485 52.0637 40.4872Z" fill="#EABD6C"/>
<path d="M38.8094 23.2036C39.5262 21.0502 38.5402 18.7836 36.6072 18.1409C34.6743 17.4983 32.5262 18.7229 31.8095 20.8763C31.0928 23.0297 32.0787 25.2964 34.0117 25.939C35.9447 26.5817 38.0927 25.357 38.8094 23.2036Z" fill="#EABD6C"/>
<path d="M234.652 135.325C232.641 135.813 231.06 137.521 230.845 139.697C230.571 142.452 232.585 144.905 235.341 145.178C238.08 145.449 240.521 143.463 240.819 140.733L256.079 142.244C255.833 144.977 257.837 147.406 260.579 147.676C263.335 147.95 265.789 145.937 266.063 143.183C266.223 141.554 265.585 140.037 264.468 139.008C264.15 138.668 263.782 138.377 263.376 138.138C263.505 138.093 263.626 138.034 263.751 137.979C265.488 137.331 266.801 135.747 266.996 133.779C267.269 131.025 265.255 128.572 262.499 128.298C259.761 128.028 257.32 130.013 257.022 132.744L241.762 131.233C242.008 128.499 240.004 126.071 237.262 125.8C234.506 125.527 232.052 127.54 231.778 130.294C231.563 132.47 232.776 134.452 234.652 135.328V135.325Z" fill="white"/>
<path d="M129.944 474.682C128.824 476.421 128.859 478.746 130.204 480.472C131.906 482.654 135.057 483.042 137.241 481.341C139.411 479.65 139.807 476.529 138.139 474.346L150.231 464.919C151.94 467.067 155.067 467.444 157.237 465.754C159.421 464.052 159.809 460.903 158.107 458.72C157.102 457.431 155.59 456.773 154.072 456.797C153.607 456.773 153.136 456.815 152.678 456.922C152.741 456.801 152.786 456.673 152.841 456.548C153.652 454.881 153.51 452.83 152.294 451.271C150.591 449.088 147.44 448.7 145.256 450.401C143.086 452.092 142.691 455.214 144.358 457.397L132.267 466.824C130.558 464.676 127.431 464.298 125.26 465.989C123.076 467.69 122.688 470.84 124.39 473.022C125.735 474.748 127.982 475.347 129.944 474.686V474.682Z" fill="white"/>
<path d="M130.915 32.8106C130.805 30.7456 129.418 28.8781 127.321 28.2649C124.662 27.4888 121.878 29.0133 121.101 31.6672C120.328 34.3073 121.833 37.0721 124.461 37.869L120.155 52.5801C117.51 51.8352 114.754 53.3527 113.981 55.9963C113.204 58.6537 114.73 61.4359 117.385 62.212C118.955 62.6693 120.567 62.3228 121.784 61.4151C122.176 61.1622 122.533 60.8573 122.842 60.5004C122.862 60.6355 122.901 60.7672 122.932 60.8989C123.247 62.7247 124.561 64.3047 126.461 64.8625C129.12 65.6386 131.903 64.1141 132.68 61.4601C133.453 58.82 131.949 56.0552 129.321 55.2583L133.626 40.5472C136.271 41.2921 139.027 39.7746 139.801 37.131C140.577 34.4736 139.052 31.6915 136.396 30.9154C134.295 30.3021 132.122 31.1267 130.915 32.8071V32.8106Z" fill="white"/>
<path d="M245.547 623.611C244.833 621.667 242.958 620.292 240.77 620.327C238 620.365 235.789 622.641 235.827 625.409C235.865 628.16 238.118 630.36 240.864 630.346L241.082 645.671C238.337 645.737 236.149 647.999 236.187 650.75C236.225 653.518 238.503 655.729 241.273 655.691C242.909 655.666 244.344 654.859 245.242 653.636C245.544 653.279 245.793 652.881 245.984 652.451C246.043 652.576 246.116 652.69 246.185 652.805C247.024 654.457 248.747 655.58 250.726 655.552C253.496 655.514 255.708 653.238 255.67 650.469C255.632 647.718 253.378 645.518 250.633 645.532L250.414 630.208C253.16 630.142 255.347 627.88 255.309 625.129C255.271 622.36 252.994 620.15 250.224 620.188C248.036 620.219 246.202 621.647 245.544 623.611H245.547Z" fill="white"/>
<path d="M20.9458 358.191C20.8348 356.126 19.4482 354.259 17.3508 353.646C14.6919 352.87 11.9082 354.394 11.1316 357.048C10.3586 359.688 11.8631 362.453 14.4908 363.25L10.1852 377.961C7.54015 377.216 4.78415 378.734 4.01109 381.377C3.23455 384.035 4.75989 386.817 7.41535 387.593C8.98575 388.05 10.5978 387.704 11.8146 386.796C12.2063 386.543 12.5634 386.238 12.8719 385.881C12.8927 386.016 12.9308 386.148 12.962 386.28C13.2775 388.106 14.5914 389.685 16.4911 390.243C19.15 391.019 21.9338 389.495 22.7103 386.841C23.4834 384.201 21.9788 381.436 19.3511 380.639L23.6567 365.928C26.3018 366.673 29.0578 365.155 29.8308 362.512C30.6074 359.854 29.082 357.072 26.4266 356.296C24.3258 355.683 22.1522 356.508 20.9458 358.188V358.191Z" fill="white"/>
<path d="M53.626 650.396C55.6159 650.972 57.8346 650.272 59.1034 648.491C60.7084 646.235 60.1815 643.107 57.9247 641.503C55.6817 639.909 52.5756 640.422 50.9601 642.642L38.4663 633.756C40.0367 631.504 39.5063 628.403 37.2633 626.805C35.0065 625.201 31.8761 625.728 30.2711 627.983C29.3212 629.314 29.1236 630.949 29.5812 632.397C29.6921 632.851 29.8655 633.288 30.0977 633.697C29.9625 633.672 29.8273 633.662 29.6921 633.648C27.8617 633.347 25.9377 634.071 24.7903 635.682C23.1852 637.937 23.7121 641.066 25.9689 642.67C28.2119 644.264 31.318 643.751 32.9335 641.53L45.4273 650.417C43.8569 652.669 44.3873 655.77 46.6303 657.367C48.8871 658.972 52.0175 658.445 53.6225 656.189C54.8913 654.409 54.822 652.084 53.6295 650.393L53.626 650.396Z" fill="white"/>
<path d="M301.829 326.008C302.792 324.176 302.553 321.865 301.063 320.264C299.173 318.237 296.001 318.126 293.977 320.015C291.963 321.889 291.841 325.035 293.696 327.062L282.474 337.508C280.581 335.516 277.437 335.415 275.423 337.289C273.395 339.178 273.284 342.348 275.173 344.371C276.29 345.567 277.85 346.09 279.361 345.934C279.826 345.917 280.29 345.837 280.737 345.688C280.685 345.816 280.651 345.944 280.609 346.076C279.947 347.808 280.269 349.839 281.618 351.283C283.507 353.31 286.679 353.421 288.704 351.533C290.718 349.658 290.839 346.513 288.985 344.486L300.206 334.04C302.099 336.032 305.243 336.132 307.257 334.258C309.285 332.37 309.396 329.199 307.507 327.176C306.016 325.575 303.725 325.177 301.829 326.005V326.008Z" fill="white"/>
<path d="M353.031 47.7509C354.817 48.7972 357.139 48.669 358.807 47.2589C360.922 45.4711 361.182 42.3079 359.393 40.1944C357.614 38.0948 354.477 37.8246 352.362 39.5777L342.451 27.8809C344.531 26.0862 344.781 22.9506 343.002 20.851C341.214 18.7375 338.049 18.4777 335.934 20.2655C334.686 21.3222 334.09 22.8571 334.173 24.3746C334.166 24.8389 334.228 25.3066 334.353 25.7605C334.228 25.7016 334.1 25.66 333.972 25.615C332.273 24.8701 330.228 25.0953 328.716 26.3737C326.602 28.1615 326.342 31.3248 328.13 33.4382C329.909 35.5379 333.046 35.8081 335.161 34.055L345.072 45.7518C342.992 47.5465 342.742 50.682 344.521 52.7816C346.31 54.8951 349.475 55.155 351.589 53.3672C353.26 51.9536 353.766 49.6877 353.028 47.7544L353.031 47.7509Z" fill="white"/>
<path d="M283.157 514.806C281.178 515.405 279.694 517.2 279.6 519.383C279.482 522.147 281.628 524.486 284.395 524.604C287.144 524.722 289.47 522.601 289.616 519.861L304.938 520.519C304.845 523.263 306.98 525.574 309.733 525.692C312.499 525.81 314.839 523.665 314.957 520.9C315.026 519.268 314.302 517.785 313.133 516.822C312.794 516.503 312.412 516.23 311.993 516.015C312.121 515.963 312.239 515.897 312.36 515.835C314.059 515.093 315.279 513.437 315.366 511.462C315.484 508.697 313.338 506.359 310.572 506.241C307.822 506.123 305.496 508.244 305.351 510.984L290.028 510.326C290.122 507.582 287.986 505.271 285.234 505.153C282.467 505.035 280.127 507.18 280.009 509.945C279.916 512.127 281.237 514.04 283.161 514.809L283.157 514.806Z" fill="white"/>
<path d="M171 810.462C173.01 810.951 175.198 810.157 176.39 808.325C177.898 806.003 177.236 802.899 174.914 801.392C172.605 799.895 169.523 800.539 168.005 802.83L155.14 794.487C156.613 792.169 155.947 789.096 153.639 787.595C151.316 786.088 148.21 786.75 146.702 789.071C145.811 790.443 145.683 792.086 146.203 793.513C146.331 793.96 146.522 794.39 146.775 794.788C146.639 794.767 146.504 794.767 146.366 794.757C144.525 794.535 142.632 795.339 141.554 796.999C140.046 799.32 140.708 802.424 143.031 803.931C145.339 805.428 148.421 804.784 149.94 802.494L162.805 810.837C161.331 813.154 161.997 816.228 164.306 817.728C166.614 819.228 169.734 818.573 171.242 816.252C172.435 814.419 172.265 812.098 171 810.462Z" fill="white"/>
<path d="M41.7144 135.508C42.6782 133.676 42.439 131.365 40.9483 129.764C39.059 127.737 35.887 127.626 33.8624 129.515C31.8483 131.389 31.727 134.535 33.5816 136.562L22.36 147.008C20.4672 145.016 17.323 144.915 15.3088 146.789C13.2808 148.678 13.1699 151.848 15.0592 153.871C16.1755 155.067 17.7355 155.59 19.247 155.434C19.7115 155.417 20.176 155.337 20.6232 155.188C20.5712 155.316 20.5366 155.444 20.495 155.576C19.8328 157.308 20.1552 159.339 21.5038 160.783C23.3931 162.81 26.5651 162.921 28.5896 161.033C30.6038 159.158 30.7251 156.013 28.8704 153.986L40.092 143.54C41.9848 145.532 45.1291 145.632 47.1432 143.758C49.1712 141.87 49.2822 138.699 47.3928 136.676C45.9022 135.075 43.6107 134.677 41.7144 135.505V135.508Z" fill="white"/>
<path d="M157.92 288.429C159.688 289.506 162.011 289.416 163.706 288.031C165.848 286.277 166.164 283.121 164.41 280.976C162.666 278.849 159.532 278.527 157.393 280.245L147.676 268.386C149.784 266.626 150.089 263.494 148.342 261.366C146.588 259.225 143.426 258.91 141.284 260.663C140.018 261.699 139.398 263.223 139.457 264.741C139.443 265.205 139.495 265.673 139.613 266.13C139.491 266.071 139.36 266.026 139.235 265.978C137.55 265.205 135.501 265.399 133.969 266.65C131.826 268.403 131.511 271.563 133.265 273.704C135.009 275.831 138.143 276.154 140.282 274.435L149.999 286.295C147.891 288.055 147.586 291.187 149.333 293.314C151.087 295.455 154.245 295.771 156.391 294.018C158.083 292.632 158.631 290.373 157.924 288.429H157.92Z" fill="white"/>
<path d="M331.521 722.255C329.559 722.913 328.13 724.746 328.099 726.932C328.061 729.701 330.273 731.973 333.043 732.012C335.795 732.05 338.059 729.863 338.125 727.119L353.458 727.334C353.444 730.078 355.649 732.33 358.401 732.368C361.171 732.407 363.445 730.196 363.483 727.428C363.508 725.792 362.738 724.334 361.542 723.402C361.195 723.093 360.804 722.83 360.377 722.629C360.502 722.574 360.62 722.504 360.738 722.439C362.416 721.645 363.587 719.958 363.615 717.98C363.653 715.211 361.442 712.938 358.672 712.9C355.919 712.862 353.655 715.048 353.59 717.792L338.256 717.578C338.27 714.834 336.066 712.582 333.313 712.543C330.543 712.505 328.269 714.716 328.231 717.484C328.2 719.67 329.576 721.545 331.521 722.255Z" fill="white"/>
</g>
<defs>
<clipPath id="clip0_3759_3401">
<rect width="390" height="844" fill="white"/>
</clipPath>
</defs>
</svg>
