<svg width="24" height="24" viewBox="0 0 24 24" fill="none" xmlns="http://www.w3.org/2000/svg">
<path d="M17.8725 11.6849C17.8387 8.8952 20.2731 7.57208 20.3914 7.49237C19.9051 6.8435 19.2656 6.30995 18.5234 5.93374C17.7812 5.55753 16.9565 5.34893 16.1143 5.32437C14.3054 5.14901 12.5641 6.32866 11.6512 6.32866C10.7383 6.32866 9.31826 5.34031 7.81367 5.37219C6.82337 5.39722 5.85699 5.6646 5.00935 6.14809C4.16171 6.63158 3.46193 7.31456 2.97868 8.13002C0.916204 11.4936 2.45461 16.4832 4.44946 19.2251C5.42999 20.5482 6.61337 22.0467 8.13487 21.9989C9.62256 21.9511 10.1635 21.0902 11.9555 21.0902C13.7475 21.0902 14.2547 21.9989 15.81 21.967C17.3991 21.9511 18.4135 20.612 19.3771 19.257C20.5097 17.7266 20.9662 16.2282 21 16.1485C20.9662 16.1166 17.9063 15.0326 17.8725 11.6849ZM14.9309 3.50707C15.7424 2.58248 16.2833 1.2753 16.1481 0C14.9647 0.0478237 13.5447 0.733296 12.6994 1.65789C12.2619 2.11961 11.9272 2.6595 11.7152 3.24551C11.5032 3.83153 11.4182 4.45173 11.4653 5.06931C12.7839 5.16496 14.1194 4.43166 14.9309 3.50707Z" fill="white"/>
</svg>
