<svg width="24" height="24" viewBox="0 0 24 24" fill="none" xmlns="http://www.w3.org/2000/svg">
<mask id="mask0_15_1119" style="mask-type:alpha" maskUnits="userSpaceOnUse" x="0" y="0" width="24" height="24">
<rect width="24" height="24" fill="#D9D9D9"/>
</mask>
<g mask="url(#mask0_15_1119)">
<path d="M11.25 8.75V5.75H8.25V4.25H11.25V1.25H12.75V4.25H15.75V5.75H12.75V8.75H11.25ZM7.15375 21.5578C6.66792 21.5578 6.25483 21.3875 5.9145 21.047C5.57417 20.7067 5.404 20.2936 5.404 19.8078C5.404 19.3218 5.57417 18.9086 5.9145 18.5683C6.25483 18.2279 6.66792 18.0578 7.15375 18.0578C7.63975 18.0578 8.05292 18.2279 8.39325 18.5683C8.73358 18.9086 8.90375 19.3218 8.90375 19.8078C8.90375 20.2936 8.73358 20.7067 8.39325 21.047C8.05292 21.3875 7.63975 21.5578 7.15375 21.5578ZM16.8462 21.5578C16.3602 21.5578 15.9471 21.3875 15.6068 21.047C15.2664 20.7067 15.0962 20.2936 15.0962 19.8078C15.0962 19.3218 15.2664 18.9086 15.6068 18.5683C15.9471 18.2279 16.3602 18.0578 16.8462 18.0578C17.3321 18.0578 17.7452 18.2279 18.0855 18.5683C18.4258 18.9086 18.596 19.3218 18.596 19.8078C18.596 20.2936 18.4258 20.7067 18.0855 21.047C17.7452 21.3875 17.3321 21.5578 16.8462 21.5578ZM1.5 3.75V2.25H4.3615L8.5345 11.0577H15.352C15.4097 11.0577 15.4609 11.0433 15.5057 11.0145C15.5506 10.9857 15.5891 10.9456 15.6212 10.8943L19.3193 4.25H21.0268L16.9345 11.6423C16.7705 11.9307 16.5534 12.1554 16.2833 12.3162C16.0131 12.4773 15.7174 12.5577 15.3962 12.5577H8.1L6.94225 14.673C6.89092 14.75 6.88933 14.8333 6.9375 14.923C6.9855 15.0128 7.05758 15.0577 7.15375 15.0577H18.596V16.5577H7.15375C6.48708 16.5577 5.98358 16.2727 5.64325 15.7028C5.30292 15.1329 5.29367 14.5563 5.6155 13.973L7.04225 11.4078L3.404 3.75H1.5Z" fill="#111111"/>
</g>
</svg>
