<svg width="24" height="24" viewBox="0 0 24 24" fill="none" xmlns="http://www.w3.org/2000/svg">
<mask id="mask0_15_1071" style="mask-type:alpha" maskUnits="userSpaceOnUse" x="0" y="0" width="24" height="24">
<rect width="24" height="24" fill="#D9D9D9"/>
</mask>
<g mask="url(#mask0_15_1071)">
<path d="M5.34668 20.1251V18.6251H18.6542V20.1251H5.34668ZM12.0004 16.5288C10.4453 16.5288 9.23151 16.0567 8.35918 15.1126C7.48668 14.1684 7.05043 12.9033 7.05043 11.3173V3.41357H8.90418V11.4096C8.90418 12.4199 9.17276 13.2296 9.70993 13.8386C10.2471 14.4476 11.0106 14.7521 12.0004 14.7521C12.9903 14.7521 13.7538 14.4476 14.2909 13.8386C14.8281 13.2296 15.0967 12.4199 15.0967 11.4096V3.41357H16.9504V11.3173C16.9504 12.9033 16.5142 14.1684 15.6417 15.1126C14.7693 16.0567 13.5556 16.5288 12.0004 16.5288Z" fill="#111111"/>
</g>
</svg>
