<svg width="24" height="24" viewBox="0 0 24 24" fill="none" xmlns="http://www.w3.org/2000/svg">
<mask id="mask0_15_1091" style="mask-type:alpha" maskUnits="userSpaceOnUse" x="0" y="0" width="24" height="24">
<rect width="24" height="24" fill="#D9D9D9"/>
</mask>
<g mask="url(#mask0_15_1091)">
<path d="M12.0017 21.5C10.6877 21.5 9.45267 21.2507 8.2965 20.752C7.14033 20.2533 6.13467 19.5766 5.2795 18.7218C4.42433 17.8669 3.74725 16.8617 3.24825 15.706C2.74942 14.5503 2.5 13.3156 2.5 12.0017C2.5 10.6877 2.74933 9.45267 3.248 8.2965C3.74667 7.14033 4.42342 6.13467 5.27825 5.2795C6.13308 4.42433 7.13833 3.74725 8.294 3.24825C9.44967 2.74942 10.6844 2.5 11.9983 2.5C13.3123 2.5 14.5473 2.74933 15.7035 3.248C16.8597 3.74667 17.8653 4.42342 18.7205 5.27825C19.5757 6.13308 20.2528 7.13833 20.7518 8.294C21.2506 9.44967 21.5 10.6844 21.5 11.9983C21.5 13.3123 21.2507 14.5473 20.752 15.7035C20.2533 16.8597 19.5766 17.8653 18.7218 18.7205C17.8669 19.5757 16.8617 20.2528 15.706 20.7518C14.5503 21.2506 13.3156 21.5 12.0017 21.5ZM12 16.8268C12.6602 16.1666 13.2458 15.4867 13.7568 14.787C14.1946 14.1892 14.5962 13.53 14.9615 12.8095C15.3268 12.089 15.5095 11.3788 15.5095 10.6788C15.5095 9.71608 15.1658 8.89117 14.4785 8.204C13.7912 7.51683 12.9649 7.17325 11.9998 7.17325C11.0346 7.17325 10.2084 7.51683 9.52125 8.204C8.83408 8.89133 8.4905 9.71758 8.4905 10.6827C8.4905 11.3801 8.67375 12.0885 9.04025 12.808C9.40692 13.5275 9.81017 14.1882 10.25 14.7902C10.7565 15.4878 11.3398 16.1666 12 16.8268ZM12.0005 12C11.6348 12 11.3238 11.872 11.0673 11.616C10.8109 11.36 10.6827 11.0491 10.6827 10.6833C10.6827 10.3176 10.8108 10.0065 11.0668 9.75C11.3228 9.49367 11.6337 9.3655 11.9995 9.3655C12.3652 9.3655 12.6762 9.4935 12.9327 9.7495C13.1891 10.0055 13.3173 10.3164 13.3173 10.6823C13.3173 11.0479 13.1892 11.359 12.9333 11.6155C12.6773 11.8718 12.3663 12 12.0005 12Z" fill="#111111"/>
</g>
</svg>
