<svg width="24" height="24" viewBox="0 0 24 24" fill="none" xmlns="http://www.w3.org/2000/svg">
<mask id="mask0_4793_14386" style="mask-type:alpha" maskUnits="userSpaceOnUse" x="0" y="0" width="24" height="24">
<rect width="24" height="24" fill="#D9D9D9"/>
</mask>
<g mask="url(#mask0_4793_14386)">
<path d="M10.5 19V17H4.30775C3.80258 17 3.375 16.825 3.025 16.475C2.675 16.125 2.5 15.6974 2.5 15.1923V5.30775C2.5 4.80258 2.675 4.375 3.025 4.025C3.375 3.675 3.80258 3.5 4.30775 3.5H19.6923C20.1974 3.5 20.625 3.675 20.975 4.025C21.325 4.375 21.5 4.80258 21.5 5.30775V15.1923C21.5 15.6974 21.325 16.125 20.975 16.475C20.625 16.825 20.1974 17 19.6923 17H13.5V19H14.75C14.9628 19 15.141 19.0718 15.2845 19.2155C15.4282 19.359 15.5 19.5372 15.5 19.75C15.5 19.9628 15.4282 20.141 15.2845 20.2845C15.141 20.4282 14.9628 20.5 14.75 20.5H9.25C9.03717 20.5 8.859 20.4282 8.7155 20.2845C8.57183 20.141 8.5 19.9628 8.5 19.75C8.5 19.5372 8.57183 19.359 8.7155 19.2155C8.859 19.0718 9.03717 19 9.25 19H10.5ZM4.30775 15.5H19.6923C19.7693 15.5 19.8398 15.468 19.9038 15.404C19.9679 15.3398 20 15.2692 20 15.1923V5.30775C20 5.23075 19.9679 5.16025 19.9038 5.09625C19.8398 5.03208 19.7693 5 19.6923 5H4.30775C4.23075 5 4.16025 5.03208 4.09625 5.09625C4.03208 5.16025 4 5.23075 4 5.30775V15.1923C4 15.2692 4.03208 15.3398 4.09625 15.404C4.16025 15.468 4.23075 15.5 4.30775 15.5Z" fill="#1C1B1F"/>
</g>
</svg>
