<svg width="24" height="24" viewBox="0 0 24 24" fill="none" xmlns="http://www.w3.org/2000/svg">
<mask id="mask0_849_4856" style="mask-type:alpha" maskUnits="userSpaceOnUse" x="0" y="0" width="24" height="24">
<rect width="24" height="24" fill="#D9D9D9"/>
</mask>
<g mask="url(#mask0_849_4856)">
<circle cx="12" cy="10.5" r="2" fill="#111111"/>
<path d="M12.0231 18.125C13.552 16.8698 14.6996 15.6266 15.4659 14.3953C16.2322 13.1638 16.6154 11.941 16.6154 10.727C16.6154 9.0015 16.1168 7.699 15.1198 6.8195C14.1227 5.93983 13.0842 5.5 12.0044 5.5C10.9245 5.5 9.88462 5.94008 8.88462 6.82025C7.88462 7.70025 7.38462 9.00342 7.38462 10.7298C7.38462 11.8638 7.763 13.0398 8.51977 14.2578C9.27654 15.4758 10.4443 16.7648 12.0231 18.125ZM12 20C9.98569 18.3685 8.48215 16.784 7.48938 15.2465C6.49646 13.7092 6 12.2032 6 10.7285C6 9.61467 6.18138 8.63917 6.54415 7.802C6.90692 6.96483 7.37523 6.26383 7.94908 5.699C8.52308 5.13433 9.16708 4.71 9.88108 4.426C10.5949 4.142 11.3017 4 12.0014 4C12.7011 4 13.4074 4.142 14.1203 4.426C14.8334 4.71 15.4769 5.13433 16.0509 5.699C16.6248 6.26383 17.0931 6.96508 17.4558 7.80275C17.8186 8.64042 18 9.61517 18 10.727C18 12.2018 17.5035 13.7081 16.5106 15.2457C15.5178 16.7834 14.0143 18.3682 12 20Z" fill="#111111"/>
</g>
</svg>
