<svg width="24" height="24" viewBox="0 0 24 24" fill="none" xmlns="http://www.w3.org/2000/svg">
<mask id="mask0_33_2169" style="mask-type:alpha" maskUnits="userSpaceOnUse" x="0" y="0" width="24" height="24">
<rect width="24" height="24" fill="#D9D9D9"/>
</mask>
<g mask="url(#mask0_33_2169)">
<path d="M2.5 21.0385V4.30775C2.5 3.80258 2.675 3.375 3.025 3.025C3.375 2.675 3.80258 2.5 4.30775 2.5H19.6923C20.1974 2.5 20.625 2.675 20.975 3.025C21.325 3.375 21.5 3.80258 21.5 4.30775V15.6923C21.5 16.1974 21.325 16.625 20.975 16.975C20.625 17.325 20.1974 17.5 19.6923 17.5H6.0385L2.5 21.0385ZM5.4 16H19.6923C19.7693 16 19.8398 15.9679 19.9038 15.9038C19.9679 15.8398 20 15.7692 20 15.6923V4.30775C20 4.23075 19.9679 4.16025 19.9038 4.09625C19.8398 4.03208 19.7693 4 19.6923 4H4.30775C4.23075 4 4.16025 4.03208 4.09625 4.09625C4.03208 4.16025 4 4.23075 4 4.30775V17.3848L5.4 16Z" fill="#111111"/>
<path d="M10.2742 13.5C10.053 13.5 9.8686 13.4086 9.72113 13.2258C9.57371 13.0431 9.5 12.8272 9.5 12.5783C9.5 12.2857 9.59387 12.0326 9.78161 11.8187C9.96941 11.6049 10.1543 11.3912 10.3362 11.1776C10.4921 10.9957 10.6271 10.7994 10.741 10.589C10.855 10.3785 10.9888 10.1805 11.1427 9.99496C11.2548 9.85542 11.3832 9.73803 11.5281 9.64278C11.6729 9.54759 11.8302 9.5 12 9.5C12.1721 9.5 12.3315 9.54528 12.4783 9.63583C12.6251 9.72632 12.7535 9.84246 12.8635 9.98426C13.0141 10.1698 13.1466 10.3687 13.2611 10.581C13.3757 10.7932 13.5099 10.9921 13.6638 11.1776C13.8457 11.3912 14.0306 11.6049 14.2184 11.8187C14.4061 12.0326 14.5 12.2857 14.5 12.5783C14.5 12.8272 14.4263 13.0431 14.2789 13.2258C14.1314 13.4086 13.947 13.5 13.7258 13.5C13.4355 13.5 13.1479 13.4739 12.8629 13.4217C12.578 13.3696 12.2903 13.3435 12 13.3435C11.7097 13.3435 11.422 13.3696 11.1371 13.4217C10.8521 13.4739 10.5645 13.5 10.2742 13.5Z" fill="#111111"/>
<path d="M12.5755 8.16389C12.754 8.35193 12.9725 8.44595 13.2309 8.44595C13.4893 8.44595 13.7077 8.35182 13.8862 8.16357C14.0646 7.97539 14.1538 7.74512 14.1538 7.47276C14.1538 7.2004 14.0645 6.97016 13.8859 6.78205C13.7073 6.59402 13.4889 6.5 13.2305 6.5C12.9721 6.5 12.7537 6.59413 12.5752 6.78238C12.3968 6.97056 12.3076 7.20083 12.3076 7.47319C12.3076 7.74555 12.3969 7.97578 12.5755 8.16389Z" fill="#111111"/>
<path d="M14.4217 9.89363C14.6002 10.0817 14.8187 10.1757 15.0771 10.1757C15.3355 10.1757 15.5539 10.0816 15.7324 9.8933C15.9108 9.70512 16 9.47485 16 9.20249C16 8.93013 15.9107 8.6999 15.7321 8.51179C15.5535 8.32375 15.3351 8.22974 15.0767 8.22974C14.8183 8.22974 14.5999 8.32386 14.4214 8.51211C14.243 8.70029 14.1538 8.93057 14.1538 9.20293C14.1538 9.47529 14.2431 9.70552 14.4217 9.89363Z" fill="#111111"/>
<path d="M10.1141 8.16389C10.2926 8.35193 10.5111 8.44595 10.7695 8.44595C11.0279 8.44595 11.2463 8.35182 11.4248 8.16357C11.6031 7.97539 11.6923 7.74512 11.6923 7.47276C11.6923 7.2004 11.603 6.97016 11.4244 6.78205C11.2459 6.59402 11.0275 6.5 10.7691 6.5C10.5107 6.5 10.2922 6.59413 10.1138 6.78238C9.93539 6.97056 9.84619 7.20083 9.84619 7.47319C9.84619 7.74555 9.93549 7.97578 10.1141 8.16389Z" fill="#111111"/>
<path d="M8.2679 9.89363C8.44643 10.0817 8.66489 10.1757 8.92328 10.1757C9.18168 10.1757 9.4001 10.0816 9.57856 9.8933C9.75696 9.70512 9.84615 9.47485 9.84615 9.20249C9.84615 8.93013 9.75686 8.6999 9.57826 8.51179C9.39973 8.32375 9.18127 8.22974 8.92287 8.22974C8.66448 8.22974 8.44605 8.32386 8.26759 8.51211C8.0892 8.70029 8 8.93057 8 9.20293C8 9.47529 8.0893 9.70552 8.2679 9.89363Z" fill="#111111"/>
</g>
</svg>
