<svg width="24" height="24" viewBox="0 0 24 24" fill="none" xmlns="http://www.w3.org/2000/svg">
<mask id="mask0_15_1103" style="mask-type:alpha" maskUnits="userSpaceOnUse" x="0" y="0" width="24" height="24">
<rect width="24" height="24" fill="#D9D9D9"/>
</mask>
<g mask="url(#mask0_15_1103)">
<path d="M5.30775 20.5C4.80258 20.5 4.375 20.325 4.025 19.975C3.675 19.625 3.5 19.1974 3.5 18.6923V5.30775C3.5 4.80258 3.675 4.375 4.025 4.025C4.375 3.675 4.80258 3.5 5.30775 3.5H18.6923C19.1974 3.5 19.625 3.675 19.975 4.025C20.325 4.375 20.5 4.80258 20.5 5.30775V18.6923C20.5 19.1974 20.325 19.625 19.975 19.975C19.625 20.325 19.1974 20.5 18.6923 20.5H5.30775ZM5.30775 19H18.6923C18.7821 19 18.8558 18.9712 18.9135 18.9135C18.9712 18.8558 19 18.7821 19 18.6923V5.30775C19 5.21792 18.9712 5.14417 18.9135 5.0865C18.8558 5.02883 18.7821 5 18.6923 5H5.30775C5.21792 5 5.14417 5.02883 5.0865 5.0865C5.02883 5.14417 5 5.21792 5 5.30775V18.6923C5 18.7821 5.02883 18.8558 5.0865 18.9135C5.14417 18.9712 5.21792 19 5.30775 19ZM12 17.375C13.45 16.1493 14.5292 15.0099 15.2375 13.9567C15.9458 12.9036 16.3 11.9282 16.3 11.0307C16.3 9.67442 15.8679 8.601 15.0038 7.8105C14.1398 7.02017 13.1385 6.625 12 6.625C10.8615 6.625 9.86025 7.02017 8.99625 7.8105C8.13208 8.601 7.7 9.67442 7.7 11.0307C7.7 11.9282 8.05575 12.9036 8.76725 13.9567C9.47892 15.0099 10.5565 16.1493 12 17.375ZM12 12.2308C11.6757 12.2308 11.4022 12.1195 11.1797 11.897C10.9574 11.6747 10.8463 11.4013 10.8463 11.077C10.8463 10.7527 10.9574 10.4793 11.1797 10.2568C11.4022 10.0343 11.6757 9.923 12 9.923C12.3243 9.923 12.5978 10.0343 12.8203 10.2568C13.0426 10.4793 13.1538 10.7527 13.1538 11.077C13.1538 11.4013 13.0426 11.6747 12.8203 11.897C12.5978 12.1195 12.3243 12.2308 12 12.2308Z" fill="#111111"/>
</g>
</svg>
