<svg width="24" height="24" viewBox="0 0 24 24" fill="none" xmlns="http://www.w3.org/2000/svg">
<mask id="mask0_90_1503" style="mask-type:alpha" maskUnits="userSpaceOnUse" x="0" y="0" width="24" height="24">
<rect width="24" height="24" fill="#D9D9D9"/>
</mask>
<g mask="url(#mask0_90_1503)">
<path d="M11.7883 19.9712C11.887 19.9712 11.9873 19.9481 12.0893 19.902C12.1911 19.8558 12.2715 19.8032 12.3305 19.7442L20.3286 11.7462C20.5542 11.5206 20.7241 11.2795 20.8383 11.023C20.9523 10.7666 21.0093 10.4975 21.0093 10.2155C21.0093 9.92315 20.9523 9.64173 20.8383 9.37123C20.7241 9.10056 20.5542 8.85756 20.3286 8.64223L16.3285 4.64223C16.1132 4.41656 15.8799 4.25148 15.6285 4.14698C15.3774 4.04265 15.1056 3.99048 14.8133 3.99048C14.5313 3.99048 14.2605 4.04265 14.0008 4.14698C13.7411 4.25148 13.5017 4.41656 13.2825 4.64223L12.7093 5.21548L14.5593 7.08073C14.7836 7.29489 14.9494 7.53914 15.0565 7.81348C15.1635 8.08781 15.217 8.3724 15.217 8.66723C15.217 9.27756 15.0132 9.78656 14.6055 10.1942C14.1979 10.6019 13.6889 10.8057 13.0785 10.8057C12.7837 10.8057 12.4981 10.757 12.2218 10.6595C11.9456 10.5621 11.7005 10.4064 11.4863 10.1922L9.59205 8.31348L5.24605 12.6595C5.17038 12.7351 5.11363 12.8198 5.0758 12.9135C5.03796 13.007 5.01905 13.1031 5.01905 13.202C5.01905 13.3865 5.08188 13.5441 5.20755 13.675C5.33321 13.8058 5.4883 13.8712 5.6728 13.8712C5.77163 13.8712 5.87196 13.8481 5.9738 13.802C6.0758 13.7558 6.1563 13.7032 6.2153 13.6442L9.4998 10.3597L10.5535 11.4135L7.2843 14.698C7.2088 14.7736 7.15213 14.8583 7.1143 14.952C7.07646 15.0455 7.05755 15.1416 7.05755 15.2405C7.05755 15.4186 7.12197 15.5721 7.2508 15.701C7.37963 15.8298 7.53313 15.8942 7.7113 15.8942C7.81013 15.8942 7.91046 15.8711 8.0123 15.825C8.1143 15.7788 8.19471 15.7262 8.25355 15.6672L11.6535 12.2827L12.7075 13.3365L9.3228 16.7365C9.25363 16.7955 9.19855 16.8759 9.15755 16.9777C9.11655 17.0797 9.09605 17.1801 9.09605 17.2787C9.09605 17.4571 9.16046 17.6106 9.2893 17.7395C9.41813 17.8683 9.57163 17.9327 9.7498 17.9327C9.84846 17.9327 9.94463 17.9138 10.0383 17.876C10.1318 17.8381 10.2164 17.7814 10.292 17.7057L13.692 14.3212L14.746 15.375L11.346 18.775C11.2704 18.8506 11.2136 18.9385 11.1758 19.0385C11.138 19.1385 11.119 19.2346 11.119 19.327C11.119 19.5115 11.1876 19.665 11.3248 19.7875C11.462 19.91 11.6165 19.9712 11.7883 19.9712ZM11.7728 21.471C11.2075 21.471 10.7145 21.2749 10.294 20.8827C9.87355 20.4904 9.65372 20.0019 9.63455 19.4172C9.06788 19.3787 8.59446 19.1775 8.2143 18.8135C7.83413 18.4493 7.62805 17.9711 7.59605 17.3787C7.00372 17.3404 6.52488 17.1334 6.15955 16.7577C5.79405 16.3821 5.59846 15.9096 5.5728 15.3402C4.97796 15.3019 4.48696 15.0862 4.0998 14.6932C3.71263 14.3002 3.51905 13.8031 3.51905 13.202C3.51905 12.9071 3.57513 12.6183 3.6873 12.3355C3.79946 12.0528 3.96263 11.8045 4.1768 11.5905L9.59205 6.19048L12.521 9.11923C12.5799 9.1884 12.657 9.24356 12.7525 9.28473C12.8482 9.32573 12.9518 9.34623 13.0633 9.34623C13.2453 9.34623 13.4023 9.28598 13.5343 9.16548C13.6665 9.04498 13.7325 8.88723 13.7325 8.69223C13.7325 8.58073 13.712 8.47723 13.671 8.38173C13.6299 8.28623 13.5747 8.20898 13.5055 8.14998L9.9978 4.64223C9.78246 4.41656 9.54755 4.25148 9.29305 4.14698C9.03855 4.04265 8.76513 3.99048 8.4728 3.99048C8.1908 3.99048 7.92321 4.04265 7.67005 4.14698C7.41671 4.25148 7.1773 4.41656 6.9518 4.64223L3.66705 7.94223C3.48505 8.12423 3.33605 8.33931 3.22005 8.58748C3.10405 8.83548 3.0358 9.08839 3.0153 9.34623C2.99463 9.55906 3.00421 9.76965 3.04405 9.97798C3.08371 10.1863 3.15355 10.3821 3.25355 10.5655L2.1498 11.6692C1.92413 11.3436 1.7543 10.9788 1.6403 10.575C1.52613 10.1711 1.4793 9.76156 1.4998 9.34623C1.5203 8.88589 1.62413 8.44131 1.8113 8.01248C1.99846 7.58365 2.26063 7.20064 2.5978 6.86348L5.8728 3.58848C6.2473 3.22431 6.65472 2.95031 7.09505 2.76648C7.53538 2.58248 7.99788 2.49048 8.48255 2.49048C8.96705 2.49048 9.42788 2.58248 9.86505 2.76648C10.3024 2.95031 10.703 3.22431 11.067 3.58848L11.6403 4.16148L12.2133 3.58848C12.5876 3.22431 12.9934 2.95031 13.4305 2.76648C13.8677 2.58248 14.3286 2.49048 14.8133 2.49048C15.298 2.49048 15.7605 2.58248 16.2008 2.76648C16.6411 2.95031 17.0434 3.22431 17.4075 3.58848L21.3825 7.56348C21.7465 7.92764 22.0254 8.34206 22.219 8.80673C22.4125 9.2714 22.5093 9.74606 22.5093 10.2307C22.5093 10.7154 22.4125 11.1763 22.219 11.6135C22.0254 12.0506 21.7465 12.4512 21.3825 12.8152L13.3843 20.798C13.1638 21.0185 12.9155 21.1858 12.6393 21.3C12.363 21.414 12.0741 21.471 11.7728 21.471Z" fill="#111111"/>
</g>
</svg>
