<svg width="24" height="24" viewBox="0 0 24 24" fill="none" xmlns="http://www.w3.org/2000/svg">
<mask id="mask0_15_1134" style="mask-type:alpha" maskUnits="userSpaceOnUse" x="0" y="0" width="24" height="24">
<rect width="24" height="24" fill="#D9D9D9"/>
</mask>
<g mask="url(#mask0_15_1134)">
<path d="M11.9983 21.6923C11.5008 21.6923 11.0754 21.5153 10.7223 21.1613C10.3689 20.8073 10.1923 20.3817 10.1923 19.8845H13.8077C13.8077 20.3833 13.6306 20.8093 13.2762 21.1625C12.9219 21.5157 12.4959 21.6923 11.9983 21.6923ZM4.5 18.8845V17.3848H6.30775V9.923C6.30775 8.57817 6.72283 7.38908 7.553 6.35575C8.383 5.32242 9.44867 4.6615 10.75 4.373V3.75C10.75 3.40283 10.8714 3.10767 11.1143 2.8645C11.3571 2.6215 11.6519 2.5 11.9988 2.5C12.3458 2.5 12.641 2.6215 12.8845 2.8645C13.1282 3.10767 13.25 3.40283 13.25 3.75V3.95C13.0858 4.24617 12.9557 4.54742 12.8595 4.85375C12.7633 5.16025 12.7044 5.47825 12.6827 5.80775C12.5689 5.78725 12.4579 5.76925 12.3498 5.75375C12.2418 5.73842 12.1252 5.73075 12 5.73075C10.8423 5.73075 9.85417 6.14008 9.0355 6.95875C8.217 7.77725 7.80775 8.76533 7.80775 9.923V17.3848H16.1923V11.1328C16.4218 11.2148 16.6641 11.2788 16.9193 11.325C17.1744 11.3712 17.4321 11.3911 17.6923 11.3848V17.3848H19.5V18.8845H4.5Z" fill="#111111"/>
<circle cx="16.5" cy="7.5" r="2.5" fill="#FFC400"/>
</g>
</svg>
