<svg width="120" height="120" viewBox="0 0 120 120" fill="none" xmlns="http://www.w3.org/2000/svg">
<path d="M89.5336 44.4292C83.843 33.3269 73.0664 26.523 60 26.5839C46.9336 26.523 36.157 33.3269 30.4664 44.4292C29.8711 45.73 30.1266 46.3909 31.4274 46.9933C36.5438 49.8855 35.6531 48.7487 38.7914 44.5487C43.7836 37.255 51.8766 33.8448 60 33.9269C68.1258 33.8448 76.2164 37.255 81.2086 44.5487C84.3469 48.7487 83.4586 49.8855 88.5727 46.9933C89.8734 46.3933 90.1289 45.73 89.5336 44.4292Z" fill="#424242"/>
<path d="M95.4515 59.2837C94.8422 57.3196 94.3804 57.1157 92.4258 57.7368C91.432 58.0532 90.4336 58.3626 89.5172 58.8735C88.4203 59.4829 88.1695 60.0759 88.5398 61.2665C89.2195 63.4509 89.9062 65.6259 90.307 67.8923C91.6734 75.472 88.2961 84.636 79.3148 86.3892C75.8015 87.0759 69.2929 84.5118 65.625 80.9704C65.3437 80.6985 65.3086 80.2603 65.5359 79.9415C75.3422 66.2189 72.0469 57.4813 65.7984 54.0712C62.2008 52.1071 57.8015 52.1071 54.2039 54.0712C47.9554 57.4813 44.6601 66.2189 54.4664 79.9415C54.6937 80.2603 54.6609 80.6985 54.3773 80.9704C50.7117 84.5142 44.2031 87.0759 40.6875 86.3892C31.7062 84.636 28.3289 75.472 29.6953 67.8923C30.0961 65.6259 30.7828 63.4509 31.4625 61.2665C31.8328 60.0759 31.582 59.4829 30.4851 58.8735C29.5687 58.3649 28.5703 58.0532 27.5765 57.7368C25.6218 57.1157 25.1601 57.3196 24.5508 59.2837C15.5929 85.6978 36.3234 104.174 59.3719 86.3704C59.5804 86.1853 59.7914 86.0892 60 86.0634C60.2109 86.0915 60.4195 86.1853 60.6281 86.3704C83.6765 104.174 104.407 85.6978 95.4492 59.2837H95.4515Z" fill="#424242"/>
</svg>
