<svg width="100" height="100" viewBox="0 0 100 100" fill="none" xmlns="http://www.w3.org/2000/svg">
<path d="M6.10742 24.4668C5.33535 24.8904 4.81934 25.6451 4.81934 26.5088C4.81954 27.8356 6.03366 28.9108 7.53125 28.9111C9.02916 28.9111 10.2439 27.8358 10.2441 26.5088C10.2441 25.6447 9.72788 24.8893 8.95508 24.4658V22H14.6094V24.4668C13.8372 24.8904 13.3213 25.6451 13.3213 26.5088C13.3215 27.8356 14.5356 28.9109 16.0332 28.9111C17.5311 28.9111 18.7459 27.8358 18.7461 26.5088C18.7461 25.6447 18.2298 24.8893 17.457 24.4658V22H23.1104V24.4668C22.3384 24.8904 21.8223 25.6452 21.8223 26.5088C21.8225 27.8355 23.0367 28.9107 24.5342 28.9111C26.0321 28.9111 27.2469 27.8358 27.2471 26.5088C27.2471 25.6447 26.7308 24.8893 25.958 24.4658V22H31.6123V24.4668C30.8402 24.8904 30.3242 25.6451 30.3242 26.5088C30.3244 27.8356 31.5385 28.9109 33.0361 28.9111C34.534 28.9111 35.7488 27.8358 35.749 26.5088C35.749 25.6451 35.2331 24.8904 34.4609 24.4668V22H40.1133V24.4668C39.3412 24.8904 38.8252 25.6451 38.8252 26.5088C38.8254 27.8356 40.0395 28.9108 41.5371 28.9111C43.035 28.9111 44.2498 27.8358 44.25 26.5088C44.25 25.6451 43.7341 24.8904 42.9619 24.4668V22H48.6143V24.4668C47.8423 24.8904 47.3262 25.6452 47.3262 26.5088C47.3264 27.8355 48.5406 28.9107 50.0381 28.9111C51.536 28.9111 52.7508 27.8358 52.751 26.5088C52.751 25.6447 52.2347 24.8893 51.4619 24.4658V22H57.1162V24.4668C56.3441 24.8904 55.8281 25.6451 55.8281 26.5088C55.8283 27.8356 57.0424 28.9109 58.54 28.9111C60.0379 28.9111 61.2527 27.8357 61.2529 26.5088C61.2529 25.6451 60.7369 24.8904 59.9648 24.4668V22H65.6162V24.4668C64.8443 24.8904 64.3281 25.6452 64.3281 26.5088C64.3283 27.8355 65.5426 28.9106 67.04 28.9111C68.5379 28.9111 69.7527 27.8358 69.7529 26.5088C69.7529 25.6451 69.237 24.8904 68.4648 24.4668V22H74.1182V24.4668C73.346 24.8904 72.8301 25.6451 72.8301 26.5088C72.8303 27.8356 74.0443 28.9109 75.542 28.9111C77.0399 28.9111 78.2547 27.8358 78.2549 26.5088C78.2549 25.6447 77.7386 24.8893 76.9658 24.4658V22H82.6201V24.4668C81.848 24.8904 81.332 25.6451 81.332 26.5088C81.3322 27.8356 82.5463 28.9109 84.0439 28.9111C85.5418 28.9111 86.7566 27.8357 86.7568 26.5088C86.7568 25.6447 86.2405 24.8893 85.4678 24.4658V22H91.1211V24.4668C90.349 24.8904 89.833 25.6451 89.833 26.5088C89.8332 27.8356 91.0473 28.9109 92.5449 28.9111C94.0428 28.9111 95.2576 27.8358 95.2578 26.5088C95.2578 25.6447 94.7415 24.8893 93.9688 24.4658V22H100V77.7402H0V22H6.10742V24.4668Z" fill="#F8F8F8"/>
<path d="M5.94737 34.2068C5.77796 34.2068 5.64062 34.3442 5.64062 34.5136C5.64062 34.683 5.77796 34.8203 5.94737 34.8203V34.5136V34.2068ZM6.04737 34.5136L6.06469 34.2073L6.05604 34.2068H6.04737V34.5136ZM22.9805 34.5818L22.9738 34.8884L22.9805 34.5818ZM24.0063 34.6043L23.9995 34.9109L24.0063 34.6043ZM25.6799 34.6273L25.6782 34.934L25.6799 34.6273ZM26.7057 34.6329L26.704 34.9397L26.7057 34.6329ZM31.0787 34.5878L31.0635 34.2815L31.0787 34.5878ZM32.1044 34.537L32.0892 34.2306L32.1044 34.537ZM36.4774 34.5359L36.4598 34.8421L36.4774 34.5359ZM36.9903 34.5655L36.9726 34.8717L36.9903 34.5655ZM41.8762 34.6307L41.8783 34.3239L41.8762 34.6307ZM42.3891 34.6342L42.387 34.9409L42.3891 34.6342ZM44.5756 34.5684L44.5482 34.2629L44.5756 34.5684ZM45.0885 34.5225L45.1158 34.828L45.0885 34.5225ZM45.6014 34.4766L45.574 34.171L45.6014 34.4766ZM47.275 34.4665L47.2513 34.7723L47.275 34.4665ZM47.7879 34.5062L47.7642 34.812L47.7879 34.5062ZM52.6738 34.564L52.669 34.2573L52.6738 34.564ZM55.3731 34.4943L55.3582 34.188L55.3731 34.4943ZM56.3989 34.4445L56.4138 34.7508L56.3989 34.4445ZM58.5854 34.5047L58.5625 34.8106L58.5854 34.5047ZM59.0983 34.5431L59.1212 34.2372L59.0983 34.5431ZM61.2848 34.5677L61.2762 34.2611L61.2848 34.5677ZM61.7977 34.5533L61.8063 34.86L61.7977 34.5533ZM64.4971 34.5404L64.4953 34.8472V34.8472L64.4971 34.5404ZM67.1965 34.4311L67.1777 34.1249L67.1965 34.4311ZM76.9682 34.4454L76.9431 34.7512L76.9682 34.4454ZM77.994 34.5299L78.0192 34.2242L77.994 34.5299ZM80.1805 34.5002L80.2028 34.8062L80.1805 34.5002ZM80.6934 34.4628L80.6711 34.1569L80.6934 34.4628ZM83.3928 34.5558L83.3675 34.8615L83.3928 34.5558ZM85.0664 34.5874L85.0526 34.2809L85.0664 34.5874ZM88.2787 34.457L88.2893 34.7635L88.2787 34.457ZM88.7915 34.4392L88.7809 34.1327L88.7915 34.4392ZM91.4909 34.469L91.4813 34.7756L91.4909 34.469ZM92.8005 34.4822L92.7919 34.1756L92.8005 34.4822ZM93.8527 34.4832L93.9419 34.7767L94.1595 34.7106V34.4832H93.8527ZM93.7527 34.5136L93.6635 34.2201L93.7527 34.8203V34.5136ZM93.8527 34.8203C94.0221 34.8203 94.1595 34.683 94.1595 34.5136C94.1595 34.3442 94.0221 34.2068 93.8527 34.2068V34.5136V34.8203ZM5.94737 34.5136V34.8203H6.04737V34.5136V34.2068H5.94737V34.5136ZM6.04737 34.5136L6.03006 34.8198L7.01782 34.8757L7.03514 34.5694L7.05246 34.2632L6.06469 34.2073L6.04737 34.5136ZM7.03514 34.5694L7.01782 34.8757C8.09431 34.9365 8.9199 34.9618 9.48983 34.9501L9.48357 34.6435L9.47731 34.3368C8.9315 34.3479 8.12479 34.3238 7.05246 34.2632L7.03514 34.5694ZM9.48357 34.6435L9.48983 34.9501L10.0027 34.9397L9.99645 34.633L9.99019 34.3263L9.47731 34.3368L9.48357 34.6435ZM9.99645 34.633L10.0027 34.9397L10.5156 34.9292L10.5093 34.6225L10.5031 34.3158L9.99019 34.3263L9.99645 34.633ZM10.5093 34.6225L10.5156 34.9292C11.0792 34.9177 11.6428 34.8904 12.2063 34.8474L12.183 34.5415L12.1596 34.2357C11.6074 34.2778 11.0552 34.3045 10.5031 34.3158L10.5093 34.6225ZM12.183 34.5415L12.2063 34.8474L12.7192 34.8083L12.6958 34.5024L12.6725 34.1965L12.1596 34.2357L12.183 34.5415ZM12.6958 34.5024L12.7192 34.8083L13.2321 34.7691L13.2087 34.4633L13.1854 34.1574L12.6725 34.1965L12.6958 34.5024ZM13.2087 34.4633L13.2321 34.7691C13.7808 34.7273 14.3295 34.7101 14.8781 34.7176L14.8823 34.4109L14.8865 34.1042C14.3195 34.0964 13.7524 34.1141 13.1854 34.1574L13.2087 34.4633ZM14.8823 34.4109L14.8781 34.7176L15.391 34.7246L15.3952 34.4179L15.3994 34.1112L14.8865 34.1042L14.8823 34.4109ZM15.3952 34.4179L15.391 34.7246L15.9039 34.7317L15.9081 34.425L15.9123 34.1182L15.3994 34.1112L15.3952 34.4179ZM15.9081 34.425L15.9039 34.7317C16.4647 34.7394 17.0255 34.7391 17.5863 34.7308L17.5817 34.4241L17.5772 34.1173C17.0222 34.1255 16.4673 34.1258 15.9123 34.1182L15.9081 34.425ZM17.5817 34.4241L17.5863 34.7308L18.0991 34.7232L18.0946 34.4165L18.0901 34.1098L17.5772 34.1173L17.5817 34.4241ZM18.0946 34.4165L18.0991 34.7232L18.612 34.7156L18.6075 34.4089L18.603 34.1022L18.0901 34.1098L18.0946 34.4165ZM18.6075 34.4089L18.612 34.7156C19.1621 34.7075 19.7121 34.7204 20.2622 34.7544L20.2811 34.4483L20.3 34.1421C19.7344 34.1071 19.1687 34.0938 18.603 34.1022L18.6075 34.4089ZM20.2811 34.4483L20.2622 34.7544L20.7751 34.7861L20.794 34.48L20.8129 34.1738L20.3 34.1421L20.2811 34.4483ZM20.794 34.48L20.7751 34.7861L21.288 34.8178L21.3069 34.5117L21.3258 34.2055L20.8129 34.1738L20.794 34.48ZM21.3069 34.5117L21.288 34.8178C21.8499 34.8526 22.4118 34.8761 22.9738 34.8884L22.9805 34.5818L22.9872 34.2751C22.4334 34.2629 21.8796 34.2397 21.3258 34.2055L21.3069 34.5117ZM22.9805 34.5818L22.9738 34.8884L23.4867 34.8997L23.4934 34.593L23.5001 34.2863L22.9872 34.2751L22.9805 34.5818ZM23.4934 34.593L23.4867 34.8997L23.9995 34.9109L24.0063 34.6043L24.013 34.2976L23.5001 34.2863L23.4934 34.593ZM24.0063 34.6043L23.9995 34.9109C24.5591 34.9232 25.1186 34.9309 25.6782 34.934L25.6799 34.6273L25.6816 34.3205C25.1254 34.3174 24.5692 34.3098 24.013 34.2976L24.0063 34.6043ZM25.6799 34.6273L25.6782 34.934L26.1911 34.9368L26.1928 34.6301L26.1945 34.3233L25.6816 34.3205L25.6799 34.6273ZM26.1928 34.6301L26.1911 34.9368L26.704 34.9397L26.7057 34.6329L26.7074 34.3262L26.1945 34.3233L26.1928 34.6301ZM26.7057 34.6329L26.704 34.9397C27.2627 34.9428 27.8215 34.9435 28.3802 34.9418L28.3793 34.635L28.3783 34.3283C27.8213 34.33 27.2643 34.3293 26.7074 34.3262L26.7057 34.6329ZM28.3793 34.635L28.3802 34.9418L28.8931 34.9402L28.8922 34.6334L28.8912 34.3267L28.3783 34.3283L28.3793 34.635ZM28.8922 34.6334L28.8931 34.9402L29.406 34.9386L29.405 34.6319L29.4041 34.3251L28.8912 34.3267L28.8922 34.6334ZM29.405 34.6319L29.406 34.9386C29.9686 34.9369 30.5312 34.9221 31.0939 34.8942L31.0787 34.5878L31.0635 34.2815C30.5103 34.3089 29.9572 34.3234 29.4041 34.3251L29.405 34.6319ZM31.0787 34.5878L31.0939 34.8942L31.6067 34.8688L31.5915 34.5624L31.5764 34.256L31.0635 34.2815L31.0787 34.5878ZM31.5915 34.5624L31.6067 34.8688L32.1196 34.8433L32.1044 34.537L32.0892 34.2306L31.5764 34.256L31.5915 34.5624ZM32.1044 34.537L32.1196 34.8433C32.6727 34.8159 33.2258 34.8014 33.7789 34.7998L33.778 34.493L33.7772 34.1863C33.2145 34.1879 32.6519 34.2027 32.0892 34.2306L32.1044 34.537ZM33.778 34.493L33.7789 34.7998L34.2918 34.7983L34.2909 34.4915L34.29 34.1848L33.7772 34.1863L33.778 34.493ZM34.2909 34.4915L34.2918 34.7983L34.8047 34.7968L34.8038 34.49L34.8029 34.1833L34.29 34.1848L34.2909 34.4915ZM34.8038 34.49L34.8047 34.7968C35.3564 34.7952 35.9081 34.8103 36.4598 34.8421L36.4774 34.5359L36.4951 34.2297C35.9311 34.1971 35.367 34.1817 34.8029 34.1833L34.8038 34.49ZM36.4774 34.5359L36.4598 34.8421L36.9726 34.8717L36.9903 34.5655L37.008 34.2593L36.4951 34.2297L36.4774 34.5359ZM36.9903 34.5655L36.9726 34.8717L37.4855 34.9013L37.5032 34.5951L37.5209 34.2889L37.008 34.2593L36.9903 34.5655ZM37.5032 34.5951L37.4855 34.9013C38.05 34.9339 38.6144 34.9483 39.1789 34.9444L39.1768 34.6377L39.1747 34.331C38.6235 34.3347 38.0722 34.3207 37.5209 34.2889L37.5032 34.5951ZM39.1768 34.6377L39.1789 34.9444L39.6918 34.9409L39.6897 34.6342L39.6876 34.3275L39.1747 34.331L39.1768 34.6377ZM39.6897 34.6342L39.6918 34.9409L40.2047 34.9375L40.2026 34.6307L40.2005 34.324L39.6876 34.3275L39.6897 34.6342ZM40.2026 34.6307L40.2047 34.9375C40.7612 34.9337 41.3176 34.9337 41.8741 34.9374L41.8762 34.6307L41.8783 34.3239C41.319 34.3202 40.7598 34.3202 40.2005 34.324L40.2026 34.6307ZM41.8762 34.6307L41.8741 34.9374L42.387 34.9409L42.3891 34.6342L42.3912 34.3274L41.8783 34.3239L41.8762 34.6307ZM42.3891 34.6342L42.387 34.9409L42.8999 34.9444L42.902 34.6377L42.9041 34.3309L42.3912 34.3274L42.3891 34.6342ZM42.902 34.6377L42.8999 34.9444C43.4676 34.9482 44.0353 34.9248 44.603 34.8739L44.5756 34.5684L44.5482 34.2629C44.0001 34.312 43.4521 34.3346 42.9041 34.3309L42.902 34.6377ZM44.5756 34.5684L44.603 34.8739L45.1158 34.828L45.0885 34.5225L45.0611 34.217L44.5482 34.2629L44.5756 34.5684ZM45.0885 34.5225L45.1158 34.828L45.6287 34.7821L45.6014 34.4766L45.574 34.171L45.0611 34.217L45.0885 34.5225ZM45.6014 34.4766L45.6287 34.7821C46.1696 34.7337 46.7104 34.7304 47.2513 34.7723L47.275 34.4665L47.2987 34.1606C46.7238 34.1161 46.1488 34.1196 45.574 34.171L45.6014 34.4766ZM47.275 34.4665L47.2513 34.7723L47.7642 34.812L47.7879 34.5062L47.8116 34.2003L47.2987 34.1606L47.275 34.4665ZM47.7879 34.5062L47.7642 34.812L48.2771 34.8517L48.3007 34.5459L48.3244 34.2401L47.8116 34.2003L47.7879 34.5062ZM48.3007 34.5459L48.2771 34.8517C48.8441 34.8957 49.4111 34.9141 49.9782 34.907L49.9744 34.6003L49.9705 34.2935C49.4219 34.3004 48.8732 34.2826 48.3244 34.2401L48.3007 34.5459ZM49.9744 34.6003L49.9782 34.907L50.4911 34.9006L50.4873 34.5939L50.4834 34.2871L49.9705 34.2935L49.9744 34.6003ZM50.4873 34.5939L50.4911 34.9006L51.004 34.8942L51.0001 34.5875L50.9963 34.2807L50.4834 34.2871L50.4873 34.5939ZM51.0001 34.5875L51.004 34.8942C51.5622 34.8872 52.1203 34.8794 52.6785 34.8707L52.6738 34.564L52.669 34.2573C52.1114 34.2659 51.5539 34.2738 50.9963 34.2807L51.0001 34.5875ZM52.6738 34.564L52.6785 34.8707L53.1914 34.8627L53.1866 34.556L53.1819 34.2493L52.669 34.2573L52.6738 34.564ZM53.1866 34.556L53.1914 34.8627L53.7043 34.8548L53.6995 34.548L53.6948 34.2413L53.1819 34.2493L53.1866 34.556ZM53.6995 34.548L53.7043 34.8548C54.2655 34.846 54.8268 34.828 55.388 34.8007L55.3731 34.4943L55.3582 34.188C54.8037 34.2149 54.2492 34.2327 53.6948 34.2413L53.6995 34.548ZM55.3731 34.4943L55.388 34.8007L55.9009 34.7758L55.886 34.4694L55.8711 34.163L55.3582 34.188L55.3731 34.4943ZM55.886 34.4694L55.9009 34.7758L56.4138 34.7508L56.3989 34.4445L56.384 34.1381L55.8711 34.163L55.886 34.4694ZM56.3989 34.4445L56.4138 34.7508C56.9591 34.7243 57.5043 34.7315 58.0496 34.7722L58.0725 34.4664L58.0954 34.1605C57.525 34.1178 56.9545 34.1103 56.384 34.1381L56.3989 34.4445ZM58.0725 34.4664L58.0496 34.7722L58.5625 34.8106L58.5854 34.5047L58.6083 34.1988L58.0954 34.1605L58.0725 34.4664ZM58.5854 34.5047L58.5625 34.8106L59.0754 34.849L59.0983 34.5431L59.1212 34.2372L58.6083 34.1988L58.5854 34.5047ZM59.0983 34.5431L59.0754 34.849C59.6437 34.8915 60.2121 34.9047 60.7805 34.8888L60.7719 34.5822L60.7633 34.2755C60.216 34.2909 59.6686 34.2781 59.1212 34.2372L59.0983 34.5431ZM60.7719 34.5822L60.7805 34.8888L61.2934 34.8744L61.2848 34.5677L61.2762 34.2611L60.7633 34.2755L60.7719 34.5822ZM61.2848 34.5677L61.2934 34.8744L61.8063 34.86L61.7977 34.5533L61.7891 34.2467L61.2762 34.2611L61.2848 34.5677ZM61.7977 34.5533L61.8063 34.86C62.3607 34.8444 62.9151 34.8382 63.4696 34.8413L63.4713 34.5346L63.473 34.2279C62.9117 34.2247 62.3504 34.2309 61.7891 34.2467L61.7977 34.5533ZM63.4713 34.5346L63.4696 34.8413L63.9824 34.8443L63.9842 34.5375L63.9859 34.2308L63.473 34.2279L63.4713 34.5346ZM63.9842 34.5375L63.9824 34.8443L64.4953 34.8472L64.4971 34.5404L64.4988 34.2337L63.9859 34.2308L63.9842 34.5375ZM64.4971 34.5404L64.4953 34.8472C65.06 34.8504 65.6248 34.8347 66.1894 34.8001L66.1707 34.494L66.1519 34.1878C65.6009 34.2215 65.0498 34.2368 64.4988 34.2337L64.4971 34.5404ZM66.1707 34.494L66.1894 34.8001L66.7023 34.7687L66.6836 34.4625L66.6648 34.1564L66.1519 34.1878L66.1707 34.494ZM66.6836 34.4625L66.7023 34.7687L67.2152 34.7373L67.1965 34.4311L67.1777 34.1249L66.6648 34.1564L66.6836 34.4625ZM67.1965 34.4311L67.2152 34.7373C67.763 34.7037 68.3108 34.6972 68.8586 34.7178L68.8701 34.4112L68.8816 34.1047C68.3136 34.0834 67.7456 34.0902 67.1777 34.1249L67.1965 34.4311ZM68.8701 34.4112L68.8586 34.7178L69.3715 34.737L69.383 34.4305L69.3944 34.1239L68.8816 34.1047L68.8701 34.4112ZM69.383 34.4305L69.3715 34.737L69.8843 34.7562L69.8958 34.4497L69.9073 34.1432L69.3944 34.1239L69.383 34.4305ZM69.8958 34.4497L69.8843 34.7562C70.4502 34.7774 71.016 34.7766 71.5818 34.7538L71.5695 34.4473L71.5571 34.1408C71.0072 34.163 70.4573 34.1638 69.9073 34.1432L69.8958 34.4497ZM71.5695 34.4473L71.5818 34.7538L72.0947 34.7332L72.0823 34.4267L72.07 34.1202L71.5571 34.1408L71.5695 34.4473ZM72.0823 34.4267L72.0947 34.7332L72.6076 34.7125L72.5952 34.406L72.5829 34.0995L72.07 34.1202L72.0823 34.4267ZM72.5952 34.406L72.6076 34.7125C73.1612 34.6902 73.7148 34.6795 74.2684 34.6804L74.2688 34.3736L74.2693 34.0669C73.7072 34.066 73.145 34.0769 72.5829 34.0995L72.5952 34.406ZM74.2688 34.3736L74.2684 34.6804L74.7812 34.6812L74.7817 34.3744L74.7822 34.0677L74.2693 34.0669L74.2688 34.3736ZM74.7817 34.3744L74.7812 34.6812L75.2941 34.682L75.2946 34.3752L75.2951 34.0685L74.7822 34.0677L74.7817 34.3744ZM75.2946 34.3752L75.2941 34.682C75.8437 34.6829 76.3934 34.7059 76.9431 34.7512L76.9682 34.4454L76.9934 34.1397C76.4273 34.0931 75.8612 34.0694 75.2951 34.0685L75.2946 34.3752ZM76.9682 34.4454L76.9431 34.7512L77.4559 34.7934L77.4811 34.4877L77.5063 34.182L76.9934 34.1397L76.9682 34.4454ZM77.4811 34.4877L77.4559 34.7934L77.9688 34.8356L77.994 34.5299L78.0192 34.2242L77.5063 34.182L77.4811 34.4877ZM77.994 34.5299L77.9688 34.8356C78.5425 34.8828 79.1163 34.8855 79.69 34.8436L79.6676 34.5377L79.6453 34.2318C79.1032 34.2713 78.5612 34.2688 78.0192 34.2242L77.994 34.5299ZM79.6676 34.5377L79.69 34.8436L80.2028 34.8062L80.1805 34.5002L80.1582 34.1943L79.6453 34.2318L79.6676 34.5377ZM80.1805 34.5002L80.2028 34.8062L80.7157 34.7687L80.6934 34.4628L80.6711 34.1569L80.1582 34.1943L80.1805 34.5002ZM80.6934 34.4628L80.7157 34.7687C81.2577 34.7292 81.7997 34.7318 82.3417 34.7766L82.367 34.4709L82.3923 34.1652C81.8186 34.1178 81.2448 34.115 80.6711 34.1569L80.6934 34.4628ZM82.367 34.4709L82.3417 34.7766L82.8546 34.8191L82.8799 34.5133L82.9052 34.2076L82.3923 34.1652L82.367 34.4709ZM82.8799 34.5133L82.8546 34.8191L83.3675 34.8615L83.3928 34.5558L83.4181 34.2501L82.9052 34.2076L82.8799 34.5133ZM83.3928 34.5558L83.3675 34.8615C83.9383 34.9087 84.5092 34.9195 85.0802 34.8938L85.0664 34.5874L85.0526 34.2809C84.5078 34.3054 83.963 34.2951 83.4181 34.2501L83.3928 34.5558ZM85.0664 34.5874L85.0802 34.8938L85.593 34.8708L85.5793 34.5643L85.5655 34.2579L85.0526 34.2809L85.0664 34.5874ZM85.5793 34.5643L85.593 34.8708L86.1059 34.8477L86.0922 34.5413L86.0784 34.2349L85.5655 34.2579L85.5793 34.5643ZM86.0922 34.5413L86.1059 34.8477C86.6628 34.8227 87.2196 34.8006 87.7764 34.7813L87.7658 34.4747L87.7552 34.1682C87.1962 34.1875 86.6373 34.2098 86.0784 34.2349L86.0922 34.5413ZM87.7658 34.4747L87.7764 34.7813L88.2893 34.7635L88.2787 34.457L88.268 34.1504L87.7552 34.1682L87.7658 34.4747ZM88.2787 34.457L88.2893 34.7635L88.8022 34.7458L88.7915 34.4392L88.7809 34.1327L88.268 34.1504L88.2787 34.457ZM88.7915 34.4392L88.8022 34.7458C89.3533 34.7267 89.9044 34.7258 90.4555 34.7432L90.4652 34.4366L90.4748 34.13C89.9102 34.1122 89.3456 34.1131 88.7809 34.1327L88.7915 34.4392ZM90.4652 34.4366L90.4555 34.7432L90.9684 34.7594L90.9781 34.4528L90.9877 34.1462L90.4748 34.13L90.4652 34.4366ZM90.9781 34.4528L90.9684 34.7594L91.4813 34.7756L91.4909 34.469L91.5006 34.1624L90.9877 34.1462L90.9781 34.4528ZM91.4909 34.469L91.4813 34.7756C92.0414 34.7933 92.4849 34.7979 92.8091 34.7888L92.8005 34.4822L92.7919 34.1756C92.4857 34.1841 92.0563 34.1799 91.5006 34.1624L91.4909 34.469ZM92.8005 34.4822L92.8091 34.7888L93.0988 34.7807L93.0902 34.4741L93.0817 34.1675L92.7919 34.1756L92.8005 34.4822ZM93.0902 34.4741L93.0988 34.7807L93.3885 34.7726L93.38 34.466L93.3714 34.1594L93.0817 34.1675L93.0902 34.4741ZM93.38 34.466L93.3885 34.7726C93.5452 34.7683 93.6584 34.7667 93.7309 34.7675C93.7684 34.768 93.7881 34.769 93.7952 34.7697C93.8011 34.7702 93.7894 34.7696 93.7707 34.7649C93.7638 34.7632 93.7339 34.7558 93.699 34.7359C93.6811 34.7257 93.6476 34.7043 93.616 34.6661C93.5816 34.6245 93.546 34.558 93.546 34.4716H93.8527H94.1595C94.1595 34.2939 94.0225 34.2141 94.0027 34.2029C93.9654 34.1816 93.9318 34.1729 93.92 34.1699C93.8914 34.1627 93.865 34.16 93.8512 34.1587C93.8189 34.1558 93.7794 34.1546 93.7382 34.1541C93.6531 34.1531 93.5299 34.1549 93.3714 34.1594L93.38 34.466ZM93.8527 34.4716H93.546V34.4832H93.8527H94.1595V34.4716H93.8527ZM93.8527 34.4832L93.7635 34.1897L93.6635 34.2201L93.7527 34.5136L93.8419 34.8071L93.9419 34.7767L93.8527 34.4832ZM93.7527 34.5136V34.8203H93.8527V34.5136V34.2068H93.7527V34.5136Z" fill="#BCBCBC"/>
<path d="M5.94737 41.3943C5.77796 41.3943 5.64062 41.5317 5.64062 41.7011C5.64062 41.8705 5.77796 42.0078 5.94737 42.0078V41.7011V41.3943ZM6.04737 41.7011L6.06469 41.3948L6.05604 41.3943H6.04737V41.7011ZM22.9805 41.7693L22.9738 42.0759L22.9805 41.7693ZM24.0063 41.7918L23.9995 42.0984L24.0063 41.7918ZM25.6799 41.8148L25.6782 42.1215L25.6799 41.8148ZM26.7057 41.8204L26.704 42.1272L26.7057 41.8204ZM31.0787 41.7753L31.0635 41.469L31.0787 41.7753ZM32.1044 41.7245L32.0892 41.4181L32.1044 41.7245ZM36.4774 41.7234L36.4598 42.0296L36.4774 41.7234ZM36.9903 41.753L36.9726 42.0592L36.9903 41.753ZM41.8762 41.8182L41.8783 41.5114L41.8762 41.8182ZM42.3891 41.8217L42.387 42.1284L42.3891 41.8217ZM44.5756 41.7559L44.5482 41.4504L44.5756 41.7559ZM45.0885 41.71L45.1158 42.0155L45.0885 41.71ZM45.6014 41.6641L45.574 41.3585L45.6014 41.6641ZM47.275 41.654L47.2513 41.9598L47.275 41.654ZM47.7879 41.6937L47.7642 41.9995L47.7879 41.6937ZM52.6738 41.7515L52.669 41.4448L52.6738 41.7515ZM55.3731 41.6818L55.3582 41.3755L55.3731 41.6818ZM56.3989 41.632L56.4138 41.9383L56.3989 41.632ZM58.5854 41.6922L58.5625 41.9981L58.5854 41.6922ZM59.0983 41.7306L59.1212 41.4247L59.0983 41.7306ZM61.2848 41.7552L61.2762 41.4486L61.2848 41.7552ZM61.7977 41.7408L61.8063 42.0475L61.7977 41.7408ZM64.4971 41.7279L64.4953 42.0347V42.0347L64.4971 41.7279ZM67.1965 41.6186L67.1777 41.3124L67.1965 41.6186ZM76.9682 41.6329L76.9431 41.9387L76.9682 41.6329ZM77.994 41.7174L78.0192 41.4117L77.994 41.7174ZM80.1805 41.6877L80.2028 41.9937L80.1805 41.6877ZM80.6934 41.6503L80.6711 41.3444L80.6934 41.6503ZM83.3928 41.7433L83.3675 42.049L83.3928 41.7433ZM85.0664 41.7749L85.0526 41.4684L85.0664 41.7749ZM88.2787 41.6445L88.2893 41.951L88.2787 41.6445ZM88.7915 41.6267L88.7809 41.3202L88.7915 41.6267ZM91.4909 41.6565L91.4813 41.9631L91.4909 41.6565ZM92.8005 41.6697L92.7919 41.3631L92.8005 41.6697ZM93.8527 41.6707L93.9419 41.9642L94.1595 41.8981V41.6707H93.8527ZM93.7527 41.7011L93.6635 41.4076L93.7527 42.0078V41.7011ZM93.8527 42.0078C94.0221 42.0078 94.1595 41.8705 94.1595 41.7011C94.1595 41.5317 94.0221 41.3943 93.8527 41.3943V41.7011V42.0078ZM5.94737 41.7011V42.0078H6.04737V41.7011V41.3943H5.94737V41.7011ZM6.04737 41.7011L6.03006 42.0073L7.01782 42.0632L7.03514 41.7569L7.05246 41.4507L6.06469 41.3948L6.04737 41.7011ZM7.03514 41.7569L7.01782 42.0632C8.09431 42.124 8.9199 42.1493 9.48983 42.1376L9.48357 41.831L9.47731 41.5243C8.9315 41.5354 8.12479 41.5113 7.05246 41.4507L7.03514 41.7569ZM9.48357 41.831L9.48983 42.1376L10.0027 42.1272L9.99645 41.8205L9.99019 41.5138L9.47731 41.5243L9.48357 41.831ZM9.99645 41.8205L10.0027 42.1272L10.5156 42.1167L10.5093 41.81L10.5031 41.5033L9.99019 41.5138L9.99645 41.8205ZM10.5093 41.81L10.5156 42.1167C11.0792 42.1052 11.6428 42.0779 12.2063 42.0349L12.183 41.729L12.1596 41.4232C11.6074 41.4653 11.0552 41.492 10.5031 41.5033L10.5093 41.81ZM12.183 41.729L12.2063 42.0349L12.7192 41.9958L12.6958 41.6899L12.6725 41.384L12.1596 41.4232L12.183 41.729ZM12.6958 41.6899L12.7192 41.9958L13.2321 41.9566L13.2087 41.6508L13.1854 41.3449L12.6725 41.384L12.6958 41.6899ZM13.2087 41.6508L13.2321 41.9566C13.7808 41.9148 14.3295 41.8976 14.8781 41.9051L14.8823 41.5984L14.8865 41.2917C14.3195 41.2839 13.7524 41.3016 13.1854 41.3449L13.2087 41.6508ZM14.8823 41.5984L14.8781 41.9051L15.391 41.9121L15.3952 41.6054L15.3994 41.2987L14.8865 41.2917L14.8823 41.5984ZM15.3952 41.6054L15.391 41.9121L15.9039 41.9192L15.9081 41.6125L15.9123 41.3057L15.3994 41.2987L15.3952 41.6054ZM15.9081 41.6125L15.9039 41.9192C16.4647 41.9269 17.0255 41.9266 17.5863 41.9183L17.5817 41.6116L17.5772 41.3048C17.0222 41.313 16.4673 41.3133 15.9123 41.3057L15.9081 41.6125ZM17.5817 41.6116L17.5863 41.9183L18.0991 41.9107L18.0946 41.604L18.0901 41.2973L17.5772 41.3048L17.5817 41.6116ZM18.0946 41.604L18.0991 41.9107L18.612 41.9031L18.6075 41.5964L18.603 41.2897L18.0901 41.2973L18.0946 41.604ZM18.6075 41.5964L18.612 41.9031C19.1621 41.895 19.7121 41.9079 20.2622 41.9419L20.2811 41.6358L20.3 41.3296C19.7344 41.2946 19.1687 41.2813 18.603 41.2897L18.6075 41.5964ZM20.2811 41.6358L20.2622 41.9419L20.7751 41.9736L20.794 41.6675L20.8129 41.3613L20.3 41.3296L20.2811 41.6358ZM20.794 41.6675L20.7751 41.9736L21.288 42.0053L21.3069 41.6992L21.3258 41.393L20.8129 41.3613L20.794 41.6675ZM21.3069 41.6992L21.288 42.0053C21.8499 42.0401 22.4118 42.0636 22.9738 42.0759L22.9805 41.7693L22.9872 41.4626C22.4334 41.4504 21.8796 41.4272 21.3258 41.393L21.3069 41.6992ZM22.9805 41.7693L22.9738 42.0759L23.4867 42.0872L23.4934 41.7805L23.5001 41.4738L22.9872 41.4626L22.9805 41.7693ZM23.4934 41.7805L23.4867 42.0872L23.9995 42.0984L24.0063 41.7918L24.013 41.4851L23.5001 41.4738L23.4934 41.7805ZM24.0063 41.7918L23.9995 42.0984C24.5591 42.1107 25.1186 42.1184 25.6782 42.1215L25.6799 41.8148L25.6816 41.508C25.1254 41.5049 24.5692 41.4973 24.013 41.4851L24.0063 41.7918ZM25.6799 41.8148L25.6782 42.1215L26.1911 42.1243L26.1928 41.8176L26.1945 41.5108L25.6816 41.508L25.6799 41.8148ZM26.1928 41.8176L26.1911 42.1243L26.704 42.1272L26.7057 41.8204L26.7074 41.5137L26.1945 41.5108L26.1928 41.8176ZM26.7057 41.8204L26.704 42.1272C27.2627 42.1303 27.8215 42.131 28.3802 42.1293L28.3793 41.8225L28.3783 41.5158C27.8213 41.5175 27.2643 41.5168 26.7074 41.5137L26.7057 41.8204ZM28.3793 41.8225L28.3802 42.1293L28.8931 42.1277L28.8922 41.8209L28.8912 41.5142L28.3783 41.5158L28.3793 41.8225ZM28.8922 41.8209L28.8931 42.1277L29.406 42.1261L29.405 41.8194L29.4041 41.5126L28.8912 41.5142L28.8922 41.8209ZM29.405 41.8194L29.406 42.1261C29.9686 42.1244 30.5312 42.1096 31.0939 42.0817L31.0787 41.7753L31.0635 41.469C30.5103 41.4964 29.9572 41.5109 29.4041 41.5126L29.405 41.8194ZM31.0787 41.7753L31.0939 42.0817L31.6067 42.0563L31.5915 41.7499L31.5764 41.4435L31.0635 41.469L31.0787 41.7753ZM31.5915 41.7499L31.6067 42.0563L32.1196 42.0308L32.1044 41.7245L32.0892 41.4181L31.5764 41.4435L31.5915 41.7499ZM32.1044 41.7245L32.1196 42.0308C32.6727 42.0034 33.2258 41.9889 33.7789 41.9873L33.778 41.6805L33.7772 41.3738C33.2145 41.3754 32.6519 41.3902 32.0892 41.4181L32.1044 41.7245ZM33.778 41.6805L33.7789 41.9873L34.2918 41.9858L34.2909 41.679L34.29 41.3723L33.7772 41.3738L33.778 41.6805ZM34.2909 41.679L34.2918 41.9858L34.8047 41.9843L34.8038 41.6775L34.8029 41.3708L34.29 41.3723L34.2909 41.679ZM34.8038 41.6775L34.8047 41.9843C35.3564 41.9827 35.9081 41.9978 36.4598 42.0296L36.4774 41.7234L36.4951 41.4172C35.9311 41.3846 35.367 41.3692 34.8029 41.3708L34.8038 41.6775ZM36.4774 41.7234L36.4598 42.0296L36.9726 42.0592L36.9903 41.753L37.008 41.4468L36.4951 41.4172L36.4774 41.7234ZM36.9903 41.753L36.9726 42.0592L37.4855 42.0888L37.5032 41.7826L37.5209 41.4764L37.008 41.4468L36.9903 41.753ZM37.5032 41.7826L37.4855 42.0888C38.05 42.1214 38.6144 42.1358 39.1789 42.1319L39.1768 41.8252L39.1747 41.5185C38.6235 41.5222 38.0722 41.5082 37.5209 41.4764L37.5032 41.7826ZM39.1768 41.8252L39.1789 42.1319L39.6918 42.1284L39.6897 41.8217L39.6876 41.515L39.1747 41.5185L39.1768 41.8252ZM39.6897 41.8217L39.6918 42.1284L40.2047 42.125L40.2026 41.8182L40.2005 41.5115L39.6876 41.515L39.6897 41.8217ZM40.2026 41.8182L40.2047 42.125C40.7612 42.1212 41.3176 42.1212 41.8741 42.1249L41.8762 41.8182L41.8783 41.5114C41.319 41.5077 40.7598 41.5077 40.2005 41.5115L40.2026 41.8182ZM41.8762 41.8182L41.8741 42.1249L42.387 42.1284L42.3891 41.8217L42.3912 41.5149L41.8783 41.5114L41.8762 41.8182ZM42.3891 41.8217L42.387 42.1284L42.8999 42.1319L42.902 41.8252L42.9041 41.5184L42.3912 41.5149L42.3891 41.8217ZM42.902 41.8252L42.8999 42.1319C43.4676 42.1357 44.0353 42.1123 44.603 42.0614L44.5756 41.7559L44.5482 41.4504C44.0001 41.4995 43.4521 41.5221 42.9041 41.5184L42.902 41.8252ZM44.5756 41.7559L44.603 42.0614L45.1158 42.0155L45.0885 41.71L45.0611 41.4045L44.5482 41.4504L44.5756 41.7559ZM45.0885 41.71L45.1158 42.0155L45.6287 41.9696L45.6014 41.6641L45.574 41.3585L45.0611 41.4045L45.0885 41.71ZM45.6014 41.6641L45.6287 41.9696C46.1696 41.9212 46.7104 41.9179 47.2513 41.9598L47.275 41.654L47.2987 41.3481C46.7238 41.3036 46.1488 41.3071 45.574 41.3585L45.6014 41.6641ZM47.275 41.654L47.2513 41.9598L47.7642 41.9995L47.7879 41.6937L47.8116 41.3878L47.2987 41.3481L47.275 41.654ZM47.7879 41.6937L47.7642 41.9995L48.2771 42.0392L48.3007 41.7334L48.3244 41.4276L47.8116 41.3878L47.7879 41.6937ZM48.3007 41.7334L48.2771 42.0392C48.8441 42.0832 49.4111 42.1016 49.9782 42.0945L49.9744 41.7878L49.9705 41.481C49.4219 41.4879 48.8732 41.4701 48.3244 41.4276L48.3007 41.7334ZM49.9744 41.7878L49.9782 42.0945L50.4911 42.0881L50.4873 41.7814L50.4834 41.4746L49.9705 41.481L49.9744 41.7878ZM50.4873 41.7814L50.4911 42.0881L51.004 42.0817L51.0001 41.775L50.9963 41.4682L50.4834 41.4746L50.4873 41.7814ZM51.0001 41.775L51.004 42.0817C51.5622 42.0747 52.1203 42.0669 52.6785 42.0582L52.6738 41.7515L52.669 41.4448C52.1114 41.4534 51.5539 41.4613 50.9963 41.4682L51.0001 41.775ZM52.6738 41.7515L52.6785 42.0582L53.1914 42.0502L53.1866 41.7435L53.1819 41.4368L52.669 41.4448L52.6738 41.7515ZM53.1866 41.7435L53.1914 42.0502L53.7043 42.0423L53.6995 41.7355L53.6948 41.4288L53.1819 41.4368L53.1866 41.7435ZM53.6995 41.7355L53.7043 42.0423C54.2655 42.0335 54.8268 42.0155 55.388 41.9882L55.3731 41.6818L55.3582 41.3755C54.8037 41.4024 54.2492 41.4202 53.6948 41.4288L53.6995 41.7355ZM55.3731 41.6818L55.388 41.9882L55.9009 41.9633L55.886 41.6569L55.8711 41.3505L55.3582 41.3755L55.3731 41.6818ZM55.886 41.6569L55.9009 41.9633L56.4138 41.9383L56.3989 41.632L56.384 41.3256L55.8711 41.3505L55.886 41.6569ZM56.3989 41.632L56.4138 41.9383C56.9591 41.9118 57.5043 41.919 58.0496 41.9597L58.0725 41.6539L58.0954 41.348C57.525 41.3053 56.9545 41.2978 56.384 41.3256L56.3989 41.632ZM58.0725 41.6539L58.0496 41.9597L58.5625 41.9981L58.5854 41.6922L58.6083 41.3863L58.0954 41.348L58.0725 41.6539ZM58.5854 41.6922L58.5625 41.9981L59.0754 42.0365L59.0983 41.7306L59.1212 41.4247L58.6083 41.3863L58.5854 41.6922ZM59.0983 41.7306L59.0754 42.0365C59.6437 42.079 60.2121 42.0922 60.7805 42.0763L60.7719 41.7697L60.7633 41.463C60.216 41.4784 59.6686 41.4656 59.1212 41.4247L59.0983 41.7306ZM60.7719 41.7697L60.7805 42.0763L61.2934 42.0619L61.2848 41.7552L61.2762 41.4486L60.7633 41.463L60.7719 41.7697ZM61.2848 41.7552L61.2934 42.0619L61.8063 42.0475L61.7977 41.7408L61.7891 41.4342L61.2762 41.4486L61.2848 41.7552ZM61.7977 41.7408L61.8063 42.0475C62.3607 42.0319 62.9151 42.0257 63.4696 42.0288L63.4713 41.7221L63.473 41.4154C62.9117 41.4122 62.3504 41.4184 61.7891 41.4342L61.7977 41.7408ZM63.4713 41.7221L63.4696 42.0288L63.9824 42.0318L63.9842 41.725L63.9859 41.4183L63.473 41.4154L63.4713 41.7221ZM63.9842 41.725L63.9824 42.0318L64.4953 42.0347L64.4971 41.7279L64.4988 41.4212L63.9859 41.4183L63.9842 41.725ZM64.4971 41.7279L64.4953 42.0347C65.06 42.0379 65.6248 42.0222 66.1894 41.9876L66.1707 41.6815L66.1519 41.3753C65.6009 41.409 65.0498 41.4243 64.4988 41.4212L64.4971 41.7279ZM66.1707 41.6815L66.1894 41.9876L66.7023 41.9562L66.6836 41.65L66.6648 41.3439L66.1519 41.3753L66.1707 41.6815ZM66.6836 41.65L66.7023 41.9562L67.2152 41.9248L67.1965 41.6186L67.1777 41.3124L66.6648 41.3439L66.6836 41.65ZM67.1965 41.6186L67.2152 41.9248C67.763 41.8912 68.3108 41.8847 68.8586 41.9053L68.8701 41.5987L68.8816 41.2922C68.3136 41.2709 67.7456 41.2777 67.1777 41.3124L67.1965 41.6186ZM68.8701 41.5987L68.8586 41.9053L69.3715 41.9245L69.383 41.618L69.3944 41.3114L68.8816 41.2922L68.8701 41.5987ZM69.383 41.618L69.3715 41.9245L69.8843 41.9437L69.8958 41.6372L69.9073 41.3307L69.3944 41.3114L69.383 41.618ZM69.8958 41.6372L69.8843 41.9437C70.4502 41.9649 71.016 41.9641 71.5818 41.9413L71.5695 41.6348L71.5571 41.3283C71.0072 41.3505 70.4573 41.3513 69.9073 41.3307L69.8958 41.6372ZM71.5695 41.6348L71.5818 41.9413L72.0947 41.9207L72.0823 41.6142L72.07 41.3077L71.5571 41.3283L71.5695 41.6348ZM72.0823 41.6142L72.0947 41.9207L72.6076 41.9L72.5952 41.5935L72.5829 41.287L72.07 41.3077L72.0823 41.6142ZM72.5952 41.5935L72.6076 41.9C73.1612 41.8777 73.7148 41.867 74.2684 41.8679L74.2688 41.5611L74.2693 41.2544C73.7072 41.2535 73.145 41.2644 72.5829 41.287L72.5952 41.5935ZM74.2688 41.5611L74.2684 41.8679L74.7812 41.8687L74.7817 41.5619L74.7822 41.2552L74.2693 41.2544L74.2688 41.5611ZM74.7817 41.5619L74.7812 41.8687L75.2941 41.8695L75.2946 41.5627L75.2951 41.256L74.7822 41.2552L74.7817 41.5619ZM75.2946 41.5627L75.2941 41.8695C75.8437 41.8704 76.3934 41.8934 76.9431 41.9387L76.9682 41.6329L76.9934 41.3272C76.4273 41.2806 75.8612 41.2569 75.2951 41.256L75.2946 41.5627ZM76.9682 41.6329L76.9431 41.9387L77.4559 41.9809L77.4811 41.6752L77.5063 41.3695L76.9934 41.3272L76.9682 41.6329ZM77.4811 41.6752L77.4559 41.9809L77.9688 42.0231L77.994 41.7174L78.0192 41.4117L77.5063 41.3695L77.4811 41.6752ZM77.994 41.7174L77.9688 42.0231C78.5425 42.0703 79.1163 42.073 79.69 42.0311L79.6676 41.7252L79.6453 41.4193C79.1032 41.4588 78.5612 41.4563 78.0192 41.4117L77.994 41.7174ZM79.6676 41.7252L79.69 42.0311L80.2028 41.9937L80.1805 41.6877L80.1582 41.3818L79.6453 41.4193L79.6676 41.7252ZM80.1805 41.6877L80.2028 41.9937L80.7157 41.9562L80.6934 41.6503L80.6711 41.3444L80.1582 41.3818L80.1805 41.6877ZM80.6934 41.6503L80.7157 41.9562C81.2577 41.9167 81.7997 41.9193 82.3417 41.9641L82.367 41.6584L82.3923 41.3527C81.8186 41.3053 81.2448 41.3025 80.6711 41.3444L80.6934 41.6503ZM82.367 41.6584L82.3417 41.9641L82.8546 42.0066L82.8799 41.7008L82.9052 41.3951L82.3923 41.3527L82.367 41.6584ZM82.8799 41.7008L82.8546 42.0066L83.3675 42.049L83.3928 41.7433L83.4181 41.4376L82.9052 41.3951L82.8799 41.7008ZM83.3928 41.7433L83.3675 42.049C83.9383 42.0962 84.5092 42.107 85.0802 42.0813L85.0664 41.7749L85.0526 41.4684C84.5078 41.4929 83.963 41.4826 83.4181 41.4376L83.3928 41.7433ZM85.0664 41.7749L85.0802 42.0813L85.593 42.0583L85.5793 41.7518L85.5655 41.4454L85.0526 41.4684L85.0664 41.7749ZM85.5793 41.7518L85.593 42.0583L86.1059 42.0352L86.0922 41.7288L86.0784 41.4224L85.5655 41.4454L85.5793 41.7518ZM86.0922 41.7288L86.1059 42.0352C86.6628 42.0102 87.2196 41.9881 87.7764 41.9688L87.7658 41.6622L87.7552 41.3557C87.1962 41.375 86.6373 41.3973 86.0784 41.4224L86.0922 41.7288ZM87.7658 41.6622L87.7764 41.9688L88.2893 41.951L88.2787 41.6445L88.268 41.3379L87.7552 41.3557L87.7658 41.6622ZM88.2787 41.6445L88.2893 41.951L88.8022 41.9333L88.7915 41.6267L88.7809 41.3202L88.268 41.3379L88.2787 41.6445ZM88.7915 41.6267L88.8022 41.9333C89.3533 41.9142 89.9044 41.9133 90.4555 41.9307L90.4652 41.6241L90.4748 41.3175C89.9102 41.2997 89.3456 41.3006 88.7809 41.3202L88.7915 41.6267ZM90.4652 41.6241L90.4555 41.9307L90.9684 41.9469L90.9781 41.6403L90.9877 41.3337L90.4748 41.3175L90.4652 41.6241ZM90.9781 41.6403L90.9684 41.9469L91.4813 41.9631L91.4909 41.6565L91.5006 41.3499L90.9877 41.3337L90.9781 41.6403ZM91.4909 41.6565L91.4813 41.9631C92.0414 41.9808 92.4849 41.9854 92.8091 41.9763L92.8005 41.6697L92.7919 41.3631C92.4857 41.3716 92.0563 41.3674 91.5006 41.3499L91.4909 41.6565ZM92.8005 41.6697L92.8091 41.9763L93.0988 41.9682L93.0902 41.6616L93.0817 41.355L92.7919 41.3631L92.8005 41.6697ZM93.0902 41.6616L93.0988 41.9682L93.3885 41.9601L93.38 41.6535L93.3714 41.3469L93.0817 41.355L93.0902 41.6616ZM93.38 41.6535L93.3885 41.9601C93.5452 41.9558 93.6584 41.9542 93.7309 41.955C93.7684 41.9555 93.7881 41.9565 93.7952 41.9572C93.8011 41.9577 93.7894 41.9571 93.7707 41.9524C93.7638 41.9507 93.7339 41.9433 93.699 41.9234C93.6811 41.9132 93.6476 41.8918 93.616 41.8536C93.5816 41.812 93.546 41.7455 93.546 41.6591H93.8527H94.1595C94.1595 41.4814 94.0225 41.4016 94.0027 41.3904C93.9654 41.3691 93.9318 41.3604 93.92 41.3574C93.8914 41.3502 93.865 41.3475 93.8512 41.3462C93.8189 41.3433 93.7794 41.3421 93.7382 41.3416C93.6531 41.3406 93.5299 41.3424 93.3714 41.3469L93.38 41.6535ZM93.8527 41.6591H93.546V41.6707H93.8527H94.1595V41.6591H93.8527ZM93.8527 41.6707L93.7635 41.3772L93.6635 41.4076L93.7527 41.7011L93.8419 41.9946L93.9419 41.9642L93.8527 41.6707ZM93.7527 41.7011V42.0078H93.8527V41.7011V41.3943H93.7527V41.7011Z" fill="#BCBCBC"/>
<path d="M5.94737 48.5799C5.77796 48.5799 5.64062 48.7172 5.64062 48.8866C5.64062 49.056 5.77796 49.1934 5.94737 49.1934V48.8866V48.5799ZM6.04737 48.8866L6.06469 48.5804L6.05604 48.5799H6.04737V48.8866ZM22.9805 48.9548L22.9738 49.2615L22.9805 48.9548ZM24.0063 48.9773L23.9995 49.284L24.0063 48.9773ZM25.6799 49.0003L25.6782 49.307L25.6799 49.0003ZM26.7057 49.006L26.704 49.3127L26.7057 49.006ZM31.0787 48.9609L31.0635 48.6545L31.0787 48.9609ZM32.1044 48.91L32.0892 48.6036L32.1044 48.91ZM36.4774 48.9089L36.4598 49.2152L36.4774 48.9089ZM36.9903 48.9385L36.9726 49.2448L36.9903 48.9385ZM41.8762 49.0037L41.8783 48.697L41.8762 49.0037ZM42.3891 49.0072L42.387 49.314L42.3891 49.0072ZM44.5756 48.9414L44.5482 48.6359L44.5756 48.9414ZM45.0885 48.8955L45.1158 49.2011L45.0885 48.8955ZM45.6014 48.8496L45.574 48.5441L45.6014 48.8496ZM47.275 48.8395L47.2513 49.1453L47.275 48.8395ZM47.7879 48.8792L47.7642 49.1851L47.7879 48.8792ZM52.6738 48.937L52.669 48.6303L52.6738 48.937ZM55.3731 48.8674L55.3582 48.561L55.3731 48.8674ZM56.3989 48.8175L56.4138 49.1239L56.3989 48.8175ZM58.5854 48.8778L58.5625 49.1837L58.5854 48.8778ZM59.0983 48.9161L59.1212 48.6102L59.0983 48.9161ZM61.2848 48.9408L61.2762 48.6342L61.2848 48.9408ZM61.7977 48.9264L61.8063 49.233L61.7977 48.9264ZM64.4971 48.9135L64.4953 49.2202V49.2202L64.4971 48.9135ZM67.1965 48.8042L67.1777 48.498L67.1965 48.8042ZM76.9682 48.8185L76.9431 49.1242L76.9682 48.8185ZM77.994 48.9029L78.0192 48.5972L77.994 48.9029ZM80.1805 48.8733L80.2028 49.1792L80.1805 48.8733ZM80.6934 48.8359L80.6711 48.5299L80.6934 48.8359ZM83.3928 48.9288L83.3675 49.2345L83.3928 48.9288ZM85.0664 48.9604L85.0526 48.654L85.0664 48.9604ZM88.2787 48.83L88.2893 49.1366L88.2787 48.83ZM88.7915 48.8123L88.7809 48.5057L88.7915 48.8123ZM91.4909 48.8421L91.4813 49.1487L91.4909 48.8421ZM92.8005 48.8552L92.7919 48.5486L92.8005 48.8552ZM93.8527 48.8562L93.9419 49.1497L94.1595 49.0836V48.8562H93.8527ZM93.7527 48.8866L93.6635 48.5931L93.7527 49.1934V48.8866ZM93.8527 49.1934C94.0221 49.1934 94.1595 49.056 94.1595 48.8866C94.1595 48.7172 94.0221 48.5799 93.8527 48.5799V48.8866V49.1934ZM5.94737 48.8866V49.1934H6.04737V48.8866V48.5799H5.94737V48.8866ZM6.04737 48.8866L6.03006 49.1929L7.01782 49.2487L7.03514 48.9425L7.05246 48.6362L6.06469 48.5804L6.04737 48.8866ZM7.03514 48.9425L7.01782 49.2487C8.09431 49.3096 8.9199 49.3348 9.48983 49.3232L9.48357 49.0165L9.47731 48.7098C8.9315 48.721 8.12479 48.6968 7.05246 48.6362L7.03514 48.9425ZM9.48357 49.0165L9.48983 49.3232L10.0027 49.3127L9.99645 49.006L9.99019 48.6993L9.47731 48.7098L9.48357 49.0165ZM9.99645 49.006L10.0027 49.3127L10.5156 49.3022L10.5093 48.9955L10.5031 48.6889L9.99019 48.6993L9.99645 49.006ZM10.5093 48.9955L10.5156 49.3022C11.0792 49.2907 11.6428 49.2635 12.2063 49.2205L12.183 48.9146L12.1596 48.6087C11.6074 48.6509 11.0552 48.6776 10.5031 48.6889L10.5093 48.9955ZM12.183 48.9146L12.2063 49.2205L12.7192 49.1813L12.6958 48.8755L12.6725 48.5696L12.1596 48.6087L12.183 48.9146ZM12.6958 48.8755L12.7192 49.1813L13.2321 49.1422L13.2087 48.8363L13.1854 48.5305L12.6725 48.5696L12.6958 48.8755ZM13.2087 48.8363L13.2321 49.1422C13.7808 49.1003 14.3295 49.0831 14.8781 49.0907L14.8823 48.7839L14.8865 48.4772C14.3195 48.4694 13.7524 48.4872 13.1854 48.5305L13.2087 48.8363ZM14.8823 48.7839L14.8781 49.0907L15.391 49.0977L15.3952 48.791L15.3994 48.4842L14.8865 48.4772L14.8823 48.7839ZM15.3952 48.791L15.391 49.0977L15.9039 49.1047L15.9081 48.798L15.9123 48.4913L15.3994 48.4842L15.3952 48.791ZM15.9081 48.798L15.9039 49.1047C16.4647 49.1124 17.0255 49.1121 17.5863 49.1038L17.5817 48.7971L17.5772 48.4904C17.0222 48.4986 16.4673 48.4989 15.9123 48.4913L15.9081 48.798ZM17.5817 48.7971L17.5863 49.1038L18.0991 49.0962L18.0946 48.7895L18.0901 48.4828L17.5772 48.4904L17.5817 48.7971ZM18.0946 48.7895L18.0991 49.0962L18.612 49.0887L18.6075 48.7819L18.603 48.4752L18.0901 48.4828L18.0946 48.7895ZM18.6075 48.7819L18.612 49.0887C19.1621 49.0805 19.7121 49.0935 20.2622 49.1275L20.2811 48.8213L20.3 48.5151C19.7344 48.4802 19.1687 48.4669 18.603 48.4752L18.6075 48.7819ZM20.2811 48.8213L20.2622 49.1275L20.7751 49.1592L20.794 48.853L20.8129 48.5468L20.3 48.5151L20.2811 48.8213ZM20.794 48.853L20.7751 49.1592L21.288 49.1909L21.3069 48.8847L21.3258 48.5785L20.8129 48.5468L20.794 48.853ZM21.3069 48.8847L21.288 49.1909C21.8499 49.2256 22.4118 49.2491 22.9738 49.2615L22.9805 48.9548L22.9872 48.6481C22.4334 48.636 21.8796 48.6128 21.3258 48.5785L21.3069 48.8847ZM22.9805 48.9548L22.9738 49.2615L23.4867 49.2727L23.4934 48.9661L23.5001 48.6594L22.9872 48.6481L22.9805 48.9548ZM23.4934 48.9661L23.4867 49.2727L23.9995 49.284L24.0063 48.9773L24.013 48.6706L23.5001 48.6594L23.4934 48.9661ZM24.0063 48.9773L23.9995 49.284C24.5591 49.2963 25.1186 49.3039 25.6782 49.307L25.6799 49.0003L25.6816 48.6936C25.1254 48.6905 24.5692 48.6828 24.013 48.6706L24.0063 48.9773ZM25.6799 49.0003L25.6782 49.307L26.1911 49.3099L26.1928 49.0031L26.1945 48.6964L25.6816 48.6936L25.6799 49.0003ZM26.1928 49.0031L26.1911 49.3099L26.704 49.3127L26.7057 49.006L26.7074 48.6992L26.1945 48.6964L26.1928 49.0031ZM26.7057 49.006L26.704 49.3127C27.2627 49.3158 27.8215 49.3165 28.3802 49.3148L28.3793 49.0081L28.3783 48.7013C27.8213 48.703 27.2643 48.7023 26.7074 48.6992L26.7057 49.006ZM28.3793 49.0081L28.3802 49.3148L28.8931 49.3132L28.8922 49.0065L28.8912 48.6997L28.3783 48.7013L28.3793 49.0081ZM28.8922 49.0065L28.8931 49.3132L29.406 49.3117L29.405 49.0049L29.4041 48.6982L28.8912 48.6997L28.8922 49.0065ZM29.405 49.0049L29.406 49.3117C29.9686 49.31 30.5312 49.2952 31.0939 49.2673L31.0787 48.9609L31.0635 48.6545C30.5103 48.6819 29.9572 48.6965 29.4041 48.6982L29.405 49.0049ZM31.0787 48.9609L31.0939 49.2673L31.6067 49.2418L31.5915 48.9354L31.5764 48.6291L31.0635 48.6545L31.0787 48.9609ZM31.5915 48.9354L31.6067 49.2418L32.1196 49.2164L32.1044 48.91L32.0892 48.6036L31.5764 48.6291L31.5915 48.9354ZM32.1044 48.91L32.1196 49.2164C32.6727 49.1889 33.2258 49.1744 33.7789 49.1728L33.778 48.8661L33.7772 48.5593C33.2145 48.561 32.6519 48.5757 32.0892 48.6036L32.1044 48.91ZM33.778 48.8661L33.7789 49.1728L34.2918 49.1713L34.2909 48.8646L34.29 48.5578L33.7772 48.5593L33.778 48.8661ZM34.2909 48.8646L34.2918 49.1713L34.8047 49.1698L34.8038 48.8631L34.8029 48.5563L34.29 48.5578L34.2909 48.8646ZM34.8038 48.8631L34.8047 49.1698C35.3564 49.1682 35.9081 49.1833 36.4598 49.2152L36.4774 48.9089L36.4951 48.6027C35.9311 48.5702 35.367 48.5547 34.8029 48.5563L34.8038 48.8631ZM36.4774 48.9089L36.4598 49.2152L36.9726 49.2448L36.9903 48.9385L37.008 48.6323L36.4951 48.6027L36.4774 48.9089ZM36.9903 48.9385L36.9726 49.2448L37.4855 49.2744L37.5032 48.9682L37.5209 48.6619L37.008 48.6323L36.9903 48.9385ZM37.5032 48.9682L37.4855 49.2744C38.05 49.307 38.6144 49.3213 39.1789 49.3175L39.1768 49.0107L39.1747 48.704C38.6235 48.7078 38.0722 48.6937 37.5209 48.6619L37.5032 48.9682ZM39.1768 49.0107L39.1789 49.3175L39.6918 49.314L39.6897 49.0073L39.6876 48.7005L39.1747 48.704L39.1768 49.0107ZM39.6897 49.0073L39.6918 49.314L40.2047 49.3105L40.2026 49.0038L40.2005 48.697L39.6876 48.7005L39.6897 49.0073ZM40.2026 49.0038L40.2047 49.3105C40.7612 49.3067 41.3176 49.3067 41.8741 49.3105L41.8762 49.0037L41.8783 48.697C41.319 48.6932 40.7598 48.6932 40.2005 48.697L40.2026 49.0038ZM41.8762 49.0037L41.8741 49.3105L42.387 49.314L42.3891 49.0072L42.3912 48.7005L41.8783 48.697L41.8762 49.0037ZM42.3891 49.0072L42.387 49.314L42.8999 49.3174L42.902 49.0107L42.9041 48.704L42.3912 48.7005L42.3891 49.0072ZM42.902 49.0107L42.8999 49.3174C43.4676 49.3213 44.0353 49.2978 44.603 49.247L44.5756 48.9414L44.5482 48.6359C44.0001 48.685 43.4521 48.7077 42.9041 48.704L42.902 49.0107ZM44.5756 48.9414L44.603 49.247L45.1158 49.2011L45.0885 48.8955L45.0611 48.59L44.5482 48.6359L44.5756 48.9414ZM45.0885 48.8955L45.1158 49.2011L45.6287 49.1551L45.6014 48.8496L45.574 48.5441L45.0611 48.59L45.0885 48.8955ZM45.6014 48.8496L45.6287 49.1551C46.1696 49.1067 46.7104 49.1034 47.2513 49.1453L47.275 48.8395L47.2987 48.5337C46.7238 48.4891 46.1488 48.4926 45.574 48.5441L45.6014 48.8496ZM47.275 48.8395L47.2513 49.1453L47.7642 49.1851L47.7879 48.8792L47.8116 48.5734L47.2987 48.5337L47.275 48.8395ZM47.7879 48.8792L47.7642 49.1851L48.2771 49.2248L48.3007 48.919L48.3244 48.6131L47.8116 48.5734L47.7879 48.8792ZM48.3007 48.919L48.2771 49.2248C48.8441 49.2687 49.4111 49.2871 49.9782 49.28L49.9744 48.9733L49.9705 48.6666C49.4219 48.6735 48.8732 48.6556 48.3244 48.6131L48.3007 48.919ZM49.9744 48.9733L49.9782 49.28L50.4911 49.2736L50.4873 48.9669L50.4834 48.6602L49.9705 48.6666L49.9744 48.9733ZM50.4873 48.9669L50.4911 49.2736L51.004 49.2672L51.0001 48.9605L50.9963 48.6538L50.4834 48.6602L50.4873 48.9669ZM51.0001 48.9605L51.004 49.2672C51.5622 49.2603 52.1203 49.2524 52.6785 49.2437L52.6738 48.937L52.669 48.6303C52.1114 48.639 51.5539 48.6468 50.9963 48.6538L51.0001 48.9605ZM52.6738 48.937L52.6785 49.2437L53.1914 49.2358L53.1866 48.9291L53.1819 48.6224L52.669 48.6303L52.6738 48.937ZM53.1866 48.9291L53.1914 49.2358L53.7043 49.2278L53.6995 48.9211L53.6948 48.6144L53.1819 48.6224L53.1866 48.9291ZM53.6995 48.9211L53.7043 49.2278C54.2655 49.2191 54.8268 49.2011 55.388 49.1738L55.3731 48.8674L55.3582 48.561C54.8037 48.588 54.2492 48.6058 53.6948 48.6144L53.6995 48.9211ZM55.3731 48.8674L55.388 49.1738L55.9009 49.1488L55.886 48.8424L55.8711 48.5361L55.3582 48.561L55.3731 48.8674ZM55.886 48.8424L55.9009 49.1488L56.4138 49.1239L56.3989 48.8175L56.384 48.5111L55.8711 48.5361L55.886 48.8424ZM56.3989 48.8175L56.4138 49.1239C56.9591 49.0974 57.5043 49.1045 58.0496 49.1453L58.0725 48.8394L58.0954 48.5335C57.525 48.4908 56.9545 48.4834 56.384 48.5111L56.3989 48.8175ZM58.0725 48.8394L58.0496 49.1453L58.5625 49.1837L58.5854 48.8778L58.6083 48.5719L58.0954 48.5335L58.0725 48.8394ZM58.5854 48.8778L58.5625 49.1837L59.0754 49.222L59.0983 48.9161L59.1212 48.6102L58.6083 48.5719L58.5854 48.8778ZM59.0983 48.9161L59.0754 49.222C59.6437 49.2645 60.2121 49.2778 60.7805 49.2618L60.7719 48.9552L60.7633 48.6486C60.216 48.6639 59.6686 48.6512 59.1212 48.6102L59.0983 48.9161ZM60.7719 48.9552L60.7805 49.2618L61.2934 49.2474L61.2848 48.9408L61.2762 48.6342L60.7633 48.6486L60.7719 48.9552ZM61.2848 48.9408L61.2934 49.2474L61.8063 49.233L61.7977 48.9264L61.7891 48.6198L61.2762 48.6342L61.2848 48.9408ZM61.7977 48.9264L61.8063 49.233C62.3607 49.2174 62.9151 49.2112 63.4696 49.2144L63.4713 48.9076L63.473 48.6009C62.9117 48.5977 62.3504 48.604 61.7891 48.6198L61.7977 48.9264ZM63.4713 48.9076L63.4696 49.2144L63.9824 49.2173L63.9842 48.9106L63.9859 48.6038L63.473 48.6009L63.4713 48.9076ZM63.9842 48.9106L63.9824 49.2173L64.4953 49.2202L64.4971 48.9135L64.4988 48.6067L63.9859 48.6038L63.9842 48.9106ZM64.4971 48.9135L64.4953 49.2202C65.06 49.2235 65.6248 49.2078 66.1894 49.1732L66.1707 48.867L66.1519 48.5608C65.6009 48.5946 65.0498 48.6099 64.4988 48.6067L64.4971 48.9135ZM66.1707 48.867L66.1894 49.1732L66.7023 49.1418L66.6836 48.8356L66.6648 48.5294L66.1519 48.5608L66.1707 48.867ZM66.6836 48.8356L66.7023 49.1418L67.2152 49.1103L67.1965 48.8042L67.1777 48.498L66.6648 48.5294L66.6836 48.8356ZM67.1965 48.8042L67.2152 49.1103C67.763 49.0768 68.3108 49.0703 68.8586 49.0908L68.8701 48.7843L68.8816 48.4777C68.3136 48.4565 67.7456 48.4632 67.1777 48.498L67.1965 48.8042ZM68.8701 48.7843L68.8586 49.0908L69.3715 49.11L69.383 48.8035L69.3944 48.497L68.8816 48.4777L68.8701 48.7843ZM69.383 48.8035L69.3715 49.11L69.8843 49.1293L69.8958 48.8227L69.9073 48.5162L69.3944 48.497L69.383 48.8035ZM69.8958 48.8227L69.8843 49.1293C70.4502 49.1505 71.016 49.1497 71.5818 49.1269L71.5695 48.8204L71.5571 48.5139C71.0072 48.536 70.4573 48.5368 69.9073 48.5162L69.8958 48.8227ZM71.5695 48.8204L71.5818 49.1269L72.0947 49.1062L72.0823 48.7997L72.07 48.4932L71.5571 48.5139L71.5695 48.8204ZM72.0823 48.7997L72.0947 49.1062L72.6076 49.0856L72.5952 48.7791L72.5829 48.4726L72.07 48.4932L72.0823 48.7997ZM72.5952 48.7791L72.6076 49.0856C73.1612 49.0633 73.7148 49.0525 74.2684 49.0534L74.2688 48.7467L74.2693 48.4399C73.7072 48.439 73.145 48.4499 72.5829 48.4726L72.5952 48.7791ZM74.2688 48.7467L74.2684 49.0534L74.7812 49.0542L74.7817 48.7475L74.7822 48.4407L74.2693 48.4399L74.2688 48.7467ZM74.7817 48.7475L74.7812 49.0542L75.2941 49.055L75.2946 48.7483L75.2951 48.4415L74.7822 48.4407L74.7817 48.7475ZM75.2946 48.7483L75.2941 49.055C75.8437 49.0559 76.3934 49.079 76.9431 49.1242L76.9682 48.8185L76.9934 48.5128C76.4273 48.4662 75.8612 48.4424 75.2951 48.4415L75.2946 48.7483ZM76.9682 48.8185L76.9431 49.1242L77.4559 49.1664L77.4811 48.8607L77.5063 48.555L76.9934 48.5128L76.9682 48.8185ZM77.4811 48.8607L77.4559 49.1664L77.9688 49.2086L77.994 48.9029L78.0192 48.5972L77.5063 48.555L77.4811 48.8607ZM77.994 48.9029L77.9688 49.2086C78.5425 49.2559 79.1163 49.2585 79.69 49.2167L79.6676 48.9107L79.6453 48.6048C79.1032 48.6444 78.5612 48.6418 78.0192 48.5972L77.994 48.9029ZM79.6676 48.9107L79.69 49.2167L80.2028 49.1792L80.1805 48.8733L80.1582 48.5674L79.6453 48.6048L79.6676 48.9107ZM80.1805 48.8733L80.2028 49.1792L80.7157 49.1418L80.6934 48.8359L80.6711 48.5299L80.1582 48.5674L80.1805 48.8733ZM80.6934 48.8359L80.7157 49.1418C81.2577 49.1022 81.7997 49.1049 82.3417 49.1497L82.367 48.844L82.3923 48.5383C81.8186 48.4908 81.2448 48.488 80.6711 48.5299L80.6934 48.8359ZM82.367 48.844L82.3417 49.1497L82.8546 49.1921L82.8799 48.8864L82.9052 48.5807L82.3923 48.5383L82.367 48.844ZM82.8799 48.8864L82.8546 49.1921L83.3675 49.2345L83.3928 48.9288L83.4181 48.6231L82.9052 48.5807L82.8799 48.8864ZM83.3928 48.9288L83.3675 49.2345C83.9383 49.2817 84.5092 49.2925 85.0802 49.2669L85.0664 48.9604L85.0526 48.654C84.5078 48.6785 83.963 48.6682 83.4181 48.6231L83.3928 48.9288ZM85.0664 48.9604L85.0802 49.2669L85.593 49.2438L85.5793 48.9374L85.5655 48.631L85.0526 48.654L85.0664 48.9604ZM85.5793 48.9374L85.593 49.2438L86.1059 49.2208L86.0922 48.9144L86.0784 48.6079L85.5655 48.631L85.5793 48.9374ZM86.0922 48.9144L86.1059 49.2208C86.6628 49.1958 87.2196 49.1736 87.7764 49.1544L87.7658 48.8478L87.7552 48.5412C87.1962 48.5606 86.6373 48.5828 86.0784 48.6079L86.0922 48.9144ZM87.7658 48.8478L87.7764 49.1544L88.2893 49.1366L88.2787 48.83L88.268 48.5235L87.7552 48.5412L87.7658 48.8478ZM88.2787 48.83L88.2893 49.1366L88.8022 49.1188L88.7915 48.8123L88.7809 48.5057L88.268 48.5235L88.2787 48.83ZM88.7915 48.8123L88.8022 49.1188C89.3533 49.0997 89.9044 49.0989 90.4555 49.1163L90.4652 48.8097L90.4748 48.5031C89.9102 48.4853 89.3456 48.4861 88.7809 48.5057L88.7915 48.8123ZM90.4652 48.8097L90.4555 49.1163L90.9684 49.1325L90.9781 48.8259L90.9877 48.5193L90.4748 48.5031L90.4652 48.8097ZM90.9781 48.8259L90.9684 49.1325L91.4813 49.1487L91.4909 48.8421L91.5006 48.5355L90.9877 48.5193L90.9781 48.8259ZM91.4909 48.8421L91.4813 49.1487C92.0414 49.1663 92.4849 49.1709 92.8091 49.1619L92.8005 48.8552L92.7919 48.5486C92.4857 48.5572 92.0563 48.553 91.5006 48.5355L91.4909 48.8421ZM92.8005 48.8552L92.8091 49.1619L93.0988 49.1538L93.0902 48.8472L93.0817 48.5405L92.7919 48.5486L92.8005 48.8552ZM93.0902 48.8472L93.0988 49.1538L93.3885 49.1457L93.38 48.8391L93.3714 48.5324L93.0817 48.5405L93.0902 48.8472ZM93.38 48.8391L93.3885 49.1457C93.5452 49.1413 93.6584 49.1397 93.7309 49.1406C93.7684 49.141 93.7881 49.1421 93.7952 49.1427C93.8011 49.1433 93.7894 49.1427 93.7707 49.138C93.7638 49.1363 93.7339 49.1289 93.699 49.109C93.6811 49.0988 93.6476 49.0774 93.616 49.0392C93.5816 48.9976 93.546 48.931 93.546 48.8447H93.8527H94.1595C94.1595 48.6669 94.0225 48.5872 94.0027 48.5759C93.9654 48.5546 93.9318 48.5459 93.92 48.543C93.8914 48.5358 93.865 48.5331 93.8512 48.5318C93.8189 48.5288 93.7794 48.5276 93.7382 48.5271C93.6531 48.5261 93.5299 48.528 93.3714 48.5324L93.38 48.8391ZM93.8527 48.8447H93.546V48.8562H93.8527H94.1595V48.8447H93.8527ZM93.8527 48.8562L93.7635 48.5627L93.6635 48.5931L93.7527 48.8866L93.8419 49.1801L93.9419 49.1497L93.8527 48.8562ZM93.7527 48.8866V49.1934H93.8527V48.8866V48.5799H93.7527V48.8866Z" fill="#BCBCBC"/>
<path d="M5.94737 55.7674C5.77796 55.7674 5.64062 55.9047 5.64062 56.0741C5.64062 56.2435 5.77796 56.3809 5.94737 56.3809V56.0741V55.7674ZM6.04737 56.0741L6.06469 55.7679L6.05604 55.7674H6.04737V56.0741ZM22.9805 56.1423L22.9738 56.449L22.9805 56.1423ZM24.0063 56.1648L23.9995 56.4715L24.0063 56.1648ZM25.6799 56.1878L25.6782 56.4945L25.6799 56.1878ZM26.7057 56.1935L26.704 56.5002L26.7057 56.1935ZM31.0787 56.1484L31.0635 55.842L31.0787 56.1484ZM32.1044 56.0975L32.0892 55.7911L32.1044 56.0975ZM36.4774 56.0964L36.4598 56.4027L36.4774 56.0964ZM36.9903 56.126L36.9726 56.4323L36.9903 56.126ZM41.8762 56.1912L41.8783 55.8845L41.8762 56.1912ZM42.3891 56.1947L42.387 56.5015L42.3891 56.1947ZM44.5756 56.1289L44.5482 55.8234L44.5756 56.1289ZM45.0885 56.083L45.1158 56.3886L45.0885 56.083ZM45.6014 56.0371L45.574 55.7316L45.6014 56.0371ZM47.275 56.027L47.2513 56.3328L47.275 56.027ZM47.7879 56.0667L47.7642 56.3726L47.7879 56.0667ZM52.6738 56.1245L52.669 55.8178L52.6738 56.1245ZM55.3731 56.0549L55.3582 55.7485L55.3731 56.0549ZM56.3989 56.005L56.4138 56.3114L56.3989 56.005ZM58.5854 56.0653L58.5625 56.3712L58.5854 56.0653ZM59.0983 56.1036L59.1212 55.7977L59.0983 56.1036ZM61.2848 56.1283L61.2762 55.8217L61.2848 56.1283ZM61.7977 56.1139L61.8063 56.4205L61.7977 56.1139ZM64.4971 56.101L64.4953 56.4077V56.4077L64.4971 56.101ZM67.1965 55.9917L67.1777 55.6855L67.1965 55.9917ZM76.9682 56.006L76.9431 56.3117L76.9682 56.006ZM77.994 56.0904L78.0192 55.7847L77.994 56.0904ZM80.1805 56.0608L80.2028 56.3667L80.1805 56.0608ZM80.6934 56.0234L80.6711 55.7174L80.6934 56.0234ZM83.3928 56.1163L83.3675 56.422L83.3928 56.1163ZM85.0664 56.1479L85.0526 55.8415L85.0664 56.1479ZM88.2787 56.0175L88.2893 56.3241L88.2787 56.0175ZM88.7915 55.9998L88.7809 55.6932L88.7915 55.9998ZM91.4909 56.0296L91.4813 56.3362L91.4909 56.0296ZM92.8005 56.0427L92.7919 55.7361L92.8005 56.0427ZM93.8527 56.0437L93.9419 56.3372L94.1595 56.2711V56.0437H93.8527ZM93.7527 56.0741L93.6635 55.7806L93.7527 56.3809V56.0741ZM93.8527 56.3809C94.0221 56.3809 94.1595 56.2435 94.1595 56.0741C94.1595 55.9047 94.0221 55.7674 93.8527 55.7674V56.0741V56.3809ZM5.94737 56.0741V56.3809H6.04737V56.0741V55.7674H5.94737V56.0741ZM6.04737 56.0741L6.03006 56.3804L7.01782 56.4362L7.03514 56.13L7.05246 55.8237L6.06469 55.7679L6.04737 56.0741ZM7.03514 56.13L7.01782 56.4362C8.09431 56.4971 8.9199 56.5223 9.48983 56.5107L9.48357 56.204L9.47731 55.8973C8.9315 55.9085 8.12479 55.8843 7.05246 55.8237L7.03514 56.13ZM9.48357 56.204L9.48983 56.5107L10.0027 56.5002L9.99645 56.1935L9.99019 55.8868L9.47731 55.8973L9.48357 56.204ZM9.99645 56.1935L10.0027 56.5002L10.5156 56.4897L10.5093 56.183L10.5031 55.8764L9.99019 55.8868L9.99645 56.1935ZM10.5093 56.183L10.5156 56.4897C11.0792 56.4782 11.6428 56.451 12.2063 56.408L12.183 56.1021L12.1596 55.7962C11.6074 55.8384 11.0552 55.8651 10.5031 55.8764L10.5093 56.183ZM12.183 56.1021L12.2063 56.408L12.7192 56.3688L12.6958 56.063L12.6725 55.7571L12.1596 55.7962L12.183 56.1021ZM12.6958 56.063L12.7192 56.3688L13.2321 56.3297L13.2087 56.0238L13.1854 55.718L12.6725 55.7571L12.6958 56.063ZM13.2087 56.0238L13.2321 56.3297C13.7808 56.2878 14.3295 56.2706 14.8781 56.2782L14.8823 55.9714L14.8865 55.6647C14.3195 55.6569 13.7524 55.6747 13.1854 55.718L13.2087 56.0238ZM14.8823 55.9714L14.8781 56.2782L15.391 56.2852L15.3952 55.9785L15.3994 55.6717L14.8865 55.6647L14.8823 55.9714ZM15.3952 55.9785L15.391 56.2852L15.9039 56.2922L15.9081 55.9855L15.9123 55.6788L15.3994 55.6717L15.3952 55.9785ZM15.9081 55.9855L15.9039 56.2922C16.4647 56.2999 17.0255 56.2996 17.5863 56.2913L17.5817 55.9846L17.5772 55.6779C17.0222 55.6861 16.4673 55.6864 15.9123 55.6788L15.9081 55.9855ZM17.5817 55.9846L17.5863 56.2913L18.0991 56.2837L18.0946 55.977L18.0901 55.6703L17.5772 55.6779L17.5817 55.9846ZM18.0946 55.977L18.0991 56.2837L18.612 56.2762L18.6075 55.9694L18.603 55.6627L18.0901 55.6703L18.0946 55.977ZM18.6075 55.9694L18.612 56.2762C19.1621 56.268 19.7121 56.281 20.2622 56.315L20.2811 56.0088L20.3 55.7026C19.7344 55.6677 19.1687 55.6544 18.603 55.6627L18.6075 55.9694ZM20.2811 56.0088L20.2622 56.315L20.7751 56.3467L20.794 56.0405L20.8129 55.7343L20.3 55.7026L20.2811 56.0088ZM20.794 56.0405L20.7751 56.3467L21.288 56.3784L21.3069 56.0722L21.3258 55.766L20.8129 55.7343L20.794 56.0405ZM21.3069 56.0722L21.288 56.3784C21.8499 56.4131 22.4118 56.4366 22.9738 56.449L22.9805 56.1423L22.9872 55.8356C22.4334 55.8235 21.8796 55.8003 21.3258 55.766L21.3069 56.0722ZM22.9805 56.1423L22.9738 56.449L23.4867 56.4602L23.4934 56.1536L23.5001 55.8469L22.9872 55.8356L22.9805 56.1423ZM23.4934 56.1536L23.4867 56.4602L23.9995 56.4715L24.0063 56.1648L24.013 55.8581L23.5001 55.8469L23.4934 56.1536ZM24.0063 56.1648L23.9995 56.4715C24.5591 56.4838 25.1186 56.4914 25.6782 56.4945L25.6799 56.1878L25.6816 55.8811C25.1254 55.878 24.5692 55.8703 24.013 55.8581L24.0063 56.1648ZM25.6799 56.1878L25.6782 56.4945L26.1911 56.4974L26.1928 56.1906L26.1945 55.8839L25.6816 55.8811L25.6799 56.1878ZM26.1928 56.1906L26.1911 56.4974L26.704 56.5002L26.7057 56.1935L26.7074 55.8867L26.1945 55.8839L26.1928 56.1906ZM26.7057 56.1935L26.704 56.5002C27.2627 56.5033 27.8215 56.504 28.3802 56.5023L28.3793 56.1956L28.3783 55.8888C27.8213 55.8905 27.2643 55.8898 26.7074 55.8867L26.7057 56.1935ZM28.3793 56.1956L28.3802 56.5023L28.8931 56.5007L28.8922 56.194L28.8912 55.8872L28.3783 55.8888L28.3793 56.1956ZM28.8922 56.194L28.8931 56.5007L29.406 56.4992L29.405 56.1924L29.4041 55.8857L28.8912 55.8872L28.8922 56.194ZM29.405 56.1924L29.406 56.4992C29.9686 56.4975 30.5312 56.4827 31.0939 56.4548L31.0787 56.1484L31.0635 55.842C30.5103 55.8694 29.9572 55.884 29.4041 55.8857L29.405 56.1924ZM31.0787 56.1484L31.0939 56.4548L31.6067 56.4293L31.5915 56.1229L31.5764 55.8166L31.0635 55.842L31.0787 56.1484ZM31.5915 56.1229L31.6067 56.4293L32.1196 56.4039L32.1044 56.0975L32.0892 55.7911L31.5764 55.8166L31.5915 56.1229ZM32.1044 56.0975L32.1196 56.4039C32.6727 56.3764 33.2258 56.3619 33.7789 56.3603L33.778 56.0536L33.7772 55.7468C33.2145 55.7485 32.6519 55.7632 32.0892 55.7911L32.1044 56.0975ZM33.778 56.0536L33.7789 56.3603L34.2918 56.3588L34.2909 56.0521L34.29 55.7453L33.7772 55.7468L33.778 56.0536ZM34.2909 56.0521L34.2918 56.3588L34.8047 56.3573L34.8038 56.0506L34.8029 55.7438L34.29 55.7453L34.2909 56.0521ZM34.8038 56.0506L34.8047 56.3573C35.3564 56.3557 35.9081 56.3708 36.4598 56.4027L36.4774 56.0964L36.4951 55.7902C35.9311 55.7577 35.367 55.7422 34.8029 55.7438L34.8038 56.0506ZM36.4774 56.0964L36.4598 56.4027L36.9726 56.4323L36.9903 56.126L37.008 55.8198L36.4951 55.7902L36.4774 56.0964ZM36.9903 56.126L36.9726 56.4323L37.4855 56.4619L37.5032 56.1557L37.5209 55.8494L37.008 55.8198L36.9903 56.126ZM37.5032 56.1557L37.4855 56.4619C38.05 56.4945 38.6144 56.5088 39.1789 56.505L39.1768 56.1982L39.1747 55.8915C38.6235 55.8953 38.0722 55.8812 37.5209 55.8494L37.5032 56.1557ZM39.1768 56.1982L39.1789 56.505L39.6918 56.5015L39.6897 56.1948L39.6876 55.888L39.1747 55.8915L39.1768 56.1982ZM39.6897 56.1948L39.6918 56.5015L40.2047 56.498L40.2026 56.1913L40.2005 55.8845L39.6876 55.888L39.6897 56.1948ZM40.2026 56.1913L40.2047 56.498C40.7612 56.4942 41.3176 56.4942 41.8741 56.498L41.8762 56.1912L41.8783 55.8845C41.319 55.8807 40.7598 55.8807 40.2005 55.8845L40.2026 56.1913ZM41.8762 56.1912L41.8741 56.498L42.387 56.5015L42.3891 56.1947L42.3912 55.888L41.8783 55.8845L41.8762 56.1912ZM42.3891 56.1947L42.387 56.5015L42.8999 56.5049L42.902 56.1982L42.9041 55.8915L42.3912 55.888L42.3891 56.1947ZM42.902 56.1982L42.8999 56.5049C43.4676 56.5088 44.0353 56.4853 44.603 56.4345L44.5756 56.1289L44.5482 55.8234C44.0001 55.8725 43.4521 55.8952 42.9041 55.8915L42.902 56.1982ZM44.5756 56.1289L44.603 56.4345L45.1158 56.3886L45.0885 56.083L45.0611 55.7775L44.5482 55.8234L44.5756 56.1289ZM45.0885 56.083L45.1158 56.3886L45.6287 56.3426L45.6014 56.0371L45.574 55.7316L45.0611 55.7775L45.0885 56.083ZM45.6014 56.0371L45.6287 56.3426C46.1696 56.2942 46.7104 56.2909 47.2513 56.3328L47.275 56.027L47.2987 55.7212C46.7238 55.6766 46.1488 55.6801 45.574 55.7316L45.6014 56.0371ZM47.275 56.027L47.2513 56.3328L47.7642 56.3726L47.7879 56.0667L47.8116 55.7609L47.2987 55.7212L47.275 56.027ZM47.7879 56.0667L47.7642 56.3726L48.2771 56.4123L48.3007 56.1065L48.3244 55.8006L47.8116 55.7609L47.7879 56.0667ZM48.3007 56.1065L48.2771 56.4123C48.8441 56.4562 49.4111 56.4746 49.9782 56.4675L49.9744 56.1608L49.9705 55.8541C49.4219 55.861 48.8732 55.8431 48.3244 55.8006L48.3007 56.1065ZM49.9744 56.1608L49.9782 56.4675L50.4911 56.4611L50.4873 56.1544L50.4834 55.8477L49.9705 55.8541L49.9744 56.1608ZM50.4873 56.1544L50.4911 56.4611L51.004 56.4547L51.0001 56.148L50.9963 55.8413L50.4834 55.8477L50.4873 56.1544ZM51.0001 56.148L51.004 56.4547C51.5622 56.4478 52.1203 56.4399 52.6785 56.4312L52.6738 56.1245L52.669 55.8178C52.1114 55.8265 51.5539 55.8343 50.9963 55.8413L51.0001 56.148ZM52.6738 56.1245L52.6785 56.4312L53.1914 56.4233L53.1866 56.1166L53.1819 55.8099L52.669 55.8178L52.6738 56.1245ZM53.1866 56.1166L53.1914 56.4233L53.7043 56.4153L53.6995 56.1086L53.6948 55.8019L53.1819 55.8099L53.1866 56.1166ZM53.6995 56.1086L53.7043 56.4153C54.2655 56.4066 54.8268 56.3886 55.388 56.3613L55.3731 56.0549L55.3582 55.7485C54.8037 55.7755 54.2492 55.7933 53.6948 55.8019L53.6995 56.1086ZM55.3731 56.0549L55.388 56.3613L55.9009 56.3363L55.886 56.0299L55.8711 55.7236L55.3582 55.7485L55.3731 56.0549ZM55.886 56.0299L55.9009 56.3363L56.4138 56.3114L56.3989 56.005L56.384 55.6986L55.8711 55.7236L55.886 56.0299ZM56.3989 56.005L56.4138 56.3114C56.9591 56.2849 57.5043 56.292 58.0496 56.3328L58.0725 56.0269L58.0954 55.721C57.525 55.6783 56.9545 55.6709 56.384 55.6986L56.3989 56.005ZM58.0725 56.0269L58.0496 56.3328L58.5625 56.3712L58.5854 56.0653L58.6083 55.7594L58.0954 55.721L58.0725 56.0269ZM58.5854 56.0653L58.5625 56.3712L59.0754 56.4095L59.0983 56.1036L59.1212 55.7977L58.6083 55.7594L58.5854 56.0653ZM59.0983 56.1036L59.0754 56.4095C59.6437 56.452 60.2121 56.4653 60.7805 56.4493L60.7719 56.1427L60.7633 55.8361C60.216 55.8514 59.6686 55.8387 59.1212 55.7977L59.0983 56.1036ZM60.7719 56.1427L60.7805 56.4493L61.2934 56.4349L61.2848 56.1283L61.2762 55.8217L60.7633 55.8361L60.7719 56.1427ZM61.2848 56.1283L61.2934 56.4349L61.8063 56.4205L61.7977 56.1139L61.7891 55.8073L61.2762 55.8217L61.2848 56.1283ZM61.7977 56.1139L61.8063 56.4205C62.3607 56.4049 62.9151 56.3987 63.4696 56.4019L63.4713 56.0951L63.473 55.7884C62.9117 55.7852 62.3504 55.7915 61.7891 55.8073L61.7977 56.1139ZM63.4713 56.0951L63.4696 56.4019L63.9824 56.4048L63.9842 56.0981L63.9859 55.7913L63.473 55.7884L63.4713 56.0951ZM63.9842 56.0981L63.9824 56.4048L64.4953 56.4077L64.4971 56.101L64.4988 55.7942L63.9859 55.7913L63.9842 56.0981ZM64.4971 56.101L64.4953 56.4077C65.06 56.411 65.6248 56.3953 66.1894 56.3607L66.1707 56.0545L66.1519 55.7483C65.6009 55.7821 65.0498 55.7974 64.4988 55.7942L64.4971 56.101ZM66.1707 56.0545L66.1894 56.3607L66.7023 56.3293L66.6836 56.0231L66.6648 55.7169L66.1519 55.7483L66.1707 56.0545ZM66.6836 56.0231L66.7023 56.3293L67.2152 56.2978L67.1965 55.9917L67.1777 55.6855L66.6648 55.7169L66.6836 56.0231ZM67.1965 55.9917L67.2152 56.2978C67.763 56.2643 68.3108 56.2578 68.8586 56.2783L68.8701 55.9718L68.8816 55.6652C68.3136 55.644 67.7456 55.6507 67.1777 55.6855L67.1965 55.9917ZM68.8701 55.9718L68.8586 56.2783L69.3715 56.2975L69.383 55.991L69.3944 55.6845L68.8816 55.6652L68.8701 55.9718ZM69.383 55.991L69.3715 56.2975L69.8843 56.3168L69.8958 56.0102L69.9073 55.7037L69.3944 55.6845L69.383 55.991ZM69.8958 56.0102L69.8843 56.3168C70.4502 56.338 71.016 56.3372 71.5818 56.3144L71.5695 56.0079L71.5571 55.7014C71.0072 55.7235 70.4573 55.7243 69.9073 55.7037L69.8958 56.0102ZM71.5695 56.0079L71.5818 56.3144L72.0947 56.2937L72.0823 55.9872L72.07 55.6807L71.5571 55.7014L71.5695 56.0079ZM72.0823 55.9872L72.0947 56.2937L72.6076 56.2731L72.5952 55.9666L72.5829 55.6601L72.07 55.6807L72.0823 55.9872ZM72.5952 55.9666L72.6076 56.2731C73.1612 56.2508 73.7148 56.24 74.2684 56.2409L74.2688 55.9342L74.2693 55.6274C73.7072 55.6265 73.145 55.6374 72.5829 55.6601L72.5952 55.9666ZM74.2688 55.9342L74.2684 56.2409L74.7812 56.2417L74.7817 55.935L74.7822 55.6282L74.2693 55.6274L74.2688 55.9342ZM74.7817 55.935L74.7812 56.2417L75.2941 56.2425L75.2946 55.9358L75.2951 55.629L74.7822 55.6282L74.7817 55.935ZM75.2946 55.9358L75.2941 56.2425C75.8437 56.2434 76.3934 56.2665 76.9431 56.3117L76.9682 56.006L76.9934 55.7003C76.4273 55.6537 75.8612 55.6299 75.2951 55.629L75.2946 55.9358ZM76.9682 56.006L76.9431 56.3117L77.4559 56.3539L77.4811 56.0482L77.5063 55.7425L76.9934 55.7003L76.9682 56.006ZM77.4811 56.0482L77.4559 56.3539L77.9688 56.3961L77.994 56.0904L78.0192 55.7847L77.5063 55.7425L77.4811 56.0482ZM77.994 56.0904L77.9688 56.3961C78.5425 56.4434 79.1163 56.446 79.69 56.4042L79.6676 56.0982L79.6453 55.7923C79.1032 55.8319 78.5612 55.8293 78.0192 55.7847L77.994 56.0904ZM79.6676 56.0982L79.69 56.4042L80.2028 56.3667L80.1805 56.0608L80.1582 55.7549L79.6453 55.7923L79.6676 56.0982ZM80.1805 56.0608L80.2028 56.3667L80.7157 56.3293L80.6934 56.0234L80.6711 55.7174L80.1582 55.7549L80.1805 56.0608ZM80.6934 56.0234L80.7157 56.3293C81.2577 56.2897 81.7997 56.2924 82.3417 56.3372L82.367 56.0315L82.3923 55.7258C81.8186 55.6783 81.2448 55.6755 80.6711 55.7174L80.6934 56.0234ZM82.367 56.0315L82.3417 56.3372L82.8546 56.3796L82.8799 56.0739L82.9052 55.7682L82.3923 55.7258L82.367 56.0315ZM82.8799 56.0739L82.8546 56.3796L83.3675 56.422L83.3928 56.1163L83.4181 55.8106L82.9052 55.7682L82.8799 56.0739ZM83.3928 56.1163L83.3675 56.422C83.9383 56.4692 84.5092 56.48 85.0802 56.4544L85.0664 56.1479L85.0526 55.8415C84.5078 55.866 83.963 55.8557 83.4181 55.8106L83.3928 56.1163ZM85.0664 56.1479L85.0802 56.4544L85.593 56.4313L85.5793 56.1249L85.5655 55.8185L85.0526 55.8415L85.0664 56.1479ZM85.5793 56.1249L85.593 56.4313L86.1059 56.4083L86.0922 56.1019L86.0784 55.7954L85.5655 55.8185L85.5793 56.1249ZM86.0922 56.1019L86.1059 56.4083C86.6628 56.3833 87.2196 56.3611 87.7764 56.3419L87.7658 56.0353L87.7552 55.7287C87.1962 55.7481 86.6373 55.7703 86.0784 55.7954L86.0922 56.1019ZM87.7658 56.0353L87.7764 56.3419L88.2893 56.3241L88.2787 56.0175L88.268 55.711L87.7552 55.7287L87.7658 56.0353ZM88.2787 56.0175L88.2893 56.3241L88.8022 56.3063L88.7915 55.9998L88.7809 55.6932L88.268 55.711L88.2787 56.0175ZM88.7915 55.9998L88.8022 56.3063C89.3533 56.2872 89.9044 56.2864 90.4555 56.3038L90.4652 55.9972L90.4748 55.6906C89.9102 55.6728 89.3456 55.6736 88.7809 55.6932L88.7915 55.9998ZM90.4652 55.9972L90.4555 56.3038L90.9684 56.32L90.9781 56.0134L90.9877 55.7068L90.4748 55.6906L90.4652 55.9972ZM90.9781 56.0134L90.9684 56.32L91.4813 56.3362L91.4909 56.0296L91.5006 55.723L90.9877 55.7068L90.9781 56.0134ZM91.4909 56.0296L91.4813 56.3362C92.0414 56.3538 92.4849 56.3584 92.8091 56.3494L92.8005 56.0427L92.7919 55.7361C92.4857 55.7447 92.0563 55.7405 91.5006 55.723L91.4909 56.0296ZM92.8005 56.0427L92.8091 56.3494L93.0988 56.3413L93.0902 56.0347L93.0817 55.728L92.7919 55.7361L92.8005 56.0427ZM93.0902 56.0347L93.0988 56.3413L93.3885 56.3332L93.38 56.0266L93.3714 55.7199L93.0817 55.728L93.0902 56.0347ZM93.38 56.0266L93.3885 56.3332C93.5452 56.3288 93.6584 56.3272 93.7309 56.3281C93.7684 56.3285 93.7881 56.3296 93.7952 56.3302C93.8011 56.3308 93.7894 56.3302 93.7707 56.3255C93.7638 56.3238 93.7339 56.3164 93.699 56.2965C93.6811 56.2863 93.6476 56.2649 93.616 56.2267C93.5816 56.1851 93.546 56.1185 93.546 56.0322H93.8527H94.1595C94.1595 55.8544 94.0225 55.7747 94.0027 55.7634C93.9654 55.7421 93.9318 55.7334 93.92 55.7305C93.8914 55.7233 93.865 55.7206 93.8512 55.7193C93.8189 55.7163 93.7794 55.7151 93.7382 55.7146C93.6531 55.7136 93.5299 55.7155 93.3714 55.7199L93.38 56.0266ZM93.8527 56.0322H93.546V56.0437H93.8527H94.1595V56.0322H93.8527ZM93.8527 56.0437L93.7635 55.7502L93.6635 55.7806L93.7527 56.0741L93.8419 56.3676L93.9419 56.3372L93.8527 56.0437ZM93.7527 56.0741V56.3809H93.8527V56.0741V55.7674H93.7527V56.0741Z" fill="#BCBCBC"/>
<path d="M5.94737 62.9529C5.77796 62.9529 5.64062 63.0902 5.64062 63.2597C5.64062 63.4291 5.77796 63.5664 5.94737 63.5664V63.2597V62.9529ZM6.04737 63.2597L6.06469 62.9534L6.05604 62.9529H6.04737V63.2597ZM22.9805 63.3278L22.9738 63.6345L22.9805 63.3278ZM24.0063 63.3504L23.9995 63.657L24.0063 63.3504ZM25.6799 63.3733L25.6782 63.6801L25.6799 63.3733ZM26.7057 63.379L26.704 63.6858L26.7057 63.379ZM31.0787 63.3339L31.0635 63.0276L31.0787 63.3339ZM32.1044 63.2831L32.0892 62.9767L32.1044 63.2831ZM36.4774 63.282L36.4598 63.5882L36.4774 63.282ZM36.9903 63.3116L36.9726 63.6178L36.9903 63.3116ZM41.8762 63.3768L41.8783 63.07L41.8762 63.3768ZM42.3891 63.3803L42.387 63.687L42.3891 63.3803ZM44.5756 63.3145L44.5482 63.009L44.5756 63.3145ZM45.0885 63.2686L45.1158 63.5741L45.0885 63.2686ZM45.6014 63.2227L45.574 62.9171L45.6014 63.2227ZM47.275 63.2125L47.2513 63.5184L47.275 63.2125ZM47.7879 63.2523L47.7642 63.5581L47.7879 63.2523ZM52.6738 63.3101L52.669 63.0034L52.6738 63.3101ZM55.3731 63.2404L55.3582 62.934L55.3731 63.2404ZM56.3989 63.1906L56.4138 63.4969L56.3989 63.1906ZM58.5854 63.2508L58.5625 63.5567L58.5854 63.2508ZM59.0983 63.2892L59.1212 62.9833L59.0983 63.2892ZM61.2848 63.3138L61.2762 63.0072L61.2848 63.3138ZM61.7977 63.2994L61.8063 63.6061L61.7977 63.2994ZM64.4971 63.2865L64.4953 63.5933V63.5933L64.4971 63.2865ZM67.1965 63.1772L67.1777 62.871L67.1965 63.1772ZM76.9682 63.1915L76.9431 63.4973L76.9682 63.1915ZM77.994 63.276L78.0192 62.9703L77.994 63.276ZM80.1805 63.2463L80.2028 63.5523L80.1805 63.2463ZM80.6934 63.2089L80.6711 62.903L80.6934 63.2089ZM83.3928 63.3019L83.3675 63.6076L83.3928 63.3019ZM85.0664 63.3335L85.0526 63.027L85.0664 63.3335ZM88.2787 63.2031L88.2893 63.5096L88.2787 63.2031ZM88.7915 63.1853L88.7809 62.8787L88.7915 63.1853ZM91.4909 63.2151L91.4813 63.5217L91.4909 63.2151ZM92.8005 63.2283L92.7919 62.9217L92.8005 63.2283ZM93.8527 63.2293L93.9419 63.5228L94.1595 63.4567V63.2293H93.8527ZM93.7527 63.2597L93.6635 62.9662L93.7527 63.5664V63.2597ZM93.8527 63.5664C94.0221 63.5664 94.1595 63.4291 94.1595 63.2597C94.1595 63.0902 94.0221 62.9529 93.8527 62.9529V63.2597V63.5664ZM5.94737 63.2597V63.5664H6.04737V63.2597V62.9529H5.94737V63.2597ZM6.04737 63.2597L6.03006 63.5659L7.01782 63.6218L7.03514 63.3155L7.05246 63.0093L6.06469 62.9534L6.04737 63.2597ZM7.03514 63.3155L7.01782 63.6218C8.09431 63.6826 8.9199 63.7079 9.48983 63.6962L9.48357 63.3895L9.47731 63.0829C8.9315 63.094 8.12479 63.0699 7.05246 63.0093L7.03514 63.3155ZM9.48357 63.3895L9.48983 63.6962L10.0027 63.6858L9.99645 63.3791L9.99019 63.0724L9.47731 63.0829L9.48357 63.3895ZM9.99645 63.3791L10.0027 63.6858L10.5156 63.6753L10.5093 63.3686L10.5031 63.0619L9.99019 63.0724L9.99645 63.3791ZM10.5093 63.3686L10.5156 63.6753C11.0792 63.6638 11.6428 63.6365 12.2063 63.5935L12.183 63.2876L12.1596 62.9818C11.6074 63.0239 11.0552 63.0506 10.5031 63.0619L10.5093 63.3686ZM12.183 63.2876L12.2063 63.5935L12.7192 63.5544L12.6958 63.2485L12.6725 62.9426L12.1596 62.9818L12.183 63.2876ZM12.6958 63.2485L12.7192 63.5544L13.2321 63.5152L13.2087 63.2094L13.1854 62.9035L12.6725 62.9426L12.6958 63.2485ZM13.2087 63.2094L13.2321 63.5152C13.7808 63.4733 14.3295 63.4562 14.8781 63.4637L14.8823 63.157L14.8865 62.8503C14.3195 62.8425 13.7524 62.8602 13.1854 62.9035L13.2087 63.2094ZM14.8823 63.157L14.8781 63.4637L15.391 63.4707L15.3952 63.164L15.3994 62.8573L14.8865 62.8503L14.8823 63.157ZM15.3952 63.164L15.391 63.4707L15.9039 63.4778L15.9081 63.171L15.9123 62.8643L15.3994 62.8573L15.3952 63.164ZM15.9081 63.171L15.9039 63.4778C16.4647 63.4855 17.0255 63.4852 17.5863 63.4769L17.5817 63.1702L17.5772 62.8634C17.0222 62.8716 16.4673 62.8719 15.9123 62.8643L15.9081 63.171ZM17.5817 63.1702L17.5863 63.4769L18.0991 63.4693L18.0946 63.1626L18.0901 62.8559L17.5772 62.8634L17.5817 63.1702ZM18.0946 63.1626L18.0991 63.4693L18.612 63.4617L18.6075 63.155L18.603 62.8483L18.0901 62.8559L18.0946 63.1626ZM18.6075 63.155L18.612 63.4617C19.1621 63.4536 19.7121 63.4665 20.2622 63.5005L20.2811 63.1944L20.3 62.8882C19.7344 62.8532 19.1687 62.8399 18.603 62.8483L18.6075 63.155ZM20.2811 63.1944L20.2622 63.5005L20.7751 63.5322L20.794 63.2261L20.8129 62.9199L20.3 62.8882L20.2811 63.1944ZM20.794 63.2261L20.7751 63.5322L21.288 63.5639L21.3069 63.2578L21.3258 62.9516L20.8129 62.9199L20.794 63.2261ZM21.3069 63.2578L21.288 63.5639C21.8499 63.5987 22.4118 63.6222 22.9738 63.6345L22.9805 63.3278L22.9872 63.0212C22.4334 63.009 21.8796 62.9858 21.3258 62.9516L21.3069 63.2578ZM22.9805 63.3278L22.9738 63.6345L23.4867 63.6458L23.4934 63.3391L23.5001 63.0324L22.9872 63.0212L22.9805 63.3278ZM23.4934 63.3391L23.4867 63.6458L23.9995 63.657L24.0063 63.3504L24.013 63.0437L23.5001 63.0324L23.4934 63.3391ZM24.0063 63.3504L23.9995 63.657C24.5591 63.6693 25.1186 63.677 25.6782 63.6801L25.6799 63.3733L25.6816 63.0666C25.1254 63.0635 24.5692 63.0559 24.013 63.0437L24.0063 63.3504ZM25.6799 63.3733L25.6782 63.6801L26.1911 63.6829L26.1928 63.3762L26.1945 63.0694L25.6816 63.0666L25.6799 63.3733ZM26.1928 63.3762L26.1911 63.6829L26.704 63.6858L26.7057 63.379L26.7074 63.0723L26.1945 63.0694L26.1928 63.3762ZM26.7057 63.379L26.704 63.6858C27.2627 63.6889 27.8215 63.6896 28.3802 63.6878L28.3793 63.3811L28.3783 63.0744C27.8213 63.0761 27.2643 63.0754 26.7074 63.0723L26.7057 63.379ZM28.3793 63.3811L28.3802 63.6878L28.8931 63.6863L28.8922 63.3795L28.8912 63.0728L28.3783 63.0744L28.3793 63.3811ZM28.8922 63.3795L28.8931 63.6863L29.406 63.6847L29.405 63.378L29.4041 63.0712L28.8912 63.0728L28.8922 63.3795ZM29.405 63.378L29.406 63.6847C29.9686 63.683 30.5312 63.6682 31.0939 63.6403L31.0787 63.3339L31.0635 63.0276C30.5103 63.055 29.9572 63.0695 29.4041 63.0712L29.405 63.378ZM31.0787 63.3339L31.0939 63.6403L31.6067 63.6149L31.5915 63.3085L31.5764 63.0021L31.0635 63.0276L31.0787 63.3339ZM31.5915 63.3085L31.6067 63.6149L32.1196 63.5894L32.1044 63.2831L32.0892 62.9767L31.5764 63.0021L31.5915 63.3085ZM32.1044 63.2831L32.1196 63.5894C32.6727 63.562 33.2258 63.5475 33.7789 63.5459L33.778 63.2391L33.7772 62.9324C33.2145 62.934 32.6519 62.9488 32.0892 62.9767L32.1044 63.2831ZM33.778 63.2391L33.7789 63.5459L34.2918 63.5444L34.2909 63.2376L34.29 62.9309L33.7772 62.9324L33.778 63.2391ZM34.2909 63.2376L34.2918 63.5444L34.8047 63.5429L34.8038 63.2361L34.8029 62.9294L34.29 62.9309L34.2909 63.2376ZM34.8038 63.2361L34.8047 63.5429C35.3564 63.5413 35.9081 63.5564 36.4598 63.5882L36.4774 63.282L36.4951 62.9758C35.9311 62.9432 35.367 62.9277 34.8029 62.9294L34.8038 63.2361ZM36.4774 63.282L36.4598 63.5882L36.9726 63.6178L36.9903 63.3116L37.008 63.0054L36.4951 62.9758L36.4774 63.282ZM36.9903 63.3116L36.9726 63.6178L37.4855 63.6474L37.5032 63.3412L37.5209 63.035L37.008 63.0054L36.9903 63.3116ZM37.5032 63.3412L37.4855 63.6474C38.05 63.68 38.6144 63.6944 39.1789 63.6905L39.1768 63.3838L39.1747 63.0771C38.6235 63.0808 38.0722 63.0668 37.5209 63.035L37.5032 63.3412ZM39.1768 63.3838L39.1789 63.6905L39.6918 63.687L39.6897 63.3803L39.6876 63.0736L39.1747 63.0771L39.1768 63.3838ZM39.6897 63.3803L39.6918 63.687L40.2047 63.6835L40.2026 63.3768L40.2005 63.0701L39.6876 63.0736L39.6897 63.3803ZM40.2026 63.3768L40.2047 63.6835C40.7612 63.6798 41.3176 63.6797 41.8741 63.6835L41.8762 63.3768L41.8783 63.07C41.319 63.0662 40.7598 63.0663 40.2005 63.0701L40.2026 63.3768ZM41.8762 63.3768L41.8741 63.6835L42.387 63.687L42.3891 63.3803L42.3912 63.0735L41.8783 63.07L41.8762 63.3768ZM42.3891 63.3803L42.387 63.687L42.8999 63.6905L42.902 63.3837L42.9041 63.077L42.3912 63.0735L42.3891 63.3803ZM42.902 63.3837L42.8999 63.6905C43.4676 63.6943 44.0353 63.6708 44.603 63.62L44.5756 63.3145L44.5482 63.009C44.0001 63.058 43.4521 63.0807 42.9041 63.077L42.902 63.3837ZM44.5756 63.3145L44.603 63.62L45.1158 63.5741L45.0885 63.2686L45.0611 62.963L44.5482 63.009L44.5756 63.3145ZM45.0885 63.2686L45.1158 63.5741L45.6287 63.5282L45.6014 63.2227L45.574 62.9171L45.0611 62.963L45.0885 63.2686ZM45.6014 63.2227L45.6287 63.5282C46.1696 63.4797 46.7104 63.4765 47.2513 63.5184L47.275 63.2125L47.2987 62.9067C46.7238 62.8622 46.1488 62.8657 45.574 62.9171L45.6014 63.2227ZM47.275 63.2125L47.2513 63.5184L47.7642 63.5581L47.7879 63.2523L47.8116 62.9464L47.2987 62.9067L47.275 63.2125ZM47.7879 63.2523L47.7642 63.5581L48.2771 63.5978L48.3007 63.292L48.3244 62.9862L47.8116 62.9464L47.7879 63.2523ZM48.3007 63.292L48.2771 63.5978C48.8441 63.6418 49.4111 63.6602 49.9782 63.6531L49.9744 63.3464L49.9705 63.0396C49.4219 63.0465 48.8732 63.0287 48.3244 62.9862L48.3007 63.292ZM49.9744 63.3464L49.9782 63.6531L50.4911 63.6467L50.4873 63.34L50.4834 63.0332L49.9705 63.0396L49.9744 63.3464ZM50.4873 63.34L50.4911 63.6467L51.004 63.6403L51.0001 63.3335L50.9963 63.0268L50.4834 63.0332L50.4873 63.34ZM51.0001 63.3335L51.004 63.6403C51.5622 63.6333 52.1203 63.6255 52.6785 63.6168L52.6738 63.3101L52.669 63.0034C52.1114 63.012 51.5539 63.0199 50.9963 63.0268L51.0001 63.3335ZM52.6738 63.3101L52.6785 63.6168L53.1914 63.6088L53.1866 63.3021L53.1819 62.9954L52.669 63.0034L52.6738 63.3101ZM53.1866 63.3021L53.1914 63.6088L53.7043 63.6008L53.6995 63.2941L53.6948 62.9874L53.1819 62.9954L53.1866 63.3021ZM53.6995 63.2941L53.7043 63.6008C54.2655 63.5921 54.8268 63.5741 55.388 63.5468L55.3731 63.2404L55.3582 62.934C54.8037 62.961 54.2492 62.9788 53.6948 62.9874L53.6995 63.2941ZM55.3731 63.2404L55.388 63.5468L55.9009 63.5219L55.886 63.2155L55.8711 62.9091L55.3582 62.934L55.3731 63.2404ZM55.886 63.2155L55.9009 63.5219L56.4138 63.4969L56.3989 63.1906L56.384 62.8842L55.8711 62.9091L55.886 63.2155ZM56.3989 63.1906L56.4138 63.4969C56.9591 63.4704 57.5043 63.4776 58.0496 63.5183L58.0725 63.2124L58.0954 62.9066C57.525 62.8639 56.9545 62.8564 56.384 62.8842L56.3989 63.1906ZM58.0725 63.2124L58.0496 63.5183L58.5625 63.5567L58.5854 63.2508L58.6083 62.9449L58.0954 62.9066L58.0725 63.2124ZM58.5854 63.2508L58.5625 63.5567L59.0754 63.5951L59.0983 63.2892L59.1212 62.9833L58.6083 62.9449L58.5854 63.2508ZM59.0983 63.2892L59.0754 63.5951C59.6437 63.6376 60.2121 63.6508 60.7805 63.6349L60.7719 63.3282L60.7633 63.0216C60.216 63.037 59.6686 63.0242 59.1212 62.9833L59.0983 63.2892ZM60.7719 63.3282L60.7805 63.6349L61.2934 63.6205L61.2848 63.3138L61.2762 63.0072L60.7633 63.0216L60.7719 63.3282ZM61.2848 63.3138L61.2934 63.6205L61.8063 63.6061L61.7977 63.2994L61.7891 62.9928L61.2762 63.0072L61.2848 63.3138ZM61.7977 63.2994L61.8063 63.6061C62.3607 63.5905 62.9151 63.5843 63.4696 63.5874L63.4713 63.2807L63.473 62.9739C62.9117 62.9708 62.3504 62.977 61.7891 62.9928L61.7977 63.2994ZM63.4713 63.2807L63.4696 63.5874L63.9824 63.5904L63.9842 63.2836L63.9859 62.9769L63.473 62.9739L63.4713 63.2807ZM63.9842 63.2836L63.9824 63.5904L64.4953 63.5933L64.4971 63.2865L64.4988 62.9798L63.9859 62.9769L63.9842 63.2836ZM64.4971 63.2865L64.4953 63.5933C65.06 63.5965 65.6248 63.5808 66.1894 63.5462L66.1707 63.24L66.1519 62.9339C65.6009 62.9676 65.0498 62.9829 64.4988 62.9798L64.4971 63.2865ZM66.1707 63.24L66.1894 63.5462L66.7023 63.5148L66.6836 63.2086L66.6648 62.9025L66.1519 62.9339L66.1707 63.24ZM66.6836 63.2086L66.7023 63.5148L67.2152 63.4834L67.1965 63.1772L67.1777 62.871L66.6648 62.9025L66.6836 63.2086ZM67.1965 63.1772L67.2152 63.4834C67.763 63.4498 68.3108 63.4433 68.8586 63.4639L68.8701 63.1573L68.8816 62.8508C68.3136 62.8295 67.7456 62.8363 67.1777 62.871L67.1965 63.1772ZM68.8701 63.1573L68.8586 63.4639L69.3715 63.4831L69.383 63.1766L69.3944 62.87L68.8816 62.8508L68.8701 63.1573ZM69.383 63.1766L69.3715 63.4831L69.8843 63.5023L69.8958 63.1958L69.9073 62.8892L69.3944 62.87L69.383 63.1766ZM69.8958 63.1958L69.8843 63.5023C70.4502 63.5235 71.016 63.5227 71.5818 63.4999L71.5695 63.1934L71.5571 62.8869C71.0072 62.9091 70.4573 62.9099 69.9073 62.8892L69.8958 63.1958ZM71.5695 63.1934L71.5818 63.4999L72.0947 63.4793L72.0823 63.1728L72.07 62.8663L71.5571 62.8869L71.5695 63.1934ZM72.0823 63.1728L72.0947 63.4793L72.6076 63.4586L72.5952 63.1521L72.5829 62.8456L72.07 62.8663L72.0823 63.1728ZM72.5952 63.1521L72.6076 63.4586C73.1612 63.4363 73.7148 63.4256 74.2684 63.4265L74.2688 63.1197L74.2693 62.813C73.7072 62.8121 73.145 62.823 72.5829 62.8456L72.5952 63.1521ZM74.2688 63.1197L74.2684 63.4265L74.7812 63.4273L74.7817 63.1205L74.7822 62.8138L74.2693 62.813L74.2688 63.1197ZM74.7817 63.1205L74.7812 63.4273L75.2941 63.4281L75.2946 63.1213L75.2951 62.8146L74.7822 62.8138L74.7817 63.1205ZM75.2946 63.1213L75.2941 63.4281C75.8437 63.4289 76.3934 63.452 76.9431 63.4973L76.9682 63.1915L76.9934 62.8858C76.4273 62.8392 75.8612 62.8155 75.2951 62.8146L75.2946 63.1213ZM76.9682 63.1915L76.9431 63.4973L77.4559 63.5395L77.4811 63.2338L77.5063 62.928L76.9934 62.8858L76.9682 63.1915ZM77.4811 63.2338L77.4559 63.5395L77.9688 63.5817L77.994 63.276L78.0192 62.9703L77.5063 62.928L77.4811 63.2338ZM77.994 63.276L77.9688 63.5817C78.5425 63.6289 79.1163 63.6316 79.69 63.5897L79.6676 63.2838L79.6453 62.9778C79.1032 63.0174 78.5612 63.0149 78.0192 62.9703L77.994 63.276ZM79.6676 63.2838L79.69 63.5897L80.2028 63.5523L80.1805 63.2463L80.1582 62.9404L79.6453 62.9778L79.6676 63.2838ZM80.1805 63.2463L80.2028 63.5523L80.7157 63.5148L80.6934 63.2089L80.6711 62.903L80.1582 62.9404L80.1805 63.2463ZM80.6934 63.2089L80.7157 63.5148C81.2577 63.4753 81.7997 63.4779 82.3417 63.5227L82.367 63.217L82.3923 62.9113C81.8186 62.8639 81.2448 62.8611 80.6711 62.903L80.6934 63.2089ZM82.367 63.217L82.3417 63.5227L82.8546 63.5651L82.8799 63.2594L82.9052 62.9537L82.3923 62.9113L82.367 63.217ZM82.8799 63.2594L82.8546 63.5651L83.3675 63.6076L83.3928 63.3019L83.4181 62.9962L82.9052 62.9537L82.8799 63.2594ZM83.3928 63.3019L83.3675 63.6076C83.9383 63.6548 84.5092 63.6656 85.0802 63.6399L85.0664 63.3335L85.0526 63.027C84.5078 63.0515 83.963 63.0412 83.4181 62.9962L83.3928 63.3019ZM85.0664 63.3335L85.0802 63.6399L85.593 63.6169L85.5793 63.3104L85.5655 63.004L85.0526 63.027L85.0664 63.3335ZM85.5793 63.3104L85.593 63.6169L86.1059 63.5938L86.0922 63.2874L86.0784 62.981L85.5655 63.004L85.5793 63.3104ZM86.0922 63.2874L86.1059 63.5938C86.6628 63.5688 87.2196 63.5467 87.7764 63.5274L87.7658 63.2208L87.7552 62.9143C87.1962 62.9336 86.6373 62.9559 86.0784 62.981L86.0922 63.2874ZM87.7658 63.2208L87.7764 63.5274L88.2893 63.5096L88.2787 63.2031L88.268 62.8965L87.7552 62.9143L87.7658 63.2208ZM88.2787 63.2031L88.2893 63.5096L88.8022 63.4919L88.7915 63.1853L88.7809 62.8787L88.268 62.8965L88.2787 63.2031ZM88.7915 63.1853L88.8022 63.4919C89.3533 63.4728 89.9044 63.4719 90.4555 63.4893L90.4652 63.1827L90.4748 62.8761C89.9102 62.8583 89.3456 62.8592 88.7809 62.8787L88.7915 63.1853ZM90.4652 63.1827L90.4555 63.4893L90.9684 63.5055L90.9781 63.1989L90.9877 62.8923L90.4748 62.8761L90.4652 63.1827ZM90.9781 63.1989L90.9684 63.5055L91.4813 63.5217L91.4909 63.2151L91.5006 62.9085L90.9877 62.8923L90.9781 63.1989ZM91.4909 63.2151L91.4813 63.5217C92.0414 63.5394 92.4849 63.544 92.8091 63.5349L92.8005 63.2283L92.7919 62.9217C92.4857 62.9302 92.0563 62.926 91.5006 62.9085L91.4909 63.2151ZM92.8005 63.2283L92.8091 63.5349L93.0988 63.5268L93.0902 63.2202L93.0817 62.9136L92.7919 62.9217L92.8005 63.2283ZM93.0902 63.2202L93.0988 63.5268L93.3885 63.5187L93.38 63.2121L93.3714 62.9055L93.0817 62.9136L93.0902 63.2202ZM93.38 63.2121L93.3885 63.5187C93.5452 63.5143 93.6584 63.5128 93.7309 63.5136C93.7684 63.5141 93.7881 63.5151 93.7952 63.5158C93.8011 63.5163 93.7894 63.5157 93.7707 63.511C93.7638 63.5093 93.7339 63.5019 93.699 63.482C93.6811 63.4718 93.6476 63.4504 93.616 63.4122C93.5816 63.3706 93.546 63.3041 93.546 63.2177H93.8527H94.1595C94.1595 63.04 94.0225 62.9602 94.0027 62.949C93.9654 62.9277 93.9318 62.9189 93.92 62.916C93.8914 62.9088 93.865 62.9061 93.8512 62.9048C93.8189 62.9019 93.7794 62.9007 93.7382 62.9002C93.6531 62.8992 93.5299 62.901 93.3714 62.9055L93.38 63.2121ZM93.8527 63.2177H93.546V63.2293H93.8527H94.1595V63.2177H93.8527ZM93.8527 63.2293L93.7635 62.9358L93.6635 62.9662L93.7527 63.2597L93.8419 63.5532L93.9419 63.5228L93.8527 63.2293ZM93.7527 63.2597V63.5664H93.8527V63.2597V62.9529H93.7527V63.2597Z" fill="#BCBCBC"/>
<path d="M5.94737 70.1404C5.77796 70.1404 5.64062 70.2777 5.64062 70.4472C5.64062 70.6166 5.77796 70.7539 5.94737 70.7539V70.4472V70.1404ZM6.04737 70.4472L6.06469 70.1409L6.05604 70.1404H6.04737V70.4472ZM22.9805 70.5153L22.9738 70.822L22.9805 70.5153ZM24.0063 70.5379L23.9995 70.8445L24.0063 70.5379ZM25.6799 70.5608L25.6782 70.8676L25.6799 70.5608ZM26.7057 70.5665L26.704 70.8733L26.7057 70.5665ZM31.0787 70.5214L31.0635 70.2151L31.0787 70.5214ZM32.1044 70.4706L32.0892 70.1642L32.1044 70.4706ZM36.4774 70.4695L36.4598 70.7757L36.4774 70.4695ZM36.9903 70.4991L36.9726 70.8053L36.9903 70.4991ZM41.8762 70.5643L41.8783 70.2575L41.8762 70.5643ZM42.3891 70.5678L42.387 70.8745L42.3891 70.5678ZM44.5756 70.502L44.5482 70.1965L44.5756 70.502ZM45.0885 70.4561L45.1158 70.7616L45.0885 70.4561ZM45.6014 70.4102L45.574 70.1046L45.6014 70.4102ZM47.275 70.4L47.2513 70.7059L47.275 70.4ZM47.7879 70.4398L47.7642 70.7456L47.7879 70.4398ZM52.6738 70.4976L52.669 70.1909L52.6738 70.4976ZM55.3731 70.4279L55.3582 70.1215L55.3731 70.4279ZM56.3989 70.3781L56.4138 70.6844L56.3989 70.3781ZM58.5854 70.4383L58.5625 70.7442L58.5854 70.4383ZM59.0983 70.4767L59.1212 70.1708L59.0983 70.4767ZM61.2848 70.5013L61.2762 70.1947L61.2848 70.5013ZM61.7977 70.4869L61.8063 70.7936L61.7977 70.4869ZM64.4971 70.474L64.4953 70.7808V70.7808L64.4971 70.474ZM67.1965 70.3647L67.1777 70.0585L67.1965 70.3647ZM76.9682 70.379L76.9431 70.6848L76.9682 70.379ZM77.994 70.4635L78.0192 70.1578L77.994 70.4635ZM80.1805 70.4338L80.2028 70.7398L80.1805 70.4338ZM80.6934 70.3964L80.6711 70.0905L80.6934 70.3964ZM83.3928 70.4894L83.3675 70.7951L83.3928 70.4894ZM85.0664 70.521L85.0526 70.2145L85.0664 70.521ZM88.2787 70.3906L88.2893 70.6971L88.2787 70.3906ZM88.7915 70.3728L88.7809 70.0662L88.7915 70.3728ZM91.4909 70.4026L91.4813 70.7092L91.4909 70.4026ZM92.8005 70.4158L92.7919 70.1092L92.8005 70.4158ZM93.8527 70.4168L93.9419 70.7103L94.1595 70.6442V70.4168H93.8527ZM93.7527 70.4472L93.6635 70.1537L93.7527 70.7539V70.4472ZM93.8527 70.7539C94.0221 70.7539 94.1595 70.6166 94.1595 70.4472C94.1595 70.2777 94.0221 70.1404 93.8527 70.1404V70.4472V70.7539ZM5.94737 70.4472V70.7539H6.04737V70.4472V70.1404H5.94737V70.4472ZM6.04737 70.4472L6.03006 70.7534L7.01782 70.8093L7.03514 70.503L7.05246 70.1968L6.06469 70.1409L6.04737 70.4472ZM7.03514 70.503L7.01782 70.8093C8.09431 70.8701 8.9199 70.8954 9.48983 70.8837L9.48357 70.577L9.47731 70.2704C8.9315 70.2815 8.12479 70.2574 7.05246 70.1968L7.03514 70.503ZM9.48357 70.577L9.48983 70.8837L10.0027 70.8733L9.99645 70.5666L9.99019 70.2599L9.47731 70.2704L9.48357 70.577ZM9.99645 70.5666L10.0027 70.8733L10.5156 70.8628L10.5093 70.5561L10.5031 70.2494L9.99019 70.2599L9.99645 70.5666ZM10.5093 70.5561L10.5156 70.8628C11.0792 70.8513 11.6428 70.824 12.2063 70.781L12.183 70.4751L12.1596 70.1693C11.6074 70.2114 11.0552 70.2381 10.5031 70.2494L10.5093 70.5561ZM12.183 70.4751L12.2063 70.781L12.7192 70.7419L12.6958 70.436L12.6725 70.1301L12.1596 70.1693L12.183 70.4751ZM12.6958 70.436L12.7192 70.7419L13.2321 70.7027L13.2087 70.3969L13.1854 70.091L12.6725 70.1301L12.6958 70.436ZM13.2087 70.3969L13.2321 70.7027C13.7808 70.6608 14.3295 70.6437 14.8781 70.6512L14.8823 70.3445L14.8865 70.0378C14.3195 70.03 13.7524 70.0477 13.1854 70.091L13.2087 70.3969ZM14.8823 70.3445L14.8781 70.6512L15.391 70.6582L15.3952 70.3515L15.3994 70.0448L14.8865 70.0378L14.8823 70.3445ZM15.3952 70.3515L15.391 70.6582L15.9039 70.6653L15.9081 70.3585L15.9123 70.0518L15.3994 70.0448L15.3952 70.3515ZM15.9081 70.3585L15.9039 70.6653C16.4647 70.673 17.0255 70.6727 17.5863 70.6644L17.5817 70.3577L17.5772 70.0509C17.0222 70.0591 16.4673 70.0594 15.9123 70.0518L15.9081 70.3585ZM17.5817 70.3577L17.5863 70.6644L18.0991 70.6568L18.0946 70.3501L18.0901 70.0434L17.5772 70.0509L17.5817 70.3577ZM18.0946 70.3501L18.0991 70.6568L18.612 70.6492L18.6075 70.3425L18.603 70.0358L18.0901 70.0434L18.0946 70.3501ZM18.6075 70.3425L18.612 70.6492C19.1621 70.6411 19.7121 70.654 20.2622 70.688L20.2811 70.3819L20.3 70.0757C19.7344 70.0407 19.1687 70.0274 18.603 70.0358L18.6075 70.3425ZM20.2811 70.3819L20.2622 70.688L20.7751 70.7197L20.794 70.4136L20.8129 70.1074L20.3 70.0757L20.2811 70.3819ZM20.794 70.4136L20.7751 70.7197L21.288 70.7514L21.3069 70.4453L21.3258 70.1391L20.8129 70.1074L20.794 70.4136ZM21.3069 70.4453L21.288 70.7514C21.8499 70.7862 22.4118 70.8097 22.9738 70.822L22.9805 70.5153L22.9872 70.2087C22.4334 70.1965 21.8796 70.1733 21.3258 70.1391L21.3069 70.4453ZM22.9805 70.5153L22.9738 70.822L23.4867 70.8333L23.4934 70.5266L23.5001 70.2199L22.9872 70.2087L22.9805 70.5153ZM23.4934 70.5266L23.4867 70.8333L23.9995 70.8445L24.0063 70.5379L24.013 70.2312L23.5001 70.2199L23.4934 70.5266ZM24.0063 70.5379L23.9995 70.8445C24.5591 70.8568 25.1186 70.8645 25.6782 70.8676L25.6799 70.5608L25.6816 70.2541C25.1254 70.251 24.5692 70.2434 24.013 70.2312L24.0063 70.5379ZM25.6799 70.5608L25.6782 70.8676L26.1911 70.8704L26.1928 70.5637L26.1945 70.2569L25.6816 70.2541L25.6799 70.5608ZM26.1928 70.5637L26.1911 70.8704L26.704 70.8733L26.7057 70.5665L26.7074 70.2598L26.1945 70.2569L26.1928 70.5637ZM26.7057 70.5665L26.704 70.8733C27.2627 70.8764 27.8215 70.8771 28.3802 70.8753L28.3793 70.5686L28.3783 70.2619C27.8213 70.2636 27.2643 70.2629 26.7074 70.2598L26.7057 70.5665ZM28.3793 70.5686L28.3802 70.8753L28.8931 70.8738L28.8922 70.567L28.8912 70.2603L28.3783 70.2619L28.3793 70.5686ZM28.8922 70.567L28.8931 70.8738L29.406 70.8722L29.405 70.5655L29.4041 70.2587L28.8912 70.2603L28.8922 70.567ZM29.405 70.5655L29.406 70.8722C29.9686 70.8705 30.5312 70.8557 31.0939 70.8278L31.0787 70.5214L31.0635 70.2151C30.5103 70.2425 29.9572 70.257 29.4041 70.2587L29.405 70.5655ZM31.0787 70.5214L31.0939 70.8278L31.6067 70.8024L31.5915 70.496L31.5764 70.1896L31.0635 70.2151L31.0787 70.5214ZM31.5915 70.496L31.6067 70.8024L32.1196 70.7769L32.1044 70.4706L32.0892 70.1642L31.5764 70.1896L31.5915 70.496ZM32.1044 70.4706L32.1196 70.7769C32.6727 70.7495 33.2258 70.735 33.7789 70.7334L33.778 70.4266L33.7772 70.1199C33.2145 70.1215 32.6519 70.1363 32.0892 70.1642L32.1044 70.4706ZM33.778 70.4266L33.7789 70.7334L34.2918 70.7319L34.2909 70.4251L34.29 70.1184L33.7772 70.1199L33.778 70.4266ZM34.2909 70.4251L34.2918 70.7319L34.8047 70.7304L34.8038 70.4236L34.8029 70.1169L34.29 70.1184L34.2909 70.4251ZM34.8038 70.4236L34.8047 70.7304C35.3564 70.7288 35.9081 70.7439 36.4598 70.7757L36.4774 70.4695L36.4951 70.1633C35.9311 70.1307 35.367 70.1152 34.8029 70.1169L34.8038 70.4236ZM36.4774 70.4695L36.4598 70.7757L36.9726 70.8053L36.9903 70.4991L37.008 70.1929L36.4951 70.1633L36.4774 70.4695ZM36.9903 70.4991L36.9726 70.8053L37.4855 70.8349L37.5032 70.5287L37.5209 70.2225L37.008 70.1929L36.9903 70.4991ZM37.5032 70.5287L37.4855 70.8349C38.05 70.8675 38.6144 70.8819 39.1789 70.878L39.1768 70.5713L39.1747 70.2646C38.6235 70.2683 38.0722 70.2543 37.5209 70.2225L37.5032 70.5287ZM39.1768 70.5713L39.1789 70.878L39.6918 70.8745L39.6897 70.5678L39.6876 70.2611L39.1747 70.2646L39.1768 70.5713ZM39.6897 70.5678L39.6918 70.8745L40.2047 70.871L40.2026 70.5643L40.2005 70.2576L39.6876 70.2611L39.6897 70.5678ZM40.2026 70.5643L40.2047 70.871C40.7612 70.8673 41.3176 70.8672 41.8741 70.871L41.8762 70.5643L41.8783 70.2575C41.319 70.2537 40.7598 70.2538 40.2005 70.2576L40.2026 70.5643ZM41.8762 70.5643L41.8741 70.871L42.387 70.8745L42.3891 70.5678L42.3912 70.261L41.8783 70.2575L41.8762 70.5643ZM42.3891 70.5678L42.387 70.8745L42.8999 70.878L42.902 70.5712L42.9041 70.2645L42.3912 70.261L42.3891 70.5678ZM42.902 70.5712L42.8999 70.878C43.4676 70.8818 44.0353 70.8583 44.603 70.8075L44.5756 70.502L44.5482 70.1965C44.0001 70.2455 43.4521 70.2682 42.9041 70.2645L42.902 70.5712ZM44.5756 70.502L44.603 70.8075L45.1158 70.7616L45.0885 70.4561L45.0611 70.1505L44.5482 70.1965L44.5756 70.502ZM45.0885 70.4561L45.1158 70.7616L45.6287 70.7157L45.6014 70.4102L45.574 70.1046L45.0611 70.1505L45.0885 70.4561ZM45.6014 70.4102L45.6287 70.7157C46.1696 70.6672 46.7104 70.664 47.2513 70.7059L47.275 70.4L47.2987 70.0942C46.7238 70.0497 46.1488 70.0532 45.574 70.1046L45.6014 70.4102ZM47.275 70.4L47.2513 70.7059L47.7642 70.7456L47.7879 70.4398L47.8116 70.1339L47.2987 70.0942L47.275 70.4ZM47.7879 70.4398L47.7642 70.7456L48.2771 70.7853L48.3007 70.4795L48.3244 70.1737L47.8116 70.1339L47.7879 70.4398ZM48.3007 70.4795L48.2771 70.7853C48.8441 70.8293 49.4111 70.8477 49.9782 70.8406L49.9744 70.5339L49.9705 70.2271C49.4219 70.234 48.8732 70.2162 48.3244 70.1737L48.3007 70.4795ZM49.9744 70.5339L49.9782 70.8406L50.4911 70.8342L50.4873 70.5275L50.4834 70.2207L49.9705 70.2271L49.9744 70.5339ZM50.4873 70.5275L50.4911 70.8342L51.004 70.8278L51.0001 70.521L50.9963 70.2143L50.4834 70.2207L50.4873 70.5275ZM51.0001 70.521L51.004 70.8278C51.5622 70.8208 52.1203 70.813 52.6785 70.8043L52.6738 70.4976L52.669 70.1909C52.1114 70.1995 51.5539 70.2074 50.9963 70.2143L51.0001 70.521ZM52.6738 70.4976L52.6785 70.8043L53.1914 70.7963L53.1866 70.4896L53.1819 70.1829L52.669 70.1909L52.6738 70.4976ZM53.1866 70.4896L53.1914 70.7963L53.7043 70.7883L53.6995 70.4816L53.6948 70.1749L53.1819 70.1829L53.1866 70.4896ZM53.6995 70.4816L53.7043 70.7883C54.2655 70.7796 54.8268 70.7616 55.388 70.7343L55.3731 70.4279L55.3582 70.1215C54.8037 70.1485 54.2492 70.1663 53.6948 70.1749L53.6995 70.4816ZM55.3731 70.4279L55.388 70.7343L55.9009 70.7094L55.886 70.403L55.8711 70.0966L55.3582 70.1215L55.3731 70.4279ZM55.886 70.403L55.9009 70.7094L56.4138 70.6844L56.3989 70.3781L56.384 70.0717L55.8711 70.0966L55.886 70.403ZM56.3989 70.3781L56.4138 70.6844C56.9591 70.6579 57.5043 70.6651 58.0496 70.7058L58.0725 70.3999L58.0954 70.0941C57.525 70.0514 56.9545 70.0439 56.384 70.0717L56.3989 70.3781ZM58.0725 70.3999L58.0496 70.7058L58.5625 70.7442L58.5854 70.4383L58.6083 70.1324L58.0954 70.0941L58.0725 70.3999ZM58.5854 70.4383L58.5625 70.7442L59.0754 70.7826L59.0983 70.4767L59.1212 70.1708L58.6083 70.1324L58.5854 70.4383ZM59.0983 70.4767L59.0754 70.7826C59.6437 70.8251 60.2121 70.8383 60.7805 70.8224L60.7719 70.5157L60.7633 70.2091C60.216 70.2245 59.6686 70.2117 59.1212 70.1708L59.0983 70.4767ZM60.7719 70.5157L60.7805 70.8224L61.2934 70.808L61.2848 70.5013L61.2762 70.1947L60.7633 70.2091L60.7719 70.5157ZM61.2848 70.5013L61.2934 70.808L61.8063 70.7936L61.7977 70.4869L61.7891 70.1803L61.2762 70.1947L61.2848 70.5013ZM61.7977 70.4869L61.8063 70.7936C62.3607 70.778 62.9151 70.7718 63.4696 70.7749L63.4713 70.4682L63.473 70.1614C62.9117 70.1583 62.3504 70.1645 61.7891 70.1803L61.7977 70.4869ZM63.4713 70.4682L63.4696 70.7749L63.9824 70.7779L63.9842 70.4711L63.9859 70.1644L63.473 70.1614L63.4713 70.4682ZM63.9842 70.4711L63.9824 70.7779L64.4953 70.7808L64.4971 70.474L64.4988 70.1673L63.9859 70.1644L63.9842 70.4711ZM64.4971 70.474L64.4953 70.7808C65.06 70.784 65.6248 70.7683 66.1894 70.7337L66.1707 70.4275L66.1519 70.1214C65.6009 70.1551 65.0498 70.1704 64.4988 70.1673L64.4971 70.474ZM66.1707 70.4275L66.1894 70.7337L66.7023 70.7023L66.6836 70.3961L66.6648 70.09L66.1519 70.1214L66.1707 70.4275ZM66.6836 70.3961L66.7023 70.7023L67.2152 70.6709L67.1965 70.3647L67.1777 70.0585L66.6648 70.09L66.6836 70.3961ZM67.1965 70.3647L67.2152 70.6709C67.763 70.6373 68.3108 70.6308 68.8586 70.6514L68.8701 70.3448L68.8816 70.0383C68.3136 70.017 67.7456 70.0238 67.1777 70.0585L67.1965 70.3647ZM68.8701 70.3448L68.8586 70.6514L69.3715 70.6706L69.383 70.3641L69.3944 70.0575L68.8816 70.0383L68.8701 70.3448ZM69.383 70.3641L69.3715 70.6706L69.8843 70.6898L69.8958 70.3833L69.9073 70.0767L69.3944 70.0575L69.383 70.3641ZM69.8958 70.3833L69.8843 70.6898C70.4502 70.711 71.016 70.7102 71.5818 70.6874L71.5695 70.3809L71.5571 70.0744C71.0072 70.0966 70.4573 70.0974 69.9073 70.0767L69.8958 70.3833ZM71.5695 70.3809L71.5818 70.6874L72.0947 70.6668L72.0823 70.3603L72.07 70.0538L71.5571 70.0744L71.5695 70.3809ZM72.0823 70.3603L72.0947 70.6668L72.6076 70.6461L72.5952 70.3396L72.5829 70.0331L72.07 70.0538L72.0823 70.3603ZM72.5952 70.3396L72.6076 70.6461C73.1612 70.6238 73.7148 70.6131 74.2684 70.614L74.2688 70.3072L74.2693 70.0005C73.7072 69.9996 73.145 70.0105 72.5829 70.0331L72.5952 70.3396ZM74.2688 70.3072L74.2684 70.614L74.7812 70.6148L74.7817 70.308L74.7822 70.0013L74.2693 70.0005L74.2688 70.3072ZM74.7817 70.308L74.7812 70.6148L75.2941 70.6156L75.2946 70.3088L75.2951 70.0021L74.7822 70.0013L74.7817 70.308ZM75.2946 70.3088L75.2941 70.6156C75.8437 70.6164 76.3934 70.6395 76.9431 70.6848L76.9682 70.379L76.9934 70.0733C76.4273 70.0267 75.8612 70.003 75.2951 70.0021L75.2946 70.3088ZM76.9682 70.379L76.9431 70.6848L77.4559 70.727L77.4811 70.4213L77.5063 70.1155L76.9934 70.0733L76.9682 70.379ZM77.4811 70.4213L77.4559 70.727L77.9688 70.7692L77.994 70.4635L78.0192 70.1578L77.5063 70.1155L77.4811 70.4213ZM77.994 70.4635L77.9688 70.7692C78.5425 70.8164 79.1163 70.8191 79.69 70.7772L79.6676 70.4713L79.6453 70.1653C79.1032 70.2049 78.5612 70.2024 78.0192 70.1578L77.994 70.4635ZM79.6676 70.4713L79.69 70.7772L80.2028 70.7398L80.1805 70.4338L80.1582 70.1279L79.6453 70.1653L79.6676 70.4713ZM80.1805 70.4338L80.2028 70.7398L80.7157 70.7023L80.6934 70.3964L80.6711 70.0905L80.1582 70.1279L80.1805 70.4338ZM80.6934 70.3964L80.7157 70.7023C81.2577 70.6628 81.7997 70.6654 82.3417 70.7102L82.367 70.4045L82.3923 70.0988C81.8186 70.0514 81.2448 70.0486 80.6711 70.0905L80.6934 70.3964ZM82.367 70.4045L82.3417 70.7102L82.8546 70.7526L82.8799 70.4469L82.9052 70.1412L82.3923 70.0988L82.367 70.4045ZM82.8799 70.4469L82.8546 70.7526L83.3675 70.7951L83.3928 70.4894L83.4181 70.1837L82.9052 70.1412L82.8799 70.4469ZM83.3928 70.4894L83.3675 70.7951C83.9383 70.8423 84.5092 70.8531 85.0802 70.8274L85.0664 70.521L85.0526 70.2145C84.5078 70.239 83.963 70.2287 83.4181 70.1837L83.3928 70.4894ZM85.0664 70.521L85.0802 70.8274L85.593 70.8044L85.5793 70.4979L85.5655 70.1915L85.0526 70.2145L85.0664 70.521ZM85.5793 70.4979L85.593 70.8044L86.1059 70.7813L86.0922 70.4749L86.0784 70.1685L85.5655 70.1915L85.5793 70.4979ZM86.0922 70.4749L86.1059 70.7813C86.6628 70.7563 87.2196 70.7342 87.7764 70.7149L87.7658 70.4083L87.7552 70.1018C87.1962 70.1211 86.6373 70.1434 86.0784 70.1685L86.0922 70.4749ZM87.7658 70.4083L87.7764 70.7149L88.2893 70.6971L88.2787 70.3906L88.268 70.084L87.7552 70.1018L87.7658 70.4083ZM88.2787 70.3906L88.2893 70.6971L88.8022 70.6794L88.7915 70.3728L88.7809 70.0662L88.268 70.084L88.2787 70.3906ZM88.7915 70.3728L88.8022 70.6794C89.3533 70.6603 89.9044 70.6594 90.4555 70.6768L90.4652 70.3702L90.4748 70.0636C89.9102 70.0458 89.3456 70.0467 88.7809 70.0662L88.7915 70.3728ZM90.4652 70.3702L90.4555 70.6768L90.9684 70.693L90.9781 70.3864L90.9877 70.0798L90.4748 70.0636L90.4652 70.3702ZM90.9781 70.3864L90.9684 70.693L91.4813 70.7092L91.4909 70.4026L91.5006 70.096L90.9877 70.0798L90.9781 70.3864ZM91.4909 70.4026L91.4813 70.7092C92.0414 70.7269 92.4849 70.7315 92.8091 70.7224L92.8005 70.4158L92.7919 70.1092C92.4857 70.1177 92.0563 70.1135 91.5006 70.096L91.4909 70.4026ZM92.8005 70.4158L92.8091 70.7224L93.0988 70.7143L93.0902 70.4077L93.0817 70.1011L92.7919 70.1092L92.8005 70.4158ZM93.0902 70.4077L93.0988 70.7143L93.3885 70.7062L93.38 70.3996L93.3714 70.093L93.0817 70.1011L93.0902 70.4077ZM93.38 70.3996L93.3885 70.7062C93.5452 70.7018 93.6584 70.7003 93.7309 70.7011C93.7684 70.7016 93.7881 70.7026 93.7952 70.7033C93.8011 70.7038 93.7894 70.7032 93.7707 70.6985C93.7638 70.6968 93.7339 70.6894 93.699 70.6695C93.6811 70.6593 93.6476 70.6379 93.616 70.5997C93.5816 70.5581 93.546 70.4916 93.546 70.4052H93.8527H94.1595C94.1595 70.2275 94.0225 70.1477 94.0027 70.1365C93.9654 70.1152 93.9318 70.1064 93.92 70.1035C93.8914 70.0963 93.865 70.0936 93.8512 70.0923C93.8189 70.0894 93.7794 70.0882 93.7382 70.0877C93.6531 70.0867 93.5299 70.0885 93.3714 70.093L93.38 70.3996ZM93.8527 70.4052H93.546V70.4168H93.8527H94.1595V70.4052H93.8527ZM93.8527 70.4168L93.7635 70.1233L93.6635 70.1537L93.7527 70.4472L93.8419 70.7407L93.9419 70.7103L93.8527 70.4168ZM93.7527 70.4472V70.7539H93.8527V70.4472V70.1404H93.7527V70.4472Z" fill="#BCBCBC"/>
</svg>
