<svg width="100" height="100" viewBox="0 0 100 100" fill="none" xmlns="http://www.w3.org/2000/svg">
<g clip-path="url(#clip0_3710_33002)">
<rect width="79.5918" height="100" transform="translate(10)" fill="white"/>
<ellipse cx="49.7959" cy="50.0743" rx="39.7959" ry="50.0743" fill="url(#paint0_radial_3710_33002)"/>
<path d="M20.1864 13.5882L20.732 12.6174C20.768 12.5518 20.8147 12.5007 20.8721 12.4642C20.9295 12.4276 20.9923 12.4044 21.0605 12.3946C21.1288 12.3848 21.1956 12.3893 21.2611 12.4083C21.3265 12.4272 21.3858 12.463 21.4391 12.5157L22.2388 13.2932L23.3173 13.4892C23.4201 13.5064 23.5047 13.5505 23.5712 13.6216C23.6377 13.6928 23.6779 13.7762 23.6918 13.8718C23.6982 13.9159 23.6981 13.9608 23.6915 14.0066C23.6848 14.0523 23.6695 14.0974 23.6456 14.1419L23.1097 15.1587L23.2766 16.132C23.2996 16.2611 23.2723 16.3767 23.1947 16.4786C23.1172 16.5806 23.0182 16.6402 22.8978 16.6575C22.8943 16.6581 22.8519 16.6587 22.7706 16.6594L21.6587 16.5097L20.6351 16.9664C20.6155 16.9776 20.5948 16.9854 20.5729 16.9899C20.5511 16.9943 20.5309 16.9978 20.5125 17.0005C20.391 17.018 20.2788 16.9887 20.1759 16.9126C20.0731 16.8366 20.0143 16.7335 19.9996 16.6032L19.8816 15.6165L19.0827 14.7979C19.0471 14.7618 19.0195 14.7227 19.0001 14.6806C18.9807 14.6384 18.9678 14.5953 18.9614 14.5513C18.9479 14.4583 18.9626 14.368 19.0057 14.2802C19.0487 14.1925 19.1168 14.1248 19.2099 14.0773L20.1864 13.5882Z" fill="#FFE17E"/>
<path d="M77.9294 84.6204L77.3841 85.591C77.3481 85.6566 77.3014 85.7077 77.244 85.7442C77.1866 85.7807 77.1238 85.8039 77.0556 85.8137C76.9873 85.8235 76.9205 85.8189 76.855 85.8C76.7896 85.7811 76.7302 85.7453 76.677 85.6925L75.877 84.9149L74.7984 84.7186C74.6955 84.7014 74.6109 84.6572 74.5444 84.5861C74.4779 84.5149 74.4376 84.4315 74.4237 84.336C74.4173 84.2918 74.4174 84.2469 74.424 84.2012C74.4306 84.1555 74.4459 84.1104 74.4698 84.0659L75.0055 83.0493L74.8383 82.076C74.8153 81.9469 74.8426 81.8314 74.9201 81.7295C74.9976 81.6275 75.0966 81.5679 75.217 81.5506C75.2205 81.5501 75.2629 81.5495 75.3442 81.5488L76.4562 81.6988L77.4798 81.2424C77.4994 81.2312 77.5201 81.2234 77.542 81.219C77.5638 81.2145 77.584 81.211 77.6024 81.2083C77.7239 81.1909 77.8361 81.2202 77.939 81.2963C78.0419 81.3723 78.1007 81.4755 78.1155 81.6058L78.2338 82.5924L79.0329 83.4112C79.0686 83.4472 79.0961 83.4864 79.1155 83.5285C79.135 83.5707 79.1479 83.6138 79.1543 83.6578C79.1678 83.7507 79.1531 83.841 79.1101 83.9288C79.0671 84.0165 78.999 84.0841 78.9059 84.1316L77.9294 84.6204Z" fill="#FFE17E"/>
<path d="M24.9289 10.1746L25.456 9.70064C25.4911 9.66846 25.5297 9.6472 25.5717 9.63685C25.6138 9.62647 25.6564 9.62527 25.6995 9.63323C25.7426 9.6412 25.782 9.65753 25.8175 9.68224C25.8531 9.70692 25.8815 9.74056 25.9029 9.78317L26.2259 10.4141L26.8357 10.7515C26.8941 10.7827 26.9361 10.8265 26.9616 10.8829C26.9872 10.9393 26.9944 10.9977 26.9832 11.0581C26.9781 11.086 26.9688 11.113 26.9555 11.1392C26.9421 11.1654 26.9237 11.1895 26.9002 11.2114L26.3695 11.715L26.2712 12.3353C26.2587 12.4177 26.2187 12.4818 26.1511 12.5274C26.0835 12.5731 26.0117 12.5889 25.9356 12.5749C25.9334 12.5745 25.9077 12.5662 25.8586 12.5501L25.2192 12.2339L24.5091 12.3009C24.495 12.3036 24.4809 12.3041 24.4668 12.3024C24.4528 12.3006 24.4399 12.2986 24.4283 12.2965C24.3515 12.2823 24.2898 12.2419 24.2434 12.1751C24.197 12.1084 24.1826 12.0343 24.2004 11.9528L24.3308 11.3345L24.0167 10.6789C24.0026 10.6499 23.994 10.6208 23.9909 10.5914C23.9878 10.5621 23.9889 10.5335 23.994 10.5056C24.0048 10.4469 24.0322 10.3955 24.0761 10.3514C24.1199 10.3073 24.1748 10.2804 24.2406 10.2707L24.9289 10.1746Z" fill="#FFE17E"/>
<path d="M73.2781 88.1907L72.751 88.6646C72.7159 88.6968 72.6773 88.718 72.6353 88.7284C72.5932 88.7388 72.5507 88.74 72.5075 88.732C72.4644 88.724 72.4251 88.7077 72.3895 88.683C72.3539 88.6583 72.3255 88.6247 72.3042 88.5821L71.9812 87.9511L71.3713 87.6138C71.3129 87.5825 71.2709 87.5387 71.2454 87.4823C71.2199 87.4259 71.2127 87.3675 71.2238 87.3071C71.229 87.2792 71.2382 87.2522 71.2516 87.226C71.2649 87.1998 71.2833 87.1757 71.3068 87.1538L71.8375 86.6502L71.9358 86.0299C71.9483 85.9475 71.9884 85.8834 72.056 85.8378C72.1235 85.7921 72.1953 85.7763 72.2714 85.7904C72.2736 85.7908 72.2993 85.799 72.3485 85.8151L72.9878 86.1314L73.698 86.0644C73.712 86.0616 73.7261 86.0611 73.7402 86.0629C73.7543 86.0646 73.7671 86.0666 73.7788 86.0687C73.8556 86.0829 73.9172 86.1234 73.9636 86.1901C74.0101 86.2568 74.0244 86.3309 74.0067 86.4124L73.8762 87.0308L74.1903 87.6863C74.2044 87.7153 74.213 87.7445 74.2161 87.7738C74.2192 87.8032 74.2182 87.8318 74.213 87.8596C74.2022 87.9183 74.1748 87.9697 74.131 88.0138C74.0871 88.058 74.0323 88.0849 73.9664 88.0946L73.2781 88.1907Z" fill="#FFE17E"/>
<path d="M77.2312 19.6692L76.7042 20.1431C76.669 20.1753 76.6305 20.1966 76.5884 20.2069C76.5464 20.2173 76.5038 20.2185 76.4607 20.2105C76.4175 20.2026 76.3782 20.1862 76.3426 20.1615C76.3071 20.1368 76.2786 20.1032 76.2573 20.0606L75.9343 19.4297L75.3245 19.0923C75.266 19.061 75.224 19.0172 75.1985 18.9609C75.173 18.9045 75.1658 18.8461 75.177 18.7857C75.1821 18.7578 75.1914 18.7307 75.2047 18.7045C75.218 18.6783 75.2365 18.6543 75.26 18.6323L75.7906 18.1288L75.8889 17.5085C75.9015 17.426 75.9415 17.362 76.0091 17.3163C76.0766 17.2706 76.1485 17.2548 76.2245 17.2689C76.2268 17.2693 76.2524 17.2775 76.3016 17.2937L76.9409 17.6099L77.6511 17.5429C77.6652 17.5401 77.6792 17.5396 77.6933 17.5414C77.7074 17.5432 77.7203 17.5451 77.7319 17.5473C77.8087 17.5614 77.8703 17.6019 77.9168 17.6686C77.9632 17.7353 77.9775 17.8094 77.9598 17.8909L77.8293 18.5093L78.1434 19.1649C78.1576 19.1938 78.1661 19.223 78.1692 19.2523C78.1723 19.2817 78.1713 19.3103 78.1662 19.3381C78.1553 19.3968 78.128 19.4482 78.0841 19.4924C78.0402 19.5365 77.9854 19.5634 77.9196 19.5731L77.2312 19.6692Z" fill="#FFE17E"/>
</g>
<defs>
<radialGradient id="paint0_radial_3710_33002" cx="0" cy="0" r="1" gradientUnits="userSpaceOnUse" gradientTransform="translate(49.7959 50.0743) rotate(90) scale(50.0743 39.7959)">
<stop stop-color="#FFFB7E"/>
<stop offset="1" stop-color="#FFFB7E" stop-opacity="0"/>
</radialGradient>
<clipPath id="clip0_3710_33002">
<rect width="79.5918" height="100" fill="white" transform="translate(10)"/>
</clipPath>
</defs>
</svg>
