<svg width="100" height="100" viewBox="0 0 100 100" fill="none" xmlns="http://www.w3.org/2000/svg">
<g clip-path="url(#clip0_3710_32762)">
<rect width="79.5918" height="100" transform="translate(10)" fill="white"/>
<ellipse cx="49.7959" cy="50.069" rx="39.7959" ry="50.069" fill="url(#paint0_radial_3710_32762)"/>
<path d="M20.18 13.584L20.7242 12.6162C20.7601 12.5509 20.8067 12.5 20.8639 12.4635C20.921 12.427 20.9836 12.4038 21.0516 12.394C21.1196 12.3842 21.1862 12.3887 21.2513 12.4075C21.3165 12.4262 21.3756 12.4619 21.4286 12.5144L22.2246 13.2884L23.2987 13.4829C23.4011 13.4999 23.4854 13.5439 23.5516 13.6147C23.6178 13.6856 23.6577 13.7686 23.6715 13.8638C23.6779 13.9078 23.6777 13.9526 23.6711 13.9981C23.6644 14.0437 23.6491 14.0887 23.6253 14.133L23.0907 15.1465L23.2561 16.1162C23.279 16.2449 23.2517 16.36 23.1743 16.4616C23.097 16.5633 22.9984 16.6228 22.8784 16.6402C22.8749 16.6407 22.8327 16.6413 22.7517 16.6421L21.6443 16.4938L20.6243 16.9496C20.6048 16.9608 20.5842 16.9686 20.5624 16.9731C20.5406 16.9775 20.5205 16.9811 20.5022 16.9837C20.3811 17.0012 20.2694 16.9721 20.167 16.8964C20.0646 16.8208 20.0061 16.718 19.9915 16.5882L19.8747 15.6052L19.0796 14.7902C19.0441 14.7542 19.0167 14.7153 18.9974 14.6733C18.9781 14.6313 18.9653 14.5884 18.959 14.5445C18.9456 14.4519 18.9603 14.3619 19.0033 14.2744C19.0462 14.187 19.1141 14.1195 19.2069 14.0721L20.18 13.584Z" fill="#99E5EB"/>
<path d="M77.8952 84.625L77.351 85.5927C77.3151 85.6581 77.2685 85.709 77.2113 85.7455C77.1542 85.782 77.0916 85.8051 77.0236 85.815C76.9556 85.8248 76.889 85.8203 76.8239 85.8015C76.7587 85.7827 76.6996 85.7471 76.6466 85.6946L75.8506 84.9206L74.7765 84.7261C74.6741 84.709 74.5898 84.6651 74.5236 84.5943C74.4574 84.5234 74.4175 84.4404 74.4037 84.3452C74.3973 84.3012 74.3975 84.2564 74.4041 84.2108C74.4108 84.1653 74.426 84.1203 74.4499 84.076L74.9845 83.0624L74.819 82.0927C74.7962 81.9641 74.8235 81.849 74.9009 81.7473C74.9782 81.6457 75.0768 81.5862 75.1968 81.5688C75.2003 81.5683 75.2425 81.5677 75.3235 81.5669L76.4309 81.7152L77.4509 81.2593C77.4704 81.2482 77.491 81.2404 77.5128 81.2359C77.5346 81.2315 77.5547 81.2279 77.573 81.2253C77.6941 81.2078 77.8058 81.2369 77.9082 81.3126C78.0106 81.3882 78.0691 81.491 78.0837 81.6208L78.2005 82.6038L78.9956 83.4188C79.0311 83.4548 79.0584 83.4937 79.0778 83.5357C79.0971 83.5777 79.1099 83.6206 79.1162 83.6645C79.1296 83.7571 79.1148 83.8471 79.0719 83.9346C79.029 84.022 78.9611 84.0895 78.8683 84.1369L77.8952 84.625Z" fill="#99E5EB"/>
<path d="M24.9289 10.1746L25.456 9.70064C25.4911 9.66846 25.5297 9.6472 25.5717 9.63685C25.6138 9.62647 25.6564 9.62527 25.6995 9.63323C25.7426 9.6412 25.782 9.65753 25.8175 9.68224C25.8531 9.70692 25.8815 9.74056 25.9029 9.78317L26.2259 10.4141L26.8357 10.7515C26.8941 10.7827 26.9361 10.8265 26.9616 10.8829C26.9872 10.9393 26.9944 10.9977 26.9832 11.0581C26.9781 11.086 26.9688 11.113 26.9555 11.1392C26.9421 11.1654 26.9237 11.1895 26.9002 11.2114L26.3695 11.715L26.2712 12.3353C26.2587 12.4177 26.2187 12.4818 26.1511 12.5274C26.0835 12.5731 26.0117 12.5889 25.9356 12.5749C25.9334 12.5745 25.9077 12.5662 25.8586 12.5501L25.2192 12.2339L24.5091 12.3009C24.495 12.3036 24.4809 12.3041 24.4668 12.3024C24.4528 12.3006 24.4399 12.2986 24.4283 12.2965C24.3515 12.2823 24.2898 12.2419 24.2434 12.1751C24.197 12.1084 24.1826 12.0343 24.2004 11.9528L24.3308 11.3345L24.0167 10.6789C24.0026 10.6499 23.994 10.6208 23.9909 10.5914C23.9878 10.5621 23.9889 10.5335 23.994 10.5056C24.0048 10.4469 24.0322 10.3955 24.0761 10.3514C24.1199 10.3073 24.1748 10.2804 24.2406 10.2707L24.9289 10.1746Z" fill="#99E5EB"/>
<path d="M73.2781 88.1907L72.751 88.6646C72.7159 88.6968 72.6773 88.718 72.6353 88.7284C72.5932 88.7388 72.5507 88.74 72.5075 88.732C72.4644 88.724 72.4251 88.7077 72.3895 88.683C72.3539 88.6583 72.3255 88.6247 72.3042 88.5821L71.9812 87.9511L71.3713 87.6138C71.3129 87.5825 71.2709 87.5387 71.2454 87.4823C71.2199 87.4259 71.2127 87.3675 71.2238 87.3071C71.229 87.2792 71.2382 87.2522 71.2516 87.226C71.2649 87.1998 71.2833 87.1757 71.3068 87.1538L71.8375 86.6502L71.9358 86.0299C71.9483 85.9475 71.9884 85.8834 72.056 85.8378C72.1235 85.7921 72.1953 85.7763 72.2714 85.7904C72.2736 85.7908 72.2993 85.799 72.3485 85.8151L72.9878 86.1314L73.698 86.0644C73.712 86.0616 73.7261 86.0611 73.7402 86.0629C73.7543 86.0646 73.7671 86.0666 73.7788 86.0687C73.8556 86.0829 73.9172 86.1234 73.9636 86.1901C74.0101 86.2568 74.0244 86.3309 74.0067 86.4124L73.8762 87.0308L74.1903 87.6863C74.2044 87.7153 74.213 87.7445 74.2161 87.7738C74.2192 87.8032 74.2182 87.8318 74.213 87.8596C74.2022 87.9183 74.1748 87.9697 74.131 88.0138C74.0871 88.058 74.0323 88.0849 73.9664 88.0946L73.2781 88.1907Z" fill="#99E5EB"/>
<path d="M77.2312 19.6692L76.7042 20.1431C76.669 20.1753 76.6305 20.1966 76.5884 20.2069C76.5464 20.2173 76.5038 20.2185 76.4607 20.2105C76.4175 20.2026 76.3782 20.1862 76.3426 20.1615C76.3071 20.1368 76.2786 20.1032 76.2573 20.0606L75.9343 19.4297L75.3245 19.0923C75.266 19.061 75.224 19.0172 75.1985 18.9609C75.173 18.9045 75.1658 18.8461 75.177 18.7857C75.1821 18.7578 75.1914 18.7307 75.2047 18.7045C75.218 18.6783 75.2365 18.6543 75.26 18.6323L75.7906 18.1288L75.8889 17.5085C75.9015 17.426 75.9415 17.362 76.0091 17.3163C76.0766 17.2706 76.1485 17.2548 76.2245 17.2689C76.2268 17.2693 76.2524 17.2775 76.3016 17.2937L76.9409 17.6099L77.6511 17.5429C77.6652 17.5401 77.6792 17.5396 77.6933 17.5414C77.7074 17.5432 77.7203 17.5451 77.7319 17.5473C77.8087 17.5614 77.8703 17.6019 77.9168 17.6686C77.9632 17.7353 77.9775 17.8094 77.9598 17.8909L77.8293 18.5093L78.1434 19.1649C78.1576 19.1938 78.1661 19.223 78.1692 19.2523C78.1723 19.2817 78.1713 19.3103 78.1662 19.3381C78.1553 19.3968 78.128 19.4482 78.0841 19.4924C78.0402 19.5365 77.9854 19.5634 77.9196 19.5731L77.2312 19.6692Z" fill="#99E5EB"/>
</g>
<defs>
<radialGradient id="paint0_radial_3710_32762" cx="0" cy="0" r="1" gradientUnits="userSpaceOnUse" gradientTransform="translate(49.7959 50.069) rotate(90) scale(50.069 39.7959)">
<stop offset="0.370192" stop-color="#B9FAFF"/>
<stop offset="1" stop-color="#B9FAFF" stop-opacity="0"/>
</radialGradient>
<clipPath id="clip0_3710_32762">
<rect width="79.5918" height="100" fill="white" transform="translate(10)"/>
</clipPath>
</defs>
</svg>
