<svg width="100" height="100" viewBox="0 0 100 100" fill="none" xmlns="http://www.w3.org/2000/svg">
<rect y="1" width="100" height="98.1073" fill="#B02015"/>
<ellipse cx="50.0002" cy="50.2107" rx="41.1672" ry="41.6404" fill="#F1E6E6"/>
<path d="M90.8421 55.3955L90.6852 55.3798L90.8421 55.3955ZM90.5256 57.4479L90.3712 57.4156L90.5256 57.4479ZM90.1225 59.4881L90.2776 59.5169L90.1225 59.4881ZM89.0523 63.5027L89.2 63.5582L89.0523 63.5027ZM87.5105 67.363L87.6511 67.4346L87.5105 67.363ZM86.6252 69.247L86.77 69.3095L86.6252 69.247ZM77.905 80.8009L77.7971 80.6858L77.905 80.8009ZM76.3517 82.1809L76.4533 82.3016L76.3517 82.1809ZM74.7473 83.5039L74.8463 83.6266L74.7473 83.5039ZM73.0851 84.7548L72.9946 84.6256L73.0851 84.7548ZM69.4839 86.8316L69.4062 86.6943V86.6943L69.4839 86.8316ZM65.7582 88.6592L65.8118 88.8075L65.7582 88.6592ZM59.8488 90.627L59.8901 90.7792L59.8488 90.627ZM57.8287 91.1183L57.862 91.2725L57.8287 91.1183ZM55.7816 91.4858L55.8041 91.642L55.7816 91.4858ZM49.5572 91.8538L49.5476 92.0112L49.5572 91.8538ZM41.307 90.9147L41.3475 90.7623L41.307 90.9147ZM39.2823 90.4322L39.2497 90.5865L39.2823 90.4322ZM26.2338 84.1809L26.3321 84.0576L26.2338 84.1809ZM24.5778 82.9226L24.6703 82.7948L24.5778 82.9226ZM22.978 81.6003L23.0861 81.4854L22.978 81.6003ZM17.3452 75.5073L17.2211 75.6045L17.3452 75.5073ZM16.1188 73.8312L16.2491 73.7422L16.1188 73.8312ZM12.9707 68.4543L13.1115 68.3833L12.9707 68.4543ZM11.3687 64.6212L11.5201 64.5769L11.3687 64.6212ZM10.7389 62.6385L10.8881 62.5873L10.7389 62.6385ZM8.94755 48.2843L9.10495 48.2944L8.94755 48.2843ZM10.0833 40.0697L9.93114 40.0281L10.0833 40.0697ZM11.283 36.0902L11.4347 36.1332L11.283 36.0902ZM11.985 34.1355L12.1294 34.1989L11.985 34.1355ZM13.797 30.3938L13.9352 30.4698L13.797 30.3938ZM14.7997 28.571L14.9379 28.647L14.7997 28.571ZM15.9117 26.8157L16.0394 26.9082L15.9117 26.8157ZM21.2575 20.4643L21.3715 20.5734L21.2575 20.4643ZM24.3606 17.7097L24.4561 17.8353L24.3606 17.7097ZM25.9879 16.415L25.887 16.2938L25.9879 16.415ZM29.4804 14.1723L29.5603 14.3083L29.4804 14.1723ZM31.2723 13.1166L31.3525 13.2524L31.2723 13.1166ZM33.1312 12.19L33.1913 12.3358L33.1312 12.19ZM35.0625 11.4177L35.0055 11.2706L35.0625 11.4177ZM47.1764 8.69436L47.1714 8.53671L47.1764 8.69436ZM49.2553 8.60312L49.2465 8.44564L49.2553 8.60312ZM55.4766 8.93096L55.4572 9.08749L55.4766 8.93096ZM57.5302 9.25385L57.5007 9.40879L57.5302 9.25385ZM59.5519 9.73328L59.5951 9.58159L59.5519 9.73328ZM61.561 10.2691L61.5229 10.4222L61.561 10.2691ZM69.2421 13.4025L69.1662 13.5407L69.2421 13.4025ZM72.8392 15.4905L72.7502 15.6207L72.8392 15.4905ZM74.5039 16.7377L74.404 16.8597L74.5039 16.7377ZM88.8946 36.6509L89.0452 36.6043L88.8946 36.6509ZM90.0613 40.6377L89.9068 40.6694L90.0613 40.6377ZM90.4358 42.6814L90.5915 42.6563L90.4358 42.6814ZM91.154 51.2506L90.9963 51.2485C90.9874 51.9375 90.9507 52.625 90.8861 53.3109L91.0431 53.3257L91.2002 53.3405C91.2656 52.6461 91.3028 51.9501 91.3117 51.2526L91.154 51.2506ZM91.0431 53.3257L90.8861 53.3109C90.8211 54.0007 90.7541 54.6903 90.6852 55.3798L90.8421 55.3955L90.9991 55.4112C91.0681 54.7211 91.1351 54.0309 91.2002 53.3405L91.0431 53.3257ZM90.8421 55.3955L90.6852 55.3798C90.6167 56.064 90.512 56.7426 90.3712 57.4156L90.5256 57.4479L90.6799 57.4802C90.8231 56.7962 90.9295 56.1065 90.9991 55.4112L90.8421 55.3955ZM90.5256 57.4479L90.3712 57.4156C90.2289 58.0952 90.0943 58.7765 89.9674 59.4593L90.1225 59.4881L90.2776 59.5169C90.404 58.8365 90.5381 58.1575 90.6799 57.4802L90.5256 57.4479ZM90.1225 59.4881L89.9674 59.4593C89.8414 60.1375 89.6931 60.8112 89.5226 61.4804L89.6754 61.5193L89.8283 61.5583C90.0005 60.8824 90.1503 60.202 90.2776 59.5169L90.1225 59.4881ZM89.6754 61.5193L89.5226 61.4804C89.3526 62.1473 89.1467 62.8029 88.9046 63.4472L89.0523 63.5027L89.2 63.5582C89.446 62.903 89.6555 62.2364 89.8283 61.5583L89.6754 61.5193ZM89.0523 63.5027L88.9046 63.4472C88.6603 64.0977 88.4209 64.7497 88.1863 65.4032L88.3347 65.4565L88.4832 65.5098C88.7173 64.8577 88.9562 64.2072 89.2 63.5582L89.0523 63.5027ZM88.3347 65.4565L88.1863 65.4032C87.9542 66.0497 87.6821 66.6791 87.37 67.2914L87.5105 67.363L87.6511 67.4346C87.9692 66.8105 88.2466 66.1688 88.4832 65.5098L88.3347 65.4565ZM87.5105 67.363L87.37 67.2914C87.0534 67.9126 86.7568 68.5436 86.4803 69.1845L86.6252 69.247L86.77 69.3095C87.0438 68.6748 87.3375 68.0498 87.6511 67.4346L87.5105 67.363ZM86.6252 69.247L86.4803 69.1845C86.2088 69.8138 85.8845 70.4146 85.5074 70.9868L85.639 71.0736L85.7707 71.1604C86.1581 70.5727 86.4912 69.9557 86.77 69.3095L86.6252 69.247ZM85.639 71.0736L85.5074 70.9868C85.125 71.5668 84.7442 72.1463 84.3649 72.7253L84.4969 72.8118L84.6288 72.8982C85.0079 72.3195 85.3886 71.7402 85.7707 71.1604L85.639 71.0736ZM84.4969 72.8118L84.3649 72.7253C83.9868 73.3026 83.598 73.8723 83.1983 74.4346L83.3269 74.526L83.4554 74.6174C83.8574 74.0518 84.2485 73.4788 84.6288 72.8982L84.4969 72.8118ZM83.3269 74.526L83.1983 74.4346C82.7988 74.9967 82.3872 75.5498 81.9634 76.094L82.0878 76.1909L82.2123 76.2878C82.6389 75.74 83.0533 75.1832 83.4554 74.6174L83.3269 74.526ZM82.0878 76.1909L81.9634 76.094C81.5385 76.6397 81.1106 77.1842 80.6798 77.7275L80.8034 77.8255L80.927 77.9235C81.3584 77.3794 81.7868 76.8342 82.2123 76.2878L82.0878 76.1909ZM80.8034 77.8255L80.6798 77.7275C80.2529 78.2659 79.7931 78.7742 79.3003 79.2526L79.4101 79.3658L79.52 79.479C80.0226 78.9911 80.4916 78.4726 80.927 77.9235L80.8034 77.8255ZM79.4101 79.3658L79.3003 79.2526C78.8032 79.7351 78.3021 80.2128 77.7971 80.6858L77.905 80.8009L78.0128 80.916C78.5192 80.4418 79.0216 79.9628 79.52 79.479L79.4101 79.3658ZM77.905 80.8009L77.7971 80.6858C77.2934 81.1575 76.7778 81.6157 76.25 82.0603L76.3517 82.1809L76.4533 82.3016C76.9852 81.8533 77.5051 81.3915 78.0128 80.916L77.905 80.8009ZM76.3517 82.1809L76.25 82.0603C75.7211 82.5061 75.1871 82.9463 74.6482 83.3811L74.7473 83.5039L74.8463 83.6266C75.387 83.1904 75.9226 82.7487 76.4533 82.3016L76.3517 82.1809ZM74.7473 83.5039L74.6482 83.3811C74.1112 83.8144 73.56 84.2293 72.9946 84.6256L73.0851 84.7548L73.1757 84.8839C73.7469 84.4835 74.3037 84.0644 74.8463 83.6266L74.7473 83.5039ZM73.0851 84.7548L72.9946 84.6256C72.4318 85.0201 71.8459 85.3771 71.2368 85.6965L71.3101 85.8362L71.3833 85.9759C72.0044 85.6502 72.6019 85.2862 73.1757 84.8839L73.0851 84.7548ZM71.3101 85.8362L71.2368 85.6965C70.6202 86.0199 70.01 86.3525 69.4062 86.6943L69.4839 86.8316L69.5616 86.9688C70.1625 86.6287 70.7697 86.2977 71.3833 85.9759L71.3101 85.8362ZM69.4839 86.8316L69.4062 86.6943C68.8054 87.0344 68.1985 87.3644 67.5854 87.6844L67.6584 87.8242L67.7314 87.964C68.3476 87.6425 68.9577 87.3107 69.5616 86.9688L69.4839 86.8316ZM67.6584 87.8242L67.5854 87.6844C66.977 88.0019 66.3501 88.2773 65.7045 88.5108L65.7582 88.6592L65.8118 88.8075C66.4706 88.5692 67.1105 88.288 67.7314 87.964L67.6584 87.8242ZM65.7582 88.6592L65.7045 88.5108C65.0516 88.747 64.4012 88.9882 63.7535 89.2345L63.8095 89.3819L63.8656 89.5294C64.5117 89.2837 65.1605 89.0431 65.8118 88.8075L65.7582 88.6592ZM63.8095 89.3819L63.7535 89.2345C63.1099 89.4792 62.4586 89.7017 61.7996 89.902L61.8455 90.0529L61.8914 90.2038C62.5572 90.0014 63.2153 89.7766 63.8656 89.5294L63.8095 89.3819ZM61.8455 90.0529L61.7996 89.902C61.1387 90.1029 60.4747 90.2938 59.8075 90.4747L59.8488 90.627L59.8901 90.7792C60.5603 90.5974 61.2274 90.4056 61.8914 90.2038L61.8455 90.0529ZM59.8488 90.627L59.8075 90.4747C59.1415 90.6554 58.4708 90.8185 57.7955 90.9641L57.8287 91.1183L57.862 91.2725C58.5427 91.1257 59.2187 90.9613 59.8901 90.7792L59.8488 90.627ZM57.8287 91.1183L57.7955 90.9641C57.121 91.1095 56.4423 91.2314 55.7591 91.3297L55.7816 91.4858L55.8041 91.642C56.4944 91.5426 57.1804 91.4194 57.862 91.2725L57.8287 91.1183ZM55.7816 91.4858L55.7591 91.3297C55.0748 91.4282 54.3886 91.5106 53.7003 91.5767L53.7154 91.7337L53.7305 91.8907C54.4237 91.8241 55.1149 91.7412 55.8041 91.642L55.7816 91.4858ZM53.7154 91.7337L53.7003 91.5767C53.0124 91.6429 52.3233 91.6898 51.6327 91.7175L51.6391 91.8751L51.6454 92.0327C52.3418 92.0048 53.0368 91.9574 53.7305 91.8907L53.7154 91.7337ZM51.6391 91.8751L51.6327 91.7175C50.9446 91.7452 50.2559 91.7381 49.5667 91.6964L49.5572 91.8538L49.5476 92.0112C50.2474 92.0536 50.9467 92.0608 51.6454 92.0327L51.6391 91.8751ZM49.5572 91.8538L49.5667 91.6964C48.8694 91.6541 48.1721 91.6311 47.4748 91.6272L47.4739 91.7849L47.4731 91.9426C48.1645 91.9465 48.856 91.9694 49.5476 92.0112L49.5572 91.8538ZM47.4739 91.7849L47.4748 91.6272C46.7895 91.6234 46.1094 91.5612 45.4346 91.4405L45.4068 91.5958L45.3791 91.7511C46.0717 91.8749 46.7697 91.9387 47.4731 91.9426L47.4739 91.7849ZM45.4068 91.5958L45.4346 91.4405C44.7474 91.3177 44.0573 91.2177 43.3643 91.1406L43.3469 91.2973L43.3294 91.4541C44.0155 91.5305 44.6987 91.6295 45.3791 91.7511L45.4068 91.5958ZM43.3469 91.2973L43.3643 91.1406C42.6826 91.0647 42.0103 90.9386 41.3475 90.7623L41.307 90.9147L41.2664 91.0671C41.9444 91.2475 42.6321 91.3765 43.3294 91.4541L43.3469 91.2973ZM41.307 90.9147L41.3475 90.7623C40.6745 90.5832 39.9969 90.4217 39.3148 90.2778L39.2823 90.4322L39.2497 90.5865C39.9264 90.7293 40.5987 90.8895 41.2664 91.0671L41.307 90.9147ZM39.2823 90.4322L39.3148 90.2778C38.6438 90.1362 37.9885 89.9416 37.3491 89.6939L37.2921 89.841L37.2351 89.9881C37.8905 90.2419 38.562 90.4414 39.2497 90.5865L39.2823 90.4322ZM37.2921 89.841L37.3491 89.6939C36.7012 89.443 36.0531 89.1954 35.4046 88.951L35.349 89.0985L35.2934 89.2461C35.9409 89.4902 36.5882 89.7375 37.2351 89.9881L37.2921 89.841ZM35.349 89.0985L35.4046 88.951C34.7582 88.7073 34.1155 88.4531 33.4766 88.1883L33.4162 88.334L33.3558 88.4797C33.9979 88.7458 34.6438 89.0013 35.2934 89.2461L35.349 89.0985ZM33.4162 88.334L33.4766 88.1883C32.8427 87.9256 32.2294 87.621 31.6366 87.2745L31.557 87.4107L31.4774 87.5468C32.0825 87.9006 32.7087 88.2115 33.3558 88.4797L33.4162 88.334ZM31.557 87.4107L31.6366 87.2745C31.037 86.924 30.4357 86.5786 29.8326 86.2383L29.7551 86.3757L29.6776 86.5131C30.2793 86.8525 30.8792 87.1971 31.4774 87.5468L31.557 87.4107ZM29.7551 86.3757L29.8326 86.2383C29.2305 85.8987 28.629 85.5562 28.0279 85.2109L27.9494 85.3477L27.8708 85.4845C28.4725 85.8301 29.0748 86.173 29.6776 86.5131L29.7551 86.3757ZM27.9494 85.3477L28.0279 85.2109C27.4334 84.8694 26.8682 84.485 26.3321 84.0576L26.2338 84.1809L26.1355 84.3043C26.684 84.7416 27.2625 85.135 27.8708 85.4845L27.9494 85.3477ZM26.2338 84.1809L26.3321 84.0576C25.7879 83.6237 25.234 83.2028 24.6703 82.7948L24.5778 82.9226L24.4854 83.0503C25.045 83.4554 25.5951 83.8734 26.1355 84.3043L26.2338 84.1809ZM24.5778 82.9226L24.6703 82.7948C24.1142 82.3922 23.5861 81.9558 23.0861 81.4854L22.978 81.6003L22.8699 81.7152C23.3798 82.1948 23.9183 82.6398 24.4854 83.0503L24.5778 82.9226ZM22.978 81.6003L23.0861 81.4854C22.5802 81.0096 22.0686 80.5398 21.551 80.0761L21.4458 80.1936L21.3405 80.311C21.8562 80.773 22.366 81.2411 22.8699 81.7152L22.978 81.6003ZM21.4458 80.1936L21.551 80.0761C21.0383 79.6166 20.549 79.1334 20.0831 78.6264L19.967 78.7331L19.8508 78.8399C20.3236 79.3544 20.8202 79.8448 21.3405 80.311L21.4458 80.1936ZM19.967 78.7331L20.0831 78.6264C19.6167 78.1188 19.1719 77.5931 18.7488 77.0493L18.6244 77.1461L18.4999 77.243C18.9283 77.7936 19.3786 78.3259 19.8508 78.8399L19.967 78.7331ZM18.6244 77.1461L18.7488 77.0493C18.323 76.5019 17.8965 75.9555 17.4694 75.4101L17.3452 75.5073L17.2211 75.6045C17.6479 76.1497 18.0742 76.6959 18.4999 77.243L18.6244 77.1461ZM17.3452 75.5073L17.4694 75.4101C17.0446 74.8675 16.6378 74.3115 16.2491 73.7422L16.1188 73.8312L15.9886 73.9201C16.3811 74.4951 16.792 75.0565 17.2211 75.6045L17.3452 75.5073ZM16.1188 73.8312L16.2491 73.7422C15.8598 73.1721 15.4838 72.5933 15.1211 72.0059L14.9869 72.0887L14.8527 72.1716C15.2179 72.7632 15.5966 73.346 15.9886 73.9201L16.1188 73.8312ZM14.9869 72.0887L15.1211 72.0059C14.7586 71.4186 14.4109 70.8225 14.0781 70.2177L13.9399 70.2938L13.8017 70.3698C14.137 70.9792 14.4874 71.5798 14.8527 72.1716L14.9869 72.0887ZM13.9399 70.2938L14.0781 70.2177C13.7449 69.6123 13.4227 69.0008 13.1115 68.3833L12.9707 68.4543L12.8298 68.5253C13.1427 69.1462 13.4667 69.761 13.8017 70.3698L13.9399 70.2938ZM12.9707 68.4543L13.1115 68.3833C12.8007 67.7665 12.5056 67.1419 12.2262 66.5095L12.0819 66.5733L11.9376 66.637C12.2192 67.2742 12.5166 67.9036 12.8298 68.5253L12.9707 68.4543ZM12.0819 66.5733L12.2262 66.5095C11.9485 65.8811 11.7132 65.2369 11.5201 64.5769L11.3687 64.6212L11.2173 64.6655C11.4143 65.3387 11.6544 65.9959 11.9376 66.637L12.0819 66.5733ZM11.3687 64.6212L11.5201 64.5769C11.3244 63.908 11.1138 63.2448 10.8881 62.5873L10.7389 62.6385L10.5897 62.6897C10.8138 63.3426 11.023 64.0012 11.2173 64.6655L11.3687 64.6212ZM10.7389 62.6385L10.8881 62.5873C10.6647 61.9362 10.4692 61.2768 10.3017 60.6091L10.1487 60.6475L9.99569 60.6859C10.1654 61.3623 10.3634 62.0302 10.5897 62.6897L10.7389 62.6385ZM10.1487 60.6475L10.3017 60.6091C10.1337 59.9395 9.98244 59.2663 9.8479 58.5894L9.69319 58.6201L9.53849 58.6509C9.67406 59.3329 9.82645 60.0112 9.99569 60.6859L10.1487 60.6475ZM9.69319 58.6201L9.8479 58.5894C9.71294 57.9104 9.581 57.2303 9.4521 56.5491L9.29712 56.5784L9.14214 56.6078C9.27123 57.2899 9.40334 57.971 9.53849 58.6509L9.69319 58.6201ZM9.29712 56.5784L9.4521 56.5491C9.32397 55.872 9.22586 55.1905 9.15777 54.5046L9.00081 54.5202L8.84386 54.5358C8.91286 55.2309 9.01229 55.9215 9.14214 56.6078L9.29712 56.5784ZM9.00081 54.5202L9.15777 54.5046C9.08958 53.8177 9.04485 53.1294 9.02359 52.4396L8.86594 52.4445L8.70829 52.4493C8.72977 53.1462 8.77496 53.8417 8.84386 54.5358L9.00081 54.5202ZM8.86594 52.4445L9.02359 52.4396C9.00231 51.7491 8.99941 51.0579 9.01489 50.3658L8.8572 50.3623L8.69951 50.3588C8.6839 51.0564 8.68683 51.7532 8.70829 52.4493L8.86594 52.4445ZM8.8572 50.3623L9.01489 50.3658C9.03039 49.6733 9.06041 48.9828 9.10495 48.2944L8.94755 48.2843L8.79015 48.2741C8.74532 48.9669 8.71511 49.6618 8.69951 50.3588L8.8572 50.3623ZM8.94755 48.2843L9.10495 48.2944C9.14966 47.6034 9.19142 46.9119 9.23022 46.2198L9.07274 46.211L8.91526 46.2021C8.8765 46.8933 8.8348 47.584 8.79015 48.2741L8.94755 48.2843ZM9.07274 46.211L9.23022 46.2198C9.26873 45.533 9.3388 44.8494 9.44045 44.1691L9.28445 44.1457L9.12845 44.1224C9.02538 44.8124 8.95431 45.5057 8.91526 46.2021L9.07274 46.211ZM9.28445 44.1457L9.44045 44.1691C9.54256 43.4855 9.65539 42.8036 9.77893 42.1234L9.62374 42.0952L9.46855 42.067C9.34442 42.7505 9.23106 43.4356 9.12845 44.1224L9.28445 44.1457ZM9.62374 42.0952L9.77893 42.1234C9.90195 41.446 10.0541 40.7753 10.2355 40.1112L10.0833 40.0697L9.93114 40.0281C9.7474 40.701 9.5932 41.3807 9.46855 42.067L9.62374 42.0952ZM10.0833 40.0697L10.2355 40.1112C10.4173 39.4452 10.615 38.7843 10.8284 38.1285L10.6784 38.0797L10.5284 38.0309C10.3134 38.6915 10.1143 39.3572 9.93114 40.0281L10.0833 40.0697ZM10.6784 38.0797L10.8284 38.1285C11.0432 37.4684 11.2453 36.8032 11.4347 36.1332L11.283 36.0902L11.1312 36.0473C10.9428 36.7135 10.7419 37.3747 10.5284 38.0309L10.6784 38.0797ZM11.283 36.0902L11.4347 36.1332C11.6217 35.472 11.8532 34.8273 12.1294 34.1989L11.985 34.1355L11.8406 34.072C11.5585 34.7137 11.3221 35.3722 11.1312 36.0473L11.283 36.0902ZM11.985 34.1355L12.1294 34.1989C12.4079 33.5653 12.6956 32.9361 12.9923 32.3114L12.8498 32.2437L12.7073 32.176C12.4093 32.8035 12.1204 33.4355 11.8406 34.072L11.985 34.1355ZM12.8498 32.2437L12.9923 32.3114C13.2883 31.6881 13.6026 31.0742 13.9352 30.4698L13.797 30.3938L13.6588 30.3178C13.3232 30.9277 13.006 31.5471 12.7073 32.176L12.8498 32.2437ZM13.797 30.3938L13.9352 30.4698C14.2693 29.8627 14.6035 29.2551 14.9379 28.647L14.7997 28.571L14.6615 28.495C14.3271 29.103 13.9929 29.7106 13.6588 30.3178L13.797 30.3938ZM14.7997 28.571L14.9379 28.647C15.2692 28.0446 15.6364 27.465 16.0394 26.9082L15.9117 26.8157L15.7839 26.7232C15.3732 27.2906 14.9991 27.8812 14.6615 28.495L14.7997 28.571ZM15.9117 26.8157L16.0394 26.9082C16.447 26.3451 16.8483 25.7776 17.2433 25.2055L17.1135 25.1159L16.9838 25.0263C16.59 25.5964 16.1901 26.162 15.7839 26.7232L15.9117 26.8157ZM17.1135 25.1159L17.2433 25.2055C17.6336 24.6404 18.0608 24.1046 18.525 23.5982L18.4087 23.4916L18.2925 23.385C17.8185 23.9021 17.3822 24.4492 16.9838 25.0263L17.1135 25.1159ZM18.4087 23.4916L18.525 23.5982C18.9935 23.087 19.4653 22.5802 19.9404 22.0778L19.8257 21.9694L19.7111 21.8611C19.235 22.3647 18.7621 22.8727 18.2925 23.385L18.4087 23.4916ZM19.8257 21.9694L19.9404 22.0778C20.4157 21.575 20.8928 21.0735 21.3715 20.5734L21.2575 20.4643L21.1436 20.3553C20.6644 20.8559 20.1869 21.3578 19.7111 21.8611L19.8257 21.9694ZM21.2575 20.4643L21.3715 20.5734C21.8473 20.0762 22.3432 19.5998 22.8592 19.1441L22.7548 19.0259L22.6504 18.9077C22.1278 19.3692 21.6255 19.8517 21.1436 20.3553L21.2575 20.4643ZM22.7548 19.0259L22.8592 19.1441C23.3755 18.6881 23.9078 18.2518 24.4561 17.8353L24.3606 17.7097L24.2652 17.5841C23.7108 18.0053 23.1725 18.4465 22.6504 18.9077L22.7548 19.0259ZM24.3606 17.7097L24.4561 17.8353C25.0093 17.4149 25.5535 16.9819 26.0888 16.5362L25.9879 16.415L25.887 16.2938C25.3553 16.7365 24.8147 17.1666 24.2652 17.5841L24.3606 17.7097ZM25.9879 16.415L26.0888 16.5362C26.6156 16.0976 27.1748 15.7054 27.7663 15.3596L27.6867 15.2235L27.607 15.0873C27.0005 15.4419 26.4271 15.8441 25.887 16.2938L25.9879 16.415ZM27.6867 15.2235L27.7663 15.3596C28.3654 15.0094 28.9634 14.6589 29.5603 14.3083L29.4804 14.1723L29.4005 14.0363C28.8038 14.3868 28.206 14.7372 27.607 15.0873L27.6867 15.2235ZM29.4804 14.1723L29.5603 14.3083C30.1573 13.9576 30.7547 13.6056 31.3525 13.2524L31.2723 13.1166L31.192 12.9808C30.5944 13.3339 29.9973 13.6857 29.4005 14.0363L29.4804 14.1723ZM31.2723 13.1166L31.3525 13.2524C31.9438 12.903 32.5567 12.5975 33.1913 12.3358L33.1312 12.19L33.0711 12.0442C32.4226 12.3116 31.7962 12.6238 31.192 12.9808L31.2723 13.1166ZM33.1312 12.19L33.1913 12.3358C33.8319 12.0717 34.4746 11.8147 35.1195 11.5647L35.0625 11.4177L35.0055 11.2706C34.3585 11.5214 33.7137 11.7792 33.0711 12.0442L33.1312 12.19ZM35.0625 11.4177L35.1195 11.5647C35.7651 11.3145 36.4121 11.0668 37.0607 10.8215L37.0049 10.674L36.9491 10.5264C36.2997 10.772 35.6519 11.0201 35.0055 11.2706L35.0625 11.4177ZM37.0049 10.674L37.0607 10.8215C37.7047 10.5779 38.3593 10.3669 39.0244 10.1886L38.9836 10.0363L38.9427 9.88391C38.2675 10.065 37.6029 10.2791 36.9491 10.5264L37.0049 10.674ZM38.9836 10.0363L39.0244 10.1886C39.6915 10.0097 40.3632 9.85125 41.0394 9.71317L41.0078 9.55863L40.9763 9.40409C40.2938 9.54345 39.6159 9.70339 38.9427 9.88391L38.9836 10.0363ZM41.0078 9.55863L41.0394 9.71317C41.7168 9.57486 42.3963 9.44977 43.0779 9.33792L43.0523 9.18228L43.0268 9.02663C42.3412 9.13914 41.6577 9.26496 40.9763 9.40409L41.0078 9.55863ZM43.0523 9.18228L43.0779 9.33792C43.7603 9.22595 44.444 9.12226 45.1292 9.02685L45.1075 8.87063L45.0857 8.71441C44.398 8.81017 43.7117 8.91424 43.0268 9.02663L43.0523 9.18228ZM45.1075 8.87063L45.1292 9.02685C45.8102 8.93204 46.4942 8.87376 47.1814 8.85201L47.1764 8.69436L47.1714 8.53671C46.473 8.55882 45.7778 8.61805 45.0857 8.71441L45.1075 8.87063ZM47.1764 8.69436L47.1814 8.85201C47.8755 8.83003 48.5697 8.79956 49.2641 8.7606L49.2553 8.60312L49.2465 8.44564C48.5546 8.48446 47.8629 8.51481 47.1714 8.53671L47.1764 8.69436ZM49.2553 8.60312L49.2641 8.7606C49.9536 8.72192 50.6432 8.70777 51.3331 8.71814L51.3355 8.56043L51.3378 8.40272C50.6405 8.39223 49.9433 8.40654 49.2465 8.44564L49.2553 8.60312ZM51.3355 8.56043L51.3331 8.71814C52.0218 8.7285 52.7084 8.77119 53.3931 8.84621L53.4103 8.68942L53.4275 8.53263C52.733 8.45653 52.0364 8.41323 51.3378 8.40272L51.3355 8.56043ZM53.4103 8.68942L53.3931 8.84621C54.082 8.92168 54.77 9.00211 55.4572 9.08749L55.4766 8.93096L55.4961 8.77444C54.8074 8.68887 54.1178 8.60826 53.4275 8.53263L53.4103 8.68942ZM55.4766 8.93096L55.4572 9.08749C56.1418 9.17254 56.823 9.27964 57.5007 9.40879L57.5302 9.25385L57.5598 9.09891C56.8753 8.96849 56.1874 8.86033 55.4961 8.77444L55.4766 8.93096ZM57.5302 9.25385L57.5007 9.40879C58.1772 9.5377 58.8465 9.69643 59.5087 9.88498L59.5519 9.73328L59.5951 9.58159C58.9239 9.39047 58.2455 9.22958 57.5598 9.09891L57.5302 9.25385ZM59.5519 9.73328L59.5087 9.88498C60.177 10.0753 60.8484 10.2544 61.5229 10.4222L61.561 10.2691L61.5991 10.116C60.928 9.94909 60.26 9.77093 59.5951 9.58159L59.5519 9.73328ZM61.561 10.2691L61.5229 10.4222C62.1916 10.5885 62.8529 10.7812 63.5068 11.0001L63.5569 10.8506L63.607 10.701C62.9452 10.4794 62.2759 10.2844 61.5991 10.116L61.561 10.2691ZM63.5569 10.8506L63.5068 11.0001C64.1581 11.2182 64.7927 11.4779 65.4104 11.7792L65.4796 11.6374L65.5487 11.4957C64.9186 11.1883 64.2713 10.9234 63.607 10.701L63.5569 10.8506ZM65.4796 11.6374L65.4104 11.7792C66.0369 12.0848 66.6708 12.3728 67.3119 12.6433L67.3732 12.498L67.4346 12.3527C66.7987 12.0844 66.1701 11.7987 65.5487 11.4957L65.4796 11.6374ZM67.3732 12.498L67.3119 12.6433C67.9454 12.9106 68.5635 13.2097 69.1662 13.5407L69.2421 13.4025L69.318 13.2642C68.7059 12.928 68.0781 12.6242 67.4346 12.3527L67.3732 12.498ZM69.2421 13.4025L69.1662 13.5407C69.7736 13.8744 70.3818 14.2079 70.9908 14.5412L71.0665 14.4028L71.1422 14.2644C70.5334 13.9312 69.9254 13.5978 69.318 13.2642L69.2421 13.4025ZM71.0665 14.4028L70.9908 14.5412C71.5951 14.8719 72.1815 15.2317 72.7502 15.6207L72.8392 15.4905L72.9283 15.3603C72.351 14.9655 71.7557 14.6002 71.1422 14.2644L71.0665 14.4028ZM72.8392 15.4905L72.7502 15.6207C73.3194 16.01 73.8706 16.423 74.404 16.8597L74.5039 16.7377L74.6039 16.6156C74.0635 16.1732 73.5049 15.7547 72.9283 15.3603L72.8392 15.4905ZM74.5039 16.7377L74.404 16.8597C74.9397 17.2983 75.4679 17.7444 75.9888 18.198L76.0924 18.079L76.196 17.9601C75.6727 17.5044 75.142 17.0562 74.6039 16.6156L74.5039 16.7377ZM76.0924 18.079L75.9888 18.198C76.5096 18.6515 77.0228 19.1131 77.5285 19.5826L77.6358 19.467L77.7431 19.3514C77.235 18.8796 76.7193 18.4158 76.196 17.9601L76.0924 18.079ZM77.6358 19.467L77.5285 19.5826C78.035 20.0529 78.5397 20.5258 79.0427 21.0013L79.1511 20.8867L79.2594 20.7721C78.7557 20.2959 78.2503 19.8223 77.7431 19.3514L77.6358 19.467ZM79.1511 20.8867L79.0427 21.0013C79.5436 21.4749 80.029 21.9643 80.4988 22.4696L80.6143 22.3622L80.7298 22.2548C80.2554 21.7445 79.7652 21.2503 79.2594 20.7721L79.1511 20.8867ZM80.6143 22.3622L80.4988 22.4696C80.9665 22.9727 81.4013 23.5028 81.8033 24.0601L81.9313 23.9678L82.0592 23.8755C81.6495 23.3077 81.2064 22.7674 80.7298 22.2548L80.6143 22.3622ZM81.9313 23.9678L81.8033 24.0601C82.2094 24.623 82.6176 25.1834 83.0278 25.7412L83.1549 25.6478L83.2819 25.5543C82.8723 24.9973 82.4647 24.4377 82.0592 23.8755L81.9313 23.9678ZM83.1549 25.6478L83.0278 25.7412C83.4358 26.296 83.8261 26.863 84.1988 27.4421L84.3315 27.3567L84.4641 27.2713C84.0878 26.6868 83.6938 26.1144 83.2819 25.5543L83.1549 25.6478ZM84.3315 27.3567L84.1988 27.4421C84.5729 28.0232 84.942 28.6077 85.3062 29.1957L85.4403 29.1126L85.5743 29.0295C85.2092 28.44 84.8391 27.854 84.4641 27.2713L84.3315 27.3567ZM85.4403 29.1126L85.3062 29.1957C85.6684 29.7804 86.0034 30.3802 86.3112 30.9953L86.4523 30.9247L86.5933 30.8541C86.2812 30.2305 85.9415 29.6223 85.5743 29.0295L85.4403 29.1126ZM86.4523 30.9247L86.3112 30.9953C86.6203 31.6129 86.9172 32.236 87.2018 32.8648L87.3455 32.7997L87.4892 32.7347C87.2028 32.1022 86.9042 31.4753 86.5933 30.8541L86.4523 30.9247ZM87.3455 32.7997L87.2018 32.8648C87.4868 33.4943 87.7646 34.1273 88.0353 34.7637L88.1804 34.7019L88.3256 34.6402C88.0539 34.0016 87.7751 33.3664 87.4892 32.7347L87.3455 32.7997ZM88.1804 34.7019L88.0353 34.7637C88.3043 35.3963 88.5405 36.0409 88.7439 36.6976L88.8946 36.6509L89.0452 36.6043C88.8387 35.9374 88.5988 35.2827 88.3256 34.6402L88.1804 34.7019ZM88.8946 36.6509L88.7439 36.6976C88.9491 37.3603 89.1603 38.0213 89.3773 38.6807L89.5271 38.6314L89.6769 38.5821C89.4605 37.9244 89.2499 37.2652 89.0452 36.6043L88.8946 36.6509ZM89.5271 38.6314L89.3773 38.6807C89.5921 39.3334 89.7687 39.9963 89.9068 40.6694L90.0613 40.6377L90.2159 40.606C90.0752 39.921 89.8956 39.2463 89.6769 38.5821L89.5271 38.6314ZM90.0613 40.6377L89.9068 40.6694C90.0458 41.3462 90.1702 42.0253 90.28 42.7065L90.4358 42.6814L90.5915 42.6563C90.4809 41.9706 90.3557 41.2872 90.2159 40.606L90.0613 40.6377ZM90.4358 42.6814L90.28 42.7065C90.3903 43.3906 90.5051 44.0745 90.6243 44.758L90.7797 44.7309L90.9351 44.7038C90.8161 44.0216 90.7015 43.3391 90.5915 42.6563L90.4358 42.6814ZM90.7797 44.7309L90.6243 44.758C90.7423 45.4345 90.8183 46.1156 90.8522 46.8014L91.0097 46.7936L91.1673 46.7858C91.1327 46.0871 91.0553 45.3931 90.9351 44.7038L90.7797 44.7309ZM91.0097 46.7936L90.8522 46.8014C90.8865 47.4945 90.9267 48.1873 90.9728 48.8799L91.1302 48.8694L91.2876 48.8589C91.2416 48.1681 91.2015 47.4771 91.1673 46.7858L91.0097 46.7936ZM91.1302 48.8694L90.9728 48.8799C90.9958 49.2253 91.0117 49.496 91.0204 49.6925C91.0295 49.895 91.0303 50.006 91.0265 50.0423L91.1833 50.0588L91.3402 50.0752C91.347 50.0103 91.3442 49.8725 91.3356 49.6785C91.3267 49.4785 91.3106 49.2052 91.2876 48.8589L91.1302 48.8694ZM91.1833 50.0588L91.0265 50.0423C91.0149 50.1529 91.0051 50.5603 90.9963 51.2485L91.154 51.2506L91.3117 51.2526C91.3207 50.5543 91.3305 50.1672 91.3402 50.0752L91.1833 50.0588Z" fill="#F1E6E6"/>
<path fill-rule="evenodd" clip-rule="evenodd" d="M49.9473 12.222C50.8424 11.7056 51.6964 12.3267 52.4199 13.3929C53.2988 14.4563 53.0038 15.0643 53.3125 15.2191C53.6279 15.3768 53.6282 14.746 55.2051 14.5882V14.5931C56.7587 14.4331 58.0568 14.6927 58.1797 15.8695C58.3028 17.0495 57.079 17.5699 55.5195 17.7328C55.3883 17.7465 55.2606 17.7501 55.1367 17.7494C53.9092 17.886 52.9937 17.547 53.1553 18.0316C53.4181 18.8201 53.7862 19.924 54.1016 21.3431C54.4036 22.7024 54.7324 23.9222 54.7324 24.5531L53.6279 24.0247C53.6279 23.604 53.5896 22.489 53.1553 21.1859C52.8398 20.2395 52.8394 19.4506 52.3662 18.5042C52.0507 17.8737 51.4199 18.5048 50.1582 19.6087C49.2311 20.4199 48.1074 21.659 47.792 22.1322C47.5397 22.5104 47.3714 21.924 47.1611 21.556C47.3189 20.9251 49.6444 18.7654 50.4736 18.1888C51.8391 17.2394 51.3991 17.0171 50.6924 16.3158C50.4802 16.1317 50.2802 15.9029 50.1016 15.6283C50.0133 15.5037 49.9243 15.3696 49.8428 15.2201L49.8584 15.2142C49.1843 13.9514 48.9844 12.7779 49.9473 12.222Z" fill="#56614F"/>
<circle cx="46.3723" cy="24.0813" r="2.83912" fill="#B22013"/>
<circle cx="53.9436" cy="26.2903" r="2.83912" fill="#B22013"/>
</svg>
