<svg width="80" height="77" viewBox="0 0 80 77" fill="none" xmlns="http://www.w3.org/2000/svg">
<path d="M55.0795 44.1305C54.3712 45.185 54.2768 46.5071 54.2768 47.7819C54.2768 49.0567 54.387 50.3316 54.025 51.5434C53.4584 53.4636 51.6642 54.9588 49.6653 55.1634C48.9256 55.242 48.1702 55.1634 47.4619 55.3365C46.7537 55.5096 46.0297 56.0605 46.014 56.8002C45.9825 57.6816 46.9111 58.2954 47.7767 58.5C50.2634 59.0823 53.0177 57.9334 54.8277 56.2336C57.1412 54.0774 56.4645 51.7953 56.9681 49.0567C57.157 47.9865 57.7708 47.0579 58.1957 46.0506C58.6836 44.9017 59.0614 43.6426 57.5977 43.0917C56.5589 42.714 55.6146 43.2806 55.0795 44.099V44.1305Z" fill="#F39B4A"/>
<path d="M41.2294 38.1814C44.6919 39.2516 46.4861 42.2577 47.7137 45.4212C48.422 47.2469 48.9099 49.1355 49.445 51.0399C50.2476 54.0617 49.8384 57.7446 47.336 59.586C45.7149 60.7822 43.6059 60.971 41.5913 61.0812C36.4605 61.3488 30.2909 61.1756 29.3151 54.8959C28.9059 52.2518 29.8345 50.4733 30.5585 48.0181C31.4556 44.9805 32.6832 41.1088 35.3903 39.2673C37.0743 38.1184 39.262 37.5833 41.2294 38.1814Z" fill="#F39B4A"/>
<path d="M32.3213 41.9899C31.6603 43.4064 31.0307 44.8543 30.4484 46.3023C29.8661 47.7503 29.3152 49.1038 28.9375 50.5517C28.2764 53.1014 28.2292 55.9029 29.6772 58.2008C30.4012 59.3497 31.4085 60.2153 32.6676 60.7032C33.3758 60.9708 33.6906 59.8376 32.9823 59.57C30.2438 58.5155 29.4096 55.1947 29.7401 52.5663C29.9448 50.8665 30.5428 49.2297 31.1724 47.6401C31.8491 45.9246 32.5731 44.2405 33.3443 42.5722C33.6591 41.8797 32.6518 41.2816 32.3213 41.9741V41.9899Z" fill="#231F20"/>
<path d="M32.7937 55.9973C32.8252 56.9731 32.9196 57.9647 33.1242 58.909C33.2973 59.7432 33.7065 60.5931 34.5092 60.9865C34.9342 61.1911 35.3749 61.2698 35.8313 61.2856C36.2562 61.2856 36.7284 61.2541 37.1376 61.1597C37.6255 61.0495 38.0504 60.7504 38.2865 60.3098C38.4911 59.932 38.5856 59.5071 38.6485 59.0821C38.8216 57.9804 38.8689 56.863 38.7429 55.7455C38.7272 55.5881 38.6957 55.4465 38.5698 55.3206C38.4596 55.2104 38.3023 55.1475 38.1449 55.1475C37.8616 55.1475 37.5153 55.415 37.5468 55.7455C37.6412 56.6269 37.6412 57.5083 37.5468 58.3896C37.5468 58.4526 37.5468 58.4998 37.5311 58.5628C37.5311 58.5942 37.5311 58.61 37.5311 58.6415C37.5311 58.7359 37.5311 58.5313 37.5311 58.6415C37.5153 58.7516 37.4996 58.8618 37.4838 58.972C37.4524 59.1451 37.4209 59.334 37.3737 59.5071C37.3737 59.5543 37.3422 59.5858 37.3265 59.633C37.3265 59.6487 37.3265 59.6645 37.3107 59.6802C37.295 59.7432 37.3422 59.6173 37.3422 59.6173C37.3107 59.6487 37.3107 59.696 37.295 59.7274C37.2792 59.7746 37.2478 59.8061 37.2163 59.8533C37.2163 59.8533 37.2005 59.8848 37.1848 59.9006C37.1848 59.9006 37.2635 59.8061 37.2163 59.8533C37.1848 59.8848 37.1533 59.9163 37.1219 59.9478C37.2005 59.9006 37.1219 59.9478 37.1061 59.9478C37.0746 59.9635 36.9959 59.995 36.9802 60.0107C37.0117 59.9635 37.0746 59.9793 37.0117 60.0107C36.9959 60.0107 36.9802 60.0107 36.9487 60.0265C36.9015 60.0265 36.8543 60.0579 36.8071 60.0579C36.7599 60.0579 36.7284 60.0737 36.6812 60.0894C36.6497 60.0894 36.634 60.0894 36.6025 60.0894C36.5238 60.0894 36.6025 60.0894 36.634 60.0894C36.5553 60.1209 36.4451 60.1052 36.3664 60.1209C36.272 60.1209 36.1933 60.1209 36.0988 60.1366C35.9257 60.1366 35.7368 60.1366 35.5637 60.1366C35.548 60.1366 35.5322 60.1366 35.5008 60.1366C35.4378 60.1366 35.5637 60.1366 35.5637 60.1366C35.5165 60.1366 35.4693 60.1366 35.4378 60.1209C35.3434 60.1052 35.2489 60.0737 35.1703 60.0422C35.1388 60.0422 35.1073 60.0107 35.0601 60.0107C35.0601 60.0107 35.186 60.0737 35.0916 60.0107C35.0758 60.0107 35.0601 59.995 35.0443 59.9793C34.9656 59.932 34.887 59.8848 34.824 59.8376C34.761 59.7904 34.9027 59.9163 34.8555 59.8533C34.8555 59.8533 34.824 59.8219 34.8083 59.8219C34.7768 59.7904 34.7453 59.7589 34.7138 59.7274C34.6823 59.696 34.6666 59.6802 34.6351 59.6487C34.6351 59.633 34.5722 59.57 34.6351 59.6487C34.5879 59.5858 34.5564 59.5228 34.5092 59.4441C34.4935 59.4127 34.462 59.3654 34.4463 59.334C34.4463 59.3182 34.4463 59.3025 34.4305 59.2867C34.5092 59.4127 34.462 59.3497 34.4305 59.3025C34.3676 59.1451 34.3204 58.972 34.2731 58.7988C34.2259 58.5942 34.1944 58.4054 34.163 58.2008C34.1472 58.0749 34.1315 57.9647 34.1158 57.8388C34.1158 57.823 34.1 57.7129 34.1158 57.7916C34.1315 57.8703 34.1158 57.7601 34.1158 57.7443C34.1158 57.6814 34.1 57.6184 34.1 57.5555C34.0371 57.0518 34.0056 56.5482 33.9898 56.0288C33.9898 55.7141 33.7223 55.4308 33.3918 55.4308C33.0613 55.4308 32.7937 55.6826 32.7937 56.0288V55.9973Z" fill="#231F20"/>
<path d="M45.5731 42.5882C46.3443 44.2565 47.0683 45.9406 47.7451 47.6561C48.3746 49.2457 48.9727 50.8825 49.1773 52.5823C49.5078 55.2107 48.6736 58.5315 45.9351 59.586C45.2269 59.8536 45.5416 61.0025 46.2499 60.7192C48.5005 59.8536 49.917 57.6974 50.3105 55.3681C50.7984 52.4407 49.7753 49.5447 48.7051 46.8691C48.0441 45.2323 47.3516 43.6112 46.5961 42.0059C46.2814 41.3134 45.2583 41.9114 45.5731 42.6039V42.5882Z" fill="#231F20"/>
<path d="M44.9596 55.9975C44.9596 56.4539 44.9124 56.8946 44.8652 57.351C44.8652 57.4612 44.8494 57.5556 44.8337 57.6658C44.8337 57.6973 44.8337 57.713 44.8337 57.7445C44.8337 57.8074 44.8179 57.8704 44.8022 57.9333C44.7707 58.1222 44.7392 58.3111 44.7078 58.5157C44.6763 58.6888 44.6291 58.8619 44.5819 59.035C44.5504 59.1137 44.5346 59.1924 44.5032 59.2711L44.4717 59.3341C44.4717 59.3341 44.5189 59.2239 44.4874 59.2711C44.4717 59.3183 44.4402 59.3656 44.4245 59.397C44.393 59.46 44.3458 59.5387 44.2986 59.6016C44.2986 59.6174 44.2671 59.6489 44.2513 59.6646C44.2513 59.6646 44.33 59.5702 44.2828 59.6174C44.2513 59.6489 44.2199 59.6961 44.1884 59.7276C44.1569 59.759 44.1412 59.7748 44.1097 59.8062C44.094 59.822 44.0782 59.8377 44.0467 59.8535C43.9995 59.9007 44.094 59.822 44.094 59.822C44.0153 59.8535 43.9523 59.9164 43.8736 59.9636C43.8579 59.9636 43.7162 60.0423 43.8107 59.9951C43.8894 59.9636 43.7634 59.9951 43.7477 60.0108C43.669 60.0423 43.5746 60.0581 43.4959 60.0738C43.4487 60.0738 43.4015 60.0738 43.37 60.0895C43.307 60.0895 43.4329 60.0895 43.4329 60.0895H43.3542C43.2598 60.0895 43.1811 60.0895 43.0867 60.0895C42.8978 60.0895 42.7247 60.0895 42.5358 60.0738C42.4571 60.0738 42.3627 60.0581 42.284 60.0423C42.221 60.0423 42.347 60.0423 42.347 60.0423C42.3155 60.0423 42.284 60.0423 42.2683 60.0423C42.221 60.0423 42.1581 60.0266 42.1109 60.0108C42.0637 60.0108 42.0322 59.9951 41.985 59.9794C41.9535 59.9794 41.9377 59.9636 41.9063 59.9479C41.8905 59.9479 41.8591 59.9164 41.8433 59.9007C41.8276 59.9007 41.8118 59.8849 41.7961 59.8692C41.7331 59.8377 41.8748 59.9479 41.8276 59.9007C41.7961 59.8692 41.7646 59.8377 41.7331 59.8062C41.6859 59.7433 41.6545 59.6646 41.6072 59.5859C41.5758 59.5229 41.6387 59.6489 41.6387 59.6489C41.6387 59.6331 41.623 59.6016 41.6072 59.5859C41.6072 59.5544 41.5915 59.5229 41.5758 59.4757C41.5443 59.3813 41.5285 59.3026 41.5128 59.2082C41.4656 59.0036 41.4341 58.799 41.4026 58.5944C41.4026 58.5314 41.4026 58.6258 41.4026 58.6258C41.4026 58.5944 41.4026 58.5629 41.4026 58.5314C41.4026 58.4684 41.4026 58.4055 41.3869 58.3425C41.3869 58.2166 41.3554 58.0907 41.3554 57.9648C41.3397 57.713 41.3239 57.4769 41.3239 57.2251C41.3239 56.7215 41.3397 56.2178 41.4026 55.7299C41.4341 55.4151 41.1036 55.1318 40.8046 55.1318C40.4583 55.1318 40.2537 55.3994 40.2065 55.7299C40.0963 56.69 40.1121 57.65 40.238 58.6101C40.3639 59.5702 40.5055 60.6247 41.4813 61.0339C41.9063 61.207 42.3784 61.2542 42.8191 61.2699C43.2441 61.2857 43.6847 61.2699 44.094 61.1283C44.5189 60.9866 44.9124 60.7506 45.1957 60.3886C45.479 60.0266 45.6678 59.6174 45.778 59.1924C45.9197 58.6888 45.9826 58.1537 46.0456 57.6343C46.1085 57.0834 46.1557 56.5483 46.1715 55.9975C46.1715 55.6827 45.8882 55.3994 45.5734 55.3994C45.2429 55.3994 44.9911 55.6512 44.9753 55.9975H44.9596Z" fill="#231F20"/>
<path d="M51.9319 55.0533C53.5215 54.2979 54.2612 52.5037 54.4816 50.8511C54.7176 49.0097 54.4029 46.9636 55.2842 45.2481C55.4731 44.8704 55.7092 44.5398 56.0082 44.2566C56.26 44.0205 56.7322 43.6427 57.1099 43.7372C57.8497 43.9103 58.1644 42.7771 57.4247 42.604C56.4646 42.3836 55.5046 43.0289 54.9065 43.7214C54.3084 44.4139 53.9465 45.2324 53.7419 46.098C53.2697 48.0811 53.6946 50.1901 52.9707 52.1259C52.6716 52.9443 52.1365 53.6526 51.3338 54.0303C51.0505 54.172 50.9718 54.5812 51.1292 54.833C51.3023 55.132 51.6486 55.1792 51.9319 55.0376V55.0533Z" fill="#231F20"/>
<path d="M48.9256 59.0191C51.7586 59.145 54.4814 57.6184 56.071 55.3048C56.9051 54.0771 57.2986 52.7079 57.4245 51.2442C57.4875 50.41 57.4875 49.5601 57.6134 48.726C57.7393 47.8918 58.0541 47.215 58.479 46.5068C58.904 45.7986 59.2659 44.9801 59.0299 44.1145C58.8253 43.3591 58.2429 42.761 57.4403 42.7452C56.6848 42.7138 56.6848 43.8942 57.4403 43.9257C57.8337 43.9257 57.9596 44.5237 57.9124 44.8385C57.8337 45.4995 57.3301 46.0661 57.031 46.6485C56.3543 47.9862 56.3543 49.4814 56.2598 50.9451C56.1812 52.22 55.8979 53.3846 55.2211 54.4706C54.5915 55.4779 53.7102 56.312 52.6872 56.9101C51.5382 57.5869 50.2476 57.9331 48.9099 57.8702C48.1544 57.8387 48.1544 59.0191 48.9099 59.0506L48.9256 59.0191Z" fill="#231F20"/>
<path d="M34.8079 59.1293C34.8079 59.2395 34.8079 59.3497 34.8393 59.4756C34.8393 59.5543 34.8708 59.6329 34.8866 59.7116C34.918 59.8218 34.9653 59.932 35.0125 60.0264C35.0439 60.1051 35.0912 60.1681 35.1384 60.2468C35.1699 60.294 35.2013 60.3255 35.2328 60.3569C35.2643 60.3884 35.3115 60.4199 35.3745 60.4199C35.4217 60.4356 35.4846 60.4356 35.5318 60.4199C35.5791 60.4199 35.6263 60.4041 35.6735 60.3727C35.7522 60.3255 35.8309 60.231 35.8466 60.1366C35.8624 60.0422 35.8624 59.9162 35.7994 59.8376C35.7364 59.7589 35.6892 59.6644 35.6578 59.57L35.705 59.6644C35.642 59.5385 35.6105 59.3969 35.5948 59.2552V59.3654C35.5948 59.3654 35.5948 59.208 35.5948 59.1293C35.5948 59.0821 35.5948 59.0191 35.5633 58.9719C35.5476 58.9247 35.5161 58.8775 35.4846 58.846C35.4532 58.8145 35.4059 58.7831 35.3587 58.7673C35.3115 58.7358 35.2643 58.7358 35.2013 58.7358C35.1069 58.7358 34.9967 58.7673 34.918 58.846C34.8393 58.9247 34.8079 59.0191 34.8079 59.1293Z" fill="#231F20"/>
<path d="M36.1144 59.4913L36.2561 60.2783C36.2561 60.2783 36.2875 60.3727 36.319 60.4199C36.3505 60.4671 36.382 60.4986 36.4292 60.5143C36.4764 60.5458 36.5236 60.5615 36.5708 60.5615C36.6181 60.5615 36.681 60.5615 36.7282 60.5615L36.8227 60.5143C36.8227 60.5143 36.9328 60.4356 36.9643 60.3727L37.0115 60.2783C37.0115 60.2783 37.0273 60.1366 37.0115 60.0736L36.8699 59.2867C36.8699 59.2867 36.8384 59.1923 36.8069 59.1451C36.7754 59.0978 36.744 59.0664 36.6968 59.0506C36.6495 59.0192 36.6023 59.0034 36.5551 59.0034C36.5079 59.0034 36.4449 59.0034 36.3977 59.0034L36.3033 59.0506C36.3033 59.0506 36.1931 59.1293 36.1616 59.1923L36.1144 59.2867C36.1144 59.2867 36.0987 59.4284 36.1144 59.4913Z" fill="#231F20"/>
<path d="M42.0167 59.0191C41.9852 59.1293 41.9695 59.2394 41.9695 59.3496C41.9695 59.4283 41.9695 59.507 41.9695 59.6014C41.9695 59.7116 42.001 59.8218 42.0324 59.9319C42.0639 60.0421 42.1111 60.1523 42.1583 60.2467C42.1898 60.2939 42.2213 60.3254 42.2528 60.3569C42.2843 60.3884 42.3315 60.4198 42.3944 60.4198C42.4416 60.4356 42.5046 60.4356 42.5518 60.4198C42.599 60.4198 42.6462 60.4041 42.6935 60.3726C42.7722 60.3254 42.8509 60.231 42.8666 60.1365V60.0264C42.8666 60.0264 42.8666 59.8847 42.8194 59.8218C42.8194 59.806 42.8036 59.7903 42.7879 59.7588L42.8351 59.8532C42.7879 59.7431 42.7564 59.6329 42.7407 59.507V59.6172C42.7407 59.4913 42.7407 59.3811 42.7407 59.2552V59.3653C42.7407 59.3653 42.7407 59.2552 42.7564 59.208C42.7722 59.1607 42.7722 59.0978 42.7564 59.0506C42.7564 59.0034 42.7407 58.9561 42.7092 58.9089C42.6777 58.8617 42.6462 58.8302 42.6148 58.7988C42.5833 58.7673 42.5361 58.7358 42.4731 58.7358C42.3787 58.7201 42.2528 58.7201 42.1741 58.783C42.0954 58.846 42.0167 58.9247 42.001 59.0191H42.0167Z" fill="#231F20"/>
<path d="M43.2916 59.3655C43.2916 59.3655 43.3073 59.4599 43.3231 59.4914V59.3812C43.3231 59.5071 43.3231 59.633 43.3231 59.7432V59.633C43.3231 59.7589 43.2916 59.8691 43.2444 59.9793L43.2916 59.8848C43.2916 59.8848 43.2758 59.932 43.2601 59.9478C43.2286 59.995 43.2129 60.0422 43.2129 60.0894C43.2129 60.1367 43.2129 60.1996 43.2129 60.2468C43.2129 60.294 43.2444 60.3413 43.2758 60.3885C43.3073 60.4357 43.3388 60.4672 43.386 60.4829C43.4805 60.5301 43.5906 60.5616 43.6851 60.5301C43.7795 60.4986 43.8739 60.4357 43.9211 60.357C43.9684 60.2626 44.0156 60.1524 44.047 60.0422C44.0785 59.9321 44.0943 59.8219 44.11 59.7117C44.11 59.633 44.11 59.5543 44.11 59.4756C44.11 59.3655 44.0943 59.2553 44.0628 59.1451C44.0628 59.0979 44.0313 59.0507 43.9998 59.0035C43.9683 58.9562 43.9369 58.9248 43.8897 58.909C43.8424 58.8776 43.7952 58.8618 43.748 58.8618C43.7008 58.8618 43.6378 58.8618 43.5906 58.8618C43.4962 58.8933 43.4018 58.9562 43.3545 59.0349L43.3073 59.1294C43.3073 59.1294 43.2916 59.271 43.3073 59.334L43.2916 59.3655Z" fill="#231F20"/>
<path d="M21.2727 19.6567C21.3514 21.5769 21.6505 23.5442 22.0911 25.3699C22.5476 27.2743 22.941 28.9269 22.2643 30.7998C21.7606 32.2005 21.6819 33.68 21.8236 35.1751C22.1069 38.197 23.3502 41.3132 25.6166 43.3908C29.1578 46.6015 34.4146 46.869 39.1992 46.6802C41.859 46.57 44.5346 46.3969 47.1 45.6571C49.6654 44.9174 52.1207 43.6268 53.8362 41.5965C54.5287 40.7781 55.0953 39.8653 55.5045 38.8895C56.134 37.3786 56.6219 35.4427 56.5432 33.7901C56.4803 32.6412 56.1183 31.571 55.9609 30.4535C55.8035 29.2888 56.2914 28.1871 56.5905 27.0854C56.9052 25.8735 56.9524 24.6144 56.9839 23.3711C57.0311 21.7028 57.0941 20.0345 57.1413 18.3504C57.2043 16.1942 57.2672 13.9593 56.4173 11.9762C56.3386 11.8031 56.2442 11.63 56.0711 11.567C55.9294 11.5198 55.7878 11.567 55.6461 11.63C51.5541 13.3298 48.0758 16.4933 46.014 20.4122C43.5745 19.9086 40.9619 19.7827 38.4752 19.8928C37.0429 19.9558 35.595 19.8299 34.1628 20.003C33.2499 20.1132 32.9824 20.4279 32.3528 19.7669C31.8177 19.2003 31.3927 18.4763 30.9048 17.8783C28.8588 15.3286 26.4193 12.9048 23.2873 11.7559C22.3115 11.3939 21.9652 11.992 21.8393 12.9363C21.6977 14.0852 21.5403 15.2499 21.3986 16.3988C21.3357 16.8867 21.2727 17.3904 21.257 17.8783C21.2413 18.4606 21.257 19.0429 21.257 19.6253L21.2727 19.6567Z" fill="#F39B4A"/>
<path d="M42.9452 35.5526C42.7248 35.4582 42.5045 35.3637 42.2684 35.3008C40.065 34.5611 37.9403 34.6083 35.7998 35.5054C34.3046 36.1349 32.8409 37.1894 32.3845 38.7476C31.6762 41.25 34.0213 42.9656 36.146 43.4535C38.1449 43.9099 40.2853 43.8469 42.2527 43.2803C44.5663 42.6036 47.0372 40.6677 45.7152 37.9921C45.1643 36.8589 44.0941 36.072 42.9294 35.5526H42.9452Z" fill="white"/>
<path d="M23.8857 14.7462C23.6182 14.8564 23.4293 15.0768 23.3663 15.486C23.1145 17.2015 23.3349 18.6967 23.5395 20.3807C23.7756 22.411 24.1533 24.4098 24.4838 26.4244C25.4124 25.1653 26.5613 24.0793 27.8362 23.0563C28.6546 22.3953 30.1025 21.6713 29.8035 20.4594C29.41 18.9013 28.1194 16.6349 26.8131 15.6591C26.1678 15.1712 24.6884 14.4315 23.8857 14.762V14.7462Z" fill="#F9BDBE"/>
<path d="M51.4913 24.1892C52.1995 24.9604 52.955 25.6686 53.6317 26.487C53.7734 26.6444 53.978 27.3054 54.2613 27.1638C54.4344 27.0693 54.4974 26.849 54.5288 26.6444C55.0482 23.5124 55.5676 20.3489 55.4574 17.1697C55.4102 15.9735 55.2843 13.8331 53.5845 14.4626C53.1596 14.62 52.8133 14.919 52.4828 15.2338C52.1366 15.5643 47.6982 20.9627 48.4222 21.2775C49.6971 21.8283 50.6099 23.2134 51.4913 24.1892Z" fill="#F9BDBE"/>
<path d="M30.9206 34.8289C31.7724 34.8289 32.463 34.1384 32.463 33.2865C32.463 32.4347 31.7724 31.7441 30.9206 31.7441C30.0687 31.7441 29.3782 32.4347 29.3782 33.2865C29.3782 34.1384 30.0687 34.8289 30.9206 34.8289Z" fill="#231F20"/>
<path d="M46.9269 34.8289C47.7788 34.8289 48.4693 34.1384 48.4693 33.2865C48.4693 32.4347 47.7788 31.7441 46.9269 31.7441C46.0751 31.7441 45.3845 32.4347 45.3845 33.2865C45.3845 34.1384 46.0751 34.8289 46.9269 34.8289Z" fill="#231F20"/>
<path d="M38.9316 35.9149C39.6966 35.9149 40.3166 35.5273 40.3166 35.0492C40.3166 34.5712 39.6966 34.1836 38.9316 34.1836C38.1667 34.1836 37.5466 34.5712 37.5466 35.0492C37.5466 35.5273 38.1667 35.9149 38.9316 35.9149Z" fill="#231F20"/>
<path d="M29.866 22.2382C35.4375 19.9561 41.733 19.7672 47.4462 21.7346C48.1702 21.9864 48.4692 20.8375 47.761 20.6014C41.8904 18.5711 35.3116 18.7442 29.567 21.105C29.2679 21.2309 29.0633 21.4985 29.1578 21.829C29.2365 22.1123 29.5827 22.3641 29.8817 22.2382H29.866Z" fill="#231F20"/>
<path d="M22.5633 12.1493C22.9253 12.228 23.2873 12.3224 23.6336 12.4641C23.8224 12.527 23.8539 12.5585 24.0585 12.6529C24.2631 12.7474 24.452 12.8418 24.6409 12.952C25.4121 13.3769 26.1518 13.8963 26.7971 14.4157C28.1821 15.5331 29.5356 16.9181 30.5744 18.2717C31.0937 18.9484 31.5816 19.6724 31.9594 20.4279C32.101 20.7112 32.5102 20.7899 32.762 20.6325C33.0611 20.4594 33.1083 20.1131 32.9667 19.8298C32.2112 18.3032 31.0937 16.9496 29.9448 15.722C28.6228 14.3213 27.1433 13.0307 25.475 12.0706C24.6723 11.5985 23.791 11.205 22.8781 11.0161C22.5633 10.9532 22.2486 11.1106 22.1541 11.4253C22.0754 11.7086 22.2486 12.0864 22.5633 12.1493Z" fill="#231F20"/>
<path d="M21.383 12.8578C20.9896 15.4232 20.8007 18.0201 20.9424 20.6012C21.0525 22.5843 21.3358 24.5674 21.6821 26.519C21.8552 27.4633 22.0283 28.4077 22.17 29.352C22.2172 29.6668 22.6107 29.8399 22.894 29.7612C23.2245 29.6668 23.3504 29.352 23.3032 29.0372C23.0513 27.3532 22.7051 25.6849 22.4533 23.9851C22.1542 21.8918 22.0126 19.7671 22.0913 17.6581C22.1385 16.1472 22.2959 14.652 22.5162 13.1726C22.5634 12.8578 22.4375 12.543 22.107 12.4486C21.8237 12.3699 21.4303 12.543 21.383 12.8578Z" fill="#231F20"/>
<path d="M24.893 15.3919C24.893 15.3919 24.9717 15.4548 25.0189 15.4863C25.0347 15.4863 25.0504 15.5178 25.0662 15.5178C25.1606 15.5965 24.956 15.4233 25.0662 15.5178C25.1606 15.5965 25.255 15.6594 25.3337 15.7381C25.5226 15.8955 25.7114 16.0686 25.8846 16.2418C26.2938 16.6352 26.6873 17.0602 27.0492 17.4851C27.2381 17.7055 27.427 17.9415 27.6158 18.1776C27.6788 18.2563 27.5371 18.0675 27.6158 18.1776C27.6316 18.2091 27.6473 18.2248 27.6631 18.2563C27.7103 18.3193 27.7575 18.3822 27.8047 18.4452C27.8991 18.5711 27.9778 18.6813 28.0723 18.8072C28.387 19.2636 28.6861 19.7358 28.9379 20.2237C29.0008 20.3496 29.0638 20.4755 29.111 20.6014C29.111 20.6329 29.1268 20.6643 29.1425 20.6801C29.1268 20.6329 29.0638 20.5384 29.1425 20.6801C29.1582 20.743 29.1897 20.7903 29.2054 20.8532C29.2841 21.0735 29.3471 21.2939 29.3786 21.5142C29.4258 21.8133 29.835 22.0179 30.1026 21.9234C30.4331 21.8133 30.559 21.53 30.5118 21.1995C30.4488 20.7116 30.2442 20.2551 30.0396 19.8144C29.8035 19.3265 29.5202 18.8544 29.2054 18.398C28.5129 17.3749 27.726 16.4149 26.8446 15.5493C26.4197 15.14 25.979 14.7308 25.4911 14.4003C25.2393 14.2272 24.8301 14.3531 24.6884 14.6049C24.531 14.904 24.6255 15.2187 24.893 15.4076V15.3919Z" fill="#231F20"/>
<path d="M56.9683 27.5105C57.7867 23.3869 58.2274 19.2004 57.6765 15.0139C57.5349 13.9279 57.3303 12.842 57.1257 11.7717C57.0312 11.331 56.8896 10.8589 56.3702 10.7487C55.8508 10.6385 55.3315 11.0163 54.8908 11.2366C53.1595 12.1337 51.5384 13.2669 50.0747 14.5417C48.3749 16.0212 46.8955 17.7525 45.6679 19.6411C45.2587 20.2864 46.2659 20.8687 46.6909 20.2392C48.674 17.2016 51.3496 14.6519 54.4658 12.8262C54.8436 12.6059 55.2213 12.4013 55.599 12.1967C55.6777 12.1495 56.1656 11.9763 56.1814 11.9134L56.0397 11.8347C55.9138 11.7088 55.8666 11.7245 55.9295 11.8504C55.9138 11.9606 55.9925 12.1337 56.0082 12.2596C56.1971 13.2197 56.386 14.1798 56.5119 15.1556C56.7637 17.1544 56.8109 19.1689 56.6693 21.1678C56.5276 23.1666 56.2128 25.1969 55.8194 27.1957C55.6777 27.9354 56.8109 28.2502 56.9525 27.5105H56.9683Z" fill="#231F20"/>
<path d="M53.2541 14.3683C52.357 14.9978 51.5701 15.8005 50.8618 16.6347C50.0749 17.5475 49.3352 18.5391 48.7843 19.6093C48.5325 20.0972 48.3122 20.6166 48.2335 21.1674C48.1862 21.4665 48.3122 21.8127 48.6427 21.8914C48.926 21.9544 49.3194 21.8127 49.3666 21.4822C49.3981 21.2776 49.4453 21.0887 49.5083 20.8999C49.5398 20.8054 49.5712 20.711 49.6185 20.6166C49.6657 20.4907 49.5555 20.7425 49.6185 20.6166C49.6185 20.6008 49.6342 20.5693 49.6499 20.5536C49.6814 20.4907 49.7129 20.4277 49.7286 20.3647C49.9647 19.8768 50.248 19.4047 50.547 18.964C50.7044 18.7279 50.8776 18.4918 51.0507 18.2558C51.0822 18.2243 51.1923 18.0669 51.1136 18.1771C51.1609 18.1141 51.2081 18.0511 51.2553 18.0039C51.3497 17.878 51.4442 17.7679 51.5386 17.6577C51.9006 17.217 52.294 16.792 52.7033 16.3828C52.9079 16.1782 53.1125 15.9894 53.3328 15.8005C53.4272 15.7218 53.5374 15.6274 53.6318 15.5487C53.6476 15.533 53.6791 15.5172 53.6948 15.5015C53.6476 15.533 53.5531 15.6116 53.6948 15.5015C53.742 15.47 53.7892 15.4228 53.8522 15.3913C54.104 15.2182 54.2457 14.8719 54.0568 14.5886C53.8994 14.3368 53.5217 14.1794 53.2541 14.384V14.3683Z" fill="#231F20"/>
<path d="M25.0506 25.0865C22.4222 27.9509 20.927 31.9328 21.3047 35.836C21.6825 39.7393 23.76 42.9342 26.9864 44.9016C28.7492 45.9718 30.8109 46.5699 32.8885 46.4912C33.6439 46.4597 33.6439 45.2793 32.8885 45.3108C29.5991 45.4209 26.4198 43.6897 24.4997 41.0456C22.4222 38.1969 21.9815 34.5455 22.9573 31.1931C23.5239 29.2415 24.5312 27.4316 25.9162 25.9206C26.4356 25.354 25.6014 24.5199 25.082 25.0865H25.0506Z" fill="#231F20"/>
<path d="M52.4672 25.9208C54.8595 28.5334 56.1815 32.1376 55.8825 35.6788C55.5835 39.22 53.6633 42.1159 50.7831 43.8629C49.1778 44.8387 47.3678 45.3581 45.4792 45.2951C44.7237 45.2637 44.7237 46.4441 45.4792 46.4755C49.1621 46.5857 52.6246 44.6499 54.8123 41.7382C57.1416 38.6377 57.6295 34.5456 56.5593 30.8627C55.9455 28.7065 54.8123 26.7234 53.3013 25.0709C52.782 24.5043 51.9478 25.3384 52.4672 25.905V25.9208Z" fill="#231F20"/>
</svg>
