<svg width="80" height="77" viewBox="0 0 80 77" fill="none" xmlns="http://www.w3.org/2000/svg">
<path d="M55.7626 45.8478C55.0543 46.9023 54.9599 48.2243 54.9599 49.4992C54.9599 50.774 55.0701 52.0488 54.7081 53.2607C54.1415 55.1809 52.3473 56.676 50.3485 56.8806C49.6087 56.9593 48.8533 56.8806 48.145 57.0538C47.4368 57.2269 46.7128 57.7777 46.6971 58.5175C46.6656 59.3988 47.5942 60.0126 48.4598 60.2172C50.9465 60.7996 53.7008 59.6507 55.5108 57.9509C57.8244 55.7947 57.1476 53.5125 57.6512 50.774C57.8401 49.7038 58.4539 48.7752 58.8788 47.7679C59.3667 46.619 59.7445 45.3599 58.2808 44.809C57.242 44.4313 56.2977 44.9979 55.7626 45.8163V45.8478Z" fill="#F39B4A"/>
<path d="M41.912 39.8977C45.3745 40.9679 47.1687 43.974 48.3963 47.1375C49.1046 48.9632 49.5925 50.8518 50.1276 52.7562C50.9303 55.778 50.5211 59.4609 48.0186 61.3023C46.3975 62.4985 44.2885 62.6874 42.274 62.7975C37.1431 63.0651 30.9736 62.892 29.9977 56.6122C29.5885 53.9681 30.5171 52.1896 31.2411 49.7344C32.1382 46.6968 33.3658 42.8251 36.0729 40.9836C37.7569 39.8347 39.9446 39.2996 41.912 39.8977Z" fill="#F39B4A"/>
<path d="M33.0044 43.7062C32.3434 45.1227 31.7138 46.5706 31.1315 48.0186C30.5492 49.4666 29.9983 50.8201 29.6206 52.2681C28.9596 54.8177 28.9123 57.6192 30.3603 59.9171C31.0843 61.066 32.0916 61.9316 33.3507 62.4195C34.0589 62.6871 34.3737 61.5539 33.6654 61.2864C30.9269 60.2319 30.0927 56.911 30.4233 54.2826C30.6279 52.5828 31.2259 50.946 31.8555 49.3564C32.5322 47.6409 33.2562 45.9568 34.0274 44.2885C34.3422 43.596 33.3349 42.9979 33.0044 43.6904V43.7062Z" fill="#231F20"/>
<path d="M33.4766 57.7132C33.508 58.689 33.6025 59.6805 33.8071 60.6248C33.9802 61.459 34.3894 62.3089 35.1921 62.7024C35.617 62.907 36.0577 62.9856 36.5141 63.0014C36.9391 63.0014 37.4112 62.9699 37.8205 62.8755C38.3084 62.7653 38.7333 62.4663 38.9694 62.0256C39.174 61.6479 39.2684 61.2229 39.3314 60.798C39.5045 59.6963 39.5517 58.5788 39.4258 57.4613C39.4101 57.304 39.3786 57.1623 39.2527 57.0364C39.1425 56.9262 38.9851 56.8633 38.8277 56.8633C38.5444 56.8633 38.1982 57.1308 38.2297 57.4613C38.3241 58.3427 38.3241 59.2241 38.2297 60.1055C38.2297 60.1684 38.2297 60.2156 38.2139 60.2786C38.2139 60.3101 38.2139 60.3258 38.2139 60.3573C38.2139 60.2471 38.2139 60.4517 38.2139 60.3573C38.1982 60.4674 38.1824 60.5776 38.1667 60.6878C38.1352 60.8609 38.1038 61.0498 38.0565 61.2229C38.0565 61.2701 38.0251 61.3016 38.0093 61.3488C38.0093 61.3646 38.0093 61.3803 37.9936 61.396C37.9778 61.459 38.0251 61.3331 38.0251 61.3331C37.9936 61.3646 37.9936 61.4118 37.9778 61.4433C37.9621 61.4905 37.9306 61.5219 37.8991 61.5692C37.8991 61.5692 37.8834 61.6006 37.8677 61.6164C37.8677 61.6164 37.9464 61.5219 37.8991 61.5692C37.8677 61.6006 37.8362 61.6321 37.8047 61.6636C37.8834 61.6164 37.8047 61.6636 37.789 61.6636C37.7575 61.6793 37.6788 61.7108 37.6631 61.7266C37.6945 61.6793 37.7575 61.6951 37.6945 61.7266C37.6788 61.7266 37.6631 61.7265 37.6316 61.7423C37.5844 61.7423 37.5372 61.7738 37.4899 61.7738C37.4427 61.7738 37.4112 61.7895 37.364 61.8052C37.3326 61.8052 37.3168 61.8052 37.2853 61.8052C37.2066 61.8052 37.2853 61.8052 37.3168 61.8052C37.2381 61.8367 37.1279 61.821 37.0493 61.8367C36.9548 61.8367 36.8761 61.8367 36.7817 61.8525C36.6086 61.8525 36.4197 61.8525 36.2466 61.8525C36.2308 61.8525 36.2151 61.8525 36.1836 61.8525C36.1207 61.8525 36.2466 61.8525 36.2466 61.8525C36.1994 61.8525 36.1521 61.8525 36.1207 61.8367C36.0262 61.821 35.9318 61.7895 35.8531 61.758C35.8216 61.758 35.7902 61.7266 35.7429 61.7266C35.7429 61.7266 35.8688 61.7895 35.7744 61.7266C35.7587 61.7266 35.7429 61.7108 35.7272 61.6951C35.6485 61.6479 35.5698 61.6006 35.5069 61.5534C35.4439 61.5062 35.5856 61.6321 35.5383 61.5692C35.5383 61.5692 35.5069 61.5377 35.4911 61.5377C35.4596 61.5062 35.4282 61.4747 35.3967 61.4433C35.3652 61.4118 35.3495 61.396 35.318 61.3646C35.255 61.2859 35.318 61.3488 35.318 61.3646C35.2708 61.3016 35.2393 61.2386 35.1921 61.16C35.1763 61.1285 35.1449 61.0813 35.1291 61.0498C35.1291 61.034 35.1291 61.0183 35.1134 61.0026C35.1921 61.1285 35.1449 61.0655 35.1134 61.0183C35.0504 60.8609 35.0032 60.6878 34.956 60.5147C34.9088 60.3101 34.8773 60.1212 34.8458 59.9166C34.8301 59.7907 34.8144 59.6805 34.7986 59.5546C34.7986 59.5389 34.7829 59.4287 34.7986 59.5074C34.8144 59.5861 34.7986 59.4759 34.7986 59.4602C34.7986 59.3972 34.7829 59.3343 34.7829 59.2713C34.7199 58.7677 34.6884 58.264 34.6727 57.7446C34.6727 57.4299 34.4051 57.1466 34.0746 57.1466C33.7441 57.1466 33.4766 57.3984 33.4766 57.7446V57.7132Z" fill="#231F20"/>
<path d="M46.2567 44.304C47.0279 45.9723 47.7519 47.6564 48.4286 49.3719C49.0582 50.9615 49.6563 52.5983 49.8609 54.2981C50.1914 56.9265 49.3572 60.2474 46.6187 61.3019C45.9104 61.5694 46.2252 62.7183 46.9335 62.4351C49.1841 61.5694 50.6006 59.4132 50.9941 57.0839C51.482 54.1565 50.4589 51.2606 49.3887 48.585C48.7277 46.9481 48.0352 45.327 47.2797 43.7217C46.9649 43.0292 45.9419 43.6273 46.2567 44.3198V44.304Z" fill="#231F20"/>
<path d="M45.6422 57.7133C45.6422 58.1697 45.595 58.6104 45.5478 59.0668C45.5478 59.177 45.532 59.2714 45.5163 59.3816C45.5163 59.4131 45.5163 59.4288 45.5163 59.4603C45.5163 59.5232 45.5006 59.5862 45.4848 59.6492C45.4533 59.838 45.4219 60.0269 45.3904 60.2315C45.3589 60.4046 45.3117 60.5777 45.2645 60.7509C45.233 60.8296 45.2173 60.9083 45.1858 60.9869L45.1543 61.0499C45.1543 61.0499 45.2015 60.9397 45.17 60.9869C45.1543 61.0342 45.1228 61.0814 45.1071 61.1129C45.0756 61.1758 45.0284 61.2545 44.9812 61.3175C44.9812 61.3332 44.9497 61.3647 44.934 61.3804C44.934 61.3804 45.0127 61.286 44.9654 61.3332C44.934 61.3647 44.9025 61.4119 44.871 61.4434C44.8395 61.4748 44.8238 61.4906 44.7923 61.5221C44.7766 61.5378 44.7608 61.5535 44.7294 61.5693C44.6821 61.6165 44.7766 61.5378 44.7766 61.5378C44.6979 61.5693 44.6349 61.6322 44.5562 61.6794C44.5405 61.6794 44.3988 61.7581 44.4933 61.7109C44.572 61.6794 44.4461 61.7109 44.4303 61.7267C44.3516 61.7581 44.2572 61.7739 44.1785 61.7896C44.1313 61.7896 44.0841 61.7896 44.0526 61.8054C43.9896 61.8054 44.1155 61.8054 44.1155 61.8054H44.0369C43.9424 61.8054 43.8637 61.8054 43.7693 61.8054C43.5804 61.8054 43.4073 61.8054 43.2184 61.7896C43.1397 61.7896 43.0453 61.7739 42.9666 61.7581C42.9037 61.7581 43.0296 61.7581 43.0296 61.7581C42.9981 61.7581 42.9666 61.7581 42.9509 61.7581C42.9037 61.7581 42.8407 61.7424 42.7935 61.7267C42.7463 61.7267 42.7148 61.7109 42.6676 61.6952C42.6361 61.6952 42.6204 61.6795 42.5889 61.6637C42.5731 61.6637 42.5417 61.6322 42.5259 61.6165C42.5102 61.6165 42.4945 61.6008 42.4787 61.585C42.4158 61.5535 42.5574 61.6637 42.5102 61.6165C42.4787 61.585 42.4472 61.5535 42.4158 61.5221C42.3685 61.4591 42.3371 61.3804 42.2899 61.3017C42.2584 61.2388 42.3213 61.3647 42.3213 61.3647C42.3213 61.3489 42.3056 61.3175 42.2899 61.3017C42.2899 61.2702 42.2741 61.2388 42.2584 61.1916C42.2269 61.0971 42.2112 61.0184 42.1954 60.924C42.1482 60.7194 42.1167 60.5148 42.0852 60.3102C42.0852 60.2472 42.0852 60.3417 42.0852 60.3417C42.0852 60.3102 42.0852 60.2787 42.0852 60.2472C42.0852 60.1843 42.0852 60.1213 42.0695 60.0584C42.0695 59.9325 42.038 59.8065 42.038 59.6806C42.0223 59.4288 42.0066 59.1927 42.0066 58.9409C42.0066 58.4373 42.0223 57.9336 42.0852 57.4457C42.1167 57.131 41.7862 56.8477 41.4872 56.8477C41.1409 56.8477 40.9363 57.1152 40.8891 57.4457C40.7789 58.4058 40.7947 59.3659 40.9206 60.3259C41.0465 61.286 41.1881 62.3405 42.1639 62.7497C42.5889 62.9228 43.061 62.97 43.5017 62.9858C43.9267 63.0015 44.3674 62.9858 44.7766 62.8441C45.2015 62.7025 45.595 62.4664 45.8783 62.1044C46.1616 61.7424 46.3504 61.3332 46.4606 60.9083C46.6023 60.4046 46.6652 59.8695 46.7282 59.3501C46.7911 58.7993 46.8383 58.2641 46.8541 57.7133C46.8541 57.3985 46.5708 57.1152 46.256 57.1152C45.9255 57.1152 45.6737 57.367 45.6579 57.7133H45.6422Z" fill="#231F20"/>
<path d="M52.615 56.7687C54.2046 56.0132 54.9443 54.219 55.1647 52.5664C55.4008 50.725 55.086 48.6789 55.9674 46.9634C56.1562 46.5857 56.3923 46.2552 56.6913 45.9719C56.9432 45.7358 57.4153 45.3581 57.793 45.4525C58.5328 45.6256 58.8475 44.4924 58.1078 44.3193C57.1478 44.099 56.1877 44.7443 55.5896 45.4368C54.9915 46.1293 54.6296 46.9477 54.425 47.8133C53.9528 49.7964 54.3777 51.9054 53.6538 53.8413C53.3547 54.6597 52.8196 55.3679 52.0169 55.7456C51.7336 55.8873 51.6549 56.2965 51.8123 56.5483C51.9854 56.8474 52.3317 56.8946 52.615 56.7529V56.7687Z" fill="#231F20"/>
<path d="M49.6087 60.7354C52.4417 60.8613 55.1645 59.3347 56.7541 57.0211C57.5882 55.7934 57.9817 54.4242 58.1076 52.9605C58.1706 52.1263 58.1706 51.2764 58.2965 50.4423C58.4224 49.6081 58.7372 48.9314 59.1621 48.2231C59.5871 47.5149 59.949 46.6965 59.713 45.8308C59.5084 45.0754 58.926 44.4773 58.1234 44.4616C57.3679 44.4301 57.3679 45.6105 58.1234 45.642C58.5168 45.642 58.6427 46.24 58.5955 46.5548C58.5168 47.2158 58.0132 47.7824 57.7141 48.3648C57.0374 49.7026 57.0374 51.1977 56.943 52.6614C56.8643 53.9363 56.581 55.1009 55.9042 56.1869C55.2746 57.1942 54.3933 58.0283 53.3703 58.6264C52.2213 59.3032 50.9308 59.6494 49.593 59.5865C48.8375 59.555 48.8375 60.7354 49.593 60.7669L49.6087 60.7354Z" fill="#231F20"/>
<path d="M35.4912 60.8466C35.4912 60.9568 35.4912 61.0669 35.5227 61.1928C35.5227 61.2715 35.5542 61.3502 35.5699 61.4289C35.6014 61.5391 35.6486 61.6493 35.6958 61.7437C35.7273 61.8224 35.7745 61.8853 35.8217 61.964C35.8532 62.0113 35.8847 62.0427 35.9162 62.0742C35.9476 62.1057 35.9949 62.1372 36.0578 62.1372C36.105 62.1529 36.168 62.1529 36.2152 62.1372C36.2624 62.1372 36.3096 62.1214 36.3568 62.09C36.4355 62.0427 36.5142 61.9483 36.53 61.8539C36.5457 61.7594 36.5457 61.6335 36.4828 61.5548C36.4198 61.4761 36.3726 61.3817 36.3411 61.2873L36.3883 61.3817C36.3254 61.2558 36.2939 61.1142 36.2781 60.9725V61.0827C36.2781 61.0827 36.2781 60.9253 36.2781 60.8466C36.2781 60.7994 36.2782 60.7364 36.2467 60.6892C36.2309 60.642 36.1995 60.5948 36.168 60.5633C36.1365 60.5318 36.0893 60.5003 36.0421 60.4846C35.9949 60.4531 35.9476 60.4531 35.8847 60.4531C35.7902 60.4531 35.6801 60.4846 35.6014 60.5633C35.5227 60.642 35.4912 60.7364 35.4912 60.8466Z" fill="#231F20"/>
<path d="M36.797 61.2066L36.9387 61.9936C36.9387 61.9936 36.9702 62.088 37.0016 62.1352C37.0331 62.1824 37.0646 62.2139 37.1118 62.2297C37.159 62.2611 37.2062 62.2769 37.2535 62.2769C37.3007 62.2769 37.3636 62.2769 37.4108 62.2769L37.5053 62.2297C37.5053 62.2297 37.6154 62.151 37.6469 62.088L37.6941 61.9936C37.6941 61.9936 37.7099 61.8519 37.6941 61.789L37.5525 61.002C37.5525 61.002 37.521 60.9076 37.4895 60.8604C37.4581 60.8132 37.4266 60.7817 37.3794 60.766C37.3322 60.7345 37.2849 60.7188 37.2377 60.7188C37.1905 60.7188 37.1275 60.7188 37.0803 60.7188L36.9859 60.766C36.9859 60.766 36.8757 60.8447 36.8443 60.9076L36.797 61.002C36.797 61.002 36.7813 61.1437 36.797 61.2066Z" fill="#231F20"/>
<path d="M42.6996 60.7354C42.6681 60.8456 42.6523 60.9557 42.6523 61.0659C42.6523 61.1446 42.6523 61.2233 42.6523 61.3177C42.6523 61.4279 42.6838 61.5381 42.7153 61.6482C42.7468 61.7584 42.794 61.8686 42.8412 61.963C42.8727 62.0102 42.9042 62.0417 42.9356 62.0732C42.9671 62.1047 43.0143 62.1361 43.0773 62.1361C43.1245 62.1519 43.1875 62.1519 43.2347 62.1361C43.2819 62.1361 43.3291 62.1204 43.3763 62.0889C43.455 62.0417 43.5337 61.9473 43.5495 61.8529V61.7427C43.5495 61.7427 43.5495 61.601 43.5022 61.5381C43.5022 61.5223 43.4865 61.5066 43.4708 61.4751L43.518 61.5696C43.4708 61.4594 43.4393 61.3492 43.4235 61.2233V61.3335C43.4235 61.2076 43.4235 61.0974 43.4235 60.9715V61.0817C43.4235 61.0817 43.4235 60.9715 43.4393 60.9243C43.455 60.877 43.455 60.8141 43.4393 60.7669C43.4393 60.7197 43.4235 60.6724 43.3921 60.6252C43.3606 60.578 43.3291 60.5465 43.2976 60.5151C43.2662 60.4836 43.2189 60.4521 43.156 60.4521C43.0616 60.4364 42.9356 60.4364 42.8569 60.4993C42.7783 60.5623 42.6996 60.641 42.6838 60.7354H42.6996Z" fill="#231F20"/>
<path d="M43.9752 61.0818C43.9752 61.0818 43.9909 61.1762 44.0067 61.2077V61.0975C44.0067 61.2234 44.0067 61.3493 44.0067 61.4595V61.3493C44.0067 61.4752 43.9752 61.5854 43.928 61.6956L43.9752 61.6011C43.9752 61.6011 43.9594 61.6484 43.9437 61.6641C43.9122 61.7113 43.8965 61.7585 43.8965 61.8057C43.8965 61.853 43.8965 61.9159 43.8965 61.9631C43.8965 62.0103 43.928 62.0576 43.9594 62.1048C43.9909 62.152 44.0224 62.1835 44.0696 62.1992C44.164 62.2464 44.2742 62.2779 44.3686 62.2464C44.4631 62.2149 44.5575 62.152 44.6047 62.0733C44.6519 61.9789 44.6992 61.8687 44.7306 61.7585C44.7621 61.6484 44.7779 61.5382 44.7936 61.428C44.7936 61.3493 44.7936 61.2706 44.7936 61.1919C44.7936 61.0818 44.7779 60.9716 44.7464 60.8614C44.7464 60.8142 44.7149 60.767 44.6834 60.7198C44.6519 60.6726 44.6205 60.6411 44.5733 60.6253C44.526 60.5939 44.4788 60.5781 44.4316 60.5781C44.3844 60.5781 44.3214 60.5781 44.2742 60.5781C44.1798 60.6096 44.0853 60.6726 44.0381 60.7512L43.9909 60.8457C43.9909 60.8457 43.9752 60.9873 43.9909 61.0503L43.9752 61.0818Z" fill="#231F20"/>
<path d="M21.9554 21.3726C22.034 23.2927 22.3331 25.26 22.7738 27.0857C23.2302 28.9901 23.6237 30.6427 22.9469 32.5156C22.4433 33.9163 22.3646 35.3958 22.5062 36.891C22.7895 39.9128 24.0329 43.0291 26.2992 45.1066C29.8405 48.3173 35.0972 48.5848 39.8818 48.396C42.5416 48.2858 45.2172 48.1127 47.7826 47.373C50.348 46.6332 52.8033 45.3427 54.5188 43.3124C55.2113 42.4939 55.7779 41.5811 56.1871 40.6053C56.8167 39.0944 57.3046 37.1585 57.2259 35.5059C57.1629 34.357 56.8009 33.2868 56.6435 32.1693C56.4861 31.0047 56.974 29.903 57.2731 28.8012C57.5879 27.5894 57.6351 26.3303 57.6665 25.0869C57.7138 23.4186 57.7767 21.7503 57.8239 20.0662C57.8869 17.91 57.9498 15.6751 57.0999 13.6921C57.0213 13.5189 56.9268 13.3458 56.7537 13.2829C56.6121 13.2356 56.4704 13.2829 56.3288 13.3458C52.2367 15.0456 48.7584 18.2091 46.6966 22.128C44.2571 21.6244 41.6445 21.4985 39.1578 21.6086C37.7256 21.6716 36.2776 21.5457 34.8454 21.7188C33.9325 21.829 33.665 22.1438 33.0354 21.4827C32.5003 20.9161 32.0754 20.1922 31.5875 19.5941C29.5414 17.0444 27.1019 14.6206 23.9699 13.4717C22.9941 13.1097 22.6479 13.7078 22.5219 14.6521C22.3803 15.8011 22.2229 16.9657 22.0813 18.1146C22.0183 18.6025 21.9554 19.1062 21.9396 19.5941C21.9239 20.1764 21.9396 20.7588 21.9396 21.3411L21.9554 21.3726Z" fill="#F39B4A"/>
<path d="M43.628 37.2689C43.4077 37.1745 43.1874 37.0801 42.9513 37.0171C40.7478 36.2774 38.6231 36.3246 36.4826 37.2217C34.9875 37.8512 33.5238 38.9057 33.0673 40.4639C32.3591 42.9663 34.7042 44.6819 36.8289 45.1698C38.8277 45.6262 40.9682 45.5632 42.9355 44.9966C45.2491 44.3199 47.7201 42.384 46.3981 39.7084C45.8472 38.5752 44.777 37.7883 43.6123 37.2689H43.628Z" fill="white"/>
<path d="M24.5686 16.463C24.301 16.5732 24.1122 16.7935 24.0492 17.2028C23.7974 18.9183 24.0177 20.4135 24.2223 22.0975C24.4584 24.1278 24.8361 26.1266 25.1667 28.1412C26.0952 26.8821 27.2442 25.7961 28.519 24.7731C29.3374 24.1121 30.7854 23.3881 30.4864 22.1762C30.0929 20.6181 28.8023 18.3517 27.496 17.3759C26.8507 16.888 25.3713 16.1483 24.5686 16.4788V16.463Z" fill="#F9BDBE"/>
<path d="M52.1741 25.9045C52.8824 26.6757 53.6378 27.3839 54.3146 28.2023C54.4562 28.3597 54.6609 29.0208 54.9441 28.8791C55.1173 28.7847 55.1802 28.5643 55.2117 28.3597C55.7311 25.2277 56.2505 22.0642 56.1403 18.885C56.0931 17.6889 55.9672 15.5484 54.2674 16.178C53.8424 16.3353 53.4962 16.6344 53.1657 16.9492C52.8194 17.2797 48.3811 22.6781 49.1051 22.9928C50.3799 23.5437 51.2928 24.9287 52.1741 25.9045Z" fill="#F9BDBE"/>
<path d="M31.6029 36.5457C32.4548 36.5457 33.1453 35.8552 33.1453 35.0033C33.1453 34.1515 32.4548 33.4609 31.6029 33.4609C30.7511 33.4609 30.0605 34.1515 30.0605 35.0033C30.0605 35.8552 30.7511 36.5457 31.6029 36.5457Z" fill="#231F20"/>
<path d="M47.6088 36.5457C48.4606 36.5457 49.1512 35.8552 49.1512 35.0033C49.1512 34.1515 48.4606 33.4609 47.6088 33.4609C46.757 33.4609 46.0664 34.1515 46.0664 35.0033C46.0664 35.8552 46.757 36.5457 47.6088 36.5457Z" fill="#231F20"/>
<path d="M39.6135 37.6317C40.3784 37.6317 40.9985 37.2441 40.9985 36.766C40.9985 36.2879 40.3784 35.9004 39.6135 35.9004C38.8486 35.9004 38.2285 36.2879 38.2285 36.766C38.2285 37.2441 38.8486 37.6317 39.6135 37.6317Z" fill="#231F20"/>
<path d="M30.5489 23.9536C36.1204 21.6714 42.4159 21.4826 48.129 23.4499C48.853 23.7017 49.1521 22.5528 48.4438 22.3167C42.5733 20.2864 35.9945 20.4596 30.2498 22.8204C29.9508 22.9463 29.7462 23.2138 29.8406 23.5444C29.9193 23.8277 30.2656 24.0795 30.5646 23.9536H30.5489Z" fill="#231F20"/>
<path d="M23.2455 13.8656C23.6075 13.9443 23.9695 14.0387 24.3157 14.1804C24.5046 14.2433 24.5361 14.2748 24.7407 14.3693C24.9453 14.4637 25.1341 14.5581 25.323 14.6683C26.0942 15.0932 26.8339 15.6126 27.4792 16.132C28.8642 17.2494 30.2177 18.6345 31.2565 19.988C31.7759 20.6648 32.2638 21.3887 32.6415 22.1442C32.7832 22.4275 33.1924 22.5062 33.4442 22.3488C33.7432 22.1757 33.7904 21.8294 33.6488 21.5461C32.8933 20.0195 31.7759 18.6659 30.6269 17.4383C29.3049 16.0376 27.8255 14.747 26.1571 13.7869C25.3545 13.3148 24.4731 12.9213 23.5603 12.7324C23.2455 12.6695 22.9307 12.8269 22.8363 13.1416C22.7576 13.4249 22.9307 13.8027 23.2455 13.8656Z" fill="#231F20"/>
<path d="M22.0657 14.5746C21.6722 17.14 21.4833 19.7369 21.625 22.318C21.7351 24.3011 22.0184 26.2842 22.3647 28.2358C22.5378 29.1801 22.711 30.1245 22.8526 31.0688C22.8998 31.3835 23.2933 31.5567 23.5766 31.478C23.9071 31.3836 24.033 31.0688 23.9858 30.754C23.734 29.07 23.3877 27.4017 23.1359 25.7019C22.8369 23.6086 22.6952 21.4839 22.7739 19.3749C22.8211 17.864 22.9785 16.3688 23.1989 14.8894C23.2461 14.5746 23.1202 14.2598 22.7896 14.1654C22.5063 14.0867 22.1129 14.2598 22.0657 14.5746Z" fill="#231F20"/>
<path d="M25.5749 17.1087C25.5749 17.1087 25.6536 17.1716 25.7008 17.2031C25.7166 17.2031 25.7323 17.2346 25.748 17.2346C25.6379 17.1401 25.8425 17.3133 25.748 17.2346C25.8425 17.3133 25.9369 17.3762 26.0156 17.4549C26.2045 17.6123 26.3933 17.7854 26.5665 17.9586C26.9757 18.352 27.3691 18.777 27.7311 19.2019C27.92 19.4223 28.1089 19.6583 28.2977 19.8944C28.219 19.7842 28.3607 19.9731 28.2977 19.8944C28.3135 19.9259 28.3292 19.9416 28.3449 19.9731C28.3922 20.0361 28.4394 20.099 28.4866 20.162C28.581 20.2879 28.6597 20.3981 28.7541 20.524C29.0689 20.9804 29.368 21.4526 29.6198 21.9405C29.6827 22.0664 29.7457 22.1923 29.7929 22.3182C29.7929 22.3497 29.8086 22.3811 29.8244 22.3969C29.7457 22.2552 29.8086 22.3497 29.8244 22.3969C29.8401 22.4598 29.8716 22.507 29.8873 22.57C29.966 22.7903 30.029 23.0107 30.0605 23.231C30.1077 23.5301 30.5169 23.7347 30.7844 23.6402C31.115 23.5301 31.2409 23.2468 31.1936 22.9163C31.1307 22.4284 30.9261 21.9719 30.7215 21.5312C30.4854 21.0433 30.2021 20.5712 29.8873 20.1148C29.1948 19.0917 28.4079 18.1317 27.5265 17.266C27.1016 16.8568 26.6609 16.4476 26.173 16.1171C25.9212 15.944 25.512 16.0699 25.3703 16.3217C25.2129 16.6208 25.3074 16.9355 25.5749 17.1244V17.1087Z" fill="#231F20"/>
<path d="M57.6502 29.2268C58.4686 25.1032 58.9093 20.9167 58.3584 16.7302C58.2168 15.6442 58.0122 14.5583 57.8076 13.488C57.7131 13.0474 57.5715 12.5752 57.0521 12.465C56.5327 12.3549 56.0133 12.7326 55.5727 12.9529C53.8414 13.85 52.2203 14.9832 50.7566 16.2581C49.0568 17.7375 47.5774 19.4688 46.3498 21.3574C45.9406 22.0027 46.9478 22.585 47.3728 21.9555C49.3559 18.9179 52.0314 16.3682 55.1477 14.5425C55.5254 14.3222 55.9032 14.1176 56.2809 13.913C56.3596 13.8658 56.8475 13.6926 56.8632 13.6297L56.7216 13.551C56.5957 13.4251 56.5485 13.4408 56.6114 13.5667C56.5957 13.6769 56.6744 13.85 56.6901 13.9759C56.879 14.936 57.0678 15.8961 57.1938 16.8719C57.4456 18.8707 57.4928 20.8852 57.3511 22.8841C57.2095 24.8829 56.8947 26.9132 56.5012 28.912C56.3596 29.6517 57.4928 29.9665 57.6344 29.2268H57.6502Z" fill="#231F20"/>
<path d="M53.9365 16.0841C53.0394 16.7137 52.2524 17.5163 51.5442 18.3505C50.7573 19.2633 50.0175 20.2549 49.4667 21.3251C49.2149 21.813 48.9945 22.3324 48.9158 22.8832C48.8686 23.1823 48.9945 23.5285 49.325 23.6072C49.6083 23.6702 50.0018 23.5285 50.049 23.198C50.0805 22.9934 50.1277 22.8045 50.1907 22.6157C50.2221 22.5212 50.2536 22.4268 50.3008 22.3324C50.2379 22.4583 50.3481 22.2065 50.3008 22.3324C50.3008 22.3166 50.3166 22.2852 50.3323 22.2694C50.3638 22.2065 50.3953 22.1435 50.411 22.0806C50.6471 21.5927 50.9304 21.1205 51.2294 20.6798C51.3868 20.4437 51.5599 20.2077 51.7331 19.9716C51.7645 19.9401 51.8747 19.7827 51.796 19.8929C51.8432 19.8299 51.8905 19.767 51.9377 19.7198C52.0321 19.5938 52.1265 19.4837 52.221 19.3735C52.583 18.9328 52.9764 18.5079 53.3856 18.0987C53.5902 17.8941 53.7948 17.7052 54.0152 17.5163C54.1096 17.4376 54.2198 17.3432 54.3142 17.2645C54.33 17.2488 54.3614 17.233 54.3772 17.2173C54.2355 17.3275 54.33 17.2488 54.3772 17.2173C54.4244 17.1858 54.4716 17.1386 54.5346 17.1071C54.7864 16.934 54.928 16.5877 54.7392 16.3044C54.5818 16.0526 54.204 15.8952 53.9365 16.0998V16.0841Z" fill="#231F20"/>
<path d="M25.7324 26.8023C23.1041 29.6668 21.6089 33.6487 21.9866 37.5519C22.3644 41.4551 24.4419 44.65 27.6683 46.6174C29.4311 47.6876 31.4928 48.2857 33.5703 48.207C34.3258 48.1755 34.3258 46.9951 33.5703 47.0266C30.2809 47.1368 27.1017 45.4055 25.1816 42.7614C23.1041 39.9127 22.6634 36.2613 23.6392 32.9089C24.2058 30.9573 25.2131 29.1474 26.5981 27.6365C27.1175 27.0699 26.2833 26.2357 25.7639 26.8023H25.7324Z" fill="#231F20"/>
<path d="M53.1493 27.6366C55.5416 30.2492 56.8637 33.8534 56.5646 37.3946C56.2656 40.9358 54.3455 43.8317 51.4653 45.5787C49.8599 46.5545 48.05 47.0739 46.1613 47.011C45.4059 46.9795 45.4059 48.1599 46.1613 48.1914C49.8442 48.3015 53.3067 46.3657 55.4944 43.454C57.8237 40.3535 58.3116 36.2614 57.2414 32.5785C56.6276 30.4223 55.4944 28.4393 53.9835 26.7867C53.4641 26.2201 52.6299 27.0542 53.1493 27.6208V27.6366Z" fill="#231F20"/>
</svg>
