<svg width="80" height="77" viewBox="0 0 80 77" fill="none" xmlns="http://www.w3.org/2000/svg">
<mask id="mask0_3865_17605" style="mask-type:luminance" maskUnits="userSpaceOnUse" x="29" y="38" width="22" height="24">
<path d="M41.4237 38.3961C44.8862 39.4763 46.6804 42.5106 47.908 45.7037C48.6163 47.5465 49.1042 49.4528 49.6393 51.375C50.442 54.4252 50.0328 58.1425 47.5303 60.0012C45.9092 61.2085 43.8002 61.3992 41.7857 61.5104C36.6549 61.7804 30.4853 61.6057 29.5095 55.2671C29.1003 52.5983 30.0288 50.8031 30.7528 48.3249C31.6499 45.2589 32.8776 41.3509 35.5846 39.4922C37.2687 38.3325 39.4563 37.7924 41.4237 38.3961Z" fill="white"/>
</mask>
<g mask="url(#mask0_3865_17605)">
<path d="M41.4237 38.3961C44.8862 39.4763 46.6804 42.5106 47.908 45.7037C48.6163 47.5465 49.1042 49.4528 49.6393 51.375C50.442 54.4252 50.0328 58.1425 47.5303 60.0012C45.9092 61.2085 43.8002 61.3992 41.7857 61.5104C36.6549 61.7804 30.4853 61.6057 29.5095 55.2671C29.1003 52.5983 30.0288 50.8031 30.7528 48.3249C31.6499 45.2589 32.8776 41.3509 35.5846 39.4922C37.2687 38.3325 39.4563 37.7924 41.4237 38.3961Z" fill="#C0B9AC"/>
<path d="M41.4874 40.5096C38.4656 39.7312 30.3129 40.5255 32.6265 45.7679C33.2561 47.1977 34.405 48.3097 35.4595 49.4535C36.514 50.5973 40.5116 56.6023 36.813 56.8882C35.9631 56.9518 35.0975 57.0153 34.2476 57.0789C32.8469 57.1901 34.2948 60.2243 34.7198 60.828C36.0261 62.7184 38.6387 63.1156 40.9208 63.0044C42.1799 62.9408 43.5492 62.7343 44.3991 61.797C44.7926 61.3681 45.0286 60.828 45.2018 60.272C45.4851 59.4141 46.209 56.9359 44.6981 57.3489C42.3216 57.9844 40.968 56.9041 41.1569 54.553C41.2356 53.4886 41.33 52.3766 41.8179 51.4234C42.3531 50.3908 43.2816 49.6283 44.0371 48.7545C45.186 47.4042 46.571 44.9419 45.8156 43.0832C45.2018 41.574 42.9354 40.8909 41.4874 40.5096Z" fill="white"/>
<path d="M30.1863 48.9766C33.0665 49.628 36.0412 49.8504 38.9843 49.628C39.6138 49.5803 40.1647 49.1196 40.1647 48.4365C40.1647 47.8328 39.6296 47.1974 38.9843 47.245C36.2458 47.4675 33.4915 47.2927 30.8002 46.689C30.1706 46.5461 29.5253 46.8797 29.3522 47.5151C29.1948 48.1188 29.5568 48.8337 30.1706 48.9766H30.1863Z" fill="#5C564D"/>
<path d="M42.2743 52.3759C45.3905 52.0899 48.4124 51.1526 51.1037 49.5481C52.41 48.7697 51.2296 46.7045 49.9076 47.4829C47.5782 48.865 44.9026 49.7547 42.2585 49.993C41.629 50.0565 41.0781 50.5013 41.0781 51.1844C41.0781 51.7881 41.6132 52.4394 42.2585 52.3759H42.2743Z" fill="#5C564D"/>
<path d="M28.959 53.6155C30.5171 53.8696 32.0752 54.0444 33.6491 54.1238C34.2629 54.1556 34.861 53.5519 34.8295 52.9324C34.798 52.2652 34.3101 51.7727 33.6491 51.7409C32.9251 51.7091 32.2169 51.6615 31.4929 51.5821C31.1466 51.5503 30.8004 51.5185 30.4699 51.455C30.7847 51.5026 30.5171 51.455 30.4384 51.455C30.3597 51.455 30.2653 51.4232 30.1866 51.4232C29.982 51.3914 29.7931 51.3596 29.5885 51.3279C29.2737 51.2802 28.9747 51.2802 28.6757 51.455C28.4238 51.5979 28.2035 51.8839 28.1405 52.1698C28.0146 52.7417 28.3137 53.5202 28.959 53.6314V53.6155Z" fill="#5C564D"/>
<path d="M47.4834 54.6626C48.4592 54.6308 49.4507 54.329 50.2534 53.773C50.5052 53.5982 50.7098 53.3758 50.7885 53.0581C50.8672 52.7722 50.8357 52.3909 50.6626 52.1367C50.4895 51.8825 50.2534 51.6601 49.9543 51.5966C49.6553 51.5331 49.3091 51.5331 49.0415 51.7237C48.8054 51.8826 48.5536 52.0255 48.286 52.1367L48.5693 52.0096C48.2388 52.1367 47.9083 52.232 47.5621 52.2797L47.8768 52.232C47.7352 52.2479 47.6093 52.2638 47.4676 52.2638C47.1528 52.2638 46.8538 52.3909 46.6335 52.6133C46.4289 52.8198 46.2715 53.1534 46.2872 53.4553C46.303 53.7571 46.3974 54.0907 46.6335 54.2972C46.8696 54.5038 47.1528 54.6626 47.4676 54.6467L47.4834 54.6626Z" fill="#5C564D"/>
<path d="M41.8651 58.5562L45.2961 58.2702C45.6109 58.2384 45.8942 58.159 46.1303 57.9207C46.3349 57.7142 46.4923 57.3806 46.4765 57.0787C46.4451 56.4751 45.9572 55.8396 45.2961 55.8873L41.8651 56.1732C41.5503 56.205 41.267 56.2844 41.0309 56.5227C40.8263 56.7293 40.6689 57.0629 40.6847 57.3647C40.7162 57.9684 41.2041 58.6038 41.8651 58.5562Z" fill="#5C564D"/>
<path d="M29.8558 58.3168L31.6342 58.0308C31.7916 57.9991 31.9175 57.9196 32.0434 57.8243C32.1694 57.7449 32.2795 57.6337 32.3425 57.4907C32.4212 57.3477 32.4684 57.2048 32.4841 57.0459C32.5156 56.887 32.5156 56.7282 32.4684 56.5693C32.374 56.2834 32.2008 55.9974 31.9333 55.8544L31.65 55.7273C31.4454 55.6638 31.225 55.6638 31.0204 55.7273L29.2419 56.0133C29.0846 56.0451 28.9586 56.1245 28.8327 56.2198C28.7068 56.2992 28.5967 56.4104 28.5337 56.5534C28.455 56.6964 28.4078 56.8394 28.3921 56.9982C28.3606 57.1571 28.3606 57.316 28.4078 57.4748C28.5022 57.7608 28.6754 58.0467 28.9429 58.1897L29.2262 58.3168C29.4308 58.3803 29.6512 58.3803 29.8558 58.3168Z" fill="#5C564D"/>
</g>
<mask id="mask1_3865_17605" style="mask-type:luminance" maskUnits="userSpaceOnUse" x="46" y="43" width="13" height="17">
<path d="M55.2899 44.4016C54.5817 45.466 54.4872 46.8004 54.4872 48.0872C54.4872 49.374 54.5974 50.6607 54.2354 51.884C53.6688 53.8221 51.8746 55.3312 49.8758 55.5378C49.1361 55.6172 48.3806 55.5378 47.6724 55.7125C46.9641 55.8873 46.2402 56.4433 46.2244 57.1899C46.1929 58.0795 47.1215 58.6991 47.9871 58.9056C50.4739 59.4934 53.2281 58.3337 55.0381 56.618C57.3517 54.4416 56.6749 52.1381 57.1786 49.374C57.3674 48.2937 57.9812 47.3564 58.4062 46.3397C58.8941 45.18 59.2718 43.9091 57.8081 43.3531C56.7694 42.9719 55.825 43.5438 55.2899 44.3698V44.4016Z" fill="white"/>
</mask>
<g mask="url(#mask1_3865_17605)">
<path d="M55.2899 44.4016C54.5817 45.466 54.4872 46.8004 54.4872 48.0872C54.4872 49.374 54.5974 50.6607 54.2354 51.884C53.6688 53.8221 51.8746 55.3312 49.8758 55.5378C49.1361 55.6172 48.3806 55.5378 47.6724 55.7125C46.9641 55.8873 46.2402 56.4433 46.2244 57.1899C46.1929 58.0795 47.1215 58.6991 47.9871 58.9056C50.4739 59.4934 53.2281 58.3337 55.0381 56.618C57.3517 54.4416 56.6749 52.1381 57.1786 49.374C57.3674 48.2937 57.9812 47.3564 58.4062 46.3397C58.8941 45.18 59.2718 43.9091 57.8081 43.3531C56.7694 42.9719 55.825 43.5438 55.2899 44.3698V44.4016Z" fill="#C0B9AC"/>
<path d="M51.6858 55.0466L54.4401 57.223C54.5817 57.3819 54.7548 57.4931 54.9437 57.5566C55.1326 57.6519 55.3372 57.6996 55.5575 57.6996C55.951 57.6996 56.4074 57.5248 56.675 57.2389C56.9425 56.9529 57.1471 56.5399 57.1314 56.111C57.1157 55.7138 56.9897 55.2372 56.675 54.9831L53.9207 52.8067C53.779 52.6478 53.6059 52.5366 53.417 52.4731C53.2282 52.3777 53.0236 52.3301 52.8032 52.3301C52.4098 52.3301 51.9533 52.5048 51.6858 52.7908C51.4182 53.0767 51.2136 53.4898 51.2294 53.9187C51.2451 54.3158 51.371 54.7924 51.6858 55.0466Z" fill="#5C564D"/>
<path d="M52.6773 50.9468C52.9291 50.9627 53.1652 50.9945 53.417 51.0262L52.9921 50.9627C53.9522 51.0898 54.8807 51.344 55.7779 51.7252L55.4001 51.5664C55.7779 51.7252 56.1556 51.9159 56.5176 52.1224C57.2416 52.5354 58.2646 52.313 58.6738 51.5505C59.083 50.7879 58.8784 49.8189 58.1072 49.3741C56.4389 48.4209 54.5975 47.8967 52.6773 47.7696C51.8589 47.7219 51.072 48.5321 51.1035 49.3582C51.1507 50.2637 51.796 50.8833 52.6773 50.9468Z" fill="#5C564D"/>
<path d="M54.6599 45.2601C55.9505 46.0227 57.367 46.5946 58.8149 46.9123C59.2241 47.0076 59.6491 46.9758 60.0268 46.7534C60.3573 46.5628 60.6721 46.1815 60.7508 45.8003C60.8452 45.3872 60.8295 44.9424 60.5934 44.577C60.3731 44.2434 60.0583 43.9416 59.6491 43.8463C58.8779 43.6715 58.1067 43.4332 57.3827 43.1314L57.7604 43.2903C57.2411 43.0678 56.7374 42.8137 56.2495 42.5118C55.9033 42.3053 55.4311 42.2418 55.0376 42.353C54.6757 42.4483 54.2822 42.7342 54.0933 43.0837C53.6999 43.8463 53.9045 44.7994 54.6599 45.2601Z" fill="#5C564D"/>
</g>
<path d="M32.5317 42.2405C31.8707 43.6702 31.2412 45.1317 30.6588 46.5933C30.0765 48.0548 29.5257 49.421 29.1479 50.8825C28.4869 53.4561 28.4397 56.2838 29.8876 58.6032C30.6116 59.7628 31.6189 60.6366 32.878 61.1291C33.5862 61.3991 33.901 60.2553 33.1928 59.9853C30.4542 58.9209 29.6201 55.5689 29.9506 52.9159C30.1552 51.2002 30.7533 49.5481 31.3828 47.9436C32.0596 46.212 32.7836 44.5122 33.5548 42.8282C33.8695 42.1293 32.8623 41.5256 32.5317 42.2246V42.2405Z" fill="#231F20"/>
<path d="M32.9883 56.3637C33.0198 57.3487 33.1142 58.3495 33.3188 59.3026C33.4919 60.1446 33.9011 61.0025 34.7038 61.3996C35.1287 61.6061 35.5694 61.6856 36.0259 61.7014C36.4508 61.7014 36.923 61.6697 37.3322 61.5744C37.8201 61.4632 38.245 61.1613 38.4811 60.7165C38.6857 60.3352 38.7801 59.9063 38.8431 59.4774C39.0162 58.3654 39.0634 57.2374 38.9375 56.1095C38.9218 55.9507 38.8903 55.8077 38.7644 55.6806C38.6542 55.5694 38.4968 55.5059 38.3395 55.5059C38.0562 55.5059 37.7099 55.7759 37.7414 56.1095C37.8358 56.9992 37.8358 57.8888 37.7414 58.7784C37.7414 58.8419 37.7414 58.8896 37.7256 58.9531C37.7256 58.9849 37.7256 59.0008 37.7256 59.0326C37.7256 58.9214 37.7256 59.1279 37.7256 59.0326C37.7099 59.1438 37.6942 59.255 37.6784 59.3662C37.6469 59.5409 37.6155 59.7316 37.5683 59.9063C37.5683 59.954 37.5368 59.9857 37.521 60.0334C37.521 60.0493 37.521 60.0652 37.5053 60.0811C37.4896 60.1446 37.5368 60.0175 37.5368 60.0175C37.5053 60.0493 37.5053 60.0969 37.4896 60.1287C37.4738 60.1764 37.4423 60.2082 37.4109 60.2558C37.4109 60.2558 37.3951 60.2876 37.3794 60.3035C37.3794 60.3035 37.4581 60.2082 37.4109 60.2558C37.3794 60.2876 37.3479 60.3194 37.3164 60.3511C37.3951 60.3035 37.3164 60.3511 37.3007 60.3511C37.2692 60.367 37.1905 60.3988 37.1748 60.4147C37.2063 60.367 37.2692 60.3829 37.2063 60.4147C37.1905 60.4147 37.1748 60.4147 37.1433 60.4306C37.0961 60.4306 37.0489 60.4623 37.0017 60.4623C36.9544 60.4623 36.923 60.4782 36.8758 60.4941C36.8443 60.4941 36.8285 60.4941 36.7971 60.4941C36.7184 60.4941 36.7971 60.4941 36.8285 60.4941C36.7498 60.5259 36.6397 60.51 36.561 60.5259C36.4665 60.5259 36.3878 60.5259 36.2934 60.5418C36.1203 60.5418 35.9314 60.5418 35.7583 60.5418C35.7426 60.5418 35.7268 60.5418 35.6953 60.5418C35.6324 60.5418 35.7583 60.5418 35.7583 60.5418C35.7111 60.5418 35.6639 60.5418 35.6324 60.5259C35.538 60.51 35.4435 60.4782 35.3648 60.4464C35.3334 60.4464 35.3019 60.4147 35.2547 60.4147C35.2547 60.4147 35.3806 60.4782 35.2861 60.4147C35.2704 60.4147 35.2547 60.3988 35.2389 60.3829C35.1602 60.3352 35.0815 60.2876 35.0186 60.2399C34.9556 60.1923 35.0973 60.3194 35.0501 60.2558C35.0501 60.2558 35.0186 60.224 35.0028 60.224C34.9714 60.1923 34.9399 60.1605 34.9084 60.1287C34.8769 60.0969 34.8612 60.0811 34.8297 60.0493C34.7668 59.9699 34.8297 60.0334 34.8297 60.0493C34.7825 59.9857 34.751 59.9222 34.7038 59.8428C34.6881 59.811 34.6566 59.7633 34.6409 59.7316C34.6409 59.7157 34.6409 59.6998 34.6251 59.6839C34.7038 59.811 34.6566 59.7475 34.6251 59.6998C34.5622 59.5409 34.5149 59.3662 34.4677 59.1914C34.4205 58.9849 34.389 58.7943 34.3576 58.5878C34.3418 58.4607 34.3261 58.3495 34.3103 58.2224C34.3103 58.2065 34.2946 58.0953 34.3103 58.1747C34.3261 58.2542 34.3103 58.143 34.3103 58.1271C34.3103 58.0635 34.2946 58 34.2946 57.9364C34.2316 57.4281 34.2002 56.9197 34.1844 56.3955C34.1844 56.0778 33.9169 55.7918 33.5864 55.7918C33.2558 55.7918 32.9883 56.046 32.9883 56.3955V56.3637Z" fill="#231F20"/>
<path d="M45.784 42.8436C46.5552 44.5275 47.2792 46.2274 47.956 47.9589C48.5855 49.5634 49.1836 51.2156 49.3882 52.9313C49.7187 55.5843 48.8846 58.9362 46.146 60.0006C45.4378 60.2707 45.7526 61.4304 46.4608 61.1444C48.7114 60.2707 50.1279 58.0943 50.5214 55.7431C51.0093 52.7883 49.9863 49.8653 48.9161 47.1646C48.255 45.5125 47.5625 43.8762 46.8071 42.2558C46.4923 41.5568 45.4693 42.1605 45.784 42.8595V42.8436Z" fill="#231F20"/>
<path d="M45.1539 56.364C45.1539 56.8247 45.1067 57.2695 45.0595 57.7302C45.0595 57.8414 45.0438 57.9367 45.028 58.0479C45.028 58.0797 45.028 58.0956 45.028 58.1273C45.028 58.1909 45.0123 58.2544 44.9965 58.318C44.9651 58.5086 44.9336 58.6992 44.9021 58.9058C44.8706 59.0805 44.8234 59.2552 44.7762 59.43C44.7447 59.5094 44.729 59.5889 44.6975 59.6683L44.666 59.7318C44.666 59.7318 44.7132 59.6206 44.6818 59.6683C44.666 59.7159 44.6345 59.7636 44.6188 59.7954C44.5873 59.8589 44.5401 59.9383 44.4929 60.0019C44.4929 60.0178 44.4614 60.0496 44.4457 60.0654C44.4457 60.0654 44.5244 59.9701 44.4772 60.0178C44.4457 60.0495 44.4142 60.0972 44.3827 60.129C44.3512 60.1607 44.3355 60.1766 44.304 60.2084C44.2883 60.2243 44.2726 60.2402 44.2411 60.2561C44.1939 60.3037 44.2883 60.2243 44.2883 60.2243C44.2096 60.2561 44.1466 60.3196 44.0679 60.3673C44.0522 60.3673 43.9106 60.4467 44.005 60.399C44.0837 60.3673 43.9578 60.399 43.942 60.4149C43.8633 60.4467 43.7689 60.4626 43.6902 60.4785C43.643 60.4785 43.5958 60.4785 43.5643 60.4944C43.5014 60.4944 43.6273 60.4944 43.6273 60.4944H43.5486C43.4541 60.4944 43.3754 60.4944 43.281 60.4944C43.0921 60.4944 42.919 60.4944 42.7302 60.4785C42.6515 60.4785 42.557 60.4626 42.4783 60.4467C42.4154 60.4467 42.5413 60.4467 42.5413 60.4467C42.5098 60.4467 42.4783 60.4467 42.4626 60.4467C42.4154 60.4467 42.3524 60.4308 42.3052 60.4149C42.258 60.4149 42.2265 60.399 42.1793 60.3832C42.1478 60.3832 42.1321 60.3673 42.1006 60.3514C42.0849 60.3514 42.0534 60.3196 42.0377 60.3037C42.0219 60.3037 42.0062 60.2878 41.9904 60.272C41.9275 60.2402 42.0691 60.3514 42.0219 60.3037C41.9904 60.272 41.959 60.2402 41.9275 60.2084C41.8803 60.1449 41.8488 60.0654 41.8016 59.986C41.7701 59.9225 41.833 60.0495 41.833 60.0495C41.833 60.0337 41.8173 60.0019 41.8016 59.986C41.8016 59.9542 41.7858 59.9225 41.7701 59.8748C41.7386 59.7795 41.7229 59.7001 41.7071 59.6047C41.6599 59.3982 41.6284 59.1917 41.597 58.9852C41.597 58.9216 41.597 59.017 41.597 59.017C41.597 58.9852 41.597 58.9534 41.597 58.9216C41.597 58.8581 41.597 58.7945 41.5812 58.731C41.5812 58.6039 41.5498 58.4768 41.5498 58.3497C41.534 58.0956 41.5183 57.8573 41.5183 57.6031C41.5183 57.0947 41.534 56.5864 41.597 56.0939C41.6284 55.7762 41.2979 55.4902 40.9989 55.4902C40.6526 55.4902 40.448 55.7603 40.4008 56.0939C40.2907 57.063 40.3064 58.032 40.4323 59.0011C40.5582 59.9701 40.6999 61.0345 41.6757 61.4475C42.1006 61.6223 42.5728 61.6699 43.0135 61.6858C43.4384 61.7017 43.8791 61.6858 44.2883 61.5428C44.7132 61.3999 45.1067 61.1616 45.39 60.7962C45.6733 60.4308 45.8622 60.0178 45.9723 59.5888C46.114 59.0805 46.1769 58.5404 46.2399 58.0161C46.3028 57.4601 46.3501 56.92 46.3658 56.364C46.3658 56.0462 46.0825 55.7603 45.7677 55.7603C45.4372 55.7603 45.1854 56.0145 45.1697 56.364H45.1539Z" fill="#231F20"/>
<path d="M52.1267 55.4267C53.7163 54.6641 54.4561 52.8531 54.6764 51.1851C54.9125 49.3264 54.5977 47.2612 55.4791 45.5296C55.6679 45.1483 55.904 44.8147 56.203 44.5288C56.4549 44.2905 56.927 43.9092 57.3048 44.0045C58.0445 44.1793 58.3593 43.0355 57.6195 42.8607C56.6595 42.6383 55.6994 43.2897 55.1013 43.9887C54.5033 44.6876 54.1413 45.5137 53.9367 46.3875C53.4645 48.3891 53.8895 50.5178 53.1655 52.4718C52.8664 53.2979 52.3313 54.0128 51.5286 54.3941C51.2453 54.537 51.1667 54.9501 51.324 55.2043C51.4972 55.5061 51.8434 55.5538 52.1267 55.4108V55.4267Z" fill="#231F20"/>
<path d="M49.1204 59.4132C51.9534 59.5403 54.6762 57.9993 56.2658 55.6641C57.1 54.425 57.4934 53.0429 57.6193 51.5655C57.6823 50.7235 57.6823 49.8656 57.8082 49.0237C57.9341 48.1817 58.2489 47.4986 58.6738 46.7837C59.0988 46.0689 59.4608 45.2428 59.2247 44.369C59.0201 43.6065 58.4377 43.0028 57.6351 42.987C56.8796 42.9552 56.8796 44.1466 57.6351 44.1784C58.0285 44.1784 58.1545 44.7821 58.1072 45.0998C58.0285 45.767 57.5249 46.3389 57.2259 46.9267C56.5491 48.277 56.5491 49.7862 56.4547 51.2636C56.376 52.5504 56.0927 53.726 55.4159 54.8221C54.7864 55.8388 53.905 56.6808 52.882 57.2845C51.733 57.9676 50.4425 58.3171 49.1047 58.2535C48.3492 58.2217 48.3492 59.4132 49.1047 59.445L49.1204 59.4132Z" fill="#231F20"/>
<path d="M35.0186 59.5241C35.0186 59.6353 35.0186 59.7465 35.05 59.8736C35.05 59.953 35.0815 60.0325 35.0972 60.1119C35.1287 60.2231 35.1759 60.3343 35.2232 60.4296C35.2546 60.509 35.3019 60.5726 35.3491 60.652C35.3805 60.6997 35.412 60.7314 35.4435 60.7632C35.475 60.795 35.5222 60.8268 35.5852 60.8268C35.6324 60.8427 35.6953 60.8427 35.7425 60.8268C35.7898 60.8268 35.837 60.8109 35.8842 60.7791C35.9629 60.7314 36.0416 60.6361 36.0573 60.5408C36.073 60.4455 36.073 60.3184 36.0101 60.239C35.9471 60.1595 35.8999 60.0642 35.8684 59.9689L35.9157 60.0642C35.8527 59.9371 35.8212 59.7942 35.8055 59.6512V59.7624C35.8055 59.7624 35.8055 59.6035 35.8055 59.5241C35.8055 59.4764 35.8055 59.4129 35.774 59.3652C35.7583 59.3176 35.7268 59.2699 35.6953 59.2382C35.6638 59.2064 35.6166 59.1746 35.5694 59.1587C35.5222 59.127 35.475 59.127 35.412 59.127C35.3176 59.127 35.2074 59.1587 35.1287 59.2382C35.05 59.3176 35.0186 59.4129 35.0186 59.5241Z" fill="#231F20"/>
<path d="M36.3088 59.9065L36.4504 60.7008C36.4504 60.7008 36.4819 60.7962 36.5134 60.8438C36.5448 60.8915 36.5763 60.9232 36.6235 60.9391C36.6707 60.9709 36.718 60.9868 36.7652 60.9868C36.8124 60.9868 36.8753 60.9868 36.9226 60.9868L37.017 60.9391C37.017 60.9391 37.1272 60.8597 37.1586 60.7962L37.2059 60.7008C37.2059 60.7008 37.2216 60.5579 37.2059 60.4943L37.0642 59.7C37.0642 59.7 37.0327 59.6047 37.0013 59.557C36.9698 59.5094 36.9383 59.4776 36.8911 59.4617C36.8439 59.4299 36.7967 59.4141 36.7494 59.4141C36.7022 59.4141 36.6393 59.4141 36.5921 59.4141L36.4976 59.4617C36.4976 59.4617 36.3874 59.5411 36.356 59.6047L36.3088 59.7C36.3088 59.7 36.293 59.843 36.3088 59.9065Z" fill="#231F20"/>
<path d="M42.2113 59.4295C42.1798 59.5407 42.1641 59.6519 42.1641 59.7631C42.1641 59.8426 42.1641 59.922 42.1641 60.0173C42.1641 60.1285 42.1955 60.2397 42.227 60.3509C42.2585 60.4621 42.3057 60.5733 42.3529 60.6687C42.3844 60.7163 42.4159 60.7481 42.4474 60.7799C42.4788 60.8116 42.5261 60.8434 42.589 60.8434C42.6362 60.8593 42.6992 60.8593 42.7464 60.8434C42.7936 60.8434 42.8408 60.8275 42.888 60.7957C42.9667 60.7481 43.0454 60.6528 43.0612 60.5575V60.4463C43.0612 60.4463 43.0612 60.3033 43.014 60.2397C43.014 60.2238 42.9982 60.208 42.9825 60.1762L43.0297 60.2715C42.9825 60.1603 42.951 60.0491 42.9353 59.922V60.0332C42.9353 59.9061 42.9353 59.7949 42.9353 59.6678V59.779C42.9353 59.779 42.9353 59.6678 42.951 59.6202C42.9667 59.5725 42.9667 59.509 42.951 59.4613C42.951 59.4137 42.9353 59.366 42.9038 59.3183C42.8723 59.2707 42.8408 59.2389 42.8094 59.2071C42.7779 59.1754 42.7307 59.1436 42.6677 59.1436C42.5733 59.1277 42.4474 59.1277 42.3687 59.1912C42.29 59.2548 42.2113 59.3342 42.1955 59.4295H42.2113Z" fill="#231F20"/>
<path d="M43.5015 59.7623C43.5015 59.7623 43.5173 59.8576 43.533 59.8894V59.7782C43.533 59.9052 43.533 60.0323 43.533 60.1435V60.0323C43.533 60.1594 43.5015 60.2706 43.4543 60.3818L43.5015 60.2865C43.5015 60.2865 43.4858 60.3342 43.4701 60.3501C43.4386 60.3977 43.4229 60.4454 43.4229 60.493C43.4229 60.5407 43.4229 60.6042 43.4229 60.6519C43.4229 60.6995 43.4543 60.7472 43.4858 60.7949C43.5173 60.8425 43.5488 60.8743 43.596 60.8902C43.6904 60.9378 43.8006 60.9696 43.895 60.9378C43.9894 60.9061 44.0839 60.8425 44.1311 60.7631C44.1783 60.6678 44.2255 60.5566 44.257 60.4454C44.2885 60.3342 44.3042 60.223 44.32 60.1118C44.32 60.0323 44.32 59.9529 44.32 59.8735C44.32 59.7623 44.3042 59.6511 44.2727 59.5399C44.2727 59.4922 44.2413 59.4445 44.2098 59.3969C44.1783 59.3492 44.1468 59.3175 44.0996 59.3016C44.0524 59.2698 44.0052 59.2539 43.958 59.2539C43.9108 59.2539 43.8478 59.2539 43.8006 59.2539C43.7061 59.2857 43.6117 59.3492 43.5645 59.4287L43.5173 59.524C43.5173 59.524 43.5015 59.6669 43.5173 59.7305L43.5015 59.7623Z" fill="#231F20"/>
<mask id="mask2_3865_17605" style="mask-type:luminance" maskUnits="userSpaceOnUse" x="20" y="13" width="39" height="35">
<path d="M20.7287 19.4126C20.6658 22.3833 21.075 25.3699 21.9406 28.2135C22.1138 28.7696 22.3026 29.3414 22.3498 29.9133C22.4128 30.5647 22.2869 31.216 22.2082 31.8673C21.6731 36.1089 22.6803 40.7795 25.8124 43.6548C29.3536 46.8956 34.6103 47.1657 39.3949 46.975C42.0547 46.8638 44.7303 46.6891 47.2957 45.9424C49.8611 45.1958 52.3164 43.8931 54.0319 41.8438C54.7244 41.0177 55.291 40.0964 55.7002 39.1114C56.3298 37.5863 56.8177 35.6324 56.739 33.9643C56.6603 32.5346 55.9835 31.3431 56.2196 29.818C56.3927 28.7219 56.7862 27.6734 57.1167 26.609C58.0768 23.4954 58.423 20.1275 57.7463 16.9344C57.5416 15.9495 57.1954 14.9169 56.3927 14.3132C55.1021 13.3282 54.0634 14.4403 52.9774 15.0757C51.2776 16.0765 49.7667 17.4269 48.5706 18.9996C48.1771 19.5238 47.7836 20.1116 47.1698 20.3499C46.5875 20.5882 45.9265 20.4611 45.3127 20.3499C43.125 19.9845 40.8901 19.8416 38.6709 19.9369C37.1285 20.0004 34.2955 19.778 32.8948 20.3976C32.7217 20.477 32.5485 20.5723 32.3597 20.5405C32.1393 20.5088 31.9819 20.3181 31.8403 20.1593C29.81 17.6175 27.5121 15.0916 24.4588 13.9955C21.4527 12.8993 20.7445 17.2203 20.6973 19.3967L20.7287 19.4126Z" fill="white"/>
</mask>
<g mask="url(#mask2_3865_17605)">
<path d="M20.7287 19.4126C20.6658 22.3833 21.075 25.3699 21.9406 28.2135C22.1138 28.7696 22.3026 29.3414 22.3498 29.9133C22.4128 30.5647 22.2869 31.216 22.2082 31.8673C21.6731 36.1089 22.6803 40.7795 25.8124 43.6548C29.3536 46.8956 34.6103 47.1657 39.3949 46.975C42.0547 46.8638 44.7303 46.6891 47.2957 45.9424C49.8611 45.1958 52.3164 43.8931 54.0319 41.8438C54.7244 41.0177 55.291 40.0964 55.7002 39.1114C56.3298 37.5863 56.8177 35.6324 56.739 33.9643C56.6603 32.5346 55.9835 31.3431 56.2196 29.818C56.3927 28.7219 56.7862 27.6734 57.1167 26.609C58.0768 23.4954 58.423 20.1275 57.7463 16.9344C57.5416 15.9495 57.1954 14.9169 56.3927 14.3132C55.1021 13.3282 54.0634 14.4403 52.9774 15.0757C51.2776 16.0765 49.7667 17.4269 48.5706 18.9996C48.1771 19.5238 47.7836 20.1116 47.1698 20.3499C46.5875 20.5882 45.9265 20.4611 45.3127 20.3499C43.125 19.9845 40.8901 19.8416 38.6709 19.9369C37.1285 20.0004 34.2955 19.778 32.8948 20.3976C32.7217 20.477 32.5485 20.5723 32.3597 20.5405C32.1393 20.5088 31.9819 20.3181 31.8403 20.1593C29.81 17.6175 27.5121 15.0916 24.4588 13.9955C21.4527 12.8993 20.7445 17.2203 20.6973 19.3967L20.7287 19.4126Z" fill="#C0B9AC"/>
<path d="M50.3804 44.8138C51.1044 44.1783 51.5293 43.3682 51.5136 42.3038C51.4664 39.4284 49.263 38.3164 46.9651 37.3155C44.6673 36.3147 44.1479 35.0756 42.3537 33.344C41.2362 32.2479 39.741 32.1526 38.2616 32.3591C36.0896 32.6768 35.586 33.9 34.3426 35.3457C33.2252 36.6483 31.73 37.2361 30.3135 38.1734C29.1489 38.9518 28.2832 40.2068 28.0944 41.6048C27.2602 47.6097 35.6017 47.1332 39.3948 46.9743C41.913 46.879 47.8622 47.0061 50.3647 44.8138H50.3804Z" fill="white"/>
<path d="M27.1977 20.032C26.7255 19.4283 26.1747 18.8882 25.6081 18.3957C25.3248 18.2051 25.0415 18.0145 24.7424 17.8556C24.6952 17.8397 24.6952 17.8397 24.6795 17.8238C24.6795 17.8238 24.6795 17.8238 24.6323 17.8238C24.585 17.8079 24.5378 17.7921 24.4906 17.7762C24.4277 17.7603 24.349 17.7444 24.286 17.7285C24.2703 17.7285 24.286 17.7285 24.2545 17.7285C24.2073 17.7285 24.0814 17.7285 24.0499 17.7285C24.0342 17.7285 24.0184 17.7285 24.0027 17.7285C23.9712 17.7285 23.9555 17.7603 23.924 17.7762C23.8925 17.8079 23.8138 17.8874 23.7981 17.9191C23.7509 17.9827 23.7194 18.0462 23.6879 18.1257C23.6722 18.1733 23.6565 18.1733 23.6565 18.1892C23.6565 18.1892 23.6565 18.2051 23.6407 18.2528C23.562 18.4752 23.4991 18.6976 23.4676 18.9359C23.3889 19.3489 23.3574 19.8573 23.3574 20.4292C23.3574 21.7159 23.4833 23.0663 23.6565 24.3054C23.7666 25.1314 23.9398 25.9734 24.0971 26.7995C24.7267 26.0052 25.5766 25.4333 26.3635 24.8137C27.0088 24.3054 28.2522 23.5269 28.441 22.6373C28.6299 21.7795 27.7013 20.6674 27.2134 20.0479L27.1977 20.032Z" fill="white"/>
<path d="M54.3308 27.3564C55.1649 25.2594 55.8417 22.9718 56.0148 20.7001C56.0463 20.2077 56.062 19.7152 56.0148 19.2227C56.0148 19.048 55.9833 18.9527 55.9204 18.6826C55.9046 18.5873 55.8732 18.492 55.8417 18.3966C55.7945 18.2537 55.7945 18.2696 55.7945 18.2854C55.7472 18.206 55.7 18.1107 55.6528 18.0313C55.6528 18.0154 55.7158 18.0948 55.5899 17.9677C55.5741 17.9518 55.5584 17.9359 55.5426 17.9201C55.5112 17.9042 55.4325 17.8565 55.4167 17.8406C55.3695 17.8406 55.2751 17.793 55.2436 17.793C55.2593 17.793 55.2908 17.793 55.1334 17.793C54.8659 17.793 54.9288 17.793 54.6613 17.8406C54.5668 17.8565 54.4881 17.8406 54.4095 17.8406C54.3465 17.8724 54.2835 17.9042 54.2206 17.9359C53.5123 18.349 52.9143 18.9209 52.3792 19.5246C51.5607 20.4301 50.6951 21.5898 50.3174 22.7971C50.6794 23.8774 51.9542 24.7193 52.6782 25.4819C53.2605 26.0855 53.7484 26.7845 54.2206 27.4835C54.2363 27.4358 54.2678 27.3723 54.2993 27.3246L54.3308 27.3564Z" fill="white"/>
<path d="M30.7545 29.0235C30.9118 29.2141 31.085 29.3888 31.2738 29.5636C31.5257 29.786 31.809 29.9925 32.0922 30.1673C32.2339 30.2467 32.3755 30.2944 32.5329 30.3102C32.6903 30.342 32.8477 30.342 33.0051 30.2944C33.1625 30.2626 33.2884 30.1831 33.4143 30.0878C33.5402 30.0084 33.6504 29.8972 33.7133 29.7542L33.8392 29.4683C33.9022 29.2618 33.9022 29.0393 33.8392 28.8328L33.7133 28.5469C33.6032 28.3721 33.4615 28.2292 33.2884 28.118C33.1467 28.0226 33.0051 27.9273 32.8634 27.832L33.0995 28.0226C32.8477 27.832 32.6274 27.6096 32.4228 27.3554C32.3126 27.2442 32.1867 27.1648 32.045 27.1012C31.9034 27.0218 31.746 26.99 31.5886 27.0059C31.4312 27.0059 31.2738 27.0377 31.1322 27.1012C30.9905 27.1489 30.8646 27.2283 30.7545 27.3554L30.5656 27.5937C30.4554 27.7843 30.4082 27.975 30.4082 28.1974L30.4554 28.5151C30.5184 28.7216 30.6128 28.8964 30.7545 29.0393V29.0235Z" fill="#5C564D"/>
<path d="M45.6431 29.8979L46.5874 28.6429C46.6661 28.4999 46.7133 28.3569 46.7291 28.198C46.7606 28.0392 46.7606 27.8803 46.7133 27.7215C46.6819 27.5626 46.6032 27.4355 46.5087 27.3084C46.43 27.1813 46.3199 27.0701 46.1782 27.0066C45.9107 26.8636 45.5801 26.7842 45.2654 26.8795L44.9821 27.0066C44.8089 27.1178 44.6673 27.2608 44.5571 27.4355L43.6128 28.6905C43.5341 28.8335 43.4869 28.9765 43.4712 29.1353C43.4397 29.2942 43.4397 29.453 43.4869 29.6119C43.5184 29.7708 43.5971 29.8979 43.6915 30.0249C43.7702 30.152 43.8804 30.2632 44.022 30.3268C44.2896 30.4698 44.6201 30.5492 44.9349 30.4539L45.2182 30.3268C45.3913 30.2156 45.5329 30.0726 45.6431 29.8979Z" fill="#5C564D"/>
<path d="M37.6948 22.6858C37.7263 22.8606 37.7577 23.0353 37.7735 23.1942L37.7263 22.8765C37.7892 23.3531 37.8207 23.8138 37.805 24.2903C37.805 24.5922 37.9466 24.9258 38.1512 25.1323C38.3558 25.3388 38.6863 25.4977 38.9854 25.4818C39.2844 25.4659 39.6149 25.3706 39.8195 25.1323C40.0241 24.894 40.1658 24.6081 40.1658 24.2903C40.1658 23.5437 40.0871 22.7812 39.9612 22.0504C39.914 21.7644 39.6464 21.4785 39.426 21.3355C39.1742 21.1925 38.7965 21.129 38.5132 21.2084C38.2299 21.2879 37.9466 21.4785 37.805 21.7486L37.6791 22.0345C37.6161 22.241 37.6161 22.4634 37.6791 22.67L37.6948 22.6858Z" fill="#5C564D"/>
<path d="M33.4141 20.7632C33.839 23.0191 34.5945 25.2113 35.649 27.2606C35.9323 27.8167 36.7507 28.0232 37.2701 27.6896C37.8366 27.3242 37.994 26.657 37.695 26.0533C37.4589 25.5767 37.2228 25.1001 37.0182 24.6236C37.1127 24.8301 36.9395 24.417 36.9238 24.3853C36.8766 24.2741 36.8451 24.1787 36.7979 24.0675C36.7035 23.7975 36.609 23.5274 36.5146 23.2732C36.1683 22.2565 35.9008 21.208 35.7119 20.1437C35.6017 19.5241 34.8306 19.127 34.264 19.3176C33.6187 19.5241 33.3196 20.1278 33.4455 20.7791L33.4141 20.7632Z" fill="#5C564D"/>
<path d="M42.1335 20.6985C42.1335 20.9527 42.102 21.2228 42.0863 21.4769C42.0863 21.5881 42.0705 21.6993 42.0548 21.8105C42.0548 21.8582 41.9918 22.303 42.0233 22.0488C41.9603 22.5254 41.8659 23.002 41.7715 23.4627C41.5511 24.4476 41.2521 25.4008 40.8744 26.3222C40.6383 26.8941 41.1262 27.6566 41.6928 27.7837C42.3853 27.9426 42.8889 27.5772 43.1407 26.9576C43.9434 24.9719 44.3841 22.8431 44.4943 20.6985C44.5258 20.079 43.9277 19.4753 43.3139 19.5071C42.6528 19.5388 42.1649 20.0313 42.1335 20.6985Z" fill="#5C564D"/>
<path d="M22.0195 33.7902C22.6018 33.7266 23.1842 33.7425 23.7508 33.8219L23.436 33.7743C23.5934 33.7902 23.7508 33.8219 23.8924 33.8537C24.2072 33.9172 24.522 33.9014 24.8053 33.7266C25.0571 33.5836 25.2774 33.2977 25.3404 33.0117C25.4033 32.7099 25.3876 32.3604 25.2145 32.0903C25.0571 31.8362 24.8053 31.5979 24.5062 31.5502C23.6878 31.3914 22.8379 31.3278 22.0038 31.4072C21.8464 31.4072 21.689 31.439 21.5473 31.5026C21.4057 31.5502 21.2798 31.6296 21.1696 31.7567C20.965 31.9633 20.8076 32.2969 20.8234 32.5987C20.8391 32.9005 20.9335 33.2341 21.1696 33.4407C21.3899 33.6472 21.7047 33.8219 22.0038 33.7902H22.0195Z" fill="#5C564D"/>
<path d="M22.7274 38.5405L26.8666 36.8248C27.1657 36.6977 27.4018 36.5706 27.5749 36.2846C27.7165 36.0305 27.7795 35.6492 27.7008 35.3632C27.6221 35.0773 27.4332 34.7913 27.1657 34.6484C26.8981 34.5054 26.5361 34.4101 26.2528 34.5213L22.1136 36.237C21.8145 36.3641 21.5784 36.4912 21.4053 36.7771C21.2637 37.0313 21.2007 37.4126 21.2794 37.6985C21.3581 37.9845 21.547 38.2704 21.8145 38.4134C22.0821 38.5564 22.4441 38.6517 22.7274 38.5405Z" fill="#5C564D"/>
<path d="M24.789 42.7178L26.4258 41.1927C26.6461 40.9862 26.7721 40.6526 26.7721 40.3508C26.7721 40.1919 26.7406 40.033 26.6776 39.8901C26.6304 39.7471 26.5517 39.62 26.4258 39.5088C26.2055 39.3023 25.9064 39.1434 25.5916 39.1593C25.2769 39.1752 24.9936 39.2864 24.7575 39.5088L23.1207 41.0339C22.9003 41.2404 22.7744 41.574 22.7744 41.8758C22.7744 42.0347 22.8059 42.1935 22.8688 42.3365C22.9161 42.4795 22.9948 42.6066 23.1207 42.7178C23.341 42.9243 23.64 43.0832 23.9548 43.0673C24.2696 43.0514 24.5529 42.9402 24.789 42.7178Z" fill="#5C564D"/>
<path d="M53.7173 33.2498C54.095 33.0274 54.4727 32.8368 54.8819 32.662L54.5986 32.7891C55.0551 32.5985 55.5272 32.4396 55.9994 32.3125C56.2827 32.2331 56.5503 32.0266 56.7076 31.7724C56.865 31.5182 56.9122 31.137 56.8336 30.851C56.6289 30.2315 56.0151 29.8502 55.3856 30.0249C54.394 30.295 53.434 30.6922 52.5369 31.2005C52.2851 31.3435 52.0805 31.6294 52.0018 31.9154C51.9231 32.2013 51.9545 32.5826 52.1277 32.8368C52.4739 33.3769 53.1664 33.5993 53.7488 33.2657L53.7173 33.2498Z" fill="#5C564D"/>
<path d="M51.4355 36.3305L57.0542 36.9659C57.668 37.0295 58.2661 36.3623 58.2346 35.7745C58.2032 35.0755 57.7153 34.6624 57.0542 34.583L51.4355 33.9476C50.8217 33.884 50.2236 34.5512 50.2551 35.139C50.2866 35.838 50.7745 36.2511 51.4355 36.3305Z" fill="#5C564D"/>
<path d="M53.0406 39.8424C53.1823 39.8901 53.3396 39.9536 53.4813 40.0172L53.198 39.8901C53.8433 40.1601 54.4414 40.5255 55.008 40.9544L54.7719 40.7638C54.7719 40.7638 54.9135 40.875 54.9765 40.9227C55.2283 41.1292 55.4801 41.2722 55.8106 41.2722C56.0939 41.2722 56.4402 41.1451 56.6448 40.9227C56.8494 40.7003 57.0068 40.3984 56.991 40.0807C56.991 39.7789 56.8809 39.4294 56.6448 39.2387C56.2041 38.8734 55.7477 38.5398 55.244 38.2538C54.7404 37.9679 54.221 37.7454 53.6859 37.5389C53.4026 37.4436 53.0249 37.5072 52.773 37.666C52.5212 37.8249 52.3009 38.0949 52.2379 38.3809C52.175 38.6827 52.1907 39.0322 52.3638 39.3023C52.537 39.5723 52.7731 39.7471 53.0721 39.8424H53.0406Z" fill="#5C564D"/>
</g>
<path d="M31.1156 35.0141C31.9675 35.0141 32.658 34.317 32.658 33.4572C32.658 32.5974 31.9675 31.9004 31.1156 31.9004C30.2638 31.9004 29.5732 32.5974 29.5732 33.4572C29.5732 34.317 30.2638 35.0141 31.1156 35.0141Z" fill="#231F20"/>
<path d="M47.1381 35.0141C47.9899 35.0141 48.6805 34.317 48.6805 33.4572C48.6805 32.5974 47.9899 31.9004 47.1381 31.9004C46.2863 31.9004 45.5957 32.5974 45.5957 33.4572C45.5957 34.317 46.2863 35.0141 47.1381 35.0141Z" fill="#231F20"/>
<path d="M39.1262 36.1108C39.8911 36.1108 40.5112 35.7196 40.5112 35.237C40.5112 34.7545 39.8911 34.3633 39.1262 34.3633C38.3613 34.3633 37.7412 34.7545 37.7412 35.237C37.7412 35.7196 38.3613 36.1108 39.1262 36.1108Z" fill="#231F20"/>
<path d="M30.0772 22.2887C35.6487 19.9852 41.9442 19.7946 47.6574 21.7803C48.3813 22.0345 48.6804 20.8748 47.9721 20.6365C42.1016 18.5872 35.5228 18.762 29.7782 21.1449C29.4791 21.272 29.2745 21.542 29.3689 21.8756C29.4476 22.1616 29.7939 22.4158 30.0929 22.2887H30.0772Z" fill="#231F20"/>
<path d="M23.2619 14.4721C25.8116 15.5841 28.1566 17.125 30.1555 19.0631C30.722 19.6192 31.2729 20.2069 31.7923 20.8106C31.9969 21.0489 32.4218 21.033 32.6264 20.8106C32.8625 20.5723 32.831 20.2069 32.6264 19.9686C30.7693 17.7764 28.5186 15.9177 26.0319 14.5197C25.3237 14.1226 24.5997 13.7572 23.86 13.4395C23.5609 13.3124 23.2304 13.3441 23.0573 13.646C22.9156 13.9002 22.9786 14.3291 23.2619 14.4562V14.4721Z" fill="#231F20"/>
<path d="M21.4052 14.7584C19.6424 19.6037 19.847 25.0367 21.8616 29.7549C21.9875 30.0568 22.4124 30.1203 22.6643 29.9614C22.9633 29.7867 23.0105 29.4372 22.8689 29.1512C20.9802 24.719 20.8858 19.5878 22.5226 15.0762C22.7902 14.3613 21.6412 14.0436 21.3894 14.7584H21.4052Z" fill="#231F20"/>
<path d="M24.1592 18.8564C24.474 19.0312 24.773 19.2218 25.0721 19.4283C25.1508 19.476 25.2137 19.5396 25.2924 19.5872C25.3554 19.6349 25.198 19.5078 25.2452 19.5554C25.2609 19.5554 25.2767 19.5872 25.2924 19.5872C25.3239 19.619 25.3711 19.6508 25.4026 19.6825C25.5442 19.7937 25.6702 19.9208 25.8118 20.032C26.0794 20.2703 26.3154 20.5404 26.5515 20.8104C26.583 20.8422 26.6145 20.8899 26.646 20.9216C26.646 20.9375 26.7561 21.0646 26.6932 20.9693C26.6302 20.874 26.7246 21.0011 26.7404 21.017C26.7719 21.0646 26.8033 21.0964 26.8348 21.1441C26.945 21.287 27.0394 21.4459 27.1339 21.5889C27.3542 21.9384 27.5431 22.2879 27.7005 22.6691C27.7634 22.7962 27.9208 22.9074 28.0467 22.9392C28.1884 22.971 28.3772 22.9551 28.5031 22.8756C28.629 22.7962 28.7392 22.6691 28.7707 22.5261C28.8022 22.3673 28.7707 22.2243 28.7077 22.0654C28.0782 20.6357 27.0709 19.4125 25.8275 18.4752C25.497 18.221 25.1508 17.9986 24.773 17.808C24.5055 17.665 24.112 17.7285 23.9704 18.0145C23.8287 18.2845 23.8917 18.6658 24.175 18.8247L24.1592 18.8564Z" fill="#231F20"/>
<path d="M25.2608 25.1791C22.6324 28.0704 21.1372 32.0895 21.5149 36.0293C21.8927 39.9691 23.9702 43.1939 27.1966 45.1797C28.9594 46.26 31.0211 46.8636 33.0987 46.7842C33.8541 46.7524 33.8541 45.561 33.0987 45.5927C29.8093 45.7039 26.63 43.9565 24.7099 41.2876C22.6324 38.4122 22.1917 34.7266 23.1675 31.3429C23.7341 29.373 24.7414 27.5461 26.1264 26.021C26.6458 25.4491 25.8116 24.6072 25.2922 25.1791H25.2608Z" fill="#231F20"/>
<path d="M47.4213 20.986C48.2712 20.1441 49.0739 19.2544 49.9395 18.4125C50.632 17.7453 51.3718 17.1575 52.1115 16.5697C52.7725 16.0613 53.4335 15.553 54.1418 15.1082C54.4408 14.9175 54.7713 14.7269 55.1018 14.6157C55.1805 14.5839 55.2592 14.568 55.3537 14.5363C55.4481 14.5045 55.4324 14.5204 55.4481 14.5204C55.637 14.5204 55.6055 14.5204 55.7471 14.5521C55.8416 14.5839 55.7943 14.5521 55.8101 14.568C55.8573 14.5839 55.9045 14.6157 55.9517 14.6475C56.0304 14.6951 56.0776 14.7428 56.1878 14.854C56.3295 15.0128 56.4711 15.2511 56.5813 15.5053C56.8488 16.0772 57.0062 16.7921 57.1007 17.4434C57.3053 18.6825 57.3367 19.9693 57.3525 21.2243C57.384 23.9408 56.9275 26.6574 55.8573 29.1674C55.7314 29.4692 55.7786 29.8028 56.0619 29.9776C56.3137 30.1205 56.7387 30.057 56.8646 29.771C58.5171 25.9107 58.8634 21.6056 58.2811 17.4752C58.0922 16.1566 57.7459 14.3774 56.5026 13.6308C55.0389 12.7411 53.2447 14.2185 52.1115 15.0764C51.2458 15.7277 50.4589 16.3155 49.6562 17.0463C48.5703 18.0312 47.5945 19.1432 46.54 20.1758C45.9891 20.716 46.8233 21.5579 47.3741 21.0178L47.4213 20.986Z" fill="#231F20"/>
<path d="M54.0157 17.8245C52.6622 18.5553 51.4975 19.6673 50.6791 20.9859C50.4588 21.3354 50.2699 21.7166 50.0968 22.0979C50.0338 22.2568 49.9866 22.3838 50.0338 22.5586C50.0653 22.7016 50.1755 22.8445 50.3014 22.9081C50.443 22.9875 50.6004 23.0193 50.7578 22.9716C50.8995 22.924 51.0568 22.8287 51.1041 22.7016C51.2457 22.368 51.4188 22.0502 51.592 21.7484C51.6864 21.5895 51.7808 21.4466 51.8753 21.2877C51.9225 21.2083 51.9854 21.1447 52.0327 21.0653C52.0641 21.0335 52.0799 21.0018 52.1113 20.97C52.1586 20.9064 52.0326 21.0653 52.0799 21.0176C52.0956 21.0018 52.1113 20.97 52.1271 20.9541C52.3474 20.6681 52.5835 20.3981 52.8511 20.1598C52.977 20.0327 53.1186 19.9056 53.2603 19.7785C53.3232 19.7309 53.3862 19.6673 53.4491 19.6197C53.4649 19.6197 53.5908 19.5085 53.4964 19.572C53.4177 19.6355 53.4806 19.572 53.4964 19.572C53.5278 19.5561 53.5436 19.5402 53.575 19.5085C53.9056 19.2702 54.2361 19.0478 54.5981 18.8571C54.8656 18.7142 54.9758 18.3011 54.8027 18.0469C54.6295 17.761 54.2833 17.6816 54 17.8404L54.0157 17.8245Z" fill="#231F20"/>
<path d="M52.6776 26.0213C55.0699 28.6584 56.392 32.2963 56.0929 35.8707C55.7939 39.4451 53.8738 42.3681 50.9936 44.1315C49.3882 45.1164 47.5783 45.6407 45.6896 45.5771C44.9342 45.5453 44.9342 46.7368 45.6896 46.7686C49.3725 46.8798 52.835 44.9258 55.0227 41.9869C57.352 38.8573 57.8399 34.7269 56.7697 31.0095C56.1559 28.8332 55.0227 26.8315 53.5118 25.1635C52.9924 24.5916 52.1583 25.4335 52.6776 26.0054V26.0213Z" fill="#231F20"/>
</svg>
