<svg width="80" height="77" viewBox="0 0 80 77" fill="none" xmlns="http://www.w3.org/2000/svg">
<mask id="mask0_188_2667" style="mask-type:luminance" maskUnits="userSpaceOnUse" x="29" y="38" width="22" height="24">
<path d="M41.6717 38.6939C45.1343 39.7742 46.9285 42.8084 48.1561 46.0015C48.8643 47.8443 49.3522 49.7507 49.8874 51.6729C50.69 54.723 50.2808 58.4404 47.7784 60.299C46.1573 61.5064 44.0483 61.697 42.0337 61.8082C36.9029 62.0783 30.7333 61.9035 29.7575 55.565C29.3483 52.8961 30.2769 51.101 31.0009 48.6227C31.898 45.5567 33.1256 41.6487 35.8327 39.7901C37.5167 38.6304 39.7044 38.0902 41.6717 38.6939Z" fill="white"/>
</mask>
<g mask="url(#mask0_188_2667)">
<path d="M41.6717 38.6939C45.1343 39.7742 46.9285 42.8084 48.1561 46.0015C48.8643 47.8443 49.3522 49.7507 49.8874 51.6729C50.69 54.723 50.2808 58.4404 47.7784 60.299C46.1573 61.5064 44.0483 61.697 42.0337 61.8082C36.9029 62.0783 30.7333 61.9035 29.7575 55.565C29.3483 52.8961 30.2769 51.101 31.0009 48.6227C31.898 45.5567 33.1256 41.6487 35.8327 39.7901C37.5167 38.6304 39.7044 38.0902 41.6717 38.6939Z" fill="#C0B9AC"/>
<path d="M41.7347 40.807C38.7129 40.0286 30.5602 40.8229 32.8738 46.0653C33.5034 47.4951 34.6523 48.6071 35.7068 49.7509C36.7613 50.8947 40.7589 56.8996 37.0603 57.1856C36.2104 57.2491 35.3448 57.3127 34.4949 57.3762C33.0942 57.4874 34.5421 60.5217 34.9671 61.1253C36.2734 63.0158 38.886 63.4129 41.1681 63.3017C42.4272 63.2382 43.7965 63.0317 44.6464 62.0944C45.0399 61.6655 45.276 61.1253 45.4491 60.5693C45.7324 59.7115 46.4564 57.2332 44.9454 57.6463C42.5689 58.2817 41.2154 57.2015 41.4042 54.8503C41.4829 53.786 41.5773 52.6739 42.0653 51.7208C42.6004 50.6882 43.529 49.9256 44.2844 49.0519C45.4333 47.7016 46.8184 45.2392 46.0629 43.3806C45.4491 41.8714 43.1827 41.1883 41.7347 40.807Z" fill="white"/>
<path d="M30.4344 49.274C33.3146 49.9253 36.2892 50.1477 39.2323 49.9253C39.8619 49.8777 40.4127 49.417 40.4127 48.7339C40.4127 48.1302 39.8776 47.4948 39.2323 47.5424C36.4938 47.7648 33.7395 47.5901 31.0482 46.9864C30.4187 46.8434 29.7734 47.177 29.6002 47.8125C29.4428 48.4161 29.8048 49.131 30.4187 49.274H30.4344Z" fill="#5C564D"/>
<path d="M42.5218 52.6737C45.6381 52.3878 48.6599 51.4505 51.3513 49.846C52.6576 49.0676 51.4772 47.0024 50.1551 47.7808C47.8258 49.1629 45.1502 50.0525 42.5061 50.2908C41.8765 50.3543 41.3257 50.7992 41.3257 51.4823C41.3257 52.0859 41.8608 52.7373 42.5061 52.6737H42.5218Z" fill="#5C564D"/>
<path d="M29.2068 53.9128C30.7649 54.167 32.323 54.3418 33.8969 54.4212C34.5107 54.453 35.1088 53.8493 35.0773 53.2297C35.0458 52.5625 34.5579 52.07 33.8969 52.0383C33.1729 52.0065 32.4647 51.9588 31.7407 51.8794C31.3944 51.8476 31.0482 51.8159 30.7177 51.7523C31.0325 51.8 30.7649 51.7523 30.6862 51.7523C30.6075 51.7523 30.5131 51.7205 30.4344 51.7205C30.2298 51.6888 30.0409 51.657 29.8363 51.6252C29.5215 51.5776 29.2225 51.5776 28.9235 51.7523C28.6716 51.8953 28.4513 52.1812 28.3883 52.4672C28.2624 53.0391 28.5615 53.8175 29.2068 53.9287V53.9128Z" fill="#5C564D"/>
<path d="M47.7312 54.9614C48.707 54.9297 49.6985 54.6278 50.5012 54.0718C50.753 53.8971 50.9576 53.6747 51.0363 53.357C51.115 53.071 51.0835 52.6897 50.9104 52.4356C50.7373 52.1814 50.5012 51.959 50.2021 51.8954C49.9031 51.8319 49.5569 51.8319 49.2893 52.0225C49.0532 52.1814 48.8014 52.3244 48.5338 52.4356L48.8171 52.3085C48.4866 52.4356 48.1561 52.5309 47.8099 52.5785L48.1246 52.5309C47.983 52.5468 47.8571 52.5626 47.7154 52.5626C47.4007 52.5626 47.1016 52.6897 46.8813 52.9121C46.6767 53.1187 46.5193 53.4523 46.535 53.7541C46.5508 54.0559 46.6452 54.3895 46.8813 54.5961C47.1174 54.8026 47.4007 54.9614 47.7154 54.9456L47.7312 54.9614Z" fill="#5C564D"/>
<path d="M42.1126 58.8535L45.5437 58.5676C45.8585 58.5358 46.1418 58.4564 46.3778 58.2181C46.5824 58.0116 46.7398 57.6779 46.7241 57.3761C46.6926 56.7724 46.2047 56.137 45.5437 56.1847L42.1126 56.4706C41.7979 56.5024 41.5146 56.5818 41.2785 56.8201C41.0739 57.0266 40.9165 57.3602 40.9322 57.6621C40.9637 58.2657 41.4516 58.9012 42.1126 58.8535Z" fill="#5C564D"/>
<path d="M30.1038 58.6151L31.8823 58.3292C32.0397 58.2974 32.1656 58.218 32.2915 58.1227C32.4174 58.0432 32.5276 57.932 32.5905 57.789C32.6692 57.6461 32.7164 57.5031 32.7322 57.3442C32.7636 57.1854 32.7636 57.0265 32.7164 56.8676C32.622 56.5817 32.4489 56.2957 32.1813 56.1528L31.898 56.0257C31.6934 55.9621 31.4731 55.9621 31.2685 56.0257L29.49 56.3116C29.3326 56.3434 29.2067 56.4228 29.0808 56.5182C28.9549 56.5976 28.8447 56.7088 28.7817 56.8518C28.7031 56.9947 28.6558 57.1377 28.6401 57.2966C28.6086 57.4554 28.6086 57.6143 28.6558 57.7732C28.7503 58.0591 28.9234 58.3451 29.191 58.488L29.4743 58.6151C29.6789 58.6787 29.8992 58.6787 30.1038 58.6151Z" fill="#5C564D"/>
</g>
<mask id="mask1_188_2667" style="mask-type:luminance" maskUnits="userSpaceOnUse" x="46" y="43" width="14" height="17">
<path d="M55.5375 44.699C54.8292 45.7633 54.7348 47.0978 54.7348 48.3845C54.7348 49.6713 54.845 50.9581 54.483 52.1813C53.9164 54.1194 52.1222 55.6286 50.1234 55.8351C49.3836 55.9146 48.6282 55.8351 47.9199 56.0099C47.2117 56.1846 46.4877 56.7406 46.472 57.4873C46.4405 58.3769 47.3691 58.9965 48.2347 59.203C50.7214 59.7908 53.4757 58.6311 55.2857 56.9154C57.5993 54.739 56.9225 52.4355 57.4261 49.6713C57.615 48.5911 58.2288 47.6538 58.6538 46.6371C59.1417 45.4774 59.5194 44.2065 58.0557 43.6505C57.0169 43.2692 56.0726 43.8411 55.5375 44.6672V44.699Z" fill="white"/>
</mask>
<g mask="url(#mask1_188_2667)">
<path d="M55.5375 44.699C54.8292 45.7633 54.7348 47.0978 54.7348 48.3845C54.7348 49.6713 54.845 50.9581 54.483 52.1813C53.9164 54.1194 52.1222 55.6286 50.1234 55.8351C49.3836 55.9146 48.6282 55.8351 47.9199 56.0099C47.2117 56.1846 46.4877 56.7406 46.472 57.4873C46.4405 58.3769 47.3691 58.9965 48.2347 59.203C50.7214 59.7908 53.4757 58.6311 55.2857 56.9154C57.5993 54.739 56.9225 52.4355 57.4261 49.6713C57.615 48.5911 58.2288 47.6538 58.6538 46.6371C59.1417 45.4774 59.5194 44.2065 58.0557 43.6505C57.0169 43.2692 56.0726 43.8411 55.5375 44.6672V44.699Z" fill="#C0B9AC"/>
<path d="M51.9333 55.343L54.6876 57.5194C54.8293 57.6783 55.0024 57.7895 55.1913 57.853C55.3801 57.9483 55.5847 57.996 55.8051 57.996C56.1985 57.996 56.655 57.8212 56.9225 57.5353C57.1901 57.2493 57.3947 56.8363 57.379 56.4074C57.3632 56.0102 57.2373 55.5336 56.9225 55.2794L54.1682 53.1031C54.0266 52.9442 53.8535 52.833 53.6646 52.7694C53.4757 52.6741 53.2711 52.6265 53.0508 52.6265C52.6573 52.6265 52.2009 52.8012 51.9333 53.0872C51.6658 53.3731 51.4612 53.7862 51.4769 54.2151C51.4927 54.6122 51.6186 55.0888 51.9333 55.343Z" fill="#5C564D"/>
<path d="M52.9249 51.2442C53.1767 51.2601 53.4128 51.2918 53.6646 51.3236L53.2397 51.2601C54.1997 51.3871 55.1283 51.6413 56.0254 52.0226L55.6477 51.8637C56.0254 52.0226 56.4031 52.2132 56.7651 52.4197C57.4891 52.8328 58.5121 52.6104 58.9213 51.8478C59.3305 51.0853 59.1259 50.1163 58.3547 49.6714C56.6864 48.7183 54.845 48.194 52.9249 48.0669C52.1065 48.0193 51.3195 48.8295 51.351 49.6556C51.3982 50.5611 52.0435 51.1806 52.9249 51.2442Z" fill="#5C564D"/>
<path d="M54.908 45.557C56.1985 46.3195 57.615 46.8914 59.063 47.2092C59.4722 47.3045 59.8971 47.2727 60.2749 47.0503C60.6054 46.8597 60.9202 46.4784 60.9989 46.0971C61.0933 45.6841 61.0775 45.2393 60.8415 44.8739C60.6211 44.5403 60.3064 44.2385 59.8971 44.1431C59.1259 43.9684 58.3547 43.7301 57.6308 43.4283L58.0085 43.5871C57.4891 43.3647 56.9855 43.1105 56.4976 42.8087C56.1513 42.6022 55.6792 42.5386 55.2857 42.6498C54.9237 42.7452 54.5302 43.0311 54.3414 43.3806C53.9479 44.1431 54.1525 45.0963 54.908 45.557Z" fill="#5C564D"/>
</g>
<path d="M32.7793 42.5383C32.1183 43.9681 31.4887 45.4296 30.9064 46.8911C30.3241 48.3526 29.7732 49.7188 29.3955 51.1804C28.7345 53.7539 28.6872 56.5816 30.1352 58.901C30.8592 60.0607 31.8665 60.9344 33.1256 61.4269C33.8338 61.697 34.1486 60.5532 33.4403 60.2831C30.7018 59.2187 29.8676 55.8668 30.1982 53.2138C30.4028 51.4981 31.0008 49.8459 31.6304 48.2414C32.3071 46.5098 33.0311 44.81 33.8023 43.1261C34.1171 42.4271 33.1098 41.8234 32.7793 42.5224V42.5383Z" fill="#231F20"/>
<path d="M33.2358 56.6611C33.2673 57.646 33.3618 58.6468 33.5664 59.6C33.7395 60.442 34.1487 61.2998 34.9514 61.697C35.3763 61.9035 35.817 61.9829 36.2734 61.9988C36.6984 61.9988 37.1705 61.967 37.5797 61.8717C38.0676 61.7605 38.4926 61.4587 38.7287 61.0139C38.9333 60.6326 39.0277 60.2037 39.0907 59.7748C39.2638 58.6627 39.311 57.5348 39.1851 56.4069C39.1693 56.248 39.1379 56.1051 39.012 55.978C38.9018 55.8668 38.7444 55.8032 38.587 55.8032C38.3037 55.8032 37.9575 56.0733 37.9889 56.4069C38.0834 57.2965 38.0834 58.1861 37.9889 59.0758C37.9889 59.1393 37.9889 59.187 37.9732 59.2505C37.9732 59.2823 37.9732 59.2982 37.9732 59.3299C37.9732 59.4253 37.9732 59.2187 37.9732 59.3299C37.9575 59.4411 37.9417 59.5523 37.926 59.6635C37.8945 59.8383 37.863 60.0289 37.8158 60.2037C37.8158 60.2513 37.7843 60.2831 37.7686 60.3308C37.7686 60.3467 37.7686 60.3625 37.7529 60.3784C37.7371 60.442 37.7843 60.3149 37.7843 60.3149C37.7529 60.3467 37.7529 60.3943 37.7371 60.4261C37.7214 60.4737 37.6899 60.5055 37.6584 60.5532C37.6584 60.5532 37.6427 60.5849 37.6269 60.6008C37.6269 60.6008 37.7056 60.5055 37.6584 60.5532C37.6269 60.5849 37.5955 60.6167 37.564 60.6485C37.6427 60.6008 37.564 60.6485 37.5483 60.6485C37.5168 60.6644 37.4381 60.6961 37.4223 60.712C37.4538 60.6644 37.5168 60.6803 37.4538 60.712C37.4381 60.712 37.4223 60.712 37.3909 60.7279C37.3437 60.7279 37.2964 60.7597 37.2492 60.7597C37.202 60.7597 37.1705 60.7756 37.1233 60.7915C37.0918 60.7915 37.0761 60.7915 37.0446 60.7915C36.9659 60.7915 37.0446 60.7915 37.0761 60.7915C36.9974 60.8232 36.8872 60.8073 36.8085 60.8232C36.7141 60.8232 36.6354 60.8232 36.541 60.8391C36.3678 60.8391 36.179 60.8391 36.0059 60.8391C35.9901 60.8391 35.9744 60.8391 35.9429 60.8391C35.8799 60.8391 36.0059 60.8391 36.0059 60.8391C35.9586 60.8391 35.9114 60.8391 35.8799 60.8232C35.7855 60.8073 35.6911 60.7756 35.6124 60.7438C35.5809 60.7438 35.5494 60.712 35.5022 60.712C35.5022 60.712 35.6281 60.7756 35.5337 60.712C35.518 60.712 35.5022 60.6961 35.4865 60.6803C35.4078 60.6326 35.3291 60.5849 35.2661 60.5373C35.2032 60.4896 35.3448 60.6167 35.2976 60.5532C35.2976 60.5532 35.2661 60.5214 35.2504 60.5214C35.2189 60.4896 35.1874 60.4579 35.156 60.4261C35.1245 60.3943 35.1087 60.3784 35.0773 60.3467C35.0773 60.3308 35.0143 60.2672 35.0773 60.3467C35.0301 60.2831 34.9986 60.2196 34.9514 60.1401C34.9356 60.1084 34.9041 60.0607 34.8884 60.0289C34.8884 60.013 34.8884 59.9972 34.8727 59.9813C34.9514 60.1084 34.9041 60.0448 34.8727 59.9972C34.8097 59.8383 34.7625 59.6635 34.7153 59.4888C34.6681 59.2823 34.6366 59.0917 34.6051 58.8851C34.5894 58.758 34.5736 58.6468 34.5579 58.5198C34.5579 58.5039 34.5422 58.3927 34.5579 58.4721C34.5736 58.5515 34.5579 58.4403 34.5579 58.4244C34.5579 58.3609 34.5422 58.2973 34.5422 58.2338C34.4792 57.7254 34.4477 57.2171 34.432 56.6928C34.432 56.3751 34.1644 56.0892 33.8339 56.0892C33.5034 56.0892 33.2358 56.3434 33.2358 56.6928V56.6611Z" fill="#231F20"/>
<path d="M46.0314 43.142C46.8026 44.8259 47.5265 46.5257 48.2033 48.2573C48.8329 49.8618 49.4309 51.5139 49.6355 53.2296C49.966 55.8826 49.1319 59.2346 46.3933 60.299C45.6851 60.569 45.9999 61.7287 46.7081 61.4428C48.9588 60.569 50.3752 58.3926 50.7687 56.0415C51.2566 53.0867 50.2336 50.1636 49.1634 47.463C48.5023 45.8108 47.8098 44.1746 47.0544 42.5542C46.7396 41.8552 45.7166 42.4588 46.0314 43.1578V43.142Z" fill="#231F20"/>
<path d="M45.4017 56.6608C45.4017 57.1215 45.3545 57.5664 45.3073 58.0271C45.3073 58.1383 45.2916 58.2336 45.2758 58.3448C45.2758 58.3765 45.2758 58.3924 45.2758 58.4242C45.2758 58.4877 45.2601 58.5513 45.2443 58.6148C45.2129 58.8055 45.1814 58.9961 45.1499 59.2026C45.1184 59.3774 45.0712 59.5521 45.024 59.7269C44.9925 59.8063 44.9768 59.8857 44.9453 59.9652L44.9138 60.0287C44.9138 60.0287 44.961 59.9175 44.9296 59.9652C44.9138 60.0128 44.8823 60.0605 44.8666 60.0922C44.8351 60.1558 44.7879 60.2352 44.7407 60.2988C44.7407 60.3147 44.7092 60.3464 44.6935 60.3623C44.6935 60.3623 44.7722 60.267 44.725 60.3146C44.6935 60.3464 44.662 60.3941 44.6305 60.4259C44.599 60.4576 44.5833 60.4735 44.5518 60.5053C44.5361 60.5212 44.5204 60.5371 44.4889 60.5529C44.4417 60.6006 44.5361 60.5212 44.5361 60.5212C44.4574 60.5529 44.3944 60.6165 44.3158 60.6641C44.3 60.6641 44.1584 60.7436 44.2528 60.6959C44.3315 60.6641 44.2056 60.6959 44.1898 60.7118C44.1111 60.7436 44.0167 60.7595 43.938 60.7753C43.8908 60.7753 43.8436 60.7754 43.8121 60.7912C43.7492 60.7912 43.8751 60.7912 43.8751 60.7912H43.7964C43.7019 60.7912 43.6232 60.7912 43.5288 60.7912C43.3399 60.7912 43.1668 60.7912 42.978 60.7753C42.8993 60.7753 42.8048 60.7595 42.7261 60.7436C42.6632 60.7436 42.7891 60.7436 42.7891 60.7436C42.7576 60.7436 42.7261 60.7436 42.7104 60.7436C42.6632 60.7436 42.6002 60.7277 42.553 60.7118C42.5058 60.7118 42.4743 60.6959 42.4271 60.68C42.3956 60.68 42.3799 60.6641 42.3484 60.6483C42.3327 60.6483 42.3012 60.6165 42.2855 60.6006C42.2697 60.6006 42.254 60.5847 42.2382 60.5688C42.1753 60.5371 42.3169 60.6483 42.2697 60.6006C42.2382 60.5688 42.2068 60.5371 42.1753 60.5053C42.1281 60.4417 42.0966 60.3623 42.0494 60.2829C42.0179 60.2193 42.0809 60.3464 42.0809 60.3464C42.0809 60.3305 42.0651 60.2988 42.0494 60.2829C42.0494 60.2511 42.0336 60.2193 42.0179 60.1717C41.9864 60.0764 41.9707 59.9969 41.9549 59.9016C41.9077 59.6951 41.8762 59.4886 41.8448 59.2821C41.8448 59.2185 41.8448 59.3138 41.8448 59.3138C41.8448 59.2821 41.8448 59.2503 41.8448 59.2185C41.8448 59.155 41.8448 59.0914 41.829 59.0279C41.829 58.9008 41.7976 58.7737 41.7976 58.6466C41.7818 58.3924 41.7661 58.1541 41.7661 57.9C41.7661 57.3916 41.7818 56.8833 41.8448 56.3908C41.8762 56.0731 41.5457 55.7871 41.2467 55.7871C40.9004 55.7871 40.6958 56.0572 40.6486 56.3908C40.5385 57.3598 40.5542 58.3289 40.6801 59.2979C40.806 60.267 40.9477 61.3314 41.9235 61.7444C42.3484 61.9191 42.8206 61.9668 43.2613 61.9827C43.6862 61.9986 44.1269 61.9827 44.5361 61.8397C44.961 61.6967 45.3545 61.4585 45.6378 61.0931C45.9211 60.7277 46.11 60.3146 46.2201 59.8857C46.3618 59.3774 46.4247 58.8372 46.4877 58.313C46.5507 57.757 46.5979 57.2169 46.6136 56.6608C46.6136 56.3431 46.3303 56.0572 46.0155 56.0572C45.685 56.0572 45.4332 56.3113 45.4175 56.6608H45.4017Z" fill="#231F20"/>
<path d="M52.374 55.724C53.9636 54.9615 54.7034 53.1505 54.9237 51.4824C55.1598 49.6238 54.845 47.5586 55.7264 45.827C55.9152 45.4457 56.1513 45.1121 56.4504 44.8262C56.7022 44.5879 57.1743 44.2066 57.5521 44.3019C58.2918 44.4767 58.6066 43.3329 57.8668 43.1581C56.9068 42.9357 55.9467 43.587 55.3486 44.286C54.7506 44.985 54.3886 45.8111 54.184 46.6848C53.7118 48.6865 54.1368 50.8152 53.4128 52.7692C53.1137 53.5953 52.5786 54.3102 51.776 54.6914C51.4927 54.8344 51.414 55.2474 51.5714 55.5016C51.7445 55.8035 52.0907 55.8511 52.374 55.7081V55.724Z" fill="#231F20"/>
<path d="M49.368 59.711C52.2009 59.8381 54.9238 58.2972 56.5134 55.9619C57.3475 54.7228 57.741 53.3407 57.8669 51.8633C57.9299 51.0213 57.9298 50.1635 58.0558 49.3215C58.1817 48.4796 58.4964 47.7965 58.9214 47.0816C59.3463 46.3667 59.7083 45.5406 59.4722 44.6669C59.2676 43.9044 58.6853 43.3007 57.8826 43.2848C57.1272 43.253 57.1272 44.4445 57.8826 44.4763C58.2761 44.4763 58.402 45.0799 58.3548 45.3977C58.2761 46.0649 57.7725 46.6368 57.4734 47.2246C56.7967 48.5749 56.7967 50.0841 56.7022 51.5615C56.6235 52.8482 56.3402 54.0238 55.6635 55.12C55.0339 56.1367 54.1525 56.9786 53.1295 57.5823C51.9806 58.2654 50.69 58.6149 49.3522 58.5514C48.5968 58.5196 48.5968 59.711 49.3522 59.7428L49.368 59.711Z" fill="#231F20"/>
<path d="M35.2661 59.8224C35.2661 59.9336 35.2661 60.0448 35.2976 60.1719C35.2976 60.2514 35.3291 60.3308 35.3448 60.4102C35.3763 60.5214 35.4235 60.6326 35.4707 60.728C35.5022 60.8074 35.5494 60.8709 35.5966 60.9504C35.6281 60.998 35.6596 61.0298 35.6911 61.0616C35.7225 61.0933 35.7698 61.1251 35.8327 61.1251C35.8799 61.141 35.9429 61.141 35.9901 61.1251C36.0373 61.1251 36.0845 61.1092 36.1317 61.0774C36.2104 61.0298 36.2891 60.9345 36.3049 60.8392C36.3206 60.7438 36.3206 60.6167 36.2577 60.5373C36.1947 60.4579 36.1475 60.3626 36.116 60.2673L36.1632 60.3626C36.1003 60.2355 36.0688 60.0925 36.0531 59.9495V60.0607C36.0531 60.0607 36.0531 59.9019 36.0531 59.8224C36.0531 59.7748 36.053 59.7112 36.0216 59.6636C36.0058 59.6159 35.9744 59.5683 35.9429 59.5365C35.9114 59.5047 35.8642 59.473 35.817 59.4571C35.7698 59.4253 35.7225 59.4253 35.6596 59.4253C35.5651 59.4253 35.455 59.4571 35.3763 59.5365C35.2976 59.6159 35.2661 59.7112 35.2661 59.8224Z" fill="#231F20"/>
<path d="M36.5566 60.2039L36.6982 60.9982C36.6982 60.9982 36.7297 61.0935 36.7612 61.1412C36.7926 61.1888 36.8241 61.2206 36.8713 61.2365C36.9185 61.2683 36.9658 61.2841 37.013 61.2841C37.0602 61.2841 37.1231 61.2841 37.1704 61.2841L37.2648 61.2365C37.2648 61.2365 37.375 61.1571 37.4064 61.0935L37.4537 60.9982C37.4537 60.9982 37.4694 60.8552 37.4537 60.7917L37.312 59.9974C37.312 59.9974 37.2805 59.9021 37.2491 59.8544C37.2176 59.8067 37.1861 59.775 37.1389 59.7591C37.0917 59.7273 37.0445 59.7114 36.9972 59.7114C36.95 59.7114 36.8871 59.7114 36.8399 59.7114L36.7454 59.7591C36.7454 59.7591 36.6353 59.8385 36.6038 59.9021L36.5566 59.9974C36.5566 59.9974 36.5408 60.1403 36.5566 60.2039Z" fill="#231F20"/>
<path d="M42.4586 59.7269C42.4271 59.8381 42.4114 59.9493 42.4114 60.0605C42.4114 60.1399 42.4114 60.2194 42.4114 60.3147C42.4114 60.4259 42.4429 60.5371 42.4743 60.6483C42.5058 60.7595 42.553 60.8707 42.6002 60.966C42.6317 61.0137 42.6632 61.0455 42.6947 61.0772C42.7261 61.109 42.7734 61.1408 42.8363 61.1408C42.8835 61.1567 42.9465 61.1567 42.9937 61.1408C43.0409 61.1408 43.0881 61.1249 43.1354 61.0931C43.2141 61.0455 43.2927 60.9501 43.3085 60.8548V60.7436C43.3085 60.7436 43.3085 60.6006 43.2613 60.5371C43.2613 60.5212 43.2455 60.5053 43.2298 60.4736L43.277 60.5689C43.2298 60.4577 43.1983 60.3465 43.1826 60.2194V60.3306C43.1826 60.2035 43.1826 60.0923 43.1826 59.9652V60.0764C43.1826 60.0764 43.1826 59.9652 43.1983 59.9175C43.2141 59.8699 43.2141 59.8063 43.1983 59.7587C43.1983 59.711 43.1826 59.6634 43.1511 59.6157C43.1196 59.568 43.0881 59.5363 43.0567 59.5045C43.0252 59.4727 42.978 59.441 42.915 59.441C42.8206 59.4251 42.6947 59.4251 42.616 59.4886C42.5373 59.5522 42.4586 59.6316 42.4429 59.7269H42.4586Z" fill="#231F20"/>
<path d="M43.7491 60.0606C43.7491 60.0606 43.7648 60.1559 43.7806 60.1877V60.0765C43.7806 60.2036 43.7806 60.3307 43.7806 60.4419V60.3307C43.7806 60.4578 43.7491 60.569 43.7019 60.6802L43.7491 60.5848C43.7491 60.5848 43.7334 60.6325 43.7176 60.6484C43.6861 60.6961 43.6704 60.7437 43.6704 60.7914C43.6704 60.839 43.6704 60.9026 43.6704 60.9502C43.6704 60.9979 43.7019 61.0455 43.7334 61.0932C43.7648 61.1409 43.7963 61.1726 43.8435 61.1885C43.938 61.2362 44.0481 61.2679 44.1426 61.2362C44.237 61.2044 44.3314 61.1409 44.3787 61.0614C44.4259 60.9661 44.4731 60.8549 44.5046 60.7437C44.536 60.6325 44.5518 60.5213 44.5675 60.4101C44.5675 60.3307 44.5675 60.2512 44.5675 60.1718C44.5675 60.0606 44.5518 59.9494 44.5203 59.8382C44.5203 59.7905 44.4888 59.7429 44.4573 59.6952C44.4259 59.6476 44.3944 59.6158 44.3472 59.5999C44.3 59.5681 44.2527 59.5522 44.2055 59.5522C44.1583 59.5522 44.0954 59.5522 44.0481 59.5522C43.9537 59.584 43.8593 59.6476 43.8121 59.727L43.7648 59.8223C43.7648 59.8223 43.7491 59.9653 43.7648 60.0288L43.7491 60.0606Z" fill="#231F20"/>
<mask id="mask2_188_2667" style="mask-type:luminance" maskUnits="userSpaceOnUse" x="20" y="14" width="39" height="34">
<path d="M20.9753 19.71C20.9124 22.6807 21.3216 25.6673 22.1872 28.5109C22.3603 29.0669 22.5492 29.6388 22.5964 30.2107C22.6594 30.862 22.5335 31.5134 22.4548 32.1647C21.9196 36.4063 22.9269 41.0768 26.0589 43.9522C29.6002 47.193 34.8569 47.463 39.6415 47.2724C42.3013 47.1612 44.9769 46.9865 47.5423 46.2398C50.1077 45.4932 52.563 44.1905 54.2785 42.1412C54.971 41.3151 55.5376 40.3937 55.9468 39.4088C56.5763 37.8837 57.0642 35.9297 56.9856 34.2617C56.9069 32.8319 56.2301 31.6405 56.4662 30.1154C56.6393 29.0193 57.0328 27.9708 57.3633 26.9064C58.3233 23.7927 58.6696 20.4249 57.9928 17.2318C57.7882 16.2468 57.442 15.2142 56.6393 14.6105C55.3487 13.6256 54.31 14.7376 53.224 15.3731C51.5242 16.3739 50.0133 17.7242 48.8172 19.297C48.4237 19.8212 48.0302 20.409 47.4164 20.6473C46.8341 20.8856 46.173 20.7585 45.5592 20.6473C43.3715 20.2819 41.1366 20.1389 38.9175 20.2342C37.3751 20.2978 34.5421 20.0754 33.1414 20.6949C32.9682 20.7744 32.7951 20.8697 32.6063 20.8379C32.3859 20.8061 32.2285 20.6155 32.0869 20.4566C30.0566 17.9149 27.7587 15.389 24.7054 14.2928C21.6993 13.1967 20.9911 17.5177 20.9438 19.6941L20.9753 19.71Z" fill="white"/>
</mask>
<g mask="url(#mask2_188_2667)">
<path d="M20.9753 19.71C20.9124 22.6807 21.3216 25.6673 22.1872 28.5109C22.3603 29.0669 22.5492 29.6388 22.5964 30.2107C22.6594 30.862 22.5335 31.5134 22.4548 32.1647C21.9196 36.4063 22.9269 41.0768 26.0589 43.9522C29.6002 47.193 34.8569 47.463 39.6415 47.2724C42.3013 47.1612 44.9769 46.9865 47.5423 46.2398C50.1077 45.4932 52.563 44.1905 54.2785 42.1412C54.971 41.3151 55.5376 40.3937 55.9468 39.4088C56.5763 37.8837 57.0642 35.9297 56.9856 34.2617C56.9069 32.8319 56.2301 31.6405 56.4662 30.1154C56.6393 29.0193 57.0328 27.9708 57.3633 26.9064C58.3233 23.7927 58.6696 20.4249 57.9928 17.2318C57.7882 16.2468 57.442 15.2142 56.6393 14.6105C55.3487 13.6256 54.31 14.7376 53.224 15.3731C51.5242 16.3739 50.0133 17.7242 48.8172 19.297C48.4237 19.8212 48.0302 20.409 47.4164 20.6473C46.8341 20.8856 46.173 20.7585 45.5592 20.6473C43.3715 20.2819 41.1366 20.1389 38.9175 20.2342C37.3751 20.2978 34.5421 20.0754 33.1414 20.6949C32.9682 20.7744 32.7951 20.8697 32.6063 20.8379C32.3859 20.8061 32.2285 20.6155 32.0869 20.4566C30.0566 17.9149 27.7587 15.389 24.7054 14.2928C21.6993 13.1967 20.9911 17.5177 20.9438 19.6941L20.9753 19.71Z" fill="#C0B9AC"/>
<path d="M50.627 45.1116C51.351 44.4762 51.7759 43.666 51.7602 42.6016C51.713 39.7263 49.5095 38.6142 47.2117 37.6134C44.9138 36.6126 44.3945 35.3735 42.6002 33.6419C41.4828 32.5457 39.9876 32.4504 38.5082 32.6569C36.3362 32.9747 35.8326 34.1979 34.5892 35.6435C33.4718 36.9462 31.9766 37.534 30.5601 38.4712C29.3954 39.2497 28.5298 40.5047 28.3409 41.9027C27.5068 47.9076 35.8483 47.431 39.6414 47.2722C42.1596 47.1768 48.1088 47.3039 50.6113 45.1116H50.627Z" fill="white"/>
<path d="M27.444 20.3294C26.9719 19.7257 26.421 19.1856 25.8544 18.6931C25.5711 18.5025 25.2878 18.3118 24.9888 18.153C24.9416 18.1371 24.9416 18.1371 24.9258 18.1212C24.9258 18.1212 24.9258 18.1212 24.8786 18.1212C24.8314 18.1053 24.7842 18.0894 24.7369 18.0735C24.674 18.0577 24.5953 18.0418 24.5323 18.0259C24.5166 18.0259 24.5323 18.0259 24.5009 18.0259C24.4537 18.0259 24.3277 18.0259 24.2963 18.0259C24.2805 18.0259 24.2648 18.0259 24.249 18.0259C24.2176 18.0259 24.2018 18.0577 24.1704 18.0735C24.1389 18.1053 24.0602 18.1847 24.0444 18.2165C23.9972 18.2801 23.9658 18.3436 23.9343 18.423C23.9185 18.4707 23.9028 18.4707 23.9028 18.4866C23.9028 18.4866 23.9028 18.5025 23.8871 18.5501C23.8084 18.7725 23.7454 18.9949 23.7139 19.2332C23.6352 19.6463 23.6038 20.1546 23.6038 20.7265C23.6038 22.0133 23.7297 23.3636 23.9028 24.6027C24.013 25.4288 24.1861 26.2708 24.3435 27.0969C24.973 26.3025 25.8229 25.7306 26.6099 25.1111C27.2551 24.6027 28.4985 23.8243 28.6874 22.9347C28.8762 22.0768 27.9477 20.9648 27.4598 20.3453L27.444 20.3294Z" fill="white"/>
<path d="M54.5776 27.6533C55.4117 25.5563 56.0885 23.2687 56.2616 20.997C56.2931 20.5045 56.3088 20.0121 56.2616 19.5196C56.2616 19.3448 56.2302 19.2495 56.1672 18.9795C56.1515 18.8842 56.12 18.7888 56.0885 18.6935C56.0413 18.5505 56.0413 18.5664 56.0413 18.5823C55.9941 18.5029 55.9469 18.4076 55.8996 18.3281C55.8996 18.3123 55.9626 18.3917 55.8367 18.2646C55.8209 18.2487 55.8052 18.2328 55.7895 18.2169C55.758 18.201 55.6793 18.1534 55.6636 18.1375C55.6163 18.1375 55.5219 18.0898 55.4904 18.0898C55.5062 18.0898 55.5376 18.0898 55.3803 18.0898C55.1127 18.0898 55.1757 18.0898 54.9081 18.1375C54.8137 18.1534 54.735 18.1375 54.6563 18.1375C54.5933 18.1693 54.5304 18.201 54.4674 18.2328C53.7592 18.6459 53.1611 19.2178 52.626 19.8214C51.8076 20.7269 50.9419 21.8866 50.5642 23.094C50.9262 24.1742 52.201 25.0162 52.925 25.7787C53.5074 26.3824 53.9953 27.0814 54.4674 27.7804C54.4832 27.7327 54.5146 27.6692 54.5461 27.6215L54.5776 27.6533Z" fill="white"/>
<path d="M31.0008 29.3213C31.1582 29.5119 31.3313 29.6867 31.5202 29.8614C31.772 30.0838 32.0553 30.2904 32.3386 30.4651C32.4802 30.5445 32.6219 30.5922 32.7793 30.6081C32.9367 30.6399 33.094 30.6399 33.2514 30.5922C33.4088 30.5604 33.5347 30.481 33.6606 30.3857C33.7865 30.3063 33.8967 30.195 33.9597 30.0521L34.0856 29.7661C34.1485 29.5596 34.1485 29.3372 34.0856 29.1307L33.9597 28.8447C33.8495 28.67 33.7079 28.527 33.5347 28.4158C33.3931 28.3205 33.2514 28.2252 33.1098 28.1299L33.3459 28.3205C33.094 28.1299 32.8737 27.9074 32.6691 27.6533C32.5589 27.5421 32.433 27.4626 32.2914 27.3991C32.1497 27.3197 31.9923 27.2879 31.8349 27.3038C31.6776 27.3038 31.5202 27.3355 31.3785 27.3991C31.2369 27.4468 31.111 27.5262 31.0008 27.6533L30.8119 27.8916C30.7018 28.0822 30.6545 28.2728 30.6545 28.4952L30.7018 28.813C30.7647 29.0195 30.8591 29.1942 31.0008 29.3372V29.3213Z" fill="#5C564D"/>
<path d="M45.8897 30.1947L46.834 28.9397C46.9127 28.7968 46.9599 28.6538 46.9757 28.4949C47.0071 28.3361 47.0071 28.1772 46.9599 28.0183C46.9284 27.8595 46.8497 27.7324 46.7553 27.6053C46.6766 27.4782 46.5665 27.367 46.4248 27.3035C46.1572 27.1605 45.8267 27.0811 45.512 27.1764L45.2287 27.3035C45.0555 27.4147 44.9139 27.5576 44.8037 27.7324L43.8594 28.9874C43.7807 29.1304 43.7335 29.2733 43.7177 29.4322C43.6863 29.5911 43.6863 29.7499 43.7335 29.9088C43.765 30.0676 43.8436 30.1947 43.9381 30.3218C44.0168 30.4489 44.1269 30.5601 44.2686 30.6237C44.5362 30.7666 44.8667 30.8461 45.1814 30.7507L45.4647 30.6237C45.6379 30.5125 45.7795 30.3695 45.8897 30.1947Z" fill="#5C564D"/>
<path d="M37.9416 22.9827C37.9731 23.1575 38.0046 23.3322 38.0203 23.4911L37.9731 23.1733C38.036 23.6499 38.0675 24.1106 38.0518 24.5872C38.0518 24.889 38.1934 25.2227 38.398 25.4292C38.6026 25.6357 38.9332 25.7946 39.2322 25.7787C39.5312 25.7628 39.8617 25.6675 40.0663 25.4292C40.2709 25.1909 40.4126 24.9049 40.4126 24.5872C40.4126 23.8406 40.3339 23.078 40.208 22.3473C40.1608 22.0613 39.8932 21.7754 39.6729 21.6324C39.4211 21.4894 39.0433 21.4259 38.76 21.5053C38.4767 21.5847 38.1934 21.7754 38.0518 22.0454L37.9259 22.3314C37.8629 22.5379 37.8629 22.7603 37.9259 22.9668L37.9416 22.9827Z" fill="#5C564D"/>
<path d="M33.6606 21.0601C34.0856 23.3159 34.841 25.5082 35.8955 27.5575C36.1788 28.1135 36.9973 28.3201 37.5166 27.9864C38.0832 27.6211 38.2406 26.9539 37.9416 26.3502C37.7055 25.8736 37.4694 25.397 37.2648 24.9204C37.3592 25.1269 37.1861 24.7139 37.1704 24.6821C37.1232 24.5709 37.0917 24.4756 37.0445 24.3644C36.95 24.0944 36.8556 23.8243 36.7612 23.5701C36.4149 22.5534 36.1474 21.5049 35.9585 20.4405C35.8483 19.821 35.0771 19.4238 34.5105 19.6145C33.8652 19.821 33.5662 20.4247 33.6921 21.076L33.6606 21.0601Z" fill="#5C564D"/>
<path d="M42.3801 20.9969C42.3801 21.251 42.3486 21.5211 42.3328 21.7753C42.3328 21.8865 42.3171 21.9977 42.3014 22.1089C42.3014 22.1565 42.2384 22.6014 42.2699 22.3472C42.2069 22.8238 42.1125 23.3003 42.0181 23.761C41.7977 24.746 41.4987 25.6991 41.121 26.6205C40.8849 27.1924 41.3728 27.955 41.9394 28.0821C42.6319 28.2409 43.1355 27.8755 43.3873 27.256C44.19 25.2702 44.6307 23.1415 44.7409 20.9969C44.7723 20.3773 44.1743 19.7736 43.5605 19.8054C42.8994 19.8372 42.4115 20.3296 42.3801 20.9969Z" fill="#5C564D"/>
<path d="M22.2658 34.087C22.8482 34.0235 23.4305 34.0394 23.9971 34.1188L23.6823 34.0711C23.8397 34.087 23.9971 34.1188 24.1387 34.1506C24.4535 34.2141 24.7683 34.1982 25.0516 34.0235C25.3034 33.8805 25.5238 33.5946 25.5867 33.3086C25.6497 33.0068 25.6339 32.6573 25.4608 32.3872C25.3034 32.133 25.0516 31.8948 24.7526 31.8471C23.9341 31.6882 23.0842 31.6247 22.2501 31.7041C22.0927 31.7041 21.9353 31.7359 21.7937 31.7994C21.652 31.8471 21.5261 31.9265 21.4159 32.0536C21.2113 32.2601 21.054 32.5937 21.0697 32.8956C21.0854 33.1974 21.1799 33.531 21.4159 33.7375C21.6363 33.9441 21.9511 34.1188 22.2501 34.087H22.2658Z" fill="#5C564D"/>
<path d="M22.9742 38.8369L27.1135 37.1212C27.4125 36.9941 27.6486 36.867 27.8217 36.581C27.9634 36.3268 28.0263 35.9456 27.9476 35.6596C27.8689 35.3737 27.6801 35.0877 27.4125 34.9448C27.145 34.8018 26.783 34.7065 26.4997 34.8177L22.3604 36.5334C22.0613 36.6605 21.8253 36.7875 21.6521 37.0735C21.5105 37.3277 21.4475 37.7089 21.5262 37.9949C21.6049 38.2808 21.7938 38.5668 22.0613 38.7098C22.3289 38.8527 22.6909 38.9481 22.9742 38.8369Z" fill="#5C564D"/>
<path d="M25.0358 43.0152L26.6726 41.4901C26.893 41.2836 27.0189 40.95 27.0189 40.6481C27.0189 40.4893 26.9874 40.3304 26.9244 40.1874C26.8772 40.0444 26.7985 39.9174 26.6726 39.8062C26.4523 39.5996 26.1532 39.4408 25.8385 39.4567C25.5237 39.4725 25.2404 39.5838 25.0043 39.8062L23.3675 41.3312C23.1471 41.5377 23.0212 41.8714 23.0212 42.1732C23.0212 42.3321 23.0527 42.4909 23.1157 42.6339C23.1629 42.7769 23.2416 42.9039 23.3675 43.0152C23.5878 43.2217 23.8869 43.3805 24.2016 43.3646C24.5164 43.3488 24.7997 43.2376 25.0358 43.0152Z" fill="#5C564D"/>
<path d="M53.9636 33.5467C54.3414 33.3243 54.7191 33.1337 55.1283 32.9589L54.845 33.086C55.3014 32.8954 55.7736 32.7365 56.2457 32.6094C56.529 32.53 56.7966 32.3235 56.954 32.0693C57.1114 31.8151 57.1586 31.4338 57.0799 31.1479C56.8753 30.5283 56.2615 30.1471 55.6319 30.3218C54.6404 30.5919 53.6803 30.989 52.7832 31.4974C52.5314 31.6404 52.3268 31.9263 52.2481 32.2123C52.1694 32.4982 52.2009 32.8795 52.374 33.1337C52.7203 33.6738 53.4128 33.8962 53.9951 33.5626L53.9636 33.5467Z" fill="#5C564D"/>
<path d="M51.6816 36.6288L57.3003 37.2643C57.9141 37.3278 58.5122 36.6606 58.4807 36.0728C58.4493 35.3738 57.9614 34.9608 57.3003 34.8814L51.6816 34.2459C51.0678 34.1824 50.4697 34.8496 50.5012 35.4374C50.5327 36.1364 51.0206 36.5494 51.6816 36.6288Z" fill="#5C564D"/>
<path d="M53.2869 40.1398C53.4286 40.1874 53.586 40.251 53.7276 40.3145L53.4443 40.1874C54.0896 40.4575 54.6877 40.8229 55.2543 41.2518L55.0182 41.0612C55.0182 41.0612 55.1599 41.1724 55.2228 41.22C55.4746 41.4266 55.7265 41.5695 56.057 41.5695C56.3403 41.5695 56.6865 41.4424 56.8911 41.22C57.0957 40.9976 57.2531 40.6958 57.2374 40.3781C57.2374 40.0762 57.1272 39.7267 56.8911 39.5361C56.4504 39.1707 55.994 38.8371 55.4904 38.5512C54.9867 38.2652 54.4674 38.0428 53.9322 37.8363C53.6489 37.741 53.2712 37.8045 53.0194 37.9634C52.7676 38.1222 52.5472 38.3923 52.4843 38.6783C52.4213 38.9801 52.4371 39.3296 52.6102 39.5996C52.7833 39.8697 53.0194 40.0445 53.3184 40.1398H53.2869Z" fill="#5C564D"/>
</g>
<path d="M31.3627 35.3105C32.2145 35.3105 32.9051 34.6134 32.9051 33.7536C32.9051 32.8938 32.2145 32.1968 31.3627 32.1968C30.5109 32.1968 29.8203 32.8938 29.8203 33.7536C29.8203 34.6134 30.5109 35.3105 31.3627 35.3105Z" fill="#231F20"/>
<path d="M47.3847 35.3105C48.2365 35.3105 48.9271 34.6134 48.9271 33.7536C48.9271 32.8938 48.2365 32.1968 47.3847 32.1968C46.5328 32.1968 45.8423 32.8938 45.8423 33.7536C45.8423 34.6134 46.5328 35.3105 47.3847 35.3105Z" fill="#231F20"/>
<path d="M39.3738 36.4067C40.1387 36.4067 40.7588 36.0155 40.7588 35.5329C40.7588 35.0504 40.1387 34.6592 39.3738 34.6592C38.6089 34.6592 37.9888 35.0504 37.9888 35.5329C37.9888 36.0155 38.6089 36.4067 39.3738 36.4067Z" fill="#231F20"/>
<path d="M30.324 22.5856C35.8955 20.2821 42.191 20.0914 47.9042 22.0772C48.6282 22.3314 48.9272 21.1717 48.219 20.9334C42.3484 18.8841 35.7696 19.0588 30.025 21.4418C29.7259 21.5688 29.5213 21.8389 29.6158 22.1725C29.6945 22.4585 30.0407 22.7126 30.3398 22.5856H30.324Z" fill="#231F20"/>
<path d="M23.5092 14.7694C26.0589 15.8814 28.4039 17.4224 30.4028 19.3605C30.9694 19.9165 31.5202 20.5043 32.0396 21.108C32.2442 21.3463 32.6691 21.3304 32.8737 21.108C33.1098 20.8697 33.0784 20.5043 32.8737 20.266C31.0166 18.0737 28.7659 16.2151 26.2792 14.8171C25.571 14.4199 24.847 14.0545 24.1073 13.7368C23.8082 13.6097 23.4777 13.6415 23.3046 13.9433C23.1629 14.1975 23.2259 14.6264 23.5092 14.7535V14.7694Z" fill="#231F20"/>
<path d="M21.652 15.0553C19.8892 19.9006 20.0939 25.3336 22.1084 30.0518C22.2343 30.3536 22.6593 30.4172 22.9111 30.2583C23.2101 30.0836 23.2573 29.7341 23.1157 29.4481C21.227 25.0159 21.1326 19.8847 22.7694 15.373C23.037 14.6581 21.8881 14.3404 21.6362 15.0553H21.652Z" fill="#231F20"/>
<path d="M24.4063 19.1543C24.7211 19.329 25.0201 19.5197 25.3192 19.7262C25.3978 19.7739 25.4608 19.8374 25.5395 19.8851C25.6024 19.9327 25.4451 19.8056 25.4923 19.8533C25.508 19.8533 25.5238 19.8851 25.5395 19.8851C25.571 19.9168 25.6182 19.9486 25.6497 19.9804C25.7913 20.0916 25.9172 20.2187 26.0589 20.3299C26.3264 20.5682 26.5625 20.8382 26.7986 21.1083C26.8301 21.1401 26.8615 21.1877 26.893 21.2195C26.893 21.2354 27.0032 21.3625 26.9402 21.2672C26.8773 21.1718 26.9717 21.2989 26.9875 21.3148C27.0189 21.3625 27.0504 21.3942 27.0819 21.4419C27.1921 21.5849 27.2865 21.7437 27.3809 21.8867C27.6013 22.2362 27.7901 22.5857 27.9475 22.967C28.0105 23.0941 28.1679 23.2053 28.2938 23.237C28.4354 23.2688 28.6243 23.2529 28.7502 23.1735C28.8761 23.0941 28.9863 22.967 29.0178 22.824C29.0492 22.6651 29.0178 22.5222 28.9548 22.3633C28.3252 20.9335 27.318 19.7103 26.0746 18.773C25.7441 18.5189 25.3978 18.2965 25.0201 18.1058C24.7526 17.9628 24.3591 18.0264 24.2174 18.3123C24.0758 18.5824 24.1387 18.9637 24.422 19.1225L24.4063 19.1543Z" fill="#231F20"/>
<path d="M25.5081 25.4769C22.8797 28.3682 21.3845 32.3874 21.7623 36.3272C22.14 40.2669 24.2175 43.4918 27.4439 45.4776C29.2067 46.5578 31.2685 47.1615 33.346 47.0821C34.1014 47.0503 34.1014 45.8588 33.346 45.8906C30.0566 46.0018 26.8774 44.2543 24.9572 41.5855C22.8797 38.7101 22.439 35.0245 23.4148 31.6407C23.9814 29.6709 24.9887 27.844 26.3737 26.3189C26.8931 25.747 26.0589 24.905 25.5396 25.4769H25.5081Z" fill="#231F20"/>
<path d="M47.6682 21.2829C48.5181 20.4409 49.3207 19.5513 50.1864 18.7093C50.8789 18.0421 51.6186 17.4543 52.3583 16.8666C53.0193 16.3582 53.6804 15.8498 54.3886 15.405C54.6876 15.2144 55.0181 15.0238 55.3487 14.9126C55.4274 14.8808 55.506 14.8649 55.6005 14.8331C55.6949 14.8014 55.6792 14.8172 55.6949 14.8172C55.8838 14.8172 55.8523 14.8172 55.994 14.849C56.0884 14.8808 56.0412 14.849 56.0569 14.8649C56.1041 14.8808 56.1513 14.9126 56.1986 14.9443C56.2772 14.992 56.3245 15.0397 56.4346 15.1509C56.5763 15.3097 56.7179 15.548 56.8281 15.8022C57.0957 16.3741 57.2531 17.089 57.3475 17.7403C57.5521 18.9794 57.5836 20.2662 57.5993 21.5212C57.6308 24.2377 57.1744 26.9542 56.1041 29.4642C55.9782 29.7661 56.0254 30.0997 56.3087 30.2744C56.5605 30.4174 56.9855 30.3539 57.1114 30.0679C58.764 26.2076 59.1102 21.9025 58.5279 17.7721C58.339 16.4535 57.9928 14.6743 56.7494 13.9276C55.2857 13.038 53.4915 14.5154 52.3583 15.3733C51.4927 16.0246 50.7057 16.6124 49.9031 17.3431C48.8171 18.3281 47.8413 19.4401 46.7868 20.4727C46.2359 21.0128 47.0701 21.8548 47.6209 21.3147L47.6682 21.2829Z" fill="#231F20"/>
<path d="M54.2626 18.1214C52.909 18.8522 51.7444 19.9642 50.9259 21.2827C50.7056 21.6322 50.5167 22.0135 50.3436 22.3948C50.2807 22.5536 50.2334 22.6807 50.2807 22.8555C50.3121 22.9984 50.4223 23.1414 50.5482 23.205C50.6899 23.2844 50.8472 23.3162 51.0046 23.2685C51.1463 23.2208 51.3037 23.1255 51.3509 22.9984C51.4925 22.6648 51.6657 22.3471 51.8388 22.0453C51.9332 21.8864 52.0277 21.7434 52.1221 21.5846C52.1693 21.5051 52.2323 21.4416 52.2795 21.3622C52.311 21.3304 52.3267 21.2986 52.3582 21.2669C52.4054 21.2033 52.2795 21.3622 52.3267 21.3145C52.3424 21.2986 52.3582 21.2669 52.3739 21.251C52.5942 20.965 52.8303 20.695 53.0979 20.4567C53.2238 20.3296 53.3654 20.2025 53.5071 20.0754C53.5701 20.0277 53.633 19.9642 53.696 19.9165C53.7117 19.9165 53.8376 19.8053 53.7432 19.8689C53.7274 19.8689 53.6645 19.9324 53.7432 19.8689C53.7747 19.853 53.7904 19.8371 53.8219 19.8053C54.1524 19.567 54.4829 19.3446 54.8449 19.154C55.1124 19.011 55.2226 18.598 55.0495 18.3438C54.8764 18.0579 54.5301 17.9784 54.2468 18.1373L54.2626 18.1214Z" fill="#231F20"/>
<path d="M52.925 26.3187C55.3172 28.9558 56.6393 32.5937 56.3403 36.1681C56.0412 39.7424 54.1211 42.6655 51.2409 44.4288C49.6356 45.4138 47.8256 45.938 45.937 45.8745C45.1815 45.8427 45.1815 47.0342 45.937 47.0659C49.6198 47.1771 53.0823 45.2231 55.27 42.2842C57.5994 39.1547 58.0873 35.0243 57.017 31.3069C56.4032 29.1305 55.27 27.1289 53.7591 25.4608C53.2397 24.8889 52.4056 25.7309 52.925 26.3028V26.3187Z" fill="#231F20"/>
</svg>
