<svg width="80" height="77" viewBox="0 0 80 77" fill="none" xmlns="http://www.w3.org/2000/svg">
<mask id="mask0_188_2767" style="mask-type:luminance" maskUnits="userSpaceOnUse" x="46" y="43" width="14" height="17">
<path d="M55.5375 44.7034C54.8292 45.7677 54.7348 47.1022 54.7348 48.3889C54.7348 49.6757 54.845 50.9625 54.483 52.1857C53.9164 54.1238 52.1222 55.633 50.1234 55.8395C49.3836 55.919 48.6282 55.8395 47.9199 56.0143C47.2117 56.189 46.4877 56.745 46.472 57.4917C46.4405 58.3813 47.3691 59.0009 48.2347 59.2074C50.7214 59.7952 53.4757 58.6355 55.2857 56.9198C57.5993 54.7434 56.9225 52.4399 57.4261 49.6757C57.615 48.5955 58.2288 47.6582 58.6538 46.6415C59.1417 45.4818 59.5194 44.2109 58.0557 43.6549C57.0169 43.2736 56.0726 43.8455 55.5375 44.6716V44.7034Z" fill="white"/>
</mask>
<g mask="url(#mask0_188_2767)">
<path d="M55.5375 44.7034C54.8292 45.7677 54.7348 47.1022 54.7348 48.3889C54.7348 49.6757 54.845 50.9625 54.483 52.1857C53.9164 54.1238 52.1222 55.633 50.1234 55.8395C49.3836 55.919 48.6282 55.8395 47.9199 56.0143C47.2117 56.189 46.4877 56.745 46.472 57.4917C46.4405 58.3813 47.3691 59.0009 48.2347 59.2074C50.7214 59.7952 53.4757 58.6355 55.2857 56.9198C57.5993 54.7434 56.9225 52.4399 57.4261 49.6757C57.615 48.5955 58.2288 47.6582 58.6538 46.6415C59.1417 45.4818 59.5194 44.2109 58.0557 43.6549C57.0169 43.2736 56.0726 43.8455 55.5375 44.6716V44.7034Z" fill="#F39B4A"/>
<path d="M54.2627 56.9358L57.017 59.1122C57.1586 59.271 57.3317 59.3822 57.5206 59.4458C57.7095 59.5411 57.9141 59.5887 58.1344 59.5887C58.5279 59.5887 58.9843 59.414 59.2519 59.128C59.5194 58.8421 59.724 58.4291 59.7083 58.0001C59.6926 57.603 59.5667 57.1264 59.2519 56.8722L56.4976 54.6958C56.356 54.537 56.1828 54.4258 55.994 54.3622C55.8051 54.2669 55.6005 54.2192 55.3801 54.2192C54.9867 54.2192 54.5303 54.394 54.2627 54.6799C53.9951 54.9659 53.7905 55.3789 53.8063 55.8078C53.822 56.205 53.9479 56.6816 54.2627 56.9358Z" fill="#A05715"/>
<path d="M50.202 50.2798C50.4538 50.2957 50.6899 50.3275 50.9417 50.3592L50.5168 50.2957C51.4768 50.4228 52.4054 50.677 53.3025 51.0582L52.9248 50.8994C53.3025 51.0582 53.6802 51.2489 54.0422 51.4554C54.7662 51.8684 55.7892 51.646 56.1984 50.8835C56.6076 50.121 56.403 49.1519 55.6318 48.7071C53.9635 47.7539 52.1221 47.2297 50.202 47.1026C49.3836 47.0549 48.5966 47.8651 48.6281 48.6912C48.6753 49.5967 49.3206 50.2163 50.202 50.2798Z" fill="#A05715"/>
<path d="M54.908 45.5614C56.1985 46.3239 57.615 46.8958 59.063 47.2136C59.4722 47.3089 59.8971 47.2771 60.2749 47.0547C60.6054 46.8641 60.9202 46.4828 60.9989 46.1015C61.0933 45.6885 61.0775 45.2437 60.8415 44.8783C60.6211 44.5447 60.3064 44.2429 59.8971 44.1475C59.1259 43.9728 58.3547 43.7345 57.6308 43.4327L58.0085 43.5915C57.4891 43.3691 56.9855 43.1149 56.4976 42.8131C56.1513 42.6066 55.6792 42.543 55.2857 42.6542C54.9237 42.7496 54.5302 43.0355 54.3414 43.385C53.9479 44.1475 54.1525 45.1007 54.908 45.5614Z" fill="#A05715"/>
</g>
<mask id="mask1_188_2767" style="mask-type:luminance" maskUnits="userSpaceOnUse" x="29" y="38" width="22" height="24">
<path d="M41.6717 38.6983C45.1343 39.7786 46.9285 42.8128 48.1561 46.0059C48.8643 47.8487 49.3522 49.755 49.8874 51.6773C50.69 54.7274 50.2808 58.4448 47.7784 60.3034C46.1573 61.5108 44.0483 61.7014 42.0337 61.8126C36.9029 62.0827 30.7333 61.9079 29.7575 55.5694C29.3483 52.9005 30.2769 51.1054 31.0009 48.6271C31.898 45.5611 33.1256 41.6531 35.8327 39.7945C37.5167 38.6348 39.7044 38.0946 41.6717 38.6983Z" fill="white"/>
</mask>
<g mask="url(#mask1_188_2767)">
<path d="M41.6717 38.6983C45.1343 39.7786 46.9285 42.8128 48.1561 46.0059C48.8643 47.8487 49.3522 49.755 49.8874 51.6773C50.69 54.7274 50.2808 58.4448 47.7784 60.3034C46.1573 61.5108 44.0483 61.7014 42.0337 61.8126C36.9029 62.0827 30.7333 61.9079 29.7575 55.5694C29.3483 52.9005 30.2769 51.1054 31.0009 48.6271C31.898 45.5611 33.1256 41.6531 35.8327 39.7945C37.5167 38.6348 39.7044 38.0946 41.6717 38.6983Z" fill="#F39B4A"/>
<path d="M41.5301 42.4314C41.2311 42.3997 40.9163 42.3838 40.6015 42.3838C38.9647 42.4314 37.4066 43.0987 36.0688 44.0518C35.7068 44.3219 35.3291 44.6078 35.1087 45.005C34.794 45.5451 34.7782 46.2123 34.8884 46.816C35.1245 48.0869 35.8957 49.1513 36.5409 50.2474C37.139 51.2482 37.501 52.2967 37.9732 53.3452C38.5555 54.6479 38.9332 56.7766 37.8315 57.984C37.501 58.3334 37.0131 58.4764 36.5567 58.6035C36.0058 58.7465 35.455 58.9053 34.9041 58.8895C34.668 58.8895 34.432 58.8577 34.2274 58.9689C33.7552 59.2707 34.7153 60.764 34.9671 61.1135C36.2734 63.004 38.886 63.4011 41.1681 63.2899C42.4272 63.2264 43.7965 63.0198 44.6464 62.0826C45.0399 61.6536 45.276 61.1135 45.4491 60.5575C45.7324 59.6997 46.4564 57.2214 44.9454 57.6345C42.5689 58.2699 41.2154 57.1896 41.4042 54.8385C41.4829 53.7741 41.5773 52.6621 42.0652 51.7089C42.6004 50.6763 43.5289 49.9138 44.2844 49.0401C45.4648 47.658 46.236 45.847 44.9454 44.2425C44.1113 43.2099 42.8364 42.5903 41.5144 42.4156L41.5301 42.4314Z" fill="white"/>
<path d="M42.7262 49.1513C45.8424 48.8653 48.8643 47.928 51.5556 46.3235C52.8619 45.5451 51.6815 43.4799 50.3595 44.2583C48.0301 45.6404 45.3545 46.53 42.7104 46.7683C42.0809 46.8319 41.53 47.2767 41.53 47.9598C41.53 48.5635 42.0651 49.2148 42.7104 49.1513H42.7262Z" fill="#A05715"/>
<path d="M47.5108 55.8077C47.6682 55.9348 47.8571 56.046 48.0617 56.1095C48.6597 56.3161 49.3365 56.2048 49.8874 55.8712C50.092 55.7441 50.2808 55.5853 50.3753 55.3788C50.4697 55.1723 50.4539 54.8863 50.2966 54.7116C49.9503 54.3621 49.0689 54.5527 48.8329 54.1397C48.3764 53.3136 49.7142 52.9323 50.0762 52.6464C50.4382 52.3763 50.3595 51.7408 50.0133 51.4708C49.667 51.2007 49.1476 51.2007 48.7227 51.3755C48.2977 51.5502 47.983 51.8838 47.6525 52.2016C47.0386 52.8052 46.7081 53.1706 46.7396 54.0761C46.7711 54.7274 47.0072 55.3788 47.4951 55.7759L47.5108 55.8077Z" fill="#A05715"/>
<path d="M42.5846 52.9324C43.1669 52.8053 43.7178 52.5194 44.1742 52.1222C44.7565 51.6138 44.426 50.7401 43.765 50.47C43.104 50.2159 42.4272 50.5495 41.8921 50.9466C41.3884 51.3279 40.7117 52.3605 41.4986 52.8371C41.8134 53.0277 42.2069 53.0118 42.5688 52.9324H42.5846Z" fill="#A05715"/>
<path d="M46.7554 51.0738C47.6525 51.1214 48.9431 50.7561 49.2264 49.8664C49.3523 49.4852 49.1477 49.0721 48.9431 48.7385C48.8015 48.532 48.6283 48.3096 48.3765 48.2778C48.2191 48.2778 48.0617 48.3414 47.9201 48.4208C47.322 48.7385 45.4806 49.4693 45.6065 50.3748C45.6537 50.7561 46.0629 50.9626 46.4406 51.042C46.5351 51.0579 46.6453 51.0738 46.7712 51.0738H46.7554Z" fill="#A05715"/>
<path d="M47.6211 59.382C48.5811 59.525 49.856 58.6036 49.069 57.6028C48.2821 56.602 46.3462 57.2533 46.7712 58.6513C46.9128 59.112 47.2433 59.3344 47.6211 59.3979V59.382Z" fill="#A05715"/>
<path d="M43.6547 58.5562C44.2213 58.7786 44.8352 58.8421 45.4175 58.6674C45.6221 58.6038 45.8267 58.4926 45.9526 58.3338C46.6766 57.4124 45.1027 57.6507 44.7722 57.5395C43.938 57.2694 44.1426 56.5704 44.8824 56.2527C45.1499 56.1415 45.4332 55.9985 45.5434 55.7285C45.6536 55.4584 45.5434 55.1407 45.3231 54.95C45.1027 54.7594 44.8351 54.68 44.5519 54.6482C42.9465 54.4893 41.1051 56.4592 42.553 57.8413C42.8678 58.1431 43.2455 58.3973 43.6547 58.5562Z" fill="#A05715"/>
<path d="M36.8714 49.1513C33.7551 48.8653 30.7333 47.928 28.042 46.3235C26.7357 45.5451 27.9161 43.4799 29.2381 44.2583C31.5675 45.6404 34.243 46.53 36.8871 46.7683C37.5167 46.8319 38.0676 47.2767 38.0676 47.9598C38.0676 48.5635 37.5324 49.2148 36.8871 49.1513H36.8714Z" fill="#A05715"/>
<path d="M32.0869 55.8077C31.9296 55.9348 31.7407 56.046 31.5361 56.1095C30.938 56.3161 30.2613 56.2048 29.7104 55.8712C29.5058 55.7441 29.3169 55.5853 29.2225 55.3788C29.1281 55.1723 29.1438 54.8863 29.3012 54.7116C29.6474 54.3621 30.5288 54.5527 30.7649 54.1397C31.2213 53.3136 29.8835 52.9323 29.5215 52.6464C29.1595 52.3763 29.2382 51.7408 29.5845 51.4708C29.9307 51.2007 30.4501 51.2007 30.8751 51.3755C31.3 51.5502 31.6148 51.8838 31.9453 52.2016C32.5591 52.8052 32.8896 53.1706 32.8581 54.0761C32.8267 54.7274 32.5906 55.3788 32.1027 55.7759L32.0869 55.8077Z" fill="#A05715"/>
<path d="M37.0131 52.9324C36.4308 52.8053 35.8799 52.5194 35.4235 52.1222C34.8412 51.6138 35.1717 50.7401 35.8327 50.47C36.4937 50.2159 37.1705 50.5495 37.7056 50.9466C38.2092 51.3279 38.886 52.3605 38.0991 52.8371C37.7843 53.0277 37.3908 53.0118 37.0288 52.9324H37.0131Z" fill="#A05715"/>
<path d="M32.8424 51.0738C31.9453 51.1214 30.6547 50.7561 30.3714 49.8664C30.2455 49.4852 30.4501 49.0721 30.6547 48.7385C30.7964 48.532 30.9695 48.3096 31.2213 48.2778C31.3787 48.2778 31.5361 48.3414 31.6777 48.4208C32.2758 48.7385 34.1172 49.4693 33.9913 50.3748C33.9441 50.7561 33.5349 50.9626 33.1572 51.042C33.0628 51.0579 32.9526 51.0738 32.8267 51.0738H32.8424Z" fill="#A05715"/>
<path d="M31.9767 59.382C31.0167 59.525 29.7418 58.6036 30.5288 57.6028C31.3157 56.602 33.2516 57.2533 32.8266 58.6513C32.685 59.112 32.3545 59.3344 31.9767 59.3979V59.382Z" fill="#A05715"/>
<path d="M35.9427 58.5562C35.3761 58.7786 34.7623 58.8421 34.18 58.6674C33.9754 58.6038 33.7708 58.4926 33.6449 58.3338C32.9209 57.4124 34.4947 57.6507 34.8253 57.5395C35.6594 57.2694 35.4548 56.5704 34.7151 56.2527C34.4475 56.1415 34.1642 55.9985 34.0541 55.7285C33.9439 55.4584 34.0541 55.1407 34.2744 54.95C34.4947 54.7594 34.7623 54.68 35.0456 54.6482C36.651 54.4893 38.4924 56.4592 37.0444 57.8413C36.7296 58.1431 36.3519 58.3973 35.9427 58.5562Z" fill="#A05715"/>
</g>
<path d="M32.7793 42.5427C32.1183 43.9725 31.4887 45.434 30.9064 46.8955C30.3241 48.357 29.7732 49.7232 29.3955 51.1848C28.7345 53.7583 28.6872 56.586 30.1352 58.9054C30.8592 60.0651 31.8665 60.9388 33.1256 61.4313C33.8338 61.7014 34.1486 60.5576 33.4403 60.2875C30.7018 59.2231 29.8676 55.8712 30.1982 53.2182C30.4028 51.5025 31.0008 49.8503 31.6304 48.2458C32.3071 46.5142 33.0311 44.8144 33.8023 43.1305C34.1171 42.4315 33.1098 41.8278 32.7793 42.5268V42.5427Z" fill="#231F20"/>
<path d="M33.2358 56.6655C33.2673 57.6504 33.3617 58.6512 33.5664 59.6044C33.7395 60.4464 34.1487 61.3042 34.9514 61.7014C35.3763 61.9079 35.817 61.9873 36.2734 62.0032C36.6984 62.0032 37.1705 61.9714 37.5797 61.8761C38.0676 61.7649 38.4926 61.4631 38.7287 61.0183C38.9333 60.637 39.0277 60.2081 39.0906 59.7791C39.2638 58.6671 39.311 57.5392 39.1851 56.4113C39.1693 56.2524 39.1379 56.1094 39.012 55.9824C38.9018 55.8712 38.7444 55.8076 38.587 55.8076C38.3037 55.8076 37.9575 56.0777 37.9889 56.4113C38.0834 57.3009 38.0834 58.1905 37.9889 59.0802C37.9889 59.1437 37.9889 59.1914 37.9732 59.2549C37.9732 59.2867 37.9732 59.3026 37.9732 59.3343C37.9732 59.4296 37.9732 59.2231 37.9732 59.3343C37.9575 59.4455 37.9417 59.5567 37.926 59.6679C37.8945 59.8427 37.863 60.0333 37.8158 60.2081C37.8158 60.2557 37.7843 60.2875 37.7686 60.3352C37.7686 60.351 37.7686 60.3669 37.7529 60.3828C37.7371 60.4464 37.7843 60.3193 37.7843 60.3193C37.7529 60.351 37.7529 60.3987 37.7371 60.4305C37.7214 60.4781 37.6899 60.5099 37.6584 60.5576C37.6584 60.5576 37.6427 60.5893 37.6269 60.6052C37.6269 60.6052 37.7056 60.5099 37.6584 60.5576C37.6269 60.5893 37.5955 60.6211 37.564 60.6529C37.6427 60.6052 37.564 60.6529 37.5483 60.6529C37.5168 60.6688 37.4381 60.7005 37.4223 60.7164C37.4538 60.6688 37.5168 60.6847 37.4538 60.7164C37.4381 60.7164 37.4223 60.7164 37.3909 60.7323C37.3436 60.7323 37.2964 60.7641 37.2492 60.7641C37.202 60.7641 37.1705 60.78 37.1233 60.7959C37.0918 60.7959 37.0761 60.7959 37.0446 60.7959C36.9659 60.7959 37.0446 60.7959 37.0761 60.7959C36.9974 60.8276 36.8872 60.8117 36.8085 60.8276C36.7141 60.8276 36.6354 60.8276 36.541 60.8435C36.3678 60.8435 36.179 60.8435 36.0059 60.8435C35.9901 60.8435 35.9744 60.8435 35.9429 60.8435C35.8799 60.8435 36.0059 60.8435 36.0059 60.8435C35.9586 60.8435 35.9114 60.8435 35.8799 60.8276C35.7855 60.8117 35.6911 60.78 35.6124 60.7482C35.5809 60.7482 35.5494 60.7164 35.5022 60.7164C35.5022 60.7164 35.6281 60.78 35.5337 60.7164C35.518 60.7164 35.5022 60.7005 35.4865 60.6847C35.4078 60.637 35.3291 60.5893 35.2661 60.5417C35.2032 60.494 35.3448 60.6211 35.2976 60.5576C35.2976 60.5576 35.2661 60.5258 35.2504 60.5258C35.2189 60.494 35.1874 60.4622 35.156 60.4305C35.1245 60.3987 35.1087 60.3828 35.0773 60.351C35.0773 60.3352 35.0143 60.2716 35.0773 60.351C35.0301 60.2875 34.9986 60.224 34.9514 60.1445C34.9356 60.1128 34.9041 60.0651 34.8884 60.0333C34.8884 60.0174 34.8884 60.0015 34.8727 59.9857C34.9514 60.1127 34.9041 60.0492 34.8727 60.0016C34.8097 59.8427 34.7625 59.6679 34.7153 59.4932C34.6681 59.2867 34.6366 59.096 34.6051 58.8895C34.5894 58.7624 34.5736 58.6512 34.5579 58.5241C34.5579 58.5083 34.5422 58.3971 34.5579 58.4765C34.5736 58.5559 34.5579 58.4447 34.5579 58.4288C34.5579 58.3653 34.5422 58.3017 34.5422 58.2382C34.4792 57.7298 34.4477 57.2215 34.432 56.6972C34.432 56.3795 34.1644 56.0936 33.8339 56.0936C33.5034 56.0936 33.2358 56.3477 33.2358 56.6972V56.6655Z" fill="#231F20"/>
<path d="M46.0314 43.1463C46.8026 44.8303 47.5265 46.5301 48.2033 48.2617C48.8329 49.8662 49.4309 51.5183 49.6355 53.234C49.966 55.887 49.1319 59.239 46.3933 60.3034C45.6851 60.5734 45.9999 61.7331 46.7081 61.4472C48.9588 60.5734 50.3752 58.397 50.7687 56.0459C51.2566 53.0911 50.2336 50.168 49.1634 47.4674C48.5023 45.8152 47.8098 44.1789 47.0544 42.5586C46.7396 41.8596 45.7166 42.4632 46.0314 43.1622V43.1463Z" fill="#231F20"/>
<path d="M45.4017 56.6652C45.4017 57.1259 45.3545 57.5707 45.3073 58.0314C45.3073 58.1426 45.2916 58.238 45.2758 58.3492C45.2758 58.3809 45.2758 58.3968 45.2758 58.4286C45.2758 58.4921 45.2601 58.5557 45.2443 58.6192C45.2129 58.8099 45.1814 59.0005 45.1499 59.207C45.1184 59.3818 45.0712 59.5565 45.024 59.7313C44.9925 59.8107 44.9768 59.8901 44.9453 59.9696L44.9138 60.0331C44.9138 60.0331 44.961 59.9219 44.9296 59.9696C44.9138 60.0172 44.8823 60.0649 44.8666 60.0966C44.8351 60.1602 44.7879 60.2396 44.7407 60.3032C44.7407 60.319 44.7092 60.3508 44.6935 60.3667C44.6935 60.3667 44.7722 60.2714 44.725 60.3191C44.6935 60.3508 44.662 60.3985 44.6305 60.4303C44.599 60.462 44.5833 60.4779 44.5518 60.5097C44.5361 60.5256 44.5204 60.5415 44.4889 60.5573C44.4417 60.605 44.5361 60.5256 44.5361 60.5256C44.4574 60.5573 44.3944 60.6209 44.3158 60.6685C44.3 60.6685 44.1584 60.748 44.2528 60.7003C44.3315 60.6685 44.2056 60.7003 44.1898 60.7162C44.1111 60.748 44.0167 60.7639 43.938 60.7797C43.8908 60.7797 43.8436 60.7797 43.8121 60.7956C43.7492 60.7956 43.8751 60.7956 43.8751 60.7956H43.7964C43.7019 60.7956 43.6232 60.7956 43.5288 60.7956C43.3399 60.7956 43.1668 60.7956 42.978 60.7797C42.8993 60.7797 42.8048 60.7639 42.7261 60.748C42.6632 60.748 42.7891 60.748 42.7891 60.748C42.7576 60.748 42.7261 60.748 42.7104 60.748C42.6632 60.748 42.6002 60.7321 42.553 60.7162C42.5058 60.7162 42.4743 60.7003 42.4271 60.6844C42.3956 60.6844 42.3799 60.6685 42.3484 60.6527C42.3327 60.6527 42.3012 60.6209 42.2855 60.605C42.2697 60.605 42.254 60.5891 42.2382 60.5732C42.1753 60.5415 42.3169 60.6527 42.2697 60.605C42.2382 60.5732 42.2068 60.5415 42.1753 60.5097C42.1281 60.4461 42.0966 60.3667 42.0494 60.2873C42.0179 60.2237 42.0809 60.3508 42.0809 60.3508C42.0809 60.3349 42.0651 60.3032 42.0494 60.2873C42.0494 60.2555 42.0336 60.2237 42.0179 60.1761C41.9864 60.0808 41.9707 60.0013 41.9549 59.906C41.9077 59.6995 41.8762 59.493 41.8448 59.2865C41.8448 59.2229 41.8448 59.3182 41.8448 59.3182C41.8448 59.2865 41.8448 59.2547 41.8448 59.2229C41.8448 59.1594 41.8448 59.0958 41.829 59.0323C41.829 58.9052 41.7976 58.7781 41.7976 58.651C41.7818 58.3968 41.7661 58.1585 41.7661 57.9044C41.7661 57.396 41.7818 56.8876 41.8448 56.3952C41.8762 56.0775 41.5457 55.7915 41.2467 55.7915C40.9004 55.7915 40.6958 56.0616 40.6486 56.3952C40.5385 57.3642 40.5542 58.3333 40.6801 59.3023C40.806 60.2714 40.9477 61.3358 41.9235 61.7488C42.3484 61.9235 42.8206 61.9712 43.2613 61.9871C43.6862 62.003 44.1269 61.9871 44.5361 61.8441C44.961 61.7011 45.3545 61.4628 45.6378 61.0975C45.9211 60.7321 46.11 60.319 46.2201 59.8901C46.3618 59.3818 46.4247 58.8416 46.4877 58.3174C46.5507 57.7614 46.5979 57.2213 46.6136 56.6652C46.6136 56.3475 46.3303 56.0616 46.0155 56.0616C45.685 56.0616 45.4332 56.3157 45.4175 56.6652H45.4017Z" fill="#231F20"/>
<path d="M52.374 55.7123C53.9636 54.9498 54.7034 53.1388 54.9237 51.4707C55.1598 49.612 54.845 47.5468 55.7264 45.8153C55.9152 45.434 56.1513 45.1004 56.4504 44.8144C56.7022 44.5761 57.1743 44.1949 57.5521 44.2902C58.2918 44.4649 58.6066 43.3211 57.8668 43.1464C56.9068 42.924 55.9467 43.5753 55.3487 44.2743C54.7506 44.9733 54.3886 45.7994 54.184 46.6731C53.7118 48.6748 54.1368 50.8035 53.4128 52.7575C53.1137 53.5836 52.5786 54.2984 51.776 54.6797C51.4927 54.8227 51.414 55.2357 51.5714 55.4899C51.7445 55.7917 52.0907 55.8394 52.374 55.6964V55.7123Z" fill="#231F20"/>
<path d="M49.368 59.7154C52.201 59.8425 54.9238 58.3016 56.5134 55.9663C57.3475 54.7272 57.741 53.3451 57.8669 51.8677C57.9299 51.0257 57.9298 50.1679 58.0558 49.3259C58.1817 48.484 58.4964 47.8009 58.9214 47.086C59.3463 46.3711 59.7083 45.545 59.4722 44.6713C59.2676 43.9088 58.6853 43.3051 57.8826 43.2892C57.1272 43.2574 57.1272 44.4489 57.8826 44.4807C58.2761 44.4807 58.402 45.0843 58.3548 45.4021C58.2761 46.0693 57.7725 46.6412 57.4734 47.229C56.7967 48.5793 56.7967 50.0885 56.7022 51.5659C56.6235 52.8526 56.3402 54.0282 55.6635 55.1244C55.0339 56.1411 54.1525 56.983 53.1295 57.5867C51.9806 58.2698 50.69 58.6193 49.3522 58.5558C48.5968 58.524 48.5968 59.7154 49.3522 59.7472L49.368 59.7154Z" fill="#231F20"/>
<path d="M35.2661 59.8268C35.2661 59.938 35.2661 60.0492 35.2976 60.1763C35.2976 60.2558 35.3291 60.3352 35.3448 60.4146C35.3763 60.5258 35.4235 60.637 35.4707 60.7323C35.5022 60.8118 35.5494 60.8753 35.5966 60.9548C35.6281 61.0024 35.6596 61.0342 35.6911 61.066C35.7225 61.0977 35.7698 61.1295 35.8327 61.1295C35.8799 61.1454 35.9429 61.1454 35.9901 61.1295C36.0373 61.1295 36.0845 61.1136 36.1317 61.0818C36.2104 61.0342 36.2891 60.9389 36.3049 60.8436C36.3206 60.7482 36.3206 60.6211 36.2577 60.5417C36.1947 60.4623 36.1475 60.367 36.116 60.2716L36.1632 60.367C36.1003 60.2399 36.0688 60.0969 36.0531 59.9539V60.0651C36.0531 60.0651 36.0531 59.9063 36.0531 59.8268C36.0531 59.7792 36.053 59.7156 36.0216 59.668C36.0058 59.6203 35.9744 59.5727 35.9429 59.5409C35.9114 59.5091 35.8642 59.4773 35.817 59.4615C35.7698 59.4297 35.7225 59.4297 35.6596 59.4297C35.5651 59.4297 35.455 59.4615 35.3763 59.5409C35.2976 59.6203 35.2661 59.7156 35.2661 59.8268Z" fill="#231F20"/>
<path d="M36.5724 60.2083L36.7141 61.0026C36.7141 61.0026 36.7456 61.0979 36.777 61.1456C36.8085 61.1932 36.84 61.225 36.8872 61.2409C36.9344 61.2727 36.9816 61.2885 37.0288 61.2885C37.0761 61.2885 37.139 61.2885 37.1862 61.2885L37.2807 61.2409C37.2807 61.2409 37.3908 61.1615 37.4223 61.0979L37.4695 61.0026C37.4695 61.0026 37.4853 60.8596 37.4695 60.7961L37.3279 60.0018C37.3279 60.0018 37.2964 59.9065 37.2649 59.8588C37.2335 59.8111 37.202 59.7794 37.1548 59.7635C37.1075 59.7317 37.0603 59.7158 37.0131 59.7158C36.9659 59.7158 36.9029 59.7158 36.8557 59.7158L36.7613 59.7635C36.7613 59.7635 36.6511 59.8429 36.6196 59.9065L36.5724 60.0018C36.5724 60.0018 36.5567 60.1447 36.5724 60.2083Z" fill="#231F20"/>
<path d="M42.4586 59.7313C42.4271 59.8425 42.4114 59.9537 42.4114 60.0649C42.4114 60.1443 42.4114 60.2238 42.4114 60.3191C42.4114 60.4303 42.4429 60.5415 42.4743 60.6527C42.5058 60.7639 42.553 60.8751 42.6002 60.9704C42.6317 61.0181 42.6632 61.0498 42.6947 61.0816C42.7262 61.1134 42.7734 61.1452 42.8363 61.1452C42.8835 61.161 42.9465 61.161 42.9937 61.1452C43.0409 61.1452 43.0881 61.1293 43.1354 61.0975C43.2141 61.0498 43.2927 60.9545 43.3085 60.8592V60.748C43.3085 60.748 43.3085 60.605 43.2613 60.5415C43.2613 60.5256 43.2455 60.5097 43.2298 60.4779L43.277 60.5733C43.2298 60.4621 43.1983 60.3509 43.1826 60.2238V60.335C43.1826 60.2079 43.1826 60.0967 43.1826 59.9696V60.0808C43.1826 60.0808 43.1826 59.9696 43.1983 59.9219C43.2141 59.8743 43.2141 59.8107 43.1983 59.7631C43.1983 59.7154 43.1826 59.6678 43.1511 59.6201C43.1196 59.5724 43.0881 59.5407 43.0567 59.5089C43.0252 59.4771 42.978 59.4453 42.915 59.4453C42.8206 59.4295 42.6947 59.4295 42.616 59.493C42.5373 59.5566 42.4586 59.636 42.4429 59.7313H42.4586Z" fill="#231F20"/>
<path d="M43.7491 60.065C43.7491 60.065 43.7648 60.1603 43.7806 60.1921V60.0809C43.7806 60.208 43.7806 60.3351 43.7806 60.4463V60.3351C43.7806 60.4622 43.7491 60.5734 43.7019 60.6846L43.7491 60.5892C43.7491 60.5892 43.7334 60.6369 43.7176 60.6528C43.6861 60.7004 43.6704 60.7481 43.6704 60.7958C43.6704 60.8434 43.6704 60.907 43.6704 60.9546C43.6704 61.0023 43.7019 61.0499 43.7334 61.0976C43.7648 61.1453 43.7963 61.177 43.8435 61.1929C43.938 61.2406 44.0481 61.2723 44.1426 61.2406C44.237 61.2088 44.3314 61.1453 44.3787 61.0658C44.4259 60.9705 44.4731 60.8593 44.5046 60.7481C44.536 60.6369 44.5518 60.5257 44.5675 60.4145C44.5675 60.3351 44.5675 60.2556 44.5675 60.1762C44.5675 60.065 44.5518 59.9538 44.5203 59.8426C44.5203 59.7949 44.4888 59.7473 44.4573 59.6996C44.4259 59.652 44.3944 59.6202 44.3472 59.6043C44.3 59.5725 44.2527 59.5566 44.2055 59.5566C44.1583 59.5566 44.0954 59.5566 44.0481 59.5566C43.9537 59.5884 43.8593 59.652 43.8121 59.7314L43.7648 59.8267C43.7648 59.8267 43.7491 59.9697 43.7648 60.0332L43.7491 60.065Z" fill="#231F20"/>
<mask id="mask2_188_2767" style="mask-type:luminance" maskUnits="userSpaceOnUse" x="20" y="14" width="39" height="34">
<path d="M20.9753 19.7144C20.9124 22.6851 21.3216 25.6717 22.1872 28.5153C22.3603 29.0713 22.5492 29.6432 22.5964 30.2151C22.6594 30.8664 22.5335 31.5178 22.4548 32.1691C21.9196 36.4107 22.9269 41.0812 26.0589 43.9566C29.6002 47.1974 34.8569 47.4674 39.6415 47.2768C42.3013 47.1656 44.9769 46.9908 47.5423 46.2442C50.1077 45.4975 52.563 44.1949 54.2785 42.1456C54.971 41.3195 55.5376 40.3981 55.9468 39.4132C56.5763 37.8881 57.0642 35.9341 56.9856 34.2661C56.9069 32.8363 56.2301 31.6449 56.4662 30.1198C56.6393 29.0236 57.0328 27.9752 57.3633 26.9108C58.3233 23.7971 58.6696 20.4293 57.9928 17.2362C57.7882 16.2512 57.442 15.2186 56.6393 14.6149C55.3487 13.63 54.31 14.742 53.224 15.3775C51.5242 16.3783 50.0133 17.7286 48.8171 19.3013C48.4237 19.8256 48.0302 20.4134 47.4164 20.6517C46.8341 20.89 46.173 20.7629 45.5592 20.6517C43.3715 20.2863 41.1366 20.1433 38.9175 20.2386C37.3751 20.3022 34.5421 20.0798 33.1414 20.6993C32.9682 20.7788 32.7951 20.8741 32.6062 20.8423C32.3859 20.8105 32.2285 20.6199 32.0869 20.461C30.0566 17.9193 27.7587 15.3934 24.7054 14.2972C21.6993 13.2011 20.9911 17.5221 20.9438 19.6985L20.9753 19.7144Z" fill="white"/>
</mask>
<g mask="url(#mask2_188_2767)">
<path d="M20.9753 19.7144C20.9124 22.6851 21.3216 25.6717 22.1872 28.5153C22.3603 29.0713 22.5492 29.6432 22.5964 30.2151C22.6594 30.8664 22.5335 31.5178 22.4548 32.1691C21.9196 36.4107 22.9269 41.0812 26.0589 43.9566C29.6002 47.1974 34.8569 47.4674 39.6415 47.2768C42.3013 47.1656 44.9769 46.9908 47.5423 46.2442C50.1077 45.4975 52.563 44.1949 54.2785 42.1456C54.971 41.3195 55.5376 40.3981 55.9468 39.4132C56.5763 37.8881 57.0642 35.9341 56.9856 34.2661C56.9069 32.8363 56.2301 31.6449 56.4662 30.1198C56.6393 29.0236 57.0328 27.9752 57.3633 26.9108C58.3233 23.7971 58.6696 20.4293 57.9928 17.2362C57.7882 16.2512 57.442 15.2186 56.6393 14.6149C55.3487 13.63 54.31 14.742 53.224 15.3775C51.5242 16.3783 50.0133 17.7286 48.8171 19.3013C48.4237 19.8256 48.0302 20.4134 47.4164 20.6517C46.8341 20.89 46.173 20.7629 45.5592 20.6517C43.3715 20.2863 41.1366 20.1433 38.9175 20.2386C37.3751 20.3022 34.5421 20.0798 33.1414 20.6993C32.9682 20.7788 32.7951 20.8741 32.6062 20.8423C32.3859 20.8105 32.2285 20.6199 32.0869 20.461C30.0566 17.9193 27.7587 15.3934 24.7054 14.2972C21.6993 13.2011 20.9911 17.5221 20.9438 19.6985L20.9753 19.7144Z" fill="#F39B4A"/>
<path d="M49.5254 44.7984C49.6985 44.4012 49.7772 43.9564 49.8087 43.4798C49.9189 41.5576 49.069 39.6513 47.7312 38.2851C45.6694 36.1881 42.7263 35.3779 39.8776 35.3779C36.5567 35.3779 33.6135 36.76 31.5203 39.4607C30.6547 40.5886 29.9936 41.9389 29.9779 43.3686C29.9464 48.2616 36.3993 47.4037 39.6415 47.2766C41.2626 47.2131 42.8837 47.2131 44.5048 47.0542C45.874 46.9271 47.0387 47.0542 48.2348 46.2917C48.8329 45.9104 49.2421 45.4021 49.4939 44.7984H49.5254Z" fill="white"/>
<path d="M27.444 20.3338C26.9719 19.7301 26.421 19.19 25.8544 18.6975C25.5711 18.5069 25.2878 18.3162 24.9888 18.1574C24.9416 18.1415 24.9416 18.1415 24.9258 18.1256C24.9258 18.1256 24.9258 18.1256 24.8786 18.1256C24.8314 18.1097 24.7842 18.0938 24.7369 18.0779C24.674 18.062 24.5953 18.0462 24.5323 18.0303C24.5166 18.0303 24.5323 18.0303 24.5009 18.0303C24.4537 18.0303 24.3277 18.0303 24.2963 18.0303C24.2805 18.0303 24.2648 18.0303 24.249 18.0303C24.2176 18.0303 24.2018 18.062 24.1704 18.0779C24.1389 18.1097 24.0602 18.1891 24.0444 18.2209C23.9972 18.2845 23.9658 18.348 23.9343 18.4274C23.9185 18.4751 23.9028 18.4751 23.9028 18.491C23.9028 18.491 23.9028 18.5069 23.8871 18.5545C23.8084 18.7769 23.7454 18.9993 23.7139 19.2376C23.6352 19.6507 23.6038 20.159 23.6038 20.7309C23.6038 22.0177 23.7297 23.368 23.9028 24.6071C24.013 25.4332 24.1861 26.2752 24.3435 27.1012C24.973 26.3069 25.8229 25.735 26.6099 25.1155C27.2551 24.6071 28.4985 23.8287 28.6874 22.9391C28.8762 22.0812 27.9477 20.9692 27.4598 20.3496L27.444 20.3338Z" fill="#F9BDBE"/>
<path d="M54.5776 27.6577C55.4117 25.5607 56.0885 23.2731 56.2616 21.0014C56.2931 20.5089 56.3088 20.0165 56.2616 19.524C56.2616 19.3492 56.2302 19.2539 56.1672 18.9839C56.1515 18.8885 56.12 18.7932 56.0885 18.6979C56.0413 18.5549 56.0413 18.5708 56.0413 18.5867C55.9941 18.5073 55.9469 18.412 55.8996 18.3325C55.8996 18.3166 55.9626 18.3961 55.8367 18.269C55.8209 18.2531 55.8052 18.2372 55.7895 18.2213C55.758 18.2054 55.6793 18.1578 55.6636 18.1419C55.6163 18.1419 55.5219 18.0942 55.4904 18.0942C55.5062 18.0942 55.5376 18.0942 55.3803 18.0942C55.1127 18.0942 55.1757 18.0942 54.9081 18.1419C54.8137 18.1578 54.735 18.1419 54.6563 18.1419C54.5933 18.1737 54.5304 18.2054 54.4674 18.2372C53.7592 18.6503 53.1611 19.2222 52.626 19.8258C51.8076 20.7313 50.9419 21.891 50.5642 23.0984C50.9262 24.1786 52.201 25.0206 52.925 25.7831C53.5074 26.3868 53.9953 27.0858 54.4674 27.7848C54.4832 27.7371 54.5146 27.6736 54.5461 27.6259L54.5776 27.6577Z" fill="#F9BDBE"/>
<path d="M47.7468 30.9299C48.6597 30.1992 48.3921 28.0228 47.4793 27.4191C46.8497 27.0061 46.2202 27.6097 46.0628 28.1817C45.8109 29.0395 45.6693 30.8187 46.8182 31.0729C47.2432 31.1682 47.5422 31.1047 47.7626 30.9299H47.7468Z" fill="#A05715"/>
<path d="M31.8037 30.9934C32.7165 30.2627 32.449 28.0863 31.5361 27.4826C30.9066 27.0696 30.277 27.6732 30.1197 28.2451C29.8678 29.103 29.7262 30.8822 30.8751 31.1364C31.3001 31.2317 31.5991 31.1682 31.8194 30.9934H31.8037Z" fill="#A05715"/>
<path d="M37.9416 22.0177C37.9731 22.4466 38.0046 22.8755 38.0203 23.3044L37.9731 22.5101C38.0361 23.6857 38.0675 24.8613 38.0518 26.0369C38.0518 26.6405 37.9888 27.5301 38.3508 28.0544C38.7128 28.5786 39.5312 28.6581 39.9719 28.1974C40.4126 27.7367 40.4126 26.6723 40.4126 26.0527C40.4126 24.1782 40.3339 22.2877 40.208 20.4449C40.1608 19.746 39.8932 19.0152 39.6729 18.6657C39.4211 18.3003 39.0433 18.1415 38.76 18.3639C38.4767 18.5863 38.1934 19.047 38.0518 19.7301L37.9259 20.4449C37.8629 20.9692 37.8629 21.4934 37.9259 22.0336L37.9416 22.0177Z" fill="#A05715"/>
<path d="M33.6607 21.0648C33.944 22.5898 34.243 24.2579 35.03 25.6082C35.3447 26.1642 35.8326 26.8155 36.5566 26.7043C38.0833 26.4502 37.013 24.3691 36.7455 23.5589C36.3992 22.5422 36.1317 21.4937 35.9428 20.4293C35.8326 19.8098 35.0614 19.4126 34.4948 19.6032C33.8496 19.8098 33.5505 20.4134 33.6764 21.0648H33.6607Z" fill="#A05715"/>
<path d="M42.569 24.9092C41.5302 24.9568 40.9322 26.4501 41.5302 27.308C42.6319 28.8489 44.5049 26.8314 43.7337 25.4811C43.5133 25.1157 43.0884 24.9092 42.6634 24.9092C42.6319 24.9092 42.6005 24.9092 42.569 24.9092Z" fill="#A05715"/>
<path d="M42.7735 23.5109C44.3474 25.6873 45.3546 21.128 45.5435 20.1431C45.6379 19.6188 45.6065 19.031 45.276 18.6021C44.9454 18.1732 44.3002 17.9984 43.8752 18.3162C43.7336 18.4274 43.6234 18.5862 43.529 18.7451C42.9938 19.6506 42.8679 20.5402 42.7735 21.5569C42.7105 22.1606 42.3958 22.9549 42.7892 23.5109H42.7735Z" fill="#A05715"/>
<path d="M26.5468 37.094C26.6884 37.3005 26.8616 37.4911 27.0347 37.65C27.617 38.1742 28.64 38.6826 29.3483 38.1583C29.726 37.8883 30.0408 37.1734 29.8991 36.7445C29.726 36.2043 29.1437 36.1726 28.7187 35.9184C27.7429 35.3306 28.042 34.0279 27.9161 33.0907C27.8059 32.2487 27.0347 32.2328 26.5153 32.7888C25.4293 33.9485 25.6497 35.8549 26.5468 37.094Z" fill="#A05715"/>
<path d="M51.8862 37.094C51.7446 37.3005 51.5715 37.4911 51.3983 37.65C50.816 38.1742 49.793 38.6826 49.0847 38.1583C48.707 37.8883 48.3922 37.1734 48.5339 36.7445C48.707 36.2043 49.2893 36.1726 49.7143 35.9184C50.6901 35.3306 50.391 34.0279 50.517 33.0907C50.6271 32.2487 51.3983 32.2328 51.9177 32.7888C53.0037 33.9485 52.7833 35.8549 51.8862 37.094Z" fill="#A05715"/>
<path d="M25.3192 42.7969L26.9561 41.2718C27.1764 41.0653 27.3023 40.7317 27.3023 40.4299C27.3023 40.271 27.2708 40.1121 27.2079 39.9692C27.1607 39.8262 27.082 39.6991 26.9561 39.5879C26.7357 39.3814 26.4367 39.2225 26.1219 39.2384C25.8071 39.2543 25.5238 39.3655 25.2878 39.5879L23.6509 41.113C23.4306 41.3195 23.3047 41.6531 23.3047 41.9549C23.3047 42.1138 23.3362 42.2726 23.3991 42.4156C23.4463 42.5586 23.525 42.6857 23.6509 42.7969C23.8713 43.0034 24.1703 43.1623 24.4851 43.1464C24.7999 43.1305 25.0832 43.0193 25.3192 42.7969Z" fill="#A05715"/>
<path d="M22.4076 38.5871L24.611 38.2694C24.91 38.2217 25.2091 38.0152 25.3664 37.7769C25.4609 37.6498 25.5238 37.5069 25.5396 37.348C25.5868 37.205 25.5868 37.0462 25.5553 36.8873C25.4924 36.5855 25.335 36.2836 25.0674 36.1248C24.7999 35.9659 24.5008 35.8865 24.186 35.9341L21.9826 36.2519C21.6836 36.2995 21.3845 36.506 21.2272 36.7443C21.1327 36.8714 21.0698 37.0144 21.054 37.1733C21.0068 37.3162 21.0068 37.4751 21.0383 37.634C21.1013 37.9358 21.2586 38.2376 21.5262 38.3965C21.7938 38.5554 22.0928 38.6348 22.4076 38.5871Z" fill="#A05715"/>
<path d="M21.5577 34.0598L23.7139 34.6317C23.9972 34.7111 24.3592 34.6317 24.611 34.4728C24.7526 34.3934 24.8628 34.2822 24.9415 34.1392C25.0359 34.0121 25.0989 33.885 25.1304 33.7262C25.1933 33.4243 25.1618 33.0907 24.973 32.8207C24.7841 32.5506 24.548 32.3759 24.2333 32.2964L22.0771 31.7245C21.7938 31.6451 21.4318 31.7245 21.1799 31.8834C21.0383 31.9628 20.9281 32.074 20.8494 32.217C20.755 32.3441 20.692 32.4712 20.6606 32.63C20.5976 32.9319 20.6291 33.2655 20.818 33.5355C21.0068 33.8056 21.2429 33.9803 21.5577 34.0598Z" fill="#A05715"/>
<path d="M53.6962 42.7969L52.0594 41.2718C51.839 41.0653 51.7131 40.7317 51.7131 40.4299C51.7131 40.271 51.7446 40.1121 51.8076 39.9692C51.8548 39.8262 51.9335 39.6991 52.0594 39.5879C52.2797 39.3814 52.5788 39.2225 52.8935 39.2384C53.2083 39.2543 53.4916 39.3655 53.7277 39.5879L55.3645 41.113C55.5849 41.3195 55.7108 41.6531 55.7108 41.9549C55.7108 42.1138 55.6793 42.2726 55.6163 42.4156C55.5691 42.5586 55.4904 42.6857 55.3645 42.7969C55.1442 43.0034 54.8451 43.1623 54.5304 43.1464C54.2156 43.1305 53.9323 43.0193 53.6962 42.7969Z" fill="#A05715"/>
<path d="M56.592 38.5871L54.3886 38.2694C54.0896 38.2217 53.7906 38.0152 53.6332 37.7769C53.5387 37.6498 53.4758 37.5069 53.46 37.348C53.4128 37.205 53.4128 37.0462 53.4443 36.8873C53.5073 36.5855 53.6646 36.2836 53.9322 36.1248C54.1998 35.9659 54.4988 35.8865 54.8136 35.9341L57.017 36.2519C57.316 36.2995 57.6151 36.506 57.7725 36.7443C57.8669 36.8714 57.9298 37.0144 57.9456 37.1733C57.9928 37.3162 57.9928 37.4751 57.9613 37.634C57.8984 37.9358 57.741 38.2376 57.4734 38.3965C57.2059 38.5554 56.9068 38.6348 56.592 38.5871Z" fill="#A05715"/>
<path d="M57.442 34.0598L55.2858 34.6317C55.0025 34.7111 54.6405 34.6317 54.3887 34.4728C54.247 34.3934 54.1369 34.2822 54.0582 34.1392C53.9637 34.0121 53.9008 33.885 53.8693 33.7262C53.8064 33.4243 53.8378 33.0907 54.0267 32.8207C54.2156 32.5506 54.4516 32.3759 54.7664 32.2964L56.9226 31.7245C57.2059 31.6451 57.5679 31.7245 57.8197 31.8834C57.9614 31.9628 58.0716 32.074 58.1502 32.217C58.2447 32.3441 58.3076 32.4712 58.3391 32.63C58.4021 32.9319 58.3706 33.2655 58.1817 33.5355C57.9929 33.8056 57.7568 33.9803 57.442 34.0598Z" fill="#A05715"/>
</g>
<path d="M31.3627 35.3148C32.2145 35.3148 32.9051 34.6178 32.9051 33.758C32.9051 32.8982 32.2145 32.2012 31.3627 32.2012C30.5109 32.2012 29.8203 32.8982 29.8203 33.758C29.8203 34.6178 30.5109 35.3148 31.3627 35.3148Z" fill="#231F20"/>
<path d="M47.3847 35.3148C48.2365 35.3148 48.9271 34.6178 48.9271 33.758C48.9271 32.8982 48.2365 32.2012 47.3847 32.2012C46.5328 32.2012 45.8423 32.8982 45.8423 33.758C45.8423 34.6178 46.5328 35.3148 47.3847 35.3148Z" fill="#231F20"/>
<path d="M39.3738 36.411C40.1387 36.411 40.7588 36.0199 40.7588 35.5373C40.7588 35.0548 40.1387 34.6636 39.3738 34.6636C38.6089 34.6636 37.9888 35.0548 37.9888 35.5373C37.9888 36.0199 38.6089 36.411 39.3738 36.411Z" fill="#231F20"/>
<path d="M30.324 22.59C35.8955 20.2865 42.191 20.0958 47.9042 22.0816C48.6282 22.3358 48.9272 21.1761 48.219 20.9378C42.3484 18.8885 35.7696 19.0632 30.025 21.4462C29.7259 21.5732 29.5213 21.8433 29.6158 22.1769C29.6945 22.4629 30.0407 22.717 30.3398 22.59H30.324Z" fill="#231F20"/>
<path d="M23.5092 14.7738C26.0589 15.8858 28.4039 17.4268 30.4028 19.3649C30.9694 19.9209 31.5202 20.5087 32.0396 21.1124C32.2442 21.3507 32.6691 21.3348 32.8737 21.1124C33.1098 20.8741 33.0784 20.5087 32.8737 20.2704C31.0166 18.0781 28.7659 16.2194 26.2792 14.8215C25.571 14.4243 24.847 14.0589 24.1073 13.7412C23.8082 13.6141 23.4777 13.6459 23.3046 13.9477C23.1629 14.2019 23.2259 14.6308 23.5092 14.7579V14.7738Z" fill="#231F20"/>
<path d="M21.652 15.0597C19.8892 19.905 20.0939 25.338 22.1084 30.0562C22.2343 30.358 22.6593 30.4216 22.9111 30.2627C23.2101 30.088 23.2573 29.7385 23.1157 29.4525C21.227 25.0203 21.1326 19.8891 22.7694 15.3774C23.037 14.6625 21.8881 14.3448 21.6362 15.0597H21.652Z" fill="#231F20"/>
<path d="M24.4063 19.1587C24.7211 19.3334 25.0201 19.5241 25.3192 19.7306C25.3978 19.7783 25.4608 19.8418 25.5395 19.8895C25.6024 19.9371 25.4451 19.81 25.4923 19.8577C25.508 19.8577 25.5238 19.8895 25.5395 19.8895C25.571 19.9212 25.6182 19.953 25.6497 19.9848C25.7913 20.096 25.9172 20.2231 26.0589 20.3343C26.3264 20.5726 26.5625 20.8426 26.7986 21.1127C26.8301 21.1445 26.8615 21.1921 26.893 21.2239C26.893 21.2398 27.0032 21.3669 26.9402 21.2715C26.8773 21.1762 26.9717 21.3033 26.9875 21.3192C27.0189 21.3669 27.0504 21.3986 27.0819 21.4463C27.1921 21.5893 27.2865 21.7481 27.3809 21.8911C27.6013 22.2406 27.7901 22.5901 27.9475 22.9714C28.0105 23.0985 28.1679 23.2097 28.2938 23.2414C28.4354 23.2732 28.6243 23.2573 28.7502 23.1779C28.8761 23.0985 28.9863 22.9714 29.0178 22.8284C29.0492 22.6695 29.0178 22.5266 28.9548 22.3677C28.3252 20.9379 27.318 19.7147 26.0746 18.7774C25.7441 18.5233 25.3978 18.3008 25.0201 18.1102C24.7526 17.9672 24.3591 18.0308 24.2174 18.3167C24.0758 18.5868 24.1387 18.9681 24.422 19.1269L24.4063 19.1587Z" fill="#231F20"/>
<path d="M25.5081 25.4813C22.8797 28.3726 21.3845 32.3918 21.7623 36.3315C22.14 40.2713 24.2175 43.4962 27.4439 45.4819C29.2067 46.5622 31.2685 47.1659 33.346 47.0864C34.1014 47.0547 34.1014 45.8632 33.346 45.895C30.0566 46.0062 26.8774 44.2587 24.9572 41.5899C22.8797 38.7145 22.439 35.0289 23.4148 31.6451C23.9814 29.6753 24.9887 27.8484 26.3737 26.3233C26.8931 25.7514 26.0589 24.9094 25.5396 25.4813H25.5081Z" fill="#231F20"/>
<path d="M47.6682 21.2873C48.5181 20.4453 49.3207 19.5557 50.1864 18.7137C50.8789 18.0465 51.6186 17.4587 52.3583 16.871C53.0193 16.3626 53.6804 15.8542 54.3886 15.4094C54.6876 15.2188 55.0182 15.0282 55.3487 14.917C55.4274 14.8852 55.5061 14.8693 55.6005 14.8375C55.6949 14.8058 55.6792 14.8216 55.6949 14.8216C55.8838 14.8216 55.8523 14.8216 55.994 14.8534C56.0884 14.8852 56.0412 14.8534 56.0569 14.8693C56.1041 14.8852 56.1513 14.917 56.1986 14.9487C56.2772 14.9964 56.3245 15.044 56.4346 15.1553C56.5763 15.3141 56.7179 15.5524 56.8281 15.8066C57.0957 16.3785 57.2531 17.0934 57.3475 17.7447C57.5521 18.9838 57.5836 20.2706 57.5993 21.5256C57.6308 24.2421 57.1744 26.9586 56.1041 29.4686C55.9782 29.7705 56.0254 30.1041 56.3087 30.2788C56.5605 30.4218 56.9855 30.3583 57.1114 30.0723C58.764 26.212 59.1102 21.9069 58.5279 17.7765C58.339 16.4579 57.9928 14.6787 56.7494 13.932C55.2857 13.0424 53.4915 14.5198 52.3583 15.3777C51.4927 16.029 50.7057 16.6168 49.9031 17.3475C48.8171 18.3325 47.8413 19.4445 46.7868 20.4771C46.2359 21.0172 47.0701 21.8592 47.6209 21.3191L47.6682 21.2873Z" fill="#231F20"/>
<path d="M54.2626 18.1258C52.909 18.8566 51.7444 19.9686 50.9259 21.2871C50.7056 21.6366 50.5167 22.0179 50.3436 22.3992C50.2807 22.558 50.2334 22.6851 50.2807 22.8599C50.3121 23.0028 50.4223 23.1458 50.5482 23.2094C50.6899 23.2888 50.8472 23.3206 51.0046 23.2729C51.1463 23.2252 51.3037 23.1299 51.3509 23.0028C51.4925 22.6692 51.6657 22.3515 51.8388 22.0497C51.9332 21.8908 52.0277 21.7478 52.1221 21.589C52.1693 21.5095 52.2323 21.446 52.2795 21.3666C52.311 21.3348 52.3267 21.303 52.3582 21.2712C52.4054 21.2077 52.2795 21.3666 52.3267 21.3189C52.3424 21.303 52.3582 21.2712 52.3739 21.2554C52.5942 20.9694 52.8303 20.6993 53.0979 20.4611C53.2238 20.334 53.3654 20.2069 53.5071 20.0798C53.5701 20.0321 53.633 19.9686 53.696 19.9209C53.7117 19.9209 53.8376 19.8097 53.7432 19.8733C53.7274 19.8733 53.6645 19.9368 53.7432 19.8733C53.7747 19.8574 53.7904 19.8415 53.8219 19.8097C54.1524 19.5714 54.4829 19.349 54.8449 19.1584C55.1124 19.0154 55.2226 18.6024 55.0495 18.3482C54.8764 18.0623 54.5301 17.9828 54.2468 18.1417L54.2626 18.1258Z" fill="#231F20"/>
<path d="M52.925 26.3231C55.3172 28.9602 56.6393 32.5981 56.3403 36.1725C56.0412 39.7468 54.1211 42.6699 51.2409 44.4332C49.6356 45.4182 47.8256 45.9424 45.937 45.8789C45.1815 45.8471 45.1815 47.0386 45.937 47.0703C49.6198 47.1815 53.0823 45.2275 55.27 42.2886C57.5994 39.159 58.0873 35.0287 57.017 31.3113C56.4032 29.1349 55.27 27.1333 53.7591 25.4652C53.2397 24.8933 52.4056 25.7353 52.925 26.3072V26.3231Z" fill="#231F20"/>
</svg>
