<svg width="80" height="77" viewBox="0 0 80 77" fill="none" xmlns="http://www.w3.org/2000/svg">
<path d="M50.2222 54.1361C50.7888 52.8176 50.8045 51.3243 51.1036 49.9104C51.6229 47.5116 53.1024 45.0969 55.3688 44.0325C56.5334 43.4765 57.9184 43.3971 59.1933 43.5242C60.9088 43.6989 61.0662 43.683 60.4839 45.0334C59.6654 46.892 59.4766 48.5919 59.3035 50.6253C59.1461 52.4363 58.7369 54.3903 57.3833 55.5976C56.5492 56.3443 55.4317 56.7097 54.629 57.504C54.2828 57.8535 53.9995 58.2665 53.6532 58.616C51.8905 60.3635 48.5067 59.871 46.8699 58.1394C45.8154 57.0274 45.8783 56.5031 47.0587 56.1378C48.5067 55.6929 49.4982 55.8995 50.2537 54.1361H50.2222Z" fill="#5C564D"/>
<path d="M48.3965 59.5533C48.727 59.9346 49.2149 60.1887 49.7028 60.2841C50.2694 60.3953 50.836 60.3476 51.4026 60.2205C51.7017 60.1411 51.9849 60.0617 52.284 59.9663C52.4256 59.9187 52.5515 59.8234 52.6302 59.6963C52.7089 59.5692 52.7404 59.3785 52.6932 59.2356C52.5988 58.9337 52.284 58.7113 51.9692 58.8225C51.5285 58.9655 51.0878 59.1085 50.6314 59.172H50.7888C50.537 59.172 50.2852 59.1879 50.0333 59.172H50.1907C49.9861 59.172 49.7973 59.1085 49.6084 59.0291L49.75 59.0926C49.6084 59.0291 49.4825 58.9496 49.3566 58.8702L49.4825 58.9655C49.4038 58.902 49.3251 58.8225 49.2464 58.7431C49.152 58.6319 48.9631 58.5684 48.8215 58.5684C48.6798 58.5684 48.5067 58.6319 48.3965 58.7431C48.2863 58.8543 48.2234 59.0132 48.2234 59.172C48.2234 59.3309 48.2863 59.4739 48.3965 59.601V59.5533Z" fill="#231F20"/>
<path d="M53.1023 58.0598C53.1023 58.0598 53.1181 58.1393 53.1338 58.1869C53.1653 58.2663 53.1968 58.3617 53.244 58.4411C53.2597 58.4729 53.2912 58.5046 53.307 58.5523C53.3542 58.6317 53.4171 58.6953 53.4801 58.7747C53.5116 58.8065 53.543 58.8382 53.5745 58.8541C53.6375 58.9177 53.7162 58.9653 53.7949 59.013C53.8263 59.0289 53.8735 59.0607 53.905 59.0765C53.9837 59.1083 54.0624 59.156 54.1568 59.1719C54.2041 59.1719 54.2513 59.2036 54.2985 59.2036C54.3929 59.2036 54.4874 59.2354 54.5975 59.2354C54.6762 59.2354 54.7549 59.2354 54.8179 59.1877C54.8966 59.156 54.9595 59.1242 55.0067 59.0606C55.0697 59.013 55.1012 58.9494 55.1326 58.87C55.1641 58.8065 55.1799 58.727 55.1799 58.6476V58.4888C55.1326 58.3934 55.0854 58.2981 55.0067 58.2187L54.8808 58.1234C54.7864 58.0757 54.692 58.0439 54.5818 58.0439C54.5346 58.0439 54.4874 58.0439 54.4401 58.0439H54.5975C54.5975 58.0439 54.4401 58.0439 54.3772 57.9963L54.5188 58.0598C54.5188 58.0598 54.3772 57.9804 54.3142 57.9327L54.4401 58.0281C54.4401 58.0281 54.3142 57.9169 54.267 57.8533L54.3614 57.9804C54.3614 57.9804 54.2828 57.8533 54.2513 57.7898L54.3142 57.9327C54.3142 57.9327 54.2828 57.8374 54.267 57.7739C54.2513 57.6944 54.2198 57.6309 54.1568 57.5674C54.1096 57.5038 54.0624 57.4562 53.9837 57.4085C53.9208 57.3608 53.8421 57.345 53.7634 57.345C53.6847 57.3291 53.606 57.345 53.5273 57.345L53.3856 57.4085C53.2912 57.4562 53.2283 57.5356 53.181 57.615L53.1181 57.758C53.0866 57.8692 53.0866 57.9645 53.1181 58.0757L53.1023 58.0598Z" fill="#231F20"/>
<path d="M55.353 57.472C57.0056 56.6936 58.2804 55.1844 59.0516 53.5323C59.4923 52.5473 59.8071 51.5147 59.996 50.4504C60.1848 49.386 60.2635 48.274 60.3894 47.1778C60.4996 46.1929 60.7672 45.0809 61.68 44.5566C62.341 44.1754 61.743 43.1428 61.0819 43.524C59.1303 44.6361 59.2562 47.1143 59.0202 49.0683C58.7841 51.0223 58.249 53.008 57.0371 54.5649C56.4233 55.3592 55.6521 55.9946 54.755 56.4236C54.4717 56.5665 54.393 56.9796 54.5504 57.2337C54.7235 57.5356 55.0697 57.5832 55.353 57.4403V57.472Z" fill="#231F20"/>
<path d="M49.2306 56.0745C50.0176 55.7568 50.6314 55.1531 50.9934 54.3747C51.4026 53.501 51.497 52.5478 51.5757 51.5787C51.7331 49.8154 52.0479 48.0361 53.0866 46.5587C53.5903 45.8438 54.2513 45.2878 55.0225 44.9066C55.3058 44.7636 55.3845 44.3506 55.2271 44.0964C55.054 43.7945 54.7077 43.7469 54.4244 43.8899C52.8977 44.6206 51.8433 46.0186 51.2137 47.5595C50.8674 48.4174 50.6628 49.307 50.5369 50.2125C50.411 51.118 50.411 52.0871 50.2064 52.9926C50.0333 53.7392 49.6713 54.613 48.9158 54.9148C48.6168 55.0419 48.4122 55.312 48.5066 55.6456C48.5853 55.9315 48.9316 56.1857 49.2306 56.0586V56.0745Z" fill="#231F20"/>
<path d="M56.6436 44.112C57.0056 43.985 57.3676 43.9055 57.7453 43.8579H57.5879C58.123 43.8102 58.6581 43.8102 59.1932 43.8738H59.0359C59.5238 43.9214 59.9959 44.0485 60.4524 44.2232C60.5783 44.2709 60.7829 44.2232 60.9088 44.1597C61.0347 44.0962 61.1449 43.9532 61.1763 43.8102C61.2078 43.6513 61.2078 43.4925 61.1134 43.3495C61.0189 43.2065 60.9088 43.143 60.7671 43.0794C59.3664 42.5234 57.761 42.4917 56.3445 42.9682C56.0455 43.0636 55.8252 43.3813 55.9353 43.699C56.0298 43.985 56.3445 44.2232 56.6593 44.112H56.6436Z" fill="#231F20"/>
<path d="M31.8079 60.665C29.573 59.6641 27.8102 57.5989 27.2279 55.2001C26.6456 52.8013 27.2594 50.1166 28.8805 48.2738C31.1311 45.7161 34.7825 45.0489 38.1506 44.6994C39.331 44.5882 40.5743 44.4929 41.676 44.9377C42.5732 45.3031 43.2971 46.0021 44.0054 46.6693C45.2645 47.8766 46.5393 49.1157 47.3735 50.6567C48.5853 52.9125 48.7113 55.7403 47.6882 58.0914C47.4049 58.7268 47.043 59.3464 46.5078 59.7912C46.0514 60.1566 45.5006 60.3949 44.934 60.5696C43.0453 61.1574 41.0308 61.221 39.0634 61.2845C36.6239 61.3639 34.1372 61.6975 31.8236 60.665H31.8079Z" fill="white"/>
<path d="M32.8467 54.9463C31.1941 55.2005 31.5089 57.3452 31.9024 58.8226C31.9338 58.9655 31.9968 59.1244 32.107 59.2197C32.2801 59.3627 32.5319 59.2991 32.7523 59.2515C33.4762 59.0609 35.7269 59.4103 36.1833 58.902C36.6397 58.3936 36.0574 56.8368 35.7584 56.3602C35.3334 55.6771 34.6409 55.1529 33.854 55.0099C33.4605 54.9305 33.1142 54.9305 32.8309 54.9622L32.8467 54.9463Z" fill="#AA968A"/>
<path d="M41.6604 54.8986C39.7088 55.2481 38.8904 57.2815 39.394 59.1243C40.3383 59.0925 41.2984 59.1243 42.227 59.2196C44.4934 59.4579 44.1943 55.1528 42.3529 54.8827C42.1011 54.8509 41.8807 54.8509 41.6604 54.8827V54.8986Z" fill="#AA968A"/>
<path d="M27.102 44.2549C26.5669 45.081 26.1262 46.0024 26.079 46.9873C25.9373 49.4815 28.3296 51.4672 30.7534 51.9915C30.7534 51.7214 30.7534 51.4355 30.7377 51.1654C33.6178 51.6261 36.199 53.6754 37.3165 56.3919C37.883 54.7557 39.1107 53.3577 40.6531 52.5634C42.0853 51.8326 43.8166 51.5943 44.934 50.4505C44.8238 50.7047 45.1071 51.0065 45.3904 50.9906C45.6737 50.9748 45.9098 50.7841 46.1301 50.6094C47.6883 49.2749 49.3723 47.6546 49.3408 45.5894C49.3408 44.8427 49.0733 44.112 48.6956 43.4606C46.8856 40.2834 42.7935 39.4256 39.1894 39.0284C34.2002 38.4883 29.935 39.8704 27.1178 44.2867L27.102 44.2549Z" fill="white"/>
<path d="M31.021 56.6621C31.0525 57.647 31.1469 58.6478 31.3515 59.601C31.5246 60.4429 31.9338 61.3008 32.7365 61.6979C33.1615 61.9045 33.6021 61.9839 34.0586 61.9998C34.4835 61.9998 34.9557 61.968 35.3649 61.8727C35.8528 61.7615 36.2777 61.4597 36.5138 61.0148C36.7184 60.6336 36.8129 60.2047 36.8758 59.7757C37.0489 58.6637 37.0961 57.5358 36.9702 56.4079C36.9545 56.249 36.923 56.106 36.7971 55.9789C36.6869 55.8677 36.5296 55.8042 36.3722 55.8042C36.0889 55.8042 35.7426 56.0743 35.7741 56.4079C35.8685 57.2975 35.8685 58.1871 35.7741 59.0767C35.7741 59.1403 35.7741 59.1879 35.7584 59.2515C35.7584 59.2833 35.7584 59.2991 35.7584 59.3309C35.7584 59.4262 35.7584 59.2197 35.7584 59.3309C35.7426 59.4421 35.7269 59.5533 35.7111 59.6645C35.6797 59.8393 35.6482 60.0299 35.601 60.2047C35.601 60.2523 35.5695 60.2841 35.5538 60.3317C35.5538 60.3476 35.5538 60.3635 35.538 60.3794C35.5223 60.4429 35.5695 60.3159 35.5695 60.3159C35.538 60.3476 35.538 60.3953 35.5223 60.4271C35.5065 60.4747 35.4751 60.5065 35.4436 60.5542C35.4436 60.5542 35.4278 60.5859 35.4121 60.6018C35.4121 60.6018 35.4908 60.5065 35.4436 60.5542C35.4121 60.5859 35.3806 60.6177 35.3491 60.6495C35.4278 60.6018 35.3491 60.6495 35.3334 60.6495C35.3019 60.6653 35.2232 60.6971 35.2075 60.713C35.239 60.6654 35.3019 60.6812 35.239 60.713C35.2232 60.713 35.2075 60.713 35.176 60.7289C35.1288 60.7289 35.0816 60.7607 35.0344 60.7607C34.9872 60.7607 34.9557 60.7766 34.9085 60.7924C34.877 60.7924 34.8612 60.7924 34.8298 60.7924C34.7511 60.7924 34.8298 60.7924 34.8612 60.7924C34.7826 60.8242 34.6724 60.8083 34.5937 60.8242C34.4993 60.8242 34.4206 60.8242 34.3261 60.8401C34.153 60.8401 33.9641 60.8401 33.791 60.8401C33.7753 60.8401 33.7595 60.8401 33.7281 60.8401C33.6651 60.8401 33.791 60.8401 33.791 60.8401C33.7438 60.8401 33.6966 60.8401 33.6651 60.8242C33.5707 60.8083 33.4762 60.7766 33.3975 60.7448C33.3661 60.7448 33.3346 60.713 33.2874 60.713C33.2874 60.713 33.4133 60.7766 33.3189 60.713C33.3031 60.713 33.2874 60.6971 33.2716 60.6812C33.1929 60.6336 33.1142 60.5859 33.0513 60.5383C32.9883 60.4906 33.13 60.6177 33.0828 60.5542C33.0828 60.5542 33.0513 60.5224 33.0356 60.5224C33.0041 60.4906 32.9726 60.4588 32.9411 60.4271C32.9096 60.3953 32.8939 60.3794 32.8624 60.3476C32.8624 60.3317 32.7995 60.2682 32.8624 60.3476C32.8152 60.2841 32.7837 60.2205 32.7365 60.1411C32.7208 60.1093 32.6893 60.0617 32.6736 60.0299C32.6736 60.014 32.6736 59.9981 32.6578 59.9822C32.7365 60.1093 32.6893 60.0458 32.6578 59.9981C32.5949 59.8393 32.5477 59.6645 32.5004 59.4898C32.4532 59.2833 32.4217 59.0926 32.3903 58.8861C32.3745 58.759 32.3588 58.6478 32.3431 58.5207C32.3431 58.5048 32.3273 58.3936 32.3431 58.4731C32.3588 58.5525 32.3431 58.4413 32.3431 58.4254C32.3431 58.3619 32.3273 58.2983 32.3273 58.2348C32.2644 57.7264 32.2329 57.2181 32.2171 56.6938C32.2171 56.3761 31.9496 56.0901 31.6191 56.0901C31.2886 56.0901 31.021 56.3443 31.021 56.6938V56.6621Z" fill="#231F20"/>
<path d="M43.1871 56.6618C43.1871 57.1225 43.1399 57.5673 43.0927 58.028C43.0927 58.1392 43.077 58.2345 43.0612 58.3458C43.0612 58.3775 43.0612 58.3934 43.0612 58.4252C43.0612 58.4887 43.0455 58.5523 43.0297 58.6158C42.9983 58.8064 42.9668 58.9971 42.9353 59.2036C42.9038 59.3783 42.8566 59.5531 42.8094 59.7278C42.7779 59.8073 42.7622 59.8867 42.7307 59.9661L42.6992 60.0297C42.6992 60.0297 42.7464 59.9185 42.715 59.9661C42.6992 60.0138 42.6677 60.0614 42.652 60.0932C42.6205 60.1568 42.5733 60.2362 42.5261 60.2997C42.5261 60.3156 42.4946 60.3474 42.4789 60.3633C42.4789 60.3633 42.5576 60.268 42.5104 60.3156C42.4789 60.3474 42.4474 60.3951 42.4159 60.4268C42.3845 60.4586 42.3687 60.4745 42.3372 60.5063C42.3215 60.5221 42.3058 60.538 42.2743 60.5539C42.2271 60.6016 42.3215 60.5221 42.3215 60.5221C42.2428 60.5539 42.1798 60.6175 42.1012 60.6651C42.0854 60.6651 41.9438 60.7446 42.0382 60.6969C42.1169 60.6651 41.991 60.6969 41.9752 60.7128C41.8965 60.7446 41.8021 60.7604 41.7234 60.7763C41.6762 60.7763 41.629 60.7763 41.5975 60.7922C41.5346 60.7922 41.6605 60.7922 41.6605 60.7922H41.5818C41.4873 60.7922 41.4086 60.7922 41.3142 60.7922C41.1254 60.7922 40.9522 60.7922 40.7634 60.7763C40.6847 60.7763 40.5902 60.7604 40.5115 60.7446C40.4486 60.7446 40.5745 60.7446 40.5745 60.7446C40.543 60.7446 40.5115 60.7446 40.4958 60.7446C40.4486 60.7446 40.3856 60.7287 40.3384 60.7128C40.2912 60.7128 40.2597 60.6969 40.2125 60.681C40.181 60.681 40.1653 60.6651 40.1338 60.6492C40.1181 60.6492 40.0866 60.6175 40.0709 60.6016C40.0551 60.6016 40.0394 60.5857 40.0236 60.5698C39.9607 60.538 40.1023 60.6492 40.0551 60.6016C40.0236 60.5698 39.9922 60.538 39.9607 60.5063C39.9135 60.4427 39.882 60.3633 39.8348 60.2839C39.8033 60.2203 39.8663 60.3474 39.8663 60.3474C39.8663 60.3315 39.8505 60.2997 39.8348 60.2839C39.8348 60.2521 39.819 60.2203 39.8033 60.1727C39.7718 60.0773 39.7561 59.9979 39.7403 59.9026C39.6931 59.6961 39.6616 59.4896 39.6302 59.283C39.6302 59.2195 39.6302 59.3148 39.6302 59.3148C39.6302 59.283 39.6302 59.2513 39.6302 59.2195C39.6302 59.1559 39.6302 59.0924 39.6144 59.0289C39.6144 58.9018 39.583 58.7747 39.583 58.6476C39.5672 58.3934 39.5515 58.1551 39.5515 57.9009C39.5515 57.3926 39.5672 56.8842 39.6302 56.3918C39.6616 56.074 39.3311 55.7881 39.0321 55.7881C38.6858 55.7881 38.4812 56.0582 38.434 56.3918C38.3239 57.3608 38.3396 58.3299 38.4655 59.2989C38.5914 60.268 38.7331 61.3323 39.7089 61.7454C40.1338 61.9201 40.606 61.9678 41.0467 61.9837C41.4716 61.9996 41.9123 61.9837 42.3215 61.8407C42.7464 61.6977 43.1399 61.4594 43.4232 61.094C43.7065 60.7287 43.8954 60.3156 44.0055 59.8867C44.1472 59.3783 44.2101 58.8382 44.2731 58.314C44.3361 57.758 44.3833 57.2178 44.399 56.6618C44.399 56.3441 44.1157 56.0581 43.8009 56.0581C43.4704 56.0581 43.2186 56.3123 43.2029 56.6618H43.1871Z" fill="#231F20"/>
<path d="M33.0513 59.8229C33.0513 59.9341 33.0513 60.0453 33.0827 60.1724C33.0827 60.2519 33.1142 60.3313 33.13 60.4107C33.1614 60.5219 33.2087 60.6331 33.2559 60.7284C33.2874 60.8079 33.3346 60.8714 33.3818 60.9508C33.4133 60.9985 33.4447 61.0303 33.4762 61.062C33.5077 61.0938 33.5549 61.1256 33.6179 61.1256C33.6651 61.1415 33.728 61.1415 33.7753 61.1256C33.8225 61.1256 33.8697 61.1097 33.9169 61.0779C33.9956 61.0303 34.0743 60.935 34.09 60.8396C34.1058 60.7443 34.1058 60.6172 34.0428 60.5378C33.9799 60.4584 33.9326 60.3631 33.9012 60.2677L33.9484 60.3631C33.8854 60.236 33.8539 60.093 33.8382 59.95V60.0612C33.8382 60.0612 33.8382 59.9024 33.8382 59.8229C33.8382 59.7753 33.8382 59.7117 33.8067 59.6641C33.791 59.6164 33.7595 59.5688 33.728 59.537C33.6966 59.5052 33.6493 59.4734 33.6021 59.4575C33.5549 59.4258 33.5077 59.4258 33.4447 59.4258C33.3503 59.4258 33.2401 59.4576 33.1614 59.537C33.0827 59.6164 33.0513 59.7117 33.0513 59.8229Z" fill="#231F20"/>
<path d="M34.342 60.2044L34.4836 60.9987C34.4836 60.9987 34.5151 61.094 34.5466 61.1417C34.578 61.1893 34.6095 61.2211 34.6567 61.237C34.7039 61.2688 34.7512 61.2846 34.7984 61.2846C34.8456 61.2846 34.9086 61.2846 34.9558 61.2846L35.0502 61.237C35.0502 61.237 35.1604 61.1576 35.1918 61.094L35.2391 60.9987C35.2391 60.9987 35.2548 60.8557 35.2391 60.7922L35.0974 59.9979C35.0974 59.9979 35.0659 59.9025 35.0345 59.8549C35.003 59.8072 34.9715 59.7755 34.9243 59.7596C34.8771 59.7278 34.8299 59.7119 34.7826 59.7119C34.7354 59.7119 34.6725 59.7119 34.6253 59.7119L34.5308 59.7596C34.5308 59.7596 34.4207 59.839 34.3892 59.9026L34.342 59.9979C34.342 59.9979 34.3262 60.1408 34.342 60.2044Z" fill="#231F20"/>
<path d="M40.244 59.7279C40.2125 59.8391 40.1968 59.9503 40.1968 60.0615C40.1968 60.1409 40.1968 60.2204 40.1968 60.3157C40.1968 60.4269 40.2283 60.5381 40.2597 60.6493C40.2912 60.7605 40.3384 60.8717 40.3856 60.967C40.4171 61.0147 40.4486 61.0464 40.4801 61.0782C40.5116 61.11 40.5588 61.1417 40.6217 61.1417C40.6689 61.1576 40.7319 61.1576 40.7791 61.1417C40.8263 61.1417 40.8735 61.1259 40.9208 61.0941C40.9995 61.0464 41.0781 60.9511 41.0939 60.8558V60.7446C41.0939 60.7446 41.0939 60.6016 41.0467 60.5381C41.0467 60.5222 41.0309 60.5063 41.0152 60.4745L41.0624 60.5698C41.0152 60.4586 40.9837 60.3474 40.968 60.2204V60.3316C40.968 60.2045 40.968 60.0933 40.968 59.9662V60.0774C40.968 60.0774 40.968 59.9662 40.9837 59.9185C40.9995 59.8709 40.9995 59.8073 40.9837 59.7597C40.9837 59.712 40.968 59.6643 40.9365 59.6167C40.905 59.569 40.8735 59.5372 40.8421 59.5055C40.8106 59.4737 40.7634 59.4419 40.7004 59.4419C40.606 59.426 40.4801 59.426 40.4014 59.4896C40.3227 59.5531 40.244 59.6326 40.2283 59.7279H40.244Z" fill="#231F20"/>
<path d="M41.5345 60.0616C41.5345 60.0616 41.5502 60.1569 41.566 60.1887V60.0775C41.566 60.2046 41.566 60.3316 41.566 60.4428V60.3316C41.566 60.4587 41.5345 60.5699 41.4873 60.6811L41.5345 60.5858C41.5345 60.5858 41.5188 60.6335 41.503 60.6494C41.4716 60.697 41.4558 60.7447 41.4558 60.7923C41.4558 60.84 41.4558 60.9035 41.4558 60.9512C41.4558 60.9989 41.4873 61.0465 41.5188 61.0942C41.5502 61.1418 41.5817 61.1736 41.6289 61.1895C41.7234 61.2371 41.8335 61.2689 41.928 61.2372C42.0224 61.2054 42.1168 61.1418 42.1641 61.0624C42.2113 60.9671 42.2585 60.8559 42.29 60.7447C42.3214 60.6335 42.3372 60.5223 42.3529 60.4111C42.3529 60.3316 42.3529 60.2522 42.3529 60.1728C42.3529 60.0616 42.3372 59.9504 42.3057 59.8392C42.3057 59.7915 42.2742 59.7439 42.2427 59.6962C42.2113 59.6485 42.1798 59.6168 42.1326 59.6009C42.0854 59.5691 42.0381 59.5532 41.9909 59.5532C41.9437 59.5532 41.8808 59.5532 41.8335 59.5532C41.7391 59.585 41.6447 59.6485 41.5975 59.728L41.5502 59.8233C41.5502 59.8233 41.5345 59.9663 41.5502 60.0298L41.5345 60.0616Z" fill="#231F20"/>
<path d="M32.6579 38.8216C30.1554 39.6794 27.7946 41.268 26.4096 43.5874C25.9059 44.4453 25.544 45.3984 25.481 46.3993C25.4023 47.6384 25.8587 48.9569 26.4883 49.9895C27.3067 51.3081 28.5658 52.3407 30.0767 52.6743C30.8164 52.8331 31.1312 51.6893 30.3915 51.5305C28.2353 51.0539 26.6142 48.7822 26.6457 46.574C26.6457 46.1927 26.6929 45.9544 26.8188 45.5255C26.9447 45.0966 27.0863 44.7948 27.3067 44.3817C27.8103 43.4762 28.4871 42.7137 29.274 42.0465C30.3443 41.1251 31.6348 40.442 32.9726 39.9813C33.6809 39.743 33.3818 38.5833 32.6579 38.8375V38.8216Z" fill="#231F20"/>
<path d="M30.5174 49.7196C30.423 50.7681 31.2414 51.6895 32.1228 52.1343C32.6107 52.3726 33.1301 52.5315 33.6494 52.7062C33.7754 52.738 33.8855 52.7856 34.0114 52.8333C34.0744 52.8492 34.1216 52.881 34.1688 52.8968C34.2003 52.8968 34.216 52.9127 34.2475 52.9286C34.3105 52.9604 34.1216 52.8651 34.2475 52.9286C34.4521 53.0239 34.641 53.1193 34.8141 53.2463C34.8298 53.2463 34.8613 53.2781 34.8771 53.294C34.8928 53.294 34.9715 53.3734 34.9085 53.3099C34.94 53.3258 34.9715 53.3575 34.9872 53.3893C35.0659 53.4687 35.1446 53.5482 35.2233 53.6435C35.2863 53.7229 35.2076 53.6117 35.1918 53.6117C35.1918 53.6435 35.2391 53.6753 35.2548 53.707C35.2863 53.7547 35.3177 53.8024 35.3492 53.8659C35.3492 53.8818 35.365 53.9136 35.3807 53.9294C35.4279 54.0248 35.3492 53.8341 35.3807 53.8977C35.3964 53.9612 35.4279 54.0248 35.4437 54.0883C35.5223 54.3901 35.8686 54.5967 36.1676 54.5013C36.4667 54.406 36.6555 54.0883 36.5768 53.7706C36.325 52.7539 35.4122 52.1343 34.4993 51.7689C34.0272 51.5783 33.555 51.4671 33.0828 51.2923C33.0356 51.2765 32.9727 51.2447 32.9255 51.2288C32.8153 51.1812 32.9412 51.2288 32.9412 51.2288C32.9412 51.2288 32.8782 51.197 32.8625 51.197C32.7523 51.1494 32.6264 51.0858 32.5162 51.0223C32.4376 50.9746 32.3431 50.9111 32.2644 50.8634C32.17 50.7999 32.2959 50.8793 32.2959 50.8793C32.2959 50.8793 32.233 50.8317 32.2172 50.8158C32.17 50.784 32.1385 50.7363 32.0913 50.7046C32.0441 50.6569 31.9969 50.6092 31.9654 50.5616C31.9654 50.5457 31.9339 50.5139 31.9182 50.498C32.0126 50.5934 31.9497 50.5457 31.9182 50.498C31.8552 50.4027 31.808 50.3074 31.7451 50.2121C31.6821 50.1009 31.7765 50.3233 31.7451 50.2439C31.7451 50.2121 31.7293 50.1803 31.7136 50.1644C31.6978 50.1009 31.6821 50.0532 31.6664 49.9897C31.6506 49.9261 31.6821 49.942 31.6664 50.0373C31.6664 50.0056 31.6664 49.9579 31.6664 49.9261C31.6664 49.8626 31.6664 49.7991 31.6664 49.7355C31.6978 49.4178 31.3831 49.1318 31.0683 49.1318C30.722 49.1318 30.5017 49.4019 30.4702 49.7355L30.5174 49.7196Z" fill="#231F20"/>
<path d="M38.8431 54.8668C39.0162 54.6444 39.2208 54.4378 39.4254 54.2472C39.4727 54.1996 39.5356 54.1519 39.5828 54.1042C39.6143 54.0883 39.6458 54.0566 39.6615 54.0407C39.7717 53.9613 39.8976 53.8818 40.0078 53.8024C40.2439 53.6435 40.4957 53.5164 40.7475 53.3894C40.8734 53.3258 40.9836 53.2782 41.1095 53.2146C41.1724 53.1828 41.2354 53.1511 41.3141 53.1193C41.3928 53.0875 41.2354 53.1511 41.3141 53.1193C41.3613 53.1034 41.3928 53.0875 41.44 53.0716C42.6047 52.5951 43.9425 52.3091 44.9025 51.4354C45.4534 50.927 45.8154 50.228 45.8311 49.4655C45.8311 49.1478 45.5636 48.8618 45.233 48.8618C44.9025 48.8618 44.6507 49.116 44.635 49.4655C44.635 49.4973 44.6192 49.7038 44.635 49.5767C44.635 49.6402 44.6192 49.7038 44.6035 49.7514C44.5878 49.7991 44.572 49.8626 44.5405 49.9262C44.5405 49.958 44.5091 50.0374 44.5405 49.9262C44.5248 49.9738 44.5091 50.0056 44.4776 50.0533C44.4461 50.1009 44.4146 50.1645 44.3831 50.2121C44.3674 50.2439 44.3359 50.2757 44.3202 50.3075C44.3831 50.228 44.3202 50.2916 44.3202 50.3075C44.2258 50.4187 44.1313 50.5299 44.0212 50.6252C43.9897 50.6411 43.9739 50.6728 43.9425 50.6887C43.8795 50.7364 43.8323 50.7682 43.7693 50.7999C43.6434 50.8794 43.5018 50.9588 43.3601 51.0382C43.2814 51.07 43.2185 51.1018 43.1398 51.1335C43.1083 51.1494 43.0611 51.1653 43.0296 51.1812C42.888 51.2447 42.7306 51.2924 42.5732 51.3559C41.503 51.7531 40.4013 52.1185 39.4254 52.738C38.8746 53.0875 38.3552 53.5006 37.9617 54.0089C37.7729 54.2472 37.7099 54.6126 37.9617 54.8509C38.1821 55.0574 38.5913 55.1051 38.7959 54.8509L38.8431 54.8668Z" fill="#231F20"/>
<path d="M46.6497 51.2447C48.5383 49.9421 50.3168 47.9245 50.2538 45.4781C50.1909 43.0316 48.318 41.0776 46.2247 40.0609C44.8869 39.4096 43.4547 39.0283 42.0225 38.6788C41.2828 38.4882 40.968 39.6479 41.7077 39.8226C43.8324 40.3627 46.1303 40.9188 47.7042 42.555C48.3809 43.254 48.9003 44.1436 49.0419 45.1286C49.1836 46.1135 48.9003 47.0031 48.4281 47.7974C47.8458 48.7824 46.9959 49.5767 46.0516 50.2121C45.784 50.3869 45.6739 50.7364 45.847 51.0223C46.0044 51.2924 46.3821 51.4195 46.6497 51.2288V51.2447Z" fill="#231F20"/>
<path d="M26.5827 51.2604C26.2365 54.1517 26.4411 57.3448 28.5658 59.553C29.0694 60.0772 29.6675 60.522 30.3443 60.808C30.6433 60.9351 30.9738 60.9033 31.1469 60.6014C31.2886 60.3473 31.2256 59.9183 30.9423 59.7913C29.8721 59.3306 29.1009 58.5521 28.55 57.5354C27.9362 56.4234 27.6687 55.1048 27.6372 53.7863C27.6215 52.9443 27.6844 52.1024 27.7788 51.2604C27.8103 50.9427 27.4798 50.6567 27.1808 50.6567C26.8345 50.6567 26.6299 50.9268 26.5827 51.2604Z" fill="#231F20"/>
<path d="M45.296 60.6971C46.7912 60.4588 47.9716 59.3944 48.5382 58.0123C48.8057 57.3451 48.9631 56.6461 49.0575 55.9312C49.1677 55.1687 49.2307 54.4062 49.1834 53.6436C49.1205 52.754 48.9159 51.8962 48.5067 51.1177C48.3493 50.8318 47.9716 50.7524 47.704 50.9112C47.4207 51.086 47.342 51.4355 47.4994 51.7214C48.0975 52.8493 48.1132 54.1838 47.9558 55.4546C47.8142 56.6143 47.5309 57.9329 46.681 58.759C46.2246 59.2038 45.658 59.4579 44.9969 59.5533C44.6822 59.6009 44.509 59.9981 44.5877 60.284C44.6822 60.6176 44.9969 60.7447 45.3117 60.6971H45.296Z" fill="#231F20"/>
<path d="M19.8779 17.9319C19.8149 20.9026 20.2242 23.8892 21.0898 26.7328C21.4833 28.0354 21.8295 29.0839 21.2944 30.3707C20.5861 32.0546 19.7048 33.6909 18.9021 35.3272C19.5631 35.5813 20.3028 35.9308 20.5075 36.6139C20.7121 37.3129 20.2714 38.0755 20.4445 38.7744C20.6019 39.394 21.2629 39.8229 21.8767 39.7276C21.8767 40.3948 21.6879 41.0462 21.6721 41.7134C21.6564 42.3806 21.8925 43.1272 22.4748 43.4132C23.0571 43.6991 23.9542 43.2067 23.8126 42.5712C24.0015 44.0645 25.3078 45.1924 26.7243 45.6849C28.1407 46.1774 29.6517 46.1774 31.1468 46.3203C33.7437 46.5745 36.3091 47.2735 38.6542 48.4014C38.9533 48.5444 39.2523 48.7033 39.5828 48.7192C39.8661 48.7192 40.1494 48.6397 40.417 48.5285C41.676 48.036 42.7778 47.2417 44.0054 46.6698C45.5793 45.9232 47.3105 45.526 48.9159 44.8588C50.5212 44.1916 52.0951 43.1431 52.8348 41.5386C52.583 41.8246 52.945 42.3012 53.3227 42.2853C53.7004 42.2694 53.9995 41.9676 54.267 41.6816C55.0225 40.8396 55.5734 39.95 56.2029 39.0286C56.5492 39.1716 56.9111 39.3305 57.2731 39.3146C57.6351 39.2987 58.0286 39.0445 58.0916 38.6791C58.123 38.4408 58.0129 38.2025 57.9184 37.996C57.4305 36.9634 56.9741 35.8991 56.4547 34.8823C56.4075 34.787 55.4632 32.9601 55.6678 32.9919C56.439 33.0872 57.2417 32.7218 57.6666 32.0864C57.761 31.9593 55.3687 29.3699 55.2586 28.9251C55.0068 27.8766 55.9196 26.1609 56.2186 25.1759C57.1787 22.0623 57.525 18.6944 56.8482 15.5013C56.6436 14.5164 56.2973 13.4838 55.4947 12.8801C54.2041 11.8951 53.1653 13.0072 52.0794 13.6426C50.3796 14.6434 48.8687 15.9938 47.6725 17.5665C47.279 18.0907 46.8856 18.6785 46.2718 18.9168C45.6894 19.1551 45.0284 19.028 44.4146 18.9168C42.2269 18.5514 39.992 18.4084 37.7728 18.5038C36.2304 18.5673 33.3975 18.3449 31.9967 18.9645C31.8236 19.0439 31.6505 19.1392 31.4616 19.1074C31.2413 19.0757 31.0839 18.885 30.9422 18.7262C28.9119 16.1844 26.6141 13.6585 23.5608 12.5624C20.5547 11.4662 19.8464 15.7872 19.7992 17.9636L19.8779 17.9319Z" fill="white"/>
<path d="M21.4991 28.4324C21.4991 28.4324 21.4991 28.5277 21.4991 28.5753C22.6795 26.3036 24.0488 24.0319 25.9846 22.3162C26.9762 21.4266 28.0936 20.7117 29.3213 20.2192C30.1082 19.9015 31.2099 19.8062 31.7922 19.2184C30.423 18.6465 29.3842 16.6766 28.314 15.644C26.9604 14.3255 25.4338 13.1817 23.6553 12.5462C20.6492 11.4501 19.941 15.7711 19.8938 17.9475C19.8308 20.9182 20.24 23.9048 21.1056 26.7484C21.2788 27.3044 21.4676 27.8763 21.5148 28.4482L21.4991 28.4324Z" fill="#5C564D"/>
<path d="M46.3506 19.0277C46.2562 19.1866 46.1932 19.3454 46.146 19.5361C47.8458 20.378 50.3325 20.9658 51.6231 22.3479C52.41 23.174 52.835 24.2225 53.4645 25.1598C54.0468 26.0335 54.818 26.8755 55.5263 27.7333C55.7309 26.8596 56.0142 25.9858 56.2817 25.128C57.2418 22.0143 57.5881 18.6464 56.9113 15.4533C56.7067 14.4684 56.3604 13.4358 55.5578 12.8321C54.2672 11.8472 53.2284 12.9592 52.1425 13.5947C50.4427 14.5955 48.9318 15.9458 47.7356 17.5185C47.3264 18.0745 46.6811 18.4558 46.3349 19.0277H46.3506Z" fill="#5C564D"/>
<path d="M52.2525 23.6349C52.8191 24.2545 53.3542 24.9217 53.7949 25.6366C54.2198 24.2068 54.3615 22.6817 54.4087 21.2202C54.4559 19.711 54.4087 18.1383 54.0782 16.645C53.244 16.9627 52.4571 17.4234 51.6859 17.9795C51.3868 18.186 51.198 18.3448 50.8989 18.6149C50.6314 18.8532 50.3796 19.1074 50.1435 19.3933C50.0805 19.4569 50.0333 19.5204 49.9861 19.5839C50.0805 19.4727 49.9231 19.6634 49.9231 19.6793C49.8287 19.8064 49.75 19.9493 49.6713 20.0764C49.6084 20.1876 49.5454 20.3147 49.4825 20.4418C49.4825 20.4736 49.451 20.5053 49.451 20.5371C49.4352 20.6007 49.4038 20.6642 49.388 20.7436C49.3723 20.8072 49.3408 20.8548 49.3093 20.9025C50.3481 21.7603 51.3554 22.65 52.2682 23.6508L52.2525 23.6349Z" fill="#AA968A"/>
<path d="M27.8102 21.0133C27.8102 21.0133 27.8102 20.9974 27.8102 20.9815C27.8102 20.9815 27.8102 20.9815 27.8102 20.9656C27.7473 20.8386 27.6686 20.7115 27.6056 20.6003C27.5427 20.4891 27.464 20.3779 27.3853 20.2667C27.3695 20.2349 27.3538 20.219 27.3223 20.1872C27.2908 20.1396 27.2594 20.0919 27.2121 20.0601C27.0233 19.8218 26.8029 19.5836 26.5983 19.3611C26.1262 18.8687 25.6225 18.408 25.0874 17.9791C25.0874 17.9791 25.0559 17.9632 25.0559 17.9473C25.0717 17.9473 25.0559 17.9473 25.0087 17.9155C24.9458 17.8679 24.8671 17.8043 24.8041 17.7567C24.6939 17.6772 24.568 17.5819 24.4421 17.5025C24.1903 17.3277 23.9385 17.1689 23.6867 17.0259C23.5765 16.9623 23.4663 16.8988 23.3404 16.8511C23.3247 16.8511 23.2932 16.8353 23.2775 16.8194C23.246 16.8194 23.2145 16.7876 23.1988 16.7876C22.7423 18.3127 22.6479 19.9648 22.7266 21.5217C22.8053 22.8879 23.0099 24.3017 23.4348 25.6362C24.7569 23.9363 26.2206 22.3795 27.8732 21.1086C27.8732 21.0768 27.8574 21.061 27.8417 21.0292L27.8102 21.0133Z" fill="#AA968A"/>
<path d="M38.6542 42.1582C45.4603 42.1582 50.9777 38.0756 50.9777 33.0395C50.9777 28.0034 45.4603 23.9209 38.6542 23.9209C31.8482 23.9209 26.3308 28.0034 26.3308 33.0395C26.3308 38.0756 31.8482 42.1582 38.6542 42.1582Z" fill="url(#paint0_radial_188_2885)"/>
<path d="M31.3358 34.39C32.6657 34.39 33.7438 33.3018 33.7438 31.9594C33.7438 30.617 32.6657 29.5288 31.3358 29.5288C30.0058 29.5288 28.9277 30.617 28.9277 31.9594C28.9277 33.3018 30.0058 34.39 31.3358 34.39Z" fill="#2CC5F4"/>
<path d="M45.9884 34.4374C47.3444 34.4374 48.4437 33.3279 48.4437 31.9592C48.4437 30.5905 47.3444 29.481 45.9884 29.481C44.6325 29.481 43.5332 30.5905 43.5332 31.9592C43.5332 33.3279 44.6325 34.4374 45.9884 34.4374Z" fill="#2CC5F4"/>
<path d="M31.3359 33.516C32.1877 33.516 32.8783 32.819 32.8783 31.9592C32.8783 31.0994 32.1877 30.4023 31.3359 30.4023C30.484 30.4023 29.7935 31.0994 29.7935 31.9592C29.7935 32.819 30.484 33.516 31.3359 33.516Z" fill="#231F20"/>
<path d="M45.9884 33.516C46.8403 33.516 47.5308 32.819 47.5308 31.9592C47.5308 31.0994 46.8403 30.4023 45.9884 30.4023C45.1366 30.4023 44.446 31.0994 44.446 31.9592C44.446 32.819 45.1366 33.516 45.9884 33.516Z" fill="#231F20"/>
<path d="M38.2607 34.6122C39.0257 34.6122 39.6458 34.221 39.6458 33.7385C39.6458 33.2559 39.0257 32.8647 38.2607 32.8647C37.4958 32.8647 36.8757 33.2559 36.8757 33.7385C36.8757 34.221 37.4958 34.6122 38.2607 34.6122Z" fill="#231F20"/>
<path d="M29.211 20.8072C34.7825 18.5038 41.078 18.3131 46.7911 20.2989C47.5151 20.5531 47.8142 19.3934 47.1059 19.1551C41.2354 17.1058 34.6566 17.2805 28.9119 19.6634C28.6129 19.7905 28.4083 20.0606 28.5027 20.3942C28.5814 20.6801 28.9277 20.9343 29.2267 20.8072H29.211Z" fill="#231F20"/>
<path d="M22.412 12.9911C24.9617 14.1031 27.3068 15.6441 29.3056 17.5822C29.8722 18.1382 30.423 18.726 30.9424 19.3297C31.147 19.5679 31.572 19.5521 31.7766 19.3297C32.0127 19.0914 31.9812 18.726 31.7766 18.4877C29.9194 16.2954 27.6688 14.4367 25.182 13.0388C24.4738 12.6416 23.7498 12.2762 23.0101 11.9585C22.7111 11.8314 22.3806 11.8632 22.2074 12.165C22.0658 12.4192 22.1287 12.8481 22.412 12.9752V12.9911Z" fill="#231F20"/>
<path d="M20.539 13.2609C18.7762 18.1061 18.9808 23.5392 20.9954 28.2574C21.1213 28.5592 21.5462 28.6227 21.798 28.4639C22.0971 28.2891 22.1443 27.9396 22.0027 27.6537C20.114 23.2215 20.0196 18.0902 21.6564 13.5786C21.924 12.8637 20.775 12.546 20.5232 13.2609H20.539Z" fill="#231F20"/>
<path d="M23.3091 17.3755C23.6239 17.5502 23.9229 17.7409 24.222 17.9474C24.3007 17.9951 24.3636 18.0586 24.4423 18.1063C24.5053 18.1539 24.3479 18.0268 24.3951 18.0745C24.4108 18.0745 24.4266 18.1063 24.4423 18.1063C24.4738 18.138 24.521 18.1698 24.5525 18.2016C24.6941 18.3128 24.8201 18.4399 24.9617 18.5511C25.2293 18.7894 25.4653 19.0594 25.7014 19.3295C25.7329 19.3613 25.7644 19.4089 25.7959 19.4407C25.7959 19.4566 25.906 19.5837 25.8431 19.4883C25.7801 19.393 25.8746 19.5201 25.8903 19.536C25.9218 19.5837 25.9532 19.6154 25.9847 19.6631C26.0949 19.8061 26.1893 19.9649 26.2838 20.1079C26.5041 20.4574 26.693 20.8069 26.8504 21.1882C26.9133 21.3152 27.0707 21.4265 27.1966 21.4582C27.3383 21.49 27.5271 21.4741 27.653 21.3947C27.7789 21.3152 27.8891 21.1882 27.9206 21.0452C27.9521 20.8863 27.9206 20.7433 27.8576 20.5845C27.2281 19.1547 26.2208 17.9315 24.9774 16.9942C24.6469 16.74 24.3007 16.5176 23.9229 16.327C23.6554 16.184 23.2619 16.2476 23.1203 16.5335C22.9786 16.8036 23.0416 17.1849 23.3249 17.3437L23.3091 17.3755Z" fill="#231F20"/>
<path d="M21.8296 38.552C21.3102 39.9976 21.2158 41.7451 21.5935 43.2384C21.688 43.6355 21.8926 44.0168 22.2703 44.2074C22.648 44.3981 23.0887 44.3663 23.4664 44.2074C24.2691 43.842 24.4265 42.9524 24.5209 42.1422H23.3405C23.5766 44.3186 25.3393 45.796 27.3224 46.3838C29.5888 47.0669 32.0126 46.7333 34.2789 47.337C35.0187 47.5276 35.3334 46.3838 34.5937 46.1932C32.4847 45.6372 30.2656 45.8755 28.1566 45.383C26.567 45.0017 24.7098 43.9691 24.5209 42.1422C24.4422 41.3797 23.4192 41.3797 23.3405 42.1422C23.309 42.4282 23.2776 43.1589 22.8684 43.1589C22.8211 43.1589 22.8054 43.143 22.8211 43.1589C22.7739 43.1113 22.7739 42.9842 22.7582 42.9365C22.6952 42.6982 22.6638 42.4441 22.6323 42.1899C22.5221 41.0779 22.6323 39.9341 22.9943 38.8856C23.1044 38.5837 22.8684 38.2342 22.5851 38.1548C22.2546 38.0595 21.9713 38.266 21.8611 38.5678L21.8296 38.552Z" fill="#231F20"/>
<path d="M24.395 23.6822C22.9313 25.3026 21.8926 27.2407 21.1843 29.3059C20.8223 30.3544 20.5233 31.4188 19.9882 32.3878C19.4531 33.3569 18.7606 34.2147 18.1153 35.1202C17.9894 35.295 18.0208 35.5492 18.1153 35.7239C18.5874 36.6612 19.7521 37.1378 20.7279 36.7565L19.9882 36.1846C19.8938 37.1696 19.9095 38.1704 20.0354 39.1553C20.0826 39.473 20.2715 39.759 20.6335 39.759C20.9168 39.759 21.263 39.4889 21.2315 39.1553C21.1056 38.1704 21.0899 37.1696 21.1843 36.1846C21.2158 35.8192 20.7751 35.4856 20.4446 35.6127C19.941 35.8033 19.4058 35.6127 19.1698 35.1202V35.7239C19.7836 34.8661 20.4446 34.0241 20.9797 33.1186C21.5306 32.1495 21.8926 31.0852 22.2388 30.0367C22.8998 28.0191 23.8599 26.1287 25.2764 24.5401C25.78 23.9682 24.9459 23.1262 24.4422 23.6981L24.395 23.6822Z" fill="#231F20"/>
<path d="M46.5551 19.4885C47.405 18.6465 48.2077 17.7569 49.0733 16.9149C49.7658 16.2477 50.5055 15.6599 51.2453 15.0721C51.9063 14.5638 52.5673 14.0554 53.2756 13.6106C53.5746 13.42 53.9051 13.2293 54.2356 13.1181C54.3143 13.0864 54.393 13.0705 54.4874 13.0387C54.5819 13.0069 54.5661 13.0228 54.5819 13.0228C54.7707 13.0228 54.7393 13.0228 54.8809 13.0546C54.9753 13.0864 54.9281 13.0546 54.9439 13.0705C54.9911 13.0864 55.0383 13.1181 55.0855 13.1499C55.1642 13.1976 55.2114 13.2452 55.3216 13.3564C55.4632 13.5153 55.6049 13.7536 55.7151 14.0078C55.9826 14.5797 56.14 15.2945 56.2344 15.9459C56.4391 17.185 56.4705 18.4718 56.4863 19.7268C56.5177 22.4433 56.0613 25.1598 54.9911 27.6698C54.8652 27.9716 54.9124 28.3053 55.1957 28.48C55.4475 28.623 55.8725 28.5594 55.9984 28.2735C57.6509 24.4132 57.9972 20.108 57.4149 15.9776C57.226 14.6591 56.8797 12.8798 55.6364 12.1332C54.1727 11.2436 52.3785 12.721 51.2453 13.5788C50.3796 14.2302 49.5927 14.8179 48.79 15.5487C47.7041 16.5336 46.7283 17.6457 45.6738 18.6783C45.1229 19.2184 45.9571 20.0604 46.5079 19.5202L46.5551 19.4885Z" fill="#231F20"/>
<path d="M53.1498 16.3431C51.7962 17.0738 50.6316 18.1859 49.8132 19.5044C49.5928 19.8539 49.4039 20.2352 49.2308 20.6164C49.1679 20.7753 49.1206 20.9024 49.1679 21.0771C49.1993 21.2201 49.3095 21.3631 49.4354 21.4266C49.5771 21.5061 49.7345 21.5378 49.8918 21.4902C50.0335 21.4425 50.1909 21.3472 50.2381 21.2201C50.3797 20.8865 50.5529 20.5688 50.726 20.267C50.8204 20.1081 50.9149 19.9651 51.0093 19.8063C51.0565 19.7268 51.1195 19.6633 51.1667 19.5838C51.1982 19.5521 51.2139 19.5203 51.2454 19.4885C51.2926 19.425 51.1667 19.5838 51.2139 19.5362C51.2296 19.5203 51.2454 19.4885 51.2611 19.4726C51.4815 19.1867 51.7175 18.9166 51.9851 18.6783C52.111 18.5513 52.2527 18.4242 52.3943 18.2971C52.4573 18.2494 52.5202 18.1859 52.5832 18.1382C52.5989 18.1382 52.7248 18.027 52.6304 18.0906C52.6146 18.0906 52.5517 18.1541 52.6304 18.0906C52.6619 18.0747 52.6776 18.0588 52.7091 18.027C53.0396 17.7887 53.3701 17.5663 53.7321 17.3757C53.9997 17.2327 54.1098 16.8197 53.9367 16.5655C53.7636 16.2795 53.4173 16.2001 53.134 16.359L53.1498 16.3431Z" fill="#231F20"/>
<path d="M52.4099 41.1729C52.284 41.443 52.1423 41.6813 51.9692 41.9196C51.9692 41.9196 51.9062 41.999 51.9534 41.9513C52.0007 41.9037 51.922 41.9831 51.922 41.999C51.8747 42.0466 51.8433 42.0943 51.7961 42.142C51.7016 42.2532 51.5914 42.3644 51.4813 42.4756C51.3868 42.5709 51.2767 42.6662 51.1822 42.7456C51.1193 42.7933 51.0721 42.841 51.0091 42.8886C51.0878 42.8251 50.9304 42.9363 50.9147 42.968C50.6786 43.1428 50.4268 43.3016 50.1592 43.4605C49.8917 43.6194 49.6398 43.7465 49.3723 43.8577C49.3093 43.8894 49.2464 43.9053 49.1834 43.9371C49.1677 43.9371 48.9631 44.0324 49.0575 43.9848C48.9159 44.0483 48.7742 44.096 48.6326 44.1595C48.0974 44.366 47.5466 44.5408 46.9957 44.6837C46.6023 44.7949 46.2245 44.9379 45.8468 45.1286C45.4691 45.3192 45.1543 45.4939 44.7923 45.6051C44.4933 45.7005 44.2887 46.0182 44.3831 46.3359C44.4618 46.6377 44.8081 46.8443 45.1071 46.7489C45.8311 46.5106 46.4606 46.0658 47.1689 45.8752C47.7355 45.7163 48.3021 45.5416 48.8529 45.3351C50.049 44.8903 51.2137 44.3025 52.1738 43.4446C52.6932 42.968 53.1338 42.412 53.4329 41.7766C53.5745 41.4906 53.5116 41.1253 53.2283 40.9664C52.9765 40.8075 52.5515 40.887 52.4256 41.1729H52.4099Z" fill="#231F20"/>
<path d="M54.8338 33.4206C54.8967 34.0084 55.2745 34.4691 55.605 34.9457C55.9355 35.4223 56.2188 35.8829 56.5021 36.3595C56.6595 36.6137 56.8011 36.8838 56.927 37.138C56.99 37.265 57.0529 37.3762 57.1002 37.5033C57.1159 37.5351 57.1946 37.7099 57.1316 37.5828C57.1631 37.6463 57.1946 37.7257 57.2103 37.7893C57.2418 37.9005 57.289 37.9958 57.3205 38.107C57.3205 38.1547 57.352 38.2023 57.352 38.2659C57.352 38.2976 57.352 38.3135 57.352 38.3453C57.3834 38.4565 57.352 38.2341 57.352 38.3135C57.352 38.3612 57.352 38.4088 57.352 38.4565C57.352 38.4724 57.352 38.5042 57.352 38.52C57.352 38.6154 57.3362 38.4088 57.352 38.4565C57.352 38.4724 57.3362 38.5518 57.3205 38.5677C57.3205 38.5995 57.2575 38.7266 57.352 38.5042C57.352 38.52 57.3362 38.5518 57.3205 38.5677C57.3677 38.5042 57.289 38.5995 57.3205 38.5677C57.289 38.6154 57.3677 38.52 57.289 38.5995C57.1946 38.6948 57.3205 38.5995 57.2575 38.6154C57.2103 38.6312 57.1631 38.6471 57.1159 38.6471C57.2103 38.6312 57.1159 38.6471 57.1002 38.6471C57.0372 38.6471 56.99 38.6471 56.927 38.6471C57.0529 38.663 56.7696 38.5836 56.8169 38.6154C56.6909 38.5677 56.5336 38.4406 56.4076 38.2976C56.2503 38.1388 56.1558 37.9958 56.0299 37.8052C55.8568 37.5669 55.5735 37.4398 55.2902 37.5669C55.0069 37.694 54.9125 37.964 54.9439 38.2659C54.9125 38.107 54.9439 38.3294 54.9439 38.3771C54.9439 38.4565 54.9439 38.5359 54.9439 38.6154C54.9439 38.663 54.9439 38.7266 54.9439 38.7742C54.9439 38.7266 54.9439 38.7107 54.9439 38.7742C54.9282 38.8695 54.9125 38.9649 54.8967 39.0443C54.818 39.4256 54.6606 39.8704 54.5347 40.1881C54.4088 40.5058 54.1885 40.903 53.9839 41.2366C53.9367 41.316 53.8737 41.3954 53.8265 41.4749C53.795 41.5066 53.7793 41.5543 53.7478 41.5861C53.795 41.5225 53.7478 41.5861 53.7321 41.602C53.6219 41.729 53.5117 41.8561 53.3858 41.9514C53.1497 42.158 53.1655 42.571 53.3858 42.7934C53.6219 43.0317 53.9839 42.9999 54.22 42.7934C54.881 42.2056 55.3217 41.3478 55.6522 40.5376C55.9827 39.7274 56.2345 38.8219 56.1086 37.9323L55.0226 38.393C55.5892 39.2031 56.329 39.9816 57.3992 39.7909C58.1389 39.6638 58.6111 39.0125 58.5481 38.2818C58.4852 37.6463 58.2176 37.0585 57.9343 36.5025C57.651 35.9465 57.289 35.3746 56.9428 34.8186C56.7696 34.5644 56.6122 34.3102 56.4391 34.056C56.3762 33.9607 56.2975 33.8654 56.2345 33.7542C56.1716 33.643 56.0142 33.4683 55.9984 33.3888C55.967 33.0711 55.7466 32.7852 55.4004 32.7852C55.1171 32.7852 54.7708 33.0552 54.8023 33.3888L54.8338 33.4206Z" fill="#231F20"/>
<path d="M51.8119 24.5243C52.6932 25.4933 53.3543 26.6212 53.9366 27.8127C54.2199 28.4005 54.4717 29.0042 54.8179 29.5602C55.1642 30.1162 55.5577 30.6087 55.9984 31.0535C56.5177 31.5618 57.1001 31.9908 57.7296 32.3403L57.525 31.5301C57.525 31.5301 57.4463 31.673 57.3991 31.7366C57.4463 31.673 57.3362 31.8001 57.3362 31.8001C57.226 31.9272 57.2102 31.9272 57.0686 32.0066C56.864 32.1178 56.6909 32.1496 56.4076 32.1178C56.0928 32.0861 55.8095 32.4197 55.8095 32.7215C55.8095 33.071 56.0771 33.2934 56.4076 33.3252C57.2732 33.4046 58.1546 32.8963 58.548 32.1337C58.6897 31.8478 58.6267 31.4824 58.3434 31.3235C57.3204 30.7516 56.4705 29.9573 55.8567 28.9724C55.5262 28.4323 55.2901 27.8445 55.0226 27.2885C54.755 26.7325 54.4245 26.1129 54.0782 25.5569C53.669 24.8897 53.1969 24.2701 52.6775 23.6982C52.4571 23.4599 52.0637 23.4758 51.8433 23.6982C51.6072 23.9365 51.623 24.3019 51.8433 24.5402L51.8119 24.5243Z" fill="#231F20"/>
<defs>
<radialGradient id="paint0_radial_188_2885" cx="0" cy="0" r="1" gradientUnits="userSpaceOnUse" gradientTransform="translate(38.9585 33.6766) scale(12.2935 9.179)">
<stop stop-color="#5C564D"/>
<stop offset="0.25" stop-color="#5E584F"/>
<stop offset="0.4" stop-color="#666058"/>
<stop offset="0.53" stop-color="#736E66"/>
<stop offset="0.64" stop-color="#86817B"/>
<stop offset="0.74" stop-color="#9E9B95"/>
<stop offset="0.84" stop-color="#BCBAB6"/>
<stop offset="0.93" stop-color="#DFDEDC"/>
<stop offset="1" stop-color="white"/>
</radialGradient>
</defs>
</svg>
