<svg width="80" height="77" viewBox="0 0 80 77" fill="none" xmlns="http://www.w3.org/2000/svg">
<path d="M52.2842 55.8558C52.8508 54.5373 52.8665 53.044 53.1656 51.6301C53.685 49.2313 55.1644 46.8166 57.4308 45.7523C58.5954 45.1963 59.9805 45.1168 61.2553 45.2439C62.9708 45.4187 63.1282 45.4028 62.5459 46.7531C61.7275 48.6118 61.5386 50.3116 61.3655 52.345C61.2081 54.156 60.7989 56.11 59.4453 57.3174C58.6112 58.064 57.4937 58.4294 56.6911 59.2237C56.3448 59.5732 56.0615 59.9862 55.7153 60.3357C53.9525 62.0832 50.5687 61.5907 48.9319 59.8591C47.8774 58.7471 47.9403 58.2229 49.1207 57.8575C50.5687 57.4127 51.5602 57.6192 52.3157 55.8558H52.2842Z" fill="#5C564D"/>
<path d="M50.4583 61.272C50.7888 61.6533 51.2767 61.9075 51.7646 62.0028C52.3312 62.114 52.8978 62.0664 53.4644 61.9393C53.7634 61.8598 54.0467 61.7804 54.3457 61.6851C54.4874 61.6374 54.6133 61.5421 54.692 61.415C54.7707 61.2879 54.8022 61.0973 54.755 60.9543C54.6605 60.6525 54.3458 60.4301 54.031 60.5413C53.5903 60.6843 53.1496 60.8272 52.6932 60.8908H52.8506C52.5988 60.8908 52.3469 60.9067 52.0951 60.8908H52.2525C52.0479 60.8908 51.859 60.8272 51.6702 60.7478L51.8118 60.8113C51.6702 60.7478 51.5443 60.6684 51.4183 60.5889L51.5443 60.6843C51.4656 60.6207 51.3869 60.5413 51.3082 60.4619C51.2137 60.3507 51.0249 60.2871 50.8832 60.2871C50.7416 60.2871 50.5685 60.3507 50.4583 60.4619C50.3481 60.5731 50.2852 60.7319 50.2852 60.8908C50.2852 61.0496 50.3481 61.1926 50.4583 61.3197V61.272Z" fill="#231F20"/>
<path d="M55.1641 59.7786C55.1641 59.7786 55.1799 59.858 55.1956 59.9057C55.2271 59.9851 55.2585 60.0804 55.3058 60.1598C55.3215 60.1916 55.353 60.2234 55.3687 60.271C55.4159 60.3505 55.4789 60.414 55.5418 60.4935C55.5733 60.5252 55.6048 60.557 55.6363 60.5729C55.6992 60.6364 55.7779 60.6841 55.8566 60.7317C55.8881 60.7476 55.9353 60.7794 55.9668 60.7953C56.0455 60.8271 56.1242 60.8747 56.2186 60.8906C56.2658 60.8906 56.313 60.9224 56.3603 60.9224C56.4547 60.9224 56.5491 60.9541 56.6593 60.9541C56.738 60.9541 56.8167 60.9541 56.8796 60.9065C56.9583 60.8747 57.0213 60.8429 57.0685 60.7794C57.1315 60.7317 57.1629 60.6682 57.1944 60.5888C57.2259 60.5252 57.2416 60.4458 57.2416 60.3664V60.2075C57.1944 60.1122 57.1472 60.0169 57.0685 59.9374L56.9426 59.8421C56.8482 59.7945 56.7537 59.7627 56.6436 59.7627C56.5963 59.7627 56.5491 59.7627 56.5019 59.7627H56.6593C56.6593 59.7627 56.5019 59.7627 56.439 59.715L56.5806 59.7786C56.5806 59.7786 56.439 59.6991 56.376 59.6515L56.5019 59.7468C56.5019 59.7468 56.376 59.6356 56.3288 59.5721L56.4232 59.6991C56.4232 59.6991 56.3445 59.5721 56.313 59.5085L56.376 59.6515C56.376 59.6515 56.3445 59.5562 56.3288 59.4926C56.313 59.4132 56.2816 59.3497 56.2186 59.2861C56.1714 59.2226 56.1242 59.1749 56.0455 59.1272C55.9825 59.0796 55.9038 59.0637 55.8251 59.0637C55.7465 59.0478 55.6678 59.0637 55.5891 59.0637L55.4474 59.1272C55.353 59.1749 55.29 59.2543 55.2428 59.3338L55.1799 59.4767C55.1484 59.5879 55.1484 59.6833 55.1799 59.7945L55.1641 59.7786Z" fill="#231F20"/>
<path d="M57.4148 59.1913C59.0674 58.4129 60.3422 56.9037 61.1134 55.2515C61.5541 54.2666 61.8689 53.234 62.0577 52.1696C62.2466 51.1052 62.3253 49.9932 62.4512 48.8971C62.5614 47.9121 62.8289 46.8001 63.7418 46.2759C64.4028 45.8946 63.8047 44.862 63.1437 45.2433C61.1921 46.3553 61.318 48.8335 61.0819 50.7875C60.8458 52.7415 60.3107 54.7273 59.0988 56.2841C58.485 57.0784 57.7138 57.7139 56.8167 58.1428C56.5334 58.2858 56.4547 58.6988 56.6121 58.953C56.7853 59.2548 57.1315 59.3025 57.4148 59.1595V59.1913Z" fill="#231F20"/>
<path d="M51.2921 57.7933C52.0791 57.4755 52.6929 56.8719 53.0549 56.0934C53.4641 55.2197 53.5585 54.2665 53.6372 53.2975C53.7946 51.5341 54.1094 49.7549 55.1481 48.2775C55.6518 47.5626 56.3128 47.0066 57.084 46.6253C57.3673 46.4823 57.446 46.0693 57.2886 45.8151C57.1155 45.5133 56.7692 45.4656 56.4859 45.6086C54.9593 46.3394 53.9048 47.7373 53.2752 49.2783C52.929 50.1361 52.7244 51.0258 52.5985 51.9313C52.4725 52.8368 52.4726 53.8058 52.2679 54.7113C52.0948 55.458 51.7328 56.3317 50.9774 56.6336C50.6783 56.7607 50.4737 57.0307 50.5682 57.3643C50.6469 57.6503 50.9931 57.9045 51.2921 57.7774V57.7933Z" fill="#231F20"/>
<path d="M58.7058 45.8308C59.0678 45.7037 59.4298 45.6243 59.8075 45.5766H59.6502C60.1853 45.529 60.7204 45.529 61.2555 45.5925H61.0981C61.586 45.6402 62.0582 45.7673 62.5146 45.942C62.6405 45.9897 62.8451 45.942 62.971 45.8785C63.0969 45.8149 63.2071 45.6719 63.2386 45.529C63.2701 45.3701 63.2701 45.2112 63.1756 45.0683C63.0812 44.9253 62.971 44.8617 62.8294 44.7982C61.4286 44.2422 59.8233 44.2104 58.4068 44.687C58.1078 44.7823 57.8874 45.1 57.9976 45.4178C58.092 45.7037 58.4068 45.942 58.7216 45.8308H58.7058Z" fill="#231F20"/>
<path d="M33.8696 62.3847C31.6347 61.3839 29.872 59.3187 29.2897 56.9199C28.7073 54.5211 29.3211 51.8363 30.9422 49.9935C33.1929 47.4358 36.8442 46.7686 40.2123 46.4191C41.3927 46.3079 42.6361 46.2126 43.7378 46.6574C44.6349 47.0228 45.3589 47.7218 46.0671 48.389C47.3262 49.5964 48.6011 50.8355 49.4352 52.3764C50.6471 54.6323 50.773 57.46 49.75 59.8111C49.4667 60.4466 49.1047 61.0661 48.5696 61.5109C48.1132 61.8763 47.5623 62.1146 46.9957 62.2894C45.1071 62.8771 43.0925 62.9407 41.1252 63.0042C38.6857 63.0837 36.199 63.4173 33.8854 62.3847H33.8696Z" fill="white"/>
<path d="M34.9089 56.6661C33.2564 56.9202 33.5712 59.0649 33.9646 60.5423C33.9961 60.6853 34.059 60.8441 34.1692 60.9394C34.3423 61.0824 34.5942 61.0189 34.8145 60.9712C35.5385 60.7806 37.7891 61.1301 38.2456 60.6217C38.702 60.1134 38.1196 58.5565 37.8206 58.0799C37.3957 57.3968 36.7032 56.8726 35.9162 56.7296C35.5228 56.6502 35.1765 56.6502 34.8932 56.682L34.9089 56.6661Z" fill="#AA968A"/>
<path d="M43.7222 56.6178C41.7706 56.9673 40.9521 59.0008 41.4558 60.8435C42.4001 60.8118 43.3602 60.8435 44.2887 60.9389C46.5551 61.1772 46.2561 56.872 44.4147 56.602C44.1628 56.5702 43.9425 56.5702 43.7222 56.602V56.6178Z" fill="#AA968A"/>
<path d="M29.1638 45.9742C28.6287 46.8002 28.188 47.7216 28.1408 48.7066C27.9991 51.2007 30.3914 53.1865 32.8152 53.7107C32.8152 53.4406 32.8152 53.1547 32.7994 52.8846C35.6796 53.3453 38.2608 55.3946 39.3782 58.1112C39.9448 56.4749 41.1724 55.0769 42.7148 54.2826C44.1471 53.5518 45.8783 53.3136 46.9958 52.1698C46.8856 52.4239 47.1689 52.7258 47.4522 52.7099C47.7355 52.694 47.9716 52.5034 48.1919 52.3286C49.75 50.9942 51.4341 49.3738 51.4026 47.3086C51.4026 46.562 51.1351 45.8312 50.7573 45.1799C48.9474 42.0026 44.8553 41.1448 41.2511 40.7476C36.2619 40.2075 31.9968 41.5896 29.1795 46.0059L29.1638 45.9742Z" fill="white"/>
<path d="M33.083 58.3813C33.1145 59.3662 33.2089 60.3671 33.4135 61.3202C33.5866 62.1622 33.9959 63.02 34.7985 63.4172C35.2235 63.6237 35.6642 63.7031 36.1206 63.719C36.5455 63.719 37.0177 63.6872 37.4269 63.5919C37.9148 63.4807 38.3397 63.1789 38.5758 62.7341C38.7804 62.3528 38.8749 61.9239 38.9378 61.495C39.1109 60.3829 39.1582 59.255 39.0322 58.1271C39.0165 57.9683 38.985 57.8253 38.8591 57.6982C38.749 57.587 38.5916 57.5234 38.4342 57.5234C38.1509 57.5234 37.8046 57.7935 37.8361 58.1271C37.9305 59.0167 37.9305 59.9064 37.8361 60.796C37.8361 60.8595 37.8361 60.9072 37.8204 60.9707C37.8204 61.0025 37.8204 61.0184 37.8204 61.0502C37.8204 60.939 37.8204 61.1455 37.8204 61.0502C37.8046 61.1614 37.7889 61.2726 37.7732 61.3838C37.7417 61.5585 37.7102 61.7491 37.663 61.9239C37.663 61.9716 37.6315 62.0033 37.6158 62.051C37.6158 62.0669 37.6158 62.0828 37.6 62.0986C37.5843 62.1622 37.6315 62.0351 37.6315 62.0351C37.6 62.0669 37.6 62.1145 37.5843 62.1463C37.5685 62.194 37.5371 62.2257 37.5056 62.2734C37.5056 62.2734 37.4899 62.3052 37.4741 62.321C37.4741 62.321 37.5528 62.2257 37.5056 62.2734C37.4741 62.3052 37.4426 62.3369 37.4112 62.3687C37.4899 62.321 37.4112 62.3687 37.3954 62.3687C37.3639 62.3846 37.2853 62.4164 37.2695 62.4322C37.301 62.3846 37.3639 62.4005 37.301 62.4322C37.2853 62.4322 37.2695 62.4323 37.238 62.4481C37.1908 62.4481 37.1436 62.4799 37.0964 62.4799C37.0492 62.4799 37.0177 62.4958 36.9705 62.5117C36.939 62.5117 36.9233 62.5117 36.8918 62.5117C36.8131 62.5117 36.8918 62.5117 36.9233 62.5117C36.8446 62.5434 36.7344 62.5276 36.6557 62.5434C36.5613 62.5434 36.4826 62.5435 36.3881 62.5593C36.215 62.5593 36.0262 62.5593 35.853 62.5593C35.8373 62.5593 35.8215 62.5593 35.7901 62.5593C35.7271 62.5593 35.853 62.5593 35.853 62.5593C35.8058 62.5593 35.7586 62.5593 35.7271 62.5434C35.6327 62.5276 35.5383 62.4958 35.4596 62.464C35.4281 62.464 35.3966 62.4322 35.3494 62.4322C35.3494 62.4322 35.4753 62.4958 35.3809 62.4322C35.3651 62.4322 35.3494 62.4164 35.3336 62.4005C35.255 62.3528 35.1763 62.3052 35.1133 62.2575C35.0503 62.2098 35.192 62.3369 35.1448 62.2734C35.1448 62.2734 35.1133 62.2416 35.0976 62.2416C35.0661 62.2098 35.0346 62.1781 35.0031 62.1463C34.9717 62.1145 34.9559 62.0986 34.9244 62.0669C34.8615 61.9874 34.9244 62.051 34.9244 62.0669C34.8772 62.0033 34.8457 61.9398 34.7985 61.8603C34.7828 61.8286 34.7513 61.7809 34.7356 61.7491C34.7356 61.7333 34.7356 61.7174 34.7198 61.7015C34.7985 61.8286 34.7513 61.765 34.7198 61.7174C34.6569 61.5585 34.6097 61.3838 34.5624 61.209C34.5152 61.0025 34.4838 60.8119 34.4523 60.6053C34.4365 60.4783 34.4208 60.3671 34.4051 60.24C34.4051 60.2241 34.3893 60.1129 34.4051 60.1923C34.4208 60.2717 34.4051 60.1605 34.4051 60.1446C34.4051 60.0811 34.3893 60.0176 34.3893 59.954C34.3264 59.4457 34.2949 58.9373 34.2792 58.4131C34.2792 58.0953 34.0116 57.8094 33.6811 57.8094C33.3506 57.8094 33.083 58.0636 33.083 58.4131V58.3813Z" fill="#231F20"/>
<path d="M45.2486 58.3815C45.2486 58.8422 45.2014 59.2871 45.1542 59.7478C45.1542 59.859 45.1385 59.9543 45.1227 60.0655C45.1227 60.0973 45.1227 60.1131 45.1227 60.1449C45.1227 60.2085 45.107 60.272 45.0913 60.3355C45.0598 60.5262 45.0283 60.7168 44.9968 60.9233C44.9654 61.0981 44.9181 61.2728 44.8709 61.4476C44.8394 61.527 44.8237 61.6064 44.7922 61.6859L44.7607 61.7494C44.7607 61.7494 44.808 61.6382 44.7765 61.6859C44.7607 61.7335 44.7293 61.7812 44.7135 61.8129C44.6821 61.8765 44.6348 61.9559 44.5876 62.0195C44.5876 62.0354 44.5561 62.0671 44.5404 62.083C44.5404 62.083 44.6191 61.9877 44.5719 62.0354C44.5404 62.0671 44.5089 62.1148 44.4775 62.1466C44.446 62.1783 44.4302 62.1942 44.3988 62.226C44.383 62.2419 44.3673 62.2578 44.3358 62.2736C44.2886 62.3213 44.383 62.2419 44.383 62.2419C44.3043 62.2736 44.2414 62.3372 44.1627 62.3848C44.1469 62.3848 44.0053 62.4643 44.0997 62.4166C44.1784 62.3849 44.0525 62.4166 44.0368 62.4325C43.9581 62.4643 43.8636 62.4802 43.7849 62.4961C43.7377 62.4961 43.6905 62.496 43.659 62.5119C43.5961 62.5119 43.722 62.5119 43.722 62.5119H43.6433C43.5489 62.5119 43.4702 62.5119 43.3757 62.5119C43.1869 62.5119 43.0137 62.5119 42.8249 62.4961C42.7462 62.4961 42.6518 62.4802 42.5731 62.4643C42.5101 62.4643 42.636 62.4643 42.636 62.4643C42.6045 62.4643 42.5731 62.4643 42.5573 62.4643C42.5101 62.4643 42.4472 62.4484 42.3999 62.4325C42.3527 62.4325 42.3212 62.4166 42.274 62.4007C42.2426 62.4007 42.2268 62.3848 42.1953 62.369C42.1796 62.369 42.1481 62.3372 42.1324 62.3213C42.1166 62.3213 42.1009 62.3054 42.0852 62.2895C42.0222 62.2578 42.1639 62.369 42.1166 62.3213C42.0852 62.2895 42.0537 62.2578 42.0222 62.226C41.975 62.1624 41.9435 62.083 41.8963 62.0036C41.8648 61.94 41.9278 62.0671 41.9278 62.0671C41.9278 62.0512 41.912 62.0195 41.8963 62.0036C41.8963 61.9718 41.8806 61.94 41.8648 61.8924C41.8333 61.7971 41.8176 61.7176 41.8019 61.6223C41.7546 61.4158 41.7232 61.2093 41.6917 61.0028C41.6917 60.9392 41.6917 61.0345 41.6917 61.0345C41.6917 61.0028 41.6917 60.971 41.6917 60.9392C41.6917 60.8757 41.6917 60.8121 41.676 60.7486C41.676 60.6215 41.6445 60.4944 41.6445 60.3673C41.6287 60.1131 41.613 59.8748 41.613 59.6207C41.613 59.1123 41.6287 58.604 41.6917 58.1115C41.7232 57.7938 41.3927 57.5078 41.0936 57.5078C40.7474 57.5078 40.5428 57.7779 40.4955 58.1115C40.3854 59.0805 40.4011 60.0496 40.527 61.0186C40.6529 61.9877 40.7946 63.0521 41.7704 63.4651C42.1953 63.6399 42.6675 63.6875 43.1082 63.7034C43.5331 63.7193 43.9738 63.7034 44.383 63.5604C44.808 63.4174 45.2014 63.1792 45.4847 62.8138C45.768 62.4484 45.9569 62.0354 46.0671 61.6064C46.2087 61.0981 46.2717 60.5579 46.3346 60.0337C46.3976 59.4777 46.4448 58.9376 46.4605 58.3815C46.4605 58.0638 46.1772 57.7779 45.8625 57.7779C45.5319 57.7779 45.2801 58.0321 45.2644 58.3815H45.2486Z" fill="#231F20"/>
<path d="M35.1133 61.5436C35.1133 61.6548 35.1133 61.766 35.1448 61.8931C35.1448 61.9726 35.1762 62.052 35.192 62.1314C35.2235 62.2426 35.2707 62.3538 35.3179 62.4491C35.3494 62.5286 35.3966 62.5921 35.4438 62.6715C35.4753 62.7192 35.5068 62.751 35.5382 62.7828C35.5697 62.8145 35.6169 62.8463 35.6799 62.8463C35.7271 62.8622 35.79 62.8622 35.8373 62.8463C35.8845 62.8463 35.9317 62.8304 35.9789 62.7986C36.0576 62.751 36.1363 62.6557 36.152 62.5603C36.1678 62.465 36.1678 62.3379 36.1048 62.2585C36.0419 62.1791 35.9947 62.0838 35.9632 61.9884L36.0104 62.0838C35.9474 61.9567 35.916 61.8137 35.9002 61.6707V61.7819C35.9002 61.7819 35.9002 61.6231 35.9002 61.5436C35.9002 61.496 35.9002 61.4324 35.8687 61.3848C35.853 61.3371 35.8215 61.2895 35.79 61.2577C35.7586 61.2259 35.7114 61.1941 35.6641 61.1783C35.6169 61.1465 35.5697 61.1465 35.5067 61.1465C35.4123 61.1465 35.3021 61.1783 35.2235 61.2577C35.1448 61.3371 35.1133 61.4324 35.1133 61.5436Z" fill="#231F20"/>
<path d="M36.4035 61.9241L36.5451 62.7184C36.5451 62.7184 36.5766 62.8137 36.6081 62.8614C36.6396 62.9091 36.671 62.9408 36.7183 62.9567C36.7655 62.9885 36.8127 63.0044 36.8599 63.0044C36.9071 63.0044 36.9701 63.0044 37.0173 63.0044L37.1117 62.9567C37.1117 62.9567 37.2219 62.8773 37.2534 62.8137L37.3006 62.7184C37.3006 62.7184 37.3163 62.5754 37.3006 62.5119L37.1589 61.7176C37.1589 61.7176 37.1275 61.6223 37.096 61.5746C37.0645 61.527 37.033 61.4952 36.9858 61.4793C36.9386 61.4475 36.8914 61.4316 36.8442 61.4316C36.7969 61.4316 36.734 61.4316 36.6868 61.4316L36.5923 61.4793C36.5923 61.4793 36.4822 61.5587 36.4507 61.6223L36.4035 61.7176C36.4035 61.7176 36.3877 61.8606 36.4035 61.9241Z" fill="#231F20"/>
<path d="M42.306 61.4471C42.2745 61.5583 42.2588 61.6695 42.2588 61.7807C42.2588 61.8602 42.2588 61.9396 42.2588 62.0349C42.2588 62.1461 42.2903 62.2573 42.3217 62.3685C42.3532 62.4797 42.4004 62.5909 42.4477 62.6862C42.4791 62.7339 42.5106 62.7657 42.5421 62.7974C42.5736 62.8292 42.6208 62.861 42.6837 62.861C42.731 62.8769 42.7939 62.8769 42.8411 62.861C42.8883 62.861 42.9356 62.8451 42.9828 62.8133C43.0615 62.7657 43.1402 62.6703 43.1559 62.575V62.4638C43.1559 62.4638 43.1559 62.3209 43.1087 62.2573C43.1087 62.2414 43.0929 62.2255 43.0772 62.1938L43.1244 62.2891C43.0772 62.1779 43.0457 62.0667 43.03 61.9396V62.0508C43.03 61.9237 43.03 61.8125 43.03 61.6854V61.7966C43.03 61.7966 43.03 61.6854 43.0457 61.6378C43.0615 61.5901 43.0615 61.5266 43.0457 61.4789C43.0457 61.4312 43.03 61.3836 42.9985 61.3359C42.967 61.2883 42.9356 61.2565 42.9041 61.2247C42.8726 61.1929 42.8254 61.1612 42.7624 61.1612C42.668 61.1453 42.5421 61.1453 42.4634 61.2088C42.3847 61.2724 42.306 61.3518 42.2903 61.4471H42.306Z" fill="#231F20"/>
<path d="M43.5963 61.7818C43.5963 61.7818 43.612 61.8771 43.6277 61.9089V61.7977C43.6277 61.9248 43.6277 62.0519 43.6277 62.1631V62.0519C43.6277 62.1789 43.5963 62.2901 43.5491 62.4014L43.5963 62.306C43.5963 62.306 43.5805 62.3537 43.5648 62.3696C43.5333 62.4172 43.5176 62.4649 43.5176 62.5126C43.5176 62.5602 43.5176 62.6238 43.5176 62.6714C43.5176 62.7191 43.5491 62.7667 43.5805 62.8144C43.612 62.8621 43.6435 62.8938 43.6907 62.9097C43.7851 62.9574 43.8953 62.9891 43.9897 62.9574C44.0842 62.9256 44.1786 62.8621 44.2258 62.7826C44.273 62.6873 44.3203 62.5761 44.3517 62.4649C44.3832 62.3537 44.3989 62.2425 44.4147 62.1313C44.4147 62.0519 44.4147 61.9724 44.4147 61.893C44.4147 61.7818 44.3989 61.6706 44.3675 61.5594C44.3675 61.5117 44.336 61.4641 44.3045 61.4164C44.273 61.3688 44.2416 61.337 44.1943 61.3211C44.1471 61.2893 44.0999 61.2734 44.0527 61.2734C44.0055 61.2734 43.9425 61.2734 43.8953 61.2734C43.8009 61.3052 43.7064 61.3688 43.6592 61.4482L43.612 61.5435C43.612 61.5435 43.5963 61.6865 43.612 61.75L43.5963 61.7818Z" fill="#231F20"/>
<path d="M34.7199 40.5418C32.2174 41.3996 29.8566 42.9882 28.4716 45.3076C27.968 46.1655 27.606 47.1186 27.543 48.1195C27.4643 49.3586 27.9207 50.6771 28.5503 51.7097C29.3687 53.0283 30.6278 54.0609 32.1387 54.3945C32.8784 54.5533 33.1932 53.4095 32.4535 53.2507C30.2973 52.7741 28.6762 50.5024 28.7077 48.2942C28.7077 47.9129 28.7549 47.6747 28.8808 47.2457C29.0067 46.8168 29.1484 46.515 29.3687 46.1019C29.8723 45.1964 30.5491 44.4339 31.336 43.7667C32.4063 42.8453 33.6969 42.1622 35.0346 41.7015C35.7429 41.4632 35.4439 40.3035 34.7199 40.5577V40.5418Z" fill="#231F20"/>
<path d="M32.5794 51.4394C32.485 52.4878 33.3034 53.4092 34.1848 53.854C34.6727 54.0923 35.1921 54.2512 35.7115 54.4259C35.8374 54.4577 35.9475 54.5054 36.0734 54.553C36.1364 54.5689 36.1836 54.6007 36.2308 54.6166C36.2623 54.6166 36.278 54.6325 36.3095 54.6483C36.1836 54.5848 36.3725 54.6801 36.3095 54.6483C36.5141 54.7437 36.703 54.839 36.8761 54.9661C36.8919 54.9661 36.9233 54.9978 36.9391 55.0137C36.9548 55.0137 37.0335 55.0932 36.9705 55.0296C37.002 55.0455 37.0335 55.0773 37.0492 55.109C37.1279 55.1885 37.2066 55.2679 37.2853 55.3632C37.3483 55.4426 37.2696 55.3315 37.2538 55.3315C37.2538 55.3632 37.3011 55.395 37.3168 55.4268C37.3483 55.4744 37.3798 55.5221 37.4112 55.5856C37.4112 55.6015 37.427 55.6333 37.4427 55.6492C37.4899 55.7445 37.4112 55.5539 37.4427 55.6174C37.4585 55.6809 37.4899 55.7445 37.5057 55.808C37.5844 56.1099 37.9306 56.3164 38.2297 56.2211C38.5287 56.1258 38.7175 55.808 38.6389 55.4903C38.387 54.4736 37.4742 53.854 36.5613 53.4887C36.0892 53.298 35.617 53.1868 35.1449 53.0121C35.0976 52.9962 35.0347 52.9644 34.9875 52.9485C34.8773 52.9009 35.0032 52.9485 35.0032 52.9485C35.0032 52.9485 34.9403 52.9168 34.9245 52.9168C34.8143 52.8691 34.6884 52.8056 34.5783 52.742C34.4996 52.6944 34.4051 52.6308 34.3264 52.5831C34.232 52.5196 34.3579 52.599 34.3579 52.599C34.3579 52.599 34.295 52.5514 34.2792 52.5355C34.232 52.5037 34.2005 52.4561 34.1533 52.4243C34.1061 52.3766 34.0589 52.329 34.0274 52.2813C34.0274 52.2654 33.9959 52.2337 33.9802 52.2178C34.0117 52.2654 34.0746 52.3131 33.9802 52.2178C33.9172 52.1225 33.87 52.0271 33.8071 51.9318C33.7441 51.8206 33.8385 52.043 33.8071 51.9636C33.8071 51.9318 33.7913 51.9 33.7756 51.8842C33.7598 51.8206 33.7441 51.773 33.7284 51.7094C33.7126 51.6459 33.7441 51.6618 33.7284 51.7571C33.7284 51.7253 33.7284 51.6776 33.7284 51.6459C33.7284 51.5823 33.7284 51.5188 33.7284 51.4552C33.7598 51.1375 33.4451 50.8516 33.1303 50.8516C32.784 50.8516 32.5637 51.1216 32.5322 51.4552L32.5794 51.4394Z" fill="#231F20"/>
<path d="M40.9049 56.585C41.078 56.3626 41.2826 56.1561 41.4872 55.9655C41.5344 55.9178 41.5974 55.8702 41.6446 55.8225C41.6761 55.8066 41.7076 55.7748 41.7233 55.7589C41.8335 55.6795 41.9594 55.6001 42.0695 55.5207C42.3056 55.3618 42.5575 55.2347 42.8093 55.1076C42.9352 55.0441 43.0454 54.9964 43.1713 54.9329C43.2342 54.9011 43.2972 54.8693 43.3759 54.8376C43.2972 54.8693 43.4546 54.8058 43.3759 54.8376C43.4231 54.8217 43.4546 54.8058 43.5018 54.7899C44.6664 54.3133 46.0042 54.0274 46.9643 53.1536C47.5152 52.6453 47.8771 51.9463 47.8929 51.1838C47.8929 50.866 47.6253 50.5801 47.2948 50.5801C46.9643 50.5801 46.7125 50.8343 46.6967 51.1838C46.6967 51.2155 46.681 51.422 46.6967 51.295C46.6967 51.3585 46.681 51.422 46.6653 51.4697C46.6495 51.5174 46.6338 51.5809 46.6023 51.6444C46.5708 51.7556 46.6023 51.6762 46.6023 51.6444C46.5866 51.6921 46.5708 51.7239 46.5393 51.7715C46.5079 51.8192 46.4764 51.8827 46.4449 51.9304C46.4292 51.9622 46.3977 51.9939 46.382 52.0257C46.382 52.0098 46.4449 51.9463 46.382 52.0257C46.2875 52.1369 46.1931 52.2481 46.0829 52.3434C46.0514 52.3593 46.0357 52.3911 46.0042 52.407C45.9413 52.4546 45.8941 52.4864 45.8311 52.5182C45.7052 52.5976 45.5635 52.677 45.4219 52.7565C45.3432 52.7882 45.2802 52.82 45.2016 52.8518C45.1701 52.8677 45.1229 52.8836 45.0914 52.8994C44.9497 52.963 44.7924 53.0107 44.635 53.0742C43.5647 53.4714 42.463 53.8367 41.4872 54.4563C40.9364 54.8058 40.417 55.2188 40.0235 55.7272C39.8346 55.9655 39.7717 56.3309 40.0235 56.5691C40.2439 56.7757 40.6531 56.8233 40.8577 56.5691L40.9049 56.585Z" fill="#231F20"/>
<path d="M48.7114 52.964C50.6001 51.6613 52.3786 49.6438 52.3156 47.1973C52.2526 44.7508 50.3797 42.7968 48.2865 41.7801C46.9487 41.1288 45.5165 40.7475 44.0842 40.398C43.3445 40.2074 43.0297 41.3671 43.7695 41.5418C45.8942 42.082 48.1921 42.638 49.7659 44.2743C50.4427 44.9732 50.9621 45.8629 51.1037 46.8478C51.2454 47.8327 50.9621 48.7224 50.4899 49.5167C49.9076 50.5016 49.0577 51.2959 48.1134 51.9314C47.8458 52.1061 47.7356 52.4556 47.9088 52.7416C48.0661 53.0116 48.4439 53.1387 48.7114 52.9481V52.964Z" fill="#231F20"/>
<path d="M28.645 52.9806C28.2987 55.8719 28.5033 59.065 30.628 61.2732C31.1317 61.7974 31.7297 62.2422 32.4065 62.5282C32.7056 62.6553 33.0361 62.6235 33.2092 62.3217C33.3508 62.0675 33.2879 61.6386 33.0046 61.5115C31.9344 61.0508 31.1632 60.2723 30.6123 59.2556C29.9985 58.1436 29.7309 56.8251 29.6995 55.5065C29.6837 54.6645 29.7467 53.8226 29.8411 52.9806C29.8726 52.6629 29.5421 52.377 29.243 52.377C28.8968 52.377 28.6922 52.647 28.645 52.9806Z" fill="#231F20"/>
<path d="M47.358 62.4153C48.8532 62.177 50.0336 61.1127 50.6002 59.7306C50.8677 59.0634 51.0251 58.3644 51.1195 57.6495C51.2297 56.887 51.2927 56.1244 51.2455 55.3619C51.1825 54.4723 50.9779 53.6144 50.5687 52.836C50.4113 52.55 50.0336 52.4706 49.766 52.6295C49.4827 52.8042 49.404 53.1537 49.5614 53.4397C50.1595 54.5676 50.1752 55.902 50.0178 57.1729C49.8762 58.3326 49.5929 59.6511 48.743 60.4772C48.2866 60.922 47.72 61.1762 47.059 61.2715C46.7442 61.3192 46.5711 61.7163 46.6497 62.0023C46.7442 62.3359 47.059 62.463 47.3737 62.4153H47.358Z" fill="#231F20"/>
<path d="M21.9397 19.6521C21.8767 22.6228 22.2859 25.6094 23.1516 28.453C23.545 29.7556 23.8913 30.8041 23.3562 32.0909C22.6479 33.7748 21.7665 35.4111 20.9639 37.0474C21.6249 37.3016 22.3646 37.651 22.5692 38.3341C22.7738 39.0331 22.3331 39.7957 22.5063 40.4947C22.6637 41.1142 23.3247 41.5431 23.9385 41.4478C23.9385 42.115 23.7496 42.7664 23.7339 43.4336C23.7181 44.1008 23.9542 44.8475 24.5366 45.1334C25.1189 45.4194 26.016 44.9269 25.8744 44.2914C26.0632 45.7847 27.3695 46.9127 28.786 47.4051C30.2025 47.8976 31.7134 47.8976 33.2086 48.0406C35.8055 48.2947 38.3709 48.9937 40.716 50.1216C41.015 50.2646 41.3141 50.4235 41.6446 50.4394C41.9279 50.4394 42.2112 50.3599 42.4787 50.2487C43.7378 49.7563 44.8395 48.962 46.0672 48.3901C47.641 47.6434 49.3723 47.2463 50.9776 46.579C52.583 45.9118 54.1569 44.8633 54.8966 43.2588C54.6448 43.5448 55.0067 44.0214 55.3845 44.0055C55.7622 43.9896 56.0612 43.6878 56.3288 43.4018C57.0843 42.5599 57.6351 41.6702 58.2647 40.7488C58.6109 40.8918 58.9729 41.0507 59.3349 41.0348C59.6969 41.0189 60.0904 40.7647 60.1533 40.3993C60.1848 40.1611 60.0746 39.9228 59.9802 39.7162C59.4923 38.6836 59.0359 37.6193 58.5165 36.6026C58.4693 36.5072 57.5249 34.6803 57.7296 34.7121C58.5008 34.8074 59.3034 34.4421 59.7284 33.8066C59.8228 33.6795 57.4305 31.0901 57.3203 30.6453C57.0685 29.5968 57.9814 27.8811 58.2804 26.8961C59.2405 23.7825 59.5867 20.4146 58.91 17.2215C58.7054 16.2366 58.3591 15.204 57.5564 14.6003C56.2659 13.6154 55.2271 14.7274 54.1411 15.3628C52.4413 16.3637 50.9304 17.714 49.7343 19.2867C49.3408 19.8109 48.9473 20.3987 48.3335 20.637C47.7512 20.8753 47.0902 20.7482 46.4764 20.637C44.2887 20.2716 42.0538 20.1287 39.8346 20.224C38.2922 20.2875 35.4592 20.0651 34.0585 20.6847C33.8854 20.7641 33.7122 20.8594 33.5234 20.8277C33.303 20.7959 33.1456 20.6052 33.004 20.4464C30.9737 17.9046 28.6758 15.3787 25.6225 14.2826C22.6164 13.1864 21.9082 17.5075 21.861 19.6839L21.9397 19.6521Z" fill="white"/>
<path d="M23.5609 30.1531C23.5609 30.1531 23.5609 30.2484 23.5609 30.296C24.7413 28.0243 26.1105 25.7526 28.0464 24.0369C29.038 23.1473 30.1554 22.4324 31.383 21.9399C32.17 21.6222 33.2717 21.5269 33.854 20.9391C32.4847 20.3672 31.446 18.3973 30.3757 17.3647C29.0222 16.0462 27.4956 14.9024 25.7171 14.2669C22.711 13.1708 22.0027 17.4918 21.9555 19.6682C21.8926 22.6389 22.3018 25.6255 23.1674 28.4691C23.3405 29.0251 23.5294 29.597 23.5766 30.1689L23.5609 30.1531Z" fill="#5C564D"/>
<path d="M48.4116 20.7484C48.3172 20.9073 48.2542 21.0661 48.207 21.2568C49.9068 22.0987 52.3935 22.6865 53.6841 24.0686C54.4711 24.8947 54.896 25.9432 55.5255 26.8805C56.1079 27.7542 56.8791 28.5962 57.5873 29.454C57.7919 28.5803 58.0752 27.7065 58.3428 26.8487C59.3028 23.735 59.6491 20.3671 58.9723 17.174C58.7677 16.1891 58.4215 15.1565 57.6188 14.5528C56.3282 13.5679 55.2895 14.6799 54.2035 15.3154C52.5037 16.3162 50.9928 17.6665 49.7966 19.2392C49.3874 19.7952 48.7421 20.1765 48.3959 20.7484H48.4116Z" fill="#5C564D"/>
<path d="M54.3142 25.3551C54.8808 25.9747 55.416 26.6419 55.8566 27.3568C56.2816 25.927 56.4232 24.402 56.4704 22.9404C56.5177 21.4313 56.4704 19.8585 56.1399 18.3652C55.3058 18.683 54.5188 19.1437 53.7476 19.6997C53.4486 19.9062 53.2597 20.065 52.9607 20.3351C52.6932 20.5734 52.4413 20.8276 52.2052 21.1135C52.1423 21.1771 52.0951 21.2406 52.0479 21.3042C52.1423 21.193 51.9849 21.3836 51.9849 21.3995C51.8905 21.5266 51.8118 21.6695 51.7331 21.7966C51.6701 21.9078 51.6072 22.0349 51.5442 22.162C51.5442 22.1938 51.5127 22.2256 51.5127 22.2573C51.497 22.3209 51.4655 22.3844 51.4498 22.4639C51.434 22.5274 51.4026 22.5751 51.3711 22.6227C52.4099 23.4806 53.4171 24.3702 54.33 25.371L54.3142 25.3551Z" fill="#AA968A"/>
<path d="M29.8722 22.7335C29.8722 22.7335 29.8722 22.7176 29.8722 22.7017C29.8722 22.7017 29.8722 22.7017 29.8722 22.6859C29.8093 22.5588 29.7306 22.4317 29.6676 22.3205C29.6047 22.2093 29.526 22.0981 29.4473 21.9869C29.4315 21.9551 29.4158 21.9392 29.3843 21.9074C29.3528 21.8598 29.3214 21.8121 29.2742 21.7804C29.0853 21.5421 28.8649 21.3038 28.6603 21.0814C28.1882 20.5889 27.6845 20.1282 27.1494 19.6993C27.1494 19.6993 27.1179 19.6834 27.1179 19.6675C27.1337 19.6675 27.1179 19.6675 27.0707 19.6357C27.0078 19.5881 26.9291 19.5245 26.8661 19.4769C26.756 19.3974 26.63 19.3021 26.5041 19.2227C26.2523 19.0479 26.0005 18.8891 25.7487 18.7461C25.6385 18.6826 25.5283 18.619 25.4024 18.5714C25.3867 18.5714 25.3552 18.5555 25.3395 18.5396C25.308 18.5396 25.2765 18.5078 25.2608 18.5078C24.8044 20.0329 24.7099 21.685 24.7886 23.2419C24.8673 24.6081 25.0719 26.0219 25.4969 27.3564C26.8189 25.6566 28.2826 24.0997 29.9352 22.8288C29.9352 22.7971 29.9194 22.7812 29.9037 22.7494L29.8722 22.7335Z" fill="#AA968A"/>
<path d="M40.716 43.8779C47.5221 43.8779 53.0394 39.7953 53.0394 34.7593C53.0394 29.7232 47.5221 25.6406 40.716 25.6406C33.91 25.6406 28.3926 29.7232 28.3926 34.7593C28.3926 39.7953 33.91 43.8779 40.716 43.8779Z" fill="url(#paint0_radial_3865_17823)"/>
<path d="M33.3973 36.1092C34.7272 36.1092 35.8053 35.021 35.8053 33.6786C35.8053 32.3363 34.7272 31.248 33.3973 31.248C32.0674 31.248 30.9893 32.3363 30.9893 33.6786C30.9893 35.021 32.0674 36.1092 33.3973 36.1092Z" fill="#2CC5F4"/>
<path d="M48.05 36.1576C49.406 36.1576 50.5052 35.0481 50.5052 33.6794C50.5052 32.3107 49.406 31.2012 48.05 31.2012C46.694 31.2012 45.5947 32.3107 45.5947 33.6794C45.5947 35.0481 46.694 36.1576 48.05 36.1576Z" fill="#2CC5F4"/>
<path d="M33.3969 35.2367C34.2487 35.2367 34.9393 34.5397 34.9393 33.6799C34.9393 32.8201 34.2487 32.123 33.3969 32.123C32.545 32.123 31.8545 32.8201 31.8545 33.6799C31.8545 34.5397 32.545 35.2367 33.3969 35.2367Z" fill="#231F20"/>
<path d="M48.0502 35.2367C48.9021 35.2367 49.5926 34.5397 49.5926 33.6799C49.5926 32.8201 48.9021 32.123 48.0502 32.123C47.1984 32.123 46.5078 32.8201 46.5078 33.6799C46.5078 34.5397 47.1984 35.2367 48.0502 35.2367Z" fill="#231F20"/>
<path d="M40.3225 36.3315C41.0874 36.3315 41.7075 35.9403 41.7075 35.4577C41.7075 34.9752 41.0874 34.584 40.3225 34.584C39.5576 34.584 38.9375 34.9752 38.9375 35.4577C38.9375 35.9403 39.5576 36.3315 40.3225 36.3315Z" fill="#231F20"/>
<path d="M31.2725 22.527C36.844 20.2235 43.1395 20.0328 48.8527 22.0186C49.5767 22.2728 49.8757 21.1131 49.1674 20.8748C43.2969 18.8255 36.7181 19.0002 30.9735 21.3832C30.6744 21.5103 30.4698 21.7803 30.5643 22.1139C30.643 22.3999 30.9892 22.6541 31.2882 22.527H31.2725Z" fill="#231F20"/>
<path d="M24.4738 14.7103C27.0235 15.8224 29.3685 17.3633 31.3674 19.3014C31.934 19.8574 32.4848 20.4452 33.0042 21.0489C33.2088 21.2872 33.6337 21.2713 33.8383 21.0489C34.0744 20.8106 34.043 20.4452 33.8383 20.2069C31.9812 18.0146 29.7305 16.156 27.2438 14.758C26.5356 14.3608 25.8116 13.9955 25.0719 13.6777C24.7728 13.5506 24.4423 13.5824 24.2692 13.8843C24.1275 14.1384 24.1905 14.5674 24.4738 14.6944V14.7103Z" fill="#231F20"/>
<path d="M22.6005 14.9811C20.8377 19.8263 21.0423 25.2594 23.0569 29.9776C23.1828 30.2794 23.6078 30.343 23.8596 30.1841C24.1586 30.0093 24.2058 29.6599 24.0642 29.3739C22.1755 24.9417 22.0811 19.8105 23.7179 15.2988C23.9855 14.5839 22.8366 14.2662 22.5847 14.9811H22.6005Z" fill="#231F20"/>
<path d="M25.3702 19.0967C25.6849 19.2714 25.984 19.4621 26.283 19.6686C26.3617 19.7162 26.4247 19.7798 26.5034 19.8274C26.5663 19.8751 26.4089 19.748 26.4561 19.7957C26.4719 19.7957 26.4876 19.8274 26.5034 19.8274C26.5348 19.8592 26.5821 19.891 26.6135 19.9228C26.7552 20.034 26.8811 20.1611 27.0227 20.2723C27.2903 20.5105 27.5264 20.7806 27.7625 21.0507C27.7939 21.0824 27.8254 21.1301 27.8569 21.1619C27.8569 21.1778 27.9671 21.3049 27.9041 21.2095C27.8412 21.1142 27.9356 21.2413 27.9513 21.2572C27.9828 21.3049 28.0143 21.3366 28.0458 21.3843C28.1559 21.5273 28.2504 21.6861 28.3448 21.8291C28.5651 22.1786 28.754 22.5281 28.9114 22.9094C28.9743 23.0364 29.1317 23.1476 29.2576 23.1794C29.3993 23.2112 29.5882 23.1953 29.7141 23.1159C29.84 23.0364 29.9501 22.9094 29.9816 22.7664C30.0131 22.6075 29.9816 22.4645 29.9187 22.3057C29.2891 20.8759 28.2818 19.6527 27.0385 18.7154C26.708 18.4612 26.3617 18.2388 25.984 18.0482C25.7164 17.9052 25.323 17.9688 25.1813 18.2547C25.0397 18.5248 25.1026 18.9061 25.3859 19.0649L25.3702 19.0967Z" fill="#231F20"/>
<path d="M23.8916 40.2722C23.3722 41.7178 23.2778 43.4653 23.6555 44.9586C23.75 45.3557 23.9546 45.737 24.3323 45.9276C24.71 46.1183 25.1507 46.0865 25.5284 45.9276C26.3311 45.5623 26.4885 44.6726 26.5829 43.8624H25.4025C25.6386 46.0388 27.4014 47.5162 29.3844 48.104C31.6508 48.7871 34.0746 48.4535 36.341 49.0572C37.0807 49.2478 37.3955 48.104 36.6557 47.9134C34.5467 47.3574 32.3276 47.5957 30.2186 47.1032C28.629 46.7219 26.7718 45.6893 26.5829 43.8624C26.5042 43.0999 25.4812 43.0999 25.4025 43.8624C25.3711 44.1484 25.3396 44.8791 24.9304 44.8791C24.8832 44.8791 24.8674 44.8633 24.8832 44.8791C24.8359 44.8315 24.8359 44.7044 24.8202 44.6567C24.7572 44.4185 24.7258 44.1643 24.6943 43.9101C24.5841 42.7981 24.6943 41.6543 25.0563 40.6058C25.1665 40.3039 24.9304 39.9545 24.6471 39.875C24.3166 39.7797 24.0333 39.9862 23.9231 40.2881L23.8916 40.2722Z" fill="#231F20"/>
<path d="M26.4566 25.4034C24.9928 27.0238 23.9541 28.9619 23.2459 31.0271C22.8839 32.0756 22.5848 33.14 22.0497 34.109C21.5146 35.0781 20.8221 35.9359 20.1768 36.8414C20.0509 37.0162 20.0824 37.2704 20.1768 37.4451C20.649 38.3824 21.8136 38.859 22.7894 38.4777L22.0497 37.9058C21.9553 38.8907 21.971 39.8916 22.0969 40.8765C22.1441 41.1942 22.333 41.4802 22.695 41.4802C22.9783 41.4802 23.3245 41.2101 23.2931 40.8765C23.1672 39.8916 23.1514 38.8907 23.2459 37.9058C23.2773 37.5404 22.8366 37.2068 22.5061 37.3339C22.0025 37.5245 21.4674 37.3339 21.2313 36.8414V37.4451C21.8451 36.5873 22.5061 35.7453 23.0412 34.8398C23.5921 33.8707 23.9541 32.8064 24.3003 31.7579C24.9614 29.7403 25.9214 27.8499 27.3379 26.2613C27.8416 25.6894 27.0074 24.8474 26.5038 25.4193L26.4566 25.4034Z" fill="#231F20"/>
<path d="M48.6166 21.2087C49.4665 20.3667 50.2692 19.4771 51.1348 18.6351C51.8274 17.9679 52.5671 17.3801 53.3068 16.7923C53.9678 16.284 54.6288 15.7756 55.3371 15.3308C55.6361 15.1402 55.9666 14.9495 56.2972 14.8383C56.3758 14.8066 56.4545 14.7907 56.549 14.7589C56.6434 14.7271 56.6277 14.743 56.6434 14.743C56.8323 14.743 56.8008 14.743 56.9424 14.7748C57.0369 14.8066 56.9897 14.7748 57.0054 14.7907C57.0526 14.8066 57.0998 14.8383 57.147 14.8701C57.2257 14.9178 57.273 14.9654 57.3831 15.0766C57.5248 15.2355 57.6664 15.4738 57.7766 15.728C58.0441 16.2999 58.2015 17.0147 58.296 17.6661C58.5006 18.9052 58.5321 20.192 58.5478 21.447C58.5793 24.1635 58.1228 26.88 57.0526 29.39C56.9267 29.6919 56.9739 30.0255 57.2572 30.2002C57.509 30.3432 57.934 30.2796 58.0599 29.9937C59.7125 26.1334 60.0587 21.8282 59.4764 17.6978C59.2875 16.3793 58.9413 14.6001 57.6979 13.8534C56.2342 12.9638 54.44 14.4412 53.3068 15.299C52.4412 15.9504 51.6542 16.5382 50.8516 17.2689C49.7656 18.2539 48.7898 19.3659 47.7353 20.3985C47.1844 20.9386 48.0186 21.7806 48.5694 21.2405L48.6166 21.2087Z" fill="#231F20"/>
<path d="M55.211 18.0628C53.8575 18.7936 52.6928 19.9056 51.8744 21.2241C51.6541 21.5736 51.4652 21.9549 51.2921 22.3362C51.2291 22.495 51.1819 22.6221 51.2291 22.7969C51.2606 22.9398 51.3708 23.0828 51.4967 23.1464C51.6384 23.2258 51.7957 23.2576 51.9531 23.2099C52.0948 23.1623 52.2522 23.0669 52.2994 22.9398C52.441 22.6062 52.6142 22.2885 52.7873 21.9867C52.8817 21.8278 52.9761 21.6848 53.0706 21.526C53.1178 21.4466 53.1807 21.383 53.228 21.3036C53.2594 21.2718 53.2752 21.24 53.3067 21.2083C53.3539 21.1447 53.228 21.3036 53.2752 21.2559C53.2909 21.24 53.3067 21.2083 53.3224 21.1924C53.5427 20.9064 53.7788 20.6364 54.0464 20.3981C54.1723 20.271 54.3139 20.1439 54.4556 20.0168C54.5185 19.9691 54.5815 19.9056 54.6445 19.8579C54.6602 19.8579 54.7861 19.7467 54.6917 19.8103C54.613 19.8738 54.6759 19.8103 54.6917 19.8103C54.7231 19.7944 54.7389 19.7785 54.7704 19.7467C55.1009 19.5084 55.4314 19.286 55.7934 19.0954C56.0609 18.9524 56.1711 18.5394 55.998 18.2852C55.8249 17.9993 55.4786 17.9198 55.1953 18.0787L55.211 18.0628Z" fill="#231F20"/>
<path d="M54.4719 42.8926C54.346 43.1627 54.2043 43.401 54.0312 43.6393C54.0312 43.6393 53.9682 43.7187 54.0155 43.6711C54.0627 43.6234 53.984 43.7028 53.984 43.7187C53.9368 43.7664 53.9053 43.814 53.8581 43.8617C53.7636 43.9729 53.6535 44.0841 53.5433 44.1953C53.4489 44.2906 53.3387 44.3859 53.2443 44.4654C53.1813 44.513 53.1341 44.5607 53.0711 44.6083C53.1498 44.5448 52.9924 44.656 52.9767 44.6878C52.7406 44.8625 52.4888 45.0214 52.2212 45.1802C51.9537 45.3391 51.7019 45.4662 51.4343 45.5774C51.3713 45.6092 51.3084 45.625 51.2454 45.6568C51.2297 45.6568 51.0251 45.7521 51.1195 45.7045C50.9779 45.768 50.8362 45.8157 50.6946 45.8792C50.1595 46.0857 49.6086 46.2605 49.0577 46.4035C48.6643 46.5147 48.2866 46.6576 47.9088 46.8483C47.5311 47.0389 47.2163 47.2137 46.8543 47.3249C46.5553 47.4202 46.3507 47.7379 46.4451 48.0556C46.5238 48.3575 46.8701 48.564 47.1691 48.4687C47.8931 48.2304 48.5226 47.7856 49.2309 47.5949C49.7975 47.4361 50.3641 47.2613 50.9149 47.0548C52.1111 46.61 53.2757 46.0222 54.2358 45.1644C54.7552 44.6878 55.1959 44.1318 55.4949 43.4963C55.6365 43.2104 55.5736 42.845 55.2903 42.6861C55.0385 42.5273 54.6135 42.6067 54.4876 42.8926H54.4719Z" fill="#231F20"/>
<path d="M56.8955 35.1413C56.9585 35.7291 57.3362 36.1898 57.6667 36.6664C57.9973 37.143 58.2805 37.6037 58.5638 38.0802C58.7212 38.3344 58.8629 38.6045 58.9888 38.8587C59.0517 38.9857 59.1147 39.0969 59.1619 39.224C59.1777 39.2558 59.2564 39.4306 59.1934 39.3035C59.2249 39.367 59.2564 39.4464 59.2721 39.51C59.3036 39.6212 59.3508 39.7165 59.3823 39.8277C59.3823 39.8754 59.4137 39.923 59.4137 39.9866C59.4137 40.0183 59.4137 40.0342 59.4137 40.066C59.4452 40.1772 59.4137 39.9548 59.4137 40.0342C59.4137 40.0819 59.4137 40.1295 59.4137 40.1772C59.4137 40.1931 59.4137 40.2249 59.4137 40.2407C59.4137 40.3361 59.398 40.1295 59.4137 40.1772C59.4137 40.1931 59.398 40.2725 59.3823 40.2884C59.3823 40.3202 59.3193 40.4473 59.4137 40.2249C59.4137 40.2407 59.398 40.2725 59.3823 40.2884C59.3508 40.3202 59.4295 40.2249 59.3823 40.2884C59.3508 40.3361 59.4295 40.2407 59.3508 40.3202C59.2564 40.4155 59.3823 40.3202 59.3193 40.3361C59.2721 40.3519 59.2249 40.3678 59.1777 40.3678C59.2721 40.352 59.1777 40.3678 59.1619 40.3678C59.099 40.3678 59.0517 40.3678 58.9888 40.3678C59.1147 40.3837 58.8314 40.3043 58.8786 40.3361C58.7527 40.2884 58.5953 40.1613 58.4694 40.0183C58.312 39.8595 58.2176 39.7165 58.0917 39.5259C57.9186 39.2876 57.6353 39.1605 57.352 39.2876C57.0687 39.4147 56.9742 39.6847 57.0057 39.9866C56.9742 39.8277 57.0057 40.0501 57.0057 40.0978C57.0057 40.1772 57.0057 40.2566 57.0057 40.3361C57.0057 40.3837 57.0057 40.4473 57.0057 40.4949C57.0057 40.4314 57.0057 40.4473 57.0057 40.4949C56.99 40.5902 56.9742 40.6856 56.9585 40.765C56.8798 41.1463 56.7224 41.5911 56.5965 41.9088C56.4706 42.2265 56.2503 42.6237 56.0457 42.9573C55.9984 43.0367 55.9355 43.1161 55.8883 43.1956C55.8568 43.2273 55.841 43.275 55.8096 43.3068C55.8568 43.2432 55.8096 43.3068 55.7938 43.3227C55.6837 43.4497 55.5735 43.5768 55.4476 43.6721C55.2115 43.8787 55.2272 44.2917 55.4476 44.5141C55.6837 44.7524 56.0456 44.7206 56.2817 44.5141C56.9428 43.9263 57.3834 43.0685 57.714 42.2583C58.0445 41.4481 58.2963 40.5426 58.1704 39.653L57.0844 40.1137C57.651 40.9239 58.3907 41.7023 59.461 41.5116C60.2007 41.3845 60.6728 40.7332 60.6099 40.0025C60.5469 39.367 60.2794 38.7792 59.9961 38.2232C59.7128 37.6672 59.3508 37.0953 59.0045 36.5393C58.8314 36.2851 58.674 36.0309 58.5009 35.7768C58.4379 35.6814 58.3592 35.5861 58.2963 35.4749C58.2333 35.3637 58.0759 35.189 58.0602 35.1095C58.0287 34.7918 57.8084 34.5059 57.4621 34.5059C57.1788 34.5059 56.8326 34.7759 56.8641 35.1095L56.8955 35.1413Z" fill="#231F20"/>
<path d="M53.8731 26.245C54.7545 27.214 55.4155 28.342 55.9979 29.5334C56.2812 30.1212 56.533 30.7249 56.8792 31.2809C57.2255 31.8369 57.6189 32.3294 58.0596 32.7742C58.579 33.2825 59.1613 33.7115 59.7909 34.061L59.5863 33.2508C59.5863 33.2508 59.5076 33.3937 59.4604 33.4573C59.5076 33.3937 59.3974 33.5208 59.3974 33.5208C59.2873 33.6479 59.2715 33.6479 59.1299 33.7273C58.9253 33.8385 58.7521 33.8703 58.4688 33.8385C58.1541 33.8068 57.8708 34.1404 57.8708 34.4422C57.8708 34.7917 58.1383 35.0141 58.4688 35.0459C59.3345 35.1253 60.2158 34.617 60.6093 33.8544C60.751 33.5685 60.688 33.2031 60.4047 33.0442C59.3817 32.4723 58.5318 31.678 57.918 30.6931C57.5875 30.153 57.3514 29.5652 57.0838 29.0092C56.8163 28.4532 56.4858 27.8336 56.1395 27.2776C55.7303 26.6104 55.2581 25.9908 54.7388 25.4189C54.5184 25.1806 54.125 25.1965 53.9046 25.4189C53.6685 25.6572 53.6843 26.0226 53.9046 26.2609L53.8731 26.245Z" fill="#231F20"/>
<defs>
<radialGradient id="paint0_radial_3865_17823" cx="0" cy="0" r="1" gradientUnits="userSpaceOnUse" gradientTransform="translate(41.0202 35.3963) scale(12.2935 9.179)">
<stop stop-color="#5C564D"/>
<stop offset="0.25" stop-color="#5E584F"/>
<stop offset="0.4" stop-color="#666058"/>
<stop offset="0.53" stop-color="#736E66"/>
<stop offset="0.64" stop-color="#86817B"/>
<stop offset="0.74" stop-color="#9E9B95"/>
<stop offset="0.84" stop-color="#BCBAB6"/>
<stop offset="0.93" stop-color="#DFDEDC"/>
<stop offset="1" stop-color="white"/>
</radialGradient>
</defs>
</svg>
