<svg width="80" height="77" viewBox="0 0 80 77" fill="none" xmlns="http://www.w3.org/2000/svg">
<path d="M40.9998 38.1803C46.7917 39.9745 50.0496 47.3717 50.5375 52.9275C50.6949 54.643 50.6005 56.4687 49.7506 57.9639C48.2711 60.5607 44.0532 60.9542 41.3776 61.0801C39.1427 61.1903 36.7346 61.3477 34.7043 60.482C33.036 59.7738 30.9271 60.0414 29.3532 59.16C27.6377 58.1999 27.4016 55.8549 27.496 53.8875C27.6219 51.6054 27.921 49.3233 28.3931 47.0726C28.7866 45.1997 29.3374 43.2796 30.6123 41.8316C32.7213 39.4394 37.8364 37.1887 40.9841 38.1645L40.9998 38.1803Z" fill="#697D8F"/>
<path d="M54.8659 44.1298C54.2364 45.2 54.0632 46.7109 54.079 47.7812C54.079 49.0403 54.1891 50.3308 53.8271 51.5427C53.2606 53.4628 51.4663 54.958 49.4675 55.1626C48.7278 55.2413 47.9723 55.1626 47.2641 55.3358C45.281 55.8237 45.2181 58.4678 47.0123 59.2862C47.8936 59.6796 48.9009 59.6167 49.8452 59.4436C51.8441 59.0816 53.7957 58.2789 55.3066 56.9411C56.8175 55.6033 57.8563 53.6674 57.935 51.6372C57.9664 50.4882 57.7146 49.2449 58.2812 48.2376C58.5488 47.7497 58.9895 47.3562 59.2413 46.8526C59.9653 45.3574 58.8635 42.8707 57.1008 42.8392C56.0463 42.8235 55.3381 43.3743 54.8816 44.1455L54.8659 44.1298Z" fill="#697D8F"/>
<path d="M32.3122 41.7842C29.0385 43.4998 27.6535 47.0567 27.1341 50.5192C26.8823 52.2348 26.7092 54.029 26.9138 55.776C27.0712 57.2554 27.5748 58.7349 28.771 59.6949C29.8569 60.5606 31.2577 60.7966 32.5955 60.7494C33.3509 60.7179 33.3509 59.5375 32.5955 59.569C31.6197 59.6162 30.6124 59.5061 29.7625 58.9709C28.708 58.3099 28.2673 57.0823 28.0942 55.9019C27.8738 54.3595 28.0155 52.7227 28.2201 51.1803C28.4247 49.6379 28.7395 48.0955 29.3848 46.6947C30.1402 45.0579 31.2891 43.6572 32.9102 42.8073C33.587 42.4453 32.9889 41.438 32.3122 41.7842Z" fill="#231F20"/>
<path d="M32.5642 55.9964C32.5957 56.9722 32.6901 57.9637 32.8947 58.908C33.0678 59.7422 33.4771 60.5921 34.2797 60.9856C34.7047 61.1902 35.1454 61.2689 35.6018 61.2846C36.0267 61.2846 36.4989 61.2531 36.9081 61.1587C37.396 61.0485 37.8209 60.7495 38.057 60.3088C38.2616 59.9311 38.3561 59.5061 38.419 59.0812C38.5921 57.9795 38.6394 56.862 38.5134 55.7446C38.4977 55.5872 38.4662 55.4455 38.3403 55.3196C38.2302 55.2094 38.0728 55.1465 37.9154 55.1465C37.6321 55.1465 37.2858 55.414 37.3173 55.7446C37.4117 56.6259 37.4117 57.5073 37.3173 58.3887C37.3173 58.4516 37.3173 58.4988 37.3016 58.5618C37.3016 58.5933 37.3016 58.609 37.3016 58.6405C37.3016 58.7349 37.3016 58.5303 37.3016 58.6405C37.2858 58.7507 37.2701 58.8608 37.2544 58.971C37.2229 59.1441 37.1914 59.333 37.1442 59.5061C37.1442 59.5533 37.1127 59.5848 37.097 59.632C37.097 59.6478 37.097 59.6635 37.0812 59.6792C37.0655 59.7422 37.1127 59.6163 37.1127 59.6163C37.0812 59.6478 37.0812 59.695 37.0655 59.7265C37.0497 59.7737 37.0183 59.8051 36.9868 59.8524C36.9868 59.8524 36.9711 59.8838 36.9553 59.8996C36.9553 59.8996 37.034 59.8051 36.9868 59.8524C36.9553 59.8838 36.9238 59.9153 36.8924 59.9468C36.9711 59.8996 36.8924 59.9468 36.8766 59.9468C36.8451 59.9625 36.7665 59.994 36.7507 60.0098C36.7822 59.9625 36.8451 59.9783 36.7822 60.0098C36.7664 60.0098 36.7507 60.0098 36.7192 60.0255C36.672 60.0255 36.6248 60.057 36.5776 60.057C36.5304 60.057 36.4989 60.0727 36.4517 60.0884C36.4202 60.0884 36.4045 60.0884 36.373 60.0884C36.2943 60.0884 36.373 60.0884 36.4045 60.0884C36.3258 60.1199 36.2156 60.1042 36.1369 60.1199C36.0425 60.1199 35.9638 60.1199 35.8693 60.1357C35.6962 60.1357 35.5074 60.1357 35.3342 60.1357C35.3185 60.1357 35.3027 60.1357 35.2713 60.1357C35.2083 60.1357 35.3342 60.1357 35.3342 60.1357C35.287 60.1357 35.2398 60.1357 35.2083 60.1199C35.1139 60.1042 35.0194 60.0727 34.9408 60.0412C34.9093 60.0412 34.8778 60.0098 34.8306 60.0098C34.8306 60.0098 34.9565 60.0727 34.8621 60.0098C34.8463 60.0098 34.8306 59.994 34.8148 59.9783C34.7362 59.9311 34.6575 59.8838 34.5945 59.8366C34.5315 59.7894 34.6732 59.9153 34.626 59.8524C34.626 59.8524 34.5945 59.8209 34.5788 59.8209C34.5473 59.7894 34.5158 59.7579 34.4843 59.7265C34.4529 59.695 34.4371 59.6792 34.4056 59.6478C34.4056 59.632 34.3427 59.5691 34.4056 59.6478C34.3584 59.5848 34.3269 59.5219 34.2797 59.4432C34.264 59.4117 34.2325 59.3645 34.2168 59.333C34.2168 59.3172 34.2168 59.3015 34.201 59.2858C34.2797 59.4117 34.2325 59.3487 34.201 59.3015C34.1381 59.1441 34.0909 58.971 34.0436 58.7979C33.9964 58.5933 33.965 58.4044 33.9335 58.1998C33.9177 58.0739 33.902 57.9637 33.8863 57.8378C33.8863 57.8221 33.8705 57.7119 33.8863 57.7906C33.902 57.8693 33.8863 57.7591 33.8863 57.7434C33.8863 57.6804 33.8705 57.6175 33.8705 57.5545C33.8076 57.0509 33.7761 56.5472 33.7604 56.0279C33.7604 55.7131 33.4928 55.4298 33.1623 55.4298C32.8318 55.4298 32.5642 55.6816 32.5642 56.0279V55.9964Z" fill="#231F20"/>
<path d="M45.564 42.7918C47.8619 44.5388 48.9164 47.6708 49.4515 50.3936C49.7348 51.8415 49.8922 53.3052 49.8764 54.7847C49.8607 55.8392 49.7191 56.9094 49.1525 57.8222C48.4442 58.9712 47.1694 59.4433 45.8631 59.5535C45.1076 59.6165 45.1076 60.7969 45.8631 60.7339C47.2638 60.6237 48.6803 60.1988 49.6404 59.1286C50.4902 58.1842 50.8522 56.9881 50.9939 55.7447C51.167 54.1709 50.9939 52.5655 50.7421 51.0074C50.4902 49.4492 50.081 47.8439 49.4515 46.3487C48.696 44.5702 47.7045 42.9649 46.1464 41.7845C45.8945 41.5956 45.4853 41.753 45.3437 41.9891C45.1706 42.2881 45.2965 42.6029 45.5483 42.7918H45.564Z" fill="#231F20"/>
<path d="M44.7301 55.9965C44.7301 56.4529 44.6829 56.8936 44.6357 57.35C44.6357 57.4602 44.6199 57.5546 44.6042 57.6648C44.6042 57.6963 44.6042 57.712 44.6042 57.7435C44.6042 57.8065 44.5884 57.8694 44.5727 57.9324C44.5412 58.1212 44.5098 58.3101 44.4783 58.5147C44.4468 58.6878 44.3996 58.8609 44.3524 59.0341C44.3209 59.1128 44.3051 59.1915 44.2737 59.2701L44.2422 59.3331C44.2422 59.3331 44.2894 59.2229 44.2579 59.2701C44.2422 59.3174 44.2107 59.3646 44.195 59.3961C44.1635 59.459 44.1163 59.5377 44.0691 59.6007C44.0691 59.6164 44.0376 59.6479 44.0218 59.6636C44.0218 59.6636 44.1005 59.5692 44.0533 59.6164C44.0219 59.6479 43.9904 59.6951 43.9589 59.7266C43.9274 59.7581 43.9117 59.7738 43.8802 59.8053C43.8645 59.821 43.8487 59.8367 43.8172 59.8525C43.77 59.8997 43.8645 59.821 43.8645 59.821C43.7858 59.8525 43.7228 59.9154 43.6441 59.9627C43.6284 59.9627 43.4867 60.0413 43.5812 59.9941C43.6599 59.9627 43.5339 59.9941 43.5182 60.0099C43.4395 60.0413 43.3451 60.0571 43.2664 60.0728C43.2192 60.0728 43.172 60.0728 43.1405 60.0886C43.0775 60.0886 43.2034 60.0886 43.2034 60.0886H43.1247C43.0303 60.0886 42.9516 60.0886 42.8572 60.0886C42.6683 60.0886 42.4952 60.0886 42.3063 60.0728C42.2276 60.0728 42.1332 60.0571 42.0545 60.0413C41.9916 60.0413 42.1175 60.0413 42.1175 60.0413C42.086 60.0413 42.0545 60.0413 42.0388 60.0413C41.9916 60.0413 41.9286 60.0256 41.8814 60.0099C41.8342 60.0099 41.8027 59.9941 41.7555 59.9784C41.724 59.9784 41.7083 59.9627 41.6768 59.9469C41.661 59.9469 41.6296 59.9154 41.6138 59.8997C41.5981 59.8997 41.5823 59.884 41.5666 59.8682C41.5037 59.8367 41.6453 59.9469 41.5981 59.8997C41.5666 59.8682 41.5351 59.8367 41.5037 59.8053C41.4564 59.7423 41.425 59.6636 41.3777 59.5849C41.3463 59.522 41.4092 59.6479 41.4092 59.6479C41.4092 59.6321 41.3935 59.6007 41.3777 59.5849C41.3777 59.5534 41.362 59.522 41.3463 59.4748C41.3148 59.3803 41.299 59.3016 41.2833 59.2072C41.2361 59.0026 41.2046 58.798 41.1731 58.5934C41.1731 58.5304 41.1731 58.6249 41.1731 58.6249C41.1731 58.5934 41.1731 58.5619 41.1731 58.5304C41.1731 58.4675 41.1731 58.4045 41.1574 58.3416C41.1574 58.2157 41.1259 58.0897 41.1259 57.9638C41.1102 57.712 41.0944 57.4759 41.0944 57.2241C41.0944 56.7205 41.1102 56.2168 41.1731 55.7289C41.2046 55.4142 40.8741 55.1309 40.5751 55.1309C40.2288 55.1309 40.0242 55.3984 39.977 55.7289C39.8668 56.689 39.8826 57.6491 40.0085 58.6091C40.1344 59.5692 40.276 60.6237 41.2518 61.0329C41.6768 61.206 42.1489 61.2532 42.5896 61.269C43.0146 61.2847 43.4553 61.269 43.8645 61.1273C44.2894 60.9857 44.6829 60.7496 44.9662 60.3876C45.2495 60.0256 45.4383 59.6164 45.5485 59.1915C45.6902 58.6878 45.7531 58.1527 45.8161 57.6333C45.879 57.0825 45.9262 56.5474 45.942 55.9965C45.942 55.6817 45.6587 55.3984 45.3439 55.3984C45.0134 55.3984 44.7616 55.6502 44.7458 55.9965H44.7301Z" fill="#231F20"/>
<path d="M51.7024 55.0523C53.292 54.2969 54.0317 52.5027 54.2521 50.8501C54.4882 49.0087 54.1734 46.9626 55.0548 45.2471C55.2436 44.8694 55.4797 44.5389 55.7787 44.2556C56.0306 44.0195 56.5027 43.6418 56.8804 43.7362C57.6202 43.9093 57.9349 42.7761 57.1952 42.603C56.2352 42.3827 55.2751 43.028 54.677 43.7205C54.079 44.413 53.717 45.2314 53.5124 46.097C53.0402 48.0801 53.4651 50.1891 52.7412 52.1249C52.4421 52.9434 51.907 53.6516 51.1043 54.0293C50.821 54.171 50.7423 54.5802 50.8997 54.832C51.0729 55.131 51.4191 55.1783 51.7024 55.0366V55.0523Z" fill="#231F20"/>
<path d="M49.7824 59.8684C52.7413 59.9943 55.6058 58.3417 57.1324 55.8393C57.9823 54.4543 58.2341 52.9433 58.3285 51.3537C58.3758 50.5038 58.4072 49.6382 58.6433 48.8041C58.8794 47.9699 59.4303 47.3089 59.7608 46.5219C60.3116 45.1369 59.7136 43.1696 58.2184 42.666C57.4944 42.4299 57.1796 43.5631 57.9036 43.7991C58.3443 43.9408 58.5961 44.4602 58.722 44.8851C58.8951 45.4832 58.7535 45.9868 58.4545 46.5219C58.0925 47.183 57.699 47.7968 57.4944 48.5365C57.2898 49.2762 57.2268 50.0789 57.1796 50.8501C57.1009 52.2351 57.0065 53.5886 56.3455 54.832C55.7474 55.9494 54.866 56.8938 53.7958 57.5705C52.5996 58.326 51.2146 58.7352 49.7824 58.6722C49.027 58.6408 49.027 59.8212 49.7824 59.8526V59.8684Z" fill="#231F20"/>
<path d="M34.5945 59.1127C34.5945 59.2229 34.5945 59.333 34.626 59.459C34.626 59.5376 34.6574 59.6163 34.6732 59.695C34.7047 59.8052 34.7519 59.9154 34.7991 60.0098C34.8306 60.0885 34.8778 60.1515 34.925 60.2302C34.9565 60.2774 34.988 60.3088 35.0194 60.3403C35.0509 60.3718 35.0981 60.4033 35.1611 60.4033C35.2083 60.419 35.2712 60.419 35.3185 60.4033C35.3657 60.4033 35.4129 60.3875 35.4601 60.3561C35.5388 60.3089 35.6175 60.2144 35.6332 60.12C35.649 60.0256 35.649 59.8996 35.586 59.821C35.5231 59.7423 35.4759 59.6478 35.4444 59.5534L35.4916 59.6478C35.4286 59.5219 35.3972 59.3803 35.3814 59.2386V59.3488C35.3814 59.3488 35.3814 59.1914 35.3814 59.1127C35.3814 59.0655 35.3814 59.0025 35.3499 58.9553C35.3342 58.9081 35.3027 58.8609 35.2712 58.8294C35.2398 58.7979 35.1926 58.7665 35.1453 58.7507C35.0981 58.7192 35.0509 58.7192 34.988 58.7192C34.8935 58.7192 34.7833 58.7507 34.7047 58.8294C34.626 58.9081 34.5945 59.0025 34.5945 59.1127Z" fill="#231F20"/>
<path d="M35.8849 59.4903L36.0266 60.2773C36.0266 60.2773 36.0581 60.3717 36.0895 60.4189C36.121 60.4661 36.1525 60.4976 36.1997 60.5134C36.2469 60.5448 36.2941 60.5606 36.3413 60.5606C36.3886 60.5606 36.4515 60.5606 36.4987 60.5606L36.5932 60.5134C36.5932 60.5134 36.7033 60.4347 36.7348 60.3717L36.782 60.2773C36.782 60.2773 36.7978 60.1356 36.782 60.0727L36.6404 59.2857C36.6404 59.2857 36.6089 59.1913 36.5774 59.1441C36.546 59.0969 36.5145 59.0654 36.4673 59.0497C36.42 59.0182 36.3728 59.0024 36.3256 59.0024C36.2784 59.0024 36.2154 59.0024 36.1682 59.0024L36.0738 59.0497C36.0738 59.0497 35.9636 59.1283 35.9321 59.1913L35.8849 59.2857C35.8849 59.2857 35.8692 59.4274 35.8849 59.4903Z" fill="#231F20"/>
<path d="M41.7872 59.0181C41.7557 59.1283 41.74 59.2385 41.74 59.3486C41.74 59.4273 41.74 59.506 41.74 59.6004C41.74 59.7106 41.7715 59.8208 41.8029 59.931C41.8344 60.0411 41.8816 60.1513 41.9289 60.2457C41.9603 60.293 41.9918 60.3244 42.0233 60.3559C42.0548 60.3874 42.102 60.4189 42.1649 60.4189C42.2122 60.4346 42.2751 60.4346 42.3223 60.4189C42.3695 60.4189 42.4168 60.4031 42.464 60.3716C42.5427 60.3244 42.6214 60.23 42.6371 60.1356V60.0254C42.6371 60.0254 42.6371 59.8837 42.5899 59.8208C42.5899 59.8051 42.5741 59.7893 42.5584 59.7578L42.6056 59.8523C42.5584 59.7421 42.5269 59.6319 42.5112 59.506V59.6162C42.5112 59.4903 42.5112 59.3801 42.5112 59.2542V59.3644C42.5112 59.3644 42.5112 59.2542 42.5269 59.207C42.5427 59.1598 42.5427 59.0968 42.5269 59.0496C42.5269 59.0024 42.5112 58.9552 42.4797 58.9079C42.4482 58.8607 42.4168 58.8293 42.3853 58.7978C42.3538 58.7663 42.3066 58.7348 42.2436 58.7348C42.1492 58.7191 42.0233 58.7191 41.9446 58.782C41.8659 58.845 41.7872 58.9237 41.7715 59.0181H41.7872Z" fill="#231F20"/>
<path d="M43.0775 59.365C43.0775 59.365 43.0932 59.4594 43.1089 59.4909V59.3807C43.1089 59.5066 43.1089 59.6325 43.1089 59.7427V59.6325C43.1089 59.7584 43.0775 59.8686 43.0303 59.9788L43.0775 59.8843C43.0775 59.8843 43.0617 59.9316 43.046 59.9473C43.0145 59.9945 42.9988 60.0417 42.9988 60.0889C42.9988 60.1362 42.9988 60.1991 42.9988 60.2463C42.9988 60.2935 43.0303 60.3408 43.0617 60.388C43.0932 60.4352 43.1247 60.4667 43.1719 60.4824C43.2663 60.5296 43.3765 60.5611 43.4709 60.5296C43.5654 60.4982 43.6598 60.4352 43.707 60.3565C43.7542 60.2621 43.8015 60.1519 43.8329 60.0417C43.8644 59.9316 43.8801 59.8214 43.8959 59.7112C43.8959 59.6325 43.8959 59.5538 43.8959 59.4751C43.8959 59.365 43.8801 59.2548 43.8487 59.1446C43.8487 59.0974 43.8172 59.0502 43.7857 59.003C43.7542 58.9558 43.7228 58.9243 43.6755 58.9085C43.6283 58.8771 43.5811 58.8613 43.5339 58.8613C43.4867 58.8613 43.4237 58.8613 43.3765 58.8613C43.2821 58.8928 43.1876 58.9558 43.1404 59.0345L43.0932 59.1289C43.0932 59.1289 43.0775 59.2705 43.0932 59.3335L43.0775 59.365Z" fill="#231F20"/>
<path d="M22.1923 19.4674C22.1923 19.4674 22.1923 19.5933 22.1923 19.672C22.1136 21.7967 22.4284 23.9214 23.1052 25.936C23.1681 26.1249 23.2311 26.3137 23.2311 26.5183C23.2311 26.7544 23.1209 26.959 23.0265 27.1636C20.8073 31.901 19.076 36.7957 22.0192 41.7219C22.3025 42.2098 22.633 42.6663 23.0579 43.0597C23.5144 43.4689 24.0652 43.7837 24.6003 44.067C29.0701 46.5065 33.8862 46.8842 38.9698 46.6954C41.551 46.601 44.1479 46.4593 46.6818 45.9557C48.8537 45.5307 51.4034 45.3576 53.2291 43.8624C55.0548 42.3672 56.6759 39.0778 57.0536 36.6698C57.3684 34.6867 57.1166 32.625 56.3611 30.7678C55.7001 29.1624 54.3308 28.1394 54.7715 26.4082C55.5742 23.1975 57.3054 19.8766 55.4797 16.5872C55.4168 16.4613 55.3381 16.3354 55.1964 16.2881C55.0705 16.2409 54.9446 16.2881 54.8187 16.3196C53.4022 16.7131 51.9543 17.2797 50.6794 18.0351C50.3489 18.2398 47.2012 21.0098 47.39 21.0885C44.62 19.8608 41.2362 19.8294 38.2458 19.9553C37.0182 20.0025 35.7119 19.8136 34.4843 20.0182C33.5242 20.1914 31.5883 20.6163 30.7699 21.1042C29.5738 19.1211 27.8425 17.7676 25.8909 16.6187C25.4974 16.3826 25.0725 16.1622 24.6161 16.1308C23.8134 16.0678 23.0579 16.6344 22.6645 17.3426C22.3025 17.9879 22.1923 18.7434 22.1608 19.4831L22.1923 19.4674Z" fill="#697D8F"/>
<path d="M31.7774 35.694C33.1073 35.694 34.1854 34.6159 34.1854 33.286C34.1854 31.956 33.1073 30.8779 31.7774 30.8779C30.4475 30.8779 29.3694 31.956 29.3694 33.286C29.3694 34.6159 30.4475 35.694 31.7774 35.694Z" fill="#FEDA00"/>
<path d="M46.4145 35.7411C47.7705 35.7411 48.8697 34.6418 48.8697 33.2858C48.8697 31.9298 47.7705 30.8306 46.4145 30.8306C45.0585 30.8306 43.9592 31.9298 43.9592 33.2858C43.9592 34.6418 45.0585 35.7411 46.4145 35.7411Z" fill="#FEDA00"/>
<path d="M31.777 34.8284C32.6289 34.8284 33.3194 34.1379 33.3194 33.2861C33.3194 32.4342 32.6289 31.7437 31.777 31.7437C30.9252 31.7437 30.2346 32.4342 30.2346 33.2861C30.2346 34.1379 30.9252 34.8284 31.777 34.8284Z" fill="#231F20"/>
<path d="M46.4145 34.8284C47.2663 34.8284 47.9569 34.1379 47.9569 33.2861C47.9569 32.4342 47.2663 31.7437 46.4145 31.7437C45.5626 31.7437 44.8721 32.4342 44.8721 33.2861C44.8721 34.1379 45.5626 34.8284 46.4145 34.8284Z" fill="#231F20"/>
<path d="M38.7021 35.9139C39.4671 35.9139 40.0872 35.5263 40.0872 35.0482C40.0872 34.5702 39.4671 34.1826 38.7021 34.1826C37.9372 34.1826 37.3171 34.5702 37.3171 35.0482C37.3171 35.5263 37.9372 35.9139 38.7021 35.9139Z" fill="#231F20"/>
<path d="M29.6517 22.2373C35.2232 19.9551 41.5187 19.7663 47.2318 21.7336C47.9558 21.9854 48.2548 20.8365 47.5466 20.6004C41.676 18.5701 35.0973 18.7433 29.3526 21.1041C29.0536 21.23 28.849 21.4975 28.9434 21.828C29.0221 22.1113 29.3684 22.3632 29.6674 22.2373H29.6517Z" fill="#231F20"/>
<path d="M24.285 16.6341C25.2451 17.0433 26.1894 17.484 27.0708 18.0506C27.2596 18.1765 27.4328 18.2866 27.6059 18.4283C27.6531 18.4598 27.7003 18.4912 27.7318 18.5227C27.7633 18.5542 27.8262 18.6172 27.7161 18.5227C27.7318 18.5385 27.7475 18.5542 27.779 18.5699C27.8734 18.6486 27.9521 18.7116 28.0466 18.7903C28.4086 19.0893 28.7391 19.4198 29.0696 19.7503C29.5103 20.2068 29.9195 20.6789 30.3287 21.1511C30.5333 21.3872 30.9582 21.3714 31.1628 21.1511C31.3989 20.8993 31.3832 20.5688 31.1628 20.3169C30.4861 19.5143 29.7778 18.7273 28.9752 18.0348C28.2512 17.421 27.4642 16.8859 26.6143 16.4452C26.0478 16.1462 25.4654 15.8786 24.8673 15.6268C24.584 15.5009 24.2221 15.5324 24.0647 15.8314C23.923 16.0832 23.9702 16.5082 24.2693 16.6341H24.285Z" fill="#231F20"/>
<path d="M22.4435 16.6496C21.4205 19.4511 21.4363 22.5674 22.3334 25.4004C22.5065 25.9512 22.7268 26.5021 22.9787 27.0372C23.1203 27.3205 23.5295 27.3992 23.7813 27.2418C24.0804 27.0687 24.1276 26.7224 23.9859 26.4391C23.9387 26.3447 23.9072 26.266 23.86 26.1716C23.8443 26.1243 23.8128 26.0771 23.7971 26.0299C23.8443 26.1243 23.7813 25.9827 23.7656 25.9512C23.6712 25.7151 23.5767 25.4791 23.498 25.243C23.3249 24.7079 23.1833 24.157 23.0731 23.6061C22.8055 22.2841 22.7583 20.9148 22.9157 19.5613C23.0259 18.6799 23.2462 17.8143 23.561 16.9801C23.6712 16.6811 23.4351 16.3348 23.1518 16.2562C22.8213 16.1617 22.538 16.3663 22.4278 16.6654L22.4435 16.6496Z" fill="#231F20"/>
<path d="M25.1819 20.1125C25.6069 20.3329 26.0476 20.5532 26.4253 20.8365L26.2994 20.7421C26.4568 20.8522 26.5827 20.9939 26.7086 21.1355L26.6142 21.0096C26.8975 21.3874 27.0863 21.828 27.2752 22.253C27.3382 22.3789 27.4955 22.4891 27.6214 22.5205C27.7631 22.552 27.952 22.5363 28.0779 22.4576C28.2038 22.3789 28.314 22.253 28.3454 22.1113V21.9539C28.3612 21.8438 28.3454 21.7493 28.2825 21.6549C28.1723 21.4031 28.0621 21.1513 27.9362 20.9152C27.8261 20.6949 27.6844 20.4902 27.527 20.3014C27.2752 19.9709 26.9132 19.719 26.567 19.5144C26.2994 19.3571 26.0318 19.2154 25.7643 19.0738C25.6226 18.9951 25.4652 18.9793 25.3079 19.0108C25.1662 19.0423 25.0246 19.1525 24.9616 19.2784C24.8829 19.42 24.8514 19.5774 24.8986 19.7348C24.9459 19.8764 25.0403 20.0181 25.1662 20.081L25.1819 20.1125Z" fill="#231F20"/>
<path d="M24.9463 24.9917C21.3579 27.6358 19.7368 31.9325 20.0831 36.3078C20.2404 38.2122 20.6811 40.1481 21.6255 41.8164C22.5698 43.4847 23.9705 44.791 25.6703 45.6252C27.9209 46.7269 30.4706 46.9472 32.9416 46.6797C33.6813 46.601 33.6971 45.4206 32.9416 45.4993C29.2115 45.9085 25.1352 45.0586 22.9475 41.722C21.0589 38.826 20.7598 34.7182 21.7356 31.4603C22.3809 29.2726 23.7187 27.3682 25.5444 26.0147C26.1425 25.574 25.5601 24.551 24.9463 24.9917Z" fill="#231F20"/>
<path d="M48.2709 21.3242C48.6801 20.8521 49.0736 20.3484 49.53 19.9077C49.9865 19.467 50.4586 19.0893 50.9308 18.7116C51.5603 18.2237 52.2528 17.7987 52.9611 17.4525C53.2601 17.3108 53.5749 17.1849 53.8897 17.0905C54.0313 17.0433 54.173 17.0118 54.3304 16.9803C54.3618 16.9803 54.535 16.9489 54.472 16.9489C54.409 16.9489 54.472 16.9489 54.4877 16.9489C54.5192 16.9489 54.5664 16.9489 54.5979 16.9489C54.7238 16.9489 54.5507 16.9174 54.6451 16.9489C54.6609 16.9489 54.8183 16.9961 54.7396 16.9646C54.6609 16.9331 54.8025 16.9961 54.8183 17.0118C54.8655 17.0433 54.9756 17.1377 54.8812 17.0433C54.9599 17.122 55.0386 17.1849 55.1016 17.2794C55.0386 17.2007 55.1015 17.2794 55.1173 17.3266C55.1645 17.3895 55.196 17.4525 55.2432 17.5312C55.2747 17.5784 55.3062 17.6414 55.3219 17.7043C55.3219 17.7358 55.3848 17.846 55.3534 17.7673C55.4163 17.9089 55.4635 18.0506 55.495 18.1922C55.5737 18.4598 55.6209 18.7273 55.6681 18.9949C55.6839 19.1208 55.6681 19.0421 55.6681 19.0106C55.6681 19.0421 55.6681 19.0736 55.6681 19.1051C55.6681 19.168 55.6681 19.2467 55.6839 19.3097C55.6839 19.4513 55.6996 19.593 55.6996 19.7346C55.6996 20.0022 55.6996 20.254 55.6681 20.5215C55.5895 21.2298 55.495 21.9223 55.3376 22.6148C55.2117 23.1971 55.0386 23.7637 54.8183 24.3303C54.5822 24.9284 54.3304 25.495 54.0471 26.156C53.9211 26.455 53.9684 26.7856 54.2517 26.9587C54.5035 27.1003 54.9284 27.0374 55.0543 26.7541C55.558 25.6052 56.0931 24.4562 56.3921 23.2286C56.581 22.4889 56.6754 21.7334 56.7699 20.978C56.8486 20.3484 56.8958 19.7346 56.8171 19.0893C56.6912 17.9719 56.3449 16.461 55.2117 15.9573C54.5664 15.674 53.8739 15.8471 53.2444 16.0675C52.426 16.3508 51.6548 16.76 50.9308 17.2321C50.2068 17.7043 49.4828 18.2866 48.8375 18.869C48.3024 19.3569 47.8303 19.9392 47.3581 20.4901C47.1535 20.7261 47.122 21.0881 47.3581 21.3242C47.5627 21.5288 47.9876 21.5603 48.1922 21.3242H48.2709Z" fill="#231F20"/>
<path d="M53.1032 18.6173C51.97 19.2311 51.0414 20.2069 50.3961 21.3086C50.2387 21.5604 50.1128 21.828 49.9869 22.0955C49.924 22.2372 49.8767 22.3946 49.924 22.552C49.9554 22.6936 50.0656 22.8353 50.1915 22.8982C50.3332 22.9769 50.4906 23.0084 50.6479 22.9612C50.7896 22.9139 50.9312 22.8195 50.9942 22.6936C51.246 22.1427 51.5608 21.6234 51.9228 21.1512L51.8284 21.2771C52.1746 20.8364 52.5681 20.4272 53.0088 20.081L52.8829 20.1754C53.1347 19.9865 53.4022 19.8134 53.6855 19.656C53.9688 19.4986 54.0633 19.1052 53.8901 18.8534C53.717 18.5701 53.3708 18.4914 53.0875 18.6487L53.1032 18.6173Z" fill="#231F20"/>
<path d="M52.2527 25.9196C55.1801 28.4378 56.9743 32.2623 56.628 36.1498C56.3448 39.4707 54.283 42.7128 51.3398 44.3182C49.4669 45.3255 47.3422 45.5773 45.2489 45.3097C44.4935 45.2153 44.5092 46.3957 45.2489 46.4901C49.2938 47.0095 53.134 45.4042 55.5421 42.1148C57.9501 38.8254 58.438 34.7018 57.1002 30.956C56.2975 28.6896 54.8968 26.6593 53.0711 25.0854C52.5045 24.5975 51.6546 25.4317 52.2369 25.9196H52.2527Z" fill="#231F20"/>
<path d="M42.1014 36.9367C41.8181 37.3617 41.3774 37.8496 40.8108 37.8024C40.5433 37.7709 40.3387 37.6293 40.1183 37.4719C39.8823 37.2987 39.6462 37.1099 39.3629 36.984C39.0796 36.8581 38.812 36.7951 38.5445 36.8738C38.3084 36.9525 38.1195 37.0941 37.9307 37.2515C37.5687 37.5506 37.2382 37.9125 36.8132 37.9912C36.8132 37.9912 36.7503 37.9912 36.6873 37.9912C36.6243 37.9912 36.5456 37.9912 36.4827 37.9598C36.3253 37.9283 36.1837 37.8653 36.0577 37.8024C35.7744 37.645 35.5698 37.4089 35.4125 37.1099C35.318 36.921 35.0505 36.8738 34.8773 36.9682C34.6885 37.0784 34.6413 37.3145 34.7357 37.5033C35.0505 38.1486 35.6958 38.6365 36.404 38.7467C37.065 38.8569 37.6001 38.5578 38.088 38.1329C38.2769 37.9755 38.45 37.8024 38.6232 37.6922C38.6704 37.6607 38.7019 37.645 38.7491 37.6135C38.812 37.582 38.6704 37.6607 38.7491 37.6135C38.7648 37.6135 38.7963 37.6135 38.812 37.6135C38.7176 37.645 38.8278 37.6135 38.8592 37.6135C38.8907 37.6135 38.9852 37.645 39.0166 37.6607C39.2999 37.7866 39.5517 38.007 39.8193 38.1801C40.1341 38.3847 40.4489 38.5264 40.8266 38.5578C41.6765 38.6208 42.369 37.9755 42.7939 37.3145C42.9041 37.1414 42.8254 36.8738 42.6523 36.7794C42.4634 36.6692 42.2273 36.7479 42.1172 36.921L42.1014 36.9367Z" fill="#231F20"/>
</svg>
