<svg width="80" height="77" viewBox="0 0 80 77" fill="none" xmlns="http://www.w3.org/2000/svg">
<path d="M41.4083 38.0089C47.2001 39.8031 50.4581 47.2003 50.946 52.7561C51.1033 54.4716 51.0089 56.2973 50.159 57.7925C48.6796 60.3894 44.4616 60.7828 41.786 60.9087C39.5511 61.0189 37.1431 61.1763 35.1128 60.3107C33.4445 59.6024 31.3355 59.87 29.7616 58.9886C28.0461 58.0285 27.81 55.6835 27.9045 53.7161C28.0304 51.434 28.3294 49.1519 28.8016 46.9013C29.195 45.0283 29.7459 43.1082 31.0207 41.6603C33.1297 39.268 38.2448 37.0173 41.3926 37.9931L41.4083 38.0089Z" fill="#697D8F"/>
<path d="M55.2746 43.9589C54.645 45.0291 54.4719 46.54 54.4877 47.6103C54.4877 48.8694 54.5978 50.1599 54.2358 51.3718C53.6692 53.2919 51.875 54.7871 49.8762 54.9917C49.1365 55.0704 48.381 54.9917 47.6728 55.1649C45.6897 55.6528 45.6267 58.2969 47.421 59.1153C48.3023 59.5087 49.3096 59.4458 50.2539 59.2727C52.2528 58.9107 54.2044 58.108 55.7153 56.7702C57.2262 55.4324 58.265 53.4965 58.3436 51.4663C58.3751 50.3173 58.1233 49.074 58.6899 48.0667C58.9575 47.5788 59.3981 47.1853 59.65 46.6817C60.3739 45.1865 59.2722 42.6998 57.5095 42.6683C56.455 42.6526 55.7468 43.2034 55.2903 43.9746L55.2746 43.9589Z" fill="#697D8F"/>
<path d="M32.7211 41.6124C29.4474 43.3279 28.0624 46.8848 27.5431 50.3474C27.2912 52.0629 27.1181 53.8571 27.3227 55.6041C27.4801 57.0835 27.9837 58.563 29.1799 59.523C30.2659 60.3887 31.6666 60.6248 33.0044 60.5775C33.7599 60.5461 33.7599 59.3657 33.0044 59.3971C32.0286 59.4444 31.0213 59.3342 30.1714 58.7991C29.1169 58.138 28.6762 56.9104 28.5031 55.73C28.2828 54.1876 28.4244 52.5508 28.629 51.0084C28.8336 49.466 29.1484 47.9236 29.7937 46.5229C30.5492 44.886 31.6981 43.4853 33.3192 42.6354C33.9959 42.2734 33.3979 41.2661 32.7211 41.6124Z" fill="#231F20"/>
<path d="M32.9727 55.8245C33.0041 56.8003 33.0986 57.7918 33.3032 58.7362C33.4763 59.5703 33.8855 60.4202 34.6882 60.8137C35.1131 61.0183 35.5538 61.097 36.0102 61.1127C36.4352 61.1127 36.9073 61.0812 37.3165 60.9868C37.8044 60.8766 38.2294 60.5776 38.4655 60.1369C38.6701 59.7592 38.7645 59.3342 38.8275 58.9093C39.0006 57.8076 39.0478 56.6901 38.9219 55.5727C38.9062 55.4153 38.8747 55.2736 38.7488 55.1477C38.6386 55.0376 38.4812 54.9746 38.3238 54.9746C38.0405 54.9746 37.6943 55.2422 37.7258 55.5727C37.8202 56.4541 37.8202 57.3354 37.7258 58.2168C37.7258 58.2797 37.7258 58.327 37.71 58.3899C37.71 58.4214 37.71 58.4371 37.71 58.4686C37.71 58.3584 37.71 58.563 37.71 58.4686C37.6943 58.5788 37.6785 58.689 37.6628 58.7991C37.6313 58.9722 37.5998 59.1611 37.5526 59.3342C37.5526 59.3815 37.5211 59.4129 37.5054 59.4601C37.5054 59.4759 37.5054 59.4916 37.4897 59.5074C37.4739 59.5703 37.5212 59.4444 37.5212 59.4444C37.4897 59.4759 37.4897 59.5231 37.4739 59.5546C37.4582 59.6018 37.4267 59.6333 37.3952 59.6805C37.3952 59.6805 37.3795 59.712 37.3638 59.7277C37.3638 59.7277 37.4425 59.6333 37.3952 59.6805C37.3638 59.712 37.3323 59.7434 37.3008 59.7749C37.3795 59.7277 37.3008 59.7749 37.2851 59.7749C37.2536 59.7907 37.1749 59.8221 37.1592 59.8379C37.1906 59.7907 37.2536 59.8064 37.1906 59.8379C37.1749 59.8379 37.1592 59.8379 37.1277 59.8536C37.0805 59.8536 37.0332 59.8851 36.986 59.8851C36.9388 59.8851 36.9073 59.9008 36.8601 59.9166C36.8286 59.9166 36.8129 59.9166 36.7814 59.9166C36.7027 59.9166 36.7814 59.9166 36.8129 59.9166C36.7342 59.948 36.624 59.9323 36.5453 59.9481C36.4509 59.9481 36.3722 59.948 36.2778 59.9638C36.1047 59.9638 35.9158 59.9638 35.7427 59.9638C35.7269 59.9638 35.7112 59.9638 35.6797 59.9638C35.6168 59.9638 35.7427 59.9638 35.7427 59.9638C35.6955 59.9638 35.6482 59.9638 35.6168 59.9481C35.5223 59.9323 35.4279 59.9008 35.3492 59.8694C35.3177 59.8694 35.2862 59.8379 35.239 59.8379C35.239 59.8379 35.3649 59.9008 35.2705 59.8379C35.2548 59.8379 35.239 59.8221 35.2233 59.8064C35.1446 59.7592 35.0659 59.712 35.003 59.6648C34.94 59.6175 35.0816 59.7434 35.0344 59.6805C35.0344 59.6805 35.003 59.649 34.9872 59.649C34.9557 59.6175 34.9243 59.5861 34.8928 59.5546C34.8613 59.5231 34.8456 59.5074 34.8141 59.4759C34.7511 59.3972 34.8141 59.4602 34.8141 59.4759C34.7669 59.4129 34.7354 59.35 34.6882 59.2713C34.6724 59.2398 34.641 59.1926 34.6252 59.1611C34.6252 59.1454 34.6252 59.1296 34.6095 59.1139C34.6882 59.2398 34.641 59.1769 34.6095 59.1296C34.5465 58.9722 34.4993 58.7991 34.4521 58.626C34.4049 58.4214 34.3734 58.2325 34.3419 58.0279C34.3262 57.902 34.3104 57.7918 34.2947 57.6659C34.2947 57.6502 34.279 57.54 34.2947 57.6187C34.3104 57.6974 34.2947 57.5872 34.2947 57.5715C34.2947 57.5085 34.279 57.4456 34.279 57.3826C34.216 56.879 34.1845 56.3754 34.1688 55.856C34.1688 55.5412 33.9012 55.2579 33.5707 55.2579C33.2402 55.2579 32.9727 55.5097 32.9727 55.856V55.8245Z" fill="#231F20"/>
<path d="M45.9722 42.6204C48.2701 44.3674 49.3246 47.4994 49.8597 50.2222C50.143 51.6701 50.3004 53.1338 50.2846 54.6133C50.2689 55.6678 50.1273 56.738 49.5607 57.6509C48.8524 58.7998 47.5776 59.2719 46.2713 59.3821C45.5158 59.4451 45.5158 60.6255 46.2713 60.5625C47.672 60.4524 49.0885 60.0274 50.0486 58.9572C50.8985 58.0128 51.2604 56.8167 51.4021 55.5733C51.5752 53.9995 51.4021 52.3941 51.1503 50.836C50.8985 49.2779 50.4892 47.6725 49.8597 46.1773C49.1042 44.3988 48.1127 42.7935 46.5546 41.6131C46.3027 41.4242 45.8935 41.5816 45.7519 41.8177C45.5788 42.1167 45.7047 42.4315 45.9565 42.6204H45.9722Z" fill="#231F20"/>
<path d="M45.1393 55.8246C45.1393 56.281 45.0921 56.7217 45.0448 57.1782C45.0448 57.2883 45.0291 57.3828 45.0134 57.4929C45.0134 57.5244 45.0134 57.5401 45.0134 57.5716C45.0134 57.6346 44.9976 57.6975 44.9819 57.7605C44.9504 57.9493 44.9189 58.1382 44.8875 58.3428C44.856 58.5159 44.8088 58.6891 44.7615 58.8622C44.7301 58.9409 44.7143 59.0196 44.6828 59.0983L44.6514 59.1612C44.6514 59.1612 44.6986 59.0511 44.6671 59.0983C44.6514 59.1455 44.6199 59.1927 44.6042 59.2242C44.5727 59.2871 44.5255 59.3658 44.4782 59.4288C44.4782 59.4445 44.4468 59.476 44.431 59.4917C44.431 59.4917 44.5097 59.3973 44.4625 59.4445C44.431 59.476 44.3996 59.5232 44.3681 59.5547C44.3366 59.5862 44.3209 59.6019 44.2894 59.6334C44.2736 59.6491 44.2579 59.6649 44.2264 59.6806C44.1792 59.7278 44.2736 59.6491 44.2736 59.6491C44.1949 59.6806 44.132 59.7436 44.0533 59.7908C44.0376 59.7908 43.8959 59.8695 43.9903 59.8223C44.069 59.7908 43.9431 59.8223 43.9274 59.838C43.8487 59.8695 43.7543 59.8852 43.6756 59.901C43.6284 59.901 43.5811 59.9009 43.5497 59.9167C43.4867 59.9167 43.6126 59.9167 43.6126 59.9167H43.5339C43.4395 59.9167 43.3608 59.9167 43.2664 59.9167C43.0775 59.9167 42.9044 59.9167 42.7155 59.901C42.6368 59.901 42.5424 59.8852 42.4637 59.8695C42.4007 59.8695 42.5266 59.8695 42.5266 59.8695C42.4952 59.8695 42.4637 59.8695 42.4479 59.8695C42.4007 59.8695 42.3378 59.8537 42.2906 59.838C42.2433 59.838 42.2119 59.8223 42.1647 59.8065C42.1332 59.8065 42.1174 59.7908 42.086 59.775C42.0702 59.775 42.0387 59.7436 42.023 59.7278C42.0073 59.7278 41.9915 59.7121 41.9758 59.6963C41.9128 59.6649 42.0545 59.775 42.0073 59.7278C41.9758 59.6963 41.9443 59.6649 41.9128 59.6334C41.8656 59.5704 41.8341 59.4917 41.7869 59.413C41.7554 59.3501 41.8184 59.476 41.8184 59.476C41.8184 59.4603 41.8027 59.4288 41.7869 59.413C41.7869 59.3816 41.7712 59.3501 41.7554 59.3029C41.724 59.2084 41.7082 59.1297 41.6925 59.0353C41.6453 58.8307 41.6138 58.6261 41.5823 58.4215C41.5823 58.3586 41.5823 58.453 41.5823 58.453C41.5823 58.4215 41.5823 58.39 41.5823 58.3586C41.5823 58.2956 41.5823 58.2326 41.5666 58.1697C41.5666 58.0438 41.5351 57.9179 41.5351 57.792C41.5194 57.5401 41.5036 57.3041 41.5036 57.0522C41.5036 56.5486 41.5194 56.045 41.5823 55.5571C41.6138 55.2423 41.2833 54.959 40.9842 54.959C40.638 54.959 40.4334 55.2265 40.3862 55.5571C40.276 56.5171 40.2917 57.4772 40.4177 58.4372C40.5436 59.3973 40.6852 60.4518 41.661 60.861C42.086 61.0341 42.5581 61.0814 42.9988 61.0971C43.4238 61.1128 43.8644 61.0971 44.2736 60.9554C44.6986 60.8138 45.0921 60.5777 45.3754 60.2157C45.6587 59.8537 45.8475 59.4445 45.9577 59.0196C46.0993 58.5159 46.1623 57.9808 46.2252 57.4614C46.2882 56.9106 46.3354 56.3755 46.3512 55.8246C46.3512 55.5098 46.0679 55.2265 45.7531 55.2265C45.4226 55.2265 45.1708 55.4784 45.155 55.8246H45.1393Z" fill="#231F20"/>
<path d="M52.1111 54.88C53.7007 54.1245 54.4404 52.3303 54.6608 50.6777C54.8968 48.8363 54.5821 46.7903 55.4634 45.0748C55.6523 44.697 55.8884 44.3665 56.1874 44.0832C56.4392 43.8471 56.9114 43.4694 57.2891 43.5638C58.0289 43.737 58.3436 42.6038 57.6039 42.4306C56.6438 42.2103 55.6838 42.8556 55.0857 43.5481C54.4876 44.2406 54.1256 45.059 53.921 45.9246C53.4489 47.9077 53.8738 50.0167 53.1499 51.9526C52.8508 52.771 52.3157 53.4792 51.513 53.857C51.2297 53.9986 51.151 54.4078 51.3084 54.6596C51.4815 54.9587 51.8278 55.0059 52.1111 54.8642V54.88Z" fill="#231F20"/>
<path d="M50.1916 59.6975C53.1505 59.8234 56.0149 58.1708 57.5416 55.6684C58.3915 54.2834 58.6433 52.7724 58.7377 51.1828C58.7849 50.3329 58.8164 49.4673 59.0525 48.6332C59.2886 47.799 59.8394 47.138 60.17 46.351C60.7208 44.966 60.1227 42.9987 58.6276 42.4951C57.9036 42.259 57.5888 43.3922 58.3128 43.6282C58.7535 43.7699 59.0053 44.2893 59.1312 44.7142C59.3043 45.3123 59.1627 45.8159 58.8636 46.351C58.5017 47.0121 58.1082 47.6259 57.9036 48.3656C57.699 49.1053 57.636 49.908 57.5888 50.6792C57.5101 52.0642 57.4157 53.4177 56.7547 54.6611C56.1566 55.7785 55.2752 56.7229 54.205 57.3996C53.0088 58.1551 51.6238 58.5643 50.1916 58.5013C49.4361 58.4699 49.4361 59.6503 50.1916 59.6817V59.6975Z" fill="#231F20"/>
<path d="M35.0029 58.9423C35.0029 59.0525 35.0029 59.1626 35.0344 59.2885C35.0344 59.3672 35.0659 59.4459 35.0816 59.5246C35.1131 59.6348 35.1603 59.745 35.2075 59.8394C35.239 59.9181 35.2862 59.9811 35.3334 60.0597C35.3649 60.107 35.3964 60.1384 35.4279 60.1699C35.4594 60.2014 35.5066 60.2329 35.5695 60.2329C35.6167 60.2486 35.6797 60.2486 35.7269 60.2329C35.7741 60.2329 35.8213 60.2171 35.8686 60.1857C35.9473 60.1384 36.0259 60.044 36.0417 59.9496C36.0574 59.8551 36.0574 59.7292 35.9945 59.6505C35.9315 59.5718 35.8843 59.4774 35.8528 59.383L35.9 59.4774C35.8371 59.3515 35.8056 59.2099 35.7899 59.0682V59.1784C35.7899 59.1784 35.7899 59.021 35.7899 58.9423C35.7899 58.8951 35.7899 58.8321 35.7584 58.7849C35.7426 58.7377 35.7112 58.6905 35.6797 58.659C35.6482 58.6275 35.601 58.596 35.5538 58.5803C35.5066 58.5488 35.4594 58.5488 35.3964 58.5488C35.302 58.5488 35.1918 58.5803 35.1131 58.659C35.0344 58.7377 35.0029 58.8321 35.0029 58.9423Z" fill="#231F20"/>
<path d="M36.2941 59.3199L36.4358 60.1069C36.4358 60.1069 36.4672 60.2013 36.4987 60.2485C36.5302 60.2957 36.5617 60.3272 36.6089 60.3429C36.6561 60.3744 36.7033 60.3902 36.7505 60.3902C36.7977 60.3902 36.8607 60.3902 36.9079 60.3902L37.0023 60.3429C37.0023 60.3429 37.1125 60.2643 37.144 60.2013L37.1912 60.1069C37.1912 60.1069 37.207 59.9652 37.1912 59.9023L37.0496 59.1153C37.0496 59.1153 37.0181 59.0209 36.9866 58.9737C36.9551 58.9265 36.9237 58.895 36.8764 58.8792C36.8292 58.8478 36.782 58.832 36.7348 58.832C36.6876 58.832 36.6246 58.832 36.5774 58.832L36.483 58.8792C36.483 58.8792 36.3728 58.9579 36.3413 59.0209L36.2941 59.1153C36.2941 59.1153 36.2784 59.257 36.2941 59.3199Z" fill="#231F20"/>
<path d="M42.1957 58.8467C42.1642 58.9569 42.1484 59.0671 42.1484 59.1772C42.1484 59.2559 42.1484 59.3346 42.1484 59.4291C42.1484 59.5392 42.1799 59.6494 42.2114 59.7596C42.2429 59.8697 42.2901 59.9799 42.3373 60.0743C42.3688 60.1216 42.4003 60.153 42.4317 60.1845C42.4632 60.216 42.5104 60.2475 42.5734 60.2475C42.6206 60.2632 42.6836 60.2632 42.7308 60.2475C42.778 60.2475 42.8252 60.2317 42.8724 60.2003C42.9511 60.153 43.0298 60.0586 43.0455 59.9642V59.854C43.0455 59.854 43.0455 59.7124 42.9983 59.6494C42.9983 59.6337 42.9826 59.6179 42.9668 59.5865L43.0141 59.6809C42.9669 59.5707 42.9354 59.4605 42.9196 59.3346V59.4448C42.9196 59.3189 42.9196 59.2087 42.9196 59.0828V59.193C42.9196 59.193 42.9196 59.0828 42.9354 59.0356C42.9511 58.9884 42.9511 58.9254 42.9354 58.8782C42.9354 58.831 42.9196 58.7838 42.8882 58.7366C42.8567 58.6893 42.8252 58.6579 42.7937 58.6264C42.7622 58.5949 42.715 58.5634 42.6521 58.5634C42.5576 58.5477 42.4317 58.5477 42.353 58.6107C42.2743 58.6736 42.1957 58.7523 42.1799 58.8467H42.1957Z" fill="#231F20"/>
<path d="M43.4859 59.1931C43.4859 59.1931 43.5017 59.2875 43.5174 59.319V59.2088C43.5174 59.3347 43.5174 59.4606 43.5174 59.5708V59.4606C43.5174 59.5866 43.4859 59.6967 43.4387 59.8069L43.4859 59.7125C43.4859 59.7125 43.4702 59.7597 43.4544 59.7754C43.423 59.8226 43.4072 59.8699 43.4072 59.9171C43.4072 59.9643 43.4072 60.0272 43.4072 60.0745C43.4072 60.1217 43.4387 60.1689 43.4702 60.2161C43.5017 60.2633 43.5331 60.2948 43.5804 60.3105C43.6748 60.3578 43.785 60.3892 43.8794 60.3578C43.9738 60.3263 44.0683 60.2633 44.1155 60.1846C44.1627 60.0902 44.2099 59.98 44.2414 59.8699C44.2729 59.7597 44.2886 59.6495 44.3043 59.5393C44.3043 59.4607 44.3043 59.382 44.3043 59.3033C44.3043 59.1931 44.2886 59.0829 44.2571 58.9728C44.2571 58.9255 44.2256 58.8783 44.1942 58.8311C44.1627 58.7839 44.1312 58.7524 44.084 58.7367C44.0368 58.7052 43.9896 58.6895 43.9423 58.6895C43.8951 58.6895 43.8322 58.6895 43.785 58.6895C43.6905 58.7209 43.5961 58.7839 43.5489 58.8626L43.5017 58.957C43.5017 58.957 43.4859 59.0987 43.5017 59.1616L43.4859 59.1931Z" fill="#231F20"/>
<path d="M22.6003 19.2945C22.6003 19.2945 22.6003 19.4204 22.6003 19.4991C22.5216 21.6239 22.8364 23.7486 23.5131 25.7631C23.5761 25.952 23.639 26.1409 23.639 26.3455C23.639 26.5816 23.5289 26.7862 23.4344 26.9908C21.2153 31.7281 19.484 36.6229 22.4271 41.5491C22.7104 42.037 23.041 42.4934 23.4659 42.8869C23.9223 43.2961 24.4732 43.6109 25.0083 43.8942C29.4781 46.3337 34.2942 46.7114 39.3778 46.5225C41.9589 46.4281 44.5558 46.2865 47.0897 45.7828C49.2617 45.3579 51.8114 45.1847 53.6371 43.6896C55.4628 42.1944 57.0838 38.905 57.4616 36.497C57.7763 34.5139 57.5245 32.4521 56.7691 30.5949C56.108 28.9896 54.7388 27.9666 55.1795 26.2353C55.9821 23.0246 57.7134 19.7037 55.8877 16.4143C55.8247 16.2884 55.7461 16.1625 55.6044 16.1153C55.4785 16.0681 55.3526 16.1153 55.2267 16.1468C53.8102 16.5402 52.3622 17.1068 51.0874 17.8623C50.7569 18.0669 47.6091 20.8369 47.798 20.9156C45.028 19.688 41.6441 19.6565 38.6538 19.7824C37.4262 19.8296 36.1198 19.6408 34.8922 19.8454C33.9322 20.0185 31.9963 20.4434 31.1779 20.9313C29.9817 18.9483 28.2505 17.5947 26.2989 16.4458C25.9054 16.2097 25.4805 15.9894 25.024 15.9579C24.2214 15.895 23.4659 16.4615 23.0724 17.1698C22.7104 17.8151 22.6003 18.5705 22.5688 19.3103L22.6003 19.2945Z" fill="#697D8F"/>
<path d="M32.1854 35.5211C33.5153 35.5211 34.5934 34.443 34.5934 33.1131C34.5934 31.7832 33.5153 30.7051 32.1854 30.7051C30.8555 30.7051 29.7773 31.7832 29.7773 33.1131C29.7773 34.443 30.8555 35.5211 32.1854 35.5211Z" fill="#FEDA00"/>
<path d="M46.8224 35.5687C48.1784 35.5687 49.2777 34.4694 49.2777 33.1134C49.2777 31.7575 48.1784 30.6582 46.8224 30.6582C45.4664 30.6582 44.3672 31.7575 44.3672 33.1134C44.3672 34.4694 45.4664 35.5687 46.8224 35.5687Z" fill="#FEDA00"/>
<path d="M32.185 34.6551C33.0368 34.6551 33.7274 33.9646 33.7274 33.1127C33.7274 32.2609 33.0368 31.5703 32.185 31.5703C31.3331 31.5703 30.6426 32.2609 30.6426 33.1127C30.6426 33.9646 31.3331 34.6551 32.185 34.6551Z" fill="#231F20"/>
<path d="M46.8227 34.6551C47.6745 34.6551 48.3651 33.9646 48.3651 33.1127C48.3651 32.2609 47.6745 31.5703 46.8227 31.5703C45.9708 31.5703 45.2803 32.2609 45.2803 33.1127C45.2803 33.9646 45.9708 34.6551 46.8227 34.6551Z" fill="#231F20"/>
<path d="M39.1106 35.741C39.8755 35.741 40.4956 35.3535 40.4956 34.8754C40.4956 34.3973 39.8755 34.0098 39.1106 34.0098C38.3457 34.0098 37.7256 34.3973 37.7256 34.8754C37.7256 35.3535 38.3457 35.741 39.1106 35.741Z" fill="#231F20"/>
<path d="M30.0596 22.0649C35.6311 19.7828 41.9266 19.5939 47.6398 21.5612C48.3638 21.8131 48.6628 20.6641 47.9546 20.4281C42.084 18.3978 35.5052 18.5709 29.7606 20.9317C29.4615 21.0576 29.2569 21.3252 29.3514 21.6557C29.4301 21.939 29.7763 22.1908 30.0754 22.0649H30.0596Z" fill="#231F20"/>
<path d="M24.6935 16.4617C25.6535 16.8709 26.5978 17.3116 27.4792 17.8782C27.6681 18.0041 27.8412 18.1143 28.0143 18.2559C28.0615 18.2874 28.1088 18.3189 28.1402 18.3504C28.1717 18.3818 28.2347 18.4448 28.1245 18.3504C28.1402 18.3661 28.156 18.3818 28.1875 18.3976C28.2819 18.4763 28.3606 18.5392 28.455 18.6179C28.817 18.9169 29.1475 19.2475 29.478 19.578C29.9187 20.0344 30.3279 20.5066 30.7371 20.9787C30.9417 21.2148 31.3667 21.1991 31.5713 20.9787C31.8074 20.7269 31.7916 20.3964 31.5713 20.1446C30.8945 19.3419 30.1863 18.555 29.3836 17.8625C28.6596 17.2486 27.8727 16.7135 27.0228 16.2728C26.4562 15.9738 25.8739 15.7062 25.2758 15.4544C24.9925 15.3285 24.6305 15.36 24.4731 15.659C24.3315 15.9109 24.3787 16.3358 24.6777 16.4617H24.6935Z" fill="#231F20"/>
<path d="M22.8517 16.4773C21.8287 19.2788 21.8445 22.395 22.7416 25.228C22.9147 25.7789 23.135 26.3297 23.3869 26.8648C23.5285 27.1481 23.9377 27.2268 24.1895 27.0694C24.4886 26.8963 24.5358 26.5501 24.3941 26.2668C24.3469 26.1723 24.3154 26.0936 24.2682 25.9992C24.2525 25.952 24.221 25.9048 24.2053 25.8575C24.2525 25.952 24.1895 25.8103 24.1738 25.7789C24.0794 25.5428 23.9849 25.3067 23.9062 25.0706C23.7331 24.5355 23.5915 23.9846 23.4813 23.4338C23.2137 22.1117 23.1665 20.7425 23.3239 19.3889C23.4341 18.5076 23.6544 17.6419 23.9692 16.8078C24.0794 16.5087 23.8433 16.1625 23.56 16.0838C23.2295 15.9894 22.9462 16.194 22.836 16.493L22.8517 16.4773Z" fill="#231F20"/>
<path d="M25.5897 19.9392C26.0146 20.1595 26.4553 20.3799 26.833 20.6632L26.7071 20.5687C26.8645 20.6789 26.9904 20.8205 27.1163 20.9622L27.0219 20.8363C27.3052 21.214 27.494 21.6547 27.6829 22.0796C27.7459 22.2056 27.9033 22.3157 28.0292 22.3472C28.1708 22.3787 28.3597 22.3629 28.4856 22.2842C28.6115 22.2056 28.7217 22.0796 28.7531 21.938V21.7806C28.7689 21.6704 28.7531 21.576 28.6902 21.4816C28.58 21.2298 28.4699 20.9779 28.3439 20.7419C28.2338 20.5215 28.0921 20.3169 27.9347 20.128C27.6829 19.7975 27.3209 19.5457 26.9747 19.3411C26.7071 19.1837 26.4396 19.0421 26.172 18.9004C26.0303 18.8217 25.873 18.806 25.7156 18.8375C25.5739 18.8689 25.4323 18.9791 25.3693 19.105C25.2906 19.2467 25.2591 19.4041 25.3064 19.5614C25.3536 19.7031 25.448 19.8447 25.5739 19.9077L25.5897 19.9392Z" fill="#231F20"/>
<path d="M25.3543 24.8188C21.7659 27.4629 20.1448 31.7596 20.491 36.135C20.6484 38.0394 21.0891 39.9752 22.0334 41.6435C22.9777 43.3119 24.3785 44.6182 26.0783 45.4523C28.3289 46.554 30.8786 46.7744 33.3496 46.5068C34.0893 46.4281 34.105 45.2477 33.3496 45.3264C29.6195 45.7356 25.5432 44.8857 23.3555 41.5491C21.4668 38.6532 21.1678 34.5454 22.1436 31.2875C22.7889 29.0998 24.1267 27.1954 25.9524 25.8419C26.5504 25.4012 25.9681 24.3782 25.3543 24.8188Z" fill="#231F20"/>
<path d="M48.6789 21.1514C49.0881 20.6792 49.4816 20.1756 49.938 19.7349C50.3944 19.2942 50.8666 18.9165 51.3387 18.5387C51.9683 18.0508 52.6608 17.6259 53.369 17.2796C53.6681 17.138 53.9829 17.0121 54.2976 16.9176C54.4393 16.8704 54.5809 16.839 54.7383 16.8075C54.7698 16.8075 54.9429 16.776 54.88 16.776C54.817 16.776 54.88 16.776 54.8957 16.776C54.9272 16.776 54.9744 16.776 55.0059 16.776C55.1318 16.776 54.9587 16.7445 55.0531 16.776C55.0688 16.776 55.2262 16.8232 55.1475 16.7917C55.0688 16.7603 55.2105 16.8232 55.2262 16.839C55.2734 16.8704 55.3836 16.9649 55.2892 16.8704C55.3679 16.9491 55.4466 17.0121 55.5095 17.1065C55.4466 17.0278 55.5095 17.1065 55.5252 17.1537C55.5725 17.2167 55.6039 17.2796 55.6512 17.3583C55.6826 17.4055 55.7141 17.4685 55.7299 17.5315C55.7299 17.5629 55.7928 17.6731 55.7613 17.5944C55.8243 17.7361 55.8715 17.8777 55.903 18.0194C55.9817 18.2869 56.0289 18.5545 56.0761 18.822C56.0918 18.9479 56.0761 18.8693 56.0761 18.8378C56.0761 18.8693 56.0761 18.9007 56.0761 18.9322C56.0761 18.9952 56.0761 19.0739 56.0918 19.1368C56.0918 19.2785 56.1076 19.4201 56.1076 19.5618C56.1076 19.8293 56.1076 20.0811 56.0761 20.3487C55.9974 21.0569 55.903 21.7494 55.7456 22.4419C55.6197 23.0243 55.4466 23.5909 55.2262 24.1575C54.9901 24.7555 54.7383 25.3221 54.455 25.9832C54.3291 26.2822 54.3763 26.6127 54.6596 26.7858C54.9114 26.9275 55.3364 26.8645 55.4623 26.5812C55.9659 25.4323 56.5011 24.2834 56.8001 23.0558C56.989 22.316 57.0834 21.5606 57.1778 20.8051C57.2565 20.1756 57.3037 19.5618 57.225 18.9165C57.0991 17.799 56.7529 16.2881 55.6197 15.7845C54.9744 15.5012 54.2819 15.6743 53.6523 15.8946C52.8339 16.1779 52.0627 16.5871 51.3387 17.0593C50.6148 17.5315 49.8908 18.1138 49.2455 18.6961C48.7104 19.184 48.2382 19.7664 47.7661 20.3172C47.5614 20.5533 47.53 20.9153 47.7661 21.1514C47.9707 21.356 48.3956 21.3874 48.6002 21.1514H48.6789Z" fill="#231F20"/>
<path d="M53.5109 18.4449C52.3777 19.0587 51.4491 20.0345 50.8038 21.1362C50.6465 21.3881 50.5205 21.6556 50.3946 21.9232C50.3317 22.0648 50.2845 22.2222 50.3317 22.3796C50.3632 22.5212 50.4733 22.6629 50.5992 22.7258C50.7409 22.8045 50.8983 22.836 51.0557 22.7888C51.1973 22.7416 51.339 22.6472 51.4019 22.5212C51.6537 21.9704 51.9685 21.451 52.3305 20.9788L52.2361 21.1048C52.5823 20.6641 52.9758 20.2549 53.4165 19.9086L53.2906 20.003C53.5424 19.8142 53.8099 19.6411 54.0932 19.4837C54.3765 19.3263 54.471 18.9328 54.2978 18.681C54.1247 18.3977 53.7785 18.319 53.4952 18.4764L53.5109 18.4449Z" fill="#231F20"/>
<path d="M52.6601 25.7477C55.5876 28.2659 57.3818 32.0904 57.0355 35.9779C56.7522 39.2988 54.6904 42.541 51.7473 44.1463C49.8744 45.1536 47.7497 45.4054 45.6564 45.1378C44.901 45.0434 44.9167 46.2238 45.6564 46.3183C49.7013 46.8376 53.5415 45.2323 55.9495 41.9429C58.3576 38.6535 58.8455 34.5299 57.5077 30.7841C56.705 28.5177 55.3043 26.4874 53.4786 24.9136C52.912 24.4257 52.0621 25.2598 52.6444 25.7477H52.6601Z" fill="#231F20"/>
<path d="M42.5096 36.7649C42.2263 37.1898 41.7856 37.6777 41.219 37.6305C40.9515 37.599 40.7469 37.4574 40.5265 37.3C40.2905 37.1269 40.0544 36.938 39.7711 36.8121C39.4878 36.6862 39.2202 36.6232 38.9527 36.7019C38.7166 36.7806 38.5277 36.9223 38.3389 37.0796C37.9769 37.3787 37.6464 37.7407 37.2214 37.8194C37.2214 37.8194 37.1585 37.8194 37.0955 37.8194C37.0325 37.8194 36.9539 37.8194 36.8909 37.7879C36.7335 37.7564 36.5919 37.6935 36.466 37.6305C36.1827 37.4731 35.978 37.237 35.8207 36.938C35.7262 36.7491 35.4587 36.7019 35.2855 36.7963C35.0967 36.9065 35.0495 37.1426 35.1439 37.3315C35.4587 37.9768 36.104 38.4647 36.8122 38.5748C37.4732 38.685 38.0083 38.386 38.4962 37.961C38.6851 37.8036 38.8582 37.6305 39.0314 37.5203C39.0786 37.4889 39.1101 37.4731 39.1573 37.4416C39.0786 37.4889 39.2202 37.4102 39.1573 37.4416C39.173 37.4416 39.2045 37.4416 39.2202 37.4416C39.1258 37.4731 39.236 37.4416 39.2674 37.4416C39.2989 37.4416 39.3934 37.4731 39.4248 37.4889C39.7081 37.6148 39.9599 37.8351 40.2275 38.0082C40.5423 38.2128 40.8571 38.3545 41.2348 38.386C42.0847 38.4489 42.7772 37.8036 43.2021 37.1426C43.3123 36.9695 43.2336 36.7019 43.0605 36.6075C42.8716 36.4973 42.6355 36.576 42.5254 36.7491L42.5096 36.7649Z" fill="#231F20"/>
</svg>
