<svg width="80" height="77" viewBox="0 0 80 77" fill="none" xmlns="http://www.w3.org/2000/svg">
<mask id="mask0_188_2132" style="mask-type:luminance" maskUnits="userSpaceOnUse" x="46" y="42" width="14" height="17">
<path d="M55.5367 44.1442C54.8285 45.1987 54.7341 46.5207 54.7341 47.7956C54.7341 49.0704 54.8442 50.3452 54.4823 51.5571C53.9157 53.4772 52.1214 54.9724 50.1226 55.177C49.3829 55.2557 48.6274 55.177 47.9192 55.3502C47.211 55.5233 46.487 56.0741 46.4712 56.8139C46.4398 57.6952 47.3683 58.309 48.234 58.5136C50.7207 59.096 53.475 57.947 55.2849 56.2473C57.5985 54.0911 56.9218 51.8089 57.4254 49.0704C57.6143 48.0002 58.2281 47.0716 58.653 46.0643C59.1409 44.9154 59.5187 43.6563 58.0549 43.1054C57.0162 42.7277 56.0719 43.2943 55.5367 44.1127V44.1442Z" fill="white"/>
</mask>
<g mask="url(#mask0_188_2132)">
<path d="M55.5372 44.1437C54.829 45.1982 54.7346 46.5202 54.7346 47.7951C54.7346 49.0699 54.8447 50.3447 54.4827 51.5566C53.9161 53.4768 52.1219 54.9719 50.1231 55.1765C49.3834 55.2552 48.6279 55.1765 47.9197 55.3497C47.2114 55.5228 46.4875 56.0736 46.4717 56.8134C46.4402 57.6947 47.3688 58.3085 48.2345 58.5132C50.7212 59.0955 53.4755 57.9466 55.2854 56.2468C57.599 54.0906 56.9222 51.8085 57.4259 49.0699C57.6147 47.9997 58.2286 47.0711 58.6535 46.0638C59.1414 44.9149 59.5191 43.6558 58.0554 43.1049C57.0167 42.7272 56.0724 43.2938 55.5372 44.1122V44.1437Z" fill="white"/>
<path d="M55.3637 51.2105C53.3964 49.8727 50.2644 51.1791 51.2874 53.9333C51.791 55.2711 53.1288 55.1295 54.2148 55.5702C55.0175 55.9007 55.9933 55.4443 56.4025 54.6888C56.8117 53.9333 56.7015 52.9575 56.2766 52.2178C56.0248 51.7929 55.71 51.4623 55.3637 51.2263V51.2105Z" fill="#F8C04E"/>
<path d="M57.1581 48.0943C59.4559 47.9054 62.9027 43.955 59.2513 43.0107C58.4644 42.8061 57.6145 42.9792 56.8748 43.3412C54.4353 44.553 53.2391 48.3933 57.1581 48.0785V48.0943Z" fill="#5C564D"/>
</g>
<mask id="mask1_188_2132" style="mask-type:luminance" maskUnits="userSpaceOnUse" x="29" y="37" width="22" height="25">
<path d="M41.6712 38.195C45.1338 39.2653 46.928 42.2714 48.1556 45.4348C48.8639 47.2605 49.3518 49.1492 49.8869 51.0536C50.6895 54.0754 50.2803 57.7583 47.7779 59.5997C46.1568 60.7958 44.0478 60.9847 42.0332 61.0949C36.9024 61.3624 30.7328 61.1893 29.757 54.9096C29.3478 52.2655 30.2764 50.487 31.0004 48.0317C31.8975 44.9942 33.1251 41.1224 35.8322 39.281C37.5162 38.1321 39.7039 37.597 41.6712 38.195Z" fill="white"/>
</mask>
<g mask="url(#mask1_188_2132)">
<path d="M41.671 38.195C45.1335 39.2653 46.9277 42.2714 48.1554 45.4348C48.8636 47.2605 49.3515 49.1492 49.8866 51.0536C50.6893 54.0754 50.2801 57.7583 47.7776 59.5997C46.1565 60.7958 44.0476 60.9847 42.033 61.0949C36.9022 61.3624 30.7326 61.1893 29.7568 54.9096C29.3476 52.2655 30.2762 50.487 31.0001 48.0317C31.8972 44.9942 33.1249 41.1224 35.8319 39.281C37.516 38.1321 39.7037 37.597 41.671 38.195Z" fill="#F8C04E"/>
<path d="M29.7568 60.1819C30.9058 61.2522 33.4554 62.0234 34.1322 59.9773C34.6673 58.3405 34.447 53.5245 32.275 53.0051C29.4735 52.3441 27.7895 57.0027 28.781 58.9701C28.9542 59.3163 29.3162 59.757 29.7568 60.1662V60.1819Z" fill="#5C564D"/>
<path d="M44.8973 51.4625C44.8501 51.6357 44.8186 51.8088 44.8028 51.9976C44.7871 52.2652 44.8028 52.5485 44.8815 52.8161C45.1648 53.902 46.0305 54.7991 47.1007 55.1296C50.7206 56.2314 52.0741 50.1405 49.4143 48.9128C48.9421 48.6925 48.3755 48.8656 47.8876 49.0388C46.6443 49.4637 45.2907 50.1405 44.913 51.4625H44.8973Z" fill="#5C564D"/>
<path d="M29.8671 43.9555C30.1976 45.0258 31.4567 45.5294 32.1964 46.395C32.9519 47.2764 33.1407 48.4883 33.2667 49.6372C33.6129 53.0683 32.8732 57.3807 34.9664 60.4182C36.2728 62.2912 38.8854 62.6846 41.1675 62.5744C42.4266 62.5115 43.7959 62.3069 44.6458 61.3783C45.0392 60.9534 45.2753 60.4182 45.4484 59.8674C46.5029 56.6252 45.3225 52.5646 45.653 49.1808C45.7475 48.2207 45.9206 47.182 46.5816 46.4895C46.8492 46.2062 47.2112 45.9858 47.4315 45.6553C49.2887 42.9325 43.4181 40.7133 41.7184 40.2884C39.4362 39.7061 37.0125 39.8005 34.7618 40.4615C33.3296 40.8865 29.332 41.8465 29.8041 43.8296C29.8041 43.8768 29.8199 43.9083 29.8356 43.9555H29.8671Z" fill="white"/>
</g>
<path d="M32.7634 42.0035C32.1024 43.42 31.4729 44.868 30.8905 46.316C30.3082 47.7639 29.7573 49.1175 29.3796 50.5654C28.7186 53.1151 28.6714 55.9166 30.1193 58.2144C30.8433 59.3634 31.8506 60.229 33.1097 60.7169C33.8179 60.9845 34.1327 59.8513 33.4245 59.5837C30.6859 58.5292 29.8518 55.2083 30.1823 52.58C30.3869 50.8802 30.985 49.2434 31.6145 47.6538C32.2913 45.9382 33.0153 44.2542 33.7865 42.5859C34.1012 41.8934 33.094 41.2953 32.7634 41.9878V42.0035Z" fill="#231F20"/>
<path d="M33.2356 55.9954C33.2671 56.9712 33.3615 57.9627 33.5661 58.9071C33.7392 59.7412 34.1484 60.5911 34.9511 60.9846C35.3761 61.1892 35.8167 61.2679 36.2732 61.2836C36.6981 61.2836 37.1703 61.2521 37.5795 61.1577C38.0674 61.0475 38.4923 60.7485 38.7284 60.3078C38.933 59.9301 39.0275 59.5051 39.0904 59.0802C39.2635 57.9785 39.3107 56.861 39.1848 55.7436C39.1691 55.5862 39.1376 55.4445 39.0117 55.3186C38.9015 55.2085 38.7442 55.1455 38.5868 55.1455C38.3035 55.1455 37.9572 55.4131 37.9887 55.7436C38.0831 56.6249 38.0831 57.5063 37.9887 58.3877C37.9887 58.4506 37.9887 58.4979 37.973 58.5608C37.973 58.5923 37.973 58.608 37.973 58.6395C37.973 58.7339 37.973 58.5293 37.973 58.6395C37.9572 58.7497 37.9415 58.8599 37.9257 58.97C37.8943 59.1431 37.8628 59.332 37.8156 59.5051C37.8156 59.5524 37.7841 59.5838 37.7684 59.631C37.7684 59.6468 37.7684 59.6625 37.7526 59.6783C37.7369 59.7412 37.7841 59.6153 37.7841 59.6153C37.7526 59.6468 37.7526 59.694 37.7369 59.7255C37.7211 59.7727 37.6897 59.8042 37.6582 59.8514C37.6582 59.8514 37.6424 59.8829 37.6267 59.8986C37.6267 59.8986 37.7054 59.8042 37.6582 59.8514C37.6267 59.8829 37.5952 59.9143 37.5637 59.9458C37.6424 59.8986 37.5638 59.9458 37.548 59.9458C37.5165 59.9616 37.4378 59.993 37.4221 60.0088C37.4536 59.9616 37.5165 59.9773 37.4536 60.0088C37.4378 60.0088 37.4221 60.0088 37.3906 60.0245C37.3434 60.0245 37.2962 60.056 37.249 60.056C37.2018 60.056 37.1703 60.0717 37.1231 60.0875C37.0916 60.0875 37.0758 60.0875 37.0444 60.0875C36.9657 60.0875 37.0444 60.0875 37.0758 60.0875C36.9972 60.1189 36.887 60.1032 36.8083 60.1189C36.7139 60.1189 36.6352 60.1189 36.5407 60.1347C36.3676 60.1347 36.1787 60.1347 36.0056 60.1347C35.9899 60.1347 35.9741 60.1347 35.9427 60.1347C35.8797 60.1347 36.0056 60.1347 36.0056 60.1347C35.9584 60.1347 35.9112 60.1347 35.8797 60.1189C35.7853 60.1032 35.6908 60.0717 35.6121 60.0402C35.5807 60.0402 35.5492 60.0088 35.502 60.0088C35.502 60.0088 35.6279 60.0717 35.5335 60.0088C35.5177 60.0088 35.502 59.993 35.4862 59.9773C35.4075 59.9301 35.3288 59.8829 35.2659 59.8357C35.2029 59.7884 35.3446 59.9143 35.2974 59.8514C35.2974 59.8514 35.2659 59.8199 35.2502 59.8199C35.2187 59.7884 35.1872 59.757 35.1557 59.7255C35.1242 59.694 35.1085 59.6783 35.077 59.6468C35.077 59.631 35.0141 59.5681 35.077 59.6468C35.0298 59.5838 34.9983 59.5209 34.9511 59.4422C34.9354 59.4107 34.9039 59.3635 34.8882 59.332C34.8882 59.3163 34.8882 59.3005 34.8724 59.2848C34.9511 59.4107 34.9039 59.3477 34.8724 59.3005C34.8095 59.1431 34.7623 58.97 34.715 58.7969C34.6678 58.5923 34.6363 58.4034 34.6049 58.1988C34.5891 58.0729 34.5734 57.9627 34.5576 57.8368C34.5576 57.8211 34.5419 57.7109 34.5576 57.7896C34.5734 57.8683 34.5576 57.7581 34.5576 57.7424C34.5576 57.6794 34.5419 57.6165 34.5419 57.5535C34.479 57.0499 34.4475 56.5463 34.4317 56.0269C34.4317 55.7121 34.1642 55.4288 33.8337 55.4288C33.5032 55.4288 33.2356 55.6806 33.2356 56.0269V55.9954Z" fill="#231F20"/>
<path d="M46.0314 42.6014C46.8026 44.2697 47.5265 45.9537 48.2033 47.6693C48.8329 49.2589 49.4309 50.8957 49.6355 52.5955C49.966 55.2239 49.1319 58.5447 46.3933 59.5992C45.6851 59.8668 45.9999 61.0157 46.7081 60.7324C48.9588 59.8668 50.3752 57.7106 50.7687 55.3812C51.2566 52.4538 50.2336 49.5579 49.1634 46.8823C48.5023 45.2455 47.8098 43.6244 47.0544 42.0191C46.7396 41.3266 45.7166 41.9246 46.0314 42.6171V42.6014Z" fill="#231F20"/>
<path d="M45.4015 55.995C45.4015 56.4514 45.3543 56.8921 45.307 57.3486C45.307 57.4587 45.2913 57.5532 45.2756 57.6633C45.2756 57.6948 45.2756 57.7105 45.2756 57.742C45.2756 57.805 45.2598 57.8679 45.2441 57.9309C45.2126 58.1198 45.1811 58.3086 45.1497 58.5132C45.1182 58.6864 45.071 58.8595 45.0238 59.0326C44.9923 59.1113 44.9765 59.19 44.9451 59.2687L44.9136 59.3316C44.9136 59.3316 44.9608 59.2215 44.9293 59.2687C44.9136 59.3159 44.8821 59.3631 44.8664 59.3946C44.8349 59.4575 44.7877 59.5362 44.7405 59.5992C44.7405 59.6149 44.709 59.6464 44.6932 59.6622C44.6932 59.6622 44.7719 59.5677 44.7247 59.6149C44.6932 59.6464 44.6618 59.6936 44.6303 59.7251C44.5988 59.7566 44.5831 59.7723 44.5516 59.8038C44.5358 59.8195 44.5201 59.8353 44.4886 59.851C44.4414 59.8982 44.5358 59.8195 44.5358 59.8195C44.4572 59.851 44.3942 59.914 44.3155 59.9612C44.2998 59.9612 44.1581 60.0399 44.2526 59.9927C44.3312 59.9612 44.2053 59.9927 44.1896 60.0084C44.1109 60.0399 44.0165 60.0556 43.9378 60.0714C43.8906 60.0714 43.8433 60.0714 43.8119 60.0871C43.7489 60.0871 43.8748 60.0871 43.8748 60.0871H43.7961C43.7017 60.0871 43.623 60.0871 43.5286 60.0871C43.3397 60.0871 43.1666 60.0871 42.9777 60.0714C42.899 60.0714 42.8046 60.0556 42.7259 60.0399C42.6629 60.0399 42.7889 60.0399 42.7889 60.0399C42.7574 60.0399 42.7259 60.0399 42.7102 60.0399C42.6629 60.0399 42.6 60.0241 42.5528 60.0084C42.5056 60.0084 42.4741 59.9927 42.4269 59.9769C42.3954 59.9769 42.3796 59.9612 42.3482 59.9455C42.3324 59.9455 42.3009 59.914 42.2852 59.8982C42.2695 59.8982 42.2537 59.8825 42.238 59.8668C42.175 59.8353 42.3167 59.9455 42.2695 59.8982C42.238 59.8668 42.2065 59.8353 42.175 59.8038C42.1278 59.7408 42.0963 59.6622 42.0491 59.5835C42.0177 59.5205 42.0806 59.6464 42.0806 59.6464C42.0806 59.6307 42.0649 59.5992 42.0491 59.5835C42.0491 59.552 42.0334 59.5205 42.0177 59.4733C41.9862 59.3789 41.9704 59.3002 41.9547 59.2057C41.9075 59.0011 41.876 58.7965 41.8445 58.5919C41.8445 58.529 41.8445 58.6234 41.8445 58.6234C41.8445 58.5919 41.8445 58.5604 41.8445 58.529C41.8445 58.466 41.8445 58.4031 41.8288 58.3401C41.8288 58.2142 41.7973 58.0883 41.7973 57.9624C41.7816 57.7105 41.7658 57.4745 41.7658 57.2226C41.7658 56.719 41.7816 56.2154 41.8445 55.7275C41.876 55.4127 41.5455 55.1294 41.2465 55.1294C40.9002 55.1294 40.6956 55.397 40.6484 55.7275C40.5382 56.6875 40.554 57.6476 40.6799 58.6077C40.8058 59.5677 40.9474 60.6222 41.9232 61.0314C42.3482 61.2045 42.8203 61.2518 43.261 61.2675C43.686 61.2832 44.1266 61.2675 44.5358 61.1259C44.9608 60.9842 45.3543 60.7481 45.6376 60.3861C45.9209 60.0241 46.1097 59.6149 46.2199 59.19C46.3615 58.6864 46.4245 58.1512 46.4875 57.6319C46.5504 57.081 46.5976 56.5459 46.6134 55.995C46.6134 55.6802 46.3301 55.397 46.0153 55.397C45.6848 55.397 45.433 55.6488 45.4172 55.995H45.4015Z" fill="#231F20"/>
<path d="M52.3738 55.067C53.9634 54.3115 54.7031 52.5173 54.9235 50.8648C55.1595 49.0233 54.8448 46.9773 55.7261 45.2618C55.915 44.884 56.1511 44.5535 56.4501 44.2702C56.7019 44.0341 57.1741 43.6564 57.5518 43.7508C58.2916 43.924 58.6063 42.7908 57.8666 42.6177C56.9065 42.3973 55.9465 43.0426 55.3484 43.7351C54.7503 44.4276 54.3883 45.246 54.1837 46.1117C53.7116 48.0947 54.1365 50.2037 53.4125 52.1396C53.1135 52.958 52.5784 53.6663 51.7757 54.044C51.4924 54.1856 51.4137 54.5948 51.5711 54.8467C51.7442 55.1457 52.0905 55.1929 52.3738 55.0513V55.067Z" fill="#231F20"/>
<path d="M49.3677 59.0171C52.2007 59.1431 54.9235 57.6164 56.5131 55.3028C57.3473 54.0752 57.7407 52.7059 57.8666 51.2422C57.9296 50.4081 57.9296 49.5582 58.0555 48.724C58.1814 47.8899 58.4962 47.2131 58.9211 46.5049C59.3461 45.7966 59.7081 44.9782 59.472 44.1126C59.2674 43.3571 58.6851 42.759 57.8824 42.7433C57.1269 42.7118 57.1269 43.8922 57.8824 43.9237C58.2759 43.9237 58.4018 44.5218 58.3546 44.8365C58.2759 45.4976 57.7722 46.0642 57.4732 46.6465C56.7964 47.9843 56.7964 49.4795 56.702 50.9432C56.6233 52.218 56.34 53.3827 55.6632 54.4687C55.0337 55.4759 54.1523 56.3101 53.1293 56.9082C51.9804 57.5849 50.6898 57.9312 49.352 57.8682C48.5965 57.8367 48.5965 59.0171 49.352 59.0486L49.3677 59.0171Z" fill="#231F20"/>
<path d="M35.2661 59.1274C35.2661 59.2375 35.2661 59.3477 35.2976 59.4736C35.2976 59.5523 35.3291 59.631 35.3448 59.7097C35.3763 59.8199 35.4235 59.93 35.4707 60.0245C35.5022 60.1032 35.5494 60.1661 35.5966 60.2448C35.6281 60.292 35.6596 60.3235 35.6911 60.355C35.7225 60.3865 35.7698 60.4179 35.8327 60.4179C35.8799 60.4337 35.9429 60.4337 35.9901 60.4179C36.0373 60.4179 36.0845 60.4022 36.1317 60.3707C36.2104 60.3235 36.2891 60.2291 36.3049 60.1346C36.3206 60.0402 36.3206 59.9143 36.2577 59.8356C36.1947 59.7569 36.1475 59.6625 36.116 59.568L36.1632 59.6625C36.1003 59.5366 36.0688 59.3949 36.0531 59.2533V59.3634C36.0531 59.3634 36.0531 59.206 36.0531 59.1274C36.0531 59.0801 36.053 59.0172 36.0216 58.97C36.0058 58.9228 35.9744 58.8755 35.9429 58.8441C35.9114 58.8126 35.8642 58.7811 35.817 58.7654C35.7698 58.7339 35.7225 58.7339 35.6596 58.7339C35.5651 58.7339 35.455 58.7654 35.3763 58.8441C35.2976 58.9228 35.2661 59.0172 35.2661 59.1274Z" fill="#231F20"/>
<path d="M36.5563 59.505L36.698 60.2919C36.698 60.2919 36.7294 60.3864 36.7609 60.4336C36.7924 60.4808 36.8239 60.5123 36.8711 60.528C36.9183 60.5595 36.9655 60.5752 37.0127 60.5752C37.06 60.5752 37.1229 60.5752 37.1701 60.5752L37.2646 60.528C37.2646 60.528 37.3747 60.4493 37.4062 60.3864L37.4534 60.2919C37.4534 60.2919 37.4692 60.1503 37.4534 60.0873L37.3118 59.3004C37.3118 59.3004 37.2803 59.206 37.2488 59.1587C37.2173 59.1115 37.1859 59.08 37.1386 59.0643C37.0914 59.0328 37.0442 59.0171 36.997 59.0171C36.9498 59.0171 36.8868 59.0171 36.8396 59.0171L36.7452 59.0643C36.7452 59.0643 36.635 59.143 36.6035 59.206L36.5563 59.3004C36.5563 59.3004 36.5406 59.442 36.5563 59.505Z" fill="#231F20"/>
<path d="M42.4586 59.0328C42.4271 59.1429 42.4114 59.2531 42.4114 59.3633C42.4114 59.442 42.4114 59.5207 42.4114 59.6151C42.4114 59.7253 42.4429 59.8354 42.4743 59.9456C42.5058 60.0558 42.553 60.166 42.6002 60.2604C42.6317 60.3076 42.6632 60.3391 42.6947 60.3706C42.7262 60.402 42.7734 60.4335 42.8363 60.4335C42.8835 60.4492 42.9465 60.4492 42.9937 60.4335C43.0409 60.4335 43.0881 60.4178 43.1354 60.3863C43.2141 60.3391 43.2927 60.2447 43.3085 60.1502V60.04C43.3085 60.04 43.3085 59.8984 43.2613 59.8354C43.2613 59.8197 43.2455 59.804 43.2298 59.7725L43.277 59.8669C43.2298 59.7567 43.1983 59.6466 43.1826 59.5207V59.6308C43.1826 59.5049 43.1826 59.3948 43.1826 59.2688V59.379C43.1826 59.379 43.1826 59.2688 43.1983 59.2216C43.2141 59.1744 43.2141 59.1115 43.1983 59.0642C43.1983 59.017 43.1826 58.9698 43.1511 58.9226C43.1196 58.8754 43.0881 58.8439 43.0567 58.8124C43.0252 58.7809 42.978 58.7495 42.915 58.7495C42.8206 58.7337 42.6947 58.7337 42.616 58.7967C42.5373 58.8596 42.4586 58.9383 42.4429 59.0328H42.4586Z" fill="#231F20"/>
<path d="M43.7489 59.3635C43.7489 59.3635 43.7646 59.4579 43.7803 59.4894V59.3792C43.7803 59.5052 43.7803 59.6311 43.7803 59.7412V59.6311C43.7803 59.757 43.7489 59.8671 43.7016 59.9773L43.7489 59.8829C43.7489 59.8829 43.7331 59.9301 43.7174 59.9458C43.6859 59.9931 43.6702 60.0403 43.6702 60.0875C43.6702 60.1347 43.6702 60.1977 43.6702 60.2449C43.6702 60.2921 43.7016 60.3393 43.7331 60.3865C43.7646 60.4337 43.7961 60.4652 43.8433 60.481C43.9377 60.5282 44.0479 60.5596 44.1423 60.5282C44.2368 60.4967 44.3312 60.4337 44.3784 60.355C44.4256 60.2606 44.4728 60.1504 44.5043 60.0403C44.5358 59.9301 44.5515 59.8199 44.5673 59.7098C44.5673 59.6311 44.5673 59.5524 44.5673 59.4737C44.5673 59.3635 44.5515 59.2533 44.5201 59.1432C44.5201 59.0959 44.4886 59.0487 44.4571 59.0015C44.4256 58.9543 44.3941 58.9228 44.3469 58.9071C44.2997 58.8756 44.2525 58.8599 44.2053 58.8599C44.1581 58.8599 44.0951 58.8599 44.0479 58.8599C43.9535 58.8913 43.859 58.9543 43.8118 59.033L43.7646 59.1274C43.7646 59.1274 43.7489 59.2691 43.7646 59.332L43.7489 59.3635Z" fill="#231F20"/>
<mask id="mask2_188_2132" style="mask-type:luminance" maskUnits="userSpaceOnUse" x="20" y="13" width="39" height="34">
<path d="M20.9758 19.3876C20.9129 22.3307 21.3221 25.2896 22.1877 28.1069C22.3608 28.6577 22.5497 29.2243 22.5969 29.7909C22.6599 30.4362 22.5339 31.0815 22.4553 31.7268C21.9201 35.929 22.9274 40.5562 26.0594 43.4049C29.6006 46.6156 34.8574 46.8832 39.642 46.6943C42.3018 46.5841 44.9774 46.411 47.5428 45.6713C50.1082 44.9316 52.5635 43.641 54.279 41.6107C54.9715 40.7923 55.5381 39.8794 55.9473 38.9036C56.5768 37.3927 57.0647 35.4569 56.986 33.8043C56.9074 32.3878 56.2306 31.2074 56.4667 29.6965C56.6398 28.6105 57.0333 27.5717 57.3638 26.5173C58.3238 23.4325 58.6701 20.0958 57.9933 16.9324C57.7887 15.9566 57.4425 14.9335 56.6398 14.3355C55.3492 13.3597 54.3105 14.4614 53.2245 15.0909C51.5247 16.0825 50.0138 17.4203 48.8176 18.9784C48.4242 19.4978 48.0307 20.0801 47.4169 20.3162C46.8346 20.5523 46.1735 20.4264 45.5597 20.3162C43.372 19.9542 41.1371 19.8125 38.918 19.907C37.3756 19.9699 34.5426 19.7496 33.1419 20.3634C32.9687 20.4421 32.7956 20.5365 32.6067 20.5051C32.3864 20.4736 32.229 20.2847 32.0874 20.1273C30.0571 17.6091 27.7592 15.1067 24.7059 14.0207C21.6998 12.9347 20.9916 17.2157 20.9443 19.3719L20.9758 19.3876Z" fill="white"/>
</mask>
<g mask="url(#mask2_188_2132)">
<path d="M20.9756 19.3876C20.9126 22.3307 21.3218 25.2896 22.1875 28.1069C22.3606 28.6577 22.5494 29.2243 22.5967 29.7909C22.6596 30.4362 22.5337 31.0815 22.455 31.7268C21.9199 35.929 22.9272 40.5562 26.0592 43.4049C29.6004 46.6156 34.8571 46.8832 39.6417 46.6943C42.3016 46.5841 44.9771 46.411 47.5426 45.6713C50.108 44.9316 52.5632 43.641 54.2787 41.6107C54.9712 40.7923 55.5378 39.8794 55.947 38.9036C56.5766 37.3927 57.0645 35.4569 56.9858 33.8043C56.9071 32.3878 56.2303 31.2074 56.4664 29.6965C56.6395 28.6105 57.033 27.5717 57.3635 26.5173C58.3236 23.4325 58.6698 20.0958 57.9931 16.9324C57.7885 15.9566 57.4422 14.9335 56.6395 14.3355C55.349 13.3597 54.3102 14.4614 53.2242 15.0909C51.5245 16.0825 50.0135 17.4203 48.8174 18.9784C48.4239 19.4978 48.0305 20.0801 47.4166 20.3162C46.8343 20.5523 46.1733 20.4264 45.5595 20.3162C43.3718 19.9542 41.1369 19.8125 38.9177 19.907C37.3753 19.9699 34.5424 19.7496 33.1416 20.3634C32.9685 20.4421 32.7954 20.5365 32.6065 20.5051C32.3862 20.4736 32.2288 20.2847 32.0871 20.1273C30.0568 17.6091 27.759 15.1067 24.7057 14.0207C21.6996 12.9347 20.9913 17.2157 20.9441 19.3719L20.9756 19.3876Z" fill="white"/>
<path d="M56.7025 28.9408C57.096 27.8548 57.8987 26.6587 58.1505 25.6042C58.8273 22.8656 58.843 19.954 58.1348 17.2312C57.395 14.4297 55.0657 13.202 52.2642 13.9418C49.1952 14.7602 46.3937 16.3655 43.6394 17.9394C42.1285 18.805 41.4832 19.592 41.2628 21.3704C40.8694 24.6756 41.1999 28.2168 42.3331 31.3488C42.6636 32.2617 43.0571 33.1588 43.6709 33.8985C44.3162 34.6697 45.166 35.2363 46.0632 35.6612C48.5027 36.8101 56.734 37.6286 57.1275 33.7096C57.2691 32.3246 56.3405 31.0026 56.4665 29.7749C56.4979 29.5074 56.5766 29.2241 56.6868 28.925L56.7025 28.9408Z" fill="#F8C04E"/>
<path d="M27.9796 37.5186C30.4192 37.4242 32.8744 36.9363 34.9991 35.7716C36.1323 34.8902 37.1081 33.7413 37.8164 32.2619C39.7365 28.217 39.5948 23.2436 38.5089 18.8682C37.4229 18.758 36.3212 18.5219 35.5028 17.9081C34.5427 17.1842 33.8817 16.0352 32.8587 15.264C30.6395 13.58 27.9954 12.4468 25.2254 12.132C22.8803 11.8645 20.2834 12.2107 18.5521 13.8161C17.2458 15.028 16.6163 16.775 16.1284 18.4747C14.7276 23.401 15.672 28.0439 17.2301 32.7812C18.5994 36.952 24.1551 37.6603 27.9639 37.5029L27.9796 37.5186Z" fill="#5C564D"/>
<path d="M27.4444 20.0017C26.9565 19.3879 24.7846 17.5622 24.0134 18.3334C23.6671 18.6953 23.6042 19.2462 23.5727 19.7498C23.4468 22.1264 23.4783 24.6131 24.5013 26.7693C24.3282 26.4231 26.3427 24.8807 26.563 24.7233C27.2083 24.2196 28.4517 23.4484 28.6406 22.5671C28.8294 21.7172 27.9008 20.6155 27.4129 20.0017H27.4444Z" fill="white"/>
<path d="M54.5469 27.2413C55.9004 25.1165 55.8374 21.5753 55.4125 19.1516C55.3653 18.8683 55.2866 18.585 55.0977 18.3961C54.2163 17.562 53.1619 18.9784 52.6582 19.5293C51.8398 20.4264 50.9742 21.5753 50.5964 22.7715C50.9584 23.8417 52.2333 24.6759 52.9572 25.4313C53.5238 26.0137 53.9803 26.7062 54.4839 27.3514C54.5154 27.32 54.5311 27.2728 54.5469 27.2413Z" fill="white"/>
</g>
<path d="M31.363 34.8431C32.2148 34.8431 32.9054 34.1525 32.9054 33.3007C32.9054 32.4489 32.2148 31.7583 31.363 31.7583C30.5111 31.7583 29.8206 32.4489 29.8206 33.3007C29.8206 34.1525 30.5111 34.8431 31.363 34.8431Z" fill="#231F20"/>
<path d="M47.3852 34.8431C48.237 34.8431 48.9276 34.1525 48.9276 33.3007C48.9276 32.4489 48.237 31.7583 47.3852 31.7583C46.5333 31.7583 45.8428 32.4489 45.8428 33.3007C45.8428 34.1525 46.5333 34.8431 47.3852 34.8431Z" fill="#231F20"/>
<path d="M39.3738 35.929C40.1387 35.929 40.7588 35.5415 40.7588 35.0634C40.7588 34.5853 40.1387 34.1978 39.3738 34.1978C38.6089 34.1978 37.9888 34.5853 37.9888 35.0634C37.9888 35.5415 38.6089 35.929 39.3738 35.929Z" fill="#231F20"/>
<path d="M30.3245 22.2519C35.896 19.9698 42.1915 19.7809 47.9047 21.7483C48.6287 22.0001 48.9277 20.8512 48.2194 20.6151C42.3489 18.5848 35.7701 18.7579 30.0255 21.1187C29.7264 21.2446 29.5218 21.5122 29.6163 21.8427C29.695 22.126 30.0412 22.3778 30.3402 22.2519H30.3245Z" fill="#231F20"/>
<path d="M23.5097 14.4926C26.0594 15.5943 28.4044 17.121 30.4033 19.0411C30.9699 19.5919 31.5207 20.1743 32.0401 20.7723C32.2447 21.0084 32.6696 20.9927 32.8742 20.7723C33.1103 20.5363 33.0788 20.1743 32.8742 19.9382C31.0171 17.7662 28.7664 15.9248 26.2797 14.5398C25.5715 14.1463 24.8475 13.7843 24.1078 13.4696C23.8087 13.3437 23.4782 13.3751 23.3051 13.6742C23.1634 13.926 23.2264 14.3509 23.5097 14.4768V14.4926Z" fill="#231F20"/>
<path d="M21.6525 14.7762C19.8897 19.5765 20.0943 24.9591 22.1089 29.6335C22.2348 29.9326 22.6598 29.9955 22.9116 29.8381C23.2106 29.665 23.2578 29.3188 23.1162 29.0355C21.2275 24.6444 21.1331 19.5607 22.7699 15.0909C23.0375 14.3827 21.8886 14.0679 21.6367 14.7762H21.6525Z" fill="#231F20"/>
<path d="M24.4068 18.8368C24.7216 19.0099 25.0206 19.1988 25.3196 19.4034C25.3983 19.4506 25.4613 19.5135 25.54 19.5607C25.6029 19.608 25.4455 19.4821 25.4928 19.5293C25.5085 19.5293 25.5242 19.5607 25.54 19.5607C25.5715 19.5922 25.6187 19.6237 25.6502 19.6552C25.7918 19.7653 25.9177 19.8913 26.0594 20.0014C26.3269 20.2375 26.563 20.5051 26.7991 20.7726C26.8306 20.8041 26.862 20.8513 26.8935 20.8828C26.8935 20.8985 27.0037 21.0244 26.9407 20.93C26.8778 20.8356 26.9722 20.9615 26.9879 20.9772C27.0194 21.0244 27.0509 21.0559 27.0824 21.1031C27.1925 21.2448 27.287 21.4022 27.3814 21.5438C27.6018 21.8901 27.7906 22.2363 27.948 22.6141C28.011 22.74 28.1684 22.8501 28.2943 22.8816C28.4359 22.9131 28.6248 22.8974 28.7507 22.8187C28.8766 22.74 28.9868 22.6141 29.0182 22.4724C29.0497 22.315 29.0182 22.1734 28.9553 22.016C28.3257 20.5995 27.3185 19.3876 26.0751 18.459C25.7446 18.2072 25.3983 17.9869 25.0206 17.798C24.753 17.6564 24.3596 17.7193 24.2179 18.0026C24.0763 18.2702 24.1392 18.6479 24.4225 18.8053L24.4068 18.8368Z" fill="#231F20"/>
<path d="M25.5081 25.1007C22.8797 27.9651 21.3845 31.947 21.7623 35.8502C22.14 39.7534 24.2175 42.9484 27.4439 44.9157C29.2067 45.986 31.2685 46.584 33.346 46.5053C34.1014 46.4739 34.1014 45.2935 33.346 45.3249C30.0566 45.4351 26.8774 43.7038 24.9572 41.0597C22.8797 38.211 22.439 34.5596 23.4148 31.2073C23.9814 29.2557 24.9887 27.4457 26.3737 25.9348C26.8931 25.3682 26.0589 24.5341 25.5396 25.1007H25.5081Z" fill="#231F20"/>
<path d="M47.6686 20.9455C48.5185 20.1114 49.3212 19.23 50.1868 18.3958C50.8794 17.7348 51.6191 17.1525 52.3588 16.5701C53.0198 16.0665 53.6808 15.5629 54.3891 15.1222C54.6881 14.9333 55.0186 14.7444 55.3492 14.6343C55.4278 14.6028 55.5065 14.5871 55.601 14.5556C55.6954 14.5241 55.6797 14.5398 55.6954 14.5398C55.8843 14.5398 55.8528 14.5398 55.9944 14.5713C56.0889 14.6028 56.0417 14.5713 56.0574 14.5871C56.1046 14.6028 56.1518 14.6343 56.199 14.6658C56.2777 14.713 56.325 14.7602 56.4351 14.8704C56.5768 15.0277 56.7184 15.2638 56.8286 15.5156C57.0962 16.0822 57.2535 16.7905 57.348 17.4358C57.5526 18.6634 57.5841 19.9382 57.5998 21.1816C57.6313 23.8729 57.1748 26.5642 56.1046 29.051C55.9787 29.35 56.0259 29.6805 56.3092 29.8536C56.561 29.9953 56.986 29.9323 57.1119 29.649C58.7645 25.8245 59.1107 21.5593 58.5284 17.4672C58.3395 16.1609 57.9933 14.3982 56.7499 13.6585C55.2862 12.7771 53.492 14.2408 52.3588 15.0907C51.4932 15.736 50.7062 16.3183 49.9035 17.0423C48.8176 18.0181 47.8418 19.1198 46.7873 20.1428C46.2364 20.6779 47.0706 21.5121 47.6214 20.977L47.6686 20.9455Z" fill="#231F20"/>
<path d="M54.2628 17.8137C52.9093 18.5377 51.7446 19.6394 50.9262 20.9457C50.7058 21.2919 50.517 21.6697 50.3439 22.0474C50.2809 22.2048 50.2337 22.3307 50.2809 22.5038C50.3124 22.6455 50.4225 22.7871 50.5485 22.8501C50.6901 22.9288 50.8475 22.9602 51.0049 22.913C51.1465 22.8658 51.3039 22.7714 51.3511 22.6455C51.4928 22.315 51.6659 22.0002 51.839 21.7011C51.9335 21.5438 52.0279 21.4021 52.1223 21.2447C52.1696 21.166 52.2325 21.1031 52.2797 21.0244C52.3112 20.9929 52.3269 20.9614 52.3584 20.9299C52.4056 20.867 52.2797 21.0244 52.3269 20.9772C52.3427 20.9614 52.3584 20.9299 52.3742 20.9142C52.5945 20.6309 52.8306 20.3633 53.0981 20.1273C53.224 20.0014 53.3657 19.8754 53.5073 19.7495C53.5703 19.7023 53.6333 19.6394 53.6962 19.5922C53.7119 19.5922 53.8379 19.482 53.7434 19.5449C53.7277 19.5449 53.6647 19.6079 53.7434 19.5449C53.7749 19.5292 53.7906 19.5135 53.8221 19.482C54.1526 19.2459 54.4831 19.0256 54.8451 18.8367C55.1127 18.695 55.2229 18.2858 55.0497 18.034C54.8766 17.7507 54.5304 17.672 54.2471 17.8294L54.2628 17.8137Z" fill="#231F20"/>
<path d="M52.9254 25.9349C55.3177 28.5475 56.6398 32.1517 56.3408 35.6929C56.0417 39.2342 54.1216 42.1301 51.2414 43.8771C49.636 44.8529 47.8261 45.3723 45.9374 45.3093C45.182 45.2778 45.182 46.4582 45.9374 46.4897C49.6203 46.5999 53.0828 44.664 55.2705 41.7523C57.5998 38.6518 58.0878 34.5597 57.0175 30.8769C56.4037 28.7207 55.2705 26.7376 53.7596 25.085C53.2402 24.5184 52.4061 25.3526 52.9254 25.9192V25.9349Z" fill="#231F20"/>
</svg>
