<svg width="80" height="77" viewBox="0 0 80 77" fill="none" xmlns="http://www.w3.org/2000/svg">
<mask id="mask0_3412_32012" style="mask-type:luminance" maskUnits="userSpaceOnUse" x="45" y="42" width="14" height="17">
<path d="M54.7694 43.7853C54.0612 44.8398 53.9667 46.1618 53.9667 47.4367C53.9667 48.7115 54.0769 49.9863 53.7149 51.1982C53.1483 53.1184 51.3541 54.6135 49.3553 54.8181C48.6156 54.8968 47.8601 54.8181 47.1519 54.9913C46.4436 55.1644 45.7196 55.7152 45.7039 56.455C45.6724 57.3363 46.601 57.9502 47.4666 58.1548C49.9534 58.7371 52.7076 57.5882 54.5176 55.8884C56.8312 53.7322 56.1544 51.4501 56.6581 48.7115C56.8469 47.6413 57.4607 46.7127 57.8857 45.7054C58.3736 44.5565 58.7513 43.2974 57.2876 42.7465C56.2489 42.3688 55.3045 42.9354 54.7694 43.7538V43.7853Z" fill="white"/>
</mask>
<g mask="url(#mask0_3412_32012)">
<path d="M54.7694 43.7853C54.0612 44.8398 53.9667 46.1618 53.9667 47.4367C53.9667 48.7115 54.0769 49.9863 53.7149 51.1982C53.1483 53.1184 51.3541 54.6135 49.3553 54.8181C48.6156 54.8968 47.8601 54.8181 47.1519 54.9913C46.4436 55.1644 45.7196 55.7152 45.7039 56.455C45.6724 57.3363 46.601 57.9502 47.4666 58.1548C49.9534 58.7371 52.7076 57.5882 54.5176 55.8884C56.8312 53.7322 56.1544 51.4501 56.6581 48.7115C56.8469 47.6413 57.4607 46.7127 57.8857 45.7054C58.3736 44.5565 58.7513 43.2974 57.2876 42.7465C56.2489 42.3688 55.3045 42.9354 54.7694 43.7538V43.7853Z" fill="white"/>
<path d="M54.5959 50.8512C52.6286 49.5134 49.4966 50.8197 50.5196 53.574C51.0232 54.9118 52.361 54.7701 53.447 55.2108C54.2497 55.5413 55.2255 55.0849 55.6347 54.3294C56.0439 53.574 55.9337 52.5982 55.5088 51.8584C55.2569 51.4335 54.9422 51.103 54.5959 50.8669V50.8512Z" fill="#F8C04E"/>
<path d="M56.3907 47.7354C58.6886 47.5465 62.1354 43.5961 58.484 42.6518C57.697 42.4472 56.8471 42.6203 56.1074 42.9823C53.6679 44.1942 52.4718 48.0344 56.3907 47.7196V47.7354Z" fill="#5C564D"/>
</g>
<mask id="mask1_3412_32012" style="mask-type:luminance" maskUnits="userSpaceOnUse" x="28" y="37" width="22" height="24">
<path d="M40.9042 37.8352C44.3667 38.9054 46.1609 41.9115 47.3885 45.075C48.0968 46.9007 48.5847 48.7893 49.1198 50.6937C49.9225 53.7155 49.5133 57.3984 47.0108 59.2398C45.3897 60.436 43.2807 60.6248 41.2661 60.735C36.1353 61.0026 29.9657 60.8295 28.9899 54.5497C28.5807 51.9056 29.5093 50.1271 30.2333 47.6719C31.1304 44.6343 32.358 40.7626 35.0651 38.9211C36.7491 37.7722 38.9368 37.2371 40.9042 37.8352Z" fill="white"/>
</mask>
<g mask="url(#mask1_3412_32012)">
<path d="M40.9042 37.8352C44.3667 38.9054 46.1609 41.9115 47.3885 45.075C48.0968 46.9007 48.5847 48.7893 49.1198 50.6937C49.9225 53.7155 49.5133 57.3984 47.0108 59.2398C45.3897 60.436 43.2807 60.6248 41.2661 60.735C36.1353 61.0026 29.9657 60.8295 28.9899 54.5497C28.5807 51.9056 29.5093 50.1271 30.2333 47.6719C31.1304 44.6343 32.358 40.7626 35.0651 38.9211C36.7491 37.7722 38.9368 37.2371 40.9042 37.8352Z" fill="#F8C04E"/>
<path d="M28.9897 59.8226C30.1387 60.8928 32.6883 61.664 33.3651 59.618C33.9002 57.9811 33.6799 53.1651 31.5079 52.6457C28.7064 51.9847 27.0224 56.6433 28.0139 58.6107C28.1871 58.9569 28.5491 59.3976 28.9897 59.8068V59.8226Z" fill="#5C564D"/>
<path d="M44.1302 51.1027C44.083 51.2758 44.0515 51.4489 44.0358 51.6378C44.02 51.9053 44.0358 52.1886 44.1145 52.4562C44.3978 53.5422 45.2634 54.4393 46.3336 54.7698C49.9535 55.8715 51.3071 49.7806 48.6472 48.553C48.175 48.3326 47.6085 48.5058 47.1206 48.6789C45.8772 49.1038 44.5237 49.7806 44.1459 51.1027H44.1302Z" fill="#5C564D"/>
<path d="M29.1005 43.5952C29.431 44.6654 30.6901 45.169 31.4298 46.0347C32.1853 46.916 32.3741 48.1279 32.5001 49.2769C32.8463 52.7079 32.1066 57.0203 34.1998 60.0579C35.5062 61.9308 38.1188 62.3243 40.4009 62.2141C41.66 62.1511 43.0293 61.9465 43.8792 61.018C44.2726 60.593 44.5087 60.0579 44.6818 59.507C45.7363 56.2649 44.5559 52.2043 44.8864 48.8204C44.9809 47.8604 45.154 46.8216 45.815 46.1291C46.0826 45.8458 46.4446 45.6255 46.6649 45.295C48.5221 42.5722 42.6515 40.353 40.9518 39.928C38.6696 39.3457 36.2459 39.4401 33.9952 40.1012C32.563 40.5261 28.5654 41.4862 29.0375 43.4693C29.0375 43.5165 29.0533 43.548 29.069 43.5952H29.1005Z" fill="white"/>
</g>
<path d="M31.9966 41.6437C31.3356 43.0602 30.706 44.5081 30.1237 45.9561C29.5413 47.4041 28.9905 48.7576 28.6128 50.2056C27.9517 52.7552 27.9045 55.5567 29.3525 57.8546C30.0765 59.0035 31.0837 59.8691 32.3428 60.357C33.0511 60.6246 33.3659 59.4914 32.6576 59.2239C29.9191 58.1694 29.0849 54.8485 29.4154 52.2201C29.62 50.5203 30.2181 48.8835 30.8477 47.2939C31.5244 45.5784 32.2484 43.8943 33.0196 42.226C33.3344 41.5335 32.3271 40.9354 31.9966 41.6279V41.6437Z" fill="#231F20"/>
<path d="M32.4688 55.635C32.5002 56.6108 32.5947 57.6024 32.7993 58.5467C32.9724 59.3809 33.3816 60.2308 34.1843 60.6242C34.6092 60.8288 35.0499 60.9075 35.5063 60.9233C35.9313 60.9233 36.4034 60.8918 36.8126 60.7974C37.3005 60.6872 37.7255 60.3881 37.9616 59.9475C38.1662 59.5697 38.2606 59.1448 38.3236 58.7198C38.4967 57.6181 38.5439 56.5007 38.418 55.3832C38.4023 55.2258 38.3708 55.0842 38.2449 54.9583C38.1347 54.8481 37.9773 54.7852 37.8199 54.7852C37.5366 54.7852 37.1904 55.0527 37.2218 55.3832C37.3163 56.2646 37.3163 57.146 37.2218 58.0273C37.2218 58.0903 37.2218 58.1375 37.2061 58.2005C37.2061 58.2319 37.2061 58.2477 37.2061 58.2792C37.2061 58.169 37.2061 58.3736 37.2061 58.2792C37.1904 58.3893 37.1746 58.4995 37.1589 58.6097C37.1274 58.7828 37.0959 58.9717 37.0487 59.1448C37.0487 59.192 37.0172 59.2235 37.0015 59.2707C37.0015 59.2864 37.0015 59.3022 36.9858 59.3179C36.97 59.3809 37.0172 59.255 37.0172 59.255C36.9858 59.2864 36.9858 59.3337 36.97 59.3651C36.9543 59.4123 36.9228 59.4438 36.8913 59.491C36.8913 59.491 36.8756 59.5225 36.8599 59.5383C36.8599 59.5383 36.9386 59.4438 36.8913 59.491C36.8599 59.5225 36.8284 59.554 36.7969 59.5855C36.8756 59.5383 36.7969 59.5855 36.7812 59.5855C36.7497 59.6012 36.671 59.6327 36.6553 59.6484C36.6867 59.6012 36.7497 59.6169 36.6867 59.6484C36.671 59.6484 36.6553 59.6484 36.6238 59.6642C36.5766 59.6642 36.5293 59.6956 36.4821 59.6956C36.4349 59.6956 36.4034 59.7114 36.3562 59.7271C36.3247 59.7271 36.309 59.7271 36.2775 59.7271C36.1988 59.7271 36.2775 59.7271 36.309 59.7271C36.2303 59.7586 36.1201 59.7429 36.0414 59.7586C35.947 59.7586 35.8683 59.7586 35.7739 59.7743C35.6008 59.7743 35.4119 59.7743 35.2388 59.7743C35.223 59.7743 35.2073 59.7743 35.1758 59.7743C35.1129 59.7743 35.2388 59.7743 35.2388 59.7743C35.1916 59.7743 35.1443 59.7743 35.1129 59.7586C35.0184 59.7429 34.924 59.7114 34.8453 59.6799C34.8138 59.6799 34.7823 59.6484 34.7351 59.6484C34.7351 59.6484 34.861 59.7114 34.7666 59.6484C34.7509 59.6484 34.7351 59.6327 34.7194 59.6169C34.6407 59.5697 34.562 59.5225 34.499 59.4753C34.4361 59.4281 34.5777 59.554 34.5305 59.491C34.5305 59.491 34.499 59.4596 34.4833 59.4596C34.4518 59.4281 34.4204 59.3966 34.3889 59.3651C34.3574 59.3337 34.3417 59.3179 34.3102 59.2864C34.2472 59.2077 34.3102 59.2707 34.3102 59.2864C34.263 59.2235 34.2315 59.1605 34.1843 59.0818C34.1685 59.0504 34.1371 59.0031 34.1213 58.9717C34.1213 58.9559 34.1213 58.9402 34.1056 58.9244C34.1843 59.0503 34.1371 58.9874 34.1056 58.9402C34.0426 58.7828 33.9954 58.6097 33.9482 58.4365C33.901 58.2319 33.8695 58.0431 33.838 57.8385C33.8223 57.7126 33.8065 57.6024 33.7908 57.4765C33.7908 57.4607 33.7751 57.3506 33.7908 57.4293C33.8065 57.508 33.7908 57.3978 33.7908 57.382C33.7908 57.3191 33.7751 57.2561 33.7751 57.1932C33.7121 56.6895 33.6806 56.1859 33.6649 55.6665C33.6649 55.3517 33.3973 55.0685 33.0668 55.0685C32.7363 55.0685 32.4688 55.3203 32.4688 55.6665V55.635Z" fill="#231F20"/>
<path d="M45.2645 42.2415C46.0357 43.9098 46.7597 45.5939 47.4365 47.3094C48.066 48.899 48.6641 50.5358 48.8687 52.2356C49.1992 54.864 48.365 58.1849 45.6265 59.2394C44.9183 59.5069 45.233 60.6559 45.9413 60.3726C48.1919 59.5069 49.6084 57.3507 50.0019 55.0214C50.4898 52.094 49.4668 49.1981 48.3965 46.5225C47.7355 44.8856 47.043 43.2645 46.2875 41.6592C45.9728 40.9667 44.9497 41.5648 45.2645 42.2573V42.2415Z" fill="#231F20"/>
<path d="M44.6344 55.6352C44.6344 56.0916 44.5872 56.5323 44.54 56.9887C44.54 57.0989 44.5242 57.1933 44.5085 57.3035C44.5085 57.3349 44.5085 57.3507 44.5085 57.3822C44.5085 57.4451 44.4927 57.5081 44.477 57.571C44.4455 57.7599 44.414 57.9488 44.3826 58.1534C44.3511 58.3265 44.3039 58.4996 44.2567 58.6727C44.2252 58.7514 44.2094 58.8301 44.178 58.9088L44.1465 58.9718C44.1465 58.9718 44.1937 58.8616 44.1622 58.9088C44.1465 58.956 44.115 59.0033 44.0993 59.0347C44.0678 59.0977 44.0206 59.1764 43.9734 59.2393C43.9734 59.2551 43.9419 59.2866 43.9261 59.3023C43.9261 59.3023 44.0048 59.2079 43.9576 59.2551C43.9261 59.2866 43.8947 59.3338 43.8632 59.3652C43.8317 59.3967 43.816 59.4125 43.7845 59.4439C43.7688 59.4597 43.753 59.4754 43.7215 59.4912C43.6743 59.5384 43.7688 59.4597 43.7688 59.4597C43.6901 59.4912 43.6271 59.5541 43.5484 59.6013C43.5327 59.6013 43.391 59.68 43.4855 59.6328C43.5642 59.6013 43.4382 59.6328 43.4225 59.6485C43.3438 59.68 43.2494 59.6958 43.1707 59.7115C43.1235 59.7115 43.0763 59.7115 43.0448 59.7272C42.9818 59.7272 43.1077 59.7272 43.1077 59.7272H43.029C42.9346 59.7272 42.8559 59.7272 42.7615 59.7272C42.5726 59.7272 42.3995 59.7272 42.2106 59.7115C42.1319 59.7115 42.0375 59.6958 41.9588 59.68C41.8958 59.68 42.0218 59.68 42.0218 59.68C41.9903 59.68 41.9588 59.68 41.9431 59.68C41.8958 59.68 41.8329 59.6643 41.7857 59.6485C41.7385 59.6485 41.707 59.6328 41.6598 59.6171C41.6283 59.6171 41.6126 59.6013 41.5811 59.5856C41.5653 59.5856 41.5339 59.5541 41.5181 59.5384C41.5024 59.5384 41.4866 59.5226 41.4709 59.5069C41.4079 59.4754 41.5496 59.5856 41.5024 59.5384C41.4709 59.5069 41.4394 59.4754 41.4079 59.4439C41.3607 59.381 41.3293 59.3023 41.282 59.2236C41.2506 59.1606 41.3135 59.2865 41.3135 59.2865C41.3135 59.2708 41.2978 59.2393 41.282 59.2236C41.282 59.1921 41.2663 59.1606 41.2506 59.1134C41.2191 59.019 41.2033 58.9403 41.1876 58.8459C41.1404 58.6413 41.1089 58.4367 41.0774 58.2321C41.0774 58.1691 41.0774 58.2635 41.0774 58.2635C41.0774 58.2321 41.0774 58.2006 41.0774 58.1691C41.0774 58.1061 41.0774 58.0432 41.0617 57.9802C41.0617 57.8543 41.0302 57.7284 41.0302 57.6025C41.0145 57.3507 40.9987 57.1146 40.9987 56.8628C40.9987 56.3591 41.0145 55.8555 41.0774 55.3676C41.1089 55.0528 40.7784 54.7695 40.4794 54.7695C40.1331 54.7695 39.9285 55.0371 39.8813 55.3676C39.7711 56.3277 39.7869 57.2877 39.9128 58.2478C40.0387 59.2079 40.1803 60.2624 41.1561 60.6716C41.5811 60.8447 42.0532 60.8919 42.4939 60.9076C42.9189 60.9234 43.3596 60.9076 43.7688 60.766C44.1937 60.6243 44.5872 60.3883 44.8705 60.0263C45.1538 59.6643 45.3426 59.2551 45.4528 58.8301C45.5945 58.3265 45.6574 57.7914 45.7204 57.272C45.7833 56.7211 45.8305 56.186 45.8463 55.6352C45.8463 55.3204 45.563 55.0371 45.2482 55.0371C44.9177 55.0371 44.6659 55.2889 44.6501 55.6352H44.6344Z" fill="#231F20"/>
<path d="M51.6072 54.7062C53.1968 53.9507 53.9365 52.1565 54.1569 50.5039C54.3929 48.6625 54.0782 46.6164 54.9595 44.9009C55.1484 44.5232 55.3845 44.1927 55.6835 43.9094C55.9353 43.6733 56.4075 43.2956 56.7852 43.39C57.525 43.5631 57.8397 42.4299 57.1 42.2568C56.1399 42.0365 55.1799 42.6818 54.5818 43.3743C53.9837 44.0668 53.6217 44.8852 53.4171 45.7508C52.945 47.7339 53.3699 49.8429 52.6459 51.7788C52.3469 52.5972 51.8118 53.3054 51.0091 53.6831C50.7258 53.8248 50.6471 54.234 50.8045 54.4858C50.9776 54.7848 51.3239 54.8321 51.6072 54.6904V54.7062Z" fill="#231F20"/>
<path d="M48.6009 58.6573C51.4339 58.7832 54.1567 57.2565 55.7463 54.9429C56.5804 53.7153 56.9739 52.3461 57.0998 50.8824C57.1628 50.0482 57.1628 49.1983 57.2887 48.3641C57.4146 47.53 57.7294 46.8532 58.1543 46.145C58.5792 45.4367 58.9412 44.6183 58.7052 43.7527C58.5006 42.9972 57.9182 42.3992 57.1155 42.3834C56.3601 42.352 56.3601 43.5324 57.1155 43.5638C57.509 43.5638 57.6349 44.1619 57.5877 44.4767C57.509 45.1377 57.0054 45.7043 56.7063 46.2866C56.0296 47.6244 56.0296 49.1196 55.9351 50.5833C55.8564 51.8581 55.5731 53.0228 54.8964 54.1088C54.2668 55.1161 53.3855 55.9502 52.3624 56.5483C51.2135 57.2251 49.9229 57.5713 48.5851 57.5084C47.8297 57.4769 47.8297 58.6573 48.5851 58.6888L48.6009 58.6573Z" fill="#231F20"/>
<path d="M34.499 58.7665C34.499 58.8767 34.499 58.9869 34.5305 59.1128C34.5305 59.1915 34.562 59.2702 34.5777 59.3488C34.6092 59.459 34.6564 59.5692 34.7036 59.6636C34.7351 59.7423 34.7823 59.8053 34.8295 59.884C34.861 59.9312 34.8925 59.9627 34.924 59.9941C34.9554 60.0256 35.0027 60.0571 35.0656 60.0571C35.1128 60.0728 35.1758 60.0728 35.223 60.0571C35.2702 60.0571 35.3174 60.0414 35.3647 60.0099C35.4433 59.9627 35.522 59.8682 35.5378 59.7738C35.5535 59.6794 35.5535 59.5535 35.4906 59.4748C35.4276 59.3961 35.3804 59.3016 35.3489 59.2072L35.3961 59.3016C35.3332 59.1757 35.3017 59.0341 35.286 58.8924V59.0026C35.286 59.0026 35.286 58.8452 35.286 58.7665C35.286 58.7193 35.286 58.6563 35.2545 58.6091C35.2387 58.5619 35.2073 58.5147 35.1758 58.4832C35.1443 58.4517 35.0971 58.4203 35.0499 58.4045C35.0027 58.373 34.9554 58.373 34.8925 58.373C34.7981 58.373 34.6879 58.4045 34.6092 58.4832C34.5305 58.5619 34.499 58.6563 34.499 58.7665Z" fill="#231F20"/>
<path d="M35.7892 59.1442L35.9309 59.9311C35.9309 59.9311 35.9623 60.0255 35.9938 60.0727C36.0253 60.1199 36.0568 60.1514 36.104 60.1672C36.1512 60.1986 36.1984 60.2144 36.2456 60.2144C36.2929 60.2144 36.3558 60.2144 36.403 60.2144L36.4975 60.1672C36.4975 60.1672 36.6076 60.0885 36.6391 60.0255L36.6863 59.9311C36.6863 59.9311 36.7021 59.7894 36.6863 59.7265L36.5447 58.9395C36.5447 58.9395 36.5132 58.8451 36.4817 58.7979C36.4502 58.7507 36.4188 58.7192 36.3716 58.7035C36.3243 58.672 36.2771 58.6562 36.2299 58.6562C36.1827 58.6562 36.1197 58.6562 36.0725 58.6562L35.9781 58.7035C35.9781 58.7035 35.8679 58.7822 35.8364 58.8451L35.7892 58.9395C35.7892 58.9395 35.7735 59.0812 35.7892 59.1442Z" fill="#231F20"/>
<path d="M41.6917 58.6729C41.6603 58.7831 41.6445 58.8932 41.6445 59.0034C41.6445 59.0821 41.6445 59.1608 41.6445 59.2552C41.6445 59.3654 41.676 59.4756 41.7075 59.5857C41.739 59.6959 41.7862 59.8061 41.8334 59.9005C41.8649 59.9477 41.8964 59.9792 41.9278 60.0107C41.9593 60.0422 42.0065 60.0736 42.0695 60.0736C42.1167 60.0894 42.1796 60.0894 42.2269 60.0736C42.2741 60.0736 42.3213 60.0579 42.3685 60.0264C42.4472 59.9792 42.5259 59.8848 42.5416 59.7904V59.6802C42.5416 59.6802 42.5416 59.5385 42.4944 59.4756C42.4944 59.4598 42.4787 59.4441 42.4629 59.4126L42.5102 59.5071C42.4629 59.3969 42.4315 59.2867 42.4157 59.1608V59.271C42.4157 59.1451 42.4157 59.0349 42.4157 58.909V59.0192C42.4157 59.0192 42.4157 58.909 42.4315 58.8618C42.4472 58.8146 42.4472 58.7516 42.4315 58.7044C42.4315 58.6572 42.4157 58.6099 42.3843 58.5627C42.3528 58.5155 42.3213 58.484 42.2898 58.4526C42.2583 58.4211 42.2111 58.3896 42.1482 58.3896C42.0537 58.3739 41.9278 58.3739 41.8491 58.4368C41.7704 58.4998 41.6917 58.5785 41.676 58.6729H41.6917Z" fill="#231F20"/>
<path d="M42.982 59.0036C42.982 59.0036 42.9978 59.0981 43.0135 59.1296V59.0194C43.0135 59.1453 43.0135 59.2712 43.0135 59.3814V59.2712C43.0135 59.3971 42.982 59.5073 42.9348 59.6175L42.982 59.523C42.982 59.523 42.9663 59.5702 42.9505 59.586C42.9191 59.6332 42.9033 59.6804 42.9033 59.7276C42.9033 59.7748 42.9033 59.8378 42.9033 59.885C42.9033 59.9322 42.9348 59.9794 42.9663 60.0267C42.9978 60.0739 43.0292 60.1054 43.0764 60.1211C43.1709 60.1683 43.281 60.1998 43.3755 60.1683C43.4699 60.1368 43.5643 60.0739 43.6116 59.9952C43.6588 59.9007 43.706 59.7906 43.7375 59.6804C43.769 59.5702 43.7847 59.4601 43.8004 59.3499C43.8004 59.2712 43.8004 59.1925 43.8004 59.1138C43.8004 59.0036 43.7847 58.8935 43.7532 58.7833C43.7532 58.7361 43.7217 58.6889 43.6903 58.6416C43.6588 58.5944 43.6273 58.563 43.5801 58.5472C43.5329 58.5157 43.4857 58.5 43.4384 58.5C43.3912 58.5 43.3283 58.5 43.281 58.5C43.1866 58.5315 43.0922 58.5944 43.045 58.6731L42.9978 58.7676C42.9978 58.7676 42.982 58.9092 42.9978 58.9722L42.982 59.0036Z" fill="#231F20"/>
<mask id="mask2_3412_32012" style="mask-type:luminance" maskUnits="userSpaceOnUse" x="20" y="13" width="38" height="34">
<path d="M20.2092 19.0268C20.1463 21.9699 20.5555 24.9288 21.4211 27.746C21.5942 28.2969 21.7831 28.8635 21.8303 29.4301C21.8933 30.0754 21.7673 30.7206 21.6887 31.3659C21.1535 35.5682 22.1608 40.1954 25.2928 43.0441C28.834 46.2548 34.0908 46.5223 38.8754 46.3335C41.5352 46.2233 44.2108 46.0502 46.7762 45.3105C49.3416 44.5707 51.7969 43.2802 53.5124 41.2499C54.2049 40.4314 54.7715 39.5186 55.1807 38.5428C55.8102 37.0319 56.2981 35.096 56.2194 33.4434C56.1408 32.027 55.464 30.8466 55.7001 29.3356C55.8732 28.2497 56.2667 27.2109 56.5972 26.1564C57.5572 23.0716 57.9035 19.735 57.2267 16.5715C57.0221 15.5957 56.6759 14.5727 55.8732 13.9746C54.5826 12.9988 53.5439 14.1005 52.4579 14.7301C50.7581 15.7216 49.2472 17.0594 48.051 18.6176C47.6576 19.1369 47.2641 19.7193 46.6503 19.9553C46.068 20.1914 45.4069 20.0655 44.7931 19.9553C42.6054 19.5934 40.3705 19.4517 38.1514 19.5461C36.609 19.6091 33.776 19.3888 32.3753 20.0026C32.2021 20.0813 32.029 20.1757 31.8401 20.1442C31.6198 20.1127 31.4624 19.9239 31.3208 19.7665C29.2905 17.2483 26.9926 14.7458 23.9393 13.6599C20.9332 12.5739 20.225 16.8548 20.1777 19.011L20.2092 19.0268Z" fill="white"/>
</mask>
<g mask="url(#mask2_3412_32012)">
<path d="M20.2082 19.0268C20.1453 21.9699 20.5545 24.9288 21.4201 27.746C21.5932 28.2969 21.7821 28.8635 21.8293 29.4301C21.8923 30.0754 21.7664 30.7206 21.6877 31.3659C21.1526 35.5682 22.1598 40.1954 25.2918 43.0441C28.8331 46.2548 34.0898 46.5223 38.8744 46.3335C41.5342 46.2233 44.2098 46.0502 46.7752 45.3105C49.3406 44.5707 51.7959 43.2802 53.5114 41.2499C54.2039 40.4314 54.7705 39.5186 55.1797 38.5428C55.8093 37.0319 56.2972 35.096 56.2185 33.4434C56.1398 32.027 55.463 30.8466 55.6991 29.3356C55.8722 28.2497 56.2657 27.2109 56.5962 26.1564C57.5563 23.0716 57.9025 19.735 57.2257 16.5715C57.0211 15.5957 56.6749 14.5727 55.8722 13.9746C54.5816 12.9988 53.5429 14.1005 52.4569 14.7301C50.7571 15.7216 49.2462 17.0594 48.0501 18.6176C47.6566 19.1369 47.2631 19.7193 46.6493 19.9553C46.067 20.1914 45.406 20.0655 44.7921 19.9553C42.6045 19.5934 40.3696 19.4517 38.1504 19.5461C36.608 19.6091 33.775 19.3888 32.3743 20.0026C32.2012 20.0813 32.028 20.1757 31.8392 20.1442C31.6188 20.1127 31.4614 19.9239 31.3198 19.7665C29.2895 17.2483 26.9916 14.7458 23.9383 13.6599C20.9322 12.5739 20.224 16.8548 20.1768 19.011L20.2082 19.0268Z" fill="white"/>
<path d="M55.9355 28.5794C56.3289 27.4935 57.1316 26.2973 57.3834 25.2428C58.0602 22.5043 58.0759 19.5926 57.3677 16.8698C56.628 14.0683 54.2986 12.8407 51.4971 13.5804C48.4281 14.3988 45.6266 16.0042 42.8723 17.5781C41.3614 18.4437 40.7161 19.2306 40.4958 21.0091C40.1023 24.3143 40.4328 27.8555 41.566 30.9875C41.8965 31.9003 42.29 32.7974 42.9038 33.5371C43.5491 34.3083 44.399 34.8749 45.2961 35.2999C47.7356 36.4488 55.9669 37.2672 56.3604 33.3483C56.502 31.9633 55.5735 30.6412 55.6994 29.4136C55.7308 29.146 55.8095 28.8627 55.9197 28.5637L55.9355 28.5794Z" fill="#F8C04E"/>
<path d="M27.2126 37.1578C29.6521 37.0633 32.1073 36.5754 34.232 35.4108C35.3652 34.5294 36.341 33.3805 37.0493 31.901C38.9694 27.8562 38.8277 22.8827 37.7418 18.5074C36.6558 18.3972 35.5541 18.1611 34.7357 17.5473C33.7756 16.8233 33.1146 15.6744 32.0916 14.9032C29.8724 13.2191 27.2283 12.086 24.4583 11.7712C22.1132 11.5036 19.5163 11.8499 17.7851 13.4552C16.4787 14.6671 15.8492 16.4141 15.3613 18.1139C13.9605 23.0401 14.9049 27.683 16.463 32.4204C17.8323 36.5912 23.388 37.2994 27.1968 37.142L27.2126 37.1578Z" fill="#5C564D"/>
<path d="M26.6776 19.6403C26.1897 19.0265 24.0177 17.2008 23.2465 17.972C22.9003 18.334 22.8373 18.8849 22.8058 19.3885C22.6799 21.7651 22.7114 24.2518 23.7344 26.408C23.5613 26.0617 25.5759 24.5193 25.7962 24.362C26.4415 23.8583 27.6849 23.0871 27.8737 22.2057C28.0626 21.3559 27.134 20.2541 26.6461 19.6403H26.6776Z" fill="white"/>
<path d="M53.7795 26.8795C55.1331 24.7547 55.0701 21.2135 54.6452 18.7897C54.5979 18.5064 54.5192 18.2232 54.3304 18.0343C53.449 17.2001 52.3945 18.6166 51.8909 19.1675C51.0725 20.0646 50.2068 21.2135 49.8291 22.4097C50.1911 23.4799 51.4659 24.314 52.1899 25.0695C52.7565 25.6518 53.2129 26.3443 53.7166 26.9896C53.748 26.9582 53.7638 26.9109 53.7795 26.8795Z" fill="white"/>
</g>
<path d="M30.5961 34.4832C31.448 34.4832 32.1385 33.7927 32.1385 32.9408C32.1385 32.089 31.448 31.3984 30.5961 31.3984C29.7443 31.3984 29.0537 32.089 29.0537 32.9408C29.0537 33.7927 29.7443 34.4832 30.5961 34.4832Z" fill="#231F20"/>
<path d="M46.6186 34.4832C47.4704 34.4832 48.161 33.7927 48.161 32.9408C48.161 32.089 47.4704 31.3984 46.6186 31.3984C45.7667 31.3984 45.0762 32.089 45.0762 32.9408C45.0762 33.7927 45.7667 34.4832 46.6186 34.4832Z" fill="#231F20"/>
<path d="M38.6067 35.5692C39.3716 35.5692 39.9917 35.1816 39.9917 34.7035C39.9917 34.2254 39.3716 33.8379 38.6067 33.8379C37.8418 33.8379 37.2217 34.2254 37.2217 34.7035C37.2217 35.1816 37.8418 35.5692 38.6067 35.5692Z" fill="#231F20"/>
<path d="M29.5577 21.8911C35.1292 19.6089 41.4247 19.4201 47.1378 21.3874C47.8618 21.6392 48.1608 20.4903 47.4526 20.2542C41.5821 18.2239 35.0033 18.3971 29.2586 20.7579C28.9596 20.8838 28.755 21.1513 28.8494 21.4819C28.9281 21.7652 29.2744 22.017 29.5734 21.8911H29.5577Z" fill="#231F20"/>
<path d="M22.7424 14.1317C25.292 15.2335 27.6371 16.7601 29.6359 18.6802C30.2025 19.2311 30.7534 19.8134 31.2728 20.4115C31.4774 20.6476 31.9023 20.6318 32.1069 20.4115C32.343 20.1754 32.3115 19.8134 32.1069 19.5773C30.2497 17.4054 27.9991 15.564 25.5124 14.179C24.8041 13.7855 24.0801 13.4235 23.3404 13.1087C23.0414 12.9828 22.7109 13.0143 22.5378 13.3133C22.3961 13.5651 22.4591 13.9901 22.7424 14.116V14.1317Z" fill="#231F20"/>
<path d="M20.8856 14.4148C19.1229 19.2152 19.3275 24.5978 21.3421 29.2722C21.468 29.5713 21.8929 29.6342 22.1447 29.4768C22.4438 29.3037 22.491 28.9574 22.3493 28.6741C20.4607 24.283 20.3663 19.1994 22.0031 14.7296C22.2706 14.0214 21.1217 13.7066 20.8699 14.4148H20.8856Z" fill="#231F20"/>
<path d="M23.6397 18.4769C23.9545 18.65 24.2535 18.8389 24.5526 19.0435C24.6312 19.0907 24.6942 19.1537 24.7729 19.2009C24.8358 19.2481 24.6785 19.1222 24.7257 19.1694C24.7414 19.1694 24.7572 19.2009 24.7729 19.2009C24.8044 19.2324 24.8516 19.2638 24.8831 19.2953C25.0247 19.4055 25.1506 19.5314 25.2923 19.6416C25.5598 19.8776 25.7959 20.1452 26.032 20.4128C26.0635 20.4442 26.0949 20.4915 26.1264 20.5229C26.1264 20.5387 26.2366 20.6646 26.1736 20.5702C26.1107 20.4757 26.2051 20.6016 26.2209 20.6174C26.2523 20.6646 26.2838 20.6961 26.3153 20.7433C26.4255 20.8849 26.5199 21.0423 26.6143 21.184C26.8347 21.5302 27.0235 21.8765 27.1809 22.2542C27.2439 22.3801 27.4013 22.4903 27.5272 22.5218C27.6688 22.5532 27.8577 22.5375 27.9836 22.4588C28.1095 22.3801 28.2197 22.2542 28.2512 22.1125C28.2826 21.9552 28.2512 21.8135 28.1882 21.6561C27.5586 20.2396 26.5514 19.0278 25.308 18.0992C24.9775 17.8473 24.6312 17.627 24.2535 17.4381C23.986 17.2965 23.5925 17.3594 23.4508 17.6427C23.3092 17.9103 23.3721 18.288 23.6554 18.4454L23.6397 18.4769Z" fill="#231F20"/>
<path d="M24.7412 24.7398C22.1129 27.6043 20.6177 31.5862 20.9954 35.4894C21.3731 39.3926 23.4507 42.5875 26.6771 44.5549C28.4398 45.6251 30.5016 46.2232 32.5791 46.1445C33.3346 46.113 33.3346 44.9326 32.5791 44.9641C29.2897 45.0743 26.1105 43.343 24.1904 40.6989C22.1129 37.8502 21.6722 34.1988 22.648 30.8464C23.2146 28.8948 24.2219 27.0849 25.6069 25.574C26.1262 25.0074 25.2921 24.1732 24.7727 24.7398H24.7412Z" fill="#231F20"/>
<path d="M46.9018 20.5852C47.7517 19.751 48.5544 18.8696 49.42 18.0355C50.1125 17.3745 50.8522 16.7921 51.5919 16.2098C52.253 15.7061 52.914 15.2025 53.6222 14.7618C53.9213 14.573 54.2518 14.3841 54.5823 14.2739C54.661 14.2424 54.7397 14.2267 54.8341 14.1952C54.9286 14.1638 54.9128 14.1795 54.9286 14.1795C55.1174 14.1795 55.0859 14.1795 55.2276 14.211C55.322 14.2424 55.2748 14.211 55.2906 14.2267C55.3378 14.2424 55.385 14.2739 55.4322 14.3054C55.5109 14.3526 55.5581 14.3998 55.6683 14.51C55.8099 14.6674 55.9516 14.9035 56.0617 15.1553C56.3293 15.7219 56.4867 16.4301 56.5811 17.0754C56.7857 18.303 56.8172 19.5779 56.8329 20.8212C56.8644 23.5126 56.408 26.2039 55.3378 28.6906C55.2119 28.9896 55.2591 29.3202 55.5424 29.4933C55.7942 29.6349 56.2191 29.572 56.345 29.2887C57.9976 25.4642 58.3439 21.199 57.7615 17.1069C57.5727 15.8006 57.2264 14.0378 55.9831 13.2981C54.5194 12.4168 52.7251 13.8805 51.5919 14.7303C50.7263 15.3756 49.9394 15.958 49.1367 16.6819C48.0507 17.6577 47.0749 18.7595 46.0204 19.7825C45.4696 20.3176 46.3037 21.1517 46.8546 20.6166L46.9018 20.5852Z" fill="#231F20"/>
<path d="M53.4962 17.4528C52.1427 18.1768 50.978 19.2785 50.1596 20.5848C49.9392 20.9311 49.7504 21.3088 49.5773 21.6866C49.5143 21.8439 49.4671 21.9698 49.5143 22.143C49.5458 22.2846 49.6559 22.4263 49.7819 22.4892C49.9235 22.5679 50.0809 22.5994 50.2383 22.5522C50.3799 22.505 50.5373 22.4105 50.5845 22.2846C50.7262 21.9541 50.8993 21.6393 51.0724 21.3403C51.1669 21.1829 51.2613 21.0413 51.3557 20.8839C51.4029 20.8052 51.4659 20.7422 51.5131 20.6635C51.5446 20.6321 51.5603 20.6006 51.5918 20.5691C51.639 20.5061 51.5131 20.6635 51.5603 20.6163C51.5761 20.6006 51.5918 20.5691 51.6076 20.5534C51.8279 20.2701 52.064 20.0025 52.3315 19.7664C52.4574 19.6405 52.5991 19.5146 52.7407 19.3887C52.8037 19.3415 52.8667 19.2785 52.9296 19.2313C52.9453 19.2313 53.0713 19.1211 52.9768 19.1841C52.8981 19.247 52.9611 19.1841 52.9768 19.1841C53.0083 19.1684 53.024 19.1526 53.0555 19.1211C53.386 18.8851 53.7165 18.6647 54.0785 18.4759C54.3461 18.3342 54.4563 17.925 54.2831 17.6732C54.11 17.3899 53.7638 17.3112 53.4805 17.4686L53.4962 17.4528Z" fill="#231F20"/>
<path d="M52.1591 25.5741C54.5514 28.1867 55.8734 31.7909 55.5744 35.3321C55.2754 38.8733 53.3552 41.7692 50.475 43.5162C48.8697 44.492 47.0597 45.0114 45.1711 44.9485C44.4156 44.917 44.4156 46.0974 45.1711 46.1289C48.854 46.239 52.3165 44.3032 54.5042 41.3915C56.8335 38.291 57.3214 34.1989 56.2512 30.516C55.6373 28.3598 54.5042 26.3768 52.9932 24.7242C52.4739 24.1576 51.6397 24.9917 52.1591 25.5583V25.5741Z" fill="#231F20"/>
</svg>
