<svg width="80" height="77" viewBox="0 0 80 77" fill="none" xmlns="http://www.w3.org/2000/svg">
<path d="M55.2096 44.1481C54.5014 45.2026 54.4069 46.5246 54.4069 47.7995C54.4069 49.0743 54.5171 50.3491 54.1551 51.561C53.5885 53.4812 51.7943 54.9763 49.7955 55.1809C49.0558 55.2596 48.3003 55.1809 47.5921 55.3541C46.8838 55.5272 46.1598 56.078 46.1441 56.8178C46.1126 57.6991 47.0412 58.3129 47.9068 58.5175C50.3935 59.0999 53.1478 57.951 54.9578 56.2512C57.2714 54.095 56.5946 51.8128 57.0983 49.0743C57.2871 48.0041 57.9009 47.0755 58.3259 46.0682C58.8138 44.9193 59.1915 43.6602 57.7278 43.1093C56.689 42.7316 55.7447 43.2982 55.2096 44.1166V44.1481Z" fill="#F8C04E"/>
<mask id="mask0_188_1895" style="mask-type:luminance" maskUnits="userSpaceOnUse" x="29" y="37" width="21" height="25">
<path d="M41.3441 38.1989C44.8066 39.2692 46.6008 42.2753 47.8285 45.4387C48.5367 47.2644 49.0246 49.1531 49.5597 51.0575C50.3624 54.0793 49.9532 57.7622 47.4507 59.6036C45.8296 60.7998 43.7207 60.9886 41.7061 61.0988C36.5753 61.3663 30.4057 61.1932 29.4299 54.9135C29.0207 52.2694 29.9493 50.4909 30.6732 48.0356C31.5703 44.9981 32.798 41.1263 35.505 39.2849C37.1891 38.136 39.3768 37.6009 41.3441 38.1989Z" fill="white"/>
</mask>
<g mask="url(#mask0_188_1895)">
<path d="M41.3441 38.1989C44.8066 39.2692 46.6008 42.2753 47.8285 45.4387C48.5367 47.2644 49.0246 49.1531 49.5597 51.0575C50.3624 54.0793 49.9532 57.7622 47.4507 59.6036C45.8296 60.7998 43.7207 60.9886 41.7061 61.0988C36.5753 61.3663 30.4057 61.1932 29.4299 54.9135C29.0207 52.2694 29.9493 50.4909 30.6732 48.0356C31.5703 44.9981 32.798 41.1263 35.505 39.2849C37.1891 38.136 39.3768 37.6009 41.3441 38.1989Z" fill="#F8C04E"/>
<path d="M28.8794 51.6869L32.0901 51.5137C32.4993 51.498 32.9085 51.3564 33.2076 51.0573C33.4751 50.7898 33.6797 50.3333 33.664 49.9399C33.6483 49.5464 33.5066 49.1057 33.2076 48.8224C32.9085 48.5391 32.5151 48.3345 32.0901 48.366L28.8794 48.5391C28.4702 48.5549 28.061 48.6965 27.762 48.9955C27.4944 49.2631 27.2898 49.7195 27.3055 50.113C27.3213 50.5065 27.4629 50.9471 27.762 51.2304C28.061 51.5137 28.4545 51.7183 28.8794 51.6869Z" fill="#E98029"/>
<path d="M29.7292 57.4943C30.2328 57.2425 30.7522 57.0064 31.2716 56.8018L30.8938 56.9592C31.2716 56.8018 31.6493 56.6444 32.027 56.5028C32.2316 56.4555 32.4048 56.3611 32.5621 56.2195C32.7353 56.1093 32.8612 55.9676 32.9714 55.7788C33.176 55.4483 33.2547 54.9446 33.1287 54.5669C33.0028 54.1892 32.7667 53.8114 32.4048 53.6226C32.0428 53.4337 31.5863 53.3235 31.1929 53.4652C30.1541 53.8587 29.1311 54.2836 28.1396 54.7715C27.7933 54.9446 27.51 55.3538 27.4156 55.7158C27.3054 56.0936 27.3526 56.5972 27.573 56.9277C27.7933 57.2582 28.1081 57.5573 28.5173 57.6517L28.9422 57.7146C29.2255 57.7146 29.4931 57.636 29.7292 57.4943Z" fill="#E98029"/>
<path d="M47.357 51.8602L50.7093 51.6871C51.1185 51.6713 51.5277 51.5297 51.8268 51.2307C52.0943 50.9631 52.2989 50.5067 52.2832 50.1132C52.2674 49.7197 52.1258 49.279 51.8268 48.9958C51.5277 48.7125 51.1342 48.5079 50.7093 48.5393L47.357 48.7125C46.9477 48.7282 46.5385 48.8698 46.2395 49.1689C45.9719 49.4364 45.7673 49.8929 45.7831 50.2863C45.7988 50.6798 45.9405 51.1205 46.2395 51.4038C46.5385 51.6871 46.932 51.8917 47.357 51.8602Z" fill="#E98029"/>
<path d="M47.0102 56.9592L49.796 57.5101C50.2209 57.5887 50.6301 57.573 51.0079 57.3527C51.3384 57.1638 51.6531 56.7861 51.7318 56.4083C51.8263 55.9991 51.8105 55.5584 51.5745 55.1965C51.3541 54.8659 51.0393 54.5512 50.6301 54.4725L47.8444 53.9216C47.4194 53.8429 47.0102 53.8587 46.6325 54.079C46.302 54.2679 45.9872 54.6456 45.9085 55.0233C45.8141 55.4325 45.8298 55.8732 46.0659 56.2352C46.2862 56.5657 46.601 56.8805 47.0102 56.9592Z" fill="#E98029"/>
</g>
<path d="M57.3817 47.4216C57.7752 47.3744 57.9168 47.0124 58.1529 46.493C58.6565 45.3598 59.3018 43.723 57.7279 43.1407C56.1383 42.5583 55.2097 44.0378 54.6589 45.2339C54.6117 45.3284 54.5645 45.4228 54.5645 45.533C54.5645 45.7218 54.6904 45.8792 54.832 46.0051C55.3671 46.5402 56.0911 47.1068 56.8308 47.3429C57.0669 47.4216 57.24 47.4374 57.3817 47.4216Z" fill="#E98029"/>
<path d="M55.3673 48.8381C55.0682 48.7122 54.7535 48.5862 54.423 48.4761C54.423 48.9482 54.4702 49.4361 54.423 49.8926C54.3915 50.2388 54.1554 50.8211 54.2813 51.1202C54.3285 51.2304 54.423 51.3248 54.5017 51.4035C55.0368 51.9071 55.6506 52.3163 56.3116 52.6154C56.9412 52.8829 56.9726 49.8768 57.0356 49.4676C56.469 49.263 55.9024 49.0584 55.3515 48.8223L55.3673 48.8381Z" fill="#E98029"/>
<path d="M53.3685 53.1035C53.3685 53.1035 52.55 53.9849 52.4556 54.0636C52.0936 54.3469 51.6529 54.4256 51.889 54.9607C52.251 55.7948 52.613 56.629 52.9907 57.4631C53.7619 57.3687 54.4072 56.8021 54.9581 56.267C55.446 55.8106 55.7922 55.3384 56.044 54.8663C55.1627 54.2682 54.2656 53.6701 53.3685 53.1035Z" fill="#E98029"/>
<path d="M32.4517 42.0075C31.7906 43.4239 31.1611 44.8719 30.5788 46.3199C29.9964 47.7678 29.4456 49.1214 29.0678 50.5693C28.4068 53.119 28.3596 55.9205 29.8076 58.2184C30.5315 59.3673 31.5388 60.2329 32.7979 60.7208C33.5062 60.9884 33.8209 59.8552 33.1127 59.5876C30.3742 58.5331 29.54 55.2123 29.8705 52.5839C30.0751 50.8841 30.6732 49.2473 31.3027 47.6577C31.9795 45.9421 32.7035 44.2581 33.4747 42.5898C33.7895 41.8973 32.7822 41.2992 32.4517 41.9917V42.0075Z" fill="#231F20"/>
<path d="M32.908 55.9993C32.9394 56.9751 33.0339 57.9666 33.2385 58.911C33.4116 59.7451 33.8208 60.595 34.6235 60.9885C35.0484 61.1931 35.4891 61.2718 35.9455 61.2875C36.3705 61.2875 36.8426 61.256 37.2519 61.1616C37.7398 61.0514 38.1647 60.7524 38.4008 60.3117C38.6054 59.934 38.6998 59.509 38.7628 59.0841C38.9359 57.9824 38.9831 56.8649 38.8572 55.7475C38.8415 55.5901 38.81 55.4485 38.6841 55.3225C38.5739 55.2124 38.4165 55.1494 38.2591 55.1494C37.9758 55.1494 37.6296 55.417 37.6611 55.7475C37.7555 56.6289 37.7555 57.5102 37.6611 58.3916C37.6611 58.4546 37.6611 58.5018 37.6453 58.5647C37.6453 58.5962 37.6453 58.6119 37.6453 58.6434C37.6453 58.7378 37.6453 58.5332 37.6453 58.6434C37.6296 58.7536 37.6138 58.8638 37.5981 58.9739C37.5666 59.1471 37.5351 59.3359 37.4879 59.509C37.4879 59.5563 37.4565 59.5877 37.4407 59.635C37.4407 59.6507 37.4407 59.6664 37.425 59.6822C37.4092 59.7451 37.4565 59.6192 37.4565 59.6192C37.425 59.6507 37.425 59.6979 37.4092 59.7294C37.3935 59.7766 37.362 59.8081 37.3305 59.8553C37.3305 59.8553 37.3148 59.8868 37.2991 59.9025C37.2991 59.9025 37.3778 59.8081 37.3305 59.8553C37.2991 59.8868 37.2676 59.9182 37.2361 59.9497C37.3148 59.9025 37.2361 59.9497 37.2204 59.9497C37.1889 59.9655 37.1102 59.9969 37.0945 60.0127C37.1259 59.9655 37.1889 59.9812 37.1259 60.0127C37.1102 60.0127 37.0945 60.0127 37.063 60.0284C37.0158 60.0284 36.9686 60.0599 36.9213 60.0599C36.8741 60.0599 36.8426 60.0756 36.7954 60.0914C36.7639 60.0914 36.7482 60.0914 36.7167 60.0914C36.638 60.0914 36.7167 60.0914 36.7482 60.0914C36.6695 60.1229 36.5593 60.1071 36.4806 60.1229C36.3862 60.1229 36.3075 60.1229 36.2131 60.1386C36.04 60.1386 35.8511 60.1386 35.678 60.1386C35.6622 60.1386 35.6465 60.1386 35.615 60.1386C35.5521 60.1386 35.678 60.1386 35.678 60.1386C35.6308 60.1386 35.5835 60.1386 35.5521 60.1229C35.4576 60.1071 35.3632 60.0756 35.2845 60.0442C35.253 60.0442 35.2216 60.0127 35.1743 60.0127C35.1743 60.0127 35.3002 60.0756 35.2058 60.0127C35.1901 60.0127 35.1743 59.9969 35.1586 59.9812C35.0799 59.934 35.0012 59.8868 34.9383 59.8396C34.8753 59.7923 35.0169 59.9183 34.9697 59.8553C34.9697 59.8553 34.9383 59.8238 34.9225 59.8238C34.891 59.7923 34.8596 59.7609 34.8281 59.7294C34.7966 59.6979 34.7809 59.6822 34.7494 59.6507C34.7494 59.635 34.6864 59.572 34.7494 59.6507C34.7022 59.5877 34.6707 59.5248 34.6235 59.4461C34.6077 59.4146 34.5763 59.3674 34.5605 59.3359C34.5605 59.3202 34.5605 59.3044 34.5448 59.2887C34.6235 59.4146 34.5763 59.3517 34.5448 59.3044C34.4818 59.1471 34.4346 58.9739 34.3874 58.8008C34.3402 58.5962 34.3087 58.4073 34.2772 58.2027C34.2615 58.0768 34.2458 57.9666 34.23 57.8407C34.23 57.825 34.2143 57.7148 34.23 57.7935C34.2458 57.8722 34.23 57.762 34.23 57.7463C34.23 57.6834 34.2143 57.6204 34.2143 57.5574C34.1513 57.0538 34.1198 56.5502 34.1041 56.0308C34.1041 55.716 33.8365 55.4327 33.506 55.4327C33.1755 55.4327 32.908 55.6845 32.908 56.0308V55.9993Z" fill="#231F20"/>
<path d="M45.7037 42.6058C46.4749 44.2741 47.1989 45.9581 47.8757 47.6737C48.5052 49.2633 49.1033 50.9001 49.3079 52.5999C49.6384 55.2283 48.8043 58.5491 46.0657 59.6036C45.3575 59.8712 45.6722 61.0201 46.3805 60.7368C48.6311 59.8712 50.0476 57.715 50.4411 55.3856C50.929 52.4582 49.906 49.5623 48.8357 46.8867C48.1747 45.2499 47.4822 43.6288 46.7267 42.0235C46.412 41.3309 45.3889 41.929 45.7037 42.6215V42.6058Z" fill="#231F20"/>
<path d="M45.0746 55.9994C45.0746 56.4558 45.0274 56.8965 44.9801 57.353C44.9801 57.4631 44.9644 57.5576 44.9487 57.6677C44.9487 57.6992 44.9487 57.7149 44.9487 57.7464C44.9487 57.8094 44.9329 57.8723 44.9172 57.9353C44.8857 58.1241 44.8542 58.313 44.8228 58.5176C44.7913 58.6907 44.7441 58.8639 44.6968 59.037C44.6654 59.1157 44.6496 59.1944 44.6182 59.2731L44.5867 59.336C44.5867 59.336 44.6339 59.2259 44.6024 59.2731C44.5867 59.3203 44.5552 59.3675 44.5395 59.399C44.508 59.4619 44.4608 59.5406 44.4135 59.6036C44.4135 59.6193 44.3821 59.6508 44.3663 59.6665C44.3663 59.6665 44.445 59.5721 44.3978 59.6193C44.3663 59.6508 44.3349 59.698 44.3034 59.7295C44.2719 59.761 44.2562 59.7767 44.2247 59.8082C44.2089 59.8239 44.1932 59.8397 44.1617 59.8554C44.1145 59.9026 44.2089 59.8239 44.2089 59.8239C44.1303 59.8554 44.0673 59.9184 43.9886 59.9656C43.9729 59.9656 43.8312 60.0443 43.9256 59.9971C44.0043 59.9656 43.8784 59.9971 43.8627 60.0128C43.784 60.0443 43.6896 60.06 43.6109 60.0758C43.5637 60.0758 43.5164 60.0757 43.485 60.0915C43.422 60.0915 43.5479 60.0915 43.5479 60.0915H43.4692C43.3748 60.0915 43.2961 60.0915 43.2017 60.0915C43.0128 60.0915 42.8397 60.0915 42.6508 60.0758C42.5721 60.0758 42.4777 60.06 42.399 60.0443C42.336 60.0443 42.4619 60.0443 42.4619 60.0443C42.4305 60.0443 42.399 60.0443 42.3833 60.0443C42.336 60.0443 42.2731 60.0285 42.2259 60.0128C42.1786 60.0128 42.1472 59.9971 42.1 59.9813C42.0685 59.9813 42.0527 59.9656 42.0213 59.9498C42.0055 59.9498 41.974 59.9184 41.9583 59.9026C41.9426 59.9026 41.9268 59.8869 41.9111 59.8711C41.8481 59.8397 41.9898 59.9498 41.9426 59.9026C41.9111 59.8711 41.8796 59.8397 41.8481 59.8082C41.8009 59.7452 41.7694 59.6665 41.7222 59.5878C41.6907 59.5249 41.7537 59.6508 41.7537 59.6508C41.7537 59.6351 41.738 59.6036 41.7222 59.5878C41.7222 59.5564 41.7065 59.5249 41.6907 59.4777C41.6593 59.3832 41.6435 59.3046 41.6278 59.2101C41.5806 59.0055 41.5491 58.8009 41.5176 58.5963C41.5176 58.5334 41.5176 58.6278 41.5176 58.6278C41.5176 58.5963 41.5176 58.5648 41.5176 58.5334C41.5176 58.4704 41.5176 58.4074 41.5019 58.3445C41.5019 58.2186 41.4704 58.0927 41.4704 57.9668C41.4547 57.7149 41.4389 57.4789 41.4389 57.227C41.4389 56.7234 41.4547 56.2198 41.5176 55.7319C41.5491 55.4171 41.2186 55.1338 40.9196 55.1338C40.5733 55.1338 40.3687 55.4013 40.3215 55.7319C40.2113 56.6919 40.227 57.652 40.353 58.612C40.4789 59.5721 40.6205 60.6266 41.5963 61.0358C42.0213 61.2089 42.4934 61.2562 42.9341 61.2719C43.3591 61.2876 43.7997 61.2719 44.2089 61.1302C44.6339 60.9886 45.0274 60.7525 45.3107 60.3905C45.594 60.0285 45.7828 59.6193 45.893 59.1944C46.0346 58.6907 46.0976 58.1556 46.1606 57.6362C46.2235 57.0854 46.2707 56.5503 46.2865 55.9994C46.2865 55.6846 46.0032 55.4013 45.6884 55.4013C45.3579 55.4013 45.1061 55.6532 45.0903 55.9994H45.0746Z" fill="#231F20"/>
<path d="M52.0469 55.0709C53.6365 54.3154 54.3762 52.5212 54.5966 50.8687C54.8326 49.0272 54.5179 46.9812 55.3992 45.2657C55.5881 44.8879 55.8242 44.5574 56.1232 44.2741C56.375 44.038 56.8472 43.6603 57.2249 43.7548C57.9646 43.9279 58.2794 42.7947 57.5397 42.6216C56.5796 42.4012 55.6196 43.0465 55.0215 43.739C54.4234 44.4315 54.0614 45.2499 53.8568 46.1156C53.3847 48.0986 53.8096 50.2076 53.0856 52.1435C52.7866 52.9619 52.2515 53.6702 51.4488 54.0479C51.1655 54.1895 51.0868 54.5987 51.2442 54.8506C51.4173 55.1496 51.7636 55.1968 52.0469 55.0552V55.0709Z" fill="#231F20"/>
<path d="M49.0408 59.021C51.8738 59.147 54.5966 57.6203 56.1862 55.3067C57.0204 54.0791 57.4138 52.7098 57.5397 51.2461C57.6027 50.412 57.6027 49.5621 57.7286 48.7279C57.8545 47.8938 58.1693 47.217 58.5942 46.5088C59.0192 45.8005 59.3812 44.9821 59.1451 44.1165C58.9405 43.361 58.3582 42.7629 57.5555 42.7472C56.8 42.7157 56.8 43.8961 57.5555 43.9276C57.949 43.9276 58.0749 44.5257 58.0276 44.8405C57.949 45.5015 57.4453 46.0681 57.1463 46.6504C56.4695 47.9882 56.4695 49.4834 56.3751 50.9471C56.2964 52.2219 56.0131 53.3866 55.3363 54.4726C54.7068 55.4798 53.8254 56.314 52.8024 56.9121C51.6535 57.5888 50.3629 57.9351 49.0251 57.8721C48.2696 57.8406 48.2696 59.0211 49.0251 59.0525L49.0408 59.021Z" fill="#231F20"/>
<path d="M34.9382 59.1313C34.9382 59.2414 34.9382 59.3516 34.9697 59.4775C34.9697 59.5562 35.0012 59.6349 35.0169 59.7136C35.0484 59.8238 35.0956 59.9339 35.1428 60.0284C35.1743 60.1071 35.2215 60.17 35.2687 60.2487C35.3002 60.2959 35.3317 60.3274 35.3632 60.3589C35.3947 60.3904 35.4419 60.4218 35.5048 60.4218C35.552 60.4376 35.615 60.4376 35.6622 60.4218C35.7094 60.4218 35.7566 60.4061 35.8039 60.3746C35.8826 60.3274 35.9613 60.233 35.977 60.1385C35.9927 60.0441 35.9927 59.9182 35.9298 59.8395C35.8668 59.7608 35.8196 59.6664 35.7881 59.572L35.8353 59.6664C35.7724 59.5405 35.7409 59.3988 35.7252 59.2572V59.3673C35.7252 59.3673 35.7252 59.21 35.7252 59.1313C35.7252 59.084 35.7252 59.0211 35.6937 58.9739C35.678 58.9267 35.6465 58.8794 35.615 58.848C35.5835 58.8165 35.5363 58.785 35.4891 58.7693C35.4419 58.7378 35.3947 58.7378 35.3317 58.7378C35.2373 58.7378 35.1271 58.7693 35.0484 58.848C34.9697 58.9267 34.9382 59.0211 34.9382 59.1313Z" fill="#231F20"/>
<path d="M36.2448 59.5089L36.3864 60.2958C36.3864 60.2958 36.4179 60.3903 36.4494 60.4375C36.4809 60.4847 36.5123 60.5162 36.5596 60.5319C36.6068 60.5634 36.654 60.5791 36.7012 60.5791C36.7484 60.5791 36.8114 60.5791 36.8586 60.5791L36.953 60.5319C36.953 60.5319 37.0632 60.4532 37.0947 60.3903L37.1419 60.2958C37.1419 60.2958 37.1576 60.1542 37.1419 60.0912L37.0002 59.3043C37.0002 59.3043 36.9688 59.2099 36.9373 59.1626C36.9058 59.1154 36.8743 59.084 36.8271 59.0682C36.7799 59.0367 36.7327 59.021 36.6855 59.021C36.6383 59.021 36.5753 59.021 36.5281 59.021L36.4337 59.0682C36.4337 59.0682 36.3235 59.1469 36.292 59.2099L36.2448 59.3043C36.2448 59.3043 36.229 59.4459 36.2448 59.5089Z" fill="#231F20"/>
<path d="M42.131 59.0367C42.0995 59.1468 42.0837 59.257 42.0837 59.3672C42.0837 59.4459 42.0837 59.5246 42.0837 59.619C42.0837 59.7292 42.1152 59.8393 42.1467 59.9495C42.1782 60.0597 42.2254 60.1699 42.2726 60.2643C42.3041 60.3115 42.3356 60.343 42.367 60.3745C42.3985 60.4059 42.4457 60.4374 42.5087 60.4374C42.5559 60.4532 42.6189 60.4532 42.6661 60.4374C42.7133 60.4374 42.7605 60.4217 42.8077 60.3902C42.8864 60.343 42.9651 60.2486 42.9808 60.1541V60.0439C42.9808 60.0439 42.9808 59.9023 42.9336 59.8393C42.9336 59.8236 42.9179 59.8079 42.9022 59.7764L42.9494 59.8708C42.9022 59.7607 42.8707 59.6505 42.8549 59.5246V59.6347C42.8549 59.5088 42.8549 59.3987 42.8549 59.2727V59.3829C42.8549 59.3829 42.8549 59.2728 42.8707 59.2255C42.8864 59.1783 42.8864 59.1154 42.8707 59.0681C42.8707 59.0209 42.8549 58.9737 42.8235 58.9265C42.792 58.8793 42.7605 58.8478 42.729 58.8163C42.6976 58.7849 42.6503 58.7534 42.5874 58.7534C42.4929 58.7376 42.367 58.7376 42.2883 58.8006C42.2096 58.8635 42.131 58.9422 42.1152 59.0367H42.131Z" fill="#231F20"/>
<path d="M43.422 59.3674C43.422 59.3674 43.4377 59.4618 43.4534 59.4933V59.3832C43.4534 59.5091 43.4534 59.635 43.4534 59.7451V59.635C43.4534 59.7609 43.422 59.871 43.3747 59.9812L43.422 59.8868C43.422 59.8868 43.4062 59.934 43.3905 59.9497C43.359 59.997 43.3433 60.0442 43.3433 60.0914C43.3433 60.1386 43.3433 60.2016 43.3433 60.2488C43.3433 60.296 43.3747 60.3432 43.4062 60.3904C43.4377 60.4376 43.4692 60.4691 43.5164 60.4849C43.6108 60.5321 43.721 60.5636 43.8154 60.5321C43.9099 60.5006 44.0043 60.4376 44.0515 60.359C44.0987 60.2645 44.1459 60.1543 44.1774 60.0442C44.2089 59.934 44.2246 59.8238 44.2404 59.7137C44.2404 59.635 44.2404 59.5563 44.2404 59.4776C44.2404 59.3674 44.2246 59.2572 44.1932 59.1471C44.1932 59.0999 44.1617 59.0526 44.1302 59.0054C44.0987 58.9582 44.0672 58.9267 44.02 58.911C43.9728 58.8795 43.9256 58.8638 43.8784 58.8638C43.8312 58.8638 43.7682 58.8638 43.721 58.8638C43.6266 58.8952 43.5321 58.9582 43.4849 59.0369L43.4377 59.1313C43.4377 59.1313 43.422 59.273 43.4377 59.3359L43.422 59.3674Z" fill="#231F20"/>
<mask id="mask1_188_1895" style="mask-type:luminance" maskUnits="userSpaceOnUse" x="21" y="16" width="37" height="31">
<path d="M57.4135 32.9107C57.3191 30.8489 56.784 29.0232 55.6823 27.2448C55.2888 26.6152 54.5806 25.8597 54.612 25.12C54.6593 24.3331 55.1472 23.4202 55.2888 22.6176C55.5564 20.965 55.5249 19.2495 55.1472 17.6127C55.0842 17.3451 55.0055 17.0618 54.8166 16.8572C54.5176 16.5424 54.0454 16.4952 53.6205 16.5109C51.2125 16.6054 48.8831 18.0061 47.6713 20.0994C46.9315 19.6429 45.7354 19.7059 44.8698 19.5328C44.1615 19.3911 43.4375 19.1865 42.7136 19.0921C41.2813 18.919 39.8334 18.8403 38.3854 18.8718C35.6154 18.919 32.9555 19.3282 30.3429 20.2095C29.3671 18.3209 27.3526 16.8729 25.2278 16.9988C23.9845 17.0775 23.5123 17.6599 23.1503 18.7301C22.4578 20.7447 22.9929 22.8694 23.6067 24.821C23.7012 25.1043 23.7799 25.3876 23.7799 25.6866C23.7799 26.3319 23.2133 26.7883 22.9457 27.3235C22.5365 28.0946 22.206 28.9131 21.9542 29.7472C21.482 31.3683 21.3246 33.0838 21.4977 34.7679C21.7968 37.8055 22.9142 40.9375 25.2908 43.1566C28.9736 46.6034 34.435 46.871 39.4084 46.6821C45.0586 46.4618 50.7718 45.9109 54.612 41.2522C55.336 40.3866 55.9184 39.3951 56.3433 38.3563C57.0043 36.7352 57.508 34.6734 57.4135 32.895V32.9107Z" fill="white"/>
</mask>
<g mask="url(#mask1_188_1895)">
<path d="M57.4138 32.9112C57.3193 30.8494 56.7842 29.0237 55.6825 27.2452C55.2891 26.6157 54.5808 25.8602 54.6123 25.1205C54.6595 24.3336 55.1474 23.4207 55.2891 22.6181C55.5566 20.9655 55.5251 19.25 55.1474 17.6131C55.0844 17.3456 55.0058 17.0623 54.8169 16.8577C54.5179 16.5429 54.0457 16.4957 53.6207 16.5114C51.2127 16.6059 48.8834 18.0066 47.6715 20.0999C46.9318 19.6434 45.7356 19.7064 44.87 19.5333C44.1618 19.3916 43.4378 19.187 42.7138 19.0926C41.2816 18.9195 39.8336 18.8408 38.3857 18.8722C35.6156 18.9195 32.9558 19.3287 30.3432 20.21C29.3674 18.3214 27.3528 16.8734 25.2281 16.9993C23.9847 17.078 23.5125 17.6604 23.1506 18.7306C22.458 20.7451 22.9932 22.8699 23.607 24.8215C23.7014 25.1048 23.7801 25.3881 23.7801 25.6871C23.7801 26.3324 23.2135 26.7888 22.946 27.3239C22.5367 28.0951 22.2062 28.9136 21.9544 29.7477C21.4822 31.3688 21.3249 33.0843 21.498 34.7684C21.797 37.8059 22.9145 40.9379 25.291 43.1571C28.9739 46.6039 34.4352 46.8715 39.4087 46.6826C45.0589 46.4622 50.772 45.9114 54.6123 41.2527C55.3363 40.3871 55.9186 39.3955 56.3435 38.3568C57.0046 36.7357 57.5082 34.6739 57.4138 32.8955V32.9112Z" fill="#F8C04E"/>
<path d="M36.2925 32.6434C35.7888 32.8638 35.3167 33.1471 34.9074 33.5091C34.0576 34.2331 33.4752 35.3348 33.5854 36.4522C33.6956 37.5697 34.6399 38.5927 35.7573 38.6242C36.623 38.6399 37.4256 38.0733 37.9135 37.3651C38.4014 36.6568 38.6533 35.7912 38.8893 34.957C39.1726 35.8541 39.4717 36.767 40.1012 37.4595C40.7308 38.152 41.7853 38.5455 42.6194 38.1205C43.4693 37.6956 43.7684 36.6096 43.7841 35.6495C43.7841 33.7452 41.6594 32.6749 40.0225 32.3287C38.7792 32.0611 37.4414 32.1713 36.2767 32.6592L36.2925 32.6434Z" fill="white"/>
<path d="M37.41 22.6336C37.1739 20.3357 36.7647 18.0694 36.1509 15.8502C35.9305 15.0633 35.0177 14.4967 34.215 14.7485C33.4123 15.0003 32.8772 15.8345 33.1133 16.6843C33.3966 17.7074 33.6327 18.7461 33.8373 19.7849C33.9317 20.3043 34.0261 20.8236 34.1048 21.3588C34.1206 21.4847 34.1363 21.5948 34.152 21.7207C34.1048 21.2958 34.152 21.7207 34.152 21.7837C34.1835 22.067 34.215 22.3503 34.2465 22.6336C34.2937 23.0585 34.3881 23.4363 34.7029 23.751C34.9705 24.0186 35.4269 24.2232 35.8203 24.2075C36.6073 24.176 37.4887 23.515 37.3942 22.6336H37.41Z" fill="#E98029"/>
<path d="M43.6424 21.878C43.6424 20.2097 43.7525 18.5414 43.9571 16.8731C44.0044 16.4953 43.7525 16.0074 43.5007 15.7556C43.2332 15.4881 42.7767 15.2835 42.3833 15.2992C41.9898 15.3149 41.5491 15.4566 41.2658 15.7556C40.9668 16.0861 40.8566 16.4324 40.8094 16.8731C40.6048 18.5256 40.4946 20.2097 40.4946 21.878C40.4946 22.6964 41.2186 23.4833 42.0685 23.4519C42.9184 23.4204 43.6424 22.7594 43.6424 21.878Z" fill="#E98029"/>
<path d="M52.9592 33.0998C55.0052 32.9739 57.067 33.0054 59.113 33.1785C59.9314 33.2572 60.7184 32.4073 60.6869 31.6046C60.6397 30.6918 59.9944 30.1095 59.113 30.0308C57.067 29.8576 55.0052 29.8262 52.9592 29.9521C52.1407 29.9993 51.3381 30.6446 51.3853 31.5259C51.4168 32.3286 52.0778 33.147 52.9592 33.0998Z" fill="#E98029"/>
<path d="M51.9519 38.5769C53.0694 39.1749 54.2813 39.5055 55.5246 39.7258C56.6736 39.9304 57.8382 40.0563 58.9714 40.3868C59.7583 40.6072 60.7184 40.1035 60.9073 39.2851C61.0961 38.4667 60.6555 37.6011 59.8056 37.3492C58.7196 37.0345 57.5864 36.8928 56.469 36.704C55.9181 36.6095 55.3672 36.4994 54.8164 36.3577C54.5646 36.2948 54.3127 36.2161 54.0767 36.1216C54.0137 36.0901 53.935 36.0744 53.8721 36.0429C54.0767 36.1374 54.0924 36.1374 53.935 36.0744C53.7934 36.0115 53.6675 35.9485 53.5415 35.8698C52.8176 35.4763 51.7945 35.6652 51.3853 36.4364C50.9761 37.2076 51.1807 38.1677 51.9519 38.5926V38.5769Z" fill="#E98029"/>
<path d="M20.5377 37.3968C22.1116 37.0348 23.6855 36.72 25.2751 36.421C25.6371 36.358 26.0305 36.0118 26.2194 35.697C26.424 35.3665 26.5027 34.8628 26.3768 34.4851C26.2509 34.1074 26.0148 33.7297 25.6528 33.5408C25.2593 33.3362 24.8816 33.3047 24.4409 33.3834C22.8513 33.6824 21.2774 34.013 19.7036 34.3592C18.9009 34.5481 18.35 35.5081 18.6019 36.2951C18.8694 37.1292 19.6721 37.5857 20.5377 37.3968Z" fill="#E98029"/>
<path d="M23.3076 44.3215C24.3306 43.6762 25.275 42.9207 26.2193 42.181C26.2665 42.1495 26.3137 42.1023 26.3609 42.0708C26.3137 42.118 26.0934 42.2754 26.2665 42.1495C26.3767 42.0708 26.4869 41.9764 26.6128 41.8977C26.8331 41.7403 27.0377 41.5829 27.2581 41.4255C27.7145 41.095 28.2024 40.796 28.6903 40.5284C29.4143 40.1349 29.7133 39.0805 29.2569 38.3722C28.8004 37.664 27.8719 37.3807 27.1007 37.8056C26.0462 38.388 25.0861 39.1277 24.1418 39.8517C23.9372 40.009 23.7168 40.1822 23.5122 40.3396C23.465 40.371 23.2919 40.5127 23.4808 40.3553C23.7011 40.1979 23.4335 40.3868 23.4178 40.4025C23.3234 40.4812 23.2132 40.5599 23.1188 40.6386C22.6623 40.9848 22.2059 41.2996 21.718 41.6144C21.0255 42.0551 20.6793 43.0309 21.1514 43.7706C21.6236 44.5103 22.5522 44.8094 23.3076 44.3372V44.3215Z" fill="#E98029"/>
</g>
<path d="M31.0358 34.1224C31.8876 34.1224 32.5782 33.4318 32.5782 32.58C32.5782 31.7282 31.8876 31.0376 31.0358 31.0376C30.184 31.0376 29.4934 31.7282 29.4934 32.58C29.4934 33.4318 30.184 34.1224 31.0358 34.1224Z" fill="#231F20"/>
<path d="M47.058 34.1224C47.9099 34.1224 48.6004 33.4318 48.6004 32.58C48.6004 31.7282 47.9099 31.0376 47.058 31.0376C46.2062 31.0376 45.5156 31.7282 45.5156 32.58C45.5156 33.4318 46.2062 34.1224 47.058 34.1224Z" fill="#231F20"/>
<path d="M39.0466 33.2567C39.8116 33.2567 40.4316 32.8691 40.4316 32.391C40.4316 31.9129 39.8116 31.5254 39.0466 31.5254C38.2817 31.5254 37.6616 31.9129 37.6616 32.391C37.6616 32.8691 38.2817 33.2567 39.0466 33.2567Z" fill="#231F20"/>
<path d="M29.9655 21.3741C35.7573 18.9346 42.3047 18.73 48.2382 20.839C48.9621 21.0908 49.2612 19.9576 48.5529 19.7058C42.462 17.5338 35.6157 17.7384 29.6507 20.2409C29.3517 20.3668 29.1471 20.6344 29.2415 20.9649C29.3202 21.2482 29.6665 21.5 29.9655 21.3741Z" fill="#231F20"/>
<path d="M24.8345 23.6563C22.1117 26.6152 20.648 30.8489 20.7897 34.8623C20.9313 38.8756 23.0561 42.6057 26.4871 44.7777C28.36 45.9738 30.5792 46.6191 32.7983 46.5562C33.5538 46.5247 33.5538 45.3443 32.7983 45.3757C29.1469 45.4859 25.6529 43.4399 23.6699 40.4023C21.6868 37.3647 21.5609 33.3828 22.6311 29.8888C23.2449 27.9057 24.2365 26.0171 25.6372 24.4904C26.1566 23.9396 25.3224 23.0897 24.8031 23.6563H24.8345Z" fill="#231F20"/>
<path d="M53.196 24.6321C55.6985 27.4336 57.0363 31.2581 56.753 35.0196C56.4697 38.7812 54.4866 41.9289 51.4176 43.8491C49.765 44.8721 47.8764 45.4387 45.9247 45.3757C45.1693 45.3442 45.1693 46.5247 45.9247 46.5561C49.828 46.682 53.4793 44.5101 55.6985 41.3781C58.0593 38.0572 58.5 33.7133 57.3826 29.8416C56.7373 27.6067 55.5883 25.5292 54.0302 23.7979C53.5266 23.2313 52.6924 24.0655 53.196 24.6321Z" fill="#231F20"/>
<path d="M48.4899 19.9104C48.5371 19.816 48.6001 19.7216 48.663 19.6271C48.6945 19.5799 48.726 19.5327 48.7575 19.4855C48.7575 19.4855 48.8676 19.3281 48.8047 19.4225C48.9463 19.2494 49.1037 19.0763 49.2611 18.9189C49.3241 18.8559 49.4027 18.793 49.4814 18.73C49.5287 18.6985 49.5759 18.6513 49.6073 18.6198C49.749 18.4939 49.5129 18.6828 49.6703 18.5726C49.8592 18.431 50.048 18.3051 50.2526 18.1792C50.6461 17.9431 51.0553 17.7542 51.4173 17.6283C51.858 17.4709 52.3144 17.3293 52.7866 17.2348C53.1958 17.1561 53.6365 17.1404 54.0614 17.2978C54.1716 17.3293 54.3604 17.4709 54.4391 17.5339C54.4864 17.5653 54.5178 17.6126 54.5493 17.644C54.5493 17.644 54.6752 17.7857 54.5965 17.6913C54.6595 17.7699 54.7224 17.8644 54.7697 17.9588C54.8011 18.006 54.8169 18.0532 54.8484 18.1005C54.927 18.2578 54.8169 17.9903 54.8798 18.1634C54.9113 18.2421 54.9428 18.3365 54.9743 18.4152C55.0372 18.6356 55.0844 18.8559 55.1317 19.0763C55.1946 19.5012 55.2261 20.0993 55.2103 20.6029C55.1789 21.7518 54.927 22.9323 54.4706 23.971C54.3447 24.27 54.3919 24.6006 54.6752 24.7737C54.927 24.9153 55.352 24.8524 55.4779 24.5691C55.9815 23.4202 56.2963 22.2083 56.375 20.9492C56.438 19.8317 56.375 18.6356 55.9186 17.5968C55.714 17.1089 55.3677 16.6997 54.927 16.4007C54.4391 16.0702 53.8096 15.96 53.2273 15.9915C52.1255 16.0387 50.9924 16.4479 50.0166 16.9515C48.9935 17.4867 48.065 18.2736 47.4826 19.2966C47.3252 19.5799 47.4197 19.9419 47.6872 20.0993C47.9548 20.2567 48.3325 20.1622 48.4899 19.8947V19.9104Z" fill="#231F20"/>
<path d="M52.2983 18.1945C51.4957 19.0444 50.8819 20.036 50.5041 21.1534C50.3625 21.5941 50.8189 21.9876 51.2281 21.8774C51.2439 21.8774 51.2596 21.8774 51.2911 21.8774H51.1337C51.1337 21.8774 51.1652 21.8931 51.1966 21.8931H51.0393C51.0393 21.8931 51.0865 21.8931 51.1179 21.8931L50.9763 21.8302C50.9763 21.8302 51.0707 21.8774 51.1022 21.9089L50.9763 21.8144C51.1337 21.9404 51.2753 22.1135 51.4327 22.2709C51.5901 22.4283 51.7475 22.5856 51.9049 22.7588C52.1252 22.9791 52.5187 22.9948 52.739 22.7588C52.9594 22.5227 52.9751 22.1607 52.739 21.9246C52.503 21.6885 52.2826 21.4682 52.0623 21.2321C51.9364 21.1062 51.8104 20.9803 51.6531 20.8701C51.4327 20.7285 51.1652 20.6813 50.9133 20.7442L51.6373 21.4682C51.6845 21.3108 51.7475 21.1534 51.8105 20.996L51.7475 21.1377C51.9993 20.5553 52.3141 20.0045 52.7076 19.5008L52.6131 19.6268C52.7705 19.4222 52.9436 19.2333 53.1168 19.0444C53.3214 18.8241 53.3528 18.4306 53.1168 18.2103C52.8807 17.9899 52.503 17.9742 52.2826 18.2103L52.2983 18.1945Z" fill="#231F20"/>
<path d="M30.9885 19.8634C30.4848 18.9505 29.6822 18.2265 28.8008 17.7072C27.9194 17.1878 26.8334 16.7628 25.7947 16.6212C25.1966 16.5267 24.5671 16.511 24.0005 16.7471C23.4654 16.9674 23.0404 17.3294 22.7256 17.8331C22.4581 18.258 22.3164 18.7616 22.222 19.2495C22.1118 19.8476 22.0646 20.4614 22.0803 21.0595C22.0961 22.476 22.4266 23.8453 22.9932 25.1358C23.1191 25.4349 23.544 25.4978 23.7959 25.3404C24.0949 25.1673 24.1421 24.8211 24.0005 24.5378C23.5913 23.6092 23.3237 22.5232 23.2607 21.5159C23.1978 20.5086 23.2293 19.6115 23.5755 18.7302C23.6385 18.5728 23.5283 18.8246 23.607 18.6672C23.6385 18.62 23.6542 18.5728 23.6857 18.5256C23.7329 18.4469 23.7801 18.3682 23.8273 18.2895C23.9218 18.1478 23.7487 18.3524 23.8746 18.2423C23.906 18.2108 23.9533 18.1636 23.9847 18.1321C24.0162 18.1006 24.0477 18.0691 24.0792 18.0377C24.1106 18.0062 24.1106 18.0062 24.0792 18.0377C24.1106 18.0219 24.1421 17.9904 24.1736 17.9747C24.268 17.9118 24.3625 17.8645 24.4097 17.8488C24.5041 17.8173 24.6143 17.7858 24.7087 17.7701C24.7087 17.7701 24.9133 17.7386 24.8031 17.7544C24.8661 17.7544 24.9291 17.7544 24.992 17.7544C25.1179 17.7544 25.2438 17.7544 25.3855 17.7544C25.5586 17.7544 25.7789 17.8016 25.9993 17.8645C26.2511 17.9275 26.4872 17.9904 26.739 18.0691C26.8492 18.1006 26.9436 18.1478 27.0538 18.1793C27.1167 18.1951 27.164 18.2265 27.2269 18.2423C27.2269 18.2423 27.4158 18.321 27.3056 18.2737C27.5259 18.3682 27.7463 18.4783 27.9509 18.5885C28.1712 18.7144 28.3916 18.8403 28.6119 18.982C28.8323 19.1394 28.911 19.1866 29.1313 19.3912C29.3044 19.5486 29.4776 19.7217 29.6192 19.9106C29.6192 19.9263 29.7136 20.0207 29.6507 19.9421C29.6979 20.005 29.7451 20.068 29.7766 20.1309C29.8553 20.2411 29.9182 20.3513 29.9812 20.4614C30.1386 20.7447 30.5163 20.8392 30.7839 20.666C31.0514 20.4929 31.1459 20.1309 30.9885 19.8634Z" fill="#231F20"/>
<path d="M25.338 19.5801C25.5111 19.7689 25.6842 19.9578 25.8416 20.1624L25.7472 20.0365C26.1407 20.5401 26.4554 21.091 26.7073 21.6733L26.6443 21.5317C26.7073 21.6891 26.7702 21.8464 26.8174 22.0038L27.5414 21.2799C27.2896 21.2169 27.0378 21.2484 26.8174 21.39C26.66 21.5002 26.5341 21.6261 26.3925 21.7678C26.1721 22.0038 25.9361 22.2242 25.7157 22.4603C25.4954 22.6963 25.4796 23.0741 25.7157 23.2944C25.9518 23.5148 26.3138 23.5305 26.5499 23.2944C26.7073 23.137 26.8647 22.9796 27.022 22.8065C27.1637 22.6491 27.3053 22.4917 27.4785 22.3501L27.3525 22.4445C27.3525 22.4445 27.4312 22.3816 27.4785 22.3658L27.3368 22.4288C27.3368 22.4288 27.384 22.413 27.4155 22.413H27.2581C27.2581 22.413 27.2896 22.4288 27.3211 22.4288H27.1637C27.1637 22.4288 27.1952 22.4288 27.2266 22.4288C27.6358 22.539 28.108 22.1455 27.9506 21.7048C27.5729 20.6031 26.9591 19.5958 26.1564 18.7459C25.9361 18.5256 25.5269 18.5098 25.3223 18.7459C25.1176 18.982 25.1019 19.344 25.3223 19.5801H25.338Z" fill="#231F20"/>
<path d="M37.5356 32.0768C36.3552 32.3443 35.2377 32.9581 34.4351 33.871C33.6953 34.7366 33.2074 35.8855 33.4435 37.0345C33.6481 38.026 34.4665 38.9546 35.4738 39.1435C36.67 39.3795 37.7244 38.5769 38.2596 37.5696C38.6058 36.9243 38.8104 36.2003 38.9835 35.5078C39.1724 34.7524 39.2983 33.9812 39.4085 33.2257L38.6373 33.1155C38.5271 34.4533 38.7789 35.8226 39.3928 37.0345C39.9279 38.089 40.9351 39.0648 42.21 38.9231C43.4061 38.7972 44.0514 37.7112 44.1931 36.5938C44.3347 35.4763 44.0357 34.4691 43.3274 33.6034C42.4775 32.5804 41.1712 32.0138 39.8649 31.9194C39.3613 31.8879 39.3613 32.6748 39.8649 32.7063C40.7935 32.7693 41.7536 33.147 42.4303 33.7923C43.0756 34.4061 43.4376 35.1458 43.4376 36.0272C43.4376 36.8141 43.2173 37.8529 42.3359 38.089C41.3444 38.3565 40.5417 37.5066 40.1167 36.7197C39.5187 35.618 39.3141 34.3274 39.4085 33.0998C39.44 32.6591 38.7002 32.5489 38.6373 32.9896C38.4799 34.1385 38.2753 35.3032 37.8976 36.4049C37.6143 37.2548 37.0319 38.2621 36.0404 38.3723C35.2377 38.4667 34.5137 37.7899 34.2619 37.0659C33.9629 36.1846 34.3249 35.2245 34.8757 34.5163C35.584 33.6192 36.6227 33.0526 37.7244 32.8007C38.2123 32.6906 38.0077 31.9351 37.5198 32.0453L37.5356 32.0768Z" fill="#231F20"/>
</svg>
