<svg width="80" height="77" viewBox="0 0 80 77" fill="none" xmlns="http://www.w3.org/2000/svg">
<path d="M56.5809 44.6993C55.8727 45.7538 55.7783 47.0759 55.7783 48.3507C55.7783 49.6256 55.8884 50.9004 55.5264 52.1123C54.9598 54.0324 53.1656 55.5276 51.1668 55.7322C50.4271 55.8109 49.6716 55.7322 48.9634 55.9053C48.2551 56.0785 47.5312 56.6293 47.5154 57.369C47.4839 58.2504 48.4125 58.8642 49.2782 59.0688C51.7649 59.6511 54.5192 58.5022 56.3291 56.8024C58.6427 54.6462 57.9659 52.3641 58.4696 49.6256C58.6585 48.5553 59.2723 47.6268 59.6972 46.6195C60.1851 45.4705 60.5628 44.2114 59.0991 43.6606C58.0604 43.2829 57.1161 43.8495 56.5809 44.6679V44.6993Z" fill="#F8C04E"/>
<mask id="mask0_3412_32018" style="mask-type:luminance" maskUnits="userSpaceOnUse" x="30" y="38" width="22" height="24">
<path d="M42.7157 38.7492C46.1782 39.8195 47.9724 42.8256 49.2 45.989C49.9083 47.8147 50.3962 49.7034 50.9313 51.6078C51.734 54.6296 51.3248 58.3125 48.8223 60.1539C47.2012 61.35 45.0922 61.5389 43.0777 61.6491C37.9468 61.9166 31.7773 61.7435 30.8015 55.4638C30.3923 52.8197 31.3208 51.0412 32.0448 48.5859C32.9419 45.5484 34.1695 41.6766 36.8766 39.8352C38.5607 38.6863 40.7483 38.1512 42.7157 38.7492Z" fill="white"/>
</mask>
<g mask="url(#mask0_3412_32018)">
<path d="M42.7157 38.7492C46.1782 39.8195 47.9724 42.8256 49.2 45.989C49.9083 47.8147 50.3962 49.7034 50.9313 51.6078C51.734 54.6296 51.3248 58.3125 48.8223 60.1539C47.2012 61.35 45.0922 61.5389 43.0777 61.6491C37.9468 61.9166 31.7773 61.7435 30.8015 55.4638C30.3923 52.8197 31.3208 51.0412 32.0448 48.5859C32.9419 45.5484 34.1695 41.6766 36.8766 39.8352C38.5607 38.6863 40.7483 38.1512 42.7157 38.7492Z" fill="#F8C04E"/>
<path d="M30.2505 52.2362L33.4612 52.0631C33.8704 52.0473 34.2796 51.9057 34.5787 51.6066C34.8462 51.3391 35.0508 50.8827 35.0351 50.4892C35.0193 50.0957 34.8777 49.655 34.5787 49.3717C34.2796 49.0884 33.8862 48.8838 33.4612 48.9153L30.2505 49.0884C29.8413 49.1042 29.4321 49.2458 29.1331 49.5449C28.8655 49.8124 28.6609 50.2688 28.6766 50.6623C28.6924 51.0558 28.834 51.4965 29.1331 51.7798C29.4321 52.0631 29.8256 52.2677 30.2505 52.2362Z" fill="#E98029"/>
<path d="M31.1003 58.0446C31.6039 57.7928 32.1233 57.5567 32.6427 57.3521L32.2649 57.5095C32.6427 57.3521 33.0204 57.1947 33.3981 57.0531C33.6027 57.0058 33.7759 56.9114 33.9332 56.7698C34.1064 56.6596 34.2323 56.5179 34.3424 56.3291C34.5471 55.9986 34.6257 55.4949 34.4998 55.1172C34.3739 54.7395 34.1378 54.3617 33.7759 54.1729C33.4139 53.984 32.9574 53.8738 32.564 54.0155C31.5252 54.4089 30.5022 54.8339 29.5107 55.3218C29.1644 55.4949 28.8811 55.9041 28.7867 56.2661C28.6765 56.6439 28.7237 57.1475 28.9441 57.478C29.1644 57.8085 29.4792 58.1076 29.8884 58.202L30.3133 58.2649C30.5966 58.2649 30.8642 58.1862 31.1003 58.0446Z" fill="#E98029"/>
<path d="M48.728 52.41L52.0804 52.2369C52.4896 52.2211 52.8988 52.0795 53.1978 51.7805C53.4654 51.5129 53.67 51.0565 53.6543 50.663C53.6385 50.2695 53.4969 49.8289 53.1978 49.5456C52.8988 49.2623 52.5053 49.0577 52.0804 49.0891L48.728 49.2623C48.3188 49.278 47.9096 49.4196 47.6106 49.7187C47.343 49.9862 47.1384 50.4427 47.1542 50.8361C47.1699 51.2296 47.3116 51.6703 47.6106 51.9536C47.9096 52.2369 48.3031 52.4415 48.728 52.41Z" fill="#E98029"/>
<path d="M48.3813 57.5105L51.1671 58.0613C51.592 58.14 52.0012 58.1243 52.3789 57.9039C52.7095 57.7151 53.0242 57.3373 53.1029 56.9596C53.1974 56.5504 53.1816 56.1097 52.9455 55.7477C52.7252 55.4172 52.4104 55.1024 52.0012 55.0237L49.2155 54.4729C48.7905 54.3942 48.3813 54.4099 48.0036 54.6303C47.6731 54.8191 47.3583 55.1969 47.2796 55.5746C47.1852 55.9838 47.2009 56.4245 47.437 56.7865C47.6573 57.117 47.9721 57.4318 48.3813 57.5105Z" fill="#E98029"/>
</g>
<path d="M58.7528 47.9724C59.1463 47.9252 59.2879 47.5632 59.524 47.0438C60.0276 45.9106 60.6729 44.2738 59.099 43.6915C57.5094 43.1091 56.5808 44.5886 56.03 45.7847C55.9828 45.8791 55.9355 45.9736 55.9355 46.0838C55.9355 46.2726 56.0615 46.43 56.2031 46.5559C56.7382 47.091 57.4622 47.6576 58.2019 47.8937C58.438 47.9724 58.6111 47.9881 58.7528 47.9724Z" fill="#E98029"/>
<path d="M56.7389 49.3893C56.4398 49.2634 56.1251 49.1375 55.7945 49.0273C55.7945 49.4995 55.8418 49.9874 55.7945 50.4438C55.7631 50.7901 55.527 51.3724 55.6529 51.6715C55.7001 51.7816 55.7945 51.8761 55.8732 51.9547C56.4084 52.4584 57.0222 52.8676 57.6832 53.1666C58.3127 53.4342 58.3442 50.4281 58.4072 50.0189C57.8406 49.8143 57.274 49.6097 56.7231 49.3736L56.7389 49.3893Z" fill="#E98029"/>
<path d="M54.7403 53.6543C54.7403 53.6543 53.9219 54.5357 53.8274 54.6144C53.4654 54.8977 53.0248 54.9764 53.2608 55.5115C53.6228 56.3456 53.9848 57.1798 54.3626 58.0139C55.1338 57.9195 55.779 57.3529 56.3299 56.8178C56.8178 56.3614 57.164 55.8892 57.4159 55.417C56.5345 54.819 55.6374 54.2209 54.7403 53.6543Z" fill="#E98029"/>
<path d="M33.8228 42.5577C33.1617 43.9742 32.5322 45.4222 31.9499 46.8702C31.3675 48.3181 30.8167 49.6717 30.4389 51.1196C29.7779 53.6693 29.7307 56.4708 31.1787 58.7686C31.9026 59.9176 32.9099 60.7832 34.169 61.2711C34.8773 61.5387 35.192 60.4055 34.4838 60.1379C31.7453 59.0834 30.9111 55.7625 31.2416 53.1342C31.4462 51.4344 32.0443 49.7976 32.6738 48.208C33.3506 46.4924 34.0746 44.8084 34.8458 43.1401C35.1606 42.4476 34.1533 41.8495 33.8228 42.542V42.5577Z" fill="#231F20"/>
<path d="M34.2793 56.5491C34.3108 57.5249 34.4052 58.5165 34.6098 59.4608C34.7829 60.2949 35.1921 61.1448 35.9948 61.5383C36.4198 61.7429 36.8604 61.8216 37.3169 61.8373C37.7418 61.8373 38.214 61.8058 38.6232 61.7114C39.1111 61.6012 39.536 61.3022 39.7721 60.8615C39.9767 60.4838 40.0712 60.0588 40.1341 59.6339C40.3072 58.5322 40.3544 57.4147 40.2285 56.2973C40.2128 56.1399 40.1813 55.9983 40.0554 55.8723C39.9452 55.7622 39.7879 55.6992 39.6305 55.6992C39.3472 55.6992 39.0009 55.9668 39.0324 56.2973C39.1268 57.1787 39.1268 58.06 39.0324 58.9414C39.0324 59.0044 39.0324 59.0516 39.0167 59.1145C39.0167 59.146 39.0167 59.1617 39.0167 59.1932C39.0167 59.083 39.0167 59.2877 39.0167 59.1932C39.0009 59.3034 38.9852 59.4136 38.9694 59.5237C38.938 59.6969 38.9065 59.8857 38.8593 60.0588C38.8593 60.1061 38.8278 60.1375 38.8121 60.1848C38.8121 60.2005 38.8121 60.2162 38.7963 60.232C38.7806 60.2949 38.8278 60.169 38.8278 60.169C38.7963 60.2005 38.7963 60.2477 38.7806 60.2792C38.7648 60.3264 38.7334 60.3579 38.7019 60.4051C38.7019 60.4051 38.6861 60.4366 38.6704 60.4523C38.6704 60.4523 38.7491 60.3579 38.7019 60.4051C38.6704 60.4366 38.6389 60.4681 38.6074 60.4995C38.6861 60.4523 38.6074 60.4995 38.5917 60.4995C38.5602 60.5153 38.4815 60.5467 38.4658 60.5625C38.4973 60.5153 38.5602 60.531 38.4973 60.5625C38.4815 60.5625 38.4658 60.5625 38.4343 60.5782C38.3871 60.5782 38.3399 60.6097 38.2927 60.6097C38.2455 60.6097 38.214 60.6254 38.1668 60.6412C38.1353 60.6412 38.1195 60.6412 38.0881 60.6412C38.0094 60.6412 38.0881 60.6412 38.1195 60.6412C38.0409 60.6727 37.9307 60.6569 37.852 60.6727C37.7576 60.6727 37.6789 60.6727 37.5844 60.6884C37.4113 60.6884 37.2224 60.6884 37.0493 60.6884C37.0336 60.6884 37.0178 60.6884 36.9864 60.6884C36.9234 60.6884 37.0493 60.6884 37.0493 60.6884C37.0021 60.6884 36.9549 60.6884 36.9234 60.6727C36.829 60.6569 36.7345 60.6254 36.6558 60.594C36.6244 60.594 36.5929 60.5625 36.5457 60.5625C36.5457 60.5625 36.6716 60.6254 36.5772 60.5625C36.5614 60.5625 36.5457 60.5467 36.5299 60.531C36.4512 60.4838 36.3725 60.4366 36.3096 60.3894C36.2466 60.3421 36.3883 60.4681 36.3411 60.4051C36.3411 60.4051 36.3096 60.3736 36.2939 60.3736C36.2624 60.3421 36.2309 60.3107 36.1994 60.2792C36.1679 60.2477 36.1522 60.232 36.1207 60.2005C36.0578 60.1218 36.1207 60.1848 36.1207 60.2005C36.0735 60.1375 36.042 60.0746 35.9948 59.9959C35.9791 59.9644 35.9476 59.9172 35.9319 59.8857C35.9319 59.87 35.9319 59.8542 35.9161 59.8385C35.9948 59.9644 35.9476 59.9015 35.9161 59.8542C35.8532 59.6969 35.806 59.5237 35.7587 59.3506C35.7115 59.146 35.68 58.9571 35.6486 58.7525C35.6328 58.6266 35.6171 58.5165 35.6014 58.3905C35.6014 58.3748 35.5856 58.2646 35.6014 58.3433C35.6171 58.422 35.6014 58.3119 35.6014 58.2961C35.6014 58.2332 35.5856 58.1702 35.5856 58.1072C35.5227 57.6036 35.4912 57.1 35.4754 56.5806C35.4754 56.2658 35.2079 55.9825 34.8774 55.9825C34.5469 55.9825 34.2793 56.2343 34.2793 56.5806V56.5491Z" fill="#231F20"/>
<path d="M47.0751 43.1556C47.8463 44.8239 48.5702 46.5079 49.247 48.2235C49.8766 49.8131 50.4746 51.4499 50.6792 53.1497C51.0097 55.7781 50.1756 59.0989 47.437 60.1534C46.7288 60.421 47.0436 61.5699 47.7518 61.2866C50.0025 60.421 51.4189 58.2648 51.8124 55.9354C52.3003 53.008 51.2773 50.1121 50.2071 47.4365C49.546 45.7997 48.8535 44.1786 48.0981 42.5733C47.7833 41.8808 46.7603 42.4788 47.0751 43.1713V43.1556Z" fill="#231F20"/>
<path d="M46.4459 56.5492C46.4459 57.0056 46.3987 57.4463 46.3515 57.9028C46.3515 58.0129 46.3357 58.1074 46.32 58.2175C46.32 58.249 46.32 58.2647 46.32 58.2962C46.32 58.3592 46.3043 58.4221 46.2885 58.4851C46.257 58.674 46.2256 58.8628 46.1941 59.0674C46.1626 59.2405 46.1154 59.4137 46.0682 59.5868C46.0367 59.6655 46.021 59.7442 45.9895 59.8229L45.958 59.8858C45.958 59.8858 46.0052 59.7757 45.9738 59.8229C45.958 59.8701 45.9265 59.9173 45.9108 59.9488C45.8793 60.0117 45.8321 60.0904 45.7849 60.1534C45.7849 60.1691 45.7534 60.2006 45.7377 60.2163C45.7377 60.2163 45.8164 60.1219 45.7691 60.1691C45.7377 60.2006 45.7062 60.2478 45.6747 60.2793C45.6432 60.3108 45.6275 60.3265 45.596 60.358C45.5803 60.3737 45.5645 60.3895 45.5331 60.4052C45.4859 60.4524 45.5803 60.3737 45.5803 60.3737C45.5016 60.4052 45.4386 60.4682 45.3599 60.5154C45.3442 60.5154 45.2026 60.5941 45.297 60.5469C45.3757 60.5154 45.2498 60.5469 45.234 60.5626C45.1553 60.5941 45.0609 60.6098 44.9822 60.6256C44.935 60.6256 44.8878 60.6256 44.8563 60.6413C44.7933 60.6413 44.9193 60.6413 44.9193 60.6413H44.8406C44.7461 60.6413 44.6674 60.6413 44.573 60.6413C44.3841 60.6413 44.211 60.6413 44.0221 60.6256C43.9435 60.6256 43.849 60.6098 43.7703 60.5941C43.7074 60.5941 43.8333 60.5941 43.8333 60.5941C43.8018 60.5941 43.7703 60.5941 43.7546 60.5941C43.7074 60.5941 43.6444 60.5783 43.5972 60.5626C43.55 60.5626 43.5185 60.5469 43.4713 60.5311C43.4398 60.5311 43.4241 60.5154 43.3926 60.4996C43.3769 60.4996 43.3454 60.4682 43.3296 60.4524C43.3139 60.4524 43.2982 60.4367 43.2824 60.421C43.2195 60.3895 43.3611 60.4996 43.3139 60.4524C43.2824 60.421 43.2509 60.3895 43.2195 60.358C43.1723 60.295 43.1408 60.2163 43.0936 60.1377C43.0621 60.0747 43.125 60.2006 43.125 60.2006C43.125 60.1849 43.1093 60.1534 43.0936 60.1377C43.0936 60.1062 43.0778 60.0747 43.0621 60.0275C43.0306 59.9331 43.0149 59.8544 42.9991 59.7599C42.9519 59.5553 42.9204 59.3507 42.889 59.1461C42.889 59.0832 42.889 59.1776 42.889 59.1776C42.889 59.1461 42.889 59.1146 42.889 59.0832C42.889 59.0202 42.889 58.9572 42.8732 58.8943C42.8732 58.7684 42.8417 58.6425 42.8417 58.5166C42.826 58.2647 42.8103 58.0287 42.8103 57.7768C42.8103 57.2732 42.826 56.7696 42.889 56.2817C42.9204 55.9669 42.5899 55.6836 42.2909 55.6836C41.9446 55.6836 41.74 55.9511 41.6928 56.2817C41.5826 57.2417 41.5984 58.2018 41.7243 59.1619C41.8502 60.1219 41.9919 61.1764 42.9677 61.5856C43.3926 61.7587 43.8648 61.806 44.3054 61.8217C44.7304 61.8374 45.1711 61.8217 45.5803 61.68C46.0052 61.5384 46.3987 61.3023 46.682 60.9403C46.9653 60.5783 47.1542 60.1691 47.2643 59.7442C47.406 59.2405 47.4689 58.7054 47.5319 58.1861C47.5948 57.6352 47.6421 57.1001 47.6578 56.5492C47.6578 56.2344 47.3745 55.9511 47.0597 55.9511C46.7292 55.9511 46.4774 56.203 46.4617 56.5492H46.4459Z" fill="#231F20"/>
<path d="M53.4177 55.6202C55.0073 54.8648 55.7471 53.0705 55.9674 51.418C56.2035 49.5765 55.8887 47.5305 56.7701 45.815C56.9589 45.4373 57.195 45.1067 57.4941 44.8234C57.7459 44.5874 58.218 44.2096 58.5958 44.3041C59.3355 44.4772 59.6503 43.344 58.9106 43.1709C57.9505 42.9505 56.9904 43.5958 56.3924 44.2883C55.7943 44.9808 55.4323 45.7992 55.2277 46.6649C54.7555 48.648 55.1805 50.7569 54.4565 52.6928C54.1574 53.5112 53.6223 54.2195 52.8197 54.5972C52.5364 54.7388 52.4577 55.1481 52.6151 55.3999C52.7882 55.6989 53.1344 55.7461 53.4177 55.6045V55.6202Z" fill="#231F20"/>
<path d="M50.4114 59.5713C53.2444 59.6973 55.9672 58.1706 57.5568 55.857C58.391 54.6294 58.7844 53.2601 58.9104 51.7964C58.9733 50.9623 58.9733 50.1124 59.0992 49.2782C59.2251 48.4441 59.5399 47.7673 59.9648 47.0591C60.3898 46.3508 60.7518 45.5324 60.5157 44.6668C60.3111 43.9113 59.7288 43.3132 58.9261 43.2975C58.1706 43.266 58.1706 44.4464 58.9261 44.4779C59.3196 44.4779 59.4455 45.076 59.3983 45.3907C59.3196 46.0518 58.8159 46.6184 58.5169 47.2007C57.8401 48.5385 57.8401 50.0337 57.7457 51.4974C57.667 52.7722 57.3837 53.9369 56.7069 55.0228C56.0774 56.0301 55.196 56.8643 54.173 57.4624C53.0241 58.1391 51.7335 58.4854 50.3957 58.4224C49.6402 58.3909 49.6402 59.5713 50.3957 59.6028L50.4114 59.5713Z" fill="#231F20"/>
<path d="M36.3096 59.6806C36.3096 59.7907 36.3096 59.9009 36.341 60.0268C36.341 60.1055 36.3725 60.1842 36.3883 60.2629C36.4197 60.3731 36.467 60.4833 36.5142 60.5777C36.5457 60.6564 36.5929 60.7193 36.6401 60.798C36.6716 60.8452 36.703 60.8767 36.7345 60.9082C36.766 60.9397 36.8132 60.9712 36.8762 60.9712C36.9234 60.9869 36.9863 60.9869 37.0336 60.9712C37.0808 60.9712 37.128 60.9554 37.1752 60.9239C37.2539 60.8767 37.3326 60.7823 37.3483 60.6879C37.3641 60.5934 37.3641 60.4675 37.3011 60.3888C37.2382 60.3101 37.1909 60.2157 37.1595 60.1213L37.2067 60.2157C37.1437 60.0898 37.1122 59.9481 37.0965 59.8065V59.9167C37.0965 59.9167 37.0965 59.7593 37.0965 59.6806C37.0965 59.6334 37.0965 59.5704 37.065 59.5232C37.0493 59.476 37.0178 59.4288 36.9863 59.3973C36.9549 59.3658 36.9076 59.3343 36.8604 59.3186C36.8132 59.2871 36.766 59.2871 36.703 59.2871C36.6086 59.2871 36.4984 59.3186 36.4197 59.3973C36.341 59.476 36.3096 59.5704 36.3096 59.6806Z" fill="#231F20"/>
<path d="M37.6164 60.0582L37.758 60.8452C37.758 60.8452 37.7895 60.9396 37.821 60.9868C37.8525 61.034 37.8839 61.0655 37.9311 61.0812C37.9784 61.1127 38.0256 61.1285 38.0728 61.1285C38.12 61.1285 38.183 61.1285 38.2302 61.1285L38.3246 61.0812C38.3246 61.0812 38.4348 61.0025 38.4663 60.9396L38.5135 60.8452C38.5135 60.8452 38.5292 60.7035 38.5135 60.6405L38.3718 59.8536C38.3718 59.8536 38.3404 59.7592 38.3089 59.712C38.2774 59.6647 38.2459 59.6333 38.1987 59.6175C38.1515 59.5861 38.1043 59.5703 38.0571 59.5703C38.0098 59.5703 37.9469 59.5703 37.8997 59.5703L37.8052 59.6175C37.8052 59.6175 37.6951 59.6962 37.6636 59.7592L37.6164 59.8536C37.6164 59.8536 37.6006 59.9953 37.6164 60.0582Z" fill="#231F20"/>
<path d="M43.5023 59.587C43.4708 59.6971 43.4551 59.8073 43.4551 59.9175C43.4551 59.9962 43.4551 60.0749 43.4551 60.1693C43.4551 60.2795 43.4866 60.3896 43.518 60.4998C43.5495 60.61 43.5967 60.7202 43.6439 60.8146C43.6754 60.8618 43.7069 60.8933 43.7384 60.9248C43.7699 60.9562 43.8171 60.9877 43.88 60.9877C43.9272 61.0034 43.9902 61.0034 44.0374 60.9877C44.0846 60.9877 44.1318 60.972 44.1791 60.9405C44.2578 60.8933 44.3364 60.7988 44.3522 60.7044V60.5942C44.3522 60.5942 44.3522 60.4526 44.305 60.3896C44.305 60.3739 44.2892 60.3582 44.2735 60.3267L44.3207 60.4211C44.2735 60.3109 44.242 60.2008 44.2263 60.0749V60.185C44.2263 60.0591 44.2263 59.949 44.2263 59.823V59.9332C44.2263 59.9332 44.2263 59.823 44.242 59.7758C44.2578 59.7286 44.2578 59.6657 44.242 59.6184C44.242 59.5712 44.2263 59.524 44.1948 59.4768C44.1633 59.4296 44.1318 59.3981 44.1004 59.3666C44.0689 59.3351 44.0217 59.3037 43.9587 59.3037C43.8643 59.2879 43.7384 59.2879 43.6597 59.3509C43.581 59.4138 43.5023 59.4925 43.4866 59.587H43.5023Z" fill="#231F20"/>
<path d="M44.7935 59.9177C44.7935 59.9177 44.8093 60.0121 44.825 60.0436V59.9334C44.825 60.0594 44.825 60.1853 44.825 60.2954V60.1853C44.825 60.3112 44.7935 60.4213 44.7463 60.5315L44.7935 60.4371C44.7935 60.4371 44.7778 60.4843 44.7621 60.5C44.7306 60.5472 44.7148 60.5945 44.7148 60.6417C44.7148 60.6889 44.7148 60.7519 44.7148 60.7991C44.7148 60.8463 44.7463 60.8935 44.7778 60.9407C44.8093 60.9879 44.8408 61.0194 44.888 61.0352C44.9824 61.0824 45.0926 61.1138 45.187 61.0824C45.2814 61.0509 45.3759 60.9879 45.4231 60.9092C45.4703 60.8148 45.5175 60.7046 45.549 60.5945C45.5805 60.4843 45.5962 60.3741 45.612 60.264C45.612 60.1853 45.612 60.1066 45.612 60.0279C45.612 59.9177 45.5962 59.8075 45.5647 59.6974C45.5647 59.6501 45.5333 59.6029 45.5018 59.5557C45.4703 59.5085 45.4388 59.477 45.3916 59.4613C45.3444 59.4298 45.2972 59.4141 45.25 59.4141C45.2027 59.4141 45.1398 59.4141 45.0926 59.4141C44.9981 59.4455 44.9037 59.5085 44.8565 59.5872L44.8093 59.6816C44.8093 59.6816 44.7935 59.8233 44.8093 59.8862L44.7935 59.9177Z" fill="#231F20"/>
<mask id="mask1_3412_32018" style="mask-type:luminance" maskUnits="userSpaceOnUse" x="22" y="17" width="37" height="31">
<path d="M58.7849 33.461C58.6904 31.3992 58.1553 29.5735 57.0536 27.7951C56.6601 27.1655 55.9519 26.41 55.9834 25.6703C56.0306 24.8834 56.5185 23.9705 56.6601 23.1679C56.9277 21.5153 56.8962 19.7998 56.5185 18.1629C56.4555 17.8954 56.3769 17.6121 56.188 17.4075C55.889 17.0927 55.4168 17.0455 54.9918 17.0612C52.5838 17.1557 50.2545 18.5564 49.0426 20.6497C48.3029 20.1932 47.1067 20.2562 46.2411 20.0831C45.5329 19.9414 44.8089 19.7368 44.0849 19.6424C42.6527 19.4693 41.2047 19.3906 39.7567 19.422C36.9867 19.4693 34.3269 19.8785 31.7142 20.7598C30.7384 18.8712 28.7239 17.4232 26.5992 17.5491C25.3558 17.6278 24.8836 18.2102 24.5216 19.2804C23.8291 21.295 24.3643 23.4197 24.9781 25.3713C25.0725 25.6546 25.1512 25.9379 25.1512 26.2369C25.1512 26.8822 24.5846 27.3386 24.317 27.8737C23.9078 28.6449 23.5773 29.4634 23.3255 30.2975C22.8533 31.9186 22.696 33.6341 22.8691 35.3182C23.1681 38.3557 24.2856 41.4878 26.6621 43.7069C30.345 47.1537 35.8063 47.4213 40.7798 47.2324C46.43 47.012 52.1431 46.4612 55.9834 41.8025C56.7074 40.9369 57.2897 39.9454 57.7146 38.9066C58.3757 37.2855 58.8793 35.2237 58.7849 33.4453V33.461Z" fill="white"/>
</mask>
<g mask="url(#mask1_3412_32018)">
<path d="M58.7849 33.461C58.6904 31.3992 58.1553 29.5735 57.0536 27.7951C56.6601 27.1655 55.9519 26.41 55.9834 25.6703C56.0306 24.8834 56.5185 23.9705 56.6601 23.1679C56.9277 21.5153 56.8962 19.7998 56.5185 18.1629C56.4555 17.8954 56.3769 17.6121 56.188 17.4075C55.889 17.0927 55.4168 17.0455 54.9918 17.0612C52.5838 17.1557 50.2545 18.5564 49.0426 20.6497C48.3029 20.1932 47.1067 20.2562 46.2411 20.0831C45.5329 19.9414 44.8089 19.7368 44.0849 19.6424C42.6527 19.4693 41.2047 19.3906 39.7567 19.422C36.9867 19.4693 34.3269 19.8785 31.7142 20.7598C30.7384 18.8712 28.7239 17.4232 26.5992 17.5491C25.3558 17.6278 24.8836 18.2102 24.5216 19.2804C23.8291 21.295 24.3643 23.4197 24.9781 25.3713C25.0725 25.6546 25.1512 25.9379 25.1512 26.2369C25.1512 26.8822 24.5846 27.3386 24.317 27.8737C23.9078 28.6449 23.5773 29.4634 23.3255 30.2975C22.8533 31.9186 22.696 33.6341 22.8691 35.3182C23.1681 38.3557 24.2856 41.4878 26.6621 43.7069C30.345 47.1537 35.8063 47.4213 40.7798 47.2324C46.43 47.012 52.1431 46.4612 55.9834 41.8025C56.7074 40.9369 57.2897 39.9454 57.7146 38.9066C58.3757 37.2855 58.8793 35.2237 58.7849 33.4453V33.461Z" fill="#F8C04E"/>
<path d="M37.6638 33.1932C37.1602 33.4136 36.688 33.6969 36.2788 34.0589C35.4289 34.7829 34.8466 35.8846 34.9567 37.002C35.0669 38.1195 36.0112 39.1425 37.1287 39.174C37.9943 39.1897 38.797 38.6231 39.2849 37.9149C39.7728 37.2066 40.0246 36.341 40.2607 35.5068C40.544 36.4039 40.843 37.3168 41.4726 38.0093C42.1021 38.7018 43.1566 39.0953 43.9908 38.6703C44.8407 38.2454 45.1397 37.1594 45.1554 36.1993C45.1554 34.295 43.0307 33.2247 41.3939 32.8785C40.1505 32.6109 38.8127 32.7211 37.6481 33.209L37.6638 33.1932Z" fill="white"/>
<path d="M38.7806 23.1839C38.5445 20.886 38.1353 18.6197 37.5215 16.4005C37.3011 15.6136 36.3883 15.047 35.5856 15.2988C34.7829 15.5506 34.2478 16.3848 34.4839 17.2346C34.7672 18.2577 35.0033 19.2964 35.2079 20.3352C35.3023 20.8546 35.3967 21.3739 35.4754 21.909C35.4912 22.035 35.5069 22.1451 35.5226 22.271C35.4754 21.8461 35.5226 22.271 35.5226 22.334C35.5541 22.6173 35.5856 22.9006 35.6171 23.1839C35.6643 23.6088 35.7587 23.9866 36.0735 24.3013C36.3411 24.5689 36.7975 24.7735 37.191 24.7578C37.9779 24.7263 38.8593 24.0653 38.7648 23.1839H38.7806Z" fill="#E98029"/>
<path d="M45.013 22.4293C45.013 20.7609 45.1232 19.0926 45.3278 17.4243C45.375 17.0466 45.1232 16.5587 44.8713 16.3069C44.6038 16.0393 44.1473 15.8347 43.7539 15.8505C43.3604 15.8662 42.9197 16.0078 42.6364 16.3069C42.3374 16.6374 42.2272 16.9836 42.18 17.4243C41.9754 19.0769 41.8652 20.7609 41.8652 22.4293C41.8652 23.2477 42.5892 24.0346 43.4391 24.0031C44.289 23.9716 45.013 23.3106 45.013 22.4293Z" fill="#E98029"/>
<path d="M54.3307 33.6501C56.3768 33.5242 58.4386 33.5557 60.4846 33.7288C61.303 33.8075 62.0899 32.9576 62.0585 32.1549C62.0112 31.2421 61.366 30.6598 60.4846 30.5811C58.4386 30.4079 56.3768 30.3765 54.3307 30.5024C53.5123 30.5496 52.7097 31.1949 52.7569 32.0762C52.7883 32.8789 53.4494 33.6973 54.3307 33.6501Z" fill="#E98029"/>
<path d="M53.3228 39.1272C54.4402 39.7252 55.6521 40.0557 56.8955 40.2761C58.0444 40.4807 59.2091 40.6066 60.3423 40.9371C61.1292 41.1575 62.0893 40.6538 62.2781 39.8354C62.467 39.017 62.0263 38.1514 61.1764 37.8995C60.0904 37.5848 58.9573 37.4431 57.8398 37.2542C57.2889 37.1598 56.7381 37.0496 56.1872 36.908C55.9354 36.845 55.6836 36.7663 55.4475 36.6719C55.3846 36.6404 55.3059 36.6247 55.2429 36.5932C55.4475 36.6877 55.4633 36.6877 55.3059 36.6247C55.1642 36.5617 55.0383 36.4988 54.9124 36.4201C54.1884 36.0266 53.1654 36.2155 52.7562 36.9867C52.347 37.7579 52.5516 38.718 53.3228 39.1429V39.1272Z" fill="#E98029"/>
<path d="M21.9086 37.9476C23.4824 37.5856 25.0563 37.2708 26.6459 36.9718C27.0079 36.9088 27.4014 36.5626 27.5903 36.2478C27.7949 35.9173 27.8735 35.4136 27.7476 35.0359C27.6217 34.6582 27.3856 34.2804 27.0237 34.0916C26.6302 33.887 26.2525 33.8555 25.8118 33.9342C24.2222 34.2332 22.6483 34.5637 21.0744 34.91C20.2717 35.0989 19.7209 36.0589 19.9727 36.8459C20.2403 37.68 21.0429 38.1364 21.9086 37.9476Z" fill="#E98029"/>
<path d="M24.6792 44.8717C25.7022 44.2265 26.6466 43.471 27.5909 42.7313C27.6381 42.6998 27.6853 42.6526 27.7325 42.6211C27.6853 42.6683 27.465 42.8257 27.6381 42.6998C27.7483 42.6211 27.8584 42.5267 27.9843 42.448C28.2047 42.2906 28.4093 42.1332 28.6296 41.9758C29.0861 41.6453 29.574 41.3463 30.0619 41.0787C30.7858 40.6852 31.0849 39.6307 30.6285 38.9225C30.172 38.2143 29.2434 37.931 28.4722 38.3559C27.4178 38.9382 26.4577 39.678 25.5134 40.4019C25.3088 40.5593 25.0884 40.7325 24.8838 40.8898C24.8366 40.9213 24.6635 41.063 24.8523 40.9056C25.0727 40.7482 24.8051 40.9371 24.7894 40.9528C24.695 41.0315 24.5848 41.1102 24.4903 41.1889C24.0339 41.5351 23.5775 41.8499 23.0896 42.1647C22.3971 42.6054 22.0508 43.5812 22.523 44.3209C22.9952 45.0606 23.9238 45.3596 24.6792 44.8875V44.8717Z" fill="#E98029"/>
</g>
<path d="M32.4067 34.6727C33.2585 34.6727 33.949 33.9821 33.949 33.1303C33.949 32.2784 33.2585 31.5879 32.4067 31.5879C31.5548 31.5879 30.8643 32.2784 30.8643 33.1303C30.8643 33.9821 31.5548 34.6727 32.4067 34.6727Z" fill="#231F20"/>
<path d="M48.4291 34.6727C49.281 34.6727 49.9715 33.9821 49.9715 33.1303C49.9715 32.2784 49.281 31.5879 48.4291 31.5879C47.5773 31.5879 46.8867 32.2784 46.8867 33.1303C46.8867 33.9821 47.5773 34.6727 48.4291 34.6727Z" fill="#231F20"/>
<path d="M40.4172 33.8074C41.1822 33.8074 41.8022 33.4199 41.8022 32.9418C41.8022 32.4637 41.1822 32.0762 40.4172 32.0762C39.6523 32.0762 39.0322 32.4637 39.0322 32.9418C39.0322 33.4199 39.6523 33.8074 40.4172 33.8074Z" fill="#231F20"/>
<path d="M31.3371 21.9244C37.1289 19.4849 43.6762 19.2803 49.6097 21.3893C50.3337 21.6411 50.6328 20.5079 49.9245 20.2561C43.8336 18.0841 36.9873 18.2887 31.0223 20.7912C30.7233 20.9171 30.5187 21.1847 30.6131 21.5152C30.6918 21.7985 31.038 22.0503 31.3371 21.9244Z" fill="#231F20"/>
<path d="M26.2056 24.2066C23.4828 27.1655 22.0191 31.3992 22.1608 35.4126C22.3024 39.4259 24.4272 43.156 27.8582 45.328C29.7311 46.5241 31.9503 47.1694 34.1694 47.1064C34.9249 47.075 34.9249 45.8946 34.1694 45.926C30.518 46.0362 27.024 43.9902 25.041 40.9526C23.0579 37.915 22.932 33.9331 24.0022 30.4391C24.616 28.456 25.6076 26.5674 27.0083 25.0407C27.5277 24.4899 26.6935 23.64 26.1741 24.2066H26.2056Z" fill="#231F20"/>
<path d="M54.5674 25.1833C57.0698 27.9848 58.4076 31.8093 58.1243 35.5709C57.841 39.3325 55.858 42.4802 52.7889 44.4003C51.1363 45.4234 49.2477 45.99 47.2961 45.927C46.5406 45.8955 46.5406 47.0759 47.2961 47.1074C51.1993 47.2333 54.8507 45.0614 57.0698 41.9294C59.4307 38.6085 59.8713 34.2646 58.7539 30.3929C58.1086 28.158 56.9597 26.0804 55.4015 24.3492C54.8979 23.7826 54.0637 24.6167 54.5674 25.1833Z" fill="#231F20"/>
<path d="M49.861 20.4612C49.9082 20.3668 49.9712 20.2723 50.0341 20.1779C50.0656 20.1307 50.0971 20.0835 50.1286 20.0363C50.1286 20.0363 50.2387 19.8789 50.1758 19.9733C50.3174 19.8002 50.4748 19.627 50.6322 19.4697C50.6951 19.4067 50.7738 19.3437 50.8525 19.2808C50.8998 19.2493 50.947 19.2021 50.9784 19.1706C51.1201 19.0447 50.884 19.2336 51.0414 19.1234C51.2303 18.9818 51.4191 18.8558 51.6237 18.7299C52.0172 18.4939 52.4264 18.305 52.7884 18.1791C53.2291 18.0217 53.6855 17.88 54.1577 17.7856C54.5669 17.7069 55.0076 17.6912 55.4325 17.8486C55.5427 17.88 55.7315 18.0217 55.8102 18.0846C55.8575 18.1161 55.8889 18.1633 55.9204 18.1948C55.9204 18.1948 56.0463 18.3365 55.9676 18.242C56.0306 18.3207 56.0935 18.4152 56.1407 18.5096C56.1722 18.5568 56.188 18.604 56.2194 18.6512C56.2981 18.8086 56.188 18.5411 56.2509 18.7142C56.2824 18.7929 56.3139 18.8873 56.3454 18.966C56.4083 19.1864 56.4555 19.4067 56.5027 19.627C56.5657 20.052 56.5972 20.6501 56.5814 21.1537C56.55 22.3026 56.2981 23.483 55.8417 24.5218C55.7158 24.8208 55.763 25.1513 56.0463 25.3245C56.2981 25.4661 56.7231 25.4032 56.849 25.1199C57.3526 23.9709 57.6674 22.7591 57.7461 21.5C57.8091 20.3825 57.7461 19.1864 57.2897 18.1476C57.0851 17.6597 56.7388 17.2505 56.2981 16.9515C55.8102 16.6209 55.1807 16.5108 54.5984 16.5423C53.4966 16.5895 52.3635 16.9987 51.3877 17.5023C50.3646 18.0374 49.436 18.8244 48.8537 19.8474C48.6963 20.1307 48.7908 20.4927 49.0583 20.6501C49.3259 20.8074 49.7036 20.713 49.861 20.4455V20.4612Z" fill="#231F20"/>
<path d="M53.6702 18.7453C52.8675 19.5952 52.2537 20.5867 51.876 21.7042C51.7343 22.1449 52.1907 22.5383 52.5999 22.4282C52.6157 22.4282 52.6314 22.4282 52.6629 22.4282H52.5055C52.5055 22.4282 52.537 22.4439 52.5685 22.4439H52.4111C52.4111 22.4439 52.4583 22.4439 52.4898 22.4439L52.3481 22.381C52.3481 22.381 52.4426 22.4282 52.474 22.4597L52.3481 22.3652C52.5055 22.4911 52.6472 22.6643 52.8045 22.8216C52.9619 22.979 53.1193 23.1364 53.2767 23.3095C53.497 23.5299 53.8905 23.5456 54.1109 23.3095C54.3312 23.0735 54.3469 22.7115 54.1109 22.4754C53.8748 22.2393 53.6544 22.019 53.4341 21.7829C53.3082 21.657 53.1823 21.5311 53.0249 21.4209C52.8045 21.2793 52.537 21.232 52.2852 21.295L53.0092 22.019C53.0564 21.8616 53.1193 21.7042 53.1823 21.5468L53.1193 21.6885C53.3711 21.1061 53.6859 20.5553 54.0794 20.0516L53.985 20.1775C54.1423 19.9729 54.3155 19.7841 54.4886 19.5952C54.6932 19.3749 54.7247 18.9814 54.4886 18.7611C54.2525 18.5407 53.8748 18.525 53.6544 18.7611L53.6702 18.7453Z" fill="#231F20"/>
<path d="M32.3593 20.4141C31.8557 19.5013 31.053 18.7773 30.1716 18.2579C29.2903 17.7386 28.2043 17.3136 27.1655 17.172C26.5675 17.0775 25.9379 17.0618 25.3713 17.2979C24.8362 17.5182 24.4113 17.8802 24.0965 18.3838C23.8289 18.8088 23.6873 19.3124 23.5928 19.8003C23.4827 20.3984 23.4355 21.0122 23.4512 21.6103C23.4669 23.0268 23.7974 24.396 24.364 25.6866C24.4899 25.9857 24.9149 26.0486 25.1667 25.8912C25.4658 25.7181 25.513 25.3718 25.3713 25.0885C24.9621 24.16 24.6946 23.074 24.6316 22.0667C24.5686 21.0594 24.6001 20.1623 24.9464 19.281C25.0093 19.1236 24.8992 19.3754 24.9779 19.218C25.0093 19.1708 25.0251 19.1236 25.0565 19.0763C25.1038 18.9977 25.151 18.919 25.1982 18.8403C25.2926 18.6986 25.1195 18.9032 25.2454 18.793C25.2769 18.7616 25.3241 18.7144 25.3556 18.6829C25.3871 18.6514 25.4185 18.6199 25.45 18.5884C25.4815 18.557 25.4815 18.557 25.45 18.5884C25.4815 18.5727 25.513 18.5412 25.5444 18.5255C25.6389 18.4625 25.7333 18.4153 25.7805 18.3996C25.875 18.3681 25.9851 18.3366 26.0796 18.3209C26.0796 18.3209 26.2842 18.2894 26.174 18.3051C26.2369 18.3051 26.2999 18.3051 26.3629 18.3051C26.4888 18.3051 26.6147 18.3051 26.7563 18.3051C26.9295 18.3051 27.1498 18.3524 27.3701 18.4153C27.622 18.4783 27.858 18.5412 28.1099 18.6199C28.22 18.6514 28.3145 18.6986 28.4246 18.7301C28.4876 18.7458 28.5348 18.7773 28.5978 18.793C28.5978 18.793 28.7866 18.8717 28.6765 18.8245C28.8968 18.919 29.1171 19.0291 29.3217 19.1393C29.5421 19.2652 29.7624 19.3911 29.9828 19.5328C30.2031 19.6902 30.2818 19.7374 30.5021 19.942C30.6753 20.0994 30.8484 20.2725 30.99 20.4614C30.99 20.4771 31.0845 20.5715 31.0215 20.4928C31.0687 20.5558 31.116 20.6187 31.1474 20.6817C31.2261 20.7919 31.2891 20.902 31.352 21.0122C31.5094 21.2955 31.8872 21.3899 32.1547 21.2168C32.4223 21.0437 32.5167 20.6817 32.3593 20.4141Z" fill="#231F20"/>
<path d="M26.7093 20.1304C26.8825 20.3192 27.0556 20.5081 27.213 20.7127L27.1185 20.5868C27.512 21.0904 27.8268 21.6413 28.0786 22.2236L28.0156 22.082C28.0786 22.2394 28.1416 22.3967 28.1888 22.5541L28.9128 21.8301C28.6609 21.7672 28.4091 21.7987 28.1888 21.9403C28.0314 22.0505 27.9055 22.1764 27.7638 22.318C27.5435 22.5541 27.3074 22.7745 27.0871 23.0106C26.8667 23.2466 26.851 23.6244 27.0871 23.8447C27.3231 24.065 27.6851 24.0808 27.9212 23.8447C28.0786 23.6873 28.236 23.5299 28.3934 23.3568C28.535 23.1994 28.6767 23.042 28.8498 22.9004L28.7239 22.9948C28.7239 22.9948 28.8026 22.9319 28.8498 22.9161L28.7081 22.9791C28.7081 22.9791 28.7554 22.9633 28.7868 22.9633H28.6295C28.6295 22.9633 28.6609 22.9791 28.6924 22.9791H28.535C28.535 22.9791 28.5665 22.9791 28.598 22.9791C29.0072 23.0892 29.4793 22.6958 29.322 22.2551C28.9442 21.1534 28.3304 20.1461 27.5277 19.2962C27.3074 19.0759 26.8982 19.0601 26.6936 19.2962C26.489 19.5323 26.4732 19.8943 26.6936 20.1304H26.7093Z" fill="#231F20"/>
<path d="M38.9069 32.6271C37.7265 32.8946 36.6091 33.5084 35.8064 34.4213C35.0667 35.2869 34.5788 36.4358 34.8148 37.5848C35.0195 38.5763 35.8379 39.5049 36.8451 39.6937C38.0413 39.9298 39.0958 39.1272 39.6309 38.1199C39.9772 37.4746 40.1818 36.7506 40.3549 36.0581C40.5437 35.3026 40.6697 34.5314 40.7798 33.776L40.0086 33.6658C39.8985 35.0036 40.1503 36.3729 40.7641 37.5848C41.2992 38.6393 42.3065 39.6151 43.5813 39.4734C44.7775 39.3475 45.4228 38.2615 45.5644 37.1441C45.7061 36.0266 45.407 35.0193 44.6988 34.1537C43.8489 33.1307 42.5426 32.5641 41.2363 32.4697C40.7326 32.4382 40.7326 33.2251 41.2363 33.2566C42.1648 33.3196 43.1249 33.6973 43.8017 34.3426C44.447 34.9564 44.8089 35.6961 44.8089 36.5775C44.8089 37.3644 44.5886 38.4032 43.7072 38.6393C42.7157 38.9068 41.913 38.0569 41.4881 37.27C40.89 36.1683 40.6854 34.8777 40.7798 33.6501C40.8113 33.2094 40.0716 33.0992 40.0086 33.5399C39.8512 34.6888 39.6466 35.8535 39.2689 36.9552C38.9856 37.8051 38.4033 38.8124 37.4117 38.9226C36.6091 39.017 35.8851 38.3402 35.6333 37.6162C35.3342 36.7349 35.6962 35.7748 36.2471 35.0666C36.9553 34.1695 37.9941 33.6029 39.0958 33.351C39.5837 33.2409 39.3791 32.4854 38.8912 32.5956L38.9069 32.6271Z" fill="#231F20"/>
</svg>
