<svg width="80" height="76" viewBox="0 0 80 76" fill="none" xmlns="http://www.w3.org/2000/svg">
<mask id="mask0_3865_17394" style="mask-type:luminance" maskUnits="userSpaceOnUse" x="44" y="41" width="14" height="17">
<path d="M53.622 42.6188C52.9137 43.6694 52.8193 44.9865 52.8193 46.2566C52.8193 47.5266 52.9295 48.7967 52.5675 50.004C52.0009 51.917 50.2066 53.4065 48.2078 53.6104C47.4681 53.6888 46.7126 53.6104 46.0044 53.7829C45.2962 53.9553 44.5722 54.5041 44.5564 55.2411C44.525 56.1191 45.4536 56.7307 46.3192 56.9345C48.8059 57.5147 51.5602 56.37 53.3701 54.6766C55.6837 52.5285 55.007 50.2549 55.5106 47.5266C55.6995 46.4604 56.3133 45.5353 56.7382 44.5318C57.2261 43.3871 57.6039 42.1328 56.1402 41.584C55.1014 41.2077 54.1571 41.7721 53.622 42.5875V42.6188Z" fill="white"/>
</mask>
<g mask="url(#mask0_3865_17394)">
<path d="M53.622 42.6188C52.9137 43.6694 52.8193 44.9865 52.8193 46.2566C52.8193 47.5266 52.9295 48.7967 52.5675 50.004C52.0009 51.917 50.2066 53.4065 48.2078 53.6104C47.4681 53.6888 46.7126 53.6104 46.0044 53.7829C45.2962 53.9553 44.5722 54.5041 44.5564 55.2411C44.525 56.1191 45.4536 56.7307 46.3192 56.9345C48.8059 57.5147 51.5602 56.37 53.3701 54.6766C55.6837 52.5285 55.007 50.2549 55.5106 47.5266C55.6995 46.4604 56.3133 45.5353 56.7382 44.5318C57.2261 43.3871 57.6039 42.1328 56.1402 41.584C55.1014 41.2077 54.1571 41.7721 53.622 42.5875V42.6188Z" fill="#CDBEAC"/>
<path d="M50.0178 53.1246L52.7721 55.2727C52.9137 55.4295 53.0869 55.5393 53.2757 55.602C53.4646 55.6961 53.6692 55.7431 53.8896 55.7431C54.283 55.7431 54.7394 55.5707 55.007 55.2884C55.2746 55.0062 55.4792 54.5985 55.4634 54.1752C55.4477 53.7832 55.3218 53.3128 55.007 53.0619L52.2527 50.9138C52.1111 50.757 51.9379 50.6472 51.7491 50.5845C51.5602 50.4904 51.3556 50.4434 51.1353 50.4434C50.7418 50.4434 50.2854 50.6158 50.0178 50.8981C49.7503 51.1803 49.5457 51.588 49.5614 52.0113C49.5771 52.4033 49.703 52.8737 50.0178 53.1246Z" fill="#96877A"/>
<path d="M51.025 49.0793C51.2768 49.095 51.5129 49.1264 51.7647 49.1577L51.3398 49.095C52.2998 49.2205 53.2284 49.4713 54.1255 49.8477L53.7478 49.6909C54.1255 49.8477 54.5032 50.0358 54.8652 50.2397C55.5892 50.6473 56.6122 50.4278 57.0214 49.6752C57.4306 48.9225 57.226 47.9661 56.4548 47.527C54.7865 46.5863 52.9451 46.0688 51.025 45.9434C50.2066 45.8963 49.4196 46.696 49.4511 47.5114C49.4983 48.4051 50.1436 49.0166 51.025 49.0793Z" fill="#96877A"/>
<path d="M52.9919 43.4658C54.2825 44.2184 55.699 44.7829 57.147 45.0965C57.5562 45.1906 57.9811 45.1592 58.3589 44.9397C58.6894 44.7516 59.0041 44.3752 59.0828 43.9989C59.1773 43.5913 59.1615 43.1522 58.9254 42.7916C58.7051 42.4623 58.3903 42.1644 57.9811 42.0703C57.2099 41.8978 56.4387 41.6626 55.7147 41.3647L56.0925 41.5215C55.5731 41.302 55.0695 41.0511 54.5816 40.7532C54.2353 40.5494 53.7631 40.4867 53.3697 40.5964C53.0077 40.6905 52.6142 40.9727 52.4254 41.3177C52.0319 42.0703 52.2365 43.0111 52.9919 43.4658Z" fill="#96877A"/>
</g>
<mask id="mask1_3865_17394" style="mask-type:luminance" maskUnits="userSpaceOnUse" x="27" y="36" width="22" height="24">
<path d="M39.7557 36.6917C43.2182 37.7579 45.0125 40.7527 46.2401 43.9044C46.9483 45.7232 47.4362 47.6048 47.9713 49.5021C48.774 52.5126 48.3648 56.1816 45.8624 58.0162C44.2413 59.2078 42.1323 59.396 40.1177 59.5058C34.9869 59.7723 28.8173 59.5998 27.8415 53.3436C27.4323 50.7094 28.3609 48.9376 29.0849 46.4915C29.982 43.4653 31.2096 39.6081 33.9166 37.7736C35.6007 36.6289 37.7884 36.0958 39.7557 36.6917Z" fill="white"/>
</mask>
<g mask="url(#mask1_3865_17394)">
<path d="M39.7557 36.6917C43.2182 37.7579 45.0125 40.7527 46.2401 43.9044C46.9483 45.7232 47.4362 47.6048 47.9713 49.5021C48.774 52.5126 48.3648 56.1816 45.8624 58.0162C44.2413 59.2078 42.1323 59.396 40.1177 59.5058C34.9869 59.7723 28.8173 59.5998 27.8415 53.3436C27.4323 50.7094 28.3609 48.9376 29.0849 46.4915C29.982 43.4653 31.2096 39.6081 33.9166 37.7736C35.6007 36.6289 37.7884 36.0958 39.7557 36.6917Z" fill="#CDBEAC"/>
<path d="M31.9805 56.9184C32.1693 57.5769 32.3739 58.2355 32.5785 58.894C33.5071 59.2076 34.5144 59.3958 35.5532 59.4898C35.7106 59.3958 35.8679 59.3174 36.0096 59.2233C36.104 59.1606 36.1984 59.0978 36.2771 59.0351C36.4031 58.7372 36.5447 58.4393 36.7021 58.1414C36.7808 58.0003 36.8437 57.8591 36.9224 57.718C36.9382 57.671 37.0798 57.4358 36.9696 57.6239C37.0169 57.5612 37.0326 57.4671 37.0641 57.3887C37.1113 57.2319 37.1743 57.0752 37.1743 56.9027C37.1743 56.8713 37.1743 56.84 37.1743 56.8086C37.0169 56.8086 36.8595 56.8243 36.7021 56.8243C35.1282 56.8713 33.5543 56.7772 31.9962 56.9184H31.9805Z" fill="white"/>
<path d="M31.2564 45.2685C31.8545 46.7267 32.8775 47.8557 34.0579 48.8592C35.1596 49.8 36.4187 50.631 37.3473 51.7599C37.7723 52.2617 38.0713 52.8105 38.3074 53.375C38.874 52.5596 39.5508 51.8227 40.3534 51.1328C41.8171 49.8627 43.1864 48.5456 44.1307 46.8365C44.9334 45.3783 45.3426 43.7946 45.4843 42.1953C44.2724 39.7179 42.5726 37.5697 39.7554 36.6917C37.8038 36.0958 35.6161 36.6289 33.9163 37.7736C32.3581 38.8398 31.2879 40.5802 30.501 42.4305C30.6741 43.4026 30.8787 44.3591 31.2564 45.2685Z" fill="white"/>
<path d="M39.4881 58.3759C39.5196 58.4543 39.5668 58.5327 39.5983 58.6111C39.6298 58.6581 39.6613 58.7208 39.677 58.7679C40.4325 58.9247 41.1564 59.1442 41.8962 59.348C42.3211 59.301 42.746 59.2383 43.171 59.1599C43.2969 58.7836 43.4228 58.4229 43.5487 58.0466C43.6274 57.7957 43.7061 57.5448 43.7691 57.2783C43.7691 57.2156 43.8005 57.1372 43.8163 57.0745C43.8163 57.0431 43.8163 57.0117 43.832 56.9804C43.832 56.9177 43.832 56.9333 43.832 57.0431C43.8792 56.9647 43.8478 56.7295 43.8635 56.6354C43.8635 56.5727 43.895 56.51 43.9107 56.4473C43.5802 56.4786 43.2339 56.51 42.9034 56.5257C41.5971 56.6197 40.2908 56.6511 38.9688 56.7138C38.9688 56.7138 38.9688 56.7452 38.9688 56.7609C39.0947 57.2626 39.2363 57.7644 39.4409 58.2504C39.4566 58.2975 39.4881 58.3759 39.5039 58.3916L39.4881 58.3759Z" fill="white"/>
<path d="M27.0543 52.6067H29.242C29.6512 52.6067 30.0762 52.4342 30.3595 52.1519C30.5169 52.0108 30.627 51.8384 30.69 51.6502C30.7844 51.462 30.8316 51.2582 30.8316 51.0387C30.8159 50.631 30.6742 50.2077 30.3752 49.9254C30.0762 49.6432 29.6827 49.4707 29.2578 49.4707H27.0701C26.6609 49.4707 26.2359 49.6432 25.9526 49.9254C25.7952 50.0665 25.6851 50.239 25.6221 50.4272C25.5277 50.6153 25.4805 50.8192 25.4805 51.0387C25.4962 51.4464 25.6379 51.8697 25.9369 52.1519C26.2359 52.4342 26.6294 52.6067 27.0543 52.6067Z" fill="#96877A"/>
<path d="M28.4077 58.1102L30.0445 56.8872C30.2334 56.7931 30.375 56.652 30.4852 56.4795C30.6268 56.3227 30.7213 56.1503 30.7685 55.9464C30.8314 55.7426 30.8472 55.5231 30.8 55.3192C30.8 55.1154 30.7213 54.9115 30.6111 54.7391C30.3908 54.4098 30.076 54.1119 29.6668 54.0178L29.2418 53.9551C28.9585 53.9551 28.691 54.0335 28.4549 54.1746L26.8181 55.3976C26.6292 55.4917 26.4876 55.6328 26.3774 55.8053C26.2357 55.9621 26.1413 56.1346 26.0941 56.3384C26.0311 56.5422 26.0154 56.7618 26.0626 56.9656C26.0626 57.1694 26.1413 57.3733 26.2515 57.5458C26.4718 57.875 26.7866 58.1729 27.1958 58.267L27.6207 58.3297C27.904 58.3297 28.1716 58.2513 28.4077 58.1102Z" fill="#96877A"/>
<path d="M47.1528 51.8374L49.0729 51.0063C49.2618 50.9123 49.4034 50.7711 49.5136 50.5987C49.6553 50.4419 49.7497 50.2694 49.7969 50.0656C49.8599 49.8617 49.8756 49.6422 49.8284 49.4384C49.8284 49.2345 49.7497 49.0307 49.6395 48.8582C49.4192 48.5289 49.1044 48.231 48.6952 48.1369L48.2703 48.0742C47.987 48.0742 47.7194 48.1526 47.4833 48.2937L45.5632 49.1248C45.3743 49.2188 45.2327 49.36 45.1225 49.5324C44.9809 49.6892 44.8864 49.8617 44.8392 50.0656C44.7763 50.2694 44.7605 50.4889 44.8077 50.6927C44.8077 50.8966 44.8864 51.1004 44.9966 51.2729C45.2169 51.6022 45.5317 51.9001 45.9409 51.9942L46.3659 52.0569C46.6492 52.0569 46.9167 51.9785 47.1528 51.8374Z" fill="#96877A"/>
<path d="M45.941 56.5107L47.4362 56.934C47.6408 56.9968 47.8612 57.0124 48.0658 56.9654C48.2704 56.9654 48.475 56.887 48.6481 56.7772C48.837 56.6832 48.9786 56.5421 49.0888 56.3696C49.2304 56.2128 49.3249 56.0403 49.3721 55.8365L49.435 55.4131C49.435 55.1309 49.3563 54.8643 49.2147 54.6291L48.9629 54.3155C48.774 54.1274 48.5379 53.9862 48.2704 53.9078L46.7752 53.4845C46.5706 53.4218 46.3502 53.4061 46.1456 53.4531C45.941 53.4531 45.7364 53.5315 45.5633 53.6413C45.3744 53.7354 45.2328 53.8765 45.1226 54.049C44.981 54.2058 44.8865 54.3782 44.8393 54.5821L44.7764 55.0054C44.7764 55.2877 44.8551 55.5542 44.9967 55.7894L45.2485 56.103C45.4374 56.2912 45.6735 56.4323 45.941 56.5107Z" fill="#96877A"/>
</g>
<path d="M30.8638 40.4862C30.2028 41.8974 29.5732 43.3399 28.9909 44.7825C28.4085 46.225 27.8577 47.5735 27.48 49.016C26.8189 51.5562 26.7717 54.3472 28.2197 56.6364C28.9437 57.781 29.9509 58.6434 31.21 59.1295C31.9183 59.3961 32.2331 58.2671 31.5248 58.0006C28.7863 56.95 27.9521 53.6416 28.2826 51.0231C28.4872 49.3296 29.0853 47.6989 29.7149 46.1153C30.3916 44.4062 31.1156 42.7284 31.8868 41.0664C32.2016 40.3765 31.1943 39.7806 30.8638 40.4705V40.4862Z" fill="#231F20"/>
<path d="M31.3203 54.4405C31.3518 55.4126 31.4462 56.4004 31.6508 57.3412C31.824 58.1723 32.2332 59.019 33.0358 59.411C33.4608 59.6148 33.9015 59.6932 34.3579 59.7089C34.7828 59.7089 35.255 59.6775 35.6642 59.5834C36.1521 59.4737 36.5771 59.1758 36.8131 58.7367C37.0177 58.3604 37.1122 57.9371 37.1751 57.5137C37.3483 56.4161 37.3955 55.3029 37.2696 54.1896C37.2538 54.0328 37.2223 53.8917 37.0964 53.7662C36.9863 53.6565 36.8289 53.5938 36.6715 53.5938C36.3882 53.5938 36.0419 53.8603 36.0734 54.1896C36.1678 55.0677 36.1678 55.9457 36.0734 56.8238C36.0734 56.8865 36.0734 56.9335 36.0577 56.9963C36.0577 57.0276 36.0577 57.0433 36.0577 57.0747C36.0577 56.9649 36.0577 57.1687 36.0577 57.0747C36.0419 57.1844 36.0262 57.2942 36.0105 57.4039C35.979 57.5764 35.9475 57.7646 35.9003 57.9371C35.9003 57.9841 35.8688 58.0155 35.8531 58.0625C35.8531 58.0782 35.8531 58.0939 35.8373 58.1095C35.8216 58.1723 35.8688 58.0468 35.8688 58.0468C35.8373 58.0782 35.8373 58.1252 35.8216 58.1566C35.8059 58.2036 35.7744 58.235 35.7429 58.282C35.7429 58.282 35.7272 58.3134 35.7114 58.3291C35.7114 58.3291 35.7901 58.235 35.7429 58.282C35.7114 58.3134 35.6799 58.3447 35.6485 58.3761C35.7272 58.329 35.6485 58.3761 35.6327 58.3761C35.6012 58.3918 35.5226 58.4231 35.5068 58.4388C35.5383 58.3918 35.6012 58.4074 35.5383 58.4388C35.5226 58.4388 35.5068 58.4388 35.4753 58.4545C35.4281 58.4545 35.3809 58.4858 35.3337 58.4858C35.2865 58.4858 35.255 58.5015 35.2078 58.5172C35.1763 58.5172 35.1606 58.5172 35.1291 58.5172C35.0504 58.5172 35.1291 58.5172 35.1606 58.5172C35.0819 58.5486 34.9717 58.5329 34.893 58.5486C34.7986 58.5486 34.7199 58.5486 34.6254 58.5642C34.4523 58.5642 34.2635 58.5642 34.0903 58.5642C34.0746 58.5642 34.0589 58.5642 34.0274 58.5642C33.9644 58.5642 34.0903 58.5642 34.0903 58.5642C34.0431 58.5642 33.9959 58.5642 33.9644 58.5486C33.87 58.5329 33.7756 58.5015 33.6969 58.4702C33.6654 58.4702 33.6339 58.4388 33.5867 58.4388C33.5867 58.4388 33.7126 58.5015 33.6182 58.4388C33.6024 58.4388 33.5867 58.4231 33.571 58.4074C33.4923 58.3604 33.4136 58.3134 33.3506 58.2663C33.2877 58.2193 33.4293 58.3447 33.3821 58.282C33.3821 58.282 33.3506 58.2507 33.3349 58.2507C33.3034 58.2193 33.2719 58.1879 33.2404 58.1566C33.209 58.1252 33.1932 58.1095 33.1617 58.0782C33.0988 57.9998 33.1617 58.0625 33.1617 58.0782C33.1145 58.0155 33.0831 57.9527 33.0358 57.8743C33.0201 57.843 32.9886 57.7959 32.9729 57.7646C32.9729 57.7489 32.9729 57.7332 32.9571 57.7175C33.0358 57.843 32.9886 57.7803 32.9571 57.7332C32.8942 57.5764 32.847 57.4039 32.7998 57.2315C32.7525 57.0276 32.7211 56.8395 32.6896 56.6356C32.6738 56.5102 32.6581 56.4004 32.6424 56.275C32.6424 56.2593 32.6266 56.1496 32.6424 56.228C32.6581 56.3064 32.6424 56.1966 32.6424 56.1809C32.6424 56.1182 32.6266 56.0555 32.6266 55.9928C32.5637 55.491 32.5322 54.9893 32.5165 54.4718C32.5165 54.1582 32.2489 53.876 31.9184 53.876C31.5879 53.876 31.3203 54.1269 31.3203 54.4718V54.4405Z" fill="#231F20"/>
<path d="M44.1161 41.0819C44.8873 42.744 45.6113 44.4217 46.288 46.1308C46.9176 47.7145 47.5156 49.3452 47.7202 51.0386C48.0508 53.6571 47.2166 56.9656 44.4781 58.0161C43.7698 58.2827 44.0846 59.4273 44.7928 59.1451C47.0435 58.2827 48.46 56.1346 48.8534 53.8139C49.3413 50.8975 48.3183 48.0124 47.2481 45.3469C46.5871 43.7162 45.8946 42.1011 45.1391 40.5018C44.8243 39.8119 43.8013 40.4077 44.1161 41.0976V41.0819Z" fill="#231F20"/>
<path d="M43.486 54.4405C43.486 54.8952 43.4387 55.3343 43.3915 55.789C43.3915 55.8987 43.3758 55.9928 43.36 56.1026C43.36 56.1339 43.36 56.1496 43.36 56.181C43.36 56.2437 43.3443 56.3064 43.3286 56.3691C43.2971 56.5573 43.2656 56.7454 43.2341 56.9493C43.2027 57.1218 43.1554 57.2942 43.1082 57.4667C43.0767 57.5451 43.061 57.6235 43.0295 57.7019L42.9981 57.7646C42.9981 57.7646 43.0453 57.6549 43.0138 57.7019C42.9981 57.749 42.9666 57.796 42.9508 57.8274C42.9194 57.8901 42.8721 57.9685 42.8249 58.0312C42.8249 58.0469 42.7934 58.0782 42.7777 58.0939C42.7777 58.0939 42.8564 57.9998 42.8092 58.0469C42.7777 58.0782 42.7462 58.1253 42.7148 58.1566C42.6833 58.188 42.6675 58.2037 42.6361 58.235C42.6203 58.2507 42.6046 58.2664 42.5731 58.2821C42.5259 58.3291 42.6203 58.2507 42.6203 58.2507C42.5416 58.2821 42.4787 58.3448 42.4 58.3918C42.3842 58.3918 42.2426 58.4702 42.337 58.4232C42.4157 58.3918 42.2898 58.4232 42.2741 58.4389C42.1954 58.4702 42.1009 58.4859 42.0223 58.5016C41.975 58.5016 41.9278 58.5016 41.8963 58.5173C41.8334 58.5173 41.9593 58.5173 41.9593 58.5173H41.8806C41.7862 58.5173 41.7075 58.5173 41.613 58.5173C41.4242 58.5173 41.2511 58.5173 41.0622 58.5016C40.9835 58.5016 40.8891 58.4859 40.8104 58.4702C40.7474 58.4702 40.8733 58.4702 40.8733 58.4702C40.8418 58.4702 40.8104 58.4702 40.7946 58.4702C40.7474 58.4702 40.6845 58.4545 40.6372 58.4389C40.59 58.4389 40.5585 58.4232 40.5113 58.4075C40.4799 58.4075 40.4641 58.3918 40.4326 58.3761C40.4169 58.3761 40.3854 58.3448 40.3697 58.3291C40.3539 58.3291 40.3382 58.3134 40.3225 58.2977C40.2595 58.2664 40.4012 58.3761 40.3539 58.3291C40.3225 58.2977 40.291 58.2664 40.2595 58.235C40.2123 58.1723 40.1808 58.0939 40.1336 58.0155C40.1021 57.9528 40.1651 58.0782 40.1651 58.0782C40.1651 58.0626 40.1493 58.0312 40.1336 58.0155C40.1336 57.9842 40.1179 57.9528 40.1021 57.9058C40.0706 57.8117 40.0549 57.7333 40.0392 57.6392C39.992 57.4354 39.9605 57.2315 39.929 57.0277C39.929 56.965 39.929 57.059 39.929 57.059C39.929 57.0277 39.929 56.9963 39.929 56.965C39.929 56.9022 39.929 56.8395 39.9133 56.7768C39.9133 56.6514 39.8818 56.5259 39.8818 56.4005C39.866 56.1496 39.8503 55.9144 39.8503 55.6635C39.8503 55.1618 39.866 54.66 39.929 54.174C39.9605 53.8604 39.63 53.5781 39.3309 53.5781C38.9847 53.5781 38.7801 53.8447 38.7329 54.174C38.6227 55.1304 38.6384 56.0869 38.7643 57.0434C38.8902 57.9998 39.0319 59.0504 40.0077 59.4581C40.4326 59.6305 40.9048 59.6776 41.3455 59.6932C41.7704 59.7089 42.2111 59.6932 42.6203 59.5521C43.0453 59.411 43.4387 59.1758 43.722 58.8152C44.0053 58.4545 44.1942 58.0469 44.3044 57.6235C44.446 57.1218 44.509 56.5886 44.5719 56.0712C44.6349 55.5224 44.6821 54.9893 44.6978 54.4405C44.6978 54.1269 44.4145 53.8447 44.0998 53.8447C43.7693 53.8447 43.5174 54.0956 43.5017 54.4405H43.486Z" fill="#231F20"/>
<path d="M50.4588 53.5012C52.0484 52.7485 52.7881 50.961 53.0084 49.3147C53.2445 47.4801 52.9297 45.4418 53.8111 43.7327C54 43.3563 54.236 43.0271 54.5351 42.7448C54.7869 42.5096 55.2591 42.1333 55.6368 42.2274C56.3765 42.3999 56.6913 41.2709 55.9516 41.0984C54.9915 40.8789 54.0314 41.5218 53.4334 42.2117C52.8353 42.9016 52.4733 43.717 52.2687 44.5794C51.7965 46.555 52.2215 48.6561 51.4975 50.5847C51.1985 51.4001 50.6634 52.1057 49.8607 52.482C49.5774 52.6231 49.4987 53.0308 49.6561 53.2817C49.8292 53.5796 50.1755 53.6266 50.4588 53.4855V53.5012Z" fill="#231F20"/>
<path d="M47.4681 57.4362C50.301 57.5616 53.0239 56.0407 54.6135 53.7358C55.4476 52.5127 55.8411 51.1486 55.967 49.6904C56.03 48.8593 56.0299 48.0126 56.1559 47.1816C56.2818 46.3506 56.5965 45.6763 57.0215 44.9707C57.4464 44.2652 57.8084 43.4498 57.5723 42.5874C57.3677 41.8348 56.7854 41.239 55.9827 41.2233C55.2273 41.1919 55.2273 42.3679 55.9827 42.3993C56.3762 42.3993 56.5021 42.9951 56.4549 43.3087C56.3762 43.9672 55.8726 44.5317 55.5735 45.1119C54.8968 46.4446 54.8968 47.9342 54.8023 49.3924C54.7236 50.6625 54.4403 51.8228 53.7636 52.9047C53.134 53.9082 52.2527 54.7393 51.2296 55.3351C50.0807 56.0093 48.7901 56.3543 47.4523 56.2916C46.6969 56.2602 46.6969 57.4362 47.4523 57.4675L47.4681 57.4362Z" fill="#231F20"/>
<path d="M33.3506 57.5619C33.3506 57.6717 33.3506 57.7814 33.3821 57.9069C33.3821 57.9853 33.4135 58.0637 33.4293 58.1421C33.4608 58.2518 33.508 58.3616 33.5552 58.4557C33.5867 58.5341 33.6339 58.5968 33.6811 58.6752C33.7126 58.7222 33.7441 58.7536 33.7755 58.7849C33.807 58.8163 33.8542 58.8477 33.9172 58.8477C33.9644 58.8633 34.0274 58.8633 34.0746 58.8477C34.1218 58.8477 34.169 58.832 34.2162 58.8006C34.2949 58.7536 34.3736 58.6595 34.3893 58.5654C34.4051 58.4713 34.4051 58.3459 34.3421 58.2675C34.2792 58.1891 34.232 58.095 34.2005 58.001L34.2477 58.095C34.1847 57.9696 34.1533 57.8285 34.1375 57.6874V57.7971C34.1375 57.7971 34.1375 57.6403 34.1375 57.5619C34.1375 57.5149 34.1375 57.4522 34.106 57.4051C34.0903 57.3581 34.0588 57.311 34.0274 57.2797C33.9959 57.2483 33.9487 57.217 33.9014 57.2013C33.8542 57.1699 33.807 57.1699 33.7441 57.1699C33.6496 57.1699 33.5395 57.2013 33.4608 57.2797C33.3821 57.3581 33.3506 57.4522 33.3506 57.5619Z" fill="#231F20"/>
<path d="M34.6564 57.9216L34.7981 58.7056C34.7981 58.7056 34.8295 58.7997 34.861 58.8467C34.8925 58.8938 34.924 58.9251 34.9712 58.9408C35.0184 58.9722 35.0656 58.9878 35.1128 58.9878C35.16 58.9878 35.223 58.9878 35.2702 58.9878L35.3647 58.9408C35.3647 58.9408 35.4748 58.8624 35.5063 58.7997L35.5535 58.7056C35.5535 58.7056 35.5693 58.5645 35.5535 58.5018L35.4119 57.7178C35.4119 57.7178 35.3804 57.6237 35.3489 57.5767C35.3174 57.5296 35.286 57.4983 35.2387 57.4826C35.1915 57.4512 35.1443 57.4355 35.0971 57.4355C35.0499 57.4355 34.9869 57.4355 34.9397 57.4355L34.8453 57.4826C34.8453 57.4826 34.7351 57.561 34.7036 57.6237L34.6564 57.7178C34.6564 57.7178 34.6407 57.8589 34.6564 57.9216Z" fill="#231F20"/>
<path d="M40.5589 57.4511C40.5275 57.5609 40.5117 57.6706 40.5117 57.7804C40.5117 57.8588 40.5117 57.9372 40.5117 58.0313C40.5117 58.141 40.5432 58.2508 40.5747 58.3605C40.6062 58.4703 40.6534 58.58 40.7006 58.6741C40.7321 58.7212 40.7635 58.7525 40.795 58.7839C40.8265 58.8152 40.8737 58.8466 40.9367 58.8466C40.9839 58.8623 41.0468 58.8623 41.0941 58.8466C41.1413 58.8466 41.1885 58.8309 41.2357 58.7996C41.3144 58.7525 41.3931 58.6584 41.4088 58.5644V58.4546C41.4088 58.4546 41.4088 58.3135 41.3616 58.2508C41.3616 58.2351 41.3459 58.2194 41.3301 58.1881L41.3774 58.2821C41.3301 58.1724 41.2987 58.0626 41.2829 57.9372V58.0469C41.2829 57.9215 41.2829 57.8117 41.2829 57.6863V57.7961C41.2829 57.7961 41.2829 57.6863 41.2987 57.6393C41.3144 57.5922 41.3144 57.5295 41.2987 57.4825C41.2987 57.4354 41.2829 57.3884 41.2514 57.3413C41.22 57.2943 41.1885 57.2629 41.157 57.2316C41.1255 57.2002 41.0783 57.1689 41.0154 57.1689C40.9209 57.1532 40.795 57.1532 40.7163 57.2159C40.6376 57.2786 40.5589 57.357 40.5432 57.4511H40.5589Z" fill="#231F20"/>
<path d="M41.8336 57.7967C41.8336 57.7967 41.8493 57.8908 41.8651 57.9221V57.8124C41.8651 57.9378 41.8651 58.0632 41.8651 58.173V58.0632C41.8651 58.1887 41.8336 58.2984 41.7864 58.4082L41.8336 58.3141C41.8336 58.3141 41.8178 58.3611 41.8021 58.3768C41.7706 58.4239 41.7549 58.4709 41.7549 58.5179C41.7549 58.565 41.7549 58.6277 41.7549 58.6747C41.7549 58.7218 41.7864 58.7688 41.8178 58.8159C41.8493 58.8629 41.8808 58.8943 41.928 58.9099C42.0224 58.957 42.1326 58.9883 42.227 58.957C42.3215 58.9256 42.4159 58.8629 42.4631 58.7845C42.5103 58.6904 42.5576 58.5807 42.589 58.4709C42.6205 58.3611 42.6363 58.2514 42.652 58.1416C42.652 58.0632 42.652 57.9848 42.652 57.9064C42.652 57.7967 42.6363 57.6869 42.6048 57.5772C42.6048 57.5301 42.5733 57.4831 42.5418 57.436C42.5103 57.389 42.4789 57.3576 42.4316 57.342C42.3844 57.3106 42.3372 57.2949 42.29 57.2949C42.2428 57.2949 42.1798 57.2949 42.1326 57.2949C42.0382 57.3263 41.9437 57.389 41.8965 57.4674L41.8493 57.5615C41.8493 57.5615 41.8336 57.7026 41.8493 57.7653L41.8336 57.7967Z" fill="#231F20"/>
<mask id="mask2_3865_17394" style="mask-type:luminance" maskUnits="userSpaceOnUse" x="19" y="12" width="38" height="34">
<path d="M19.0598 17.9533C18.9968 20.8854 19.406 23.8332 20.2717 26.6399C20.4448 27.1887 20.6337 27.7532 20.6809 28.3176C20.7438 28.9605 20.6179 29.6034 20.5392 30.2463C20.0041 34.4328 21.0114 39.0426 24.1434 41.8807C27.6846 45.0793 32.9414 45.3459 37.7259 45.1577C40.3858 45.048 43.0614 44.8755 45.6268 44.1386C48.1922 43.4016 50.6474 42.1159 52.363 40.0932C53.0555 39.2778 53.6221 38.3684 54.0313 37.3962C54.6608 35.891 55.1487 33.9624 55.07 32.316C54.9913 30.9048 54.3146 29.7288 54.5506 28.2236C54.7238 27.1416 55.1172 26.1068 55.4478 25.0562C56.4078 21.983 56.7541 18.6589 56.0773 15.5072C55.8727 14.5351 55.5265 13.5159 54.7238 12.9201C53.4332 11.9479 52.3944 13.0455 51.3085 13.6727C49.6087 14.6605 48.0978 15.9933 46.9016 17.5456C46.5082 18.063 46.1147 18.6432 45.5009 18.8784C44.9185 19.1136 44.2575 18.9882 43.6437 18.8784C41.456 18.5178 39.2211 18.3766 37.002 18.4707C35.4596 18.5334 32.6266 18.3139 31.2258 18.9254C31.0527 19.0038 30.8796 19.0979 30.6907 19.0665C30.4704 19.0352 30.313 18.847 30.1713 18.6902C28.141 16.1815 25.8432 13.6884 22.7899 12.6065C19.7838 11.5246 19.0755 15.7895 19.0283 17.9376L19.0598 17.9533Z" fill="white"/>
</mask>
<g mask="url(#mask2_3865_17394)">
<path d="M19.0598 17.9533C18.9968 20.8854 19.406 23.8332 20.2717 26.6399C20.4448 27.1887 20.6337 27.7532 20.6809 28.3176C20.7438 28.9605 20.6179 29.6034 20.5392 30.2463C20.0041 34.4328 21.0114 39.0426 24.1434 41.8807C27.6846 45.0793 32.9414 45.3459 37.7259 45.1577C40.3858 45.048 43.0614 44.8755 45.6268 44.1386C48.1922 43.4016 50.6474 42.1159 52.363 40.0932C53.0555 39.2778 53.6221 38.3684 54.0313 37.3962C54.6608 35.891 55.1487 33.9624 55.07 32.316C54.9913 30.9048 54.3146 29.7288 54.5506 28.2236C54.7238 27.1416 55.1172 26.1068 55.4478 25.0562C56.4078 21.983 56.7541 18.6589 56.0773 15.5072C55.8727 14.5351 55.5265 13.5159 54.7238 12.9201C53.4332 11.9479 52.3944 13.0455 51.3085 13.6727C49.6087 14.6605 48.0978 15.9933 46.9016 17.5456C46.5082 18.063 46.1147 18.6432 45.5009 18.8784C44.9185 19.1136 44.2575 18.9882 43.6437 18.8784C41.456 18.5178 39.2211 18.3766 37.002 18.4707C35.4596 18.5334 32.6266 18.3139 31.2258 18.9254C31.0527 19.0038 30.8796 19.0979 30.6907 19.0665C30.4704 19.0352 30.313 18.847 30.1713 18.6902C28.141 16.1815 25.8432 13.6884 22.7899 12.6065C19.7838 11.5246 19.0755 15.7895 19.0283 17.9376L19.0598 17.9533Z" fill="#CDBEAC"/>
<path d="M48.7114 43.0246C49.4353 42.3974 49.8603 41.5977 49.8445 40.5472C49.8288 39.136 49.0891 37.8189 48.1133 36.7997C47.7513 36.4077 47.3421 36.0627 46.9014 35.7962C46.2089 35.3728 45.4062 35.1533 44.6035 34.9495C43.3759 34.6202 42.4001 34.3536 41.4873 33.4442C40.779 32.7386 40.4328 31.9076 39.5514 31.3902C36.9073 29.7908 35.2075 31.2804 33.8855 33.5069C32.8467 35.2474 30.2656 35.4356 28.6602 36.5018C27.4955 37.2701 26.6299 38.5088 26.441 39.8886C25.6069 45.8156 33.9484 45.3452 37.7415 45.1884C40.2597 45.0943 46.2089 45.2197 48.7114 43.0559V43.0246Z" fill="white"/>
<path d="M25.5278 18.5646C25.0556 17.9688 24.5047 17.4356 23.9381 16.9496C23.6548 16.7614 23.3715 16.5733 23.0725 16.4165C23.0253 16.4008 23.0253 16.4008 23.0096 16.3851C23.0096 16.3851 23.0096 16.3851 22.9623 16.3851C22.9151 16.3694 22.8679 16.3537 22.8207 16.3381C22.7577 16.3224 22.679 16.3067 22.6161 16.291C22.6003 16.291 22.6161 16.291 22.5846 16.291C22.5374 16.291 22.4115 16.291 22.38 16.291C22.3643 16.291 22.3485 16.291 22.3328 16.291C22.3013 16.291 22.2856 16.3224 22.2541 16.3381C22.2226 16.3694 22.1439 16.4478 22.1282 16.4792C22.081 16.5419 22.0495 16.6046 22.018 16.683C22.0023 16.7301 21.9865 16.7301 21.9865 16.7457C21.9865 16.7457 21.9865 16.7614 21.9708 16.8084C21.8921 17.028 21.8291 17.2475 21.7977 17.4827C21.719 17.8904 21.6875 18.3921 21.6875 18.9566C21.6875 20.2266 21.8134 21.5594 21.9865 22.7825C22.0967 23.5978 22.2698 24.4288 22.4272 25.2442C23.0568 24.4602 23.9067 23.8957 24.6936 23.2842C25.3389 22.7825 26.5822 22.0141 26.7711 21.1361C26.96 20.2894 26.0314 19.1918 25.5435 18.5803L25.5278 18.5646Z" fill="white"/>
<path d="M52.6618 25.7928C53.496 23.723 54.1727 21.4651 54.3459 19.2229C54.3773 18.7368 54.3931 18.2508 54.3459 17.7647C54.3459 17.5922 54.3144 17.4981 54.2514 17.2316C54.2357 17.1375 54.2042 17.0434 54.1727 16.9493C54.1255 16.8082 54.1255 16.8239 54.1255 16.8396C54.0783 16.7612 54.0311 16.6671 53.9839 16.5887C53.9839 16.573 54.0468 16.6514 53.9209 16.526C53.9052 16.5103 53.8894 16.4946 53.8737 16.479C53.8422 16.4633 53.7635 16.4162 53.7478 16.4006C53.7006 16.4006 53.6061 16.3535 53.5747 16.3535C53.5904 16.3535 53.6219 16.3535 53.4645 16.3535C53.1969 16.3535 53.2599 16.3535 52.9923 16.4006C52.8979 16.4162 52.8192 16.4006 52.7405 16.4006C52.6776 16.4319 52.6146 16.4633 52.5516 16.4946C51.8434 16.9023 51.2453 17.4668 50.7102 18.0626C49.8918 18.9564 49.0262 20.101 48.6484 21.2927C49.0104 22.3589 50.2853 23.1899 51.0092 23.9425C51.5916 24.5384 52.0795 25.2283 52.5516 25.9182C52.5674 25.8712 52.5989 25.8084 52.6303 25.7614L52.6618 25.7928Z" fill="white"/>
<path d="M38.6702 23.6289C38.4027 21.465 38.261 19.2699 38.261 17.0904C38.261 16.275 37.537 15.491 36.6872 15.5224C35.8373 15.5538 35.1133 16.2123 35.1133 17.0904C35.1133 19.2699 35.2549 21.465 35.5225 23.6289C35.5697 24.0522 35.6641 24.4128 35.9789 24.7421C36.2465 25.0087 36.7029 25.2125 37.0964 25.1968C37.8676 25.1655 38.7804 24.5069 38.6702 23.6289Z" fill="#96877A"/>
<path d="M34.216 21.7004C33.9642 21.1046 33.8068 20.4774 33.7124 19.8345L33.7754 20.2579C33.6967 19.615 33.6967 18.9565 33.7754 18.3136L33.7124 18.7369C33.7439 18.5645 33.7596 18.3763 33.8068 18.2038C33.8855 17.7805 33.8698 17.3728 33.6494 16.9965C33.4606 16.6672 33.0828 16.3536 32.7051 16.2752C31.9182 16.1027 30.9424 16.5104 30.7693 17.3728C30.423 19.0976 30.5174 20.9164 31.1785 22.5628C31.3358 22.9548 31.5247 23.2684 31.9024 23.5036C32.233 23.7074 32.7366 23.7858 33.1143 23.6604C33.4921 23.535 33.8698 23.2998 34.0586 22.9391C34.2475 22.5785 34.3734 22.1081 34.216 21.7318V21.7004Z" fill="#96877A"/>
<path d="M43.0295 22.6731C43.4387 20.5721 43.423 18.4553 42.9036 16.3699C42.7148 15.5702 41.7547 15.0214 40.9678 15.2723C40.1808 15.5232 39.6614 16.3542 39.866 17.2009C39.9762 17.6242 40.0549 18.0633 40.1179 18.5023L40.0549 18.079C40.2123 19.1922 40.2123 20.3212 40.0549 21.4344L40.1179 21.0111C40.0864 21.2776 40.0392 21.5442 39.9762 21.8108C39.8188 22.6104 40.2123 23.5355 41.0779 23.7394C41.8649 23.9118 42.8407 23.5042 43.0138 22.6418L43.0295 22.6731Z" fill="#96877A"/>
<path d="M19.5317 34.2608C20.2242 34.0727 20.9325 33.9472 21.6407 33.8375L21.2158 33.9002C22.0184 33.7904 22.8211 33.7434 23.6238 33.7434C24.4265 33.7434 25.2292 33.0221 25.1977 32.1754C25.1662 31.3287 24.5052 30.6074 23.6238 30.6074C21.9712 30.6074 20.2872 30.8113 18.6818 31.2346C17.8792 31.4385 17.3283 32.3636 17.5801 33.1632C17.8319 33.9629 18.6661 34.4803 19.516 34.2608H19.5317Z" fill="#96877A"/>
<path d="M21.153 40.265L24.0017 38.7284C24.348 38.5402 24.6155 38.1639 24.7257 37.7876C24.8359 37.4113 24.7887 36.9095 24.5683 36.5802C24.348 36.251 24.0332 35.9531 23.624 35.859C23.199 35.7649 22.7898 35.8119 22.4121 36.0158L19.5634 37.5524C19.2171 37.7406 18.9496 38.1169 18.8394 38.4932C18.7292 38.8695 18.7765 39.3712 18.9968 39.7005C19.2171 40.0298 19.5319 40.3277 19.9411 40.4218C20.3661 40.5159 20.7753 40.4688 21.153 40.265Z" fill="#96877A"/>
<path d="M52.3628 32.3004C53.0711 32.0182 53.8108 31.8144 54.582 31.7046L54.157 31.7673C54.9597 31.6576 55.7467 31.6576 56.5493 31.7673L56.1244 31.7046C56.3762 31.736 56.628 31.783 56.8798 31.83C57.6825 32.0025 58.6268 31.5949 58.8157 30.7325C58.9888 29.9485 58.5796 28.992 57.714 28.8039C55.6522 28.3648 53.4645 28.4746 51.5129 29.2742C51.1195 29.431 50.789 29.6192 50.5686 29.9955C50.364 30.3248 50.2853 30.8265 50.4112 31.2029C50.5371 31.5792 50.7732 31.9555 51.1352 32.1436C51.4972 32.3318 51.9694 32.4572 52.3471 32.3004H52.3628Z" fill="#96877A"/>
<path d="M52.0953 37.302L57.4465 37.6313C58.2649 37.6783 59.0518 36.8786 59.0203 36.0633C58.9731 35.1695 58.3278 34.558 57.4465 34.4953L52.0953 34.166C51.2769 34.119 50.4899 34.9187 50.5214 35.734C50.5686 36.6278 51.2139 37.2393 52.0953 37.302Z" fill="#96877A"/>
</g>
<path d="M29.4623 33.3506C30.3142 33.3506 31.0047 32.6626 31.0047 31.814C31.0047 30.9653 30.3142 30.2773 29.4623 30.2773C28.6105 30.2773 27.9199 30.9653 27.9199 31.814C27.9199 32.6626 28.6105 33.3506 29.4623 33.3506Z" fill="#231F20"/>
<path d="M45.4682 33.3506C46.32 33.3506 47.0106 32.6626 47.0106 31.814C47.0106 30.9653 46.32 30.2773 45.4682 30.2773C44.6163 30.2773 43.9258 30.9653 43.9258 31.814C43.9258 32.6626 44.6163 33.3506 45.4682 33.3506Z" fill="#231F20"/>
<path d="M37.4573 34.4318C38.2222 34.4318 38.8423 34.0457 38.8423 33.5694C38.8423 33.0931 38.2222 32.707 37.4573 32.707C36.6924 32.707 36.0723 33.0931 36.0723 33.5694C36.0723 34.0457 36.6924 34.4318 37.4573 34.4318Z" fill="#231F20"/>
<path d="M28.4082 20.8074C33.9798 18.5338 40.2753 18.3457 45.9884 20.3057C46.7124 20.5565 47.0114 19.4119 46.3032 19.1767C40.4326 17.154 33.8538 17.3265 28.1092 19.6785C27.8102 19.8039 27.6056 20.0705 27.7 20.3997C27.7787 20.682 28.1249 20.9328 28.424 20.8074H28.4082Z" fill="#231F20"/>
<path d="M21.5929 13.0925C24.1426 14.1901 26.4877 15.711 28.4865 17.624C29.0531 18.1727 29.604 18.7529 30.1233 19.3487C30.3279 19.5839 30.7529 19.5683 30.9575 19.3487C31.1936 19.1135 31.1621 18.7529 30.9575 18.5177C29.1003 16.3539 26.8497 14.5194 24.363 13.1395C23.6547 12.7475 22.9307 12.3869 22.191 12.0733C21.892 11.9479 21.5615 11.9792 21.3883 12.2771C21.2467 12.528 21.3096 12.9514 21.5929 13.0768V13.0925Z" fill="#231F20"/>
<path d="M19.7362 13.3587C17.9735 18.141 18.1781 23.5035 20.1926 28.1604C20.3185 28.4583 20.7435 28.521 20.9953 28.3642C21.2944 28.1918 21.3416 27.8468 21.1999 27.5646C19.3113 23.1899 19.2168 18.1253 20.8537 13.6723C21.1212 12.9667 19.9723 12.6531 19.7205 13.3587H19.7362Z" fill="#231F20"/>
<path d="M22.4903 17.4044C22.8051 17.5769 23.1041 17.765 23.4031 17.9689C23.4818 18.0159 23.5448 18.0786 23.6235 18.1256C23.6864 18.1727 23.529 18.0472 23.5763 18.0943C23.592 18.0943 23.6077 18.1256 23.6235 18.1256C23.655 18.157 23.7022 18.1884 23.7336 18.2197C23.8753 18.3295 24.0012 18.4549 24.1429 18.5647C24.4104 18.7999 24.6465 19.0664 24.8826 19.333C24.9141 19.3644 24.9455 19.4114 24.977 19.4428C24.977 19.4584 25.0872 19.5839 25.0242 19.4898C24.9613 19.3957 25.0557 19.5212 25.0714 19.5368C25.1029 19.5839 25.1344 19.6152 25.1659 19.6623C25.276 19.8034 25.3705 19.9602 25.4649 20.1013C25.6853 20.4463 25.8741 20.7912 26.0315 21.1675C26.0945 21.293 26.2518 21.4027 26.3778 21.4341C26.5194 21.4654 26.7083 21.4498 26.8342 21.3714C26.9601 21.293 27.0703 21.1675 27.1017 21.0264C27.1332 20.8696 27.1017 20.7285 27.0388 20.5717C26.4092 19.1605 25.402 17.9532 24.1586 17.0281C23.8281 16.7772 23.4818 16.5577 23.1041 16.3695C22.8365 16.2284 22.4431 16.2911 22.3014 16.5733C22.1598 16.8399 22.2227 17.2162 22.506 17.373L22.4903 17.4044Z" fill="#231F20"/>
<path d="M23.5918 23.6454C20.9635 26.4991 19.4683 30.4661 19.846 34.3547C20.2237 38.2432 22.3012 41.4263 25.5277 43.3862C27.2904 44.4525 29.3522 45.0483 31.4297 44.9699C32.1852 44.9385 32.1852 43.7625 31.4297 43.7939C28.1403 43.9037 24.9611 42.1789 23.041 39.5447C20.9635 36.7066 20.5228 33.0689 21.4986 29.7291C22.0652 27.7848 23.0724 25.9816 24.4575 24.4764C24.9768 23.9119 24.1427 23.0809 23.6233 23.6454H23.5918Z" fill="#231F20"/>
<path d="M45.7524 19.5061C46.6023 18.675 47.405 17.797 48.2706 16.9659C48.9631 16.3074 49.7028 15.7272 50.4425 15.1471C51.1036 14.6453 51.7646 14.1436 52.4728 13.7045C52.7719 13.5164 53.1024 13.3282 53.4329 13.2185C53.5116 13.1871 53.5903 13.1714 53.6847 13.1401C53.7791 13.1087 53.7634 13.1244 53.7791 13.1244C53.968 13.1244 53.9365 13.1244 54.0782 13.1557C54.1726 13.1871 54.1254 13.1557 54.1411 13.1714C54.1884 13.1871 54.2356 13.2185 54.2828 13.2498C54.3615 13.2969 54.4087 13.3439 54.5189 13.4537C54.6605 13.6105 54.8022 13.8457 54.9123 14.0965C55.1799 14.661 55.3373 15.3666 55.4317 16.0095C55.6363 17.2325 55.6678 18.5026 55.6835 19.7413C55.715 22.4225 55.2586 25.1038 54.1884 27.5812C54.0624 27.8791 54.1097 28.2084 54.393 28.3808C54.6448 28.522 55.0697 28.4592 55.1956 28.177C56.8482 24.3668 57.1945 20.1176 56.6121 16.0408C56.4233 14.7394 56.077 12.9833 54.8336 12.2463C53.3699 11.3682 51.5757 12.8265 50.4425 13.6732C49.5769 14.3161 48.79 14.8962 47.9873 15.6175C46.9013 16.5896 45.9255 17.6872 44.871 18.7064C44.3202 19.2395 45.1543 20.0705 45.7052 19.5374L45.7524 19.5061Z" fill="#231F20"/>
<path d="M52.3468 16.4018C50.9933 17.1231 49.8286 18.2207 49.0102 19.5221C48.7898 19.867 48.601 20.2434 48.4278 20.6197C48.3649 20.7765 48.3177 20.9019 48.3649 21.0744C48.3964 21.2155 48.5065 21.3566 48.6324 21.4193C48.7741 21.4977 48.9315 21.5291 49.0889 21.4821C49.2305 21.435 49.3879 21.3409 49.4351 21.2155C49.5768 20.8862 49.7499 20.5726 49.923 20.2747C50.0175 20.1179 50.1119 19.9768 50.2063 19.82C50.2535 19.7416 50.3165 19.6789 50.3637 19.6005C50.3952 19.5691 50.4109 19.5378 50.4424 19.5064C50.4896 19.4437 50.3637 19.6005 50.4109 19.5535C50.4267 19.5378 50.4424 19.5064 50.4581 19.4907C50.6785 19.2085 50.9146 18.9419 51.1821 18.7067C51.308 18.5813 51.4497 18.4559 51.5913 18.3304C51.6543 18.2834 51.7172 18.2207 51.7802 18.1736C51.7959 18.1736 51.9218 18.0639 51.8274 18.1266C51.7487 18.1893 51.8117 18.1266 51.8274 18.1266C51.8589 18.1109 51.8746 18.0952 51.9061 18.0639C52.2366 17.8287 52.5671 17.6092 52.9291 17.421C53.1967 17.2799 53.3068 16.8722 53.1337 16.6213C52.9606 16.3391 52.6143 16.2607 52.331 16.4175L52.3468 16.4018Z" fill="#231F20"/>
<path d="M51.0087 24.4764C53.401 27.0793 54.723 30.67 54.424 34.1979C54.125 37.7259 52.2048 40.611 49.3247 42.3514C47.7193 43.3236 45.9093 43.841 44.0207 43.7783C43.2652 43.7469 43.2652 44.9229 44.0207 44.9543C47.7036 45.064 51.1661 43.1354 53.3538 40.2346C55.6831 37.1457 56.171 33.069 55.1008 29.3999C54.487 27.2518 53.3538 25.2761 51.8428 23.6297C51.3235 23.0653 50.4893 23.8963 51.0087 24.4608V24.4764Z" fill="#231F20"/>
</svg>
