<svg width="80" height="77" viewBox="0 0 80 77" fill="none" xmlns="http://www.w3.org/2000/svg">
<path d="M51.9653 50.2895C52.2486 49.2665 52.3903 48.1805 52.9883 47.3149C53.5864 46.4492 54.8927 45.9456 55.7111 46.6066C56.9702 46.1502 58.308 45.9299 59.6301 45.9456C61.3771 45.9456 60.8734 48.0389 60.9049 49.235C60.9207 50.3052 60.9364 51.4227 60.5901 52.43C60.1809 53.6261 59.4255 53.815 58.5913 54.539C57.8516 55.2 57.348 56.3332 56.6869 57.1044C56.0102 57.8913 55.2862 58.6468 54.3891 59.1504C52.7523 60.0475 48.4871 60.2206 47.8418 57.8756C47.4326 56.4276 48.7546 55.3731 49.6202 54.4445C50.722 53.2484 51.5404 51.8319 51.9811 50.2738L51.9653 50.2895Z" fill="#5C564D"/>
<path d="M48.7859 56.3487C50.2339 55.5775 51.0523 54.0508 51.5402 52.5399C52.0281 51.029 52.2642 49.1876 53.3029 47.834C53.7751 47.2202 54.3889 46.7481 55.1286 46.5749C55.4434 46.4962 55.6165 46.15 55.5378 45.8509C55.4434 45.5362 55.1286 45.363 54.8138 45.4417C53.2085 45.8195 52.1068 47.2045 51.493 48.6682C50.8162 50.2735 50.6588 52.0677 49.8404 53.5944C49.4469 54.3184 48.9275 54.9637 48.1878 55.3414C47.9045 55.4831 47.8258 55.8765 47.9832 56.1441C48.1563 56.4274 48.5026 56.5061 48.7859 56.3487Z" fill="#231F20"/>
<path d="M55.5065 48.2432C55.6639 48.0386 55.8528 47.8497 56.0417 47.6766C56.0889 47.6293 56.1361 47.5821 56.1833 47.5507C56.2148 47.5349 56.2305 47.5034 56.262 47.4877C56.2148 47.5349 56.199 47.5349 56.262 47.4877C56.3564 47.4247 56.4509 47.3618 56.5453 47.2988C56.6555 47.2359 56.7656 47.1572 56.8916 47.11C56.9545 47.0785 57.0175 47.047 57.0804 47.0155C57.1119 47.0155 57.1434 46.9841 57.1748 46.9683C57.1119 46.9998 57.1119 46.9998 57.1748 46.9683C57.4109 46.8739 57.6628 46.7952 57.9146 46.7322C58.0405 46.7008 58.1664 46.6693 58.2766 46.6535C58.3395 46.6535 58.4025 46.6378 58.4812 46.6221C58.5126 46.6221 58.5441 46.6221 58.5756 46.6221C58.4969 46.6221 58.4969 46.6221 58.5756 46.6221C58.8432 46.5906 59.095 46.5749 59.3625 46.5591C59.8977 46.5276 60.4328 46.5434 60.9836 46.5591C61.2984 46.5591 61.5817 46.2916 61.5817 45.961C61.5817 45.6305 61.3299 45.3787 60.9836 45.363C59.2209 45.3315 57.3008 45.363 55.7898 46.4017C55.3649 46.685 54.9872 47.0313 54.6724 47.4405C54.578 47.5664 54.4993 47.6923 54.4993 47.8654C54.4993 48.0071 54.5622 48.1802 54.6724 48.2904C54.8927 48.4792 55.3019 48.5422 55.5065 48.2904V48.2432Z" fill="#231F20"/>
<path d="M47.59 58.9928C49.101 60.4407 51.3988 60.9287 53.3976 60.3306C53.9485 60.1575 54.4836 59.9056 54.9558 59.5751C55.2076 59.402 55.3492 59.0557 55.1604 58.7724C55.003 58.5206 54.6253 58.3632 54.3577 58.5678C54.1688 58.6937 53.98 58.8197 53.7754 58.9141C53.6809 58.9613 53.5865 59.0085 53.4763 59.0557C53.4134 59.0872 53.5078 59.0557 53.5078 59.0557C53.4763 59.0557 53.4448 59.0715 53.4134 59.0872C53.3504 59.103 53.3032 59.1344 53.2402 59.1502C53.0199 59.2289 52.8153 59.2761 52.595 59.3233C52.5477 59.3233 52.4848 59.339 52.4376 59.3548C52.4061 59.3548 52.3746 59.3548 52.3431 59.3548C52.3117 59.3548 52.2802 59.3548 52.2487 59.3548C52.1858 59.3548 52.1228 59.3548 52.0598 59.3705C51.8395 59.3705 51.6034 59.3863 51.3831 59.3705C51.2729 59.3705 51.1627 59.3705 51.0526 59.339C51.0368 59.339 51.0053 59.339 50.9896 59.339C51.1155 59.339 51.0368 59.339 51.0053 59.339C50.9424 59.339 50.8794 59.3233 50.8165 59.3076C50.5961 59.2603 50.3758 59.2131 50.1555 59.1502C50.0453 59.1187 49.9508 59.0872 49.8407 59.04C49.7935 59.0243 49.6833 58.977 49.7935 59.0243C49.7305 58.9928 49.6833 58.977 49.6203 58.9456C49.4 58.8354 49.1797 58.7095 48.975 58.5836C48.9121 58.5521 48.8649 58.5049 48.8019 58.4577C48.7862 58.4577 48.7704 58.4262 48.739 58.4105C48.8019 58.4577 48.7704 58.4419 48.739 58.4105C48.6288 58.3318 48.5344 58.2373 48.4399 58.1429C48.2196 57.9225 47.8261 57.9068 47.6058 58.1429C47.3854 58.379 47.3697 58.7567 47.6058 58.977L47.59 58.9928Z" fill="#231F20"/>
<path d="M55.1765 58.0644C55.3653 58.1903 55.5699 58.3162 55.7745 58.4264C56.0264 58.568 56.2782 58.6782 56.5457 58.7884C56.6244 58.8198 56.7031 58.8198 56.7818 58.7884C56.8605 58.7884 56.9392 58.7569 57.0022 58.7254C57.0651 58.6939 57.1281 58.631 57.1753 58.568C57.2225 58.5051 57.2697 58.4421 57.2855 58.3634V58.206C57.3012 58.0959 57.2855 58.0014 57.2225 57.907L57.1281 57.7811C57.1281 57.7811 56.9707 57.6552 56.8605 57.6237C56.8605 57.6237 56.9549 57.6552 57.0022 57.6709C56.5772 57.4978 56.168 57.2617 55.7903 57.0099C55.7273 56.9627 55.6486 56.9469 55.5699 56.9469C55.4912 56.9312 55.4125 56.9469 55.3338 56.9469C55.2552 56.9627 55.1922 56.9942 55.1292 57.0571C55.0663 57.1043 55.0191 57.1515 54.9719 57.2302C54.8932 57.3719 54.8617 57.5293 54.9089 57.6867L54.9719 57.8283C55.0191 57.9227 55.0978 57.9857 55.1765 58.0329V58.0644Z" fill="#231F20"/>
<path d="M57.0805 56.7893C57.0805 56.7893 57.1119 56.7893 57.1277 56.7893H56.9703C57.0805 56.7893 57.1906 56.7893 57.3008 56.805H57.1434C57.2536 56.805 57.3795 56.8365 57.4897 56.8837L57.348 56.8208C57.348 56.8208 57.4897 56.8837 57.5684 56.9309C57.6313 56.9782 57.71 56.9939 57.7887 56.9939C57.8674 57.0096 57.9461 56.9939 58.0248 56.9939C58.1035 56.9782 58.1664 56.9467 58.2294 56.8837C58.2924 56.8365 58.3396 56.7893 58.3868 56.7106L58.4497 56.5689C58.4812 56.4588 58.4812 56.3643 58.4497 56.2542L58.3868 56.1125C58.3396 56.0181 58.2609 55.9551 58.1822 55.9079C58.072 55.8292 57.9461 55.782 57.8202 55.7348C57.7415 55.7033 57.6628 55.6718 57.5841 55.6561C57.4582 55.6246 57.3166 55.6089 57.1906 55.6089C57.0647 55.6089 56.9231 55.6246 56.7972 55.6404C56.7185 55.6561 56.6555 55.6876 56.5926 55.7505C56.5296 55.7977 56.4824 55.845 56.4352 55.9237C56.388 55.9866 56.3722 56.0653 56.3722 56.144C56.3565 56.2227 56.3722 56.3014 56.3722 56.3801L56.4352 56.5217C56.4824 56.6162 56.5611 56.6791 56.6398 56.7263L56.7814 56.7893C56.8916 56.8208 56.986 56.8208 57.0962 56.7893H57.0805Z" fill="#231F20"/>
<path d="M58.7963 55.0737C59.5517 54.7117 60.1813 54.1136 60.6062 53.4054C61.0941 52.5555 61.2043 51.6112 61.2358 50.6511C61.2673 50.0688 61.283 49.5022 61.2987 48.9199C61.2987 48.6051 61.0154 48.3218 60.7007 48.3218C60.3701 48.3218 60.1183 48.5736 60.1026 48.9199C60.0868 49.392 60.0711 49.8642 60.0396 50.3363C60.0396 50.5567 60.0239 50.7928 60.0082 51.0131C60.0082 51.1233 60.0082 51.2492 59.9767 51.3594C59.9767 51.4066 59.9767 51.4695 59.9609 51.5167C59.9609 51.5482 59.9609 51.564 59.9609 51.5954C59.9609 51.5482 59.9609 51.5325 59.9609 51.5954C59.9295 51.8 59.8822 52.0204 59.8193 52.225C59.8035 52.2879 59.7249 52.4138 59.7249 52.4768C59.7249 52.4768 59.7721 52.3666 59.7406 52.4296C59.7406 52.4453 59.7249 52.4611 59.7091 52.4925C59.6934 52.5398 59.6619 52.587 59.6462 52.6185C59.5675 52.7758 59.473 52.9332 59.3629 53.0749C59.3629 53.0906 59.3314 53.1064 59.3314 53.1221C59.2842 53.185 59.3943 53.0434 59.3314 53.1064C59.2999 53.1378 59.2842 53.1693 59.2527 53.2008C59.1897 53.2637 59.1268 53.3424 59.0638 53.4054C59.0009 53.4683 58.9222 53.547 58.8435 53.61C58.8277 53.6257 58.7176 53.7202 58.7648 53.6729C58.812 53.6257 58.7176 53.7202 58.6861 53.7202C58.513 53.8461 58.3241 53.9405 58.1352 54.0349C57.8519 54.1609 57.7575 54.5858 57.9306 54.8376C58.1195 55.1209 58.4343 55.1839 58.7333 55.0422L58.7963 55.0737Z" fill="#231F20"/>
<path d="M60.1495 48.3062C60.3698 48.1331 60.6216 47.9914 60.8735 47.8812L60.7318 47.9442C60.9994 47.834 61.2827 47.7553 61.566 47.7239H61.4086C61.4086 47.7239 61.4715 47.7239 61.4873 47.7239C61.566 47.7239 61.6447 47.7239 61.7076 47.6766C61.7863 47.6452 61.8493 47.6137 61.8965 47.5507C61.9594 47.5035 61.9909 47.4406 62.0224 47.3619C62.0539 47.2989 62.0696 47.2202 62.0696 47.1415C62.0696 46.9841 62.0066 46.8268 61.8965 46.7166L61.7706 46.6222C61.6761 46.5749 61.5817 46.5435 61.4715 46.5435C61.1882 46.5749 60.9049 46.6222 60.6374 46.7166C60.3698 46.811 60.1023 46.9212 59.8662 47.0628C59.756 47.1258 59.6301 47.2045 59.5357 47.2832C59.4727 47.3147 59.4098 47.3776 59.3625 47.4406C59.3153 47.5035 59.2681 47.5665 59.2524 47.6452C59.2209 47.7239 59.2209 47.8026 59.2524 47.8812C59.2524 47.9599 59.2838 48.0386 59.3153 48.1016C59.394 48.2275 59.5199 48.3377 59.6616 48.3692H59.819C59.9291 48.3849 60.0236 48.3691 60.118 48.3062H60.1495Z" fill="#231F20"/>
<mask id="mask0_188_1823" style="mask-type:luminance" maskUnits="userSpaceOnUse" x="28" y="44" width="22" height="17">
<path d="M33.2522 59.9686C31.0173 58.9771 29.2546 56.931 28.6722 54.5545C28.0899 52.1779 28.7037 49.5181 30.3248 47.6924C32.5754 45.1585 36.2268 44.4974 39.5949 44.1512C40.7753 44.041 42.0187 43.9466 43.1204 44.3873C44.0175 44.7493 44.7415 45.4418 45.4497 46.1028C46.7088 47.2989 47.9837 48.5265 48.8178 50.0532C50.0297 52.2881 50.1556 55.0896 49.1326 57.4189C48.8493 58.0485 48.4873 58.6623 47.9522 59.103C47.4958 59.465 46.9449 59.7011 46.3783 59.8742C44.4897 60.4565 42.4751 60.5195 40.5078 60.5824C38.0682 60.6611 35.5815 60.9916 33.2679 59.9686H33.2522Z" fill="white"/>
</mask>
<g mask="url(#mask0_188_1823)">
<path d="M33.2522 59.9686C31.0173 58.9771 29.2546 56.931 28.6722 54.5545C28.0899 52.1779 28.7037 49.5181 30.3248 47.6924C32.5754 45.1585 36.2268 44.4974 39.5949 44.1512C40.7753 44.041 42.0187 43.9466 43.1204 44.3873C44.0175 44.7493 44.7415 45.4418 45.4497 46.1028C46.7088 47.2989 47.9837 48.5265 48.8178 50.0532C50.0297 52.2881 50.1556 55.0896 49.1326 57.4189C48.8493 58.0485 48.4873 58.6623 47.9522 59.103C47.4958 59.465 46.9449 59.7011 46.3783 59.8742C44.4897 60.4565 42.4751 60.5195 40.5078 60.5824C38.0682 60.6611 35.5815 60.9916 33.2679 59.9686H33.2522Z" fill="#C0B9AC"/>
<path d="M28.1368 55.5936C28.9395 55.2788 29.7579 54.9955 30.592 54.7909C30.8753 54.7122 31.1429 54.5076 31.3003 54.2558C31.4577 54.004 31.5049 53.6263 31.4262 53.343C31.2216 52.7291 30.6078 52.3514 29.9782 52.5245C29.1441 52.7449 28.3257 53.0124 27.523 53.3272C27.3656 53.3587 27.2397 53.4374 27.1138 53.5318C26.9879 53.6105 26.8777 53.7207 26.8147 53.8623C26.6731 54.1142 26.6101 54.4919 26.6888 54.7752C26.7675 55.0585 26.9564 55.3418 27.2239 55.4834C27.4915 55.6251 27.8378 55.7195 28.1368 55.6093V55.5936Z" fill="#5C564D"/>
<path d="M30.1827 58.6626C30.1827 58.6626 30.3401 58.5209 30.4188 58.458L30.1827 58.6469C30.3873 58.4895 30.6076 58.3636 30.8437 58.2534L30.5604 58.3793C30.7178 58.3163 30.8752 58.2691 31.0326 58.2219C31.19 58.1904 31.3159 58.1117 31.4418 58.0173C31.5677 57.9386 31.6779 57.8284 31.7408 57.6868C31.8195 57.5451 31.8667 57.4035 31.8825 57.2461C31.9139 57.0887 31.9139 56.9313 31.8667 56.7739C31.7723 56.4906 31.5992 56.2073 31.3316 56.0657L31.0483 55.9398C30.8437 55.8768 30.6234 55.8768 30.4188 55.9398C30.2929 55.9713 30.1512 56.0027 30.0253 56.0657C29.805 56.1444 29.6004 56.2388 29.3957 56.349C29.2856 56.412 29.1754 56.4749 29.0652 56.5536C28.8764 56.6953 28.6875 56.8369 28.5301 56.9943C28.4199 57.1045 28.3413 57.2304 28.2783 57.372C28.1996 57.5137 28.1681 57.6711 28.1839 57.8284C28.1839 57.9858 28.2153 58.1432 28.2783 58.2849C28.3255 58.4265 28.4042 58.5524 28.5301 58.6626C28.7505 58.8672 29.0495 59.0246 29.3643 59.0088C29.679 58.9931 29.9623 58.8829 30.1984 58.6626H30.1827Z" fill="#5C564D"/>
<path d="M47.8259 54.7122C47.9518 54.6965 48.0934 54.665 48.2193 54.6493L47.9046 54.6965C48.6285 54.602 49.3683 54.5863 50.0922 54.6493C50.3755 54.6807 50.7375 54.4919 50.9264 54.303C51.1153 54.1141 51.2884 53.7679 51.2726 53.4689C51.2569 53.1698 51.1625 52.8393 50.9264 52.6347C50.6903 52.4301 50.4228 52.3199 50.0922 52.2884C49.1164 52.194 48.1564 52.2727 47.1963 52.4458C46.913 52.493 46.6297 52.7606 46.4881 52.9809C46.3464 53.2328 46.2835 53.6105 46.3622 53.8938C46.4409 54.1771 46.6297 54.4604 46.8973 54.602C47.1963 54.7594 47.4796 54.7752 47.8101 54.7279L47.8259 54.7122Z" fill="#5C564D"/>
<path d="M47.2126 58.1747C48.031 58.3321 48.8337 58.5682 49.6049 58.8987L49.3216 58.7728C49.479 58.8357 49.6521 58.9144 49.8095 58.9931C50.0928 59.1348 50.3918 59.1977 50.7224 59.119C50.9899 59.0404 51.2889 58.8357 51.4306 58.5839C51.5722 58.3164 51.6509 57.9859 51.5565 57.6711C51.4621 57.3878 51.2889 57.0887 51.0214 56.9628C50.0141 56.4749 48.9596 56.1129 47.8736 55.9083C47.5589 55.8454 47.2441 55.8611 46.9608 56.0343C46.709 56.1759 46.4886 56.4592 46.4257 56.7425C46.3627 57.0415 46.3785 57.3878 46.5516 57.6553C46.709 57.9072 46.9608 58.1432 47.2598 58.1905L47.2126 58.1747Z" fill="#5C564D"/>
</g>
<path d="M32.4651 56.0022C32.4966 56.978 32.591 57.9696 32.7956 58.9139C32.9687 59.7481 33.3779 60.5979 34.1806 60.9914C34.6056 61.196 35.0462 61.2747 35.5027 61.2904C35.9276 61.2904 36.3998 61.259 36.809 61.1645C37.2969 61.0544 37.7218 60.7553 37.9579 60.3146C38.1625 59.9369 38.2569 59.512 38.3199 59.087C38.493 57.9853 38.5402 56.8679 38.4143 55.7504C38.3986 55.593 38.3671 55.4514 38.2412 55.3255C38.131 55.2153 37.9736 55.1523 37.8163 55.1523C37.533 55.1523 37.1867 55.4199 37.2182 55.7504C37.3126 56.6318 37.3126 57.5132 37.2182 58.3945C37.2182 58.4575 37.2182 58.5047 37.2024 58.5676C37.2024 58.5991 37.2024 58.6149 37.2024 58.6463C37.2024 58.7408 37.2024 58.5362 37.2024 58.6463C37.1867 58.7565 37.171 58.8667 37.1552 58.9769C37.1238 59.15 37.0923 59.3388 37.0451 59.512C37.0451 59.5592 37.0136 59.5907 36.9978 59.6379C36.9978 59.6536 36.9978 59.6694 36.9821 59.6851C36.9664 59.7481 37.0136 59.6221 37.0136 59.6221C36.9821 59.6536 36.9821 59.7008 36.9664 59.7323C36.9506 59.7795 36.9192 59.811 36.8877 59.8582C36.8877 59.8582 36.8719 59.8897 36.8562 59.9054C36.8562 59.9054 36.9349 59.811 36.8877 59.8582C36.8562 59.8897 36.8247 59.9212 36.7932 59.9527C36.8719 59.9054 36.7932 59.9527 36.7775 59.9527C36.746 59.9684 36.6673 59.9999 36.6516 60.0156C36.6831 59.9684 36.746 59.9841 36.6831 60.0156C36.6673 60.0156 36.6516 60.0156 36.6201 60.0313C36.5729 60.0313 36.5257 60.0628 36.4785 60.0628C36.4313 60.0628 36.3998 60.0786 36.3526 60.0943C36.3211 60.0943 36.3053 60.0943 36.2739 60.0943C36.1952 60.0943 36.2739 60.0943 36.3053 60.0943C36.2266 60.1258 36.1165 60.11 36.0378 60.1258C35.9433 60.1258 35.8647 60.1258 35.7702 60.1415C35.5971 60.1415 35.4082 60.1415 35.2351 60.1415C35.2194 60.1415 35.2036 60.1415 35.1722 60.1415C35.1092 60.1415 35.2351 60.1415 35.2351 60.1415C35.1879 60.1415 35.1407 60.1415 35.1092 60.1258C35.0148 60.11 34.9203 60.0786 34.8416 60.0471C34.8102 60.0471 34.7787 60.0156 34.7315 60.0156C34.7315 60.0156 34.8574 60.0786 34.7629 60.0156C34.7472 60.0156 34.7315 59.9999 34.7157 59.9841C34.637 59.9369 34.5583 59.8897 34.4954 59.8425C34.4324 59.7953 34.5741 59.9212 34.5269 59.8582C34.5269 59.8582 34.4954 59.8267 34.4796 59.8267C34.4482 59.7953 34.4167 59.7638 34.3852 59.7323C34.3537 59.7008 34.338 59.6851 34.3065 59.6536C34.3065 59.6379 34.2436 59.5749 34.3065 59.6536C34.2593 59.5907 34.2278 59.5277 34.1806 59.449C34.1649 59.4175 34.1334 59.3703 34.1177 59.3388C34.1177 59.3231 34.1177 59.3074 34.1019 59.2916C34.1806 59.4175 34.1334 59.3546 34.1019 59.3074C34.039 59.15 33.9917 58.9769 33.9445 58.8037C33.8973 58.5991 33.8658 58.4103 33.8344 58.2057C33.8186 58.0797 33.8029 57.9696 33.7871 57.8437C33.7871 57.8279 33.7714 57.7178 33.7871 57.7965C33.8029 57.8751 33.7871 57.765 33.7871 57.7492C33.7871 57.6863 33.7714 57.6233 33.7714 57.5604C33.7084 57.0567 33.677 56.5531 33.6612 56.0337C33.6612 55.7189 33.3937 55.4356 33.0632 55.4356C32.7326 55.4356 32.4651 55.6875 32.4651 56.0337V56.0022Z" fill="#231F20"/>
<path d="M44.631 56.0024C44.631 56.4588 44.5838 56.8995 44.5365 57.3559C44.5365 57.4661 44.5208 57.5605 44.5051 57.6707C44.5051 57.7021 44.5051 57.7179 44.5051 57.7493C44.5051 57.8123 44.4893 57.8753 44.4736 57.9382C44.4421 58.1271 44.4106 58.3159 44.3792 58.5205C44.3477 58.6937 44.3005 58.8668 44.2532 59.0399C44.2218 59.1186 44.206 59.1973 44.1745 59.276L44.1431 59.339C44.1431 59.339 44.1903 59.2288 44.1588 59.276C44.1431 59.3232 44.1116 59.3704 44.0959 59.4019C44.0644 59.4649 44.0172 59.5436 43.9699 59.6065C43.9699 59.6223 43.9385 59.6537 43.9227 59.6695C43.9227 59.6695 44.0014 59.575 43.9542 59.6223C43.9227 59.6537 43.8912 59.701 43.8598 59.7324C43.8283 59.7639 43.8126 59.7796 43.7811 59.8111C43.7653 59.8269 43.7496 59.8426 43.7181 59.8583C43.6709 59.9056 43.7653 59.8269 43.7653 59.8269C43.6866 59.8583 43.6237 59.9213 43.545 59.9685C43.5293 59.9685 43.3876 60.0472 43.482 60C43.5607 59.9685 43.4348 60 43.4191 60.0157C43.3404 60.0472 43.246 60.0629 43.1673 60.0787C43.1201 60.0787 43.0728 60.0787 43.0414 60.0944C42.9784 60.0944 43.1043 60.0944 43.1043 60.0944H43.0256C42.9312 60.0944 42.8525 60.0944 42.7581 60.0944C42.5692 60.0944 42.3961 60.0944 42.2072 60.0787C42.1285 60.0787 42.0341 60.0629 41.9554 60.0472C41.8924 60.0472 42.0183 60.0472 42.0183 60.0472C41.9869 60.0472 41.9554 60.0472 41.9396 60.0472C41.8924 60.0472 41.8295 60.0315 41.7823 60.0157C41.735 60.0157 41.7036 60 41.6563 59.9843C41.6249 59.9843 41.6091 59.9685 41.5777 59.9528C41.5619 59.9528 41.5304 59.9213 41.5147 59.9056C41.499 59.9056 41.4832 59.8898 41.4675 59.8741C41.4045 59.8426 41.5462 59.9528 41.499 59.9056C41.4675 59.8741 41.436 59.8426 41.4045 59.8111C41.3573 59.7482 41.3258 59.6695 41.2786 59.5908C41.2471 59.5278 41.3101 59.6537 41.3101 59.6537C41.3101 59.638 41.2944 59.6065 41.2786 59.5908C41.2786 59.5593 41.2629 59.5278 41.2471 59.4806C41.2157 59.3862 41.1999 59.3075 41.1842 59.2131C41.137 59.0084 41.1055 58.8038 41.074 58.5992C41.074 58.5363 41.074 58.6307 41.074 58.6307C41.074 58.5992 41.074 58.5678 41.074 58.5363C41.074 58.4733 41.074 58.4104 41.0583 58.3474C41.0583 58.2215 41.0268 58.0956 41.0268 57.9697C41.0111 57.7179 40.9953 57.4818 40.9953 57.23C40.9953 56.7263 41.0111 56.2227 41.074 55.7348C41.1055 55.42 40.775 55.1367 40.4759 55.1367C40.1297 55.1367 39.9251 55.4043 39.8779 55.7348C39.7677 56.6949 39.7834 57.6549 39.9094 58.615C40.0353 59.575 40.1769 60.6295 41.1527 61.0387C41.5777 61.2119 42.0498 61.2591 42.4905 61.2748C42.9154 61.2906 43.3561 61.2748 43.7653 61.1332C44.1903 60.9915 44.5838 60.7554 44.8671 60.3935C45.1504 60.0315 45.3392 59.6223 45.4494 59.1973C45.591 58.6937 45.654 58.1586 45.7169 57.6392C45.7799 57.0883 45.8271 56.5532 45.8429 56.0024C45.8429 55.6876 45.5596 55.4043 45.2448 55.4043C44.9143 55.4043 44.6624 55.6561 44.6467 56.0024H44.631Z" fill="#231F20"/>
<path d="M34.4956 59.1347C34.4956 59.2449 34.4956 59.355 34.5271 59.4809C34.5271 59.5596 34.5586 59.6383 34.5743 59.717C34.6058 59.8272 34.653 59.9374 34.7002 60.0318C34.7317 60.1105 34.7789 60.1734 34.8261 60.2521C34.8576 60.2993 34.8891 60.3308 34.9206 60.3623C34.952 60.3938 34.9992 60.4253 35.0622 60.4253C35.1094 60.441 35.1724 60.441 35.2196 60.4253C35.2668 60.4253 35.314 60.4095 35.3612 60.378C35.4399 60.3308 35.5186 60.2364 35.5344 60.142C35.5501 60.0475 35.5501 59.9216 35.4871 59.8429C35.4242 59.7642 35.377 59.6698 35.3455 59.5754L35.3927 59.6698C35.3298 59.5439 35.2983 59.4022 35.2825 59.2606V59.3708C35.2825 59.3708 35.2825 59.2134 35.2825 59.1347C35.2825 59.0875 35.2825 59.0245 35.2511 58.9773C35.2353 58.9301 35.2038 58.8829 35.1724 58.8514C35.1409 58.8199 35.0937 58.7884 35.0465 58.7727C34.9992 58.7412 34.952 58.7412 34.8891 58.7412C34.7946 58.7412 34.6845 58.7727 34.6058 58.8514C34.5271 58.9301 34.4956 59.0245 34.4956 59.1347Z" fill="#231F20"/>
<path d="M35.8019 59.5123L35.9436 60.2993C35.9436 60.2993 35.975 60.3937 36.0065 60.4409C36.038 60.4881 36.0695 60.5196 36.1167 60.5353C36.1639 60.5668 36.2111 60.5826 36.2583 60.5826C36.3056 60.5826 36.3685 60.5826 36.4157 60.5826L36.5102 60.5353C36.5102 60.5353 36.6203 60.4566 36.6518 60.3937L36.699 60.2993C36.699 60.2993 36.7148 60.1576 36.699 60.0946L36.5574 59.3077C36.5574 59.3077 36.5259 59.2133 36.4944 59.1661C36.4629 59.1188 36.4315 59.0874 36.3842 59.0716C36.337 59.0402 36.2898 59.0244 36.2426 59.0244C36.1954 59.0244 36.1324 59.0244 36.0852 59.0244L35.9908 59.0716C35.9908 59.0716 35.8806 59.1503 35.8491 59.2133L35.8019 59.3077C35.8019 59.3077 35.7862 59.4494 35.8019 59.5123Z" fill="#231F20"/>
<path d="M41.6881 59.0401C41.6566 59.1503 41.6409 59.2604 41.6409 59.3706C41.6409 59.4493 41.6409 59.528 41.6409 59.6224C41.6409 59.7326 41.6723 59.8428 41.7038 59.9529C41.7353 60.0631 41.7825 60.1733 41.8297 60.2677C41.8612 60.3149 41.8927 60.3464 41.9242 60.3779C41.9556 60.4094 42.0029 60.4408 42.0658 60.4408C42.113 60.4566 42.176 60.4566 42.2232 60.4408C42.2704 60.4408 42.3176 60.4251 42.3649 60.3936C42.4435 60.3464 42.5222 60.252 42.538 60.1575V60.0474C42.538 60.0474 42.538 59.9057 42.4908 59.8428C42.4908 59.827 42.475 59.8113 42.4593 59.7798L42.5065 59.8742C42.4593 59.7641 42.4278 59.6539 42.4121 59.528V59.6382C42.4121 59.5122 42.4121 59.4021 42.4121 59.2762V59.3863C42.4121 59.3863 42.4121 59.2762 42.4278 59.229C42.4435 59.1817 42.4435 59.1188 42.4278 59.0716C42.4278 59.0243 42.4121 58.9771 42.3806 58.9299C42.3491 58.8827 42.3176 58.8512 42.2862 58.8197C42.2547 58.7883 42.2075 58.7568 42.1445 58.7568C42.0501 58.7411 41.9242 58.7411 41.8455 58.804C41.7668 58.867 41.6881 58.9457 41.6723 59.0401H41.6881Z" fill="#231F20"/>
<path d="M42.9784 59.3708C42.9784 59.3708 42.9941 59.4653 43.0098 59.4967V59.3866C43.0098 59.5125 43.0098 59.6384 43.0098 59.7486V59.6384C43.0098 59.7643 42.9784 59.8745 42.9311 59.9846L42.9784 59.8902C42.9784 59.8902 42.9626 59.9374 42.9469 59.9532C42.9154 60.0004 42.8997 60.0476 42.8997 60.0948C42.8997 60.142 42.8997 60.205 42.8997 60.2522C42.8997 60.2994 42.9311 60.3466 42.9626 60.3938C42.9941 60.4411 43.0256 60.4725 43.0728 60.4883C43.1672 60.5355 43.2774 60.567 43.3718 60.5355C43.4663 60.504 43.5607 60.4411 43.6079 60.3624C43.6551 60.2679 43.7023 60.1578 43.7338 60.0476C43.7653 59.9374 43.781 59.8272 43.7968 59.7171C43.7968 59.6384 43.7968 59.5597 43.7968 59.481C43.7968 59.3708 43.781 59.2607 43.7495 59.1505C43.7495 59.1033 43.7181 59.0561 43.6866 59.0088C43.6551 58.9616 43.6236 58.9301 43.5764 58.9144C43.5292 58.8829 43.482 58.8672 43.4348 58.8672C43.3876 58.8672 43.3246 58.8672 43.2774 58.8672C43.183 58.8987 43.0885 58.9616 43.0413 59.0403L42.9941 59.1347C42.9941 59.1347 42.9784 59.2764 42.9941 59.3393L42.9784 59.3708Z" fill="#231F20"/>
<path d="M28.027 50.6513C27.6808 53.5157 27.8854 56.6792 30.0101 58.8669C30.5138 59.3863 31.1118 59.827 31.7886 60.1103C32.0876 60.2362 32.4181 60.2047 32.5913 59.9057C32.7329 59.6539 32.67 59.2289 32.3867 59.103C31.3164 58.6466 30.5452 57.8754 29.9944 56.8681C29.3806 55.7664 29.113 54.4601 29.0815 53.1538C29.0658 52.3196 29.1287 51.4854 29.2232 50.6513C29.2547 50.3365 28.9241 50.0532 28.6251 50.0532C28.2789 50.0532 28.0743 50.3208 28.027 50.6513Z" fill="#231F20"/>
<path d="M46.7403 60.0001C48.2355 59.764 49.4159 58.7095 49.9825 57.3402C50.25 56.6792 50.4074 55.9867 50.5019 55.2784C50.612 54.523 50.675 53.7675 50.6278 53.0121C50.5648 52.1307 50.3602 51.2808 49.951 50.5096C49.7936 50.2263 49.4159 50.1476 49.1483 50.305C48.865 50.4781 48.7863 50.8244 48.9437 51.1077C49.5418 52.2251 49.5575 53.5472 49.4002 54.8063C49.2585 55.9552 48.9752 57.2615 48.1253 58.0799C47.6689 58.5206 47.1023 58.7724 46.4413 58.8669C46.1265 58.9141 45.9534 59.3076 46.0321 59.5909C46.1265 59.9214 46.4413 60.0473 46.7561 60.0001H46.7403Z" fill="#231F20"/>
<mask id="mask1_188_1823" style="mask-type:luminance" maskUnits="userSpaceOnUse" x="18" y="10" width="44" height="46">
<path d="M21.2439 17.8203C21.2439 19.9765 21.6059 22.1485 22.2827 24.1945C22.4873 24.8083 22.7233 25.4221 22.7706 26.0674C22.8178 26.7127 22.6919 27.3422 22.5502 27.9718C21.5902 32.2999 20.1422 36.5179 18.2693 40.5313C19.3395 40.61 20.4255 40.2952 21.3069 39.6971C20.8662 41.1451 20.8977 42.7347 21.3698 44.1827C21.4485 44.4502 21.6374 44.7493 21.9049 44.7178C22.0781 44.7021 22.1882 44.5447 22.2827 44.403C22.6761 43.8207 22.9752 43.1754 23.1798 42.4986C23.8251 43.9466 23.888 45.851 24.1398 47.4249C24.2028 47.7869 24.5018 48.2748 24.8166 48.0544C24.9268 47.9757 24.9582 47.8183 24.9897 47.6924C25.1943 46.6222 25.3989 45.5677 25.6193 44.4975C26.1544 45.3631 26.4534 46.3861 27.0515 47.2203C27.9958 48.5423 29.6012 49.2348 31.1751 49.6598C34.6691 50.6198 36.5734 50.9189 38.3991 54.287C38.5408 54.5545 38.6982 54.8536 38.95 55.0267C39.8786 55.6405 42.2236 50.9976 43.0893 50.2421C44.4428 49.0302 46.3315 48.9043 48.047 48.4794C49.7153 48.0702 51.5095 47.1258 51.8872 45.4418C52.0131 45.8982 52.139 46.3546 52.265 46.8111C53.9962 45.9612 55.3025 44.3086 55.7117 42.42C55.9793 43.3958 56.5144 44.403 57.3014 45.0483C57.7893 43.3958 58.104 41.7432 57.6319 40.0277C58.466 40.248 61.2518 41.7274 61.1731 39.5712C61.1731 39.225 60.9685 38.9102 60.7954 38.5954C59.2372 35.7152 59.7094 32.0796 58.167 29.1994C57.4902 27.9246 56.3885 26.6497 56.6718 25.2333C56.7505 24.8555 56.9236 24.5093 57.081 24.1473C58.2299 21.4245 57.742 18.3082 57.1912 15.3965C56.8292 13.5551 56.1367 11.3674 54.311 10.9425C54.1379 10.8953 50.5337 15.8844 50.093 16.3723C48.2673 18.3554 48.2201 18.8276 45.5917 17.7731C45.0409 17.5527 44.4271 17.4898 43.829 17.4583C40.1776 17.2065 36.4475 17.3481 32.9221 18.3397C30.1678 19.1109 27.7755 17.0019 26.4062 14.7355C25.5878 13.3662 24.8953 11.9025 23.888 10.6592C21.9049 12.2803 21.2124 15.3651 21.2282 17.836L21.2439 17.8203Z" fill="white"/>
</mask>
<g mask="url(#mask1_188_1823)">
<path d="M21.2437 17.8203C21.2437 19.9765 21.6057 22.1485 22.2824 24.1945C22.487 24.8083 22.7231 25.4221 22.7703 26.0674C22.8175 26.7127 22.6916 27.3422 22.55 27.9718C21.5899 32.2999 20.142 36.5179 18.269 40.5313C19.3393 40.61 20.4253 40.2952 21.3066 39.6971C20.8659 41.1451 20.8974 42.7347 21.3696 44.1827C21.4483 44.4502 21.6371 44.7493 21.9047 44.7178C22.0778 44.7021 22.188 44.5447 22.2824 44.403C22.6759 43.8207 22.9749 43.1754 23.1795 42.4986C23.8248 43.9466 23.8878 45.851 24.1396 47.4249C24.2025 47.7869 24.5016 48.2748 24.8164 48.0544C24.9265 47.9757 24.958 47.8183 24.9895 47.6924C25.1941 46.6222 25.3987 45.5677 25.619 44.4975C26.1542 45.3631 26.4532 46.3861 27.0513 47.2203C27.9956 48.5423 29.6009 49.2348 31.1748 49.6598C34.6688 50.6198 36.5732 50.9189 38.3989 54.287C38.5405 54.5545 38.6979 54.8536 38.9497 55.0267C39.8783 55.6405 42.2234 50.9976 43.089 50.2421C44.4426 49.0302 46.3312 48.9043 48.0467 48.4794C49.715 48.0702 51.5093 47.1258 51.887 45.4418C52.0129 45.8982 52.1388 46.3546 52.2647 46.8111C53.996 45.9612 55.3023 44.3086 55.7115 42.42C55.9791 43.3958 56.5142 44.403 57.3011 45.0483C57.789 43.3958 58.1038 41.7432 57.6316 40.0277C58.4658 40.248 61.2515 41.7274 61.1728 39.5712C61.1728 39.225 60.9682 38.9102 60.7951 38.5954C59.237 35.7152 59.7091 32.0796 58.1667 29.1994C57.49 27.9246 56.3883 26.6497 56.6716 25.2333C56.7502 24.8555 56.9234 24.5093 57.0808 24.1473C58.2297 21.4245 57.7418 18.3082 57.1909 15.3965C56.8289 13.5551 56.1364 11.3674 54.3107 10.9425C54.1376 10.8953 50.5334 15.8844 50.0928 16.3723C48.2671 18.3554 48.2199 18.8276 45.5915 17.7731C45.0406 17.5527 44.4268 17.4898 43.8288 17.4583C40.1774 17.2065 36.4473 17.3481 32.9218 18.3397C30.1675 19.1109 27.7752 17.0019 26.406 14.7355C25.5876 13.3662 24.8951 11.9025 23.8878 10.6592C21.9047 12.2803 21.2122 15.3651 21.2279 17.836L21.2437 17.8203Z" fill="#C0B9AC"/>
<path d="M45.0881 41.1606C45.6232 40.5153 45.9852 39.7284 46.1111 38.8155C46.3157 37.2417 45.6862 35.5734 44.5057 34.5031C43.9392 33.9995 43.2781 33.6375 42.5856 33.3385C40.7914 32.5987 38.7611 32.4099 36.9197 33.0079C33.9136 33.9837 31.3167 37.9184 33.3312 40.8616C35.6291 44.2139 42.4597 44.3241 45.1038 41.1449L45.0881 41.1606Z" fill="white"/>
<path d="M36.5104 15.9313L37.077 22.4314C37.1399 23.2498 37.7537 24.0525 38.6508 24.0053C39.4378 23.9738 40.3034 23.3128 40.2247 22.4314L39.6581 15.9313C39.5952 15.1129 38.9813 14.3102 38.0842 14.3575C37.2973 14.3889 36.4317 15.05 36.5104 15.9313Z" fill="#5C564D"/>
<path d="M31.8989 16.9862C32.072 18.5444 32.3238 20.1025 32.7016 21.6292C32.9062 22.4318 33.8347 22.9827 34.6374 22.7309C35.4401 22.4791 35.9595 21.6449 35.7391 20.795C35.4558 19.6933 35.2512 18.5758 35.0938 17.4584L35.1568 17.8833C35.1253 17.5843 35.0781 17.301 35.0466 17.002C34.9994 16.577 34.905 16.1993 34.5902 15.8845C34.3226 15.617 33.8662 15.4124 33.4728 15.4281C33.0793 15.4438 32.6386 15.5855 32.3553 15.8845C32.0877 16.1678 31.8517 16.5928 31.8989 17.002V16.9862Z" fill="#5C564D"/>
<path d="M41.5945 16.5299C41.5316 17.8362 41.563 19.1582 41.563 20.4645C41.563 21.283 42.287 22.0699 43.1369 22.0384C43.9868 22.0069 44.7108 21.3459 44.7108 20.4645C44.7108 19.1582 44.6793 17.8362 44.7423 16.5299C44.7737 15.7115 43.9868 14.9245 43.1684 14.956C42.287 15.0032 41.6417 15.6485 41.5945 16.5299Z" fill="#5C564D"/>
<path d="M20.5829 34.0314C21.2912 33.5278 22.0624 33.0871 22.8651 32.7566L22.4873 32.914C23.1798 32.6307 23.8881 32.4103 24.6121 32.253C25.4147 32.0798 25.9656 31.0883 25.7138 30.3171C25.4305 29.4672 24.6435 29.0422 23.7779 29.2154C22.0781 29.5774 20.4098 30.3013 18.9933 31.3244C18.6471 31.5762 18.3795 31.8437 18.2693 32.2687C18.1592 32.6464 18.2064 33.1501 18.4267 33.4806C18.6471 33.8111 18.9618 34.1101 19.3711 34.2046C19.7803 34.299 20.2367 34.2832 20.5829 34.0472V34.0314Z" fill="#5C564D"/>
<path d="M55.2394 31.812C55.6014 31.8277 55.9634 31.8749 56.3254 31.9221L55.9005 31.8592C56.6402 31.9536 57.3642 32.111 58.0882 32.3156C58.4344 32.41 58.7807 32.5202 59.1269 32.6461C59.3 32.7091 59.4732 32.772 59.6306 32.835C59.9611 32.9609 59.3 32.6776 59.6306 32.835C59.725 32.8822 59.8194 32.9137 59.8981 32.9609C60.2916 33.134 60.6693 33.2442 61.11 33.1183C61.472 33.0238 61.8655 32.7405 62.0543 32.3943C62.4163 31.7018 62.2904 30.6001 61.4877 30.2381C59.4889 29.3252 57.4114 28.7901 55.2237 28.6485C54.4053 28.6013 53.6184 29.4039 53.6498 30.2223C53.6971 31.1195 54.3423 31.7333 55.2237 31.7962L55.2394 31.812Z" fill="#5C564D"/>
</g>
<path d="M30.0579 19.9453C35.6294 17.6631 41.9249 17.4743 47.6381 19.4416C48.3621 19.6934 48.6611 18.5445 47.9528 18.3084C42.0823 16.2781 35.5035 16.4513 29.7589 18.8121C29.4598 18.938 29.2552 19.2055 29.3497 19.5361C29.4284 19.8194 29.7746 20.0712 30.0736 19.9453H30.0579Z" fill="#231F20"/>
<path d="M55.0504 15.8843C55.0504 15.8843 55.0189 15.8371 55.0189 15.8213C54.7199 15.3334 54.1848 14.9557 53.6024 14.9872C53.1145 16.9545 51.698 18.9219 50.6121 20.6059C50.9111 20.8892 51.4147 20.6846 51.7767 20.4957C52.1387 20.3069 52.6896 20.1652 52.9257 20.5272C53.2247 21.0151 52.485 21.6289 52.7053 22.1483C52.7683 22.3057 52.9099 22.4001 53.0358 22.5103C55.5855 24.3989 55.6327 19.0163 55.4753 17.4739C55.4281 16.923 55.3179 16.3722 55.0346 15.9L55.0504 15.8843Z" fill="white"/>
<path d="M27.4606 19.4889C26.8783 18.6705 26.1228 17.9465 25.4461 17.1911C21.6373 12.9574 23.4158 21.2202 23.825 22.8098C23.9666 23.3607 24.2342 24.0217 24.8008 24.0846C25.0368 24.1161 25.2572 24.0374 25.4618 23.9273C25.9182 23.6912 26.3117 23.282 26.4219 22.7783C26.5792 22.0701 25.9025 21.3933 25.5877 20.7952C25.9654 20.4805 26.3274 20.5119 26.7996 20.5749C27.2403 20.6379 27.8226 20.5749 27.9485 20.1657C27.8069 19.9768 27.6337 19.7407 27.4449 19.4732L27.4606 19.4889Z" fill="white"/>
<path d="M22.739 25.9105C21.6373 27.4057 21.0235 29.1841 20.5986 30.9784C20.1736 32.7726 19.9375 34.4723 19.3709 36.1564C19.0404 37.1165 18.5997 38.0136 18.0174 38.832C17.8286 39.0838 17.9702 39.493 18.222 39.6347C18.5211 39.8078 18.8358 39.6819 19.0247 39.4301C21.1809 36.424 21.1179 32.6152 22.3141 29.2314C22.6603 28.2555 23.1325 27.3427 23.7463 26.5243C23.9352 26.2725 23.7935 25.8633 23.5417 25.7216C23.2427 25.5485 22.9279 25.6744 22.739 25.9262V25.9105Z" fill="#231F20"/>
<path d="M55.9634 26.5085C57.1123 28.0667 57.8206 29.8609 58.3085 31.7181C58.7491 33.3864 58.8278 35.1176 59.2843 36.7859C59.5518 37.7775 59.961 38.6746 60.5906 39.493C60.7794 39.7448 61.2201 39.6976 61.4247 39.493C61.6765 39.2412 61.6136 38.9107 61.4247 38.6589C60.4174 37.3525 60.1971 35.5898 59.961 34.0002C59.6935 32.206 59.2843 30.459 58.5918 28.7907C58.1668 27.7676 57.6632 26.8076 57.0021 25.9262C56.8133 25.6744 56.4985 25.5485 56.1995 25.7216C55.9476 25.8633 55.7903 26.2725 55.9949 26.5243L55.9634 26.5085Z" fill="#231F20"/>
<path d="M23.3843 10.4705C24.5647 13.0201 26.2172 15.3652 28.2318 17.3483C28.7984 17.8992 29.3807 18.4185 29.9945 18.9064C30.2463 19.111 30.5926 19.1425 30.8287 18.9064C31.0333 18.7018 31.0805 18.2769 30.8287 18.0723C28.6882 16.3568 26.894 14.295 25.4932 11.9499C25.0998 11.2731 24.722 10.5806 24.3915 9.8724C24.2499 9.5891 23.8407 9.5104 23.5889 9.66779C23.2898 9.84092 23.2426 10.1872 23.3843 10.4705Z" fill="#231F20"/>
<path d="M54.0116 9.8724C52.6109 12.2017 51.2416 14.5153 49.2742 16.3882C48.7077 16.9234 48.1883 17.3483 47.5587 17.7732C47.2912 17.9464 47.181 18.2926 47.3541 18.5759C47.5115 18.8435 47.8892 18.9694 48.1568 18.7805C50.5333 17.1909 52.2803 14.8931 53.7913 12.5008C54.2162 11.824 54.6254 11.1472 55.0346 10.4547C55.192 10.1872 55.0976 9.80944 54.83 9.65206C54.5625 9.49467 54.1847 9.5891 54.0273 9.85666L54.0116 9.8724Z" fill="#231F20"/>
<path d="M21.3379 10.3133C21.3694 11.2891 21.6841 12.2806 22.2665 13.0833C22.298 13.1463 22.3609 13.2092 22.4239 13.2564C22.4868 13.3037 22.5498 13.3509 22.6285 13.3666C22.7701 13.3981 22.959 13.3823 23.0849 13.3037C23.2108 13.225 23.321 13.099 23.3524 12.9574C23.3839 12.8157 23.3839 12.6269 23.2895 12.501C23.0849 12.2177 22.9118 11.9186 22.7859 11.6039L22.8488 11.7455C22.6914 11.3835 22.597 11.0215 22.5498 10.6281V10.7855C22.5498 10.6281 22.5498 10.4864 22.534 10.329C22.5183 10.1716 22.4711 10.0143 22.3609 9.90408C22.2507 9.79391 22.0934 9.73096 21.936 9.73096C21.7786 9.73096 21.6212 9.79391 21.511 9.90408C21.4008 10.0143 21.3379 10.1559 21.3379 10.329V10.3133Z" fill="#231F20"/>
<path d="M21.212 14.4051C19.9214 18.3241 20.2362 22.668 21.999 26.3823C22.1406 26.6656 22.5498 26.7443 22.8016 26.5869C23.1007 26.4138 23.1479 26.0675 23.0062 25.7842C21.3851 22.3532 21.1648 18.3241 22.3452 14.7199C22.5813 13.9959 21.4481 13.6812 21.212 14.4051Z" fill="#231F20"/>
<path d="M56.0267 10.612C56.0267 10.612 55.9795 10.7222 55.9638 10.7851L56.0267 10.6435C55.8536 11.0369 55.6333 11.4147 55.3815 11.7609L55.4759 11.635C55.287 11.8868 55.0667 12.1229 54.8306 12.3275C54.7204 12.422 54.6575 12.6108 54.6575 12.7525C54.6575 12.8941 54.7204 13.0672 54.8306 13.1774C54.9408 13.2876 55.0982 13.3505 55.2555 13.3505H55.4129C55.5074 13.3033 55.6018 13.2561 55.6805 13.1774C55.9323 12.9571 56.1684 12.7053 56.373 12.422C56.5776 12.1387 56.7665 11.8711 56.9238 11.5563C57.0183 11.3517 57.1127 11.1471 57.1914 10.9425C57.2229 10.8638 57.2229 10.7851 57.1914 10.7064C57.1914 10.6277 57.1599 10.549 57.1285 10.4861C57.0498 10.3602 56.9238 10.25 56.7822 10.2185C56.6248 10.1871 56.4674 10.1871 56.3258 10.2815L56.1999 10.3759C56.1999 10.3759 56.074 10.5333 56.0425 10.6435L56.0267 10.612Z" fill="#231F20"/>
<path d="M56.2783 13.3825C57.8994 17.3172 57.7263 21.8971 55.7432 25.6744C55.397 26.3512 56.4043 26.9493 56.7662 26.2725C58.891 22.2434 59.1585 17.3014 57.4115 13.0677C57.2856 12.7687 57.0181 12.5641 56.6876 12.6585C56.4043 12.7372 56.1524 13.0834 56.2783 13.3825Z" fill="#231F20"/>
<path d="M23.4788 15.3496C24.4861 17.4429 25.8554 19.3473 27.4922 20.9841L27.9172 19.9768C26.9414 19.9768 25.9656 19.9296 24.9898 19.8824C24.5648 19.8667 24.2343 20.4018 24.4861 20.7638C24.9425 21.4091 25.399 22.0543 25.8554 22.7154C26.0285 22.9672 26.3748 23.1088 26.6581 22.92C26.9099 22.7626 27.0515 22.3849 26.8627 22.1173C26.4062 21.472 25.9498 20.8267 25.4934 20.1657L24.9898 21.0471C25.9656 21.0943 26.9414 21.1258 27.9172 21.1415C28.4365 21.1415 28.6884 20.4962 28.3421 20.1342C26.7525 18.5603 25.5091 16.7819 24.5176 14.7358C24.376 14.4525 23.9667 14.3581 23.7149 14.5312C23.4316 14.7201 23.3529 15.0349 23.5103 15.3339L23.4788 15.3496Z" fill="#231F20"/>
<path d="M53.304 14.9564C53.1151 15.46 52.942 15.8535 52.6902 16.3571C52.4384 16.8608 52.1708 17.3329 51.8718 17.7894C51.7301 18.0097 51.5727 18.2458 51.4153 18.4661C51.258 18.6865 51.1163 18.8596 50.9747 19.0485C50.6284 19.4734 50.2664 19.8826 49.8729 20.2761C49.6998 20.4492 49.6526 20.701 49.747 20.9214C49.8257 21.126 50.0618 21.2991 50.2822 21.2834C51.1006 21.2047 51.9032 21.1417 52.7217 21.063C52.8003 21.063 52.8948 21.063 52.9892 21.0473H53.0364C52.9105 20.9214 52.7846 20.7955 52.6587 20.6538L52.6744 20.5594C52.6744 20.5751 52.5643 20.7955 52.5328 20.8427C52.4856 20.9214 52.4541 21.0001 52.4069 21.0945C52.218 21.4565 52.0291 21.8028 51.8088 22.149C51.6514 22.4166 51.7459 22.81 52.0134 22.9517C52.281 23.0933 52.643 23.0146 52.8161 22.7471C53.0679 22.3379 53.304 21.9129 53.5243 21.4722C53.6502 21.2204 53.8076 20.9686 53.8076 20.6853C53.8234 20.3233 53.603 20.0085 53.2568 19.8984C53.0364 19.8354 52.7846 19.8826 52.5485 19.8984L51.7931 19.9613C51.2737 20.0085 50.7701 20.0558 50.2507 20.103L50.6756 21.1102C52.3124 19.4419 53.5715 17.4589 54.39 15.2712C54.5001 14.9879 54.2641 14.6101 53.9808 14.5472C53.6502 14.4685 53.3669 14.6574 53.2568 14.9564H53.304Z" fill="#231F20"/>
<path d="M18.8043 41.5863C20.0949 41.2401 21.2753 40.5948 22.2669 39.6977L21.3383 39.5718C21.3383 39.5718 21.3698 39.619 21.3383 39.5403C21.3383 39.5718 21.3383 39.5875 21.354 39.619C21.354 39.5245 21.354 39.5088 21.354 39.5718C21.354 39.6032 21.354 39.619 21.354 39.6505C21.354 39.556 21.354 39.5403 21.354 39.619C21.354 39.6505 21.354 39.6662 21.3383 39.6977C21.3383 39.7291 21.3225 39.7449 21.3068 39.7764C21.2753 39.8393 21.2911 39.8236 21.3068 39.7606C21.3068 39.8551 21.1966 39.981 21.1337 40.0754C21.0707 40.1698 21.0078 40.2643 20.9605 40.3744C20.7087 40.7994 20.5356 41.2715 20.4254 41.7594C20.2051 42.7352 20.2366 43.774 20.5828 44.7026C20.693 44.9859 20.992 45.222 21.3068 45.1118C21.5901 45.0174 21.8262 44.7026 21.716 44.3878C21.653 44.2147 21.6058 44.0416 21.5586 43.8684C21.5429 43.7897 21.5271 43.6953 21.5114 43.6166C21.5114 43.5694 21.5114 43.5064 21.4799 43.475C21.4799 43.475 21.4799 43.5851 21.4799 43.5222C21.4799 43.4907 21.4799 43.4592 21.4799 43.4435C21.4642 43.2704 21.4484 43.0815 21.4642 42.9084C21.4642 42.8297 21.4642 42.7352 21.4642 42.6566C21.4642 42.6093 21.4642 42.5779 21.4642 42.5306C21.4642 42.5149 21.4642 42.4834 21.4642 42.4677C21.4642 42.452 21.4642 42.3575 21.4642 42.4362C21.4642 42.5149 21.4642 42.389 21.4642 42.3575C21.4642 42.3103 21.4642 42.2788 21.4799 42.2316C21.4957 42.1372 21.5114 42.0427 21.5429 41.964C21.5901 41.7909 21.653 41.6021 21.716 41.4289C21.716 41.4132 21.7317 41.3817 21.7475 41.366C21.779 41.303 21.7475 41.4132 21.7317 41.4132C21.7317 41.4132 21.779 41.3188 21.779 41.303C21.8262 41.2243 21.8577 41.1299 21.9049 41.0512C21.9993 40.8938 22.0937 40.7364 22.1724 40.579C22.44 40.0911 22.5974 39.5403 22.3141 39.0209C22.1252 38.6747 21.6688 38.6589 21.3855 38.895C21.2753 38.9894 21.1651 39.0839 21.055 39.1783C21.0392 39.194 20.9291 39.2885 21.0392 39.194C21.0235 39.2098 20.992 39.2255 20.9763 39.2412C20.9133 39.2885 20.8504 39.3357 20.8032 39.3672C20.5513 39.5403 20.2995 39.6977 20.032 39.8393C19.906 39.9023 19.7644 39.981 19.6385 40.0439C19.5755 40.0754 19.4968 40.1069 19.4339 40.1384C19.5598 40.0911 19.3552 40.1698 19.4339 40.1384C19.4024 40.1384 19.3709 40.1698 19.3237 40.1856C19.0404 40.2957 18.7571 40.3902 18.4581 40.4689C18.159 40.5476 17.9544 40.8938 18.0489 41.1929C18.1433 41.4919 18.4581 41.6965 18.7729 41.6021L18.8043 41.5863Z" fill="#231F20"/>
<path d="M23.1009 40.8621C22.676 43.5219 23.038 46.2762 24.2184 48.7C24.4702 49.2036 25.1312 48.9832 25.3044 48.5583C25.8395 47.1733 26.2802 45.7568 26.6264 44.3246L25.4617 44.1672C25.446 45.9142 26.3274 47.614 27.6809 48.7C29.2233 49.9118 31.1119 50.2896 32.9691 50.7145C34.0236 50.9506 35.0781 51.2496 36.0224 51.8005C36.6835 52.1782 37.2815 51.1552 36.6205 50.7775C34.5745 49.5971 32.1822 49.5498 30.0102 48.7C28.1216 47.9602 26.5949 46.2919 26.6264 44.1829C26.6264 43.5219 25.6191 43.3645 25.4617 44.0255C25.1155 45.4735 24.6905 46.8743 24.1397 48.2593L25.2257 48.1176C24.1869 45.9929 23.8564 43.5219 24.2184 41.1926C24.2656 40.8778 24.1397 40.563 23.8092 40.4686C23.5259 40.3899 23.1324 40.563 23.0852 40.8778L23.1009 40.8621Z" fill="#231F20"/>
<path d="M36.825 43.1912C38.0211 43.8994 39.4534 44.1198 40.8069 43.868C41.1689 43.805 41.5151 43.6948 41.8456 43.5532C41.9873 43.4902 42.1132 43.4273 42.1919 43.2856C42.2706 43.1597 42.3021 42.9708 42.2549 42.8292C42.2076 42.6875 42.1132 42.5459 41.9873 42.4829C41.8614 42.42 41.6725 42.357 41.5309 42.42C41.1689 42.5774 40.8069 42.6718 40.4134 42.7505C40.3662 42.7505 40.319 42.7505 40.2718 42.7662C40.4449 42.719 40.2875 42.7662 40.2403 42.7662C40.1459 42.7662 40.0357 42.782 39.9413 42.782C39.7524 42.782 39.5635 42.782 39.3747 42.782C39.2802 42.782 39.1701 42.7662 39.0756 42.7505C39.2173 42.7662 38.9497 42.7505 39.0756 42.7505C39.0284 42.7505 38.9969 42.7505 38.9497 42.7348C38.7609 42.7033 38.5562 42.6561 38.3674 42.5931C38.2887 42.5616 38.1943 42.5459 38.1156 42.5144C38.0683 42.4987 38.0211 42.4829 37.9739 42.4672C37.9582 42.4672 37.9267 42.4515 37.911 42.4357C37.9897 42.4672 38.0054 42.4829 37.9424 42.4357C37.7536 42.357 37.5804 42.2626 37.4073 42.1682C37.1398 42.0108 36.7463 42.1052 36.6046 42.3728C36.463 42.6403 36.526 43.0181 36.8092 43.1754L36.825 43.1912Z" fill="#231F20"/>
<path d="M57.3324 40.1068C57.6 40.5317 57.9934 40.878 58.4341 41.0826C58.8748 41.2872 59.3942 41.4131 59.8978 41.3502C60.0552 41.3344 60.2126 41.3187 60.37 41.2715C60.5274 41.2242 60.6848 41.1613 60.8264 41.0983C60.9523 41.0354 61.0625 40.878 61.094 40.7521C61.1254 40.6104 61.1097 40.4216 61.031 40.2957C60.9523 40.1697 60.8264 40.0596 60.6848 40.0281H60.5274C60.4172 40.0124 60.3228 40.0281 60.2283 40.0911C60.2126 40.0911 60.1811 40.1068 60.1654 40.1225L60.307 40.0596C60.1496 40.1225 59.9765 40.1697 59.8034 40.2012H59.9608C59.7719 40.2012 59.5673 40.2012 59.3784 40.1855H59.5358C59.3312 40.1855 59.1424 40.1225 58.9535 40.0438L59.0951 40.1068C58.922 40.0281 58.7646 39.9337 58.6072 39.8235L58.7331 39.9179C58.5915 39.8078 58.4813 39.6976 58.3712 39.5559L58.4656 39.6818C58.4656 39.6818 58.3869 39.5874 58.3554 39.5245C58.2767 39.3985 58.1508 39.2884 58.0092 39.2569C57.8675 39.2254 57.6787 39.2412 57.5527 39.3199C57.4268 39.3985 57.3167 39.5245 57.2852 39.6661C57.2537 39.8078 57.2537 39.9809 57.3481 40.1225L57.3324 40.1068Z" fill="#231F20"/>
<path d="M56.6085 41.6015C56.6085 41.6015 56.6557 41.6959 56.6715 41.7431C56.7187 41.8533 56.6715 41.7589 56.6715 41.7431C56.6715 41.7589 56.6872 41.7903 56.7029 41.8061C56.7344 41.9005 56.7816 42.0107 56.8131 42.1209C56.8446 42.231 56.8761 42.3255 56.8918 42.4356C56.8918 42.4986 56.9233 42.5458 56.9233 42.6088C56.9233 42.6402 56.9233 42.656 56.9233 42.6875C56.939 42.7819 56.9233 42.593 56.9233 42.6875C56.939 42.9078 56.9548 43.1281 56.9548 43.3327C56.9548 43.4429 56.9548 43.5531 56.939 43.6633C56.939 43.7105 56.9233 43.8049 56.939 43.7105C56.939 43.7734 56.9233 43.8364 56.9076 43.9151C56.8603 44.1354 56.7974 44.34 56.7344 44.5446C56.7029 44.6391 56.7187 44.5446 56.7344 44.5289C56.7344 44.5289 56.7029 44.5761 56.7029 44.5918C56.7029 44.6076 56.6085 44.7178 56.6715 44.6548C56.7344 44.5918 56.64 44.6863 56.6243 44.702C56.5928 44.7335 56.5456 44.7335 56.6085 44.7178C56.6715 44.702 56.6085 44.7178 56.5928 44.7178C56.5298 44.7492 56.6557 44.6863 56.6557 44.6863C56.6243 44.6863 56.577 44.6863 56.6557 44.6863C56.7502 44.6863 56.8603 44.6863 56.939 44.765C56.939 44.765 57.002 44.8437 56.9705 44.7964C56.939 44.7335 56.9862 44.8279 56.9705 44.8279C56.939 44.8122 56.9233 44.6863 56.9076 44.6548C56.8289 44.403 56.7344 44.1512 56.6557 43.9151C56.4669 43.3642 56.278 42.8134 56.0891 42.2625C55.9947 41.9635 55.6799 41.7431 55.3652 41.8533C55.0346 41.9635 54.9087 42.2468 54.9559 42.5773C54.9402 42.4199 54.9559 42.6402 54.9559 42.6717C54.9559 42.7347 54.9559 42.7976 54.9559 42.8606C54.9559 42.9708 54.9559 43.0967 54.9402 43.2068C54.9717 43.0494 54.9402 43.2698 54.9245 43.2855C54.9245 43.3485 54.893 43.4114 54.8773 43.4744C54.8458 43.5846 54.8143 43.6947 54.7828 43.8049C54.7828 43.8364 54.6884 44.0252 54.7513 43.8993C54.7199 43.9623 54.7041 44.0252 54.6727 44.0725C54.6254 44.1826 54.5625 44.2771 54.4995 44.3715C54.4366 44.4817 54.3736 44.5761 54.2949 44.6863C54.2949 44.702 54.169 44.8437 54.2477 44.7492C54.2005 44.7964 54.169 44.8594 54.1218 44.9066C53.9487 45.0955 53.7755 45.2843 53.5867 45.4575C53.4922 45.5362 53.4136 45.6149 53.3191 45.6936C53.2719 45.7408 53.2089 45.788 53.1617 45.8195C53.146 45.8195 52.9729 45.9611 53.083 45.8824C52.6738 46.1972 52.2331 46.4805 51.8082 46.7638C51.5564 46.9369 51.4147 47.2989 51.6036 47.5665C51.7767 47.8183 52.1387 47.9599 52.4063 47.7711C53.9015 46.7795 55.4753 45.6778 56.0104 43.8521C56.1678 43.317 56.1836 42.7819 56.1049 42.231L54.9717 42.5458C55.1763 43.1281 55.3652 43.7105 55.5698 44.2771C55.6642 44.5604 55.7586 44.8594 55.8688 45.1427C56.0104 45.5047 56.2937 45.8352 56.7187 45.8352C57.3955 45.8352 57.7889 45.1899 57.962 44.6076C58.1194 44.0725 58.1981 43.4901 58.1666 42.9393C58.1194 42.2625 57.962 41.6172 57.663 41.0034C57.5214 40.7201 57.1122 40.6257 56.8603 40.7988C56.577 40.9877 56.4983 41.3024 56.6557 41.6015H56.6085Z" fill="#231F20"/>
<path d="M51.6041 44.6707C51.73 46.3548 49.6525 47.1574 48.4091 47.724C46.8824 48.4165 45.2456 48.8257 43.7504 49.5497C42.9792 49.9274 42.2395 50.4153 41.6887 51.0921C41.4841 51.3439 41.4526 51.6902 41.6887 51.9263C41.8933 52.1309 42.3182 52.1781 42.5228 51.9263C43.5144 50.7301 45.0568 50.258 46.4732 49.7701C47.3861 49.4553 48.2675 49.0933 49.1488 48.6998C50.0302 48.3064 50.8486 47.9129 51.5568 47.3148C52.3123 46.6853 52.8789 45.7095 52.8002 44.6864C52.7687 44.3717 52.5484 44.0884 52.2021 44.0884C51.9031 44.0884 51.5883 44.3559 51.6041 44.6864V44.6707Z" fill="#231F20"/>
<path d="M32.182 34.1102C33.0339 34.1102 33.7244 33.4196 33.7244 32.5678C33.7244 31.7159 33.0339 31.0254 32.182 31.0254C31.3302 31.0254 30.6396 31.7159 30.6396 32.5678C30.6396 33.4196 31.3302 34.1102 32.182 34.1102Z" fill="#231F20"/>
<path d="M46.8185 34.1102C47.6704 34.1102 48.3609 33.4196 48.3609 32.5678C48.3609 31.7159 47.6704 31.0254 46.8185 31.0254C45.9667 31.0254 45.2761 31.7159 45.2761 32.5678C45.2761 33.4196 45.9667 34.1102 46.8185 34.1102Z" fill="#231F20"/>
<path d="M39.1069 35.1961C39.8719 35.1961 40.4919 34.8085 40.4919 34.3305C40.4919 33.8524 39.8719 33.4648 39.1069 33.4648C38.342 33.4648 37.7219 33.8524 37.7219 34.3305C37.7219 34.8085 38.342 35.1961 39.1069 35.1961Z" fill="#231F20"/>
<path d="M37.0765 37.8246C38.367 37.8718 39.5632 36.6285 39.4058 35.3379L38.6346 35.4481C38.8235 36.1091 39.1068 36.8173 39.6576 37.2738C40.2085 37.7302 40.9954 37.9348 41.6722 37.62C41.861 37.5256 41.924 37.2423 41.8138 37.0849C41.6879 36.896 41.4833 36.8488 41.2787 36.9432C41.2 36.9747 41.3259 36.9432 41.2472 36.9432C41.2158 36.9432 41.1843 36.959 41.1528 36.9747C41.1213 36.9905 41.0898 36.9747 41.0584 36.9905C41.1528 36.9747 41.0584 36.9905 41.0269 36.9905C40.9639 36.9905 40.901 36.9905 40.838 36.9905C40.8065 36.9905 40.8223 36.9905 40.8695 36.9905C40.8538 36.9905 40.838 36.9905 40.8223 36.9905C40.7908 36.9905 40.7593 36.9905 40.7279 36.9747C40.6649 36.959 40.5862 36.9275 40.5233 36.9118C40.5862 36.9432 40.5233 36.9118 40.4918 36.9118C40.4603 36.9118 40.4288 36.8803 40.3973 36.8645C40.3344 36.8331 40.2872 36.8016 40.2242 36.7544C40.1613 36.7072 40.2714 36.8016 40.1927 36.7386C40.1613 36.7229 40.1455 36.6914 40.114 36.6757C40.0668 36.6285 40.0196 36.5813 39.9724 36.5183C39.9567 36.4868 39.9252 36.4711 39.9094 36.4396C39.9567 36.5026 39.8937 36.4081 39.8937 36.4081C39.815 36.298 39.7363 36.172 39.6734 36.0461C39.6419 35.9832 39.6104 35.9202 39.5789 35.8573C39.6104 35.936 39.5789 35.8258 39.5789 35.8101C39.5789 35.7786 39.5474 35.7471 39.5474 35.7156C39.5002 35.574 39.453 35.4166 39.4058 35.2749C39.3428 35.0861 39.1697 34.9602 38.9809 34.9916C38.8077 35.0074 38.6189 35.1805 38.6346 35.3851C38.6346 35.4481 38.6346 35.511 38.6346 35.574C38.6346 35.6054 38.6346 35.6369 38.6346 35.6684C38.6346 35.6684 38.6346 35.7943 38.6346 35.7314C38.6346 35.6684 38.6346 35.7786 38.6346 35.7786C38.6346 35.8101 38.6346 35.8415 38.6189 35.873C38.6189 35.936 38.5874 35.9989 38.5716 36.0461C38.5716 36.0461 38.5244 36.1563 38.5559 36.0933C38.5874 36.0304 38.5244 36.1563 38.5244 36.1563C38.493 36.2193 38.4615 36.2665 38.43 36.3137C38.3985 36.3609 38.367 36.4239 38.3198 36.4711C38.367 36.4239 38.3198 36.4711 38.3041 36.4868C38.2884 36.5183 38.2569 36.534 38.2411 36.5498C38.1939 36.597 38.1467 36.6442 38.1152 36.6757C38.0995 36.6914 38.068 36.7229 38.0523 36.7386C37.9736 36.8016 38.1152 36.6914 38.0365 36.7386C37.9421 36.8173 37.8319 36.8645 37.7218 36.9275C37.6431 36.9747 37.7847 36.9118 37.706 36.9275C37.6745 36.9275 37.6431 36.9432 37.6116 36.959C37.5486 36.9747 37.5014 36.9905 37.4385 37.0062C37.407 37.0062 37.3755 37.0062 37.3283 37.0219C37.2968 37.0219 37.3125 37.0219 37.3598 37.0219C37.3598 37.0219 37.3283 37.0219 37.3125 37.0219C37.2496 37.0219 37.1709 37.0219 37.1079 37.0219C36.9033 37.0219 36.6987 37.2108 36.7145 37.4154C36.7145 37.6357 36.8876 37.7931 37.1079 37.8089L37.0765 37.8246Z" fill="#231F20"/>
</svg>
