<svg width="80" height="76" viewBox="0 0 80 76" fill="none" xmlns="http://www.w3.org/2000/svg">
<path d="M54.9912 53.4534C55.2745 52.4342 55.4161 51.3523 56.0142 50.4899C56.6123 49.6275 57.9186 49.1258 58.737 49.7843C59.9961 49.3296 61.3339 49.1101 62.656 49.1258C64.403 49.1258 63.8993 51.2112 63.9308 52.4029C63.9465 53.4691 63.9623 54.5824 63.616 55.5859C63.2068 56.7775 62.4514 56.9657 61.6172 57.687C60.8775 58.3455 60.3738 59.4745 59.7128 60.2428C59.036 61.0268 58.3121 61.7794 57.415 62.2811C55.7781 63.1749 51.5129 63.3474 50.8676 61.0111C50.4584 59.5685 51.7805 58.518 52.6461 57.5929C53.7478 56.4012 54.5663 54.99 55.0069 53.4377L54.9912 53.4534Z" fill="#F39B4A"/>
<path d="M51.8113 59.4904C53.2592 58.7221 54.0777 57.2011 54.5656 55.6959C55.0535 54.1906 55.2895 52.3561 56.3283 51.0076C56.8005 50.3961 57.4143 49.9257 58.154 49.7532C58.4688 49.6748 58.6419 49.3299 58.5632 49.032C58.4688 48.7184 58.154 48.5459 57.8392 48.6243C56.2339 49.0006 55.1322 50.3804 54.5183 51.8386C53.8416 53.438 53.6842 55.2255 52.8658 56.7464C52.4723 57.4677 51.9529 58.1106 51.2132 58.4869C50.9299 58.628 50.8512 59.02 51.0086 59.2866C51.1817 59.5688 51.528 59.6472 51.8113 59.4904Z" fill="#231F20"/>
<path d="M58.5317 51.4155C58.6891 51.2116 58.8779 51.0235 59.0668 50.851C59.114 50.8039 59.1612 50.7569 59.2085 50.7255C59.2399 50.7099 59.2557 50.6785 59.2872 50.6628C59.2242 50.7099 59.2399 50.7099 59.2872 50.6628C59.3816 50.6001 59.476 50.5374 59.5704 50.4747C59.6806 50.4119 59.7908 50.3335 59.9167 50.2865C59.9797 50.2551 60.0426 50.2238 60.1056 50.1924C60.137 50.1924 60.1685 50.1611 60.2 50.1454C60.137 50.1767 60.137 50.1767 60.2 50.1454C60.4361 50.0513 60.6879 49.9729 60.9397 49.9102C61.0656 49.8788 61.1915 49.8475 61.3017 49.8318C61.3647 49.8318 61.4276 49.8161 61.5063 49.8004C61.5378 49.8004 61.5693 49.8004 61.6007 49.8004C61.5221 49.8004 61.5221 49.8004 61.6007 49.8004C61.8683 49.7691 62.1201 49.7534 62.3877 49.7377C62.9228 49.7064 63.4579 49.722 64.0088 49.7377C64.3235 49.7377 64.6068 49.4712 64.6068 49.1419C64.6068 48.8126 64.355 48.5617 64.0088 48.546C62.246 48.5147 60.3259 48.5461 58.815 49.5809C58.39 49.8632 58.0123 50.2081 57.6975 50.6158C57.6031 50.7412 57.5244 50.8667 57.5244 51.0391C57.5244 51.1803 57.5874 51.3527 57.6975 51.4625C57.9179 51.6507 58.3271 51.7134 58.5317 51.4625V51.4155Z" fill="#231F20"/>
<path d="M50.6154 62.1247C52.1264 63.5672 54.4242 64.0533 56.423 63.4575C56.9739 63.285 57.509 63.0341 57.9812 62.7049C58.233 62.5324 58.3746 62.1874 58.1858 61.9052C58.0284 61.6543 57.6506 61.4975 57.3831 61.7013C57.1942 61.8268 57.0054 61.9522 56.8008 62.0463C56.7063 62.0933 56.6119 62.1404 56.5017 62.1874C56.4388 62.2188 56.5332 62.1874 56.5332 62.1874C56.5017 62.1874 56.4702 62.2031 56.4388 62.2188C56.3758 62.2345 56.3286 62.2658 56.2656 62.2815C56.0453 62.3599 55.8407 62.4069 55.6204 62.454C55.5731 62.454 55.5102 62.4697 55.463 62.4853C55.4315 62.4853 55.4 62.4853 55.3685 62.4853C55.3371 62.4853 55.3056 62.4853 55.2741 62.4853C55.2111 62.4853 55.1482 62.4853 55.0852 62.501C54.8649 62.501 54.6288 62.5167 54.4085 62.501C54.2983 62.501 54.1881 62.501 54.078 62.4697C54.0622 62.4697 54.0307 62.4697 54.015 62.4697C54.1409 62.4697 54.0622 62.4697 54.0307 62.4697C53.9678 62.4697 53.9048 62.454 53.8419 62.4383C53.6215 62.3913 53.4012 62.3442 53.1809 62.2815C53.0707 62.2501 52.9762 62.2188 52.8661 62.1717C52.8189 62.1561 52.7087 62.109 52.8189 62.1561C52.7559 62.1247 52.7087 62.109 52.6457 62.0777C52.4254 61.9679 52.205 61.8425 52.0004 61.717C51.9375 61.6857 51.8903 61.6386 51.8273 61.5916C51.8116 61.5916 51.7958 61.5602 51.7644 61.5445C51.7958 61.5759 51.8273 61.5916 51.7644 61.5445C51.6542 61.4661 51.5598 61.3721 51.4653 61.278C51.245 61.0585 50.8515 61.0428 50.6312 61.278C50.4108 61.5132 50.3951 61.8895 50.6312 62.109L50.6154 62.1247Z" fill="#231F20"/>
<path d="M58.2019 61.2003C58.3907 61.3257 58.5953 61.4512 58.7999 61.5609C59.0517 61.7021 59.3036 61.8118 59.5711 61.9216C59.6498 61.9529 59.7285 61.9529 59.8072 61.9216C59.8859 61.9216 59.9646 61.8902 60.0275 61.8589C60.0905 61.8275 60.1535 61.7648 60.2007 61.7021C60.2479 61.6393 60.2951 61.5766 60.3108 61.4982V61.3414C60.3266 61.2317 60.3108 61.1376 60.2479 61.0435L60.1535 60.9181C60.1535 60.9181 59.9961 60.7926 59.8859 60.7613C59.8859 60.7613 59.9803 60.7926 60.0275 60.8083C59.6026 60.6358 59.1934 60.4006 58.8157 60.1498C58.7527 60.1027 58.674 60.087 58.5953 60.087C58.5166 60.0714 58.4379 60.087 58.3592 60.087C58.2805 60.1027 58.2176 60.1341 58.1546 60.1968C58.0917 60.2438 58.0445 60.2909 57.9972 60.3693C57.9186 60.5104 57.8871 60.6672 57.9343 60.824L57.9972 60.9651C58.0445 61.0592 58.1232 61.1219 58.2019 61.169V61.2003Z" fill="#231F20"/>
<path d="M60.1059 59.9299C60.1059 59.9299 60.1373 59.9299 60.1531 59.9299H59.9957C60.1059 59.9299 60.216 59.9299 60.3262 59.9456H60.1688C60.279 59.9456 60.4049 59.9769 60.5151 60.024L60.3734 59.9613C60.3734 59.9613 60.5151 60.024 60.5938 60.071C60.6567 60.118 60.7354 60.1337 60.8141 60.1337C60.8928 60.1494 60.9715 60.1337 61.0502 60.1337C61.1289 60.118 61.1918 60.0867 61.2548 60.024C61.3177 59.9769 61.365 59.9299 61.4122 59.8515L61.4751 59.7104C61.5066 59.6006 61.5066 59.5065 61.4751 59.3968L61.4122 59.2557C61.365 59.1616 61.2863 59.0989 61.2076 59.0518C61.0974 58.9734 60.9715 58.9264 60.8456 58.8793C60.7669 58.848 60.6882 58.8166 60.6095 58.8009C60.4836 58.7696 60.3419 58.7539 60.216 58.7539C60.0901 58.7539 59.9485 58.7696 59.8226 58.7853C59.7439 58.8009 59.6809 58.8323 59.618 58.895C59.555 58.9421 59.5078 58.9891 59.4606 59.0675C59.4134 59.1302 59.3976 59.2086 59.3976 59.287C59.3819 59.3654 59.3976 59.4438 59.3976 59.5222L59.4606 59.6633C59.5078 59.7574 59.5865 59.8201 59.6652 59.8672L59.8068 59.9299C59.917 59.9613 60.0114 59.9613 60.1216 59.9299H60.1059Z" fill="#231F20"/>
<path d="M61.8217 58.2208C62.5771 57.8601 63.2067 57.2643 63.6316 56.5587C64.1195 55.712 64.2297 54.7712 64.2612 53.8148C64.2926 53.2346 64.3084 52.6701 64.3241 52.09C64.3241 51.7764 64.0408 51.4941 63.7261 51.4941C63.3955 51.4941 63.1437 51.745 63.128 52.09C63.1122 52.5604 63.0965 53.0308 63.065 53.5012C63.065 53.7207 63.0493 53.9559 63.0335 54.1754C63.0335 54.2851 63.0335 54.4106 63.0021 54.5203C63.0021 54.5674 63.0021 54.6301 62.9863 54.6771C62.9863 54.7085 62.9863 54.7242 62.9863 54.7555C62.9863 54.6928 62.9863 54.7085 62.9863 54.7555C62.9549 54.9594 62.9076 55.1789 62.8447 55.3827C62.8289 55.4454 62.7502 55.5709 62.7502 55.6336C62.7502 55.6336 62.7975 55.5239 62.766 55.5866C62.766 55.6022 62.7503 55.6179 62.7345 55.6493C62.7188 55.6963 62.6873 55.7434 62.6716 55.7747C62.5929 55.9315 62.4984 56.0883 62.3883 56.2294C62.3883 56.2451 62.3568 56.2608 62.3568 56.2765C62.3096 56.3392 62.4197 56.1981 62.3568 56.2608C62.3253 56.2922 62.3096 56.3235 62.2781 56.3549C62.2151 56.4176 62.1522 56.496 62.0892 56.5587C62.0263 56.6214 61.9476 56.6998 61.8689 56.7626C61.8531 56.7782 61.743 56.8723 61.7902 56.8253C61.8374 56.7782 61.743 56.8723 61.7115 56.8723C61.5384 56.9978 61.3495 57.0918 61.1606 57.1859C60.8773 57.3113 60.7829 57.7347 60.956 57.9856C61.1449 58.2678 61.4597 58.3305 61.7587 58.1894L61.8217 58.2208Z" fill="#231F20"/>
<path d="M63.1746 51.4788C63.395 51.3063 63.6468 51.1652 63.8986 51.0554L63.757 51.1182C64.0245 51.0084 64.3078 50.93 64.5911 50.8986H64.4337C64.4337 50.8986 64.4967 50.8986 64.5124 50.8986C64.5911 50.8986 64.6698 50.8986 64.7328 50.8516C64.8115 50.8202 64.8744 50.7889 64.9216 50.7262C64.9846 50.6791 65.0161 50.6164 65.0475 50.538C65.079 50.4753 65.0947 50.3969 65.0947 50.3185C65.0947 50.1617 65.0318 50.0049 64.9216 49.8951L64.7957 49.8011C64.7013 49.754 64.6068 49.7227 64.4967 49.7227C64.2134 49.754 63.9301 49.8011 63.6625 49.8951C63.395 49.9892 63.1274 50.099 62.8913 50.2401C62.7812 50.3028 62.6552 50.3812 62.5608 50.4596C62.4979 50.491 62.4349 50.5537 62.3877 50.6164C62.3405 50.6791 62.2933 50.7418 62.2775 50.8202C62.246 50.8986 62.246 50.977 62.2775 51.0554C62.2775 51.1338 62.309 51.2122 62.3405 51.275C62.4192 51.4004 62.5451 51.5102 62.6867 51.5415H62.8441C62.9543 51.5572 63.0487 51.5415 63.1431 51.4788H63.1746Z" fill="#231F20"/>
<mask id="mask0_3865_17281" style="mask-type:luminance" maskUnits="userSpaceOnUse" x="31" y="47" width="22" height="17">
<path d="M36.2778 63.096C34.0429 62.1082 32.2802 60.0698 31.6979 57.7022C31.1155 55.3345 31.7293 52.6847 33.3504 50.8658C35.6011 48.3414 39.2524 47.6828 42.6205 47.3378C43.8009 47.2281 45.0443 47.134 46.146 47.573C47.0431 47.9337 47.7671 48.6236 48.4753 49.2821C49.7344 50.4738 51.0093 51.6968 51.8434 53.2178C53.0553 55.4443 53.1812 58.2353 52.1582 60.5559C51.8749 61.1831 51.5129 61.7946 50.9778 62.2337C50.5214 62.5943 49.9705 62.8295 49.4039 63.002C47.5153 63.5821 45.5007 63.6448 43.5334 63.7076C41.0939 63.786 38.6072 64.1152 36.2936 63.096H36.2778Z" fill="white"/>
</mask>
<g mask="url(#mask0_3865_17281)">
<path d="M36.2778 63.096C34.0429 62.1082 32.2802 60.0698 31.6979 57.7022C31.1155 55.3345 31.7293 52.6847 33.3504 50.8658C35.6011 48.3414 39.2524 47.6828 42.6205 47.3378C43.8009 47.2281 45.0443 47.134 46.146 47.573C47.0431 47.9337 47.7671 48.6236 48.4753 49.2821C49.7344 50.4738 51.0093 51.6968 51.8434 53.2178C53.0553 55.4443 53.1812 58.2353 52.1582 60.5559C51.8749 61.1831 51.5129 61.7946 50.9778 62.2337C50.5214 62.5943 49.9705 62.8295 49.4039 63.002C47.5153 63.5821 45.5007 63.6448 43.5334 63.7076C41.0939 63.786 38.6072 64.1152 36.2936 63.096H36.2778Z" fill="white"/>
<path d="M35.2075 56.0251C34.4678 57.1227 31.4774 59.4433 30.1396 58.3771C28.9907 57.452 29.211 55.0216 29.1323 53.7045C29.0851 52.9676 29.1166 52.1209 29.6989 51.6662C30.2341 51.2585 30.9895 51.3526 31.6505 51.4937C32.2486 51.6034 32.8467 51.7289 33.4448 51.8386C34.1687 51.9798 34.9714 52.1679 35.4121 52.7637C35.7583 53.2341 35.8056 53.877 35.7426 54.4572C35.6797 55.0216 35.538 55.5861 35.2232 56.0408L35.2075 56.0251Z" fill="#F39B4A"/>
<path d="M49.6242 57.9538C49.9075 58.1576 50.2537 58.236 50.6 58.3144C51.1351 58.4242 51.7017 58.5496 52.2525 58.4399C53.0395 58.2831 54.2986 57.0444 54.1412 56.1506C54.031 55.5705 53.4802 55.6018 53.2126 55.1942C52.8821 54.7081 52.945 54.1593 52.8034 53.6262C52.6775 53.1401 52.5044 52.6227 52.1581 52.262C51.8591 51.9484 51.4499 51.776 51.0564 51.6035C49.9547 51.1331 48.9317 51.1958 48.1762 52.2307C47.6253 52.9833 47.5781 54.0182 47.8299 54.9119C48.0818 55.8057 48.6011 56.6053 49.1363 57.3893C49.2779 57.5932 49.4353 57.8127 49.6556 57.9852L49.6242 57.9538Z" fill="#F39B4A"/>
</g>
<path d="M35.4902 59.1436C35.5217 60.1157 35.6161 61.1036 35.8207 62.0443C35.9939 62.8754 36.4031 63.7221 37.2058 64.1141C37.6307 64.3179 38.0714 64.3963 38.5278 64.412C38.9528 64.412 39.4249 64.3806 39.8341 64.2866C40.322 64.1768 40.747 63.8789 40.9831 63.4398C41.1877 63.0635 41.2821 62.6402 41.345 62.2168C41.5182 61.1192 41.5654 60.006 41.4395 58.8927C41.4237 58.7359 41.3923 58.5948 41.2664 58.4694C41.1562 58.3596 40.9988 58.2969 40.8414 58.2969C40.5581 58.2969 40.2119 58.5634 40.2433 58.8927C40.3378 59.7708 40.3378 60.6488 40.2433 61.5269C40.2433 61.5896 40.2433 61.6367 40.2276 61.6994C40.2276 61.7307 40.2276 61.7464 40.2276 61.7778C40.2276 61.668 40.2276 61.8719 40.2276 61.7778C40.2119 61.8876 40.1961 61.9973 40.1804 62.1071C40.1489 62.2795 40.1174 62.4677 40.0702 62.6402C40.0702 62.6872 40.0387 62.7186 40.023 62.7656C40.023 62.7813 40.023 62.797 40.0073 62.8127C39.9915 62.8754 40.0387 62.7499 40.0387 62.7499C40.0073 62.7813 40.0073 62.8283 39.9915 62.8597C39.9758 62.9067 39.9443 62.9381 39.9128 62.9851C39.9128 62.9851 39.8971 63.0165 39.8813 63.0322C39.8813 63.0322 39.96 62.9381 39.9128 62.9851C39.8813 63.0165 39.8499 63.0479 39.8184 63.0792C39.8971 63.0322 39.8184 63.0792 39.8027 63.0792C39.7712 63.0949 39.6925 63.1263 39.6767 63.1419C39.7082 63.0949 39.7712 63.1106 39.7082 63.1419C39.6925 63.1419 39.6767 63.1419 39.6453 63.1576C39.598 63.1576 39.5508 63.189 39.5036 63.189C39.4564 63.189 39.4249 63.2047 39.3777 63.2203C39.3462 63.2203 39.3305 63.2203 39.299 63.2203C39.2203 63.2203 39.299 63.2203 39.3305 63.2203C39.2518 63.2517 39.1416 63.236 39.0629 63.2517C38.9685 63.2517 38.8898 63.2517 38.7954 63.2674C38.6222 63.2674 38.4334 63.2674 38.2603 63.2674C38.2445 63.2674 38.2288 63.2674 38.1973 63.2674C38.1343 63.2674 38.2603 63.2674 38.2603 63.2674C38.213 63.2674 38.1658 63.2674 38.1343 63.2517C38.0399 63.236 37.9455 63.2047 37.8668 63.1733C37.8353 63.1733 37.8038 63.1419 37.7566 63.1419C37.7566 63.1419 37.8825 63.2047 37.7881 63.1419C37.7724 63.1419 37.7566 63.1263 37.7409 63.1106C37.6622 63.0635 37.5835 63.0165 37.5205 62.9695C37.4576 62.9224 37.5992 63.0479 37.552 62.9851C37.552 62.9851 37.5205 62.9538 37.5048 62.9538C37.4733 62.9224 37.4418 62.8911 37.4104 62.8597C37.3789 62.8283 37.3631 62.8127 37.3317 62.7813C37.2687 62.7029 37.3317 62.7656 37.3317 62.7813C37.2845 62.7186 37.253 62.6559 37.2058 62.5775C37.19 62.5461 37.1585 62.4991 37.1428 62.4677C37.1428 62.452 37.1428 62.4363 37.1271 62.4207C37.2058 62.5461 37.1585 62.4834 37.1271 62.4363C37.0641 62.2795 37.0169 62.1071 36.9697 61.9346C36.9225 61.7308 36.891 61.5426 36.8595 61.3388C36.8438 61.2133 36.828 61.1036 36.8123 60.9781C36.8123 60.9624 36.7965 60.8527 36.8123 60.9311C36.828 61.0095 36.8123 60.8997 36.8123 60.884C36.8123 60.8213 36.7965 60.7586 36.7965 60.6959C36.7336 60.1941 36.7021 59.6924 36.6864 59.1749C36.6864 58.8613 36.4188 58.5791 36.0883 58.5791C35.7578 58.5791 35.4902 58.83 35.4902 59.1749V59.1436Z" fill="#231F20"/>
<path d="M47.6559 59.1436C47.6559 59.5984 47.6087 60.0374 47.5614 60.4921C47.5614 60.6019 47.5457 60.6959 47.53 60.8057C47.53 60.8371 47.53 60.8527 47.53 60.8841C47.53 60.9468 47.5142 61.0095 47.4985 61.0723C47.467 61.2604 47.4355 61.4486 47.4041 61.6524C47.3726 61.8249 47.3254 61.9974 47.2781 62.1698C47.2467 62.2482 47.2309 62.3266 47.1995 62.405L47.168 62.4678C47.168 62.4678 47.2152 62.358 47.1837 62.405C47.168 62.4521 47.1365 62.4991 47.1208 62.5305C47.0893 62.5932 47.0421 62.6716 46.9948 62.7343C46.9948 62.75 46.9634 62.7814 46.9476 62.797C46.9476 62.797 47.0263 62.703 46.9791 62.75C46.9476 62.7814 46.9162 62.8284 46.8847 62.8598C46.8532 62.8911 46.8375 62.9068 46.806 62.9382C46.7902 62.9538 46.7745 62.9695 46.743 62.9852C46.6958 63.0322 46.7902 62.9538 46.7902 62.9538C46.7115 62.9852 46.6486 63.0479 46.5699 63.095C46.5542 63.095 46.4125 63.1733 46.5069 63.1263C46.5856 63.0949 46.4597 63.1263 46.444 63.142C46.3653 63.1734 46.2709 63.189 46.1922 63.2047C46.145 63.2047 46.0977 63.2047 46.0663 63.2204C46.0033 63.2204 46.1292 63.2204 46.1292 63.2204H46.0505C45.9561 63.2204 45.8774 63.2204 45.783 63.2204C45.5941 63.2204 45.421 63.2204 45.2321 63.2047C45.1534 63.2047 45.059 63.189 44.9803 63.1734C44.9173 63.1734 45.0432 63.1734 45.0432 63.1734C45.0118 63.1734 44.9803 63.1734 44.9646 63.1734C44.9173 63.1734 44.8544 63.1577 44.8072 63.142C44.7599 63.142 44.7285 63.1263 44.6813 63.1106C44.6498 63.1106 44.634 63.095 44.6026 63.0793C44.5868 63.0793 44.5553 63.0479 44.5396 63.0322C44.5239 63.0322 44.5081 63.0166 44.4924 63.0009C44.4294 62.9695 44.5711 63.0793 44.5239 63.0322C44.4924 63.0009 44.4609 62.9695 44.4294 62.9382C44.3822 62.8754 44.3507 62.797 44.3035 62.7186C44.272 62.6559 44.335 62.7814 44.335 62.7814C44.335 62.7657 44.3193 62.7343 44.3035 62.7186C44.3035 62.6873 44.2878 62.6559 44.272 62.6089C44.2406 62.5148 44.2248 62.4364 44.2091 62.3423C44.1619 62.1385 44.1304 61.9346 44.0989 61.7308C44.0989 61.6681 44.0989 61.7622 44.0989 61.7622C44.0989 61.7308 44.0989 61.6995 44.0989 61.6681C44.0989 61.6054 44.0989 61.5426 44.0832 61.4799C44.0832 61.3545 44.0517 61.2291 44.0517 61.1036C44.036 60.8527 44.0202 60.6175 44.0202 60.3667C44.0202 59.8649 44.036 59.3632 44.0989 58.8771C44.1304 58.5635 43.7999 58.2812 43.5008 58.2812C43.1546 58.2812 42.95 58.5478 42.9028 58.8771C42.7926 59.8336 42.8083 60.79 42.9343 61.7465C43.0602 62.703 43.2018 63.7535 44.1776 64.1612C44.6026 64.3337 45.0747 64.3807 45.5154 64.3964C45.9404 64.4121 46.381 64.3964 46.7902 64.2553C47.2152 64.1141 47.6087 63.8789 47.892 63.5183C48.1753 63.1577 48.3641 62.75 48.4743 62.3266C48.6159 61.8249 48.6789 61.2918 48.7418 60.7743C48.8048 60.2255 48.852 59.6924 48.8678 59.1436C48.8678 58.83 48.5845 58.5478 48.2697 58.5478C47.9392 58.5478 47.6874 58.7987 47.6716 59.1436H47.6559Z" fill="#231F20"/>
<path d="M37.5205 62.2631C37.5205 62.3728 37.5205 62.4826 37.552 62.608C37.552 62.6864 37.5835 62.7648 37.5992 62.8432C37.6307 62.953 37.6779 63.0628 37.7251 63.1568C37.7566 63.2352 37.8038 63.298 37.851 63.3764C37.8825 63.4234 37.914 63.4548 37.9455 63.4861C37.9769 63.5175 38.0241 63.5488 38.0871 63.5488C38.1343 63.5645 38.1973 63.5645 38.2445 63.5488C38.2917 63.5488 38.3389 63.5332 38.3861 63.5018C38.4648 63.4548 38.5435 63.3607 38.5593 63.2666C38.575 63.1725 38.575 63.0471 38.512 62.9687C38.4491 62.8903 38.4019 62.7962 38.3704 62.7021L38.4176 62.7962C38.3547 62.6708 38.3232 62.5296 38.3074 62.3885V62.4983C38.3074 62.4983 38.3074 62.3415 38.3074 62.2631C38.3074 62.216 38.3074 62.1533 38.276 62.1063C38.2602 62.0593 38.2288 62.0122 38.1973 61.9809C38.1658 61.9495 38.1186 61.9181 38.0714 61.9025C38.0241 61.8711 37.9769 61.8711 37.914 61.8711C37.8195 61.8711 37.7094 61.9025 37.6307 61.9809C37.552 62.0593 37.5205 62.1533 37.5205 62.2631Z" fill="#231F20"/>
<path d="M38.8273 62.6404L38.969 63.4244C38.969 63.4244 39.0004 63.5184 39.0319 63.5655C39.0634 63.6125 39.0949 63.6439 39.1421 63.6596C39.1893 63.6909 39.2365 63.7066 39.2837 63.7066C39.3309 63.7066 39.3939 63.7066 39.4411 63.7066L39.5356 63.6596C39.5356 63.6596 39.6457 63.5812 39.6772 63.5184L39.7244 63.4244C39.7244 63.4244 39.7402 63.2832 39.7244 63.2205L39.5828 62.4365C39.5828 62.4365 39.5513 62.3425 39.5198 62.2954C39.4883 62.2484 39.4569 62.217 39.4096 62.2013C39.3624 62.17 39.3152 62.1543 39.268 62.1543C39.2208 62.1543 39.1578 62.1543 39.1106 62.1543L39.0162 62.2013C39.0162 62.2013 38.906 62.2797 38.8745 62.3425L38.8273 62.4365C38.8273 62.4365 38.8116 62.5777 38.8273 62.6404Z" fill="#231F20"/>
<path d="M44.7132 62.1699C44.6818 62.2796 44.666 62.3894 44.666 62.4991C44.666 62.5775 44.666 62.6559 44.666 62.75C44.666 62.8598 44.6975 62.9695 44.729 63.0793C44.7604 63.189 44.8077 63.2988 44.8549 63.3929C44.8864 63.4399 44.9178 63.4713 44.9493 63.5026C44.9808 63.534 45.028 63.5654 45.091 63.5654C45.1382 63.581 45.2011 63.581 45.2484 63.5654C45.2956 63.5654 45.3428 63.5497 45.39 63.5183C45.4687 63.4713 45.5474 63.3772 45.5631 63.2831V63.1734C45.5631 63.1734 45.5631 63.0322 45.5159 62.9695C45.5159 62.9538 45.5002 62.9382 45.4844 62.9068L45.5316 63.0009C45.4844 62.8911 45.453 62.7814 45.4372 62.6559V62.7657C45.4372 62.6402 45.4372 62.5305 45.4372 62.405V62.5148C45.4372 62.5148 45.4372 62.405 45.453 62.358C45.4687 62.311 45.4687 62.2482 45.453 62.2012C45.453 62.1542 45.4372 62.1071 45.4057 62.0601C45.3743 62.0131 45.3428 61.9817 45.3113 61.9503C45.2798 61.919 45.2326 61.8876 45.1697 61.8876C45.0752 61.8719 44.9493 61.8719 44.8706 61.9347C44.7919 61.9974 44.7132 62.0758 44.6975 62.1699H44.7132Z" fill="#231F20"/>
<path d="M46.0035 62.4998C46.0035 62.4998 46.0192 62.5939 46.035 62.6252V62.5155C46.035 62.6409 46.035 62.7664 46.035 62.8761V62.7664C46.035 62.8918 46.0035 63.0016 45.9563 63.1113L46.0035 63.0172C46.0035 63.0172 45.9878 63.0643 45.972 63.08C45.9405 63.127 45.9248 63.174 45.9248 63.2211C45.9248 63.2681 45.9248 63.3308 45.9248 63.3779C45.9248 63.4249 45.9563 63.4719 45.9878 63.519C46.0192 63.566 46.0507 63.5974 46.0979 63.6131C46.1924 63.6601 46.3025 63.6915 46.397 63.6601C46.4914 63.6287 46.5858 63.566 46.633 63.4876C46.6803 63.3936 46.7275 63.2838 46.759 63.174C46.7904 63.0643 46.8062 62.9545 46.8219 62.8448C46.8219 62.7664 46.8219 62.688 46.8219 62.6096C46.8219 62.4998 46.8062 62.39 46.7747 62.2803C46.7747 62.2332 46.7432 62.1862 46.7117 62.1392C46.6803 62.0921 46.6488 62.0608 46.6016 62.0451C46.5544 62.0137 46.5071 61.998 46.4599 61.998C46.4127 61.998 46.3498 61.998 46.3025 61.998C46.2081 62.0294 46.1137 62.0921 46.0665 62.1705L46.0192 62.2646C46.0192 62.2646 46.0035 62.4057 46.0192 62.4684L46.0035 62.4998Z" fill="#231F20"/>
<path d="M31.0522 53.8126C30.7059 56.6664 30.9105 59.818 33.0353 61.9975C33.5389 62.5149 34.137 62.954 34.8137 63.2362C35.1128 63.3616 35.4433 63.3303 35.6164 63.0324C35.7581 62.7815 35.6951 62.3581 35.4118 62.2327C34.3416 61.778 33.5704 61.0097 33.0195 60.0062C32.4057 58.9086 32.1382 57.6071 32.1067 56.3057C32.0909 55.4747 32.1539 54.6437 32.2483 53.8126C32.2798 53.499 31.9493 53.2168 31.6503 53.2168C31.304 53.2168 31.0994 53.4834 31.0522 53.8126Z" fill="#231F20"/>
<path d="M49.7652 63.127C51.2604 62.8918 52.4408 61.8413 53.0074 60.4771C53.275 59.8186 53.4323 59.1287 53.5268 58.4231C53.6369 57.6705 53.6999 56.9178 53.6527 56.1652C53.5897 55.2871 53.3851 54.4404 52.9759 53.6721C52.8185 53.3899 52.4408 53.3115 52.1732 53.4683C51.8899 53.6408 51.8113 53.9857 51.9686 54.2679C52.5667 55.3812 52.5825 56.6983 52.4251 57.9527C52.2834 59.0973 52.0001 60.3987 51.1502 61.2141C50.6938 61.6531 50.1272 61.904 49.4662 61.9981C49.1514 62.0451 48.9783 62.4371 49.057 62.7194C49.1514 63.0486 49.4662 63.1741 49.781 63.127H49.7652Z" fill="#231F20"/>
<mask id="mask1_3865_17281" style="mask-type:luminance" maskUnits="userSpaceOnUse" x="21" y="14" width="44" height="42">
<path d="M23.5618 20.9488C23.5146 23.6927 24.034 26.4367 25.0727 28.9768C25.3718 29.6981 25.4347 30.1685 25.0255 30.827C24.2543 32.0658 23.7979 33.4926 23.7192 34.9508C23.6405 36.2209 23.7664 37.2087 23.1998 38.3533C22.6332 39.498 22.224 40.7994 21.7046 41.9911C21.4528 42.5712 20.4613 44.4058 22.0981 43.9197C22.8693 43.7002 23.4359 43.0886 24.2543 42.9946C24.034 44.688 23.5933 46.6009 24.1756 48.263C24.2543 48.5139 24.3802 48.7804 24.632 48.8902C24.8996 49.0156 25.2301 48.8902 25.419 48.6707C25.6078 48.4511 25.718 48.1689 25.8124 47.8867C26.0643 48.655 26.4105 49.4076 26.9771 49.9878C27.9686 51.007 29.0074 50.3798 30.0304 50.9599C30.3767 51.1637 30.5655 51.5714 30.8961 51.8066C31.4469 52.2143 32.2181 52.4181 32.8791 52.5592C34.2799 52.8885 35.7593 53.014 37.0656 53.6412C39.1746 54.6603 41.0475 55.413 43.4398 55.4443C44.274 55.4443 45.1239 55.3973 45.9265 55.1307C46.9181 54.8015 47.7837 54.1743 48.6493 53.5784C50.475 52.3397 52.647 50.9285 54.7875 50.3327C54.9448 50.6777 55.2124 51.0697 55.6531 51.101C56.1095 51.1324 56.5345 50.8502 56.8807 50.5522C57.5103 50.0191 58.0611 49.3763 58.4861 48.6707C58.5333 48.5923 58.5962 48.4982 58.6907 48.4825C58.7851 48.4511 58.8795 48.5139 58.974 48.5452C59.5091 48.7804 60.1544 48.4511 60.4691 47.9651C60.9256 47.2595 61.0987 46.4284 61.1616 45.5974C61.2246 44.7664 60.8626 43.8883 61.1616 43.1514C61.5866 43.465 62.106 43.6688 62.6253 43.7472C62.9716 43.7942 63.3336 43.7786 63.6641 43.6374C63.9946 43.4963 64.2464 43.1827 64.2622 42.8378C64.2937 42.289 63.8372 42.0538 63.6011 41.6461C63.2864 41.1287 63.0031 40.4858 62.8299 39.9057C62.0745 37.3969 62.1847 34.6529 60.9098 32.3009C60.2331 31.0309 59.1313 29.7608 59.4146 28.3496C59.635 27.3148 60.4062 26.6719 60.721 25.6997C61.0515 24.6492 61.0043 23.5203 60.9256 22.4384C60.8154 21.0899 60.658 19.7414 60.4377 18.4086C60.2803 17.4208 60.0757 16.4173 59.572 15.5392C59.3202 15.1159 58.911 14.6769 58.4231 14.7552C57.8722 14.8336 57.5732 15.4608 57.2427 15.8372C56.802 16.3232 56.2826 16.7152 55.779 17.1386C54.6301 18.095 53.4811 19.0515 52.3322 20.008C51.2777 20.8861 50.3019 21.8739 48.8697 21.4976C46.745 20.9174 44.2582 20.4 42.0548 20.4627C39.8514 20.5254 37.7739 21.0585 35.6649 21.4819C34.9881 21.623 34.3114 22.0464 33.6346 21.6857C33.3985 21.5603 33.2096 21.3721 33.0208 21.1996C31.9191 20.1961 30.7544 19.4122 29.6684 18.4086C28.5825 17.4051 27.3234 16.5898 26.143 15.696C25.0727 14.8964 24.2386 16.0096 24.0182 16.9975C23.7349 18.2989 23.5775 19.6317 23.5618 20.9801V20.9488Z" fill="white"/>
</mask>
<g mask="url(#mask1_3865_17281)">
<path d="M23.5618 20.9488C23.5146 23.6927 24.034 26.4367 25.0727 28.9768C25.3718 29.6981 25.4347 30.1685 25.0255 30.827C24.2543 32.0658 23.7979 33.4926 23.7192 34.9508C23.6405 36.2209 23.7664 37.2087 23.1998 38.3533C22.6332 39.498 22.224 40.7994 21.7046 41.9911C21.4528 42.5712 20.4613 44.4058 22.0981 43.9197C22.8693 43.7002 23.4359 43.0886 24.2543 42.9946C24.034 44.688 23.5933 46.6009 24.1756 48.263C24.2543 48.5139 24.3802 48.7804 24.632 48.8902C24.8996 49.0156 25.2301 48.8902 25.419 48.6707C25.6078 48.4511 25.718 48.1689 25.8124 47.8867C26.0643 48.655 26.4105 49.4076 26.9771 49.9878C27.9686 51.007 29.0074 50.3798 30.0304 50.9599C30.3767 51.1637 30.5655 51.5714 30.8961 51.8066C31.4469 52.2143 32.2181 52.4181 32.8791 52.5592C34.2799 52.8885 35.7593 53.014 37.0656 53.6412C39.1746 54.6603 41.0475 55.413 43.4398 55.4443C44.274 55.4443 45.1239 55.3973 45.9265 55.1307C46.9181 54.8015 47.7837 54.1743 48.6493 53.5784C50.475 52.3397 52.647 50.9285 54.7875 50.3327C54.9448 50.6777 55.2124 51.0697 55.6531 51.101C56.1095 51.1324 56.5345 50.8502 56.8807 50.5522C57.5103 50.0191 58.0611 49.3763 58.4861 48.6707C58.5333 48.5923 58.5962 48.4982 58.6907 48.4825C58.7851 48.4511 58.8795 48.5139 58.974 48.5452C59.5091 48.7804 60.1544 48.4511 60.4691 47.9651C60.9256 47.2595 61.0987 46.4284 61.1616 45.5974C61.2246 44.7664 60.8626 43.8883 61.1616 43.1514C61.5866 43.465 62.106 43.6688 62.6253 43.7472C62.9716 43.7942 63.3336 43.7786 63.6641 43.6374C63.9946 43.4963 64.2464 43.1827 64.2622 42.8378C64.2937 42.289 63.8372 42.0538 63.6011 41.6461C63.2864 41.1287 63.0031 40.4858 62.8299 39.9057C62.0745 37.3969 62.1847 34.6529 60.9098 32.3009C60.2331 31.0309 59.1313 29.7608 59.4146 28.3496C59.635 27.3148 60.4062 26.6719 60.721 25.6997C61.0515 24.6492 61.0043 23.5203 60.9256 22.4384C60.8154 21.0899 60.658 19.7414 60.4377 18.4086C60.2803 17.4208 60.0757 16.4173 59.572 15.5392C59.3202 15.1159 58.911 14.6769 58.4231 14.7552C57.8722 14.8336 57.5732 15.4608 57.2427 15.8372C56.802 16.3232 56.2826 16.7152 55.779 17.1386C54.6301 18.095 53.4811 19.0515 52.3322 20.008C51.2777 20.8861 50.3019 21.8739 48.8697 21.4976C46.745 20.9174 44.2582 20.4 42.0548 20.4627C39.8514 20.5254 37.7739 21.0585 35.6649 21.4819C34.9881 21.623 34.3114 22.0464 33.6346 21.6857C33.3985 21.5603 33.2096 21.3721 33.0208 21.1996C31.9191 20.1961 30.7544 19.4122 29.6684 18.4086C28.5825 17.4051 27.3234 16.5898 26.143 15.696C25.0727 14.8964 24.2386 16.0096 24.0182 16.9975C23.7349 18.2989 23.5775 19.6317 23.5618 20.9801V20.9488Z" fill="#F39B4A"/>
<path d="M55.2278 52.4333C55.3694 52.4646 55.5426 52.4803 55.6842 52.4333C56.0305 52.3549 56.3138 52.104 56.5656 51.8531C57.6043 50.8339 58.4228 49.5952 58.9579 48.2468C58.9579 48.874 59.855 49.1719 60.3901 48.8583C60.9252 48.5447 61.1613 47.8705 61.2557 47.2589C61.602 45.1892 61.177 43.7467 59.5245 42.4923C58.1867 41.4731 56.5184 40.7832 54.8501 40.548C52.3948 40.2187 48.8536 40.3598 46.965 38.4626C45.8318 37.318 45.2966 35.2639 44.8088 33.7586C44.3995 32.5043 43.3136 30.7168 41.724 31.2342C39.2845 32.0339 39.3002 35.7657 37.8837 37.5532C35.696 40.3128 30.9114 40.4696 27.7007 41.1595C26.5833 41.3947 25.4344 41.7083 24.616 42.508C23.4513 43.6369 21.6256 46.2868 22.507 48.0116C22.869 48.7015 24.0336 48.9053 24.3641 48.1997C24.3641 49.1719 24.4586 50.1597 24.616 51.1162C24.6789 51.4768 24.7733 51.8845 25.0724 52.0883C25.4344 52.3392 25.9537 52.2138 26.2843 51.9159C26.6148 51.6179 26.7879 51.1946 26.9453 50.7869C27.5591 52.6214 29.5264 53.625 31.3993 54.0953C32.9103 54.4717 34.5628 54.5971 35.9951 55.2243C37.506 55.8985 38.828 56.4787 40.5121 56.8393C42.7627 57.3254 44.6671 55.6947 46.5715 54.8323C49.1526 53.672 52.0958 53.1389 54.7399 52.0726C54.8186 52.2608 54.9917 52.3706 55.1963 52.4333H55.2278Z" fill="white"/>
<path d="M57.8091 19.0045C57.7305 18.9261 57.6203 18.8947 57.4944 18.9261C57.274 18.9731 57.1009 19.1456 56.9593 19.3181C56.1881 20.1961 53.0875 22.6265 53.7958 24.022C53.9846 24.3983 54.3466 24.6492 54.6457 24.9314C57.9665 28.0047 58.4859 23.1596 58.2341 20.6038C58.2026 20.2902 58.1711 19.3024 57.8091 19.0045Z" fill="white"/>
<path d="M30.2983 22.5324C29.6845 21.6857 28.5827 20.7763 28.1893 20.3216C27.8273 19.9296 27.0561 18.9731 26.3951 19.1456C25.0415 19.5062 25.9386 23.3948 26.1118 24.3513C26.2534 25.0882 26.4738 25.8565 26.9931 26.4053C27.1033 26.5308 27.245 26.6405 27.4181 26.6562C28.1578 26.7189 30.5973 24.3826 30.739 23.6614C30.8019 23.3321 30.613 22.9401 30.2983 22.5324Z" fill="white"/>
</g>
<path d="M32.7842 23.0496C38.3557 20.776 44.6512 20.5879 50.3644 22.5478C51.0884 22.7987 51.3874 21.6541 50.6792 21.4189C44.8086 19.3962 38.2298 19.5687 32.4852 21.9206C32.1862 22.0461 31.9815 22.3126 32.076 22.6419C32.1547 22.9242 32.5009 23.175 32.8 23.0496H32.7842Z" fill="#231F20"/>
<path d="M25.4815 29.0081C24.3798 30.4977 23.7659 32.2695 23.341 34.057C22.9161 35.8445 22.68 37.5379 22.1134 39.2157C21.7829 40.1721 21.3422 41.0659 20.7598 41.8812C20.571 42.1321 20.7126 42.5398 20.9645 42.6809C21.2635 42.8534 21.5783 42.7279 21.7671 42.4771C23.9233 39.4822 23.8604 35.6877 25.0565 32.3165C25.4028 31.3444 25.8749 30.435 26.4887 29.6196C26.6776 29.3687 26.536 28.9611 26.2841 28.8199C25.9851 28.6475 25.6703 28.7729 25.4815 29.0238V29.0081Z" fill="#231F20"/>
<path d="M58.6904 29.6039C59.8394 31.1562 60.5476 32.9437 61.0355 34.794C61.4762 36.456 61.5549 38.1808 62.0113 39.8428C62.2789 40.8307 62.6881 41.7244 63.3176 42.5398C63.5065 42.7906 63.9472 42.7436 64.1518 42.5398C64.4036 42.2889 64.3406 41.9596 64.1518 41.7087C63.1445 40.4073 62.9242 38.6512 62.6881 37.0675C62.4205 35.28 62.0113 33.5396 61.3188 31.8775C60.8939 30.8583 60.3902 29.9019 59.7292 29.0238C59.5403 28.7729 59.2255 28.6475 58.9265 28.8199C58.6747 28.9611 58.5173 29.3687 58.7219 29.6196L58.6904 29.6039Z" fill="#231F20"/>
<path d="M25.3708 15.9141C27.291 17.5448 29.1953 19.1912 31.1627 20.7748C31.6821 21.1982 32.2172 21.6216 32.7366 22.0292C32.9726 22.2174 33.3346 22.2801 33.5707 22.0292C33.7596 21.8097 33.8225 21.402 33.5707 21.1982C31.8237 19.8027 30.0925 18.4072 28.3927 16.949C27.6687 16.3218 26.929 15.7103 26.205 15.0831C25.9689 14.8792 25.5912 14.8322 25.3708 15.0831C25.1662 15.3026 25.119 15.6946 25.3708 15.9141Z" fill="#231F20"/>
<path d="M57.8085 14.7859C55.8412 16.589 53.7479 18.2354 51.6704 19.8975C51.1353 20.3208 50.6002 20.7599 50.0808 21.1989C49.829 21.4027 49.8762 21.8261 50.0808 22.0299C50.3169 22.2651 50.6631 22.2338 50.9149 22.0299C52.8665 20.3835 54.9126 18.8469 56.8642 17.1849C57.4623 16.6674 58.0603 16.15 58.6584 15.6012C58.8945 15.3817 58.8787 14.9897 58.6584 14.7702C58.4223 14.535 58.0603 14.5507 57.8243 14.7702L57.8085 14.7859Z" fill="#231F20"/>
<path d="M23.6247 16.5413C22.7748 19.8654 22.822 23.5815 23.8293 26.8743C24.0968 27.7837 24.4588 28.6618 24.931 29.4928C25.3087 30.1513 26.316 29.5555 25.954 28.897C24.3801 26.0903 24.0339 22.625 24.3329 19.4734C24.4116 18.5953 24.569 17.7173 24.7736 16.8705C24.9625 16.1336 23.8293 15.82 23.6404 16.5569L23.6247 16.5413Z" fill="#231F20"/>
<path d="M59.2407 15.6483C60.3266 18.9411 60.6572 22.6729 59.6656 26.0441C59.3981 26.9535 59.0203 27.8316 58.5167 28.6312C58.1075 29.2741 59.1305 29.8699 59.5397 29.2271C61.5385 26.0441 61.7274 21.983 61.1293 18.361C60.9562 17.3418 60.7201 16.3226 60.3896 15.3347C60.1535 14.6135 59.0203 14.9271 59.2564 15.6483H59.2407Z" fill="#231F20"/>
<path d="M28.8651 26.1228C28.9281 26.013 29.0068 25.9189 29.0854 25.8092C29.1012 25.7935 29.1169 25.7621 29.1327 25.7464C29.1012 25.7935 29.1012 25.7778 29.1327 25.7308C29.1641 25.6837 29.2114 25.6367 29.2428 25.5897C29.4002 25.4015 29.5576 25.229 29.7307 25.0565C29.9039 24.8841 30.077 24.7273 30.2658 24.5705C30.2658 24.5705 30.4075 24.4607 30.3288 24.5234C30.376 24.4921 30.4232 24.4607 30.4705 24.4137C30.5806 24.3353 30.6908 24.2569 30.801 24.1785C31.1472 23.959 31.163 23.567 30.9269 23.2534C29.6363 21.607 28.2513 20.039 26.7876 18.5651C26.5672 18.3456 26.1738 18.3299 25.9534 18.5651C25.7331 18.8003 25.7174 19.1609 25.9534 19.3961C27.4171 20.8857 28.8021 22.4537 30.0927 24.0844L30.2186 23.1593C29.2743 23.7708 28.4716 24.5705 27.8263 25.4956C27.6532 25.7464 27.7634 26.1541 28.0309 26.2952C28.33 26.452 28.6605 26.358 28.8336 26.0914L28.8651 26.1228Z" fill="#231F20"/>
<path d="M57.1788 18.454C56.2817 19.1596 55.4161 19.9122 54.6292 20.7432C54.1727 21.2293 53.732 21.7467 53.4015 22.3269C53.1182 22.8129 52.8979 23.4245 53.071 23.9889C53.2127 24.428 53.5747 24.7729 53.9209 25.0708C54.3301 25.4158 54.7708 25.7294 55.1328 26.1371C55.3374 26.3723 55.7623 26.3566 55.9669 26.1371C56.1873 25.8862 56.1873 25.5569 55.9669 25.306C55.6679 24.9611 55.2902 24.6945 54.9439 24.3966C54.7708 24.2555 54.6134 24.1144 54.456 23.9576C54.3773 23.8792 54.3144 23.8008 54.2514 23.7224C54.3301 23.8008 54.2357 23.6753 54.2042 23.644C54.157 23.5656 54.2514 23.6283 54.2357 23.7067C54.2357 23.7067 54.2199 23.6597 54.2199 23.644C54.2199 23.6283 54.2199 23.5969 54.2199 23.5813C54.1885 23.4872 54.2672 23.5813 54.2199 23.644C54.2199 23.6126 54.2199 23.5342 54.2199 23.5029C54.2199 23.4715 54.2199 23.4558 54.2199 23.4245C54.2199 23.3304 54.1885 23.5969 54.2199 23.4558C54.2514 23.3461 54.2672 23.252 54.3144 23.1579C54.3459 23.0795 54.3616 23.1265 54.2986 23.1893C54.2986 23.1893 54.3301 23.1265 54.3301 23.1109C54.3616 23.0481 54.3931 22.9854 54.4246 22.9227C54.4875 22.8129 54.5505 22.7032 54.6292 22.5934C54.6606 22.5307 54.7078 22.4837 54.7551 22.421C54.7708 22.3896 54.8023 22.3582 54.818 22.3269C54.818 22.3112 54.8495 22.2955 54.8652 22.2642C54.8967 22.2171 54.8967 22.2328 54.8338 22.2955C54.9282 22.2171 55.0069 22.076 55.1013 21.9819C55.2115 21.8565 55.3217 21.731 55.4318 21.6056C55.8725 21.1352 56.3447 20.6962 56.8168 20.2728C57.2103 19.9279 57.6195 19.5986 58.0287 19.2693C58.2648 19.0812 58.2491 18.6421 58.0287 18.4383C57.7769 18.2031 57.4464 18.2344 57.1946 18.4383L57.1788 18.454Z" fill="#231F20"/>
<path d="M39.552 46.2242C40.7482 46.9298 42.1804 47.1493 43.5339 46.8984C43.8959 46.8357 44.2422 46.7259 44.5727 46.5848C44.7143 46.5221 44.8403 46.4594 44.919 46.3183C44.9976 46.1928 45.0291 46.0047 44.9819 45.8635C44.9347 45.7224 44.8403 45.5813 44.7143 45.5186C44.5884 45.4559 44.3996 45.3932 44.2579 45.4559C43.8959 45.6127 43.5339 45.7067 43.1405 45.7851C43.0933 45.7851 43.046 45.7851 42.9988 45.8008C43.1719 45.7538 43.0146 45.8008 42.9673 45.8008C42.8729 45.8008 42.7627 45.8165 42.6683 45.8165C42.4794 45.8165 42.2906 45.8165 42.1017 45.8165C42.0073 45.8165 41.8971 45.8008 41.8027 45.7851C41.6768 45.7851 41.9443 45.8008 41.8027 45.7851C41.7555 45.7851 41.724 45.7851 41.6768 45.7695C41.4879 45.7381 41.2833 45.6911 41.0944 45.6283C41.0157 45.597 40.9213 45.5813 40.8426 45.5499C40.7954 45.5343 40.7482 45.5186 40.701 45.5029C40.6852 45.5029 40.6538 45.4872 40.638 45.4715C40.7167 45.5029 40.7324 45.5186 40.6695 45.4715C40.4806 45.3932 40.3075 45.2991 40.1344 45.205C39.8668 45.0482 39.4733 45.1423 39.3317 45.4088C39.19 45.6754 39.253 46.0517 39.5363 46.2085L39.552 46.2242Z" fill="#231F20"/>
<path d="M35.5072 37.5225C36.3591 37.5225 37.0496 36.8345 37.0496 35.9858C37.0496 35.1372 36.3591 34.4492 35.5072 34.4492C34.6554 34.4492 33.9648 35.1372 33.9648 35.9858C33.9648 36.8345 34.6554 37.5225 35.5072 37.5225Z" fill="#231F20"/>
<path d="M50.144 37.5225C50.9958 37.5225 51.6864 36.8345 51.6864 35.9858C51.6864 35.1372 50.9958 34.4492 50.144 34.4492C49.2921 34.4492 48.6016 35.1372 48.6016 35.9858C48.6016 36.8345 49.2921 37.5225 50.144 37.5225Z" fill="#231F20"/>
<path d="M42.4319 38.6037C43.1968 38.6037 43.8169 38.2176 43.8169 37.7413C43.8169 37.265 43.1968 36.8789 42.4319 36.8789C41.667 36.8789 41.0469 37.265 41.0469 37.7413C41.0469 38.2176 41.667 38.6037 42.4319 38.6037Z" fill="#231F20"/>
<path d="M40.4019 41.2237C41.6925 41.2707 42.8886 40.032 42.7312 38.7462L41.96 38.856C42.1489 39.5146 42.4322 40.2201 42.9831 40.6749C43.5339 41.1296 44.3209 41.3334 44.9976 41.0198C45.1865 40.9257 45.2494 40.6435 45.1393 40.4867C45.0134 40.2985 44.8088 40.2515 44.6041 40.3456C44.5255 40.3769 44.6514 40.3456 44.5727 40.3456C44.5412 40.3456 44.5097 40.3613 44.4782 40.3769C44.4468 40.3926 44.4153 40.3769 44.3838 40.3926C44.4782 40.3769 44.3838 40.3926 44.3523 40.3926C44.2894 40.3926 44.2264 40.3926 44.1635 40.3926C44.132 40.3926 44.1477 40.3926 44.1949 40.3926C44.1792 40.3926 44.1635 40.3926 44.1477 40.3926C44.1162 40.3926 44.0848 40.3926 44.0533 40.3769C43.9903 40.3613 43.9116 40.3299 43.8487 40.3142C43.9116 40.3456 43.8487 40.3142 43.8172 40.3142C43.7857 40.3142 43.7543 40.2829 43.7228 40.2672C43.6598 40.2358 43.6126 40.2045 43.5497 40.1574C43.4867 40.1104 43.5969 40.2045 43.5182 40.1417C43.4867 40.1261 43.471 40.0947 43.4395 40.079C43.3923 40.032 43.3451 39.9849 43.2978 39.9222C43.2821 39.8909 43.2506 39.8752 43.2349 39.8438C43.2821 39.9065 43.2191 39.8125 43.2191 39.8125C43.1404 39.7027 43.0618 39.5773 42.9988 39.4518C42.9673 39.3891 42.9358 39.3264 42.9044 39.2637C42.9358 39.3421 42.9044 39.2323 42.9044 39.2166C42.9044 39.1853 42.8729 39.1539 42.8729 39.1226C42.8257 38.9814 42.7785 38.8246 42.7312 38.6835C42.6683 38.4954 42.4952 38.3699 42.3063 38.4013C42.1332 38.417 41.9443 38.5894 41.96 38.7933C41.96 38.856 41.96 38.9187 41.96 38.9814C41.96 39.0128 41.96 39.0442 41.96 39.0755C41.96 39.0755 41.96 39.201 41.96 39.1382C41.96 39.0755 41.96 39.1853 41.96 39.1853C41.96 39.2166 41.96 39.248 41.9443 39.2794C41.9443 39.3421 41.9128 39.4048 41.8971 39.4518C41.8971 39.4518 41.8499 39.5616 41.8813 39.4989C41.9128 39.4362 41.8499 39.5616 41.8499 39.5616C41.8184 39.6243 41.7869 39.6714 41.7554 39.7184C41.724 39.7654 41.6925 39.8281 41.6453 39.8752C41.6925 39.8281 41.6453 39.8752 41.6295 39.8909C41.6138 39.9222 41.5823 39.9379 41.5666 39.9536C41.5194 40.0006 41.4721 40.0477 41.4407 40.079C41.4249 40.0947 41.3934 40.1261 41.3777 40.1417C41.299 40.2045 41.4407 40.0947 41.362 40.1417C41.2675 40.2201 41.1574 40.2672 41.0472 40.3299C40.9685 40.3769 41.1101 40.3142 41.0315 40.3299C41 40.3299 40.9685 40.3456 40.937 40.3613C40.8741 40.3769 40.8269 40.3926 40.7639 40.4083C40.7324 40.4083 40.7009 40.4083 40.6537 40.424C40.6222 40.424 40.638 40.424 40.6852 40.424C40.6852 40.424 40.6537 40.424 40.638 40.424C40.575 40.424 40.4963 40.424 40.4334 40.424C40.2288 40.424 40.0242 40.6121 40.0399 40.816C40.0399 41.0355 40.213 41.1923 40.4334 41.208L40.4019 41.2237Z" fill="#231F20"/>
<path d="M21.2953 44.3901C22.3341 44.3273 23.3414 43.9824 24.1755 43.3709C24.4273 43.1827 24.6634 42.9946 24.8838 42.775C25.1041 42.5555 25.1199 42.1635 24.8838 41.944C24.6477 41.7245 24.2857 41.7088 24.0496 41.944C23.8922 42.1008 23.7348 42.2419 23.5617 42.3674L23.6876 42.2733C23.3414 42.5398 22.9636 42.7437 22.5702 42.9162L22.7118 42.8534C22.3184 43.0259 21.8934 43.1357 21.4685 43.1984H21.6259C21.5157 43.1984 21.4055 43.1984 21.2953 43.1984C21.138 43.1984 20.9963 43.2611 20.8704 43.3709C20.7602 43.4806 20.6973 43.6374 20.6973 43.7942C20.6973 43.951 20.7602 44.1078 20.8704 44.2176C20.9806 44.3273 21.138 44.4057 21.2953 44.3901Z" fill="#231F20"/>
<path d="M23.6876 44.0757C23.2469 45.189 23.2154 46.4277 23.4515 47.6037C23.4987 47.8859 23.5774 48.1525 23.6561 48.4347C23.7505 48.7483 23.8607 49.0619 24.081 49.3285C24.3171 49.6107 24.7106 49.7518 25.0726 49.6734C25.4975 49.595 25.6706 49.2344 25.8123 48.8894C26.0956 48.2152 26.3789 47.5566 26.6622 46.8824L25.4975 46.7256C25.3873 47.7762 25.4975 48.8737 26.0326 49.7989C26.489 50.6142 27.276 51.2884 28.2046 51.4766C28.5036 51.5393 28.8499 51.3825 28.9285 51.0689C28.9915 50.771 28.8341 50.4104 28.5193 50.3477C28.4249 50.332 28.3305 50.3006 28.236 50.2693C28.2046 50.2693 28.0787 50.2065 28.1888 50.2693C28.1574 50.2536 28.1101 50.2379 28.0787 50.2222C28 50.1752 27.9213 50.1438 27.8426 50.0968C27.7954 50.0654 27.7639 50.0497 27.7167 50.0184C27.5908 49.9243 27.7954 50.0968 27.6852 49.987C27.5435 49.8616 27.4176 49.7205 27.276 49.5793C27.2288 49.5323 27.3232 49.6577 27.276 49.5637C27.2445 49.5166 27.213 49.4853 27.1973 49.4382C27.1501 49.3598 27.0871 49.2657 27.0399 49.1873C27.0242 49.1403 26.9927 49.0933 26.9769 49.0619C26.9769 49.0619 26.914 48.9208 26.9455 48.9835C26.9455 49.0149 26.9455 48.9992 26.9455 48.9365C26.9455 48.9051 26.9297 48.8737 26.914 48.8581C26.8983 48.811 26.8825 48.764 26.8668 48.717C26.8353 48.6072 26.8038 48.4818 26.7723 48.372C26.7723 48.3093 26.7409 48.2622 26.7409 48.1995C26.7409 48.1838 26.7094 48.0114 26.7409 48.1211C26.6779 47.6664 26.6936 47.2117 26.7409 46.757C26.7723 46.4747 26.489 46.2082 26.2215 46.1768C25.9067 46.1298 25.6864 46.3179 25.5762 46.6002C25.3086 47.2274 25.0411 47.8546 24.7893 48.4818C24.7735 48.5288 24.7578 48.5602 24.742 48.6072C24.7578 48.5602 24.7578 48.5602 24.742 48.6229C24.7106 48.6856 24.7106 48.6856 24.742 48.6229C24.7735 48.5915 24.805 48.5758 24.8522 48.5602C24.8994 48.5445 24.9466 48.5445 24.9939 48.5602C25.0568 48.5915 25.0726 48.5915 25.0096 48.5602C25.0726 48.6072 25.0726 48.6072 25.0096 48.5602C25.0411 48.6072 25.0411 48.6072 25.0096 48.5602C24.9939 48.5288 24.9781 48.4974 24.9624 48.4661C24.9939 48.5131 24.9939 48.5288 24.9624 48.4661C24.9466 48.3877 24.9152 48.325 24.8837 48.2466C24.8365 48.1054 24.805 47.9643 24.7578 47.8232C24.6004 47.196 24.5374 46.7727 24.5532 46.1298C24.5532 45.9887 24.5532 45.8319 24.5847 45.6907C24.5847 45.6751 24.6161 45.4399 24.5847 45.5653C24.5847 45.4869 24.6161 45.4085 24.6319 45.3301C24.6948 45.0322 24.7735 44.7343 24.8994 44.4364C25.0253 44.1384 24.7735 43.7778 24.4902 43.7151C24.144 43.6367 23.8922 43.8249 23.7662 44.1228L23.6876 44.0757Z" fill="#231F20"/>
<path d="M28.7083 48.9363C28.4879 50.567 29.6683 51.9155 30.9904 52.6995C32.3125 53.4835 33.7919 53.7814 35.2713 54.0166C36.2157 54.1734 37.16 54.2988 38.0728 54.5497C38.8126 54.7535 39.1273 53.6089 38.3876 53.4207C36.9082 53.0131 35.3658 52.9033 33.8863 52.5583C32.6902 52.2761 31.5098 51.8371 30.6599 50.959C30.4081 50.7081 30.2035 50.4259 30.0461 50.1123C29.9044 49.8457 29.8257 49.5008 29.8572 49.2342C29.9044 48.9206 29.7785 48.607 29.448 48.513C29.1647 48.4346 28.7712 48.607 28.724 48.9206L28.7083 48.9363Z" fill="#231F20"/>
<path d="M60.1221 44.2953C60.1221 44.2953 60.1536 44.4364 60.1536 44.5148C60.1536 44.5462 60.1536 44.5776 60.1536 44.6089C60.1536 44.5619 60.1536 44.5619 60.1536 44.6403C60.1536 44.7657 60.185 44.8911 60.185 45.0166C60.2008 45.2831 60.2008 45.5654 60.185 45.8319C60.1536 46.3494 60.0749 46.8198 59.9017 47.3686C59.8703 47.494 59.823 47.6038 59.7758 47.7292C59.823 47.6038 59.7758 47.7449 59.7601 47.7606C59.7286 47.8076 59.7129 47.8546 59.6814 47.9017C59.6027 48.0271 59.7286 47.8703 59.6499 47.9487C59.6184 47.9801 59.587 48.0114 59.5555 48.0428C59.6499 47.9487 59.5555 48.0428 59.524 48.0428C59.6027 48.0114 59.6027 48.0114 59.5397 48.0428C59.6184 48.0428 59.6342 48.0428 59.587 48.0428C59.5712 48.0428 59.5397 48.0428 59.5083 48.0428C59.587 48.0428 59.587 48.0428 59.524 48.0428H59.5712C59.5712 48.0428 59.5083 48.0428 59.4925 48.0114C59.6027 48.0742 59.4925 48.0114 59.461 47.9801C59.4138 47.933 59.4138 47.933 59.461 47.9801C59.461 47.9644 59.4296 47.933 59.4296 47.9174C59.4296 47.9017 59.4138 47.8703 59.3981 47.8546C59.4138 47.9017 59.4138 47.886 59.3981 47.8233C59.3981 47.7606 59.3666 47.6978 59.3509 47.6508C59.3666 47.7449 59.3509 47.5881 59.3509 47.5567C59.3509 47.4783 59.3509 47.3842 59.3509 47.3058C59.3509 46.9922 59.0833 46.71 58.7528 46.71C58.4223 46.71 58.1862 46.9609 58.1547 47.3058C58.1547 47.3529 58.1547 47.3999 58.1547 47.4626C58.1547 47.4783 58.139 47.6194 58.1547 47.541C58.1705 47.4626 58.1547 47.6194 58.139 47.6351C58.139 47.6822 58.139 47.7135 58.1075 47.7606C58.076 47.9487 58.0131 48.1212 57.9659 48.2937C57.9501 48.3407 57.9344 48.3877 57.9187 48.4348C57.9187 48.4348 57.8557 48.5759 57.8872 48.4975C57.9186 48.4191 57.8557 48.5602 57.8557 48.5602C57.84 48.6073 57.8085 48.6543 57.7927 48.7013C57.714 48.8738 57.6196 49.0306 57.5094 49.1874C57.4622 49.2501 57.415 49.3285 57.3678 49.3913C57.4465 49.2972 57.3521 49.4069 57.3363 49.4383C57.3048 49.4697 57.2734 49.5167 57.2419 49.5481C57.116 49.6892 56.9901 49.8146 56.8484 49.94C56.8169 49.9714 56.7855 50.0028 56.754 50.0184C56.7225 50.0498 56.6596 50.0812 56.7382 50.0341C56.6596 50.0968 56.5809 50.1439 56.5022 50.1909C56.3448 50.3007 56.1717 50.3948 55.9985 50.4732C55.7152 50.5986 55.6208 51.022 55.7939 51.2728C55.9828 51.5551 56.2976 51.6335 56.5966 51.4767C58.2019 50.7084 59.2722 49.0463 59.3981 47.2745H58.2177C58.2492 47.839 58.3121 48.4661 58.7843 48.8581C59.2879 49.2815 59.949 49.2815 60.4369 48.8581C60.8146 48.5289 61.0034 47.9958 61.1451 47.5254C61.3025 46.9766 61.3969 46.4121 61.4284 45.8633C61.4756 45.2204 61.4284 44.5776 61.3025 43.9504C61.2395 43.6524 60.8618 43.4486 60.5785 43.5427C60.248 43.6524 60.1063 43.9347 60.1693 44.264L60.1221 44.2953Z" fill="#231F20"/>
<path d="M54.7239 49.1551C54.7239 49.1551 54.6452 49.2648 54.6137 49.3276C54.598 49.3432 54.5822 49.3746 54.5665 49.3903C54.6137 49.3276 54.5665 49.3903 54.5665 49.406C54.472 49.5157 54.3776 49.6255 54.2832 49.7196C54.1888 49.8136 54.1101 49.892 54.0156 49.9704C53.9684 50.0175 53.9055 50.0645 53.8582 50.0959C53.8268 50.1272 53.7953 50.1429 53.7638 50.1743C53.6851 50.237 53.8268 50.1272 53.7481 50.1743C53.2916 50.5036 52.8037 50.7858 52.3158 51.0367C51.2614 51.5541 50.1439 51.9461 49.1209 52.5106C48.5071 52.8398 47.9405 53.2475 47.4368 53.7336C47.2165 53.9531 47.2008 54.3451 47.4368 54.5646C47.6729 54.7841 48.0349 54.7998 48.271 54.5646C48.3654 54.4705 48.4756 54.3608 48.5858 54.2667C48.633 54.2197 48.6959 54.1726 48.7589 54.1256C48.8061 54.0942 48.8376 54.0629 48.8848 54.0315C49.1209 53.859 49.3727 53.7022 49.6403 53.5611C50.1596 53.2632 50.7105 53.0123 51.2613 52.7771C52.3158 52.3224 53.4018 51.8834 54.3304 51.1935C54.897 50.7701 55.4006 50.284 55.7941 49.7039C55.9672 49.453 55.8571 49.0453 55.5895 48.9042C55.2905 48.7474 54.96 48.8415 54.7868 49.108L54.7239 49.1551Z" fill="#231F20"/>
<path d="M61.0352 43.4956C61.35 43.8092 61.7434 44.0444 62.1684 44.1856C62.3887 44.2639 62.6091 44.2953 62.8294 44.311C63.0025 44.3267 63.1757 44.311 63.3645 44.311C63.5062 44.2953 63.6636 44.2796 63.8052 44.2326C63.9469 44.1855 64.0885 44.1385 64.2144 44.0758C64.3403 44.0288 64.4505 43.8563 64.482 43.7308C64.5135 43.5897 64.4977 43.4016 64.419 43.2761C64.3403 43.1507 64.2144 43.0409 64.0728 43.0096H63.9154C63.8052 42.9939 63.7108 43.0096 63.6164 43.0723H63.6006C63.6006 43.0723 63.6951 43.0409 63.7423 43.0252C63.5691 43.1036 63.396 43.135 63.2072 43.1664H63.3645C63.1757 43.1664 62.9711 43.1664 62.7822 43.1507H62.9396C62.735 43.1507 62.5304 43.088 62.3415 43.0096L62.4832 43.0723C62.31 42.9939 62.1527 42.8998 62.011 42.79L62.1369 42.8841C62.0582 42.8214 61.9795 42.7587 61.9166 42.6803C61.8064 42.5705 61.649 42.5078 61.4916 42.5078C61.3342 42.5078 61.1769 42.5705 61.0667 42.6803C60.9565 42.79 60.8936 42.9468 60.8936 43.1036C60.8936 43.2604 60.9565 43.4016 61.0667 43.527L61.0352 43.4956Z" fill="#231F20"/>
</svg>
