<svg width="80" height="76" viewBox="0 0 80 76" fill="none" xmlns="http://www.w3.org/2000/svg">
<path d="M52.1072 50.0369C52.3905 49.0177 52.5321 47.9358 53.1302 47.0734C53.7283 46.211 55.0346 45.7093 55.853 46.3678C57.1121 45.9131 58.4499 45.6936 59.7719 45.7093C61.5189 45.7093 61.0153 47.7947 61.0468 48.9864C61.0625 50.0526 61.0782 51.1659 60.732 52.1694C60.3228 53.361 59.5673 53.5492 58.7332 54.2705C57.9935 54.929 57.4898 56.0579 56.8288 56.8263C56.152 57.6102 55.428 58.3629 54.5309 58.8646C52.8941 59.7584 48.6289 59.9309 47.9836 57.5946C47.5744 56.152 48.8965 55.1015 49.7621 54.1764C50.8638 52.9847 51.6822 51.5735 52.1229 50.0212L52.1072 50.0369Z" fill="#F39B4A"/>
<path d="M48.928 56.0734C50.3759 55.3051 51.1944 53.7841 51.6823 52.2789C52.1702 50.7736 52.4062 48.9391 53.445 47.5906C53.9172 46.9791 54.531 46.5087 55.2707 46.3362C55.5855 46.2578 55.7586 45.9129 55.6799 45.615C55.5855 45.3014 55.2707 45.1289 54.9559 45.2073C53.3506 45.5836 52.2489 46.9634 51.635 48.4217C50.9583 50.021 50.8009 51.8085 49.9825 53.3294C49.589 54.0507 49.0696 54.6936 48.3299 55.0699C48.0466 55.211 47.9679 55.603 48.1253 55.8696C48.2984 56.1518 48.6447 56.2302 48.928 56.0734Z" fill="#231F20"/>
<path d="M55.6484 47.9985C55.8058 47.7946 55.9946 47.6065 56.1835 47.434C56.2307 47.3869 56.2779 47.3399 56.3252 47.3085C56.3566 47.2929 56.3724 47.2615 56.4039 47.2458C56.3566 47.2929 56.3409 47.2929 56.4039 47.2458C56.4983 47.1831 56.5927 47.1204 56.6871 47.0577C56.7973 46.995 56.9075 46.9166 57.0334 46.8695C57.0964 46.8382 57.1593 46.8068 57.2223 46.7754C57.2537 46.7754 57.2852 46.7441 57.3167 46.7284C57.2537 46.7598 57.2537 46.7598 57.3167 46.7284C57.5528 46.6343 57.8046 46.5559 58.0564 46.4932C58.1823 46.4618 58.3082 46.4305 58.4184 46.4148C58.4814 46.4148 58.5443 46.3991 58.623 46.3834C58.6545 46.3834 58.686 46.3834 58.7174 46.3834C58.6388 46.3834 58.6388 46.3834 58.7174 46.3834C58.985 46.3521 59.2368 46.3364 59.5044 46.3207C60.0395 46.2894 60.5746 46.305 61.1255 46.3207C61.4402 46.3207 61.7235 46.0542 61.7235 45.7249C61.7235 45.3956 61.4717 45.1447 61.1255 45.1291C59.3627 45.0977 57.4426 45.1291 55.9317 46.1639C55.5067 46.4462 55.129 46.7911 54.8142 47.1988C54.7198 47.3242 54.6411 47.4497 54.6411 47.6221C54.6411 47.7633 54.7041 47.9357 54.8142 48.0455C55.0346 48.2337 55.4438 48.2964 55.6484 48.0455V47.9985Z" fill="#231F20"/>
<path d="M47.7319 58.7077C49.2428 60.1502 51.5407 60.6363 53.5395 60.0405C54.0903 59.868 54.6255 59.6171 55.0976 59.2879C55.3494 59.1154 55.4911 58.7704 55.3022 58.4882C55.1448 58.2373 54.7671 58.0805 54.4995 58.2843C54.3107 58.4098 54.1218 58.5352 53.9172 58.6293C53.8228 58.6763 53.7284 58.7234 53.6182 58.7704C53.5552 58.8018 53.6497 58.7704 53.6497 58.7704C53.6182 58.7704 53.5867 58.7861 53.5552 58.8018C53.4923 58.8175 53.4451 58.8488 53.3821 58.8645C53.1618 58.9429 52.9572 58.9899 52.7368 59.037C52.6896 59.037 52.6266 59.0527 52.5794 59.0683C52.5479 59.0683 52.5165 59.0683 52.485 59.0683C52.4535 59.0683 52.422 59.0683 52.3906 59.0683C52.3276 59.0683 52.2646 59.0683 52.2017 59.084C51.9813 59.084 51.7453 59.0997 51.5249 59.084C51.4148 59.084 51.3046 59.084 51.1944 59.0527C51.1787 59.0527 51.1472 59.0527 51.1315 59.0527C51.2574 59.0527 51.1787 59.0527 51.1472 59.0527C51.0842 59.0527 51.0213 59.037 50.9583 59.0213C50.738 58.9743 50.5176 58.9272 50.2973 58.8645C50.1871 58.8331 50.0927 58.8018 49.9825 58.7547C49.9353 58.7391 49.8251 58.692 49.9353 58.7391C49.8724 58.7077 49.8251 58.692 49.7622 58.6607C49.5418 58.5509 49.3215 58.4255 49.1169 58.3C49.0539 58.2687 49.0067 58.2216 48.9438 58.1746C48.928 58.1746 48.9123 58.1432 48.8808 58.1276C48.9438 58.1746 48.9123 58.1589 48.8808 58.1276C48.7706 58.0492 48.6762 57.9551 48.5818 57.861C48.3614 57.6415 47.968 57.6258 47.7476 57.861C47.5273 58.0962 47.5115 58.4725 47.7476 58.692L47.7319 58.7077Z" fill="#231F20"/>
<path d="M55.3181 57.7828C55.5069 57.9083 55.7115 58.0337 55.9161 58.1435C56.168 58.2846 56.4198 58.3943 56.6873 58.5041C56.766 58.5355 56.8447 58.5355 56.9234 58.5041C57.0021 58.5041 57.0808 58.4727 57.1438 58.4414C57.2067 58.41 57.2697 58.3473 57.3169 58.2846C57.3641 58.2219 57.4113 58.1591 57.4271 58.0808V57.9239C57.4428 57.8142 57.4271 57.7201 57.3641 57.626L57.2697 57.5006C57.2697 57.5006 57.1123 57.3752 57.0021 57.3438C57.0021 57.3438 57.0965 57.3752 57.1438 57.3908C56.7188 57.2184 56.3096 56.9832 55.9319 56.7323C55.8689 56.6852 55.7902 56.6696 55.7115 56.6696C55.6328 56.6539 55.5541 56.6696 55.4755 56.6696C55.3968 56.6852 55.3338 56.7166 55.2708 56.7793C55.2079 56.8264 55.1607 56.8734 55.1135 56.9518C55.0348 57.0929 55.0033 57.2497 55.0505 57.4065L55.1135 57.5476C55.1607 57.6417 55.2394 57.7044 55.3181 57.7515V57.7828Z" fill="#231F20"/>
<path d="M57.2223 56.5124C57.2223 56.5124 57.2538 56.5124 57.2695 56.5124H57.1121C57.2223 56.5124 57.3325 56.5124 57.4427 56.5281H57.2853C57.3954 56.5281 57.5214 56.5594 57.6315 56.6065L57.4899 56.5438C57.4899 56.5438 57.6315 56.6065 57.7102 56.6535C57.7732 56.7006 57.8519 56.7162 57.9306 56.7162C58.0093 56.7319 58.0879 56.7162 58.1666 56.7162C58.2453 56.7006 58.3083 56.6692 58.3712 56.6065C58.4342 56.5594 58.4814 56.5124 58.5286 56.434L58.5916 56.2929C58.6231 56.1831 58.6231 56.0891 58.5916 55.9793L58.5286 55.8382C58.4814 55.7441 58.4027 55.6814 58.324 55.6343C58.2139 55.5559 58.0879 55.5089 57.962 55.4619C57.8833 55.4305 57.8046 55.3991 57.726 55.3835C57.6 55.3521 57.4584 55.3364 57.3325 55.3364C57.2066 55.3364 57.0649 55.3521 56.939 55.3678C56.8603 55.3835 56.7974 55.4148 56.7344 55.4775C56.6715 55.5246 56.6242 55.5716 56.577 55.65C56.5298 55.7127 56.5141 55.7911 56.5141 55.8695C56.4983 55.9479 56.5141 56.0263 56.5141 56.1047L56.577 56.2459C56.6242 56.3399 56.7029 56.4027 56.7816 56.4497L56.9233 56.5124C57.0335 56.5438 57.1279 56.5438 57.2381 56.5124H57.2223Z" fill="#231F20"/>
<path d="M58.9379 54.8033C59.6933 54.4427 60.3229 53.8468 60.7478 53.1412C61.2357 52.2945 61.3459 51.3537 61.3774 50.3973C61.4089 49.8171 61.4246 49.2526 61.4403 48.6725C61.4403 48.3589 61.157 48.0767 60.8423 48.0767C60.5118 48.0767 60.2599 48.3275 60.2442 48.6725C60.2285 49.1429 60.2127 49.6133 60.1812 50.0837C60.1812 50.3032 60.1655 50.5384 60.1498 50.7579C60.1498 50.8677 60.1498 50.9931 60.1183 51.1029C60.1183 51.1499 60.1183 51.2126 60.1025 51.2597C60.1025 51.291 60.1025 51.3067 60.1025 51.3381C60.1025 51.291 60.1025 51.2753 60.1025 51.3381C60.0711 51.5419 60.0238 51.7614 59.9609 51.9653C59.9452 52.028 59.8665 52.1534 59.8665 52.2161C59.8665 52.2161 59.9137 52.1064 59.8822 52.1691C59.8822 52.1848 59.8665 52.2005 59.8507 52.2318C59.835 52.2788 59.8035 52.3259 59.7878 52.3572C59.7091 52.514 59.6146 52.6708 59.5045 52.812C59.5045 52.8276 59.473 52.8433 59.473 52.859C59.4258 52.9217 59.5359 52.7806 59.473 52.8433C59.4415 52.8747 59.4258 52.906 59.3943 52.9374C59.3313 53.0001 59.2684 53.0785 59.2054 53.1412C59.1425 53.204 59.0638 53.2824 58.9851 53.3451C58.9694 53.3608 58.8592 53.4548 58.9064 53.4078C58.9536 53.3608 58.8592 53.4548 58.8277 53.4548C58.6546 53.5803 58.4657 53.6744 58.2768 53.7684C57.9936 53.8939 57.8991 54.3172 58.0722 54.5681C58.2611 54.8503 58.5759 54.9131 58.8749 54.7719L58.9379 54.8033Z" fill="#231F20"/>
<path d="M60.2913 48.0613C60.5117 47.8888 60.7635 47.7477 61.0153 47.638L60.8737 47.7007C61.1412 47.5909 61.4245 47.5125 61.7078 47.4812H61.5504C61.5504 47.4812 61.6134 47.4812 61.6291 47.4812C61.7078 47.4812 61.7865 47.4812 61.8495 47.4341C61.9282 47.4028 61.9911 47.3714 62.0383 47.3087C62.1013 47.2616 62.1328 47.1989 62.1642 47.1205C62.1957 47.0578 62.2114 46.9794 62.2114 46.901C62.2114 46.7442 62.1485 46.5874 62.0383 46.4777L61.9124 46.3836C61.818 46.3365 61.7235 46.3052 61.6134 46.3052C61.3301 46.3365 61.0468 46.3836 60.7792 46.4777C60.5117 46.5717 60.2441 46.6815 60.008 46.8226C59.8979 46.8853 59.7719 46.9637 59.6775 47.0421C59.6146 47.0735 59.5516 47.1362 59.5044 47.1989C59.4572 47.2616 59.41 47.3244 59.3942 47.4028C59.3627 47.4812 59.3627 47.5596 59.3942 47.638C59.3942 47.7164 59.4257 47.7948 59.4572 47.8575C59.5359 47.9829 59.6618 48.0927 59.8034 48.124H59.9608C60.071 48.1397 60.1654 48.124 60.2598 48.0613H60.2913Z" fill="#231F20"/>
<mask id="mask0_188_2343" style="mask-type:luminance" maskUnits="userSpaceOnUse" x="28" y="43" width="22" height="18">
<path d="M33.3938 59.68C31.1589 58.6922 29.3962 56.6538 28.8138 54.2862C28.2315 51.9185 28.8453 49.2686 30.4664 47.4498C32.717 44.9253 36.3684 44.2668 39.7365 43.9218C40.9169 43.8121 42.1603 43.718 43.262 44.157C44.1591 44.5177 44.8831 45.2076 45.5913 45.8661C46.8504 47.0578 48.1253 48.2808 48.9594 49.8018C50.1713 52.0283 50.2972 54.8193 49.2742 57.1399C48.9909 57.7671 48.6289 58.3786 48.0938 58.8176C47.6374 59.1783 47.0865 59.4135 46.5199 59.586C44.6313 60.1661 42.6167 60.2288 40.6494 60.2915C38.2098 60.3699 35.7231 60.6992 33.4095 59.68H33.3938Z" fill="white"/>
</mask>
<g mask="url(#mask0_188_2343)">
<path d="M33.3938 59.68C31.1589 58.6922 29.3962 56.6538 28.8138 54.2862C28.2315 51.9185 28.8453 49.2686 30.4664 47.4498C32.717 44.9253 36.3684 44.2668 39.7365 43.9218C40.9169 43.8121 42.1603 43.718 43.262 44.157C44.1591 44.5177 44.8831 45.2076 45.5913 45.8661C46.8504 47.0578 48.1253 48.2808 48.9594 49.8018C50.1713 52.0283 50.2972 54.8193 49.2742 57.1399C48.9909 57.7671 48.6289 58.3786 48.0938 58.8176C47.6374 59.1783 47.0865 59.4135 46.5199 59.586C44.6313 60.1661 42.6167 60.2288 40.6494 60.2915C38.2098 60.3699 35.7231 60.6992 33.4095 59.68H33.3938Z" fill="white"/>
<path d="M32.3235 52.6086C31.5837 53.7062 28.5934 56.0268 27.2556 54.9606C26.1067 54.0355 26.327 51.6051 26.2483 50.288C26.2011 49.5511 26.2326 48.7044 26.8149 48.2497C27.35 47.842 28.1055 47.9361 28.7665 48.0772C29.3646 48.1869 29.9626 48.3124 30.5607 48.4221C31.2847 48.5632 32.0874 48.7514 32.5281 49.3472C32.8743 49.8176 32.9215 50.4605 32.8586 51.0407C32.7956 51.6051 32.654 52.1696 32.3392 52.6243L32.3235 52.6086Z" fill="#F39B4A"/>
<path d="M46.7401 54.5373C47.0234 54.7411 47.3697 54.8195 47.7159 54.8979C48.2511 55.0077 48.8176 55.1331 49.3685 55.0234C50.1554 54.8666 51.4145 53.6279 51.2572 52.7341C51.147 52.154 50.5961 52.1853 50.3286 51.7777C49.9981 51.2916 50.061 50.7428 49.9194 50.2097C49.7934 49.7236 49.6203 49.2062 49.2741 48.8455C48.975 48.5319 48.5658 48.3595 48.1724 48.187C47.0706 47.7166 46.0476 47.7793 45.2922 48.8142C44.7413 49.5668 44.6941 50.6017 44.9459 51.4954C45.1977 52.3892 45.7171 53.1888 46.2522 53.9728C46.3939 54.1767 46.5513 54.3962 46.7716 54.5687L46.7401 54.5373Z" fill="#F39B4A"/>
</g>
<path d="M32.6069 55.7285C32.6384 56.7007 32.7328 57.6885 32.9374 58.6293C33.1106 59.4603 33.5198 60.307 34.3225 60.699C34.7474 60.9029 35.1881 60.9813 35.6445 60.997C36.0695 60.997 36.5416 60.9656 36.9508 60.8715C37.4387 60.7618 37.8637 60.4638 38.0998 60.0248C38.3044 59.6485 38.3988 59.2251 38.4617 58.8018C38.6349 57.7042 38.6821 56.5909 38.5562 55.4777C38.5404 55.3209 38.509 55.1798 38.383 55.0543C38.2729 54.9446 38.1155 54.8818 37.9581 54.8818C37.6748 54.8818 37.3286 55.1484 37.36 55.4777C37.4545 56.3557 37.4545 57.2338 37.36 58.1119C37.36 58.1746 37.36 58.2216 37.3443 58.2844C37.3443 58.3157 37.3443 58.3314 37.3443 58.3628C37.3443 58.4568 37.3443 58.253 37.3443 58.3628C37.3286 58.4725 37.3128 58.5823 37.2971 58.692C37.2656 58.8645 37.2341 59.0527 37.1869 59.2251C37.1869 59.2722 37.1554 59.3035 37.1397 59.3506C37.1397 59.3663 37.1397 59.3819 37.124 59.3976C37.1082 59.4603 37.1554 59.3349 37.1554 59.3349C37.124 59.3663 37.124 59.4133 37.1082 59.4447C37.0925 59.4917 37.061 59.5231 37.0295 59.5701C37.0295 59.5701 37.0138 59.6015 36.998 59.6171C36.998 59.6171 37.0767 59.5231 37.0295 59.5701C36.998 59.6015 36.9666 59.6328 36.9351 59.6642C37.0138 59.6171 36.9351 59.6642 36.9194 59.6642C36.8879 59.6799 36.8092 59.7112 36.7934 59.7269C36.8249 59.6799 36.8879 59.6955 36.8249 59.7269C36.8092 59.7269 36.7934 59.7269 36.762 59.7426C36.7147 59.7426 36.6675 59.7739 36.6203 59.7739C36.5731 59.7739 36.5416 59.7896 36.4944 59.8053C36.4629 59.8053 36.4472 59.8053 36.4157 59.8053C36.337 59.8053 36.4157 59.8053 36.4472 59.8053C36.3685 59.8367 36.2583 59.821 36.1796 59.8367C36.0852 59.8367 36.0065 59.8367 35.9121 59.8523C35.7389 59.8523 35.5501 59.8523 35.377 59.8523C35.3612 59.8523 35.3455 59.8523 35.314 59.8523C35.251 59.8523 35.377 59.8523 35.377 59.8523C35.3297 59.8523 35.2825 59.8523 35.251 59.8367C35.1566 59.821 35.0622 59.7896 34.9835 59.7583C34.952 59.7583 34.9205 59.7269 34.8733 59.7269C34.8733 59.7269 34.9992 59.7896 34.9048 59.7269C34.8891 59.7269 34.8733 59.7112 34.8576 59.6955C34.7789 59.6485 34.7002 59.6015 34.6372 59.5544C34.5743 59.5074 34.7159 59.6328 34.6687 59.5701C34.6687 59.5701 34.6372 59.5387 34.6215 59.5387C34.59 59.5074 34.5585 59.476 34.5271 59.4447C34.4956 59.4133 34.4798 59.3976 34.4484 59.3663C34.4484 59.3506 34.3854 59.2879 34.4484 59.3663C34.4011 59.3035 34.3697 59.2408 34.3225 59.1624C34.3067 59.1311 34.2752 59.084 34.2595 59.0527C34.2595 59.037 34.2595 59.0213 34.2438 59.0056C34.3225 59.1311 34.2752 59.0683 34.2438 59.0213C34.1808 58.8645 34.1336 58.692 34.0864 58.5195C34.0392 58.3157 34.0077 58.1276 33.9762 57.9237C33.9605 57.7983 33.9447 57.6885 33.929 57.5631C33.929 57.5474 33.9132 57.4376 33.929 57.516C33.9447 57.5944 33.929 57.4847 33.929 57.469C33.929 57.4063 33.9132 57.3436 33.9132 57.2808C33.8503 56.7791 33.8188 56.2773 33.8031 55.7599C33.8031 55.4463 33.5355 55.1641 33.205 55.1641C32.8745 55.1641 32.6069 55.415 32.6069 55.7599V55.7285Z" fill="#231F20"/>
<path d="M44.7731 55.7286C44.7731 56.1833 44.7258 56.6224 44.6786 57.0771C44.6786 57.1868 44.6629 57.2809 44.6472 57.3907C44.6472 57.422 44.6472 57.4377 44.6472 57.4691C44.6472 57.5318 44.6314 57.5945 44.6157 57.6572C44.5842 57.8454 44.5527 58.0335 44.5212 58.2374C44.4898 58.4098 44.4425 58.5823 44.3953 58.7548C44.3639 58.8332 44.3481 58.9116 44.3166 58.99L44.2852 59.0527C44.2852 59.0527 44.3324 58.943 44.3009 58.99C44.2852 59.037 44.2537 59.0841 44.2379 59.1154C44.2065 59.1782 44.1593 59.2566 44.112 59.3193C44.112 59.335 44.0806 59.3663 44.0648 59.382C44.0648 59.382 44.1435 59.2879 44.0963 59.335C44.0648 59.3663 44.0333 59.4134 44.0019 59.4447C43.9704 59.4761 43.9546 59.4918 43.9232 59.5231C43.9074 59.5388 43.8917 59.5545 43.8602 59.5702C43.813 59.6172 43.9074 59.5388 43.9074 59.5388C43.8287 59.5702 43.7658 59.6329 43.6871 59.6799C43.6714 59.6799 43.5297 59.7583 43.6241 59.7113C43.7028 59.6799 43.5769 59.7113 43.5612 59.727C43.4825 59.7583 43.3881 59.774 43.3094 59.7897C43.2621 59.7897 43.2149 59.7897 43.1835 59.8054C43.1205 59.8054 43.2464 59.8054 43.2464 59.8054H43.1677C43.0733 59.8054 42.9946 59.8054 42.9002 59.8054C42.7113 59.8054 42.5382 59.8054 42.3493 59.7897C42.2706 59.7897 42.1762 59.774 42.0975 59.7583C42.0345 59.7583 42.1604 59.7583 42.1604 59.7583C42.129 59.7583 42.0975 59.7583 42.0817 59.7583C42.0345 59.7583 41.9716 59.7426 41.9243 59.727C41.8771 59.727 41.8457 59.7113 41.7984 59.6956C41.767 59.6956 41.7512 59.6799 41.7197 59.6642C41.704 59.6642 41.6725 59.6329 41.6568 59.6172C41.6411 59.6172 41.6253 59.6015 41.6096 59.5858C41.5466 59.5545 41.6883 59.6642 41.6411 59.6172C41.6096 59.5858 41.5781 59.5545 41.5466 59.5231C41.4994 59.4604 41.4679 59.382 41.4207 59.3036C41.3892 59.2409 41.4522 59.3663 41.4522 59.3663C41.4522 59.3506 41.4364 59.3193 41.4207 59.3036C41.4207 59.2722 41.405 59.2409 41.3892 59.1938C41.3578 59.0998 41.342 59.0214 41.3263 58.9273C41.2791 58.7234 41.2476 58.5196 41.2161 58.3158C41.2161 58.253 41.2161 58.3471 41.2161 58.3471C41.2161 58.3158 41.2161 58.2844 41.2161 58.2531C41.2161 58.1903 41.2161 58.1276 41.2004 58.0649C41.2004 57.9395 41.1689 57.814 41.1689 57.6886C41.1532 57.4377 41.1374 57.2025 41.1374 56.9516C41.1374 56.4499 41.1532 55.9481 41.2161 55.462C41.2476 55.1484 40.9171 54.8662 40.618 54.8662C40.2718 54.8662 40.0672 55.1328 40.02 55.462C39.9098 56.4185 39.9255 57.375 40.0514 58.3315C40.1774 59.2879 40.319 60.3385 41.2948 60.7461C41.7197 60.9186 42.1919 60.9657 42.6326 60.9813C43.0575 60.997 43.4982 60.9813 43.9074 60.8402C44.3324 60.6991 44.7258 60.4639 45.0091 60.1033C45.2924 59.7426 45.4813 59.335 45.5915 58.9116C45.7331 58.4098 45.7961 57.8767 45.859 57.3593C45.922 56.8105 45.9692 56.2774 45.9849 55.7286C45.9849 55.415 45.7016 55.1328 45.3869 55.1328C45.0564 55.1328 44.8045 55.3836 44.7888 55.7286H44.7731Z" fill="#231F20"/>
<path d="M34.6372 58.849C34.6372 58.9588 34.6372 59.0685 34.6687 59.194C34.6687 59.2724 34.7002 59.3508 34.7159 59.4292C34.7474 59.5389 34.7946 59.6487 34.8418 59.7428C34.8733 59.8212 34.9205 59.8839 34.9677 59.9623C34.9992 60.0093 35.0307 60.0407 35.0622 60.0721C35.0936 60.1034 35.1408 60.1348 35.2038 60.1348C35.251 60.1504 35.314 60.1504 35.3612 60.1348C35.4084 60.1348 35.4556 60.1191 35.5028 60.0877C35.5815 60.0407 35.6602 59.9466 35.676 59.8525C35.6917 59.7585 35.6917 59.633 35.6287 59.5546C35.5658 59.4762 35.5186 59.3821 35.4871 59.2881L35.5343 59.3821C35.4714 59.2567 35.4399 59.1156 35.4241 58.9745V59.0842C35.4241 59.0842 35.4241 58.9274 35.4241 58.849C35.4241 58.802 35.4241 58.7393 35.3927 58.6922C35.3769 58.6452 35.3455 58.5981 35.314 58.5668C35.2825 58.5354 35.2353 58.5041 35.1881 58.4884C35.1408 58.457 35.0936 58.457 35.0307 58.457C34.9362 58.457 34.8261 58.4884 34.7474 58.5668C34.6687 58.6452 34.6372 58.7393 34.6372 58.849Z" fill="#231F20"/>
<path d="M35.9435 59.2253L36.0852 60.0093C36.0852 60.0093 36.1166 60.1034 36.1481 60.1504C36.1796 60.1975 36.2111 60.2288 36.2583 60.2445C36.3055 60.2759 36.3527 60.2916 36.3999 60.2916C36.4472 60.2916 36.5101 60.2916 36.5573 60.2916L36.6518 60.2445C36.6518 60.2445 36.7619 60.1661 36.7934 60.1034L36.8406 60.0093C36.8406 60.0093 36.8564 59.8682 36.8406 59.8055L36.699 59.0215C36.699 59.0215 36.6675 58.9274 36.636 58.8804C36.6045 58.8333 36.5731 58.802 36.5259 58.7863C36.4786 58.7549 36.4314 58.7393 36.3842 58.7393C36.337 58.7393 36.274 58.7393 36.2268 58.7393L36.1324 58.7863C36.1324 58.7863 36.0222 58.8647 35.9907 58.9274L35.9435 59.0215C35.9435 59.0215 35.9278 59.1626 35.9435 59.2253Z" fill="#231F20"/>
<path d="M41.8299 58.7548C41.7985 58.8646 41.7827 58.9743 41.7827 59.0841C41.7827 59.1625 41.7827 59.2409 41.7827 59.335C41.7827 59.4447 41.8142 59.5545 41.8457 59.6642C41.8771 59.774 41.9244 59.8838 41.9716 59.9778C42.0031 60.0249 42.0345 60.0562 42.066 60.0876C42.0975 60.119 42.1447 60.1503 42.2077 60.1503C42.2549 60.166 42.3178 60.166 42.365 60.1503C42.4123 60.1503 42.4595 60.1346 42.5067 60.1033C42.5854 60.0562 42.6641 59.9622 42.6798 59.8681V59.7583C42.6798 59.7583 42.6798 59.6172 42.6326 59.5545C42.6326 59.5388 42.6169 59.5231 42.6011 59.4918L42.6483 59.5858C42.6011 59.4761 42.5697 59.3663 42.5539 59.2409V59.3506C42.5539 59.2252 42.5539 59.1154 42.5539 58.99V59.0998C42.5539 59.0998 42.5539 58.99 42.5697 58.943C42.5854 58.8959 42.5854 58.8332 42.5697 58.7862C42.5697 58.7391 42.5539 58.6921 42.5224 58.6451C42.491 58.598 42.4595 58.5667 42.428 58.5353C42.3965 58.5039 42.3493 58.4726 42.2864 58.4726C42.1919 58.4569 42.066 58.4569 41.9873 58.5196C41.9086 58.5823 41.8299 58.6607 41.8142 58.7548H41.8299Z" fill="#231F20"/>
<path d="M43.1204 59.0843C43.1204 59.0843 43.1362 59.1783 43.1519 59.2097V59.0999C43.1519 59.2254 43.1519 59.3508 43.1519 59.4606V59.3508C43.1519 59.4763 43.1204 59.586 43.0732 59.6958L43.1204 59.6017C43.1204 59.6017 43.1047 59.6487 43.089 59.6644C43.0575 59.7115 43.0417 59.7585 43.0417 59.8055C43.0417 59.8526 43.0417 59.9153 43.0417 59.9623C43.0417 60.0094 43.0732 60.0564 43.1047 60.1035C43.1362 60.1505 43.1677 60.1819 43.2149 60.1975C43.3093 60.2446 43.4195 60.2759 43.5139 60.2446C43.6083 60.2132 43.7028 60.1505 43.75 60.0721C43.7972 59.978 43.8444 59.8683 43.8759 59.7585C43.9074 59.6487 43.9231 59.539 43.9389 59.4292C43.9389 59.3508 43.9389 59.2724 43.9389 59.194C43.9389 59.0843 43.9231 58.9745 43.8916 58.8648C43.8916 58.8177 43.8602 58.7707 43.8287 58.7236C43.7972 58.6766 43.7657 58.6452 43.7185 58.6296C43.6713 58.5982 43.6241 58.5825 43.5769 58.5825C43.5296 58.5825 43.4667 58.5825 43.4195 58.5825C43.325 58.6139 43.2306 58.6766 43.1834 58.755L43.1362 58.8491C43.1362 58.8491 43.1204 58.9902 43.1362 59.0529L43.1204 59.0843Z" fill="#231F20"/>
<path d="M28.1686 50.3976C27.8224 53.2513 28.027 56.403 30.1517 58.5825C30.6554 59.0999 31.2534 59.5389 31.9302 59.8212C32.2292 59.9466 32.5597 59.9152 32.7329 59.6173C32.8745 59.3664 32.8116 58.9431 32.5283 58.8176C31.458 58.3629 30.6868 57.5946 30.136 56.5911C29.5222 55.4935 29.2546 54.1921 29.2231 52.8907C29.2074 52.0597 29.2704 51.2286 29.3648 50.3976C29.3963 50.084 29.0657 49.8018 28.7667 49.8018C28.4205 49.8018 28.2159 50.0683 28.1686 50.3976Z" fill="#231F20"/>
<path d="M46.8819 59.7115C48.3771 59.4763 49.5575 58.4258 50.1241 57.0616C50.3917 56.4031 50.549 55.7132 50.6435 55.0076C50.7536 54.2549 50.8166 53.5023 50.7694 52.7497C50.7064 51.8716 50.5018 51.0249 50.0926 50.2566C49.9352 49.9743 49.5575 49.8959 49.2899 50.0527C49.0066 50.2252 48.928 50.5702 49.0853 50.8524C49.6834 51.9657 49.6992 53.2828 49.5418 54.5372C49.4001 55.6818 49.1168 56.9832 48.2669 57.7986C47.8105 58.2376 47.2439 58.4885 46.5829 58.5826C46.2681 58.6296 46.095 59.0216 46.1737 59.3038C46.2681 59.6331 46.5829 59.7585 46.8977 59.7115H46.8819Z" fill="#231F20"/>
<mask id="mask1_188_2343" style="mask-type:luminance" maskUnits="userSpaceOnUse" x="18" y="11" width="44" height="42">
<path d="M20.677 17.5323C20.6298 20.2762 21.1492 23.0202 22.188 25.5603C22.487 26.2816 22.5499 26.752 22.1407 27.4105C21.3695 28.6492 20.9131 30.0761 20.8344 31.5343C20.7557 32.8044 20.8816 33.7922 20.315 34.9368C19.7484 36.0815 19.3392 37.3829 18.8199 38.5746C18.568 39.1547 17.5765 40.9892 19.2133 40.5032C19.9845 40.2837 20.5511 39.6721 21.3695 39.5781C21.1492 41.2715 20.7085 43.1844 21.2908 44.8465C21.3695 45.0974 21.4954 45.3639 21.7473 45.4737C22.0148 45.5991 22.3453 45.4737 22.5342 45.2542C22.7231 45.0346 22.8332 44.7524 22.9277 44.4702C23.1795 45.2385 23.5257 45.9911 24.0923 46.5713C25.0839 47.5904 26.1226 46.9633 27.1457 47.5434C27.4919 47.7472 27.6808 48.1549 28.0113 48.3901C28.5621 48.7978 29.3333 49.0016 29.9944 49.1427C31.3951 49.472 32.8746 49.5975 34.1809 50.2247C36.2899 51.2438 38.1628 51.9965 40.5551 52.0278C41.3892 52.0278 42.2391 51.9808 43.0418 51.7142C44.0333 51.385 44.899 50.7578 45.7646 50.1619C47.5903 48.9232 49.7622 47.512 51.9027 46.9162C52.0601 47.2612 52.3276 47.6532 52.7683 47.6845C53.2247 47.7159 53.6497 47.4337 53.9959 47.1357C54.6255 46.6026 55.1763 45.9597 55.6013 45.2542C55.6485 45.1758 55.7115 45.0817 55.8059 45.066C55.9003 45.0346 55.9948 45.0974 56.0892 45.1287C56.6243 45.3639 57.2696 45.0346 57.5844 44.5486C58.0408 43.843 58.2139 43.0119 58.2769 42.1809C58.3398 41.3499 57.9778 40.4718 58.2769 39.7349C58.7018 40.0485 59.2212 40.2523 59.7406 40.3307C60.0868 40.3777 60.4488 40.3621 60.7793 40.2209C61.1099 40.0798 61.3617 39.7662 61.3774 39.4213C61.4089 38.8725 60.9525 38.6373 60.7164 38.2296C60.4016 37.7122 60.1183 37.0693 59.9452 36.4891C59.1897 33.9804 59.2999 31.2364 58.0251 28.8844C57.3483 27.6144 56.2466 26.3443 56.5299 24.9331C56.7502 23.8983 57.5214 23.2554 57.8362 22.2832C58.1667 21.2327 58.1195 20.1038 58.0408 19.0218C57.9306 17.6734 57.7732 16.3249 57.5529 14.9921C57.3955 14.0043 57.1909 13.0008 56.6873 12.1227C56.4354 11.6994 56.0262 11.2603 55.5383 11.3387C54.9875 11.4171 54.6884 12.0443 54.3579 12.4207C53.9172 12.9067 53.3979 13.2987 52.8942 13.7221C51.7453 14.6785 50.5964 15.635 49.4474 16.5915C48.393 17.4695 47.4171 18.4574 45.9849 18.0811C43.8602 17.5009 41.3735 16.9835 39.17 17.0462C36.9666 17.1089 34.8891 17.642 32.7801 18.0654C32.1034 18.2065 31.4266 18.6299 30.7498 18.2692C30.5137 18.1438 30.3249 17.9556 30.136 17.7831C29.0343 16.7796 27.8696 15.9956 26.7837 14.9921C25.6977 13.9886 24.4386 13.1733 23.2582 12.2795C22.188 11.4799 21.3538 12.5931 21.1335 13.581C20.8502 14.8824 20.6928 16.2152 20.677 17.5636V17.5323Z" fill="white"/>
</mask>
<g mask="url(#mask1_188_2343)">
<path d="M20.677 17.5323C20.6298 20.2762 21.1492 23.0202 22.188 25.5603C22.487 26.2816 22.5499 26.752 22.1407 27.4105C21.3695 28.6492 20.9131 30.0761 20.8344 31.5343C20.7557 32.8044 20.8816 33.7922 20.315 34.9368C19.7484 36.0815 19.3392 37.3829 18.8199 38.5746C18.568 39.1547 17.5765 40.9892 19.2133 40.5032C19.9845 40.2837 20.5511 39.6721 21.3695 39.5781C21.1492 41.2715 20.7085 43.1844 21.2908 44.8465C21.3695 45.0974 21.4954 45.3639 21.7473 45.4737C22.0148 45.5991 22.3453 45.4737 22.5342 45.2542C22.7231 45.0346 22.8332 44.7524 22.9277 44.4702C23.1795 45.2385 23.5257 45.9911 24.0923 46.5713C25.0839 47.5904 26.1226 46.9633 27.1457 47.5434C27.4919 47.7472 27.6808 48.1549 28.0113 48.3901C28.5621 48.7978 29.3333 49.0016 29.9944 49.1427C31.3951 49.472 32.8746 49.5975 34.1809 50.2247C36.2899 51.2438 38.1628 51.9965 40.5551 52.0278C41.3892 52.0278 42.2391 51.9808 43.0418 51.7142C44.0333 51.385 44.899 50.7578 45.7646 50.1619C47.5903 48.9232 49.7622 47.512 51.9027 46.9162C52.0601 47.2612 52.3276 47.6532 52.7683 47.6845C53.2247 47.7159 53.6497 47.4337 53.9959 47.1357C54.6255 46.6026 55.1763 45.9597 55.6013 45.2542C55.6485 45.1758 55.7115 45.0817 55.8059 45.066C55.9003 45.0346 55.9948 45.0974 56.0892 45.1287C56.6243 45.3639 57.2696 45.0346 57.5844 44.5486C58.0408 43.843 58.2139 43.0119 58.2769 42.1809C58.3398 41.3499 57.9778 40.4718 58.2769 39.7349C58.7018 40.0485 59.2212 40.2523 59.7406 40.3307C60.0868 40.3777 60.4488 40.3621 60.7793 40.2209C61.1099 40.0798 61.3617 39.7662 61.3774 39.4213C61.4089 38.8725 60.9525 38.6373 60.7164 38.2296C60.4016 37.7122 60.1183 37.0693 59.9452 36.4891C59.1897 33.9804 59.2999 31.2364 58.0251 28.8844C57.3483 27.6144 56.2466 26.3443 56.5299 24.9331C56.7502 23.8983 57.5214 23.2554 57.8362 22.2832C58.1667 21.2327 58.1195 20.1038 58.0408 19.0218C57.9306 17.6734 57.7732 16.3249 57.5529 14.9921C57.3955 14.0043 57.1909 13.0008 56.6873 12.1227C56.4354 11.6994 56.0262 11.2603 55.5383 11.3387C54.9875 11.4171 54.6884 12.0443 54.3579 12.4207C53.9172 12.9067 53.3979 13.2987 52.8942 13.7221C51.7453 14.6785 50.5964 15.635 49.4474 16.5915C48.393 17.4695 47.4171 18.4574 45.9849 18.0811C43.8602 17.5009 41.3735 16.9835 39.17 17.0462C36.9666 17.1089 34.8891 17.642 32.7801 18.0654C32.1034 18.2065 31.4266 18.6299 30.7498 18.2692C30.5137 18.1438 30.3249 17.9556 30.136 17.7831C29.0343 16.7796 27.8696 15.9956 26.7837 14.9921C25.6977 13.9886 24.4386 13.1733 23.2582 12.2795C22.188 11.4799 21.3538 12.5931 21.1335 13.581C20.8502 14.8824 20.6928 16.2152 20.677 17.5636V17.5323Z" fill="#F39B4A"/>
<path d="M52.3433 49.0173C52.4849 49.0486 52.658 49.0643 52.7997 49.0173C53.1459 48.9389 53.4292 48.688 53.6811 48.4371C54.7198 47.4179 55.5382 46.1792 56.0733 44.8308C56.0733 45.458 56.9705 45.7559 57.5056 45.4423C58.0407 45.1287 58.2768 44.4544 58.3712 43.8429C58.7175 41.7732 58.2925 40.3307 56.6399 39.0763C55.3022 38.0571 53.6338 37.3672 51.9655 37.132C49.5103 36.8027 45.9691 36.9438 44.0804 35.0466C42.9472 33.9019 42.4121 31.8479 41.9242 30.3426C41.515 29.0882 40.429 27.3007 38.8394 27.8182C36.3999 28.6178 36.4157 32.3496 34.9992 34.1371C32.8115 36.8968 28.0269 37.0536 24.8162 37.7435C23.6988 37.9787 22.5498 38.2923 21.7314 39.092C20.5668 40.2209 18.7411 42.8708 19.6224 44.5956C19.9844 45.2855 21.1491 45.4893 21.4796 44.7837C21.4796 45.7559 21.574 46.7437 21.7314 47.7002C21.7944 48.0608 21.8888 48.4685 22.1879 48.6723C22.5498 48.9232 23.0692 48.7978 23.3997 48.4998C23.7303 48.2019 23.9034 47.7786 24.0608 47.3709C24.6746 49.2054 26.6419 50.2089 28.5148 50.6793C30.0257 51.0556 31.6783 51.1811 33.1105 51.8083C34.6215 52.4825 35.9435 53.0627 37.6276 53.4233C39.8782 53.9094 41.7826 52.2787 43.687 51.4163C46.2681 50.256 49.2113 49.7229 51.8554 48.6566C51.9341 48.8448 52.1072 48.9545 52.3118 49.0173H52.3433Z" fill="white"/>
<path d="M54.9246 15.588C54.8459 15.5096 54.7358 15.4782 54.6098 15.5096C54.3895 15.5566 54.2164 15.7291 54.0747 15.9016C53.3035 16.7796 50.203 19.21 50.9112 20.6055C51.1001 20.9818 51.4621 21.2327 51.7611 21.5149C55.082 24.5882 55.6014 19.7431 55.3496 17.1873C55.3181 16.8737 55.2866 15.8859 54.9246 15.588Z" fill="white"/>
<path d="M27.4133 19.1159C26.7994 18.2692 25.6977 17.3598 25.3043 16.9051C24.9423 16.5131 24.1711 15.5566 23.5101 15.7291C22.1565 16.0897 23.0536 19.9783 23.2268 20.9348C23.3684 21.6717 23.5887 22.44 24.1081 22.9888C24.2183 23.1143 24.3599 23.224 24.5331 23.2397C25.2728 23.3024 27.7123 20.9661 27.8539 20.2449C27.9169 19.9156 27.728 19.5236 27.4133 19.1159Z" fill="white"/>
</g>
<path d="M29.8999 19.6336C35.4715 17.36 41.767 17.1719 47.4801 19.1318C48.2041 19.3827 48.5031 18.2381 47.7949 18.0029C41.9243 15.9802 35.3455 16.1527 29.6009 18.5046C29.3019 18.6301 29.0973 18.8966 29.1917 19.2259C29.2704 19.5081 29.6166 19.759 29.9157 19.6336H29.8999Z" fill="#231F20"/>
<path d="M22.5972 25.5921C21.4955 27.0817 20.8817 28.8535 20.4567 30.641C20.0318 32.4285 19.7957 34.1219 19.2291 35.7996C18.8986 36.7561 18.4579 37.6499 17.8756 38.4652C17.6867 38.7161 17.8284 39.1238 18.0802 39.2649C18.3792 39.4374 18.694 39.3119 18.8829 39.061C21.0391 36.0662 20.9761 32.2717 22.1722 28.9005C22.5185 27.9284 22.9907 27.0189 23.6045 26.2036C23.7933 25.9527 23.6517 25.545 23.3999 25.4039C23.1008 25.2315 22.7861 25.3569 22.5972 25.6078V25.5921Z" fill="#231F20"/>
<path d="M55.8059 26.1879C56.9548 27.7402 57.6631 29.5277 58.151 31.3779C58.5917 33.04 58.6704 34.7648 59.1268 36.4268C59.3943 37.4147 59.8036 38.3084 60.4331 39.1238C60.622 39.3746 61.0626 39.3276 61.2673 39.1238C61.5191 38.8729 61.4561 38.5436 61.2673 38.2927C60.26 36.9913 60.0396 35.2352 59.8036 33.6515C59.536 31.864 59.1268 30.1236 58.4343 28.4615C58.0093 27.4423 57.5057 26.4858 56.8447 25.6078C56.6558 25.3569 56.341 25.2315 56.042 25.4039C55.7902 25.545 55.6328 25.9527 55.8374 26.2036L55.8059 26.1879Z" fill="#231F20"/>
<path d="M22.487 12.4991C24.4072 14.1298 26.3116 15.7762 28.2789 17.3598C28.7983 17.7832 29.3334 18.2065 29.8528 18.6142C30.0889 18.8024 30.4508 18.8651 30.6869 18.6142C30.8758 18.3947 30.9387 17.987 30.6869 17.7832C28.9399 16.3877 27.2087 14.9922 25.5089 13.5339C24.7849 12.9067 24.0452 12.2952 23.3212 11.668C23.0851 11.4642 22.7074 11.4172 22.487 11.668C22.2824 11.8876 22.2352 12.2796 22.487 12.4991Z" fill="#231F20"/>
<path d="M54.9245 11.3703C52.9571 13.1735 50.8639 14.8199 48.7864 16.4819C48.2513 16.9053 47.7161 17.3443 47.1968 17.7834C46.9449 17.9872 46.9922 18.4106 47.1968 18.6144C47.4328 18.8496 47.7791 18.8182 48.0309 18.6144C49.9825 16.968 52.0286 15.4314 53.9802 13.7693C54.5782 13.2519 55.1763 12.7345 55.7744 12.1857C56.0105 11.9662 55.9947 11.5742 55.7744 11.3547C55.5383 11.1195 55.1763 11.1351 54.9402 11.3547L54.9245 11.3703Z" fill="#231F20"/>
<path d="M20.7399 13.1262C19.89 16.4503 19.9372 20.1665 20.9445 23.4592C21.2121 24.3686 21.5741 25.2467 22.0462 26.0777C22.424 26.7363 23.4312 26.1405 23.0693 25.4819C21.4954 22.6752 21.1491 19.21 21.4482 16.0584C21.5269 15.1803 21.6842 14.3022 21.8888 13.4555C22.0777 12.7186 20.9445 12.405 20.7557 13.1419L20.7399 13.1262Z" fill="#231F20"/>
<path d="M56.3569 12.2328C57.4429 15.5256 57.7734 19.2574 56.7818 22.6285C56.5143 23.538 56.1365 24.416 55.6329 25.2157C55.2237 25.8586 56.2467 26.4544 56.6559 25.8115C58.6547 22.6285 58.8436 18.5675 58.2455 14.9454C58.0724 13.9262 57.8363 12.907 57.5058 11.9192C57.2697 11.1979 56.1365 11.5115 56.3726 12.2328H56.3569Z" fill="#231F20"/>
<path d="M25.9811 22.7067C26.044 22.597 26.1227 22.5029 26.2014 22.3932C26.2171 22.3775 26.2329 22.3461 26.2486 22.3304C26.2172 22.3775 26.2172 22.3618 26.2486 22.3148C26.2801 22.2677 26.3273 22.2207 26.3588 22.1736C26.5162 21.9855 26.6736 21.813 26.8467 21.6405C27.0198 21.468 27.193 21.3112 27.3818 21.1544C27.3818 21.1544 27.5235 21.0447 27.4448 21.1074C27.492 21.076 27.5392 21.0447 27.5864 20.9976C27.6966 20.9193 27.8068 20.8409 27.9169 20.7625C28.2632 20.5429 28.2789 20.1509 28.0428 19.8373C26.7523 18.191 25.3673 16.623 23.9036 15.1491C23.6832 14.9296 23.2897 14.9139 23.0694 15.1491C22.8491 15.3843 22.8333 15.7449 23.0694 15.9801C24.5331 17.4697 25.9181 19.0377 27.2087 20.6684L27.3346 19.7433C26.3903 20.3548 25.5876 21.1544 24.9423 22.0796C24.7692 22.3304 24.8794 22.7381 25.1469 22.8792C25.446 23.036 25.7765 22.9419 25.9496 22.6754L25.9811 22.7067Z" fill="#231F20"/>
<path d="M54.295 15.0394C53.3979 15.745 52.5323 16.4976 51.7454 17.3287C51.2889 17.8147 50.8483 18.3322 50.5177 18.9123C50.2344 19.3984 50.0141 20.0099 50.1872 20.5744C50.3289 21.0134 50.6909 21.3584 51.0371 21.6563C51.4463 22.0012 51.887 22.3148 52.249 22.7225C52.4536 22.9577 52.8786 22.942 53.0832 22.7225C53.3035 22.4716 53.3035 22.1424 53.0832 21.8915C52.7841 21.5465 52.4064 21.28 52.0601 20.9821C51.887 20.8409 51.7296 20.6998 51.5722 20.543C51.4935 20.4646 51.4306 20.3862 51.3676 20.3078C51.4463 20.3862 51.3519 20.2608 51.3204 20.2294C51.2732 20.151 51.3676 20.2137 51.3519 20.2921C51.3519 20.2921 51.3362 20.2451 51.3362 20.2294C51.3362 20.2137 51.3362 20.1824 51.3362 20.1667C51.3047 20.0726 51.3834 20.1667 51.3362 20.2294C51.3362 20.1981 51.3362 20.1197 51.3362 20.0883C51.3362 20.0569 51.3362 20.0413 51.3362 20.0099C51.3362 19.9158 51.3047 20.1824 51.3362 20.0413C51.3676 19.9315 51.3834 19.8374 51.4306 19.7434C51.4621 19.665 51.4778 19.712 51.4149 19.7747C51.4149 19.7747 51.4463 19.712 51.4463 19.6963C51.4778 19.6336 51.5093 19.5709 51.5408 19.5082C51.6037 19.3984 51.6667 19.2886 51.7454 19.1789C51.7768 19.1162 51.8241 19.0691 51.8713 19.0064C51.887 18.975 51.9185 18.9437 51.9342 18.9123C51.9342 18.8966 51.9657 18.881 51.9814 18.8496C52.0129 18.8026 52.0129 18.8182 51.95 18.881C52.0444 18.8026 52.1231 18.6614 52.2175 18.5674C52.3277 18.4419 52.4379 18.3165 52.548 18.1911C52.9887 17.7207 53.4609 17.2816 53.933 16.8583C54.3265 16.5133 54.7357 16.184 55.1449 15.8548C55.381 15.6666 55.3653 15.2276 55.1449 15.0237C54.8931 14.7885 54.5626 14.8199 54.3108 15.0237L54.295 15.0394Z" fill="#231F20"/>
<path d="M36.6675 42.8082C37.8637 43.5138 39.2959 43.7333 40.6494 43.4824C41.0114 43.4197 41.3577 43.3099 41.6882 43.1688C41.8298 43.1061 41.9557 43.0434 42.0344 42.9022C42.1131 42.7768 42.1446 42.5886 42.0974 42.4475C42.0502 42.3064 41.9557 42.1653 41.8298 42.1026C41.7039 42.0399 41.5151 41.9771 41.3734 42.0399C41.0114 42.1967 40.6494 42.2907 40.2559 42.3691C40.2087 42.3691 40.1615 42.3691 40.1143 42.3848C40.2874 42.3378 40.13 42.3848 40.0828 42.3848C39.9884 42.3848 39.8782 42.4005 39.7838 42.4005C39.5949 42.4005 39.4061 42.4005 39.2172 42.4005C39.1228 42.4005 39.0126 42.3848 38.9182 42.3691C39.0598 42.3848 38.7922 42.3691 38.9182 42.3691C38.8709 42.3691 38.8395 42.3691 38.7922 42.3535C38.6034 42.3221 38.3988 42.2751 38.2099 42.2123C38.1312 42.181 38.0368 42.1653 37.9581 42.1339C37.9109 42.1183 37.8637 42.1026 37.8164 42.0869C37.8007 42.0869 37.7692 42.0712 37.7535 42.0555C37.8322 42.0869 37.8479 42.1026 37.785 42.0555C37.5961 41.9771 37.423 41.8831 37.2499 41.789C36.9823 41.6322 36.5888 41.7263 36.4472 41.9928C36.3055 42.2594 36.3685 42.6357 36.6518 42.7925L36.6675 42.8082Z" fill="#231F20"/>
<path d="M32.6227 34.106C33.4746 34.106 34.1651 33.418 34.1651 32.5693C34.1651 31.7207 33.4746 31.0327 32.6227 31.0327C31.7709 31.0327 31.0803 31.7207 31.0803 32.5693C31.0803 33.418 31.7709 34.106 32.6227 34.106Z" fill="#231F20"/>
<path d="M47.2597 34.106C48.1115 34.106 48.8021 33.418 48.8021 32.5693C48.8021 31.7207 48.1115 31.0327 47.2597 31.0327C46.4078 31.0327 45.7173 31.7207 45.7173 32.5693C45.7173 33.418 46.4078 34.106 47.2597 34.106Z" fill="#231F20"/>
<path d="M39.5478 35.1877C40.3128 35.1877 40.9329 34.8016 40.9329 34.3253C40.9329 33.849 40.3128 33.4629 39.5478 33.4629C38.7829 33.4629 38.1628 33.849 38.1628 34.3253C38.1628 34.8016 38.7829 35.1877 39.5478 35.1877Z" fill="#231F20"/>
<path d="M37.5174 37.8062C38.808 37.8532 40.0041 36.6145 39.8467 35.3288L39.0755 35.4385C39.2644 36.0971 39.5477 36.8027 40.0985 37.2574C40.6494 37.7121 41.4363 37.9159 42.1131 37.6023C42.302 37.5083 42.3649 37.226 42.2547 37.0692C42.1288 36.8811 41.9242 36.834 41.7196 36.9281C41.6409 36.9595 41.7668 36.9281 41.6881 36.9281C41.6567 36.9281 41.6252 36.9438 41.5937 36.9595C41.5622 36.9751 41.5308 36.9595 41.4993 36.9751C41.5937 36.9595 41.4993 36.9751 41.4678 36.9751C41.4049 36.9751 41.3419 36.9751 41.2789 36.9751C41.2475 36.9751 41.2632 36.9751 41.3104 36.9751C41.2947 36.9751 41.2789 36.9751 41.2632 36.9751C41.2317 36.9751 41.2002 36.9751 41.1688 36.9595C41.1058 36.9438 41.0271 36.9124 40.9642 36.8967C41.0271 36.9281 40.9642 36.8967 40.9327 36.8967C40.9012 36.8967 40.8697 36.8654 40.8383 36.8497C40.7753 36.8183 40.7281 36.787 40.6651 36.7399C40.6022 36.6929 40.7123 36.787 40.6337 36.7243C40.6022 36.7086 40.5864 36.6772 40.555 36.6615C40.5077 36.6145 40.4605 36.5675 40.4133 36.5047C40.3976 36.4734 40.3661 36.4577 40.3504 36.4263C40.3976 36.4891 40.3346 36.395 40.3346 36.395C40.2559 36.2852 40.1772 36.1598 40.1143 36.0344C40.0828 35.9716 40.0513 35.9089 40.0198 35.8462C40.0513 35.9246 40.0198 35.8148 40.0198 35.7992C40.0198 35.7678 39.9884 35.7364 39.9884 35.7051C39.9411 35.564 39.8939 35.4072 39.8467 35.266C39.7838 35.0779 39.6106 34.9524 39.4218 34.9838C39.2486 34.9995 39.0598 35.172 39.0755 35.3758C39.0755 35.4385 39.0755 35.5012 39.0755 35.564C39.0755 35.5953 39.0755 35.6267 39.0755 35.658C39.0755 35.658 39.0755 35.7835 39.0755 35.7208C39.0755 35.658 39.0755 35.7678 39.0755 35.7678C39.0755 35.7992 39.0755 35.8305 39.0598 35.8619C39.0598 35.9246 39.0283 35.9873 39.0126 36.0344C39.0126 36.0344 38.9653 36.1441 38.9968 36.0814C39.0283 36.0187 38.9653 36.1441 38.9653 36.1441C38.9339 36.2068 38.9024 36.2539 38.8709 36.3009C38.8394 36.3479 38.808 36.4107 38.7607 36.4577C38.808 36.4107 38.7607 36.4577 38.745 36.4734C38.7293 36.5047 38.6978 36.5204 38.6821 36.5361C38.6348 36.5831 38.5876 36.6302 38.5561 36.6615C38.5404 36.6772 38.5089 36.7086 38.4932 36.7243C38.4145 36.787 38.5561 36.6772 38.4774 36.7243C38.383 36.8027 38.2728 36.8497 38.1627 36.9124C38.084 36.9595 38.2256 36.8967 38.1469 36.9124C38.1155 36.9124 38.084 36.9281 38.0525 36.9438C37.9895 36.9595 37.9423 36.9751 37.8794 36.9908C37.8479 36.9908 37.8164 36.9908 37.7692 37.0065C37.7377 37.0065 37.7535 37.0065 37.8007 37.0065C37.8007 37.0065 37.7692 37.0065 37.7535 37.0065C37.6905 37.0065 37.6118 37.0065 37.5489 37.0065C37.3443 37.0065 37.1397 37.1947 37.1554 37.3985C37.1554 37.618 37.3285 37.7748 37.5489 37.7905L37.5174 37.8062Z" fill="#231F20"/>
<path d="M18.4106 40.974C19.4493 40.9113 20.4566 40.5664 21.2908 39.9549C21.5426 39.7667 21.7787 39.5785 21.999 39.359C22.2193 39.1395 22.2351 38.7475 21.999 38.528C21.7629 38.3085 21.4009 38.2928 21.1649 38.528C21.0075 38.6848 20.8501 38.8259 20.677 38.9513L20.8029 38.8573C20.4566 39.1238 20.0789 39.3277 19.6854 39.5001L19.8271 39.4374C19.4336 39.6099 19.0086 39.7197 18.5837 39.7824H18.7411C18.6309 39.7824 18.5207 39.7824 18.4106 39.7824C18.2532 39.7824 18.1115 39.8451 17.9856 39.9549C17.8755 40.0646 17.8125 40.2214 17.8125 40.3782C17.8125 40.535 17.8755 40.6918 17.9856 40.8016C18.0958 40.9113 18.2532 40.9897 18.4106 40.974Z" fill="#231F20"/>
<path d="M20.803 40.6602C20.3623 41.7735 20.3309 43.0122 20.5669 44.1882C20.6142 44.4704 20.6929 44.737 20.7716 45.0192C20.866 45.3328 20.9762 45.6464 21.1965 45.9129C21.4326 46.1952 21.826 46.3363 22.188 46.2579C22.613 46.1795 22.7861 45.8189 22.9278 45.4739C23.2111 44.7997 23.4944 44.1411 23.7777 43.4669L22.613 43.3101C22.5028 44.3606 22.613 45.4582 23.1481 46.3833C23.6045 47.1987 24.3915 47.8729 25.32 48.0611C25.6191 48.1238 25.9653 47.967 26.044 47.6534C26.107 47.3555 25.9496 46.9948 25.6348 46.9321C25.5404 46.9164 25.446 46.8851 25.3515 46.8537C25.32 46.8537 25.1941 46.791 25.3043 46.8537C25.2728 46.838 25.2256 46.8224 25.1941 46.8067C25.1154 46.7596 25.0367 46.7283 24.9581 46.6812C24.9108 46.6499 24.8794 46.6342 24.8321 46.6028C24.7062 46.5088 24.9108 46.6812 24.8007 46.5715C24.659 46.446 24.5331 46.3049 24.3915 46.1638C24.3442 46.1168 24.4387 46.2422 24.3915 46.1481C24.36 46.1011 24.3285 46.0697 24.3128 46.0227C24.2656 45.9443 24.2026 45.8502 24.1554 45.7718C24.1396 45.7248 24.1082 45.6777 24.0924 45.6464C24.0924 45.6464 24.0295 45.5053 24.0609 45.568C24.0609 45.5993 24.0609 45.5837 24.0609 45.5209C24.0609 45.4896 24.0452 45.4582 24.0295 45.4425C24.0137 45.3955 23.998 45.3485 23.9823 45.3014C23.9508 45.1917 23.9193 45.0662 23.8878 44.9565C23.8878 44.8937 23.8563 44.8467 23.8563 44.784C23.8563 44.7683 23.8249 44.5958 23.8563 44.7056C23.7934 44.2509 23.8091 43.7962 23.8563 43.3414C23.8878 43.0592 23.6045 42.7927 23.337 42.7613C23.0222 42.7143 22.8018 42.9024 22.6917 43.1847C22.4241 43.8118 22.1566 44.439 21.9047 45.0662C21.889 45.1133 21.8733 45.1446 21.8575 45.1917C21.8733 45.1446 21.8733 45.1446 21.8575 45.2073C21.826 45.2701 21.826 45.2701 21.8575 45.2073C21.889 45.176 21.9205 45.1603 21.9677 45.1446C22.0149 45.1289 22.0621 45.1289 22.1093 45.1446C22.1723 45.176 22.188 45.176 22.1251 45.1446C22.188 45.1917 22.188 45.1917 22.1251 45.1446C22.1566 45.1917 22.1566 45.1917 22.1251 45.1446C22.1093 45.1133 22.0936 45.0819 22.0779 45.0505C22.1093 45.1133 22.1093 45.0976 22.0779 45.0505C22.0621 44.9721 22.0307 44.9094 21.9992 44.831C21.952 44.6899 21.9205 44.5488 21.8733 44.4077C21.7159 43.7805 21.6529 43.3571 21.6687 42.7143C21.6687 42.5731 21.6687 42.4163 21.7001 42.2752C21.7001 42.2595 21.7316 42.0243 21.7001 42.1498C21.7001 42.0714 21.7316 41.993 21.7474 41.9146C21.8103 41.6167 21.889 41.3188 22.0149 41.0208C22.1408 40.7229 21.889 40.3623 21.6057 40.2996C21.2595 40.2212 21.0076 40.4093 20.8817 40.7072L20.803 40.6602Z" fill="#231F20"/>
<path d="M25.8235 45.5208C25.6032 47.1515 26.7836 48.4999 28.1056 49.2839C29.4277 50.0679 30.9071 50.3658 32.3866 50.601C33.3309 50.7578 34.2752 50.8833 35.1881 51.1342C35.9278 51.338 36.2426 50.1934 35.5028 50.0052C34.0234 49.5975 32.481 49.4878 31.0016 49.1428C29.8054 48.8606 28.625 48.4215 27.7751 47.5435C27.5233 47.2926 27.3187 47.0104 27.1613 46.6968C27.0197 46.4302 26.941 46.0853 26.9724 45.8187C27.0197 45.5051 26.8938 45.1915 26.5632 45.0974C26.2799 45.019 25.8865 45.1915 25.8393 45.5051L25.8235 45.5208Z" fill="#231F20"/>
<path d="M57.238 40.8798C57.238 40.8798 57.2695 41.0209 57.2695 41.0993C57.2695 41.1307 57.2695 41.162 57.2695 41.1934C57.2695 41.1463 57.2695 41.1463 57.2695 41.2247C57.2695 41.3502 57.301 41.4756 57.301 41.6011C57.3167 41.8676 57.3167 42.1499 57.301 42.4164C57.2695 42.9338 57.1908 43.4042 57.0177 43.953C56.9862 44.0785 56.939 44.1882 56.8918 44.3137C56.939 44.1882 56.8918 44.3293 56.8761 44.345C56.8446 44.3921 56.8288 44.4391 56.7974 44.4861C56.7187 44.6116 56.8446 44.4548 56.7659 44.5332C56.7344 44.5645 56.7029 44.5959 56.6714 44.6273C56.7659 44.5332 56.6714 44.6273 56.64 44.6273C56.7187 44.5959 56.7187 44.5959 56.6557 44.6273C56.7344 44.6273 56.7501 44.6273 56.7029 44.6273C56.6872 44.6273 56.6557 44.6273 56.6242 44.6273C56.7029 44.6273 56.7029 44.6273 56.64 44.6273H56.6872C56.6872 44.6273 56.6242 44.6273 56.6085 44.5959C56.7187 44.6586 56.6085 44.5959 56.577 44.5645C56.5298 44.5175 56.5298 44.5175 56.577 44.5645C56.577 44.5489 56.5455 44.5175 56.5455 44.5018C56.5455 44.4861 56.5298 44.4548 56.5141 44.4391C56.5298 44.4861 56.5298 44.4705 56.5141 44.4077C56.5141 44.345 56.4826 44.2823 56.4668 44.2353C56.4826 44.3293 56.4668 44.1725 56.4668 44.1412C56.4668 44.0628 56.4668 43.9687 56.4668 43.8903C56.4668 43.5767 56.1993 43.2945 55.8688 43.2945C55.5383 43.2945 55.3022 43.5454 55.2707 43.8903C55.2707 43.9374 55.2707 43.9844 55.2707 44.0471C55.2707 44.0628 55.255 44.2039 55.2707 44.1255C55.2864 44.0471 55.2707 44.2039 55.255 44.2196C55.255 44.2666 55.255 44.298 55.2235 44.345C55.192 44.5332 55.1291 44.7057 55.0818 44.8781C55.0661 44.9252 55.0504 44.9722 55.0346 45.0193C55.0346 45.0193 54.9717 45.1604 55.0031 45.082C55.0346 45.0036 54.9717 45.1447 54.9717 45.1447C54.9559 45.1917 54.9244 45.2388 54.9087 45.2858C54.83 45.4583 54.7356 45.6151 54.6254 45.7719C54.5782 45.8346 54.531 45.913 54.4838 45.9757C54.5625 45.8816 54.468 45.9914 54.4523 46.0228C54.4208 46.0541 54.3893 46.1012 54.3579 46.1325C54.2319 46.2736 54.106 46.3991 53.9644 46.5245C53.9329 46.5559 53.9014 46.5872 53.87 46.6029C53.8385 46.6343 53.7755 46.6656 53.8542 46.6186C53.7755 46.6813 53.6968 46.7284 53.6181 46.7754C53.4607 46.8852 53.2876 46.9792 53.1145 47.0576C52.8312 47.1831 52.7368 47.6064 52.9099 47.8573C53.0988 48.1395 53.4135 48.2179 53.7126 48.0611C55.3179 47.2928 56.3882 45.6308 56.5141 43.859H55.3337C55.3651 44.4234 55.4281 45.0506 55.9002 45.4426C56.4039 45.866 57.0649 45.866 57.5528 45.4426C57.9305 45.1133 58.1194 44.5802 58.2611 44.1098C58.4184 43.561 58.5129 42.9966 58.5444 42.4478C58.5916 41.8049 58.5444 41.162 58.4184 40.5348C58.3555 40.2369 57.9778 40.0331 57.6945 40.1272C57.364 40.2369 57.2223 40.5192 57.2853 40.8484L57.238 40.8798Z" fill="#231F20"/>
<path d="M51.8398 45.7405C51.8398 45.7405 51.7611 45.8503 51.7297 45.913C51.7139 45.9287 51.6982 45.9601 51.6824 45.9757C51.7297 45.913 51.6824 45.9757 51.6824 45.9914C51.588 46.1012 51.4936 46.2109 51.3992 46.305C51.3047 46.3991 51.226 46.4775 51.1316 46.5559C51.0844 46.6029 51.0214 46.65 50.9742 46.6813C50.9427 46.7127 50.9113 46.7284 50.8798 46.7597C50.8011 46.8224 50.9427 46.7127 50.864 46.7597C50.4076 47.089 49.9197 47.3712 49.4318 47.6221C48.3773 48.1395 47.2599 48.5315 46.2368 49.096C45.623 49.4253 45.0564 49.833 44.5528 50.319C44.3325 50.5386 44.3167 50.9305 44.5528 51.1501C44.7889 51.3696 45.1509 51.3853 45.387 51.1501C45.4814 51.056 45.5916 50.9462 45.7017 50.8522C45.7489 50.8051 45.8119 50.7581 45.8749 50.711C45.9221 50.6797 45.9535 50.6483 46.0008 50.617C46.2368 50.4445 46.4887 50.2877 46.7562 50.1466C47.2756 49.8486 47.8265 49.5978 48.3773 49.3626C49.4318 48.9079 50.5178 48.4688 51.4464 47.7789C52.013 47.3556 52.5166 46.8695 52.9101 46.2893C53.0832 46.0385 52.973 45.6308 52.7055 45.4897C52.4064 45.3329 52.0759 45.4269 51.9028 45.6935L51.8398 45.7405Z" fill="#231F20"/>
<path d="M58.1509 40.0801C58.4657 40.3937 58.8592 40.6289 59.2841 40.77C59.5045 40.8484 59.7248 40.8798 59.9451 40.8955C60.1183 40.9111 60.2914 40.8955 60.4803 40.8955C60.6219 40.8798 60.7793 40.8641 60.9209 40.8171C61.0626 40.77 61.2042 40.723 61.3302 40.6603C61.4561 40.6132 61.5662 40.4407 61.5977 40.3153C61.6292 40.1742 61.6135 39.986 61.5348 39.8606C61.4561 39.7352 61.3302 39.6254 61.1885 39.594H61.0311C60.9209 39.5784 60.8265 39.594 60.7321 39.6568H60.7163C60.7163 39.6568 60.8108 39.6254 60.858 39.6097C60.6849 39.6881 60.5117 39.7195 60.3229 39.7508H60.4803C60.2914 39.7508 60.0868 39.7508 59.8979 39.7352H60.0553C59.8507 39.7352 59.6461 39.6724 59.4572 39.594L59.5989 39.6568C59.4258 39.5784 59.2684 39.4843 59.1267 39.3745L59.2526 39.4686C59.1739 39.4059 59.0953 39.3432 59.0323 39.2648C58.9221 39.155 58.7647 39.0923 58.6074 39.0923C58.45 39.0923 58.2926 39.155 58.1824 39.2648C58.0722 39.3745 58.0093 39.5313 58.0093 39.6881C58.0093 39.8449 58.0722 39.986 58.1824 40.1115L58.1509 40.0801Z" fill="#231F20"/>
</svg>
