<svg width="80" height="76" viewBox="0 0 80 76" fill="none" xmlns="http://www.w3.org/2000/svg">
<mask id="mask0_188_2519" style="mask-type:luminance" maskUnits="userSpaceOnUse" x="46" y="42" width="14" height="17">
<path d="M55.5297 43.9094C54.8214 44.9599 54.727 46.277 54.727 47.5471C54.727 48.8171 54.8372 50.0872 54.4752 51.2946C53.9086 53.2075 52.1144 54.6971 50.1155 54.9009C49.3758 54.9793 48.6204 54.9009 47.9121 55.0734C47.2039 55.2459 46.4799 55.7947 46.4642 56.5316C46.4327 57.4097 47.3613 58.0212 48.2269 58.225C50.7136 58.8052 53.4679 57.6606 55.2778 55.9671C57.5914 53.819 56.9147 51.5454 57.4183 48.8171C57.6072 47.7509 58.221 46.8258 58.6459 45.8223C59.1338 44.6777 59.5116 43.4233 58.0479 42.8745C57.0091 42.4982 56.0648 43.0627 55.5297 43.878V43.9094Z" fill="white"/>
</mask>
<g mask="url(#mask0_188_2519)">
<path d="M55.5297 43.9094C54.8214 44.9599 54.727 46.277 54.727 47.5471C54.727 48.8171 54.8372 50.0872 54.4752 51.2946C53.9086 53.2075 52.1144 54.6971 50.1155 54.9009C49.3758 54.9793 48.6204 54.9009 47.9121 55.0734C47.2039 55.2459 46.4799 55.7947 46.4642 56.5316C46.4327 57.4097 47.3613 58.0212 48.2269 58.225C50.7136 58.8052 53.4679 57.6606 55.2778 55.9671C57.5914 53.819 56.9147 51.5454 57.4183 48.8171C57.6072 47.7509 58.221 46.8258 58.6459 45.8223C59.1338 44.6777 59.5116 43.4233 58.0479 42.8745C57.0091 42.4982 56.0648 43.0627 55.5297 43.878V43.9094Z" fill="#F8C04E"/>
<path d="M51.9255 54.4146L54.6798 56.5628C54.8215 56.7196 54.9946 56.8293 55.1835 56.8921C55.3723 56.9861 55.5769 57.0332 55.7973 57.0332C56.1907 57.0332 56.6472 56.8607 56.9147 56.5785C57.1823 56.2962 57.3869 55.8885 57.3711 55.4652C57.3554 55.0732 57.2295 54.6028 56.9147 54.3519L54.1604 52.2038C54.0188 52.047 53.8457 51.9372 53.6568 51.8745C53.4679 51.7804 53.2633 51.7334 53.043 51.7334C52.6495 51.7334 52.1931 51.9059 51.9255 52.1881C51.658 52.4704 51.4534 52.878 51.4691 53.3014C51.4849 53.6934 51.6108 54.1638 51.9255 54.4146Z" fill="#E98029"/>
<path d="M52.9327 50.3694C53.1845 50.3851 53.4206 50.4164 53.6724 50.4478L53.2475 50.3851C54.2075 50.5105 55.1361 50.7614 56.0332 51.1377L55.6555 50.9809C56.0332 51.1377 56.411 51.3258 56.7729 51.5297C57.4969 51.9374 58.5199 51.7178 58.9292 50.9652C59.3384 50.2126 59.1338 49.2561 58.3626 48.8171C56.6943 47.8763 54.8528 47.3589 52.9327 47.2334C52.1143 47.1864 51.3273 47.9861 51.3588 48.8014C51.406 49.6952 52.0513 50.3067 52.9327 50.3694Z" fill="#E98029"/>
<path d="M54.9002 44.7559C56.1907 45.5085 57.6072 46.073 59.0552 46.3866C59.4644 46.4806 59.8893 46.4493 60.2671 46.2298C60.5976 46.0416 60.9123 45.6653 60.991 45.289C61.0855 44.8813 61.0697 44.4423 60.8337 44.0816C60.6133 43.7523 60.2985 43.4544 59.8893 43.3604C59.1181 43.1879 58.3469 42.9527 57.623 42.6548L58.0007 42.8116C57.4813 42.592 56.9777 42.3412 56.4898 42.0432C56.1435 41.8394 55.6713 41.7767 55.2779 41.8864C54.9159 41.9805 54.5224 42.2628 54.3336 42.6077C53.9401 43.3604 54.1447 44.3011 54.9002 44.7559Z" fill="#E98029"/>
</g>
<mask id="mask1_188_2519" style="mask-type:luminance" maskUnits="userSpaceOnUse" x="29" y="37" width="22" height="24">
<path d="M41.6639 37.9822C45.1264 39.0484 46.9207 42.0433 48.1483 45.1949C48.8565 47.0137 49.3444 48.8953 49.8795 50.7926C50.6822 53.8031 50.273 57.4722 47.7706 59.3067C46.1495 60.4984 44.0405 60.6865 42.0259 60.7963C36.8951 61.0628 30.7255 60.8904 29.7497 54.6341C29.3405 51.9999 30.2691 50.2281 30.9931 47.7821C31.8902 44.7559 33.1178 40.8986 35.8249 39.0641C37.5089 37.9195 39.6966 37.3864 41.6639 37.9822Z" fill="white"/>
</mask>
<g mask="url(#mask1_188_2519)">
<path d="M41.6639 37.9822C45.1264 39.0484 46.9207 42.0433 48.1483 45.1949C48.8565 47.0137 49.3444 48.8953 49.8795 50.7926C50.6822 53.8031 50.273 57.4722 47.7706 59.3067C46.1495 60.4984 44.0405 60.6865 42.0259 60.7963C36.8951 61.0628 30.7255 60.8904 29.7497 54.6341C29.3405 51.9999 30.2691 50.2281 30.9931 47.7821C31.8902 44.7559 33.1178 40.8986 35.8249 39.0641C37.5089 37.9195 39.6966 37.3864 41.6639 37.9822Z" fill="#F8C04E"/>
<path d="M28.821 44.0502C28.1757 44.8342 27.7193 45.7436 27.7508 46.7941C27.8138 49.0363 28.8368 49.2559 30.6782 49.6949C31.6383 49.9301 32.4095 50.6984 32.8344 51.5765C34.0778 54.195 33.2436 57.6759 34.9434 60.122C36.2497 61.9879 38.8623 62.3799 41.1445 62.2701C42.4036 62.2074 43.7728 62.0035 44.6227 61.0784C45.0162 60.6551 45.2523 60.122 45.4254 59.5732C46.5429 56.1393 43.9145 51.5451 48.5732 50.0712C52.2875 48.8952 50.7923 47.39 48.9824 45.0223C47.1724 42.6547 44.6699 40.8044 41.7111 40.0518C37.7921 39.0483 33.3695 40.0361 30.2533 42.6233C29.7339 43.0467 29.2302 43.517 28.8053 44.0345L28.821 44.0502Z" fill="white"/>
<path d="M30.7253 58.3187L32.3621 57.0957C32.551 57.0016 32.6927 56.8605 32.8028 56.688C32.9445 56.5312 33.0389 56.3587 33.0861 56.1549C33.1491 55.9511 33.1648 55.7316 33.1176 55.5277C33.1176 55.3239 33.0389 55.12 32.9287 54.9476C32.7084 54.6183 32.3936 54.3204 31.9844 54.2263L31.5595 54.1636C31.2762 54.1636 31.0086 54.242 30.7725 54.3831L29.1357 55.6061C28.9468 55.7002 28.8052 55.8413 28.695 56.0138C28.5534 56.1706 28.4589 56.3431 28.4117 56.5469C28.3488 56.7507 28.333 56.9703 28.3802 57.1741C28.3802 57.3779 28.4589 57.5818 28.5691 57.7543C28.7894 58.0835 29.1042 58.3814 29.5134 58.4755L29.9384 58.5382C30.2217 58.5382 30.4892 58.4598 30.7253 58.3187Z" fill="#E98029"/>
<path d="M47.8492 56.312L49.3444 56.7353C49.549 56.798 49.7694 56.8137 49.974 56.7667C50.1786 56.7667 50.3832 56.6883 50.5563 56.5785C50.7452 56.4844 50.8868 56.3433 50.997 56.1708C51.1386 56.014 51.2331 55.8416 51.2803 55.6377L51.3432 55.2144C51.3432 54.9321 51.2645 54.6656 51.1229 54.4304L50.8711 54.1168C50.6822 53.9286 50.4461 53.7875 50.1786 53.7091L48.6834 53.2858C48.4788 53.223 48.2584 53.2074 48.0538 53.2544C47.8492 53.2544 47.6446 53.3328 47.4715 53.4426C47.2826 53.5366 47.141 53.6778 47.0308 53.8502C46.8892 54.007 46.7947 54.1795 46.7475 54.3833L46.6846 54.8067C46.6846 55.0889 46.7633 55.3555 46.9049 55.5907L47.1567 55.9043C47.3456 56.0924 47.5817 56.2336 47.8492 56.312Z" fill="#E98029"/>
</g>
<path d="M32.7715 41.7768C32.1105 43.1879 31.4809 44.6305 30.8986 46.073C30.3163 47.5156 29.7654 48.864 29.3877 50.3066C28.7266 52.8467 28.6794 55.6377 30.1274 57.9269C30.8514 59.0716 31.8586 59.934 33.1177 60.42C33.826 60.6866 34.1408 59.5576 33.4325 59.2911C30.694 58.2405 29.8598 54.9321 30.1903 52.3136C30.3949 50.6202 30.993 48.9895 31.6226 47.4058C32.2993 45.6967 33.0233 44.019 33.7945 42.3569C34.1093 41.667 33.102 41.0712 32.7715 41.7611V41.7768Z" fill="#231F20"/>
<path d="M33.228 55.732C33.2595 56.7041 33.3539 57.6919 33.5585 58.6327C33.7317 59.4638 34.1409 60.3105 34.9435 60.7025C35.3685 60.9063 35.8092 60.9847 36.2656 61.0004C36.6905 61.0004 37.1627 60.969 37.5719 60.8749C38.0598 60.7652 38.4848 60.4673 38.7208 60.0282C38.9254 59.6519 39.0199 59.2286 39.0828 58.8052C39.256 57.7076 39.3032 56.5944 39.1773 55.4811C39.1615 55.3243 39.1301 55.1832 39.0041 55.0577C38.894 54.948 38.7366 54.8853 38.5792 54.8853C38.2959 54.8853 37.9496 55.1518 37.9811 55.4811C38.0756 56.3592 38.0756 57.2372 37.9811 58.1153C37.9811 58.178 37.9811 58.2251 37.9654 58.2878C37.9654 58.3191 37.9654 58.3348 37.9654 58.3662C37.9654 58.4603 37.9654 58.2564 37.9654 58.3662C37.9496 58.4759 37.9339 58.5857 37.9182 58.6954C37.8867 58.8679 37.8552 59.0561 37.808 59.2286C37.808 59.2756 37.7765 59.307 37.7608 59.354C37.7608 59.3697 37.7608 59.3854 37.745 59.401C37.7293 59.4638 37.7765 59.3383 37.7765 59.3383C37.745 59.3697 37.745 59.4167 37.7293 59.4481C37.7136 59.4951 37.6821 59.5265 37.6506 59.5735C37.6506 59.5735 37.6349 59.6049 37.6191 59.6206C37.6191 59.6206 37.6978 59.5265 37.6506 59.5735C37.6191 59.6049 37.5877 59.6362 37.5562 59.6676C37.6349 59.6206 37.5562 59.6676 37.5404 59.6676C37.509 59.6833 37.4303 59.7146 37.4145 59.7303C37.446 59.6833 37.509 59.699 37.446 59.7303C37.4303 59.7303 37.4145 59.7303 37.3831 59.746C37.3358 59.746 37.2886 59.7774 37.2414 59.7774C37.1942 59.7774 37.1627 59.793 37.1155 59.8087C37.084 59.8087 37.0683 59.8087 37.0368 59.8087C36.9581 59.8087 37.0368 59.8087 37.0683 59.8087C36.9896 59.8401 36.8794 59.8244 36.8007 59.8401C36.7063 59.8401 36.6276 59.8401 36.5332 59.8558C36.36 59.8558 36.1712 59.8558 35.998 59.8558C35.9823 59.8558 35.9666 59.8558 35.9351 59.8558C35.8721 59.8558 35.998 59.8558 35.998 59.8558C35.9508 59.8558 35.9036 59.8558 35.8721 59.8401C35.7777 59.8244 35.6833 59.793 35.6046 59.7617C35.5731 59.7617 35.5416 59.7303 35.4944 59.7303C35.4944 59.7303 35.6203 59.793 35.5259 59.7303C35.5101 59.7303 35.4944 59.7146 35.4787 59.699C35.4 59.6519 35.3213 59.6049 35.2583 59.5578C35.1954 59.5108 35.337 59.6362 35.2898 59.5735C35.2898 59.5735 35.2583 59.5422 35.2426 59.5422C35.2111 59.5108 35.1796 59.4794 35.1482 59.4481C35.1167 59.4167 35.1009 59.401 35.0695 59.3697C35.0695 59.354 35.0065 59.2913 35.0695 59.3697C35.0222 59.307 34.9908 59.2442 34.9435 59.1658C34.9278 59.1345 34.8963 59.0874 34.8806 59.0561C34.8806 59.0404 34.8806 59.0247 34.8649 59.009C34.9435 59.1345 34.8963 59.0718 34.8649 59.0247C34.8019 58.8679 34.7547 58.6955 34.7075 58.523C34.6603 58.3191 34.6288 58.131 34.5973 57.9271C34.5816 57.8017 34.5658 57.6919 34.5501 57.5665C34.5501 57.5508 34.5343 57.4411 34.5501 57.5195C34.5658 57.5979 34.5501 57.4881 34.5501 57.4724C34.5501 57.4097 34.5343 57.347 34.5343 57.2843C34.4714 56.7825 34.4399 56.2808 34.4242 55.7633C34.4242 55.4497 34.1566 55.1675 33.8261 55.1675C33.4956 55.1675 33.228 55.4184 33.228 55.7633V55.732Z" fill="#231F20"/>
<path d="M46.0235 42.3725C46.7947 44.0345 47.5187 45.7123 48.1955 47.4214C48.825 49.005 49.4231 50.6357 49.6277 52.3292C49.9582 54.9477 49.1241 58.2561 46.3855 59.3067C45.6773 59.5732 45.9921 60.7178 46.7003 60.4356C48.9509 59.5732 50.3674 57.4251 50.7609 55.1045C51.2488 52.188 50.2258 49.3029 49.1556 46.6374C48.4945 45.0067 47.802 43.3917 47.0466 41.7923C46.7318 41.1024 45.7088 41.6982 46.0235 42.3882V42.3725Z" fill="#231F20"/>
<path d="M45.3939 55.732C45.3939 56.1867 45.3467 56.6258 45.2995 57.0805C45.2995 57.1902 45.2837 57.2843 45.268 57.3941C45.268 57.4254 45.268 57.4411 45.268 57.4725C45.268 57.5352 45.2523 57.5979 45.2365 57.6606C45.205 57.8488 45.1736 58.037 45.1421 58.2408C45.1106 58.4133 45.0634 58.5857 45.0162 58.7582C44.9847 58.8366 44.969 58.915 44.9375 58.9934L44.906 59.0561C44.906 59.0561 44.9532 58.9464 44.9217 58.9934C44.906 59.0405 44.8745 59.0875 44.8588 59.1189C44.8273 59.1816 44.7801 59.26 44.7329 59.3227C44.7329 59.3384 44.7014 59.3697 44.6857 59.3854C44.6857 59.3854 44.7644 59.2913 44.7171 59.3384C44.6857 59.3697 44.6542 59.4168 44.6227 59.4481C44.5912 59.4795 44.5755 59.4952 44.544 59.5265C44.5283 59.5422 44.5125 59.5579 44.4811 59.5736C44.4338 59.6206 44.5283 59.5422 44.5283 59.5422C44.4496 59.5736 44.3866 59.6363 44.3079 59.6833C44.2922 59.6833 44.1506 59.7617 44.245 59.7147C44.3237 59.6833 44.1978 59.7147 44.182 59.7304C44.1033 59.7617 44.0089 59.7774 43.9302 59.7931C43.883 59.7931 43.8358 59.7931 43.8043 59.8088C43.7413 59.8088 43.8673 59.8088 43.8673 59.8088H43.7886C43.6941 59.8088 43.6154 59.8088 43.521 59.8088C43.3321 59.8088 43.159 59.8088 42.9701 59.7931C42.8915 59.7931 42.797 59.7774 42.7183 59.7617C42.6554 59.7617 42.7813 59.7617 42.7813 59.7617C42.7498 59.7617 42.7183 59.7617 42.7026 59.7617C42.6554 59.7617 42.5924 59.746 42.5452 59.7304C42.498 59.7304 42.4665 59.7147 42.4193 59.699C42.3878 59.699 42.3721 59.6833 42.3406 59.6677C42.3249 59.6677 42.2934 59.6363 42.2776 59.6206C42.2619 59.6206 42.2462 59.6049 42.2304 59.5892C42.1675 59.5579 42.3091 59.6676 42.2619 59.6206C42.2304 59.5892 42.1989 59.5579 42.1675 59.5265C42.1203 59.4638 42.0888 59.3854 42.0416 59.307C42.0101 59.2443 42.073 59.3697 42.073 59.3697C42.073 59.3541 42.0573 59.3227 42.0416 59.307C42.0416 59.2757 42.0258 59.2443 42.0101 59.1973C41.9786 59.1032 41.9629 59.0248 41.9471 58.9307C41.8999 58.7269 41.8684 58.523 41.837 58.3192C41.837 58.2565 41.837 58.3505 41.837 58.3505C41.837 58.3192 41.837 58.2878 41.837 58.2565C41.837 58.1937 41.837 58.131 41.8212 58.0683C41.8212 57.9429 41.7897 57.8174 41.7897 57.692C41.774 57.4411 41.7583 57.2059 41.7583 56.955C41.7583 56.4533 41.774 55.9515 41.837 55.4655C41.8684 55.1519 41.5379 54.8696 41.2389 54.8696C40.8926 54.8696 40.688 55.1362 40.6408 55.4655C40.5306 56.4219 40.5464 57.3784 40.6723 58.3349C40.7982 59.2913 40.9398 60.3419 41.9157 60.7496C42.3406 60.922 42.8128 60.9691 43.2534 60.9848C43.6784 61.0004 44.1191 60.9848 44.5283 60.8436C44.9532 60.7025 45.3467 60.4673 45.63 60.1067C45.9133 59.746 46.1022 59.3384 46.2123 58.915C46.354 58.4133 46.4169 57.8802 46.4799 57.3627C46.5428 56.8139 46.5901 56.2808 46.6058 55.732C46.6058 55.4184 46.3225 55.1362 46.0077 55.1362C45.6772 55.1362 45.4254 55.3871 45.4097 55.732H45.3939Z" fill="#231F20"/>
<path d="M52.3818 54.7912C53.9715 54.0386 54.7112 52.2511 54.9315 50.6047C55.1676 48.7702 54.8528 46.7318 55.7342 45.0227C55.9231 44.6464 56.1591 44.3171 56.4582 44.0349C56.71 43.7997 57.1822 43.4234 57.5599 43.5174C58.2996 43.6899 58.6144 42.561 57.8747 42.3885C56.9146 42.169 55.9545 42.8118 55.3565 43.5018C54.7584 44.1917 54.3964 45.007 54.1918 45.8694C53.7196 47.8451 54.1446 49.9462 53.4206 51.8748C53.1216 52.6901 52.5864 53.3957 51.7838 53.772C51.5005 53.9131 51.4218 54.3208 51.5792 54.5717C51.7523 54.8696 52.0985 54.9166 52.3818 54.7755V54.7912Z" fill="#231F20"/>
<path d="M49.3758 58.7267C52.2088 58.8522 54.9316 57.3312 56.5212 55.0263C57.3553 53.8033 57.7488 52.4391 57.8747 50.9809C57.9377 50.1499 57.9377 49.3032 58.0636 48.4721C58.1895 47.6411 58.5043 46.9669 58.9292 46.2613C59.3541 45.5557 59.7161 44.7403 59.4801 43.8779C59.2755 43.1253 58.6931 42.5295 57.8904 42.5138C57.135 42.4824 57.135 43.6584 57.8904 43.6898C58.2839 43.6898 58.4098 44.2856 58.3626 44.5992C58.2839 45.2578 57.7803 45.8222 57.4812 46.4024C56.8045 47.7352 56.8045 49.2248 56.71 50.683C56.6313 51.953 56.348 53.1133 55.6713 54.1953C55.0417 55.1988 54.1604 56.0298 53.1373 56.6256C51.9884 57.2998 50.6978 57.6448 49.3601 57.5821C48.6046 57.5507 48.6046 58.7267 49.3601 58.7581L49.3758 58.7267Z" fill="#231F20"/>
<path d="M35.2583 58.852C35.2583 58.9617 35.2583 59.0715 35.2898 59.1969C35.2898 59.2753 35.3213 59.3537 35.337 59.4321C35.3685 59.5419 35.4157 59.6516 35.4629 59.7457C35.4944 59.8241 35.5416 59.8868 35.5888 59.9652C35.6203 60.0123 35.6518 60.0436 35.6832 60.075C35.7147 60.1063 35.7619 60.1377 35.8249 60.1377C35.8721 60.1534 35.9351 60.1534 35.9823 60.1377C36.0295 60.1377 36.0767 60.122 36.1239 60.0907C36.2026 60.0436 36.2813 59.9495 36.2971 59.8555C36.3128 59.7614 36.3128 59.6359 36.2498 59.5575C36.1869 59.4791 36.1397 59.3851 36.1082 59.291L36.1554 59.3851C36.0925 59.2596 36.061 59.1185 36.0452 58.9774V59.0871C36.0452 59.0871 36.0452 58.9304 36.0452 58.852C36.0452 58.8049 36.0452 58.7422 36.0138 58.6952C35.998 58.6481 35.9665 58.6011 35.9351 58.5697C35.9036 58.5384 35.8564 58.507 35.8092 58.4913C35.7619 58.46 35.7147 58.46 35.6518 58.46C35.5573 58.46 35.4472 58.4913 35.3685 58.5697C35.2898 58.6481 35.2583 58.7422 35.2583 58.852Z" fill="#231F20"/>
<path d="M36.5646 59.2126L36.7063 59.9966C36.7063 59.9966 36.7377 60.0907 36.7692 60.1377C36.8007 60.1848 36.8322 60.2161 36.8794 60.2318C36.9266 60.2632 36.9738 60.2789 37.021 60.2789C37.0683 60.2789 37.1312 60.2789 37.1784 60.2789L37.2729 60.2318C37.2729 60.2318 37.383 60.1534 37.4145 60.0907L37.4617 59.9966C37.4617 59.9966 37.4775 59.8555 37.4617 59.7928L37.3201 59.0088C37.3201 59.0088 37.2886 58.9147 37.2571 58.8677C37.2256 58.8206 37.1942 58.7893 37.1469 58.7736C37.0997 58.7422 37.0525 58.7266 37.0053 58.7266C36.9581 58.7266 36.8951 58.7266 36.8479 58.7266L36.7535 58.7736C36.7535 58.7736 36.6433 58.852 36.6118 58.9147L36.5646 59.0088C36.5646 59.0088 36.5489 59.1499 36.5646 59.2126Z" fill="#231F20"/>
<path d="M42.4667 58.7421C42.4352 58.8519 42.4194 58.9616 42.4194 59.0714C42.4194 59.1498 42.4194 59.2282 42.4194 59.3223C42.4194 59.432 42.4509 59.5418 42.4824 59.6515C42.5139 59.7613 42.5611 59.8711 42.6083 59.9651C42.6398 60.0122 42.6713 60.0435 42.7027 60.0749C42.7342 60.1063 42.7814 60.1376 42.8444 60.1376C42.8916 60.1533 42.9546 60.1533 43.0018 60.1376C43.049 60.1376 43.0962 60.1219 43.1434 60.0906C43.2221 60.0435 43.3008 59.9495 43.3165 59.8554V59.7456C43.3165 59.7456 43.3165 59.6045 43.2693 59.5418C43.2693 59.5261 43.2536 59.5104 43.2378 59.4791L43.2851 59.5731C43.2378 59.4634 43.2064 59.3536 43.1906 59.2282V59.3379C43.1906 59.2125 43.1906 59.1028 43.1906 58.9773V59.0871C43.1906 59.0871 43.1906 58.9773 43.2064 58.9303C43.2221 58.8832 43.2221 58.8205 43.2064 58.7735C43.2064 58.7264 43.1906 58.6794 43.1592 58.6324C43.1277 58.5853 43.0962 58.554 43.0647 58.5226C43.0332 58.4912 42.986 58.4599 42.9231 58.4599C42.8286 58.4442 42.7027 58.4442 42.624 58.5069C42.5453 58.5696 42.4667 58.648 42.4509 58.7421H42.4667Z" fill="#231F20"/>
<path d="M43.7413 59.0872C43.7413 59.0872 43.757 59.1813 43.7728 59.2126V59.1029C43.7728 59.2283 43.7728 59.3538 43.7728 59.4635V59.3538C43.7728 59.4792 43.7413 59.589 43.6941 59.6987L43.7413 59.6046C43.7413 59.6046 43.7256 59.6517 43.7098 59.6674C43.6783 59.7144 43.6626 59.7614 43.6626 59.8085C43.6626 59.8555 43.6626 59.9182 43.6626 59.9653C43.6626 60.0123 43.6941 60.0594 43.7256 60.1064C43.757 60.1534 43.7885 60.1848 43.8357 60.2005C43.9302 60.2475 44.0403 60.2789 44.1348 60.2475C44.2292 60.2162 44.3236 60.1534 44.3708 60.075C44.4181 59.981 44.4653 59.8712 44.4968 59.7614C44.5282 59.6517 44.544 59.5419 44.5597 59.4322C44.5597 59.3538 44.5597 59.2754 44.5597 59.197C44.5597 59.0872 44.544 58.9774 44.5125 58.8677C44.5125 58.8206 44.481 58.7736 44.4495 58.7266C44.4181 58.6795 44.3866 58.6482 44.3394 58.6325C44.2921 58.6011 44.2449 58.5854 44.1977 58.5854C44.1505 58.5854 44.0875 58.5854 44.0403 58.5854C43.9459 58.6168 43.8515 58.6795 43.8042 58.7579L43.757 58.852C43.757 58.852 43.7413 58.9931 43.757 59.0558L43.7413 59.0872Z" fill="#231F20"/>
<mask id="mask2_188_2519" style="mask-type:luminance" maskUnits="userSpaceOnUse" x="20" y="13" width="39" height="34">
<path d="M20.9831 19.2448C20.9202 22.1769 21.3294 25.1247 22.195 27.9314C22.3681 28.4802 22.557 29.0447 22.6042 29.6091C22.6672 30.252 22.5413 30.8949 22.4626 31.5378C21.9275 35.7243 22.9347 40.3341 26.0667 43.1722C29.608 46.3708 34.8647 46.6374 39.6493 46.4492C42.3091 46.3395 44.9847 46.167 47.5501 45.4301C50.1155 44.6931 52.5708 43.4074 54.2863 41.3847C54.9788 40.5693 55.5454 39.6599 55.9546 38.6877C56.5842 37.1825 57.0721 35.2539 56.9934 33.6075C56.9147 32.1963 56.2379 31.0203 56.474 29.5151C56.6471 28.4331 57.0406 27.3983 57.3711 26.3477C58.3312 23.2745 58.6774 19.9504 58.0006 16.7987C57.796 15.8266 57.4498 14.8074 56.6471 14.2116C55.3565 13.2394 54.3178 14.337 53.2318 14.9642C51.532 15.952 50.0211 17.2848 48.825 18.8371C48.4315 19.3545 48.038 19.9347 47.4242 20.1699C46.8419 20.4051 46.1809 20.2797 45.567 20.1699C43.3794 19.8093 41.1445 19.6681 38.9253 19.7622C37.3829 19.8249 34.5499 19.6054 33.1492 20.2169C32.9761 20.2953 32.8029 20.3894 32.6141 20.3581C32.3937 20.3267 32.2363 20.1385 32.0947 19.9817C30.0644 17.473 27.7665 14.9799 24.7132 13.898C21.7071 12.8161 20.9989 17.081 20.9517 19.2291L20.9831 19.2448Z" fill="white"/>
</mask>
<g mask="url(#mask2_188_2519)">
<path d="M20.9831 19.2448C20.9202 22.1769 21.3294 25.1247 22.195 27.9314C22.3681 28.4802 22.557 29.0447 22.6042 29.6091C22.6672 30.252 22.5413 30.8949 22.4626 31.5378C21.9275 35.7243 22.9347 40.3341 26.0667 43.1722C29.608 46.3708 34.8647 46.6374 39.6493 46.4492C42.3091 46.3395 44.9847 46.167 47.5501 45.4301C50.1155 44.6931 52.5708 43.4074 54.2863 41.3847C54.9788 40.5693 55.5454 39.6599 55.9546 38.6877C56.5842 37.1825 57.0721 35.2539 56.9934 33.6075C56.9147 32.1963 56.2379 31.0203 56.474 29.5151C56.6471 28.4331 57.0406 27.3983 57.3711 26.3477C58.3312 23.2745 58.6774 19.9504 58.0006 16.7987C57.796 15.8266 57.4498 14.8074 56.6471 14.2116C55.3565 13.2394 54.3178 14.337 53.2318 14.9642C51.532 15.952 50.0211 17.2848 48.825 18.8371C48.4315 19.3545 48.038 19.9347 47.4242 20.1699C46.8419 20.4051 46.1809 20.2797 45.567 20.1699C43.3794 19.8093 41.1445 19.6681 38.9253 19.7622C37.3829 19.8249 34.5499 19.6054 33.1492 20.2169C32.9761 20.2953 32.8029 20.3894 32.6141 20.3581C32.3937 20.3267 32.2363 20.1385 32.0947 19.9817C30.0644 17.473 27.7665 14.9799 24.7132 13.898C21.7071 12.8161 20.9989 17.081 20.9517 19.2291L20.9831 19.2448Z" fill="#F8C04E"/>
<path d="M50.6191 44.3166C51.3431 43.6894 51.768 42.8897 51.7523 41.8391C51.7365 40.428 50.9968 39.1109 50.021 38.0917C49.659 37.6997 49.2498 37.3547 48.8091 37.0882C48.1166 36.6648 47.3139 36.4453 46.5113 36.2415C45.0003 35.8338 43.2219 34.893 42.2146 33.67C41.4906 32.7762 39.1613 28.9033 39.2872 27.79C39.0196 29.9225 38.4216 32.3215 37.068 34.0463C35.384 36.1787 32.7399 36.3669 30.5679 37.7938C29.4033 38.5621 28.5376 39.8008 28.3488 41.1806C27.5146 47.1076 35.8561 46.6372 39.6492 46.4804C42.1674 46.3863 48.1166 46.5117 50.6191 44.3479V44.3166Z" fill="white"/>
<path d="M27.436 19.8561C26.9638 19.2603 26.4129 18.7271 25.8463 18.2411C25.563 18.0529 25.2797 17.8648 24.9807 17.708C24.9335 17.6923 24.9335 17.6923 24.9178 17.6766C24.9178 17.6766 24.9178 17.6766 24.8705 17.6766C24.8233 17.6609 24.7761 17.6452 24.7289 17.6296C24.6659 17.6139 24.5872 17.5982 24.5243 17.5825C24.5086 17.5825 24.5243 17.5825 24.4928 17.5825C24.4456 17.5825 24.3197 17.5825 24.2882 17.5825C24.2725 17.5825 24.2567 17.5825 24.241 17.5825C24.2095 17.5825 24.1938 17.6139 24.1623 17.6296C24.1308 17.6609 24.0521 17.7393 24.0364 17.7707C23.9892 17.8334 23.9577 17.8961 23.9262 17.9745C23.9105 18.0216 23.8947 18.0216 23.8947 18.0372C23.8947 18.0372 23.8947 18.0529 23.879 18.1C23.8003 18.3195 23.7374 18.539 23.7059 18.7742C23.6272 19.1819 23.5957 19.6836 23.5957 20.2481C23.5957 21.5181 23.7216 22.8509 23.8947 24.074C24.0049 24.8893 24.178 25.7203 24.3354 26.5357C24.965 25.7517 25.8149 25.1872 26.6018 24.5757C27.2471 24.074 28.4904 23.3056 28.6793 22.4276C28.8682 21.5809 27.9396 20.4833 27.4517 19.8718L27.436 19.8561Z" fill="white"/>
<path d="M54.5695 27.0847C55.4037 25.015 56.0804 22.7571 56.2536 20.5149C56.2851 20.0288 56.3008 19.5428 56.2536 19.0567C56.2536 18.8842 56.2221 18.7901 56.1591 18.5236C56.1434 18.4295 56.1119 18.3354 56.0805 18.2413C56.0332 18.1002 56.0332 18.1159 56.0332 18.1316C55.986 18.0532 55.9388 17.9591 55.8916 17.8807C55.8916 17.865 55.9545 17.9434 55.8286 17.818C55.8129 17.8023 55.7972 17.7866 55.7814 17.7709C55.7499 17.7553 55.6712 17.7082 55.6555 17.6925C55.6083 17.6925 55.5139 17.6455 55.4824 17.6455C55.4981 17.6455 55.5296 17.6455 55.3722 17.6455C55.1046 17.6455 55.1676 17.6455 54.9 17.6925C54.8056 17.7082 54.7269 17.6925 54.6482 17.6925C54.5853 17.7239 54.5223 17.7553 54.4594 17.7866C53.7511 18.1943 53.153 18.7588 52.6179 19.3546C51.7995 20.2484 50.9339 21.393 50.5562 22.5846C50.9181 23.6509 52.193 24.4819 52.917 25.2345C53.4993 25.8304 53.9872 26.5203 54.4594 27.2102C54.4751 27.1631 54.5066 27.1004 54.5381 27.0534L54.5695 27.0847Z" fill="white"/>
<path d="M40.5777 24.9208C40.3101 22.757 40.1685 20.5619 40.1685 18.3824C40.1685 17.567 39.4445 16.783 38.5946 16.8144C37.7447 16.8457 37.0208 17.5043 37.0208 18.3824C37.0208 20.5619 37.1624 22.757 37.43 24.9208C37.4772 25.3442 37.5716 25.7048 37.8864 26.0341C38.1539 26.3007 38.6104 26.5045 39.0038 26.4888C39.775 26.4575 40.6879 25.7989 40.5777 24.9208Z" fill="#E98029"/>
<path d="M36.1237 22.9924C35.8719 22.3966 35.7145 21.7694 35.6201 21.1265L35.6831 21.5499C35.6044 20.907 35.6044 20.2484 35.6831 19.6056L35.6201 20.0289C35.6516 19.8565 35.6673 19.6683 35.7145 19.4958C35.7932 19.0725 35.7775 18.6648 35.5572 18.2885C35.3683 17.9592 34.9906 17.6456 34.6128 17.5672C33.8259 17.3947 32.8501 17.8024 32.677 18.6648C32.3307 20.3896 32.4251 22.2084 33.0862 23.8548C33.2436 24.2468 33.4324 24.5604 33.8102 24.7956C34.1407 24.9994 34.6443 25.0778 35.022 24.9524C35.3998 24.8269 35.7775 24.5918 35.9664 24.2311C36.1552 23.8705 36.2811 23.4001 36.1237 23.0238V22.9924Z" fill="#E98029"/>
<path d="M44.9375 23.9646C45.3467 21.8636 45.331 19.7468 44.8116 17.6614C44.6227 16.8617 43.6626 16.3129 42.8757 16.5638C42.0888 16.8147 41.5694 17.6457 41.774 18.4924C41.8842 18.9158 41.9629 19.3548 42.0258 19.7938L41.9629 19.3705C42.1203 20.4837 42.1203 21.6127 41.9629 22.7259L42.0258 22.3026C41.9943 22.5691 41.9471 22.8357 41.8842 23.1023C41.7268 23.9019 42.1203 24.827 42.9859 25.0309C43.7728 25.2034 44.7486 24.7957 44.9217 23.9333L44.9375 23.9646Z" fill="#E98029"/>
<path d="M21.4394 35.5518C22.1319 35.3637 22.8402 35.2382 23.5484 35.1285L23.1235 35.1912C23.9262 35.0814 24.7288 35.0344 25.5315 35.0344C26.3342 35.0344 27.1369 34.3131 27.1054 33.4664C27.0739 32.6197 26.4129 31.8984 25.5315 31.8984C23.8789 31.8984 22.1949 32.1023 20.5896 32.5256C19.7869 32.7295 19.236 33.6546 19.4878 34.4542C19.7397 35.2539 20.5738 35.7713 21.4237 35.5518H21.4394Z" fill="#E98029"/>
<path d="M23.0605 41.557L25.9092 40.0204C26.2554 39.8322 26.523 39.4559 26.6332 39.0796C26.7433 38.7033 26.6961 38.2015 26.4758 37.8722C26.2554 37.543 25.9407 37.245 25.5315 37.151C25.1065 37.0569 24.6973 37.1039 24.3196 37.3078L21.4709 38.8444C21.1246 39.0325 20.8571 39.4089 20.7469 39.7852C20.6367 40.1615 20.6839 40.6632 20.9043 40.9925C21.1246 41.3218 21.4394 41.6197 21.8486 41.7138C22.2735 41.8079 22.6827 41.7608 23.0605 41.557Z" fill="#E98029"/>
<path d="M54.2705 33.5919C54.9788 33.3097 55.7185 33.1059 56.4897 32.9961L56.0648 33.0588C56.8674 32.9491 57.6544 32.9491 58.457 33.0588L58.0321 32.9961C58.2839 33.0275 58.5357 33.0745 58.7876 33.1216C59.5902 33.294 60.5346 32.8864 60.7234 32.024C60.8965 31.24 60.4873 30.2835 59.6217 30.0954C57.5599 29.6563 55.3723 29.7661 53.4206 30.5657C53.0272 30.7225 52.6967 30.9107 52.4763 31.287C52.2717 31.6163 52.193 32.118 52.3189 32.4944C52.4448 32.8707 52.6809 33.247 53.0429 33.4352C53.4049 33.6233 53.8771 33.7487 54.2548 33.5919H54.2705Z" fill="#E98029"/>
<path d="M54.003 38.5935L59.3542 38.9228C60.1726 38.9698 60.9595 38.1701 60.928 37.3548C60.8808 36.4611 60.2355 35.8495 59.3542 35.7868L54.003 35.4575C53.1846 35.4105 52.3977 36.2102 52.4291 37.0255C52.4764 37.9193 53.1216 38.5308 54.003 38.5935Z" fill="#E98029"/>
</g>
<path d="M31.3708 34.6426C32.2226 34.6426 32.9132 33.9546 32.9132 33.106C32.9132 32.2573 32.2226 31.5693 31.3708 31.5693C30.5189 31.5693 29.8284 32.2573 29.8284 33.106C29.8284 33.9546 30.5189 34.6426 31.3708 34.6426Z" fill="#231F20"/>
<path d="M47.3771 34.6426C48.229 34.6426 48.9195 33.9546 48.9195 33.106C48.9195 32.2573 48.229 31.5693 47.3771 31.5693C46.5253 31.5693 45.8347 32.2573 45.8347 33.106C45.8347 33.9546 46.5253 34.6426 47.3771 34.6426Z" fill="#231F20"/>
<path d="M39.366 35.7243C40.1309 35.7243 40.751 35.3382 40.751 34.8619C40.751 34.3856 40.1309 33.9995 39.366 33.9995C38.601 33.9995 37.981 34.3856 37.981 34.8619C37.981 35.3382 38.601 35.7243 39.366 35.7243Z" fill="#231F20"/>
<path d="M30.3162 22.0984C35.8877 19.8249 42.1832 19.6367 47.8964 21.5967C48.6204 21.8475 48.9194 20.7029 48.2111 20.4677C42.3406 18.445 35.7618 18.6175 30.0172 20.9695C29.7181 21.0949 29.5135 21.3615 29.608 21.6907C29.6867 21.973 30.0329 22.2239 30.3319 22.0984H30.3162Z" fill="#231F20"/>
<path d="M23.5014 14.384C26.0511 15.4816 28.3961 17.0025 30.395 18.9155C30.9615 19.4643 31.5124 20.0444 32.0318 20.6402C32.2364 20.8754 32.6613 20.8598 32.8659 20.6402C33.102 20.405 33.0705 20.0444 32.8659 19.8092C31.0088 17.6454 28.7581 15.8109 26.2714 14.431C25.5632 14.039 24.8392 13.6784 24.0995 13.3648C23.8004 13.2394 23.4699 13.2707 23.2968 13.5686C23.1551 13.8195 23.2181 14.2429 23.5014 14.3683V14.384Z" fill="#231F20"/>
<path d="M21.6442 14.6507C19.8814 19.433 20.086 24.7955 22.1006 29.4524C22.2265 29.7503 22.6515 29.813 22.9033 29.6562C23.2023 29.4837 23.2495 29.1388 23.1079 28.8566C21.2192 24.4819 21.1248 19.4173 22.7616 14.9643C23.0292 14.2587 21.8803 13.9451 21.6284 14.6507H21.6442Z" fill="#231F20"/>
<path d="M24.3985 18.6959C24.7133 18.8684 25.0123 19.0565 25.3113 19.2604C25.39 19.3074 25.453 19.3701 25.5317 19.4172C25.5946 19.4642 25.4372 19.3388 25.4845 19.3858C25.5002 19.3858 25.5159 19.4172 25.5317 19.4172C25.5632 19.4485 25.6104 19.4799 25.6419 19.5112C25.7835 19.621 25.9094 19.7464 26.0511 19.8562C26.3186 20.0914 26.5547 20.3579 26.7908 20.6245C26.8223 20.6559 26.8537 20.7029 26.8852 20.7343C26.8852 20.7499 26.9954 20.8754 26.9324 20.7813C26.8695 20.6872 26.9639 20.8127 26.9796 20.8283C27.0111 20.8754 27.0426 20.9067 27.0741 20.9538C27.1842 21.0949 27.2787 21.2517 27.3731 21.3928C27.5935 21.7378 27.7823 22.0827 27.9397 22.459C28.0027 22.5845 28.16 22.6942 28.286 22.7256C28.4276 22.7569 28.6165 22.7413 28.7424 22.6629C28.8683 22.5845 28.9785 22.459 29.0099 22.3179C29.0414 22.1611 29.0099 22.02 28.947 21.8632C28.3174 20.452 27.3102 19.2447 26.0668 18.3196C25.7363 18.0687 25.39 17.8492 25.0123 17.661C24.7447 17.5199 24.3513 17.5826 24.2096 17.8649C24.068 18.1314 24.1309 18.5077 24.4142 18.6645L24.3985 18.6959Z" fill="#231F20"/>
<path d="M25.5003 24.9364C22.8719 27.7901 21.3767 31.7571 21.7545 35.6457C22.1322 39.5343 24.2097 42.7173 27.4361 44.6772C29.1989 45.7435 31.2606 46.3393 33.3382 46.2609C34.0936 46.2295 34.0936 45.0536 33.3382 45.0849C30.0488 45.1947 26.8695 43.4699 24.9494 40.8357C22.8719 37.9976 22.4312 34.3599 23.407 31.0201C23.9736 29.0758 24.9809 27.2727 26.3659 25.7674C26.8853 25.2029 26.0511 24.3719 25.5317 24.9364H25.5003Z" fill="#231F20"/>
<path d="M47.6603 20.7971C48.5102 19.9661 49.3129 19.088 50.1785 18.257C50.8711 17.5984 51.6108 17.0182 52.3505 16.4381C53.0115 15.9363 53.6725 15.4346 54.3808 14.9956C54.6798 14.8074 55.0103 14.6192 55.3409 14.5095C55.4195 14.4781 55.4982 14.4624 55.5927 14.4311C55.6871 14.3997 55.6714 14.4154 55.6871 14.4154C55.876 14.4154 55.8445 14.4154 55.9861 14.4468C56.0806 14.4781 56.0334 14.4468 56.0491 14.4624C56.0963 14.4781 56.1435 14.5095 56.1907 14.5408C56.2694 14.5879 56.3167 14.6349 56.4268 14.7447C56.5685 14.9015 56.7101 15.1367 56.8203 15.3875C57.0879 15.952 57.2452 16.6576 57.3397 17.3005C57.5443 18.5235 57.5758 19.7936 57.5915 21.0323C57.623 23.7135 57.1665 26.3948 56.0963 28.8722C55.9704 29.1701 56.0176 29.4994 56.3009 29.6718C56.5527 29.813 56.9777 29.7502 57.1036 29.468C58.7562 25.6578 59.1024 21.4086 58.5201 17.3318C58.3312 16.0304 57.985 14.2743 56.7416 13.5373C55.2779 12.6593 53.4837 14.1175 52.3505 14.9642C51.4849 15.6071 50.6979 16.1872 49.8952 16.9085C48.8093 17.8806 47.8335 18.9782 46.779 19.9974C46.2281 20.5305 47.0623 21.3616 47.6131 20.8284L47.6603 20.7971Z" fill="#231F20"/>
<path d="M54.2547 17.6923C52.9012 18.4136 51.7365 19.5112 50.9181 20.8126C50.6978 21.1576 50.5089 21.5339 50.3358 21.9102C50.2728 22.067 50.2256 22.1924 50.2728 22.3649C50.3043 22.506 50.4145 22.6472 50.5404 22.7099C50.6821 22.7883 50.8394 22.8196 50.9968 22.7726C51.1385 22.7256 51.2959 22.6315 51.3431 22.506C51.4847 22.1768 51.6579 21.8632 51.831 21.5653C51.9254 21.4085 52.0198 21.2673 52.1143 21.1105C52.1615 21.0321 52.2244 20.9694 52.2717 20.891C52.3031 20.8597 52.3189 20.8283 52.3504 20.7969C52.3976 20.7342 52.2717 20.891 52.3189 20.844C52.3346 20.8283 52.3504 20.7969 52.3661 20.7813C52.5864 20.499 52.8225 20.2325 53.0901 19.9973C53.216 19.8718 53.3576 19.7464 53.4993 19.621C53.5622 19.5739 53.6252 19.5112 53.6881 19.4642C53.7039 19.4642 53.8298 19.3544 53.7354 19.4171C53.7196 19.4171 53.6567 19.4798 53.7354 19.4171C53.7668 19.4014 53.7826 19.3858 53.8141 19.3544C54.1446 19.1192 54.4751 18.8997 54.8371 18.7115C55.1046 18.5704 55.2148 18.1627 55.0417 17.9119C54.8686 17.6296 54.5223 17.5512 54.239 17.708L54.2547 17.6923Z" fill="#231F20"/>
<path d="M52.9171 25.7675C55.3094 28.3703 56.6315 31.961 56.3324 35.4889C56.0334 39.0169 54.1133 41.902 51.2331 43.6424C49.6277 44.6146 47.8178 45.132 45.9291 45.0693C45.1737 45.0379 45.1737 46.2139 45.9291 46.2453C49.612 46.355 53.0745 44.4264 55.2622 41.5257C57.5915 38.4367 58.0794 34.36 57.0092 30.6909C56.3954 28.5428 55.2622 26.5671 53.7513 24.9207C53.2319 24.3563 52.3978 25.1873 52.9171 25.7518V25.7675Z" fill="#231F20"/>
</svg>
