<svg width="80" height="76" viewBox="0 0 80 76" fill="none" xmlns="http://www.w3.org/2000/svg">
<mask id="mask0_3865_17457" style="mask-type:luminance" maskUnits="userSpaceOnUse" x="45" y="43" width="14" height="16">
<path d="M55.0223 44.1696C54.3141 45.2202 54.2197 46.5373 54.2197 47.8073C54.2197 49.0774 54.3298 50.3475 53.9678 51.5548C53.4013 53.4677 51.607 54.9573 49.6082 55.1612C48.8685 55.2396 48.113 55.1612 47.4048 55.3336C46.6966 55.5061 45.9726 56.0549 45.9568 56.7919C45.9254 57.6699 46.8539 58.2814 47.7196 58.4853C50.2063 59.0654 52.9606 57.9208 54.7705 56.2274C57.0841 54.0793 56.4074 51.8057 56.911 49.0774C57.0999 48.0112 57.7137 47.0861 58.1386 46.0826C58.6265 44.9379 59.0042 43.6835 57.5405 43.1348C56.5018 42.7584 55.5575 43.3229 55.0223 44.1383V44.1696Z" fill="white"/>
</mask>
<g mask="url(#mask0_3865_17457)">
<path d="M55.0223 44.1696C54.3141 45.2202 54.2197 46.5373 54.2197 47.8073C54.2197 49.0774 54.3298 50.3475 53.9678 51.5548C53.4013 53.4677 51.607 54.9573 49.6082 55.1612C48.8685 55.2396 48.113 55.1612 47.4048 55.3336C46.6966 55.5061 45.9726 56.0549 45.9568 56.7919C45.9254 57.6699 46.8539 58.2814 47.7196 58.4853C50.2063 59.0654 52.9606 57.9208 54.7705 56.2274C57.0841 54.0793 56.4074 51.8057 56.911 49.0774C57.0999 48.0112 57.7137 47.0861 58.1386 46.0826C58.6265 44.9379 59.0042 43.6835 57.5405 43.1348C56.5018 42.7584 55.5575 43.3229 55.0223 44.1383V44.1696Z" fill="#F8C04E"/>
<path d="M51.4182 54.6754L54.1725 56.8235C54.3141 56.9803 54.4873 57.0901 54.6761 57.1528C54.865 57.2469 55.0696 57.2939 55.2899 57.2939C55.6834 57.2939 56.1398 57.1214 56.4074 56.8392C56.6749 56.557 56.8796 56.1493 56.8638 55.7259C56.8481 55.3339 56.7222 54.8635 56.4074 54.6127L53.6531 52.4645C53.5115 52.3077 53.3383 52.198 53.1495 52.1353C52.9606 52.0412 52.756 51.9941 52.5357 51.9941C52.1422 51.9941 51.6858 52.1666 51.4182 52.4489C51.1506 52.7311 50.946 53.1388 50.9618 53.5621C50.9775 53.9541 51.1034 54.4245 51.4182 54.6754Z" fill="#E98029"/>
<path d="M52.4254 50.6301C52.6772 50.6458 52.9133 50.6772 53.1651 50.7085L52.7401 50.6458C53.7002 50.7712 54.6288 51.0221 55.5259 51.3984L55.1482 51.2416C55.5259 51.3984 55.9036 51.5866 56.2656 51.7904C56.9896 52.1981 58.0126 51.9786 58.4218 51.226C58.831 50.4733 58.6264 49.5169 57.8552 49.0778C56.1869 48.137 54.3455 47.6196 52.4254 47.4942C51.607 47.4471 50.82 48.2468 50.8515 49.0621C50.8987 49.9559 51.544 50.5674 52.4254 50.6301Z" fill="#E98029"/>
<path d="M54.3923 45.0166C55.6829 45.7692 57.0994 46.3337 58.5474 46.6473C58.9566 46.7414 59.3815 46.71 59.7592 46.4905C60.0898 46.3023 60.4045 45.926 60.4832 45.5497C60.5777 45.142 60.5619 44.703 60.3258 44.3424C60.1055 44.0131 59.7907 43.7152 59.3815 43.6211C58.6103 43.4486 57.8391 43.2134 57.1151 42.9155L57.4929 43.0723C56.9735 42.8528 56.4698 42.6019 55.9819 42.304C55.6357 42.1002 55.1635 42.0374 54.7701 42.1472C54.4081 42.2413 54.0146 42.5235 53.8257 42.8685C53.4323 43.6211 53.6369 44.5619 54.3923 45.0166Z" fill="#E98029"/>
</g>
<mask id="mask1_3865_17457" style="mask-type:luminance" maskUnits="userSpaceOnUse" x="29" y="37" width="21" height="25">
<path d="M41.1561 38.2424C44.6186 39.3087 46.4128 42.3035 47.6405 45.4551C48.3487 47.274 48.8366 49.1556 49.3717 51.0528C50.1744 54.0634 49.7652 57.7324 47.2627 59.567C45.6417 60.7586 43.5327 60.9468 41.5181 61.0565C36.3873 61.3231 30.2177 61.1506 29.2419 54.8944C28.8327 52.2602 29.7613 50.4884 30.4853 48.0423C31.3824 45.0161 32.61 41.1589 35.317 39.3243C37.0011 38.1797 39.1888 37.6466 41.1561 38.2424Z" fill="white"/>
</mask>
<g mask="url(#mask1_3865_17457)">
<path d="M41.1561 38.2424C44.6186 39.3087 46.4128 42.3035 47.6405 45.4551C48.3487 47.274 48.8366 49.1556 49.3717 51.0528C50.1744 54.0634 49.7652 57.7324 47.2627 59.567C45.6417 60.7586 43.5327 60.9468 41.5181 61.0565C36.3873 61.3231 30.2177 61.1506 29.2419 54.8944C28.8327 52.2602 29.7613 50.4884 30.4853 48.0423C31.3824 45.0161 32.61 41.1589 35.317 39.3243C37.0011 38.1797 39.1888 37.6466 41.1561 38.2424Z" fill="#F8C04E"/>
<path d="M28.313 44.3099C27.6677 45.0939 27.2113 46.0033 27.2427 47.0539C27.3057 49.2961 28.3287 49.5156 30.1702 49.9547C31.1302 50.1899 31.9014 50.9582 32.3264 51.8362C33.5697 54.4548 32.7356 57.9357 34.4353 60.3817C35.7417 62.2476 38.3543 62.6396 40.6364 62.5299C41.8955 62.4671 43.2648 62.2633 44.1147 61.3382C44.5081 60.9148 44.7442 60.3817 44.9173 59.8329C46.0348 56.3991 43.4064 51.8049 48.0651 50.331C51.7794 49.155 50.2843 47.6497 48.4743 45.2821C46.6643 42.9144 44.1619 41.0642 41.203 40.3116C37.2841 39.3081 32.8615 40.2959 29.7452 42.8831C29.2258 43.3064 28.7222 43.7768 28.2972 44.2942L28.313 44.3099Z" fill="white"/>
<path d="M30.2173 58.579L31.8541 57.356C32.0429 57.2619 32.1846 57.1208 32.2948 56.9483C32.4364 56.7915 32.5308 56.619 32.5781 56.4152C32.641 56.2113 32.6568 55.9918 32.6095 55.788C32.6095 55.5841 32.5308 55.3803 32.4207 55.2078C32.2003 54.8785 31.8856 54.5806 31.4764 54.4865L31.0514 54.4238C30.7681 54.4238 30.5005 54.5022 30.2645 54.6433L28.6276 55.8664C28.4388 55.9605 28.2971 56.1016 28.187 56.274C28.0453 56.4308 27.9509 56.6033 27.9037 56.8072C27.8407 57.011 27.825 57.2305 27.8722 57.4344C27.8722 57.6382 27.9509 57.842 28.061 58.0145C28.2814 58.3438 28.5962 58.6417 29.0054 58.7358L29.4303 58.7985C29.7136 58.7985 29.9812 58.7201 30.2173 58.579Z" fill="#E98029"/>
<path d="M47.3414 56.5712L48.8366 56.9946C49.0412 57.0573 49.2616 57.073 49.4662 57.026C49.6708 57.026 49.8754 56.9476 50.0485 56.8378C50.2374 56.7437 50.379 56.6026 50.4892 56.4301C50.6308 56.2733 50.7252 56.1008 50.7725 55.897L50.8354 55.4737C50.8354 55.1914 50.7567 54.9249 50.6151 54.6897L50.3633 54.3761C50.1744 54.1879 49.9383 54.0468 49.6708 53.9684L48.1756 53.545C47.971 53.4823 47.7506 53.4666 47.546 53.5137C47.3414 53.5137 47.1368 53.5921 46.9637 53.7018C46.7748 53.7959 46.6332 53.937 46.523 54.1095C46.3814 54.2663 46.2869 54.4388 46.2397 54.6426L46.1768 55.066C46.1768 55.3482 46.2555 55.6148 46.3971 55.85L46.6489 56.1636C46.8378 56.3517 47.0739 56.4928 47.3414 56.5712Z" fill="#E98029"/>
</g>
<path d="M32.2642 42.037C31.6031 43.4482 30.9736 44.8907 30.3913 46.3333C29.8089 47.7758 29.2581 49.1243 28.8803 50.5668C28.2193 53.1069 28.1721 55.898 29.6201 58.1872C30.344 59.3318 31.3513 60.1942 32.6104 60.6803C33.3187 60.9468 33.6334 59.8179 32.9252 59.5513C30.1867 58.5008 29.3525 55.1924 29.683 52.5738C29.8876 50.8804 30.4857 49.2497 31.1152 47.6661C31.792 45.957 32.516 44.2792 33.2872 42.6172C33.602 41.9272 32.5947 41.3314 32.2642 42.0213V42.037Z" fill="#231F20"/>
<path d="M32.7207 55.9912C32.7522 56.9634 32.8466 57.9512 33.0512 58.892C33.2243 59.723 33.6335 60.5697 34.4362 60.9617C34.8612 61.1656 35.3019 61.244 35.7583 61.2597C36.1832 61.2597 36.6554 61.2283 37.0646 61.1342C37.5525 61.0245 37.9774 60.7265 38.2135 60.2875C38.4181 59.9112 38.5126 59.4878 38.5755 59.0645C38.7486 57.9669 38.7959 56.8536 38.6699 55.7404C38.6542 55.5836 38.6227 55.4424 38.4968 55.317C38.3866 55.2073 38.2293 55.1445 38.0719 55.1445C37.7886 55.1445 37.4423 55.4111 37.4738 55.7404C37.5682 56.6184 37.5682 57.4965 37.4738 58.3746C37.4738 58.4373 37.4738 58.4843 37.4581 58.5471C37.4581 58.5784 37.4581 58.5941 37.4581 58.6254C37.4581 58.5157 37.4581 58.7195 37.4581 58.6254C37.4423 58.7352 37.4266 58.845 37.4108 58.9547C37.3794 59.1272 37.3479 59.3154 37.3007 59.4878C37.3007 59.5349 37.2692 59.5662 37.2535 59.6133C37.2535 59.629 37.2535 59.6446 37.2377 59.6603C37.222 59.723 37.2692 59.5976 37.2692 59.5976C37.2377 59.629 37.2377 59.676 37.222 59.7074C37.2062 59.7544 37.1748 59.7858 37.1433 59.8328C37.1433 59.8328 37.1275 59.8642 37.1118 59.8798C37.1118 59.8798 37.1905 59.7858 37.1433 59.8328C37.1118 59.8642 37.0803 59.8955 37.0489 59.9269C37.1275 59.8798 37.0489 59.9269 37.0331 59.9269C37.0016 59.9426 36.9229 59.9739 36.9072 59.9896C36.9387 59.9426 37.0016 59.9582 36.9387 59.9896C36.9229 59.9896 36.9072 59.9896 36.8757 60.0053C36.8285 60.0053 36.7813 60.0366 36.7341 60.0366C36.6869 60.0366 36.6554 60.0523 36.6082 60.068C36.5767 60.068 36.561 60.068 36.5295 60.068C36.4508 60.068 36.5295 60.068 36.561 60.068C36.4823 60.0994 36.3721 60.0837 36.2934 60.0994C36.199 60.0994 36.1203 60.0994 36.0258 60.115C35.8527 60.115 35.6638 60.115 35.4907 60.115C35.475 60.115 35.4592 60.115 35.4278 60.115C35.3648 60.115 35.4907 60.115 35.4907 60.115C35.4435 60.115 35.3963 60.115 35.3648 60.0994C35.2704 60.0837 35.1759 60.0523 35.0972 60.021C35.0658 60.021 35.0343 59.9896 34.9871 59.9896C34.9871 59.9896 35.113 60.0523 35.0186 59.9896C35.0028 59.9896 34.9871 59.9739 34.9713 59.9582C34.8926 59.9112 34.814 59.8642 34.751 59.8171C34.688 59.7701 34.8297 59.8955 34.7825 59.8328C34.7825 59.8328 34.751 59.8014 34.7353 59.8014C34.7038 59.7701 34.6723 59.7387 34.6408 59.7074C34.6094 59.676 34.5936 59.6603 34.5621 59.629C34.4992 59.5506 34.5621 59.6133 34.5621 59.629C34.5149 59.5662 34.4834 59.5035 34.4362 59.4251C34.4205 59.3938 34.389 59.3467 34.3733 59.3154C34.3733 59.2997 34.3733 59.284 34.3575 59.2683C34.4362 59.3938 34.389 59.331 34.3575 59.284C34.2946 59.1272 34.2474 58.9547 34.2001 58.7823C34.1529 58.5784 34.1214 58.3903 34.09 58.1864C34.0742 58.061 34.0585 57.9512 34.0428 57.8258C34.0428 57.8101 34.027 57.7003 34.0428 57.7787C34.0585 57.8571 34.0428 57.7474 34.0428 57.7317C34.0428 57.669 34.027 57.6063 34.027 57.5435C33.9641 57.0418 33.9326 56.54 33.9168 56.0226C33.9168 55.709 33.6493 55.4268 33.3188 55.4268C32.9883 55.4268 32.7207 55.6776 32.7207 56.0226V55.9912Z" fill="#231F20"/>
<path d="M45.5165 42.6327C46.2877 44.2948 47.0116 45.9725 47.6884 47.6816C48.318 49.2653 48.916 50.896 49.1206 52.5894C49.4511 55.2079 48.617 58.5164 45.8785 59.5669C45.1702 59.8335 45.485 60.9781 46.1932 60.6959C48.4439 59.8335 49.8604 57.6853 50.2538 55.3647C50.7417 52.4483 49.7187 49.5632 48.6485 46.8976C47.9874 45.2669 47.2949 43.6519 46.5395 42.0526C46.2247 41.3627 45.2017 41.9585 45.5165 42.6484V42.6327Z" fill="#231F20"/>
<path d="M44.8863 55.9913C44.8863 56.446 44.8391 56.885 44.7919 57.3398C44.7919 57.4495 44.7762 57.5436 44.7604 57.6534C44.7604 57.6847 44.7604 57.7004 44.7604 57.7318C44.7604 57.7945 44.7447 57.8572 44.729 57.9199C44.6975 58.1081 44.666 58.2962 44.6345 58.5001C44.603 58.6725 44.5558 58.845 44.5086 59.0175C44.4771 59.0959 44.4614 59.1743 44.4299 59.2527L44.3984 59.3154C44.3984 59.3154 44.4457 59.2057 44.4142 59.2527C44.3984 59.2997 44.367 59.3468 44.3512 59.3781C44.3197 59.4408 44.2725 59.5193 44.2253 59.582C44.2253 59.5976 44.1938 59.629 44.1781 59.6447C44.1781 59.6447 44.2568 59.5506 44.2096 59.5976C44.1781 59.629 44.1466 59.6761 44.1151 59.7074C44.0837 59.7388 44.0679 59.7544 44.0365 59.7858C44.0207 59.8015 44.005 59.8172 43.9735 59.8328C43.9263 59.8799 44.0207 59.8015 44.0207 59.8015C43.942 59.8328 43.8791 59.8956 43.8004 59.9426C43.7846 59.9426 43.643 60.021 43.7374 59.974C43.8161 59.9426 43.6902 59.974 43.6745 59.9896C43.5958 60.021 43.5013 60.0367 43.4226 60.0524C43.3754 60.0524 43.3282 60.0524 43.2967 60.068C43.2338 60.068 43.3597 60.068 43.3597 60.068H43.281C43.1866 60.068 43.1079 60.068 43.0134 60.068C42.8246 60.068 42.6514 60.068 42.4626 60.0524C42.3839 60.0524 42.2895 60.0367 42.2108 60.021C42.1478 60.021 42.2737 60.021 42.2737 60.021C42.2422 60.021 42.2108 60.021 42.195 60.021C42.1478 60.021 42.0848 60.0053 42.0376 59.9896C41.9904 59.9896 41.9589 59.974 41.9117 59.9583C41.8802 59.9583 41.8645 59.9426 41.833 59.9269C41.8173 59.9269 41.7858 59.8956 41.7701 59.8799C41.7543 59.8799 41.7386 59.8642 41.7229 59.8485C41.6599 59.8172 41.8016 59.9269 41.7543 59.8799C41.7229 59.8485 41.6914 59.8172 41.6599 59.7858C41.6127 59.7231 41.5812 59.6447 41.534 59.5663C41.5025 59.5036 41.5655 59.629 41.5655 59.629C41.5655 59.6133 41.5497 59.582 41.534 59.5663C41.534 59.5349 41.5183 59.5036 41.5025 59.4565C41.471 59.3624 41.4553 59.2841 41.4396 59.19C41.3923 58.9861 41.3609 58.7823 41.3294 58.5785C41.3294 58.5157 41.3294 58.6098 41.3294 58.6098C41.3294 58.5785 41.3294 58.5471 41.3294 58.5157C41.3294 58.453 41.3294 58.3903 41.3137 58.3276C41.3137 58.2021 41.2822 58.0767 41.2822 57.9513C41.2664 57.7004 41.2507 57.4652 41.2507 57.2143C41.2507 56.7126 41.2664 56.2108 41.3294 55.7247C41.3609 55.4111 41.0304 55.1289 40.7313 55.1289C40.3851 55.1289 40.1805 55.3955 40.1332 55.7247C40.0231 56.6812 40.0388 57.6377 40.1647 58.5941C40.2906 59.5506 40.4323 60.6012 41.4081 61.0088C41.833 61.1813 42.3052 61.2284 42.7459 61.244C43.1708 61.2597 43.6115 61.244 44.0207 61.1029C44.4457 60.9618 44.8391 60.7266 45.1224 60.366C45.4057 60.0053 45.5946 59.5977 45.7048 59.1743C45.8464 58.6725 45.9094 58.1394 45.9723 57.622C46.0353 57.0732 46.0825 56.5401 46.0982 55.9913C46.0982 55.6777 45.8149 55.3955 45.5002 55.3955C45.1696 55.3955 44.9178 55.6463 44.9021 55.9913H44.8863Z" fill="#231F20"/>
<path d="M51.8748 55.052C53.4644 54.2993 54.2041 52.5118 54.4244 50.8654C54.6605 49.0309 54.3457 46.9925 55.2271 45.2834C55.416 44.9071 55.6521 44.5778 55.9511 44.2956C56.2029 44.0604 56.6751 43.6841 57.0528 43.7782C57.7925 43.9507 58.1073 42.8217 57.3676 42.6492C56.4075 42.4297 55.4475 43.0726 54.8494 43.7625C54.2513 44.4524 53.8893 45.2678 53.6847 46.1301C53.2126 48.1058 53.6375 50.2069 52.9135 52.1355C52.6145 52.9509 52.0794 53.6564 51.2767 54.0328C50.9934 54.1739 50.9147 54.5816 51.0721 54.8324C51.2452 55.1304 51.5915 55.1774 51.8748 55.0363V55.052Z" fill="#231F20"/>
<path d="M48.8685 58.987C51.7014 59.1124 54.4242 57.5915 56.0139 55.2865C56.848 54.0635 57.2415 52.6994 57.3674 51.2411C57.4303 50.4101 57.4303 49.5634 57.5562 48.7324C57.6822 47.9013 57.9969 47.2271 58.4219 46.5215C58.8468 45.8159 59.2088 45.0006 58.9727 44.1382C58.7681 43.3856 58.1858 42.7897 57.3831 42.7741C56.6277 42.7427 56.6277 43.9187 57.3831 43.95C57.7766 43.95 57.9025 44.5459 57.8553 44.8595C57.7766 45.518 57.273 46.0825 56.9739 46.6626C56.2971 47.9954 56.2971 49.485 56.2027 50.9432C56.124 52.2133 55.8407 53.3736 55.164 54.4555C54.5344 55.459 53.653 56.29 52.63 56.8859C51.4811 57.5601 50.1905 57.9051 48.8527 57.8423C48.0973 57.811 48.0973 58.987 48.8527 59.0183L48.8685 58.987Z" fill="#231F20"/>
<path d="M34.751 59.1127C34.751 59.2225 34.751 59.3322 34.7825 59.4576C34.7825 59.536 34.8139 59.6145 34.8297 59.6928C34.8611 59.8026 34.9084 59.9124 34.9556 60.0064C34.9871 60.0848 35.0343 60.1476 35.0815 60.226C35.113 60.273 35.1444 60.3044 35.1759 60.3357C35.2074 60.3671 35.2546 60.3984 35.3176 60.3984C35.3648 60.4141 35.4277 60.4141 35.475 60.3984C35.5222 60.3984 35.5694 60.3828 35.6166 60.3514C35.6953 60.3044 35.774 60.2103 35.7897 60.1162C35.8055 60.0221 35.8055 59.8967 35.7425 59.8183C35.6796 59.7399 35.6323 59.6458 35.6009 59.5517L35.6481 59.6458C35.5851 59.5204 35.5537 59.3793 35.5379 59.2381V59.3479C35.5379 59.3479 35.5379 59.1911 35.5379 59.1127C35.5379 59.0657 35.5379 59.0029 35.5064 58.9559C35.4907 58.9089 35.4592 58.8618 35.4277 58.8305C35.3963 58.7991 35.349 58.7677 35.3018 58.7521C35.2546 58.7207 35.2074 58.7207 35.1444 58.7207C35.05 58.7207 34.9398 58.7521 34.8611 58.8305C34.7825 58.9089 34.751 59.0029 34.751 59.1127Z" fill="#231F20"/>
<path d="M36.0568 59.4724L36.1984 60.2564C36.1984 60.2564 36.2299 60.3505 36.2614 60.3975C36.2929 60.4446 36.3244 60.4759 36.3716 60.4916C36.4188 60.523 36.466 60.5386 36.5132 60.5386C36.5604 60.5386 36.6234 60.5386 36.6706 60.5386L36.765 60.4916C36.765 60.4916 36.8752 60.4132 36.9067 60.3505L36.9539 60.2564C36.9539 60.2564 36.9696 60.1153 36.9539 60.0526L36.8123 59.2686C36.8123 59.2686 36.7808 59.1745 36.7493 59.1274C36.7178 59.0804 36.6864 59.0491 36.6391 59.0334C36.5919 59.002 36.5447 58.9863 36.4975 58.9863C36.4503 58.9863 36.3873 58.9863 36.3401 58.9863L36.2457 59.0334C36.2457 59.0334 36.1355 59.1118 36.104 59.1745L36.0568 59.2686C36.0568 59.2686 36.0411 59.4097 36.0568 59.4724Z" fill="#231F20"/>
<path d="M41.9593 59.0019C41.9278 59.1116 41.9121 59.2214 41.9121 59.3312C41.9121 59.4096 41.9121 59.488 41.9121 59.582C41.9121 59.6918 41.9436 59.8016 41.9751 59.9113C42.0065 60.0211 42.0538 60.1308 42.101 60.2249C42.1325 60.2719 42.1639 60.3033 42.1954 60.3347C42.2269 60.366 42.2741 60.3974 42.3371 60.3974C42.3843 60.4131 42.4472 60.4131 42.4944 60.3974C42.5417 60.3974 42.5889 60.3817 42.6361 60.3503C42.7148 60.3033 42.7935 60.2092 42.8092 60.1152V60.0054C42.8092 60.0054 42.8092 59.8643 42.762 59.8016C42.762 59.7859 42.7463 59.7702 42.7305 59.7388L42.7777 59.8329C42.7305 59.7232 42.699 59.6134 42.6833 59.488V59.5977C42.6833 59.4723 42.6833 59.3625 42.6833 59.2371V59.3468C42.6833 59.3468 42.6833 59.2371 42.699 59.19C42.7148 59.143 42.7148 59.0803 42.699 59.0332C42.699 58.9862 42.6833 58.9392 42.6518 58.8921C42.6204 58.8451 42.5889 58.8137 42.5574 58.7824C42.5259 58.751 42.4787 58.7196 42.4158 58.7196C42.3213 58.704 42.1954 58.704 42.1167 58.7667C42.038 58.8294 41.9593 58.9078 41.9436 59.0019H41.9593Z" fill="#231F20"/>
<path d="M43.234 59.3475C43.234 59.3475 43.2497 59.4415 43.2654 59.4729V59.3631C43.2654 59.4886 43.2654 59.614 43.2654 59.7238V59.614C43.2654 59.7395 43.234 59.8492 43.1868 59.959L43.234 59.8649C43.234 59.8649 43.2182 59.9119 43.2025 59.9276C43.171 59.9747 43.1553 60.0217 43.1553 60.0687C43.1553 60.1158 43.1553 60.1785 43.1553 60.2255C43.1553 60.2726 43.1867 60.3196 43.2182 60.3666C43.2497 60.4137 43.2812 60.445 43.3284 60.4607C43.4228 60.5078 43.533 60.5391 43.6274 60.5078C43.7219 60.4764 43.8163 60.4137 43.8635 60.3353C43.9107 60.2412 43.958 60.1314 43.9894 60.0217C44.0209 59.9119 44.0366 59.8022 44.0524 59.6924C44.0524 59.614 44.0524 59.5356 44.0524 59.4572C44.0524 59.3475 44.0366 59.2377 44.0052 59.1279C44.0052 59.0809 43.9737 59.0339 43.9422 58.9868C43.9107 58.9398 43.8793 58.9084 43.832 58.8927C43.7848 58.8614 43.7376 58.8457 43.6904 58.8457C43.6432 58.8457 43.5802 58.8457 43.533 58.8457C43.4386 58.8771 43.3441 58.9398 43.2969 59.0182L43.2497 59.1123C43.2497 59.1123 43.234 59.2534 43.2497 59.3161L43.234 59.3475Z" fill="#231F20"/>
<mask id="mask2_3865_17457" style="mask-type:luminance" maskUnits="userSpaceOnUse" x="20" y="13" width="38" height="34">
<path d="M20.4768 19.506C20.4138 22.4381 20.823 25.3859 21.6887 28.1926C21.8618 28.7414 22.0507 29.3059 22.0979 29.8704C22.1608 30.5132 22.0349 31.1561 21.9562 31.799C21.4211 35.9855 22.4284 40.5954 25.5604 43.4334C29.1016 46.6321 34.3584 46.8986 39.1429 46.7105C41.8028 46.6007 44.4784 46.4282 47.0438 45.6913C49.6092 44.9543 52.0644 43.6686 53.78 41.6459C54.4725 40.8305 55.0391 39.9211 55.4483 38.949C56.0778 37.4437 56.5657 35.5151 56.487 33.8687C56.4083 32.4575 55.7316 31.2815 55.9676 29.7763C56.1408 28.6944 56.5342 27.6595 56.8647 26.609C57.8248 23.5357 58.1711 20.2116 57.4943 17.06C57.2897 16.0878 56.9434 15.0686 56.1408 14.4728C54.8502 13.5007 53.8114 14.5982 52.7255 15.2254C51.0257 16.2133 49.5148 17.546 48.3186 19.0983C47.9251 19.6158 47.5317 20.1959 46.9179 20.4311C46.3355 20.6663 45.6745 20.5409 45.0607 20.4311C42.873 20.0705 40.6381 19.9294 38.4189 20.0235C36.8766 20.0862 34.0436 19.8667 32.6428 20.4782C32.4697 20.5566 32.2966 20.6506 32.1077 20.6193C31.8874 20.5879 31.73 20.3998 31.5883 20.243C29.558 17.7342 27.2602 15.2411 24.2069 14.1592C21.2008 13.0773 20.4925 17.3422 20.4453 19.4903L20.4768 19.506Z" fill="white"/>
</mask>
<g mask="url(#mask2_3865_17457)">
<path d="M20.4768 19.506C20.4138 22.4381 20.823 25.3859 21.6887 28.1926C21.8618 28.7414 22.0507 29.3059 22.0979 29.8704C22.1608 30.5132 22.0349 31.1561 21.9562 31.799C21.4211 35.9855 22.4284 40.5954 25.5604 43.4334C29.1016 46.6321 34.3584 46.8986 39.1429 46.7105C41.8028 46.6007 44.4784 46.4282 47.0438 45.6913C49.6092 44.9543 52.0644 43.6686 53.78 41.6459C54.4725 40.8305 55.0391 39.9211 55.4483 38.949C56.0778 37.4437 56.5657 35.5151 56.487 33.8687C56.4083 32.4575 55.7316 31.2815 55.9676 29.7763C56.1408 28.6944 56.5342 27.6595 56.8647 26.609C57.8248 23.5357 58.1711 20.2116 57.4943 17.06C57.2897 16.0878 56.9434 15.0686 56.1408 14.4728C54.8502 13.5007 53.8114 14.5982 52.7255 15.2254C51.0257 16.2133 49.5148 17.546 48.3186 19.0983C47.9251 19.6158 47.5317 20.1959 46.9179 20.4311C46.3355 20.6663 45.6745 20.5409 45.0607 20.4311C42.873 20.0705 40.6381 19.9294 38.4189 20.0235C36.8766 20.0862 34.0436 19.8667 32.6428 20.4782C32.4697 20.5566 32.2966 20.6506 32.1077 20.6193C31.8874 20.5879 31.73 20.3998 31.5883 20.243C29.558 17.7342 27.2602 15.2411 24.2069 14.1592C21.2008 13.0773 20.4925 17.3422 20.4453 19.4903L20.4768 19.506Z" fill="#F8C04E"/>
<path d="M50.1127 44.5773C50.8367 43.9501 51.2617 43.1504 51.2459 42.0999C51.2302 40.6887 50.4905 39.3716 49.5147 38.3524C49.1527 37.9604 48.7435 37.6155 48.3028 37.3489C47.6103 36.9255 46.8076 36.706 46.0049 36.5022C44.494 36.0945 42.7155 35.1537 41.7082 33.9307C40.9843 33.037 38.6549 29.164 38.7808 28.0508C38.5133 30.1832 37.9152 32.5822 36.5617 34.307C34.8776 36.4395 32.2335 36.6276 30.0616 38.0545C28.8969 38.8228 28.0313 40.0615 27.8424 41.4413C27.0083 47.3683 35.3498 46.8979 39.1428 46.7411C41.661 46.647 47.6103 46.7725 50.1127 44.6087V44.5773Z" fill="white"/>
<path d="M26.9291 20.1173C26.457 19.5215 25.9061 18.9884 25.3395 18.5023C25.0562 18.3141 24.7729 18.126 24.4739 17.9692C24.4267 17.9535 24.4267 17.9535 24.4109 17.9378C24.4109 17.9378 24.4109 17.9378 24.3637 17.9378C24.3165 17.9221 24.2693 17.9065 24.2221 17.8908C24.1591 17.8751 24.0804 17.8594 24.0175 17.8438C24.0017 17.8438 24.0175 17.8438 23.986 17.8438C23.9388 17.8438 23.8128 17.8438 23.7814 17.8438C23.7656 17.8438 23.7499 17.8438 23.7342 17.8438C23.7027 17.8438 23.6869 17.8751 23.6555 17.8908C23.624 17.9221 23.5453 18.0005 23.5296 18.0319C23.4823 18.0946 23.4509 18.1573 23.4194 18.2357C23.4036 18.2828 23.3879 18.2828 23.3879 18.2985C23.3879 18.2985 23.3879 18.3141 23.3722 18.3612C23.2935 18.5807 23.2305 18.8002 23.199 19.0354C23.1203 19.4431 23.0889 19.9448 23.0889 20.5093C23.0889 21.7794 23.2148 23.1122 23.3879 24.3352C23.4981 25.1505 23.6712 25.9816 23.8286 26.7969C24.4581 26.0129 25.308 25.4485 26.095 24.8369C26.7403 24.3352 27.9836 23.5669 28.1725 22.6888C28.3613 21.8421 27.4328 20.7445 26.9449 20.133L26.9291 20.1173Z" fill="white"/>
<path d="M54.0632 27.3455C54.8973 25.2758 55.5741 23.0179 55.7472 20.7757C55.7787 20.2896 55.7944 19.8035 55.7472 19.3174C55.7472 19.145 55.7158 19.0509 55.6528 18.7843C55.6371 18.6902 55.6056 18.5962 55.5741 18.5021C55.5269 18.361 55.5269 18.3766 55.5269 18.3923C55.4797 18.3139 55.4325 18.2198 55.3852 18.1414C55.3852 18.1258 55.4482 18.2042 55.3223 18.0787C55.3065 18.063 55.2908 18.0474 55.2751 18.0317C55.2436 18.016 55.1649 17.969 55.1492 17.9533C55.1019 17.9533 55.0075 17.9062 54.976 17.9062C54.9918 17.9062 55.0232 17.9062 54.8659 17.9062C54.5983 17.9062 54.6613 17.9062 54.3937 17.9533C54.2993 17.969 54.2206 17.9533 54.1419 17.9533C54.0789 17.9846 54.016 18.016 53.953 18.0474C53.2448 18.455 52.6467 19.0195 52.1116 19.6153C51.2932 20.5091 50.4275 21.6537 50.0498 22.8454C50.4118 23.9116 51.6866 24.7426 52.4106 25.4953C52.9929 26.0911 53.4808 26.781 53.953 27.4709C53.9687 27.4239 54.0002 27.3612 54.0317 27.3141L54.0632 27.3455Z" fill="white"/>
<path d="M40.0716 25.1816C39.804 23.0178 39.6624 20.8226 39.6624 18.6431C39.6624 17.8278 38.9384 17.0438 38.0885 17.0751C37.2386 17.1065 36.5146 17.765 36.5146 18.6431C36.5146 20.8226 36.6563 23.0178 36.9239 25.1816C36.9711 25.6049 37.0655 25.9656 37.3803 26.2949C37.6478 26.5614 38.1043 26.7652 38.4977 26.7496C39.2689 26.7182 40.1818 26.0597 40.0716 25.1816Z" fill="#E98029"/>
<path d="M35.6174 23.2532C35.3656 22.6573 35.2082 22.0301 35.1138 21.3873L35.1767 21.8106C35.098 21.1677 35.098 20.5092 35.1767 19.8663L35.1138 20.2897C35.1452 20.1172 35.161 19.929 35.2082 19.7566C35.2869 19.3332 35.2711 18.9255 35.0508 18.5492C34.8619 18.2199 34.4842 17.9063 34.1065 17.8279C33.3195 17.6555 32.3437 18.0631 32.1706 18.9255C31.8244 20.6503 31.9188 22.4692 32.5798 24.1155C32.7372 24.5075 32.9261 24.8211 33.3038 25.0563C33.6343 25.2602 34.138 25.3386 34.5157 25.2131C34.8934 25.0877 35.2712 24.8525 35.46 24.4919C35.6489 24.1312 35.7748 23.6608 35.6174 23.2845V23.2532Z" fill="#E98029"/>
<path d="M44.4309 24.2259C44.8401 22.1248 44.8244 20.008 44.305 17.9226C44.1161 17.1229 43.1561 16.5741 42.3691 16.825C41.5822 17.0759 41.0628 17.9069 41.2674 18.7536C41.3776 19.177 41.4563 19.616 41.5192 20.0551L41.4563 19.6317C41.6137 20.745 41.6137 21.8739 41.4563 22.9872L41.5192 22.5638C41.4877 22.8304 41.4405 23.0969 41.3776 23.3635C41.2202 24.1632 41.6137 25.0883 42.4793 25.2921C43.2662 25.4646 44.242 25.0569 44.4152 24.1945L44.4309 24.2259Z" fill="#E98029"/>
<path d="M20.9331 35.8135C21.6256 35.6254 22.3338 35.5 23.0421 35.3902L22.6171 35.4529C23.4198 35.3432 24.2225 35.2961 25.0252 35.2961C25.8278 35.2961 26.6305 34.5748 26.599 33.7281C26.5676 32.8814 25.9065 32.1602 25.0252 32.1602C23.3726 32.1602 21.6886 32.364 20.0832 32.7873C19.2805 32.9912 18.7297 33.9163 18.9815 34.716C19.2333 35.5156 20.0675 36.0331 20.9174 35.8135H20.9331Z" fill="#E98029"/>
<path d="M22.5544 41.8177L25.4031 40.2811C25.7493 40.093 26.0169 39.7166 26.1271 39.3403C26.2372 38.964 26.19 38.4623 25.9697 38.133C25.7493 37.8037 25.4346 37.5058 25.0254 37.4117C24.6004 37.3176 24.1912 37.3647 23.8135 37.5685L20.9648 39.1051C20.6185 39.2933 20.3509 39.6696 20.2408 40.0459C20.1306 40.4222 20.1778 40.924 20.3982 41.2533C20.6185 41.5825 20.9333 41.8805 21.3425 41.9745C21.7674 42.0686 22.1766 42.0216 22.5544 41.8177Z" fill="#E98029"/>
<path d="M53.7642 33.8532C54.4724 33.5709 55.2122 33.3671 55.9834 33.2573L55.5584 33.3201C56.3611 33.2103 57.148 33.2103 57.9507 33.3201L57.5258 33.2573C57.7776 33.2887 58.0294 33.3357 58.2812 33.3828C59.0839 33.5553 60.0282 33.1476 60.2171 32.2852C60.3902 31.5012 59.981 30.5447 59.1154 30.3566C57.0536 29.9176 54.8659 30.0273 52.9143 30.827C52.5208 30.9838 52.1903 31.1719 51.97 31.5482C51.7654 31.8775 51.6867 32.3793 51.8126 32.7556C51.9385 33.1319 52.1746 33.5082 52.5366 33.6964C52.8986 33.8845 53.3707 34.01 53.7485 33.8532H53.7642Z" fill="#E98029"/>
<path d="M53.4967 38.8547L58.8478 39.184C59.6662 39.231 60.4532 38.4314 60.4217 37.616C60.3745 36.7223 59.7292 36.1108 58.8478 36.048L53.4967 35.7188C52.6782 35.6717 51.8913 36.4714 51.9228 37.2868C51.97 38.1805 52.6153 38.792 53.4967 38.8547Z" fill="#E98029"/>
</g>
<path d="M30.8637 34.9033C31.7155 34.9033 32.4061 34.2154 32.4061 33.3667C32.4061 32.518 31.7155 31.8301 30.8637 31.8301C30.0118 31.8301 29.3213 32.518 29.3213 33.3667C29.3213 34.2154 30.0118 34.9033 30.8637 34.9033Z" fill="#231F20"/>
<path d="M46.8695 34.9033C47.7214 34.9033 48.4119 34.2154 48.4119 33.3667C48.4119 32.518 47.7214 31.8301 46.8695 31.8301C46.0177 31.8301 45.3271 32.518 45.3271 33.3667C45.3271 34.2154 46.0177 34.9033 46.8695 34.9033Z" fill="#231F20"/>
<path d="M38.8586 35.9845C39.6236 35.9845 40.2437 35.5984 40.2437 35.1222C40.2437 34.6459 39.6236 34.2598 38.8586 34.2598C38.0937 34.2598 37.4736 34.6459 37.4736 35.1222C37.4736 35.5984 38.0937 35.9845 38.8586 35.9845Z" fill="#231F20"/>
<path d="M29.8096 22.3601C35.3811 20.0866 41.6766 19.8984 47.3898 21.8584C48.1138 22.1093 48.4128 20.9646 47.7046 20.7294C41.834 18.7067 35.2552 18.8792 29.5106 21.2312C29.2115 21.3566 29.0069 21.6232 29.1014 21.9525C29.1801 22.2347 29.5263 22.4856 29.8254 22.3601H29.8096Z" fill="#231F20"/>
<path d="M22.9943 14.6452C25.544 15.7428 27.8891 17.2638 29.8879 19.1767C30.4545 19.7255 31.0053 20.3056 31.5247 20.9015C31.7293 21.1367 32.1543 21.121 32.3589 20.9015C32.5949 20.6663 32.5635 20.3056 32.3589 20.0704C30.5017 17.9066 28.251 16.0721 25.7643 14.6923C25.0561 14.3003 24.3321 13.9396 23.5924 13.626C23.2933 13.5006 22.9628 13.532 22.7897 13.8299C22.6481 14.0808 22.711 14.5041 22.9943 14.6295V14.6452Z" fill="#231F20"/>
<path d="M21.1376 14.9114C19.3748 19.6937 19.5794 25.0562 21.594 29.7131C21.7199 30.011 22.1449 30.0738 22.3967 29.917C22.6957 29.7445 22.7429 29.3995 22.6013 29.1173C20.7126 24.7426 20.6182 19.6781 22.255 15.225C22.5226 14.5194 21.3737 14.2058 21.1218 14.9114H21.1376Z" fill="#231F20"/>
<path d="M23.8917 18.9571C24.2064 19.1296 24.5055 19.3177 24.8045 19.5216C24.8832 19.5686 24.9462 19.6313 25.0248 19.6784C25.0878 19.7254 24.9304 19.6 24.9776 19.647C24.9934 19.647 25.0091 19.6784 25.0248 19.6784C25.0563 19.7097 25.1035 19.7411 25.135 19.7725C25.2767 19.8822 25.4026 20.0077 25.5442 20.1174C25.8118 20.3526 26.0479 20.6192 26.2839 20.8857C26.3154 20.9171 26.3469 20.9641 26.3784 20.9955C26.3784 21.0112 26.4885 21.1366 26.4256 21.0425C26.3626 20.9484 26.4571 21.0739 26.4728 21.0896C26.5043 21.1366 26.5358 21.168 26.5672 21.215C26.6774 21.3561 26.7718 21.5129 26.8663 21.654C27.0866 21.999 27.2755 22.3439 27.4329 22.7203C27.4958 22.8457 27.6532 22.9555 27.7791 22.9868C27.9208 23.0182 28.1096 23.0025 28.2355 22.9241C28.3615 22.8457 28.4716 22.7203 28.5031 22.5791C28.5346 22.4223 28.5031 22.2812 28.4401 22.1244C27.8106 20.7132 26.8033 19.5059 25.56 18.5808C25.2294 18.3299 24.8832 18.1104 24.5055 17.9222C24.2379 17.7811 23.8444 17.8438 23.7028 18.1261C23.5611 18.3926 23.6241 18.769 23.9074 18.9258L23.8917 18.9571Z" fill="#231F20"/>
<path d="M24.9932 25.1981C22.3648 28.0518 20.8696 32.0188 21.2474 35.9074C21.6251 39.796 23.7026 42.979 26.9291 44.939C28.6918 46.0052 30.7536 46.601 32.8311 46.5226C33.5865 46.4913 33.5865 45.3153 32.8311 45.3466C29.5417 45.4564 26.3625 43.7316 24.4423 41.0974C22.3648 38.2594 21.9241 34.6217 22.8999 31.2819C23.4665 29.3376 24.4738 27.5344 25.8588 26.0291C26.3782 25.4646 25.544 24.6336 25.0247 25.1981H24.9932Z" fill="#231F20"/>
<path d="M47.1538 21.0588C48.0036 20.2278 48.8063 19.3497 49.672 18.5187C50.3645 17.8601 51.1042 17.28 51.8439 16.6998C52.5049 16.1981 53.166 15.6963 53.8742 15.2573C54.1732 15.0691 54.5037 14.881 54.8343 14.7712C54.913 14.7398 54.9916 14.7242 55.0861 14.6928C55.1805 14.6614 55.1648 14.6771 55.1805 14.6771C55.3694 14.6771 55.3379 14.6771 55.4795 14.7085C55.574 14.7398 55.5268 14.7085 55.5425 14.7242C55.5897 14.7398 55.6369 14.7712 55.6842 14.8026C55.7628 14.8496 55.8101 14.8966 55.9202 15.0064C56.0619 15.1632 56.2035 15.3984 56.3137 15.6493C56.5813 16.2137 56.7386 16.9193 56.8331 17.5622C57.0377 18.7852 57.0692 20.0553 57.0849 21.294C57.1164 23.9752 56.66 26.6565 55.5897 29.1339C55.4638 29.4318 55.511 29.7611 55.7943 29.9336C56.0461 30.0747 56.4711 30.012 56.597 29.7297C58.2496 25.9195 58.5958 21.6703 58.0135 17.5936C57.8246 16.2921 57.4784 14.536 56.235 13.7991C54.7713 12.921 52.9771 14.3792 51.8439 15.2259C50.9783 15.8688 50.1913 16.4489 49.3887 17.1702C48.3027 18.1424 47.3269 19.2399 46.2724 20.2591C45.7215 20.7922 46.5557 21.6233 47.1065 21.0902L47.1538 21.0588Z" fill="#231F20"/>
<path d="M53.7482 17.9545C52.3946 18.6758 51.23 19.7734 50.4115 21.0748C50.1912 21.4198 50.0023 21.7961 49.8292 22.1724C49.7663 22.3292 49.719 22.4546 49.7663 22.6271C49.7977 22.7682 49.9079 22.9094 50.0338 22.9721C50.1755 23.0505 50.3328 23.0818 50.4902 23.0348C50.6319 22.9878 50.7893 22.8937 50.8365 22.7682C50.9781 22.439 51.1513 22.1254 51.3244 21.8275C51.4188 21.6707 51.5133 21.5295 51.6077 21.3727C51.6549 21.2943 51.7179 21.2316 51.7651 21.1532C51.7965 21.1219 51.8123 21.0905 51.8438 21.0591C51.891 20.9964 51.7651 21.1532 51.8123 21.1062C51.828 21.0905 51.8438 21.0591 51.8595 21.0435C52.0798 20.7612 52.3159 20.4947 52.5835 20.2595C52.7094 20.134 52.851 20.0086 52.9927 19.8832C53.0556 19.8361 53.1186 19.7734 53.1816 19.7264C53.1973 19.7264 53.3232 19.6166 53.2288 19.6793C53.1501 19.742 53.213 19.6793 53.2288 19.6793C53.2602 19.6636 53.276 19.648 53.3075 19.6166C53.638 19.3814 53.9685 19.1619 54.3305 18.9737C54.598 18.8326 54.7082 18.4249 54.5351 18.1741C54.362 17.8918 54.0157 17.8134 53.7324 17.9702L53.7482 17.9545Z" fill="#231F20"/>
<path d="M52.4101 26.0292C54.8023 28.632 56.1244 32.2227 55.8254 35.7507C55.5263 39.2786 53.6062 42.1637 50.726 43.9041C49.1207 44.8763 47.3107 45.3937 45.4221 45.331C44.6666 45.2997 44.6666 46.4756 45.4221 46.507C49.1049 46.6168 52.5675 44.6881 54.7551 41.7874C57.0845 38.6985 57.5724 34.6217 56.5021 30.9526C55.8883 28.8045 54.7551 26.8288 53.2442 25.1825C52.7248 24.618 51.8907 25.449 52.4101 26.0135V26.0292Z" fill="#231F20"/>
</svg>
