<svg width="80" height="76" viewBox="0 0 80 76" fill="none" xmlns="http://www.w3.org/2000/svg">
<path d="M32.8152 46.6944C32.7365 47.4627 32.6893 48.2467 32.768 49.015C32.8782 50.2851 33.2874 51.5238 33.9326 52.6214C34.0743 52.8565 34.2317 53.0917 34.2789 53.3583C34.3576 53.7189 34.2474 54.0953 34.153 54.4402C33.6179 56.2747 33.1457 58.2974 33.791 60.1633C34.3891 61.9195 36.4666 62.6251 37.9303 61.2139C38.6543 63.8167 41.2039 60.8376 41.2984 61.01C41.6918 61.6843 42.3214 62.2958 43.0926 62.4055C43.8638 62.5153 44.7452 61.9508 44.7609 61.1668C45.1858 61.794 46.1144 62.0449 46.8384 61.8881C47.1847 61.8097 48.5225 60.5553 48.5539 60.571C49.5612 61.01 50.7416 60.571 51.6702 59.9752C53.4802 58.7992 54.7865 56.9176 55.3531 54.8636C55.9197 52.8095 55.1799 50.5673 56.4863 48.6857C56.801 48.231 57.2732 47.7449 57.1315 47.2118C56.9899 46.6944 56.2817 46.4905 55.778 46.7101C55.2744 46.9296 54.9753 47.4313 54.7393 47.9174C54.1254 49.2659 54.2199 50.63 53.9208 52.0412C53.6218 53.4524 52.945 54.9263 52.284 56.2434C51.7489 57.3096 50.8361 57.9525 49.7973 58.517C49.7029 58.564 49.6242 58.611 49.514 58.611C49.2622 58.611 49.152 58.3131 49.0891 58.0779C48.79 56.9019 48.491 55.7103 48.1919 54.5343C48.129 54.2677 48.0503 53.9855 48.0818 53.7189C48.1132 53.3113 48.3336 52.9349 48.5382 52.59C51.4656 47.7449 49.1363 40.4852 43.6277 38.6506C40.716 37.6785 37.3007 38.4311 35.0501 40.5165C33.3031 42.1472 33.0355 44.4835 32.7995 46.7414L32.8152 46.6944Z" fill="white"/>
<path d="M37.7102 60.0541C38.088 59.1604 38.8906 58.5332 39.2684 57.6394C40.3229 55.115 37.2696 52.8257 35.3652 51.8849C34.3894 51.3989 33.5552 50.8501 32.9414 50.1602C33.146 51.0225 33.4608 51.8693 33.9172 52.6376C34.0589 52.8728 34.2162 53.108 34.2635 53.3745C34.3422 53.7352 34.232 54.1115 34.1376 54.4564C33.6024 56.291 33.1303 58.3137 33.7756 60.1796C34.3264 61.7946 36.1049 62.5002 37.5214 61.528C37.4427 61.0419 37.4899 60.5245 37.6945 60.0541H37.7102Z" fill="#5C564D"/>
<path d="M57.132 47.1966C56.9903 46.6791 56.2821 46.4753 55.7784 46.6948C55.2748 46.9143 54.9758 47.4161 54.7397 47.9021C54.1259 49.2506 54.2203 50.6148 53.9213 52.0259C53.6065 53.4685 52.9455 54.911 52.2844 56.2281C51.7493 57.2944 50.8365 57.9372 49.7977 58.5017C49.7033 58.5487 49.6246 58.5958 49.5144 58.5958C49.2626 58.5958 49.1524 58.2979 49.0895 58.0627C48.7904 56.8867 48.4914 55.695 48.1924 54.519C48.1294 54.2525 48.0507 53.9702 48.0822 53.7037C48.1137 53.296 48.334 52.9197 48.5386 52.5747C49.3256 51.289 50.0023 49.8464 50.0023 48.3098C49.3728 49.8151 48.3025 51.1479 46.949 52.073C46.0362 52.7158 44.9659 53.1862 44.242 54.0486C43.4393 55.0051 43.1875 56.4006 43.6124 57.5766C43.8327 58.1881 44.84 61.3711 45.2492 61.622C45.7214 61.9042 46.3195 62.014 46.8388 61.8885C47.1851 61.8101 48.5229 60.5558 48.5544 60.5714C49.5616 61.0105 50.7421 60.5714 51.6706 59.9756C53.4806 58.7996 54.7869 56.918 55.3535 54.864C55.9358 52.7786 55.1804 50.5677 56.4867 48.6861C56.8015 48.2314 57.2736 47.7454 57.132 47.2122V47.1966Z" fill="#5C564D"/>
<path d="M33.9331 40.7059C32.0917 43.4342 31.3362 46.9151 32.312 50.0981C33.2878 53.2811 36.3254 55.6488 37.1438 59.0043C37.3484 59.851 37.4271 60.729 37.5215 61.5914C37.5687 62.0305 37.6789 62.4225 38.0566 62.6733C38.3872 62.8929 38.8121 62.9399 39.1426 62.7047C39.7564 62.2657 39.1584 61.2465 38.5445 61.6855C38.639 61.6228 38.6547 61.7326 38.7019 61.6228C38.7334 61.5601 38.6862 61.4033 38.6705 61.3249C38.6547 61.1681 38.639 61.0113 38.6232 60.8545C38.576 60.5095 38.5445 60.1489 38.4816 59.8039C38.3872 59.1454 38.2455 58.4868 38.0252 57.8596C37.553 56.4485 36.7031 55.2411 35.8375 54.0338C34.9719 52.8264 33.9961 51.478 33.5081 50.0041C33.0517 48.6556 32.9258 47.2131 33.1304 45.8176C33.3665 44.1869 34.0118 42.6502 34.9246 41.2861C35.3496 40.6589 34.3266 40.0631 33.9016 40.6903L33.9331 40.7059Z" fill="#231F20"/>
<path d="M38.8277 51.7913C39.4257 53.5788 39.8664 55.429 40.0868 57.3106C40.1969 58.2357 40.2756 59.1765 40.2914 60.1173C40.2914 60.4466 40.3071 60.8229 40.2442 61.1051C40.1655 61.4187 40.1182 61.5598 39.8507 61.6696C39.5516 61.795 39.4887 62.2184 39.6461 62.4692C39.8192 62.7672 40.1655 62.7985 40.4488 62.6731C41.2514 62.3438 41.456 61.3873 41.4875 60.619C41.519 59.6155 41.4246 58.5963 41.2986 57.6085C41.0626 55.5231 40.6219 53.469 39.9609 51.4777C39.8664 51.1798 39.5516 50.976 39.2369 51.07C38.9378 51.1484 38.7175 51.4934 38.8277 51.7913Z" fill="#231F20"/>
<path d="M33.8543 54.017C33.4136 55.4752 32.7998 56.9177 32.7998 58.47C32.7998 59.8969 33.3821 61.3708 34.7042 62.0764C35.381 62.437 36.1836 62.5781 36.9234 62.3272C37.2224 62.2332 37.4427 61.9196 37.3326 61.606C37.2381 61.3081 36.9234 61.0885 36.6086 61.1983C36.5456 61.214 36.4827 61.2297 36.4197 61.2453C36.3882 61.2453 36.2308 61.2767 36.341 61.261C36.1994 61.261 36.0577 61.261 35.9161 61.261C36.0262 61.261 35.8689 61.261 35.8374 61.2453C35.7744 61.2453 35.7115 61.214 35.6485 61.1983C35.5856 61.1826 35.5226 61.1669 35.4754 61.1356C35.381 61.1042 35.5541 61.1669 35.4754 61.1356C35.4439 61.1356 35.4124 61.1042 35.381 61.0885C35.255 61.0258 35.1449 60.9631 35.0347 60.8847C35.019 60.869 34.9875 60.8533 34.9717 60.8377C34.8931 60.7749 35.0347 60.8847 34.9717 60.8377C34.9088 60.7906 34.8616 60.7436 34.8144 60.6965C34.7671 60.6495 34.7199 60.6025 34.6885 60.5554C34.657 60.5241 34.6412 60.4927 34.6098 60.477C34.6098 60.477 34.5468 60.3986 34.594 60.4457C34.6412 60.4927 34.5625 60.4143 34.5625 60.3986C34.5625 60.383 34.5311 60.3516 34.5153 60.3359C34.4681 60.2732 34.4366 60.1948 34.3894 60.1321C34.3422 60.0694 34.3107 59.9753 34.2792 59.8969C34.3107 59.9596 34.2478 59.8028 34.232 59.7714C34.1848 59.6146 34.1376 59.4735 34.1061 59.3167C34.1061 59.2383 34.0746 59.1756 34.0589 59.0972C34.0432 58.9874 34.0589 59.1756 34.0589 59.0658C34.0589 59.0345 34.0589 59.0031 34.0589 58.9718C34.0432 58.7993 34.0274 58.6268 34.0432 58.4543C34.0432 57.7958 34.1533 57.2627 34.3422 56.6041C34.5468 55.8515 34.8301 55.0989 35.0504 54.3462C35.1449 54.0483 34.9403 53.6877 34.6412 53.625C34.3422 53.5622 34.0117 53.719 33.9173 54.0326L33.8543 54.017Z" fill="#231F20"/>
<path d="M46.1623 40.6112C47.8779 43.0102 49.7035 45.8953 49.2314 48.9842C48.7592 52.0731 45.8948 54.3938 44.6986 57.3259C44.4153 58.0158 44.2265 58.7371 44.1006 59.4583C44.0376 59.819 43.9904 60.1953 43.9432 60.5716C43.9117 60.7754 43.8959 60.9793 43.8802 61.1988C43.8802 61.2772 43.8645 61.3556 43.8487 61.434C43.8487 61.5124 43.8487 61.5751 43.833 61.6378C43.8015 61.7162 43.8645 61.7476 43.9904 61.7005C43.3766 61.2615 42.7785 62.2807 43.3923 62.7197C44.0376 63.1901 44.8245 62.5943 44.9819 61.9201C45.1708 61.1361 45.1393 60.2894 45.2967 59.4897C45.6272 57.8119 46.4299 56.4478 47.4057 55.068C48.4444 53.5941 49.5776 52.1045 50.1442 50.364C50.7108 48.6236 50.5849 46.9302 50.0655 45.2838C49.4517 43.3709 48.3658 41.6461 47.2011 40.0154C46.7604 39.4039 45.7374 39.984 46.1781 40.6112H46.1623Z" fill="#231F20"/>
<path d="M42.5577 51.4777C41.8967 53.469 41.456 55.5231 41.2199 57.6085C41.1097 58.5963 41.0153 59.6155 41.031 60.619C41.0468 61.403 41.2671 62.3438 42.0698 62.6731C42.3688 62.7985 42.6993 62.7672 42.8725 62.4692C43.0141 62.2184 42.9511 61.795 42.6678 61.6696C42.6364 61.6696 42.479 61.5598 42.5105 61.5912C42.479 61.5598 42.4475 61.5285 42.416 61.4971C42.4318 61.5128 42.4318 61.5285 42.416 61.4971C42.3373 61.3717 42.3216 61.3089 42.2744 61.1365C42.1957 60.8386 42.2114 60.4622 42.2272 60.1173C42.2586 59.1765 42.3216 58.2514 42.4318 57.3106C42.6678 55.4447 43.0928 53.5945 43.6909 51.7913C43.7853 51.4934 43.5807 51.1484 43.2817 51.07C42.9669 50.976 42.6521 51.1798 42.5577 51.4777Z" fill="#231F20"/>
<path d="M47.531 54.3319C47.7356 54.9905 47.9716 55.649 48.1605 56.3233C48.2549 56.6682 48.3494 56.9975 48.4281 57.3424C48.5068 57.6874 48.5225 57.8442 48.5382 58.1892C48.5382 58.346 48.5382 58.5184 48.5382 58.6752C48.5382 58.7536 48.5382 58.832 48.5382 58.8947C48.5382 58.9261 48.5382 58.9575 48.5382 58.9888C48.5382 59.0202 48.5225 59.1299 48.5382 59.0515C48.5225 59.1927 48.491 59.3495 48.4438 59.4906C48.4281 59.569 48.3966 59.6317 48.3808 59.7101C48.3808 59.7571 48.3494 59.7885 48.3336 59.8355C48.3336 59.8355 48.2864 59.961 48.3179 59.8983C48.2549 60.0394 48.192 60.1648 48.1133 60.2902C48.0818 60.3373 48.0503 60.4 48.0031 60.447C47.9716 60.4784 47.9402 60.5254 47.9087 60.5568C47.83 60.6509 47.7356 60.745 47.6411 60.8234C47.6411 60.8234 47.5467 60.9018 47.5939 60.8704C47.6411 60.839 47.5624 60.8861 47.5624 60.8861C47.4995 60.9331 47.4208 60.9802 47.3578 61.0272C47.2949 61.0586 47.2319 61.1056 47.169 61.137C47.1375 61.137 47.1217 61.1683 47.0903 61.1683C46.9329 61.2467 47.1532 61.1526 47.0588 61.1683C46.9171 61.2154 46.7755 61.2624 46.6181 61.2938C46.5079 61.2938 46.5866 61.2938 46.6181 61.2938C46.5866 61.2938 46.5551 61.2938 46.5079 61.2938C46.4292 61.2938 46.3663 61.2938 46.2876 61.2938C46.2561 61.2938 46.2089 61.2938 46.1774 61.2938C46.2719 61.2938 46.1932 61.2938 46.1459 61.2938C46.0672 61.2781 45.9886 61.2624 45.9099 61.231C45.6108 61.137 45.2488 61.3408 45.1859 61.6387C45.1072 61.9523 45.2803 62.2659 45.5951 62.36C46.9171 62.7833 48.3651 62.0464 49.0891 60.9174C49.9075 59.616 49.8131 57.9696 49.4511 56.5428C49.2307 55.6961 48.916 54.8807 48.6799 54.0497C48.5854 53.7518 48.2549 53.5323 47.9559 53.642C47.6569 53.7518 47.4523 54.0497 47.5467 54.3633L47.531 54.3319Z" fill="#231F20"/>
<path d="M49.436 59.0184C51.4033 58.7362 52.7569 57.0585 53.4809 55.3337C54.3622 53.2169 54.2835 50.865 55.0075 48.7011C55.1492 48.2621 55.3065 47.776 55.6371 47.4311C55.763 47.29 56.2037 47.0234 56.3453 47.29C56.4712 47.5095 55.9361 48.1053 55.8259 48.3091C55.5584 48.7795 55.3695 49.3127 55.2593 49.8301C54.7872 51.8371 55.0862 53.9696 54.1891 55.8668C53.292 57.7641 51.6394 59.2693 49.6249 59.8965C48.9009 60.116 49.2157 61.2607 49.9396 61.0255C51.9699 60.3983 53.7169 59.0028 54.8187 57.1996C55.3695 56.2902 55.7472 55.271 55.9204 54.2361C56.1092 53.0758 56.1092 51.8998 56.2981 50.7395C56.3768 50.2221 56.5027 49.6733 56.723 49.1872C56.9591 48.6541 57.4155 48.1994 57.5415 47.6192C57.7933 46.4276 56.4712 45.7063 55.4639 46.1453C54.378 46.6314 53.9688 48.0426 53.7012 49.0775C53.3864 50.3005 53.2605 51.5549 53.0087 52.7936C52.5995 54.8947 51.5922 57.5132 49.1527 57.8738C48.8379 57.9209 48.6648 58.3129 48.7435 58.5951C48.8379 58.9244 49.1527 59.0498 49.4675 59.0028L49.436 59.0184Z" fill="#231F20"/>
<path d="M52.867 34.7784C49.798 30.2313 44.3996 26.0291 38.5605 27.0326C34.075 27.8166 31.3049 31.5484 28.7395 35.092C28.6766 35.5624 28.5664 36.0171 28.5664 36.5345C28.5664 38.5259 29.6524 40.4702 31.2892 41.6148C32.1863 42.242 33.2408 42.2733 34.1379 42.7908C34.9091 43.2298 35.5701 43.9824 36.3413 44.4685C37.0181 44.8919 37.7106 45.3152 38.4818 45.5661C40.1029 46.0992 42.448 46.0208 43.9274 45.1427C44.6042 44.7351 45.1708 44.1863 45.8318 43.7472C46.8233 43.1044 47.988 42.7751 49.0425 42.242C50.5849 41.458 51.7496 40.282 52.3319 38.6513C52.6467 37.7576 52.4106 35.8446 52.8985 34.8254C52.8985 34.8254 52.8985 34.8098 52.8828 34.7941L52.867 34.7784Z" fill="white"/>
<path d="M63.8835 14.1434C62.2309 12.5127 59.1304 14.9901 57.5723 15.9152C53.8265 18.126 50.9778 20.917 47.5624 23.5826C47.2791 23.8021 46.6496 24.5704 46.382 24.6488C45.9256 24.7899 45.4535 24.4136 44.9498 24.2725C43.9898 23.9746 42.951 23.9746 41.9595 23.9903C40.1023 23.9903 37.6628 24.9311 35.9315 24.7115C34.7039 24.5548 33.7124 22.9084 32.3903 21.9833C30.7377 20.823 29.6203 19.3961 27.8576 18.3612C25.9532 17.248 24.033 16.1347 22.1916 14.9117C21.924 14.7235 21.6407 14.551 21.3732 14.3629C20.8223 13.9866 20.2557 13.5946 19.6105 13.4535C18.9652 13.3123 18.194 13.4535 17.8005 14.0022C16.9034 15.2409 18.3514 18.8787 18.6976 20.1958C19.3901 22.877 20.0826 25.5583 20.7751 28.2395C21.1686 29.7761 21.625 31.4068 22.7582 32.5358C23.5137 33.2727 24.5367 33.7745 25.0403 34.7153C25.3708 35.3425 25.4967 36.1892 26.1263 36.5028C26.5827 36.7223 27.1021 36.5812 27.6057 36.5812C29.2111 36.5812 28.8806 38.4314 29.9351 39.0899C33.0828 41.0499 37.348 37.7885 38.4655 35.0132C39.0478 33.5706 39.3153 32.0183 39.6301 30.4817C39.7246 29.9643 40.0551 29.3057 40.5587 29.4312C40.9364 29.5252 41.0623 29.9956 41.1253 30.3876C41.2827 31.3911 41.503 32.3947 41.7706 33.3668C42.5418 36.1735 45.3433 38.8391 48.3179 39.0586C51.4499 39.2938 51.6388 37.0516 53.8737 36.0794C54.4718 35.8128 55.18 35.7815 55.6994 35.3738C56.502 34.7153 56.4391 33.4138 57.1473 32.6612C57.5408 32.2379 58.1231 32.0654 58.6268 31.7675C60.059 30.9364 60.7672 29.2744 61.0978 27.6593C61.4283 26.0443 61.4755 24.3666 62.0106 22.8143C62.4513 21.5442 63.2067 20.4153 63.7419 19.1923C64.2612 18.0163 64.9538 15.2409 63.8678 14.1747L63.8835 14.1434Z" fill="#5C564D"/>
<path d="M29.4479 31.8156C29.684 30.6083 29.6997 29.3069 30.0617 28.1152C30.2663 27.3939 31.368 26.1552 31.3208 25.5751C31.1949 23.5053 26.3789 20.0401 24.7578 19.0993C23.9866 18.6603 21.248 16.0104 20.288 16.5122C19.0761 17.155 20.5713 21.0123 20.8388 22.0471C21.3425 24.0071 21.9405 26.5943 22.8534 28.3661C23.7662 30.1379 25.9224 31.2512 26.9769 33.0857C27.1658 33.3993 27.3547 33.7443 27.6852 33.9167C28.8813 34.5753 29.2905 32.5212 29.4322 31.8156H29.4479Z" fill="#F9BDBE"/>
<path d="M61.4127 16.6527C59.6027 16.1667 55.1644 19.9141 54.346 20.5884C52.536 22.0779 50.8048 23.8654 49.8447 26.0449C49.8919 26.2331 50.0493 26.3742 50.3326 26.5937C50.8835 27.0171 51.513 27.4404 51.7806 28.1147C52.3787 29.6042 52.0481 31.7053 52.5203 33.3517C52.6462 33.7751 52.9138 34.2611 53.3387 34.2298C53.7007 34.2141 53.9211 33.8378 54.0784 33.5242C54.6608 32.3952 55.3218 31.2506 56.3606 30.5137C56.8799 30.1374 57.478 29.8865 57.9502 29.4474C58.6112 28.8359 58.9417 27.9735 59.2565 27.1268C59.7759 25.6686 60.248 24.1947 60.7202 22.7051C61.1294 21.4194 61.5386 20.118 61.9478 18.8322C62.1052 18.3305 62.2626 17.7817 62.0895 17.2799C61.9636 16.935 61.7275 16.7311 61.4284 16.6527H61.4127Z" fill="#F9BDBE"/>
<path d="M34.2475 37.1943C35.0993 37.1943 35.7899 36.5064 35.7899 35.6577C35.7899 34.8091 35.0993 34.1211 34.2475 34.1211C33.3956 34.1211 32.7051 34.8091 32.7051 35.6577C32.7051 36.5064 33.3956 37.1943 34.2475 37.1943Z" fill="#231F20"/>
<path d="M46.9643 37.1943C47.8161 37.1943 48.5067 36.5064 48.5067 35.6577C48.5067 34.8091 47.8161 34.1211 46.9643 34.1211C46.1124 34.1211 45.4219 34.8091 45.4219 35.6577C45.4219 36.5064 46.1124 37.1943 46.9643 37.1943Z" fill="#231F20"/>
<path d="M40.7473 41.4123C41.5122 41.4123 42.1323 41.0262 42.1323 40.5499C42.1323 40.0736 41.5122 39.6875 40.7473 39.6875C39.9824 39.6875 39.3623 40.0736 39.3623 40.5499C39.3623 41.0262 39.9824 41.4123 40.7473 41.4123Z" fill="#231F20"/>
<path d="M28.8176 30.9846C28.0937 34.1049 27.3854 37.6642 29.3055 40.5179C29.7148 41.1137 30.2027 41.6312 30.8007 42.0545C31.4618 42.5249 32.233 42.7915 32.9884 43.0894C34.279 43.5911 35.302 44.3908 36.4352 45.1905C37.6943 46.0842 39.0478 46.7428 40.6217 46.4919C40.9365 46.4449 41.1096 46.0529 41.0309 45.7706C40.9365 45.4413 40.6217 45.3159 40.3069 45.3629C39.158 45.5511 38.1035 44.9239 37.1907 44.3124C36.1991 43.6225 35.2705 42.8228 34.1531 42.3211C32.8625 41.7409 31.4932 41.4116 30.5646 40.267C29.7934 39.3262 29.3842 38.0718 29.2741 36.8802C29.1167 34.9986 29.5416 33.1484 29.9666 31.3295C30.1397 30.5926 29.0065 30.279 28.8334 31.0159L28.8176 30.9846Z" fill="#231F20"/>
<path d="M33.9962 26.1544C35.9635 25.1509 38.2613 24.9157 40.449 24.7745C42.6367 24.6334 44.6985 24.7432 46.5242 25.7937C47.1852 26.17 47.7833 25.1509 47.1223 24.7745C45.1077 23.6142 42.7312 23.4418 40.449 23.5829C38.0567 23.724 35.57 24.0062 33.3981 25.1195C32.7213 25.4645 33.3194 26.4836 33.9962 26.1387V26.1544Z" fill="#231F20"/>
<path d="M51.608 31.2982C52.269 34.1205 52.993 37.3819 51.2145 39.9691C50.3803 41.1764 49.1055 41.5998 47.7992 42.1329C46.603 42.619 45.5958 43.3873 44.5255 44.1086C43.3923 44.8926 42.2119 45.5041 40.7797 45.3316C40.4649 45.2845 40.1816 45.6295 40.1816 45.9274C40.1816 46.2724 40.4492 46.4762 40.7797 46.5233C43.7071 46.8996 45.5643 44.3908 48.0038 43.3246C48.7435 42.9953 49.5304 42.7601 50.2544 42.3838C50.884 42.0388 51.4506 41.5684 51.907 41.004C52.8198 39.8593 53.3077 38.4638 53.4494 37.037C53.6697 35.0143 53.1818 32.9759 52.7254 31.0159C52.5523 30.279 51.4191 30.5926 51.5922 31.3295L51.608 31.2982Z" fill="#231F20"/>
<path d="M46.54 25.2924C48.0824 23.5206 49.971 22.1094 51.8282 20.6982C53.6854 19.2871 55.4639 17.7661 57.4469 16.5274C58.407 15.9316 59.3986 15.3828 60.4373 14.9438C61.1928 14.6302 62.1528 14.1754 63.0027 14.2852C63.3332 14.3322 63.5693 14.5361 63.6795 14.787C63.8841 15.273 63.8684 15.7905 63.8211 16.3393C63.7267 17.5466 63.3175 18.8951 62.8453 19.8829C62.5306 20.5571 63.5378 21.1686 63.8684 20.4787C64.4192 19.3184 64.7812 18.064 64.9543 16.794C65.1117 15.6337 65.1117 14.05 63.9471 13.3758C63.3332 13.0151 62.5778 13.0465 61.901 13.2033C60.7049 13.4855 59.5245 14.0186 58.4385 14.5831C56.1721 15.7591 54.2205 17.3741 52.2217 18.9264C49.971 20.6669 47.5788 22.2976 45.6901 24.4614C45.1865 25.0259 46.0206 25.8726 46.5243 25.2924H46.54Z" fill="#231F20"/>
<path d="M53.8582 36.7233C54.6137 36.4881 55.5265 36.2686 56.0774 35.6571C56.6282 35.0456 56.88 34.2459 57.2893 33.5717C57.5883 33.1013 58.1391 32.8504 58.6113 32.5838C59.1464 32.2859 59.6343 31.9253 60.0278 31.4392C60.8777 30.373 61.2082 29.0402 61.5545 27.7701C62.0424 25.9826 62.5303 24.1951 63.0182 22.4077C63.2228 21.6707 62.0738 21.3571 61.885 22.0941C61.46 23.615 61.0508 25.1359 60.6259 26.6726C60.2954 27.9113 60.0435 29.2597 59.351 30.3573C59.052 30.8434 58.6585 31.1883 58.1706 31.4863C57.6827 31.7842 57.1476 32.0351 56.7227 32.427C56.0616 33.0229 55.7941 33.9323 55.3376 34.6849C55.3062 34.7477 55.259 34.8104 55.2117 34.8731C55.2904 34.7633 55.1803 34.9045 55.133 34.9358C55.0701 35.0142 55.0229 35.0299 55.0701 34.9985C55.0071 35.0456 54.9442 35.0769 54.8812 35.1083C54.5035 35.3278 53.9999 35.4532 53.5277 35.61C52.8037 35.8296 53.1185 36.9742 53.8425 36.739L53.8582 36.7233Z" fill="#231F20"/>
<path d="M59.4453 16.7311C57.352 18.0482 55.3532 19.5378 53.496 21.1685C52.5675 21.9838 51.6703 22.8305 50.8204 23.7086C50.1279 24.4142 49.1521 25.3706 49.7345 26.4525C49.9706 26.9073 50.427 27.2209 50.8362 27.5031C51.0408 27.6442 51.1667 27.6912 51.2611 27.8951C51.2769 27.9421 51.3241 28.0676 51.3083 28.0676V28.0989C51.3083 28.0989 51.3083 28.0519 51.3083 28.0362C51.3398 28.0048 51.4343 27.9421 51.3083 28.0048C50.6316 28.3655 51.2297 29.3847 51.9064 29.024C52.4101 28.7575 52.5517 28.193 52.4101 27.6756C52.2684 27.1581 51.8749 26.8289 51.45 26.5309C51.2926 26.4212 51.1352 26.3114 50.9936 26.186C50.9464 26.1546 50.9149 26.1076 50.8834 26.0762C50.8834 26.0762 50.789 25.9665 50.8362 26.0292C50.8204 25.9978 50.789 25.9665 50.7732 25.9351C50.7103 25.8254 50.7732 25.9978 50.7418 25.8724C50.7418 25.841 50.726 25.794 50.7103 25.7626C50.7103 25.7783 50.7103 25.8724 50.7103 25.7626C50.7103 25.7313 50.726 25.6372 50.7103 25.7626C50.7103 25.794 50.7575 25.6058 50.7418 25.6529C50.8205 25.449 51.0093 25.2295 51.1824 25.057C52.8507 23.2695 54.6922 21.6388 56.628 20.1493C57.7298 19.3182 58.8629 18.5186 60.0276 17.7816C60.6729 17.3739 60.0748 16.3548 59.4295 16.7624L59.4453 16.7311Z" fill="#231F20"/>
<path d="M35.9948 24.4619C34.5311 22.7842 32.7684 21.4357 30.9899 20.0872C29.2114 18.7388 27.4959 17.2962 25.6545 16.0418C24.7102 15.399 23.7186 14.8031 22.6799 14.3014C21.7198 13.8467 20.681 13.3763 19.6266 13.1724C18.7767 13 17.8481 13.1411 17.4074 13.9564C17.1084 14.5209 17.0611 15.2108 17.0769 15.838C17.1241 17.3276 17.4389 18.9269 18.0527 20.2911C18.3517 20.981 19.3747 20.3851 19.0757 19.6952C19.1387 19.8207 19.0285 19.5698 19.0127 19.5384C18.9813 19.4287 18.934 19.3189 18.9026 19.2092C18.8081 18.9112 18.7294 18.6133 18.6508 18.3154C18.4934 17.6882 18.3675 17.061 18.3045 16.4182C18.2573 15.8694 18.2101 15.2735 18.3675 14.7404C18.3989 14.6307 18.3989 14.615 18.4619 14.5052C18.4619 14.4895 18.5721 14.3798 18.5248 14.4111C18.9183 14.1446 19.4377 14.3327 19.8469 14.4582C23.7658 15.6342 26.8349 18.4252 30.0299 20.8399C31.8398 22.204 33.6498 23.5838 35.1449 25.2929C35.6486 25.8574 36.4827 25.0264 35.9791 24.4619H35.9948Z" fill="#231F20"/>
<path d="M18.3359 21.8423C18.997 24.0845 19.4062 26.3895 20.2246 28.6003C20.6338 29.6979 21.1217 30.7798 21.7827 31.752C22.1132 32.238 22.491 32.7084 22.9159 33.1161C23.3723 33.5551 23.9075 33.9315 24.3796 34.3548C24.9305 34.8722 25.2295 35.5308 25.7174 36.0953C26.2368 36.7068 27.008 37.0674 27.8107 36.8949C28.5504 36.7225 28.2356 35.5935 27.4959 35.766C26.945 35.8914 26.5358 35.2799 26.284 34.8879C25.9377 34.3548 25.6072 33.8687 25.1351 33.4454C24.6629 33.022 24.1593 32.6771 23.7186 32.238C23.3566 31.8774 23.0418 31.4854 22.7585 31.0621C21.5309 29.2432 20.9328 27.0951 20.3977 24.994C20.0987 23.8337 19.8311 22.6734 19.5006 21.5131C19.296 20.7918 18.1471 21.0897 18.3674 21.8267L18.3359 21.8423Z" fill="#231F20"/>
<path d="M21.6409 17.7503C23.7027 19.0517 25.67 20.5256 27.5114 22.1407C28.44 22.956 29.3214 23.8027 30.1713 24.6965C30.3602 24.8846 30.5648 25.0728 30.7221 25.2923C30.8008 25.3864 30.8638 25.4961 30.911 25.6059C30.9582 25.7156 30.8795 25.4961 30.9425 25.6843C30.974 25.7784 30.9425 25.6843 30.9425 25.7313C30.9425 25.7627 30.9425 25.8881 30.9425 25.7627C30.9425 25.794 30.9425 25.8411 30.911 25.8724C30.8638 25.9822 30.911 25.9038 30.911 25.8724C30.8953 25.9038 30.8795 25.9352 30.8481 25.9665C30.7379 26.1076 30.8795 25.9352 30.8166 26.0136C30.7851 26.0606 30.7379 26.092 30.7064 26.1233C30.6435 26.186 30.5648 26.2488 30.5018 26.3115C30.0611 26.6564 29.5732 26.8916 29.3371 27.4247C29.1011 27.9579 29.1483 28.6948 29.7463 29.0084C30.4231 29.369 31.0054 28.3499 30.3444 27.9892C30.25 27.9422 30.3444 28.0049 30.3602 28.0676C30.3602 27.9735 30.3916 28.1147 30.3602 28.0676C30.3602 28.0206 30.3759 27.9892 30.3916 27.9422C30.4389 27.8167 30.549 27.707 30.6592 27.6286C31.0527 27.362 31.4619 27.0955 31.7609 26.7192C32.0599 26.3428 32.1859 25.9038 32.0599 25.4334C31.934 24.8846 31.5248 24.4456 31.1471 24.0536C29.4316 22.2661 27.5744 20.6197 25.6071 19.1144C24.5053 18.2834 23.3722 17.4838 22.2075 16.7468C21.5622 16.3391 20.9641 17.3583 21.6094 17.766L21.6409 17.7503Z" fill="#231F20"/>
<path d="M39.8827 44.0136C40.3234 43.6216 40.6382 43.0728 40.7798 42.4926C40.827 42.3201 40.8428 42.132 40.8585 41.9438C40.8585 41.8497 40.8113 41.74 40.7483 41.6616C40.6854 41.5832 40.5752 41.5362 40.465 41.5518C40.2447 41.5518 40.0873 41.7243 40.0716 41.9438C40.0716 42.0065 40.0716 42.0693 40.0558 42.1477V42.0379C40.0401 42.2731 39.9771 42.4926 39.8827 42.7121L39.9299 42.6181C39.8355 42.8219 39.7253 43.0257 39.5837 43.1982L39.6466 43.1198C39.5522 43.2453 39.442 43.355 39.3319 43.4491C39.2532 43.5118 39.2217 43.6372 39.2217 43.7313C39.2217 43.8254 39.2689 43.9352 39.3319 44.0136C39.4892 44.1704 39.7253 44.1547 39.8827 44.0136Z" fill="#231F20"/>
<path d="M40.5594 42.0066C41.063 42.0066 41.063 41.2227 40.5594 41.2227C40.0557 41.2227 40.0557 42.0066 40.5594 42.0066Z" fill="#231F20"/>
<path d="M40.5594 42.0066C41.063 42.0066 41.063 41.2227 40.5594 41.2227C40.0557 41.2227 40.0557 42.0066 40.5594 42.0066Z" fill="#231F20"/>
<path d="M40.3857 41.5061C40.3857 42.2587 40.6848 42.98 41.1884 43.5288C41.3301 43.6856 41.4875 43.8267 41.6606 43.9521C41.7393 44.0148 41.8809 44.0148 41.9596 43.9992C42.0383 43.9835 42.1485 43.9051 42.1957 43.8267C42.2429 43.7326 42.2744 43.6228 42.2429 43.5288L42.1957 43.4347C42.1957 43.4347 42.117 43.3249 42.054 43.2936C42.054 43.2936 42.0226 43.2779 42.0068 43.2622L42.0855 43.3249C41.9124 43.1838 41.755 43.027 41.6134 42.8545L41.6763 42.9329C41.5347 42.7448 41.4088 42.5409 41.3143 42.3214L41.3615 42.4155C41.2671 42.196 41.2042 41.9608 41.1727 41.7256V41.8353C41.1727 41.7256 41.1727 41.6315 41.1727 41.5218C41.1727 41.3179 40.9996 41.1141 40.7792 41.1298C40.5589 41.1454 40.3857 41.3022 40.3857 41.5218V41.5061Z" fill="#231F20"/>
<path d="M35.7904 40.8622C35.6173 41.0818 35.4914 41.3013 35.397 41.5522C35.3183 41.7717 35.2711 42.0069 35.2553 42.2421C35.2238 42.7125 35.334 43.1985 35.5386 43.6219C35.6645 43.8571 35.8219 44.0766 36.0265 44.2491C36.1839 44.3902 36.4357 44.4059 36.5774 44.2491C36.719 44.0923 36.7348 43.8414 36.5774 43.7003C36.4987 43.6376 36.4357 43.5592 36.3728 43.4964C36.3413 43.4494 36.4042 43.5278 36.4042 43.5278C36.4042 43.5278 36.3885 43.5121 36.3885 43.4964C36.3885 43.4808 36.357 43.4651 36.357 43.4494C36.3255 43.4024 36.2941 43.371 36.2783 43.324C36.2469 43.2769 36.2311 43.2456 36.2154 43.1985C36.2154 43.1829 36.1996 43.1515 36.1839 43.1358C36.1682 43.1045 36.1996 43.1985 36.1996 43.1829C36.1996 43.1829 36.1996 43.1515 36.1839 43.1358C36.1524 43.0417 36.1209 42.9477 36.0895 42.8536C36.0895 42.8065 36.0737 42.7595 36.058 42.7281C36.058 42.6968 36.058 42.6811 36.058 42.6497C36.058 42.6497 36.058 42.7438 36.058 42.7125C36.058 42.6968 36.058 42.6811 36.058 42.6654C36.058 42.5713 36.058 42.4773 36.058 42.3832C36.058 42.3361 36.058 42.2891 36.058 42.2421C36.058 42.2264 36.058 42.195 36.058 42.1793C36.058 42.1793 36.0423 42.2891 36.058 42.2264C36.058 42.2107 36.058 42.195 36.058 42.1793C36.0737 42.0853 36.0895 41.9912 36.1209 41.8971C36.1209 41.8501 36.1524 41.7874 36.1839 41.7403C36.1839 41.7403 36.1367 41.8344 36.1682 41.7873C36.1682 41.7873 36.1682 41.7717 36.1839 41.756C36.1839 41.7246 36.2154 41.709 36.2154 41.6776C36.2469 41.6306 36.2626 41.5835 36.2941 41.5365C36.2941 41.5208 36.3255 41.4894 36.3413 41.4738C36.357 41.4424 36.4357 41.3483 36.3413 41.4738C36.4042 41.3954 36.4515 41.317 36.4515 41.1915C36.4515 41.0974 36.4042 40.9877 36.3413 40.9093C36.1996 40.7838 35.9163 40.7368 35.7904 40.9093V40.8622Z" fill="#231F20"/>
<path d="M45.1233 41.2541C45.2177 41.3012 45.2964 41.3482 45.3751 41.4109L45.2964 41.3482C45.3908 41.4266 45.4853 41.5207 45.564 41.6148L45.501 41.5364C45.5954 41.6618 45.6741 41.7873 45.7214 41.9284L45.6741 41.8343C45.7371 41.9911 45.7843 42.1479 45.8001 42.3204V42.2106C45.8001 42.3674 45.8001 42.5399 45.8001 42.6967V42.5869C45.8001 42.728 45.7528 42.8692 45.7056 43.0103L45.7528 42.9162C45.7056 43.026 45.6427 43.1357 45.5797 43.2298L45.6427 43.1514C45.6427 43.1514 45.6269 43.1828 45.6112 43.1828C45.5482 43.2612 45.501 43.3552 45.501 43.465C45.501 43.5591 45.5482 43.6688 45.6112 43.7472C45.7528 43.8727 46.0361 43.9197 46.162 43.7472C46.3194 43.5434 46.4453 43.3239 46.524 43.073C46.587 42.8535 46.6185 42.6183 46.6027 42.3988C46.587 41.9127 46.4139 41.4423 46.0991 41.066C45.9417 40.8778 45.7371 40.7053 45.501 40.5956C45.3122 40.5015 45.0603 40.5329 44.9659 40.7367C44.8715 40.9092 44.9029 41.1757 45.1075 41.2698L45.1233 41.2541Z" fill="#231F20"/>
</svg>
