<svg width="80" height="76" viewBox="0 0 80 76" fill="none" xmlns="http://www.w3.org/2000/svg">
<path d="M56.3759 43.1196C54.5974 45.1894 54.2197 47.0709 53.7318 49.7052C53.5744 50.5048 53.4328 51.477 52.9449 52.1669C52.8032 52.3707 51.2451 53.6878 51.1034 53.3585C50.584 52.0885 50.8201 50.6616 50.9775 49.3445C51.1506 47.9333 50.6313 46.5065 49.8128 45.3462C48.9944 44.1859 47.9085 43.2294 46.8382 42.2886C46.6808 42.1475 46.5235 42.022 46.3661 41.8809C41.9277 38.008 35.585 36.785 31.1939 41.5673C29.8089 43.0883 28.8331 44.9228 27.873 46.7417C27.4324 47.5884 26.9759 48.4351 26.7871 49.3759C26.5825 50.4107 26.7241 51.4613 26.8658 52.4962C27.0389 53.8289 27.212 55.1774 27.7314 56.4161C29.6358 61.0103 36.4979 61.6061 40.7788 61.3866C42.3055 61.3082 43.722 61.12 45.1699 60.634C46.2087 60.289 47.216 59.6775 48.2232 59.3639C48.4908 59.2855 48.7741 59.3639 49.0416 59.4109C52.756 60.2106 57.0527 58.6583 58.7839 55.2872C59.0357 54.8011 59.2403 54.2837 59.5236 53.8133C59.7912 53.3585 60.1532 52.9509 60.4837 52.5432C61.9946 50.6303 63.6629 48.4664 62.0261 46.0204C61.9474 45.9106 61.8687 45.7852 61.8372 45.6441C61.8058 45.5186 61.8372 45.3932 61.8687 45.2678C62.0891 44.1859 62.1835 43.0726 62.152 41.9593C62.1363 41.3792 62.0576 40.7677 61.6641 40.3443C61.6169 40.2973 61.5697 40.2502 61.5225 40.2502C61.4438 40.2346 61.3651 40.2659 61.2864 40.313C59.9171 41.0499 58.1386 41.5046 56.9582 42.5395C56.7536 42.7276 56.549 42.9315 56.3759 43.1353V43.1196Z" fill="white"/>
<path d="M31.9971 56.3213C32.0285 57.2935 32.123 58.2813 32.3276 59.2221C32.5007 60.0531 32.9099 60.8998 33.7126 61.2918C34.1375 61.4957 34.5782 61.574 35.0346 61.5897C35.4596 61.5897 35.9318 61.5584 36.341 61.4643C36.8289 61.3545 37.2538 61.0566 37.4899 60.6176C37.6945 60.2413 37.7889 59.8179 37.8519 59.3946C38.025 58.297 38.0722 57.1837 37.9463 56.0704C37.9306 55.9136 37.8991 55.7725 37.7732 55.6471C37.663 55.5373 37.5056 55.4746 37.3482 55.4746C37.0649 55.4746 36.7187 55.7412 36.7502 56.0704C36.8446 56.9485 36.8446 57.8266 36.7502 58.7046C36.7502 58.7674 36.7502 58.8144 36.7344 58.8771C36.7344 58.9085 36.7344 58.9242 36.7344 58.9555C36.7344 58.8458 36.7344 59.0496 36.7344 58.9555C36.7187 59.0653 36.703 59.175 36.6872 59.2848C36.6557 59.4573 36.6243 59.6454 36.577 59.8179C36.577 59.865 36.5456 59.8963 36.5298 59.9434C36.5298 59.959 36.5298 59.9747 36.5141 59.9904C36.4984 60.0531 36.5456 59.9277 36.5456 59.9277C36.5141 59.959 36.5141 60.0061 36.4983 60.0374C36.4826 60.0845 36.4511 60.1158 36.4197 60.1629C36.4197 60.1629 36.4039 60.1942 36.3882 60.2099C36.3882 60.2099 36.4669 60.1158 36.4197 60.1629C36.3882 60.1942 36.3567 60.2256 36.3252 60.2569C36.4039 60.2099 36.3252 60.2569 36.3095 60.2569C36.278 60.2726 36.1993 60.304 36.1836 60.3197C36.2151 60.2726 36.278 60.2883 36.2151 60.3197C36.1993 60.3197 36.1836 60.3197 36.1521 60.3353C36.1049 60.3353 36.0577 60.3667 36.0104 60.3667C35.9632 60.3667 35.9318 60.3824 35.8845 60.3981C35.8531 60.3981 35.8373 60.3981 35.8058 60.3981C35.7272 60.3981 35.8058 60.3981 35.8373 60.3981C35.7586 60.4294 35.6485 60.4137 35.5698 60.4294C35.4753 60.4294 35.3966 60.4294 35.3022 60.4451C35.1291 60.4451 34.9402 60.4451 34.7671 60.4451C34.7513 60.4451 34.7356 60.4451 34.7041 60.4451C34.6412 60.4451 34.7671 60.4451 34.7671 60.4451C34.7199 60.4451 34.6727 60.4451 34.6412 60.4294C34.5467 60.4137 34.4523 60.3824 34.3736 60.351C34.3421 60.351 34.3107 60.3197 34.2634 60.3197C34.2634 60.3197 34.3894 60.3824 34.2949 60.3197C34.2792 60.3197 34.2634 60.304 34.2477 60.2883C34.169 60.2413 34.0903 60.1942 34.0274 60.1472C33.9644 60.1002 34.1061 60.2256 34.0588 60.1629C34.0588 60.1629 34.0274 60.1315 34.0116 60.1315C33.9802 60.1001 33.9487 60.0688 33.9172 60.0374C33.8857 60.0061 33.87 59.9904 33.8385 59.959C33.7755 59.8806 33.8385 59.9434 33.8385 59.959C33.7913 59.8963 33.7598 59.8336 33.7126 59.7552C33.6969 59.7238 33.6654 59.6768 33.6496 59.6454C33.6496 59.6298 33.6496 59.6141 33.6339 59.5984C33.7126 59.7238 33.6654 59.6611 33.6339 59.6141C33.5709 59.4573 33.5237 59.2848 33.4765 59.1123C33.4293 58.9085 33.3978 58.7203 33.3663 58.5165C33.3506 58.3911 33.3349 58.2813 33.3191 58.1559C33.3191 58.1402 33.3034 58.0304 33.3191 58.1088C33.3349 58.1872 33.3191 58.0775 33.3191 58.0618C33.3191 57.9991 33.3034 57.9363 33.3034 57.8736C33.2404 57.3719 33.209 56.8701 33.1932 56.3527C33.1932 56.0391 32.9257 55.7568 32.5951 55.7568C32.2646 55.7568 31.9971 56.0077 31.9971 56.3527V56.3213Z" fill="#231F20"/>
<path d="M44.1627 56.3214C44.1627 56.7761 44.1155 57.2151 44.0683 57.6698C44.0683 57.7796 44.0525 57.8737 44.0368 57.9834C44.0368 58.0148 44.0368 58.0305 44.0368 58.0618C44.0368 58.1246 44.0211 58.1873 44.0053 58.25C43.9738 58.4382 43.9424 58.6263 43.9109 58.8301C43.8794 59.0026 43.8322 59.1751 43.785 59.3476C43.7535 59.426 43.7378 59.5044 43.7063 59.5828L43.6748 59.6455C43.6748 59.6455 43.722 59.5357 43.6905 59.5828C43.6748 59.6298 43.6433 59.6769 43.6276 59.7082C43.5961 59.7709 43.5489 59.8493 43.5017 59.912C43.5017 59.9277 43.4702 59.9591 43.4545 59.9748C43.4545 59.9748 43.5332 59.8807 43.4859 59.9277C43.4545 59.9591 43.423 60.0061 43.3915 60.0375C43.36 60.0688 43.3443 60.0845 43.3128 60.1159C43.2971 60.1316 43.2813 60.1472 43.2499 60.1629C43.2026 60.21 43.2971 60.1316 43.2971 60.1316C43.2184 60.1629 43.1554 60.2256 43.0767 60.2727C43.061 60.2727 42.9194 60.3511 43.0138 60.304C43.0925 60.2727 42.9666 60.304 42.9508 60.3197C42.8721 60.3511 42.7777 60.3668 42.699 60.3824C42.6518 60.3824 42.6046 60.3824 42.5731 60.3981C42.5101 60.3981 42.6361 60.3981 42.6361 60.3981H42.5574C42.4629 60.3981 42.3842 60.3981 42.2898 60.3981C42.1009 60.3981 41.9278 60.3981 41.7389 60.3824C41.6603 60.3824 41.5658 60.3668 41.4871 60.3511C41.4242 60.3511 41.5501 60.3511 41.5501 60.3511C41.5186 60.3511 41.4871 60.3511 41.4714 60.3511C41.4242 60.3511 41.3612 60.3354 41.314 60.3197C41.2668 60.3197 41.2353 60.304 41.1881 60.2884C41.1566 60.2884 41.1409 60.2727 41.1094 60.257C41.0937 60.257 41.0622 60.2256 41.0464 60.21C41.0307 60.21 41.015 60.1943 40.9992 60.1786C40.9363 60.1472 41.0779 60.257 41.0307 60.21C40.9992 60.1786 40.9677 60.1472 40.9363 60.1159C40.8891 60.0532 40.8576 59.9748 40.8104 59.8964C40.7789 59.8337 40.8418 59.9591 40.8418 59.9591C40.8418 59.9434 40.8261 59.9121 40.8104 59.8964C40.8104 59.865 40.7946 59.8337 40.7789 59.7866C40.7474 59.6925 40.7317 59.6141 40.7159 59.5201C40.6687 59.3162 40.6372 59.1124 40.6058 58.9085C40.6058 58.8458 40.6058 58.9399 40.6058 58.9399C40.6058 58.9085 40.6058 58.8772 40.6058 58.8458C40.6058 58.7831 40.6058 58.7204 40.59 58.6577C40.59 58.5322 40.5585 58.4068 40.5585 58.2813C40.5428 58.0305 40.5271 57.7953 40.5271 57.5444C40.5271 57.0426 40.5428 56.5409 40.6058 56.0548C40.6372 55.7412 40.3067 55.459 40.0077 55.459C39.6614 55.459 39.4568 55.7255 39.4096 56.0548C39.2994 57.0113 39.3152 57.9678 39.4411 58.9242C39.567 59.8807 39.7086 60.9312 40.6845 61.3389C41.1094 61.5114 41.5816 61.5584 42.0222 61.5741C42.4472 61.5898 42.8879 61.5741 43.2971 61.433C43.722 61.2919 44.1155 61.0567 44.3988 60.696C44.6821 60.3354 44.871 59.9277 44.9811 59.5044C45.1228 59.0026 45.1857 58.4695 45.2487 57.9521C45.3116 57.4033 45.3589 56.8702 45.3746 56.3214C45.3746 56.0078 45.0913 55.7255 44.7765 55.7255C44.446 55.7255 44.1942 55.9764 44.1784 56.3214H44.1627Z" fill="#231F20"/>
<path d="M34.0117 59.4408C34.0117 59.5506 34.0117 59.6603 34.0432 59.7858C34.0432 59.8642 34.0747 59.9426 34.0904 60.021C34.1219 60.1307 34.1691 60.2405 34.2163 60.3346C34.2478 60.413 34.295 60.4757 34.3422 60.5541C34.3737 60.6011 34.4052 60.6325 34.4367 60.6638C34.4681 60.6952 34.5154 60.7266 34.5783 60.7266C34.6255 60.7422 34.6885 60.7422 34.7357 60.7266C34.7829 60.7266 34.8301 60.7109 34.8773 60.6795C34.956 60.6325 35.0347 60.5384 35.0505 60.4443C35.0662 60.3503 35.0662 60.2248 35.0033 60.1464C34.9403 60.068 34.8931 59.9739 34.8616 59.8799L34.9088 59.9739C34.8459 59.8485 34.8144 59.7074 34.7987 59.5663V59.676C34.7987 59.676 34.7987 59.5192 34.7987 59.4408C34.7987 59.3938 34.7987 59.3311 34.7672 59.284C34.7514 59.237 34.72 59.1899 34.6885 59.1586C34.657 59.1272 34.6098 59.0959 34.5626 59.0802C34.5154 59.0488 34.4681 59.0488 34.4052 59.0488C34.3108 59.0488 34.2006 59.0802 34.1219 59.1586C34.0432 59.237 34.0117 59.3311 34.0117 59.4408Z" fill="#231F20"/>
<path d="M35.3175 59.8025L35.4592 60.5865C35.4592 60.5865 35.4907 60.6805 35.5221 60.7276C35.5536 60.7746 35.5851 60.806 35.6323 60.8217C35.6795 60.853 35.7267 60.8687 35.774 60.8687C35.8212 60.8687 35.8841 60.8687 35.9314 60.8687L36.0258 60.8217C36.0258 60.8217 36.136 60.7433 36.1674 60.6805L36.2146 60.5865C36.2146 60.5865 36.2304 60.4453 36.2146 60.3826L36.073 59.5986C36.073 59.5986 36.0415 59.5046 36.01 59.4575C35.9786 59.4105 35.9471 59.3791 35.8999 59.3634C35.8527 59.3321 35.8054 59.3164 35.7582 59.3164C35.711 59.3164 35.6481 59.3164 35.6008 59.3164L35.5064 59.3634C35.5064 59.3634 35.3962 59.4418 35.3648 59.5046L35.3175 59.5986C35.3175 59.5986 35.3018 59.7398 35.3175 59.8025Z" fill="#231F20"/>
<path d="M41.2201 59.332C41.1886 59.4417 41.1729 59.5515 41.1729 59.6612C41.1729 59.7396 41.1729 59.818 41.1729 59.9121C41.1729 60.0219 41.2043 60.1316 41.2358 60.2414C41.2673 60.3511 41.3145 60.4609 41.3617 60.555C41.3932 60.602 41.4247 60.6334 41.4561 60.6647C41.4876 60.6961 41.5348 60.7275 41.5978 60.7275C41.645 60.7431 41.708 60.7431 41.7552 60.7275C41.8024 60.7275 41.8496 60.7118 41.8968 60.6804C41.9755 60.6334 42.0542 60.5393 42.07 60.4452V60.3355C42.07 60.3355 42.07 60.1944 42.0227 60.1316C42.0227 60.116 42.007 60.1003 41.9913 60.0689L42.0385 60.163C41.9913 60.0532 41.9598 59.9435 41.944 59.818V59.9278C41.944 59.8024 41.944 59.6926 41.944 59.5672V59.6769C41.944 59.6769 41.944 59.5672 41.9598 59.5201C41.9755 59.4731 41.9755 59.4104 41.9598 59.3633C41.9598 59.3163 41.9441 59.2692 41.9126 59.2222C41.8811 59.1752 41.8496 59.1438 41.8181 59.1124C41.7867 59.0811 41.7394 59.0497 41.6765 59.0497C41.5821 59.034 41.4562 59.034 41.3775 59.0968C41.2988 59.1595 41.2201 59.2379 41.2043 59.332H41.2201Z" fill="#231F20"/>
<path d="M42.4947 59.6775C42.4947 59.6775 42.5104 59.7716 42.5262 59.803V59.6932C42.5262 59.8187 42.5262 59.9441 42.5262 60.0538V59.9441C42.5262 60.0695 42.4947 60.1793 42.4475 60.289L42.4947 60.195C42.4947 60.195 42.479 60.242 42.4632 60.2577C42.4318 60.3047 42.416 60.3518 42.416 60.3988C42.416 60.4458 42.416 60.5086 42.416 60.5556C42.416 60.6026 42.4475 60.6497 42.479 60.6967C42.5104 60.7438 42.5419 60.7751 42.5891 60.7908C42.6836 60.8378 42.7937 60.8692 42.8882 60.8378C42.9826 60.8065 43.077 60.7438 43.1243 60.6654C43.1715 60.5713 43.2187 60.4615 43.2502 60.3518C43.2816 60.242 43.2974 60.1322 43.3131 60.0225C43.3131 59.9441 43.3131 59.8657 43.3131 59.7873C43.3131 59.6775 43.2974 59.5678 43.2659 59.458C43.2659 59.411 43.2344 59.3639 43.203 59.3169C43.1715 59.2699 43.14 59.2385 43.0928 59.2228C43.0456 59.1915 42.9983 59.1758 42.9511 59.1758C42.9039 59.1758 42.841 59.1758 42.7937 59.1758C42.6993 59.2071 42.6049 59.2699 42.5577 59.3483L42.5104 59.4423C42.5104 59.4423 42.4947 59.5835 42.5104 59.6462L42.4947 59.6775Z" fill="#231F20"/>
<path d="M31.9182 40.3272C29.7777 42.8517 27.5743 45.4075 26.4726 48.5748C26.1421 49.4999 25.9375 50.4721 25.8273 51.4442C25.7958 51.7578 26.1263 52.04 26.4254 52.04C26.7716 52.04 26.9762 51.7735 27.0234 51.4442C27.4012 48.3239 29.0852 45.6427 31.0211 43.2437C31.5877 42.5381 32.1857 41.8482 32.7681 41.1583C32.9727 40.9231 33.0041 40.5624 32.7681 40.3272C32.5635 40.1234 32.1385 40.0763 31.9339 40.3272H31.9182Z" fill="#231F20"/>
<path d="M27.984 56.0074C27.8266 56.2112 27.6849 56.4308 27.5748 56.6503C27.4331 56.9168 27.3229 57.1991 27.2285 57.497C27.1813 57.6381 27.1498 57.7792 27.1183 57.9203C27.0869 57.9987 27.0869 58.0771 27.1183 58.1555C27.1183 58.2339 27.1498 58.3123 27.1813 58.3751C27.26 58.5005 27.3859 58.6103 27.5275 58.6416C27.6849 58.673 27.8423 58.673 27.984 58.5789C28.1099 58.5005 28.22 58.3751 28.2515 58.2339C28.3145 57.936 28.3932 57.6538 28.5033 57.3872L28.4404 57.5283C28.582 57.1991 28.7552 56.8855 28.9755 56.6032C29.0227 56.5405 29.0385 56.4621 29.0385 56.3837C29.0542 56.3053 29.0385 56.2269 29.0385 56.1485C29.007 56.0074 28.8968 55.8663 28.7709 55.8036C28.6293 55.7252 28.4719 55.6938 28.3145 55.7409L28.1728 55.8036C28.0784 55.8506 28.0154 55.929 27.9682 56.0074H27.984Z" fill="#231F20"/>
<path d="M28.7072 58.4692C28.959 58.8925 29.2738 59.2845 29.6515 59.6138C30.0764 59.9744 30.5329 60.241 31.0522 60.4291C31.2883 60.5232 31.5401 60.5859 31.792 60.633C31.9493 60.6643 32.1067 60.6643 32.2484 60.5703C32.3743 60.4919 32.4845 60.3664 32.5159 60.2253C32.5474 60.0685 32.5474 59.9117 32.453 59.7706C32.3743 59.6451 32.2484 59.5197 32.1067 59.504C31.8077 59.457 31.5087 59.3629 31.2411 59.2532L31.3827 59.3159C31.068 59.1904 30.7847 59.018 30.5171 58.8141L30.643 58.9082C30.3755 58.7044 30.1394 58.4692 29.9348 58.2183L30.0292 58.3437C29.919 58.2026 29.8246 58.0615 29.7459 57.9204C29.6672 57.7949 29.5413 57.6852 29.3997 57.6538C29.258 57.6225 29.0692 57.6381 28.9432 57.7165C28.6757 57.889 28.5655 58.234 28.7386 58.5162L28.7072 58.4692Z" fill="#231F20"/>
<path d="M48.6172 57.3725C48.5857 57.545 48.5227 57.7175 48.4598 57.89L48.5227 57.7488C48.4126 57.9997 48.2866 58.2192 48.1135 58.4388L48.208 58.3133C48.0348 58.5328 47.8302 58.7367 47.6099 58.9092L47.7358 58.8151C47.4997 58.9875 47.2479 59.1443 46.9803 59.2541L47.122 59.1914C46.8544 59.3011 46.5869 59.3795 46.3036 59.4109H46.461C46.2091 59.4109 45.9573 59.4109 45.7055 59.3952C45.5638 59.3795 45.375 59.4736 45.2805 59.5677C45.1704 59.6775 45.1074 59.8343 45.1074 59.9911C45.1074 60.1479 45.1704 60.3047 45.2805 60.4144L45.4065 60.5085C45.5009 60.5555 45.5953 60.5869 45.7055 60.5869C46.4137 60.681 47.1377 60.5085 47.783 60.1792C48.4283 59.8499 48.9634 59.3639 49.3254 58.768C49.53 58.4388 49.6874 58.0624 49.7818 57.6704C49.8133 57.5136 49.7976 57.3569 49.7189 57.2157C49.6402 57.0903 49.5143 56.9805 49.3726 56.9492C49.0736 56.8865 48.7116 57.0433 48.6486 57.3569L48.6172 57.3725Z" fill="#231F20"/>
<path d="M51.686 53.562C52.5831 53.0446 53.3071 52.2763 53.7163 51.3355C53.9366 50.8494 54.094 50.3633 54.1884 49.8302C54.2986 49.2344 54.3458 48.6229 54.4088 48.027C54.4088 47.9486 54.4245 47.8546 54.4402 47.7762C54.4402 47.7448 54.4402 47.7134 54.4402 47.6821C54.4402 47.7605 54.4402 47.635 54.4402 47.6194C54.4717 47.4469 54.4875 47.2901 54.5347 47.1176C54.5976 46.7726 54.7078 46.4434 54.8337 46.1141C54.9439 45.8319 54.7078 45.4555 54.4245 45.3928C54.0782 45.3144 53.8264 45.5026 53.7005 45.8005C53.4802 46.365 53.37 46.9451 53.2913 47.541C53.2441 47.8389 53.2126 48.1368 53.1811 48.4504C53.1811 48.5915 53.1497 48.7483 53.1339 48.8894C53.1339 48.9521 53.1339 49.0149 53.1182 49.0776C53.1182 49.1089 53.1182 49.1403 53.1182 49.1717C53.1182 49.2657 53.1182 49.0933 53.1182 49.203C53.0395 49.6734 52.9451 50.1281 52.7719 50.5672C52.7562 50.6142 52.7405 50.6612 52.709 50.7083C52.6775 50.7867 52.7562 50.6299 52.709 50.7083C52.709 50.724 52.6932 50.7553 52.6775 50.771C52.6303 50.8808 52.5831 50.9748 52.5201 51.0846C52.4729 51.1787 52.4099 51.2728 52.3627 51.3512C52.3312 51.3982 52.2998 51.4452 52.2683 51.4923C52.2526 51.5236 52.1266 51.6647 52.2053 51.5707C52.048 51.7588 51.8748 51.947 51.686 52.1038C51.6387 52.1508 51.5758 52.1979 51.5286 52.2292C51.5286 52.2292 51.6073 52.1822 51.5443 52.2292C51.5128 52.2606 51.4814 52.2763 51.4341 52.3076C51.324 52.386 51.1981 52.4644 51.0722 52.5271C50.8046 52.6839 50.6944 53.0602 50.8675 53.3268C51.0407 53.5934 51.3869 53.7031 51.6702 53.5306L51.686 53.562Z" fill="#231F20"/>
<path d="M56.0617 44.6556C55.9987 44.7967 56.0931 44.5772 56.1089 44.5458C56.1403 44.4988 56.1561 44.4361 56.1876 44.389C56.2505 44.2636 56.3135 44.1381 56.3922 44.0127C56.4551 43.9029 56.5181 43.8089 56.5968 43.6991C56.6125 43.6678 56.6283 43.6521 56.6597 43.6207C56.6912 43.5266 56.6912 43.5737 56.6597 43.6207C56.6755 43.5737 56.7542 43.511 56.7856 43.4639C56.943 43.2758 57.1161 43.1033 57.2893 42.9465C57.3365 42.9151 57.368 42.8681 57.4152 42.8367C57.4152 42.8367 57.4939 42.7897 57.4939 42.774C57.4939 42.774 57.368 42.8681 57.4624 42.8054C57.5568 42.727 57.667 42.6642 57.7772 42.5858C58.1864 42.3193 58.6113 42.0998 59.052 41.9116C59.1622 41.8646 59.2724 41.8175 59.3825 41.7705C59.414 41.7705 59.5084 41.7078 59.3825 41.7705C59.414 41.7705 59.4297 41.7548 59.4612 41.7391C59.5242 41.7078 59.5871 41.6921 59.6501 41.6607C59.9019 41.5667 60.138 41.4569 60.3898 41.3628C61.0508 41.0806 61.7433 40.72 61.9479 39.9673C62.0266 39.6694 61.8378 39.3088 61.5387 39.2461C61.2397 39.1833 60.9092 39.3401 60.8148 39.6537C60.8148 39.6537 60.8148 39.7008 60.799 39.7164C60.799 39.7321 60.7675 39.7635 60.7518 39.7792C60.6888 39.8732 60.7675 39.7478 60.7833 39.7478C60.7833 39.7635 60.6574 39.8732 60.6416 39.8889C60.6259 39.8889 60.5944 39.9203 60.5787 39.936C60.6416 39.8889 60.6574 39.8732 60.6259 39.9046C60.6101 39.9046 60.5944 39.9203 60.5787 39.936C60.4685 39.9987 60.3741 40.0614 60.2482 40.1241C60.1852 40.1555 60.1223 40.2025 60.0593 40.2182C60.0593 40.2182 60.1852 40.1712 60.0908 40.2182C60.0593 40.2182 60.0121 40.2496 59.9806 40.2652C59.4612 40.4691 58.9418 40.6729 58.4382 40.9081C57.5411 41.3158 56.6755 41.8332 56.0144 42.5858C55.558 43.1033 55.2432 43.6678 54.9757 44.2949C54.8498 44.5772 55.1016 44.9535 55.3849 45.0162C55.7311 45.0946 55.983 44.9065 56.1089 44.6085L56.0617 44.6556Z" fill="#231F20"/>
<path d="M61.0509 40.4842C61.0509 40.4842 61.0981 40.5783 61.1139 40.6253C61.1139 40.6567 61.1454 40.6724 61.1454 40.7037C61.1768 40.7821 61.0824 40.547 61.1454 40.6881C61.2083 40.8292 61.2555 40.9703 61.3027 41.1271C61.4129 41.4877 61.5074 41.8641 61.5546 42.2404C61.586 42.3972 61.5546 42.1306 61.5546 42.2874C61.5546 42.3344 61.5546 42.3972 61.5703 42.4442C61.5703 42.5696 61.586 42.6794 61.6018 42.8048C61.6018 43.04 61.6018 43.2752 61.6018 43.5104C61.6018 43.6359 61.586 43.7456 61.5703 43.8711C61.5703 43.9024 61.5703 43.9338 61.5703 43.9651C61.5703 43.9495 61.586 43.8397 61.5703 43.9495C61.5703 44.0122 61.5546 44.0906 61.5388 44.1533C61.4916 44.4199 61.4287 44.6707 61.3342 44.9373C61.3027 45.0157 61.287 45.0784 61.2555 45.1568C61.2555 45.1882 61.2241 45.2195 61.2241 45.2509C61.2083 45.3136 61.2555 45.1725 61.2241 45.2822C61.1611 45.4234 61.0981 45.5645 61.0195 45.7056C60.9408 45.8624 60.8463 46.0035 60.7519 46.1446C60.7047 46.2074 60.6575 46.2858 60.6102 46.3485C60.5945 46.3798 60.563 46.4112 60.5473 46.4426C60.6102 46.3642 60.5001 46.4896 60.5001 46.5053C60.3112 46.7405 60.2483 47.1011 60.5001 47.3363C60.7204 47.5401 61.1296 47.5872 61.3342 47.3363C62.1684 46.3171 62.672 45.1255 62.8137 43.8084C62.9081 42.8519 62.8137 41.8641 62.5304 40.9389C62.4202 40.5783 62.2943 40.2334 62.1212 39.9041C61.9795 39.6375 61.5703 39.5278 61.3185 39.7002C61.0352 39.8884 60.9565 40.2177 61.1139 40.4999L61.0509 40.4842Z" fill="#231F20"/>
<path d="M49.7499 59.8018C52.0949 60.1781 54.5502 59.692 56.5647 58.4063C57.1313 58.0457 57.6664 57.6223 58.1386 57.1519C58.3589 56.9324 58.3589 56.5404 58.1386 56.3209C57.9183 56.1014 57.5248 56.1014 57.3044 56.3209C56.8952 56.7129 56.5647 56.9951 56.124 57.293C55.6834 57.591 55.2112 57.8418 54.739 58.0613C54.7076 58.0613 54.6761 58.0927 54.6603 58.0927C54.5974 58.1241 54.5344 58.1397 54.4557 58.1711C54.3298 58.2181 54.2039 58.2652 54.078 58.3122C53.8104 58.4063 53.5586 58.469 53.2911 58.5474C53.0235 58.6258 52.7717 58.6572 52.5041 58.7042C52.394 58.7199 52.5199 58.7042 52.4254 58.7042C52.3625 58.7042 52.2995 58.7042 52.2366 58.7199C52.0949 58.7199 51.9533 58.7513 51.8116 58.7513C51.5126 58.7669 51.1978 58.7669 50.8988 58.7513C50.7571 58.7513 50.6155 58.7356 50.4738 58.7199C50.3951 58.7199 50.3164 58.7042 50.2378 58.6885C50.1905 58.6885 50.1433 58.6885 50.0804 58.6572C49.7813 58.6101 49.4351 58.7356 49.3564 59.0649C49.2934 59.3471 49.4351 59.7391 49.7656 59.7861L49.7499 59.8018Z" fill="#231F20"/>
<path d="M57.305 55.1617C57.4151 55.2871 57.5568 55.3969 57.6827 55.4909C57.7771 55.5693 57.8873 55.632 57.9975 55.6791C58.265 55.8202 58.5483 55.9143 58.8316 55.9613C59.0205 55.9927 59.2093 56.0084 59.3982 55.9927C59.5556 55.9927 59.6972 55.93 59.8232 55.8202C59.8861 55.7732 59.9176 55.7104 59.9491 55.6321C59.9805 55.5693 59.9963 55.4909 59.9963 55.4125C59.9963 55.2557 59.9333 55.0989 59.8232 54.9892C59.713 54.8794 59.5556 54.801 59.3982 54.8167C59.2723 54.8167 59.1464 54.8167 59.0205 54.8167H59.1779C58.989 54.8167 58.8001 54.754 58.6113 54.6913L58.7529 54.754C58.5798 54.6756 58.4224 54.5972 58.2808 54.4874L58.4067 54.5815C58.3122 54.5188 58.2335 54.4404 58.1549 54.3463C58.0604 54.2365 57.8873 54.1738 57.7299 54.1738C57.5725 54.1738 57.4151 54.2365 57.305 54.3463C57.1948 54.4561 57.1318 54.6129 57.1318 54.7697C57.1318 54.9265 57.1948 55.0676 57.305 55.193V55.1617Z" fill="#231F20"/>
<path d="M59.8074 54.3465C60.2009 54.1426 60.5314 53.829 60.8147 53.4998C61.1924 53.0607 61.5229 52.5903 61.822 52.0886C62.4201 51.0694 62.9237 49.9248 63.0811 48.7331C63.1598 48.1059 63.1283 47.5101 62.8765 46.9299C62.7506 46.6477 62.3099 46.5693 62.0738 46.7261C61.7748 46.9142 61.7275 47.2278 61.8692 47.5258C61.7905 47.3376 61.8692 47.4944 61.8692 47.5414C61.8692 47.5885 61.9007 47.6355 61.9164 47.6826C61.9322 47.7296 61.9321 47.7766 61.9479 47.8237C61.9479 47.8237 61.9479 47.8707 61.9479 47.8864C61.9479 47.7766 61.9321 47.761 61.9479 47.8237C61.9479 47.8237 61.9479 47.855 61.9479 47.8707C61.9636 48.1059 61.9479 48.3254 61.9479 48.5606C61.9479 48.5763 61.9479 48.6077 61.9479 48.639C61.9479 48.4665 61.9479 48.5763 61.9479 48.639C61.9479 48.6861 61.9322 48.7488 61.9164 48.7958C61.8849 48.9213 61.8692 49.0624 61.822 49.1878C61.759 49.4387 61.6803 49.7052 61.5859 49.9404C61.5387 50.0659 61.4915 50.207 61.4285 50.3168C61.5072 50.1756 61.4128 50.3638 61.3813 50.4108C61.3498 50.4736 61.3183 50.552 61.2869 50.6147C61.161 50.8656 61.035 51.1164 60.8934 51.3673C60.7675 51.6025 60.6258 51.822 60.4684 52.0415C60.3898 52.1513 60.3268 52.2454 60.2481 52.3551C60.2481 52.3708 60.2166 52.3865 60.2009 52.4179C60.1222 52.5119 60.2638 52.3395 60.2009 52.4022C60.1537 52.4492 60.1222 52.4963 60.075 52.559C59.9176 52.7471 59.7602 52.9353 59.5713 53.0921C59.5399 53.1234 59.4926 53.1548 59.4612 53.1862C59.3353 53.2959 59.5556 53.1234 59.4612 53.1862C59.3825 53.2332 59.3038 53.2959 59.2251 53.3273C58.9418 53.4684 58.8474 53.8761 59.0205 54.127C59.2094 54.4092 59.5399 54.4876 59.8232 54.3308L59.8074 54.3465Z" fill="#231F20"/>
<path d="M27.2436 51.9625C27.1019 52.2918 26.976 52.621 26.8816 52.966C26.7871 53.3109 26.7242 53.6716 26.677 54.0322C26.5825 54.7064 26.614 55.3807 26.7399 56.0549C26.7557 56.196 26.8973 56.3372 27.0075 56.3999C27.1334 56.4783 27.3223 56.5096 27.4639 56.4626C27.6056 56.4155 27.7472 56.3215 27.8102 56.196C27.8889 56.0549 27.9046 55.9138 27.8731 55.7413C27.8731 55.6786 27.8574 55.6159 27.8416 55.5532V55.71C27.7787 55.1455 27.7944 54.5653 27.8574 53.9852V54.142C27.9203 53.5775 28.062 53.0287 28.2823 52.5113L28.2194 52.6524C28.2194 52.6524 28.2509 52.5897 28.2509 52.5583C28.3138 52.4015 28.361 52.2761 28.3138 52.1036C28.2823 51.9625 28.1722 51.8214 28.0462 51.7586C27.9046 51.6802 27.7472 51.6489 27.5898 51.6959C27.4482 51.743 27.2908 51.837 27.2436 51.9625Z" fill="#231F20"/>
<path d="M47.1063 42.5239C48.7746 44.8445 50.6003 47.3533 50.6003 50.3168C50.6003 50.6304 50.8679 50.9126 51.1984 50.9126C51.5289 50.9126 51.7807 50.646 51.7964 50.3168C51.7964 47.1338 49.9393 44.4212 48.1451 41.9281C47.9562 41.6772 47.6257 41.5518 47.3424 41.7242C47.0906 41.8654 46.9489 42.273 47.1378 42.5239H47.1063Z" fill="#231F20"/>
<path d="M49.6243 51.6966C49.766 52.0729 49.8919 52.4492 49.9706 52.8412C49.9863 52.9353 50.0178 53.0293 50.0336 53.1391C50.0336 53.2018 50.0493 53.2489 50.065 53.3116C50.065 53.3429 50.065 53.3743 50.065 53.39V53.3116C50.0808 53.4056 50.065 53.5154 50.0808 53.6095C50.0808 53.7192 50.0965 53.829 50.0965 53.9231C50.1122 54.3151 50.0965 54.7228 50.0493 55.1148C50.0493 55.1618 50.0493 55.1461 50.0493 55.0677C50.0493 55.0991 50.0493 55.1304 50.0493 55.1461C50.0493 55.1931 50.0493 55.2402 50.0178 55.2872C50.0021 55.3813 49.9863 55.4754 49.9549 55.5851C49.9076 55.789 49.8604 55.9928 49.7975 56.181C49.703 56.4789 49.9076 56.8395 50.2067 56.9022C50.5215 56.9806 50.8362 56.8082 50.9307 56.4946C51.45 54.8325 51.3871 52.9823 50.7261 51.3673C50.6631 51.2262 50.6001 51.1007 50.4585 51.0223C50.3326 50.9439 50.1437 50.9126 50.0021 50.9596C49.7188 51.0537 49.467 51.383 49.5929 51.6809L49.6243 51.6966Z" fill="#231F20"/>
<path d="M53.6843 16.1969C52.1891 15.7892 50.3477 17.5453 49.3561 18.4234C48.5062 19.176 48.0026 19.9757 46.8065 19.5837C44.0207 18.6586 41.0618 18.2352 38.1187 18.298C36.7179 18.3293 35.0811 18.298 33.7433 18.7527C33.1767 18.9408 31.6028 20.3207 31.1307 19.7875C30.4382 18.9879 29.9345 18.1255 29.1948 17.3729C28.5495 16.7143 27.5422 16.6045 26.7081 16.2596C25.0083 15.554 23.8594 15.3031 23.3872 17.4356C22.9465 19.4269 23.0567 21.5123 23.5446 23.488C23.7335 24.2877 23.9853 25.15 23.6862 25.9027C23.5289 26.3103 23.2141 26.6396 22.9465 27.0003C21.8763 28.3801 21.1208 30.1989 20.3339 31.7512C19.8775 32.645 19.6571 33.7112 20.0506 34.6206C20.3811 34.5109 20.6959 34.4011 21.0264 34.2914C20.4913 35.9534 19.9562 37.7252 20.4441 39.403C20.6487 40.0929 21.0107 40.7358 21.5143 41.2532C21.9392 41.1591 22.3642 41.065 22.7891 40.971C22.7891 40.971 24.9611 48.168 26.5192 44.1069C27.0229 45.4867 28.2662 46.208 29.6512 46.6157C31.4454 47.1331 33.0823 46.8195 34.9394 46.7568C36.9697 46.6784 39.0158 46.7254 41.0461 46.8979C42.8403 47.039 44.6975 47.2586 46.4917 47.0861C48.2859 46.9136 49.8598 45.8317 51.3077 44.7968C51.0244 45.0007 52.0002 45.1731 52.0317 45.1731C52.2835 45.1731 52.8344 44.7968 53.0705 44.6714C54.0305 44.1383 54.6129 43.4327 55.3211 42.5703C55.7461 42.0529 56.2025 41.0337 56.6746 40.6417C56.7848 40.5476 56.9422 40.5319 57.0838 40.4849C57.7449 40.2654 57.918 39.4187 57.9337 38.7288C57.9652 37.8036 57.9337 36.8785 57.8708 35.9534C58.8466 36.267 58.8151 36.8472 59.4289 35.828C59.665 35.436 59.7909 34.605 59.7437 34.1502C59.7122 33.821 58.3272 30.5282 57.9023 30.9672C59.6178 29.2111 56.0451 27.1571 55.6988 25.5891C55.5572 24.9462 55.7303 24.272 55.8247 23.6134C56.1238 21.7632 56.108 16.9809 53.7315 16.2282C53.7158 16.2282 53.6843 16.2282 53.6685 16.2126L53.6843 16.1969Z" fill="white"/>
<path d="M53.558 18.6898C53.558 18.6898 53.4793 18.6428 53.4479 18.6271C53.196 18.5487 52.9285 18.5644 52.6452 18.6742C52.1573 18.8623 51.7323 19.223 51.3704 19.5836C50.9611 19.9913 50.5992 20.4303 50.2686 20.9164C49.9853 21.3397 49.6706 21.5122 49.6234 22.0767C49.6234 22.2335 49.6076 22.406 49.6863 22.5314C49.8437 22.7823 50.1899 22.7666 50.489 22.7823C51.4963 22.8763 52.1258 24.0053 52.8341 24.6325C52.8655 24.6482 52.8813 24.6795 52.897 24.6952C52.9914 24.5071 53.1016 24.3032 53.1646 24.1307C53.6525 22.892 53.92 21.5122 53.8886 20.1794C53.8886 19.6463 53.7941 19.0975 53.558 18.6898Z" fill="#F9BDBE"/>
<path d="M28.2665 21.2773C27.637 20.4933 26.85 19.8347 26.0631 19.1762C26.0002 19.1134 25.9215 19.0664 25.827 19.0664C25.7169 19.0664 25.6382 19.1448 25.5752 19.2389C25.3077 19.6309 25.3706 20.164 25.465 20.6344C25.5752 21.2302 25.9057 23.8958 26.5825 24.0683C27.1963 24.2251 27.0704 23.5351 27.1806 23.2372C27.3852 22.7198 27.5426 22.4689 28.1564 22.3905C28.3924 22.3592 28.7072 22.3278 28.7387 22.0926C28.7544 21.9828 28.6915 21.8731 28.6285 21.779C28.5184 21.6065 28.3924 21.4341 28.2508 21.2773H28.2665Z" fill="#F9BDBE"/>
<path d="M32.2327 36.0008C33.0759 36.0008 33.7594 35.3268 33.7594 34.4955C33.7594 33.6642 33.0759 32.9902 32.2327 32.9902C31.3896 32.9902 30.7061 33.6642 30.7061 34.4955C30.7061 35.3268 31.3896 36.0008 32.2327 36.0008Z" fill="#231F20"/>
<path d="M46.7435 36.0008C47.5866 36.0008 48.2701 35.3268 48.2701 34.4955C48.2701 33.6642 47.5866 32.9902 46.7435 32.9902C45.9003 32.9902 45.2168 33.6642 45.2168 34.4955C45.2168 35.3268 45.9003 36.0008 46.7435 36.0008Z" fill="#231F20"/>
<path d="M39.095 37.0665C39.8599 37.0665 40.48 36.6874 40.48 36.2198C40.48 35.7521 39.8599 35.373 39.095 35.373C38.33 35.373 37.71 35.7521 37.71 36.2198C37.71 36.6874 38.33 37.0665 39.095 37.0665Z" fill="#231F20"/>
<path d="M31.571 20.2736C34.1049 19.3642 36.7648 18.8468 39.4718 18.9095C42.1789 18.9722 44.9489 19.5994 47.5458 20.5402C48.2541 20.7911 48.5688 19.6621 47.8606 19.4112C45.1693 18.4391 42.352 17.7962 39.4718 17.7335C36.5917 17.6708 33.9003 18.2039 31.2562 19.1447C30.548 19.3956 30.847 20.5402 31.571 20.2736Z" fill="#231F20"/>
<path d="M25.5909 16.322C25.7955 16.3534 26.0001 16.4004 26.2047 16.4788C26.2991 16.5102 26.4093 16.5729 26.5195 16.6043C26.5195 16.6043 26.3936 16.5415 26.488 16.5886C26.5037 16.5886 26.5352 16.6043 26.551 16.6199C26.6139 16.6513 26.6769 16.6827 26.7398 16.714C27.2277 16.9492 27.6842 17.2471 28.1248 17.5607C28.235 17.6391 28.3452 17.7175 28.4553 17.7959C28.4553 17.7959 28.5813 17.89 28.5026 17.8273C28.4239 17.7646 28.5498 17.8586 28.5498 17.8743C28.6127 17.9214 28.6757 17.9684 28.7386 18.0154C28.9747 18.2036 29.1951 18.3918 29.4154 18.5956C29.8561 18.9876 30.2653 19.4109 30.6588 19.85C30.7532 19.9597 30.8634 20.0852 30.9578 20.1949C31.005 20.2577 31.068 20.3204 31.1152 20.3988C31.1309 20.4301 31.1939 20.4772 31.0995 20.3831C31.1309 20.4145 31.1467 20.4458 31.1782 20.4772C31.3513 20.6967 31.5087 20.9319 31.6503 21.1828C31.8077 21.4493 32.1854 21.5748 32.453 21.3866C32.7205 21.1984 32.8307 20.8692 32.6576 20.5869C32.0595 19.5991 31.2568 18.721 30.407 17.9214C29.5571 17.1217 28.5498 16.322 27.4795 15.7732C26.9916 15.5224 26.4565 15.2872 25.8899 15.2088C25.5909 15.1617 25.2446 15.2872 25.166 15.6164C25.103 15.8987 25.2446 16.2907 25.5752 16.3377L25.5909 16.322Z" fill="#231F20"/>
<path d="M23.4503 16.1496C22.5375 18.7524 22.4588 21.6532 23.1513 24.3188C23.3087 24.9146 23.5133 25.4791 23.7493 26.0435C23.8752 26.3415 24.3002 26.4042 24.552 26.2474C24.851 26.0749 24.8983 25.7299 24.7566 25.4477C24.7251 25.385 24.7251 25.385 24.7566 25.4477C24.7566 25.4163 24.7251 25.385 24.7094 25.3379C24.6779 25.2595 24.6464 25.1968 24.6307 25.1184C24.5678 24.9616 24.5205 24.8205 24.4733 24.6637C24.3789 24.3501 24.2845 24.0365 24.2058 23.7072C24.0326 22.986 23.9382 22.2961 23.891 21.5591C23.7808 19.8343 24.0012 18.1096 24.5835 16.4632C24.6937 16.1653 24.4576 15.8203 24.1743 15.7419C23.8438 15.6478 23.5605 15.8517 23.4503 16.1496Z" fill="#231F20"/>
<path d="M26.1263 19.6615C26.3466 19.7869 26.5512 19.928 26.7401 20.0848L26.6142 19.9907C27.165 20.4141 27.6844 20.9002 28.1093 21.4333L28.0149 21.3078C28.1723 21.5117 28.3297 21.7312 28.4241 21.9664L28.3612 21.8253C28.4084 21.935 28.4399 22.0291 28.4556 22.1389V21.9821C28.4556 21.9821 28.4556 22.1075 28.4399 22.1702V22.0134C28.4399 22.0134 28.4399 22.1075 28.4241 22.1545L28.4871 22.0134C28.4871 22.0134 28.4556 22.0918 28.4241 22.1232L28.5185 21.9977C28.5185 21.9977 28.4556 22.0761 28.4084 22.0918L28.5343 21.9977C28.5343 21.9977 28.4241 22.0761 28.3612 22.0918L28.5028 22.0291C28.3769 22.0761 28.251 22.1075 28.1093 22.1232H28.2667C28.1408 22.1232 28.0149 22.1232 27.9047 22.1232C27.59 22.1232 27.3067 22.3897 27.3067 22.719C27.3067 23.0483 27.5585 23.3148 27.9047 23.3148C28.3926 23.3148 28.9907 23.2208 29.337 22.8288C29.6517 22.4681 29.699 21.9821 29.5416 21.543C29.3842 21.104 29.1009 20.712 28.7861 20.3514C28.4871 20.0064 28.1723 19.6928 27.826 19.4106C27.4798 19.1283 27.1178 18.8147 26.7086 18.5952C26.441 18.4384 26.0476 18.5168 25.9059 18.7991C25.7643 19.0813 25.8272 19.4419 26.1105 19.5987L26.1263 19.6615Z" fill="#231F20"/>
<path d="M52.1264 18.9561C51.5598 19.2854 51.0247 19.6617 50.5526 20.1007C50.0804 20.5398 49.6869 21.0415 49.4351 21.6217C49.3564 21.8098 49.2777 21.998 49.2148 22.2018C49.1518 22.4213 49.1203 22.6252 49.0889 22.8447V23.0015C49.0889 23.0015 49.1676 23.1426 49.2148 23.2053C49.2935 23.2994 49.4036 23.3935 49.5138 23.4092C49.7342 23.4562 49.9702 23.4876 50.2063 23.4562C50.4896 23.4248 50.7257 23.3464 50.9933 23.221C51.2766 23.0799 51.371 22.6722 51.1979 22.4213C51.009 22.1391 50.6785 22.0607 50.3952 22.2175C50.3637 22.2332 50.3165 22.2489 50.285 22.2645L50.4267 22.2018C50.3008 22.2489 50.1906 22.2802 50.0489 22.2959H50.2063C50.0804 22.2959 49.9545 22.2959 49.8286 22.2645H49.986C49.986 22.2645 49.8915 22.2645 49.8286 22.2645L50.2693 22.829V22.7977C50.2693 22.7977 50.2693 22.9074 50.2535 22.9545C50.3007 22.6565 50.3794 22.3743 50.4896 22.0921L50.4267 22.2332C50.5526 21.9196 50.7257 21.6373 50.9303 21.3708L50.8359 21.4962C51.1192 21.1199 51.4812 20.7906 51.8431 20.5084L51.7172 20.6025C52.032 20.3673 52.3625 20.1478 52.693 19.9596C52.9606 19.8028 53.0708 19.4265 52.8976 19.1599C52.7245 18.8934 52.3783 18.7836 52.095 18.9561H52.1264Z" fill="#231F20"/>
<path d="M25.0556 24.5537C23.466 25.3534 22.2856 26.8744 21.3413 28.3326C20.8219 29.1322 20.3655 29.979 19.972 30.857C19.6258 31.641 19.2323 32.4877 19.0906 33.3344C18.9805 33.9773 19.2638 34.5575 19.8933 34.777C20.5229 34.9965 21.058 34.6986 21.6246 34.4947L20.9636 33.6324C19.8461 35.3258 19.4841 37.3955 19.8618 39.3712C20.0035 40.1081 21.1367 39.7945 20.995 39.0576C20.6645 37.3798 21.0423 35.6394 21.9866 34.2282C22.2541 33.8205 21.7977 33.1933 21.3256 33.3658C21.058 33.4599 20.759 33.648 20.4757 33.6794C20.3183 33.6951 20.2553 33.6794 20.2553 33.601C20.2553 33.3972 20.3812 33.1149 20.4442 32.9268C20.5071 32.7229 20.5701 32.5348 20.6488 32.3309C20.995 31.4215 21.42 30.5434 21.9236 29.6967C22.8365 28.1287 24.0169 26.404 25.6852 25.5573C26.3619 25.2123 25.7639 24.2088 25.0871 24.5381L25.0556 24.5537Z" fill="#231F20"/>
<path d="M21.5143 38.5875C20.9949 39.6067 20.7431 40.7514 20.8218 41.896C20.8218 42.0528 20.8847 42.1939 20.9949 42.3193C21.1051 42.4291 21.2625 42.4918 21.4198 42.4918C21.5772 42.4918 21.7346 42.4291 21.8448 42.3193C21.955 42.2096 22.0337 42.0528 22.0179 41.896C21.9864 41.504 22.0179 41.1277 22.0494 40.7357V40.8925C22.0966 40.3907 22.2383 39.889 22.4271 39.4186L22.3642 39.5597C22.4271 39.4342 22.4743 39.2931 22.553 39.1677C22.6317 39.0266 22.6632 38.8698 22.616 38.713C22.5845 38.5719 22.4743 38.4307 22.3484 38.368C22.2068 38.2896 22.0494 38.2583 21.892 38.3053C21.7504 38.3523 21.6087 38.4464 21.5458 38.5719L21.5143 38.5875Z" fill="#231F20"/>
<path d="M22.7894 40.4226C22.5691 41.9593 22.9153 43.5272 23.8911 44.7503C24.3475 45.3304 25.0873 45.8635 25.8742 45.6911C26.6611 45.5186 27.1805 44.7503 26.9759 43.982C26.7713 43.2136 25.6696 43.5586 25.8427 44.2956C26.2047 45.9262 27.7786 46.8984 29.321 47.1336C30.2653 47.2904 31.2411 47.2904 32.1854 47.3374C33.1297 47.3845 34.1842 47.4315 35.1915 47.4786C35.947 47.5099 35.947 46.3339 35.1915 46.3026C34.3102 46.2555 33.4288 46.2242 32.5317 46.1771C31.6346 46.1301 30.7689 46.1144 29.9033 46.0203C28.6599 45.8792 27.2749 45.2991 26.9759 43.9663L25.8427 44.2799C25.9057 44.5307 25.5437 44.5621 25.3548 44.4837C24.9456 44.3112 24.6623 43.8565 24.4577 43.4802C24.0013 42.6649 23.7967 41.6613 23.9383 40.7206C23.9855 40.407 23.8596 40.0934 23.5291 39.9993C23.2458 39.9209 22.8524 40.0934 22.8051 40.407L22.7894 40.4226Z" fill="#231F20"/>
<path d="M56.6432 30.8578C56.8006 30.9676 56.5645 30.7951 56.7062 30.9048C56.7377 30.9362 56.7692 30.9519 56.8006 30.9832C56.8793 31.046 56.9423 31.1087 57.021 31.1714C57.1784 31.3125 57.32 31.4536 57.4617 31.6104C57.5718 31.7359 57.682 31.8613 57.7764 31.9868C57.6977 31.8927 57.8079 32.0338 57.8079 32.0338C57.8236 32.0652 57.8551 32.0965 57.8709 32.1279C57.9338 32.222 57.9968 32.3004 58.044 32.3944C58.2328 32.6767 58.3902 32.9746 58.5319 33.2882C58.5476 33.3352 58.5791 33.3823 58.5948 33.4293C58.5476 33.3195 58.5948 33.4136 58.5948 33.4293C58.6263 33.5077 58.6578 33.5704 58.6735 33.6488C58.7365 33.8056 58.7837 33.9624 58.8309 34.1349C58.8624 34.2603 58.8939 34.3858 58.9254 34.5112C58.9254 34.5739 58.9568 34.6523 58.9568 34.715C58.9568 34.7621 58.9568 34.7934 58.9726 34.8405C58.9726 34.7464 58.9726 34.7621 58.9726 34.8405C58.9883 35.0757 59.004 35.2952 58.9726 35.5304C58.9726 35.6872 59.004 35.405 58.9726 35.5461C58.9726 35.5931 58.9568 35.6402 58.9411 35.6872C58.9411 35.7342 58.9096 35.7656 58.9096 35.8126C58.8781 35.9381 58.9883 35.6872 58.9096 35.8126C58.9096 35.844 58.8624 35.8753 58.8624 35.891C58.8624 35.8753 58.9726 35.7813 58.8781 35.8597C58.768 35.9694 58.9568 35.7969 58.9096 35.844C58.9096 35.844 58.8781 35.8597 58.8624 35.8753C58.7837 35.9067 59.0198 35.8126 58.9254 35.844C58.7837 35.891 59.067 35.8283 58.9411 35.844C58.7994 35.8597 58.9254 35.7969 58.9726 35.844C58.9726 35.844 58.8624 35.8126 58.8309 35.8126C58.7365 35.7969 58.9411 35.8753 58.8781 35.844C58.8467 35.8283 58.8152 35.8126 58.7837 35.7969C58.7365 35.7656 58.6893 35.7342 58.6421 35.7029C58.6106 35.7029 58.5948 35.6715 58.5791 35.6558C58.6106 35.6872 58.7208 35.7499 58.5791 35.6558C58.4532 35.5461 58.3273 35.4206 58.2014 35.2952C57.8079 34.8718 57.0367 35.3109 57.2098 35.8597C57.5561 36.8945 57.5246 37.9451 57.1469 38.9643C57.0367 39.2622 57.2728 39.6071 57.5561 39.6855C57.8866 39.7796 58.1699 39.5758 58.2801 39.2779C58.7208 38.0862 58.7522 36.7691 58.343 35.5461L57.3515 36.1105C57.7607 36.5496 58.2801 37.02 58.9254 37.0043C59.5077 37.0043 59.9169 36.5182 60.0585 36.0008C60.2317 35.4206 60.153 34.7621 60.0428 34.1819C59.8854 33.4607 59.6021 32.7551 59.2401 32.1122C58.7208 31.2184 58.044 30.4501 57.2098 29.8386C56.958 29.6505 56.5488 29.7916 56.4072 30.0425C56.234 30.3404 56.3599 30.654 56.6118 30.8421L56.6432 30.8578Z" fill="#231F20"/>
<path d="M53.7314 25.3686C53.8731 25.4783 54.0305 25.5881 54.1721 25.6822C54.2193 25.7135 54.2508 25.7449 54.298 25.7762C54.3138 25.7762 54.3295 25.8076 54.3453 25.8233C54.4239 25.886 54.5184 25.9487 54.5971 26.0271C54.9276 26.2937 55.2424 26.5602 55.5571 26.8425C55.8719 27.1247 56.1867 27.4383 56.4857 27.7519C56.6274 27.9087 56.769 28.0655 56.9107 28.2223C56.9736 28.3007 57.0366 28.3634 57.0995 28.4418C57.131 28.4732 57.1625 28.5202 57.194 28.5516C57.194 28.5672 57.2254 28.5829 57.2412 28.5986C57.3041 28.677 57.194 28.5359 57.2569 28.63C57.5087 28.9592 57.7291 29.2885 57.9179 29.6648C58.0124 29.853 58.2799 29.9157 58.4531 29.8059C58.6419 29.6805 58.6891 29.461 58.5947 29.2728C58.2327 28.5516 57.7133 27.9244 57.1625 27.3285C56.5644 26.6857 55.9349 26.0898 55.2581 25.541C54.8961 25.2431 54.5184 24.9609 54.1406 24.6943C53.9675 24.5689 53.7 24.663 53.6055 24.8354C53.4954 25.0393 53.5741 25.2431 53.7472 25.3686H53.7314Z" fill="#231F20"/>
<path d="M47.8614 21.6227C48.0975 21.1367 48.3493 20.6663 48.6484 20.2116C48.7113 20.1175 48.7743 20.0234 48.8372 19.9293C48.8687 19.8823 48.9002 19.8352 48.9317 19.7882C48.9317 19.7725 48.9789 19.7412 48.9789 19.7255C48.9159 19.7882 48.9631 19.7882 48.9789 19.7255C49.1205 19.553 49.2622 19.3805 49.4196 19.2081C49.577 19.0356 49.7343 18.8788 49.9075 18.7377C49.9862 18.6749 50.0649 18.5965 50.1436 18.5338C50.1908 18.5025 50.2222 18.4711 50.2695 18.4241C50.3482 18.3613 50.2695 18.4241 50.2537 18.4397C50.2852 18.4241 50.3167 18.3927 50.3482 18.3613C50.7101 18.0948 51.0879 17.8596 51.4971 17.6558C51.6073 17.6087 51.7174 17.546 51.8276 17.499C51.8591 17.499 51.8748 17.4833 51.9063 17.4676C51.8276 17.499 51.8433 17.499 51.9063 17.4676C51.9692 17.4519 52.0165 17.4206 52.0794 17.4049C52.3155 17.3108 52.5673 17.2324 52.8191 17.1697C53.1182 17.0913 53.3228 16.7463 53.2283 16.4484C53.1339 16.1505 52.8191 15.9467 52.5044 16.0407C50.5685 16.5425 48.9002 17.7655 47.767 19.3962C47.4208 19.898 47.1375 20.4468 46.8542 20.9956C46.7125 21.2621 46.7755 21.6384 47.0588 21.7952C47.3263 21.9363 47.7198 21.8736 47.8614 21.5914V21.6227Z" fill="#231F20"/>
<path d="M54.959 16.4479L54.4554 16.9653C54.4554 16.9653 54.3609 17.0751 54.3294 17.1535C54.298 17.2162 54.2822 17.2946 54.2822 17.373C54.2822 17.4514 54.2822 17.5298 54.3294 17.5925C54.3609 17.6709 54.3924 17.7336 54.4554 17.7807L54.5813 17.8747C54.6757 17.9218 54.7701 17.9531 54.8803 17.9531H55.0377C55.1321 17.9061 55.2266 17.8591 55.3052 17.7807L55.8089 17.2632C55.8089 17.2632 55.9033 17.1535 55.9348 17.0751C55.9663 17.0123 55.982 16.9339 55.982 16.8555C55.982 16.7771 55.982 16.6987 55.9348 16.636C55.9033 16.5576 55.8718 16.4949 55.8089 16.4479L55.683 16.3538C55.5885 16.3068 55.4941 16.2754 55.3839 16.2754H55.2266C55.1321 16.3224 55.0377 16.3695 54.959 16.4479Z" fill="#231F20"/>
<path d="M54.8652 18.7991C54.9282 19.1283 54.9911 19.4576 55.0383 19.7869C55.0698 19.928 55.0855 20.0848 55.1013 20.2259C55.1013 20.3043 55.1328 20.3827 55.1328 20.4768C55.1328 20.3827 55.1328 20.5552 55.1328 20.5552C55.1957 21.1197 55.2429 21.6841 55.2587 22.2486C55.2587 22.5152 55.2587 22.7817 55.2272 23.0483C55.2272 23.1894 55.2115 23.3305 55.1957 23.4873C55.1957 23.55 55.1957 23.6284 55.1642 23.6912C55.1642 23.5814 55.1485 23.8009 55.1485 23.8323C55.0541 24.4438 54.8967 25.0396 54.7078 25.6355C54.6134 25.9334 54.818 26.294 55.117 26.3567C55.4475 26.4351 55.7466 26.2626 55.841 25.949C56.2187 24.7574 56.4391 23.5187 56.4391 22.2643C56.4391 21.0099 56.2187 19.7398 55.9984 18.5011C55.9354 18.2032 55.5577 17.9994 55.2744 18.0935C54.9439 18.2032 54.8022 18.4855 54.8652 18.8147V18.7991Z" fill="#231F20"/>
<path d="M43.2022 47.4466C45.4686 47.9797 47.8923 47.6347 49.9384 46.5058C50.5207 46.1765 51.0716 45.7845 51.5752 45.3455C51.8113 45.1416 51.7955 44.734 51.5752 44.5145C51.3391 44.2793 50.9771 44.3106 50.741 44.5145C50.6466 44.5929 50.5522 44.6713 50.4577 44.7497C50.3633 44.8281 50.3161 44.8594 50.1744 44.9535C49.9698 45.1103 49.7495 45.2357 49.5292 45.3768C49.3088 45.518 49.057 45.6434 48.8209 45.7532C48.5534 45.8786 48.4432 45.9256 48.1756 46.0197C47.6877 46.1922 47.1841 46.3333 46.6647 46.4117C46.6017 46.4117 46.5388 46.4274 46.4758 46.4431C46.3657 46.4588 46.4916 46.4431 46.3971 46.4431C46.2555 46.4588 46.1139 46.4744 45.9722 46.4901C45.7204 46.5058 45.4686 46.5215 45.2167 46.5058C44.9177 46.5058 44.6344 46.4744 44.3354 46.4431C44.3354 46.4431 44.2409 46.4431 44.2882 46.4431C44.3354 46.4431 44.2252 46.4431 44.2095 46.4431C44.1308 46.4431 44.0521 46.4117 43.9734 46.396C43.816 46.3647 43.6743 46.3333 43.517 46.302C43.2179 46.2236 42.8559 46.396 42.793 46.7096C42.73 47.0232 42.8874 47.3525 43.2022 47.4309V47.4466Z" fill="#231F20"/>
<path d="M55.8092 40.5474C55.7935 40.6728 55.762 40.7982 55.7148 40.9237C55.699 40.9707 55.6833 41.0334 55.6676 41.0805C55.6676 41.0962 55.6203 41.1902 55.6676 41.1275C55.699 41.0491 55.6518 41.1746 55.6361 41.1902C55.5259 41.4254 55.3843 41.6606 55.2269 41.8645C55.1954 41.9115 55.1482 41.9742 55.1167 42.0213C55.1954 41.9272 55.0695 42.0683 55.0537 42.0997C54.9751 42.1938 54.8806 42.3035 54.8019 42.3976C54.6288 42.5857 54.4557 42.7739 54.2668 42.9621C54.0779 43.1502 53.8891 43.3227 53.6845 43.4795C53.59 43.5579 53.4956 43.6363 53.4012 43.7147C53.4012 43.7147 53.3067 43.7931 53.3697 43.7461C53.4327 43.699 53.354 43.7617 53.3382 43.7774C53.2753 43.8244 53.2281 43.8715 53.1651 43.9028C52.7559 44.2008 52.3152 44.4673 51.8588 44.7025C51.7329 44.7652 51.607 44.828 51.4653 44.8907C51.4024 44.922 51.3551 44.9377 51.2922 44.9691C51.2607 44.9691 51.2292 45.0004 51.1978 45.0004C51.0561 45.0632 51.2607 44.9691 51.1978 45.0004C50.9302 45.1102 50.6469 45.22 50.3636 45.2983C50.0803 45.3767 49.8442 45.706 49.9544 46.0196C50.0488 46.3175 50.3636 46.5371 50.6784 46.4273C52.8346 45.7374 54.7862 44.3889 56.1397 42.5857C56.5332 42.0683 56.8637 41.4568 56.9581 40.8139C57.0054 40.516 56.8794 40.1711 56.5489 40.0927C56.2656 40.0299 55.8722 40.1711 55.8249 40.5003L55.8092 40.5474Z" fill="#231F20"/>
<path d="M37.9609 39.4346C38.4646 38.8387 38.9053 38.2115 39.283 37.5216H38.6062C39.0312 38.1331 39.4404 38.729 39.8653 39.3405C39.9283 39.4189 39.9912 39.4973 40.1014 39.513C40.1958 39.5443 40.3218 39.5129 40.4004 39.4659C40.5736 39.3562 40.668 39.1053 40.5421 38.9328C40.1172 38.3213 39.7079 37.7255 39.283 37.1139C39.2043 37.0042 39.0941 36.9258 38.9367 36.9258C38.7951 36.9258 38.6692 37.0042 38.5905 37.1139C38.3229 37.6157 38.0082 38.0861 37.6619 38.5408L37.7249 38.4624C37.6147 38.6035 37.5045 38.729 37.3944 38.8701C37.3314 38.9485 37.2842 39.0426 37.2842 39.1523C37.2842 39.2464 37.3314 39.3562 37.3944 39.4346C37.536 39.5757 37.8036 39.607 37.9452 39.4346H37.9609Z" fill="#231F20"/>
</svg>
