<svg width="80" height="77" viewBox="0 0 80 77" fill="none" xmlns="http://www.w3.org/2000/svg">
<path d="M34.7983 60.5462C32.5634 59.5547 30.8007 57.5087 30.2184 55.1321C29.636 52.7556 30.2498 50.0957 31.8709 48.27C34.1216 45.7361 37.773 45.0751 41.141 44.7288C42.3215 44.6186 43.5648 44.5242 44.6665 44.9649C45.5636 45.3269 46.2876 46.0194 46.9959 46.6804C48.255 47.8766 49.5298 49.1042 50.3639 50.6308C51.5758 52.8657 51.7017 55.6672 50.6787 57.9966C50.3954 58.6261 50.0334 59.2399 49.4983 59.6806C49.0419 60.0426 48.491 60.2787 47.9244 60.4518C46.0358 61.0341 44.0212 61.0971 42.0539 61.1601C39.6144 61.2388 37.1277 61.5693 34.8141 60.5462H34.7983Z" fill="white"/>
<path d="M52.3955 53.544C52.9621 52.2377 52.9779 50.7583 53.2769 49.3575C53.7963 46.981 55.2757 44.5887 57.5421 43.5342C58.7068 42.9833 60.0918 42.9046 61.3666 43.0305C63.0821 43.2037 63.2395 43.1879 62.6572 44.5257C61.8388 46.3671 61.6499 48.0512 61.4768 50.0657C61.3194 51.86 60.9102 53.7958 59.5567 54.992C58.7225 55.7317 57.6051 56.0937 56.8024 56.8806C56.4561 57.2269 56.1728 57.6361 55.8266 57.9823C54.0638 59.7136 50.68 59.2257 49.0432 57.5102C47.9887 56.4085 48.0517 55.8891 49.2321 55.5271C50.68 55.0864 51.6716 55.291 52.427 53.544H52.3955Z" fill="#CDBEAC"/>
<path d="M50.5696 58.9094C50.9001 59.2871 51.388 59.5389 51.8759 59.6334C52.4425 59.7435 53.0091 59.6963 53.5757 59.5704C53.8747 59.4917 54.158 59.413 54.4571 59.3186C54.5987 59.2714 54.7246 59.177 54.8033 59.051C54.882 58.9251 54.9135 58.7363 54.8663 58.5946C54.7719 58.2956 54.4571 58.0752 54.1423 58.1854C53.7016 58.3271 53.2609 58.4687 52.8045 58.5317H52.9619C52.7101 58.5317 52.4583 58.5474 52.2064 58.5317H52.3638C52.1592 58.5317 51.9704 58.4687 51.7815 58.39L51.9231 58.453C51.7815 58.39 51.6556 58.3113 51.5297 58.2326L51.6556 58.3271C51.5769 58.2641 51.4982 58.1854 51.4195 58.1067C51.3251 57.9965 51.1362 57.9336 50.9946 57.9336C50.8529 57.9336 50.6798 57.9965 50.5696 58.1067C50.4594 58.2169 50.3965 58.3743 50.3965 58.5317C50.3965 58.689 50.4594 58.8307 50.5696 58.9566V58.9094Z" fill="#231F20"/>
<path d="M55.2754 57.4301C55.2754 57.4301 55.2912 57.5088 55.3069 57.556C55.3384 57.6347 55.3699 57.7291 55.4171 57.8078C55.4328 57.8393 55.4643 57.8708 55.48 57.918C55.5273 57.9967 55.5902 58.0596 55.6532 58.1383C55.6847 58.1698 55.7161 58.2013 55.7476 58.217C55.8106 58.28 55.8893 58.3272 55.968 58.3744C55.9994 58.3901 56.0466 58.4216 56.0781 58.4374C56.1568 58.4688 56.2355 58.5161 56.3299 58.5318C56.3772 58.5318 56.4244 58.5633 56.4716 58.5633C56.566 58.5633 56.6605 58.5947 56.7706 58.5947C56.8493 58.5947 56.928 58.5947 56.991 58.5475C57.0697 58.5161 57.1326 58.4846 57.1798 58.4216C57.2428 58.3744 57.2743 58.3114 57.3057 58.2328C57.3372 58.1698 57.353 58.0911 57.353 58.0124V57.855C57.3057 57.7606 57.2585 57.6662 57.1798 57.5875L57.0539 57.493C56.9595 57.4458 56.8651 57.4143 56.7549 57.4143C56.7077 57.4143 56.6605 57.4143 56.6132 57.4143H56.7706C56.7706 57.4143 56.6132 57.4143 56.5503 57.3671L56.6919 57.4301C56.6919 57.4301 56.5503 57.3514 56.4873 57.3042L56.6132 57.3986C56.6132 57.3986 56.4873 57.2884 56.4401 57.2255L56.5345 57.3514C56.5345 57.3514 56.4558 57.2255 56.4244 57.1625L56.4873 57.3042C56.4873 57.3042 56.4559 57.2097 56.4401 57.1468C56.4244 57.0681 56.3929 57.0051 56.3299 56.9422C56.2827 56.8792 56.2355 56.832 56.1568 56.7848C56.0939 56.7376 56.0152 56.7218 55.9365 56.7218C55.8578 56.7061 55.7791 56.7218 55.7004 56.7218L55.5587 56.7848C55.4643 56.832 55.4014 56.9107 55.3541 56.9894L55.2912 57.131C55.2597 57.2412 55.2597 57.3356 55.2912 57.4458L55.2754 57.4301Z" fill="#231F20"/>
<path d="M57.5261 56.8482C59.1787 56.077 60.4535 54.5818 61.2247 52.945C61.6654 51.9692 61.9802 50.9462 62.1691 49.8917C62.3579 48.8372 62.4366 47.7355 62.5625 46.6495C62.6727 45.6737 62.9403 44.572 63.8531 44.0526C64.5141 43.6749 63.9161 42.6519 63.255 43.0296C61.3034 44.1313 61.4293 46.5866 61.1933 48.5224C60.9572 50.4583 60.4221 52.4256 59.2102 53.968C58.5964 54.755 57.8252 55.3845 56.9281 55.8095C56.6448 55.9511 56.5661 56.3603 56.7235 56.6121C56.8966 56.9112 57.2428 56.9584 57.5261 56.8167V56.8482Z" fill="#231F20"/>
<path d="M51.4035 55.4627C52.1904 55.1479 52.8042 54.5498 53.1662 53.7787C53.5754 52.913 53.6699 51.9687 53.7485 51.0086C53.9059 49.2616 54.2207 47.4989 55.2595 46.0352C55.7631 45.327 56.4241 44.7761 57.1953 44.3984C57.4786 44.2567 57.5573 43.8475 57.3999 43.5957C57.2268 43.2967 56.8806 43.2494 56.5973 43.3911C55.0706 44.1151 54.0161 45.5001 53.3866 47.0267C53.0403 47.8766 52.8357 48.758 52.7098 49.6551C52.5839 50.5522 52.5839 51.5123 52.3793 52.4094C52.2061 53.1491 51.8442 54.0147 51.0887 54.3138C50.7897 54.4397 50.5851 54.7072 50.6795 55.0378C50.7582 55.3211 51.1044 55.5729 51.4035 55.447V55.4627Z" fill="#231F20"/>
<path d="M58.8172 43.612C59.1791 43.4861 59.5411 43.4074 59.9189 43.3602H59.7615C60.2966 43.313 60.8317 43.313 61.3668 43.3759H61.2094C61.6973 43.4231 62.1695 43.5491 62.6259 43.7222C62.7518 43.7694 62.9565 43.7222 63.0824 43.6592C63.2083 43.5963 63.3184 43.4546 63.3499 43.313C63.3814 43.1556 63.3814 42.9982 63.287 42.8566C63.1925 42.7149 63.0824 42.6519 62.9407 42.589C61.54 42.0381 59.9346 42.0067 58.5181 42.4788C58.2191 42.5733 57.9987 42.888 58.1089 43.2028C58.2033 43.4861 58.5181 43.7222 58.8329 43.612H58.8172Z" fill="#231F20"/>
<path d="M33.98 60.013C31.7451 59.0215 29.9823 56.9755 29.4 54.5989C28.8177 52.2224 29.4315 49.5625 31.0526 47.7368C33.3032 45.2029 36.9546 44.5419 40.3227 44.1956C41.5031 44.0854 42.7465 43.991 43.8482 44.4317C44.7453 44.7937 45.4693 45.4862 46.1775 46.1472C47.4366 47.3434 48.7114 48.571 49.5456 50.0976C50.7575 52.3325 50.8834 55.134 49.8604 57.4634C49.5771 58.0929 49.2151 58.7067 48.68 59.1474C48.2235 59.5094 47.6727 59.7455 47.1061 59.9186C45.2174 60.5009 43.2029 60.5639 41.2355 60.6269C38.796 60.7055 36.3093 61.0361 33.9957 60.013H33.98Z" fill="white"/>
<path d="M30.7548 52.6772C27.308 52.5041 30.8335 59.0199 31.9981 58.7366C32.9267 58.5163 33.7609 58.0284 33.9655 57.0211C34.296 55.3213 33.1628 53.1651 31.4001 52.7716C31.164 52.7244 30.9594 52.693 30.7548 52.6772Z" fill="#CDBEAC"/>
<path d="M48.3185 52.3792C46.2253 52.7569 45.2809 56.2194 45.7531 57.8405C46.1938 59.3829 48.1926 59.0682 49.2471 58.5016C51.0885 57.51 51.2774 52.6782 49.0268 52.3635C48.7749 52.332 48.5546 52.332 48.3343 52.3635L48.3185 52.3792Z" fill="#CDBEAC"/>
<path d="M29.2751 43.7547C28.74 44.5731 28.2993 45.486 28.2521 46.4618C28.1104 48.9328 30.5027 50.9001 32.9265 51.4195C32.9265 51.1519 32.9265 50.8686 32.9108 50.6011C35.7909 51.0575 38.3721 53.0878 39.4895 55.7791C40.0561 54.158 41.2838 52.773 42.8262 51.9861C44.2584 51.2621 45.9896 51.026 47.1071 49.8928C46.9969 50.1447 47.2802 50.4437 47.5635 50.428C47.8468 50.4122 48.0829 50.2234 48.3032 50.0502C49.8614 48.7282 51.5454 47.1228 51.5139 45.0768C51.5139 44.3371 51.2464 43.6131 50.8687 42.9678C49.0587 39.82 44.9666 38.9702 41.3625 38.5767C36.3733 38.0416 32.1081 39.4108 29.2908 43.7862L29.2751 43.7547Z" fill="white"/>
<path d="M33.1934 56.0452C33.2248 57.021 33.3193 58.0125 33.5239 58.9569C33.697 59.791 34.1062 60.6409 34.9089 61.0344C35.3338 61.239 35.7745 61.3177 36.2309 61.3334C36.6559 61.3334 37.128 61.3019 37.5373 61.2075C38.0252 61.0973 38.4501 60.7983 38.6862 60.3576C38.8908 59.9799 38.9852 59.5549 39.0482 59.13C39.2213 58.0283 39.2685 56.9108 39.1426 55.7934C39.1269 55.636 39.0954 55.4943 38.9695 55.3684C38.8593 55.2583 38.7019 55.1953 38.5445 55.1953C38.2612 55.1953 37.915 55.4629 37.9465 55.7934C38.0409 56.6748 38.0409 57.5561 37.9465 58.4375C37.9465 58.5004 37.9465 58.5477 37.9307 58.6106C37.9307 58.6421 37.9307 58.6578 37.9307 58.6893C37.9307 58.5791 37.9307 58.7837 37.9307 58.6893C37.915 58.7995 37.8992 58.9097 37.8835 59.0198C37.852 59.193 37.8205 59.3818 37.7733 59.5549C37.7733 59.6022 37.7419 59.6336 37.7261 59.6809C37.7261 59.6966 37.7261 59.7123 37.7104 59.7281C37.6946 59.791 37.7419 59.6651 37.7419 59.6651C37.7104 59.6966 37.7104 59.7438 37.6946 59.7753C37.6789 59.8225 37.6474 59.854 37.6159 59.9012C37.6159 59.9012 37.6002 59.9327 37.5845 59.9484C37.5845 59.9484 37.6632 59.854 37.6159 59.9012C37.5845 59.9327 37.553 59.9641 37.5215 59.9956C37.6002 59.9484 37.5215 59.9956 37.5058 59.9956C37.4743 60.0114 37.3956 60.0428 37.3799 60.0586C37.4113 60.0114 37.4743 60.0271 37.4113 60.0586C37.3956 60.0586 37.3799 60.0586 37.3484 60.0743C37.3012 60.0743 37.254 60.1058 37.2067 60.1058C37.1595 60.1058 37.128 60.1215 37.0808 60.1373C37.0493 60.1373 37.0336 60.1373 37.0021 60.1373C36.9234 60.1373 37.0021 60.1373 37.0336 60.1373C36.9549 60.1688 36.8447 60.153 36.7661 60.1688C36.6716 60.1688 36.5929 60.1688 36.4985 60.1845C36.3254 60.1845 36.1365 60.1845 35.9634 60.1845C35.9476 60.1845 35.9319 60.1845 35.9004 60.1845C35.8375 60.1845 35.9634 60.1845 35.9634 60.1845C35.9162 60.1845 35.8689 60.1845 35.8375 60.1688C35.743 60.153 35.6486 60.1215 35.5699 60.0901C35.5384 60.0901 35.507 60.0586 35.4597 60.0586C35.4597 60.0586 35.5856 60.1215 35.4912 60.0586C35.4755 60.0586 35.4597 60.0428 35.444 60.0271C35.3653 59.9799 35.2866 59.9327 35.2237 59.8855C35.1607 59.8382 35.3023 59.9642 35.2551 59.9012C35.2551 59.9012 35.2237 59.8697 35.2079 59.8697C35.1764 59.8382 35.145 59.8068 35.1135 59.7753C35.082 59.7438 35.0663 59.7281 35.0348 59.6966C34.9718 59.6179 35.0348 59.6809 35.0348 59.6966C34.9876 59.6336 34.9561 59.5707 34.9089 59.492C34.8931 59.4605 34.8617 59.4133 34.8459 59.3818C34.8459 59.3661 34.8459 59.3503 34.8302 59.3346C34.9089 59.4605 34.8617 59.3976 34.8302 59.3503C34.7672 59.193 34.72 59.0198 34.6728 58.8467C34.6256 58.6421 34.5941 58.4532 34.5626 58.2486C34.5469 58.1227 34.5312 58.0125 34.5154 57.8866C34.5154 57.8709 34.4997 57.7607 34.5154 57.8394C34.5312 57.9181 34.5154 57.8079 34.5154 57.7922C34.5154 57.7293 34.4997 57.6663 34.4997 57.6033C34.4367 57.0997 34.4052 56.5961 34.3895 56.0767C34.3895 55.7619 34.1219 55.4786 33.7914 55.4786C33.4609 55.4786 33.1934 55.7304 33.1934 56.0767V56.0452Z" fill="#231F20"/>
<path d="M45.359 56.0453C45.359 56.5017 45.3118 56.9424 45.2646 57.3988C45.2646 57.509 45.2488 57.6034 45.2331 57.7136C45.2331 57.7451 45.2331 57.7608 45.2331 57.7923C45.2331 57.8553 45.2174 57.9182 45.2016 57.9812C45.1701 58.17 45.1387 58.3589 45.1072 58.5635C45.0757 58.7366 45.0285 58.9098 44.9813 59.0829C44.9498 59.1616 44.9341 59.2403 44.9026 59.319L44.8711 59.3819C44.8711 59.3819 44.9183 59.2718 44.8868 59.319C44.8711 59.3662 44.8396 59.4134 44.8239 59.4449C44.7924 59.5078 44.7452 59.5865 44.698 59.6495C44.698 59.6652 44.6665 59.6967 44.6508 59.7124C44.6508 59.7124 44.7295 59.618 44.6822 59.6652C44.6508 59.6967 44.6193 59.7439 44.5878 59.7754C44.5563 59.8069 44.5406 59.8226 44.5091 59.8541C44.4934 59.8698 44.4776 59.8856 44.4462 59.9013C44.3989 59.9485 44.4934 59.8698 44.4934 59.8698C44.4147 59.9013 44.3517 59.9643 44.273 60.0115C44.2573 60.0115 44.1156 60.0902 44.2101 60.043C44.2888 60.0115 44.1629 60.043 44.1471 60.0587C44.0684 60.0902 43.974 60.1059 43.8953 60.1216C43.8481 60.1216 43.8009 60.1216 43.7694 60.1374C43.7064 60.1374 43.8323 60.1374 43.8323 60.1374H43.7536C43.6592 60.1374 43.5805 60.1374 43.4861 60.1374C43.2972 60.1374 43.1241 60.1374 42.9352 60.1216C42.8565 60.1216 42.7621 60.1059 42.6834 60.0902C42.6205 60.0902 42.7464 60.0902 42.7464 60.0902C42.7149 60.0902 42.6834 60.0902 42.6677 60.0902C42.6205 60.0902 42.5575 60.0744 42.5103 60.0587C42.4631 60.0587 42.4316 60.043 42.3844 60.0272C42.3529 60.0272 42.3372 60.0115 42.3057 59.9957C42.2899 59.9957 42.2585 59.9643 42.2427 59.9485C42.227 59.9485 42.2113 59.9328 42.1955 59.917C42.1326 59.8856 42.2742 59.9957 42.227 59.9485C42.1955 59.917 42.164 59.8856 42.1326 59.8541C42.0853 59.7911 42.0539 59.7124 42.0067 59.6337C41.9752 59.5708 42.0381 59.6967 42.0381 59.6967C42.0381 59.681 42.0224 59.6495 42.0067 59.6337C42.0067 59.6023 41.9909 59.5708 41.9752 59.5236C41.9437 59.4291 41.928 59.3505 41.9122 59.256C41.865 59.0514 41.8335 58.8468 41.802 58.6422C41.802 58.5792 41.802 58.6737 41.802 58.6737C41.802 58.6422 41.802 58.6107 41.802 58.5793C41.802 58.5163 41.802 58.4533 41.7863 58.3904C41.7863 58.2645 41.7548 58.1386 41.7548 58.0127C41.7391 57.7608 41.7234 57.5248 41.7234 57.2729C41.7234 56.7693 41.7391 56.2657 41.802 55.7778C41.8335 55.463 41.503 55.1797 41.204 55.1797C40.8577 55.1797 40.6531 55.4472 40.6059 55.7778C40.4957 56.7378 40.5115 57.6979 40.6374 58.6579C40.7633 59.618 40.9049 60.6725 41.8807 61.0817C42.3057 61.2548 42.7778 61.3021 43.2185 61.3178C43.6435 61.3335 44.0842 61.3178 44.4934 61.1761C44.9183 61.0345 45.3118 60.7984 45.5951 60.4364C45.8784 60.0744 46.0672 59.6652 46.1774 59.2403C46.3191 58.7366 46.382 58.2015 46.445 57.6821C46.5079 57.1313 46.5551 56.5962 46.5709 56.0453C46.5709 55.7305 46.2876 55.4472 45.9728 55.4472C45.6423 55.4472 45.3905 55.6991 45.3747 56.0453H45.359Z" fill="#231F20"/>
<path d="M35.2236 59.1767C35.2236 59.2868 35.2236 59.397 35.2551 59.5229C35.2551 59.6016 35.2866 59.6803 35.3023 59.759C35.3338 59.8692 35.381 59.9793 35.4282 60.0738C35.4597 60.1525 35.5069 60.2154 35.5541 60.2941C35.5856 60.3413 35.6171 60.3728 35.6486 60.4043C35.6801 60.4358 35.7273 60.4672 35.7902 60.4672C35.8374 60.483 35.9004 60.483 35.9476 60.4672C35.9948 60.4672 36.042 60.4515 36.0893 60.42C36.168 60.3728 36.2467 60.2784 36.2624 60.184C36.2781 60.0895 36.2781 59.9636 36.2152 59.8849C36.1522 59.8062 36.105 59.7118 36.0735 59.6174L36.1207 59.7118C36.0578 59.5859 36.0263 59.4442 36.0106 59.3026V59.4128C36.0106 59.4128 36.0106 59.2554 36.0106 59.1767C36.0106 59.1295 36.0106 59.0665 35.9791 59.0193C35.9634 58.9721 35.9319 58.9249 35.9004 58.8934C35.8689 58.8619 35.8217 58.8304 35.7745 58.8147C35.7273 58.7832 35.6801 58.7832 35.6171 58.7832C35.5227 58.7832 35.4125 58.8147 35.3338 58.8934C35.2551 58.9721 35.2236 59.0665 35.2236 59.1767Z" fill="#231F20"/>
<path d="M36.5138 59.5543L36.6555 60.3412C36.6555 60.3412 36.687 60.4357 36.7184 60.4829C36.7499 60.5301 36.7814 60.5616 36.8286 60.5773C36.8758 60.6088 36.923 60.6245 36.9703 60.6245C37.0175 60.6245 37.0804 60.6245 37.1276 60.6245L37.2221 60.5773C37.2221 60.5773 37.3322 60.4986 37.3637 60.4357L37.4109 60.3412C37.4109 60.3412 37.4267 60.1996 37.4109 60.1366L37.2693 59.3497C37.2693 59.3497 37.2378 59.2553 37.2063 59.2081C37.1749 59.1608 37.1434 59.1294 37.0962 59.1136C37.0489 59.0821 37.0017 59.0664 36.9545 59.0664C36.9073 59.0664 36.8443 59.0664 36.7971 59.0664L36.7027 59.1136C36.7027 59.1136 36.5925 59.1923 36.561 59.2553L36.5138 59.3497C36.5138 59.3497 36.4981 59.4914 36.5138 59.5543Z" fill="#231F20"/>
<path d="M42.4164 59.0831C42.3849 59.1932 42.3691 59.3034 42.3691 59.4136C42.3691 59.4923 42.3691 59.571 42.3691 59.6654C42.3691 59.7756 42.4006 59.8857 42.4321 59.9959C42.4636 60.1061 42.5108 60.2162 42.558 60.3107C42.5895 60.3579 42.621 60.3894 42.6524 60.4208C42.6839 60.4523 42.7311 60.4838 42.7941 60.4838C42.8413 60.4995 42.9043 60.4995 42.9515 60.4838C42.9987 60.4838 43.0459 60.4681 43.0931 60.4366C43.1718 60.3894 43.2505 60.2949 43.2662 60.2005V60.0903C43.2662 60.0903 43.2662 59.9487 43.219 59.8857C43.219 59.87 43.2033 59.8543 43.1876 59.8228L43.2348 59.9172C43.1876 59.807 43.1561 59.6969 43.1403 59.571V59.6811C43.1403 59.5552 43.1403 59.445 43.1403 59.3191V59.4293C43.1403 59.4293 43.1403 59.3191 43.1561 59.2719C43.1718 59.2247 43.1718 59.1618 43.1561 59.1145C43.1561 59.0673 43.1403 59.0201 43.1089 58.9729C43.0774 58.9257 43.0459 58.8942 43.0144 58.8627C42.983 58.8312 42.9357 58.7998 42.8728 58.7998C42.7783 58.784 42.6524 58.784 42.5737 58.847C42.495 58.9099 42.4164 58.9886 42.4006 59.0831H42.4164Z" fill="#231F20"/>
<path d="M43.7066 59.4138C43.7066 59.4138 43.7224 59.5082 43.7381 59.5397V59.4295C43.7381 59.5554 43.7381 59.6814 43.7381 59.7915V59.6814C43.7381 59.8073 43.7066 59.9174 43.6594 60.0276L43.7066 59.9332C43.7066 59.9332 43.6909 59.9804 43.6751 59.9961C43.6437 60.0433 43.6279 60.0906 43.6279 60.1378C43.6279 60.185 43.6279 60.248 43.6279 60.2952C43.6279 60.3424 43.6594 60.3896 43.6909 60.4368C43.7224 60.484 43.7538 60.5155 43.8011 60.5312C43.8955 60.5785 44.0057 60.6099 44.1001 60.5785C44.1945 60.547 44.289 60.484 44.3362 60.4053C44.3834 60.3109 44.4306 60.2007 44.4621 60.0906C44.4936 59.9804 44.5093 59.8702 44.525 59.76C44.525 59.6814 44.525 59.6027 44.525 59.524C44.525 59.4138 44.5093 59.3036 44.4778 59.1935C44.4778 59.1462 44.4463 59.099 44.4149 59.0518C44.3834 59.0046 44.3519 58.9731 44.3047 58.9574C44.2575 58.9259 44.2103 58.9102 44.163 58.9102C44.1158 58.9102 44.0529 58.9102 44.0057 58.9102C43.9112 58.9416 43.8168 59.0046 43.7696 59.0833L43.7224 59.1777C43.7224 59.1777 43.7066 59.3194 43.7224 59.3823L43.7066 59.4138Z" fill="#231F20"/>
<path d="M34.8302 38.3717C32.3278 39.2216 29.967 40.7954 28.5819 43.0933C28.0783 43.9432 27.7163 44.8875 27.6534 45.8791C27.5747 47.1067 28.0311 48.413 28.6606 49.436C29.4791 50.7423 30.7382 51.7653 32.2491 52.0959C32.9888 52.2532 33.3036 51.1201 32.5638 50.9627C30.4076 50.4905 28.7865 48.2399 28.818 46.0522C28.818 45.6745 28.8652 45.4384 28.9912 45.0134C29.1171 44.5885 29.2587 44.2894 29.4791 43.8802C29.9827 42.9831 30.6595 42.2277 31.4464 41.5666C32.5166 40.6538 33.8072 39.977 35.145 39.5206C35.8532 39.2845 35.5542 38.1356 34.8302 38.3874V38.3717Z" fill="#231F20"/>
<path d="M32.6898 49.1683C32.5954 50.207 33.4138 51.1199 34.2951 51.5606C34.783 51.7966 35.3024 51.954 35.8218 52.1272C35.9477 52.1586 36.0579 52.2058 36.1838 52.2531C36.2467 52.2688 36.294 52.3003 36.3412 52.316C36.3727 52.316 36.3884 52.3318 36.4199 52.3475C36.294 52.2845 36.4828 52.379 36.4199 52.3475C36.6245 52.4419 36.8133 52.5364 36.9865 52.6623C37.0022 52.6623 37.0337 52.6937 37.0494 52.7095C37.0652 52.7095 37.1439 52.7882 37.0809 52.7252C37.1124 52.741 37.1439 52.7724 37.1596 52.8039C37.2383 52.8826 37.317 52.9613 37.3957 53.0557C37.4586 53.1344 37.3799 53.0243 37.3642 53.0243C37.3642 53.0557 37.4114 53.0872 37.4272 53.1187C37.4586 53.1659 37.4901 53.2131 37.5216 53.2761C37.5216 53.2918 37.5373 53.3233 37.5531 53.339C37.6003 53.4335 37.5216 53.2446 37.5531 53.3076C37.5688 53.3705 37.6003 53.4335 37.616 53.4964C37.6947 53.7955 38.041 54.0001 38.34 53.9056C38.639 53.8112 38.8279 53.4964 38.7492 53.1816C38.4974 52.1744 37.5845 51.5606 36.6717 51.1986C36.1995 51.0097 35.7274 50.8995 35.2552 50.7264C35.208 50.7107 35.145 50.6792 35.0978 50.6634C34.9876 50.6162 35.1136 50.6634 35.1136 50.6634C35.1136 50.6634 35.0506 50.632 35.0349 50.632C34.9247 50.5848 34.7988 50.5218 34.6886 50.4588C34.6099 50.4116 34.5155 50.3487 34.4368 50.3015C34.3424 50.2385 34.4683 50.3172 34.4683 50.3172C34.4683 50.3172 34.4053 50.27 34.3896 50.2542C34.3424 50.2228 34.3109 50.1755 34.2637 50.1441C34.2165 50.0969 34.1692 50.0496 34.1378 50.0024C34.1378 49.9867 34.1063 49.9552 34.0905 49.9395C34.122 49.9867 34.185 50.0339 34.0905 49.9395C34.0276 49.845 33.9804 49.7506 33.9174 49.6562C33.8545 49.546 33.9489 49.7663 33.9174 49.6876C33.9174 49.6562 33.9017 49.6247 33.8859 49.609C33.8702 49.546 33.8545 49.4988 33.8387 49.4358C33.823 49.3729 33.8545 49.3886 33.8387 49.483C33.8387 49.4516 33.8387 49.4044 33.8387 49.3729C33.8387 49.3099 33.8387 49.247 33.8387 49.184C33.8702 48.8692 33.5554 48.5859 33.2407 48.5859C32.8944 48.5859 32.6741 48.8535 32.6426 49.184L32.6898 49.1683Z" fill="#231F20"/>
<path d="M41.0152 54.2676C41.1884 54.0473 41.393 53.8427 41.5976 53.6538C41.6448 53.6066 41.7077 53.5594 41.755 53.5121C41.7864 53.4964 41.8179 53.4649 41.8336 53.4492C41.9438 53.3705 42.0697 53.2918 42.1799 53.2131C42.416 53.0557 42.6678 52.9298 42.9196 52.8039C43.0455 52.7409 43.1557 52.6937 43.2816 52.6308C43.3446 52.5993 43.4075 52.5678 43.4862 52.5363C43.4075 52.5678 43.5649 52.5049 43.4862 52.5363C43.5334 52.5206 43.5649 52.5049 43.6121 52.4891C44.7768 52.017 46.1146 51.7337 47.0746 50.868C47.6255 50.3644 47.9875 49.6719 48.0032 48.9164C48.0032 48.6017 47.7357 48.3184 47.4052 48.3184C47.0746 48.3184 46.8228 48.5702 46.8071 48.9164C46.8071 48.9479 46.7913 49.1525 46.8071 49.0266C46.8071 49.0896 46.7913 49.1525 46.7756 49.1997C46.7599 49.2469 46.7441 49.3099 46.7127 49.3729C46.6812 49.483 46.7127 49.4043 46.7127 49.3729C46.6969 49.4201 46.6812 49.4515 46.6497 49.4988C46.6182 49.546 46.5867 49.6089 46.5553 49.6561C46.5395 49.6876 46.5081 49.7191 46.4923 49.7506C46.4923 49.7348 46.5553 49.6719 46.4923 49.7506C46.3979 49.8608 46.3035 49.9709 46.1933 50.0654C46.1618 50.0811 46.1461 50.1126 46.1146 50.1283C46.0516 50.1755 46.0044 50.207 45.9415 50.2385C45.8155 50.3172 45.6739 50.3959 45.5323 50.4746C45.4536 50.506 45.3906 50.5375 45.3119 50.569C45.2804 50.5847 45.2332 50.6005 45.2017 50.6162C45.0601 50.6792 44.9027 50.7264 44.7453 50.7893C43.6751 51.1828 42.5734 51.5448 41.5976 52.1586C41.0467 52.5049 40.5273 52.9141 40.1339 53.4177C39.945 53.6538 39.882 54.0158 40.1339 54.2519C40.3542 54.4565 40.7634 54.5037 40.968 54.2519L41.0152 54.2676Z" fill="#231F20"/>
<path d="M48.8218 50.6792C50.7104 49.3886 52.4889 47.3898 52.426 44.9661C52.363 42.5423 50.4901 40.6064 48.3968 39.5991C47.059 38.9539 45.6268 38.5761 44.1946 38.2299C43.4549 38.041 43.1401 39.1899 43.8798 39.3631C46.0045 39.8982 48.3024 40.449 49.8763 42.0701C50.553 42.7626 51.0724 43.644 51.2141 44.6198C51.3557 45.5956 51.0724 46.477 50.6003 47.2639C50.0179 48.2397 49.168 49.0267 48.2237 49.6562C47.9561 49.8293 47.846 50.1756 48.0191 50.4589C48.1765 50.7264 48.5542 50.8523 48.8218 50.6635V50.6792Z" fill="#231F20"/>
<path d="M28.7553 50.6957C28.4091 53.5602 28.6137 56.7237 30.7384 58.9113C31.242 59.4307 31.8401 59.8714 32.5169 60.1547C32.8159 60.2806 33.1464 60.2491 33.3195 59.9501C33.4612 59.6983 33.3982 59.2733 33.1149 59.1474C32.0447 58.691 31.2735 57.9198 30.7227 56.9125C30.1088 55.8108 29.8413 54.5045 29.8098 53.1982C29.7941 52.364 29.857 51.5299 29.9515 50.6957C29.9829 50.381 29.6524 50.0977 29.3534 50.0977C29.0071 50.0977 28.8025 50.3652 28.7553 50.6957Z" fill="#231F20"/>
<path d="M47.4693 60.0445C48.9645 59.8084 50.1449 58.7539 50.7115 57.3846C50.9791 56.7236 51.1364 56.0311 51.2309 55.3229C51.341 54.5674 51.404 53.812 51.3568 53.0565C51.2938 52.1751 51.0892 51.3252 50.68 50.554C50.5226 50.2707 50.1449 50.192 49.8773 50.3494C49.594 50.5226 49.5154 50.8688 49.6727 51.1521C50.2708 52.2696 50.2866 53.5916 50.1292 54.8507C49.9875 55.9996 49.7042 57.306 48.8543 58.1244C48.3979 58.5651 47.8313 58.8169 47.1703 58.9113C46.8555 58.9585 46.6824 59.352 46.7611 59.6353C46.8555 59.9658 47.1703 60.0917 47.4851 60.0445H47.4693Z" fill="#231F20"/>
<path d="M23.0261 31.3508C22.7742 32.846 22.4122 34.3569 21.6725 35.6475C21.1374 36.5604 20.4764 36.8279 20.8226 37.8509C21.043 38.4805 21.9716 38.5592 22.1919 39.1415C22.5854 40.1803 21.6096 40.5423 21.4522 41.4866C21.3735 41.9587 21.6725 42.5253 22.1447 42.5411C22.4595 42.5411 22.8214 42.3522 23.0418 42.5726C23.2307 42.7772 23.0733 43.1392 23.2149 43.391C23.3566 43.6743 23.7343 43.6743 24.0491 43.69C25.2452 43.7687 26.221 44.6343 27.3227 45.0908C29.778 46.1138 32.6424 45.0908 35.2393 45.7046C36.1679 45.9249 37.0335 46.3656 37.9621 46.5859C39.1268 46.8535 40.3387 46.7905 41.5348 46.7118C43.3448 46.6017 45.139 46.5859 46.886 46.098C48.633 45.6101 49.9708 45.736 51.6863 45.5314C53.9212 45.2639 55.6525 43.8002 57.7614 43.2021C57.7929 42.8401 57.8087 42.4624 57.8401 42.1004C59.9334 43.0447 59.1622 40.5108 59.0992 39.8183C59.0363 39.0786 58.7845 39.4405 59.0992 38.7008C59.3353 38.1342 60.4056 38.2287 60.4842 37.4103C60.5315 36.9381 60.2796 36.4817 59.9649 36.1197C57.9503 33.7746 57.8244 31.0675 57.3365 28.0457C57.305 27.8883 57.2893 27.7152 57.3208 27.5421C57.3522 27.3532 57.4781 27.1801 57.5883 27.0227C59.6501 24.0166 59.5399 19.1218 59.3196 15.5806C59.0992 11.9135 51.9853 15.9426 50.3485 17.1073C49.4357 17.7526 48.3339 19.3579 47.3267 19.6884C46.2407 20.0504 43.6438 19.1218 42.4791 18.9487C39.8822 18.5552 37.0965 18.1775 34.7042 19.3107C34.295 19.4996 33.87 19.7514 33.4136 19.7042C32.8313 19.6412 32.4378 18.6182 32.0286 18.209C29.6678 15.8954 26.5515 14.3687 23.2779 13.9438C22.9316 13.8966 22.5539 13.8651 22.2234 13.991C21.5466 14.2586 21.5781 15.0612 21.5623 15.6593C21.405 19.2163 21.9243 22.8047 23.0733 26.1728C23.2307 26.645 23.4038 27.1014 23.4667 27.5893C23.5297 28.1401 23.4667 28.7067 23.388 29.2576C23.2936 29.9344 23.1992 30.6426 23.089 31.3508H23.0261Z" fill="#CDBEAC"/>
<path d="M28.5658 20.223C28.1881 19.7351 27.6844 19.3102 27.1808 18.9324C26.2522 18.2399 25.1977 17.6261 24.1275 17.2012C23.5609 18.5075 23.6553 20.1443 23.8914 21.4821C24.1275 22.8829 24.521 24.3151 25.182 25.5742C25.3708 25.4483 25.544 25.3224 25.7171 25.1807C26.2365 24.7715 26.7244 24.3151 27.1808 23.8429C27.6215 23.3865 28.0307 22.9301 28.3927 22.4107C28.676 22.0172 28.9121 21.6552 28.9908 21.246C28.9908 21.1988 28.9908 21.1359 28.9908 21.1044C28.9908 21.1516 28.9435 20.8998 28.9278 20.8526C28.8491 20.6322 28.7075 20.3961 28.5501 20.2073L28.5658 20.223Z" fill="white"/>
<path d="M53.3073 19.5008C52.4259 20.3664 51.576 21.3737 51.0566 22.5226C51.8751 23.0892 52.5676 23.7974 53.2758 24.4742C53.5906 24.7732 53.8896 25.0565 54.2044 25.2454C54.2831 25.2926 54.3775 25.3556 54.4719 25.387C54.5192 25.387 54.5664 25.4185 54.5979 25.4185C54.6293 25.4185 54.6293 25.4185 54.6293 25.4185C54.6293 25.4185 54.6451 25.4185 54.6766 25.4185C54.708 25.4185 54.7238 25.4185 54.7395 25.4028C54.771 25.387 54.8339 25.3398 54.8497 25.3398C54.8497 25.3398 54.9126 25.2926 54.9756 25.2139C55.1172 25.0408 55.2431 24.8362 55.3376 24.6316C55.5894 24.1437 55.7783 23.6086 55.9199 23.0734C56.2662 21.8616 56.455 20.6025 56.455 19.3276C56.455 18.6351 56.3921 17.9111 56.2504 17.2344C55.1487 17.7852 54.1414 18.6194 53.2915 19.4693L53.3073 19.5008Z" fill="white"/>
<path d="M44.6977 36.7501C44.194 36.3882 43.7376 35.9475 43.3914 35.3651C42.5572 33.9172 42.0536 29.2585 39.74 29.6992C37.5838 30.1084 37.8671 33.8542 36.907 35.3966C35.4905 37.6945 32.5631 38.2611 31.0364 40.2441C30.2967 41.1885 29.8718 42.4318 30.1708 43.5808C30.8161 46.0517 33.3973 45.2648 35.223 45.7055C36.1515 45.9258 37.0172 46.3665 37.9458 46.5869C39.1104 46.8544 40.3223 46.7915 41.5184 46.7128C45.2485 46.4767 52.0004 46.1776 49.9229 40.9052C48.9314 38.387 46.4604 37.9935 44.6977 36.7344V36.7501Z" fill="white"/>
<path d="M32.9095 36.1509C34.2741 36.1509 35.3804 35.0447 35.3804 33.68C35.3804 32.3153 34.2741 31.209 32.9095 31.209C31.5448 31.209 30.4385 32.3153 30.4385 33.68C30.4385 35.0447 31.5448 36.1509 32.9095 36.1509Z" fill="#3EB8EA"/>
<path d="M47.8462 36.1827C49.2283 36.1827 50.3487 35.0623 50.3487 33.6802C50.3487 32.2981 49.2283 31.1777 47.8462 31.1777C46.4641 31.1777 45.3438 32.2981 45.3438 33.6802C45.3438 35.0623 46.4641 36.1827 47.8462 36.1827Z" fill="#3EB8EA"/>
<path d="M32.9088 35.2552C33.7781 35.2552 34.4827 34.5505 34.4827 33.6813C34.4827 32.8121 33.7781 32.1074 32.9088 32.1074C32.0396 32.1074 31.335 32.8121 31.335 33.6813C31.335 34.5505 32.0396 35.2552 32.9088 35.2552Z" fill="#231F20"/>
<path d="M47.8454 35.2552C48.7146 35.2552 49.4192 34.5505 49.4192 33.6813C49.4192 32.8121 48.7146 32.1074 47.8454 32.1074C46.9761 32.1074 46.2715 32.8121 46.2715 33.6813C46.2715 34.5505 46.9761 35.2552 47.8454 35.2552Z" fill="#231F20"/>
<path d="M39.9761 36.3565C40.7584 36.3565 41.3925 35.9619 41.3925 35.4751C41.3925 34.9884 40.7584 34.5938 39.9761 34.5938C39.1938 34.5938 38.5596 34.9884 38.5596 35.4751C38.5596 35.9619 39.1938 36.3565 39.9761 36.3565Z" fill="#231F20"/>
<path d="M23.4192 26.8662C22.4592 23.624 22.0185 20.2559 22.1287 16.8721C22.1287 16.4629 22.1601 16.0537 22.1916 15.6445C22.1916 15.4399 22.1916 14.8103 22.3175 14.6844C22.5064 14.5113 23.0415 14.6057 23.2619 14.6372C23.6711 14.6844 24.0803 14.7789 24.458 14.9048C25.8745 15.3769 27.2752 16.1009 28.5658 16.8564C30.0295 17.6905 31.3988 18.6978 32.5005 19.9726C33.0041 20.555 33.8383 19.7051 33.3346 19.1385C32.2329 17.8794 30.8794 16.8564 29.4472 16.0065C28.015 15.1566 26.4568 14.3539 24.8829 13.8188C24.0488 13.5355 23.1045 13.3309 22.2074 13.4883C21.2158 13.6614 21.0742 14.5743 21.0112 15.4084C20.8696 17.2813 20.8853 19.17 21.0742 21.0271C21.2788 23.1046 21.6722 25.1664 22.2703 27.181C22.4907 27.905 23.6238 27.6059 23.4035 26.8662H23.4192Z" fill="#231F20"/>
<path d="M24.6784 17.9878C25.0247 18.2239 25.3552 18.46 25.7015 18.7118C25.8588 18.8219 26.0162 18.9321 26.1736 19.058C26.2523 19.121 26.331 19.1682 26.4097 19.2312C26.4412 19.2626 26.5513 19.3571 26.4412 19.2469C26.4884 19.2784 26.5199 19.3098 26.5671 19.3413C27.1652 19.8135 27.7318 20.3329 28.2197 20.9152C28.2511 20.9624 28.2826 20.9939 28.3141 21.0411C28.377 21.1198 28.2983 21.0096 28.2826 21.0096C28.2826 21.0411 28.3141 21.0568 28.3298 21.0726C28.3928 21.1513 28.4557 21.2457 28.5187 21.3401C28.6446 21.529 28.7548 21.7179 28.8649 21.9067C29.0066 22.1743 29.4158 22.2845 29.6676 22.1113C29.9509 21.9382 30.0296 21.592 29.8722 21.3087C29.0853 19.8292 27.7632 18.759 26.4412 17.7989C26.0634 17.5156 25.67 17.2481 25.2765 16.9648C25.0247 16.7917 24.6155 16.9176 24.4738 17.1694C24.3164 17.4684 24.4109 17.7832 24.6784 17.9721V17.9878Z" fill="#231F20"/>
<path d="M26.9457 24.9614V24.9299C26.9457 24.9299 26.8985 25.0086 26.867 25.0558C27.3549 24.4263 27.9373 23.8597 28.5668 23.3561L28.4409 23.4505C29.0547 22.9783 29.7158 22.5849 30.424 22.2701C30.5499 22.2071 30.6601 22.0497 30.6916 21.9238C30.723 21.7822 30.7073 21.5933 30.6286 21.4674C30.5499 21.3415 30.424 21.2313 30.2823 21.1998C30.125 21.1684 29.9833 21.1998 29.8259 21.2628C28.6455 21.7822 27.5753 22.5376 26.6782 23.4662C26.4106 23.7495 26.1588 24.0486 25.907 24.3633C25.8125 24.4735 25.8125 24.6938 25.844 24.8198C25.8755 24.9614 25.9857 25.1031 26.1116 25.166C26.2532 25.2447 26.4106 25.2762 26.568 25.229C26.7254 25.1817 26.8198 25.0873 26.9143 24.9614H26.9457Z" fill="#231F20"/>
<path d="M32.2803 20.9783C37.0649 18.9637 42.5105 18.8063 47.4052 20.5848C48.1135 20.8524 48.4283 19.7034 47.72 19.4516C42.6679 17.6102 36.939 17.7518 31.9813 19.8451C31.6822 19.971 31.4776 20.2385 31.5721 20.5691C31.6508 20.8524 31.997 21.1042 32.2961 20.9783H32.2803Z" fill="#231F20"/>
<path d="M24.0491 25.6838C23.388 26.4393 23.1047 27.3679 22.8529 28.3279C22.5696 29.3982 22.3335 30.4684 22.1289 31.5544C21.9558 32.5302 21.9086 33.5689 21.5938 34.4975C21.2791 35.4261 20.2875 35.7409 19.8626 36.575C19.595 37.0944 19.6107 37.6767 20.0357 38.1174C20.4606 38.5581 20.9643 38.8886 21.405 39.2506C21.6568 39.4552 22.003 39.4867 22.2391 39.2506C22.4437 39.046 22.4909 38.6211 22.2391 38.4165C21.9873 38.2119 21.7512 38.0072 21.4994 37.8184C21.3735 37.724 21.2476 37.6138 21.1217 37.5193C21.0587 37.4564 20.8541 37.3462 20.8226 37.2675C20.8541 37.3305 20.8384 37.2203 20.8698 37.1731C20.9171 37.0944 20.9643 37.0314 21.0272 36.9528C21.2161 36.7481 21.4522 36.575 21.6568 36.3862C22.0817 36.0084 22.4122 35.5992 22.6326 35.0641C22.8529 34.529 22.9159 33.9939 22.9946 33.443C23.1677 32.1997 23.4038 30.9563 23.7028 29.7129C23.8445 29.1149 24.0019 28.5011 24.175 27.903C24.3324 27.4151 24.5212 26.9114 24.8675 26.518C25.3554 25.9514 24.537 25.1015 24.0333 25.6838H24.0491Z" fill="#231F20"/>
<path d="M21.6891 39.9123C21.091 40.4632 20.5559 41.2816 21.0595 42.0685C21.516 42.7925 22.7121 42.8082 23.4676 42.7768L22.8695 42.1787C22.8538 42.462 22.8223 42.761 22.8065 43.0443C22.7908 43.2961 22.7278 43.5794 22.8065 43.847C22.8852 44.1146 23.0426 44.3192 23.2944 44.4136C23.5777 44.5238 23.8138 44.4293 24.0814 44.3821C24.4748 44.3192 24.8526 44.6025 25.1516 44.8071C25.5451 45.0746 25.9385 45.3579 26.3792 45.5625C28.1577 46.3652 30.1093 46.1134 31.998 46.1291C33.0052 46.1291 34.044 46.2078 34.9726 46.6642C35.6493 46.9947 36.2474 45.9717 35.5707 45.6412C33.5876 44.6811 31.4156 45.0431 29.3066 44.9802C28.3466 44.9487 27.3708 44.8228 26.5209 44.3192C26.0645 44.0516 25.6553 43.6896 25.1516 43.4535C24.8998 43.3434 24.648 43.2489 24.3804 43.2332C24.223 43.2174 24.0814 43.2332 23.924 43.2332C23.861 43.2332 23.7823 43.2489 23.7194 43.2647C23.5935 43.2804 23.5935 43.2961 23.7351 43.3276L23.9397 43.5322C23.9397 43.6109 23.9397 43.6267 23.9397 43.5637C23.9397 43.5007 23.9397 43.4378 23.9397 43.3906C23.9397 43.2489 23.9555 43.123 23.9712 42.9814C23.9869 42.7138 24.0184 42.4462 24.0342 42.1787C24.0499 41.8639 23.7509 41.5806 23.4361 41.5806C23.1843 41.5806 22.9324 41.5806 22.6806 41.5649C22.539 41.5491 22.114 41.5334 22.0196 41.4075C22.0196 41.4075 22.0196 41.2973 22.0511 41.2186C22.1298 41.014 22.3501 40.8566 22.5075 40.715C23.0741 40.1956 22.2399 39.3615 21.6734 39.8808L21.6891 39.9123Z" fill="#231F20"/>
<path d="M58.4067 27.1643C59.4612 23.5916 59.9176 19.8458 59.713 16.1315C59.6658 15.3288 59.7602 14.1484 58.9733 13.6605C58.2808 13.2356 57.2105 13.4244 56.4708 13.5975C55.5894 13.8179 54.7553 14.1956 53.9526 14.5733C53.1972 14.9353 52.4417 15.2973 51.7177 15.7065C50.0966 16.6194 48.57 17.7054 47.3581 19.1061C46.8544 19.6727 47.6886 20.5226 48.1922 19.9403C49.1838 18.8071 50.3642 17.8785 51.6548 17.1073C52.9453 16.3361 54.2989 15.6278 55.6839 15.0927C56.4236 14.7937 57.2105 14.5733 58.0132 14.6048C58.328 14.6048 58.4067 14.6048 58.4539 14.9353C58.5168 15.3603 58.5326 15.8167 58.5483 16.2574C58.627 17.9257 58.5798 19.6097 58.4067 21.2623C58.2021 23.151 57.8243 25.0239 57.2735 26.8496C57.0531 27.5735 58.2021 27.8883 58.4067 27.1643Z" fill="#231F20"/>
<path d="M55.4167 16.9651C54.0789 17.9094 52.6624 18.838 51.6236 20.1128C51.3246 20.4906 51.0413 20.8683 50.821 21.2932C50.6793 21.5608 50.7423 21.9543 51.0256 22.0959C51.2931 22.2376 51.6708 22.1746 51.8282 21.8913C51.9227 21.7182 52.0171 21.5608 52.1115 21.4034C52.1587 21.3247 52.2217 21.246 52.2689 21.1673C52.3004 21.1358 52.3319 21.0886 52.3476 21.0571C52.3476 21.0571 52.3633 21.0257 52.3791 21.0099C52.4263 20.947 52.3004 21.1201 52.3634 21.0257C52.5994 20.7266 52.867 20.4433 53.1345 20.1758C53.4021 19.9082 53.7011 19.6564 54.0002 19.4203C54.0631 19.3574 54.1418 19.3101 54.2205 19.2472C54.2992 19.1842 54.189 19.2629 54.189 19.2787C54.2048 19.2787 54.2205 19.2472 54.252 19.2315C54.2992 19.2 54.3307 19.1685 54.3779 19.137C54.5353 19.0269 54.6927 18.9009 54.8501 18.7908C55.2278 18.5232 55.6213 18.2399 55.999 17.9724C56.1249 17.8779 56.2351 17.7678 56.2666 17.6261C56.298 17.4845 56.2823 17.2956 56.2036 17.1697C56.0462 16.9179 55.6685 16.7605 55.4009 16.9651H55.4167Z" fill="#231F20"/>
<path d="M54.7549 24.3625C53.9365 23.308 52.9449 22.4109 51.796 21.7341C51.4812 21.561 51.1665 21.3878 50.8517 21.2462C50.6943 21.1832 50.5684 21.136 50.3953 21.1832C50.2536 21.2147 50.112 21.3249 50.049 21.4508C49.9703 21.5925 49.9388 21.7498 49.9861 21.9072C50.0333 22.0489 50.1277 22.2063 50.2536 22.2535C50.9619 22.5683 51.6229 22.9617 52.2367 23.4339L52.1108 23.3395C52.7403 23.8274 53.3227 24.3939 53.8106 25.0392L53.7161 24.9133V24.9448C53.8263 25.0707 53.9207 25.1651 54.0939 25.2124C54.2355 25.2438 54.4244 25.2281 54.5503 25.1494C54.6762 25.0707 54.7864 24.9448 54.8178 24.8032C54.8493 24.6615 54.8493 24.4726 54.7549 24.3467V24.3625Z" fill="#231F20"/>
<path d="M55.8102 26.5197C56.1565 26.9132 56.3453 27.4011 56.5027 27.9047C56.6916 28.5028 56.8332 29.1008 56.9749 29.7147C57.2739 30.9423 57.4943 32.1856 57.6831 33.4447C57.7618 33.9956 57.8405 34.5465 58.0451 35.0658C58.2497 35.5852 58.596 36.0102 59.0209 36.3879C59.2413 36.5767 59.4616 36.7499 59.6505 36.9545C59.7134 37.0174 59.7607 37.0961 59.8079 37.1748C59.8236 37.2063 59.8236 37.3322 59.8551 37.2693C59.8236 37.3637 59.6347 37.4739 59.5561 37.5211C59.4301 37.6155 59.3042 37.7257 59.1783 37.8201C58.9265 38.0247 58.6904 38.2293 58.4386 38.4182C58.1868 38.607 58.234 39.0477 58.4386 39.2523C58.6904 39.5042 59.0209 39.4569 59.2728 39.2523C59.682 38.9218 60.1069 38.5913 60.5161 38.2451C60.9253 37.8988 61.0984 37.4424 60.9725 36.9387C60.7207 35.9629 59.6347 35.6324 59.2098 34.7983C59.0209 34.4205 58.9422 33.9641 58.8793 33.5549C58.8006 33.0355 58.7219 32.5162 58.6432 31.9968C58.4543 30.9108 58.234 29.8406 57.9507 28.7703C57.6674 27.7001 57.3998 26.5827 56.6444 25.717C56.1407 25.1347 55.3066 25.9846 55.8102 26.5512V26.5197Z" fill="#231F20"/>
<path d="M58.1711 40.7477C58.3285 40.8894 58.5173 41.031 58.6118 41.2199C58.6432 41.2671 58.659 41.3301 58.659 41.393C58.659 41.456 58.659 41.4245 58.659 41.4402C58.5803 41.5347 58.1553 41.5661 58.0452 41.5819C57.7776 41.6134 57.51 41.6134 57.2425 41.6134C56.9435 41.6134 56.6287 41.8967 56.6444 42.2114C56.6602 42.479 56.6916 42.7466 56.7074 43.0141C56.7074 43.1558 56.7231 43.2817 56.7389 43.4233V43.565C56.7389 43.6751 56.7389 43.6751 56.7546 43.5807L56.9592 43.3761C57.1008 43.3604 57.1008 43.3289 56.9749 43.3132C56.912 43.2974 56.849 43.2817 56.7703 43.2817C56.6129 43.2502 56.4713 43.2502 56.3139 43.2817C56.0306 43.3131 55.7945 43.3918 55.5427 43.502C55.0548 43.7224 54.6456 44.0843 54.1734 44.3676C53.3393 44.8713 52.3477 44.9972 51.3877 45.0287C49.2787 45.0916 47.091 44.7454 45.1237 45.6897C44.4469 46.0202 45.045 47.0432 45.7217 46.7127C47.4058 45.8943 49.3889 46.2406 51.1831 46.2091C52.1117 46.2091 53.0717 46.1146 53.9374 45.7841C54.378 45.611 54.7873 45.3907 55.1807 45.1231C55.5427 44.8713 55.9362 44.525 56.3769 44.4621C56.6129 44.4149 56.8175 44.5408 57.0379 44.5408C57.3369 44.5408 57.6202 44.4306 57.7776 44.163C57.935 43.8955 57.9035 43.6122 57.8878 43.3132C57.8563 42.9512 57.8406 42.6049 57.8091 42.2429L57.211 42.841C57.9665 42.8725 59.1626 42.841 59.619 42.1327C60.1227 41.3458 59.5718 40.5117 58.9895 39.9765C58.4229 39.4572 57.5887 40.2913 58.1553 40.8107L58.1711 40.7477Z" fill="#231F20"/>
</svg>
