<svg width="80" height="77" viewBox="0 0 80 77" fill="none" xmlns="http://www.w3.org/2000/svg">
<mask id="mask0_3412_32013" style="mask-type:luminance" maskUnits="userSpaceOnUse" x="29" y="39" width="31" height="24">
<path d="M58.3585 44.3357C57.3197 43.958 56.3754 44.5246 55.8403 45.343C55.1321 46.3975 55.0376 47.7195 55.0376 48.9944C55.0376 50.2535 55.1478 51.5441 54.7858 52.7559C54.2192 54.6603 52.4407 56.1555 50.4577 56.3758C50.6465 55.0066 50.5363 53.5744 50.1901 52.2523C49.655 50.3637 49.1671 48.4593 48.4588 46.6336C47.2155 43.4701 45.4213 40.464 41.9745 39.3938C40.0229 38.7957 37.8352 39.3308 36.1354 40.4797C33.4283 42.3369 32.2007 46.2086 31.3036 49.2305C30.5796 51.6857 29.651 53.4642 30.0602 56.1083C31.0518 62.3881 37.2214 62.5612 42.3365 62.2936C44.3353 62.1834 46.46 61.9946 48.0811 60.7984C48.4746 60.5151 48.7893 60.1689 49.0884 59.7912C51.4177 60.1059 53.9044 59.02 55.5885 57.4461C57.9021 55.2899 57.2253 53.0078 57.7289 50.2692C57.9178 49.199 58.5316 48.2704 58.9566 47.2631C59.4445 46.1142 59.8222 44.8551 58.3585 44.3042V44.3357Z" fill="white"/>
</mask>
<g mask="url(#mask0_3412_32013)">
<path d="M58.3585 44.3357C57.3197 43.958 56.3754 44.5246 55.8403 45.343C55.1321 46.3975 55.0376 47.7195 55.0376 48.9944C55.0376 50.2535 55.1478 51.5441 54.7858 52.7559C54.2192 54.6603 52.4407 56.1555 50.4577 56.3758C50.6465 55.0066 50.5363 53.5744 50.1901 52.2523C49.655 50.3637 49.1671 48.4593 48.4588 46.6336C47.2155 43.4701 45.4213 40.464 41.9745 39.3938C40.0229 38.7957 37.8352 39.3308 36.1354 40.4797C33.4283 42.3369 32.2007 46.2086 31.3036 49.2305C30.5796 51.6857 29.651 53.4642 30.0602 56.1083C31.0518 62.3881 37.2214 62.5612 42.3365 62.2936C44.3353 62.1834 46.46 61.9946 48.0811 60.7984C48.4746 60.5151 48.7893 60.1689 49.0884 59.7912C51.4177 60.1059 53.9044 59.02 55.5885 57.4461C57.9021 55.2899 57.2253 53.0078 57.7289 50.2692C57.9178 49.199 58.5316 48.2704 58.9566 47.2631C59.4445 46.1142 59.8222 44.8551 58.3585 44.3042V44.3357Z" fill="#F8C04E"/>
<path d="M36.5921 57.6816C36.057 56.3438 33.6175 56.7058 33.6962 58.201C33.7277 58.862 34.2156 59.3657 34.8766 59.3814C35.8209 59.4129 37.0958 58.9407 36.5921 57.6816Z" fill="#5C564D"/>
<path d="M31.7756 55.5092C31.7756 55.5092 31.7284 55.4935 31.7127 55.4778C30.3749 54.7695 29.1787 56.7998 30.5165 57.5238C30.5323 57.5238 30.5637 57.5395 30.5795 57.5553C31.9173 58.2635 33.1134 56.2332 31.7756 55.5092Z" fill="#5C564D"/>
<path d="M33.9947 52.9767C34.0734 52.835 34.1049 52.6776 34.0892 52.5202C34.0892 52.4101 34.0577 52.3156 34.042 52.2055C33.979 52.0009 33.8846 51.8277 33.7429 51.6861C33.6642 51.6231 33.5855 51.5602 33.5068 51.4972C33.318 51.3871 33.1291 51.3398 32.9088 51.3398H32.7986C32.6412 51.3398 32.4838 51.3713 32.3422 51.4343C32.2005 51.4815 32.0746 51.5602 31.9644 51.6861C31.8543 51.7963 31.7756 51.9222 31.7126 52.0638C31.6339 52.2055 31.6025 52.3629 31.6182 52.5202C31.6182 52.6304 31.6497 52.7249 31.6654 52.835C31.7284 53.0396 31.8228 53.2128 31.9644 53.3544C32.0431 53.4174 32.1218 53.4803 32.2005 53.5433C32.3894 53.6534 32.5783 53.7007 32.7986 53.7007H32.9088C33.0662 53.7007 33.2235 53.6692 33.3652 53.6062C33.5068 53.559 33.6328 53.4803 33.7429 53.3544C33.8531 53.2442 33.9318 53.1183 33.9947 52.9767Z" fill="#5C564D"/>
<path d="M31.8855 47.8457C31.7281 47.8457 31.5707 47.8772 31.4291 47.9401C31.2874 47.9874 31.1615 48.066 31.0514 48.192C30.9412 48.3021 30.8625 48.428 30.7995 48.5697C30.7208 48.7113 30.6894 48.8687 30.7051 49.0261C30.7051 49.1363 30.7366 49.2307 30.7523 49.3409C30.8153 49.5455 30.9097 49.7186 31.0514 49.8603C31.1301 49.9232 31.2087 49.9862 31.2874 50.0491C31.4763 50.1593 31.6652 50.2065 31.8855 50.2065H31.9957C32.1531 50.2065 32.3105 50.175 32.4521 50.1121C32.5938 50.0649 32.7197 49.9862 32.8298 49.8603C32.94 49.7501 33.0187 49.6242 33.0817 49.4825C33.1603 49.3409 33.1918 49.1835 33.1761 49.0261C33.1761 48.9159 33.1446 48.8215 33.1289 48.7113C33.0659 48.5067 32.9715 48.3336 32.8298 48.192C32.7511 48.129 32.6724 48.066 32.5938 48.0031C32.4049 47.8929 32.216 47.8457 31.9957 47.8457H31.8855Z" fill="#5C564D"/>
<path d="M58.1853 46.7592L58.0751 46.649C57.9649 46.5388 57.839 46.4601 57.6974 46.3972C57.5557 46.3185 57.3983 46.287 57.241 46.3028C57.0836 46.3028 56.9262 46.3342 56.7845 46.3972C56.6429 46.4444 56.517 46.5231 56.4068 46.649C56.3438 46.7277 56.2809 46.8064 56.2179 46.8851C56.1078 47.074 56.0605 47.2628 56.0605 47.4832C56.0605 47.5933 56.092 47.6878 56.1078 47.7979C56.1707 48.0025 56.2652 48.1757 56.4068 48.3173C56.4383 48.3488 56.4698 48.3803 56.517 48.4275C56.6271 48.5377 56.7531 48.6164 56.8947 48.6793C57.0364 48.758 57.1937 48.7895 57.3511 48.7737C57.5085 48.7737 57.6659 48.7423 57.8075 48.6793C57.9492 48.6321 58.0751 48.5534 58.1853 48.4275C58.2482 48.3488 58.3112 48.2701 58.3741 48.1914C58.4843 48.0025 58.5315 47.8137 58.5315 47.5933C58.5315 47.4832 58.5001 47.3887 58.4843 47.2786C58.4214 47.074 58.3269 46.9008 58.1853 46.7592Z" fill="#5C564D"/>
<path d="M57.1618 50.4584L57.0517 50.3482C56.9415 50.2381 56.8156 50.1594 56.6739 50.0964C56.5323 50.0177 56.3749 49.9862 56.2175 50.002C56.0601 50.002 55.9027 50.0335 55.7611 50.0964C55.6194 50.1436 55.4935 50.2223 55.3834 50.3482C55.3204 50.4269 55.2574 50.5056 55.1945 50.5843C55.0843 50.7732 55.0371 50.962 55.0371 51.1824C55.0371 51.2926 55.0686 51.387 55.0843 51.4972C55.1473 51.7018 55.2417 51.8749 55.3834 52.0165C55.4148 52.048 55.4463 52.0795 55.4935 52.1267C55.6037 52.2369 55.7296 52.3156 55.8713 52.3785C56.0129 52.4572 56.1703 52.4887 56.3277 52.473C56.4851 52.473 56.6425 52.4415 56.7841 52.3785C56.9258 52.3313 57.0517 52.2526 57.1618 52.1267C57.2248 52.048 57.2877 51.9693 57.3507 51.8906C57.4609 51.7018 57.5081 51.5129 57.5081 51.2926C57.5081 51.1824 57.4766 51.088 57.4609 50.9778C57.3979 50.7732 57.3035 50.6001 57.1618 50.4584Z" fill="#5C564D"/>
<path d="M55.1003 54.3619C55.0216 54.2989 54.943 54.236 54.8643 54.173C54.6754 54.0628 54.4865 54.0156 54.2662 54.0156H54.156C53.9986 54.0156 53.8412 54.0471 53.6996 54.1101C53.5579 54.1573 53.432 54.236 53.3219 54.3619C53.2117 54.4721 53.133 54.598 53.07 54.7396C52.9914 54.8813 52.9599 55.0386 52.9756 55.196C52.9756 55.3062 53.0071 55.4006 53.0228 55.5108C53.0858 55.7154 53.1802 55.8885 53.3219 56.0302C53.4006 56.0931 53.4793 56.1561 53.5579 56.2191C53.7468 56.3292 53.9357 56.3764 54.156 56.3764H54.2662C54.4236 56.3764 54.581 56.345 54.7226 56.282C54.8643 56.2348 54.9902 56.1561 55.1003 56.0302C55.2105 55.92 55.2892 55.7941 55.3522 55.6525C55.4309 55.5108 55.4623 55.3534 55.4466 55.196C55.4466 55.0859 55.4151 54.9914 55.3994 54.8813C55.3364 54.6767 55.242 54.5035 55.1003 54.3619Z" fill="#5C564D"/>
<path d="M45.5467 56.8632C44.6811 56.6901 43.5794 56.8474 43.7525 58.0751C43.8784 58.9564 45.0746 59.4601 45.83 59.0194C46.0818 58.8777 46.3022 58.5944 46.3651 58.3111C46.4281 58.0121 46.4124 57.6659 46.2392 57.3983C46.0818 57.1465 45.83 56.9104 45.531 56.8632H45.5467Z" fill="#5C564D"/>
<path d="M36.1977 48.2074C35.9931 48.2704 35.8199 48.3648 35.6783 48.5064C35.6153 48.5851 35.5524 48.6638 35.4894 48.7425C35.3792 48.9314 35.332 49.1202 35.332 49.3406V49.4508C35.332 49.6081 35.3635 49.7655 35.4265 49.9072C35.4737 50.0488 35.5524 50.1747 35.6783 50.2849C35.7885 50.3951 35.9144 50.4738 36.056 50.5367C36.1977 50.6154 36.355 50.6469 36.5124 50.6312C36.6226 50.6312 36.717 50.5997 36.8272 50.5839C37.0318 50.521 37.2049 50.4266 37.3466 50.2849C37.4095 50.2062 37.4725 50.1275 37.5355 50.0488C37.6456 49.86 37.6928 49.6711 37.6928 49.4508V49.3406C37.6928 49.1832 37.6614 49.0258 37.5984 48.8842C37.5512 48.7425 37.4725 48.6166 37.3466 48.5064C37.2364 48.3963 37.1105 48.3176 36.9689 48.2546C36.8272 48.1759 36.6698 48.1444 36.5124 48.1602C36.4023 48.1602 36.3078 48.1917 36.1977 48.2074Z" fill="#5C564D"/>
<path d="M48.5214 55.5092C48.5214 55.5092 48.5686 55.4935 48.5844 55.4778C49.9222 54.7695 51.1183 56.7998 49.7805 57.5238C49.7648 57.5238 49.7333 57.5395 49.7176 57.5553C48.3798 58.2635 47.1836 56.2332 48.5214 55.5092Z" fill="#5C564D"/>
<path d="M45.8777 52.9767C45.799 52.835 45.7675 52.6776 45.7832 52.5202C45.7832 52.4101 45.8147 52.3156 45.8304 52.2055C45.8934 52.0009 45.9878 51.8277 46.1295 51.6861C46.2082 51.6231 46.2869 51.5602 46.3656 51.4972C46.5544 51.3871 46.7433 51.3398 46.9636 51.3398H47.0738C47.2312 51.3398 47.3886 51.3713 47.5302 51.4343C47.6719 51.4815 47.7978 51.5602 47.908 51.6861C48.0181 51.7963 48.0968 51.9222 48.1598 52.0638C48.2385 52.2055 48.27 52.3629 48.2542 52.5202C48.2542 52.6304 48.2227 52.7249 48.207 52.835C48.144 53.0396 48.0496 53.2128 47.908 53.3544C47.8293 53.4174 47.7506 53.4803 47.6719 53.5433C47.483 53.6534 47.2941 53.7007 47.0738 53.7007H46.9636C46.8062 53.7007 46.6489 53.6692 46.5072 53.6062C46.3656 53.559 46.2397 53.4803 46.1295 53.3544C46.0193 53.2442 45.9406 53.1183 45.8777 52.9767Z" fill="#5C564D"/>
<path d="M47.9859 47.8457C48.1433 47.8457 48.3007 47.8772 48.4423 47.9401C48.584 47.9874 48.7099 48.066 48.8201 48.192C48.9302 48.3021 49.0089 48.428 49.0719 48.5697C49.1506 48.7113 49.1821 48.8687 49.1663 49.0261C49.1663 49.1363 49.1348 49.2307 49.1191 49.3409C49.0561 49.5455 48.9617 49.7186 48.8201 49.8603C48.7414 49.9232 48.6627 49.9862 48.584 50.0491C48.3951 50.1593 48.2063 50.2065 47.9859 50.2065H47.8757C47.7184 50.2065 47.561 50.175 47.4193 50.1121C47.2777 50.0649 47.1518 49.9862 47.0416 49.8603C46.9314 49.7501 46.8527 49.6242 46.7898 49.4825C46.7111 49.3409 46.6796 49.1835 46.6953 49.0261C46.6953 48.9159 46.7268 48.8215 46.7426 48.7113C46.8055 48.5067 46.8999 48.3336 47.0416 48.192C47.1203 48.129 47.199 48.066 47.2777 48.0031C47.4665 47.8929 47.6554 47.8457 47.8757 47.8457H47.9859Z" fill="#5C564D"/>
<path d="M43.6895 48.2074C43.8941 48.2704 44.0672 48.3648 44.2089 48.5064C44.2719 48.5851 44.3348 48.6638 44.3978 48.7425C44.5079 48.9314 44.5551 49.1202 44.5551 49.3406V49.4508C44.5551 49.6081 44.5237 49.7655 44.4607 49.9072C44.4135 50.0488 44.3348 50.1747 44.2089 50.2849C44.0987 50.3951 43.9728 50.4738 43.8312 50.5367C43.6895 50.6154 43.5321 50.6469 43.3747 50.6312C43.2646 50.6312 43.1701 50.5997 43.06 50.5839C42.8554 50.521 42.6822 50.4266 42.5406 50.2849C42.4776 50.2062 42.4147 50.1275 42.3517 50.0488C42.2416 49.86 42.1943 49.6711 42.1943 49.4508V49.3406C42.1943 49.1832 42.2258 49.0258 42.2888 48.8842C42.336 48.7425 42.4147 48.6166 42.5406 48.5064C42.6508 48.3963 42.7767 48.3176 42.9183 48.2546C43.06 48.1759 43.2174 48.1444 43.3747 48.1602C43.4849 48.1602 43.5793 48.1917 43.6895 48.2074Z" fill="#5C564D"/>
</g>
<path d="M33.0669 43.2023C32.4059 44.6188 31.7763 46.0667 31.194 47.5147C30.6117 48.9627 30.0608 50.3162 29.6831 51.7641C29.0221 54.3138 28.9748 57.1153 30.4228 59.4132C31.1468 60.5621 32.1541 61.4277 33.4132 61.9156C34.1214 62.1832 34.4362 61.05 33.7279 60.7824C30.9894 59.7279 30.1552 56.4071 30.4858 53.7787C30.6904 52.0789 31.2884 50.4421 31.918 48.8525C32.5947 47.137 33.3187 45.4529 34.0899 43.7846C34.4047 43.0921 33.3974 42.494 33.0669 43.1865V43.2023Z" fill="#231F20"/>
<path d="M33.5391 57.1936C33.5705 58.1694 33.665 59.161 33.8696 60.1053C34.0427 60.9395 34.4519 61.7894 35.2546 62.1828C35.6795 62.3874 36.1202 62.4661 36.5766 62.4819C37.0016 62.4819 37.4737 62.4504 37.883 62.3559C38.3709 62.2458 38.7958 61.9467 39.0319 61.5061C39.2365 61.1283 39.3309 60.7034 39.3939 60.2784C39.567 59.1767 39.6142 58.0593 39.4883 56.9418C39.4726 56.7844 39.4411 56.6428 39.3152 56.5169C39.205 56.4067 39.0476 56.3438 38.8902 56.3438C38.6069 56.3438 38.2607 56.6113 38.2922 56.9418C38.3866 57.8232 38.3866 58.7046 38.2922 59.5859C38.2922 59.6489 38.2922 59.6961 38.2764 59.7591C38.2764 59.7905 38.2764 59.8063 38.2764 59.8378C38.2764 59.7276 38.2764 59.9322 38.2764 59.8378C38.2607 59.9479 38.2449 60.0581 38.2292 60.1683C38.1977 60.3414 38.1663 60.5303 38.119 60.7034C38.119 60.7506 38.0876 60.7821 38.0718 60.8293C38.0718 60.845 38.0718 60.8608 38.0561 60.8765C38.0403 60.9395 38.0876 60.8136 38.0876 60.8136C38.0561 60.845 38.0561 60.8922 38.0403 60.9237C38.0246 60.9709 37.9931 61.0024 37.9616 61.0496C37.9616 61.0496 37.9459 61.0811 37.9302 61.0968C37.9302 61.0968 38.0089 61.0024 37.9616 61.0496C37.9302 61.0811 37.8987 61.1126 37.8672 61.1441C37.9459 61.0968 37.8672 61.1441 37.8515 61.1441C37.82 61.1598 37.7413 61.1913 37.7256 61.207C37.757 61.1598 37.82 61.1755 37.757 61.207C37.7413 61.207 37.7256 61.207 37.6941 61.2228C37.6469 61.2228 37.5997 61.2542 37.5524 61.2542C37.5052 61.2542 37.4737 61.27 37.4265 61.2857C37.3951 61.2857 37.3793 61.2857 37.3478 61.2857C37.2691 61.2857 37.3478 61.2857 37.3793 61.2857C37.3006 61.3172 37.1904 61.3015 37.1118 61.3172C37.0173 61.3172 36.9386 61.3172 36.8442 61.3329C36.6711 61.3329 36.4822 61.3329 36.3091 61.3329C36.2933 61.3329 36.2776 61.3329 36.2461 61.3329C36.1832 61.3329 36.3091 61.3329 36.3091 61.3329C36.2619 61.3329 36.2146 61.3329 36.1832 61.3172C36.0887 61.3015 35.9943 61.27 35.9156 61.2385C35.8841 61.2385 35.8527 61.207 35.8054 61.207C35.8054 61.207 35.9314 61.27 35.8369 61.207C35.8212 61.207 35.8054 61.1913 35.7897 61.1755C35.711 61.1283 35.6323 61.0811 35.5694 61.0339C35.5064 60.9867 35.6481 61.1126 35.6008 61.0496C35.6008 61.0496 35.5694 61.0182 35.5536 61.0182C35.5221 60.9867 35.4907 60.9552 35.4592 60.9237C35.4277 60.8922 35.412 60.8765 35.3805 60.845C35.3175 60.7663 35.3805 60.8293 35.3805 60.845C35.3333 60.7821 35.3018 60.7191 35.2546 60.6404C35.2388 60.6089 35.2074 60.5617 35.1916 60.5303C35.1916 60.5145 35.1916 60.4988 35.1759 60.483C35.2546 60.6089 35.2074 60.546 35.1759 60.4988C35.1129 60.3414 35.0657 60.1683 35.0185 59.9951C34.9713 59.7905 34.9398 59.6017 34.9083 59.3971C34.8926 59.2712 34.8769 59.161 34.8611 59.0351C34.8611 59.0193 34.8454 58.9092 34.8611 58.9879C34.8769 59.0666 34.8611 58.9564 34.8611 58.9406C34.8611 58.8777 34.8454 58.8147 34.8454 58.7518C34.7824 58.2481 34.7509 57.7445 34.7352 57.2251C34.7352 56.9103 34.4676 56.627 34.1371 56.627C33.8066 56.627 33.5391 56.8789 33.5391 57.2251V57.1936Z" fill="#231F20"/>
<path d="M46.3348 43.8001C47.106 45.4684 47.83 47.1525 48.5068 48.868C49.1363 50.4576 49.7344 52.0944 49.939 53.7942C50.2695 56.4226 49.4354 59.7435 46.6968 60.798C45.9886 61.0655 46.3033 62.2144 47.0116 61.9311C49.2622 61.0655 50.6787 58.9093 51.0722 56.58C51.5601 53.6526 50.5371 50.7566 49.4668 48.0811C48.8058 46.4442 48.1133 44.8231 47.3578 43.2178C47.0431 42.5253 46.02 43.1234 46.3348 43.8159V43.8001Z" fill="#231F20"/>
<path d="M45.7047 57.1938C45.7047 57.6502 45.6575 58.0909 45.6103 58.5473C45.6103 58.6575 45.5945 58.7519 45.5788 58.8621C45.5788 58.8935 45.5788 58.9093 45.5788 58.9408C45.5788 59.0037 45.5631 59.0667 45.5473 59.1296C45.5158 59.3185 45.4844 59.5073 45.4529 59.7119C45.4214 59.8851 45.3742 60.0582 45.327 60.2313C45.2955 60.31 45.2798 60.3887 45.2483 60.4674L45.2168 60.5304C45.2168 60.5304 45.264 60.4202 45.2325 60.4674C45.2168 60.5146 45.1853 60.5618 45.1696 60.5933C45.1381 60.6563 45.0909 60.735 45.0437 60.7979C45.0437 60.8137 45.0122 60.8451 44.9965 60.8609C44.9965 60.8609 45.0752 60.7664 45.0279 60.8137C44.9965 60.8451 44.965 60.8924 44.9335 60.9238C44.902 60.9553 44.8863 60.971 44.8548 61.0025C44.8391 61.0183 44.8233 61.034 44.7919 61.0497C44.7446 61.097 44.8391 61.0183 44.8391 61.0183C44.7604 61.0497 44.6974 61.1127 44.6187 61.1599C44.603 61.1599 44.4613 61.2386 44.5558 61.1914C44.6345 61.1599 44.5086 61.1914 44.4928 61.2071C44.4141 61.2386 44.3197 61.2543 44.241 61.2701C44.1938 61.2701 44.1466 61.2701 44.1151 61.2858C44.0521 61.2858 44.178 61.2858 44.178 61.2858H44.0994C44.0049 61.2858 43.9262 61.2858 43.8318 61.2858C43.6429 61.2858 43.4698 61.2858 43.2809 61.2701C43.2022 61.2701 43.1078 61.2543 43.0291 61.2386C42.9662 61.2386 43.0921 61.2386 43.0921 61.2386C43.0606 61.2386 43.0291 61.2386 43.0134 61.2386C42.9662 61.2386 42.9032 61.2229 42.856 61.2071C42.8088 61.2071 42.7773 61.1914 42.7301 61.1757C42.6986 61.1757 42.6829 61.1599 42.6514 61.1442C42.6356 61.1442 42.6042 61.1127 42.5884 61.097C42.5727 61.097 42.557 61.0812 42.5412 61.0655C42.4783 61.034 42.6199 61.1442 42.5727 61.097C42.5412 61.0655 42.5097 61.034 42.4783 61.0025C42.431 60.9396 42.3996 60.8609 42.3524 60.7822C42.3209 60.7192 42.3838 60.8451 42.3838 60.8451C42.3838 60.8294 42.3681 60.7979 42.3524 60.7822C42.3524 60.7507 42.3366 60.7192 42.3209 60.672C42.2894 60.5776 42.2737 60.4989 42.2579 60.4045C42.2107 60.1999 42.1792 59.9953 42.1477 59.7906C42.1477 59.7277 42.1477 59.8221 42.1477 59.8221C42.1477 59.7906 42.1477 59.7592 42.1477 59.7277C42.1477 59.6647 42.1477 59.6018 42.132 59.5388C42.132 59.4129 42.1005 59.287 42.1005 59.1611C42.0848 58.9093 42.0691 58.6732 42.0691 58.4214C42.0691 57.9177 42.0848 57.4141 42.1477 56.9262C42.1792 56.6114 41.8487 56.3281 41.5497 56.3281C41.2034 56.3281 40.9988 56.5957 40.9516 56.9262C40.8414 57.8863 40.8572 58.8463 40.9831 59.8064C41.109 60.7664 41.2506 61.8209 42.2264 62.2302C42.6514 62.4033 43.1235 62.4505 43.5642 62.4662C43.9892 62.482 44.4299 62.4662 44.8391 62.3246C45.264 62.1829 45.6575 61.9469 45.9408 61.5849C46.2241 61.2229 46.4129 60.8137 46.5231 60.3887C46.6648 59.8851 46.7277 59.35 46.7907 58.8306C46.8536 58.2797 46.9008 57.7446 46.9166 57.1938C46.9166 56.879 46.6333 56.5957 46.3185 56.5957C45.988 56.5957 45.7362 56.8475 45.7204 57.1938H45.7047Z" fill="#231F20"/>
<path d="M52.6775 56.2491C54.2671 55.4937 55.0068 53.6995 55.2272 52.0469C55.4633 50.2055 55.1485 48.1594 56.0298 46.4439C56.2187 46.0662 56.4548 45.7356 56.7538 45.4524C57.0057 45.2163 57.4778 44.8385 57.8555 44.933C58.5953 45.1061 58.91 43.9729 58.1703 43.7998C57.2103 43.5794 56.2502 44.2247 55.6521 44.9172C55.054 45.6097 54.6921 46.4282 54.4875 47.2938C54.0153 49.2769 54.4402 51.3859 53.7163 53.3217C53.4172 54.1401 52.8821 54.8484 52.0794 55.2261C51.7961 55.3678 51.7174 55.777 51.8748 56.0288C52.0479 56.3278 52.3942 56.375 52.6775 56.2334V56.2491Z" fill="#231F20"/>
<path d="M49.6712 60.2159C52.5042 60.3418 55.227 58.8151 56.8166 56.5015C57.6507 55.2739 58.0442 53.9046 58.1701 52.4409C58.2331 51.6068 58.2331 50.7569 58.359 49.9227C58.4849 49.0886 58.7997 48.4118 59.2246 47.7036C59.6496 46.9953 60.0116 46.1769 59.7755 45.3113C59.5709 44.5558 58.9885 43.9578 58.1859 43.942C57.4304 43.9105 57.4304 45.091 58.1859 45.1224C58.5793 45.1224 58.7052 45.7205 58.658 46.0353C58.5793 46.6963 58.0757 47.2629 57.7766 47.8452C57.0999 49.183 57.0999 50.6782 57.0055 52.1419C56.9268 53.4167 56.6435 54.5814 55.9667 55.6674C55.3371 56.6747 54.4558 57.5088 53.4328 58.1069C52.2838 58.7836 50.9933 59.1299 49.6555 59.0669C48.9 59.0355 48.9 60.2159 49.6555 60.2474L49.6712 60.2159Z" fill="#231F20"/>
<path d="M35.5537 60.3251C35.5537 60.4353 35.5537 60.5454 35.5852 60.6714C35.5852 60.7501 35.6167 60.8287 35.6324 60.9074C35.6639 61.0176 35.7111 61.1278 35.7583 61.2222C35.7898 61.3009 35.837 61.3639 35.8842 61.4426C35.9157 61.4898 35.9472 61.5213 35.9787 61.5527C36.0101 61.5842 36.0574 61.6157 36.1203 61.6157C36.1675 61.6314 36.2305 61.6314 36.2777 61.6157C36.3249 61.6157 36.3721 61.5999 36.4193 61.5685C36.498 61.5212 36.5767 61.4268 36.5925 61.3324C36.6082 61.238 36.6082 61.112 36.5453 61.0333C36.4823 60.9547 36.4351 60.8602 36.4036 60.7658L36.4508 60.8602C36.3879 60.7343 36.3564 60.5927 36.3406 60.451V60.5612C36.3406 60.5612 36.3406 60.4038 36.3406 60.3251C36.3406 60.2779 36.3406 60.2149 36.3092 60.1677C36.2934 60.1205 36.262 60.0733 36.2305 60.0418C36.199 60.0103 36.1518 59.9789 36.1046 59.9631C36.0574 59.9316 36.0101 59.9316 35.9472 59.9316C35.8527 59.9316 35.7426 59.9631 35.6639 60.0418C35.5852 60.1205 35.5537 60.2149 35.5537 60.3251Z" fill="#231F20"/>
<path d="M36.8605 60.7027L37.0022 61.4897C37.0022 61.4897 37.0336 61.5841 37.0651 61.6313C37.0966 61.6785 37.1281 61.71 37.1753 61.7258C37.2225 61.7572 37.2697 61.773 37.3169 61.773C37.3641 61.773 37.4271 61.773 37.4743 61.773L37.5688 61.7258C37.5688 61.7258 37.6789 61.6471 37.7104 61.5841L37.7576 61.4897C37.7576 61.4897 37.7734 61.348 37.7576 61.2851L37.616 60.4981C37.616 60.4981 37.5845 60.4037 37.553 60.3565C37.5215 60.3093 37.4901 60.2778 37.4428 60.2621C37.3956 60.2306 37.3484 60.2148 37.3012 60.2148C37.254 60.2148 37.191 60.2148 37.1438 60.2148L37.0494 60.2621C37.0494 60.2621 36.9392 60.3408 36.9077 60.4037L36.8605 60.4981C36.8605 60.4981 36.8448 60.6398 36.8605 60.7027Z" fill="#231F20"/>
<path d="M42.7621 60.2315C42.7306 60.3417 42.7148 60.4518 42.7148 60.562C42.7148 60.6407 42.7148 60.7194 42.7148 60.8138C42.7148 60.924 42.7463 61.0342 42.7778 61.1443C42.8093 61.2545 42.8565 61.3647 42.9037 61.4591C42.9352 61.5063 42.9667 61.5378 42.9981 61.5693C43.0296 61.6008 43.0768 61.6322 43.1398 61.6322C43.187 61.648 43.25 61.648 43.2972 61.6322C43.3444 61.6322 43.3916 61.6165 43.4388 61.585C43.5175 61.5378 43.5962 61.4434 43.612 61.3489V61.2388C43.612 61.2388 43.612 61.0971 43.5647 61.0342C43.5647 61.0184 43.549 61.0027 43.5333 60.9712L43.5805 61.0656C43.5333 60.9555 43.5018 60.8453 43.486 60.7194V60.8296C43.486 60.7037 43.486 60.5935 43.486 60.4676V60.5777C43.486 60.5777 43.486 60.4676 43.5018 60.4204C43.5175 60.3731 43.5175 60.3102 43.5018 60.263C43.5018 60.2158 43.486 60.1685 43.4546 60.1213C43.4231 60.0741 43.3916 60.0426 43.3601 60.0112C43.3287 59.9797 43.2814 59.9482 43.2185 59.9482C43.1241 59.9325 42.9981 59.9325 42.9194 59.9954C42.8408 60.0584 42.7621 60.1371 42.7463 60.2315H42.7621Z" fill="#231F20"/>
<path d="M44.0377 60.5622C44.0377 60.5622 44.0534 60.6567 44.0692 60.6881V60.578C44.0692 60.7039 44.0692 60.8298 44.0692 60.94V60.8298C44.0692 60.9557 44.0377 61.0659 43.9905 61.176L44.0377 61.0816C44.0377 61.0816 44.0219 61.1288 44.0062 61.1446C43.9747 61.1918 43.959 61.239 43.959 61.2862C43.959 61.3334 43.959 61.3964 43.959 61.4436C43.959 61.4908 43.9905 61.538 44.0219 61.5853C44.0534 61.6325 44.0849 61.6639 44.1321 61.6797C44.2265 61.7269 44.3367 61.7584 44.4311 61.7269C44.5256 61.6954 44.62 61.6325 44.6672 61.5538C44.7144 61.4593 44.7617 61.3492 44.7931 61.239C44.8246 61.1288 44.8404 61.0187 44.8561 60.9085C44.8561 60.8298 44.8561 60.7511 44.8561 60.6724C44.8561 60.5622 44.8404 60.4521 44.8089 60.3419C44.8089 60.2947 44.7774 60.2475 44.7459 60.2002C44.7144 60.153 44.683 60.1215 44.6358 60.1058C44.5885 60.0743 44.5413 60.0586 44.4941 60.0586C44.4469 60.0586 44.3839 60.0586 44.3367 60.0586C44.2423 60.0901 44.1478 60.153 44.1006 60.2317L44.0534 60.3262C44.0534 60.3262 44.0377 60.4678 44.0534 60.5308L44.0377 60.5622Z" fill="#231F20"/>
<mask id="mask1_3412_32013" style="mask-type:luminance" maskUnits="userSpaceOnUse" x="22" y="12" width="36" height="36">
<path d="M23.1056 20.8531C22.901 22.2066 22.7751 23.5759 22.7279 24.9451C22.6335 27.6365 23.0899 30.2491 22.7594 32.9247C22.2243 37.1269 23.2315 41.7541 26.3636 44.6028C29.9048 47.8135 35.1615 48.0811 39.9461 47.8922C42.6059 47.782 45.2815 47.6089 47.8469 46.8692C50.4123 46.1295 52.8676 44.8389 54.5831 42.8086C55.2756 41.9902 55.8422 41.0773 56.2514 40.1015C56.881 38.5906 57.3689 36.6548 57.2902 35.0022C57.2115 33.3024 56.5505 31.9331 56.9124 30.2019C57.3059 28.3447 57.4161 26.6921 57.2115 24.8035C56.8495 21.4511 56.1412 18.146 55.134 14.9353C54.8192 13.9438 54.1739 12.7476 53.1351 12.8893C52.6787 12.9522 52.301 13.267 51.9705 13.5975C50.6012 14.9353 49.4365 16.4777 48.5237 18.1617C47.8469 19.4051 47.6266 21.6872 45.9268 21.5298C43.8493 21.341 41.9449 20.5068 39.7887 20.4911C37.8371 20.4911 35.9012 20.7744 34.0441 21.3724C33.7293 21.4669 33.3988 21.5928 33.0683 21.5613C32.3285 21.4984 31.9665 20.5383 31.7619 19.956C30.8806 17.4378 29.3854 15.1242 27.4338 13.2827C27.0246 12.8893 26.4895 12.4958 25.9543 12.6689C25.5924 12.7791 25.3563 13.1253 25.1674 13.4716C24.711 14.3058 24.412 15.2186 24.1444 16.1314C23.688 17.6896 23.3417 19.2635 23.1056 20.8688V20.8531Z" fill="white"/>
</mask>
<g mask="url(#mask1_3412_32013)">
<path d="M23.1056 20.8531C22.901 22.2066 22.7751 23.5759 22.7279 24.9451C22.6335 27.6365 23.0899 30.2491 22.7594 32.9247C22.2243 37.1269 23.2315 41.7541 26.3636 44.6028C29.9048 47.8135 35.1615 48.0811 39.9461 47.8922C42.6059 47.782 45.2815 47.6089 47.8469 46.8692C50.4123 46.1295 52.8676 44.8389 54.5831 42.8086C55.2756 41.9902 55.8422 41.0773 56.2514 40.1015C56.881 38.5906 57.3689 36.6548 57.2902 35.0022C57.2115 33.3024 56.5505 31.9331 56.9124 30.2019C57.3059 28.3447 57.4161 26.6921 57.2115 24.8035C56.8495 21.4511 56.1412 18.146 55.134 14.9353C54.8192 13.9438 54.1739 12.7476 53.1351 12.8893C52.6787 12.9522 52.301 13.267 51.9705 13.5975C50.6012 14.9353 49.4365 16.4777 48.5237 18.1617C47.8469 19.4051 47.6266 21.6872 45.9268 21.5298C43.8493 21.341 41.9449 20.5068 39.7887 20.4911C37.8371 20.4911 35.9012 20.7744 34.0441 21.3724C33.7293 21.4669 33.3988 21.5928 33.0683 21.5613C32.3285 21.4984 31.9665 20.5383 31.7619 19.956C30.8806 17.4378 29.3854 15.1242 27.4338 13.2827C27.0246 12.8893 26.4895 12.4958 25.9543 12.6689C25.5924 12.7791 25.3563 13.1253 25.1674 13.4716C24.711 14.3058 24.412 15.2186 24.1444 16.1314C23.688 17.6896 23.3417 19.2635 23.1056 20.8688V20.8531Z" fill="#F8C04E"/>
<path d="M28.0634 18.4447C27.2922 16.7764 26.1905 16.9023 25.5452 18.8224C24.7583 21.199 24.5065 23.9375 24.6009 26.44C24.6009 26.5344 24.6638 27.0695 24.6166 26.8334C24.6638 27.1639 24.7425 27.4787 24.837 27.7935C24.8685 27.9037 24.9157 28.1083 24.9944 28.2814C25.435 27.2741 26.0489 26.3298 26.6941 25.4484C27.1663 24.8189 27.6699 24.0319 28.2995 23.5598C28.6615 23.2922 29.1336 23.4024 29.3383 22.9617C29.7475 22.0961 28.5041 19.6093 28.1893 18.7752C28.1421 18.665 28.0949 18.5548 28.0477 18.4447H28.0634Z" fill="white"/>
<path d="M42.8732 36.5914C41.7557 36.198 40.5596 36.0248 39.568 36.072C37.6322 36.1507 35.4602 36.7331 34.5002 38.606C33.9965 39.5818 34.0752 40.8251 34.7048 41.7222C36.5934 44.445 44.9664 44.4923 45.596 40.5104C45.895 38.5588 44.6202 37.221 42.8889 36.6072L42.8732 36.5914Z" fill="white"/>
<path d="M54.9926 27.8875C55.0871 27.4154 55.1185 26.9747 55.1658 26.4711C55.3232 24.2834 55.1972 21.9855 54.5677 19.8608C54.3316 19.0581 53.9854 18.1767 53.4345 17.6259C53.2142 17.4055 53.0253 17.2954 52.7577 17.2324C52.6948 17.2796 52.6318 17.3426 52.5531 17.3583C51.5773 19.0424 50.6015 20.8051 50.4599 22.6938C50.3497 24.1417 51.6088 25.0231 52.6003 25.9045C53.1669 26.4081 53.6863 26.9117 54.1585 27.4941C54.3946 27.7774 54.6464 28.0607 54.8982 28.344C54.9297 28.1866 54.9769 28.0292 55.0084 27.8875H54.9926Z" fill="white"/>
<path d="M38.6406 16.0215C38.0583 16.0215 37.3973 16.5566 37.4602 17.2019C37.9481 21.8763 38.3259 26.5664 38.6249 31.2723C38.7193 32.7832 41.0801 32.799 40.9857 31.2723C40.6867 26.5822 40.3089 21.892 39.821 17.2019C39.7581 16.5723 39.3174 16.0215 38.6406 16.0215Z" fill="#5C564D"/>
<path d="M34.5947 25.4495C34.7364 26.0476 35.4603 26.4725 36.0427 26.2679C36.6722 26.0633 37.0185 25.4652 36.8611 24.82C36.4361 23.01 35.9325 21.2315 35.3502 19.4845C35.1613 18.9022 34.5318 18.4615 33.9022 18.6661C33.3199 18.855 32.8635 19.4845 33.0838 20.1141C33.6661 21.8768 34.1698 23.6553 34.5947 25.4495Z" fill="#5C564D"/>
<path d="M42.7168 26.1579C43.1574 26.3467 43.6611 26.2366 44.0073 25.9061C44.3064 25.6228 44.4795 25.2136 44.4638 24.8043C44.4638 24.7257 44.4323 24.647 44.4165 24.584C44.6526 22.774 44.873 20.9641 45.1091 19.1699C45.1877 18.5561 44.511 17.958 43.9286 17.9895C43.2204 18.0209 42.8269 18.5088 42.7482 19.1699C42.4964 21.1372 42.2446 23.1203 41.9928 25.0876C41.9298 25.5441 42.339 26.0005 42.7168 26.1736V26.1579Z" fill="#5C564D"/>
<path d="M43.1889 29.9975C44.7156 29.9975 44.7156 27.6367 43.1889 27.6367C41.6623 27.6367 41.6623 29.9975 43.1889 29.9975Z" fill="#5C564D"/>
<path d="M36.1059 30.0913C37.6326 30.0913 37.6326 27.7305 36.1059 27.7305C34.5793 27.7305 34.5793 30.0913 36.1059 30.0913Z" fill="#5C564D"/>
<path d="M21.9726 35.0484C22.2244 35.253 22.5235 35.3474 22.8383 35.3317C23.1688 35.3159 23.515 35.3159 23.8455 35.3317C24.0344 35.3317 24.2075 35.3632 24.3964 35.3789C24.7112 35.4104 25.0102 35.3789 25.2778 35.19C25.5138 35.0326 25.7342 34.7179 25.7657 34.4346C25.8129 34.1355 25.7657 33.805 25.5768 33.5532C25.3879 33.3171 25.1361 33.0968 24.8213 33.0653C24.0974 32.9709 23.3576 32.9551 22.6336 33.0023C22.3346 33.0181 22.0356 33.1912 21.8467 33.4116C21.6578 33.6319 21.5319 33.9939 21.5634 34.2772C21.5949 34.5762 21.7208 34.8753 21.9726 35.0641V35.0484Z" fill="#5C564D"/>
<path d="M25.4358 38.9831C25.5617 38.9044 25.6719 38.7942 25.7349 38.6526C25.8765 38.4008 25.9395 38.023 25.8608 37.7397C25.7663 37.4564 25.5932 37.1732 25.3257 37.0315C25.0581 36.8899 24.7118 36.7954 24.4128 36.9056C23.7833 37.1417 23.1222 37.3148 22.4612 37.4092C22.3038 37.4407 22.1779 37.5194 22.052 37.6138C21.9261 37.6925 21.8159 37.8027 21.753 37.9444C21.6113 38.1962 21.5484 38.5739 21.6271 38.8572C21.7215 39.1405 21.8946 39.4238 22.1622 39.5654C22.2566 39.6127 22.351 39.6441 22.4455 39.6913C22.6501 39.7543 22.8704 39.7543 23.075 39.6913C23.736 39.5969 24.3971 39.4238 25.0266 39.1877C25.184 39.1562 25.3099 39.0775 25.4358 38.9831Z" fill="#5C564D"/>
<path d="M26.741 39.8175C26.4419 39.8175 26.1114 39.9277 25.9068 40.1637L23.8765 42.5403C23.6719 42.7764 23.5303 43.0439 23.5303 43.3744C23.5303 43.6577 23.6562 44.004 23.8765 44.2086C24.0969 44.4132 24.3959 44.5706 24.7107 44.5549C25.0097 44.5549 25.3402 44.4447 25.5448 44.2086L27.5751 41.8321C27.7797 41.596 27.9214 41.3284 27.9214 40.9979C27.9214 40.7146 27.7955 40.3683 27.5751 40.1637C27.3548 39.9591 27.0558 39.8018 26.741 39.8175Z" fill="#5C564D"/>
<path d="M27.4809 36.182C27.2763 36.245 27.1031 36.3394 26.9615 36.481C26.8985 36.5597 26.8356 36.6384 26.7726 36.7171C26.6625 36.906 26.6152 37.0949 26.6152 37.3152V37.4254C26.6152 37.5828 26.6467 37.7401 26.7097 37.8818C26.7569 38.0234 26.8356 38.1494 26.9615 38.2595C27.0717 38.3697 27.1976 38.4484 27.3392 38.5113C27.4809 38.59 27.6383 38.6215 27.7956 38.6058C27.9058 38.6058 28.0002 38.5743 28.1104 38.5586C28.315 38.4956 28.4881 38.4012 28.6298 38.2595C28.6927 38.1808 28.7557 38.1021 28.8187 38.0234C28.9288 37.8346 28.976 37.6457 28.976 37.4254V37.3152C28.976 37.1578 28.9446 37.0004 28.8816 36.8588C28.8344 36.7171 28.7557 36.5912 28.6298 36.481C28.5196 36.3709 28.3937 36.2922 28.2521 36.2292C28.1104 36.1505 27.953 36.1191 27.7956 36.1348C27.6855 36.1348 27.591 36.1663 27.4809 36.182Z" fill="#5C564D"/>
<path d="M57.9194 35.0484C57.6676 35.253 57.3686 35.3474 57.0538 35.3317C56.7233 35.3159 56.377 35.3159 56.0465 35.3317C55.8577 35.3317 55.6845 35.3632 55.4957 35.3789C55.1809 35.4104 54.8819 35.3789 54.6143 35.19C54.3782 35.0326 54.1579 34.7179 54.1264 34.4346C54.0792 34.1355 54.1264 33.805 54.3153 33.5532C54.5041 33.3171 54.756 33.0968 55.0707 33.0653C55.7947 32.9709 56.5344 32.9551 57.2584 33.0023C57.5575 33.0181 57.8565 33.1912 58.0454 33.4116C58.2342 33.6319 58.3601 33.9939 58.3287 34.2772C58.2972 34.5762 58.1713 34.8753 57.9194 35.0641V35.0484Z" fill="#5C564D"/>
<path d="M54.4573 38.9831C54.3314 38.9044 54.2212 38.7942 54.1582 38.6526C54.0166 38.4008 53.9536 38.023 54.0323 37.7397C54.1268 37.4564 54.2999 37.1732 54.5674 37.0315C54.835 36.8899 55.1813 36.7954 55.4803 36.9056C56.1098 37.1417 56.7709 37.3148 57.4319 37.4092C57.5893 37.4407 57.7152 37.5194 57.8411 37.6138C57.967 37.6925 58.0772 37.8027 58.1401 37.9444C58.2818 38.1962 58.3447 38.5739 58.266 38.8572C58.1716 39.1405 57.9985 39.4238 57.7309 39.5654C57.6365 39.6127 57.5421 39.6441 57.4476 39.6913C57.243 39.7543 57.0227 39.7543 56.8181 39.6913C56.1571 39.5969 55.496 39.4238 54.8665 39.1877C54.7091 39.1562 54.5832 39.0775 54.4573 38.9831Z" fill="#5C564D"/>
<path d="M53.1511 39.8175C53.4501 39.8175 53.7807 39.9277 53.9853 40.1637L56.0156 42.5403C56.2202 42.7764 56.3618 43.0439 56.3618 43.3744C56.3618 43.6577 56.2359 44.004 56.0156 44.2086C55.7952 44.4132 55.4962 44.5706 55.1814 44.5549C54.8824 44.5549 54.5519 44.4447 54.3472 44.2086L52.317 41.8321C52.1124 41.596 51.9707 41.3284 51.9707 40.9979C51.9707 40.7146 52.0966 40.3683 52.317 40.1637C52.5373 39.9591 52.8363 39.8018 53.1511 39.8175Z" fill="#5C564D"/>
<path d="M52.4112 36.182C52.6158 36.245 52.7889 36.3394 52.9306 36.481C52.9935 36.5597 53.0565 36.6384 53.1194 36.7171C53.2296 36.906 53.2768 37.0949 53.2768 37.3152V37.4254C53.2768 37.5828 53.2454 37.7401 53.1824 37.8818C53.1352 38.0234 53.0565 38.1494 52.9306 38.2595C52.8204 38.3697 52.6945 38.4484 52.5528 38.5113C52.4112 38.59 52.2538 38.6215 52.0964 38.6058C51.9862 38.6058 51.8918 38.5743 51.7817 38.5586C51.577 38.4956 51.4039 38.4012 51.2623 38.2595C51.1993 38.1808 51.1364 38.1021 51.0734 38.0234C50.9632 37.8346 50.916 37.6457 50.916 37.4254V37.3152C50.916 37.1578 50.9475 37.0004 51.0105 36.8588C51.0577 36.7171 51.1364 36.5912 51.2623 36.481C51.3724 36.3709 51.4984 36.2922 51.64 36.2292C51.7817 36.1505 51.939 36.1191 52.0964 36.1348C52.2066 36.1348 52.301 36.1663 52.4112 36.182Z" fill="#5C564D"/>
<path d="M30.0466 31.1785C30.0781 31.3359 30.1568 31.4618 30.2512 31.5877C30.3299 31.7136 30.4401 31.8238 30.5817 31.8867C30.7234 31.9654 30.865 32.0126 31.0224 32.0284C31.1798 32.0598 31.3372 32.0598 31.4946 32.0126C31.7779 31.9182 32.0612 31.7451 32.2028 31.4775C32.3445 31.21 32.4232 30.8637 32.3287 30.5647C32.2658 30.3601 32.2186 30.1555 32.1871 29.9509C32.1871 29.8249 32.1556 29.6833 32.1714 29.5574C32.1714 29.4 32.1399 29.2426 32.0769 29.101C32.0297 28.9593 31.951 28.8334 31.8251 28.7232C31.7149 28.6131 31.589 28.5344 31.4474 28.4714C31.3057 28.3927 31.1483 28.3612 30.991 28.377C30.6919 28.377 30.3614 28.4872 30.1568 28.7232C29.9365 28.9593 29.8105 29.2426 29.8105 29.5574C29.8105 29.8879 29.842 30.2027 29.905 30.5332C29.9365 30.7535 29.9994 30.9896 30.0781 31.21L30.0466 31.1785Z" fill="#5C564D"/>
<path d="M48.6972 29.2268C48.6972 29.0694 48.65 28.9278 48.5713 28.7861C48.5083 28.6445 48.4296 28.5186 48.3037 28.4241C48.1936 28.314 48.0519 28.2353 47.8945 28.2038C47.7529 28.1408 47.5955 28.1094 47.4224 28.1251C47.3279 28.1408 47.2178 28.1723 47.1233 28.1881C46.9345 28.251 46.7613 28.3612 46.6197 28.5186C46.5567 28.5973 46.5095 28.6917 46.4466 28.7704C46.3521 28.9593 46.3049 29.1639 46.3207 29.3842C46.3207 29.7934 46.2892 30.2184 46.2734 30.6276C46.2734 30.7849 46.3207 30.9266 46.3993 31.0682C46.4623 31.2099 46.541 31.3358 46.6669 31.4302C46.7771 31.5404 46.9187 31.6191 47.0761 31.6506C47.2178 31.7135 47.3751 31.745 47.5483 31.7293C47.6427 31.7135 47.7529 31.6821 47.8473 31.6663C48.0362 31.6034 48.2093 31.4932 48.351 31.3358C48.4139 31.2571 48.4611 31.1627 48.5241 31.084C48.6185 30.8951 48.6657 30.6905 48.65 30.4702C48.65 30.061 48.6815 29.636 48.6972 29.2268Z" fill="#5C564D"/>
</g>
<path d="M31.6674 36.0418C32.5192 36.0418 33.2098 35.3513 33.2098 34.4994C33.2098 33.6476 32.5192 32.957 31.6674 32.957C30.8156 32.957 30.125 33.6476 30.125 34.4994C30.125 35.3513 30.8156 36.0418 31.6674 36.0418Z" fill="#231F20"/>
<path d="M47.6733 36.0418C48.5251 36.0418 49.2157 35.3513 49.2157 34.4994C49.2157 33.6476 48.5251 32.957 47.6733 32.957C46.8214 32.957 46.1309 33.6476 46.1309 34.4994C46.1309 35.3513 46.8214 36.0418 47.6733 36.0418Z" fill="#231F20"/>
<path d="M39.678 37.1277C40.4429 37.1277 41.063 36.7402 41.063 36.2621C41.063 35.784 40.4429 35.3965 39.678 35.3965C38.9131 35.3965 38.293 35.784 38.293 36.2621C38.293 36.7402 38.9131 37.1277 39.678 37.1277Z" fill="#231F20"/>
<path d="M32.0441 22.8058C34.4993 21.7985 37.0805 21.1375 39.7403 21.1532C42.4002 21.169 45.0128 21.83 47.531 22.7114C48.255 22.9632 48.554 21.8142 47.8458 21.5782C45.2332 20.6653 42.5104 20.0043 39.7403 19.9886C36.9703 19.9728 34.279 20.6496 31.7293 21.6883C31.4303 21.8142 31.2257 22.0818 31.3201 22.4123C31.3988 22.6956 31.7451 22.9474 32.0441 22.8215V22.8058Z" fill="#231F20"/>
<path d="M25.7959 26.3004C23.1676 29.1648 21.6724 33.1467 22.0501 37.0499C22.4278 40.9531 24.5053 44.1481 27.7318 46.1154C29.4945 47.1857 31.5563 47.7837 33.6338 47.705C34.3893 47.6736 34.3893 46.4932 33.6338 46.5246C30.3444 46.6348 27.1652 44.9035 25.2451 42.2594C23.1676 39.4107 22.7269 35.7593 23.7027 32.407C24.2693 30.4554 25.2765 28.6454 26.6616 27.1345C27.1809 26.5679 26.3468 25.7338 25.8274 26.3004H25.7959Z" fill="#231F20"/>
<path d="M53.2284 27.1327C55.6207 29.7453 56.9428 33.3495 56.6437 36.8907C56.3447 40.4319 54.4246 43.3278 51.5444 45.0748C49.939 46.0506 48.1291 46.57 46.2404 46.5071C45.485 46.4756 45.485 47.656 46.2404 47.6875C49.9233 47.7976 53.3858 45.8618 55.5735 42.9501C57.9028 39.8496 58.3907 35.7575 57.3205 32.0746C56.7067 29.9184 55.5735 27.9353 54.0626 26.2828C53.5432 25.7162 52.709 26.5503 53.2284 27.1169V27.1327Z" fill="#231F20"/>
<path d="M24.7578 13.2517C22.3655 19.0436 21.6101 25.4335 22.5072 31.6345C22.5544 31.9493 22.9479 32.1224 23.2312 32.0438C23.5774 31.9493 23.6876 31.6345 23.6404 31.3198C22.7747 25.3391 23.5931 19.1537 25.891 13.5665C26.0169 13.2674 25.7651 12.9212 25.4818 12.8425C25.1513 12.7481 24.8837 12.9684 24.7578 13.2517Z" fill="#231F20"/>
<path d="M26.9771 13.0632C26.9771 13.0632 27.0558 13.0947 27.0715 13.0947C27.0086 13.0632 27.1345 13.1419 27.1502 13.1577C27.1187 13.1262 27.2132 13.2206 27.2289 13.2364C27.2919 13.2836 27.3391 13.3465 27.3863 13.4095C27.5437 13.5984 27.7326 13.8817 27.9057 14.1335C28.2991 14.7001 28.6926 15.2824 29.0546 15.8647C29.7943 17.0609 30.4711 18.2885 31.0849 19.5476C31.4154 20.2401 31.7617 20.9169 31.9033 21.6723C31.9663 21.9871 32.344 22.1602 32.6273 22.0815C32.9578 21.9871 33.0995 21.6723 33.0365 21.3576C32.8949 20.6021 32.5643 19.8938 32.2338 19.2171C31.9033 18.5403 31.5728 17.8793 31.2108 17.2183C30.4868 15.8962 29.6999 14.6214 28.8343 13.4095C28.3464 12.717 27.8742 11.993 26.9614 11.8986C26.6466 11.8671 26.3633 12.1976 26.3633 12.4966C26.3633 12.8429 26.6308 13.0475 26.9614 13.0947L26.9771 13.0632Z" fill="#231F20"/>
<path d="M26.8815 17.706C26.9917 17.9421 27.1019 18.1781 27.2121 18.4142C27.2435 18.4772 27.275 18.5559 27.3065 18.6188C27.3537 18.7447 27.2908 18.5716 27.338 18.6818C27.3852 18.7919 27.4324 18.9179 27.4796 19.0438C27.6685 19.5317 27.8573 20.0353 28.0147 20.5547C28.3295 21.562 28.5656 22.585 28.7387 23.6237C28.7859 23.9228 29.1794 24.1274 29.4627 24.0329C29.7932 23.9228 29.9191 23.6395 29.8719 23.309C29.5257 21.1528 28.8646 19.0595 27.9046 17.1079C27.7629 16.8246 27.3537 16.7302 27.1019 16.9033C26.8186 17.0922 26.7399 17.4069 26.8973 17.706H26.8815Z" fill="#231F20"/>
<path d="M57.3204 31.634C57.95 27.2115 57.7611 22.7102 56.7223 18.3663C56.4705 17.2803 56.1557 16.2258 55.7938 15.1713C55.479 14.2742 55.2272 13.0623 54.456 12.4485C53.6218 11.7718 52.6775 11.9921 51.9378 12.6846C51.198 13.3771 50.5213 14.3214 49.9075 15.1713C48.5225 17.1229 47.4365 19.2634 46.6495 21.514C46.3977 22.238 47.5309 22.5371 47.7827 21.8288C48.3965 20.0503 49.2307 18.3663 50.238 16.7767C50.7574 15.974 51.3082 15.2028 51.922 14.4631C52.3155 13.9909 53.1024 12.7476 53.7792 13.4243C54.0625 13.7076 54.1727 14.164 54.2986 14.526C54.4874 14.9982 54.6448 15.4861 54.818 15.974C55.1327 16.9183 55.4003 17.8784 55.6206 18.8542C56.0771 20.7743 56.3446 22.7259 56.4548 24.6775C56.5807 26.8967 56.4863 29.1316 56.1715 31.3193C56.1243 31.634 56.2502 31.9488 56.5807 32.0433C56.864 32.1219 57.2575 31.9488 57.3047 31.634H57.3204Z" fill="#231F20"/>
<path d="M51.9379 17.1075C50.9935 19.0748 50.3168 21.1523 49.9705 23.3085C49.9233 23.6076 50.0492 23.9538 50.3797 24.0325C50.663 24.0955 51.0565 23.9538 51.1037 23.6233C51.2768 22.5846 51.5129 21.5458 51.8277 20.5543C51.9851 20.0506 52.1582 19.5627 52.3471 19.0748C52.3943 18.9489 52.4415 18.8387 52.4887 18.7128C52.4887 18.6814 52.5045 18.6656 52.5202 18.6341C52.5045 18.6813 52.5045 18.6813 52.5202 18.6341C52.5517 18.5712 52.5674 18.5082 52.5989 18.461C52.7091 18.2092 52.8192 17.9731 52.9451 17.7213C53.0868 17.438 53.0238 17.076 52.7405 16.9186C52.473 16.777 52.0795 16.8399 51.9379 17.1232V17.1075Z" fill="#231F20"/>
</svg>
