<svg width="80" height="77" viewBox="0 0 80 77" fill="none" xmlns="http://www.w3.org/2000/svg">
<mask id="mask0_188_2064" style="mask-type:luminance" maskUnits="userSpaceOnUse" x="29" y="37" width="30" height="25">
<path d="M57.4378 43.1424C56.3991 42.7646 55.4548 43.3312 54.9196 44.1496C54.2114 45.2041 54.117 46.5262 54.117 47.801C54.117 49.0601 54.2271 50.3507 53.8652 51.5626C53.2986 53.467 51.5201 54.9621 49.537 55.1825C49.7259 53.8132 49.6157 52.381 49.2694 51.0589C48.7343 49.1703 48.2464 47.2659 47.5382 45.4402C46.2948 42.2767 44.5006 39.2706 41.0538 38.2004C39.1022 37.6023 36.9145 38.1374 35.2147 39.2864C32.5077 41.1435 31.2801 45.0153 30.383 48.0371C29.659 50.4923 28.7304 52.2708 29.1396 54.9149C30.1311 61.1947 36.3007 61.3678 41.4158 61.1003C43.4146 60.9901 45.5394 60.8012 47.1604 59.6051C47.5539 59.3218 47.8687 58.9755 48.1677 58.5978C50.4971 58.9126 52.9838 57.8266 54.6678 56.2527C56.9814 54.0965 56.3047 51.8144 56.8083 49.0759C56.9972 48.0056 57.611 47.077 58.0359 46.0698C58.5238 44.9208 58.9015 43.6617 57.4378 43.1109V43.1424Z" fill="white"/>
</mask>
<g mask="url(#mask0_188_2064)">
<path d="M57.4376 43.1424C56.3988 42.7646 55.4545 43.3312 54.9194 44.1496C54.2112 45.2041 54.1167 46.5262 54.1167 47.801C54.1167 49.0601 54.2269 50.3507 53.8649 51.5626C53.2983 53.467 51.5198 54.9621 49.5368 55.1825C49.7256 53.8132 49.6154 52.381 49.2692 51.0589C48.7341 49.1703 48.2462 47.2659 47.5379 45.4402C46.2946 42.2767 44.5004 39.2706 41.0536 38.2004C39.102 37.6023 36.9143 38.1374 35.2145 39.2864C32.5074 41.1435 31.2798 45.0153 30.3827 48.0371C29.6587 50.4923 28.7301 52.2708 29.1394 54.9149C30.1309 61.1947 36.3005 61.3678 41.4156 61.1003C43.4144 60.9901 45.5391 60.8012 47.1602 59.6051C47.5537 59.3218 47.8684 58.9755 48.1675 58.5978C50.4968 58.9126 52.9835 57.8266 54.6676 56.2527C56.9812 54.0965 56.3044 51.8144 56.808 49.0759C56.9969 48.0056 57.6107 47.077 58.0357 46.0698C58.5236 44.9208 58.9013 43.6617 57.4376 43.1109V43.1424Z" fill="#F8C04E"/>
<path d="M35.671 56.4888C35.1359 55.151 32.6964 55.513 32.7751 57.0081C32.8065 57.6692 33.2944 58.1728 33.9555 58.1885C34.8998 58.22 36.1746 57.7479 35.671 56.4888Z" fill="#5C564D"/>
<path d="M30.8545 54.3169C30.8545 54.3169 30.8073 54.3011 30.7915 54.2854C29.4537 53.5771 28.2576 55.6074 29.5954 56.3314C29.6111 56.3314 29.6426 56.3472 29.6583 56.3629C30.9961 57.0711 32.1923 55.0408 30.8545 54.3169Z" fill="#5C564D"/>
<path d="M33.0741 51.7828C33.1528 51.6412 33.1843 51.4838 33.1685 51.3264C33.1685 51.2162 33.137 51.1218 33.1213 51.0116C33.0583 50.807 32.9639 50.6339 32.8223 50.4923C32.7436 50.4293 32.6649 50.3663 32.5862 50.3034C32.3973 50.1932 32.2085 50.146 31.9881 50.146H31.8779C31.7206 50.146 31.5632 50.1775 31.4215 50.2404C31.2799 50.2876 31.154 50.3663 31.0438 50.4923C30.9336 50.6024 30.8549 50.7283 30.792 50.87C30.7133 51.0116 30.6818 51.169 30.6975 51.3264C30.6975 51.4366 30.729 51.531 30.7448 51.6412C30.8077 51.8458 30.9021 52.0189 31.0438 52.1606C31.1225 52.2235 31.2012 52.2865 31.2799 52.3494C31.4687 52.4596 31.6576 52.5068 31.8779 52.5068H31.9881C32.1455 52.5068 32.3029 52.4753 32.4445 52.4124C32.5862 52.3652 32.7121 52.2865 32.8223 52.1606C32.9324 52.0504 33.0111 51.9245 33.0741 51.7828Z" fill="#5C564D"/>
<path d="M30.9649 46.6523C30.8075 46.6523 30.6501 46.6838 30.5084 46.7468C30.3668 46.794 30.2409 46.8727 30.1307 46.9986C30.0205 47.1088 29.9418 47.2347 29.8789 47.3763C29.8002 47.518 29.7687 47.6754 29.7845 47.8327C29.7845 47.9429 29.8159 48.0374 29.8317 48.1475C29.8946 48.3521 29.9891 48.5253 30.1307 48.6669C30.2094 48.7299 30.2881 48.7928 30.3668 48.8558C30.5556 48.9659 30.7445 49.0132 30.9649 49.0132H31.075C31.2324 49.0132 31.3898 48.9817 31.5315 48.9187C31.6731 48.8715 31.799 48.7928 31.9092 48.6669C32.0194 48.5567 32.098 48.4308 32.161 48.2892C32.2397 48.1475 32.2712 47.9901 32.2554 47.8327C32.2554 47.7226 32.224 47.6281 32.2082 47.518C32.1453 47.3134 32.0508 47.1402 31.9092 46.9986C31.8305 46.9356 31.7518 46.8727 31.6731 46.8097C31.4842 46.6996 31.2954 46.6523 31.075 46.6523H30.9649Z" fill="#5C564D"/>
<path d="M57.2641 45.5663L57.154 45.4561C57.0438 45.346 56.9179 45.2673 56.7762 45.2043C56.6346 45.1256 56.4772 45.0942 56.3198 45.1099C56.1624 45.1099 56.005 45.1414 55.8634 45.2043C55.7217 45.2515 55.5958 45.3302 55.4857 45.4561C55.4227 45.5348 55.3598 45.6135 55.2968 45.6922C55.1866 45.8811 55.1394 46.07 55.1394 46.2903C55.1394 46.4005 55.1709 46.4949 55.1866 46.6051C55.2496 46.8097 55.344 46.9828 55.4857 47.1245C55.5171 47.1559 55.5486 47.1874 55.5958 47.2346C55.706 47.3448 55.8319 47.4235 55.9736 47.4864C56.1152 47.5651 56.2726 47.5966 56.43 47.5809C56.5874 47.5809 56.7448 47.5494 56.8864 47.4864C57.0281 47.4392 57.154 47.3605 57.2641 47.2346C57.3271 47.1559 57.39 47.0772 57.453 46.9985C57.5632 46.8097 57.6104 46.6208 57.6104 46.4005C57.6104 46.2903 57.5789 46.1959 57.5632 46.0857C57.5002 45.8811 57.4058 45.708 57.2641 45.5663Z" fill="#5C564D"/>
<path d="M56.2412 49.2646L56.131 49.1544C56.0208 49.0442 55.8949 48.9655 55.7533 48.9026C55.6116 48.8239 55.4542 48.7924 55.2969 48.8081C55.1395 48.8081 54.9821 48.8396 54.8404 48.9026C54.6988 48.9498 54.5729 49.0285 54.4627 49.1544C54.3997 49.2331 54.3368 49.3118 54.2738 49.3905C54.1637 49.5793 54.1165 49.7682 54.1165 49.9885C54.1165 50.0987 54.1479 50.1931 54.1637 50.3033C54.2266 50.5079 54.3211 50.681 54.4627 50.8227C54.4942 50.8542 54.5257 50.8856 54.5729 50.9329C54.683 51.043 54.809 51.1217 54.9506 51.1847C55.0923 51.2634 55.2496 51.2949 55.407 51.2791C55.5644 51.2791 55.7218 51.2476 55.8635 51.1847C56.0051 51.1375 56.131 51.0588 56.2412 50.9329C56.3041 50.8542 56.3671 50.7755 56.43 50.6968C56.5402 50.5079 56.5874 50.3191 56.5874 50.0987C56.5874 49.9885 56.556 49.8941 56.5402 49.7839C56.4773 49.5793 56.3828 49.4062 56.2412 49.2646Z" fill="#5C564D"/>
<path d="M54.1794 53.168C54.1007 53.1051 54.0221 53.0421 53.9434 52.9792C53.7545 52.869 53.5656 52.8218 53.3453 52.8218H53.2351C53.0777 52.8218 52.9203 52.8533 52.7787 52.9162C52.637 52.9634 52.5111 53.0421 52.401 53.168C52.2908 53.2782 52.2121 53.4041 52.1492 53.5458C52.0705 53.6874 52.039 53.8448 52.0547 54.0022C52.0547 54.1124 52.0862 54.2068 52.1019 54.317C52.1649 54.5216 52.2593 54.6947 52.401 54.8363C52.4797 54.8993 52.5584 54.9622 52.637 55.0252C52.8259 55.1354 53.0148 55.1826 53.2351 55.1826H53.3453C53.5027 55.1826 53.6601 55.1511 53.8017 55.0882C53.9434 55.0409 54.0693 54.9622 54.1794 54.8363C54.2896 54.7262 54.3683 54.6003 54.4313 54.4586C54.51 54.317 54.5414 54.1596 54.5257 54.0022C54.5257 53.892 54.4942 53.7976 54.4785 53.6874C54.4155 53.4828 54.3211 53.3097 54.1794 53.168Z" fill="#5C564D"/>
<path d="M44.6258 55.6703C43.7602 55.4972 42.6585 55.6546 42.8316 56.8822C42.9575 57.7636 44.1537 58.2672 44.9091 57.8265C45.1609 57.6849 45.3813 57.4016 45.4442 57.1183C45.5072 56.8192 45.4915 56.473 45.3183 56.2054C45.1609 55.9536 44.9091 55.7175 44.6101 55.6703H44.6258Z" fill="#5C564D"/>
<path d="M35.2773 47.014C35.0726 47.077 34.8995 47.1714 34.7579 47.3131C34.6949 47.3918 34.632 47.4705 34.569 47.5492C34.4588 47.738 34.4116 47.9269 34.4116 48.1472V48.2574C34.4116 48.4148 34.4431 48.5722 34.5061 48.7138C34.5533 48.8555 34.632 48.9814 34.7579 49.0916C34.868 49.2017 34.994 49.2804 35.1356 49.3434C35.2773 49.4221 35.4346 49.4535 35.592 49.4378C35.7022 49.4378 35.7966 49.4063 35.9068 49.3906C36.1114 49.3276 36.2845 49.2332 36.4262 49.0916C36.4891 49.0129 36.5521 48.9342 36.615 48.8555C36.7252 48.6666 36.7724 48.4777 36.7724 48.2574V48.1472C36.7724 47.9898 36.741 47.8325 36.678 47.6908C36.6308 47.5492 36.5521 47.4232 36.4262 47.3131C36.316 47.2029 36.1901 47.1242 36.0484 47.0613C35.9068 46.9826 35.7494 46.9511 35.592 46.9668C35.4819 46.9668 35.3874 46.9983 35.2773 47.014Z" fill="#5C564D"/>
<path d="M47.6005 54.3169C47.6005 54.3169 47.6477 54.3011 47.6635 54.2854C49.0013 53.5771 50.1974 55.6074 48.8596 56.3314C48.8439 56.3314 48.8124 56.3472 48.7967 56.3629C47.4589 57.0711 46.2627 55.0408 47.6005 54.3169Z" fill="#5C564D"/>
<path d="M44.9568 51.7828C44.8781 51.6412 44.8466 51.4838 44.8623 51.3264C44.8623 51.2162 44.8938 51.1218 44.9096 51.0116C44.9725 50.807 45.0669 50.6339 45.2086 50.4923C45.2873 50.4293 45.366 50.3663 45.4447 50.3034C45.6335 50.1932 45.8224 50.146 46.0427 50.146H46.1529C46.3103 50.146 46.4677 50.1775 46.6093 50.2404C46.751 50.2876 46.8769 50.3663 46.9871 50.4923C47.0972 50.6024 47.1759 50.7283 47.2389 50.87C47.3176 51.0116 47.3491 51.169 47.3333 51.3264C47.3333 51.4366 47.3018 51.531 47.2861 51.6412C47.2231 51.8458 47.1287 52.0189 46.9871 52.1606C46.9084 52.2235 46.8297 52.2865 46.751 52.3494C46.5621 52.4596 46.3733 52.5068 46.1529 52.5068H46.0427C45.8854 52.5068 45.728 52.4753 45.5863 52.4124C45.4447 52.3652 45.3188 52.2865 45.2086 52.1606C45.0984 52.0504 45.0197 51.9245 44.9568 51.7828Z" fill="#5C564D"/>
<path d="M47.0653 46.6523C47.2226 46.6523 47.38 46.6838 47.5217 46.7468C47.6633 46.794 47.7892 46.8727 47.8994 46.9986C48.0096 47.1088 48.0883 47.2347 48.1512 47.3763C48.2299 47.518 48.2614 47.6754 48.2457 47.8327C48.2457 47.9429 48.2142 48.0374 48.1985 48.1475C48.1355 48.3521 48.0411 48.5253 47.8994 48.6669C47.8207 48.7299 47.742 48.7928 47.6633 48.8558C47.4745 48.9659 47.2856 49.0132 47.0653 49.0132H46.9551C46.7977 49.0132 46.6403 48.9817 46.4987 48.9187C46.357 48.8715 46.2311 48.7928 46.1209 48.6669C46.0108 48.5567 45.9321 48.4308 45.8691 48.2892C45.7904 48.1475 45.7589 47.9901 45.7747 47.8327C45.7747 47.7226 45.8062 47.6281 45.8219 47.518C45.8849 47.3134 45.9793 47.1402 46.1209 46.9986C46.1996 46.9356 46.2783 46.8727 46.357 46.8097C46.5459 46.6996 46.7347 46.6523 46.9551 46.6523H47.0653Z" fill="#5C564D"/>
<path d="M42.7686 47.014C42.9732 47.077 43.1463 47.1714 43.288 47.3131C43.351 47.3918 43.4139 47.4705 43.4769 47.5492C43.587 47.738 43.6342 47.9269 43.6342 48.1472V48.2574C43.6342 48.4148 43.6028 48.5722 43.5398 48.7138C43.4926 48.8555 43.4139 48.9814 43.288 49.0916C43.1778 49.2017 43.0519 49.2804 42.9103 49.3434C42.7686 49.4221 42.6112 49.4535 42.4538 49.4378C42.3437 49.4378 42.2492 49.4063 42.1391 49.3906C41.9345 49.3276 41.7613 49.2332 41.6197 49.0916C41.5567 49.0129 41.4938 48.9342 41.4308 48.8555C41.3207 48.6666 41.2734 48.4777 41.2734 48.2574V48.1472C41.2734 47.9898 41.3049 47.8325 41.3679 47.6908C41.4151 47.5492 41.4938 47.4232 41.6197 47.3131C41.7299 47.2029 41.8558 47.1242 41.9974 47.0613C42.1391 46.9826 42.2965 46.9511 42.4538 46.9668C42.564 46.9668 42.6584 46.9983 42.7686 47.014Z" fill="#5C564D"/>
</g>
<path d="M32.1458 42.0089C31.4847 43.4254 30.8552 44.8734 30.2729 46.3213C29.6905 47.7693 29.1397 49.1228 28.7619 50.5708C28.1009 53.1205 28.0537 55.922 29.5017 58.2198C30.2256 59.3687 31.2329 60.2344 32.492 60.7223C33.2003 60.9898 33.515 59.8566 32.8068 59.5891C30.0682 58.5346 29.2341 55.2137 29.5646 52.5853C29.7692 50.8856 30.3673 49.2487 30.9968 47.6591C31.6736 45.9436 32.3976 44.2596 33.1688 42.5913C33.4836 41.8987 32.4763 41.3007 32.1458 41.9932V42.0089Z" fill="#231F20"/>
<path d="M32.6182 56.0008C32.6496 56.9766 32.7441 57.9681 32.9487 58.9124C33.1218 59.7466 33.531 60.5965 34.3337 60.9899C34.7586 61.1946 35.1993 61.2732 35.6557 61.289C36.0807 61.289 36.5528 61.2575 36.9621 61.1631C37.45 61.0529 37.8749 60.7539 38.111 60.3132C38.3156 59.9355 38.41 59.5105 38.473 59.0856C38.6461 57.9839 38.6933 56.8664 38.5674 55.749C38.5517 55.5916 38.5202 55.4499 38.3943 55.324C38.2841 55.2138 38.1267 55.1509 37.9693 55.1509C37.686 55.1509 37.3398 55.4184 37.3713 55.749C37.4657 56.6303 37.4657 57.5117 37.3713 58.3931C37.3713 58.456 37.3713 58.5032 37.3555 58.5662C37.3555 58.5977 37.3555 58.6134 37.3555 58.6449C37.3555 58.7393 37.3555 58.5347 37.3555 58.6449C37.3398 58.7551 37.324 58.8652 37.3083 58.9754C37.2768 59.1485 37.2454 59.3374 37.1981 59.5105C37.1981 59.5577 37.1667 59.5892 37.1509 59.6364C37.1509 59.6522 37.1509 59.6679 37.1352 59.6836C37.1194 59.7466 37.1667 59.6207 37.1667 59.6207C37.1352 59.6522 37.1352 59.6994 37.1194 59.7309C37.1037 59.7781 37.0722 59.8095 37.0408 59.8568C37.0408 59.8568 37.025 59.8882 37.0093 59.904C37.0093 59.904 37.088 59.8095 37.0408 59.8568C37.0093 59.8882 36.9778 59.9197 36.9463 59.9512C37.025 59.904 36.9463 59.9512 36.9306 59.9512C36.8991 59.9669 36.8204 59.9984 36.8047 60.0141C36.8361 59.9669 36.8991 59.9827 36.8361 60.0141C36.8204 60.0141 36.8047 60.0142 36.7732 60.0299C36.726 60.0299 36.6788 60.0614 36.6315 60.0614C36.5843 60.0614 36.5529 60.0771 36.5056 60.0928C36.4742 60.0928 36.4584 60.0928 36.4269 60.0928C36.3482 60.0928 36.4269 60.0928 36.4584 60.0928C36.3797 60.1243 36.2696 60.1086 36.1909 60.1243C36.0964 60.1243 36.0177 60.1243 35.9233 60.1401C35.7502 60.1401 35.5613 60.1401 35.3882 60.1401C35.3724 60.1401 35.3567 60.1401 35.3252 60.1401C35.2623 60.1401 35.3882 60.1401 35.3882 60.1401C35.341 60.1401 35.2937 60.1401 35.2623 60.1243C35.1678 60.1086 35.0734 60.0771 34.9947 60.0456C34.9632 60.0456 34.9318 60.0141 34.8845 60.0141C34.8845 60.0141 35.0105 60.0771 34.916 60.0141C34.9003 60.0141 34.8845 59.9984 34.8688 59.9827C34.7901 59.9355 34.7114 59.8882 34.6485 59.841C34.5855 59.7938 34.7272 59.9197 34.6799 59.8568C34.6799 59.8568 34.6485 59.8253 34.6327 59.8253C34.6012 59.7938 34.5698 59.7623 34.5383 59.7309C34.5068 59.6994 34.4911 59.6836 34.4596 59.6522C34.4596 59.6364 34.3966 59.5735 34.4596 59.6522C34.4124 59.5892 34.3809 59.5262 34.3337 59.4476C34.3179 59.4161 34.2865 59.3689 34.2707 59.3374C34.2707 59.3216 34.2707 59.3059 34.255 59.2902C34.3337 59.4161 34.2865 59.3531 34.255 59.3059C34.192 59.1485 34.1448 58.9754 34.0976 58.8023C34.0504 58.5977 34.0189 58.4088 33.9874 58.2042C33.9717 58.0783 33.956 57.9681 33.9402 57.8422C33.9402 57.8265 33.9245 57.7163 33.9402 57.795C33.956 57.8737 33.9402 57.7635 33.9402 57.7478C33.9402 57.6848 33.9245 57.6219 33.9245 57.5589C33.8615 57.0553 33.83 56.5516 33.8143 56.0323C33.8143 55.7175 33.5468 55.4342 33.2162 55.4342C32.8857 55.4342 32.6182 55.686 32.6182 56.0323V56.0008Z" fill="#231F20"/>
<path d="M45.4139 42.6068C46.1851 44.2751 46.9091 45.9591 47.5859 47.6746C48.2154 49.2642 48.8135 50.9011 49.0181 52.6009C49.3486 55.2292 48.5145 58.5501 45.7759 59.6046C45.0677 59.8722 45.3824 61.0211 46.0907 60.7378C48.3413 59.8722 49.7578 57.716 50.1513 55.3866C50.6392 52.4592 49.6162 49.5633 48.5459 46.8877C47.8849 45.2509 47.1924 43.6298 46.4369 42.0244C46.1222 41.3319 45.0992 41.93 45.4139 42.6225V42.6068Z" fill="#231F20"/>
<path d="M44.784 56.0004C44.784 56.4568 44.7368 56.8975 44.6896 57.3539C44.6896 57.4641 44.6739 57.5585 44.6581 57.6687C44.6581 57.7002 44.6581 57.7159 44.6581 57.7474C44.6581 57.8104 44.6424 57.8733 44.6267 57.9363C44.5952 58.1251 44.5637 58.314 44.5322 58.5186C44.5007 58.6917 44.4535 58.8648 44.4063 59.038C44.3748 59.1167 44.3591 59.1954 44.3276 59.274L44.2961 59.337C44.2961 59.337 44.3434 59.2268 44.3119 59.274C44.2961 59.3213 44.2647 59.3685 44.2489 59.4C44.2175 59.4629 44.1702 59.5416 44.123 59.6046C44.123 59.6203 44.0915 59.6518 44.0758 59.6675C44.0758 59.6675 44.1545 59.5731 44.1073 59.6203C44.0758 59.6518 44.0443 59.699 44.0128 59.7305C43.9814 59.762 43.9656 59.7777 43.9342 59.8092C43.9184 59.8249 43.9027 59.8406 43.8712 59.8564C43.824 59.9036 43.9184 59.8249 43.9184 59.8249C43.8397 59.8564 43.7768 59.9193 43.6981 59.9666C43.6823 59.9666 43.5407 60.0453 43.6351 59.998C43.7138 59.9666 43.5879 59.998 43.5722 60.0138C43.4935 60.0452 43.399 60.061 43.3203 60.0767C43.2731 60.0767 43.2259 60.0767 43.1944 60.0925C43.1315 60.0925 43.2574 60.0925 43.2574 60.0925H43.1787C43.0843 60.0925 43.0056 60.0925 42.9111 60.0925C42.7223 60.0925 42.5491 60.0925 42.3603 60.0767C42.2816 60.0767 42.1872 60.061 42.1085 60.0452C42.0455 60.0452 42.1714 60.0452 42.1714 60.0452C42.1399 60.0452 42.1085 60.0452 42.0927 60.0452C42.0455 60.0452 41.9826 60.0295 41.9353 60.0138C41.8881 60.0138 41.8566 59.998 41.8094 59.9823C41.7779 59.9823 41.7622 59.9666 41.7307 59.9508C41.715 59.9508 41.6835 59.9193 41.6678 59.9036C41.652 59.9036 41.6363 59.8879 41.6206 59.8721C41.5576 59.8406 41.6993 59.9508 41.652 59.9036C41.6206 59.8721 41.5891 59.8406 41.5576 59.8092C41.5104 59.7462 41.4789 59.6675 41.4317 59.5888C41.4002 59.5259 41.4632 59.6518 41.4632 59.6518C41.4632 59.636 41.4474 59.6046 41.4317 59.5888C41.4317 59.5573 41.416 59.5259 41.4002 59.4787C41.3687 59.3842 41.353 59.3055 41.3373 59.2111C41.29 59.0065 41.2586 58.8019 41.2271 58.5973C41.2271 58.5343 41.2271 58.6288 41.2271 58.6288C41.2271 58.5973 41.2271 58.5658 41.2271 58.5343C41.2271 58.4714 41.2271 58.4084 41.2114 58.3455C41.2114 58.2196 41.1799 58.0936 41.1799 57.9677C41.1641 57.7159 41.1484 57.4798 41.1484 57.228C41.1484 56.7244 41.1641 56.2207 41.2271 55.7328C41.2586 55.4181 40.9281 55.1348 40.629 55.1348C40.2828 55.1348 40.0782 55.4023 40.031 55.7328C39.9208 56.6929 39.9365 57.653 40.0624 58.613C40.1883 59.5731 40.33 60.6276 41.3058 61.0368C41.7307 61.2099 42.2029 61.2571 42.6436 61.2729C43.0685 61.2886 43.5092 61.2729 43.9184 61.1312C44.3434 60.9896 44.7368 60.7535 45.0201 60.3915C45.3034 60.0295 45.4923 59.6203 45.6025 59.1954C45.7441 58.6917 45.8071 58.1566 45.87 57.6372C45.933 57.0864 45.9802 56.5513 45.9959 56.0004C45.9959 55.6856 45.7126 55.4023 45.3979 55.4023C45.0673 55.4023 44.8155 55.6541 44.7998 56.0004H44.784Z" fill="#231F20"/>
<path d="M51.7564 55.0563C53.346 54.3008 54.0857 52.5066 54.306 50.854C54.5421 49.0126 54.2273 46.9665 55.1087 45.251C55.2976 44.8733 55.5337 44.5428 55.8327 44.2595C56.0845 44.0234 56.5567 43.6457 56.9344 43.7401C57.6741 43.9132 57.9889 42.78 57.2492 42.6069C56.2891 42.3866 55.3291 43.0319 54.731 43.7244C54.1329 44.4169 53.7709 45.2353 53.5663 46.1009C53.0941 48.084 53.5191 50.193 52.7951 52.1289C52.4961 52.9473 51.961 53.6555 51.1583 54.0332C50.875 54.1749 50.7963 54.5841 50.9537 54.8359C51.1268 55.1349 51.4731 55.1822 51.7564 55.0405V55.0563Z" fill="#231F20"/>
<path d="M48.7503 59.0225C51.5833 59.1484 54.3061 57.6218 55.8957 55.3082C56.7298 54.0806 57.1233 52.7113 57.2492 51.2476C57.3122 50.4134 57.3122 49.5635 57.4381 48.7294C57.564 47.8952 57.8788 47.2185 58.3037 46.5102C58.7287 45.802 59.0907 44.9836 58.8546 44.1179C58.65 43.3625 58.0676 42.7644 57.265 42.7487C56.5095 42.7172 56.5095 43.8976 57.265 43.9291C57.6584 43.9291 57.7843 44.5271 57.7371 44.8419C57.6584 45.5029 57.1548 46.0695 56.8558 46.6519C56.179 47.9897 56.179 49.4848 56.0846 50.9485C56.0059 52.2234 55.7226 53.388 55.0458 54.474C54.4163 55.4813 53.5349 56.3155 52.5119 56.9135C51.3629 57.5903 50.0724 57.9365 48.7346 57.8736C47.9791 57.8421 47.9791 59.0225 48.7346 59.054L48.7503 59.0225Z" fill="#231F20"/>
<path d="M34.6323 59.1327C34.6323 59.2429 34.6323 59.3531 34.6638 59.479C34.6638 59.5577 34.6953 59.6364 34.711 59.7151C34.7425 59.8252 34.7897 59.9354 34.8369 60.0298C34.8684 60.1085 34.9156 60.1715 34.9628 60.2502C34.9943 60.2974 35.0258 60.3289 35.0573 60.3603C35.0887 60.3918 35.136 60.4233 35.1989 60.4233C35.2461 60.439 35.3091 60.439 35.3563 60.4233C35.4035 60.4233 35.4507 60.4076 35.498 60.3761C35.5766 60.3289 35.6553 60.2344 35.6711 60.14C35.6868 60.0456 35.6868 59.9197 35.6239 59.841C35.5609 59.7623 35.5137 59.6678 35.4822 59.5734L35.5294 59.6678C35.4665 59.5419 35.435 59.4003 35.4193 59.2586V59.3688C35.4193 59.3688 35.4193 59.2114 35.4193 59.1327C35.4193 59.0855 35.4193 59.0226 35.3878 58.9753C35.372 58.9281 35.3406 58.8809 35.3091 58.8494C35.2776 58.818 35.2304 58.7865 35.1832 58.7707C35.136 58.7393 35.0887 58.7393 35.0258 58.7393C34.9314 58.7393 34.8212 58.7707 34.7425 58.8494C34.6638 58.9281 34.6323 59.0226 34.6323 59.1327Z" fill="#231F20"/>
<path d="M35.9389 59.5104L36.0805 60.2973C36.0805 60.2973 36.112 60.3917 36.1435 60.4389C36.175 60.4862 36.2064 60.5176 36.2537 60.5334C36.3009 60.5649 36.3481 60.5806 36.3953 60.5806C36.4425 60.5806 36.5055 60.5806 36.5527 60.5806L36.6471 60.5334C36.6471 60.5334 36.7573 60.4547 36.7888 60.3917L36.836 60.2973C36.836 60.2973 36.8517 60.1557 36.836 60.0927L36.6943 59.3058C36.6943 59.3058 36.6629 59.2113 36.6314 59.1641C36.5999 59.1169 36.5684 59.0854 36.5212 59.0697C36.474 59.0382 36.4268 59.0225 36.3796 59.0225C36.3323 59.0225 36.2694 59.0225 36.2222 59.0225L36.1277 59.0697C36.1277 59.0697 36.0176 59.1484 35.9861 59.2113L35.9389 59.3058C35.9389 59.3058 35.9231 59.4474 35.9389 59.5104Z" fill="#231F20"/>
<path d="M41.8412 59.0381C41.8097 59.1483 41.7939 59.2585 41.7939 59.3686C41.7939 59.4473 41.7939 59.526 41.7939 59.6205C41.7939 59.7306 41.8254 59.8408 41.8569 59.951C41.8884 60.0612 41.9356 60.1713 41.9828 60.2658C42.0143 60.313 42.0458 60.3444 42.0772 60.3759C42.1087 60.4074 42.1559 60.4389 42.2189 60.4389C42.2661 60.4546 42.3291 60.4546 42.3763 60.4389C42.4235 60.4389 42.4707 60.4231 42.5179 60.3917C42.5966 60.3445 42.6753 60.25 42.6911 60.1556V60.0454C42.6911 60.0454 42.6911 59.9038 42.6438 59.8408C42.6438 59.8251 42.6281 59.8093 42.6124 59.7779L42.6596 59.8723C42.6124 59.7621 42.5809 59.6519 42.5651 59.526V59.6362C42.5651 59.5103 42.5651 59.4001 42.5651 59.2742V59.3844C42.5651 59.3844 42.5651 59.2742 42.5809 59.227C42.5966 59.1798 42.5966 59.1168 42.5809 59.0696C42.5809 59.0224 42.5651 58.9752 42.5337 58.928C42.5022 58.8807 42.4707 58.8493 42.4392 58.8178C42.4078 58.7863 42.3605 58.7548 42.2976 58.7548C42.2032 58.7391 42.0772 58.7391 41.9986 58.8021C41.9199 58.865 41.8412 58.9437 41.8254 59.0381H41.8412Z" fill="#231F20"/>
<path d="M43.116 59.3689C43.116 59.3689 43.1318 59.4633 43.1475 59.4948V59.3846C43.1475 59.5105 43.1475 59.6364 43.1475 59.7466V59.6364C43.1475 59.7623 43.116 59.8725 43.0688 59.9827L43.116 59.8883C43.116 59.8883 43.1003 59.9355 43.0846 59.9512C43.0531 59.9984 43.0374 60.0456 43.0374 60.0929C43.0374 60.1401 43.0374 60.203 43.0374 60.2502C43.0374 60.2975 43.0688 60.3447 43.1003 60.3919C43.1318 60.4391 43.1633 60.4706 43.2105 60.4863C43.3049 60.5335 43.4151 60.565 43.5095 60.5335C43.6039 60.5021 43.6984 60.4391 43.7456 60.3604C43.7928 60.266 43.84 60.1558 43.8715 60.0456C43.903 59.9355 43.9187 59.8253 43.9345 59.7151C43.9345 59.6364 43.9345 59.5577 43.9345 59.479C43.9345 59.3689 43.9187 59.2587 43.8872 59.1485C43.8872 59.1013 43.8558 59.0541 43.8243 59.0069C43.7928 58.9597 43.7613 58.9282 43.7141 58.9124C43.6669 58.881 43.6197 58.8652 43.5725 58.8652C43.5253 58.8652 43.4623 58.8652 43.4151 58.8652C43.3207 58.8967 43.2262 58.9597 43.179 59.0384L43.1318 59.1328C43.1318 59.1328 43.116 59.2744 43.1318 59.3374L43.116 59.3689Z" fill="#231F20"/>
<mask id="mask1_188_2064" style="mask-type:luminance" maskUnits="userSpaceOnUse" x="21" y="11" width="36" height="36">
<path d="M22.1838 19.6597C21.9792 21.0132 21.8532 22.3825 21.806 23.7518C21.7116 26.4431 22.168 29.0557 21.8375 31.7313C21.3024 35.9336 22.3097 40.5608 25.4417 43.4095C28.9829 46.6202 34.2396 46.8877 39.0242 46.6989C41.6841 46.5887 44.3596 46.4156 46.9251 45.6758C49.4905 44.9361 51.9457 43.6455 53.6612 41.6152C54.3537 40.7968 54.9203 39.884 55.3295 38.9082C55.9591 37.3973 56.447 35.4614 56.3683 33.8088C56.2896 32.109 55.6286 30.7398 55.9906 29.0085C56.384 27.1513 56.4942 25.4988 56.2896 23.6101C55.9276 20.2578 55.2194 16.9526 54.2121 13.7419C53.8973 12.7504 53.252 11.5543 52.2133 11.6959C51.7568 11.7589 51.3791 12.0736 51.0486 12.4041C49.6793 13.7419 48.5147 15.2843 47.6018 16.9684C46.9251 18.2117 46.7047 20.4939 45.0049 20.3365C42.9274 20.1476 41.023 19.3135 38.8668 19.2977C36.9152 19.2977 34.9794 19.581 33.1222 20.1791C32.8074 20.2735 32.4769 20.3994 32.1464 20.3679C31.4067 20.305 31.0447 19.3449 30.8401 18.7626C29.9587 16.2444 28.4635 13.9308 26.5119 12.0894C26.1027 11.6959 25.5676 11.3024 25.0325 11.4756C24.6705 11.5857 24.4344 11.932 24.2455 12.2782C23.7891 13.1124 23.4901 14.0252 23.2225 14.9381C22.7661 16.4962 22.4198 18.0701 22.1838 19.6754V19.6597Z" fill="white"/>
</mask>
<g mask="url(#mask1_188_2064)">
<path d="M22.1838 19.6597C21.9792 21.0132 21.8532 22.3825 21.806 23.7518C21.7116 26.4431 22.168 29.0557 21.8375 31.7313C21.3024 35.9336 22.3097 40.5608 25.4417 43.4095C28.9829 46.6202 34.2396 46.8877 39.0242 46.6989C41.6841 46.5887 44.3596 46.4156 46.9251 45.6758C49.4905 44.9361 51.9457 43.6455 53.6612 41.6152C54.3537 40.7968 54.9203 39.884 55.3295 38.9082C55.9591 37.3973 56.447 35.4614 56.3683 33.8088C56.2896 32.109 55.6286 30.7398 55.9906 29.0085C56.384 27.1513 56.4942 25.4988 56.2896 23.6101C55.9276 20.2578 55.2194 16.9526 54.2121 13.7419C53.8973 12.7504 53.252 11.5543 52.2133 11.6959C51.7568 11.7589 51.3791 12.0736 51.0486 12.4041C49.6793 13.7419 48.5147 15.2843 47.6018 16.9684C46.9251 18.2117 46.7047 20.4939 45.0049 20.3365C42.9274 20.1476 41.023 19.3135 38.8668 19.2977C36.9152 19.2977 34.9794 19.581 33.1222 20.1791C32.8074 20.2735 32.4769 20.3994 32.1464 20.3679C31.4067 20.305 31.0447 19.3449 30.8401 18.7626C29.9587 16.2444 28.4635 13.9308 26.5119 12.0894C26.1027 11.6959 25.5676 11.3024 25.0325 11.4756C24.6705 11.5857 24.4344 11.932 24.2455 12.2782C23.7891 13.1124 23.4901 14.0252 23.2225 14.9381C22.7661 16.4962 22.4198 18.0701 22.1838 19.6754V19.6597Z" fill="#F8C04E"/>
<path d="M27.1415 17.2518C26.3703 15.5835 25.2686 15.7094 24.6233 17.6295C23.8364 20.0061 23.5846 22.7446 23.679 25.2471C23.679 25.3415 23.742 25.8766 23.6948 25.6405C23.742 25.9711 23.8207 26.2858 23.9151 26.6006C23.9466 26.7108 23.9938 26.9154 24.0725 27.0885C24.5132 26.0812 25.127 25.1369 25.7723 24.2555C26.2444 23.626 26.7481 22.8391 27.3776 22.3669C27.7396 22.0993 28.2118 22.2095 28.4164 21.7688C28.8256 20.9032 27.5822 18.4165 27.2674 17.5823C27.2202 17.4721 27.173 17.362 27.1258 17.2518H27.1415Z" fill="white"/>
<path d="M41.9516 35.3985C40.8341 35.0051 39.638 34.832 38.6464 34.8792C36.7106 34.9579 34.5386 35.5402 33.5785 37.4131C33.0749 38.3889 33.1536 39.6323 33.7831 40.5294C35.6718 43.2522 44.0448 43.2994 44.6744 39.3175C44.9734 37.3659 43.6986 36.0281 41.9673 35.4143L41.9516 35.3985Z" fill="white"/>
<path d="M54.071 26.6952C54.1654 26.223 54.1969 25.7823 54.2441 25.2787C54.4015 23.091 54.2756 20.7931 53.6461 18.6684C53.41 17.8657 53.0637 16.9844 52.5129 16.4335C52.2925 16.2132 52.1037 16.103 51.8361 16.04C51.7732 16.0873 51.7102 16.1502 51.6315 16.1659C50.6557 17.85 49.6799 19.6127 49.5383 21.5014C49.4281 22.9493 50.6872 23.8307 51.6787 24.7121C52.2453 25.2157 52.7647 25.7194 53.2369 26.3017C53.4729 26.585 53.7248 26.8683 53.9766 27.1516C54.0081 26.9942 54.0553 26.8368 54.0867 26.6952H54.071Z" fill="white"/>
<path d="M37.7185 14.8281C37.1362 14.8281 36.4752 15.3632 36.5381 16.0085C37.026 20.6829 37.4037 25.3731 37.7028 30.079C37.7972 31.5899 40.158 31.6056 40.0636 30.079C39.7646 25.3888 39.3868 20.6987 38.8989 16.0085C38.836 15.379 38.3953 14.8281 37.7185 14.8281Z" fill="#5C564D"/>
<path d="M33.6731 24.2557C33.8147 24.8537 34.5387 25.2787 35.121 25.0741C35.7506 24.8695 36.0969 24.2714 35.9395 23.6261C35.5145 21.8162 35.0109 20.0377 34.4285 18.2907C34.2397 17.7083 33.6101 17.2677 32.9806 17.4723C32.3982 17.6611 31.9418 18.2907 32.1622 18.9202C32.7445 20.683 33.2481 22.4614 33.6731 24.2557Z" fill="#5C564D"/>
<path d="M41.7946 24.9635C42.2353 25.1524 42.739 25.0422 43.0852 24.7117C43.3843 24.4284 43.5574 24.0192 43.5416 23.61C43.5416 23.5313 43.5102 23.4526 43.4944 23.3897C43.7305 21.5797 43.9509 19.7698 44.1869 17.9755C44.2656 17.3617 43.5889 16.7637 43.0065 16.7951C42.2983 16.8266 41.9048 17.3145 41.8261 17.9755C41.5743 19.9429 41.3225 21.926 41.0707 23.8933C41.0077 24.3497 41.4169 24.8062 41.7946 24.9793V24.9635Z" fill="#5C564D"/>
<path d="M42.2668 28.8037C43.7935 28.8037 43.7935 26.4429 42.2668 26.4429C40.7402 26.4429 40.7402 28.8037 42.2668 28.8037Z" fill="#5C564D"/>
<path d="M35.1843 28.8984C36.711 28.8984 36.711 26.5376 35.1843 26.5376C33.6576 26.5376 33.6576 28.8984 35.1843 28.8984Z" fill="#5C564D"/>
<path d="M21.0507 33.856C21.3026 34.0606 21.6016 34.155 21.9164 34.1393C22.2469 34.1236 22.5931 34.1236 22.9237 34.1393C23.1125 34.1393 23.2856 34.1708 23.4745 34.1865C23.7893 34.218 24.0883 34.1865 24.3559 33.9976C24.592 33.8403 24.8123 33.5255 24.8438 33.2422C24.891 32.9432 24.8438 32.6126 24.6549 32.3608C24.4661 32.1247 24.2142 31.9044 23.8995 31.8729C23.1755 31.7785 22.4358 31.7627 21.7118 31.81C21.4127 31.8257 21.1137 31.9988 20.9248 32.2192C20.736 32.4395 20.6101 32.8015 20.6415 33.0848C20.673 33.3838 20.7989 33.6829 21.0507 33.8717V33.856Z" fill="#5C564D"/>
<path d="M24.5137 37.7907C24.6396 37.712 24.7498 37.6019 24.8127 37.4602C24.9544 37.2084 25.0174 36.8307 24.9387 36.5474C24.8442 36.2641 24.6711 35.9808 24.4035 35.8391C24.136 35.6975 23.7897 35.603 23.4907 35.7132C22.8611 35.9493 22.2001 36.1224 21.5391 36.2169C21.3817 36.2483 21.2558 36.327 21.1299 36.4215C21.004 36.5001 20.8938 36.6103 20.8308 36.752C20.6892 37.0038 20.6262 37.3815 20.7049 37.6648C20.7994 37.9481 20.9725 38.2314 21.2401 38.3731C21.3345 38.4203 21.4289 38.4517 21.5234 38.499C21.728 38.5619 21.9483 38.5619 22.1529 38.499C22.8139 38.4045 23.475 38.2314 24.1045 37.9953C24.2619 37.9638 24.3878 37.8852 24.5137 37.7907Z" fill="#5C564D"/>
<path d="M25.8196 38.6246C25.5206 38.6246 25.19 38.7348 24.9854 38.9709L22.9551 41.3474C22.7505 41.5835 22.6089 41.8511 22.6089 42.1816C22.6089 42.4649 22.7348 42.8111 22.9551 43.0157C23.1755 43.2203 23.4745 43.3777 23.7893 43.362C24.0883 43.362 24.4188 43.2518 24.6234 43.0157L26.6537 40.6392C26.8583 40.4031 27 40.1355 27 39.805C27 39.5217 26.8741 39.1755 26.6537 38.9709C26.4334 38.7663 26.1344 38.6089 25.8196 38.6246Z" fill="#5C564D"/>
<path d="M26.5592 34.9891C26.3546 35.0521 26.1815 35.1465 26.0399 35.2882C25.9769 35.3669 25.9139 35.4456 25.851 35.5243C25.7408 35.7131 25.6936 35.902 25.6936 36.1223V36.2325C25.6936 36.3899 25.7251 36.5473 25.788 36.6889C25.8353 36.8306 25.9139 36.9565 26.0399 37.0667C26.15 37.1768 26.2759 37.2555 26.4176 37.3185C26.5592 37.3972 26.7166 37.4286 26.874 37.4129C26.9842 37.4129 27.0786 37.3814 27.1888 37.3657C27.3934 37.3027 27.5665 37.2083 27.7082 37.0667C27.7711 36.988 27.8341 36.9093 27.897 36.8306C28.0072 36.6417 28.0544 36.4528 28.0544 36.2325V36.1223C28.0544 35.9649 28.0229 35.8076 27.96 35.6659C27.9128 35.5243 27.8341 35.3983 27.7082 35.2882C27.598 35.178 27.4721 35.0993 27.3304 35.0364C27.1888 34.9577 27.0314 34.9262 26.874 34.9419C26.7638 34.9419 26.6694 34.9734 26.5592 34.9891Z" fill="#5C564D"/>
<path d="M56.9981 33.856C56.7462 34.0606 56.4472 34.155 56.1324 34.1393C55.8019 34.1236 55.4557 34.1236 55.1251 34.1393C54.9363 34.1393 54.7632 34.1708 54.5743 34.1865C54.2595 34.218 53.9605 34.1865 53.6929 33.9976C53.4568 33.8403 53.2365 33.5255 53.205 33.2422C53.1578 32.9432 53.205 32.6126 53.3939 32.3608C53.5827 32.1247 53.8346 31.9044 54.1493 31.8729C54.8733 31.7785 55.613 31.7627 56.337 31.81C56.6361 31.8257 56.9351 31.9988 57.124 32.2192C57.3128 32.4395 57.4387 32.8015 57.4073 33.0848C57.3758 33.3838 57.2499 33.6829 56.9981 33.8717V33.856Z" fill="#5C564D"/>
<path d="M53.5356 37.7907C53.4097 37.712 53.2996 37.6019 53.2366 37.4602C53.095 37.2084 53.032 36.8307 53.1107 36.5474C53.2051 36.2641 53.3783 35.9808 53.6458 35.8391C53.9134 35.6975 54.2596 35.603 54.5587 35.7132C55.1882 35.9493 55.8492 36.1224 56.5103 36.2169C56.6677 36.2483 56.7936 36.327 56.9195 36.4215C57.0454 36.5001 57.1555 36.6103 57.2185 36.752C57.3602 37.0038 57.4231 37.3815 57.3444 37.6648C57.25 37.9481 57.0769 38.2314 56.8093 38.3731C56.7149 38.4203 56.6204 38.4517 56.526 38.499C56.3214 38.5619 56.1011 38.5619 55.8964 38.499C55.2354 38.4045 54.5744 38.2314 53.9448 37.9953C53.7875 37.9638 53.6615 37.8852 53.5356 37.7907Z" fill="#5C564D"/>
<path d="M52.2295 38.6246C52.5285 38.6246 52.859 38.7348 53.0636 38.9709L55.0939 41.3474C55.2985 41.5835 55.4402 41.8511 55.4402 42.1816C55.4402 42.4649 55.3143 42.8111 55.0939 43.0157C54.8736 43.2203 54.5746 43.3777 54.2598 43.362C53.9607 43.362 53.6302 43.2518 53.4256 43.0157L51.3953 40.6392C51.1907 40.4031 51.0491 40.1355 51.0491 39.805C51.0491 39.5217 51.175 39.1755 51.3953 38.9709C51.6157 38.7663 51.9147 38.6089 52.2295 38.6246Z" fill="#5C564D"/>
<path d="M51.4893 34.9891C51.6939 35.0521 51.8671 35.1465 52.0087 35.2882C52.0717 35.3669 52.1346 35.4456 52.1976 35.5243C52.3077 35.7131 52.355 35.902 52.355 36.1223V36.2325C52.355 36.3899 52.3235 36.5473 52.2605 36.6889C52.2133 36.8306 52.1346 36.9565 52.0087 37.0667C51.8985 37.1768 51.7726 37.2555 51.631 37.3185C51.4893 37.3972 51.3319 37.4286 51.1745 37.4129C51.0644 37.4129 50.9699 37.3814 50.8598 37.3657C50.6552 37.3027 50.482 37.2083 50.3404 37.0667C50.2774 36.988 50.2145 36.9093 50.1515 36.8306C50.0414 36.6417 49.9941 36.4528 49.9941 36.2325V36.1223C49.9941 35.9649 50.0256 35.8076 50.0886 35.6659C50.1358 35.5243 50.2145 35.3983 50.3404 35.2882C50.4506 35.178 50.5765 35.0993 50.7181 35.0364C50.8598 34.9577 51.0172 34.9262 51.1745 34.9419C51.2847 34.9419 51.3792 34.9734 51.4893 34.9891Z" fill="#5C564D"/>
<path d="M29.125 29.9841C29.1565 30.1415 29.2352 30.2674 29.3296 30.3933C29.4083 30.5193 29.5185 30.6294 29.6601 30.6924C29.8018 30.7711 29.9434 30.8183 30.1008 30.834C30.2582 30.8655 30.4156 30.8655 30.573 30.8183C30.8563 30.7239 31.1396 30.5507 31.2812 30.2832C31.4229 30.0156 31.5015 29.6694 31.4071 29.3703C31.3442 29.1657 31.2969 28.9611 31.2655 28.7565C31.2655 28.6306 31.234 28.489 31.2497 28.3631C31.2497 28.2057 31.2182 28.0483 31.1553 27.9066C31.1081 27.765 31.0294 27.6391 30.9035 27.5289C30.7933 27.4187 30.6674 27.34 30.5257 27.2771C30.3841 27.1984 30.2267 27.1669 30.0693 27.1826C29.7703 27.1826 29.4398 27.2928 29.2352 27.5289C29.0148 27.765 28.8889 28.0483 28.8889 28.3631C28.8889 28.6936 28.9204 29.0083 28.9833 29.3389C29.0148 29.5592 29.0778 29.7953 29.1565 30.0156L29.125 29.9841Z" fill="#5C564D"/>
<path d="M47.7753 28.033C47.7753 27.8756 47.7281 27.7339 47.6494 27.5923C47.5865 27.4506 47.5078 27.3247 47.3819 27.2303C47.2717 27.1201 47.13 27.0414 46.9727 27.0099C46.831 26.947 46.6736 26.9155 46.5005 26.9313C46.4061 26.947 46.2959 26.9785 46.2015 26.9942C46.0126 27.0572 45.8395 27.1673 45.6978 27.3247C45.6349 27.4034 45.5876 27.4979 45.5247 27.5765C45.4303 27.7654 45.383 27.97 45.3988 28.1904C45.3988 28.5996 45.3673 29.0245 45.3516 29.4337C45.3516 29.5911 45.3988 29.7328 45.4775 29.8744C45.5404 30.016 45.6191 30.142 45.745 30.2364C45.8552 30.3466 45.9969 30.4253 46.1542 30.4567C46.2959 30.5197 46.4533 30.5512 46.6264 30.5354C46.7208 30.5197 46.831 30.4882 46.9254 30.4725C47.1143 30.4095 47.2874 30.2993 47.4291 30.142C47.492 30.0633 47.5392 29.9688 47.6022 29.8901C47.6966 29.7013 47.7439 29.4967 47.7281 29.2763C47.7281 28.8671 47.7596 28.4422 47.7753 28.033Z" fill="#5C564D"/>
</g>
<path d="M30.7455 34.848C31.5974 34.848 32.2879 34.1574 32.2879 33.3056C32.2879 32.4537 31.5974 31.7632 30.7455 31.7632C29.8937 31.7632 29.2031 32.4537 29.2031 33.3056C29.2031 34.1574 29.8937 34.848 30.7455 34.848Z" fill="#231F20"/>
<path d="M46.7519 34.848C47.6037 34.848 48.2943 34.1574 48.2943 33.3056C48.2943 32.4537 47.6037 31.7632 46.7519 31.7632C45.9 31.7632 45.2095 32.4537 45.2095 33.3056C45.2095 34.1574 45.9 34.848 46.7519 34.848Z" fill="#231F20"/>
<path d="M38.7566 35.9339C39.5215 35.9339 40.1416 35.5463 40.1416 35.0683C40.1416 34.5902 39.5215 34.2026 38.7566 34.2026C37.9917 34.2026 37.3716 34.5902 37.3716 35.0683C37.3716 35.5463 37.9917 35.9339 38.7566 35.9339Z" fill="#231F20"/>
<path d="M31.1232 21.6114C33.5784 20.6042 36.1596 19.9431 38.8194 19.9589C41.4793 19.9746 44.0919 20.6356 46.6101 21.517C47.3341 21.7688 47.6331 20.6199 46.9249 20.3838C44.3123 19.471 41.5895 18.81 38.8194 18.7942C36.0494 18.7785 33.3581 19.4552 30.8084 20.494C30.5094 20.6199 30.3048 20.8875 30.3992 21.218C30.4779 21.5013 30.8242 21.7531 31.1232 21.6272V21.6114Z" fill="#231F20"/>
<path d="M24.8748 25.1055C22.2464 27.97 20.7512 31.9519 21.129 35.8551C21.5067 39.7583 23.5842 42.9533 26.8106 44.9206C28.5734 45.9908 30.6352 46.5889 32.7127 46.5102C33.4681 46.4787 33.4681 45.2983 32.7127 45.3298C29.4233 45.44 26.2441 43.7087 24.3239 41.0646C22.2464 38.2159 21.8057 34.5645 22.7815 31.2122C23.3481 29.2606 24.3554 27.4506 25.7404 25.9397C26.2598 25.3731 25.4256 24.5389 24.9063 25.1055H24.8748Z" fill="#231F20"/>
<path d="M52.3075 25.9398C54.6998 28.5524 56.0219 32.1566 55.7228 35.6978C55.4238 39.239 53.5037 42.135 50.6235 43.882C49.0181 44.8578 47.2082 45.3771 45.3195 45.3142C44.5641 45.2827 44.5641 46.4631 45.3195 46.4946C49.0024 46.6048 52.4649 44.6689 54.6526 41.7572C56.9819 38.6567 57.4698 34.5646 56.3996 30.8818C55.7858 28.7256 54.6526 26.7425 53.1417 25.0899C52.6223 24.5233 51.7881 25.3575 52.3075 25.9241V25.9398Z" fill="#231F20"/>
<path d="M23.8364 12.0579C21.4441 17.8497 20.6887 24.2396 21.5858 30.4407C21.633 30.7555 22.0265 30.9286 22.3098 30.8499C22.656 30.7555 22.7662 30.4407 22.719 30.1259C21.8533 24.1452 22.6718 17.9599 24.9696 12.3726C25.0955 12.0736 24.8437 11.7273 24.5604 11.6486C24.2299 11.5542 23.9623 11.7746 23.8364 12.0579Z" fill="#231F20"/>
<path d="M26.0552 11.8694C26.0552 11.8694 26.1339 11.9009 26.1497 11.9009C26.0867 11.8694 26.2126 11.9481 26.2283 11.9638C26.1969 11.9323 26.2913 12.0268 26.307 12.0425C26.37 12.0897 26.4172 12.1527 26.4644 12.2156C26.6218 12.4045 26.8107 12.6878 26.9838 12.9396C27.3773 13.5062 27.7707 14.0886 28.1327 14.6709C28.8724 15.867 29.5492 17.0947 30.163 18.3537C30.4935 19.0463 30.8398 19.723 30.9814 20.4785C31.0444 20.7933 31.4221 20.9664 31.7054 20.8877C32.0359 20.7933 32.1776 20.4785 32.1146 20.1637C31.973 19.4082 31.6425 18.7 31.312 18.0232C30.9814 17.3465 30.6509 16.6854 30.2889 16.0244C29.565 14.7024 28.778 13.4275 27.9124 12.2156C27.4245 11.5231 26.9523 10.7992 26.0395 10.7047C25.7247 10.6732 25.4414 11.0038 25.4414 11.3028C25.4414 11.649 25.709 11.8537 26.0395 11.9009L26.0552 11.8694Z" fill="#231F20"/>
<path d="M25.9606 16.5126C26.0708 16.7487 26.181 16.9848 26.2912 17.2209C26.3226 17.2838 26.3541 17.3625 26.3856 17.4255C26.4328 17.5514 26.3699 17.3782 26.4171 17.4884C26.4643 17.5986 26.5115 17.7245 26.5587 17.8504C26.7476 18.3383 26.9364 18.8419 27.0938 19.3613C27.4086 20.3686 27.6447 21.3916 27.8178 22.4304C27.865 22.7294 28.2585 22.934 28.5418 22.8396C28.8723 22.7294 28.9982 22.4461 28.951 22.1156C28.6048 19.9594 27.9437 17.8661 26.9837 15.9145C26.842 15.6312 26.4328 15.5368 26.181 15.7099C25.8977 15.8988 25.819 16.2136 25.9764 16.5126H25.9606Z" fill="#231F20"/>
<path d="M56.399 30.4407C57.0286 26.0181 56.8397 21.5168 55.801 17.1729C55.5491 16.087 55.2344 15.0325 54.8724 13.978C54.5576 13.0809 54.3058 11.869 53.5346 11.2552C52.7004 10.5784 51.7561 10.7987 51.0164 11.4912C50.2767 12.1838 49.5999 13.1281 48.9861 13.978C47.6011 15.9296 46.5151 18.07 45.7282 20.3207C45.4763 21.0447 46.6095 21.3437 46.8614 20.6355C47.4752 18.857 48.3093 17.1729 49.3166 15.5833C49.836 14.7806 50.3868 14.0094 51.0006 13.2697C51.3941 12.7976 52.181 11.5542 52.8578 12.231C53.1411 12.5143 53.2513 12.9707 53.3772 13.3327C53.5661 13.8048 53.7234 14.2927 53.8966 14.7806C54.2113 15.725 54.4789 16.685 54.6992 17.6608C55.1557 19.581 55.4232 21.5326 55.5334 23.4842C55.6593 25.7033 55.5649 27.9382 55.2501 30.1259C55.2029 30.4407 55.3288 30.7555 55.6593 30.8499C55.9426 30.9286 56.3361 30.7555 56.3833 30.4407H56.399Z" fill="#231F20"/>
<path d="M51.0165 15.9141C50.0721 17.8815 49.3954 19.959 49.0491 22.1152C49.0019 22.4142 49.1278 22.7605 49.4583 22.8392C49.7416 22.9021 50.1351 22.7605 50.1823 22.43C50.3554 21.3912 50.5915 20.3524 50.9063 19.3609C51.0637 18.8573 51.2368 18.3694 51.4257 17.8815C51.4729 17.7555 51.5201 17.6454 51.5673 17.5195C51.5673 17.488 51.5831 17.4723 51.5988 17.4408C51.5831 17.488 51.5831 17.488 51.5988 17.4408C51.6303 17.3778 51.646 17.3149 51.6775 17.2676C51.7877 17.0158 51.8978 16.7797 52.0238 16.5279C52.1654 16.2446 52.1024 15.8826 51.8191 15.7253C51.5516 15.5836 51.1581 15.6466 51.0165 15.9299V15.9141Z" fill="#231F20"/>
</svg>
