<svg width="80" height="77" viewBox="0 0 80 77" fill="none" xmlns="http://www.w3.org/2000/svg">
<path d="M33.4763 50.3906C33.3976 51.169 33.3504 51.9633 33.4291 52.7417C33.5393 54.0285 33.9485 55.2835 34.5938 56.3955C34.7354 56.6338 34.8928 56.8721 34.94 57.1422C35.0187 57.5075 34.9086 57.8888 34.8141 58.2383C34.279 60.097 33.8068 62.1463 34.4521 64.0367C35.0502 65.816 37.1277 66.5309 38.5914 65.1011C39.3154 67.7382 41.8651 64.7198 41.9595 64.8946C42.353 65.5777 42.9825 66.1972 43.7537 66.3085C44.5249 66.4197 45.4063 65.8478 45.422 65.0534C45.847 65.6889 46.7756 65.9431 47.4995 65.7842C47.8458 65.7048 49.1836 64.4339 49.2151 64.4498C50.2223 64.8946 51.4028 64.4498 52.3313 63.8461C54.1413 62.6546 55.4476 60.7483 56.0142 58.6672C56.5808 56.5861 55.8411 54.3144 57.1474 52.4081C57.4622 51.9474 57.9343 51.4549 57.7927 50.9148C57.651 50.3906 56.9428 50.184 56.4391 50.4064C55.9355 50.6289 55.6365 51.1372 55.4004 51.6297C54.7866 52.9959 54.881 54.378 54.582 55.8077C54.2829 57.2375 53.6062 58.7308 52.9451 60.0652C52.41 61.1455 51.4972 61.7968 50.4584 62.3687C50.364 62.4163 50.2853 62.464 50.1751 62.464C49.9233 62.464 49.8131 62.1622 49.7502 61.9239C49.4511 60.7324 49.1521 59.5251 48.8531 58.3336C48.7901 58.0636 48.7114 57.7776 48.7429 57.5075C48.7744 57.0945 48.9947 56.7132 49.1993 56.3637C51.0093 53.3136 50.663 50.3111 49.8289 46.9592C49.4039 45.2593 48.9632 43.5119 47.9088 42.1298C46.508 40.287 44.2416 39.3656 42.0539 38.619C36.026 36.5379 33.917 46.006 33.4606 50.4382L33.4763 50.3906Z" fill="#FDE0DA"/>
<path d="M35.2226 42.7979C34.4672 44.1006 33.696 45.435 33.3497 46.9124C33.0192 48.2627 33.0664 49.7401 33.696 51.011C34.0579 51.7259 34.6245 52.3614 35.3328 52.7426C36.041 53.1239 36.5919 52.0913 35.9309 51.71C34.6088 50.9793 34.2153 49.4065 34.357 47.9768C34.5144 46.3564 35.4272 44.8154 36.2456 43.4016C36.6234 42.7344 35.6161 42.1307 35.2226 42.7979Z" fill="#231F20"/>
<path d="M32.9566 49.5651C31.9965 52.2181 33.1927 54.9981 34.6564 57.2063C35.4276 58.3819 36.3247 59.4939 37.0015 60.733C37.568 61.7656 37.8671 62.8935 38.0245 64.0532C38.0717 64.3868 38.1032 64.7204 38.1346 65.0381C38.1661 65.3559 38.1661 65.753 38.3078 66.0707C38.6068 66.738 39.3465 66.9763 39.9289 66.5314C40.1807 66.3249 40.1335 65.896 39.9289 65.6895C39.677 65.4353 39.3465 65.4988 39.0947 65.6895C39.3937 65.7212 39.4882 65.6895 39.378 65.5942C39.3937 65.5942 39.3937 65.5942 39.378 65.5147C39.4095 65.3559 39.3465 65.1335 39.315 64.9746C39.2836 64.6251 39.2364 64.2756 39.1891 63.9102C39.0947 63.2748 38.9845 62.6393 38.8114 62.0198C38.3865 60.59 37.5995 59.3827 36.7654 58.1753C35.1128 55.8083 33.0038 52.9329 34.1055 49.8828C34.3731 49.1679 33.2242 48.8502 32.9723 49.5651H32.9566Z" fill="#231F20"/>
<path d="M39.4878 55.555C40.0859 57.366 40.5266 59.2406 40.7469 61.1469C40.8571 62.0842 40.9358 63.0374 40.9515 63.9905C40.9515 64.3241 40.9673 64.7054 40.9043 64.9914C40.8256 65.3091 40.7784 65.4521 40.5108 65.5633C40.2118 65.6903 40.1488 66.1193 40.3062 66.3734C40.4794 66.6753 40.8256 66.7071 41.1089 66.58C41.9116 66.2464 42.1162 65.2773 42.1477 64.4989C42.1791 63.4822 42.0847 62.4496 41.9588 61.4488C41.7227 59.3359 41.282 57.2548 40.621 55.2373C40.5266 54.9354 40.2118 54.7289 39.897 54.8242C39.598 54.9037 39.3776 55.2532 39.4878 55.555Z" fill="#231F20"/>
<path d="M34.5301 57.8094C34.0894 59.2868 33.4756 60.7483 33.4756 62.3211C33.4756 63.7667 34.0579 65.26 35.38 65.9749C36.0567 66.3402 36.8594 66.4832 37.5991 66.229C37.8982 66.1337 38.1185 65.816 38.0083 65.4983C37.9139 65.1964 37.5991 64.974 37.2844 65.0852C37.2214 65.1011 37.1584 65.117 37.0955 65.1329C37.064 65.1329 36.9066 65.1647 37.0168 65.1488C36.8752 65.1488 36.7335 65.1488 36.5919 65.1488C36.702 65.1488 36.5446 65.1488 36.5132 65.1329C36.4502 65.1329 36.3873 65.1011 36.3243 65.0852C36.2613 65.0694 36.1984 65.0535 36.1512 65.0217C36.0567 64.9899 36.2299 65.0535 36.1512 65.0217C36.1197 65.0217 36.0882 64.9899 36.0567 64.974C35.9308 64.9105 35.8207 64.8469 35.7105 64.7675C35.6947 64.7516 35.6633 64.7357 35.6475 64.7199C35.5688 64.6563 35.7105 64.7675 35.6475 64.7199C35.5846 64.6722 35.5374 64.6245 35.4901 64.5769C35.4429 64.5292 35.3957 64.4816 35.3642 64.4339C35.3328 64.4021 35.317 64.3704 35.2855 64.3545C35.2855 64.3545 35.2226 64.2751 35.2698 64.3227C35.317 64.3704 35.2383 64.2909 35.2383 64.275C35.2383 64.2592 35.2068 64.2274 35.1911 64.2115C35.1439 64.148 35.1124 64.0685 35.0652 64.005C35.018 63.9414 34.9865 63.8461 34.955 63.7667C34.9865 63.8302 34.9235 63.6714 34.9078 63.6396C34.8606 63.4807 34.8134 63.3378 34.7819 63.1789C34.7819 63.0995 34.7504 63.0359 34.7347 62.9565C34.7189 62.8453 34.7347 63.0359 34.7347 62.9247C34.7347 62.893 34.7347 62.8612 34.7347 62.8294C34.7189 62.6547 34.7032 62.4799 34.7189 62.3052C34.7189 61.638 34.8291 61.0978 35.018 60.4306C35.2226 59.6681 35.5059 58.9055 35.7262 58.143C35.8207 57.8412 35.6161 57.4758 35.317 57.4122C35.018 57.3487 34.6875 57.5076 34.593 57.8253L34.5301 57.8094Z" fill="#231F20"/>
<path d="M47.6253 43.4013C48.4437 44.8152 49.3566 46.3561 49.514 47.9765C49.6556 49.4063 49.2621 50.979 47.9401 51.7098C47.2791 52.0751 47.8771 53.1077 48.5382 52.7424C49.813 52.0275 50.5055 50.6772 50.6786 49.2633C50.8518 47.8494 50.4583 46.3879 49.8602 45.0694C49.4982 44.2909 49.0733 43.5443 48.6483 42.8135C48.2706 42.1463 47.2476 42.75 47.6253 43.4172V43.4013Z" fill="#231F20"/>
<path d="M49.7811 49.8837C50.8828 52.9338 48.7738 55.8092 47.1212 58.1762C46.2871 59.3835 45.5001 60.6068 45.0752 62.0206C44.8863 62.6402 44.7762 63.2756 44.6975 63.9111C44.6503 64.2606 44.603 64.6101 44.5716 64.9755C44.5558 65.1343 44.4929 65.3567 44.5086 65.5156C44.4771 65.5791 44.4771 65.6109 44.5086 65.595C44.3984 65.6903 44.4929 65.7221 44.7919 65.6903C44.5401 65.4838 44.2096 65.452 43.9577 65.6903C43.7531 65.8969 43.7059 66.3417 43.9577 66.5323C44.4614 66.9295 45.0752 66.8341 45.4529 66.294C45.7992 65.8174 45.7362 65.0867 45.7992 64.5148C45.9251 63.371 46.1612 62.2431 46.6491 61.1946C47.2471 59.9396 48.1285 58.8275 48.9154 57.6678C49.7024 56.5082 50.4106 55.3485 50.8513 54.0299C51.3392 52.5843 51.4651 50.9957 50.93 49.55C50.6782 48.8352 49.5293 49.137 49.7968 49.8678L49.7811 49.8837Z" fill="#231F20"/>
<path d="M43.2344 55.2373C42.5734 57.2548 42.1327 59.3359 41.8966 61.4488C41.7865 62.4496 41.692 63.4822 41.7078 64.4989C41.7235 65.2932 41.9439 66.2464 42.7465 66.58C43.0456 66.7071 43.3761 66.6753 43.5492 66.3734C43.6909 66.1193 43.6279 65.6903 43.3446 65.5633C43.3131 65.5633 43.1557 65.4521 43.1872 65.4838C43.1557 65.4521 43.1243 65.4203 43.0928 65.3885C43.1085 65.4044 43.1085 65.4203 43.0928 65.3885C43.0141 65.2614 42.9984 65.1979 42.9511 65.0231C42.8724 64.7213 42.8882 64.34 42.9039 63.9905C42.9354 63.0374 42.9984 62.1001 43.1085 61.1469C43.3446 59.2565 43.7696 57.3819 44.3676 55.555C44.4621 55.2532 44.2575 54.9037 43.9584 54.8242C43.6436 54.7289 43.3289 54.9354 43.2344 55.2373Z" fill="#231F20"/>
<path d="M48.2077 58.1285C48.4123 58.7957 48.6484 59.4629 48.8373 60.146C48.9317 60.4955 49.0261 60.8291 49.1048 61.1786C49.1835 61.5281 49.1993 61.687 49.215 62.0365C49.215 62.1953 49.215 62.3701 49.215 62.5289C49.215 62.6084 49.215 62.6878 49.215 62.7513C49.215 62.7831 49.215 62.8149 49.215 62.8467C49.215 62.8784 49.1993 62.9896 49.215 62.9102C49.1993 63.0532 49.1678 63.212 49.1206 63.355C49.1048 63.4344 49.0733 63.498 49.0576 63.5774C49.0576 63.6251 49.0261 63.6568 49.0104 63.7045C49.0104 63.7045 48.9632 63.8316 48.9946 63.7681C48.9317 63.911 48.8687 64.0381 48.79 64.1652C48.7586 64.2129 48.7271 64.2764 48.6799 64.3241C48.6484 64.3558 48.6169 64.4035 48.5854 64.4353C48.5067 64.5306 48.4123 64.6259 48.3179 64.7053C48.3179 64.7053 48.2234 64.7848 48.2707 64.753C48.3179 64.7212 48.2392 64.7689 48.2392 64.7689C48.1762 64.8165 48.0975 64.8642 48.0346 64.9119C47.9716 64.9436 47.9087 64.9913 47.8457 65.0231C47.8142 65.0231 47.7985 65.0548 47.767 65.0548C47.6096 65.1343 47.83 65.0389 47.7355 65.0548C47.5939 65.1025 47.4522 65.1501 47.2949 65.1819C47.1847 65.1819 47.2634 65.1819 47.2949 65.1819C47.2634 65.1819 47.2319 65.1819 47.1847 65.1819C47.106 65.1819 47.043 65.1819 46.9644 65.1819C46.9329 65.1819 46.8857 65.1819 46.8542 65.1819C46.9486 65.1819 46.8699 65.1819 46.8227 65.1819C46.744 65.166 46.6653 65.1501 46.5866 65.1184C46.2876 65.0231 45.9256 65.2296 45.8626 65.5314C45.7839 65.8491 45.9571 66.1669 46.2718 66.2622C47.5939 66.6911 49.0419 65.9445 49.7658 64.8007C50.5843 63.4821 50.4898 61.8141 50.1278 60.3684C49.9075 59.5106 49.5927 58.6845 49.3566 57.8425C49.2622 57.5407 48.9317 57.3183 48.6327 57.4295C48.3336 57.5407 48.129 57.8425 48.2234 58.1603L48.2077 58.1285Z" fill="#231F20"/>
<path d="M36.4662 49.7714C36.8912 50.3274 37.5207 50.6293 38.1503 50.8993C38.7798 51.1694 39.3779 51.3124 40.0074 51.4077C41.3295 51.5983 42.6673 51.503 43.9421 51.09C44.6504 50.8517 45.3429 50.534 45.9724 50.105C46.3974 49.8191 46.0039 49.136 45.579 49.4219C43.5801 50.7564 40.999 51.0741 38.7326 50.2639C38.1031 50.0415 37.4578 49.7555 37.0328 49.1995C36.9069 49.0248 36.6079 49.0565 36.482 49.1995C36.3088 49.3743 36.3561 49.5967 36.482 49.7555L36.4662 49.7714Z" fill="#231F20"/>
<path d="M38.9849 53.7275C40.8735 54.363 42.9668 54.2041 44.7452 53.3304C44.9341 53.2351 44.9813 52.965 44.8869 52.7902C44.7767 52.5996 44.5406 52.552 44.3518 52.6473C42.7622 53.4257 40.8893 53.5369 39.2052 52.965C39.0006 52.9014 38.7803 53.0444 38.7173 53.2351C38.6544 53.4575 38.796 53.6481 38.9849 53.7275Z" fill="#231F20"/>
<path d="M50.0962 62.877C52.0635 62.5911 53.417 60.8913 54.141 59.1438C55.0224 56.9992 54.9437 54.6163 55.6677 52.424C55.8093 51.9792 55.9667 51.4867 56.2972 51.1372C56.4231 50.9942 56.8638 50.7242 57.0055 50.9942C57.1314 51.2166 56.5963 51.8203 56.4861 52.0268C56.2185 52.5034 56.0297 53.0435 55.9195 53.5678C55.4473 55.6012 55.7464 57.7617 54.8493 59.6839C53.9521 61.6061 52.2996 63.1312 50.285 63.7667C49.561 63.9891 49.8758 65.1488 50.5998 64.9105C52.6301 64.275 54.3771 62.8611 55.4788 61.0342C56.0297 60.1129 56.4074 59.0803 56.5805 58.0318C56.7694 56.8562 56.7694 55.6647 56.9582 54.4892C57.0369 53.9649 57.1628 53.4089 57.3832 52.9164C57.6193 52.3763 58.0757 51.9156 58.2016 51.3278C58.4534 50.1205 57.1314 49.3897 56.1241 49.8345C55.0381 50.327 54.6289 51.7568 54.3614 52.8052C54.0466 54.0444 53.9207 55.3152 53.6688 56.5703C53.2596 58.699 52.2524 61.352 49.8129 61.7173C49.4981 61.765 49.325 62.1622 49.4037 62.4481C49.4981 62.7817 49.8129 62.9088 50.1276 62.8612L50.0962 62.877Z" fill="#231F20"/>
<path d="M21.8448 16.8246C21.9707 18.3655 22.2382 19.9541 22.2382 21.511C22.2382 23.0678 21.9864 24.5293 22.191 26.0703C22.3956 27.6112 22.9465 29.0251 23.9852 30.0895C25.3545 31.4716 27.3376 31.9799 29.2105 32.4565C30.5955 32.806 29.541 35.6973 29.541 36.7299C29.541 38.7474 30.627 40.7173 32.2638 41.877C33.1609 42.5124 34.2154 42.5442 35.1125 43.0684C35.8837 43.5132 36.5448 44.2758 37.3159 44.7682C37.9927 45.1972 38.6852 45.6261 39.4564 45.8803C41.0775 46.4204 43.4226 46.341 44.902 45.4513C45.5788 45.0383 46.1454 44.4823 46.8064 44.0375C47.7979 43.3862 48.9626 43.0525 50.0171 42.5124C53.3695 40.7967 53.8101 38.1596 53.7314 34.6488C53.7314 34.2199 53.7315 33.7909 53.9046 33.4097C54.2823 32.6313 55.2424 32.3612 56.0608 32.0752C58.8308 31.1062 61.2073 28.5962 61.4277 25.6414C61.4906 24.7517 61.3647 23.8621 61.349 22.9725C61.3018 20.0495 62.4035 17.0152 61.4277 14.251C61.286 13.8539 61.0814 13.4408 60.7195 13.2184C60.1686 12.8689 59.4604 13.0437 58.8623 13.282C56.171 14.394 54.1721 16.6975 52.3307 18.9533C51.0244 20.5578 50.1588 22.3212 48.5377 23.6079C48.2544 23.8303 47.6248 24.6088 47.3573 24.6882C46.9008 24.8312 46.4287 24.4499 45.925 24.3069C44.965 24.0051 43.9262 24.0051 42.9347 24.021C40.6368 24.0369 38.3075 24.2116 36.1513 24.99C33.7275 21.1138 30.2965 17.5077 27.0071 14.3463C25.9368 13.3137 24.5361 12.1064 22.9622 13.1072C21.8605 13.8221 21.7189 15.6331 21.8133 16.8087L21.8448 16.8246Z" fill="#FDE0DA"/>
<path d="M29.2889 32.3764C29.525 32.3764 29.7611 32.3446 29.9657 32.2969C30.2647 31.2644 30.5638 30.2318 30.8628 29.1992C31.1461 28.1983 30.7212 27.8171 31.5238 26.8957C32.059 26.2761 32.8144 25.8154 32.72 24.9099C32.4052 21.9074 29.5093 19.5881 27.3688 17.8565C26.2828 16.9827 23.0249 13.3766 21.8603 15.7436C21.8445 15.7754 21.8445 15.823 21.8288 15.8548C21.813 16.2043 21.8288 16.5379 21.8445 16.8239C21.9704 18.3648 22.238 19.9534 22.238 21.5103C22.238 23.0512 21.9862 24.5286 22.1908 26.0696C22.3954 27.547 22.9462 29.0244 23.985 30.0888C25.1654 31.2961 27.4633 32.4082 29.2889 32.3605V32.3764Z" fill="#F9BDBE"/>
<path d="M61.6013 14.8535C61.2236 14.4087 60.6255 14.4405 59.9487 14.6946C58.6739 15.3619 57.5092 16.1879 56.3603 17.157C56.3131 17.2047 56.2659 17.2047 56.2029 17.2364C55.6521 17.8401 55.1327 18.4597 54.629 19.0792C53.4958 20.4772 52.2682 21.9864 51.6544 23.7021C51.4183 24.3375 51.1508 25.2271 51.3711 25.9102C51.5442 26.4345 52.0794 26.7999 52.3469 27.2923C52.9135 28.3408 52.3784 29.3734 52.6302 30.4696C52.8978 31.5975 53.3385 32.6777 53.8264 33.7421C53.8578 33.6309 53.8578 33.5038 53.9208 33.4085C54.2985 32.6301 55.2586 32.36 56.077 32.0741C58.847 31.105 61.2236 28.595 61.4439 25.6402C61.5069 24.7506 61.381 23.8609 61.3652 22.9713C61.318 20.2548 62.2466 17.4429 61.6013 14.8376V14.8535Z" fill="#F9BDBE"/>
<path d="M35.2387 37.4125C36.0905 37.4125 36.7811 36.7155 36.7811 35.8557C36.7811 34.9958 36.0905 34.2988 35.2387 34.2988C34.3868 34.2988 33.6963 34.9958 33.6963 35.8557C33.6963 36.7155 34.3868 37.4125 35.2387 37.4125Z" fill="#231F20"/>
<path d="M47.9555 37.4125C48.8073 37.4125 49.4979 36.7155 49.4979 35.8557C49.4979 34.9958 48.8073 34.2988 47.9555 34.2988C47.1036 34.2988 46.4131 34.9958 46.4131 35.8557C46.4131 36.7155 47.1036 37.4125 47.9555 37.4125Z" fill="#231F20"/>
<path d="M41.7229 41.685C42.4878 41.685 43.1079 41.2938 43.1079 40.8112C43.1079 40.3287 42.4878 39.9375 41.7229 39.9375C40.958 39.9375 40.3379 40.3287 40.3379 40.8112C40.3379 41.2938 40.958 41.685 41.7229 41.685Z" fill="#231F20"/>
<path d="M29.8089 31.1205C29.0849 34.2819 28.3766 37.888 30.2968 40.7793C30.706 41.383 31.1939 41.9072 31.7919 42.3361C32.453 42.8127 33.2242 43.0828 33.9796 43.3846C35.2702 43.893 36.2932 44.7032 37.4264 45.5134C38.6855 46.4189 40.039 47.0861 41.6129 46.8319C41.9277 46.7843 42.1008 46.3871 42.0221 46.1012C41.9277 45.7675 41.6129 45.6405 41.2981 45.6881C40.1492 45.8787 39.0947 45.2433 38.1819 44.6237C37.1903 43.9248 36.2617 43.1146 35.1443 42.6062C33.8537 42.0184 32.4844 41.6848 31.5559 40.5251C30.7847 39.572 30.3755 38.3011 30.2653 37.0937C30.1079 35.1874 30.5328 33.3128 30.9578 31.47C31.1309 30.7234 29.9977 30.4057 29.8246 31.1523L29.8089 31.1205Z" fill="#231F20"/>
<path d="M34.9864 26.2278C36.9537 25.2111 39.2516 24.9728 41.4393 24.8298C43.627 24.6869 45.6887 24.7981 47.5144 25.8624C48.1754 26.2437 48.7735 25.2111 48.1125 24.8298C46.0979 23.6543 43.7214 23.4795 41.4393 23.6225C39.047 23.7655 36.5603 24.0514 34.3883 25.1793C33.7115 25.5288 34.3096 26.5614 34.9864 26.2119V26.2278Z" fill="#231F20"/>
<path d="M22.2856 18.2695C22.0967 17.4275 21.9865 16.5379 22.1282 15.68C22.2384 15.0446 22.4744 14.3297 22.9781 13.9167C23.2299 13.7101 23.6076 13.6466 23.9224 13.6943C24.4418 13.7737 24.8825 13.9961 25.3389 14.2662C26.3619 14.8698 27.2433 15.68 28.0932 16.4902C29.1477 17.491 30.1864 18.5078 31.1622 19.6039C32.6259 21.256 33.9795 23.0194 35.3172 24.7669C35.5061 25.0211 35.8209 25.164 36.1199 24.9734C36.3717 24.8304 36.5291 24.4174 36.3245 24.1632C35.0182 22.4475 33.7119 20.7318 32.2954 19.0955C31.2094 17.8405 30.029 16.6808 28.8329 15.537C27.8728 14.6315 26.8498 13.7101 25.6694 13.0747C24.6464 12.5187 23.3401 12.1692 22.317 12.9317C21.5931 13.4719 21.1996 14.3774 21.0265 15.2352C20.8061 16.3472 20.9163 17.4752 21.1524 18.5872C21.3255 19.3338 22.4587 19.0161 22.2856 18.2695Z" fill="#231F20"/>
<path d="M21.656 20.0973L21.5931 23.9735C21.5773 25.1173 21.5616 26.2611 21.782 27.3731C22.1912 29.3907 23.6549 31.1064 25.4176 32.1072C26.4249 32.6632 27.5266 32.9968 28.6598 33.0921C28.9746 33.1239 29.2579 32.8062 29.2579 32.4885C29.2579 32.139 28.9903 31.9166 28.6598 31.8848C26.9443 31.7418 25.3232 30.884 24.19 29.5813C23.5919 28.8982 23.1512 28.088 22.9466 27.1984C22.7105 26.1976 22.742 25.165 22.7578 24.1483C22.7735 22.7979 22.805 21.4476 22.8207 20.0973C22.8207 19.3348 21.656 19.3348 21.6403 20.0973H21.656Z" fill="#231F20"/>
<path d="M23.907 15.8714C26.0002 17.3171 27.9676 18.9851 29.6673 20.8914C30.4228 21.7334 31.1153 22.6548 31.5403 23.7033C31.7449 24.2116 31.9022 24.7676 31.9337 25.3237C31.9337 25.5461 31.9967 25.8638 31.8865 26.0703C31.7921 26.245 31.5717 26.3404 31.3986 26.4357C30.8635 26.7216 30.4071 26.9917 30.171 27.5795C29.9506 28.1355 30.0608 28.8027 30.6117 29.1046C31.2727 29.4699 31.8708 28.4373 31.2097 28.072C31.0051 27.9608 31.2884 28.1673 31.2412 28.1673C31.2255 28.1673 31.2727 27.9925 31.2884 27.9608C31.3514 27.8019 31.493 27.7225 31.6347 27.643C32.0911 27.3889 32.579 27.1664 32.878 26.7057C33.2243 26.1656 33.1613 25.4349 33.0827 24.8312C33.004 24.2752 32.8466 23.735 32.642 23.2267C31.7134 20.9709 29.8247 19.1598 28.0305 17.5712C26.9131 16.5863 25.7484 15.6649 24.5208 14.8229C23.8912 14.394 23.2932 15.4266 23.9227 15.8555L23.907 15.8714Z" fill="#231F20"/>
<path d="M52.5826 31.4383C53.2436 34.2978 53.9676 37.6021 52.1891 40.2233C51.355 41.4465 50.0801 41.8754 48.7738 42.4156C47.5777 42.908 46.5704 43.6865 45.5001 44.4172C44.367 45.2115 43.1865 45.8311 41.7543 45.6563C41.4395 45.6087 41.1562 45.9582 41.1562 46.26C41.1562 46.6095 41.4238 46.816 41.7543 46.8637C44.6817 47.245 46.5389 44.7032 48.9784 43.6229C49.7181 43.2893 50.5051 43.051 51.229 42.6698C51.8586 42.3203 52.4252 41.8437 52.8816 41.2718C53.7945 40.1121 54.2824 38.6982 54.424 37.2526C54.6444 35.2033 54.1564 33.1381 53.7 31.1523C53.5269 30.4057 52.3937 30.7234 52.5668 31.47L52.5826 31.4383Z" fill="#231F20"/>
<path d="M62.3879 18.5877C62.7813 16.8403 62.86 14.648 61.5537 13.2341C60.6409 12.2492 59.3031 12.408 58.2014 12.9164C56.9895 13.4724 55.9507 14.3938 54.9749 15.2834C53.8417 16.3319 52.74 17.4122 51.7013 18.556C50.0959 20.3352 48.648 22.2415 47.2 24.1638C47.0111 24.4179 47.1685 24.831 47.4046 24.974C47.7036 25.1487 48.0184 25.0216 48.2073 24.7674C49.3877 23.2106 50.5681 21.6696 51.8429 20.1922C52.8974 18.969 54.0149 17.8411 55.1638 16.7291C55.998 15.9189 56.8636 15.1087 57.8394 14.4732C58.2801 14.1714 58.7365 13.9172 59.2401 13.7742C59.5077 13.6948 59.6021 13.6789 59.8382 13.6789C59.9641 13.6789 59.9956 13.6789 60.0428 13.6789C60.1058 13.6789 60.3418 13.7742 60.2946 13.7425C60.8455 13.9967 61.1445 14.6798 61.3176 15.3152C61.5537 16.2843 61.4593 17.301 61.239 18.2541C61.0658 19.0008 62.2148 19.3185 62.3721 18.5719L62.3879 18.5877Z" fill="#231F20"/>
<path d="M60.7035 20.0968L60.7665 23.6553C60.7822 24.6879 60.8452 25.7681 60.672 26.8007C60.373 28.6117 59.1769 30.1209 57.6187 31.0264C56.7846 31.503 55.856 31.8048 54.8959 31.9002C54.5812 31.9319 54.2979 32.1543 54.2979 32.5038C54.2979 32.8057 54.5654 33.1234 54.8959 33.1075C56.879 32.9486 58.7677 32.0431 60.1054 30.5498C60.8137 29.7714 61.3803 28.8659 61.6636 27.8492C61.9784 26.7689 61.9941 25.6093 61.9784 24.4972C61.9626 23.0357 61.9311 21.5742 61.8997 20.1285C61.8997 19.366 60.7035 19.366 60.7193 20.1285L60.7035 20.0968Z" fill="#231F20"/>
<path d="M59.0351 14.8386C56.9261 16.3001 54.9115 17.9681 53.1803 19.8745C52.3933 20.7482 51.6379 21.6855 51.1342 22.7498C50.8824 23.29 50.6621 23.846 50.5362 24.4179C50.4103 24.9898 50.3158 25.6729 50.4575 26.2448C50.6149 26.8961 51.1342 27.2456 51.7008 27.5475C51.8897 27.6587 52.11 27.7381 52.2202 27.9287C52.2517 27.9764 52.2832 28.0876 52.2832 28.0876C52.3146 28.1352 52.2359 28.1511 52.2832 28.1352C52.3146 28.1352 52.4563 27.9923 52.2989 28.0717C51.6379 28.4371 52.2202 29.4697 52.897 29.1043C53.3849 28.8342 53.5423 28.2782 53.4006 27.754C53.259 27.2297 52.9284 26.8643 52.4878 26.6261C52.0943 26.4037 51.5907 26.2766 51.5749 25.7523C51.5592 25.2281 51.6536 24.6562 51.8267 24.1478C52.173 23.0676 52.8183 22.1144 53.5423 21.2565C54.3449 20.3034 55.242 19.4296 56.1706 18.5877C57.2566 17.6027 58.4213 16.6972 59.6174 15.8712C60.247 15.4422 59.6489 14.4096 59.0193 14.8386H59.0351Z" fill="#231F20"/>
<path d="M40.8729 44.3233C41.3136 43.9262 41.6284 43.3702 41.7701 42.7824C41.8173 42.6076 41.833 42.417 41.8487 42.2264C41.8487 42.1311 41.8015 42.0198 41.7386 41.9404C41.6756 41.861 41.5654 41.8133 41.4553 41.8292C41.2349 41.8292 41.0775 42.004 41.0618 42.2264C41.0618 42.2899 41.0618 42.3535 41.0461 42.4329V42.3217C41.0303 42.56 40.9674 42.7824 40.8729 43.0048L40.9202 42.9095C40.8257 43.116 40.7156 43.3225 40.5739 43.4973L40.6369 43.4178C40.5424 43.5449 40.4323 43.6561 40.3221 43.7514C40.2434 43.815 40.2119 43.9421 40.2119 44.0374C40.2119 44.1327 40.2591 44.2439 40.3221 44.3233C40.4795 44.4822 40.7156 44.4663 40.8729 44.3233Z" fill="#231F20"/>
<path d="M41.5496 42.306C42.0532 42.306 42.0532 41.5117 41.5496 41.5117C41.046 41.5117 41.046 42.306 41.5496 42.306Z" fill="#231F20"/>
<path d="M41.5496 42.306C42.0532 42.306 42.0532 41.5117 41.5496 41.5117C41.046 41.5117 41.046 42.306 41.5496 42.306Z" fill="#231F20"/>
<path d="M41.377 41.7962C41.377 42.5587 41.676 43.2895 42.1796 43.8455C42.3213 44.0044 42.4787 44.1473 42.6518 44.2744C42.7305 44.338 42.8721 44.338 42.9508 44.3221C43.0295 44.3062 43.1397 44.2268 43.1869 44.1473C43.2341 44.052 43.2656 43.9408 43.2341 43.8455L43.1869 43.7502C43.1869 43.7502 43.1082 43.639 43.0453 43.6072C43.0453 43.6072 43.0138 43.5913 42.998 43.5754L43.0767 43.639C42.9036 43.496 42.7462 43.3371 42.6046 43.1624L42.6675 43.2418C42.5259 43.0512 42.4 42.8447 42.3055 42.6223L42.3528 42.7176C42.2583 42.4952 42.1954 42.2569 42.1639 42.0186V42.1298C42.1639 42.0186 42.1639 41.9233 42.1639 41.8121C42.1639 41.6056 41.9908 41.399 41.7704 41.4149C41.5501 41.4308 41.377 41.5897 41.377 41.8121V41.7962Z" fill="#231F20"/>
<path d="M40.4798 24.6081C40.5112 25.736 40.7001 26.848 40.7788 27.9759C40.8575 29.1515 40.9204 30.3906 40.5899 31.5344C40.4325 32.0746 40.1965 32.5353 39.7558 32.9006C39.5984 33.0436 39.6141 33.3137 39.7558 33.4567C39.9132 33.6155 40.1492 33.5996 40.3066 33.4567C41.2195 32.6782 41.487 31.4232 41.5815 30.2794C41.6759 28.9927 41.55 27.69 41.4083 26.4032C41.3454 25.7996 41.2824 25.1959 41.2509 24.5922C41.2352 24.0838 40.4483 24.0838 40.464 24.5922L40.4798 24.6081Z" fill="#231F20"/>
<path d="M38.2922 25.0534C38.2922 26.9121 38.5126 28.8025 37.9932 30.6294C37.8515 31.1219 38.607 31.3284 38.7487 30.8359C39.2838 28.9455 39.0477 26.9915 39.0634 25.0534C39.0634 24.831 38.8746 24.6562 38.67 24.6562C38.4654 24.6562 38.2765 24.831 38.2765 25.0534H38.2922Z" fill="#231F20"/>
<path d="M42.7457 24.8305C42.7299 25.5771 42.7142 26.3397 42.7142 27.0863C42.7142 27.833 42.6827 28.5319 42.7142 29.2468C42.7929 30.5336 43.1863 31.8998 44.351 32.5988C44.7917 32.8689 45.1852 32.1699 44.7445 31.9157C43.7529 31.312 43.5169 30.0411 43.4854 28.9768C43.4382 27.5947 43.4854 26.2126 43.5169 24.8305C43.5169 24.3221 42.7457 24.3221 42.7299 24.8305H42.7457Z" fill="#231F20"/>
<path d="M44.6028 24.9423C44.5713 25.959 44.6342 26.9758 44.7287 27.9925C44.7759 28.5008 44.8231 29.0251 44.9333 29.5334C44.9805 29.7399 45.0749 29.9147 45.2008 30.0736C45.2323 30.1053 45.2638 30.153 45.2795 30.1848C45.311 30.2165 45.311 30.2165 45.2795 30.1848C45.311 30.2165 45.3425 30.2642 45.3582 30.296C45.374 30.3277 45.4054 30.3754 45.4369 30.423C45.4527 30.4707 45.4527 30.4707 45.4369 30.423C45.4369 30.4548 45.4527 30.4707 45.4527 30.5025C45.5156 30.709 45.736 30.8361 45.9406 30.7725C46.1452 30.709 46.2711 30.4866 46.2081 30.2801C46.1452 30.0418 46.0035 29.8511 45.8619 29.6605C45.8146 29.597 45.8933 29.7082 45.8304 29.6287C45.7989 29.597 45.7674 29.5493 45.7517 29.5175C45.736 29.4858 45.7045 29.4381 45.6887 29.3904C45.7202 29.454 45.673 29.3269 45.673 29.311C45.5628 28.8503 45.5314 28.4055 45.4841 27.9289C45.374 26.9281 45.3267 25.9273 45.3582 24.9264C45.3582 24.704 45.1694 24.5293 44.9648 24.5293C44.7602 24.5293 44.5713 24.704 44.5713 24.9264L44.6028 24.9423Z" fill="#231F20"/>
<path d="M36.765 41.1287C36.5919 41.3511 36.466 41.5735 36.3716 41.8277C36.2929 42.0501 36.2457 42.2884 36.2299 42.5267C36.1984 43.0033 36.3086 43.4958 36.5132 43.9247C36.6391 44.163 36.7965 44.3854 37.0011 44.5601C37.1585 44.7031 37.4103 44.719 37.552 44.5601C37.6936 44.4013 37.7094 44.1471 37.552 44.0041C37.4733 43.9406 37.4103 43.8611 37.3474 43.7976C37.3159 43.7499 37.3788 43.8294 37.3788 43.8294C37.3788 43.8294 37.3631 43.8135 37.3631 43.7976C37.3631 43.7817 37.3316 43.7658 37.3316 43.7499C37.3002 43.7023 37.2687 43.6705 37.2529 43.6228C37.2215 43.5752 37.2057 43.5434 37.19 43.4958C37.19 43.4799 37.1742 43.4481 37.1585 43.4322C37.1428 43.4004 37.1742 43.4958 37.1742 43.4799C37.1742 43.4799 37.1742 43.4481 37.1585 43.4322C37.127 43.3369 37.0956 43.2416 37.0641 43.1463C37.0641 43.0986 37.0483 43.0509 37.0326 43.0192C37.0326 42.9874 37.0326 42.9715 37.0326 42.9397C37.0326 42.9397 37.0326 43.0351 37.0326 43.0033C37.0326 42.9874 37.0326 42.9715 37.0326 42.9556C37.0326 42.8603 37.0326 42.765 37.0326 42.6697C37.0326 42.622 37.0326 42.5744 37.0326 42.5267C37.0326 42.5108 37.0326 42.479 37.0326 42.4632C37.0326 42.4632 37.0169 42.5744 37.0326 42.5108C37.0326 42.4949 37.0326 42.479 37.0326 42.4632C37.0483 42.3678 37.0641 42.2725 37.0956 42.1772C37.0956 42.1296 37.127 42.066 37.1585 42.0184C37.1585 42.0184 37.1113 42.1137 37.1428 42.066C37.1428 42.066 37.1428 42.0501 37.1585 42.0342C37.1585 42.0025 37.19 41.9866 37.19 41.9548C37.2215 41.9071 37.2372 41.8595 37.2687 41.8118C37.2687 41.7959 37.3002 41.7642 37.3159 41.7483C37.3316 41.7165 37.4103 41.6212 37.3159 41.7483C37.3788 41.6689 37.4261 41.5894 37.4261 41.4623C37.4261 41.367 37.3788 41.2558 37.3159 41.1764C37.1742 41.0493 36.8909 41.0016 36.765 41.1764V41.1287Z" fill="#231F20"/>
<path d="M46.1145 41.5271C46.2089 41.5748 46.2876 41.6225 46.3663 41.686L46.2876 41.6225C46.3821 41.7019 46.4765 41.7972 46.5552 41.8925L46.4922 41.8131C46.5867 41.9402 46.6654 42.0673 46.7126 42.2102L46.6654 42.1149C46.7283 42.2738 46.7755 42.4327 46.7913 42.6074V42.4962C46.7913 42.6551 46.7913 42.8298 46.7913 42.9887V42.8775C46.7913 43.0204 46.744 43.1634 46.6968 43.3064L46.744 43.2111C46.6968 43.3223 46.6339 43.4335 46.5709 43.5288L46.6339 43.4494C46.6339 43.4494 46.6181 43.4811 46.6024 43.4811C46.5394 43.5606 46.4922 43.6559 46.4922 43.7671C46.4922 43.8624 46.5394 43.9736 46.6024 44.053C46.744 44.1801 47.0273 44.2278 47.1533 44.053C47.3106 43.8465 47.4365 43.6241 47.5152 43.3699C47.5782 43.1475 47.6097 42.9092 47.5939 42.6868C47.5782 42.1944 47.4051 41.7178 47.0903 41.3365C46.9329 41.1459 46.7283 40.9711 46.4922 40.8599C46.3034 40.7646 46.0515 40.7964 45.9571 41.0029C45.8627 41.1777 45.8942 41.4477 46.0988 41.543L46.1145 41.5271Z" fill="#231F20"/>
</svg>
