<svg width="80" height="77" viewBox="0 0 80 77" fill="none" xmlns="http://www.w3.org/2000/svg">
<path d="M31.7017 45.6147C31.623 46.3931 31.5758 47.1874 31.6545 47.9658C31.7646 49.2526 32.1738 50.5076 32.8191 51.6196C32.9608 51.8579 33.1182 52.0962 33.1654 52.3663C33.2441 52.7317 33.1339 53.1129 33.0395 53.4624C32.5043 55.3211 32.0322 57.3704 32.6775 59.2609C33.2755 61.0401 35.3531 61.755 36.8168 60.3252C37.5407 62.9623 40.0904 59.944 40.1849 60.1187C40.5783 60.8018 41.2079 61.4214 41.9791 61.5326C42.7503 61.6438 43.6316 61.0719 43.6474 60.2776C44.0723 60.913 45.0009 61.1672 45.7249 61.0083C46.0711 60.9289 47.4089 59.658 47.4404 59.6739C48.4477 60.1187 49.6281 59.6739 50.5567 59.0702C52.3666 57.8788 53.6729 55.9724 54.2395 53.8914C54.8061 51.8103 54.0664 49.5386 55.3727 47.6322C55.6875 47.1715 56.1597 46.6791 56.018 46.1389C55.8764 45.6147 55.1681 45.4082 54.6645 45.6306C54.1608 45.853 53.8618 46.3613 53.6257 46.8538C53.0119 48.22 53.1064 49.6021 52.8073 51.0319C52.5083 52.4616 51.8315 53.9549 51.1705 55.2893C50.6354 56.3696 49.7225 57.0209 48.6838 57.5928C48.5893 57.6405 48.5106 57.6881 48.4005 57.6881C48.1487 57.6881 48.0385 57.3863 47.9755 57.148C47.6765 55.9565 47.3775 54.7492 47.0784 53.5577C47.0155 53.2877 46.9368 53.0017 46.9682 52.7317C46.9997 52.3186 47.2201 51.9374 47.4247 51.5879C49.2346 48.5377 48.8884 45.5353 48.0542 42.1833C47.6293 40.4835 47.1886 38.736 46.1341 37.3539C44.7333 35.5111 42.467 34.5897 40.2793 33.8431C34.2513 31.762 32.1424 41.2301 31.6859 45.6623L31.7017 45.6147Z" fill="#FDE0DA"/>
<path d="M33.4484 38.0211C32.693 39.3237 31.9218 40.6582 31.5755 42.1356C31.245 43.4859 31.2922 44.9633 31.9218 46.2342C32.2838 46.9491 32.8504 47.5845 33.5586 47.9658C34.2669 48.347 34.8177 47.3144 34.1567 46.9332C32.8346 46.2024 32.4412 44.6297 32.5828 43.1999C32.7402 41.5795 33.653 40.0386 34.4715 38.6247C34.8492 37.9575 33.8419 37.3538 33.4484 38.0211Z" fill="#231F20"/>
<path d="M31.1822 44.7887C30.2221 47.4417 31.4183 50.2217 32.882 52.4299C33.6532 53.6055 34.5503 54.7175 35.227 55.9566C35.7936 56.9892 36.0927 58.1172 36.2501 59.2768C36.2973 59.6104 36.3287 59.9441 36.3602 60.2618C36.3917 60.5795 36.3917 60.9767 36.5334 61.2944C36.8324 61.9616 37.5721 62.1999 38.1544 61.7551C38.4063 61.5486 38.359 61.1196 38.1544 60.9131C37.9026 60.6589 37.5721 60.7225 37.3203 60.9131C37.6193 60.9449 37.7138 60.9131 37.6036 60.8178C37.6193 60.8178 37.6193 60.8178 37.6036 60.7384C37.6351 60.5795 37.5721 60.3571 37.5406 60.1982C37.5092 59.8487 37.4619 59.4992 37.4147 59.1339C37.3203 58.4984 37.2101 57.863 37.037 57.2434C36.612 55.8137 35.8251 54.6063 34.991 53.399C33.3384 51.0319 31.2294 48.1566 32.3311 45.1064C32.5987 44.3915 31.4497 44.0738 31.1979 44.7887H31.1822Z" fill="#231F20"/>
<path d="M37.7137 50.7777C38.3117 52.5887 38.7524 54.4632 38.9727 56.3696C39.0829 57.3069 39.1616 58.26 39.1774 59.2132C39.1774 59.5468 39.1931 59.9281 39.1301 60.214C39.0514 60.5317 39.0042 60.6747 38.7367 60.7859C38.4376 60.913 38.3747 61.3419 38.5321 61.5961C38.7052 61.8979 39.0514 61.9297 39.3347 61.8026C40.1374 61.469 40.342 60.5 40.3735 59.7215C40.405 58.7048 40.3105 57.6722 40.1846 56.6714C39.9486 54.5586 39.5079 52.4775 38.8468 50.4599C38.7524 50.1581 38.4376 49.9516 38.1229 50.0469C37.8238 50.1263 37.6035 50.4758 37.7137 50.7777Z" fill="#231F20"/>
<path d="M32.7562 53.0335C32.3155 54.5109 31.7017 55.9725 31.7017 57.5452C31.7017 58.9908 32.284 60.4841 33.606 61.199C34.2828 61.5644 35.0855 61.7073 35.8252 61.4532C36.1242 61.3578 36.3446 61.0401 36.2344 60.7224C36.14 60.4206 35.8252 60.1982 35.5104 60.3094C35.4475 60.3252 35.3845 60.3411 35.3216 60.357C35.2901 60.357 35.1327 60.3888 35.2429 60.3729C35.1012 60.3729 34.9596 60.3729 34.8179 60.3729C34.9281 60.3729 34.7707 60.3729 34.7392 60.357C34.6763 60.357 34.6133 60.3252 34.5504 60.3094C34.4874 60.2935 34.4245 60.2776 34.3772 60.2458C34.4559 60.2776 34.2828 60.214 34.3772 60.2458C34.3458 60.2458 34.3143 60.214 34.2828 60.1982C34.1569 60.1346 34.0467 60.0711 33.9366 59.9916C33.9208 59.9758 33.8893 59.9599 33.8736 59.944C33.9366 59.9916 33.7949 59.8804 33.8736 59.944C33.8106 59.8963 33.7634 59.8487 33.7162 59.801C33.669 59.7533 33.6218 59.7057 33.5903 59.658C33.5588 59.6263 33.5431 59.5945 33.5116 59.5786C33.5116 59.5786 33.4487 59.4992 33.4959 59.5468C33.5431 59.5945 33.4644 59.5151 33.4644 59.4992C33.4644 59.4833 33.4329 59.4515 33.4172 59.4356C33.37 59.3721 33.3385 59.2927 33.2913 59.2291C33.2441 59.1656 33.2126 59.0702 33.1811 58.9908C33.2126 59.0544 33.1496 58.8955 33.1339 58.8637C33.0867 58.7049 33.0395 58.5619 33.008 58.403C33.008 58.3236 32.9765 58.2601 32.9608 58.1806C32.945 58.0694 32.9608 58.2601 32.9608 58.1488C32.9608 58.1171 32.9608 58.0853 32.9608 58.0535C32.945 57.8788 32.9293 57.704 32.945 57.5293C32.945 56.8621 33.0552 56.3219 33.2441 55.6547C33.4487 54.8922 33.732 54.1297 33.9523 53.3671C34.0467 53.0653 33.8421 52.6999 33.5431 52.6364C33.2441 52.5728 32.9135 52.7317 32.8191 53.0494L32.7562 53.0335Z" fill="#231F20"/>
<path d="M45.8507 38.625C46.6691 40.0388 47.5819 41.5798 47.7393 43.2002C47.8809 44.6299 47.4875 46.2026 46.1654 46.9334C45.5044 47.2988 46.1025 48.3314 46.7635 47.966C48.0383 47.2511 48.7308 45.9008 48.904 44.4869C49.0771 43.0731 48.6836 41.6115 48.0856 40.293C47.7236 39.5146 47.2986 38.7679 46.8737 38.0372C46.4959 37.37 45.4729 37.9736 45.8507 38.6408V38.625Z" fill="#231F20"/>
<path d="M48.0069 45.1063C49.1086 48.1564 46.9996 51.0318 45.3471 53.3989C44.5129 54.6062 43.726 55.8294 43.301 57.2433C43.1122 57.8629 43.002 58.4983 42.9233 59.1337C42.8761 59.4832 42.8289 59.8327 42.7974 60.1981C42.7816 60.357 42.7187 60.5794 42.7344 60.7382C42.703 60.8018 42.703 60.8336 42.7344 60.8177C42.6243 60.913 42.7187 60.9448 43.0177 60.913C42.7659 60.7065 42.4354 60.6747 42.1836 60.913C41.979 61.1195 41.9318 61.5643 42.1836 61.755C42.6872 62.1521 43.301 62.0568 43.6788 61.5167C44.025 61.0401 43.9621 60.3093 44.025 59.7374C44.1509 58.5936 44.387 57.4657 44.8749 56.4172C45.473 55.1622 46.3543 54.0502 47.1413 52.8905C47.9282 51.7308 48.6365 50.5711 49.0771 49.2526C49.565 47.8069 49.691 46.2183 49.1558 44.7727C48.904 44.0578 47.7551 44.3597 48.0226 45.0904L48.0069 45.1063Z" fill="#231F20"/>
<path d="M41.4595 50.4599C40.7985 52.4775 40.3578 54.5586 40.1217 56.6714C40.0116 57.6722 39.9171 58.7048 39.9329 59.7215C39.9486 60.5158 40.169 61.469 40.9716 61.8026C41.2707 61.9297 41.6012 61.8979 41.7743 61.5961C41.916 61.3419 41.853 60.913 41.5697 60.7859C41.5382 60.7859 41.3808 60.6747 41.4123 60.7065C41.3808 60.6747 41.3494 60.6429 41.3179 60.6112C41.3336 60.6429 41.3336 60.6271 41.3179 60.6112C41.2392 60.4841 41.2235 60.4205 41.1762 60.2458C41.0975 59.944 41.1133 59.5627 41.129 59.2132C41.1605 58.26 41.2235 57.3227 41.3336 56.3696C41.5697 54.4791 41.9947 52.6046 42.5927 50.7777C42.6872 50.4758 42.4826 50.1263 42.1835 50.0469C41.8687 49.9516 41.554 50.1581 41.4595 50.4599Z" fill="#231F20"/>
<path d="M46.4331 53.3511C46.6377 54.0184 46.8737 54.6856 47.0626 55.3687C47.157 55.7182 47.2515 56.0518 47.3302 56.4013C47.4089 56.7508 47.4246 56.9096 47.4403 57.2591C47.4403 57.418 47.4403 57.5927 47.4403 57.7516C47.4403 57.831 47.4403 57.9105 47.4403 57.974C47.4403 58.0058 47.4403 58.0375 47.4403 58.0693C47.4403 58.1011 47.4246 58.2123 47.4403 58.1329C47.4246 58.2758 47.3931 58.4347 47.3459 58.5777C47.3302 58.6571 47.2987 58.7206 47.2829 58.8001C47.2829 58.8477 47.2515 58.8795 47.2357 58.9272C47.2357 58.9272 47.1885 59.0543 47.22 58.9907C47.157 59.1337 47.0941 59.2608 47.0154 59.3879C46.9839 59.4355 46.9524 59.4991 46.9052 59.5467C46.8737 59.5785 46.8423 59.6262 46.8108 59.6579C46.7321 59.7532 46.6377 59.8486 46.5432 59.928C46.5432 59.928 46.4488 60.0074 46.496 59.9756C46.5432 59.9439 46.4645 59.9915 46.4645 59.9915C46.4016 60.0392 46.3229 60.0869 46.2599 60.1345C46.197 60.1663 46.134 60.2139 46.0711 60.2457C46.0396 60.2457 46.0238 60.2775 45.9924 60.2775C45.835 60.3569 46.0553 60.2616 45.9609 60.2775C45.8192 60.3251 45.6776 60.3728 45.5202 60.4046C45.4887 60.4046 45.41 60.4046 45.5202 60.4046C45.4887 60.4046 45.4572 60.4046 45.41 60.4046C45.3313 60.4046 45.2684 60.4046 45.1897 60.4046C45.1582 60.4046 45.111 60.4046 45.0795 60.4046C45.174 60.4046 45.0953 60.4046 45.048 60.4046C44.9693 60.3887 44.8907 60.3728 44.812 60.341C44.5129 60.2457 44.1509 60.4522 44.088 60.7541C44.0093 61.0718 44.1824 61.3895 44.4972 61.4848C45.8192 61.9138 47.2672 61.1671 47.9912 60.0233C48.8096 58.7048 48.7152 57.0367 48.3532 55.5911C48.1328 54.7332 47.8181 53.9072 47.582 53.0652C47.4875 52.7634 47.157 52.541 46.858 52.6522C46.559 52.7634 46.3544 53.0652 46.4488 53.3829L46.4331 53.3511Z" fill="#231F20"/>
<path d="M34.6918 44.9951C35.1168 45.5511 35.7463 45.8529 36.3759 46.123C37.0054 46.393 37.6035 46.536 38.233 46.6313C39.5551 46.822 40.8929 46.7266 42.1677 46.3136C42.876 46.0753 43.5685 45.7576 44.198 45.3287C44.623 45.0427 44.2295 44.3596 43.8045 44.6456C41.8057 45.98 39.2246 46.2977 36.9582 45.4875C36.3286 45.2651 35.6834 44.9792 35.2584 44.4232C35.1325 44.2484 34.8335 44.2802 34.7076 44.4232C34.5344 44.5979 34.5816 44.8203 34.7076 44.9792L34.6918 44.9951Z" fill="#231F20"/>
<path d="M37.2102 48.9507C39.0989 49.5861 41.1921 49.4273 42.9706 48.5535C43.1594 48.4582 43.2067 48.1881 43.1122 48.0134C43.0021 47.8228 42.766 47.7751 42.5771 47.8704C40.9875 48.6488 39.1146 48.76 37.4305 48.1881C37.2259 48.1246 37.0056 48.2676 36.9426 48.4582C36.8797 48.6806 37.0213 48.8712 37.2102 48.9507Z" fill="#231F20"/>
<path d="M48.3217 58.1012C50.2891 57.8152 51.6426 56.1154 52.3666 54.3679C53.248 52.2233 53.1693 49.8404 53.8933 47.6481C54.0349 47.2033 54.1923 46.7108 54.5228 46.3613C54.6487 46.2183 55.0894 45.9483 55.2311 46.2183C55.357 46.4407 54.8218 47.0444 54.7117 47.2509C54.4441 47.7275 54.2552 48.2677 54.1451 48.7919C53.6729 50.8253 53.9719 52.9858 53.0748 54.908C52.1777 56.8303 50.5252 58.3553 48.5106 58.9908C47.7866 59.2132 48.1014 60.3729 48.8254 60.1346C50.8557 59.4991 52.6027 58.0853 53.7044 56.2584C54.2552 55.337 54.633 54.3044 54.8061 53.2559C54.995 52.0803 54.995 50.8889 55.1838 49.7133C55.2625 49.189 55.3884 48.633 55.6088 48.1406C55.8449 47.6004 56.3013 47.1397 56.4272 46.552C56.679 45.3446 55.357 44.6138 54.3497 45.0587C53.2637 45.5511 52.8545 46.9809 52.5869 48.0294C52.2722 49.2685 52.1463 50.5394 51.8944 51.7944C51.4852 53.9231 50.478 56.5761 48.0384 56.9415C47.7237 56.9891 47.5505 57.3863 47.6292 57.6722C47.7237 58.0058 48.0384 58.1329 48.3532 58.0853L48.3217 58.1012Z" fill="#231F20"/>
<path d="M20.0706 12.0472C20.1965 13.5882 20.4641 15.1768 20.4641 16.7336C20.4641 18.2905 20.2123 19.752 20.4169 21.2929C20.6215 22.8339 21.1723 24.2478 22.2111 25.3121C23.5803 26.6942 25.5634 27.2026 27.4363 27.6792C28.8213 28.0287 27.7668 30.9199 27.7668 31.9525C27.7668 33.9701 28.8528 35.9399 30.4896 37.0996C31.3868 37.7351 32.4412 37.7668 33.3384 38.2911C34.1096 38.7359 34.7706 39.4984 35.5418 39.9909C36.2185 40.4198 36.911 40.8487 37.6822 41.1029C39.3033 41.6431 41.6484 41.5636 43.1279 40.674C43.8046 40.261 44.3712 39.7049 45.0322 39.2601C46.0238 38.6088 47.1884 38.2752 48.2429 37.7351C51.5953 36.0194 52.036 33.3823 51.9573 29.8714C51.9573 29.4425 51.9573 29.0136 52.1304 28.6323C52.5081 27.8539 53.4682 27.5838 54.2866 27.2979C57.0566 26.3288 59.4332 23.8188 59.6535 20.864C59.7165 19.9744 59.5906 19.0848 59.5748 18.1952C59.5276 15.2721 60.6293 12.2379 59.6535 9.47368C59.5119 9.07652 59.3073 8.66348 58.9453 8.44108C58.3944 8.09158 57.6862 8.26633 57.0881 8.50462C54.3968 9.61665 52.398 11.9201 50.5565 14.176C49.2502 15.7805 48.3846 17.5438 46.7635 18.8306C46.4802 19.053 45.8507 19.8314 45.5831 19.9109C45.1267 20.0538 44.6545 19.6726 44.1509 19.5296C43.1908 19.2277 42.1521 19.2277 41.1605 19.2436C38.8627 19.2595 36.5333 19.4343 34.3771 20.2127C31.9533 16.3365 28.5223 12.7303 25.2329 9.56899C24.1627 8.53639 22.7619 7.32905 21.1881 8.32988C20.0863 9.04475 19.9447 10.8558 20.0391 12.0313L20.0706 12.0472Z" fill="#FDE0DA"/>
<path d="M27.515 27.6C27.7511 27.6 27.9872 27.5682 28.1918 27.5206C28.4908 26.488 28.7899 25.4554 29.0889 24.4228C29.3722 23.422 28.9472 23.0407 29.7499 22.1193C30.285 21.4997 31.0405 21.039 30.9461 20.1335C30.6313 17.1311 27.7354 14.8117 25.5949 13.0801C24.5089 12.2064 21.251 8.60022 20.0863 10.9672C20.0706 10.999 20.0706 11.0467 20.0549 11.0785C20.0391 11.4279 20.0549 11.7616 20.0706 12.0475C20.1965 13.5885 20.4641 15.1771 20.4641 16.7339C20.4641 18.2749 20.2122 19.7523 20.4169 21.2932C20.6215 22.7706 21.1723 24.248 22.2111 25.3124C23.3915 26.5198 25.6893 27.6318 27.515 27.5841V27.6Z" fill="#F9BDBE"/>
<path d="M59.8269 10.0776C59.4492 9.63282 58.8511 9.66459 58.1743 9.91877C56.8995 10.586 55.7348 11.4121 54.5859 12.3811C54.5387 12.4288 54.4915 12.4288 54.4285 12.4605C53.8776 13.0642 53.3583 13.6838 52.8546 14.3033C51.7214 15.7013 50.4938 17.2105 49.88 18.9262C49.6439 19.5616 49.3764 20.4513 49.5967 21.1344C49.7698 21.6586 50.3049 22.024 50.5725 22.5165C51.1391 23.5649 50.604 24.5975 50.8558 25.6937C51.1234 26.8216 51.564 27.9018 52.0519 28.9662C52.0834 28.855 52.0834 28.7279 52.1464 28.6326C52.5241 27.8542 53.4842 27.5841 54.3026 27.2982C57.0726 26.3291 59.4492 23.8191 59.6695 20.8643C59.7325 19.9747 59.6065 19.0851 59.5908 18.1954C59.5436 15.4789 60.4722 12.6671 59.8269 10.0617V10.0776Z" fill="#F9BDBE"/>
<path d="M33.4643 32.6356C34.3161 32.6356 35.0067 31.9386 35.0067 31.0788C35.0067 30.219 34.3161 29.522 33.4643 29.522C32.6124 29.522 31.9219 30.219 31.9219 31.0788C31.9219 31.9386 32.6124 32.6356 33.4643 32.6356Z" fill="#231F20"/>
<path d="M46.1811 32.6356C47.0329 32.6356 47.7235 31.9386 47.7235 31.0788C47.7235 30.219 47.0329 29.522 46.1811 29.522C45.3292 29.522 44.6387 30.219 44.6387 31.0788C44.6387 31.9386 45.3292 32.6356 46.1811 32.6356Z" fill="#231F20"/>
<path d="M39.9487 36.9091C40.7137 36.9091 41.3337 36.5179 41.3337 36.0354C41.3337 35.5528 40.7137 35.1616 39.9487 35.1616C39.1838 35.1616 38.5637 35.5528 38.5637 36.0354C38.5637 36.5179 39.1838 36.9091 39.9487 36.9091Z" fill="#231F20"/>
<path d="M28.0344 26.3452C27.3105 29.5065 26.6022 33.1126 28.5223 36.0039C28.9316 36.6076 29.4195 37.1318 30.0175 37.5608C30.6786 38.0373 31.4498 38.3074 32.2052 38.6092C33.4958 39.1176 34.5188 39.9278 35.652 40.738C36.9111 41.6435 38.2646 42.3107 39.8385 42.0565C40.1533 42.0089 40.3264 41.6117 40.2477 41.3258C40.1533 40.9922 39.8385 40.8651 39.5237 40.9127C38.3748 41.1034 37.3203 40.4679 36.4075 39.8484C35.4159 39.1494 34.4873 38.3392 33.3699 37.8308C32.0793 37.243 30.71 36.9094 29.7814 35.7497C29.0102 34.7966 28.601 33.5257 28.4909 32.3183C28.3335 30.412 28.7584 28.5374 29.1834 26.6947C29.3565 25.948 28.2233 25.6303 28.0502 26.3769L28.0344 26.3452Z" fill="#231F20"/>
<path d="M33.2125 21.4519C35.1798 20.4352 37.4777 20.1969 39.6653 20.054C41.853 19.911 43.9148 20.0222 45.7405 21.0866C46.4015 21.4678 46.9996 20.4352 46.3386 20.054C44.324 18.8784 41.9475 18.7036 39.6653 18.8466C37.2731 18.9896 34.7863 19.2755 32.6144 20.4035C31.9376 20.7529 32.5357 21.7855 33.2125 21.436V21.4519Z" fill="#231F20"/>
<path d="M20.5114 13.4931C20.3225 12.6511 20.2124 11.7615 20.354 10.9037C20.4642 10.2682 20.7003 9.55334 21.2039 9.1403C21.4557 8.93378 21.8335 8.87023 22.1482 8.91789C22.6676 8.99732 23.1083 9.21973 23.5647 9.48979C24.5877 10.0935 25.4691 10.9037 26.319 11.7138C27.3735 12.7147 28.4122 13.7314 29.388 14.8275C30.8517 16.4797 32.2053 18.243 33.5431 19.9905C33.7319 20.2447 34.0467 20.3877 34.3458 20.197C34.5976 20.0541 34.755 19.641 34.5504 19.3868C33.244 17.6711 31.9377 15.9554 30.5212 14.3192C29.4353 13.0642 28.2549 11.9045 27.0587 10.7607C26.0987 9.85517 25.0756 8.93378 23.8952 8.29833C22.8722 7.74232 21.5659 7.39282 20.5429 8.15536C19.8189 8.69549 19.4254 9.60099 19.2523 10.4588C19.032 11.5709 19.1421 12.6988 19.3782 13.8108C19.5513 14.5575 20.6845 14.2397 20.5114 13.4931Z" fill="#231F20"/>
<path d="M19.8819 15.3199L19.8189 19.1962C19.8032 20.34 19.7874 21.4838 20.0078 22.5958C20.417 24.6133 21.8807 26.329 23.6434 27.3298C24.6507 27.8859 25.7524 28.2195 26.8856 28.3148C27.2004 28.3466 27.4837 28.0288 27.4837 27.7111C27.4837 27.3616 27.2161 27.1392 26.8856 27.1074C25.1701 26.9645 23.549 26.1066 22.4158 24.804C21.8177 24.1209 21.3771 23.3107 21.1724 22.421C20.9364 21.4202 20.9678 20.3876 20.9836 19.3709C20.9993 18.0206 21.0308 16.6703 21.0465 15.3199C21.0465 14.5574 19.8819 14.5574 19.8661 15.3199H19.8819Z" fill="#231F20"/>
<path d="M22.1326 11.0941C24.2258 12.5397 26.1931 14.2078 27.8929 16.1141C28.6484 16.956 29.3409 17.8774 29.7658 18.9259C29.9704 19.4343 30.1278 19.9903 30.1593 20.5463C30.1593 20.7687 30.2223 21.0864 30.1121 21.293C30.0177 21.4677 29.7973 21.563 29.6242 21.6583C29.0891 21.9443 28.6327 22.2144 28.3966 22.8021C28.1762 23.3582 28.2864 24.0254 28.8373 24.3272C29.4983 24.6926 30.0964 23.66 29.4353 23.2946C29.2307 23.1834 29.514 23.3899 29.4668 23.3899C29.4511 23.3899 29.4983 23.2152 29.514 23.1834C29.577 23.0245 29.7186 22.9451 29.8603 22.8657C30.3167 22.6115 30.8046 22.3891 31.1036 21.9284C31.4499 21.3883 31.3869 20.6575 31.3082 20.0538C31.2295 19.4978 31.0722 18.9577 30.8676 18.4493C29.939 16.1935 28.0503 14.3825 26.2561 12.7939C25.1387 11.8089 23.974 10.8876 22.7464 10.0456C22.1168 9.61666 21.5187 10.6493 22.1483 11.0782L22.1326 11.0941Z" fill="#231F20"/>
<path d="M50.8084 26.6629C51.4694 29.5224 52.1934 32.8267 50.4149 35.4479C49.5808 36.6711 48.3059 37.1001 46.9996 37.6402C45.8035 38.1327 44.7962 38.9111 43.726 39.6418C42.5928 40.4361 41.4124 41.0557 39.9802 40.881C39.6654 40.8333 39.3821 41.1828 39.3821 41.4846C39.3821 41.8341 39.6496 42.0406 39.9802 42.0883C42.9076 42.4696 44.7647 39.9278 47.2042 38.8475C47.944 38.5139 48.7309 38.2756 49.4549 37.8944C50.0844 37.5449 50.651 37.0683 51.1074 36.4964C52.0203 35.3367 52.5082 33.9228 52.6498 32.4772C52.8702 30.4279 52.3823 28.3627 51.9259 26.3769C51.7527 25.6303 50.6195 25.948 50.7927 26.6947L50.8084 26.6629Z" fill="#231F20"/>
<path d="M60.6137 13.8109C61.0072 12.0634 61.0859 9.87113 59.7796 8.45726C58.8667 7.47232 57.5289 7.63118 56.4272 8.13954C55.2153 8.69555 54.1766 9.61695 53.2008 10.5066C52.0676 11.5551 50.9659 12.6353 49.9271 13.7791C48.3218 15.5584 46.8738 17.4647 45.4258 19.3869C45.237 19.6411 45.3944 20.0541 45.6304 20.1971C45.9295 20.3718 46.2442 20.2448 46.4331 19.9906C47.6135 18.4337 48.7939 16.8928 50.0688 15.4154C51.1233 14.1922 52.2407 13.0642 53.3896 11.9522C54.2238 11.142 55.0894 10.3318 56.0652 9.69638C56.5059 9.39454 56.9623 9.14037 57.466 8.99739C57.7335 8.91796 57.828 8.90207 58.064 8.90207C58.1899 8.90207 58.2214 8.90207 58.2686 8.90207C58.3316 8.90207 58.5677 8.99739 58.5205 8.96562C59.0713 9.2198 59.3704 9.9029 59.5435 10.5383C59.7796 11.5074 59.6851 12.5241 59.4648 13.4773C59.2917 14.2239 60.4406 14.5416 60.598 13.795L60.6137 13.8109Z" fill="#231F20"/>
<path d="M58.9296 15.3199L58.9925 18.8784C59.0083 19.911 59.0712 20.9913 58.8981 22.0239C58.5991 23.8349 57.4029 25.3441 55.8448 26.2496C55.0106 26.7261 54.0821 27.028 53.122 27.1233C52.8072 27.1551 52.5239 27.3775 52.5239 27.727C52.5239 28.0288 52.7915 28.3465 53.122 28.3306C55.1051 28.1718 56.9937 27.2663 58.3315 25.773C59.0398 24.9946 59.6064 24.089 59.8897 23.0723C60.2044 21.9921 60.2202 20.8324 60.2044 19.7204C60.1887 18.2588 60.1572 16.7973 60.1257 15.3517C60.1257 14.5892 58.9296 14.5892 58.9453 15.3517L58.9296 15.3199Z" fill="#231F20"/>
<path d="M57.2614 10.0617C55.1524 11.5232 53.1379 13.1913 51.4066 15.0976C50.6197 15.9713 49.8642 16.9086 49.3606 17.973C49.1087 18.5131 48.8884 19.0691 48.7625 19.641C48.6366 20.2129 48.5421 20.896 48.6838 21.4679C48.8412 22.1193 49.3606 22.4688 49.9271 22.7706C50.116 22.8818 50.3364 22.9612 50.4465 23.1519C50.478 23.1995 50.5095 23.3107 50.5095 23.3107C50.541 23.3584 50.4623 23.3743 50.5095 23.3584C50.541 23.3584 50.6826 23.2154 50.5252 23.2948C49.8642 23.6602 50.4465 24.6928 51.1233 24.3274C51.6112 24.0574 51.7686 23.5014 51.6269 22.9771C51.4853 22.4529 51.1548 22.0875 50.7141 21.8492C50.3206 21.6268 49.817 21.4997 49.8012 20.9755C49.7855 20.4512 49.8799 19.8793 50.0531 19.371C50.3993 18.2907 51.0446 17.3375 51.7686 16.4797C52.5713 15.5265 53.4684 14.6528 54.3969 13.8108C55.4829 12.8259 56.6476 11.9204 57.8437 11.0943C58.4733 10.6654 57.8752 9.63278 57.2457 10.0617H57.2614Z" fill="#231F20"/>
<path d="M39.0988 39.5465C39.5395 39.1493 39.8542 38.5933 39.9959 38.0055C40.0431 37.8308 40.0588 37.6401 40.0746 37.4495C40.0746 37.3542 40.0274 37.243 39.9644 37.1636C39.9014 37.0841 39.7913 37.0365 39.6811 37.0524C39.4608 37.0524 39.3034 37.2271 39.2876 37.4495C39.2876 37.5131 39.2876 37.5766 39.2719 37.656V37.5448C39.2562 37.7831 39.1932 38.0055 39.0988 38.2279L39.146 38.1326C39.0516 38.3391 38.9414 38.5457 38.7997 38.7204L38.8627 38.641C38.7683 38.7681 38.6581 38.8793 38.5479 38.9746C38.4692 39.0381 38.4377 39.1652 38.4377 39.2605C38.4377 39.3558 38.485 39.467 38.5479 39.5465C38.7053 39.7053 38.9414 39.6895 39.0988 39.5465Z" fill="#231F20"/>
<path d="M39.7757 37.5287C40.2793 37.5287 40.2793 36.7344 39.7757 36.7344C39.272 36.7344 39.272 37.5287 39.7757 37.5287Z" fill="#231F20"/>
<path d="M39.7757 37.5287C40.2793 37.5287 40.2793 36.7344 39.7757 36.7344C39.272 36.7344 39.272 37.5287 39.7757 37.5287Z" fill="#231F20"/>
<path d="M39.6025 37.0203C39.6025 37.7828 39.9016 38.5136 40.4052 39.0696C40.5469 39.2285 40.7042 39.3715 40.8774 39.4985C40.9561 39.5621 41.0977 39.5621 41.1764 39.5462C41.2551 39.5303 41.3653 39.4509 41.4125 39.3715C41.4597 39.2761 41.4912 39.1649 41.4597 39.0696L41.4125 38.9743C41.4125 38.9743 41.3338 38.8631 41.2708 38.8313C41.2708 38.8313 41.2394 38.8154 41.2236 38.7996L41.3023 38.8631C41.1292 38.7201 40.9718 38.5613 40.8302 38.3865L40.8931 38.4659C40.7515 38.2753 40.6256 38.0688 40.5311 37.8464L40.5783 37.9417C40.4839 37.7193 40.421 37.481 40.3895 37.2427V37.3539C40.3895 37.2427 40.3895 37.1474 40.3895 37.0362C40.3895 36.8297 40.2163 36.6232 39.996 36.639C39.7757 36.6549 39.6025 36.8138 39.6025 37.0362V37.0203Z" fill="#231F20"/>
<path d="M38.7053 19.8317C38.7368 20.9596 38.9257 22.0717 39.0044 23.1996C39.0831 24.3752 39.146 25.6143 38.8155 26.7581C38.6581 27.2982 38.422 27.7589 37.9814 28.1243C37.824 28.2672 37.8397 28.5373 37.9814 28.6803C38.1387 28.8391 38.3748 28.8233 38.5322 28.6803C39.4451 27.9019 39.7126 26.6469 39.807 25.5031C39.9015 24.2163 39.7756 22.9136 39.6339 21.6269C39.571 21.0232 39.508 20.4195 39.4765 19.8158C39.4608 19.3075 38.6739 19.3075 38.6896 19.8158L38.7053 19.8317Z" fill="#231F20"/>
<path d="M36.5178 20.2765C36.5178 22.1352 36.7382 24.0257 36.2188 25.8526C36.0771 26.345 36.8326 26.5516 36.9742 26.0591C37.5094 24.1686 37.2733 22.2147 37.289 20.2765C37.289 20.0541 37.1001 19.8794 36.8955 19.8794C36.6909 19.8794 36.5021 20.0541 36.5021 20.2765H36.5178Z" fill="#231F20"/>
<path d="M40.9717 20.0541C40.956 20.8008 40.9403 21.5633 40.9403 22.3099C40.9403 23.0566 40.9088 23.7556 40.9403 24.4705C41.019 25.7572 41.4124 27.1234 42.5771 27.8224C43.0178 28.0925 43.4112 27.3935 42.9706 27.1393C41.979 26.5357 41.7429 25.2648 41.7115 24.2004C41.6642 22.8183 41.7115 21.4362 41.7429 20.0541C41.7429 19.5458 40.9717 19.5458 40.956 20.0541H40.9717Z" fill="#231F20"/>
<path d="M42.8288 20.1655C42.7974 21.1822 42.8603 22.1989 42.9548 23.2156C43.002 23.724 43.0492 24.2482 43.1594 24.7566C43.2066 24.9631 43.301 25.1378 43.4269 25.2967C43.4584 25.3285 43.4899 25.3761 43.5056 25.4079C43.5371 25.4397 43.5371 25.4397 43.5056 25.4079C43.5371 25.4397 43.5686 25.4873 43.5843 25.5191C43.6 25.5509 43.6315 25.5985 43.663 25.6462C43.6787 25.6938 43.6787 25.6938 43.663 25.6462C43.663 25.678 43.6787 25.6939 43.6787 25.7256C43.7417 25.9321 43.962 26.0592 44.1666 25.9957C44.3712 25.9321 44.4971 25.7097 44.4342 25.5032C44.3712 25.2649 44.2296 25.0743 44.0879 24.8837C44.0407 24.8201 44.1194 24.9313 44.0565 24.8519C44.025 24.8201 43.9935 24.7725 43.9778 24.7407C43.962 24.7089 43.9306 24.6613 43.9148 24.6136C43.9463 24.6771 43.8991 24.55 43.8991 24.5342C43.7889 24.0735 43.7574 23.6287 43.7102 23.1521C43.6 22.1512 43.5528 21.1504 43.5843 20.1496C43.5843 19.9272 43.3954 19.7524 43.1908 19.7524C42.9862 19.7524 42.7974 19.9272 42.7974 20.1496L42.8288 20.1655Z" fill="#231F20"/>
<path d="M34.9911 36.3533C34.818 36.5757 34.6921 36.7981 34.5976 37.0523C34.519 37.2747 34.4717 37.513 34.456 37.7513C34.4245 38.2279 34.5347 38.7204 34.7393 39.1493C34.8652 39.3876 35.0226 39.61 35.2272 39.7847C35.3846 39.9277 35.6364 39.9436 35.7781 39.7847C35.9197 39.6259 35.9354 39.3717 35.7781 39.2287C35.6994 39.1652 35.6364 39.0857 35.5734 39.0222C35.542 38.9745 35.6049 39.054 35.6049 39.054C35.6049 39.054 35.5892 39.0381 35.5892 39.0222C35.5892 39.0063 35.5577 38.9904 35.5577 38.9745C35.5262 38.9269 35.4948 38.8951 35.479 38.8475C35.4475 38.7998 35.4318 38.768 35.4161 38.7204C35.4161 38.7045 35.4003 38.6727 35.3846 38.6568C35.3688 38.6251 35.4003 38.7204 35.4003 38.7045C35.4003 38.7045 35.4003 38.6727 35.3846 38.6568C35.3531 38.5615 35.3216 38.4662 35.2901 38.3709C35.2901 38.3232 35.2744 38.2756 35.2587 38.2438C35.2587 38.212 35.2587 38.1961 35.2587 38.1644C35.2587 38.1644 35.2587 38.2597 35.2587 38.2279C35.2587 38.212 35.2587 38.1961 35.2587 38.1802C35.2587 38.0849 35.2587 37.9896 35.2587 37.8943C35.2587 37.8466 35.2587 37.799 35.2587 37.7513C35.2587 37.7354 35.2587 37.7037 35.2587 37.6878C35.2587 37.6878 35.2429 37.799 35.2587 37.7354C35.2587 37.7195 35.2587 37.7037 35.2587 37.6878C35.2744 37.5925 35.2901 37.4971 35.3216 37.4018C35.3216 37.3542 35.3531 37.2906 35.3846 37.243C35.3846 37.243 35.3374 37.3383 35.3688 37.2906C35.3688 37.2906 35.3688 37.2747 35.3846 37.2588C35.3846 37.2271 35.4161 37.2112 35.4161 37.1794C35.4475 37.1318 35.4633 37.0841 35.4948 37.0364C35.4948 37.0206 35.5262 36.9888 35.542 36.9729C35.6364 36.8458 35.5577 36.9411 35.542 36.9729C35.6049 36.8935 35.6521 36.814 35.6521 36.6869C35.6521 36.5916 35.6049 36.4804 35.542 36.401C35.4003 36.2739 35.117 36.2262 34.9911 36.401V36.3533Z" fill="#231F20"/>
<path d="M44.3398 36.7503C44.4343 36.7979 44.513 36.8456 44.5917 36.9092L44.513 36.8456C44.6074 36.925 44.7018 37.0204 44.7805 37.1157L44.7176 37.0362C44.812 37.1633 44.8907 37.2904 44.9379 37.4334L44.8907 37.3381C44.9536 37.4969 45.0009 37.6558 45.0166 37.8305V37.7193C45.0166 37.8782 45.0166 38.053 45.0166 38.2118V38.1006C45.0166 38.2436 44.9694 38.3866 44.9222 38.5295L44.9694 38.4342C44.9222 38.5454 44.8592 38.6566 44.7963 38.7519L44.8592 38.6725C44.8592 38.6725 44.8435 38.7043 44.8277 38.7043C44.7648 38.7837 44.7176 38.879 44.7176 38.9902C44.7176 39.0855 44.7648 39.1968 44.8277 39.2762C44.9694 39.4033 45.2527 39.4509 45.3786 39.2762C45.536 39.0697 45.6619 38.8473 45.7406 38.5931C45.8035 38.3707 45.835 38.1324 45.8193 37.91C45.8035 37.4175 45.6304 36.9409 45.3156 36.5597C45.1583 36.369 44.9536 36.1943 44.7176 36.0831C44.5287 35.9878 44.2769 36.0195 44.1825 36.226C44.088 36.4008 44.1195 36.6709 44.3241 36.7662L44.3398 36.7503Z" fill="#231F20"/>
</svg>
