<svg width="80" height="77" viewBox="0 0 80 77" fill="none" xmlns="http://www.w3.org/2000/svg">
<path d="M55.5297 44.7034C54.8214 45.7677 54.727 47.1022 54.727 48.3889C54.727 49.6757 54.8372 50.9625 54.4752 52.1857C53.9086 54.1238 52.1144 55.633 50.1155 55.8395C49.3758 55.919 48.6204 55.8395 47.9121 56.0143C47.2039 56.189 46.4799 56.745 46.4642 57.4917C46.4327 58.3813 47.3613 59.0009 48.2269 59.2074C50.7136 59.7952 53.4679 58.6355 55.2779 56.9198C57.5914 54.7434 56.9147 52.4399 57.4183 49.6757C57.6072 48.5955 58.221 47.6582 58.6459 46.6415C59.1338 45.4818 59.5116 44.2109 58.0479 43.6549C57.0091 43.2736 56.0648 43.8455 55.5297 44.6716V44.7034Z" fill="#5C564D"/>
<path d="M41.6795 38.6827C45.1421 39.7629 46.9363 42.7972 48.1639 45.9903C48.8722 47.8331 49.3601 49.7394 49.8952 51.6616C50.6978 54.7118 50.2886 58.4291 47.7862 60.2878C46.1651 61.4951 44.0561 61.6858 42.0415 61.797C36.9107 62.0671 30.7411 61.8923 29.7653 55.5537C29.3561 52.8849 30.2847 51.0897 31.0087 48.6115C31.9058 45.5455 33.1334 41.6375 35.8405 39.7788C37.5245 38.6191 39.7122 38.079 41.6795 38.6827Z" fill="#F3E1CE"/>
<path d="M38.1384 61.3524C38.0125 61.5112 38.2013 61.2571 38.2171 61.2253C38.2643 61.1459 38.3115 61.0823 38.343 61.0029C38.3745 60.9393 38.4059 60.8758 38.4374 60.8122C38.4374 60.7964 38.5161 60.6375 38.5161 60.6057C38.642 60.2562 38.7207 59.8909 38.7837 59.5096C38.7837 59.4619 38.7837 59.4143 38.7994 59.3666C38.7994 59.3666 38.7994 59.3507 38.7994 59.319C38.7994 59.2395 38.8152 59.1442 38.8309 59.0648C38.8466 58.8741 38.8624 58.6676 38.8624 58.477C38.8781 58.0481 38.8624 57.635 38.8624 57.2061C38.8624 56.7136 38.8152 56.2053 38.7837 55.7128C36.9737 55.6016 35.1795 55.2521 33.4482 54.6484C33.5269 55.9511 33.6214 57.2538 33.9204 58.5405C34.1407 59.5572 34.487 60.5422 35.0536 61.3524C35.8877 61.5748 36.7849 61.686 37.6977 61.7654C37.8393 61.6701 37.9338 61.5748 38.1069 61.3365L38.1384 61.3524Z" fill="#AA968A"/>
<path d="M44.9061 61.4954C46.055 59.7161 46.0236 57.079 46.1967 54.855C44.5441 55.3475 42.8443 55.6493 41.1288 55.7287C41.0816 56.0147 41.0187 56.3006 40.9714 56.5866C40.9872 56.666 41.0187 56.7295 41.0187 56.809C41.0187 57.8098 41.0501 58.7947 41.2862 59.7638C41.4751 60.4946 41.7899 61.1459 42.1833 61.7813C43.0962 61.7337 44.009 61.6542 44.9061 61.4795V61.4954Z" fill="#AA968A"/>
<path d="M35.8719 58.9059C35.2739 58.9059 34.6286 58.8741 33.999 58.8105C34.2194 59.7319 34.5499 60.6375 35.0693 61.3682C35.9034 61.5906 36.8005 61.7018 37.7134 61.7812C37.8393 61.7018 37.9337 61.5906 38.0911 61.4C38.0911 61.4 38.2013 61.257 38.217 61.2252C38.2642 61.1458 38.3114 61.0823 38.3429 61.0028C38.3744 60.9393 38.4059 60.8757 38.4373 60.8122C38.4373 60.7963 38.516 60.6375 38.516 60.6057C38.642 60.2562 38.7206 59.8908 38.7836 59.5095C38.7836 59.4619 38.7836 59.4142 38.7993 59.3666C38.7993 59.3666 38.7993 59.3507 38.7993 59.3189C38.7993 59.2395 38.8151 59.1442 38.8308 59.0647C38.8308 59.0012 38.8308 58.9217 38.8308 58.8582C37.8393 58.89 36.8477 58.89 35.8562 58.8582L35.8719 58.9059Z" fill="#5C564D"/>
<path d="M42.0258 58.6992C41.7267 58.731 41.4277 58.731 41.1287 58.7469C41.1759 59.0964 41.2074 59.43 41.2861 59.7636C41.4749 60.4944 41.7897 61.1457 42.1832 61.7811C43.096 61.7335 44.0089 61.6541 44.906 61.4793C45.504 60.5579 45.7716 59.4141 45.929 58.2227C44.6227 58.3974 43.3321 58.5722 42.0258 58.6834V58.6992Z" fill="#5C564D"/>
<path d="M32.7715 42.5432C32.1105 43.9729 31.4809 45.4345 30.8986 46.896C30.3163 48.3575 29.7654 49.7237 29.3877 51.1852C28.7266 53.7588 28.6794 56.5865 30.1274 58.9059C30.8514 60.0656 31.8586 60.9393 33.1177 61.4318C33.826 61.7019 34.1408 60.5581 33.4325 60.288C30.694 59.2236 29.8598 55.8716 30.1903 53.2187C30.3949 51.503 30.993 49.8508 31.6226 48.2463C32.2993 46.5147 33.0233 44.8149 33.7945 43.131C34.1093 42.432 33.102 41.8283 32.7715 42.5273V42.5432Z" fill="#231F20"/>
<path d="M33.2437 56.666C33.2751 57.6509 33.3696 58.6517 33.5742 59.6049C33.7473 60.4468 34.1565 61.3047 34.9592 61.7019C35.3841 61.9084 35.8248 61.9878 36.2812 62.0037C36.7062 62.0037 37.1783 61.9719 37.5875 61.8766C38.0754 61.7654 38.5004 61.4636 38.7365 61.0187C38.9411 60.6375 39.0355 60.2086 39.0985 59.7796C39.2716 58.6676 39.3188 57.5397 39.1929 56.4118C39.1772 56.2529 39.1457 56.1099 39.0198 55.9829C38.9096 55.8717 38.7522 55.8081 38.5948 55.8081C38.3115 55.8081 37.9653 56.0782 37.9968 56.4118C38.0912 57.3014 38.0912 58.191 37.9968 59.0806C37.9968 59.1442 37.9968 59.1918 37.981 59.2554C37.981 59.2872 37.981 59.3031 37.981 59.3348C37.981 59.4301 37.981 59.2236 37.981 59.3348C37.9653 59.446 37.9495 59.5572 37.9338 59.6684C37.9023 59.8432 37.8708 60.0338 37.8236 60.2086C37.8236 60.2562 37.7921 60.288 37.7764 60.3356C37.7764 60.3515 37.7764 60.3674 37.7607 60.3833C37.7449 60.4469 37.7921 60.3198 37.7921 60.3198C37.7607 60.3515 37.7607 60.3992 37.7449 60.431C37.7292 60.4786 37.6977 60.5104 37.6662 60.5581C37.6662 60.5581 37.6505 60.5898 37.6348 60.6057C37.6348 60.6057 37.7135 60.5104 37.6662 60.5581C37.6348 60.5898 37.6033 60.6216 37.5718 60.6534C37.6505 60.6057 37.5718 60.6534 37.5561 60.6534C37.5246 60.6693 37.4459 60.701 37.4302 60.7169C37.4616 60.6693 37.5246 60.6851 37.4616 60.7169C37.4459 60.7169 37.4302 60.7169 37.3987 60.7328C37.3515 60.7328 37.3042 60.7646 37.257 60.7646C37.2098 60.7646 37.1783 60.7805 37.1311 60.7963C37.0996 60.7963 37.0839 60.7963 37.0524 60.7963C36.9737 60.7963 37.0524 60.7963 37.0839 60.7963C37.0052 60.8281 36.895 60.8122 36.8163 60.8281C36.7219 60.8281 36.6432 60.8281 36.5488 60.844C36.3757 60.844 36.1868 60.844 36.0137 60.844C35.9979 60.844 35.9822 60.844 35.9507 60.844C35.8878 60.844 36.0137 60.844 36.0137 60.844C35.9665 60.844 35.9192 60.844 35.8878 60.8281C35.7933 60.8122 35.6989 60.7805 35.6202 60.7487C35.5887 60.7487 35.5572 60.7169 35.51 60.7169C35.51 60.7169 35.6359 60.7805 35.5415 60.7169C35.5258 60.7169 35.51 60.701 35.4943 60.6851C35.4156 60.6375 35.3369 60.5898 35.274 60.5422C35.211 60.4945 35.3526 60.6216 35.3054 60.5581C35.3054 60.5581 35.274 60.5263 35.2582 60.5263C35.2267 60.4945 35.1953 60.4627 35.1638 60.431C35.1323 60.3992 35.1166 60.3833 35.0851 60.3515C35.0851 60.3356 35.0221 60.2721 35.0851 60.3515C35.0379 60.288 35.0064 60.2244 34.9592 60.145C34.9434 60.1132 34.912 60.0656 34.8962 60.0338C34.8962 60.0179 34.8962 60.002 34.8805 59.9862C34.9592 60.1132 34.912 60.0497 34.8805 60.002C34.8175 59.8432 34.7703 59.6684 34.7231 59.4937C34.6759 59.2872 34.6444 59.0965 34.6129 58.89C34.5972 58.7629 34.5814 58.6517 34.5657 58.5246C34.5657 58.5087 34.55 58.3975 34.5657 58.477C34.5814 58.5564 34.5657 58.4452 34.5657 58.4293C34.5657 58.3658 34.55 58.3022 34.55 58.2387C34.487 57.7303 34.4555 57.222 34.4398 56.6977C34.4398 56.38 34.1722 56.0941 33.8417 56.0941C33.5112 56.0941 33.2437 56.3482 33.2437 56.6977V56.666Z" fill="#231F20"/>
<path d="M46.0235 43.1312C46.7947 44.8151 47.5187 46.515 48.1955 48.2465C48.825 49.851 49.4231 51.5032 49.6277 53.2189C49.9582 55.8719 49.1241 59.2238 46.3855 60.2882C45.6773 60.5583 45.9921 61.718 46.7003 61.432C48.9509 60.5583 50.3674 58.3819 50.7609 56.0307C51.2488 53.0759 50.2258 50.1529 49.1556 47.4522C48.4945 45.8001 47.802 44.1638 47.0466 42.5434C46.7318 41.8444 45.7088 42.4481 46.0235 43.1471V43.1312Z" fill="#231F20"/>
<path d="M45.4098 56.6657C45.4098 57.1264 45.3626 57.5712 45.3153 58.0319C45.3153 58.1431 45.2996 58.2385 45.2839 58.3497C45.2839 58.3814 45.2839 58.3973 45.2839 58.4291C45.2839 58.4926 45.2681 58.5562 45.2524 58.6197C45.2209 58.8104 45.1894 59.001 45.158 59.2075C45.1265 59.3823 45.0793 59.557 45.0321 59.7318C45.0006 59.8112 44.9848 59.8906 44.9534 59.97L44.9219 60.0336C44.9219 60.0336 44.9691 59.9224 44.9376 59.97C44.9219 60.0177 44.8904 60.0654 44.8747 60.0971C44.8432 60.1607 44.796 60.2401 44.7488 60.3036C44.7488 60.3195 44.7173 60.3513 44.7015 60.3672C44.7015 60.3672 44.7802 60.2719 44.733 60.3195C44.7015 60.3513 44.6701 60.399 44.6386 60.4307C44.6071 60.4625 44.5914 60.4784 44.5599 60.5102C44.5442 60.5261 44.5284 60.5419 44.4969 60.5578C44.4497 60.6055 44.5442 60.5261 44.5442 60.5261C44.4655 60.5578 44.4025 60.6214 44.3238 60.669C44.3081 60.669 44.1664 60.7485 44.2609 60.7008C44.3395 60.669 44.2136 60.7008 44.1979 60.7167C44.1192 60.7485 44.0248 60.7644 43.9461 60.7802C43.8989 60.7802 43.8516 60.7802 43.8202 60.7961C43.7572 60.7961 43.8831 60.7961 43.8831 60.7961H43.8044C43.71 60.7961 43.6313 60.7961 43.5369 60.7961C43.348 60.7961 43.1749 60.7961 42.986 60.7802C42.9073 60.7802 42.8129 60.7644 42.7342 60.7485C42.6712 60.7485 42.7971 60.7485 42.7971 60.7485C42.7657 60.7485 42.7342 60.7485 42.7185 60.7485C42.6712 60.7485 42.6083 60.7326 42.5611 60.7167C42.5139 60.7167 42.4824 60.7008 42.4352 60.6849C42.4037 60.6849 42.3879 60.669 42.3565 60.6531C42.3407 60.6531 42.3092 60.6214 42.2935 60.6055C42.2778 60.6055 42.262 60.5896 42.2463 60.5737C42.1833 60.5419 42.325 60.6531 42.2778 60.6055C42.2463 60.5737 42.2148 60.5419 42.1833 60.5102C42.1361 60.4466 42.1046 60.3672 42.0574 60.2878C42.026 60.2242 42.0889 60.3513 42.0889 60.3513C42.0889 60.3354 42.0732 60.3037 42.0574 60.2878C42.0574 60.256 42.0417 60.2242 42.026 60.1766C41.9945 60.0812 41.9787 60.0018 41.963 59.9065C41.9158 59.7 41.8843 59.4935 41.8528 59.2869C41.8528 59.2234 41.8528 59.3187 41.8528 59.3187C41.8528 59.2869 41.8528 59.2552 41.8528 59.2234C41.8528 59.1598 41.8528 59.0963 41.8371 59.0328C41.8371 58.9057 41.8056 58.7786 41.8056 58.6515C41.7899 58.3973 41.7741 58.159 41.7741 57.9048C41.7741 57.3965 41.7899 56.8881 41.8528 56.3957C41.8843 56.0779 41.5538 55.792 41.2548 55.792C40.9085 55.792 40.7039 56.0621 40.6567 56.3957C40.5465 57.3647 40.5622 58.3338 40.6882 59.3028C40.8141 60.2719 40.9557 61.3362 41.9315 61.7493C42.3565 61.924 42.8286 61.9717 43.2693 61.9876C43.6943 62.0035 44.1349 61.9876 44.5442 61.8446C44.9691 61.7016 45.3626 61.4633 45.6459 61.098C45.9292 60.7326 46.118 60.3195 46.2282 59.8906C46.3698 59.3823 46.4328 58.8421 46.4958 58.3179C46.5587 57.7619 46.6059 57.2217 46.6217 56.6657C46.6217 56.348 46.3384 56.0621 46.0236 56.0621C45.6931 56.0621 45.4413 56.3162 45.4255 56.6657H45.4098Z" fill="#231F20"/>
<path d="M52.3818 55.7128C53.9715 54.9503 54.7112 53.1392 54.9315 51.4712C55.1676 49.6125 54.8528 47.5473 55.7342 45.8157C55.9231 45.4345 56.1591 45.1009 56.4582 44.8149C56.71 44.5766 57.1822 44.1954 57.5599 44.2907C58.2996 44.4654 58.6144 43.3216 57.8747 43.1469C56.9146 42.9245 55.9545 43.5758 55.3565 44.2748C54.7584 44.9738 54.3964 45.7999 54.1918 46.6736C53.7196 48.6752 54.1446 50.804 53.4206 52.758C53.1216 53.5841 52.5864 54.2989 51.7838 54.6802C51.5005 54.8232 51.4218 55.2362 51.5792 55.4904C51.7523 55.7922 52.0985 55.8399 52.3818 55.6969V55.7128Z" fill="#231F20"/>
<path d="M49.3758 59.7159C52.2088 59.843 54.9316 58.3021 56.5212 55.9668C57.3553 54.7277 57.7488 53.3456 57.8747 51.8682C57.9377 51.0262 57.9377 50.1684 58.0636 49.3264C58.1895 48.4844 58.5043 47.8013 58.9292 47.0865C59.3541 46.3716 59.7161 45.5455 59.4801 44.6718C59.2755 43.9092 58.6931 43.3056 57.8904 43.2897C57.135 43.2579 57.135 44.4494 57.8904 44.4811C58.2839 44.4811 58.4098 45.0848 58.3626 45.4025C58.2839 46.0698 57.7803 46.6417 57.4812 47.2294C56.8045 48.5798 56.8045 50.0889 56.71 51.5664C56.6313 52.8531 56.3481 54.0287 55.6713 55.1248C55.0417 56.1416 54.1604 56.9835 53.1373 57.5872C51.9884 58.2703 50.6978 58.6198 49.3601 58.5562C48.6046 58.5245 48.6046 59.7159 49.3601 59.7477L49.3758 59.7159Z" fill="#231F20"/>
<path d="M35.2583 59.8273C35.2583 59.9385 35.2583 60.0497 35.2898 60.1768C35.2898 60.2563 35.3213 60.3357 35.337 60.4151C35.3685 60.5263 35.4157 60.6375 35.4629 60.7328C35.4944 60.8123 35.5416 60.8758 35.5888 60.9552C35.6203 61.0029 35.6518 61.0347 35.6832 61.0664C35.7147 61.0982 35.7619 61.13 35.8249 61.13C35.8721 61.1459 35.9351 61.1459 35.9823 61.13C36.0295 61.13 36.0767 61.1141 36.1239 61.0823C36.2026 61.0347 36.2813 60.9394 36.2971 60.844C36.3128 60.7487 36.3128 60.6216 36.2498 60.5422C36.1869 60.4628 36.1397 60.3675 36.1082 60.2721L36.1554 60.3675C36.0925 60.2404 36.061 60.0974 36.0452 59.9544V60.0656C36.0452 60.0656 36.0452 59.9068 36.0452 59.8273C36.0452 59.7797 36.0452 59.7161 36.0138 59.6685C35.998 59.6208 35.9665 59.5732 35.9351 59.5414C35.9036 59.5096 35.8564 59.4778 35.8092 59.4619C35.7619 59.4302 35.7147 59.4302 35.6518 59.4302C35.5573 59.4302 35.4472 59.4619 35.3685 59.5414C35.2898 59.6208 35.2583 59.7161 35.2583 59.8273Z" fill="#231F20"/>
<path d="M36.5646 60.1927L36.7063 60.987C36.7063 60.987 36.7377 61.0823 36.7692 61.1299C36.8007 61.1776 36.8322 61.2094 36.8794 61.2253C36.9266 61.257 36.9738 61.2729 37.021 61.2729C37.0683 61.2729 37.1312 61.2729 37.1784 61.2729L37.2729 61.2253C37.2729 61.2253 37.383 61.1458 37.4145 61.0823L37.4617 60.987C37.4617 60.987 37.4775 60.844 37.4617 60.7805L37.3201 59.9861C37.3201 59.9861 37.2886 59.8908 37.2571 59.8432C37.2256 59.7955 37.1942 59.7637 37.1469 59.7479C37.0997 59.7161 37.0525 59.7002 37.0053 59.7002C36.9581 59.7002 36.8951 59.7002 36.8479 59.7002L36.7535 59.7479C36.7535 59.7479 36.6433 59.8273 36.6118 59.8908L36.5646 59.9861C36.5646 59.9861 36.5489 60.1291 36.5646 60.1927Z" fill="#231F20"/>
<path d="M42.4667 59.7318C42.4352 59.843 42.4194 59.9542 42.4194 60.0654C42.4194 60.1448 42.4194 60.2243 42.4194 60.3196C42.4194 60.4308 42.4509 60.542 42.4824 60.6532C42.5139 60.7644 42.5611 60.8756 42.6083 60.9709C42.6398 61.0186 42.6713 61.0503 42.7027 61.0821C42.7342 61.1139 42.7814 61.1457 42.8444 61.1457C42.8916 61.1615 42.9546 61.1615 43.0018 61.1457C43.049 61.1457 43.0962 61.1298 43.1434 61.098C43.2221 61.0503 43.3008 60.955 43.3165 60.8597V60.7485C43.3165 60.7485 43.3165 60.6055 43.2693 60.542C43.2693 60.5261 43.2536 60.5102 43.2378 60.4784L43.2851 60.5738C43.2378 60.4625 43.2064 60.3513 43.1906 60.2243V60.3355C43.1906 60.2084 43.1906 60.0972 43.1906 59.9701V60.0813C43.1906 60.0813 43.1906 59.9701 43.2064 59.9224C43.2221 59.8748 43.2221 59.8112 43.2064 59.7636C43.2064 59.7159 43.1906 59.6682 43.1592 59.6206C43.1277 59.5729 43.0962 59.5411 43.0647 59.5094C43.0332 59.4776 42.986 59.4458 42.9231 59.4458C42.8286 59.43 42.7027 59.4299 42.624 59.4935C42.5453 59.557 42.4667 59.6365 42.4509 59.7318H42.4667Z" fill="#231F20"/>
<path d="M43.7413 60.0655C43.7413 60.0655 43.757 60.1608 43.7728 60.1926V60.0814C43.7728 60.2085 43.7728 60.3355 43.7728 60.4467V60.3355C43.7728 60.4626 43.7413 60.5738 43.6941 60.685L43.7413 60.5897C43.7413 60.5897 43.7256 60.6374 43.7098 60.6533C43.6783 60.7009 43.6626 60.7486 43.6626 60.7962C43.6626 60.8439 43.6626 60.9074 43.6626 60.9551C43.6626 61.0028 43.6941 61.0504 43.7256 61.0981C43.757 61.1457 43.7885 61.1775 43.8357 61.1934C43.9302 61.2411 44.0403 61.2728 44.1348 61.2411C44.2292 61.2093 44.3236 61.1457 44.3708 61.0663C44.4181 60.971 44.4653 60.8598 44.4967 60.7486C44.5282 60.6374 44.544 60.5262 44.5597 60.415C44.5597 60.3355 44.5597 60.2561 44.5597 60.1767C44.5597 60.0655 44.544 59.9543 44.5125 59.8431C44.5125 59.7954 44.481 59.7478 44.4495 59.7001C44.4181 59.6524 44.3866 59.6207 44.3394 59.6048C44.2921 59.573 44.2449 59.5571 44.1977 59.5571C44.1505 59.5571 44.0875 59.5571 44.0403 59.5571C43.9459 59.5889 43.8515 59.6524 43.8042 59.7319L43.757 59.8272C43.757 59.8272 43.7413 59.9702 43.757 60.0337L43.7413 60.0655Z" fill="#231F20"/>
<path d="M20.9831 19.7144C20.9202 22.6851 21.3294 25.6717 22.195 28.5153C22.3681 29.0713 22.557 29.6432 22.6042 30.2151C22.6672 30.8664 22.5413 31.5178 22.4626 32.1691C21.9275 36.4107 22.9347 41.0812 26.0667 43.9566C29.608 47.1974 34.8647 47.4674 39.6493 47.2768C42.3091 47.1656 44.9847 46.9908 47.5501 46.2442C50.1155 45.4976 52.5708 44.1949 54.2863 42.1456C54.9788 41.3195 55.5454 40.3981 55.9546 39.4132C56.5842 37.8881 57.0721 35.9341 56.9934 34.2661C56.9147 32.8363 56.2379 31.6449 56.474 30.1198C56.6471 29.0237 57.0406 27.9752 57.3711 26.9108C58.3312 23.7971 58.6774 20.4293 58.0006 17.2362C57.796 16.2512 57.4498 15.2186 56.6471 14.6149C55.3565 13.63 54.3178 14.742 53.2318 15.3775C51.532 16.3783 50.0211 17.7286 48.825 19.3013C48.4315 19.8256 48.038 20.4134 47.4242 20.6517C46.8419 20.89 46.1809 20.7629 45.567 20.6517C43.3794 20.2863 41.1445 20.1433 38.9253 20.2386C37.3829 20.3022 34.5499 20.0798 33.1492 20.6993C32.9761 20.7788 32.8029 20.8741 32.6141 20.8423C32.3937 20.8105 32.2363 20.6199 32.0947 20.461C30.0644 17.9193 27.7665 15.3934 24.7132 14.2972C21.7071 13.2011 20.9989 17.5221 20.9517 19.6985L20.9831 19.7144Z" fill="#F3E1CE"/>
<path d="M22.6043 30.2151C22.6043 30.2151 22.6043 30.3104 22.6043 30.358C23.7847 28.0863 25.154 25.8146 27.0899 24.0989C28.0814 23.2093 29.1989 22.4944 30.4265 22.002C31.2134 21.6842 32.3151 21.5889 32.8975 21.0011C31.5282 20.4292 30.4894 18.4593 29.4192 17.4268C28.0657 16.1082 26.539 14.9644 24.7605 14.329C21.7544 13.2328 21.0462 17.5538 20.999 19.7302C20.936 22.7009 21.3452 25.6875 22.2109 28.5311C22.384 29.0872 22.5728 29.6591 22.6201 30.231L22.6043 30.2151Z" fill="#5C564D"/>
<path d="M47.4556 20.8104C47.3611 20.9693 47.2982 21.1281 47.251 21.3188C48.9508 22.1607 51.4375 22.7485 52.7281 24.1306C53.515 24.9567 53.9399 26.0052 54.5695 26.9425C55.1518 27.8162 55.923 28.6582 56.6313 29.516C56.8359 28.6423 57.1192 27.7685 57.3867 26.9107C58.3468 23.797 58.693 20.4292 58.0163 17.2361C57.8117 16.2511 57.4654 15.2185 56.6627 14.6148C55.3722 13.6299 54.3334 14.7419 53.2474 15.3774C51.5477 16.3782 50.0367 17.7285 48.8406 19.3012C48.4314 19.8573 47.7861 20.2385 47.4398 20.8104H47.4556Z" fill="#5C564D"/>
<path d="M53.3577 25.4176C53.9243 26.0372 54.4594 26.7044 54.9001 27.4193C55.325 25.9895 55.4667 24.4645 55.5139 23.0029C55.5611 21.4938 55.5139 19.921 55.1834 18.4277C54.3492 18.7455 53.5623 19.2062 52.7911 19.7622C52.4921 19.9687 52.3032 20.1275 52.0042 20.3976C51.7366 20.6359 51.4848 20.8901 51.2487 21.176C51.1857 21.2396 51.1385 21.3031 51.0913 21.3667C51.1857 21.2555 51.0284 21.4461 51.0284 21.462C50.9339 21.5891 50.8552 21.732 50.7765 21.8591C50.7136 21.9703 50.6506 22.0974 50.5877 22.2245C50.5877 22.2563 50.5562 22.2881 50.5562 22.3198C50.5405 22.3834 50.509 22.4469 50.4932 22.5264C50.4775 22.5899 50.446 22.6376 50.4146 22.6852C51.4533 23.5431 52.4606 24.4327 53.3734 25.4335L53.3577 25.4176Z" fill="#AA968A"/>
<path d="M28.9154 22.796C28.9154 22.796 28.9154 22.7801 28.9154 22.7642C28.9154 22.7642 28.9154 22.7642 28.9154 22.7484C28.8525 22.6213 28.7738 22.4942 28.7108 22.383C28.6479 22.2718 28.5692 22.1606 28.4905 22.0494C28.4748 22.0176 28.459 22.0017 28.4275 21.9699C28.3961 21.9223 28.3646 21.8746 28.3174 21.8429C28.1285 21.6046 27.9082 21.3663 27.7036 21.1439C27.2314 20.6514 26.7278 20.1907 26.1926 19.7618C26.1926 19.7618 26.1612 19.7459 26.1612 19.73C26.1769 19.73 26.1612 19.73 26.1139 19.6982C26.051 19.6506 25.9723 19.587 25.9093 19.5394C25.7992 19.4599 25.6733 19.3646 25.5474 19.2852C25.2955 19.1104 25.0437 18.9516 24.7919 18.8086C24.6817 18.7451 24.5715 18.6815 24.4456 18.6339C24.4299 18.6339 24.3984 18.618 24.3827 18.6021C24.3512 18.6021 24.3197 18.5703 24.304 18.5703C23.8476 20.0954 23.7531 21.7475 23.8318 23.3044C23.9105 24.6706 24.1151 26.0844 24.5401 27.4189C25.8621 25.7191 27.3258 24.1622 28.9784 22.8913C28.9784 22.8596 28.9627 22.8437 28.9469 22.8119L28.9154 22.796Z" fill="#AA968A"/>
<path d="M39.7751 43.9409C46.5811 43.9409 52.0985 39.8583 52.0985 34.8222C52.0985 29.7862 46.5811 25.7036 39.7751 25.7036C32.969 25.7036 27.4517 29.7862 27.4517 34.8222C27.4517 39.8583 32.969 43.9409 39.7751 43.9409Z" fill="url(#paint0_radial_188_2844)"/>
<path d="M32.441 36.1727C33.7709 36.1727 34.849 35.0845 34.849 33.7421C34.849 32.3997 33.7709 31.3115 32.441 31.3115C31.1111 31.3115 30.033 32.3997 30.033 33.7421C30.033 35.0845 31.1111 36.1727 32.441 36.1727Z" fill="#2CC5F4"/>
<path d="M47.0937 36.2201C48.4497 36.2201 49.5489 35.1106 49.5489 33.7419C49.5489 32.3732 48.4497 31.2637 47.0937 31.2637C45.7377 31.2637 44.6384 32.3732 44.6384 33.7419C44.6384 35.1106 45.7377 36.2201 47.0937 36.2201Z" fill="#2CC5F4"/>
<path d="M32.4411 35.2987C33.2929 35.2987 33.9835 34.6017 33.9835 33.7419C33.9835 32.8821 33.2929 32.1851 32.4411 32.1851C31.5892 32.1851 30.8987 32.8821 30.8987 33.7419C30.8987 34.6017 31.5892 35.2987 32.4411 35.2987Z" fill="#231F20"/>
<path d="M47.0937 35.2987C47.9455 35.2987 48.6361 34.6017 48.6361 33.7419C48.6361 32.8821 47.9455 32.1851 47.0937 32.1851C46.2418 32.1851 45.5513 32.8821 45.5513 33.7419C45.5513 34.6017 46.2418 35.2987 47.0937 35.2987Z" fill="#231F20"/>
<path d="M39.366 36.3949C40.1309 36.3949 40.751 36.0037 40.751 35.5212C40.751 35.0386 40.1309 34.6475 39.366 34.6475C38.601 34.6475 37.981 35.0386 37.981 35.5212C37.981 36.0037 38.601 36.3949 39.366 36.3949Z" fill="#231F20"/>
<path d="M30.3162 22.59C35.8877 20.2865 42.1832 20.0958 47.8964 22.0816C48.6204 22.3358 48.9194 21.1761 48.2111 20.9378C42.3406 18.8885 35.7618 19.0632 30.0172 21.4462C29.7181 21.5732 29.5135 21.8433 29.608 22.1769C29.6867 22.4629 30.0329 22.717 30.3319 22.59H30.3162Z" fill="#231F20"/>
<path d="M23.517 14.7738C26.0667 15.8858 28.4118 17.4268 30.4106 19.3649C30.9772 19.9209 31.528 20.5087 32.0474 21.1124C32.252 21.3507 32.677 21.3348 32.8816 21.1124C33.1176 20.8741 33.0862 20.5087 32.8816 20.2704C31.0244 18.0781 28.7738 16.2194 26.287 14.8215C25.5788 14.4243 24.8548 14.0589 24.1151 13.7412C23.816 13.6141 23.4855 13.6459 23.3124 13.9477C23.1708 14.2019 23.2337 14.6308 23.517 14.7579V14.7738Z" fill="#231F20"/>
<path d="M21.6442 15.0436C19.8814 19.8888 20.086 25.3219 22.1006 30.0401C22.2265 30.3419 22.6515 30.4055 22.9033 30.2466C23.2023 30.0718 23.2495 29.7224 23.1079 29.4364C21.2192 25.0042 21.1248 19.873 22.7616 15.3613C23.0292 14.6464 21.8803 14.3287 21.6284 15.0436H21.6442Z" fill="#231F20"/>
<path d="M24.4141 19.1582C24.7289 19.333 25.0279 19.5236 25.327 19.7301C25.4057 19.7778 25.4686 19.8413 25.5473 19.889C25.6103 19.9366 25.4529 19.8095 25.5001 19.8572C25.5158 19.8572 25.5316 19.889 25.5473 19.889C25.5788 19.9207 25.626 19.9525 25.6575 19.9843C25.7991 20.0955 25.925 20.2226 26.0667 20.3338C26.3342 20.5721 26.5703 20.8421 26.8064 21.1122C26.8379 21.144 26.8694 21.1916 26.9008 21.2234C26.9008 21.2393 27.011 21.3664 26.9481 21.2711C26.8851 21.1757 26.9795 21.3028 26.9953 21.3187C27.0267 21.3664 27.0582 21.3982 27.0897 21.4458C27.1999 21.5888 27.2943 21.7476 27.3887 21.8906C27.6091 22.2401 27.7979 22.5896 27.9553 22.9709C28.0183 23.098 28.1757 23.2092 28.3016 23.2409C28.4432 23.2727 28.6321 23.2568 28.758 23.1774C28.8839 23.098 28.9941 22.9709 29.0256 22.8279C29.057 22.669 29.0256 22.5261 28.9626 22.3672C28.3331 20.9375 27.3258 19.7142 26.0824 18.7769C25.7519 18.5228 25.4057 18.3004 25.0279 18.1097C24.7604 17.9667 24.3669 18.0303 24.2253 18.3162C24.0836 18.5863 24.1466 18.9676 24.4299 19.1264L24.4141 19.1582Z" fill="#231F20"/>
<path d="M25.5003 25.4652C22.8719 28.3565 21.3767 32.3757 21.7545 36.3154C22.1322 40.2552 24.2097 43.4801 27.4361 45.4658C29.1989 46.5461 31.2606 47.1498 33.3382 47.0703C34.0936 47.0386 34.0936 45.8471 33.3382 45.8789C30.0488 45.9901 26.8695 44.2426 24.9494 41.5737C22.8719 38.6983 22.4312 35.0128 23.407 31.629C23.9736 29.6591 24.9809 27.8322 26.3659 26.3072C26.8853 25.7353 26.0511 24.8933 25.5317 25.4652H25.5003Z" fill="#231F20"/>
<path d="M47.6603 21.2712C48.5102 20.4292 49.3129 19.5396 50.1785 18.6976C50.8711 18.0304 51.6108 17.4426 52.3505 16.8548C53.0115 16.3465 53.6725 15.8381 54.3808 15.3933C54.6798 15.2027 55.0103 15.0121 55.3409 14.9008C55.4195 14.8691 55.4982 14.8532 55.5927 14.8214C55.6871 14.7896 55.6714 14.8055 55.6871 14.8055C55.876 14.8055 55.8445 14.8055 55.9861 14.8373C56.0806 14.8691 56.0334 14.8373 56.0491 14.8532C56.0963 14.8691 56.1435 14.9008 56.1907 14.9326C56.2694 14.9803 56.3167 15.0279 56.4268 15.1391C56.5685 15.298 56.7101 15.5363 56.8203 15.7905C57.0879 16.3624 57.2452 17.0772 57.3397 17.7286C57.5443 18.9677 57.5758 20.2545 57.5915 21.5095C57.623 24.226 57.1665 26.9425 56.0963 29.4525C55.9704 29.7544 56.0176 30.088 56.3009 30.2627C56.5527 30.4057 56.9777 30.3421 57.1036 30.0562C58.7562 26.1959 59.1024 21.8907 58.5201 17.7603C58.3312 16.4418 57.985 14.6626 56.7416 13.9159C55.2779 13.0263 53.4837 14.5037 52.3505 15.3615C51.4849 16.0129 50.6979 16.6007 49.8952 17.3314C48.8093 18.3164 47.8335 19.4284 46.779 20.461C46.2281 21.0011 47.0623 21.8431 47.6131 21.303L47.6603 21.2712Z" fill="#231F20"/>
<path d="M54.2547 18.1258C52.9012 18.8566 51.7365 19.9686 50.9181 21.2871C50.6978 21.6366 50.5089 22.0179 50.3358 22.3992C50.2728 22.558 50.2256 22.6851 50.2728 22.8599C50.3043 23.0028 50.4145 23.1458 50.5404 23.2094C50.6821 23.2888 50.8394 23.3206 50.9968 23.2729C51.1385 23.2252 51.2959 23.1299 51.3431 23.0028C51.4847 22.6692 51.6579 22.3515 51.831 22.0497C51.9254 21.8908 52.0198 21.7478 52.1143 21.589C52.1615 21.5095 52.2244 21.446 52.2717 21.3666C52.3031 21.3348 52.3189 21.303 52.3504 21.2712C52.3976 21.2077 52.2717 21.3666 52.3189 21.3189C52.3346 21.303 52.3504 21.2712 52.3661 21.2554C52.5864 20.9694 52.8225 20.6993 53.0901 20.4611C53.216 20.334 53.3576 20.2069 53.4993 20.0798C53.5622 20.0321 53.6252 19.9686 53.6882 19.9209C53.7039 19.9209 53.8298 19.8097 53.7354 19.8733C53.7196 19.8733 53.6567 19.9368 53.7354 19.8733C53.7668 19.8574 53.7826 19.8415 53.8141 19.8097C54.1446 19.5714 54.4751 19.349 54.8371 19.1584C55.1046 19.0154 55.2148 18.6024 55.0417 18.3482C54.8686 18.0623 54.5223 17.9828 54.239 18.1417L54.2547 18.1258Z" fill="#231F20"/>
<path d="M52.9171 26.307C55.3094 28.944 56.6315 32.582 56.3325 36.1563C56.0334 39.7307 54.1133 42.6538 51.2331 44.4171C49.6277 45.4021 47.8178 45.9263 45.9291 45.8628C45.1737 45.831 45.1737 47.0224 45.9291 47.0542C49.612 47.1654 53.0745 45.2114 55.2622 42.2725C57.5916 39.1429 58.0794 35.0125 57.0092 31.2952C56.3954 29.1188 55.2622 27.1171 53.7513 25.4491C53.2319 24.8772 52.3978 25.7192 52.9171 26.2911V26.307Z" fill="#231F20"/>
<defs>
<radialGradient id="paint0_radial_188_2844" cx="0" cy="0" r="1" gradientUnits="userSpaceOnUse" gradientTransform="translate(40.0766 35.4755) scale(12.2935 9.179)">
<stop stop-color="#8B7566"/>
<stop offset="0.29" stop-color="#8D7768"/>
<stop offset="0.47" stop-color="#958070"/>
<stop offset="0.62" stop-color="#A38E7E"/>
<stop offset="0.76" stop-color="#B7A392"/>
<stop offset="0.88" stop-color="#D0BDAB"/>
<stop offset="0.99" stop-color="#EFDDCA"/>
<stop offset="1" stop-color="#F3E1CE"/>
</radialGradient>
</defs>
</svg>
