<svg width="80" height="77" viewBox="0 0 80 77" fill="none" xmlns="http://www.w3.org/2000/svg">
<path d="M52.6932 47.3098C51.985 48.3742 51.8906 49.7086 51.8906 50.9954C51.8906 52.2822 52.0007 53.5689 51.6388 54.7922C51.0722 56.7303 49.2779 58.2395 47.2791 58.446C46.5394 58.5254 45.7839 58.446 45.0757 58.6207C44.3675 58.7955 43.6435 59.3515 43.6277 60.0981C43.5963 60.9878 44.5248 61.6073 45.3905 61.8138C47.8772 62.4016 50.6315 61.2419 52.4414 59.5262C54.755 57.3498 54.0783 55.0463 54.5819 52.2822C54.7708 51.2019 55.3846 50.2646 55.8095 49.2479C56.2974 48.0882 56.6751 46.8173 55.2114 46.2613C54.1727 45.8801 53.2284 46.452 52.6932 47.278V47.3098Z" fill="#5C564D"/>
<path d="M38.8436 41.2886C42.3061 42.3689 44.1003 45.4032 45.328 48.5963C46.0362 50.439 46.5241 52.3454 47.0592 54.2676C47.8619 57.3177 47.4527 61.0351 44.9502 62.8938C43.3292 64.1011 41.2202 64.2917 39.2056 64.4029C34.0748 64.673 27.9052 64.4983 26.9294 58.1597C26.5202 55.4908 27.4488 53.6957 28.1727 51.2175C29.0699 48.1515 30.2975 44.2435 33.0045 42.3848C34.6886 41.2251 36.8763 40.685 38.8436 41.2886Z" fill="#F3E1CE"/>
<path d="M35.3024 63.9578C35.1765 64.1167 35.3654 63.8625 35.3811 63.8308C35.4284 63.7513 35.4756 63.6878 35.5071 63.6084C35.5385 63.5448 35.57 63.4813 35.6015 63.4177C35.6015 63.4018 35.6802 63.243 35.6802 63.2112C35.8061 62.8617 35.8848 62.4963 35.9477 62.1151C35.9477 62.0674 35.9477 62.0197 35.9635 61.9721C35.9635 61.9721 35.9635 61.9562 35.9635 61.9244C35.9635 61.845 35.9792 61.7497 35.995 61.6702C36.0107 61.4796 36.0264 61.2731 36.0264 61.0825C36.0422 60.6535 36.0264 60.2405 36.0264 59.8116C36.0264 59.3191 35.9792 58.8107 35.9477 58.3183C34.1378 58.2071 32.3436 57.8576 30.6123 57.2539C30.691 58.5566 30.7854 59.8592 31.0845 61.146C31.3048 62.1627 31.6511 63.1477 32.2177 63.9578C33.0518 64.1802 33.9489 64.2915 34.8618 64.3709C35.0034 64.2756 35.0978 64.1803 35.271 63.942L35.3024 63.9578Z" fill="#AA968A"/>
<path d="M42.0694 64.1013C43.2184 62.3221 43.1869 59.685 43.36 57.4609C41.7075 57.9534 40.0077 58.2552 38.2922 58.3347C38.2449 58.6206 38.182 58.9066 38.1348 59.1925C38.1505 59.272 38.182 59.3355 38.182 59.4149C38.182 60.4158 38.2135 61.4007 38.4495 62.3697C38.6384 63.1005 38.9532 63.7518 39.3466 64.3873C40.2595 64.3396 41.1723 64.2602 42.0694 64.0855V64.1013Z" fill="#AA968A"/>
<path d="M33.036 61.5113C32.4379 61.5113 31.7926 61.4796 31.1631 61.416C31.3834 62.3374 31.7139 63.2429 32.2333 63.9737C33.0675 64.1961 33.9646 64.3073 34.8774 64.3867C35.0033 64.3073 35.0978 64.1961 35.2552 64.0055C35.2552 64.0055 35.3653 63.8625 35.3811 63.8307C35.4283 63.7513 35.4755 63.6877 35.507 63.6083C35.5385 63.5448 35.5699 63.4812 35.6014 63.4177C35.6014 63.4018 35.6801 63.2429 35.6801 63.2111C35.806 62.8617 35.8847 62.4963 35.9477 62.115C35.9477 62.0673 35.9477 62.0197 35.9634 61.972C35.9634 61.972 35.9634 61.9561 35.9634 61.9244C35.9634 61.8449 35.9791 61.7496 35.9949 61.6702C35.9949 61.6066 35.9949 61.5272 35.9949 61.4637C35.0033 61.4954 34.0118 61.4954 33.0203 61.4637L33.036 61.5113Z" fill="#5C564D"/>
<path d="M39.1891 61.3047C38.8901 61.3365 38.591 61.3365 38.292 61.3524C38.3392 61.7019 38.3707 62.0355 38.4494 62.3691C38.6382 63.0998 38.953 63.7512 39.3465 64.3866C40.2593 64.339 41.1722 64.2595 42.0693 64.0848C42.6674 63.1634 42.9349 62.0196 43.0923 60.8281C41.786 61.0029 40.4954 61.1776 39.1891 61.2888V61.3047Z" fill="#5C564D"/>
<path d="M29.9351 45.1487C29.274 46.5784 28.6445 48.0399 28.0622 49.5015C27.4798 50.963 26.929 52.3292 26.5512 53.7907C25.8902 56.3643 25.843 59.192 27.291 61.5114C28.0149 62.6711 29.0222 63.5448 30.2813 64.0373C30.9896 64.3073 31.3043 63.1635 30.5961 62.8935C27.8576 61.8291 27.0234 58.4771 27.3539 55.8241C27.5585 54.1084 28.1566 52.4563 28.7861 50.8518C29.4629 49.1202 30.1869 47.4204 30.9581 45.7365C31.2729 45.0375 30.2656 44.4338 29.9351 45.1328V45.1487Z" fill="#231F20"/>
<path d="M30.4072 59.2719C30.4387 60.2569 30.5331 61.2577 30.7377 62.2108C30.9109 63.0528 31.3201 63.9107 32.1227 64.3078C32.5477 64.5143 32.9884 64.5938 33.4448 64.6096C33.8697 64.6096 34.3419 64.5779 34.7511 64.4826C35.239 64.3714 35.664 64.0695 35.9 63.6247C36.1046 63.2434 36.1991 62.8145 36.262 62.3856C36.4352 61.2736 36.4824 60.1457 36.3565 59.0177C36.3407 58.8589 36.3093 58.7159 36.1833 58.5888C36.0732 58.4776 35.9158 58.4141 35.7584 58.4141C35.4751 58.4141 35.1288 58.6841 35.1603 59.0177C35.2548 59.9074 35.2548 60.797 35.1603 61.6866C35.1603 61.7501 35.1603 61.7978 35.1446 61.8613C35.1446 61.8931 35.1446 61.909 35.1446 61.9408C35.1446 61.8296 35.1446 62.0361 35.1446 61.9408C35.1288 62.052 35.1131 62.1632 35.0974 62.2744C35.0659 62.4491 35.0344 62.6398 34.9872 62.8145C34.9872 62.8622 34.9557 62.8939 34.94 62.9416C34.94 62.9575 34.94 62.9734 34.9242 62.9893C34.9085 63.0528 34.9557 62.9257 34.9557 62.9257C34.9242 62.9575 34.9242 63.0051 34.9085 63.0369C34.8928 63.0846 34.8613 63.1163 34.8298 63.164C34.8298 63.164 34.8141 63.1958 34.7983 63.2117C34.7983 63.2117 34.877 63.1163 34.8298 63.164C34.7983 63.1958 34.7669 63.2276 34.7354 63.2593C34.8141 63.2117 34.7354 63.2593 34.7196 63.2593C34.6882 63.2752 34.6095 63.307 34.5937 63.3229C34.6252 63.2752 34.6882 63.2911 34.6252 63.3229C34.6095 63.3229 34.5937 63.3229 34.5623 63.3388C34.515 63.3388 34.4678 63.3705 34.4206 63.3705C34.3734 63.3705 34.3419 63.3864 34.2947 63.4023C34.2632 63.4023 34.2475 63.4023 34.216 63.4023C34.1373 63.4023 34.216 63.4023 34.2475 63.4023C34.1688 63.4341 34.0586 63.4182 33.9799 63.4341C33.8855 63.4341 33.8068 63.4341 33.7124 63.45C33.5392 63.45 33.3504 63.45 33.1772 63.45C33.1615 63.45 33.1458 63.45 33.1143 63.45C33.0513 63.45 33.1772 63.45 33.1772 63.45C33.13 63.45 33.0828 63.45 33.0513 63.4341C32.9569 63.4182 32.8625 63.3864 32.7838 63.3546C32.7523 63.3546 32.7208 63.3229 32.6736 63.3229C32.6736 63.3229 32.7995 63.3864 32.7051 63.3229C32.6893 63.3229 32.6736 63.307 32.6579 63.2911C32.5792 63.2434 32.5005 63.1958 32.4375 63.1481C32.3746 63.1005 32.5162 63.2276 32.469 63.164C32.469 63.164 32.4375 63.1322 32.4218 63.1322C32.3903 63.1005 32.3588 63.0687 32.3274 63.0369C32.2959 63.0051 32.2801 62.9893 32.2487 62.9575C32.1857 62.8781 32.2487 62.9416 32.2487 62.9575C32.2014 62.8939 32.17 62.8304 32.1227 62.751C32.107 62.7192 32.0755 62.6715 32.0598 62.6398C32.0598 62.6239 32.0598 62.608 32.0441 62.5921C32.1228 62.7192 32.0755 62.6557 32.0441 62.608C31.9811 62.4491 31.9339 62.2744 31.8867 62.0996C31.8395 61.8931 31.808 61.7025 31.7765 61.496C31.7608 61.3689 31.745 61.2577 31.7293 61.1306C31.7293 61.1147 31.7135 61.0035 31.7293 61.0829C31.745 61.1624 31.7293 61.0512 31.7293 61.0353C31.7293 60.9717 31.7135 60.9082 31.7135 60.8446C31.6506 60.3363 31.6191 59.8279 31.6034 59.3037C31.6034 58.986 31.3358 58.7 31.0053 58.7C30.6748 58.7 30.4072 58.9542 30.4072 59.3037V59.2719Z" fill="#231F20"/>
<path d="M43.1874 45.7362C43.9586 47.4201 44.6825 49.1199 45.3593 50.8515C45.9889 52.456 46.5869 54.1082 46.7915 55.8239C47.122 58.4769 46.2879 61.8288 43.5494 62.8932C42.8411 63.1633 43.1559 64.323 43.8641 64.037C46.1148 63.1633 47.5313 60.9869 47.9247 58.6357C48.4126 55.6809 47.3896 52.7579 46.3194 50.0572C45.6583 48.4051 44.9658 46.7688 44.2104 45.1484C43.8956 44.4494 42.8726 45.0531 43.1874 45.7521V45.7362Z" fill="#231F20"/>
<path d="M42.5729 59.2722C42.5729 59.7329 42.5257 60.1777 42.4784 60.6384C42.4784 60.7496 42.4627 60.8449 42.447 60.9561C42.447 60.9879 42.447 61.0038 42.447 61.0355C42.447 61.0991 42.4312 61.1626 42.4155 61.2262C42.384 61.4168 42.3525 61.6074 42.321 61.814C42.2896 61.9887 42.2424 62.1635 42.1951 62.3382C42.1637 62.4176 42.1479 62.4971 42.1164 62.5765L42.085 62.64C42.085 62.64 42.1322 62.5288 42.1007 62.5765C42.085 62.6241 42.0535 62.6718 42.0377 62.7036C42.0063 62.7671 41.9591 62.8465 41.9118 62.9101C41.9118 62.926 41.8804 62.9578 41.8646 62.9736C41.8646 62.9736 41.9433 62.8783 41.8961 62.926C41.8646 62.9578 41.8331 63.0054 41.8017 63.0372C41.7702 63.069 41.7545 63.0848 41.723 63.1166C41.7072 63.1325 41.6915 63.1484 41.66 63.1643C41.6128 63.2119 41.7072 63.1325 41.7072 63.1325C41.6285 63.1643 41.5656 63.2278 41.4869 63.2755C41.4712 63.2755 41.3295 63.3549 41.4239 63.3072C41.5026 63.2755 41.3767 63.3073 41.361 63.3231C41.2823 63.3549 41.1879 63.3708 41.1092 63.3867C41.0619 63.3867 41.0147 63.3867 40.9833 63.4026C40.9203 63.4026 41.0462 63.4026 41.0462 63.4026H40.9675C40.8731 63.4026 40.7944 63.4026 40.7 63.4026C40.5111 63.4026 40.338 63.4026 40.1491 63.3867C40.0704 63.3867 39.976 63.3708 39.8973 63.3549C39.8343 63.3549 39.9602 63.3549 39.9602 63.3549C39.9288 63.3549 39.8973 63.3549 39.8815 63.3549C39.8343 63.3549 39.7714 63.339 39.7242 63.3231C39.6769 63.3231 39.6455 63.3073 39.5982 63.2914C39.5668 63.2914 39.551 63.2755 39.5196 63.2596C39.5038 63.2596 39.4723 63.2278 39.4566 63.2119C39.4409 63.2119 39.4251 63.196 39.4094 63.1802C39.3464 63.1484 39.4881 63.2596 39.4409 63.2119C39.4094 63.1802 39.3779 63.1484 39.3464 63.1166C39.2992 63.0531 39.2677 62.9736 39.2205 62.8942C39.189 62.8307 39.252 62.9578 39.252 62.9578C39.252 62.9419 39.2363 62.9101 39.2205 62.8942C39.2205 62.8624 39.2048 62.8307 39.189 62.783C39.1576 62.6877 39.1418 62.6083 39.1261 62.5129C39.0789 62.3064 39.0474 62.0999 39.0159 61.8934C39.0159 61.8298 39.0159 61.9252 39.0159 61.9252C39.0159 61.8934 39.0159 61.8616 39.0159 61.8298C39.0159 61.7663 39.0159 61.7028 39.0002 61.6392C39.0002 61.5121 38.9687 61.385 38.9687 61.2579C38.953 61.0038 38.9372 60.7655 38.9372 60.5113C38.9372 60.0029 38.953 59.4946 39.0159 59.0021C39.0474 58.6844 38.7169 58.3984 38.4178 58.3984C38.0716 58.3984 37.867 58.6685 37.8198 59.0021C37.7096 59.9712 37.7253 60.9402 37.8512 61.9093C37.9772 62.8783 38.1188 63.9427 39.0946 64.3557C39.5196 64.5305 39.9917 64.5781 40.4324 64.594C40.8573 64.6099 41.298 64.594 41.7072 64.451C42.1322 64.3081 42.5257 64.0698 42.8089 63.7044C43.0922 63.339 43.2811 62.926 43.3913 62.4971C43.5329 61.9887 43.5959 61.4486 43.6588 60.9243C43.7218 60.3683 43.769 59.8282 43.7847 59.2722C43.7847 58.9545 43.5015 58.6685 43.1867 58.6685C42.8562 58.6685 42.6043 58.9227 42.5886 59.2722H42.5729Z" fill="#231F20"/>
<path d="M49.5457 58.3173C51.1353 57.5548 51.875 55.7437 52.0953 54.0757C52.3314 52.217 52.0166 50.1518 52.898 48.4202C53.0869 48.039 53.323 47.7054 53.622 47.4194C53.8738 47.1811 54.346 46.7999 54.7237 46.8952C55.4634 47.0699 55.7782 45.9261 55.0385 45.7514C54.0784 45.529 53.1184 46.1803 52.5203 46.8793C51.9222 47.5783 51.5602 48.4044 51.3556 49.2781C50.8835 51.2797 51.3084 53.4085 50.5844 55.3625C50.2854 56.1885 49.7503 56.9034 48.9476 57.2847C48.6643 57.4277 48.5856 57.8407 48.743 58.0949C48.9161 58.3967 49.2624 58.4444 49.5457 58.3014V58.3173Z" fill="#231F20"/>
<path d="M46.5394 62.3214C49.3723 62.4485 52.0951 60.9075 53.6848 58.5723C54.5189 57.3332 54.9124 55.9511 55.0383 54.4737C55.1012 53.6317 55.1012 52.7738 55.2271 51.9319C55.3531 51.0899 55.6678 50.4068 56.0928 49.6919C56.5177 48.9771 56.8797 48.151 56.6436 47.2772C56.439 46.5147 55.8567 45.911 55.054 45.8952C54.2986 45.8634 54.2986 47.0548 55.054 47.0866C55.4475 47.0866 55.5734 47.6903 55.5262 48.008C55.4475 48.6752 54.9439 49.2471 54.6448 49.8349C53.9681 51.1852 53.968 52.6944 53.8736 54.1718C53.7949 55.4586 53.5116 56.6342 52.8349 57.7303C52.2053 58.747 51.3239 59.589 50.3009 60.1927C49.152 60.8758 47.8614 61.2253 46.5236 61.1617C45.7682 61.1299 45.7682 62.3214 46.5236 62.3532L46.5394 62.3214Z" fill="#231F20"/>
<path d="M32.4219 62.4323C32.4219 62.5435 32.4219 62.6547 32.4534 62.7818C32.4534 62.8612 32.4848 62.9407 32.5006 63.0201C32.532 63.1313 32.5793 63.2425 32.6265 63.3378C32.658 63.4172 32.7052 63.4808 32.7524 63.5602C32.7839 63.6079 32.8153 63.6397 32.8468 63.6714C32.8783 63.7032 32.9255 63.735 32.9885 63.735C33.0357 63.7509 33.0986 63.7509 33.1459 63.735C33.1931 63.735 33.2403 63.7191 33.2875 63.6873C33.3662 63.6397 33.4449 63.5443 33.4606 63.449C33.4764 63.3537 33.4764 63.2266 33.4134 63.1472C33.3505 63.0678 33.3032 62.9724 33.2718 62.8771L33.319 62.9724C33.256 62.8453 33.2246 62.7024 33.2088 62.5594V62.6706C33.2088 62.6706 33.2088 62.5117 33.2088 62.4323C33.2088 62.3847 33.2088 62.3211 33.1773 62.2735C33.1616 62.2258 33.1301 62.1781 33.0986 62.1464C33.0672 62.1146 33.0199 62.0828 32.9727 62.0669C32.9255 62.0352 32.8783 62.0352 32.8153 62.0352C32.7209 62.0352 32.6107 62.0669 32.532 62.1464C32.4534 62.2258 32.4219 62.3211 32.4219 62.4323Z" fill="#231F20"/>
<path d="M33.7277 62.7991L33.8693 63.5934C33.8693 63.5934 33.9008 63.6887 33.9323 63.7364C33.9638 63.784 33.9953 63.8158 34.0425 63.8317C34.0897 63.8635 34.1369 63.8794 34.1841 63.8794C34.2313 63.8794 34.2943 63.8794 34.3415 63.8794L34.4359 63.8317C34.4359 63.8317 34.5461 63.7523 34.5776 63.6887L34.6248 63.5934C34.6248 63.5934 34.6405 63.4504 34.6248 63.3869L34.4832 62.5926C34.4832 62.5926 34.4517 62.4973 34.4202 62.4496C34.3887 62.402 34.3572 62.3702 34.31 62.3543C34.2628 62.3225 34.2156 62.3066 34.1684 62.3066C34.1212 62.3066 34.0582 62.3066 34.011 62.3066L33.9166 62.3543C33.9166 62.3543 33.8064 62.4337 33.7749 62.4973L33.7277 62.5926C33.7277 62.5926 33.712 62.7356 33.7277 62.7991Z" fill="#231F20"/>
<path d="M39.6302 62.3377C39.5987 62.4489 39.583 62.5601 39.583 62.6714C39.583 62.7508 39.583 62.8302 39.583 62.9255C39.583 63.0367 39.6145 63.1479 39.646 63.2591C39.6774 63.3703 39.7247 63.4815 39.7719 63.5769C39.8034 63.6245 39.8348 63.6563 39.8663 63.6881C39.8978 63.7198 39.945 63.7516 40.008 63.7516C40.0552 63.7675 40.1181 63.7675 40.1653 63.7516C40.2126 63.7516 40.2598 63.7357 40.307 63.7039C40.3857 63.6563 40.4644 63.561 40.4801 63.4657V63.3545C40.4801 63.3545 40.4801 63.2115 40.4329 63.1479C40.4329 63.132 40.4172 63.1162 40.4014 63.0844L40.4486 63.1797C40.4014 63.0685 40.3699 62.9573 40.3542 62.8302V62.9414C40.3542 62.8143 40.3542 62.7031 40.3542 62.576V62.6872C40.3542 62.6872 40.3542 62.576 40.3699 62.5284C40.3857 62.4807 40.3857 62.4172 40.3699 62.3695C40.3699 62.3219 40.3542 62.2742 40.3227 62.2265C40.2913 62.1789 40.2598 62.1471 40.2283 62.1153C40.1968 62.0836 40.1496 62.0518 40.0866 62.0518C39.9922 62.0359 39.8663 62.0359 39.7876 62.0995C39.7089 62.163 39.6302 62.2424 39.6145 62.3377H39.6302Z" fill="#231F20"/>
<path d="M40.9049 62.6705C40.9049 62.6705 40.9206 62.7658 40.9363 62.7976V62.6863C40.9363 62.8134 40.9363 62.9405 40.9363 63.0517V62.9405C40.9363 63.0676 40.9049 63.1788 40.8576 63.29L40.9049 63.1947C40.9049 63.1947 40.8891 63.2424 40.8734 63.2582C40.8419 63.3059 40.8262 63.3536 40.8262 63.4012C40.8262 63.4489 40.8262 63.5124 40.8262 63.5601C40.8262 63.6077 40.8576 63.6554 40.8891 63.7031C40.9206 63.7507 40.9521 63.7825 40.9993 63.7984C41.0937 63.846 41.2039 63.8778 41.2983 63.846C41.3928 63.8143 41.4872 63.7507 41.5344 63.6713C41.5816 63.576 41.6288 63.4648 41.6603 63.3536C41.6918 63.2424 41.7075 63.1312 41.7233 63.02C41.7233 62.9405 41.7233 62.8611 41.7233 62.7817C41.7233 62.6705 41.7075 62.5593 41.6761 62.4481C41.6761 62.4004 41.6446 62.3527 41.6131 62.3051C41.5816 62.2574 41.5502 62.2257 41.5029 62.2098C41.4557 62.178 41.4085 62.1621 41.3613 62.1621C41.3141 62.1621 41.2511 62.1621 41.2039 62.1621C41.1095 62.1939 41.015 62.2574 40.9678 62.3369L40.9206 62.4322C40.9206 62.4322 40.9049 62.5751 40.9206 62.6387L40.9049 62.6705Z" fill="#231F20"/>
<path d="M18.1467 22.3189C18.0838 25.2896 18.493 28.2762 19.3586 31.1198C19.5317 31.6758 19.7206 32.2477 19.7678 32.8196C19.8308 33.4709 19.7048 34.1223 19.6262 34.7736C19.091 39.0152 20.0983 43.6857 23.2303 46.5611C26.7715 49.8019 32.0283 50.0719 36.8129 49.8813C39.4727 49.7701 42.1483 49.5953 44.7137 48.8487C47.2791 48.102 49.7344 46.7994 51.4499 44.7501C52.1424 43.924 52.709 43.0026 53.1182 42.0177C53.7477 40.4926 54.2356 38.5386 54.1569 36.8706C54.0782 35.4408 53.4015 34.2494 53.6376 32.7243C53.8107 31.6281 54.2042 30.5797 54.5347 29.5153C55.4947 26.4016 55.841 23.0338 55.1642 19.8406C54.9596 18.8557 54.6134 17.8231 53.8107 17.2194C52.5201 16.2345 51.4814 17.3465 50.3954 17.982C48.6956 18.9828 47.1847 20.3331 45.9885 21.9058C45.5951 22.4301 45.2016 23.0179 44.5878 23.2562C44.0055 23.4945 43.3444 23.3674 42.7306 23.2562C40.5429 22.8908 38.308 22.7478 36.0889 22.8431C34.5465 22.9067 31.7135 22.6843 30.3128 23.3038C30.1396 23.3832 29.9665 23.4786 29.7776 23.4468C29.5573 23.415 29.3999 23.2244 29.2583 23.0655C27.228 20.5237 24.9301 17.9979 21.8768 16.9017C18.8707 15.8056 18.1625 20.1266 18.1152 22.303L18.1467 22.3189Z" fill="#F3E1CE"/>
<path d="M19.7679 32.821C19.7679 32.821 19.7679 32.9163 19.7679 32.964C20.9483 30.6923 22.3176 28.4206 24.2534 26.7049C25.245 25.8153 26.3624 25.1004 27.5901 24.6079C28.377 24.2902 29.4787 24.1949 30.061 23.6071C28.6918 23.0352 27.653 21.0653 26.5828 20.0327C25.2292 18.7142 23.7026 17.5704 21.9241 16.9349C18.918 15.8388 18.2098 20.1598 18.1626 22.3362C18.0996 25.3069 18.5088 28.2935 19.3744 31.1371C19.5476 31.6931 19.7364 32.265 19.7836 32.8369L19.7679 32.821Z" fill="#5C564D"/>
<path d="M44.6187 23.4164C44.5242 23.5752 44.4613 23.7341 44.4141 23.9247C46.1138 24.7667 48.6006 25.3545 49.8911 26.7366C50.6781 27.5627 51.103 28.6111 51.7326 29.5484C52.3149 30.4222 53.0861 31.2641 53.7944 32.122C53.999 31.2482 54.2823 30.3745 54.5498 29.5167C55.5099 26.403 55.8561 23.0351 55.1794 19.842C54.9748 18.8571 54.6285 17.8245 53.8258 17.2208C52.5353 16.2359 51.4965 17.3479 50.4105 17.9833C48.7107 18.9842 47.1998 20.3345 46.0037 21.9072C45.5945 22.4632 44.9492 22.8445 44.6029 23.4164H44.6187Z" fill="#5C564D"/>
<path d="M50.5213 28.0231C51.0879 28.6427 51.623 29.3099 52.0637 30.0247C52.4886 28.595 52.6303 27.0699 52.6775 25.6084C52.7247 24.0992 52.6775 22.5265 52.347 21.0332C51.5128 21.3509 50.7259 21.8116 49.9547 22.3676C49.6556 22.5742 49.4668 22.733 49.1677 23.0031C48.9002 23.2414 48.6484 23.4956 48.4123 23.7815C48.3493 23.845 48.3021 23.9086 48.2549 23.9721C48.3493 23.8609 48.1919 24.0516 48.1919 24.0675C48.0975 24.1945 48.0188 24.3375 47.9401 24.4646C47.8772 24.5758 47.8142 24.7029 47.7513 24.83C47.7513 24.8618 47.7198 24.8935 47.7198 24.9253C47.704 24.9888 47.6726 25.0524 47.6568 25.1318C47.6411 25.1954 47.6096 25.243 47.5781 25.2907C48.6169 26.1485 49.6242 27.0382 50.537 28.039L50.5213 28.0231Z" fill="#AA968A"/>
<path d="M26.0793 25.4015C26.0793 25.4015 26.0793 25.3856 26.0793 25.3697C26.0793 25.3697 26.0793 25.3697 26.0793 25.3538C26.0163 25.2267 25.9376 25.0997 25.8747 24.9884C25.8117 24.8772 25.733 24.766 25.6543 24.6548C25.6386 24.6231 25.6228 24.6072 25.5914 24.5754C25.5599 24.5278 25.5284 24.4801 25.4812 24.4483C25.2923 24.21 25.072 23.9717 24.8674 23.7493C24.3952 23.2569 23.8916 22.7962 23.3565 22.3672C23.3565 22.3672 23.325 22.3514 23.325 22.3355C23.3407 22.3355 23.325 22.3355 23.2778 22.3037C23.2148 22.256 23.1361 22.1925 23.0732 22.1448C22.963 22.0654 22.8371 21.9701 22.7112 21.8907C22.4593 21.7159 22.2075 21.557 21.9557 21.4141C21.8455 21.3505 21.7354 21.287 21.6095 21.2393C21.5937 21.2393 21.5622 21.2234 21.5465 21.2076C21.515 21.2076 21.4835 21.1758 21.4678 21.1758C21.0114 22.7008 20.917 24.353 20.9956 25.9098C21.0743 27.276 21.2789 28.6899 21.7039 30.0243C23.0259 28.3245 24.4896 26.7677 26.1422 25.4968C26.1422 25.465 26.1265 25.4491 26.1107 25.4174L26.0793 25.4015Z" fill="#AA968A"/>
<path d="M36.9387 46.5459C43.7447 46.5459 49.2621 42.4633 49.2621 37.4272C49.2621 32.3911 43.7447 28.3086 36.9387 28.3086C30.1326 28.3086 24.6152 32.3911 24.6152 37.4272C24.6152 42.4633 30.1326 46.5459 36.9387 46.5459Z" fill="url(#paint0_radial_3865_17782)"/>
<path d="M29.6043 38.7772C30.9342 38.7772 32.0123 37.689 32.0123 36.3466C32.0123 35.0042 30.9342 33.916 29.6043 33.916C28.2744 33.916 27.1963 35.0042 27.1963 36.3466C27.1963 37.689 28.2744 38.7772 29.6043 38.7772Z" fill="#2CC5F4"/>
<path d="M44.257 38.8256C45.613 38.8256 46.7122 37.7161 46.7122 36.3474C46.7122 34.9787 45.613 33.8691 44.257 33.8691C42.901 33.8691 41.8018 34.9787 41.8018 36.3474C41.8018 37.7161 42.901 38.8256 44.257 38.8256Z" fill="#2CC5F4"/>
<path d="M29.6039 37.9047C30.4558 37.9047 31.1463 37.2077 31.1463 36.3479C31.1463 35.488 30.4558 34.791 29.6039 34.791C28.7521 34.791 28.0615 35.488 28.0615 36.3479C28.0615 37.2077 28.7521 37.9047 29.6039 37.9047Z" fill="#231F20"/>
<path d="M44.2572 37.9047C45.1091 37.9047 45.7996 37.2077 45.7996 36.3479C45.7996 35.488 45.1091 34.791 44.2572 34.791C43.4054 34.791 42.7148 35.488 42.7148 36.3479C42.7148 37.2077 43.4054 37.9047 44.2572 37.9047Z" fill="#231F20"/>
<path d="M36.5295 38.9994C37.2945 38.9994 37.9145 38.6082 37.9145 38.1257C37.9145 37.6431 37.2945 37.252 36.5295 37.252C35.7646 37.252 35.1445 37.6431 35.1445 38.1257C35.1445 38.6082 35.7646 38.9994 36.5295 38.9994Z" fill="#231F20"/>
<path d="M27.4795 25.1949C33.051 22.8914 39.3465 22.7008 45.0597 24.6866C45.7837 24.9408 46.0827 23.7811 45.3745 23.5428C39.5039 21.4935 32.9251 21.6682 27.1805 24.0511C26.8815 24.1782 26.6769 24.4483 26.7713 24.7819C26.85 25.0678 27.1962 25.322 27.4953 25.1949H27.4795Z" fill="#231F20"/>
<path d="M20.6808 17.3783C23.2305 18.4903 25.5756 20.0313 27.5744 21.9694C28.141 22.5254 28.6918 23.1132 29.2112 23.7169C29.4158 23.9552 29.8408 23.9393 30.0454 23.7169C30.2815 23.4786 30.25 23.1132 30.0454 22.8749C28.1882 20.6826 25.9376 18.8239 23.4508 17.426C22.7426 17.0288 22.0186 16.6634 21.2789 16.3457C20.9799 16.2186 20.6494 16.2504 20.4762 16.5522C20.3346 16.8064 20.3975 17.2353 20.6808 17.3624V17.3783Z" fill="#231F20"/>
<path d="M18.8075 17.6491C17.0448 22.4943 17.2494 27.9274 19.2639 32.6455C19.3898 32.9474 19.8148 33.0109 20.0666 32.8521C20.3656 32.6773 20.4129 32.3278 20.2712 32.0419C18.3826 27.6096 18.2881 22.4784 19.925 17.9668C20.1925 17.2519 19.0436 16.9342 18.7918 17.6491H18.8075Z" fill="#231F20"/>
<path d="M21.5772 21.7647C21.892 21.9394 22.191 22.13 22.49 22.3366C22.5687 22.3842 22.6317 22.4478 22.7104 22.4954C22.7733 22.5431 22.616 22.416 22.6632 22.4636C22.6789 22.4636 22.6947 22.4954 22.7104 22.4954C22.7419 22.5272 22.7891 22.559 22.8206 22.5907C22.9622 22.7019 23.0881 22.829 23.2298 22.9402C23.4973 23.1785 23.7334 23.4486 23.9695 23.7186C24.001 23.7504 24.0324 23.7981 24.0639 23.8298C24.0639 23.8457 24.1741 23.9728 24.1111 23.8775C24.0482 23.7822 24.1426 23.9093 24.1584 23.9252C24.1898 23.9728 24.2213 24.0046 24.2528 24.0523C24.363 24.1952 24.4574 24.3541 24.5518 24.4971C24.7722 24.8466 24.961 25.1961 25.1184 25.5773C25.1814 25.7044 25.3388 25.8156 25.4647 25.8474C25.6063 25.8792 25.7952 25.8633 25.9211 25.7838C26.047 25.7044 26.1572 25.5773 26.1887 25.4343C26.2201 25.2755 26.1887 25.1325 26.1257 24.9736C25.4961 23.5439 24.4889 22.3207 23.2455 21.3834C22.915 21.1292 22.5687 20.9068 22.191 20.7162C21.9235 20.5732 21.53 20.6367 21.3883 20.9227C21.2467 21.1928 21.3096 21.574 21.5929 21.7329L21.5772 21.7647Z" fill="#231F20"/>
<path d="M22.6631 28.0697C20.0347 30.961 18.5396 34.9802 18.9173 38.9199C19.295 42.8597 21.3725 46.0846 24.599 48.0703C26.3617 49.1506 28.4235 49.7543 30.501 49.6748C31.2565 49.6431 31.2565 48.4516 30.501 48.4834C27.2116 48.5946 24.0324 46.8471 22.1123 44.1782C20.0347 41.3028 19.5941 37.6173 20.5699 34.2335C21.1365 32.2636 22.1437 30.4367 23.5287 28.9117C24.0481 28.3398 23.214 27.4978 22.6946 28.0697H22.6631Z" fill="#231F20"/>
<path d="M44.8237 23.8766C45.6736 23.0347 46.4762 22.1451 47.3419 21.3031C48.0344 20.6359 48.7741 20.0481 49.5138 19.4603C50.1748 18.952 50.8359 18.4436 51.5441 17.9988C51.8432 17.8082 52.1737 17.6175 52.5042 17.5063C52.5829 17.4745 52.6616 17.4587 52.756 17.4269C52.8504 17.3951 52.8347 17.411 52.8504 17.411C53.0393 17.411 53.0078 17.411 53.1495 17.4428C53.2439 17.4745 53.1967 17.4428 53.2124 17.4587C53.2596 17.4745 53.3069 17.5063 53.3541 17.5381C53.4328 17.5857 53.48 17.6334 53.5902 17.7446C53.7318 17.9035 53.8735 18.1418 53.9836 18.3959C54.2512 18.9678 54.4086 19.6827 54.503 20.334C54.7076 21.5732 54.7391 22.8599 54.7548 24.1149C54.7863 26.8315 54.3299 29.548 53.2596 32.058C53.1337 32.3598 53.1809 32.6934 53.4642 32.8682C53.7161 33.0112 54.141 32.9476 54.2669 32.6617C55.9195 28.8013 56.2657 24.4962 55.6834 20.3658C55.4945 19.0473 55.1483 17.268 53.9049 16.5214C52.4412 15.6318 50.647 17.1092 49.5138 17.967C48.6482 18.6183 47.8613 19.2061 47.0586 19.9369C45.9726 20.9218 44.9968 22.0339 43.9423 23.0665C43.3915 23.6066 44.2256 24.4485 44.7765 23.9084L44.8237 23.8766Z" fill="#231F20"/>
<path d="M51.4181 20.7308C50.0645 21.4615 48.8999 22.5736 48.0815 23.8921C47.8611 24.2416 47.6723 24.6229 47.4991 25.0041C47.4362 25.163 47.389 25.2901 47.4362 25.4648C47.4677 25.6078 47.5778 25.7508 47.7037 25.8143C47.8454 25.8938 48.0028 25.9255 48.1602 25.8779C48.3018 25.8302 48.4592 25.7349 48.5064 25.6078C48.6481 25.2742 48.8212 24.9565 48.9943 24.6546C49.0887 24.4958 49.1832 24.3528 49.2776 24.1939C49.3248 24.1145 49.3878 24.051 49.435 23.9715C49.4665 23.9398 49.4822 23.908 49.5137 23.8762C49.5609 23.8127 49.435 23.9715 49.4822 23.9239C49.4979 23.908 49.5137 23.8762 49.5294 23.8603C49.7498 23.5744 49.9858 23.3043 50.2534 23.066C50.3793 22.9389 50.521 22.8119 50.6626 22.6848C50.7256 22.6371 50.7885 22.5736 50.8515 22.5259C50.8672 22.5259 50.9931 22.4147 50.8987 22.4782C50.82 22.5418 50.883 22.4782 50.8987 22.4782C50.9302 22.4624 50.9459 22.4465 50.9774 22.4147C51.3079 22.1764 51.6384 21.954 52.0004 21.7634C52.268 21.6204 52.3781 21.2074 52.205 20.9532C52.0319 20.6672 51.6856 20.5878 51.4023 20.7467L51.4181 20.7308Z" fill="#231F20"/>
<path d="M50.08 28.9119C52.4723 31.549 53.7943 35.1869 53.4953 38.7613C53.1963 42.3357 51.2761 45.2587 48.3959 47.0221C46.7906 48.007 44.9806 48.5313 43.092 48.4677C42.3365 48.436 42.3365 49.6274 43.092 49.6592C46.7748 49.7704 50.2374 47.8164 52.4251 44.8775C54.7544 41.7479 55.2423 37.6175 54.1721 33.9002C53.5582 31.7238 52.4251 29.7221 50.9141 28.0541C50.3948 27.4822 49.5606 28.3241 50.08 28.896V28.9119Z" fill="#231F20"/>
<defs>
<radialGradient id="paint0_radial_3865_17782" cx="0" cy="0" r="1" gradientUnits="userSpaceOnUse" gradientTransform="translate(37.2402 38.0805) scale(12.2935 9.179)">
<stop stop-color="#8B7566"/>
<stop offset="0.29" stop-color="#8D7768"/>
<stop offset="0.47" stop-color="#958070"/>
<stop offset="0.62" stop-color="#A38E7E"/>
<stop offset="0.76" stop-color="#B7A392"/>
<stop offset="0.88" stop-color="#D0BDAB"/>
<stop offset="0.99" stop-color="#EFDDCA"/>
<stop offset="1" stop-color="#F3E1CE"/>
</radialGradient>
</defs>
</svg>
