<svg width="80" height="77" viewBox="0 0 80 77" fill="none" xmlns="http://www.w3.org/2000/svg">
<path d="M52.2116 53.5857C52.6523 52.4053 52.5736 51.099 52.7625 49.8399C53.093 47.7152 54.2734 45.5432 56.2093 44.4887C57.2166 43.9379 58.4284 43.7962 59.5459 43.8434C61.0568 43.9064 61.2142 43.8906 60.7578 45.0868C60.1282 46.7551 60.0495 48.2503 60.0023 50.0287C59.9551 51.6184 59.7033 53.3496 58.5701 54.4671C57.8776 55.1596 56.9018 55.5373 56.2408 56.277C55.9417 56.5918 55.7214 56.9695 55.4381 57.3C53.9744 58.9211 50.9683 58.6693 49.4259 57.2371C48.4501 56.3242 48.4658 55.8678 49.4888 55.4901C50.7479 55.0179 51.6293 55.1438 52.2116 53.5857Z" fill="#F39B4A"/>
<path d="M55.4544 51.1777C55.3757 51.099 55.297 51.0203 55.2498 50.9416C55.0452 50.6268 54.9665 50.2491 54.9507 49.8714C54.935 49.0687 55.1868 48.2817 55.5016 47.542C55.2183 47.8568 54.8878 48.1401 54.5415 48.3762C54.2267 48.5808 53.7231 48.7224 53.5028 48.4077C53.4083 48.2817 53.4083 48.1086 53.4241 47.9355C53.5814 46.519 55.0452 45.134 56.2413 44.4887C57.2486 43.9379 58.4605 43.7962 59.5779 43.8434C61.0888 43.9064 61.2462 43.8906 60.7898 45.0868C60.3648 46.2357 60.176 47.4476 60.0973 48.6752C60.0501 49.4307 60.2704 50.4222 59.8769 51.1147C59.3733 52.0118 58.1772 51.76 57.8152 50.8314C57.6263 50.3435 57.6893 49.7927 57.768 49.2733C57.5476 49.6982 57.4532 50.1704 57.2486 50.5953C57.044 51.0203 56.6662 51.4138 56.1941 51.4452C55.9265 51.4452 55.6747 51.3508 55.4701 51.1619L55.4544 51.1777Z" fill="#A05715"/>
<path d="M50.827 58.433C51.1732 58.795 51.6297 58.9838 52.1176 59.0468C52.6055 59.1097 53.1091 59.0468 53.5813 58.9051C53.8331 58.8265 54.0849 58.732 54.321 58.6376C54.4626 58.5746 54.5885 58.5117 54.6672 58.37C54.7459 58.2441 54.7774 58.0553 54.7302 57.9136C54.683 57.772 54.5885 57.6303 54.4626 57.5674C54.3367 57.5044 54.1478 57.4572 54.0062 57.5044C53.5813 57.6775 53.1406 57.8349 52.6841 57.9136H52.8415C52.6212 57.9136 52.4166 57.9136 52.1962 57.8979H52.3536C52.1962 57.8979 52.0389 57.8506 51.8972 57.8034L52.0389 57.8664C51.9129 57.8192 51.8028 57.7562 51.6926 57.6618L51.8185 57.7562C51.8185 57.7562 51.7083 57.6618 51.6769 57.6146C51.4565 57.3942 51.0473 57.3785 50.8427 57.6146C50.6381 57.8507 50.6066 58.2126 50.8427 58.4487L50.827 58.433Z" fill="#231F20"/>
<path d="M54.8715 56.8432C54.8872 56.9219 54.9345 57.0006 54.9659 57.0792C54.9659 57.1107 54.9974 57.1422 55.0132 57.1737C55.0604 57.2524 55.1076 57.3153 55.1705 57.3783C55.1863 57.4098 55.2178 57.4255 55.2492 57.457C55.3122 57.5199 55.3751 57.5671 55.4538 57.6144C55.4853 57.6301 55.5168 57.6616 55.5483 57.6773C55.627 57.7245 55.7057 57.756 55.7844 57.7875C55.8158 57.7875 55.8473 57.819 55.8945 57.819C55.989 57.8347 56.0834 57.8504 56.1621 57.8662C56.2093 57.8662 56.2408 57.8662 56.288 57.8662C56.3667 57.8662 56.4454 57.8662 56.5083 57.819C56.587 57.7875 56.65 57.756 56.6972 57.6931C56.7602 57.6458 56.7916 57.5829 56.8231 57.5042C56.8546 57.4412 56.8703 57.3625 56.8703 57.2839V57.1265C56.8231 57.032 56.7759 56.9376 56.6972 56.8589L56.5713 56.7645C56.4769 56.7173 56.3824 56.6858 56.2723 56.6858C56.225 56.6858 56.1621 56.6858 56.1149 56.6858H56.2723C56.2723 56.6858 56.1306 56.6858 56.0676 56.6543L56.2093 56.7173C56.2093 56.7173 56.0834 56.6543 56.0204 56.6071L56.1463 56.7015C56.1463 56.7015 56.0362 56.6071 56.0047 56.5599L56.0991 56.6858C56.0991 56.6858 56.0204 56.5756 55.989 56.5127L56.0519 56.6543C56.0519 56.6543 56.0362 56.5913 56.0204 56.5599C56.0047 56.4812 55.9732 56.4182 55.9103 56.3553C55.863 56.2923 55.8158 56.2451 55.7371 56.1979C55.6742 56.1507 55.5955 56.1349 55.5168 56.1349C55.4381 56.1192 55.3594 56.1349 55.2807 56.1349L55.1391 56.1979C55.0446 56.2451 54.9817 56.3238 54.9345 56.4025L54.8715 56.5441C54.84 56.6543 54.84 56.7487 54.8715 56.8589V56.8432Z" fill="#231F20"/>
<path d="M56.9176 56.2924C58.3814 55.4897 59.4201 54.1204 60.0339 52.5938C60.7579 50.7995 60.7894 48.9109 60.8838 47.0065C60.931 46.1881 61.0727 45.1966 61.8281 44.7087C62.4577 44.2994 61.8753 43.2764 61.2301 43.6856C59.5618 44.7716 59.7506 46.8649 59.6404 48.6119C59.5303 50.3589 59.184 52.1059 58.1925 53.5696C57.7046 54.2778 57.075 54.8759 56.3196 55.2851C55.6585 55.6471 56.2409 56.6701 56.9176 56.3081V56.2924Z" fill="#231F20"/>
<path d="M51.582 55.3327C53.1244 54.6087 53.3133 52.7673 53.3605 51.2721C53.4077 49.777 53.5809 48.1873 54.3993 46.8653C54.7927 46.2357 55.3279 45.7006 55.9889 45.3386C56.6499 44.9766 56.0676 43.9536 55.3908 44.3156C54.0688 45.0396 53.1717 46.3302 52.6995 47.7309C52.4319 48.5179 52.306 49.352 52.2273 50.1862C52.1486 51.0203 52.2273 51.7915 52.0857 52.5784C51.9598 53.2867 51.6607 53.9635 50.984 54.2782C50.7007 54.4199 50.622 54.8291 50.7794 55.0809C50.9525 55.3799 51.2987 55.4272 51.582 55.2855V55.3327Z" fill="#231F20"/>
<path d="M57.3431 44.5673C57.7366 44.4099 58.1615 44.2998 58.5865 44.2368H58.4291C58.917 44.1896 59.3891 44.1896 59.877 44.2525H59.7196C60.0344 44.2683 60.3492 44.347 60.664 44.4571C60.9787 44.5673 61.325 44.347 61.3879 44.0479C61.4666 43.7174 61.2935 43.4184 60.9787 43.324C59.7196 42.899 58.2717 42.9462 57.0283 43.4341C56.8867 43.4971 56.7608 43.56 56.6821 43.7017C56.6034 43.8276 56.5719 44.0165 56.6191 44.1581C56.6663 44.2998 56.7608 44.4414 56.8867 44.5044C57.0126 44.5673 57.2014 44.6145 57.3431 44.5673Z" fill="#231F20"/>
<path d="M33.2778 59.9598C31.0429 58.9683 29.2802 56.9222 28.6979 54.5457C28.1155 52.1691 28.7293 49.5093 30.3504 47.6836C32.6011 45.1497 36.2524 44.4886 39.6205 44.1424C40.8009 44.0322 42.0443 43.9378 43.146 44.3785C44.0431 44.7405 44.7671 45.433 45.4753 46.094C46.7344 47.2901 48.0093 48.5178 48.8434 50.0444C50.0553 52.2793 50.1812 55.0808 49.1582 57.4101C48.8749 58.0397 48.5129 58.6535 47.9778 59.0942C47.5214 59.4562 46.9705 59.6923 46.4039 59.8654C44.5153 60.4477 42.5007 60.5107 40.5334 60.5736C38.0939 60.6523 35.6072 60.9828 33.2936 59.9598H33.2778Z" fill="#F39B4A"/>
<path d="M37.7162 57.7719C37.4801 57.5988 37.0394 57.5516 36.3469 57.5988C35.8748 57.646 33.5612 58.2913 33.3408 57.6303C33.6084 58.3857 33.1677 58.9838 33.7185 59.7707C34.1278 60.3373 34.7101 60.6364 35.4026 60.7308C35.7016 60.778 36.0007 60.8095 36.2997 60.7308C36.8191 60.6206 37.2283 60.2114 37.4644 59.7393C37.968 58.7162 38.1569 58.0552 37.7319 57.7562L37.7162 57.7719Z" fill="#A05715"/>
<path d="M40.7532 57.5519C40.5171 58.449 40.4699 59.3618 40.6588 59.9914C41.0995 61.5338 43.0983 61.219 44.1528 60.6524C45.0656 60.1488 45.5693 58.7008 45.5693 57.3315C43.9796 57.5676 42.3743 57.6935 40.7532 57.5676V57.5519Z" fill="#A05715"/>
<path d="M28.5715 43.702C28.0364 44.5204 27.5957 45.4333 27.5485 46.4091C27.4068 48.88 29.7991 50.8474 32.2229 51.3668C32.2229 51.0992 32.2229 50.8159 32.2071 50.5483C35.0873 51.0048 37.6685 53.0351 38.7859 55.7264C39.3525 54.1053 40.5802 52.7203 42.1225 51.9334C43.5548 51.2094 45.286 50.9733 46.4035 49.8401C46.2933 50.0919 46.5766 50.391 46.8599 50.3752C47.1432 50.3595 47.3793 50.1706 47.5996 49.9975C49.1578 48.6754 50.8418 47.0701 50.8103 45.0241C50.8103 44.2843 50.5428 43.5603 50.165 42.9151C48.3551 39.7673 44.263 38.9174 40.6588 38.524C35.6697 37.9888 31.4045 39.3581 28.5872 43.7335L28.5715 43.702Z" fill="white"/>
<path d="M32.5059 55.9934C32.5373 56.9692 32.6318 57.9608 32.8364 58.9051C33.0095 59.7393 33.4187 60.5892 34.2214 60.9826C34.6463 61.1872 35.087 61.2659 35.5434 61.2817C35.9684 61.2817 36.4405 61.2502 36.8498 61.1558C37.3377 61.0456 37.7626 60.7465 37.9987 60.3059C38.2033 59.9281 38.2977 59.5032 38.3607 59.0782C38.5338 57.9765 38.581 56.8591 38.4551 55.7416C38.4394 55.5842 38.4079 55.4426 38.282 55.3167C38.1718 55.2065 38.0144 55.1436 37.857 55.1436C37.5737 55.1436 37.2275 55.4111 37.259 55.7416C37.3534 56.623 37.3534 57.5044 37.259 58.3857C37.259 58.4487 37.259 58.4959 37.2432 58.5589C37.2432 58.5903 37.2432 58.6061 37.2432 58.6376C37.2432 58.732 37.2432 58.5274 37.2432 58.6376C37.2275 58.7477 37.2117 58.8579 37.196 58.9681C37.1645 59.1412 37.133 59.3301 37.0858 59.5032C37.0858 59.5504 37.0544 59.5819 37.0386 59.6291C37.0386 59.6448 37.0386 59.6606 37.0229 59.6763C37.0071 59.7393 37.0544 59.6134 37.0544 59.6134C37.0229 59.6448 37.0229 59.692 37.0071 59.7235C36.9914 59.7707 36.9599 59.8022 36.9284 59.8494C36.9284 59.8494 36.9127 59.8809 36.897 59.8967C36.897 59.8967 36.9757 59.8022 36.9284 59.8494C36.897 59.8809 36.8655 59.9124 36.834 59.9439C36.9127 59.8967 36.834 59.9439 36.8183 59.9439C36.7868 59.9596 36.7081 59.9911 36.6924 60.0068C36.7238 59.9596 36.7868 59.9753 36.7238 60.0068C36.7081 60.0068 36.6924 60.0068 36.6609 60.0226C36.6137 60.0226 36.5665 60.054 36.5192 60.054C36.472 60.054 36.4405 60.0698 36.3933 60.0855C36.3618 60.0855 36.3461 60.0855 36.3146 60.0855C36.2359 60.0855 36.3146 60.0855 36.3461 60.0855C36.2674 60.117 36.1572 60.1013 36.0786 60.117C35.9841 60.117 35.9054 60.117 35.811 60.1327C35.6379 60.1327 35.449 60.1327 35.2759 60.1327C35.2601 60.1327 35.2444 60.1327 35.2129 60.1327C35.15 60.1327 35.2759 60.1327 35.2759 60.1327C35.2287 60.1327 35.1814 60.1327 35.15 60.117C35.0555 60.1013 34.9611 60.0698 34.8824 60.0383C34.8509 60.0383 34.8195 60.0068 34.7722 60.0068C34.7722 60.0068 34.8981 60.0698 34.8037 60.0068C34.788 60.0068 34.7722 59.9911 34.7565 59.9753C34.6778 59.9281 34.5991 59.8809 34.5362 59.8337C34.4732 59.7865 34.6148 59.9124 34.5676 59.8494C34.5676 59.8494 34.5362 59.818 34.5204 59.818C34.4889 59.7865 34.4575 59.755 34.426 59.7235C34.3945 59.692 34.3788 59.6763 34.3473 59.6448C34.3473 59.6291 34.2843 59.5661 34.3473 59.6448C34.3001 59.5819 34.2686 59.5189 34.2214 59.4402C34.2056 59.4088 34.1742 59.3615 34.1584 59.3301C34.1584 59.3143 34.1584 59.2986 34.1427 59.2828C34.2214 59.4088 34.1742 59.3458 34.1427 59.2986C34.0797 59.1412 34.0325 58.9681 33.9853 58.7949C33.9381 58.5903 33.9066 58.4015 33.8751 58.1969C33.8594 58.071 33.8437 57.9608 33.8279 57.8349C33.8279 57.8191 33.8122 57.709 33.8279 57.7877C33.8437 57.8664 33.8279 57.7562 33.8279 57.7404C33.8279 57.6775 33.8122 57.6145 33.8122 57.5516C33.7492 57.0479 33.7177 56.5443 33.702 56.0249C33.702 55.7101 33.4344 55.4269 33.1039 55.4269C32.7734 55.4269 32.5059 55.6787 32.5059 56.0249V55.9934Z" fill="#231F20"/>
<path d="M44.6717 55.9936C44.6717 56.45 44.6245 56.8907 44.5773 57.3471C44.5773 57.4573 44.5616 57.5517 44.5458 57.6619C44.5458 57.6933 44.5458 57.7091 44.5458 57.7406C44.5458 57.8035 44.5301 57.8665 44.5144 57.9294C44.4829 58.1183 44.4514 58.3072 44.4199 58.5118C44.3884 58.6849 44.3412 58.858 44.294 59.0311C44.2625 59.1098 44.2468 59.1885 44.2153 59.2672L44.1838 59.3302C44.1838 59.3302 44.2311 59.22 44.1996 59.2672C44.1838 59.3144 44.1524 59.3617 44.1366 59.3931C44.1051 59.4561 44.0579 59.5348 44.0107 59.5977C44.0107 59.6135 43.9792 59.6449 43.9635 59.6607C43.9635 59.6607 44.0422 59.5663 43.995 59.6135C43.9635 59.645 43.932 59.6922 43.9005 59.7236C43.8691 59.7551 43.8533 59.7709 43.8219 59.8023C43.8061 59.8181 43.7904 59.8338 43.7589 59.8496C43.7117 59.8968 43.8061 59.8181 43.8061 59.8181C43.7274 59.8495 43.6645 59.9125 43.5858 59.9597C43.57 59.9597 43.4284 60.0384 43.5228 59.9912C43.6015 59.9597 43.4756 59.9912 43.4599 60.0069C43.3812 60.0384 43.2867 60.0542 43.208 60.0699C43.1608 60.0699 43.1136 60.0699 43.0821 60.0856C43.0192 60.0856 43.1451 60.0856 43.1451 60.0856H43.0664C42.972 60.0856 42.8933 60.0856 42.7988 60.0856C42.61 60.0856 42.4368 60.0856 42.248 60.0699C42.1693 60.0699 42.0749 60.0542 41.9962 60.0384C41.9332 60.0384 42.0591 60.0384 42.0591 60.0384C42.0276 60.0384 41.9962 60.0384 41.9804 60.0384C41.9332 60.0384 41.8703 60.0227 41.823 60.0069C41.7758 60.0069 41.7443 59.9912 41.6971 59.9755C41.6656 59.9755 41.6499 59.9597 41.6184 59.944C41.6027 59.944 41.5712 59.9125 41.5555 59.8968C41.5397 59.8968 41.524 59.881 41.5083 59.8653C41.4453 59.8338 41.587 59.944 41.5397 59.8968C41.5083 59.8653 41.4768 59.8338 41.4453 59.8023C41.3981 59.7394 41.3666 59.6607 41.3194 59.582C41.2879 59.519 41.3509 59.645 41.3509 59.645C41.3509 59.6292 41.3351 59.5977 41.3194 59.582C41.3194 59.5505 41.3037 59.519 41.2879 59.4718C41.2564 59.3774 41.2407 59.2987 41.225 59.2043C41.1777 58.9997 41.1463 58.7951 41.1148 58.5905C41.1148 58.5275 41.1148 58.6219 41.1148 58.6219C41.1148 58.5905 41.1148 58.559 41.1148 58.5275C41.1148 58.4645 41.1148 58.4016 41.0991 58.3386C41.0991 58.2127 41.0676 58.0868 41.0676 57.9609C41.0518 57.7091 41.0361 57.473 41.0361 57.2212C41.0361 56.7175 41.0518 56.2139 41.1148 55.726C41.1463 55.4112 40.8158 55.1279 40.5167 55.1279C40.1705 55.1279 39.9659 55.3955 39.9186 55.726C39.8085 56.6861 39.8242 57.6461 39.9501 58.6062C40.076 59.5663 40.2177 60.6207 41.1935 61.03C41.6184 61.2031 42.0906 61.2503 42.5313 61.266C42.9562 61.2818 43.3969 61.266 43.8061 61.1244C44.2311 60.9827 44.6245 60.7467 44.9078 60.3847C45.1911 60.0227 45.38 59.6135 45.4902 59.1885C45.6318 58.6849 45.6948 58.1498 45.7577 57.6304C45.8207 57.0795 45.8679 56.5444 45.8836 55.9936C45.8836 55.6788 45.6003 55.3955 45.2856 55.3955C44.955 55.3955 44.7032 55.6473 44.6875 55.9936H44.6717Z" fill="#231F20"/>
<path d="M34.5203 59.1254C34.5203 59.2356 34.5203 59.3457 34.5517 59.4717C34.5517 59.5503 34.5832 59.629 34.599 59.7077C34.6304 59.8179 34.6776 59.9281 34.7249 60.0225C34.7563 60.1012 34.8036 60.1642 34.8508 60.2429C34.8823 60.2901 34.9137 60.3215 34.9452 60.353C34.9767 60.3845 35.0239 60.416 35.0869 60.416C35.1341 60.4317 35.197 60.4317 35.2442 60.416C35.2915 60.416 35.3387 60.4002 35.3859 60.3688C35.4646 60.3215 35.5433 60.2271 35.559 60.1327C35.5748 60.0382 35.5748 59.9123 35.5118 59.8336C35.4488 59.755 35.4016 59.6605 35.3702 59.5661L35.4174 59.6605C35.3544 59.5346 35.3229 59.393 35.3072 59.2513V59.3615C35.3072 59.3615 35.3072 59.2041 35.3072 59.1254C35.3072 59.0782 35.3072 59.0152 35.2757 58.968C35.26 58.9208 35.2285 58.8736 35.197 58.8421C35.1655 58.8106 35.1183 58.7792 35.0711 58.7634C35.0239 58.7319 34.9767 58.7319 34.9137 58.7319C34.8193 58.7319 34.7091 58.7634 34.6304 58.8421C34.5517 58.9208 34.5203 59.0152 34.5203 59.1254Z" fill="#231F20"/>
<path d="M35.8268 59.503L35.9685 60.29C35.9685 60.29 35.9999 60.3844 36.0314 60.4316C36.0629 60.4788 36.0944 60.5103 36.1416 60.5261C36.1888 60.5575 36.236 60.5733 36.2832 60.5733C36.3305 60.5733 36.3934 60.5733 36.4406 60.5733L36.5351 60.5261C36.5351 60.5261 36.6452 60.4474 36.6767 60.3844L36.7239 60.29C36.7239 60.29 36.7397 60.1483 36.7239 60.0854L36.5823 59.2984C36.5823 59.2984 36.5508 59.204 36.5193 59.1568C36.4878 59.1096 36.4564 59.0781 36.4092 59.0624C36.3619 59.0309 36.3147 59.0151 36.2675 59.0151C36.2203 59.0151 36.1573 59.0151 36.1101 59.0151L36.0157 59.0624C36.0157 59.0624 35.9055 59.141 35.874 59.204L35.8268 59.2984C35.8268 59.2984 35.8111 59.4401 35.8268 59.503Z" fill="#231F20"/>
<path d="M41.7291 59.0313C41.6976 59.1415 41.6819 59.2516 41.6819 59.3618C41.6819 59.4405 41.6819 59.5192 41.6819 59.6136C41.6819 59.7238 41.7134 59.834 41.7448 59.9441C41.7763 60.0543 41.8235 60.1645 41.8707 60.2589C41.9022 60.3061 41.9337 60.3376 41.9652 60.3691C41.9967 60.4006 42.0439 60.432 42.1068 60.432C42.154 60.4478 42.217 60.4478 42.2642 60.432C42.3114 60.432 42.3586 60.4163 42.4059 60.3848C42.4846 60.3376 42.5633 60.2432 42.579 60.1487V60.0386C42.579 60.0386 42.579 59.8969 42.5318 59.834C42.5318 59.8182 42.516 59.8025 42.5003 59.771L42.5475 59.8655C42.5003 59.7553 42.4688 59.6451 42.4531 59.5192V59.6294C42.4531 59.5035 42.4531 59.3933 42.4531 59.2674V59.3775C42.4531 59.3775 42.4531 59.2674 42.4688 59.2202C42.4846 59.1729 42.4846 59.11 42.4688 59.0628C42.4688 59.0156 42.4531 58.9683 42.4216 58.9211C42.3901 58.8739 42.3587 58.8424 42.3272 58.811C42.2957 58.7795 42.2485 58.748 42.1855 58.748C42.0911 58.7323 41.9652 58.7323 41.8865 58.7952C41.8078 58.8582 41.7291 58.9369 41.7134 59.0313H41.7291Z" fill="#231F20"/>
<path d="M43.004 59.362C43.004 59.362 43.0197 59.4565 43.0355 59.4879V59.3778C43.0355 59.5037 43.0355 59.6296 43.0355 59.7398V59.6296C43.0355 59.7555 43.004 59.8657 42.9568 59.9758L43.004 59.8814C43.004 59.8814 42.9882 59.9286 42.9725 59.9444C42.941 59.9916 42.9253 60.0388 42.9253 60.086C42.9253 60.1332 42.9253 60.1962 42.9253 60.2434C42.9253 60.2906 42.9568 60.3378 42.9882 60.3851C43.0197 60.4323 43.0512 60.4637 43.0984 60.4795C43.1929 60.5267 43.303 60.5582 43.3975 60.5267C43.4919 60.4952 43.5863 60.4323 43.6335 60.3536C43.6808 60.2591 43.728 60.149 43.7594 60.0388C43.7909 59.9286 43.8067 59.8185 43.8224 59.7083C43.8224 59.6296 43.8224 59.5509 43.8224 59.4722C43.8224 59.362 43.8067 59.2519 43.7752 59.1417C43.7752 59.0945 43.7437 59.0473 43.7122 59C43.6808 58.9528 43.6493 58.9214 43.6021 58.9056C43.5548 58.8741 43.5076 58.8584 43.4604 58.8584C43.4132 58.8584 43.3502 58.8584 43.303 58.8584C43.2086 58.8899 43.1142 58.9528 43.0669 59.0315L43.0197 59.126C43.0197 59.126 43.004 59.2676 43.0197 59.3306L43.004 59.362Z" fill="#231F20"/>
<path d="M34.1435 38.3194C31.641 39.1693 29.2802 40.7432 27.8952 43.0411C27.3915 43.8909 27.0295 44.8353 26.9666 45.8268C26.8879 47.0544 27.3443 48.3607 27.9739 49.3838C28.7923 50.6901 30.0514 51.7131 31.5623 52.0436C32.302 52.201 32.6168 51.0678 31.8771 50.9104C29.7209 50.4383 28.0998 48.1876 28.1313 45.9999C28.1313 45.6222 28.1785 45.3861 28.3044 44.9612C28.4303 44.5362 28.5719 44.2372 28.7923 43.828C29.2959 42.9309 29.9727 42.1754 30.7596 41.5144C31.8299 40.6015 33.1204 39.9248 34.4582 39.4684C35.1665 39.2323 34.8674 38.0834 34.1435 38.3352V38.3194Z" fill="#231F20"/>
<path d="M31.9872 49.1317C31.8927 50.1704 32.7111 51.0833 33.5925 51.5239C34.0804 51.76 34.5998 51.9174 35.1192 52.0905C35.2451 52.122 35.3552 52.1692 35.4812 52.2164C35.5441 52.2322 35.5913 52.2637 35.6385 52.2794C35.67 52.2794 35.6858 52.2951 35.7172 52.3109C35.7802 52.3424 35.5913 52.2479 35.7172 52.3109C35.9218 52.4053 36.1107 52.4997 36.2838 52.6256C36.2996 52.6256 36.3311 52.6571 36.3468 52.6729C36.3625 52.6729 36.4412 52.7516 36.3783 52.6886C36.4097 52.7043 36.4412 52.7358 36.457 52.7673C36.5357 52.846 36.6143 52.9247 36.693 53.0191C36.756 53.0978 36.6773 52.9876 36.6616 52.9876C36.6616 53.0191 36.7088 53.0506 36.7245 53.0821C36.756 53.1293 36.7875 53.1765 36.819 53.2395C36.819 53.2552 36.8347 53.2867 36.8504 53.3024C36.8976 53.3968 36.819 53.208 36.8504 53.2709C36.8662 53.3339 36.8976 53.3969 36.9134 53.4598C36.9921 53.7588 37.3383 53.9634 37.6374 53.869C37.9364 53.7746 38.1253 53.4598 38.0466 53.145C37.7948 52.1378 36.8819 51.5239 35.9691 51.1619C35.4969 50.9731 35.0247 50.8629 34.5526 50.6898C34.5054 50.674 34.4424 50.6426 34.3952 50.6268C34.285 50.5796 34.4109 50.6268 34.4109 50.6268C34.4109 50.6268 34.348 50.5954 34.3322 50.5954C34.2221 50.5481 34.0962 50.4852 33.986 50.4222C33.9073 50.375 33.8129 50.3121 33.7342 50.2648C33.6397 50.2019 33.7656 50.2806 33.7656 50.2806C33.7656 50.2806 33.7027 50.2334 33.6869 50.2176C33.6397 50.1861 33.6082 50.1389 33.561 50.1075C33.5138 50.0602 33.4666 50.013 33.4351 49.9658C33.4351 49.9501 33.4036 49.9186 33.3879 49.9028C33.4823 49.9973 33.4194 49.9501 33.3879 49.9028C33.325 49.8084 33.2777 49.714 33.2148 49.6196C33.1518 49.5094 33.2463 49.7297 33.2148 49.651C33.2148 49.6196 33.199 49.5881 33.1833 49.5723C33.1676 49.5094 33.1518 49.4622 33.1361 49.3992C33.1203 49.3363 33.1518 49.352 33.1361 49.4464C33.1361 49.415 33.1361 49.3677 33.1361 49.3363C33.1361 49.2733 33.1361 49.2103 33.1361 49.1474C33.1676 48.8326 32.8528 48.5493 32.538 48.5493C32.1918 48.5493 31.9714 48.8169 31.9399 49.1474L31.9872 49.1317Z" fill="#231F20"/>
<path d="M40.3133 54.2154C40.4865 53.995 40.6911 53.7904 40.8957 53.6015C40.9429 53.5543 41.0058 53.5071 41.0531 53.4599C41.0845 53.4442 41.116 53.4127 41.1317 53.3969C41.2419 53.3182 41.3678 53.2395 41.478 53.1609C41.7141 53.0035 41.9659 52.8776 42.2177 52.7517C42.3436 52.6887 42.4538 52.6415 42.5797 52.5785C42.6427 52.547 42.7056 52.5156 42.7843 52.4841C42.863 52.4526 42.7056 52.5156 42.7843 52.4841C42.8315 52.4684 42.863 52.4526 42.9102 52.4369C44.0749 51.9647 45.4127 51.6814 46.3727 50.8158C46.9236 50.3121 47.2856 49.6196 47.3013 48.8642C47.3013 48.5494 47.0338 48.2661 46.7033 48.2661C46.3727 48.2661 46.1209 48.5179 46.1052 48.8642C46.1052 48.8957 46.0894 49.1003 46.1052 48.9744C46.1052 49.0373 46.0894 49.1003 46.0737 49.1475C46.058 49.1947 46.0422 49.2577 46.0108 49.3206C46.0108 49.3521 45.9793 49.4308 46.0108 49.3206C45.995 49.3678 45.9793 49.3993 45.9478 49.4465C45.9163 49.4937 45.8848 49.5567 45.8534 49.6039C45.8376 49.6354 45.8062 49.6669 45.7904 49.6983C45.8534 49.6196 45.7904 49.6826 45.7904 49.6983C45.696 49.8085 45.6015 49.9187 45.4914 50.0131C45.4599 50.0288 45.4442 50.0603 45.4127 50.0761C45.3497 50.1233 45.3025 50.1548 45.2396 50.1862C45.1136 50.2649 44.972 50.3436 44.8303 50.4223C44.7517 50.4538 44.6887 50.4853 44.61 50.5167C44.5785 50.5325 44.5313 50.5482 44.4998 50.564C44.3582 50.6269 44.2008 50.6741 44.0434 50.7371C42.9732 51.1306 41.8715 51.4926 40.8957 52.1064C40.3448 52.4526 39.8254 52.8618 39.432 53.3655C39.2431 53.6015 39.1801 53.9635 39.432 54.1996C39.6523 54.4042 40.0615 54.4514 40.2661 54.1996L40.3133 54.2154Z" fill="#231F20"/>
<path d="M48.1348 50.6426C50.0234 49.352 51.8019 47.3532 51.7389 44.9294C51.676 42.5057 49.8031 40.5698 47.7098 39.5625C46.372 38.9172 44.9398 38.5395 43.5076 38.1933C42.7679 38.0044 42.4531 39.1533 43.1928 39.3264C45.3175 39.8616 47.6154 40.4124 49.1893 42.0335C49.866 42.726 50.3854 43.6074 50.5271 44.5832C50.6687 45.559 50.3854 46.4404 49.9132 47.2273C49.3309 48.2031 48.481 48.99 47.5367 49.6196C47.2691 49.7927 47.159 50.139 47.3321 50.4223C47.4895 50.6898 47.8672 50.8157 48.1348 50.6269V50.6426Z" fill="#231F20"/>
<path d="M28.0527 50.6425C27.7064 53.507 27.911 56.6704 30.0358 58.8581C30.5394 59.3775 31.1375 59.8182 31.8142 60.1015C32.1133 60.2274 32.4438 60.1959 32.6169 59.8969C32.7586 59.6451 32.6956 59.2201 32.4123 59.0942C31.3421 58.6378 30.5709 57.8666 30.02 56.8593C29.4062 55.7576 29.1386 54.4513 29.1072 53.145C29.0914 52.3108 29.1544 51.4767 29.2488 50.6425C29.2803 50.3277 28.9498 50.0444 28.6507 50.0444C28.3045 50.0444 28.0999 50.312 28.0527 50.6425Z" fill="#231F20"/>
<path d="M46.7657 60.0074C48.2609 59.7713 49.4413 58.7168 50.0079 57.3475C50.2754 56.6865 50.4328 55.994 50.5273 55.2858C50.6374 54.5303 50.7004 53.7748 50.6532 53.0194C50.5902 52.138 50.3856 51.2881 49.9764 50.5169C49.819 50.2336 49.4413 50.1549 49.1737 50.3123C48.8904 50.4854 48.8117 50.8317 48.9691 51.115C49.5672 52.2324 49.5829 53.5545 49.4256 54.8136C49.2839 55.9625 49.0006 57.2688 48.1507 58.0873C47.6943 58.5279 47.1277 58.7798 46.4667 58.8742C46.1519 58.9214 45.9788 59.3149 46.0575 59.5982C46.1519 59.9287 46.4667 60.0546 46.7814 60.0074H46.7657Z" fill="#231F20"/>
<path d="M20.9385 25.4923C20.9542 26.531 20.8125 27.4753 20.3404 28.2623C18.8137 30.7647 18.1999 33.8338 18.6563 36.7455C18.7193 37.1861 18.8295 37.6268 19.1128 37.9573C19.3961 38.2879 19.9154 38.4452 20.2617 38.1777C19.9784 38.398 20.5922 40.6801 20.7181 40.9792C21.1116 41.955 21.7569 42.8521 22.5595 43.5131C22.6382 43.277 22.7169 43.041 22.7956 42.8206C24.5426 44.6935 27.1395 45.3545 29.579 45.9526C33.7813 46.9599 38.0622 47.9829 42.3589 47.5422C44.8613 47.2904 47.3008 46.5507 49.6774 45.6693C51.33 45.0712 53.0455 44.3315 54.0528 42.8678C54.2574 43.0567 54.462 43.2298 54.6823 43.4187C55.7211 41.9392 56.445 40.2237 56.7913 38.4295C56.9802 38.8859 57.6569 38.4925 57.8773 38.036C59.4669 34.904 58.4911 30.9693 56.571 28.0419C56.3664 27.7272 56.146 27.4124 56.0358 27.0504C55.8627 26.4838 55.9414 25.87 56.0201 25.2877C56.6339 20.5031 56.2719 15.5769 54.9656 10.9497C54.761 10.2414 54.3361 9.37579 53.6278 9.43875C53.2816 9.47022 52.9983 9.7063 52.7464 9.94238C49.819 12.6494 47.3638 15.8916 45.5381 19.4643C45.5381 19.4643 38.9436 18.8977 38.2668 18.9449C36.1263 19.0709 33.7498 19.0709 31.688 19.6217C31.5149 19.6689 31.3103 19.7161 31.1529 19.6217C31.0585 19.5588 30.9955 19.4643 30.9326 19.3541C29.8623 17.5285 29.0439 15.5611 27.9894 13.7354C27.1553 12.2875 23.9288 7.28254 22.1976 10.1313C20.6079 12.7596 20.1987 16.049 20.183 19.1023C20.183 20.9752 20.907 23.3833 20.9542 25.4923H20.9385Z" fill="#F39B4A"/>
<path d="M33.829 35.1403C32.8375 36.0531 32.3338 37.6742 33.0421 38.8389C34.5215 41.2312 38.0627 41.1367 40.4393 40.8849C43.3982 40.5701 45.4599 37.7057 42.7529 35.156C40.3291 32.8739 36.2843 32.8581 33.829 35.1403Z" fill="white"/>
<path d="M27.643 18.9763C27.2968 17.7172 26.4784 14.9787 25.1878 14.3649C23.3306 13.4678 23.2834 17.7802 23.2992 19.0865C23.2992 20.0781 23.3621 21.0853 23.488 22.0769C23.5195 22.1241 23.5352 22.1556 23.5667 22.2028C23.5825 22.2343 23.5982 22.25 23.6139 22.2657C23.6297 22.2815 23.6454 22.313 23.6769 22.3287C23.7241 22.3759 23.8343 22.4703 23.8185 22.4546C23.8657 22.4861 23.9287 22.5176 23.9759 22.549C24.0074 22.549 24.0546 22.5648 24.0861 22.5805C24.1176 22.5805 24.1333 22.5805 24.149 22.5805C24.1805 22.5805 24.212 22.5805 24.2435 22.5805C24.3537 22.5805 24.4481 22.5805 24.5425 22.5805C24.3536 22.5963 24.574 22.5648 24.6999 22.5333C25.4396 21.9982 26.1951 21.4788 26.9191 20.9122C27.2024 20.6919 27.6588 20.3928 27.7847 20.0308C27.8949 19.7318 27.7217 19.2596 27.6273 18.9449L27.643 18.9763Z" fill="white"/>
<path d="M52.5733 22.7697C52.6677 22.7225 52.7464 22.691 52.8408 22.6281C52.888 22.5966 52.9195 22.5651 52.9667 22.5336C52.9825 22.4392 53.014 22.3605 53.0297 22.2661C53.1241 21.7939 53.2186 21.1329 53.25 20.8653C53.5176 18.6304 53.5648 16.7418 52.8251 14.617C52.7621 14.4439 52.6992 14.255 52.5575 14.1291C52.3372 13.9245 51.9909 13.9088 51.7234 14.0504C50.3541 14.7744 49.6144 17.8435 49.1894 19.2285C48.7488 20.6764 51.4873 22.2188 52.4788 22.7697C52.5103 22.7697 52.5261 22.7697 52.5575 22.754L52.5733 22.7697Z" fill="white"/>
<path d="M31.0744 25.4922C30.8855 25.3978 30.6809 25.3506 30.4606 25.3506C30.0514 25.3663 29.6264 25.508 29.3431 25.8227C29.0598 26.1375 28.8867 26.531 28.8867 26.9717V28.9548C28.8867 29.364 29.0598 29.8046 29.3431 30.1037C29.4848 30.2611 29.6579 30.3712 29.8468 30.4342C30.0356 30.5286 30.2403 30.5758 30.4606 30.5758C30.8698 30.5601 31.2947 30.4185 31.578 30.1037C31.8613 29.7889 32.0345 29.3954 32.0345 28.9548V26.9717C32.0345 26.5625 31.8613 26.1218 31.578 25.8227C31.4364 25.6654 31.2633 25.5552 31.0744 25.4922Z" fill="#A05715"/>
<path d="M47.3171 26.5625C47.3171 26.3422 47.2856 26.1375 47.1755 25.9329C47.1125 25.7283 47.0023 25.5552 46.845 25.4136C46.7033 25.2562 46.5302 25.146 46.3413 25.0831C46.1524 24.9886 45.9478 24.9414 45.7275 24.9414C45.3183 24.9571 44.8933 25.0988 44.6101 25.4136C44.5314 25.5237 44.4527 25.6339 44.3582 25.7441C44.2166 25.9959 44.1379 26.2635 44.1379 26.5625C44.0907 27.2707 44.1064 27.9632 44.1851 28.6715C44.1851 28.8918 44.2166 29.0964 44.3268 29.301C44.3897 29.5056 44.4999 29.6788 44.6573 29.8204C44.7989 29.9778 44.972 30.088 45.1609 30.1509C45.3498 30.2454 45.5544 30.2926 45.7747 30.2926C46.1839 30.2768 46.6089 30.1352 46.8922 29.8204C46.9709 29.7102 47.0496 29.6001 47.144 29.4899C47.2856 29.2381 47.3643 28.9705 47.3643 28.6715C47.2856 27.979 47.2699 27.2707 47.3171 26.5625Z" fill="#A05715"/>
<path d="M34.8045 19.4644C34.6943 19.4959 34.5999 19.5274 34.4897 19.5589C34.7416 21.7623 34.9934 23.9814 35.2609 26.1849C35.497 28.0578 36.0794 31.8665 38.8336 31.2999C41.1944 30.812 41.4463 27.4912 41.6351 25.6025C41.8397 23.5408 41.9656 21.479 42.0286 19.4015C39.6835 19.0552 37.1339 18.8978 34.7888 19.4487L34.8045 19.4644Z" fill="#A05715"/>
<path d="M30.319 34.9198C31.1709 34.9198 31.8614 34.2292 31.8614 33.3774C31.8614 32.5255 31.1709 31.835 30.319 31.835C29.4672 31.835 28.7766 32.5255 28.7766 33.3774C28.7766 34.2292 29.4672 34.9198 30.319 34.9198Z" fill="#231F20"/>
<path d="M46.3251 34.9198C47.177 34.9198 47.8675 34.2292 47.8675 33.3774C47.8675 32.5255 47.177 31.835 46.3251 31.835C45.4733 31.835 44.7827 32.5255 44.7827 33.3774C44.7827 34.2292 45.4733 34.9198 46.3251 34.9198Z" fill="#231F20"/>
<path d="M38.3298 36.0057C39.0948 36.0057 39.7148 35.6181 39.7148 35.14C39.7148 34.662 39.0948 34.2744 38.3298 34.2744C37.5649 34.2744 36.9448 34.662 36.9448 35.14C36.9448 35.6181 37.5649 36.0057 38.3298 36.0057Z" fill="#231F20"/>
<path d="M30.7437 20.4562C35.4495 19.323 40.3915 19.2915 45.1131 20.3775C45.8528 20.5506 46.1676 19.4017 45.4279 19.2443C40.5017 18.1111 35.3551 18.1426 30.4289 19.323C29.6892 19.4961 30.0039 20.645 30.7437 20.4562Z" fill="#231F20"/>
<path d="M46.8917 18.9769C47.6629 17.2771 48.5757 15.6403 49.6459 14.1136C50.1968 13.3267 50.7791 12.5869 51.3929 11.863C51.9438 11.2334 52.5104 10.4465 53.2659 10.053C53.5177 9.91136 53.8482 9.80119 54.0685 10.0373C54.3518 10.3206 54.4935 10.8399 54.6351 11.2019C54.9656 12.0676 55.2175 12.9647 55.4063 13.8775C55.7841 15.7347 55.8628 17.6548 55.7998 19.5435C55.7368 21.6997 55.5008 23.8401 55.2489 25.9806C55.2175 26.2954 55.548 26.5629 55.847 26.5787C56.1933 26.5787 56.3979 26.3111 56.4451 25.9806C56.933 21.8413 57.3894 17.6076 56.5395 13.4998C56.3349 12.4768 56.0201 11.4695 55.6267 10.4937C55.2804 9.65954 54.8555 8.73096 53.801 8.73096C52.8409 8.73096 52.0382 9.42346 51.4244 10.0845C50.7319 10.8085 50.0866 11.5797 49.4728 12.3823C48.0406 14.2395 46.8287 16.2541 45.8687 18.3945C45.7427 18.6936 45.79 19.0241 46.0733 19.1972C46.3251 19.3546 46.75 19.2759 46.8759 18.9926L46.8917 18.9769Z" fill="#231F20"/>
<path d="M50.5743 14.6954C49.992 15.7813 49.5041 16.9145 49.1106 18.0635C48.906 18.6301 48.7329 19.2124 48.5755 19.8105C48.481 20.2197 48.5755 20.5974 48.906 20.8492C49.1578 21.0538 49.4411 21.2269 49.7087 21.4158C50.3067 21.8408 50.9206 22.2657 51.5186 22.6906C51.7704 22.8638 52.1796 22.7379 52.3213 22.486C52.4787 22.187 52.3843 21.8722 52.1167 21.6834C51.4871 21.2427 50.8733 20.802 50.2438 20.3613C50.0864 20.2511 49.929 20.141 49.7716 20.0308C49.7401 19.9993 49.6929 19.9836 49.6615 19.9521C49.5828 19.9049 49.5828 19.8891 49.6457 19.9521C49.5513 19.8577 49.5828 19.9206 49.7087 20.141C49.7087 20.2039 49.7087 20.2039 49.7087 20.141C49.8188 19.8105 49.8975 19.4642 49.992 19.118C50.4169 17.7644 50.9206 16.5525 51.5816 15.3092C51.7232 15.0416 51.6603 14.6482 51.377 14.5065C51.1094 14.3649 50.7317 14.4278 50.5743 14.7111V14.6954Z" fill="#231F20"/>
<path d="M54.2886 26.0117C56.854 29.3484 58.4121 33.7237 57.4363 37.926C57.2632 38.6657 58.3964 38.9805 58.5695 38.2407C59.3879 34.731 58.6167 31.0639 56.9327 27.9319C56.4605 27.0505 55.9097 26.2163 55.2958 25.4137C55.107 25.1618 54.7922 25.0202 54.4932 25.2091C54.2413 25.3507 54.084 25.7599 54.2886 26.0117Z" fill="#231F20"/>
<path d="M55.8941 37.7212C55.9099 37.8156 55.9256 37.9101 55.9413 38.0045C55.9413 38.036 55.9413 38.0675 55.9413 38.0989C55.9413 38.1619 55.9413 38.0517 55.9413 38.0517C55.9413 38.0517 55.9571 38.2091 55.9571 38.2248C55.9728 38.4294 55.9886 38.634 55.9886 38.8229C55.9886 39.0118 55.9886 39.2479 55.9571 39.4525C55.9571 39.4682 55.9571 39.4997 55.9571 39.5154C55.9571 39.6099 55.9413 39.5154 55.9571 39.4997C55.9571 39.4997 55.9413 39.6098 55.9413 39.6256C55.9256 39.7358 55.9099 39.8459 55.8784 39.9561C55.8312 40.1607 55.7839 40.3496 55.721 40.5384C55.6895 40.6329 55.658 40.743 55.6266 40.8375C55.6266 40.8847 55.5951 40.9162 55.5793 40.9634C55.5793 40.9791 55.5636 41.0106 55.5479 41.0263C55.5951 40.9319 55.5164 41.0893 55.5479 41.0263C55.3747 41.4041 55.1859 41.7661 54.9498 42.0966C54.9183 42.1438 54.8868 42.191 54.8396 42.2382C54.8396 42.2382 54.8081 42.2854 54.7924 42.2854C54.8396 42.254 54.8396 42.2225 54.7924 42.2854C54.7295 42.3641 54.6508 42.4586 54.5721 42.5373C54.4147 42.7104 54.2416 42.8835 54.0684 43.0252C53.8323 43.2298 53.8481 43.6547 54.0684 43.8593C54.3202 44.0954 54.6508 44.0797 54.9026 43.8593C56.3033 42.6474 57.106 40.7903 57.169 38.9488C57.1847 38.4137 57.1375 37.8786 57.0273 37.3592C56.9644 37.0602 56.5866 36.8556 56.3033 36.95C55.9886 37.0602 55.8312 37.3592 55.8941 37.674V37.7212Z" fill="#231F20"/>
<path d="M53.5017 41.8766C53.2342 43.1672 52.0852 43.9384 50.9678 44.5364C49.7559 45.166 48.4339 45.5909 47.0803 45.89C46.7026 45.9844 46.3091 46.0474 45.9314 46.1261C45.7425 46.1575 45.5694 46.189 45.3805 46.2205C45.1759 46.252 45.05 46.2677 44.9084 46.2834C44.5936 46.3307 44.3103 46.5195 44.3103 46.8815C44.3103 47.1648 44.5779 47.5111 44.9084 47.4796C46.3878 47.2907 47.8515 47.0074 49.268 46.5353C50.6845 46.0631 52.1325 45.4336 53.2656 44.442C53.9267 43.8597 54.4618 43.0885 54.6349 42.2228C54.6979 41.9081 54.5405 41.5776 54.2257 41.4989C53.9267 41.4202 53.5647 41.5933 53.5017 41.9081V41.8766Z" fill="#231F20"/>
<path d="M30.9488 18.3784C30.0989 16.5055 29.0759 14.7113 27.864 13.043C27.2502 12.1931 26.5891 11.3746 25.8809 10.5877C25.2671 9.8952 24.6218 9.15548 23.7247 8.84071C22.7646 8.49446 21.899 8.93514 21.4741 9.83225C21.0491 10.7294 20.7186 11.6894 20.4668 12.6495C19.9474 14.6483 19.79 16.7416 19.8057 18.8033C19.8215 21.1956 20.089 23.5879 20.3723 25.9645C20.4038 26.2792 20.6242 26.5468 20.9704 26.5625C21.2537 26.5625 21.6 26.295 21.5685 25.9645C21.1278 22.2029 20.6714 18.3312 21.2852 14.5696C21.4426 13.6568 21.6472 12.7439 21.9462 11.8625C22.0879 11.4376 22.2452 11.0127 22.4341 10.6034C22.56 10.3044 22.7017 9.87946 23.0951 9.8952C23.8506 9.91094 24.5116 10.8081 24.9681 11.3117C25.6133 12.0199 26.2114 12.7439 26.778 13.5151C28.0214 15.2149 29.0916 17.0406 29.9572 18.9607C30.0831 19.2598 30.5081 19.3227 30.7599 19.1653C31.0589 18.9922 31.1062 18.6459 30.9645 18.3626L30.9488 18.3784Z" fill="#231F20"/>
<path d="M25.2193 15.2939C25.8803 16.553 26.384 17.7491 26.8089 19.1026C26.9191 19.4332 26.982 19.7951 27.0922 20.1257C27.1079 20.2044 27.0922 20.1886 27.0922 20.1257C27.2339 19.9053 27.2496 19.8424 27.1552 19.9368C27.2181 19.8896 27.2024 19.8896 27.1394 19.9368C27.1079 19.9683 27.0607 19.984 27.0293 20.0155C26.8719 20.1257 26.7145 20.2358 26.5571 20.346C25.9275 20.7867 25.3137 21.2274 24.6842 21.6681C24.4324 21.8412 24.2907 22.1874 24.4796 22.4707C24.637 22.7226 25.0147 22.8799 25.2823 22.6753C25.8174 22.2976 26.3525 21.9199 26.8876 21.5422C27.1552 21.3533 27.407 21.1644 27.6745 20.9913C28.0051 20.771 28.2883 20.5191 28.2726 20.0784C28.2726 19.7637 28.131 19.4489 28.0523 19.1499C27.9736 18.8508 27.8791 18.5518 27.769 18.2685C27.5644 17.6704 27.344 17.0881 27.1079 16.5215C26.8404 15.8919 26.5414 15.2781 26.2266 14.6801C26.0849 14.4125 25.6757 14.3023 25.4239 14.4755C25.1406 14.6486 25.0619 14.9948 25.2193 15.2781V15.2939Z" fill="#231F20"/>
<path d="M21.5053 25.4135C19.3491 28.1993 17.9326 31.6775 17.9011 35.2345C17.9011 36.2418 18.0113 37.2648 18.2316 38.2406C18.4048 38.9803 19.538 38.6655 19.3648 37.9258C18.389 33.7236 19.9472 29.3325 22.5126 26.0116C22.7014 25.7598 22.5441 25.3506 22.308 25.2089C22.0089 25.0358 21.6942 25.1617 21.5053 25.4135Z" fill="#231F20"/>
<path d="M19.7894 37.4067C19.4116 39.2324 19.7894 41.1997 20.8753 42.7264C21.1744 43.1513 21.5206 43.5448 21.9141 43.891C22.1502 44.0956 22.5279 44.1428 22.7483 43.891C22.9529 43.6707 23.0001 43.2772 22.7483 43.0569C22.5909 42.9152 22.4492 42.7736 22.3076 42.6319C22.2446 42.569 22.1817 42.4903 22.1187 42.4116C22.0872 42.3644 22.0557 42.3329 22.0243 42.2857C22.0715 42.3486 22.0243 42.2699 22.0085 42.2542C21.7567 41.9237 21.5521 41.5617 21.379 41.184C21.3632 41.1367 21.3475 41.1053 21.316 41.058C21.2531 40.9164 21.3318 41.1053 21.3003 41.0108C21.2688 40.9164 21.2216 40.822 21.1901 40.7118C21.1272 40.5072 21.0642 40.3183 21.017 40.1137C21.0013 40.0193 20.9698 39.9249 20.954 39.8304C20.954 39.7832 20.9383 39.7203 20.9226 39.673C20.9226 39.6416 20.9226 39.5157 20.8911 39.4999C20.8911 39.4999 20.8911 39.6101 20.8911 39.5471C20.8911 39.5314 20.8911 39.4999 20.8911 39.4842C20.8911 39.437 20.8911 39.374 20.8911 39.3268C20.8911 39.2166 20.8911 39.1222 20.8753 39.012C20.8753 38.7759 20.8753 38.5556 20.8753 38.3195C20.8753 38.2566 20.8753 38.1936 20.8911 38.1464C20.8911 38.1306 20.8911 38.0992 20.8911 38.0834C20.8911 38.0047 20.8753 38.2251 20.8911 38.0834C20.9068 37.9575 20.9226 37.8473 20.954 37.7372C21.017 37.4381 20.8596 37.0919 20.5448 37.0132C20.2458 36.9502 19.8838 37.1076 19.8208 37.4224L19.7894 37.4067Z" fill="#231F20"/>
<path d="M22.1824 42.1911C22.4971 43.702 23.7562 44.7408 25.0783 45.4176C25.7865 45.7795 26.542 46.1415 27.3132 46.3619C28.0844 46.5822 28.8871 46.6609 29.6897 46.7239C30.5711 46.7868 31.4682 46.834 32.3496 46.9914C32.6644 47.0544 32.9791 46.897 33.0736 46.5822C33.1523 46.2989 32.9791 45.9212 32.6644 45.8582C31.2007 45.5749 29.6898 45.6536 28.226 45.3546C27.5021 45.2129 26.841 44.9454 26.18 44.6306C25.5505 44.3316 24.9052 44.0168 24.3858 43.5604C23.8664 43.104 23.473 42.5531 23.3313 41.8763C23.2683 41.5616 22.9064 41.3884 22.6073 41.4671C22.2768 41.5616 22.1352 41.8763 22.1981 42.1911H22.1824Z" fill="#231F20"/>
</svg>
