<svg width="80" height="77" viewBox="0 0 80 77" fill="none" xmlns="http://www.w3.org/2000/svg">
<path d="M52.3791 56.5964C52.8198 55.416 52.7411 54.1097 52.93 52.8506C53.2605 50.7259 54.4409 48.554 56.3768 47.4995C57.384 46.9486 58.5959 46.807 59.7134 46.8542C61.2243 46.9171 61.3817 46.9014 60.9253 48.0975C60.2957 49.7658 60.217 51.261 60.1698 53.0395C60.1226 54.6291 59.8708 56.3604 58.7376 57.4778C58.0451 58.1703 57.0693 58.548 56.4082 59.2878C56.1092 59.6025 55.8889 59.9803 55.6056 60.3108C54.1419 61.9319 51.1358 61.6801 49.5934 60.2478C48.6176 59.335 48.6333 58.8786 49.6563 58.5008C50.9154 58.0287 51.7968 58.1546 52.3791 56.5964Z" fill="#F39B4A"/>
<path d="M55.6221 54.1884C55.5434 54.1097 55.4647 54.031 55.4175 53.9523C55.2129 53.6376 55.1342 53.2598 55.1184 52.8821C55.1027 52.0794 55.3545 51.2925 55.6693 50.5528C55.386 50.8675 55.0555 51.1508 54.7092 51.3869C54.3945 51.5915 53.8908 51.7332 53.6705 51.4184C53.576 51.2925 53.576 51.1194 53.5918 50.9462C53.7492 49.5297 55.2129 48.1447 56.409 47.4995C57.4163 46.9486 58.6282 46.807 59.7456 46.8542C61.2566 46.9171 61.4139 46.9014 60.9575 48.0975C60.5326 49.2465 60.3437 50.4583 60.265 51.686C60.2178 52.4414 60.4381 53.433 60.0447 54.1255C59.541 55.0226 58.3449 54.7707 57.9829 53.8422C57.794 53.3543 57.857 52.8034 57.9357 52.284C57.7153 52.709 57.6209 53.1811 57.4163 53.6061C57.2117 54.031 56.834 54.4245 56.3618 54.456C56.0942 54.456 55.8424 54.3615 55.6378 54.1727L55.6221 54.1884Z" fill="#A05715"/>
<path d="M50.9945 61.4447C51.3407 61.8067 51.7971 61.9956 52.285 62.0585C52.7729 62.1215 53.2766 62.0585 53.7487 61.9169C54.0006 61.8382 54.2524 61.7437 54.4885 61.6493C54.6301 61.5863 54.756 61.5234 54.8347 61.3817C54.9134 61.2558 54.9449 61.067 54.8977 60.9253C54.8504 60.7837 54.756 60.642 54.6301 60.5791C54.5042 60.5161 54.3153 60.4689 54.1737 60.5161C53.7487 60.6892 53.3081 60.8466 52.8516 60.9253H53.009C52.7887 60.9253 52.5841 60.9253 52.3637 60.9096H52.5211C52.3637 60.9096 52.2063 60.8624 52.0647 60.8152L52.2063 60.8781C52.0804 60.8309 51.9703 60.7679 51.8601 60.6735L51.986 60.7679C51.986 60.7679 51.8758 60.6735 51.8443 60.6263C51.624 60.4059 51.2148 60.3902 51.0102 60.6263C50.8056 60.8624 50.7741 61.2244 51.0102 61.4604L50.9945 61.4447Z" fill="#231F20"/>
<path d="M55.0392 59.8539C55.055 59.9326 55.1022 60.0113 55.1337 60.09C55.1337 60.1215 55.1651 60.1529 55.1809 60.1844C55.2281 60.2631 55.2753 60.3261 55.3383 60.389C55.354 60.4205 55.3855 60.4362 55.417 60.4677C55.4799 60.5307 55.5429 60.5779 55.6216 60.6251C55.653 60.6408 55.6845 60.6723 55.716 60.6881C55.7947 60.7353 55.8734 60.7668 55.9521 60.7982C55.9836 60.7982 56.015 60.8297 56.0622 60.8297C56.1567 60.8454 56.2511 60.8612 56.3298 60.8769C56.377 60.8769 56.4085 60.8769 56.4557 60.8769C56.5344 60.8769 56.6131 60.8769 56.6761 60.8297C56.7548 60.7982 56.8177 60.7668 56.8649 60.7038C56.9279 60.6566 56.9594 60.5936 56.9908 60.5149C57.0223 60.452 57.0381 60.3733 57.0381 60.2946V60.1372C56.9908 60.0428 56.9436 59.9483 56.8649 59.8696L56.739 59.7752C56.6446 59.728 56.5502 59.6965 56.44 59.6965C56.3928 59.6965 56.3298 59.6965 56.2826 59.6965H56.44C56.44 59.6965 56.2983 59.6965 56.2354 59.665L56.377 59.728C56.377 59.728 56.2511 59.665 56.1882 59.6178L56.3141 59.7123C56.3141 59.7123 56.2039 59.6178 56.1724 59.5706L56.2669 59.6965C56.2669 59.6965 56.1882 59.5863 56.1567 59.5234L56.2196 59.665C56.2196 59.665 56.2039 59.6021 56.1882 59.5706C56.1724 59.4919 56.1409 59.429 56.078 59.366C56.0308 59.3031 55.9836 59.2558 55.9049 59.2086C55.8419 59.1614 55.7632 59.1457 55.6845 59.1457C55.6058 59.1299 55.5271 59.1457 55.4484 59.1457L55.3068 59.2086C55.2124 59.2558 55.1494 59.3345 55.1022 59.4132L55.0392 59.5549C55.0078 59.665 55.0078 59.7595 55.0392 59.8696V59.8539Z" fill="#231F20"/>
<path d="M57.0849 59.3031C58.5486 58.5004 59.5873 57.1312 60.2012 55.6045C60.9251 53.8103 60.9566 51.9216 61.051 50.0172C61.0983 49.1988 61.2399 48.2073 61.9954 47.7194C62.6249 47.3102 62.0426 46.2872 61.3973 46.6964C59.729 47.7823 59.9179 49.8756 59.8077 51.6226C59.6975 53.3696 59.3513 55.1166 58.3597 56.5803C57.8718 57.2885 57.2423 57.8866 56.4868 58.2958C55.8258 58.6578 56.4081 59.6808 57.0849 59.3188V59.3031Z" fill="#231F20"/>
<path d="M51.7498 58.3435C53.2922 57.6195 53.481 55.7781 53.5282 54.2829C53.5755 52.7877 53.7486 51.1981 54.567 49.876C54.9605 49.2465 55.4956 48.7114 56.1566 48.3494C56.8176 47.9874 56.2353 46.9644 55.5585 47.3264C54.2365 48.0503 53.3394 49.3409 52.8672 50.7417C52.5997 51.5286 52.4737 52.3627 52.3951 53.1969C52.3164 54.0311 52.3951 54.8023 52.2534 55.5892C52.1275 56.2974 51.8285 56.9742 51.1517 57.289C50.8684 57.4306 50.7897 57.8398 50.9471 58.0916C51.1202 58.3907 51.4665 58.4379 51.7498 58.2963V58.3435Z" fill="#231F20"/>
<path d="M57.5108 47.5781C57.9043 47.4207 58.3292 47.3105 58.7542 47.2475H58.5968C59.0847 47.2003 59.5569 47.2003 60.0448 47.2633H59.8874C60.2021 47.279 60.5169 47.3577 60.8317 47.4679C61.1465 47.5781 61.4927 47.3577 61.5557 47.0587C61.6344 46.7282 61.4612 46.4291 61.1465 46.3347C59.8874 45.9097 58.4394 45.957 57.196 46.4449C57.0544 46.5078 56.9285 46.5708 56.8498 46.7124C56.7711 46.8383 56.7396 47.0272 56.7868 47.1688C56.8341 47.3105 56.9285 47.4521 57.0544 47.5151C57.1803 47.5781 57.3692 47.6253 57.5108 47.5781Z" fill="#231F20"/>
<path d="M33.4448 62.972C31.2099 61.9805 29.4472 59.9345 28.8648 57.5579C28.2825 55.1814 28.8963 52.5215 30.5174 50.6958C32.7681 48.1619 36.4194 47.5008 39.7875 47.1546C40.9679 47.0444 42.2113 46.95 43.313 47.3907C44.2101 47.7527 44.9341 48.4452 45.6423 49.1062C46.9014 50.3023 48.1763 51.53 49.0104 53.0566C50.2223 55.2915 50.3482 58.093 49.3252 60.4223C49.0419 61.0519 48.6799 61.6657 48.1448 62.1064C47.6884 62.4684 47.1375 62.7045 46.5709 62.8776C44.6823 63.4599 42.6677 63.5229 40.7004 63.5858C38.2609 63.6645 35.7742 63.995 33.4606 62.972H33.4448Z" fill="#F39B4A"/>
<path d="M37.8832 60.7841C37.6471 60.611 37.2064 60.5638 36.5139 60.611C36.0417 60.6582 33.7282 61.3035 33.5078 60.6425C33.7754 61.3979 33.3347 61.996 33.8855 62.7829C34.2947 63.3495 34.8771 63.6486 35.5696 63.743C35.8686 63.7902 36.1677 63.8217 36.4667 63.743C36.9861 63.6328 37.3953 63.2236 37.6314 62.7515C38.135 61.7284 38.3239 61.0674 37.8989 60.7684L37.8832 60.7841Z" fill="#A05715"/>
<path d="M40.9209 60.5641C40.6848 61.4612 40.6376 62.374 40.8265 63.0036C41.2672 64.546 43.266 64.2312 44.3205 63.6646C45.2333 63.161 45.737 61.713 45.737 60.3438C44.1474 60.5798 42.542 60.7057 40.9209 60.5798V60.5641Z" fill="#A05715"/>
<path d="M28.739 46.7137C28.2039 47.5321 27.7632 48.445 27.716 49.4208C27.5743 51.8918 29.9666 53.8591 32.3904 54.3785C32.3904 54.1109 32.3904 53.8276 32.3746 53.5601C35.2548 54.0165 37.836 56.0468 38.9534 58.7381C39.52 57.117 40.7476 55.732 42.29 54.9451C43.7223 54.2211 45.4535 53.985 46.571 52.8518C46.4608 53.1036 46.7441 53.4027 47.0274 53.3869C47.3107 53.3712 47.5468 53.1823 47.7671 53.0092C49.3252 51.6872 51.0093 50.0818 50.9778 48.0358C50.9778 47.2961 50.7102 46.5721 50.3325 45.9268C48.5226 42.779 44.4305 41.9291 40.8263 41.5357C35.8371 41.0006 31.5719 42.3698 28.7547 46.7452L28.739 46.7137Z" fill="white"/>
<path d="M32.6738 59.0042C32.7053 59.98 32.7997 60.9715 33.0043 61.9159C33.1775 62.75 33.5867 63.5999 34.3894 63.9934C34.8143 64.198 35.255 64.2767 35.7114 64.2924C36.1364 64.2924 36.6085 64.2609 37.0177 64.1665C37.5056 64.0563 37.9306 63.7573 38.1666 63.3166C38.3713 62.9389 38.4657 62.5139 38.5286 62.089C38.7018 60.9873 38.749 59.8698 38.6231 58.7524C38.6073 58.595 38.5759 58.4533 38.4499 58.3274C38.3398 58.2173 38.1824 58.1543 38.025 58.1543C37.7417 58.1543 37.3954 58.4219 37.4269 58.7524C37.5214 59.6337 37.5214 60.5151 37.4269 61.3965C37.4269 61.4594 37.4269 61.5066 37.4112 61.5696C37.4112 61.6011 37.4112 61.6168 37.4112 61.6483C37.4112 61.5381 37.4112 61.7427 37.4112 61.6483C37.3954 61.7585 37.3797 61.8686 37.364 61.9788C37.3325 62.1519 37.301 62.3408 37.2538 62.5139C37.2538 62.5611 37.2223 62.5926 37.2066 62.6398C37.2066 62.6556 37.2066 62.6713 37.1908 62.6871C37.1751 62.75 37.2223 62.6241 37.2223 62.6241C37.1908 62.6556 37.1908 62.7028 37.1751 62.7343C37.1594 62.7815 37.1279 62.813 37.0964 62.8602C37.0964 62.8602 37.0807 62.8917 37.0649 62.9074C37.0649 62.9074 37.1436 62.813 37.0964 62.8602C37.0649 62.8917 37.0335 62.9231 37.002 62.9546C37.0807 62.9074 37.002 62.9546 36.9862 62.9546C36.9548 62.9703 36.8761 63.0018 36.8603 63.0176C36.8918 62.9704 36.9548 62.9861 36.8918 63.0176C36.8761 63.0176 36.8603 63.0176 36.8289 63.0333C36.7816 63.0333 36.7344 63.0648 36.6872 63.0648C36.64 63.0648 36.6085 63.0805 36.5613 63.0963C36.5298 63.0963 36.5141 63.0963 36.4826 63.0963C36.4039 63.0963 36.4826 63.0963 36.5141 63.0963C36.4354 63.1277 36.3252 63.112 36.2465 63.1277C36.1521 63.1277 36.0734 63.1277 35.979 63.1435C35.8058 63.1435 35.617 63.1435 35.4438 63.1435C35.4281 63.1435 35.4124 63.1435 35.3809 63.1435C35.3179 63.1435 35.4438 63.1435 35.4438 63.1435C35.3966 63.1435 35.3494 63.1435 35.3179 63.1277C35.2235 63.112 35.1291 63.0805 35.0504 63.049C35.0189 63.049 34.9874 63.0176 34.9402 63.0176C34.9402 63.0176 35.0661 63.0805 34.9717 63.0176C34.9559 63.0176 34.9402 63.0018 34.9245 62.9861C34.8458 62.9389 34.7671 62.8917 34.7041 62.8444C34.6412 62.7972 34.7828 62.9231 34.7356 62.8602C34.7356 62.8602 34.7041 62.8287 34.6884 62.8287C34.6569 62.7972 34.6254 62.7657 34.594 62.7343C34.5625 62.7028 34.5467 62.6871 34.5153 62.6556C34.4523 62.5769 34.5153 62.6398 34.5153 62.6556C34.468 62.5926 34.4366 62.5297 34.3894 62.451C34.3736 62.4195 34.3421 62.3723 34.3264 62.3408C34.3264 62.3251 34.3264 62.3093 34.3107 62.2936C34.3893 62.4195 34.3421 62.3565 34.3107 62.3093C34.2477 62.1519 34.2005 61.9788 34.1533 61.8057C34.1061 61.6011 34.0746 61.4122 34.0431 61.2076C34.0274 61.0817 34.0116 60.9715 33.9959 60.8456C33.9959 60.8299 33.9801 60.7197 33.9959 60.7984C34.0116 60.8771 33.9959 60.7669 33.9959 60.7512C33.9959 60.6882 33.9801 60.6253 33.9801 60.5623C33.9172 60.0587 33.8857 59.555 33.87 59.0357C33.87 58.7209 33.6024 58.4376 33.2719 58.4376C32.9414 58.4376 32.6738 58.6894 32.6738 59.0357V59.0042Z" fill="#231F20"/>
<path d="M44.8395 59.0043C44.8395 59.4607 44.7923 59.9014 44.745 60.3578C44.745 60.468 44.7293 60.5624 44.7136 60.6726C44.7136 60.7041 44.7136 60.7198 44.7136 60.7513C44.7136 60.8143 44.6978 60.8772 44.6821 60.9402C44.6506 61.129 44.6191 61.3179 44.5876 61.5225C44.5562 61.6956 44.509 61.8688 44.4617 62.0419C44.4303 62.1206 44.4145 62.1993 44.383 62.278L44.3516 62.3409C44.3516 62.3409 44.3988 62.2307 44.3673 62.278C44.3516 62.3252 44.3201 62.3724 44.3044 62.4039C44.2729 62.4668 44.2257 62.5455 44.1784 62.6085C44.1784 62.6242 44.147 62.6557 44.1312 62.6714C44.1312 62.6714 44.2099 62.577 44.1627 62.6242C44.1312 62.6557 44.0997 62.7029 44.0683 62.7344C44.0368 62.7659 44.0211 62.7816 43.9896 62.8131C43.9738 62.8288 43.9581 62.8446 43.9266 62.8603C43.8794 62.9075 43.9738 62.8288 43.9738 62.8288C43.8951 62.8603 43.8322 62.9232 43.7535 62.9705C43.7378 62.9705 43.5961 63.0492 43.6905 63.0019C43.7692 62.9705 43.6433 63.0019 43.6276 63.0177C43.5489 63.0492 43.4545 63.0649 43.3758 63.0806C43.3286 63.0806 43.2813 63.0806 43.2499 63.0964C43.1869 63.0964 43.3128 63.0964 43.3128 63.0964H43.2341C43.1397 63.0964 43.061 63.0964 42.9666 63.0964C42.7777 63.0964 42.6046 63.0964 42.4157 63.0806C42.337 63.0806 42.2426 63.0649 42.1639 63.0492C42.1009 63.0492 42.2268 63.0492 42.2268 63.0492C42.1954 63.0492 42.1639 63.0492 42.1481 63.0492C42.1009 63.0492 42.038 63.0334 41.9908 63.0177C41.9435 63.0177 41.9121 63.0019 41.8648 62.9862C41.8334 62.9862 41.8176 62.9705 41.7862 62.9547C41.7704 62.9547 41.7389 62.9233 41.7232 62.9075C41.7075 62.9075 41.6917 62.8918 41.676 62.876C41.613 62.8446 41.7547 62.9547 41.7075 62.9075C41.676 62.876 41.6445 62.8446 41.613 62.8131C41.5658 62.7501 41.5343 62.6714 41.4871 62.5927C41.4556 62.5298 41.5186 62.6557 41.5186 62.6557C41.5186 62.64 41.5029 62.6085 41.4871 62.5927C41.4871 62.5613 41.4714 62.5298 41.4556 62.4826C41.4242 62.3881 41.4084 62.3094 41.3927 62.215C41.3455 62.0104 41.314 61.8058 41.2825 61.6012C41.2825 61.5382 41.2825 61.6327 41.2825 61.6327C41.2825 61.6012 41.2825 61.5697 41.2825 61.5382C41.2825 61.4753 41.2825 61.4123 41.2668 61.3494C41.2668 61.2235 41.2353 61.0976 41.2353 60.9716C41.2196 60.7198 41.2038 60.4837 41.2038 60.2319C41.2038 59.7283 41.2196 59.2246 41.2825 58.7367C41.314 58.422 40.9835 58.1387 40.6844 58.1387C40.3382 58.1387 40.1336 58.4062 40.0864 58.7367C39.9762 59.6968 39.9919 60.6569 40.1178 61.6169C40.2438 62.577 40.3854 63.6315 41.3612 64.0407C41.7862 64.2138 42.2583 64.261 42.699 64.2768C43.1239 64.2925 43.5646 64.2768 43.9738 64.1351C44.3988 63.9935 44.7923 63.7574 45.0755 63.3954C45.3588 63.0334 45.5477 62.6242 45.6579 62.1993C45.7995 61.6956 45.8625 61.1605 45.9254 60.6411C45.9884 60.0903 46.0356 59.5552 46.0514 59.0043C46.0514 58.6895 45.7681 58.4062 45.4533 58.4062C45.1228 58.4062 44.8709 58.6581 44.8552 59.0043H44.8395Z" fill="#231F20"/>
<path d="M34.6875 62.1357C34.6875 62.2458 34.6875 62.356 34.719 62.4819C34.719 62.5606 34.7505 62.6393 34.7662 62.718C34.7977 62.8282 34.8449 62.9383 34.8921 63.0328C34.9236 63.1115 34.9708 63.1744 35.018 63.2531C35.0495 63.3003 35.081 63.3318 35.1124 63.3633C35.1439 63.3948 35.1911 63.4262 35.2541 63.4262C35.3013 63.442 35.3643 63.442 35.4115 63.4262C35.4587 63.4262 35.5059 63.4105 35.5531 63.379C35.6318 63.3318 35.7105 63.2374 35.7263 63.1429C35.742 63.0485 35.742 62.9226 35.679 62.8439C35.6161 62.7652 35.5689 62.6708 35.5374 62.5763L35.5846 62.6708C35.5217 62.5449 35.4902 62.4032 35.4744 62.2616V62.3717C35.4744 62.3717 35.4744 62.2143 35.4744 62.1357C35.4744 62.0884 35.4744 62.0255 35.443 61.9783C35.4272 61.9311 35.3957 61.8838 35.3643 61.8524C35.3328 61.8209 35.2856 61.7894 35.2384 61.7737C35.1911 61.7422 35.1439 61.7422 35.081 61.7422C34.9865 61.7422 34.8764 61.7737 34.7977 61.8524C34.719 61.9311 34.6875 62.0255 34.6875 62.1357Z" fill="#231F20"/>
<path d="M35.9943 62.5133L36.1359 63.3002C36.1359 63.3002 36.1674 63.3947 36.1989 63.4419C36.2304 63.4891 36.2619 63.5206 36.3091 63.5363C36.3563 63.5678 36.4035 63.5835 36.4507 63.5835C36.4979 63.5835 36.5609 63.5835 36.6081 63.5835L36.7025 63.5363C36.7025 63.5363 36.8127 63.4576 36.8442 63.3947L36.8914 63.3002C36.8914 63.3002 36.9071 63.1586 36.8914 63.0956L36.7498 62.3087C36.7498 62.3087 36.7183 62.2143 36.6868 62.167C36.6553 62.1198 36.6238 62.0883 36.5766 62.0726C36.5294 62.0411 36.4822 62.0254 36.435 62.0254C36.3878 62.0254 36.3248 62.0254 36.2776 62.0254L36.1832 62.0726C36.1832 62.0726 36.073 62.1513 36.0415 62.2143L35.9943 62.3087C35.9943 62.3087 35.9786 62.4503 35.9943 62.5133Z" fill="#231F20"/>
<path d="M41.8968 62.042C41.8653 62.1522 41.8496 62.2624 41.8496 62.3726C41.8496 62.4512 41.8496 62.5299 41.8496 62.6244C41.8496 62.7345 41.8811 62.8447 41.9126 62.9549C41.944 63.0651 41.9913 63.1752 42.0385 63.2697C42.0699 63.3169 42.1014 63.3484 42.1329 63.3798C42.1644 63.4113 42.2116 63.4428 42.2746 63.4428C42.3218 63.4585 42.3847 63.4585 42.4319 63.4428C42.4792 63.4428 42.5264 63.427 42.5736 63.3956C42.6523 63.3484 42.731 63.2539 42.7467 63.1595V63.0493C42.7467 63.0493 42.7467 62.9077 42.6995 62.8447C42.6995 62.829 42.6838 62.8132 42.668 62.7818L42.7152 62.8762C42.668 62.766 42.6365 62.6558 42.6208 62.5299V62.6401C42.6208 62.5142 42.6208 62.404 42.6208 62.2781V62.3883C42.6208 62.3883 42.6208 62.2781 42.6365 62.2309C42.6523 62.1837 42.6523 62.1207 42.6365 62.0735C42.6365 62.0263 42.6208 61.9791 42.5893 61.9319C42.5579 61.8846 42.5264 61.8532 42.4949 61.8217C42.4634 61.7902 42.4162 61.7587 42.3532 61.7587C42.2588 61.743 42.1329 61.743 42.0542 61.806C41.9755 61.8689 41.8968 61.9476 41.8811 62.042H41.8968Z" fill="#231F20"/>
<path d="M43.1715 62.3728C43.1715 62.3728 43.1872 62.4672 43.2029 62.4987V62.3885C43.2029 62.5144 43.2029 62.6403 43.2029 62.7505V62.6403C43.2029 62.7662 43.1715 62.8764 43.1243 62.9866L43.1715 62.8922C43.1715 62.8922 43.1557 62.9394 43.14 62.9551C43.1085 63.0023 43.0928 63.0495 43.0928 63.0968C43.0928 63.144 43.0928 63.2069 43.0928 63.2541C43.0928 63.3014 43.1243 63.3486 43.1557 63.3958C43.1872 63.443 43.2187 63.4745 43.2659 63.4902C43.3603 63.5374 43.4705 63.5689 43.5649 63.5374C43.6594 63.506 43.7538 63.443 43.801 63.3643C43.8482 63.2699 43.8955 63.1597 43.9269 63.0495C43.9584 62.9394 43.9741 62.8292 43.9899 62.719C43.9899 62.6403 43.9899 62.5616 43.9899 62.483C43.9899 62.3728 43.9741 62.2626 43.9427 62.1524C43.9427 62.1052 43.9112 62.058 43.8797 62.0108C43.8482 61.9636 43.8168 61.9321 43.7695 61.9164C43.7223 61.8849 43.6751 61.8691 43.6279 61.8691C43.5807 61.8691 43.5177 61.8691 43.4705 61.8691C43.3761 61.9006 43.2816 61.9636 43.2344 62.0423L43.1872 62.1367C43.1872 62.1367 43.1715 62.2783 43.1872 62.3413L43.1715 62.3728Z" fill="#231F20"/>
<path d="M34.3107 41.3307C31.8082 42.1806 29.4474 43.7544 28.0624 46.0523C27.5588 46.9022 27.1968 47.8465 27.1338 48.838C27.0551 50.0657 27.5116 51.372 28.1411 52.395C28.9595 53.7013 30.2186 54.7243 31.7295 55.0548C32.4693 55.2122 32.784 54.079 32.0443 53.9216C29.8881 53.4495 28.267 51.1988 28.2985 49.0112C28.2985 48.6334 28.3457 48.3974 28.4716 47.9724C28.5975 47.5475 28.7392 47.2484 28.9595 46.8392C29.4632 45.9421 30.1399 45.1867 30.9269 44.5256C31.9971 43.6128 33.2877 42.936 34.6255 42.4796C35.3337 42.2435 35.0347 41.0946 34.3107 41.3464V41.3307Z" fill="#231F20"/>
<path d="M32.1546 52.1429C32.0602 53.1816 32.8786 54.0945 33.76 54.5352C34.2479 54.7713 34.7673 54.9286 35.2866 55.1018C35.4126 55.1332 35.5227 55.1805 35.6486 55.2277C35.7116 55.2434 35.7588 55.2749 35.806 55.2906C35.8375 55.2906 35.8532 55.3064 35.8847 55.3221C35.7588 55.2592 35.9477 55.3536 35.8847 55.3221C36.0893 55.4165 36.2782 55.511 36.4513 55.6369C36.4671 55.6369 36.4985 55.6684 36.5143 55.6841C36.53 55.6841 36.6087 55.7628 36.5457 55.6998C36.5772 55.7156 36.6087 55.7471 36.6244 55.7785C36.7031 55.8572 36.7818 55.9359 36.8605 56.0303C36.9235 56.109 36.8448 55.9989 36.829 55.9989C36.829 56.0304 36.8763 56.0618 36.892 56.0933C36.9235 56.1405 36.955 56.1877 36.9864 56.2507C36.9864 56.2664 37.0022 56.2979 37.0179 56.3136C37.0651 56.4081 36.9864 56.2192 37.0179 56.2822C37.0336 56.3451 37.0651 56.4081 37.0809 56.471C37.1596 56.7701 37.5058 56.9747 37.8048 56.8802C38.1039 56.7858 38.2927 56.471 38.2141 56.1563C37.9622 55.149 37.0494 54.5352 36.1365 54.1732C35.6644 53.9843 35.1922 53.8741 34.7201 53.701C34.6728 53.6853 34.6099 53.6538 34.5627 53.6381C34.4525 53.5908 34.5784 53.6381 34.5784 53.6381C34.5784 53.6381 34.5154 53.6066 34.4997 53.6066C34.3895 53.5594 34.2636 53.4964 34.1535 53.4335C34.0748 53.3862 33.9803 53.3233 33.9016 53.2761C33.8072 53.2131 33.9331 53.2918 33.9331 53.2918C33.9331 53.2918 33.8702 53.2446 33.8544 53.2289C33.8072 53.1974 33.7757 53.1502 33.7285 53.1187C33.6813 53.0715 33.6341 53.0243 33.6026 52.977C33.6026 52.9613 33.5711 52.9298 33.5554 52.9141C33.5869 52.9613 33.6498 53.0085 33.5554 52.9141C33.4924 52.8196 33.4452 52.7252 33.3823 52.6308C33.3193 52.5206 33.4137 52.741 33.3823 52.6623C33.3823 52.6308 33.3665 52.5993 33.3508 52.5836C33.335 52.5206 33.3193 52.4734 33.3036 52.4104C33.2878 52.3475 33.3193 52.3632 33.3036 52.4577C33.3036 52.4262 33.3036 52.379 33.3036 52.3475C33.3036 52.2845 33.3036 52.2216 33.3036 52.1586C33.335 51.8438 33.0203 51.5605 32.7055 51.5605C32.3592 51.5605 32.1389 51.8281 32.1074 52.1586L32.1546 52.1429Z" fill="#231F20"/>
<path d="M40.4811 57.2266C40.6542 57.0062 40.8588 56.8016 41.0634 56.6128C41.1106 56.5656 41.1736 56.5183 41.2208 56.4711C41.2523 56.4554 41.2837 56.4239 41.2995 56.4082C41.4096 56.3295 41.5355 56.2508 41.6457 56.1721C41.8818 56.0147 42.1336 55.8888 42.3854 55.7629C42.5114 55.6999 42.6215 55.6527 42.7474 55.5898C42.8104 55.5583 42.8733 55.5268 42.952 55.4953C42.8733 55.5268 43.0307 55.4638 42.952 55.4953C42.9993 55.4796 43.0307 55.4638 43.0779 55.4481C44.2426 54.9759 45.5804 54.6926 46.5405 53.827C47.0913 53.3234 47.4533 52.6309 47.4691 51.8754C47.4691 51.5606 47.2015 51.2773 46.871 51.2773C46.5405 51.2773 46.2886 51.5292 46.2729 51.8754C46.2729 51.9069 46.2572 52.1115 46.2729 51.9856C46.2729 52.0485 46.2572 52.1115 46.2414 52.1587C46.2257 52.2059 46.21 52.2689 46.1785 52.3318C46.147 52.442 46.1785 52.3633 46.1785 52.3318C46.1627 52.3791 46.147 52.4105 46.1155 52.4577C46.084 52.505 46.0526 52.5679 46.0211 52.6151C46.0054 52.6466 45.9739 52.6781 45.9581 52.7096C45.9581 52.6938 46.0211 52.6309 45.9581 52.7096C45.8637 52.8197 45.7693 52.9299 45.6591 53.0243C45.6276 53.0401 45.6119 53.0716 45.5804 53.0873C45.5174 53.1345 45.4702 53.166 45.4073 53.1975C45.2814 53.2762 45.1397 53.3549 44.9981 53.4335C44.9194 53.465 44.8564 53.4965 44.7777 53.528C44.7463 53.5437 44.699 53.5595 44.6676 53.5752C44.5259 53.6382 44.3685 53.6854 44.2111 53.7483C43.1409 54.1418 42.0392 54.5038 41.0634 55.1176C40.5125 55.4638 39.9932 55.8731 39.5997 56.3767C39.4108 56.6128 39.3479 56.9748 39.5997 57.2108C39.82 57.4154 40.2292 57.4627 40.4338 57.2108L40.4811 57.2266Z" fill="#231F20"/>
<path d="M48.3022 53.6538C50.1909 52.3633 51.9694 50.3644 51.9064 47.9407C51.8435 45.5169 49.9706 43.581 47.8773 42.5738C46.5395 41.9285 45.1073 41.5507 43.6751 41.2045C42.9353 41.0156 42.6206 42.1646 43.3603 42.3377C45.485 42.8728 47.7829 43.4237 49.3567 45.0447C50.0335 45.7372 50.5529 46.6186 50.6945 47.5944C50.8362 48.5702 50.5529 49.4516 50.0807 50.2385C49.4984 51.2143 48.6485 52.0013 47.7042 52.6308C47.4366 52.8039 47.3264 53.1502 47.4996 53.4335C47.657 53.701 48.0347 53.827 48.3022 53.6381V53.6538Z" fill="#231F20"/>
<path d="M28.2202 53.6528C27.8739 56.5172 28.0785 59.6807 30.2032 61.8684C30.7069 62.3878 31.3049 62.8284 31.9817 63.1117C32.2807 63.2376 32.6113 63.2062 32.7844 62.9071C32.926 62.6553 32.8631 62.2304 32.5798 62.1045C31.5096 61.648 30.7384 60.8768 30.1875 59.8696C29.5737 58.7679 29.3061 57.4615 29.2746 56.1552C29.2589 55.3211 29.3219 54.4869 29.4163 53.6528C29.4478 53.338 29.1173 53.0547 28.8182 53.0547C28.472 53.0547 28.2674 53.3222 28.2202 53.6528Z" fill="#231F20"/>
<path d="M46.9332 63.0191C48.4284 62.783 49.6088 61.7285 50.1754 60.3593C50.4429 59.6982 50.6003 59.0057 50.6947 58.2975C50.8049 57.542 50.8679 56.7866 50.8207 56.0311C50.7577 55.1497 50.5531 54.2998 50.1439 53.5286C49.9865 53.2453 49.6088 53.1667 49.3412 53.324C49.0579 53.4972 48.9792 53.8434 49.1366 54.1267C49.7347 55.2442 49.7504 56.5662 49.593 57.8253C49.4514 58.9742 49.1681 60.2806 48.3182 61.099C47.8618 61.5397 47.2952 61.7915 46.6341 61.8859C46.3194 61.9331 46.1462 62.3266 46.2249 62.6099C46.3194 62.9404 46.6341 63.0663 46.9489 63.0191H46.9332Z" fill="#231F20"/>
<path d="M21.1064 28.502C21.1222 29.5408 20.9805 30.4851 20.5084 31.272C18.9817 33.7745 18.3679 36.8436 18.8243 39.7552C18.8873 40.1959 18.9974 40.6366 19.2807 40.9671C19.564 41.2976 20.0834 41.455 20.4297 41.1874C20.1464 41.4078 20.7602 43.6899 20.8861 43.9889C21.2796 44.9647 21.9248 45.8619 22.7275 46.5229C22.8062 46.2868 22.8849 46.0507 22.9636 45.8304C24.7106 47.7033 27.3075 48.3643 29.747 48.9624C33.9492 49.9697 38.2302 50.9927 42.5268 50.552C45.0293 50.3002 47.4688 49.5605 49.8454 48.6791C51.4979 48.081 53.2135 47.3413 54.2207 45.8776C54.4253 46.0665 54.6299 46.2396 54.8503 46.4284C55.889 44.949 56.613 43.2335 56.9593 41.4393C57.1481 41.8957 57.8249 41.5022 58.0452 41.0458C59.6349 37.9138 58.659 33.9791 56.7389 31.0517C56.5343 30.7369 56.314 30.4221 56.2038 30.0602C56.0307 29.4936 56.1094 28.8798 56.1881 28.2974C56.8019 23.5128 56.4399 18.5866 55.1336 13.9594C54.929 13.2512 54.504 12.3856 53.7958 12.4485C53.4495 12.48 53.1662 12.7161 52.9144 12.9522C49.987 15.6592 47.5318 18.9014 45.7061 22.4741C45.7061 22.4741 39.1115 21.9075 38.4348 21.9547C36.2943 22.0806 33.9178 22.0806 31.856 22.6315C31.6829 22.6787 31.4783 22.7259 31.3209 22.6315C31.2264 22.5685 31.1635 22.4741 31.1005 22.3639C30.0303 20.5382 29.2119 18.5709 28.1574 16.7452C27.3232 15.2972 24.0968 10.2923 22.3655 13.141C20.7759 15.7694 20.3667 19.0588 20.351 22.1121C20.351 23.985 21.0749 26.393 21.1222 28.502H21.1064Z" fill="#F39B4A"/>
<path d="M33.9972 38.1491C33.0057 39.0619 32.502 40.683 33.2103 41.8477C34.6897 44.2399 38.2309 44.1455 40.6075 43.8937C43.5664 43.5789 45.6282 40.7145 42.9211 38.1648C40.4973 35.8827 36.4525 35.8669 33.9972 38.1491Z" fill="white"/>
<path d="M27.8115 21.9871C27.4653 20.728 26.6468 17.9894 25.3563 17.3756C23.4991 16.4785 23.4519 20.7909 23.4676 22.0973C23.4676 23.0888 23.5306 24.0961 23.6565 25.0876C23.688 25.1348 23.7037 25.1663 23.7352 25.2135C23.7509 25.245 23.7666 25.2607 23.7824 25.2765C23.7981 25.2922 23.8139 25.3237 23.8453 25.3394C23.8926 25.3867 24.0027 25.4811 23.987 25.4653C24.0342 25.4968 24.0972 25.5283 24.1444 25.5598C24.1759 25.5598 24.2231 25.5755 24.2545 25.5913C24.286 25.5913 24.3018 25.5913 24.3175 25.5913C24.349 25.5913 24.3805 25.5913 24.4119 25.5913C24.5221 25.5913 24.6165 25.5913 24.711 25.5913C24.5221 25.607 24.7424 25.5755 24.8684 25.544C25.6081 25.0089 26.3635 24.4895 27.0875 23.923C27.3708 23.7026 27.8272 23.4036 27.9532 23.0416C28.0633 22.7425 27.8902 22.2704 27.7958 21.9556L27.8115 21.9871Z" fill="white"/>
<path d="M52.741 25.779C52.8354 25.7318 52.9141 25.7003 53.0086 25.6373C53.0558 25.6059 53.0872 25.5744 53.1345 25.5429C53.1502 25.4485 53.1817 25.3698 53.1974 25.2753C53.2919 24.8032 53.3863 24.1422 53.4178 23.8746C53.6853 21.6397 53.7325 19.751 52.9928 17.6263C52.9299 17.4532 52.8669 17.2643 52.7253 17.1384C52.5049 16.9338 52.1587 16.9181 51.8911 17.0597C50.5218 17.7837 49.7821 20.8528 49.3572 22.2378C48.9165 23.6857 51.655 25.2281 52.6466 25.779C52.678 25.779 52.6938 25.779 52.7253 25.7632L52.741 25.779Z" fill="white"/>
<path d="M31.2424 28.503C31.0535 28.4085 30.8489 28.3613 30.6286 28.3613C30.2194 28.3771 29.7944 28.5187 29.5111 28.8335C29.2278 29.1483 29.0547 29.5417 29.0547 29.9824V31.9655C29.0547 32.3747 29.2278 32.8154 29.5111 33.1144C29.6528 33.2718 29.8259 33.382 30.0148 33.4449C30.2036 33.5394 30.4082 33.5866 30.6286 33.5866C31.0378 33.5708 31.4627 33.4292 31.746 33.1144C32.0293 32.7997 32.2024 32.4062 32.2024 31.9655V29.9824C32.2024 29.5732 32.0293 29.1325 31.746 28.8335C31.6044 28.6761 31.4312 28.5659 31.2424 28.503Z" fill="#A05715"/>
<path d="M47.4851 29.5723C47.4851 29.3519 47.4536 29.1473 47.3434 28.9427C47.2805 28.7381 47.1703 28.565 47.0129 28.4233C46.8713 28.2659 46.6981 28.1558 46.5093 28.0928C46.3204 27.9984 46.1158 27.9512 45.8955 27.9512C45.4863 27.9669 45.0613 28.1086 44.778 28.4233C44.6993 28.5335 44.6206 28.6437 44.5262 28.7538C44.3846 29.0057 44.3059 29.2732 44.3059 29.5723C44.2586 30.2805 44.2744 30.973 44.3531 31.6813C44.3531 31.9016 44.3846 32.1062 44.4947 32.3108C44.5577 32.5154 44.6678 32.6885 44.8252 32.8302C44.9669 32.9876 45.14 33.0977 45.3289 33.1607C45.5177 33.2551 45.7223 33.3023 45.9427 33.3023C46.3519 33.2866 46.7768 33.145 47.0601 32.8302C47.1388 32.72 47.2175 32.6098 47.312 32.4997C47.4536 32.2478 47.5323 31.9803 47.5323 31.6813C47.4536 30.9887 47.4379 30.2805 47.4851 29.5723Z" fill="#A05715"/>
<path d="M34.972 22.4747C34.8618 22.5061 34.7674 22.5376 34.6572 22.5691C34.909 24.7725 35.1609 26.9917 35.4284 29.1951C35.6645 31.068 36.2468 34.8768 39.0011 34.3102C41.3619 33.8223 41.6137 30.5014 41.8026 28.6128C42.0072 26.551 42.1331 24.4892 42.1961 22.4117C39.851 22.0655 37.3013 21.9081 34.9563 22.4589L34.972 22.4747Z" fill="#A05715"/>
<path d="M30.4867 37.9305C31.3386 37.9305 32.0291 37.2399 32.0291 36.3881C32.0291 35.5363 31.3386 34.8457 30.4867 34.8457C29.6349 34.8457 28.9443 35.5363 28.9443 36.3881C28.9443 37.2399 29.6349 37.9305 30.4867 37.9305Z" fill="#231F20"/>
<path d="M46.4926 37.9305C47.3444 37.9305 48.035 37.2399 48.035 36.3881C48.035 35.5363 47.3444 34.8457 46.4926 34.8457C45.6408 34.8457 44.9502 35.5363 44.9502 36.3881C44.9502 37.2399 45.6408 37.9305 46.4926 37.9305Z" fill="#231F20"/>
<path d="M38.4973 39.0164C39.2622 39.0164 39.8823 38.6289 39.8823 38.1508C39.8823 37.6727 39.2622 37.2852 38.4973 37.2852C37.7324 37.2852 37.1123 37.6727 37.1123 38.1508C37.1123 38.6289 37.7324 39.0164 38.4973 39.0164Z" fill="#231F20"/>
<path d="M30.9114 23.4664C35.6173 22.3332 40.5592 22.3017 45.2809 23.3877C46.0206 23.5608 46.3353 22.4119 45.5956 22.2545C40.6694 21.1213 35.5228 21.1528 30.5966 22.3332C29.8569 22.5063 30.1717 23.6553 30.9114 23.4664Z" fill="#231F20"/>
<path d="M47.0587 21.9862C47.8299 20.2864 48.7427 18.6495 49.8129 17.1229C50.3638 16.3359 50.9461 15.5962 51.5599 14.8722C52.1108 14.2427 52.6774 13.4558 53.4329 13.0623C53.6847 12.9206 54.0152 12.8105 54.2355 13.0465C54.5188 13.3298 54.6605 13.8492 54.8021 14.2112C55.1326 15.0768 55.3845 15.974 55.5733 16.8868C55.951 18.744 56.0297 20.6641 55.9668 22.5527C55.9038 24.709 55.6677 26.8494 55.4159 28.9899C55.3845 29.3047 55.715 29.5722 56.014 29.588C56.3603 29.588 56.5649 29.3204 56.6121 28.9899C57.1 24.8506 57.5564 20.6169 56.7065 16.5091C56.5019 15.4861 56.1871 14.4788 55.7937 13.503C55.4474 12.6688 55.0225 11.7402 53.968 11.7402C53.0079 11.7402 52.2052 12.4327 51.5914 13.0938C50.8989 13.8177 50.2536 14.5889 49.6398 15.3916C48.2076 17.2488 46.9957 19.2634 46.0356 21.4038C45.9097 21.7029 45.9569 22.0334 46.2402 22.2065C46.4921 22.3639 46.917 22.2852 47.0429 22.0019L47.0587 21.9862Z" fill="#231F20"/>
<path d="M50.7415 17.7051C50.1592 18.7911 49.6713 19.9243 49.2778 21.0732C49.0732 21.6398 48.9001 22.2221 48.7427 22.8202C48.6483 23.2294 48.7427 23.6072 49.0732 23.859C49.325 24.0636 49.6083 24.2367 49.8759 24.4256C50.474 24.8505 51.0878 25.2755 51.6859 25.7004C51.9377 25.8735 52.3469 25.7476 52.4885 25.4958C52.6459 25.1968 52.5515 24.882 52.2839 24.6931C51.6544 24.2524 51.0406 23.8118 50.411 23.3711C50.2536 23.2609 50.0962 23.1507 49.9389 23.0406C49.9074 23.0091 49.8602 22.9933 49.8287 22.9619C49.75 22.9147 49.75 22.8989 49.8129 22.9619C49.7185 22.8674 49.75 22.9304 49.8759 23.1507C49.8759 23.2137 49.8759 23.2137 49.8759 23.1507C49.9861 22.8202 50.0648 22.474 50.1592 22.1277C50.5841 20.7742 51.0878 19.5623 51.7488 18.3189C51.8905 18.0514 51.8275 17.6579 51.5442 17.5163C51.2767 17.3746 50.8989 17.4376 50.7415 17.7209V17.7051Z" fill="#231F20"/>
<path d="M54.4563 29.0205C57.0217 32.3571 58.5798 36.7325 57.604 40.9348C57.4309 41.6745 58.5641 41.9892 58.7372 41.2495C59.5556 37.7398 58.7844 34.0727 57.1004 30.9407C56.6282 30.0593 56.0774 29.2251 55.4636 28.4225C55.2747 28.1706 54.9599 28.029 54.6609 28.2179C54.4091 28.3595 54.2517 28.7687 54.4563 29.0205Z" fill="#231F20"/>
<path d="M56.0614 40.7319C56.0771 40.8264 56.0928 40.9208 56.1086 41.0152C56.1086 41.0467 56.1086 41.0782 56.1086 41.1097C56.1086 41.1726 56.1086 41.0625 56.1086 41.0625C56.1086 41.0625 56.1243 41.2198 56.1243 41.2356C56.1401 41.4402 56.1558 41.6448 56.1558 41.8337C56.1558 42.0225 56.1558 42.2586 56.1243 42.4632C56.1243 42.4789 56.1243 42.5104 56.1243 42.5262C56.1243 42.6206 56.1086 42.5262 56.1243 42.5104C56.1243 42.5104 56.1086 42.6206 56.1086 42.6363C56.0928 42.7465 56.0771 42.8567 56.0456 42.9668C55.9984 43.1714 55.9512 43.3603 55.8882 43.5492C55.8568 43.6436 55.8253 43.7538 55.7938 43.8482C55.7938 43.8954 55.7623 43.9269 55.7466 43.9741C55.7466 43.9899 55.7308 44.0213 55.7151 44.0371C55.6836 44.1 55.7623 43.9426 55.7151 44.0371C55.542 44.4148 55.3531 44.7768 55.117 45.1073C55.0856 45.1545 55.0541 45.2017 55.0069 45.249C55.0069 45.249 54.9754 45.2962 54.9596 45.2962C55.0069 45.2332 55.0069 45.2647 54.9596 45.2962C54.8967 45.3749 54.818 45.4693 54.7393 45.548C54.5819 45.7211 54.4088 45.8942 54.2357 46.0359C53.9996 46.2405 54.0153 46.6654 54.2357 46.8701C54.4875 47.1061 54.818 47.0904 55.0698 46.8701C56.4706 45.6582 57.2732 43.801 57.3362 41.9596C57.3519 41.4244 57.3047 40.8893 57.1945 40.37C57.1316 40.0709 56.7539 39.8663 56.4706 39.9607C56.1558 40.0709 55.9984 40.37 56.0614 40.6847V40.7319Z" fill="#231F20"/>
<path d="M53.669 44.8869C53.4014 46.1774 52.2525 46.9486 51.135 47.5467C49.9231 48.1762 48.6011 48.6012 47.2476 48.9002C46.8698 48.9947 46.4764 49.0576 46.0986 49.1363C45.9098 49.1678 45.7366 49.1993 45.5478 49.2307C45.3432 49.2622 45.2173 49.278 45.0756 49.2937C44.7608 49.3409 44.4775 49.5298 44.4775 49.8918C44.4775 50.1751 44.7451 50.5213 45.0756 50.4898C46.5551 50.301 48.0188 50.0177 49.4352 49.5455C50.8517 49.0734 52.2997 48.4438 53.4329 47.4523C54.0939 46.8699 54.629 46.0987 54.8021 45.2331C54.8651 44.9183 54.7077 44.5878 54.3929 44.5091C54.0939 44.4304 53.7319 44.6036 53.669 44.9183V44.8869Z" fill="#231F20"/>
<path d="M31.1158 21.3881C30.2659 19.5152 29.2429 17.721 28.031 16.0527C27.4172 15.2028 26.7561 14.3844 26.0479 13.5975C25.4341 12.905 24.7888 12.1652 23.8917 11.8505C22.9316 11.5042 22.066 11.9449 21.641 12.842C21.2161 13.7391 20.8856 14.6992 20.6338 15.6592C20.1144 17.6581 19.957 19.7513 19.9727 21.8131C19.9885 24.2054 20.256 26.5977 20.5393 28.9742C20.5708 29.289 20.7912 29.5566 21.1374 29.5723C21.4207 29.5723 21.767 29.3047 21.7355 28.9742C21.2948 25.2127 20.8384 21.3409 21.4522 17.5794C21.6096 16.6665 21.8142 15.7537 22.1132 14.8723C22.2549 14.4474 22.4122 14.0224 22.6011 13.6132C22.727 13.3142 22.8687 12.8892 23.2621 12.905C24.0176 12.9207 24.6786 13.8178 25.135 14.3215C25.7803 15.0297 26.3784 15.7537 26.945 16.5249C28.1884 18.2247 29.2586 20.0504 30.1242 21.9705C30.2501 22.2695 30.6751 22.3325 30.9269 22.1751C31.2259 22.002 31.2732 21.6557 31.1315 21.3724L31.1158 21.3881Z" fill="#231F20"/>
<path d="M25.3863 18.3041C26.0473 19.5632 26.551 20.7594 26.9759 22.1129C27.0861 22.4434 27.149 22.8054 27.2592 23.1359C27.2592 23.1989 27.2749 23.2146 27.2592 23.1359C27.4008 22.9156 27.4166 22.8526 27.3222 22.9471C27.3851 22.8998 27.3694 22.8998 27.3064 22.9471C27.2749 22.9785 27.2277 22.9943 27.1962 23.0257C27.0389 23.1359 26.8815 23.2461 26.7241 23.3563C26.0945 23.7969 25.4807 24.2376 24.8512 24.6783C24.5994 24.8514 24.4577 25.1977 24.6466 25.481C24.804 25.7328 25.1817 25.8902 25.4492 25.6856C25.9844 25.3079 26.5195 24.9301 27.0546 24.5524C27.3222 24.3635 27.574 24.1747 27.8415 24.0015C28.172 23.7812 28.4553 23.5294 28.4396 23.0887C28.4396 22.7739 28.298 22.4592 28.2193 22.1601C28.1406 21.8611 28.0461 21.562 27.936 21.2787C27.7314 20.6807 27.511 20.0983 27.2749 19.5317C27.0074 18.9022 26.7083 18.2884 26.3936 17.6903C26.2519 17.4228 25.8427 17.3126 25.5909 17.4857C25.3076 17.6588 25.2289 18.0051 25.3863 18.2884V18.3041Z" fill="#231F20"/>
<path d="M21.6725 28.4233C19.5163 31.209 18.0998 34.6873 18.0684 38.2443C18.0684 39.2515 18.1785 40.2746 18.3989 41.2504C18.572 41.9901 19.7052 41.6753 19.5321 40.9356C18.5563 36.7333 20.1144 32.3422 22.6798 29.0214C22.8687 28.7695 22.7113 28.3603 22.4752 28.2187C22.1762 28.0456 21.8614 28.1715 21.6725 28.4233Z" fill="#231F20"/>
<path d="M19.9568 40.4169C19.5791 42.2426 19.9568 44.2099 21.0428 45.7366C21.3419 46.1616 21.6881 46.555 22.0816 46.9013C22.3177 47.1059 22.6954 47.1531 22.9157 46.9013C23.1203 46.6809 23.1676 46.2875 22.9157 46.0671C22.7583 45.9255 22.6167 45.7838 22.475 45.6422C22.4121 45.5792 22.3491 45.5005 22.2862 45.4218C22.2547 45.3746 22.2232 45.3431 22.1917 45.2959C22.239 45.3589 22.1917 45.2802 22.176 45.2644C21.9242 44.9339 21.7196 44.5719 21.5465 44.1942C21.5307 44.147 21.515 44.1155 21.4835 44.0683C21.4205 43.9267 21.4992 44.1155 21.4678 44.0211C21.4363 43.9267 21.3891 43.8322 21.3576 43.722C21.2946 43.5174 21.2317 43.3286 21.1845 43.124C21.1687 43.0295 21.1373 42.9351 21.1215 42.8407C21.1215 42.7935 21.1058 42.7305 21.09 42.6833C21.09 42.6518 21.09 42.5259 21.0586 42.5102C21.0586 42.5102 21.0586 42.6203 21.0586 42.5574C21.0586 42.5416 21.0586 42.5102 21.0586 42.4944C21.0586 42.4472 21.0586 42.3843 21.0586 42.337C21.0586 42.2269 21.0586 42.1324 21.0428 42.0223C21.0428 41.7862 21.0428 41.5658 21.0428 41.3298C21.0428 41.2668 21.0428 41.2038 21.0586 41.1566C21.0586 41.1409 21.0586 41.1094 21.0586 41.0937C21.0428 41.2353 21.0586 41.015 21.0586 41.0937C21.0743 40.9678 21.09 40.8576 21.1215 40.7474C21.1845 40.4484 21.0271 40.1021 20.7123 40.0234C20.4133 39.9605 20.0513 40.1179 19.9883 40.4327L19.9568 40.4169Z" fill="#231F20"/>
<path d="M22.3496 45.2019C22.6644 46.7128 23.9235 47.7515 25.2455 48.4283C25.9538 48.7903 26.7092 49.1523 27.4804 49.3726C28.2516 49.593 29.0543 49.6717 29.857 49.7346C30.7384 49.7976 31.6355 49.8448 32.5168 50.0022C32.8316 50.0651 33.1464 49.9077 33.2408 49.593C33.3195 49.3097 33.1464 48.9319 32.8316 48.869C31.3679 48.5857 29.857 48.6644 28.3933 48.3653C27.6693 48.2237 27.0083 47.9561 26.3472 47.6414C25.7177 47.3423 25.0724 47.0275 24.553 46.5711C24.0337 46.1147 23.6402 45.5638 23.4985 44.8871C23.4356 44.5723 23.0736 44.3992 22.7746 44.4779C22.444 44.5723 22.3024 44.8871 22.3653 45.2019H22.3496Z" fill="#231F20"/>
</svg>
