<svg width="80" height="76" viewBox="0 0 80 76" fill="none" xmlns="http://www.w3.org/2000/svg">
<path d="M55.2588 42.5338C54.3303 43.6314 53.7637 45.0269 53.2285 46.3753C52.5833 48.0374 51.9222 49.6838 51.2769 51.3458C51.0251 52.0044 50.6474 52.757 49.9549 52.8668C48.9633 46.7516 45.6582 39.9309 39.2998 37.971C37.3482 37.3751 35.1605 37.9082 33.4607 39.0529C31.9655 40.072 31.3674 41.4989 30.4231 42.9101C29.1798 44.7289 27.8262 46.2656 27.0393 48.3667C26.1737 50.6716 26.0005 53.3215 26.9763 55.5794C29.0538 60.4244 35.1447 61.0203 39.6932 60.7851C41.2199 60.7067 42.6364 60.5185 44.0843 60.0324C45.1231 59.6875 46.1304 59.076 47.1377 58.7624C47.4052 58.684 47.6885 58.7624 47.9561 58.8094C51.6704 59.6091 55.9671 58.0568 57.6983 54.6856C57.9502 54.1995 58.1548 53.6821 58.4381 53.2117C58.7056 52.757 59.0676 52.3493 59.3981 51.9417C60.1221 51.0322 60.7359 50.0444 61.3497 49.0566C61.7275 48.4607 62.1052 47.8492 62.2468 47.175C62.4042 46.4224 62.2626 45.6541 62.1367 44.9171C61.9163 43.6627 61.6173 42.2986 60.6415 41.4832C59.3037 40.37 57.179 40.7933 55.8727 41.9379C55.6681 42.1261 55.4635 42.3299 55.2903 42.5338H55.2588Z" fill="white"/>
<path d="M30.8796 55.7364C30.9111 56.7085 31.0056 57.6963 31.2102 58.6371C31.3833 59.4681 31.7925 60.3149 32.5952 60.7069C33.0201 60.9107 33.4608 60.9891 33.9172 61.0048C34.3422 61.0048 34.8143 60.9734 35.2235 60.8793C35.7114 60.7696 36.1364 60.4717 36.3725 60.0326C36.5771 59.6563 36.6715 59.233 36.7345 58.8096C36.9076 57.712 36.9548 56.5987 36.8289 55.4855C36.8131 55.3287 36.7817 55.1876 36.6558 55.0621C36.5456 54.9524 36.3882 54.8896 36.2308 54.8896C35.9475 54.8896 35.6013 55.1562 35.6327 55.4855C35.7272 56.3635 35.7272 57.2416 35.6327 58.1197C35.6327 58.1824 35.6327 58.2294 35.617 58.2922C35.617 58.3235 35.617 58.3392 35.617 58.3706C35.617 58.4646 35.617 58.2608 35.617 58.3706C35.6013 58.4803 35.5855 58.5901 35.5698 58.6998C35.5383 58.8723 35.5068 59.0605 35.4596 59.2329C35.4596 59.28 35.4281 59.3114 35.4124 59.3584C35.4124 59.3741 35.4124 59.3897 35.3967 59.4054C35.3809 59.4681 35.4281 59.3427 35.4281 59.3427C35.3967 59.3741 35.3967 59.4211 35.3809 59.4525C35.3652 59.4995 35.3337 59.5309 35.3022 59.5779C35.3022 59.5779 35.2865 59.6093 35.2707 59.6249C35.2707 59.6249 35.3494 59.5309 35.3022 59.5779C35.2707 59.6093 35.2393 59.6406 35.2078 59.672C35.2865 59.6249 35.2078 59.672 35.1921 59.672C35.1606 59.6877 35.0819 59.719 35.0661 59.7347C35.0976 59.6877 35.1606 59.7033 35.0976 59.7347C35.0819 59.7347 35.0661 59.7347 35.0347 59.7504C34.9875 59.7504 34.9402 59.7817 34.893 59.7817C34.8458 59.7817 34.8143 59.7974 34.7671 59.8131C34.7356 59.8131 34.7199 59.8131 34.6884 59.8131C34.6097 59.8131 34.6884 59.8131 34.7199 59.8131C34.6412 59.8445 34.531 59.8288 34.4523 59.8445C34.3579 59.8445 34.2792 59.8445 34.1848 59.8601C34.0116 59.8601 33.8228 59.8601 33.6497 59.8601C33.6339 59.8601 33.6182 59.8601 33.5867 59.8601C33.5237 59.8601 33.6497 59.8601 33.6497 59.8601C33.6024 59.8601 33.5552 59.8601 33.5237 59.8445C33.4293 59.8288 33.3349 59.7974 33.2562 59.7661C33.2247 59.7661 33.1932 59.7347 33.146 59.7347C33.146 59.7347 33.2719 59.7974 33.1775 59.7347C33.1618 59.7347 33.146 59.719 33.1303 59.7033C33.0516 59.6563 32.9729 59.6093 32.9099 59.5622C32.847 59.5152 32.9886 59.6406 32.9414 59.5779C32.9414 59.5779 32.9099 59.5465 32.8942 59.5465C32.8627 59.5152 32.8312 59.4838 32.7998 59.4525C32.7683 59.4211 32.7525 59.4054 32.7211 59.3741C32.7211 59.3584 32.6581 59.2957 32.7211 59.3741C32.6739 59.3113 32.6424 59.2486 32.5952 59.1702C32.5794 59.1389 32.5479 59.0918 32.5322 59.0605C32.5322 59.0448 32.5322 59.0291 32.5165 59.0134C32.5952 59.1389 32.5479 59.0762 32.5165 59.0291C32.4535 58.8723 32.4063 58.6998 32.3591 58.5274C32.3119 58.3235 32.2804 58.1354 32.2489 57.9315C32.2332 57.8061 32.2174 57.6963 32.2017 57.5709C32.2017 57.5552 32.186 57.4455 32.2017 57.5238C32.2174 57.6022 32.2017 57.4925 32.2017 57.4768C32.2017 57.4141 32.186 57.3514 32.186 57.2887C32.123 56.7869 32.0915 56.2851 32.0758 55.7677C32.0758 55.4541 31.8082 55.1719 31.4777 55.1719C31.1472 55.1719 30.8796 55.4228 30.8796 55.7677V55.7364Z" fill="#231F20"/>
<path d="M43.0458 55.7364C43.0458 56.1911 42.9986 56.6302 42.9513 57.0849C42.9513 57.1946 42.9356 57.2887 42.9199 57.3985C42.9199 57.4298 42.9199 57.4455 42.9199 57.4769C42.9199 57.5396 42.9041 57.6023 42.8884 57.665C42.8569 57.8532 42.8254 58.0413 42.7939 58.2452C42.7625 58.4177 42.7153 58.5901 42.668 58.7626C42.6366 58.841 42.6208 58.9194 42.5893 58.9978L42.5579 59.0605C42.5579 59.0605 42.6051 58.9508 42.5736 58.9978C42.5579 59.0449 42.5264 59.0919 42.5107 59.1232C42.4792 59.186 42.432 59.2644 42.3847 59.3271C42.3847 59.3428 42.3533 59.3741 42.3375 59.3898C42.3375 59.3898 42.4162 59.2957 42.369 59.3428C42.3375 59.3741 42.306 59.4212 42.2746 59.4525C42.2431 59.4839 42.2274 59.4996 42.1959 59.5309C42.1801 59.5466 42.1644 59.5623 42.1329 59.578C42.0857 59.625 42.1801 59.5466 42.1801 59.5466C42.1014 59.578 42.0385 59.6407 41.9598 59.6877C41.9441 59.6877 41.8024 59.7661 41.8968 59.7191C41.9755 59.6877 41.8496 59.7191 41.8339 59.7348C41.7552 59.7661 41.6608 59.7818 41.5821 59.7975C41.5348 59.7975 41.4876 59.7975 41.4562 59.8132C41.3932 59.8132 41.5191 59.8132 41.5191 59.8132H41.4404C41.346 59.8132 41.2673 59.8132 41.1729 59.8132C40.984 59.8132 40.8109 59.8132 40.622 59.7975C40.5433 59.7975 40.4489 59.7818 40.3702 59.7661C40.3072 59.7661 40.4331 59.7661 40.4331 59.7661C40.4017 59.7661 40.3702 59.7661 40.3544 59.7661C40.3072 59.7661 40.2443 59.7504 40.1971 59.7348C40.1498 59.7348 40.1184 59.7191 40.0711 59.7034C40.0397 59.7034 40.0239 59.6877 39.9925 59.672C39.9767 59.672 39.9452 59.6407 39.9295 59.625C39.9138 59.625 39.898 59.6093 39.8823 59.5936C39.8193 59.5623 39.961 59.672 39.9138 59.625C39.8823 59.5936 39.8508 59.5623 39.8193 59.5309C39.7721 59.4682 39.7406 59.3898 39.6934 59.3114C39.6619 59.2487 39.7249 59.3741 39.7249 59.3741C39.7249 59.3584 39.7092 59.3271 39.6934 59.3114C39.6934 59.2801 39.6777 59.2487 39.6619 59.2017C39.6305 59.1076 39.6147 59.0292 39.599 58.9351C39.5518 58.7313 39.5203 58.5274 39.4888 58.3236C39.4888 58.2609 39.4888 58.3549 39.4888 58.3549C39.4888 58.3236 39.4888 58.2922 39.4888 58.2609C39.4888 58.1981 39.4888 58.1354 39.4731 58.0727C39.4731 57.9473 39.4416 57.8218 39.4416 57.6964C39.4259 57.4455 39.4101 57.2103 39.4101 56.9594C39.4101 56.4577 39.4259 55.9559 39.4888 55.4699C39.5203 55.1563 39.1898 54.874 38.8907 54.874C38.5445 54.874 38.3399 55.1406 38.2927 55.4699C38.1825 56.4263 38.1982 57.3828 38.3241 58.3393C38.4501 59.2957 38.5917 60.3463 39.5675 60.7539C39.9925 60.9264 40.4646 60.9735 40.9053 60.9891C41.3302 61.0048 41.7709 60.9891 42.1801 60.848C42.6051 60.7069 42.9986 60.4717 43.2818 60.1111C43.5651 59.7504 43.754 59.3428 43.8642 58.9194C44.0058 58.4177 44.0688 57.8845 44.1317 57.3671C44.1947 56.8183 44.2419 56.2852 44.2576 55.7364C44.2576 55.4228 43.9744 55.1406 43.6596 55.1406C43.3291 55.1406 43.0772 55.3915 43.0615 55.7364H43.0458Z" fill="#231F20"/>
<path d="M32.8943 58.8568C32.8943 58.9666 32.8943 59.0764 32.9258 59.2018C32.9258 59.2802 32.9572 59.3586 32.973 59.437C33.0045 59.5467 33.0517 59.6565 33.0989 59.7506C33.1304 59.829 33.1776 59.8917 33.2248 59.9701C33.2563 60.0171 33.2878 60.0485 33.3192 60.0799C33.3507 60.1112 33.3979 60.1426 33.4609 60.1426C33.5081 60.1583 33.5711 60.1583 33.6183 60.1426C33.6655 60.1426 33.7127 60.1269 33.7599 60.0955C33.8386 60.0485 33.9173 59.9544 33.933 59.8603C33.9488 59.7663 33.9488 59.6408 33.8858 59.5624C33.8229 59.484 33.7757 59.39 33.7442 59.2959L33.7914 59.39C33.7284 59.2645 33.697 59.1234 33.6812 58.9823V59.092C33.6812 59.092 33.6812 58.9352 33.6812 58.8568C33.6812 58.8098 33.6812 58.7471 33.6497 58.7C33.634 58.653 33.6025 58.606 33.5711 58.5746C33.5396 58.5432 33.4924 58.5119 33.4451 58.4962C33.3979 58.4648 33.3507 58.4648 33.2878 58.4648C33.1933 58.4648 33.0832 58.4962 33.0045 58.5746C32.9258 58.653 32.8943 58.7471 32.8943 58.8568Z" fill="#231F20"/>
<path d="M34.2006 59.2175L34.3422 60.0015C34.3422 60.0015 34.3737 60.0956 34.4052 60.1426C34.4367 60.1897 34.4682 60.221 34.5154 60.2367C34.5626 60.2681 34.6098 60.2837 34.657 60.2837C34.7042 60.2837 34.7672 60.2837 34.8144 60.2837L34.9088 60.2367C34.9088 60.2367 35.019 60.1583 35.0505 60.0956L35.0977 60.0015C35.0977 60.0015 35.1134 59.8604 35.0977 59.7977L34.9561 59.0137C34.9561 59.0137 34.9246 58.9196 34.8931 58.8726C34.8616 58.8255 34.8301 58.7942 34.7829 58.7785C34.7357 58.7471 34.6885 58.7314 34.6413 58.7314C34.5941 58.7314 34.5311 58.7314 34.4839 58.7314L34.3895 58.7785C34.3895 58.7785 34.2793 58.8569 34.2478 58.9196L34.2006 59.0137C34.2006 59.0137 34.1849 59.1548 34.2006 59.2175Z" fill="#231F20"/>
<path d="M40.1026 58.747C40.0712 58.8568 40.0554 58.9665 40.0554 59.0763C40.0554 59.1547 40.0554 59.2331 40.0554 59.3272C40.0554 59.4369 40.0869 59.5467 40.1184 59.6564C40.1499 59.7662 40.1971 59.8759 40.2443 59.97C40.2758 60.0171 40.3072 60.0484 40.3387 60.0798C40.3702 60.1111 40.4174 60.1425 40.4804 60.1425C40.5276 60.1582 40.5905 60.1582 40.6378 60.1425C40.685 60.1425 40.7322 60.1268 40.7794 60.0955C40.8581 60.0484 40.9368 59.9543 40.9525 59.8603V59.7505C40.9525 59.7505 40.9525 59.6094 40.9053 59.5467C40.9053 59.531 40.8896 59.5153 40.8738 59.4839L40.9211 59.578C40.8738 59.4683 40.8424 59.3585 40.8266 59.2331V59.3428C40.8266 59.2174 40.8266 59.1076 40.8266 58.9822V59.092C40.8266 59.092 40.8266 58.9822 40.8424 58.9352C40.8581 58.8881 40.8581 58.8254 40.8424 58.7784C40.8424 58.7313 40.8266 58.6843 40.7951 58.6372C40.7637 58.5902 40.7322 58.5588 40.7007 58.5275C40.6692 58.4961 40.622 58.4648 40.5591 58.4648C40.4646 58.4491 40.3387 58.4491 40.26 58.5118C40.1813 58.5745 40.1026 58.6529 40.0869 58.747H40.1026Z" fill="#231F20"/>
<path d="M41.3773 59.0921C41.3773 59.0921 41.393 59.1862 41.4088 59.2175V59.1078C41.4088 59.2332 41.4088 59.3586 41.4088 59.4684V59.3586C41.4088 59.4841 41.3773 59.5938 41.3301 59.7036L41.3773 59.6095C41.3773 59.6095 41.3615 59.6566 41.3458 59.6722C41.3143 59.7193 41.2986 59.7663 41.2986 59.8134C41.2986 59.8604 41.2986 59.9231 41.2986 59.9702C41.2986 60.0172 41.3301 60.0642 41.3615 60.1113C41.393 60.1583 41.4245 60.1897 41.4717 60.2054C41.5661 60.2524 41.6763 60.2838 41.7707 60.2524C41.8652 60.221 41.9596 60.1583 42.0068 60.0799C42.054 59.9858 42.1013 59.8761 42.1327 59.7663C42.1642 59.6566 42.18 59.5468 42.1957 59.437C42.1957 59.3586 42.1957 59.2802 42.1957 59.2018C42.1957 59.0921 42.18 58.9823 42.1485 58.8726C42.1485 58.8255 42.117 58.7785 42.0855 58.7315C42.054 58.6844 42.0226 58.6531 41.9754 58.6374C41.9281 58.606 41.8809 58.5903 41.8337 58.5903C41.7865 58.5903 41.7235 58.5903 41.6763 58.5903C41.5819 58.6217 41.4874 58.6844 41.4402 58.7628L41.393 58.8569C41.393 58.8569 41.3773 58.998 41.393 59.0607L41.3773 59.0921Z" fill="#231F20"/>
<path d="M30.2974 42.5025C28.3615 44.7761 26.8348 47.3789 25.7961 50.1699C25.497 50.9696 25.1036 51.9104 25.4341 52.7571C25.5443 53.055 25.8276 53.2589 26.1581 53.1648C26.4414 53.0864 26.6932 52.7414 26.5673 52.4435C26.4099 52.0515 26.5201 51.6595 26.646 51.2675C26.7876 50.8442 26.945 50.4208 27.1024 50.0131C27.4172 49.2135 27.7792 48.4452 28.1884 47.6768C29.0068 46.1245 29.9826 44.6663 31.1315 43.3335C31.3361 43.0983 31.3676 42.7377 31.1315 42.5025C30.9269 42.2987 30.502 42.2516 30.2974 42.5025Z" fill="#231F20"/>
<path d="M26.095 55.4385L26.8977 54.6859L27.1338 54.4663C27.1338 54.4663 27.2282 54.3566 27.2597 54.2782C27.2912 54.2155 27.3069 54.1371 27.3069 54.0587C27.3069 53.9803 27.3069 53.9019 27.2597 53.8392C27.2282 53.7608 27.1968 53.698 27.1338 53.651L27.0079 53.5569C26.9135 53.5099 26.819 53.4785 26.7088 53.4785H26.5515C26.457 53.5256 26.3626 53.5726 26.2839 53.651L25.4812 54.4036L25.2451 54.6231C25.2451 54.6231 25.1507 54.7329 25.1192 54.8113C25.0878 54.874 25.072 54.9524 25.072 55.0308C25.072 55.1092 25.072 55.1876 25.1192 55.2503C25.1507 55.3287 25.1822 55.3915 25.2451 55.4385L25.3711 55.5326C25.4655 55.5796 25.5599 55.611 25.6701 55.611H25.8275C25.9219 55.5639 26.0163 55.5169 26.095 55.4385Z" fill="#231F20"/>
<path d="M26.8663 55.4229C26.7089 55.6268 26.5673 55.8463 26.4571 56.0658C26.3154 56.3324 26.2053 56.6146 26.1108 56.9125C26.0636 57.0536 26.0321 57.1948 26.0007 57.3359C25.9692 57.4143 25.9692 57.4927 26.0007 57.5711C26.0007 57.6495 26.0321 57.7279 26.0636 57.7906C26.1423 57.916 26.2682 58.0258 26.4099 58.0571C26.5673 58.0885 26.7246 58.0885 26.8663 57.9944C26.9922 57.916 27.1024 57.7906 27.1338 57.6495C27.1968 57.3516 27.2755 57.0693 27.3857 56.8028L27.3227 56.9439C27.4644 56.6146 27.6375 56.301 27.8578 56.0188C27.905 55.956 27.9208 55.8776 27.9208 55.7992C27.9365 55.7209 27.9208 55.6424 27.9208 55.5641C27.8893 55.4229 27.7791 55.2818 27.6532 55.2191C27.5116 55.1407 27.3542 55.1093 27.1968 55.1564L27.0552 55.2191C26.9607 55.2661 26.8978 55.3445 26.8506 55.4229H26.8663Z" fill="#231F20"/>
<path d="M27.5902 57.8691C27.842 58.2924 28.1568 58.6844 28.5345 59.0137C28.9595 59.3743 29.4159 59.6409 29.9353 59.829C30.1714 59.9231 30.4232 59.9858 30.675 60.0329C30.8324 60.0642 30.9898 60.0642 31.1314 59.9702C31.2573 59.8918 31.3675 59.7663 31.399 59.6252C31.4305 59.4684 31.4305 59.3116 31.336 59.1705C31.2573 59.0451 31.1314 58.9196 30.9898 58.9039C30.6907 58.8569 30.3917 58.7628 30.1242 58.6531L30.2658 58.7158C29.951 58.5903 29.6677 58.4179 29.4002 58.214L29.5261 58.3081C29.2585 58.1043 29.0224 57.8691 28.8178 57.6182L28.9123 57.7436C28.8021 57.6025 28.7077 57.4614 28.629 57.3203C28.5503 57.1948 28.4244 57.0851 28.2827 57.0537C28.1411 57.0224 27.9522 57.038 27.8263 57.1164C27.5587 57.2889 27.4486 57.6339 27.6217 57.9161L27.5902 57.8691Z" fill="#231F20"/>
<path d="M45.6111 42.7224C46.1619 43.6318 46.6813 44.5569 47.1849 45.4977C47.4368 45.9838 47.7043 46.4699 47.9404 46.9716C48.1607 47.395 48.3968 47.834 48.5385 48.2887C48.6644 48.6807 48.7273 49.0727 48.8375 49.4647C48.9634 49.9508 49.0893 50.4212 49.1838 50.9073C49.3569 51.8637 49.3726 52.8516 49.1208 53.7923C48.9319 54.5293 50.0651 54.8429 50.254 54.1059C50.5373 53.0397 50.5216 51.9421 50.3642 50.8445C50.2855 50.3428 50.1753 49.841 50.0337 49.3393C49.9235 48.9159 49.8448 48.4769 49.7031 48.0535C49.5458 47.5361 49.2939 47.0657 49.0579 46.5796C48.8218 46.0936 48.5542 45.5918 48.3024 45.1057C47.7673 44.1022 47.2164 43.1144 46.6184 42.1266C46.2249 41.4837 45.2019 42.0638 45.5953 42.7224H45.6111Z" fill="#231F20"/>
<path d="M48.1764 55.6736C48.1764 55.6736 48.2394 55.7834 48.2708 55.8304C48.3338 55.9088 48.3968 56.0029 48.4754 56.0813C48.5541 56.1597 48.6328 56.2224 48.7273 56.2851C48.7745 56.3165 48.8217 56.3478 48.8847 56.3792C48.9633 56.4106 49.042 56.4419 49.105 56.4733C49.1365 56.4733 49.168 56.489 49.1994 56.5046C49.2781 56.536 49.3568 56.536 49.4355 56.5046C49.5142 56.5046 49.5929 56.4733 49.6559 56.4419C49.7188 56.4106 49.7818 56.3479 49.829 56.2851C49.8762 56.2224 49.9234 56.1597 49.9392 56.0813V55.9245C49.9549 55.8147 49.9391 55.7207 49.8762 55.6266L49.7818 55.5011C49.7818 55.5011 49.6244 55.3757 49.5142 55.3443C49.467 55.3443 49.4355 55.313 49.3883 55.2973L49.5299 55.36C49.4513 55.3287 49.3568 55.2816 49.2939 55.2189L49.4198 55.313C49.4198 55.313 49.2781 55.1875 49.2152 55.1091L49.3096 55.2346C49.3096 55.2346 49.2309 55.1248 49.1994 55.0621C49.168 54.9994 49.105 54.9367 49.042 54.8896C48.9791 54.8426 48.9161 54.7955 48.8374 54.7799C48.7587 54.7485 48.6801 54.7485 48.6014 54.7799C48.5227 54.7799 48.444 54.8112 48.381 54.8426L48.2551 54.9367C48.2551 54.9367 48.1292 55.0935 48.0977 55.2032V55.36C48.082 55.4698 48.0977 55.5639 48.1607 55.6579L48.1764 55.6736Z" fill="#231F20"/>
<path d="M47.4997 56.7871C47.4683 56.9596 47.4053 57.132 47.3423 57.3045L47.4053 57.1634C47.2951 57.4143 47.1692 57.6338 46.9961 57.8533L47.0905 57.7279C46.9174 57.9474 46.7128 58.1512 46.4924 58.3237L46.6184 58.2296C46.3823 58.4021 46.1305 58.5589 45.8629 58.6687L46.0045 58.6059C45.737 58.7157 45.4694 58.7941 45.1861 58.8255H45.3435C45.0917 58.8255 44.8399 58.8255 44.5881 58.8098C44.4464 58.7941 44.2575 58.8882 44.1631 58.9823C44.0529 59.092 43.99 59.2488 43.99 59.4056C43.99 59.5624 44.0529 59.7192 44.1631 59.829L44.289 59.923C44.3835 59.9701 44.4779 60.0014 44.5881 60.0014C45.2963 60.0955 46.0203 59.923 46.6656 59.5938C47.3109 59.2645 47.846 58.7784 48.208 58.1826C48.4126 57.8533 48.57 57.477 48.6644 57.085C48.6959 56.9282 48.6801 56.7714 48.6014 56.6303C48.5227 56.5048 48.3968 56.3951 48.2552 56.3637C47.9562 56.301 47.5942 56.4578 47.5312 56.7714L47.4997 56.7871Z" fill="#231F20"/>
<path d="M49.7817 53.4314C52.536 51.8478 53.0239 48.508 54.0312 45.7954C54.3145 45.0114 54.6765 44.2431 55.1958 43.5845C55.3847 43.3336 55.4477 43.0044 55.1958 42.7535C54.9912 42.5497 54.5506 42.5026 54.3617 42.7535C53.3701 44.0236 52.8508 45.5288 52.3786 47.0498C51.9537 48.3982 51.5445 49.7624 50.7418 50.9383C50.3326 51.5342 49.8132 52.0516 49.1836 52.4122C48.5541 52.7729 49.1207 53.8078 49.7817 53.4314Z" fill="#231F20"/>
<path d="M56.2505 42.1263C56.2505 42.1263 56.3292 42.0636 56.3607 42.0322C56.3921 42.0009 56.4866 41.9382 56.4079 42.0009C56.5023 41.9382 56.5967 41.8598 56.7069 41.797C56.88 41.6873 57.0689 41.5932 57.2735 41.4991C57.3365 41.4678 57.2578 41.4991 57.242 41.4991C57.2735 41.4991 57.305 41.4678 57.3365 41.4678C57.3837 41.4521 57.4309 41.4364 57.4781 41.4207C57.5883 41.3894 57.6827 41.358 57.7929 41.3267C57.8873 41.2953 57.9975 41.2796 58.0919 41.2639C58.1549 41.2639 58.2021 41.2483 58.2651 41.2326C58.1549 41.2483 58.2965 41.2326 58.328 41.2326C58.5326 41.2169 58.753 41.2012 58.9576 41.2326C59.0205 41.2326 59.0677 41.2326 59.1307 41.2326C59.1464 41.2326 59.2881 41.2483 59.2251 41.2326C59.1622 41.2169 59.2881 41.2326 59.3195 41.2326C59.3825 41.2326 59.4297 41.2483 59.4927 41.2639C59.6973 41.311 59.9019 41.3737 60.1065 41.4521C60.1537 41.4678 60.2009 41.4835 60.2481 41.4991C60.1537 41.4521 60.2481 41.4991 60.2953 41.5148C60.3898 41.5619 60.4842 41.6089 60.5786 41.6559C60.6888 41.7187 60.799 41.7814 60.8934 41.8441C60.9406 41.8754 60.9879 41.9068 61.0351 41.9382C61.0508 41.9382 61.0823 41.9695 61.098 41.9852C61.0508 41.9538 61.0508 41.9538 61.098 41.9852C61.2869 42.142 61.46 42.3145 61.6331 42.5026C61.8377 42.7378 62.2627 42.7222 62.4673 42.5026C62.6876 42.2518 62.6876 41.9225 62.4673 41.6716C61.1295 40.1507 58.8789 39.5862 56.9902 40.3388C56.4236 40.574 55.9042 40.8719 55.4478 41.2796C55.2117 41.4835 55.2275 41.9068 55.4478 42.1106C55.6996 42.3302 56.0302 42.3302 56.282 42.1106L56.2505 42.1263Z" fill="#231F20"/>
<path d="M60.5156 44.2743C60.6729 44.3684 60.8303 44.4625 60.972 44.5723L60.8461 44.4782C61.0821 44.6507 61.2867 44.8545 61.4599 45.0897L61.3654 44.9643C61.5543 45.2151 61.7117 45.4817 61.8376 45.7639L61.7746 45.6228C61.8848 45.8894 61.9635 46.1873 62.0107 46.4695V46.3127C62.0107 46.4068 62.0107 46.5009 62.0107 46.5793C62.0107 46.7361 62.0737 46.8772 62.1839 47.0026C62.294 47.1124 62.4514 47.1751 62.6088 47.1751C62.7662 47.1751 62.9236 47.1124 63.0337 47.0026C63.1439 46.8929 63.2069 46.7361 63.2069 46.5793C63.1597 45.5131 62.6718 44.4782 61.8691 43.7726C61.633 43.5688 61.3812 43.3806 61.1136 43.2395C60.972 43.1611 60.8146 43.1454 60.6572 43.1768C60.5156 43.2081 60.3739 43.3179 60.3109 43.4433C60.1693 43.7099 60.2323 44.0862 60.5156 44.243V44.2743Z" fill="#231F20"/>
<path d="M48.6329 59.2173C50.978 59.5936 53.4332 59.1076 55.4478 57.8218C56.0144 57.4612 56.5495 57.0378 57.0217 56.5674C57.242 56.3479 57.242 55.9559 57.0217 55.7364C56.8013 55.5169 56.4078 55.5169 56.1875 55.7364C55.7783 56.1284 55.4478 56.4107 55.0071 56.7086C54.5664 57.0065 54.0942 57.2574 53.6221 57.4769C53.5906 57.4769 53.5591 57.5082 53.5434 57.5082C53.4804 57.5396 53.4175 57.5553 53.3388 57.5866C53.2129 57.6337 53.087 57.6807 52.9611 57.7278C52.6935 57.8218 52.4417 57.8846 52.1741 57.963C51.9066 58.0413 51.6547 58.0727 51.3872 58.1197C51.277 58.1354 51.4029 58.1197 51.3085 58.1197C51.2455 58.1197 51.1826 58.1197 51.1196 58.1354C50.978 58.1354 50.8363 58.1668 50.6947 58.1668C50.3956 58.1825 50.0809 58.1825 49.7818 58.1668C49.6402 58.1668 49.4985 58.1511 49.3569 58.1354C49.2782 58.1354 49.1995 58.1197 49.1208 58.1041C49.0736 58.1041 49.0264 58.1041 48.9634 58.0727C48.6644 58.0257 48.3181 58.1511 48.2394 58.4804C48.1765 58.7626 48.3181 59.1546 48.6486 59.2017L48.6329 59.2173Z" fill="#231F20"/>
<path d="M56.1875 54.5762C56.2977 54.7016 56.4393 54.8114 56.5653 54.9055C56.6597 54.9839 56.7699 55.0466 56.88 55.0936C57.1476 55.2348 57.4309 55.3288 57.7142 55.3759C57.903 55.4072 58.0919 55.4229 58.2808 55.4072C58.4382 55.4072 58.5798 55.3445 58.7057 55.2348C58.7687 55.1877 58.8002 55.125 58.8316 55.0466C58.8631 54.9839 58.8789 54.9055 58.8789 54.8271C58.8789 54.6703 58.8159 54.5135 58.7057 54.4037C58.5956 54.294 58.4382 54.2156 58.2808 54.2313C58.1549 54.2313 58.029 54.2313 57.9031 54.2313H58.0604C57.8716 54.2313 57.6827 54.1685 57.4938 54.1058L57.6355 54.1685C57.4624 54.0901 57.305 54.0117 57.1633 53.902L57.2892 53.9961C57.1948 53.9333 57.1161 53.8549 57.0374 53.7609C56.943 53.6511 56.7699 53.5884 56.6125 53.5884C56.4551 53.5884 56.2977 53.6511 56.1875 53.7609C56.0774 53.8706 56.0144 54.0274 56.0144 54.1842C56.0144 54.341 56.0774 54.4821 56.1875 54.6076V54.5762Z" fill="#231F20"/>
<path d="M58.5326 53.3062C60.2796 52.0361 61.3026 49.935 61.2554 47.7869C61.2554 47.1911 61.1452 46.5795 60.9564 45.9994C60.8619 45.7015 60.5472 45.482 60.2324 45.5917C59.9334 45.6858 59.713 45.9994 59.8232 46.313C59.9019 46.5325 59.9648 46.7677 59.9963 47.0029C59.9963 47.0499 60.0121 47.1127 60.0278 47.1597C60.0278 47.1754 60.0278 47.2067 60.0278 47.2224C60.0278 47.1754 60.0121 47.097 60.0278 47.2224C60.0278 47.3479 60.0593 47.4576 60.0593 47.5831C60.0593 47.8182 60.0593 48.0534 60.0593 48.2886C60.0593 48.3984 60.0435 48.5082 60.0278 48.6179C60.0278 48.6336 60.0121 48.7434 60.0278 48.665C60.0278 48.5866 60.0278 48.665 60.0278 48.6806C60.0278 48.7434 60.0121 48.8061 59.9963 48.8688C59.9491 49.104 59.9019 49.3392 59.8232 49.5587C59.7917 49.6685 59.7602 49.7625 59.713 49.8723C59.6973 49.9193 59.6815 49.9821 59.6501 50.0291C59.6501 50.0605 59.6186 50.0918 59.6186 50.1232C59.6815 49.9977 59.5871 50.2016 59.6186 50.1232C59.4297 50.5465 59.1936 50.9385 58.9103 51.3305C58.8789 51.3776 58.9261 51.3148 58.9261 51.2992C58.8946 51.3305 58.8789 51.3619 58.8474 51.3932C58.8002 51.4403 58.7687 51.4873 58.7215 51.5344C58.627 51.6284 58.5484 51.7382 58.4382 51.8323C58.3437 51.9264 58.2493 52.0048 58.1549 52.0832C58.1077 52.1302 58.0447 52.1772 57.9975 52.2243C57.9503 52.2713 58.0132 52.2243 58.029 52.2086C57.9975 52.24 57.9503 52.2713 57.9188 52.287C57.667 52.4752 57.5253 52.8044 57.7142 53.0867C57.8716 53.3375 58.2493 53.4943 58.5169 53.2905L58.5326 53.3062Z" fill="#231F20"/>
<path d="M18.6191 19.2496C18.5876 21.0058 18.7135 22.7776 19.0126 24.5023C19.2172 25.7097 20.5077 28.2185 19.831 29.2376C19.2959 30.0687 18.6348 30.837 18.1941 31.7307C17.7535 32.6245 17.5331 33.6907 17.9266 34.6001C18.2414 34.4904 18.5561 34.3806 18.8867 34.2709C18.3673 35.9329 17.8322 37.7047 18.3043 39.3825C18.4932 40.0724 18.8552 40.7153 19.3588 41.2327C19.768 41.1386 20.193 41.0445 20.6022 40.9505C20.7596 42.9104 21.9242 44.7607 23.6083 45.7798C23.9703 45.3094 24.2221 44.745 24.3323 44.1648C24.6313 45.4819 26.0478 46.2189 27.3384 46.5952C30.0926 47.4105 33.0043 47.4262 35.8687 47.3635C39.048 47.2851 42.2429 47.1126 45.3749 46.5952C46.9331 46.3286 48.6014 45.8896 49.5142 44.6195C49.5457 45.0586 50.254 44.9331 50.6002 44.6509C52.237 43.3338 53.4647 41.5306 54.1099 39.5393C53.8739 39.8529 54.3303 40.3076 54.708 40.2292C55.0857 40.1508 55.3376 39.7588 55.495 39.4138C55.9514 38.4103 56.156 37.2971 56.0773 36.1995C55.9829 36.8894 57.0531 37.2657 57.5882 36.811C58.1233 36.3563 58.1548 35.5409 57.9659 34.8667C57.478 33.0949 55.8569 31.7778 55.4635 29.9903C55.1172 28.4693 55.7153 26.917 56.0773 25.3961C56.7698 22.511 57.0688 16.2861 54.3145 14.2321C53.024 13.2599 51.9852 14.3575 50.8992 14.9847C49.1995 15.9725 47.6885 17.3053 46.4924 18.8576C46.0989 19.3751 45.7055 19.9552 45.0916 20.1904C44.5093 20.4256 43.8483 20.3002 43.2345 20.1904C41.0468 19.8298 38.8119 19.6887 36.5927 19.7827C35.0503 19.8454 32.2174 19.6259 30.8166 20.2374C30.6435 20.3158 30.4704 20.4099 30.2815 20.3786C30.0612 20.3472 29.9038 20.159 29.7621 20.0022C27.7318 17.4935 25.434 15.0004 22.3807 13.9185C19.3746 12.8366 18.6663 17.1015 18.6191 19.2496Z" fill="white"/>
<path d="M53.3073 18.1523C53.3073 18.1523 53.1972 18.0895 53.1499 18.0582C52.8037 17.9484 52.4574 17.9798 52.0797 18.1209C51.4187 18.3718 50.8521 18.8579 50.3642 19.3439C49.8133 19.877 49.3254 20.4729 48.9005 21.1157C48.6959 21.4137 48.507 21.7273 48.3181 22.0565C48.2552 22.1663 48.1922 22.2761 48.145 22.4015C48.208 22.4172 48.2552 22.4329 48.3181 22.4799C48.869 22.8562 49.6559 22.5113 50.254 22.8562C50.8049 23.1855 50.8836 23.8597 51.0252 24.4242C51.1039 24.7848 51.1039 24.8946 51.3085 25.1141C51.6233 25.4591 51.9853 25.7883 52.3473 26.1019C52.3787 26.1333 52.4102 26.1646 52.4417 26.1803C52.5833 25.9294 52.7093 25.6629 52.8037 25.4277C53.449 23.7656 53.811 21.9154 53.7637 20.1279C53.748 19.4223 53.6378 18.6854 53.3388 18.1523C53.3388 18.1523 53.3388 18.1366 53.3231 18.1209L53.3073 18.1523Z" fill="#F9BDBE"/>
<path d="M25.5127 21.8522C25.3553 20.6919 24.348 19.5316 23.5139 18.779C23.1361 18.4497 22.664 18.1048 22.1603 17.8853C21.7669 17.995 21.4521 18.1518 21.1845 18.387C20.9484 19.0299 20.854 19.7355 20.8225 20.4097C20.7596 21.7425 20.8855 23.0753 21.1688 24.3767C21.2947 24.9568 21.4521 25.5527 21.6252 26.1171C21.7354 26.4778 21.877 26.9168 22.0659 27.2931C22.0816 27.0579 22.1761 26.8384 22.4121 26.6973C22.9473 26.3837 23.3879 25.976 23.8286 25.5527C23.6398 24.6746 23.7499 23.8122 24.4424 23.138C24.7572 22.8401 25.0405 22.6833 25.2766 22.4481C25.4969 22.2442 25.5441 22.2129 25.4969 21.8522H25.5127Z" fill="#F9BDBE"/>
<path d="M30.077 35.5094C31.4069 35.5094 32.485 34.4354 32.485 33.1104C32.485 31.7855 31.4069 30.7114 30.077 30.7114C28.7471 30.7114 27.6689 31.7855 27.6689 33.1104C27.6689 34.4354 28.7471 35.5094 30.077 35.5094Z" fill="#FBBA15"/>
<path d="M44.7297 35.5566C46.0857 35.5566 47.1849 34.4615 47.1849 33.1106C47.1849 31.7597 46.0857 30.6646 44.7297 30.6646C43.3737 30.6646 42.2744 31.7597 42.2744 33.1106C42.2744 34.4615 43.3737 35.5566 44.7297 35.5566Z" fill="#3EB8EA"/>
<path d="M30.0771 34.6475C30.9289 34.6475 31.6195 33.9595 31.6195 33.1108C31.6195 32.2622 30.9289 31.5742 30.0771 31.5742C29.2252 31.5742 28.5347 32.2622 28.5347 33.1108C28.5347 33.9595 29.2252 34.6475 30.0771 34.6475Z" fill="#231F20"/>
<path d="M44.7297 34.6475C45.5815 34.6475 46.272 33.9595 46.272 33.1108C46.272 32.2622 45.5815 31.5742 44.7297 31.5742C43.8778 31.5742 43.1873 32.2622 43.1873 33.1108C43.1873 33.9595 43.8778 34.6475 44.7297 34.6475Z" fill="#231F20"/>
<path d="M37.0178 35.7292C37.7827 35.7292 38.4028 35.3431 38.4028 34.8668C38.4028 34.3905 37.7827 34.0044 37.0178 34.0044C36.2529 34.0044 35.6328 34.3905 35.6328 34.8668C35.6328 35.3431 36.2529 35.7292 37.0178 35.7292Z" fill="#231F20"/>
<path d="M27.9522 22.1033C33.5237 19.8297 39.8192 19.6416 45.5324 21.6016C46.2563 21.8524 46.5554 20.7078 45.8471 20.4726C39.9766 18.4499 33.3978 18.6224 27.6532 20.9744C27.3541 21.0998 27.1495 21.3664 27.2439 21.6956C27.3226 21.9779 27.6689 22.2287 27.9679 22.1033H27.9522Z" fill="#231F20"/>
<path d="M21.153 14.3733C23.7027 15.4708 26.0477 16.9918 28.0466 18.9047C28.6132 19.4535 29.164 20.0337 29.6834 20.6295C29.888 20.8647 30.3129 20.849 30.5175 20.6295C30.7536 20.3943 30.7222 20.0337 30.5175 19.7985C28.6604 17.6347 26.4097 15.8001 23.923 14.4203C23.2148 14.0283 22.4908 13.6677 21.7511 13.3541C21.452 13.2286 21.1215 13.26 20.9484 13.5579C20.8067 13.8088 20.8697 14.2321 21.153 14.3576V14.3733Z" fill="#231F20"/>
<path d="M19.2802 14.6555C18.4775 16.835 18.0054 19.1556 17.9582 21.4762C17.9267 23.3264 18.1785 25.208 18.9497 26.8857C19.0756 27.168 19.5005 27.2464 19.7524 27.0896C20.0514 26.9171 20.0986 26.5721 19.957 26.2899C19.2802 24.8003 19.0913 23.0128 19.1386 21.3665C19.1858 19.1713 19.6579 17.0075 20.4134 14.9534C20.5236 14.6555 20.2875 14.3105 20.0042 14.2321C19.6737 14.1381 19.3904 14.3419 19.2802 14.6398V14.6555Z" fill="#231F20"/>
<path d="M22.0503 18.7007C22.2549 18.8104 22.4595 18.9202 22.6483 19.0456C22.727 19.0926 22.8057 19.1554 22.8844 19.2024C22.9316 19.2338 22.9788 19.2651 23.0261 19.2965C23.0418 19.2965 23.2149 19.4376 23.1362 19.3749C23.4825 19.6414 23.813 19.9394 24.112 20.2686C24.2537 20.4254 24.3953 20.5822 24.5212 20.739C24.5212 20.739 24.6314 20.8958 24.5684 20.8017C24.5684 20.8174 24.5999 20.8488 24.6157 20.8645C24.6471 20.9115 24.6786 20.9429 24.7101 20.9899C24.836 21.1781 24.9619 21.3662 25.0721 21.5701C25.135 21.6798 25.198 21.7896 25.2452 21.8993C25.2452 21.9307 25.2767 21.9621 25.2924 21.9934C25.3396 22.1032 25.2452 21.868 25.2924 21.9777C25.3082 22.0405 25.3396 22.1032 25.3554 22.1502C25.3711 22.2129 25.3869 22.26 25.4026 22.3227C25.4026 22.3384 25.4026 22.3697 25.4026 22.3854C25.4183 22.4638 25.3711 22.4168 25.4026 22.3227C25.4026 22.354 25.4026 22.4324 25.4026 22.4638C25.3711 22.3384 25.4341 22.3227 25.4026 22.4011C25.3869 22.4481 25.3554 22.4952 25.4341 22.3384C25.5285 22.2443 25.3711 22.4795 25.4341 22.3384C25.5757 22.2129 25.5285 22.2756 25.4813 22.2913C25.4026 22.3227 25.56 22.26 25.56 22.26C25.56 22.26 25.497 22.2756 25.4813 22.2756C25.3869 22.307 25.6387 22.2756 25.5285 22.2756C25.497 22.2756 25.4656 22.2756 25.4341 22.2756C25.4183 22.2756 25.261 22.2756 25.3554 22.2756C25.4813 22.2756 25.2767 22.26 25.2767 22.26C25.2137 22.26 25.1508 22.2286 25.0878 22.2286C24.9304 22.1972 24.7731 22.1816 24.6157 22.1659C24.3324 22.1659 24.0491 22.2286 23.813 22.3697C23.3566 22.6676 23.1047 23.2164 23.089 23.7652C23.089 24.3611 23.3723 24.8942 23.6556 25.3959C23.7973 25.6468 24.1278 25.7409 24.3953 25.6311C24.6471 25.5214 24.8517 25.2078 24.7416 24.9412C24.7101 24.8471 24.6629 24.7531 24.6314 24.6433C24.5212 24.3611 24.2379 24.1259 23.9074 24.2356C23.6241 24.3297 23.3723 24.659 23.4982 24.9569C23.5297 25.051 23.5769 25.1451 23.6084 25.2548L24.6944 24.8001C24.6314 24.6903 24.5684 24.5806 24.5212 24.4708C24.4898 24.4238 24.474 24.3611 24.4425 24.2983C24.3638 24.1259 24.474 24.3924 24.4111 24.2199C24.3796 24.1259 24.3481 24.0318 24.3166 23.9377C24.2694 23.7809 24.3166 24.0318 24.3166 23.8593C24.3166 23.7966 24.3166 23.7339 24.3166 23.6712C24.3166 23.8123 24.3166 23.6712 24.3166 23.6398C24.3166 23.5928 24.3481 23.5457 24.3638 23.4987C24.3481 23.5457 24.3324 23.6084 24.3638 23.4987C24.3953 23.4673 24.4111 23.4203 24.4425 23.3732C24.3638 23.483 24.4425 23.3732 24.474 23.3576C24.5684 23.2635 24.3796 23.4046 24.4898 23.3419C24.6157 23.2635 24.3638 23.3732 24.5212 23.3419C24.5999 23.3419 24.5999 23.3262 24.5527 23.3419C24.5842 23.3419 24.6157 23.3419 24.6471 23.3419C24.6944 23.3419 24.7573 23.3419 24.8045 23.3419C24.6944 23.3419 24.899 23.3576 24.899 23.3576C25.0406 23.3889 25.198 23.4046 25.3396 23.436C25.5128 23.4516 25.6859 23.4516 25.8748 23.4203C26.221 23.3419 26.5201 23.091 26.5987 22.746C26.7561 22.1816 26.4728 21.5701 26.2053 21.084C25.922 20.5509 25.56 20.0648 25.1665 19.6258C24.474 18.8418 23.6399 18.1832 22.7113 17.6971C22.4437 17.556 22.0503 17.6187 21.9086 17.901C21.767 18.1832 21.8299 18.5439 22.1132 18.7007H22.0503Z" fill="#231F20"/>
<path d="M51.8909 17.6819C51.4187 17.9328 50.978 18.2307 50.5688 18.56C50.0022 18.999 49.4513 19.4537 48.9792 19.9869C48.5385 20.4886 48.1136 21.0531 47.9404 21.7116C47.8617 22.0252 47.8303 22.3702 47.9247 22.6995C48.0821 23.2953 48.8533 23.2953 49.3254 23.1855C49.5143 23.1385 49.6874 23.0758 49.8606 23.0287C49.9078 23.0287 49.9392 23.0131 49.9865 22.9974C50.0179 22.9974 50.1753 22.966 50.0652 22.9817C49.955 22.9974 50.0809 22.9817 50.1124 22.9817C50.1281 22.9817 50.1439 22.9817 50.1753 22.9817C50.2226 22.9817 50.0179 22.9503 50.1124 22.9817C50.1124 22.9817 50.1439 22.9817 50.1596 22.9817C50.254 22.9974 50.1281 22.9817 50.1124 22.966L50.1596 22.9974C50.2225 23.0287 50.1281 22.9817 50.1124 22.966L50.1596 23.0131C50.1281 23.0131 50.0966 22.8876 50.1281 22.9974C50.1439 23.0601 50.1124 22.9347 50.0966 22.9347C50.0809 22.9347 50.1124 23.0131 50.1281 23.0287C50.1439 23.1385 50.1281 23.0444 50.1281 23.0287C50.1124 22.9347 50.1281 23.0444 50.1281 23.0601C50.1281 23.1071 50.1281 23.1699 50.1281 23.2169C50.1281 23.2482 50.1281 23.2639 50.1281 23.2953C50.1281 23.2639 50.1439 23.1699 50.1281 23.2483C50.1281 23.311 50.1124 23.3737 50.0966 23.4364C50.0337 23.7343 50.1911 24.0793 50.5058 24.1577C50.8049 24.2204 51.1669 24.0636 51.2298 23.75C51.3243 23.311 51.3715 22.8563 51.1669 22.4329C50.9623 22.0095 50.5531 21.79 50.1124 21.79C49.7976 21.79 49.4828 21.8998 49.1838 21.9939C49.1208 22.0095 49.0579 22.0252 48.9949 22.0409C48.9634 22.0409 48.932 22.0409 48.9005 22.0566C49.0107 22.0566 48.7431 22.0879 48.9005 22.0566C48.869 22.0566 48.8375 22.0566 48.8061 22.0566C48.7274 22.0566 48.7116 22.0252 48.8533 22.0566C48.8218 22.0566 48.7903 22.0566 48.7746 22.0409C48.9162 22.1193 48.6802 22.0252 48.7746 22.0409L49.0421 22.3859C49.0421 22.3859 49.0421 22.3075 49.0107 22.2761C49.0579 22.4329 49.0107 22.4172 49.0107 22.3702C49.0107 22.3545 49.0107 22.3231 49.0107 22.3075C49.0107 22.2761 49.0107 22.2447 49.0107 22.2134C49.0107 22.182 49.0107 22.1663 49.0107 22.135C49.0107 22.0723 49.0579 22.0252 49.0107 22.1977C49.0264 22.135 49.0421 22.0409 49.0579 21.9782C49.0579 21.9311 49.0894 21.8998 49.1051 21.8527C49.1051 21.8371 49.1051 21.8214 49.1208 21.8057C49.1523 21.7116 49.1208 21.8057 49.1051 21.8527C49.1995 21.6803 49.2782 21.5078 49.3884 21.351C49.4356 21.2726 49.4986 21.1942 49.5458 21.1158C49.5773 21.0844 49.656 21.006 49.5458 21.1315C49.5458 21.1158 49.5773 21.1001 49.593 21.0844C49.6245 21.0374 49.6717 20.9904 49.7032 20.9433C49.9865 20.614 50.3012 20.3004 50.6318 20.0182C50.7891 19.8771 50.9623 19.736 51.1354 19.5949C51.1354 19.5949 51.2298 19.5165 51.1511 19.5949C51.0724 19.6733 51.1511 19.5949 51.1669 19.5949C51.1983 19.5635 51.2456 19.5321 51.277 19.5165C51.3557 19.4537 51.4502 19.391 51.5446 19.3283C51.8436 19.1245 52.1427 18.9206 52.4732 18.7481C52.7407 18.607 52.8509 18.1994 52.6778 17.9485C52.5047 17.6662 52.1584 17.5878 51.8751 17.7446L51.8909 17.6819Z" fill="#231F20"/>
<path d="M22.8528 25.4274C21.279 26.1801 20.0671 27.6697 19.107 29.0808C18.5876 29.8648 18.1155 30.6802 17.7063 31.5426C17.3443 32.3109 16.9351 33.1576 16.8092 33.9886C16.7147 34.6001 17.0452 35.1646 17.659 35.3528C18.2729 35.5409 18.808 35.2744 19.3746 35.0705L18.7135 34.2081C17.5961 35.8231 17.2026 37.8458 17.5961 39.7588C17.7535 40.4957 18.8867 40.1821 18.7293 39.4452C18.3988 37.8302 18.7765 36.1524 19.7208 34.804C20.0041 34.3963 19.532 33.7691 19.0598 33.9416C18.7922 34.0357 18.4932 34.2081 18.2099 34.2395C18.1312 34.2395 18.0525 34.2395 17.9896 34.2238C17.9423 34.2081 17.9896 34.2238 17.9896 34.2552C17.9423 34.0827 18.0997 33.7848 18.1469 33.628C18.2099 33.4398 18.2729 33.2517 18.3515 33.0635C18.6978 32.1541 19.1542 31.2917 19.6421 30.4607C20.5707 28.924 21.7826 27.2463 23.4509 26.4466C24.1277 26.1174 23.5296 25.0982 22.8528 25.4274Z" fill="#231F20"/>
<path d="M19.2801 38.9591C18.7608 39.9312 18.4932 41.0602 18.5719 42.1578C18.5719 42.3146 18.6349 42.4557 18.745 42.5811C18.8552 42.6909 19.0126 42.7536 19.17 42.7536C19.3274 42.7536 19.4848 42.6909 19.5949 42.5811C19.7051 42.4714 19.7838 42.3146 19.768 42.1578C19.7366 41.7971 19.768 41.4365 19.7995 41.0759V41.2327C19.8467 40.7623 19.9727 40.2919 20.1615 39.8528L20.0986 39.994C20.1615 39.8372 20.2402 39.696 20.3032 39.5549C20.3661 39.4138 20.3976 39.257 20.3661 39.1002C20.3346 38.9591 20.2245 38.818 20.0986 38.7553C19.831 38.6141 19.4533 38.6769 19.2959 38.9591H19.2801Z" fill="#231F20"/>
<path d="M20.555 40.7468C20.3189 42.2677 20.7124 43.82 21.7197 45.0117C22.1919 45.5605 22.9001 45.9995 23.6556 45.8584C24.411 45.7173 24.9776 44.9333 24.7573 44.1807C24.5369 43.4281 23.451 43.7573 23.6241 44.4943C24.0018 46.125 25.6229 47.0344 27.1653 47.2539C28.1254 47.395 29.1169 47.4107 30.0927 47.4578C31.0685 47.5048 32.0758 47.5518 33.0673 47.5989C33.8228 47.6302 33.8228 46.4543 33.0673 46.4229C31.3046 46.3445 29.5418 46.3288 27.7948 46.1563C26.5672 46.0309 25.0878 45.5291 24.773 44.1807L23.6398 44.4943C23.7028 44.6981 23.325 44.7452 23.1519 44.6668C22.7742 44.51 22.4909 44.1023 22.2863 43.7573C21.7984 42.9577 21.578 41.9855 21.7197 41.0604C21.7669 40.7468 21.641 40.4332 21.3105 40.3391C21.0272 40.2607 20.6337 40.4332 20.5865 40.7468H20.555Z" fill="#231F20"/>
<path d="M52.3629 27.0427C55.0228 29.2849 56.8957 32.4836 57.3993 35.9331C57.415 36.0899 57.4465 36.2624 57.415 36.4192C57.415 36.4506 57.3836 36.5603 57.3678 36.5603C57.3993 36.5603 57.3678 36.529 57.3521 36.5447C57.2104 36.5603 56.9271 36.4035 56.7855 36.3251C56.6596 36.2624 56.5022 36.184 56.455 36.0272L55.3218 36.3408C55.668 37.3286 55.6523 38.3478 55.2588 39.32C55.1329 39.6179 55.3847 39.9629 55.668 40.0413C55.9986 40.1353 56.2819 39.9315 56.392 39.6336C56.8484 38.489 56.8799 37.1875 56.455 36.0272C56.2032 35.3216 55.07 35.6195 55.3218 36.3408C55.4949 36.8583 55.8726 37.2032 56.3605 37.4227C56.8799 37.6579 57.4937 37.8931 58.0289 37.5638C58.9732 36.9837 58.564 35.5255 58.3751 34.6788C57.9029 32.5933 56.9901 30.602 55.7153 28.8929C54.9913 27.9051 54.1571 27.0113 53.2128 26.2273C52.9767 26.0235 52.6147 25.9922 52.3786 26.2273C52.174 26.4312 52.1268 26.8545 52.3786 27.0584L52.3629 27.0427Z" fill="#231F20"/>
<path d="M45.8471 20.8959C46.1776 20.2687 46.5082 19.6415 46.9174 19.0457C46.9961 18.9359 47.0748 18.8262 47.1534 18.7164C47.1692 18.685 47.2007 18.6537 47.2164 18.6223C47.2636 18.5596 47.3266 18.4969 47.3738 18.4342C47.5627 18.199 47.7673 17.9794 47.9876 17.7599C48.2079 17.5404 48.4125 17.3523 48.6329 17.1641C48.7431 17.07 48.8532 16.9916 48.9477 16.8975C49.0264 16.8348 48.8847 16.9446 48.9477 16.8975C48.9791 16.8819 49.0106 16.8505 49.0421 16.8348C49.105 16.7878 49.1837 16.7407 49.2467 16.6937C49.7346 16.3487 50.254 16.0508 50.8048 15.7843C50.8835 15.7529 50.9622 15.7216 51.0252 15.6745C51.0566 15.6745 51.0881 15.6432 51.1196 15.6275C51.214 15.5804 51.1039 15.6275 51.1511 15.6118C51.3085 15.5491 51.4659 15.4864 51.6232 15.4393C51.938 15.3296 52.2685 15.2198 52.599 15.1414C52.8981 15.063 53.1027 14.718 53.0083 14.4201C52.9138 14.1222 52.5991 13.9341 52.2843 14.0125C49.7818 14.6396 47.5469 16.1606 46.036 18.246C45.5481 18.9046 45.1704 19.6258 44.7926 20.3471C44.651 20.6137 44.7139 21.0056 44.9972 21.1468C45.2648 21.2879 45.6583 21.2252 45.7999 20.9429L45.8471 20.8959Z" fill="#231F20"/>
<path d="M53.7322 13.1188L53.2286 15.0004C53.1971 15.1415 53.2128 15.314 53.2915 15.4551C53.3702 15.5805 53.4961 15.6903 53.6378 15.7217C53.7952 15.753 53.9526 15.753 54.0942 15.6589C54.2359 15.5649 54.3303 15.4551 54.3618 15.314L54.8654 13.4324C54.8969 13.2913 54.8811 13.1188 54.8025 12.9777C54.7238 12.8523 54.5978 12.7425 54.4562 12.7111C54.2988 12.6798 54.1414 12.6798 53.9998 12.7739C53.8581 12.8679 53.7637 12.9777 53.7322 13.1188Z" fill="#231F20"/>
<path d="M55.7467 14.42L55.2274 14.9375L55.0857 15.0786C55.0857 15.0786 54.9913 15.1883 54.9598 15.2667C54.9283 15.3295 54.9126 15.4079 54.9126 15.4863C54.9126 15.5647 54.9126 15.6431 54.9598 15.7058C54.9913 15.7842 55.0228 15.8469 55.0857 15.8939L55.2116 15.988C55.3061 16.0351 55.4005 16.0664 55.5107 16.0664H55.6681C55.7625 16.0194 55.8569 15.9723 55.9356 15.8939L56.455 15.3765L56.5966 15.2354C56.5966 15.2354 56.6911 15.1256 56.7226 15.0472C56.754 14.9845 56.7698 14.9061 56.7698 14.8277C56.7698 14.7493 56.7698 14.6709 56.7226 14.6082C56.6911 14.5298 56.6596 14.4671 56.5966 14.42L56.4707 14.326C56.3763 14.2789 56.2819 14.2476 56.1717 14.2476H56.0143C55.9199 14.2946 55.8254 14.3416 55.7467 14.42Z" fill="#231F20"/>
<path d="M55.6995 17.2894C56.3448 20.6449 56.0772 24.1258 54.9913 27.3558C54.8968 27.6538 55.1014 27.9987 55.4005 28.0771C55.7152 28.1712 56.03 27.9673 56.1245 27.6694C57.2734 24.2356 57.5095 20.5351 56.8327 16.9758C56.7697 16.6622 56.392 16.4897 56.1087 16.5681C55.7782 16.6622 55.6366 16.9758 55.6995 17.2894Z" fill="#231F20"/>
<path d="M41.157 47.5518C43.4391 48.0692 45.8786 47.7399 47.9562 46.6423C48.5385 46.3287 49.0893 45.9524 49.6087 45.5291C49.8605 45.3252 49.8133 44.9019 49.6087 44.6981C49.3726 44.4629 49.0264 44.4942 48.7746 44.6981C48.7274 44.7451 48.6801 44.7764 48.6329 44.8235C48.6329 44.8235 48.507 44.9176 48.5542 44.8862C48.4441 44.9646 48.3339 45.043 48.2237 45.1214C48.0034 45.2782 47.7673 45.4193 47.5312 45.5448C47.059 45.8113 46.6656 45.9838 46.1934 46.1406C45.7213 46.2974 45.1704 46.4385 44.651 46.5326C44.5881 46.5326 44.5251 46.5483 44.4622 46.5639C44.5408 46.5639 44.3992 46.5639 44.3677 46.5639C44.2261 46.5639 44.1002 46.5953 43.9585 46.5953C43.691 46.611 43.4391 46.6267 43.1716 46.611C42.5263 46.611 42.0699 46.5483 41.4718 46.4071C41.1728 46.3444 40.8265 46.5012 40.7478 46.8148C40.6849 47.1127 40.8422 47.4577 41.157 47.5361V47.5518Z" fill="#231F20"/>
<path d="M53.6849 39.147C53.6849 39.2725 53.7007 39.4136 53.6849 39.539C53.6849 39.5704 53.6849 39.6174 53.6849 39.6488C53.6849 39.6488 53.6849 39.7429 53.6849 39.6802C53.6849 39.6018 53.6849 39.7272 53.6849 39.7429C53.6849 39.7742 53.6849 39.8213 53.6692 39.8526C53.6377 39.9781 53.6062 40.1035 53.559 40.229C53.5433 40.2917 53.5118 40.3544 53.4961 40.4171C53.4961 40.4485 53.4646 40.4798 53.4489 40.5269C53.4331 40.5739 53.4174 40.6053 53.4489 40.5425C53.2443 41.0129 52.9924 41.452 52.7091 41.891C52.5832 42.0949 52.4416 42.2987 52.2842 42.4868C52.3471 42.3928 52.2527 42.5182 52.237 42.5496C52.2055 42.5966 52.1583 42.6436 52.1268 42.6907C52.0481 42.7848 51.9694 42.8788 51.875 42.9729C51.5445 43.3492 51.1825 43.6942 50.8047 44.0078C50.6946 44.1019 50.6001 44.1803 50.49 44.2587C50.5844 44.1803 50.4428 44.3057 50.4113 44.3214C50.3641 44.3684 50.3011 44.3998 50.2539 44.4468C50.0178 44.6193 49.7817 44.7604 49.5299 44.9172C49.2624 45.074 49.1522 45.4503 49.3253 45.7169C49.4984 45.9834 49.8447 46.0932 50.128 45.9207C51.9537 44.8388 53.5276 43.1924 54.4089 41.2481C54.708 40.5896 54.9283 39.884 54.8653 39.1627C54.8339 38.8648 54.6135 38.5669 54.2673 38.5669C53.9682 38.5669 53.6535 38.8334 53.6692 39.1627L53.6849 39.147Z" fill="#231F20"/>
</svg>
