<svg width="80" height="76" viewBox="0 0 80 76" fill="none" xmlns="http://www.w3.org/2000/svg">
<path d="M56.2188 42.1158C55.2902 43.2134 54.7236 44.6089 54.1885 45.9574C53.5432 47.6194 52.8822 49.2658 52.2369 50.9279C51.9851 51.5864 51.6074 52.339 50.9148 52.4488C49.9233 46.3337 46.6182 39.513 40.2597 37.553C38.3081 36.9572 36.1204 37.4903 34.4207 38.6349C32.9255 39.6541 32.3274 41.0809 31.3831 42.4921C30.1397 44.311 28.7862 45.8476 27.9993 47.9487C27.1336 50.2536 26.9605 52.9035 27.9363 55.1614C30.0138 60.0065 36.1047 60.6023 40.6532 60.3671C42.1799 60.2887 43.5963 60.1005 45.0443 59.6145C46.0831 59.2695 47.0903 58.658 48.0976 58.3444C48.3652 58.266 48.6485 58.3444 48.916 58.3914C52.6304 59.1911 56.927 57.6388 58.6583 54.2677C58.9101 53.7816 59.1147 53.2641 59.398 52.7937C59.6656 52.339 60.0276 51.9314 60.3581 51.5237C61.0821 50.6143 61.6959 49.6264 62.3097 48.6386C62.6874 48.0428 63.0652 47.4313 63.2068 46.757C63.3642 46.0044 63.2225 45.2361 63.0966 44.4991C62.8763 43.2447 62.5773 41.8806 61.6015 41.0653C60.2637 39.952 58.1389 40.3753 56.8326 41.52C56.628 41.7081 56.4234 41.912 56.2503 42.1158H56.2188Z" fill="white"/>
<path d="M31.8398 55.3194C31.8713 56.2915 31.9658 57.2793 32.1704 58.2201C32.3435 59.0512 32.7527 59.8979 33.5554 60.2899C33.9803 60.4937 34.421 60.5721 34.8774 60.5878C35.3024 60.5878 35.7745 60.5564 36.1837 60.4623C36.6716 60.3526 37.0966 60.0547 37.3327 59.6156C37.5373 59.2393 37.6317 58.816 37.6947 58.3926C37.8678 57.295 37.915 56.1818 37.7891 55.0685C37.7733 54.9117 37.7419 54.7706 37.616 54.6451C37.5058 54.5354 37.3484 54.4727 37.191 54.4727C36.9077 54.4727 36.5615 54.7392 36.5929 55.0685C36.6874 55.9466 36.6874 56.8246 36.5929 57.7027C36.5929 57.7654 36.5929 57.8125 36.5772 57.8752C36.5772 57.9065 36.5772 57.9222 36.5772 57.9536C36.5772 57.8438 36.5772 58.0476 36.5772 57.9536C36.5615 58.0633 36.5457 58.1731 36.53 58.2828C36.4985 58.4553 36.467 58.6435 36.4198 58.816C36.4198 58.863 36.3883 58.8944 36.3726 58.9414C36.3726 58.9571 36.3726 58.9728 36.3569 58.9884C36.3411 59.0512 36.3883 58.9257 36.3883 58.9257C36.3569 58.9571 36.3569 59.0041 36.3411 59.0355C36.3254 59.0825 36.2939 59.1139 36.2624 59.1609C36.2624 59.1609 36.2467 59.1923 36.231 59.208C36.231 59.208 36.3096 59.1139 36.2624 59.1609C36.231 59.1923 36.1995 59.2236 36.168 59.255C36.2467 59.208 36.168 59.255 36.1523 59.255C36.1208 59.2707 36.0421 59.302 36.0263 59.3177C36.0578 59.2707 36.1208 59.2864 36.0578 59.3177C36.0421 59.3177 36.0263 59.3177 35.9949 59.3334C35.9477 59.3334 35.9004 59.3648 35.8532 59.3648C35.806 59.3648 35.7745 59.3804 35.7273 59.3961C35.6958 59.3961 35.6801 59.3961 35.6486 59.3961C35.5699 59.3961 35.6486 59.3961 35.6801 59.3961C35.6014 59.4275 35.4912 59.4118 35.4125 59.4275C35.3181 59.4275 35.2394 59.4275 35.145 59.4432C34.9719 59.4432 34.783 59.4432 34.6099 59.4432C34.5941 59.4432 34.5784 59.4432 34.5469 59.4432C34.484 59.4432 34.6099 59.4432 34.6099 59.4432C34.5626 59.4432 34.5154 59.4432 34.484 59.4275C34.3895 59.4118 34.2951 59.3804 34.2164 59.3491C34.1849 59.3491 34.1534 59.3177 34.1062 59.3177C34.1062 59.3177 34.2321 59.3804 34.1377 59.3177C34.122 59.3177 34.1062 59.302 34.0905 59.2864C34.0118 59.2393 33.9331 59.1923 33.8701 59.1452C33.8072 59.0982 33.9488 59.2236 33.9016 59.1609C33.9016 59.1609 33.8701 59.1296 33.8544 59.1296C33.8229 59.0982 33.7914 59.0668 33.76 59.0355C33.7285 59.0041 33.7128 58.9884 33.6813 58.9571C33.6183 58.8787 33.6813 58.9414 33.6813 58.9571C33.6341 58.8944 33.6026 58.8316 33.5554 58.7532C33.5396 58.7219 33.5082 58.6748 33.4924 58.6435C33.4924 58.6278 33.4924 58.6121 33.4767 58.5964C33.5554 58.7219 33.5082 58.6592 33.4767 58.6121C33.4137 58.4553 33.3665 58.2828 33.3193 58.1104C33.2721 57.9065 33.2406 57.7184 33.2091 57.5145C33.1934 57.3891 33.1776 57.2793 33.1619 57.1539C33.1619 57.1382 33.1462 57.0285 33.1619 57.1069C33.1776 57.1853 33.1619 57.0755 33.1619 57.0598C33.1619 56.9971 33.1462 56.9344 33.1462 56.8717C33.0832 56.3699 33.0517 55.8682 33.036 55.3507C33.036 55.0371 32.7684 54.7549 32.4379 54.7549C32.1074 54.7549 31.8398 55.0058 31.8398 55.3507V55.3194Z" fill="#231F20"/>
<path d="M44.0055 55.3194C44.0055 55.7741 43.9583 56.2132 43.9111 56.6679C43.9111 56.7776 43.8953 56.8717 43.8796 56.9815C43.8796 57.0128 43.8796 57.0285 43.8796 57.0599C43.8796 57.1226 43.8638 57.1853 43.8481 57.248C43.8166 57.4362 43.7851 57.6244 43.7537 57.8282C43.7222 58.0007 43.675 58.1731 43.6278 58.3456C43.5963 58.424 43.5805 58.5024 43.5491 58.5808L43.5176 58.6435C43.5176 58.6435 43.5648 58.5338 43.5333 58.5808C43.5176 58.6279 43.4861 58.6749 43.4704 58.7063C43.4389 58.769 43.3917 58.8474 43.3445 58.9101C43.3445 58.9258 43.313 58.9571 43.2972 58.9728C43.2972 58.9728 43.3759 58.8787 43.3287 58.9258C43.2972 58.9571 43.2658 59.0042 43.2343 59.0355C43.2028 59.0669 43.1871 59.0826 43.1556 59.1139C43.1399 59.1296 43.1241 59.1453 43.0926 59.161C43.0454 59.208 43.1399 59.1296 43.1399 59.1296C43.0612 59.161 42.9982 59.2237 42.9195 59.2707C42.9038 59.2707 42.7621 59.3491 42.8566 59.3021C42.9352 59.2707 42.8093 59.3021 42.7936 59.3178C42.7149 59.3491 42.6205 59.3648 42.5418 59.3805C42.4946 59.3805 42.4474 59.3805 42.4159 59.3962C42.3529 59.3962 42.4788 59.3962 42.4788 59.3962H42.4001C42.3057 59.3962 42.227 59.3962 42.1326 59.3962C41.9437 59.3962 41.7706 59.3962 41.5817 59.3805C41.503 59.3805 41.4086 59.3648 41.3299 59.3491C41.2669 59.3491 41.3929 59.3491 41.3929 59.3491C41.3614 59.3491 41.3299 59.3491 41.3142 59.3491C41.2669 59.3491 41.204 59.3335 41.1568 59.3178C41.1096 59.3178 41.0781 59.3021 41.0309 59.2864C40.9994 59.2864 40.9836 59.2707 40.9522 59.2551C40.9364 59.2551 40.905 59.2237 40.8892 59.208C40.8735 59.208 40.8577 59.1923 40.842 59.1767C40.779 59.1453 40.9207 59.255 40.8735 59.208C40.842 59.1766 40.8105 59.1453 40.779 59.1139C40.7318 59.0512 40.7003 58.9728 40.6531 58.8944C40.6217 58.8317 40.6846 58.9571 40.6846 58.9571C40.6846 58.9415 40.6689 58.9101 40.6531 58.8944C40.6531 58.8631 40.6374 58.8317 40.6217 58.7847C40.5902 58.6906 40.5744 58.6122 40.5587 58.5181C40.5115 58.3143 40.48 58.1104 40.4485 57.9066C40.4485 57.8439 40.4485 57.9379 40.4485 57.9379C40.4485 57.9066 40.4485 57.8752 40.4485 57.8439C40.4485 57.7811 40.4485 57.7184 40.4328 57.6557C40.4328 57.5303 40.4013 57.4048 40.4013 57.2794C40.3856 57.0285 40.3698 56.7933 40.3698 56.5424C40.3698 56.0407 40.3856 55.5389 40.4485 55.0529C40.48 54.7393 40.1495 54.457 39.8505 54.457C39.5042 54.457 39.2996 54.7236 39.2524 55.0529C39.1422 56.0093 39.158 56.9658 39.2839 57.9223C39.4098 58.8787 39.5514 59.9293 40.5272 60.337C40.9522 60.5094 41.4243 60.5565 41.865 60.5722C42.29 60.5878 42.7306 60.5722 43.1399 60.431C43.5648 60.2899 43.9583 60.0547 44.2416 59.6941C44.5249 59.3334 44.7137 58.9258 44.8239 58.5024C44.9655 58.0007 45.0285 57.4676 45.0915 56.9501C45.1544 56.4013 45.2016 55.8682 45.2174 55.3194C45.2174 55.0058 44.9341 54.7236 44.6193 54.7236C44.2888 54.7236 44.037 54.9745 44.0212 55.3194H44.0055Z" fill="#231F20"/>
<path d="M33.8545 58.4389C33.8545 58.5486 33.8545 58.6584 33.886 58.7838C33.886 58.8622 33.9174 58.9406 33.9332 59.019C33.9647 59.1288 34.0119 59.2385 34.0591 59.3326C34.0906 59.411 34.1378 59.4737 34.185 59.5521C34.2165 59.5992 34.248 59.6305 34.2794 59.6619C34.3109 59.6933 34.3581 59.7246 34.4211 59.7246C34.4683 59.7403 34.5313 59.7403 34.5785 59.7246C34.6257 59.7246 34.6729 59.7089 34.7201 59.6776C34.7988 59.6305 34.8775 59.5365 34.8932 59.4424C34.909 59.3483 34.909 59.2229 34.846 59.1445C34.7831 59.0661 34.7359 58.972 34.7044 58.8779L34.7516 58.972C34.6886 58.8465 34.6572 58.7054 34.6414 58.5643V58.6741C34.6414 58.6741 34.6414 58.5173 34.6414 58.4389C34.6414 58.3918 34.6414 58.3291 34.61 58.2821C34.5942 58.235 34.5627 58.188 34.5313 58.1566C34.4998 58.1253 34.4526 58.0939 34.4053 58.0782C34.3581 58.0469 34.3109 58.0469 34.248 58.0469C34.1535 58.0469 34.0434 58.0782 33.9647 58.1566C33.886 58.235 33.8545 58.3291 33.8545 58.4389Z" fill="#231F20"/>
<path d="M35.1603 58.8005L35.302 59.5845C35.302 59.5845 35.3334 59.6786 35.3649 59.7256C35.3964 59.7727 35.4279 59.804 35.4751 59.8197C35.5223 59.8511 35.5695 59.8668 35.6167 59.8668C35.664 59.8668 35.7269 59.8668 35.7741 59.8668L35.8686 59.8197C35.8686 59.8197 35.9787 59.7413 36.0102 59.6786L36.0574 59.5845C36.0574 59.5845 36.0732 59.4434 36.0574 59.3807L35.9158 58.5967C35.9158 58.5967 35.8843 58.5026 35.8528 58.4556C35.8213 58.4085 35.7899 58.3772 35.7426 58.3615C35.6954 58.3301 35.6482 58.3145 35.601 58.3145C35.5538 58.3145 35.4908 58.3145 35.4436 58.3145L35.3492 58.3615C35.3492 58.3615 35.239 58.4399 35.2075 58.5026L35.1603 58.5967C35.1603 58.5967 35.1446 58.7378 35.1603 58.8005Z" fill="#231F20"/>
<path d="M41.0628 58.33C41.0314 58.4398 41.0156 58.5495 41.0156 58.6593C41.0156 58.7377 41.0156 58.8161 41.0156 58.9102C41.0156 59.0199 41.0471 59.1297 41.0786 59.2394C41.1101 59.3492 41.1573 59.459 41.2045 59.553C41.236 59.6001 41.2674 59.6314 41.2989 59.6628C41.3304 59.6942 41.3776 59.7255 41.4406 59.7255C41.4878 59.7412 41.5507 59.7412 41.598 59.7255C41.6452 59.7255 41.6924 59.7098 41.7396 59.6785C41.8183 59.6314 41.897 59.5374 41.9127 59.4433V59.3335C41.9127 59.3335 41.9127 59.1924 41.8655 59.1297C41.8655 59.114 41.8498 59.0983 41.834 59.067L41.8813 59.161C41.834 59.0513 41.8026 58.9415 41.7868 58.8161V58.9258C41.7868 58.8004 41.7868 58.6906 41.7868 58.5652V58.675C41.7868 58.675 41.7868 58.5652 41.8026 58.5182C41.8183 58.4711 41.8183 58.4084 41.8026 58.3614C41.8026 58.3143 41.7868 58.2673 41.7553 58.2203C41.7239 58.1732 41.6924 58.1419 41.6609 58.1105C41.6294 58.0791 41.5822 58.0478 41.5193 58.0478C41.4248 58.0321 41.2989 58.0321 41.2202 58.0948C41.1415 58.1575 41.0628 58.2359 41.0471 58.33H41.0628Z" fill="#231F20"/>
<path d="M42.3375 58.6756C42.3375 58.6756 42.3532 58.7697 42.369 58.801V58.6913C42.369 58.8167 42.369 58.9421 42.369 59.0519V58.9421C42.369 59.0676 42.3375 59.1773 42.2903 59.2871L42.3375 59.193C42.3375 59.193 42.3217 59.2401 42.306 59.2557C42.2745 59.3028 42.2588 59.3498 42.2588 59.3969C42.2588 59.4439 42.2588 59.5066 42.2588 59.5537C42.2588 59.6007 42.2903 59.6477 42.3217 59.6948C42.3532 59.7418 42.3847 59.7732 42.4319 59.7889C42.5263 59.8359 42.6365 59.8672 42.7309 59.8359C42.8254 59.8045 42.9198 59.7418 42.967 59.6634C43.0142 59.5693 43.0615 59.4596 43.0929 59.3498C43.1244 59.2401 43.1402 59.1303 43.1559 59.0205C43.1559 58.9421 43.1559 58.8637 43.1559 58.7853C43.1559 58.6756 43.1402 58.5658 43.1087 58.4561C43.1087 58.409 43.0772 58.362 43.0457 58.3149C43.0142 58.2679 42.9828 58.2366 42.9356 58.2209C42.8883 58.1895 42.8411 58.1738 42.7939 58.1738C42.7467 58.1738 42.6837 58.1738 42.6365 58.1738C42.5421 58.2052 42.4477 58.2679 42.4004 58.3463L42.3532 58.4404C42.3532 58.4404 42.3375 58.5815 42.3532 58.6442L42.3375 58.6756Z" fill="#231F20"/>
<path d="M31.2573 42.085C29.3215 44.3586 27.7948 46.9615 26.756 49.7525C26.457 50.5521 26.0635 51.4929 26.394 52.3396C26.5042 52.6375 26.7875 52.8414 27.118 52.7473C27.4013 52.6689 27.6531 52.3239 27.5272 52.026C27.3698 51.634 27.48 51.242 27.6059 50.85C27.7476 50.4267 27.905 50.0033 28.0624 49.5957C28.3771 48.796 28.7391 48.0277 29.1483 47.2594C29.9667 45.7071 30.9425 44.2488 32.0915 42.9161C32.2961 42.6809 32.3275 42.3202 32.0915 42.085C31.8869 41.8812 31.4619 41.8342 31.2573 42.085Z" fill="#231F20"/>
<path d="M27.0552 55.0205L27.8579 54.2679L28.094 54.0484C28.094 54.0484 28.1884 53.9386 28.2199 53.8602C28.2514 53.7975 28.2671 53.7191 28.2671 53.6407C28.2671 53.5623 28.2671 53.4839 28.2199 53.4212C28.1884 53.3428 28.157 53.2801 28.094 53.233L27.9681 53.1389C27.8737 53.0919 27.7792 53.0605 27.6691 53.0605H27.5117C27.4172 53.1076 27.3228 53.1546 27.2441 53.233L26.4414 53.9857L26.2054 54.2052C26.2054 54.2052 26.1109 54.3149 26.0794 54.3933C26.048 54.456 26.0322 54.5345 26.0322 54.6128C26.0322 54.6912 26.0322 54.7696 26.0794 54.8324C26.1109 54.9108 26.1424 54.9735 26.2054 55.0205L26.3313 55.1146C26.4257 55.1616 26.5201 55.193 26.6303 55.193H26.7877C26.8821 55.146 26.9766 55.0989 27.0552 55.0205Z" fill="#231F20"/>
<path d="M27.8267 55.0055C27.6694 55.2093 27.5277 55.4288 27.4175 55.6483C27.2759 55.9149 27.1657 56.1971 27.0713 56.495C27.0241 56.6362 26.9926 56.7773 26.9611 56.9184C26.9296 56.9968 26.9296 57.0752 26.9611 57.1536C26.9611 57.232 26.9926 57.3104 27.0241 57.3731C27.1028 57.4985 27.2287 57.6083 27.3703 57.6397C27.5277 57.671 27.6851 57.671 27.8267 57.5769C27.9527 57.4985 28.0628 57.3731 28.0943 57.232C28.1573 56.9341 28.2359 56.6518 28.3461 56.3853L28.2832 56.5264C28.4248 56.1971 28.5979 55.8835 28.8183 55.6013C28.8655 55.5386 28.8812 55.4602 28.8812 55.3818C28.897 55.3034 28.8812 55.225 28.8812 55.1466C28.8498 55.0055 28.7396 54.8643 28.6137 54.8016C28.472 54.7232 28.3146 54.6919 28.1573 54.7389L28.0156 54.8016C27.9212 54.8487 27.8582 54.9271 27.811 55.0055H27.8267Z" fill="#231F20"/>
<path d="M28.5499 57.4516C28.8018 57.8749 29.1165 58.2669 29.4943 58.5962C29.9192 58.9568 30.3756 59.2234 30.895 59.4116C31.1311 59.5056 31.3829 59.5684 31.6347 59.6154C31.7921 59.6468 31.9495 59.6468 32.0912 59.5527C32.2171 59.4743 32.3272 59.3488 32.3587 59.2077C32.3902 59.0509 32.3902 58.8941 32.2958 58.753C32.2171 58.6276 32.0912 58.5021 31.9495 58.4865C31.6505 58.4394 31.3514 58.3453 31.0839 58.2356L31.2255 58.2983C30.9107 58.1729 30.6275 58.0004 30.3599 57.7965L30.4858 57.8906C30.2182 57.6868 29.9822 57.4516 29.7776 57.2007L29.872 57.3262C29.7618 57.185 29.6674 57.0439 29.5887 56.9028C29.51 56.7774 29.3841 56.6676 29.2424 56.6362C29.1008 56.6049 28.9119 56.6206 28.786 56.699C28.5185 56.8714 28.4083 57.2164 28.5814 57.4986L28.5499 57.4516Z" fill="#231F20"/>
<path d="M46.571 42.3049C47.1219 43.2143 47.6413 44.1395 48.1449 45.0802C48.3967 45.5663 48.6643 46.0524 48.9004 46.5541C49.1207 46.9775 49.3568 47.4165 49.4984 47.8712C49.6243 48.2632 49.6873 48.6552 49.7975 49.0472C49.9234 49.5333 50.0493 50.0037 50.1437 50.4898C50.3169 51.4462 50.3326 52.4341 50.0808 53.3749C49.8919 54.1118 51.0251 54.4254 51.214 53.6885C51.4973 52.6222 51.4815 51.5246 51.3241 50.4271C51.2454 49.9253 51.1353 49.4235 50.9936 48.9218C50.8834 48.4984 50.8048 48.0594 50.6631 47.636C50.5057 47.1186 50.2539 46.6482 50.0178 46.1621C49.7817 45.6761 49.5142 45.1743 49.2624 44.6882C48.7272 43.6847 48.1764 42.6969 47.5783 41.7091C47.1848 41.0662 46.1618 41.6464 46.5553 42.3049H46.571Z" fill="#231F20"/>
<path d="M49.1371 55.2571C49.1371 55.2571 49.2001 55.3669 49.2315 55.4139C49.2945 55.4923 49.3574 55.5864 49.4361 55.6648C49.5148 55.7432 49.5935 55.8059 49.688 55.8686C49.7352 55.9 49.7824 55.9313 49.8453 55.9627C49.924 55.9941 50.0027 56.0254 50.0657 56.0568C50.0972 56.0568 50.1286 56.0725 50.1601 56.0881C50.2388 56.1195 50.3175 56.1195 50.3962 56.0881C50.4749 56.0881 50.5536 56.0568 50.6165 56.0254C50.6795 55.9941 50.7425 55.9313 50.7897 55.8686C50.8369 55.8059 50.8841 55.7432 50.8998 55.6648V55.508C50.9156 55.3982 50.8998 55.3042 50.8369 55.2101L50.7425 55.0846C50.7425 55.0846 50.5851 54.9592 50.4749 54.9278C50.4277 54.9278 50.3962 54.8965 50.349 54.8808L50.4906 54.9435C50.4119 54.9122 50.3175 54.8651 50.2546 54.8024L50.3805 54.8965C50.3805 54.8965 50.2388 54.771 50.1759 54.6926L50.2703 54.8181C50.2703 54.8181 50.1916 54.7083 50.1601 54.6456C50.1286 54.5829 50.0657 54.5202 50.0027 54.4731C49.9398 54.4261 49.8768 54.379 49.7981 54.3634C49.7194 54.332 49.6407 54.332 49.5621 54.3634C49.4834 54.3634 49.4047 54.3947 49.3417 54.4261L49.2158 54.5202C49.2158 54.5202 49.0899 54.677 49.0584 54.7867V54.9435C49.0427 55.0533 49.0584 55.1474 49.1214 55.2414L49.1371 55.2571Z" fill="#231F20"/>
<path d="M48.4599 56.3686C48.4285 56.5411 48.3655 56.7136 48.3025 56.8861L48.3655 56.7449C48.2553 56.9958 48.1294 57.2153 47.9563 57.4349L48.0507 57.3094C47.8776 57.5289 47.673 57.7328 47.4527 57.9052L47.5786 57.8112C47.3425 57.9836 47.0907 58.1404 46.8231 58.2502L46.9648 58.1875C46.6972 58.2972 46.4296 58.3756 46.1463 58.407H46.3037C46.0519 58.407 45.8001 58.407 45.5483 58.3913C45.4066 58.3756 45.2178 58.4697 45.1233 58.5638C45.0132 58.6736 44.9502 58.8304 44.9502 58.9871C44.9502 59.1439 45.0132 59.3007 45.1233 59.4105L45.2492 59.5046C45.3437 59.5516 45.4381 59.583 45.5483 59.583C46.2565 59.6771 46.9805 59.5046 47.6258 59.1753C48.2711 58.846 48.8062 58.36 49.1682 57.7641C49.3728 57.4349 49.5302 57.0585 49.6246 56.6665C49.6561 56.5097 49.6403 56.3529 49.5616 56.2118C49.483 56.0864 49.357 55.9766 49.2154 55.9453C48.9164 55.8826 48.5544 56.0393 48.4914 56.3529L48.4599 56.3686Z" fill="#231F20"/>
<path d="M50.7417 53.0149C53.496 51.4313 53.9839 48.0915 54.9911 45.3789C55.2744 44.5949 55.6364 43.8266 56.1558 43.168C56.3447 42.9171 56.4076 42.5879 56.1558 42.337C55.9512 42.1331 55.5105 42.0861 55.3217 42.337C54.3301 43.6071 53.8107 45.1123 53.3386 46.6333C52.9136 47.9817 52.5044 49.3459 51.7017 50.5218C51.2925 51.1177 50.7732 51.6351 50.1436 51.9957C49.5141 52.3564 50.0807 53.3912 50.7417 53.0149Z" fill="#231F20"/>
<path d="M57.2102 41.7088C57.2102 41.7088 57.2889 41.6461 57.3204 41.6148C57.3519 41.5834 57.4463 41.5207 57.3676 41.5834C57.462 41.5207 57.5565 41.4423 57.6666 41.3796C57.8398 41.2698 58.0286 41.1757 58.2332 41.0817C58.2962 41.0503 58.2175 41.0817 58.2018 41.0817C58.2332 41.0817 58.2647 41.0503 58.2962 41.0503C58.3434 41.0346 58.3906 41.0189 58.4378 41.0033C58.548 40.9719 58.6424 40.9405 58.7526 40.9092C58.847 40.8778 58.9572 40.8621 59.0516 40.8465C59.1146 40.8465 59.1618 40.8308 59.2248 40.8151C59.1146 40.8308 59.2562 40.8151 59.2877 40.8151C59.4923 40.7994 59.7127 40.7837 59.9173 40.8151C59.9802 40.8151 60.0274 40.8151 60.0904 40.8151C60.1061 40.8151 60.2478 40.8308 60.1848 40.8151C60.1219 40.7994 60.2478 40.8151 60.2793 40.8151C60.3422 40.8151 60.3894 40.8308 60.4524 40.8465C60.657 40.8935 60.8616 40.9562 61.0662 41.0346C61.1134 41.0503 61.1606 41.066 61.2079 41.0817C61.1134 41.0346 61.2078 41.0817 61.2551 41.0973C61.3495 41.1444 61.4439 41.1914 61.5384 41.2385C61.6485 41.3012 61.7587 41.3639 61.8531 41.4266C61.9004 41.458 61.9476 41.4893 61.9948 41.5207C62.0105 41.5207 62.042 41.552 62.0577 41.5677C62.0105 41.5364 62.0105 41.5364 62.0577 41.5677C62.2466 41.7245 62.4197 41.897 62.5929 42.0852C62.7975 42.3204 63.2224 42.3047 63.427 42.0852C63.6474 41.8343 63.6474 41.505 63.427 41.2541C62.0892 39.7332 59.8386 39.1687 57.9499 39.9213C57.3833 40.1565 56.864 40.4545 56.4075 40.8621C56.1715 41.066 56.1872 41.4893 56.4075 41.6932C56.6594 41.9127 56.9899 41.9127 57.2417 41.6932L57.2102 41.7088Z" fill="#231F20"/>
<path d="M61.4758 43.8569C61.6331 43.9509 61.7905 44.045 61.9322 44.1548L61.8063 44.0607C62.0423 44.2332 62.247 44.437 62.4201 44.6722L62.3256 44.5468C62.5145 44.7977 62.6719 45.0642 62.7978 45.3465L62.7349 45.2053C62.845 45.4719 62.9237 45.7698 62.9709 46.052V45.8952C62.9709 45.9893 62.9709 46.0834 62.9709 46.1618C62.9709 46.3186 63.0339 46.4597 63.1441 46.5852C63.2542 46.6949 63.4116 46.7576 63.569 46.7576C63.7264 46.7576 63.8838 46.6949 63.994 46.5852C64.1041 46.4754 64.1671 46.3186 64.1671 46.1618C64.1199 45.0956 63.632 44.0607 62.8293 43.3551C62.5932 43.1513 62.3414 42.9631 62.0738 42.822C61.9322 42.7436 61.7748 42.7279 61.6174 42.7593C61.4758 42.7906 61.3341 42.9004 61.2711 43.0258C61.1295 43.2924 61.1925 43.6687 61.4758 43.8255V43.8569Z" fill="#231F20"/>
<path d="M49.5936 58.7999C51.9387 59.1762 54.3939 58.6901 56.4085 57.4044C56.9751 57.0437 57.5102 56.6204 57.9823 56.15C58.2027 55.9305 58.2027 55.5385 57.9823 55.3189C57.762 55.0994 57.3685 55.0994 57.1482 55.3189C56.739 55.7109 56.4085 55.9932 55.9678 56.2911C55.5271 56.589 55.0549 56.8399 54.5828 57.0594C54.5513 57.0594 54.5198 57.0908 54.5041 57.0908C54.4411 57.1221 54.3782 57.1378 54.2995 57.1692C54.1736 57.2162 54.0477 57.2632 53.9218 57.3103C53.6542 57.4043 53.4024 57.4671 53.1348 57.5455C52.8673 57.6239 52.6154 57.6552 52.3479 57.7023C52.2377 57.7179 52.3636 57.7023 52.2692 57.7023C52.2062 57.7023 52.1433 57.7023 52.0803 57.7179C51.9387 57.7179 51.797 57.7493 51.6554 57.7493C51.3563 57.765 51.0416 57.765 50.7425 57.7493C50.6009 57.7493 50.4592 57.7336 50.3176 57.7179C50.2389 57.7179 50.1602 57.7023 50.0815 57.6866C50.0343 57.6866 49.9871 57.6866 49.9241 57.6552C49.6251 57.6082 49.2788 57.7336 49.2001 58.0629C49.1372 58.3451 49.2788 58.7371 49.6093 58.7842L49.5936 58.7999Z" fill="#231F20"/>
<path d="M57.1477 54.1578C57.2579 54.2832 57.3996 54.3929 57.5255 54.487C57.6199 54.5654 57.7301 54.6281 57.8402 54.6752C58.1078 54.8163 58.3911 54.9104 58.6744 54.9574C58.8633 54.9888 59.0521 55.0045 59.241 54.9888C59.3984 54.9888 59.54 54.9261 59.6659 54.8163C59.7289 54.7693 59.7604 54.7065 59.7918 54.6281C59.8233 54.5654 59.8391 54.487 59.8391 54.4086C59.8391 54.2518 59.7761 54.095 59.6659 53.9853C59.5558 53.8755 59.3984 53.7971 59.241 53.8128C59.1151 53.8128 58.9892 53.8128 58.8633 53.8128H59.0206C58.8318 53.8128 58.6429 53.7501 58.454 53.6874L58.5957 53.7501C58.4226 53.6717 58.2652 53.5933 58.1235 53.4835L58.2494 53.5776C58.155 53.5149 58.0763 53.4365 57.9976 53.3424C57.9032 53.2326 57.7301 53.1699 57.5727 53.1699C57.4153 53.1699 57.2579 53.2326 57.1477 53.3424C57.0376 53.4522 56.9746 53.609 56.9746 53.7658C56.9746 53.9226 57.0376 54.0637 57.1477 54.1891V54.1578Z" fill="#231F20"/>
<path d="M59.4923 52.8877C61.2393 51.6177 62.2623 49.5166 62.2151 47.3684C62.2151 46.7726 62.105 46.1611 61.9161 45.5809C61.8217 45.283 61.5069 45.0635 61.1921 45.1733C60.8931 45.2673 60.6727 45.5809 60.7829 45.8945C60.8616 46.114 60.9246 46.3492 60.956 46.5844C60.956 46.6315 60.9718 46.6942 60.9875 46.7412C60.9875 46.7569 60.9875 46.7883 60.9875 46.804C60.9718 46.6785 60.9875 46.7569 60.9875 46.804C60.9875 46.9294 61.019 47.0392 61.019 47.1646C61.019 47.3998 61.019 47.635 61.019 47.8702C61.019 47.9799 61.0032 48.0897 60.9875 48.1995C60.9875 48.2151 60.9718 48.3249 60.9875 48.2465C60.9875 48.1681 60.9875 48.2465 60.9875 48.2622C60.9875 48.3249 60.9718 48.3876 60.956 48.4503C60.9088 48.6855 60.8616 48.9207 60.7829 49.1403C60.7514 49.25 60.7199 49.3441 60.6727 49.4538C60.657 49.5009 60.6413 49.5636 60.6098 49.6106C60.6098 49.642 60.5783 49.6734 60.5783 49.7047C60.5468 49.7831 60.6413 49.5793 60.5783 49.7047C60.3894 50.1281 60.1534 50.5201 59.8701 50.9121C59.8386 50.9591 59.8858 50.8964 59.8858 50.8807C59.8543 50.9121 59.8386 50.9434 59.8071 50.9748C59.7599 51.0218 59.7284 51.0689 59.6812 51.1159C59.5868 51.21 59.5081 51.3197 59.3979 51.4138C59.3035 51.5079 59.209 51.5863 59.1146 51.6647C59.0674 51.7117 59.0044 51.7588 58.9572 51.8058C58.91 51.8529 58.9729 51.8058 58.9887 51.7901C58.9572 51.8215 58.91 51.8529 58.8785 51.8685C58.6267 52.0567 58.485 52.386 58.6739 52.6682C58.8313 52.9191 59.209 53.0759 59.4766 52.872L59.4923 52.8877Z" fill="#231F20"/>
<path d="M19.5788 18.8302C19.5473 20.5863 19.6732 22.3581 19.9723 24.0829C20.1769 25.2903 21.4675 27.799 20.7907 28.8182C20.2556 29.6492 19.5945 30.4176 19.1539 31.3113C18.7132 32.2051 18.4928 33.2713 18.8863 34.1807C19.2011 34.0709 19.5159 33.9612 19.8464 33.8514C19.327 35.5135 18.7919 37.2853 19.264 38.963C19.4529 39.653 19.8149 40.2958 20.3185 40.8133C20.7277 40.7192 21.1527 40.6251 21.5619 40.531C21.7193 42.491 22.8839 44.3412 24.568 45.3604C24.93 44.89 25.1818 44.3255 25.292 43.7454C25.591 45.0625 27.0075 45.7994 28.2981 46.1758C31.0523 46.9911 33.964 47.0068 36.8285 46.9441C40.0077 46.8657 43.2027 46.6932 46.3347 46.1758C47.8928 45.9092 49.5611 45.4702 50.4739 44.2001C50.5054 44.6391 51.2137 44.5137 51.5599 44.2315C53.1967 42.9144 54.4244 41.1112 55.0697 39.1198C54.8336 39.4334 55.29 39.8882 55.6677 39.8098C56.0455 39.7314 56.2973 39.3394 56.4547 38.9944C56.9111 37.9909 57.1157 36.8776 57.037 35.78C56.9426 36.47 58.0128 36.8463 58.5479 36.3916C59.083 35.9368 59.1145 35.1215 58.9256 34.4473C58.4377 32.6754 56.8167 31.3583 56.4232 29.5708C56.0769 28.0499 56.675 26.4976 57.037 24.9767C57.7295 22.0916 58.0285 15.8667 55.2743 13.8126C53.9837 12.8405 52.9449 13.9381 51.859 14.5653C50.1592 15.5531 48.6483 16.8859 47.4521 18.4382C47.0586 18.9556 46.6652 19.5358 46.0514 19.771C45.469 20.0062 44.808 19.8807 44.1942 19.771C42.0065 19.4103 39.7716 19.2692 37.5524 19.3633C36.01 19.426 33.1771 19.2065 31.7763 19.818C31.6032 19.8964 31.4301 19.9905 31.2412 19.9591C31.0209 19.9278 30.8635 19.7396 30.7218 19.5828C28.6915 17.074 26.3937 14.581 23.3404 13.499C20.3343 12.4171 19.626 16.682 19.5788 18.8302Z" fill="white"/>
<path d="M54.2668 17.7323C54.2668 17.7323 54.1566 17.6696 54.1094 17.6383C53.7632 17.5285 53.4169 17.5599 53.0392 17.701C52.3781 17.9519 51.8116 18.4379 51.3237 18.924C50.7728 19.4571 50.2849 20.053 49.86 20.6958C49.6553 20.9937 49.4665 21.3073 49.2776 21.6366C49.2147 21.7464 49.1517 21.8561 49.1045 21.9816C49.1674 21.9973 49.2147 22.0129 49.2776 22.06C49.8285 22.4363 50.6154 22.0913 51.2135 22.4363C51.7643 22.7656 51.843 23.4398 51.9847 24.0043C52.0634 24.3649 52.0634 24.4747 52.268 24.6942C52.5828 25.0391 52.9447 25.3684 53.3067 25.682C53.3382 25.7134 53.3697 25.7447 53.4012 25.7604C53.5428 25.5095 53.6687 25.243 53.7632 25.0078C54.4084 23.3457 54.7704 21.4955 54.7232 19.708C54.7075 19.0024 54.5973 18.2655 54.2983 17.7323C54.2983 17.7323 54.2983 17.7167 54.2825 17.701L54.2668 17.7323Z" fill="#F9BDBE"/>
<path d="M26.4726 21.4338C26.3152 20.2735 25.308 19.1132 24.4738 18.3605C24.0961 18.0313 23.6239 17.6863 23.1203 17.4668C22.7268 17.5766 22.412 17.7334 22.1445 17.9686C21.9084 18.6114 21.814 19.317 21.7825 19.9912C21.7195 21.324 21.8454 22.6568 22.1287 23.9582C22.2547 24.5384 22.412 25.1342 22.5852 25.6987C22.6953 26.0593 22.837 26.4984 23.0258 26.8747C23.0416 26.6395 23.136 26.42 23.3721 26.2788C23.9072 25.9652 24.3479 25.5576 24.7886 25.1342C24.5997 24.2562 24.7099 23.3938 25.4024 22.7195C25.7172 22.4216 26.0005 22.2648 26.2366 22.0296C26.4569 21.8258 26.5041 21.7944 26.4569 21.4338H26.4726Z" fill="#F9BDBE"/>
<path d="M31.0369 35.091C32.3668 35.091 33.445 34.0169 33.445 32.692C33.445 31.367 32.3668 30.293 31.0369 30.293C29.707 30.293 28.6289 31.367 28.6289 32.692C28.6289 34.0169 29.707 35.091 31.0369 35.091Z" fill="#FBBA15"/>
<path d="M45.6896 35.1382C47.0456 35.1382 48.1449 34.0431 48.1449 32.6921C48.1449 31.3412 47.0456 30.2461 45.6896 30.2461C44.3336 30.2461 43.2344 31.3412 43.2344 32.6921C43.2344 34.0431 44.3336 35.1382 45.6896 35.1382Z" fill="#3EB8EA"/>
<path d="M31.0365 34.2295C31.8884 34.2295 32.5789 33.5415 32.5789 32.6929C32.5789 31.8442 31.8884 31.1562 31.0365 31.1562C30.1847 31.1562 29.4941 31.8442 29.4941 32.6929C29.4941 33.5415 30.1847 34.2295 31.0365 34.2295Z" fill="#231F20"/>
<path d="M45.6899 34.2295C46.5417 34.2295 47.2323 33.5415 47.2323 32.6929C47.2323 31.8442 46.5417 31.1562 45.6899 31.1562C44.838 31.1562 44.1475 31.8442 44.1475 32.6929C44.1475 33.5415 44.838 34.2295 45.6899 34.2295Z" fill="#231F20"/>
<path d="M37.9778 35.3107C38.7427 35.3107 39.3628 34.9246 39.3628 34.4483C39.3628 33.972 38.7427 33.5859 37.9778 33.5859C37.2129 33.5859 36.5928 33.972 36.5928 34.4483C36.5928 34.9246 37.2129 35.3107 37.9778 35.3107Z" fill="#231F20"/>
<path d="M28.9122 21.6844C34.4837 19.4108 40.7792 19.2226 46.4923 21.1826C47.2163 21.4335 47.5153 20.2889 46.8071 20.0537C40.9365 18.031 34.3578 18.2034 28.6131 20.5554C28.3141 20.6809 28.1095 20.9474 28.2039 21.2767C28.2826 21.5589 28.6289 21.8098 28.9279 21.6844H28.9122Z" fill="#231F20"/>
<path d="M22.1125 13.9538C24.6621 15.0514 27.0072 16.5723 29.006 18.4853C29.5726 19.0341 30.1235 19.6142 30.6429 20.2101C30.8475 20.4453 31.2724 20.4296 31.477 20.2101C31.7131 19.9749 31.6816 19.6142 31.477 19.379C29.6198 17.2152 27.3692 15.3807 24.8825 14.0009C24.1742 13.6089 23.4503 13.2482 22.7105 12.9346C22.4115 12.8092 22.081 12.8406 21.9079 13.1385C21.7662 13.3893 21.8292 13.8127 22.1125 13.9381V13.9538Z" fill="#231F20"/>
<path d="M20.2397 14.2356C19.437 16.4151 18.9648 18.7357 18.9176 21.0563C18.8861 22.9065 19.138 24.7881 19.9092 26.4658C20.0351 26.7481 20.46 26.8265 20.7118 26.6697C21.0109 26.4972 21.0581 26.1522 20.9164 25.87C20.2397 24.3804 20.0508 22.5929 20.098 20.9465C20.1452 18.7514 20.6174 16.5875 21.3729 14.5335C21.483 14.2356 21.247 13.8906 20.9637 13.8122C20.6331 13.7181 20.3498 13.922 20.2397 14.2199V14.2356Z" fill="#231F20"/>
<path d="M23.0095 18.2812C23.2141 18.391 23.4187 18.5007 23.6076 18.6262C23.6862 18.6732 23.7649 18.7359 23.8436 18.783C23.8908 18.8143 23.9381 18.8457 23.9853 18.8771C24.001 18.8771 24.1741 19.0182 24.0955 18.9555C24.4417 19.222 24.7722 19.5199 25.0713 19.8492C25.2129 20.006 25.3546 20.1628 25.4805 20.3196C25.4805 20.3196 25.5906 20.4764 25.5277 20.3823C25.5277 20.398 25.5592 20.4294 25.5749 20.445C25.6064 20.4921 25.6378 20.5234 25.6693 20.5705C25.7952 20.7586 25.9211 20.9468 26.0313 21.1506C26.0943 21.2604 26.1572 21.3701 26.2044 21.4799C26.2044 21.5113 26.2359 21.5426 26.2517 21.574C26.2989 21.6837 26.2044 21.4485 26.2517 21.5583C26.2674 21.621 26.2989 21.6837 26.3146 21.7308C26.3304 21.7935 26.3461 21.8405 26.3618 21.9033C26.3618 21.9189 26.3618 21.9503 26.3618 21.966C26.3776 22.0444 26.3304 21.9973 26.3618 21.9033C26.3618 21.9346 26.3618 22.013 26.3618 22.0444C26.3304 21.9189 26.3933 21.9033 26.3618 21.9817C26.3461 22.0287 26.3146 22.0757 26.3933 21.9189C26.3304 22.0601 26.4877 21.8249 26.3933 21.9189C26.535 21.7935 26.4877 21.8562 26.4405 21.8719C26.3618 21.9033 26.5192 21.8405 26.5192 21.8405C26.5192 21.8405 26.4563 21.8562 26.4405 21.8562C26.3461 21.8876 26.5979 21.8562 26.4877 21.8562C26.4563 21.8562 26.4248 21.8562 26.3933 21.8562C26.3776 21.8562 26.2202 21.8562 26.3146 21.8562C26.4405 21.8562 26.2359 21.8405 26.2359 21.8405C26.173 21.8405 26.11 21.8092 26.0471 21.8092C25.8897 21.7778 25.7323 21.7621 25.5749 21.7465C25.2916 21.7465 25.0083 21.8092 24.7722 21.9503C24.3158 22.2482 24.064 22.797 24.0482 23.3458C24.0482 23.9416 24.3315 24.4747 24.6148 24.9765C24.7565 25.2274 25.087 25.3215 25.3546 25.2117C25.6064 25.1019 25.811 24.7883 25.7008 24.5218C25.6693 24.4277 25.6221 24.3336 25.5906 24.2239C25.4805 23.9416 25.1972 23.7064 24.8667 23.8162C24.5834 23.9103 24.3315 24.2395 24.4574 24.5375C24.4889 24.6315 24.5361 24.7256 24.5676 24.8354L25.6536 24.3807C25.5906 24.2709 25.5277 24.1611 25.4805 24.0514C25.449 24.0043 25.4332 23.9416 25.4018 23.8789C25.3231 23.7064 25.4332 23.973 25.3703 23.8005C25.3388 23.7064 25.3073 23.6124 25.2759 23.5183C25.2286 23.3615 25.2759 23.6124 25.2759 23.4399C25.2759 23.3772 25.2759 23.3144 25.2759 23.2517C25.2759 23.3928 25.2759 23.2517 25.2759 23.2204C25.2759 23.1733 25.3073 23.1263 25.3231 23.0792C25.2916 23.189 25.3073 23.1263 25.3231 23.0792C25.3546 23.0479 25.3703 23.0008 25.4018 22.9538C25.3231 23.0636 25.4018 22.9538 25.4332 22.9381C25.5277 22.844 25.3388 22.9852 25.449 22.9224C25.5749 22.844 25.3231 22.9538 25.4805 22.9224C25.5592 22.9224 25.5592 22.9068 25.5119 22.9224C25.5434 22.9224 25.5749 22.9224 25.6064 22.9224C25.6536 22.9224 25.7165 22.9224 25.7638 22.9224C25.6536 22.9224 25.8582 22.9381 25.8582 22.9381C25.9998 22.9695 26.1572 22.9852 26.2989 23.0165C26.472 23.0322 26.6451 23.0322 26.834 23.0008C27.1802 22.9224 27.4793 22.6716 27.558 22.3266C27.7154 21.7621 27.4321 21.1506 27.1645 20.6646C26.8812 20.1314 26.5192 19.6454 26.1257 19.2063C25.4332 18.4223 24.5991 17.7638 23.6705 17.2777C23.4029 17.1366 23.0095 17.1993 22.8678 17.4815C22.7262 17.7638 22.7891 18.1244 23.0724 18.2812H23.0095Z" fill="#231F20"/>
<path d="M52.8506 17.263C52.3784 17.5139 51.9377 17.8118 51.5285 18.141C50.9619 18.5801 50.4111 19.0348 49.9389 19.5679C49.4982 20.0697 49.0733 20.6341 48.9001 21.2927C48.8215 21.6063 48.79 21.9512 48.8844 22.2805C49.0418 22.8763 49.813 22.8763 50.2852 22.7666C50.474 22.7195 50.6471 22.6568 50.8203 22.6098C50.8675 22.6098 50.899 22.5941 50.9462 22.5784C50.9777 22.5784 51.135 22.5471 51.0249 22.5627C50.9147 22.5784 51.0406 22.5627 51.0721 22.5627C51.0878 22.5627 51.1036 22.5627 51.1351 22.5627C51.1823 22.5627 50.9777 22.5314 51.0721 22.5627C51.0721 22.5627 51.1036 22.5627 51.1193 22.5627C51.2137 22.5784 51.0878 22.5627 51.0721 22.5471L51.1193 22.5784C51.1823 22.6098 51.0878 22.5627 51.0721 22.5471L51.1193 22.5941C51.0878 22.5941 51.0564 22.4687 51.0878 22.5784C51.1036 22.6411 51.0721 22.5157 51.0564 22.5157C51.0406 22.5157 51.0721 22.5941 51.0878 22.6098C51.0878 22.6255 51.1036 22.7195 51.0878 22.6098C51.0721 22.5157 51.0878 22.6255 51.0878 22.6411C51.0878 22.6882 51.0878 22.7509 51.0878 22.7979C51.0878 22.8293 51.0878 22.845 51.0878 22.8763C51.0878 22.845 51.1036 22.7509 51.0878 22.8293C51.0878 22.892 51.0721 22.9547 51.0564 23.0175C50.9934 23.3154 51.1508 23.6603 51.4656 23.7387C51.7646 23.8015 52.1266 23.6447 52.1895 23.3311C52.284 22.892 52.3312 22.4373 52.1266 22.014C51.922 21.5906 51.5128 21.3711 51.0721 21.3711C50.7573 21.3711 50.4425 21.4808 50.1435 21.5749C50.0806 21.5906 50.0176 21.6063 49.9546 21.622C49.9232 21.622 49.8917 21.622 49.8602 21.6376C49.7028 21.669 49.9704 21.6376 49.8602 21.6376C49.8287 21.6376 49.7973 21.6376 49.7658 21.6376C49.6871 21.6376 49.6713 21.6063 49.813 21.6376C49.7815 21.6376 49.75 21.6376 49.7343 21.622C49.6399 21.6063 49.8759 21.7004 49.7343 21.622L50.0019 21.9669C50.0019 21.9669 50.0019 21.8885 49.9704 21.8572C50.0176 22.014 49.9704 21.9983 49.9704 21.9512C49.9704 21.9356 49.9704 21.9042 49.9704 21.8885C49.9704 21.8572 49.9704 21.8258 49.9704 21.7944C49.9704 21.7631 49.9704 21.7474 49.9704 21.716C49.9704 21.6533 50.0176 21.6063 49.9704 21.7788C49.9861 21.716 50.0019 21.622 50.0176 21.5592C50.0176 21.5122 50.0491 21.4808 50.0648 21.4338C50.0648 21.4181 50.0648 21.4024 50.0806 21.3868C50.112 21.2927 50.0806 21.3868 50.0648 21.4338C50.1592 21.2613 50.2379 21.0888 50.3481 20.932C50.3953 20.8537 50.4583 20.7753 50.5055 20.6969C50.537 20.6655 50.6157 20.5871 50.5055 20.7125C50.5055 20.6969 50.537 20.6812 50.5527 20.6655C50.5842 20.6185 50.6314 20.5714 50.6629 20.5244C50.9462 20.1951 51.261 19.8815 51.5915 19.5993C51.7489 19.4581 51.922 19.317 52.0951 19.1759C52.0951 19.1759 52.1895 19.0975 52.1109 19.1759C52.0322 19.2543 52.1108 19.1759 52.1266 19.1759C52.1581 19.1446 52.2053 19.1132 52.2368 19.0975C52.3155 19.0348 52.4099 18.9721 52.5043 18.9094C52.8034 18.7055 53.1024 18.5017 53.4329 18.3292C53.7005 18.1881 53.8106 17.7804 53.6375 17.5295C53.4644 17.2473 53.1181 17.1689 52.8348 17.3257L52.8506 17.263Z" fill="#231F20"/>
<path d="M23.8125 25.008C22.2387 25.7606 21.0268 27.2502 20.0667 28.6614C19.5473 29.4454 19.0752 30.2607 18.666 31.1231C18.304 31.8914 17.8948 32.7381 17.7689 33.5692C17.6744 34.1807 18.0049 34.7452 18.6188 34.9333C19.2326 35.1215 19.7677 34.8549 20.3343 34.6511L19.6733 33.7887C18.5558 35.4037 18.1623 37.4264 18.5558 39.3393C18.7132 40.0763 19.8464 39.7627 19.689 39.0257C19.3585 37.4107 19.7362 35.733 20.6805 34.3845C20.9638 33.9769 20.4917 33.3497 20.0195 33.5221C19.7519 33.6162 19.4529 33.7887 19.1696 33.8201C19.0909 33.8201 19.0122 33.8201 18.9493 33.8044C18.9021 33.7887 18.9493 33.8044 18.9493 33.8357C18.9021 33.6633 19.0594 33.3653 19.1067 33.2085C19.1696 33.0204 19.2326 32.8322 19.3113 32.6441C19.6575 31.7346 20.1139 30.8723 20.6018 30.0412C21.5304 28.5046 22.7423 26.8269 24.4106 26.0272C25.0874 25.6979 24.4893 24.6787 23.8125 25.008Z" fill="#231F20"/>
<path d="M20.2394 38.5401C19.72 39.5123 19.4524 40.6412 19.5311 41.7388C19.5311 41.8956 19.5941 42.0367 19.7043 42.1622C19.8144 42.2719 19.9718 42.3347 20.1292 42.3347C20.2866 42.3347 20.444 42.2719 20.5542 42.1622C20.6643 42.0524 20.743 41.8956 20.7273 41.7388C20.6958 41.3782 20.7273 41.0176 20.7588 40.6569V40.8137C20.806 40.3433 20.9319 39.8729 21.1207 39.4339L21.0578 39.575C21.1207 39.4182 21.1994 39.2771 21.2624 39.136C21.3254 38.9949 21.3568 38.8381 21.3254 38.6813C21.2939 38.5401 21.1837 38.399 21.0578 38.3363C20.7902 38.1952 20.4125 38.2579 20.2551 38.5401H20.2394Z" fill="#231F20"/>
<path d="M21.5147 40.3269C21.2787 41.8478 21.6721 43.4001 22.6794 44.5918C23.1516 45.1406 23.8598 45.5796 24.6153 45.4385C25.3707 45.2974 25.9373 44.5134 25.717 43.7608C25.4966 43.0081 24.4107 43.3374 24.5838 44.0744C24.9615 45.7051 26.5826 46.6145 28.125 46.834C29.0851 46.9751 30.0766 46.9908 31.0524 47.0378C32.0282 47.0849 33.0355 47.1319 34.027 47.179C34.7825 47.2103 34.7825 46.0343 34.027 46.003C32.2643 45.9246 30.5016 45.9089 28.7546 45.7364C27.5269 45.611 26.0475 45.1092 25.7327 43.7608L24.5995 44.0744C24.6625 44.2782 24.2848 44.3252 24.1116 44.2468C23.7339 44.09 23.4506 43.6824 23.246 43.3374C22.7581 42.5377 22.5378 41.5656 22.6794 40.6405C22.7266 40.3269 22.6007 40.0133 22.2702 39.9192C21.9869 39.8408 21.5934 40.0133 21.5462 40.3269H21.5147Z" fill="#231F20"/>
<path d="M53.3229 26.6228C55.9827 28.865 57.8556 32.0637 58.3593 35.5132C58.375 35.67 58.4065 35.8425 58.375 35.9993C58.375 36.0307 58.3435 36.1404 58.3278 36.1404C58.3593 36.1404 58.3278 36.1091 58.312 36.1247C58.1704 36.1404 57.8871 35.9836 57.7455 35.9052C57.6195 35.8425 57.4622 35.7641 57.4149 35.6073L56.2817 35.9209C56.628 36.9087 56.6123 37.9279 56.2188 38.9001C56.0929 39.198 56.3447 39.5429 56.628 39.6213C56.9585 39.7154 57.2418 39.5116 57.352 39.2137C57.8084 38.069 57.8399 36.7676 57.4149 35.6073C57.1631 34.9017 56.0299 35.1996 56.2817 35.9209C56.4549 36.4383 56.8326 36.7833 57.3205 37.0028C57.8399 37.238 58.4537 37.4732 58.9888 37.1439C59.9331 36.5638 59.5239 35.1055 59.3351 34.2588C58.8629 32.1734 57.9501 30.1821 56.6752 28.473C55.9512 27.4852 55.1171 26.5914 54.1728 25.8074C53.9367 25.6036 53.5747 25.5722 53.3386 25.8074C53.134 26.0113 53.0868 26.4346 53.3386 26.6385L53.3229 26.6228Z" fill="#231F20"/>
<path d="M46.8071 20.4774C47.1376 19.8502 47.4681 19.223 47.8773 18.6272C47.956 18.5175 48.0347 18.4077 48.1134 18.2979C48.1291 18.2666 48.1606 18.2352 48.1764 18.2039C48.2236 18.1411 48.2865 18.0784 48.3337 18.0157C48.5226 17.7805 48.7272 17.561 48.9476 17.3415C49.1679 17.122 49.3725 16.9338 49.5928 16.7456C49.703 16.6516 49.8132 16.5732 49.9076 16.4791C49.8447 16.5261 49.9863 16.4164 49.9076 16.4791C49.9391 16.4634 49.9706 16.432 50.0021 16.4164C50.065 16.3693 50.1437 16.3223 50.2067 16.2752C50.6946 15.9303 51.2139 15.6324 51.7648 15.3658C51.8435 15.3345 51.9222 15.3031 51.9851 15.2561C52.0166 15.2561 52.0481 15.2247 52.0796 15.209C52.174 15.162 52.0638 15.209 52.111 15.1933C52.2684 15.1306 52.4258 15.0679 52.5832 15.0209C52.898 14.9111 53.2285 14.8013 53.559 14.7229C53.858 14.6445 54.0626 14.2996 53.9682 14.0017C53.8738 13.7038 53.559 13.5156 53.2442 13.594C50.7418 14.2212 48.5069 15.7421 46.996 17.8275C46.5081 18.4861 46.1303 19.2074 45.7526 19.9286C45.6109 20.1952 45.6739 20.5872 45.9572 20.7283C46.2248 20.8694 46.6182 20.8067 46.7599 20.5245L46.8071 20.4774Z" fill="#231F20"/>
<path d="M54.6917 12.6999L54.1881 14.5814C54.1566 14.7226 54.1723 14.895 54.251 15.0362C54.3297 15.1616 54.4556 15.2714 54.5973 15.3027C54.7546 15.3341 54.912 15.3341 55.0537 15.24C55.1953 15.1459 55.2898 15.0362 55.3212 14.895L55.8249 13.0135C55.8564 12.8723 55.8406 12.6999 55.7619 12.5587C55.6832 12.4333 55.5573 12.3236 55.4157 12.2922C55.2583 12.2608 55.1009 12.2608 54.9592 12.3549C54.8176 12.449 54.7232 12.5587 54.6917 12.6999Z" fill="#231F20"/>
<path d="M56.7062 14.0006L56.1868 14.518L56.0452 14.6592C56.0452 14.6592 55.9508 14.7689 55.9193 14.8473C55.8878 14.91 55.8721 14.9884 55.8721 15.0668C55.8721 15.1452 55.8721 15.2236 55.9193 15.2863C55.9508 15.3647 55.9822 15.4275 56.0452 15.4745L56.1711 15.5686C56.2655 15.6156 56.36 15.647 56.4701 15.647H56.6275C56.722 15.5999 56.8164 15.5529 56.8951 15.4745L57.4145 14.9571L57.5561 14.816C57.5561 14.816 57.6505 14.7062 57.682 14.6278C57.7135 14.5651 57.7292 14.4867 57.7292 14.4083C57.7292 14.3299 57.7292 14.2515 57.682 14.1888C57.6505 14.1104 57.6191 14.0476 57.5561 14.0006L57.4302 13.9065C57.3358 13.8595 57.2413 13.8281 57.1312 13.8281H56.9738C56.8794 13.8752 56.7849 13.9222 56.7062 14.0006Z" fill="#231F20"/>
<path d="M56.6592 16.8709C57.3045 20.2264 57.037 23.7073 55.951 26.9374C55.8565 27.2353 56.0612 27.5802 56.3602 27.6586C56.675 27.7527 56.9897 27.5489 57.0842 27.251C58.2331 23.8171 58.4692 20.1167 57.7924 16.5574C57.7295 16.2438 57.3517 16.0713 57.0684 16.1497C56.7379 16.2438 56.5963 16.5574 56.6592 16.8709Z" fill="#231F20"/>
<path d="M42.1162 47.1319C44.3984 47.6493 46.8379 47.32 48.9154 46.2224C49.4977 45.9088 50.0486 45.5325 50.568 45.1092C50.8198 44.9053 50.7726 44.482 50.568 44.2781C50.3319 44.0429 49.9856 44.0743 49.7338 44.2781C49.6866 44.3252 49.6394 44.3565 49.5921 44.4036C49.5921 44.4036 49.4662 44.4976 49.5135 44.4663C49.4033 44.5447 49.2931 44.6231 49.1829 44.7015C48.9626 44.8583 48.7265 44.9994 48.4904 45.1248C48.0183 45.3914 47.6248 45.5639 47.1526 45.7207C46.6805 45.8775 46.1296 46.0186 45.6102 46.1127C45.5473 46.1127 45.4843 46.1283 45.4214 46.144C45.5001 46.144 45.3584 46.144 45.3269 46.144C45.1853 46.144 45.0594 46.1754 44.9177 46.1754C44.6502 46.1911 44.3984 46.2067 44.1308 46.1911C43.4855 46.1911 43.0291 46.1283 42.431 45.9872C42.132 45.9245 41.7857 46.0813 41.707 46.3949C41.6441 46.6928 41.8015 47.0378 42.1162 47.1162V47.1319Z" fill="#231F20"/>
<path d="M54.6451 38.7286C54.6451 38.854 54.6609 38.9951 54.6451 39.1206C54.6451 39.1519 54.6451 39.199 54.6451 39.2303C54.6451 39.2303 54.6451 39.3244 54.6451 39.2617C54.6451 39.1833 54.6451 39.3087 54.6451 39.3244C54.6451 39.3558 54.6451 39.4028 54.6294 39.4342C54.5979 39.5596 54.5664 39.6851 54.5192 39.8105C54.5035 39.8732 54.472 39.9359 54.4563 39.9987C54.4563 40.03 54.4248 40.0614 54.4091 40.1084C54.3933 40.1555 54.3776 40.1868 54.4091 40.1241C54.2045 40.5945 53.9526 41.0335 53.6693 41.4726C53.5434 41.6764 53.4018 41.8802 53.2444 42.0684C53.3074 41.9743 53.2129 42.0997 53.1972 42.1311C53.1657 42.1781 53.1185 42.2252 53.087 42.2722C53.0083 42.3663 52.9296 42.4604 52.8352 42.5545C52.5047 42.9308 52.1427 43.2757 51.765 43.5893C51.6548 43.6834 51.5603 43.7618 51.4502 43.8402C51.5446 43.7618 51.403 43.8872 51.3715 43.9029C51.3243 43.95 51.2613 43.9813 51.2141 44.0284C50.978 44.2008 50.7419 44.342 50.4901 44.4988C50.2226 44.6556 50.1124 45.0319 50.2855 45.2984C50.4586 45.565 50.8049 45.6747 51.0882 45.5023C52.9139 44.4204 54.4878 42.774 55.3691 40.8297C55.6682 40.1711 55.8885 39.4655 55.8256 38.7443C55.7941 38.4464 55.5737 38.1484 55.2275 38.1484C54.9284 38.1484 54.6137 38.415 54.6294 38.7443L54.6451 38.7286Z" fill="#231F20"/>
</svg>
