<svg width="100" height="100" viewBox="0 0 100 100" fill="none" xmlns="http://www.w3.org/2000/svg">
<path d="M65.4863 21.7148L82.5315 33.7667L47.8015 82.886L30.7564 70.8342L65.4863 21.7148Z" fill="#F8C04E"/>
<path d="M68.0781 18.0508L85.1233 30.1026L82.5315 33.7682L65.4863 21.7164L68.0781 18.0508Z" fill="#D9D9D9"/>
<path d="M69.8916 15.484C71.323 13.4595 74.1246 12.9787 76.149 14.4101L85.8629 21.2784C87.8874 22.7098 88.3682 25.5113 86.9368 27.5358L85.1225 30.1017L68.0774 18.0499L69.8916 15.484Z" fill="#FFC3C3"/>
<path d="M47.801 82.8858L30.7559 70.834L29.5324 90.4495L47.801 82.8858Z" fill="#FFEBC8"/>
<path d="M29.8692 87.2537C30.3702 86.5451 31.3508 86.3768 32.0593 86.8778C32.7679 87.3788 32.9362 88.3594 32.4352 89.0679L30.6209 91.6339C30.1199 92.3424 29.1394 92.5107 28.4308 92.0097C27.7223 91.5087 27.554 90.5282 28.055 89.8196L29.8692 87.2537Z" fill="#2B2B2B"/>
<path d="M66.0728 29.8285C66.4306 29.3224 67.131 29.2022 67.6371 29.5601C68.1432 29.9179 68.2634 30.6183 67.9056 31.1244L40.4326 69.98C40.0748 70.4861 39.3744 70.6063 38.8683 70.2485C38.3621 69.8906 38.242 69.1902 38.5998 68.6841L66.0728 29.8285Z" fill="#CA9C3C"/>
<path d="M72.854 34.6215C73.2119 34.1154 73.9122 33.9952 74.4184 34.353C74.9245 34.7109 75.0447 35.4113 74.6868 35.9174L47.2139 74.773C46.856 75.2791 46.1556 75.3993 45.6495 75.0414C45.1434 74.6836 45.0232 73.9832 45.3811 73.4771L72.854 34.6215Z" fill="#CA9C3C"/>
</svg>
