<svg width="100" height="100" viewBox="0 0 100 100" fill="none" xmlns="http://www.w3.org/2000/svg">
<path d="M16.1147 56.399C16.1147 56.399 16.1929 56.2817 16.219 56.2035C17.7829 53.2581 18.9037 49.9739 20.2982 46.9243C23.1002 40.7859 26.0586 34.7257 29.1604 28.7568C29.3168 28.444 29.4862 28.0791 29.3689 27.7402C29.2907 27.5187 29.1082 27.3493 28.9258 27.1929C28.2872 26.6325 26.7233 24.7036 25.8892 24.6515C24.8205 24.5994 24.4295 26.3979 24.0386 27.2189C22.8526 29.6951 21.6666 32.1583 20.4806 34.6345C18.0957 39.5739 15.6846 44.5002 13.2606 49.4005C12.4525 51.0295 11.436 52.5283 10.6671 54.1834C10.3413 54.8742 9.49414 55.7343 10.4195 56.399H16.1147Z" fill="#68B29A"/>
<path d="M47.1714 32.0035C47.4581 32.1599 47.7579 32.3163 48.0446 32.4727V81.3059C37.827 81.4623 25.5503 81.4623 15.463 81.5665C14.9938 81.5665 15.0981 66.7224 15.059 65.2367C14.9808 62.3434 14.4074 57.5214 14.668 54.6802C14.7984 53.2206 18.1086 47.395 19.3076 44.4757C20.5066 41.5564 22.1227 39.1714 23.8169 35.3398C24.6901 33.3719 26.9057 30.0616 27.6616 28.0546C28.0916 26.9208 27.44 26.1779 29.2124 26.608C30.5418 26.9338 31.6495 27.5072 33.044 27.7548C34.6992 28.0546 36.3543 28.3674 37.9964 28.7584C41.1503 29.5012 44.3173 30.4526 47.1844 31.9904L47.1714 32.0035Z" fill="#EAC286"/>
<path d="M33.7872 60.3752C33.4744 59.8017 33.0313 59.2935 32.5751 58.8634C32.2233 58.5245 31.5977 58.2509 31.1415 58.0554C30.0989 57.6253 28.939 57.508 27.8313 57.5992C25.8373 57.7556 24.2603 58.6679 23.5175 60.5707C23.0744 61.7175 23.1395 62.9556 23.1134 64.1677C23.0744 65.5231 23.0744 66.8915 23.0874 68.2469C23.1135 70.9707 23.1265 73.8118 23.1786 76.5356C23.2177 78.3211 23.1786 79.8329 23.2829 81.5011C26.8408 81.475 31.2979 81.462 34.921 81.4359C34.8298 80.0284 34.8689 78.7382 34.8428 77.3176C34.7907 74.4244 34.8037 71.3747 34.7386 68.4815C34.6995 66.9306 34.7125 65.4449 34.5431 63.9461C34.4127 62.7732 34.3736 61.4439 33.8002 60.3752H33.7872Z" fill="#C07A4F"/>
<path d="M86.9732 52.4375H42.6362C42.6493 53.5974 42.6623 54.7573 42.6753 55.9302C42.7144 60.4786 42.8578 62.5117 43.0011 67.803C43.1054 71.7258 43.1054 77.4601 43.2618 81.383C57.4674 81.1614 73.1847 80.7835 87.2339 80.2622C87.5336 79.2195 87.2339 69.9534 87.2339 68.8716C87.2339 60.2571 87.1557 61.6255 86.8429 53.1152C86.8429 53.024 87.1166 52.5418 86.9732 52.4505V52.4375Z" fill="#F9E0A3"/>
<path d="M71.0336 25.5266C71.8285 25.5266 72.806 25.3962 73.4837 25.6569C75.2561 26.3216 77.615 30.8178 78.6316 32.5772C81.7333 37.9206 83.9619 42.5341 86.9724 47.9427C88.0672 49.9106 90.5434 54.042 89.8918 54.9673C89.2271 55.6319 58.4962 55.0976 42.6094 55.4755C42.1402 55.4755 41.645 55.4886 41.2279 55.2279C40.7457 54.9282 40.446 54.3287 40.1593 53.7683C37.7222 48.7637 35.2981 43.7722 32.861 38.7677C31.649 36.2655 30.4239 33.7632 29.2119 31.2609C29.2119 30.7787 28.3517 30.0098 28.1171 29.5797C27.5828 28.6414 27.1788 27.5857 26.7226 26.6083C26.3838 25.8915 26.0189 25.2008 25.4976 24.6143C26.0449 24.1972 27.3221 24.3015 28.0911 24.3536C29.5507 24.4579 31.0234 24.5361 32.483 24.5882C35.3242 24.6794 38.1653 24.6794 41.0064 24.6404C46.6886 24.5752 52.3839 24.3797 58.0791 24.6143C60.9984 24.7446 63.9308 24.9792 66.8501 25.2138C68.0882 25.318 69.3393 25.4223 70.5774 25.5135C70.7077 25.5135 70.8511 25.5266 71.0075 25.5266H71.0336Z" fill="#86D7A9"/>
<path d="M58.8872 21.1205C58.8481 21.4072 59.2912 21.6548 59.2782 21.7982C59.2261 23.5445 59.5649 25.9165 59.5779 27.6889C59.5779 28.2884 59.7083 30.9862 59.7213 33.736L64.1133 35.73L64.9083 21.1074H58.8872V21.1205Z" fill="#F9E0A3"/>
<path d="M72.0633 21.0423H63.9961C63.9961 21.5245 63.9961 22.0067 63.9961 22.4889C63.9961 25.2779 64.0352 26.516 64.0482 29.7612C64.0482 31.4815 64.0613 33.7752 64.0743 35.8213L72.2066 35.4173C72.2066 33.4885 72.1154 30.882 72.1154 30.3998C72.1154 25.2258 72.1154 25.9165 72.0503 21.0293L72.0633 21.0423Z" fill="#F9F3C2"/>
<path d="M72.4024 61.6113H58.1577V69.6916H72.4024V61.6113Z" fill="white"/>
<path d="M58.5484 69.118C58.4702 66.7721 58.3789 64.4262 58.3007 62.0804C58.2877 61.6633 57.6361 61.6633 57.6491 62.0804C57.7273 64.4262 57.8185 66.7721 57.8967 69.118C57.9098 69.535 58.5614 69.535 58.5484 69.118Z" fill="#C07A4F"/>
<path d="M58.3924 62.0421C59.4611 61.8988 60.5428 61.9118 61.6114 61.8988C62.7322 61.8727 63.8661 61.8466 64.9869 61.8206C67.2155 61.7684 69.4441 61.7293 71.6857 61.6772C72.1027 61.6772 72.1027 61.0125 71.6857 61.0256C69.4571 61.0777 67.2285 61.1168 64.9869 61.1689C63.8791 61.195 62.7714 61.2211 61.6766 61.2341C60.5819 61.2471 59.4741 61.2341 58.3924 61.3775C57.9884 61.4296 57.9753 62.0812 58.3924 62.0291V62.0421Z" fill="#C07A4F"/>
<path d="M71.633 61.652C71.8155 63.6069 72.1543 65.5748 72.1283 67.5427C72.1283 68.1162 72.0892 68.6896 72.024 69.263C72.011 69.4325 72.1804 69.5889 72.3498 69.5889C72.5453 69.5889 72.6626 69.4325 72.6756 69.263C72.7669 68.3117 72.806 67.3472 72.7538 66.3828C72.7017 65.4184 72.5974 64.5322 72.4932 63.6069C72.415 62.9553 72.3498 62.3036 72.2847 61.652C72.2716 61.4826 72.1413 61.3262 71.9588 61.3262C71.7894 61.3262 71.62 61.4695 71.633 61.652Z" fill="#C07A4F"/>
<path d="M58.4314 70.251C62.9668 70.3162 67.5021 70.1859 72.0245 69.8731C72.4415 69.847 72.4415 69.1954 72.0245 69.2215C67.5021 69.5342 62.9668 69.6646 58.4314 69.5994C58.0144 69.5994 58.0144 70.251 58.4314 70.251Z" fill="#C07A4F"/>
<path d="M64.8825 61.8597C64.7652 64.2186 64.8564 66.5775 65.1562 68.9103C65.1822 69.0797 65.2865 69.2361 65.482 69.2361C65.6384 69.2361 65.8339 69.0797 65.8078 68.9103C65.5081 66.5775 65.4168 64.2186 65.5341 61.8597C65.5602 61.4426 64.9086 61.4426 64.8825 61.8597Z" fill="#C07A4F"/>
<path d="M33.0701 62.8397C33.031 61.5495 32.7182 60.142 31.2846 59.4643C30.7763 59.2297 30.1117 59.0863 29.5382 59.0342C27.8831 58.8648 25.9542 59.1775 25.042 60.5329C24.8204 60.8718 24.664 61.2237 24.5337 61.5755V64.8337H33.0831V63.1004C33.0831 63.0222 33.0831 62.9309 33.0831 62.8397H33.0701Z" fill="white"/>
<path d="M28.3518 58.5641C28.2606 60.6363 28.4039 62.7215 28.43 64.7807C28.43 65.2889 28.43 65.7972 28.43 66.3055C28.43 66.7225 29.0686 66.7225 29.0816 66.3055C29.1207 64.2072 29.0034 62.0959 28.9904 59.9977C28.9904 59.5155 28.9904 59.0333 29.0034 58.5511C29.0165 58.134 28.3648 58.134 28.3518 58.5511V58.5641Z" fill="#C07A4F"/>
<path d="M58.2752 23.0373C58.3273 23.2588 58.588 23.5586 58.7835 23.5455C61.1554 23.4413 62.0156 23.715 63.1233 23.5064C63.2276 23.4934 64.974 23.3109 65.0522 23.1806C65.2216 22.8809 65.1434 20.9781 65.1173 20.522C65.1043 20.144 65.0522 19.6227 64.8827 19.4142C64.7785 19.2839 64.6481 19.2448 64.5309 19.2317C63.5795 19.0753 62.589 19.2839 61.6246 19.2969C60.6602 19.3099 59.6306 19.323 58.6401 19.3881C58.4446 19.4012 58.21 19.4794 58.1449 19.8573C58.1188 19.9746 58.1188 20.1049 58.1188 20.2352C58.1188 21.1345 58.0536 22.151 58.2752 23.0373Z" fill="#C07A4F"/>
<path d="M62.7716 23.4273C62.8368 23.6619 63.1105 23.6358 63.4102 23.6358C66.6814 23.6358 69.5747 23.6358 72.4028 23.3621C72.5461 23.3491 72.7155 23.323 72.8328 23.1796C73.1065 22.8799 72.885 21.5245 72.885 21.0293C72.885 20.6253 72.885 20.0127 72.7937 19.5435C72.7546 19.335 72.5201 19.1004 72.3246 19.0744C70.8519 18.9049 69.314 19.0744 67.8283 19.1004C66.3426 19.1265 64.7526 19.1265 63.2278 19.2047C62.928 19.2177 62.5762 19.309 62.498 19.713C62.4719 19.8433 62.4849 19.9867 62.498 20.13C62.5762 21.0944 62.4719 22.3977 62.7586 23.4142L62.7716 23.4273Z" fill="#E09961"/>
</svg>
