<svg width="100" height="100" viewBox="0 0 100 100" fill="none" xmlns="http://www.w3.org/2000/svg">
<g clip-path="url(#clip0_3647_3348)">
<path d="M86.2422 35.6641L95.996 42.5605L76.1223 70.6683L66.3685 63.7718L86.2422 35.6641Z" fill="#80BBEA"/>
<path d="M87.7246 33.5664L97.4784 40.4629L95.9953 42.5605L86.2415 35.664L87.7246 33.5664Z" fill="#D9D9D9"/>
<path d="M88.763 32.0976C89.5821 30.9391 91.1852 30.664 92.3437 31.4831L97.9023 35.4134C99.0608 36.2325 99.3359 37.8356 98.5168 38.9941L97.4786 40.4624L87.7248 33.5659L88.763 32.0976Z" fill="#FFC3C3"/>
<path d="M76.122 70.6679L66.3682 63.7715L65.668 74.9962L76.122 70.6679Z" fill="#FFEBC8"/>
<path d="M65.8608 73.1658C66.1475 72.7603 66.7086 72.664 67.114 72.9507C67.5195 73.2374 67.6158 73.7985 67.3291 74.204L66.2909 75.6723C66.0042 76.0778 65.4432 76.174 65.0377 75.8874C64.6322 75.6007 64.5359 75.0396 64.8226 74.6341L65.8608 73.1658Z" fill="#2B2B2B"/>
<path d="M86.5775 40.3056C86.7822 40.016 87.183 39.9473 87.4726 40.152C87.7623 40.3568 87.831 40.7576 87.6263 41.0472L71.9053 63.2817C71.7005 63.5713 71.2997 63.6401 71.0101 63.4353C70.7205 63.2306 70.6517 62.8298 70.8565 62.5402L86.5775 40.3056Z" fill="#6693B8"/>
<path d="M90.4583 43.0498C90.6631 42.7602 91.0639 42.6914 91.3535 42.8962C91.6431 43.1009 91.7119 43.5017 91.5071 43.7913L75.7861 66.0259C75.5814 66.3155 75.1806 66.3843 74.891 66.1795C74.6014 65.9747 74.5326 65.5739 74.7373 65.2843L90.4583 43.0498Z" fill="#6693B8"/>
<path d="M9.98964 77.0117C9.49306 77.0117 9.09051 76.6092 9.09051 76.1126C9.09051 75.616 9.49306 75.2135 9.98964 75.2135H62.2679C62.7644 75.2135 63.167 75.616 63.167 76.1126C63.167 76.6092 62.7644 77.0117 62.2679 77.0117H9.98964Z" fill="black"/>
</g>
<defs>
<clipPath id="clip0_3647_3348">
<rect width="100" height="100" fill="white"/>
</clipPath>
</defs>
</svg>
