<svg width="100" height="100" viewBox="0 0 100 100" fill="none" xmlns="http://www.w3.org/2000/svg">
<path d="M32.0112 30.862C32.6112 31.162 33.3712 31.292 34.5912 31.122C37.9712 30.652 41.3512 30.292 44.7512 30.102C51.5512 29.732 58.3912 29.972 65.1512 30.842C65.5312 30.892 65.9412 30.932 66.2812 30.752C67.7212 29.952 68.1812 28.362 70.1312 28.042C71.2112 27.862 72.4312 28.262 72.9912 29.202C74.0812 31.072 72.5712 33.212 73.6512 35.212C74.9212 37.572 76.1412 39.592 76.8612 42.282C78.3312 47.812 78.2812 53.772 76.5912 59.252C76.4812 59.622 76.3512 60.0121 76.4612 60.382C76.5712 60.7621 76.9112 61.032 77.1912 61.322C78.2212 62.362 78.6712 64.042 78.0212 65.352C77.2312 66.962 75.3512 67.162 73.8612 66.522C61.4212 70.202 48.3312 73.902 35.6512 71.172C32.7012 70.542 31.4312 69.662 28.5312 70.742C27.0812 71.282 25.3212 70.792 24.3512 69.592C22.8512 67.722 24.0612 66.542 24.4712 64.732C24.8812 62.922 23.8612 61.842 23.2812 60.042C22.2812 56.9221 21.3112 53.772 21.0712 50.482C20.8012 46.722 21.2912 43.002 22.6812 39.492C23.2912 37.952 24.6412 36.302 24.8712 34.672C25.1212 32.912 23.6512 30.982 24.5712 29.292C25.2712 28.002 27.1412 27.862 28.4812 28.452C30.3512 29.272 30.9412 30.332 32.0112 30.862Z" fill="#FFBBCC"/>
<path d="M68.9411 33.3123C69.0211 33.2223 69.1011 33.1423 69.1911 33.0623L69.091 33.1423C69.211 33.0523 69.3311 32.9823 69.4611 32.9223L69.341 32.9723C69.471 32.9123 69.6111 32.8723 69.7611 32.8523L69.6311 32.8723C69.7311 32.8623 69.8211 32.8523 69.9211 32.8623C70.1811 32.8623 70.4311 32.6223 70.4211 32.3623C70.4111 32.0823 70.2011 31.8723 69.9211 31.8623C69.2911 31.8423 68.6411 32.1223 68.2311 32.6023C68.1411 32.7023 68.0811 32.8123 68.0811 32.9523C68.0811 33.0723 68.1311 33.2223 68.2311 33.3023C68.3311 33.3823 68.4511 33.4523 68.5811 33.4523C68.7111 33.4523 68.8511 33.4023 68.9311 33.3023L68.9411 33.3123Z" fill="#FFBBCC"/>
<path d="M71.2012 35.3914L71.3912 34.2414C71.4112 34.1014 71.4112 33.9814 71.3412 33.8514C71.2812 33.7514 71.1612 33.6514 71.0412 33.6214C70.9112 33.5914 70.7712 33.6014 70.6512 33.6714C70.5512 33.7414 70.4412 33.8414 70.4212 33.9714L70.2312 35.1214C70.2112 35.2614 70.2112 35.3814 70.2812 35.5114C70.3412 35.6114 70.4612 35.7114 70.5812 35.7414C70.7112 35.7714 70.8512 35.7614 70.9712 35.6914C71.0712 35.6214 71.1812 35.5214 71.2012 35.3914Z" fill="#FFBBCC"/>
<path d="M27.8711 32.8212C27.8011 33.0912 27.7711 33.3812 27.8011 33.6512C27.8311 33.9712 27.9111 34.2612 28.0511 34.5612C28.1011 34.6712 28.2411 34.7612 28.3511 34.7912C28.4711 34.8212 28.6311 34.8112 28.7411 34.7412C28.8511 34.6712 28.9411 34.5712 28.9711 34.4412C29.0011 34.3012 28.9811 34.1812 28.9211 34.0512C28.9111 34.0212 28.8911 33.9912 28.8811 33.9612L28.9311 34.0812C28.8611 33.9212 28.8211 33.7512 28.7911 33.5812L28.8111 33.7112C28.7911 33.5312 28.7911 33.3512 28.8111 33.1712L28.7911 33.3012C28.8011 33.2212 28.8211 33.1512 28.8411 33.0712C28.8711 32.9412 28.8611 32.8012 28.7911 32.6812C28.7311 32.5812 28.6111 32.4812 28.4911 32.4512C28.2311 32.3912 27.9411 32.5312 27.8711 32.8012V32.8212Z" fill="#FFBBCC"/>
<path d="M29.9813 32.6914C30.0713 32.9714 30.2313 33.2414 30.4613 33.4414C30.6913 33.6414 30.9613 33.7914 31.2613 33.8414C31.3313 33.8614 31.3913 33.8614 31.4613 33.8414C31.5313 33.8414 31.5913 33.8214 31.6513 33.7814C31.7513 33.7214 31.8513 33.6014 31.8813 33.4814C31.9113 33.3514 31.9013 33.2114 31.8313 33.0914C31.7613 32.9914 31.6613 32.8814 31.5313 32.8614C31.4413 32.8514 31.3613 32.8214 31.2713 32.7914L31.3913 32.8414C31.3013 32.8014 31.2113 32.7514 31.1213 32.6814L31.2213 32.7614C31.1413 32.7014 31.0713 32.6214 31.0013 32.5414L31.0813 32.6414C31.0213 32.5614 30.9713 32.4814 30.9313 32.3914L30.9813 32.5114C30.9813 32.5114 30.9513 32.4414 30.9413 32.4114C30.9013 32.2914 30.8213 32.1814 30.7113 32.1114C30.6013 32.0414 30.4413 32.0214 30.3213 32.0614C30.2013 32.1014 30.0813 32.1714 30.0213 32.2914C29.9613 32.4114 29.9313 32.5514 29.9713 32.6814L29.9813 32.6914Z" fill="#FFBBCC"/>
<path d="M27.2614 66.4215C27.2914 66.3315 27.3214 66.2515 27.3514 66.1615C27.3714 66.1215 27.3814 66.0715 27.4014 66.0315C27.4214 65.9715 27.4014 66.0415 27.3914 66.0615C27.4014 66.0415 27.4114 66.0215 27.4214 66.0015C27.5014 65.8315 27.5814 65.6715 27.6814 65.5115C27.7314 65.4315 27.7814 65.3615 27.8314 65.2815C27.8514 65.2515 27.8814 65.2115 27.9014 65.1815C27.9114 65.1615 27.9314 65.1515 27.9414 65.1315C27.8714 65.2415 27.9114 65.1715 27.9414 65.1415C28.0614 64.9915 28.1814 64.8615 28.3214 64.7315C28.5114 64.5515 28.5214 64.2015 28.3214 64.0215C28.1214 63.8415 27.8114 63.8215 27.6114 64.0215C27.0114 64.6115 26.5614 65.3515 26.3114 66.1515C26.2314 66.4015 26.4014 66.7115 26.6614 66.7715C26.9314 66.8315 27.1914 66.6915 27.2814 66.4215H27.2614Z" fill="#FFBBCC"/>
<path d="M29.4114 67.7719C29.4814 67.7219 29.5614 67.6719 29.6414 67.6319C29.6814 67.6119 29.7214 67.5919 29.7614 67.5719C29.6714 67.6019 29.8614 67.5219 29.7614 67.5719C29.9214 67.5119 30.0914 67.4619 30.2614 67.4319C30.3914 67.4119 30.1714 67.4319 30.2814 67.4319C30.3214 67.4319 30.3714 67.4319 30.4114 67.4219C30.4914 67.4219 30.5814 67.4219 30.6614 67.4219C30.7014 67.4219 30.7414 67.4219 30.7814 67.4219C30.8014 67.4219 30.8214 67.4219 30.8514 67.4219C30.7714 67.4119 30.7614 67.4119 30.8214 67.4219C30.9114 67.4419 31.0014 67.4519 31.0814 67.4819C31.3314 67.5519 31.6314 67.4019 31.7014 67.1319C31.7714 66.8619 31.6214 66.5919 31.3514 66.5119C30.5314 66.2919 29.6114 66.4319 28.9014 66.9019C28.6814 67.0519 28.5714 67.3519 28.7214 67.5819C28.8614 67.8019 29.1714 67.9219 29.4014 67.7619L29.4114 67.7719Z" fill="#FFBBCC"/>
<path d="M71.971 63.7325C71.971 63.7325 72.131 63.7125 72.051 63.7225C71.971 63.7325 72.111 63.7225 72.131 63.7225C72.201 63.7225 72.271 63.7125 72.351 63.7025C72.511 63.7025 72.661 63.7025 72.821 63.7025C72.891 63.7025 72.961 63.7125 73.041 63.7225C73.151 63.7325 72.931 63.7025 73.071 63.7225C73.111 63.7225 73.151 63.7325 73.191 63.7425C73.341 63.7725 73.501 63.8125 73.651 63.8525C73.901 63.9325 74.211 63.7625 74.271 63.5025C74.331 63.2425 74.191 62.9725 73.921 62.8825C73.201 62.6725 72.461 62.6325 71.731 62.7525C71.611 62.7725 71.491 62.8825 71.431 62.9825C71.371 63.0925 71.341 63.2525 71.381 63.3725C71.471 63.6525 71.721 63.7625 72.001 63.7225L71.971 63.7325Z" fill="#FFBBCC"/>
<path d="M73.4611 60.6812C73.5311 60.9512 73.6411 61.2212 73.8011 61.4512C73.8911 61.5812 73.9811 61.7112 74.0911 61.8212C74.2011 61.9312 74.3311 62.0412 74.4611 62.1312C74.5611 62.2012 74.7311 62.2112 74.8511 62.1812C74.9711 62.1512 75.0911 62.0612 75.1511 61.9512C75.2111 61.8312 75.2411 61.6912 75.2011 61.5612L75.1511 61.4412C75.1111 61.3612 75.0511 61.3112 74.9711 61.2612C74.9611 61.2512 74.9411 61.2412 74.9311 61.2312L75.0311 61.3112C74.9011 61.2112 74.7811 61.0912 74.6711 60.9512L74.7511 61.0512C74.6411 60.9112 74.5611 60.7612 74.4911 60.6012L74.5411 60.7212C74.5011 60.6212 74.4611 60.5212 74.4411 60.4112C74.4111 60.2912 74.3211 60.1712 74.2111 60.1112C74.1011 60.0512 73.9411 60.0212 73.8211 60.0612C73.5611 60.1512 73.4011 60.4012 73.4711 60.6812H73.4611Z" fill="#FFBBCC"/>
<path d="M29.2614 51.6526C28.7114 50.2626 26.3914 50.1626 25.4914 51.2326C24.0214 52.9726 26.1514 54.9426 27.9914 54.2826C29.0114 53.9126 29.6714 52.6626 29.2714 51.6526H29.2614Z" fill="#FF7795"/>
<path d="M38.841 59.1213C38.291 57.7313 35.971 57.6313 35.071 58.7013C33.601 60.4413 35.731 62.4113 37.571 61.7513C38.591 61.3813 39.251 60.1313 38.851 59.1213H38.841Z" fill="#FF7795"/>
<path d="M45.5509 45.5217C45.0009 44.1317 42.6809 44.0317 41.7809 45.1017C40.3109 46.8417 42.4409 48.8117 44.2809 48.1517C45.3009 47.7817 45.9609 46.5317 45.5609 45.5217H45.5509Z" fill="#FF7795"/>
<path d="M33.8913 38.3127C33.3413 36.9227 31.0213 36.8227 30.1213 37.8927C28.6513 39.6327 30.7813 41.6027 32.6213 40.9427C33.6413 40.5727 34.3013 39.3227 33.9013 38.3127H33.8913Z" fill="#FF7795"/>
<path d="M53.7912 34.9827C53.2412 33.5927 50.9212 33.4927 50.0212 34.5627C48.5512 36.3027 50.6812 38.2727 52.5212 37.6127C53.5412 37.2427 54.2012 35.9927 53.8012 34.9827H53.7912Z" fill="#FF7795"/>
<path d="M68.3512 38.6213C67.8012 37.2313 65.4812 37.1313 64.5812 38.2013C63.1112 39.9413 65.2412 41.9113 67.0812 41.2513C68.1012 40.8813 68.7612 39.6313 68.3612 38.6213H68.3512Z" fill="#FF7795"/>
<path d="M58.7712 50.8811C58.2212 49.4911 55.9012 49.3911 55.0012 50.4611C53.5312 52.2011 55.6612 54.1711 57.5012 53.5111C58.5212 53.1411 59.1812 51.8911 58.7812 50.8811H58.7712Z" fill="#FF7795"/>
<path d="M53.0212 64.6819C52.4712 63.2919 50.1512 63.1919 49.2512 64.2619C47.7812 66.0019 49.9112 67.9719 51.7512 67.3119C52.7712 66.9419 53.4312 65.6919 53.0312 64.6819H53.0212Z" fill="#FF7795"/>
<path d="M67.0114 62.762C66.4614 61.372 64.1414 61.272 63.2414 62.342C61.7714 64.082 63.9014 66.052 65.7414 65.392C66.7614 65.022 67.4214 63.772 67.0214 62.762H67.0114Z" fill="#FF7795"/>
<path d="M74.4811 51.6526C73.9311 50.2626 71.6111 50.1626 70.7111 51.2326C69.2411 52.9726 71.3711 54.9426 73.2111 54.2826C74.2311 53.9126 74.8911 52.6626 74.4911 51.6526H74.4811Z" fill="#FF7795"/>
</svg>
