<svg width="100" height="100" viewBox="0 0 100 100" fill="none" xmlns="http://www.w3.org/2000/svg">
<path d="M85.8765 30.7297C85.6949 28.6643 83.9652 27.0801 81.8919 27.0801H18.8117C16.4643 27.0801 14.6215 29.0921 14.8271 31.4305L18.568 73.9701C18.7496 76.0355 20.4793 77.6197 22.5526 77.6197H85.6328C87.9802 77.6197 89.8231 75.6077 89.6174 73.2693L85.8765 30.7297Z" fill="#D9D9D9"/>
<path d="M14.1235 30.7297C14.3051 28.6643 16.0348 27.0801 18.1081 27.0801H81.1883C83.5357 27.0801 85.3785 29.0921 85.1729 31.4305L81.432 73.9701C81.2504 76.0355 79.5207 77.6197 77.4474 77.6197H14.3672C12.0198 77.6197 10.1769 75.6077 10.3826 73.2693L14.1235 30.7297Z" fill="#F9F9F9"/>
<rect x="19.4355" y="22" width="4.57142" height="9.90475" rx="2.28571" transform="rotate(2.42292 19.4355 22)" fill="#808080"/>
<rect x="68.1973" y="22" width="4.57142" height="9.90475" rx="2.28571" transform="rotate(2.42292 68.1973 22)" fill="#808080"/>
<rect x="26.7939" y="22.3105" width="4.57142" height="9.90475" rx="2.28571" transform="rotate(2.42292 26.7939 22.3105)" fill="#808080"/>
<rect x="75.5557" y="22.3105" width="4.57142" height="9.90475" rx="2.28571" transform="rotate(2.42292 75.5557 22.3105)" fill="#808080"/>
<path d="M66.979 47.7992C67.3022 47.7166 67.5497 47.7304 67.7214 47.8405C67.9079 47.9369 68.1439 48.2122 68.4296 48.6665C68.6282 48.9832 68.7863 49.1897 68.9038 49.286C69.0845 49.465 69.2321 49.6233 69.3467 49.761C69.5264 49.9537 69.6691 50.0845 69.7747 50.1534C69.8803 50.2222 69.9737 50.3668 70.0549 50.587C70.1499 50.8073 70.4092 51.1446 70.8329 51.5989C71.2565 52.0532 71.5304 52.2804 71.6546 52.2804C71.8617 52.2804 72.0852 52.1427 72.3253 51.8674C72.4315 51.7297 72.6131 51.5989 72.8702 51.475C73.0554 51.3924 73.1923 51.3098 73.2809 51.2272C73.3704 51.1308 73.5726 50.9037 73.8874 50.5457C74.1275 50.2704 74.3549 50.0776 74.5696 49.9675C74.7834 49.8711 74.965 49.7404 75.1146 49.5751C75.2503 49.4099 75.3606 49.3136 75.4453 49.286C75.6424 49.231 75.7624 49.0933 75.8054 48.873C75.8436 48.7216 75.8779 48.6252 75.9084 48.5839C75.9537 48.5289 76.0841 48.4394 76.2998 48.3155C76.545 48.164 76.7154 48.0952 76.8111 48.109C76.9215 48.109 77.0744 48.1916 77.2699 48.3568C77.4525 48.5082 77.5547 48.6252 77.5765 48.7078C77.5993 48.7767 77.5907 48.9006 77.5506 49.0795C77.4437 49.4237 77.2043 49.7885 76.8323 50.174C76.5942 50.4218 76.4496 50.6146 76.3985 50.7522C76.3279 50.9725 76.1941 51.1102 75.997 51.1652C75.9123 51.1928 75.774 51.296 75.5821 51.475C75.3911 51.6402 75.2425 51.7916 75.1363 51.9293C75.03 52.067 74.8405 52.2115 74.5677 52.363C74.2959 52.5007 74.0926 52.6452 73.9578 52.7966C73.6448 53.1271 73.4367 53.3404 73.3334 53.4368C73.231 53.5194 73.1089 53.5883 72.967 53.6433C72.6695 53.7535 72.4549 53.96 72.3234 54.2628C72.1927 54.552 72.0974 55.0269 72.0374 55.6877C71.9755 56.3761 71.9397 56.7891 71.9301 56.9268L71.8925 57.4637C71.8752 57.7115 71.8357 57.98 71.7741 58.2691C71.7321 58.4756 71.7086 58.6132 71.7038 58.6821C71.7128 58.7509 71.7411 58.8404 71.7886 58.9505C71.8608 59.102 71.8858 59.336 71.8637 59.6527C71.8415 59.9693 71.7852 60.1827 71.6947 60.2928C71.498 60.5406 71.2221 60.637 70.8671 60.5819C70.526 60.5269 70.3177 60.3479 70.2422 60.045C70.1678 59.7284 70.15 58.7991 70.1888 57.2572C70.2276 55.7153 70.3067 54.6827 70.4261 54.1596C70.4691 53.9393 70.4476 53.7535 70.3616 53.602C70.2893 53.4506 70.1338 53.306 69.8951 53.1684C69.6701 53.0307 69.3645 52.7622 68.9784 52.363C68.6071 51.95 68.329 51.5851 68.1441 51.2685C67.9573 50.9794 67.8185 50.7935 67.7277 50.7109C67.6231 50.6283 67.5346 50.5113 67.4624 50.3599C67.3764 50.2084 67.3008 50.1052 67.2357 50.0501C67.1586 49.9675 67.0579 49.8298 66.9333 49.6371C66.8226 49.4444 66.7075 49.3136 66.5881 49.2447C66.4826 49.1759 66.4124 49.0933 66.3778 48.9969C66.3569 48.9006 66.3542 48.7422 66.3696 48.522C66.3869 48.2742 66.433 48.109 66.5077 48.0264C66.5825 47.9437 66.7396 47.868 66.979 47.7992Z" fill="#FF4545"/>
<path d="M59.1651 47.4692C59.8401 47.2902 60.416 47.4417 60.893 47.9235C61.1003 48.1162 61.237 48.2333 61.3031 48.2746C61.4334 48.3847 61.6138 48.6669 61.8443 49.1212C62.0757 49.5618 62.187 49.844 62.1784 49.9679C62.1736 50.0368 62.2246 50.1951 62.3315 50.4429C62.4393 50.6769 62.524 50.9454 62.5857 51.2483C62.6335 51.5511 62.6885 51.7508 62.7508 51.8471C62.8131 51.9435 62.8379 52.0812 62.8254 52.2601C62.8081 52.5079 62.8421 52.8108 62.9275 53.1688C63.0138 53.5129 63.1188 53.7883 63.2424 53.9948C63.3056 54.0774 63.3585 54.2082 63.4012 54.3872C63.4439 54.5661 63.4619 54.7038 63.4552 54.8002C63.4494 54.8828 63.5279 55.2407 63.6906 55.874C63.8671 56.5073 63.9974 56.9134 64.0815 57.0924C64.3071 57.6155 64.432 58.001 64.4561 58.2488C64.4702 58.4416 64.5445 58.6618 64.679 58.9096C64.8244 59.1987 64.8918 59.419 64.8812 59.5705C64.8715 59.7081 64.764 59.9628 64.5586 60.3345C64.479 60.486 64.3077 60.5686 64.0445 60.5823C63.7951 60.5961 63.5786 60.5342 63.395 60.3965C63.3033 60.3276 63.197 60.1693 63.0763 59.9215C62.9566 59.6599 62.8823 59.4397 62.8534 59.2607C62.8255 59.068 62.7823 58.8959 62.7239 58.7444C62.6645 58.6068 62.6268 58.4553 62.6108 58.2901C62.5947 58.1249 62.5615 58.0079 62.5111 57.9391C62.4617 57.8565 62.4354 57.7394 62.4322 57.588C62.4152 57.4366 62.3696 57.2989 62.2954 57.175C62.2094 57.0235 62.1579 56.8721 62.1409 56.7207C62.1098 56.3765 61.9669 56.1493 61.7124 56.0392C61.4717 55.9291 60.9994 55.874 60.2956 55.874C59.7022 55.874 59.3586 55.8533 59.2649 55.812C59.0903 55.7432 58.8088 55.7226 58.4205 55.7501C58.0469 55.7639 57.7532 55.8189 57.5395 55.9153C57.2696 56.0254 56.9818 56.0943 56.6763 56.1218C56.3294 56.1493 56.1416 56.17 56.113 56.1838C56.0155 56.1975 55.9062 56.2801 55.7852 56.4316C55.678 56.583 55.6201 56.7207 55.6114 56.8446C55.6047 56.9409 55.5443 57.113 55.4304 57.3608C55.3312 57.5949 55.2369 57.7601 55.1473 57.8565C55.0716 57.9528 55.0113 58.1249 54.9663 58.3727C54.9233 58.593 54.863 58.7651 54.7853 58.889C54.7086 58.9991 54.6285 59.1574 54.5451 59.364C54.3557 59.9009 54.0566 60.2313 53.6477 60.3552C53.2398 60.4653 52.9335 60.307 52.7287 59.8802C52.513 59.4121 52.6314 58.9028 53.084 58.3521C53.1912 58.2006 53.2629 58.063 53.2992 57.9391C53.3364 57.8014 53.406 57.5949 53.5081 57.3195C53.7928 56.6037 53.938 56.2044 53.9438 56.1218C53.9476 56.0667 54.0198 55.9222 54.1604 55.6881C54.3019 55.4403 54.3756 55.2751 54.3814 55.1925C54.3881 55.0962 54.448 54.9309 54.5609 54.6969C54.6749 54.4491 54.7761 54.2839 54.8647 54.2013C54.9552 54.0912 55.0057 53.9604 55.0163 53.8089C55.0279 53.6437 55.1038 53.3477 55.244 52.921C55.3843 52.4942 55.4997 52.2257 55.5902 52.1156C55.6669 52.0054 55.7372 51.8884 55.801 51.7645C55.8492 51.6682 55.9495 51.5167 56.1019 51.3102C56.3301 51.0073 56.4878 50.7251 56.5751 50.4635C56.63 50.2708 56.6879 50.1331 56.7489 50.0505C56.8099 49.9679 56.8988 49.7821 57.0156 49.493C57.1324 49.2038 57.2144 49.018 57.2616 48.9354C57.3226 48.8528 57.4107 48.7771 57.5259 48.7082C57.6678 48.6532 57.7633 48.5706 57.8124 48.4604C57.8477 48.3503 57.9155 48.2677 58.016 48.2126C58.1174 48.1438 58.1991 48.0612 58.261 47.9648C58.3869 47.7445 58.6882 47.5793 59.1651 47.4692ZM59.9374 49.4517C59.8404 49.2589 59.7072 49.1901 59.5378 49.2451C59.3693 49.2864 59.2133 49.4448 59.0698 49.7201C58.945 49.9266 58.8314 50.0712 58.729 50.1538C58.6257 50.2501 58.5313 50.4153 58.4459 50.6494C58.3458 50.8972 58.2653 51.0624 58.2043 51.145C58.1581 51.2138 58.0606 51.324 57.9121 51.4754C57.7349 51.6406 57.6346 51.7921 57.6112 51.9297C57.5553 52.1362 57.5102 52.2877 57.4759 52.384C57.3848 52.7007 57.323 52.8934 57.2906 52.9623C57.2328 53.1963 57.1493 53.4028 57.0402 53.5818C56.7158 54.0774 56.6334 54.3665 56.7933 54.4491C56.8199 54.4629 56.8544 54.4629 56.8968 54.4491C56.9539 54.4216 57.2737 54.3872 57.8562 54.3458C58.829 54.2495 59.3799 54.1669 59.509 54.098C59.5799 54.0705 59.8017 54.0567 60.1743 54.0567C60.5469 54.0567 60.8008 54.0774 60.9359 54.1187C61.1114 54.1738 61.2376 54.1462 61.3143 54.0361C61.391 53.926 61.3804 53.7814 61.2825 53.6024C61.2222 53.4785 61.1835 53.3409 61.1665 53.1894C61.1642 53.0242 61.1334 52.8728 61.074 52.7351C61.0137 52.6112 60.9879 52.4873 60.9965 52.3634C61.0042 52.2533 60.9611 52.0812 60.867 51.8471C60.7848 51.6406 60.7229 51.441 60.6812 51.2483C60.6433 51.0004 60.3954 50.4016 59.9374 49.4517Z" fill="#FF4545"/>
<path d="M44.0215 47.6964C44.1477 47.6689 44.5272 47.6689 45.1601 47.6964C45.8078 47.7102 46.1513 47.7308 46.1908 47.7584C46.2303 47.7859 46.493 47.779 46.9789 47.7377C47.3396 47.7102 47.5678 47.7033 47.6635 47.7171C47.7729 47.7308 47.9549 47.7928 48.2094 47.9029C48.5438 48.0544 48.7249 48.1301 48.7525 48.1301C48.7801 48.1301 48.8797 48.1852 49.0514 48.2953C49.2222 48.4192 49.3815 48.5087 49.5295 48.5638C49.6489 48.6326 49.7609 48.7083 49.8655 48.7909C49.9425 48.8735 50.0417 48.9355 50.163 48.9768C50.2981 49.0181 50.4634 49.1213 50.6589 49.2865C50.8682 49.4517 51.0168 49.5963 51.1047 49.7202C51.2055 49.8579 51.3132 49.9955 51.4277 50.1332C51.5561 50.2709 51.6298 50.4017 51.6487 50.5256C51.6657 50.677 51.845 51.1726 52.1865 52.0124C52.2805 52.2465 52.3259 52.5837 52.3227 53.0243C52.3343 53.4511 52.2954 53.809 52.2062 54.0981C52.0846 54.4561 52.0657 54.9242 52.1494 55.5024C52.1944 55.8465 52.0772 56.2389 51.798 56.6795C51.5955 57.0099 51.4716 57.2026 51.4264 57.2577C51.0204 57.9323 50.5386 58.4072 49.9812 58.6826C49.795 58.7789 49.6631 58.8891 49.5854 59.013C49.4478 59.2057 49.2252 59.3296 48.9177 59.3847C48.7916 59.4122 48.5793 59.4879 48.2808 59.6118C47.9961 59.7357 47.6858 59.8321 47.3497 59.901C47.0137 59.9698 46.7526 60.0524 46.5665 60.1488C46.3803 60.2451 46.1695 60.3002 45.9339 60.314C45.3937 60.3415 45.0099 60.4035 44.7823 60.4998C44.6247 60.5824 44.4646 60.6031 44.3019 60.5618C44.1253 60.5205 43.8517 60.4861 43.481 60.4585C42.9723 60.431 42.4592 60.369 41.9415 60.2727C41.4385 60.1625 41.1288 60.0524 41.0123 59.9423C40.9343 59.8734 40.8676 59.7426 40.812 59.5499C40.7713 59.3434 40.7705 59.1575 40.8096 58.9923C40.8359 58.8134 40.8263 58.655 40.7807 58.5174C40.7223 58.3659 40.7141 58.187 40.7562 57.9804C40.812 57.7739 40.8382 57.4986 40.8346 57.1544C40.8301 56.824 40.8337 56.5762 40.8452 56.411C40.8715 56.232 40.9117 55.7571 40.9656 54.9861C41.0108 54.339 41.1076 53.2515 41.2558 51.7233C41.3797 50.3466 41.4253 49.5963 41.3925 49.4724C41.338 49.2659 41.3705 48.9974 41.4902 48.667C41.6238 48.3366 41.7683 48.1439 41.924 48.0888C42.5033 47.8961 42.9733 47.7859 43.3341 47.7584C43.6525 47.7446 43.8816 47.724 44.0215 47.6964ZM45.8384 49.2452C45.7181 49.1902 45.6303 49.1626 45.5751 49.1626C45.5199 49.1626 45.3386 49.1902 45.0311 49.2452C44.7246 49.2865 44.4619 49.2934 44.243 49.2659C43.9708 49.2108 43.786 49.1902 43.6884 49.2039C43.6046 49.2177 43.5254 49.2659 43.4506 49.3485C43.2529 49.6101 43.1115 49.9542 43.0265 50.381C42.9414 50.8078 42.9406 51.2139 43.0241 51.5994C43.0867 51.8885 43.091 52.1225 43.0371 52.3015C42.9832 52.4805 42.9678 52.7008 42.9909 52.9623C43.015 53.2101 42.9941 53.4098 42.9283 53.5612C42.8301 53.7815 42.721 54.2564 42.601 54.9861C42.5746 55.1651 42.5759 55.344 42.6048 55.523C42.6989 56.349 42.6913 56.8515 42.5822 57.0305C42.4574 57.237 42.4046 57.4986 42.4238 57.8152C42.4569 58.1319 42.5445 58.359 42.6867 58.4967C42.9316 58.7445 43.4119 58.8822 44.1276 58.9097C44.8571 58.9373 45.5598 58.8547 46.2357 58.6619C47.153 58.3728 47.6914 58.1732 47.8509 58.063C48.0527 57.9391 48.2782 57.7739 48.5273 57.5674C48.7901 57.3609 48.9451 57.2164 48.9923 57.1338C49.069 57.0236 49.2235 56.886 49.4559 56.7208C49.7454 56.528 49.9368 56.3559 50.0302 56.2045C50.1384 56.0393 50.2119 55.7777 50.2507 55.4198C50.3072 55.0068 50.3521 54.7589 50.3855 54.6763C50.4905 54.3597 50.5009 53.8159 50.4168 53.0449C50.3474 52.2602 50.2422 51.7921 50.101 51.6407C50.023 51.5719 49.9488 51.448 49.8785 51.269C49.7607 50.9799 49.6036 50.7596 49.4072 50.6082C49.2256 50.443 48.9459 50.2984 48.5681 50.1745C48.1242 50.0093 47.849 49.8992 47.7425 49.8441C47.6231 49.7753 47.4618 49.7133 47.2586 49.6582C47.0693 49.6032 46.8735 49.5412 46.6713 49.4724C46.4967 49.4036 46.3473 49.3691 46.2231 49.3691C46.1127 49.3691 45.9845 49.3278 45.8384 49.2452Z" fill="#FF4545"/>
<path d="M39.2858 53.9737C39.3596 53.9049 39.5149 53.9531 39.7518 54.1183C40.0034 54.2697 40.1584 54.4212 40.2168 54.5726C40.2753 54.724 40.2058 55.0269 40.0084 55.4812C39.9436 55.6189 39.7565 55.729 39.4471 55.8116C39.1524 55.8805 38.8764 55.8805 38.619 55.8116C38.4159 55.7566 38.271 55.7566 38.1843 55.8116C38.1124 55.8529 37.7655 55.8805 37.1435 55.8942C36.4663 55.908 35.9059 55.9287 35.4624 55.9562C34.9636 55.9837 34.66 55.9837 34.5515 55.9562C34.4292 55.9287 34.0418 55.9424 33.3894 55.9975C32.6807 56.0663 32.2312 56.0801 32.0409 56.0388C31.8506 55.9975 31.6739 55.8598 31.5109 55.6258C31.3606 55.4055 31.3356 55.1715 31.4357 54.9237C31.5368 54.6621 31.714 54.4969 31.9672 54.428C32.121 54.4005 32.2688 54.3592 32.4106 54.3041C32.5101 54.2628 32.6417 54.256 32.8054 54.2835C32.9553 54.311 33.0873 54.2973 33.2016 54.2422C33.3158 54.1871 33.7796 54.1665 34.5929 54.1802C35.4209 54.1802 35.933 54.1596 36.1291 54.1183C36.3971 54.0357 36.7002 54.0426 37.0385 54.1389C37.2003 54.194 37.324 54.2009 37.4097 54.1596C37.5525 54.0907 38.0044 54.0426 38.7654 54.015C39.0828 54.015 39.2562 54.0013 39.2858 53.9737Z" fill="#FF4545"/>
<path d="M22.4854 47.6964C22.6115 47.6689 22.9911 47.6689 23.624 47.6964C24.2716 47.7102 24.6152 47.7308 24.6547 47.7584C24.6942 47.7859 24.9569 47.779 25.4428 47.7377C25.8035 47.7102 26.0317 47.7033 26.1273 47.7171C26.2368 47.7308 26.4188 47.7928 26.6733 47.9029C27.0077 48.0544 27.1887 48.1301 27.2163 48.1301C27.2439 48.1301 27.3436 48.1852 27.5153 48.2953C27.686 48.4192 27.8454 48.5087 27.9933 48.5638C28.1127 48.6326 28.2247 48.7083 28.3294 48.7909C28.4064 48.8735 28.5056 48.9355 28.6269 48.9768C28.762 49.0181 28.9273 49.1213 29.1228 49.2865C29.332 49.4517 29.4806 49.5963 29.5686 49.7202C29.6693 49.8579 29.777 49.9955 29.8916 50.1332C30.02 50.2709 30.0936 50.4017 30.1126 50.5256C30.1296 50.677 30.3088 51.1726 30.6503 52.0124C30.7444 52.2465 30.7898 52.5837 30.7866 53.0243C30.7981 53.4511 30.7593 53.809 30.6701 54.0981C30.5485 54.4561 30.5295 54.9242 30.6133 55.5024C30.6582 55.8465 30.5411 56.2389 30.2619 56.6795C30.0594 57.0099 29.9355 57.2026 29.8902 57.2577C29.4842 57.9323 29.0025 58.4072 28.445 58.6826C28.2589 58.7789 28.127 58.8891 28.0493 59.013C27.9116 59.2057 27.689 59.3296 27.3816 59.3847C27.2554 59.4122 27.0431 59.4879 26.7447 59.6118C26.46 59.7357 26.1496 59.8321 25.8136 59.901C25.4776 59.9698 25.2165 60.0524 25.0303 60.1488C24.8442 60.2451 24.6333 60.3002 24.3977 60.314C23.8576 60.3415 23.4737 60.4035 23.2462 60.4998C23.0886 60.5824 22.9285 60.6031 22.7657 60.5618C22.5892 60.5205 22.3156 60.4861 21.9449 60.4585C21.4362 60.431 20.923 60.369 20.4053 60.2727C19.9024 60.1625 19.5927 60.0524 19.4762 59.9423C19.3982 59.8734 19.3314 59.7426 19.2759 59.5499C19.2352 59.3434 19.2343 59.1575 19.2735 58.9923C19.2998 58.8134 19.2902 58.655 19.2446 58.5174C19.1862 58.3659 19.178 58.187 19.2201 57.9804C19.2759 57.7739 19.302 57.4986 19.2985 57.1544C19.294 56.824 19.2975 56.5762 19.3091 56.411C19.3354 56.232 19.3755 55.7571 19.4294 54.9861C19.4747 54.339 19.5714 53.2515 19.7197 51.7233C19.8436 50.3466 19.8891 49.5963 19.8564 49.4724C19.8018 49.2659 19.8344 48.9974 19.9541 48.667C20.0876 48.3366 20.2322 48.1439 20.3879 48.0888C20.9672 47.8961 21.4372 47.7859 21.7979 47.7584C22.1163 47.7446 22.3455 47.724 22.4854 47.6964ZM24.3023 49.2452C24.1819 49.1902 24.0942 49.1626 24.039 49.1626C23.9838 49.1626 23.8024 49.1902 23.495 49.2452C23.1885 49.2865 22.9258 49.2934 22.7069 49.2659C22.4347 49.2108 22.2498 49.1902 22.1523 49.2039C22.0685 49.2177 21.9892 49.2659 21.9145 49.3485C21.7168 49.6101 21.5754 49.9542 21.4903 50.381C21.4053 50.8078 21.4045 51.2139 21.4879 51.5994C21.5505 51.8885 21.5549 52.1225 21.501 52.3015C21.447 52.4805 21.4316 52.7008 21.4547 52.9623C21.4788 53.2101 21.458 53.4098 21.3922 53.5612C21.294 53.7815 21.1848 54.2564 21.0648 54.9861C21.0385 55.1651 21.0398 55.344 21.0687 55.523C21.1627 56.349 21.1552 56.8515 21.0461 57.0305C20.9212 57.237 20.8684 57.4986 20.8877 57.8152C20.9207 58.1319 21.0084 58.359 21.1505 58.4967C21.3954 58.7445 21.8757 58.8822 22.5914 58.9097C23.321 58.9373 24.0237 58.8547 24.6996 58.6619C25.6168 58.3728 26.1552 58.1732 26.3147 58.063C26.5166 57.9391 26.7421 57.7739 26.9911 57.5674C27.254 57.3609 27.409 57.2164 27.4562 57.1338C27.5329 57.0236 27.6874 56.886 27.9198 56.7208C28.2093 56.528 28.4007 56.3559 28.4941 56.2045C28.6023 56.0393 28.6758 55.7777 28.7146 55.4198C28.7711 55.0068 28.816 54.7589 28.8494 54.6763C28.9543 54.3597 28.9647 53.8159 28.8806 53.0449C28.8113 52.2602 28.706 51.7921 28.5648 51.6407C28.4868 51.5719 28.4127 51.448 28.3424 51.269C28.2246 50.9799 28.0675 50.7596 27.8711 50.6082C27.6894 50.443 27.4097 50.2984 27.032 50.1745C26.5881 50.0093 26.3129 49.8992 26.2063 49.8441C26.0869 49.7753 25.9257 49.7133 25.7225 49.6582C25.5331 49.6032 25.3374 49.5412 25.1352 49.4724C24.9606 49.4036 24.8112 49.3691 24.687 49.3691C24.5766 49.3691 24.4483 49.3278 24.3023 49.2452Z" fill="#FF4545"/>
</svg>
