<svg width="100" height="100" viewBox="0 0 100 100" fill="none" xmlns="http://www.w3.org/2000/svg">
<path d="M23.6919 54.6968C23.6919 54.6968 23.7519 54.6068 23.7719 54.5468C24.9719 52.2868 25.8319 49.7668 26.9019 47.4268C29.0519 42.7168 31.3219 38.0668 33.7019 33.4868C33.8219 33.2468 33.9519 32.9668 33.8619 32.7068C33.8019 32.5368 33.6619 32.4068 33.5219 32.2868C33.0319 31.8568 31.8319 30.3768 31.1919 30.3368C30.3719 30.2968 30.0719 31.6768 29.7719 32.3068C28.8619 34.2068 27.9519 36.0968 27.0419 37.9968C25.2119 41.7868 23.3619 45.5668 21.5019 49.3268C20.8819 50.5768 20.1019 51.7268 19.5119 52.9968C19.2619 53.5268 18.6119 54.1868 19.3219 54.6968H23.6919Z" fill="#68B29A"/>
<path d="M47.522 35.977C47.742 36.097 47.972 36.217 48.192 36.337V73.807C40.352 73.927 30.932 73.927 23.192 74.007C22.832 74.007 22.912 62.617 22.882 61.477C22.822 59.257 22.382 55.557 22.582 53.377C22.682 52.257 25.222 47.787 26.142 45.547C27.062 43.307 28.302 41.477 29.602 38.537C30.272 37.027 31.972 34.487 32.552 32.947C32.882 32.077 32.382 31.507 33.742 31.837C34.762 32.087 35.612 32.527 36.682 32.717C37.952 32.947 39.222 33.187 40.482 33.487C42.902 34.057 45.332 34.787 47.532 35.967L47.522 35.977Z" fill="#EAC286"/>
<path d="M37.2521 57.7479C37.0121 57.3079 36.6721 56.9179 36.3221 56.5879C36.0521 56.3279 35.5721 56.1179 35.2221 55.9679C34.4221 55.6379 33.5321 55.5479 32.6821 55.6179C31.1521 55.7379 29.9421 56.4379 29.3721 57.8979C29.0321 58.7779 29.0821 59.7279 29.0621 60.6579C29.0321 61.6979 29.0321 62.7479 29.0421 63.7879C29.0621 65.8779 29.0721 68.0579 29.1121 70.1479C29.1421 71.5179 29.1121 72.6779 29.1921 73.9579C31.9221 73.9379 35.3421 73.9279 38.1221 73.9079C38.0521 72.8279 38.0821 71.8379 38.0621 70.7479C38.0221 68.5279 38.0321 66.1879 37.9821 63.9679C37.9521 62.7779 37.9621 61.6379 37.8321 60.4879C37.7321 59.5879 37.7021 58.5679 37.2621 57.7479H37.2521Z" fill="#C07A4F"/>
<path d="M78.062 51.6562H44.042C44.052 52.5462 44.062 53.4363 44.072 54.3363C44.102 57.8263 44.212 59.3863 44.322 63.4463C44.402 66.4563 44.402 70.8563 44.522 73.8663C55.422 73.6963 67.482 73.4063 78.262 73.0063C78.492 72.2063 78.262 65.0963 78.262 64.2663C78.262 57.6563 78.202 58.7063 77.962 52.1763C77.962 52.1063 78.172 51.7363 78.062 51.6663V51.6562Z" fill="#F9E0A3"/>
<path d="M65.8316 31.0074C66.4416 31.0074 67.1916 30.9074 67.7116 31.1074C69.0716 31.6174 70.8816 35.0674 71.6616 36.4174C74.0416 40.5174 75.7516 44.0574 78.0616 48.2074C78.9016 49.7174 80.8016 52.8874 80.3016 53.5974C79.7916 54.1074 56.2116 53.6974 44.0216 53.9874C43.6616 53.9874 43.2816 53.9974 42.9616 53.7974C42.5916 53.5674 42.3616 53.1074 42.1416 52.6774C40.2716 48.8374 38.4116 45.0074 36.5416 41.1674C35.6116 39.2474 34.6716 37.3274 33.7416 35.4074C33.7416 35.0374 33.0816 34.4474 32.9016 34.1174C32.4916 33.3974 32.1816 32.5874 31.8316 31.8374C31.5716 31.2874 31.2916 30.7574 30.8916 30.3074C31.3116 29.9874 32.2916 30.0674 32.8816 30.1074C34.0016 30.1874 35.1316 30.2474 36.2516 30.2874C38.4316 30.3574 40.6116 30.3574 42.7916 30.3274C47.1516 30.2774 51.5216 30.1274 55.8916 30.3074C58.1316 30.4074 60.3816 30.5874 62.6216 30.7674C63.5716 30.8474 64.5316 30.9274 65.4816 30.9974C65.5816 30.9974 65.6916 31.0074 65.8116 31.0074H65.8316Z" fill="#86D7A9"/>
<path d="M56.5116 27.6272C56.4816 27.8472 56.8216 28.0372 56.8116 28.1472C56.7716 29.4872 57.0316 31.3072 57.0416 32.6672C57.0416 33.1272 57.1416 35.1972 57.1516 37.3072L60.5216 38.8372L61.1316 27.6172H56.5116V27.6272Z" fill="#F9E0A3"/>
<path d="M66.6216 27.5666H60.4316C60.4316 27.9366 60.4316 28.3066 60.4316 28.6766C60.4316 30.8166 60.4616 31.7666 60.4716 34.2566C60.4716 35.5766 60.4816 37.3366 60.4916 38.9066L66.7316 38.5966C66.7316 37.1166 66.6616 35.1166 66.6616 34.7466C66.6616 30.7766 66.6616 31.3066 66.6116 27.5566L66.6216 27.5666Z" fill="#F9F3C2"/>
<path d="M66.8817 58.6953H55.9517V64.8953H66.8817V58.6953Z" fill="white"/>
<path d="M56.2517 64.4564C56.1917 62.6564 56.1217 60.8564 56.0617 59.0564C56.0517 58.7364 55.5517 58.7364 55.5617 59.0564C55.6217 60.8564 55.6917 62.6564 55.7517 64.4564C55.7617 64.7764 56.2617 64.7764 56.2517 64.4564Z" fill="#C07A4F"/>
<path d="M56.1318 59.0262C56.9518 58.9162 57.7818 58.9262 58.6018 58.9162C59.4618 58.8962 60.3318 58.8762 61.1918 58.8562C62.9018 58.8162 64.6118 58.7862 66.3318 58.7462C66.6518 58.7462 66.6518 58.2362 66.3318 58.2462C64.6218 58.2862 62.9118 58.3162 61.1918 58.3562C60.3418 58.3762 59.4918 58.3962 58.6518 58.4062C57.8118 58.4162 56.9618 58.4062 56.1318 58.5162C55.8218 58.5562 55.8118 59.0562 56.1318 59.0162V59.0262Z" fill="#C07A4F"/>
<path d="M66.2916 58.7266C66.4316 60.2266 66.6916 61.7366 66.6716 63.2466C66.6716 63.6866 66.6416 64.1266 66.5916 64.5666C66.5816 64.6966 66.7116 64.8166 66.8416 64.8166C66.9916 64.8166 67.0816 64.6966 67.0916 64.5666C67.1616 63.8366 67.1916 63.0966 67.1516 62.3566C67.1116 61.6166 67.0316 60.9366 66.9516 60.2266C66.8916 59.7266 66.8416 59.2266 66.7916 58.7266C66.7816 58.5966 66.6816 58.4766 66.5416 58.4766C66.4116 58.4766 66.2816 58.5866 66.2916 58.7266Z" fill="#C07A4F"/>
<path d="M56.1619 65.3257C59.6419 65.3757 63.1219 65.2757 66.5919 65.0357C66.9119 65.0157 66.9119 64.5157 66.5919 64.5357C63.1219 64.7757 59.6419 64.8757 56.1619 64.8257C55.8419 64.8257 55.8419 65.3257 56.1619 65.3257Z" fill="#C07A4F"/>
<path d="M61.1117 58.8865C61.0217 60.6965 61.0917 62.5065 61.3217 64.2965C61.3417 64.4265 61.4217 64.5465 61.5717 64.5465C61.6917 64.5465 61.8417 64.4265 61.8217 64.2965C61.5917 62.5065 61.5217 60.6965 61.6117 58.8865C61.6317 58.5665 61.1317 58.5665 61.1117 58.8865Z" fill="#C07A4F"/>
<path d="M36.7019 59.6378C36.6719 58.6478 36.4319 57.5678 35.3319 57.0478C34.9419 56.8678 34.4319 56.7578 33.9919 56.7178C32.7219 56.5878 31.2419 56.8278 30.5419 57.8678C30.3719 58.1278 30.2519 58.3978 30.1519 58.6678V61.1678H36.7119V59.8378C36.7119 59.7778 36.7119 59.7078 36.7119 59.6378H36.7019Z" fill="white"/>
<path d="M33.0816 56.3574C33.0116 57.9474 33.1216 59.5474 33.1416 61.1274C33.1416 61.5174 33.1416 61.9074 33.1416 62.2974C33.1416 62.6174 33.6316 62.6174 33.6416 62.2974C33.6716 60.6874 33.5816 59.0674 33.5716 57.4574C33.5716 57.0874 33.5716 56.7174 33.5816 56.3474C33.5916 56.0274 33.0916 56.0274 33.0816 56.3474V56.3574Z" fill="#C07A4F"/>
<path d="M56.0419 29.0972C56.0819 29.2672 56.2819 29.4972 56.4319 29.4872C58.2519 29.4072 58.9119 29.6172 59.7619 29.4572C59.8419 29.4472 61.1819 29.3072 61.2419 29.2072C61.3719 28.9772 61.3119 27.5172 61.2919 27.1672C61.2819 26.8772 61.2419 26.4772 61.1119 26.3172C61.0319 26.2172 60.9319 26.1872 60.8419 26.1772C60.1119 26.0572 59.3519 26.2172 58.6119 26.2272C57.8719 26.2372 57.0819 26.2472 56.3219 26.2972C56.1719 26.3072 55.9919 26.3672 55.9419 26.6572C55.9219 26.7472 55.9219 26.8472 55.9219 26.9472C55.9219 27.6372 55.8719 28.4172 56.0419 29.0972Z" fill="#C07A4F"/>
<path d="M59.4921 29.3971C59.5421 29.5771 59.7521 29.5571 59.9821 29.5571C62.4921 29.5571 64.7121 29.5571 66.8821 29.3471C66.9921 29.3371 67.1221 29.3171 67.2121 29.2071C67.4221 28.9771 67.2521 27.9371 67.2521 27.5571C67.2521 27.2471 67.2521 26.7771 67.1821 26.4171C67.1521 26.2571 66.9721 26.0771 66.8221 26.0571C65.6921 25.9271 64.5121 26.0571 63.3721 26.0771C62.2321 26.0971 61.0121 26.0971 59.8421 26.1571C59.6121 26.1671 59.3421 26.2371 59.2821 26.5471C59.2621 26.6471 59.2721 26.7571 59.2821 26.8671C59.3421 27.6071 59.2621 28.6071 59.4821 29.3871L59.4921 29.3971Z" fill="#E09961"/>
</svg>
