<svg width="100" height="100" viewBox="0 0 100 100" fill="none" xmlns="http://www.w3.org/2000/svg">
<path d="M44.4678 12.3598C44.4678 10.5549 45.9309 9.0918 47.7357 9.0918H63.1844C64.9892 9.0918 66.4523 10.5549 66.4523 12.3598V18.5986C66.4523 20.4035 64.9892 21.8666 63.1844 21.8666H47.7357C45.9309 21.8666 44.4678 20.4035 44.4678 18.5986V12.3598Z" fill="#313131"/>
<path d="M67.3987 20.6758C68.9922 20.6758 70.3535 21.8251 70.6206 23.396L81.8267 89.3032H82.198C83.0184 89.3032 83.6835 89.9683 83.6835 90.7887V98.513C83.6835 99.3334 83.0184 99.9984 82.198 99.9984H26.9395C26.1192 99.9984 25.4541 99.3334 25.4541 98.513V90.7887C25.4541 89.9683 26.1192 89.3032 26.9395 89.3032H27.5714L39.7799 23.349C40.0667 21.7999 41.4179 20.6758 42.9933 20.6758H67.3987Z" fill="#3961C8"/>
<mask id="mask0_3647_3381" style="mask-type:alpha" maskUnits="userSpaceOnUse" x="25" y="20" width="59" height="80">
<path d="M67.3987 20.6758C68.9922 20.6758 70.3535 21.8251 70.6206 23.396L81.8267 89.3032H82.198C83.0184 89.3032 83.6835 89.9683 83.6835 90.7887V98.513C83.6835 99.3334 83.0184 99.9984 82.198 99.9984H26.9395C26.1192 99.9984 25.4541 99.3334 25.4541 98.513V90.7887C25.4541 89.9683 26.1192 89.3032 26.9395 89.3032H27.5714L39.7799 23.349C40.0667 21.7999 41.4179 20.6758 42.9933 20.6758H67.3987Z" fill="#3961C8"/>
</mask>
<g mask="url(#mask0_3647_3381)">
<path d="M79.8211 65.2397H28.4248V62.5659H79.8211V65.2397ZM79.8211 41.4726H28.4248V38.7988H79.8211V41.4726Z" fill="#253F89"/>
</g>
<path d="M61.9962 52.0191C61.9962 56.2031 58.6045 59.5949 54.4205 59.5949C50.2365 59.5949 46.8447 56.2031 46.8447 52.0191C46.8447 47.8351 50.2365 44.4434 54.4205 44.4434C58.6045 44.4434 61.9962 47.8351 61.9962 52.0191Z" fill="#253F89"/>
</svg>
