<svg width="100" height="100" viewBox="0 0 100 100" fill="none" xmlns="http://www.w3.org/2000/svg">
<path d="M88.215 61.3043C89.2008 61.3043 90 62.1034 90 63.0892V75.0974C90 76.0832 89.2008 76.8823 88.215 76.8823H79.1853L82.1973 87.2568C82.5288 88.3987 81.6722 89.5395 80.4832 89.5396H68.6224C67.8283 89.5396 67.1297 89.0149 66.9083 88.2523L63.6072 76.8823H36.3928L33.0917 88.2523C32.8703 89.0149 32.1717 89.5396 31.3776 89.5396H19.5168C18.3278 89.5395 17.4712 88.3987 17.8027 87.2568L20.8147 76.8823H11.785C10.7992 76.8823 10 76.0832 10 75.0974V63.0892C10 62.1034 10.7992 61.3043 11.785 61.3043H88.215ZM57.3834 11C58.3692 11 59.1684 11.7992 59.1684 12.785V21.0609C59.1684 22.0467 58.3692 22.8458 57.3834 22.8458H42.7789C41.7931 22.8458 40.9939 22.0467 40.9939 21.0609V12.785C40.9939 11.7992 41.7931 11 42.7789 11H57.3834Z" fill="#9F6230"/>
<path d="M15.3555 17.0039H84.8078V65.0364H15.3555V17.0039Z" fill="white"/>
</svg>
