<svg width="100" height="100" viewBox="0 0 100 100" fill="none" xmlns="http://www.w3.org/2000/svg">
<path d="M58.8418 20.7109L73.8414 31.3164L43.2793 74.5409L28.2798 63.9355L58.8418 20.7109Z" fill="#F8C04E"/>
<path d="M61.123 17.4844L76.1226 28.0899L73.8419 31.3156L58.8423 20.7101L61.123 17.4844Z" fill="#D9D9D9"/>
<path d="M62.7193 15.2257C63.9789 13.4442 66.4442 13.0211 68.2257 14.2807L76.7738 20.3247C78.5554 21.5844 78.9784 24.0497 77.7188 25.8312L76.1223 28.0892L61.1227 17.4837L62.7193 15.2257Z" fill="#FFC3C3"/>
<path d="M43.2798 74.5391L28.2803 63.9336L27.2036 81.1951L43.2798 74.5391Z" fill="#FFEBC8"/>
<path d="M27.5006 78.3829C27.9414 77.7594 28.8043 77.6113 29.4278 78.0522C30.0514 78.493 30.1994 79.3559 29.7586 79.9794L28.162 82.2374C27.7212 82.861 26.8583 83.009 26.2348 82.5682C25.6113 82.1273 25.4632 81.2644 25.904 80.6409L27.5006 78.3829Z" fill="#2B2B2B"/>
<path d="M59.3595 27.8474C59.6744 27.4021 60.2907 27.2963 60.7361 27.6112C61.1815 27.9261 61.2873 28.5424 60.9724 28.9878L36.7964 63.1804C36.4815 63.6257 35.8652 63.7315 35.4198 63.4166C34.9744 63.1017 34.8687 62.4854 35.1836 62.04L59.3595 27.8474Z" fill="#CA9C3C"/>
<path d="M65.3263 32.0681C65.6412 31.6228 66.2575 31.517 66.7029 31.8319C67.1483 32.1468 67.2541 32.7631 66.9392 33.2085L42.7632 67.4011C42.4483 67.8464 41.832 67.9522 41.3866 67.6373C40.9412 67.3224 40.8355 66.7061 41.1504 66.2607L65.3263 32.0681Z" fill="#CA9C3C"/>
</svg>
