<svg width="100" height="100" viewBox="0 0 100 100" fill="none" xmlns="http://www.w3.org/2000/svg">
<path d="M21.6562 15.7848C21.6562 12.59 24.2462 10 27.4411 10H74.8485C78.0434 10 80.6333 12.59 80.6333 15.7848V84.2152C80.6333 87.41 78.0434 90 74.8485 90H27.4411C24.2462 90 21.6562 87.41 21.6562 84.2152V15.7848Z" fill="#FFAAAA"/>
<path d="M65.2539 50.3493C65.2539 47.1544 67.8439 44.5645 71.0387 44.5645H81.3386C81.7282 44.5645 82.044 44.8803 82.044 45.2699V56.8396C82.044 57.2292 81.7282 57.5451 81.3386 57.5451H71.0387C67.8439 57.5451 65.2539 54.9551 65.2539 51.7602V50.3493Z" fill="white"/>
<path d="M17 20.6528C17 19.6008 17.8528 18.748 18.9048 18.748H24.9718C26.0238 18.748 26.8765 19.6008 26.8765 20.6528C26.8765 21.7048 26.0238 22.5576 24.9718 22.5576H18.9048C17.8528 22.5576 17 21.7048 17 20.6528Z" fill="#A2A2A2"/>
<path d="M17.8467 20.6528C17.8467 19.6008 18.6995 18.748 19.7514 18.748H25.8185C26.8704 18.748 27.7232 19.6008 27.7232 20.6528C27.7232 21.7048 26.8704 22.5576 25.8185 22.5576H19.7514C18.6995 22.5576 17.8467 21.7048 17.8467 20.6528Z" fill="#595959"/>
<path d="M17.8467 29.5395C17.8467 28.4876 18.6995 27.6348 19.7514 27.6348H25.8185C26.8704 27.6348 27.7232 28.4876 27.7232 29.5395C27.7232 30.5915 26.8704 31.4443 25.8185 31.4443H19.7514C18.6995 31.4443 17.8467 30.5915 17.8467 29.5395Z" fill="#595959"/>
<path d="M17.8467 38.4282C17.8467 37.3762 18.6995 36.5234 19.7514 36.5234H25.8185C26.8704 36.5234 27.7232 37.3762 27.7232 38.4282C27.7232 39.4802 26.8704 40.333 25.8185 40.333H19.7514C18.6995 40.333 17.8467 39.4802 17.8467 38.4282Z" fill="#595959"/>
<path d="M17.8467 61.5688C17.8467 60.5169 18.6995 59.6641 19.7514 59.6641H25.8185C26.8704 59.6641 27.7232 60.5169 27.7232 61.5688C27.7232 62.6208 26.8704 63.4736 25.8185 63.4736H19.7514C18.6995 63.4736 17.8467 62.6208 17.8467 61.5688Z" fill="#595959"/>
<path d="M17.8467 70.4575C17.8467 69.4055 18.6995 68.5527 19.7514 68.5527H25.8185C26.8704 68.5527 27.7232 69.4055 27.7232 70.4575C27.7232 71.5095 26.8704 72.3623 25.8185 72.3623H19.7514C18.6995 72.3623 17.8467 71.5095 17.8467 70.4575Z" fill="#595959"/>
<path d="M17.8467 79.3462C17.8467 78.2942 18.6995 77.4414 19.7514 77.4414H25.8185C26.8704 77.4414 27.7232 78.2942 27.7232 79.3462C27.7232 80.3981 26.8704 81.2509 25.8185 81.2509H19.7514C18.6995 81.2509 17.8467 80.3981 17.8467 79.3462Z" fill="#595959"/>
<path d="M73.7199 51.0567C73.7199 52.6931 72.3933 54.0197 70.7569 54.0197C69.1205 54.0197 67.7939 52.6931 67.7939 51.0567C67.7939 49.4203 69.1205 48.0938 70.7569 48.0938C72.3933 48.0938 73.7199 49.4203 73.7199 51.0567Z" fill="#FFAAAA"/>
<path d="M34.4951 26.6491C34.4951 25.2464 35.6322 24.1094 37.0348 24.1094H65.1124C66.515 24.1094 67.6521 25.2464 67.6521 26.6491V32.575C67.6521 33.9776 66.515 35.1147 65.1124 35.1147H37.0348C35.6322 35.1147 34.4951 33.9776 34.4951 32.575V26.6491Z" fill="white"/>
</svg>
