<svg width="100" height="100" viewBox="0 0 100 100" fill="none" xmlns="http://www.w3.org/2000/svg">
<path d="M65.4863 21.7148L82.5314 33.7666L47.8014 82.886L30.7563 70.8342L65.4863 21.7148Z" fill="#FF7777"/>
<path d="M68.0781 18.0508L85.1232 30.1025L82.5314 33.7682L65.4863 21.7164L68.0781 18.0508Z" fill="#D9D9D9"/>
<path d="M69.8926 15.484C71.324 13.4595 74.1255 12.9787 76.15 14.4101L85.8638 21.2783C87.8883 22.7097 88.3691 25.5113 86.9377 27.5358L85.1234 30.1017L68.0783 18.0499L69.8926 15.484Z" fill="#FFC3C3"/>
<path d="M47.8009 82.8858L30.7559 70.834L29.5323 90.4495L47.8009 82.8858Z" fill="#FFEBC8"/>
<path d="M29.8692 87.2537C30.3702 86.5451 31.3508 86.3768 32.0593 86.8778C32.7679 87.3788 32.9362 88.3594 32.4352 89.0679L30.6209 91.6339C30.1199 92.3424 29.1394 92.5107 28.4308 92.0097C27.7223 91.5087 27.554 90.5282 28.055 89.8196L29.8692 87.2537Z" fill="#2B2B2B"/>
<path d="M66.0728 29.8285C66.4306 29.3224 67.131 29.2022 67.6371 29.5601C68.1432 29.9179 68.2634 30.6183 67.9056 31.1244L40.4326 69.98C40.0747 70.4861 39.3743 70.6063 38.8682 70.2485C38.3621 69.8906 38.2419 69.1903 38.5998 68.6841L66.0728 29.8285Z" fill="#BD6161"/>
<path d="M72.854 34.6215C73.2119 34.1154 73.9122 33.9952 74.4184 34.353C74.9245 34.7109 75.0447 35.4113 74.6868 35.9174L47.2138 74.773C46.856 75.2791 46.1556 75.3993 45.6495 75.0415C45.1434 74.6836 45.0232 73.9832 45.381 73.4771L72.854 34.6215Z" fill="#BD6161"/>
</svg>
