<svg width="100" height="100" viewBox="0 0 100 100" fill="none" xmlns="http://www.w3.org/2000/svg">
<path d="M20.23 64.5906C20.44 64.8006 26.42 93.9206 26.42 93.9206L70.49 93.2806L74.26 64.0206L66.36 53.0606L68.21 51.9906L71.35 36.6606L63.45 35.8806C63.59 35.8806 61.17 45.5206 61.17 45.5206L47.29 32.1406L20.24 64.6006L20.23 64.5906Z" fill="#FFEFC2"/>
<path d="M40.3699 68.1094C40.3699 68.1094 40.8999 93.8294 41.1199 93.7594C41.3399 93.6894 54.1199 93.5794 54.1199 93.5794L55.5999 68.3594L40.3599 68.1094H40.3699Z" fill="#D69C4D"/>
<path d="M57.9599 38.8905C55.6599 36.5905 53.5799 34.0905 51.5499 31.5605C50.5399 30.2905 49.1399 29.2505 48.1999 27.9305C47.7699 27.3205 47.5999 26.9305 46.9199 26.5805C46.7799 26.5105 46.1599 26.8205 46.0099 26.8805C45.8899 26.9205 45.7999 27.0405 45.7299 27.1405C44.2399 29.1905 42.4599 30.9805 40.7599 32.8505C39.0599 34.7205 37.6399 36.6705 36.0799 38.5905C32.7999 42.6305 29.2799 46.4705 25.9799 50.4905C21.7899 55.5905 17.9699 60.9805 14.1499 66.3605C14.0499 66.5005 13.9399 66.6605 13.9499 66.8405C13.9499 67.0005 14.0599 67.1305 14.1599 67.2505C15.1099 68.3605 18.1199 70.4105 18.6499 69.8005C26.7699 60.4005 37.4199 46.9305 46.0599 36.7005C51.2699 42.1305 56.7399 48.1605 62.0099 53.3605C66.5999 57.8905 70.9599 62.1805 75.4699 67.2405C76.4899 66.5605 76.8899 65.7405 77.9099 65.0605C78.2699 64.8205 79.3699 63.7505 79.3899 63.3205C79.3999 62.9805 78.6899 61.9405 78.4599 61.6805C71.5699 53.8505 64.8499 46.7305 57.9599 38.9005V38.8905Z" fill="#8BD8B1" stroke="#8BD8B1" stroke-width="0.3" stroke-miterlimit="10"/>
<path d="M70.15 21.7897C72.78 21.7497 77.14 23.5997 76.36 26.9697C75.51 30.6497 66.18 30.9297 64.26 28.1897C62.33 25.4397 64.43 23.2797 67.09 22.3597C68.15 21.9897 69.17 21.7997 70.14 21.7897H70.15Z" fill="#B8D9F8"/>
<path d="M75.5602 6.2498C73.3502 6.5598 71.1802 7.7098 69.3202 9.9898C68.4902 10.9998 67.8602 12.2698 67.9602 13.5698C68.1402 15.8798 70.4402 17.4198 72.6402 18.1698C77.3802 19.7898 86.1702 20.4998 86.6702 13.8398C87.1102 8.0198 80.5102 5.5598 75.5702 6.2498H75.5602Z" fill="#B8D9F8"/>
</svg>
