<svg width="100" height="100" viewBox="0 0 100 100" fill="none" xmlns="http://www.w3.org/2000/svg">
<path d="M31.53 45.9003C28.64 47.7803 26.04 50.3003 24.78 53.5103C23.99 55.5203 23.75 57.7203 23.83 59.8903C24.13 68.2403 29.38 76.2203 36.93 79.8103C42.1 82.2703 47.97 82.7103 53.69 82.7903C58.3 82.8603 63.11 82.6703 67.19 80.5403C79.45 74.1403 76.84 57.1103 67.63 49.2103C58.3 41.2003 41.86 39.2003 31.53 45.9103V45.9003Z" fill="#A58A74"/>
<path d="M38.76 34.6909C41.46 26.1609 29.92 21.2809 24.93 28.0709C24 29.3409 23.84 31.0209 23.96 32.5909C24.1 34.3809 24.61 36.2209 25.85 37.5209C29.54 41.3809 37.17 39.7009 38.76 34.6909Z" fill="#A58A74"/>
<path d="M52.0398 27.0291C50.4898 28.8491 49.8798 31.3491 50.0798 33.7291C50.1898 34.9891 50.5198 36.2591 51.2398 37.2991C53.0998 39.9691 56.8898 40.3591 60.1198 39.9591C61.7198 39.7591 63.3998 39.3791 64.5498 38.2491C65.9198 36.9091 66.2298 34.8091 66.0898 32.8891C65.9398 30.8891 65.3598 28.8691 64.0898 27.3191C61.2998 23.9291 54.8898 23.6791 52.0298 27.0291H52.0398Z" fill="#A58A74"/>
<path d="M77.5898 37.3692C73.3098 40.1792 71.7198 46.6292 76.3798 50.1092C77.9498 51.2892 80.0198 51.4092 81.9298 51.2092C83.7998 51.0092 85.7498 50.4692 87.0698 49.0492C92.7998 42.8792 87.2798 34.1492 79.8398 36.3192C79.0298 36.5592 78.2698 36.9092 77.5898 37.3592V37.3692Z" fill="#A58A74"/>
</svg>
