<svg width="100" height="100" viewBox="0 0 100 100" fill="none" xmlns="http://www.w3.org/2000/svg">
<path d="M70.3656 29.7324C73.5651 29.7324 76.1588 32.3261 76.1588 35.5256V39.0907H94.2069C97.4064 39.0907 100 41.6844 100 44.8839V87.2191C100 90.4186 97.4064 93.0123 94.2069 93.0123H20.009C16.8095 93.0123 14.2158 90.4186 14.2158 87.2191V44.8839C14.2158 41.6844 16.8095 39.0907 20.009 39.0907H23.5741V38.4223C23.5741 37.1917 24.5717 36.1941 25.8023 36.1941H30.7042C31.9348 36.1941 32.9324 37.1917 32.9324 38.4223V39.0907H41.6222V35.5256C41.6222 32.3261 44.216 29.7324 47.4155 29.7324H70.3656Z" fill="#E3E3E3"/>
<path d="M14.2158 48.6719H100V88.1104H14.2158V48.6719Z" fill="#696969"/>
<path d="M78.1641 65.7163C78.1641 77.3453 68.7369 86.7725 57.1079 86.7725C45.4789 86.7725 36.0518 77.3453 36.0518 65.7163C36.0518 54.0873 45.4789 44.6602 57.1079 44.6602C68.7369 44.6602 78.1641 54.0873 78.1641 65.7163Z" fill="#D7D7D7"/>
<path d="M75.0443 65.718C75.0443 75.6241 67.0138 83.6547 57.1076 83.6547C47.2014 83.6547 39.1709 75.6241 39.1709 65.718C39.1709 55.8118 47.2014 47.7812 57.1076 47.7812C67.0138 47.7812 75.0443 55.8118 75.0443 65.718Z" fill="#464646"/>
<path d="M33.3863 16.3633L25.3244 35.5573L11.12 26.2931L21.4853 42.9353L9.09082 50.8681L26.8051 52.5323V70.062L38.8157 53.6418L55.2138 57.9132L43.5871 43.9893L54.117 25.1282L36.1284 36.5558L33.3863 16.3633Z" fill="#EABD6C"/>
<path d="M32.9113 25.7227L27.2251 39.1823L17.2066 32.6859L24.5174 44.3561L15.7754 49.919L28.2695 51.086V63.3786L36.7408 51.864L48.3066 54.8594L40.1061 45.0953L47.533 31.869L34.8454 39.8825L32.9113 25.7227Z" fill="#FFDFA4"/>
</svg>
