<svg width="100" height="100" viewBox="0 0 100 100" fill="none" xmlns="http://www.w3.org/2000/svg">
<path d="M58.8428 20.709L73.8424 31.3145L43.28 74.5396L28.2804 63.9341L58.8428 20.709Z" fill="#FF7777"/>
<path d="M61.123 17.4844L76.1227 28.0899L73.8419 31.3157L58.8423 20.7101L61.123 17.4844Z" fill="#D9D9D9"/>
<path d="M62.7192 15.2258C63.9789 13.4442 66.4442 13.0211 68.2257 14.2808L76.7739 20.3248C78.5555 21.5844 78.9785 24.0498 77.7189 25.8313L76.1224 28.0893L61.1227 17.4838L62.7192 15.2258Z" fill="#FFC3C3"/>
<path d="M43.2799 74.5392L28.2803 63.9336L27.2036 81.1953L43.2799 74.5392Z" fill="#FFEBC8"/>
<path d="M27.4996 78.381C27.9405 77.7574 28.8033 77.6093 29.4269 78.0502C30.0504 78.4911 30.1985 79.354 29.7576 79.9775L28.1611 82.2355C27.7202 82.8591 26.8573 83.0071 26.2338 82.5663C25.6102 82.1254 25.4622 81.2625 25.903 80.639L27.4996 78.381Z" fill="#2B2B2B"/>
<path d="M59.3585 27.8494C59.6734 27.404 60.2898 27.2983 60.7351 27.6132C61.1805 27.9281 61.2863 28.5444 60.9714 28.9898L36.7952 63.1828C36.4802 63.6281 35.8639 63.7339 35.4185 63.419C34.9732 63.1041 34.8674 62.4878 35.1823 62.0424L59.3585 27.8494Z" fill="#BD6161"/>
<path d="M65.3263 32.0662C65.6412 31.6208 66.2575 31.515 66.7029 31.83C67.1483 32.1449 67.2541 32.7612 66.9392 33.2066L42.7629 67.3995C42.448 67.8449 41.8317 67.9507 41.3863 67.6358C40.9409 67.3209 40.8352 66.7045 41.1501 66.2592L65.3263 32.0662Z" fill="#BD6161"/>
</svg>
