<svg width="100" height="100" viewBox="0 0 100 100" fill="none" xmlns="http://www.w3.org/2000/svg">
<g clip-path="url(#clip0_3647_3370)">
<path d="M16.3826 46.4543C21.3211 22.2122 42.4501 7.00074 66.9916 9.32547C88.9067 9.92306 103.064 28.7641 88.6689 45.8498C82.4244 53.2612 80.4345 64.3262 84.3083 73.1196C92.4726 91.6526 79.0613 104.225 50.45 98.6814C26.6967 94.0792 11.4442 70.6963 16.3826 46.4543Z" fill="#D38B50"/>
<path d="M41.6883 49.0196C40.2981 55.1942 35.8379 56.838 31.0359 55.7568C26.2339 54.6757 23.2175 49.9064 24.2987 45.1044C25.3798 40.3024 32.0993 36.2687 36.9013 37.3499C32.6847 47.2573 42.7695 44.2176 41.6883 49.0196Z" fill="#FEE94E"/>
<path d="M59.3516 33.5435C54.0804 37.0467 49.7203 35.1532 46.9958 31.0537C44.2714 26.9542 45.3862 21.4223 49.4857 18.6979C53.5852 15.9735 61.2298 17.7003 63.9542 21.7998C54.0605 26.0486 63.4511 30.8191 59.3516 33.5435Z" fill="#FF4848"/>
<path d="M47.5184 75.0315C46.3573 81.2532 41.9608 83.0607 37.1221 82.1577C32.2835 81.2547 29.0929 76.6001 29.9959 71.7615C30.8989 66.9228 37.4648 62.6436 42.3035 63.5466C38.4558 73.603 48.4214 70.1928 47.5184 75.0315Z" fill="#4AD95B"/>
<path d="M74.3654 83.8531C75.4975 90.0802 72.0337 93.3356 67.1909 94.2161C62.3481 95.0966 57.7084 91.8845 56.8279 87.0416C55.9474 82.1988 60.5575 75.8609 65.4003 74.9804C65.3887 85.7478 73.4849 79.0103 74.3654 83.8531Z" fill="#5BA6FB"/>
</g>
<defs>
<clipPath id="clip0_3647_3370">
<rect width="100" height="100" fill="white"/>
</clipPath>
</defs>
</svg>
