<svg width="100" height="100" viewBox="0 0 100 100" fill="none" xmlns="http://www.w3.org/2000/svg">
<rect x="32.5977" y="66.0801" width="7.98065" height="22.8635" rx="3.99033" transform="rotate(28.2271 32.5977 66.0801)" fill="#DFDFDF"/>
<rect x="46.1572" y="16.2539" width="7.98065" height="22.8635" rx="3.99033" fill="#DFDFDF"/>
<rect width="7.98065" height="22.8635" rx="3.99033" transform="matrix(-0.88108 0.472967 0.472967 0.88108 67.6396 66.0801)" fill="#DFDFDF"/>
<circle cx="50.2556" cy="54.2156" r="31.9226" fill="#FF6161"/>
<circle cx="50.2549" cy="54.2168" r="28.2558" fill="white"/>
<path d="M77.4799 34.583C79.5872 36.1915 82.6996 35.7837 83.4864 33.2522C83.5433 33.0689 83.5965 32.8843 83.6458 32.6985C84.1067 30.9608 84.2208 29.1492 83.9816 27.3674C83.7423 25.5855 83.1545 23.8682 82.2516 22.3136C81.3487 20.7589 80.1485 19.3973 78.7194 18.3064C77.2903 17.2156 75.6603 16.417 73.9226 15.9561C72.1848 15.4952 70.3733 15.3811 68.5914 15.6203C66.8096 15.8595 65.0923 16.4473 63.5376 17.3502C63.3713 17.4468 63.2073 17.5467 63.0456 17.65C60.8112 19.0766 61.2387 22.1864 63.346 23.7948L70.4129 29.1889L77.4799 34.583Z" fill="#FF6161"/>
<path d="M23.1216 34.583C21.0144 36.1915 17.902 35.7837 17.1152 33.2522C17.0582 33.0689 17.0051 32.8843 16.9558 32.6985C16.4949 30.9608 16.3808 29.1492 16.62 27.3674C16.8592 25.5855 17.447 23.8682 18.3499 22.3136C19.2528 20.7589 20.4531 19.3973 21.8822 18.3064C23.3113 17.2156 24.9413 16.417 26.679 15.9561C28.4168 15.4952 30.2283 15.3811 32.0101 15.6203C33.792 15.8595 35.5093 16.4473 37.064 17.3502C37.2302 17.4468 37.3943 17.5467 37.556 17.65C39.7904 19.0766 39.3628 22.1864 37.2556 23.7948L30.1886 29.1889L23.1216 34.583Z" fill="#FF6161"/>
<circle cx="50.5786" cy="54.1089" r="3.34325" fill="#474747"/>
<rect x="50.6865" y="55.0781" width="1.72555" height="15.0985" rx="0.862773" transform="rotate(-90 50.6865 55.0781)" fill="#474747"/>
<rect x="49.3926" y="31.5684" width="1.72555" height="21.785" rx="0.862773" fill="#474747"/>
</svg>
