<svg width="100" height="100" viewBox="0 0 100 100" fill="none" xmlns="http://www.w3.org/2000/svg">
<path d="M55.962 22.7266C69.8222 22.7266 79.4945 24.117 86.1655 27.1481C89.3479 25.9449 92.4401 25.4132 93.7005 26.0654C95.0039 26.7399 95.3528 30.3014 95.1086 34.3156C98.8338 39.6591 99.9999 46.9961 99.9999 56.6222C99.9999 63.779 99.3549 69.3056 97.4933 73.5398C97.7914 77.6187 97.805 81.9395 96.6383 84.194C94.8068 87.7332 88.0065 85.6635 83.9214 83.957C77.3783 85.7266 68.3402 86.3629 55.962 86.3629C41.4951 86.3629 31.1503 85.4938 23.9257 82.9619C21.0037 85.0037 17.1695 87.6007 15.4064 84.194C14.3278 82.1097 12.8028 77.3139 11.7615 72.6536C9.86694 68.5426 9.09082 63.29 9.09082 56.6222C9.09083 47.5748 10.5183 40.5496 14.2322 35.3011C13.8911 30.9727 14.1971 26.9773 15.5855 26.2584C16.9363 25.5594 20.3916 26.2202 23.8064 27.6101C31.0363 24.2577 41.4154 22.7266 55.962 22.7266Z" fill="#D1EDF3"/>
<path d="M55.583 55.7801C53.0999 58.2632 50.6224 59.8117 50.0494 59.2386C49.4763 58.6656 51.0248 56.1881 53.5079 53.705C55.991 51.2219 58.4684 49.6735 59.0415 50.2465C59.6145 50.8196 58.0661 53.297 55.583 55.7801Z" fill="#A5C8CF"/>
<path d="M53.508 55.7802C51.0249 53.2971 49.4764 50.8196 50.0495 50.2466C50.6225 49.6736 53.1 51.222 55.5831 53.7051C58.0662 56.1882 59.6146 58.6657 59.0416 59.2387C58.4685 59.8117 55.9911 58.2633 53.508 55.7802Z" fill="#A5C8CF"/>
</svg>
