<svg width="100" height="100" viewBox="0 0 100 100" fill="none" xmlns="http://www.w3.org/2000/svg">
<path d="M25.3669 22.9942C26.2042 23.4129 27.2648 23.5943 28.9674 23.357C33.6844 22.7011 38.4015 22.1987 43.1464 21.9336C52.6363 21.4172 62.182 21.7521 71.616 22.9663C72.1463 23.0361 72.7185 23.0919 73.193 22.8407C75.2026 21.7242 75.8446 19.5053 78.5659 19.0587C80.0732 18.8075 81.7757 19.3657 82.5573 20.6775C84.0784 23.2873 81.9711 26.2738 83.4783 29.0649C85.2507 32.3585 86.9533 35.1775 87.9581 38.9316C90.0096 46.6491 89.9398 54.9667 87.5813 62.6144C87.4278 63.1307 87.2464 63.675 87.3999 64.1914C87.5534 64.7217 88.0279 65.0985 88.4187 65.5032C89.8561 66.9546 90.4841 69.2992 89.577 71.1274C88.4745 73.3742 85.8508 73.6533 83.7714 72.7602C66.4105 77.8959 48.1425 83.0595 30.4467 79.2496C26.3298 78.3704 24.5574 77.1423 20.5103 78.6495C18.4867 79.4031 16.0305 78.7193 14.6768 77.0446C12.5834 74.4349 14.2721 72.7881 14.8443 70.2621C15.4164 67.7361 13.993 66.2289 13.1835 63.7169C11.788 59.3627 10.4343 54.9667 10.0993 50.3752C9.72253 45.1279 10.4064 39.9364 12.3462 35.0379C13.1975 32.8888 15.0815 30.5861 15.4025 28.3113C15.7514 25.8551 13.6999 23.1617 14.9838 20.8031C15.9607 19.0029 18.5704 18.8075 20.4405 19.6309C23.0502 20.7752 23.8736 22.2545 25.3669 22.9942Z" fill="#FFBBCC"/>
<path d="M76.9053 26.4136C77.0169 26.288 77.1286 26.1764 77.2542 26.0648L77.1146 26.1764C77.2821 26.0508 77.4495 25.9531 77.631 25.8694L77.4635 25.9392C77.6449 25.8554 77.8403 25.7996 78.0496 25.7717L77.8682 25.7996C78.0078 25.7856 78.1334 25.7717 78.2729 25.7856C78.6358 25.7856 78.9847 25.4507 78.9707 25.0879C78.9567 24.6971 78.6637 24.404 78.2729 24.3901C77.3937 24.3622 76.4866 24.7529 75.9144 25.4228C75.7888 25.5624 75.7051 25.7159 75.7051 25.9112C75.7051 26.0787 75.7749 26.288 75.9144 26.3997C76.054 26.5113 76.2214 26.609 76.4029 26.609C76.5843 26.609 76.7797 26.5392 76.8913 26.3997L76.9053 26.4136Z" fill="#FFBBCC"/>
<path d="M80.0592 29.3147L80.3244 27.7098C80.3523 27.5144 80.3523 27.3469 80.2546 27.1655C80.1709 27.0259 80.0034 26.8864 79.8359 26.8445C79.6545 26.8027 79.4591 26.8166 79.2916 26.9143C79.1521 27.012 78.9986 27.1515 78.9707 27.333L78.7055 28.9379C78.6776 29.1333 78.6776 29.3007 78.7753 29.4821C78.859 29.6217 79.0265 29.7613 79.194 29.8031C79.3754 29.845 79.5708 29.831 79.7382 29.7333C79.8778 29.6357 80.0313 29.4961 80.0592 29.3147Z" fill="#FFBBCC"/>
<path d="M19.5894 25.727C19.4918 26.1038 19.4499 26.5085 19.4918 26.8853C19.5336 27.3319 19.6453 27.7366 19.8406 28.1552C19.9104 28.3088 20.1058 28.4344 20.2593 28.4762C20.4268 28.5181 20.6501 28.5041 20.8036 28.4064C20.9571 28.3088 21.0827 28.1692 21.1246 27.9878C21.1664 27.7924 21.1385 27.6249 21.0548 27.4435C21.0408 27.4016 21.0129 27.3598 20.999 27.3179L21.0687 27.4854C20.9711 27.2621 20.9152 27.0248 20.8734 26.7876L20.9013 26.969C20.8734 26.7178 20.8734 26.4666 20.9013 26.2154L20.8734 26.3968C20.8873 26.2852 20.9152 26.1875 20.9431 26.0758C20.985 25.8944 20.9711 25.699 20.8734 25.5316C20.7896 25.392 20.6222 25.2525 20.4547 25.2106C20.0918 25.1269 19.6871 25.3222 19.5894 25.699V25.727Z" fill="#FFBBCC"/>
<path d="M22.5345 25.5463C22.6601 25.9371 22.8834 26.3139 23.2044 26.593C23.5253 26.8721 23.9021 27.0815 24.3208 27.1512C24.4185 27.1791 24.5022 27.1791 24.5999 27.1512C24.6976 27.1512 24.7814 27.1233 24.8651 27.0675C25.0046 26.9838 25.1442 26.8163 25.1861 26.6488C25.2279 26.4674 25.214 26.272 25.1163 26.1046C25.0186 25.965 24.879 25.8115 24.6976 25.7836C24.572 25.7696 24.4604 25.7278 24.3348 25.6859L24.5022 25.7557C24.3766 25.6998 24.251 25.6301 24.1254 25.5324L24.265 25.644C24.1534 25.5603 24.0557 25.4486 23.958 25.337L24.0696 25.4766C23.9859 25.3649 23.9161 25.2533 23.8603 25.1277L23.9301 25.2951C23.9301 25.2951 23.8882 25.1974 23.8742 25.1556C23.8184 24.9881 23.7068 24.8346 23.5533 24.7369C23.3997 24.6392 23.1765 24.6113 23.009 24.6671C22.8415 24.7229 22.674 24.8206 22.5903 24.9881C22.5066 25.1556 22.4647 25.351 22.5205 25.5324L22.5345 25.5463Z" fill="#FFBBCC"/>
<path d="M18.7383 72.6187C18.7802 72.4931 18.8221 72.3814 18.8639 72.2558C18.8919 72.2 18.9058 72.1302 18.9337 72.0744C18.9616 71.9907 18.9337 72.0884 18.9198 72.1163C18.9337 72.0884 18.9477 72.0605 18.9616 72.0325C19.0733 71.7953 19.1849 71.572 19.3245 71.3487C19.3943 71.2371 19.464 71.1394 19.5338 71.0277C19.5617 70.9859 19.6036 70.93 19.6315 70.8882C19.6455 70.8603 19.6734 70.8463 19.6873 70.8184C19.5896 70.9719 19.6455 70.8742 19.6873 70.8324C19.8548 70.623 20.0223 70.4416 20.2176 70.2602C20.4828 70.009 20.4968 69.5205 20.2176 69.2693C19.9385 69.0181 19.5059 68.9902 19.2268 69.2693C18.3895 70.0927 17.7614 71.1254 17.4126 72.2419C17.3009 72.5908 17.5382 73.0234 17.901 73.1071C18.2778 73.1909 18.6407 72.9955 18.7663 72.6187H18.7383Z" fill="#FFBBCC"/>
<path d="M21.739 74.5039C21.8367 74.4341 21.9483 74.3643 22.06 74.3085C22.1158 74.2806 22.1716 74.2527 22.2274 74.2248C22.1018 74.2666 22.367 74.155 22.2274 74.2248C22.4507 74.141 22.688 74.0712 22.9252 74.0294C23.1066 74.0015 22.7996 74.0294 22.9531 74.0294C23.009 74.0294 23.0787 74.0294 23.1346 74.0154C23.2462 74.0154 23.3718 74.0154 23.4835 74.0154C23.5393 74.0154 23.5951 74.0154 23.6509 74.0154C23.6788 74.0154 23.7067 74.0154 23.7486 74.0154C23.637 74.0015 23.623 74.0015 23.7067 74.0154C23.8323 74.0433 23.9579 74.0573 24.0696 74.0992C24.4185 74.1968 24.8372 73.9875 24.9348 73.6107C25.0325 73.2339 24.8232 72.8571 24.4464 72.7455C23.302 72.4384 22.0181 72.6338 21.0273 73.2897C20.7202 73.4991 20.5667 73.9177 20.776 74.2387C20.9714 74.5457 21.4041 74.7132 21.725 74.4899L21.739 74.5039Z" fill="#FFBBCC"/>
<path d="M81.134 68.8674C81.134 68.8674 81.3573 68.8395 81.2456 68.8534C81.134 68.8674 81.3293 68.8534 81.3572 68.8534C81.4549 68.8534 81.5526 68.8395 81.6643 68.8255C81.8876 68.8255 82.0969 68.8255 82.3202 68.8255C82.4179 68.8255 82.5156 68.8395 82.6272 68.8534C82.7807 68.8674 82.4737 68.8255 82.6691 68.8534C82.7249 68.8534 82.7807 68.8674 82.8366 68.8813C83.0459 68.9232 83.2692 68.979 83.4785 69.0349C83.8274 69.1465 84.26 68.9093 84.3438 68.5464C84.4275 68.1836 84.2321 67.8068 83.8553 67.6812C82.8505 67.3881 81.8178 67.3323 80.799 67.4997C80.6316 67.5276 80.4641 67.6812 80.3804 67.8207C80.2966 67.9742 80.2548 68.1975 80.3106 68.365C80.4362 68.7557 80.7851 68.9093 81.1758 68.8534L81.134 68.8674Z" fill="#FFBBCC"/>
<path d="M83.2131 64.6075C83.3108 64.9843 83.4643 65.3611 83.6876 65.6821C83.8132 65.8635 83.9388 66.0449 84.0923 66.1984C84.2458 66.3519 84.4273 66.5054 84.6087 66.631C84.7483 66.7287 84.9855 66.7427 85.153 66.7008C85.3204 66.659 85.4879 66.5334 85.5716 66.3798C85.6554 66.2124 85.6972 66.017 85.6414 65.8356L85.5716 65.6681C85.5158 65.5565 85.4321 65.4867 85.3204 65.4169C85.3065 65.4029 85.2786 65.389 85.2646 65.375L85.4042 65.4867C85.2227 65.3471 85.0553 65.1797 84.9018 64.9843L85.0134 65.1238C84.8599 64.9284 84.7483 64.7191 84.6506 64.4958L84.7203 64.6633C84.6645 64.5237 84.6087 64.3842 84.5808 64.2307C84.5389 64.0632 84.4133 63.8957 84.2598 63.812C84.1063 63.7283 83.883 63.6864 83.7155 63.7422C83.3527 63.8678 83.1294 64.2167 83.2271 64.6075H83.2131Z" fill="#FFBBCC"/>
<path d="M21.5297 52.0089C20.7621 50.0691 17.5244 49.9296 16.2684 51.4228C14.2169 53.8511 17.1895 56.6004 19.7573 55.6793C21.1808 55.1629 22.1019 53.4185 21.5436 52.0089H21.5297Z" fill="#FF7795"/>
<path d="M34.8988 62.4308C34.1313 60.491 30.8935 60.3514 29.6375 61.8447C27.5861 64.273 30.5586 67.0222 33.1265 66.1012C34.5499 65.5848 35.471 63.8403 34.9128 62.4308H34.8988Z" fill="#FF7795"/>
<path d="M44.2621 43.4523C43.4946 41.5125 40.2568 41.3729 39.0008 42.8662C36.9493 45.2945 39.9219 48.0437 42.4897 47.1227C43.9132 46.6063 44.8343 44.8618 44.2761 43.4523H44.2621Z" fill="#FF7795"/>
<path d="M27.9906 33.3918C27.2231 31.4519 23.9853 31.3124 22.7293 32.8056C20.6778 35.2339 23.6504 37.9832 26.2183 37.0621C27.6417 36.5457 28.5628 34.8013 28.0046 33.3918H27.9906Z" fill="#FF7795"/>
<path d="M55.7621 28.7433C54.9946 26.8035 51.7568 26.6639 50.5008 28.1572C48.4493 30.5855 51.4219 33.3347 53.9897 32.4137C55.4132 31.8973 56.3343 30.1529 55.7761 28.7433H55.7621Z" fill="#FF7795"/>
<path d="M76.0824 33.8214C75.3149 31.8816 72.0771 31.7421 70.8211 33.2353C68.7696 35.6636 71.7422 38.4129 74.3101 37.4918C75.7335 36.9754 76.6546 35.231 76.0964 33.8214H76.0824Z" fill="#FF7795"/>
<path d="M62.7123 50.9308C61.9447 48.991 58.707 48.8514 57.451 50.3447C55.3995 52.773 58.3721 55.5222 60.9399 54.6012C62.3634 54.0848 63.2845 52.3404 62.7263 50.9308H62.7123Z" fill="#FF7795"/>
<path d="M54.6879 70.1906C53.9203 68.2508 50.6826 68.1112 49.4266 69.6045C47.3751 72.0327 50.3477 74.782 52.9155 73.8609C54.339 73.3446 55.2601 71.6001 54.7018 70.1906H54.6879Z" fill="#FF7795"/>
<path d="M74.2123 67.5129C73.4447 65.573 70.207 65.4335 68.951 66.9267C66.8995 69.355 69.8721 72.1043 72.4399 71.1832C73.8634 70.6668 74.7845 68.9224 74.2263 67.5129H74.2123Z" fill="#FF7795"/>
<path d="M84.6371 52.0089C83.8696 50.0691 80.6318 49.9296 79.3758 51.4228C77.3243 53.8511 80.2969 56.6004 82.8647 55.6793C84.2882 55.1629 85.2093 53.4185 84.6511 52.0089H84.6371Z" fill="#FF7795"/>
</svg>
