<svg width="100" height="100" viewBox="0 0 100 100" fill="none" xmlns="http://www.w3.org/2000/svg">
<path d="M59.5041 20.9082C62.8948 20.9082 65.6434 23.6569 65.6434 27.0475V30.8256H84.7698C88.1604 30.8256 90.9091 33.5742 90.9091 36.9649V81.8291C90.9091 85.2197 88.1604 87.9684 84.7698 87.9684H6.13931C2.74867 87.9684 0 85.2197 0 81.8291V36.9649C3.49915e-07 33.5742 2.74867 30.8256 6.13931 30.8256H9.91735V30.1172C9.91735 28.8131 10.9745 27.7559 12.2786 27.7559H17.4734C18.7775 27.7559 19.8347 28.8131 19.8347 30.1172V30.8256H29.0437V27.0475C29.0437 23.6569 31.7923 20.9082 35.183 20.9082H59.5041Z" fill="#E3E3E3"/>
<path d="M0 40.9805H90.9091V82.775H0V40.9805Z" fill="#696969"/>
<path d="M67.7687 59.0426C67.7687 71.3663 57.7784 81.3566 45.4547 81.3566C33.131 81.3566 23.1406 71.3663 23.1406 59.0426C23.1406 46.7189 33.131 36.7285 45.4547 36.7285C57.7784 36.7285 67.7687 46.7189 67.7687 59.0426Z" fill="#D7D7D7"/>
<path d="M64.4628 59.0434C64.4628 69.5414 55.9525 78.0517 45.4546 78.0517C34.9566 78.0517 26.4463 69.5414 26.4463 59.0434C26.4463 48.5454 34.9566 40.0352 45.4546 40.0352C55.9525 40.0352 64.4628 48.5454 64.4628 59.0434Z" fill="#464646"/>
</svg>
