<svg width="100" height="100" viewBox="0 0 100 100" fill="none" xmlns="http://www.w3.org/2000/svg">
<path d="M63.9225 27.7637C66.7381 27.7637 69.0205 30.0461 69.0205 32.8617V35.999H84.9029C87.7185 35.999 90.0009 38.2814 90.0009 41.097V78.3519C90.0009 81.1675 87.7185 83.4499 84.9029 83.4499H19.6088C16.7932 83.4499 14.5107 81.1675 14.5107 78.3519V41.097C14.5107 38.2814 16.7932 35.999 19.6088 35.999H22.746V35.4107C22.746 34.3278 23.6239 33.4499 24.7068 33.4499H29.0205C30.1035 33.4499 30.9813 34.3278 30.9813 35.4107V35.999H38.6284V32.8617C38.6284 30.0461 40.9109 27.7637 43.7264 27.7637H63.9225Z" fill="#E3E3E3"/>
<path d="M14.5107 44.4316H90.0009V79.1375H14.5107V44.4316Z" fill="#696969"/>
<path d="M70.7844 59.4298C70.7844 69.6633 62.4885 77.9592 52.255 77.9592C42.0215 77.9592 33.7256 69.6633 33.7256 59.4298C33.7256 49.1963 42.0215 40.9004 52.255 40.9004C62.4885 40.9004 70.7844 49.1963 70.7844 59.4298Z" fill="#D7D7D7"/>
<path d="M68.0393 59.4308C68.0393 68.1482 60.9725 75.2151 52.255 75.2151C43.5376 75.2151 36.4707 68.1482 36.4707 59.4308C36.4707 50.7134 43.5376 43.6465 52.255 43.6465C60.9725 43.6465 68.0393 50.7134 68.0393 59.4308Z" fill="#464646"/>
<path d="M31.38 16L24.2855 32.8907L11.7857 24.7383L20.9072 39.3834L10 46.3642L25.5886 47.8287V63.2549L36.1579 48.805L50.5882 52.564L40.3567 40.3109L49.623 23.7131L33.7931 33.7694L31.38 16Z" fill="#EABD6C"/>
<path d="M30.9624 24.2363L25.9586 36.0808L17.1423 30.364L23.5758 40.6338L15.8828 45.5291L26.8777 46.556V57.3736L34.3324 47.2407L44.5103 49.8766L37.2938 41.2842L43.8295 29.6451L32.6644 36.697L30.9624 24.2363Z" fill="#FFDFA4"/>
</svg>
