<svg width="100" height="100" viewBox="0 0 100 100" fill="none" xmlns="http://www.w3.org/2000/svg">
<path d="M97.9715 67.1639C99.0918 67.1639 99.9999 68.0721 99.9999 69.1923V82.8379C99.9999 83.9582 99.0918 84.8663 97.9715 84.8663H87.7105L91.1332 96.6555C91.51 97.9531 90.5365 99.2495 89.1853 99.2495H75.7072C74.8048 99.2495 74.011 98.6533 73.7593 97.7867L70.0081 84.8663H39.0826L35.3314 97.7867C35.0798 98.6533 34.2859 99.2495 33.3835 99.2495H19.9054C18.5542 99.2495 17.5808 97.9531 17.9575 96.6555L21.3802 84.8663H11.1192C9.99897 84.8663 9.09082 83.9582 9.09082 82.8379V69.1923C9.09082 68.0721 9.99896 67.1639 11.1192 67.1639H97.9715ZM62.9356 10C64.0558 10 64.964 10.9081 64.964 12.0284V21.4328C64.964 22.553 64.0558 23.4612 62.9356 23.4612H46.3396C45.2193 23.4612 44.3112 22.553 44.3112 21.4328V12.0284C44.3112 10.9081 45.2193 10 46.3396 10H62.9356Z" fill="#9F6230"/>
<path d="M15.1758 16.8242H94.0989V71.4066H15.1758V16.8242Z" fill="white"/>
</svg>
