<svg width="100" height="100" viewBox="0 0 100 100" fill="none" xmlns="http://www.w3.org/2000/svg">
<g clip-path="url(#clip0_3647_3405)">
<path d="M22.5635 15.6655C22.5635 12.0349 25.5066 9.0918 29.1371 9.0918H83.0092C86.6397 9.0918 89.5829 12.0349 89.5829 15.6655V93.4272C89.5829 97.0577 86.6397 100.001 83.0092 100.001H29.1371C25.5066 100.001 22.5635 97.0577 22.5635 93.4272V15.6655Z" fill="#FFAAAA"/>
<path d="M72.1064 54.9448C72.1064 51.3142 75.0496 48.3711 78.6801 48.3711H90.3845C90.8272 48.3711 91.1861 48.73 91.1861 49.1728V62.3201C91.1861 62.7629 90.8272 63.1218 90.3845 63.1218H78.6801C75.0496 63.1218 72.1064 60.1786 72.1064 56.5481V54.9448Z" fill="white"/>
<path d="M17.2725 21.1977C17.2725 20.0023 18.2415 19.0332 19.437 19.0332H26.3313C27.5267 19.0332 28.4958 20.0023 28.4958 21.1977C28.4958 22.3931 27.5267 23.3622 26.3313 23.3622H19.437C18.2415 23.3622 17.2725 22.3931 17.2725 21.1977Z" fill="#A2A2A2"/>
<path d="M18.2344 21.1977C18.2344 20.0023 19.2035 19.0332 20.3989 19.0332H27.2932C28.4886 19.0332 29.4577 20.0023 29.4577 21.1977C29.4577 22.3931 28.4886 23.3622 27.2932 23.3622H20.3989C19.2035 23.3622 18.2344 22.3931 18.2344 21.1977Z" fill="#595959"/>
<path d="M18.2344 31.2954C18.2344 30.0999 19.2035 29.1309 20.3989 29.1309H27.2932C28.4886 29.1309 29.4577 30.0999 29.4577 31.2954C29.4577 32.4908 28.4886 33.4599 27.2932 33.4599H20.3989C19.2035 33.4599 18.2344 32.4908 18.2344 31.2954Z" fill="#595959"/>
<path d="M18.2344 41.3969C18.2344 40.2015 19.2035 39.2324 20.3989 39.2324H27.2932C28.4886 39.2324 29.4577 40.2015 29.4577 41.3969C29.4577 42.5923 28.4886 43.5614 27.2932 43.5614H20.3989C19.2035 43.5614 18.2344 42.5923 18.2344 41.3969Z" fill="#595959"/>
<path d="M18.2344 67.6938C18.2344 66.4984 19.2035 65.5293 20.3989 65.5293H27.2932C28.4886 65.5293 29.4577 66.4984 29.4577 67.6938C29.4577 68.8892 28.4886 69.8583 27.2932 69.8583H20.3989C19.2035 69.8583 18.2344 68.8892 18.2344 67.6938Z" fill="#595959"/>
<path d="M18.2344 77.7934C18.2344 76.598 19.2035 75.6289 20.3989 75.6289H27.2932C28.4886 75.6289 29.4577 76.598 29.4577 77.7934C29.4577 78.9888 28.4886 79.9579 27.2932 79.9579H20.3989C19.2035 79.9579 18.2344 78.9888 18.2344 77.7934Z" fill="#595959"/>
<path d="M18.2344 87.895C18.2344 86.6995 19.2035 85.7305 20.3989 85.7305H27.2932C28.4886 85.7305 29.4577 86.6995 29.4577 87.895C29.4577 89.0904 28.4886 90.0595 27.2932 90.0595H20.3989C19.2035 90.0595 18.2344 89.0904 18.2344 87.895Z" fill="#595959"/>
<path d="M81.7262 55.7479C81.7262 57.6074 80.2187 59.1149 78.3592 59.1149C76.4996 59.1149 74.9922 57.6074 74.9922 55.7479C74.9922 53.8883 76.4996 52.3809 78.3592 52.3809C80.2187 52.3809 81.7262 53.8883 81.7262 55.7479Z" fill="#FFAAAA"/>
<path d="M37.1533 28.011C37.1533 26.4171 38.4454 25.125 40.0393 25.125H71.9457C73.5396 25.125 74.8317 26.4171 74.8317 28.011V34.745C74.8317 36.3389 73.5396 37.631 71.9457 37.631H40.0393C38.4454 37.631 37.1533 36.3389 37.1533 34.745V28.011Z" fill="white"/>
</g>
<defs>
<clipPath id="clip0_3647_3405">
<rect width="100" height="100" fill="white"/>
</clipPath>
</defs>
</svg>
