<svg width="80" height="76" viewBox="0 0 80 76" fill="none" xmlns="http://www.w3.org/2000/svg">
<path d="M29.8575 47.4473C29.2594 49.3916 29.4011 51.2889 29.2122 53.2802C29.0076 55.4754 28.205 57.8587 27.2764 59.85C27.7485 60.1166 28.3309 59.8814 28.8502 59.7716C28.9132 59.7716 28.9919 59.7403 29.0706 59.7716C29.1808 59.7716 29.2594 59.85 29.3539 59.8971C30.5185 60.587 31.6832 60.195 32.9423 60.2107L35.4448 60.242C35.6651 60.242 35.8855 60.242 36.0901 60.3047C36.3104 60.3675 36.4993 60.4772 36.7039 60.5399C37.4436 60.7595 38.2305 60.2891 39.0175 60.3047C39.4109 60.3047 39.8044 60.4459 40.1979 60.4459C40.67 60.4459 41.1107 60.242 41.5829 60.2891C41.9606 60.3204 42.3069 60.4929 42.6689 60.5556C43.3614 60.6811 43.8178 60.2577 44.4316 60.1793C44.6834 60.1479 44.9824 60.195 45.2343 60.2107C46.0842 60.242 46.9498 60.2734 47.7997 60.2577C48.6968 60.2577 49.5782 60.0852 50.4438 60.2577C51.3409 60.4145 52.2537 60.1636 53.1194 59.8971C53.1823 59.8814 53.2453 59.85 53.2768 59.803C53.3082 59.756 53.2925 59.6932 53.2768 59.6462C52.9935 58.2193 52.7259 56.8081 52.4426 55.3813C52.1593 53.9544 52.1751 52.5903 51.876 51.2105C51.4983 49.4386 50.6956 47.7923 49.9087 46.1616C49.2004 44.6877 48.4922 43.2138 47.7682 41.7399C46.7137 39.576 45.3917 37.1614 43.0308 36.5498C42.055 36.299 41.032 36.393 40.0405 36.5185C37.601 36.8321 35.0513 37.3966 33.2571 39.0273C32.1239 40.0464 31.636 41.3322 31.5416 42.8374C31.5258 43.2138 31.5258 43.5901 31.4157 43.9507C31.3212 44.28 31.1324 44.5779 30.9592 44.8601C30.4399 45.7382 30.0779 46.5849 29.8103 47.4473H29.8575Z" fill="#F8C04E"/>
<path d="M34.6421 37.0517C32.3127 39.0273 30.849 41.5988 30.6444 44.6564C30.4398 47.714 31.3999 50.944 31.8406 54.0643C32.1081 55.8988 32.2813 57.8588 31.8878 59.6933C31.7304 60.4303 32.8636 60.7439 33.021 60.0069C33.7292 56.8239 32.9738 53.4057 32.3757 50.2698C31.8406 47.4944 31.3684 44.531 32.4544 41.8184C33.0839 40.2504 34.2014 38.9646 35.4762 37.8827C36.0586 37.3966 35.2244 36.5656 34.6421 37.0517Z" fill="#231F20"/>
<path d="M44.2584 37.8199C45.5018 38.6509 46.5248 39.7485 47.1701 41.1126C47.7524 42.3513 47.9727 43.7468 48.02 45.0953C48.0672 46.5849 47.9413 48.0744 47.7839 49.5483C47.595 51.4456 47.4848 53.3585 47.6422 55.2558C47.7681 56.9179 48.0514 58.6269 48.8226 60.1165C49.1689 60.7908 50.1919 60.1949 49.8457 59.5207C49.1531 58.2036 48.9171 56.6513 48.8069 55.1774C48.6652 53.2488 48.7754 51.3202 48.98 49.3915C49.2791 46.4751 49.4837 43.3548 48.2403 40.6109C47.5163 39.0272 46.2887 37.7571 44.8565 36.785C44.2269 36.3616 43.6288 37.3808 44.2584 37.8042V37.8199Z" fill="#231F20"/>
<path d="M30.8019 45.0325C29.3854 46.5692 28.7559 48.4821 28.5041 50.5205C28.2837 52.4334 28.3782 54.3777 28.0162 56.275C27.7958 57.3725 27.4181 58.3917 26.7885 59.3168C26.3636 59.944 27.3866 60.5399 27.8116 59.9127C28.9447 58.2506 29.291 56.2906 29.4326 54.3307C29.5743 52.3707 29.5271 50.5362 30.0465 48.7173C30.3612 47.6511 30.8806 46.6789 31.6361 45.8636C32.1554 45.3148 31.3213 44.4681 30.8019 45.0325Z" fill="#231F20"/>
<path d="M48.3821 45.5814C49.9718 46.7888 50.7115 48.6547 51.1049 50.5363C51.5299 52.5433 51.6243 54.5973 52.0021 56.62C52.0965 57.1688 52.2224 57.7019 52.3798 58.2194C52.5529 58.7995 52.7418 59.411 53.151 59.8657C53.6546 60.4302 54.4888 59.5992 53.9851 59.0347C53.6861 58.7054 53.5917 58.141 53.4658 57.7333C53.3398 57.2629 53.2297 56.7768 53.1352 56.3064C52.9464 55.3029 52.8362 54.2994 52.7103 53.2802C52.4585 51.2262 52.1752 49.1094 51.2309 47.2435C50.6957 46.1773 49.9245 45.2835 48.9645 44.5623C48.7127 44.3741 48.3034 44.5152 48.1618 44.7661C47.9887 45.064 48.1146 45.3776 48.3664 45.5658L48.3821 45.5814Z" fill="#231F20"/>
<path d="M38.089 50.9911C38.2621 52.5591 38.0418 54.1428 38.0103 55.7264C38.0103 56.1027 38.0103 56.4791 38.0103 56.871C38.0103 57.2787 37.9631 57.7021 38.0103 58.1098C38.0418 58.5801 38.152 59.0035 38.3408 59.4269C38.4195 59.615 38.5297 59.8032 38.6241 59.9913C38.6714 60.0854 38.7343 60.1638 38.7973 60.2579C38.8287 60.3049 38.8602 60.3363 38.8917 60.3833C39.0176 60.5558 39.0176 60.5401 38.8917 60.3363V60.0227C38.9389 59.8502 39.0333 59.7561 39.1593 59.7091C39.2222 59.6934 39.2222 59.6777 39.1593 59.7091C39.1278 59.7091 39.0963 59.7248 39.0648 59.7248C39.0176 59.7248 38.7815 59.7718 38.9232 59.7561C38.7658 59.7718 38.6241 59.7875 38.4668 59.8032C37.9474 59.8659 37.4909 59.8032 37.0503 59.5209C36.405 59.1289 35.8069 60.1324 36.4522 60.5401C36.9086 60.8224 37.4123 60.9635 37.9474 60.9948C38.2621 61.0105 38.5769 60.9635 38.876 60.9321C39.175 60.9008 39.5999 60.8694 39.836 60.6342C40.2924 60.1795 39.7731 59.6934 39.537 59.2857C39.3324 58.9251 39.1907 58.5488 39.1593 58.1411C39.112 57.6707 39.1593 57.2003 39.1593 56.7456C39.1593 55.8519 39.175 54.9738 39.2222 54.08C39.2694 53.0765 39.3324 52.0573 39.2222 51.0538C39.1907 50.7402 38.9704 50.458 38.6241 50.458C38.3251 50.458 37.9946 50.7246 38.0261 51.0538L38.089 50.9911Z" fill="#231F20"/>
<path d="M40.9218 51.2262C41.032 52.5276 41.1736 53.829 41.2681 55.1305C41.3153 55.789 41.3468 56.4476 41.3468 57.1061C41.3468 57.3884 41.3468 57.6863 41.331 57.9685C41.331 58.094 41.3153 58.2351 41.2995 58.3605C41.2995 58.4232 41.2995 58.486 41.2838 58.5487C41.2838 58.3919 41.2838 58.6114 41.2681 58.6584C41.2366 58.8936 41.1579 59.1131 41.0949 59.3327C41.0635 59.4267 41.1107 59.3013 41.1107 59.2856C41.1107 59.317 41.0792 59.3483 41.0635 59.3797C41.0477 59.4111 41.032 59.4581 41.0005 59.4895C41.0005 59.4895 40.969 59.5208 40.969 59.5365C40.9375 59.6149 41.0635 59.4424 41.0005 59.5051C40.969 59.5365 40.9376 59.5679 40.9061 59.5992C40.67 59.8187 40.6857 60.2107 40.9061 60.4302C41.1422 60.6654 41.5041 60.6498 41.7402 60.4302C42.0707 60.1323 42.2439 59.6776 42.3383 59.2699C42.4642 58.7211 42.5114 58.1253 42.5272 57.5608C42.5586 56.181 42.4327 54.8012 42.3068 53.4214C42.2439 52.6844 42.1652 51.9632 42.1022 51.2262C42.0707 50.9126 41.8504 50.6304 41.5041 50.6304C41.2051 50.6304 40.8903 50.8969 40.9061 51.2262H40.9218Z" fill="#231F20"/>
<path d="M34.7209 56.5257C34.7367 56.6511 34.7524 56.7608 34.7839 56.8863V56.7295C34.8783 57.5919 34.8626 58.4543 34.7524 59.3167V59.1599C34.7524 59.2853 34.7367 59.4264 34.6737 59.5519L34.7367 59.4107C34.7367 59.4107 34.6895 59.5205 34.6422 59.5675L34.7367 59.4421C34.7367 59.4421 34.658 59.5205 34.6108 59.5675L34.7367 59.4735C34.7367 59.4735 34.6108 59.5519 34.5478 59.5832L34.6895 59.5205C34.5793 59.5675 34.4534 59.6146 34.3275 59.6303H34.4849C34.4849 59.6303 34.4219 59.6146 34.3747 59.6146H34.5321C34.3904 59.6146 34.2488 59.5362 34.1071 59.4891C33.8081 59.3951 33.4461 59.5989 33.3831 59.8968C33.3045 60.2261 33.4776 60.524 33.7924 60.6181C33.9183 60.6651 34.0442 60.7122 34.1701 60.7435C34.3589 60.7906 34.5478 60.7749 34.7367 60.7278C35.1301 60.6024 35.5236 60.4142 35.7125 60.0379C35.8856 59.7087 35.9013 59.348 35.9486 58.9717C35.9958 58.564 36.0115 58.1407 35.9958 57.733C35.9958 57.2156 35.9328 56.6981 35.8384 56.1964C35.8069 56.0553 35.681 55.9141 35.5708 55.8514C35.4449 55.773 35.2561 55.7417 35.1144 55.7887C34.9728 55.8357 34.8311 55.9298 34.7682 56.0553C34.6895 56.1964 34.6737 56.3375 34.7052 56.51L34.7209 56.5257Z" fill="#231F20"/>
<path d="M43.2513 57.8586C43.2513 57.8586 43.2513 57.9056 43.2513 57.9213V57.7645C43.2671 58.0937 43.2513 58.423 43.2041 58.7523V58.5955C43.2041 58.8464 43.1412 59.0973 43.1097 59.3325C43.0625 59.646 42.9523 60.0067 43.0939 60.3203C43.2513 60.6966 43.6448 60.8691 44.054 60.8691C44.3373 60.8691 44.6206 60.7907 44.9039 60.7436H44.7465C44.8567 60.7436 44.9511 60.7436 45.0613 60.7593H44.9039C45.1085 60.7593 45.2974 60.8534 45.4862 60.9004C45.7223 60.9475 45.9741 60.9788 46.2102 60.9632C46.6981 60.9632 47.1703 60.822 47.5952 60.6025C47.8628 60.4614 47.9729 60.0537 47.7998 59.8028C47.611 59.5206 47.2804 59.4422 46.9971 59.599C46.9342 59.6304 46.887 59.6617 46.824 59.6774L46.9657 59.6147C46.7453 59.7088 46.525 59.7558 46.3046 59.7872H46.462C46.2417 59.7872 46.0213 59.7872 45.801 59.7715H45.9584C45.6436 59.7558 45.3446 59.6147 45.0298 59.5833C44.715 59.552 44.3845 59.6617 44.0697 59.6931H44.2271C44.117 59.6931 44.0225 59.6931 43.9124 59.6774H44.0697C44.0697 59.6774 43.991 59.6774 43.9438 59.6774L44.0855 59.7401C44.0855 59.7401 44.0225 59.7088 43.991 59.6931L44.117 59.7872C44.117 59.7872 44.0855 59.7558 44.0697 59.7401L44.1642 59.8656C44.1642 59.8656 44.1484 59.8342 44.1484 59.8185L44.2114 59.9596C44.2114 59.9596 44.2114 59.9283 44.2114 59.8969V60.0537C44.2114 59.9753 44.2429 59.8969 44.2429 59.8185V59.9753C44.2743 59.5676 44.353 59.1757 44.416 58.768C44.4789 58.3603 44.4789 57.9683 44.416 57.5606C44.4003 57.4195 44.2586 57.2784 44.1484 57.2157C44.0225 57.1373 43.8337 57.1059 43.692 57.153C43.5504 57.2 43.4087 57.2941 43.3458 57.4195C43.2671 57.5763 43.2671 57.7018 43.2828 57.8742L43.2513 57.8586Z" fill="#231F20"/>
<path d="M45.6907 57.106C45.7536 57.7018 45.8323 58.3133 46.0055 58.8935C46.1629 59.3795 46.3989 59.8656 46.8081 60.1949C47.06 60.3987 47.3433 60.5555 47.6738 60.6339C47.8312 60.6653 47.9886 60.6496 48.1302 60.5712C48.2561 60.4928 48.3663 60.3674 48.3978 60.2263C48.4607 59.9283 48.3033 59.5834 47.9886 59.505C47.8941 59.4893 47.7997 59.4579 47.721 59.4109L47.8626 59.4736C47.7525 59.4266 47.6423 59.3639 47.5479 59.2855L47.6738 59.3795C47.5793 59.3011 47.4849 59.2071 47.4062 59.113L47.5006 59.2384C47.3905 59.0973 47.296 58.9248 47.2174 58.7524L47.2803 58.8935C47.0757 58.4231 46.997 57.9056 46.9183 57.4039V57.5607C46.9183 57.4196 46.9183 57.2785 46.8868 57.1373C46.8711 56.9805 46.8396 56.8394 46.7137 56.714C46.6035 56.6042 46.4462 56.5415 46.2888 56.5415C46.1314 56.5415 45.974 56.6042 45.8638 56.714C45.7694 56.8237 45.675 56.9805 45.6907 57.1373V57.106Z" fill="#231F20"/>
<path d="M32.1396 17.3581C31.6517 17.7971 31.2268 18.3146 30.8963 18.879C29.9362 20.5568 29.7001 22.5168 29.5585 24.414C29.2122 28.726 30.8805 33.6024 32.8793 37.4439C34.0125 39.6077 34.7837 41.5834 37.1917 42.2733C39.4424 42.9005 42.6688 43.2141 44.5575 41.5677C45.7851 40.5015 46.21 38.8394 46.8868 37.3812C48.681 33.5083 50.2392 29.4159 50.066 25.1039C49.9086 21.4349 48.8069 16.4957 44.1011 16.7623C42.5114 16.8563 40.8117 17.4051 39.9932 18.7379C38.7656 17.5306 37.3806 16.2605 35.6494 16.088C34.3588 15.9626 33.1154 16.4957 32.1396 17.3581Z" fill="#F8C04E"/>
<path d="M46.4776 14.3788C46.336 14.3317 46.1786 14.2847 46.0369 14.2533C43.7863 13.7046 41.1107 14.614 40.1192 16.668C39.0961 14.7081 36.6094 13.7359 34.3588 14.0338C32.1081 14.3317 30.1408 15.6802 28.6771 17.358C26.3635 19.9765 25.1044 23.379 24.5535 26.7972C23.9397 30.5447 24.4591 34.3549 23.924 38.0553C23.6564 39.9055 23.2944 41.7714 23.4361 43.6373C23.5305 44.876 25.0729 50.3169 27.1976 49.1723C28.3466 50.897 31.1481 51.2734 32.7219 49.9092C31.211 47.8552 31.8248 45.0485 31.8406 42.524C31.8406 40.2975 31.3369 38.1023 30.9749 35.9072C30.2982 31.8461 29.9047 27.3146 30.9749 23.2692C31.1323 22.7048 31.3212 22.1403 31.6202 21.6229C32.5331 20.1333 34.4689 19.3336 36.2159 19.6786C37.9629 20.0235 39.3952 21.4974 39.7257 23.2065C39.5053 22.0462 41.5514 20.5253 42.4327 20.149C43.7233 19.5845 45.5333 19.6002 46.5563 20.6664C47.2173 21.3406 47.5321 22.2814 47.7524 23.1908C48.7282 27.3146 47.9885 31.5482 47.9413 35.7033C47.9098 39.5919 48.9171 43.2923 48.1616 47.2437C47.9413 48.3569 47.658 49.5015 47.0127 50.4423C47.8941 51.0225 49.2004 50.9127 49.9559 50.1758C51.4038 50.6148 53.0879 51.0225 54.3155 50.1601C54.9136 49.7367 55.2913 49.0782 55.5746 48.4196C56.8022 45.4718 56.9753 41.6616 56.4245 38.557C55.9838 36.111 55.1811 33.7277 54.5988 31.2973C53.5758 27.0637 53.3554 22.4539 51.1835 18.5496C50.1447 16.6994 48.5236 15.053 46.4933 14.3945L46.4776 14.3788Z" fill="#984E25"/>
<path d="M34.5004 31.187C35.3696 31.187 36.0743 30.499 36.0743 29.6504C36.0743 28.8017 35.3696 28.1138 34.5004 28.1138C33.6312 28.1138 32.9265 28.8017 32.9265 29.6504C32.9265 30.499 33.6312 31.187 34.5004 31.187Z" fill="#231F20"/>
<path d="M44.8092 30.9834C45.6785 30.9834 46.3831 30.2954 46.3831 29.4468C46.3831 28.5981 45.6785 27.9102 44.8092 27.9102C43.94 27.9102 43.2354 28.5981 43.2354 29.4468C43.2354 30.2954 43.94 30.9834 44.8092 30.9834Z" fill="#231F20"/>
<path d="M39.5526 41.63C41.2215 41.63 42.5744 40.8087 42.5744 39.7955C42.5744 38.7823 41.2215 37.9609 39.5526 37.9609C37.8837 37.9609 36.5308 38.7823 36.5308 39.7955C36.5308 40.8087 37.8837 41.63 39.5526 41.63Z" fill="#231F20"/>
<path d="M30.4083 34.0723C31.3369 35.5933 32.0766 37.2083 32.8793 38.7919C33.4931 40.015 34.1542 41.3321 35.2244 42.2258C35.7752 42.6805 36.4363 43.0255 37.1603 43.1196C37.475 43.1666 37.7898 43.0412 37.8842 42.7119C37.9629 42.4297 37.7898 42.0377 37.475 41.9906C37.3491 41.9749 37.2075 41.9436 37.0816 41.9122C37.0186 41.8965 36.9399 41.8652 36.877 41.8495C36.8455 41.8495 36.6566 41.7554 36.7668 41.8181C36.6566 41.7711 36.5307 41.7084 36.4205 41.6457C36.3576 41.6143 36.3104 41.5829 36.2631 41.5359C36.2317 41.5202 36.0428 41.3791 36.153 41.4575C35.9326 41.285 35.728 41.0812 35.5392 40.8617C35.4919 40.8146 35.4447 40.7519 35.3975 40.7049C35.3818 40.6735 35.3503 40.6422 35.3346 40.6265C35.2401 40.4854 35.13 40.3599 35.0355 40.2031C34.2014 38.9331 33.6033 37.5219 32.9265 36.1734C32.4701 35.264 31.9979 34.3546 31.4628 33.4922C31.0694 32.8493 30.0463 33.4451 30.4398 34.088L30.4083 34.0723Z" fill="#231F20"/>
<path d="M47.9728 32.7082C47.5479 33.4765 47.2173 34.2761 46.8711 35.0915C46.698 35.5148 46.5091 35.9382 46.336 36.3615C46.3832 36.2518 46.3045 36.4243 46.3045 36.4243C46.2888 36.4713 46.2573 36.534 46.2415 36.5811C46.1943 36.6908 46.1471 36.7849 46.0999 36.8947C46.0055 37.1142 45.8953 37.3494 45.8009 37.5689C45.4231 38.3842 44.9982 39.1996 44.4788 39.9365C44.4158 40.0306 44.3529 40.109 44.2899 40.1874C44.2899 40.1874 44.1798 40.3285 44.2585 40.2345C44.227 40.2815 44.1955 40.3129 44.164 40.3599C44.0224 40.5324 43.8807 40.7048 43.7233 40.8616C43.5817 41.0028 43.44 41.1439 43.2827 41.2693C43.2512 41.3007 43.204 41.332 43.1725 41.3634C43.0466 41.4732 43.2669 41.3007 43.141 41.3948C43.0466 41.4575 42.9521 41.5202 42.8577 41.5829C42.6688 41.7084 42.4642 41.8181 42.2596 41.9122C42.3855 41.8495 42.2439 41.9122 42.2124 41.9279C42.1495 41.9592 42.0865 41.9749 42.0236 41.9906C41.9134 42.022 41.8032 42.0533 41.693 42.0847C41.5829 42.116 41.457 42.1317 41.3468 42.1631C41.1737 42.1944 41.4727 42.1631 41.2996 42.1631C41.2366 42.1631 41.1579 42.1631 41.095 42.1788C40.8274 42.1944 40.5756 42.1788 40.308 42.1788C39.9933 42.1474 39.71 42.461 39.71 42.7746C39.71 43.1195 39.9775 43.3391 40.308 43.3704C41.2681 43.4488 42.2439 43.2607 43.1095 42.8216C43.8965 42.4139 44.5575 41.8024 45.1083 41.1125C46.336 39.5602 47.0757 37.7257 47.8154 35.9225C47.8626 35.7971 47.9256 35.6716 47.9728 35.5462C48.0043 35.4835 48.02 35.4364 48.0515 35.3737C48.0515 35.3424 48.1144 35.2012 48.0987 35.2483C48.083 35.2953 48.1459 35.1542 48.1459 35.1228C48.1774 35.0601 48.1931 35.0131 48.2246 34.9504C48.2718 34.8249 48.3348 34.7152 48.382 34.5897C48.5709 34.1664 48.7755 33.743 48.9958 33.3197C49.3578 32.6611 48.3348 32.0653 47.9728 32.7238V32.7082Z" fill="#231F20"/>
<path d="M40.0406 22.7202C40.0406 21.9675 39.836 21.2149 39.411 20.5877C39.2222 20.3055 39.0018 20.0546 38.7343 19.8351C38.5926 19.7253 38.451 19.6156 38.2936 19.5215C38.1362 19.4274 37.9788 19.3647 37.8214 19.2863C37.5224 19.1609 37.1761 19.0981 36.8456 19.0981C36.5309 19.0981 36.2476 19.3647 36.2476 19.694C36.2476 20.0233 36.4994 20.2741 36.8456 20.2898C36.9401 20.2898 37.0188 20.2898 37.1132 20.3055H36.9558C37.1447 20.3055 37.3335 20.3682 37.5224 20.4466L37.3807 20.3839C37.6011 20.478 37.8057 20.5877 37.9788 20.7288L37.8529 20.6348C38.0575 20.7916 38.2306 20.9797 38.388 21.1679L38.2936 21.0424C38.451 21.2463 38.5769 21.4658 38.6871 21.7167L38.6241 21.5756C38.7343 21.8421 38.813 22.1243 38.8444 22.4066V22.2498C38.8444 22.4066 38.8444 22.5634 38.8444 22.7202C38.8444 23.0338 39.112 23.316 39.4425 23.316C39.773 23.316 40.0406 23.0651 40.0406 22.7202Z" fill="#231F20"/>
<path d="M35.1614 19.0044C30.4398 19.3493 29.7315 24.7902 29.8102 28.5063C29.8575 30.4036 30.0778 32.2852 30.2509 34.1824C30.4713 36.848 30.9749 39.5136 31.0221 42.1948C31.0379 43.5119 30.8647 44.8133 30.9277 46.1304C30.9906 47.4475 31.3369 48.749 32.0924 49.8779C32.5016 50.5051 33.5246 49.9249 33.1154 49.2821C31.8405 47.3535 32.1396 45.1896 32.2025 43.0102C32.2812 40.5014 31.8248 38.0083 31.5572 35.5152C31.3684 33.6963 31.1795 31.8618 31.0693 30.043C30.9592 28.2241 30.912 26.2955 31.3054 24.4609C31.7461 22.4383 32.8636 20.3528 35.1771 20.1804C35.9326 20.1176 35.9326 18.9417 35.1771 19.0044H35.1614Z" fill="#231F20"/>
<path d="M41.2838 21.2778C42.4799 19.9293 44.4316 19.5687 45.8953 20.7447C47.6737 22.1715 47.9098 24.8528 47.957 26.9696C48.0672 32.2537 47.9728 37.5691 47.8626 42.8532C47.8154 45.1895 47.6737 47.8237 45.9739 49.6112C45.4546 50.16 46.2887 50.991 46.8081 50.4422C48.4764 48.6704 48.8856 46.2557 49.0115 43.9194C49.1532 41.0187 49.1217 38.1022 49.1532 35.2015C49.1846 32.3007 49.2476 29.3686 49.1532 26.4678C49.0587 24.1158 48.5866 21.3405 46.6035 19.7882C44.6204 18.2359 42.055 18.6593 40.4811 20.4468C39.9775 21.0112 40.8116 21.8423 41.3153 21.2778H41.2838Z" fill="#231F20"/>
<path d="M40.0247 15.633C39.0489 14.5981 37.8056 13.7984 36.3891 13.5319C35.1142 13.2967 33.7922 13.4535 32.5803 13.8925C30.0306 14.8333 27.8587 16.8403 26.4894 19.1766C24.8369 22.0146 24.2073 25.4328 23.8296 28.6472C23.4204 32.0654 23.3574 35.5149 22.9639 38.9331C22.5705 42.3513 22.24 46.0204 24.585 48.7801C25.0729 49.3602 25.9071 48.5292 25.4192 47.949C23.5305 45.7382 23.7509 42.5395 24.0499 39.8426C24.3804 36.738 24.5378 33.6177 24.8211 30.4974C25.3248 24.9938 26.4265 18.5964 31.6832 15.6016C32.8479 14.943 34.1542 14.5197 35.492 14.5981C36.9557 14.6765 38.199 15.4291 39.1906 16.464C39.71 17.0128 40.5441 16.1817 40.0247 15.633Z" fill="#231F20"/>
<path d="M55.2284 50.5676C57.2587 47.9491 57.5262 44.5466 57.1957 41.3479C56.8337 37.8356 55.8894 34.4018 55.3228 30.9365C54.7562 27.4713 54.2053 24.0688 53.0564 20.776C52.2065 18.3613 50.9474 16.0721 48.7597 14.6139C46.2888 12.9675 42.5902 12.45 40.7172 15.2411C40.2923 15.8682 41.3153 16.4641 41.7403 15.8369C43.2512 13.6104 46.3045 14.3943 48.1774 15.633C50.0503 16.8718 51.215 19.0199 51.9547 21.1523C52.9935 24.1472 53.5443 27.2988 54.0637 30.4191C54.3313 32.0184 54.5988 33.6178 54.9293 35.2014C55.2598 36.7851 55.6061 38.3531 55.8579 39.9524C56.3616 43.1668 56.5347 47.0083 54.4257 49.7366C54.2368 49.9875 54.1896 50.3168 54.4257 50.5676C54.6303 50.7715 55.071 50.8185 55.2598 50.5676H55.2284Z" fill="#231F20"/>
<path d="M25.5293 34.543C25.7968 39.8114 24.1285 45.8011 27.4966 50.4423C27.6855 50.7089 28.0002 50.8186 28.2993 50.6461C28.5511 50.505 28.6927 50.0974 28.5039 49.8465C25.2774 45.4091 26.9457 39.5919 26.6939 34.543C26.6624 33.7904 25.4663 33.7904 25.5135 34.543H25.5293Z" fill="#231F20"/>
<path d="M51.4668 37.8515C51.5612 39.7801 51.6871 41.7087 51.6242 43.6373C51.5927 44.3743 51.5455 45.0485 51.4038 45.7384C51.3409 46.0834 51.2464 46.4126 51.152 46.7419C51.0576 47.0398 50.9317 47.3691 50.8372 47.6043C50.491 48.3726 50.0346 49.0939 49.5152 49.7681C49.3263 50.019 49.4837 50.4267 49.7198 50.5678C50.0188 50.7403 50.3336 50.6148 50.5225 50.364C51.4511 49.1723 52.1436 47.8238 52.4741 46.3499C52.8361 44.7663 52.8361 43.1199 52.7888 41.5049C52.7574 40.2975 52.6944 39.0902 52.6315 37.8828C52.6 37.1302 51.4196 37.1302 51.4511 37.8828L51.4668 37.8515Z" fill="#231F20"/>
</svg>
