<svg width="80" height="76" viewBox="0 0 80 76" fill="none" xmlns="http://www.w3.org/2000/svg">
<path d="M50.977 49.0147C50.5992 47.823 50.1113 46.6627 49.6706 45.6435C49.4346 45.1104 49.1198 44.0285 48.6319 43.6835C46.9321 41.112 44.0519 39.3245 40.9829 38.9796C37.8036 38.6189 34.4985 39.7636 32.2321 42.0058C28.2817 45.9257 25.1969 59.6612 34.3254 59.2065L34.9707 58.5166C35.2697 59.0027 35.7419 59.3476 36.5131 59.4574C39.2516 59.8337 39.8969 58.1403 40.0543 56.1019C40.2117 58.1246 40.8569 59.818 43.5955 59.4574C45.1694 59.2379 46.6645 59.0497 48.1597 58.5323C49.7965 57.9521 51.7324 58.2814 53.4165 57.6856C54.5339 57.2936 55.9504 56.6037 56.8475 55.8354C57.4298 55.3336 58.4529 53.8597 57.4456 53.3736C56.6586 52.9816 55.1635 54.3458 54.5496 54.6751C53.8571 55.0514 53.0702 55.3179 52.2833 55.2395C51.4176 55.1455 51.8268 53.1384 51.7639 52.5426C51.6695 51.3509 51.3704 50.175 50.9927 49.0303L50.977 49.0147Z" fill="white"/>
<path d="M54.2672 54.7833C53.6376 55.0812 52.9451 55.3008 52.2526 55.2224C52.0008 55.191 51.8749 55.0185 51.7962 54.752C51.5759 55.0342 51.3398 55.3164 51.1194 55.5987C50.8991 56.2259 50.6315 56.8374 50.2538 57.4018C50.0492 57.6998 49.8289 57.982 49.5928 58.2486C50.8676 58.0918 52.2054 58.1074 53.4173 57.6684C53.9367 57.4802 54.5347 57.2294 55.1171 56.9315C54.8023 56.2259 54.5347 55.5046 54.2829 54.7676L54.2672 54.7833Z" fill="#5C564D"/>
<path d="M33.7746 46.5217C33.1293 45.4241 31.886 44.4833 30.8157 43.8875C30.1547 43.5111 28.329 51.7744 28.4235 52.5898C29.0215 52.1037 29.5881 51.8528 30.3436 51.5863C31.4296 51.2099 32.547 50.7866 33.3339 49.9555C34.4671 48.7639 34.3884 47.5722 33.7904 46.5217H33.7746Z" fill="#5C564D"/>
<path d="M49.6235 45.6586C49.3559 45.0628 49.1041 44.4513 48.9625 43.8555C48.0024 44.2318 47.0896 44.7335 46.2554 45.3607C45.9879 45.5489 45.736 45.7684 45.5472 46.0193C44.5084 47.3991 45.7518 49.6256 46.9164 50.5351C48.2542 51.5856 50.017 51.9462 51.5436 52.6518C52.063 52.887 50.9928 48.6065 50.8983 48.3713C50.5364 47.4775 50.0485 46.5838 49.6235 45.6586Z" fill="#5C564D"/>
<path d="M33.9477 53.8126C33.9477 54.8004 33.8218 55.7882 33.869 56.7761C33.9319 57.8423 34.231 58.9242 35.1438 59.5671C35.6475 59.9277 36.2928 60.0375 36.8908 60.0688C37.4574 60.1002 38.0398 60.0531 38.5591 59.8336C39.0785 59.6141 39.4877 59.2848 39.8182 58.8301C40.1015 58.4381 40.2747 57.9834 40.3848 57.513C40.6681 56.3684 40.6524 55.161 40.6366 54.0007C40.6366 53.6871 40.3691 53.4049 40.0386 53.4049C39.7081 53.4049 39.4405 53.6558 39.4405 54.0007C39.4405 54.5025 39.4405 55.0042 39.4405 55.4903C39.4405 55.7412 39.4248 55.9764 39.3933 56.2273C39.3933 56.337 39.3776 56.4468 39.3618 56.5722C39.3618 56.6193 39.3303 56.729 39.3618 56.5409C39.3618 56.5722 39.3618 56.6036 39.3618 56.6349C39.3618 56.6977 39.3461 56.7604 39.3303 56.8074C39.2989 57.0269 39.2359 57.2464 39.1729 57.4503C39.1415 57.5444 39.11 57.6384 39.0785 57.7325C39.0313 57.8736 39.1415 57.6071 39.0785 57.7325C39.047 57.7952 39.0313 57.8423 38.9998 57.905C38.9526 57.9834 38.9054 58.0775 38.8582 58.1559C38.8267 58.1872 38.811 58.2186 38.7795 58.2656C38.7165 58.344 38.8739 58.1559 38.811 58.2343C38.7952 58.2656 38.7637 58.2813 38.748 58.3127C38.685 58.3754 38.6221 58.4538 38.5434 58.5165C38.5277 58.5165 38.5119 58.5479 38.4962 58.5636C38.449 58.6106 38.6221 58.4695 38.5434 58.5322C38.4962 58.5636 38.449 58.5949 38.386 58.642C38.3073 58.689 38.1971 58.7204 38.1185 58.7831C38.1971 58.7204 38.2444 58.736 38.1814 58.7517C38.1499 58.7517 38.1342 58.7674 38.1027 58.7831C38.0398 58.7988 37.9768 58.8301 37.9138 58.8458C37.8037 58.8771 37.6935 58.8928 37.5833 58.9085C37.5833 58.9085 37.7407 58.8928 37.6463 58.9085C37.6148 58.9085 37.5833 58.9085 37.5519 58.9085C37.4732 58.9085 37.3945 58.9085 37.3315 58.9085C37.2056 58.9085 37.064 58.9085 36.938 58.9085C36.8594 58.9085 36.7807 58.9085 36.702 58.8928C36.6547 58.8928 36.6233 58.8928 36.5761 58.8928C36.4344 58.8772 36.702 58.9085 36.5761 58.8928C36.4501 58.8772 36.34 58.8458 36.2141 58.8144C36.1511 58.7987 36.0882 58.7674 36.0409 58.7517C35.9308 58.7204 36.1668 58.8144 36.0724 58.7517C36.0409 58.7517 36.0252 58.7204 35.9937 58.7204C35.8993 58.6733 35.8206 58.6106 35.7262 58.5636C35.6317 58.5165 35.8363 58.6576 35.7576 58.5949C35.7419 58.5792 35.7104 58.5636 35.6947 58.5479C35.6475 58.5165 35.616 58.4695 35.5845 58.4381C35.553 58.4068 35.5216 58.344 35.4743 58.3127C35.5688 58.3754 35.553 58.4224 35.5216 58.3754C35.5216 58.3597 35.4901 58.3284 35.4743 58.3127C35.4114 58.2186 35.3642 58.1245 35.317 58.0304C35.317 57.9991 35.3012 57.9834 35.2855 57.952C35.2383 57.858 35.3327 58.0932 35.3012 57.9991C35.3012 57.952 35.2697 57.9207 35.254 57.8736C35.2225 57.7639 35.191 57.6541 35.1596 57.5444C35.1281 57.4346 35.1124 57.3405 35.0966 57.2308C35.0966 57.1994 35.0966 57.168 35.0966 57.1367C35.1281 57.3092 35.0966 57.2308 35.0966 57.1837C35.0966 57.121 35.0966 57.0583 35.0809 56.9799C34.9864 55.9293 35.1438 54.8788 35.1438 53.8283C35.1438 53.5147 34.8763 53.2324 34.5458 53.2324C34.2152 53.2324 33.9634 53.4833 33.9477 53.8283V53.8126Z" fill="#231F20"/>
<path d="M49.2934 43.6203C47.2159 40.3432 43.4858 38.2421 39.5826 38.3205C36.1987 38.3832 32.7677 40.0139 30.8004 42.8049C29.4783 44.7022 28.6284 46.9914 28.1563 49.2336C27.6841 51.4758 27.4952 53.9689 28.3294 56.1484C28.7543 57.246 29.4311 58.2181 30.4226 58.8767C31.5558 59.6293 32.9566 59.8488 34.3101 59.8018C35.0656 59.7704 35.0656 58.5945 34.3101 58.6258C32.327 58.7199 30.5328 58.0457 29.6357 56.2111C28.7386 54.3766 28.833 52.2128 29.1478 50.3155C29.494 48.1988 30.1866 46.1133 31.2725 44.2631C32.689 41.8328 35.1285 40.2334 37.8985 39.7003C41.9119 38.9163 46.0984 40.8136 48.2704 44.2474C48.6796 44.8903 49.7026 44.2945 49.2934 43.6516V43.6203Z" fill="#231F20"/>
<path d="M44.9492 53.8127C44.9492 54.7535 45.0751 55.6786 45.0279 56.6194C45.0279 56.7292 45.0279 56.8389 45.0122 56.9644C45.0122 57.0271 45.0122 57.0741 44.9964 57.1369C44.9964 57.1682 44.9964 57.1839 44.9964 57.2153C44.9964 57.1682 45.0122 57.0114 44.9964 57.2153C44.965 57.4348 44.9177 57.6543 44.839 57.8581C44.839 57.9052 44.8076 57.9365 44.7918 57.9836C44.7603 58.0933 44.8548 57.8425 44.8076 57.9365C44.8076 57.9679 44.7918 57.9836 44.7761 58.0149C44.7289 58.109 44.6817 58.2031 44.6187 58.2972C44.6187 58.3128 44.5872 58.3285 44.5872 58.3442C44.5557 58.4069 44.5243 58.3756 44.6187 58.2972C44.5872 58.3285 44.5557 58.3756 44.5085 58.4226C44.4771 58.454 44.4456 58.4853 44.4141 58.5167C44.3984 58.5324 44.3669 58.548 44.3511 58.5637C44.241 58.6578 44.4456 58.501 44.3511 58.5637C44.2567 58.6264 44.178 58.6735 44.0836 58.7205C44.0364 58.7519 43.879 58.7832 44.0678 58.7205C44.0049 58.7362 43.9262 58.7676 43.8632 58.7989C43.7373 58.8303 43.6272 58.8616 43.5012 58.8773C43.454 58.8773 43.4383 58.9087 43.5485 58.8773C43.517 58.8773 43.454 58.8773 43.4226 58.8773C43.3281 58.8773 43.2494 58.893 43.155 58.893C43.0291 58.893 42.8874 58.893 42.7615 58.893C42.6986 58.893 42.6199 58.893 42.5569 58.893C42.494 58.893 42.2894 58.846 42.4782 58.893C42.3681 58.8616 42.2579 58.8616 42.1477 58.8303C42.0848 58.8303 42.0375 58.7989 41.9746 58.7832C41.9431 58.7832 41.9274 58.7676 41.8959 58.7519C41.8329 58.7205 41.8329 58.6892 41.9274 58.7676C41.8644 58.7048 41.7385 58.6735 41.6598 58.6264C41.6126 58.5951 41.5654 58.5637 41.5339 58.5324C41.4395 58.4696 41.5182 58.5324 41.5339 58.5324C41.6283 58.5951 41.5339 58.5324 41.5182 58.5167C41.4395 58.454 41.3765 58.3912 41.3136 58.3128C41.2663 58.2658 41.1877 58.1247 41.2978 58.2972C41.2663 58.2501 41.2349 58.2188 41.2034 58.1717C41.1562 58.0933 41.109 58.0149 41.0617 57.9208C41.0303 57.8738 41.0145 57.8268 40.9988 57.7797C40.9988 57.764 40.9988 57.7484 40.9831 57.7327C40.9358 57.6386 41.046 57.8895 40.9831 57.7327C40.9044 57.5289 40.8414 57.325 40.7942 57.1212C40.7627 56.9957 40.747 56.8703 40.7155 56.7449C40.7155 56.6821 40.6998 56.6194 40.684 56.5724C40.6683 56.4626 40.6998 56.7292 40.684 56.6037C40.684 56.5724 40.684 56.5253 40.684 56.494C40.6525 56.2274 40.6368 55.9609 40.6211 55.6943C40.5896 55.1298 40.6053 54.5654 40.6053 54.0009C40.6053 53.6873 40.3378 53.4051 40.0073 53.4051C39.6767 53.4051 39.4249 53.6559 39.4092 54.0009C39.4092 55.0671 39.4092 56.149 39.598 57.1996C39.7869 58.156 40.2276 59.1125 41.0932 59.6299C41.5811 59.9279 42.1635 60.0376 42.7143 60.069C43.3596 60.0847 44.0364 60.0063 44.6187 59.724C45.6575 59.238 46.0509 58.1404 46.1611 57.0898C46.2713 56.0393 46.1139 54.8946 46.1139 53.7814C46.1139 53.4678 45.8463 53.1855 45.5158 53.1855C45.1853 53.1855 44.9177 53.4364 44.9177 53.7814L44.9492 53.8127Z" fill="#231F20"/>
<path d="M48.255 44.123C48.4753 44.2484 48.6012 44.5934 48.7114 44.8129C48.853 45.1265 48.9475 45.4401 49.0734 45.7537C49.278 46.2554 49.4983 46.7572 49.6872 47.2746C50.1121 48.4192 50.4741 49.5796 50.726 50.7712C51.1352 52.7155 51.387 55.1929 50.1594 56.7766C49.3882 57.7644 48.1448 58.1721 46.9172 58.2662C46.1617 58.3289 46.1617 59.5049 46.9172 59.4421C48.2865 59.3324 49.64 58.9404 50.663 57.9682C51.5129 57.1529 51.9693 56.0396 52.1424 54.895C52.5202 52.3235 51.8119 49.6266 50.9306 47.2276C50.6945 46.6004 50.4112 45.9418 50.1751 45.3303C49.8603 44.562 49.6242 43.5585 48.853 43.1038C48.192 42.7118 47.6097 43.731 48.255 44.123Z" fill="#231F20"/>
<path d="M51.7487 56.0391C52.9606 56.1175 54.1252 55.6471 55.164 55.0669C55.6519 54.8004 56.124 54.4868 56.5805 54.1575C56.8165 53.985 57.0369 53.8126 57.273 53.6244C57.3202 53.5774 57.3831 53.5303 57.4304 53.499C57.3517 53.546 57.5248 53.4362 57.5248 53.4519C57.509 53.5146 57.2887 53.4362 57.3044 53.4519C57.1943 53.3265 57.1785 53.3108 57.2257 53.4049C57.21 53.3422 57.21 53.3578 57.2257 53.4049C57.2257 53.4519 57.2415 53.4833 57.2572 53.5303C57.2415 53.4362 57.2572 53.6401 57.2572 53.6401C57.2572 53.7028 57.2572 53.7655 57.2572 53.8439C57.2572 53.8439 57.2415 54.0477 57.2572 53.9537C57.2257 54.2202 57.1313 54.4397 57.0369 54.6279C56.8008 55.0669 56.4545 55.4276 56.0296 55.7412C55.6991 56.0077 55.1954 56.3056 54.7705 56.5252C54.2826 56.7917 53.8419 56.9642 53.3383 57.1367C52.1736 57.5287 51.0562 57.6855 49.8285 57.6541C49.5138 57.6541 49.2305 57.9363 49.2305 58.2499C49.2305 58.5792 49.498 58.8301 49.8285 58.8458C52.2366 58.9242 54.739 58.1872 56.6592 56.729C57.6507 55.9764 58.5635 54.8631 58.4376 53.546C58.4062 53.201 58.3275 52.8404 58.0756 52.5895C57.7609 52.2759 57.3202 52.2603 56.9424 52.4484C56.6592 52.5895 56.4231 52.8404 56.1712 53.0286C55.9666 53.1854 55.7148 53.3735 55.4787 53.5303C54.9122 53.9066 54.2983 54.2673 53.6845 54.5338C53.0707 54.8004 52.4097 54.9572 51.7329 54.9101C51.4182 54.8945 51.1349 55.1924 51.1349 55.506C51.1349 55.8352 51.4024 56.0704 51.7329 56.1018L51.7487 56.0391Z" fill="#231F20"/>
<path d="M21.8456 27.3935C20.3976 32.3954 19.3903 37.4913 18.383 42.5716C17.785 45.6448 17.4072 48.9532 20.4291 51.0857C21.279 51.6815 22.302 52.0892 23.3565 52.1362C25.0877 52.199 26.7718 51.1641 27.2912 49.6431C27.5745 48.7808 27.5902 47.8713 27.5902 46.9776C27.5902 44.704 27.6217 42.4461 27.6374 40.1725C27.6689 35.3588 27.7004 30.5295 26.7246 25.7942C26.4885 24.6025 26.8505 20.9648 24.5526 22.5014C22.963 23.5676 22.302 25.7314 21.8298 27.3778L21.8456 27.3935Z" fill="#F39B4A"/>
<path d="M50.6312 29.8705C50.6312 30.1841 50.6312 30.4977 50.6312 30.8113C50.6785 32.7242 50.0332 34.6528 50.0961 36.5971C50.1433 38.5884 50.584 40.5484 51.009 42.5084C51.4339 44.4213 51.8431 46.3343 52.2681 48.2629C52.5356 49.4859 52.9291 50.8657 54.1252 51.4459C54.6761 51.7124 55.3214 51.7595 55.9509 51.7124C58.5478 51.5243 60.8929 49.6741 61.5067 47.3378C62.5297 43.3865 60.6726 38.5414 59.3977 34.8253C58.2803 31.5639 57.4146 28.1143 55.9195 24.9784C55.164 23.4104 54.5502 22.156 52.693 21.6699C52.5356 21.6229 52.3625 21.5915 52.2051 21.6543C52.0477 21.717 51.9533 21.8738 51.8746 22.0306C51.3552 23.1125 51.1821 24.3041 51.009 25.4801C50.7886 26.9854 50.647 28.4279 50.6312 29.9175V29.8705Z" fill="#F39B4A"/>
<path d="M24.6311 28.0833C24.8042 30.0747 25.6699 32.1444 25.4023 34.1671C25.1347 36.1898 24.2219 37.6951 24.8987 39.7491C25.7328 42.2736 29.337 44.3433 31.9968 45.0018C33.1458 45.2841 34.3262 45.3938 35.5066 45.5036C39.095 45.8329 42.9667 45.8799 46.4607 44.7666C49.9547 43.6534 54.1255 40.9721 53.795 37.1463C53.6848 35.8292 53.008 34.6061 52.8664 33.3047C52.7405 32.0503 53.1025 30.8116 53.3228 29.5729C54.0153 25.9195 53.4959 22.5013 50.4584 19.8985C48.0346 17.8287 44.7295 16.935 41.5502 16.3862C37.285 15.6649 32.3273 15.8688 28.8963 18.5814C26.0004 20.8706 24.3321 24.6181 24.6311 28.0833Z" fill="white"/>
<path d="M37.2062 29.4315C37.222 29.212 37.2062 28.9768 37.2377 28.7573C37.2377 27.6284 37.159 26.4994 37.0646 25.4175C36.7498 22.0777 36.0888 18.6125 33.0984 16.6055C31.5718 16.9975 30.1395 17.6247 28.9119 18.5968C26.016 20.8861 24.3477 24.6335 24.6467 28.0988C24.8199 30.0901 25.6855 32.1598 25.4179 34.1825C25.3078 35.0449 25.0559 35.8289 24.8828 36.6286C27.7315 36.8167 30.9107 37.5537 33.5076 36.3463C36.2147 35.092 37.0016 31.9874 37.2062 29.4472V29.4315Z" fill="#F39B4A"/>
<path d="M40.7163 21.8579C40.5274 23.912 40.7005 25.9974 41.094 28.0201C41.5347 30.2937 42.1013 32.6613 43.5178 34.6056C45.2018 36.9262 48.2237 37.6318 51.0724 36.9419C51.9537 36.7224 52.7879 36.3931 53.5591 35.9697C53.3073 35.076 52.961 34.2136 52.8666 33.2885C52.7407 32.0341 53.1027 30.7954 53.323 29.5567C54.0155 25.9033 53.4961 22.4851 50.4586 19.8823C48.444 18.1575 45.8156 17.2637 43.1715 16.6836C41.519 17.8753 40.9051 19.9136 40.7163 21.8422V21.8579Z" fill="#F39B4A"/>
<path d="M32.0756 34.8721C32.9274 34.8721 33.618 34.1841 33.618 33.3354C33.618 32.4868 32.9274 31.7988 32.0756 31.7988C31.2238 31.7988 30.5332 32.4868 30.5332 33.3354C30.5332 34.1841 31.2238 34.8721 32.0756 34.8721Z" fill="#231F20"/>
<path d="M46.5082 34.8721C47.3601 34.8721 48.0506 34.1841 48.0506 33.3354C48.0506 32.4868 47.3601 31.7988 46.5082 31.7988C45.6564 31.7988 44.9658 32.4868 44.9658 33.3354C44.9658 34.1841 45.6564 34.8721 46.5082 34.8721Z" fill="#231F20"/>
<path d="M39.2842 37.0988C40.927 37.0988 42.2588 36.2774 42.2588 35.2642C42.2588 34.251 40.927 33.4297 39.2842 33.4297C37.6414 33.4297 36.3096 34.251 36.3096 35.2642C36.3096 36.2774 37.6414 37.0988 39.2842 37.0988Z" fill="#231F20"/>
<path d="M28.4403 19.4739C32.7999 16.2909 38.5288 16.8083 43.5967 17.263C44.3522 17.3258 44.3522 16.1498 43.5967 16.0871C38.3242 15.601 32.375 15.162 27.8422 18.4547C27.5904 18.6429 27.4645 18.9565 27.6376 19.2544C27.7793 19.5053 28.1885 19.6464 28.4403 19.4582V19.4739Z" fill="#231F20"/>
<path d="M45.8155 15.821C45.784 15.9465 45.7368 16.0562 45.6896 16.166L45.7526 16.0249C45.6581 16.2287 45.548 16.4168 45.4221 16.605L45.5165 16.4796C45.3748 16.652 45.2175 16.8245 45.0443 16.95L45.1702 16.8559C45.1702 16.8559 45.0758 16.9343 45.0286 16.9656C44.9656 16.997 44.9027 17.0597 44.8555 17.1224C44.8082 17.1852 44.761 17.2479 44.7453 17.3263C44.7138 17.4047 44.7138 17.4831 44.7453 17.5615C44.7453 17.6399 44.7768 17.7183 44.8082 17.781C44.8869 17.9064 45.0128 18.0162 45.1545 18.0475C45.2961 18.0789 45.485 18.0789 45.6109 17.9848C45.8627 17.8124 46.0988 17.6242 46.2877 17.389C46.4765 17.1538 46.6497 16.9186 46.7756 16.652C46.8543 16.4796 46.9172 16.3071 46.9644 16.1346C46.9959 15.9778 46.9802 15.821 46.9015 15.6799C46.87 15.6172 46.8071 15.5545 46.7441 15.5074C46.6812 15.4604 46.6182 15.4133 46.5395 15.3977C46.3821 15.3663 46.2247 15.3663 46.0831 15.4604C45.9414 15.5545 45.847 15.6642 45.8155 15.8053V15.821Z" fill="#231F20"/>
<path d="M26.4885 20.2436C25.2294 21.7332 24.348 23.5364 24.0489 25.4807C23.9073 26.4371 23.8758 27.3779 24.0017 28.3344C24.1434 29.4006 24.4896 30.4198 24.7257 31.4703C24.9933 32.5679 24.9461 33.5871 24.6785 34.6847C24.4109 35.7823 24.0804 36.7544 24.0489 37.8363C24.0017 39.7179 25.009 41.5054 26.3783 42.7441C28.1253 44.3121 30.4231 45.0961 32.6895 45.5665C33.4292 45.7233 33.744 44.5943 33.0043 44.4375C31.1314 44.0455 29.2427 43.4811 27.7003 42.3208C26.3625 41.3173 25.2608 39.7493 25.2451 38.0245C25.2294 36.0645 26.3153 34.2927 26.0792 32.3014C25.9533 31.2665 25.6228 30.263 25.371 29.2595C25.1664 28.3814 25.072 27.4877 25.1192 26.5939C25.2294 24.5869 26.032 22.6426 27.3226 21.106C27.8105 20.5258 26.9764 19.6948 26.4885 20.275V20.2436Z" fill="#231F20"/>
<path d="M45.47 45.5665C47.878 45.0647 50.349 44.218 52.1117 42.4305C52.8829 41.6308 53.5125 40.69 53.843 39.6238C54.205 38.4949 54.1263 37.3189 53.8587 36.1743C53.5754 34.9355 53.119 33.7439 53.2449 32.4581C53.3708 31.1724 53.9374 29.8867 54.1263 28.5695C54.4568 26.2803 54.0004 23.9126 52.8515 21.9056C51.7025 19.8986 49.7824 17.9857 47.5475 17.4212C46.8078 17.2331 46.493 18.3777 47.2327 18.5502C49.0269 19.0049 50.6323 20.5728 51.5923 22.0938C52.7098 23.8499 53.2292 25.951 53.0246 28.0208C52.8987 29.2124 52.458 30.3257 52.2219 31.5017C51.9858 32.6777 52.0645 33.8223 52.3478 34.9826C52.6154 36.0645 53.0088 37.1621 52.9144 38.291C52.8357 39.2789 52.395 40.2196 51.7812 41.0036C50.1916 43.042 47.5947 43.9044 45.1552 44.4218C44.4155 44.5786 44.7303 45.7076 45.47 45.5508V45.5665Z" fill="#231F20"/>
<path d="M23.7816 22.0929C20.744 25.9972 20.0672 31.1245 19.0442 35.8127C18.4776 38.3999 17.8009 41.0027 17.3916 43.6213C17.0769 45.6596 16.9195 47.7764 18.1314 49.5639C19.4692 51.5396 21.7198 52.9194 24.1593 52.5431C24.9148 52.4333 24.5842 51.2887 23.8445 51.4141C21.9559 51.712 20.1144 50.4263 19.1072 48.9054C18.0369 47.2747 18.3045 45.2676 18.6193 43.4331C19.0285 41.0498 19.6265 38.6821 20.1459 36.3145C20.6653 33.9468 21.106 31.736 21.6883 29.4624C22.2707 27.1888 23.1363 24.8212 24.6157 22.9083C24.8046 22.6574 24.8518 22.3281 24.6157 22.0772C24.4111 21.8734 23.9704 21.8263 23.7816 22.0772V22.0929Z" fill="#231F20"/>
<path d="M25.9854 52.1973C26.8667 51.5858 27.512 50.7391 27.937 49.7669C28.3777 48.7164 28.5193 47.5874 28.535 46.4585C28.535 45.7686 28.5036 45.0943 28.4564 44.4044C28.4406 44.0908 28.2045 43.8086 27.8583 43.8086C27.5593 43.8086 27.2445 44.0751 27.2602 44.4044C27.3546 45.7999 27.4491 47.2111 27.1028 48.5282C27.0241 48.7948 26.9454 49.077 26.8353 49.3279C26.8825 49.2338 26.7881 49.422 26.7881 49.4533C26.7566 49.516 26.7251 49.5944 26.6936 49.6572C26.6307 49.7983 26.552 49.9237 26.4733 50.0492C26.4103 50.1589 26.3316 50.2687 26.2529 50.3784C26.2057 50.4412 26.2057 50.4412 26.2529 50.3784C26.2215 50.4098 26.2057 50.4411 26.1742 50.4725C26.127 50.5352 26.0798 50.5823 26.0169 50.645C25.9067 50.7547 25.8122 50.8645 25.6863 50.9586C25.6863 50.9586 25.4975 51.1154 25.5762 51.0527C25.5132 51.0997 25.4503 51.1467 25.3873 51.1938C25.1355 51.3663 24.9938 51.7112 25.1827 51.9935C25.3401 52.2443 25.7178 52.3854 25.9854 52.1973Z" fill="#231F20"/>
<path d="M52.1581 21.764C54.1097 22.7676 55.2743 24.7432 56.1242 26.6875C57.1473 29.0081 57.7453 31.5012 58.4693 33.9316C59.2877 36.6285 60.1061 39.3254 60.594 42.1007C60.8459 43.4963 61.0347 44.9388 61.019 46.3657C61.019 47.4476 60.4839 48.3256 59.7914 49.1253C59.0202 50.0034 58.186 50.7246 57.0371 51.0696C56.0455 51.3675 54.9123 51.3989 54.1726 50.5678C53.669 50.0034 52.8348 50.8344 53.3385 51.3989C54.8966 53.1393 57.6981 52.4337 59.3349 51.2107C60.2478 50.5208 61.1292 49.533 61.6643 48.5138C62.2938 47.2908 62.2151 45.9893 62.105 44.6566C61.8374 41.5206 61.0347 38.4787 60.1376 35.4682C59.6812 33.9473 59.209 32.4263 58.7683 30.9054C58.4064 29.6353 58.0286 28.3809 57.5407 27.1422C56.5649 24.6648 55.1799 22.0463 52.7247 20.7605C52.0479 20.4156 51.4498 21.4191 52.1266 21.7797L52.1581 21.764Z" fill="#231F20"/>
<path d="M50.9151 43.1661C51.0253 44.0442 51.1197 44.9066 51.2456 45.7847C51.34 46.4432 51.4502 47.0861 51.6391 47.7133C51.7335 48.0582 51.8594 48.4032 52.0011 48.7325C52.064 48.8736 52.127 48.999 52.2686 49.0774C52.3945 49.1558 52.5834 49.1872 52.725 49.1402C52.9926 49.0461 53.2602 48.7168 53.1342 48.4189C52.8982 47.8387 52.7093 47.2429 52.5834 46.6314C52.5204 46.3021 52.4575 45.9728 52.4103 45.6592C52.4103 45.5808 52.3788 45.5024 52.3788 45.4084C52.3788 45.3927 52.3473 45.2359 52.3788 45.33C52.3788 45.3456 52.3788 45.424 52.3788 45.33C52.3788 45.2986 52.3788 45.2672 52.3788 45.2359C52.3473 45.0477 52.3316 44.8439 52.3001 44.6557C52.2371 44.154 52.1742 43.6522 52.1112 43.1661C52.0955 43.0093 52.064 42.8682 51.9381 42.7428C51.8279 42.633 51.6705 42.5703 51.5132 42.5703C51.2299 42.5703 50.8836 42.8369 50.9151 43.1661Z" fill="#231F20"/>
</svg>
