<svg width="80" height="76" viewBox="0 0 80 76" fill="none" xmlns="http://www.w3.org/2000/svg">
<path d="M51.7963 48.5615C51.4186 47.3699 50.9307 46.2096 50.49 45.1904C50.2539 44.6573 49.9391 43.5754 49.4512 43.2304C47.7514 40.6589 44.8712 38.8714 41.8022 38.5265C38.623 38.1658 35.3178 39.3104 33.0515 41.5527C29.101 45.4726 26.0162 59.2081 35.1447 58.7534L35.79 58.0635C36.089 58.5496 36.5612 58.8945 37.3324 59.0043C40.0709 59.3806 40.7162 57.6872 40.8736 55.6488C41.031 57.6715 41.6763 59.3649 44.4148 59.0043C45.9887 58.7848 47.4839 58.5966 48.9791 58.0792C50.6159 57.499 52.5517 57.8283 54.2358 57.2325C55.3532 56.8405 56.7697 56.1506 57.6668 55.3822C58.2492 54.8805 59.2722 53.4066 58.2649 52.9205C57.478 52.5285 55.9828 53.8927 55.369 54.2219C54.6765 54.5983 53.8895 54.8648 53.1026 54.7864C52.237 54.6923 52.6462 52.6853 52.5832 52.0895C52.4888 50.8978 52.1898 49.7218 51.812 48.5772L51.7963 48.5615Z" fill="white"/>
<path d="M34.9244 55.0993C35.0031 52.9198 35.491 50.364 34.9244 48.2159C34.7513 47.5573 31.2258 44.1705 31.3045 44.0137C28.4401 49.4075 27.4328 59.129 35.1133 58.737L35.2707 58.5802C34.8929 57.4983 34.8615 56.1969 34.8929 55.0993H34.9244Z" fill="#F39B4A"/>
<path d="M52.6782 54.4556C52.3634 53.8597 52.5995 52.5426 52.568 52.0566C52.4736 50.8649 52.1745 49.6889 51.7968 48.5443C51.482 47.5721 50.9626 44.8282 49.5776 44.8125C49.1999 44.8125 48.8379 44.9693 48.5074 45.1418C47.7834 45.4867 47.0279 45.8787 46.5873 46.5373C46.0364 47.3526 46.0836 48.4032 46.1308 49.391C46.3197 52.5897 46.7919 55.6629 45.8633 58.7832C46.9178 58.6264 47.9408 58.4226 48.9796 58.0619C49.8924 57.7327 50.9154 57.7013 51.9227 57.6229C52.143 56.5567 52.3476 55.4904 52.6782 54.4556Z" fill="#F39B4A"/>
<path d="M55.1021 54.3146C54.4726 54.6125 53.7801 54.832 53.0876 54.7536C52.8358 54.7222 52.7098 54.5498 52.6312 54.2832C52.4108 54.5654 52.1747 54.8477 51.9544 55.1299C51.734 55.7571 51.4665 56.3686 51.0888 56.9331C50.8842 57.231 50.6638 57.5132 50.4277 57.7798C51.7026 57.623 53.0404 57.6387 54.2522 57.1996C54.7716 57.0115 55.3697 56.7606 55.952 56.4627C55.6373 55.7571 55.3697 55.0358 55.1179 54.2989L55.1021 54.3146Z" fill="#5C564D"/>
<path d="M34.6096 46.726C33.9643 45.7382 32.7209 44.9071 31.6507 44.374C30.9897 44.0447 29.164 51.3986 29.2584 52.1198C29.8565 51.6808 30.4231 51.4613 31.1785 51.2261C32.2645 50.8968 33.382 50.5205 34.1689 49.7835C35.3021 48.7173 35.2234 47.6511 34.6253 46.726H34.6096Z" fill="#5C564D"/>
<path d="M50.4585 45.8632C50.1909 45.3144 49.9391 44.7813 49.7974 44.2168C48.8374 44.5618 47.9245 45.0165 47.0904 45.5809C46.8228 45.7534 46.571 45.9416 46.3821 46.1768C45.3434 47.4155 46.5867 49.4382 47.7514 50.2692C49.0892 51.2257 50.8519 51.5393 52.3786 52.1978C52.898 52.4173 51.8277 48.5287 51.7333 48.3092C51.3713 47.4939 50.8834 46.6785 50.4585 45.8632Z" fill="#5C564D"/>
<path d="M34.7826 53.3594C34.7826 54.3473 34.6567 55.3351 34.704 56.3229C34.7669 57.3892 35.0659 58.4711 35.9788 59.1139C36.4824 59.4746 37.1277 59.5843 37.7258 59.6157C38.2924 59.6471 38.8747 59.6 39.3941 59.3805C39.9135 59.161 40.3227 58.8317 40.6532 58.377C40.9365 57.985 41.1096 57.5303 41.2198 57.0599C41.5031 55.9153 41.4873 54.7079 41.4716 53.5476C41.4716 53.234 41.2041 52.9518 40.8735 52.9518C40.543 52.9518 40.2755 53.2027 40.2755 53.5476C40.2755 54.0494 40.2755 54.5511 40.2755 55.0372C40.2755 55.2881 40.2597 55.5233 40.2283 55.7741C40.2283 55.8839 40.2125 55.9937 40.1968 56.1191C40.1968 56.1661 40.1653 56.2759 40.1968 56.0877C40.1968 56.1191 40.1968 56.1505 40.1968 56.1818C40.1968 56.2445 40.181 56.3073 40.1653 56.3543C40.1338 56.5738 40.0709 56.7933 40.0079 56.9972C39.9764 57.0912 39.945 57.1853 39.9135 57.2794C39.8663 57.4205 39.9764 57.154 39.9135 57.2794C39.882 57.3421 39.8663 57.3892 39.8348 57.4519C39.7876 57.5303 39.7403 57.6244 39.6931 57.7028C39.6617 57.7341 39.6459 57.7655 39.6144 57.8125C39.5515 57.8909 39.7089 57.7028 39.6459 57.7812C39.6302 57.8125 39.5987 57.8282 39.583 57.8596C39.52 57.9223 39.4571 58.0007 39.3784 58.0634C39.3626 58.0634 39.3469 58.0948 39.3311 58.1104C39.2839 58.1575 39.4571 58.0164 39.3784 58.0791C39.3311 58.1104 39.2839 58.1418 39.221 58.1888C39.1423 58.2359 39.0321 58.2672 38.9534 58.3299C39.0321 58.2672 39.0793 58.2829 39.0164 58.2986C38.9849 58.2986 38.9692 58.3143 38.9377 58.3299C38.8747 58.3456 38.8118 58.377 38.7488 58.3927C38.6386 58.424 38.5285 58.4397 38.4183 58.4554C38.4183 58.4554 38.5757 58.4397 38.4813 58.4554C38.4498 58.4554 38.4183 58.4554 38.3868 58.4554C38.3081 58.4554 38.2294 58.4554 38.1665 58.4554C38.0406 58.4554 37.8989 58.4554 37.773 58.4554C37.6943 58.4554 37.6156 58.4554 37.5369 58.4397C37.4897 58.4397 37.4582 58.4397 37.411 58.4397C37.2694 58.424 37.5369 58.4554 37.411 58.4397C37.2851 58.424 37.1749 58.3927 37.049 58.3613C36.9861 58.3456 36.9231 58.3143 36.8759 58.2986C36.7657 58.2672 37.0018 58.3613 36.9074 58.2986C36.8759 58.2986 36.8602 58.2672 36.8287 58.2672C36.7343 58.2202 36.6556 58.1575 36.5611 58.1104C36.4667 58.0634 36.6713 58.2045 36.5926 58.1418C36.5769 58.1261 36.5454 58.1104 36.5296 58.0947C36.4824 58.0634 36.451 58.0163 36.4195 57.985C36.388 57.9536 36.3565 57.8909 36.3093 57.8596C36.4037 57.9223 36.388 57.9693 36.3565 57.9223C36.3565 57.9066 36.325 57.8752 36.3093 57.8596C36.2464 57.7655 36.1991 57.6714 36.1519 57.5773C36.1519 57.546 36.1362 57.5303 36.1204 57.4989C36.0732 57.4048 36.1677 57.64 36.1362 57.546C36.1362 57.4989 36.1047 57.4676 36.089 57.4205C36.0575 57.3108 36.026 57.201 35.9945 57.0912C35.9631 56.9815 35.9473 56.8874 35.9316 56.7776C35.9316 56.7463 35.9316 56.7149 35.9316 56.6836C35.9631 56.856 35.9316 56.7776 35.9316 56.7306C35.9316 56.6679 35.9316 56.6052 35.9158 56.5268C35.8214 55.4762 35.9788 54.4257 35.9788 53.3751C35.9788 53.0615 35.7112 52.7793 35.3807 52.7793C35.0502 52.7793 34.7984 53.0302 34.7826 53.3751V53.3594Z" fill="#231F20"/>
<path d="M50.1283 43.1671C48.0508 39.8901 44.3207 37.789 40.4175 37.8674C37.0337 37.9301 33.6027 39.5608 31.6353 42.3518C30.3133 44.249 29.4634 46.5383 28.9912 48.7805C28.5191 51.0227 28.3302 53.5158 29.1643 55.6953C29.5893 56.7929 30.2661 57.765 31.2576 58.4236C32.3908 59.1762 33.7915 59.3957 35.1451 59.3487C35.9005 59.3173 35.9005 58.1413 35.1451 58.1727C33.162 58.2668 31.3678 57.5925 30.4707 55.758C29.5735 53.9235 29.668 51.7597 29.9828 49.8624C30.329 47.7456 31.0215 45.6602 32.1075 43.81C33.524 41.3796 35.9635 39.7803 38.7335 39.2472C42.7469 38.4632 46.9334 40.3604 49.1053 43.7943C49.5145 44.4372 50.5375 43.8414 50.1283 43.1985V43.1671Z" fill="#231F20"/>
<path d="M45.7842 53.3596C45.7842 54.3004 45.9101 55.2255 45.8629 56.1663C45.8629 56.2761 45.8629 56.3858 45.8471 56.5113C45.8471 56.574 45.8471 56.621 45.8314 56.6837C45.8314 56.7151 45.8314 56.7308 45.8314 56.7621C45.8314 56.7151 45.8471 56.5583 45.8314 56.7621C45.7999 56.9816 45.7527 57.2012 45.674 57.405C45.674 57.452 45.6425 57.4834 45.6268 57.5304C45.5953 57.6402 45.6897 57.3893 45.6425 57.4834C45.6425 57.5148 45.6268 57.5304 45.611 57.5618C45.5638 57.6559 45.5166 57.75 45.4537 57.844C45.4537 57.8597 45.4222 57.8754 45.4222 57.8911C45.3907 57.9538 45.3592 57.9224 45.4537 57.844C45.4222 57.8754 45.3907 57.9224 45.3435 57.9695C45.312 58.0008 45.2805 58.0322 45.2491 58.0636C45.2333 58.0792 45.2018 58.0949 45.1861 58.1106C45.0759 58.2047 45.2805 58.0479 45.1861 58.1106C45.0917 58.1733 45.013 58.2204 44.9185 58.2674C44.8713 58.2987 44.7139 58.3301 44.9028 58.2674C44.8399 58.2831 44.7612 58.3144 44.6982 58.3458C44.5723 58.3771 44.4621 58.4085 44.3362 58.4242C44.289 58.4242 44.2733 58.4555 44.3834 58.4242C44.352 58.4242 44.289 58.4242 44.2575 58.4242C44.1631 58.4242 44.0844 58.4399 43.99 58.4399C43.8641 58.4399 43.7224 58.4399 43.5965 58.4399C43.5335 58.4399 43.4548 58.4399 43.3919 58.4399C43.3289 58.4399 43.1243 58.3928 43.3132 58.4399C43.203 58.4085 43.0929 58.4085 42.9827 58.3771C42.9197 58.3771 42.8725 58.3458 42.8096 58.3301C42.7781 58.3301 42.7623 58.3144 42.7309 58.2988C42.6679 58.2674 42.6679 58.236 42.7623 58.3144C42.6994 58.2517 42.5735 58.2203 42.4948 58.1733C42.4476 58.1419 42.4003 58.1106 42.3689 58.0792C42.2744 58.0165 42.3531 58.0792 42.3689 58.0792C42.4633 58.142 42.3689 58.0792 42.3531 58.0636C42.2744 58.0008 42.2115 57.9381 42.1485 57.8597C42.1013 57.8127 42.0226 57.6716 42.1328 57.844C42.1013 57.797 42.0698 57.7656 42.0384 57.7186C41.9911 57.6402 41.9439 57.5618 41.8967 57.4677C41.8652 57.4207 41.8495 57.3736 41.8338 57.3266C41.8338 57.3109 41.8338 57.2952 41.818 57.2796C41.7708 57.1855 41.881 57.4364 41.818 57.2796C41.7393 57.0757 41.6764 56.8719 41.6292 56.668C41.5977 56.5426 41.5819 56.4172 41.5505 56.2917C41.5505 56.229 41.5347 56.1663 41.519 56.1193C41.5032 56.0095 41.5347 56.2761 41.519 56.1506C41.519 56.1193 41.519 56.0722 41.519 56.0409C41.4875 55.7743 41.4718 55.5077 41.456 55.2412C41.4245 54.6767 41.4403 54.1122 41.4403 53.5478C41.4403 53.2342 41.1727 52.9519 40.8422 52.9519C40.5117 52.9519 40.2599 53.2028 40.2441 53.5478C40.2441 54.614 40.2441 55.6959 40.433 56.7464C40.6219 57.7029 41.0626 58.6594 41.9282 59.1768C42.4161 59.4747 42.9984 59.5845 43.5493 59.6159C44.1946 59.6315 44.8713 59.5531 45.4537 59.2709C46.4924 58.7848 46.8859 57.6872 46.9961 56.6367C47.1062 55.5861 46.9488 54.4415 46.9488 53.3283C46.9488 53.0147 46.6813 52.7324 46.3508 52.7324C46.0203 52.7324 45.7527 52.9833 45.7527 53.3283L45.7842 53.3596Z" fill="#231F20"/>
<path d="M49.0899 43.6699C49.3103 43.7953 49.4362 44.1402 49.5464 44.3598C49.688 44.6734 49.7824 44.987 49.9083 45.3005C50.113 45.8023 50.3333 46.3041 50.5222 46.8215C50.9471 47.9661 51.3091 49.1264 51.5609 50.3181C51.9701 52.2624 52.2219 54.7398 50.9943 56.3234C50.2231 57.3113 48.9798 57.719 47.7521 57.813C46.9967 57.8757 46.9967 59.0517 47.7521 58.989C49.1214 58.8793 50.4749 58.4873 51.498 57.5151C52.3479 56.6998 52.8043 55.5865 52.9774 54.4419C53.3551 51.8704 52.6469 49.1735 51.7655 46.7745C51.5294 46.1473 51.2461 45.4887 51.0101 44.8772C50.6953 44.1089 50.4592 43.1054 49.688 42.6507C49.027 42.2587 48.4446 43.2779 49.0899 43.6699Z" fill="#231F20"/>
<path d="M52.5836 55.586C53.7955 55.6644 54.9602 55.194 55.9989 54.6138C56.4868 54.3473 56.959 54.0337 57.4154 53.7044C57.6515 53.5319 57.8718 53.3594 58.1079 53.1713C58.1551 53.1242 58.2181 53.0772 58.2653 53.0458C58.1866 53.0929 58.3597 52.9831 58.3597 52.9988C58.344 53.0615 58.1237 52.9831 58.1394 52.9988C58.0292 52.8734 58.0135 52.8577 58.0607 52.9518C58.045 52.889 58.045 52.9047 58.0607 52.9518C58.0607 52.9988 58.0764 53.0301 58.0922 53.0772C58.0764 52.9831 58.0922 53.1869 58.0922 53.1869C58.0922 53.2497 58.0922 53.3124 58.0922 53.3908C58.0922 53.3908 58.0764 53.5946 58.0922 53.5005C58.0607 53.7671 57.9663 53.9866 57.8718 54.1748C57.6358 54.6138 57.2895 54.9744 56.8646 55.288C56.5341 55.5546 56.0304 55.8525 55.6055 56.072C55.1176 56.3386 54.6769 56.5111 54.1732 56.6835C53.0086 57.0755 51.8911 57.2323 50.6635 57.201C50.3487 57.201 50.0654 57.4832 50.0654 57.7968C50.0654 58.1261 50.333 58.377 50.6635 58.3926C53.0715 58.471 55.574 57.7341 57.4941 56.2759C58.4857 55.5232 59.3985 54.41 59.2726 53.0929C59.2411 52.7479 59.1624 52.3873 58.9106 52.1364C58.5958 51.8228 58.1551 51.8071 57.7774 51.9953C57.4941 52.1364 57.258 52.3873 57.0062 52.5754C56.8016 52.7322 56.5498 52.9204 56.3137 53.0772C55.7471 53.4535 55.1333 53.8141 54.5195 54.0807C53.9057 54.3473 53.2447 54.5041 52.5679 54.457C52.2531 54.4413 51.9698 54.7393 51.9698 55.0528C51.9698 55.3821 52.2374 55.6173 52.5679 55.6487L52.5836 55.586Z" fill="#231F20"/>
<path d="M18.8395 34.3542C18.7136 34.8873 18.6349 35.4047 18.6192 35.9065C18.4775 39.0581 20.9013 46.3649 25.1822 45.675C25.7173 45.5966 26.0636 45.0949 26.3469 44.6401C27.8106 42.3195 29.3058 39.9362 29.9038 37.2706C30.4704 34.7619 30.2029 32.159 29.8566 29.6189C29.5104 27.0788 29.6363 22.8766 27.4486 21.042C27.0394 20.6971 26.4571 20.6501 25.9534 20.7912C23.1362 21.5752 22.664 25.5422 21.5466 27.7373C20.6022 29.6032 19.3431 32.0963 18.8395 34.3699V34.3542Z" fill="#984E25"/>
<path d="M51.3871 25.8241C50.8048 31.0768 50.254 36.5804 52.2843 41.4568C52.9453 43.0248 54.1099 44.6712 55.8097 44.8123C57.0531 44.9221 58.2492 44.1381 58.9732 43.1189C61.3183 39.8261 61.9793 34.495 61.0192 30.6691C60.673 29.2893 60.0277 28.0036 59.3982 26.7178C58.7529 25.4164 58.1076 24.115 57.4623 22.8292C56.7068 21.3083 55.3533 18.7995 53.4017 20.0853C51.7019 21.1985 51.576 24.0366 51.3714 25.8398L51.3871 25.8241Z" fill="#984E25"/>
<path d="M26.3465 24.8517C26.5196 26.7332 26.9603 28.6305 27.039 30.3082C27.1807 33.648 25.7642 38.0227 28.487 40.7667C29.935 42.2092 32.5633 42.6796 34.4677 43.2284C38.8273 44.4828 43.5647 44.4357 47.9086 43.0559C50.1592 42.3503 52.4413 41.143 53.4171 39.0105C54.3772 36.8937 54.0624 34.0557 54.0624 31.7821C54.0624 29.5086 54.4402 27.4231 54.4559 25.2123C54.4874 21.7314 53.0552 19.0188 50.2537 16.9647C45.5478 13.5308 39.6458 13.1545 34.2316 14.942C31.4931 15.8515 28.4555 17.2783 27.0233 19.9282C26.2206 21.4021 26.1734 23.1112 26.3308 24.8673L26.3465 24.8517Z" fill="white"/>
<path d="M54.4559 25.2123C54.4874 21.7314 53.0552 19.0188 50.2537 16.9647C45.5478 13.5308 39.6458 13.1545 34.2316 14.942C31.4931 15.8515 28.4555 17.2783 27.0233 19.9282C26.2206 21.4021 26.1734 23.1112 26.3308 24.8673C26.5039 26.7489 26.9446 28.6462 27.0233 30.3239C27.1492 33.3188 26.0317 37.176 27.7945 39.9043C27.7473 39.5436 27.7315 39.183 27.7315 38.8537C27.7945 36.392 29.2897 34.6045 31.556 33.7264C33.4447 33.0052 36.136 32.8013 37.1748 30.7629C37.6627 29.8222 37.7414 28.7246 37.8201 27.6583C37.8988 26.498 37.9932 25.3534 38.0719 24.1931C38.1348 23.3464 38.2293 22.4213 38.8273 21.8255C39.3939 21.261 40.3383 21.1512 41.015 21.5589C42.5889 22.5154 42.2741 26.9214 42.5417 28.5521C42.9351 30.8884 43.9109 32.5661 46.2875 33.2717C48.6483 33.9616 51.0878 34.04 52.7089 36.1411C53.2125 36.7997 53.5273 37.5209 53.7004 38.2736C54.3143 36.2666 54.0624 33.8048 54.0782 31.7821C54.0782 29.5713 54.4559 27.4231 54.4716 25.2123H54.4559Z" fill="#F39B4A"/>
<path d="M32.0287 32.5674C32.8806 32.5674 33.5711 31.8794 33.5711 31.0308C33.5711 30.1821 32.8806 29.4941 32.0287 29.4941C31.1769 29.4941 30.4863 30.1821 30.4863 31.0308C30.4863 31.8794 31.1769 32.5674 32.0287 32.5674Z" fill="#231F20"/>
<path d="M48.0346 32.5674C48.8864 32.5674 49.577 31.8794 49.577 31.0308C49.577 30.1821 48.8864 29.4941 48.0346 29.4941C47.1827 29.4941 46.4922 30.1821 46.4922 31.0308C46.4922 31.8794 47.1827 32.5674 48.0346 32.5674Z" fill="#231F20"/>
<path d="M40.0401 34.8097C41.6829 34.8097 43.0147 33.9883 43.0147 32.9752C43.0147 31.962 41.6829 31.1406 40.0401 31.1406C38.3972 31.1406 37.0654 31.962 37.0654 32.9752C37.0654 33.9883 38.3972 34.8097 40.0401 34.8097Z" fill="#231F20"/>
<path d="M28.7232 18.4709C33.681 14.4098 40.6217 13.4063 46.5552 15.8367C48.2393 16.5266 49.7974 17.4831 51.1824 18.6434C51.7648 19.1294 52.5989 18.2984 52.0166 17.8123C46.7441 13.3593 39.2839 12.0735 32.8468 14.6921C31.0368 15.429 29.3843 16.4168 27.8734 17.6399C27.291 18.1259 28.1252 18.9413 28.7075 18.4709H28.7232Z" fill="#231F20"/>
<path d="M25.9212 21.8421C25.4648 23.7864 25.7481 25.7307 26.0472 27.6907C26.1888 28.6158 26.3147 29.5409 26.3305 30.4817C26.3462 31.4225 26.2518 32.3005 26.1731 33.21C26.0157 34.9347 25.8583 36.7379 26.3777 38.4C26.8656 39.9523 27.9201 41.1753 29.2893 42.0377C30.8003 42.9785 32.563 43.4802 34.2628 43.9193C35.0025 44.1074 35.3173 42.9785 34.5775 42.7903C31.902 42.0847 28.5496 41.1596 27.5581 38.2432C27.0387 36.7066 27.1803 35.0445 27.322 33.4608C27.4794 31.7361 27.5581 30.0583 27.322 28.3335C27.0387 26.2795 26.5665 24.2098 27.0544 22.1557C27.2276 21.4187 26.0944 21.1052 25.9212 21.8421Z" fill="#231F20"/>
<path d="M52.394 19.8345C53.3383 21.575 53.5901 23.5036 53.4957 25.4636C53.417 27.0629 53.1022 28.6466 53.055 30.2302C52.9606 33.7268 54.5187 38.1015 51.2293 40.6416C49.7184 41.8019 47.7825 42.3194 45.9726 42.7898C45.2329 42.9779 45.5476 44.1226 46.2874 43.9187C48.0344 43.464 49.8443 42.9466 51.3867 41.9587C52.9291 40.9709 54.0938 39.3716 54.4086 37.4743C54.7548 35.4203 54.3456 33.3505 54.2512 31.2808C54.1725 29.4933 54.5187 27.7528 54.6446 25.9653C54.802 23.6291 54.5502 21.2928 53.417 19.223C53.055 18.5645 52.032 19.1446 52.394 19.8189V19.8345Z" fill="#231F20"/>
<path d="M25.3078 20.3995C23.1673 21.309 22.2545 23.6766 21.4203 25.6523C20.8695 26.9537 20.3344 28.2551 19.815 29.5565C19.2956 30.858 18.7605 32.1594 18.367 33.5078C17.6273 36.095 17.9421 38.6351 19.0123 41.0812C19.8622 43.0255 21.2 45.597 23.4979 46.083C24.5523 46.3026 25.7642 46.1144 26.5512 45.3147C26.9604 44.8914 27.1807 44.3583 27.3538 43.8095C27.5112 43.3391 27.6057 42.7119 28.0306 42.3983C28.6444 41.9593 28.0463 40.9401 27.4325 41.3791C26.6456 41.9436 26.441 42.806 26.142 43.6684C25.8429 44.5307 25.1976 44.9855 24.2848 44.9855C22.1915 44.9698 20.9954 42.5551 20.2399 40.9558C19.1854 38.7292 18.8077 36.3773 19.453 33.9782C20.0983 31.5792 21.137 29.3057 22.0971 27.0478C22.9313 25.0564 23.7339 22.3125 25.9216 21.3874C26.2207 21.2619 26.2836 20.8386 26.1262 20.5877C25.9531 20.2898 25.6068 20.2584 25.3235 20.3839L25.3078 20.3995Z" fill="#231F20"/>
<path d="M54.3146 20.7125C55.4793 20.3832 56.1718 22.2491 56.5653 23.0018C57.2105 24.2248 57.8244 25.4478 58.4067 26.7022C58.989 27.9566 59.5399 29.211 60.0593 30.481C60.5786 31.7511 61.1452 33.0525 60.9249 34.3853C60.8777 34.6989 61.0036 35.0125 61.3341 35.1066C61.6174 35.185 62.0109 35.0125 62.0581 34.6989C62.2469 33.4759 61.9951 32.3156 61.5859 31.1709C61.1767 30.0263 60.6573 28.8817 60.1694 27.7528C59.1936 25.5419 58.1549 23.3154 56.943 21.2143C56.3449 20.1794 55.3062 19.2229 54.0156 19.5993C53.2916 19.8031 53.5906 20.9477 54.3304 20.7282L54.3146 20.7125Z" fill="#231F20"/>
<path d="M60.4209 36.9886C60.2163 38.7134 59.6025 40.4538 58.7054 41.9748C58.2804 42.7117 57.8397 43.433 57.163 43.9347C57.2102 43.8877 57.1315 43.9504 57.1315 43.9504C57.0843 43.9818 57.0213 44.0288 56.9741 44.0602C56.8954 44.1072 56.8325 44.1386 56.7538 44.1856C56.8325 44.1542 56.7066 44.2013 56.6908 44.2013C56.6436 44.217 56.5964 44.2326 56.5334 44.2483C56.4862 44.2483 56.4547 44.264 56.4075 44.2797C56.2501 44.311 56.4705 44.2797 56.2973 44.2797C55.9196 44.2797 55.5891 44.1856 55.2428 43.9818C54.3772 43.48 53.7949 42.5392 53.0552 41.8493C52.8191 41.6298 52.4571 41.6141 52.221 41.8493C52.0007 42.0688 51.9849 42.4608 52.221 42.6803C52.9922 43.4016 53.5903 44.2954 54.4717 44.8755C55.353 45.4557 56.4233 45.6281 57.3991 45.1421C58.2804 44.703 58.8942 43.8406 59.4136 43.0253C59.9645 42.1786 60.4209 41.2692 60.7671 40.3127C61.1764 39.2308 61.4439 38.1018 61.5856 36.9415C61.617 36.6279 61.2865 36.3457 60.9875 36.3457C60.6412 36.3457 60.4366 36.6123 60.3894 36.9415L60.4209 36.9886Z" fill="#231F20"/>
<path d="M25.2287 19.0986L26.3304 19.7729C26.3304 19.7729 26.472 19.8356 26.5507 19.8356C26.6294 19.8513 26.7081 19.8356 26.7868 19.8356C26.8655 19.8199 26.9285 19.7886 26.9914 19.7258C27.0544 19.6788 27.1016 19.6318 27.1488 19.5534L27.2117 19.4122C27.2432 19.3025 27.2432 19.2084 27.2117 19.0986L27.1488 18.9575C27.1016 18.8634 27.0229 18.8007 26.9442 18.7537L25.8425 18.0795C25.8425 18.0795 25.7008 18.0167 25.6221 18.0167C25.5434 18.0011 25.4647 18.0167 25.3861 18.0167C25.3074 18.0324 25.2444 18.0638 25.1815 18.1265C25.1185 18.1735 25.0713 18.2206 25.0241 18.299L24.9611 18.4401C24.9296 18.5498 24.9296 18.6439 24.9611 18.7537L25.0241 18.8948C25.0713 18.9889 25.15 19.0516 25.2287 19.0986Z" fill="#231F20"/>
</svg>
