<svg width="80" height="76" viewBox="0 0 80 76" fill="none" xmlns="http://www.w3.org/2000/svg">
<path d="M51.7538 49.9375C51.3761 48.7458 50.8882 47.5855 50.4475 46.5663C50.2114 46.0332 49.8966 44.9513 49.4087 44.6064C47.709 42.0349 44.8288 40.2474 41.7597 39.9024C38.5805 39.5418 35.2754 40.6864 33.009 42.9286C29.0586 46.8486 25.9738 60.5841 35.1022 60.1294L35.7475 59.4395C36.0465 59.9255 36.5187 60.2705 37.2899 60.3803C40.0284 60.7566 40.6737 59.0632 40.8311 57.0248C40.9885 59.0475 41.6338 60.7409 44.3723 60.3803C45.9462 60.1607 47.4414 59.9726 48.9366 59.4551C50.5734 58.875 52.5093 59.2043 54.1933 58.6084C55.3108 58.2164 56.7272 57.5265 57.6244 56.7582C58.2067 56.2565 59.2297 54.7826 58.2224 54.2965C57.4355 53.9045 55.9403 55.2686 55.3265 55.5979C54.634 55.9742 53.8471 56.2408 53.0601 56.1624C52.1945 56.0683 52.6037 54.0613 52.5407 53.4655C52.4463 52.2738 52.1473 51.0978 51.7695 49.9532L51.7538 49.9375Z" fill="white"/>
<path d="M34.8819 56.4758C34.9606 54.2963 35.4485 51.7405 34.8819 49.5923C34.7088 48.9338 31.1833 45.5469 31.262 45.3901C28.3976 50.784 27.3903 60.5055 35.0708 60.1135L35.2282 59.9567C34.8505 58.8748 34.819 57.5733 34.8505 56.4758H34.8819Z" fill="#F39B4A"/>
<path d="M52.6352 55.833C52.3204 55.2372 52.5565 53.9201 52.525 53.434C52.4306 52.2423 52.1315 51.0664 51.7538 49.9217C51.439 48.9496 50.9197 46.2056 49.5347 46.1899C49.1569 46.1899 48.7949 46.3467 48.4644 46.5192C47.7404 46.8642 46.985 47.2562 46.5443 47.9147C45.9934 48.7301 46.0407 49.7806 46.0879 50.7684C46.2767 53.9671 46.7489 57.0404 45.8203 60.1606C46.8748 60.0038 47.8978 59.8 48.9366 59.4394C49.8494 59.1101 50.8725 59.0787 51.8797 59.0003C52.1001 57.9341 52.3047 56.8679 52.6352 55.833Z" fill="#F39B4A"/>
<path d="M55.0592 55.692C54.4296 55.9899 53.7371 56.2094 53.0446 56.131C52.7928 56.0997 52.6669 55.9272 52.5882 55.6606C52.3678 55.9429 52.1318 56.2251 51.9114 56.5074C51.6911 57.1345 51.4235 57.7461 51.0458 58.3105C50.8412 58.6085 50.6208 58.8907 50.3848 59.1572C51.6596 59.0004 52.9974 59.0161 54.2093 58.5771C54.7287 58.3889 55.3267 58.1381 55.9091 57.8401C55.5943 57.1345 55.3267 56.4133 55.0749 55.6763L55.0592 55.692Z" fill="#5C564D"/>
<path d="M34.5671 48.1029C33.9218 47.1151 32.6785 46.2841 31.6082 45.751C30.9472 45.4217 29.1215 52.7755 29.2159 53.4968C29.814 53.0578 30.3806 52.8382 31.1361 52.603C32.222 52.2738 33.3395 51.8974 34.1264 51.1605C35.2596 50.0943 35.1809 49.028 34.5828 48.1029H34.5671Z" fill="#5C564D"/>
<path d="M50.416 47.2406C50.1484 46.6918 49.8966 46.1587 49.755 45.5942C48.7949 45.9392 47.8821 46.3939 47.0479 46.9584C46.7803 47.1309 46.5285 47.319 46.3397 47.5542C45.3009 48.7929 46.5443 50.8156 47.7089 51.6466C49.0467 52.6031 50.8095 52.9167 52.3361 53.5753C52.8555 53.7948 51.7853 49.9062 51.6908 49.6867C51.3288 48.8713 50.8409 48.056 50.416 47.2406Z" fill="#5C564D"/>
<path d="M34.7404 54.7354C34.7404 55.7233 34.6145 56.7111 34.6617 57.6989C34.7247 58.7651 35.0237 59.847 35.9366 60.4899C36.4402 60.8505 37.0855 60.9603 37.6836 60.9917C38.2501 61.023 38.8325 60.976 39.3519 60.7565C39.8712 60.537 40.2804 60.2077 40.611 59.753C40.8943 59.361 41.0674 58.9063 41.1776 58.4359C41.4609 57.2912 41.4451 56.0839 41.4294 54.9236C41.4294 54.61 41.1618 54.3278 40.8313 54.3278C40.5008 54.3278 40.2332 54.5786 40.2332 54.9236C40.2332 55.4253 40.2332 55.9271 40.2332 56.4132C40.2332 56.664 40.2175 56.8992 40.186 57.1501C40.186 57.2599 40.1703 57.3696 40.1545 57.4951C40.1545 57.5421 40.1231 57.6519 40.1545 57.4637C40.1545 57.4951 40.1545 57.5264 40.1545 57.5578C40.1545 57.6205 40.1388 57.6832 40.1231 57.7303C40.0916 57.9498 40.0286 58.1693 39.9657 58.3731C39.9342 58.4672 39.9027 58.5613 39.8712 58.6554C39.9342 58.5299 39.824 58.7965 39.8712 58.6554C39.8398 58.7181 39.824 58.7651 39.7925 58.8279C39.7453 58.9063 39.6981 59.0003 39.6509 59.0787C39.6194 59.1101 39.6037 59.1414 39.5722 59.1885C39.5092 59.2669 39.6666 59.0787 39.6037 59.1571C39.5879 59.1885 39.5565 59.2042 39.5407 59.2355C39.4778 59.2983 39.4148 59.3766 39.3361 59.4394C39.3204 59.4394 39.3046 59.4707 39.2889 59.4864C39.2417 59.5334 39.4148 59.3923 39.3361 59.455C39.2889 59.4864 39.2417 59.5178 39.1787 59.5648C39.1 59.6118 38.9899 59.6432 38.9112 59.7059C38.9899 59.6432 39.0371 59.6589 38.9741 59.6746C38.9427 59.6746 38.9269 59.6902 38.8954 59.7059C38.8325 59.7216 38.7695 59.753 38.7066 59.7686C38.5964 59.8 38.4862 59.8157 38.3761 59.8314C38.3761 59.8314 38.5334 59.8157 38.439 59.8314C38.4075 59.8314 38.3761 59.8314 38.3446 59.8314C38.2659 59.8314 38.1872 59.8314 38.1242 59.8314C37.9983 59.8314 37.8567 59.8314 37.7308 59.8314C37.6521 59.8314 37.5734 59.8314 37.4947 59.8157C37.4475 59.8157 37.416 59.8157 37.3688 59.8157C37.4947 59.8314 37.2271 59.8 37.3688 59.8157C37.2429 59.8 37.1327 59.7686 37.0068 59.7373C36.9438 59.7216 36.8809 59.6902 36.8337 59.6746C36.7235 59.6432 36.9596 59.7373 36.8651 59.6746C36.8337 59.6746 36.8179 59.6432 36.7864 59.6432C36.692 59.5962 36.6133 59.5334 36.5189 59.4864C36.4245 59.4394 36.6291 59.5805 36.5504 59.5178C36.5346 59.5021 36.5031 59.4864 36.4874 59.4707C36.4402 59.4394 36.4087 59.3923 36.3772 59.361C36.3458 59.3296 36.3143 59.2669 36.2671 59.2355C36.3615 59.2983 36.3458 59.3453 36.3143 59.2982C36.3143 59.2826 36.2828 59.2512 36.2671 59.2355C36.2041 59.1415 36.1569 59.0474 36.1097 58.9533C36.1097 58.9219 36.0939 58.9063 36.0782 58.8749C36.031 58.7808 36.1254 59.016 36.0939 58.9219C36.0939 58.8749 36.0625 58.8435 36.0467 58.7965C36.0153 58.6867 35.9838 58.577 35.9523 58.4672C35.9208 58.3575 35.9051 58.2634 35.8893 58.1536C35.8893 58.1223 35.8893 58.0909 35.8893 58.0595C35.9208 58.232 35.8893 58.1536 35.8893 58.1066C35.8893 58.0439 35.8893 57.9811 35.8736 57.9027C35.7792 56.8522 35.9366 55.8017 35.9366 54.7511C35.9366 54.4375 35.669 54.1553 35.3385 54.1553C35.008 54.1553 34.7562 54.4062 34.7404 54.7511V54.7354Z" fill="#231F20"/>
<path d="M50.0856 44.5436C48.0081 41.2665 44.278 39.1654 40.3748 39.2438C36.991 39.3065 33.5599 40.9372 31.5926 43.7282C30.2705 45.6255 29.4207 47.9148 28.9485 50.157C28.4763 52.3992 28.2875 54.8923 29.1216 57.0718C29.5466 58.1693 30.2233 59.1415 31.2149 59.8C32.3481 60.5527 33.7488 60.7722 35.1023 60.7251C35.8578 60.6938 35.8578 59.5178 35.1023 59.5492C33.1193 59.6432 31.325 58.969 30.4279 57.1345C29.5308 55.2999 29.6253 53.1361 29.94 51.2389C30.2863 49.1221 30.9788 47.0367 32.0648 45.1865C33.4812 42.7561 35.9207 41.1568 38.6908 40.6236C42.7041 39.8397 46.8906 41.7369 49.0626 45.1708C49.4718 45.8137 50.4948 45.2178 50.0856 44.575V44.5436Z" fill="#231F20"/>
<path d="M45.7417 54.7356C45.7417 55.6764 45.8676 56.6015 45.8204 57.5423C45.8204 57.652 45.8204 57.7618 45.8046 57.8872C45.8046 57.9499 45.8047 57.997 45.7889 58.0597C45.7889 58.0911 45.7889 58.1067 45.7889 58.1381C45.8047 57.9343 45.7889 58.0911 45.7889 58.1381C45.7574 58.3576 45.7102 58.5771 45.6315 58.781C45.6315 58.828 45.6 58.8594 45.5843 58.9064C45.5528 59.0162 45.6473 58.7653 45.6 58.8594C45.6 58.8907 45.5843 58.9064 45.5686 58.9378C45.5214 59.0319 45.4741 59.1259 45.4112 59.22C45.4112 59.2357 45.3797 59.2514 45.3797 59.267C45.3482 59.3298 45.3167 59.2984 45.4112 59.22C45.3797 59.2514 45.3482 59.2984 45.301 59.3455C45.2695 59.3768 45.2381 59.4082 45.2066 59.4395C45.1908 59.4552 45.1594 59.4709 45.1436 59.4866C45.2381 59.4239 45.0335 59.5806 45.1436 59.4866C45.0492 59.5493 44.9705 59.5963 44.8761 59.6434C44.8289 59.6747 44.6715 59.7061 44.8603 59.6434C44.7974 59.659 44.7187 59.6904 44.6557 59.7218C44.5298 59.7531 44.4196 59.7845 44.2937 59.8002C44.2465 59.8002 44.2308 59.8315 44.3409 59.8002C44.3095 59.8002 44.2465 59.8002 44.215 59.8002C44.1206 59.8002 44.0419 59.8158 43.9475 59.8158C43.8216 59.8158 43.6799 59.8158 43.554 59.8158C43.4911 59.8158 43.4124 59.8158 43.3494 59.8158C43.2865 59.8158 43.0819 59.7688 43.2707 59.8158C43.1605 59.7845 43.0504 59.7845 42.9402 59.7531C42.8772 59.7531 42.83 59.7218 42.7671 59.7061C42.7356 59.7061 42.7199 59.6904 42.6884 59.6747C42.6254 59.6434 42.6254 59.612 42.7199 59.6904C42.6569 59.6277 42.531 59.5963 42.4523 59.5493C42.4051 59.5179 42.3579 59.4866 42.3264 59.4552C42.3107 59.4552 42.232 59.3925 42.3264 59.4552C42.4208 59.5179 42.3264 59.4552 42.3107 59.4395C42.232 59.3768 42.169 59.3141 42.106 59.2357C42.0588 59.1887 41.9801 59.0475 42.0903 59.22C42.0588 59.173 42.0274 59.1416 41.9959 59.0946C41.9487 59.0162 41.9014 58.9378 41.8542 58.8437C41.8228 58.7967 41.807 58.7496 41.7913 58.7026C41.7913 58.6869 41.7913 58.6712 41.7755 58.6555C41.8385 58.8123 41.7283 58.5615 41.7755 58.6555C41.6968 58.4517 41.6339 58.2479 41.5867 58.044C41.5552 57.9186 41.5395 57.7932 41.508 57.6677C41.508 57.605 41.4922 57.5423 41.4765 57.4952C41.4608 57.3855 41.4922 57.652 41.4765 57.5266C41.4765 57.4952 41.4765 57.4482 41.4765 57.4168C41.445 57.1503 41.4293 56.8837 41.4135 56.6172C41.3821 56.0527 41.3978 55.4882 41.3978 54.9237C41.3978 54.6102 41.1302 54.3279 40.7997 54.3279C40.4692 54.3279 40.2174 54.5788 40.2017 54.9237C40.2017 55.99 40.2017 57.0719 40.3905 58.1224C40.5794 59.0789 41.0201 60.0354 41.8857 60.5528C42.3736 60.8507 42.9559 60.9605 43.5068 60.9918C44.1521 61.0075 44.8288 60.9291 45.4112 60.6469C46.4499 60.1608 46.8434 59.0632 46.9536 58.0127C47.0638 56.9621 46.9064 55.8175 46.9064 54.7042C46.9064 54.3906 46.6388 54.1084 46.3083 54.1084C45.9778 54.1084 45.7102 54.3593 45.7102 54.7042L45.7417 54.7356Z" fill="#231F20"/>
<path d="M49.047 45.0453C49.2673 45.1708 49.3932 45.5157 49.5034 45.7353C49.645 46.0488 49.7395 46.3624 49.8654 46.676C50.07 47.1778 50.2903 47.6795 50.4792 48.197C50.9041 49.3416 51.2661 50.5019 51.5179 51.6936C51.9272 53.6379 52.179 56.1153 50.9514 57.6989C50.1802 58.6868 48.9368 59.0944 47.7092 59.1885C46.9537 59.2512 46.9537 60.4272 47.7092 60.3645C49.0784 60.2547 50.432 59.8628 51.455 58.8906C52.3049 58.0753 52.7613 56.962 52.9344 55.8174C53.3122 53.2459 52.6039 50.549 51.7225 48.1499C51.4865 47.5227 51.2032 46.8642 50.9671 46.2527C50.6523 45.4844 50.4162 44.4809 49.645 44.0262C48.984 43.6342 48.4017 44.6533 49.047 45.0453Z" fill="#231F20"/>
<path d="M52.5409 56.9619C53.7528 57.0403 54.9175 56.5699 55.9562 55.9898C56.4441 55.7232 56.9163 55.4096 57.3727 55.0804C57.6088 54.9079 57.8291 54.7354 58.0652 54.5472C58.1124 54.5002 58.1754 54.4532 58.2226 54.4218C58.1439 54.4689 58.317 54.3591 58.317 54.3748C58.3013 54.4375 58.0809 54.3591 58.0967 54.3748C57.9865 54.2493 57.9708 54.2337 58.018 54.3277C58.0022 54.2807 58.0022 54.265 58.018 54.3277C58.018 54.3748 58.0337 54.4061 58.0495 54.4532C58.0337 54.3591 58.0495 54.5629 58.0495 54.5629C58.0495 54.6256 58.0495 54.6884 58.0495 54.7668C58.0495 54.7668 58.0337 54.9706 58.0495 54.8765C58.018 55.1431 57.9236 55.3626 57.8291 55.5508C57.593 55.9898 57.2468 56.3504 56.8218 56.664C56.4913 56.9306 55.9877 57.2285 55.5627 57.448C55.0748 57.7146 54.6342 57.887 54.1305 58.0595C52.9658 58.4515 51.8484 58.6083 50.6208 58.577C50.306 58.577 50.0227 58.8592 50.0227 59.1728C50.0227 59.5021 50.2903 59.7529 50.6208 59.7686C53.0288 59.847 55.5313 59.1101 57.4514 57.6518C58.4429 56.8992 59.3558 55.786 59.2299 54.4688C59.1984 54.1239 59.1197 53.7633 58.8679 53.5124C58.5531 53.1988 58.1124 53.1831 57.7347 53.3713C57.4514 53.5124 57.2153 53.7633 56.9635 53.9514C56.7589 54.1082 56.5071 54.2964 56.271 54.4532C55.7044 54.8295 55.0906 55.1901 54.4768 55.4567C53.863 55.7232 53.2019 55.88 52.5252 55.833C52.2104 55.8173 51.9271 56.1152 51.9271 56.4288C51.9271 56.7581 52.1947 56.9933 52.5252 57.0247L52.5409 56.9619Z" fill="#231F20"/>
<path d="M18.7965 35.7312C18.6706 36.2643 18.5919 36.7817 18.5762 37.2835C18.4345 40.4351 20.8583 47.7419 25.1392 47.052C25.6744 46.9736 26.0206 46.4718 26.3039 46.0171C27.7676 43.6965 29.2628 41.3132 29.8609 38.6476C30.4275 36.1388 30.1599 33.536 29.8137 30.9959C29.4674 28.4557 29.5933 24.2535 27.4056 22.419C26.9964 22.074 26.4141 22.027 25.9104 22.1681C23.0932 22.9521 22.621 26.9191 21.5036 29.1143C20.5593 30.9802 19.3002 33.4733 18.7965 35.7468V35.7312Z" fill="#984E25"/>
<path d="M51.3442 27.201C50.7618 32.4538 50.211 37.9574 52.2413 42.8338C52.9023 44.4018 54.067 46.0482 55.7668 46.1893C57.0101 46.299 58.2063 45.515 58.9302 44.4959C61.2753 41.2031 61.9363 35.872 60.9763 32.0461C60.63 30.6663 59.9847 29.3805 59.3552 28.0948C58.7099 26.7934 58.0646 25.4919 57.4193 24.2062C56.6639 22.6852 55.3103 20.1765 53.3587 21.4622C51.6589 22.5755 51.533 25.4135 51.3284 27.2167L51.3442 27.201Z" fill="#984E25"/>
<path d="M26.3038 26.2291C26.4769 28.1107 26.9176 30.0079 26.9963 31.6857C27.1379 35.0255 25.7215 39.4001 28.4443 42.1441C29.8922 43.5866 32.5206 44.057 34.425 44.6058C38.7846 45.8602 43.522 45.8132 47.8659 44.4334C50.1165 43.7278 52.3986 42.5204 53.3744 40.388C54.3345 38.2712 54.0197 35.4331 54.0197 33.1596C54.0197 30.886 54.3974 28.8006 54.4132 26.5897C54.4446 23.1088 53.0124 20.3962 50.2109 18.3422C45.5051 14.9083 39.603 14.532 34.1889 16.3195C31.4504 17.2289 28.4128 18.6558 26.9806 21.3056C26.1779 22.7795 26.1307 24.4886 26.2881 26.2448L26.3038 26.2291Z" fill="white"/>
<path d="M54.4132 26.5897C54.4447 23.1088 53.0124 20.3962 50.2109 18.3422C45.5051 14.9083 39.603 14.532 34.1889 16.3195C31.4504 17.2289 28.4128 18.6558 26.9806 21.3056C26.1779 22.7795 26.1307 24.4886 26.2881 26.2448C26.4612 28.1264 26.9019 30.0236 26.9806 31.7014C27.1065 34.6962 25.989 38.5534 27.7518 41.2817C27.7045 40.9211 27.6888 40.5604 27.6888 40.2312C27.7518 37.7694 29.2469 35.9819 31.5133 35.1039C33.402 34.3826 36.0933 34.1788 37.132 32.1404C37.6199 31.1996 37.6986 30.102 37.7773 29.0358C37.856 27.8755 37.9505 26.7309 38.0292 25.5705C38.0921 24.7238 38.1865 23.7987 38.7846 23.2029C39.3512 22.6384 40.2955 22.5287 40.9723 22.9363C42.5462 23.8928 42.2314 28.2988 42.499 29.9295C42.8924 32.2658 43.8682 33.9436 46.2448 34.6492C48.6056 35.3391 51.0451 35.4175 52.6662 37.5186C53.1698 38.1771 53.4846 38.8984 53.6577 39.651C54.2715 37.644 54.0197 35.1823 54.0354 33.1596C54.0354 30.9487 54.4132 28.8006 54.4289 26.5897H54.4132Z" fill="#F39B4A"/>
<path d="M31.9855 33.9434C32.8374 33.9434 33.5279 33.2554 33.5279 32.4067C33.5279 31.5581 32.8374 30.8701 31.9855 30.8701C31.1337 30.8701 30.4431 31.5581 30.4431 32.4067C30.4431 33.2554 31.1337 33.9434 31.9855 33.9434Z" fill="#231F20"/>
<path d="M47.9919 33.9434C48.8437 33.9434 49.5343 33.2554 49.5343 32.4067C49.5343 31.5581 48.8437 30.8701 47.9919 30.8701C47.14 30.8701 46.4495 31.5581 46.4495 32.4067C46.4495 33.2554 47.14 33.9434 47.9919 33.9434Z" fill="#231F20"/>
<path d="M39.9966 36.1857C41.6394 36.1857 42.9712 35.3643 42.9712 34.3511C42.9712 33.338 41.6394 32.5166 39.9966 32.5166C38.3538 32.5166 37.022 33.338 37.022 34.3511C37.022 35.3643 38.3538 36.1857 39.9966 36.1857Z" fill="#231F20"/>
<path d="M28.6803 19.8474C33.638 15.7863 40.5788 14.7828 46.5123 17.2131C48.1963 17.9031 49.7545 18.8595 51.1395 20.0198C51.7218 20.5059 52.5559 19.6749 51.9736 19.1888C46.7011 14.7357 39.241 13.45 32.8038 16.0685C30.9939 16.8055 29.3413 17.7933 27.8304 19.0163C27.2481 19.5024 28.0822 20.3177 28.6645 19.8474H28.6803Z" fill="#231F20"/>
<path d="M25.879 23.2186C25.4226 25.1629 25.7059 27.1072 26.0049 29.0671C26.1466 29.9922 26.2725 30.9174 26.2882 31.8581C26.304 32.7989 26.2095 33.677 26.1308 34.5864C25.9734 36.3112 25.8161 38.1144 26.3354 39.7764C26.8233 41.3287 27.8778 42.5518 29.2471 43.4142C30.758 44.3549 32.5208 44.8567 34.2205 45.2957C34.9603 45.4839 35.275 44.3549 34.5353 44.1668C31.8597 43.4612 28.5074 42.5361 27.5158 39.6196C26.9965 38.083 27.1381 36.421 27.2798 34.8373C27.4371 33.1125 27.5158 31.4348 27.2798 29.71C26.9965 27.656 26.5243 25.5862 27.0122 23.5322C27.1853 22.7952 26.0521 22.4816 25.879 23.2186Z" fill="#231F20"/>
<path d="M52.3515 21.2115C53.2958 22.952 53.5477 24.8806 53.4532 26.8405C53.3745 28.4399 53.0598 30.0235 53.0125 31.6072C52.9181 35.1038 54.4762 39.4785 51.1868 42.0186C49.6759 43.1789 47.7401 43.6963 45.9301 44.1667C45.1904 44.3549 45.5052 45.4995 46.2449 45.2957C47.9919 44.841 49.8018 44.3235 51.3442 43.3357C52.8866 42.3479 54.0513 40.7485 54.3661 38.8513C54.7123 36.7972 54.3031 34.7275 54.2087 32.6577C54.13 30.8703 54.4762 29.1298 54.6022 27.3423C54.7595 25.006 54.5077 22.6697 53.3745 20.6C53.0125 19.9414 51.9895 20.5216 52.3515 21.1958V21.2115Z" fill="#231F20"/>
<path d="M25.2651 21.776C23.1246 22.6854 22.2118 25.0531 21.3776 27.0287C20.8268 28.3302 20.2916 29.6316 19.7723 30.933C19.2529 32.2344 18.7178 33.5359 18.3243 34.8843C17.5846 37.4715 17.8994 40.0116 18.9696 42.4577C19.8195 44.402 21.1573 46.9734 23.4551 47.4595C24.5096 47.679 25.7215 47.4909 26.5084 46.6912C26.9176 46.2678 27.138 45.7347 27.3111 45.1859C27.4685 44.7155 27.5629 44.0884 27.9879 43.7748C28.6017 43.3357 28.0036 42.3165 27.3898 42.7556C26.6029 43.32 26.3983 44.1824 26.0992 45.0448C25.8002 45.9072 25.1549 46.3619 24.2421 46.3619C22.1488 46.3462 20.9527 43.9316 20.1972 42.3322C19.1427 40.1057 18.765 37.7537 19.4103 35.3547C20.0556 32.9557 21.0943 30.6821 22.0544 28.4242C22.8885 26.4329 23.6912 23.6889 25.8789 22.7638C26.1779 22.6384 26.2409 22.215 26.0835 21.9642C25.9104 21.6662 25.5641 21.6349 25.2808 21.7603L25.2651 21.776Z" fill="#231F20"/>
<path d="M54.2717 22.0895C55.4363 21.7602 56.1288 23.6261 56.5223 24.3787C57.1676 25.6017 57.7814 26.8248 58.3637 28.0792C58.9461 29.3335 59.4969 30.5879 60.0163 31.858C60.5357 33.1281 61.1023 34.4295 60.8819 35.7623C60.8347 36.0759 60.9606 36.3894 61.2911 36.4835C61.5744 36.5619 61.9679 36.3894 62.0151 36.0759C62.204 34.8528 61.9522 33.6925 61.543 32.5479C61.1337 31.4033 60.6144 30.2586 60.1265 29.1297C59.1507 26.9189 58.1119 24.6923 56.9 22.5912C56.302 21.5564 55.2632 20.5999 53.9726 20.9762C53.2486 21.18 53.5477 22.3247 54.2874 22.1052L54.2717 22.0895Z" fill="#231F20"/>
<path d="M60.3782 38.365C60.1736 40.0898 59.5598 41.8303 58.6626 43.3512C58.2377 44.0882 57.797 44.8094 57.1203 45.3112C57.1675 45.2642 57.0888 45.3269 57.0888 45.3269C57.0416 45.3582 56.9786 45.4053 56.9314 45.4366C56.8527 45.4837 56.7897 45.515 56.711 45.5621C56.7897 45.5307 56.6638 45.5777 56.6481 45.5777C56.6009 45.5934 56.5537 45.6091 56.4907 45.6248C56.4435 45.6248 56.412 45.6405 56.3648 45.6561C56.2074 45.6875 56.4277 45.6561 56.2546 45.6561C55.8769 45.6561 55.5464 45.5621 55.2001 45.3582C54.3345 44.8565 53.7522 43.9157 53.0124 43.2258C52.7764 43.0063 52.4144 42.9906 52.1783 43.2258C51.9579 43.4453 51.9422 43.8373 52.1783 44.0568C52.9495 44.7781 53.5476 45.6718 54.4289 46.252C55.3103 46.8321 56.3805 47.0046 57.3563 46.5185C58.2377 46.0795 58.8515 45.2171 59.3709 44.4018C59.9217 43.5551 60.3782 42.6456 60.7244 41.6892C61.1336 40.6072 61.4012 39.4783 61.5428 38.318C61.5743 38.0044 61.2438 37.7222 60.9448 37.7222C60.5985 37.7222 60.3939 37.9887 60.3467 38.318L60.3782 38.365Z" fill="#231F20"/>
<path d="M25.1864 20.4746L26.2881 21.1488C26.2881 21.1488 26.4298 21.2116 26.5085 21.2116C26.5872 21.2272 26.6659 21.2116 26.7446 21.2116C26.8233 21.1959 26.8862 21.1645 26.9492 21.1018C27.0121 21.0548 27.0593 21.0077 27.1066 20.9293L27.1695 20.7882C27.201 20.6785 27.201 20.5844 27.1695 20.4746L27.1066 20.3335C27.0593 20.2394 26.9806 20.1767 26.902 20.1297L25.8002 19.4554C25.8002 19.4554 25.6586 19.3927 25.5799 19.3927C25.5012 19.377 25.4225 19.3927 25.3438 19.3927C25.2651 19.4084 25.2022 19.4398 25.1392 19.5025C25.0763 19.5495 25.029 19.5965 24.9818 19.6749L24.9189 19.8161C24.8874 19.9258 24.8874 20.0199 24.9189 20.1297L24.9818 20.2708C25.029 20.3649 25.1077 20.4276 25.1864 20.4746Z" fill="#231F20"/>
</svg>
