<svg width="80" height="76" viewBox="0 0 80 76" fill="none" xmlns="http://www.w3.org/2000/svg">
<path d="M51.6295 54.7103C51.299 53.6598 49.7723 50.6649 48.3873 51.1667C48.104 51.2764 47.8994 51.5273 47.7263 51.8566C47.0338 47.4192 45.4599 42.1038 42.1548 39.7204C35.0409 34.5774 31.4997 46.4627 30.3507 51.1353C29.1231 51.3392 27.8798 53.7852 27.5965 54.7103C27.0928 56.3567 27.502 58.3794 28.95 59.3202C29.3592 59.5867 29.8628 59.7592 30.3507 59.6965C30.7127 59.6494 31.0432 59.4613 31.3108 59.2104C31.9876 59.8533 32.9319 60.2766 34.2539 60.3237C36.2685 60.4021 38.3145 58.9282 40.2819 59.3986C40.9114 59.5554 41.4465 59.916 42.0131 60.1982C43.3982 60.8725 45.1294 60.9979 46.4829 60.2453C47.0968 59.9003 47.4902 59.477 47.7578 59.0066C48.0568 59.3672 48.4345 59.6338 48.8752 59.6965C49.3631 59.7592 49.8668 59.5867 50.276 59.3202C51.7082 58.3794 52.1331 56.3567 51.6295 54.7103Z" fill="#E5E2E0"/>
<path d="M31.7515 43.5931C30.9174 45.9922 30.2878 48.4382 29.8786 50.947C29.5324 53.0167 29.1232 55.2589 29.5638 57.3443C29.7527 58.2538 30.1776 59.1475 30.8702 59.7747C31.6728 60.496 32.6958 60.8096 33.7503 60.935C34.2382 60.982 34.7261 60.9977 35.214 60.9977C35.8279 60.9977 36.4731 61.0134 37.0555 60.8252C37.9998 60.5273 38.5821 59.7747 38.8654 58.8653C39.2432 57.6893 39.2117 56.3408 39.2274 55.1178C39.2432 53.6596 39.1645 52.1857 39.0071 50.7431C38.9756 50.4295 38.7553 50.163 38.409 50.1473C38.11 50.1473 37.7795 50.4139 37.8109 50.7431C38.0628 52.9853 38.1572 55.3216 37.9211 57.5639C37.8424 58.2381 37.685 59.1005 37.087 59.5081C36.6935 59.7747 36.2056 59.7747 35.7492 59.7904C35.2613 59.7904 34.7576 59.7904 34.2697 59.7904C33.4041 59.7433 32.4755 59.5865 31.783 59.0064C31.1377 58.4733 30.8229 57.6893 30.6655 56.9053C30.5082 56.1213 30.5239 55.2432 30.6026 54.4279C30.6813 53.3617 30.8387 52.3111 31.0118 51.2449C31.4367 48.7518 32.0663 46.2901 32.8847 43.8911C33.1365 43.1698 31.9876 42.8719 31.7515 43.5775V43.5931Z" fill="#231F20"/>
<path d="M44.9878 44.0166C45.7118 46.0706 46.3885 48.156 46.9551 50.2728C47.5217 52.3896 47.9624 54.4593 47.805 56.6074C47.7421 57.4541 47.6634 58.6145 46.9079 59.1632C46.2784 59.618 45.4285 59.6807 44.6888 59.7434C43.8703 59.8061 42.9103 59.9159 42.2492 59.32C41.6827 58.8183 41.478 58.05 41.3364 57.3287C41.1475 56.3095 41.1318 55.2433 41.0531 54.1927C40.9587 52.9697 40.88 51.7467 40.7855 50.508C40.7383 49.7554 39.5579 49.7554 39.6051 50.508C39.6996 51.731 39.7783 52.954 39.8727 54.1927C39.9514 55.259 39.9829 56.3409 40.156 57.4071C40.2976 58.2695 40.5652 59.1476 41.1161 59.8375C41.7613 60.6215 42.7057 60.9351 43.6972 60.9507C45.5701 60.9821 47.8995 60.6842 48.6077 58.6772C48.9854 57.5953 49.0326 56.3409 49.0012 55.1962C48.954 54.0046 48.7651 52.7972 48.5133 51.6369C47.9152 48.94 47.0338 46.3058 46.121 43.703C45.8692 42.9974 44.736 43.2953 44.9878 44.0166Z" fill="#231F20"/>
<path d="M29.0601 50.9312C27.9427 52.3424 26.8095 53.8006 26.5892 55.6508C26.3846 57.2972 27.14 58.8965 28.6037 59.6962C29.3907 60.1195 30.2563 60.2607 31.1377 60.1352C31.4524 60.0882 31.6256 59.6962 31.5469 59.4139C31.4524 59.069 31.1377 58.9592 30.8229 59.0063C30.9331 59.0063 30.7127 59.0063 30.697 59.0063C30.634 59.0063 30.5553 59.0063 30.4924 59.0063C30.4137 59.0063 30.335 59.0063 30.2563 59.0063C30.2248 59.0063 30.1933 59.0063 30.1776 59.0063C30.2878 59.0063 30.1146 59.0063 30.0989 59.0063C29.973 58.9749 29.8313 58.9435 29.7054 58.9122C29.6267 58.8965 29.5638 58.8651 29.4851 58.8338C29.3749 58.7867 29.4379 58.8181 29.4694 58.8338C29.4221 58.8181 29.3749 58.7868 29.3434 58.7711C29.2175 58.7084 29.0916 58.63 28.9657 58.5516C28.7926 58.4418 28.8083 58.4418 28.6667 58.332C28.5565 58.238 28.4621 58.1282 28.3676 58.0184C28.3362 57.9871 28.3204 57.9557 28.2889 57.9244C28.226 57.846 28.3362 57.9871 28.2889 57.9087C28.2417 57.8303 28.1945 57.7676 28.1473 57.6892C28.0843 57.5794 28.0057 57.454 27.9584 57.3285C27.9899 57.4069 27.9584 57.3285 27.9584 57.3129C27.9584 57.2658 27.927 57.2188 27.9112 57.1717C27.8797 57.062 27.8483 56.9679 27.8325 56.8581C27.7696 56.5445 27.7538 56.1996 27.7853 55.8389C27.8483 55.1647 28.1158 54.4591 28.4621 53.8476C28.887 53.1107 29.4064 52.4364 29.9258 51.7779C30.1304 51.527 30.1619 51.182 29.9258 50.9469C29.7212 50.743 29.2962 50.696 29.0916 50.9469L29.0601 50.9312Z" fill="#231F20"/>
<path d="M48.0254 50.8059C49.2215 51.7624 50.1816 52.9697 50.7639 54.3809C51.063 55.1179 51.2676 55.8862 51.2046 56.6859C51.2046 56.8583 51.1574 57.0151 51.1102 57.1876C51.0944 57.266 51.0629 57.3601 51.0315 57.4385C51.0315 57.4385 50.9685 57.5953 51 57.5326C51.0157 57.4855 50.9528 57.611 50.9528 57.6266C50.7954 57.9402 50.6537 58.097 50.3704 58.3322C50.3232 58.3636 50.276 58.4106 50.2131 58.442C50.1344 58.489 50.0557 58.5361 49.977 58.5831C49.8353 58.6458 49.7566 58.6929 49.5678 58.7399C49.5363 58.7399 49.4891 58.7556 49.4576 58.7713C49.3632 58.787 49.5835 58.7713 49.4104 58.7713C49.316 58.7713 49.2373 58.7713 49.1428 58.7713C49.1428 58.7713 49.0012 58.7713 49.0799 58.7713C49.1586 58.7713 49.0012 58.7713 48.9854 58.7556C48.954 58.7556 48.9067 58.7399 48.8753 58.7242C48.8595 58.7242 48.7021 58.6615 48.7966 58.7086C48.4975 58.5831 48.167 58.6145 47.9939 58.9124C47.8523 59.1633 47.9152 59.5866 48.1985 59.7121C49.0169 60.057 49.8825 59.9943 50.6695 59.5553C51.4564 59.1162 51.9758 58.4263 52.2276 57.611C52.7942 55.7764 51.9601 53.7537 50.937 52.2328C50.3547 51.3861 49.6622 50.6178 48.8595 49.9749C48.6077 49.7711 48.2615 49.7397 48.0254 49.9749C47.8208 50.1787 47.7736 50.6021 48.0254 50.8059Z" fill="#231F20"/>
<path d="M58.1925 33.717C58.4129 34.8145 58.3814 35.9435 57.9722 37.0724C57.4528 38.515 56.5242 39.7694 55.5484 40.961C54.9504 41.698 54.2893 42.4506 53.408 42.8112C49.9927 44.2695 48.765 38.954 48.4503 36.7118C48.0568 33.9208 48.3401 31.0671 48.7178 28.2761C48.8595 27.2098 49.0483 26.0966 49.6621 25.2185C51.4721 22.6157 53.9588 25.9711 55.0291 27.5078C56.3039 29.3423 57.7361 31.4747 58.1768 33.717H58.1925Z" fill="#B8B2AF"/>
<path d="M23.3627 29.248C22.198 31.0825 20.7815 32.9798 21.5527 35.175C22.1351 36.8213 22.8118 38.4364 23.5988 39.9887C24.1339 41.0549 24.9208 42.2152 26.1012 42.2779C28.4148 42.419 30.0674 39.581 30.7599 37.7935C31.8301 35.0809 31.9718 32.1174 31.8459 29.2009C31.7987 28.072 31.6885 26.8803 31.0589 25.9395C28.824 22.5998 25.5661 25.7828 23.3627 29.248Z" fill="#B8B2AF"/>
<path d="M26.7936 14.948C25.4086 16.1239 24.7633 18.2564 25.5974 19.9185C25.7548 20.2477 25.9752 20.5927 25.8965 20.9376C25.8335 21.2512 25.5817 21.4708 25.3614 21.7216C22.8746 24.6381 27.3602 25.9709 27.9425 28.2915C28.4462 30.2985 28.4619 32.8229 28.3517 34.877C28.2101 37.9189 27.2028 41.5879 29.6108 43.9713C31.8929 46.2292 35.3712 47.1543 38.456 47.609C41.0844 47.9853 43.8229 47.9226 46.3096 46.9975C49.6305 45.7588 52.5736 42.7953 52.1959 39.1419C51.8182 35.4885 50.7479 31.1138 52.2274 27.335C52.6838 26.1747 53.6596 24.7949 53.7698 23.5405C53.817 23.1171 52.8884 20.5456 52.8412 20.577C54.179 19.2285 54.4938 16.3748 53.0458 14.9636C52.1802 14.1326 50.9053 13.8661 49.7092 13.9131C49.3629 12.4549 47.9307 11.3416 46.4355 11.373C45.8689 11.373 45.3023 11.5298 44.7672 11.3886C44.2636 11.2632 43.8544 10.8869 43.4137 10.6203C41.525 9.44435 38.7236 10.1813 37.6533 12.1256C35.7489 9.99314 31.767 10.3695 30.3033 12.8312C30.0987 13.1761 29.9256 13.5525 29.6108 13.7877C29.2646 14.0385 28.8081 14.0699 28.3989 14.1483C27.8009 14.2737 27.25 14.556 26.7778 14.948H26.7936Z" fill="#E5E2E0"/>
<path d="M28.1472 41.9959C28.1157 41.8391 28.0842 41.698 28.037 41.5412C28.0213 41.4628 27.9898 41.4001 27.9583 41.3217C27.9583 41.2903 27.9583 41.2903 27.9583 41.2903C27.9583 41.2903 27.9583 41.2903 27.9426 41.2433C27.8954 41.1492 27.8482 41.0395 27.7852 40.9454C27.7537 40.8827 27.7065 40.8356 27.675 40.7729C27.675 40.7572 27.675 40.7729 27.675 40.7572C27.675 40.7572 27.675 40.7572 27.6436 40.7259C27.5649 40.6318 27.4704 40.5377 27.376 40.4436C27.3603 40.4279 27.3603 40.4279 27.3445 40.4123C27.2973 40.3809 27.2344 40.3339 27.1871 40.3025C27.1084 40.2555 27.014 40.2084 26.9196 40.1614C26.9196 40.1614 26.9196 40.1614 26.9038 40.1614C26.9038 40.1614 26.9038 40.1614 26.8881 40.1614C26.8251 40.1457 26.7779 40.1143 26.715 40.0987C26.652 40.083 26.3215 40.0203 26.4946 40.0516C26.3687 40.0516 26.2428 40.0359 26.1169 40.0516C26.0697 40.0516 25.928 40.0673 25.9123 40.0673C25.7864 40.083 25.6762 40.1143 25.566 40.1457C25.3142 40.2241 25.1883 40.2711 24.905 40.4593C24.6689 40.6004 24.543 40.7259 24.3227 40.9297C24.1338 41.1179 23.9292 41.1492 23.7246 41.1492C23.7246 41.1492 23.7089 41.1806 23.6931 41.1963C23.6931 41.2276 23.6617 41.259 23.6459 41.2747C23.6459 41.2747 23.6302 41.3217 23.6144 41.3531C23.583 41.4471 23.5515 41.5412 23.52 41.6353C23.4885 41.745 23.4728 41.8548 23.4413 41.9489C23.4413 41.9802 23.4413 42.0116 23.4256 42.0586C23.4256 42.0586 23.4256 42.0586 23.4256 42.09C23.4098 42.3095 23.3941 42.5134 23.4098 42.7172C23.4098 42.827 23.4098 42.9367 23.4256 43.0622C23.4256 43.1092 23.4256 43.1562 23.4256 43.2189C23.4256 43.2346 23.4256 43.2189 23.4256 43.2503C23.4413 43.3601 23.4728 43.4698 23.4885 43.5639C23.7718 43.9873 24.0866 44.3793 24.4801 44.6929C24.5115 44.7085 24.606 44.7869 24.606 44.7869C24.6532 44.8183 24.7004 44.8496 24.7476 44.881C24.8106 44.9124 24.8735 44.9437 24.9365 44.9908C24.9522 44.9908 25.0152 45.0221 25.0309 45.0378C25.2985 45.1319 25.4716 45.1789 25.6762 45.1789C26.2585 45.2103 26.7622 45.0692 27.2344 44.7242C27.9898 44.1597 28.3046 42.9681 28.1315 41.9959H28.1472Z" fill="white"/>
<path d="M54.9819 41.1176C55.092 41.0392 55.1865 40.9452 55.2809 40.8511C54.9346 40.8668 54.5884 40.8824 54.2421 40.8981C53.8801 40.8981 53.5181 40.9295 53.1719 40.9765C53.1247 40.9765 53.0145 41.0079 52.983 41.0079C52.8886 41.0236 52.8099 41.0392 52.7155 41.0706C52.621 41.102 52.5109 41.1333 52.4164 41.1647C52.4164 41.3371 52.4164 41.4939 52.322 41.6351C51.8341 42.3563 51.3777 43.109 50.9055 43.8459C50.9055 43.8459 50.9055 43.8616 50.9055 43.8773C50.9055 43.9557 50.937 44.0341 50.9527 44.1282C50.9685 44.2066 50.9999 44.3006 51.0157 44.379C51.0157 44.4104 51.0472 44.4888 51.0629 44.5201C51.1259 44.6456 51.1888 44.7553 51.2675 44.8651C51.2675 44.8808 51.3462 44.9749 51.3777 45.0062C51.4249 45.0533 51.4721 45.1003 51.5351 45.1473C51.3934 45.0219 51.5665 45.163 51.6138 45.1944C51.6925 45.2414 51.7554 45.2728 51.8341 45.3041C51.9443 45.3512 52.0387 45.4453 52.1017 45.555C52.2118 45.5707 52.3063 45.6021 52.4164 45.6177C52.4479 45.6177 52.5266 45.6334 52.5581 45.6334C52.621 45.6334 52.6997 45.6334 52.7627 45.6491C53.0775 45.6648 53.3922 45.6805 53.707 45.6491C53.8644 45.6491 54.0375 45.6334 54.1949 45.6177C54.2579 45.6177 54.3366 45.6177 54.3995 45.6021C54.431 45.6021 54.4625 45.6021 54.4939 45.6021C54.9189 45.5393 55.3438 45.4296 55.7688 45.3198C56.2567 43.893 56.0836 42.2779 54.9819 41.1333V41.1176Z" fill="white"/>
<path d="M33.2309 38.2168C34.0827 38.2168 34.7733 37.5288 34.7733 36.6802C34.7733 35.8315 34.0827 35.1436 33.2309 35.1436C32.379 35.1436 31.6885 35.8315 31.6885 36.6802C31.6885 37.5288 32.379 38.2168 33.2309 38.2168Z" fill="#231F20"/>
<path d="M46.5773 38.0132C47.4291 38.0132 48.1197 37.3252 48.1197 36.4766C48.1197 35.6279 47.4291 34.9399 46.5773 34.9399C45.7255 34.9399 45.0349 35.6279 45.0349 36.4766C45.0349 37.3252 45.7255 38.0132 46.5773 38.0132Z" fill="#231F20"/>
<path d="M40.2031 44.4108C41.846 44.4108 43.1778 43.5894 43.1778 42.5762C43.1778 41.563 41.846 40.7417 40.2031 40.7417C38.5603 40.7417 37.2285 41.563 37.2285 42.5762C37.2285 43.5894 38.5603 44.4108 40.2031 44.4108Z" fill="#231F20"/>
<path d="M46.6875 31.8979C47.2384 31.7098 47.6633 31.3021 47.7577 30.7063L47.1911 31.1453C49.7093 31.4432 51.661 29.1383 51.1888 26.7236L50.6222 27.4605C52.4479 27.4919 54.0532 26.5825 54.368 24.6852C54.6041 23.3054 54.2736 21.6433 53.4866 20.4674C53.1247 19.9342 52.5895 19.4482 51.9285 19.7618L52.5266 20.781C54.3523 19.8088 54.8559 17.6764 54.069 15.8418C53.282 14.0073 51.4563 12.9254 49.5205 13.5212L50.2445 13.9289C50.0713 12.7843 49.1428 11.8278 48.1355 11.2947C47.018 10.7145 45.7117 10.7616 44.61 11.3574L45.3182 11.4515C44.248 10.2755 42.6427 9.63261 41.053 9.71101C39.6208 9.77373 37.3387 10.542 37.7322 12.3766C37.8896 13.1135 39.0227 12.7999 38.8654 12.063C38.7552 11.5299 39.6366 11.1849 40.03 11.0752C40.5494 10.9184 41.0688 10.8713 41.6039 10.9027C42.7056 10.9811 43.7286 11.4985 44.4683 12.2982C44.6415 12.4863 44.9562 12.5177 45.1766 12.3923C46.6718 11.5769 48.8122 12.5334 49.0798 14.2582C49.127 14.5717 49.5205 14.7599 49.8038 14.6658C51.1888 14.2425 52.4479 15.0892 52.983 16.3592C53.5181 17.6293 53.1876 19.0875 51.9128 19.7618C51.236 20.1224 51.8341 21.0945 52.5108 20.781C52.4007 20.828 52.3849 20.8123 52.2275 20.8123C52.3535 20.8123 52.1646 20.8437 52.2275 20.8123C52.2433 20.8123 52.259 20.828 52.2748 20.8437C52.1961 20.781 52.1961 20.781 52.2433 20.8123C52.2905 20.8437 52.322 20.8907 52.3535 20.9221C52.4636 21.0318 52.3535 20.9064 52.4007 20.9848C52.4479 21.0475 52.4794 21.0945 52.5108 21.1573C52.5895 21.267 52.6525 21.3925 52.6997 21.5179C52.9673 22.0824 53.1719 22.835 53.2191 23.5092C53.2663 24.2148 53.2033 24.9361 52.7784 25.5006C52.2905 26.1591 51.4091 26.3159 50.5907 26.3002C50.1815 26.3002 49.9454 26.6766 50.0241 27.0372C50.3704 28.7777 48.8752 30.1732 47.1754 29.9693C46.9393 29.938 46.6403 30.1732 46.6088 30.4084C46.5773 30.5808 46.5459 30.7219 46.357 30.7847C45.6488 31.0199 45.9478 32.1645 46.6718 31.9136L46.6875 31.8979Z" fill="#231F20"/>
<path d="M36.2528 11.2004C33.53 9.58542 29.9573 11.0907 29.2805 14.1796L29.8471 13.7406C27.8798 13.5995 25.9124 14.65 25.0468 16.4218C24.37 17.8173 24.0552 20.6554 26.0383 21.1885L25.8967 20.1066C24.4015 21.0944 23.5831 23.0544 24.1969 24.7948C24.732 26.3001 26.2272 26.8802 27.7066 27.0527L27.14 26.3158C26.8253 28.6677 29.1703 30.8472 31.4682 30.7532L30.9016 30.3141C31.3423 31.8351 33.3254 31.8821 34.6002 31.7567C35.3557 31.6783 35.3557 30.5023 34.6002 30.5807C34.0493 30.6277 33.467 30.7061 32.9319 30.565C32.5856 30.4866 32.145 30.3768 32.0348 30.0005C31.9718 29.7653 31.72 29.5615 31.4682 29.5615C30.697 29.5929 29.9415 29.3577 29.3907 28.8089C28.8398 28.2601 28.1788 27.429 28.289 26.598C28.3519 26.1903 28.1316 25.9081 27.7224 25.8611C26.7938 25.7513 25.7236 25.422 25.3458 24.4656C24.8579 23.2582 25.4403 21.8 26.4948 21.1101C26.904 20.8435 26.8725 20.1693 26.3531 20.0282C25.7393 19.8714 25.6921 18.9776 25.7078 18.4602C25.7236 17.8016 25.9439 17.1431 26.2901 16.5786C27.0456 15.3713 28.4464 14.7754 29.8471 14.8695C30.0989 14.8852 30.3665 14.6814 30.4137 14.4305C30.9331 12.0785 33.5614 10.9025 35.6547 12.1412C36.3157 12.5332 36.8981 11.514 36.2528 11.122V11.2004Z" fill="#231F20"/>
<path d="M26.7308 27.7426C27.4076 30.6747 27.6594 33.6696 27.4548 36.6801C27.3289 38.7342 26.8725 40.8509 27.7538 42.8109C28.6352 44.7709 30.634 46.0096 32.4912 46.8563C34.915 47.9696 37.4646 48.3929 40.1245 48.3459C42.7843 48.2988 45.8062 47.8912 48.167 46.4016C48.8123 45.9939 48.2142 44.9747 47.5689 45.3824C45.6016 46.6211 43.2093 47.0288 40.9272 47.1385C38.409 47.264 35.9222 47.0131 33.5772 46.0409C31.7987 45.304 29.7369 44.1907 28.8556 42.3875C27.9742 40.5844 28.4936 38.6401 28.6195 36.8526C28.8398 33.6853 28.5723 30.5023 27.864 27.429C27.6909 26.6921 26.5577 27.0057 26.7308 27.7426Z" fill="#231F20"/>
<path d="M51.8025 27.0374C50.9211 30.4086 50.8267 33.8895 51.4248 37.3077C51.6451 38.5621 51.6923 39.8321 51.3146 41.0552C50.9369 42.2782 50.1027 43.3758 49.0954 44.2538C48.5131 44.7556 49.363 45.5866 49.9296 45.0849C51.5664 43.6737 52.6052 41.8078 52.7626 39.644C52.8413 38.468 52.6052 37.339 52.4321 36.1787C52.2275 34.8146 52.1645 33.4348 52.2274 32.0706C52.2904 30.4713 52.5422 28.9033 52.9514 27.351C53.1403 26.6141 52.0071 26.3005 51.8182 27.0374H51.8025Z" fill="#231F20"/>
<path d="M27.1873 43.642C27.1873 43.642 27.1715 43.7204 27.1558 43.7517C27.1558 43.7674 27.0929 43.9085 27.1558 43.7831C27.2188 43.6576 27.1558 43.7988 27.1243 43.8301C27.1086 43.8615 27.0929 43.8928 27.0614 43.9242L26.9984 44.0183C26.9984 44.0183 27.1086 43.8928 27.0456 43.9556C27.0456 43.9556 27.0299 43.9869 27.0142 43.9869C26.9669 44.0496 26.904 44.0967 26.8568 44.1437C26.7623 44.2221 26.9512 44.081 26.8725 44.1437C26.841 44.1594 26.8096 44.1751 26.7938 44.2064C26.7309 44.2535 26.6679 44.2848 26.5892 44.3162C26.5892 44.3162 26.5577 44.3162 26.542 44.3319C26.4476 44.3789 26.6679 44.2848 26.6049 44.3162C26.5735 44.3162 26.542 44.3476 26.5105 44.3476C26.4318 44.3789 26.3531 44.3946 26.2744 44.4103C26.243 44.4103 26.1957 44.426 26.1485 44.4416C26.1013 44.4416 25.9597 44.4573 26.1643 44.4416C26.0856 44.4416 26.0069 44.4573 25.9282 44.4573C25.8495 44.4573 25.7865 44.4573 25.7078 44.4573C25.6606 44.4573 25.6291 44.4573 25.5819 44.4573C25.7393 44.4887 25.456 44.4573 25.5819 44.4573C25.4245 44.426 25.2829 44.3789 25.1255 44.3319C25.0626 44.3005 25.2672 44.3946 25.1727 44.3476C25.157 44.3476 25.1412 44.3476 25.1255 44.3319C25.094 44.3162 25.0626 44.3005 25.0311 44.2848C24.9524 44.2378 24.8737 44.1908 24.795 44.1437C24.7635 44.128 24.732 44.0967 24.7006 44.081C24.858 44.1751 24.7478 44.1124 24.7006 44.081C24.6376 44.0183 24.5589 43.9556 24.496 43.8928C24.433 43.8301 24.3701 43.7674 24.3228 43.689C24.3228 43.689 24.2914 43.6576 24.2914 43.642C24.2914 43.642 24.3858 43.7674 24.3228 43.689C24.2914 43.642 24.2599 43.6106 24.2441 43.5636C24.1969 43.5008 24.1654 43.4381 24.1182 43.3597C24.1025 43.3284 24.0868 43.297 24.071 43.25C24.0395 43.2029 24.0081 43.0461 24.071 43.2343C24.0238 43.0775 23.9608 42.9207 23.9294 42.7639C23.9294 42.7482 23.8979 42.5914 23.9294 42.7169C23.9608 42.8423 23.9294 42.6855 23.9294 42.6541C23.9294 42.5757 23.9294 42.4817 23.9294 42.4033C23.9294 42.3719 23.9294 42.3249 23.9294 42.2935C23.9294 42.2778 23.9294 42.2621 23.9294 42.2308C23.9294 42.4033 23.9136 42.3405 23.9294 42.3092C23.9451 42.2308 23.9608 42.1367 23.9923 42.0583C23.9923 42.0269 24.0081 41.9799 24.0238 41.9486C24.0238 41.9172 24.0868 41.7761 24.0553 41.8858C24.0238 41.9956 24.071 41.8545 24.0868 41.8388C24.1025 41.7918 24.134 41.7447 24.1654 41.6977C24.2127 41.6193 24.2599 41.5566 24.3071 41.4782C24.3071 41.4782 24.2127 41.5879 24.2756 41.5252C24.2756 41.5095 24.3071 41.4938 24.3228 41.4782C24.3543 41.4311 24.4015 41.3998 24.433 41.3527C24.4645 41.3214 24.496 41.29 24.5432 41.2586C24.5589 41.243 24.5904 41.2273 24.6061 41.2116C24.6848 41.1489 24.5117 41.2743 24.5747 41.2273C24.6533 41.1646 24.7478 41.1175 24.8265 41.0705C24.8737 41.0391 24.9209 41.0234 24.9681 40.9921C24.9839 40.9921 25.0153 40.9764 25.0311 40.9607C24.8894 41.0391 24.9681 40.9921 25.0153 40.9607C25.1098 40.9294 25.2042 40.898 25.3144 40.8666C25.3616 40.8666 25.4245 40.851 25.4718 40.8353C25.5662 40.8353 25.5032 40.8353 25.4718 40.8353C25.3616 40.8353 25.4718 40.8353 25.5032 40.8353C25.5977 40.8353 25.7078 40.8353 25.8023 40.8353C25.818 40.8353 25.9597 40.8353 25.9597 40.8353C25.9597 40.8353 25.8023 40.8039 25.8967 40.8353C25.9282 40.8353 25.9597 40.8353 25.9911 40.851C26.1013 40.8666 26.1957 40.898 26.3059 40.945C26.6049 41.0548 26.9669 40.8353 27.0299 40.5374C27.1086 40.2081 26.9355 39.9259 26.6207 39.8161C25.6764 39.4868 24.5904 39.722 23.8192 40.3335C23.1267 40.8823 22.7017 41.7918 22.7647 42.6855C22.8277 43.5792 23.2369 44.3789 23.9136 44.9277C24.2599 45.2099 24.6533 45.4451 25.094 45.5706C25.5347 45.696 25.9439 45.696 26.3846 45.6333C27.2817 45.5079 28.1316 44.8964 28.3677 43.9869C28.4464 43.689 28.2733 43.3284 27.9585 43.2657C27.6437 43.2029 27.3132 43.3597 27.2345 43.6733L27.1873 43.642Z" fill="#231F20"/>
<path d="M24.1339 27.147C23.2525 28.5896 21.9777 29.7812 21.3324 31.3492C20.5612 33.2308 20.9546 35.3946 21.7258 37.1978C22.2137 38.3581 22.8905 39.4086 23.646 40.4121C23.8348 40.663 24.1496 40.8041 24.4486 40.616C24.7005 40.4748 24.8578 40.0672 24.6532 39.8163C23.4256 38.217 22.3554 36.3824 22.1193 34.344C22.0249 33.4973 22.0721 32.6506 22.3711 31.8353C22.6229 31.1767 23.0479 30.5809 23.4728 30.0164C24.0394 29.2638 24.6375 28.5425 25.1254 27.7272C25.5189 27.0843 24.4958 26.4885 24.1024 27.1313L24.1339 27.147Z" fill="#231F20"/>
<path d="M51.0471 44.9436C51.3146 45.3042 51.6451 45.6178 52.0543 45.8216C52.4635 46.0255 52.8885 46.1352 53.3292 46.1666C54.1791 46.2136 55.0132 45.9157 55.6585 45.3826C56.3038 44.8495 56.6973 43.9871 56.6186 43.1561C56.5399 42.325 56.1464 41.447 55.4696 40.8982C55.0762 40.5846 54.6355 40.3494 54.1161 40.3337C53.5653 40.318 53.0616 40.5689 52.6681 40.9452C52.4478 41.1491 52.4321 41.5724 52.6681 41.7762C52.9042 41.9958 53.2662 41.9958 53.5023 41.7762C53.5338 41.7449 53.581 41.7135 53.6125 41.6822C53.6912 41.6194 53.5023 41.7606 53.5653 41.7135C53.581 41.7135 53.5967 41.6822 53.6125 41.6822C53.6912 41.6351 53.7699 41.5881 53.8486 41.5567C53.9115 41.5254 53.6912 41.6194 53.7856 41.5881C53.7856 41.5881 53.8171 41.5881 53.8328 41.5724C53.8643 41.5724 53.9115 41.5567 53.943 41.541C53.9745 41.5254 54.0217 41.541 54.0532 41.5254C53.9902 41.5254 53.8328 41.5724 54.0532 41.5254C54.0846 41.5254 54.1319 41.5254 54.1633 41.5254C54.1633 41.5254 54.1948 41.5254 54.2105 41.5254C54.305 41.5254 54.0532 41.494 54.1318 41.5254C54.2105 41.541 54.2735 41.5567 54.3522 41.5881C54.3994 41.6038 54.5253 41.6665 54.3365 41.5881C54.3679 41.6038 54.3994 41.6194 54.4309 41.6351C54.4938 41.6665 54.5568 41.7135 54.6198 41.7606C54.6355 41.7606 54.6512 41.7919 54.6827 41.8076C54.6827 41.8076 54.5568 41.6978 54.6198 41.7606C54.6512 41.7919 54.6827 41.8076 54.7142 41.839C54.7771 41.9017 54.8401 41.9487 54.8873 42.0114C54.9188 42.0428 54.9345 42.0742 54.966 42.0898C54.966 42.0898 54.9975 42.1526 55.0132 42.1526C55.0132 42.1526 54.9188 42.0271 54.966 42.0898C55.0132 42.1682 55.0762 42.2466 55.1234 42.325C55.1549 42.3878 55.2021 42.4505 55.2336 42.5289C55.2493 42.5602 55.265 42.6073 55.2808 42.6386C55.2965 42.6857 55.328 42.7798 55.265 42.5916C55.265 42.623 55.2808 42.6386 55.2965 42.6543C55.3595 42.8111 55.4067 42.9679 55.4382 43.1404C55.4382 43.1874 55.4382 43.2188 55.4539 43.2658C55.4539 43.2031 55.4224 43.0463 55.4539 43.2658C55.4539 43.3442 55.4539 43.4226 55.4539 43.501C55.4539 43.5324 55.4539 43.5794 55.4539 43.6108C55.4539 43.7519 55.4854 43.454 55.4539 43.5951C55.4539 43.6735 55.4224 43.7519 55.3909 43.8303C55.3909 43.8773 55.3595 43.9087 55.3437 43.9557C55.4067 43.8146 55.2965 44.0655 55.3437 43.9557C55.3123 44.0341 55.265 44.1125 55.2178 44.1909C55.2021 44.2223 55.1706 44.2537 55.1549 44.3007C55.1549 44.3007 55.1391 44.3321 55.1234 44.3477C55.0604 44.4261 55.2021 44.238 55.1706 44.3007C55.1077 44.3634 55.0604 44.4261 54.9975 44.4888C54.9345 44.5516 54.8873 44.5986 54.8244 44.6456C54.9345 44.5672 54.7142 44.724 54.8244 44.6456C54.7929 44.677 54.7457 44.6927 54.7142 44.724C54.6512 44.7711 54.5725 44.8024 54.5096 44.8495C54.4781 44.8652 54.4309 44.8808 54.3994 44.8965C54.3994 44.8965 54.3679 44.8965 54.3522 44.9122C54.2263 44.9592 54.4466 44.8808 54.3994 44.8965C54.242 44.9592 54.0846 45.0063 53.9272 45.0376C53.8958 45.0376 53.8486 45.0376 53.8171 45.0533C53.8013 45.0533 53.7699 45.0533 53.7541 45.0533C53.6754 45.0533 53.8486 45.0533 53.8328 45.0533C53.7541 45.0533 53.6597 45.069 53.5653 45.069C53.4708 45.069 53.3921 45.069 53.2977 45.069C53.2505 45.069 53.2033 45.069 53.156 45.069C53.3764 45.0847 53.219 45.069 53.156 45.069C53.0616 45.0533 52.9829 45.0376 52.8885 45.0063C52.8413 45.0063 52.8098 44.9749 52.7626 44.9592C52.7154 44.9436 52.558 44.8652 52.7626 44.9592C52.6839 44.9122 52.5895 44.8808 52.5108 44.8338C52.4793 44.8181 52.4321 44.7868 52.4006 44.7711C52.3534 44.7397 52.2117 44.63 52.3848 44.7711C52.3219 44.7084 52.2432 44.6613 52.1802 44.5986C52.1488 44.5673 52.1173 44.5202 52.0858 44.4888C52.0858 44.4888 52.0701 44.4575 52.0543 44.4575C51.9599 44.3477 52.133 44.5516 52.0543 44.4732C51.9599 44.3477 51.8655 44.2537 51.7081 44.2066C51.5664 44.1753 51.3776 44.1909 51.2517 44.2693C51.0156 44.4261 50.8425 44.8181 51.0471 45.069V44.9436Z" fill="#231F20"/>
<path d="M53.4866 27.1314C54.6356 28.8248 56.1465 30.2673 57.138 32.0548C57.6102 32.9015 57.9092 33.811 57.9092 34.7831C57.9092 35.7553 57.6732 36.7274 57.2639 37.6055C56.8075 38.6247 56.1622 39.5498 55.3281 40.3024C54.7615 40.8198 55.6114 41.6509 56.1622 41.1334C57.7676 39.6752 58.8378 37.5584 59.0582 35.3946C59.2785 33.1054 58.1296 31.1768 56.776 29.4363C56.0206 28.4641 55.1864 27.539 54.4939 26.5198C54.069 25.8927 53.046 26.4885 53.4709 27.1157L53.4866 27.1314Z" fill="#231F20"/>
</svg>
