<svg width="80" height="76" viewBox="0 0 80 76" fill="none" xmlns="http://www.w3.org/2000/svg">
<path d="M55.7776 47.8253L55.8877 47.2138C54.6916 46.7591 53.2279 47.1354 52.378 48.0918C51.5281 49.0483 51.3707 50.5536 51.9688 51.6668C51.9845 51.6982 52.016 51.7452 52.0317 51.7766C51.9373 52.0432 51.8429 52.3254 51.7484 52.5919C51.717 52.6703 51.7012 52.7331 51.6698 52.8115C51.3865 50.679 50.568 48.5152 49.7654 46.665C49.5293 46.1319 49.2145 45.05 48.7266 44.705C47.0268 42.1335 44.1466 40.346 41.0776 40.0011C37.8984 39.6404 34.5932 40.7851 32.3268 43.0273C28.3764 46.9472 25.2916 60.6827 34.4201 60.228L35.0654 59.5381C35.3644 60.0242 35.8366 60.3691 36.6078 60.4789C39.3463 60.8552 39.9916 59.1618 40.149 57.1234C40.3064 59.1461 40.9517 60.8395 43.6902 60.4789C46.476 60.1026 49.7811 59.8831 51.1346 57.4056C51.4652 58.1269 51.9531 58.7541 51.8901 59.3343C53.9204 59.6792 55.872 58.7698 57.4459 57.5624C58.5791 56.7001 59.4762 55.1791 59.8539 53.7993C60.751 50.4909 58.2171 47.7782 55.7776 47.8096V47.8253Z" fill="#5C564D"/>
<path d="M39.5351 57.1543C39.3778 56.9975 39.1889 56.8721 38.9685 56.7466C38.0085 56.2292 37.0012 55.8059 35.9467 55.5236C35.506 55.3982 35.0811 55.3198 34.6719 55.5236C34.8135 56.4017 35.5375 59.0359 34.908 59.7101L35.0653 59.5377C35.3644 60.0237 35.8365 60.3687 36.6077 60.4784C38.1974 60.698 39.3778 60.1335 39.8971 58.5969C40.1017 57.9853 39.9129 57.4993 39.5351 57.123V57.1543Z" fill="#F39B4A"/>
<path d="M43.6903 60.5089C43.6903 60.5089 43.8004 60.4932 43.8634 60.4775C45.2641 60.2266 45.7993 59.0036 45.8465 57.6081C45.8622 57.075 46.0511 55.5227 45.453 55.2405C45.3428 55.1934 45.2169 55.1777 45.091 55.1777C44.2254 55.1934 43.407 55.5854 42.62 55.9774C41.2508 56.6673 39.6612 57.1534 40.5897 58.9722C41.1406 60.0385 42.5099 60.65 43.6903 60.4932V60.5089Z" fill="#F39B4A"/>
<path d="M34.4044 58.4712C34.4201 58.5653 34.4516 58.6594 34.4674 58.7535C34.5303 58.9573 34.5933 59.1768 34.672 59.365C34.672 59.3807 34.672 59.3807 34.672 59.3807C34.672 59.3807 34.672 59.3807 34.6877 59.412C34.7034 59.4591 34.7349 59.5061 34.7507 59.5688C34.7821 59.6315 34.8136 59.6943 34.8451 59.7413L35.0497 59.5375C35.3487 60.0235 35.8209 60.3685 36.5921 60.4782C38.6853 60.7605 39.551 59.8354 39.913 58.4712C38.0715 58.4242 36.1986 58.4556 34.3887 58.4556L34.4044 58.4712Z" fill="white"/>
<path d="M55.7773 47.8251L55.8874 47.2136C54.6913 46.7589 53.2276 47.1352 52.3777 48.0916C51.5278 49.0481 51.3704 50.5534 51.9685 51.6666C51.9842 51.698 52.0157 51.745 52.0314 51.7764C52.0314 51.7764 52.0314 51.7921 52.0314 51.8078C52.3305 51.8548 52.598 52.0273 52.7239 52.3879C52.7869 52.5604 52.8813 52.7329 52.96 52.8113C53.0387 52.8897 53.1017 52.921 53.1961 52.9524C53.3692 52.9994 53.385 52.9994 53.6053 52.9681C53.5109 52.9681 53.7784 52.921 53.8099 52.9053C53.8729 52.8897 53.9201 52.8583 53.9988 52.8269C54.1719 52.7329 54.3765 52.6231 54.5182 52.482C54.6126 52.3879 54.6441 52.3095 54.6756 52.2154C54.77 51.8862 54.7542 51.4158 54.7385 50.9767C54.7385 50.3339 55.4782 49.8948 56.0291 50.2398C57.9177 51.4158 57.3983 54.4106 56.6744 56.1354C56.0606 57.5779 54.9431 58.7225 53.5896 59.3654C55.0061 59.1616 56.3281 58.456 57.4613 57.5936C58.5945 56.7312 59.4916 55.2103 59.8693 53.8305C60.7664 50.522 58.2325 47.8094 55.793 47.8408L55.7773 47.8251Z" fill="white"/>
<path d="M45.0121 60.26C45.1537 60.0718 45.2796 59.8837 45.4055 59.6955C45.5314 59.5074 45.6574 59.3035 45.7675 59.1154C45.8147 59.0213 45.862 58.9272 45.9092 58.8331C45.9407 58.7861 45.9564 58.7234 45.9879 58.6763C46.0036 58.6293 46.0193 58.5666 46.0351 58.5195C44.2409 58.7077 42.4309 58.5979 40.6367 58.5195C40.5423 58.5195 40.4636 58.5195 40.3691 58.5195C40.7311 59.868 41.5968 60.7931 43.69 60.5109C44.0992 60.4481 44.5242 60.4011 44.9491 60.3384C44.9649 60.307 44.9963 60.2913 45.0121 60.26Z" fill="white"/>
<path d="M34.058 54.8653C34.058 55.8531 33.9321 56.841 33.9793 57.8288C34.0423 58.895 34.3413 59.9769 35.2542 60.6198C35.7578 60.9804 36.4031 61.0902 37.0012 61.1216C37.5678 61.1529 38.1501 61.1059 38.6695 60.8864C39.1889 60.6668 39.5981 60.3376 39.9286 59.8828C40.2119 59.4909 40.385 59.0361 40.4952 58.5657C40.7785 57.4211 40.7627 56.2138 40.747 55.0535C40.747 54.7399 40.4794 54.4576 40.1489 54.4576C39.8184 54.4576 39.5509 54.7085 39.5509 55.0535C39.5509 55.5552 39.5509 56.057 39.5509 56.5431C39.5509 56.7939 39.5351 57.0291 39.5036 57.28C39.5036 57.3898 39.4879 57.4995 39.4722 57.625C39.4722 57.672 39.4407 57.7818 39.4722 57.5936C39.4722 57.625 39.4722 57.6563 39.4722 57.6877C39.4722 57.7504 39.4564 57.8131 39.4407 57.8602C39.4092 58.0797 39.3463 58.2992 39.2833 58.503C39.2518 58.5971 39.2203 58.6912 39.1889 58.7853C39.1416 58.9264 39.2518 58.6598 39.1889 58.7853C39.1574 58.848 39.1417 58.895 39.1102 58.9577C39.063 59.0361 39.0157 59.1302 38.9685 59.2086C38.937 59.24 38.9213 59.2713 38.8898 59.3184C38.8269 59.3968 38.9843 59.2086 38.9213 59.287C38.9056 59.3184 38.8741 59.3341 38.8584 59.3654C38.7954 59.4281 38.7324 59.5065 38.6537 59.5693C38.638 59.5693 38.6223 59.6006 38.6065 59.6163C38.5593 59.6633 38.7324 59.5222 38.6537 59.5849C38.6065 59.6163 38.5593 59.6477 38.4964 59.6947C38.4177 59.7417 38.3075 59.7731 38.2288 59.8358C38.3075 59.7731 38.3547 59.7888 38.2918 59.8044C38.2603 59.8044 38.2445 59.8201 38.2131 59.8358C38.1501 59.8515 38.0872 59.8828 38.0242 59.8985C37.914 59.9299 37.8039 59.9456 37.6937 59.9612C37.6937 59.9612 37.8511 59.9456 37.7566 59.9612C37.7252 59.9612 37.6937 59.9612 37.6622 59.9612C37.5835 59.9612 37.5048 59.9612 37.4419 59.9612C37.316 59.9612 37.1743 59.9612 37.0484 59.9612C36.9697 59.9612 36.891 59.9612 36.8123 59.9456C36.7651 59.9456 36.7336 59.9456 36.6864 59.9456C36.5448 59.9299 36.8123 59.9612 36.6864 59.9456C36.5605 59.9299 36.4503 59.8985 36.3244 59.8672C36.2615 59.8515 36.1985 59.8201 36.1513 59.8044C36.0411 59.7731 36.2772 59.8672 36.1828 59.8044C36.1513 59.8044 36.1356 59.7731 36.1041 59.7731C36.0096 59.726 35.9309 59.6633 35.8365 59.6163C35.7421 59.5693 35.9467 59.7104 35.868 59.6477C35.8523 59.632 35.8208 59.6163 35.805 59.6006C35.7578 59.5692 35.7263 59.5222 35.6949 59.4909C35.6634 59.4595 35.6319 59.3968 35.5847 59.3654C35.6791 59.4281 35.6634 59.4752 35.6319 59.4281C35.6319 59.4125 35.6004 59.3811 35.5847 59.3654C35.5217 59.2713 35.4745 59.1773 35.4273 59.0832C35.4273 59.0518 35.4116 59.0361 35.3958 59.0048C35.3486 58.9107 35.443 59.1459 35.4116 59.0518C35.4116 59.0048 35.3801 58.9734 35.3644 58.9264C35.3329 58.8166 35.3014 58.7069 35.2699 58.5971C35.2384 58.4873 35.2227 58.3933 35.207 58.2835C35.207 58.2521 35.207 58.2208 35.207 58.1894C35.2384 58.3619 35.207 58.2835 35.207 58.2365C35.207 58.1737 35.207 58.111 35.1912 58.0326C35.0968 56.9821 35.2542 55.9315 35.2542 54.881C35.2542 54.5674 34.9866 54.2852 34.6561 54.2852C34.3256 54.2852 34.0738 54.536 34.058 54.881V54.8653Z" fill="#231F20"/>
<path d="M49.4037 44.673C47.3262 41.3959 43.5961 39.2948 39.6929 39.3732C36.3091 39.4359 32.8781 41.0666 30.9107 43.8576C29.5887 45.7549 28.7388 48.0441 28.2666 50.2864C27.7944 52.5286 27.6056 55.0217 28.4397 57.2011C28.8647 58.2987 29.5414 59.2709 30.533 59.9294C31.6662 60.6821 33.0669 60.9016 34.4205 60.8545C35.1759 60.8232 35.1759 59.6472 34.4205 59.6786C32.4374 59.7726 30.6432 59.0984 29.746 57.2639C28.8489 55.4293 28.9434 53.2655 29.2581 51.3683C29.6044 49.2515 30.2969 47.1661 31.3829 45.3159C32.7994 42.8855 35.2389 41.2861 38.0089 40.753C42.0223 39.969 46.2088 41.8663 48.3807 45.3002C48.7899 45.943 49.8129 45.3472 49.4037 44.7043V44.673Z" fill="#231F20"/>
<path d="M45.0596 54.8655C45.0596 55.8063 45.1855 56.7314 45.1383 57.6722C45.1383 57.7819 45.1383 57.8917 45.1225 58.0171C45.1225 58.0798 45.1225 58.1269 45.1068 58.1896C45.1068 58.221 45.1068 58.2366 45.1068 58.268C45.1068 58.221 45.1225 58.0642 45.1068 58.268C45.0753 58.4875 45.0281 58.707 44.9494 58.9109C44.9494 58.9579 44.9179 58.9893 44.9022 59.0363C44.8707 59.1461 44.9651 58.8952 44.9179 58.9893C44.9179 59.0206 44.9022 59.0363 44.8864 59.0677C44.8392 59.1617 44.792 59.2558 44.7291 59.3499C44.7291 59.3656 44.6976 59.3813 44.6976 59.3969C44.6661 59.4597 44.6346 59.4283 44.7291 59.3499C44.6976 59.3813 44.6661 59.4283 44.6189 59.4753C44.5874 59.5067 44.5559 59.5381 44.5244 59.5694C44.5087 59.5851 44.4772 59.6008 44.4615 59.6165C44.3513 59.7105 44.5559 59.5537 44.4615 59.6165C44.3671 59.6792 44.2884 59.7262 44.1939 59.7732C44.1467 59.8046 43.9893 59.836 44.1782 59.7732C44.1152 59.7889 44.0365 59.8203 43.9736 59.8516C43.8477 59.883 43.7375 59.9144 43.6116 59.9301C43.5644 59.9301 43.5486 59.9614 43.6588 59.9301C43.6273 59.9301 43.5644 59.9301 43.5329 59.9301C43.4385 59.9301 43.3598 59.9457 43.2653 59.9457C43.1394 59.9457 42.9978 59.9457 42.8719 59.9457C42.8089 59.9457 42.7302 59.9457 42.6673 59.9457C42.6043 59.9457 42.3997 59.8987 42.5886 59.9457C42.4784 59.9144 42.3682 59.9144 42.2581 59.883C42.1951 59.883 42.1479 59.8516 42.0849 59.836C42.0535 59.836 42.0377 59.8203 42.0063 59.8046C41.9433 59.7733 41.9433 59.7419 42.0377 59.8203C41.9748 59.7576 41.8489 59.7262 41.7702 59.6792C41.723 59.6478 41.6757 59.6165 41.6443 59.5851C41.5498 59.5224 41.6285 59.5851 41.6443 59.5851C41.7387 59.6478 41.6443 59.5851 41.6285 59.5694C41.5498 59.5067 41.4869 59.444 41.4239 59.3656C41.3767 59.3185 41.298 59.1774 41.4082 59.3499C41.3767 59.3029 41.3452 59.2715 41.3137 59.2245C41.2665 59.1461 41.2193 59.0677 41.1721 58.9736C41.1406 58.9265 41.1249 58.8795 41.1091 58.8325C41.1091 58.8168 41.1091 58.8011 41.0934 58.7854C41.0462 58.6913 41.1564 58.9422 41.0934 58.7854C41.0147 58.5816 40.9518 58.3777 40.9045 58.1739C40.8731 58.0485 40.8573 57.923 40.8258 57.7976C40.8258 57.7349 40.8101 57.6722 40.7944 57.6251C40.7786 57.5154 40.8101 57.7819 40.7944 57.6565C40.7944 57.6251 40.7944 57.5781 40.7944 57.5467C40.7629 57.2802 40.7472 57.0136 40.7314 56.747C40.6999 56.1826 40.7157 55.6181 40.7157 55.0536C40.7157 54.74 40.4481 54.4578 40.1176 54.4578C39.7871 54.4578 39.5353 54.7087 39.5195 55.0536C39.5195 56.1199 39.5195 57.2018 39.7084 58.2523C39.8973 59.2088 40.3379 60.1652 41.2036 60.6827C41.6915 60.9806 42.2738 61.0904 42.8247 61.1217C43.47 61.1374 44.1467 61.059 44.7291 60.7768C45.7678 60.2907 46.1613 59.1931 46.2714 58.1426C46.3816 57.092 46.2242 55.9474 46.2242 54.8341C46.2242 54.5205 45.9567 54.2383 45.6262 54.2383C45.2956 54.2383 45.0281 54.4892 45.0281 54.8341L45.0596 54.8655Z" fill="#231F20"/>
<path d="M48.3653 45.1757C48.5857 45.3012 48.7116 45.6461 48.8217 45.8656C48.9634 46.1792 49.0578 46.4928 49.1837 46.8064C49.3883 47.3082 49.6087 47.8099 49.7975 48.3274C50.2225 49.472 50.5845 50.6323 50.8363 51.8239C51.2455 53.7682 51.4973 56.2457 50.2697 57.8293C49.4985 58.8171 48.2552 59.2248 47.0275 59.3189C46.2721 59.3816 46.2721 60.5576 47.0275 60.4949C48.3968 60.3851 49.7503 59.9931 50.7733 59.021C51.6232 58.2056 52.0797 57.0924 52.2528 55.9477C52.6305 53.3762 51.9223 50.6793 51.0409 48.2803C50.8048 47.6531 50.5215 46.9946 50.2855 46.3831C49.9707 45.6147 49.7346 44.6112 48.9634 44.1565C48.3024 43.7645 47.72 44.7837 48.3653 45.1757Z" fill="#231F20"/>
<path d="M58.6111 50.0503C59.7443 51.5242 59.5869 53.3744 58.7842 54.9581C58.375 55.7577 57.8399 56.5104 57.1316 57.0905C56.4234 57.6707 55.6522 58.1411 54.8338 58.439C53.8422 58.8153 52.8664 58.9094 51.8119 58.7839C51.4972 58.7369 51.2139 59.0819 51.2139 59.3798C51.2139 59.7247 51.4814 59.9286 51.8119 59.9756C52.8507 60.101 53.9052 60.0227 54.8967 59.6777C55.8883 59.3327 56.8169 58.7996 57.651 58.1724C58.4852 57.5452 59.1619 56.7299 59.6656 55.8205C60.1692 54.911 60.5312 53.8762 60.5942 52.8099C60.6571 51.634 60.3423 50.4109 59.6184 49.4858C59.4295 49.2349 59.1147 49.0938 58.8157 49.282C58.5639 49.4231 58.4065 49.8308 58.6111 50.0817V50.0503Z" fill="#231F20"/>
<path d="M54.7075 50.9447C54.7075 50.9447 54.7233 51.0387 54.739 51.0858C54.739 51.1485 54.739 51.0387 54.739 51.0387C54.739 51.0387 54.739 51.1015 54.739 51.1171C54.739 51.1642 54.739 51.1955 54.739 51.2426C54.739 51.2739 54.739 51.3053 54.739 51.321C54.739 51.3994 54.739 51.321 54.739 51.2896C54.7233 51.321 54.7233 51.3994 54.7075 51.4307C54.7075 51.4778 54.6761 51.5248 54.6603 51.5718C54.6603 51.5875 54.6603 51.6189 54.6446 51.6346C54.6131 51.713 54.6918 51.5405 54.6446 51.6032C54.6131 51.6502 54.5974 51.6973 54.5659 51.7443C54.5659 51.76 54.4872 51.8541 54.4872 51.8698C54.4872 51.8698 54.5659 51.7914 54.5187 51.8384C54.5187 51.8384 54.4872 51.8698 54.4715 51.8854C54.44 51.9168 54.4085 51.9638 54.3613 51.9952C54.3613 51.9952 54.3141 52.0266 54.3141 52.0422C54.377 51.9952 54.377 51.9952 54.3456 52.0109C54.3456 52.0109 54.3298 52.0266 54.3141 52.0422C54.2669 52.0736 54.2354 52.0893 54.1882 52.1206C54.1724 52.1206 54.078 52.1677 54.078 52.1834C54.078 52.152 54.1882 52.152 54.0937 52.1834C54.078 52.1834 54.0465 52.1834 54.0308 52.199C53.9836 52.2147 53.9206 52.2304 53.8734 52.2461C53.8419 52.2461 53.8104 52.2461 53.7947 52.2618C53.7317 52.2618 53.8419 52.2618 53.8419 52.2618C53.8104 52.2618 53.716 52.2618 53.7003 52.2618C53.653 52.2618 53.6058 52.2618 53.5586 52.2618C53.4642 52.2618 53.5429 52.2618 53.5586 52.2618C53.653 52.2618 53.5271 52.2618 53.5114 52.2618C53.4642 52.2618 53.4327 52.2461 53.3855 52.2304C53.354 52.2304 53.2281 52.1834 53.2911 52.199C53.354 52.2147 53.2281 52.1677 53.2124 52.152C53.1652 52.1206 53.1179 52.0893 53.0707 52.0736C53.0392 52.0736 52.992 52.0109 52.9605 51.9952C53.0078 51.9952 53.0392 52.0579 52.9763 51.9952C52.9763 51.9952 52.9448 51.9638 52.9291 51.9482C52.8504 51.8698 52.7717 51.7914 52.7087 51.713C52.6458 51.6346 52.7717 51.807 52.6773 51.6816C52.6458 51.6346 52.6143 51.6032 52.5986 51.5562C52.5513 51.4778 52.5041 51.3837 52.4569 51.3053C52.4412 51.2583 52.4097 51.2112 52.394 51.1799C52.3625 51.1171 52.4097 51.2269 52.4097 51.2269C52.4097 51.2112 52.3939 51.1642 52.3782 51.1485C52.3467 51.0544 52.3153 50.9603 52.2838 50.8819C52.2523 50.8035 52.2366 50.6938 52.2208 50.5997C52.2208 50.5683 52.2208 50.537 52.2208 50.5213C52.2208 50.5213 52.2208 50.6467 52.2208 50.5683C52.2208 50.5213 52.2208 50.4586 52.2208 50.4115C52.2208 50.2234 52.2208 50.0352 52.2208 49.8314C52.2208 49.7687 52.2208 49.8784 52.2208 49.8784C52.2208 49.8471 52.2208 49.8157 52.2208 49.8C52.2208 49.753 52.2366 49.706 52.2523 49.6589C52.268 49.5648 52.2995 49.4708 52.331 49.3767C52.3625 49.2826 52.394 49.1885 52.4254 49.1101C52.4569 49.0474 52.4097 49.1572 52.4097 49.1572C52.4097 49.1415 52.4412 49.0944 52.4412 49.0788C52.4569 49.0317 52.4884 48.9847 52.5199 48.9376C52.5671 48.8592 52.6143 48.7808 52.6615 48.7024C52.693 48.6554 52.7087 48.624 52.7402 48.577C52.6772 48.6397 52.7559 48.5613 52.7717 48.5456C52.8346 48.4829 52.8819 48.4202 52.9448 48.3575C53.0078 48.2948 53.1337 48.232 53.1651 48.1536C53.1651 48.1536 53.055 48.232 53.1494 48.1693C53.1651 48.1693 53.1809 48.138 53.1966 48.138C53.2281 48.1066 53.2753 48.0909 53.3068 48.0596C53.3855 48.0125 53.4642 47.9655 53.5586 47.9185C53.6058 47.8871 53.653 47.8714 53.7003 47.8401C53.716 47.8401 53.7475 47.8244 53.779 47.8087C53.7475 47.8244 53.6845 47.8557 53.7475 47.8087C53.8419 47.7773 53.9521 47.7303 54.0465 47.6989C54.141 47.6676 54.2511 47.6519 54.3613 47.6205C54.377 47.6205 54.4085 47.6205 54.4243 47.6205C54.5187 47.6205 54.4715 47.6205 54.4085 47.6205C54.4557 47.6205 54.5187 47.6205 54.5659 47.6205C54.6761 47.6205 54.7862 47.6205 54.8964 47.6205C54.9436 47.6205 54.9908 47.6205 55.0381 47.6205C55.0695 47.6205 55.0853 47.6205 55.1168 47.6205C55.1325 47.6205 55.2269 47.6205 55.1325 47.6205C55.0381 47.6205 55.1325 47.6205 55.1482 47.6205C55.1797 47.6205 55.1954 47.6205 55.2269 47.6205C55.2741 47.6205 55.3371 47.6362 55.3843 47.6519C55.4945 47.6833 55.6047 47.7146 55.7148 47.746C55.9981 47.8557 56.3759 47.6205 56.4388 47.3383C56.5175 47.009 56.3444 46.7268 56.0296 46.617C55.0853 46.2721 54.0465 46.3818 53.1494 46.7738C52.2523 47.1658 51.5441 47.9655 51.2135 48.9063C50.883 49.8471 50.946 50.8976 51.3709 51.807C51.8274 52.7792 52.8189 53.5318 53.9521 53.375C54.5974 53.2809 55.164 52.9517 55.526 52.4029C55.8879 51.8541 55.9824 51.1955 55.825 50.5997C55.7463 50.3018 55.4 50.0979 55.101 50.192C54.802 50.2861 54.6131 50.5997 54.6918 50.9133L54.7075 50.9447Z" fill="#231F20"/>
<path d="M57.6506 47.0879C57.6506 47.1977 57.6506 47.2917 57.6192 47.3858V47.229C57.6034 47.4956 57.5247 47.7621 57.4303 48.013L57.4932 47.8719C57.446 47.966 57.4145 48.0601 57.3516 48.1541C57.2729 48.2953 57.2572 48.4521 57.2886 48.6089C57.3044 48.6873 57.3359 48.75 57.3988 48.8127C57.446 48.8754 57.4932 48.9224 57.5719 48.9695C57.7136 49.0479 57.871 49.0792 58.0284 49.0322C58.17 48.9852 58.3117 48.8911 58.3746 48.7656C58.6579 48.2482 58.8153 47.6837 58.831 47.1036C58.831 47.0252 58.831 46.9468 58.7838 46.8841C58.7523 46.8057 58.7209 46.743 58.6579 46.6959C58.6107 46.6332 58.5477 46.6018 58.469 46.5705C58.4061 46.5391 58.3274 46.5234 58.2487 46.5234C58.0913 46.5234 57.9339 46.5862 57.8238 46.6959L57.7293 46.8214C57.6821 46.9154 57.6506 47.0095 57.6506 47.1193V47.0879Z" fill="#231F20"/>
<path d="M28.1091 49.848C28.1563 50.0832 28.2507 50.3497 28.4711 50.3968C28.6285 50.4281 28.7859 50.3497 28.9118 50.2713C29.321 50.0048 29.6672 49.6912 29.9663 49.3149C30.2968 50.2086 30.7375 51.0553 31.2883 51.8393C31.5716 52.2313 31.9179 52.6547 32.4058 52.7174C32.8937 52.7801 33.4288 52.2783 33.2084 51.8393C35.286 53.8934 38.9531 53.3602 41.2195 55.2105C41.7231 53.9247 43.234 53.4073 44.5561 53.0153C45.406 52.7644 46.2559 52.4508 46.9641 51.902C47.09 51.8079 48.2232 50.5379 48.113 50.5065C49.0888 50.8515 50.222 50.4595 50.8988 49.6755C51.5755 48.8915 51.8274 47.8253 51.7644 46.8061C51.5913 44.3287 48.6639 42.4628 46.6651 41.3182C44.3043 39.954 41.5972 39.2641 38.9059 39.0446C36.3404 38.8407 33.3186 38.8251 31.9021 41.3966C31.3513 42.3844 30.5486 42.8391 29.8089 43.7172C28.4081 45.3949 27.7471 47.6998 28.1406 49.8636L28.1091 49.848Z" fill="white"/>
<path d="M31.2882 41.506C29.6199 42.29 28.5025 43.7482 27.9359 45.473C27.3693 47.1977 26.9601 49.142 27.8572 50.7571C27.9988 51.0236 28.2192 51.2745 28.5497 51.2745C28.833 51.2745 29.0848 51.1177 29.3052 50.9766C29.5098 50.8355 29.7144 50.6787 29.9032 50.5219C29.9977 50.4278 30.0921 50.3494 30.1865 50.2396C30.2495 50.1769 30.3124 50.0515 30.3754 50.0201L30.0764 50.0985H30.0449C29.9504 50.0358 29.8717 49.9888 29.7773 49.9417C29.7301 49.9104 29.7616 49.8006 29.7458 49.879C29.7301 49.9417 29.7773 50.1142 29.7931 50.1926C29.8403 50.3651 29.9032 50.5375 29.9819 50.71C30.1236 51.055 30.3124 51.3843 30.517 51.6979C30.8948 52.2623 31.3984 52.9993 32.0437 53.2658C32.3427 53.3913 32.6732 53.3599 32.8464 53.062C32.988 52.8111 32.9251 52.3878 32.6418 52.2623C32.5631 52.231 32.4844 52.1839 32.4057 52.1369C32.2798 52.0428 32.4844 52.2153 32.3585 52.1055C32.3113 52.0742 32.2798 52.0271 32.2326 51.9958C32.0594 51.839 31.8863 51.6195 31.7761 51.4783C31.6187 51.2588 31.4614 51.0393 31.3354 50.8041C31.2725 50.6943 31.2095 50.5689 31.1466 50.4435C31.1151 50.3807 31.0836 50.3337 31.0679 50.271C31.0679 50.2396 31.0364 50.2083 31.0364 50.1926C31.0522 50.2396 31.0522 50.2396 31.0364 50.1926C31.0049 50.0985 30.9735 50.0044 30.942 49.9104C30.942 49.8633 30.9262 49.8163 30.9105 49.7692C30.9577 49.9574 30.9105 49.6595 30.8948 49.6281C30.8161 49.2204 30.5013 48.9068 30.0764 48.9382C29.6514 48.9696 29.4153 49.3616 29.132 49.6281C28.8959 49.8476 28.6284 50.0515 28.3294 50.1769L28.6284 50.0985H28.5497C28.6441 50.1299 28.7543 50.1612 28.8487 50.1769C28.9432 50.3023 28.9589 50.3023 28.8959 50.1926C28.8645 50.1455 28.833 50.0985 28.8173 50.0358C28.7858 49.9731 28.77 49.926 28.7386 49.8633C28.6756 49.6752 28.6126 49.487 28.5812 49.2832C28.5182 48.9382 28.5182 48.5776 28.5497 48.2169C28.5969 47.4173 28.8172 46.6333 29.0533 45.8806C29.2894 45.128 29.6199 44.4224 30.1236 43.8423C30.6272 43.2621 31.2095 42.8388 31.8863 42.5252C32.1696 42.3841 32.2483 41.9764 32.0909 41.7255C31.9178 41.4276 31.5715 41.3805 31.2882 41.5217V41.506Z" fill="#231F20"/>
<path d="M32.7364 52.152C33.1142 52.6694 33.6178 52.9516 34.2002 53.1868C34.7825 53.422 35.3176 53.6259 35.8999 53.7983C36.8915 54.1119 37.946 54.1903 38.9218 54.5353C38.9847 54.551 39.0319 54.5823 39.0949 54.598C38.9847 54.551 39.1579 54.6294 39.1893 54.6451C39.3152 54.7078 39.4254 54.7705 39.5356 54.8332C39.5985 54.8646 39.6458 54.9116 39.693 54.943C39.5985 54.8803 39.7244 54.9743 39.7402 54.99C39.8504 55.0841 39.9448 55.1938 40.0392 55.3036C40.2281 55.5388 40.6688 55.5231 40.8734 55.3036C41.1095 55.0527 41.078 54.7235 40.8734 54.4726C40.2281 53.6729 39.2051 53.328 38.245 53.1241C37.7728 53.0144 37.2849 52.936 36.8128 52.8262C36.199 52.6694 35.6166 52.4656 35.0343 52.246C34.8927 52.1833 34.751 52.1363 34.5936 52.0736C34.5621 52.0736 34.5464 52.0579 34.5149 52.0422C34.5936 52.0736 34.5149 52.0422 34.4834 52.0265C34.4205 51.9952 34.3575 51.9795 34.3103 51.9481C34.1844 51.8854 34.0585 51.807 33.9326 51.7286C34.0113 51.7913 33.8854 51.6816 33.8696 51.6659C33.8382 51.6345 33.8224 51.6189 33.7909 51.5875C33.7909 51.5718 33.7123 51.4777 33.7595 51.5561C33.5863 51.3053 33.2401 51.1641 32.9568 51.3523C32.705 51.5091 32.5476 51.8854 32.7522 52.152H32.7364Z" fill="#231F20"/>
<path d="M41.3772 55.8208C41.4559 55.6796 41.5503 55.5385 41.6448 55.4131C41.7077 55.3347 41.5976 55.4758 41.6448 55.3974C41.6763 55.3661 41.692 55.3347 41.7235 55.3033C41.7864 55.2249 41.8494 55.1622 41.9123 55.0995C42.0225 54.9897 42.1484 54.88 42.2743 54.7859C42.1956 54.8486 42.3688 54.7232 42.3845 54.7075C42.4475 54.6605 42.5261 54.6134 42.5891 54.5664C42.7307 54.488 42.8567 54.4096 42.9983 54.3312C43.0613 54.2998 43.1242 54.2685 43.2029 54.2371C43.2344 54.2371 43.2659 54.2058 43.2973 54.1901C43.4705 54.1117 43.1872 54.2371 43.3603 54.1587C43.6593 54.0333 43.9584 53.9392 44.2731 53.8451C44.9184 53.657 45.5637 53.5002 46.1933 53.2179C46.8228 52.9357 47.4209 52.4653 47.8616 51.9165C48.4124 51.2266 48.7587 50.4426 48.8531 49.5802C48.8846 49.2666 48.5541 48.9844 48.255 48.9844C47.9088 48.9844 47.7042 49.2509 47.657 49.5802C47.657 49.7056 47.657 49.6272 47.657 49.5959C47.657 49.6429 47.657 49.6743 47.6412 49.7213C47.6412 49.7997 47.6098 49.8781 47.594 49.9565C47.5783 50.0349 47.5468 50.1133 47.5311 50.176C47.5311 50.2074 47.4996 50.2544 47.4838 50.2858C47.4838 50.2858 47.4052 50.4583 47.4524 50.3642C47.3894 50.5053 47.3107 50.6464 47.232 50.7719C47.1848 50.8346 47.1533 50.8973 47.1061 50.96C47.0904 50.9914 47.0589 51.0228 47.0432 51.0541C46.933 51.2109 47.1061 50.9757 46.9959 51.1168C46.8071 51.3363 46.5238 51.6186 46.3664 51.744C46.2247 51.8381 46.0831 51.9322 45.9415 52.0263C45.8785 52.0576 45.8155 52.1047 45.7368 52.136C45.7054 52.1517 45.6739 52.1674 45.6424 52.1831C45.6424 52.1831 45.5008 52.2458 45.5637 52.2144C45.6267 52.1831 45.5165 52.2301 45.5008 52.2301C45.4693 52.2301 45.4378 52.2615 45.3906 52.2615C45.3276 52.2928 45.2489 52.3085 45.186 52.3399C45.0443 52.3869 44.887 52.4339 44.7453 52.481C44.4305 52.5751 44.1315 52.6534 43.8167 52.7475C43.1872 52.9357 42.5419 53.1866 41.991 53.5472C41.33 53.9706 40.7634 54.5193 40.3699 55.2093C40.2126 55.4758 40.2912 55.8678 40.5745 56.0089C40.8578 56.15 41.2198 56.0873 41.3772 55.8051V55.8208Z" fill="#231F20"/>
<path d="M49.7343 51.0387C51.497 50.0038 52.4413 47.887 52.0478 45.8957C51.6859 44.0612 49.9703 42.8695 48.5066 41.8974C44.7923 39.4356 40.2123 38.2283 35.774 38.6516C33.8381 38.8398 31.5403 39.5297 31.0209 41.6465C30.832 42.3834 31.981 42.697 32.1541 41.9601C32.5161 40.4705 34.2631 39.9844 35.6166 39.8433C37.5053 39.6395 39.4254 39.7492 41.2826 40.1412C43.1397 40.5332 44.9654 41.2074 46.6495 42.1482C47.4836 42.6186 48.2863 43.1517 49.0575 43.7319C49.6083 44.1552 50.1592 44.61 50.5212 45.2058C51.5285 46.8365 50.7415 49.0944 49.1362 50.0352C48.4752 50.4115 49.0732 51.4307 49.7343 51.0544V51.0387Z" fill="#231F20"/>
<path d="M44.6198 18.9102C44.1634 17.6088 43.5653 17.1227 42.4479 16.5896C41.9128 16.323 41.5193 16.3074 40.9212 16.276C39.3631 16.1663 37.8522 16.0408 36.3098 16.3701C35.7275 16.4955 35.1609 16.6837 34.6887 17.06C34.248 17.4206 33.9332 17.9224 33.6185 18.4085C31.8715 21.1524 30.1245 23.9434 29.0228 27.048C27.8266 30.4349 27.4489 34.1039 27.3072 37.7103C27.2443 39.0901 27.2285 40.4856 27.5433 41.8184C27.8581 43.1512 28.5663 44.4369 29.668 45.1268C31.3363 46.1774 33.6972 45.8795 35.5543 46.099C38.7808 46.4753 41.9757 45.9892 45.2179 46.0049C46.2724 46.0049 47.2797 46.146 48.2555 45.66C49.31 45.1268 50.034 44.0136 50.3645 42.8219C50.695 41.6302 50.6793 40.3602 50.5691 39.1058C50.1914 34.9663 48.8378 31.015 47.4686 27.1264C46.5242 24.3825 45.5642 21.6542 44.6198 18.9102Z" fill="white"/>
<path d="M29.841 42.0385C29.7151 40.8155 30.0299 39.4984 30.8169 38.5733C31.651 37.6168 32.8786 37.2561 33.7757 36.4094C35.4126 34.8728 35.8375 32.2386 36.2467 30.0905C36.7346 27.5347 37.0022 24.9475 37.2068 22.3603C37.3484 20.4944 37.1281 18.7853 36.6559 16.9665C36.6087 16.8097 36.5615 16.6215 36.4198 16.5431C36.1051 16.355 35.1765 16.4804 34.7988 16.4804C33.9016 16.4961 32.8629 16.9194 32.0445 17.2644C31.651 17.4212 28.0154 19.8202 27.9996 19.8045C26.2526 18.8167 24.0807 19.7732 22.6642 21.106C21.2792 22.4074 20.146 24.0694 18.4934 24.9318C16.5103 25.9667 17.2028 26.9702 18.5721 28.1775C18.7452 28.3187 18.9184 28.5068 18.9026 28.742C18.9026 28.8675 18.8082 28.9929 18.7295 29.087C18.0213 30.0434 16.4159 31.6271 16.7464 32.9756C17.0612 33.4146 17.8481 32.5836 18.1786 33.0069C18.2888 33.148 18.2573 33.3676 18.2416 33.5557C18.037 34.8885 18.2101 36.2683 18.698 37.507C18.8554 37.9147 19.0915 38.3381 19.4692 38.5105C19.847 38.683 20.3978 38.4008 20.3821 37.9617C21.0431 39.028 22.1133 39.7649 23.2937 39.9844C23.5298 44.2964 28.5033 45.8173 31.7769 45.8173C30.7382 44.8295 29.9827 43.4967 29.8253 42.0228L29.841 42.0385Z" fill="#5C564D"/>
<path d="M60.4217 28.2232C60.8151 28.0664 61.2558 27.9096 61.6021 27.6431C62.3103 27.0943 62.5621 26.0594 61.7122 25.5577C59.918 24.5071 58.596 22.751 57.0221 21.3555C55.4482 19.96 53.3235 18.8938 51.4034 19.6307C51.1358 19.7405 50.8525 19.8816 50.5692 19.8816C50.1128 19.8816 49.7193 19.5523 49.3416 19.2701C47.1382 17.5139 44.4468 16.6045 41.7083 16.3223C41.6453 16.385 41.5824 16.432 41.5037 16.4791C39.9298 18.7213 40.0715 21.9513 40.3548 24.5855C40.6066 26.9689 40.9528 29.4463 41.5037 31.7669C41.8185 33.084 42.3064 34.4168 43.2979 35.3262C44.1635 36.1102 45.2495 36.5022 46.2096 37.1294C48.0825 38.3524 49.1685 40.5946 48.5546 42.9466C48.2714 44.0128 47.7048 44.9536 46.9493 45.7062C51.2932 45.4867 55.5741 44.201 55.763 38.5719C56.5971 38.8541 57.51 38.321 58.0136 37.5527C58.5173 36.7844 58.6904 35.8279 58.8635 34.9185C58.895 35.4203 58.9422 35.9534 59.2255 36.3454C59.5088 36.753 60.0911 36.9412 60.4374 36.6119C60.8309 36.2356 61.3188 33.3505 60.8623 33.1467C61.3975 33.3819 62.0113 32.8488 62.1214 32.2529C62.2316 31.6571 61.9955 31.0299 61.7122 30.4968C61.2715 29.6815 60.7207 29.117 60.3902 28.2389L60.4217 28.2232Z" fill="#5C564D"/>
<path d="M30.817 38.589C31.0688 38.2911 31.3836 38.0559 31.6826 37.8521C30.392 38.0089 29.0385 37.8678 27.7637 37.5071C27.0554 37.3033 26.3786 37.0211 25.7019 36.7075C25.4186 36.582 24.7261 36.1116 24.3956 36.2057C23.8762 36.3468 23.6244 37.5542 23.5771 38.0089C23.6716 38.9183 23.7503 39.8434 23.7503 40.7685C23.7503 40.9567 23.6873 41.1135 23.5929 41.2389C23.6244 41.3644 23.6244 41.4741 23.6086 41.5839C24.8048 44.7042 28.9126 45.8645 31.7613 45.8645C30.7225 44.8766 29.9671 43.5439 29.8097 42.07C29.6838 40.8469 29.9986 39.5298 30.7855 38.6047L30.817 38.589Z" fill="#F39B4A"/>
<path d="M55.7471 38.5106C55.7471 37.8364 55.7785 37.0367 55.511 36.4095C55.0231 35.2335 53.7168 35.9391 52.9456 36.3468C51.655 37.021 50.5375 37.6169 49.1053 37.7893C48.4285 37.8677 47.7675 37.8834 47.0908 37.8207C48.4128 39.1064 49.0896 40.9723 48.5702 42.9323C48.2869 43.9985 47.7203 44.9393 46.9648 45.692C51.1986 45.4724 55.3693 44.2337 55.7471 38.9653C55.7471 38.8085 55.7471 38.6674 55.7471 38.5106Z" fill="#F39B4A"/>
<path d="M31.1789 30.6543C32.2394 30.6543 33.099 30.0295 33.099 29.2588C33.099 28.4881 32.2394 27.8633 31.1789 27.8633C30.1185 27.8633 29.2588 28.4881 29.2588 29.2588C29.2588 30.0295 30.1185 30.6543 31.1789 30.6543Z" fill="#F39B4A"/>
<path d="M46.4143 30.0273C47.4747 30.0273 48.3344 29.4025 48.3344 28.6318C48.3344 27.8611 47.4747 27.2363 46.4143 27.2363C45.3538 27.2363 44.4941 27.8611 44.4941 28.6318C44.4941 29.4025 45.3538 30.0273 46.4143 30.0273Z" fill="#F39B4A"/>
<path d="M31.226 37.1143C32.0778 37.1143 32.7684 36.4263 32.7684 35.5776C32.7684 34.729 32.0778 34.041 31.226 34.041C30.3741 34.041 29.6836 34.729 29.6836 35.5776C29.6836 36.4263 30.3741 37.1143 31.226 37.1143Z" fill="#231F20"/>
<path d="M47.2318 37.1143C48.0837 37.1143 48.7742 36.4263 48.7742 35.5776C48.7742 34.729 48.0837 34.041 47.2318 34.041C46.38 34.041 45.6895 34.729 45.6895 35.5776C45.6895 36.4263 46.38 37.1143 47.2318 37.1143Z" fill="#231F20"/>
<path d="M39.2373 39.3566C40.8802 39.3566 42.2119 38.5352 42.2119 37.522C42.2119 36.5089 40.8802 35.6875 39.2373 35.6875C37.5945 35.6875 36.2627 36.5089 36.2627 37.522C36.2627 38.5352 37.5945 39.3566 39.2373 39.3566Z" fill="#231F20"/>
<path d="M27.7632 21.0896C31.6349 16.2602 38.9377 16.0407 44.4305 17.7498C45.8313 18.1888 47.1848 18.7846 48.4124 19.6C49.042 20.0233 49.64 19.0041 49.0105 18.5808C46.5395 16.9187 43.5491 16.0877 40.6217 15.7427C37.4268 15.3821 34.0902 15.68 31.147 17.0128C29.5259 17.7498 28.0622 18.8473 26.9448 20.2428C26.4726 20.823 27.3068 21.6697 27.7789 21.0739L27.7632 21.0896Z" fill="#231F20"/>
<path d="M24.9773 24.1003C24.2061 26.5934 24.2533 29.2276 23.7811 31.7834C23.4506 33.618 22.9627 35.3898 22.8525 37.2714C22.7581 38.9805 22.9312 40.7366 23.7024 42.2889C24.5051 43.9196 25.9845 45.0329 27.6528 45.6914C30.0766 46.6165 32.8151 46.5695 35.3648 46.3656C36.1203 46.3029 36.1203 45.1269 35.3648 45.1897C31.7921 45.4562 26.8029 45.5346 24.8199 41.8969C23.246 38.9961 24.2375 35.4682 24.8513 32.4577C25.3865 29.7921 25.3078 27.0324 26.1104 24.4296C26.3308 23.7083 25.1976 23.3947 24.9773 24.116V24.1003Z" fill="#231F20"/>
<path d="M53.1184 24.414C53.8267 26.7346 53.8581 29.1807 54.2201 31.564C54.5034 33.3515 55.0228 35.092 55.1645 36.8951C55.2904 38.4318 55.2431 40.0468 54.5979 41.4736C53.9054 43.0103 52.5518 44.0922 50.9779 44.6253C48.6801 45.4093 46.1619 45.1741 43.7853 45.1584C43.0299 45.1584 43.0299 46.3344 43.7853 46.3344C47.7987 46.3344 52.7564 46.695 55.2117 42.8064C57.1003 39.8116 56.3606 35.8916 55.6209 32.6459C54.9756 29.8236 55.1015 26.8601 54.2516 24.0847C54.0313 23.3635 52.8823 23.6771 53.1184 24.3983V24.414Z" fill="#231F20"/>
<path d="M28.1102 18.925C25.7966 17.9685 23.4043 19.5365 21.7832 21.0888C20.9333 21.9041 20.1306 22.7822 19.2178 23.5191C18.7929 23.8641 18.3364 24.1463 17.8485 24.3815C17.3606 24.6167 16.9199 24.899 16.6366 25.3537C16.2904 25.9025 16.3534 26.6081 16.7311 27.1255C17.1088 27.6429 17.6597 27.9252 18.242 28.176C18.541 28.3015 18.8873 28.0506 18.966 27.7684C19.0604 27.4234 18.8558 27.1725 18.5568 27.0471C18.2892 26.9373 17.8957 26.7178 17.7226 26.4826C17.5338 26.2317 17.581 26.0122 17.8328 25.7927C18.1161 25.5418 18.541 25.385 18.8873 25.1812C19.3595 24.9146 19.7844 24.5854 20.2093 24.2404C21.7675 22.9547 22.9794 21.2299 24.8208 20.3205C25.7651 19.8501 26.8196 19.6619 27.8112 20.0696C28.1102 20.195 28.4564 19.9441 28.5351 19.6619C28.6296 19.3169 28.425 19.0661 28.1259 18.9406L28.1102 18.925Z" fill="#231F20"/>
<path d="M18.7452 28.7248C17.612 29.5088 16.7463 30.5907 16.227 31.8607C16.0853 32.19 15.9437 32.5507 15.9751 32.9113C16.0224 33.3817 16.4001 33.6639 16.8565 33.711C17.2185 33.7423 17.612 33.6796 17.974 33.6012C18.3674 33.5228 18.7452 33.3817 19.1071 33.2249L18.3045 32.4252C17.2972 34.2598 17.3916 36.7058 18.6507 38.3992C18.8396 38.6501 19.1544 38.7755 19.4534 38.6031C19.7052 38.4619 19.8626 38.0543 19.658 37.8034C19.1386 37.0978 18.8553 36.2825 18.7924 35.4671C18.7294 34.589 18.8868 33.758 19.3117 33.0211C19.4377 32.7859 19.4062 32.5036 19.2173 32.3155C19.0127 32.1116 18.7452 32.1273 18.5091 32.2214C18.0369 32.4252 17.5018 32.535 16.9824 32.5507C16.9509 32.5507 16.9195 32.5507 16.9037 32.5507H16.9509C16.9509 32.5507 17.0296 32.6134 17.0611 32.6604C17.1241 32.7075 17.1555 32.7702 17.1241 32.8486C17.0926 32.8172 17.2185 32.5507 17.2342 32.5036C17.3129 32.2684 17.3916 32.0803 17.5175 31.8607C17.9425 31.014 18.572 30.2614 19.3432 29.7283C19.6108 29.5558 19.721 29.2109 19.5478 28.9286C19.3904 28.6621 18.997 28.5366 18.7452 28.7248Z" fill="#231F20"/>
<path d="M19.7521 35.797C19.6262 37.1925 20.2714 38.6977 21.3889 39.5758C21.7351 39.858 22.1129 40.0619 22.5378 40.2187C22.8369 40.3284 23.1988 40.1089 23.2618 39.811C23.3405 39.4817 23.1674 39.1995 22.8526 39.0897C22.7896 39.074 22.7424 39.0427 22.6795 39.027L22.8211 39.0897C22.6165 38.9956 22.4277 38.9016 22.2388 38.7604C22.223 38.7604 22.1916 38.7291 22.1758 38.7134C22.1758 38.7134 22.1444 38.6977 22.1286 38.682L22.2073 38.7448C22.2073 38.7448 22.1129 38.6664 22.0657 38.635C21.987 38.5566 21.8925 38.4782 21.8138 38.3998C21.7351 38.3214 21.6722 38.243 21.5935 38.1489C21.5148 38.0548 21.6879 38.2744 21.6092 38.1646C21.5935 38.1489 21.5778 38.1176 21.562 38.1019C21.5305 38.0548 21.4991 38.0078 21.4676 37.9451C21.3417 37.7569 21.2315 37.5374 21.1371 37.3336L21.2 37.4747C21.0741 37.1611 20.9797 36.8161 20.9325 36.4712V36.628C20.9325 36.3614 20.9167 36.0792 20.9325 35.8126C20.9325 35.6715 20.8538 35.499 20.7593 35.3893C20.6649 35.2795 20.4918 35.2168 20.3344 35.2168C20.177 35.2168 20.0196 35.2795 19.9095 35.3893C19.7993 35.499 19.7521 35.6402 19.7363 35.8126L19.7521 35.797Z" fill="#231F20"/>
<path d="M51.8433 20.3369C53.6218 19.5059 55.5734 20.9641 56.7695 22.1401C57.5092 22.8614 58.186 23.6454 58.9572 24.351C59.3349 24.6959 59.7441 25.0409 60.1848 25.3231C60.5625 25.574 60.9875 25.7622 61.381 26.013C61.5069 26.1071 61.6643 26.2325 61.7115 26.3423C61.8059 26.5461 61.7115 26.75 61.6013 26.9381C61.3495 27.3145 60.8773 27.5653 60.4366 27.581C60.1219 27.5967 59.8386 27.8319 59.8386 28.1768C59.8386 28.4748 60.1061 28.7884 60.4366 28.7727C61.6957 28.71 63.1594 27.6594 62.9076 26.2639C62.703 25.1036 61.3023 24.743 60.4839 24.1158C58.5952 22.7046 57.3676 20.5565 55.1799 19.5216C53.9365 18.9258 52.5515 18.7376 51.2767 19.3491C50.9934 19.4902 50.9147 19.8979 51.0721 20.1488C51.2452 20.4467 51.5915 20.4937 51.8748 20.3526L51.8433 20.3369Z" fill="#231F20"/>
<path d="M59.7607 28.8043C59.9023 28.8827 60.0282 28.9767 60.1542 29.0708L60.0282 28.9767C60.3115 29.1963 60.5634 29.4628 60.7994 29.745L60.705 29.6196C60.9568 29.9332 61.1614 30.2938 61.3188 30.6545L61.2559 30.5134C61.4132 30.9054 61.5234 31.2973 61.5864 31.7207V31.5639C61.5864 31.5639 61.5864 31.6266 61.5864 31.6737C61.6021 31.8305 61.6336 31.9716 61.7595 32.097C61.8697 32.2068 62.0271 32.2695 62.1844 32.2695C62.3418 32.2695 62.4992 32.2068 62.6094 32.097C62.7038 31.9873 62.7983 31.8305 62.7825 31.6737C62.7038 31.0151 62.5307 30.4036 62.2474 29.8234C61.9956 29.306 61.6336 28.8199 61.2086 28.4123C60.9568 28.1771 60.6735 27.9575 60.3902 27.7851C60.1227 27.6283 59.7292 27.7224 59.5876 27.9889C59.4459 28.2555 59.5089 28.6318 59.7922 28.7886L59.7607 28.8043Z" fill="#231F20"/>
<path d="M59.9647 32.1441C59.9647 32.1441 59.9962 32.2068 60.0119 32.2382C59.9804 32.1755 59.9804 32.1755 60.0119 32.2382C60.0276 32.2852 60.0434 32.3323 60.0591 32.3793C60.0906 32.4891 60.1378 32.5988 60.1535 32.6929C60.2165 32.9124 60.2637 33.1476 60.2952 33.3828C60.2952 33.2731 60.2952 33.3828 60.2952 33.4298C60.2952 33.4769 60.2952 33.5396 60.2952 33.5866C60.2952 33.7121 60.2952 33.8218 60.2952 33.9473C60.2952 34.1668 60.2952 34.402 60.2637 34.6215C60.2637 34.6372 60.2322 34.8097 60.2637 34.6686C60.2637 34.7313 60.248 34.794 60.2322 34.841C60.2165 34.9508 60.185 35.0605 60.1693 35.1703C60.1221 35.3898 60.0434 35.6093 59.9647 35.8132C59.9647 35.8289 59.886 36.0013 59.9175 35.9386C59.9489 35.8759 59.8702 36.0327 59.8702 36.0484C59.823 36.1425 59.7758 36.2365 59.7286 36.3149C59.6656 36.4247 59.6027 36.5188 59.5397 36.6285C59.5083 36.6756 59.4768 36.7069 59.461 36.754C59.461 36.7696 59.3194 36.9421 59.3981 36.8324H60.2322C60.2322 36.8324 60.1221 36.7069 60.0748 36.6599C60.0276 36.6128 60.1063 36.7226 60.0434 36.6285C60.0276 36.5972 59.9962 36.5658 59.9804 36.5344C59.9332 36.456 59.886 36.3777 59.8388 36.2993C59.823 36.2679 59.8073 36.2365 59.7915 36.2052C59.7443 36.1111 59.7915 36.2209 59.7758 36.1738C59.7129 36.017 59.6656 35.8602 59.6342 35.7034C59.6342 35.6721 59.6342 35.625 59.6184 35.5937C59.6184 35.5309 59.6184 35.6721 59.6184 35.5623C59.6184 35.4682 59.6184 35.3741 59.6184 35.2801H58.438C58.438 35.4369 58.438 35.5937 58.438 35.7505C58.438 35.7975 58.438 35.8445 58.438 35.8759C58.438 35.9073 58.4223 36.017 58.438 35.9073C58.438 35.9857 58.4065 36.0641 58.3908 36.1425C58.3593 36.2993 58.3121 36.4404 58.2649 36.5972C58.2334 36.6756 58.2177 36.7383 58.1862 36.8167C58.2334 36.7069 58.1862 36.8167 58.1862 36.848C58.1705 36.8794 58.1547 36.9264 58.1232 36.9578C58.0603 37.0989 57.9816 37.2244 57.8872 37.3498C57.8714 37.3812 57.8557 37.4125 57.8242 37.4282C57.8242 37.4282 57.7298 37.5536 57.777 37.4909C57.8242 37.4282 57.7298 37.5536 57.7298 37.5536C57.714 37.585 57.6826 37.6007 57.6668 37.632C57.5566 37.7575 57.4465 37.8672 57.3206 37.9613C57.3206 37.9613 57.2261 38.0397 57.2891 37.9927C57.352 37.9456 57.2419 38.024 57.2261 38.0397C57.1632 38.0867 57.0845 38.1338 57.0215 38.1808C56.754 38.3376 56.6281 38.7139 56.8169 38.9805C57.0058 39.2471 57.3363 39.3568 57.6196 39.1843C58.9417 38.3847 59.7129 36.8167 59.6342 35.2801C59.6184 34.9665 59.3823 34.6842 59.0361 34.6842C58.6898 34.6842 58.438 34.9351 58.438 35.2801C58.438 36.1738 58.7843 37.0519 59.4138 37.6791C59.6184 37.8829 60.0591 37.93 60.248 37.6791C61.6015 35.9386 61.8691 33.5396 60.9562 31.5326C60.8303 31.2504 60.3896 31.1563 60.1535 31.3288C59.8545 31.5169 59.8073 31.8305 59.9489 32.1284L59.9647 32.1441Z" fill="#231F20"/>
</svg>
