<svg width="80" height="76" viewBox="0 0 80 76" fill="none" xmlns="http://www.w3.org/2000/svg">
<path d="M51.1011 57.2418C51.1011 57.2418 51.1484 57.3202 51.1641 57.3515C51.589 56.0501 51.8094 54.686 51.5733 53.3375C51.5576 53.1807 51.5733 53.0553 51.6048 52.9298C51.4631 52.1615 51.3372 51.3775 51.1956 50.6092C50.8021 49.1667 50.2512 47.7555 49.7004 46.5011C49.4643 45.968 49.1495 44.8861 48.6616 44.5568C46.9461 41.9853 44.0659 40.2135 40.9969 39.8686C37.8176 39.5079 34.5125 40.6682 32.2619 42.9261C28.3272 46.8618 25.2896 60.5973 34.4023 60.1269L35.0476 59.437C35.3624 59.923 35.8188 60.268 36.59 60.3777C39.3286 60.7384 39.9738 59.045 40.1155 57.0223C40.2729 59.045 40.9339 60.7384 43.6724 60.3621C46.4582 59.9701 49.7633 59.7506 51.1011 57.2731V57.2418Z" fill="white"/>
<path d="M34.0088 54.733C34.0088 55.7208 33.8829 56.7086 33.9458 57.6965C34.0088 58.7627 34.3078 59.8446 35.2364 60.4875C35.7558 60.8481 36.4011 60.9579 37.0306 60.9892C37.6602 61.0206 38.2425 60.9422 38.7934 60.6913C39.722 60.2836 40.2571 59.3899 40.4932 58.4491C40.7765 57.3045 40.745 56.0814 40.745 54.9211C40.745 54.6075 40.4774 54.3253 40.1469 54.3253C39.8164 54.3253 39.5488 54.5762 39.5488 54.9211C39.5488 55.4229 39.5488 55.909 39.5488 56.4107C39.5488 56.6616 39.5331 56.8968 39.5016 57.1477C39.5016 57.2574 39.4859 57.3672 39.4701 57.4926C39.4701 57.524 39.4701 57.5553 39.4701 57.5867C39.4859 57.3985 39.4701 57.5083 39.4701 57.5553C39.4701 57.6181 39.4544 57.6808 39.4387 57.7278C39.4072 57.9473 39.36 58.1669 39.2813 58.3707C39.2498 58.4648 39.2183 58.5589 39.1868 58.6529C39.1868 58.6843 39.1711 58.7 39.1554 58.7313C39.2026 58.5745 39.2026 58.6373 39.1711 58.6843C39.1396 58.7313 39.1239 58.7784 39.1082 58.8254C39.0609 58.9038 39.0137 58.9979 38.9665 59.0763C38.935 59.1233 38.9036 59.1547 38.8721 59.2017C38.935 59.0763 38.9508 59.1076 38.9193 59.139C38.9036 59.1704 38.8721 59.186 38.8563 59.2174C38.7934 59.2801 38.7304 59.3585 38.6517 59.4212C38.636 59.4369 38.6045 59.4526 38.5888 59.4683C38.5101 59.531 38.7147 59.3742 38.6203 59.4369C38.573 59.4683 38.5416 59.4996 38.4943 59.531C38.4157 59.578 38.3212 59.6251 38.2425 59.6721C38.1481 59.7192 38.3842 59.6251 38.274 59.6564C38.2425 59.6564 38.2268 59.6721 38.1953 59.6878C38.1481 59.7035 38.0851 59.7192 38.0222 59.7348C37.912 59.7662 37.8018 59.7819 37.6917 59.8132C37.6445 59.8132 37.55 59.8132 37.7231 59.8132C37.6917 59.8132 37.6602 59.8132 37.6445 59.8132C37.5658 59.8132 37.5028 59.8132 37.4241 59.8132C37.2825 59.8132 37.1566 59.8132 37.0149 59.8132C36.9362 59.8132 36.8733 59.8132 36.7946 59.7976C36.7631 59.7976 36.7316 59.7976 36.6844 59.7976C36.6529 59.7976 36.6214 59.7976 36.6057 59.7976C36.7001 59.7976 36.7159 59.7976 36.6529 59.7976C36.527 59.7819 36.4168 59.7505 36.2909 59.7192C36.2437 59.7192 36.1965 59.6878 36.1493 59.6721C36.1021 59.6721 36.0076 59.6094 36.1808 59.6721C36.1493 59.6564 36.1021 59.6408 36.0706 59.6251C35.9761 59.578 35.8975 59.5153 35.803 59.4683C35.7086 59.4212 35.9132 59.5624 35.8345 59.4996C35.8345 59.4996 35.803 59.484 35.7873 59.4683C35.7401 59.4212 35.6928 59.3899 35.6456 59.3428C35.6142 59.3115 35.5827 59.2801 35.5512 59.2488C35.4725 59.1704 35.6299 59.3742 35.5827 59.2801C35.5827 59.2644 35.5512 59.2331 35.5355 59.2174C35.4725 59.1233 35.4253 59.0292 35.3781 58.9352C35.3781 58.9195 35.3623 58.8881 35.3466 58.8724C35.3151 58.8254 35.3466 58.7784 35.3623 58.9195C35.3623 58.8724 35.3151 58.8097 35.2994 58.7627C35.2679 58.6529 35.2364 58.5432 35.205 58.4334C35.1735 58.3237 35.1577 58.2296 35.142 58.1198C35.142 58.0728 35.1105 57.8846 35.142 58.1041C35.142 58.0414 35.1263 57.963 35.1263 57.9003C35.0318 56.8498 35.1735 55.7992 35.1735 54.7487C35.1735 54.4351 34.9059 54.1528 34.5754 54.1528C34.2449 54.1528 33.9773 54.4037 33.9773 54.7487L34.0088 54.733Z" fill="#231F20"/>
<path d="M49.3384 44.4785C47.2609 41.2171 43.5151 39.116 39.6119 39.2101C36.228 39.2885 32.797 40.9192 30.8454 43.7258C29.5233 45.6231 28.6892 47.9124 28.217 50.1546C27.7449 52.3968 27.5717 54.9056 28.4216 57.0694C28.8466 58.1669 29.5233 59.1391 30.5149 59.7976C31.6481 60.5503 33.0646 60.7698 34.4023 60.7071C35.1578 60.6757 35.1578 59.4997 34.4023 59.5311C32.4193 59.6252 30.6251 58.9666 29.7122 57.1321C28.7994 55.2975 28.8938 53.1494 29.2086 51.2365C29.5548 49.1197 30.2473 47.0343 31.3176 45.1684C32.734 42.738 35.1578 41.123 37.9278 40.5742C41.9412 39.7745 46.1434 41.6561 48.3154 45.0743C48.7246 45.7172 49.7476 45.1213 49.3384 44.4785Z" fill="#231F20"/>
<path d="M45.0101 54.6862C45.0101 55.627 45.136 56.5521 45.1046 57.4929C45.1046 57.6027 45.1046 57.7124 45.0888 57.8379C45.0888 57.9006 45.0888 57.9476 45.0731 58.0103C45.0731 58.0417 45.0731 58.0574 45.0731 58.0887C45.0888 57.8849 45.0731 58.026 45.0731 58.0887C45.0416 58.3083 44.9944 58.5278 44.9157 58.7316C44.9157 58.7786 44.8842 58.81 44.8685 58.8571C44.837 58.9668 44.9314 58.7159 44.8842 58.81C44.8842 58.8414 44.8685 58.8571 44.8527 58.8884C44.8055 58.9825 44.7583 59.0766 44.6954 59.1706C44.6954 59.1863 44.6639 59.202 44.6639 59.2177C44.6324 59.2647 44.6009 59.249 44.6954 59.1706C44.6639 59.202 44.6324 59.249 44.5852 59.2961C44.5537 59.3274 44.5222 59.3588 44.4908 59.3902C44.475 59.4058 44.4435 59.4215 44.4278 59.4372C44.5222 59.3745 44.3176 59.5313 44.4278 59.4372C44.3334 59.4999 44.2547 59.547 44.1602 59.594C44.113 59.6254 43.9556 59.6724 44.1445 59.594C44.0816 59.6097 44.0029 59.641 43.9399 59.6724C43.814 59.7038 43.7038 59.7351 43.5779 59.7508H43.515H43.5937C43.5937 59.7508 43.5307 59.7508 43.515 59.7508C43.4205 59.7508 43.3418 59.7665 43.2474 59.7665C43.1215 59.7665 42.9798 59.7665 42.8539 59.7665C42.791 59.7665 42.7123 59.7665 42.6493 59.7665C42.5864 59.7665 42.3818 59.7194 42.5706 59.7665C42.4605 59.7351 42.3503 59.7351 42.2401 59.7038C42.1772 59.7038 42.1299 59.6724 42.067 59.6567C42.0355 59.6567 42.0198 59.641 41.9883 59.6254C41.9253 59.594 41.9096 59.5626 42.0198 59.641C41.9411 59.5783 41.8309 59.547 41.7522 59.4999C41.705 59.4686 41.6578 59.4372 41.6263 59.4058C41.6106 59.4058 41.5319 59.3431 41.6263 59.4058C41.7207 59.4686 41.6263 59.4058 41.6106 59.3902C41.5319 59.3274 41.4689 59.2647 41.406 59.202C41.3745 59.1706 41.343 59.1236 41.3115 59.0922C41.4532 59.2334 41.343 59.1236 41.3115 59.0609C41.2643 58.9825 41.2014 58.9041 41.1699 58.81C41.1384 58.763 41.1227 58.7159 41.0912 58.6689C41.0912 58.6532 41.0912 58.6375 41.0755 58.6219C41.0282 58.5278 41.1384 58.7787 41.0755 58.6375C40.9968 58.4337 40.9338 58.2299 40.8866 58.026C40.8551 57.9006 40.8394 57.7751 40.8079 57.6497C40.8079 57.587 40.7922 57.5243 40.7764 57.4772C40.7764 57.4302 40.7607 57.3204 40.7764 57.5086C40.7764 57.4772 40.7764 57.4302 40.7764 57.3988C40.7449 57.1323 40.7292 56.8657 40.7135 56.5992C40.682 56.0347 40.682 55.4702 40.682 54.9057C40.682 54.5921 40.4144 54.3099 40.0839 54.3099C39.7534 54.3099 39.4858 54.5608 39.4858 54.9057C39.4858 55.972 39.4858 57.0539 39.6747 58.1044C39.8636 59.0609 40.3043 60.0174 41.1856 60.5348C41.6735 60.817 42.2559 60.9425 42.8067 60.9581C43.452 60.9738 44.1288 60.8954 44.7111 60.6132C45.7499 60.1271 46.1433 59.0295 46.2535 57.979C46.3637 56.9284 46.2063 55.7838 46.2063 54.6705C46.2063 54.3569 45.9387 54.0747 45.6082 54.0747C45.2777 54.0747 45.0101 54.3256 45.0101 54.6705V54.6862Z" fill="#231F20"/>
<path d="M48.2997 44.996C48.52 45.1214 48.6459 45.4507 48.7561 45.6859C48.8978 45.9995 49.0079 46.3444 49.1496 46.658C49.3542 47.1441 49.5588 47.6302 49.7634 48.1476C50.1883 49.2766 50.5661 50.4525 50.8179 51.6285C51.2428 53.5728 51.4946 56.0502 50.267 57.6339C49.4958 58.6217 48.2682 59.0294 47.0248 59.1392C46.2694 59.2019 46.2694 60.3779 47.0248 60.3151C48.3941 60.1897 49.7476 59.8134 50.7549 58.8412C51.6048 58.0259 52.0612 56.9126 52.2186 55.768C52.5964 53.1965 51.8724 50.4996 50.991 48.1006C50.7549 47.4577 50.4874 46.8305 50.2355 46.219C49.9208 45.4507 49.6847 44.4472 48.9135 43.9925C48.2525 43.6005 47.6701 44.6197 48.3154 45.0116L48.2997 44.996Z" fill="#231F20"/>
<path d="M31.6791 18.122C35.4721 16.6951 39.6586 16.6638 43.672 17.1655C46.1587 17.4791 48.6611 17.9965 50.8331 19.2039C53.7133 20.8189 55.8695 23.6569 56.6564 26.8556C59.5996 27.0908 62.4483 29.239 62.9047 32.1397C63.4241 35.3384 61.6771 38.0667 58.246 38.0353C56.2787 38.0196 56.7823 40.45 55.8695 41.6417C54.1697 43.8525 51.5099 45.4362 48.7871 45.9536C45.9226 46.5024 42.9795 46.0007 40.0678 45.9536C36.6997 45.8909 33.2844 46.424 30.0107 45.64C26.7371 44.856 23.5579 42.1905 23.668 38.8507C21.8581 38.8193 19.8907 38.7096 18.5529 37.5179C17.0578 36.2008 16.8059 33.9586 17.0892 31.9829C17.3096 30.3836 17.8447 28.7842 18.9149 27.5769C20.0796 26.2598 21.2443 26.4166 22.708 25.8678C23.9985 25.3817 24.1087 24.4723 24.8957 23.2963C26.501 20.8973 28.9877 19.1255 31.6633 18.1063L31.6791 18.122Z" fill="white"/>
<path d="M24.4549 25.4444C24.5336 25.0838 24.6595 24.7388 24.8012 24.3939L24.7382 24.535C24.9743 24.0019 25.2576 23.4845 25.6196 23.0297L25.5252 23.1552C25.8714 22.7162 26.2806 22.3085 26.7213 21.9635C26.8315 21.8851 26.8944 21.6813 26.8944 21.5402C26.8944 21.3991 26.8315 21.2266 26.7213 21.1168C26.6111 21.0071 26.4537 20.9443 26.2964 20.9443C26.1232 20.9443 26.0131 21.0227 25.8714 21.1168C24.8484 21.9008 24.0929 22.9827 23.605 24.1587C23.4791 24.4723 23.369 24.7859 23.306 25.1152C23.2273 25.4131 23.4004 25.7737 23.7152 25.8364C24.03 25.8992 24.3605 25.7424 24.4392 25.4288L24.4549 25.4444Z" fill="#231F20"/>
<path d="M28.1222 20.3798C32.6077 17.4163 38.195 16.7421 43.436 17.4947C44.9626 17.7142 46.4735 18.0592 47.953 18.4825C48.677 18.702 48.9917 17.5574 48.2678 17.3536C42.9481 15.7856 37.0146 15.4093 31.7263 17.2909C30.2469 17.8083 28.8304 18.4982 27.5241 19.3606C26.8945 19.784 27.4769 20.8031 28.1222 20.3798Z" fill="#231F20"/>
<path d="M49.9676 17.8709L49.6685 18.8744C49.6685 18.8744 49.6371 19.0312 49.6685 19.1096C49.6685 19.188 49.7 19.2664 49.7315 19.3291C49.763 19.3918 49.8259 19.4546 49.8889 19.5016C49.9518 19.5486 50.0148 19.5957 50.0935 19.6114H50.2509C50.361 19.627 50.4555 19.6114 50.5499 19.5486L50.6758 19.4546C50.6758 19.4546 50.8017 19.2978 50.8332 19.188L51.1322 18.1845C51.1322 18.1845 51.1637 18.0277 51.1322 17.9493C51.1322 17.8709 51.1008 17.7925 51.0693 17.7298C51.0378 17.6671 50.9748 17.6043 50.9119 17.5573C50.8489 17.5103 50.786 17.4632 50.7073 17.4475H50.5499C50.4397 17.4319 50.3453 17.4475 50.2509 17.5103L50.125 17.6043C50.125 17.6043 49.999 17.7611 49.9676 17.8709Z" fill="#231F20"/>
<path d="M51.982 20.7405C52.1079 20.7092 52.2338 20.6621 52.3597 20.5994C52.4384 20.5681 52.5171 20.5367 52.58 20.4897C52.6902 20.4269 52.8004 20.3486 52.8948 20.2545C52.9578 20.2074 53.0207 20.1447 53.0837 20.082C53.1151 20.0506 53.1466 20.0193 53.1781 19.9722C53.2411 19.8938 53.304 19.8311 53.3512 19.737C53.3984 19.6743 53.4142 19.5959 53.4142 19.5175C53.4299 19.4391 53.4142 19.3607 53.4142 19.2823C53.3984 19.2039 53.367 19.1412 53.304 19.0785C53.2568 19.0158 53.2096 18.9687 53.1309 18.9217L52.9892 18.859C52.8791 18.8276 52.7846 18.8276 52.6745 18.859L52.5328 18.9217C52.4384 18.9687 52.3754 19.0471 52.3282 19.1255C52.3125 19.1569 52.281 19.1882 52.2652 19.2196L52.3597 19.0942C52.2653 19.2196 52.1551 19.3137 52.0449 19.4078L52.1708 19.3137C52.0449 19.4078 51.919 19.4862 51.7774 19.5489L51.919 19.4862C51.919 19.4862 51.7616 19.5489 51.6829 19.5646C51.6042 19.5802 51.5413 19.6116 51.4783 19.6743C51.4154 19.7214 51.3681 19.7684 51.3209 19.8468C51.2737 19.9095 51.258 19.9879 51.258 20.0663C51.2422 20.1447 51.258 20.2231 51.258 20.3015L51.3209 20.4426C51.3681 20.5367 51.4468 20.5994 51.5255 20.6465L51.6672 20.7092C51.7774 20.7405 51.8718 20.7405 51.982 20.7092V20.7405Z" fill="#231F20"/>
<path d="M53.2253 21.4775C53.5401 21.7441 53.8391 22.0263 54.1224 22.3399C54.2641 22.4967 54.4057 22.6692 54.5316 22.826C54.5788 22.873 54.5159 22.7946 54.5001 22.7946C54.5159 22.8103 54.5316 22.8417 54.5474 22.873C54.5788 22.9044 54.5946 22.9514 54.6261 22.9828C54.689 23.0769 54.752 23.171 54.8149 23.2494C55.051 23.5943 55.2556 23.9549 55.4287 24.3313C55.476 24.4253 55.5232 24.5194 55.5546 24.6135C55.5704 24.6605 55.6019 24.7076 55.6176 24.7546C55.6176 24.7546 55.5704 24.6605 55.6019 24.7233C55.6019 24.7546 55.6333 24.786 55.6491 24.833C55.7278 25.0212 55.7907 25.225 55.8537 25.4132C55.9953 25.8679 56.1055 26.3226 56.1685 26.793C56.2157 27.0909 56.6091 27.2947 56.8924 27.2007C57.223 27.0909 57.3489 26.8087 57.3016 26.4794C57.0341 24.7076 56.2314 23.0455 55.0667 21.6814C54.752 21.3051 54.39 20.9758 54.028 20.6622C53.7919 20.4583 53.4299 20.4113 53.1938 20.6622C52.9892 20.8817 52.942 21.2894 53.1938 21.4932L53.2253 21.4775Z" fill="#231F20"/>
<path d="M23.9041 25.4442C21.323 24.3466 18.8835 26.1655 17.5457 28.2822C16.8217 29.4269 16.4597 30.6969 16.3653 32.0454C16.2708 33.3938 16.3338 34.7893 16.8374 36.0281C17.3411 37.2668 18.2697 38.2703 19.5602 38.6152C20.3 38.8191 20.6147 37.6744 19.875 37.4863C17.7975 36.9218 17.4827 34.413 17.5142 32.6255C17.5457 31.5123 17.7188 30.4147 18.2382 29.4269C18.6946 28.5488 19.3556 27.7021 20.1583 27.0906C21.0239 26.432 22.2516 26.0243 23.2903 26.4791C23.5893 26.6045 23.9199 26.5731 24.093 26.2752C24.2346 26.0243 24.1717 25.601 23.8884 25.4755L23.9041 25.4442Z" fill="#231F20"/>
<path d="M21.9211 39.1642C22.9441 39.227 23.9828 39.1172 24.9744 38.835C25.9659 38.5527 26.7371 38.0823 27.3195 37.2827C27.8388 36.5614 28.0749 35.6833 28.1851 34.8209C28.311 33.8645 28.2795 32.908 28.1064 31.9515C27.9175 30.901 27.5398 29.8975 27.0047 28.9724C26.627 28.3138 25.6039 28.9097 25.9817 29.5682C26.8158 30.9951 27.1778 32.6258 27.0676 34.2565C27.0204 34.9464 26.863 35.699 26.5325 36.3105C26.1705 36.9534 25.6197 37.3767 24.8957 37.6119C23.9356 37.9255 22.9283 38.0196 21.9211 37.9569C21.6063 37.9412 21.323 38.2391 21.323 38.5527C21.323 38.882 21.5906 39.1172 21.9211 39.1486V39.1642Z" fill="#231F20"/>
<path d="M57.0342 27.3102C58.1517 26.9496 59.3321 27.6551 60.1505 28.3607C60.9689 29.0663 61.7086 30.0071 62.0706 31.0577C62.7159 32.8765 62.8261 35.5578 61.0633 36.8122C60.119 37.4864 58.9071 37.7373 57.774 37.5334C57.4592 37.4707 57.1444 37.6118 57.05 37.9411C56.9713 38.2233 57.1444 38.6153 57.4592 38.6624C58.7655 38.8976 60.119 38.7251 61.2837 38.0665C62.4484 37.408 63.2353 36.3261 63.5029 35.0247C64.0695 32.4061 63.1881 29.5524 61.205 27.7335C60.0403 26.6673 58.3405 25.6481 56.7037 26.1812C55.9797 26.4164 56.2945 27.5454 57.0185 27.3102H57.0342Z" fill="#231F20"/>
<path d="M54.2799 30.0073C53.7447 31.1519 53.4614 32.4063 53.4772 33.692C53.4929 34.821 53.7133 36.0597 54.3271 37.0162C54.6419 37.5179 55.114 37.9726 55.7278 38.0981C56.0269 38.1608 56.3731 38.0197 56.4518 37.6904C56.5148 37.4082 56.3574 37.0318 56.0426 36.9691C55.9954 36.9691 55.9482 36.9534 55.9167 36.9378C55.8537 36.9221 55.8065 36.8907 55.901 36.9378C55.8537 36.9064 55.8065 36.8907 55.7593 36.8594C55.7121 36.828 55.6334 36.7653 55.7121 36.828C55.6491 36.7653 55.5704 36.7026 55.5075 36.6398C55.4917 36.6242 55.3973 36.4987 55.4288 36.5458C55.4603 36.5928 55.3816 36.4674 55.3658 36.436C55.3029 36.3576 55.2557 36.2635 55.2084 36.1695C55.177 36.1224 55.1612 36.0754 55.1455 36.0283C55.1298 35.997 55.0511 35.8245 55.0983 35.9343C55.0196 35.7304 54.9409 35.5109 54.8779 35.2914C54.815 35.0562 54.7678 34.8053 54.7205 34.5544C54.7205 34.5544 54.7048 34.4133 54.7205 34.476C54.7205 34.5231 54.7205 34.429 54.7205 34.429C54.7205 34.3663 54.7205 34.3036 54.7048 34.2408C54.7048 34.0997 54.6891 33.9743 54.6733 33.8332C54.6733 33.5509 54.6733 33.2844 54.6733 33.0021C54.6891 32.6885 54.7048 32.5788 54.7678 32.2809C54.8307 31.9829 54.8937 31.685 54.9881 31.3871C55.0825 31.0735 55.177 30.8383 55.3029 30.5874C55.4288 30.3052 55.3973 29.9446 55.0983 29.7878C54.8307 29.6467 54.4215 29.6937 54.2956 29.9916L54.2799 30.0073Z" fill="#231F20"/>
<path d="M23.4005 40.1678C23.6209 41.7671 24.5652 43.2096 25.7928 44.2288C27.1778 45.3891 28.8933 46.032 30.6718 46.3142C31.742 46.4867 32.828 46.5494 33.914 46.5494C34.6694 46.5494 34.6694 45.3735 33.914 45.3735C30.8292 45.3735 27.2565 44.809 25.3993 42.0807C24.9429 41.4065 24.6596 40.6852 24.5337 39.8699C24.4865 39.5563 24.093 39.3838 23.8097 39.4622C23.4635 39.5563 23.3533 39.8698 23.4005 40.1834V40.1678Z" fill="#231F20"/>
<path d="M47.1187 46.4867C50.6127 46.6435 54.5789 45.1852 56.2944 41.9552C56.7508 41.0771 57.0184 40.152 57.1285 39.1642C57.16 38.8506 56.8295 38.5684 56.5305 38.5684C56.1842 38.5684 55.9796 38.8349 55.9324 39.1642C55.775 40.5597 55.1297 41.9082 54.1067 42.896C52.9892 43.9779 51.4468 44.7305 49.9044 45.0755C48.9916 45.2793 48.0473 45.3264 47.103 45.295C46.7882 45.295 46.5049 45.5772 46.5049 45.8908C46.5049 46.2201 46.7724 46.471 47.103 46.4867H47.1187Z" fill="#231F20"/>
<path d="M32.3747 36.2358C33.2265 36.2358 33.9171 35.5479 33.9171 34.6992C33.9171 33.8506 33.2265 33.1626 32.3747 33.1626C31.5228 33.1626 30.8323 33.8506 30.8323 34.6992C30.8323 35.5479 31.5228 36.2358 32.3747 36.2358Z" fill="#231F20"/>
<path d="M48.381 36.189C49.2329 36.189 49.9234 35.501 49.9234 34.6523C49.9234 33.8037 49.2329 33.1157 48.381 33.1157C47.5292 33.1157 46.8386 33.8037 46.8386 34.6523C46.8386 35.501 47.5292 36.189 48.381 36.189Z" fill="#231F20"/>
<path d="M40.3898 38.4527C42.0327 38.4479 43.362 37.6226 43.359 36.6094C43.356 35.5962 42.0217 34.7788 40.3789 34.7837C38.7361 34.7885 37.4067 35.6138 37.4098 36.627C37.4128 37.6402 38.747 38.4576 40.3898 38.4527Z" fill="#231F20"/>
</svg>
