<svg width="80" height="76" viewBox="0 0 80 76" fill="none" xmlns="http://www.w3.org/2000/svg">
<path d="M51.4664 57.1373C51.4664 57.1373 51.5136 57.2157 51.5293 57.2471C51.9543 55.9456 52.1746 54.5815 51.9385 53.233C51.9228 53.0762 51.9385 52.9508 51.97 52.8253C51.8284 52.057 51.7024 51.273 51.5608 50.5047C51.1673 49.0622 50.6165 47.651 50.0656 46.3966C49.8295 45.8635 49.5148 44.7816 49.0269 44.4523C47.3113 41.8808 44.4312 40.109 41.3621 39.7641C38.1829 39.4034 34.8777 40.5637 32.6271 42.8216C28.6924 46.7573 25.6548 60.4928 34.7676 60.0224L35.4129 59.3325C35.7276 59.8185 36.1841 60.1635 36.9553 60.2733C39.6938 60.6339 40.3391 58.9405 40.4807 56.9178C40.6381 58.9405 41.2991 60.6339 44.0377 60.2576C46.8234 59.8656 50.1286 59.6461 51.4664 57.1687V57.1373Z" fill="white"/>
<path d="M34.3736 54.627C34.3736 55.6149 34.2476 56.6027 34.3106 57.5905C34.3736 58.6567 34.6726 59.7386 35.6012 60.3815C36.1206 60.7421 36.7658 60.8519 37.3954 60.8833C38.0249 60.9146 38.6073 60.8362 39.1581 60.5853C40.0867 60.1777 40.6218 59.2839 40.8579 58.3431C41.1412 57.1985 41.1097 55.9755 41.1097 54.8152C41.1097 54.5016 40.8422 54.2194 40.5117 54.2194C40.1811 54.2194 39.9136 54.4702 39.9136 54.8152C39.9136 55.3169 39.9136 55.803 39.9136 56.3048C39.9136 56.5556 39.8978 56.7908 39.8664 57.0417C39.8664 57.1515 39.8506 57.2612 39.8349 57.3867C39.8349 57.418 39.8349 57.4494 39.8349 57.4807C39.8506 57.2926 39.8349 57.4023 39.8349 57.4494C39.8349 57.5121 39.8192 57.5748 39.8034 57.6219C39.7719 57.8414 39.7247 58.0609 39.646 58.2647C39.6146 58.3588 39.5831 58.4529 39.5516 58.547C39.5516 58.5783 39.5359 58.594 39.5201 58.6254C39.5673 58.4686 39.5673 58.5313 39.5359 58.5783C39.5044 58.6254 39.4886 58.6724 39.4729 58.7195C39.4257 58.7979 39.3785 58.8919 39.3313 58.9703C39.2998 59.0174 39.2683 59.0487 39.2368 59.0958C39.2998 58.9703 39.3155 59.0017 39.284 59.0331C39.2683 59.0644 39.2368 59.0801 39.2211 59.1115C39.1581 59.1742 39.0952 59.2526 39.0165 59.3153C39.0007 59.331 38.9693 59.3466 38.9535 59.3623C38.8748 59.425 39.0794 59.2682 38.985 59.331C38.9378 59.3623 38.9063 59.3937 38.8591 59.425C38.7804 59.4721 38.686 59.5191 38.6073 59.5662C38.5128 59.6132 38.7489 59.5191 38.6387 59.5505C38.6073 59.5505 38.5915 59.5662 38.5601 59.5818C38.5128 59.5975 38.4499 59.6132 38.3869 59.6289C38.2768 59.6602 38.1666 59.6759 38.0564 59.7073C38.0092 59.7073 37.9148 59.7073 38.0879 59.7073C38.0564 59.7073 38.0249 59.7073 38.0092 59.7073C37.9305 59.7073 37.8676 59.7073 37.7889 59.7073C37.6472 59.7073 37.5213 59.7073 37.3797 59.7073C37.301 59.7073 37.238 59.7073 37.1593 59.6916C37.1278 59.6916 37.0964 59.6916 37.0491 59.6916C37.0177 59.6916 36.9862 59.6916 36.9704 59.6916C37.0649 59.6916 37.0806 59.6916 37.0177 59.6916C36.8918 59.6759 36.7816 59.6446 36.6557 59.6132C36.6085 59.6132 36.5612 59.5818 36.514 59.5662C36.4668 59.5662 36.3724 59.5034 36.5455 59.5662C36.514 59.5505 36.4668 59.5348 36.4353 59.5191C36.3409 59.4721 36.2622 59.4094 36.1678 59.3623C36.0733 59.3153 36.2779 59.4564 36.1992 59.3937C36.1992 59.3937 36.1678 59.378 36.152 59.3623C36.1048 59.3153 36.0576 59.2839 36.0104 59.2369C35.9789 59.2055 35.9474 59.1742 35.9159 59.1428C35.8373 59.0644 35.9946 59.2682 35.9474 59.1742C35.9474 59.1585 35.9159 59.1271 35.9002 59.1115C35.8373 59.0174 35.79 58.9233 35.7428 58.8292C35.7428 58.8135 35.7271 58.7822 35.7113 58.7665C35.6799 58.7195 35.7113 58.6724 35.7271 58.8135C35.7271 58.7665 35.6799 58.7038 35.6641 58.6567C35.6327 58.547 35.6012 58.4372 35.5697 58.3275C35.5382 58.2177 35.5225 58.1236 35.5067 58.0139C35.5067 57.9668 35.4753 57.7787 35.5067 57.9982C35.5067 57.9355 35.491 57.8571 35.491 57.7943C35.3966 56.7438 35.5382 55.6932 35.5382 54.6427C35.5382 54.3291 35.2707 54.0469 34.9401 54.0469C34.6096 54.0469 34.3421 54.2977 34.3421 54.6427L34.3736 54.627Z" fill="#231F20"/>
<path d="M49.7034 44.373C47.6259 41.1116 43.8801 39.0105 39.9769 39.1046C36.593 39.183 33.162 40.8137 31.2104 43.6204C29.8883 45.5176 29.0542 47.8069 28.582 50.0491C28.1099 52.2913 27.9367 54.8001 28.7866 56.9639C29.2116 58.0615 29.8883 59.0336 30.8799 59.6922C32.0131 60.4448 33.4295 60.6643 34.7673 60.6016C35.5228 60.5702 35.5228 59.3943 34.7673 59.4256C32.7843 59.5197 30.99 58.8611 30.0772 57.0266C29.1643 55.1921 29.2588 53.0439 29.5736 51.131C29.9198 49.0142 30.6123 46.9288 31.6825 45.0629C33.099 42.6326 35.5228 41.0175 38.2928 40.4687C42.3062 39.6691 46.5084 41.5506 48.6804 44.9688C49.0896 45.6117 50.1126 45.0159 49.7034 44.373Z" fill="#231F20"/>
<path d="M45.3749 54.5803C45.3749 55.5211 45.5008 56.4462 45.4693 57.3869C45.4693 57.4967 45.4693 57.6065 45.4536 57.7319C45.4536 57.7946 45.4536 57.8417 45.4378 57.9044C45.4378 57.9357 45.4378 57.9514 45.4378 57.9828C45.4378 57.9201 45.4536 57.7789 45.4378 57.9828C45.4064 58.2023 45.3591 58.4218 45.2805 58.6257C45.2805 58.6727 45.249 58.7041 45.2332 58.7511C45.2018 58.8609 45.2962 58.61 45.249 58.7041C45.249 58.7354 45.2332 58.7511 45.2175 58.7825C45.1703 58.8765 45.1231 58.9706 45.0601 59.0647C45.0601 59.0804 45.0286 59.096 45.0286 59.1117C44.9972 59.1588 44.9657 59.1431 45.0601 59.0647C45.0286 59.096 44.9972 59.1431 44.9499 59.1901C44.9185 59.2215 44.887 59.2528 44.8555 59.2842C44.8398 59.2999 44.8083 59.3156 44.7925 59.3312C44.6824 59.4253 44.887 59.2685 44.7925 59.3312C44.6981 59.394 44.6194 59.441 44.525 59.488C44.4778 59.5194 44.3204 59.5664 44.5093 59.488C44.4463 59.5037 44.3676 59.5351 44.3046 59.5664C44.1787 59.5978 44.0686 59.6292 43.9427 59.6448H43.8797H43.9584C43.9584 59.6448 43.8954 59.6448 43.8797 59.6448C43.7853 59.6448 43.7066 59.6605 43.6121 59.6605C43.4862 59.6605 43.3446 59.6605 43.2187 59.6605C43.1557 59.6605 43.077 59.6605 43.0141 59.6605C42.9511 59.6605 42.7465 59.6135 42.9354 59.6605C42.8252 59.6292 42.715 59.6292 42.6049 59.5978C42.5419 59.5978 42.4947 59.5664 42.4317 59.5508C42.4003 59.5508 42.3845 59.5351 42.353 59.5194C42.2901 59.488 42.2744 59.4567 42.3845 59.5351C42.3058 59.4724 42.1957 59.441 42.117 59.394C42.0697 59.3626 42.0225 59.3312 41.9911 59.2999C41.8966 59.2372 41.9753 59.2999 41.9911 59.2999C42.0855 59.3626 41.9911 59.2999 41.9753 59.2842C41.8966 59.2215 41.8337 59.1588 41.7707 59.096C41.7392 59.0647 41.7078 59.0176 41.6763 58.9863C41.8179 59.1274 41.7078 59.0176 41.6763 58.9549C41.6291 58.8765 41.5661 58.7981 41.5346 58.7041C41.5032 58.657 41.4874 58.61 41.4559 58.5629C41.4559 58.5473 41.4559 58.5316 41.4402 58.5159C41.393 58.4218 41.5032 58.6727 41.4402 58.5316C41.3615 58.3277 41.2985 58.1239 41.2513 57.9201C41.2199 57.7946 41.2041 57.6692 41.1726 57.5437C41.1726 57.481 41.1569 57.4183 41.1412 57.3713C41.1412 57.3242 41.1254 57.2145 41.1412 57.4026C41.1412 57.3713 41.1412 57.3242 41.1412 57.2929C41.1097 57.0263 41.0939 56.7598 41.0782 56.4932C41.0467 55.9287 41.0467 55.3643 41.0467 54.7998C41.0467 54.4862 40.7792 54.2039 40.4487 54.2039C40.1181 54.2039 39.8506 54.4548 39.8506 54.7998C39.8506 55.866 39.8506 56.9479 40.0395 57.9985C40.2283 58.9549 40.669 59.9114 41.5504 60.4288C42.0383 60.7111 42.6206 60.8365 43.1715 60.8522C43.8167 60.8679 44.4935 60.7895 45.0758 60.5072C46.1146 60.0212 46.5081 58.9236 46.6182 57.873C46.7284 56.8225 46.571 55.6779 46.571 54.5646C46.571 54.251 46.3035 53.9688 45.973 53.9688C45.6424 53.9688 45.3749 54.2196 45.3749 54.5646V54.5803Z" fill="#231F20"/>
<path d="M48.6647 44.8905C48.885 45.0159 49.0109 45.3452 49.1211 45.5804C49.2627 45.894 49.3729 46.239 49.5146 46.5526C49.7192 47.0386 49.9238 47.5247 50.1284 48.0421C50.5533 49.1711 50.9311 50.3471 51.1829 51.5231C51.6078 53.4674 51.8596 55.9448 50.632 57.5284C49.8608 58.5162 48.6332 58.9239 47.3898 59.0337C46.6344 59.0964 46.6344 60.2724 47.3898 60.2097C48.7591 60.0842 50.1126 59.7079 51.1199 58.7358C51.9698 57.9204 52.4262 56.8072 52.5836 55.6625C52.9613 53.091 52.2374 50.3941 51.356 47.9951C51.1199 47.3522 50.8524 46.725 50.6005 46.1135C50.2858 45.3452 50.0497 44.3417 49.2785 43.887C48.6175 43.495 48.0351 44.5142 48.6804 44.9062L48.6647 44.8905Z" fill="#231F20"/>
<path d="M32.0443 18.0165C35.8373 16.5896 40.0238 16.5583 44.0372 17.06C46.5239 17.3736 49.0264 17.8911 51.1983 19.0984C54.0785 20.7134 56.2347 23.5515 57.0217 26.7502C59.9648 26.9854 62.8135 29.1335 63.2699 32.0343C63.7893 35.2329 62.0423 37.9612 58.6113 37.9299C56.6439 37.9142 57.1476 40.3445 56.2347 41.5362C54.5349 43.7471 51.8751 45.3307 49.1523 45.8482C46.2878 46.3969 43.3447 45.8952 40.433 45.8482C37.0649 45.7854 33.6496 46.3186 30.376 45.5346C27.1023 44.7506 23.9231 42.085 24.0333 38.7452C22.2233 38.7138 20.256 38.6041 18.9182 37.4124C17.423 36.0953 17.1712 33.8531 17.4545 31.8775C17.6748 30.2781 18.2099 28.6788 19.2802 27.4714C20.4448 26.1543 21.6095 26.3111 23.0732 25.7623C24.3638 25.2763 24.4739 24.3668 25.2609 23.1908C26.8662 20.7918 29.353 19.02 32.0285 18.0008L32.0443 18.0165Z" fill="white"/>
<path d="M24.8202 25.338C24.8989 24.9774 25.0248 24.6324 25.1664 24.2874L25.1035 24.4286C25.3395 23.8955 25.6228 23.378 25.9848 22.9233L25.8904 23.0487C26.2366 22.6097 26.6459 22.202 27.0865 21.8571C27.1967 21.7787 27.2597 21.5748 27.2597 21.4337C27.2597 21.2926 27.1967 21.1201 27.0865 21.0104C26.9764 20.9006 26.819 20.8379 26.6616 20.8379C26.4885 20.8379 26.3783 20.9163 26.2366 21.0104C25.2136 21.7944 24.4582 22.8763 23.9703 24.0523C23.8444 24.3658 23.7342 24.6794 23.6712 25.0087C23.5925 25.3066 23.7657 25.6673 24.0804 25.73C24.3952 25.7927 24.7257 25.6359 24.8044 25.3223L24.8202 25.338Z" fill="#231F20"/>
<path d="M28.4867 20.2743C32.9722 17.3108 38.5595 16.6366 43.8005 17.3892C45.3271 17.6088 46.838 17.9537 48.3175 18.3771C49.0415 18.5966 49.3562 17.452 48.6323 17.2481C43.3126 15.6801 37.3791 15.3038 32.0908 17.1854C30.6114 17.7028 29.1949 18.3927 27.8886 19.2551C27.2591 19.6785 27.8414 20.6977 28.4867 20.2743Z" fill="#231F20"/>
<path d="M50.3326 17.7649L50.0335 18.7685C50.0335 18.7685 50.002 18.9253 50.0335 19.0037C50.0335 19.0821 50.065 19.1604 50.0965 19.2232C50.128 19.2859 50.1909 19.3486 50.2539 19.3956C50.3168 19.4427 50.3798 19.4897 50.4585 19.5054H50.6159C50.726 19.5211 50.8205 19.5054 50.9149 19.4427L51.0408 19.3486C51.0408 19.3486 51.1667 19.1918 51.1982 19.0821L51.4972 18.0785C51.4972 18.0785 51.5287 17.9217 51.4972 17.8433C51.4972 17.7649 51.4657 17.6865 51.4343 17.6238C51.4028 17.5611 51.3398 17.4984 51.2769 17.4514C51.2139 17.4043 51.151 17.3573 51.0723 17.3416H50.9149C50.8047 17.3259 50.7103 17.3416 50.6159 17.4043L50.4899 17.4984C50.4899 17.4984 50.364 17.6552 50.3326 17.7649Z" fill="#231F20"/>
<path d="M52.3472 20.6356C52.4731 20.6042 52.599 20.5572 52.7249 20.4944C52.8036 20.4631 52.8823 20.4317 52.9453 20.3847C53.0554 20.322 53.1656 20.2436 53.26 20.1495C53.323 20.1025 53.3859 20.0397 53.4489 19.977C53.4804 19.9457 53.5119 19.9143 53.5433 19.8673C53.6063 19.7889 53.6692 19.7261 53.7165 19.6321C53.7637 19.5693 53.7794 19.4909 53.7794 19.4125C53.7952 19.3341 53.7794 19.2557 53.7794 19.1773C53.7637 19.0989 53.7322 19.0362 53.6692 18.9735C53.622 18.9108 53.5748 18.8637 53.4961 18.8167L53.3545 18.754C53.2443 18.7226 53.1499 18.7226 53.0397 18.754L52.898 18.8167C52.8036 18.8637 52.7407 18.9421 52.6934 19.0205C52.6777 19.0519 52.6462 19.0833 52.6305 19.1146L52.7249 18.9892C52.6305 19.1146 52.5203 19.2087 52.4101 19.3028L52.5361 19.2087C52.4101 19.3028 52.2842 19.3812 52.1426 19.4439L52.2842 19.3812C52.2842 19.3812 52.1268 19.4439 52.0482 19.4596C51.9695 19.4753 51.9065 19.5066 51.8435 19.5693C51.7806 19.6164 51.7334 19.6634 51.6862 19.7418C51.6389 19.8045 51.6232 19.8829 51.6232 19.9613C51.6075 20.0397 51.6232 20.1181 51.6232 20.1965L51.6862 20.3376C51.7334 20.4317 51.8121 20.4944 51.8908 20.5415L52.0324 20.6042C52.1426 20.6356 52.237 20.6356 52.3472 20.6042V20.6356Z" fill="#231F20"/>
<path d="M53.5908 21.3711C53.9056 21.6376 54.2046 21.9199 54.4879 22.2335C54.6295 22.3903 54.7712 22.5628 54.8971 22.7196C54.9443 22.7666 54.8814 22.6882 54.8656 22.6882C54.8814 22.7039 54.8971 22.7352 54.9128 22.7666C54.9443 22.798 54.9601 22.845 54.9915 22.8763C55.0545 22.9704 55.1174 23.0645 55.1804 23.1429C55.4165 23.4879 55.6211 23.8485 55.7942 24.2248C55.8414 24.3189 55.8886 24.413 55.9201 24.507C55.9359 24.5541 55.9673 24.6011 55.9831 24.6482C55.9831 24.6482 55.9359 24.5541 55.9673 24.6168C55.9673 24.6482 55.9988 24.6795 56.0146 24.7266C56.0932 24.9147 56.1562 25.1186 56.2192 25.3067C56.3608 25.7614 56.471 26.2161 56.5339 26.6865C56.5811 26.9845 56.9746 27.1883 57.2579 27.0942C57.5884 26.9845 57.7143 26.7022 57.6671 26.3729C57.3996 24.6011 56.5969 22.9391 55.4322 21.5749C55.1174 21.1986 54.7555 20.8693 54.3935 20.5557C54.1574 20.3519 53.7954 20.3049 53.5593 20.5557C53.3547 20.7753 53.3075 21.1829 53.5593 21.3868L53.5908 21.3711Z" fill="#231F20"/>
<path d="M24.2691 25.3397C21.688 24.2421 19.2485 26.061 17.9107 28.1777C17.1867 29.3224 16.8247 30.5924 16.7303 31.9409C16.6358 33.2894 16.6988 34.6849 17.2024 35.9236C17.7061 37.1623 18.6346 38.1658 19.9252 38.5107C20.6649 38.7146 20.9797 37.5699 20.24 37.3818C18.1625 36.8173 17.8477 34.3085 17.8792 32.521C17.9107 31.4078 18.0838 30.3102 18.6032 29.3224C19.0596 28.4443 19.7206 27.5976 20.5233 26.9861C21.3889 26.3275 22.6165 25.9198 23.6553 26.3746C23.9543 26.5 24.2849 26.4686 24.458 26.1707C24.5996 25.9198 24.5367 25.4965 24.2534 25.3711L24.2691 25.3397Z" fill="#231F20"/>
<path d="M22.2856 39.0583C23.3086 39.121 24.3473 39.0112 25.3389 38.729C26.3304 38.4468 27.1016 37.9764 27.684 37.1767C28.2033 36.4554 28.4394 35.5774 28.5496 34.715C28.6755 33.7585 28.644 32.802 28.4709 31.8456C28.282 30.795 27.9043 29.7915 27.3692 28.8664C26.9915 28.2079 25.9684 28.8037 26.3462 29.4622C27.1803 30.8891 27.5423 32.5198 27.4321 34.1505C27.3849 34.8404 27.2275 35.593 26.897 36.2046C26.535 36.8474 25.9842 37.2708 25.2602 37.506C24.3001 37.8196 23.2929 37.9137 22.2856 37.8509C21.9708 37.8353 21.6875 38.1332 21.6875 38.4468C21.6875 38.776 21.9551 39.0112 22.2856 39.0426V39.0583Z" fill="#231F20"/>
<path d="M57.3992 27.2047C58.5167 26.8441 59.6971 27.5497 60.5155 28.2553C61.3339 28.9609 62.0736 29.9016 62.4356 30.9522C63.0809 32.7711 63.1911 35.4523 61.4283 36.7067C60.484 37.3809 59.2721 37.6318 58.1389 37.428C57.8242 37.3652 57.5094 37.5064 57.415 37.8356C57.3363 38.1179 57.5094 38.5099 57.8242 38.5569C59.1305 38.7921 60.484 38.6196 61.6487 37.9611C62.8133 37.3025 63.6003 36.2206 63.8678 34.9192C64.4344 32.3007 63.5531 29.4469 61.57 27.6281C60.4053 26.5619 58.7055 25.5427 57.0687 26.0758C56.3447 26.311 56.6595 27.4399 57.3835 27.2047H57.3992Z" fill="#231F20"/>
<path d="M54.6451 29.9013C54.11 31.046 53.8267 32.3003 53.8424 33.5861C53.8582 34.715 54.0785 35.9537 54.6923 36.9102C55.0071 37.412 55.4792 37.8667 56.0931 37.9921C56.3921 38.0548 56.7383 37.9137 56.817 37.5844C56.88 37.3022 56.7226 36.9259 56.4078 36.8632C56.3606 36.8632 56.3134 36.8475 56.2819 36.8318C56.219 36.8161 56.1718 36.7848 56.2662 36.8318C56.219 36.8004 56.1718 36.7848 56.1245 36.7534C56.0773 36.722 55.9986 36.6593 56.0773 36.722C56.0144 36.6593 55.9357 36.5966 55.8727 36.5339C55.857 36.5182 55.7625 36.3928 55.794 36.4398C55.8255 36.4868 55.7468 36.3614 55.7311 36.3301C55.6681 36.2517 55.6209 36.1576 55.5737 36.0635C55.5422 36.0165 55.5265 35.9694 55.5107 35.9224C55.495 35.891 55.4163 35.7185 55.4635 35.8283C55.3848 35.6245 55.3061 35.4049 55.2432 35.1854C55.1802 34.9502 55.133 34.6994 55.0858 34.4485C55.0858 34.4485 55.07 34.3074 55.0858 34.3701C55.0858 34.4171 55.0858 34.323 55.0858 34.323C55.0858 34.2603 55.0858 34.1976 55.07 34.1349C55.07 33.9938 55.0543 33.8683 55.0386 33.7272C55.0386 33.445 55.0386 33.1784 55.0386 32.8962C55.0543 32.5826 55.07 32.4728 55.133 32.1749C55.1959 31.877 55.2589 31.5791 55.3533 31.2812C55.4478 30.9676 55.5422 30.7324 55.6681 30.4815C55.794 30.1993 55.7625 29.8386 55.4635 29.6818C55.196 29.5407 54.7867 29.5877 54.6608 29.8857L54.6451 29.9013Z" fill="#231F20"/>
<path d="M23.7653 40.0623C23.9856 41.6616 24.9299 43.1042 26.1575 44.1234C27.5426 45.2837 29.2581 45.9265 31.0366 46.2088C32.1068 46.3813 33.1928 46.444 34.2787 46.444C35.0342 46.444 35.0342 45.268 34.2787 45.268C31.1939 45.268 27.6212 44.7035 25.7641 41.9752C25.3077 41.301 25.0244 40.5797 24.8984 39.7644C24.8512 39.4508 24.4578 39.2783 24.1745 39.3567C23.8282 39.4508 23.718 39.7644 23.7653 40.078V40.0623Z" fill="#231F20"/>
<path d="M47.4839 46.3812C50.9779 46.538 54.9441 45.0798 56.6596 41.8497C57.116 40.9717 57.3836 40.0465 57.4938 39.0587C57.5252 38.7451 57.1947 38.4629 56.8957 38.4629C56.5494 38.4629 56.3448 38.7294 56.2976 39.0587C56.1402 40.4542 55.4949 41.8027 54.4719 42.7905C53.3545 43.8724 51.8121 44.6251 50.2697 44.97C49.3568 45.1738 48.4125 45.2209 47.4682 45.1895C47.1534 45.1895 46.8701 45.4718 46.8701 45.7854C46.8701 46.1146 47.1377 46.3655 47.4682 46.3812H47.4839Z" fill="#231F20"/>
<path d="M32.3744 36.2354C33.2263 36.2354 33.9168 35.5474 33.9168 34.6987C33.9168 33.8501 33.2263 33.1621 32.3744 33.1621C31.5226 33.1621 30.832 33.8501 30.832 34.6987C30.832 35.5474 31.5226 36.2354 32.3744 36.2354Z" fill="#231F20"/>
<path d="M48.3803 36.1885C49.2321 36.1885 49.9227 35.5005 49.9227 34.6519C49.9227 33.8032 49.2321 33.1152 48.3803 33.1152C47.5284 33.1152 46.8379 33.8032 46.8379 34.6519C46.8379 35.5005 47.5284 36.1885 48.3803 36.1885Z" fill="#231F20"/>
<path d="M40.3898 38.4532C42.0327 38.4484 43.362 37.6231 43.359 36.6099C43.356 35.5967 42.0217 34.7793 40.3789 34.7842C38.7361 34.789 37.4067 35.6143 37.4098 36.6275C37.4128 37.6407 38.747 38.4581 40.3898 38.4532Z" fill="#231F20"/>
</svg>
