<svg width="80" height="76" viewBox="0 0 80 76" fill="none" xmlns="http://www.w3.org/2000/svg">
<path d="M49.5259 57.2861C49.5259 57.2861 49.5416 57.3174 49.5574 57.3488C49.699 57.0509 49.8407 56.753 49.9823 56.4394C50.2026 54.9811 50.0453 53.3818 49.8721 51.8295C49.5574 49.9793 48.9593 48.1447 48.3612 46.5297C48.1566 45.9966 47.8891 44.9147 47.4641 44.5698C45.9847 41.9983 43.5137 40.2108 40.8538 39.8658C38.1153 39.5052 35.2508 40.6498 33.2992 42.892C29.8997 46.812 27.2241 60.5475 35.0935 60.0928L35.6601 59.4028C35.9276 59.8889 36.3211 60.2339 36.9821 60.3436C39.3429 60.7199 39.9095 59.0265 40.0354 56.9882C40.1613 59.0109 40.7279 60.7043 43.0887 60.3436C45.4968 59.9673 48.3455 59.7478 49.5101 57.2704L49.5259 57.2861Z" fill="white"/>
<path d="M46.4724 54.9498C47.5584 55.624 48.6443 56.3139 49.6831 57.0665C49.7775 56.8627 49.8877 56.6589 49.9821 56.4393C50.2025 54.9811 50.0451 53.3818 49.8719 51.8295C49.5572 49.9793 48.9591 48.1447 48.361 46.5297C48.1564 45.9966 47.8889 44.9147 47.4639 44.5697C47.3223 44.3345 47.1806 44.115 47.0232 43.8955C45.5438 46.8903 43.7496 50.3399 45.1818 53.5386C45.591 54.0403 46.016 54.4951 46.4881 54.9341L46.4724 54.9498Z" fill="#F39B4A"/>
<path d="M35.2823 51.7352C34.7629 49.1166 33.4251 46.8588 32.2447 44.5225C30.5134 47.7211 29.3488 53.0993 30.3875 56.6273C32.5752 56.4391 35.8331 54.5105 35.2823 51.7352Z" fill="#F39B4A"/>
<path d="M34.7158 54.7306C34.7158 55.7184 34.6057 56.6906 34.6529 57.6784C34.7001 58.6662 34.889 59.7481 35.6602 60.391C36.1323 60.783 36.6674 60.9398 37.2655 60.9868C37.8164 61.0339 38.383 60.9712 38.8866 60.736C39.768 60.3283 40.2401 59.4032 40.4447 58.5094C40.7123 57.3491 40.6808 56.1261 40.6808 54.9344C40.6808 54.6208 40.4133 54.3386 40.0827 54.3386C39.7522 54.3386 39.4847 54.5895 39.4847 54.9344C39.4847 55.4362 39.4847 55.9379 39.4847 56.4397C39.4847 56.6906 39.4689 56.9414 39.4532 57.1766C39.4532 57.2864 39.4375 57.4118 39.4217 57.5216C39.4217 57.5686 39.4217 57.6314 39.406 57.6784C39.406 57.8038 39.4217 57.553 39.406 57.6314C39.406 57.6627 39.406 57.7098 39.3902 57.7411C39.3588 57.9606 39.3115 58.1645 39.2643 58.384C39.2328 58.4937 39.2014 58.5878 39.1699 58.6976C39.1542 58.7446 39.1384 58.7917 39.1227 58.8387C39.1227 58.8387 39.1069 58.8701 39.1069 58.8857C39.1384 58.823 39.1384 58.7133 39.1069 58.8857C39.0755 58.9641 39.0282 59.0425 38.981 59.1209C38.9653 59.1523 38.9338 59.1993 38.9181 59.2307C38.9181 59.2464 38.8866 59.2777 38.8709 59.2934C38.8394 59.3405 38.7764 59.3561 38.9023 59.2621C38.8394 59.3248 38.7922 59.3875 38.7292 59.4502C38.6977 59.4816 38.6663 59.5129 38.619 59.5443C38.5718 59.5757 38.5403 59.5757 38.6663 59.5129C38.6348 59.5129 38.619 59.5443 38.5876 59.56C38.5089 59.607 38.4302 59.6541 38.3515 59.7011C38.4774 59.6541 38.2256 59.7638 38.3515 59.7011C38.3043 59.7168 38.2413 59.7325 38.1941 59.7481C38.0997 59.7795 38.0052 59.7952 37.9108 59.8109C37.8006 59.8265 38.0682 59.8109 37.9423 59.8109C37.9265 59.8109 37.8951 59.8109 37.8793 59.8109C37.8164 59.8109 37.7534 59.8109 37.6747 59.8109C37.5488 59.8109 37.4229 59.8109 37.297 59.8109C37.2655 59.8109 37.234 59.8109 37.2026 59.8109C37.3442 59.8265 37.0609 59.8109 37.2026 59.8109C37.1396 59.8109 37.0766 59.7952 36.9979 59.7795C36.9035 59.7638 36.8091 59.7325 36.7146 59.6854C36.6202 59.6541 36.8248 59.7481 36.7619 59.7011C36.7461 59.7011 36.7146 59.6854 36.6989 59.6697C36.6517 59.6384 36.6045 59.6227 36.5573 59.5913C36.5258 59.5757 36.4786 59.5286 36.4471 59.5129C36.573 59.56 36.5415 59.5913 36.4786 59.5443C36.4786 59.5443 36.4471 59.5286 36.4314 59.5129C36.3999 59.4816 36.3684 59.4502 36.3212 59.4032C36.3212 59.3875 36.2897 59.3718 36.274 59.3561C36.1795 59.2621 36.3212 59.4189 36.2897 59.3875C36.2425 59.3091 36.1795 59.2307 36.1323 59.1523C36.1166 59.1053 36.0851 59.0739 36.0694 59.0269C36.0694 59.0112 36.0536 58.9798 36.0379 58.9641C36.0221 58.9328 36.1008 59.1209 36.0379 58.9955C35.9592 58.8073 35.912 58.6035 35.8648 58.3997C35.8648 58.3526 35.849 58.3056 35.8333 58.2429C35.8333 58.2115 35.8333 58.1802 35.8333 58.1488C35.8175 58.039 35.8333 58.2742 35.8333 58.1958C35.8333 58.0704 35.8018 57.945 35.8018 57.8352C35.7231 56.8003 35.849 55.7655 35.849 54.7306C35.849 54.417 35.5815 54.1348 35.2509 54.1348C34.9204 54.1348 34.6686 54.3856 34.6529 54.7306H34.7158Z" fill="#231F20"/>
<path d="M48.1094 44.5228C46.3939 41.3869 43.073 39.0192 39.3744 39.2387C36.2581 39.4269 33.3937 41.2771 31.8513 43.974C30.7338 45.9497 30.0413 48.1919 29.6636 50.4184C29.2859 52.645 29.1442 55.044 29.9154 57.1921C30.2932 58.2426 30.8755 59.1834 31.7883 59.842C32.7484 60.5319 33.9445 60.7671 35.0935 60.7044C35.8489 60.673 35.8489 59.497 35.0935 59.5284C33.2993 59.6225 31.867 58.8385 31.1588 57.1764C30.4033 55.3889 30.4505 53.2878 30.6866 51.4062C30.9542 49.3679 31.505 47.2981 32.4021 45.4479C33.5039 43.143 35.361 41.3398 37.9107 40.6656C41.6723 39.6621 45.2922 41.8729 47.0706 45.1343C47.4326 45.7929 48.4557 45.2127 48.0937 44.5385L48.1094 44.5228Z" fill="#231F20"/>
<path d="M44.2061 54.7302C44.2061 55.6553 44.3005 56.5804 44.269 57.5055C44.269 57.7251 44.2376 57.9603 44.2218 58.1798C44.2218 58.3052 44.2376 58.023 44.2218 58.1484C44.2218 58.1798 44.2218 58.1955 44.2218 58.2268C44.2218 58.2895 44.2061 58.3366 44.1904 58.3993C44.1746 58.509 44.1431 58.6188 44.1117 58.7129C44.0802 58.807 44.0487 58.901 44.0172 58.9794C44.0802 58.854 43.97 59.1206 44.0172 58.9794C43.9858 59.0265 43.97 59.0735 43.9385 59.1206C43.8913 59.199 43.8441 59.2774 43.7969 59.3401C43.7339 59.4342 43.8913 59.2303 43.8284 59.3087C43.8284 59.3244 43.7969 59.3401 43.7811 59.3558C43.7497 59.4028 43.7025 59.4342 43.671 59.4655C43.6552 59.4655 43.6395 59.4969 43.6238 59.5126C43.5765 59.5596 43.5293 59.5439 43.6552 59.4812C43.6238 59.4969 43.5765 59.5282 43.5451 59.5596C43.5136 59.591 43.4664 59.6066 43.4192 59.6223C43.4034 59.6223 43.3719 59.638 43.3562 59.6537C43.246 59.7164 43.4821 59.6066 43.3719 59.6537C43.2775 59.685 43.1831 59.7164 43.0886 59.7478C43.0414 59.7478 42.9785 59.7634 42.9313 59.7791H42.884C42.884 59.7791 42.8368 59.7791 42.9313 59.7791C42.9155 59.7791 42.8526 59.7791 42.8211 59.7791C42.6952 59.7791 42.5693 59.7948 42.4434 59.7948C42.3804 59.7948 42.3174 59.7948 42.2545 59.7948C42.2387 59.7948 42.2073 59.7948 42.1915 59.7948C42.3017 59.8105 42.0341 59.7948 42.1915 59.7948C42.0971 59.7791 42.0027 59.7634 41.9082 59.7321C41.861 59.7321 41.8138 59.7007 41.7823 59.685C41.7666 59.685 41.7351 59.6537 41.7036 59.6537C41.7508 59.6537 41.8453 59.7164 41.7508 59.6537C41.6722 59.6066 41.5935 59.5753 41.5305 59.5282C41.5148 59.5282 41.4833 59.4969 41.4676 59.4812C41.3889 59.4185 41.562 59.5596 41.5148 59.5126C41.4833 59.4812 41.4361 59.4498 41.4046 59.4185C41.3416 59.3558 41.2944 59.2774 41.2157 59.2146C41.3102 59.3087 41.2944 59.3087 41.2629 59.2774C41.2629 59.2617 41.2315 59.2303 41.2157 59.2146C41.1843 59.1676 41.1528 59.1206 41.137 59.0735C41.0898 58.9951 41.0426 58.9167 41.0111 58.8383C41.0111 58.8226 40.9954 58.7756 40.9797 58.7599C40.9797 58.7599 41.0426 58.901 41.0111 58.8226C40.9954 58.7756 40.9639 58.7129 40.9482 58.6658C40.8695 58.462 40.8223 58.2425 40.775 58.023C40.7436 57.8975 40.7278 57.7721 40.7121 57.6467C40.7121 57.631 40.7121 57.5996 40.7121 57.5839C40.7436 57.7878 40.7121 57.6153 40.7121 57.5839C40.7121 57.5212 40.7121 57.4585 40.6964 57.3801C40.6649 57.1135 40.6491 56.8313 40.6491 56.5648C40.6334 56.0003 40.6334 55.4358 40.6334 54.887C40.6334 54.5734 40.3658 54.2912 40.0353 54.2912C39.7048 54.2912 39.453 54.5421 39.4373 54.887C39.4373 55.9689 39.4373 57.0508 39.6104 58.1327C39.7678 59.0735 40.1455 60.0143 40.9797 60.5631C41.4203 60.8453 41.9555 60.9551 42.4591 60.9708C43.0257 60.9708 43.6238 60.8924 44.1117 60.5945C45.0402 60.0457 45.3393 58.9794 45.4337 57.9916C45.5439 56.894 45.4022 55.7964 45.4022 54.6989C45.4022 54.3853 45.1347 54.103 44.8042 54.103C44.4737 54.103 44.2061 54.3539 44.2061 54.6989V54.7302Z" fill="#231F20"/>
<path d="M47.1022 45.0403C47.2282 45.1344 47.3541 45.4637 47.417 45.6361C47.5429 45.9654 47.6374 46.2947 47.7475 46.624C47.9364 47.1414 48.1253 47.6432 48.2826 48.1606C48.6604 49.3052 48.9752 50.4655 49.1955 51.6572C49.5575 53.6015 49.8093 56.0475 48.6761 57.741C48.0938 58.6033 47.0708 59.0737 45.9848 59.1678C45.67 59.1992 45.3867 59.4187 45.3867 59.7636C45.3867 60.0616 45.6543 60.3752 45.9848 60.3595C47.2124 60.234 48.4243 59.8264 49.2742 58.8856C50.0454 58.0232 50.4231 56.9256 50.5648 55.7967C50.911 53.2408 50.2815 50.5596 49.5103 48.1292C49.3057 47.4864 49.0696 46.8749 48.865 46.232C48.5974 45.4637 48.4086 44.5072 47.6846 44.0054C47.055 43.5664 46.4727 44.5856 47.0865 45.0246L47.1022 45.0403Z" fill="#231F20"/>
<path d="M50.6898 41.0739C51.2407 39.4275 51.6184 37.6871 51.9017 35.978C52.4683 32.6539 52.6729 28.9534 51.7601 25.6607C51.5869 25.0491 51.1935 24.0456 50.8629 22.9794C50.8315 23.0265 50.8 23.0578 50.7685 23.1205C49.4779 19.4828 46.645 16.096 42.5057 15.3434C39.1691 14.7475 35.439 15.4845 32.6375 17.3817C31.2525 18.3068 30.0878 19.5455 29.3796 21.0665C28.5769 22.7913 27.5696 24.3436 27.3021 26.3035C26.9873 28.6555 27.1447 31.3054 27.365 33.673C27.7113 37.4048 28.7028 40.9798 29.9619 44.4921C30.7488 45.5113 33.8494 46.1855 34.8566 46.311C35.5334 46.405 36.2417 46.3737 36.9184 46.3423C39.2005 46.2482 41.4827 46.1542 43.7648 46.0601C45.7951 45.9817 47.7467 45.182 49.5251 44.2412C49.9186 43.1907 50.3436 42.1245 50.7056 41.0582L50.6898 41.0739Z" fill="#F39B4A"/>
<path d="M28.3094 30.6153C28.1048 28.1223 28.1993 25.9741 28.64 23.5438C28.6872 23.2929 28.6714 23.0734 28.4668 22.9009C25.9486 23.5751 24.8941 25.9114 24.1229 28.2634C22.612 32.8262 21.1011 37.389 19.6059 41.9518C18.9606 43.8961 17.9534 46.107 18.1894 48.1924C18.4255 50.2778 19.2125 52.6925 19.7948 54.825C20.1568 56.1891 20.5975 57.6473 21.7621 58.4627C23.2101 59.4662 25.807 58.9958 26.893 57.6944C28.215 56.1264 28.4354 53.696 28.876 51.7674C29.6158 48.6314 29.9463 45.4328 29.6315 42.2184C29.2538 38.3925 28.6242 34.5039 28.3094 30.6153Z" fill="#984E25"/>
<path d="M44.6935 45.37C46.2044 43.8491 46.5506 40.6817 46.0785 38.7688C45.4017 36.0248 42.6946 34.8959 41.6401 32.5126C40.507 29.9568 40.3181 27.103 41.3254 24.4845C42.3484 21.8503 44.7249 18.9338 44.1269 15.9547C44.1269 15.9076 44.1269 15.8606 44.1269 15.8136C43.6075 15.6097 43.0566 15.4529 42.4743 15.3432C40.6014 15.0139 36.8713 14.6062 35.3446 16.1585C33.1097 18.4478 37.8786 22.4304 38.398 24.7981C38.9646 27.3539 39.1849 30.6153 38.0989 33.0927C37.2333 35.0684 34.9197 35.868 34.0698 37.8123C33.755 38.5493 33.7393 39.3803 33.755 40.18C33.7865 41.795 33.9439 45.2759 35.6122 46.2481C37.3277 47.2516 41.766 46.7028 43.576 46.0756C44.0009 45.9345 44.3629 45.6836 44.6777 45.37H44.6935Z" fill="white"/>
<path d="M59.0629 35.8366C57.851 33.1554 57.5047 30.1919 56.5761 27.3382C55.8207 25.0176 54.3098 22.7283 52.2322 22.5088C52.1063 22.5088 51.9647 22.5088 51.823 22.5088C50.501 22.6656 51.2722 24.4531 51.2407 25.4252C51.0676 30.3173 50.7371 35.1781 50.2334 40.0545C50.076 41.6225 49.6196 43.2688 49.7927 44.8525C49.9029 45.856 50.3908 46.687 50.5482 47.6749C50.9102 49.9171 50.8158 52.1907 51.2879 54.4172C51.8703 57.1141 54.294 61.4574 57.5991 59.1211C61.1246 56.628 61.5653 50.8265 61.8329 46.9693C62.1004 43.112 60.6367 39.2862 59.0786 35.8366H59.0629Z" fill="#984E25"/>
<path d="M34.007 34.8801C34.8936 34.8801 35.6123 34.1781 35.6123 33.3121C35.6123 32.4461 34.8936 31.7441 34.007 31.7441C33.1204 31.7441 32.4016 32.4461 32.4016 33.3121C32.4016 34.1781 33.1204 34.8801 34.007 34.8801Z" fill="#231F20"/>
<path d="M45.2601 34.8801C46.1467 34.8801 46.8655 34.1781 46.8655 33.3121C46.8655 32.4461 46.1467 31.7441 45.2601 31.7441C44.3735 31.7441 43.6548 32.4461 43.6548 33.3121C43.6548 34.1781 44.3735 34.8801 45.2601 34.8801Z" fill="#231F20"/>
<path d="M39.7674 39.1451C41.4885 39.1451 42.8837 38.2957 42.8837 37.2478C42.8837 36.2 41.4885 35.3506 39.7674 35.3506C38.0463 35.3506 36.6511 36.2 36.6511 37.2478C36.6511 38.2957 38.0463 39.1451 39.7674 39.1451Z" fill="#231F20"/>
<path d="M29.3798 23.1046C29.726 21.3642 30.875 19.8432 32.1655 18.6673C33.6135 17.3345 35.4077 16.5034 37.3436 16.1271C41.1996 15.3745 45.512 16.8014 48.1561 19.6864C49.5096 21.1603 50.5169 23.0419 50.6271 25.0646C50.6743 25.8172 51.8547 25.8172 51.8075 25.0646C51.5871 21.0506 48.4866 17.4285 44.851 15.9233C40.6487 14.1828 35.691 14.371 32.0396 17.2404C30.2926 18.6045 28.6715 20.5802 28.2466 22.791C28.105 23.528 29.2381 23.8416 29.3798 23.1046Z" fill="#231F20"/>
<path d="M27.1133 22.7283C25.4765 23.2144 24.5636 24.6883 23.9656 26.1622C23.1944 28.0281 22.8481 30.0508 22.2973 31.9951C21.652 34.253 20.9123 36.4795 20.0938 38.6747C19.2754 40.8698 18.2839 42.8768 17.8432 45.1191C17.4025 47.3613 17.8117 49.7446 18.3468 52.0339C18.6301 53.1942 18.9449 54.3545 19.2597 55.5148C19.5273 56.4556 19.8105 57.4277 20.4244 58.2117C21.589 59.717 23.7295 60.1089 25.4608 59.3877C27.0032 58.7291 27.9632 57.3336 28.5613 55.8127C29.3325 53.8527 29.5213 51.6732 29.8204 49.6035C30.2139 46.8595 30.4657 44.0842 30.2453 41.3089C30.1824 40.5562 29.002 40.5562 29.0649 41.3089C29.2381 43.5511 29.1121 45.7933 28.8446 48.0198C28.6085 49.9484 28.3724 51.9084 27.9317 53.8057C27.617 55.1855 27.1133 56.6437 26.0588 57.6315C24.9256 58.6978 23.0213 58.9643 21.7779 57.9295C21.0539 57.3336 20.7549 56.3928 20.5031 55.5148C20.2198 54.5113 19.9365 53.4921 19.6846 52.4729C19.1653 50.4188 18.6144 48.208 18.8977 46.0755C19.181 43.9431 20.0152 42.1085 20.7706 40.2113C21.5733 38.2043 22.2815 36.1659 22.9268 34.1118C23.5721 32.0578 24.0285 29.8469 24.6896 27.7458C25.146 26.2876 25.8385 24.359 27.4596 23.8729C28.1836 23.6534 27.8688 22.5245 27.1448 22.744L27.1133 22.7283Z" fill="#231F20"/>
<path d="M30.1195 39.7097C30.1667 37.8438 29.7418 35.9309 29.4427 34.0964C29.0807 31.9012 28.703 29.706 28.6086 27.4795C28.5771 26.5387 28.5614 25.645 28.8289 24.7982C29.065 24.077 27.9161 23.7634 27.6957 24.4847C27.4439 25.2843 27.4124 26.1624 27.4282 26.9934C27.4282 28.0596 27.5541 29.1102 27.68 30.1607C27.9633 32.4343 28.3882 34.6922 28.7187 36.9658C28.8447 37.8752 28.9706 38.8003 28.9548 39.7097C28.9391 40.4624 30.1195 40.4624 30.1352 39.7097H30.1195Z" fill="#231F20"/>
<path d="M51.9805 23.3243C53.2554 23.1832 54.1682 24.2494 54.7033 25.2843C55.2699 26.3662 55.6162 27.5578 55.9624 28.7181C56.3559 30.0039 56.7966 31.2583 57.1743 32.544C57.5678 33.9081 57.9455 35.288 58.4177 36.6521C59.299 39.1922 60.6368 41.5912 61.0146 44.2725C61.3923 46.9537 61.0146 49.8075 60.2276 52.473C59.8184 53.8685 59.3935 55.4052 58.7167 56.6909C58.1186 57.8042 57.19 58.6509 55.9152 58.9017C55.1755 59.0429 55.4903 60.1875 56.23 60.0307C57.4104 59.7955 58.4334 59.1056 59.1574 58.1648C59.9915 57.0986 60.385 55.7658 60.8257 54.4957C61.8015 51.6577 62.4783 48.6785 62.3209 45.6523C62.2422 44.1471 61.9589 42.6575 61.471 41.2306C60.9831 39.8038 60.3693 38.5337 59.8499 37.1695C59.2833 35.6956 58.8741 34.1747 58.4334 32.6694C58.0242 31.2583 57.5363 29.8784 57.1113 28.4829C56.6864 27.0874 56.2615 25.5822 55.4903 24.2964C54.7505 23.0891 53.4757 21.9915 51.9648 22.1483C51.2093 22.2267 51.2093 23.4027 51.9648 23.3243H51.9805Z" fill="#231F20"/>
<path d="M50.6428 26.8208C50.7372 30.8819 50.0447 34.9586 49.5411 38.9883C49.1948 41.701 49.3837 44.4292 49.7457 47.1262C49.9188 48.4746 50.1234 49.8074 50.3123 51.1402C50.4696 52.2691 50.5956 53.3981 50.8002 54.527C51.1936 56.6595 52.0435 58.886 54.121 59.8895C54.7978 60.2188 55.3959 59.1996 54.7191 58.8703C52.9564 58.0236 52.3111 56.142 51.9648 54.3389C51.7602 53.304 51.6658 52.2378 51.5084 51.2029C51.3195 49.8701 51.1149 48.553 50.9418 47.2202C50.5956 44.6174 50.4067 41.9832 50.69 39.3647C50.9103 37.3733 51.2094 35.4134 51.414 33.422C51.65 31.2268 51.8704 29.016 51.8232 26.8208C51.8074 26.0682 50.627 26.0682 50.6428 26.8208Z" fill="#231F20"/>
<path d="M29.6944 44.3819C30.198 45.213 31.1423 45.6834 32.0394 45.997C32.9838 46.3262 33.991 46.4987 34.9983 46.5457C35.4705 46.5771 35.9269 46.5457 36.3991 46.483C36.6981 46.436 36.9027 46.0283 36.8083 45.7618C36.6981 45.4325 36.4148 45.307 36.0843 45.3541C35.9898 45.3541 36.2259 45.3384 36.163 45.3541C36.1472 45.3541 36.1158 45.3541 36.1 45.3541C36.0685 45.3541 36.0371 45.3541 36.0056 45.3541C35.9112 45.3541 35.8167 45.3541 35.738 45.3698C35.5492 45.3698 35.3603 45.3698 35.1714 45.3698C34.9668 45.3698 34.7465 45.3541 34.5419 45.3227C34.4317 45.3227 34.3215 45.2914 34.2114 45.2914C34.3845 45.2914 34.2271 45.2914 34.1799 45.2914C34.1169 45.2914 34.0382 45.2757 33.9753 45.26C33.5031 45.1816 33.0467 45.0718 32.606 44.9307C32.4959 44.8994 32.4014 44.868 32.2912 44.821C32.244 44.8053 32.1968 44.7896 32.1496 44.7739C32.1339 44.7739 32.1024 44.7582 32.0866 44.7426C32.0237 44.7112 32.0079 44.7112 32.0866 44.7426C31.8978 44.6328 31.6932 44.5544 31.5043 44.4447C31.4099 44.3819 31.3154 44.3349 31.2368 44.2722C31.221 44.2722 31.1895 44.2408 31.1738 44.2251C31.0636 44.1467 31.2367 44.2879 31.1895 44.2408C31.1423 44.1938 31.0951 44.1624 31.0636 44.1311C30.9849 44.0683 30.922 43.9899 30.859 43.9272C30.859 43.9272 30.8275 43.8959 30.8275 43.8802C30.7488 43.8018 30.9062 43.9899 30.8433 43.9115C30.8118 43.8645 30.7803 43.8175 30.7489 43.7704C30.5915 43.5039 30.2137 43.3784 29.9462 43.5666C29.6786 43.7547 29.5684 44.084 29.7416 44.3663L29.6944 44.3819Z" fill="#231F20"/>
<path d="M42.9937 46.4833C45.0713 46.7655 47.2589 46.6244 49.0689 45.4641C49.4624 45.2132 49.8244 44.931 50.1549 44.6017C50.3752 44.3822 50.391 43.9902 50.1549 43.7707C49.9188 43.5511 49.5568 43.5355 49.3207 43.7707C49.1948 43.8961 49.0689 44.0059 48.943 44.1156C48.9115 44.147 48.88 44.1627 48.8486 44.194C48.9273 44.147 48.7384 44.2881 48.8486 44.194C48.7699 44.2567 48.6912 44.3038 48.6125 44.3665C48.2977 44.586 47.9515 44.7585 47.6052 44.9153C47.5737 44.931 47.5265 44.9623 47.6367 44.9153C47.6209 44.9153 47.6052 44.931 47.5737 44.931C47.5265 44.9467 47.4793 44.9623 47.4321 44.978C47.3219 45.025 47.2275 45.0564 47.1173 45.0878C46.9127 45.1505 46.6924 45.2132 46.4877 45.2602C46.3776 45.2759 46.2831 45.3073 46.173 45.323C46.11 45.323 46.0471 45.3386 45.9841 45.3543C45.9369 45.3543 45.7795 45.3857 45.9054 45.3543C45.6536 45.3857 45.4018 45.4014 45.15 45.417C44.8352 45.417 44.5361 45.417 44.2214 45.417C44.064 45.417 43.9066 45.4014 43.7649 45.3857C43.6705 45.3857 43.5918 45.37 43.4974 45.3543C43.4659 45.3543 43.4344 45.3543 43.403 45.3543C43.1984 45.323 43.5131 45.37 43.3243 45.3543C43.0252 45.3073 42.679 45.4327 42.6003 45.762C42.5373 46.0442 42.679 46.4362 43.0095 46.4833H42.9937Z" fill="#231F20"/>
</svg>
