<svg width="80" height="76" viewBox="0 0 80 76" fill="none" xmlns="http://www.w3.org/2000/svg">
<path d="M51.1985 56.808C51.1985 56.808 51.2142 56.8394 51.23 56.8708C51.3716 56.5728 51.5133 56.2749 51.6549 55.9613C51.8753 54.5031 51.7179 52.9038 51.5447 51.3515C51.23 49.5013 50.6319 47.6667 50.0338 46.0517C49.8292 45.5186 49.5617 44.4367 49.1367 44.0917C47.6573 41.5202 45.1863 39.7327 42.5264 39.3878C39.7879 39.0272 36.9235 40.1718 34.9719 42.414C31.5723 46.3339 28.8967 60.0694 36.7661 59.6147L37.3327 58.9248C37.6002 59.4109 37.9937 59.7558 38.6547 59.8656C41.0155 60.2419 41.5821 58.5485 41.708 56.5101C41.8339 58.5328 42.4005 60.2262 44.7613 59.8656C47.1694 59.4893 50.0181 59.2698 51.1827 56.7924L51.1985 56.808Z" fill="white"/>
<path d="M48.1447 54.4722C49.2307 55.1465 50.3167 55.8364 51.3554 56.589C51.4499 56.3852 51.56 56.1813 51.6545 55.9618C51.8748 54.5036 51.7174 52.9042 51.5443 51.3519C51.2295 49.5017 50.6315 47.6672 50.0334 46.0522C49.8288 45.5191 49.5612 44.4372 49.1363 44.0922C48.9946 43.857 48.853 43.6375 48.6956 43.418C47.2162 46.4128 45.4219 49.8624 46.8542 53.061C47.2634 53.5628 47.6883 54.0175 48.1605 54.4565L48.1447 54.4722Z" fill="#F39B4A"/>
<path d="M36.9549 51.2576C36.4355 48.6391 35.0977 46.3812 33.9173 44.0449C32.186 47.2436 31.0214 52.6218 32.0601 56.1497C34.2478 55.9616 37.5057 54.033 36.9549 51.2576Z" fill="#F39B4A"/>
<path d="M36.3882 54.2521C36.3882 55.2399 36.278 56.2121 36.3252 57.1999C36.3725 58.1877 36.5613 59.2696 37.3325 59.9125C37.8047 60.3045 38.3398 60.4613 38.9379 60.5083C39.4887 60.5554 40.0553 60.4926 40.559 60.2574C41.4403 59.8498 41.9125 58.9247 42.1171 58.0309C42.3847 56.8706 42.3532 55.6476 42.3532 54.4559C42.3532 54.1423 42.0856 53.8601 41.7551 53.8601C41.4246 53.8601 41.157 54.111 41.157 54.4559C41.157 54.9577 41.157 55.4594 41.157 55.9612C41.157 56.2121 41.1413 56.4629 41.1256 56.6981C41.1256 56.8079 41.1098 56.9333 41.0941 57.0431C41.0941 57.0901 41.0941 57.1528 41.0783 57.1999C41.0783 57.3253 41.0941 57.0744 41.0783 57.1528C41.0783 57.1842 41.0783 57.2312 41.0626 57.2626C41.0311 57.4821 40.9839 57.686 40.9367 57.9055C40.9052 58.0152 40.8737 58.1093 40.8423 58.2191C40.8265 58.2661 40.8108 58.3132 40.795 58.3602C40.795 58.3602 40.7793 58.3915 40.7793 58.4072C40.8108 58.2348 40.8108 58.3445 40.7793 58.4072C40.7478 58.4856 40.7006 58.564 40.6534 58.6424C40.6377 58.6738 40.6062 58.7208 40.5904 58.7522C40.5904 58.7679 40.559 58.7992 40.5432 58.8149C40.5117 58.8619 40.4488 58.8776 40.5747 58.7835C40.5117 58.8463 40.4645 58.909 40.4016 58.9717C40.3701 59.0031 40.3386 59.0344 40.2914 59.0658C40.2442 59.0971 40.2127 59.0971 40.3386 59.0344C40.3071 59.0344 40.2914 59.0658 40.2599 59.0815C40.1812 59.1285 40.1025 59.1755 40.0238 59.2226C39.8979 59.2853 40.1498 59.1755 40.0238 59.2226C39.9766 59.2383 39.9137 59.2539 39.8665 59.2696C39.772 59.301 39.6776 59.3167 39.5832 59.3323C39.473 59.348 39.7405 59.3323 39.6146 59.3323C39.5989 59.3323 39.5674 59.3323 39.5517 59.3323C39.4887 59.3323 39.4258 59.3323 39.3471 59.3323C39.2212 59.3323 39.0953 59.3323 38.9693 59.3323C38.9379 59.3323 38.9064 59.3323 38.8749 59.3323C38.7333 59.3323 39.0166 59.348 38.8749 59.3323C38.812 59.3323 38.749 59.3167 38.6703 59.301C38.5759 59.2853 38.4814 59.2539 38.387 59.2069C38.2926 59.1755 38.4972 59.2696 38.4342 59.2226C38.4185 59.2226 38.387 59.2069 38.3713 59.1912C38.3241 59.1599 38.2768 59.1442 38.2296 59.1128C38.1982 59.0971 38.1509 59.0501 38.1195 59.0344C38.2454 59.0815 38.2139 59.1128 38.1509 59.0658C38.1509 59.0658 38.1195 59.0501 38.1037 59.0344C38.0722 59.0031 38.0408 58.9717 37.9935 58.9247C37.9935 58.909 37.9621 58.8933 37.9463 58.8776C37.8519 58.7835 37.9935 58.9403 37.9621 58.909C37.9149 58.8306 37.8519 58.7522 37.8047 58.6738C37.7889 58.6267 37.7575 58.5954 37.7417 58.5483C37.7417 58.5327 37.726 58.5013 37.7102 58.4856C37.6945 58.4543 37.7732 58.6424 37.7102 58.517C37.6316 58.3288 37.5843 58.125 37.5371 57.9212C37.5371 57.8741 37.5214 57.8271 37.5056 57.7644C37.5056 57.733 37.5056 57.7016 37.5056 57.6703C37.4899 57.5605 37.5056 57.7957 37.5056 57.7173C37.5056 57.5919 37.4742 57.4664 37.4742 57.3567C37.3955 56.3218 37.5214 55.2869 37.5214 54.2521C37.5214 53.9385 37.2538 53.6562 36.9233 53.6562C36.5928 53.6562 36.341 53.9071 36.3252 54.2521H36.3882Z" fill="#231F20"/>
<path d="M49.782 44.0443C48.0665 40.9083 44.7456 38.5407 41.047 38.7602C37.9307 38.9484 35.0663 40.7986 33.5239 43.4955C32.4064 45.4712 31.7139 47.7134 31.3362 49.9399C30.9585 52.1664 30.8168 54.5654 31.588 56.7136C31.9658 57.7641 32.5481 58.7049 33.4609 59.3635C34.421 60.0534 35.6171 60.2886 36.7661 60.2259C37.5215 60.1945 37.5215 59.0185 36.7661 59.0499C34.9719 59.1439 33.5396 58.36 32.8314 56.6979C32.0759 54.9104 32.1231 52.8093 32.3592 50.9277C32.6268 48.8894 33.1776 46.8196 34.0748 44.9694C35.1765 42.6645 37.0336 40.8613 39.5833 40.1871C43.3449 39.1836 46.9648 41.3944 48.7433 44.6558C49.1052 45.3144 50.1283 44.7342 49.7663 44.06L49.782 44.0443Z" fill="#231F20"/>
<path d="M45.8792 54.2522C45.8792 55.1773 45.9736 56.1024 45.9421 57.0275C45.9421 57.247 45.9107 57.4822 45.8949 57.7017C45.8949 57.8272 45.9107 57.5449 45.8949 57.6704C45.8949 57.7017 45.8949 57.7174 45.8949 57.7488C45.8949 57.8115 45.8792 57.8585 45.8634 57.9213C45.8477 58.031 45.8162 58.1408 45.7848 58.2349C45.7533 58.3289 45.7218 58.423 45.6903 58.5014C45.6431 58.6425 45.7533 58.376 45.6903 58.5014C45.6588 58.5485 45.6431 58.5955 45.6116 58.6425C45.5644 58.7209 45.5172 58.7993 45.47 58.8621C45.407 58.9561 45.5644 58.7523 45.5015 58.8307C45.5015 58.8464 45.47 58.8621 45.4542 58.8777C45.4228 58.9248 45.3755 58.9561 45.3441 58.9875C45.3283 58.9875 45.3126 59.0189 45.2969 59.0345C45.2496 59.0816 45.2024 59.0659 45.3283 59.0032C45.2969 59.0189 45.2496 59.0502 45.2182 59.0816C45.1867 59.1129 45.1395 59.1286 45.0922 59.1443C45.0765 59.1443 45.045 59.16 45.0293 59.1757C44.9191 59.2384 45.1552 59.1286 45.045 59.1757C44.9506 59.207 44.8562 59.2384 44.7617 59.2697C44.7145 59.2697 44.6516 59.2854 44.6043 59.3011H44.5571C44.5571 59.3011 44.5099 59.3011 44.6043 59.3011C44.5886 59.3011 44.5257 59.3011 44.4942 59.3011C44.3683 59.3011 44.2424 59.3168 44.1165 59.3168C44.0535 59.3168 43.9905 59.3168 43.9276 59.3168C43.9118 59.3168 43.8804 59.3168 43.8646 59.3168C43.7072 59.3168 43.9748 59.3324 43.8646 59.3168C43.7702 59.3011 43.6758 59.2854 43.5813 59.254C43.5341 59.254 43.4869 59.2227 43.4554 59.207C43.4397 59.207 43.4082 59.1757 43.3767 59.1757C43.4239 59.1757 43.5184 59.2384 43.4239 59.1757C43.3453 59.1286 43.2666 59.0972 43.2036 59.0502C43.1879 59.0502 43.1564 59.0189 43.1406 59.0032C43.062 58.9405 43.2351 59.0816 43.1879 59.0345C43.1564 59.0032 43.1092 58.9718 43.0777 58.9405C43.0147 58.8777 42.9675 58.7993 42.8888 58.7366C42.9833 58.8307 42.9675 58.8307 42.936 58.7993C42.936 58.7837 42.9046 58.7523 42.8888 58.7366C42.8573 58.6896 42.8259 58.6425 42.8101 58.5955C42.7629 58.5171 42.7157 58.4387 42.6842 58.3603C42.6842 58.3446 42.6685 58.2976 42.6527 58.2819C42.6527 58.2819 42.7157 58.423 42.6842 58.3446C42.6685 58.2976 42.637 58.2349 42.6213 58.1878C42.5426 57.984 42.4954 57.7645 42.4481 57.545C42.4167 57.4195 42.4009 57.2941 42.3852 57.1686C42.3852 57.153 42.3852 57.1216 42.3852 57.1059C42.3852 57.1373 42.4167 57.3097 42.3852 57.1059C42.3852 57.0432 42.3852 56.9805 42.3694 56.9021C42.338 56.6355 42.3222 56.3533 42.3222 56.0867C42.3065 55.5223 42.3065 54.9578 42.3065 54.409C42.3065 54.0954 42.0389 53.8132 41.7084 53.8132C41.3779 53.8132 41.1261 54.064 41.1104 54.409C41.1104 55.4909 41.1103 56.5728 41.2835 57.6547C41.4409 58.5955 41.8186 59.5363 42.6527 60.0851C43.0934 60.3673 43.6285 60.4771 44.1322 60.4928C44.6988 60.4928 45.2969 60.4144 45.7848 60.1164C46.7133 59.5676 47.0124 58.5014 47.1068 57.5136C47.217 56.416 47.0753 55.3184 47.0753 54.2208C47.0753 53.9072 46.8078 53.625 46.4773 53.625C46.1467 53.625 45.8792 53.8759 45.8792 54.2208V54.2522Z" fill="#231F20"/>
<path d="M48.7751 44.5623C48.901 44.6564 49.0269 44.9856 49.0899 45.1581C49.2158 45.4874 49.3102 45.8167 49.4204 46.1459C49.6092 46.6634 49.7981 47.1651 49.9555 47.6826C50.3332 48.8272 50.648 49.9875 50.8683 51.1792C51.2303 53.1235 51.4822 55.5695 50.349 57.2629C49.7666 58.1253 48.7436 58.5957 47.6576 58.6898C47.3429 58.7211 47.0596 58.9407 47.0596 59.2856C47.0596 59.5835 47.3271 59.8971 47.6576 59.8815C48.8853 59.756 50.0971 59.3483 50.947 58.4076C51.7182 57.5452 52.096 56.4476 52.2376 55.3186C52.5839 52.7628 51.9543 50.0816 51.1831 47.6512C50.9785 47.0083 50.7424 46.3968 50.5378 45.754C50.2703 44.9856 50.0814 44.0292 49.3574 43.5274C48.7279 43.0884 48.1455 44.1076 48.7594 44.5466L48.7751 44.5623Z" fill="#231F20"/>
<path d="M52.3629 40.5964C52.9138 38.95 53.2915 37.2095 53.5748 35.5004C54.1414 32.1763 54.346 28.4759 53.4331 25.1831C53.26 24.5716 52.8666 23.5681 52.536 22.5019C52.5046 22.5489 52.4731 22.5803 52.4416 22.643C51.151 19.0053 48.3181 15.6184 44.1788 14.8658C40.8422 14.27 37.1121 15.0069 34.3106 16.9042C32.9256 17.8293 31.7609 19.068 31.0527 20.5889C30.25 22.3137 29.2427 23.866 28.9751 25.826C28.6604 28.178 28.8178 30.8279 29.0381 33.1955C29.3844 36.9273 30.3759 40.5023 31.635 44.0146C32.4219 45.0338 35.5225 45.708 36.5297 45.8334C37.2065 45.9275 37.9148 45.8961 38.5915 45.8648C40.8736 45.7707 43.1558 45.6766 45.4379 45.5825C47.4682 45.5041 49.4198 44.7045 51.1982 43.7637C51.5917 42.7131 52.0167 41.6469 52.3786 40.5807L52.3629 40.5964Z" fill="#F39B4A"/>
<path d="M29.9823 30.1363C29.7777 27.6432 29.8721 25.4951 30.3128 23.0647C30.36 22.8139 30.3443 22.5944 30.1397 22.4219C27.6215 23.0961 26.567 25.4324 25.7958 27.7844C24.2849 32.3472 22.774 36.91 21.2788 41.4728C20.6335 43.4171 19.6262 45.628 19.8623 47.7134C20.0984 49.7988 20.8853 52.2135 21.4676 54.346C21.8296 55.7101 22.2703 57.1683 23.435 57.9837C24.8829 58.9872 27.4798 58.5168 28.5658 57.2154C29.8879 55.6474 30.1082 53.217 30.5489 51.2884C31.2886 48.1524 31.6191 44.9538 31.3043 41.7394C30.9266 37.9135 30.2971 34.0249 29.9823 30.1363Z" fill="#984E25"/>
<path d="M46.3663 44.892C47.8772 43.371 48.2235 40.2037 47.7513 38.2908C47.0745 35.5468 44.3675 34.4179 43.313 32.0345C42.1798 29.4787 41.9909 26.625 42.9982 24.0065C44.0212 21.3723 46.3978 18.4558 45.7997 15.4767C45.7997 15.4296 45.7997 15.3826 45.7997 15.3355C45.2803 15.1317 44.7295 14.9749 44.1471 14.8651C42.2742 14.5359 38.5442 14.1282 37.0175 15.6805C34.7826 17.9697 39.5514 21.9524 40.0708 24.3201C40.6374 26.8759 40.8577 30.1373 39.7718 32.6147C38.9061 34.5903 36.5925 35.39 35.7427 37.3343C35.4279 38.0713 35.4121 38.9023 35.4279 39.702C35.4594 41.317 35.6167 44.7979 37.2851 45.77C39.0006 46.7735 43.4389 46.2248 45.2489 45.5976C45.6738 45.4564 46.0358 45.2056 46.3506 44.892H46.3663Z" fill="white"/>
<path d="M60.7355 35.3591C59.5236 32.6778 59.1773 29.7144 58.2487 26.8606C57.4933 24.54 55.9824 22.2508 53.9048 22.0312C53.7789 22.0312 53.6373 22.0312 53.4956 22.0312C52.1736 22.188 52.9448 23.9755 52.9133 24.9477C52.7402 29.8398 52.4097 34.7005 51.906 39.5769C51.7486 41.1449 51.2922 42.7913 51.4653 44.375C51.5755 45.3785 52.0634 46.2095 52.2208 47.1973C52.5828 49.4395 52.4884 51.7131 52.9605 53.9396C53.5429 56.6366 55.9666 60.9799 59.2718 58.6436C62.7972 56.1505 63.2379 50.349 63.5055 46.4917C63.773 42.6345 62.3093 38.8086 60.7512 35.3591H60.7355Z" fill="#984E25"/>
<path d="M35.6796 34.4016C36.5662 34.4016 37.2849 33.6996 37.2849 32.8336C37.2849 31.9676 36.5662 31.2656 35.6796 31.2656C34.793 31.2656 34.0742 31.9676 34.0742 32.8336C34.0742 33.6996 34.793 34.4016 35.6796 34.4016Z" fill="#231F20"/>
<path d="M46.9325 34.4016C47.8191 34.4016 48.5379 33.6996 48.5379 32.8336C48.5379 31.9676 47.8191 31.2656 46.9325 31.2656C46.0459 31.2656 45.3271 31.9676 45.3271 32.8336C45.3271 33.6996 46.0459 34.4016 46.9325 34.4016Z" fill="#231F20"/>
<path d="M41.4395 38.6656C43.1606 38.6656 44.5558 37.8162 44.5558 36.7684C44.5558 35.7205 43.1606 34.8711 41.4395 34.8711C39.7184 34.8711 38.3232 35.7205 38.3232 36.7684C38.3232 37.8162 39.7184 38.6656 41.4395 38.6656Z" fill="#231F20"/>
<path d="M31.0526 22.6261C31.3989 20.8857 32.5478 19.3647 33.8384 18.1887C35.2864 16.856 37.0806 16.0249 39.0164 15.6486C42.8724 14.896 47.1848 16.3228 49.829 19.2079C51.1825 20.6818 52.1898 22.5634 52.2999 24.5861C52.3472 25.3387 53.5276 25.3387 53.4803 24.5861C53.26 20.5721 50.1595 16.95 46.5238 15.4448C42.3216 13.7043 37.3639 13.8925 33.7125 16.7619C31.9655 18.126 30.3444 20.1017 29.9195 22.3125C29.7778 23.0495 30.911 23.3631 31.0526 22.6261Z" fill="#231F20"/>
<path d="M28.7859 22.2508C27.1491 22.7368 26.2363 24.2107 25.6382 25.6846C24.867 27.5505 24.5207 29.5732 23.9699 31.5175C23.3246 33.7754 22.5849 36.002 21.7665 38.1971C20.948 40.3923 19.9565 42.3993 19.5158 44.6415C19.0751 46.8837 19.4843 49.2671 20.0195 51.5563C20.3028 52.7166 20.6175 53.8769 20.9323 55.0372C21.1999 55.978 21.4832 56.9502 22.097 57.7342C23.2616 59.2394 25.4021 59.6314 27.1334 58.9101C28.6758 58.2516 29.6358 56.8561 30.2339 55.3351C31.0051 53.3752 31.194 51.1957 31.493 49.1259C31.8865 46.382 32.1383 43.6067 31.9179 40.8313C31.855 40.0787 30.6746 40.0787 30.7375 40.8313C30.9107 43.0735 30.7847 45.3158 30.5172 47.5423C30.2811 49.4709 30.045 51.4309 29.6043 53.3281C29.2896 54.708 28.7859 56.1662 27.7314 57.154C26.5982 58.2202 24.6939 58.4868 23.4505 57.4519C22.7265 56.8561 22.4275 55.9153 22.1757 55.0372C21.8924 54.0337 21.6091 53.0145 21.3572 51.9953C20.8379 49.9413 20.287 47.7304 20.5703 45.598C20.8536 43.4655 21.6878 41.631 22.4432 39.7337C23.2459 37.7267 23.9541 35.6884 24.5994 33.6343C25.2447 31.5802 25.7011 29.3694 26.3622 27.2683C26.8186 25.8101 27.5111 23.8815 29.1322 23.3954C29.8562 23.1759 29.5414 22.0469 28.8174 22.2664L28.7859 22.2508Z" fill="#231F20"/>
<path d="M31.7923 39.2317C31.8396 37.3658 31.4146 35.4529 31.1156 33.6183C30.7536 31.4232 30.3759 29.228 30.2814 27.0015C30.25 26.0607 30.2342 25.1669 30.5018 24.3202C30.7379 23.5989 29.5889 23.2854 29.3686 24.0066C29.1168 24.8063 29.0853 25.6844 29.101 26.5154C29.101 27.5816 29.2269 28.6322 29.3528 29.6827C29.6361 31.9563 30.0611 34.2142 30.3916 36.4877C30.5175 37.3972 30.6434 38.3223 30.6277 39.2317C30.6119 39.9843 31.7923 39.9843 31.8081 39.2317H31.7923Z" fill="#231F20"/>
<path d="M53.6526 22.8453C54.9275 22.7042 55.8403 23.7704 56.3754 24.8052C56.942 25.8872 57.2883 27.0788 57.6345 28.2391C58.028 29.5249 58.4687 30.7793 58.8464 32.065C59.2399 33.4291 59.6176 34.809 60.0898 36.1731C60.9712 38.7132 62.309 41.1122 62.6867 43.7935C63.0644 46.4747 62.6867 49.3285 61.8997 51.994C61.4905 53.3895 61.0656 54.9261 60.3888 56.2119C59.7907 57.3252 58.8622 58.1719 57.5873 58.4227C56.8476 58.5639 57.1624 59.7085 57.9021 59.5517C59.0825 59.3165 60.1055 58.6266 60.8295 57.6858C61.6637 56.6196 62.0571 55.2868 62.4978 54.0167C63.4736 51.1787 64.1504 48.1995 63.993 45.1733C63.9143 43.6681 63.631 42.1785 63.1431 40.7516C62.6552 39.3247 62.0414 38.0547 61.522 36.6905C60.9554 35.2166 60.5462 33.6957 60.1055 32.1904C59.6963 30.7793 59.2084 29.3994 58.7835 28.0039C58.3585 26.6084 57.9336 25.1032 57.1624 23.8174C56.4227 22.6101 55.1478 21.5125 53.6369 21.6693C52.8814 21.7477 52.8814 22.9237 53.6369 22.8453H53.6526Z" fill="#231F20"/>
<path d="M52.3149 26.3418C52.4093 30.4029 51.7168 34.4796 51.2132 38.5093C50.8669 41.2219 51.0558 43.9502 51.4178 46.6472C51.5909 47.9956 51.7955 49.3284 51.9844 50.6612C52.1418 51.7901 52.2677 52.9191 52.4723 54.048C52.8657 56.1805 53.7156 58.407 55.7932 59.4105C56.4699 59.7398 57.068 58.7206 56.3912 58.3913C54.6285 57.5446 53.9832 55.663 53.6369 53.8599C53.4323 52.825 53.3379 51.7588 53.1805 50.7239C52.9917 49.3911 52.7871 48.074 52.6139 46.7412C52.2677 44.1384 52.0788 41.5042 52.3621 38.8857C52.5824 36.8943 52.8815 34.9344 53.0861 32.943C53.3222 30.7478 53.5425 28.537 53.4953 26.3418C53.4796 25.5892 52.2992 25.5892 52.3149 26.3418Z" fill="#231F20"/>
<path d="M31.3672 43.9034C31.8708 44.7344 32.8152 45.2048 33.7123 45.5184C34.6566 45.8477 35.6639 46.0202 36.6712 46.0672C37.1433 46.0986 37.5997 46.0672 38.0719 46.0045C38.3709 45.9575 38.5755 45.5498 38.4811 45.2832C38.3709 44.954 38.0876 44.8285 37.7571 44.8756C37.6627 44.8756 37.8988 44.8599 37.8358 44.8756C37.8201 44.8756 37.7886 44.8756 37.7729 44.8756C37.7414 44.8756 37.7099 44.8756 37.6784 44.8756C37.584 44.8756 37.4896 44.8756 37.4109 44.8912C37.222 44.8912 37.0332 44.8912 36.8443 44.8912C36.6397 44.8912 36.4193 44.8756 36.2147 44.8442C36.1046 44.8442 35.9944 44.8128 35.8842 44.8128C36.0573 44.8128 35.9 44.8128 35.8527 44.8128C35.7898 44.8128 35.7111 44.7972 35.6481 44.7815C35.176 44.7031 34.7196 44.5933 34.2789 44.4522C34.1687 44.4209 34.0743 44.3895 33.9641 44.3425C33.9169 44.3268 33.8697 44.3111 33.8224 44.2954C33.8067 44.2954 33.7752 44.2797 33.7595 44.2641C33.6808 44.2327 33.6965 44.2327 33.7595 44.2641C33.5706 44.1543 33.366 44.0759 33.1772 43.9661C33.0827 43.9034 32.9883 43.8564 32.9096 43.7937C32.8939 43.7937 32.8624 43.7623 32.8466 43.7466C32.7365 43.6682 32.9096 43.8093 32.8624 43.7623C32.8152 43.7153 32.768 43.6839 32.7365 43.6525C32.6578 43.5898 32.5948 43.5114 32.5319 43.4487C32.5319 43.4487 32.5004 43.4173 32.5004 43.4017C32.4217 43.3233 32.5791 43.5114 32.5161 43.433C32.4847 43.386 32.4532 43.3389 32.4217 43.2919C32.2643 43.0254 31.8866 42.8999 31.619 43.0881C31.3515 43.2762 31.2413 43.6055 31.4144 43.8877L31.3672 43.9034Z" fill="#231F20"/>
<path d="M44.6659 46.0043C46.7434 46.2865 48.9311 46.1454 50.741 44.9851C51.1345 44.7342 51.4965 44.452 51.827 44.1227C52.0473 43.9032 52.0631 43.5112 51.827 43.2917C51.5909 43.0721 51.2289 43.0565 50.9928 43.2917C50.8669 43.4171 50.741 43.5269 50.6151 43.6366C50.5836 43.668 50.5522 43.6837 50.5207 43.715C50.4105 43.8091 50.5994 43.668 50.5207 43.715C50.442 43.7777 50.3633 43.8248 50.2846 43.8875C49.9698 44.107 49.6236 44.2795 49.2773 44.4363C49.2458 44.452 49.1986 44.4833 49.3088 44.4363C49.2931 44.4363 49.2773 44.452 49.2458 44.452C49.1986 44.4676 49.1514 44.4833 49.1042 44.499C48.994 44.546 48.8996 44.5774 48.7894 44.6088C48.5848 44.6715 48.3645 44.7342 48.1599 44.7812C48.0497 44.7969 47.9553 44.8283 47.8451 44.844C47.7821 44.844 47.7192 44.8596 47.6562 44.8753C47.609 44.8753 47.4516 44.9067 47.5775 44.8753C47.3257 44.9067 47.0739 44.9224 46.8221 44.938C46.5073 44.938 46.2083 44.938 45.8935 44.938C45.7361 44.938 45.5787 44.9224 45.4371 44.9067C45.3426 44.9067 45.2639 44.891 45.1695 44.8753C45.138 44.8753 45.1066 44.8753 45.0751 44.8753C44.8705 44.844 45.1852 44.891 44.9964 44.8753C44.6973 44.8283 44.3511 44.9537 44.2724 45.283C44.2094 45.5652 44.3511 45.9572 44.6816 46.0043H44.6659Z" fill="#231F20"/>
</svg>
