<svg width="80" height="76" viewBox="0 0 80 76" fill="none" xmlns="http://www.w3.org/2000/svg">
<path d="M56.5023 48.4299C55.9357 48.4142 55.3848 48.5553 54.9914 48.963C54.9284 49.0257 54.8812 49.0884 54.8655 49.1668C54.8655 49.2609 54.9127 49.3706 54.9599 49.449C55.8098 50.9386 55.9357 52.8045 55.2904 54.3882C55.0543 54.984 54.6923 55.5485 54.1572 55.8934C53.6221 56.2384 52.8981 56.3482 52.3473 56.0189C53.0555 52.8045 51.7807 49.4647 50.5058 46.5483C50.2698 46.0152 49.955 44.9333 49.4671 44.5883C47.7673 42.0168 44.8871 40.2293 41.8181 39.8844C38.6388 39.5237 35.3337 40.6684 33.0673 42.9106C29.1169 46.8305 26.0321 60.566 35.1606 60.1113L35.8059 59.4214C36.1049 59.9075 36.5771 60.2524 37.3483 60.3622C40.0868 60.7385 40.7321 59.0451 40.8895 57.0067C41.0469 59.0294 41.6921 60.7228 44.4307 60.3622C46.0046 60.1427 47.4997 59.9545 48.9949 59.4371C50.5216 58.904 51.9223 59.2019 53.449 59.296C55.1488 59.39 56.88 58.4493 58.1863 57.4457C59.5084 56.4422 59.9806 55.0467 60.075 53.4474C60.1537 52.0362 60.075 50.4526 59.052 49.4804C58.7372 49.1825 58.3752 48.9787 57.9817 48.8062C57.5253 48.6023 57.0059 48.4455 56.5023 48.4299Z" fill="white"/>
<path d="M54.3777 57.7752C57.2107 56.6619 59.2252 53.5103 58.5012 50.4213C58.4225 50.1077 58.3281 49.7942 58.1235 49.5276C57.793 49.0886 57.2421 48.869 56.6913 48.822C56.2978 48.7906 54.5351 48.6966 54.96 49.4492C55.8099 50.9388 55.9358 52.8047 55.2905 54.3883C55.0545 54.9842 54.6925 55.5486 54.1573 55.8936C53.1343 56.5678 52.3946 56.2072 51.828 57.5557C51.4345 58.5121 53.5435 58.0417 53.8898 57.932C54.0472 57.8849 54.2046 57.8222 54.3619 57.7595L54.3777 57.7752Z" fill="#5C564D"/>
<path d="M39.9768 58.418C40.1657 58.4024 40.3703 58.3867 40.5592 58.371C40.5907 58.371 40.6379 58.371 40.6694 58.3396C40.7008 58.3083 40.7008 58.2769 40.7008 58.2456C40.748 57.3675 40.8897 56.5835 40.7953 55.6741C40.7008 54.7647 40.4333 53.8082 40.4333 52.8831C40.3861 52.397 40.3388 51.8952 40.1657 51.4249C39.6463 50.0294 38.1826 49.2454 36.8291 48.6025C35.7589 48.0851 34.6414 47.5519 33.4453 47.4422C32.2491 47.3324 30.9428 47.7244 30.2818 48.7279C30.0614 49.0729 29.9198 49.4649 29.7939 49.8569C29.3689 51.2367 29.1643 52.6792 29.2588 54.1218C29.3689 55.8152 29.5578 58.1828 31.0058 59.3118C32.2491 60.2839 34.0119 60.2683 35.5543 59.939C35.9005 59.8606 35.57 58.9512 35.6172 58.7473C35.6172 58.7003 35.633 58.6689 35.6644 58.6376C35.6959 58.6062 35.7431 58.6062 35.7903 58.6062C37.1754 58.6062 38.5604 58.5592 39.9454 58.4494L39.9768 58.418Z" fill="#5C564D"/>
<path d="M51.5764 49.9509C51.5135 49.8097 51.4348 49.6529 51.3718 49.5118C51.2144 49.1982 51.0256 48.8689 50.758 48.6494C50.3803 48.3515 49.8924 48.2888 49.4202 48.2731C47.4529 48.2104 45.5642 48.9787 43.8959 49.9979C43.2349 50.4056 42.5739 50.876 42.1961 51.5502C42.0073 51.8951 41.8971 52.2871 41.8027 52.6791C41.362 54.545 41.2675 56.2855 41.4092 58.1827C41.4092 58.2298 41.4092 58.2925 41.4564 58.3395C41.4879 58.3709 41.5351 58.3709 41.5823 58.3709C42.8257 58.4023 44.0848 58.465 45.3281 58.4023C45.7846 58.3709 45.9105 58.2298 46.2725 58.0103C46.3984 58.7002 46.1623 59.4685 45.7688 60.033C47.0279 60.127 48.3185 60.0016 49.4674 59.4685C51.8125 58.3709 52.7411 55.9249 52.5522 53.4945C52.4578 52.2715 52.08 51.0641 51.5764 49.9352V49.9509Z" fill="#5C564D"/>
<path d="M34.7988 54.733C34.7988 55.7208 34.6729 56.7086 34.7201 57.6965C34.783 58.7627 35.0821 59.8446 35.9949 60.4875C36.4985 60.8481 37.1438 60.9579 37.7419 60.9892C38.3085 61.0206 38.8908 60.9736 39.4102 60.754C39.9296 60.5345 40.3388 60.2052 40.6693 59.7505C40.9526 59.3585 41.1257 58.9038 41.2359 58.4334C41.5192 57.2888 41.5035 56.0815 41.4877 54.9211C41.4877 54.6075 41.2202 54.3253 40.8897 54.3253C40.5591 54.3253 40.2916 54.5762 40.2916 54.9211C40.2916 55.4229 40.2916 55.9247 40.2916 56.4107C40.2916 56.6616 40.2758 56.8968 40.2444 57.1477C40.2444 57.2574 40.2286 57.3672 40.2129 57.4926C40.2129 57.5397 40.1814 57.6494 40.2129 57.4613C40.2129 57.4926 40.2129 57.524 40.2129 57.5554C40.2129 57.6181 40.1971 57.6808 40.1814 57.7278C40.1499 57.9473 40.087 58.1669 40.024 58.3707C39.9925 58.4648 39.9611 58.5589 39.9296 58.6529C39.9925 58.5275 39.8824 58.7941 39.9296 58.6529C39.8981 58.7157 39.8824 58.7627 39.8509 58.8254C39.8037 58.9038 39.7565 58.9979 39.7092 59.0763C39.6778 59.1076 39.662 59.139 39.6306 59.1861C39.5676 59.2645 39.725 59.0763 39.662 59.1547C39.6463 59.1861 39.6148 59.2017 39.5991 59.2331C39.5361 59.2958 39.4732 59.3742 39.3945 59.4369C39.3787 59.4369 39.363 59.4683 39.3473 59.484C39.3 59.531 39.4732 59.3899 39.3945 59.4526C39.3473 59.484 39.3 59.5153 39.2371 59.5624C39.1584 59.6094 39.0482 59.6408 38.9695 59.7035C39.0482 59.6408 39.0954 59.6564 39.0325 59.6721C39.001 59.6721 38.9853 59.6878 38.9538 59.7035C38.8908 59.7192 38.8279 59.7505 38.7649 59.7662C38.6548 59.7976 38.5446 59.8132 38.4344 59.8289C38.4344 59.8289 38.5918 59.8132 38.4974 59.8289C38.4659 59.8289 38.4344 59.8289 38.4029 59.8289C38.3242 59.8289 38.2455 59.8289 38.1826 59.8289C38.0567 59.8289 37.915 59.8289 37.7891 59.8289C37.7104 59.8289 37.6317 59.8289 37.553 59.8132C37.5058 59.8132 37.4743 59.8132 37.4271 59.8132C37.553 59.8289 37.2855 59.7976 37.4271 59.8132C37.3012 59.7976 37.191 59.7662 37.0651 59.7348C37.0022 59.7192 36.9392 59.6878 36.892 59.6721C36.7818 59.6408 37.0179 59.7348 36.9235 59.6721C36.892 59.6721 36.8763 59.6408 36.8448 59.6408C36.7504 59.5937 36.6717 59.531 36.5772 59.484C36.4828 59.4369 36.6874 59.578 36.6087 59.5153C36.593 59.4996 36.5615 59.484 36.5458 59.4683C36.4985 59.4369 36.4671 59.3899 36.4356 59.3585C36.4041 59.3272 36.3726 59.2645 36.3254 59.2331C36.4199 59.2958 36.4041 59.3429 36.3726 59.2958C36.3726 59.2801 36.3412 59.2488 36.3254 59.2331C36.2625 59.139 36.2152 59.0449 36.168 58.9509C36.168 58.9195 36.1523 58.9038 36.1366 58.8725C36.0893 58.7784 36.1838 59.0136 36.1523 58.9195C36.1523 58.8725 36.1208 58.8411 36.1051 58.7941C36.0736 58.6843 36.0421 58.5745 36.0106 58.4648C35.9792 58.355 35.9634 58.2609 35.9477 58.1512C35.9477 58.1198 35.9477 58.0885 35.9477 58.0571C35.9792 58.2296 35.9477 58.1512 35.9477 58.1041C35.9477 58.0414 35.9477 57.9787 35.932 57.9003C35.8375 56.8498 35.9949 55.7992 35.9949 54.7487C35.9949 54.4351 35.7273 54.1528 35.3968 54.1528C35.0663 54.1528 34.8145 54.4037 34.7988 54.7487V54.733Z" fill="#231F20"/>
<path d="M50.144 44.5255C48.0664 41.2484 44.3364 39.1474 40.4332 39.2258C37.0493 39.2885 33.6183 40.9192 31.6509 43.7102C30.3289 45.6074 29.479 47.8967 29.0068 50.1389C28.5347 52.3811 28.3458 54.8742 29.18 57.0537C29.6049 58.1513 30.2817 59.1234 31.2732 59.782C32.4064 60.5346 33.8072 60.7541 35.1607 60.7071C35.9161 60.6757 35.9161 59.4997 35.1607 59.5311C33.1776 59.6252 31.3834 58.9509 30.4863 57.1164C29.5892 55.2819 29.6836 53.1181 29.9984 51.2208C30.3446 49.104 31.0371 47.0186 32.1231 45.1684C33.5396 42.738 35.9791 41.1387 38.7491 40.6056C42.7625 39.8216 46.949 41.7188 49.1209 45.1527C49.5301 45.7956 50.5532 45.1998 50.144 44.5569V44.5255Z" fill="#231F20"/>
<path d="M45.8 54.7332C45.8 55.6739 45.926 56.599 45.8787 57.5398C45.8787 57.6496 45.8787 57.7594 45.863 57.8848C45.863 57.9475 45.863 57.9945 45.8473 58.0573C45.8473 58.0886 45.8473 58.1043 45.8473 58.1357C45.863 57.9318 45.8473 58.0886 45.8473 58.1357C45.8158 58.3552 45.7686 58.5747 45.6899 58.7785C45.6899 58.8256 45.6584 58.8569 45.6427 58.904C45.6112 59.0137 45.7056 58.7629 45.6584 58.8569C45.6584 58.8883 45.6427 58.904 45.6269 58.9353C45.5797 59.0294 45.5325 59.1235 45.4695 59.2176C45.4695 59.2332 45.4381 59.2489 45.4381 59.2646C45.4066 59.3273 45.3751 59.296 45.4695 59.2176C45.4381 59.2489 45.4066 59.296 45.3594 59.343C45.3279 59.3744 45.2964 59.4057 45.2649 59.4371C45.2492 59.4528 45.2177 59.4684 45.202 59.4841C45.2964 59.4214 45.0918 59.5782 45.202 59.4841C45.1075 59.5468 45.0288 59.5939 44.9344 59.6409C44.8872 59.6723 44.7298 59.7036 44.9187 59.6409C44.8557 59.6566 44.777 59.688 44.7141 59.7193C44.5882 59.7507 44.478 59.782 44.3521 59.7977C44.3049 59.7977 44.2891 59.8291 44.3993 59.7977C44.3678 59.7977 44.3049 59.7977 44.2734 59.7977C44.179 59.7977 44.1003 59.8134 44.0058 59.8134C43.8799 59.8134 43.7383 59.8134 43.6124 59.8134C43.5494 59.8134 43.4707 59.8134 43.4078 59.8134C43.3448 59.8134 43.1402 59.7664 43.3291 59.8134C43.2189 59.782 43.1087 59.782 42.9985 59.7507C42.9356 59.7507 42.8884 59.7193 42.8254 59.7036C42.7939 59.7036 42.7782 59.688 42.7467 59.6723C42.6838 59.6409 42.6838 59.6096 42.7782 59.688C42.7153 59.6252 42.5893 59.5939 42.5106 59.5469C42.4634 59.5155 42.4162 59.4841 42.3847 59.4528C42.369 59.4528 42.2903 59.39 42.3847 59.4528C42.4792 59.5155 42.3847 59.4528 42.369 59.4371C42.2903 59.3744 42.2274 59.3117 42.1644 59.2333C42.1172 59.1862 42.0385 59.0451 42.1487 59.2176C42.1172 59.1705 42.0857 59.1392 42.0542 59.0921C42.007 59.0137 41.9598 58.9353 41.9126 58.8413C41.8811 58.7942 41.8654 58.7472 41.8496 58.7001C41.8496 58.6845 41.8496 58.6688 41.8339 58.6531C41.8968 58.8099 41.7867 58.559 41.8339 58.6531C41.7552 58.4493 41.6922 58.2454 41.645 58.0416C41.6135 57.9161 41.5978 57.7907 41.5663 57.6653C41.5663 57.6026 41.5506 57.5398 41.5348 57.4928C41.5191 57.383 41.5506 57.6496 41.5348 57.5242C41.5348 57.4928 41.5348 57.4458 41.5348 57.4144C41.5034 57.1478 41.4876 56.8813 41.4719 56.6147C41.4404 56.0503 41.4562 55.4858 41.4562 54.9213C41.4562 54.6077 41.1886 54.3255 40.8581 54.3255C40.5276 54.3255 40.2757 54.5764 40.26 54.9213C40.26 55.9875 40.26 57.0694 40.4489 58.12C40.6377 59.0765 41.0784 60.0329 41.9441 60.5504C42.432 60.8483 43.0143 60.958 43.5651 60.9894C44.2104 61.0051 44.8872 60.9267 45.4695 60.6444C46.5083 60.1584 46.9018 59.0608 47.0119 58.0102C47.1221 56.9597 46.9647 55.8151 46.9647 54.7018C46.9647 54.3882 46.6972 54.106 46.3666 54.106C46.0361 54.106 45.7686 54.3568 45.7686 54.7018L45.8 54.7332Z" fill="#231F20"/>
<path d="M49.1053 45.0429C49.3257 45.1683 49.4516 45.5133 49.5617 45.7328C49.7034 46.0464 49.7978 46.36 49.9237 46.6736C50.1283 47.1754 50.3487 47.6771 50.5375 48.1945C50.9625 49.3392 51.3245 50.4995 51.5763 51.6911C51.9855 53.6354 52.2373 56.1128 51.0097 57.6965C50.2385 58.6843 48.9951 59.092 47.7675 59.1861C47.0121 59.2488 47.0121 60.4248 47.7675 60.3621C49.1368 60.2523 50.4903 59.8603 51.5133 58.8882C52.3632 58.0728 52.8197 56.9595 52.9928 55.8149C53.3705 53.2434 52.6623 50.5465 51.7809 48.1475C51.5448 47.5203 51.2615 46.8618 51.0254 46.2502C50.7107 45.4819 50.4746 44.4784 49.7034 44.0237C49.0424 43.6317 48.46 44.6509 49.1053 45.0429Z" fill="#231F20"/>
<path d="M59.5557 53.4943C59.5399 53.6668 59.5714 53.3689 59.5557 53.5414C59.5557 53.5727 59.5557 53.6041 59.54 53.6511C59.54 53.7295 59.5085 53.8236 59.4927 53.902C59.4613 54.0745 59.414 54.247 59.3668 54.4037C59.3196 54.5449 59.2724 54.7017 59.2252 54.8428C59.1937 54.9212 59.1622 54.9996 59.1307 55.078C59.1307 55.0937 59.0835 55.1877 59.1307 55.078C59.115 55.125 59.0835 55.1721 59.0678 55.2191C58.9261 55.5327 58.753 55.8306 58.5642 56.1128C58.4855 56.2383 58.391 56.3637 58.2966 56.4892C58.2651 56.5362 58.2336 56.5676 58.2022 56.6146C58.1549 56.6773 58.092 56.74 58.029 56.8028C57.8087 57.0536 57.5726 57.2732 57.3208 57.477C57.2893 57.5084 57.2578 57.524 57.2264 57.5554C57.305 57.4927 57.2421 57.5554 57.2264 57.5554C57.1634 57.6024 57.0847 57.6495 57.0218 57.6965C56.8801 57.7906 56.7385 57.8847 56.5968 57.9631C56.4709 58.0415 56.3293 58.1042 56.2033 58.1826C56.1246 58.2139 56.046 58.2453 55.9673 58.2923C56.0774 58.2453 55.983 58.2923 55.9673 58.2923C55.92 58.308 55.8571 58.3394 55.7941 58.3551C55.4794 58.4648 55.1646 58.5589 54.8341 58.6216C54.8026 58.6216 54.7711 58.6216 54.7396 58.6373C54.6924 58.6373 54.5822 58.653 54.6924 58.6373C54.5822 58.6373 54.4878 58.6687 54.3776 58.6687C54.1888 58.6687 53.9842 58.6843 53.7953 58.6687C53.6064 58.653 53.4176 58.653 53.2287 58.6216C53.1185 58.6216 53.3704 58.653 53.1972 58.6216C53.15 58.6216 53.0871 58.6059 53.0399 58.5903C52.9297 58.5746 52.8195 58.5432 52.7093 58.5275C52.4103 58.4491 52.0483 58.6216 51.9854 58.9352C51.9224 59.2488 52.0798 59.5781 52.3946 59.6565C53.937 60.0171 55.5581 59.829 56.9588 59.092C58.2494 58.4178 59.3353 57.2888 59.9806 55.9874C60.3741 55.1877 60.6259 54.3567 60.7204 53.4786C60.7518 53.165 60.4213 52.8828 60.1223 52.8828C59.776 52.8828 59.5714 53.1494 59.5242 53.4786L59.5557 53.4943Z" fill="#231F20"/>
<path d="M53.4176 57.038C55.4793 56.5206 56.5968 54.2 56.4866 52.2086C56.4551 51.6599 56.3292 51.1424 56.1246 50.6407C56.0302 50.4368 55.92 50.233 55.7941 50.0605C55.621 49.8253 55.4164 49.6372 55.2275 49.402C55.3062 49.4804 55.1488 49.3079 55.1646 49.2922C55.196 49.2922 55.1803 49.3863 55.196 49.3863C55.196 49.3549 55.1646 49.2765 55.196 49.3863C55.1331 49.496 55.1646 49.4333 55.2275 49.3863C55.1646 49.449 55.2275 49.3863 55.2433 49.3863C55.2905 49.3706 55.3219 49.3392 55.3692 49.3236C55.3692 49.3236 55.4951 49.2765 55.4164 49.2922C55.3377 49.3079 55.4479 49.2922 55.4636 49.2765C55.5266 49.2452 55.5895 49.2295 55.6682 49.2138C55.8098 49.1668 55.9515 49.1354 56.0931 49.1197C56.2033 49.104 56.1089 49.1197 56.0931 49.1197C56.1246 49.1197 56.1561 49.1197 56.1876 49.1197C56.2505 49.1197 56.3135 49.1197 56.3922 49.1197C56.5338 49.1197 56.6755 49.1197 56.8171 49.1354C56.9116 49.1354 56.7227 49.1197 56.8171 49.1354C56.8486 49.1354 56.8801 49.1354 56.9116 49.1511C56.9745 49.1511 57.0375 49.1824 57.1004 49.1981C57.2421 49.2295 57.368 49.2765 57.4939 49.3236C57.6041 49.3706 57.5096 49.3236 57.4939 49.3236C57.5254 49.3392 57.5726 49.3549 57.6041 49.3706C57.667 49.402 57.73 49.4333 57.8087 49.4647C57.9346 49.5431 58.0605 49.6215 58.1864 49.6999C58.2179 49.7156 58.2336 49.7312 58.2651 49.7626C58.1549 49.6842 58.2808 49.7783 58.2966 49.794C58.3595 49.841 58.4067 49.888 58.454 49.9351C58.5641 50.0448 58.6743 50.1546 58.7687 50.28C58.8317 50.3741 58.7845 50.2957 58.7687 50.28C58.7845 50.3114 58.8002 50.3271 58.8317 50.3584C58.8789 50.4212 58.9261 50.4996 58.9733 50.5623C59.052 50.6877 59.115 50.8131 59.1779 50.9543C59.1779 50.9229 59.1307 50.8445 59.1779 50.9543C59.1937 51.0013 59.2094 51.0483 59.2252 51.0954C59.2409 51.1581 59.2724 51.2208 59.2881 51.2835C59.3038 51.3619 59.3353 51.4403 59.3511 51.5344C59.3511 51.5658 59.3511 51.5971 59.3668 51.6285C59.3511 51.5187 59.3668 51.6285 59.3668 51.6755C59.3983 51.9735 59.6186 52.2714 59.9649 52.2714C60.2639 52.2714 60.5944 52.0048 60.5629 51.6755C60.437 50.3898 59.7288 49.2608 58.6271 48.5709C57.5254 47.881 56.1404 47.7556 54.9442 48.2887C54.5822 48.4455 54.2045 48.7121 54.1101 49.1197C53.9842 49.5744 54.1888 49.9821 54.4878 50.3114C54.5822 50.4212 54.6924 50.5152 54.7868 50.625C54.8026 50.6407 54.8183 50.672 54.834 50.6877C54.8813 50.7504 54.7711 50.5936 54.8183 50.672C54.8498 50.7347 54.897 50.7818 54.9285 50.8445C54.9914 50.9386 55.0386 51.0327 55.0859 51.1267C55.0859 51.1581 55.1803 51.3463 55.1173 51.1895C55.1331 51.2522 55.1646 51.2992 55.1803 51.3619C55.2118 51.4717 55.259 51.5815 55.2747 51.7069C55.2747 51.7539 55.3062 51.8167 55.3062 51.8794C55.3062 51.9107 55.3062 51.9421 55.3062 51.9578C55.3062 51.9735 55.3219 52.0989 55.3062 52.0048C55.3062 51.9107 55.3062 52.0048 55.3062 52.0362C55.3062 52.0675 55.3062 52.1146 55.3062 52.1459C55.3062 52.2086 55.3062 52.2557 55.3062 52.3184C55.3062 52.4438 55.3062 52.585 55.3062 52.7104C55.3062 52.8202 55.2905 52.9456 55.2747 53.0554C55.2747 53.0867 55.259 53.1651 55.2747 53.024C55.2747 53.0554 55.2747 53.0867 55.2747 53.1181C55.2747 53.1965 55.2433 53.2592 55.2275 53.3376C55.1803 53.5885 55.1016 53.8237 55.0229 54.0589C55.0229 54.0902 54.9127 54.2941 54.9914 54.1686C54.96 54.2313 54.9442 54.2941 54.9127 54.3411C54.8498 54.4665 54.7868 54.5763 54.7081 54.7017C54.6294 54.8272 54.5508 54.9213 54.4878 55.031C54.5822 54.9213 54.4406 55.1094 54.4878 55.031C54.4721 55.0624 54.4406 55.078 54.4248 55.1094C54.3776 55.1564 54.3461 55.2035 54.2989 55.2505C54.2045 55.3446 54.0943 55.4387 53.9999 55.5328C53.9684 55.5484 53.9055 55.5955 54.0156 55.5171C53.9842 55.5328 53.9527 55.5641 53.9369 55.5798C53.874 55.6268 53.8268 55.6582 53.7638 55.6896C53.6536 55.7523 53.5435 55.815 53.4176 55.862C53.5592 55.7993 53.3703 55.862 53.3231 55.8934C53.2602 55.9091 53.1972 55.9404 53.1185 55.9561C52.8037 56.0345 52.6306 56.3795 52.7093 56.6774C52.788 56.9753 53.1185 57.1635 53.4333 57.0851L53.4176 57.038Z" fill="#231F20"/>
<path d="M45.6581 19.6434C44.9971 19.6434 44.1944 19.4709 43.738 19.4395C41.9438 19.3141 40.0551 19.1259 38.3238 19.22C36.8916 19.2984 35.0974 19.3611 33.7281 19.7688C33.3189 19.3768 32.9097 18.9691 32.5163 18.5614C30.061 16.0213 26.1735 15.3628 22.6638 15.8488C20.2086 16.1938 21.2316 17.4011 22.1287 18.8594C22.4435 19.3611 24.8043 23.1086 24.4265 23.5476C23.0415 25.1313 21.7352 26.8717 20.8224 28.7847C20.4446 29.5843 19.8308 30.8074 19.9253 31.7168C20.0512 32.8771 21.1529 32.3753 21.8611 31.5914C20.9325 32.5949 20.4132 33.912 20.0197 35.2291C19.7521 36.1228 19.8308 36.8598 19.9253 37.7535C19.941 37.973 19.9725 38.2082 20.1456 38.3494C20.3817 38.5532 20.7437 38.4121 21.027 38.2553C21.5149 37.9887 21.9713 37.6751 22.412 37.3302C21.8139 37.8006 21.4204 40.9365 21.2473 41.7362C21.1686 42.1595 20.8381 45.9541 21.987 44.4018C22.5379 43.6491 23.3248 43.069 24.2062 42.7711C24.7571 43.7589 23.8599 45.0603 24.3321 46.0952C24.3793 46.2049 24.458 46.3304 24.5839 46.3774C24.9617 46.5499 25.8588 45.6561 26.1735 45.4209C26.9762 44.7938 28.0937 44.8094 29.0065 45.2171C30.0138 45.6875 30.3128 46.7537 31.3201 47.1614C33.4606 48.0081 35.8214 48.0708 38.1192 48.1179C41.4559 48.1963 44.8239 48.259 48.0504 47.475C49.0104 47.2398 49.9863 46.9262 50.8361 46.3931C51.5129 45.9697 52.2684 45.0446 53.1183 45.0446C54.8653 44.8565 56.7224 45.4053 58.0602 46.5499C58.2806 46.7381 58.6898 45.123 58.6898 44.9349C58.6898 44.1352 58.2176 43.2258 57.7927 42.5672C58.3907 42.6143 58.6111 43.6335 59.2878 43.3042C60.0433 42.9435 59.5082 41.0933 59.3351 40.5602C59.0203 39.6037 58.5796 38.7257 58.1704 37.8162C58.4222 38.0985 58.9416 37.973 59.1619 37.6594C59.3823 37.3458 59.398 36.9382 59.3665 36.5619C59.2564 34.8214 58.6583 33.1123 57.651 31.6854C57.9973 32.1872 59.5082 33.0182 60.0118 32.3126C60.185 32.0774 60.1692 31.7482 60.122 31.4659C59.9017 29.7725 59.2878 28.1261 58.3278 26.7149C57.4622 25.4135 55.8568 24.7706 56.3132 23.0772C56.8641 20.9918 57.5881 18.9378 58.4694 16.9621C58.5953 16.6955 58.7212 16.4133 58.737 16.0997C58.7685 15.3314 57.8556 14.9708 57.2261 14.9081C53.8737 14.5474 50.3955 15.6764 47.8458 17.8715C47.4051 18.2479 46.9329 19.267 46.5237 19.5022C46.3191 19.612 46.0358 19.6434 45.7053 19.6434H45.6581Z" fill="#5C564D"/>
<path d="M51.0566 45.766C51.0566 45.766 51.0094 45.7033 50.9779 45.6719C51.7176 43.9472 51.513 41.4854 50.5057 39.9174C49.5142 38.3651 48.019 37.9575 46.3035 37.5028C44.9185 37.1421 44.0056 36.954 43.0141 35.8877C40.7792 33.473 41.2671 29.3493 43.3603 26.9502C44.9499 25.1157 46.4137 22.4972 45.0916 20.1295C44.3676 18.8438 42.778 19.1574 41.5189 19.1103C40.4172 19.0633 36.0576 18.6243 35.6011 19.9571C35.1132 21.3682 35.1762 23.7202 35.7113 25.1314C36.3251 26.7621 37.9147 27.8754 38.0879 29.6629C38.261 31.5288 37.836 33.6298 36.8288 35.2292C35.8215 36.8285 34.106 37.3146 32.4534 38.0045C31.5405 38.3808 30.5962 38.8042 30.0139 39.5882C29.3371 40.5133 29.0538 41.7363 29.0381 42.8496C29.0381 43.7904 29.526 45.2486 30.1241 45.9855C29.8093 46.0639 29.7306 46.4559 29.7463 46.7852C29.7621 47.8985 30.1555 49.1215 30.7693 50.0466C31.5091 51.1599 32.7682 51.9282 34.106 52.0693C34.405 52.1007 34.7198 52.1006 34.9873 52.2261C35.2864 52.3515 35.5067 52.6024 35.7585 52.7906C36.4982 53.355 37.474 53.4805 38.3869 53.7313C39.2997 53.9822 40.2598 54.4213 40.5903 55.2836C40.2913 54.4997 42.479 53.308 42.9669 53.1355C44.2889 52.6494 45.5165 52.0536 46.7284 51.2696C48.0347 51.9595 49.2781 51.5989 50.3326 50.6738C51.5602 49.5919 52.2055 47.1458 51.0881 45.766H51.0566Z" fill="white"/>
<path d="M49.6558 20.5055C50.3169 20.8191 50.9621 21.1171 51.6232 21.4307C52.4416 21.807 53.0869 21.1955 53.4489 20.5055C53.9525 19.5648 55.2273 18.1536 53.4961 17.9341C52.6147 17.8243 51.6546 18.4828 50.8992 18.8435C50.4742 19.0473 48.4912 19.9724 49.6401 20.5212L49.6558 20.5055Z" fill="white"/>
<path d="M25.0562 19.1731C25.0247 19.2828 25.009 19.4239 25.0247 19.5651C25.0562 19.9884 25.2765 20.3491 25.4969 20.7097C26.095 21.6818 26.8976 22.3247 28.0151 21.87C28.6446 21.6191 29.9037 19.9414 30.6749 20.4118C29.825 19.8787 28.9437 19.3926 28.0151 19.0006C27.9521 18.9849 27.8105 18.9222 27.7633 18.9065C27.6216 18.8595 27.4642 18.8124 27.3068 18.7654C27.118 18.7184 26.9291 18.6713 26.7245 18.6243C26.095 18.4675 25.2608 18.5302 25.0562 19.1417V19.1731Z" fill="white"/>
<path d="M29.1639 47.8825C29.4944 49.7641 30.6905 51.5202 32.3588 52.4924C32.8153 52.7589 33.3189 52.9628 33.8383 53.1039C34.1373 53.1823 34.4993 53.0098 34.5623 52.6962C34.6252 52.3826 34.4678 52.0533 34.153 51.9749C33.9484 51.9279 33.7438 51.8652 33.5392 51.7868C33.5235 51.7868 33.492 51.7711 33.4763 51.7554C33.3661 51.7084 33.5865 51.8025 33.5078 51.7554C33.4605 51.7397 33.4133 51.7084 33.3661 51.6927C33.2717 51.6457 33.1772 51.5986 33.0828 51.5516C32.894 51.4575 32.7208 51.3477 32.5477 51.2223C32.5005 51.1909 32.4533 51.1596 32.4061 51.1282C32.3903 51.1282 32.3746 51.0969 32.3588 51.0812C32.4847 51.1753 32.4218 51.1282 32.3903 51.1125C32.2959 51.0341 32.2172 50.9714 32.1228 50.893C31.9654 50.7519 31.808 50.5951 31.6506 50.4383C31.5876 50.3599 31.5247 50.2972 31.4617 50.2188C31.4302 50.1718 31.3988 50.1404 31.3673 50.0934C31.4775 50.2345 31.3673 50.0934 31.3358 50.0463C31.0683 49.6857 30.8479 49.3094 30.6748 48.9017C30.6748 48.886 30.6591 48.8546 30.6433 48.839C30.722 48.9958 30.6591 48.886 30.6433 48.839C30.6276 48.7919 30.5961 48.7292 30.5804 48.6822C30.5331 48.5724 30.5017 48.447 30.4544 48.3372C30.3758 48.0863 30.3285 47.8511 30.2813 47.6003C30.2341 47.3023 29.8406 47.0985 29.5573 47.1926C29.2268 47.3023 29.0852 47.5846 29.1481 47.9139L29.1639 47.8825Z" fill="#231F20"/>
<path d="M33.7439 50.1249C34.1059 51.1284 34.5938 52.1633 35.3808 52.9159C35.79 53.3079 36.2779 53.6058 36.8287 53.7783C37.112 53.8724 37.3953 53.9194 37.6786 53.9978C37.7416 54.0135 37.8045 54.0448 37.8832 54.0605C38.0406 54.1076 37.8203 54.0292 37.8832 54.0605C37.9147 54.0605 37.9462 54.0919 37.9619 54.0919C38.0878 54.1546 38.2137 54.2173 38.3239 54.2957C38.3554 54.3114 38.3711 54.3271 38.4026 54.3428C38.4026 54.3428 38.5442 54.4368 38.4813 54.3898C38.4183 54.3428 38.497 54.3898 38.5128 54.4212C38.5442 54.4525 38.5757 54.4682 38.6072 54.4996C38.7331 54.6093 38.8433 54.7034 38.9535 54.8288C39.1738 55.0483 39.3941 55.2992 39.5987 55.5344C39.8033 55.7696 40.2283 55.7539 40.4329 55.5344C40.6532 55.2835 40.6532 54.9543 40.4329 54.7034C40.0709 54.2957 39.7089 53.888 39.284 53.5588C39.0479 53.3706 38.8118 53.1981 38.5442 53.0727C38.2452 52.9316 37.9462 52.8375 37.6314 52.7591C37.4898 52.7277 37.3481 52.6964 37.2065 52.6493C37.1435 52.6337 37.0805 52.6023 37.0019 52.5866C36.9704 52.5866 36.9389 52.5553 36.9074 52.5553C37.0176 52.6023 36.8445 52.5239 36.9074 52.5553C36.7972 52.5082 36.7028 52.4455 36.5926 52.3985C36.5454 52.3671 36.4982 52.3357 36.451 52.3044C36.4353 52.3044 36.4038 52.273 36.388 52.2573C36.4825 52.3357 36.3251 52.2103 36.388 52.2573C36.1992 52.1005 36.026 51.9281 35.8687 51.7399C35.8529 51.7242 35.8372 51.6929 35.8214 51.6772C35.8214 51.6772 35.7585 51.5831 35.8057 51.6458C35.8529 51.7086 35.8057 51.6458 35.79 51.6145C35.7742 51.5988 35.7585 51.5674 35.7427 51.5518C35.6641 51.442 35.6011 51.3322 35.5224 51.2225C35.3808 50.9873 35.2391 50.7364 35.1289 50.4855C35.0975 50.4228 35.0817 50.3601 35.0502 50.2974C35.003 50.2033 35.0502 50.2974 35.0502 50.3131C35.0345 50.2817 35.0188 50.2347 35.003 50.1876C34.9558 50.0465 34.8929 49.9211 34.8456 49.7799C34.7355 49.4977 34.4364 49.2625 34.1217 49.3723C33.8384 49.4663 33.6023 49.7799 33.7125 50.0935L33.7439 50.1249Z" fill="#231F20"/>
<path d="M41.5503 54.3112C41.4244 54.2485 41.7077 54.5307 41.7077 54.5464C41.7235 54.5934 41.7235 54.6718 41.7077 54.7189C41.692 54.8129 41.6763 54.7973 41.7077 54.7502C41.7392 54.6718 41.7077 54.7345 41.7077 54.7502C41.7235 54.7189 41.7549 54.7032 41.7707 54.6875C41.8494 54.6405 41.7864 54.6561 41.7707 54.6875C41.8494 54.6405 41.9281 54.6091 42.0068 54.5621C42.353 54.3896 42.6993 54.2171 43.0613 54.0446C43.7538 53.6997 44.4305 53.3547 45.123 53.0098C46.209 52.461 47.4524 51.9592 48.2708 51.0184C48.7272 50.4853 49.0262 49.8424 48.9948 49.1368C48.9948 48.8233 48.7272 48.541 48.3967 48.541C48.0662 48.541 47.7986 48.7919 47.7986 49.1368C47.7986 49.1996 47.7986 49.2623 47.7986 49.3407C47.7986 49.3407 47.7829 49.4975 47.7986 49.4034C47.7986 49.325 47.7986 49.4191 47.7986 49.4348C47.7986 49.4975 47.7671 49.5602 47.7514 49.6229C47.7514 49.6543 47.7357 49.6856 47.7199 49.717C47.7042 49.7797 47.6885 49.7954 47.7199 49.717C47.657 49.8424 47.594 49.9522 47.5311 50.062C47.5153 50.0933 47.4996 50.109 47.4838 50.1404C47.5468 50.0776 47.4366 50.2188 47.4838 50.1404C47.4366 50.2031 47.3737 50.2658 47.3265 50.3285C47.232 50.4226 47.1376 50.5167 47.0432 50.5951C47.0117 50.6264 46.9802 50.6421 46.9487 50.6735C46.933 50.6735 46.8543 50.7362 46.9487 50.6735C46.8858 50.7205 46.8228 50.7675 46.7599 50.8146C46.5238 50.9871 46.272 51.1282 46.0044 51.2693C45.3434 51.6299 44.6666 51.9435 43.9898 52.2885C43.2659 52.6491 42.5576 53.0098 41.8336 53.3704C41.4402 53.5742 41.0467 53.731 40.7791 54.1073C40.4958 54.4993 40.5116 55.1265 40.9995 55.3617C41.267 55.5028 41.6605 55.4401 41.8022 55.1579C41.9438 54.8913 41.8809 54.4993 41.5976 54.3582L41.5503 54.3112Z" fill="#231F20"/>
<path d="M31.5404 36.5303C32.3923 36.5303 33.0828 35.8423 33.0828 34.9937C33.0828 34.145 32.3923 33.457 31.5404 33.457C30.6886 33.457 29.998 34.145 29.998 34.9937C29.998 35.8423 30.6886 36.5303 31.5404 36.5303Z" fill="#231F20"/>
<path d="M47.5468 36.5303C48.3986 36.5303 49.0892 35.8423 49.0892 34.9937C49.0892 34.145 48.3986 33.457 47.5468 33.457C46.6949 33.457 46.0044 34.145 46.0044 34.9937C46.0044 35.8423 46.6949 36.5303 47.5468 36.5303Z" fill="#231F20"/>
<path d="M39.5515 38.7726C41.1944 38.7726 42.5261 37.9512 42.5261 36.9381C42.5261 35.9249 41.1944 35.1035 39.5515 35.1035C37.9087 35.1035 36.5769 35.9249 36.5769 36.9381C36.5769 37.9512 37.9087 38.7726 39.5515 38.7726Z" fill="#231F20"/>
<path d="M22.3019 20.4274C22.9157 21.2584 23.4823 22.1365 23.9072 23.0772C23.9544 23.1713 23.9859 23.2497 24.0331 23.3438C24.0331 23.3595 24.0489 23.3908 24.0646 23.4065C24.0017 23.2654 24.0331 23.3281 24.0489 23.3595C24.0646 23.4065 24.0961 23.4536 24.1118 23.5006C24.1748 23.6731 24.2377 23.8456 24.3007 24.0023C24.4109 24.3003 24.5053 24.5982 24.5997 24.8961C24.6942 25.194 24.8043 25.5076 24.9145 25.8055C24.9775 25.9466 25.0404 26.0721 25.1821 26.1505C25.308 26.2289 25.4968 26.2602 25.6385 26.2132C25.906 26.1191 26.1736 25.7898 26.0477 25.4919C25.8116 24.9431 25.6542 24.363 25.4654 23.7985C25.1821 22.9988 24.8358 22.2149 24.4109 21.4622C24.0804 20.8978 23.7184 20.349 23.3249 19.8315C23.136 19.5806 22.8055 19.4395 22.5222 19.6277C22.2704 19.7845 22.113 20.1608 22.3176 20.4274H22.3019Z" fill="#231F20"/>
<path d="M22.349 18.5771C22.1758 18.3105 22.0184 18.044 21.8453 17.7931C21.7509 17.652 21.6722 17.5109 21.5778 17.3697C21.5148 17.26 21.4361 17.0405 21.3259 16.9777C21.2158 16.8993 21.3889 16.9464 21.2787 17.0091C21.0741 17.1032 21.3732 17.0405 21.3102 17.0405C21.3732 17.0405 21.4833 16.9934 21.5463 16.9777C21.7981 16.915 22.0499 16.868 22.286 16.8209C23.2461 16.6328 24.2219 16.5544 25.2134 16.5701C27.1021 16.5858 29.0222 16.9934 30.6747 17.9342C31.6663 18.483 32.5319 19.2043 33.2716 20.0667C33.7753 20.6468 34.5937 19.8001 34.1058 19.2356C30.9895 15.6293 26.0003 14.8139 21.5148 15.7861C20.838 15.9272 20.0826 16.2408 20.1455 17.0561C20.177 17.4481 20.4288 17.7617 20.6334 18.0753C20.8695 18.436 21.1056 18.8123 21.3417 19.1729C21.7509 19.8158 22.7739 19.22 22.3647 18.5771H22.349Z" fill="#231F20"/>
<path d="M25.7172 27.0754C26.8189 25.6956 28.1724 24.5823 29.7463 23.7669C30.3444 23.4533 29.9351 22.5282 29.2899 22.685C28.8492 22.7948 28.4714 22.8732 28.0308 22.7164C27.9049 22.6694 27.7632 22.6066 27.6373 22.5439C27.6845 22.5753 27.4956 22.4498 27.4956 22.4498C27.4642 22.4498 27.3855 22.7791 27.417 22.7948C27.4799 22.8262 28.0622 22.4655 28.1567 22.4185C28.5501 22.2303 28.9593 22.0578 29.3686 21.901C31.1156 21.2111 32.9098 20.678 34.7669 20.3331C38.497 19.6275 42.3845 19.6745 46.0988 20.4585C48.2708 20.9132 50.3798 21.5874 52.4101 22.4969L52.1425 21.8383C51.9851 22.4342 50.3798 22.0735 49.9548 22.0108C49.3725 21.9324 49.1521 22.8732 49.6558 23.1084C51.6389 24.0335 53.3701 25.3663 54.7394 27.0754C55.2116 27.6712 56.0457 26.8245 55.5735 26.2443C54.1413 24.4725 52.3156 23.0457 50.2539 22.0892L49.9548 23.1868C51.0723 23.3279 52.9137 23.5945 53.2757 22.1519C53.3386 21.9167 53.2442 21.5874 53.0081 21.4934C44.8869 17.887 35.5539 17.7302 27.4484 21.4934C27.1022 21.6502 26.6615 21.8383 26.4569 22.1676C26.2208 22.5596 26.3782 23.0143 26.6772 23.3122C27.4642 24.0649 28.6288 24.1119 29.6204 23.8453L29.1639 22.7634C27.5114 23.6258 26.0477 24.8018 24.883 26.26C24.4109 26.8402 25.245 27.6869 25.7172 27.0911V27.0754Z" fill="#231F20"/>
<path d="M47.0117 19.1415C48.9003 17.009 51.7176 16.0526 54.4719 15.6762C55.2116 15.5822 55.967 15.5194 56.7225 15.5038C57.1789 15.5038 57.8399 15.5194 58.1232 15.833C58.1705 15.8801 58.1862 15.8958 58.1862 15.9428C58.1862 16.0212 58.1547 16.1623 58.1075 16.2564C57.9344 16.6484 57.714 17.0247 57.5252 17.4167C57.1632 18.185 56.8327 18.9847 56.5336 19.7843C55.8726 21.6346 55.4477 23.5475 55.2273 25.4918C55.1958 25.8054 55.5264 26.0876 55.8254 26.0876C56.1716 26.0876 56.3762 25.8211 56.4235 25.4918C56.6281 23.6886 57.053 21.9168 57.6511 20.2077C57.9501 19.361 58.2964 18.53 58.7056 17.7146C59.0676 16.9777 59.6656 16.1623 59.225 15.3313C58.8787 14.6884 58.1232 14.4532 57.4465 14.3591C56.7068 14.2651 55.9356 14.3591 55.2116 14.4219C53.6377 14.5787 52.0638 14.8609 50.5687 15.4254C48.9161 16.0526 47.3737 16.9777 46.1933 18.3104C45.6896 18.8749 46.5238 19.7059 47.0274 19.1415H47.0117Z" fill="#231F20"/>
<path d="M49.7501 20.1139C49.7501 20.1139 49.8918 19.9884 49.9705 19.9414C49.9862 19.9257 50.0177 19.91 50.0334 19.8943C50.0334 19.8943 49.9232 19.9727 49.9862 19.9257C50.0177 19.8943 50.0492 19.8787 50.0964 19.8473C50.2538 19.7375 50.4111 19.6278 50.5685 19.5337C50.8833 19.3455 51.2138 19.1731 51.5601 19.0163L51.4184 19.079C52.0165 18.8281 52.646 18.6556 53.2913 18.5616H53.134C53.134 18.5616 53.1812 18.5616 53.1969 18.5616C53.3543 18.5459 53.4959 18.5145 53.6218 18.3891C53.732 18.2793 53.795 18.1225 53.795 17.9657C53.795 17.8089 53.732 17.6521 53.6218 17.5424C53.5117 17.4483 53.3543 17.3542 53.1969 17.3699C51.985 17.5267 50.8204 17.9344 49.7973 18.5929C49.4983 18.7967 49.1993 19.0163 48.9317 19.2515C48.6956 19.4553 48.7114 19.8787 48.9317 20.0825C49.1835 20.3177 49.514 20.302 49.7659 20.0825L49.7501 20.1139Z" fill="#231F20"/>
<path d="M24.8987 19.2513C25.3551 19.2199 25.8116 19.2513 26.268 19.2826C26.3309 19.2826 26.3309 19.2826 26.2365 19.2826C26.268 19.2826 26.2995 19.2826 26.3152 19.2826C26.3782 19.2826 26.4254 19.2983 26.4883 19.314C26.5985 19.3297 26.7087 19.361 26.8188 19.3767C27.0392 19.4238 27.2438 19.4865 27.4641 19.5492C27.6845 19.6119 27.8891 19.6903 28.0937 19.7844C27.9363 19.7217 28.1252 19.7844 28.1566 19.8158C28.2039 19.8314 28.2668 19.8628 28.314 19.8942C28.4242 19.9412 28.5186 19.9882 28.6131 20.0509C28.8177 20.1607 29.0065 20.2705 29.1954 20.3959C29.2898 20.4586 29.3843 20.5213 29.4787 20.5997C29.5102 20.6154 29.6676 20.7252 29.5259 20.6311C29.5731 20.6625 29.6203 20.7095 29.6518 20.7409C29.8879 20.929 30.2499 20.9917 30.486 20.7409C30.6906 20.5213 30.7378 20.1137 30.486 19.9098C29.2426 18.8906 27.7474 18.2791 26.1421 18.1067C25.7171 18.0596 25.2922 18.0596 24.883 18.0753C24.5682 18.091 24.2849 18.3262 24.2849 18.6711C24.2849 18.969 24.5525 19.2826 24.883 19.267L24.8987 19.2513Z" fill="#231F20"/>
<path d="M23.1202 24.504C22.1287 25.7113 21.1372 26.95 20.3974 28.3298C20.0354 29.0041 19.7207 29.741 19.5161 30.478C19.4059 30.87 19.3429 31.262 19.2957 31.654C19.2485 32.093 19.2642 32.6104 19.6892 32.8613C20.2558 33.2063 20.7752 32.7672 21.2001 32.438C21.6093 32.14 22.0343 31.8264 22.4435 31.5285C22.6953 31.3404 22.8369 31.0111 22.6481 30.7289C22.4907 30.478 22.113 30.3212 21.8454 30.525C21.5306 30.7602 21.2158 30.9954 20.9011 31.2306C20.7437 31.3404 20.5863 31.4658 20.4289 31.5756C20.3502 31.6383 20.2715 31.701 20.1928 31.748C20.1614 31.7794 20.1299 31.7951 20.0984 31.8108C20.0197 31.8578 20.0512 31.8264 20.1456 31.8264C20.2558 31.8264 20.4289 32.0146 20.4289 32.0146C20.4289 32.0146 20.4761 32.0616 20.4289 31.9989C20.4761 32.0616 20.4289 32.0773 20.4289 31.9989C20.4289 31.9676 20.4289 31.9362 20.4289 31.9048C20.4289 31.8264 20.4289 31.748 20.4604 31.654C20.4604 31.5285 20.4604 31.6069 20.4604 31.6226C20.4604 31.5756 20.4604 31.5285 20.4919 31.4658C20.5548 31.1365 20.6335 30.8073 20.7279 30.4937C20.9325 29.8508 21.1372 29.3804 21.4834 28.7846C21.8297 28.1887 22.1916 27.6243 22.5851 27.0755C23.0415 26.4483 23.4507 25.9465 23.9386 25.335C24.1275 25.0998 24.1905 24.7392 23.9386 24.504C23.7183 24.3001 23.3091 24.2531 23.1045 24.504H23.1202Z" fill="#231F20"/>
<path d="M22.1916 31.654C22.9471 31.654 22.9471 30.478 22.1916 30.478C21.4361 30.478 21.4361 31.654 22.1916 31.654Z" fill="#231F20"/>
<path d="M21.8296 30.6975C20.1456 32.5007 19.1698 34.9937 19.3114 37.4712C19.3272 37.8475 19.4846 38.2081 19.7993 38.4433C20.1771 38.7412 20.7279 38.7099 20.964 38.2551C21.1056 37.9886 21.0427 37.5966 20.7594 37.4555C20.4918 37.3144 20.0984 37.3771 19.9567 37.6593C19.9095 37.7534 19.9095 37.7063 20.1298 37.5809C20.2715 37.5025 20.303 37.4555 20.4289 37.4868C20.539 37.5182 20.5233 37.5339 20.4761 37.4868C20.4761 37.4868 20.5863 37.5339 20.5233 37.5182C20.5233 37.5182 20.4918 37.4868 20.4761 37.4712C20.4761 37.4712 20.5548 37.5496 20.5076 37.5025C20.5076 37.5025 20.4446 37.4084 20.4918 37.4712C20.539 37.5339 20.4918 37.4712 20.4918 37.4398C20.4918 37.3771 20.4918 37.4868 20.4918 37.5025V37.4241C20.4918 37.3614 20.4918 37.2987 20.4918 37.236C20.4918 37.1105 20.4918 36.9694 20.4918 36.844C20.4918 36.5931 20.5076 36.3422 20.539 36.0913C20.539 36.06 20.5548 35.9189 20.539 35.9816C20.539 36.0443 20.539 35.9502 20.539 35.9502C20.539 35.9189 20.539 35.8718 20.5548 35.8405C20.5705 35.715 20.602 35.5896 20.6177 35.4641C20.7122 34.9781 20.8538 34.5077 21.0427 34.053C21.0584 33.9902 21.0899 33.9275 21.1214 33.8648C21.0899 33.9589 21.1371 33.8334 21.1529 33.8021C21.2001 33.6766 21.263 33.5669 21.326 33.4571C21.4362 33.2376 21.5621 33.0181 21.688 32.7986C21.8296 32.5634 21.987 32.3282 22.1601 32.1087C22.1759 32.0773 22.2074 32.0459 22.2231 32.0146C22.2703 31.9519 22.3175 31.9048 22.3647 31.8421C22.4592 31.7323 22.5536 31.6226 22.6638 31.5128C22.8684 31.2933 22.8999 30.9013 22.6638 30.6818C22.4277 30.4623 22.05 30.4466 21.8296 30.6818V30.6975Z" fill="#231F20"/>
<path d="M22.7739 35.5426C21.4047 38.6472 20.0039 41.8302 20.6649 45.2954C20.7751 45.8599 21.4676 45.7972 21.7509 45.4365C22.1286 44.9505 22.5536 44.4958 23.0257 44.0881C23.2461 43.8999 23.4822 43.7118 23.7182 43.5393C23.9386 43.3825 24.1904 43.1473 24.4737 43.163L24.0488 42.1595C23.7497 42.4103 23.7497 42.9748 23.7025 43.3198C23.6396 43.8372 23.5923 44.3546 23.5609 44.8721C23.5451 45.217 23.4979 45.6247 23.5923 45.954C23.7655 46.4871 24.2376 47.0672 24.8514 47.0672C25.843 47.0672 26.2522 45.7972 27.1021 45.4993C27.7474 45.2641 28.4241 45.6561 28.9435 46.0167C29.5573 46.44 30.1239 46.9104 30.7692 47.2868C32.5634 48.3216 34.5465 48.8391 36.5925 48.353C37.3323 48.1805 37.0175 47.0516 36.2778 47.224C34.7039 47.6004 33.1615 47.224 31.7607 46.4871C31.1155 46.1578 30.5489 45.7501 29.9665 45.3268C29.4157 44.9191 28.8333 44.5114 28.1723 44.339C26.9289 44.041 26.0476 44.6526 25.2292 45.4993C25.1505 45.5777 25.0718 45.6561 24.9931 45.7345C24.9616 45.7658 24.82 45.8913 24.8987 45.8285C24.8672 45.8599 24.82 45.8756 24.7885 45.8913C24.8672 45.8913 24.757 45.9069 24.7885 45.8913C24.7885 45.8913 24.9301 45.8913 24.82 45.8913C24.8514 45.8913 24.8829 45.8913 24.9301 45.9069C24.9773 45.9226 24.9616 45.9069 24.9301 45.9069C24.9459 45.8913 24.9773 45.9697 24.9301 45.8913C24.9616 45.954 24.8829 45.8129 24.8672 45.8129C24.8357 45.7658 24.8042 45.6561 24.757 45.6247C24.757 45.6247 24.757 45.7501 24.757 45.5933C24.757 45.4993 24.757 45.4052 24.757 45.3111C24.757 44.8093 24.8042 44.2919 24.8514 43.7902C24.8829 43.5393 24.8987 43.3511 24.9301 43.163C24.9301 43.0846 24.9616 43.0062 24.9773 42.9278C25.0088 42.7396 24.9773 42.9278 24.8987 42.9905C25.3079 42.6455 24.9616 42.0027 24.4737 41.987C23.671 41.9556 22.9628 42.6142 22.3805 43.1002C21.7509 43.6177 21.2158 44.2135 20.7279 44.8407L21.8139 44.9818C21.2158 41.8772 22.5693 38.9137 23.7969 36.1384C23.9229 35.8405 23.8756 35.5112 23.5923 35.3387C23.3405 35.1976 22.9156 35.2603 22.7897 35.5426H22.7739Z" fill="#231F20"/>
<path d="M56.4549 25.3351C57.5881 26.6992 58.4537 28.2985 58.9888 29.9763C59.1147 30.384 59.2406 30.8073 59.335 31.2307C59.3665 31.4031 59.4137 31.5286 59.398 31.7011C59.398 31.7481 59.3823 31.7951 59.3823 31.8422C59.3823 31.8735 59.3823 31.8892 59.3823 31.8579C59.3193 31.9363 59.3351 31.9363 59.4295 31.8422H59.461C59.461 31.8422 59.5239 31.8108 59.461 31.7951C59.4295 31.7324 59.2091 31.654 59.1619 31.6227C58.9416 31.4972 58.737 31.3875 58.5166 31.262C58.0602 30.9955 57.5881 30.7289 57.1316 30.478C56.628 30.1958 55.9984 30.776 56.329 31.2777C57.5251 33.1906 58.8157 35.2604 58.7842 37.5967C58.7842 38.3493 59.9489 38.3493 59.9646 37.5967C60.0118 35.0409 58.6583 32.783 57.352 30.6819L56.5493 31.4815C57.1159 31.8108 57.6825 32.1244 58.2491 32.4537C58.737 32.7359 59.2721 33.1436 59.8544 32.9398C60.9247 32.5791 60.5941 31.1836 60.3738 30.384C59.8072 28.2201 58.7527 26.2131 57.3205 24.4884C57.1159 24.2375 56.6909 24.2845 56.4863 24.4884C56.2345 24.7392 56.2817 25.0685 56.4863 25.3194L56.4549 25.3351Z" fill="#231F20"/>
<path d="M56.2974 36.0127C57.9185 38.3333 58.8786 41.0459 59.0202 43.8526L60.0275 43.4293C59.3822 42.9275 58.611 42.5669 58.0444 41.9554C57.6037 41.4693 56.7223 42.1122 57.1158 42.661C57.5093 43.2097 57.8241 43.8526 57.9657 44.5268C58.0916 45.1227 58.0601 45.7342 57.6195 46.1732L58.3277 46.0791C57.2889 45.4833 56.2817 44.7777 55.1013 44.4641C53.9838 44.1819 52.7404 44.2446 51.7489 44.9032C51.4814 45.0756 51.3712 45.4206 51.5443 45.7028C51.7017 45.9694 52.0794 46.0948 52.347 45.9067C54.1569 44.715 56.1558 46.1889 57.7296 47.0827C57.95 47.2081 58.2647 47.1767 58.4379 46.9886C59.7757 45.6088 59.0989 43.4293 58.1074 42.0494L57.1788 42.755C57.7454 43.3665 58.5008 43.7272 59.1619 44.2289C59.3507 44.3701 59.5711 44.4485 59.8071 44.3544C60.0117 44.2603 60.1849 44.0565 60.1691 43.8213C60.0117 40.8107 59.0202 37.8629 57.2732 35.3855C57.0843 35.119 56.7538 35.0092 56.4705 35.1817C56.2187 35.3385 56.0771 35.7305 56.2659 35.9814L56.2974 36.0127Z" fill="#231F20"/>
<path d="M44.9183 48.6821C47.0902 48.7291 49.2779 48.0862 51.0879 46.8789C51.6072 46.5339 52.1109 46.1419 52.5516 45.7029C52.7719 45.4834 52.7876 45.0757 52.5516 44.8719C52.3155 44.668 51.9535 44.6367 51.7174 44.8719C51.5285 45.0444 51.3397 45.2168 51.1508 45.3736C51.1036 45.405 51.0564 45.452 51.0092 45.4834C51.0092 45.4834 50.9305 45.5461 50.9777 45.5148C51.0249 45.4834 50.9462 45.5461 50.9462 45.5461C50.8518 45.6245 50.7416 45.7029 50.6314 45.7656C50.2065 46.0635 49.7658 46.3144 49.3094 46.5339C49.1992 46.581 49.1048 46.6437 48.9946 46.6907C48.9474 46.7221 48.8844 46.7378 48.8372 46.7691C48.8057 46.7691 48.7585 46.8005 48.727 46.8162C48.491 46.9103 48.2549 47.0043 48.0031 47.0671C47.5309 47.2238 47.043 47.3336 46.5394 47.412C46.5079 47.412 46.4607 47.412 46.4292 47.4277C46.4292 47.4277 46.3033 47.4434 46.3662 47.4277C46.4292 47.4277 46.3348 47.4277 46.3348 47.4277C46.3033 47.4277 46.2561 47.4277 46.2246 47.4277C46.0829 47.4277 45.957 47.459 45.8154 47.459C45.5163 47.4747 45.233 47.4904 44.934 47.4747C44.6192 47.4747 44.3359 47.757 44.3359 48.0706C44.3359 48.3842 44.5878 48.6507 44.934 48.6664L44.9183 48.6821Z" fill="#231F20"/>
<path d="M49.0418 52.226C49.876 51.7086 50.6944 51.1441 51.3239 50.3915C51.985 49.5918 52.4256 48.651 52.4886 47.6161C52.5201 47.0203 52.3942 46.4558 52.1581 45.9227C52.0322 45.6405 51.6072 45.5464 51.3554 45.7189C51.0721 45.907 51.0092 46.2206 51.1508 46.5186L51.1823 46.597C51.1823 46.597 51.1508 46.4872 51.1665 46.5499C51.1665 46.597 51.198 46.644 51.2138 46.691C51.2452 46.8008 51.2767 46.8949 51.2925 47.0046C51.2925 47.0203 51.2925 47.0517 51.2925 47.0674C51.3082 47.1771 51.2925 47.0674 51.2925 47.036C51.2925 47.083 51.2925 47.1458 51.2925 47.1928C51.2925 47.3026 51.2925 47.4123 51.2925 47.5221C51.2925 47.6161 51.2925 47.7259 51.2767 47.82C51.2767 47.9297 51.2925 47.7259 51.2767 47.8357C51.2767 47.8984 51.261 47.9454 51.2452 48.0081C51.198 48.212 51.1351 48.4158 51.0564 48.6197C51.0092 48.7608 51.0878 48.5726 51.0406 48.6667C51.0249 48.7137 50.9934 48.7608 50.9777 48.8078C50.9305 48.9019 50.8832 48.996 50.8203 49.09C50.7573 49.1841 50.7101 49.2625 50.6472 49.3566C50.6157 49.4036 50.5842 49.4507 50.5527 49.482C50.5213 49.5291 50.5685 49.4507 50.5685 49.4507C50.5527 49.482 50.5213 49.5134 50.4898 49.5448C50.2222 49.874 49.8917 50.172 49.5612 50.4542C49.5297 50.4699 49.514 50.4855 49.4825 50.5169C49.4668 50.5326 49.4353 50.5639 49.4825 50.5169C49.4353 50.5639 49.3723 50.5953 49.3251 50.6424C49.2307 50.7207 49.1205 50.7835 49.0261 50.8462C48.8215 50.9873 48.6169 51.1127 48.3965 51.2539C48.129 51.4107 48.0031 51.787 48.1919 52.0535C48.3808 52.3201 48.7113 52.4298 48.9946 52.2574L49.0418 52.226Z" fill="#231F20"/>
</svg>
