<svg width="80" height="76" viewBox="0 0 80 76" fill="none" xmlns="http://www.w3.org/2000/svg">
<path d="M51.4816 48.6087C51.1039 47.4327 50.6318 46.2881 50.1911 45.2689C49.9707 44.7515 49.656 43.6696 49.1681 43.3403C47.484 40.8002 44.651 39.044 41.6135 38.6834C38.4815 38.3227 35.2078 39.4517 32.9729 41.6782C30.3288 44.3124 29.0697 48.8909 29.1641 52.513C29.2113 54.2377 29.6048 56.1193 30.8954 57.358C31.5249 57.9695 32.3276 58.3615 33.1932 58.534C33.7284 58.6438 34.2005 58.6124 34.7356 58.6281C35.9475 58.6595 37.1437 59.1142 38.3555 58.9417C38.9536 58.8633 39.4573 58.5967 40.0711 58.5183C40.7793 58.4399 41.4876 58.3145 42.1486 58.5967C42.5578 58.7692 42.7939 59.0358 43.266 59.1612C43.7697 59.2866 44.2733 59.3337 44.7927 59.3023C45.5009 59.2553 46.1934 59.0514 46.8072 58.7222C47.4525 58.3615 48.0349 58.2361 48.7274 57.9852C53.0555 56.48 52.725 52.3562 51.5131 48.593L51.4816 48.6087Z" fill="white"/>
<path d="M34.4988 46.1467C33.8693 45.0491 32.6259 44.124 31.5714 43.5439C30.9104 43.1675 29.1162 51.3367 29.1949 52.1364C29.793 51.6503 30.3438 51.4151 31.0835 51.1486C32.1538 50.7722 33.2712 50.3646 34.0424 49.5492C35.1599 48.3732 35.0969 47.1816 34.4831 46.1624L34.4988 46.1467Z" fill="#5C564D"/>
<path d="M50.2063 45.2683C50.0646 44.939 49.8758 44.3902 49.6397 43.9512C49.2777 44.202 48.9 44.4529 48.5537 44.7352C47.3261 45.723 45.4374 46.9774 46.3503 48.8276C47.3261 50.7719 50.222 51.352 52.032 52.1987C53.0393 50.9287 50.7571 46.5697 50.1905 45.2683H50.2063Z" fill="#5C564D"/>
<path d="M49.8445 43.2772C47.7984 40.0315 44.0841 37.9461 40.2124 38.0402C36.86 38.1186 33.4762 39.7336 31.5403 42.4932C30.234 44.3748 29.3999 46.6484 28.9277 48.8749C28.4555 51.1014 28.2981 53.5475 29.1166 55.6799C29.5415 56.7775 30.2183 57.734 31.2098 58.3769C32.3273 59.1138 33.7123 59.3333 35.0186 59.2706C35.774 59.2393 35.774 58.0633 35.0186 58.0946C33.067 58.173 31.2885 57.5145 30.3914 55.6956C29.4943 53.8768 29.6045 51.7757 29.9192 49.9098C30.2655 47.8244 30.958 45.7546 32.0282 43.9201C33.429 41.5211 35.8527 39.9374 38.5913 39.4043C42.5417 38.636 46.6652 40.5176 48.8057 43.8887C49.2149 44.5316 50.2379 43.9358 49.8287 43.2929L49.8445 43.2772Z" fill="#231F20"/>
<path d="M48.8055 43.7792C49.0259 43.9047 49.1518 44.2339 49.2462 44.4691C49.3879 44.7671 49.4823 45.0807 49.6082 45.3942C49.8128 45.8803 50.0174 46.3821 50.222 46.8995C50.647 48.0285 51.0089 49.1731 51.2608 50.3491C51.4968 51.4467 51.6385 52.5756 51.5598 53.7045C51.4968 54.614 51.2293 55.5861 50.6942 56.276C49.9387 57.2482 48.7111 57.6559 47.4992 57.7499C46.7438 57.8127 46.7438 58.9886 47.4992 58.9259C48.8527 58.8162 50.2063 58.4242 51.1978 57.4677C52.032 56.668 52.4884 55.5548 52.6615 54.4258C53.0392 51.8857 52.331 49.2201 51.4654 46.8368C51.245 46.2096 50.946 45.551 50.7257 44.9709C50.4109 44.2026 50.1748 43.2148 49.4193 42.76C48.7583 42.368 48.176 43.3872 48.8213 43.7792H48.8055Z" fill="#231F20"/>
<path d="M32.0441 51.0705C32.0126 52.5287 32.17 53.9869 32.5162 55.3981C32.6736 56.0724 32.8782 56.7466 33.13 57.3895C33.3818 58.0323 33.7281 58.6595 34.3262 59.0515C34.9242 59.4435 35.6168 59.5062 36.2778 59.5846C36.9388 59.663 37.6943 59.7257 38.3553 59.5062C39.0163 59.2867 39.52 58.8163 39.7718 58.1734C39.8977 57.8755 39.9134 57.5306 39.8347 57.2013C39.756 56.872 39.5514 56.6055 39.3626 56.3232C39.2681 56.1978 39.1894 56.0567 39.1108 55.8999C39.0321 55.7431 39.0321 55.7274 38.9691 55.5392C38.9219 55.3824 38.8747 55.2256 38.8432 55.0688C38.8432 55.0375 38.8432 55.0061 38.8432 54.9748C38.8275 54.865 38.8432 54.9748 38.8432 54.9277C38.8432 54.8493 38.8432 54.7709 38.8275 54.6925C38.796 54.0653 38.9376 53.5165 39.2367 52.9834C39.394 52.7012 39.2996 52.3406 39.0321 52.1838C38.7645 52.027 38.3868 52.121 38.2294 52.3876C37.6471 53.4068 37.5054 54.6769 37.8517 55.7901C37.9461 56.0724 38.0563 56.3703 38.1979 56.6211C38.3238 56.8563 38.5127 57.0759 38.6543 57.3111C38.6701 57.3424 38.7015 57.3895 38.7173 57.4208C38.7173 57.4522 38.7173 57.4679 38.733 57.4992C38.733 57.4992 38.733 57.4051 38.733 57.4679C38.733 57.5306 38.733 57.5933 38.733 57.656C38.733 57.5463 38.7173 57.7031 38.7015 57.7344C38.7015 57.7658 38.6858 57.7815 38.6701 57.8128C38.6701 57.8128 38.7015 57.7344 38.6701 57.7971C38.6386 57.8599 38.6071 57.9069 38.5756 57.9696C38.5284 58.048 38.6071 57.9696 38.5284 58.0323C38.4812 58.0794 38.4182 58.1421 38.371 58.1891C38.2923 58.2518 38.4025 58.1891 38.3081 58.2362C38.2609 58.2675 38.2136 58.2989 38.1664 58.3146C38.072 58.3616 38.1192 58.3302 38.1349 58.3146C38.1035 58.3146 38.072 58.3459 38.0405 58.3459C37.9618 58.3773 37.8831 58.393 37.8044 58.4086C37.5684 58.4557 37.2378 58.4557 36.9388 58.44C36.7814 58.44 36.624 58.4086 36.4824 58.393C36.4194 58.393 36.3407 58.3773 36.2778 58.3616C36.2306 58.3616 36.1991 58.3616 36.1519 58.3459C36.2148 58.3459 36.1361 58.3459 36.1204 58.3459C35.8371 58.2989 35.5381 58.2518 35.2705 58.1578C35.239 58.1578 35.2075 58.1421 35.1761 58.1264C35.1131 58.095 35.0659 58.0637 35.0029 58.0323C34.877 57.9539 34.8456 57.9382 34.7196 57.8128C34.578 57.656 34.4363 57.4051 34.3262 57.1543C34.3419 57.2013 34.2947 57.0759 34.279 57.0602C34.2475 56.9818 34.2317 56.9191 34.2003 56.8407C34.1373 56.6839 34.0901 56.5114 34.0271 56.3546C33.9327 56.041 33.8383 55.7431 33.7438 55.4295C33.3661 53.9869 33.193 52.5444 33.2245 51.0548C33.2245 50.7412 32.9412 50.459 32.6264 50.459C32.3116 50.459 32.0441 50.7255 32.0283 51.0548L32.0441 51.0705Z" fill="#231F20"/>
<path d="M48.2074 51.3223C48.2388 52.6394 48.1129 53.9095 47.8139 55.1952C47.6722 55.8381 47.4834 56.4653 47.2473 57.0925C47.2001 57.2022 47.1371 57.3747 47.1056 57.4531C47.0742 57.5315 46.9797 57.704 46.9168 57.8137C46.8381 57.9548 46.8224 57.9862 46.7279 58.0803C46.6807 58.1273 46.6335 58.1744 46.5863 58.2214C46.5391 58.2684 46.5391 58.2684 46.4446 58.3155C46.3974 58.3468 46.3344 58.3782 46.2715 58.4096C46.2715 58.4096 46.1771 58.4566 46.2243 58.4252C46.2715 58.3939 46.1771 58.4409 46.1771 58.4409C46.0354 58.488 45.8938 58.535 45.7521 58.5664C45.4373 58.6291 45.2485 58.6604 44.9652 58.6918C44.6504 58.7232 44.3356 58.7545 44.0051 58.7545C43.8635 58.7545 43.7533 58.7545 43.6431 58.7232C43.5802 58.7232 43.5015 58.6918 43.4385 58.6761C43.407 58.6761 43.3756 58.6604 43.3441 58.6448L43.2811 58.6134C43.2339 58.582 43.1867 58.5664 43.1395 58.535C43.108 58.535 43.0923 58.5036 43.0608 58.488C42.9978 58.4409 42.9664 58.3939 42.9191 58.3468C42.9034 58.3312 42.8877 58.2998 42.8562 58.2841C42.7932 58.2214 42.9034 58.3468 42.8562 58.2841C42.8247 58.2371 42.7932 58.1744 42.7618 58.1116C42.7145 58.0176 42.7618 58.143 42.7303 58.0489C42.7303 58.0019 42.6988 57.9392 42.6831 57.8921C42.7145 58.0019 42.6831 57.8294 42.6831 57.7824C42.6831 57.6726 42.6831 57.8294 42.6831 57.7353C42.6831 57.7353 42.7145 57.6412 42.6831 57.7196C42.6831 57.6883 42.7145 57.6569 42.7303 57.6256C42.809 57.4844 42.9034 57.3747 42.9821 57.2492C43.1395 57.0141 43.2811 56.7789 43.3756 56.5123C43.8949 55.2736 43.832 53.8311 43.1552 52.6708C42.9978 52.3885 42.6201 52.2944 42.3525 52.4669C42.085 52.6394 41.9748 53 42.1479 53.2666C42.1794 53.3293 42.2109 53.392 42.2424 53.4547C42.2424 53.4704 42.3368 53.6429 42.2896 53.5645C42.3525 53.7056 42.3998 53.8467 42.4312 53.9879C42.4627 54.1133 42.4942 54.2387 42.5099 54.3798C42.5099 54.2858 42.5099 54.3798 42.5099 54.4112C42.5099 54.4582 42.5099 54.4896 42.5099 54.5366C42.5099 54.615 42.5099 54.6934 42.5099 54.7718C42.5099 54.8973 42.5099 55.0384 42.5099 55.1638C42.5099 55.1638 42.5099 55.305 42.5099 55.2422C42.5099 55.1795 42.5099 55.2893 42.5099 55.2893C42.5099 55.3677 42.4785 55.4461 42.4627 55.5245C42.4312 55.6656 42.3998 55.791 42.3525 55.9321C42.2896 56.0889 42.2896 56.0889 42.2109 56.2614C42.0693 56.528 41.8804 56.7475 41.723 56.9984C41.5499 57.2806 41.4397 57.6256 41.4712 57.9705C41.5341 58.6291 41.9433 59.2249 42.4942 59.5699C43.108 59.9462 43.8792 59.9932 44.5717 59.9305C45.217 59.8678 45.9095 59.8207 46.5233 59.5855C47.2001 59.3347 47.688 58.8486 48.0028 58.2057C48.3175 57.5628 48.5379 56.8729 48.711 56.183C49.1359 54.615 49.3405 52.9687 49.3091 51.3536C49.3091 51.0401 49.0415 50.7578 48.711 50.7578C48.3805 50.7578 48.1129 51.0244 48.1129 51.3536L48.2074 51.3223Z" fill="#231F20"/>
<path d="M39.0479 59.192C39.1896 59.1764 39.3155 59.145 39.4571 59.1293H39.2997C40.307 59.0196 41.33 58.9725 42.3531 59.0196C42.6678 59.0196 42.9511 58.7373 42.9511 58.4237C42.9511 58.0945 42.6993 57.8593 42.3531 57.8279C41.1412 57.7652 39.9293 57.8436 38.7332 58.0317C38.5915 58.0474 38.4499 58.1885 38.3869 58.2983C38.3082 58.4237 38.2767 58.6119 38.3239 58.753C38.3712 58.8941 38.4656 59.0352 38.5915 59.098C38.7331 59.1764 38.8748 59.1764 39.0479 59.1607V59.192Z" fill="#231F20"/>
<path d="M20.2557 19.9449C20.3187 22.1401 20.4446 24.4136 21.4834 26.3423C21.7509 26.844 22.0814 27.3301 22.2703 27.8632C22.5221 28.6158 22.4749 29.4469 22.6638 30.2152C22.8526 30.9835 23.4822 31.7675 24.2849 31.7047C24.5682 31.6891 24.8829 31.5636 25.1033 31.7518C25.182 31.8145 25.2292 31.9086 25.2764 32.0027C26.0633 33.7431 25.8587 35.7345 25.7958 37.6317C25.7328 39.529 25.8745 41.6144 27.1493 43.0256C28.3297 44.3427 30.2184 44.766 31.9811 44.8758C33.7438 44.9855 35.5538 44.8444 37.2536 45.3462C38.2294 45.6284 39.158 46.1145 40.1495 46.3497C41.141 46.5849 42.3057 46.4908 43.0297 45.7852C43.2028 45.6127 43.3445 45.4246 43.5491 45.2991C43.9898 45.0483 44.5249 45.2207 45.0285 45.2835C45.6738 45.3619 46.3506 45.2521 46.9486 44.9699C47.3264 44.7817 47.6726 44.5308 48.0976 44.4681C48.4438 44.4211 48.7901 44.5151 49.1363 44.5779C51.686 45.0326 54.456 43.6057 55.5577 41.2694C56.1086 40.1091 56.4863 38.9645 56.2975 37.6944C56.0299 35.8913 56.0614 34.041 56.3761 32.2379C56.3761 32.1751 56.3919 32.1124 56.4391 32.0654C56.5178 31.9556 56.6909 31.9556 56.8326 31.9556C58.2491 32.0027 58.9888 30.8894 59.2091 29.6664C59.4767 28.4904 60.0118 27.4869 60.4053 26.3893C60.8302 25.1819 60.8617 23.7551 61.0505 22.485C61.444 19.8822 61.507 17.4518 60.8145 14.896C60.2951 12.9674 58.8314 9.56487 56.2345 10.537C54.5347 11.1799 52.7877 13.2339 51.623 14.5824C50.2066 16.2131 49.1363 18.1417 48.491 20.1958C43.3287 18.8943 37.8359 18.9257 32.7051 20.3055C32.894 20.2585 30.1554 15.335 29.8721 14.9117C28.8019 13.3751 27.7316 11.9952 26.142 10.9917C25.3708 10.5057 24.4737 10.1607 23.5766 10.2705C21.8926 10.4743 21.4991 12.2618 20.9797 13.5946C20.1928 15.6173 20.2085 17.7968 20.2557 19.9292V19.9449Z" fill="#5C564D"/>
<path d="M26.2995 27.0163C26.5828 26.5616 26.8976 26.1069 27.2124 25.6678C27.2911 25.5267 27.3698 25.3699 27.4485 25.2288C28.2669 23.7706 28.8492 22.4378 28.6761 20.7287C28.5187 19.0823 27.8891 17.5614 27.055 16.1502C26.2995 14.8801 24.647 11.117 22.6639 12.387C20.9326 13.5003 20.6965 16.2913 20.2559 18.1102C20.2559 18.7217 20.2559 19.3332 20.2559 19.929C20.3188 22.1242 20.4447 24.3978 21.4835 26.3264C21.751 26.8281 22.0816 27.3142 22.2704 27.8473C22.5222 28.6 22.475 29.431 22.6639 30.1993C22.8685 30.9676 23.4823 31.7516 24.285 31.6889C24.4266 31.6889 24.5683 31.6418 24.7099 31.6418C24.8516 30.9676 25.0719 30.3091 25.308 29.6505C25.4339 28.7097 25.7959 27.816 26.2995 27.0006V27.0163Z" fill="#F9BDBE"/>
<path d="M48.8845 44.4838C49.3881 44.4681 49.9232 44.5152 50.537 44.5622C52.5516 44.6877 55.2114 42.9158 56.0613 41.097C56.2345 40.7207 56.2659 40.2503 56.0141 39.921C55.8253 39.6701 55.542 39.5447 55.2429 39.4663C53.5117 39.0273 51.7017 40.2346 49.9547 39.8269C49.6399 39.7642 49.3409 39.6388 49.0576 39.4976C47.5309 38.7607 46.6968 37.4749 45.6266 36.2676C44.5563 35.0603 43.4703 33.7902 43.0769 32.1125C42.8093 30.9992 42.7936 29.8546 42.7936 28.7099C42.7778 27.1263 42.7621 25.5269 43.0611 23.9746C43.3602 22.4223 43.9897 20.8857 45.1229 19.7568C43.5333 18.9414 41.9279 19.1296 40.1652 19.255C39.8662 19.2707 36.923 19.7725 36.7971 19.5529C39.0792 23.4258 39.2996 28.2552 38.4182 32.5672C38.3395 32.9278 38.2608 33.2728 38.0877 33.5864C37.4896 34.5899 36.325 35.1857 35.9157 36.3146C35.2075 38.2589 34.7196 40.4228 32.2958 40.6266C30.4387 40.7677 28.6602 39.6388 26.8502 40.1248C24.8672 40.6579 26.9604 42.9786 27.7788 43.6371C29.1796 44.7504 31.1154 44.7974 32.9097 44.7817C34.3261 44.7817 35.9315 44.9856 37.285 45.3619C38.2608 45.6441 39.1894 46.1302 40.1809 46.3654C41.1725 46.6006 42.3372 46.5065 43.0611 45.8009C43.2343 45.6284 43.3759 45.4403 43.5805 45.3149C44.0212 45.064 44.5563 45.2365 45.06 45.2992C45.7052 45.3776 46.382 45.2678 46.9801 44.9856C47.6883 44.6406 48.3021 44.5152 48.9317 44.4995L48.8845 44.4838Z" fill="white"/>
<path d="M60.799 14.8965C60.7676 14.7554 60.7204 14.6143 60.6731 14.4732C60.2325 13.7519 59.7131 13.0933 59.0363 12.6229C56.5181 10.8982 54.6137 14.0341 53.3231 16.4802C52.788 18.5185 52.7093 20.7451 52.8038 22.5953C54.0157 24.4141 55.684 25.9194 56.3135 28.0989C56.6755 29.369 56.8171 30.6547 56.8329 31.9561C58.2179 31.9875 58.9576 30.8899 59.178 29.6669C59.4455 28.4909 59.9806 27.4874 60.3741 26.3898C60.799 25.1825 60.8305 23.7556 61.0194 22.4855C61.4129 19.8827 61.4758 17.4523 60.7833 14.8965H60.799Z" fill="#F9BDBE"/>
<path d="M29.7304 23.2999C31.9496 21.2145 34.9242 20.3365 37.9146 20.0856C40.6846 19.8504 43.5176 19.9445 46.2246 20.5873C47.5152 20.9009 48.9789 21.2773 50.0177 22.1396C50.6 22.6257 51.4342 21.7947 50.8518 21.3086C49.8446 20.4619 48.554 20.0072 47.2949 19.6622C46.0358 19.3173 44.6508 19.0664 43.313 18.941C40.118 18.643 36.6555 18.7214 33.6022 19.7406C31.8552 20.3208 30.2498 21.2302 28.912 22.4846C28.3612 23.002 29.1953 23.8331 29.7462 23.3156L29.7304 23.2999Z" fill="#231F20"/>
<path d="M49.2148 20.1168C50.2693 16.8397 52.4097 13.9076 55.2427 11.9162C55.6047 11.6653 55.9824 11.3988 56.3917 11.195C56.7379 11.0068 57.1786 10.8186 57.5878 10.9127C58.1544 11.0382 58.6266 11.5713 58.9728 12.0103C59.9014 13.2176 60.405 14.7856 60.6254 16.2752C60.767 17.2474 60.7513 18.2665 60.7513 19.2544C60.7513 20.4304 60.6883 21.5907 60.405 22.7196C60.2319 23.4566 61.3651 23.7702 61.5382 23.0332C61.8058 21.9199 61.9159 20.791 61.9317 19.6464C61.9317 18.6115 61.9632 17.5453 61.8373 16.5261C61.6484 14.817 61.129 13.0609 60.1532 11.634C59.7125 10.9911 59.1774 10.3796 58.4692 10.0033C57.4934 9.47018 56.4703 9.76809 55.5575 10.3012C53.9049 11.2734 52.4412 12.5748 51.2293 14.0487C49.8286 15.7578 48.7584 17.6864 48.0816 19.7875C47.8455 20.5088 48.9944 20.8224 49.2148 20.1011V20.1168Z" fill="#231F20"/>
<path d="M60.0119 24.8373C59.8545 25.5429 59.7286 26.2642 59.4925 26.9541C59.461 27.0325 59.4453 27.0952 59.4138 27.1736C59.3981 27.2206 59.3823 27.252 59.3666 27.299C59.3036 27.4402 59.4138 27.1893 59.3666 27.3304C59.2879 27.4872 59.2092 27.644 59.1305 27.8008C59.0518 27.9576 58.9416 28.0987 58.8472 28.2398C58.8157 28.2712 58.7843 28.3339 58.8315 28.2712C58.8 28.3182 58.7685 28.3496 58.737 28.3966C58.6583 28.475 58.5954 28.5691 58.5167 28.6475C58.2177 28.9768 58.3436 29.4942 58.7842 29.6353C58.6426 29.4942 58.5167 29.3688 58.375 29.2277C58.3278 29.0865 58.3593 29.0395 58.375 29.1336C58.375 29.1806 58.375 29.212 58.375 29.259C58.375 29.3688 58.375 29.4942 58.375 29.604C58.375 29.7608 58.375 29.9019 58.3593 30.0587C58.3593 30.1371 58.3593 30.2155 58.3436 30.2939C58.3436 30.4036 58.375 30.1528 58.3436 30.2782C58.3436 30.3096 58.3436 30.3409 58.3278 30.3723C58.3278 30.435 58.2963 30.482 58.2806 30.5448C58.2491 30.6702 58.2963 30.482 58.3121 30.4977L58.2806 30.5448C58.2491 30.5918 58.2177 30.6388 58.1862 30.6859C58.1862 30.7016 58.1547 30.7172 58.139 30.7486C58.1862 30.7016 58.1862 30.6859 58.1547 30.7172C58.0917 30.7956 58.0288 30.874 57.9501 30.9368C57.9186 30.9681 57.8871 30.9995 57.8557 31.0308C57.9344 30.9681 57.8871 31.0152 57.8399 31.0308C57.8084 31.0622 57.7612 31.0779 57.7298 31.0936C57.6196 31.1563 57.8399 31.0622 57.714 31.0936C57.6668 31.0936 57.6353 31.1249 57.5881 31.1249C57.5251 31.1249 57.4622 31.1249 57.5566 31.1249C57.4307 31.1249 57.3205 31.1249 57.2104 31.1249C56.8956 31.0936 56.6123 31.4228 56.6123 31.7208C56.6123 32.0657 56.8799 32.2695 57.2104 32.3166C57.7927 32.3793 58.3436 32.1755 58.7685 31.7835C59.0833 31.5012 59.3823 31.1092 59.461 30.6859C59.5397 30.3096 59.5554 29.9176 59.5712 29.5256C59.5869 29.1336 59.6184 28.6318 59.1305 28.4907L59.3981 29.4785C59.9804 28.867 60.4053 28.1614 60.6886 27.3618C60.9405 26.6405 61.0664 25.8879 61.2395 25.1509C61.3024 24.853 61.1451 24.508 60.8303 24.4296C60.5313 24.3669 60.1693 24.5237 60.1063 24.8373H60.0119Z" fill="#231F20"/>
<path d="M55.6994 12.5593C55.5105 12.7788 55.2901 12.9826 55.0855 13.2022C54.7236 13.5942 54.3773 14.0018 54.0783 14.4409C53.2126 15.6796 52.6303 17.1221 52.3785 18.6117C52.1581 19.819 52.1267 21.0421 52.2211 22.2494C52.2526 22.563 52.4729 22.8452 52.8192 22.8452C53.1182 22.8452 53.433 22.5787 53.4172 22.2494C53.2598 20.3678 53.4172 18.596 54.1255 16.8399C54.1412 16.7928 54.157 16.7615 54.1727 16.7144C54.1255 16.8399 54.1727 16.6831 54.1884 16.6674C54.2199 16.589 54.2514 16.5106 54.2986 16.4479C54.3773 16.2911 54.456 16.1343 54.5347 15.9775C54.6763 15.7109 54.8337 15.4444 55.0068 15.1935C55.0855 15.0837 55.1485 14.974 55.2272 14.8642C55.2744 14.8015 55.3059 14.7545 55.3531 14.6917C55.4003 14.629 55.2587 14.8015 55.3531 14.7074C55.3846 14.6761 55.4003 14.6447 55.4318 14.6133C55.5734 14.4409 55.7308 14.2684 55.8725 14.0959C56.0928 13.845 56.3446 13.6255 56.565 13.3746C56.7696 13.1394 56.8011 12.7788 56.565 12.5436C56.3446 12.3241 55.9354 12.3084 55.7308 12.5436L55.6994 12.5593Z" fill="#231F20"/>
<path d="M33.1456 19.8981C32.3901 17.6559 31.194 15.5861 29.6201 13.8143C28.8332 12.9362 27.9675 12.1523 27.0232 11.4467C26.0789 10.7411 24.9142 9.84732 23.7023 9.89436C22.7108 9.92572 21.9868 10.7567 21.4045 11.4623C20.7592 12.2463 20.35 13.2028 20.0667 14.1593C19.4686 16.182 19.4214 18.3615 19.6103 20.4469C19.7991 22.6891 20.1139 25.1665 21.3258 27.1108C21.735 27.7537 22.7423 27.1578 22.3488 26.5149C21.373 24.947 21.074 22.9556 20.8694 21.1681C20.6648 19.3806 20.6018 17.5618 20.9008 15.8056C21.1999 14.0495 21.8294 12.309 23.2616 11.2271C24.0328 10.6313 25.2762 11.6505 25.9058 12.0895C26.7714 12.6854 27.5741 13.3753 28.298 14.1279C29.9663 15.8527 31.2412 17.9381 31.9966 20.196C32.2327 20.9173 33.3817 20.6037 33.1298 19.8824L33.1456 19.8981Z" fill="#231F20"/>
<path d="M21.9238 28.3803C21.6877 29.2271 21.6247 30.1835 22.0497 30.9832C22.4117 31.6417 23.0727 32.0494 23.7652 32.2533C24.1902 32.3787 24.6308 32.4414 25.0715 32.4728C25.2132 32.4728 25.3863 32.3944 25.4965 32.3003C25.6066 32.2062 25.6696 32.0337 25.6696 31.8769C25.6696 31.532 25.4178 31.3125 25.0715 31.2811C24.9456 31.2811 24.8197 31.2654 24.6938 31.2341H24.8512C24.4735 31.2027 24.1115 31.1243 23.7652 30.9832L23.9069 31.0459C23.718 30.9675 23.5291 30.8578 23.356 30.7323L23.4819 30.8264C23.356 30.7323 23.2458 30.6226 23.1357 30.4971L23.2301 30.6226C23.1357 30.4971 23.057 30.356 22.994 30.2149L23.057 30.356C22.994 30.1992 22.9468 30.0267 22.9153 29.8386V29.9954C22.9153 29.7288 22.9153 29.4466 22.9468 29.18V29.3368C22.9468 29.1173 23.0097 28.8978 23.057 28.6783C23.1357 28.3803 22.9625 28.0197 22.6478 27.957C22.333 27.8943 22.0025 28.0511 21.9238 28.3647V28.3803Z" fill="#231F20"/>
<path d="M24.3633 13.1862C24.6466 13.4685 24.9142 13.7507 25.1817 14.0643C25.3391 14.2525 25.4965 14.4406 25.6539 14.6445C25.6696 14.6758 25.8113 14.8326 25.7326 14.7385C25.7798 14.7856 25.8113 14.8483 25.8585 14.8953C25.9529 15.0208 26.0316 15.1305 26.1261 15.256C26.4881 15.7734 26.8343 16.3065 27.1333 16.871C27.4796 17.5139 27.6999 18.0313 27.9203 18.7055C28.1721 19.5052 28.3137 20.2421 28.361 21.0261C28.361 21.3397 28.6285 21.622 28.959 21.622C29.2738 21.622 29.5571 21.3554 29.5571 21.0261C29.4312 18.1724 28.0147 15.5539 26.2048 13.4058C25.89 13.0451 25.5752 12.6845 25.2447 12.3552C24.7096 11.8221 23.8754 12.6531 24.4105 13.1862H24.3633Z" fill="#231F20"/>
<path d="M27.1018 24.8205C25.9371 26.2788 25.2289 28.0663 24.9456 29.9008C24.6308 31.9549 25.4177 33.8678 25.3862 35.9062C25.3862 36.941 25.0243 37.9289 25.0243 38.9637C25.0243 39.9045 25.2131 40.8296 25.5909 41.692C26.1574 43.0091 27.149 44.1381 28.471 44.7339C30.2338 45.5336 32.2169 45.4552 34.0583 45.0475C34.798 44.8907 34.4832 43.7461 33.7435 43.9185C32.2798 44.2478 30.7059 44.3419 29.2737 43.8088C28.109 43.3854 27.2592 42.4917 26.724 41.3941C26.3778 40.6728 26.1889 39.8575 26.1889 39.0578C26.1889 38.1484 26.4565 37.2703 26.5352 36.3609C26.6768 34.5263 25.9686 32.7545 26.0158 30.9043C26.063 29.0541 26.787 27.0784 27.9202 25.6516C28.3923 25.0714 27.5582 24.2247 27.086 24.8205H27.1018Z" fill="#231F20"/>
<path d="M53.8895 25.3215C54.8653 26.5288 55.4476 28.0498 55.7467 29.5707C56.0772 31.2798 55.5735 32.9262 55.4161 34.6196C55.3375 35.5134 55.4161 36.3601 55.5893 37.2381C55.7467 38.0692 55.8411 38.8688 55.6837 39.6999C55.4319 41.0797 54.6764 42.3498 53.5118 43.1494C52.0481 44.1529 50.2853 44.4195 48.6013 43.8393C47.8773 43.5885 47.5783 44.7331 48.2865 44.9683C51.5602 46.0816 55.1801 44.3725 56.4706 41.2051C56.8012 40.3898 56.9743 39.496 56.9428 38.6023C56.9271 37.6301 56.5966 36.705 56.5493 35.7329C56.4549 33.7729 57.2261 31.8913 56.9743 29.9314C56.7225 27.9714 55.967 26.0271 54.7079 24.4905C54.2357 23.8946 53.4016 24.7413 53.8737 25.3215H53.8895Z" fill="#231F20"/>
<path d="M36.0103 37.5361C36.2936 36.6424 36.6084 35.827 37.2694 35.1528C37.8989 34.5099 38.6859 34.1022 39.5673 33.8984C41.33 33.4907 43.3288 33.9141 44.4463 35.4193C45.0916 36.2661 45.5637 37.2225 46.3034 37.9908C46.933 38.6337 47.6255 39.2295 48.1606 39.9665C48.7429 40.7662 49.1049 41.754 48.7587 42.7261C48.4124 43.6983 47.6097 44.4195 46.6812 44.7645C44.5879 45.5328 42.1484 43.9648 41.6762 41.8481C41.5661 41.362 40.8106 41.5658 40.9208 42.0519C41.3772 44.1687 43.6751 45.9719 45.8627 45.7367C48.1763 45.5015 50.2696 43.2592 49.5141 40.8759C49.1994 39.8881 48.5069 39.0884 47.7829 38.3515C47.4051 37.9752 47.0274 37.6145 46.6654 37.2225C46.2405 36.7521 45.9257 36.219 45.5795 35.6859C44.9656 34.7294 44.2574 33.8984 43.2029 33.428C42.2586 33.0203 41.2041 32.8792 40.1811 32.989C39.0321 33.1144 37.8989 33.5064 37.0333 34.2747C36.089 35.1058 35.6326 36.1406 35.2548 37.3166C35.0975 37.8027 35.8529 38.0065 36.0103 37.5204V37.5361Z" fill="#231F20"/>
<path d="M34.5937 38.5092C33.8067 39.3559 32.9883 40.2967 32.6735 41.4256C32.3588 42.5546 32.6735 43.7149 33.5077 44.5302C35.1603 46.1453 38.0247 45.8944 39.8032 44.6086C40.7475 43.9344 41.4715 42.9623 41.6918 41.802C41.7233 41.5981 41.6289 41.3786 41.4243 41.3159C41.2354 41.2689 40.9836 41.3786 40.9364 41.5824C40.6059 43.3386 38.9848 44.5302 37.2692 44.7968C36.2934 44.9536 35.1917 44.7968 34.3733 44.2167C33.6336 43.6835 33.1929 42.7898 33.366 41.8804C33.5864 40.7514 34.4048 39.842 35.1603 39.0266C35.5065 38.6503 34.9556 38.1015 34.6094 38.4778L34.5937 38.5092Z" fill="#231F20"/>
<path d="M37.8676 45.5652C39.1582 46.6941 41.0311 46.898 42.5892 46.2237C43.0142 46.0356 43.4077 45.769 43.7382 45.4554C43.8956 45.3143 43.8798 45.0477 43.7382 44.9066C43.5965 44.7655 43.329 44.7655 43.1873 44.9066C43.1244 44.9693 43.0614 45.0164 42.9984 45.0791C42.9984 45.0791 42.8725 45.1732 42.9355 45.1261C42.904 45.1575 42.8568 45.1889 42.8096 45.2045C42.6522 45.3143 42.4948 45.3927 42.3374 45.4711C42.3059 45.4868 42.2587 45.5025 42.2272 45.5181C42.2115 45.5181 42.1958 45.5181 42.18 45.5338C42.0856 45.5652 41.9912 45.5965 41.9125 45.6279C41.7393 45.6749 41.5662 45.722 41.3931 45.7533C41.3459 45.7533 41.3144 45.7533 41.2672 45.769C41.3459 45.769 41.2042 45.769 41.1885 45.769C41.0941 45.769 40.9996 45.7847 40.9209 45.7847C40.7321 45.7847 40.5589 45.7847 40.3701 45.7847C40.3229 45.7847 40.2914 45.7847 40.2442 45.7847C40.3229 45.7847 40.2127 45.7847 40.1812 45.7847C40.0868 45.7847 40.0081 45.7533 39.9137 45.7377C39.7405 45.6906 39.5674 45.6436 39.3943 45.5809C39.3785 45.5809 39.3471 45.5652 39.3313 45.5495C39.2684 45.5181 39.3471 45.5495 39.3156 45.5495C39.2684 45.5338 39.2212 45.5025 39.1897 45.4868C39.0952 45.4397 39.0008 45.3927 38.9221 45.3457C38.8434 45.2986 38.7647 45.2359 38.686 45.1889C38.6703 45.1889 38.6388 45.1575 38.6231 45.1418C38.6703 45.1732 38.6231 45.1418 38.6073 45.1261C38.5601 45.0948 38.5286 45.0634 38.4814 45.0164C38.324 44.8753 38.088 44.8596 37.9306 45.0164C37.7889 45.1575 37.7732 45.4241 37.9306 45.5652H37.8676Z" fill="#231F20"/>
<path d="M40.7685 38.7116C42.3939 38.7029 43.7072 37.8815 43.7017 36.8769C43.6963 35.8724 42.3742 35.0652 40.7488 35.074C39.1233 35.0827 37.8101 35.9042 37.8155 36.9087C37.821 37.9132 39.1431 38.7204 40.7685 38.7116Z" fill="#231F20"/>
<path d="M32.3903 37.8819C33.7116 37.8819 34.7826 36.8148 34.7826 35.4986C34.7826 34.1823 33.7116 33.1152 32.3903 33.1152C31.0691 33.1152 29.998 34.1823 29.998 35.4986C29.998 36.8148 31.0691 37.8819 32.3903 37.8819Z" fill="white"/>
<path d="M32.3899 37.0204C33.2331 37.0204 33.9166 36.3394 33.9166 35.4995C33.9166 34.6595 33.2331 33.9785 32.3899 33.9785C31.5468 33.9785 30.8633 34.6595 30.8633 35.4995C30.8633 36.3394 31.5468 37.0204 32.3899 37.0204Z" fill="#231F20"/>
<path d="M49.4665 37.8819C50.7877 37.8819 51.8588 36.8148 51.8588 35.4986C51.8588 34.1823 50.7877 33.1152 49.4665 33.1152C48.1453 33.1152 47.0742 34.1823 47.0742 35.4986C47.0742 36.8148 48.1453 37.8819 49.4665 37.8819Z" fill="white"/>
<path d="M49.4661 37.0204C50.3093 37.0204 50.9928 36.3394 50.9928 35.4995C50.9928 34.6595 50.3093 33.9785 49.4661 33.9785C48.623 33.9785 47.9395 34.6595 47.9395 35.4995C47.9395 36.3394 48.623 37.0204 49.4661 37.0204Z" fill="#231F20"/>
</svg>
