<svg width="80" height="76" viewBox="0 0 80 76" fill="none" xmlns="http://www.w3.org/2000/svg">
<path d="M30.8488 48.0584C31.6987 46.6943 33.0679 45.6751 34.6103 45.2517C35.5546 45.0009 36.5304 44.9538 37.5062 44.9695C39.0014 44.9852 40.5281 45.1263 41.8974 45.7221C44.9664 47.0236 46.8708 50.6142 46.194 53.8756C46.1311 54.1892 46.0366 54.5185 46.0996 54.8321C46.1468 55.13 46.3042 55.3966 46.4458 55.6631C47.1226 56.9332 47.3902 58.4385 47.1698 59.8653C48.6335 59.6301 49.9398 58.5796 50.5064 57.2154C50.6166 56.9332 50.7425 56.6039 51.0258 56.4942C51.2147 56.4158 51.4193 56.4628 51.5924 56.5569C52.3321 56.9646 52.2849 58.0465 52.0331 58.8618C51.8757 59.3949 51.6554 59.9124 51.3406 60.3671C50.6009 61.3863 49.3103 61.888 48.0512 61.9037C47.579 61.9037 47.0911 61.8567 46.6504 62.0605C46.3986 62.1703 46.2098 62.3584 45.9737 62.5152C45.2497 63.0013 44.2739 63.0797 43.487 62.7034C43.3296 62.6406 43.1879 62.5466 43.0305 62.5309C42.5899 62.4682 42.2279 62.8445 41.8501 63.064C41.0317 63.5501 39.8356 63.2835 39.3162 62.4838C38.0099 63.1267 36.4832 63.064 35.0195 62.9699C34.2641 62.9229 33.5243 62.8915 32.7689 62.8445C31.557 62.7818 30.2507 62.672 29.3378 61.888C28.6453 61.2922 28.2676 60.3984 28.126 59.489C27.9686 58.5796 28.0158 57.6231 28.2676 56.7294C28.6611 55.2555 29.6369 53.9384 29.8415 52.4017C30.0461 50.8651 29.9831 49.4853 30.8488 48.0898V48.0584Z" fill="white"/>
<path d="M31.2417 46.46C28.9911 49.3294 28.5032 53.3435 30.0928 56.6362C30.5177 57.53 31.1158 58.3296 31.4935 59.2391C31.8083 59.976 31.887 60.7914 32.1073 61.5597C32.3277 62.281 32.6739 62.9865 33.3507 63.3942C34.1061 63.8489 35.0505 63.7392 35.7745 63.3001C37.852 62.0144 37.3798 59.1607 37.3011 57.0909C37.2696 56.3383 36.0892 56.3383 36.1207 57.0909C36.1522 58.0317 36.2309 58.9725 36.1994 59.9133C36.1679 60.6973 36.0263 61.544 35.4125 62.0928C34.9875 62.4691 34.3422 62.6886 33.8543 62.3123C33.3979 61.9674 33.2563 61.3088 33.1461 60.7914C32.973 60.0701 32.8313 59.3645 32.5323 58.6746C32.186 57.8906 31.6981 57.1693 31.2889 56.401C30.5807 55.0526 30.2816 53.5316 30.3603 52.0107C30.4548 50.3173 31.0371 48.6238 32.0916 47.2911C32.2962 47.0402 32.3277 46.7109 32.0916 46.46C31.887 46.2562 31.4463 46.2092 31.2574 46.46H31.2417Z" fill="#231F20"/>
<path d="M29.243 53.1873C28.5033 53.9086 28.1728 54.9278 27.9525 55.8999C27.7479 56.778 27.6377 57.6874 27.6377 58.5811C27.6377 59.4749 27.7951 60.4314 28.1886 61.2781C28.582 62.1248 29.2745 62.6265 30.1087 62.9558C31.0058 63.3008 32.076 63.4105 33.0046 63.144C33.7286 62.9245 33.4138 61.7955 32.6898 62.015C32.6111 62.0464 32.5167 62.0621 32.438 62.0777C32.4065 62.0777 32.2177 62.1091 32.3278 62.0934C32.139 62.1091 31.9501 62.1248 31.7455 62.1091C31.5409 62.1091 31.4307 62.0934 31.3048 62.0621C31.116 62.0307 30.9271 61.9837 30.7382 61.9209C30.4077 61.8269 30.1716 61.7014 29.8411 61.4819C29.6995 61.3878 29.8883 61.5289 29.8096 61.4505C29.7782 61.4192 29.7467 61.3878 29.6995 61.3565C29.6523 61.3094 29.5893 61.2624 29.5421 61.1997C29.4791 61.1213 29.3847 60.9802 29.2745 60.8077C28.944 60.2118 28.8181 59.4592 28.8024 58.7536C28.8024 58.3459 28.8024 57.9226 28.8496 57.5149C28.8811 57.1386 28.9283 56.8564 29.007 56.4487C29.1958 55.5706 29.4162 54.6298 30.0615 54.0026C30.5966 53.4695 29.7624 52.6385 29.2273 53.1716L29.243 53.1873Z" fill="#231F20"/>
<path d="M44.0694 47.5115C45.8164 50.0203 46.1311 53.4698 44.7304 56.2138C44.3527 56.9507 43.849 57.6093 43.4241 58.3149C42.9991 59.0205 42.7158 59.7104 42.5112 60.4787C42.2437 61.4195 41.7715 63.2854 40.4022 62.5014C39.631 62.0623 39.3792 61.2156 39.3477 60.3846C39.3163 59.3027 39.4736 58.2051 39.5838 57.1389C39.6468 56.3863 38.4664 56.3863 38.4034 57.1389C38.2303 59.0205 37.6637 61.4508 39.1117 62.9874C39.694 63.599 40.5439 63.9753 41.3938 63.8342C42.1807 63.693 42.7788 63.1129 43.1093 62.4073C43.4398 61.7017 43.5815 60.9648 43.8175 60.2592C44.1166 59.3341 44.7146 58.5501 45.234 57.7347C46.2098 56.1981 46.7607 54.4733 46.7922 52.6545C46.8394 50.6318 46.257 48.6091 45.0924 46.947C44.6674 46.3355 43.6444 46.9157 44.0694 47.5428V47.5115Z" fill="#231F20"/>
<path d="M46.2252 56.1499C46.2252 56.1499 46.1622 55.9774 46.2252 56.1342C46.2252 56.1656 46.2409 56.1969 46.2567 56.2126C46.2881 56.291 46.3039 56.3694 46.3354 56.4321C46.3826 56.5889 46.4141 56.7301 46.4613 56.8869C46.4927 57.0593 46.5242 57.2161 46.5557 57.3886C46.5557 57.2632 46.5714 57.5454 46.5557 57.3886C46.5557 57.4357 46.5557 57.4827 46.5557 57.5141C46.5557 57.6081 46.5714 57.7179 46.5872 57.812C46.6187 58.1883 46.6187 58.5803 46.6029 58.9566C46.6029 59.1447 46.5872 59.3486 46.5557 59.5367C46.5557 59.5838 46.5557 59.6308 46.5557 59.6779C46.5557 59.7092 46.5242 59.866 46.5557 59.7563C46.5872 59.6465 46.5557 59.8033 46.5557 59.8347C46.5557 59.8817 46.54 59.9287 46.5242 59.9915C46.4613 60.3521 46.3668 60.7127 46.2409 61.0577C46.2094 61.1361 46.178 61.1988 46.1622 61.2772C46.178 61.2302 46.2252 61.0891 46.1622 61.2772C46.1465 61.3242 46.1308 61.3556 46.0993 61.4026C46.0206 61.5438 45.9419 61.6849 45.8475 61.826C45.816 61.873 45.7373 61.9514 45.8632 61.8103C45.8317 61.8417 45.816 61.873 45.8002 61.8887C45.753 61.9514 45.7058 61.9985 45.6429 62.0612C45.6114 62.0926 45.5799 62.1082 45.5484 62.1396C45.4697 62.2023 45.5169 62.1553 45.5799 62.1239C45.5169 62.1553 45.454 62.218 45.391 62.2494C45.3596 62.2494 45.3438 62.2807 45.3123 62.2964C45.2651 62.3278 45.1392 62.3591 45.3281 62.2964C45.2651 62.3121 45.1864 62.3434 45.1235 62.3591C45.092 62.3591 45.0605 62.3748 45.0133 62.3905C45.0133 62.3905 44.9818 62.3905 44.9661 62.3905C44.8717 62.4062 45.1077 62.3905 45.0448 62.3905C44.9661 62.3905 44.8874 62.3905 44.8087 62.3905C44.7615 62.3905 44.7143 62.3905 44.6828 62.3905C44.6671 62.3905 44.6356 62.3905 44.6198 62.3905C44.4939 62.3905 44.73 62.4062 44.6671 62.3905C44.5726 62.3748 44.4624 62.3591 44.368 62.3278C44.2578 62.2964 44.1634 62.265 44.0532 62.218C44.0375 62.218 44.006 62.2023 43.9903 62.1866C43.9431 62.171 44.1319 62.2494 43.9903 62.1866C43.9273 62.1553 43.8644 62.1239 43.8172 62.1082C43.5339 61.9671 43.2506 61.7319 42.9201 61.7476C42.7312 61.7476 42.5423 61.826 42.4164 61.9671C42.3535 62.0455 42.4479 61.9671 42.4794 61.9358C42.6525 61.8417 42.7469 61.8574 42.9043 61.9044C42.9673 61.9358 42.9673 61.9358 42.9201 61.9044C42.8728 61.873 42.8728 61.873 42.9358 61.9201C42.6997 61.7319 42.3377 61.6692 42.1016 61.9201C41.9128 62.1239 41.8498 62.5473 42.1016 62.7511C42.2905 62.8922 42.4636 63.0333 42.6997 63.0333C42.8886 63.0333 43.0774 62.9706 43.2034 62.8295C43.2034 62.8295 43.2506 62.7981 43.2506 62.7825C43.2506 62.8295 43.0617 62.8922 43.046 62.9079C42.9987 62.9079 42.8256 62.9079 42.8256 62.9079C42.8886 62.9236 42.684 62.8295 42.7941 62.9079C42.8099 62.9236 42.8414 62.9393 42.8728 62.9549C42.9358 63.002 43.0145 63.0333 43.0774 63.0647C43.4709 63.2842 43.9116 63.4567 44.368 63.5351C45.1864 63.6605 45.9891 63.4097 46.5557 62.7981C47.0908 62.218 47.4056 61.4497 47.5787 60.6814C47.7676 59.8503 47.8305 58.988 47.7991 58.1412C47.7676 57.2945 47.6259 56.3694 47.2639 55.5541C47.138 55.2718 46.6974 55.1778 46.4613 55.3502C46.1622 55.5384 46.115 55.852 46.2567 56.1499H46.2252Z" fill="#231F20"/>
<path d="M47.6099 60.6039C49.231 60.1492 50.5373 58.8478 51.0725 57.2641C51.2298 56.8251 51.3085 56.3547 51.3243 55.8843L50.7262 56.4801C50.7262 56.4801 50.8521 56.4801 50.9308 56.4801C51.041 56.4801 50.8049 56.4488 50.8993 56.4801C50.9308 56.4801 50.9623 56.4801 50.9938 56.5115C51.0095 56.5115 51.041 56.5115 51.0567 56.5272L50.978 56.4958C50.978 56.4958 51.041 56.5272 51.0725 56.5429C51.1354 56.5742 51.1826 56.6212 51.2456 56.6526C51.1039 56.5899 51.1826 56.6056 51.2298 56.6526C51.2613 56.6683 51.2771 56.6996 51.3085 56.7153C51.34 56.731 51.3558 56.7624 51.3715 56.7937C51.3085 56.684 51.4502 56.8721 51.3715 56.7937C51.403 56.8564 51.4502 56.9035 51.4817 56.9662C51.4974 56.9976 51.5131 57.0289 51.5289 57.0603C51.4817 56.9192 51.5761 57.1544 51.5289 57.0603C51.5604 57.123 51.5761 57.1857 51.5918 57.2641C51.5918 57.3112 51.6076 57.3425 51.6233 57.3896C51.6233 57.4366 51.6233 57.4209 51.6233 57.3425C51.6233 57.3582 51.6233 57.3896 51.6233 57.4052C51.6233 57.5777 51.6233 57.7502 51.6233 57.9227C51.6233 57.9383 51.6076 58.0952 51.6233 58.0011C51.6391 57.907 51.6233 58.0638 51.6233 58.0795C51.6233 58.1735 51.5918 58.2519 51.5761 58.346C51.5446 58.5342 51.4974 58.7067 51.4502 58.8791C51.3715 59.1771 51.5446 59.5377 51.8594 59.6004C52.1742 59.6631 52.5047 59.5063 52.5834 59.1927C52.8037 58.346 53.0083 57.4366 52.6463 56.6056C52.3473 55.8843 51.6233 55.2571 50.8049 55.3512C50.4744 55.3825 50.2226 55.6021 50.2068 55.947C50.2068 56.0411 50.2068 56.1195 50.1911 56.2136C50.1911 56.2449 50.1754 56.3704 50.1911 56.2606C50.2068 56.1509 50.1911 56.3233 50.1911 56.3547C50.1596 56.5272 50.1124 56.6996 50.0652 56.8721C50.0337 56.9505 50.018 57.0446 49.9865 57.123C49.9865 57.1544 49.955 57.2014 49.9393 57.2328C49.9078 57.3268 49.9393 57.2484 49.9393 57.2328C49.9707 57.1387 49.9393 57.2328 49.9393 57.2484C49.8606 57.4052 49.7819 57.562 49.6875 57.7188C49.593 57.8756 49.4828 58.0167 49.3884 58.1579C49.3884 58.1579 49.4828 58.0481 49.4199 58.1108C49.4199 58.1265 49.3884 58.1422 49.3727 58.1579C49.3412 58.1892 49.3255 58.2206 49.294 58.2519C49.231 58.3303 49.1681 58.3931 49.1051 58.4558C48.9792 58.5812 48.8533 58.7067 48.7117 58.8164C48.6959 58.8321 48.5857 58.9105 48.6644 58.8478C48.7431 58.7851 48.6172 58.8791 48.6015 58.8948C48.5228 58.9575 48.4441 59.0046 48.3654 59.0516C48.208 59.1614 48.0349 59.2555 47.846 59.3339C47.8303 59.3339 47.7988 59.3495 47.7831 59.3652C47.7201 59.3966 47.909 59.3182 47.8145 59.3652C47.7673 59.3809 47.7201 59.3966 47.6729 59.4123C47.5785 59.4436 47.4683 59.475 47.3739 59.5063C47.0748 59.5847 46.8702 59.9297 46.9647 60.2276C47.0591 60.5255 47.3739 60.7294 47.6886 60.6353L47.6099 60.6039Z" fill="#231F20"/>
<path d="M47.2485 62.642C48.5548 62.642 49.8454 62.203 50.8841 61.4033C51.01 61.3093 51.1045 61.2152 51.1517 61.0584C51.1831 60.9173 51.1674 60.7291 51.0887 60.6037C51.01 60.4782 50.8841 60.3685 50.7425 60.3371C50.6008 60.3058 50.412 60.3058 50.286 60.3998C49.9083 60.6978 49.4834 60.9329 49.0427 61.1211L49.1843 61.0584C48.7279 61.2465 48.2557 61.372 47.7678 61.4504H47.9252C47.7049 61.4504 47.4688 61.4817 47.2485 61.4817C46.9337 61.4817 46.6504 61.7483 46.6504 62.0776C46.6504 62.4068 46.9022 62.6734 47.2485 62.6734V62.642Z" fill="#231F20"/>
<path d="M23.5606 23.4101C23.6708 23.7708 23.781 24.1471 23.7967 24.5234C23.8124 25.3387 23.356 26.06 22.9783 26.797C21.7349 29.2744 21.5933 32.2065 22.2071 34.9191C22.8209 37.6317 24.143 40.1248 25.7168 42.414C27.1648 44.5308 28.8488 46.5065 30.9421 47.9961C33.0353 49.4856 35.5693 50.4421 38.1347 50.3637C39.2364 50.3323 40.3224 50.1128 41.3926 49.7992C42.872 49.3759 44.32 48.7801 45.5319 47.8549C46.7595 46.9142 47.7038 45.6754 48.6324 44.4367C50.7729 41.5673 52.8504 38.5411 53.7947 35.0916C54.7391 31.642 54.3298 27.628 51.9218 24.9781C51.5284 24.5391 50.8831 24.0373 50.8673 23.4101C50.8673 23.2063 50.9303 23.0181 50.9775 22.83C51.2923 21.6854 51.7802 14.457 49.4508 14.8803C49.2462 14.9117 49.0731 15.0371 48.9 15.1626C47.1372 16.4169 45.7365 18.1888 44.9338 20.1958C42.2897 19.8195 39.5984 19.647 36.9228 19.694C36.4034 19.694 29.7459 20.3055 29.8246 20.5094C29.2108 18.9414 28.1249 18.2201 27.0074 17.0441C26.3936 16.3856 24.7568 13.8455 23.6865 14.7392C23.0412 15.2723 23.2616 18.032 23.1986 18.863C23.0885 20.3996 23.1199 21.9362 23.5449 23.4258L23.5606 23.4101Z" fill="white"/>
<path d="M25.9843 32.4096C25.1344 33.7424 24.8511 35.4515 24.9928 37.0508C25.1502 38.807 25.9843 40.6258 27.5582 41.4569C29.1321 42.3036 31.2096 41.9586 32.5789 40.7983C35.0026 38.7442 35.6794 33.9149 33.712 31.3747C32.3743 29.65 29.7931 29.6656 27.9832 30.5751C27.1333 31.0141 26.4722 31.6413 25.9843 32.3939V32.4096Z" fill="#888888"/>
<path d="M25.0876 17.6561C24.9775 17.7032 24.883 17.7973 24.7729 17.9697C24.5997 18.2363 24.584 18.5813 24.5682 18.8948C24.5368 19.8984 24.5682 24.1476 26.4726 22.2033C27.5429 21.1057 26.8346 19.2084 26.0477 18.1893C25.7801 17.86 25.4339 17.515 25.0876 17.6718V17.6561Z" fill="#F9BDBE"/>
<path d="M48.6322 22.5638C48.9784 22.454 49.2617 22.1561 49.3247 21.67C49.4506 20.6508 49.4191 19.616 49.246 18.6124C49.1988 18.3616 49.1201 18.0637 48.8997 17.9382C47.9082 17.3424 46.7907 21.4191 47.1527 21.9836C47.5147 22.5324 48.1443 22.7362 48.6322 22.5638Z" fill="#F9BDBE"/>
<path d="M30.3754 36.7217C31.2272 36.7217 31.9178 36.0337 31.9178 35.1851C31.9178 34.3364 31.2272 33.6484 30.3754 33.6484C29.5236 33.6484 28.833 34.3364 28.833 35.1851C28.833 36.0337 29.5236 36.7217 30.3754 36.7217Z" fill="#231F20"/>
<path d="M46.3813 36.7529C47.2331 36.7529 47.9237 36.065 47.9237 35.2163C47.9237 34.3677 47.2331 33.6797 46.3813 33.6797C45.5294 33.6797 44.8389 34.3677 44.8389 35.2163C44.8389 36.065 45.5294 36.7529 46.3813 36.7529Z" fill="#231F20"/>
<path d="M41.4014 46.6209C41.4024 45.6077 40.0715 44.785 38.4287 44.7833C36.7858 44.7815 35.4532 45.6015 35.4521 46.6147C35.4511 47.6279 36.782 48.4506 38.4248 48.4523C40.0677 48.454 41.4003 47.6341 41.4014 46.6209Z" fill="#231F20"/>
<path d="M30.3753 20.1959C29.2263 18.0478 27.5738 16.1976 25.6064 14.755C25.1343 14.4101 24.5992 13.9711 23.9853 13.9867C23.1512 14.0024 22.9781 14.8021 22.8207 15.445C22.5216 16.8091 22.3643 18.2203 22.3643 19.6158C22.3643 21.1681 22.5689 22.7047 22.9466 24.21C23.1355 24.9469 24.2686 24.6333 24.0798 23.8964C23.4974 21.5601 23.3715 19.0827 23.765 16.6993C23.8122 16.4014 23.8752 16.0878 23.9381 15.7899C23.9696 15.6488 24.0011 15.5077 24.0326 15.3666C24.0326 15.3038 24.064 15.2411 24.0798 15.1784C24.0798 15.1314 24.1113 15.1 24.1113 15.053V15.0843L23.9539 15.1627H24.0168C24.1113 15.1784 24.1585 15.2098 24.2529 15.2725C24.4732 15.4136 24.6936 15.5704 24.9139 15.7115C25.7796 16.3387 26.5665 17.06 27.2747 17.8596C28.0774 18.7534 28.7542 19.7255 29.3208 20.7761C29.4782 21.0583 29.8559 21.1367 30.1235 20.9799C30.4068 20.8075 30.4854 20.4625 30.3281 20.1803L30.3753 20.1959Z" fill="#231F20"/>
<path d="M24.772 18.2672C24.772 18.2672 24.8664 18.3926 24.9136 18.4553L24.8192 18.3299C25.2284 18.863 25.5747 19.4588 25.8422 20.0704L25.7793 19.9292C25.9839 20.3996 26.1255 20.8857 26.2357 21.3875C26.2986 21.6854 26.6764 21.8892 26.9597 21.7951C27.2744 21.6854 27.4476 21.3875 27.3689 21.0739C27.1485 20.0547 26.7393 19.0825 26.1727 18.2201C25.9996 17.9536 25.795 17.687 25.5904 17.4361C25.496 17.3264 25.3071 17.2637 25.1655 17.2637C25.0238 17.2637 24.8507 17.3264 24.7405 17.4361C24.6303 17.5459 24.5674 17.7027 24.5674 17.8595C24.5674 18.0163 24.6303 18.1417 24.7405 18.2829L24.772 18.2672Z" fill="#231F20"/>
<path d="M45.3898 20.0241C45.7832 19.2087 46.2869 18.4561 46.8535 17.8132C47.4515 17.1233 48.1283 16.5275 48.8523 16.0571C49.0411 15.9316 49.2457 15.8062 49.4504 15.6808C49.5448 15.6337 49.6392 15.571 49.7336 15.524C49.7651 15.5083 49.8123 15.4769 49.8438 15.4612C49.8596 15.4612 49.9697 15.3985 49.9068 15.4299H49.9697C49.9697 15.4299 49.891 15.4299 49.9383 15.4299H49.954C49.954 15.4299 49.8753 15.4142 49.9383 15.4299L49.891 15.3985C49.891 15.3985 49.9383 15.4456 49.954 15.4612C49.9068 15.3672 49.9383 15.4299 49.954 15.4612C49.9697 15.5083 50.0012 15.5553 50.0327 15.6024C50.0642 15.6964 50.0956 15.8062 50.1271 15.9003C50.3789 16.9508 50.4891 18.0014 50.5206 19.0833C50.5521 20.322 50.4576 21.545 50.2215 22.7367C50.1586 23.0503 50.316 23.3639 50.6308 23.4579C50.9141 23.5363 51.2918 23.3639 51.3547 23.0503C51.8269 20.6042 51.8112 18.0798 51.276 15.6494C51.1659 15.1477 50.9613 14.6302 50.5048 14.3637C49.9383 14.0344 49.3559 14.348 48.8523 14.6302C47.9394 15.1477 47.0895 15.8062 46.3656 16.5588C45.5629 17.3899 44.8861 18.3463 44.3825 19.3969C44.2408 19.6791 44.3038 20.0398 44.5871 20.1966C44.8389 20.3533 45.2481 20.2749 45.3898 19.9927V20.0241Z" fill="#231F20"/>
<path d="M48.0503 17.9371C47.4365 18.7368 47.0115 19.6933 46.8227 20.6654C46.7597 20.979 46.7282 21.2926 46.7125 21.6062C46.6968 21.9198 46.9958 22.2021 47.3106 22.2021C47.6411 22.2021 47.8772 21.9512 47.9087 21.6062C47.9087 21.4494 47.9244 21.2926 47.9559 21.1515V21.3083C48.0031 20.7595 48.1605 20.2264 48.3651 19.7246L48.3021 19.8658C48.5067 19.3954 48.7743 18.9407 49.0891 18.5173C49.1835 18.4075 49.1835 18.188 49.152 18.0626C49.1205 17.9215 49.0104 17.7804 48.8845 17.7176C48.7428 17.6392 48.5854 17.6079 48.428 17.6549L48.2864 17.7176C48.192 17.7647 48.129 17.8431 48.0818 17.9215L48.0503 17.9371Z" fill="#231F20"/>
<path d="M29.4781 21.5912C31.6501 20.2271 34.3571 20.2741 36.8281 20.1957C39.5824 20.1173 42.3839 20.133 45.0122 21.0424C45.7362 21.2933 46.0353 20.1487 45.327 19.9135C42.557 18.957 39.5824 18.9414 36.6707 19.0354C34.0266 19.1138 31.1936 19.1295 28.8643 20.5877C28.219 20.9954 28.8171 21.9989 29.4624 21.6069L29.4781 21.5912Z" fill="#231F20"/>
<path d="M24.0169 24.0849C22.9624 25.2608 22.3486 26.8288 21.8765 28.3184C21.4043 29.808 21.0266 31.4544 21.121 33.0537C21.3571 36.7541 23.3717 40.2037 25.5908 43.0888C26.8027 44.6568 28.1562 46.1307 29.6357 47.4478C30.2023 47.9495 31.0364 47.1185 30.4698 46.6167C27.9201 44.3588 25.6852 41.6462 24.0799 38.62C23.2772 37.1305 22.6477 35.5154 22.3801 33.8377C22.1598 32.3638 22.3644 30.9213 22.7421 29.4944C23.167 27.9264 23.7336 26.1389 24.8354 24.9002C25.339 24.3357 24.5048 23.5047 24.0012 24.0692L24.0169 24.0849Z" fill="#231F20"/>
<path d="M30.9417 48.3417C35.1125 51.9167 41.9589 51.9637 46.0667 48.2633C47.3572 47.103 48.4275 45.7075 49.4662 44.3277C50.505 42.9478 51.4178 41.5994 52.2205 40.1255C53.7157 37.3815 54.7387 34.3083 54.5341 31.1566C54.3138 27.7855 52.6769 24.7906 50.2374 22.4857C49.6866 21.9683 48.8524 22.7993 49.4033 23.3167C51.4021 25.1983 52.8501 27.5659 53.2593 30.3099C53.6685 33.0539 52.9602 35.939 51.7484 38.4477C50.3948 41.2387 48.5219 43.8729 46.4444 46.1935C45.4843 47.2755 44.4141 48.2319 43.1078 48.8591C42.0218 49.3922 40.8099 49.6901 39.598 49.7999C36.8438 50.0351 33.8849 49.3295 31.7602 47.5107C31.1936 47.0246 30.3437 47.8399 30.926 48.3417H30.9417Z" fill="#231F20"/>
</svg>
