<svg width="80" height="76" viewBox="0 0 80 76" fill="none" xmlns="http://www.w3.org/2000/svg">
<path d="M55.1837 48.4362C54.9949 48.4676 54.806 48.5617 54.6644 48.7028C54.3811 48.985 54.2866 49.4084 54.2079 49.8004C54.0191 50.7411 53.8302 51.6819 53.6413 52.6227C53.4367 53.6105 52.7757 54.9904 51.5638 54.912C51.5323 52.2307 50.588 49.6749 49.5178 47.2289C49.2974 46.7271 48.9984 45.7079 48.542 45.3786C46.9366 42.9483 44.2296 41.2549 41.3336 40.9099C38.3433 40.565 35.227 41.6469 33.1023 43.7793C29.3879 47.4954 26.492 60.5097 35.0696 60.0706L35.6834 59.4278C35.9667 59.8825 36.4074 60.2117 37.1314 60.3215C39.6968 60.6665 40.3264 59.0671 40.468 57.1542C40.6097 59.0828 41.2235 60.6821 43.8046 60.3215C45.0008 60.1647 46.2127 60.0549 47.3773 59.7413C48.1328 59.5375 49.5965 58.3615 50.2732 58.4399C50.4779 58.4713 50.651 58.5967 50.8398 58.7065C52.6183 59.8041 54.4283 58.973 56.0494 58.0636C56.5373 57.7971 57.214 57.5932 57.5918 57.1699C57.9695 56.7465 57.8751 54.7708 57.9065 54.7395C58.6148 54.2534 59.1342 53.4224 59.024 52.56C58.9138 51.6976 57.9852 50.992 57.1826 51.2899C57.1826 50.5059 57.1511 49.6906 56.6947 49.0477C56.3641 48.5773 55.7346 48.3108 55.2152 48.4049L55.1837 48.4362Z" fill="white"/>
<path d="M32.1107 56.2289C33.4485 55.4292 34.5502 54.7393 34.5187 52.9832C34.4873 51.3839 33.842 49.7688 32.5042 48.8124C31.9376 48.4204 31.3238 48.1225 30.6785 47.8716C29.4036 51.1487 28.9315 55.2411 30.3322 57.7655C30.7572 57.1383 31.3867 56.6523 32.095 56.2289H32.1107Z" fill="#F39B4A"/>
<path d="M51.2805 52.9363C51.0287 51.2272 50.4463 49.5181 49.8168 47.9814C49.2187 48.593 48.6364 49.2045 48.0855 49.863C47.2514 50.8508 46.3385 52.0582 46.2441 53.391C46.1969 53.9868 46.3228 54.7081 46.8107 55.1001C47.3615 55.5391 48.0855 55.7116 48.6836 56.0879C49.4391 56.5583 49.9899 57.2482 50.3991 58.0008C50.5408 57.8284 50.6824 57.6402 50.8083 57.4364C50.8555 57.5304 50.9028 57.6245 50.95 57.7186C51.3277 56.4956 51.3907 55.1314 51.3592 53.9241C51.3592 53.5948 51.3277 53.2655 51.2962 52.9363H51.2805Z" fill="#F39B4A"/>
<path d="M34.6919 54.9901C34.6919 55.9153 34.566 56.856 34.629 57.7812C34.6604 58.2672 34.7234 58.769 34.8965 59.2237C35.1011 59.7411 35.4002 60.1645 35.8408 60.4781C36.3287 60.823 36.9268 60.9171 37.5091 60.9642C38.0915 61.0112 38.6738 60.9328 39.2089 60.6976C40.0903 60.3056 40.6097 59.4432 40.8458 58.5495C41.1133 57.4676 41.0976 56.3072 41.0976 55.194C41.0976 54.8804 40.83 54.5981 40.4995 54.5981C40.169 54.5981 39.9014 54.849 39.9014 55.194C39.9014 55.6644 39.9014 56.1348 39.9014 56.6208C39.9014 56.856 39.8857 57.0912 39.8542 57.3264C39.8542 57.4362 39.8385 57.546 39.8227 57.6557C39.807 57.8125 39.8385 57.5146 39.8227 57.6714C39.8227 57.7341 39.807 57.7968 39.7913 57.8752C39.7598 58.0791 39.7126 58.2672 39.6496 58.4711C39.6181 58.5651 39.5867 58.6592 39.5552 58.7376C39.5552 58.769 39.5394 58.7847 39.5237 58.816C39.5709 58.6435 39.5709 58.7219 39.5394 58.769C39.508 58.816 39.4922 58.8631 39.4765 58.9101C39.4293 58.9885 39.3821 59.0669 39.3348 59.1453C39.3034 59.1923 39.2719 59.2237 39.2561 59.2707C39.3506 59.0983 39.2876 59.2237 39.2561 59.2707C39.1932 59.3335 39.1302 59.3962 39.0673 59.4589C39.0515 59.4746 39.0358 59.4902 39.0043 59.5059C38.9256 59.5686 39.1145 59.4275 39.0515 59.4589C39.0043 59.4903 38.9571 59.5216 38.9256 59.553C38.8469 59.6 38.7682 59.647 38.6738 59.6784C38.5794 59.7254 38.8155 59.6157 38.721 59.6627C38.7053 59.6627 38.6895 59.6627 38.6738 59.6784C38.6109 59.6941 38.5479 59.7254 38.4849 59.7411C38.3748 59.7725 38.2803 59.7882 38.1702 59.8038C38.123 59.8038 38.0757 59.8038 38.2331 59.8038C38.2017 59.8038 38.1702 59.8038 38.1387 59.8038C38.0757 59.8038 37.997 59.8038 37.9184 59.8038C37.7924 59.8038 37.6665 59.8038 37.5564 59.8038C37.4777 59.8038 37.399 59.8038 37.336 59.7882C37.3045 59.7882 37.2573 59.7882 37.2258 59.7882C37.3518 59.8038 37.0842 59.7725 37.2258 59.7882C37.1157 59.7725 36.9898 59.7411 36.8796 59.7098C36.8166 59.6941 36.7694 59.6784 36.7065 59.647C36.6278 59.6157 36.7694 59.6784 36.7694 59.6784C36.7379 59.6627 36.7065 59.6471 36.675 59.6314C36.5806 59.5843 36.5019 59.5373 36.4232 59.4746C36.3287 59.4118 36.5333 59.5686 36.4546 59.5059C36.4389 59.5059 36.4232 59.4746 36.4074 59.4589C36.3602 59.4275 36.3287 59.3805 36.2815 59.3491C36.25 59.3178 36.2343 59.2864 36.2028 59.2551C36.1399 59.1767 36.2973 59.3805 36.2343 59.3021C36.2343 59.2864 36.2028 59.2551 36.1871 59.2394C36.1241 59.161 36.0769 59.0669 36.0297 58.9728C36.0297 58.9728 36.0297 58.9415 36.014 58.9258C35.9667 58.8317 36.0769 59.0669 36.0297 58.9728C36.014 58.9258 35.9982 58.8787 35.9825 58.8317C35.951 58.7376 35.9195 58.6279 35.9038 58.5338C35.8881 58.4397 35.8566 58.3299 35.8408 58.2359C35.8408 58.2202 35.8408 58.1888 35.8408 58.1731C35.8251 58.0634 35.8566 58.3299 35.8408 58.2202C35.8408 58.1575 35.8408 58.1104 35.8251 58.0477C35.7307 57.0442 35.8723 56.0407 35.8723 55.0529C35.8723 54.7393 35.6048 54.457 35.2742 54.457C34.9437 54.457 34.6919 54.7079 34.6762 55.0529L34.6919 54.9901Z" fill="#231F20"/>
<path d="M49.1873 45.3157C47.2357 42.2268 43.7102 40.2041 40.0274 40.2825C36.8009 40.3452 33.543 41.9132 31.6858 44.5944C30.4425 46.3976 29.6555 48.5614 29.2149 50.6939C28.7742 52.8263 28.601 55.1783 29.388 57.2323C29.7972 58.2829 30.4425 59.2237 31.4025 59.8509C32.4728 60.5565 33.7791 60.7603 35.0382 60.6976C35.7937 60.6662 35.7937 59.4902 35.0382 59.5216C33.181 59.6 31.5285 58.9728 30.6786 57.2637C29.8287 55.5546 29.9231 53.5319 30.2064 51.7444C30.5369 49.7374 31.1822 47.7617 32.1895 45.9899C33.5115 43.685 35.7936 42.1484 38.422 41.6309C42.1993 40.894 46.1183 42.6972 48.1486 45.9115C48.5578 46.5544 49.5808 45.9586 49.1716 45.3157H49.1873Z" fill="#231F20"/>
<path d="M45.0324 54.9902C45.0324 55.884 45.1425 56.7778 45.1111 57.6715C45.1111 57.7813 45.1111 57.891 45.0953 58.0008C45.0953 58.0478 45.0953 58.0949 45.0953 58.1419C45.0953 58.1889 45.0638 58.2987 45.0953 58.0949C45.0953 58.1262 45.0953 58.1576 45.0953 58.1733C45.0638 58.3771 45.0166 58.5809 44.9537 58.7848C44.9379 58.8318 44.9222 58.8788 44.9065 58.9259C44.875 59.02 44.9694 58.8004 44.9379 58.8632C44.9379 58.8788 44.9222 58.8945 44.9065 58.9259C44.8592 59.02 44.812 59.114 44.7491 59.1924C44.7491 59.2081 44.7176 59.2395 44.7019 59.2552C44.6546 59.3336 44.7806 59.1454 44.7333 59.2081C44.7019 59.2395 44.6704 59.2865 44.6389 59.3179C44.6074 59.3492 44.576 59.3806 44.5445 59.412C44.5445 59.412 44.513 59.4433 44.4973 59.459C44.3871 59.5531 44.5917 59.3963 44.513 59.459C44.4343 59.5217 44.3556 59.5688 44.2612 59.6158C44.214 59.6472 44.0566 59.6942 44.2612 59.6158C44.1982 59.6315 44.1353 59.6628 44.0723 59.6785C43.9621 59.7099 43.852 59.7412 43.7261 59.7569C43.6788 59.7569 43.6631 59.7412 43.7733 59.7569C43.7418 59.7569 43.6946 59.7569 43.6474 59.7569C43.5687 59.7569 43.49 59.7726 43.3955 59.7726C43.2696 59.7726 43.1437 59.7726 43.0178 59.7726C42.9549 59.7726 42.8919 59.7726 42.8132 59.7726C42.7817 59.7726 42.7503 59.7726 42.7188 59.7726C42.5929 59.7726 42.8762 59.804 42.7503 59.7726C42.6401 59.7569 42.5457 59.7412 42.4355 59.7099C42.3883 59.7099 42.3253 59.6785 42.2781 59.6628C42.2624 59.6628 42.2466 59.6628 42.2309 59.6472C42.0892 59.6001 42.341 59.6942 42.2466 59.6472C42.1522 59.6001 42.0735 59.5688 41.9948 59.5217C41.9633 59.4904 41.9161 59.4747 41.8846 59.4433C41.8374 59.412 41.8217 59.3649 41.9318 59.4904C41.9161 59.4747 41.8846 59.4433 41.8531 59.4276C41.7902 59.3649 41.7272 59.3022 41.6643 59.2395C41.6328 59.2081 41.6171 59.1768 41.5856 59.1454C41.7272 59.3022 41.5856 59.1454 41.5698 59.114C41.5226 59.0356 41.4754 58.9572 41.4282 58.8788C41.4125 58.8475 41.3967 58.8004 41.3652 58.7691C41.3652 58.7534 41.3495 58.722 41.3338 58.7064C41.4282 58.8632 41.3652 58.7848 41.3338 58.7377C41.2551 58.5496 41.2079 58.3614 41.1606 58.1576C41.1292 58.0321 41.1134 57.9224 41.0819 57.7969C41.0819 57.7342 41.0662 57.6715 41.0505 57.6088C41.0505 57.5304 41.0662 57.7813 41.0505 57.6715C41.0505 57.6401 41.0505 57.5931 41.0505 57.5617C41.019 57.3109 41.0033 57.06 40.9875 56.8091C40.956 56.276 40.9718 55.7429 40.9718 55.2098C40.9718 54.8962 40.7042 54.6139 40.3737 54.6139C40.0432 54.6139 39.7914 54.8648 39.7756 55.2098C39.7756 56.2133 39.7756 57.2325 39.9488 58.236C40.1219 59.1611 40.5468 60.0705 41.381 60.5723C41.8531 60.8545 42.3883 60.9643 42.9391 60.9956C43.5529 61.0113 44.1982 60.9329 44.7491 60.6663C45.7249 60.2116 46.1026 59.1611 46.2128 58.1576C46.3229 57.1541 46.1813 56.0565 46.1813 55.0216C46.1813 54.708 45.9137 54.4258 45.5832 54.4258C45.2527 54.4258 44.9852 54.6767 44.9852 55.0216L45.0324 54.9902Z" fill="#231F20"/>
<path d="M48.1642 45.8486C48.5577 46.0838 48.7308 46.9148 48.9039 47.3382C49.0928 47.7929 49.2974 48.279 49.4863 48.7807C49.8797 49.847 50.226 50.9446 50.4621 52.0578C50.6981 53.124 50.824 54.1903 50.7611 55.2879C50.7296 55.7739 50.6667 56.1816 50.5093 56.6677C50.4306 56.9186 50.3834 57.0283 50.2732 57.2478C50.1945 57.4046 50.0214 57.6869 49.9584 57.7653C49.2502 58.6904 48.1012 59.0824 46.9208 59.1921C46.1654 59.2548 46.1654 60.4308 46.9208 60.3681C48.2114 60.2584 49.502 59.8977 50.4463 58.9726C51.249 58.2043 51.6897 57.1538 51.8471 56.0719C52.2248 53.6101 51.548 51.0543 50.7139 48.7494C50.4935 48.1536 50.2102 47.495 50.0056 46.9462C49.7066 46.2093 49.4863 45.2528 48.7465 44.8138C48.0855 44.4218 47.5032 45.4409 48.1485 45.8329L48.1642 45.8486Z" fill="#231F20"/>
<path d="M57.4975 55.9938C57.3873 56.229 57.2457 56.4485 57.0883 56.668C57.0725 56.6993 57.0411 56.715 57.0253 56.7464C56.9781 56.7934 56.9466 56.8405 56.8994 56.8875C56.805 56.9816 56.7263 57.0757 56.6319 57.1697C56.5374 57.2638 56.443 57.3422 56.3328 57.4206C56.4273 57.3422 56.2856 57.452 56.2541 57.4677C56.2069 57.499 56.144 57.5461 56.0967 57.5774C55.8764 57.7342 55.6246 57.8597 55.3885 57.9694C55.357 57.9851 55.2154 58.0478 55.3255 58.0008C55.2626 58.0321 55.1996 58.0478 55.1367 58.0792C54.995 58.1262 54.8691 58.1732 54.7275 58.2203C54.4599 58.2987 54.1924 58.3614 53.9248 58.4084C53.8618 58.4084 53.7989 58.4241 53.7517 58.4398C53.8776 58.4241 53.6887 58.4398 53.6415 58.4398C53.4999 58.4398 53.3425 58.4712 53.2008 58.4712C52.9175 58.4712 52.6342 58.4712 52.3509 58.4555C52.2722 58.4555 52.1935 58.4555 52.1148 58.4398C52.0834 58.4398 52.0361 58.4398 52.0047 58.4398C52.0991 58.4398 52.0204 58.4398 51.9732 58.4398C51.8158 58.4084 51.6584 58.3928 51.501 58.3457C51.1705 58.2673 50.8557 58.1733 50.541 58.0635C50.2577 57.9537 49.8799 58.1889 49.817 58.4712C49.7383 58.8004 49.9114 59.0827 50.2262 59.1924C52.5555 60.0391 55.3885 59.7883 57.3086 58.1419C57.8123 57.7185 58.2372 57.1854 58.5205 56.5896C58.6622 56.3074 58.5992 55.9467 58.3159 55.7899C58.0483 55.6488 57.6549 55.7115 57.5132 55.9938H57.4975Z" fill="#231F20"/>
<path d="M52.4296 55.3664C53.1851 54.9588 53.8303 54.3002 54.2081 53.5162C54.5858 52.7322 54.7275 51.9012 54.6173 51.0388C54.5858 50.7566 54.5543 50.4587 54.5701 50.1764C54.5701 50.098 54.5701 50.0353 54.5701 49.9569C54.6173 49.8315 54.5701 49.8942 54.5701 49.9569C54.5701 49.9255 54.5701 49.8785 54.5858 49.8471C54.5858 49.7844 54.6173 49.706 54.633 49.6433C54.633 49.6119 54.6488 49.5806 54.6645 49.5492C54.696 49.4551 54.6015 49.6747 54.6645 49.5492C54.696 49.5022 54.7117 49.4551 54.7432 49.4081C54.8061 49.2983 54.7274 49.4081 54.7432 49.4238C54.7432 49.4238 54.8061 49.3611 54.8061 49.3454C54.8061 49.3454 54.8691 49.2827 54.8848 49.2827L54.8219 49.3297C54.8219 49.3297 54.8534 49.2983 54.8848 49.2983C54.9163 49.2827 54.9478 49.267 54.9793 49.2513C55.058 49.2043 54.8534 49.2983 55.0107 49.2513C55.058 49.2513 55.1996 49.1729 55.2468 49.1886H55.1681C55.1681 49.1886 55.2311 49.1886 55.2626 49.1886C55.3098 49.1886 55.357 49.1886 55.4042 49.1886C55.4514 49.1886 55.4986 49.1886 55.5616 49.1886C55.42 49.1729 55.5616 49.1886 55.5931 49.1886C55.6403 49.1886 55.6875 49.2199 55.7347 49.2356C55.7977 49.267 55.7977 49.2513 55.7347 49.2356C55.7662 49.2356 55.7977 49.267 55.8292 49.2827C55.8764 49.314 55.9236 49.3297 55.9551 49.3611C55.9551 49.3611 56.0967 49.4708 56.0023 49.3924C56.0967 49.4708 56.1754 49.5492 56.2541 49.6433C56.2541 49.6433 56.3643 49.7844 56.2856 49.6903C56.3328 49.7374 56.3643 49.8001 56.3958 49.8628C56.4272 49.9099 56.443 49.9569 56.4745 50.0039C56.4902 50.0353 56.5059 50.0667 56.5217 50.1137C56.5059 50.0667 56.5059 50.0667 56.5217 50.1294C56.6161 50.3803 56.6791 50.6468 56.7105 50.9134C56.6948 50.7879 56.7105 50.9761 56.7105 50.9918C56.7105 51.0702 56.7105 51.1486 56.7263 51.227C56.7263 51.3681 56.7263 51.4935 56.7263 51.6346C56.7263 52.1678 57.3558 52.3873 57.7336 52.058C57.6234 52.1521 57.7336 52.058 57.765 52.058C57.6549 52.1364 57.7493 52.058 57.7808 52.058C57.8909 52.011 57.6863 52.058 57.7965 52.058C57.828 52.058 57.8595 52.058 57.8909 52.058H57.828C57.828 52.058 57.9224 52.058 57.9539 52.0894C58.0798 52.1207 57.8595 52.0266 57.9854 52.0894C58.0168 52.105 58.1113 52.1834 58.0168 52.0894C58.0483 52.1207 58.0798 52.1521 58.1113 52.1834C58.0326 52.105 58.1113 52.1834 58.1428 52.2305C58.1742 52.2775 58.19 52.3245 58.2057 52.3559C58.1428 52.2461 58.2057 52.3873 58.2057 52.4029C58.2057 52.45 58.2372 52.497 58.2372 52.5441C58.2687 52.7009 58.2372 52.4343 58.2372 52.5911C58.2372 52.6381 58.2372 52.6852 58.2372 52.7479C58.2372 52.8106 58.2372 52.842 58.2372 52.9047C58.2372 52.9204 58.2057 53.0929 58.2372 52.9517C58.2057 53.1399 58.1585 53.3281 58.0798 53.5162C58.1113 53.4221 58.0798 53.5162 58.0641 53.5476C58.0483 53.5946 58.0169 53.6417 58.0011 53.673C57.9539 53.7514 57.8909 53.8455 57.8437 53.9239C57.7808 54.018 57.9067 53.8612 57.8122 53.9552C57.7808 53.9866 57.7493 54.0336 57.7178 54.065C57.6549 54.1277 57.5919 54.1904 57.5289 54.2532C57.5132 54.2688 57.4975 54.2845 57.466 54.3002C57.5132 54.2688 57.5289 54.2532 57.4817 54.2845C57.4345 54.3159 57.403 54.3472 57.3558 54.3629C57.2614 54.4256 57.167 54.4727 57.0725 54.5197C56.7892 54.6452 56.6948 55.0685 56.8679 55.3194C57.0568 55.6016 57.3716 55.68 57.6706 55.5232C58.7094 55.0372 59.4019 53.9239 59.4333 52.7949C59.4333 52.1521 59.213 51.5092 58.6779 51.1329C58.1428 50.7566 57.3873 50.7722 56.8837 51.2113L57.8909 51.6346C57.8909 50.5841 57.6863 49.4238 56.8679 48.6712C56.1597 48.0283 55.0265 47.7774 54.1923 48.3419C53.5313 48.7966 53.3424 49.5806 53.3424 50.3332C53.3424 50.6625 53.3897 50.9761 53.4211 51.2897C53.4369 51.4935 53.4369 51.713 53.4211 51.9169C53.4211 51.9639 53.4211 52.011 53.4211 52.058C53.4211 51.9482 53.4211 52.0423 53.4211 52.0894C53.4054 52.1991 53.3739 52.3089 53.3424 52.4186C53.311 52.5284 53.2795 52.6538 53.2323 52.7636C53.2323 52.7793 53.2165 52.8106 53.2008 52.8263C53.2323 52.7636 53.2165 52.7793 53.2008 52.8263C53.1693 52.8733 53.1536 52.9361 53.1221 52.9831C53.0119 53.1869 52.886 53.3908 52.7444 53.5789C52.8231 53.4849 52.7129 53.626 52.6814 53.6417C52.6499 53.6887 52.6027 53.7201 52.5712 53.7671C52.4926 53.8612 52.3981 53.9396 52.3037 54.018C52.2879 54.0336 52.2722 54.0493 52.2407 54.065C52.2407 54.065 52.1463 54.1434 52.2093 54.0964C52.2722 54.0493 52.2093 54.0964 52.1935 54.0964C52.162 54.112 52.1463 54.1277 52.1148 54.1591C52.0047 54.2375 51.8945 54.3002 51.7843 54.3629C51.5167 54.504 51.4066 54.9117 51.5797 55.1626C51.7528 55.4448 52.0991 55.5232 52.3824 55.3664H52.4296Z" fill="#231F20"/>
<path d="M29.1204 50.2392C29.1676 50.4587 29.2463 50.7096 29.4666 50.7566C29.6083 50.788 29.7499 50.7096 29.8758 50.6312C30.2536 50.3803 30.5998 50.0667 30.8674 49.7217C31.1821 50.5685 31.5914 51.3681 32.1107 52.1051C32.3783 52.4814 32.7088 52.8734 33.1652 52.9361C33.6216 52.9988 34.1253 52.5127 33.9207 52.1051C35.8723 54.0494 39.3191 53.5476 41.4595 55.3038C41.9317 54.0964 43.3482 53.5947 44.5915 53.2183C45.3942 52.9831 46.1969 52.6852 46.8579 52.1678C46.9838 52.0737 48.0383 50.8821 47.9439 50.835C48.8567 51.1643 49.927 50.788 50.5565 50.051C51.1861 49.3141 51.4379 48.3106 51.3592 47.3384C51.1861 44.9864 48.4318 43.2303 46.5589 42.1327C44.3397 40.847 41.7901 40.1884 39.2561 39.9846C36.8481 39.7808 33.9994 39.7808 32.6616 42.2111C32.1422 43.1362 31.3867 43.5753 30.6942 44.4063C29.3722 46.0056 28.7426 48.1851 29.1204 50.2235V50.2392Z" fill="white"/>
<path d="M32.0951 42.3056C30.5212 43.0426 29.4667 44.4224 28.9473 46.0374C28.4279 47.6524 28.0187 49.5183 28.8371 51.0706C28.963 51.3058 29.1204 51.5253 29.388 51.5881C29.687 51.6665 29.9703 51.5097 30.2064 51.3685C30.4267 51.2274 30.6471 51.0549 30.8517 50.8825C30.9776 50.757 31.1665 50.4905 31.2766 50.4278L30.9776 50.5062H30.9304C30.836 50.4434 30.7573 50.3964 30.6628 50.3494C30.6156 50.3023 30.6314 50.2082 30.6156 50.271C30.5999 50.3337 30.6471 50.4905 30.6628 50.5689C30.6943 50.71 30.7573 50.8511 30.8045 50.9766C30.9619 51.3372 31.135 51.6821 31.3553 52.0114C31.7173 52.5602 32.1895 53.2501 32.8033 53.5167C33.1023 53.6421 33.4328 53.6108 33.606 53.3128C33.7476 53.062 33.6847 52.6386 33.4014 52.5132C33.3227 52.4818 33.2597 52.4348 33.181 52.3877C33.0551 52.3093 33.2597 52.4661 33.1496 52.3564C33.1181 52.325 33.0709 52.278 33.0236 52.2466C32.9449 52.1682 32.8663 52.0741 32.7876 51.9957C32.7246 51.9173 32.6459 51.8233 32.6144 51.7919C32.457 51.5881 32.3154 51.3685 32.1895 51.149C32.1265 51.0393 32.0636 50.9295 32.0006 50.8198C31.9691 50.7727 31.9534 50.71 31.9219 50.663C31.8432 50.4905 31.9534 50.757 31.8904 50.6002C31.859 50.5062 31.8275 50.4121 31.796 50.318C31.796 50.2866 31.7803 50.2396 31.7645 50.2082C31.7645 50.1612 31.7645 50.1769 31.7645 50.271C31.7645 50.2239 31.7645 50.1769 31.7488 50.1298C31.6858 49.7378 31.434 49.3772 31.0091 49.3615C30.5841 49.3459 30.3481 49.7222 30.0648 50.0044C29.8287 50.2239 29.5611 50.4278 29.2778 50.5532L29.5769 50.4748H29.4982C29.5926 50.5062 29.7028 50.5375 29.7972 50.5532C29.9074 50.6786 29.9231 50.6943 29.8444 50.5846C29.8129 50.5375 29.7972 50.4905 29.7657 50.4434C29.7342 50.3964 29.7185 50.3337 29.7028 50.2866C29.6398 50.1142 29.5926 49.926 29.5611 49.7378C29.4982 49.4086 29.5139 49.0636 29.5296 48.7343C29.5769 47.9817 29.7815 47.2291 30.0018 46.5235C30.2221 45.8179 30.5212 45.1593 31.0091 44.6106C31.497 44.0618 32.0164 43.6698 32.6616 43.3718C32.9449 43.2307 33.0236 42.8231 32.8663 42.5722C32.6931 42.2743 32.3469 42.2272 32.0636 42.3683L32.0951 42.3056Z" fill="#231F20"/>
<path d="M33.4486 52.4347C33.8106 52.9364 34.2985 53.203 34.8494 53.4382C35.4002 53.6734 35.9196 53.8615 36.4862 54.034C37.4148 54.3163 38.3906 54.3947 39.2877 54.7239C39.3506 54.7396 39.4136 54.771 39.4608 54.7867C39.3506 54.7396 39.4923 54.8023 39.5395 54.818C39.6497 54.8651 39.7598 54.9278 39.87 55.0062C39.9015 55.0218 40.0431 55.1316 39.933 55.0532C39.9802 55.0846 40.0117 55.1159 40.0589 55.163C40.1533 55.257 40.2477 55.3511 40.3264 55.4609C40.5153 55.6961 40.956 55.6804 41.1606 55.4609C41.3967 55.21 41.3652 54.8807 41.1606 54.6299C40.5625 53.8772 39.5867 53.5479 38.6739 53.3441C38.2332 53.25 37.7768 53.1716 37.3361 53.0619C36.7695 52.9208 36.2186 52.7169 35.6678 52.5131C35.5261 52.4504 35.3687 52.4033 35.2271 52.3406C35.1956 52.3406 35.1799 52.3249 35.1484 52.3092C35.1956 52.3249 35.1956 52.3249 35.1484 52.3092C35.0854 52.2779 35.0225 52.2465 34.9595 52.2152C34.8336 52.1524 34.7234 52.0897 34.6133 51.9956C34.692 52.0584 34.5818 51.9643 34.5503 51.9329C34.5188 51.9016 34.5031 51.8859 34.4874 51.8545C34.4716 51.8388 34.4087 51.7448 34.4716 51.8388C34.2985 51.588 33.9522 51.4469 33.6689 51.635C33.4171 51.7918 33.2597 52.1681 33.4643 52.4347H33.4486Z" fill="#231F20"/>
<path d="M41.6328 55.9153C41.7115 55.7741 41.7902 55.6487 41.8846 55.5233C41.9319 55.4449 41.8374 55.586 41.8846 55.5233C41.9161 55.4919 41.9319 55.4606 41.9476 55.4449C42.0105 55.3822 42.0735 55.3194 42.1365 55.2567C42.2466 55.147 42.3568 55.0529 42.467 54.9588C42.3725 55.0372 42.5457 54.9118 42.5614 54.8961C42.6244 54.849 42.6873 54.802 42.766 54.7706C42.8919 54.6922 43.0178 54.6138 43.1595 54.5511C43.2224 54.5198 43.2854 54.4884 43.3483 54.457C43.3798 54.457 43.4113 54.4257 43.4428 54.41C43.4428 54.41 43.6159 54.3473 43.49 54.3943C43.7733 54.2846 44.0566 54.1905 44.3556 54.0964C44.9694 53.9239 45.5832 53.7671 46.1656 53.5006C46.7479 53.234 47.3302 52.7793 47.7394 52.2619C48.2588 51.6033 48.5893 50.8507 48.6838 50.0197C48.7152 49.7061 48.3847 49.4238 48.0857 49.4238C47.7394 49.4238 47.5348 49.6904 47.4876 50.0197C47.4876 50.1451 47.4876 50.051 47.4876 50.0197C47.4876 50.051 47.4876 50.0981 47.4719 50.1294C47.4719 50.2078 47.4404 50.2705 47.4247 50.3489C47.4089 50.4273 47.3775 50.4901 47.3617 50.5685C47.3617 50.5998 47.3302 50.6312 47.3302 50.6782C47.3302 50.6782 47.2515 50.8507 47.2988 50.7409C47.2358 50.8821 47.1729 51.0075 47.0942 51.1329C47.0627 51.1956 47.0155 51.2584 46.9682 51.3211C46.9525 51.3524 46.921 51.3838 46.9053 51.4152C46.8109 51.5563 46.984 51.3368 46.8581 51.4622C46.7636 51.572 46.6692 51.6817 46.559 51.7758C46.5118 51.8228 46.4489 51.8856 46.4017 51.9326C46.3702 51.964 46.3387 51.9796 46.3072 52.011C46.3072 52.011 46.1813 52.1051 46.2285 52.0737C46.2915 52.0267 46.1341 52.1364 46.1498 52.1364C46.1184 52.1521 46.0869 52.1835 46.0554 52.1992C45.9924 52.2462 45.9295 52.2776 45.8665 52.3089C45.8036 52.3403 45.7406 52.3716 45.6777 52.403C45.6462 52.4187 45.6147 52.4344 45.5832 52.45C45.5832 52.45 45.4416 52.5128 45.5045 52.4814C45.5675 52.45 45.4731 52.4814 45.4573 52.4971C45.4259 52.4971 45.3944 52.5284 45.3629 52.5284C45.2999 52.5598 45.237 52.5755 45.174 52.5911C45.0324 52.6382 44.8907 52.6852 44.7491 52.7166C44.4658 52.795 44.1668 52.8734 43.8677 52.9675C43.2696 53.1556 42.6716 53.3908 42.1365 53.7201C41.5069 54.1121 40.9718 54.6452 40.5941 55.3038C40.4367 55.5703 40.5154 55.9623 40.7987 56.1034C41.082 56.2445 41.444 56.1818 41.6013 55.8996L41.6328 55.9153Z" fill="#231F20"/>
<path d="M49.4865 51.3997C51.1705 50.4119 52.0519 48.3892 51.6742 46.4919C51.3279 44.7515 49.7068 43.6068 48.3218 42.6817C44.8436 40.3611 40.5154 39.2165 36.3289 39.6085C34.4875 39.781 32.3155 40.4552 31.8119 42.4622C31.6388 43.1992 32.7719 43.5127 32.9451 42.7758C33.2913 41.3803 34.8967 40.9256 36.1715 40.8001C37.9657 40.612 39.7914 40.7061 41.5542 41.0824C43.3169 41.4587 45.0482 42.1172 46.6378 43.0267C47.3775 43.45 48.0857 43.9204 48.7625 44.4535C49.2976 44.8612 49.8327 45.3159 50.179 45.8961C51.0761 47.417 50.3364 49.5181 48.8569 50.3805C48.1959 50.7568 48.794 51.776 49.455 51.3997H49.4865Z" fill="#231F20"/>
<path d="M21.157 19.4119C20.7005 19.898 20.3228 20.4468 20.008 21.0112C19.6461 21.6855 19.347 22.4067 19.2526 23.1594C19.1267 24.1785 19.3313 25.1977 19.41 26.2169C19.5516 28.1769 18.5129 29.3999 17.7102 31.0777C16.8131 32.9749 16.5613 35.3582 17.7731 37.0673C18.0564 37.475 18.4342 37.8356 18.7017 38.259C19.4729 39.482 19.347 41.05 19.2998 42.5082C19.2526 43.9665 19.3628 45.5972 20.4487 46.5693C21.2357 47.2749 22.3689 47.463 23.2345 48.0746C23.9113 48.5606 24.3047 49.423 23.927 50.207C23.8326 50.3952 23.7224 50.599 23.8168 50.7715C23.9427 50.991 24.3047 50.8969 24.5093 50.7401C25.0602 50.3481 25.4379 49.7209 25.5323 49.0467C25.4694 49.423 27.72 48.2784 27.9246 47.9334C28.4912 47.0083 28.6171 45.6912 28.9162 44.6564C29.1995 43.6685 28.9791 43.6842 30.1281 43.9508C37.3049 45.5815 44.3087 45.9107 51.3596 43.2765C51.2337 44.4682 51.6114 45.7069 52.3826 46.632C53.1066 47.4944 54.287 48.0902 55.373 47.7923C55.5461 47.7453 55.7035 47.6826 55.8766 47.6669C57.0413 47.5885 57.6236 48.6861 58.9142 48.0432C58.3791 47.2279 58.5837 46.1303 59.0559 45.2836C59.528 44.4368 60.252 43.7626 60.8186 42.9786C62.4554 40.6737 62.5341 37.6475 61.3065 35.1544C62.2823 35.3582 63.5099 34.7154 63.4784 33.6335C63.447 32.4888 62.5341 32.7397 61.7157 32.3164C60.8973 31.893 60.3779 30.9679 60.0946 30.1525C59.5438 28.5375 59.9057 26.7814 60.1576 25.1037C60.4094 23.4259 60.4723 21.5443 59.4493 20.1802C58.7096 19.1767 57.4977 18.6122 56.3331 18.1732C55.011 17.6714 53.5473 17.2638 52.2095 17.7341C51.9419 17.8282 51.6901 17.9537 51.4226 17.9693C51.0448 18.0007 50.6671 17.8125 50.3366 17.6401C48.023 16.4327 45.6464 15.2411 43.081 14.8334C41.098 14.5198 39.0519 14.6923 37.0531 14.8491C35.3061 14.9902 33.5434 15.147 31.8751 15.6644C31.1196 15.8996 30.4428 16.2602 29.7818 16.6836C29.2782 16.9972 28.7273 17.7655 28.2551 17.9693C27.2636 18.4084 26.1462 17.7028 25.1546 17.6087C23.628 17.4676 22.2115 18.2516 21.157 19.3962V19.4119Z" fill="#F39B4A"/>
<path d="M49.1877 36.6752C48.6526 36.2675 48.023 35.9853 47.3935 35.7501C45.4261 34.9975 44.3559 34.1194 43.3644 32.2065C41.4757 28.5217 42.9394 25.3858 45.3789 22.4693C46.7167 20.87 47.2203 18.6278 46.6065 16.6364C46.5121 16.3072 46.3704 15.9622 46.1186 15.727C45.552 15.1782 43.868 14.943 43.0968 14.8333C42.0738 14.6765 41.035 14.6608 39.9963 14.6765C38.9575 14.6451 37.9187 14.6765 36.8957 14.8333C36.1245 14.9587 34.4405 15.1782 33.8739 15.727C33.6221 15.9622 33.4804 16.3072 33.386 16.6364C32.7722 18.6278 33.2758 20.87 34.6136 22.4693C37.0531 25.3858 38.5168 28.5217 36.6282 32.2065C35.6366 34.1194 34.5664 34.9975 32.5991 35.7501C31.9695 35.9853 31.34 36.2675 30.8048 36.6752C29.6244 37.5533 28.9162 39.0272 28.9634 40.5011C28.9634 40.8617 29.0264 41.191 29.1051 41.4889C29.9077 44.6406 34.047 44.8758 36.9272 45.111C37.8243 45.1893 38.7372 45.205 39.6343 45.205C39.7602 45.205 39.8861 45.205 40.012 45.205C40.1379 45.205 40.2638 45.205 40.3897 45.205C41.2868 45.205 42.1997 45.1893 43.0968 45.111C45.977 44.8758 50.1163 44.6406 50.9189 41.4889C50.9976 41.191 51.0449 40.8617 51.0606 40.5011C51.1078 39.0272 50.3996 37.5533 49.2192 36.6752H49.1877Z" fill="white"/>
<path d="M31.9853 33.3667C32.8371 33.3667 33.5277 32.6787 33.5277 31.8301C33.5277 30.9814 32.8371 30.2935 31.9853 30.2935C31.1334 30.2935 30.4429 30.9814 30.4429 31.8301C30.4429 32.6787 31.1334 33.3667 31.9853 33.3667Z" fill="#231F20"/>
<path d="M48.0072 33.3667C48.8591 33.3667 49.5496 32.6787 49.5496 31.8301C49.5496 30.9814 48.8591 30.2935 48.0072 30.2935C47.1554 30.2935 46.4648 30.9814 46.4648 31.8301C46.4648 32.6787 47.1554 33.3667 48.0072 33.3667Z" fill="#231F20"/>
<path d="M39.9963 35.609C41.6392 35.609 42.971 34.7877 42.971 33.7745C42.971 32.7613 41.6392 31.9399 39.9963 31.9399C38.3535 31.9399 37.0217 32.7613 37.0217 33.7745C37.0217 34.7877 38.3535 35.609 39.9963 35.609Z" fill="#231F20"/>
<path d="M27.7042 19.4745C29.0105 17.8752 30.789 16.7776 32.7563 16.1661C35.0699 15.4448 37.5094 15.3664 39.9017 15.3664C40.6572 15.3664 40.6572 14.1904 39.9017 14.1904C36.1559 14.1904 32.2055 14.4727 29.042 16.6522C28.2236 17.2166 27.4839 17.8752 26.8701 18.6435C26.6655 18.8944 26.634 19.2393 26.8701 19.4745C27.0747 19.6784 27.4996 19.7254 27.7042 19.4745Z" fill="#231F20"/>
<path d="M41.0034 13.7044C41.0506 13.8612 41.0821 14.018 41.0978 14.1748V14.018C41.1293 14.3629 41.1293 14.7236 41.0821 15.0685C41.0821 15.1469 41.0821 15.2253 41.1293 15.288C41.1608 15.3664 41.1923 15.4291 41.2552 15.4762C41.3025 15.5389 41.3654 15.5703 41.4441 15.6016C41.5071 15.633 41.5858 15.6487 41.6644 15.6487C41.8218 15.6487 41.9792 15.5859 42.0894 15.4762L42.1838 15.3507C42.231 15.2567 42.2625 15.1626 42.2625 15.0528C42.294 14.802 42.3097 14.5354 42.294 14.2845C42.2783 13.9866 42.231 13.673 42.1523 13.3751C42.1209 13.234 42.0107 13.0929 41.8848 13.0301C41.8218 12.9831 41.7431 12.9674 41.6644 12.9674C41.5858 12.9517 41.5071 12.9674 41.4284 12.9674C41.2867 13.0145 41.1451 13.1085 41.0821 13.234C41.0192 13.3594 40.9877 13.5319 41.0192 13.6887L41.0034 13.7044Z" fill="#231F20"/>
<path d="M43.6476 13.9552L43.2698 15.3351C43.2698 15.3351 43.2384 15.4919 43.2698 15.5703C43.2698 15.6487 43.3013 15.7271 43.3328 15.7898C43.3643 15.8525 43.4272 15.9152 43.4902 15.9623C43.5531 16.0093 43.6161 16.0563 43.6948 16.072C43.8522 16.1034 44.0096 16.1034 44.1512 16.0093C44.2929 15.9152 44.3873 15.8055 44.4188 15.6643L44.7965 14.2845C44.7965 14.2845 44.828 14.1277 44.7965 14.0493C44.7965 13.9709 44.765 13.8925 44.7336 13.8298C44.7021 13.7671 44.6391 13.7044 44.5762 13.6573C44.5132 13.6103 44.4503 13.5632 44.3716 13.5476C44.2142 13.5162 44.0568 13.5162 43.9151 13.6103C43.7735 13.7044 43.6791 13.8141 43.6476 13.9552Z" fill="#231F20"/>
<path d="M45.0955 16.2756C45.6936 16.3854 46.3074 16.5265 46.8897 16.699C47.1887 16.7931 47.472 16.8872 47.7711 16.9969C47.9127 17.044 48.0544 17.1067 48.196 17.1694C48.2118 17.1694 48.4164 17.2635 48.3219 17.2164C48.3849 17.2478 48.4478 17.2635 48.5108 17.2948C49.644 17.7966 50.7142 18.4395 51.7058 19.1921C51.9576 19.3802 52.3825 19.2391 52.5084 18.9882C52.6658 18.6747 52.5557 18.3767 52.3038 18.1886C50.73 16.9812 48.92 16.0718 47.0156 15.523C46.4962 15.3662 45.9611 15.2565 45.4103 15.1624C45.1112 15.1153 44.765 15.2408 44.6863 15.5701C44.6233 15.8523 44.7807 16.2443 45.0955 16.2913V16.2756Z" fill="#231F20"/>
<path d="M25.2963 23.2846C24.1788 24.978 24.0529 27.0791 24.2103 29.039C24.3047 30.1837 24.4779 31.3283 24.5408 32.4729C24.6038 33.6175 24.5093 34.8092 24.2575 35.9852C24.0214 37.0671 23.8011 38.1647 23.99 39.278C24.1316 40.1403 24.5093 40.9714 25.0287 41.6926C26.036 43.0568 27.4053 43.8565 28.9949 44.3582C31.214 45.0638 33.5906 45.3774 35.9042 45.5028C36.6596 45.5499 36.6596 44.3739 35.9042 44.3268C33.9211 44.2171 31.9538 43.9505 30.0336 43.4331C28.6171 43.0568 27.3266 42.5394 26.3193 41.4261C25.7684 40.8146 25.3592 40.0619 25.1704 39.2466C24.95 38.2588 25.1704 37.2553 25.3907 36.2988C25.6111 35.2796 25.7684 34.2604 25.737 33.2099C25.7055 32.1593 25.5796 31.0931 25.4694 30.0425C25.2491 27.9728 25.0917 25.6836 26.3036 23.8647C26.7285 23.2375 25.7055 22.6417 25.2805 23.2689L25.2963 23.2846Z" fill="#231F20"/>
<path d="M52.6029 23.8803C53.6102 25.4013 53.6732 27.2829 53.5315 29.0547C53.3741 31.1244 52.9806 33.1628 53.3112 35.2325C53.4685 36.236 53.7991 37.2082 53.8305 38.2274C53.8463 38.9957 53.6889 39.764 53.3584 40.4539C52.7288 41.7396 51.5642 42.7745 50.2106 43.2292C48.3692 43.8564 46.3704 44.0759 44.4345 44.2327C43.6791 44.2954 43.6791 45.4714 44.4345 45.4087C46.3389 45.2519 48.3062 45.0324 50.1477 44.4836C51.6901 44.0289 53.0279 43.0881 53.9564 41.7553C55.0739 40.1403 55.1683 38.3058 54.7749 36.4399C54.5388 35.3266 54.3342 34.2604 54.3657 33.1314C54.3971 32.0025 54.5545 30.8422 54.6647 29.6975C54.885 27.5337 54.885 25.1818 53.6259 23.3002C53.2167 22.673 52.1937 23.2531 52.6029 23.896V23.8803Z" fill="#231F20"/>
<path d="M27.8302 17.4047C26.0202 16.7147 23.9585 16.8872 22.2587 17.8123C20.5589 18.7374 19.3785 20.3838 18.8276 22.2027C18.5443 23.1278 18.4342 24.1156 18.4971 25.0878C18.5758 26.1853 19.0008 27.3456 18.5601 28.4119C18.1981 29.2899 17.4741 29.9799 16.9862 30.7795C16.5455 31.5165 16.2937 32.3475 16.2307 33.2099C16.0576 35.0758 16.7816 37.1142 18.2768 38.2745C18.8748 38.7292 19.709 37.9138 19.1109 37.4434C17.9148 36.5183 17.3482 35.0287 17.3797 33.5392C17.3954 32.8022 17.5843 32.0809 17.962 31.4381C18.4027 30.6854 19.0322 30.0426 19.4414 29.2743C19.8979 28.4119 19.9923 27.5338 19.8821 26.5773C19.772 25.6209 19.5988 24.7428 19.6933 23.7863C19.8664 22.1086 20.7005 20.4309 22.0226 19.3646C23.565 18.1259 25.6582 17.828 27.4997 18.5336C28.2079 18.8002 28.5227 17.6712 27.8144 17.4047H27.8302Z" fill="#231F20"/>
<path d="M18.9378 39.278C18.9378 39.278 18.9064 39.3564 18.8906 39.3878L18.9536 39.2467C18.9064 39.3564 18.8434 39.4662 18.7647 39.5603L18.8591 39.4348C18.7805 39.5289 18.7018 39.623 18.5916 39.7014L18.7175 39.6073C18.6231 39.6857 18.5129 39.7484 18.4027 39.7955L18.5444 39.7328C18.4499 39.7798 18.3398 39.8112 18.2296 39.8268H18.387C18.2926 39.8268 18.1824 39.8268 18.0879 39.8112C18.0093 39.8112 17.9306 39.8112 17.8676 39.8582C17.7889 39.8896 17.726 39.9209 17.6787 39.9836C17.6158 40.0307 17.5843 40.0934 17.5528 40.1718C17.5214 40.2345 17.5056 40.3129 17.5056 40.3913C17.5056 40.5481 17.5686 40.7049 17.6787 40.8147L17.8047 40.9087C17.8991 40.9558 17.9935 40.9871 18.1037 40.9871C18.2768 41.0028 18.4342 40.9871 18.6073 40.9558C18.7805 40.9244 18.9378 40.8617 19.0795 40.7833C19.2211 40.7049 19.3628 40.6108 19.5044 40.5011C19.6461 40.3913 19.7405 40.2502 19.8507 40.1091C19.8979 40.0464 19.9294 39.9836 19.9609 39.9209C20.0081 39.8112 20.0553 39.7014 20.1025 39.5916C20.134 39.5132 20.134 39.4348 20.1025 39.3564C20.1025 39.278 20.071 39.1996 20.0396 39.1369C20.0081 39.0742 19.9451 39.0115 19.8822 38.9645C19.8192 38.9174 19.7563 38.8704 19.6776 38.8547C19.5202 38.8233 19.3628 38.8233 19.2211 38.9174L19.0952 39.0115C19.0952 39.0115 18.9693 39.1683 18.9378 39.278Z" fill="#231F20"/>
<path d="M19.4257 41.2383C18.6702 42.524 18.6073 44.2018 19.1581 45.5816C19.4414 46.2715 19.8349 46.9144 20.4172 47.3848C20.7635 47.6827 21.157 47.9022 21.5662 48.0903C21.9754 48.2785 22.4161 48.451 22.778 48.7332C23.0771 48.9527 23.2974 49.235 23.3761 49.5956C23.4391 49.8778 23.3604 50.1601 23.1243 50.3482C22.8725 50.5521 22.9197 50.9754 23.1243 51.1793C23.3761 51.4301 23.7066 51.3831 23.9585 51.1793C24.6667 50.6305 24.6982 49.5329 24.3362 48.7803C23.9112 47.9179 23.0299 47.4788 22.1957 47.1025C21.9754 47.0084 21.7708 46.8987 21.5662 46.7732C21.4875 46.7262 21.393 46.6635 21.3143 46.6164C21.3143 46.6164 21.2199 46.5537 21.2986 46.6164C21.2514 46.5851 21.2042 46.538 21.1727 46.5067C21.0625 46.3969 20.9524 46.2872 20.8422 46.1774C20.8107 46.146 20.795 46.1147 20.7635 46.0833C20.8264 46.1617 20.7478 46.052 20.732 46.0363C20.6848 45.9579 20.6376 45.8952 20.5904 45.8168C20.3858 45.4875 20.2913 45.2837 20.1812 44.923C20.1339 44.7662 20.0867 44.6094 20.0552 44.4526C20.0552 44.3899 20.008 44.2331 20.008 44.2331C20.008 44.2958 20.008 44.1704 20.008 44.1547C20.008 44.1077 20.008 44.0606 20.008 43.9979C20.008 43.7941 19.9923 43.5902 20.008 43.3864C20.008 43.2923 20.008 43.1826 20.0395 43.0885C20.0395 43.1826 20.0395 43.0885 20.0395 43.0728C20.0395 43.0101 20.0552 42.9474 20.071 42.9003C20.1654 42.477 20.2598 42.2104 20.4645 41.8655C20.8579 41.2069 19.8349 40.6268 19.4414 41.2696L19.4257 41.2383Z" fill="#231F20"/>
<path d="M24.9185 48.012C24.95 48.1688 24.9815 48.3256 24.9972 48.4667V48.3099C25.0444 48.796 25.0444 49.2977 24.9972 49.7838C24.9972 49.9249 25.0759 50.0974 25.1703 50.2072C25.2648 50.3169 25.4379 50.3796 25.5953 50.3796C25.7527 50.3796 25.9101 50.3169 26.0202 50.2072L26.1147 50.0817C26.1619 49.9876 26.1934 49.8936 26.1934 49.7838C26.2563 49.0782 26.1934 48.3726 26.0674 47.6827C26.036 47.5416 25.9101 47.4005 25.7999 47.3377C25.674 47.2594 25.4851 47.228 25.3435 47.275C25.2018 47.3221 25.0602 47.4161 24.9972 47.5416L24.9343 47.6827C24.9028 47.7925 24.9028 47.8865 24.9343 47.9963L24.9185 48.012Z" fill="#231F20"/>
<path d="M28.0821 48.4351C28.995 47.7139 29.4829 46.5379 29.5458 45.4089C29.5616 45.064 29.5301 44.7347 29.4671 44.3897C29.4356 44.2486 29.3097 44.1075 29.1996 44.0448C29.0737 43.9664 28.8848 43.935 28.7431 43.9821C28.4126 44.0918 28.271 44.3741 28.3339 44.7033C28.3339 44.7661 28.3654 44.8445 28.3654 44.9072V44.7504C28.3812 45.064 28.3812 45.3932 28.3497 45.7068V45.55C28.3182 45.8793 28.2395 46.2086 28.0979 46.5222L28.1608 46.3811C28.0349 46.6633 27.8775 46.9299 27.7044 47.1651L27.7988 47.0396C27.6414 47.2435 27.4683 47.4159 27.2637 47.5727C27.1535 47.6668 27.0906 47.855 27.0906 47.9961C27.0906 48.1372 27.1535 48.3097 27.2637 48.4194C27.3739 48.5292 27.5313 48.5919 27.6886 48.5919C27.8618 48.5919 27.9719 48.5292 28.1136 48.4194L28.0821 48.4351Z" fill="#231F20"/>
<path d="M52.0207 18.5339C54.7277 17.499 57.8912 18.7377 59.0559 21.419C59.6067 22.7047 59.6854 24.1473 59.5595 25.5271C59.4808 26.3581 59.2762 27.1735 59.2133 28.0202C59.1503 28.8669 59.2605 29.7136 59.591 30.5133C60.2205 32.0499 61.5898 33.9785 63.5099 33.1004C63.7932 32.9593 63.8719 32.5516 63.7145 32.3008C63.5414 32.0028 63.1952 31.9558 62.9119 32.0969C62.2981 32.3792 61.6685 31.799 61.3537 31.3443C60.913 30.7171 60.5511 29.9488 60.4251 29.1962C60.2835 28.3338 60.4566 27.44 60.5983 26.5776C60.7242 25.8564 60.8029 25.1194 60.7871 24.3825C60.7871 22.9713 60.4881 21.5131 59.7799 20.2744C59.0716 19.0356 57.8912 18.0478 56.5377 17.4833C55.011 16.8562 53.2483 16.8248 51.7059 17.4206C51.4069 17.5304 51.2022 17.8126 51.2967 18.1419C51.3754 18.4241 51.7216 18.675 52.0207 18.5496V18.5339Z" fill="#231F20"/>
<path d="M59.9844 35.2956C60.126 35.5152 60.3149 35.719 60.551 35.8444C60.8028 35.9855 61.0546 36.0483 61.3379 36.0796C61.8258 36.1423 62.298 36.0169 62.7387 35.8287C62.9747 35.7347 63.1951 35.5779 63.3682 35.4054C63.4784 35.3113 63.5413 35.1388 63.5413 34.982C63.5413 34.8252 63.4784 34.6684 63.3682 34.5587C63.1321 34.3392 62.7701 34.3392 62.5341 34.5587C62.5026 34.59 62.4554 34.6214 62.4239 34.6528L62.5498 34.5587C62.4239 34.6528 62.2665 34.7468 62.1249 34.8096L62.2665 34.7468C62.0776 34.8252 61.8888 34.8723 61.6999 34.9036H61.8573C61.6842 34.9036 61.511 34.9036 61.3379 34.888H61.4953C61.3694 34.888 61.2435 34.8566 61.1333 34.8096L61.275 34.8723C61.1963 34.8409 61.1176 34.7939 61.0389 34.7312L61.1648 34.8252C61.1648 34.8252 61.0389 34.7155 60.9917 34.6528L61.0861 34.7782C61.0861 34.7782 61.0389 34.7155 61.0231 34.6841C60.9444 34.5587 60.8185 34.4489 60.6769 34.4176C60.5352 34.3862 60.3464 34.4019 60.2205 34.4803C60.0946 34.5587 59.9844 34.6841 59.9529 34.8252C59.9214 34.9664 59.9214 35.1388 60.0159 35.28L59.9844 35.2956Z" fill="#231F20"/>
<path d="M60.126 35.4052C60.2834 35.5307 60.4408 35.6718 60.5667 35.8129C60.6297 35.8913 60.6926 35.954 60.7556 36.0324C60.8185 36.1108 60.6926 35.9384 60.7713 36.0481C60.8028 36.0952 60.8343 36.1422 60.8815 36.1892C60.9917 36.3617 61.0861 36.5342 61.1805 36.7067C61.212 36.7537 61.2277 36.8007 61.2435 36.8478C61.2435 36.8791 61.2592 36.8948 61.275 36.9262C61.275 36.9262 61.2277 36.8164 61.2592 36.8791C61.2907 36.9732 61.3379 37.083 61.3694 37.1927C61.4324 37.3966 61.4953 37.6004 61.5268 37.8043C61.5425 37.8983 61.5583 38.0081 61.574 38.1022C61.574 38.1649 61.574 38.0551 61.574 38.0551C61.574 38.0865 61.574 38.1179 61.574 38.1335C61.574 38.1963 61.574 38.259 61.5897 38.3217C61.5897 38.5412 61.6055 38.745 61.5897 38.9646C61.5897 39.0586 61.5897 39.1527 61.574 39.2468C61.574 39.2468 61.574 39.3095 61.574 39.3252C61.574 39.3252 61.5897 39.1841 61.574 39.2938C61.574 39.3409 61.5583 39.4036 61.5425 39.4506C61.4953 39.6702 61.4481 39.9053 61.3694 40.1249C61.3537 40.1876 61.3222 40.2346 61.3064 40.2973C61.3064 40.313 61.2592 40.4071 61.3064 40.313C61.3379 40.2189 61.2907 40.3444 61.2907 40.3601C61.2435 40.4698 61.1805 40.5796 61.1176 40.6893C60.9602 40.9559 61.0389 41.3479 61.3222 41.489C61.6055 41.6301 61.9675 41.5674 62.1249 41.2852C63.0849 39.6074 62.9747 37.3809 61.9675 35.7345C61.6999 35.2955 61.3537 34.8721 60.9287 34.5585C60.6926 34.3704 60.3306 34.3077 60.0946 34.5585C59.9057 34.7781 59.8427 35.1857 60.0946 35.3896L60.126 35.4052Z" fill="#231F20"/>
<path d="M51.1551 42.9942C50.62 44.9855 51.4699 47.3061 53.4057 48.2155C53.9251 48.4664 54.4917 48.6075 55.0583 48.6075C55.3731 48.6075 55.6564 48.341 55.6564 48.0117C55.6564 47.6824 55.4045 47.4316 55.0583 47.4159C54.9639 47.4159 54.8694 47.4159 54.775 47.4159C54.7593 47.4159 54.7278 47.4159 54.6963 47.4159C54.8222 47.4159 54.7907 47.4159 54.7435 47.4159C54.6806 47.4159 54.6176 47.4002 54.5704 47.3845C54.476 47.3688 54.3973 47.3375 54.3028 47.3218C54.2084 47.3061 54.0982 47.2277 54.0038 47.212C54.0982 47.212 54.0982 47.2591 54.051 47.212C54.0353 47.212 54.0038 47.1964 53.9881 47.1807C53.9408 47.165 53.8936 47.1336 53.8622 47.118C53.7677 47.0709 53.6733 47.0082 53.5789 46.9455C53.5316 46.9141 53.5002 46.8828 53.4529 46.8671C53.4372 46.8671 53.4057 46.8357 53.39 46.82C53.39 46.82 53.5002 46.9141 53.4215 46.8357C53.3428 46.7573 53.2641 46.7103 53.2011 46.6319C53.1382 46.5535 53.0595 46.4908 52.9965 46.4124C52.965 46.381 52.9336 46.334 52.9021 46.3026C52.8391 46.2242 52.9021 46.3183 52.9178 46.334C52.9021 46.3026 52.8706 46.2712 52.8549 46.2399C52.729 46.0674 52.6188 45.8793 52.5244 45.6911C52.5244 45.6597 52.5086 45.6441 52.4929 45.6127C52.4929 45.597 52.4457 45.5186 52.4929 45.597C52.5401 45.6754 52.4771 45.55 52.4614 45.5186C52.4142 45.4089 52.3827 45.2991 52.3512 45.1737C52.3198 45.0639 52.304 44.9698 52.2725 44.8601C52.2725 44.813 52.2568 44.7503 52.2411 44.7033C52.2411 44.6719 52.2411 44.6562 52.2411 44.6249C52.2411 44.6876 52.2411 44.7346 52.2411 44.6405C52.2096 44.3897 52.2096 44.1545 52.2253 43.9036C52.2253 43.8409 52.2253 43.7782 52.2253 43.7311C52.2253 43.7154 52.2253 43.6214 52.2253 43.7154C52.2253 43.8095 52.2253 43.6998 52.2253 43.6684C52.2411 43.543 52.2725 43.4018 52.304 43.2764C52.3827 42.9785 52.2096 42.6179 51.8948 42.5551C51.58 42.4924 51.2495 42.6492 51.1708 42.9628L51.1551 42.9942Z" fill="#231F20"/>
<path d="M55.1054 45.942C55.1841 46.5378 55.4516 47.118 55.8136 47.6041C56.1756 48.0901 56.6635 48.5448 57.2459 48.7957C57.419 48.8741 57.6078 48.9525 57.781 48.9996C57.9541 49.0466 58.1744 49.078 58.3633 49.0936C58.505 49.0936 58.6781 49.0152 58.7883 48.9212C58.8984 48.8271 58.9614 48.6546 58.9614 48.4978C58.9614 48.341 58.8984 48.1842 58.7883 48.0744C58.6781 47.9647 58.5364 47.9176 58.3633 47.902C58.3161 47.902 58.2846 47.902 58.2374 47.902H58.3948C58.1587 47.902 57.9384 47.8236 57.718 47.7452L57.8597 47.8079C57.6236 47.7138 57.419 47.5884 57.2144 47.4316L57.3403 47.5257C57.12 47.3532 56.9153 47.1493 56.7422 46.9298L56.8367 47.0553C56.6635 46.8357 56.5219 46.5849 56.396 46.3183L56.4589 46.4594C56.3488 46.2086 56.2701 45.942 56.2386 45.6598C56.2228 45.5186 56.0812 45.3775 55.971 45.3148C55.8451 45.2364 55.6562 45.205 55.5146 45.2521C55.373 45.2991 55.2313 45.3932 55.1683 45.5186L55.1054 45.6598C55.0739 45.7695 55.0739 45.8636 55.1054 45.9734V45.942Z" fill="#231F20"/>
<path d="M60.063 42.1475C60.0473 42.273 60.0158 42.3827 59.9686 42.5082C59.9686 42.5395 59.9529 42.5709 59.9371 42.5866C59.9371 42.6493 59.8742 42.7277 59.8427 42.7904C59.7325 43.0099 59.5909 43.2138 59.4492 43.4019C59.4492 43.4333 59.402 43.449 59.3863 43.4803C59.3548 43.5274 59.3076 43.5744 59.2761 43.6214C59.1817 43.7312 59.103 43.8253 59.0085 43.935C58.8354 44.1546 58.6465 44.3584 58.4892 44.5936C58.1744 45.0326 57.9068 45.5344 57.8281 46.0832C57.7494 46.632 57.8281 47.1494 58.1114 47.6198C58.3947 48.1215 58.9298 48.5135 59.5279 48.4822C59.8427 48.4822 60.126 48.2156 60.126 47.8863C60.126 47.5728 59.8584 47.2905 59.5279 47.2905C59.4964 47.2905 59.4335 47.2905 59.3863 47.2905C59.3863 47.2905 59.5122 47.3219 59.465 47.2905C59.4492 47.2905 59.4177 47.2905 59.402 47.2748C59.4964 47.3219 59.2761 47.2435 59.402 47.2748C59.3705 47.2592 59.3233 47.2278 59.2918 47.2121C59.2131 47.1651 59.3233 47.2278 59.3233 47.2435C59.3233 47.2435 59.2761 47.2121 59.2761 47.1964C59.2446 47.1651 59.2131 47.1337 59.1974 47.1024C59.2446 47.1808 59.103 47.0083 59.1974 47.1024C59.1659 47.0553 59.1344 47.0083 59.1187 46.9612C59.1187 46.9456 59.0715 46.8515 59.0557 46.8515C59.0872 46.8515 59.103 46.9612 59.0715 46.8828C59.0715 46.8515 59.0557 46.8358 59.04 46.8044C59.0085 46.7104 58.9928 46.6163 58.9771 46.5222C58.9771 46.4438 58.9771 46.6476 58.9771 46.5692C58.9771 46.5536 58.9771 46.5379 58.9771 46.5065C58.9771 46.4595 58.9771 46.4124 58.9771 46.3497C58.9771 46.3184 58.9928 46.1929 58.9771 46.2713C58.9771 46.3654 58.9771 46.2713 58.9771 46.24C58.9771 46.2086 58.9771 46.1616 59.0085 46.1302C59.04 46.0205 59.0715 45.9264 59.103 45.8323C59.103 45.8009 59.1344 45.7696 59.1344 45.7539C59.1659 45.7069 59.1817 45.6441 59.2131 45.5971C59.3233 45.3933 59.4492 45.2051 59.5909 45.0169C59.6066 44.9856 59.6223 44.9699 59.6538 44.9385C59.6853 44.8915 59.7168 44.8601 59.7482 44.8131C59.8269 44.719 59.9056 44.625 59.9843 44.5309C60.1575 44.327 60.3148 44.1232 60.4722 43.9194C60.8027 43.4803 61.086 42.9629 61.1962 42.4141C61.2592 42.1162 61.1175 41.7712 60.787 41.6928C60.5037 41.6301 60.126 41.7869 60.063 42.1005V42.1475Z" fill="#231F20"/>
</svg>
