<svg width="80" height="76" viewBox="0 0 80 76" fill="none" xmlns="http://www.w3.org/2000/svg">
<path d="M32.9881 45.4549C33.7908 44.0751 35.1443 43.0089 36.671 42.5385C37.5996 42.2562 38.5911 42.1935 39.5669 42.1778C41.0621 42.1622 42.5887 42.2562 43.9737 42.805C47.0743 44.0124 49.0731 47.556 48.4908 50.8331C48.4278 51.1467 48.3649 51.476 48.4121 51.7896C48.475 52.0875 48.6324 52.3383 48.7898 52.6049C49.498 53.8593 49.7971 55.3489 49.624 56.7914C51.0877 56.5092 52.3625 55.4273 52.8819 54.0475C52.992 53.7652 53.1022 53.4203 53.3855 53.3105C53.5744 53.2321 53.779 53.2635 53.9678 53.3575C54.7233 53.7495 54.6918 54.8314 54.4715 55.6468C54.3141 56.1799 54.1252 56.713 53.8105 57.1677C53.1022 58.2026 51.8274 58.7514 50.5683 58.7984C50.0961 58.8141 49.5925 58.7827 49.1833 58.9866C48.9472 59.112 48.7426 59.3002 48.5222 59.457C47.814 59.9587 46.8382 60.0685 46.0355 59.7235C45.8781 59.6608 45.7365 59.5824 45.5791 59.5511C45.1384 59.504 44.7922 59.8803 44.4144 60.1155C43.596 60.6173 42.4156 60.3821 41.8648 59.5981C40.5742 60.2723 39.0475 60.241 37.5838 60.2096C36.8284 60.1939 36.0886 60.1626 35.3332 60.1469C34.1213 60.1155 32.815 60.0371 31.8707 59.2845C31.1624 58.7044 30.7689 57.8263 30.5958 56.9169C30.4227 56.0074 30.4384 55.051 30.6588 54.1572C31.0208 52.6676 31.9651 51.3192 32.1067 49.7825C32.2484 48.2459 32.1697 46.8661 33.0038 45.4549H32.9881Z" fill="#5C564D"/>
<path d="M36.4821 58.1087C35.6795 58.1087 35.0814 57.8578 35.1916 58.7672C35.3804 60.3823 37.2219 60.5077 38.2764 59.5512C38.5911 59.2533 39.2049 58.5477 38.8115 58.1714C38.481 57.8421 36.9386 58.1087 36.4821 58.1087Z" fill="#F39B4A"/>
<path d="M42.9194 58.1087C42.1167 58.1087 41.5187 57.8578 41.6288 58.7672C41.8177 60.3823 43.6591 60.5077 44.7136 59.5512C45.0284 59.2533 45.6422 58.5477 45.2487 58.1714C44.9182 57.8421 43.3758 58.1087 42.9194 58.1087Z" fill="#F39B4A"/>
<path d="M39.4568 54.3924C39.4568 54.0475 39.4883 53.6868 39.504 53.3262C39.504 53.2478 39.504 53.1537 39.4725 53.0753C39.4725 53.0753 39.4568 52.9185 39.4725 53.0126C39.4725 52.9499 39.4568 52.8871 39.4411 52.8244C39.3938 52.5736 39.3466 52.3227 39.2679 52.0718C39.2365 51.9464 39.1892 51.8366 39.142 51.7268C39.142 51.7268 39.1263 51.6798 39.1105 51.6641C39.0948 51.6171 39.0633 51.57 39.0319 51.5073C38.9532 51.3505 38.8587 51.2094 38.7643 51.0683C38.7486 51.0526 38.7328 51.0212 38.7171 51.0056C38.6699 50.9585 38.6384 50.9115 38.5912 50.8645C38.5282 50.8017 38.4495 50.739 38.3866 50.6763C38.3708 50.6606 38.3708 50.6606 38.3551 50.6449C38.3551 50.6449 38.3551 50.6449 38.3393 50.6449C38.2292 50.5822 38.119 50.5038 37.9931 50.4254C37.9144 50.3784 37.8514 50.347 37.7728 50.3157C37.757 50.3157 37.757 50.3157 37.7413 50.3C37.5996 50.2529 37.4737 50.2059 37.3321 50.1745C37.2534 50.1589 37.1747 50.1432 37.096 50.1275C37.0802 50.1275 37.0173 50.1275 36.9701 50.1118C36.9229 50.1118 36.8599 50.1118 36.8442 50.1118C36.7812 50.1118 36.7025 50.1118 36.6396 50.1118C36.4979 50.1118 36.3563 50.1118 36.2146 50.1275C36.2146 50.1275 36.2146 50.1275 36.1989 50.1275C36.1359 50.1275 36.073 50.1589 36.01 50.1745C35.8841 50.2059 35.7739 50.2529 35.648 50.2843C35.6795 50.2843 35.6795 50.2843 35.6952 50.2843C35.6795 50.2843 35.6638 50.2843 35.648 50.3C35.6008 50.3313 35.5379 50.3627 35.4906 50.3941C35.3805 50.4568 35.349 50.5195 35.4592 50.3941C35.4277 50.4411 35.3647 50.4725 35.3332 50.5038C35.3018 50.5352 35.286 50.5509 35.2546 50.5822C35.2546 50.5822 35.2388 50.5979 35.2231 50.6293C35.1916 50.6763 35.1759 50.7233 35.1444 50.7704C35.1444 50.7704 35.1444 50.8017 35.1444 50.8174C35.1444 50.8644 35.1286 50.9428 35.0972 50.9899C35.0972 50.9899 35.0972 50.9899 35.0972 51.0056C35.0972 51.084 35.0972 51.1624 35.0972 51.2408C35.0972 51.2721 35.0972 51.2878 35.0972 51.3192C35.1286 51.4603 35.1601 51.6171 35.2073 51.7582C35.2073 51.8052 35.2388 51.8523 35.2546 51.8993C35.2546 51.8993 35.2703 51.9307 35.286 51.962C35.3018 51.9934 35.349 52.0718 35.349 52.0718C35.3805 52.1032 35.3805 52.1188 35.3962 52.1345C35.4277 52.1659 35.4592 52.1972 35.4906 52.2286C35.5379 52.2756 35.6008 52.3227 35.648 52.3697C35.6638 52.3697 35.6952 52.4011 35.711 52.4167C35.8369 52.4951 35.9628 52.5735 36.0887 52.6519C36.3563 52.8087 36.6553 52.9499 36.9229 53.091C37.4737 53.3575 38.0403 53.6711 38.4495 54.1415C38.8587 54.6276 39.0161 55.1921 38.9846 55.7879C39.1578 55.7879 39.3309 55.7879 39.504 55.8036C39.5198 55.4743 39.5355 55.145 39.5355 54.8158C39.4883 54.706 39.4411 54.5806 39.4568 54.4238V54.3924Z" fill="#F39B4A"/>
<path d="M44.0841 50.0021C43.8952 49.9551 43.9582 49.9708 43.8008 49.9708C43.6591 49.9708 43.5175 49.9708 43.3758 49.9708C43.2656 49.9708 43.2814 49.9708 43.124 50.0178C42.6204 50.1276 42.1797 50.3314 41.9121 50.692C41.3927 51.3663 41.2826 52.3071 41.2354 53.2165C41.2983 53.7966 41.2983 54.3925 41.2826 54.9883C41.4714 54.6277 41.7075 54.2984 41.9436 54.0162C42.3685 53.5458 42.9351 53.2165 43.486 52.9186C43.7535 52.7775 44.0054 52.652 44.2572 52.4952C44.4775 52.3698 44.6664 52.2443 44.7608 52.1503C44.8867 52.0248 44.9497 51.9621 44.9812 51.9151C45.0126 51.868 45.1228 51.6328 45.0756 51.7426C45.1543 51.5074 45.17 51.3976 45.1386 51.1154C45.1386 50.99 45.0441 50.7234 45.0441 50.7077C45.0441 50.6764 44.871 50.4098 44.934 50.4882C44.7608 50.253 44.6664 50.206 44.3988 50.0805C44.509 50.1276 44.2572 50.0335 44.2572 50.0335C44.1942 50.0178 44.1313 50.0021 44.0841 49.9865V50.0021Z" fill="#F39B4A"/>
<path d="M33.2559 43.9652C31.1154 46.866 30.8164 50.9741 32.5004 54.1571C32.9411 55.0038 33.5392 55.7565 33.9326 56.6345C34.2789 57.3715 34.3733 58.2025 34.6252 58.9708C34.8612 59.6921 35.239 60.382 35.9315 60.7426C36.6869 61.1503 37.5998 61.0405 38.308 60.5702C40.3541 59.2217 39.8189 56.3993 39.6773 54.3296C39.6301 53.577 38.4497 53.577 38.4969 54.3296C38.5598 55.2704 38.6543 56.2112 38.6543 57.152C38.6543 57.9359 38.5284 58.7827 37.946 59.3628C37.5368 59.7548 36.8758 60.0057 36.3721 59.6294C35.8685 59.253 35.7426 58.5788 35.601 58.03C35.4121 57.3244 35.2547 56.6345 34.9399 55.9603C34.5622 55.1763 34.0586 54.4864 33.6336 53.7338C32.8939 52.401 32.5634 50.8957 32.6106 49.3748C32.6735 47.6343 33.2559 45.9566 34.2946 44.5454C34.4835 44.2945 34.3419 43.8868 34.09 43.7457C33.791 43.5732 33.4762 43.6987 33.2874 43.9496L33.2559 43.9652Z" fill="#231F20"/>
<path d="M31.5403 50.6291C30.8163 51.3817 30.5015 52.4009 30.3126 53.4044C30.1395 54.2668 30.0451 55.1605 30.0766 56.0386C30.108 56.9637 30.2654 57.9202 30.7061 58.7512C31.1468 59.5822 31.8078 60.0683 32.6577 60.3819C33.5548 60.7112 34.6408 60.7896 35.5694 60.4917C35.8684 60.3976 36.073 60.084 35.9786 59.7704C35.8999 59.4725 35.5536 59.253 35.2546 59.3627C35.0972 59.4098 34.9398 59.4568 34.7824 59.4725C34.8926 59.4568 34.7824 59.4725 34.751 59.4725C34.7037 59.4725 34.6565 59.4725 34.6093 59.4725C34.5149 59.4725 34.4204 59.4725 34.3103 59.4725C34.2158 59.4725 34.1371 59.4725 34.0427 59.4725C33.9955 59.4725 33.9483 59.4725 33.8853 59.4725C33.8853 59.4725 33.7752 59.4725 33.8539 59.4725C33.6492 59.4411 33.4446 59.3941 33.2558 59.3471C32.8938 59.2373 32.7049 59.1589 32.3587 58.9394C32.3429 58.9394 32.2328 58.861 32.3272 58.9237C32.2957 58.908 32.2642 58.8767 32.2485 58.861C32.1855 58.8139 32.1383 58.7512 32.0754 58.6885C31.9809 58.5944 31.918 58.5003 31.8236 58.3279C31.4773 57.732 31.3199 56.948 31.2884 56.2424C31.2727 55.8348 31.2727 55.4271 31.2884 55.0194C31.3042 54.6117 31.3514 54.3609 31.4143 53.9846C31.5717 53.0908 31.7763 52.1187 32.3902 51.4758C32.9095 50.927 32.0754 50.096 31.556 50.6448L31.5403 50.6291Z" fill="#231F20"/>
<path d="M46.1772 44.5453C47.9872 47.0071 48.4121 50.441 47.0901 53.2163C46.7281 53.9689 46.2559 54.6431 45.8467 55.3644C45.4375 56.0857 45.17 56.7756 44.9811 57.5596C44.745 58.5004 44.3358 60.3819 42.9351 59.6607C42.1481 59.253 41.8648 58.4063 41.8176 57.5753C41.7547 56.4934 41.8963 55.3958 41.9593 54.3295C42.0065 53.5769 40.8261 53.5769 40.7788 54.3295C40.6529 56.1954 40.1493 58.6728 41.6445 60.1624C42.2426 60.7583 43.0924 61.1189 43.9423 60.9621C44.7293 60.8053 45.3116 60.2095 45.6264 59.5039C45.9412 58.7983 46.0671 58.0613 46.2717 57.3244C46.5392 56.3836 47.1216 55.5839 47.6095 54.7529C48.538 53.2006 49.0574 51.4445 49.0417 49.6256C49.0417 47.6029 48.3964 45.5959 47.2003 43.9652C47.0114 43.7143 46.6966 43.5889 46.3976 43.7614C46.1458 43.9025 46.0041 44.3101 46.193 44.561L46.1772 44.5453Z" fill="#231F20"/>
<path d="M48.5697 53.122C48.5697 53.122 48.6011 53.2004 48.6169 53.2161C48.6169 53.2161 48.5539 53.0593 48.5854 53.1377C48.5854 53.1377 48.5854 53.1691 48.6011 53.1847C48.6326 53.2631 48.6641 53.3415 48.6798 53.4043C48.7271 53.5454 48.7743 53.7022 48.8058 53.859C48.853 54.0315 48.8844 54.2039 48.9159 54.3764C48.9159 54.4548 48.9474 54.5332 48.9474 54.6273C48.9631 54.7527 48.9317 54.4862 48.9474 54.6273C48.9474 54.6743 48.9474 54.7214 48.9631 54.7841C49.0104 55.1604 49.0261 55.5524 49.0261 55.9287C49.0261 56.1169 49.0261 56.3207 48.9946 56.5089C48.9946 56.6029 48.9946 56.697 48.9631 56.7911C48.9631 56.8381 48.9631 56.8852 48.9474 56.9322C48.9317 57.089 48.9631 56.8068 48.9474 56.9636C48.8844 57.3242 48.8215 57.6848 48.6956 58.0298C48.6641 58.1082 48.6326 58.1866 48.6169 58.265C48.6169 58.2807 48.6169 58.2964 48.6011 58.312C48.5697 58.3904 48.6326 58.2493 48.6326 58.2493C48.6169 58.2964 48.5854 58.3434 48.5697 58.3904C48.5067 58.5316 48.428 58.6727 48.3336 58.8138C48.3179 58.8452 48.3021 58.8608 48.2706 58.8922C48.3651 58.7824 48.1919 59.0176 48.2706 58.8922C48.2234 58.9549 48.1762 59.0019 48.129 59.049C48.0818 59.096 48.0188 59.1431 47.9716 59.1901C48.1132 59.096 47.9244 59.2371 47.9716 59.1901C47.9401 59.2058 47.9086 59.2371 47.8772 59.2528C47.8142 59.2842 47.7513 59.3155 47.6883 59.3469C47.6096 59.3783 47.8457 59.2842 47.7198 59.3469C47.6883 59.3469 47.6411 59.3783 47.6096 59.3783C47.5467 59.3939 47.468 59.4096 47.405 59.4253C47.3421 59.4253 47.5781 59.4253 47.4207 59.4253C47.3735 59.4253 47.3263 59.4253 47.2791 59.4253C47.1847 59.4253 47.106 59.4253 47.0115 59.4253C46.9171 59.4253 47.0902 59.4253 47.0902 59.4253C47.0588 59.4253 47.0273 59.4253 47.0115 59.4253C46.9643 59.4253 46.9014 59.4096 46.8542 59.3939C46.744 59.3626 46.6338 59.3312 46.5394 59.2999C46.4922 59.2842 46.4292 59.2528 46.382 59.2371C46.5551 59.2842 46.382 59.2371 46.319 59.2058C46.0357 59.0647 45.7367 58.8295 45.4062 58.8608C45.2173 58.8608 45.0442 58.9549 44.9025 59.096L44.8081 59.2215C44.8868 59.1274 44.9183 59.096 44.8868 59.1274C44.9498 59.0647 45.1229 59.0019 45.2488 58.9863H45.3747C45.4691 59.049 45.5006 59.0647 45.4534 59.0333C45.4219 59.0019 45.3747 58.9863 45.3432 58.9549C45.0914 58.7668 44.6665 58.9079 44.5406 59.1587C44.3832 59.4723 44.4933 59.7703 44.7452 59.9584C45.0442 60.1779 45.4849 60.225 45.7367 59.9271C45.7839 59.88 45.9413 59.7075 45.7524 59.9114C45.7839 59.88 45.7997 59.88 45.721 59.9271C45.5951 60.0055 45.4534 60.0525 45.3118 60.0211C45.3904 60.0368 45.2645 59.9898 45.2645 59.9898C45.2803 59.9898 45.5793 60.1623 45.6265 60.1779C46.083 60.4131 46.5551 60.5699 47.0588 60.617C47.8142 60.6954 48.5854 60.3818 49.0891 59.7859C49.6084 59.1744 49.8917 58.4061 50.0491 57.6221C50.2065 56.7911 50.2537 55.9287 50.1908 55.082C50.1278 54.2353 49.9704 53.3415 49.5927 52.5419C49.4668 52.2596 49.0418 52.1656 48.79 52.338C48.5067 52.5262 48.4438 52.8398 48.5854 53.1377L48.5697 53.122Z" fill="#231F20"/>
<path d="M50.0648 57.5439C51.6859 57.0422 52.945 55.7094 53.4486 54.1101C53.5903 53.671 53.6532 53.2006 53.669 52.7302L53.0709 53.3261C53.0709 53.3261 53.2126 53.3261 53.2755 53.3261C53.4014 53.3261 53.1811 53.3104 53.244 53.3261C53.2755 53.3261 53.307 53.3261 53.3385 53.3417C53.3699 53.3417 53.4014 53.3731 53.4486 53.3731L53.3699 53.3417C53.3699 53.3417 53.4014 53.3574 53.4329 53.3731C53.4801 53.4045 53.5431 53.4515 53.5903 53.4829L53.5273 53.4358C53.5273 53.4358 53.5588 53.4672 53.5745 53.4829C53.606 53.4985 53.6218 53.5299 53.6532 53.5456C53.6847 53.5613 53.7005 53.5926 53.7162 53.624C53.7634 53.7181 53.7634 53.671 53.7162 53.624C53.7477 53.6867 53.7949 53.7337 53.8264 53.7965C53.8421 53.8278 53.8579 53.8592 53.8736 53.8905C53.8736 53.9062 53.8893 53.9376 53.9051 53.9533C53.8736 53.8749 53.8579 53.8435 53.8736 53.8905C53.8893 53.9533 53.9208 54.016 53.9365 54.0787C53.9365 54.1257 53.9523 54.1571 53.968 54.2041C53.9995 54.3609 53.968 54.1101 53.968 54.2355C53.968 54.408 53.9838 54.5804 53.968 54.7529C53.968 54.8 53.968 54.8313 53.968 54.8784C53.968 55.0508 53.968 54.9097 53.968 54.8784C53.968 54.9568 53.9365 55.0508 53.9208 55.1292C53.8893 55.3174 53.8421 55.4899 53.7949 55.678C53.7319 55.976 53.8893 56.3366 54.2041 56.3993C54.5031 56.462 54.8494 56.3052 54.9281 55.9916C55.1327 55.1136 55.2901 54.2041 54.9281 53.3574C54.6133 52.6675 53.8578 52.0874 53.0709 52.1814C52.9135 52.1971 52.7719 52.2285 52.646 52.3539C52.5201 52.4793 52.4728 52.6048 52.4728 52.7773C52.4728 52.8713 52.4728 52.9497 52.4728 53.0438C52.4728 53.0909 52.4728 53.1379 52.4728 53.1693C52.4728 53.1849 52.4728 53.2163 52.4728 53.232C52.4728 53.3417 52.4886 53.1222 52.4728 53.1849C52.4414 53.3574 52.4099 53.5299 52.3627 53.7024C52.3155 53.8749 52.2525 54.0473 52.1895 54.2198C52.1895 54.2198 52.2525 54.0787 52.2053 54.1728C52.2053 54.1884 52.1895 54.2198 52.1738 54.2355C52.1581 54.2825 52.1423 54.3139 52.1108 54.3609C52.0794 54.4393 52.0322 54.5177 51.9849 54.5961C51.8905 54.7529 51.7961 54.9097 51.6859 55.0508C51.6702 55.0822 51.6387 55.1136 51.6229 55.1449C51.56 55.2233 51.6544 55.1136 51.6544 55.0979C51.6544 55.1136 51.6229 55.1292 51.6072 55.1449C51.5443 55.2233 51.4813 55.286 51.4183 55.3644C51.2924 55.5056 51.1665 55.631 51.0249 55.7407C50.9934 55.7721 50.9619 55.8035 50.9304 55.8192C50.9147 55.8348 50.8045 55.9132 50.8832 55.8505C50.9619 55.7878 50.836 55.8819 50.8203 55.8976C50.7731 55.9289 50.7416 55.9603 50.6944 55.9759C50.537 56.0857 50.3638 56.1798 50.1907 56.2739C50.1435 56.3052 50.0963 56.3209 50.0491 56.3366C50.0333 56.3366 50.0019 56.3523 49.9861 56.3679C50.0176 56.3523 50.112 56.3209 50.0176 56.3679C49.9232 56.3993 49.8287 56.4463 49.7186 56.4777C49.4195 56.5718 49.1992 56.8854 49.3094 57.199C49.4195 57.5126 49.7186 57.7007 50.0333 57.6066L50.0648 57.5439Z" fill="#231F20"/>
<path d="M49.75 59.5979C50.7888 59.5665 51.8118 59.2686 52.6932 58.7355C52.9607 58.5787 53.2283 58.3905 53.4644 58.1867C53.5746 58.0926 53.6375 57.9044 53.6375 57.7633C53.6375 57.6222 53.5746 57.4497 53.4644 57.34C53.3542 57.2302 53.1968 57.1675 53.0394 57.1675C52.8663 57.1675 52.7561 57.2302 52.6145 57.34C52.583 57.3713 52.5358 57.4027 52.5043 57.434L52.6302 57.34C52.2368 57.6379 51.8276 57.8731 51.3711 58.0769L51.5128 58.0142C51.0721 58.2023 50.5999 58.3278 50.1278 58.3905H50.2852C50.0963 58.3905 49.9232 58.4062 49.7343 58.4219C49.4195 58.4219 49.1362 58.6884 49.1362 59.0177C49.1362 59.347 49.3881 59.6135 49.7343 59.6135L49.75 59.5979Z" fill="#231F20"/>
<path d="M17.3284 17.4674C17.3756 20.0076 17.895 22.5477 18.8393 24.8997C19.7836 27.2516 20.5076 30.1524 22.6953 31.7361C23.1989 32.1124 23.7498 32.4103 24.3006 32.7396C24.4265 32.818 24.5524 32.8807 24.6311 32.9904C24.7413 33.1159 24.7885 33.2884 24.82 33.4452C25.1977 34.9034 25.7486 36.5027 25.906 37.9923C26.1578 40.36 24.883 42.3042 26.0634 44.6249C26.6142 45.6911 28.3455 46.4437 29.4472 46.8514C30.36 47.1807 31.3516 47.2747 32.3274 47.3375C35.0817 47.5413 37.8359 47.6354 40.5902 47.6197C41.9438 47.6197 43.2815 47.6197 44.6351 47.5413C45.6581 47.4943 46.6339 47.1963 47.6569 47.0866C48.8373 46.9611 50.0177 46.7887 51.1037 46.3183C52.1897 45.8479 53.1497 45.0012 53.5432 43.8879C54.1098 42.2572 53.3543 40.5011 53.3229 38.7763C53.3071 37.7257 53.433 36.9418 53.8895 36.0323C53.9996 35.8128 54.7079 33.1629 54.5505 33.1943C57.0215 32.7866 58.9101 30.513 59.8859 28.3963C61.869 24.1157 63.1124 19.5058 62.2939 14.7862C62.1208 13.767 61.7273 12.6224 60.7515 12.2461C60.1692 12.0266 59.5082 12.1363 58.8944 12.2774C56.1244 12.8889 53.3858 13.8611 51.0407 15.4447C49.6085 16.4169 48.3337 17.6242 47.3421 19.0354C46.6811 19.9762 46.6654 21.3874 45.9257 22.2655C45.2646 23.0338 44.0685 22.7202 43.1871 22.5947C42.1956 22.4536 41.2198 22.2968 40.2282 22.2655C39.3626 22.2341 38.5127 22.2341 37.6471 22.2655C36.4509 22.3125 35.4909 22.4379 34.3105 22.2027C33.7439 22.093 33.9013 22.2655 33.555 21.7951C33.3661 21.5285 33.2402 21.1522 33.0828 20.8543C32.7838 20.3212 32.4376 19.8194 32.0913 19.3333C31.3358 18.2985 30.486 17.3263 29.5574 16.4483C27.6687 14.6764 25.4023 13.328 22.8999 12.6381C20.9955 12.1049 18.6662 11.6659 17.7691 13.9081C17.4858 14.6137 17.4071 15.382 17.3756 16.1503C17.3598 16.5894 17.3441 17.0441 17.3598 17.4831L17.3284 17.4674Z" fill="#5C564D"/>
<path d="M53.1183 39.5602C52.9295 39.372 52.6462 39.2466 52.3786 39.325C52.2055 39.372 52.0481 39.4818 51.9065 39.5916C49.3568 41.4574 46.6812 40.7989 44.2889 39.0898C42.9826 38.1647 41.3458 37.7413 39.7562 37.8197C38.4341 37.8825 36.75 38.102 35.727 38.98C34.5938 39.9522 33.4449 40.8146 31.8553 40.8303C30.1083 40.8459 27.6688 39.1212 26.0005 39.9835C24.8673 40.5637 25.607 43.731 26.0634 44.6248C26.6143 45.691 28.3456 46.4436 29.4473 46.8513C30.3601 47.1806 31.3517 47.2747 32.3275 47.3374C35.0817 47.5412 37.836 47.6353 40.5903 47.6196C41.9438 47.6196 43.2816 47.6196 44.6352 47.5412C45.6582 47.4942 46.634 47.1963 47.657 47.0865C48.8374 46.9611 50.0178 46.7886 51.1038 46.3182C52.1898 45.8321 53.1498 45.0011 53.5433 43.8878C53.8895 42.9 53.7164 41.8808 53.5748 40.8773C53.5118 40.4539 53.4489 39.9051 53.1341 39.5602H53.1183Z" fill="#F39B4A"/>
<path d="M29.2898 20.6505C27.8576 18.91 26.2837 17.2166 24.3478 16.0406C23.5294 15.5388 22.6638 15.2253 21.7824 14.896C21.1214 14.6451 20.2557 14.0806 19.5318 14.4883C18.7448 14.943 18.4773 16.5267 18.3671 17.3263C18.0995 19.4118 18.2097 21.2933 18.6032 23.3631C18.6504 23.5983 18.6032 23.7864 18.5087 23.9589C18.6189 24.2725 18.7134 24.6018 18.8393 24.8997C19.7836 27.2673 20.5076 30.1524 22.6953 31.7361C23.1989 32.0967 23.734 32.4103 24.2849 32.7239C24.5839 30.6699 25.4023 28.7099 26.6929 26.9851C27.4798 25.9189 28.5343 25.1192 29.4157 24.1314C29.8564 23.6296 30.3128 23.0965 30.2184 22.3909C30.1239 21.748 29.6833 21.1365 29.2898 20.6505Z" fill="#F9BDBE"/>
<path d="M62.0579 19.3021C61.9162 18.2359 61.8375 17.0756 61.4126 16.0721C60.3738 13.6574 57.6668 14.9274 55.9512 15.7428C55.4948 15.9623 55.0384 16.1975 54.582 16.4484C53.8108 17.201 52.9451 17.8439 52.0952 18.4867C51.4972 19.161 50.9306 19.8666 50.3797 20.5722C49.64 21.5129 48.8216 22.5635 48.6799 23.7865C48.8058 23.8963 48.9475 23.9747 49.0577 24.0844C50.8047 25.1193 52.2684 26.4678 53.2442 28.318C53.9996 29.7292 54.6607 31.4383 54.7393 33.1317C57.0844 32.6142 58.8944 30.4348 59.8387 28.3964C60.9404 26.0287 61.7903 23.5513 62.1995 21.0112C62.1523 20.431 62.1051 19.8666 62.0264 19.2864L62.0579 19.3021Z" fill="#F9BDBE"/>
<path d="M27.8575 25.0567C24.4737 27.5028 23.608 31.8617 24.5681 35.7503C24.8199 36.7852 25.4022 37.8358 25.4022 38.9177C25.4022 39.9368 24.8514 40.8933 24.7727 41.9125C24.631 43.7157 25.7642 45.3464 27.1807 46.3499C29.0536 47.6827 31.4931 47.8551 33.6966 48.0276C34.452 48.0903 34.452 46.9144 33.6966 46.8516C31.8866 46.7262 29.9507 46.6008 28.3296 45.6913C27.0076 44.9544 25.8429 43.5746 25.9531 41.9909C26.0161 41.0815 26.441 40.2504 26.5512 39.341C26.6613 38.3689 26.3466 37.4751 26.0318 36.5657C25.418 34.7155 25.1504 32.7085 25.5439 30.7798C25.9374 28.8512 26.9132 27.2048 28.4556 26.0759C29.0694 25.6369 28.4713 24.6177 27.8575 25.0567Z" fill="#231F20"/>
<path d="M50.7258 26.0758C53.7634 28.2866 54.33 32.3791 53.3857 35.7973C53.1181 36.7537 52.6931 37.6632 52.6145 38.6667C52.5515 39.5761 52.8978 40.4228 53.1181 41.2852C53.5273 42.9002 52.7246 44.4055 51.4183 45.362C49.7185 46.585 47.4994 46.7261 45.4848 46.8672C44.7293 46.9299 44.7293 48.1059 45.4848 48.0432C47.5151 47.9021 49.6398 47.7296 51.4498 46.7261C52.9764 45.8794 54.2198 44.3584 54.4087 42.5709C54.5031 41.5988 54.1411 40.705 53.905 39.7643C53.6217 38.604 54.0624 37.6475 54.3929 36.5499C55.0225 34.4958 55.2113 32.2693 54.692 30.1839C54.1726 28.0985 53.0237 26.311 51.3081 25.088C50.6943 24.6489 50.0963 25.6681 50.7101 26.1072L50.7258 26.0758Z" fill="#231F20"/>
<path d="M30.1555 24.0685C36.1047 22.281 42.5418 22.5005 48.3494 24.68C49.0577 24.9466 49.3725 23.8176 48.6642 23.5511C42.6678 21.3088 35.9788 21.0893 29.8407 22.9395C29.1167 23.1591 29.4315 24.288 30.1555 24.0685Z" fill="#231F20"/>
<path d="M46.8069 21.6698C48.8058 17.6714 52.4729 14.5825 56.7696 13.2654C57.3834 13.0772 58.0129 12.9204 58.6425 12.8107C58.9258 12.7636 59.2091 12.7166 59.4924 12.6852C59.8071 12.6539 60.1534 12.5755 60.4367 12.748C61.082 13.1556 61.68 12.1364 61.0348 11.7288C60.4367 11.3525 59.7284 11.4622 59.0674 11.5563C58.4693 11.6347 57.8713 11.7445 57.2732 11.9013C56.0771 12.1992 54.9124 12.6382 53.8107 13.1713C51.6387 14.2375 49.6556 15.7585 48.0818 17.6087C47.1847 18.6749 46.3977 19.8195 45.7839 21.0739C45.4534 21.7482 46.4607 22.344 46.8069 21.6698Z" fill="#231F20"/>
<path d="M61.5227 14.5668C62.7661 19.4433 61.6644 24.7587 58.7684 28.8511C57.95 30.0114 56.9742 31.062 55.8882 31.9714C55.3059 32.4575 56.1401 33.2885 56.7224 32.8024C60.7987 29.3529 63.1595 24.0688 63.2068 18.769C63.2068 17.2481 63.0336 15.7271 62.6559 14.2532C62.467 13.5163 61.3338 13.8299 61.5227 14.5668Z" fill="#231F20"/>
<path d="M49.7186 23.0497C51.2296 20.2273 53.3858 17.938 56.2345 16.4485C57.0529 16.0094 57.8398 15.6958 58.7369 15.3979C59.036 15.3038 59.2406 14.9902 59.1461 14.6766C59.0675 14.3787 58.7212 14.1592 58.4222 14.269C56.8011 14.8021 55.2429 15.5547 53.8422 16.5425C52.4414 17.5304 51.2768 18.6907 50.2538 20.0391C49.6714 20.8074 49.152 21.6228 48.6956 22.4695C48.5382 22.7517 48.6169 23.1124 48.9002 23.2692C49.1678 23.426 49.5613 23.3319 49.7029 23.0653L49.7186 23.0497Z" fill="#231F20"/>
<path d="M33.8855 20.9327C32.2172 17.5929 29.4157 14.8333 26.0791 13.1555C24.4108 12.3088 22.6165 11.713 20.7594 11.4464C19.9882 11.3367 19.2327 11.2426 18.5245 11.6503C17.9894 11.9482 17.6274 12.4656 17.3913 13.0144C16.809 14.3315 16.7932 15.8368 16.7932 17.248C16.7932 18.0006 17.9736 18.0006 17.9736 17.248C17.9736 16.1661 17.9736 15.0528 18.2884 13.9866C18.43 13.5162 18.6346 13.0301 19.0281 12.7322C19.4058 12.4499 19.941 12.5127 20.4603 12.5754C23.8127 13.0458 26.9919 14.6138 29.4472 16.9187C30.8636 18.2358 32.0126 19.7881 32.8782 21.5129C33.2087 22.1871 34.2317 21.5913 33.9012 20.917L33.8855 20.9327Z" fill="#231F20"/>
<path d="M16.9507 20.0705C17.3756 23.865 18.5718 27.5968 20.9641 30.623C21.5464 31.3756 22.2232 32.0499 22.9471 32.6614C23.1832 32.8652 23.5452 32.8966 23.7813 32.6614C23.9859 32.4575 24.0331 32.0342 23.7813 31.8303C21.1844 29.6352 19.5633 26.5463 18.7134 23.2849C18.4459 22.2186 18.2413 21.1524 18.1311 20.0548C18.0996 19.7412 17.8793 19.459 17.533 19.459C17.234 19.459 16.9035 19.7255 16.9349 20.0548L16.9507 20.0705Z" fill="#231F20"/>
<path d="M29.9665 20.9013C29.1796 19.6783 28.2667 18.5337 27.1965 17.5615C26.1262 16.5894 24.8357 15.7113 23.4821 15.0684C22.6165 14.6451 21.7194 14.3001 20.8066 13.9865C20.5075 13.8925 20.1613 14.0963 20.0826 14.3942C19.9881 14.7078 20.1927 15.0214 20.4918 15.1155C23.2461 16.0249 25.7013 17.4675 27.6057 19.6626C28.0936 20.2428 28.5185 20.8072 28.9435 21.4815C29.1166 21.748 29.4629 21.8578 29.7462 21.6853C30.0137 21.5285 30.1239 21.1522 29.9508 20.8856L29.9665 20.9013Z" fill="#231F20"/>
<path d="M32.28 40.4383C33.158 40.4383 33.8697 39.7293 33.8697 38.8547C33.8697 37.98 33.158 37.271 32.28 37.271C31.4021 37.271 30.6904 37.98 30.6904 38.8547C30.6904 39.7293 31.4021 40.4383 32.28 40.4383Z" fill="#231F20"/>
<path d="M46.8384 40.4383C47.7163 40.4383 48.428 39.7293 48.428 38.8547C48.428 37.98 47.7163 37.271 46.8384 37.271C45.9605 37.271 45.2488 37.98 45.2488 38.8547C45.2488 39.7293 45.9605 40.4383 46.8384 40.4383Z" fill="#231F20"/>
<path d="M39.5513 42.1159C41.255 42.1159 42.6361 41.2595 42.6361 40.203C42.6361 39.1465 41.255 38.29 39.5513 38.29C37.8477 38.29 36.4666 39.1465 36.4666 40.203C36.4666 41.2595 37.8477 42.1159 39.5513 42.1159Z" fill="#231F20"/>
<path d="M34.8551 35.2359C35.155 34.4787 34.5459 33.5299 33.4948 33.1168C32.4436 32.7036 31.3484 32.9826 31.0486 33.7398C30.7487 34.497 31.3577 35.4458 32.4089 35.8589C33.46 36.272 34.5552 35.9931 34.8551 35.2359Z" fill="#F39B4A"/>
<path d="M46.7013 35.7865C47.7525 35.3734 48.3615 34.4246 48.0616 33.6674C47.7618 32.9102 46.6666 32.6313 45.6154 33.0444C44.5643 33.4576 43.9552 34.4063 44.2551 35.1635C44.555 35.9208 45.6502 36.1997 46.7013 35.7865Z" fill="#F39B4A"/>
</svg>
