<svg width="80" height="76" viewBox="0 0 80 76" fill="none" xmlns="http://www.w3.org/2000/svg">
<path d="M54.9748 50.4894L55.085 49.8778C53.8889 49.4231 52.4252 49.7994 51.5753 50.7559C50.7254 51.7124 50.568 53.2176 51.166 54.3309C51.1818 54.3623 51.2133 54.4093 51.229 54.4407C51.1346 54.7072 51.0401 54.9895 50.9457 55.256C50.9142 55.3344 50.8985 55.3971 50.867 55.4755C50.5837 53.3431 49.7653 51.1793 48.9626 49.329C48.7265 48.7959 48.4118 47.714 47.9239 47.3691C46.2241 44.7976 43.3439 43.0101 40.2748 42.6651C37.0956 42.3045 33.7905 43.4491 31.5241 45.6913C27.5737 49.6113 24.4889 63.3468 33.6174 62.8921L34.2626 62.2022C34.5617 62.6882 35.0338 63.0332 35.805 63.143C38.5436 63.5193 39.1889 61.8258 39.3463 59.7875C39.5036 61.8102 40.1489 63.5036 42.8875 63.143C45.6732 62.7666 48.9784 62.5471 50.3319 60.0697C50.6624 60.791 51.1503 61.4182 51.0874 61.9983C53.1177 62.3433 55.0693 61.4339 56.6431 60.2265C57.7763 59.3641 58.6734 57.8432 59.0512 56.4634C59.9483 53.1549 57.4143 50.4423 54.9748 50.4737V50.4894Z" fill="#F39B4A"/>
<path d="M33.145 57.8438C33.145 58.8317 33.019 59.8195 33.0663 60.8073C33.1292 61.8735 33.4282 62.9554 34.3411 63.5983C34.8447 63.9589 35.49 64.0687 36.0881 64.1001C36.6547 64.1314 37.237 64.0844 37.7564 63.8649C38.2758 63.6453 38.685 63.3161 39.0155 62.8614C39.2988 62.4694 39.4719 62.0147 39.5821 61.5443C39.8654 60.3996 39.8497 59.1923 39.8339 58.032C39.8339 57.7184 39.5664 57.4362 39.2358 57.4362C38.9053 57.4362 38.6378 57.687 38.6378 58.032C38.6378 58.5337 38.6378 59.0355 38.6378 59.5216C38.6378 59.7724 38.622 60.0076 38.5906 60.2585C38.5906 60.3683 38.5748 60.478 38.5591 60.6035C38.5591 60.6505 38.5276 60.7603 38.5591 60.5721C38.5591 60.6035 38.5591 60.6348 38.5591 60.6662C38.5591 60.7289 38.5433 60.7916 38.5276 60.8387C38.4961 61.0582 38.4332 61.2777 38.3702 61.4815C38.3387 61.5756 38.3073 61.6697 38.2758 61.7638C38.2286 61.9049 38.3387 61.6383 38.2758 61.7638C38.2443 61.8265 38.2286 61.8735 38.1971 61.9363C38.1499 62.0147 38.1027 62.1087 38.0554 62.1871C38.024 62.2185 38.0082 62.2498 37.9767 62.2969C37.9138 62.3753 38.0712 62.1871 38.0082 62.2655C37.9925 62.2969 37.961 62.3126 37.9453 62.3439C37.8823 62.4066 37.8194 62.485 37.7407 62.5478C37.7249 62.5478 37.7092 62.5791 37.6934 62.5948C37.6462 62.6418 37.8194 62.5007 37.7407 62.5634C37.6934 62.5948 37.6462 62.6262 37.5833 62.6732C37.5046 62.7202 37.3944 62.7516 37.3157 62.8143C37.3944 62.7516 37.4416 62.7673 37.3787 62.783C37.3472 62.783 37.3315 62.7986 37.3 62.8143C37.237 62.83 37.1741 62.8614 37.1111 62.877C37.0009 62.9084 36.8908 62.9241 36.7806 62.9398C36.7806 62.9398 36.938 62.9241 36.8436 62.9398C36.8121 62.9398 36.7806 62.9398 36.7491 62.9398C36.6704 62.9398 36.5917 62.9398 36.5288 62.9398C36.4029 62.9398 36.2612 62.9398 36.1353 62.9398C36.0566 62.9398 35.9779 62.9398 35.8992 62.9241C35.852 62.9241 35.8205 62.9241 35.7733 62.9241C35.6317 62.9084 35.8992 62.9398 35.7733 62.9241C35.6474 62.9084 35.5372 62.877 35.4113 62.8457C35.3484 62.83 35.2854 62.7986 35.2382 62.783C35.128 62.7516 35.3641 62.8457 35.2697 62.783C35.2382 62.783 35.2225 62.7516 35.191 62.7516C35.0966 62.7046 35.0179 62.6418 34.9234 62.5948C34.829 62.5478 35.0336 62.6889 34.9549 62.6262C34.9392 62.6105 34.9077 62.5948 34.892 62.5791C34.8447 62.5478 34.8133 62.5007 34.7818 62.4694C34.7503 62.438 34.7188 62.3753 34.6716 62.3439C34.766 62.4066 34.7503 62.4537 34.7188 62.4066C34.7188 62.391 34.6873 62.3596 34.6716 62.3439C34.6087 62.2498 34.5614 62.1558 34.5142 62.0617C34.5142 62.0303 34.4985 62.0146 34.4827 61.9833C34.4355 61.8892 34.53 62.1244 34.4985 62.0303C34.4985 61.9833 34.467 61.9519 34.4513 61.9049C34.4198 61.7951 34.3883 61.6854 34.3568 61.5756C34.3254 61.4659 34.3096 61.3718 34.2939 61.262C34.2939 61.2307 34.2939 61.1993 34.2939 61.1679C34.3254 61.3404 34.2939 61.262 34.2939 61.215C34.2939 61.1523 34.2939 61.0895 34.2781 61.0111C34.1837 59.9606 34.3411 58.9101 34.3411 57.8595C34.3411 57.5459 34.0735 57.2637 33.743 57.2637C33.4125 57.2637 33.1607 57.5146 33.145 57.8595V57.8438Z" fill="#231F20"/>
<path d="M48.4906 47.6359C46.4131 44.3588 42.683 42.2577 38.7798 42.3361C35.396 42.3988 31.965 44.0295 29.9976 46.8205C28.6756 48.7178 27.8257 51.007 27.3535 53.2492C26.8814 55.4915 26.6925 57.9845 27.5266 60.164C27.9516 61.2616 28.6284 62.2338 29.6199 62.8923C30.7531 63.645 32.1538 63.8645 33.5074 63.8174C34.2628 63.7861 34.2628 62.6101 33.5074 62.6414C31.5243 62.7355 29.7301 62.0613 28.833 60.2268C27.9359 58.3922 28.0303 56.2284 28.3451 54.3312C28.6913 52.2144 29.3838 50.129 30.4698 48.2788C31.8863 45.8484 34.3258 44.249 37.0958 43.7159C41.1092 42.9319 45.2957 44.8292 47.4676 48.2631C47.8768 48.9059 48.8998 48.3101 48.4906 47.6672V47.6359Z" fill="#231F20"/>
<path d="M44.1465 57.844C44.1465 58.7848 44.2724 59.7099 44.2252 60.6507C44.2252 60.7604 44.2252 60.8702 44.2094 60.9956C44.2094 61.0583 44.2094 61.1054 44.1937 61.1681C44.1937 61.1995 44.1937 61.2151 44.1937 61.2465C44.1937 61.1995 44.2094 61.0427 44.1937 61.2465C44.1622 61.466 44.115 61.6855 44.0363 61.8894C44.0363 61.9364 44.0048 61.9678 43.9891 62.0148C43.9576 62.1246 44.052 61.8737 44.0048 61.9678C44.0048 61.9991 43.9891 62.0148 43.9734 62.0462C43.9261 62.1403 43.8789 62.2343 43.816 62.3284C43.816 62.3441 43.7845 62.3598 43.7845 62.3754C43.753 62.4382 43.7215 62.4068 43.816 62.3284C43.7845 62.3598 43.753 62.4068 43.7058 62.4539C43.6743 62.4852 43.6428 62.5166 43.6114 62.5479C43.5956 62.5636 43.5641 62.5793 43.5484 62.595C43.4382 62.689 43.6428 62.5322 43.5484 62.595C43.454 62.6577 43.3753 62.7047 43.2808 62.7518C43.2336 62.7831 43.0762 62.8145 43.2651 62.7518C43.2022 62.7674 43.1235 62.7988 43.0605 62.8302C42.9346 62.8615 42.8244 62.8929 42.6985 62.9086C42.6513 62.9086 42.6356 62.9399 42.7457 62.9086C42.7143 62.9086 42.6513 62.9086 42.6198 62.9086C42.5254 62.9086 42.4467 62.9242 42.3523 62.9242C42.2264 62.9242 42.0847 62.9242 41.9588 62.9242C41.8958 62.9242 41.8171 62.9242 41.7542 62.9242C41.6912 62.9242 41.4866 62.8772 41.6755 62.9242C41.5653 62.8929 41.4552 62.8929 41.345 62.8615C41.282 62.8615 41.2348 62.8302 41.1719 62.8145C41.1404 62.8145 41.1246 62.7988 41.0932 62.7831C41.0302 62.7518 41.0302 62.7204 41.1246 62.7988C41.0617 62.7361 40.9358 62.7047 40.8571 62.6577C40.8099 62.6263 40.7626 62.595 40.7312 62.5636C40.6367 62.5009 40.7154 62.5636 40.7312 62.5636C40.8256 62.6263 40.7312 62.5636 40.7154 62.5479C40.6367 62.4852 40.5738 62.4225 40.5108 62.3441C40.4636 62.297 40.3849 62.1559 40.4951 62.3284C40.4636 62.2814 40.4321 62.25 40.4007 62.203C40.3534 62.1246 40.3062 62.0462 40.259 61.9521C40.2275 61.9051 40.2118 61.858 40.1961 61.811C40.1961 61.7953 40.1961 61.7796 40.1803 61.7639C40.1331 61.6699 40.2433 61.9207 40.1803 61.7639C40.1016 61.5601 40.0387 61.3563 39.9915 61.1524C39.96 61.027 39.9442 60.9015 39.9128 60.7761C39.9128 60.7134 39.897 60.6507 39.8813 60.6036C39.8655 60.4939 39.897 60.7604 39.8813 60.635C39.8813 60.6036 39.8813 60.5566 39.8813 60.5252C39.8498 60.2587 39.8341 59.9921 39.8183 59.7256C39.7868 59.1611 39.8026 58.5966 39.8026 58.0321C39.8026 57.7185 39.535 57.4363 39.2045 57.4363C38.874 57.4363 38.6222 57.6872 38.6064 58.0321C38.6064 59.0984 38.6064 60.1803 38.7953 61.2308C38.9842 62.1873 39.4249 63.1438 40.2905 63.6612C40.7784 63.9591 41.3607 64.0689 41.9116 64.1002C42.5569 64.1159 43.2336 64.0375 43.816 63.7553C44.8547 63.2692 45.2482 62.1716 45.3584 61.1211C45.4685 60.0705 45.3111 58.9259 45.3111 57.8126C45.3111 57.499 45.0436 57.2168 44.7131 57.2168C44.3826 57.2168 44.115 57.4677 44.115 57.8126L44.1465 57.844Z" fill="#231F20"/>
<path d="M47.4522 48.1542C47.6726 48.2797 47.7985 48.6246 47.9087 48.8441C48.0503 49.1577 48.1447 49.4713 48.2707 49.7849C48.4753 50.2867 48.6956 50.7884 48.8845 51.3059C49.3094 52.4505 49.6714 53.6108 49.9232 54.8025C50.3324 56.7468 50.5842 59.2242 49.3566 60.8078C48.5854 61.7957 47.3421 62.2033 46.1144 62.2974C45.359 62.3601 45.359 63.5361 46.1144 63.4734C47.4837 63.3636 48.8372 62.9716 49.8603 61.9995C50.7102 61.1841 51.1666 60.0709 51.3397 58.9263C51.7174 56.3548 51.0092 53.6578 50.1278 51.2588C49.8917 50.6316 49.6084 49.9731 49.3724 49.3616C49.0576 48.5933 48.8215 47.5898 48.0503 47.135C47.3893 46.743 46.807 47.7622 47.4522 48.1542Z" fill="#231F20"/>
<path d="M57.7136 53.0132C58.8468 54.4871 58.6894 56.3373 57.8867 57.921C57.4775 58.7206 56.9424 59.4733 56.2342 60.0534C55.5259 60.6336 54.7547 61.104 53.9363 61.4019C52.9448 61.7782 51.969 61.8723 50.9145 61.7468C50.5997 61.6998 50.3164 62.0447 50.3164 62.3427C50.3164 62.6876 50.584 62.8915 50.9145 62.9385C51.9532 63.0639 53.0077 62.9855 53.9993 62.6406C54.9908 62.2956 55.9194 61.7625 56.7536 61.1353C57.5877 60.5081 58.2645 59.6928 58.7681 58.7834C59.2717 57.8739 59.6337 56.8391 59.6967 55.7728C59.7596 54.5968 59.4449 53.3738 58.7209 52.4487C58.532 52.1978 58.2173 52.0567 57.9182 52.2449C57.6664 52.386 57.509 52.7937 57.7136 53.0445V53.0132Z" fill="#231F20"/>
<path d="M53.7945 53.9075C53.7945 53.9075 53.8102 54.0016 53.8259 54.0487C53.8259 54.1114 53.8259 54.0016 53.8259 54.0016C53.8259 54.0016 53.8259 54.0643 53.8259 54.08C53.8259 54.1271 53.8259 54.1584 53.8259 54.2055C53.8259 54.2368 53.8259 54.2682 53.8259 54.2839C53.8259 54.3623 53.8259 54.2839 53.8259 54.2525C53.8102 54.2839 53.8102 54.3623 53.7945 54.3936C53.7945 54.4407 53.763 54.4877 53.7472 54.5347C53.7472 54.5504 53.7472 54.5818 53.7315 54.5975C53.7 54.6759 53.7787 54.5034 53.7315 54.5661C53.7 54.6131 53.6843 54.6602 53.6528 54.7072C53.6528 54.7229 53.5741 54.817 53.5741 54.8327C53.5741 54.8327 53.6528 54.7543 53.6056 54.8013C53.6056 54.8013 53.5741 54.8327 53.5584 54.8483C53.5269 54.8797 53.4954 54.9267 53.4482 54.9581C53.4482 54.9581 53.401 54.9895 53.401 55.0051C53.4639 54.9581 53.4639 54.9581 53.4325 54.9738C53.4325 54.9738 53.4167 54.9895 53.401 55.0051C53.3538 55.0365 53.3223 55.0522 53.2751 55.0835C53.2593 55.0835 53.1649 55.1306 53.1649 55.1462C53.1649 55.1149 53.2751 55.1149 53.1807 55.1462C53.1649 55.1462 53.1334 55.1462 53.1177 55.1619C53.0705 55.1776 53.0075 55.1933 52.9603 55.209C52.9288 55.209 52.8973 55.209 52.8816 55.2246C52.8187 55.2246 52.9288 55.2246 52.9288 55.2246C52.8974 55.2246 52.8029 55.2246 52.7872 55.2246C52.74 55.2246 52.6927 55.2246 52.6455 55.2246C52.5511 55.2246 52.6298 55.2246 52.6455 55.2246C52.74 55.2246 52.6141 55.2246 52.5983 55.2246C52.5511 55.2246 52.5196 55.209 52.4724 55.1933C52.4409 55.1933 52.315 55.1462 52.378 55.1619C52.4409 55.1776 52.315 55.1306 52.2993 55.1149C52.2521 55.0835 52.2048 55.0522 52.1576 55.0365C52.1262 55.0365 52.0789 54.9738 52.0475 54.9581C52.0947 54.9581 52.1262 55.0208 52.0632 54.9581C52.0632 54.9581 52.0317 54.9267 52.016 54.9111C51.9373 54.8327 51.8586 54.7543 51.7956 54.6759C51.7327 54.5975 51.8586 54.7699 51.7642 54.6445C51.7327 54.5975 51.7012 54.5661 51.6855 54.5191C51.6383 54.4407 51.591 54.3466 51.5438 54.2682C51.5281 54.2211 51.4966 54.1741 51.4809 54.1427C51.4494 54.08 51.4966 54.1898 51.4966 54.1898C51.4966 54.1741 51.4809 54.1271 51.4651 54.1114C51.4337 54.0173 51.4022 53.9232 51.3707 53.8448C51.3392 53.7664 51.3235 53.6567 51.3077 53.5626C51.3077 53.5312 51.3077 53.4999 51.3077 53.4842C51.3077 53.4842 51.3077 53.6096 51.3077 53.5312C51.3077 53.4842 51.3077 53.4215 51.3077 53.3744C51.3077 53.1863 51.3077 52.9981 51.3077 52.7943C51.3077 52.7316 51.3077 52.8413 51.3077 52.8413C51.3077 52.81 51.3077 52.7786 51.3077 52.7629C51.3077 52.7159 51.3235 52.6688 51.3392 52.6218C51.355 52.5277 51.3864 52.4336 51.4179 52.3396C51.4494 52.2455 51.4809 52.1514 51.5123 52.073C51.5438 52.0103 51.4966 52.12 51.4966 52.12C51.4966 52.1044 51.5281 52.0573 51.5281 52.0416C51.5438 51.9946 51.5753 51.9476 51.6068 51.9005C51.654 51.8221 51.7012 51.7437 51.7484 51.6653C51.7799 51.6183 51.7956 51.5869 51.8271 51.5399C51.7642 51.6026 51.8429 51.5242 51.8586 51.5085C51.9216 51.4458 51.9688 51.3831 52.0317 51.3204C52.0947 51.2577 52.2206 51.1949 52.2521 51.1165C52.2521 51.1165 52.1419 51.1949 52.2363 51.1322C52.2521 51.1322 52.2678 51.1009 52.2835 51.1009C52.315 51.0695 52.3622 51.0538 52.3937 51.0225C52.4724 50.9754 52.5511 50.9284 52.6455 50.8813C52.6927 50.85 52.74 50.8343 52.7872 50.8029C52.8029 50.8029 52.8344 50.7873 52.8659 50.7716C52.8344 50.7873 52.7714 50.8186 52.8344 50.7716C52.9288 50.7402 53.039 50.6932 53.1334 50.6618C53.2279 50.6305 53.338 50.6148 53.4482 50.5834C53.4639 50.5834 53.4954 50.5834 53.5112 50.5834C53.6056 50.5834 53.5584 50.5834 53.4954 50.5834C53.5426 50.5834 53.6056 50.5834 53.6528 50.5834C53.763 50.5834 53.8732 50.5834 53.9833 50.5834C54.0305 50.5834 54.0778 50.5834 54.125 50.5834C54.1564 50.5834 54.1722 50.5834 54.2037 50.5834C54.2194 50.5834 54.3138 50.5834 54.2194 50.5834C54.125 50.5834 54.2194 50.5834 54.2351 50.5834C54.2666 50.5834 54.2824 50.5834 54.3138 50.5834C54.3611 50.5834 54.424 50.5991 54.4712 50.6148C54.5814 50.6461 54.6916 50.6775 54.8017 50.7089C55.085 50.8186 55.4628 50.5834 55.5257 50.3012C55.6044 49.9719 55.4313 49.6897 55.1165 49.5799C54.1722 49.235 53.1334 49.3447 52.2363 49.7367C51.3392 50.1287 50.631 50.9284 50.3005 51.8692C49.9699 52.81 50.0329 53.8605 50.4578 54.7699C50.9143 55.7421 51.9058 56.4947 53.039 56.3379C53.6843 56.2438 54.2509 55.9146 54.6129 55.3658C54.9749 54.817 55.0693 54.1584 54.9119 53.5626C54.8332 53.2647 54.487 53.0608 54.1879 53.1549C53.8889 53.249 53.7 53.5626 53.7787 53.8762L53.7945 53.9075Z" fill="#231F20"/>
<path d="M56.7375 50.0664C56.7375 50.1762 56.7375 50.2703 56.7061 50.3643V50.2075C56.6903 50.4741 56.6116 50.7407 56.5172 50.9915L56.5802 50.8504C56.5329 50.9445 56.5015 51.0386 56.4385 51.1327C56.3598 51.2738 56.3441 51.4306 56.3756 51.5874C56.3913 51.6658 56.4228 51.7285 56.4857 51.7912C56.5329 51.8539 56.5802 51.901 56.6588 51.948C56.8005 52.0264 56.9579 52.0578 57.1153 52.0107C57.2569 51.9637 57.3986 51.8696 57.4615 51.7442C57.7448 51.2267 57.9022 50.6623 57.9179 50.0821C57.9179 50.0037 57.9179 49.9253 57.8707 49.8626C57.8393 49.7842 57.8078 49.7215 57.7448 49.6744C57.6976 49.6117 57.6346 49.5804 57.556 49.549C57.493 49.5176 57.4143 49.502 57.3356 49.502C57.1782 49.502 57.0208 49.5647 56.9107 49.6744L56.8162 49.7999C56.769 49.8939 56.7375 49.988 56.7375 50.0978V50.0664Z" fill="#231F20"/>
<path d="M17.8472 28.5998C17.7842 29.1329 17.8472 29.666 18.0203 30.1677C18.0675 30.3089 18.1462 30.45 18.1305 30.6068C18.1147 30.7793 17.9888 30.936 17.8786 31.0615C16.1316 33.241 15.927 37.0041 17.9416 39.0895C18.7443 39.9206 18.6498 41.1279 19.6414 41.9433C20.5857 42.7273 20.7588 43.0409 20.9792 44.1541C21.168 45.0949 21.8133 46.0514 22.4271 46.7726C23.7649 48.2779 25.7323 49.2501 27.7626 49.2344C28.1403 49.2344 28.5023 49.203 28.8643 49.2814C30.0762 49.5323 30.6113 50.8024 31.8861 50.9121C33.0193 51.0062 34.184 50.7553 35.1912 50.2065C37.4891 51.0062 40.0702 50.9435 42.3209 50.0497C42.132 50.1281 43.4856 50.6926 43.5642 50.7083C44.1466 50.8651 44.7289 51.116 45.3585 51.1316C46.3657 51.1473 47.3888 51.0062 48.3488 50.6926C48.821 50.5358 49.3089 50.332 49.6551 49.9713C50.3634 49.2187 50.6152 48.8581 51.7012 48.811C53.275 48.7483 54.9276 48.5288 56.2182 47.6194C57.5088 46.7099 58.3114 44.9695 57.7134 43.5113C58.6577 43.0409 59.3817 42.2255 59.8066 41.269C60.027 40.7673 60.1686 40.2499 60.2158 39.7011C60.2158 39.5913 60.0899 38.3526 60.0112 38.4624C60.6093 37.7254 60.8296 36.7062 60.5778 35.7968C60.5463 35.687 60.4991 35.5616 60.5149 35.4362C60.5149 35.2794 60.6093 35.1382 60.688 35.0128C61.2861 33.9779 61.3333 32.3316 61.0657 31.1869C60.8139 30.1207 60.1214 29.2113 59.3974 28.4116C59.3187 28.3175 59.2243 28.2234 59.1928 28.1137C59.1613 28.0196 59.1613 27.9255 59.1613 27.8314C59.1771 26.1537 57.9495 24.3192 56.7533 23.2059C56.2497 22.7355 54.8017 22.5003 54.5499 21.9515C54.4869 21.8261 54.5027 21.7006 54.5027 21.5595C54.5027 20.6815 54.424 19.7564 53.999 18.988C53.8574 18.7215 53.6213 18.4392 53.3223 18.4079C53.1964 18.3922 53.0704 18.4079 52.9445 18.4392C52.0474 18.6431 51.4494 19.1762 50.6782 19.5212C49.9542 19.8348 49.4033 19.0037 48.7266 18.549C47.2628 17.5925 45.5945 16.9497 43.879 16.6831C42.6829 16.495 41.5654 16.6047 40.385 16.6674C39.3148 16.7145 38.1659 17.1221 37.0956 17.0908C36.5763 17.0751 36.0726 16.8713 35.5532 16.7615C33.9794 16.4166 32.2166 16.8242 30.7529 17.4044C30.4224 17.5455 27.133 19.0508 27.432 19.5368C26.7238 18.3922 24.6935 18.5333 24.1584 19.7564C23.8908 20.3679 24.1741 21.0264 24.001 21.6066C23.8121 22.2651 22.915 22.6728 22.3799 23.0178C21.4356 23.6293 20.57 24.3505 19.7988 25.1502C19.1535 25.8244 18.5711 26.5614 18.2091 27.4238C18.0518 27.7844 17.9573 28.1764 17.9101 28.5684L17.8472 28.5998Z" fill="#F39B4A"/>
<path d="M30.5011 21.7633C30.391 21.6693 30.2808 21.5909 30.1864 21.4968C30.1706 21.4811 30.1392 21.4654 30.1234 21.4341C29.4466 20.948 28.6912 20.5403 27.9829 20.0856C27.5423 19.7877 26.9284 19.3957 26.5822 18.8939C26.2202 18.7528 25.8267 18.7528 25.4333 18.8155C25.4333 18.8155 25.4175 18.8155 25.4018 18.8155C25.2444 18.941 25.087 19.0821 24.9611 19.2232C24.8195 19.3957 24.5676 19.4584 24.3473 19.4741C24.3316 19.4741 24.3158 19.4741 24.3001 19.4741C24.2371 19.5525 24.1584 19.5995 24.127 19.6936C24.4889 20.7441 24.2529 22.2024 24.1899 23.0961C24.1584 23.4881 24.1427 23.8644 24.1427 24.2564C24.1427 24.4603 24.1427 24.6484 24.1584 24.8523C24.1584 24.8836 24.1584 24.9777 24.1742 25.0091C24.1742 25.0561 24.2056 25.1815 24.2056 25.1972C24.2214 25.2756 24.2529 25.3697 24.2686 25.4481C24.2686 25.4638 24.3001 25.5265 24.3158 25.5735C24.3316 25.6049 24.3788 25.699 24.3945 25.7146C24.4103 25.746 24.426 25.7617 24.4417 25.7774C24.4575 25.793 24.4732 25.8087 24.5047 25.8401C24.5676 25.8087 24.6306 25.793 24.5047 25.8401C24.5676 25.8087 24.6306 25.7774 24.6935 25.746C24.8352 25.6676 24.9768 25.5735 25.1028 25.4794C25.3388 25.307 25.7008 25.0091 25.9999 24.7268C26.5822 24.1937 27.1488 23.6292 27.7311 23.0961C28.0302 22.8296 28.3135 22.6257 28.6912 22.4689C29.1004 22.3121 29.5096 22.2024 29.9345 22.0612C30.1392 21.9985 30.3595 21.9201 30.4854 21.8574C30.5169 21.8574 30.5326 21.8261 30.5641 21.8104C30.5326 21.779 30.5011 21.7477 30.4854 21.7477L30.5011 21.7633Z" fill="#984E25"/>
<path d="M50.1276 19.5532C49.9702 19.6943 49.8128 19.8511 49.6397 19.9922C49.2304 20.3685 48.8212 20.7292 48.3963 21.0741C48.3648 21.1055 48.3333 21.1212 48.3176 21.1525C48.2546 21.1996 48.2074 21.2466 48.1445 21.2936C48.05 21.372 47.9241 21.4034 47.814 21.4034C47.7667 21.4504 47.7038 21.4975 47.6566 21.5445C47.5149 21.7013 47.452 21.7954 47.3418 21.9835C47.3733 21.9835 47.4048 21.9992 47.4205 21.9992C47.6723 22.0776 47.9241 22.156 48.1602 22.2501C49.6082 22.7989 50.7256 23.8338 51.8746 24.8216C52.331 25.2136 52.8818 25.6997 53.4012 25.8878C53.4012 25.8878 53.5586 25.9349 53.6058 25.9505C53.6058 25.9505 53.6688 25.9505 53.716 25.9505C53.8576 25.8565 53.9993 25.6526 54.1252 25.4331C54.44 24.8216 54.5344 24.069 54.5816 23.3947C54.6131 22.9871 54.6446 22.5637 54.6761 22.156C54.5974 22.0933 54.5344 22.0149 54.5029 21.9365C54.44 21.8111 54.4557 21.6856 54.4557 21.5445C54.4557 20.6664 54.377 19.7413 53.9521 18.973C53.8104 18.7065 53.5743 18.4242 53.2753 18.3929C53.1494 18.3772 53.0235 18.3929 52.8976 18.4242C52.0005 18.6281 51.4024 19.1612 50.6312 19.5061C50.4581 19.5845 50.2849 19.6002 50.1276 19.5532Z" fill="#984E25"/>
<path d="M44.855 37.8358C42.4627 35.97 39.5825 35.5309 36.6709 35.6407C35.3173 35.8602 33.9008 36.3149 32.925 37.3341C32.0437 38.2592 31.7289 39.6704 32.5001 40.768C33.1926 41.7558 34.4832 42.2889 35.6793 42.2419C37.2375 42.1792 37.8513 41.0659 38.4808 39.8272C38.9058 38.9805 39.9917 39.5136 40.0862 40.2662C40.2593 41.5833 41.8489 42.038 42.9821 41.8812C44.5087 41.6617 45.4373 40.3603 45.1855 38.8394C45.1226 38.4787 45.0124 38.1494 44.8707 37.8515L44.855 37.8358Z" fill="#984E25"/>
<path d="M30.6274 35.1377C31.4792 35.1377 32.1698 34.4497 32.1698 33.6011C32.1698 32.7524 31.4792 32.0645 30.6274 32.0645C29.7755 32.0645 29.085 32.7524 29.085 33.6011C29.085 34.4497 29.7755 35.1377 30.6274 35.1377Z" fill="#231F20"/>
<path d="M46.6332 35.1377C47.4851 35.1377 48.1756 34.4497 48.1756 33.6011C48.1756 32.7524 47.4851 32.0645 46.6332 32.0645C45.7814 32.0645 45.0908 32.7524 45.0908 33.6011C45.0908 34.4497 45.7814 35.1377 46.6332 35.1377Z" fill="#231F20"/>
<path d="M38.6387 37.38C40.2815 37.38 41.6133 36.5587 41.6133 35.5455C41.6133 34.5323 40.2815 33.7109 38.6387 33.7109C36.9958 33.7109 35.6641 34.5323 35.6641 35.5455C35.6641 36.5587 36.9958 37.38 38.6387 37.38Z" fill="#231F20"/>
<path d="M24.5526 23.5502C24.5211 22.7505 24.5368 21.9352 24.5998 21.1355C24.5998 20.9474 24.6313 20.7592 24.647 20.5554C24.647 20.477 24.6627 20.3986 24.6785 20.3202C24.6785 20.2731 24.6627 20.2575 24.6785 20.3515C24.6785 20.3045 24.6942 20.2418 24.6942 20.2104C24.7257 20.0693 24.7572 19.9439 24.7887 19.8027C24.7887 19.7714 24.8044 19.74 24.8201 19.7087C24.8516 19.5989 24.8201 19.7243 24.8201 19.74C24.8201 19.6773 24.8988 19.5832 24.9303 19.5362V19.5048C24.9303 19.5048 24.9775 19.4578 24.9303 19.5362L24.9775 19.4735C25.009 19.4421 25.0405 19.4264 25.0562 19.3951C25.1192 19.3323 25.0247 19.4107 25.0247 19.4107C25.0247 19.3794 25.2451 19.301 25.1034 19.348C25.1506 19.3323 25.1979 19.3167 25.2451 19.301C25.3552 19.2696 25.1506 19.301 25.2766 19.301C25.3552 19.301 25.4339 19.301 25.5284 19.301C25.4025 19.301 25.4969 19.301 25.5284 19.301C25.5756 19.301 25.6228 19.3167 25.67 19.3323C25.7487 19.348 25.8274 19.3794 25.9218 19.4107C25.9533 19.4107 26.032 19.4421 25.9218 19.4107C25.9848 19.4421 26.0478 19.4735 26.1107 19.5048C26.7245 19.8027 27.3069 20.1791 27.8577 20.6024C27.7633 20.524 27.8577 20.6024 27.8734 20.6181C27.9207 20.6494 27.9679 20.6965 28.0151 20.7278C28.0938 20.7906 28.1725 20.8533 28.2512 20.916C28.3928 21.0414 28.5345 21.1669 28.6604 21.2923C28.9594 21.5746 29.227 21.8568 29.4945 22.1704C29.6991 22.4056 30.1241 22.3899 30.3287 22.1704C30.5648 21.9195 30.549 21.5902 30.3287 21.3394C29.3371 20.1791 28.0938 19.1755 26.7088 18.5013C26.2996 18.2975 25.8589 18.125 25.3867 18.125C24.9146 18.125 24.5211 18.2818 24.1906 18.5954C23.6397 19.1128 23.5296 19.9282 23.4666 20.6338C23.3722 21.6059 23.3407 22.5937 23.3879 23.5659C23.3879 23.8795 23.6555 24.1617 23.986 24.1617C24.3165 24.1617 24.584 23.8952 24.584 23.5659L24.5526 23.5502Z" fill="#231F20"/>
<path d="M48.7423 21.9355C49.3876 21.3397 50.0644 20.7596 50.7411 20.1951C50.8985 20.0696 51.0717 19.9285 51.229 19.8031C51.2763 19.7717 51.3235 19.7247 51.3707 19.6933C51.3077 19.7404 51.4022 19.6776 51.4179 19.662C51.5123 19.5836 51.6068 19.5208 51.7012 19.4581C51.8586 19.3484 52.0002 19.2543 52.1734 19.1759C52.2206 19.1445 52.2678 19.1289 52.315 19.0975C52.315 19.0975 52.4724 19.0348 52.3937 19.0661C52.315 19.0975 52.4724 19.0348 52.4724 19.0348C52.5354 19.0191 52.5983 18.9877 52.677 18.9721C52.7085 18.9721 52.74 18.9721 52.7714 18.9564C52.9288 18.9093 52.6613 18.9564 52.8187 18.9564C52.8974 18.9564 52.976 18.9564 53.0705 18.9564C52.9288 18.9564 53.0705 18.9564 53.1177 18.9564C53.1649 18.9564 53.2121 18.9877 53.2593 19.0034C53.1649 18.9564 53.2436 19.0034 53.2593 19.0034C53.2908 19.0034 53.3853 19.0661 53.401 19.0818C53.3223 19.0191 53.3853 19.0191 53.401 19.0818C53.4325 19.0975 53.4482 19.1289 53.4797 19.1445C53.4954 19.1602 53.5584 19.2073 53.5584 19.2386C53.5584 19.1916 53.4954 19.1602 53.5426 19.2229C53.5899 19.2857 53.6371 19.364 53.6685 19.4424C53.6685 19.4738 53.7 19.4895 53.7 19.5208C53.7315 19.5836 53.7158 19.5679 53.7 19.4895C53.7 19.5208 53.7158 19.5365 53.7315 19.5679C53.7787 19.709 53.8259 19.8658 53.8574 20.0069C53.8732 20.0853 53.8889 20.1637 53.9046 20.2421C53.9046 20.2735 53.9046 20.3048 53.9046 20.3362C53.9046 20.3989 53.9046 20.3989 53.9046 20.3048C53.9046 20.3362 53.9046 20.3676 53.9046 20.3832C53.9518 20.8223 53.9833 21.2456 54.0148 21.6847C54.0778 22.7195 54.0778 23.7387 54.0305 24.7736C54.0305 25.0872 54.3138 25.3694 54.6286 25.3694C54.9591 25.3694 55.2109 25.1185 55.2267 24.7736C55.2739 23.7858 55.2739 22.7979 55.2267 21.8101C55.1952 21.3397 55.1637 20.8536 55.1165 20.3832C55.0693 20.0069 55.0221 19.6149 54.8804 19.2386C54.7388 18.8623 54.5499 18.486 54.2351 18.2194C53.8732 17.9058 53.4325 17.7334 52.9603 17.749C51.9688 17.749 51.1504 18.4233 50.3949 19.0034C49.545 19.662 48.7423 20.3676 47.9554 21.0888C47.735 21.2927 47.7193 21.716 47.9554 21.9199C48.1915 22.1394 48.5535 22.1394 48.7895 21.9199L48.7423 21.9355Z" fill="#231F20"/>
<path d="M29.683 18.8939C29.683 18.8939 29.7617 18.8311 29.8089 18.7998C29.8876 18.7371 29.7617 18.8311 29.8561 18.7684C29.9505 18.7057 30.045 18.6273 30.1394 18.5646C30.3283 18.4391 30.5171 18.3137 30.7217 18.2039C30.9263 18.0942 31.1152 18.0001 31.3041 17.9217C31.4142 17.8747 31.2569 17.9374 31.3513 17.906C31.3985 17.8903 31.4457 17.8747 31.4929 17.8433C31.6031 17.7963 31.7133 17.7649 31.8077 17.7335C32.2327 17.5924 32.6733 17.4983 33.114 17.42C33.2242 17.4043 33.0511 17.42 33.1612 17.42C33.2085 17.42 33.2714 17.42 33.3186 17.4043C33.4288 17.4043 33.539 17.3886 33.6649 17.3729C33.8852 17.3729 34.1056 17.3729 34.3259 17.3729C34.4518 17.3729 34.5935 17.3729 34.7194 17.3886C34.7823 17.3886 34.8453 17.3886 34.9082 17.4043C34.9397 17.4043 34.9555 17.4043 34.9869 17.4043C34.8925 17.4043 35.0814 17.4043 34.9869 17.4043C35.2388 17.4356 35.4906 17.4827 35.7267 17.5454C36.0257 17.6238 36.3877 17.4513 36.4506 17.1377C36.5136 16.8241 36.3562 16.4948 36.0414 16.4164C34.1056 15.9304 32.0281 16.1969 30.2653 17.122C29.7617 17.3886 29.3053 17.7022 28.8646 18.0628C28.6285 18.2667 28.6442 18.69 28.8646 18.8939C29.1164 19.129 29.4469 19.0977 29.6987 18.8939H29.683Z" fill="#231F20"/>
<path d="M36.4983 16.1808C36.6085 16.2278 36.7187 16.2905 36.8131 16.3689L36.6872 16.2749C36.7816 16.3533 36.876 16.4317 36.939 16.5414L36.8446 16.416C36.9233 16.5101 36.9862 16.6355 37.0334 16.7453L36.9705 16.6041C37.0177 16.7139 37.0492 16.8393 37.0649 16.9491V16.7923C37.0649 16.7923 37.0649 16.8393 37.0649 16.855C37.0649 16.9334 37.0649 17.0118 37.1121 17.0745C37.1436 17.1529 37.1751 17.2156 37.238 17.2627C37.2852 17.3254 37.3482 17.3568 37.4269 17.3881C37.4899 17.4195 37.5685 17.4352 37.6472 17.4352H37.8046C37.8991 17.3881 37.9935 17.3411 38.0722 17.2627L38.1666 17.1373C38.2138 17.0432 38.2453 16.9491 38.2453 16.8393C38.2453 16.6825 38.2138 16.5414 38.1666 16.3846C38.1351 16.2905 38.1037 16.1965 38.0564 16.1024C38.0407 16.0553 38.0092 16.0083 37.9935 15.9613C37.9148 15.8358 37.8204 15.7104 37.7259 15.6006C37.6315 15.4909 37.5056 15.3968 37.3954 15.3027C37.301 15.2243 37.2066 15.1773 37.0964 15.1302C37.0334 15.0832 36.9547 15.0675 36.876 15.0675C36.7973 15.0518 36.7187 15.0675 36.64 15.0675C36.5613 15.0832 36.4983 15.1146 36.4354 15.1773C36.3724 15.2243 36.3252 15.2714 36.278 15.3498L36.215 15.4909C36.1835 15.6006 36.1835 15.6947 36.215 15.8045L36.278 15.9456C36.3252 16.0397 36.4039 16.1024 36.4826 16.1494L36.4983 16.1808Z" fill="#231F20"/>
<path d="M39.9604 17.4186C41.1723 17.2931 42.3841 17.2618 43.596 17.3872C44.1311 17.4499 44.7135 17.544 45.2801 17.7008C45.8467 17.8576 46.366 18.0301 46.8539 18.2809C47.452 18.5789 47.9714 18.9238 48.4436 19.3315C48.6796 19.551 49.0416 19.5667 49.2777 19.3315C49.498 19.112 49.5138 18.72 49.2777 18.5005C47.3418 16.7443 44.6348 16.1485 42.0851 16.1328C41.3769 16.1328 40.6686 16.1642 39.9604 16.2426C39.6456 16.2739 39.3623 16.4934 39.3623 16.8384C39.3623 17.1363 39.6299 17.4656 39.9604 17.4342V17.4186Z" fill="#231F20"/>
<path d="M21.861 22.6096C19.7048 23.5504 18.0522 25.5104 17.3754 27.7369C17.1866 28.3641 17.0764 29.0383 17.0449 29.6969C17.0449 30.0105 17.3282 30.2927 17.643 30.2927C17.9735 30.2927 18.2253 30.0418 18.2411 29.6969C18.2411 29.5714 18.2411 29.446 18.2725 29.3049C18.2725 29.2422 18.2725 29.1794 18.2883 29.1167C18.2725 29.2578 18.2883 29.0226 18.304 28.9913C18.3512 28.7404 18.3985 28.4895 18.4771 28.2387C18.5558 27.9721 18.6345 27.7212 18.7447 27.4703C18.7447 27.439 18.7762 27.4076 18.7762 27.3763C18.729 27.486 18.7762 27.3919 18.7762 27.3763C18.8077 27.3135 18.8234 27.2665 18.8549 27.2038C18.9021 27.094 18.965 26.9686 19.028 26.8588C19.1539 26.6236 19.2956 26.3884 19.4529 26.1532C19.5316 26.0435 19.5946 25.9337 19.6733 25.8396C19.689 25.8083 19.7048 25.7926 19.7362 25.7612C19.6576 25.8553 19.7362 25.7769 19.7362 25.7612C19.7835 25.6985 19.8307 25.6515 19.8779 25.5888C20.2241 25.1811 20.6019 24.8205 21.0268 24.4755C20.9481 24.5382 21.0898 24.4128 21.0268 24.4755C21.0583 24.4441 21.0898 24.4285 21.1213 24.3971C21.1842 24.3501 21.2472 24.303 21.3259 24.256C21.4518 24.1776 21.5619 24.0992 21.6878 24.0208C21.9554 23.864 22.223 23.7229 22.5063 23.5974C22.7896 23.472 22.884 23.033 22.7109 22.7978C22.522 22.4998 22.2072 22.4528 21.9082 22.5939L21.861 22.6096Z" fill="#231F20"/>
<path d="M18.3197 29.9324C16.3681 31.6415 15.5969 34.4795 16.195 36.9726C16.3681 37.6782 16.6514 38.3524 17.0449 38.9639C17.218 39.2305 17.5643 39.3403 17.8476 39.1678C18.1151 39.011 18.2253 38.6347 18.0522 38.3681C17.8948 38.1329 17.7531 37.882 17.643 37.6155C17.6272 37.5841 17.6115 37.5528 17.5958 37.5057C17.5958 37.5214 17.6272 37.5998 17.5958 37.49C17.5643 37.4273 17.5485 37.3646 17.5171 37.3019C17.4698 37.1608 17.4226 37.0353 17.3911 36.8942C17.3597 36.7531 17.3125 36.612 17.281 36.4865C17.281 36.4238 17.2495 36.3611 17.2495 36.2984C17.2495 36.267 17.2495 36.22 17.2338 36.1886C17.2338 36.1886 17.2023 36.0318 17.2338 36.0945C17.2338 36.1573 17.2338 36.0632 17.2338 36.0632C17.2338 36.0318 17.2338 35.9848 17.2338 35.9534C17.2338 35.8907 17.2338 35.828 17.218 35.7496C17.218 35.5928 17.2023 35.4517 17.2023 35.2949C17.2023 35.0126 17.218 34.7304 17.2495 34.4325C17.2495 34.3384 17.2495 34.5109 17.2495 34.4325C17.2495 34.4011 17.2495 34.3698 17.2495 34.3541C17.2495 34.2757 17.281 34.1973 17.2967 34.1346C17.3282 33.9934 17.3597 33.8523 17.3911 33.7112C17.4698 33.429 17.5485 33.1624 17.6587 32.8959C17.6587 32.8959 17.7059 32.7704 17.6902 32.8331C17.6744 32.8802 17.6902 32.8018 17.6902 32.8018C17.7217 32.7391 17.7531 32.6607 17.7846 32.5979C17.8476 32.4568 17.9263 32.3314 18.005 32.1903C18.0837 32.0491 18.1623 31.9237 18.241 31.7983C18.2883 31.7355 18.3355 31.6571 18.3827 31.5944C18.3984 31.5787 18.4142 31.5474 18.4299 31.5317C18.3669 31.6101 18.4456 31.5004 18.4614 31.5004C18.666 31.2495 18.9021 30.9986 19.1539 30.7791C19.4057 30.5596 19.3742 30.1676 19.1539 29.9481C18.9178 29.7129 18.5558 29.7442 18.3197 29.9481V29.9324Z" fill="#231F20"/>
<path d="M18.587 40.6262C18.587 40.6262 18.6499 40.5321 18.6814 40.4851L18.587 40.6105C18.65 40.5321 18.7286 40.4537 18.8073 40.391L18.6814 40.4851C18.7601 40.4224 18.8546 40.3597 18.949 40.3283L18.8073 40.391C18.8073 40.391 18.949 40.344 19.0277 40.3283C19.1064 40.3126 19.1693 40.2813 19.2323 40.2185C19.2952 40.1715 19.3425 40.1245 19.3897 40.0461C19.4369 39.9833 19.4526 39.9049 19.4526 39.8265C19.4684 39.7481 19.4526 39.6698 19.4526 39.5914L19.3897 39.4502C19.3425 39.3562 19.2638 39.2934 19.1851 39.2464L19.0434 39.1837C18.9332 39.1523 18.8388 39.1523 18.7286 39.1837C18.6657 39.1837 18.6027 39.215 18.5398 39.2464C18.4296 39.2934 18.3194 39.3405 18.225 39.3875C18.1306 39.4346 18.0361 39.513 17.9417 39.5914C17.8945 39.6384 17.8473 39.6854 17.8001 39.7325C17.7214 39.8265 17.6427 39.9206 17.5797 40.0304C17.5325 40.0931 17.5168 40.1715 17.5168 40.2499C17.501 40.3283 17.5168 40.4067 17.5168 40.4851C17.5325 40.5635 17.564 40.6262 17.6269 40.6889C17.6741 40.7517 17.7214 40.7987 17.8001 40.8457L17.9417 40.9085C18.0519 40.9398 18.1463 40.9398 18.2565 40.9085L18.3981 40.8457C18.4926 40.7987 18.5555 40.7203 18.6027 40.6419L18.587 40.6262Z" fill="#231F20"/>
<path d="M19.4527 41.0953C19.2795 41.3148 19.1379 41.5657 19.0277 41.8166C18.9018 42.1145 18.7916 42.4281 18.7287 42.7417C18.6972 42.8201 18.6972 42.8985 18.7287 42.9769C18.7287 43.0553 18.7602 43.1337 18.7916 43.1964C18.8231 43.2591 18.8861 43.3218 18.949 43.3689C19.012 43.4159 19.0749 43.4629 19.1536 43.4786C19.311 43.51 19.4684 43.51 19.6101 43.4159C19.736 43.3375 19.8461 43.2121 19.8776 43.071C19.9248 42.8201 20.0035 42.5692 20.098 42.334L20.035 42.4751C20.1452 42.1929 20.3026 41.942 20.4757 41.7068C20.5229 41.6441 20.5386 41.5657 20.5386 41.4873C20.5544 41.4089 20.5386 41.3305 20.5386 41.2521C20.5229 41.1737 20.4914 41.111 20.4285 41.0483C20.3813 40.9855 20.334 40.9385 20.2553 40.8915C20.1137 40.8131 19.9563 40.7817 19.7989 40.8287L19.6573 40.8915C19.5628 40.9385 19.4999 41.0169 19.4527 41.0953Z" fill="#231F20"/>
<path d="M20.3653 42.8987C20.3024 44.2942 20.7273 45.721 21.5458 46.8657C22.3642 48.0103 23.6075 48.9197 25.024 49.3274C25.7795 49.5469 26.5979 49.641 27.3848 49.5626C27.6839 49.5312 27.9829 49.3117 27.9829 48.9668C27.9829 48.6688 27.7153 48.3552 27.3848 48.3709C27.0543 48.3866 26.7553 48.4023 26.4248 48.3709C26.3461 48.3709 26.2674 48.3709 26.1887 48.3552C26.0785 48.3552 26.1729 48.3552 26.1887 48.3552C26.1415 48.3552 26.11 48.3552 26.0628 48.3396C25.9054 48.3082 25.748 48.2769 25.5749 48.2455C25.4175 48.2141 25.2758 48.1671 25.1342 48.1201C25.0712 48.1044 25.0083 48.073 24.9453 48.0573C24.8981 48.0573 24.8666 48.026 24.8194 48.0103C24.7879 48.0103 24.7722 47.9946 24.7407 47.9789C24.7879 47.9946 24.8037 48.0103 24.7565 47.9789C24.4732 47.8535 24.1899 47.6967 23.9066 47.5242C23.7807 47.4458 23.6705 47.3674 23.5446 47.2733C23.4659 47.2106 23.6547 47.3674 23.5288 47.2577C23.4974 47.242 23.4816 47.2106 23.4501 47.1949C23.3872 47.1322 23.3242 47.0852 23.2613 47.0225C23.1511 46.9127 23.0409 46.8029 22.9308 46.6932C22.8835 46.6305 22.8206 46.5834 22.7734 46.5207C22.7576 46.4894 22.7262 46.4737 22.7104 46.4423C22.7104 46.4423 22.6002 46.3012 22.6475 46.3639C22.6947 46.4266 22.6002 46.3012 22.6002 46.3012C22.5845 46.2698 22.553 46.2385 22.5373 46.2228C22.4901 46.1601 22.4429 46.0974 22.4114 46.0346C22.317 45.8935 22.2383 45.7524 22.1596 45.6113C22.0809 45.4702 22.0179 45.3447 21.955 45.2036C21.9077 45.0938 21.955 45.1879 21.955 45.2036C21.955 45.1722 21.9235 45.1409 21.9235 45.1095C21.892 45.0311 21.8605 44.9527 21.829 44.8743C21.7189 44.5294 21.6244 44.1844 21.5772 43.8395C21.5615 43.7297 21.5772 43.8238 21.5772 43.8395C21.5772 43.7924 21.5772 43.7454 21.5615 43.6827C21.5615 43.6043 21.5615 43.5102 21.5458 43.4318C21.5458 43.2436 21.5458 43.0555 21.5458 42.8673C21.5458 42.5537 21.2625 42.2715 20.9477 42.2715C20.6172 42.2715 20.3653 42.5224 20.3496 42.8673L20.3653 42.8987Z" fill="#231F20"/>
<path d="M28.5652 49.3904C29.2734 50.3939 30.3122 51.1465 31.5241 51.4287C32.4999 51.6482 33.5858 51.7737 34.5459 51.4444C34.7505 51.3817 34.9551 51.2876 35.1597 51.2092C35.2069 51.1935 35.2384 51.1779 35.2856 51.1622C35.3171 51.1465 35.38 51.1308 35.2227 51.1935C35.2541 51.1935 35.2699 51.1779 35.3014 51.1622C35.3958 51.1308 35.4745 51.0995 35.5689 51.0681C35.8522 50.9583 36.0883 50.6604 35.9781 50.3468C35.8837 50.0646 35.5689 49.8294 35.2541 49.9392C35.0653 50.0019 34.8921 50.0803 34.7033 50.1587C34.6718 50.1587 34.6403 50.19 34.6246 50.19C34.6088 50.19 34.4829 50.2527 34.5931 50.2057C34.7033 50.1587 34.5774 50.2057 34.5616 50.2057C34.5302 50.2057 34.4829 50.2371 34.4515 50.2527C34.3098 50.3155 34.1682 50.3625 34.0108 50.3939C33.9321 50.4095 33.8534 50.4252 33.7747 50.4409C33.5858 50.4409 33.7117 50.4409 33.7747 50.4409C33.7275 50.4409 33.6803 50.4409 33.633 50.4409C33.4127 50.4566 33.1924 50.4566 32.972 50.4409C32.8461 50.4409 32.7202 50.4252 32.5943 50.4095C32.4841 50.3939 32.5628 50.4095 32.5943 50.4095C32.5628 50.4095 32.5156 50.4095 32.4841 50.4095C32.4054 50.4095 32.311 50.3782 32.2323 50.3625C31.949 50.3155 31.6814 50.2527 31.4139 50.1587C31.3509 50.143 31.288 50.1116 31.2408 50.0959C31.1463 50.0489 31.2093 50.0959 31.2408 50.0959C31.2093 50.0959 31.1778 50.0646 31.1463 50.0489C31.0204 49.9862 30.9102 49.9235 30.7843 49.8608C30.6584 49.7824 30.5325 49.704 30.4066 49.6099C30.3279 49.5472 30.3909 49.6099 30.4066 49.6099C30.3751 49.5785 30.3436 49.5628 30.3122 49.5315C30.265 49.4844 30.202 49.4374 30.1548 49.3904C30.0446 49.2963 29.9502 49.1865 29.8557 49.0768C29.8085 49.014 29.7456 48.9513 29.6984 48.8886C29.6984 48.9043 29.7613 48.9827 29.6984 48.8886C29.6669 48.8416 29.6354 48.8102 29.6197 48.7632C29.4465 48.5123 29.1003 48.3712 28.817 48.5593C28.5652 48.7161 28.4235 49.0924 28.6124 49.359L28.5652 49.3904Z" fill="#231F20"/>
<path d="M55.7309 23.2828C55.8725 23.3612 56.0299 23.4553 56.1558 23.5494C56.2188 23.5964 56.2975 23.6435 56.3604 23.6905C56.3762 23.6905 56.3919 23.7219 56.4076 23.7219C56.4076 23.7219 56.2975 23.6278 56.3604 23.6905C56.3919 23.7219 56.4234 23.7375 56.4548 23.7689C56.7224 23.9884 56.9742 24.2236 57.2103 24.4902C57.2575 24.5529 57.3205 24.6156 57.3677 24.6783C57.3992 24.7097 57.4149 24.7411 57.4464 24.7724C57.4464 24.7881 57.4779 24.8038 57.4936 24.8194C57.5566 24.8978 57.4306 24.7254 57.4621 24.7881C57.5566 24.9292 57.6667 25.0546 57.7612 25.2114C57.95 25.4937 58.1074 25.7916 58.2491 26.1052C58.2648 26.1522 58.2805 26.1993 58.312 26.2306C58.2333 26.0582 58.312 26.215 58.312 26.2463C58.3435 26.3404 58.375 26.4188 58.4065 26.5129C58.4694 26.701 58.5324 26.8892 58.5796 27.0773C58.6583 27.3753 59.0045 27.5791 59.3036 27.485C59.6026 27.3909 59.7915 27.0773 59.7128 26.7637C59.3508 25.3212 58.5324 23.9727 57.3834 23.0163C57.0529 22.734 56.6909 22.4675 56.2975 22.248C56.0299 22.0912 55.6364 22.1852 55.4948 22.4518C55.3531 22.7184 55.4161 23.0947 55.6994 23.2515L55.7309 23.2828Z" fill="#231F20"/>
<path d="M58.5798 28.8034C58.5798 28.8034 58.6742 28.8661 58.7215 28.9132C58.7372 28.9289 58.8001 28.9759 58.7215 28.9132C58.7372 28.9132 58.7529 28.9445 58.7687 28.9602C58.8631 29.0386 58.9575 29.117 59.0362 29.1954C59.2094 29.3522 59.3667 29.5404 59.5084 29.7128C59.414 29.6031 59.5241 29.7442 59.5556 29.7756C59.5871 29.8226 59.6186 29.8696 59.6658 29.9324C59.7287 30.0264 59.7917 30.1362 59.8546 30.246C59.9019 30.34 59.9648 30.4341 60.012 30.5282C60.0435 30.5752 60.0592 30.638 60.0907 30.685C60.0907 30.7163 60.1222 30.7477 60.1222 30.7634C60.0907 30.7007 60.1065 30.7164 60.1222 30.7634C60.2166 30.9829 60.2796 31.2024 60.3425 31.4376C60.374 31.5474 60.3898 31.6571 60.4212 31.7669C60.4212 31.8139 60.437 31.8767 60.4527 31.9237C60.4527 31.9551 60.4527 31.9864 60.4527 32.0178C60.4527 31.9394 60.4685 32.1275 60.4527 32.0178C60.4842 32.253 60.4999 32.4882 60.4999 32.7234C60.4999 32.8331 60.4999 32.9429 60.4999 33.0683C60.4999 33.1154 60.4999 33.1781 60.4999 33.2251C60.4999 33.2565 60.4999 33.2878 60.4999 33.3192C60.4999 33.2408 60.4999 33.4603 60.4999 33.3192C60.4527 33.5858 60.4055 33.8366 60.3268 34.0875C60.2796 34.2129 60.2324 34.3384 60.1852 34.4638C60.2324 34.3384 60.1852 34.4795 60.1537 34.5265C60.1222 34.5893 60.0907 34.6677 60.0435 34.7304C59.9019 34.9969 59.9648 35.3889 60.2481 35.53C60.5157 35.6712 60.9091 35.6084 61.0508 35.3262C62.0738 33.3976 61.8535 30.8888 60.5629 29.1327C60.1694 28.5996 59.7287 28.1605 59.1779 27.7842C58.9261 27.6117 58.5168 27.7215 58.3752 27.9881C58.2178 28.286 58.3122 28.5996 58.5798 28.7877V28.8034Z" fill="#231F20"/>
<path d="M60.3738 37.348C60.3738 37.348 60.3738 37.348 60.3895 37.348H60.2321C60.421 37.348 60.6099 37.348 60.783 37.3637H60.6256C60.7987 37.3637 60.9719 37.4107 61.145 37.4735C61.2237 37.5048 61.3024 37.5048 61.3811 37.4735C61.4598 37.4735 61.5384 37.4421 61.6014 37.4107C61.6644 37.3794 61.7273 37.3167 61.7745 37.2539C61.8217 37.1912 61.869 37.1285 61.8847 37.0501V36.8933C61.9004 36.7836 61.8847 36.6895 61.8217 36.5954L61.7273 36.47C61.7273 36.47 61.5699 36.3445 61.4598 36.3132C61.3653 36.2818 61.2866 36.2504 61.1922 36.2191C61.0505 36.1877 60.9089 36.172 60.7673 36.1407C60.6728 36.1407 60.5784 36.125 60.484 36.125C60.3423 36.125 60.2007 36.1407 60.0433 36.172C59.9646 36.1877 59.9016 36.2191 59.8387 36.2818C59.7757 36.3288 59.7285 36.3759 59.6813 36.4543C59.6341 36.517 59.6183 36.5954 59.6183 36.6738C59.6026 36.7522 59.6183 36.8306 59.6183 36.909L59.6813 37.0501C59.7285 37.1442 59.8072 37.2069 59.8859 37.2539L60.0275 37.3167C60.1377 37.348 60.2321 37.348 60.3423 37.3167L60.3738 37.348Z" fill="#231F20"/>
<path d="M59.4447 39.0566C59.9641 39.7152 59.6651 40.7657 59.2559 41.44C58.7365 42.3024 57.9653 42.9609 57.0524 43.3686C56.7691 43.494 56.6904 43.9174 56.8478 44.1682C57.6033 45.4226 56.3757 46.7711 55.3841 47.4296C54.188 48.2136 52.7558 48.5272 51.3393 48.3391C51.0245 48.292 50.7412 48.637 50.7412 48.9349C50.7412 49.2799 51.0088 49.4837 51.3393 49.5307C53.0391 49.7503 54.8648 49.2955 56.2498 48.2764C56.958 47.7589 57.619 47.1161 57.9653 46.3007C58.343 45.4383 58.3745 44.4348 57.8709 43.6038L57.6663 44.4034C59.791 43.447 62.0416 40.4678 60.2946 38.2413C60.1058 37.9904 59.6651 38.0374 59.4605 38.2413C59.2086 38.4922 59.2716 38.8214 59.4605 39.0723L59.4447 39.0566Z" fill="#231F20"/>
<path d="M42.4626 50.7546C44.3198 51.9776 46.8222 51.9933 48.7738 50.9898C49.3247 50.7076 49.8283 50.3313 50.2533 49.8922C50.4736 49.6727 50.4894 49.2807 50.2533 49.0612C50.0172 48.8417 49.6552 48.826 49.4191 49.0612C49.3404 49.1396 49.2618 49.218 49.1673 49.2964C49.1201 49.3277 49.0886 49.3748 49.0414 49.4061C49.0257 49.4218 48.8525 49.5629 48.947 49.4845C48.7581 49.6257 48.5535 49.7511 48.3489 49.8765C48.2545 49.9393 48.1443 49.9863 48.0499 50.0333C48.0027 50.0647 47.9397 50.0804 47.8925 50.1117C47.861 50.1117 47.8295 50.1431 47.798 50.1588C47.8453 50.1431 47.861 50.1274 47.798 50.1588C47.562 50.2529 47.3416 50.3313 47.0898 50.394C46.9796 50.4253 46.8695 50.441 46.7593 50.4724C46.6963 50.4724 46.6491 50.4881 46.5862 50.5037C46.5547 50.5037 46.5389 50.5037 46.5075 50.5037C46.3501 50.5351 46.5862 50.5037 46.5075 50.5037C46.2714 50.5351 46.0353 50.5508 45.7992 50.5508C45.5631 50.5508 45.3113 50.5351 45.0595 50.5037C45.1854 50.5037 45.0595 50.5037 44.9966 50.5037C44.9336 50.5037 44.8864 50.4881 44.8234 50.4724C44.6975 50.441 44.5873 50.4253 44.4614 50.394C44.3198 50.3626 44.1939 50.3156 44.068 50.2685C44.005 50.2529 43.9421 50.2215 43.8791 50.2058C43.8634 50.2058 43.8319 50.1901 43.8161 50.1745C43.7532 50.1431 43.8948 50.2215 43.8004 50.1745C43.5486 50.049 43.2968 49.9236 43.0607 49.7668C42.8089 49.5943 42.3997 49.7041 42.258 49.9706C42.1006 50.2685 42.1951 50.5978 42.4626 50.7703V50.7546Z" fill="#231F20"/>
<path d="M25.3075 25.8552C25.6538 25.4318 26.0472 25.0555 26.4565 24.6949C26.5509 24.6165 26.6453 24.5381 26.7555 24.444C26.8027 24.3969 26.8657 24.3656 26.9129 24.3186C26.9444 24.2872 26.9916 24.2558 27.023 24.2245C27.2277 24.0677 27.448 23.9266 27.6841 23.7854C28.1405 23.5032 28.6284 23.2366 29.132 23.0171C29.1635 23.0171 29.1793 23.0014 29.2107 22.9858C29.132 23.0171 29.2107 22.9858 29.2265 22.9858C29.2737 22.9701 29.3366 22.9387 29.3839 22.923C29.5255 22.876 29.6514 22.8133 29.7931 22.7663C30.0449 22.6722 30.3124 22.5938 30.58 22.5311C30.879 22.4527 31.1623 22.3899 31.4614 22.3429C31.5401 22.3429 31.6188 22.3115 31.6975 22.3115C31.7289 22.3115 31.7604 22.3115 31.7919 22.3115C31.8863 22.3115 31.7132 22.3115 31.8076 22.3115C31.965 22.2959 32.1381 22.2802 32.2955 22.2645C32.6103 22.2331 32.8936 22.0136 32.8936 21.6687C32.8936 21.3707 32.626 21.0572 32.2955 21.0728C29.919 21.261 27.6683 22.1704 25.8426 23.6757C25.339 24.0834 24.8826 24.5381 24.4734 25.0241C24.2688 25.2593 24.2216 25.6357 24.4734 25.8552C24.6937 26.059 25.1029 26.106 25.3075 25.8552Z" fill="#231F20"/>
<path d="M46.1305 22.1865C46.225 22.1865 46.3037 22.1865 46.3981 22.2022C46.4453 22.2022 46.4768 22.2022 46.524 22.2022C46.5397 22.2022 46.6342 22.2022 46.5397 22.2022C46.4453 22.2022 46.5397 22.2022 46.5555 22.2022C46.7286 22.2335 46.9175 22.2649 47.0906 22.2963C47.4526 22.3747 47.7988 22.4844 48.1293 22.6099C48.1608 22.6099 48.208 22.6412 48.2395 22.6569C48.2553 22.6569 48.271 22.6569 48.3025 22.6726C48.3654 22.7039 48.2553 22.6569 48.2553 22.6569C48.3497 22.6883 48.4284 22.7353 48.5071 22.7667C48.6645 22.8451 48.8376 22.9235 48.995 23.0175C49.1524 23.1116 49.3098 23.2057 49.4671 23.2998C49.5458 23.3468 49.6088 23.3939 49.6875 23.4409C49.719 23.4566 49.7504 23.4879 49.7819 23.5193C49.7977 23.535 49.8291 23.5507 49.8449 23.5663C49.8449 23.5663 49.9393 23.629 49.8606 23.5663C49.8763 23.582 49.9078 23.5977 49.9236 23.6134C49.9708 23.6447 50.0023 23.6761 50.0495 23.7231C50.1282 23.7858 50.2069 23.8486 50.2698 23.927C50.4272 24.0681 50.5689 24.2092 50.7105 24.366C50.9151 24.5855 51.34 24.6012 51.5447 24.366C51.765 24.1308 51.765 23.7702 51.5447 23.535C50.4744 22.3747 49.0422 21.5436 47.4998 21.183C47.0434 21.0732 46.5712 21.0105 46.0991 20.9635C45.7843 20.9478 45.501 21.2457 45.501 21.5593C45.501 21.9043 45.7528 22.1238 46.0991 22.1551L46.1305 22.1865Z" fill="#231F20"/>
<path d="M35.7267 35.639C34.6092 35.6703 33.4918 36.1407 32.7363 36.9561C31.9809 37.7714 31.6189 38.9474 32.0123 40.0293C32.4058 41.1112 33.3816 42.005 34.5305 42.2088C35.7424 42.4283 37.0173 42.005 37.8986 41.1582C38.9216 40.1861 39.3623 38.6965 39.2049 37.3167C39.1735 37.1129 39.0476 36.9247 38.8115 36.9247C38.6226 36.9247 38.3865 37.0972 38.418 37.3167C38.5439 38.3516 38.3078 39.4335 37.6625 40.2645C37.0487 41.0328 36.0729 41.5032 35.1129 41.4875C34.1528 41.4718 33.3501 40.923 32.9094 40.1077C32.7048 39.7157 32.6104 39.2767 32.6576 38.822C32.6576 38.8533 32.6576 38.7436 32.6734 38.7279C32.6734 38.6808 32.6891 38.6338 32.7048 38.5711C32.7363 38.4613 32.7678 38.3516 32.815 38.2418C32.815 38.2104 32.9094 38.0536 32.9567 37.9752C33.0196 37.8812 33.0826 37.7714 33.1455 37.6773C33.7436 36.909 34.7666 36.4386 35.7424 36.4073C36.2461 36.4073 36.2461 35.6076 35.7424 35.6233L35.7267 35.639Z" fill="#231F20"/>
<path d="M41.6133 36.611C41.7235 36.611 41.8494 36.611 41.9596 36.611C42.0225 36.611 42.0855 36.611 42.1484 36.611C42.1799 36.611 42.2271 36.611 42.2586 36.6267C42.4947 36.6737 42.715 36.7364 42.9354 36.8148C42.9354 36.8148 43.0298 36.8462 42.9668 36.8148C42.9826 36.8148 43.0141 36.8305 43.0298 36.8462C43.077 36.8775 43.14 36.8932 43.1872 36.9246C43.2974 36.9873 43.3918 37.05 43.502 37.1127C43.5492 37.1441 43.6121 37.1911 43.6593 37.2225C43.6121 37.1911 43.7066 37.2695 43.7223 37.2852C43.8167 37.3636 43.9112 37.4577 43.9899 37.5518C44.0213 37.5988 44.0686 37.6302 44.1 37.6772C44.1 37.6772 44.1472 37.7399 44.1315 37.7086C44.1 37.6615 44.1787 37.7713 44.163 37.7556C44.2259 37.8497 44.2889 37.9594 44.3518 38.0535C44.3833 38.1006 44.3991 38.1476 44.4305 38.2103C44.4305 38.226 44.462 38.273 44.4305 38.2103C44.4305 38.2417 44.4463 38.2574 44.462 38.2887C44.4935 38.3985 44.525 38.5082 44.5565 38.6023C44.5565 38.665 44.5722 38.7121 44.5879 38.7748C44.5879 38.7905 44.5879 38.8532 44.5879 38.7748C44.5879 38.7905 44.5879 38.8218 44.5879 38.8375C44.5879 38.9473 44.5879 39.0727 44.5879 39.1825C44.5879 39.2295 44.5879 39.2922 44.5879 39.3393C44.5879 39.3549 44.5879 39.3863 44.5879 39.402C44.5879 39.4647 44.6037 39.3079 44.5879 39.4177C44.5722 39.5274 44.5407 39.6372 44.525 39.7469C44.4935 39.841 44.462 39.9508 44.4305 40.0449C44.3991 40.1076 44.4778 39.9665 44.4305 40.0605C44.4305 40.0762 44.4148 40.1076 44.3991 40.1233C44.3676 40.1703 44.3518 40.233 44.3204 40.2801C44.2732 40.3741 44.2102 40.4525 44.1472 40.5466C44.0843 40.6407 44.1787 40.5153 44.1472 40.5623C44.1315 40.578 44.1158 40.6093 44.0843 40.625C44.0528 40.672 44.0056 40.7034 43.9584 40.7504C43.9269 40.7818 43.8797 40.8288 43.8482 40.8602C43.8325 40.8602 43.8167 40.8916 43.801 40.9072C43.7538 40.9543 43.8797 40.8602 43.7853 40.9072C43.6908 40.9543 43.5964 41.0327 43.4862 41.0954C43.439 41.1268 43.3918 41.1424 43.3288 41.1738C43.2974 41.1738 43.2659 41.1895 43.2344 41.2052C43.1242 41.2365 43.0141 41.2679 42.8881 41.2992C42.8881 41.2992 42.778 41.3149 42.8252 41.2992C42.8724 41.2836 42.7622 41.2992 42.7622 41.2992C42.715 41.2992 42.6678 41.2992 42.6206 41.2992C42.4947 41.2992 42.3688 41.2992 42.2429 41.2992C42.2114 41.2992 42.1956 41.2992 42.1642 41.2992C42.1012 41.2992 42.0383 41.2836 41.9753 41.2679C41.8651 41.2365 41.7392 41.2052 41.629 41.1738C41.5976 41.1738 41.5661 41.1581 41.5346 41.1424C41.4874 41.1268 41.4244 41.0954 41.3772 41.064C41.2671 41.017 41.1726 40.9543 41.0625 40.8916C41.0152 40.8602 40.9523 40.8132 40.9051 40.7818C40.9523 40.8132 40.8579 40.7348 40.8421 40.7191C40.7477 40.6407 40.6532 40.5466 40.5746 40.4525C40.5588 40.4369 40.5431 40.4055 40.5273 40.3898C40.5273 40.3898 40.4486 40.2957 40.4959 40.3428C40.4486 40.2957 40.4172 40.233 40.3857 40.186C40.307 40.0605 40.2283 39.9351 40.1653 39.8097C40.1653 39.7783 40.1496 39.7626 40.1339 39.7313C40.1339 39.7313 40.0867 39.6215 40.1024 39.6842C40.0709 39.6215 40.0552 39.5588 40.0237 39.4961C39.9765 39.3549 39.9293 39.2138 39.8978 39.0727C39.8978 39.01 39.8663 38.9473 39.8663 38.8689C39.8663 38.8375 39.8663 38.8218 39.8663 38.7905C39.8663 38.6964 39.8663 38.8218 39.8663 38.7278C39.8663 38.5866 39.8348 38.4455 39.8348 38.3044C39.8348 38.1633 39.8348 38.0222 39.8506 37.881C39.8506 37.8497 39.8506 37.834 39.8506 37.8026C39.8506 37.7086 39.8506 37.834 39.8506 37.7399C39.8506 37.6458 39.882 37.5831 39.8978 37.5047C39.945 37.3009 39.8348 37.0814 39.6302 37.0187C39.4414 36.9716 39.1895 37.0814 39.1423 37.2852C38.9062 38.4142 39.0794 39.6685 39.7404 40.625C40.4014 41.5815 41.5031 42.146 42.6521 42.0989C43.2029 42.0676 43.7538 41.9108 44.1945 41.5815C44.6351 41.2522 44.9499 40.8445 45.1703 40.3428C45.5795 39.3706 45.5008 38.1946 44.887 37.3322C44.163 36.2974 42.8881 35.7016 41.629 35.7643C41.4244 35.7643 41.2356 35.9367 41.2356 36.1563C41.2356 36.3601 41.4087 36.5639 41.629 36.5483L41.6133 36.611Z" fill="#231F20"/>
<path d="M25.2603 30.1508C24.19 31.5933 23.23 33.2554 23.529 35.1213C23.6077 35.5916 23.7808 36.062 24.0484 36.454C24.1585 36.6265 24.3946 36.7049 24.5835 36.5952C24.7566 36.4854 24.8353 36.2345 24.7251 36.062C24.19 35.2624 24.1585 34.2589 24.3946 33.3494C24.6779 32.3146 25.3075 31.4051 25.937 30.5428C26.0629 30.3703 25.9685 30.1037 25.7954 30.0096C25.5908 29.8999 25.3862 29.9783 25.2603 30.1508Z" fill="#231F20"/>
<path d="M24.7729 35.1528C23.923 37.2068 24.4109 39.6372 25.7959 41.3463C26.1893 41.8323 26.6458 42.24 27.1809 42.5693C27.6058 42.8359 27.9993 42.1616 27.5743 41.8951C25.9375 40.8445 25.0404 38.8689 25.1663 36.9559C25.1978 36.4228 25.3237 35.874 25.5441 35.3723C25.6227 35.1841 25.4496 34.9489 25.2765 34.8862C25.0561 34.8235 24.8673 34.9646 24.7886 35.1528H24.7729Z" fill="#231F20"/>
<path d="M52.504 31.076C53.0548 31.954 53.6372 32.8478 53.8418 33.867C53.8418 33.9297 53.8575 33.9767 53.8732 34.0394C53.8732 33.9924 53.8732 34.1335 53.8732 34.1492C53.8732 34.259 53.889 34.3844 53.889 34.4942C53.889 34.745 53.889 34.9018 53.826 35.1057C53.7316 35.529 53.5742 35.8897 53.2909 36.1876C53.1493 36.3444 53.1335 36.5952 53.2909 36.7364C53.4483 36.8775 53.7001 36.8932 53.8418 36.7364C54.4084 36.1249 54.6759 35.3095 54.6759 34.4942C54.6759 33.6161 54.3769 32.7694 53.9677 32.0011C53.7316 31.5463 53.4483 31.123 53.1807 30.684C53.0706 30.5115 52.8345 30.4331 52.6456 30.5428C52.4725 30.6526 52.3938 30.9035 52.504 31.076Z" fill="#231F20"/>
<path d="M52.8823 36.095C52.8823 36.095 52.9295 36.1891 52.9453 36.2361C52.961 36.2831 52.961 36.2831 52.9453 36.2361C52.9453 36.2675 52.961 36.2831 52.9767 36.3145C53.0082 36.4086 53.0554 36.5027 53.0869 36.6124C53.1499 36.8163 53.1971 37.0044 53.2443 37.2083C53.2443 37.2553 53.26 37.3023 53.2758 37.3651C53.2758 37.3964 53.2758 37.4121 53.2758 37.4435C53.2758 37.3964 53.2758 37.4121 53.2758 37.4435C53.2758 37.5375 53.2915 37.6159 53.3073 37.71C53.3073 37.9138 53.3073 38.1177 53.3073 38.3215C53.2915 38.6978 53.2286 39.0271 53.1027 39.4348C53.0712 39.5289 53.0397 39.6386 53.0082 39.7327C52.9925 39.7797 52.9767 39.8268 52.9453 39.8738C52.9767 39.8111 52.9138 39.9522 52.9138 39.9522C52.8351 40.1404 52.7249 40.3285 52.6148 40.501C52.5046 40.6735 52.5675 40.94 52.7564 41.0341C52.9453 41.1282 53.1814 41.0812 53.2915 40.893C54.047 39.6857 54.2673 38.1961 53.9683 36.8163C53.8739 36.4243 53.7479 36.0479 53.5748 35.6873C53.4804 35.4992 53.1971 35.4364 53.0397 35.5462C52.8508 35.6716 52.8036 35.8912 52.8981 36.0793L52.8823 36.095Z" fill="#231F20"/>
</svg>
