<svg width="80" height="76" viewBox="0 0 80 76" fill="none" xmlns="http://www.w3.org/2000/svg">
<path d="M26.9448 46.2092C25.8903 49.1413 24.7414 52.2302 25.308 55.3505C25.5283 56.5422 26.1422 57.4986 27.3383 57.8436C27.8892 58.0004 28.503 58.1415 29.0381 57.9377C29.3371 57.8279 29.6676 57.6241 29.9509 57.7966C30.0768 57.875 30.1555 58.0004 30.25 58.1258C31.0212 59.0196 32.1386 58.4394 33.0042 58.5649C33.6967 58.6746 33.8384 58.8314 34.5624 58.7374C35.2077 58.659 35.4123 58.4081 36.1048 58.5649C36.7973 58.7217 37.1907 58.0945 37.8046 57.9377C38.4656 57.7652 38.6702 58.0318 39.1581 58.3767C39.7562 58.8001 40.5274 58.9725 41.2356 58.7687C41.3143 58.7374 41.4087 58.7217 41.4874 58.7217C41.5819 58.7217 41.6606 58.7844 41.755 58.8314C42.416 59.1764 43.2816 59.1137 43.8797 58.659C43.9741 58.5806 44.0686 58.5022 44.1945 58.4551C44.4935 58.361 44.5093 58.5649 44.8083 58.3297C45.0916 58.1102 45.5008 58.1415 45.8785 58.1415C47.5468 58.1729 49.6716 57.1851 50.2696 55.5387C50.5529 54.786 50.5529 53.9707 50.5215 53.1553C50.3326 48.6396 48.7115 44.5628 46.1461 40.8937C45.2018 39.561 44.2417 38.1968 42.9354 37.209C36.451 32.2698 29.4316 39.2317 27.3068 45.2214C27.1967 45.5506 27.0707 45.8799 26.9606 46.2092H26.9448Z" fill="#F8C04E"/>
<path d="M29.7312 50.521C29.322 52.0263 29.0544 53.5943 29.0072 55.1466C28.96 56.5107 29.2118 58.2041 30.5181 58.9725C31.2579 59.4115 32.1078 59.239 32.7058 58.6589L31.8717 57.8278C31.1162 58.7059 32.5012 59.2704 33.178 59.4428C33.8075 59.584 34.4843 59.5683 35.0352 59.192C35.5073 58.8627 35.8693 58.3609 35.9795 57.7965C36.0424 57.4829 35.885 57.1693 35.5703 57.0752C35.287 56.9968 34.9092 57.1693 34.8463 57.4829C34.8306 57.577 34.8148 57.6554 34.7833 57.7494C34.7519 57.8435 34.8148 57.6867 34.7833 57.7808C34.7676 57.8121 34.7519 57.8592 34.7204 57.8905C34.6889 57.9376 34.6732 57.9689 34.6417 58.016C34.6732 57.9689 34.6417 58.016 34.6259 58.0317C34.5787 58.0944 34.5158 58.1414 34.4528 58.2041C34.5158 58.1571 34.4213 58.2198 34.4056 58.2355C34.3741 58.2512 34.3427 58.2825 34.2954 58.2982C34.2325 58.3296 34.1853 58.3453 34.1066 58.3609C34.0121 58.3923 33.9807 58.3923 33.8705 58.3923C33.7918 58.3923 33.6816 58.3923 33.6344 58.3766C33.4141 58.3296 33.1937 58.2669 32.9734 58.1885C32.8475 58.1414 33.0521 58.2355 32.9419 58.1728C32.8947 58.1414 32.8317 58.1257 32.7845 58.0944C32.7216 58.063 32.6586 58.0003 32.753 58.0944C32.6901 58.0473 32.7373 58.0473 32.753 58.0944C32.8003 58.1414 32.816 58.1885 32.816 58.2512C32.8789 58.408 32.8475 58.5648 32.7058 58.7059C32.9104 58.4707 32.9419 58.1101 32.7058 57.8749C32.4697 57.6397 32.1077 57.6554 31.8717 57.8749C31.7772 57.9689 31.7458 58.0003 31.6041 58.063C31.5726 58.063 31.5569 58.0787 31.5254 58.0944C31.4939 58.1101 31.4782 58.0944 31.4467 58.1101C31.5097 58.1101 31.5097 58.1101 31.4467 58.1101C31.4152 58.1101 31.3995 58.1101 31.368 58.1101C31.2736 58.1101 31.4625 58.1257 31.368 58.1101C31.3208 58.1101 31.2736 58.0787 31.2106 58.0787C31.1477 58.063 31.2106 58.0787 31.2264 58.0787C31.1949 58.0787 31.1792 58.063 31.1477 58.0473C31.0847 58.016 31.0218 57.9689 30.9588 57.9376C30.9431 57.9219 30.9116 57.9062 30.8959 57.8749C30.8486 57.8435 30.8172 57.7965 30.77 57.7494C30.7542 57.7338 30.644 57.6083 30.6913 57.671C30.644 57.6083 30.6126 57.5613 30.5811 57.4986C30.4237 57.2477 30.3765 57.0909 30.2978 56.793C29.9988 55.664 30.1719 54.3156 30.3608 53.1396C30.4867 52.3869 30.644 51.6343 30.8487 50.8817C30.9273 50.5681 30.7385 50.2388 30.4394 50.1604C30.1404 50.082 29.7942 50.2702 29.7155 50.5681L29.7312 50.521Z" fill="#231F20"/>
<path d="M36.4201 50.3009C36.3099 51.4612 36.3099 52.6215 36.4516 53.7661C36.546 54.5501 36.7191 55.3184 36.8923 56.1024C36.971 56.4317 37.0182 56.7139 36.9867 57.0589C36.9867 57.1216 36.9867 57.0432 36.9867 57.0275C36.9867 57.0589 36.9867 57.0902 36.971 57.1216C36.971 57.1843 36.9395 57.2313 36.9237 57.2941C36.9237 57.3097 36.8765 57.4038 36.9237 57.3411C36.9552 57.2784 36.9237 57.3411 36.9237 57.3568C36.8923 57.4195 36.8608 57.4822 36.8136 57.5449C36.8136 57.5449 36.7506 57.639 36.7978 57.5763C36.845 57.5136 36.7506 57.6233 36.7506 57.6233C36.7034 57.6704 36.6562 57.7174 36.609 57.7488C36.7034 57.6704 36.5775 57.7644 36.5303 57.7958C36.4988 57.7958 36.4673 57.8272 36.4516 57.8428C36.3571 57.8899 36.4988 57.8428 36.4516 57.8428C36.4044 57.8428 36.3099 57.8742 36.247 57.9056C36.3571 57.8742 36.1998 57.9056 36.1525 57.9056C36.0738 57.9056 36.0109 57.9056 35.9322 57.9056C35.8692 57.9056 35.822 57.8742 35.7591 57.8585C35.0194 57.6547 34.7203 58.7836 35.4443 58.9875C36.1683 59.1913 36.8608 59.0815 37.4274 58.6268C37.931 58.2192 38.1986 57.5606 38.2143 56.9177C38.2458 56.071 37.9153 55.2243 37.7579 54.3933C37.632 53.6877 37.569 52.9351 37.5533 52.1981C37.5533 51.5709 37.5533 50.9437 37.632 50.3165C37.6635 50.0029 37.3329 49.7207 37.0339 49.7207C36.6877 49.7207 36.4673 49.9873 36.4358 50.3165L36.4201 50.3009Z" fill="#231F20"/>
<path d="M38.7809 50.5997C38.8596 51.368 38.9225 52.1363 38.8753 52.8889C38.8753 53.0301 38.8596 53.1712 38.8438 53.3123C38.8438 53.375 38.8438 53.4377 38.8281 53.5004C38.8281 53.4691 38.8438 53.3593 38.8281 53.5004C38.8281 53.5475 38.8281 53.5945 38.8124 53.6416C38.7652 53.9552 38.7022 54.2844 38.6392 54.598C38.4504 55.4918 38.0412 56.4169 38.1513 57.342C38.2458 58.126 38.6865 58.8629 39.4104 59.2393C40.2918 59.6783 41.5037 59.5999 42.0703 58.7061C42.2434 58.4396 42.1332 58.0633 41.8657 57.9065C41.5824 57.734 41.2361 57.8438 41.063 58.1103C41.0001 58.2044 41.0315 58.1574 41.0473 58.1417C41.0158 58.173 40.9843 58.2044 40.9528 58.2357C41.0158 58.173 40.7954 58.3141 40.8899 58.2671C40.8112 58.2985 40.7325 58.3141 40.6695 58.3298C40.5594 58.3612 40.6381 58.3298 40.6695 58.3298C40.6223 58.3298 40.5594 58.3298 40.5122 58.3298C40.4807 58.3298 40.2761 58.3298 40.402 58.3298C40.339 58.3298 40.2603 58.2985 40.1974 58.2828C40.1659 58.2828 39.977 58.2044 40.1029 58.2514C40.0243 58.2201 39.9456 58.173 39.8826 58.126C39.8511 58.1103 39.8196 58.0946 39.8039 58.0633C39.8196 58.0633 39.8826 58.1417 39.8039 58.0633C39.7567 58.0162 39.7095 57.9692 39.6623 57.9221C39.6465 57.8908 39.615 57.8751 39.5993 57.8438C39.615 57.8594 39.6465 57.9222 39.5993 57.8438C39.5521 57.781 39.5206 57.7026 39.4891 57.6399C39.4891 57.6086 39.4419 57.5145 39.4891 57.6086C39.4891 57.5772 39.4577 57.5458 39.4577 57.5145C39.4419 57.4518 39.4262 57.3734 39.4104 57.295C39.4104 57.1852 39.4104 57.2793 39.4104 57.295C39.4104 57.2636 39.4104 57.2166 39.4104 57.1852C39.4104 57.0754 39.4104 56.9657 39.4104 56.8559C39.4419 56.4953 39.5678 56.1033 39.678 55.7427C39.7882 55.382 39.8511 55.0214 39.9298 54.6451C40.04 54.0649 40.1344 53.5005 40.1816 52.9046C40.2289 52.1363 40.1659 51.368 40.0872 50.6154C40.0557 50.3018 39.8354 50.0195 39.4891 50.0195C39.1901 50.0195 38.8753 50.2861 38.8911 50.6154L38.7809 50.5997Z" fill="#231F20"/>
<path d="M45.0441 50.8654C45.3117 51.5083 45.4533 52.2453 45.532 52.9352C45.6422 53.7192 45.7209 54.5032 45.7209 55.2871C45.7209 55.9771 45.595 56.6827 45.2487 57.2314C45.2172 57.2785 45.1858 57.3412 45.1385 57.3882C45.0913 57.451 45.0913 57.451 45.1071 57.4196C45.0756 57.451 45.0599 57.4823 45.0284 57.5137C44.9654 57.5764 44.9182 57.6234 44.8552 57.6862C44.808 57.7332 44.7923 57.7332 44.8395 57.7018C44.808 57.7175 44.7766 57.7489 44.7451 57.7646C44.6979 57.7959 44.6506 57.8273 44.6034 57.843C44.5405 57.8743 44.5405 57.8743 44.6034 57.843C44.5719 57.843 44.5405 57.8586 44.4933 57.8743C44.4618 57.8743 44.4303 57.89 44.3831 57.9057C44.446 57.9057 44.446 57.9057 44.3831 57.9057C44.3516 57.9057 44.147 57.89 44.2729 57.9057C44.084 57.8743 43.8322 57.89 43.7063 58.0625C43.5804 58.2349 43.5175 58.2663 43.3443 58.3761C43.3443 58.3761 43.2184 58.4388 43.2971 58.4074C43.2656 58.4074 43.2184 58.4388 43.1869 58.4545C43.1397 58.4545 43.0925 58.4858 43.0296 58.5015C43.0296 58.5015 42.8879 58.5329 42.9666 58.5015C42.8722 58.5015 42.7777 58.5015 42.6833 58.5015C42.6676 58.5015 42.5417 58.5015 42.6203 58.5015C42.5731 58.5015 42.5417 58.5015 42.4944 58.4858C42.2741 58.4388 42.1167 58.3447 41.8964 58.2506L42.1639 58.9092L42.1954 58.7681C42.2584 58.4545 42.101 58.1252 41.7862 58.0468C41.4872 57.9684 41.1252 58.1409 41.0622 58.4545L41.0307 58.5956C40.9678 58.8308 41.0622 59.1444 41.2983 59.2541C41.8334 59.5207 42.3843 59.7402 42.9981 59.6618C43.5804 59.5834 44.147 59.3482 44.5247 58.8935L43.9581 59.0503C45.3274 59.2855 46.3347 58.0938 46.6809 56.8865C47.0901 55.491 46.8698 53.97 46.6809 52.5745C46.5708 51.7749 46.3976 51.0066 46.0671 50.2539C45.9412 49.956 45.5163 49.8933 45.2645 50.0501C44.9654 50.2226 44.9339 50.5675 45.0598 50.8498L45.0441 50.8654Z" fill="#231F20"/>
<path d="M31.7767 36.8175C28.8493 39.4047 26.9922 43.0267 25.8118 46.6958C25.3081 48.2795 24.9147 49.9102 24.6943 51.5565C24.5055 52.9207 24.3481 54.3475 24.6628 55.696C24.8517 56.5113 25.2609 57.2797 25.9219 57.8128C26.7718 58.5027 27.8578 58.6908 28.928 58.6595C29.6835 58.6438 29.6835 57.4678 28.928 57.4835C28.1726 57.4992 27.3069 57.4208 26.6774 56.919C26.1738 56.5113 25.9219 55.8998 25.7803 55.2726C25.5442 54.1437 25.6859 52.8893 25.8432 51.7604C26.2997 48.546 27.3069 45.3316 28.8651 42.4622C29.8409 40.6591 31.0685 38.997 32.6109 37.6329C33.1775 37.1311 32.3433 36.3001 31.7767 36.8018V36.8175Z" fill="#231F20"/>
<path d="M41.2362 37.4443C44.5256 39.6238 46.7133 43.1988 48.2399 46.7581C48.8065 48.0595 49.2787 49.3923 49.5777 50.7878C49.861 52.0422 50.0341 53.422 49.7666 54.6921C49.4675 56.1346 48.5862 57.0911 47.1382 57.4204C46.3985 57.5929 46.7133 58.7218 47.453 58.5493C48.9482 58.2044 50.1128 57.2636 50.6637 55.8367C51.2145 54.4099 51.1201 52.8732 50.8998 51.4307C50.6794 49.9881 50.2702 48.6554 49.7508 47.3383C48.9639 45.3313 48.0038 43.387 46.8077 41.5838C45.4699 39.5768 43.8488 37.7579 41.8343 36.4251C41.2047 36.0018 40.6066 37.021 41.2362 37.4443Z" fill="#231F20"/>
<path d="M24.6622 19.9617C24.316 20.1185 23.9382 20.2282 23.5448 20.3066C22.2542 20.5418 21.0266 21.1847 20.2082 22.1882C18.5871 24.1482 19.799 26.2493 19.1064 28.4131C18.8074 29.3382 18.0205 30.0124 17.5798 30.8748C17.1548 31.6745 17.0604 32.6467 17.2965 33.509C17.4067 33.901 17.5798 34.2617 17.627 34.6537C17.8631 36.7548 15.2032 37.9935 15.1875 39.9534C15.1875 40.7374 15.6124 41.5057 16.2892 41.9134C16.5725 42.0702 16.8715 42.18 17.1391 42.3681C17.4067 42.5563 17.627 42.8385 17.627 43.1521C17.627 43.3246 17.5326 43.4971 17.4854 43.6696C16.903 45.41 17.9733 47.4484 19.8934 47.3543C20.2869 47.3386 20.6961 47.3229 21.0895 47.3073C21.4043 47.3073 21.7663 47.3073 21.9394 47.5581C22.0811 47.7777 22.0339 48.1069 22.2227 48.2794C22.4273 48.4676 22.7578 48.3735 22.9939 48.2324C24.0012 47.6052 24.8826 48.2637 25.9685 48.201C27.1647 48.1226 28.2507 47.4013 28.7386 46.3038C29.2579 45.1121 28.8959 44.3124 30.4226 44.1556C32.2011 43.9675 34.2156 44.4065 36.0098 44.4379C37.8041 44.4692 39.7557 44.4222 41.6128 44.3124C43.5015 44.2027 45.4688 43.9988 47.1214 43.0737C47.2788 44.0302 46.9483 45.1591 47.389 46.0215C47.6565 46.5546 48.1129 46.978 48.6166 47.3073C49.073 47.6052 49.5924 47.8404 50.1275 47.9188C50.757 48.0129 51.4496 47.6836 52.0319 47.8247C52.6142 47.9658 52.866 48.5773 53.5271 48.5773C54.5816 48.5773 55.2583 47.2602 56.1397 46.8212C56.5804 46.6017 57.0998 46.5546 57.5719 46.4135C58.7051 46.0686 59.7596 44.971 60.0114 43.795C60.2632 42.619 58.9884 41.5214 59.4133 40.3298C59.6494 39.6869 60.3892 39.2635 60.4521 38.5736C60.4993 38.1659 60.279 37.7739 60.0744 37.429C59.5235 36.5039 58.9727 35.5631 58.4375 34.638C58.2172 34.246 57.9811 33.854 57.9496 33.3993C57.871 32.0822 59.3032 31.5334 58.5949 29.9968C58.3274 29.4166 57.8552 28.9305 57.3358 28.5385C56.8007 28.1309 55.9036 27.9427 55.5101 27.441C55.1167 26.9392 55.1324 25.9357 55.1009 25.3085C55.0222 23.8973 55.0852 22.5959 54.0307 21.4983C53.3225 20.7614 52.3309 20.2439 51.3236 20.1185C50.6626 20.0401 49.4665 20.5262 48.8841 20.1969C48.8054 20.1499 48.7425 20.0715 48.6953 19.9931C47.625 18.3937 45.3114 16.9512 43.5644 16.1985C43.0923 15.9947 42.5729 15.9006 42.0693 15.7909C38.2762 15.0539 33.7907 14.8971 30.1078 16.3083C27.9516 17.1393 26.6453 19.115 24.615 19.9931L24.6622 19.9617Z" fill="#F8C04E"/>
<path d="M30.6742 36.1279C31.5261 36.1279 32.2166 35.44 32.2166 34.5913C32.2166 33.7427 31.5261 33.0547 30.6742 33.0547C29.8224 33.0547 29.1318 33.7427 29.1318 34.5913C29.1318 35.44 29.8224 36.1279 30.6742 36.1279Z" fill="#231F20"/>
<path d="M43.5326 36.1279C44.3845 36.1279 45.075 35.44 45.075 34.5913C45.075 33.7427 44.3845 33.0547 43.5326 33.0547C42.6808 33.0547 41.9902 33.7427 41.9902 34.5913C41.9902 35.44 42.6808 36.1279 43.5326 36.1279Z" fill="#231F20"/>
<path d="M37.1113 38.3546C38.7542 38.3546 40.086 37.5333 40.086 36.5201C40.086 35.5069 38.7542 34.6855 37.1113 34.6855C35.4685 34.6855 34.1367 35.5069 34.1367 36.5201C34.1367 37.5333 35.4685 38.3546 37.1113 38.3546Z" fill="#231F20"/>
<path d="M25.6223 17.359L26.5509 18.3312L26.8185 18.6134C26.8185 18.6134 26.9287 18.7075 27.0074 18.7389C27.0703 18.7702 27.149 18.7859 27.2277 18.7859C27.3064 18.7859 27.3851 18.7859 27.448 18.7389C27.5267 18.7075 27.5897 18.6761 27.6369 18.6134C27.7471 18.5037 27.81 18.3469 27.81 18.1901V18.0333C27.7628 17.9392 27.7156 17.8451 27.6369 17.7667L26.7083 16.7946L26.4408 16.5123C26.4408 16.5123 26.3306 16.4182 26.2519 16.3869C26.1889 16.3555 26.1102 16.3398 26.0316 16.3398C25.9529 16.3398 25.8742 16.3398 25.8112 16.3869C25.7325 16.4182 25.6696 16.4496 25.6223 16.5123C25.5122 16.6221 25.4492 16.7789 25.4492 16.9357V17.0925C25.4964 17.1866 25.5437 17.2806 25.6223 17.359Z" fill="#231F20"/>
<path d="M27.6839 16.5266L28.2662 17.4674C28.2662 17.4674 28.3606 17.5928 28.4236 17.6399C28.4865 17.6869 28.5495 17.7339 28.6282 17.7496C28.7069 17.781 28.7856 17.781 28.8643 17.7496C28.943 17.7496 29.0217 17.7183 29.0846 17.6869L29.2105 17.5928C29.2105 17.5928 29.3364 17.436 29.3679 17.3263V17.1695C29.3837 17.0597 29.3679 16.9656 29.305 16.8715L28.7226 15.9308C28.7226 15.9308 28.6282 15.8053 28.5652 15.7583C28.5023 15.7112 28.4393 15.6642 28.3606 15.6485C28.2819 15.6172 28.2032 15.6172 28.1246 15.6485C28.0459 15.6485 27.9672 15.6799 27.9042 15.7112L27.7783 15.8053C27.7783 15.8053 27.6524 15.9621 27.6209 16.0719V16.2287C27.6052 16.3384 27.6209 16.4325 27.6839 16.5266Z" fill="#231F20"/>
<path d="M30.6109 17.0133C34.7187 15.2729 39.5662 15.3669 43.6426 17.1231C44.823 17.6248 45.9247 18.2677 46.9477 19.036C47.1995 19.2242 47.6087 19.0831 47.7504 18.8322C47.9235 18.5343 47.7976 18.2207 47.5458 18.0325C43.6898 15.1631 38.6691 14.0655 33.9475 14.8495C32.594 15.069 31.2719 15.4767 30.0128 16.0098C29.7138 16.1353 29.6508 16.5586 29.8082 16.8095C29.9813 17.1074 30.3276 17.1388 30.6109 17.0133Z" fill="#231F20"/>
<path d="M24.0645 21.3722C23.3248 23.4106 23.5766 25.5587 23.8599 27.6598C24.0015 28.7261 24.1589 29.808 24.1746 30.8899C24.1904 31.9718 23.9858 33.1007 23.7025 34.1983C23.1516 36.3151 22.7582 38.4319 23.5766 40.5486C23.8599 41.2856 24.2533 42.0068 24.8672 42.54C25.481 43.0731 26.1263 43.418 26.8345 43.7316C28.8805 44.6411 31.1626 45.0017 33.3818 44.6411C34.1373 44.5156 33.8068 43.3867 33.067 43.5121C31.2571 43.81 29.3684 43.4964 27.6686 42.8222C27.0076 42.5556 26.3466 42.2264 25.7957 41.803C25.2449 41.3797 24.8986 40.7681 24.6625 40.1096C23.9228 38.1026 24.4422 36.174 24.9301 34.1983C25.418 32.2226 25.3865 30.3097 25.119 28.287C24.8357 26.1075 24.4422 23.8496 25.2134 21.7172C25.481 21.0116 24.332 20.698 24.0802 21.4036L24.0645 21.3722Z" fill="#231F20"/>
<path d="M48.3019 20.6361C49.4036 22.5176 49.5767 24.5717 49.3721 26.7042C49.1832 28.5544 48.7426 30.4046 48.9472 32.2705C49.1832 34.4186 50.1905 36.4413 49.923 38.6365C49.8128 39.5459 49.5137 40.5808 48.9157 41.3177C48.5222 41.8038 47.9399 42.1331 47.4048 42.4153C45.5319 43.3875 43.2497 43.8265 41.1565 43.4972C40.4168 43.3718 40.0862 44.5164 40.8417 44.6262C42.9664 44.9711 45.1541 44.6575 47.1215 43.8265C47.8927 43.5129 48.6324 43.1209 49.2777 42.5878C49.923 42.0547 50.3322 41.3177 50.6469 40.5337C51.0561 39.4989 51.1978 38.3386 51.1191 37.2253C51.0404 36.0023 50.6784 34.842 50.3794 33.666C50.1276 32.6154 50.0174 31.5963 50.0803 30.53C50.1433 29.5108 50.3164 28.5073 50.4423 27.4881C50.7728 24.8853 50.6469 22.3609 49.3091 20.0402C48.9314 19.3817 47.9084 19.9775 48.2861 20.6361H48.3019Z" fill="#231F20"/>
<path d="M50.7255 20.6823C51.0875 20.5098 51.5439 20.6666 51.9216 20.8077C52.3466 20.9645 52.7715 21.1527 53.165 21.3879C53.9204 21.8269 54.3296 22.4541 54.55 23.2381C54.7703 24.0221 54.7703 24.8845 54.7703 25.7626C54.7703 26.7347 54.912 27.6912 55.7146 28.3497C56.0609 28.6476 56.4544 28.8672 56.8321 29.118C57.021 29.2435 57.0997 29.2905 57.2256 29.416C57.4144 29.5884 57.4459 29.6198 57.5561 29.8393C57.6977 30.1215 58.1069 30.1999 58.3588 30.0431C58.6421 29.8707 58.7207 29.5257 58.5634 29.2435C58.1699 28.4595 57.3515 28.0989 56.6747 27.6128C56.6275 27.5814 56.596 27.5501 56.5488 27.5187C56.6118 27.5657 56.5488 27.5187 56.5331 27.503C56.4544 27.4403 56.3914 27.3776 56.3127 27.2992C56.2812 27.2678 56.2655 27.2365 56.234 27.2051C56.297 27.2835 56.1868 27.1424 56.1868 27.1424C56.1396 27.064 56.0924 26.9699 56.0609 26.8915C55.8878 26.4368 55.935 25.935 55.935 25.449C55.935 24.5082 55.8878 23.536 55.5887 22.6423C55.2582 21.6545 54.6287 20.8548 53.7158 20.3217C53.1964 20.0238 52.6141 19.7729 52.0318 19.5847C51.3865 19.3809 50.7255 19.3495 50.1117 19.6474C49.8284 19.7886 49.7497 20.1962 49.907 20.4471C50.0802 20.745 50.4264 20.7921 50.7097 20.6509L50.7255 20.6823Z" fill="#231F20"/>
<path d="M57.902 31.2818C58.2482 31.7365 57.5715 32.4421 57.3984 32.8654C57.1308 33.5083 57.241 34.1669 57.6187 34.7313C58.3742 35.8446 59.586 36.7854 59.6647 38.2279C59.6962 38.9022 59.3657 39.451 59.1139 40.0468C58.8463 40.674 58.7834 41.3169 58.988 41.9754C59.1768 42.5712 59.5388 43.1357 59.5546 43.7786C59.5546 44.2176 59.4287 44.6253 59.1611 44.9702C58.5315 45.7699 57.3354 46.0522 56.4225 45.6445C56.0133 45.472 55.3523 45.7699 55.5569 46.303C55.8874 47.1811 56.3439 47.7926 57.1151 48.3414C57.7289 48.7804 58.3269 47.7613 57.7131 47.3222C57.2095 46.9616 56.9262 46.5696 56.7058 45.9894L55.8402 46.648C56.9577 47.1341 58.2325 47.1027 59.2713 46.4285C60.31 45.7542 60.8766 44.641 60.735 43.4336C60.6405 42.681 60.1684 42.0538 60.0739 41.3169C59.9795 40.5799 60.5146 39.9527 60.7192 39.3098C61.2229 37.7419 60.3572 36.1896 59.3814 34.9979C59.1139 34.6686 58.7991 34.3707 58.5788 34.0101C58.3427 33.6181 58.4528 33.3045 58.6732 32.9282C59.0667 32.2539 59.4601 31.3915 58.9093 30.6703C58.7204 30.4194 58.4056 30.294 58.1066 30.4664C57.8548 30.6075 57.6974 31.0152 57.902 31.2661V31.2818Z" fill="#231F20"/>
<path d="M46.8848 43.7943C46.5543 45.4564 47.2625 47.1968 48.7105 48.0906C49.4345 48.5453 50.2844 48.6864 51.1343 48.5453C51.3231 48.5139 51.512 48.4669 51.6851 48.4042C51.7009 48.4042 51.9842 48.2944 51.9999 48.2944C51.9999 48.2944 51.8425 48.2944 51.8582 48.2944L52.0314 48.3885C52.4248 48.608 52.8655 48.8118 53.322 48.9059C54.2505 49.0784 55.3837 48.7805 55.7929 47.8397C55.9188 47.5418 55.8716 47.2125 55.5883 47.04C55.3365 46.8989 54.9116 46.9616 54.7857 47.2438C54.7542 47.3066 54.7227 47.3693 54.6755 47.432C54.6125 47.5261 54.644 47.4634 54.6755 47.432C54.644 47.4634 54.6283 47.479 54.5968 47.5104C54.5653 47.5418 54.5496 47.5574 54.5181 47.5888C54.4866 47.6045 54.4551 47.6202 54.4237 47.6515C54.4237 47.6515 54.2505 47.7299 54.3607 47.6829C54.2978 47.6986 54.2348 47.7299 54.1718 47.7456C54.1404 47.7456 54.0931 47.7613 54.0617 47.777C53.9672 47.7926 54.1404 47.777 54.0617 47.777C53.8728 47.777 53.7469 47.777 53.6052 47.7613C53.2118 47.6829 52.9442 47.5418 52.598 47.3536C52.3934 47.2439 52.173 47.1341 51.9369 47.1498C51.7166 47.1498 51.5435 47.2439 51.3546 47.3066C51.1972 47.3536 51.0398 47.4006 50.8667 47.432C50.7408 47.4477 50.8195 47.432 50.8352 47.432C50.788 47.432 50.7565 47.432 50.7093 47.432C50.6149 47.432 50.5047 47.432 50.4103 47.432C50.3631 47.432 50.3316 47.432 50.2844 47.432C50.2686 47.432 50.1742 47.432 50.2686 47.432C50.1899 47.432 50.1112 47.4006 50.0326 47.385C49.9539 47.3693 49.8752 47.3379 49.7965 47.3223C49.765 47.3223 49.7178 47.2909 49.6863 47.2752C49.765 47.3066 49.6548 47.2752 49.6391 47.2438C49.3086 47.0871 49.0882 46.9303 48.8521 46.6951C48.7892 46.6323 48.742 46.5853 48.6948 46.5226C48.6633 46.4912 48.6475 46.4599 48.6161 46.4285C48.6318 46.4442 48.6633 46.5069 48.6003 46.4128C48.5059 46.2717 48.4115 46.1306 48.3328 45.9895C48.317 45.9581 48.3013 45.9267 48.2856 45.8797C48.2856 45.8483 48.2226 45.7543 48.2541 45.8327C48.2226 45.7386 48.1754 45.6445 48.1596 45.5504C48.1124 45.378 48.0652 45.2055 48.0337 45.033C48.0337 45.0173 48.0337 44.9232 48.0337 45.0173C48.0337 44.9703 48.0337 44.9232 48.0337 44.8762C48.0337 44.7821 48.0337 44.7037 48.0337 44.6096C48.0337 44.5156 48.0337 44.4058 48.0495 44.3117C48.0495 44.296 48.0652 44.202 48.0495 44.296C48.0495 44.2333 48.0652 44.1863 48.0809 44.1236C48.1439 43.8257 47.9865 43.4807 47.6717 43.4023C47.3727 43.3396 47.0107 43.4964 46.9478 43.81L46.8848 43.7943Z" fill="#231F20"/>
<path d="M23.5445 19.9291C22.3956 19.9918 21.2624 20.3211 20.3495 21.0424C19.4367 21.7636 19.0118 22.7985 18.8701 23.9275C18.7285 25.0564 18.8701 26.0599 18.8386 27.1261C18.8386 27.6279 18.7914 28.114 18.634 28.6C18.4766 29.1018 18.1933 29.5251 17.8313 29.9015C17.3592 30.3875 16.8398 30.8579 16.525 31.4851C16.1788 32.1594 16.1158 32.8649 16.4149 33.5705C16.5408 33.8685 16.9657 33.9312 17.2175 33.7744C17.5166 33.6019 17.5638 33.2569 17.4221 32.9747C17.249 32.5827 17.4851 32.0966 17.7054 31.7674C18.0045 31.3126 18.4294 30.9677 18.7914 30.5757C19.5154 29.7603 19.8616 28.8039 19.9561 27.722C20.0505 26.7498 19.9403 25.762 19.9561 24.7898C19.9718 23.9275 20.082 22.9867 20.6801 22.3124C21.3883 21.5128 22.4743 21.1678 23.513 21.1051C24.2685 21.0581 24.2685 19.8821 23.513 19.9291H23.5445Z" fill="#231F20"/>
<path d="M17.1075 35.139C17.3594 35.6721 16.6354 36.268 16.3206 36.5816C15.8012 37.099 15.4078 37.6635 15.1245 38.322C14.6366 39.5294 14.7467 40.9876 15.5809 42.0225C15.9271 42.4458 16.3836 42.7594 16.8557 43.026C16.9816 43.0887 17.1075 43.1514 17.2335 43.2298C17.2492 43.2298 17.3594 43.3082 17.3751 43.3082L17.2492 43.0887C17.2492 43.0887 17.2335 43.1514 17.2177 43.1828C17.1233 43.2925 17.0761 43.5277 17.0289 43.6688C16.9659 43.8884 16.9187 44.1079 16.9029 44.3431C16.7456 45.6602 17.3121 46.9616 18.4768 47.6358C19.5628 48.2473 20.9635 48.3258 22.1282 47.8867C22.4272 47.777 22.6318 47.4947 22.5374 47.1654C22.4587 46.8832 22.1125 46.648 21.8134 46.7578C20.9635 47.0714 19.9563 47.087 19.1378 46.648C18.1148 46.0992 17.8473 44.9389 18.1935 43.8727C18.3037 43.5434 18.4926 43.2612 18.4139 42.9005C18.3352 42.5399 18.0676 42.3361 17.7528 42.1793C17.3279 41.9598 16.9029 41.7246 16.5567 41.3639C15.817 40.5799 15.8799 39.3099 16.3678 38.4161C16.7141 37.7732 17.2649 37.3656 17.7214 36.8011C18.2565 36.1425 18.4926 35.3272 18.1148 34.5432C17.9732 34.261 17.564 34.1826 17.3122 34.3394C17.0131 34.5118 16.9659 34.8568 17.1075 35.139Z" fill="#231F20"/>
<path d="M22.3014 49.5807C23.1513 49.2828 23.8753 48.6556 24.253 47.8402L23.3244 47.9657C24.1901 48.7183 25.3547 48.9692 26.4722 48.7183C27.5896 48.4674 28.471 47.7305 29.0061 46.774C29.3209 46.2095 29.494 45.6137 29.5727 44.9708C29.6042 44.6572 29.2737 44.375 28.9746 44.375C28.6284 44.375 28.4238 44.6416 28.3766 44.9708C28.3766 45.0806 28.3766 44.9081 28.3766 45.0179C28.3766 45.0649 28.3608 45.112 28.3451 45.1747C28.3136 45.2844 28.2979 45.4099 28.2507 45.5196C28.2192 45.6137 28.1877 45.7078 28.1562 45.8175C28.109 45.9273 28.1877 45.7705 28.1405 45.8646C28.109 45.9116 28.0933 45.9743 28.0618 46.0214C27.9674 46.2252 27.8415 46.3977 27.7156 46.5859C27.6841 46.6329 27.7156 46.5859 27.7156 46.5702C27.6998 46.5859 27.6841 46.6172 27.6683 46.6329C27.6369 46.6643 27.6054 46.7113 27.5739 46.7427C27.4952 46.8367 27.4165 46.9151 27.3221 46.9935C27.2906 47.0249 27.2434 47.0562 27.2119 47.0876C27.1647 47.1346 27.2119 47.0876 27.2276 47.0876C27.2119 47.0876 27.1804 47.119 27.1647 47.1346C27.0703 47.1974 26.9758 47.2601 26.8814 47.3071C26.8342 47.3385 26.7712 47.3698 26.724 47.3855C26.7083 47.3855 26.5824 47.4482 26.6296 47.4326C26.6768 47.4169 26.5509 47.4639 26.5351 47.4639C26.4722 47.4796 26.425 47.4953 26.362 47.5266C26.2676 47.558 26.1732 47.5737 26.063 47.605C26.0315 47.605 26 47.605 25.9686 47.6207C25.9686 47.6207 25.8741 47.6207 25.9528 47.6207C26.0315 47.6207 25.9528 47.6207 25.9371 47.6207C25.9056 47.6207 25.8741 47.6207 25.8426 47.6207C25.7482 47.6207 25.638 47.6207 25.5436 47.6207C25.4964 47.6207 25.4492 47.6207 25.3862 47.6207C25.3547 47.6207 25.339 47.6207 25.3075 47.6207C25.2131 47.6207 25.402 47.6364 25.3075 47.6207C25.1816 47.605 25.0557 47.5737 24.9455 47.5423C24.8826 47.5266 24.8354 47.511 24.7724 47.4953C24.7409 47.4953 24.5993 47.4169 24.7095 47.4796C24.5993 47.4326 24.4891 47.3698 24.3789 47.3071C24.3317 47.2758 24.2845 47.2444 24.2373 47.213C24.2373 47.213 24.1586 47.1503 24.2216 47.213C24.2845 47.2601 24.1586 47.166 24.1586 47.166C23.9068 46.9465 23.4031 46.9151 23.23 47.2914C23.1671 47.4482 23.0726 47.5894 22.9782 47.7305C22.9782 47.7305 22.868 47.8716 22.9467 47.7775C22.931 47.8089 22.8995 47.8246 22.8838 47.8559C22.8208 47.9186 22.7578 47.997 22.6949 48.0598C22.6634 48.0911 22.6319 48.1225 22.6005 48.1382C22.6005 48.1382 22.4746 48.2322 22.5375 48.1852C22.6005 48.1382 22.4746 48.2322 22.4746 48.2322C22.4431 48.2636 22.4116 48.2793 22.3644 48.295C22.2857 48.342 22.2227 48.3733 22.144 48.4204C22.1126 48.4361 22.0653 48.4517 22.0339 48.4674C22.1283 48.4204 22.0339 48.4674 21.9867 48.4674C21.7034 48.5772 21.4673 48.8751 21.5774 49.1887C21.6719 49.4709 21.9867 49.7061 22.3014 49.5964V49.5807Z" fill="#231F20"/>
</svg>
