<svg width="80" height="76" viewBox="0 0 80 76" fill="none" xmlns="http://www.w3.org/2000/svg">
<path d="M29.0942 47.5266C28.0398 50.4587 26.8908 53.5476 27.4574 56.6679C27.6778 57.8596 28.2916 58.816 29.4877 59.161C30.0386 59.3178 30.6524 59.4589 31.1875 59.2551C31.4865 59.1453 31.817 58.9415 32.1003 59.1139C32.2263 59.1923 32.3049 59.3178 32.3994 59.4432C33.1706 60.337 34.288 59.7568 35.1537 59.8823C35.8462 59.992 35.9878 60.1488 36.7118 60.0547C37.3571 59.9763 37.5617 59.7255 38.2542 59.8823C38.9467 60.0391 39.3402 59.4119 39.954 59.2551C40.615 59.0826 40.8196 59.3491 41.3075 59.6941C41.9056 60.1175 42.6768 60.2899 43.385 60.0861C43.4637 60.0547 43.5581 60.0391 43.6368 60.0391C43.7313 60.0391 43.81 60.1018 43.9044 60.1488C44.5654 60.4938 45.4311 60.4311 46.0291 59.9763C46.1236 59.8979 46.218 59.8195 46.3439 59.7725C46.6429 59.6784 46.6587 59.8823 46.9577 59.6471C47.241 59.4275 47.6502 59.4589 48.0279 59.4589C49.6963 59.4903 51.821 58.5024 52.4191 56.8561C52.7024 56.1034 52.7023 55.2881 52.6709 54.4727C52.482 49.9569 50.8609 45.8802 48.2955 42.2111C47.3512 40.8783 46.3911 39.5142 45.0848 38.5264C38.6004 33.5872 31.581 40.5491 29.4562 46.5387C29.3461 46.868 29.2202 47.1973 29.11 47.5266H29.0942Z" fill="#F8C04E"/>
<path d="M31.8799 51.8384C31.4707 53.3437 31.2031 54.9117 31.1559 56.464C31.1087 57.8281 31.3605 59.5215 32.6668 60.2898C33.4065 60.7289 34.2564 60.5564 34.8545 59.9762L34.0204 59.1452C33.2649 60.0233 34.6499 60.5878 35.3267 60.7602C35.9562 60.9014 36.633 60.8857 37.1838 60.5094C37.656 60.1801 38.018 59.6783 38.1282 59.1139C38.1911 58.8003 38.0337 58.4867 37.719 58.3926C37.4357 58.3142 37.0579 58.4867 36.995 58.8003C36.9792 58.8943 36.9635 58.9727 36.932 59.0668C36.9005 59.1609 36.9635 59.0041 36.932 59.0982C36.9163 59.1295 36.9005 59.1766 36.8691 59.2079C36.8376 59.255 36.8218 59.2863 36.7904 59.3334C36.8218 59.2863 36.7904 59.3334 36.7746 59.349C36.7274 59.4118 36.6645 59.4588 36.6015 59.5215C36.6645 59.4745 36.57 59.5372 36.5543 59.5529C36.5228 59.5686 36.4913 59.5999 36.4441 59.6156C36.3812 59.647 36.3339 59.6626 36.2553 59.6783C36.1608 59.7097 36.1293 59.7097 36.0192 59.7097C35.9405 59.7097 35.8303 59.7097 35.7831 59.694C35.5627 59.647 35.3424 59.5842 35.1221 59.5058C34.9962 59.4588 35.2008 59.5529 35.0906 59.4902C35.0434 59.4588 34.9804 59.4431 34.9332 59.4118C34.8702 59.3804 34.8073 59.3177 34.9017 59.4118C34.886 59.3647 34.8388 59.3647 34.9017 59.4118C34.9489 59.4588 34.9647 59.5059 34.9647 59.5686C35.0276 59.7254 34.9962 59.8822 34.8545 60.0233C35.0591 59.7881 35.0906 59.4274 34.8545 59.1923C34.6184 58.9571 34.2564 58.9727 34.0204 59.1923C33.9259 59.2863 33.8944 59.3177 33.7528 59.3804C33.7213 59.3804 33.7056 59.3961 33.6741 59.4118C33.6426 59.4274 33.6269 59.4118 33.5954 59.4275C33.6584 59.4275 33.6584 59.4275 33.5954 59.4275C33.5639 59.4275 33.5482 59.4275 33.5167 59.4275C33.6111 59.4431 33.4223 59.4275 33.5167 59.4275C33.4695 59.4275 33.4223 59.3961 33.3593 59.3961C33.2964 59.3804 33.3593 59.3961 33.3751 59.3961C33.3436 59.3961 33.3278 59.3804 33.2964 59.3647C33.2334 59.3334 33.1705 59.2863 33.1075 59.255C33.0918 59.2393 33.0603 59.2236 33.0445 59.1923C32.9973 59.1609 32.9659 59.1139 32.9186 59.0668C32.9029 59.0511 32.7927 58.9257 32.8399 58.9884C32.7927 58.9257 32.7613 58.8787 32.7298 58.8159C32.5724 58.5651 32.5252 58.4083 32.4465 58.1103C32.1474 56.9814 32.3206 55.6329 32.5094 54.457C32.6353 53.7043 32.7927 52.9517 32.9973 52.1991C33.076 51.8855 32.8872 51.5562 32.5881 51.4778C32.2891 51.3994 31.9428 51.5875 31.8641 51.8855L31.8799 51.8384Z" fill="#231F20"/>
<path d="M38.5688 51.6192C38.4586 52.7795 38.4586 53.9398 38.6003 55.0845C38.6947 55.8684 38.8678 56.6368 39.0409 57.4207C39.1196 57.75 39.1669 58.0323 39.1354 58.3772C39.1354 58.4399 39.1354 58.3615 39.1354 58.3458C39.1354 58.3772 39.1354 58.4086 39.1196 58.4399C39.1196 58.5027 39.0882 58.5497 39.0724 58.6124C39.0724 58.6281 39.0252 58.7222 39.0724 58.6594C39.1039 58.5967 39.0724 58.6595 39.0724 58.6751C39.0409 58.7378 39.0095 58.8006 38.9622 58.8633C38.9622 58.8633 38.8993 58.9574 38.9465 58.8946C38.9937 58.8319 38.8993 58.9417 38.8993 58.9417C38.8521 58.9887 38.8049 59.0358 38.7576 59.0671C38.8521 58.9887 38.7262 59.0828 38.679 59.1142C38.6475 59.1142 38.616 59.1455 38.6003 59.1612C38.6475 59.1612 38.5058 59.2082 38.6003 59.1612C38.553 59.1612 38.4586 59.1926 38.3957 59.2239C38.5058 59.1926 38.3484 59.2239 38.3012 59.2239C38.2225 59.2239 38.1596 59.2239 38.0809 59.2239C38.0179 59.2239 37.9707 59.1926 37.9078 59.1769C37.168 58.973 36.869 60.102 37.593 60.3058C38.317 60.5097 39.0095 60.3999 39.5761 59.9452C40.0797 59.5375 40.3473 58.879 40.363 58.2361C40.3945 57.3894 40.064 56.5427 39.9066 55.7116C39.7807 55.0061 39.7177 54.2534 39.702 53.5165C39.702 52.8893 39.702 52.2621 39.7807 51.6349C39.8121 51.3213 39.4816 51.0391 39.1826 51.0391C38.8363 51.0391 38.616 51.3056 38.5845 51.6349L38.5688 51.6192Z" fill="#231F20"/>
<path d="M40.9296 51.9171C41.0083 52.6854 41.0712 53.4537 41.024 54.2063C41.024 54.3474 41.0083 54.4886 40.9925 54.6297C40.9925 54.6924 40.9925 54.7551 40.9768 54.8178C40.9925 54.6767 40.9768 54.7865 40.9768 54.8178C40.9768 54.8649 40.9768 54.9119 40.961 54.9589C40.9138 55.2725 40.8509 55.6018 40.7879 55.9154C40.5991 56.8092 40.1899 57.7343 40.3 58.6594C40.3945 59.4434 40.8351 60.1803 41.5591 60.5566C42.4405 60.9957 43.6524 60.9173 44.219 60.0235C44.3921 59.757 44.2819 59.3807 44.0144 59.2239C43.7311 59.0514 43.3848 59.1611 43.2117 59.4277C43.1487 59.5218 43.1802 59.4747 43.196 59.4591C43.1645 59.4904 43.133 59.5218 43.1015 59.5531C43.1645 59.4904 42.9441 59.6315 43.0386 59.5845C42.9599 59.6158 42.8812 59.6315 42.8182 59.6472C42.7867 59.6472 42.708 59.6786 42.8182 59.6472C42.771 59.6472 42.708 59.6472 42.6608 59.6472C42.6294 59.6472 42.4248 59.6472 42.5507 59.6472C42.4877 59.6472 42.409 59.6158 42.3461 59.6002C42.3146 59.6002 42.1257 59.5218 42.2516 59.5688C42.1729 59.5375 42.0942 59.4904 42.0313 59.4434C41.9998 59.4277 41.9683 59.412 41.9526 59.3807C42.0313 59.4591 41.9683 59.3807 41.9526 59.3807C41.9054 59.3336 41.8582 59.2866 41.8109 59.2395C41.7952 59.2082 41.7637 59.1925 41.748 59.1611C41.7952 59.2395 41.7637 59.1768 41.748 59.1611C41.7008 59.0984 41.6693 59.02 41.6378 58.9573C41.6378 58.9259 41.5906 58.8319 41.6378 58.9259C41.6378 58.8946 41.6063 58.8632 41.6063 58.8319C41.5906 58.7691 41.5749 58.6907 41.5591 58.6123C41.5591 58.5967 41.5591 58.5026 41.5591 58.6123C41.5591 58.581 41.5591 58.5339 41.5591 58.5026C41.5591 58.3928 41.5591 58.2831 41.5591 58.1733C41.5906 57.8127 41.7165 57.4207 41.8267 57.06C41.9368 56.6994 41.9998 56.3388 42.0785 55.9625C42.1887 55.3823 42.2831 54.8178 42.3303 54.222C42.3775 53.4537 42.3146 52.6854 42.2359 51.9327C42.2044 51.6191 41.9841 51.3369 41.6378 51.3369C41.3388 51.3369 41.024 51.6035 41.0397 51.9327L40.9296 51.9171Z" fill="#231F20"/>
<path d="M47.1938 52.1838C47.4613 52.8267 47.603 53.5636 47.6817 54.2535C47.7918 55.0375 47.8705 55.8215 47.8705 56.6055C47.8705 57.2954 47.7446 58.001 47.3984 58.5498C47.3669 58.5968 47.3354 58.6596 47.2882 58.7066C47.241 58.7693 47.241 58.7693 47.2567 58.738C47.2252 58.7693 47.2095 58.8007 47.178 58.832C47.1151 58.8948 47.0679 58.9418 47.0049 59.0045C46.9577 59.0516 46.9419 59.0516 46.9892 59.0202C46.9577 59.0359 46.9262 59.0672 46.8947 59.0829C46.8475 59.1143 46.8003 59.1456 46.7531 59.1613C46.6901 59.1927 46.6901 59.1927 46.7531 59.1613C46.7216 59.1613 46.6901 59.177 46.6429 59.1927C46.6114 59.1927 46.58 59.2084 46.5327 59.224C46.5957 59.224 46.5957 59.224 46.5327 59.224C46.5013 59.224 46.2967 59.2084 46.4226 59.224C46.2337 59.1927 45.9819 59.2084 45.856 59.3808C45.7301 59.5533 45.6671 59.5847 45.494 59.6944C45.494 59.6944 45.3681 59.7571 45.4468 59.7258C45.4153 59.7258 45.3681 59.7571 45.3366 59.7728C45.2894 59.7728 45.2422 59.8042 45.1792 59.8199C45.1792 59.8199 45.0376 59.8512 45.1163 59.8199C45.0218 59.8199 44.9274 59.8199 44.833 59.8199C44.8172 59.8199 44.6913 59.8199 44.77 59.8199C44.7228 59.8199 44.6913 59.8199 44.6441 59.8042C44.4238 59.7571 44.2664 59.6631 44.046 59.569L44.3136 60.2275L44.3451 60.0864C44.408 59.7728 44.2506 59.4436 43.9358 59.3652C43.6368 59.2868 43.2748 59.4592 43.2119 59.7728L43.1804 59.9139C43.1174 60.1491 43.2119 60.4627 43.4479 60.5725C43.9831 60.8391 44.5339 61.0586 45.1477 60.9802C45.7301 60.9018 46.2967 60.6666 46.6744 60.2119L46.1078 60.3687C47.4771 60.6039 48.4843 59.4122 48.8306 58.2048C49.2398 56.8093 49.0195 55.2884 48.8306 53.8929C48.7204 53.0932 48.5473 52.3249 48.2168 51.5723C48.0909 51.2744 47.6659 51.2117 47.4141 51.3685C47.1151 51.5409 47.0836 51.8859 47.2095 52.1681L47.1938 52.1838Z" fill="#231F20"/>
<path d="M33.9259 38.1344C30.9985 40.7216 29.1413 44.3436 27.9609 48.0127C27.4573 49.5963 27.0638 51.227 26.8435 52.8734C26.6546 54.2376 26.4972 55.6644 26.812 57.0129C27.0009 57.8282 27.4101 58.5965 28.0711 59.1297C28.921 59.8196 30.007 60.0077 31.0772 59.9764C31.8327 59.9607 31.8327 58.7847 31.0772 58.8004C30.3217 58.8161 29.4561 58.7377 28.8266 58.2359C28.3229 57.8282 28.0711 57.2167 27.9295 56.5895C27.6934 55.4606 27.835 54.2062 27.9924 53.0773C28.4488 49.8629 29.4561 46.6485 31.0143 43.7791C31.9901 41.976 33.2177 40.3139 34.7601 38.9498C35.3267 38.448 34.4925 37.617 33.9259 38.1187V38.1344Z" fill="#231F20"/>
<path d="M43.3849 38.7617C46.6743 40.9412 48.8619 44.5162 50.3886 48.0755C50.9552 49.3769 51.4274 50.7097 51.7264 52.1052C52.0097 53.3596 52.1828 54.7394 51.9153 56.0095C51.6162 57.452 50.7349 58.4085 49.2869 58.7378C48.5472 58.9102 48.8619 60.0392 49.6017 59.8667C51.0968 59.5217 52.2615 58.581 52.8124 57.1541C53.3632 55.7272 53.2688 54.1906 53.0484 52.7481C52.8281 51.3055 52.4189 49.9728 51.8995 48.6556C51.1126 46.6486 50.1525 44.7043 48.9564 42.9012C47.6186 40.8941 45.9975 39.0753 43.9829 37.7425C43.3534 37.3191 42.7553 38.3383 43.3849 38.7617Z" fill="#231F20"/>
<path d="M26.8114 21.2786C26.4651 21.4354 26.0874 21.5451 25.6939 21.6235C24.4034 21.8587 23.1757 22.5016 22.3573 23.5051C20.7362 25.4651 21.9481 27.5662 21.2556 29.73C20.9566 30.6551 20.1696 31.3293 19.729 32.1917C19.304 32.9914 19.2096 33.9635 19.4457 34.8259C19.5558 35.2179 19.729 35.5786 19.7762 35.9706C20.0123 38.0717 17.3524 39.3104 17.3367 41.2703C17.3367 42.0543 17.7616 42.8226 18.4384 43.2303C18.7217 43.3871 19.0207 43.4969 19.2883 43.685C19.5558 43.8732 19.7762 44.1554 19.7762 44.469C19.7762 44.6415 19.6817 44.814 19.6345 44.9865C19.0522 46.7269 20.1224 48.7653 22.0426 48.6712C22.436 48.6555 22.8452 48.6398 23.2387 48.6242C23.5535 48.6242 23.9155 48.6242 24.0886 48.875C24.2302 49.0946 24.183 49.4238 24.3719 49.5963C24.5765 49.7845 24.907 49.6904 25.1431 49.5493C26.1504 48.9221 27.0317 49.5806 28.1177 49.5179C29.3138 49.4395 30.3998 48.7182 30.8877 47.6207C31.4071 46.429 31.0451 45.6293 32.5718 45.4725C34.3502 45.2844 36.3648 45.7234 38.159 45.7548C39.9532 45.7861 41.9048 45.7391 43.762 45.6293C45.6507 45.5196 47.618 45.3157 49.2706 44.3906C49.428 45.3471 49.0974 46.476 49.5381 47.3384C49.8057 47.8715 50.2621 48.2949 50.7657 48.6242C51.2222 48.9221 51.7415 49.1573 52.2767 49.2357C52.9062 49.3298 53.5987 49.0005 54.1811 49.1416C54.7634 49.2827 55.0152 49.8942 55.6762 49.8942C56.7307 49.8942 57.4075 48.5771 58.2889 48.1381C58.7295 47.9186 59.2489 47.8715 59.7211 47.7304C60.8543 47.3855 61.9088 46.2879 62.1606 45.1119C62.4124 43.9359 61.1376 42.8383 61.5625 41.6467C61.7986 41.0038 62.5383 40.5804 62.6013 39.8905C62.6485 39.4828 62.4281 39.0908 62.2235 38.7459C61.6727 37.8208 61.1218 36.88 60.5867 35.9549C60.3664 35.5629 60.1303 35.1709 60.0988 34.7162C60.0201 33.3991 61.4523 32.8503 60.7441 31.3137C60.4765 30.7335 60.0044 30.2474 59.485 29.8554C58.9499 29.4478 58.0528 29.2596 57.6593 28.7579C57.2658 28.2561 57.2816 27.2526 57.2501 26.6254C57.1714 25.2142 57.2344 23.9128 56.1799 22.8152C55.4716 22.0783 54.4801 21.5608 53.4728 21.4354C52.8118 21.357 51.6156 21.8431 51.0333 21.5138C50.9546 21.4667 50.8917 21.3883 50.8444 21.3099C49.7742 19.7106 47.4606 18.2681 45.7136 17.5154C45.2415 17.3116 44.7221 17.2175 44.2184 17.1078C40.4254 16.3708 35.9399 16.214 32.257 17.6252C30.1008 18.4562 28.7945 20.4319 26.7642 21.3099L26.8114 21.2786Z" fill="#F8C04E"/>
<path d="M32.8234 37.4443C33.6752 37.4443 34.3658 36.7564 34.3658 35.9077C34.3658 35.0591 33.6752 34.3711 32.8234 34.3711C31.9716 34.3711 31.281 35.0591 31.281 35.9077C31.281 36.7564 31.9716 37.4443 32.8234 37.4443Z" fill="#231F20"/>
<path d="M45.682 37.4443C46.5339 37.4443 47.2244 36.7564 47.2244 35.9077C47.2244 35.0591 46.5339 34.3711 45.682 34.3711C44.8302 34.3711 44.1396 35.0591 44.1396 35.9077C44.1396 36.7564 44.8302 37.4443 45.682 37.4443Z" fill="#231F20"/>
<path d="M39.2605 39.671C40.9033 39.671 42.2351 38.8497 42.2351 37.8365C42.2351 36.8233 40.9033 36.002 39.2605 36.002C37.6177 36.002 36.2859 36.8233 36.2859 37.8365C36.2859 38.8497 37.6177 39.671 39.2605 39.671Z" fill="#231F20"/>
<path d="M27.7713 18.6754L28.6999 19.6476L28.9674 19.9298C28.9674 19.9298 29.0776 20.0239 29.1563 20.0553C29.2192 20.0866 29.2979 20.1023 29.3766 20.1023C29.4553 20.1023 29.534 20.1023 29.597 20.0553C29.6757 20.0239 29.7386 19.9925 29.7858 19.9298C29.896 19.8201 29.959 19.6633 29.959 19.5065V19.3497C29.9117 19.2556 29.8645 19.1615 29.7858 19.0831L28.8572 18.111L28.5897 17.8287C28.5897 17.8287 28.4795 17.7346 28.4008 17.7033C28.3379 17.6719 28.2592 17.6562 28.1805 17.6562C28.1018 17.6562 28.0231 17.6562 27.9601 17.7033C27.8814 17.7346 27.8185 17.766 27.7713 17.8287C27.6611 17.9385 27.5981 18.0953 27.5981 18.2521V18.4089C27.6454 18.503 27.6926 18.597 27.7713 18.6754Z" fill="#231F20"/>
<path d="M29.833 17.8445L30.4154 18.7852C30.4154 18.7852 30.5098 18.9107 30.5728 18.9577C30.6357 19.0048 30.6987 19.0518 30.7774 19.0675C30.8561 19.0988 30.9347 19.0988 31.0134 19.0675C31.0921 19.0675 31.1708 19.0361 31.2338 19.0048L31.3597 18.9107C31.3597 18.9107 31.4856 18.7539 31.5171 18.6441V18.4873C31.5328 18.3776 31.5171 18.2835 31.4541 18.1894L30.8718 17.2486C30.8718 17.2486 30.7774 17.1232 30.7144 17.0762C30.6515 17.0291 30.5885 16.9821 30.5098 16.9664C30.4311 16.935 30.3524 16.935 30.2737 16.9664C30.195 16.9664 30.1163 16.9978 30.0534 17.0291L29.9275 17.1232C29.9275 17.1232 29.8016 17.28 29.7701 17.3897V17.5465C29.7543 17.6563 29.7701 17.7504 29.833 17.8445Z" fill="#231F20"/>
<path d="M32.7606 18.3307C36.8684 16.5903 41.7159 16.6843 45.7922 18.4405C46.9726 18.9422 48.0743 19.5851 49.0974 20.3534C49.3492 20.5416 49.7584 20.4004 49.9 20.1496C50.0732 19.8516 49.9473 19.5381 49.6954 19.3499C45.8394 16.4805 40.8188 15.3829 36.0972 16.1669C34.7436 16.3864 33.4216 16.7941 32.1625 17.3272C31.8634 17.4526 31.8005 17.876 31.9579 18.1269C32.131 18.4248 32.4773 18.4561 32.7606 18.3307Z" fill="#231F20"/>
<path d="M26.2132 22.6896C25.4734 24.728 25.7253 26.8761 26.0086 28.9772C26.1502 30.0434 26.3076 31.1253 26.3233 32.2072C26.3391 33.2892 26.1345 34.4181 25.8512 35.5157C25.3003 37.6325 24.9068 39.7492 25.7253 41.866C26.0086 42.603 26.402 43.3242 27.0158 43.8573C27.6296 44.3905 28.2749 44.7354 28.9832 45.049C31.0292 45.9584 33.3113 46.3191 35.5305 45.9584C36.2859 45.833 35.9554 44.704 35.2157 44.8295C33.4058 45.1274 31.5171 44.8138 29.8173 44.1396C29.1563 43.873 28.4953 43.5437 27.9444 43.1204C27.3936 42.697 27.0473 42.0855 26.8112 41.427C26.0715 39.42 26.5909 37.4913 27.0788 35.5157C27.5667 33.54 27.5352 31.6271 27.2677 29.6044C26.9844 27.4249 26.5909 25.167 27.3621 23.0346C27.6296 22.329 26.4807 22.0154 26.2289 22.721L26.2132 22.6896Z" fill="#231F20"/>
<path d="M50.4508 21.953C51.5525 23.8345 51.7256 25.8886 51.521 28.0211C51.3322 29.8713 50.8915 31.7215 51.0961 33.5874C51.3322 35.7355 52.3394 37.7582 52.0719 39.9534C51.9617 40.8628 51.6627 41.8977 51.0646 42.6346C50.6711 43.1207 50.0888 43.45 49.5537 43.7322C47.6808 44.7044 45.3987 45.1434 43.3054 44.8141C42.5657 44.6887 42.2352 45.8333 42.9906 45.9431C45.1154 46.288 47.303 45.9744 49.2704 45.1434C50.0416 44.8298 50.7813 44.4378 51.4266 43.9047C52.0719 43.3716 52.4811 42.6346 52.7959 41.8506C53.2051 40.8158 53.3467 39.6555 53.268 38.5422C53.1893 37.3192 52.8273 36.1589 52.5283 34.9829C52.2765 33.9323 52.1663 32.9131 52.2293 31.8469C52.2922 30.8277 52.4653 29.8242 52.5913 28.805C52.9218 26.2022 52.7959 23.6777 51.4581 21.3571C51.0803 20.6986 50.0573 21.2944 50.4351 21.953H50.4508Z" fill="#231F20"/>
<path d="M52.8746 21.9997C53.2366 21.8272 53.6931 21.984 54.0708 22.1251C54.4957 22.2819 54.9207 22.4701 55.3141 22.7053C56.0696 23.1443 56.4788 23.7715 56.6991 24.5555C56.9195 25.3395 56.9195 26.2019 56.9195 27.0799C56.9195 28.0521 57.0611 29.0086 57.8638 29.6671C58.2101 29.965 58.6035 30.1845 58.9813 30.4354C59.1701 30.5609 59.2488 30.6079 59.3747 30.7333C59.5636 30.9058 59.5951 30.9372 59.7052 31.1567C59.8469 31.4389 60.2561 31.5173 60.5079 31.3605C60.7912 31.188 60.8699 30.8431 60.7125 30.5609C60.3191 29.7769 59.5006 29.4162 58.8239 28.9302C58.7767 28.8988 58.7452 28.8674 58.698 28.8361C58.7609 28.8831 58.698 28.8361 58.6822 28.8204C58.6035 28.7577 58.5406 28.695 58.4619 28.6166C58.4304 28.5852 58.4147 28.5538 58.3832 28.5225C58.4461 28.6009 58.336 28.4598 58.336 28.4598C58.2888 28.3814 58.2415 28.2873 58.2101 28.2089C58.0369 27.7542 58.0842 27.2524 58.0842 26.7663C58.0842 25.8256 58.0369 24.8534 57.7379 23.9597C57.4074 22.9718 56.7778 22.1722 55.865 21.6391C55.3456 21.3411 54.7633 21.0903 54.181 20.9021C53.5357 20.6983 52.8746 20.6669 52.2608 20.9648C51.9775 21.1059 51.8988 21.5136 52.0562 21.7645C52.2293 22.0624 52.5756 22.1094 52.8589 21.9683L52.8746 21.9997Z" fill="#231F20"/>
<path d="M60.0514 32.5992C60.3977 33.0539 59.7209 33.7595 59.5478 34.1828C59.2802 34.8257 59.3904 35.4842 59.7681 36.0487C60.5236 37.162 61.7355 38.1028 61.8141 39.5453C61.8456 40.2195 61.5151 40.7683 61.2633 41.3642C60.9957 41.9914 60.9328 42.6342 61.1374 43.2928C61.3262 43.8886 61.6882 44.4531 61.704 45.096C61.704 45.535 61.5781 45.9427 61.3105 46.2876C60.681 47.0873 59.4848 47.3695 58.572 46.9619C58.1628 46.7894 57.5017 47.0873 57.7063 47.6204C58.0368 48.4985 58.4933 49.11 59.2645 49.6588C59.8783 50.0978 60.4763 49.0786 59.8625 48.6396C59.3589 48.279 59.0756 47.887 58.8553 47.3068L57.9896 47.9654C59.1071 48.4514 60.3819 48.4201 61.4207 47.7459C62.4594 47.0716 63.026 45.9584 62.8844 44.751C62.7899 43.9984 62.3178 43.3712 62.2233 42.6342C62.1289 41.8973 62.664 41.2701 62.8686 40.6272C63.3723 39.0592 62.5066 37.5069 61.5308 36.3153C61.2633 35.986 60.9485 35.6881 60.7282 35.3274C60.4921 34.9355 60.6023 34.6219 60.8226 34.2455C61.2161 33.5713 61.6095 32.7089 61.0587 31.9876C60.8698 31.7368 60.555 31.6113 60.256 31.7838C60.0042 31.9249 59.8468 32.3326 60.0514 32.5835V32.5992Z" fill="#231F20"/>
<path d="M49.0345 45.1117C48.704 46.7737 49.4122 48.5142 50.8602 49.4079C51.5841 49.8627 52.434 50.0038 53.2839 49.8627C53.4728 49.8313 53.6617 49.7843 53.8348 49.7215C53.8505 49.7215 54.1338 49.6118 54.1496 49.6118C54.1496 49.6118 53.9922 49.6118 54.0079 49.6118L54.181 49.7059C54.5745 49.9254 55.0152 50.1292 55.4716 50.2233C56.4002 50.3958 57.5334 50.0979 57.9426 49.1571C58.0685 48.8592 58.0213 48.5299 57.738 48.3574C57.4862 48.2163 57.0612 48.279 56.9353 48.5612C56.9038 48.624 56.8724 48.6867 56.8251 48.7494C56.7937 48.7808 56.7622 48.8435 56.8251 48.7494C56.7937 48.7808 56.7779 48.7964 56.7464 48.8278C56.715 48.8591 56.6992 48.8748 56.6677 48.9062C56.6363 48.9219 56.6048 48.9375 56.5733 48.9689C56.5733 48.9689 56.4002 49.0473 56.5104 49.0003C56.4474 49.0159 56.3845 49.0473 56.3215 49.063C56.29 49.063 56.2428 49.0787 56.2113 49.0943C56.29 49.0943 56.1169 49.11 56.2113 49.0943C56.0225 49.0943 55.8966 49.0943 55.7549 49.0787C55.3614 49.0003 55.0939 48.8592 54.7476 48.671C54.543 48.5612 54.3227 48.4515 54.0866 48.4672C53.8663 48.4672 53.6931 48.5612 53.5043 48.624C53.3469 48.671 53.1895 48.718 53.0164 48.7494C52.8905 48.7651 52.9691 48.7494 52.9849 48.7494C52.9377 48.7494 52.9062 48.7494 52.859 48.7494C52.7645 48.7494 52.6544 48.7494 52.5599 48.7494C52.5127 48.7494 52.4812 48.7494 52.434 48.7494C52.4183 48.7494 52.3239 48.7494 52.4183 48.7494C52.3396 48.7494 52.2609 48.718 52.1822 48.7024C52.1035 48.6867 52.0248 48.6553 51.9461 48.6396C51.9147 48.6396 51.8674 48.6083 51.836 48.5926C51.9147 48.624 51.8045 48.5926 51.7887 48.5612C51.4582 48.4044 51.2379 48.2476 51.0018 48.0124C50.9389 47.9497 50.8916 47.9027 50.8444 47.84C50.8129 47.8086 50.7972 47.7772 50.7657 47.7459C50.7815 47.7616 50.8129 47.8243 50.75 47.7302C50.6556 47.5891 50.5611 47.448 50.4824 47.3068C50.4667 47.2755 50.451 47.2441 50.4352 47.1971C50.4352 47.1657 50.3723 47.0717 50.4037 47.1501C50.3723 47.056 50.325 46.9619 50.3093 46.8678C50.2621 46.6953 50.2149 46.5229 50.1834 46.3504C50.1834 46.3347 50.1834 46.2406 50.1834 46.3347C50.1834 46.2877 50.1834 46.2406 50.1834 46.1936C50.1834 46.0995 50.1834 46.0211 50.1834 45.927C50.1834 45.8329 50.1834 45.7232 50.1991 45.6291C50.1991 45.6134 50.2149 45.5194 50.1991 45.6134C50.1991 45.5507 50.2149 45.5037 50.2306 45.441C50.2936 45.143 50.1362 44.7981 49.8214 44.7197C49.5224 44.657 49.1604 44.8138 49.0974 45.1274L49.0345 45.1117Z" fill="#231F20"/>
<path d="M25.6939 21.247C24.545 21.3097 23.4118 21.639 22.499 22.3602C21.5861 23.0815 21.1612 24.1164 21.0195 25.2453C20.8779 26.3743 21.0195 27.3778 20.988 28.444C20.988 28.9458 20.9408 29.4318 20.7834 29.9179C20.626 30.4197 20.3428 30.843 19.9808 31.2193C19.5086 31.7054 18.9892 32.1758 18.6744 32.803C18.3282 33.4772 18.2652 34.1828 18.5643 34.8884C18.6902 35.1863 19.1151 35.249 19.367 35.0922C19.666 34.9198 19.7132 34.5748 19.5716 34.2926C19.3984 33.9006 19.6345 33.4145 19.8549 33.0852C20.1539 32.6305 20.5788 32.2856 20.9408 31.8936C21.6648 31.0782 22.0111 30.1217 22.1055 29.0398C22.1999 28.0677 22.0898 27.0799 22.1055 26.1077C22.1212 25.2453 22.2314 24.3045 22.8295 23.6303C23.5377 22.8306 24.6237 22.4857 25.6624 22.423C26.4179 22.3759 26.4179 21.1999 25.6624 21.247H25.6939Z" fill="#231F20"/>
<path d="M19.2567 36.4564C19.5085 36.9895 18.7846 37.5854 18.4698 37.899C17.9504 38.4164 17.5569 38.9809 17.2736 39.6394C16.7857 40.8468 16.8959 42.305 17.7301 43.3399C18.0763 43.7632 18.5327 44.0768 19.0049 44.3434C19.1308 44.4061 19.2567 44.4688 19.3826 44.5472C19.3984 44.5472 19.5085 44.6256 19.5243 44.6256L19.3984 44.4061C19.3984 44.4061 19.3826 44.4688 19.3669 44.5002C19.2725 44.6099 19.2252 44.8451 19.178 44.9862C19.1151 45.2057 19.0679 45.4253 19.0521 45.6605C18.8947 46.9776 19.4613 48.279 20.626 48.9532C21.712 49.5647 23.1127 49.6431 24.2774 49.2041C24.5764 49.0943 24.781 48.8121 24.6866 48.4828C24.6079 48.2006 24.2616 47.9654 23.9626 48.0752C23.1127 48.3887 22.1054 48.4044 21.287 47.9654C20.264 47.4166 19.9964 46.2563 20.3427 45.1901C20.4529 44.8608 20.6417 44.5786 20.563 44.2179C20.4843 43.8573 20.2168 43.6534 19.902 43.4967C19.4771 43.2771 19.0521 43.0419 18.7059 42.6813C17.9661 41.8973 18.0291 40.6272 18.517 39.7335C18.8632 39.0906 19.4141 38.683 19.8705 38.1185C20.4056 37.4599 20.6417 36.6446 20.264 35.8606C20.1223 35.5784 19.7131 35.5 19.4613 35.6567C19.1623 35.8292 19.1151 36.1742 19.2567 36.4564Z" fill="#231F20"/>
<path d="M24.4506 50.8976C25.3005 50.5997 26.0245 49.9725 26.4022 49.1571L25.4736 49.2826C26.3392 50.0352 27.5039 50.2861 28.6214 50.0352C29.7388 49.7843 30.6202 49.0474 31.1553 48.0909C31.4701 47.5264 31.6432 46.9306 31.7219 46.2877C31.7534 45.9741 31.4229 45.6919 31.1238 45.6919C30.7776 45.6919 30.573 45.9585 30.5257 46.2877C30.5257 46.3975 30.5257 46.225 30.5257 46.3348C30.5257 46.3818 30.51 46.4288 30.4943 46.4916C30.4628 46.6013 30.4471 46.7268 30.3998 46.8365C30.3684 46.9306 30.3369 47.0247 30.3054 47.1344C30.2582 47.2442 30.3369 47.0874 30.2897 47.1815C30.2582 47.2285 30.2425 47.2912 30.211 47.3383C30.1165 47.5421 29.9906 47.7146 29.8647 47.9027C29.8332 47.9498 29.8647 47.9027 29.8647 47.8871C29.849 47.9027 29.8332 47.9341 29.8175 47.9498C29.786 47.9811 29.7546 48.0282 29.7231 48.0595C29.6444 48.1536 29.5657 48.232 29.4713 48.3104C29.4398 48.3418 29.3926 48.3731 29.3611 48.4045C29.3139 48.4515 29.3611 48.4045 29.3768 48.4045C29.3611 48.4045 29.3296 48.4359 29.3139 48.4515C29.2194 48.5143 29.125 48.577 29.0306 48.624C28.9834 48.6554 28.9204 48.6867 28.8732 48.7024C28.8574 48.7024 28.7315 48.7651 28.7787 48.7495C28.826 48.7338 28.7001 48.7808 28.6843 48.7808C28.6214 48.7965 28.5741 48.8122 28.5112 48.8435C28.4168 48.8749 28.3223 48.8906 28.2122 48.9219C28.1807 48.9219 28.1492 48.9219 28.1177 48.9376C28.1177 48.9376 28.0233 48.9376 28.102 48.9376C28.1807 48.9376 28.102 48.9376 28.0862 48.9376C28.0548 48.9376 28.0233 48.9376 27.9918 48.9376C27.8974 48.9376 27.7872 48.9376 27.6928 48.9376C27.6456 48.9376 27.5983 48.9376 27.5354 48.9376C27.5039 48.9376 27.4882 48.9376 27.4567 48.9376C27.5511 48.9533 27.3623 48.9376 27.4567 48.9376C27.3308 48.9219 27.2049 48.8906 27.0947 48.8592C27.0317 48.8435 26.9845 48.8279 26.9216 48.8122C26.8901 48.8122 26.7485 48.7338 26.8586 48.7965C26.7485 48.7495 26.6383 48.6867 26.5281 48.624C26.4809 48.5927 26.4337 48.5613 26.3865 48.5299C26.3865 48.5299 26.3078 48.4672 26.3707 48.5299C26.4337 48.577 26.3078 48.4829 26.3078 48.4829C26.0559 48.2634 25.5523 48.232 25.3792 48.6083C25.3162 48.7651 25.2218 48.9063 25.1274 49.0474C25.1274 49.0474 25.0172 49.1885 25.0959 49.0944C25.0801 49.1258 25.0487 49.1415 25.0329 49.1728C24.97 49.2355 24.907 49.3139 24.8441 49.3766C24.8126 49.408 24.7811 49.4394 24.7496 49.455C24.7496 49.455 24.6237 49.5491 24.6867 49.5021C24.7496 49.455 24.6237 49.5491 24.6237 49.5491C24.5922 49.5805 24.5608 49.5962 24.5136 49.6118C24.4349 49.6589 24.3719 49.6902 24.2932 49.7373C24.2617 49.753 24.2145 49.7686 24.183 49.7843C24.2775 49.7373 24.183 49.7843 24.1358 49.7843C23.8525 49.8941 23.6164 50.192 23.7266 50.5056C23.821 50.7878 24.1358 51.023 24.4506 50.9133V50.8976Z" fill="#231F20"/>
</svg>
