<svg width="80" height="76" viewBox="0 0 80 76" fill="none" xmlns="http://www.w3.org/2000/svg">
<path d="M33.0987 44.1693C33.9014 42.7895 35.2549 41.7232 36.7816 41.2528C37.7102 40.9706 38.7017 40.9079 39.6775 40.8922C41.1727 40.8765 42.6993 40.9706 44.0843 41.5194C47.1849 42.7267 49.1837 46.2704 48.6014 49.5474C48.5384 49.861 48.4755 50.1903 48.5227 50.5039C48.5856 50.8018 48.743 51.0527 48.9004 51.3193C49.6086 52.5736 49.9077 54.0632 49.7346 55.5058C51.1983 55.2235 52.4731 54.1416 52.9925 52.7618C53.1026 52.4796 53.2128 52.1346 53.4961 52.0249C53.685 51.9465 53.8896 51.9778 54.0784 52.0719C54.8339 52.4639 54.8024 53.5458 54.5821 54.3611C54.4247 54.8943 54.2358 55.4274 53.9211 55.8821C53.2128 56.917 51.938 57.4657 50.6789 57.5128C50.2067 57.5285 49.7031 57.4971 49.2939 57.7009C49.0578 57.8264 48.8532 58.0145 48.6328 58.1713C47.9246 58.6731 46.9488 58.7829 46.1461 58.4379C45.9887 58.3752 45.8471 58.2968 45.6897 58.2654C45.249 58.2184 44.9028 58.5947 44.525 58.8299C43.7066 59.3316 42.5262 59.0964 41.9754 58.3125C40.6848 58.9867 39.1581 58.9553 37.6944 58.924C36.939 58.9083 36.1992 58.8769 35.4438 58.8613C34.2319 58.8299 32.9256 58.7515 31.9813 57.9989C31.273 57.4187 30.8795 56.5406 30.7064 55.6312C30.5333 54.7218 30.549 53.7653 30.7694 52.8716C31.1314 51.382 32.0757 50.0335 32.2173 48.4969C32.359 46.9603 32.2803 45.5805 33.1144 44.1693H33.0987Z" fill="#5C564D"/>
<path d="M36.5927 56.8226C35.7901 56.8226 35.192 56.5717 35.3022 57.4811C35.491 59.0961 37.3325 59.2216 38.387 58.2651C38.7017 57.9672 39.3155 57.2616 38.9221 56.8853C38.5916 56.556 37.0492 56.8226 36.5927 56.8226Z" fill="#F39B4A"/>
<path d="M43.0136 56.8226C42.211 56.8226 41.6129 56.5717 41.7231 57.4811C41.9119 59.0961 43.7534 59.2216 44.8079 58.2651C45.1226 57.9672 45.7364 57.2616 45.343 56.8853C45.0125 56.556 43.4701 56.8226 43.0136 56.8226Z" fill="#F39B4A"/>
<path d="M39.551 53.1068C39.551 52.7618 39.5825 52.4012 39.5983 52.0405C39.5983 51.9621 39.5983 51.8681 39.5668 51.7897C39.5668 51.7897 39.551 51.6329 39.5668 51.7269C39.5668 51.6642 39.551 51.6015 39.5353 51.5388C39.4881 51.2879 39.4409 51.037 39.3622 50.7861C39.3307 50.6607 39.2835 50.5509 39.2363 50.4412C39.2363 50.4412 39.2205 50.3942 39.2048 50.3785C39.189 50.3314 39.1576 50.2844 39.1261 50.2217C39.0474 50.0649 38.953 49.9238 38.8585 49.7826C38.8428 49.767 38.8271 49.7356 38.8113 49.7199C38.7641 49.6729 38.7326 49.6258 38.6854 49.5788C38.6224 49.5161 38.5438 49.4534 38.4808 49.3906C38.4651 49.375 38.4651 49.375 38.4493 49.3593C38.4493 49.3593 38.4493 49.3593 38.4336 49.3593C38.3234 49.2966 38.2132 49.2182 38.0873 49.1398C38.0086 49.0927 37.9457 49.0614 37.867 49.03C37.8513 49.03 37.8513 49.03 37.8355 49.0143C37.6939 48.9673 37.568 48.9203 37.4263 48.8889C37.3476 48.8732 37.2689 48.8575 37.1902 48.8419C37.1745 48.8419 37.1115 48.8419 37.0643 48.8262C37.0171 48.8262 36.9541 48.8262 36.9384 48.8262C36.8754 48.8262 36.7968 48.8262 36.7338 48.8262C36.5922 48.8262 36.4505 48.8262 36.3089 48.8419C36.3089 48.8419 36.3089 48.8419 36.2931 48.8419C36.2302 48.8419 36.1672 48.8732 36.1043 48.8889C35.9783 48.9203 35.8682 48.9673 35.7423 48.9987C35.7737 48.9987 35.7737 48.9987 35.7895 48.9987C35.7737 48.9987 35.758 48.9987 35.7423 49.0143C35.695 49.0457 35.6321 49.077 35.5849 49.1084C35.4747 49.1711 35.4432 49.2338 35.5534 49.1084C35.5219 49.1554 35.459 49.1868 35.4275 49.2182C35.396 49.2495 35.3803 49.2652 35.3488 49.2966C35.3488 49.2966 35.3331 49.3122 35.3173 49.3436C35.2858 49.3906 35.2701 49.4377 35.2386 49.4847C35.2386 49.4847 35.2386 49.5161 35.2386 49.5318C35.2386 49.5788 35.2229 49.6572 35.1914 49.7042C35.1914 49.7042 35.1914 49.7042 35.1914 49.7199C35.1914 49.7983 35.1914 49.8767 35.1914 49.9551C35.1914 49.9865 35.1914 50.0022 35.1914 50.0335C35.2229 50.1746 35.2544 50.3314 35.3016 50.4725C35.3016 50.5196 35.3331 50.5666 35.3488 50.6137C35.3488 50.6137 35.3645 50.645 35.3803 50.6764C35.396 50.7077 35.4432 50.7861 35.4432 50.7861C35.4747 50.8175 35.4747 50.8332 35.4904 50.8489C35.5219 50.8802 35.5534 50.9116 35.5849 50.9429C35.6321 50.99 35.695 51.037 35.7423 51.0841C35.758 51.0841 35.7895 51.1154 35.8052 51.1311C35.9311 51.2095 36.057 51.2879 36.1829 51.3663C36.4505 51.5231 36.7495 51.6642 37.0171 51.8053C37.568 52.0719 38.1345 52.3855 38.5438 52.8559C38.953 53.342 39.1104 53.9064 39.0789 54.5023C39.252 54.5023 39.4251 54.5023 39.5983 54.5179C39.614 54.1887 39.6297 53.8594 39.6297 53.5301C39.5825 53.4204 39.5353 53.2949 39.551 53.1381V53.1068Z" fill="#F39B4A"/>
<path d="M44.1788 48.7155C43.9899 48.6685 44.0529 48.6841 43.8955 48.6841C43.7538 48.6841 43.6122 48.6841 43.4705 48.6841C43.3604 48.6841 43.3761 48.6842 43.2187 48.7312C42.7151 48.8409 42.2744 49.0448 42.0068 49.4054C41.4875 50.0797 41.3773 51.0204 41.3301 51.9299C41.393 52.51 41.393 53.1059 41.3773 53.7017C41.5662 53.3411 41.8022 53.0118 42.0383 52.7295C42.4633 52.2591 43.0299 51.9299 43.5807 51.632C43.8483 51.4908 44.1001 51.3654 44.3519 51.2086C44.5723 51.0832 44.7611 50.9577 44.8556 50.8636C44.9815 50.7382 45.0444 50.6755 45.0759 50.6284C45.1074 50.5814 45.2175 50.3462 45.1703 50.456C45.249 50.2208 45.2648 50.111 45.2333 49.8288C45.2333 49.7033 45.1389 49.4368 45.1389 49.4211C45.1389 49.3897 44.9657 49.1232 45.0287 49.2016C44.8556 48.9664 44.7611 48.9193 44.4936 48.7939C44.6037 48.8409 44.3519 48.7469 44.3519 48.7469C44.289 48.7312 44.226 48.7155 44.1788 48.6998V48.7155Z" fill="#F39B4A"/>
<path d="M33.3499 42.6645C31.2094 45.5652 30.9104 49.6733 32.5944 52.8563C33.0351 53.703 33.6332 54.4557 34.0266 55.3337C34.3729 56.0707 34.4673 56.9017 34.7191 57.67C34.9552 58.3913 35.333 59.0812 36.0255 59.4419C36.7809 59.8495 37.6938 59.7398 38.402 59.2694C40.448 57.9209 39.9129 55.0985 39.7713 53.0288C39.7241 52.2762 38.5437 52.2762 38.5909 53.0288C38.6538 53.9696 38.7483 54.9104 38.7483 55.8512C38.7483 56.6352 38.6224 57.4819 38.04 58.062C37.6308 58.454 36.9698 58.7049 36.4661 58.3286C35.9625 57.9523 35.8366 57.278 35.6949 56.7292C35.5061 56.0237 35.3487 55.3337 35.0339 54.6595C34.6562 53.8755 34.1526 53.1856 33.7276 52.433C32.9879 51.1002 32.6574 49.5949 32.7046 48.074C32.7675 46.3335 33.3499 44.6558 34.3886 43.2446C34.5775 42.9937 34.4358 42.5861 34.184 42.4449C33.885 42.2725 33.5702 42.3979 33.3814 42.6488L33.3499 42.6645Z" fill="#231F20"/>
<path d="M31.6347 49.3439C30.9108 50.0966 30.596 51.1157 30.4071 52.1193C30.234 52.9816 30.1396 53.8754 30.171 54.7535C30.2025 55.6786 30.3599 56.635 30.8006 57.4661C31.2413 58.2971 31.9023 58.7832 32.7522 59.0968C33.6493 59.426 34.7353 59.5044 35.6639 59.2065C35.9629 59.1124 36.1675 58.7988 36.0731 58.4852C35.9944 58.1873 35.6481 57.9678 35.3491 58.0776C35.1917 58.1246 35.0343 58.1717 34.8769 58.1873C34.9871 58.1717 34.8769 58.1873 34.8454 58.1873C34.7982 58.1873 34.751 58.1873 34.7038 58.1873C34.6094 58.1873 34.5149 58.1873 34.4048 58.1873C34.3103 58.1873 34.2316 58.1873 34.1372 58.1873C34.09 58.1873 34.0428 58.1873 33.9798 58.1873C33.9798 58.1873 33.8696 58.1873 33.9483 58.1873C33.7437 58.156 33.5391 58.1089 33.3503 58.0619C32.9883 57.9521 32.7994 57.8737 32.4532 57.6542C32.4374 57.6542 32.3272 57.5758 32.4217 57.6385C32.3902 57.6229 32.3587 57.5915 32.343 57.5758C32.28 57.5288 32.2328 57.4661 32.1699 57.4033C32.0754 57.3093 32.0125 57.2152 31.918 57.0427C31.5718 56.4469 31.4144 55.6629 31.3829 54.9573C31.3672 54.5496 31.3672 54.1419 31.3829 53.7343C31.3987 53.3266 31.4459 53.0757 31.5088 52.6994C31.6662 51.8057 31.8708 50.8335 32.4846 50.1906C33.004 49.6418 32.1699 48.8108 31.6505 49.3596L31.6347 49.3439Z" fill="#231F20"/>
<path d="M46.2876 43.2602C48.0975 45.7219 48.5225 49.1558 47.2004 51.9311C46.8384 52.6837 46.3663 53.358 45.9571 54.0793C45.5479 54.8005 45.2803 55.4904 45.0914 56.2744C44.8554 57.2152 44.4462 59.0968 43.0454 58.3755C42.2585 57.9678 41.9752 57.1211 41.928 56.2901C41.865 55.2082 42.0067 54.1106 42.0696 53.0444C42.1168 52.2918 40.9364 52.2918 40.8892 53.0444C40.7633 54.9103 40.2597 57.3877 41.7548 58.8773C42.3529 59.4731 43.2028 59.8337 44.0527 59.6769C44.8396 59.5201 45.422 58.9243 45.7367 58.2187C46.0515 57.5131 46.1774 56.7762 46.382 56.0392C46.6496 55.0984 47.2319 54.2988 47.7198 53.4677C48.6484 51.9154 49.1678 50.1593 49.152 48.3404C49.152 46.3177 48.5067 44.3107 47.3106 42.68C47.1217 42.4292 46.807 42.3037 46.5079 42.4762C46.2561 42.6173 46.1145 43.025 46.3033 43.2759L46.2876 43.2602Z" fill="#231F20"/>
<path d="M48.6803 51.8374C48.6803 51.8374 48.7117 51.9158 48.7275 51.9314C48.7275 51.9314 48.6645 51.7746 48.696 51.853C48.696 51.853 48.696 51.8844 48.7117 51.9001C48.7432 51.9785 48.7747 52.0569 48.7904 52.1196C48.8377 52.2607 48.8849 52.4175 48.9163 52.5743C48.9636 52.7468 48.995 52.9193 49.0265 53.0917C49.0265 53.1701 49.058 53.2485 49.058 53.3426C49.0423 53.2015 49.0737 53.4681 49.058 53.3426C49.058 53.3897 49.058 53.4367 49.0737 53.4994C49.121 53.8757 49.1367 54.2677 49.1367 54.644C49.1367 54.8322 49.1367 55.036 49.1052 55.2242C49.1052 55.3183 49.1052 55.4124 49.0737 55.5064C49.0737 55.5535 49.0737 55.6005 49.058 55.6475C49.0423 55.8043 49.0737 55.5221 49.058 55.6789C48.995 56.0395 48.9321 56.4002 48.8062 56.7451C48.7747 56.8235 48.7432 56.9019 48.7275 56.9803C48.7275 56.996 48.7275 57.0117 48.7117 57.0274C48.6803 57.1058 48.7432 56.9647 48.7432 56.9647C48.7275 57.0117 48.696 57.0587 48.6803 57.1058C48.6173 57.2469 48.5386 57.388 48.4442 57.5291C48.4284 57.5605 48.4127 57.5762 48.3812 57.6075C48.3025 57.733 48.4757 57.4978 48.3812 57.6075C48.334 57.6702 48.2868 57.7173 48.2396 57.7643C48.1924 57.8114 48.1294 57.8584 48.0822 57.9054C48.035 57.9525 48.2238 57.8114 48.0822 57.9054C48.0507 57.9211 48.0192 57.9525 47.9878 57.9682C47.9248 57.9995 47.8619 58.0309 47.7989 58.0622C47.7202 58.0936 47.9563 57.9995 47.8304 58.0622C47.7989 58.0622 47.7517 58.0936 47.7202 58.0936C47.6572 58.1093 47.5786 58.125 47.5156 58.1406C47.4526 58.1406 47.6887 58.1406 47.5313 58.1406C47.4841 58.1406 47.4369 58.1406 47.3897 58.1406C47.2953 58.1406 47.2166 58.1406 47.1221 58.1406C47.0277 58.1406 47.2008 58.1406 47.2008 58.1406C47.1693 58.1406 47.1379 58.1406 47.1221 58.1406C47.0749 58.1406 47.012 58.125 46.9647 58.1093C46.8546 58.0779 46.7444 58.0466 46.65 58.0152C46.6028 57.9995 46.5398 57.9682 46.4926 57.9525C46.6657 57.9995 46.4926 57.9525 46.4296 57.9211C46.1463 57.78 45.8473 57.5448 45.5168 57.5762C45.3279 57.5762 45.1548 57.6702 45.0131 57.8114L44.9187 57.9368C44.9974 57.8427 45.0289 57.8114 44.9974 57.8427C45.0604 57.78 45.2335 57.7173 45.3594 57.7016H45.4853C45.5797 57.7643 45.6112 57.78 45.564 57.7486C45.5325 57.7173 45.4853 57.7016 45.4538 57.6702C45.202 57.4821 44.7771 57.6232 44.6512 57.8741C44.4938 58.1877 44.6039 58.4856 44.8558 58.6737C45.1548 58.8933 45.5955 58.9403 45.8473 58.6424C45.8945 58.5953 46.0519 58.4229 45.863 58.6267C45.8945 58.5953 45.9103 58.5953 45.8316 58.6424C45.7056 58.7208 45.564 58.7678 45.4223 58.7365C45.501 58.7521 45.3751 58.7051 45.3751 58.7051C45.3909 58.7051 45.6899 58.8776 45.7371 58.8933C46.1935 59.1285 46.6657 59.2853 47.1693 59.3323C47.9248 59.4107 48.696 59.0971 49.1996 58.5013C49.719 57.8898 50.0023 57.1214 50.1597 56.3375C50.3171 55.5064 50.3643 54.644 50.3014 53.7973C50.2384 52.9506 50.081 52.0569 49.7033 51.2572C49.5774 50.975 49.1524 50.8809 48.9006 51.0534C48.6173 51.2415 48.5544 51.5551 48.696 51.853L48.6803 51.8374Z" fill="#231F20"/>
<path d="M50.1749 56.2593C51.796 55.7575 53.0551 54.4247 53.5587 52.8254C53.7004 52.3863 53.7634 51.916 53.7791 51.4456L53.181 52.0414C53.181 52.0414 53.3227 52.0414 53.3856 52.0414C53.5115 52.0414 53.2912 52.0257 53.3541 52.0414C53.3856 52.0414 53.4171 52.0414 53.4486 52.0571C53.4801 52.0571 53.5115 52.0884 53.5587 52.0884L53.4801 52.0571C53.4801 52.0571 53.5115 52.0728 53.543 52.0884C53.5902 52.1198 53.6532 52.1668 53.7004 52.1982L53.6374 52.1511C53.6374 52.1511 53.6689 52.1825 53.6847 52.1982C53.7161 52.2139 53.7319 52.2452 53.7634 52.2609C53.7948 52.2766 53.8106 52.308 53.8263 52.3393C53.8735 52.3863 53.8735 52.4334 53.8263 52.3393C53.8578 52.402 53.905 52.4491 53.9365 52.5118C53.9522 52.5431 53.968 52.5745 53.9837 52.6059C53.9837 52.6215 53.9994 52.6529 54.0152 52.6686C53.9837 52.5902 53.968 52.5588 53.9837 52.6059C53.9994 52.6686 54.0309 52.7313 54.0467 52.794C54.0467 52.8411 54.0624 52.8724 54.0781 52.9195C54.1096 53.0763 54.0781 52.8254 54.0781 52.9508C54.0781 53.1233 54.0939 53.2958 54.0781 53.4683C54.0781 53.5153 54.0781 53.5467 54.0781 53.5937C54.0781 53.6251 54.0781 53.7662 54.0781 53.5937C54.0781 53.6721 54.0467 53.7662 54.0309 53.8446C53.9994 54.0327 53.9522 54.2052 53.905 54.3934C53.842 54.6913 53.9994 55.0519 54.3142 55.1146C54.6132 55.1774 54.9595 55.0206 55.0382 54.707C55.2428 53.8289 55.4002 52.9195 55.0382 52.0728C54.7234 51.3828 53.968 50.8027 53.181 50.8968C53.0236 50.9124 52.882 50.9438 52.7561 51.0692C52.6302 51.1947 52.5829 51.3201 52.5829 51.4926C52.5829 51.5867 52.5829 51.6651 52.5829 51.7592C52.5829 51.8062 52.5829 51.8532 52.5829 51.8846C52.5829 51.9003 52.5829 51.9316 52.5829 51.9473C52.5829 52.0571 52.5987 51.8376 52.5829 51.9003C52.5515 52.0727 52.52 52.2452 52.4728 52.4177C52.4256 52.5902 52.3626 52.7627 52.2997 52.9351C52.2997 52.9351 52.3626 52.794 52.3154 52.8881C52.3154 52.9038 52.2997 52.9351 52.2839 52.9508C52.2682 52.9979 52.2524 53.0292 52.221 53.0763C52.1895 53.1547 52.1423 53.2331 52.095 53.3115C52.0006 53.4683 51.9062 53.6251 51.796 53.7662C51.7803 53.7975 51.7488 53.8289 51.7331 53.8602C51.6701 53.9386 51.7645 53.8289 51.7645 53.8132C51.7645 53.8289 51.7331 53.8446 51.7173 53.8602C51.6544 53.9386 51.5914 54.0014 51.5285 54.0798C51.4025 54.2209 51.2766 54.3463 51.135 54.4561C51.1035 54.4874 51.072 54.5188 51.0406 54.5345C51.0248 54.5502 50.9146 54.6286 50.9933 54.5658C51.072 54.5031 50.9461 54.5972 50.9304 54.6129C50.8832 54.6442 50.8517 54.6756 50.8045 54.6913C50.6471 54.801 50.474 54.8951 50.3008 54.9892C50.2536 55.0206 50.2064 55.0362 50.1592 55.0519C50.1434 55.0519 50.112 55.0676 50.0962 55.0833C50.1277 55.0676 50.2221 55.0362 50.1277 55.0833C50.0333 55.1146 49.9388 55.1617 49.8287 55.193C49.5296 55.2871 49.3093 55.6007 49.4195 55.9143C49.5296 56.2279 49.8287 56.4161 50.1434 56.322L50.1749 56.2593Z" fill="#231F20"/>
<path d="M49.8599 58.3132C50.8987 58.2818 51.9217 57.9839 52.803 57.4508C53.0706 57.294 53.3382 57.1058 53.5742 56.902C53.6844 56.8079 53.7474 56.6198 53.7474 56.4786C53.7474 56.3375 53.6844 56.165 53.5742 56.0553C53.4641 55.9455 53.3067 55.8828 53.1493 55.8828C52.9762 55.8828 52.866 55.9455 52.7244 56.0553C52.6929 56.0867 52.6457 56.118 52.6142 56.1494L52.7401 56.0553C52.3466 56.3532 51.9374 56.5884 51.481 56.7922L51.6226 56.7295C51.182 56.9177 50.7098 57.0431 50.2376 57.1058H50.395C50.2062 57.1058 50.033 57.1215 49.8442 57.1372C49.5294 57.1372 49.2461 57.4038 49.2461 57.733C49.2461 58.0623 49.4979 58.3289 49.8442 58.3289L49.8599 58.3132Z" fill="#231F20"/>
<path d="M17.4852 25.9656C17.2491 26.3105 17.0288 26.6712 16.9028 27.0631C16.6982 27.659 16.7297 28.3175 16.8084 28.9447C17.3435 33.1783 20.3968 36.6278 22.0494 40.5478C22.3327 41.2063 22.5845 41.8962 23.041 42.445C23.4974 42.9938 24.2528 43.3701 24.9453 43.1663C25.6851 42.9625 26.0943 42.1942 26.4405 41.5199C27.3061 43.7621 29.6984 45.0636 32.0593 45.581C33.9164 45.9887 35.8523 46.0043 37.7567 46.0043C40.0703 46.02 42.3839 46.0357 44.6817 45.926C46.5704 45.8319 48.4905 45.628 50.2532 44.9381C52.016 44.2482 53.6213 42.9625 54.361 41.222C54.8017 41.8022 55.2424 42.4137 55.872 42.79C56.171 42.9781 56.6274 43.3074 56.9894 43.1506C57.1783 43.0565 57.3199 42.8841 57.4458 42.7273C59.5548 39.9833 60.2631 36.7846 61.2546 33.5389C61.8999 31.4065 62.5609 29.1956 62.3721 26.9847C62.3091 26.2635 62.1517 25.5265 61.7582 24.915C61.4907 24.4917 61.1287 24.131 60.7667 23.7861C59.5391 22.5944 58.28 21.3871 56.7061 20.7128C55.5572 20.2268 54.424 20.117 53.2278 20.0229C52.1104 19.9288 51.4651 19.4584 50.4736 18.9253C49.2774 18.2825 47.9868 17.6866 46.7278 17.1535C42.7931 15.4758 38.2918 15.2563 34.1682 16.3538C31.6658 17.0751 29.0531 18.1257 26.9756 19.678C26.7868 19.8191 26.6136 19.9602 26.3933 20.0386C25.2916 20.5247 24.0482 20.6815 22.9308 21.2459C20.7588 22.3435 18.8702 23.9899 17.5009 25.9969L17.4852 25.9656Z" fill="#5C564D"/>
<path d="M50.3477 44.4207C50.6309 44.1541 50.8513 43.8249 50.9929 43.4485C52.1733 40.1244 49.4663 37.8822 46.9481 37.1139C45.5946 36.7062 44.0836 36.5651 42.6986 36.9257C42.1635 37.0669 41.5025 37.6627 40.9988 37.6941C39.9443 37.7725 38.5279 36.8003 37.3789 36.7533C36.1985 36.6905 34.7191 36.8317 33.6016 37.1766C31.6658 37.7725 29.9817 39.1052 29.305 41.3631C29.2105 41.6924 29.1318 42.0374 29.1318 42.398C29.2263 46.9138 35.3014 45.973 37.7409 45.9887C40.0545 46.0043 42.3681 46.02 44.666 45.8946C46.0982 45.8162 48.9469 45.7378 50.3319 44.4207H50.3477Z" fill="#F39B4A"/>
<path d="M32.9408 35.7959C33.7927 35.7959 34.4832 35.1079 34.4832 34.2593C34.4832 33.4106 33.7927 32.7227 32.9408 32.7227C32.089 32.7227 31.3984 33.4106 31.3984 34.2593C31.3984 35.1079 32.089 35.7959 32.9408 35.7959Z" fill="#231F20"/>
<path d="M47.3891 35.7959C48.2409 35.7959 48.9315 35.1079 48.9315 34.2593C48.9315 33.4106 48.2409 32.7227 47.3891 32.7227C46.5372 32.7227 45.8467 33.4106 45.8467 34.2593C45.8467 35.1079 46.5372 35.7959 47.3891 35.7959Z" fill="#231F20"/>
<path d="M40.1651 38.4464C41.8079 38.4464 43.1397 37.6251 43.1397 36.6119C43.1397 35.5987 41.8079 34.7773 40.1651 34.7773C38.5222 34.7773 37.1904 35.5987 37.1904 36.6119C37.1904 37.6251 38.5222 38.4464 40.1651 38.4464Z" fill="#231F20"/>
<path d="M24.8826 19.3808C22.3172 20.5254 19.5 21.7484 17.7215 24.0063C16.8086 25.1666 16.2893 26.5465 16.2421 28.0204C16.1948 29.8863 17.0762 31.611 17.9418 33.2261C18.4612 34.1825 18.9491 35.1547 19.4055 36.1425C19.862 37.1303 20.3184 38.1652 20.885 39.1217C21.2784 39.7645 22.3015 39.1844 21.908 38.5258C20.9637 36.9422 20.3341 35.2017 19.4685 33.571C18.6658 32.0501 17.5956 30.435 17.4382 28.6789C17.1706 25.8565 19.1065 23.8182 21.3571 22.454C22.6635 21.6544 24.0642 21.0272 25.465 20.4C26.1575 20.0864 25.5594 19.0829 24.8669 19.3808H24.8826Z" fill="#231F20"/>
<path d="M26.0631 23.4564C25.7955 25.2439 26.2834 26.9843 26.551 28.7405C26.8186 30.4966 26.9445 32.3625 26.9759 34.1814C26.9917 35.6553 26.9759 37.1605 26.6926 38.6031C26.4093 40.0456 25.827 41.2216 24.8984 42.2721C24.741 42.4446 24.5522 42.7112 24.2846 42.6641C24.0171 42.6171 23.8125 42.3035 23.6708 42.1153C23.2616 41.5509 23.0098 40.908 22.7422 40.2808C22.4432 39.5909 21.4202 40.1867 21.7192 40.8766C22.1756 41.9429 22.7894 43.5892 24.0958 43.8401C24.8355 43.9812 25.4335 43.4952 25.8585 42.962C26.3307 42.3819 26.7871 41.7547 27.1176 41.0805C27.8416 39.6066 28.0462 37.9445 28.1249 36.3138C28.2193 34.4009 28.1406 32.4723 27.9517 30.5593C27.8416 29.4617 27.6999 28.3798 27.5111 27.2822C27.3065 26.1219 27.0389 24.9303 27.212 23.7543C27.3222 23.0173 26.189 22.6881 26.0788 23.4407L26.0631 23.4564Z" fill="#231F20"/>
<path d="M53.3701 20.5558C56.266 21.3555 59.6184 22.2963 61.1922 25.1029C62.7661 27.9096 61.6172 31.516 60.5784 34.2443C59.9331 35.9377 59.1777 37.5841 58.5639 39.2932C58.2963 39.9987 59.4452 40.3123 59.6971 39.6068C60.8775 36.3767 62.5143 33.2878 62.955 29.8382C63.1753 28.1762 63.1124 26.4514 62.4041 24.9148C61.7588 23.5036 60.5784 22.3903 59.2878 21.575C57.5881 20.5088 55.605 19.96 53.6849 19.4268C52.9451 19.223 52.6461 20.352 53.3701 20.5558Z" fill="#231F20"/>
<path d="M52.016 23.9585C52.9289 27.6903 52.1891 31.5475 52.4095 35.342C52.5197 37.1138 52.8187 38.8857 53.5269 40.5164C53.9834 41.5826 54.6601 42.7899 55.6989 43.4014C57.1311 44.2482 58.2958 43.0565 58.8466 41.7864C59.1457 41.0965 58.1384 40.5007 57.8236 41.1906C57.6347 41.6296 57.3514 42.3195 56.8635 42.492C56.6117 42.5861 56.2969 42.4136 56.0609 42.2098C55.1952 41.4885 54.6601 40.2812 54.2981 39.2463C53.2279 36.079 53.5899 32.6921 53.6528 29.4151C53.6843 27.4708 53.6214 25.5265 53.1492 23.6292C52.9761 22.8923 51.8271 23.2059 52.016 23.9428V23.9585Z" fill="#231F20"/>
<path d="M27.2749 20.8067C29.4154 18.345 32.5631 17.2004 35.7424 16.777C38.9216 16.3536 42.5415 16.4634 45.7365 17.3885C47.5622 17.9216 49.2777 18.7683 50.7099 20.0227C51.2765 20.5245 52.1107 19.6934 51.5441 19.1917C48.7898 16.7613 45.1856 15.7578 41.5814 15.4756C37.9773 15.1933 34.4361 15.4285 31.1781 16.7143C29.3682 17.4356 27.7156 18.5018 26.425 19.9757C25.9371 20.5402 26.7556 21.3869 27.2592 20.8067H27.2749Z" fill="#231F20"/>
<path d="M26.7087 43.0101C27.2438 44.045 28.1724 44.8447 29.1954 45.3621C29.6991 45.613 30.2499 45.7384 30.8008 45.8639C32.4533 46.2245 34.1531 46.4597 35.8372 46.6322C36.5769 46.7106 37.3166 46.7733 38.0563 46.7262C38.3711 46.7106 38.6544 46.4754 38.6544 46.1304C38.6544 45.8325 38.3868 45.5189 38.0563 45.5346C37.4425 45.5816 36.8287 45.5346 36.2306 45.4719C35.428 45.4091 34.6095 45.2994 33.8698 45.2053C32.5635 45.0171 31.1942 44.829 29.9351 44.4056C29.7777 44.3429 29.9981 44.4527 29.9351 44.4056C29.825 44.3272 29.6676 44.2645 29.5417 44.2018C29.3213 44.0764 29.0852 43.9352 28.8806 43.7784C28.4085 43.4021 28.015 42.9474 27.7317 42.4143C27.5901 42.1321 27.1809 42.0537 26.929 42.2105C26.6457 42.3829 26.567 42.7279 26.7244 43.0101H26.7087Z" fill="#231F20"/>
<path d="M43.4074 46.5842C45.8154 46.5058 48.3651 46.3177 50.6158 45.3926C51.9535 44.8438 53.1025 44.0441 53.9209 42.8524C54.2671 42.3507 54.519 41.8176 54.755 41.2688C54.881 40.9709 54.8337 40.6416 54.5504 40.4691C54.2986 40.328 53.8737 40.3907 53.7478 40.673C53.5432 41.1434 53.3228 41.6137 53.0553 42.0371C52.9923 42.1469 52.9136 42.2566 52.8349 42.3664C52.8034 42.4134 52.772 42.4605 52.7247 42.5075C52.8349 42.3507 52.6775 42.5702 52.6461 42.6016C52.4572 42.8211 52.2683 43.0249 52.048 43.2131C52.0008 43.2601 51.9536 43.2915 51.8906 43.3385C51.8591 43.3699 51.8276 43.3856 51.7962 43.4169C51.6545 43.511 51.5129 43.6208 51.3712 43.6992C51.0564 43.8873 50.7417 44.0598 50.4112 44.2009C50.4112 44.2009 50.2538 44.2636 50.3325 44.2323C50.4112 44.2009 50.2538 44.2636 50.2538 44.2636C50.1593 44.3107 50.0492 44.342 49.9547 44.3734C49.7344 44.4518 49.514 44.5302 49.2937 44.5929C48.8058 44.734 48.3179 44.8595 47.83 44.9535C46.382 45.2358 44.8869 45.3455 43.4074 45.3926C42.652 45.4239 42.652 46.5999 43.4074 46.5686V46.5842Z" fill="#231F20"/>
<path d="M35.4845 28.8696C35.5662 28.1642 34.7224 27.4877 33.5998 27.3587C32.4773 27.2297 31.501 27.697 31.4194 28.4024C31.3377 29.1078 32.1815 29.7843 33.304 29.9133C34.4266 30.0423 35.4028 29.575 35.4845 28.8696Z" fill="#F39B4A"/>
<path d="M47.1389 29.9206C48.2614 29.7916 49.1052 29.1151 49.0236 28.4097C48.9419 27.7043 47.9657 27.237 46.8431 27.366C45.7206 27.495 44.8768 28.1715 44.9584 28.8769C45.0401 29.5823 46.0163 30.0496 47.1389 29.9206Z" fill="#F39B4A"/>
</svg>
