<svg width="80" height="76" viewBox="0 0 80 76" fill="none" xmlns="http://www.w3.org/2000/svg">
<path d="M33.4447 45.4535C34.2473 44.0736 35.6009 43.0074 37.1275 42.537C38.0561 42.2548 39.0476 42.1921 40.0234 42.1764C41.5186 42.1607 43.0453 42.2548 44.4303 42.8036C47.5308 44.0109 49.5296 47.5545 48.9473 50.8316C48.8844 51.1452 48.8214 51.4745 48.8686 51.7881C48.9316 52.086 49.089 52.3369 49.2463 52.6034C49.9546 53.8578 50.2536 55.3474 50.0805 56.79C51.5442 56.5077 52.819 55.4258 53.3384 54.046C53.4486 53.7638 53.5588 53.4188 53.8421 53.309C54.0309 53.2306 54.2355 53.262 54.4244 53.3561C55.1799 53.7481 55.1484 54.83 54.928 55.6453C54.7706 56.1784 54.5818 56.7116 54.267 57.1663C53.5588 58.2011 52.2839 58.7499 51.0248 58.797C50.5527 58.8126 50.049 58.7813 49.6398 58.9851C49.4037 59.1106 49.1991 59.2987 48.9788 59.4555C48.2705 59.9573 47.2947 60.067 46.4921 59.7221C46.3347 59.6594 46.193 59.581 46.0356 59.5496C45.595 59.5026 45.2487 59.8789 44.871 60.1141C44.0526 60.6158 42.8722 60.3806 42.3213 59.5966C41.0307 60.2709 39.5041 60.2395 38.0404 60.2082C37.2849 60.1925 36.5452 60.1611 35.7897 60.1454C34.5778 60.1141 33.2715 60.0357 32.3272 59.283C31.619 58.7029 31.2255 57.8248 31.0524 56.9154C30.8792 56.006 30.895 55.0495 31.1153 54.1557C31.4773 52.6662 32.4216 51.3177 32.5633 49.7811C32.7049 48.2445 32.6262 46.8646 33.4604 45.4535H33.4447Z" fill="#5C564D"/>
<path d="M36.9387 58.1072C36.136 58.1072 35.5379 57.8564 35.6481 58.7658C35.837 60.3808 37.6784 60.5062 38.7329 59.5498C39.0477 59.2519 39.6615 58.5463 39.268 58.17C38.9375 57.8407 37.3951 58.1072 36.9387 58.1072Z" fill="#F39B4A"/>
<path d="M43.3601 58.1072C42.5574 58.1072 41.9593 57.8564 42.0695 58.7658C42.2584 60.3808 44.0998 60.5062 45.1543 59.5498C45.4691 59.2519 46.0829 58.5463 45.6894 58.17C45.3589 57.8407 43.8165 58.1072 43.3601 58.1072Z" fill="#F39B4A"/>
<path d="M39.8975 54.3909C39.8975 54.046 39.9289 53.6853 39.9447 53.3247C39.9447 53.2463 39.9447 53.1522 39.9132 53.0738C39.9132 53.0738 39.8975 52.917 39.9132 53.0111C39.9132 52.9484 39.8975 52.8857 39.8817 52.823C39.8345 52.5721 39.7873 52.3212 39.7086 52.0703C39.6771 51.9449 39.6299 51.8351 39.5827 51.7254C39.5827 51.7254 39.567 51.6783 39.5512 51.6627C39.5355 51.6156 39.504 51.5686 39.4725 51.5059C39.3938 51.3491 39.2994 51.2079 39.205 51.0668C39.1892 51.0511 39.1735 51.0198 39.1577 51.0041C39.1105 50.9571 39.0791 50.91 39.0318 50.863C38.9689 50.8003 38.8902 50.7375 38.8272 50.6748C38.8115 50.6591 38.8115 50.6591 38.7958 50.6435C38.7958 50.6435 38.7958 50.6435 38.78 50.6435C38.6698 50.5807 38.5597 50.5023 38.4338 50.4239C38.3551 50.3769 38.2921 50.3456 38.2134 50.3142C38.1977 50.3142 38.1977 50.3142 38.1819 50.2985C38.0403 50.2515 37.9144 50.2044 37.7727 50.1731C37.694 50.1574 37.6154 50.1417 37.5367 50.126C37.5209 50.126 37.458 50.126 37.4107 50.1104C37.3635 50.1104 37.3006 50.1104 37.2848 50.1104C37.2219 50.1104 37.1432 50.1104 37.0802 50.1104C36.9386 50.1104 36.7969 50.1104 36.6553 50.126C36.6553 50.126 36.6553 50.126 36.6396 50.126C36.5766 50.126 36.5136 50.1574 36.4507 50.1731C36.3248 50.2044 36.2146 50.2515 36.0887 50.2828C36.1202 50.2828 36.1202 50.2828 36.1359 50.2828C36.1202 50.2828 36.1044 50.2828 36.0887 50.2985C36.0415 50.3299 35.9785 50.3612 35.9313 50.3926C35.8211 50.4553 35.7897 50.518 35.8998 50.3926C35.8684 50.4396 35.8054 50.471 35.7739 50.5023C35.7424 50.5337 35.7267 50.5494 35.6952 50.5807C35.6952 50.5807 35.6795 50.5964 35.6638 50.6278C35.6323 50.6748 35.6165 50.7219 35.5851 50.7689C35.5851 50.7689 35.5851 50.8003 35.5851 50.8159C35.5851 50.863 35.5693 50.9414 35.5378 50.9884C35.5378 50.9884 35.5378 50.9884 35.5378 51.0041C35.5378 51.0825 35.5378 51.1609 35.5378 51.2393C35.5378 51.2707 35.5378 51.2863 35.5378 51.3177C35.5693 51.4588 35.6008 51.6156 35.648 51.7567C35.648 51.8038 35.6795 51.8508 35.6952 51.8978C35.6952 51.8978 35.711 51.9292 35.7267 51.9606C35.7424 51.9919 35.7897 52.0703 35.7897 52.0703C35.8211 52.1017 35.8211 52.1174 35.8369 52.133C35.8684 52.1644 35.8998 52.1958 35.9313 52.2271C35.9785 52.2742 36.0415 52.3212 36.0887 52.3682C36.1044 52.3682 36.1359 52.3996 36.1517 52.4153C36.2776 52.4937 36.4035 52.5721 36.5294 52.6505C36.7969 52.8073 37.096 52.9484 37.3635 53.0895C37.9144 53.3561 38.481 53.6697 38.8902 54.1401C39.2994 54.6261 39.4568 55.1906 39.4253 55.7864C39.5984 55.7864 39.7716 55.7864 39.9447 55.8021C39.9604 55.4728 39.9762 55.1436 39.9762 54.8143C39.9289 54.7045 39.8817 54.5791 39.8975 54.4223V54.3909Z" fill="#F39B4A"/>
<path d="M44.5247 50.0007C44.3359 49.9536 44.3988 49.9693 44.2414 49.9693C44.0998 49.9693 43.9581 49.9693 43.8165 49.9693C43.7063 49.9693 43.7221 49.9693 43.5647 50.0163C43.061 50.1261 42.6204 50.3299 42.3528 50.6906C41.8334 51.3648 41.7232 52.3056 41.676 53.215C41.739 53.7952 41.739 54.391 41.7232 54.9868C41.9121 54.6262 42.1482 54.2969 42.3843 54.0147C42.8092 53.5443 43.3758 53.215 43.9267 52.9171C44.1942 52.776 44.446 52.6506 44.6979 52.4938C44.9182 52.3683 45.1071 52.2429 45.2015 52.1488C45.3274 52.0234 45.3904 51.9606 45.4218 51.9136C45.4533 51.8666 45.5635 51.6314 45.5163 51.7411C45.595 51.5059 45.6107 51.3962 45.5792 51.1139C45.5792 50.9885 45.4848 50.7219 45.4848 50.7063C45.4848 50.6749 45.3117 50.4083 45.3746 50.4867C45.2015 50.2515 45.1071 50.2045 44.8395 50.0791C44.9497 50.1261 44.6979 50.032 44.6979 50.032C44.6349 50.0163 44.572 50.0007 44.5247 49.985V50.0007Z" fill="#F39B4A"/>
<path d="M33.6966 43.9482C31.5561 46.8489 31.257 50.957 32.9411 54.14C33.3818 54.9867 33.9799 55.7394 34.3733 56.6174C34.7196 57.3544 34.814 58.1854 35.0658 58.9537C35.3019 59.675 35.6796 60.3649 36.3721 60.7255C37.1276 61.1332 38.0404 61.0235 38.7487 60.5531C40.7947 59.2046 40.2596 56.3822 40.118 54.3125C40.0707 53.5599 38.8903 53.5599 38.9376 54.3125C39.0005 55.2533 39.0949 56.1941 39.0949 57.1349C39.0949 57.9189 38.969 58.7656 38.3867 59.3457C37.9775 59.7377 37.3165 59.9886 36.8128 59.6123C36.3092 59.236 36.1833 58.5617 36.0416 58.0129C35.8528 57.3073 35.6954 56.6174 35.3806 55.9432C35.0029 55.1592 34.4992 54.4693 34.0743 53.7167C33.3346 52.3839 33.0041 50.8786 33.0513 49.3577C33.1142 47.6172 33.6966 45.9395 34.7353 44.5283C34.9242 44.2774 34.7825 43.8698 34.5307 43.7286C34.2317 43.5562 33.9169 43.6816 33.728 43.9325L33.6966 43.9482Z" fill="#231F20"/>
<path d="M31.9809 50.6276C31.2569 51.3802 30.9422 52.3994 30.7533 53.4029C30.5802 54.2653 30.4858 55.1591 30.5172 56.0371C30.5487 56.9623 30.7061 57.9187 31.1468 58.7498C31.5875 59.5808 32.2485 60.0669 33.0984 60.3805C33.9955 60.7097 35.0815 60.7881 36.01 60.4902C36.3091 60.3961 36.5137 60.0825 36.4193 59.7689C36.3406 59.471 35.9943 59.2515 35.6953 59.3613C35.5379 59.4083 35.3805 59.4553 35.2231 59.471C35.3333 59.4553 35.2231 59.471 35.1916 59.471C35.1444 59.471 35.0972 59.471 35.05 59.471C34.9556 59.471 34.8611 59.471 34.7509 59.471C34.6565 59.471 34.5778 59.471 34.4834 59.471C34.4362 59.471 34.389 59.471 34.326 59.471C34.326 59.471 34.2158 59.471 34.2945 59.471C34.0899 59.4397 33.8853 59.3926 33.6965 59.3456C33.3345 59.2358 33.1456 59.1574 32.7993 58.9379C32.7836 58.9379 32.6734 58.8595 32.7679 58.9222C32.7364 58.9065 32.7049 58.8752 32.6892 58.8595C32.6262 58.8125 32.579 58.7498 32.516 58.687C32.4216 58.593 32.3587 58.4989 32.2642 58.3264C31.918 57.7306 31.7606 56.9466 31.7291 56.241C31.7134 55.8333 31.7134 55.4256 31.7291 55.018C31.7449 54.6103 31.7921 54.3594 31.855 53.9831C32.0124 53.0893 32.217 52.1172 32.8308 51.4743C33.3502 50.9255 32.516 50.0945 31.9967 50.6433L31.9809 50.6276Z" fill="#231F20"/>
<path d="M46.6338 44.5439C48.4437 47.0056 48.8687 50.4395 47.5466 53.2148C47.1846 53.9674 46.7125 54.6417 46.3033 55.3629C45.8941 56.0842 45.6265 56.7741 45.4376 57.5581C45.2016 58.4989 44.7923 60.3805 43.3916 59.6592C42.6047 59.2515 42.3214 58.4048 42.2741 57.5738C42.2112 56.4919 42.3528 55.3943 42.4158 54.3281C42.463 53.5754 41.2826 53.5754 41.2354 54.3281C41.1095 56.194 40.6058 58.6714 42.101 60.161C42.6991 60.7568 43.549 61.1174 44.3989 60.9606C45.1858 60.8038 45.7681 60.208 46.0829 59.5024C46.3977 58.7968 46.5236 58.0599 46.7282 57.3229C46.9958 56.3821 47.5781 55.5825 48.066 54.7514C48.9946 53.1991 49.514 51.443 49.4982 49.6241C49.4982 47.6014 48.8529 45.5944 47.6568 43.9637C47.4679 43.7128 47.1532 43.5874 46.8541 43.7599C46.6023 43.901 46.4607 44.3087 46.6495 44.5596L46.6338 44.5439Z" fill="#231F20"/>
<path d="M49.026 53.121C49.026 53.121 49.0574 53.1994 49.0732 53.2151C49.0732 53.2151 49.0102 53.0583 49.0417 53.1367C49.0417 53.1367 49.0417 53.1681 49.0574 53.1838C49.0889 53.2622 49.1204 53.3406 49.1361 53.4033C49.1834 53.5444 49.2306 53.7012 49.2621 53.858C49.3093 54.0305 49.3407 54.203 49.3722 54.3754C49.3722 54.4538 49.4037 54.5322 49.4037 54.6263C49.4194 54.7517 49.388 54.4852 49.4037 54.6263C49.4037 54.6733 49.4037 54.7204 49.4194 54.7831C49.4667 55.1594 49.4824 55.5514 49.4824 55.9277C49.4824 56.1159 49.4824 56.3197 49.4509 56.5079C49.4509 56.602 49.4509 56.696 49.4194 56.7901C49.4194 56.8372 49.4194 56.8842 49.4037 56.9312C49.388 57.088 49.4194 56.8058 49.4037 56.9626C49.3407 57.3232 49.2778 57.6839 49.1519 58.0288C49.1204 58.1072 49.0889 58.1856 49.0732 58.264C49.0732 58.2797 49.0732 58.2954 49.0574 58.3111C49.026 58.3895 49.0889 58.2483 49.0889 58.2483C49.0732 58.2954 49.0417 58.3424 49.026 58.3895C48.963 58.5306 48.8843 58.6717 48.7899 58.8128C48.7742 58.8442 48.7584 58.8599 48.7269 58.8912C48.8214 58.7815 48.6482 59.0167 48.7269 58.8912C48.6797 58.9539 48.6325 59.001 48.5853 59.048C48.5381 59.095 48.4751 59.1421 48.4279 59.1891C48.5695 59.095 48.3807 59.2362 48.4279 59.1891C48.3964 59.2048 48.3649 59.2362 48.3335 59.2518C48.2705 59.2832 48.2076 59.3146 48.1446 59.3459C48.0659 59.3773 48.302 59.2832 48.1761 59.3459C48.1446 59.3459 48.0974 59.3773 48.0659 59.3773C48.003 59.393 47.9243 59.4086 47.8613 59.4243C47.7983 59.4243 48.0344 59.4243 47.877 59.4243C47.8298 59.4243 47.7826 59.4243 47.7354 59.4243C47.641 59.4243 47.5623 59.4243 47.4678 59.4243C47.3734 59.4243 47.5465 59.4243 47.5465 59.4243C47.5151 59.4243 47.4836 59.4243 47.4678 59.4243C47.4206 59.4243 47.3577 59.4086 47.3104 59.393C47.2003 59.3616 47.0901 59.3302 46.9957 59.2989C46.9485 59.2832 46.8855 59.2518 46.8383 59.2362C47.0114 59.2832 46.8383 59.2362 46.7753 59.2048C46.492 59.0637 46.193 58.8285 45.8625 58.8599C45.6736 58.8599 45.5005 58.9539 45.3588 59.095L45.2644 59.2205C45.3431 59.1264 45.3746 59.095 45.3431 59.1264C45.4061 59.0637 45.5792 59.001 45.7051 58.9853H45.831C45.9254 59.048 45.9569 59.0637 45.9097 59.0323C45.8782 59.001 45.831 58.9853 45.7995 58.9539C45.5477 58.7658 45.1228 58.9069 44.9969 59.1578C44.8395 59.4714 44.9496 59.7693 45.2015 59.9574C45.5005 60.177 45.9412 60.224 46.193 59.9261C46.2402 59.879 46.3976 59.7066 46.2087 59.9104C46.2402 59.879 46.256 59.879 46.1773 59.9261C46.0514 60.0045 45.9097 60.0515 45.7681 60.0202C45.8467 60.0358 45.7208 59.9888 45.7208 59.9888C45.7366 59.9888 46.0356 60.1613 46.0828 60.177C46.5392 60.4122 47.0114 60.5689 47.5151 60.616C48.2705 60.6944 49.0417 60.3808 49.5453 59.785C50.0647 59.1734 50.348 58.4051 50.5054 57.6211C50.6628 56.7901 50.71 55.9277 50.6471 55.081C50.5841 54.2343 50.4267 53.3406 50.049 52.5409C49.9231 52.2587 49.4981 52.1646 49.2463 52.3371C48.963 52.5252 48.9001 52.8388 49.0417 53.1367L49.026 53.121Z" fill="#231F20"/>
<path d="M50.5211 57.5425C52.1422 57.0407 53.4013 55.7079 53.9049 54.1086C54.0466 53.6695 54.1095 53.1992 54.1253 52.7288L53.5272 53.3246C53.5272 53.3246 53.6689 53.3246 53.7318 53.3246C53.8577 53.3246 53.6374 53.3089 53.7003 53.3246C53.7318 53.3246 53.7633 53.3246 53.7948 53.3403C53.8262 53.3403 53.8577 53.3716 53.9049 53.3716L53.8262 53.3403C53.8262 53.3403 53.8577 53.356 53.8892 53.3716C53.9364 53.403 53.9994 53.45 54.0466 53.4814L53.9836 53.4344C53.9836 53.4344 54.0151 53.4657 54.0309 53.4814C54.0623 53.4971 54.0781 53.5284 54.1095 53.5441C54.141 53.5598 54.1568 53.5912 54.1725 53.6225C54.2197 53.7166 54.2197 53.6696 54.1725 53.6225C54.204 53.6852 54.2512 53.7323 54.2827 53.795C54.2984 53.8264 54.3141 53.8577 54.3299 53.8891C54.3299 53.9047 54.3456 53.9361 54.3614 53.9518C54.3299 53.8734 54.3141 53.842 54.3299 53.8891C54.3456 53.9518 54.3771 54.0145 54.3928 54.0772C54.3928 54.1243 54.4086 54.1556 54.4243 54.2027C54.4558 54.3595 54.4243 54.1086 54.4243 54.234C54.4243 54.4065 54.4401 54.579 54.4243 54.7515C54.4243 54.7985 54.4243 54.8299 54.4243 54.8769C54.4243 55.0494 54.4243 54.9083 54.4243 54.8769C54.4243 54.9553 54.3928 55.0494 54.3771 55.1278C54.3456 55.3159 54.2984 55.4884 54.2512 55.6766C54.1882 55.9745 54.3456 56.3351 54.6604 56.3978C54.9594 56.4606 55.3057 56.3038 55.3844 55.9902C55.589 55.1121 55.7464 54.2027 55.3844 53.356C55.0696 52.666 54.3141 52.0859 53.5272 52.18C53.3698 52.1956 53.2282 52.227 53.1023 52.3524C52.9764 52.4779 52.9291 52.6033 52.9291 52.7758C52.9291 52.8699 52.9291 52.9483 52.9291 53.0424C52.9291 53.0894 52.9291 53.1364 52.9291 53.1678C52.9291 53.1835 52.9291 53.2148 52.9291 53.2305C52.9291 53.3403 52.9449 53.1208 52.9291 53.1835C52.8977 53.356 52.8662 53.5284 52.819 53.7009C52.7718 53.8734 52.7088 54.0459 52.6458 54.2183C52.6458 54.2183 52.7088 54.0772 52.6616 54.1713C52.6616 54.187 52.6458 54.2183 52.6301 54.234C52.6144 54.2811 52.5986 54.3124 52.5671 54.3595C52.5357 54.4379 52.4885 54.5163 52.4412 54.5947C52.3468 54.7515 52.2524 54.9083 52.1422 55.0494C52.1265 55.0807 52.095 55.1121 52.0792 55.1434C52.0163 55.2218 52.1107 55.1121 52.1107 55.0964C52.1107 55.1121 52.0792 55.1278 52.0635 55.1434C52.0006 55.2218 51.9376 55.2846 51.8746 55.363C51.7487 55.5041 51.6228 55.6295 51.4812 55.7393C51.4497 55.7706 51.4182 55.802 51.3867 55.8177C51.371 55.8334 51.2608 55.9118 51.3395 55.849C51.4182 55.7863 51.2923 55.8804 51.2766 55.8961C51.2294 55.9274 51.1979 55.9588 51.1507 55.9745C50.9933 56.0842 50.8201 56.1783 50.647 56.2724C50.5998 56.3038 50.5526 56.3194 50.5054 56.3351C50.4896 56.3351 50.4582 56.3508 50.4424 56.3665C50.4739 56.3508 50.5683 56.3194 50.4739 56.3665C50.3795 56.3978 50.285 56.4449 50.1749 56.4762C49.8758 56.5703 49.6555 56.8839 49.7657 57.1975C49.8758 57.5111 50.1749 57.6993 50.4896 57.6052L50.5211 57.5425Z" fill="#231F20"/>
<path d="M50.2063 59.5964C51.2451 59.565 52.2681 59.2671 53.1495 58.734C53.417 58.5772 53.6846 58.389 53.9207 58.1852C54.0309 58.0911 54.0938 57.903 54.0938 57.7618C54.0938 57.6207 54.0309 57.4483 53.9207 57.3385C53.8105 57.2287 53.6531 57.166 53.4957 57.166C53.3226 57.166 53.2124 57.2287 53.0708 57.3385C53.0393 57.3699 52.9921 57.4012 52.9606 57.4326L53.0865 57.3385C52.6931 57.6364 52.2839 57.8716 51.8274 58.0754L51.9691 58.0127C51.5284 58.2009 51.0562 58.3263 50.5841 58.389H50.7415C50.5526 58.389 50.3795 58.4047 50.1906 58.4204C49.8758 58.4204 49.5925 58.687 49.5925 59.0162C49.5925 59.3455 49.8443 59.6121 50.1906 59.6121L50.2063 59.5964Z" fill="#231F20"/>
<path d="M17.8316 27.2497C17.5955 27.5947 17.3752 27.9553 17.2493 28.3473C17.0447 28.9432 17.0762 29.6017 17.1548 30.2289C17.69 34.4624 20.7433 37.912 22.3958 41.832C22.6791 42.4905 22.931 43.1804 23.3874 43.7292C23.8438 44.278 24.5993 44.6543 25.2918 44.4505C26.0315 44.2466 26.4407 43.4783 26.787 42.8041C27.6526 45.0463 30.0449 46.3477 32.4057 46.8652C34.2629 47.2728 36.1987 47.2885 38.1031 47.2885C40.4167 47.3042 42.7303 47.3199 45.0281 47.2101C46.9168 47.1161 48.8369 46.9122 50.5997 46.2223C52.3624 45.5324 53.9678 44.2466 54.7075 42.5062C55.1482 43.0863 55.5888 43.6979 56.2184 44.0742C56.5174 44.2623 56.9738 44.5916 57.3358 44.4348C57.5247 44.3407 57.6664 44.1682 57.7923 44.0115C59.9013 41.2675 60.6095 38.0688 61.601 34.8231C62.2463 32.6906 62.9074 30.4798 62.7185 28.2689C62.6555 27.5477 62.4981 26.8107 62.1047 26.1992C61.8371 25.7758 61.4751 25.4152 61.1131 25.0703C59.8855 23.8786 58.6264 22.6712 57.0525 21.997C55.9036 21.5109 54.7704 21.4012 53.5743 21.3071C52.4568 21.213 51.8115 20.7426 50.82 20.2095C49.6239 19.5666 48.3333 18.9708 47.0742 18.4377C43.1395 16.76 38.6382 16.5404 34.5147 17.638C32.0122 18.3593 29.3996 19.4098 27.3221 20.9621C27.1332 21.1033 26.9601 21.2444 26.7397 21.3228C25.638 21.8089 24.3947 21.9656 23.2772 22.5301C21.1053 23.6277 19.2166 25.2741 17.8474 27.2811L17.8316 27.2497Z" fill="#5C564D"/>
<path d="M50.6941 45.7049C50.9774 45.4383 51.1977 45.109 51.3394 44.7327C52.5198 41.4086 49.8127 39.1664 47.2945 38.3981C45.941 37.9904 44.4301 37.8493 43.0451 38.2099C42.5099 38.351 41.8489 38.9469 41.3453 38.9782C40.2908 39.0566 38.8743 38.0845 37.7254 38.0374C36.545 37.9747 35.0655 38.1158 33.9481 38.4608C32.0122 39.0566 30.3282 40.3894 29.6514 42.6473C29.557 42.9766 29.4783 43.3215 29.4783 43.6822C29.5727 48.198 35.6479 47.2572 38.0874 47.2728C40.401 47.2885 42.7145 47.3042 45.0124 47.1788C46.4446 47.1004 49.2933 47.022 50.6783 45.7049H50.6941Z" fill="#F39B4A"/>
<path d="M33.287 37.0806C34.1389 37.0806 34.8294 36.3926 34.8294 35.5439C34.8294 34.6953 34.1389 34.0073 33.287 34.0073C32.4352 34.0073 31.7446 34.6953 31.7446 35.5439C31.7446 36.3926 32.4352 37.0806 33.287 37.0806Z" fill="#231F20"/>
<path d="M47.7353 37.0806C48.5871 37.0806 49.2777 36.3926 49.2777 35.5439C49.2777 34.6953 48.5871 34.0073 47.7353 34.0073C46.8834 34.0073 46.1929 34.6953 46.1929 35.5439C46.1929 36.3926 46.8834 37.0806 47.7353 37.0806Z" fill="#231F20"/>
<path d="M40.511 39.7306C42.1538 39.7306 43.4856 38.9092 43.4856 37.8961C43.4856 36.8829 42.1538 36.0615 40.511 36.0615C38.8682 36.0615 37.5364 36.8829 37.5364 37.8961C37.5364 38.9092 38.8682 39.7306 40.511 39.7306Z" fill="#231F20"/>
<path d="M25.2288 20.664C22.6634 21.8086 19.8462 23.0316 18.0677 25.2895C17.1548 26.4498 16.6355 27.8297 16.5882 29.3036C16.541 31.1695 17.4224 32.8942 18.288 34.5093C18.8074 35.4657 19.2953 36.4379 19.7517 37.4257C20.2082 38.4135 20.6646 39.4484 21.2312 40.4049C21.6246 41.0477 22.6477 40.4676 22.2542 39.809C21.3099 38.2254 20.6803 36.4849 19.8147 34.8542C19.012 33.3333 17.9418 31.7183 17.7844 29.9621C17.5168 27.1397 19.4527 25.1014 21.7033 23.7372C23.0096 22.9376 24.4104 22.3104 25.8111 21.6832C26.5036 21.3696 25.9056 20.3661 25.2131 20.664H25.2288Z" fill="#231F20"/>
<path d="M26.4093 24.7405C26.1417 26.528 26.6296 28.2685 26.8972 30.0246C27.1647 31.7808 27.2907 33.6467 27.3221 35.4655C27.3379 36.9394 27.3221 38.4447 27.0388 39.8872C26.7555 41.3298 26.1732 42.5058 25.2446 43.5563C25.0872 43.7288 24.8984 43.9953 24.6308 43.9483C24.3632 43.9013 24.1586 43.5877 24.017 43.3995C23.6078 42.835 23.356 42.1922 23.0884 41.565C22.7894 40.8751 21.7664 41.4709 22.0654 42.1608C22.5218 43.227 23.1356 44.8734 24.4419 45.1243C25.1817 45.2654 25.7797 44.7793 26.2047 44.2462C26.6768 43.6661 27.1333 43.0389 27.4638 42.3646C28.1878 40.8907 28.3924 39.2287 28.4711 37.598C28.5655 35.685 28.4868 33.7564 28.2979 31.8435C28.1878 30.7459 28.0461 29.664 27.8572 28.5664C27.6526 27.4061 27.3851 26.2144 27.5582 25.0385C27.6684 24.3015 26.5352 23.9722 26.425 24.7249L26.4093 24.7405Z" fill="#231F20"/>
<path d="M53.716 21.84C56.612 22.6396 59.9643 23.5804 61.5382 26.3871C63.1121 29.1938 61.9631 32.8002 60.9244 35.5284C60.2791 37.2219 59.5236 38.8682 58.9098 40.5773C58.6422 41.2829 59.7912 41.5965 60.043 40.8909C61.2234 37.6609 62.8602 34.572 63.3009 31.1224C63.5213 29.4604 63.4583 27.7356 62.7501 26.199C62.1048 24.7878 60.9244 23.6745 59.6338 22.8592C57.934 21.7929 55.9509 21.2441 54.0308 20.711C53.2911 20.5072 52.992 21.6361 53.716 21.84Z" fill="#231F20"/>
<path d="M52.3624 25.2427C53.2753 28.9745 52.5356 32.8317 52.7559 36.6262C52.8661 38.398 53.1651 40.1698 53.8734 41.8005C54.3298 42.8668 55.0066 44.0741 56.0453 44.6856C57.4775 45.5323 58.6422 44.3407 59.1931 43.0706C59.4921 42.3807 58.4848 41.7849 58.17 42.4748C57.9812 42.9138 57.6979 43.6037 57.21 43.7762C56.9582 43.8703 56.6434 43.6978 56.4073 43.494C55.5417 42.7727 55.0066 41.5653 54.6446 40.5305C53.5743 37.3632 53.9363 33.9763 53.9993 30.6992C54.0308 28.7549 53.9678 26.8106 53.4956 24.9134C53.3225 24.1764 52.1736 24.49 52.3624 25.227V25.2427Z" fill="#231F20"/>
<path d="M27.6211 22.0909C29.7616 19.6292 32.9093 18.4845 36.0886 18.0612C39.2678 17.6378 42.8877 17.7476 46.0827 18.6727C47.9084 19.2058 49.6239 20.0525 51.0561 21.3069C51.6227 21.8087 52.4569 20.9776 51.8903 20.4759C49.136 18.0455 45.5318 17.042 41.9276 16.7598C38.3235 16.4775 34.7823 16.7127 31.5243 17.9985C29.7144 18.7197 28.0618 19.786 26.7712 21.2599C26.2833 21.8243 27.1017 22.671 27.6054 22.0909H27.6211Z" fill="#231F20"/>
<path d="M27.0544 44.2933C27.5895 45.3282 28.5181 46.1279 29.5411 46.6453C30.0448 46.8962 30.5956 47.0216 31.1465 47.1471C32.799 47.5077 34.4988 47.7429 36.1829 47.9154C36.9226 47.9938 37.6623 48.0565 38.402 48.0094C38.7168 47.9938 39.0001 47.7586 39.0001 47.4136C39.0001 47.1157 38.7325 46.8021 38.402 46.8178C37.7882 46.8648 37.1744 46.8178 36.5763 46.7551C35.7737 46.6923 34.9552 46.5826 34.2155 46.4885C32.9092 46.3003 31.5399 46.1122 30.2808 45.6888C30.3438 45.7359 30.1235 45.6261 30.2808 45.6888C30.1707 45.6104 30.0133 45.5477 29.8874 45.485C29.667 45.3596 29.4309 45.2184 29.2263 45.0616C28.7542 44.6853 28.3607 44.2306 28.0774 43.6975C27.9358 43.4153 27.5266 43.3369 27.2747 43.4937C26.9914 43.6661 26.9127 44.0111 27.0701 44.2933H27.0544Z" fill="#231F20"/>
<path d="M43.7534 47.8684C46.1614 47.79 48.7111 47.6019 50.9617 46.6768C52.2995 46.128 53.4484 45.3283 54.2668 44.1366C54.6131 43.6349 54.8649 43.1018 55.101 42.553C55.2269 42.2551 55.1797 41.9258 54.8964 41.7533C54.6446 41.6122 54.2196 41.6749 54.0937 41.9571C53.8891 42.4275 53.6688 42.8979 53.4012 43.3213C53.3383 43.431 53.2596 43.5408 53.1809 43.6506C53.1494 43.6976 53.1179 43.7446 53.0707 43.7917C53.1809 43.6349 53.0235 43.8544 52.992 43.8858C52.8031 44.1053 52.6143 44.3091 52.3939 44.4973C52.3467 44.5443 52.2995 44.5757 52.2365 44.6227C52.2051 44.6541 52.1736 44.6697 52.1421 44.7011C52.0005 44.7952 51.8588 44.9049 51.7172 44.9833C51.4024 45.1715 51.0876 45.344 50.7571 45.4851C50.7571 45.4851 50.5997 45.5478 50.6784 45.5165C50.7571 45.4851 50.5997 45.5478 50.5997 45.5478C50.5053 45.5949 50.3951 45.6262 50.3007 45.6576C50.0803 45.736 49.86 45.8144 49.6396 45.8771C49.1517 46.0182 48.6638 46.1436 48.1759 46.2377C46.728 46.52 45.2328 46.6297 43.7534 46.6768C42.9979 46.7081 42.9979 47.8841 43.7534 47.8527V47.8684Z" fill="#231F20"/>
<path d="M35.8307 30.1542C35.9124 29.4488 35.0686 28.7724 33.946 28.6434C32.8235 28.5144 31.8472 28.9817 31.7656 29.6871C31.6839 30.3925 32.5277 31.0689 33.6502 31.1979C34.7728 31.3269 35.749 30.8597 35.8307 30.1542Z" fill="#F39B4A"/>
<path d="M47.4846 31.2048C48.6071 31.0758 49.4509 30.3993 49.3693 29.6939C49.2876 28.9885 48.3114 28.5212 47.1888 28.6502C46.0663 28.7792 45.2225 29.4556 45.3041 30.1611C45.3858 30.8665 46.362 31.3338 47.4846 31.2048Z" fill="#F39B4A"/>
</svg>
