<svg width="80" height="76" viewBox="0 0 80 76" fill="none" xmlns="http://www.w3.org/2000/svg">
<path d="M35.7276 44.7337C36.5303 43.3539 37.8838 42.2877 39.4105 41.8173C40.3391 41.535 41.3306 41.4723 42.3064 41.4566C43.8016 41.441 45.3282 41.535 46.7132 42.0838C49.8138 43.2912 51.8126 46.8348 51.2303 50.1119C51.1673 50.4255 51.1044 50.7548 51.1516 51.0684C51.2145 51.3663 51.3719 51.6172 51.5293 51.8837C52.2375 53.1381 52.5366 54.6277 52.3635 56.0702C53.8272 55.788 55.102 54.7061 55.6214 53.3263C55.7315 53.044 55.8417 52.6991 56.125 52.5893C56.3139 52.5109 56.5185 52.5423 56.7073 52.6363C57.4628 53.0283 57.4313 54.1102 57.211 54.9256C57.0536 55.4587 56.8647 55.9918 56.55 56.4465C55.8417 57.4814 54.5669 58.0302 53.3078 58.0772C52.8356 58.0929 52.332 58.0616 51.9228 58.2654C51.6867 58.3908 51.4821 58.579 51.2617 58.7358C50.5535 59.2375 49.5777 59.3473 48.775 59.0023C48.6176 58.9396 48.476 58.8612 48.3186 58.8299C47.8779 58.7828 47.5317 59.1591 47.1539 59.3943C46.3355 59.8961 45.1551 59.6609 44.6043 58.8769C43.3137 59.5511 41.787 59.5198 40.3233 59.4884C39.5679 59.4727 38.8281 59.4414 38.0727 59.4257C36.8608 59.3943 35.5545 59.3159 34.6102 58.5633C33.9019 57.9832 33.5085 57.1051 33.3353 56.1957C33.1622 55.2862 33.1779 54.3298 33.3983 53.436C33.7603 51.9464 34.7046 50.598 34.8462 49.0614C34.9879 47.5247 34.9092 46.1449 35.7433 44.7337H35.7276Z" fill="white"/>
<path d="M37.7422 49.2966C37.5376 49.1241 37.3172 48.9673 37.0497 48.8889C36.908 48.8732 36.7664 48.8575 36.6247 48.8262C36.4044 48.8262 36.1998 48.8575 36.0109 48.9673C35.885 48.9986 35.7591 49.0771 35.6647 49.1711C35.5388 49.2338 35.4601 49.3279 35.3814 49.4534C35.2869 49.5474 35.224 49.6729 35.1768 49.7983C35.0823 49.9865 35.0351 50.1903 35.0351 50.4098C34.9879 50.8489 35.0351 51.3036 35.1296 51.7426C35.161 51.8994 35.2082 52.0405 35.2555 52.1973C35.3499 52.4639 35.4601 52.7304 35.6017 52.9813C35.6332 53.044 35.7119 53.0911 35.7591 53.1538C35.7591 53.1538 35.7591 53.1538 35.7591 53.1695C35.8535 53.5301 36.1368 53.9221 36.4831 54.1103C36.8451 54.2984 37.2858 54.3925 37.695 54.2671C37.8209 54.22 37.9468 54.1573 38.0727 54.1103C38.3088 53.9691 38.4976 53.781 38.6393 53.5458C38.7809 53.3576 38.8754 53.1224 38.9541 52.9029C39.0485 52.6677 39.0642 52.4325 39.0957 52.1816C39.0957 52.0719 39.1115 51.9621 39.0957 51.8524C39.0642 51.6172 39.0485 51.3506 38.9698 51.1154C38.7495 50.4098 38.3088 49.7826 37.7264 49.3279L37.7422 49.2966Z" fill="#5C564D"/>
<path d="M51.1199 47.3058C51.0254 46.7884 50.8051 46.2867 50.3487 46.0828C50.1755 46.0044 50.0024 45.9731 49.8135 45.9731C49.0581 45.9417 48.2869 46.2239 47.7518 46.7571C47.2166 47.2902 46.9176 48.0428 46.9648 48.7954C46.9963 49.3442 47.6416 50.285 48.1295 50.5359C48.8063 50.8808 50.569 50.9279 51.0254 50.2223C51.1671 49.9871 51.1985 49.7049 51.2143 49.4383C51.2458 48.8581 51.23 48.2937 51.1828 47.7135C51.1828 47.5724 51.1513 47.447 51.1199 47.3058Z" fill="#5C564D"/>
<path d="M47.8151 56.6343C47.8151 56.6343 47.7836 56.5872 47.7678 56.5559C47.6734 56.4304 47.579 56.305 47.4845 56.1795C47.3744 56.0541 47.2327 55.9757 47.1068 55.8816C46.855 55.7405 46.6032 55.6621 46.3199 55.6621C46.0995 55.6621 45.8949 55.6935 45.7061 55.8032C45.5172 55.8659 45.3441 55.9757 45.2024 56.1325C45.0136 56.3207 44.8719 56.5559 44.7932 56.8224C44.746 57.1203 44.683 57.4339 44.7145 57.7475C44.7145 57.967 44.7617 58.1866 44.7932 58.4061C44.809 58.5002 44.8247 58.5786 44.8562 58.657C44.9034 58.8608 44.9978 59.0333 45.1395 59.1901C45.2496 59.3625 45.3913 59.488 45.5802 59.5977C45.7533 59.7075 45.9579 59.7702 46.1625 59.7859C46.3671 59.8329 46.5874 59.8173 46.792 59.7545C46.918 59.7075 47.0439 59.6448 47.1698 59.5977C47.4059 59.4566 47.5947 59.2685 47.7364 59.0333C47.7836 58.9078 47.8465 58.7824 47.8938 58.657C47.9252 58.5629 47.9252 58.4688 47.9252 58.3747C47.941 58.3277 47.9724 58.2963 47.9882 58.2493C47.9882 58.2179 48.0039 58.1866 48.0197 58.1552C48.0511 57.9984 48.0826 57.8259 48.0826 57.6691C48.0826 57.481 48.0669 57.2771 48.0039 57.089C47.9567 56.9322 47.8938 56.7754 47.8151 56.6499V56.6343ZM44.9349 57.6848V57.6534C44.9349 57.6534 44.9349 57.6064 44.9349 57.575C44.9349 57.6064 44.9349 57.6534 44.9349 57.6848Z" fill="#5C564D"/>
<path d="M35.9954 43.2289C33.8549 46.1297 33.5559 50.2378 35.2399 53.4208C35.6806 54.2675 36.2787 55.0201 36.6721 55.8982C37.0184 56.6351 37.1128 57.4662 37.3647 58.2345C37.6007 58.9558 37.9785 59.6457 38.671 60.0063C39.4264 60.414 40.3393 60.3042 41.0475 59.8338C43.0936 58.4854 42.5584 55.663 42.4168 53.5933C42.3696 52.8406 41.1892 52.8406 41.2364 53.5933C41.2993 54.5341 41.3938 55.4748 41.3938 56.4156C41.3938 57.1996 41.2679 58.0463 40.6855 58.6265C40.2763 59.0185 39.6153 59.2694 39.1117 58.893C38.608 58.5167 38.4821 57.8425 38.3405 57.2937C38.1516 56.5881 37.9942 55.8982 37.6794 55.224C37.3017 54.44 36.7981 53.7501 36.3731 52.9974C35.6334 51.6646 35.3029 50.1594 35.3501 48.6384C35.413 46.898 35.9954 45.2203 37.0341 43.8091C37.223 43.5582 37.0814 43.1505 36.8295 43.0094C36.5305 42.8369 36.2157 42.9624 36.0269 43.2132L35.9954 43.2289Z" fill="#231F20"/>
<path d="M34.2636 49.8927C33.5397 50.6454 33.2249 51.6646 33.036 52.6681C32.8629 53.5305 32.7685 54.4242 32.7999 55.3023C32.8314 56.2274 32.9888 57.1839 33.4295 58.0149C33.8702 58.8459 34.5312 59.332 35.3811 59.6456C36.2782 59.9749 37.3642 60.0533 38.2928 59.7553C38.5918 59.6613 38.7964 59.3477 38.702 59.0341C38.6233 58.7362 38.277 58.5166 37.978 58.6264C37.8206 58.6734 37.6632 58.7205 37.5058 58.7362C37.616 58.7205 37.5058 58.7362 37.4743 58.7362C37.4271 58.7362 37.3799 58.7362 37.3327 58.7362C37.2383 58.7362 37.1438 58.7362 37.0337 58.7362C36.9392 58.7362 36.8605 58.7362 36.7661 58.7362C36.7189 58.7362 36.6717 58.7362 36.6087 58.7362C36.6087 58.7362 36.4985 58.7362 36.5772 58.7362C36.3726 58.7048 36.168 58.6578 35.9792 58.6107C35.6172 58.501 35.4283 58.4226 35.0821 58.203C35.0663 58.203 34.9562 58.1246 35.0506 58.1874C35.0191 58.1717 34.9876 58.1403 34.9719 58.1246C34.9089 58.0776 34.8617 58.0149 34.7988 57.9522C34.7043 57.8581 34.6414 57.764 34.5469 57.5915C34.2007 56.9957 34.0433 56.2117 34.0118 55.5061C33.9961 55.0984 33.9961 54.6908 34.0118 54.2831C34.0276 53.8754 34.0748 53.6245 34.1377 53.2482C34.2951 52.3545 34.4997 51.3823 35.1135 50.7395C35.6329 50.1907 34.7988 49.3596 34.2794 49.9084L34.2636 49.8927Z" fill="#231F20"/>
<path d="M48.9165 43.8246C50.7264 46.2864 51.1514 49.7202 49.8293 52.4956C49.4673 53.2482 48.9952 53.9224 48.586 54.6437C48.1768 55.365 47.9092 56.0549 47.7203 56.8389C47.4843 57.7797 47.0751 59.6612 45.6743 58.94C44.8874 58.5323 44.6041 57.6856 44.5569 56.8546C44.4939 55.7726 44.6356 54.6751 44.6985 53.6088C44.7457 52.8562 43.5653 52.8562 43.5181 53.6088C43.3922 55.4747 42.8886 57.9521 44.3837 59.4417C44.9818 60.0376 45.8317 60.3982 46.6816 60.2414C47.4685 60.0846 48.0509 59.4888 48.3656 58.7832C48.6804 58.0776 48.8063 57.3406 49.0109 56.6037C49.2785 55.6629 49.8608 54.8632 50.3487 54.0322C51.2773 52.4799 51.7967 50.7238 51.7809 48.9049C51.7809 46.8822 51.1357 44.8752 49.9395 43.2445C49.7506 42.9936 49.4359 42.8682 49.1368 43.0406C48.885 43.1818 48.7434 43.5894 48.9322 43.8403L48.9165 43.8246Z" fill="#231F20"/>
<path d="M51.3092 52.3862C51.3092 52.3862 51.3407 52.4646 51.3564 52.4803C51.3564 52.4803 51.2934 52.3235 51.3249 52.4019C51.3249 52.4019 51.3249 52.4332 51.3406 52.4489C51.3721 52.5273 51.4036 52.6057 51.4193 52.6684C51.4666 52.8095 51.5138 52.9663 51.5453 53.1231C51.5925 53.2956 51.6239 53.4681 51.6554 53.6406C51.6554 53.719 51.6869 53.7974 51.6869 53.8914C51.6712 53.7503 51.7026 54.0169 51.6869 53.8914C51.6869 53.9385 51.6869 53.9855 51.7026 54.0482C51.7499 54.4246 51.7656 54.8166 51.7656 55.1929C51.7656 55.381 51.7656 55.5849 51.7341 55.773C51.7341 55.8671 51.7341 55.9612 51.7026 56.0553C51.7026 56.1023 51.7026 56.1493 51.6869 56.1964C51.6712 56.3532 51.7026 56.0709 51.6869 56.2277C51.6239 56.5884 51.561 56.949 51.4351 57.294C51.4036 57.3724 51.3721 57.4508 51.3564 57.5292C51.3564 57.5448 51.3564 57.5605 51.3406 57.5762C51.3092 57.6546 51.3721 57.5135 51.3721 57.5135C51.3564 57.5605 51.3249 57.6076 51.3092 57.6546C51.2462 57.7957 51.1675 57.9368 51.0731 58.078C51.0574 58.1093 51.0416 58.125 51.0101 58.1563C50.9314 58.2818 51.1046 58.0466 51.0101 58.1563C50.9629 58.2191 50.9157 58.2661 50.8685 58.3131C50.8213 58.3602 50.7583 58.4072 50.7111 58.4543C50.6639 58.5013 50.8528 58.3602 50.7111 58.4543C50.6796 58.4699 50.6481 58.5013 50.6167 58.517C50.5537 58.5483 50.4908 58.5797 50.4278 58.6111C50.3491 58.6424 50.5852 58.5483 50.4593 58.6111C50.4278 58.6111 50.3806 58.6424 50.3491 58.6424C50.2862 58.6581 50.2075 58.6738 50.1445 58.6895C50.0816 58.6895 50.3176 58.6895 50.1602 58.6895C50.113 58.6895 50.0658 58.6895 50.0186 58.6895C49.9242 58.6895 49.8455 58.6895 49.751 58.6895C49.6566 58.6895 49.8297 58.6895 49.8297 58.6895C49.7983 58.6895 49.7668 58.6895 49.751 58.6895C49.7038 58.6895 49.6409 58.6738 49.5937 58.6581C49.4835 58.6267 49.3733 58.5954 49.2789 58.564C49.2317 58.5483 49.1687 58.517 49.1215 58.5013C49.2946 58.5483 49.1215 58.5013 49.0585 58.4699C48.7752 58.3288 48.4762 58.0936 48.1457 58.125C47.9568 58.125 47.7837 58.2191 47.642 58.3602L47.5476 58.4856C47.6263 58.3915 47.6578 58.3602 47.6263 58.3915C47.6893 58.3288 47.8624 58.2661 47.9883 58.2504H48.1142C48.2086 58.3131 48.2401 58.3288 48.1929 58.2975C48.1614 58.2661 48.1142 58.2504 48.0827 58.2191C47.8309 58.0309 47.406 58.172 47.2801 58.4229C47.1227 58.7365 47.2328 59.0344 47.4847 59.2226C47.7837 59.4421 48.2244 59.4891 48.4762 59.1912C48.5234 59.1442 48.6808 58.9717 48.4919 59.1755C48.5234 59.1442 48.5392 59.1442 48.4605 59.1912C48.3346 59.2696 48.1929 59.3167 48.0513 59.2853C48.1299 59.301 48.004 59.2539 48.004 59.2539C48.0198 59.2539 48.3188 59.4264 48.366 59.4421C48.8225 59.6773 49.2946 59.8341 49.7983 59.8811C50.5537 59.9595 51.3249 59.6459 51.8286 59.0501C52.3479 58.4386 52.6312 57.6703 52.7886 56.8863C52.946 56.0553 52.9932 55.1929 52.9303 54.3462C52.8673 53.4994 52.7099 52.6057 52.3322 51.806C52.2063 51.5238 51.7813 51.4297 51.5295 51.6022C51.2462 51.7903 51.1833 52.1039 51.3249 52.4019L51.3092 52.3862Z" fill="#231F20"/>
<path d="M52.8038 56.8237C54.4249 56.322 55.684 54.9892 56.1877 53.3898C56.3293 52.9508 56.3923 52.4804 56.408 52.01L55.8099 52.6058C55.8099 52.6058 55.9516 52.6058 56.0145 52.6058C56.1404 52.6058 55.9201 52.5902 55.9831 52.6058C56.0145 52.6058 56.046 52.6058 56.0775 52.6215C56.109 52.6215 56.1404 52.6529 56.1877 52.6529L56.109 52.6215C56.109 52.6215 56.1404 52.6372 56.1719 52.6529C56.2191 52.6842 56.2821 52.7313 56.3293 52.7626L56.2663 52.7156C56.2663 52.7156 56.2978 52.747 56.3136 52.7626C56.345 52.7783 56.3608 52.8097 56.3923 52.8254C56.4237 52.841 56.4395 52.8724 56.4552 52.9038C56.5024 52.9508 56.5024 52.9978 56.4552 52.9038C56.4867 52.9665 56.5339 53.0135 56.5654 53.0762C56.5811 53.1076 56.5969 53.139 56.6126 53.1703C56.6126 53.186 56.6283 53.2174 56.6441 53.233C56.6126 53.1546 56.5969 53.1233 56.6126 53.1703C56.6283 53.233 56.6598 53.2958 56.6756 53.3585C56.6756 53.4055 56.6913 53.4369 56.707 53.4839C56.7385 53.6407 56.707 53.3898 56.707 53.5153C56.707 53.6878 56.7228 53.8602 56.707 54.0327C56.707 54.0797 56.707 54.1111 56.707 54.1581C56.707 54.1895 56.707 54.3306 56.707 54.1581C56.707 54.2365 56.6756 54.3306 56.6598 54.409C56.6283 54.5972 56.5811 54.7697 56.5339 54.9578C56.471 55.2557 56.6283 55.6164 56.9431 55.6791C57.2422 55.7418 57.5884 55.585 57.6671 55.2714C57.8717 54.3933 58.0291 53.4839 57.6671 52.6372C57.3523 51.9473 56.5969 51.3671 55.8099 51.4612C55.6525 51.4769 55.5109 51.5083 55.385 51.6337C55.2591 51.7591 55.2119 51.8846 55.2119 52.0571C55.2119 52.1511 55.2119 52.2295 55.2119 52.3236C55.2119 52.3706 55.2119 52.4177 55.2119 52.449C55.2119 52.4647 55.2119 52.4961 55.2119 52.5118C55.2119 52.6215 55.2276 52.402 55.2119 52.4647C55.1804 52.6372 55.1489 52.8097 55.1017 52.9822C55.0545 53.1546 54.9915 53.3271 54.9286 53.4996C54.9286 53.4996 54.9915 53.3585 54.9443 53.4526C54.9443 53.4682 54.9286 53.4996 54.9128 53.5153C54.8971 53.5623 54.8813 53.5937 54.8499 53.6407C54.8184 53.7191 54.7712 53.7975 54.724 53.8759C54.6295 54.0327 54.5351 54.1895 54.4249 54.3306C54.4092 54.362 54.3777 54.3933 54.362 54.4247C54.299 54.5031 54.3934 54.3933 54.3934 54.3777C54.3934 54.3933 54.362 54.409 54.3462 54.4247C54.2833 54.5031 54.2203 54.5658 54.1574 54.6442C54.0314 54.7853 53.9055 54.9108 53.7639 55.0205C53.7324 55.0519 53.7009 55.0833 53.6695 55.0989C53.6537 55.1146 53.5435 55.193 53.6222 55.1303C53.7009 55.0676 53.575 55.1616 53.5593 55.1773C53.5121 55.2087 53.4806 55.2401 53.4334 55.2557C53.276 55.3655 53.1029 55.4596 52.9297 55.5536C52.8825 55.585 52.8353 55.6007 52.7881 55.6164C52.7724 55.6164 52.7409 55.632 52.7251 55.6477C52.7566 55.632 52.851 55.6007 52.7566 55.6477C52.6622 55.6791 52.5677 55.7261 52.4576 55.7575C52.1585 55.8516 51.9382 56.1652 52.0484 56.4788C52.1585 56.7924 52.4576 56.9805 52.7723 56.8864L52.8038 56.8237Z" fill="#231F20"/>
<path d="M52.4888 58.862C53.5276 58.8306 54.5506 58.5327 55.432 57.9996C55.6995 57.8428 55.9671 57.6547 56.2032 57.4508C56.3133 57.3567 56.3763 57.1686 56.3763 57.0275C56.3763 56.8864 56.3133 56.7139 56.2032 56.6041C56.093 56.4944 55.9356 56.4316 55.7782 56.4316C55.6051 56.4316 55.4949 56.4944 55.3533 56.6041C55.3218 56.6355 55.2746 56.6668 55.2431 56.6982L55.369 56.6041C54.9755 56.902 54.5663 57.1372 54.1099 57.3411L54.2516 57.2783C53.8109 57.4665 53.3387 57.5919 52.8665 57.6547H53.0239C52.8351 57.6547 52.6619 57.6703 52.4731 57.686C52.1583 57.686 51.875 57.9526 51.875 58.2819C51.875 58.6111 52.1268 58.8777 52.4731 58.8777L52.4888 58.862Z" fill="#231F20"/>
<path d="M45.8155 18.3775C43.675 18.1737 41.5188 18.2051 39.5987 18.3305C37.8517 18.4403 36.1047 18.6911 34.3891 19.0831C31.5877 19.7103 28.7704 19.2086 25.9532 20.2748C23.7498 21.1058 20.8381 22.5327 19.3587 24.4143C19.0911 24.7592 18.9494 25.1826 18.8708 25.6059C18.4615 27.4718 18.8393 29.4475 19.5947 31.2036C20.3502 32.9598 21.4676 34.5277 22.6166 36.0644C23.0258 36.6288 23.4665 37.1933 24.096 37.5069C24.82 37.8675 25.7328 37.8205 26.3939 37.3815C27.0549 36.9424 27.2595 35.7351 28.1409 36.1898C28.7704 36.5034 29.2583 38.3536 29.4944 38.9651C30.2026 40.8153 30.7535 42.8223 32.2015 44.2806C33.6809 45.7545 35.8371 46.3346 37.8989 46.6325C42.0224 47.2284 46.3034 46.9618 50.2066 45.5193C51.5286 45.0332 52.8664 44.3746 53.6848 43.2143C54.094 42.6342 54.3459 41.9756 54.5977 41.3171C55.243 39.608 55.8568 37.8832 56.4234 36.1584C57.3047 33.4929 58.1074 30.6705 57.6353 27.9109C57.2575 25.7 55.7938 22.0623 53.795 20.7922C51.5444 19.3654 48.6957 18.6755 45.8155 18.4089V18.3775Z" fill="white"/>
<path d="M29.8254 19.9293C29.8254 19.9293 29.8254 19.9293 29.8254 19.9137C29.3847 19.2394 28.4089 18.8631 27.6692 19.3492C26.7721 19.9293 26.0481 20.6349 25.4028 21.4816C24.726 22.3754 24.1909 23.52 24.5372 24.6646C24.789 25.4486 25.3398 26.0758 26.1268 26.3424C26.8508 26.5932 27.5905 26.4208 28.2515 26.1072C28.5191 25.9817 28.7394 25.7936 28.9755 25.6211C29.1171 25.5113 29.2588 25.3859 29.3847 25.2448C29.6837 24.8998 29.967 24.5235 30.1559 24.1158C30.4235 23.52 30.5651 22.9869 30.6438 22.3283C30.691 21.8266 30.6281 21.2935 30.4864 20.8074C30.3762 20.4311 30.1244 20.1645 29.8254 19.9607V19.9293Z" fill="#5C564D"/>
<path d="M34.0114 29.0867C34.3891 29.3846 34.6882 29.5728 35.1446 29.7452C35.8686 30.0118 36.6398 29.902 37.3165 29.5884C38.4969 29.0397 39.0793 27.6441 39.0478 26.4054C39.0478 26.0448 38.9848 25.6999 38.9219 25.3549C38.8589 24.9943 38.796 24.6179 38.6071 24.2887C38.1979 23.5831 37.3638 23.2695 36.5768 23.489C36.2778 23.5831 35.963 23.7556 35.6954 23.928C34.9715 24.4141 34.3262 25.0256 33.8225 25.7312C33.6022 25.935 33.3819 26.1546 33.2245 26.4211C32.8625 27.0326 32.9412 27.8009 33.3504 28.3654C33.555 28.632 33.7438 28.8828 33.9957 29.0867H34.0114Z" fill="#5C564D"/>
<path d="M43.0455 21.7796C43.2029 21.952 43.3761 22.1245 43.5807 22.2656C45.611 23.6768 48.9633 21.8736 49.8132 19.8666C49.8447 19.7725 49.8762 19.6785 49.8604 19.6001C49.8289 19.4746 49.6873 19.4119 49.5771 19.3492C48.0505 18.6436 46.3664 18.4241 44.7138 18.2046C43.6436 18.0634 42.1012 17.8596 41.8179 19.2394C41.6448 20.0391 42.2114 20.7917 42.7308 21.4189C42.8409 21.5444 42.9511 21.6698 43.0613 21.7952L43.0455 21.7796Z" fill="#5C564D"/>
<path d="M45.4689 26.7813C45.5004 26.6401 45.5161 26.4833 45.5319 26.3422C45.5319 26.3265 45.5319 26.3109 45.5319 26.2952C45.5319 26.1541 45.5004 25.9973 45.4689 25.8562C45.4689 25.8562 45.4689 25.8405 45.4689 25.8248C45.3745 25.5269 45.2486 25.276 45.0125 25.0565C44.8079 24.8526 44.5089 24.6645 44.2256 24.6018C43.8793 24.5234 43.6275 24.5234 43.2812 24.6018C43.2812 24.6018 43.2655 24.6018 43.2498 24.6018C43.1081 24.6488 42.9822 24.7115 42.8563 24.7742C42.8406 24.7742 42.8248 24.7899 42.8091 24.8056C42.6989 24.884 42.573 24.9781 42.4628 25.0722C42.4628 25.0722 42.4471 25.0722 42.4471 25.1035C42.3527 25.2133 42.2582 25.323 42.1795 25.4485C42.1795 25.4485 42.1795 25.4642 42.1795 25.4798C42.1166 25.6053 42.0536 25.7464 42.0064 25.8875C42.0064 25.8875 42.0064 25.9032 42.0064 25.9189C41.9277 26.3893 41.9435 26.3422 42.0064 26.8126C42.0536 27.0165 42.1481 27.1889 42.2897 27.3457C42.3999 27.5182 42.5415 27.6437 42.7304 27.7534C42.7619 27.7691 42.8091 27.7691 42.8406 27.7848C42.9035 27.8318 42.935 27.8945 42.9979 27.9416C43.1239 27.9886 43.2498 28.0513 43.3757 28.0984C43.659 28.1768 43.9265 28.1768 44.2098 28.0984C44.2098 28.0984 44.2256 28.0984 44.2413 28.0984C44.383 28.0513 44.5089 27.9886 44.6348 27.9259C44.6348 27.9259 44.6348 27.9259 44.6505 27.9259C44.7764 27.8475 44.8866 27.7534 44.9968 27.6593C44.9968 27.6593 45.0125 27.6437 45.0282 27.628C45.0282 27.628 45.2171 27.4085 45.2801 27.2987C45.2801 27.2987 45.2801 27.283 45.2801 27.2673C45.343 27.1262 45.406 27.0008 45.4532 26.8597C45.4532 26.8597 45.4532 26.844 45.4532 26.8283L45.4689 26.7813ZM42.935 25.276C42.935 25.276 43.0137 25.2133 43.0452 25.1819C43.1396 25.1506 43.2183 25.1035 43.3127 25.0722C43.1711 25.1192 43.0452 25.1819 42.935 25.276Z" fill="#5C564D"/>
<path d="M35.7744 46.0527C35.9947 46.0527 36.1993 46.0214 36.3882 45.9116C36.5771 45.8489 36.7502 45.7391 36.8918 45.5823C36.9233 45.551 36.9391 45.5039 36.9705 45.4726C37.002 45.4412 37.0492 45.4412 37.0807 45.3942C37.3483 45.0963 37.5529 44.7043 37.5371 44.2809C37.5214 43.8889 37.3955 43.4342 37.0807 43.1676C36.7502 42.9011 36.4197 42.6345 36.0892 42.3523C35.8531 42.1641 35.617 41.9446 35.3494 41.7878C34.8458 41.5056 34.3107 41.4115 33.7441 41.5369C33.5552 41.584 33.3506 41.6624 33.1932 41.7721C33.0673 41.8662 32.9257 41.9446 32.8155 42.0544C32.8155 42.0544 32.784 42.0857 32.784 42.1014C32.6896 42.1955 32.5794 42.3366 32.5165 42.4464C32.4693 42.5091 32.4535 42.5875 32.422 42.6659C32.422 42.6659 32.3591 42.807 32.3276 42.8854C32.3276 42.9011 32.3276 42.9168 32.3276 42.9324C32.2961 43.0422 32.2646 43.2617 32.2646 43.3715C32.2646 43.3872 32.2646 43.4028 32.2646 43.4185C32.2646 43.5126 32.2961 43.7635 32.3276 43.8419C32.3433 43.9203 32.3906 43.9987 32.422 44.0771C32.4535 44.1555 32.485 44.2495 32.5322 44.3279C32.7683 44.7043 33.0988 44.9238 33.4451 45.1903C33.5867 45.3001 33.7441 45.4098 33.9015 45.5039C33.9802 45.551 34.0746 45.598 34.169 45.645C34.3736 45.7391 34.5782 45.8332 34.7828 45.8959C35.0032 45.9586 35.2393 45.99 35.4754 46.0057C35.5855 46.0057 35.68 46.0057 35.7901 46.0057L35.7744 46.0527Z" fill="#5C564D"/>
<path d="M25.1505 31.6575C24.7885 31.2969 24.3793 30.9833 23.9544 30.7011C23.4979 30.3875 23.0258 30.1052 22.4749 29.9641C21.9398 29.8073 21.3417 29.9641 20.9483 30.3718C20.5076 30.8108 20.4604 31.3283 20.539 31.8927C20.602 32.3474 20.7594 32.7708 20.964 33.1785C20.964 33.4137 21.0269 33.6489 21.1686 33.8684C21.4519 34.2917 21.7509 34.7151 22.0342 35.1384C22.3018 35.5304 22.5693 35.9695 22.9313 36.2831C22.9313 36.2988 22.9628 36.3301 22.9628 36.3458C23.1202 36.6437 23.2461 36.9573 23.4192 37.2395C23.8914 38.0079 24.8357 38.3998 25.6856 38.0392C26.2837 37.7883 26.7401 37.2395 26.8818 36.5967C27.0549 35.8127 26.929 35.0601 26.567 34.4015C26.4411 33.3823 25.8273 32.3945 25.1348 31.6732L25.1505 31.6575ZM22.0185 34.8719C22.0185 34.8719 22.0185 34.8876 22.0342 34.8876C21.7824 34.6367 21.9241 34.7465 22.0027 34.8562L22.0185 34.8719Z" fill="#5C564D"/>
<path d="M21.3728 28.1928C21.8292 28.036 22.2227 27.8008 22.5375 27.4088C22.6319 27.2677 22.6791 27.0796 22.7421 26.9384C22.7578 26.8914 22.7736 26.86 22.7893 26.813C22.8995 26.3583 22.8995 25.9349 22.7893 25.4802C22.7421 25.2764 22.6476 25.0569 22.5532 24.8687C22.4588 24.6806 22.3014 24.4924 22.1755 24.3356C22.0653 24.2572 21.9709 24.1788 21.8607 24.0847C21.6876 23.975 21.483 23.9122 21.2784 23.8966C21.1367 23.8652 20.9951 23.8652 20.8534 23.8966C20.6488 23.8966 20.4442 23.975 20.2711 24.0847C20.1137 24.1945 19.9406 24.3042 19.8147 24.4454C19.7045 24.5551 19.6101 24.6962 19.5156 24.8217C19.4999 24.853 19.4842 24.8687 19.4684 24.9001C19.4212 24.9785 19.3897 25.0882 19.3425 25.1666C19.311 25.2607 19.2638 25.3548 19.2323 25.4489C19.012 26.1701 18.8703 26.9384 18.9018 27.6911C18.9018 27.9106 18.9333 28.1458 19.075 28.3026C19.2323 28.4594 19.4842 28.4751 19.7045 28.4594C20.2554 28.428 20.8377 28.3653 21.3728 28.1772V28.1928ZM22.2227 25.9036C22.2227 25.9036 22.2384 25.9349 22.2542 25.9663C22.2542 25.9663 22.2542 25.9663 22.2542 25.982C22.207 25.8879 22.1597 25.8095 22.0968 25.7311C22.144 25.7938 22.1912 25.8409 22.2384 25.9036H22.2227Z" fill="#5C564D"/>
<path d="M53.4799 19.9605C53.0077 20.7288 53.0707 21.7009 53.1494 22.5947C53.6058 27.1732 54.5501 31.8928 56.1869 36.1891C56.4073 36.7692 56.6591 37.3807 57.1942 37.6943C57.7293 38.0079 58.4218 37.9295 58.9884 37.663C59.9013 37.2396 60.578 36.44 61.1446 35.6246C62.4037 33.8214 63.1435 31.8928 63.8517 29.8388C64.5127 27.9415 65.1423 26.0129 63.7573 24.2411C63.1277 23.4414 62.2936 22.8299 61.4752 22.2184C61.302 22.0929 61.1132 21.9518 60.8928 21.9048C60.6882 21.8577 60.4679 21.8891 60.2948 21.7637C58.957 20.8072 54.8964 17.5928 53.4641 19.9448L53.4799 19.9605Z" fill="#5C564D"/>
<path d="M35.1596 36.8018C36.0114 36.8018 36.702 36.1138 36.702 35.2651C36.702 34.4165 36.0114 33.7285 35.1596 33.7285C34.3077 33.7285 33.6172 34.4165 33.6172 35.2651C33.6172 36.1138 34.3077 36.8018 35.1596 36.8018Z" fill="#231F20"/>
<path d="M51.1654 36.8018C52.0173 36.8018 52.7078 36.1138 52.7078 35.2651C52.7078 34.4165 52.0173 33.7285 51.1654 33.7285C50.3136 33.7285 49.623 34.4165 49.623 35.2651C49.623 36.1138 50.3136 36.8018 51.1654 36.8018Z" fill="#231F20"/>
<path d="M42.3369 40.298C43.9798 40.298 45.3115 39.4766 45.3115 38.4634C45.3115 37.4503 43.9798 36.6289 42.3369 36.6289C40.6941 36.6289 39.3623 37.4503 39.3623 38.4634C39.3623 39.4766 40.6941 40.298 42.3369 40.298Z" fill="#231F20"/>
<path d="M29.5569 18.8164C27.9043 19.0673 26.3462 19.6631 24.8352 20.353C23.466 20.9802 22.0495 21.6388 20.8061 22.4698C19.6572 23.2381 18.6814 24.2416 18.2722 25.5901C17.8158 27.0953 18.162 28.726 18.7286 30.1529C19.3267 31.6895 20.1451 33.1634 21.0107 34.5746C21.7505 35.7976 22.5217 37.2245 23.7493 38.0398C24.8353 38.7611 26.2517 38.5886 27.0859 37.5851C27.92 36.5816 28.2033 35.1548 28.5024 33.869C29.4152 29.9177 30.3438 25.9821 31.2567 22.0308C31.4298 21.2938 30.2966 20.9802 30.1235 21.7172C29.3995 24.8531 28.6598 27.9891 27.9358 31.1407C27.6053 32.5519 27.3534 34.0258 26.9128 35.4056C26.6452 36.2367 26.1101 37.491 25.0241 37.3343C23.828 37.1618 23.0568 35.6252 22.4744 34.7314C21.656 33.4613 20.9006 32.1286 20.2553 30.7644C19.6572 29.5257 19.1536 28.1459 19.248 26.7504C19.3267 25.449 20.1136 24.3984 21.1524 23.6615C22.3485 22.8148 23.7178 22.1876 25.0399 21.5604C26.5822 20.8234 28.1719 20.2119 29.8716 19.961C30.1864 19.914 30.3595 19.522 30.2809 19.2398C30.1864 18.8948 29.8716 18.785 29.5569 18.8321V18.8164Z" fill="#231F20"/>
<path d="M60.0588 22.3757C61.3808 23.05 62.876 23.7869 63.6629 25.104C64.56 26.625 64.1351 28.4595 63.5056 29.9805C62.813 31.6896 61.8372 33.3202 60.83 34.8725C60.2476 35.782 59.0043 37.9771 57.6035 37.1304C57.0841 36.8168 56.7851 36.1897 56.5962 35.6409C56.3129 34.8725 56.1713 34.0415 55.9824 33.2575C55.526 31.3289 55.0696 29.416 54.6761 27.4717C54.3771 26.0135 54.1253 24.5239 53.842 23.0657C53.7161 22.4541 53.6059 21.8426 53.6059 21.2311C53.6059 20.8705 53.6059 20.3844 53.842 20.2276C54.5817 19.6945 56.1083 20.4001 56.8795 20.745C57.9655 21.2311 59.0043 21.8426 60.0588 22.3757C60.7355 22.7207 61.3336 21.7015 60.6568 21.3566C59.5709 20.8078 58.5321 20.1963 57.4304 19.6945C56.3287 19.1927 54.9752 18.6283 53.7633 18.9732C52.4412 19.3495 52.3468 20.7294 52.4727 21.874C52.6458 23.3949 53.0078 24.9159 53.2754 26.4211C53.6846 28.6477 54.204 30.8585 54.7233 33.0537C55.1011 34.6217 55.3057 36.6757 56.5962 37.836C57.1943 38.3848 58.0127 38.6043 58.8154 38.4162C59.6181 38.228 60.2948 37.6008 60.8142 36.958C62.1205 35.3429 63.1593 33.4143 64.0879 31.5641C65.0165 29.7139 65.8506 27.3619 65.0637 25.2765C64.324 23.3165 62.4511 22.2503 60.6726 21.3566C59.9958 21.0116 59.3977 22.0308 60.0745 22.3757H60.0588Z" fill="#231F20"/>
<path d="M32.4997 20.2747C38.6693 18.3774 45.3268 18.3931 51.4806 20.306C52.2046 20.5256 52.5194 19.3966 51.7954 19.1771C45.4369 17.2171 38.5434 17.2014 32.1849 19.1457C31.4609 19.3653 31.7757 20.5099 32.4997 20.2747Z" fill="#231F20"/>
<path d="M39.0162 46.2557C38.0246 45.9734 37.0174 45.7853 35.9943 45.6285C35.6166 45.5658 35.2389 45.5031 34.8612 45.4247C34.688 45.3933 34.5306 45.3463 34.3575 45.2992C34.2788 45.2835 34.2159 45.2522 34.1372 45.2208C34.09 45.2208 34.0585 45.1895 34.0113 45.1738C33.9168 45.1424 34.09 45.2208 33.9483 45.1424C33.8067 45.064 33.6493 45.0013 33.5076 44.9072C33.4289 44.8602 33.3502 44.8131 33.2873 44.7661C33.2401 44.7347 33.2086 44.7034 33.1614 44.672C33.2401 44.7347 33.1456 44.672 33.1142 44.6407C32.7679 44.3427 32.4374 44.0135 32.1541 43.6528C31.3986 42.6964 30.7848 41.5204 30.3127 40.3758C29.7303 38.9175 29.3054 37.3966 28.849 35.907C28.6286 35.1857 27.4954 35.4993 27.7158 36.2206C28.5342 38.9332 29.3054 41.7713 31.0052 44.0919C31.5718 44.8602 32.217 45.5815 33.0669 46.0362C33.7594 46.4125 34.5149 46.585 35.2704 46.7104C36.4193 46.8986 37.5682 47.0867 38.6857 47.4003C39.4254 47.6041 39.7244 46.4752 39.0004 46.2714L39.0162 46.2557Z" fill="#231F20"/>
<path d="M46.3029 47.2754C47.2315 47.0245 48.1758 46.8677 49.1201 46.6482C50.0644 46.4287 50.8671 46.1151 51.654 45.6761C52.5984 45.1429 53.464 44.4844 54.1408 43.622C54.8175 42.7596 55.2897 41.8502 55.6989 40.878C56.1238 39.8118 56.4386 38.7142 56.7377 37.6166C56.9423 36.8797 55.7933 36.5661 55.6045 37.303C55.1008 39.1533 54.5657 41.0505 53.4325 42.6185C52.8817 43.3868 52.1577 43.9983 51.3393 44.5001C50.5681 44.9705 49.8756 45.2527 49.0099 45.4722C48.0027 45.7231 46.9954 45.8799 46.0038 46.1464C45.2641 46.3503 45.5789 47.4792 46.3186 47.2754H46.3029Z" fill="#231F20"/>
</svg>
