<svg width="80" height="76" viewBox="0 0 80 76" fill="none" xmlns="http://www.w3.org/2000/svg">
<path d="M32.0666 46.6571C31.9879 45.5125 32.1453 44.3679 32.4601 43.2703C33.2156 40.6047 34.9783 38.0646 37.5909 37.1708C39.0231 36.6691 40.6442 36.7161 42.0607 37.2806C43.005 37.6569 43.8549 38.2684 44.6104 38.9583C46.0111 40.2284 47.1286 41.8591 47.7109 43.6623C47.9942 44.556 48.1674 45.5282 48.1044 46.4846C48.01 48.0369 46.7981 49.8244 47.3175 51.314C47.9785 53.1956 48.372 54.7165 48.3405 56.7549C49.8829 57.3351 51.4253 55.7984 51.9447 54.45C52.0391 54.1834 52.1493 53.8698 52.4168 53.7444C52.5899 53.666 52.7945 53.6974 52.9519 53.7914C53.6602 54.1521 53.6444 55.1713 53.4241 55.9552C53.2824 56.457 53.0936 56.9588 52.8103 57.3978C52.1335 58.3699 50.9374 58.8874 49.757 58.9344C49.3163 58.9501 48.8441 58.9187 48.4507 59.1069C48.2146 59.2166 48.0414 59.4048 47.8368 59.5459C47.1758 60.0163 46.2472 60.1104 45.4918 59.7968C45.3501 59.7341 45.2085 59.6557 45.0511 59.64C44.6419 59.593 44.3114 59.9536 43.9651 60.1731C43.0995 60.7219 41.9033 60.1418 40.9433 60.1731C39.8101 60.1888 38.6297 60.2986 37.5437 60.2672C36.8355 60.2515 36.1272 60.2202 35.419 60.2045C34.2701 60.1731 33.0424 60.1104 32.1611 59.3891C31.4843 58.856 31.1223 58.0093 30.9649 57.1626C30.7918 56.3002 30.8233 55.4065 31.0279 54.5597C31.3899 53.0545 32.3657 51.7374 32.7749 50.2792C33.0739 49.2286 32.2555 48.131 32.1453 47.0334C32.1453 46.908 32.1138 46.7982 32.1138 46.6728L32.0666 46.6571Z" fill="#8E887C"/>
<path d="M36.4893 58.2605C35.7338 58.2605 35.1672 58.0253 35.2774 58.8877C35.4663 60.4087 37.1975 60.5341 38.1891 59.6247C38.4881 59.3424 39.0547 58.6839 38.6927 58.3233C38.3779 58.0097 36.9142 58.2605 36.4893 58.2605Z" fill="white"/>
<path d="M42.5486 58.2605C41.7931 58.2605 41.2266 58.0253 41.3367 58.8877C41.5256 60.4087 43.2569 60.5341 44.2484 59.6247C44.5474 59.3424 45.114 58.6839 44.752 58.3233C44.4373 58.0097 42.9736 58.2605 42.5486 58.2605Z" fill="white"/>
<path d="M40.3924 49.3541C41.919 48.8367 43.4614 46.6102 44.0123 45.4342C44.8464 43.6624 44.7205 41.4672 43.7132 39.7895C42.706 38.1117 40.8016 36.9984 38.8342 36.9044C38.2676 36.873 37.6696 36.9357 37.1659 37.2023C36.4419 37.5786 35.9698 38.2999 35.655 39.0525C34.0497 42.7059 35.293 47.0022 38.7241 49.0876C39.0546 49.2914 39.4323 49.4796 39.8258 49.4639C40.0146 49.4639 40.2035 49.4168 40.4081 49.3541H40.3924Z" fill="white"/>
<path d="M37.166 34.8504C35.3875 37.218 33.3729 39.3818 32.224 42.1415C31.5945 43.6467 31.264 45.2931 31.4528 46.9238C31.563 47.896 31.8148 48.8211 32.1768 49.7305C32.5073 50.5772 32.885 51.4082 33.1683 52.2863C33.6562 53.8073 33.9553 55.3752 34.1756 56.9432C34.3802 58.3701 34.6163 60.2046 36.143 60.8318C36.9299 61.1611 37.7955 60.9259 38.4566 60.4085C39.1648 59.844 39.5111 59.0286 39.6212 58.1662C39.7943 56.8805 39.5897 55.4693 39.5268 54.1679C39.4638 53.0703 39.4324 51.9727 39.3537 50.8751C39.3064 50.1225 38.126 50.1225 38.1733 50.8751C38.2834 52.6469 38.3464 54.4188 38.4408 56.1749C38.488 56.9432 38.5667 57.7429 38.3464 58.4955C38.1575 59.1384 37.5437 59.9224 36.7883 59.7969C35.419 59.5931 35.4032 57.1627 35.2459 56.1592C35.0255 54.748 34.758 53.3525 34.3173 51.9884C34.0497 51.173 33.7192 50.3734 33.3887 49.5737C33.0896 48.8368 32.8536 48.0841 32.6962 47.3001C32.4286 45.8576 32.6332 44.3837 33.1369 43.0196C34.1914 40.1031 36.3476 37.8452 38.189 35.4148C38.6454 34.8033 37.6224 34.2232 37.166 34.819V34.8504Z" fill="#231F20"/>
<path d="M42.1866 35.6659C43.7133 37.6729 45.4445 39.5231 46.5305 41.828C47.1286 43.0981 47.4748 44.4936 47.3961 45.9048C47.3174 47.316 46.924 48.6331 46.5305 49.9031C46.2787 50.7342 45.9482 51.5338 45.6806 52.3492C45.3029 53.4938 45.0353 54.6698 44.8307 55.8615C44.6891 56.6298 44.6104 57.4138 44.4215 58.1664C44.2798 58.7152 44.0752 59.3737 43.5559 59.6873C42.9578 60.048 42.2496 59.6089 41.9033 59.0915C41.4154 58.3546 41.4941 57.3824 41.5413 56.5514C41.6515 54.6698 41.7144 52.7725 41.8403 50.891C41.8876 50.1383 40.7072 50.1383 40.6599 50.891C40.5498 52.6785 40.4868 54.4816 40.3766 56.2848C40.2822 57.9469 40.3452 59.9539 42.0922 60.7692C43.6818 61.5062 44.9881 60.3302 45.4445 58.872C45.6806 58.135 45.7593 57.351 45.8852 56.5984C46.0268 55.7987 46.1685 54.9991 46.3731 54.1994C46.6092 53.2273 46.9397 52.2708 47.2859 51.33C48.2303 48.6958 49.0172 45.8107 48.2303 43.0354C47.3489 39.9151 45.0983 37.5945 43.1939 35.07C42.7375 34.4742 41.7144 35.07 42.1709 35.6659H42.1866Z" fill="#231F20"/>
<path d="M32.287 49.5739C32.0194 49.8561 31.8463 50.2011 31.6889 50.5617C31.4843 51.0008 31.3112 51.4555 31.1695 51.9259C30.9177 52.6785 30.6816 53.4625 30.5557 54.2465C30.2567 56.1908 30.2252 58.9975 32.1925 60.1264C33.1841 60.6909 34.5219 60.8947 35.6236 60.5341C35.9226 60.44 36.1272 60.1264 36.0328 59.8128C35.9541 59.5149 35.6078 59.2954 35.3088 59.4051C35.2144 59.4365 35.1199 59.4679 35.0255 59.4835C34.9783 59.4835 34.9311 59.4992 34.8681 59.5149C34.758 59.5306 35.0098 59.5149 34.8052 59.5149C34.5691 59.5306 34.3487 59.5306 34.1127 59.5149C33.7822 59.4835 33.2628 59.3581 32.948 59.2013C32.5703 59.0131 32.3499 58.8407 32.1453 58.5271C31.9092 58.1508 31.7991 57.8058 31.6889 57.3511C31.3426 55.7517 31.6889 54.0897 32.1768 52.5217C32.2555 52.2865 32.3342 52.067 32.4129 51.8318C32.4601 51.722 32.4916 51.6123 32.5388 51.5025C32.5545 51.4398 32.586 51.3928 32.6017 51.33C32.6017 51.3144 32.6804 51.1576 32.6332 51.2516C32.7119 51.0635 32.7906 50.891 32.885 50.7185C32.9323 50.6401 32.9795 50.5617 33.0267 50.4833C33.0267 50.4677 33.0582 50.4363 33.0739 50.4206C32.9795 50.5617 33.0739 50.4363 33.0896 50.4206C33.609 49.8718 32.7749 49.0408 32.2555 49.5896L32.287 49.5739Z" fill="#231F20"/>
<path d="M46.8768 51.5806C46.8768 51.5806 46.9082 51.6276 46.9082 51.659C46.9397 51.706 46.8453 51.5022 46.9082 51.6433C46.9397 51.706 46.9554 51.7844 46.9869 51.8472C47.0341 52.004 47.0814 52.1608 47.1286 52.3176C47.2387 52.6939 47.3174 53.0702 47.3804 53.4465C47.3961 53.5563 47.4119 53.6503 47.4276 53.7601C47.4276 53.8071 47.4276 53.8542 47.4433 53.9169C47.4433 53.9483 47.4433 53.9639 47.4433 53.9953C47.4433 54.0737 47.4276 53.8699 47.4433 53.9796C47.4748 54.1991 47.4906 54.4187 47.522 54.6382C47.5693 55.0929 47.585 55.5476 47.585 55.9866C47.585 56.4257 47.5693 56.8647 47.522 57.2881C47.522 57.3194 47.4906 57.4919 47.522 57.3978C47.5535 57.3037 47.522 57.4605 47.522 57.4762C47.522 57.5703 47.4906 57.6801 47.4748 57.7741C47.4433 57.9623 47.3961 58.1348 47.3332 58.3229C47.3017 58.4013 47.286 58.4954 47.2545 58.5738C47.2545 58.5895 47.1915 58.7306 47.2387 58.6365C47.286 58.5424 47.223 58.6679 47.2073 58.6992C47.1443 58.8404 47.0499 58.9658 46.9712 59.0912C47.0814 58.9658 46.9397 59.1383 46.9712 59.0912C46.9554 59.1226 46.924 59.1383 46.9082 59.1696C46.8925 59.201 46.861 59.2167 46.8453 59.2324C46.8453 59.2324 46.8138 59.248 46.8138 59.2637C46.7508 59.3264 46.8453 59.2167 46.861 59.2167C46.8295 59.2167 46.7194 59.3107 46.6879 59.3264C46.6721 59.3264 46.5462 59.3892 46.6564 59.3421C46.7666 59.2951 46.6564 59.3421 46.6092 59.3421C46.5777 59.3421 46.5305 59.3578 46.499 59.3735C46.499 59.3735 46.4675 59.3735 46.4518 59.3735C46.3574 59.4048 46.6092 59.3735 46.5148 59.3735C46.4361 59.3735 46.3574 59.3735 46.2629 59.3735C46.3574 59.3892 46.1056 59.3735 46.2629 59.3735C46.2157 59.3735 46.1685 59.3578 46.1213 59.3421C46.0269 59.3108 45.9324 59.2951 45.838 59.248C45.8223 59.248 45.7908 59.2323 45.775 59.2167C45.7121 59.201 45.901 59.2794 45.8065 59.2167C45.7436 59.1853 45.6963 59.1696 45.6334 59.1383C45.476 59.0599 45.3344 58.9658 45.177 58.9188C44.9409 58.856 44.6576 58.9188 44.4845 59.0912C44.4845 59.0912 44.4372 59.1383 44.4372 59.1539L44.6104 59.0756C44.7363 58.9815 44.8779 58.9815 45.0196 59.0756C44.9881 59.0442 44.9409 59.0285 44.8937 58.9972C44.6419 58.809 44.2326 58.9501 44.091 59.201C43.9179 59.4989 44.0438 59.8125 44.2956 60.0007C44.4372 60.1104 44.6104 60.1888 44.7992 60.1731C44.9094 60.1731 45.0196 60.1418 45.1298 60.0791C45.0038 60.1575 45.3186 59.9536 45.2871 59.9379C45.3344 59.9693 45.114 60.0163 45.0825 60.032C44.9724 60.0634 44.9251 60.032 44.8307 60.032C44.7678 60.032 44.8465 60.032 44.8779 60.0634C44.8937 60.0634 44.9251 60.0947 44.9409 60.0947C45.0353 60.1418 45.1455 60.1888 45.2399 60.2359C45.6334 60.4083 46.0741 60.5338 46.5148 60.4867C47.3332 60.3927 47.9312 59.8439 48.246 59.1069C48.608 58.2602 48.7339 57.3351 48.7654 56.4257C48.7969 55.4378 48.7182 54.45 48.5765 53.4779C48.4506 52.6155 48.2618 51.7374 47.8998 50.9377C47.7581 50.6555 47.3489 50.5771 47.0971 50.7339C46.7981 50.9064 46.7508 51.2513 46.8925 51.5336L46.8768 51.5806Z" fill="#231F20"/>
<path d="M49.2848 57.7587C50.8115 57.2883 52.0234 56.0182 52.4955 54.4973C52.6214 54.0739 52.7001 53.6349 52.7001 53.1802L52.1021 53.776C52.1021 53.776 52.228 53.776 52.3067 53.776C52.4326 53.776 52.2122 53.7603 52.2752 53.776C52.3067 53.776 52.3381 53.776 52.3696 53.7917C52.4011 53.7917 52.4483 53.8074 52.464 53.8231L52.3853 53.7917C52.3853 53.7917 52.4168 53.8074 52.4326 53.8231C52.4798 53.8544 52.5585 53.8858 52.59 53.9171L52.527 53.8701C52.527 53.8701 52.5585 53.9015 52.5742 53.9171C52.59 53.9328 52.6214 53.9642 52.6372 53.9799C52.6529 53.9955 52.6844 54.0269 52.7001 54.0426C52.7316 54.0896 52.7631 54.1523 52.7001 54.0269C52.7316 54.0739 52.7788 54.1367 52.8103 54.1837C52.826 54.2151 52.8418 54.2464 52.8575 54.2621C52.8575 54.2778 52.8732 54.2935 52.889 54.3248C52.8575 54.2307 52.8418 54.2151 52.8575 54.2621C52.8732 54.3248 52.9047 54.3875 52.9205 54.4502C52.9205 54.4816 52.9362 54.5286 52.9519 54.5757C52.9834 54.7325 52.9519 54.4816 52.9519 54.5914C52.9519 54.7482 52.9677 54.905 52.9519 55.0774C52.9519 55.1245 52.9519 55.1558 52.9519 55.2029C52.9519 55.2186 52.9519 55.2499 52.9519 55.2656C52.9519 55.3126 52.9519 55.297 52.9519 55.2029C52.9519 55.2656 52.9205 55.3754 52.9047 55.4381C52.8732 55.6106 52.826 55.783 52.7946 55.9555C52.7316 56.2534 52.889 56.6141 53.2038 56.6768C53.5028 56.7395 53.8491 56.5827 53.9277 56.2691C54.1166 55.4381 54.274 54.56 53.912 53.7603C53.613 53.1018 52.889 52.5373 52.1335 52.6314C51.9761 52.6471 51.8345 52.6784 51.7086 52.8039C51.5827 52.9293 51.5355 53.0547 51.5355 53.2272C51.5355 53.3056 51.5355 53.3997 51.5355 53.4781C51.5355 53.5251 51.5355 53.5565 51.5355 53.6035C51.5355 53.6192 51.5355 53.6506 51.5355 53.6663C51.5355 53.7603 51.5512 53.5408 51.5355 53.6192C51.504 53.776 51.4725 53.9485 51.4253 54.1053C51.4095 54.1837 51.3781 54.2621 51.3466 54.3405C51.3466 54.3718 51.3151 54.4189 51.2994 54.4502C51.2994 54.4659 51.2679 54.5757 51.2522 54.5757C51.2522 54.5757 51.3151 54.4346 51.2679 54.513C51.2679 54.5286 51.2522 54.5443 51.2364 54.5757C51.2207 54.607 51.2049 54.6541 51.1892 54.6854C51.1577 54.7638 51.1105 54.8266 51.079 54.905C51.0003 55.0461 50.9059 55.2029 50.8115 55.3283C50.7957 55.3597 50.7643 55.391 50.7485 55.4224C50.6856 55.5008 50.78 55.3754 50.78 55.3754C50.78 55.3754 50.7485 55.4067 50.7485 55.4224C50.6856 55.4851 50.6383 55.5635 50.5754 55.6262C50.4652 55.7517 50.3393 55.8771 50.2134 55.9869C50.1819 56.0182 50.1504 56.0339 50.119 56.0653C50.1032 56.081 49.9931 56.1593 50.0875 56.0966C50.1819 56.0339 50.056 56.128 50.0403 56.128C50.0088 56.1593 49.9616 56.175 49.9301 56.2064C49.7727 56.3161 49.6153 56.4102 49.4422 56.4886C49.395 56.5043 49.3478 56.5357 49.3006 56.5513C49.3006 56.5513 49.2533 56.5827 49.2376 56.5827C49.2691 56.5827 49.3792 56.52 49.2848 56.567C49.1904 56.5984 49.0959 56.6297 49.0015 56.6611C48.7025 56.7552 48.4821 57.0688 48.5923 57.3824C48.7025 57.696 49.0015 57.8841 49.3163 57.79L49.2848 57.7587Z" fill="#231F20"/>
<path d="M48.9859 59.6874C49.9617 59.6561 50.9375 59.3738 51.7716 58.8721C52.0392 58.7153 52.2753 58.5428 52.5114 58.3546C52.6215 58.2606 52.6845 58.0724 52.6845 57.9313C52.6845 57.7902 52.6215 57.6177 52.5114 57.5079C52.4012 57.3982 52.2438 57.3354 52.0864 57.3354H51.929C51.8346 57.3825 51.7402 57.4295 51.6615 57.5079C51.63 57.5393 51.5985 57.5706 51.5513 57.5863L51.6772 57.4923C51.3152 57.7745 50.9217 57.994 50.4968 58.1822L50.6384 58.1194C50.2135 58.2919 49.7886 58.4174 49.3321 58.4801H49.4895C49.3164 58.4801 49.1433 58.4958 48.9701 58.4958C48.8128 58.4958 48.6711 58.5585 48.5452 58.6682C48.435 58.778 48.3721 58.9348 48.3721 59.0916C48.3721 59.4052 48.6239 59.6874 48.9701 59.6874H48.9859Z" fill="#231F20"/>
<path d="M26.1958 14.7338C25.4089 15.0003 24.7479 15.5491 24.1183 16.0979C23.2369 16.8819 22.4028 17.6972 21.6001 18.5596C21.1437 19.0457 20.6873 19.767 21.0807 20.3001C21.3798 20.6921 21.9778 20.7078 22.4343 20.5196C23.0638 20.2687 24.1183 19.3907 24.8423 19.5318C25.2043 19.6102 25.5033 19.8454 25.7866 20.0806C26.9513 21.0684 28.0373 22.1346 29.0603 23.2636C29.375 23.6085 28.3992 25.788 28.3363 26.3055C28.1632 27.5912 28.4465 29.0494 28.8399 30.2568C29.2806 31.6052 29.9731 32.8439 30.6656 34.067C31.7044 35.9329 32.7589 37.7988 33.7976 39.6646C34.2226 40.4173 34.6475 41.1856 35.3243 41.7344C36.1899 42.44 37.3231 42.6752 38.4091 42.8947C40.6282 43.3337 43.1937 43.663 44.8777 42.1577C46.0109 41.1542 46.4044 39.5862 47.0339 38.2064C48.293 35.4468 50.6381 33.1575 51.2834 30.1784C51.7555 27.9362 51.7241 25.2392 51.1575 23.0441C51.126 22.95 51.1102 22.8559 51.126 22.7461C51.1575 22.6364 51.2361 22.558 51.2991 22.4796C52.1333 21.6172 53.2507 20.2687 54.4154 19.8924C55.8791 19.4377 56.4614 20.4099 57.7048 20.5823C58.775 20.7391 59.7823 19.9708 59.0111 18.8575C58.7435 18.4656 58.3343 18.199 57.9251 17.9324C56.8706 17.2425 55.9578 16.4115 54.9662 15.6432C53.959 14.8592 53.4553 14.4045 52.1333 14.8906C50.9371 15.3296 49.5836 15.7529 48.4976 16.4115C47.8366 16.8192 47.3015 17.6972 46.4044 17.5561C46.0109 17.4934 45.6804 17.2268 45.3341 17.023C43.9334 16.1763 40.6597 16.3331 39.0229 16.3331C36.8982 16.3331 34.679 16.6153 32.8061 17.7129C32.0192 17.0857 31.6257 16.2861 30.7758 15.7216C29.438 14.8435 27.8012 14.1222 26.1801 14.671L26.1958 14.7338Z" fill="#8E887C"/>
<path d="M55.1236 19.6886C55.1236 19.6886 55.0449 19.5945 55.0292 19.5632C54.5413 18.9516 54.0691 18.544 53.4081 18.199C52.9832 17.9795 52.5425 17.8854 52.0703 17.8384C51.1575 18.7008 50.103 19.6259 50.2604 20.9273C50.339 21.6015 50.5909 22.2287 50.8899 22.8559C50.9686 22.8559 51.0473 22.8559 51.1102 22.8559C51.1102 22.8402 51.1102 22.8089 51.1102 22.7932C51.1417 22.6834 51.2204 22.605 51.2834 22.5266C52.1175 21.6643 53.235 20.3158 54.3996 19.9395C54.7144 19.8454 54.9662 19.814 55.2181 19.8297C55.1866 19.7827 55.1551 19.72 55.1079 19.6729L55.1236 19.6886Z" fill="#F9BDBE"/>
<path d="M46.7977 39.4607C47.1439 38.5513 47.2069 37.6105 46.6875 36.8265C46.1052 35.9171 45.1294 35.3369 44.248 34.7411C41.7456 33.0477 41.5882 31.0563 41.4308 28.234C41.3836 27.5127 41.5567 25.9761 40.7383 25.6155C39.8254 25.2078 39.6838 26.0545 39.6051 26.7914C39.4949 27.8733 39.432 28.9553 39.3533 30.0372C39.2116 32.3734 37.984 33.7062 35.9222 34.7881C35.5288 34.992 35.1196 35.1801 34.7733 35.4467C33.8605 36.1836 33.5929 37.5007 33.7975 38.6454C34.3011 41.405 35.8121 42.4085 38.4089 42.926C40.6281 43.365 43.1935 43.6943 44.8776 42.189C45.6016 41.5461 46.4042 40.5269 46.8134 39.445L46.7977 39.4607Z" fill="white"/>
<path d="M30.0046 20.4728C30.0046 20.0651 29.9417 19.6731 29.7056 19.2654C28.4623 17.0546 25.8496 18.6696 24.2443 19.5633C24.1656 19.6104 24.0869 19.6574 24.0239 19.7045C24.3072 19.579 24.5905 19.5163 24.8423 19.5633C25.2043 19.6417 25.5034 19.8769 25.7867 20.1121C26.9356 21.0843 28.0216 22.1348 29.0288 23.2638C29.0918 23.1383 29.1705 22.9972 29.2334 22.8718C29.5954 22.1192 30.0046 21.3038 30.0204 20.4885L30.0046 20.4728Z" fill="#F9BDBE"/>
<path d="M34.6318 30.1785C35.4315 30.1785 36.0798 29.5327 36.0798 28.736C36.0798 27.9393 35.4315 27.2935 34.6318 27.2935C33.8321 27.2935 33.1838 27.9393 33.1838 28.736C33.1838 29.5327 33.8321 30.1785 34.6318 30.1785Z" fill="#231F20"/>
<path d="M45.8535 30.1785C46.6532 30.1785 47.3014 29.5327 47.3014 28.736C47.3014 27.9393 46.6532 27.2935 45.8535 27.2935C45.0538 27.2935 44.4055 27.9393 44.4055 28.736C44.4055 29.5327 45.0538 30.1785 45.8535 30.1785Z" fill="#231F20"/>
<path d="M40.2505 40.7783C41.7977 40.7783 43.052 39.9991 43.052 39.0378C43.052 38.0766 41.7977 37.2974 40.2505 37.2974C38.7032 37.2974 37.449 38.0766 37.449 39.0378C37.449 39.9991 38.7032 40.7783 40.2505 40.7783Z" fill="#231F20"/>
<path d="M31.3739 19.2965C31.6572 18.7948 32.2553 18.6066 32.7589 18.4028C33.4199 18.1519 34.081 17.9324 34.742 17.7286C36.0955 17.3209 37.4963 17.0387 38.9128 16.9289C41.6356 16.7251 44.4056 17.1798 46.7821 18.5596C47.4432 18.9359 48.0412 17.9324 47.3802 17.5404C44.7518 16.0038 41.6356 15.502 38.6137 15.7843C37.0399 15.9254 35.4975 16.2703 33.9865 16.7407C33.2468 16.9759 32.5071 17.2268 31.7831 17.5404C31.185 17.7913 30.6499 18.1362 30.3194 18.7164C29.9574 19.3749 30.9647 19.9708 31.3424 19.3122L31.3739 19.2965Z" fill="#231F20"/>
<path d="M32.806 16.8351C31.3423 15.9727 30.0045 14.7653 28.289 14.4047C27.4076 14.2165 26.5263 14.2636 25.7079 14.6242C24.9367 14.9692 24.3071 15.565 23.6618 16.1138C22.9378 16.7253 22.2139 17.3525 21.4899 17.964C20.8603 18.5128 20.0419 19.187 20.2623 20.1278C20.4354 20.8805 21.2223 21.1941 21.9306 21.147C22.6388 21.1 23.3156 20.8177 23.9294 20.4885C25.2042 19.7986 26.3059 18.701 27.8326 18.6539C28.5881 18.6226 28.5881 17.4466 27.8326 17.4779C26.5263 17.525 25.4403 18.1208 24.3701 18.8264C23.8822 19.14 23.3943 19.4693 22.8592 19.7045C22.6231 19.8142 22.3555 19.8926 22.1037 19.9397C21.9148 19.971 21.6315 19.971 21.5056 19.9397C21.4741 19.9397 21.4269 19.924 21.4112 19.8613C21.4112 19.8142 21.4112 19.7829 21.4112 19.7358C21.4899 19.4222 21.9148 19.14 22.1352 18.9362C22.7647 18.3874 23.41 17.8543 24.0396 17.3055C24.6062 16.8194 25.1413 16.302 25.7708 15.91C26.4004 15.518 27.0457 15.3925 27.7539 15.5023C29.4379 15.7689 30.76 17.0076 32.1765 17.8543C32.8375 18.2463 33.4198 17.2271 32.7746 16.8351H32.806Z" fill="#231F20"/>
<path d="M25.1728 20.5352C25.6292 20.7704 26.0541 21.0369 26.4633 21.3505L26.3374 21.2564C26.8883 21.6798 27.3762 22.1659 27.8011 22.7147L27.7067 22.5892C27.8326 22.7617 27.9585 22.9342 28.0687 23.1066C28.1474 23.2321 28.2733 23.3418 28.4149 23.3732C28.5566 23.4046 28.7455 23.3889 28.8714 23.3105C29.1232 23.138 29.2648 22.7774 29.076 22.5108C28.4149 21.5073 27.565 20.6449 26.5578 19.9864C26.2902 19.8139 26.0227 19.6571 25.7394 19.516C25.5977 19.4376 25.4403 19.4062 25.2829 19.4533C25.1413 19.4846 24.9996 19.5944 24.9367 19.7198C24.795 19.9864 24.858 20.3784 25.1413 20.5195L25.1728 20.5352Z" fill="#231F20"/>
<path d="M29.3121 20.6452C27.9114 24.424 27.1087 28.6105 29.0131 32.3737C29.9732 34.2552 31.4841 35.8075 32.334 37.7675C33.0894 39.4923 33.3885 41.3895 34.9938 42.5969C36.5992 43.8042 38.5822 43.9454 40.4394 43.7886C41.1949 43.7258 41.1949 42.5499 40.4394 42.6126C38.9285 42.7537 37.2759 42.6753 35.9539 41.8443C34.4115 40.8721 34.1282 39.0376 33.4829 37.4853C32.7274 35.6978 31.4841 34.2082 30.4611 32.5775C29.438 30.9468 28.9974 29.1279 29.0446 27.2307C29.0918 25.0826 29.7056 22.9815 30.4611 20.9901C30.7286 20.2845 29.5797 19.9709 29.3279 20.6765L29.3121 20.6452Z" fill="#231F20"/>
<path d="M49.678 20.9588C50.9214 24.2829 51.8185 28.0775 50.2603 31.4643C49.4891 33.1577 48.1986 34.5532 47.2857 36.1682C46.845 36.9522 46.5145 37.7833 46.2312 38.6456C45.9794 39.4296 45.7118 40.2136 45.1767 40.8722C44.1222 42.205 42.4697 42.6754 40.8171 42.597C40.0616 42.5656 40.0616 43.7416 40.8171 43.7729C42.4539 43.8513 44.0907 43.428 45.3656 42.3618C45.9636 41.86 46.4515 41.2015 46.7821 40.4959C47.1913 39.6178 47.4116 38.6456 47.7893 37.7676C48.6078 35.9017 50.04 34.3964 51 32.6089C51.8972 30.9312 52.3221 29.0339 52.2591 27.1367C52.1962 24.9101 51.5824 22.7306 50.8112 20.6609C50.5436 19.9553 49.4104 20.2689 49.678 20.9745V20.9588Z" fill="#231F20"/>
<path d="M47.7894 17.854C49.08 17.0857 50.2604 16.0195 51.7241 15.6118C52.3851 15.4237 53.1091 15.3923 53.7544 15.6589C54.3997 15.9254 54.9348 16.4428 55.4699 16.8976C56.1152 17.4463 56.7762 18.0108 57.4215 18.5596C57.7048 18.7948 58.0039 19.03 58.2714 19.2966C58.3973 19.422 58.6492 19.6572 58.6019 19.8454C58.5862 19.9238 58.5547 19.9081 58.4918 19.9394C58.5705 19.9081 58.3658 19.9708 58.3816 19.9708C58.4603 19.9708 58.2399 19.9708 58.2557 19.9708C58.0039 19.9708 57.7835 19.9238 57.5474 19.8454C56.9808 19.6572 56.4615 19.3593 55.9736 19.03C54.7774 18.2617 53.6442 17.5091 52.1805 17.462C51.4251 17.4307 51.4251 18.6067 52.1805 18.638C53.5341 18.6851 54.5571 19.5318 55.6431 20.206C56.2254 20.5666 56.8549 20.8959 57.516 21.0527C58.177 21.2095 58.9797 21.1938 59.4518 20.6607C60.0971 19.9394 59.6722 19.0143 59.0741 18.4185C58.3973 17.7599 57.6419 17.1798 56.9179 16.5683C56.2569 16.0038 55.5958 15.3766 54.8561 14.8905C54.1164 14.4045 53.2822 14.2006 52.4166 14.279C50.3863 14.4515 48.8911 15.8156 47.2071 16.8192C46.5461 17.2112 47.1441 18.2147 47.8052 17.8383L47.7894 17.854Z" fill="#231F20"/>
<path d="M54.7302 18.8574C53.7071 19.3748 52.7628 20.1118 52.0388 21.0055C51.8185 21.2721 51.5982 21.5543 51.4093 21.8522C51.2362 22.1031 51.3463 22.5108 51.6139 22.6519C51.9129 22.8087 52.2434 22.7146 52.4166 22.4481C52.5267 22.2756 52.6527 22.1031 52.7786 21.9306L52.6841 22.0561C53.1091 21.5073 53.597 21.0212 54.1478 20.5978L54.0219 20.6919C54.4311 20.3783 54.8561 20.1118 55.3125 19.8766C55.5958 19.7354 55.6902 19.3278 55.5171 19.0769C55.3282 18.7947 54.9977 18.7163 54.7144 18.8731L54.7302 18.8574Z" fill="#231F20"/>
</svg>
