<svg width="80" height="76" viewBox="0 0 80 76" fill="none" xmlns="http://www.w3.org/2000/svg">
<path d="M32.1858 46.9916C32.1071 45.847 32.2645 44.7023 32.5792 43.6048C33.3347 40.9392 35.0974 38.3991 37.7101 37.5053C39.1423 37.0036 40.7634 37.0506 42.1799 37.6151C43.1242 37.9914 43.9741 38.6029 44.7295 39.2928C46.1303 40.5629 47.2477 42.1936 47.8301 43.9968C48.1134 44.8905 48.2865 45.8627 48.2235 46.8191C48.1291 48.3714 46.9172 50.1589 47.4366 51.6485C48.0976 53.5301 48.4911 55.051 48.4596 57.0894C50.002 57.6695 51.5444 56.1329 52.0638 54.7845C52.1582 54.5179 52.2684 54.2043 52.536 54.0789C52.7091 54.0005 52.9137 54.0318 53.0711 54.1259C53.7793 54.4865 53.7636 55.5057 53.5432 56.2897C53.4016 56.7915 53.2127 57.2932 52.9294 57.7323C52.2527 58.7044 51.0565 59.2218 49.8761 59.2689C49.4354 59.2846 48.9633 59.2532 48.5698 59.4414C48.3337 59.5511 48.1606 59.7393 47.956 59.8804C47.295 60.3508 46.3664 60.4449 45.6109 60.1313C45.4693 60.0685 45.3276 59.9902 45.1702 59.9745C44.761 59.9274 44.4305 60.2881 44.0843 60.5076C43.2186 61.0564 42.0225 60.4762 41.0624 60.5076C39.9292 60.5233 38.7488 60.633 37.6628 60.6017C36.9546 60.586 36.2464 60.5546 35.5381 60.5389C34.3892 60.5076 33.1616 60.4449 32.2802 59.7236C31.6034 59.1905 31.2414 58.3438 31.0841 57.4971C30.9109 56.6347 30.9424 55.7409 31.147 54.8942C31.509 53.389 32.4848 52.0719 32.894 50.6136C33.193 49.5631 32.3746 48.4655 32.2645 47.3679C32.2645 47.2425 32.233 47.1327 32.233 47.0073L32.1858 46.9916Z" fill="#8E887C"/>
<path d="M36.6084 58.595C35.853 58.595 35.2864 58.3598 35.3965 59.2222C35.5854 60.7431 37.3167 60.8686 38.3082 59.9592C38.6072 59.6769 39.1738 59.0184 38.8118 58.6577C38.4971 58.3441 37.0334 58.595 36.6084 58.595Z" fill="white"/>
<path d="M42.668 58.595C41.9125 58.595 41.3459 58.3598 41.4561 59.2222C41.645 60.7431 43.3762 60.8686 44.3678 59.9592C44.6668 59.6769 45.2334 59.0184 44.8714 58.6577C44.5566 58.3441 43.0929 58.595 42.668 58.595Z" fill="white"/>
<path d="M40.5115 49.6896C42.0382 49.1721 43.5806 46.9456 44.1314 45.7696C44.9656 43.9978 44.8397 41.8026 43.8324 40.1249C42.8251 38.4472 40.9207 37.3339 38.9534 37.2398C38.3868 37.2085 37.7887 37.2712 37.2851 37.5377C36.5611 37.914 36.0889 38.6353 35.7741 39.388C34.1688 43.0413 35.4122 47.3376 38.8432 49.423C39.1737 49.6269 39.5514 49.815 39.9449 49.7993C40.1338 49.7993 40.3226 49.7523 40.5272 49.6896H40.5115Z" fill="white"/>
<path d="M37.2846 35.1853C35.5062 37.553 33.4916 39.7168 32.3427 42.4764C31.7131 43.9817 31.3826 45.6281 31.5715 47.2588C31.6816 48.2309 31.9335 49.156 32.2955 50.0655C32.626 50.9122 33.0037 51.7432 33.287 52.6213C33.7749 54.1422 34.0739 55.7102 34.2943 57.2782C34.4989 58.705 34.735 60.5396 36.2616 61.1668C37.0486 61.496 37.9142 61.2608 38.5752 60.7434C39.2835 60.1789 39.6297 59.3636 39.7399 58.5012C39.913 57.2155 39.7084 55.8043 39.6454 54.5028C39.5825 53.4053 39.551 52.3077 39.4723 51.2101C39.4251 50.4575 38.2447 50.4575 38.2919 51.2101C38.4021 52.9819 38.465 54.7537 38.5595 56.5099C38.6067 57.2782 38.6854 58.0778 38.465 58.8305C38.2762 59.4733 37.6624 60.2573 36.9069 60.1319C35.5376 59.9281 35.5219 57.4977 35.3645 56.4942C35.1442 55.083 34.8766 53.6875 34.4359 52.3234C34.1684 51.508 33.8379 50.7083 33.5073 49.9087C33.2083 49.1717 32.9722 48.4191 32.8148 47.6351C32.5473 46.1926 32.7519 44.7187 33.2555 43.3545C34.31 40.4381 36.4662 38.1802 38.3077 35.7498C38.7641 35.1383 37.7411 34.5581 37.2846 35.154V35.1853Z" fill="#231F20"/>
<path d="M42.3057 36.0008C43.8324 38.0079 45.5637 39.8581 46.6496 42.163C47.2477 43.4331 47.594 44.8286 47.5153 46.2397C47.4366 47.6509 47.0431 48.968 46.6496 50.2381C46.3978 51.0691 46.0673 51.8688 45.7997 52.6841C45.422 53.8288 45.1544 55.0048 44.9498 56.1964C44.8082 56.9647 44.7295 57.7487 44.5406 58.5014C44.399 59.0501 44.1944 59.7087 43.675 60.0223C43.0769 60.3829 42.3687 59.9439 42.0224 59.4265C41.5345 58.6895 41.6132 57.7174 41.6604 56.8863C41.7706 55.0048 41.8336 53.1075 41.9595 51.2259C42.0067 50.4733 40.8263 50.4733 40.7791 51.2259C40.6689 53.0134 40.606 54.8166 40.4958 56.6198C40.4014 58.2818 40.4643 60.2889 42.2113 61.1042C43.8009 61.8412 45.1072 60.6652 45.5637 59.2069C45.7997 58.47 45.8784 57.686 46.0043 56.9334C46.146 56.1337 46.2876 55.334 46.4922 54.5344C46.7283 53.5622 47.0588 52.6057 47.4051 51.665C48.3494 49.0308 49.1363 46.1457 48.3494 43.3703C47.468 40.2501 45.2174 37.9295 43.313 35.405C42.8566 34.8092 41.8336 35.405 42.29 36.0008H42.3057Z" fill="#231F20"/>
<path d="M32.4061 49.9084C32.1386 50.1906 31.9654 50.5356 31.808 50.8962C31.6034 51.3352 31.4303 51.79 31.2887 52.2603C31.0368 53.013 30.8008 53.797 30.6748 54.581C30.3758 56.5253 30.3443 59.3319 32.3117 60.4609C33.3032 61.0254 34.641 61.2292 35.7427 60.8686C36.0418 60.7745 36.2464 60.4609 36.1519 60.1473C36.0732 59.8494 35.727 59.6298 35.4279 59.7396C35.3335 59.771 35.2391 59.8023 35.1447 59.818C35.0974 59.818 35.0502 59.8337 34.9873 59.8494C34.8771 59.865 35.1289 59.8494 34.9243 59.8494C34.6882 59.865 34.4679 59.865 34.2318 59.8494C33.9013 59.818 33.3819 59.6926 33.0671 59.5358C32.6894 59.3476 32.4691 59.1751 32.2645 58.8615C32.0284 58.4852 31.9182 58.1403 31.808 57.6856C31.4618 56.0862 31.808 54.4242 32.2959 52.8562C32.3746 52.621 32.4533 52.4015 32.532 52.1663C32.5792 52.0565 32.6107 51.9468 32.6579 51.837C32.6737 51.7743 32.7051 51.7272 32.7209 51.6645C32.7209 51.6488 32.7996 51.492 32.7524 51.5861C32.8311 51.398 32.9097 51.2255 33.0042 51.053C33.0514 50.9746 33.0986 50.8962 33.1458 50.8178C33.1458 50.8021 33.1773 50.7708 33.193 50.7551C33.0986 50.8962 33.193 50.7708 33.2088 50.7551C33.7282 50.2063 32.894 49.3753 32.3746 49.9241L32.4061 49.9084Z" fill="#231F20"/>
<path d="M46.9957 51.9165C46.9957 51.9165 47.0271 51.9636 47.0271 51.9949C47.0586 52.042 46.9642 51.8381 47.0271 51.9793C47.0586 52.042 47.0743 52.1204 47.1058 52.1831C47.153 52.3399 47.2003 52.4967 47.2475 52.6535C47.3576 53.0298 47.4363 53.4061 47.4993 53.7824C47.515 53.8922 47.5308 53.9863 47.5465 54.096C47.5465 54.1431 47.5465 54.1901 47.5622 54.2528C47.5622 54.2842 47.5622 54.2999 47.5622 54.3312C47.5622 54.4096 47.5465 54.2058 47.5622 54.3156C47.5937 54.5351 47.6095 54.7546 47.6409 54.9741C47.6882 55.4288 47.7039 55.8835 47.7039 56.3226C47.7039 56.7616 47.6882 57.2006 47.6409 57.624C47.6409 57.6554 47.6095 57.8278 47.6409 57.7338C47.6724 57.6397 47.6409 57.7965 47.6409 57.8121C47.6409 57.9062 47.6095 58.016 47.5937 58.1101C47.5622 58.2982 47.515 58.4707 47.4521 58.6589C47.4206 58.7373 47.4049 58.8313 47.3734 58.9097C47.3734 58.9254 47.3104 59.0665 47.3576 58.9725C47.4049 58.8784 47.3419 59.0038 47.3262 59.0352C47.2632 59.1763 47.1688 59.3017 47.0901 59.4272C47.0586 59.4742 47.2003 59.3017 47.0901 59.4272C47.0743 59.4585 47.0429 59.4742 47.0271 59.5056C47.0114 59.5369 46.9799 59.5526 46.9642 59.5683C46.9642 59.5683 46.9327 59.584 46.9327 59.5996C46.8697 59.6624 46.9642 59.5526 46.9799 59.5526C46.9484 59.5526 46.8383 59.6467 46.8068 59.6624C46.791 59.6624 46.6651 59.7251 46.7753 59.678C46.8855 59.631 46.7753 59.678 46.7281 59.678C46.6966 59.678 46.6494 59.6937 46.6179 59.7094C46.6179 59.7094 46.5864 59.7094 46.5707 59.7094C46.4763 59.7408 46.7281 59.7094 46.6337 59.7094C46.555 59.7094 46.4763 59.7094 46.3818 59.7094C46.2245 59.7094 46.4763 59.7251 46.3818 59.7094C46.3346 59.7094 46.2874 59.6937 46.2402 59.678C46.1458 59.6467 46.0513 59.631 45.9569 59.584C45.9412 59.584 45.9097 59.5683 45.8939 59.5526C45.831 59.5369 46.0198 59.6153 45.9254 59.5526C45.8625 59.5212 45.8152 59.5056 45.7523 59.4742C45.5949 59.3958 45.4533 59.3017 45.2959 59.2547C45.0598 59.192 44.7765 59.2547 44.6034 59.4272C44.6034 59.4272 44.5561 59.4742 44.5561 59.4899L44.7293 59.4115C44.8552 59.3174 44.9968 59.3174 45.1385 59.4115C45.107 59.3801 45.0598 59.3645 45.0126 59.3331C44.7608 59.1449 44.3515 59.2861 44.2099 59.5369C44.0368 59.8348 44.1627 60.1484 44.4145 60.3366C44.5561 60.4464 44.7293 60.5248 44.9181 60.5091C45.0283 60.5091 45.1385 60.4777 45.2487 60.415C45.1227 60.4934 45.4375 60.2896 45.406 60.2739C45.4533 60.3052 45.2329 60.3523 45.2014 60.368C45.0913 60.3993 45.044 60.368 44.9496 60.368C44.8867 60.368 44.9654 60.368 44.9968 60.3993C45.0126 60.3993 45.044 60.4307 45.0598 60.4307C45.1542 60.4777 45.2644 60.5248 45.3588 60.5718C45.7523 60.7443 46.193 60.8697 46.6337 60.8227C47.4521 60.7286 48.0501 60.1798 48.3649 59.4428C48.7269 58.5961 48.8528 57.671 48.8843 56.7616C48.9158 55.7738 48.8371 54.7859 48.6954 53.8138C48.5695 52.9514 48.3807 52.0733 48.0187 51.2737C47.877 50.9914 47.4678 50.913 47.216 51.0698C46.917 51.2423 46.8697 51.5873 47.0114 51.8695L46.9957 51.9165Z" fill="#231F20"/>
<path d="M49.404 58.0927C50.9306 57.6223 52.1425 56.3522 52.6147 54.8313C52.7406 54.4079 52.8193 53.9689 52.8193 53.5142L52.2212 54.11C52.2212 54.11 52.3471 54.11 52.4258 54.11C52.5517 54.11 52.3314 54.0943 52.3943 54.11C52.4258 54.11 52.4573 54.11 52.4887 54.1257C52.5202 54.1257 52.5674 54.1414 52.5832 54.157L52.5045 54.1257C52.5045 54.1257 52.536 54.1414 52.5517 54.157C52.5989 54.1884 52.6776 54.2198 52.7091 54.2511L52.6461 54.2041C52.6461 54.2041 52.6776 54.2354 52.6934 54.2511C52.7091 54.2668 52.7406 54.2982 52.7563 54.3138C52.772 54.3295 52.8035 54.3609 52.8193 54.3766C52.8507 54.4236 52.8822 54.4863 52.8193 54.3609C52.8507 54.4079 52.898 54.4706 52.9294 54.5177C52.9452 54.549 52.9609 54.5804 52.9766 54.5961C52.9766 54.6118 52.9924 54.6274 53.0081 54.6588C52.9767 54.5647 52.9609 54.549 52.9766 54.5961C52.9924 54.6588 53.0239 54.7215 53.0396 54.7842C53.0396 54.8156 53.0553 54.8626 53.0711 54.9097C53.1026 55.0665 53.0711 54.8156 53.0711 54.9253C53.0711 55.0821 53.0868 55.2389 53.0711 55.4114C53.0711 55.4585 53.0711 55.4898 53.0711 55.5369C53.0711 55.5525 53.0711 55.5839 53.0711 55.5996C53.0711 55.6466 53.0711 55.6309 53.0711 55.5369C53.0711 55.5996 53.0396 55.7093 53.0239 55.7721C52.9924 55.9445 52.9452 56.117 52.9137 56.2895C52.8507 56.5874 53.0081 56.948 53.3229 57.0108C53.6219 57.0735 53.9682 56.9167 54.0469 56.6031C54.2357 55.7721 54.3931 54.894 54.0311 54.0943C53.7321 53.4358 53.0081 52.8713 52.2527 52.9654C52.0953 52.9811 51.9536 53.0124 51.8277 53.1379C51.7018 53.2633 51.6546 53.3887 51.6546 53.5612C51.6546 53.6396 51.6546 53.7337 51.6546 53.8121C51.6546 53.8591 51.6546 53.8905 51.6546 53.9375C51.6546 53.9532 51.6546 53.9846 51.6546 54.0002C51.6546 54.0943 51.6703 53.8748 51.6546 53.9532C51.6231 54.11 51.5916 54.2825 51.5444 54.4393C51.5287 54.5177 51.4972 54.5961 51.4657 54.6745C51.4657 54.7058 51.4343 54.7529 51.4185 54.7842C51.4185 54.7999 51.387 54.9097 51.3713 54.9097C51.3713 54.9097 51.4343 54.7686 51.387 54.847C51.387 54.8626 51.3713 54.8783 51.3556 54.9097C51.3398 54.941 51.3241 54.9881 51.3083 55.0194C51.2769 55.0978 51.2296 55.1605 51.1982 55.2389C51.1195 55.3801 51.025 55.5369 50.9306 55.6623C50.9149 55.6937 50.8834 55.725 50.8677 55.7564C50.8047 55.8348 50.8991 55.7093 50.8991 55.7093C50.8991 55.7093 50.8677 55.7407 50.8677 55.7564C50.8047 55.8191 50.7575 55.8975 50.6945 55.9602C50.5844 56.0857 50.4585 56.2111 50.3325 56.3209C50.3011 56.3522 50.2696 56.3679 50.2381 56.3993C50.2224 56.4149 50.1122 56.4933 50.2066 56.4306C50.3011 56.3679 50.1752 56.462 50.1594 56.462C50.1279 56.4933 50.0807 56.509 50.0492 56.5404C49.8919 56.6501 49.7345 56.7442 49.5613 56.8226C49.5141 56.8383 49.4669 56.8696 49.4197 56.8853C49.4197 56.8853 49.3725 56.9167 49.3567 56.9167C49.3882 56.9167 49.4984 56.854 49.404 56.901C49.3095 56.9324 49.2151 56.9637 49.1207 56.9951C48.8216 57.0892 48.6013 57.4028 48.7115 57.7164C48.8216 58.03 49.1207 58.2181 49.4354 58.124L49.404 58.0927Z" fill="#231F20"/>
<path d="M49.105 60.0219C50.0808 59.9905 51.0566 59.7083 51.8908 59.2065C52.1583 59.0497 52.3944 58.8773 52.6305 58.6891C52.7407 58.595 52.8036 58.4069 52.8036 58.2658C52.8036 58.1246 52.7407 57.9522 52.6305 57.8424C52.5203 57.7326 52.3629 57.6699 52.2056 57.6699H52.0482C51.9537 57.717 51.8593 57.764 51.7806 57.8424C51.7491 57.8738 51.7177 57.9051 51.6704 57.9208L51.7963 57.8267C51.4344 58.109 51.0409 58.3285 50.6159 58.5166L50.7576 58.4539C50.3326 58.6264 49.9077 58.7518 49.4513 58.8145H49.6087C49.4355 58.8145 49.2624 58.8302 49.0893 58.8302C48.9319 58.8302 48.7902 58.8929 48.6643 59.0027C48.5542 59.1125 48.4912 59.2693 48.4912 59.4261C48.4912 59.7397 48.743 60.0219 49.0893 60.0219H49.105Z" fill="#231F20"/>
<path d="M26.3145 15.0682C25.5275 15.3348 24.8665 15.8836 24.237 16.4324C23.3556 17.2164 22.5214 18.0317 21.7188 18.8941C21.2623 19.3802 20.8059 20.1015 21.1994 20.6346C21.4984 21.0266 22.0965 21.0422 22.5529 20.8541C23.1825 20.6032 24.237 19.7251 24.9609 19.8663C25.3229 19.9447 25.622 20.1799 25.9053 20.415C27.0699 21.4029 28.1559 22.4691 29.1789 23.598C29.4937 23.943 28.5179 26.1225 28.4549 26.6399C28.2818 27.9257 28.5651 29.3839 28.9586 30.5912C29.3993 31.9397 30.0918 33.1784 30.7843 34.4014C31.823 36.2673 32.8775 38.1332 33.9163 39.9991C34.3412 40.7518 34.7662 41.5201 35.4429 42.0689C36.3086 42.7744 37.4418 43.0096 38.5277 43.2292C40.7469 43.6682 43.3123 43.9975 44.9964 42.4922C46.1295 41.4887 46.523 39.9207 47.1526 38.5409C48.4117 35.7813 50.7567 33.492 51.402 30.5128C51.8742 28.2706 51.8427 25.5737 51.2761 23.3785C51.2446 23.2845 51.2289 23.1904 51.2446 23.0806C51.2761 22.9709 51.3548 22.8925 51.4178 22.8141C52.2519 21.9517 53.3694 20.6032 54.534 20.2269C55.9977 19.7722 56.5801 20.7443 57.8234 20.9168C58.8937 21.0736 59.9009 20.3053 59.1297 19.192C58.8622 18.8 58.453 18.5335 58.0438 18.2669C56.9893 17.577 56.0764 16.746 55.0849 15.9777C54.0776 15.1937 53.574 14.739 52.2519 15.225C51.0558 15.6641 49.7022 16.0874 48.6163 16.746C47.9552 17.1536 47.4201 18.0317 46.523 17.8906C46.1295 17.8279 45.799 17.5613 45.4528 17.3575C44.052 16.5108 40.7784 16.6676 39.1415 16.6676C37.0168 16.6676 34.7977 16.9498 32.9247 18.0474C32.1378 17.4202 31.7443 16.6205 30.8944 16.0561C29.5567 15.178 27.9198 14.4567 26.2987 15.0055L26.3145 15.0682Z" fill="#8E887C"/>
<path d="M55.2423 20.024C55.2423 20.024 55.1636 19.93 55.1478 19.8986C54.6599 19.2871 54.1878 18.8794 53.5268 18.5345C53.1018 18.3149 52.6611 18.2209 52.189 18.1738C51.2761 19.0362 50.2216 19.9613 50.379 21.2627C50.4577 21.937 50.7095 22.5642 51.0086 23.1914C51.0872 23.1914 51.1659 23.1914 51.2289 23.1914C51.2289 23.1757 51.2289 23.1443 51.2289 23.1286C51.2604 23.0189 51.3391 22.9405 51.402 22.8621C52.2362 21.9997 53.3536 20.6512 54.5183 20.2749C54.8331 20.1808 55.0849 20.1495 55.3367 20.1652C55.3052 20.1181 55.2738 20.0554 55.2265 20.0084L55.2423 20.024Z" fill="#F9BDBE"/>
<path d="M46.9166 39.7952C47.2628 38.8858 47.3258 37.945 46.8064 37.161C46.2241 36.2516 45.2483 35.6714 44.3669 35.0756C41.8645 33.3822 41.7071 31.3908 41.5497 28.5685C41.5025 27.8472 41.6756 26.3106 40.8572 25.9499C39.9443 25.5422 39.8027 26.389 39.724 27.1259C39.6138 28.2078 39.5509 29.2897 39.4722 30.3716C39.3305 32.7079 38.1029 34.0407 36.0411 35.1226C35.6477 35.3264 35.2385 35.5146 34.8922 35.7812C33.9794 36.5181 33.7118 37.8352 33.9164 38.9798C34.42 41.7395 35.931 42.743 38.5278 43.2604C40.747 43.6995 43.3124 44.0287 44.9965 42.5235C45.7204 41.8806 46.5231 40.8614 46.9323 39.7795L46.9166 39.7952Z" fill="white"/>
<path d="M30.1233 20.8068C30.1233 20.3991 30.0603 20.0071 29.8243 19.5994C28.5809 17.3886 25.9683 19.0036 24.3629 19.8973C24.2842 19.9444 24.2055 19.9914 24.1426 20.0385C24.4259 19.913 24.7092 19.8503 24.961 19.8973C25.323 19.9757 25.622 20.2109 25.9053 20.4461C27.0542 21.4183 28.1402 22.4688 29.1475 23.5978C29.2105 23.4723 29.2891 23.3312 29.3521 23.2058C29.7141 22.4531 30.1233 21.6378 30.139 20.8224L30.1233 20.8068Z" fill="#F9BDBE"/>
<path d="M34.7507 30.514C35.5504 30.514 36.1987 29.8681 36.1987 29.0714C36.1987 28.2748 35.5504 27.6289 34.7507 27.6289C33.951 27.6289 33.3027 28.2748 33.3027 29.0714C33.3027 29.8681 33.951 30.514 34.7507 30.514Z" fill="#231F20"/>
<path d="M45.9724 30.514C46.7721 30.514 47.4203 29.8681 47.4203 29.0714C47.4203 28.2748 46.7721 27.6289 45.9724 27.6289C45.1727 27.6289 44.5244 28.2748 44.5244 29.0714C44.5244 29.8681 45.1727 30.514 45.9724 30.514Z" fill="#231F20"/>
<path d="M40.3699 41.1137C41.9171 41.1137 43.1713 40.3345 43.1713 39.3733C43.1713 38.412 41.9171 37.6328 40.3699 37.6328C38.8226 37.6328 37.5684 38.412 37.5684 39.3733C37.5684 40.3345 38.8226 41.1137 40.3699 41.1137Z" fill="#231F20"/>
<path d="M31.4931 19.632C31.7763 19.1302 32.3744 18.9421 32.8781 18.7382C33.5391 18.4874 34.2001 18.2679 34.8611 18.064C36.2147 17.6563 37.6154 17.3741 39.0319 17.2643C41.7547 17.0605 44.5247 17.5152 46.9013 18.895C47.5623 19.2714 48.1604 18.2679 47.4993 17.8759C44.871 16.3392 41.7547 15.8375 38.7329 16.1197C37.159 16.2608 35.6166 16.6058 34.1057 17.0762C33.366 17.3114 32.6262 17.5623 31.9023 17.8759C31.3042 18.1267 30.7691 18.4717 30.4386 19.0518C30.0766 19.7104 31.0838 20.3062 31.4616 19.6477L31.4931 19.632Z" fill="#231F20"/>
<path d="M32.9252 17.1695C31.4615 16.3072 30.1237 15.0998 28.4082 14.7392C27.5268 14.551 26.6454 14.5981 25.827 14.9587C25.0558 15.3037 24.4263 15.8995 23.781 16.4483C23.057 17.0598 22.333 17.687 21.609 18.2985C20.9795 18.8473 20.1611 19.5215 20.3814 20.4623C20.5545 21.2149 21.3415 21.5285 22.0497 21.4815C22.758 21.4345 23.4347 21.1522 24.0485 20.8229C25.3234 20.133 26.4251 19.0354 27.9517 18.9884C28.7072 18.957 28.7072 17.7811 27.9517 17.8124C26.6454 17.8595 25.5594 18.4553 24.4892 19.1609C24.0013 19.4745 23.5134 19.8038 22.9783 20.039C22.7422 20.1487 22.4747 20.2271 22.2228 20.2742C22.034 20.3055 21.7507 20.3055 21.6248 20.2742C21.5933 20.2742 21.5461 20.2585 21.5303 20.1958C21.5303 20.1487 21.5303 20.1174 21.5303 20.0703C21.609 19.7567 22.034 19.4745 22.2543 19.2706C22.8839 18.7219 23.5292 18.1887 24.1587 17.6399C24.7253 17.1539 25.2604 16.6364 25.89 16.2444C26.5195 15.8524 27.1648 15.727 27.873 15.8368C29.5571 16.1033 30.8791 17.342 32.2956 18.1887C32.9567 18.5807 33.539 17.5615 32.8937 17.1695H32.9252Z" fill="#231F20"/>
<path d="M25.2914 20.8696C25.7478 21.1048 26.1728 21.3714 26.582 21.685L26.4561 21.5909C27.0069 22.0143 27.4948 22.5003 27.9198 23.0491L27.8253 22.9237C27.9513 23.0962 28.0772 23.2686 28.1873 23.4411C28.266 23.5666 28.3919 23.6763 28.5336 23.7077C28.6752 23.739 28.8641 23.7234 28.99 23.645C29.2418 23.4725 29.3835 23.1118 29.1946 22.8453C28.5336 21.8418 27.6837 20.9794 26.6764 20.3208C26.4089 20.1484 26.1413 19.9916 25.858 19.8504C25.7164 19.772 25.559 19.7407 25.4016 19.7877C25.2599 19.8191 25.1183 19.9288 25.0553 20.0543C24.9137 20.3208 24.9766 20.7128 25.2599 20.854L25.2914 20.8696Z" fill="#231F20"/>
<path d="M29.431 20.9796C28.0303 24.7585 27.2276 28.945 29.132 32.7081C30.0921 34.5897 31.603 36.142 32.4529 38.102C33.2083 39.8268 33.5074 41.724 35.1127 42.9314C36.7181 44.1387 38.7011 44.2798 40.5583 44.123C41.3138 44.0603 41.3138 42.8843 40.5583 42.947C39.0474 43.0882 37.3948 43.0098 36.0728 42.1787C34.5304 41.2066 34.2471 39.3721 33.6018 37.8198C32.8463 36.0323 31.603 34.5427 30.58 32.912C29.5569 31.2813 29.1163 29.4624 29.1635 27.5652C29.2107 25.417 29.8245 23.3159 30.58 21.3246C30.8475 20.619 29.6986 20.3054 29.4468 21.011L29.431 20.9796Z" fill="#231F20"/>
<path d="M49.7966 21.2933C51.04 24.6174 51.9371 28.4119 50.379 31.7988C49.6078 33.4922 48.3172 34.8877 47.4044 36.5027C46.9637 37.2867 46.6332 38.1177 46.3499 38.9801C46.098 39.7641 45.8305 40.5481 45.2954 41.2066C44.2409 42.5394 42.5883 43.0098 40.9357 42.9314C40.1803 42.9001 40.1803 44.076 40.9357 44.1074C42.5726 44.1858 44.2094 43.7625 45.4842 42.6962C46.0823 42.1945 46.5702 41.5359 46.9007 40.8303C47.3099 39.9523 47.5303 38.9801 47.908 38.102C48.7264 36.2361 50.1586 34.7309 51.1187 32.9434C52.0158 31.2657 52.4407 29.3684 52.3778 27.4711C52.3148 25.2446 51.701 23.0651 50.9298 20.9954C50.6623 20.2898 49.5291 20.6034 49.7966 21.309V21.2933Z" fill="#231F20"/>
<path d="M47.9088 18.189C49.1994 17.4207 50.3798 16.3544 51.8435 15.9468C52.5045 15.7586 53.2285 15.7273 53.8738 15.9938C54.5191 16.2604 55.0542 16.7778 55.5893 17.2325C56.2346 17.7813 56.8956 18.3458 57.5409 18.8946C57.8242 19.1298 58.1232 19.365 58.3908 19.6315C58.5167 19.757 58.7685 19.9922 58.7213 20.1803C58.7056 20.2587 58.6741 20.243 58.6111 20.2744C58.6898 20.243 58.4852 20.3058 58.501 20.3058C58.5797 20.3058 58.3593 20.3058 58.3751 20.3058C58.1232 20.3058 57.9029 20.2587 57.6668 20.1803C57.1002 19.9922 56.5808 19.6942 56.0929 19.365C54.8968 18.5967 53.7636 17.844 52.2999 17.797C51.5445 17.7656 51.5445 18.9416 52.2999 18.973C53.6534 19.02 54.6765 19.8667 55.7624 20.541C56.3448 20.9016 56.9743 21.2309 57.6353 21.3877C58.2964 21.5445 59.099 21.5288 59.5712 20.9957C60.2165 20.2744 59.7916 19.3493 59.1935 18.7535C58.5167 18.0949 57.7613 17.5148 57.0373 16.9032C56.3762 16.3388 55.7152 15.7116 54.9755 15.2255C54.2358 14.7394 53.4016 14.5356 52.536 14.614C50.5057 14.7865 49.0105 16.1506 47.3265 17.1541C46.6654 17.5461 47.2635 18.5496 47.9245 18.1733L47.9088 18.189Z" fill="#231F20"/>
<path d="M54.8495 19.1928C53.8265 19.7103 52.8822 20.4472 52.1582 21.341C51.9379 21.6075 51.7175 21.8898 51.5287 22.1877C51.3556 22.4385 51.4657 22.8462 51.7333 22.9873C52.0323 23.1441 52.3628 23.0501 52.536 22.7835C52.6461 22.611 52.772 22.4385 52.8979 22.2661L52.8035 22.3915C53.2285 21.8427 53.7164 21.3566 54.2672 20.9333L54.1413 21.0274C54.5505 20.7138 54.9755 20.4472 55.4319 20.212C55.7152 20.0709 55.8096 19.6632 55.6365 19.4123C55.4476 19.1301 55.1171 19.0517 54.8338 19.2085L54.8495 19.1928Z" fill="#231F20"/>
</svg>
