<svg width="80" height="76" viewBox="0 0 80 76" fill="none" xmlns="http://www.w3.org/2000/svg">
<path d="M50.5817 49.3451C50.2512 48.373 49.8577 47.4322 49.48 46.5541C49.2439 46.021 48.9291 44.9391 48.4412 44.5942C46.7414 42.0227 43.8612 40.2352 40.7922 39.8902C37.613 39.5296 34.3078 40.6742 32.0414 42.9164C28.091 46.8364 25.0062 60.5719 34.1347 60.1172L34.78 59.4273C35.079 59.9133 35.5512 60.2583 36.3224 60.368C39.0609 60.7444 39.7062 59.0509 39.8636 57.0126C40.021 59.0353 40.6663 60.7287 43.4048 60.368C45.5925 60.0701 48.8032 60.2269 50.4558 58.361C52.3129 56.2756 51.4001 51.6971 50.5974 49.3295L50.5817 49.3451Z" fill="white"/>
<path d="M50.5817 49.3452C50.2512 48.3731 49.8577 47.4323 49.48 46.5542C49.2439 46.0211 48.9291 44.9392 48.4412 44.5943C48.2209 44.2493 47.9691 43.9357 47.7015 43.6221C47.7172 43.7162 47.7487 43.826 47.7645 43.92C48.095 46.8208 46.0489 49.5961 43.7196 51.0857C42.6651 51.7599 41.5319 52.4342 40.9811 53.5631C40.7765 53.9708 40.6663 54.4255 40.383 54.7705C40.1784 55.0213 39.8479 55.382 39.5016 55.1311C39.3442 55.0213 39.2655 54.8489 39.1711 54.6921C38.5888 53.6886 37.7231 52.4812 36.8103 51.7756C35.9761 51.1327 35.1263 50.5369 34.3551 49.8313C32.8599 48.4672 31.6165 46.6954 32.0729 44.5786C32.1831 44.0298 32.5136 43.5594 32.671 43.0106C32.7497 42.7597 32.8284 42.4775 32.9386 42.2109C32.6395 42.4461 32.3405 42.65 32.0729 42.9165C28.1225 46.8365 25.0377 60.572 34.1662 60.1173L34.4023 59.8664C34.2291 59.6469 34.1347 59.349 34.2134 59.0824C34.3393 58.612 34.8115 58.3925 35.2679 58.4866C36.6844 58.7531 38.1009 58.7845 39.5331 58.7688C39.722 58.2514 39.8321 57.6712 39.8793 57.0284C39.9266 57.6555 40.0367 58.2357 40.2256 58.7531C41.6421 58.7061 43.0743 58.6277 44.4751 58.6591C45.0574 58.6747 45.6397 59.396 45.2148 59.9448C45.1361 60.0389 45.0417 60.1173 44.963 60.2114C46.9303 60.0389 49.1652 59.8194 50.4715 58.3611C52.3287 56.2757 51.4158 51.6972 50.6132 49.3296L50.5817 49.3452Z" fill="#C7C4C4"/>
<path d="M33.7729 54.7388C33.7729 55.7267 33.647 56.7145 33.6942 57.7023C33.7571 58.7686 34.0562 59.8505 34.969 60.4933C35.4727 60.854 36.118 60.9637 36.716 60.9951C37.2826 61.0264 37.865 60.9794 38.3843 60.7599C38.9037 60.5404 39.3129 60.2111 39.6434 59.7564C39.9267 59.3644 40.0999 58.9097 40.21 58.4393C40.4933 57.2947 40.4776 56.0873 40.4618 54.927C40.4618 54.6134 40.1943 54.3312 39.8638 54.3312C39.5333 54.3312 39.2657 54.582 39.2657 54.927C39.2657 55.4288 39.2657 55.9305 39.2657 56.4166C39.2657 56.6675 39.25 56.9027 39.2185 57.1535C39.2185 57.2633 39.2027 57.3731 39.187 57.4985C39.187 57.5455 39.1555 57.6553 39.187 57.4671C39.187 57.4985 39.187 57.5298 39.187 57.5612C39.187 57.6239 39.1713 57.6866 39.1555 57.7337C39.1241 57.9532 39.0611 58.1727 38.9981 58.3766C38.9667 58.4706 38.9352 58.5647 38.9037 58.6588C38.9667 58.5334 38.8565 58.7999 38.9037 58.6588C38.8722 58.7215 38.8565 58.7686 38.825 58.8313C38.7778 58.9097 38.7306 59.0037 38.6834 59.0821C38.6519 59.1135 38.6362 59.1449 38.6047 59.1919C38.5417 59.2703 38.6991 59.0821 38.6362 59.1605C38.6204 59.1919 38.5889 59.2076 38.5732 59.2389C38.5102 59.3017 38.4473 59.3801 38.3686 59.4428C38.3529 59.4428 38.3371 59.4741 38.3214 59.4898C38.2742 59.5369 38.4473 59.3957 38.3686 59.4585C38.3214 59.4898 38.2742 59.5212 38.2112 59.5682C38.1325 59.6153 38.0223 59.6466 37.9436 59.7093C38.0223 59.6466 38.0696 59.6623 38.0066 59.678C37.9751 59.678 37.9594 59.6937 37.9279 59.7093C37.865 59.725 37.802 59.7564 37.739 59.7721C37.6289 59.8034 37.5187 59.8191 37.4085 59.8348C37.4085 59.8348 37.5659 59.8191 37.4715 59.8348C37.44 59.8348 37.4085 59.8348 37.3771 59.8348C37.2984 59.8348 37.2197 59.8348 37.1567 59.8348C37.0308 59.8348 36.8892 59.8348 36.7632 59.8348C36.6845 59.8348 36.6059 59.8348 36.5272 59.8191C36.4799 59.8191 36.4485 59.8191 36.4013 59.8191C36.5272 59.8348 36.2596 59.8034 36.4013 59.8191C36.2753 59.8034 36.1652 59.7721 36.0393 59.7407C35.9763 59.725 35.9134 59.6937 35.8661 59.678C35.756 59.6466 35.992 59.7407 35.8976 59.678C35.8661 59.678 35.8504 59.6466 35.8189 59.6466C35.7245 59.5996 35.6458 59.5369 35.5514 59.4898C35.4569 59.4428 35.6615 59.5839 35.5828 59.5212C35.5671 59.5055 35.5356 59.4898 35.5199 59.4741C35.4727 59.4428 35.4412 59.3957 35.4097 59.3644C35.3782 59.333 35.3468 59.2703 35.2995 59.2389C35.394 59.3017 35.3782 59.3487 35.3468 59.3017C35.3468 59.286 35.3153 59.2546 35.2995 59.2389C35.2366 59.1449 35.1894 59.0508 35.1422 58.9567C35.1422 58.9254 35.1264 58.9097 35.1107 58.8783C35.0635 58.7842 35.1579 59.0194 35.1264 58.9254C35.1264 58.8783 35.0949 58.847 35.0792 58.7999C35.0477 58.6902 35.0162 58.5804 34.9848 58.4706C34.9533 58.3609 34.9375 58.2668 34.9218 58.157C34.9218 58.1257 34.9218 58.0943 34.9218 58.063C34.9533 58.2354 34.9218 58.157 34.9218 58.11C34.9218 58.0473 34.9218 57.9846 34.9061 57.9062C34.8116 56.8556 34.969 55.8051 34.969 54.7545C34.969 54.4409 34.7015 54.1587 34.371 54.1587C34.0404 54.1587 33.7886 54.4096 33.7729 54.7545V54.7388Z" fill="#231F20"/>
<path d="M49.1181 44.5314C47.0406 41.2543 43.3105 39.1532 39.4073 39.2316C36.0235 39.2943 32.5924 40.925 30.6251 43.716C29.303 45.6133 28.4531 47.9025 27.981 50.1448C27.5088 52.387 27.3199 54.8801 28.1541 57.0595C28.579 58.1571 29.2558 59.1293 30.2473 59.7878C31.3805 60.5405 32.7813 60.76 34.1348 60.7129C34.8903 60.6816 34.8903 59.5056 34.1348 59.537C32.1517 59.631 30.3575 58.9568 29.4604 57.1223C28.5633 55.2877 28.6577 53.1239 28.9725 51.2267C29.3188 49.1099 30.0113 47.0245 31.0972 45.1743C32.5137 42.7439 34.9532 41.1446 37.7232 40.6114C41.7366 39.8274 45.9231 41.7247 48.0951 45.1586C48.5043 45.8015 49.5273 45.2056 49.1181 44.5627V44.5314Z" fill="#231F20"/>
<path d="M44.7585 54.739C44.7585 55.6798 44.8845 56.6049 44.8372 57.5457C44.8372 57.6554 44.8372 57.7652 44.8215 57.8906C44.8215 57.9534 44.8215 58.0004 44.8058 58.0631C44.8058 58.0945 44.8058 58.1102 44.8058 58.1415C44.8215 57.9377 44.8058 58.0945 44.8058 58.1415C44.7743 58.361 44.7271 58.5806 44.6484 58.7844C44.6484 58.8314 44.6169 58.8628 44.6012 58.9098C44.5697 59.0196 44.6641 58.7687 44.6169 58.8628C44.6169 58.8942 44.6012 58.9098 44.5854 58.9412C44.5382 59.0353 44.491 59.1294 44.428 59.2234C44.428 59.2391 44.3966 59.2548 44.3966 59.2705C44.3651 59.3332 44.3336 59.3018 44.428 59.2234C44.3966 59.2548 44.3651 59.3018 44.3179 59.3489C44.2864 59.3802 44.2549 59.4116 44.2234 59.4429C44.2077 59.4586 44.1762 59.4743 44.1605 59.49C44.2549 59.4273 44.0503 59.5841 44.1605 59.49C44.066 59.5527 43.9873 59.5997 43.8929 59.6468C43.8457 59.6781 43.6883 59.7095 43.8772 59.6468C43.8142 59.6625 43.7355 59.6938 43.6726 59.7252C43.5467 59.7565 43.4365 59.7879 43.3106 59.8036C43.2634 59.8036 43.2476 59.8349 43.3578 59.8036C43.3263 59.8036 43.2634 59.8036 43.2319 59.8036C43.1375 59.8036 43.0588 59.8193 42.9643 59.8193C42.8384 59.8193 42.6968 59.8193 42.5709 59.8193C42.5079 59.8193 42.4292 59.8193 42.3663 59.8193C42.3033 59.8193 42.0987 59.7722 42.2876 59.8193C42.1774 59.7879 42.0672 59.7879 41.957 59.7565C41.8941 59.7565 41.8469 59.7252 41.7839 59.7095C41.7524 59.7095 41.7367 59.6938 41.7052 59.6781C41.6423 59.6468 41.6423 59.6154 41.7367 59.6938C41.6737 59.6311 41.5478 59.5997 41.4691 59.5527C41.4219 59.5213 41.3747 59.49 41.3432 59.4586C41.3275 59.4586 41.2488 59.3959 41.3432 59.4586C41.4377 59.5213 41.3432 59.4586 41.3275 59.4429C41.2488 59.3802 41.1858 59.3175 41.1229 59.2391C41.0757 59.1921 40.997 59.051 41.1072 59.2234C41.0757 59.1764 41.0442 59.145 41.0127 59.098C40.9655 59.0196 40.9183 58.9412 40.8711 58.8471C40.8396 58.8001 40.8239 58.753 40.8081 58.706C40.8081 58.6903 40.8081 58.6746 40.7924 58.659C40.8553 58.8158 40.7452 58.5649 40.7924 58.659C40.7137 58.4551 40.6507 58.2513 40.6035 58.0474C40.572 57.922 40.5563 57.7966 40.5248 57.6711C40.5248 57.6084 40.5091 57.5457 40.4933 57.4987C40.4776 57.3889 40.5091 57.6555 40.4933 57.53C40.4933 57.4987 40.4933 57.4516 40.4933 57.4203C40.4619 57.1537 40.4461 56.8871 40.4304 56.6206C40.3989 56.0561 40.4147 55.4916 40.4147 54.9272C40.4147 54.6136 40.1471 54.3313 39.8166 54.3313C39.4861 54.3313 39.2342 54.5822 39.2185 54.9272C39.2185 55.9934 39.2185 57.0753 39.4074 58.1258C39.5962 59.0823 40.0369 60.0388 40.9026 60.5562C41.3905 60.8541 41.9728 60.9639 42.5236 60.9952C43.1689 61.0109 43.8457 60.9325 44.428 60.6503C45.4668 60.1642 45.8603 59.0666 45.9704 58.0161C46.0806 56.9655 45.9232 55.8209 45.9232 54.7076C45.9232 54.394 45.6557 54.1118 45.3251 54.1118C44.9946 54.1118 44.7271 54.3627 44.7271 54.7076L44.7585 54.739Z" fill="#231F20"/>
<path d="M48.0794 45.0488C48.2998 45.1742 48.4257 45.5192 48.5359 45.7387C48.6775 46.0523 48.7719 46.3659 48.8979 46.6795C49.1025 47.1812 49.3228 47.683 49.5117 48.2004C49.9366 49.345 50.2986 50.5053 50.5504 51.697C50.9596 53.6413 51.2114 56.1187 49.9838 57.7024C49.2126 58.6902 47.9693 59.0979 46.7416 59.1919C45.9862 59.2547 45.9862 60.4306 46.7416 60.3679C48.1109 60.2582 49.4644 59.8662 50.4875 58.894C51.3374 58.0787 51.7938 56.9654 51.9669 55.8208C52.3446 53.2493 51.6364 50.5524 50.755 48.1534C50.5189 47.5262 50.2356 46.8676 49.9996 46.2561C49.6848 45.4878 49.4487 44.4843 48.6775 44.0296C48.0165 43.6376 47.4341 44.6568 48.0794 45.0488Z" fill="#231F20"/>
<path d="M41.6898 17.0598C37.645 17.0284 32.9234 17.0441 29.571 19.5685C29.0831 19.9292 28.5637 20.6661 27.9656 20.8386C27.4305 20.9954 26.9112 20.6818 26.3603 20.6818C25.5261 20.6818 24.7235 20.7131 23.9837 21.1365C22.6145 21.8891 21.8118 23.3787 21.3239 24.8526C20.836 26.3265 20.537 27.8788 19.8445 29.2743C19.6084 29.7604 19.3093 30.2465 19.3251 30.7796C19.3408 31.3127 19.9074 31.8615 20.3953 31.642C17.7512 32.8023 17.5623 39.6387 19.6399 41.3321C20.0805 41.677 20.8203 41.6927 21.1193 41.238C21.1823 41.1439 22.9607 44.6876 23.0079 45.1109C23.0552 45.5029 23.1653 46.0203 23.5588 46.0674C23.7162 46.0831 23.8578 46.0203 23.9837 45.9419C25.0068 45.3304 25.4317 43.8879 24.8809 42.8373C25.5104 43.6997 26.3603 44.4053 27.3361 44.86C27.8712 44.6405 28.2332 44.029 28.1388 43.4645C28.3276 45.0325 32.6401 46.1771 33.8677 46.5064C36.197 47.1023 38.6365 47.2904 41.0445 47.2904C42.8702 47.2904 44.7274 47.1807 46.4901 46.7259C47.4187 46.4907 48.3316 46.1615 49.1815 45.7068C49.8582 45.3461 50.4091 44.6719 51.2118 44.5935C51.259 44.7346 51.3691 44.8287 51.4164 44.9384C51.9672 44.4367 52.8486 44.4837 53.4781 44.1074C53.0375 44.374 54.4539 44.7032 54.5484 44.7032C55.0992 44.7032 55.6186 44.374 56.0593 44.0604C57.0823 43.3234 57.822 42.1945 58.5303 41.1753C59.2228 41.4732 60.0727 41.1753 60.592 40.6265C61.1114 40.0777 61.3318 39.3094 61.4419 38.5568C61.6151 37.2867 61.4419 36.001 61.1114 34.7622C60.9698 34.2135 59.7894 31.7831 60.2615 31.4852C60.4347 31.3754 60.6707 31.3284 60.7652 31.1559C60.9068 30.9207 60.7652 30.6385 60.6235 30.3876C59.4431 28.2708 59.9625 25.4171 58.4044 23.5669C57.7591 22.8142 56.862 22.3438 55.9806 21.9048C54.5012 21.1522 52.9115 20.3839 51.2747 20.6347C48.9296 18.126 45.0422 17.1225 41.6898 17.0911V17.0598Z" fill="white"/>
<path d="M29.4924 39.5757C30.7043 38.2586 32.4356 37.7255 33.9937 36.9572C35.8824 36.0321 36.6693 34.9972 37.4877 33.147C37.5192 33.0686 37.5507 32.9745 37.5821 32.8961C38.2747 30.2305 38.3376 27.1887 37.9441 24.4604C37.5664 21.8105 36.5434 19.3801 34.6547 17.4985C32.8133 17.8435 31.0663 18.455 29.5869 19.5683C29.099 19.9289 28.5796 20.6659 27.9815 20.8383C27.4464 20.9951 26.927 20.6815 26.3762 20.6815C25.542 20.6815 24.7393 20.7129 23.9996 21.1362C22.6303 21.8889 21.8277 23.3785 21.3398 24.8524C20.8361 26.3263 20.5528 27.8786 19.8603 29.2741C19.6242 29.7601 19.3252 30.2462 19.341 30.7793C19.3724 31.3124 19.9233 31.8612 20.4112 31.6417C17.7671 32.802 17.5782 39.6384 19.6557 41.3318C20.0964 41.6768 20.8361 41.6925 21.1352 41.2378C21.1981 41.1437 22.9766 44.6873 23.0238 45.1107C23.071 45.5027 23.1812 46.0201 23.5747 46.0671C23.7321 46.0828 23.8737 46.0201 23.9996 45.9417C25.0226 45.3302 25.4476 43.8876 24.8967 42.8371C25.5263 43.6995 26.3762 44.4051 27.352 44.8598C27.7612 44.703 28.0445 44.3267 28.1389 43.9033C27.9028 43.4329 27.8084 42.8998 27.95 42.2883C28.1704 41.2848 28.8314 40.3597 29.5239 39.6071L29.4924 39.5757Z" fill="#C7C4C4"/>
<path d="M61.1115 34.731C60.9699 34.1822 59.7895 31.7518 60.2616 31.4539C60.4348 31.3441 60.6709 31.2971 60.7653 31.1246C60.9069 30.8894 60.7653 30.6072 60.6236 30.3563C59.4432 28.2395 59.9626 25.3858 58.4045 23.5356C57.7592 22.783 56.8621 22.3126 55.9807 21.8735C54.5013 21.1209 52.9117 20.3526 51.2748 20.6035C49.2445 18.424 46.0338 17.3891 43.0435 17.1226C42.0047 20.384 41.1706 23.7708 41.1076 27.2047C41.0604 29.6821 40.903 32.6769 42.5713 34.778C44.5229 37.2241 48.0484 37.5533 49.8426 40.36C50.6295 41.5831 50.9601 43.1197 50.5823 44.5309C50.4407 45.064 53.3051 44.2016 53.494 44.0761C53.0533 44.3427 54.4698 44.672 54.5642 44.672C55.1151 44.672 55.6345 44.3427 56.0751 44.0291C57.0982 43.2921 57.8379 42.1632 58.5461 41.144C59.2386 41.4419 60.0885 41.144 60.6079 40.5952C61.1273 40.0464 61.3476 39.2781 61.4578 38.5255C61.6309 37.2554 61.4578 35.9697 61.1273 34.731H61.1115Z" fill="#C7C4C4"/>
<path d="M23.9365 37.2082C24.2198 35.7029 24.692 34.276 24.7077 32.7237C24.7077 31.2028 24.5818 29.7289 24.8022 28.2236C25.1956 25.6208 26.2186 23.1747 27.4777 20.8698C27.1158 20.8384 26.738 20.6816 26.3603 20.6816C25.5261 20.6816 24.7235 20.713 23.9837 21.1364C22.6145 21.889 21.8118 23.3786 21.3239 24.8525C20.8203 26.3264 20.537 27.8787 19.8445 29.2742C19.6084 29.7602 19.3093 30.2463 19.3251 30.7794C19.3566 31.3125 19.9074 31.8613 20.3953 31.6418C17.7512 32.8021 17.5623 39.6385 19.6399 41.3319C20.0805 41.6769 20.8203 41.6926 21.1193 41.2379C21.1823 41.1438 22.9607 44.6874 23.0079 45.1108C23.0552 45.5028 23.1653 46.0202 23.5588 46.0672C23.7162 46.0829 23.8578 46.0202 23.9837 45.9418C24.7864 45.4714 25.1956 44.4993 25.1012 43.5898C23.9051 41.7239 23.5588 39.3876 23.9523 37.2238L23.9365 37.2082Z" fill="#717070"/>
<path d="M61.1115 34.7308C60.9699 34.182 59.7895 31.7516 60.2616 31.4537C60.4348 31.3439 60.6708 31.2969 60.7653 31.1244C60.9069 30.8892 60.7653 30.607 60.6236 30.3561C59.4432 28.2393 59.9626 25.3856 58.4045 23.5354C57.7592 22.7828 56.8621 22.3124 55.9807 21.8733C54.6586 21.1991 53.2579 20.5249 51.7942 20.5562C52.6756 22.3594 53.4153 24.2567 53.856 26.1853C54.218 27.7846 54.1865 29.3526 54.092 30.9676C54.0606 31.6262 54.092 32.269 54.1393 32.8962C54.2966 33.006 54.4226 33.1471 54.454 33.3353C54.7845 35.1071 55.3511 36.8789 55.3354 38.6978C55.3354 39.6072 55.1465 40.5166 54.9105 41.3947C54.6901 42.1787 54.3124 43.1979 53.7458 43.9819C53.6986 44.1073 53.6671 44.2327 53.6199 44.3582C53.9347 44.515 54.517 44.6561 54.5642 44.6404C55.1151 44.6404 55.6344 44.3111 56.0751 43.9975C57.0981 43.2606 57.8379 42.1316 58.5461 41.1124C59.2386 41.4104 60.0885 41.1124 60.6079 40.5637C61.1273 40.0149 61.3476 39.2466 61.4578 38.4939C61.6309 37.2239 61.4578 35.9381 61.1273 34.6994L61.1115 34.7308Z" fill="#717070"/>
<path d="M31.8217 36.9729C32.6909 36.9729 33.3956 36.2709 33.3956 35.4049C33.3956 34.5389 32.6909 33.8369 31.8217 33.8369C30.9524 33.8369 30.2478 34.5389 30.2478 35.4049C30.2478 36.2709 30.9524 36.9729 31.8217 36.9729Z" fill="#231F20"/>
<path d="M48.1742 36.9729C49.0434 36.9729 49.7481 36.2709 49.7481 35.4049C49.7481 34.5389 49.0434 33.8369 48.1742 33.8369C47.305 33.8369 46.6003 34.5389 46.6003 35.4049C46.6003 36.2709 47.305 36.9729 48.1742 36.9729Z" fill="#231F20"/>
<path d="M39.99 39.2622C41.6676 39.2622 43.0275 38.4198 43.0275 37.3806C43.0275 36.3414 41.6676 35.499 39.99 35.499C38.3124 35.499 36.9524 36.3414 36.9524 37.3806C36.9524 38.4198 38.3124 39.2622 39.99 39.2622Z" fill="#231F20"/>
<path d="M36.5118 16.7303C36.5905 16.7616 36.6691 16.7773 36.7478 16.8087L36.6062 16.7459C36.7951 16.8243 36.9839 16.9341 37.1413 17.0595L37.0154 16.9655C37.1885 17.1066 37.3459 17.2634 37.4876 17.4358L37.3931 17.3104C37.5348 17.4829 37.6449 17.671 37.7236 17.8749L37.6607 17.7338C37.7079 17.8435 37.7394 17.9376 37.7709 18.0474C37.8023 18.1885 37.9125 18.3296 38.0384 18.3923C38.1014 18.4394 38.1801 18.455 38.2588 18.455C38.3375 18.4707 38.4161 18.455 38.4948 18.455C38.6365 18.408 38.7781 18.3139 38.8411 18.1885C38.904 18.063 38.9355 17.8906 38.904 17.7338C38.8411 17.5299 38.7624 17.3261 38.668 17.1223C38.5735 16.9184 38.4476 16.7616 38.306 16.5891C38.1958 16.4637 38.0856 16.3383 37.9597 16.2285C37.8023 16.0874 37.6292 15.9619 37.4403 15.8522C37.2357 15.7424 37.0154 15.6484 36.7951 15.57C36.6534 15.5229 36.4645 15.5543 36.3386 15.6327C36.2127 15.7111 36.1025 15.8365 36.0711 15.9776C36.0396 16.1344 36.0396 16.2912 36.134 16.4323C36.2285 16.5735 36.3386 16.6519 36.4803 16.6989L36.5118 16.7303Z" fill="#231F20"/>
<path d="M39.329 16.3698C39.329 16.3698 39.4077 16.4482 39.4392 16.4952L39.3447 16.3698C39.4706 16.5423 39.5808 16.7147 39.6595 16.9186L39.5966 16.7774C39.691 16.997 39.7382 17.2165 39.7697 17.436V17.2792C39.7697 17.4987 39.7697 17.7182 39.7539 17.9534V17.7966C39.7539 17.7966 39.7539 17.8594 39.7539 17.8907C39.7225 17.9691 39.7225 18.0475 39.7539 18.1259C39.7539 18.2043 39.7854 18.2827 39.8169 18.3454C39.8956 18.4709 40.0215 18.5806 40.1632 18.612C40.3205 18.6433 40.4779 18.6433 40.6196 18.5493C40.7455 18.4709 40.8714 18.3454 40.8871 18.2043C40.9186 18.0162 40.9501 17.8123 40.9501 17.6085C40.9501 17.4046 40.9186 17.2165 40.8871 17.0126C40.8557 16.8715 40.8242 16.7147 40.777 16.5736C40.714 16.3855 40.6353 16.213 40.5409 16.0405C40.4307 15.8523 40.3048 15.6799 40.1632 15.5231C40.0687 15.4133 39.8956 15.3506 39.7382 15.3506C39.5808 15.3506 39.4234 15.4133 39.3133 15.5231C39.2031 15.6328 39.1401 15.7896 39.1401 15.9464C39.1401 16.1032 39.2031 16.2443 39.3133 16.3698H39.329Z" fill="#231F20"/>
<path d="M35.5674 17.1853C32.8289 17.1069 30.1533 18.1418 28.1073 19.945C25.9511 21.8422 24.7235 24.5705 24.2828 27.3615C24.0152 29.0236 23.968 30.6856 24.0939 32.3634C24.1569 33.116 25.3373 33.116 25.2743 32.3634C25.0697 29.6978 25.2586 26.8911 26.3288 24.4137C27.3361 22.0617 29.1775 20.1645 31.5383 19.1296C32.7974 18.5808 34.1824 18.3143 35.5517 18.3613C36.3072 18.377 36.3072 17.201 35.5517 17.1853H35.5674Z" fill="#231F20"/>
<path d="M24.094 34.1506C23.4802 35.9694 23.0552 37.9294 23.2913 39.8737C23.4959 41.473 24.1569 43.041 25.3531 44.1543C25.9984 44.7501 26.7853 45.2048 27.6352 45.4087C28.3749 45.5811 28.6897 44.4522 27.95 44.2797C26.6751 43.9818 25.7151 43.041 25.1013 41.8964C24.3773 40.5322 24.2671 38.9172 24.4717 37.412C24.6134 36.4085 24.8809 35.4206 25.2114 34.4642C25.3059 34.1662 25.1013 33.8213 24.8022 33.7429C24.4875 33.6488 24.1727 33.8526 24.0783 34.1506H24.094Z" fill="#231F20"/>
<path d="M27.226 42.9627C27.4621 44.5307 28.7369 45.6439 30.1377 46.2554C31.6486 46.9297 33.3169 47.2119 34.9537 47.306C35.6934 47.353 36.4489 47.353 37.1886 47.2746C37.5034 47.2433 37.7867 47.0238 37.7867 46.6788C37.7867 46.3809 37.5191 46.0516 37.1886 46.083C36.5748 46.1457 35.961 46.1614 35.3472 46.13C34.9852 46.13 34.6232 46.0986 34.2455 46.0516C34.0566 46.0359 33.8835 46.0203 33.6946 45.9889C33.5844 45.9889 33.8363 46.0046 33.6631 45.9889C33.6159 45.9889 33.553 45.9889 33.5058 45.9732C33.3956 45.9575 33.3012 45.9419 33.191 45.9262C32.4355 45.8007 31.6643 45.6126 30.9561 45.3303C30.9246 45.3303 30.6885 45.2206 30.8144 45.2676C30.7357 45.2363 30.657 45.2049 30.5784 45.1579C30.4052 45.0795 30.2164 44.9854 30.059 44.8913C29.9173 44.8129 29.7914 44.7188 29.6498 44.6404C29.6183 44.6247 29.4294 44.4836 29.5396 44.562C29.4609 44.4993 29.3822 44.4366 29.3035 44.3739C29.1619 44.2484 29.036 44.1073 28.91 43.9662C28.8943 43.9505 28.8786 43.9192 28.8471 43.9035C28.9415 44.0289 28.8314 43.8721 28.7999 43.8408C28.7527 43.7624 28.7054 43.6996 28.6582 43.6212C28.611 43.5428 28.5795 43.4644 28.5323 43.386C28.5323 43.3547 28.4694 43.2292 28.5323 43.3704C28.5166 43.3233 28.5008 43.292 28.4851 43.2449C28.4221 43.0568 28.3749 42.8686 28.3435 42.6648C28.2962 42.3512 27.9028 42.1787 27.6195 42.2571C27.289 42.3512 27.163 42.6648 27.2103 42.9784L27.226 42.9627Z" fill="#231F20"/>
<path d="M43.4684 18.3613C45.9394 18.2986 48.3947 19.2237 50.2204 20.8857C52.2035 22.6889 53.2422 25.1977 53.6357 27.8005C53.8718 29.3058 53.8718 30.8581 53.7616 32.3634C53.6986 33.116 54.879 33.116 54.942 32.3634C55.1623 29.4626 54.8948 26.4677 53.7144 23.7708C52.5969 21.2307 50.5509 19.161 47.9855 18.0634C46.5532 17.4519 45.0266 17.1383 43.4684 17.1696C42.713 17.1853 42.713 18.3613 43.4684 18.3456V18.3613Z" fill="#231F20"/>
<path d="M53.8087 34.4642C54.7688 37.3022 55.3039 40.9242 52.9274 43.2448C52.408 43.7623 51.7942 44.1072 51.0859 44.2797C50.3777 44.4522 50.661 45.5811 51.4007 45.4087C52.9431 45.048 54.1707 43.9034 54.9104 42.5549C55.7761 40.987 55.9492 39.1524 55.7289 37.3963C55.5872 36.283 55.3039 35.2168 54.9577 34.1506C54.8632 33.8526 54.5485 33.6488 54.2337 33.7429C53.9346 33.8213 53.7143 34.1662 53.8245 34.4642H53.8087Z" fill="#231F20"/>
<path d="M50.6609 42.6494C50.6294 42.8062 50.5979 42.9473 50.5507 43.1041C50.535 43.1668 50.5035 43.2295 50.4878 43.2922C50.4563 43.3863 50.4878 43.2922 50.4878 43.2609C50.472 43.3079 50.4406 43.355 50.4248 43.402C50.3619 43.5274 50.2989 43.6372 50.2202 43.7626C50.1887 43.8254 50.1415 43.8724 50.0943 43.9351C50.1887 43.8097 50.0314 43.9978 49.9999 44.0449C49.9054 44.1546 49.7953 44.2644 49.6851 44.3585C49.6379 44.4055 49.5749 44.4525 49.5277 44.4996C49.4962 44.5309 49.4648 44.5466 49.449 44.5623C49.4333 44.578 49.4018 44.5937 49.3861 44.6093C49.4333 44.5623 49.449 44.5623 49.4175 44.578C49.1342 44.7505 48.8824 44.9386 48.5834 45.0954C48.4417 45.1738 48.3001 45.2365 48.1584 45.2993C48.0797 45.3306 48.0168 45.362 47.9381 45.3933C47.7965 45.456 48.0483 45.3463 47.9066 45.3933C47.8594 45.409 47.8122 45.4247 47.765 45.4404C47.4345 45.5658 47.0882 45.6912 46.7577 45.7853C46.1124 45.9735 45.4514 46.0989 44.7904 46.2087C44.932 46.193 44.6959 46.2087 44.7904 46.2087C44.7431 46.2087 44.6802 46.2087 44.633 46.2244C44.5543 46.2244 44.4598 46.24 44.3811 46.2557C44.2238 46.2714 44.0506 46.2871 43.8775 46.2871C43.5785 46.3028 43.2794 46.3184 42.9804 46.2871C42.6656 46.2871 42.3823 46.5693 42.3823 46.8829C42.3823 47.2122 42.6499 47.4631 42.9804 47.4787C44.3025 47.5258 45.656 47.3063 46.9308 46.9613C48.3001 46.585 49.7323 45.9735 50.7396 44.9386C51.2747 44.3741 51.6839 43.6686 51.8098 42.9002C51.857 42.5866 51.7311 42.2731 51.4006 42.179C51.1173 42.1006 50.7239 42.2731 50.6766 42.5866L50.6609 42.6494Z" fill="#231F20"/>
<path d="M51.7313 21.3715C53.5727 21.3244 55.3827 22.03 56.7677 23.2531C57.4759 23.8803 58.0583 24.6015 58.5147 25.4169C59.0026 26.3106 59.2387 27.2514 59.4275 28.2392C59.6636 29.4779 59.9312 30.6853 60.7338 31.7045C60.9227 31.9554 61.3634 31.9083 61.568 31.7045C61.8198 31.4536 61.7726 31.1243 61.568 30.8734C60.907 30.0424 60.7653 28.8978 60.5607 27.8943C60.3561 26.8908 60.0886 25.8402 59.5849 24.8994C58.6248 23.1119 57.0352 21.6537 55.1623 20.8697C54.0921 20.415 52.9274 20.1641 51.747 20.2112C50.9916 20.2269 50.9916 21.4028 51.747 21.3872L51.7313 21.3715Z" fill="#231F20"/>
<path d="M59.2071 32.1435C59.9626 33.6644 60.7653 35.2951 60.844 37.0199C60.9069 38.4311 60.5292 39.8736 59.4117 40.7674C59.1599 40.9712 59.2071 41.3946 59.4117 41.5984C59.6636 41.8493 59.9941 41.8022 60.2459 41.5984C61.3004 40.7517 61.8198 39.4503 61.9929 38.1332C62.166 36.7063 61.8512 35.2794 61.3319 33.9467C61.0171 33.1156 60.6236 32.3316 60.2302 31.532C60.0885 31.2497 59.6793 31.1713 59.4275 31.3281C59.1284 31.5006 59.0812 31.8456 59.2229 32.1278L59.2071 32.1435Z" fill="#231F20"/>
<path d="M58.1525 39.3094C58.0896 39.7327 57.9952 40.1561 57.8378 40.5637C57.8063 40.6578 57.7748 40.7519 57.7276 40.846C57.7276 40.8617 57.7119 40.893 57.6961 40.9087C57.6961 40.9087 57.7591 40.7833 57.6961 40.8773C57.6804 40.9244 57.6489 40.9871 57.6332 41.0341C57.5387 41.2223 57.4443 41.4105 57.3341 41.5986C57.224 41.7868 57.1138 41.9436 56.9879 42.116C56.9564 42.1631 56.9249 42.2101 56.8934 42.2572C56.8462 42.3199 56.9721 42.1631 56.9092 42.2258C56.9092 42.2415 56.8777 42.2728 56.862 42.2885C56.799 42.3669 56.7203 42.4453 56.6574 42.5394C56.5157 42.6962 56.3741 42.853 56.2167 42.9941C56.138 43.0568 56.075 43.1352 55.9963 43.1979C55.9649 43.2293 55.9176 43.2607 55.8862 43.292C55.8704 43.292 55.8547 43.3234 55.8232 43.3391C55.9334 43.2607 55.713 43.4175 55.8232 43.3391C55.4455 43.6213 55.0363 43.8565 54.6113 44.0603C54.328 44.1858 54.2336 44.6248 54.4067 44.86C54.5956 45.1579 54.9104 45.205 55.2094 45.0638C56.9249 44.3112 58.2312 42.7903 58.8923 41.0812C59.0811 40.6108 59.207 40.1247 59.27 39.6386C59.2857 39.4818 59.3015 39.3407 59.207 39.1839C59.1283 39.0585 59.0024 38.9487 58.8608 38.9174C58.5775 38.8546 58.184 38.9958 58.1368 39.325L58.1525 39.3094Z" fill="#231F20"/>
<path d="M27.3835 20.5093C25.6837 19.5685 23.559 20.3368 22.3471 21.7323C21.0093 23.3003 20.5529 25.3387 20.002 27.2516C19.6873 28.3335 19.3253 29.3997 18.6957 30.3562C18.5226 30.6227 18.6485 31.0147 18.9003 31.1559C19.1836 31.3283 19.5299 31.2029 19.703 30.952C20.789 29.3213 21.1352 27.377 21.7018 25.5425C22.1897 23.9588 22.9295 22.2811 24.5033 21.5441C25.2273 21.2149 26.0772 21.1522 26.7697 21.5441C27.4622 21.9361 28.0288 20.9013 27.3678 20.525L27.3835 20.5093Z" fill="#231F20"/>
<path d="M20.2695 31.0461C18.3179 33.2255 17.5782 36.3145 18.1448 39.1525C18.3021 39.9522 18.5854 40.7362 18.9632 41.4731C19.1048 41.7554 19.514 41.8338 19.7659 41.677C20.0491 41.5045 20.1278 41.1595 19.9705 40.8773C18.8215 38.6664 18.853 35.8598 19.9232 33.6332C20.238 32.9904 20.6157 32.3945 21.0879 31.8771C21.2925 31.6419 21.324 31.2813 21.0879 31.0461C20.8676 30.8265 20.4584 30.8109 20.2538 31.0461H20.2695Z" fill="#231F20"/>
<path d="M20.3166 38.6349C20.2379 39.9363 20.6314 41.1907 21.3081 42.2883C21.6229 42.8057 22.0006 43.3075 22.2367 43.8876C22.2052 43.7936 22.2682 43.9503 22.2682 43.966C22.2997 44.0444 22.3154 44.1228 22.3469 44.1855C22.3941 44.3423 22.4256 44.4991 22.4571 44.6403C22.4413 44.5305 22.4571 44.7187 22.4571 44.7187C22.4571 44.7971 22.4571 44.8755 22.4571 44.9539C22.4571 44.9695 22.4413 45.2047 22.4571 45.095C22.4571 45.1734 22.4256 45.2518 22.4098 45.3302C22.3311 45.6281 22.5043 45.9887 22.819 46.0514C23.1338 46.1142 23.4643 45.9574 23.543 45.6438C23.8893 44.2953 23.181 43.0723 22.4885 41.959C22.3154 41.6925 22.158 41.4416 22.0164 41.1593C21.9849 41.0809 21.9377 41.0182 21.9062 40.9398C21.8905 40.9085 21.8747 40.8614 21.859 40.8301C21.8747 40.8771 21.8747 40.8614 21.859 40.7987C21.8118 40.6733 21.7646 40.5322 21.7173 40.391C21.6701 40.2342 21.6229 40.0774 21.5914 39.9206C21.5757 39.8422 21.5599 39.7638 21.5442 39.6854C21.5442 39.6854 21.5127 39.4973 21.5442 39.607C21.5127 39.2778 21.497 38.9642 21.5127 38.6349C21.5285 38.3213 21.2294 38.0391 20.9147 38.0391C20.5841 38.0391 20.3481 38.2899 20.3166 38.6349Z" fill="#231F20"/>
</svg>
