<svg width="80" height="76" viewBox="0 0 80 76" fill="none" xmlns="http://www.w3.org/2000/svg">
<path d="M55.2633 48.4269C54.6967 48.4113 54.1458 48.5524 53.7524 48.96C53.6894 49.0228 53.6422 49.0855 53.6265 49.1639C53.6265 49.258 53.6737 49.3677 53.7209 49.4461C54.5708 50.9357 54.6967 52.8016 54.0514 54.3853C53.8153 54.9811 53.4533 55.5456 52.9182 55.8905C52.3831 56.2355 51.6591 56.3452 51.1083 56.016C51.8165 52.8016 50.5417 49.4618 49.2668 46.5454C49.0307 46.0122 48.716 44.9303 48.2281 44.5854C46.5283 42.0139 43.6481 40.2264 40.579 39.8814C37.3998 39.5208 34.0947 40.6654 31.8283 42.9076C27.8779 46.8276 24.7931 60.5631 33.9216 60.1084L34.5668 59.4185C34.8659 59.9045 35.338 60.2495 36.1092 60.3593C38.8478 60.7356 39.4931 59.0422 39.6505 57.0038C39.8078 59.0265 40.4531 60.7199 43.1917 60.3593C44.7655 60.1397 46.2607 59.9516 47.7559 59.4342C49.2826 58.901 50.6833 59.199 52.21 59.293C53.9098 59.3871 55.641 58.4463 56.9473 57.4428C58.2694 56.4393 58.7415 55.0438 58.836 53.4445C58.9147 52.0333 58.836 50.4496 57.813 49.4775C57.4982 49.1796 57.1362 48.9757 56.7427 48.8032C56.2863 48.5994 55.7669 48.4426 55.2633 48.4269Z" fill="white"/>
<path d="M53.1384 57.7718C55.9714 56.6585 57.986 53.5068 57.262 50.4179C57.1833 50.1043 57.0889 49.7907 56.8842 49.5242C56.5537 49.0851 56.0029 48.8656 55.452 48.8186C55.0586 48.7872 53.2958 48.6931 53.7208 49.4458C54.5707 50.9354 54.6966 52.8013 54.0513 54.3849C53.8152 54.9807 53.4532 55.5452 52.9181 55.8902C51.8951 56.5644 51.1553 56.2038 50.5888 57.5522C50.1953 58.5087 52.3043 58.0383 52.6505 57.9285C52.8079 57.8815 52.9653 57.8188 53.1227 57.7561L53.1384 57.7718Z" fill="#888888"/>
<path d="M33.4021 47.4235C32.7568 46.3259 31.5134 45.3852 30.4432 44.7893C29.7822 44.413 27.9565 52.6763 28.0509 53.4916C28.649 53.0055 29.2156 52.7547 29.971 52.4881C31.057 52.1118 32.1744 51.6884 32.9614 50.8574C34.0946 49.6657 34.0159 48.4741 33.4178 47.4235H33.4021Z" fill="#888888"/>
<path d="M49.2824 46.5457C49.1407 46.2164 48.9518 45.6676 48.7158 45.2129C48.3538 45.4794 47.976 45.7303 47.6298 46.0126C46.3864 47.0161 44.4663 48.2705 45.4106 50.152C46.3864 52.112 49.3296 52.7078 51.1553 53.5702C52.1783 52.2845 49.8647 47.8785 49.2981 46.5614L49.2824 46.5457Z" fill="#888888"/>
<path d="M33.5754 54.7301C33.5754 55.7179 33.4495 56.7057 33.4967 57.6935C33.5596 58.7598 33.8587 59.8417 34.7715 60.4845C35.2752 60.8452 35.9204 60.9549 36.5185 60.9863C37.0851 61.0177 37.6674 60.9706 38.1868 60.7511C38.7062 60.5316 39.1154 60.2023 39.4459 59.7476C39.7292 59.3556 39.9023 58.9009 40.0125 58.4305C40.2958 57.2859 40.2801 56.0785 40.2643 54.9182C40.2643 54.6046 39.9968 54.3224 39.6663 54.3224C39.3357 54.3224 39.0682 54.5733 39.0682 54.9182C39.0682 55.42 39.0682 55.9217 39.0682 56.4078C39.0682 56.6587 39.0525 56.8939 39.021 57.1447C39.021 57.2545 39.0052 57.3643 38.9895 57.4897C38.9895 57.5367 38.958 57.6465 38.9895 57.4583C38.9895 57.4897 38.9895 57.5211 38.9895 57.5524C38.9895 57.6151 38.9738 57.6779 38.958 57.7249C38.9265 57.9444 38.8636 58.1639 38.8006 58.3678C38.7692 58.4619 38.7377 58.5559 38.7062 58.65C38.7692 58.5246 38.659 58.7911 38.7062 58.65C38.6747 58.7127 38.659 58.7598 38.6275 58.8225C38.5803 58.9009 38.5331 58.995 38.4859 59.0734C38.4544 59.1047 38.4386 59.1361 38.4072 59.1831C38.3442 59.2615 38.5016 59.0734 38.4386 59.1518C38.4229 59.1831 38.3914 59.1988 38.3757 59.2302C38.3127 59.2929 38.2498 59.3713 38.1711 59.434C38.1553 59.434 38.1396 59.4654 38.1239 59.481C38.0767 59.5281 38.2498 59.387 38.1711 59.4497C38.1239 59.481 38.0767 59.5124 38.0137 59.5594C37.935 59.6065 37.8248 59.6378 37.7461 59.7006C37.8248 59.6378 37.872 59.6535 37.8091 59.6692C37.7776 59.6692 37.7619 59.6849 37.7304 59.7006C37.6674 59.7162 37.6045 59.7476 37.5415 59.7633C37.4314 59.7946 37.3212 59.8103 37.211 59.826C37.211 59.826 37.3684 59.8103 37.274 59.826C37.2425 59.826 37.211 59.826 37.1795 59.826C37.1008 59.826 37.0222 59.826 36.9592 59.826C36.8333 59.826 36.6916 59.826 36.5657 59.826C36.487 59.826 36.4083 59.826 36.3297 59.8103C36.2824 59.8103 36.251 59.8103 36.2037 59.8103C36.3297 59.826 36.0621 59.7946 36.2037 59.8103C36.0778 59.7946 35.9677 59.7633 35.8417 59.7319C35.7788 59.7162 35.7158 59.6849 35.6686 59.6692C35.5585 59.6378 35.7945 59.7319 35.7001 59.6692C35.6686 59.6692 35.6529 59.6378 35.6214 59.6378C35.527 59.5908 35.4483 59.5281 35.3538 59.481C35.2594 59.434 35.464 59.5751 35.3853 59.5124C35.3696 59.4967 35.3381 59.481 35.3224 59.4654C35.2752 59.434 35.2437 59.387 35.2122 59.3556C35.1807 59.3242 35.1492 59.2615 35.102 59.2302C35.1965 59.2929 35.1807 59.3399 35.1492 59.2929C35.1492 59.2772 35.1178 59.2458 35.102 59.2302C35.0391 59.1361 34.9919 59.042 34.9446 58.9479C34.9446 58.9166 34.9289 58.9009 34.9132 58.8695C34.8659 58.7754 34.9604 59.0106 34.9289 58.9166C34.9289 58.8695 34.8974 58.8382 34.8817 58.7911C34.8502 58.6814 34.8187 58.5716 34.7873 58.4618C34.7558 58.3521 34.74 58.258 34.7243 58.1483C34.7243 58.1169 34.7243 58.0855 34.7243 58.0542C34.7558 58.2267 34.7243 58.1483 34.7243 58.1012C34.7243 58.0385 34.7243 57.9758 34.7086 57.8974C34.6141 56.8468 34.7715 55.7963 34.7715 54.7457C34.7715 54.4321 34.504 54.1499 34.1734 54.1499C33.8429 54.1499 33.5911 54.4008 33.5754 54.7457V54.7301Z" fill="#231F20"/>
<path d="M48.9206 44.5382C46.8431 41.2611 43.113 39.1601 39.2098 39.2384C35.8259 39.3012 32.3949 40.9319 30.4276 43.7229C29.1055 45.6201 28.2556 47.9094 27.7835 50.1516C27.3113 52.3938 27.1224 54.8869 27.9566 57.0664C28.3815 58.164 29.0583 59.1361 30.0498 59.7947C31.183 60.5473 32.5838 60.7668 33.9373 60.7198C34.6928 60.6884 34.6928 59.5124 33.9373 59.5438C31.9542 59.6379 30.16 58.9636 29.2629 57.1291C28.3658 55.2946 28.4602 53.1308 28.775 51.2335C29.1212 49.1167 29.8137 47.0313 30.8997 45.1811C32.3162 42.7507 34.7557 41.1514 37.5257 40.6183C41.5391 39.8343 45.7256 41.7315 47.8976 45.1654C48.3068 45.8083 49.3298 45.2125 48.9206 44.5696V44.5382Z" fill="#231F20"/>
<path d="M44.5767 54.7302C44.5767 55.671 44.7026 56.5961 44.6553 57.5369C44.6553 57.6467 44.6553 57.7564 44.6396 57.8819C44.6396 57.9446 44.6396 57.9916 44.6239 58.0543C44.6239 58.0857 44.6239 58.1014 44.6239 58.1327C44.6396 57.9289 44.6239 58.0857 44.6239 58.1327C44.5924 58.3523 44.5452 58.5718 44.4665 58.7756C44.4665 58.8226 44.435 58.854 44.4193 58.901C44.3878 59.0108 44.4822 58.7599 44.435 58.854C44.435 58.8854 44.4193 58.901 44.4035 58.9324C44.3563 59.0265 44.3091 59.1206 44.2461 59.2146C44.2461 59.2303 44.2147 59.246 44.2147 59.2617C44.1832 59.3244 44.1517 59.293 44.2461 59.2146C44.2147 59.246 44.1832 59.293 44.136 59.3401C44.1045 59.3714 44.073 59.4028 44.0415 59.4342C44.0258 59.4498 43.9943 59.4655 43.9786 59.4812C44.073 59.4185 43.8684 59.5753 43.9786 59.4812C43.8842 59.5439 43.8055 59.591 43.711 59.638C43.6638 59.6694 43.5064 59.7007 43.6953 59.638C43.6323 59.6537 43.5536 59.685 43.4907 59.7164C43.3648 59.7478 43.2546 59.7791 43.1287 59.7948C43.0815 59.7948 43.0657 59.8262 43.1759 59.7948C43.1444 59.7948 43.0815 59.7948 43.05 59.7948C42.9556 59.7948 42.8769 59.8105 42.7824 59.8105C42.6565 59.8105 42.5149 59.8105 42.389 59.8105C42.326 59.8105 42.2473 59.8105 42.1844 59.8105C42.1214 59.8105 41.9168 59.7634 42.1057 59.8105C41.9955 59.7791 41.8853 59.7791 41.7752 59.7478C41.7122 59.7478 41.665 59.7164 41.602 59.7007C41.5706 59.7007 41.5548 59.685 41.5233 59.6694C41.4604 59.638 41.4604 59.6066 41.5548 59.685C41.4919 59.6223 41.366 59.591 41.2873 59.5439C41.24 59.5126 41.1928 59.4812 41.1614 59.4498C41.1456 59.4498 41.0669 59.3871 41.1614 59.4498C41.2558 59.5126 41.1614 59.4498 41.1456 59.4342C41.0669 59.3714 41.004 59.3087 40.941 59.2303C40.8938 59.1833 40.8151 59.0422 40.9253 59.2146C40.8938 59.1676 40.8623 59.1362 40.8308 59.0892C40.7836 59.0108 40.7364 58.9324 40.6892 58.8383C40.6577 58.7913 40.642 58.7442 40.6262 58.6972C40.6262 58.6815 40.6262 58.6659 40.6105 58.6502C40.6734 58.807 40.5633 58.5561 40.6105 58.6502C40.5318 58.4463 40.4688 58.2425 40.4216 58.0387C40.3902 57.9132 40.3744 57.7878 40.3429 57.6623C40.3429 57.5996 40.3272 57.5369 40.3115 57.4899C40.2957 57.3801 40.3272 57.6467 40.3115 57.5212C40.3115 57.4899 40.3115 57.4428 40.3115 57.4115C40.28 57.1449 40.2642 56.8783 40.2485 56.6118C40.217 56.0473 40.2328 55.4829 40.2328 54.9184C40.2328 54.6048 39.9652 54.3225 39.6347 54.3225C39.3042 54.3225 39.0524 54.5734 39.0366 54.9184C39.0366 55.9846 39.0366 57.0665 39.2255 58.1171C39.4144 59.0735 39.855 60.03 40.7207 60.5474C41.2086 60.8453 41.7909 60.9551 42.3418 60.9865C42.987 61.0021 43.6638 60.9237 44.2461 60.6415C45.2849 60.1554 45.6784 59.0578 45.7885 58.0073C45.8987 56.9568 45.7413 55.8121 45.7413 54.6989C45.7413 54.3853 45.4738 54.103 45.1432 54.103C44.8127 54.103 44.5452 54.3539 44.5452 54.6989L44.5767 54.7302Z" fill="#231F20"/>
<path d="M47.8819 45.04C48.1023 45.1654 48.2282 45.5104 48.3383 45.7299C48.48 46.0435 48.5744 46.3571 48.7003 46.6707C48.9049 47.1724 49.1253 47.6742 49.3142 48.1916C49.7391 49.3362 50.1011 50.4965 50.3529 51.6882C50.7621 53.6325 51.0139 56.1099 49.7863 57.6936C49.0151 58.6814 47.7718 59.0891 46.5441 59.1832C45.7887 59.2459 45.7887 60.4219 46.5441 60.3591C47.9134 60.2494 49.2669 59.8574 50.29 58.8852C51.1398 58.0699 51.5963 56.9566 51.7694 55.812C52.1471 53.2405 51.4389 50.5436 50.5575 48.1446C50.3214 47.5174 50.0381 46.8588 49.802 46.2473C49.4873 45.479 49.2512 44.4755 48.48 44.0208C47.819 43.6288 47.2366 44.648 47.8819 45.04Z" fill="#231F20"/>
<path d="M58.3167 53.507C58.3009 53.6795 58.3324 53.3816 58.3167 53.5541C58.3167 53.5854 58.3167 53.6168 58.3009 53.6638C58.3009 53.7422 58.2695 53.8363 58.2537 53.9147C58.2222 54.0872 58.175 54.2597 58.1278 54.4165C58.0806 54.5576 58.0334 54.7144 57.9862 54.8555C57.9547 54.9339 57.9232 55.0123 57.8917 55.0907C57.8917 55.1064 57.8445 55.2004 57.8917 55.0907C57.876 55.1377 57.8445 55.1848 57.8288 55.2318C57.6871 55.5454 57.514 55.8433 57.3251 56.1255C57.2464 56.251 57.152 56.3764 57.0576 56.5019C57.0261 56.5489 56.9946 56.5803 56.9631 56.6273C56.9159 56.69 56.853 56.7527 56.79 56.8155C56.5697 57.0663 56.3336 57.2859 56.0818 57.4897C56.0503 57.521 56.0188 57.5367 55.9873 57.5681C56.066 57.5054 56.0031 57.5681 55.9873 57.5681C55.9244 57.6151 55.8457 57.6622 55.7827 57.7092C55.6411 57.8033 55.4994 57.8974 55.3578 57.9758C55.2319 58.0542 55.0902 58.1169 54.9643 58.1953C54.8856 58.2266 54.8069 58.258 54.7282 58.305C54.8384 58.258 54.744 58.305 54.7282 58.305C54.681 58.3207 54.6181 58.3521 54.5551 58.3678C54.2403 58.4775 53.9256 58.5716 53.5951 58.6343C53.5636 58.6343 53.5321 58.6343 53.5006 58.65C53.4534 58.65 53.3432 58.6657 53.4534 58.65C53.3432 58.65 53.2488 58.6814 53.1386 58.6814C52.9498 58.6814 52.7452 58.697 52.5563 58.6814C52.3674 58.6657 52.1786 58.6657 51.9897 58.6343C51.8795 58.6343 52.1314 58.6657 51.9582 58.6343C51.911 58.6343 51.8481 58.6186 51.8008 58.603C51.6907 58.5873 51.5805 58.5559 51.4703 58.5402C51.1713 58.4618 50.8093 58.6343 50.7463 58.9479C50.6834 59.2615 50.8408 59.5908 51.1556 59.6692C52.6979 60.0298 54.319 59.8417 55.7198 59.1047C57.0104 58.4305 58.0963 57.3015 58.7416 56.0001C59.1351 55.2004 59.3869 54.3694 59.4813 53.4913C59.5128 53.1777 59.1823 52.8955 58.8833 52.8955C58.537 52.8955 58.3324 53.1621 58.2852 53.4913L58.3167 53.507Z" fill="#231F20"/>
<path d="M52.1942 57.0507C54.2559 56.5333 55.3734 54.2127 55.2632 52.2213C55.2317 51.6726 55.1058 51.1551 54.9012 50.6534C54.8068 50.4495 54.6966 50.2457 54.5707 50.0732C54.3976 49.838 54.193 49.6499 54.0041 49.4147C54.0828 49.4931 53.9254 49.3206 53.9412 49.3049C53.9726 49.3049 53.9569 49.399 53.9726 49.399C53.9726 49.3676 53.9412 49.2892 53.9726 49.399C53.9097 49.5087 53.9412 49.446 54.0041 49.399C53.9412 49.4617 54.0041 49.399 54.0199 49.399C54.0671 49.3833 54.0986 49.3519 54.1458 49.3363C54.1458 49.3363 54.2717 49.2892 54.193 49.3049C54.1143 49.3206 54.2245 49.3049 54.2402 49.2892C54.3032 49.2579 54.3661 49.2422 54.4448 49.2265C54.5865 49.1795 54.7281 49.1481 54.8698 49.1324C54.9799 49.1167 54.8855 49.1324 54.8698 49.1324C54.9012 49.1324 54.9327 49.1324 54.9642 49.1324C55.0271 49.1324 55.0901 49.1324 55.1688 49.1324C55.3104 49.1324 55.4521 49.1324 55.5937 49.1481C55.6882 49.1481 55.4993 49.1324 55.5937 49.1481C55.6252 49.1481 55.6567 49.1481 55.6882 49.1638C55.7511 49.1638 55.8141 49.1951 55.877 49.2108C56.0187 49.2422 56.1446 49.2892 56.2705 49.3363C56.3807 49.3833 56.2862 49.3363 56.2705 49.3363C56.302 49.3519 56.3492 49.3676 56.3807 49.3833C56.4436 49.4147 56.5066 49.446 56.5853 49.4774C56.7112 49.5558 56.8371 49.6342 56.963 49.7126C56.9945 49.7283 57.0102 49.7439 57.0417 49.7753C56.9315 49.6969 57.0574 49.791 57.0732 49.8067C57.1361 49.8537 57.1833 49.9007 57.2306 49.9478C57.3407 50.0575 57.4509 50.1673 57.5453 50.2927C57.6083 50.3868 57.5611 50.3084 57.5453 50.2927C57.5611 50.3241 57.5768 50.3398 57.6083 50.3711C57.6555 50.4338 57.7027 50.5122 57.7499 50.575C57.8286 50.7004 57.8916 50.8258 57.9545 50.967C57.9545 50.9356 57.9073 50.8572 57.9545 50.967C57.9703 51.014 57.986 51.061 58.0018 51.1081C58.0175 51.1708 58.049 51.2335 58.0647 51.2962C58.0805 51.3746 58.1119 51.453 58.1277 51.5471C58.1277 51.5785 58.1277 51.6098 58.1434 51.6412C58.1277 51.5314 58.1434 51.6412 58.1434 51.6882C58.1749 51.9861 58.3952 52.2841 58.7415 52.2841C59.0405 52.2841 59.371 52.0175 59.3396 51.6882C59.2136 50.4025 58.5054 49.2735 57.4037 48.5836C56.302 47.8937 54.917 47.7683 53.7208 48.3014C53.3588 48.4582 52.9811 48.7248 52.8867 49.1324C52.7608 49.5871 52.9654 49.9948 53.2644 50.3241C53.3588 50.4338 53.469 50.5279 53.5634 50.6377C53.5792 50.6534 53.5949 50.6847 53.6107 50.7004C53.6579 50.7631 53.5477 50.6063 53.5949 50.6847C53.6264 50.7474 53.6736 50.7945 53.7051 50.8572C53.768 50.9513 53.8153 51.0454 53.8625 51.1394C53.8625 51.1708 53.9569 51.359 53.894 51.2022C53.9097 51.2649 53.9412 51.3119 53.9569 51.3746C53.9884 51.4844 54.0356 51.5942 54.0513 51.7196C54.0513 51.7666 54.0828 51.8294 54.0828 51.8921C54.0828 51.9234 54.0828 51.9548 54.0828 51.9705C54.0828 51.9861 54.0986 52.1116 54.0828 52.0175C54.0828 51.9234 54.0828 52.0175 54.0828 52.0489C54.0828 52.0802 54.0828 52.1273 54.0828 52.1586C54.0828 52.2213 54.0828 52.2684 54.0828 52.3311C54.0828 52.4565 54.0828 52.5977 54.0828 52.7231C54.0828 52.8329 54.0671 52.9583 54.0513 53.0681C54.0513 53.0994 54.0356 53.1778 54.0513 53.0367C54.0513 53.0681 54.0513 53.0994 54.0513 53.1308C54.0513 53.2092 54.0199 53.2719 54.0041 53.3503C53.9569 53.6012 53.8782 53.8364 53.7995 54.0716C53.7995 54.1029 53.6893 54.3068 53.768 54.1813C53.7366 54.244 53.7208 54.3068 53.6893 54.3538C53.6264 54.4792 53.5634 54.589 53.4847 54.7144C53.406 54.8399 53.3274 54.9339 53.2644 55.0437C53.3588 54.9339 53.2172 55.1221 53.2644 55.0437C53.2487 55.0751 53.2172 55.0908 53.2014 55.1221C53.1542 55.1691 53.1228 55.2162 53.0755 55.2632C52.9811 55.3573 52.8709 55.4514 52.7765 55.5455C52.745 55.5611 52.6821 55.6082 52.7922 55.5298C52.7608 55.5455 52.7293 55.5768 52.7135 55.5925C52.6506 55.6395 52.6034 55.6709 52.5404 55.7023C52.4302 55.765 52.3201 55.8277 52.1942 55.8747C52.3358 55.812 52.147 55.8747 52.0997 55.9061C52.0368 55.9218 51.9738 55.9531 51.8951 55.9688C51.5804 56.0472 51.4072 56.3922 51.4859 56.6901C51.5646 56.988 51.8951 57.1762 52.2099 57.0978L52.1942 57.0507Z" fill="#231F20"/>
<path d="M60.2834 32.763C60.2204 32.2456 60.1418 31.7282 60.0473 31.2264C59.764 29.7996 59.3391 28.3884 58.7725 27.0399C58.08 25.3935 57.8596 24.8918 57.9383 23.12C58.0013 21.5206 57.8124 19.8742 57.6865 18.2749C57.5763 16.801 57.4347 15.1233 56.8051 13.7591C56.4589 13.0222 55.8451 12.442 55.2785 11.8462C54.9165 11.9873 54.5545 12.0971 54.2083 12.2539C51.5956 13.4455 49.5024 15.8916 48.7626 18.6042C46.4018 17.4125 43.679 17.146 41.0664 16.9578C38.0446 16.7383 34.9913 17.0205 32.0638 17.7888C31.4973 17.9456 29.9706 18.9178 29.4827 18.7767C28.5856 18.5258 27.4367 15.7034 26.7756 14.9194C25.7211 13.665 23.5177 10.8427 21.7078 12.4263C20.4959 13.4769 20.3857 16.0327 20.307 17.4909C20.1968 19.7331 19.9922 22.6339 20.7792 24.7977C21.2828 26.1932 21.7392 26.6636 21.2356 28.3257C20.2126 31.7125 19.1266 35.3189 20.1024 38.7371C21.2986 42.9549 26.1461 46.3104 30.3955 46.9846C34.7394 47.6902 39.6184 47.5805 44.0253 47.455C47.1101 47.3609 50.4467 46.9846 53.3741 45.7459C55.7034 44.7581 59.3233 42.4375 59.9057 39.8974C60.4408 37.5611 60.551 35.1307 60.2677 32.7474L60.2834 32.763Z" fill="#888888"/>
<path d="M23.4863 15.4371C23.4863 15.4371 23.3604 15.4371 23.2974 15.4684C22.4003 15.7977 22.5262 17.8988 22.479 18.6201C22.4003 19.9842 22.6049 21.2229 22.8567 22.54C22.904 22.7909 23.0771 23.0574 23.3289 23.0574C23.5178 23.0574 23.6594 22.9007 23.7853 22.7595C24.2732 22.2107 24.7926 21.709 25.3435 21.2229C25.7527 20.878 26.3665 20.5957 26.7127 20.188C27.0432 19.8117 26.5553 19.0748 26.3665 18.7298C25.9415 17.9615 25.4536 17.2089 24.8556 16.566C24.5408 16.2211 23.9899 15.4371 23.4548 15.4214L23.4863 15.4371Z" fill="white"/>
<path d="M54.7434 16.0013C54.3499 15.2173 53.563 15.4368 53.0751 16.2522C52.6029 17.0518 52.2881 17.9142 51.9261 18.7609C51.5012 19.7488 50.8402 20.2505 52.0993 20.8934C52.7288 21.2227 53.3741 21.5363 54.0036 21.8655C54.1138 21.9126 54.2082 21.9753 54.3342 21.9753C54.586 21.991 54.8063 21.8028 54.9008 21.5833C55.5618 20.0937 55.2942 17.7888 54.8378 16.2835C54.8063 16.1738 54.7748 16.0797 54.7276 16.0013H54.7434Z" fill="white"/>
<path d="M53.6259 35.1461C53.6573 34.8325 53.7046 34.5346 53.7046 34.221C53.7046 29.8464 50.5411 26.3027 46.6536 26.3027C43.7105 26.3027 41.1923 28.3411 40.1378 31.2262C39.0833 28.3411 36.5651 26.3027 33.6219 26.3027C29.7345 26.3027 26.571 29.8464 26.571 34.221C26.571 34.4092 26.6025 34.5973 26.6182 34.7855C23.7065 35.789 22.1326 38.3135 22.4159 40.6498C23.2658 47.69 37.2733 47.7527 39.7286 47.69C41.7746 47.69 55.845 48.2074 57.6392 40.6498C58.1901 38.3291 56.3644 36.0713 53.6259 35.1618V35.1461Z" fill="white"/>
<path d="M32.6148 36.4794C33.5362 36.4794 34.2831 35.7353 34.2831 34.8173C34.2831 33.8994 33.5362 33.1553 32.6148 33.1553C31.6935 33.1553 30.9465 33.8994 30.9465 34.8173C30.9465 35.7353 31.6935 36.4794 32.6148 36.4794Z" fill="#231F20"/>
<path d="M47.4249 36.4794C48.3463 36.4794 49.0932 35.7353 49.0932 34.8173C49.0932 33.8994 48.3463 33.1553 47.4249 33.1553C46.5035 33.1553 45.7566 33.8994 45.7566 34.8173C45.7566 35.7353 46.5035 36.4794 47.4249 36.4794Z" fill="#231F20"/>
<path d="M39.9649 38.9099C41.7381 38.9099 43.1756 38.0184 43.1756 36.9186C43.1756 35.8188 41.7381 34.9272 39.9649 34.9272C38.1916 34.9272 36.7542 35.8188 36.7542 36.9186C36.7542 38.0184 38.1916 38.9099 39.9649 38.9099Z" fill="#231F20"/>
<path d="M26.634 21.8969C29.0578 19.5763 32.4259 18.416 35.6838 17.8986C39.4611 17.3027 43.4272 17.6007 47.0629 18.761C49.1247 19.4195 51.0605 20.3917 52.7918 21.6774C53.4056 22.1321 53.9879 21.1129 53.3899 20.6582C50.1319 18.2435 46.1658 16.9735 42.1524 16.5658C38.139 16.1581 34.283 16.5815 30.6946 18.024C28.9004 18.7453 27.2006 19.7174 25.7841 21.0659C25.2333 21.5833 26.0674 22.4143 26.6183 21.8969H26.634Z" fill="#231F20"/>
<path d="M22.8724 23.1357C20.7792 27.1341 18.7804 31.6812 18.9063 36.2754C18.9692 38.2354 19.4729 40.211 20.6375 41.8104C21.9439 43.6136 23.8955 44.9934 25.8943 45.9498C28.2551 47.0631 30.8362 47.6276 33.4331 47.7373C34.1886 47.7687 34.1886 46.5927 33.4331 46.5614C29.2309 46.3575 24.7296 44.8679 21.9439 41.5752C19.3784 38.549 19.8978 34.19 20.9523 30.6777C21.6763 28.263 22.7151 25.9581 23.8955 23.7316C24.2417 23.0573 23.2344 22.4615 22.8724 23.1357Z" fill="#231F20"/>
<path d="M56.1442 23.7316C58.0958 27.4477 59.9529 31.6499 59.9529 35.9305C59.9529 37.7493 59.5437 39.5368 58.4892 41.0577C57.3246 42.7512 55.4517 44.0212 53.6102 44.8993C51.4226 45.9498 48.9988 46.4516 46.5908 46.5614C45.8353 46.5927 45.8353 47.7687 46.5908 47.7373C51.092 47.5335 56.0025 45.9185 58.9614 42.3592C61.7157 39.0351 61.4009 34.5036 60.2835 30.5993C59.528 28.0122 58.4106 25.5191 57.1672 23.1357C56.8209 22.4615 55.7979 23.0573 56.1442 23.7316Z" fill="#231F20"/>
<path d="M49.0931 18.6199C49.88 17.0519 50.9345 15.5623 52.1306 14.2609C52.713 13.6337 53.3268 13.0222 54.0508 12.5989C54.3498 12.4264 54.6016 12.3166 54.8534 12.2696C54.8062 12.2696 54.9794 12.2696 55.0266 12.2696C55.0738 12.2696 55.2469 12.3009 55.1053 12.2696C55.1682 12.2696 55.2312 12.3009 55.2941 12.3166C55.4358 12.348 55.2312 12.2539 55.3413 12.3323C55.3886 12.3637 55.4358 12.395 55.483 12.4107C55.5932 12.4734 55.42 12.3323 55.5145 12.4421C55.5459 12.4734 55.5932 12.5205 55.6246 12.5518C55.6561 12.5832 55.782 12.74 55.6876 12.6145C55.8607 12.8341 55.9866 13.0849 56.1125 13.3358C56.1755 13.4769 56.1125 13.3358 56.1598 13.4613C56.1912 13.5396 56.2227 13.618 56.2542 13.6964C56.3171 13.8532 56.3644 14.0257 56.4116 14.1982C56.5218 14.5588 56.6162 14.9352 56.6791 15.3115C57.0254 16.9578 57.1513 18.6356 57.23 20.3447C57.2929 21.8186 57.3087 23.2925 57.2772 24.7821C57.2772 25.5347 58.4419 25.5347 58.4576 24.7821C58.5206 21.5991 58.4576 18.3377 57.8595 15.2017C57.6077 13.916 57.2457 12.2225 56.0968 11.4229C54.6646 10.4194 52.9018 11.8306 51.9103 12.8027C51.0604 13.618 50.3364 14.5275 49.6439 15.4839C49.0616 16.2993 48.5265 17.1303 48.07 18.0241C47.7395 18.6983 48.7468 19.2941 49.0931 18.6199Z" fill="#231F20"/>
<path d="M52.288 19.639C52.4454 19.1686 52.6185 18.6825 52.8074 18.2278C52.8074 18.1965 52.8389 18.1651 52.8546 18.1181C52.9333 17.9456 52.8704 18.071 52.8546 18.1181C52.8861 18.0397 52.9176 17.9613 52.9648 17.8829C53.0277 17.7261 53.1064 17.5693 53.1851 17.4125C53.3425 17.0989 53.5156 16.801 53.6888 16.503C53.7989 16.3306 53.9091 16.1738 54.0193 16.017C54.0665 15.9542 53.9406 16.1267 53.9878 16.064C54.0035 16.0483 54.0193 16.017 54.035 16.0013C54.0665 15.9542 54.098 15.9229 54.1295 15.8915C54.1924 15.8131 54.2554 15.7347 54.3341 15.672C54.5544 15.4525 54.5701 15.0605 54.3341 14.841C54.098 14.6215 53.7203 14.6058 53.4999 14.841C52.4926 15.8915 51.8946 17.2713 51.4067 18.6041C51.328 18.8393 51.2335 19.0745 51.1548 19.3254C51.0604 19.6233 51.265 19.984 51.564 20.0467C51.8946 20.1251 52.1779 19.9526 52.288 19.639Z" fill="#231F20"/>
<path d="M19.9134 22.3516C20.0551 23.6687 20.3699 24.9702 20.7004 26.2559C20.7633 26.5068 20.8263 26.7577 20.8892 27.0085C20.9679 27.3065 21.3142 27.5103 21.6132 27.4162C21.9123 27.3221 22.1169 27.0085 22.0224 26.6949C21.7234 25.5503 21.4244 24.4057 21.2198 23.2454C21.1883 23.0729 21.1568 22.8848 21.1253 22.7123C21.1253 22.6809 21.1253 22.6339 21.1096 22.6025C21.1253 22.7593 21.0939 22.4771 21.1096 22.6025C21.1096 22.5241 21.0939 22.4457 21.0781 22.3673C21.0624 22.2105 21.0309 22.0694 20.905 21.944C20.7948 21.8342 20.6374 21.7715 20.48 21.7715C20.181 21.7715 19.8505 22.038 19.882 22.3673L19.9134 22.3516Z" fill="#231F20"/>
<path d="M29.6243 18.1494C28.68 16.6441 27.594 15.2172 26.3349 13.9629C25.4221 13.0534 24.3046 12.0499 23.0141 11.7206C22.5419 11.5952 21.9753 11.5638 21.5346 11.799C21.2671 11.9402 21.0782 12.191 20.9051 12.4262C20.4014 13.1632 20.1339 14.104 19.9608 14.9664C19.583 16.7539 19.5358 18.6041 19.646 20.4229C19.6617 20.7365 19.8978 21.0188 20.244 21.0188C20.5431 21.0188 20.8579 20.7522 20.8421 20.4229C20.7949 19.5605 20.7792 18.6982 20.8106 17.8358C20.8264 17.4595 20.8579 17.0988 20.8893 16.7382C20.9208 16.3775 20.9523 16.2051 20.9995 15.8601C21.0939 15.327 21.2041 14.7939 21.3615 14.2765C21.4245 14.0726 21.5031 13.8688 21.5818 13.6649C21.6291 13.5238 21.5346 13.7747 21.5818 13.6493C21.5976 13.6022 21.6133 13.5709 21.6448 13.5238C21.6763 13.4454 21.7235 13.367 21.755 13.2886C21.8179 13.1632 21.9124 13.0534 21.9753 12.928C21.8966 13.0691 21.9281 12.975 21.9911 12.9123C22.0225 12.8809 22.0697 12.8339 22.1012 12.8025C22.1484 12.7398 21.9596 12.8966 22.0383 12.8496C22.054 12.8496 22.0697 12.8339 22.0855 12.8182C22.1642 12.7712 22.0697 12.8496 22.0068 12.8496C22.0383 12.8496 22.0855 12.8182 22.117 12.8182C22.1484 12.8182 22.1957 12.8182 22.2271 12.7869C22.0855 12.8339 22.1642 12.7869 22.2429 12.7869C22.2901 12.7869 22.3373 12.7869 22.3845 12.7869C22.4317 12.7869 22.6206 12.8182 22.4475 12.7869C22.6678 12.8339 22.8724 12.8809 23.0928 12.975C22.9511 12.928 23.1242 12.9907 23.1557 13.0064C23.2187 13.0377 23.2659 13.0691 23.3288 13.0848C23.4705 13.1632 23.5964 13.2259 23.7223 13.32C23.8325 13.3984 23.9584 13.4611 24.0686 13.5395C24.1315 13.5865 24.1945 13.6336 24.2574 13.6806C24.2574 13.6806 24.3676 13.759 24.3204 13.7277C24.2732 13.6963 24.3833 13.7904 24.3991 13.7904C24.6824 14.0099 24.9499 14.2451 25.2018 14.496C26.5081 15.7504 27.6255 17.2086 28.5856 18.7295C28.7587 18.9961 29.105 19.1058 29.3883 18.9334C29.6716 18.7609 29.766 18.4002 29.5929 18.1337L29.6243 18.1494Z" fill="#231F20"/>
<path d="M27.1691 20.1096C26.8071 18.7298 26.1618 17.4284 25.2962 16.2995C25.0286 15.9545 24.7611 15.6252 24.462 15.3273C24.2417 15.1078 23.8325 15.0921 23.6279 15.3273C23.4233 15.5625 23.3918 15.9231 23.6279 16.1583C23.864 16.3935 24.0843 16.6444 24.2889 16.911C24.3833 17.0207 24.2417 16.8482 24.2889 16.911C24.3046 16.9423 24.3361 16.9737 24.3519 17.005C24.3991 17.0834 24.462 17.1462 24.5092 17.2246C24.6037 17.3657 24.6981 17.5068 24.7925 17.6479C24.9657 17.9302 25.1388 18.2124 25.2962 18.5103C25.3749 18.6671 25.4536 18.8082 25.5165 18.965C25.5165 18.9964 25.548 19.0277 25.5637 19.0748C25.5637 19.0905 25.5637 19.1061 25.5795 19.1218C25.5795 19.1218 25.5323 19.0121 25.5637 19.0748C25.5952 19.1532 25.6267 19.2316 25.6582 19.3257C25.7998 19.6863 25.91 20.0469 26.0202 20.4232C26.0989 20.7212 26.4451 20.925 26.7441 20.8309C27.0432 20.7368 27.2478 20.4232 27.1533 20.1096H27.1691Z" fill="#231F20"/>
</svg>
