<svg width="80" height="76" viewBox="0 0 80 76" fill="none" xmlns="http://www.w3.org/2000/svg">
<path d="M56.2345 50.238C55.6679 50.2223 55.117 50.3634 54.7236 50.7711C54.6606 50.8338 54.6134 50.8965 54.5976 50.9749C54.5976 51.069 54.6449 51.1788 54.6921 51.2571C55.542 52.7467 55.6679 54.6126 55.0226 56.1963C54.7865 56.7921 54.4245 57.3566 53.8894 57.7015C53.3543 58.0465 52.6303 58.1563 52.0795 57.827C52.7877 54.6126 51.5129 51.2728 50.238 48.3564C50.0019 47.8233 49.6872 46.7414 49.1993 46.3964C47.4995 43.8249 44.6193 42.0374 41.5502 41.6925C38.371 41.3318 35.0659 42.4765 32.7995 44.7187C28.8491 48.6386 25.7643 62.3741 34.8928 61.9194L35.538 61.2295C35.8371 61.7156 36.3092 62.0605 37.0804 62.1703C39.819 62.5466 40.4643 60.8532 40.6217 58.8148C40.779 60.8375 41.4243 62.5309 44.1629 62.1703C45.7367 61.9508 47.2319 61.7626 48.7271 61.2452C50.2538 60.7121 51.6545 61.01 53.1812 61.1041C54.8809 61.1981 56.6122 60.2574 57.9185 59.2539C59.2406 58.2503 59.7127 56.8548 59.8072 55.2555C59.8859 53.8443 59.8072 52.2607 58.7841 51.2885C58.4694 50.9906 58.1074 50.7868 57.7139 50.6143C57.2575 50.4104 56.7381 50.2536 56.2345 50.238Z" fill="white"/>
<path d="M54.1101 59.5818C56.9431 58.4685 58.9576 55.3169 58.2337 52.228C58.155 51.9144 58.0605 51.6008 57.8559 51.3342C57.5254 50.8952 56.9746 50.6757 56.4237 50.6286C56.0302 50.5973 54.2675 50.5032 54.6924 51.2558C55.5423 52.7454 55.6682 54.6113 55.023 56.195C54.7869 56.7908 54.4249 57.3553 53.8898 57.7002C52.8668 58.3745 52.127 58.0138 51.5604 59.3623C51.167 60.3188 53.276 59.8484 53.6222 59.7386C53.7796 59.6916 53.937 59.6289 54.0944 59.5661L54.1101 59.5818Z" fill="#888888"/>
<path d="M34.3733 49.2346C33.728 48.137 32.4846 47.1962 31.4144 46.6004C30.7533 46.224 28.9277 54.4873 29.0221 55.3026C29.6202 54.8166 30.1868 54.5657 30.9422 54.2991C32.0282 53.9228 33.1456 53.4995 33.9326 52.6684C35.0658 51.4768 34.9871 50.2851 34.389 49.2346H34.3733Z" fill="#888888"/>
<path d="M50.254 48.3562C50.1124 48.0269 49.9235 47.4782 49.6874 47.0234C49.3255 47.29 48.9477 47.5409 48.6015 47.8231C47.3581 48.8266 45.438 50.081 46.3823 51.9626C47.3581 53.9225 50.3013 54.5184 52.1269 55.3808C53.15 54.095 50.8364 49.689 50.2698 48.3719L50.254 48.3562Z" fill="#888888"/>
<path d="M34.5463 56.5411C34.5463 57.5289 34.4204 58.5167 34.4676 59.5046C34.5306 60.5708 34.8296 61.6527 35.7425 62.2956C36.2461 62.6562 36.8914 62.766 37.4895 62.7973C38.0561 62.8287 38.6384 62.7817 39.1578 62.5621C39.6771 62.3426 40.0864 62.0133 40.4169 61.5586C40.7002 61.1666 40.8733 60.7119 40.9835 60.2415C41.2668 59.0969 41.251 57.8896 41.2353 56.7293C41.2353 56.4157 40.9677 56.1334 40.6372 56.1334C40.3067 56.1334 40.0391 56.3843 40.0391 56.7293C40.0391 57.231 40.0391 57.7328 40.0391 58.2188C40.0391 58.4697 40.0234 58.7049 39.9919 58.9558C39.9919 59.0655 39.9762 59.1753 39.9604 59.3007C39.9604 59.3478 39.929 59.4575 39.9604 59.2694C39.9604 59.3007 39.9604 59.3321 39.9604 59.3635C39.9604 59.4262 39.9447 59.4889 39.929 59.5359C39.8975 59.7555 39.8345 59.975 39.7716 60.1788C39.7401 60.2729 39.7086 60.367 39.6771 60.461C39.6299 60.6022 39.7401 60.3356 39.6771 60.461C39.6457 60.5238 39.6299 60.5708 39.5985 60.6335C39.5512 60.7119 39.504 60.806 39.4568 60.8844C39.4253 60.9158 39.4096 60.9471 39.3781 60.9942C39.3152 61.0726 39.4725 60.8844 39.4096 60.9628C39.3939 60.9942 39.3624 61.0098 39.3466 61.0412C39.2837 61.1039 39.2207 61.1823 39.142 61.245C39.1263 61.245 39.1106 61.2764 39.0948 61.2921C39.0476 61.3391 39.2207 61.198 39.142 61.2607C39.0948 61.2921 39.0476 61.3234 38.9846 61.3705C38.906 61.4175 38.7958 61.4489 38.7171 61.5116C38.7958 61.4489 38.843 61.4645 38.78 61.4802C38.7486 61.4802 38.7328 61.4959 38.7013 61.5116C38.6384 61.5273 38.5754 61.5586 38.5125 61.5743C38.4023 61.6057 38.2921 61.6214 38.182 61.637C38.182 61.637 38.3394 61.6214 38.2449 61.637C38.2134 61.637 38.182 61.637 38.1505 61.637C38.0718 61.637 37.9931 61.637 37.9301 61.637C37.8042 61.637 37.6626 61.637 37.5367 61.637C37.458 61.637 37.3793 61.637 37.3006 61.6213C37.2534 61.6213 37.2219 61.6213 37.1747 61.6213C37.033 61.6057 37.3006 61.637 37.1747 61.6213C37.0488 61.6057 36.9386 61.5743 36.8127 61.5429C36.7497 61.5273 36.6868 61.4959 36.6396 61.4802C36.5294 61.4489 36.7655 61.5429 36.671 61.4802C36.6396 61.4802 36.6238 61.4489 36.5924 61.4489C36.4979 61.4018 36.4192 61.3391 36.3248 61.2921C36.2304 61.245 36.435 61.3862 36.3563 61.3234C36.3405 61.3078 36.3091 61.2921 36.2933 61.2764C36.2461 61.245 36.2146 61.198 36.1831 61.1666C36.1517 61.1353 36.1202 61.0726 36.073 61.0412C36.1674 61.1039 36.1517 61.151 36.1202 61.1039C36.1202 61.0882 36.0887 61.0569 36.073 61.0412C36.01 60.9471 35.9628 60.853 35.9156 60.759C35.9156 60.7276 35.8998 60.7119 35.8841 60.6806C35.8369 60.5865 35.9313 60.8217 35.8999 60.7276C35.8999 60.6806 35.8684 60.6492 35.8526 60.6022C35.8212 60.4924 35.7897 60.3826 35.7582 60.2729C35.7267 60.1631 35.711 60.0691 35.6952 59.9593C35.6952 59.9279 35.6952 59.8966 35.6952 59.8652C35.7267 60.0377 35.6952 59.9593 35.6952 59.9122C35.6952 59.8495 35.6952 59.7868 35.6795 59.7084C35.5851 58.6579 35.7425 57.6073 35.7425 56.5568C35.7425 56.2432 35.4749 55.9609 35.1444 55.9609C34.8139 55.9609 34.5621 56.2118 34.5463 56.5568V56.5411Z" fill="#231F20"/>
<path d="M49.892 46.3488C47.8145 43.0717 44.0844 40.9706 40.1812 41.049C36.7974 41.1117 33.3663 42.7424 31.399 45.5334C30.0769 47.4307 29.227 49.7199 28.7549 51.9621C28.2827 54.2043 28.0939 56.6974 28.928 58.8769C29.353 59.9745 30.0297 60.9467 31.0213 61.6052C32.1545 62.3578 33.5552 62.5774 34.9087 62.5303C35.6642 62.499 35.6642 61.323 34.9087 61.3543C32.9257 61.4484 31.1314 60.7742 30.2343 58.9396C29.3372 57.1051 29.4317 54.9413 29.7464 53.044C30.0927 50.9273 30.7852 48.8419 31.8712 46.9916C33.2876 44.5613 35.7271 42.9619 38.4972 42.4288C42.5105 41.6448 46.697 43.5421 48.869 46.976C49.2782 47.6188 50.3012 47.023 49.892 46.3801V46.3488Z" fill="#231F20"/>
<path d="M45.5478 56.5413C45.5478 57.482 45.6738 58.4071 45.6265 59.3479C45.6265 59.4577 45.6265 59.5675 45.6108 59.6929C45.6108 59.7556 45.6108 59.8027 45.5951 59.8654C45.5951 59.8967 45.5951 59.9124 45.5951 59.9438C45.5951 59.8967 45.6108 59.7399 45.5951 59.9438C45.5636 60.1633 45.5164 60.3828 45.4377 60.5866C45.4377 60.6337 45.4062 60.665 45.3905 60.7121C45.359 60.8218 45.4534 60.571 45.4062 60.665C45.4062 60.6964 45.3905 60.7121 45.3747 60.7434C45.3275 60.8375 45.2803 60.9316 45.2173 61.0257C45.2173 61.0414 45.1859 61.057 45.1859 61.0727C45.1544 61.1354 45.1229 61.1041 45.2173 61.0257C45.1859 61.057 45.1544 61.1041 45.1072 61.1511C45.0757 61.1825 45.0442 61.2138 45.0127 61.2452C44.997 61.2609 44.9655 61.2766 44.9498 61.2922C44.8396 61.3863 45.0442 61.2295 44.9498 61.2922C44.8553 61.355 44.7766 61.402 44.6822 61.449C44.635 61.4804 44.4776 61.5117 44.6665 61.449C44.6035 61.4647 44.5248 61.4961 44.4619 61.5274C44.336 61.5588 44.2258 61.5902 44.0999 61.6058C44.0527 61.6058 44.0369 61.6372 44.1471 61.6058C44.1156 61.6058 44.0527 61.6058 44.0212 61.6058C43.9268 61.6058 43.8481 61.6215 43.7536 61.6215C43.6277 61.6215 43.4861 61.6215 43.3602 61.6215C43.2972 61.6215 43.2185 61.6215 43.1556 61.6215C43.0926 61.6215 42.888 61.5745 43.0769 61.6215C42.9667 61.5901 42.8565 61.5901 42.7464 61.5588C42.6834 61.5588 42.6362 61.5274 42.5732 61.5118C42.5417 61.5118 42.526 61.4961 42.4945 61.4804C42.4316 61.449 42.4316 61.4177 42.526 61.4961C42.4631 61.4334 42.3371 61.402 42.2585 61.355C42.2112 61.3236 42.164 61.2922 42.1325 61.2609C42.0381 61.1982 42.1168 61.2609 42.1325 61.2609C42.227 61.3236 42.1325 61.2609 42.1168 61.2452C42.0381 61.1825 41.9752 61.1198 41.9122 61.0414C41.865 60.9943 41.7863 60.8532 41.8965 61.0257C41.865 60.9786 41.8335 60.9473 41.802 60.9002C41.7548 60.8218 41.7076 60.7434 41.6604 60.6494C41.6289 60.6023 41.6132 60.5553 41.5974 60.5082C41.5974 60.4926 41.5974 60.4769 41.5817 60.4612C41.5345 60.3671 41.6446 60.618 41.5817 60.4612C41.503 60.2574 41.44 60.0535 41.3928 59.8497C41.3613 59.7243 41.3456 59.5988 41.3141 59.4734C41.3141 59.4107 41.2984 59.3479 41.2826 59.3009C41.2669 59.1911 41.2984 59.4577 41.2826 59.3323C41.2826 59.3009 41.2826 59.2539 41.2826 59.2225C41.2512 58.9559 41.2354 58.6894 41.2197 58.4228C41.1882 57.8584 41.204 57.2939 41.204 56.7294C41.204 56.4158 40.9364 56.1336 40.6059 56.1336C40.2754 56.1336 40.0236 56.3845 40.0078 56.7294C40.0078 57.7956 40.0078 58.8775 40.1967 59.9281C40.3855 60.8846 40.8262 61.841 41.6919 62.3585C42.1798 62.6564 42.7621 62.7661 43.3129 62.7975C43.9582 62.8132 44.635 62.7348 45.2173 62.4525C46.2561 61.9665 46.6496 60.8689 46.7597 59.8183C46.8699 58.7678 46.7125 57.6232 46.7125 56.5099C46.7125 56.1963 46.445 55.9141 46.1144 55.9141C45.7839 55.9141 45.5164 56.1649 45.5164 56.5099L45.5478 56.5413Z" fill="#231F20"/>
<path d="M48.8536 46.8515C49.0739 46.9769 49.1999 47.3219 49.31 47.5414C49.4517 47.855 49.5461 48.1686 49.672 48.4822C49.8766 48.9839 50.097 49.4857 50.2858 50.0031C50.7108 51.1478 51.0728 52.3081 51.3246 53.4997C51.7338 55.444 51.9856 57.9214 50.758 59.5051C49.9868 60.4929 48.7434 60.9006 47.5158 60.9947C46.7604 61.0574 46.7604 62.2334 47.5158 62.1707C48.8851 62.0609 50.2386 61.6689 51.2616 60.6968C52.1115 59.8814 52.5679 58.7681 52.7411 57.6235C53.1188 55.052 52.4106 52.3551 51.5292 49.9561C51.2931 49.3289 51.0098 48.6704 50.7737 48.0588C50.459 47.2905 50.2229 46.287 49.4517 45.8323C48.7907 45.4403 48.2083 46.4595 48.8536 46.8515Z" fill="#231F20"/>
<path d="M59.2881 55.3185C59.2724 55.491 59.3038 55.1931 59.2881 55.3656C59.2881 55.3969 59.2881 55.4283 59.2724 55.4753C59.2724 55.5537 59.2409 55.6478 59.2252 55.7262C59.1937 55.8987 59.1465 56.0712 59.0992 56.228C59.052 56.3691 59.0048 56.5259 58.9576 56.667C58.9261 56.7454 58.8946 56.8238 58.8632 56.9022C58.816 57.012 58.8632 56.9179 58.8632 56.9022C58.8474 56.9492 58.816 56.9963 58.8002 57.0433C58.6586 57.3569 58.4854 57.6548 58.2966 57.9371C58.2179 58.0625 58.1234 58.1879 58.029 58.3134C57.9975 58.3604 57.9661 58.3918 57.9346 58.4388C57.8874 58.5015 57.8244 58.5643 57.7615 58.627C57.5411 58.8779 57.305 59.0974 57.0532 59.3012C57.0217 59.3326 56.9903 59.3483 56.9588 59.3796C56.9745 59.3796 57.0375 59.3169 56.9588 59.3796C56.8958 59.4267 56.8171 59.4737 56.7542 59.5207C56.6125 59.6148 56.4709 59.7089 56.3292 59.7873C56.2033 59.8657 56.0617 59.9284 55.9358 60.0068C55.8571 60.0382 55.7784 60.0695 55.6997 60.1166C55.7154 60.1166 55.8099 60.0695 55.6997 60.1166C55.6525 60.1322 55.5895 60.1636 55.5266 60.1793C55.2118 60.289 54.897 60.3831 54.5665 60.4458C54.535 60.4458 54.5035 60.4458 54.4721 60.4615C54.4248 60.4615 54.3147 60.4772 54.4248 60.4615C54.3147 60.4615 54.2202 60.4929 54.1101 60.4929C53.9212 60.4929 53.7166 60.5086 53.5277 60.4929C53.3389 60.4772 53.15 60.4772 52.9611 60.4458C52.851 60.4458 53.1028 60.4772 52.9297 60.4458C52.8824 60.4458 52.8195 60.4302 52.7723 60.4145C52.6621 60.3988 52.5519 60.3674 52.4418 60.3518C52.1427 60.2734 51.7807 60.4458 51.7178 60.7594C51.6548 61.073 51.8122 61.4023 52.127 61.4807C53.6694 61.8413 55.2905 61.6532 56.6912 60.9162C57.9818 60.242 59.0678 59.1131 59.7131 57.8116C60.1065 57.012 60.3583 56.1809 60.4528 55.3029C60.4843 54.9893 60.1537 54.707 59.8547 54.707C59.5085 54.707 59.3039 54.9736 59.2566 55.3029L59.2881 55.3185Z" fill="#231F20"/>
<path d="M53.1656 58.8608C55.2274 58.3434 56.3448 56.0227 56.2347 54.0314C56.2032 53.4826 56.0773 52.9652 55.8727 52.4634C55.7782 52.2596 55.6681 52.0557 55.5422 51.8833C55.369 51.6481 55.1644 51.4599 54.9756 51.2247C55.0543 51.3031 54.8969 51.1306 54.9126 51.115C54.9441 51.115 54.9283 51.209 54.9441 51.209C54.9126 51.0993 54.9441 51.1777 54.9441 51.209C54.8811 51.3188 54.9126 51.2561 54.9756 51.209C54.9126 51.2718 54.9756 51.209 54.9913 51.209C55.0385 51.1934 55.07 51.162 55.1172 51.1463C55.1172 51.1463 55.2431 51.0993 55.1644 51.115C55.0857 51.1306 55.1959 51.115 55.2116 51.0993C55.2746 51.0679 55.3375 51.0522 55.4162 51.0366C55.5579 50.9895 55.6995 50.9582 55.8412 50.9425C55.8569 50.9425 55.9514 50.9268 55.8412 50.9425C55.8727 50.9425 55.9041 50.9425 55.9356 50.9425C55.9986 50.9425 56.0615 50.9425 56.1402 50.9425C56.2819 50.9425 56.4235 50.9425 56.5652 50.9582C56.4707 50.9425 56.6596 50.9582 56.5652 50.9582C56.5966 50.9582 56.6281 50.9582 56.6596 50.9738C56.7226 50.9738 56.7855 51.0052 56.8485 51.0209C56.9901 51.0522 57.116 51.0993 57.2419 51.1463C57.2577 51.1463 57.3521 51.1934 57.2419 51.1463C57.2734 51.162 57.3206 51.1777 57.3521 51.1934C57.4151 51.2247 57.478 51.2561 57.5567 51.2874C57.6826 51.3658 57.8085 51.4442 57.9344 51.5226C57.9659 51.5383 57.9817 51.554 58.0131 51.5854C57.903 51.507 58.0289 51.601 58.0446 51.6167C58.1076 51.6638 58.1548 51.7108 58.202 51.7578C58.3122 51.8676 58.4223 51.9773 58.5168 52.1028C58.5325 52.1185 58.5797 52.1969 58.5168 52.1028C58.5325 52.1341 58.5483 52.1498 58.5797 52.1812C58.6269 52.2439 58.6742 52.3223 58.7214 52.385C58.8001 52.5105 58.863 52.6359 58.926 52.777C58.8788 52.6673 58.926 52.7457 58.926 52.777C58.9417 52.8241 58.9575 52.8711 58.9732 52.9181C58.9889 52.9809 59.0204 53.0436 59.0361 53.1063C59.0519 53.1847 59.0834 53.2631 59.0991 53.3572C59.0991 53.3885 59.0991 53.4199 59.1148 53.4513C59.0991 53.3415 59.1148 53.4512 59.1148 53.4983C59.1463 53.7962 59.3667 54.0941 59.7129 54.0941C60.012 54.0941 60.3425 53.8276 60.311 53.4983C60.1851 52.2125 59.4768 51.0836 58.3751 50.3937C57.2734 49.7038 55.8884 49.5783 54.6923 50.1115C54.3303 50.2682 53.9525 50.5348 53.8581 50.9425C53.7322 51.3972 53.9368 51.8049 54.2358 52.1341C54.3303 52.2439 54.4404 52.338 54.5349 52.4477C54.5506 52.4634 54.5664 52.4948 54.5821 52.5105C54.6293 52.5732 54.5191 52.4164 54.5663 52.4948C54.5978 52.5575 54.645 52.6045 54.6765 52.6673C54.7395 52.7613 54.7867 52.8554 54.8339 52.9495C54.8339 52.9809 54.9283 53.169 54.8654 53.0122C54.8811 53.0749 54.9126 53.122 54.9283 53.1847C54.9598 53.2945 55.007 53.4042 55.0228 53.5296C55.0228 53.5767 55.0543 53.6394 55.0543 53.7021C55.0543 53.7335 55.0543 53.7648 55.0543 53.7805C55.0543 53.7962 55.07 53.9216 55.0543 53.8276C55.0543 53.7335 55.0543 53.8276 55.0543 53.8589C55.0543 53.8903 55.0543 53.9373 55.0543 53.9687C55.0543 54.0314 55.0543 54.0784 55.0543 54.1412C55.0543 54.2666 55.0543 54.4077 55.0543 54.5332C55.0543 54.6429 55.0385 54.7684 55.0228 54.8781C55.0228 54.9095 55.007 54.9879 55.0228 54.8468C55.0228 54.8781 55.0228 54.9095 55.0228 54.9408C55.0228 55.0192 54.9913 55.082 54.9756 55.1603C54.9283 55.4112 54.8496 55.6464 54.771 55.8816C54.771 55.913 54.6608 56.1168 54.7395 55.9914C54.708 56.0541 54.6923 56.1168 54.6608 56.1639C54.5978 56.2893 54.5349 56.3991 54.4562 56.5245C54.3775 56.6499 54.2988 56.744 54.2358 56.8538C54.1886 56.9322 54.3303 56.744 54.2358 56.8538C54.2201 56.8851 54.1886 56.9008 54.1729 56.9322C54.1257 56.9792 54.0942 57.0262 54.047 57.0733C53.9525 57.1674 53.8424 57.2614 53.7479 57.3555C53.7165 57.3712 53.6535 57.4182 53.7637 57.3398C53.7322 57.3555 53.7007 57.3869 53.685 57.4026C53.622 57.4496 53.5748 57.481 53.5119 57.5123C53.4017 57.575 53.2915 57.6378 53.1656 57.6848C53.3073 57.6221 53.1184 57.6848 53.0712 57.7162C53.0082 57.7318 52.9453 57.7632 52.8666 57.7789C52.5518 57.8573 52.3787 58.2022 52.4574 58.5001C52.5361 58.7981 52.8666 58.9862 53.1813 58.9078L53.1656 58.8608Z" fill="#231F20"/>
<path d="M61.2548 34.5731C61.1919 34.0557 61.1132 33.5382 61.0188 33.0365C60.7355 31.6096 60.3105 30.1984 59.7439 28.85C59.0514 27.2036 58.8311 26.7018 58.9098 24.93C58.9727 23.3307 58.7839 21.6843 58.6579 20.085C58.5478 18.6111 58.4061 16.9333 57.7766 15.5692C57.4303 14.8322 56.8165 14.2521 56.2499 13.6562C55.8879 13.7974 55.5259 13.9071 55.1797 14.0639C52.5671 15.2556 50.4738 17.7016 49.7341 20.4142C47.3733 19.2226 44.6505 18.956 42.0378 18.7679C39.016 18.5483 35.9627 18.8306 33.0353 19.5989C32.4687 19.7557 30.942 20.7278 30.4541 20.5867C29.557 20.3358 28.4081 17.5135 27.7471 16.7295C26.6926 15.4751 24.4892 12.6527 22.6792 14.2364C21.4673 15.2869 21.3571 17.8428 21.2784 19.301C21.1683 21.5432 20.9637 24.444 21.7506 26.6078C22.2542 28.0033 22.7107 28.4737 22.207 30.1357C21.184 33.5226 20.098 37.1289 21.0738 40.5471C22.27 44.765 27.1175 48.1205 31.367 48.7947C35.7109 49.5003 40.5899 49.3905 44.9967 49.2651C48.0815 49.171 51.4181 48.7947 54.3455 47.556C56.6749 46.5681 60.2948 44.2475 60.8771 41.7074C61.4122 39.3711 61.5224 36.9408 61.2391 34.5574L61.2548 34.5731Z" fill="#888888"/>
<path d="M24.458 17.2461C24.458 17.2461 24.3321 17.2461 24.2691 17.2775C23.372 17.6068 23.4979 19.7079 23.4507 20.4291C23.372 21.7933 23.5766 23.032 23.8284 24.3491C23.8756 24.6 24.0488 24.8665 24.3006 24.8665C24.4894 24.8665 24.6311 24.7097 24.757 24.5686C25.2449 24.0198 25.7643 23.5181 26.3151 23.032C26.7243 22.687 27.3382 22.4048 27.6844 21.9971C28.0149 21.6208 27.527 20.8839 27.3382 20.5389C26.9132 19.7706 26.4253 19.018 25.8272 18.3751C25.5125 18.0301 24.9616 17.2461 24.4265 17.2305L24.458 17.2461Z" fill="white"/>
<path d="M55.7146 17.8113C55.3211 17.0274 54.5342 17.2469 54.0463 18.0622C53.5741 18.8619 53.2593 19.7243 52.8973 20.571C52.4724 21.5588 51.8114 22.0606 53.0705 22.7034C53.7 23.0327 54.3453 23.3463 54.9748 23.6756C55.085 23.7226 55.1794 23.7853 55.3054 23.7853C55.5572 23.801 55.7775 23.6129 55.8719 23.3934C56.533 21.9038 56.2654 19.5988 55.809 18.0936C55.7775 17.9838 55.746 17.8897 55.6988 17.8113H55.7146Z" fill="white"/>
<path d="M54.597 36.9567C54.6285 36.6431 54.6757 36.3452 54.6757 36.0316C54.6757 31.6569 51.5123 28.1133 47.6248 28.1133C44.6817 28.1133 42.1635 30.1517 41.109 33.0367C40.0545 30.1517 37.5363 28.1133 34.5931 28.1133C30.7056 28.1133 27.5422 31.6569 27.5422 36.0316C27.5422 36.2197 27.5736 36.4079 27.5894 36.5961C24.6777 37.5996 23.1038 40.124 23.3871 42.4603C24.237 49.5005 38.2445 49.5632 40.6997 49.5005C42.7458 49.5005 56.8162 50.018 58.6104 42.4603C59.1613 40.1397 57.3356 37.8818 54.597 36.9724V36.9567Z" fill="white"/>
<path d="M33.5863 38.289C34.5077 38.289 35.2546 37.5448 35.2546 36.6269C35.2546 35.709 34.5077 34.9648 33.5863 34.9648C32.6649 34.9648 31.918 35.709 31.918 36.6269C31.918 37.5448 32.6649 38.289 33.5863 38.289Z" fill="#231F20"/>
<path d="M48.3968 38.289C49.3182 38.289 50.0651 37.5448 50.0651 36.6269C50.0651 35.709 49.3182 34.9648 48.3968 34.9648C47.4754 34.9648 46.7285 35.709 46.7285 36.6269C46.7285 37.5448 47.4754 38.289 48.3968 38.289Z" fill="#231F20"/>
<path d="M40.9363 40.719C42.7095 40.719 44.147 39.8274 44.147 38.7277C44.147 37.6279 42.7095 36.7363 40.9363 36.7363C39.1631 36.7363 37.7256 37.6279 37.7256 38.7277C37.7256 39.8274 39.1631 40.719 40.9363 40.719Z" fill="#231F20"/>
<path d="M27.6057 23.707C30.0294 21.3864 33.3975 20.2261 36.6555 19.7086C40.4328 19.1128 44.3989 19.4107 48.0346 20.571C50.0963 21.2296 52.0322 22.2017 53.7635 23.4875C54.3773 23.9422 54.9596 22.923 54.3615 22.4683C51.1036 20.0536 47.1375 18.7835 43.1241 18.3758C39.1107 17.9682 35.2547 18.3915 31.6663 19.8341C29.8721 20.5553 28.1723 21.5275 26.7558 22.8759C26.2049 23.3934 27.0391 24.2244 27.5899 23.707H27.6057Z" fill="#231F20"/>
<path d="M23.8439 24.9468C21.7506 28.9451 19.7518 33.4923 19.8777 38.0864C19.9407 40.0464 20.4443 42.0221 21.609 43.6214C22.9153 45.4246 24.8669 46.8044 26.8657 47.7609C29.2265 48.8741 31.8077 49.4386 34.4046 49.5484C35.16 49.5797 35.16 48.4038 34.4046 48.3724C30.2023 48.1686 25.7011 46.679 22.9153 43.3862C20.3499 40.36 20.8693 36.001 21.9238 32.4888C22.6477 30.0741 23.6865 27.7691 24.8669 25.5426C25.2132 24.8684 24.2059 24.2725 23.8439 24.9468Z" fill="#231F20"/>
<path d="M57.1151 25.5426C59.0667 29.2587 60.9239 33.4609 60.9239 37.7415C60.9239 39.5603 60.5147 41.3478 59.4602 42.8688C58.2955 44.5622 56.4226 45.8323 54.5812 46.7103C52.3935 47.7609 49.9697 48.2626 47.5617 48.3724C46.8063 48.4038 46.8063 49.5797 47.5617 49.5484C52.063 49.3445 56.9735 47.7295 59.9324 44.1702C62.6866 40.8461 62.3719 36.3146 61.2544 32.4104C60.499 29.8232 59.3815 27.3301 58.1381 24.9468C57.7919 24.2725 56.7689 24.8684 57.1151 25.5426Z" fill="#231F20"/>
<path d="M50.0643 20.4305C50.8512 18.8625 51.9057 17.3729 53.1018 16.0715C53.6842 15.4443 54.298 14.8328 55.022 14.4094C55.321 14.2369 55.5728 14.1272 55.8246 14.0801C55.7774 14.0801 55.9506 14.0801 55.9978 14.0801C56.045 14.0801 56.2181 14.1115 56.0765 14.0801C56.1394 14.0801 56.2024 14.1115 56.2653 14.1272C56.407 14.1585 56.2024 14.0645 56.3125 14.1429C56.3598 14.1742 56.407 14.2056 56.4542 14.2213C56.5644 14.284 56.3912 14.1429 56.4857 14.2526C56.5171 14.284 56.5644 14.331 56.5958 14.3624C56.6273 14.3937 56.7532 14.5505 56.6588 14.4251C56.8319 14.6446 56.9578 14.8955 57.0837 15.1464C57.1467 15.2875 57.0837 15.1464 57.131 15.2718C57.1624 15.3502 57.1939 15.4286 57.2254 15.507C57.2883 15.6638 57.3356 15.8363 57.3828 16.0087C57.4929 16.3694 57.5874 16.7457 57.6503 17.122C57.9966 18.7684 58.1225 20.4461 58.2012 22.1552C58.2641 23.6291 58.2799 25.103 58.2484 26.5926C58.2484 27.3452 59.4131 27.3452 59.4288 26.5926C59.4918 23.4096 59.4288 20.1482 58.8307 17.0123C58.5789 15.7265 58.2169 14.0331 57.068 13.2334C55.6358 12.2299 53.873 13.6411 52.8815 14.6132C52.0316 15.4286 51.3076 16.338 50.6151 17.2945C50.0328 18.1098 49.4977 18.9409 49.0412 19.8346C48.7107 20.5089 49.718 21.1047 50.0643 20.4305Z" fill="#231F20"/>
<path d="M53.26 21.4491C53.4173 20.9787 53.5905 20.4926 53.7793 20.0379C53.7793 20.0065 53.8108 19.9752 53.8265 19.9281C53.8423 19.8811 53.9052 19.7556 53.8265 19.9281C53.858 19.8497 53.8895 19.7713 53.9367 19.6929C53.9997 19.5361 54.0784 19.3793 54.1571 19.2225C54.3144 18.9089 54.4876 18.611 54.6607 18.3131C54.7709 18.1406 54.881 17.9838 54.9912 17.827C55.0384 17.7643 54.9125 17.9368 54.9597 17.8741C54.9755 17.8584 54.9912 17.827 55.007 17.8113C55.0384 17.7643 55.0699 17.7329 55.1014 17.7016C55.1643 17.6232 55.2273 17.5448 55.306 17.4821C55.5263 17.2625 55.5421 16.8706 55.306 16.651C55.0699 16.4315 54.6922 16.4158 54.4718 16.651C53.4646 17.7016 52.8665 19.0814 52.3786 20.4142C52.2999 20.6494 52.2055 20.8846 52.1268 21.1355C52.0323 21.4334 52.2369 21.794 52.536 21.8567C52.8665 21.9351 53.1498 21.7627 53.26 21.4491Z" fill="#231F20"/>
<path d="M20.8851 24.1622C21.0268 25.4793 21.3416 26.7807 21.6721 28.0665C21.735 28.3173 21.798 28.5682 21.8609 28.8191C21.9396 29.117 22.2859 29.3208 22.5849 29.2268C22.8839 29.1327 23.0885 28.8191 22.9941 28.5055C22.6951 27.3609 22.396 26.2162 22.1914 25.0559C22.16 24.8835 22.1285 24.6953 22.097 24.5228C22.097 24.4915 22.097 24.4444 22.0813 24.4131C22.0655 24.2876 22.097 24.5699 22.0813 24.4131C22.0813 24.3347 22.0655 24.2563 22.0498 24.1779C22.0341 24.0211 22.0026 23.8799 21.8767 23.7545C21.7665 23.6447 21.6091 23.582 21.4517 23.582C21.1527 23.582 20.8222 23.8486 20.8536 24.1779L20.8851 24.1622Z" fill="#231F20"/>
<path d="M30.5958 19.9609C29.6514 18.4556 28.5655 17.0288 27.3064 15.7744C26.3935 14.865 25.2761 13.8614 23.9855 13.5322C23.5133 13.4067 22.9467 13.3754 22.5061 13.6106C22.2385 13.7517 22.0496 14.0026 21.8765 14.2378C21.3729 14.9747 21.1053 15.9155 20.9322 16.7779C20.5545 18.5654 20.5072 20.4156 20.6174 22.2345C20.6332 22.5481 20.8692 22.8303 21.2155 22.8303C21.5145 22.8303 21.8293 22.5637 21.8136 22.2345C21.7663 21.3721 21.7506 20.5097 21.7821 19.6473C21.7978 19.271 21.8293 18.9103 21.8608 18.5497C21.8923 18.1891 21.9237 18.0166 21.9709 17.6716C22.0654 17.1385 22.1755 16.6054 22.3329 16.088C22.3959 15.8841 22.4746 15.6803 22.5533 15.4765C22.6005 15.3353 22.5061 15.5862 22.5533 15.4608C22.569 15.4137 22.5848 15.3824 22.6162 15.3353C22.6477 15.2569 22.6949 15.1785 22.7264 15.1001C22.7894 14.9747 22.8838 14.8649 22.9467 14.7395C22.8681 14.8806 22.8995 14.7866 22.9625 14.7238C22.994 14.6925 23.0412 14.6454 23.0727 14.6141C23.1199 14.5514 22.931 14.7082 23.0097 14.6611C23.0254 14.6611 23.0412 14.6454 23.0569 14.6298C23.1356 14.5827 23.0412 14.6611 22.9782 14.6611C23.0097 14.6611 23.0569 14.6298 23.0884 14.6298C23.1199 14.6298 23.1671 14.6298 23.1986 14.5984C23.0569 14.6454 23.1356 14.5984 23.2143 14.5984C23.2615 14.5984 23.3087 14.5984 23.356 14.5984C23.4032 14.5984 23.592 14.6298 23.4189 14.5984C23.6393 14.6454 23.8439 14.6925 24.0642 14.7866C23.9225 14.7395 24.0957 14.8022 24.1272 14.8179C24.1901 14.8493 24.2373 14.8806 24.3003 14.8963C24.4419 14.9747 24.5678 15.0374 24.6937 15.1315C24.8039 15.2099 24.9298 15.2726 25.04 15.351C25.103 15.3981 25.1659 15.4451 25.2289 15.4921C25.2289 15.4921 25.339 15.5705 25.2918 15.5392C25.2446 15.5078 25.3548 15.6019 25.3705 15.6019C25.6538 15.8214 25.9214 16.0566 26.1732 16.3075C27.4795 17.5619 28.597 19.0201 29.557 20.541C29.7301 20.8076 30.0764 20.9174 30.3597 20.7449C30.643 20.5724 30.7374 20.2118 30.5643 19.9452L30.5958 19.9609Z" fill="#231F20"/>
<path d="M28.1403 21.9197C27.7783 20.5399 27.133 19.2385 26.2674 18.1095C25.9998 17.7646 25.7322 17.4353 25.4332 17.1374C25.2129 16.9178 24.8037 16.9022 24.5991 17.1374C24.3945 17.3726 24.363 17.7332 24.5991 17.9684C24.8351 18.2036 25.0555 18.4545 25.2601 18.721C25.2129 18.6583 25.3545 18.8308 25.2601 18.721C25.2758 18.7524 25.3073 18.7837 25.323 18.8151C25.3703 18.8935 25.4332 18.9562 25.4804 19.0346C25.5749 19.1757 25.6693 19.3169 25.7637 19.458C25.9369 19.7402 26.11 20.0224 26.2674 20.3204C26.3461 20.4772 26.4248 20.6183 26.4877 20.7751C26.4877 20.8064 26.5192 20.8378 26.5349 20.8848C26.5349 20.9005 26.5349 20.9162 26.5507 20.9319C26.5507 20.9319 26.5034 20.8221 26.5349 20.8848C26.5664 20.9632 26.5979 21.0416 26.6294 21.1357C26.771 21.4963 26.8812 21.857 26.9913 22.2333C27.07 22.5312 27.4163 22.7351 27.7153 22.641C28.0144 22.5469 28.219 22.2333 28.1245 21.9197H28.1403Z" fill="#231F20"/>
</svg>
