<svg width="80" height="76" viewBox="0 0 80 76" fill="none" xmlns="http://www.w3.org/2000/svg">
<path d="M55.337 50.4274C54.7704 50.4117 54.2196 50.5529 53.8261 50.9605C53.7631 51.0233 53.7159 51.086 53.7002 51.1644C53.7002 51.2585 53.7474 51.3682 53.7946 51.4466C54.6445 52.9362 54.7704 54.8021 54.1251 56.3857C53.8891 56.9816 53.5271 57.546 52.9919 57.891C52.4568 58.236 51.7328 58.3457 51.182 58.0164C51.8902 54.8021 50.6154 51.4623 49.3406 48.5458C49.1045 48.0127 48.7897 46.9308 48.3018 46.5859C46.602 44.0144 43.7218 42.2269 40.6528 41.8819C37.4736 41.5213 34.1684 42.6659 31.902 44.9081C27.9516 48.8281 24.8668 62.5636 33.9953 62.1089L34.6406 61.419C34.9396 61.905 35.4118 62.25 36.183 62.3597C38.9215 62.7361 39.5668 61.0426 39.7242 59.0043C39.8816 61.027 40.5269 62.7204 43.2654 62.3597C44.8393 62.1402 46.3345 61.9521 47.8296 61.4346C49.3563 60.9015 50.757 61.1994 52.2837 61.2935C53.9835 61.3876 55.7147 60.4468 57.0211 59.4433C58.3431 58.4398 58.8153 57.0443 58.9097 55.445C58.9884 54.0338 58.9097 52.4501 57.8867 51.478C57.5719 51.1801 57.2099 50.9762 56.8165 50.8037C56.36 50.5999 55.8407 50.4431 55.337 50.4274Z" fill="white"/>
<path d="M33.6489 56.7305C33.6489 57.7184 33.5229 58.7062 33.5702 59.694C33.6331 60.7602 33.9322 61.8422 34.845 62.485C35.3486 62.8457 35.9939 62.9554 36.592 62.9868C37.1586 63.0181 37.7409 62.9711 38.2603 62.7516C38.7797 62.5321 39.1889 62.2028 39.5194 61.7481C39.8027 61.3561 39.9758 60.9014 40.086 60.431C40.3693 59.2864 40.3536 58.079 40.3378 56.9187C40.3378 56.6051 40.0703 56.3229 39.7397 56.3229C39.4092 56.3229 39.1417 56.5737 39.1417 56.9187C39.1417 57.4205 39.1417 57.9222 39.1417 58.4083C39.1417 58.6592 39.1259 58.8944 39.0945 59.1452C39.0945 59.255 39.0787 59.3647 39.063 59.4902C39.063 59.5372 39.0315 59.647 39.063 59.4588C39.063 59.4902 39.063 59.5215 39.063 59.5529C39.063 59.6156 39.0472 59.6783 39.0315 59.7254C39 59.9449 38.9371 60.1644 38.8741 60.3683C38.8426 60.4623 38.8112 60.5564 38.7797 60.6505C38.7325 60.7916 38.8426 60.5251 38.7797 60.6505C38.7482 60.7132 38.7325 60.7603 38.701 60.823C38.6538 60.9014 38.6066 60.9954 38.5593 61.0738C38.5279 61.1052 38.5121 61.1366 38.4807 61.1836C38.4177 61.262 38.5751 61.0738 38.5121 61.1522C38.4964 61.1836 38.4649 61.1993 38.4492 61.2306C38.3862 61.2934 38.3233 61.3718 38.2446 61.4345C38.2288 61.4345 38.2131 61.4658 38.1974 61.4815C38.1501 61.5286 38.3233 61.3874 38.2446 61.4502C38.1974 61.4815 38.1501 61.5129 38.0872 61.5599C38.0085 61.607 37.8983 61.6383 37.8196 61.701C37.8983 61.6383 37.9455 61.654 37.8826 61.6697C37.8511 61.6697 37.8354 61.6854 37.8039 61.701C37.7409 61.7167 37.678 61.7481 37.615 61.7638C37.5048 61.7951 37.3947 61.8108 37.2845 61.8265C37.2845 61.8265 37.4419 61.8108 37.3475 61.8265C37.316 61.8265 37.2845 61.8265 37.253 61.8265C37.1743 61.8265 37.0956 61.8265 37.0327 61.8265C36.9068 61.8265 36.7651 61.8265 36.6392 61.8265C36.5605 61.8265 36.4818 61.8265 36.4031 61.8108C36.3559 61.8108 36.3244 61.8108 36.2772 61.8108C36.1356 61.7951 36.4031 61.8265 36.2772 61.8108C36.1513 61.7951 36.0411 61.7638 35.9152 61.7324C35.8523 61.7167 35.7893 61.6854 35.7421 61.6697C35.6319 61.6383 35.868 61.7324 35.7736 61.6697C35.7421 61.6697 35.7264 61.6383 35.6949 61.6383C35.6005 61.5913 35.5218 61.5286 35.4273 61.4815C35.3329 61.4345 35.5375 61.5756 35.4588 61.5129C35.4431 61.4972 35.4116 61.4815 35.3959 61.4658C35.3486 61.4345 35.3172 61.3874 35.2857 61.3561C35.2542 61.3247 35.2227 61.262 35.1755 61.2306C35.2699 61.2934 35.2542 61.3404 35.2227 61.2934C35.2227 61.2777 35.1913 61.2463 35.1755 61.2306C35.1126 61.1366 35.0653 61.0425 35.0181 60.9484C35.0181 60.917 35.0024 60.9014 34.9867 60.87C34.9394 60.7759 35.0339 61.0111 35.0024 60.917C35.0024 60.87 34.9709 60.8386 34.9552 60.7916C34.9237 60.6819 34.8922 60.5721 34.8607 60.4623C34.8293 60.3526 34.8135 60.2585 34.7978 60.1487C34.7978 60.1174 34.7978 60.086 34.7978 60.0547C34.8293 60.2271 34.7978 60.1487 34.7978 60.1017C34.7978 60.039 34.7978 59.9763 34.782 59.8979C34.6876 58.8473 34.845 57.7968 34.845 56.7462C34.845 56.4326 34.5774 56.1504 34.2469 56.1504C33.9164 56.1504 33.6646 56.4013 33.6489 56.7462V56.7305Z" fill="#231F20"/>
<path d="M48.9945 46.5382C46.917 43.2611 43.187 41.1601 39.2837 41.2384C35.8999 41.3012 32.4689 42.9319 30.5015 45.7229C29.1795 47.6201 28.3296 49.9094 27.8574 52.1516C27.3853 54.3938 27.1964 56.8869 28.0305 59.0664C28.4555 60.164 29.1323 61.1361 30.1238 61.7947C31.257 62.5473 32.6577 62.7668 34.0113 62.7198C34.7667 62.6884 34.7667 61.5124 34.0113 61.5438C32.0282 61.6379 30.234 60.9636 29.3369 59.1291C28.4398 57.2946 28.5342 55.1308 28.849 53.2335C29.1952 51.1167 29.8877 49.0313 30.9737 47.1811C32.3902 44.7507 34.8297 43.1514 37.5997 42.6183C41.6131 41.8343 45.7996 43.7315 47.9715 47.1654C48.3807 47.8083 49.4038 47.2125 48.9945 46.5696V46.5382Z" fill="#231F20"/>
<path d="M44.6348 56.7307C44.6348 57.6715 44.7607 58.5966 44.7135 59.5374C44.7135 59.6472 44.7135 59.7569 44.6977 59.8823C44.6977 59.9451 44.6977 59.9921 44.682 60.0548C44.682 60.0862 44.682 60.1019 44.682 60.1332C44.682 60.0862 44.6977 59.9294 44.682 60.1332C44.6505 60.3527 44.6033 60.5723 44.5246 60.7761C44.5246 60.8231 44.4931 60.8545 44.4774 60.9015C44.4459 61.0113 44.5403 60.7604 44.4931 60.8545C44.4931 60.8859 44.4774 60.9015 44.4616 60.9329C44.4144 61.027 44.3672 61.1211 44.3042 61.2151C44.3042 61.2308 44.2728 61.2465 44.2728 61.2622C44.2413 61.3249 44.2098 61.2935 44.3042 61.2151C44.2728 61.2465 44.2413 61.2935 44.1941 61.3406C44.1626 61.3719 44.1311 61.4033 44.0996 61.4347C44.0839 61.4503 44.0524 61.466 44.0367 61.4817C43.9265 61.5758 44.1311 61.419 44.0367 61.4817C43.9423 61.5444 43.8636 61.5915 43.7691 61.6385C43.7219 61.6698 43.5645 61.7012 43.7534 61.6385C43.6904 61.6542 43.6117 61.6855 43.5488 61.7169C43.4229 61.7482 43.3127 61.7796 43.1868 61.7953C43.1396 61.7953 43.1238 61.8266 43.234 61.7953C43.2025 61.7953 43.1396 61.7953 43.1081 61.7953C43.0137 61.7953 42.935 61.811 42.8405 61.811C42.7146 61.811 42.573 61.811 42.4471 61.811C42.3841 61.811 42.3054 61.811 42.2425 61.811C42.1795 61.811 41.9749 61.7639 42.1638 61.811C42.0536 61.7796 41.9434 61.7796 41.8333 61.7482C41.7703 61.7482 41.7231 61.7169 41.6601 61.7012C41.6287 61.7012 41.6129 61.6855 41.5814 61.6698C41.5185 61.6385 41.5185 61.6071 41.6129 61.6855C41.55 61.6228 41.4241 61.5914 41.3454 61.5444C41.2982 61.513 41.2509 61.4817 41.2195 61.4503C41.125 61.3876 41.2037 61.4503 41.2195 61.4503C41.3139 61.513 41.2195 61.4503 41.2037 61.4347C41.125 61.3719 41.0621 61.3092 40.9991 61.2308C40.9519 61.1838 40.8732 61.0427 40.9834 61.2151C40.9519 61.1681 40.9204 61.1367 40.8889 61.0897C40.8417 61.0113 40.7945 60.9329 40.7473 60.8388C40.7158 60.7918 40.7001 60.7447 40.6843 60.6977C40.6843 60.682 40.6843 60.6663 40.6686 60.6507C40.6214 60.5566 40.7316 60.8075 40.6686 60.6507C40.5899 60.4468 40.527 60.243 40.4797 60.0391C40.4483 59.9137 40.4325 59.7883 40.401 59.6628C40.401 59.6001 40.3853 59.5374 40.3696 59.4904C40.3538 59.3806 40.3853 59.6472 40.3696 59.5217C40.3696 59.4904 40.3696 59.4433 40.3696 59.412C40.3381 59.1454 40.3223 58.8788 40.3066 58.6123C40.2751 58.0478 40.2909 57.4833 40.2909 56.9189C40.2909 56.6053 40.0233 56.323 39.6928 56.323C39.3623 56.323 39.1105 56.5739 39.0947 56.9189C39.0947 57.9851 39.0947 59.067 39.2836 60.1175C39.4725 61.074 39.9131 62.0305 40.7788 62.5479C41.2667 62.8458 41.849 62.9556 42.3999 62.9869C43.0452 63.0026 43.7219 62.9242 44.3042 62.642C45.343 62.1559 45.7365 61.0583 45.8466 60.0078C45.9568 58.9572 45.7994 57.8126 45.7994 56.6993C45.7994 56.3858 45.5319 56.1035 45.2014 56.1035C44.8708 56.1035 44.6033 56.3544 44.6033 56.6993L44.6348 56.7307Z" fill="#231F20"/>
<path d="M47.9561 47.0409C48.1765 47.1664 48.3024 47.5113 48.4126 47.7309C48.5542 48.0445 48.6486 48.3581 48.7746 48.6716C48.9792 49.1734 49.1995 49.6752 49.3884 50.1926C49.8133 51.3372 50.1753 52.4975 50.4271 53.6892C50.8363 55.6335 51.0882 58.1109 49.8605 59.6945C49.0893 60.6824 47.846 61.09 46.6184 61.1841C45.8629 61.2468 45.8629 62.4228 46.6184 62.3601C47.9876 62.2504 49.3412 61.8584 50.3642 60.8862C51.2141 60.0709 51.6705 58.9576 51.8436 57.813C52.2213 55.2415 51.5131 52.5446 50.6317 50.1455C50.3956 49.5184 50.1124 48.8598 49.8763 48.2483C49.5615 47.48 49.3254 46.4765 48.5542 46.0218C47.8932 45.6298 47.3109 46.649 47.9561 47.0409Z" fill="#231F20"/>
<path d="M58.3906 55.508C58.3749 55.6805 58.4064 55.3826 58.3906 55.555C58.3906 55.5864 58.3907 55.6178 58.3749 55.6648C58.3749 55.7432 58.3434 55.8373 58.3277 55.9157C58.2962 56.0882 58.249 56.2606 58.2018 56.4174C58.1546 56.5585 58.1074 56.7153 58.0601 56.8565C58.0287 56.9349 57.9972 57.0133 57.9657 57.0917C57.9185 57.2014 57.9657 57.1073 57.9657 57.0917C57.95 57.1387 57.9185 57.1857 57.9028 57.2328C57.7611 57.5464 57.588 57.8443 57.3991 58.1265C57.3204 58.252 57.226 58.3774 57.1316 58.5028C57.1001 58.5499 57.0686 58.5812 57.0371 58.6283C56.9899 58.691 56.927 58.7537 56.864 58.8164C56.6437 59.0673 56.4076 59.2868 56.1558 59.4907C56.1243 59.522 56.0928 59.5377 56.0613 59.5691C56.0771 59.5691 56.14 59.5064 56.0613 59.5691C55.9984 59.6161 55.9197 59.6631 55.8567 59.7102C55.7151 59.8043 55.5734 59.8983 55.4318 59.9767C55.3059 60.0551 55.1642 60.1179 55.0383 60.1963C54.9596 60.2276 54.8809 60.259 54.8022 60.306C54.818 60.306 54.9124 60.259 54.8022 60.306C54.755 60.3217 54.692 60.3531 54.6291 60.3687C54.3143 60.4785 53.9995 60.5726 53.669 60.6353C53.6376 60.6353 53.6061 60.6353 53.5746 60.651C53.5274 60.651 53.4172 60.6667 53.5274 60.651C53.4172 60.651 53.3228 60.6823 53.2126 60.6823C53.0237 60.6823 52.8191 60.698 52.6303 60.6823C52.4414 60.6667 52.2525 60.6667 52.0637 60.6353C51.9535 60.6353 52.2053 60.6667 52.0322 60.6353C51.985 60.6353 51.922 60.6196 51.8748 60.6039C51.7646 60.5883 51.6545 60.5569 51.5443 60.5412C51.2453 60.4628 50.8833 60.6353 50.8203 60.9489C50.7574 61.2625 50.9148 61.5918 51.2295 61.6702C52.7719 62.0308 54.393 61.8426 55.7938 61.1057C57.0843 60.4315 58.1703 59.3025 58.8156 58.0011C59.2091 57.2014 59.4609 56.3704 59.5553 55.4923C59.5868 55.1787 59.2563 54.8965 58.9572 54.8965C58.611 54.8965 58.4064 55.163 58.3592 55.4923L58.3906 55.508Z" fill="#231F20"/>
<path d="M52.2681 59.0502C54.3299 58.5328 55.4474 56.2122 55.3372 54.2209C55.3057 53.6721 55.1798 53.1546 54.9752 52.6529C54.8808 52.449 54.7706 52.2452 54.6447 52.0727C54.4716 51.8375 54.267 51.6494 54.0781 51.4142C54.1568 51.4926 53.9994 51.3201 54.0151 51.3044C54.0466 51.3044 54.0309 51.3985 54.0466 51.3985C54.0151 51.2887 54.0466 51.3671 54.0466 51.3985C53.9837 51.5082 54.0151 51.4455 54.0781 51.3985C54.0151 51.4612 54.0781 51.3985 54.0938 51.3985C54.1411 51.3828 54.1725 51.3515 54.2198 51.3358C54.2198 51.3358 54.3457 51.2887 54.267 51.3044C54.1883 51.3201 54.2984 51.3044 54.3142 51.2887C54.3771 51.2574 54.4401 51.2417 54.5188 51.226C54.6604 51.179 54.8021 51.1476 54.9437 51.1319C54.9595 51.1319 55.0539 51.1163 54.9437 51.1319C54.9752 51.1319 55.0067 51.1319 55.0382 51.1319C55.1011 51.1319 55.1641 51.1319 55.2428 51.1319C55.3844 51.1319 55.5261 51.1319 55.6677 51.1476C55.5733 51.1319 55.7621 51.1476 55.6677 51.1476C55.6992 51.1476 55.7307 51.1476 55.7621 51.1633C55.8251 51.1633 55.8881 51.1947 55.951 51.2103C56.0927 51.2417 56.2186 51.2887 56.3445 51.3358C56.3602 51.3358 56.4547 51.3828 56.3445 51.3358C56.376 51.3515 56.4232 51.3671 56.4547 51.3828C56.5176 51.4142 56.5806 51.4455 56.6593 51.4769C56.7852 51.5553 56.9111 51.6337 57.037 51.7121C57.0685 51.7278 57.0842 51.7434 57.1157 51.7748C57.0055 51.6964 57.1314 51.7905 57.1472 51.8062C57.2101 51.8532 57.2573 51.9002 57.3045 51.9473C57.4147 52.057 57.5249 52.1668 57.6193 52.2922C57.6351 52.3079 57.6823 52.3863 57.6193 52.2922C57.6351 52.3236 57.6508 52.3393 57.6823 52.3706C57.7295 52.4334 57.7767 52.5118 57.8239 52.5745C57.9026 52.6999 57.9656 52.8254 58.0285 52.9665C57.9813 52.8567 58.0285 52.9351 58.0285 52.9665C58.0443 53.0135 58.06 53.0605 58.0757 53.1076C58.0915 53.1703 58.123 53.233 58.1387 53.2957C58.1544 53.3741 58.1859 53.4525 58.2017 53.5466C58.2017 53.578 58.2017 53.6093 58.2174 53.6407C58.2017 53.5309 58.2174 53.6407 58.2174 53.6877C58.2489 53.9857 58.4692 54.2836 58.8155 54.2836C59.1145 54.2836 59.445 54.017 59.4135 53.6877C59.2876 52.402 58.5794 51.273 57.4777 50.5831C56.376 49.8932 54.991 49.7678 53.7948 50.3009C53.4328 50.4577 53.0551 50.7243 52.9607 51.1319C52.8347 51.5866 53.0393 51.9943 53.3384 52.3236C53.4328 52.4334 53.543 52.5274 53.6374 52.6372C53.6532 52.6529 53.6689 52.6842 53.6846 52.6999C53.7319 52.7626 53.6217 52.6058 53.6689 52.6842C53.7004 52.747 53.7476 52.794 53.7791 52.8567C53.842 52.9508 53.8892 53.0449 53.9365 53.1389C53.9365 53.1703 54.0309 53.3585 53.9679 53.2017C53.9837 53.2644 54.0152 53.3114 54.0309 53.3741C54.0624 53.4839 54.1096 53.5937 54.1253 53.7191C54.1253 53.7661 54.1568 53.8289 54.1568 53.8916C54.1568 53.9229 54.1568 53.9543 54.1568 53.97C54.1568 53.9857 54.1725 54.1111 54.1568 54.017C54.1568 53.9229 54.1568 54.017 54.1568 54.0484C54.1568 54.0797 54.1568 54.1268 54.1568 54.1581C54.1568 54.2209 54.1568 54.2679 54.1568 54.3306C54.1568 54.4561 54.1568 54.5972 54.1568 54.7226C54.1568 54.8324 54.1411 54.9578 54.1253 55.0676C54.1253 55.0989 54.1096 55.1773 54.1253 55.0362C54.1253 55.0676 54.1253 55.0989 54.1253 55.1303C54.1253 55.2087 54.0938 55.2714 54.0781 55.3498C54.0309 55.6007 53.9522 55.8359 53.8735 56.0711C53.8735 56.1024 53.7633 56.3063 53.842 56.1808C53.8105 56.2436 53.7948 56.3063 53.7633 56.3533C53.7004 56.4787 53.6374 56.5885 53.5587 56.7139C53.48 56.8394 53.4013 56.9335 53.3384 57.0432C53.2912 57.1216 53.4328 56.9335 53.3384 57.0432C53.3226 57.0746 53.2912 57.0903 53.2754 57.1216C53.2282 57.1687 53.1967 57.2157 53.1495 57.2627C53.0551 57.3568 52.9449 57.4509 52.8505 57.545C52.819 57.5607 52.756 57.6077 52.8662 57.5293C52.8347 57.545 52.8033 57.5763 52.7875 57.592C52.7246 57.6391 52.6774 57.6704 52.6144 57.7018C52.5042 57.7645 52.3941 57.8272 52.2681 57.8742C52.4098 57.8115 52.2209 57.8742 52.1737 57.9056C52.1108 57.9213 52.0478 57.9526 51.9691 57.9683C51.6543 58.0467 51.4812 58.3917 51.5599 58.6896C51.6386 58.9875 51.9691 59.1757 52.2839 59.0973L52.2681 59.0502Z" fill="#231F20"/>
<path d="M59.0205 33.9462C58.9575 33.4287 58.8788 32.9113 58.7844 32.4095C58.5011 30.9827 58.0761 29.5715 57.5095 28.223C56.817 26.5766 56.5967 26.0749 56.6754 24.3031C56.7383 22.7037 56.5495 21.0574 56.4236 19.458C56.3134 17.9841 56.1718 16.3064 55.5422 14.9422C55.196 14.2053 54.5821 13.6251 54.0155 13.0293C53.6536 13.1704 53.2916 13.2802 52.9453 13.437C50.3327 14.6286 48.2394 17.0747 47.4997 19.7873C45.1389 18.5956 42.4161 18.3291 39.8035 18.1409C36.7816 17.9214 33.7283 18.2036 30.8009 18.9719C30.2343 19.1287 28.7077 20.1009 28.2198 19.9598C27.3226 19.7089 26.1737 16.8865 25.5127 16.1025C24.4582 14.8482 22.2548 12.0258 20.4448 13.6094C19.2329 14.66 19.1228 17.2158 19.0441 18.674C18.9339 20.9162 18.7293 23.817 19.5162 25.9808C20.0199 27.3763 20.4763 27.8467 19.9727 29.5088C18.9496 32.8956 17.8637 36.502 18.8395 39.9202C20.0356 44.138 26.5987 46.7409 29.5103 47.8698C33.6181 49.4535 38.3555 48.7792 42.7623 48.6381C45.8471 48.544 47.9404 48.0737 50.8521 46.8506C53.1814 45.8628 58.6899 42.2408 59.2723 39.685C59.8074 37.3487 59.2723 36.3138 58.989 33.9305L59.0205 33.9462Z" fill="white"/>
<path d="M22.2392 16.6192C22.2392 16.6192 22.1133 16.6192 22.0503 16.6506C21.1532 16.9798 21.2791 19.0809 21.2319 19.8022C21.1532 21.1663 21.3578 22.405 21.6097 23.7221C21.6569 23.973 21.83 24.2396 22.0818 24.2396C22.2707 24.2396 22.4123 24.0828 22.5382 23.9417C23.0261 23.3929 23.5455 22.8911 24.0964 22.405C24.5056 22.0601 25.1194 21.7779 25.4657 21.3702C25.7962 20.9939 25.3083 20.2569 25.1194 19.912C24.6945 19.1436 24.2066 18.391 23.6085 17.7481C23.2937 17.4032 22.7429 16.6192 22.2077 16.6035L22.2392 16.6192Z" fill="#F9BDBE"/>
<path d="M53.4802 17.1844C53.0867 16.4004 52.2998 16.6199 51.8119 17.4353C51.3397 18.2349 51.0249 19.0973 50.663 19.944C50.238 20.9319 49.577 21.4336 50.8361 22.0765C51.4656 22.4058 52.1109 22.7194 52.7405 23.0486C52.8506 23.0957 52.9451 23.1584 53.071 23.1584C53.3228 23.1741 53.5431 22.9859 53.6376 22.7664C54.2986 21.2768 54.031 18.9719 53.5746 17.4666C53.5431 17.3569 53.5117 17.2628 53.4645 17.1844H53.4802Z" fill="#F9BDBE"/>
<path d="M31.3519 37.662C32.2733 37.662 33.0202 36.9179 33.0202 35.9999C33.0202 35.082 32.2733 34.3379 31.3519 34.3379C30.4305 34.3379 29.6836 35.082 29.6836 35.9999C29.6836 36.9179 30.4305 37.662 31.3519 37.662Z" fill="#231F20"/>
<path d="M46.1624 37.662C47.0838 37.662 47.8308 36.9179 47.8308 35.9999C47.8308 35.082 47.0838 34.3379 46.1624 34.3379C45.2411 34.3379 44.4941 35.082 44.4941 35.9999C44.4941 36.9179 45.2411 37.662 46.1624 37.662Z" fill="#231F20"/>
<path d="M38.8435 41.4573C40.6167 41.4573 42.0542 40.5657 42.0542 39.4659C42.0542 38.3662 40.6167 37.4746 38.8435 37.4746C37.0703 37.4746 35.6328 38.3662 35.6328 39.4659C35.6328 40.5657 37.0703 41.4573 38.8435 41.4573Z" fill="#231F20"/>
<path d="M25.3713 23.08C27.7951 20.7594 31.1632 19.5991 34.4211 19.0817C38.1984 18.4858 42.1645 18.7838 45.8002 19.9441C47.862 20.6026 49.7978 21.5748 51.5291 22.8605C52.1429 23.3152 52.7252 22.296 52.1272 21.8413C48.8692 19.4266 44.9031 18.1566 40.8897 17.7489C36.8763 17.3412 33.0203 17.7646 29.4319 19.2071C27.6377 19.9284 25.9379 20.9005 24.5214 22.249C23.9706 22.7664 24.8047 23.5975 25.3556 23.08H25.3713Z" fill="#231F20"/>
<path d="M21.6096 24.3202C20.4921 26.8446 19.3904 29.3847 18.5878 32.0189C18.0212 33.8378 17.5805 35.7821 17.6749 37.695C17.7536 39.2787 18.2572 40.7996 19.1858 42.0697C20.4607 43.8101 22.3178 45.1429 24.175 46.1935C26.6145 47.5576 29.3373 48.1691 32.0129 48.9061C32.7526 49.1099 33.0517 47.981 32.3277 47.7771C30.0928 47.1656 27.7949 46.6796 25.7017 45.6604C23.7815 44.7353 21.8614 43.4652 20.4764 41.8345C18.3359 39.2944 18.6507 36.0173 19.5006 33.0224C20.2875 30.2314 21.4365 27.5502 22.6169 24.916C22.9159 24.2261 21.9086 23.6302 21.5939 24.3202H21.6096Z" fill="#231F20"/>
<path d="M55.1014 24.916C56.1716 27.315 57.2104 29.761 57.9973 32.2698C58.5324 33.9946 58.9574 35.7978 58.8787 37.6009C58.7213 41.2387 55.7939 43.622 52.8035 45.2527C50.4899 46.5228 47.9088 47.0715 45.3906 47.7771C44.6666 47.981 44.9656 49.1099 45.7054 48.9061C48.0662 48.2475 50.4585 47.7301 52.6776 46.6482C54.6764 45.676 56.7067 44.3276 58.1232 42.6028C59.162 41.3484 59.7915 39.9059 59.9961 38.3065C60.2165 36.472 59.8702 34.6061 59.3823 32.8343C58.5796 29.9022 57.352 27.0955 56.1087 24.3202C55.8096 23.6302 54.7866 24.2261 55.0856 24.916H55.1014Z" fill="#231F20"/>
<path d="M47.8299 19.8191C48.6168 18.2511 49.6713 16.7616 50.8675 15.4601C51.4498 14.8329 52.0636 14.2214 52.7876 13.7981C53.0866 13.6256 53.3384 13.5158 53.5903 13.4688C53.543 13.4688 53.7162 13.4688 53.7634 13.4688C53.8106 13.4688 53.9837 13.5002 53.8421 13.4688C53.905 13.4688 53.968 13.5002 54.0309 13.5158C54.1726 13.5472 53.968 13.4531 54.0782 13.5315C54.1254 13.5629 54.1726 13.5942 54.2198 13.6099C54.33 13.6726 54.1569 13.5315 54.2513 13.6413C54.2828 13.6726 54.33 13.7197 54.3615 13.751C54.3929 13.7824 54.5189 13.9392 54.4244 13.8138C54.5975 14.0333 54.7234 14.2842 54.8494 14.535C54.9123 14.6761 54.8494 14.535 54.8966 14.6605C54.9281 14.7389 54.9595 14.8173 54.991 14.8957C55.054 15.0525 55.1012 15.2249 55.1484 15.3974C55.2586 15.7581 55.353 16.1344 55.416 16.5107C55.7622 18.1571 55.8881 19.8348 55.9668 21.5439C56.0298 23.0178 56.0455 24.4917 56.014 25.9813C56.014 26.7339 57.1787 26.7339 57.1944 25.9813C57.2574 22.7983 57.1944 19.5369 56.5964 16.4009C56.3445 15.1152 55.9825 13.4218 54.8336 12.6221C53.4014 11.6186 51.6387 13.0298 50.6471 14.0019C49.7972 14.8173 49.0732 15.7267 48.3807 16.6832C47.7984 17.4985 47.2633 18.3295 46.8069 19.2233C46.4764 19.8975 47.4836 20.4934 47.8299 19.8191Z" fill="#231F20"/>
<path d="M51.0256 20.8221C51.183 20.3517 51.3561 19.8656 51.545 19.4109C51.545 19.3796 51.5764 19.3482 51.5922 19.3012C51.6079 19.2541 51.6709 19.1287 51.5922 19.3012C51.6236 19.2228 51.6551 19.1444 51.7023 19.066C51.7653 18.9092 51.844 18.7524 51.9227 18.5956C52.0801 18.282 52.2532 17.9841 52.4263 17.6861C52.5365 17.5137 52.6467 17.3569 52.7568 17.2001C52.8041 17.1374 52.6781 17.3098 52.7254 17.2471C52.7411 17.2314 52.7568 17.2001 52.7726 17.1844C52.804 17.1373 52.8355 17.106 52.867 17.0746C52.93 16.9962 52.9929 16.9178 53.0716 16.8551C53.292 16.6356 53.3077 16.2436 53.0716 16.0241C52.8355 15.8046 52.4578 15.7889 52.2375 16.0241C51.2302 17.0746 50.6321 18.4545 50.1442 19.7872C50.0655 20.0224 49.9711 20.2576 49.8924 20.5085C49.798 20.8064 50.0026 21.1671 50.3016 21.2298C50.6321 21.3082 50.9154 21.1357 51.0256 20.8221Z" fill="#231F20"/>
<path d="M18.6508 23.5352C18.7924 24.8523 19.1072 26.1538 19.4377 27.4395C19.5006 27.6904 19.5636 27.9413 19.6266 28.1921C19.7052 28.49 20.0515 28.6939 20.3505 28.5998C20.6496 28.5057 20.8542 28.1921 20.7597 27.8785C20.4607 26.7339 20.1617 25.5893 19.9571 24.429C19.9256 24.2565 19.8941 24.0683 19.8626 23.8959C19.8626 23.8645 19.8626 23.8175 19.8469 23.7861C19.8312 23.6607 19.8626 23.9429 19.8469 23.7861C19.8469 23.7077 19.8312 23.6293 19.8154 23.5509C19.7997 23.3941 19.7682 23.253 19.6423 23.1276C19.5321 23.0178 19.3747 22.9551 19.2173 22.9551C18.9183 22.9551 18.5878 23.2216 18.6193 23.5509L18.6508 23.5352Z" fill="#231F20"/>
<path d="M28.3614 19.3339C27.4171 17.8287 26.3311 16.4018 25.072 15.1474C24.1592 14.238 23.0417 13.2345 21.7511 12.9052C21.279 12.7798 20.7124 12.7484 20.2717 12.9836C20.0041 13.1247 19.8153 13.3756 19.6421 13.6108C19.1385 14.3478 18.8709 15.2885 18.6978 16.1509C18.3201 17.9384 18.2729 19.7886 18.383 21.6075C18.3988 21.9211 18.6349 22.2033 18.9811 22.2033C19.2801 22.2033 19.5949 21.9368 19.5792 21.6075C19.532 20.7451 19.5162 19.8827 19.5477 19.0203C19.5634 18.644 19.5949 18.2834 19.6264 17.9228C19.6579 17.5621 19.6894 17.3896 19.7366 17.0447C19.831 16.5116 19.9412 15.9785 20.0986 15.461C20.1615 15.2572 20.2402 15.0533 20.3189 14.8495C20.3661 14.7084 20.2717 14.9593 20.3189 14.8338C20.3346 14.7868 20.3504 14.7554 20.3819 14.7084C20.4133 14.63 20.4606 14.5516 20.492 14.4732C20.555 14.3478 20.6494 14.238 20.7124 14.1126C20.6337 14.2537 20.6652 14.1596 20.7281 14.0969C20.7596 14.0655 20.8068 14.0185 20.8383 13.9871C20.8855 13.9244 20.6966 14.0812 20.7753 14.0342C20.7911 14.0342 20.8068 14.0185 20.8225 14.0028C20.9012 13.9558 20.8068 14.0342 20.7439 14.0342C20.7753 14.0342 20.8225 14.0028 20.854 14.0028C20.8855 14.0028 20.9327 14.0028 20.9642 13.9714C20.8225 14.0185 20.9012 13.9714 20.9799 13.9714C21.0271 13.9714 21.0744 13.9714 21.1216 13.9714C21.1688 13.9714 21.3577 14.0028 21.1845 13.9714C21.4049 14.0185 21.6095 14.0655 21.8298 14.1596C21.6882 14.1126 21.8613 14.1753 21.8928 14.191C21.9557 14.2223 22.0029 14.2537 22.0659 14.2694C22.2076 14.3478 22.3335 14.4105 22.4594 14.5046C22.5695 14.583 22.6955 14.6457 22.8056 14.7241C22.8686 14.7711 22.9315 14.8181 22.9945 14.8652C22.9945 14.8652 23.1047 14.9436 23.0574 14.9122C23.0102 14.8809 23.1204 14.9749 23.1361 14.9749C23.4194 15.1945 23.687 15.4297 23.9388 15.6805C25.2451 16.9349 26.3626 18.3931 27.3226 19.9141C27.4958 20.1806 27.842 20.2904 28.1253 20.1179C28.4086 19.9454 28.503 19.5848 28.3299 19.3183L28.3614 19.3339Z" fill="#231F20"/>
<path d="M25.9059 21.2928C25.5439 19.9129 24.8986 18.6115 24.033 17.4826C23.7654 17.1376 23.4979 16.8083 23.1988 16.5104C22.9785 16.2909 22.5693 16.2752 22.3647 16.5104C22.1601 16.7456 22.1286 17.1062 22.3647 17.3414C22.6008 17.5766 22.8211 17.8275 23.0257 18.0941C22.9785 18.0314 23.1201 18.2038 23.0257 18.0941C23.0415 18.1254 23.0729 18.1568 23.0887 18.1882C23.1359 18.2666 23.1988 18.3293 23.2461 18.4077C23.3405 18.5488 23.4349 18.6899 23.5294 18.831C23.7025 19.1133 23.8756 19.3955 24.033 19.6934C24.1117 19.8502 24.1904 19.9913 24.2533 20.1481C24.2533 20.1795 24.2848 20.2108 24.3005 20.2579C24.3005 20.2736 24.3005 20.2892 24.3163 20.3049C24.3163 20.3049 24.2691 20.1952 24.3005 20.2579C24.332 20.3363 24.3635 20.4147 24.395 20.5088C24.5366 20.8694 24.6468 21.23 24.757 21.6063C24.8357 21.9043 25.1819 22.1081 25.481 22.014C25.78 21.9199 25.9846 21.6063 25.8902 21.2928H25.9059Z" fill="#231F20"/>
</svg>
