<svg width="80" height="76" viewBox="0 0 80 76" fill="none" xmlns="http://www.w3.org/2000/svg">
<path d="M56.4742 48.4308C55.9076 48.4152 55.3568 48.5563 54.9633 48.964C54.9004 49.0267 54.8531 49.0894 54.8374 49.1678C54.8374 49.2619 54.8846 49.3716 54.9318 49.45C55.7817 50.9396 55.9076 52.8055 55.2623 54.3892C55.0263 54.985 54.6643 55.5495 54.1291 55.8944C53.594 56.2394 52.8701 56.3491 52.3192 56.0199C53.0274 52.8055 51.7526 49.4657 50.4778 46.5493C50.2417 46.0161 49.9269 44.9342 49.439 44.5893C47.7392 42.0178 44.859 40.2303 41.79 39.8853C38.6108 39.5247 35.3056 40.6693 33.0392 42.9115C29.0888 46.8315 26.004 60.567 35.1325 60.1123L35.7778 59.4224C36.0768 59.9084 36.549 60.2534 37.3202 60.3632C40.0587 60.7395 40.704 59.0461 40.8614 57.0077C41.0188 59.0304 41.6641 60.7238 44.4026 60.3632C45.9765 60.1437 47.4717 59.9555 48.9668 59.4381C50.4935 58.9049 51.8943 59.2029 53.4209 59.2969C55.1207 59.391 56.852 58.4502 58.1583 57.4467C59.4803 56.4432 59.9525 55.0477 60.0469 53.4484C60.1256 52.0372 60.0469 50.4535 59.0239 49.4814C58.7091 49.1835 58.3471 48.9796 57.9537 48.8072C57.4972 48.6033 56.9779 48.4465 56.4742 48.4308Z" fill="white"/>
<path d="M34.7863 54.734C34.7863 55.7218 34.6604 56.7096 34.7076 57.6974C34.7706 58.7637 35.0696 59.8456 35.9825 60.4884C36.4861 60.8491 37.1314 60.9588 37.7295 60.9902C38.296 61.0216 38.8784 60.9745 39.3978 60.755C39.9171 60.5355 40.3263 60.2062 40.6569 59.7515C40.9402 59.3595 41.1133 58.9048 41.2235 58.4344C41.5067 57.2898 41.491 56.0824 41.4753 54.9221C41.4753 54.6085 41.2077 54.3263 40.8772 54.3263C40.5467 54.3263 40.2791 54.5772 40.2791 54.9221C40.2791 55.4239 40.2791 55.9256 40.2791 56.4117C40.2791 56.6626 40.2634 56.8978 40.2319 57.1487C40.2319 57.2584 40.2162 57.3682 40.2004 57.4936C40.2004 57.5406 40.169 57.6504 40.2004 57.4622C40.2004 57.4936 40.2004 57.525 40.2004 57.5563C40.2004 57.619 40.1847 57.6818 40.169 57.7288C40.1375 57.9483 40.0745 58.1678 40.0116 58.3717C39.9801 58.4658 39.9486 58.5598 39.9171 58.6539C39.9801 58.5285 39.8699 58.795 39.9171 58.6539C39.8857 58.7166 39.8699 58.7637 39.8384 58.8264C39.7912 58.9048 39.744 58.9989 39.6968 59.0773C39.6653 59.1086 39.6496 59.14 39.6181 59.187C39.5551 59.2654 39.7125 59.0773 39.6496 59.1557C39.6338 59.187 39.6024 59.2027 39.5866 59.2341C39.5237 59.2968 39.4607 59.3752 39.382 59.4379C39.3663 59.4379 39.3505 59.4693 39.3348 59.4849C39.2876 59.532 39.4607 59.3909 39.382 59.4536C39.3348 59.4849 39.2876 59.5163 39.2246 59.5633C39.1459 59.6104 39.0358 59.6417 38.9571 59.7045C39.0358 59.6417 39.083 59.6574 39.02 59.6731C38.9886 59.6731 38.9728 59.6888 38.9413 59.7045C38.8784 59.7201 38.8154 59.7515 38.7525 59.7672C38.6423 59.7985 38.5321 59.8142 38.422 59.8299C38.422 59.8299 38.5793 59.8142 38.4849 59.8299C38.4534 59.8299 38.422 59.8299 38.3905 59.8299C38.3118 59.8299 38.2331 59.8299 38.1701 59.8299C38.0442 59.8299 37.9026 59.8299 37.7767 59.8299C37.698 59.8299 37.6193 59.8299 37.5406 59.8142C37.4934 59.8142 37.4619 59.8142 37.4147 59.8142C37.5406 59.8299 37.273 59.7985 37.4147 59.8142C37.2888 59.7985 37.1786 59.7672 37.0527 59.7358C36.9897 59.7201 36.9268 59.6888 36.8796 59.6731C36.7694 59.6417 37.0055 59.7358 36.911 59.6731C36.8796 59.6731 36.8638 59.6417 36.8323 59.6417C36.7379 59.5947 36.6592 59.532 36.5648 59.4849C36.4704 59.4379 36.675 59.579 36.5963 59.5163C36.5805 59.5006 36.549 59.4849 36.5333 59.4693C36.4861 59.4379 36.4546 59.3909 36.4231 59.3595C36.3917 59.3281 36.3602 59.2654 36.313 59.2341C36.4074 59.2968 36.3917 59.3438 36.3602 59.2968C36.3602 59.2811 36.3287 59.2497 36.313 59.2341C36.25 59.14 36.2028 59.0459 36.1556 58.9518C36.1556 58.9205 36.1398 58.9048 36.1241 58.8734C36.0769 58.7793 36.1713 59.0145 36.1398 58.9205C36.1398 58.8734 36.1084 58.8421 36.0926 58.795C36.0611 58.6853 36.0297 58.5755 35.9982 58.4658C35.9667 58.356 35.951 58.2619 35.9352 58.1522C35.9352 58.1208 35.9352 58.0894 35.9352 58.0581C35.9667 58.2306 35.9352 58.1522 35.9352 58.1051C35.9352 58.0424 35.9352 57.9797 35.9195 57.9013C35.8251 56.8507 35.9825 55.8002 35.9825 54.7496C35.9825 54.436 35.7149 54.1538 35.3844 54.1538C35.0539 54.1538 34.802 54.4047 34.7863 54.7496V54.734Z" fill="#231F20"/>
<path d="M50.1315 44.5421C48.054 41.2651 44.3239 39.164 40.4207 39.2424C37.0369 39.3051 33.6058 40.9358 31.6385 43.7268C30.3164 45.624 29.4666 47.9133 28.9944 50.1555C28.5222 52.3977 28.3334 54.8908 29.1675 57.0703C29.5925 58.1679 30.2692 59.14 31.2608 59.7986C32.394 60.5512 33.7947 60.7707 35.1482 60.7237C35.9037 60.6923 35.9037 59.5163 35.1482 59.5477C33.1652 59.6418 31.3709 58.9675 30.4738 57.133C29.5767 55.2985 29.6712 53.1347 29.9859 51.2374C30.3322 49.1206 31.0247 47.0352 32.1107 45.185C33.5271 42.7546 35.9666 41.1553 38.7367 40.6222C42.75 39.8382 46.9365 41.7354 49.1085 45.1693C49.5177 45.8122 50.5407 45.2164 50.1315 44.5735V44.5421Z" fill="#231F20"/>
<path d="M45.772 54.7341C45.772 55.6749 45.8979 56.6 45.8507 57.5408C45.8507 57.6506 45.8507 57.7603 45.8349 57.8858C45.8349 57.9485 45.8349 57.9955 45.8192 58.0582C45.8192 58.0896 45.8192 58.1053 45.8192 58.1366C45.8349 57.9328 45.8192 58.0896 45.8192 58.1366C45.7877 58.3562 45.7405 58.5757 45.6618 58.7795C45.6618 58.8266 45.6303 58.8579 45.6146 58.905C45.5831 59.0147 45.6775 58.7638 45.6303 58.8579C45.6303 58.8893 45.6146 58.905 45.5988 58.9363C45.5516 59.0304 45.5044 59.1245 45.4415 59.2186C45.4415 59.2342 45.41 59.2499 45.41 59.2656C45.3785 59.3283 45.347 59.297 45.4415 59.2186C45.41 59.2499 45.3785 59.2969 45.3313 59.344C45.2998 59.3753 45.2683 59.4067 45.2369 59.4381C45.2211 59.4537 45.1896 59.4694 45.1739 59.4851C45.2683 59.4224 45.0637 59.5792 45.1739 59.4851C45.0795 59.5478 45.0008 59.5949 44.9063 59.6419C44.8591 59.6733 44.7017 59.7046 44.8906 59.6419C44.8276 59.6576 44.749 59.6889 44.686 59.7203C44.5601 59.7517 44.4499 59.783 44.324 59.7987C44.2768 59.7987 44.261 59.8301 44.3712 59.7987C44.3397 59.7987 44.2768 59.7987 44.2453 59.7987C44.1509 59.7987 44.0722 59.8144 43.9778 59.8144C43.8518 59.8144 43.7102 59.8144 43.5843 59.8144C43.5213 59.8144 43.4426 59.8144 43.3797 59.8144C43.3167 59.8144 43.1121 59.7673 43.301 59.8144C43.1908 59.783 43.0806 59.783 42.9705 59.7517C42.9075 59.7517 42.8603 59.7203 42.7973 59.7046C42.7659 59.7046 42.7501 59.6889 42.7187 59.6733C42.6557 59.6419 42.6557 59.6105 42.7501 59.6889C42.6872 59.6262 42.5613 59.5949 42.4826 59.5478C42.4354 59.5165 42.3881 59.4851 42.3567 59.4537C42.3409 59.4537 42.2622 59.391 42.3567 59.4537C42.4511 59.5165 42.3567 59.4537 42.3409 59.4381C42.2622 59.3753 42.1993 59.3126 42.1363 59.2342C42.0891 59.1872 42.0104 59.0461 42.1206 59.2186C42.0891 59.1715 42.0576 59.1402 42.0261 59.0931C41.9789 59.0147 41.9317 58.9363 41.8845 58.8422C41.853 58.7952 41.8373 58.7482 41.8215 58.7011C41.8215 58.6854 41.8215 58.6698 41.8058 58.6541C41.8688 58.8109 41.7586 58.56 41.8058 58.6541C41.7271 58.4502 41.6642 58.2464 41.6169 58.0426C41.5855 57.9171 41.5697 57.7917 41.5382 57.6662C41.5382 57.6035 41.5225 57.5408 41.5068 57.4938C41.491 57.384 41.5225 57.6506 41.5068 57.5251C41.5068 57.4938 41.5068 57.4467 41.5068 57.4154C41.4753 57.1488 41.4596 56.8823 41.4438 56.6157C41.4123 56.0512 41.4281 55.4868 41.4281 54.9223C41.4281 54.6087 41.1605 54.3264 40.83 54.3264C40.4995 54.3264 40.2477 54.5773 40.2319 54.9223C40.2319 55.9885 40.2319 57.0704 40.4208 58.121C40.6097 59.0774 41.0503 60.0339 41.916 60.5513C42.4039 60.8492 42.9862 60.959 43.5371 60.9904C44.1824 61.006 44.8591 60.9277 45.4415 60.6454C46.4802 60.1593 46.8737 59.0618 46.9838 58.0112C47.094 56.9607 46.9366 55.816 46.9366 54.7028C46.9366 54.3892 46.6691 54.1069 46.3386 54.1069C46.008 54.1069 45.7405 54.3578 45.7405 54.7028L45.772 54.7341Z" fill="#231F20"/>
<path d="M49.0929 45.0439C49.3132 45.1693 49.4391 45.5143 49.5493 45.7338C49.6909 46.0474 49.7854 46.361 49.9113 46.6746C50.1159 47.1763 50.3362 47.6781 50.5251 48.1955C50.95 49.3401 51.312 50.5004 51.5638 51.6921C51.9731 53.6364 52.2249 56.1138 50.9972 57.6975C50.2261 58.6853 48.9827 59.093 47.7551 59.1871C46.9996 59.2498 46.9996 60.4258 47.7551 60.363C49.1243 60.2533 50.4779 59.8613 51.5009 58.8891C52.3508 58.0738 52.8072 56.9605 52.9803 55.8159C53.3581 53.2444 52.6498 50.5475 51.7684 48.1485C51.5324 47.5213 51.2491 46.8627 51.013 46.2512C50.6982 45.4829 50.4621 44.4794 49.6909 44.0247C49.0299 43.6327 48.4476 44.6519 49.0929 45.0439Z" fill="#231F20"/>
<path d="M59.5276 53.5109C59.5119 53.6834 59.5434 53.3855 59.5276 53.558C59.5276 53.5893 59.5276 53.6207 59.5119 53.6677C59.5119 53.7461 59.4804 53.8402 59.4647 53.9186C59.4332 54.0911 59.386 54.2636 59.3387 54.4204C59.2915 54.5615 59.2443 54.7183 59.1971 54.8594C59.1656 54.9378 59.1341 55.0162 59.1027 55.0946C59.1027 55.1103 59.0555 55.2043 59.1027 55.0946C59.0869 55.1416 59.0555 55.1887 59.0397 55.2357C58.8981 55.5493 58.7249 55.8472 58.5361 56.1295C58.4574 56.2549 58.3629 56.3803 58.2685 56.5058C58.237 56.5528 58.2056 56.5842 58.1741 56.6312C58.1269 56.6939 58.0639 56.7566 58.001 56.8194C57.7806 57.0702 57.5445 57.2898 57.2927 57.4936C57.2612 57.525 57.2298 57.5406 57.1983 57.572C57.277 57.5093 57.214 57.572 57.1983 57.572C57.1353 57.619 57.0566 57.6661 56.9937 57.7131C56.852 57.8072 56.7104 57.9013 56.5687 57.9797C56.4428 58.0581 56.3012 58.1208 56.1753 58.1992C56.0966 58.2305 56.0179 58.2619 55.9392 58.3089C56.0494 58.2619 55.9549 58.3089 55.9392 58.3089C55.892 58.3246 55.829 58.356 55.7661 58.3717C55.4513 58.4814 55.1365 58.5755 54.806 58.6382C54.7745 58.6382 54.743 58.6382 54.7116 58.6539C54.6643 58.6539 54.5542 58.6696 54.6643 58.6539C54.5542 58.6539 54.4597 58.6853 54.3496 58.6853C54.1607 58.6853 53.9561 58.7009 53.7672 58.6853C53.5784 58.6696 53.3895 58.6696 53.2006 58.6382C53.0905 58.6382 53.3423 58.6696 53.1692 58.6382C53.122 58.6382 53.059 58.6225 53.0118 58.6069C52.9016 58.5912 52.7914 58.5598 52.6813 58.5441C52.3822 58.4657 52.0202 58.6382 51.9573 58.9518C51.8943 59.2654 52.0517 59.5947 52.3665 59.6731C53.9089 60.0337 55.53 59.8456 56.9307 59.1086C58.2213 58.4344 59.3073 57.3054 59.9526 56.004C60.346 55.2044 60.5978 54.3733 60.6923 53.4952C60.7238 53.1817 60.3932 52.8994 60.0942 52.8994C59.748 52.8994 59.5434 53.166 59.4961 53.4952L59.5276 53.5109Z" fill="#231F20"/>
<path d="M53.4051 57.0546C55.4669 56.5372 56.5843 54.2166 56.4742 52.2253C56.4427 51.6765 56.3168 51.159 56.1122 50.6573C56.0177 50.4534 55.9076 50.2496 55.7817 50.0771C55.6085 49.8419 55.4039 49.6538 55.2151 49.4186C55.2938 49.497 55.1364 49.3245 55.1521 49.3088C55.1836 49.3088 55.1679 49.4029 55.1836 49.4029C55.1836 49.3715 55.1521 49.2931 55.1836 49.4029C55.1206 49.5126 55.1521 49.4499 55.2151 49.4029C55.1521 49.4656 55.2151 49.4029 55.2308 49.4029C55.278 49.3872 55.3095 49.3558 55.3567 49.3402C55.3567 49.3402 55.4826 49.2931 55.4039 49.3088C55.3252 49.3245 55.4354 49.3088 55.4511 49.2931C55.5141 49.2618 55.5771 49.2461 55.6557 49.2304C55.7974 49.1834 55.939 49.152 56.0807 49.1363C56.1909 49.1206 56.0964 49.1363 56.0807 49.1363C56.1122 49.1363 56.1437 49.1363 56.1751 49.1363C56.2381 49.1363 56.301 49.1363 56.3797 49.1363C56.5214 49.1363 56.663 49.1363 56.8047 49.152C56.8991 49.152 56.7102 49.1363 56.8047 49.152C56.8362 49.152 56.8676 49.152 56.8991 49.1677C56.9621 49.1677 57.025 49.199 57.088 49.2147C57.2296 49.2461 57.3555 49.2931 57.4814 49.3402C57.5916 49.3872 57.4972 49.3402 57.4814 49.3402C57.5129 49.3558 57.5601 49.3715 57.5916 49.3872C57.6546 49.4186 57.7175 49.4499 57.7962 49.4813C57.9221 49.5597 58.048 49.6381 58.174 49.7165C58.2054 49.7322 58.2212 49.7478 58.2526 49.7792C58.1425 49.7008 58.2684 49.7949 58.2841 49.8106C58.3471 49.8576 58.3943 49.9046 58.4415 49.9517C58.5517 50.0614 58.6619 50.1712 58.7563 50.2966C58.8192 50.3907 58.772 50.3123 58.7563 50.2966C58.772 50.328 58.7878 50.3437 58.8192 50.375C58.8665 50.4378 58.9137 50.5161 58.9609 50.5789C59.0396 50.7043 59.1025 50.8297 59.1655 50.9709C59.1655 50.9395 59.1183 50.8611 59.1655 50.9709C59.1812 51.0179 59.197 51.0649 59.2127 51.112C59.2284 51.1747 59.2599 51.2374 59.2757 51.3001C59.2914 51.3785 59.3229 51.4569 59.3386 51.551C59.3386 51.5824 59.3386 51.6137 59.3544 51.6451C59.3386 51.5353 59.3544 51.6451 59.3544 51.6921C59.3858 51.9901 59.6062 52.288 59.9524 52.288C60.2515 52.288 60.582 52.0214 60.5505 51.6921C60.4246 50.4064 59.7163 49.2774 58.6146 48.5875C57.5129 47.8976 56.1279 47.7722 54.9318 48.3053C54.5698 48.4621 54.1921 48.7287 54.0976 49.1363C53.9717 49.591 54.1763 49.9987 54.4753 50.328C54.5698 50.4377 54.68 50.5318 54.7744 50.6416C54.7901 50.6573 54.8059 50.6886 54.8216 50.7043C54.8688 50.767 54.7586 50.6102 54.8059 50.6886C54.8373 50.7513 54.8845 50.7984 54.916 50.8611C54.979 50.9552 55.0262 51.0493 55.0734 51.1433C55.0734 51.1747 55.1679 51.3629 55.1049 51.2061C55.1206 51.2688 55.1521 51.3158 55.1679 51.3785C55.1993 51.4883 55.2465 51.5981 55.2623 51.7235C55.2623 51.7705 55.2938 51.8333 55.2938 51.896C55.2938 51.9273 55.2938 51.9587 55.2938 51.9744C55.2938 51.99 55.3095 52.1155 55.2938 52.0214C55.2938 51.9273 55.2938 52.0214 55.2938 52.0528C55.2938 52.0841 55.2938 52.1312 55.2938 52.1625C55.2938 52.2253 55.2938 52.2723 55.2938 52.335C55.2938 52.4604 55.2938 52.6016 55.2938 52.727C55.2938 52.8368 55.278 52.9622 55.2623 53.072C55.2623 53.1033 55.2465 53.1817 55.2623 53.0406C55.2623 53.072 55.2623 53.1033 55.2623 53.1347C55.2623 53.2131 55.2308 53.2758 55.2151 53.3542C55.1679 53.6051 55.0892 53.8403 55.0105 54.0755C55.0105 54.1068 54.9003 54.3107 54.979 54.1852C54.9475 54.2479 54.9318 54.3107 54.9003 54.3577C54.8373 54.4831 54.7744 54.5929 54.6957 54.7183C54.617 54.8438 54.5383 54.9379 54.4753 55.0476C54.5698 54.9379 54.4281 55.126 54.4753 55.0476C54.4596 55.079 54.4281 55.0947 54.4124 55.126C54.3652 55.1731 54.3337 55.2201 54.2865 55.2671C54.192 55.3612 54.0819 55.4553 53.9874 55.5494C53.956 55.565 53.893 55.6121 54.0032 55.5337C53.9717 55.5494 53.9402 55.5807 53.9245 55.5964C53.8615 55.6434 53.8143 55.6748 53.7514 55.7062C53.6412 55.7689 53.531 55.8316 53.4051 55.8786C53.5468 55.8159 53.3579 55.8786 53.3107 55.91C53.2477 55.9257 53.1848 55.957 53.1061 55.9727C52.7913 56.0511 52.6182 56.3961 52.6969 56.694C52.7756 56.9919 53.1061 57.1801 53.4209 57.1017L53.4051 57.0546Z" fill="#231F20"/>
<path d="M60.1574 31.9505C60.0945 31.4331 60.0158 30.9157 59.9213 30.4139C59.638 28.9871 59.2131 27.5759 58.6465 26.2274C57.954 24.581 57.7337 24.0793 57.8124 22.3075C57.8753 20.7081 57.6864 19.0617 57.5605 17.4624C57.4504 15.9885 57.3087 14.3108 56.6792 12.9466C56.3329 12.2097 55.7191 11.6295 55.1525 11.0337C54.7905 11.1748 54.4285 11.2846 54.0823 11.4414C51.4696 12.633 49.3764 15.0791 48.6367 17.7917C46.2759 16.6 43.5531 16.3335 40.9404 16.1453C37.9186 15.9258 34.8653 16.208 31.9379 16.9763C31.3713 17.1331 29.8446 18.1053 29.3567 17.9642C28.4596 17.7133 27.3107 14.8909 26.6497 14.1069C25.5952 12.8525 23.3917 10.0302 21.5818 11.6138C20.3699 12.6644 20.2597 15.2202 20.181 16.6784C20.0709 18.9206 19.8663 21.8214 20.6532 23.9852C21.1568 25.3807 21.6133 25.8511 21.1096 27.5132C20.0866 30.9 19.0006 34.5064 19.9764 37.9245C21.1726 42.1424 27.7356 44.7453 30.6473 45.8742C34.7551 47.4579 39.4925 46.7836 43.8993 46.6425C46.9841 46.5484 49.0774 46.078 51.989 44.855C54.3184 43.8672 59.8269 40.2452 60.4092 37.6894C60.9444 35.3531 60.4092 34.3182 60.1259 31.9349L60.1574 31.9505Z" fill="white"/>
<path d="M23.3759 14.6246C23.3759 14.6246 23.25 14.6246 23.1871 14.6559C22.29 14.9852 22.4159 17.0863 22.3687 17.8076C22.29 19.1717 22.4946 20.4104 22.7464 21.7275C22.7936 21.9784 22.9667 22.2449 23.2185 22.2449C23.4074 22.2449 23.5491 22.0882 23.675 21.947C24.1629 21.3982 24.6822 20.8965 25.2331 20.4104C25.6423 20.0655 26.2561 19.7832 26.6024 19.3755C26.9329 18.9992 26.445 18.2623 26.2561 17.9173C25.8312 17.149 25.3433 16.3964 24.7452 15.7535C24.4304 15.4086 23.8796 14.6246 23.3445 14.6089L23.3759 14.6246Z" fill="#F9BDBE"/>
<path d="M54.6174 15.1888C54.2239 14.4048 53.437 14.6243 52.9491 15.4397C52.4769 16.2393 52.1621 17.1017 51.8002 17.9484C51.3752 18.9363 50.7142 19.438 51.9733 20.0809C52.6028 20.4102 53.2481 20.7238 53.8777 21.053C53.9878 21.1001 54.0823 21.1628 54.2082 21.1628C54.46 21.1785 54.6804 20.9903 54.7748 20.7708C55.4358 19.2812 55.1683 16.9763 54.7118 15.471C54.6804 15.3613 54.6489 15.2672 54.6017 15.1888H54.6174Z" fill="#F9BDBE"/>
<path d="M32.4889 35.6664C33.4102 35.6664 34.1572 34.9223 34.1572 34.0043C34.1572 33.0864 33.4102 32.3423 32.4889 32.3423C31.5675 32.3423 30.8206 33.0864 30.8206 34.0043C30.8206 34.9223 31.5675 35.6664 32.4889 35.6664Z" fill="#231F20"/>
<path d="M47.2989 35.6664C48.2203 35.6664 48.9672 34.9223 48.9672 34.0043C48.9672 33.0864 48.2203 32.3423 47.2989 32.3423C46.3775 32.3423 45.6306 33.0864 45.6306 34.0043C45.6306 34.9223 46.3775 35.6664 47.2989 35.6664Z" fill="#231F20"/>
<path d="M39.9805 39.4607C41.7537 39.4607 43.1912 38.5691 43.1912 37.4694C43.1912 36.3696 41.7537 35.478 39.9805 35.478C38.2073 35.478 36.7698 36.3696 36.7698 37.4694C36.7698 38.5691 38.2073 39.4607 39.9805 39.4607Z" fill="#231F20"/>
<path d="M26.508 21.0844C28.9318 18.7638 32.2999 17.6035 35.5578 17.0861C39.3351 16.4902 43.3013 16.7882 46.9369 17.9485C48.9987 18.607 50.9345 19.5792 52.6658 20.8649C53.2796 21.3196 53.8619 20.3004 53.2639 19.8457C50.006 17.431 46.0398 16.161 42.0264 15.7533C38.013 15.3456 34.157 15.769 30.5686 17.2115C28.7744 17.9328 27.0746 18.9049 25.6581 20.2534C25.1073 20.7708 25.9414 21.6019 26.4923 21.0844H26.508Z" fill="#231F20"/>
<path d="M22.7466 22.3231C21.6291 24.8475 20.5274 27.3877 19.7247 30.0219C19.1581 31.8407 18.7174 33.785 18.8119 35.698C18.8906 37.2816 19.3942 38.8026 20.3228 40.0726C21.5976 41.8131 23.4548 43.1459 25.312 44.1964C27.7515 45.5605 30.4743 46.1721 33.1499 46.909C33.8896 47.1129 34.1886 45.9839 33.4646 45.7801C31.2297 45.1686 28.9319 44.6825 26.8386 43.6633C24.9185 42.7382 22.9984 41.4681 21.6134 39.8374C19.4729 37.2973 19.7877 34.0202 20.6376 31.0254C21.4245 28.2344 22.5734 25.5531 23.7538 22.9189C24.0529 22.229 23.0456 21.6332 22.7308 22.3231H22.7466Z" fill="#231F20"/>
<path d="M56.2386 22.9189C57.3088 25.3179 58.3476 27.764 59.1345 30.2727C59.6696 31.9975 60.0946 33.8007 60.0159 35.6039C59.8585 39.2416 56.9311 41.6249 53.9407 43.2556C51.6271 44.5257 49.046 45.0745 46.5278 45.7801C45.8038 45.9839 46.1028 47.1129 46.8426 46.909C49.2034 46.2505 51.5957 45.733 53.8148 44.6511C55.8136 43.679 57.8439 42.3305 59.2604 40.6057C60.2992 39.3513 60.9287 37.9088 61.1333 36.3095C61.3537 34.4749 61.0074 32.609 60.5195 30.8372C59.7169 27.9051 58.4892 25.0984 57.2459 22.3231C56.9468 21.6332 55.9238 22.229 56.2229 22.9189H56.2386Z" fill="#231F20"/>
<path d="M48.9673 17.823C49.7543 16.255 50.8088 14.7655 52.0049 13.464C52.5872 12.8369 53.2011 12.2253 53.925 11.802C54.2241 11.6295 54.4759 11.5197 54.7277 11.4727C54.6805 11.4727 54.8536 11.4727 54.9008 11.4727C54.9481 11.4727 55.1212 11.5041 54.9795 11.4727C55.0425 11.4727 55.1054 11.5041 55.1684 11.5197C55.31 11.5511 55.1054 11.457 55.2156 11.5354C55.2628 11.5668 55.31 11.5981 55.3573 11.6138C55.4674 11.6765 55.2943 11.5354 55.3887 11.6452C55.4202 11.6765 55.4674 11.7236 55.4989 11.7549C55.5304 11.7863 55.6563 11.9431 55.5619 11.8177C55.735 12.0372 55.8609 12.2881 55.9868 12.5389C56.0498 12.6801 55.9868 12.5389 56.034 12.6644C56.0655 12.7428 56.097 12.8212 56.1285 12.8996C56.1914 13.0564 56.2386 13.2288 56.2858 13.4013C56.396 13.762 56.4905 14.1383 56.5534 14.5146C56.8997 16.161 57.0256 17.8387 57.1043 19.5478C57.1672 21.0217 57.183 22.4956 57.1515 23.9852C57.1515 24.7378 58.3161 24.7378 58.3319 23.9852C58.3948 20.8022 58.3319 17.5408 57.7338 14.4048C57.482 13.1191 57.12 11.4257 55.9711 10.626C54.5388 9.62249 52.7761 11.0337 51.7846 12.0058C50.9347 12.8212 50.2107 13.7306 49.5182 14.6871C48.9359 15.5024 48.4007 16.3334 47.9443 17.2272C47.6138 17.9014 48.6211 18.4973 48.9673 17.823Z" fill="#231F20"/>
<path d="M52.1623 18.8265C52.3197 18.3561 52.4928 17.87 52.6817 17.4153C52.6817 17.384 52.7131 17.3526 52.7289 17.3056C52.8076 17.1331 52.7446 17.2585 52.7289 17.3056C52.7604 17.2272 52.7918 17.1488 52.8391 17.0704C52.902 16.9136 52.9807 16.7568 53.0594 16.6C53.2168 16.2864 53.3899 15.9885 53.563 15.6905C53.6732 15.5181 53.7834 15.3613 53.8936 15.2045C53.9408 15.1417 53.8149 15.3142 53.8621 15.2515C53.8778 15.2358 53.8936 15.2045 53.9093 15.1888C53.9408 15.1417 53.9722 15.1104 54.0037 15.079C54.0667 15.0006 54.1296 14.9222 54.2083 14.8595C54.4287 14.64 54.4444 14.248 54.2083 14.0285C53.9722 13.809 53.5945 13.7933 53.3742 14.0285C52.3669 15.079 51.7688 16.4588 51.2809 17.7916C51.2022 18.0268 51.1078 18.262 51.0291 18.5129C50.9347 18.8108 51.1393 19.1715 51.4383 19.2342C51.7688 19.3126 52.0521 19.1401 52.1623 18.8265Z" fill="#231F20"/>
<path d="M19.7877 21.5391C19.9294 22.8562 20.2441 24.1577 20.5747 25.4434C20.6376 25.6943 20.7006 25.9452 20.7635 26.196C20.8422 26.494 21.1885 26.6978 21.4875 26.6037C21.7865 26.5096 21.9911 26.196 21.8967 25.8824C21.5977 24.7378 21.2986 23.5932 21.094 22.4329C21.0626 22.2604 21.0311 22.0722 20.9996 21.8998C20.9996 21.8684 20.9996 21.8214 20.9839 21.79C20.9996 21.9468 20.9681 21.6646 20.9839 21.79C20.9839 21.7116 20.9681 21.6332 20.9524 21.5548C20.9366 21.398 20.9052 21.2569 20.7793 21.1315C20.6691 21.0217 20.5117 20.959 20.3543 20.959C20.0553 20.959 19.7248 21.2255 19.7562 21.5548L19.7877 21.5391Z" fill="#231F20"/>
<path d="M29.4984 17.3369C28.554 15.8316 27.4681 14.4047 26.209 13.1504C25.2961 12.2409 24.1787 11.2374 22.8881 10.9081C22.4159 10.7827 21.8493 10.7513 21.4087 10.9865C21.1411 11.1277 20.9522 11.3785 20.7791 11.6137C20.2755 12.3507 20.0079 13.2915 19.8348 14.1539C19.457 15.9414 19.4098 17.7916 19.52 19.6104C19.5357 19.924 19.7718 20.2063 20.1181 20.2063C20.4171 20.2063 20.7319 19.9397 20.7161 19.6104C20.6689 18.748 20.6532 17.8857 20.6847 17.0233C20.7004 16.647 20.7319 16.2863 20.7634 15.9257C20.7948 15.565 20.8263 15.3926 20.8735 15.0476C20.968 14.5145 21.0781 13.9814 21.2355 13.464C21.2985 13.2601 21.3772 13.0563 21.4559 12.8524C21.5031 12.7113 21.4087 12.9622 21.4559 12.8368C21.4716 12.7897 21.4873 12.7584 21.5188 12.7113C21.5503 12.6329 21.5975 12.5545 21.629 12.4761C21.6919 12.3507 21.7864 12.2409 21.8493 12.1155C21.7706 12.2566 21.8021 12.1625 21.8651 12.0998C21.8966 12.0684 21.9438 12.0214 21.9752 11.9901C22.0225 11.9273 21.8336 12.0841 21.9123 12.0371C21.928 12.0371 21.9438 12.0214 21.9595 12.0057C22.0382 11.9587 21.9438 12.0371 21.8808 12.0371C21.9123 12.0371 21.9595 12.0057 21.991 12.0057C22.0225 12.0057 22.0697 12.0057 22.1012 11.9744C21.9595 12.0214 22.0382 11.9744 22.1169 11.9744C22.1641 11.9744 22.2113 11.9744 22.2585 11.9744C22.3058 11.9744 22.4946 12.0057 22.3215 11.9744C22.5418 12.0214 22.7464 12.0684 22.9668 12.1625C22.8251 12.1155 22.9983 12.1782 23.0297 12.1939C23.0927 12.2252 23.1399 12.2566 23.2029 12.2723C23.3445 12.3507 23.4704 12.4134 23.5963 12.5075C23.7065 12.5859 23.8324 12.6486 23.9426 12.727C24.0055 12.774 24.0685 12.8211 24.1315 12.8681C24.1315 12.8681 24.2416 12.9465 24.1944 12.9152C24.1472 12.8838 24.2574 12.9779 24.2731 12.9779C24.5564 13.1974 24.824 13.4326 25.0758 13.6835C26.3821 14.9379 27.4995 16.3961 28.4596 17.917C28.6327 18.1836 28.979 18.2933 29.2623 18.1209C29.5456 17.9484 29.64 17.5877 29.4669 17.3212L29.4984 17.3369Z" fill="#231F20"/>
<path d="M27.0431 19.2971C26.6811 17.9173 26.0358 16.6159 25.1702 15.487C24.9026 15.142 24.6351 14.8127 24.336 14.5148C24.1157 14.2953 23.7065 14.2796 23.5019 14.5148C23.2973 14.75 23.2658 15.1106 23.5019 15.3458C23.738 15.581 23.9583 15.8319 24.1629 16.0985C24.2574 16.2082 24.1157 16.0357 24.1629 16.0985C24.1787 16.1298 24.2101 16.1612 24.2259 16.1925C24.2731 16.2709 24.336 16.3337 24.3833 16.4121C24.4777 16.5532 24.5721 16.6943 24.6666 16.8354C24.8397 17.1177 25.0128 17.3999 25.1702 17.6978C25.2489 17.8546 25.3276 17.9957 25.3905 18.1525C25.3905 18.1839 25.422 18.2152 25.4378 18.2623C25.4378 18.278 25.4378 18.2936 25.4535 18.3093C25.4535 18.3093 25.4063 18.1996 25.4378 18.2623C25.4692 18.3407 25.5007 18.4191 25.5322 18.5132C25.6738 18.8738 25.784 19.2344 25.8942 19.6107C25.9729 19.9087 26.3191 20.1125 26.6182 20.0184C26.9172 19.9243 27.1218 19.6107 27.0274 19.2971H27.0431Z" fill="#231F20"/>
</svg>
