<svg width="80" height="76" viewBox="0 0 80 76" fill="none" xmlns="http://www.w3.org/2000/svg">
<path d="M56.0955 48.8374C55.5447 48.8218 55.0253 48.9472 54.6475 49.3392C54.6003 49.4019 54.5374 49.4646 54.5374 49.5274C54.5374 49.6214 54.5689 49.7155 54.6318 49.8096C55.4502 51.2365 55.5761 53.0553 54.9466 54.5763C54.7105 55.1407 54.3642 55.6895 53.8606 56.0188C53.357 56.3481 52.6487 56.4578 52.1136 56.1442C52.7904 53.0396 51.5627 49.8253 50.3509 47.0186C50.1305 46.5012 49.8315 45.4663 49.3436 45.137C47.7068 42.6596 44.9367 40.9348 41.9621 40.6056C38.9088 40.2449 35.7138 41.3582 33.5419 43.522C29.7489 47.3008 26.7742 60.5346 35.5565 60.0955L36.186 59.437C36.485 59.8917 36.9257 60.2367 37.6654 60.3464C40.2938 60.7071 40.9234 59.0764 41.0808 57.1164C41.2224 59.0764 41.8519 60.7071 44.4961 60.3464C46.007 60.1426 47.4549 59.9544 48.9029 59.4527C50.3823 58.9352 51.7201 59.2332 53.1996 59.3116C54.8364 59.4056 56.5047 58.4962 57.7638 57.5397C59.0386 56.5676 59.4951 55.2348 59.5895 53.6825C59.6682 52.3184 59.5895 50.7974 58.598 49.8566C58.2989 49.5744 57.9369 49.3706 57.5749 49.1981C57.1343 48.9942 56.6306 48.8531 56.1427 48.8374H56.0955Z" fill="#888888"/>
<path d="M35.1631 54.9054C35.1631 55.8618 35.0372 56.8183 35.1001 57.7591C35.1631 58.7939 35.4464 59.8445 36.3435 60.4717C36.8314 60.8166 37.4452 60.9264 38.0433 60.9578C38.5784 60.9891 39.145 60.9421 39.6644 60.7382C40.1838 60.5344 40.5772 60.2051 40.892 59.7661C41.1596 59.3898 41.3327 58.9351 41.4429 58.496C41.7262 57.3984 41.6947 56.2225 41.6947 55.0935C41.6947 54.7799 41.4271 54.4977 41.0966 54.4977C40.7661 54.4977 40.4985 54.7486 40.4985 55.0935C40.4985 55.5796 40.4985 56.05 40.4985 56.536C40.4985 56.7712 40.4828 57.0064 40.4513 57.2416C40.4513 57.3514 40.4356 57.4612 40.4198 57.5709C40.4198 57.618 40.3884 57.7277 40.4198 57.5396C40.4198 57.5709 40.4198 57.6023 40.4198 57.6336C40.4198 57.6964 40.4041 57.7434 40.3884 57.8061C40.3569 58.01 40.3097 58.2295 40.2467 58.4333C40.2152 58.5274 40.1838 58.6215 40.1523 58.7155C40.2152 58.5901 40.1051 58.8567 40.1523 58.7155C40.1208 58.7626 40.1051 58.8253 40.0736 58.8723C40.0264 58.9507 39.9792 59.0291 39.9319 59.1075C39.9162 59.1389 39.8847 59.1703 39.8532 59.2016C39.7903 59.28 39.9477 59.0919 39.8847 59.1546C39.869 59.1859 39.8375 59.2016 39.8218 59.233C39.7588 59.2957 39.6959 59.3584 39.6329 59.4211C39.6329 59.4211 39.6014 59.4525 39.5857 59.4682C39.5385 59.5152 39.7116 59.3741 39.6329 59.4368C39.5857 59.4682 39.5385 59.4995 39.4913 59.5309C39.4126 59.5779 39.3181 59.6093 39.2394 59.6563C39.3339 59.5779 39.3653 59.6093 39.3024 59.625C39.2709 59.625 39.2552 59.6407 39.2237 59.6563C39.1607 59.672 39.0978 59.7034 39.0348 59.7191C38.9247 59.7504 38.8145 59.7661 38.7201 59.7818C38.7201 59.7818 38.8774 59.7661 38.783 59.7818C38.7515 59.7818 38.7201 59.7818 38.6886 59.7818C38.6099 59.7818 38.5469 59.7818 38.4682 59.7818C38.3423 59.7818 38.2164 59.7818 38.0905 59.7818C38.0118 59.7818 37.9331 59.7818 37.8544 59.7661C37.8072 59.7661 37.7757 59.7661 37.7285 59.7661C37.8544 59.7818 37.5869 59.7504 37.7285 59.7661C37.6026 59.7504 37.4924 59.7191 37.3823 59.6877C37.3193 59.672 37.2721 59.6563 37.2091 59.625C37.099 59.5936 37.3508 59.6877 37.2406 59.625C37.2091 59.625 37.1934 59.5936 37.1619 59.5936C37.0675 59.5466 36.9888 59.4995 36.9101 59.4368C36.8157 59.3741 37.0203 59.5309 36.9416 59.4682C36.9258 59.4525 36.8944 59.4368 36.8786 59.4211C36.8471 59.3898 36.7999 59.3584 36.7685 59.3114C36.737 59.2643 36.7055 59.233 36.674 59.2016C36.7685 59.28 36.7527 59.2957 36.7212 59.2643C36.7212 59.2487 36.6898 59.2173 36.674 59.2016C36.6111 59.1232 36.5638 59.0291 36.5166 58.9351C36.5166 58.9194 36.5009 58.888 36.4852 58.8567C36.4379 58.7626 36.5324 58.9978 36.5009 58.9037C36.5009 58.8567 36.4694 58.8253 36.4537 58.7783C36.4222 58.6685 36.3907 58.5744 36.3592 58.4647C36.3278 58.3706 36.312 58.2608 36.2963 58.1667C36.2963 58.1354 36.2963 58.104 36.2963 58.0884C36.3278 58.2765 36.2963 58.1824 36.2963 58.1511C36.2963 58.0884 36.2963 58.0256 36.2806 57.9629C36.1861 56.9437 36.3278 55.9402 36.3435 54.921C36.3435 54.6074 36.0759 54.3252 35.7454 54.3252C35.4149 54.3252 35.1631 54.5761 35.1474 54.921L35.1631 54.9054Z" fill="#231F20"/>
<path d="M49.9889 45.0742C47.9744 41.9069 44.3545 39.8685 40.5614 39.9626C37.3035 40.041 33.9984 41.609 32.1255 44.3059C30.8506 46.1248 30.0322 48.3356 29.5758 50.4994C29.1194 52.6632 28.9462 55.0936 29.7647 57.1947C30.1739 58.2609 30.8506 59.2017 31.8264 59.8289C32.9124 60.5345 34.2502 60.7383 35.5408 60.6913C36.2962 60.6599 36.2962 59.484 35.5408 59.5153C33.6521 59.5937 31.9209 58.9665 31.0552 57.1947C30.1896 55.4229 30.284 53.3688 30.5831 51.55C30.9136 49.5116 31.5903 47.4889 32.6291 45.7014C33.9984 43.3494 36.3592 41.8128 39.0505 41.2954C42.8908 40.5584 46.9041 42.393 48.9817 45.67C49.3909 46.3129 50.4139 45.7171 50.0047 45.0742H49.9889Z" fill="#231F20"/>
<path d="M45.7552 54.9054C45.7552 55.8148 45.8654 56.7085 45.8339 57.618C45.8339 57.7277 45.8339 57.8375 45.8182 57.9472C45.8182 57.9943 45.8182 58.057 45.8025 58.104C45.8025 58.1354 45.8025 58.1511 45.8025 58.1824C45.8182 57.9786 45.8025 58.1197 45.8025 58.1824C45.771 58.3863 45.7238 58.6058 45.6451 58.7939C45.6451 58.841 45.6136 58.8723 45.5979 58.9194C45.5664 59.0135 45.6608 58.7783 45.6136 58.8723C45.6136 58.888 45.5979 58.9194 45.5821 58.9507C45.5349 59.0448 45.4877 59.1389 45.4247 59.2173C45.4247 59.233 45.3933 59.2487 45.3933 59.2643C45.3618 59.3114 45.3303 59.2957 45.4247 59.2173C45.3932 59.2487 45.3618 59.2957 45.3303 59.3271C45.2988 59.3584 45.2673 59.3898 45.2359 59.4211C45.2201 59.4368 45.2044 59.4525 45.1729 59.4682C45.0627 59.5623 45.2673 59.4055 45.1886 59.4682C45.11 59.5309 45.0155 59.5779 44.9368 59.625C44.8896 59.6563 44.7322 59.6877 44.9368 59.625C44.8739 59.6406 44.8109 59.672 44.7322 59.6877C44.6221 59.7191 44.4961 59.7504 44.386 59.7661C44.3073 59.7661 44.4017 59.7347 44.4332 59.7661C44.4332 59.7661 44.323 59.7661 44.3073 59.7661C44.2286 59.7661 44.1342 59.7818 44.0555 59.7818C43.9295 59.7818 43.8036 59.7818 43.6777 59.7818C43.6148 59.7818 43.5361 59.7818 43.4731 59.7818C43.4102 59.7818 43.2056 59.7347 43.4102 59.7818C43.3 59.7504 43.1898 59.7504 43.0954 59.7191C43.0482 59.7191 42.9852 59.6877 42.938 59.672C42.9065 59.672 42.8908 59.6563 42.8593 59.6406C42.7964 59.625 42.7806 59.5623 42.9065 59.6563C42.8278 59.6093 42.7334 59.5779 42.6547 59.5309C42.6075 59.4995 42.576 59.4682 42.5288 59.4525C42.5131 59.4525 42.4344 59.3898 42.5288 59.4525C42.6232 59.5152 42.5288 59.4525 42.5131 59.4368C42.4501 59.3741 42.3872 59.3114 42.3242 59.2487C42.277 59.2016 42.1983 59.0605 42.3085 59.2487C42.277 59.2016 42.2455 59.1703 42.2298 59.1232C42.1825 59.0448 42.1353 58.9664 42.0881 58.888C42.0566 58.841 42.0409 58.7939 42.0252 58.7469C42.0252 58.7469 42.0252 58.7155 42.0094 58.6999C41.9622 58.6058 42.0724 58.8567 42.0094 58.7155C41.9307 58.5274 41.8678 58.3235 41.8206 58.1197C41.7891 57.9943 41.7733 57.8845 41.7419 57.7591C41.7419 57.6964 41.7261 57.6493 41.7104 57.5866C41.6946 57.4768 41.7261 57.7434 41.7104 57.6336C41.7104 57.6023 41.7104 57.5709 41.7104 57.5239C41.6789 57.273 41.6632 57.0064 41.6474 56.7556C41.616 56.2068 41.6317 55.6737 41.6317 55.1249C41.6317 54.8113 41.3641 54.529 41.0336 54.529C40.7031 54.529 40.4513 54.7799 40.4355 55.1249C40.4355 56.1597 40.4355 57.1946 40.6244 58.2138C40.7975 59.1389 41.2382 60.064 42.0881 60.5658C42.5603 60.848 43.1269 60.9734 43.662 60.9891C44.2915 61.0048 44.9368 60.9264 45.5034 60.6598C46.5107 60.1894 46.8884 59.1232 46.9986 58.104C47.1088 57.0848 46.9671 55.9873 46.9514 54.921C46.9514 54.6074 46.6838 54.3252 46.3533 54.3252C46.0228 54.3252 45.7552 54.5761 45.7552 54.921V54.9054Z" fill="#231F20"/>
<path d="M48.9658 45.5917C49.1704 45.7172 49.2963 46.0308 49.3908 46.2503C49.5167 46.5482 49.6268 46.8461 49.737 47.144C49.9259 47.6144 50.1462 48.1005 50.3351 48.6179C50.7443 49.7155 51.0905 50.8288 51.3424 51.9734C51.5784 53.0396 51.7044 54.1372 51.6257 55.2348C51.5627 56.1129 51.3109 57.085 50.7915 57.7279C50.0518 58.6687 48.8871 59.0607 47.6752 59.1704C46.9198 59.2332 46.9198 60.4091 47.6752 60.3464C48.9973 60.2367 50.3193 59.8603 51.2951 58.9196C52.1136 58.1356 52.57 57.0537 52.7274 55.9561C53.0894 53.463 52.4126 50.8758 51.5627 48.5552C51.3424 47.9437 51.0591 47.2851 50.8387 46.7364C50.5397 45.9837 50.3036 45.0116 49.5639 44.5725C48.9029 44.1805 48.3205 45.1997 48.9658 45.5917Z" fill="#231F20"/>
<path d="M59.0071 53.7296C58.9914 53.9021 59.0228 53.6042 59.0071 53.7767C59.0071 53.808 59.0071 53.8394 59.0071 53.8707C59.0071 53.9491 58.9756 54.0432 58.9599 54.1216C58.9284 54.2784 58.8812 54.4509 58.834 54.6077C58.7868 54.7488 58.7396 54.8899 58.6923 55.031C58.6609 55.1094 58.6294 55.1878 58.5979 55.2662C58.5979 55.2819 58.5507 55.3603 58.5979 55.2662C58.5822 55.3133 58.5507 55.3603 58.5349 55.4074C58.3933 55.7053 58.2359 55.9875 58.047 56.2697C57.9684 56.3952 57.8739 56.5049 57.7952 56.6304C57.8582 56.5363 57.811 56.6147 57.7952 56.6304C57.7637 56.6617 57.7323 56.7088 57.7008 56.7401C57.6536 56.8029 57.5906 56.8656 57.5434 56.9283C57.3388 57.1635 57.1027 57.383 56.8509 57.5869C56.8194 57.6182 56.7879 57.6339 56.7565 57.6653C56.8509 57.5869 56.7722 57.6496 56.7565 57.6653C56.6935 57.7123 56.6306 57.7593 56.5519 57.8064C56.426 57.9004 56.2843 57.9788 56.1427 58.0729C56.0168 58.1513 55.8908 58.214 55.7492 58.2768C55.6705 58.3081 55.6075 58.3395 55.5289 58.3708C55.639 58.3238 55.5603 58.3708 55.5289 58.3708C55.4816 58.3865 55.4187 58.4179 55.3715 58.4336C55.0724 58.5433 54.7576 58.6217 54.4429 58.6844C54.4114 58.6844 54.3799 58.6844 54.3484 58.7001C54.3012 58.7001 54.2068 58.7158 54.3012 58.7001C54.2068 58.7001 54.0966 58.7158 54.0022 58.7315C53.8133 58.7315 53.6245 58.7472 53.4513 58.7315C53.2782 58.7158 53.0893 58.7158 52.9005 58.6844C52.7903 58.6844 53.0421 58.7158 52.869 58.6844C52.8218 58.6844 52.7588 58.6688 52.7116 58.6531C52.6014 58.6374 52.507 58.606 52.3968 58.5904C52.0978 58.512 51.7358 58.6844 51.6729 58.998C51.6099 59.3116 51.7673 59.6409 52.0821 59.7193C53.5772 60.0799 55.1354 59.8918 56.5047 59.1705C57.7637 58.512 58.8025 57.4301 59.4321 56.16C59.8255 55.3917 60.0459 54.5763 60.156 53.7296C60.1875 53.416 59.857 53.1338 59.558 53.1338C59.2117 53.1338 59.0071 53.4003 58.9599 53.7296H59.0071Z" fill="#231F20"/>
<path d="M53.1368 57.1636C55.1198 56.6618 56.2216 54.4196 56.0956 52.491C56.0642 51.9579 55.954 51.4561 55.7337 50.97C55.5133 50.484 55.1985 50.1547 54.868 49.7784C54.9467 49.8725 54.7893 49.7 54.8051 49.6843C54.8208 49.6686 54.8365 49.7941 54.8365 49.7941C54.8365 49.7627 54.8208 49.6843 54.8365 49.7941C54.8365 49.7941 54.8051 49.8724 54.7893 49.8724C54.7893 49.8724 54.8523 49.8097 54.868 49.7941C54.9152 49.7784 54.9467 49.747 54.9939 49.7313C54.9939 49.7313 55.1041 49.6843 55.0411 49.7C54.9782 49.7157 55.0726 49.7 55.0884 49.6843C55.1513 49.6529 55.2143 49.6373 55.2772 49.6216C55.4189 49.5745 55.5448 49.5432 55.6864 49.5275C55.7179 49.5275 55.7494 49.5275 55.7809 49.5275C55.8438 49.5275 55.9068 49.5275 55.9697 49.5275C56.1114 49.5275 56.2373 49.5275 56.3789 49.5432C56.4734 49.5432 56.2845 49.5275 56.3789 49.5432C56.4104 49.5432 56.4419 49.5432 56.4734 49.5589C56.5363 49.5589 56.5993 49.5902 56.6622 49.6059C56.7881 49.6373 56.9141 49.6843 57.04 49.7313C57.1501 49.7784 57.0714 49.7313 57.04 49.7313C57.0714 49.747 57.1187 49.7627 57.1501 49.7784C57.2131 49.8097 57.276 49.8411 57.339 49.8724C57.4649 49.9352 57.5908 50.0136 57.701 50.092C57.7325 50.1076 57.7482 50.1233 57.7797 50.1547C57.6695 50.0763 57.7797 50.1547 57.8112 50.186C57.8584 50.2331 57.9213 50.2801 57.9686 50.3272C58.0787 50.4369 58.1732 50.5467 58.2676 50.6564C58.3305 50.7505 58.2833 50.6721 58.2676 50.6564C58.2833 50.6878 58.2991 50.7035 58.3305 50.7348C58.3778 50.7976 58.425 50.8603 58.4565 50.9387C58.5352 51.0641 58.5981 51.1896 58.6453 51.315C58.6453 51.2836 58.5981 51.2052 58.6453 51.315C58.6611 51.362 58.6768 51.4091 58.6925 51.4561C58.7083 51.5188 58.724 51.5815 58.7555 51.6443C58.7712 51.7227 58.787 51.8011 58.8027 51.8795C58.8027 51.9108 58.8027 51.9422 58.8184 51.9735C58.8027 51.8638 58.8184 51.9579 58.8184 52.0049C58.8499 52.3028 59.0703 52.6007 59.4165 52.6007C59.7156 52.6007 60.0461 52.3342 60.0146 52.0049C59.8887 50.7505 59.1962 49.6529 58.1417 48.9944C57.0872 48.3358 55.7337 48.2104 54.569 48.7121C54.207 48.8689 53.8607 49.1355 53.7506 49.5275C53.6247 49.9822 53.8293 50.3742 54.1283 50.7035C54.2227 50.8132 54.3172 50.9073 54.4116 51.0014C54.4273 51.0171 54.4431 51.0484 54.4588 51.0641C54.506 51.1268 54.3959 50.97 54.4431 51.0328C54.4746 51.0955 54.5218 51.1425 54.5532 51.1896C54.6162 51.2836 54.6634 51.3777 54.7106 51.4718C54.7264 51.5031 54.8051 51.6913 54.7421 51.5345C54.7579 51.5972 54.7893 51.6443 54.8051 51.707C54.8365 51.8167 54.868 51.9265 54.8995 52.0363C54.8995 52.0833 54.931 52.146 54.931 52.1931C54.931 52.2244 54.931 52.2401 54.931 52.2715C54.931 52.2871 54.9625 52.4126 54.931 52.3185C54.9152 52.2244 54.931 52.3185 54.931 52.3499C54.931 52.3812 54.931 52.4126 54.931 52.4596C54.931 52.5223 54.931 52.5694 54.931 52.6321C54.931 52.7575 54.931 52.883 54.931 53.0084C54.931 53.1182 54.931 53.2279 54.8995 53.3377C54.8995 53.3691 54.8838 53.4474 54.8995 53.3063C54.8995 53.3377 54.8995 53.369 54.8995 53.3847C54.8995 53.4474 54.868 53.5258 54.868 53.5886C54.8208 53.8238 54.7578 54.059 54.6634 54.2785C54.6634 54.3098 54.5532 54.5137 54.6319 54.3726C54.6005 54.4353 54.5847 54.4823 54.5532 54.545C54.4903 54.6705 54.4273 54.7802 54.3644 54.89C54.3014 54.9997 54.2227 55.1095 54.144 55.2193C54.2385 55.1095 54.0968 55.2977 54.144 55.2193C54.1283 55.2506 54.0968 55.2663 54.0811 55.2977C54.0339 55.3447 54.0024 55.3917 53.9552 55.4388C53.8607 55.5329 53.7663 55.6269 53.6561 55.7053C53.6247 55.721 53.5617 55.7681 53.6876 55.6897C53.6561 55.7053 53.6404 55.7367 53.6089 55.7524C53.5617 55.7837 53.4988 55.8308 53.4358 55.8621C53.3256 55.9249 53.2155 55.9876 53.1053 56.0346C53.2469 55.9719 53.0738 56.0346 53.0266 56.066C52.9636 56.0817 52.9007 56.0973 52.8377 56.1287C52.5387 56.2071 52.3341 56.552 52.4285 56.85C52.523 57.1479 52.8377 57.336 53.1525 57.2576L53.1368 57.1636Z" fill="#231F20"/>
<path d="M18.2442 23.8139C17.8664 24.5666 17.5831 25.3976 17.5674 26.2443C17.5517 27.091 17.7877 27.9064 18.0396 28.706C18.7635 30.9326 19.6764 33.0807 20.7938 35.1348C21.4234 36.3107 22.4936 37.6122 23.7999 37.3142C23.9888 37.2672 24.1619 37.2045 24.3508 37.2358C24.697 37.2986 24.8544 37.6749 24.9803 37.9885C28.0651 46.4242 39.4285 44.3074 46.4952 43.837C47.8959 43.743 49.3282 43.6175 50.603 43.0531C53.3258 41.8614 54.8052 38.9606 56.0801 36.2794C56.4736 37.0947 57.6854 37.2202 58.4566 36.7498C59.2278 36.2794 59.6843 35.417 60.062 34.6016C60.9906 32.5789 61.746 30.4622 61.9506 28.267C62.1552 26.0718 61.7618 23.7512 60.5184 21.9167C58.4094 18.8121 55.1987 18.8748 52.0667 17.3539C47.8959 15.3312 44.7954 13.2614 39.9951 13.1987C36.3909 13.1517 32.1257 13.7789 29.2141 16.0524C28.9937 16.2249 28.7734 16.4131 28.616 16.6639C28.4901 16.8835 28.4271 17.15 28.254 17.3382C27.8291 17.8243 25.6414 18.2946 24.9331 18.4828C22.0687 19.2982 19.5662 21.1013 18.2284 23.8139H18.2442Z" fill="#888888"/>
<path d="M33.1488 33.6137C34.0354 33.6137 34.7542 32.8977 34.7542 32.0144C34.7542 31.1311 34.0354 30.415 33.1488 30.415C32.2622 30.415 31.5435 31.1311 31.5435 32.0144C31.5435 32.8977 32.2622 33.6137 33.1488 33.6137Z" fill="#231F20"/>
<path d="M47.4081 33.6137C48.2947 33.6137 49.0134 32.8977 49.0134 32.0144C49.0134 31.1311 48.2947 30.415 47.4081 30.415C46.5215 30.415 45.8027 31.1311 45.8027 32.0144C45.8027 32.8977 46.5215 33.6137 47.4081 33.6137Z" fill="#231F20"/>
<path d="M40.2155 35.9499C41.9279 35.9499 43.3161 35.0934 43.3161 34.037C43.3161 32.9805 41.9279 32.124 40.2155 32.124C38.5031 32.124 37.115 32.9805 37.115 34.037C37.115 35.0934 38.5031 35.9499 40.2155 35.9499Z" fill="#231F20"/>
<path d="M29.2141 16.7736C31.6851 14.9077 34.8958 14.1394 37.9491 13.8885C41.0024 13.6377 44.0715 13.9983 46.9359 15.0488C48.5413 15.6447 50.0837 16.4757 51.4372 17.5262C51.689 17.7144 52.0195 17.7614 52.2713 17.5262C52.476 17.3224 52.5232 16.8834 52.2713 16.6952C47.0618 12.6812 40.1053 11.8031 33.8098 13.4025C31.9684 13.8728 30.1584 14.5941 28.6318 15.7544C28.0337 16.2091 28.6318 17.2283 29.2298 16.7736H29.2141Z" fill="#231F20"/>
<path d="M26.4441 17.6989C23.4852 17.793 20.8411 19.7059 18.8108 21.7129C17.7248 22.7948 17.0166 24.0492 16.8434 25.5858C16.6703 27.1224 17.0952 28.7061 17.6933 30.133C18.433 31.8734 19.3459 33.5512 20.1958 35.2446C20.542 35.9188 21.5493 35.323 21.2188 34.6488C20.542 33.3003 19.8338 31.9518 19.1885 30.5877C18.5747 29.3176 18.0396 27.9378 17.9924 26.5109C17.9451 25.1625 18.3543 23.9394 19.2672 22.9359C20.18 21.9324 21.2031 21.1014 22.3048 20.3801C23.5481 19.5491 24.9331 18.9219 26.4441 18.8749C27.1995 18.8592 27.1995 17.6832 26.4441 17.6989Z" fill="#231F20"/>
<path d="M21.0299 36.6556C21.7381 37.5337 22.7611 38.0511 23.9101 37.8786C24.8859 37.7375 25.7515 37.126 26.3811 36.4047C27.1523 35.4953 27.5772 34.4134 27.829 33.2688C28.1281 31.9046 28.2382 30.4778 28.3956 29.098C28.5845 27.4516 28.7891 25.8052 28.9779 24.1588C29.0094 23.8452 28.6789 23.563 28.3799 23.563C28.0336 23.563 27.829 23.8295 27.7818 24.1588C27.4828 26.7303 27.2309 29.3175 26.869 31.889C26.6171 33.6608 26.0505 35.903 24.1776 36.6243C23.7842 36.7811 23.4222 36.8124 23.0287 36.7183C22.5408 36.5772 22.1631 36.2323 21.8483 35.856C21.6437 35.6051 21.2187 35.6521 21.0141 35.856C20.7623 36.1068 20.8095 36.4361 21.0141 36.687L21.0299 36.6556Z" fill="#231F20"/>
<path d="M55.1043 19.1724C57.3864 19.7683 59.7 21.0383 61.0378 23.014C61.6359 23.892 61.9979 24.8642 62.0136 25.9461C62.0293 27.1534 61.7146 28.3608 61.3683 29.5211C60.8647 31.1204 60.1879 32.6727 59.4797 34.2094C59.1649 34.8993 60.1879 35.4951 60.5027 34.8052C61.1952 33.3156 61.8562 31.7947 62.3756 30.2424C62.8005 28.9566 63.1625 27.5925 63.194 26.2283C63.257 23.6098 61.6201 21.3676 59.5269 19.9407C58.2835 19.094 56.867 18.4511 55.4033 18.0592C54.6636 17.871 54.3488 18.9999 55.0886 19.1881L55.1043 19.1724Z" fill="#231F20"/>
<path d="M52.0668 26.0559L52.7751 29.7877C52.9954 30.9324 53.1843 32.0927 53.4361 33.2373C53.8138 34.8994 54.6165 37.0004 56.4265 37.5492C57.4652 37.8628 58.6928 37.5179 59.2752 36.5771C59.6686 35.9342 58.6456 35.3384 58.2522 35.9813C57.9374 36.4987 57.2134 36.6085 56.6468 36.3889C56.033 36.1537 55.5766 35.5109 55.2618 34.915C54.9155 34.2408 54.6952 33.5039 54.5378 32.7669C54.3175 31.7164 54.1286 30.6501 53.924 29.5996L53.2 25.758C53.1371 25.4444 52.7593 25.272 52.476 25.3504C52.1455 25.4444 52.0039 25.758 52.0668 26.0716V26.0559Z" fill="#231F20"/>
<path d="M24.76 38.9134C25.0433 40.4971 26.0663 41.8142 27.3412 42.755C28.7734 43.8212 30.5204 44.2759 32.2674 44.4641C33.3534 44.5895 34.4393 44.6052 35.5253 44.6366C36.2808 44.6366 36.2808 43.4763 35.5253 43.4606C32.4563 43.3979 28.8836 43.2724 26.8375 40.6539C26.3654 40.0424 26.0506 39.3525 25.9089 38.5998C25.846 38.2862 25.4683 38.1138 25.185 38.1922C24.8544 38.2862 24.7128 38.5998 24.7757 38.9134H24.76Z" fill="#231F20"/>
<path d="M46.1018 44.856C48.1793 44.5111 50.2568 44.1348 52.0667 43.0058C53.5304 42.1121 54.7895 40.8734 55.6237 39.3681C56.0014 38.7096 56.3005 38.004 56.4736 37.267C56.6467 36.5301 55.5135 36.2165 55.3404 36.9534C55.2774 37.2357 55.183 37.5022 55.0886 37.7688C55.0571 37.8315 55.0414 37.9099 55.0099 37.9726C55.0099 37.9883 54.9627 38.0824 55.0099 37.9726C55.0099 38.004 54.9784 38.0353 54.9627 38.0824C54.8997 38.2392 54.821 38.3803 54.7423 38.5214C54.4118 39.1643 54.0183 39.7131 53.5619 40.2305C52.3815 41.5633 50.8391 42.5198 49.1236 43.0215C48.0376 43.3508 46.9044 43.5233 45.787 43.7114C45.4722 43.7585 45.2991 44.1505 45.3778 44.4327C45.4722 44.762 45.787 44.8874 46.1018 44.8404V44.856Z" fill="#231F20"/>
</svg>
