<svg width="80" height="76" viewBox="0 0 80 76" fill="none" xmlns="http://www.w3.org/2000/svg">
<path d="M54.8187 49.1875C54.2678 49.1719 53.7484 49.2973 53.3707 49.6893C53.3235 49.752 53.2605 49.8147 53.2605 49.8775C53.2605 49.9715 53.292 50.0656 53.3549 50.1597C54.1734 51.5866 54.2993 53.4054 53.6697 54.9263C53.4336 55.4908 53.0874 56.0396 52.5837 56.3689C52.0801 56.6982 51.3719 56.8079 50.8367 56.4943C51.5135 53.3897 50.2859 50.1754 49.074 47.3687C48.8537 46.8513 48.5546 45.8164 48.0667 45.4871C46.4299 43.0097 43.6599 41.2849 40.6853 40.9556C37.632 40.595 34.437 41.7083 32.265 43.8721C28.472 47.6509 25.4974 60.8847 34.2796 60.4456L34.9091 59.7871C35.2082 60.2418 35.6489 60.5868 36.3886 60.6965C39.017 61.0572 39.6465 59.4265 39.8039 57.4665C39.9455 59.4265 40.5751 61.0572 43.2192 60.6965C44.7301 60.4927 46.1781 60.3045 47.626 59.8028C49.1055 59.2853 50.4433 59.5833 51.9227 59.6616C53.5596 59.7557 55.2279 58.8463 56.487 57.8898C57.7618 56.9177 58.2182 55.5849 58.3126 54.0326C58.3913 52.6685 58.3126 51.1475 57.3211 50.2067C57.0221 49.9245 56.6601 49.7207 56.2981 49.5482C55.8574 49.3443 55.3538 49.2032 54.8659 49.1875H54.8187Z" fill="#888888"/>
<path d="M33.8862 55.2559C33.8862 56.2124 33.7603 57.1689 33.8233 58.1097C33.8862 59.1445 34.1695 60.1951 35.0667 60.8223C35.5546 61.1672 36.1684 61.277 36.7664 61.3083C37.3016 61.3397 37.8681 61.2927 38.3875 61.0888C38.9069 60.885 39.3004 60.5557 39.6151 60.1167C39.8827 59.7404 40.0558 59.2856 40.166 58.8466C40.4493 57.749 40.4178 56.573 40.4178 55.4441C40.4178 55.1305 40.1503 54.8483 39.8197 54.8483C39.4892 54.8483 39.2217 55.0991 39.2217 55.4441C39.2217 55.9302 39.2217 56.4006 39.2217 56.8866C39.2217 57.1218 39.2059 57.357 39.1745 57.5922C39.1745 57.702 39.1587 57.8117 39.143 57.9215C39.143 57.9685 39.1115 58.0783 39.143 57.8901C39.143 57.9215 39.143 57.9529 39.143 57.9842C39.143 58.0469 39.1272 58.094 39.1115 58.1567C39.08 58.3605 39.0328 58.5801 38.9699 58.7839C38.9384 58.878 38.9069 58.972 38.8754 59.0661C38.8282 59.2072 38.9384 58.9407 38.8754 59.0661C38.8439 59.1132 38.8282 59.1759 38.7967 59.2229C38.7495 59.3013 38.7023 59.3797 38.6551 59.4581C38.6393 59.4895 38.6079 59.5208 38.5764 59.5522C38.5134 59.6306 38.6708 59.4424 38.6079 59.5052C38.5921 59.5365 38.5607 59.5522 38.5449 59.5836C38.482 59.6463 38.419 59.709 38.356 59.7717C38.356 59.7717 38.3246 59.8031 38.3088 59.8188C38.2616 59.8658 38.4347 59.7247 38.356 59.7874C38.3088 59.8188 38.2616 59.8501 38.2144 59.8815C38.1357 59.9285 38.0413 59.9599 37.9626 60.0069C38.057 59.9285 38.0885 59.9599 38.0255 59.9756C37.9941 59.9756 37.9783 59.9912 37.9468 60.0069C37.8839 60.0226 37.8209 60.054 37.758 60.0696C37.6478 60.101 37.5376 60.1167 37.4432 60.1324C37.4432 60.1324 37.6006 60.1167 37.5062 60.1324C37.4747 60.1324 37.4432 60.1324 37.4117 60.1324C37.333 60.1324 37.2701 60.1324 37.1914 60.1324C37.0655 60.1324 36.9396 60.1324 36.8137 60.1324C36.735 60.1324 36.6563 60.1324 36.5776 60.1167C36.5304 60.1167 36.4989 60.1167 36.4517 60.1167C36.31 60.101 36.5776 60.1324 36.4517 60.1167C36.3258 60.101 36.2156 60.0696 36.1054 60.0383C36.0425 60.0226 35.9952 60.0069 35.9323 59.9756C35.8221 59.9442 36.0739 60.0383 35.9638 59.9756C35.9323 59.9756 35.9165 59.9442 35.8851 59.9442C35.7906 59.8972 35.7119 59.8501 35.6332 59.7874C35.5388 59.7247 35.7434 59.8815 35.6647 59.8188C35.649 59.8031 35.6175 59.7874 35.6018 59.7717C35.5703 59.7404 35.5231 59.709 35.4916 59.662C35.4601 59.6149 35.4286 59.5836 35.3972 59.5522C35.4916 59.6306 35.4759 59.6463 35.4444 59.6149C35.4444 59.5992 35.4129 59.5679 35.3972 59.5522C35.3342 59.4738 35.287 59.3797 35.2398 59.2856C35.2398 59.27 35.224 59.2386 35.2083 59.2072C35.1611 59.1132 35.2555 59.3484 35.224 59.2543C35.224 59.2072 35.1926 59.1759 35.1768 59.1288C35.1453 59.0191 35.1139 58.925 35.0824 58.8152C35.0509 58.7212 35.0352 58.6114 35.0194 58.5173C35.0194 58.486 35.0194 58.4546 35.0194 58.4389C35.0509 58.6271 35.0194 58.533 35.0194 58.5017C35.0194 58.4389 35.0194 58.3762 35.0037 58.3135C34.9093 57.2943 35.0509 56.2908 35.0667 55.2716C35.0667 54.958 34.7991 54.6758 34.4686 54.6758C34.1381 54.6758 33.8862 54.9267 33.8705 55.2716L33.8862 55.2559Z" fill="#231F20"/>
<path d="M48.7118 45.4253C46.6973 42.258 43.0774 40.2196 39.2843 40.3137C36.0264 40.3921 32.7213 41.9601 30.8484 44.657C29.5735 46.4758 28.7551 48.6867 28.2987 50.8505C27.8423 53.0143 27.6691 55.4447 28.4876 57.5458C28.8968 58.612 29.5735 59.5528 30.5493 60.18C31.6353 60.8856 32.9731 61.0894 34.2637 61.0424C35.0191 61.011 35.0191 59.835 34.2637 59.8664C32.375 59.9448 30.6438 59.3176 29.7781 57.5458C28.9125 55.774 29.0069 53.7199 29.306 51.901C29.6365 49.8627 30.3132 47.84 31.352 46.0525C32.7213 43.7005 35.0821 42.1639 37.7734 41.6465C41.6137 40.9095 45.627 42.744 47.7046 46.0211C48.1138 46.664 49.1368 46.0682 48.7276 45.4253H48.7118Z" fill="#231F20"/>
<path d="M44.4779 55.2559C44.4779 56.1654 44.5881 57.0591 44.5566 57.9685C44.5566 58.0783 44.5566 58.1881 44.5409 58.2978C44.5409 58.3449 44.5409 58.4076 44.5251 58.4546C44.5251 58.486 44.5251 58.5017 44.5251 58.533C44.5251 58.4703 44.5409 58.3292 44.5251 58.533C44.4936 58.7369 44.4464 58.9564 44.3677 59.1445C44.3677 59.1916 44.3362 59.2229 44.3205 59.27C44.289 59.364 44.3835 59.1288 44.3362 59.2229C44.3362 59.2386 44.3205 59.27 44.3048 59.3013C44.2576 59.3954 44.2103 59.4895 44.1474 59.5679C44.1474 59.5836 44.1159 59.5992 44.1159 59.6149C44.0844 59.662 44.0529 59.6463 44.1474 59.5679C44.1159 59.5992 44.0844 59.6463 44.053 59.6776C44.0215 59.709 43.99 59.7404 43.9585 59.7717C43.9428 59.7874 43.927 59.8031 43.8956 59.8188C43.7854 59.9128 43.99 59.756 43.9113 59.8188C43.8326 59.8815 43.7382 59.9285 43.6595 59.9756C43.4549 60.0383 43.6123 60.0069 43.6595 59.9756C43.5965 59.9912 43.5336 60.0226 43.4549 60.0383C43.3447 60.0696 43.2188 60.101 43.1086 60.1167C43.0299 60.1167 43.1244 60.0853 43.1558 60.1167C43.1558 60.1167 43.0457 60.1167 43.0299 60.1167C42.9512 60.1167 42.8568 60.1324 42.7781 60.1324C42.6522 60.1324 42.5263 60.1324 42.4004 60.1324C42.3374 60.1324 42.2587 60.1324 42.1958 60.1324C42.1328 60.1324 41.9282 60.0853 42.1328 60.1324C42.0227 60.101 41.9125 60.101 41.8181 60.0696C41.7708 60.0696 41.7079 60.0383 41.6607 60.0226C41.6292 60.0226 41.6134 60.0069 41.582 59.9912C41.519 59.9756 41.5033 59.9128 41.6292 60.0069C41.5505 59.9599 41.4561 59.9285 41.3774 59.8815C41.3302 59.8501 41.2987 59.8188 41.2515 59.8031C41.157 59.7404 41.2357 59.8031 41.2515 59.8031C41.3459 59.8658 41.2515 59.8031 41.2357 59.7874C41.1728 59.7247 41.1098 59.662 41.0469 59.5992C40.9996 59.5522 40.9209 59.4111 41.0311 59.5992C40.9996 59.5522 40.9682 59.5208 40.9524 59.4738C40.9052 59.3954 40.858 59.317 40.8108 59.2386C40.7793 59.1916 40.7636 59.1445 40.7478 59.0975C40.7478 59.0975 40.7478 59.0661 40.7321 59.0504C40.6849 58.9564 40.795 59.2072 40.7321 59.0661C40.6534 58.878 40.5904 58.6741 40.5432 58.4703C40.5117 58.3449 40.496 58.2351 40.4645 58.1097C40.4645 58.0469 40.4488 57.9999 40.433 57.9372C40.4173 57.8274 40.4488 58.094 40.433 57.9842C40.433 57.9529 40.433 57.9215 40.433 57.8745C40.4016 57.6236 40.3858 57.357 40.3701 57.1061C40.3386 56.5574 40.3543 56.0242 40.3543 55.4755C40.3543 55.1619 40.0868 54.8796 39.7563 54.8796C39.4258 54.8796 39.1739 55.1305 39.1582 55.4755C39.1582 56.5103 39.1582 57.5452 39.3471 58.5644C39.5202 59.4895 39.9609 60.4146 40.8108 60.9163C41.2829 61.1986 41.8495 61.324 42.3846 61.3397C43.0142 61.3554 43.6595 61.277 44.2261 61.0104C45.2334 60.54 45.6111 59.4738 45.7213 58.4546C45.8314 57.4354 45.6898 56.3378 45.674 55.2716C45.674 54.958 45.4065 54.6758 45.076 54.6758C44.7455 54.6758 44.4779 54.9267 44.4779 55.2716V55.2559Z" fill="#231F20"/>
<path d="M47.6892 45.9433C47.8938 46.0687 48.0197 46.3823 48.1141 46.6018C48.2401 46.8998 48.3502 47.1977 48.4604 47.4956C48.6493 47.966 48.8696 48.4521 49.0585 48.9695C49.4677 50.0671 49.8139 51.1803 50.0658 52.325C50.3018 53.3912 50.4277 54.4888 50.349 55.5864C50.2861 56.4644 50.0343 57.4366 49.5149 58.0795C48.7752 59.0202 47.6105 59.4122 46.3986 59.522C45.6432 59.5847 45.6432 60.7607 46.3986 60.698C47.7207 60.5882 49.0427 60.2119 50.0185 59.2711C50.837 58.4871 51.2934 57.4052 51.4508 56.3076C51.8127 53.8146 51.136 51.2274 50.2861 48.9068C50.0658 48.2953 49.7825 47.6367 49.5621 47.0879C49.2631 46.3353 49.027 45.3631 48.2873 44.9241C47.6262 44.5321 47.0439 45.5513 47.6892 45.9433Z" fill="#231F20"/>
<path d="M57.7298 54.0802C57.714 54.2527 57.7455 53.9548 57.7298 54.1272C57.7298 54.1586 57.7298 54.19 57.7298 54.2213C57.7298 54.2997 57.6983 54.3938 57.6826 54.4722C57.6511 54.629 57.6039 54.8015 57.5566 54.9583C57.5094 55.0994 57.4622 55.2405 57.415 55.3816C57.3835 55.46 57.352 55.5384 57.3206 55.6168C57.2733 55.7109 57.3206 55.6325 57.3206 55.6168C57.3048 55.6639 57.2733 55.7109 57.2576 55.7579C57.116 56.0559 56.9586 56.3381 56.7697 56.6203C56.691 56.7458 56.5966 56.8555 56.5179 56.981C56.5336 56.9653 56.5808 56.8869 56.5179 56.981C56.4864 57.0123 56.4549 57.0594 56.4234 57.0907C56.3762 57.1534 56.3133 57.2162 56.2661 57.2789C56.0615 57.5141 55.8254 57.7336 55.5736 57.9374C55.5421 57.9688 55.5106 57.9845 55.4791 58.0158C55.4949 58.0002 55.5736 57.9374 55.4791 58.0158C55.4162 58.0629 55.3532 58.1099 55.2745 58.157C55.1486 58.251 55.007 58.3294 54.8653 58.4235C54.7394 58.5019 54.6135 58.5646 54.4718 58.6273C54.3932 58.6587 54.3302 58.6901 54.2515 58.7214C54.283 58.7214 54.3617 58.6744 54.2515 58.7214C54.2043 58.7371 54.1413 58.7685 54.0941 58.7841C53.7951 58.8939 53.4803 58.9723 53.1655 59.035C53.1341 59.035 53.1026 59.035 53.0711 59.0507C53.0239 59.0507 52.9294 59.0664 53.0239 59.0507C52.9294 59.0507 52.8193 59.0664 52.7248 59.0821C52.536 59.0821 52.3471 59.0977 52.174 59.0821C52.0009 59.0664 51.812 59.0664 51.6231 59.035C51.513 59.035 51.7648 59.0664 51.5917 59.035C51.5444 59.035 51.4815 59.0193 51.4343 59.0037C51.3241 58.988 51.2297 58.9566 51.1195 58.9409C50.8205 58.8625 50.4585 59.035 50.3955 59.3486C50.3326 59.6622 50.4899 59.9915 50.8047 60.0699C52.2999 60.4305 53.858 60.2424 55.2273 59.5211C56.4864 58.8625 57.5252 57.7806 58.1547 56.5106C58.5482 55.7423 58.7685 54.9269 58.8787 54.0802C58.9102 53.7666 58.5797 53.4844 58.2806 53.4844C57.9344 53.4844 57.7298 53.7509 57.6826 54.0802H57.7298Z" fill="#231F20"/>
<path d="M51.8594 57.5146C53.8425 57.0129 54.9442 54.7707 54.8183 52.8421C54.7868 52.3089 54.6766 51.8072 54.4563 51.3211C54.236 50.835 53.9212 50.5058 53.5907 50.1294C53.6694 50.2235 53.512 50.051 53.5277 50.0354C53.5435 50.0197 53.5592 50.1451 53.5592 50.1451C53.5435 50.0354 53.5592 50.1138 53.5592 50.1451C53.5592 50.1451 53.5277 50.2235 53.512 50.2235C53.512 50.2235 53.5749 50.1608 53.5907 50.1451C53.6379 50.1294 53.6694 50.0981 53.7166 50.0824C53.7166 50.0824 53.8268 50.0354 53.7638 50.051C53.7008 50.0667 53.7953 50.051 53.811 50.0354C53.874 50.004 53.9369 49.9883 53.9999 49.9727C54.1415 49.9256 54.2674 49.8942 54.4091 49.8786C54.4406 49.8786 54.472 49.8786 54.5035 49.8786C54.5665 49.8786 54.6294 49.8786 54.6924 49.8786C54.834 49.8786 54.9599 49.8786 55.1016 49.8942C55.0072 49.8786 55.196 49.8942 55.1016 49.8942C55.1331 49.8942 55.1646 49.8942 55.196 49.9099C55.259 49.9099 55.3219 49.9413 55.3849 49.957C55.5108 49.9883 55.6367 50.0354 55.7626 50.0824C55.7941 50.0824 55.8728 50.1294 55.7626 50.0824C55.7941 50.0981 55.8413 50.1138 55.8728 50.1294C55.9358 50.1608 55.9987 50.1922 56.0617 50.2235C56.1876 50.2862 56.3135 50.3646 56.4236 50.443C56.4551 50.4587 56.4709 50.4744 56.5023 50.5058C56.3922 50.4274 56.5023 50.5058 56.5338 50.5371C56.581 50.5842 56.644 50.6312 56.6912 50.6782C56.8014 50.788 56.8958 50.8978 56.9902 51.0075C57.006 51.0232 57.0532 51.1016 56.9902 51.0075C57.006 51.0389 57.0217 51.0546 57.0532 51.0859C57.1004 51.1486 57.1476 51.2114 57.1791 51.2898C57.2578 51.4152 57.3208 51.5406 57.368 51.6661C57.3208 51.5563 57.368 51.6347 57.368 51.6661C57.3837 51.7131 57.3995 51.7601 57.4152 51.8072C57.4309 51.8699 57.4467 51.9326 57.4781 51.9953C57.4939 52.0737 57.5096 52.1521 57.5254 52.2305C57.5254 52.2619 57.5254 52.2933 57.5411 52.3246C57.5254 52.2149 57.5411 52.3089 57.5411 52.356C57.5726 52.6539 57.7929 52.9518 58.1392 52.9518C58.4382 52.9518 58.7687 52.6853 58.7372 52.356C58.6113 51.1016 57.9188 50.004 56.8643 49.3455C55.8098 48.6869 54.4563 48.5615 53.2916 49.0632C52.9297 49.22 52.5834 49.4866 52.4732 49.8786C52.3473 50.3333 52.5519 50.7253 52.851 51.0546C52.9454 51.1643 53.0398 51.2584 53.1343 51.3525C53.15 51.3682 53.1657 51.3995 53.1815 51.4152C53.2287 51.4779 53.1185 51.3211 53.1657 51.3838C53.1972 51.4466 53.2444 51.4936 53.2759 51.5406C53.3389 51.6347 53.3861 51.7288 53.4333 51.8229C53.449 51.8542 53.5277 52.0424 53.4648 51.8856C53.4805 51.9483 53.512 51.9953 53.5277 52.0581C53.5592 52.1678 53.5907 52.2776 53.6222 52.3873C53.6222 52.4344 53.6536 52.4971 53.6536 52.5441C53.6536 52.5755 53.6536 52.5912 53.6536 52.6225C53.6536 52.6382 53.6851 52.7637 53.6536 52.6696C53.6379 52.5755 53.6536 52.6696 53.6536 52.7009C53.6536 52.7323 53.6536 52.7637 53.6536 52.8107C53.6536 52.8734 53.6536 52.9205 53.6536 52.9832C53.6536 53.1086 53.6536 53.234 53.6536 53.3595C53.6536 53.4692 53.6536 53.579 53.6222 53.6888C53.6222 53.7201 53.6064 53.7985 53.6222 53.6574C53.6222 53.6888 53.6222 53.7201 53.6222 53.7358C53.6222 53.7985 53.5907 53.8769 53.5907 53.9396C53.5435 54.1748 53.4805 54.41 53.3861 54.6296C53.3861 54.6609 53.2759 54.8647 53.3546 54.7236C53.3231 54.7864 53.3074 54.8334 53.2759 54.8961C53.2129 55.0215 53.15 55.1313 53.087 55.2411C53.0241 55.3508 52.9454 55.4606 52.8667 55.5703C52.8195 55.6487 52.9611 55.4606 52.8667 55.5703C52.851 55.6017 52.8195 55.6174 52.8037 55.6487C52.7565 55.6958 52.725 55.7428 52.6778 55.7899C52.5834 55.8839 52.489 55.978 52.3788 56.0564C52.3473 56.0721 52.2844 56.1191 52.4103 56.0407C52.3788 56.0564 52.3631 56.0878 52.3316 56.1034C52.2844 56.1348 52.2214 56.1818 52.1585 56.2132C52.0483 56.2759 51.9381 56.3386 51.8279 56.3857C51.9696 56.323 51.7965 56.3857 51.7492 56.417C51.6863 56.4327 51.6233 56.4484 51.5604 56.4798C51.2613 56.5582 51.0567 56.9031 51.1512 57.201C51.2456 57.499 51.5604 57.6871 51.8752 57.6087L51.8594 57.5146Z" fill="#231F20"/>
<path d="M16.9675 24.1645C16.5898 24.9172 16.3065 25.7482 16.2908 26.5949C16.275 27.4416 16.5111 28.257 16.7629 29.0566C17.4869 31.2832 18.3998 33.4313 19.5172 35.4853C20.1468 36.6613 21.217 37.9627 22.5233 37.6648C22.7122 37.6178 22.8853 37.5551 23.0742 37.5864C23.4204 37.6492 23.5778 38.0255 23.7037 38.3391C26.7885 46.7748 38.1519 44.658 45.2186 44.1876C46.6193 44.0935 48.0516 43.9681 49.3264 43.4036C52.0492 42.212 53.5286 39.3112 54.8035 36.63C55.1969 37.4453 56.4088 37.5708 57.18 37.1004C57.9512 36.63 58.4076 35.7676 58.7854 34.9522C59.714 32.9295 60.4694 30.8128 60.674 28.6176C60.8786 26.4224 60.4852 24.1018 59.2418 22.2673C57.1328 19.1627 53.9221 19.2254 50.7901 17.7044C46.6193 15.6818 43.5188 13.612 38.7185 13.5493C35.1143 13.5023 30.8491 14.1295 27.9374 16.403C27.7171 16.5755 27.4968 16.7637 27.3394 17.0145C27.2135 17.2341 27.1505 17.5006 26.9774 17.6888C26.5524 18.1748 24.3648 18.6452 23.6565 18.8334C20.7921 19.6487 18.2896 21.4519 16.9518 24.1645H16.9675Z" fill="#888888"/>
<path d="M31.872 33.9643C32.7586 33.9643 33.4773 33.2483 33.4773 32.365C33.4773 31.4817 32.7586 30.7656 31.872 30.7656C30.9853 30.7656 30.2666 31.4817 30.2666 32.365C30.2666 33.2483 30.9853 33.9643 31.872 33.9643Z" fill="#231F20"/>
<path d="M46.1317 33.9643C47.0183 33.9643 47.7371 33.2483 47.7371 32.365C47.7371 31.4817 47.0183 30.7656 46.1317 30.7656C45.2451 30.7656 44.5264 31.4817 44.5264 32.365C44.5264 33.2483 45.2451 33.9643 46.1317 33.9643Z" fill="#231F20"/>
<path d="M38.9384 36.3005C40.6508 36.3005 42.039 35.444 42.039 34.3875C42.039 33.3311 40.6508 32.4746 38.9384 32.4746C37.226 32.4746 35.8379 33.3311 35.8379 34.3875C35.8379 35.444 37.226 36.3005 38.9384 36.3005Z" fill="#231F20"/>
<path d="M27.9365 17.1247C30.4075 15.2588 33.6182 14.4905 36.6715 14.2396C39.7248 13.9887 42.7939 14.3494 45.6583 15.3999C47.2637 15.9957 48.8061 16.8268 50.1596 17.8773C50.4114 18.0655 50.7419 18.1125 50.9938 17.8773C51.1984 17.6735 51.2456 17.2344 50.9938 17.0463C45.7842 13.0323 38.8277 12.1542 32.5322 13.7535C30.6908 14.2239 28.8808 14.9452 27.3542 16.1055C26.7561 16.5602 27.3542 17.5794 27.9522 17.1247H27.9365Z" fill="#231F20"/>
<path d="M25.167 18.049C22.2081 18.1431 19.564 20.056 17.5337 22.063C16.4477 23.1449 15.7395 24.3993 15.5663 25.9359C15.3932 27.4725 15.8181 29.0562 16.4162 30.4831C17.1559 32.2235 18.0688 33.9013 18.9187 35.5947C19.2649 36.2689 20.2722 35.6731 19.9417 34.9988C19.2649 33.6504 18.5567 32.3019 17.9114 30.9378C17.2976 29.6677 16.7625 28.2879 16.7153 26.861C16.668 25.5126 17.0772 24.2895 17.9901 23.286C18.9029 22.2825 19.926 21.4515 21.0277 20.7302C22.271 19.8992 23.656 19.272 25.167 19.225C25.9224 19.2093 25.9224 18.0333 25.167 18.049Z" fill="#231F20"/>
<path d="M19.7528 37.0067C20.461 37.8848 21.484 38.4022 22.633 38.2297C23.6088 38.0886 24.4744 37.4771 25.104 36.7558C25.8752 35.8464 26.3001 34.7645 26.5519 33.6199C26.851 32.2557 26.9611 30.8289 27.1185 29.449C27.3074 27.8027 27.512 26.1563 27.7008 24.5099C27.7323 24.1963 27.4018 23.9141 27.1028 23.9141C26.7565 23.9141 26.5519 24.1806 26.5047 24.5099C26.2057 27.0814 25.9538 29.6686 25.5919 32.24C25.34 34.0119 24.7734 36.2541 22.9005 36.9753C22.5071 37.1321 22.1451 37.1635 21.7516 37.0694C21.2637 36.9283 20.886 36.5833 20.5712 36.207C20.3666 35.9562 19.9416 36.0032 19.737 36.207C19.4852 36.4579 19.5324 36.7872 19.737 37.0381L19.7528 37.0067Z" fill="#231F20"/>
<path d="M53.8272 19.523C56.1093 20.1188 58.4229 21.3889 59.7607 23.3646C60.3588 24.2426 60.7208 25.2148 60.7365 26.2967C60.7522 27.504 60.4375 28.7114 60.0912 29.8717C59.5876 31.471 58.9108 33.0233 58.2026 34.5599C57.8878 35.2498 58.9108 35.8457 59.2256 35.1558C59.9181 33.6662 60.5791 32.1452 61.0985 30.5929C61.5234 29.3072 61.8854 27.9431 61.9169 26.5789C61.9799 23.9604 60.343 21.7182 58.2498 20.2913C57.0064 19.4446 55.5899 18.8017 54.1262 18.4097C53.3865 18.2216 53.0717 19.3505 53.8115 19.5387L53.8272 19.523Z" fill="#231F20"/>
<path d="M50.79 26.408L51.4982 30.1398C51.7186 31.2844 51.9074 32.4447 52.1592 33.5893C52.537 35.2514 53.3397 37.3525 55.1496 37.9013C56.1884 38.2149 57.416 37.8699 57.9983 36.9291C58.3918 36.2863 57.3688 35.6904 56.9753 36.3333C56.6605 36.8507 55.9365 36.9605 55.3699 36.741C54.7561 36.5058 54.2997 35.8629 53.9849 35.2671C53.6387 34.5929 53.4183 33.8559 53.261 33.119C53.0406 32.0684 52.8518 31.0022 52.6471 29.9516L51.9232 26.1101C51.8602 25.7965 51.4825 25.624 51.1992 25.7024C50.8687 25.7965 50.727 26.1101 50.79 26.4237V26.408Z" fill="#231F20"/>
<path d="M23.4834 39.2655C23.7667 40.8491 24.7897 42.1662 26.0646 43.107C27.4968 44.1733 29.2438 44.628 30.9908 44.8161C32.0767 44.9416 33.1627 44.9572 34.2487 44.9886C35.0042 44.9886 35.0042 43.8283 34.2487 43.8126C31.1796 43.7499 27.6069 43.6245 25.5609 41.0059C25.0887 40.3944 24.774 39.7045 24.6323 38.9519C24.5694 38.6383 24.1916 38.4658 23.9083 38.5442C23.5778 38.6383 23.4362 38.9519 23.4991 39.2655H23.4834Z" fill="#231F20"/>
<path d="M44.8249 45.2076C46.9024 44.8627 48.9799 44.4863 50.7899 43.3574C52.2536 42.4636 53.5127 41.2249 54.3468 39.7197C54.7246 39.0611 55.0236 38.3555 55.1967 37.6186C55.3699 36.8816 54.2367 36.568 54.0635 37.305C54.0006 37.5872 53.9061 37.8538 53.8117 38.1203C53.7802 38.1831 53.7645 38.2615 53.733 38.3242C53.6858 38.4339 53.733 38.3399 53.733 38.3242C53.733 38.3555 53.7015 38.3869 53.6858 38.4339C53.6229 38.5907 53.5442 38.7319 53.4655 38.873C53.135 39.5158 52.7415 40.0646 52.2851 40.5821C51.1047 41.9149 49.5623 42.8713 47.8467 43.3731C46.7608 43.7024 45.6276 43.8748 44.5101 44.063C44.1954 44.11 44.0222 44.502 44.1009 44.7843C44.1954 45.1135 44.5101 45.239 44.8249 45.1919V45.2076Z" fill="#231F20"/>
</svg>
