<svg width="80" height="76" viewBox="0 0 80 76" fill="none" xmlns="http://www.w3.org/2000/svg">
<path d="M32.6549 45.4554C33.4575 44.0756 34.8111 43.0094 36.3377 42.539C37.2663 42.2567 38.2578 42.194 39.2336 42.1783C40.7288 42.1626 42.2555 42.2567 43.6405 42.8055C46.741 44.0129 48.7398 47.5565 48.1575 50.8336C48.0946 51.1472 48.0316 51.4765 48.0788 51.79C48.1418 52.088 48.2992 52.3388 48.4566 52.6054C49.1648 53.8598 49.4638 55.3494 49.2907 56.7919C50.7544 56.5097 52.0292 55.4278 52.5486 54.0479C52.6588 53.7657 52.769 53.4207 53.0523 53.311C53.2411 53.2326 53.4457 53.2639 53.6346 53.358C54.3901 53.75 54.3586 54.8319 54.1382 55.6473C53.9808 56.1804 53.792 56.7135 53.4772 57.1682C52.769 58.2031 51.4941 58.7519 50.235 58.7989C49.7629 58.8146 49.2592 58.7832 48.85 58.9871C48.6139 59.1125 48.4093 59.3007 48.189 59.4575C47.4807 59.9592 46.5049 60.069 45.7023 59.724C45.5449 59.6613 45.4032 59.5829 45.2458 59.5516C44.8052 59.5045 44.4589 59.8808 44.0812 60.116C43.2628 60.6178 42.0824 60.3826 41.5315 59.5986C40.2409 60.2728 38.7143 60.2415 37.2506 60.2101C36.4951 60.1944 35.7554 60.1631 34.9999 60.1474C33.788 60.116 32.4817 60.0376 31.5374 59.285C30.8292 58.7048 30.4357 57.8268 30.2626 56.9173C30.0894 56.0079 30.1052 55.0514 30.3255 54.1577C30.6875 52.6681 31.6318 51.3197 31.7735 49.783C31.9151 48.2464 31.8364 46.8666 32.6706 45.4554H32.6549Z" fill="#8E887C"/>
<path d="M36.1489 58.0936C35.3462 58.0936 34.7481 57.8427 34.8583 58.7521C35.0472 60.3671 36.8886 60.4926 37.9431 59.5361C38.2579 59.2382 38.8717 58.5326 38.4782 58.1563C38.1477 57.827 36.6053 58.0936 36.1489 58.0936Z" fill="#F39B4A"/>
<path d="M42.5861 58.0936C41.7835 58.0936 41.1854 57.8427 41.2956 58.7521C41.4844 60.3671 43.3259 60.4926 44.3804 59.5361C44.6951 59.2382 45.3089 58.5326 44.9155 58.1563C44.585 57.827 43.0426 58.0936 42.5861 58.0936Z" fill="#F39B4A"/>
<path d="M39.1235 54.3929C39.1235 54.0479 39.155 53.6873 39.1708 53.3267C39.1708 53.2483 39.1708 53.1542 39.1393 53.0758C39.1393 53.0758 39.1235 52.919 39.1393 53.0131C39.1393 52.9503 39.1235 52.8876 39.1078 52.8249C39.0606 52.574 39.0134 52.3232 38.9347 52.0723C38.9032 51.9468 38.856 51.8371 38.8088 51.7273C38.8088 51.7273 38.793 51.6803 38.7773 51.6646C38.7616 51.6176 38.7301 51.5705 38.6986 51.5078C38.6199 51.351 38.5255 51.2099 38.431 51.0688C38.4153 51.0531 38.3996 51.0217 38.3838 51.0061C38.3366 50.959 38.3051 50.912 38.2579 50.8649C38.195 50.8022 38.1163 50.7395 38.0533 50.6768C38.0376 50.6611 38.0376 50.6611 38.0218 50.6454C38.0218 50.6454 38.0218 50.6454 38.0061 50.6454C37.8959 50.5827 37.7858 50.5043 37.6598 50.4259C37.5812 50.3789 37.5182 50.3475 37.4395 50.3161C37.4238 50.3161 37.4238 50.3161 37.408 50.3005C37.2664 50.2534 37.1405 50.2064 36.9988 50.175C36.9201 50.1593 36.8414 50.1437 36.7627 50.128C36.747 50.128 36.684 50.128 36.6368 50.1123C36.5896 50.1123 36.5267 50.1123 36.5109 50.1123C36.448 50.1123 36.3693 50.1123 36.3063 50.1123C36.1647 50.1123 36.023 50.1123 35.8814 50.128C35.8814 50.128 35.8814 50.128 35.8656 50.128C35.8027 50.128 35.7397 50.1593 35.6768 50.175C35.5509 50.2064 35.4407 50.2534 35.3148 50.2848C35.3462 50.2848 35.3463 50.2848 35.362 50.2848C35.3463 50.2848 35.3305 50.2848 35.3148 50.3005C35.2676 50.3318 35.2046 50.3632 35.1574 50.3945C35.0472 50.4573 35.0157 50.52 35.1259 50.3945C35.0944 50.4416 35.0315 50.4729 35 50.5043C34.9685 50.5357 34.9528 50.5513 34.9213 50.5827C34.9213 50.5827 34.9056 50.5984 34.8898 50.6297C34.8583 50.6768 34.8426 50.7238 34.8111 50.7709C34.8111 50.7709 34.8111 50.8022 34.8111 50.8179C34.8111 50.8649 34.7954 50.9433 34.7639 50.9904C34.7639 50.9904 34.7639 50.9904 34.7639 51.0061C34.7639 51.0845 34.7639 51.1629 34.7639 51.2413C34.7639 51.2726 34.7639 51.2883 34.7639 51.3197C34.7954 51.4608 34.8269 51.6176 34.8741 51.7587C34.8741 51.8057 34.9056 51.8528 34.9213 51.8998C34.9213 51.8998 34.937 51.9312 34.9528 51.9625C34.9685 51.9939 35.0157 52.0723 35.0157 52.0723C35.0472 52.1036 35.0472 52.1193 35.063 52.135C35.0944 52.1664 35.1259 52.1977 35.1574 52.2291C35.2046 52.2761 35.2676 52.3232 35.3148 52.3702C35.3305 52.3702 35.362 52.4016 35.3777 52.4172C35.5036 52.4956 35.6295 52.574 35.7555 52.6524C36.023 52.8092 36.3221 52.9504 36.5896 53.0915C37.1405 53.358 37.7071 53.6716 38.1163 54.142C38.5255 54.6281 38.6829 55.1926 38.6514 55.7884C38.8245 55.7884 38.9976 55.7884 39.1708 55.8041C39.1865 55.4748 39.2022 55.1455 39.2022 54.8162C39.155 54.7065 39.1078 54.581 39.1235 54.4243V54.3929Z" fill="#F39B4A"/>
<path d="M43.7508 49.987C43.5619 49.94 43.6249 49.9556 43.4675 49.9556C43.3259 49.9556 43.1842 49.9556 43.0426 49.9556C42.9324 49.9556 42.9481 49.9556 42.7907 50.0027C42.2871 50.1124 41.8464 50.3163 41.5789 50.6769C41.0595 51.3511 40.9493 52.2919 40.9021 53.2014C40.9651 53.7815 40.9651 54.3773 40.9493 54.9732C41.1382 54.6125 41.3743 54.2833 41.6103 54.001C42.0353 53.5306 42.6019 53.2014 43.1527 52.9034C43.4203 52.7623 43.6721 52.6369 43.9239 52.4801C44.1443 52.3546 44.3331 52.2292 44.4276 52.1351C44.5535 52.0097 44.6164 51.947 44.6479 51.8999C44.6794 51.8529 44.7896 51.6177 44.7423 51.7274C44.821 51.4923 44.8368 51.3825 44.8053 51.1003C44.8053 50.9748 44.7109 50.7083 44.7109 50.6926C44.7109 50.6612 44.5377 50.3947 44.6007 50.4731C44.4276 50.2379 44.3331 50.1908 44.0656 50.0654C44.1758 50.1124 43.9239 50.0184 43.9239 50.0184C43.861 50.0027 43.798 49.987 43.7508 49.9713V49.987Z" fill="#F39B4A"/>
<path d="M32.9226 43.9501C30.7822 46.8509 30.4831 50.959 32.1672 54.142C32.6079 54.9887 33.2059 55.7413 33.5994 56.6194C33.9456 57.3563 34.0401 58.1874 34.2919 58.9557C34.528 59.6769 34.9057 60.3669 35.5982 60.7275C36.3537 61.1352 37.2665 61.0254 37.9748 60.555C40.0208 59.2066 39.4857 56.3842 39.344 54.3145C39.2968 53.5618 38.1164 53.5618 38.1636 54.3145C38.2266 55.2552 38.321 56.196 38.321 57.1368C38.321 57.9208 38.1951 58.7675 37.6128 59.3477C37.2036 59.7397 36.5425 59.9905 36.0389 59.6142C35.5353 59.2379 35.4094 58.5637 35.2677 58.0149C35.0788 57.3093 34.9215 56.6194 34.6067 55.9452C34.2289 55.1612 33.7253 54.4713 33.3004 53.7186C32.5606 52.3858 32.2301 50.8806 32.2773 49.3596C32.3403 47.6192 32.9226 45.9414 33.9614 44.5303C34.1503 44.2794 34.0086 43.8717 33.7568 43.7306C33.4577 43.5581 33.143 43.6835 32.9541 43.9344L32.9226 43.9501Z" fill="#231F20"/>
<path d="M31.207 50.6139C30.483 51.3666 30.1682 52.3858 29.9794 53.3893C29.8063 54.2517 29.7118 55.1454 29.7433 56.0235C29.7748 56.9486 29.9322 57.9051 30.3729 58.7361C30.8135 59.5671 31.4746 60.0532 32.3245 60.3668C33.2216 60.6961 34.3075 60.7745 35.2361 60.4765C35.5352 60.3825 35.7398 60.0689 35.6453 59.7553C35.5666 59.4574 35.2204 59.2378 34.9213 59.3476C34.764 59.3946 34.6066 59.4417 34.4492 59.4574C34.5594 59.4417 34.4492 59.4574 34.4177 59.4574C34.3705 59.4574 34.3233 59.4574 34.2761 59.4574C34.1816 59.4574 34.0872 59.4574 33.977 59.4574C33.8826 59.4574 33.8039 59.4574 33.7095 59.4574C33.6622 59.4574 33.615 59.4574 33.5521 59.4574C33.5521 59.4574 33.4419 59.4574 33.5206 59.4574C33.316 59.426 33.1114 59.379 32.9225 59.3319C32.5605 59.2222 32.3717 59.1438 32.0254 58.9242C32.0097 58.9242 31.8995 58.8458 31.9939 58.9086C31.9625 58.8929 31.931 58.8615 31.9152 58.8458C31.8523 58.7988 31.8051 58.7361 31.7421 58.6734C31.6477 58.5793 31.5847 58.4852 31.4903 58.3127C31.144 57.7169 30.9867 56.9329 30.9552 56.2273C30.9394 55.8196 30.9394 55.412 30.9552 55.0043C30.9709 54.5966 31.0181 54.3457 31.0811 53.9694C31.2385 53.0757 31.4431 52.1035 32.0569 51.4607C32.5763 50.9119 31.7421 50.0808 31.2227 50.6296L31.207 50.6139Z" fill="#231F20"/>
<path d="M45.844 44.5458C47.6539 47.0076 48.0789 50.4414 46.7568 53.2168C46.3948 53.9694 45.9227 54.6436 45.5135 55.3649C45.1043 56.0862 44.8367 56.7761 44.6478 57.5601C44.4118 58.5009 44.0026 60.3824 42.6018 59.6612C41.8149 59.2535 41.5316 58.4068 41.4844 57.5757C41.4214 56.4938 41.563 55.3962 41.626 54.33C41.6732 53.5774 40.4928 53.5774 40.4456 54.33C40.3197 56.1959 39.816 58.6733 41.3112 60.1629C41.9093 60.7587 42.7592 61.1194 43.6091 60.9626C44.396 60.8058 44.9784 60.21 45.2931 59.5044C45.6079 58.7988 45.7338 58.0618 45.9384 57.3249C46.206 56.3841 46.7883 55.5844 47.2762 54.7534C48.2048 53.2011 48.7242 51.4449 48.7084 49.6261C48.7084 47.6034 48.0631 45.5964 46.867 43.9657C46.6781 43.7148 46.3634 43.5894 46.0643 43.7618C45.8125 43.903 45.6709 44.3106 45.8597 44.5615L45.844 44.5458Z" fill="#231F20"/>
<path d="M48.2364 53.1069C48.2364 53.1069 48.2679 53.1853 48.2836 53.201C48.2836 53.201 48.2207 53.0442 48.2522 53.1226C48.2522 53.1226 48.2522 53.1539 48.2679 53.1696C48.2994 53.248 48.3309 53.3264 48.3466 53.3891C48.3938 53.5302 48.441 53.687 48.4725 53.8438C48.5197 54.0163 48.5512 54.1888 48.5827 54.3613C48.5827 54.4397 48.6142 54.5181 48.6142 54.6121C48.6299 54.7376 48.5984 54.471 48.6142 54.6121C48.6142 54.6592 48.6142 54.7062 48.6299 54.7689C48.6771 55.1453 48.6928 55.5373 48.6928 55.9136C48.6928 56.1017 48.6928 56.3056 48.6614 56.4937C48.6614 56.5878 48.6614 56.6819 48.6299 56.776C48.6299 56.823 48.6299 56.87 48.6142 56.9171C48.5984 57.0739 48.6299 56.7916 48.6142 56.9484C48.5512 57.3091 48.4882 57.6697 48.3623 58.0147C48.3309 58.0931 48.2994 58.1715 48.2836 58.2499C48.2836 58.2655 48.2836 58.2812 48.2679 58.2969C48.2364 58.3753 48.2994 58.2342 48.2994 58.2342C48.2836 58.2812 48.2522 58.3283 48.2364 58.3753C48.1735 58.5164 48.0948 58.6575 48.0003 58.7987C47.9846 58.83 47.9689 58.8457 47.9374 58.8771C48.0318 58.7673 47.8587 59.0025 47.9374 58.8771C47.8902 58.9398 47.843 58.9868 47.7957 59.0338C47.7485 59.0809 47.6856 59.1279 47.6383 59.175C47.78 59.0809 47.5911 59.222 47.6383 59.175C47.6069 59.1906 47.5754 59.222 47.5439 59.2377C47.481 59.269 47.418 59.3004 47.3551 59.3318C47.2764 59.3631 47.5124 59.269 47.3865 59.3318C47.3551 59.3318 47.3078 59.3631 47.2764 59.3631C47.2134 59.3788 47.1347 59.3945 47.0718 59.4102C47.0088 59.4102 47.2449 59.4102 47.0875 59.4102C47.0403 59.4102 46.9931 59.4102 46.9458 59.4102C46.8514 59.4102 46.7727 59.4102 46.6783 59.4102C46.5839 59.4102 46.757 59.4102 46.757 59.4102C46.7255 59.4102 46.694 59.4102 46.6783 59.4102C46.6311 59.4102 46.5681 59.3945 46.5209 59.3788C46.4107 59.3474 46.3006 59.3161 46.2061 59.2847C46.1589 59.269 46.096 59.2377 46.0487 59.222C46.2219 59.269 46.0487 59.222 45.9858 59.1906C45.7025 59.0495 45.4034 58.8143 45.0729 58.8457C44.8841 58.8457 44.7109 58.9398 44.5693 59.0809L44.4749 59.2063C44.5536 59.1122 44.585 59.0809 44.5536 59.1123C44.6165 59.0495 44.7896 58.9868 44.9155 58.9711H45.0415C45.1359 59.0339 45.1674 59.0495 45.1202 59.0182C45.0887 58.9868 45.0415 58.9711 45.01 58.9398C44.7582 58.7516 44.3332 58.8927 44.2073 59.1436C44.0499 59.4572 44.1601 59.7551 44.4119 59.9433C44.7109 60.1628 45.1516 60.2098 45.4034 59.9119C45.4507 59.8649 45.6081 59.6924 45.4192 59.8962C45.4507 59.8649 45.4664 59.8649 45.3877 59.9119C45.2618 59.9903 45.1202 60.0374 44.9785 60.006C45.0572 60.0217 44.9313 59.9746 44.9313 59.9746C44.947 59.9746 45.2461 60.1471 45.2933 60.1628C45.7497 60.398 46.2219 60.5548 46.7255 60.6018C47.481 60.6802 48.2522 60.3666 48.7558 59.7708C49.2752 59.1593 49.5585 58.391 49.7159 57.607C49.8732 56.776 49.9205 55.9136 49.8575 55.0669C49.7946 54.2202 49.6372 53.3264 49.2594 52.5267C49.1335 52.2445 48.7086 52.1504 48.4568 52.3229C48.1735 52.5111 48.1105 52.8246 48.2522 53.1226L48.2364 53.1069Z" fill="#231F20"/>
<path d="M49.7316 57.5444C51.3527 57.0427 52.6117 55.7099 53.1154 54.1105C53.257 53.6715 53.32 53.2011 53.3357 52.7307L52.7377 53.3265C52.7377 53.3265 52.8793 53.3265 52.9423 53.3265C53.0682 53.3265 52.8478 53.3109 52.9108 53.3265C52.9423 53.3265 52.9737 53.3265 53.0052 53.3422C53.0367 53.3422 53.0682 53.3736 53.1154 53.3736L53.0367 53.3422C53.0367 53.3422 53.0682 53.3579 53.0997 53.3736C53.1469 53.4049 53.2098 53.452 53.257 53.4833L53.1941 53.4363C53.1941 53.4363 53.2256 53.4677 53.2413 53.4833C53.2728 53.499 53.2885 53.5304 53.32 53.5461C53.3515 53.5617 53.3672 53.5931 53.383 53.6245C53.4302 53.7185 53.4302 53.6715 53.383 53.6245C53.4144 53.6872 53.4616 53.7342 53.4931 53.7969C53.5089 53.8283 53.5246 53.8597 53.5403 53.891C53.5403 53.9067 53.5561 53.9381 53.5718 53.9537C53.5403 53.8753 53.5246 53.844 53.5403 53.891C53.5561 53.9537 53.5876 54.0165 53.6033 54.0792C53.6033 54.1262 53.619 54.1576 53.6348 54.2046C53.6662 54.3614 53.6348 54.1105 53.6348 54.236C53.6348 54.4085 53.6505 54.5809 53.6348 54.7534C53.6348 54.8004 53.6348 54.8318 53.6348 54.8788C53.6348 55.0513 53.6348 54.9102 53.6348 54.8788C53.6348 54.9572 53.6033 55.0513 53.5875 55.1297C53.5561 55.3179 53.5089 55.4904 53.4616 55.6785C53.3987 55.9764 53.5561 56.3371 53.8708 56.3998C54.1699 56.4625 54.5161 56.3057 54.5948 55.9921C54.7994 55.114 54.9568 54.2046 54.5948 53.3579C54.2801 52.668 53.5246 52.0878 52.7377 52.1819C52.5803 52.1976 52.4386 52.229 52.3127 52.3544C52.1868 52.4798 52.1396 52.6053 52.1396 52.7778C52.1396 52.8718 52.1396 52.9502 52.1396 53.0443C52.1396 53.0913 52.1396 53.1384 52.1396 53.1698C52.1396 53.1854 52.1396 53.2168 52.1396 53.2325C52.1396 53.3422 52.1553 53.1227 52.1396 53.1854C52.1081 53.3579 52.0766 53.5304 52.0294 53.7029C51.9822 53.8753 51.9192 54.0478 51.8563 54.2203C51.8563 54.2203 51.9192 54.0792 51.872 54.1733C51.872 54.1889 51.8563 54.2203 51.8406 54.236C51.8248 54.283 51.8091 54.3144 51.7776 54.3614C51.7461 54.4398 51.6989 54.5182 51.6517 54.5966C51.5573 54.7534 51.4628 54.9102 51.3527 55.0513C51.3369 55.0827 51.3054 55.114 51.2897 55.1454C51.2267 55.2238 51.3212 55.114 51.3212 55.0984C51.3212 55.114 51.2897 55.1297 51.274 55.1454C51.211 55.2238 51.148 55.2865 51.0851 55.3649C50.9592 55.506 50.8333 55.6315 50.6916 55.7412C50.6601 55.7726 50.6287 55.804 50.5972 55.8196C50.5815 55.8353 50.4713 55.9137 50.55 55.851C50.6287 55.7883 50.5028 55.8824 50.487 55.898C50.4398 55.9294 50.4083 55.9608 50.3611 55.9764C50.2037 56.0862 50.0306 56.1803 49.8575 56.2744C49.8103 56.3057 49.763 56.3214 49.7158 56.3371C49.7001 56.3371 49.6686 56.3528 49.6529 56.3684C49.6843 56.3528 49.7788 56.3214 49.6843 56.3684C49.5899 56.3998 49.4955 56.4468 49.3853 56.4782C49.0863 56.5723 48.8659 56.8859 48.9761 57.1995C49.0863 57.5131 49.3853 57.7012 49.7001 57.6071L49.7316 57.5444Z" fill="#231F20"/>
<path d="M49.4324 59.5827C50.4712 59.5514 51.4942 59.2534 52.3756 58.7203C52.6431 58.5635 52.9107 58.3754 53.1468 58.1715C53.2569 58.0774 53.3199 57.8893 53.3199 57.7482C53.3199 57.6071 53.2569 57.4346 53.1468 57.3248C53.0366 57.2151 52.8792 57.1523 52.7218 57.1523C52.5487 57.1523 52.4385 57.2151 52.2969 57.3248C52.2654 57.3562 52.2182 57.3875 52.1867 57.4189L52.3126 57.3248C51.9191 57.6227 51.5099 57.8579 51.0535 58.0618L51.1952 57.999C50.7545 58.1872 50.2823 58.3126 49.8101 58.3754H49.9675C49.7787 58.3754 49.6055 58.391 49.4167 58.4067C49.1019 58.4067 48.8186 58.6733 48.8186 59.0026C48.8186 59.3318 49.0704 59.5984 49.4167 59.5984L49.4324 59.5827Z" fill="#231F20"/>
<path d="M26.3128 21.0732C25.998 21.8729 25.6675 22.7039 25.7304 23.5506C25.7934 24.5385 26.7377 26.2946 27.7922 26.5925C27.8866 26.6239 27.9653 26.6396 28.044 26.6709C28.3745 26.8748 28.2014 27.3765 27.9968 27.6901C26.1869 30.4811 25.5888 34.3697 27.0053 37.4586C27.7765 39.152 29.0985 40.5319 30.2632 42.0058C31.176 43.1661 32.0102 44.4205 33.0962 45.4396C34.1821 46.4588 35.5829 47.2428 37.0623 47.2271C37.8493 47.2271 38.6205 46.9763 39.3917 46.9135C40.6822 46.7881 41.9256 47.1331 43.2004 47.1331C45.2307 47.1331 46.7574 46.1452 47.985 44.64C49.3071 43.0093 50.5662 41.3315 51.7623 39.6068C54.5323 35.6084 55.5868 30.4341 51.7623 26.6396C51.6679 26.5455 51.542 26.42 51.542 26.2789C51.542 26.1535 51.6049 26.028 51.6679 25.9183C52.6437 24.3189 53.6195 23.1743 53.5723 21.1673C53.5408 19.7248 53.1001 18.3136 52.6594 16.9181C52.14 15.2717 51.6049 13.594 50.6763 12.1357C50.6921 12.1671 48.1267 16.1184 47.9221 16.5574C47.5443 17.3728 47.2138 18.2352 46.9463 19.0976C46.7731 19.6307 46.6944 21.1516 46.3482 21.5279C45.7344 22.1865 41.6895 21.3711 40.5721 21.3555C38.5575 21.3398 36.5429 21.4495 34.5441 21.6847C34.0562 20.4617 31.6639 13.0609 29.8855 13.3744C29.0356 13.5156 28.4375 15.7578 28.1857 16.4006C27.682 17.6394 26.3285 19.7404 26.3285 21.0576L26.3128 21.0732Z" fill="#8E887C"/>
<path d="M27.7922 26.6083C27.8866 26.6396 27.9653 26.6553 28.044 26.6867C28.1542 26.7494 28.2014 26.8591 28.2172 26.9689C28.4218 26.7337 28.6264 26.4828 28.831 26.2476C29.2559 25.7459 29.6809 25.1971 29.9327 24.5856C30.2317 23.8016 30.0586 23.0333 29.8697 22.2493C29.1615 19.3642 29.5392 16.4477 29.6494 13.5156C28.9254 13.9703 28.406 15.8519 28.1699 16.4321C27.6663 17.6708 26.3128 19.7719 26.3128 21.089C25.998 21.8886 25.6675 22.7197 25.7304 23.5664C25.7934 24.5542 26.7377 26.3103 27.7922 26.6083Z" fill="#F39B4A"/>
<path d="M46.9777 44.9536C47.0407 44.7968 47.0879 44.64 47.1351 44.4676C47.5758 42.9309 47.7332 40.9083 46.7259 39.5441C45.6085 38.0388 43.6254 37.7723 41.8784 37.6939C38.6519 37.5685 34.6386 37.004 33.285 40.7201C32.262 43.5268 33.5211 47.2743 37.0466 47.2272C37.8335 47.2272 38.6047 46.9763 39.3759 46.9136C40.6665 46.7882 41.9099 47.1331 43.1847 47.1331C45.0104 47.1331 46.3325 46.4903 46.962 44.938L46.9777 44.9536Z" fill="#F39B4A"/>
<path d="M50.2672 16.6987C50.2043 18.643 50.7708 20.5089 50.6921 22.4375C50.6764 23.0177 50.5348 23.6762 50.6292 24.2564C50.7551 24.9149 51.2115 25.4637 51.6837 25.9184C52.6438 24.3348 53.6196 23.1901 53.5723 21.1988C53.5409 19.7563 53.1002 18.3451 52.6595 16.9496C52.2188 15.5227 51.7466 14.0959 51.0227 12.7944C50.582 14.0488 50.2987 15.3502 50.2515 16.6987H50.2672Z" fill="#F39B4A"/>
<path d="M33.9617 37.6935C34.7875 37.6935 35.4569 37.0266 35.4569 36.2039C35.4569 35.3813 34.7875 34.7144 33.9617 34.7144C33.136 34.7144 32.4666 35.3813 32.4666 36.2039C32.4666 37.0266 33.136 37.6935 33.9617 37.6935Z" fill="#231F20"/>
<path d="M46.5999 37.819C47.4257 37.819 48.0951 37.1521 48.0951 36.3294C48.0951 35.5068 47.4257 34.8398 46.5999 34.8398C45.7741 34.8398 45.1047 35.5068 45.1047 36.3294C45.1047 37.1521 45.7741 37.819 46.5999 37.819Z" fill="#231F20"/>
<path d="M40.2887 42.5857C41.8881 42.5857 43.1847 41.7854 43.1847 40.7982C43.1847 39.811 41.8881 39.0107 40.2887 39.0107C38.6894 39.0107 37.3928 39.811 37.3928 40.7982C37.3928 41.7854 38.6894 42.5857 40.2887 42.5857Z" fill="#231F20"/>
<path d="M31.6955 23.2841C34.1665 22.4688 36.7319 22.0141 39.3445 21.967C40.6351 21.9513 41.9414 22.0141 43.232 22.1865C44.5226 22.359 45.8604 22.7353 47.1982 22.6726C47.9536 22.6412 47.9536 21.4653 47.1982 21.4966C45.8289 21.5593 44.4596 21.1517 43.1061 20.9792C41.7525 20.8067 40.5092 20.744 39.2029 20.7753C36.543 20.8381 33.8989 21.2928 31.3807 22.1238C30.6567 22.359 30.9715 23.5036 31.6955 23.2528V23.2841Z" fill="#231F20"/>
<path d="M50.2198 11.5554C48.284 14.5032 46.7573 17.7019 45.6871 21.0574C45.5926 21.3553 45.7972 21.7003 46.0963 21.7787C46.411 21.8728 46.7258 21.6689 46.8203 21.371C47.8747 18.1096 49.3699 15.0207 51.2428 12.1513C51.416 11.8847 51.2901 11.5084 51.0382 11.3516C50.7549 11.1791 50.4087 11.2889 50.2356 11.5554H50.2198Z" fill="#231F20"/>
<path d="M50.4716 11.7278C50.0309 13.7192 49.3542 15.7262 49.5115 17.7959C49.5902 18.8465 49.968 19.8186 50.1096 20.8535C50.2513 21.8256 50.2355 22.8448 50.0624 23.817C50.0152 24.1306 50.1411 24.4442 50.4716 24.5382C50.7549 24.6166 51.1484 24.4442 51.1956 24.1306C51.3687 23.1114 51.4159 22.0765 51.3058 21.0416C51.2428 20.5242 51.1641 20.0068 51.0382 19.4893C50.9123 18.9719 50.7706 18.5172 50.7077 18.0154C50.4873 15.9771 51.1641 14.0014 51.6048 12.0414C51.7779 11.3045 50.629 10.9909 50.4716 11.7278Z" fill="#231F20"/>
<path d="M50.1885 12.0102C50.6449 13.7821 51.4633 15.4284 52.1559 17.1219C52.7539 18.5958 53.352 20.2421 53.1002 21.8728C52.9428 22.8763 52.4864 23.7858 51.8411 24.5541C51.6365 24.805 51.605 25.1499 51.8411 25.3851C52.0457 25.589 52.4706 25.636 52.6752 25.3851C53.3205 24.6011 53.8556 23.7231 54.1232 22.7352C54.3593 21.8728 54.375 20.9791 54.2648 20.101C54.013 18.2351 53.1631 16.4947 52.4392 14.7699C52.0142 13.7664 51.6207 12.7472 51.3374 11.681C51.1486 10.944 50.0154 11.2576 50.2043 11.9946L50.1885 12.0102Z" fill="#231F20"/>
<path d="M29.0041 12.1513C30.877 15.0207 32.3722 18.1096 33.4267 21.371C33.5211 21.6689 33.8359 21.8728 34.1506 21.7787C34.4497 21.7003 34.6543 21.3553 34.5598 21.0574C33.4896 17.7019 31.9472 14.5032 30.0271 11.5554C29.854 11.2889 29.5077 11.1791 29.2244 11.3516C28.9569 11.5084 28.8309 11.8847 29.0198 12.1513H29.0041Z" fill="#231F20"/>
<path d="M28.642 12.0414C29.1299 14.2209 29.2715 16.3847 29.0512 18.6113C28.9882 19.1758 28.9253 19.7089 28.9568 20.2733C28.9882 20.8378 29.0984 21.4023 29.2086 21.9511C29.3974 22.9389 29.6335 23.9738 29.303 24.9616C29.0669 25.6829 30.2001 25.9965 30.4362 25.2752C30.7982 24.1933 30.6093 23.0487 30.4047 21.9668C30.3103 21.4336 30.2001 20.9162 30.1529 20.3831C30.1057 19.7873 30.1844 19.2071 30.2316 18.6113C30.4677 16.275 30.2945 14.0171 29.7752 11.7278C29.6178 10.9909 28.4689 11.3045 28.642 12.0414Z" fill="#231F20"/>
<path d="M28.6421 12.1828C28.2801 14.2055 27.383 16.0714 26.6118 17.953C26.2183 18.9251 25.8406 19.9129 25.573 20.9321C25.2897 22.014 25.0379 23.1586 25.2425 24.2876C25.4314 25.2911 26.0767 26.2476 27.021 26.6866C27.3043 26.8277 27.6505 26.765 27.8237 26.4828C27.9653 26.2319 27.9023 25.8085 27.6191 25.6831C26.6118 25.2127 26.297 24.1622 26.3599 23.1116C26.4386 21.8415 26.8793 20.5558 27.32 19.3798C28.1699 17.1062 29.366 14.9111 29.791 12.5121C29.8539 12.1985 29.7123 11.8849 29.3818 11.7908C29.0985 11.7124 28.705 11.8849 28.6578 12.1985L28.6421 12.1828Z" fill="#231F20"/>
<path d="M28.6892 25.3696C27.7764 27.0944 26.4386 28.5683 25.8405 30.4499C25.2425 32.3315 25.4785 34.3855 25.9979 36.2044C26.2497 37.1295 26.6117 38.0232 27.0682 38.8542C27.5875 39.7794 28.2486 40.6417 28.8624 41.5041C30.09 43.1976 31.3648 45.1262 33.159 46.2865C34.8116 47.3527 36.7947 47.5095 38.6991 47.7133C39.4545 47.7917 39.4545 46.6158 38.6991 46.5374C37.1882 46.3806 35.5671 46.2708 34.1978 45.5338C32.5295 44.6401 31.3648 42.931 30.2631 41.4414C29.1614 39.9518 27.9338 38.3368 27.3042 36.4866C26.7534 34.8559 26.4543 32.99 26.8321 31.2809C27.2728 29.2739 28.7679 27.7373 29.6965 25.9655C30.0428 25.2912 29.0355 24.6954 28.6735 25.3696H28.6892Z" fill="#231F20"/>
<path d="M49.3385 24.1933C50.5819 25.7769 51.778 27.4233 52.7066 29.2265C53.0843 29.9791 53.4306 30.7631 53.5722 31.5941C53.7296 32.5036 53.6824 33.4757 53.5565 34.3851C53.2575 36.3608 52.4705 38.0856 51.3216 39.7163C50.031 41.5508 48.7247 43.5265 47.0249 45.0317C45.5927 46.3018 43.9244 46.5683 42.083 46.6467C41.3275 46.6781 41.3275 47.8541 42.083 47.8227C43.8614 47.7443 45.6084 47.5405 47.0879 46.4743C48.9765 45.1258 50.3773 43.0717 51.6993 41.2059C52.3603 40.2807 53.0529 39.3713 53.5565 38.3364C54.0129 37.3643 54.3749 36.3451 54.5795 35.2946C54.973 33.3503 54.9572 31.3903 54.1703 29.5401C53.2102 27.2822 51.6836 25.2752 50.1884 23.3466C49.7162 22.7507 48.8978 23.5818 49.3542 24.1776L49.3385 24.1933Z" fill="#231F20"/>
<path d="M36.4012 31.2807C36.6688 32.488 35.9448 33.3818 34.4024 32.5194C33.4423 31.9863 32.4036 31.9706 32.4036 31.2807C32.4036 30.5908 33.3007 30.042 34.4024 30.042C35.5041 30.042 36.2438 30.6221 36.4012 31.2807Z" fill="#F39B4A"/>
<path d="M43.2318 31.2807C42.9643 32.488 43.6883 33.3818 45.2306 32.5194C46.1907 31.9863 47.2295 31.9706 47.2295 31.2807C47.2295 30.5908 46.3324 30.042 45.2306 30.042C44.1289 30.042 43.3892 30.6221 43.2318 31.2807Z" fill="#F39B4A"/>
</svg>
