<svg width="80" height="76" viewBox="0 0 80 76" fill="none" xmlns="http://www.w3.org/2000/svg">
<path d="M53.6536 49.9873C53.2758 48.7956 52.7879 47.6353 52.3472 46.6162C52.1112 46.083 51.7964 45.0011 51.3085 44.6562C49.6087 42.0847 46.7285 40.2972 43.6595 39.9522C40.4802 39.5916 37.1751 40.7362 34.9087 42.9784C32.2331 45.644 30.9583 50.2696 31.0527 53.9386C31.1 55.6791 31.4934 57.592 32.8155 58.8464C33.4608 59.4579 34.2634 59.8499 35.1291 60.0381C35.6642 60.1478 36.1521 60.1165 36.6872 60.1321C37.9148 60.1635 39.1267 60.6182 40.3543 60.4614C40.9681 60.383 41.4718 60.1008 42.0856 60.0381C42.7938 59.9597 43.5178 59.8342 44.1788 60.1165C44.588 60.2889 44.8241 60.5712 45.312 60.6966C45.8157 60.8377 46.335 60.8848 46.8544 60.8377C47.5627 60.7907 48.2709 60.5869 48.8847 60.2419C49.5457 59.8813 50.1123 59.7558 50.8363 59.505C55.2117 57.9683 54.8812 53.7975 53.6536 49.9873Z" fill="#EEC688"/>
<path d="M53.653 49.9875C53.2753 48.7958 52.7874 47.6355 52.3467 46.6163C52.0162 45.8637 51.1033 43.1197 50.2692 45.3619C49.9859 46.1459 50.1275 47.024 49.9229 47.8393C49.7026 48.7017 49.1045 49.423 48.4277 49.9718C47.751 50.5206 46.964 50.9753 46.2243 51.4771C45.6577 51.869 45.1068 52.3081 44.8078 52.9353C44.3514 53.9231 45.1069 54.8796 45.1698 55.8988C45.217 56.8395 45.1698 57.7333 44.7134 58.58C44.4616 59.0661 44.0524 59.6149 43.5645 59.9598C43.7691 59.9912 43.9737 60.0225 44.1783 60.1166C44.5875 60.2891 44.8236 60.5713 45.3115 60.6968C45.8151 60.8379 46.3345 60.8849 46.8538 60.8379C47.5621 60.7909 48.2703 60.587 48.8841 60.2421C49.5452 59.8814 50.1118 59.756 50.8357 59.5051C55.2111 57.9685 54.8806 53.7977 53.653 49.9875Z" fill="#888888"/>
<path d="M40.5586 57.5758C40.2595 56.3371 40.7947 55.3022 40.5586 54.1733C40.3225 53.1541 39.3467 52.276 38.5125 51.7116C37.2062 50.8021 36.0573 50.2847 35.1759 48.9362C34.751 48.2777 32.9568 45.6435 33.4761 44.8281C31.7764 47.4937 30.9737 51.0373 31.0366 53.9694C31.0839 55.7099 31.4773 57.6228 32.7994 58.8772C33.4447 59.4887 34.2473 59.8807 35.113 60.0689C35.6481 60.1787 36.136 60.1473 36.6711 60.163C37.8987 60.1943 39.1106 60.649 40.3382 60.4922C40.9048 60.4139 41.377 60.1943 41.9436 60.1003C41.0937 59.6299 40.7789 58.4696 40.5586 57.6072V57.5758Z" fill="#888888"/>
<path d="M51.9848 44.5929C49.9073 41.3158 46.1772 39.2147 42.274 39.2931C38.8902 39.3559 35.4591 40.9866 33.4918 43.7776C32.1697 45.6748 31.3198 47.9641 30.8477 50.2063C30.3755 52.4485 30.1866 54.9416 31.0208 57.1211C31.4457 58.2187 32.1225 59.1908 33.114 59.8494C34.2472 60.602 35.648 60.8215 37.0015 60.7745C37.757 60.7431 37.757 59.5671 37.0015 59.5985C35.0184 59.6926 33.2242 59.0183 32.3271 57.1838C31.43 55.3493 31.5244 53.1854 31.8392 51.2882C32.1855 49.1714 32.878 47.086 33.9639 45.2358C35.3804 42.8054 37.8199 41.2061 40.5899 40.673C44.6033 39.889 48.7898 41.7862 50.9618 45.2201C51.371 45.863 52.394 45.2671 51.9848 44.6243V44.5929Z" fill="#231F20"/>
<path d="M50.9464 45.1113C51.1667 45.2367 51.2926 45.5817 51.4028 45.8012C51.5445 46.1148 51.6389 46.4284 51.7648 46.742C51.9694 47.2437 52.1897 47.7455 52.3786 48.2629C52.8035 49.4075 53.1655 50.5678 53.4174 51.7595C53.8266 53.7038 54.0784 56.1812 52.8508 57.7649C52.0796 58.7527 50.8362 59.1604 49.6086 59.2544C48.8531 59.3172 48.8531 60.4931 49.6086 60.4304C50.9779 60.3207 52.3314 59.9287 53.3544 58.9565C54.2043 58.1412 54.6607 57.0279 54.8338 55.8833C55.2116 53.3118 54.5033 50.6149 53.622 48.2159C53.3859 47.5887 53.1026 46.9301 52.8665 46.3186C52.5517 45.5503 52.3156 44.5468 51.5445 44.0921C50.8834 43.7001 50.3011 44.7193 50.9464 45.1113Z" fill="#231F20"/>
<path d="M33.9797 52.4805C33.9482 53.9544 34.1056 55.4283 34.4519 56.8551C34.6093 57.5451 34.8139 58.2193 35.0814 58.8778C35.349 59.5364 35.6795 60.1479 36.2933 60.5556C36.9071 60.9633 37.5996 61.0103 38.2764 61.1044C38.9532 61.1985 39.7086 61.2612 40.3696 61.026C41.0307 60.7908 41.5501 60.3361 41.8019 59.6932C41.9278 59.3953 41.9435 59.0346 41.8648 58.721C41.7861 58.3761 41.5815 58.1252 41.3927 57.843C41.2982 57.7019 41.2195 57.5607 41.1408 57.4196C41.1408 57.3883 41.1094 57.3569 41.0936 57.3412C41.0464 57.2628 41.0936 57.3412 41.0622 57.2785C41.0307 57.2001 40.9992 57.1217 40.9835 57.0433C40.9362 56.8865 40.889 56.7297 40.8575 56.5729C40.8261 56.4161 40.8261 56.3848 40.8103 56.1809C40.7789 55.5381 40.9205 54.9893 41.2195 54.4561C41.3769 54.1739 41.2825 53.8133 41.0149 53.6565C40.7474 53.4997 40.3696 53.5938 40.2123 53.8603C39.6142 54.8952 39.4725 56.1652 39.8188 57.3099C39.9132 57.6078 40.0234 57.89 40.1808 58.1566C40.3224 58.4075 40.4956 58.6113 40.6372 58.8465C40.6529 58.8778 40.6844 58.9249 40.7002 58.9562C40.7002 58.9876 40.7002 59.0033 40.7159 59.0346C40.7159 59.0346 40.7159 58.9406 40.7159 59.019C40.7159 59.0817 40.7159 59.1444 40.7159 59.2071C40.7159 59.0974 40.7002 59.2542 40.6844 59.2855C40.6844 59.3169 40.6687 59.3326 40.6529 59.3639C40.6215 59.4423 40.59 59.4737 40.5585 59.5364C40.5113 59.6148 40.5742 59.5364 40.5113 59.5991C40.4641 59.6618 40.4011 59.7089 40.3539 59.7559C40.2752 59.8186 40.3696 59.7559 40.291 59.803C40.2437 59.8343 40.1965 59.8657 40.1493 59.8814C40.0863 59.9127 40.1178 59.897 40.0234 59.9284C39.9447 59.9598 39.866 59.9754 39.7873 59.9911C39.5355 60.0381 39.2207 60.0381 38.9217 60.0225C38.7643 60.0225 38.6069 59.9911 38.4495 59.9754C38.3708 59.9754 38.3079 59.9598 38.2292 59.9441C38.182 59.9441 38.1505 59.9441 38.1033 59.9284C38.1662 59.9284 38.0875 59.9284 38.0718 59.9284C37.7885 59.8814 37.4895 59.8343 37.2062 59.7402C37.1747 59.7402 37.1432 59.7246 37.1117 59.7089C37.0645 59.6775 37.0016 59.6462 36.9386 59.6148C36.8127 59.5364 36.7812 59.505 36.6553 59.3796C36.4979 59.2228 36.3563 58.9562 36.2461 58.7054C36.2618 58.7524 36.2146 58.627 36.1989 58.6113C36.1674 58.5329 36.1359 58.4702 36.1202 58.3918C36.0572 58.2193 35.9943 58.0625 35.9471 57.89C35.8526 57.5764 35.7582 57.2628 35.6638 56.9492C35.2703 55.491 35.1129 54.0328 35.1444 52.5118C35.1444 52.1983 34.8611 51.916 34.5463 51.916C34.2315 51.916 33.964 52.1826 33.9482 52.5118L33.9797 52.4805Z" fill="#231F20"/>
<path d="M50.3481 52.7305C50.3796 54.0633 50.2537 55.3648 49.9546 56.6505C49.7972 57.2934 49.6084 57.9362 49.388 58.5634C49.3408 58.6732 49.2779 58.8457 49.2464 58.9241C49.2149 59.0025 49.1205 59.1749 49.0575 59.2847C48.9788 59.4258 48.9473 59.4572 48.8687 59.5513C48.7585 59.6767 48.6955 59.7237 48.6011 59.7865C48.5539 59.8178 48.4909 59.8492 48.428 59.8805C48.3493 59.9276 48.428 59.8805 48.3335 59.9276C48.1919 59.9746 48.0502 60.0217 47.8929 60.053C47.7512 60.0844 47.6096 60.1001 47.4679 60.1314C47.4364 60.1314 47.405 60.1314 47.3735 60.1314C47.4522 60.1314 47.342 60.1314 47.342 60.1314C47.2633 60.1314 47.1846 60.1471 47.1059 60.1628C46.7911 60.1941 46.4606 60.2255 46.1459 60.2255C46.0042 60.2255 45.8783 60.2255 45.7681 60.1941C45.7052 60.1941 45.6265 60.1628 45.5635 60.1471C45.532 60.1471 45.5006 60.1314 45.4691 60.1157L45.4061 60.0844C45.3589 60.053 45.3117 60.0373 45.2645 60.006C45.233 60.006 45.2173 59.9746 45.1858 59.9589C45.1228 59.9119 45.0914 59.8649 45.0441 59.8178C45.0284 59.8021 45.0127 59.7708 44.9812 59.7551C44.9182 59.6924 45.0284 59.8178 44.9812 59.7551C44.9497 59.7081 44.9182 59.6453 44.871 59.5826C44.8238 59.5042 44.871 59.614 44.8395 59.5199C44.8395 59.4729 44.8081 59.4101 44.7923 59.3631C44.8238 59.4729 44.7923 59.3004 44.7923 59.2533C44.7923 59.1436 44.7923 59.3004 44.7923 59.1906C44.7923 59.1906 44.8238 59.0965 44.7923 59.1593C44.7923 59.1279 44.8238 59.0965 44.8395 59.0652C44.9182 58.9241 45.0127 58.8143 45.1071 58.6889C45.2645 58.4537 45.4061 58.2028 45.5163 57.9519C46.0514 56.6975 45.9727 55.2393 45.296 54.0633C45.1386 53.7811 44.7608 53.687 44.4933 53.8595C44.2257 54.032 44.1156 54.3926 44.2887 54.6592C44.3202 54.7219 44.3516 54.7846 44.3989 54.8473C44.3989 54.863 44.4933 55.0355 44.4618 54.9571C44.5248 55.0982 44.572 55.2393 44.6035 55.3961C44.6349 55.5216 44.6664 55.647 44.6822 55.7881C44.6822 55.694 44.6822 55.7881 44.6822 55.8195C44.6822 55.8665 44.6822 55.8979 44.6822 55.9449C44.6822 56.0233 44.6822 56.1017 44.6822 56.1958C44.6822 56.5251 44.6822 56.6662 44.6035 56.9484C44.572 57.0895 44.5248 57.2307 44.4775 57.3561C44.4146 57.5129 44.4146 57.5286 44.3359 57.6854C44.1943 57.9519 44.0054 58.1714 43.848 58.438C43.6749 58.7359 43.5647 59.0809 43.5962 59.4258C43.6591 60.1001 44.0683 60.6802 44.6349 61.0408C45.2487 61.4172 46.0357 61.4642 46.7282 61.4015C47.3735 61.3388 48.0817 61.2917 48.6955 61.0565C49.3723 60.79 49.8759 60.3196 50.1907 59.6767C50.5055 59.0338 50.7258 58.3282 50.9147 57.6383C51.3554 56.0547 51.56 54.3926 51.5285 52.7462C51.5285 52.4326 51.2609 52.1504 50.9304 52.1504C50.5999 52.1504 50.3324 52.4169 50.3324 52.7462L50.3481 52.7305Z" fill="#231F20"/>
<path d="M41.046 60.696C41.1876 60.6803 41.3135 60.6489 41.4552 60.6332H41.2978C42.3208 60.5235 43.3596 60.4764 44.3826 60.5235C44.6974 60.5235 44.9807 60.2412 44.9807 59.9276C44.9807 59.5984 44.7288 59.3632 44.3826 59.3318C43.155 59.2691 41.9431 59.3475 40.7312 59.5356C40.5895 59.5513 40.4479 59.6924 40.3849 59.8022C40.3062 59.9276 40.2748 60.1158 40.322 60.2569C40.3692 60.398 40.4636 60.5392 40.5895 60.6019C40.7312 60.6803 40.8728 60.6803 41.046 60.6646V60.696Z" fill="#231F20"/>
<path d="M24.5361 24.3188C24.6463 21.9982 25.3545 19.6148 26.6451 17.6705C27.1173 16.9493 28.0301 15.491 28.9902 15.5694C29.9503 15.6478 31.1621 17.451 31.65 18.1566C32.075 18.7838 32.4842 20.3831 33.1452 20.7751C33.9636 21.2455 34.908 20.6183 35.7579 20.3988C37.0169 20.0695 38.3075 19.8971 39.5981 20.0852C40.2434 20.1793 40.8887 20.3675 41.534 20.4302C42.1793 20.4772 42.8245 20.4145 43.4698 20.3675C46.1297 20.2263 48.8367 20.8535 51.1661 22.1236C51.4966 20.4302 52.1419 18.8152 53.0862 17.3726C53.9361 16.0555 55.6516 15.2088 56.7848 16.4318C58.1069 17.843 59.1771 20.9633 59.5391 22.8292C59.728 23.7857 59.6965 24.4913 59.3345 25.4007C59.2558 25.5888 58.0596 27.6115 57.9337 27.392C58.9882 29.1482 59.3974 31.2649 59.0827 33.2876C59.004 33.8207 58.8623 34.3382 58.8938 34.8713C58.9567 35.9061 59.7594 36.9881 59.9326 38.0856C60.1844 39.6536 60.1372 41.2686 59.602 42.7582C58.8151 44.9377 56.0923 47.7444 53.4797 46.9918C53.039 46.8663 52.5983 46.6468 52.1419 46.6311C51.3549 46.6311 50.5365 47.6503 49.7024 47.8542C48.5062 48.1521 47.2157 47.4622 46.3343 46.7095C45.2798 47.8385 43.7531 48.5284 42.2107 48.497C41.7386 48.497 38.3862 47.2583 38.4807 47.1799C37.4576 48.011 36.0726 48.3873 34.7663 48.1678C33.46 47.9482 32.8304 46.929 31.713 46.5684C30.8788 46.3019 29.9503 46.6311 29.0846 46.5057C27.0386 46.1764 25.4332 44.4673 24.8509 42.5387C24.2214 40.4376 24.6148 38.1484 25.3545 36.0629C25.4962 35.6709 25.6536 35.2633 25.6536 34.8242C25.6536 34.5106 25.5592 34.2127 25.4805 33.8991C25.1499 32.5036 25.2286 31.0297 25.7008 29.6813C26.11 28.4896 27.0543 27.6742 25.7638 26.7335C25.0398 26.2003 24.5047 25.2282 24.5519 24.3188H24.5361Z" fill="#888888"/>
<path d="M27.4636 26.2785C29.7143 23.4562 30.0605 20.7122 28.9746 17.2626C27.9673 14.0953 26.1888 18.6581 25.6065 19.9125C24.552 22.2331 23.9696 24.8517 25.6852 27.0155C26.4091 27.9249 27.0387 26.8116 27.4636 26.2785Z" fill="#EEC688"/>
<path d="M58.2645 28.0657C58.1543 27.8305 58.0599 27.5953 57.934 27.3758C58.0599 27.5953 59.256 25.5726 59.3347 25.3844C59.6967 24.4593 59.7282 23.7694 59.5393 22.813C59.1773 20.9471 58.1071 17.8268 56.785 16.4156C56.5804 16.1961 56.3444 16.0706 56.1083 15.9766C56.0611 16.0236 55.9981 16.0706 55.9352 16.1334C54.9594 17.1682 54.7233 18.4069 54.739 19.8024C54.7705 21.6527 55.2741 23.4088 55.9981 25.0865C56.6591 26.1214 57.4775 27.0935 58.233 28.0814L58.2645 28.0657Z" fill="#EEC688"/>
<path d="M58.4846 41.6772C56.7691 43.1511 54.424 43.6058 52.4881 42.273C50.568 40.9402 49.3561 38.7921 47.1684 37.8199C47.0268 37.867 46.8851 37.8826 46.712 37.8356C43.4226 37.0516 40.2277 36.3774 37.1271 38.1492C35.8208 38.9018 34.9237 39.8583 33.9636 41.0029C33.2711 41.8183 32.4999 42.5866 31.4769 42.9472C29.242 43.7469 26.1572 42.4298 24.788 40.6109C24.7093 40.5012 24.6148 40.3757 24.5361 40.2346C24.5361 41.0186 24.5991 41.7869 24.8194 42.5395C25.4018 44.4682 27.0071 46.1773 29.0531 46.5065C29.9188 46.6476 30.8474 46.3027 31.6815 46.5693C32.799 46.9299 33.4443 47.9648 34.7348 48.1686C36.0411 48.3724 37.4262 48.0118 38.4492 47.1808C38.3547 47.2592 41.7071 48.4822 42.1793 48.4979C43.7217 48.5292 45.264 47.8236 46.3028 46.7104C47.1842 47.463 48.4748 48.1529 49.6709 47.855C50.505 47.6512 51.3235 46.6163 52.1104 46.632C52.5826 46.632 53.0075 46.8672 53.4482 46.9926C56.0608 47.7452 58.7836 44.9386 59.5706 42.7591C59.9325 41.7556 60.0585 40.705 60.0427 39.6545C59.6178 40.4071 59.1141 41.1284 58.4688 41.6772H58.4846Z" fill="#EEC688"/>
<path d="M35.54 31.8115C35.789 31.018 35.0291 30.0753 33.8427 29.7058C32.6564 29.3363 31.4928 29.68 31.2438 30.4735C30.9948 31.2669 31.7547 32.2097 32.9411 32.5792C34.1275 32.9487 35.291 32.605 35.54 31.8115Z" fill="white"/>
<path d="M49.6689 32.3743C50.8553 32.0048 51.6152 31.062 51.3662 30.2686C51.1172 29.4751 49.9536 29.1314 48.7673 29.5009C47.5809 29.8704 46.821 30.8132 47.07 31.6066C47.3189 32.4001 48.4825 32.7438 49.6689 32.3743Z" fill="white"/>
<path d="M33.5707 38.7119C34.4226 38.7119 35.1131 38.0239 35.1131 37.1753C35.1131 36.3266 34.4226 35.6387 33.5707 35.6387C32.7189 35.6387 32.0283 36.3266 32.0283 37.1753C32.0283 38.0239 32.7189 38.7119 33.5707 38.7119Z" fill="#231F20"/>
<path d="M50.6156 38.1006C51.4675 38.1006 52.158 37.4126 52.158 36.564C52.158 35.7153 51.4675 35.0273 50.6156 35.0273C49.7638 35.0273 49.0732 35.7153 49.0732 36.564C49.0732 37.4126 49.7638 38.1006 50.6156 38.1006Z" fill="#231F20"/>
<path d="M41.9909 41.8797C43.6859 41.8797 45.06 41.0794 45.06 40.0922C45.06 39.105 43.6859 38.3047 41.9909 38.3047C40.2959 38.3047 38.9219 39.105 38.9219 40.0922C38.9219 41.0794 40.2959 41.8797 41.9909 41.8797Z" fill="#231F20"/>
<path d="M31.4618 23.0163C33.6023 21.464 36.3881 20.633 39.0322 20.8211C39.7089 20.8682 40.37 21.0563 41.0467 21.1191C41.8337 21.1975 42.5891 20.9779 43.3603 20.8682C44.7925 20.6643 46.2248 20.7741 47.6098 21.1661C49.1679 21.6051 50.6159 22.3421 52.0796 23.0163C52.7563 23.3299 53.3702 22.3264 52.6777 21.9971C49.9706 20.7271 47.2478 19.41 44.1787 19.5981C43.3603 19.6452 42.5576 19.8647 41.755 19.9274C40.9838 19.9901 40.2441 19.7549 39.4729 19.6608C38.0564 19.4884 36.5927 19.6608 35.2234 19.9901C33.681 20.3821 32.1701 21.025 30.8952 21.9658C30.2814 22.4048 30.8795 23.424 31.4933 22.985L31.4618 23.0163Z" fill="#231F20"/>
<path d="M30.3752 43.2294C30.0919 45.7225 31.9334 48.3253 34.4358 48.7957C36.9383 49.2661 39.3935 47.7922 40.9517 45.9263C41.833 44.8758 42.5255 43.6214 42.8088 42.2729L41.7229 42.414C43.3754 44.6563 45.0752 47.8079 48.1128 48.2783C49.6237 48.5135 51.2133 48.0745 52.3308 47.0239C53.4482 45.9734 54.0305 44.3583 53.8417 42.8374C53.7472 42.1004 52.5668 42.0848 52.6613 42.8374C52.9918 45.5343 50.5365 47.8079 47.8452 47.0239C46.6648 46.679 45.7362 45.7538 44.965 44.8444C44.1624 43.8879 43.4856 42.8374 42.7301 41.8339C42.4626 41.4733 41.7543 41.4262 41.6442 41.975C41.1563 44.4681 39.0315 46.8985 36.5448 47.5727C35.3014 47.9177 33.9794 47.6981 32.9879 46.8514C31.9334 45.9577 31.3668 44.6249 31.5242 43.2451C31.6028 42.4924 30.4224 42.4924 30.3438 43.2451L30.3752 43.2294Z" fill="#231F20"/>
<path d="M38.3705 47.6348C40.0546 49.2969 42.7302 49.5948 44.8392 48.6227C45.4215 48.3561 45.9566 47.9798 46.3816 47.5094C46.6019 47.2899 46.6176 46.8979 46.3816 46.6784C46.1455 46.4589 45.7677 46.4432 45.5474 46.6784C45.4687 46.7725 45.3743 46.8509 45.2956 46.9293C45.2484 46.9763 45.2012 47.0077 45.1539 47.0547C45.1382 47.0547 45.1225 47.0861 45.091 47.1017C44.9808 47.1958 45.1539 47.0704 45.091 47.1017C44.8864 47.2272 44.6818 47.3683 44.4614 47.4937C44.3985 47.5251 44.3513 47.5564 44.2883 47.5721C44.2568 47.5878 44.0837 47.6662 44.2096 47.6035C44.0837 47.6505 43.9735 47.6976 43.8476 47.7289C43.6115 47.8073 43.3755 47.87 43.1236 47.9171C43.0607 47.9171 43.0135 47.9328 42.9505 47.9484C42.919 47.9484 42.8876 47.9484 42.8561 47.9484C42.7302 47.9484 42.6043 47.9641 42.4784 47.9798C42.2265 47.9798 41.9747 47.9798 41.7386 47.9484C41.6914 47.9484 41.5655 47.9328 41.6757 47.9484C41.6127 47.9484 41.5498 47.9328 41.4868 47.9171C41.3609 47.9014 41.235 47.87 41.1091 47.8387C40.9989 47.8073 40.873 47.776 40.7628 47.7446C40.7156 47.7289 40.6527 47.7132 40.6054 47.6976C40.574 47.6976 40.5425 47.6819 40.511 47.6662C40.511 47.6662 40.3694 47.6035 40.4481 47.6348C40.5267 47.6662 40.4323 47.6348 40.4166 47.6192C40.3851 47.6035 40.3379 47.5878 40.3064 47.5721C40.2435 47.5408 40.1805 47.5094 40.1175 47.4781C39.9916 47.4153 39.8815 47.3526 39.7713 47.2742C39.7083 47.2429 39.6454 47.1958 39.5982 47.1488C39.5824 47.1488 39.5667 47.1174 39.5352 47.1017C39.4093 47.0077 39.6296 47.1801 39.5037 47.0704C39.3936 46.9763 39.2834 46.8822 39.189 46.7881C38.9686 46.5686 38.5751 46.5529 38.3548 46.7881C38.1345 47.0233 38.1187 47.384 38.3548 47.6192L38.3705 47.6348Z" fill="#231F20"/>
<path d="M24.568 35.2787C23.5136 38.9634 22.9155 44.2475 26.8659 46.4897C28.0463 47.164 29.3998 47.3992 30.7534 47.211C31.0681 47.164 31.2413 46.772 31.1626 46.4897C31.0681 46.1448 30.7534 46.035 30.4386 46.0821C28.55 46.3329 26.5983 45.3451 25.7012 43.6831C24.8513 42.1308 24.8671 40.1865 25.1032 38.4617C25.2291 37.4895 25.4652 36.5331 25.7327 35.5923C25.9373 34.8553 24.8041 34.5574 24.5995 35.2787H24.568Z" fill="#231F20"/>
<path d="M58.595 35.3569C59.0829 37.2698 59.3662 39.1827 59.1616 41.1741C59.1302 41.5661 59.0515 41.9894 58.9413 42.4441C58.8311 42.8675 58.6895 43.2908 58.5321 43.6044C58.4376 43.7926 58.3432 43.9651 58.2488 44.1376C58.1858 44.2316 58.1386 44.31 58.0757 44.4041C57.9812 44.5296 58.0127 44.4982 57.9183 44.608C57.6507 44.9216 57.3202 45.2351 57.0526 45.4076C56.1398 46.0348 55.101 46.27 53.9836 46.3171C53.2281 46.3484 53.2281 47.5244 53.9836 47.493C55.1325 47.446 56.2814 47.2265 57.2887 46.6463C58.1386 46.1603 58.8311 45.4547 59.319 44.608C60.342 42.8361 60.4837 40.6566 60.3263 38.6653C60.2319 37.4423 60.0115 36.2349 59.7125 35.0433C59.5236 34.3063 58.3904 34.6199 58.5793 35.3569H58.595Z" fill="#231F20"/>
<path d="M35.7899 39.7941C38.4655 37.3637 42.652 37.0188 45.9886 38.1007C46.9486 38.4143 47.8458 38.869 48.6642 39.4492C49.0734 39.7471 49.4668 39.0728 49.0576 38.7749C45.9571 36.517 41.4401 36.125 37.9304 37.5676C36.9388 37.9753 36.026 38.5241 35.239 39.2453C34.8613 39.5903 35.4279 40.1391 35.7899 39.7941Z" fill="#231F20"/>
<path d="M36.8918 26.8588C37.7259 26.7177 38.623 26.6864 39.4572 26.9216C40.1812 27.1254 40.8107 27.5644 41.5662 27.6115C42.4318 27.6742 43.2345 27.2038 44.0214 26.9216C44.9343 26.5923 45.7999 26.6707 46.7442 26.7961C46.9488 26.8275 47.1377 26.5923 47.1377 26.4041C47.1377 26.1689 46.9488 26.0435 46.7442 26.0121C45.7999 25.9024 44.8713 25.8083 43.9427 26.1219C43.1715 26.3885 42.3531 26.9372 41.519 26.8275C41.1884 26.7804 40.8579 26.6393 40.5589 26.4982C40.1812 26.3414 39.8192 26.1846 39.4257 26.0905C38.5286 25.9024 37.6 25.9494 36.6872 26.0905C36.4826 26.1219 36.3567 26.3885 36.4196 26.5766C36.4826 26.7961 36.6872 26.8902 36.9075 26.8432L36.8918 26.8588Z" fill="#231F20"/>
<path d="M25.874 26.0277C25.1972 25.2751 25.0556 24.1461 25.2444 23.1897C25.4648 21.9666 26.0471 20.8377 26.5665 19.7244C26.8498 19.1286 27.1174 18.5171 27.4007 17.9212C27.621 17.4509 27.8571 16.9334 28.3135 16.6355C28.7699 16.3376 29.1162 16.4003 29.5096 16.7139C29.9346 17.0745 30.3281 17.4822 30.6743 17.9212C31.4612 18.8777 32.0278 20.0067 32.3584 21.1983C32.563 21.9196 33.7119 21.6217 33.4915 20.8847C33.1296 19.6303 32.5472 18.4387 31.7445 17.4038C31.3353 16.8707 30.8789 16.3533 30.3595 15.9142C29.7929 15.4125 29.1477 15.1302 28.3765 15.3184C26.9285 15.679 26.3934 17.2627 25.8425 18.47C25.2287 19.8028 24.5047 21.1513 24.1742 22.5781C23.8437 24.005 24.0011 25.6827 25.0556 26.8431C25.5592 27.4075 26.3934 26.5765 25.8897 26.012L25.874 26.0277Z" fill="#231F20"/>
<path d="M28.5819 18.6268C28.6605 18.862 28.7235 19.0972 28.7865 19.3324C28.8022 19.4422 28.8337 19.5363 28.8494 19.646C28.8494 19.7087 28.8651 19.7715 28.8809 19.8342C28.8651 19.6774 28.8809 19.8812 28.8809 19.9126C28.9281 20.3673 28.9281 20.8377 28.8809 21.2924C28.8809 21.3551 28.8809 21.4178 28.8651 21.4806C28.8966 21.3238 28.8651 21.5276 28.8651 21.559C28.8494 21.6687 28.8337 21.7628 28.8022 21.8726C28.755 22.0921 28.692 22.3273 28.6291 22.5311C28.5976 22.6409 28.5504 22.7663 28.5032 22.8761C28.4874 22.9388 28.4559 22.9858 28.4402 23.0485C28.5032 22.9074 28.4402 23.0485 28.4402 23.0799C28.3458 23.2994 28.2199 23.5189 28.094 23.7385C27.9366 24.005 28.031 24.397 28.2986 24.5381C28.5661 24.6792 28.9438 24.6165 29.1012 24.3343C30.1557 22.5468 30.4075 20.3046 29.7465 18.3446C29.6521 18.0467 29.3373 17.8272 29.0225 17.9369C28.7392 18.031 28.5032 18.3446 28.6133 18.6582L28.5819 18.6268Z" fill="#231F20"/>
<path d="M27.5114 25.6198C25.544 27.7522 24.521 30.7157 24.7571 33.6165C24.8201 34.4475 24.9774 35.2472 25.245 36.0312C25.3394 36.3291 25.6542 36.5329 25.969 36.4388C26.268 36.3605 26.4884 36.0155 26.3782 35.7176C25.5598 33.2715 25.8116 30.5119 27.055 28.2383C27.4169 27.5954 27.8419 26.9839 28.3298 26.4508C28.5501 26.2156 28.5659 25.855 28.3298 25.6198C28.1094 25.4003 27.716 25.3846 27.4956 25.6198H27.5114Z" fill="#231F20"/>
<path d="M59.3504 26.8591C60.2633 25.8556 60.5151 24.4758 60.3262 23.1587C60.1216 21.7005 59.4134 20.352 58.7996 19.0349C58.4848 18.3607 58.2015 17.6708 57.8552 17.0122C57.5562 16.4321 57.1313 15.8519 56.5332 15.5383C55.8564 15.1777 55.0695 15.162 54.4242 15.601C53.8891 15.9617 53.4169 16.4634 52.992 16.9652C52.0162 18.1098 51.3079 19.4426 50.883 20.9008C50.6784 21.6378 51.8116 21.9357 52.0162 21.2144C52.331 20.1325 52.8189 19.129 53.4799 18.2196C53.7947 17.7962 54.1566 17.3885 54.5501 17.0279C54.8964 16.6986 55.2426 16.338 55.7463 16.4948C56.2499 16.6516 56.5332 17.1063 56.7693 17.5453C57.0683 18.1098 57.3201 18.7056 57.572 19.2701C58.0913 20.399 58.6894 21.528 59.0042 22.7353C59.2875 23.8329 59.2875 25.15 58.4691 26.0438C57.9654 26.6082 58.7996 27.4393 59.3032 26.8748L59.3504 26.8591Z" fill="#231F20"/>
<path d="M54.6605 18.3133C53.9995 20.2733 54.2356 22.5312 55.3058 24.303C55.4632 24.5696 55.8409 24.6793 56.1085 24.5068C56.376 24.3344 56.4862 23.9894 56.3131 23.7072C56.1872 23.5033 56.077 23.2838 55.9668 23.0486C55.9668 23.0173 55.8881 22.8918 55.9668 23.0173C55.9353 22.9545 55.9196 22.9075 55.9039 22.8448C55.8567 22.735 55.8252 22.6096 55.778 22.4998C55.715 22.2803 55.6521 22.0608 55.6048 21.8413C55.5891 21.7315 55.5576 21.6374 55.5419 21.5277C55.5419 21.4963 55.4947 21.2925 55.5419 21.4493C55.5419 21.3866 55.5419 21.3238 55.5261 21.2611C55.4789 20.8064 55.4789 20.336 55.5261 19.8813C55.5261 19.8499 55.5576 19.6461 55.5261 19.8029C55.5261 19.7402 55.5419 19.6775 55.5576 19.6147C55.5734 19.505 55.5891 19.4109 55.6206 19.3011C55.6678 19.066 55.7465 18.8308 55.8252 18.5956C55.9196 18.2976 55.715 17.937 55.416 17.8743C55.0855 17.7959 54.8022 17.9684 54.692 18.282L54.6605 18.3133Z" fill="#231F20"/>
<path d="M56.0454 26.4508C57.8238 28.3638 58.658 30.998 58.4534 33.5694C58.3904 34.2907 58.233 35.012 57.9969 35.7176C57.9025 36.0155 58.1071 36.3605 58.4062 36.4388C58.7209 36.5329 59.0357 36.3291 59.1301 36.0312C60.0587 33.2715 59.7125 30.1513 58.3117 27.6111C57.9183 26.8899 57.4304 26.2156 56.8638 25.6198C56.6434 25.3846 56.25 25.4003 56.0296 25.6198C55.7935 25.855 55.8093 26.2156 56.0296 26.4508H56.0454Z" fill="#231F20"/>
</svg>
