<svg width="80" height="76" viewBox="0 0 80 76" fill="none" xmlns="http://www.w3.org/2000/svg">
<path d="M51.5688 49.5591C51.1911 48.3674 50.7032 47.2071 50.2625 46.1879C50.0264 45.6548 49.7117 44.5729 49.2238 44.228C47.524 41.6565 44.6438 39.869 41.5747 39.524C38.3955 39.1634 35.0904 40.308 32.824 42.5502C30.1484 45.2158 28.8736 49.8413 28.968 53.5104C29.0152 55.2509 29.4087 57.1638 30.7308 58.4182C31.376 59.0297 32.1787 59.4217 33.0444 59.6098C33.5795 59.7196 34.0674 59.6882 34.6025 59.7039C35.8301 59.7353 37.042 60.19 38.2696 60.0332C38.8834 59.9548 39.3871 59.6726 40.0009 59.6098C40.7091 59.5314 41.4331 59.406 42.0941 59.6882C42.5033 59.8607 42.7394 60.143 43.2273 60.2684C43.731 60.4095 44.2503 60.4565 44.7697 60.4095C45.478 60.3625 46.1862 60.1586 46.8 59.8137C47.461 59.453 48.0276 59.3276 48.7516 59.0767C53.127 57.5401 52.7965 53.3693 51.5688 49.5591Z" fill="#EEC688"/>
<path d="M51.569 49.5592C51.1913 48.3676 50.7034 47.2073 50.2627 46.1881C49.9322 45.4355 49.0193 42.6915 48.1852 44.9337C47.9019 45.7177 48.0435 46.5958 47.8389 47.4111C47.6186 48.2735 47.0205 48.9948 46.3437 49.5436C45.667 50.0924 44.88 50.5471 44.1403 51.0488C43.5737 51.4408 43.0229 51.8799 42.7238 52.507C42.2674 53.4949 43.0229 54.4513 43.0858 55.4705C43.133 56.4113 43.0858 57.3051 42.6294 58.1518C42.3776 58.6379 41.9684 59.1866 41.4805 59.5316C41.6851 59.563 41.8897 59.5943 42.0943 59.6884C42.5035 59.8609 42.7396 60.1431 43.2275 60.2686C43.7311 60.4097 44.2505 60.4567 44.7699 60.4097C45.4781 60.3626 46.1863 60.1588 46.8002 59.8138C47.4612 59.4532 48.0278 59.3278 48.7518 59.0769C53.1271 57.5403 52.7966 53.3694 51.569 49.5592Z" fill="#888888"/>
<path d="M38.4743 57.1481C38.1753 55.9094 38.7104 54.8745 38.4743 53.7456C38.2383 52.7264 37.2625 51.8483 36.4283 51.2838C35.122 50.3744 33.9731 49.857 33.0917 48.5085C32.6668 47.8499 30.8725 45.2157 31.3919 44.4004C29.6921 47.066 28.8895 50.6096 28.9524 53.5417C28.9996 55.2822 29.3931 57.1951 30.7151 58.4495C31.3604 59.061 32.1631 59.453 33.0287 59.6412C33.5639 59.7509 34.0518 59.7196 34.5869 59.7352C35.8145 59.7666 37.0264 60.2213 38.254 60.0645C38.8206 59.9861 39.2928 59.7666 39.8594 59.6725C39.0095 59.2021 38.6947 58.0418 38.4743 57.1794V57.1481Z" fill="#888888"/>
<path d="M49.9005 44.1652C47.823 40.8881 44.093 38.787 40.1898 38.8654C36.8059 38.9281 33.3749 40.5588 31.4075 43.3498C30.0855 45.2471 29.2356 47.5363 28.7634 49.7785C28.2913 52.0208 28.1024 54.5138 28.9366 56.6933C29.3615 57.7909 30.0383 58.7631 31.0298 59.4216C32.163 60.1743 33.5637 60.3938 34.9173 60.3467C35.6727 60.3154 35.6727 59.1394 34.9173 59.1707C32.9342 59.2648 31.14 58.5906 30.2429 56.7561C29.3458 54.9215 29.4402 52.7577 29.755 50.8605C30.1012 48.7437 30.7937 46.6583 31.8797 44.808C33.2962 42.3777 35.7357 40.7783 38.5057 40.2452C42.5191 39.4612 46.7056 41.3585 48.8775 44.7924C49.2867 45.4352 50.3098 44.8394 49.9005 44.1965V44.1652Z" fill="#231F20"/>
<path d="M48.8619 44.6825C49.0822 44.808 49.2082 45.1529 49.3183 45.3725C49.46 45.6861 49.5544 45.9996 49.6803 46.3132C49.8849 46.815 50.1053 47.3168 50.2941 47.8342C50.7191 48.9788 51.0811 50.1391 51.3329 51.3308C51.7421 53.2751 51.9939 55.7525 50.7663 57.3361C49.9951 58.324 48.7517 58.7317 47.5241 58.8257C46.7687 58.8884 46.7687 60.0644 47.5241 60.0017C48.8934 59.892 50.2469 59.5 51.2699 58.5278C52.1198 57.7125 52.5762 56.5992 52.7494 55.4546C53.1271 52.8831 52.4189 50.1862 51.5375 47.7871C51.3014 47.16 51.0181 46.5014 50.782 45.8899C50.4673 45.1216 50.2312 44.1181 49.46 43.6634C48.799 43.2714 48.2166 44.2906 48.8619 44.6825Z" fill="#231F20"/>
<path d="M31.8955 52.0523C31.864 53.5262 32.0214 55.0001 32.3677 56.4269C32.525 57.1168 32.7296 57.7911 32.9972 58.4496C33.2648 59.1082 33.5953 59.7197 34.2091 60.1274C34.8229 60.535 35.5154 60.5821 36.1922 60.6762C36.8689 60.7702 37.6244 60.833 38.2854 60.5978C38.9464 60.3626 39.4658 59.9078 39.7176 59.265C39.8436 58.9671 39.8593 58.6064 39.7806 58.2928C39.7019 57.9479 39.4973 57.697 39.3084 57.4148C39.214 57.2736 39.1353 57.1325 39.0566 56.9914C39.0566 56.96 39.0251 56.9287 39.0094 56.913C38.9622 56.8346 39.0094 56.913 38.9779 56.8503C38.9464 56.7719 38.915 56.6935 38.8992 56.6151C38.852 56.4583 38.8048 56.3015 38.7733 56.1447C38.7418 55.9879 38.7418 55.9565 38.7261 55.7527C38.6946 55.1098 38.8363 54.561 39.1353 54.0279C39.2927 53.7457 39.1983 53.385 38.9307 53.2283C38.6631 53.0715 38.2854 53.1655 38.128 53.4321C37.53 54.467 37.3883 55.737 37.7346 56.8816C37.829 57.1796 37.9392 57.4618 38.0966 57.7284C38.2382 57.9792 38.4113 58.1831 38.553 58.4183C38.5687 58.4496 38.6002 58.4967 38.6159 58.528C38.6159 58.5594 38.6159 58.5751 38.6317 58.6064C38.6317 58.6064 38.6317 58.5123 38.6317 58.5907C38.6317 58.6535 38.6317 58.7162 38.6317 58.7789C38.6317 58.6691 38.6159 58.8259 38.6002 58.8573C38.6002 58.8887 38.5845 58.9043 38.5687 58.9357C38.5372 59.0141 38.5058 59.0455 38.4743 59.1082C38.4271 59.1866 38.49 59.1082 38.4271 59.1709C38.3799 59.2336 38.3169 59.2807 38.2697 59.3277C38.191 59.3904 38.2854 59.3277 38.2067 59.3747C38.1595 59.4061 38.1123 59.4374 38.0651 59.4531C38.0021 59.4845 38.0336 59.4688 37.9392 59.5002C37.8605 59.5315 37.7818 59.5472 37.7031 59.5629C37.4513 59.6099 37.1365 59.6099 36.8375 59.5942C36.6801 59.5942 36.5227 59.5629 36.3653 59.5472C36.2866 59.5472 36.2236 59.5315 36.145 59.5158C36.0977 59.5158 36.0663 59.5159 36.019 59.5002C36.082 59.5002 36.0033 59.5002 35.9876 59.5002C35.7043 59.4531 35.4052 59.4061 35.1219 59.312C35.0905 59.312 35.059 59.2963 35.0275 59.2807C34.9803 59.2493 34.9173 59.2179 34.8544 59.1866C34.7285 59.1082 34.697 59.0768 34.5711 58.9514C34.4137 58.7946 34.272 58.528 34.1619 58.2771C34.1776 58.3242 34.1304 58.1987 34.1147 58.1831C34.0832 58.1047 34.0517 58.042 34.036 57.9636C33.973 57.7911 33.91 57.6343 33.8628 57.4618C33.7684 57.1482 33.674 56.8346 33.5795 56.521C33.1861 55.0628 33.0287 53.6046 33.0602 52.0836C33.0602 51.77 32.7769 51.4878 32.4621 51.4878C32.1473 51.4878 31.8798 51.7544 31.864 52.0836L31.8955 52.0523Z" fill="#231F20"/>
<path d="M48.2639 52.3033C48.2953 53.6361 48.1694 54.9375 47.8704 56.2233C47.713 56.8661 47.5241 57.509 47.3038 58.1362C47.2566 58.2459 47.1936 58.4184 47.1622 58.4968C47.1307 58.5752 47.0362 58.7477 46.9733 58.8575C46.8946 58.9986 46.8631 59.0299 46.7844 59.124C46.6743 59.2495 46.6113 59.2965 46.5169 59.3592C46.4697 59.3906 46.4067 59.4219 46.3437 59.4533C46.265 59.5003 46.3437 59.4533 46.2493 59.5003C46.1077 59.5474 45.966 59.5944 45.8086 59.6258C45.667 59.6571 45.5253 59.6728 45.3837 59.7042C45.3522 59.7042 45.3207 59.7042 45.2892 59.7042C45.3679 59.7042 45.2578 59.7042 45.2578 59.7042C45.1791 59.7042 45.1004 59.7198 45.0217 59.7355C44.7069 59.7669 44.3764 59.7982 44.0616 59.7982C43.92 59.7982 43.7941 59.7982 43.6839 59.7669C43.6209 59.7669 43.5422 59.7355 43.4793 59.7198C43.4478 59.7198 43.4163 59.7042 43.3849 59.6885L43.3219 59.6571C43.2747 59.6258 43.2275 59.6101 43.1803 59.5787C43.1488 59.5787 43.133 59.5474 43.1016 59.5317C43.0386 59.4847 43.0071 59.4376 42.9599 59.3906C42.9442 59.3749 42.9284 59.3435 42.897 59.3279C42.9442 59.3906 42.834 59.2651 42.897 59.3279C42.8655 59.2808 42.834 59.2181 42.7868 59.1554C42.7396 59.077 42.7868 59.1867 42.7553 59.0927C42.7553 59.0456 42.7238 58.9829 42.7081 58.9359C42.7396 59.0456 42.7081 58.8731 42.7081 58.8261C42.7081 58.7163 42.7081 58.8731 42.7081 58.7634C42.7081 58.7634 42.7396 58.6693 42.7081 58.732C42.7081 58.7007 42.7396 58.6693 42.7553 58.6379C42.834 58.4968 42.9284 58.3871 43.0229 58.2616C43.1803 58.0264 43.3219 57.7755 43.4321 57.5247C43.9672 56.2703 43.8885 54.8121 43.2117 53.6361C43.0543 53.3538 42.6766 53.2598 42.4091 53.4322C42.1415 53.6047 42.0313 53.9654 42.2045 54.2319C42.2359 54.2946 42.2674 54.3574 42.3146 54.4201C42.3146 54.4358 42.4091 54.6082 42.3776 54.5298C42.4405 54.6709 42.4878 54.8121 42.5192 54.9689C42.5507 55.0943 42.5822 55.2197 42.5979 55.3609C42.5979 55.2668 42.5979 55.3609 42.5979 55.3922C42.5979 55.4393 42.5979 55.4706 42.5979 55.5177C42.5979 55.5961 42.5979 55.6745 42.5979 55.7685C42.5979 56.0978 42.5979 56.2389 42.5192 56.5212C42.4878 56.6623 42.4405 56.8034 42.3933 56.9288C42.3304 57.0856 42.3304 57.1013 42.2517 57.2581C42.11 57.5247 41.9212 57.7442 41.7638 58.0107C41.5906 58.3087 41.4805 58.6536 41.512 58.9986C41.5749 59.6728 41.9841 60.253 42.5507 60.6136C43.1645 60.9899 43.9515 61.0369 44.644 60.9742C45.2892 60.9115 45.9975 60.8645 46.6113 60.6293C47.2881 60.3627 47.7917 59.8923 48.1065 59.2495C48.4213 58.6066 48.6416 57.901 48.8305 57.2111C49.2711 55.6274 49.4758 53.9654 49.4443 52.319C49.4443 52.0054 49.1767 51.7231 48.8462 51.7231C48.5157 51.7231 48.2481 51.9897 48.2481 52.319L48.2639 52.3033Z" fill="#231F20"/>
<path d="M38.9622 60.2682C39.1039 60.2525 39.2298 60.2212 39.3714 60.2055H39.214C40.2371 60.0957 41.2758 60.0487 42.2988 60.0957C42.6136 60.0957 42.8969 59.8135 42.8969 59.4999C42.8969 59.1706 42.6451 58.9354 42.2988 58.9041C41.0712 58.8414 39.8593 58.9198 38.6475 59.1079C38.5058 59.1236 38.3642 59.2647 38.3012 59.3745C38.2225 59.4999 38.191 59.6881 38.2382 59.8292C38.2855 59.9703 38.3799 60.1114 38.5058 60.1741C38.6475 60.2525 38.7891 60.2525 38.9622 60.2369V60.2682Z" fill="#231F20"/>
<path d="M22.4524 23.891C22.5626 21.5704 23.2708 19.1871 24.5614 17.2428C25.0335 16.5215 25.9464 15.0633 26.9065 15.1417C27.8665 15.2201 29.0784 17.0233 29.5663 17.7289C29.9912 18.3561 30.4005 19.9554 31.0615 20.3474C31.8799 20.8178 32.8242 20.1906 33.6741 19.9711C34.9332 19.6418 36.2238 19.4693 37.5144 19.6575C38.1597 19.7516 38.8049 19.9397 39.4502 20.0024C40.0955 20.0495 40.7408 19.9868 41.3861 19.9397C44.0459 19.7986 46.753 20.4258 49.0823 21.6959C49.4128 20.0024 50.0581 18.3874 51.0025 16.9449C51.8524 15.6278 53.5679 14.7811 54.7011 16.0041C56.0231 17.4153 57.0934 20.5356 57.4553 22.4015C57.6442 23.3579 57.6127 24.0635 57.2507 24.9729C57.172 25.1611 55.9759 27.1838 55.85 26.9643C56.9045 28.7204 57.3137 30.8372 56.9989 32.8599C56.9202 33.393 56.7786 33.9104 56.8101 34.4435C56.873 35.4784 57.6757 36.5603 57.8488 37.6579C58.1006 39.2259 58.0534 40.8409 57.5183 42.3305C56.7314 44.51 54.0086 47.3167 51.3959 46.564C50.9552 46.4386 50.5146 46.2191 50.0581 46.2034C49.2712 46.2034 48.4528 47.2226 47.6186 47.4264C46.4225 47.7243 45.1319 47.0344 44.2505 46.2818C43.196 47.4107 41.6694 48.1007 40.127 48.0693C39.6548 48.0693 36.3025 46.8306 36.3969 46.7522C35.3739 47.5832 33.9889 47.9595 32.6826 47.74C31.3763 47.5205 30.7467 46.5013 29.6293 46.1407C28.7951 45.8741 27.8665 46.2034 27.0009 46.078C24.9549 45.7487 23.3495 44.0396 22.7672 42.111C22.1376 40.0099 22.5311 37.7206 23.2708 35.6352C23.4125 35.2432 23.5698 34.8355 23.5698 34.3965C23.5698 34.0829 23.4754 33.785 23.3967 33.4714C23.0662 32.0759 23.1449 30.602 23.6171 29.2535C24.0263 28.0619 24.9706 27.2465 23.68 26.3057C22.956 25.7726 22.4209 24.8005 22.4681 23.891H22.4524Z" fill="#888888"/>
<path d="M25.3799 25.8508C27.6305 23.0284 27.9768 20.2845 26.8908 16.8349C25.8835 13.6676 24.1051 18.2304 23.5227 19.4848C22.4682 21.8054 21.8859 24.4239 23.6014 26.5877C24.3254 27.4972 24.9549 26.3839 25.3799 25.8508Z" fill="#EEC688"/>
<path d="M56.1805 27.6384C56.0703 27.4032 55.9759 27.168 55.85 26.9485C55.9759 27.168 57.172 25.1454 57.2507 24.9572C57.6127 24.0321 57.6442 23.3422 57.4553 22.3857C57.0933 20.5198 56.0231 17.3995 54.7011 15.9884C54.4965 15.7688 54.2604 15.6434 54.0243 15.5493C53.9771 15.5964 53.9141 15.6434 53.8512 15.7061C52.8754 16.741 52.6393 17.9797 52.655 19.3752C52.6865 21.2254 53.1901 22.9815 53.9141 24.6593C54.5752 25.6941 55.3936 26.6663 56.149 27.6541L56.1805 27.6384Z" fill="#EEC688"/>
<path d="M56.4008 41.2484C54.6853 42.7223 52.3403 43.1771 50.4044 41.8443C48.4843 40.5115 47.2724 38.3634 45.0847 37.3912C44.943 37.4383 44.8014 37.4539 44.6283 37.4069C41.3389 36.6229 38.1439 35.9487 35.0434 37.7205C33.7371 38.4731 32.84 39.4296 31.8799 40.5742C31.1874 41.3896 30.4162 42.1579 29.3932 42.5185C27.1583 43.3182 24.0735 42.0011 22.7042 40.1822C22.6255 40.0725 22.5311 39.947 22.4524 39.8059C22.4524 40.5899 22.5153 41.3582 22.7357 42.1108C23.318 44.0394 24.9234 45.7485 26.9694 46.0778C27.835 46.2189 28.7636 45.874 29.5978 46.1405C30.7152 46.5012 31.3605 47.536 32.6511 47.7399C33.9574 47.9437 35.3424 47.5831 36.3654 46.7521C36.271 46.8305 39.6234 48.0535 40.0955 48.0692C41.6379 48.1005 43.1803 47.3949 44.2191 46.2817C45.1004 47.0343 46.391 47.7242 47.5872 47.4263C48.4213 47.2224 49.2397 46.1876 50.0267 46.2033C50.4988 46.2033 50.9238 46.4385 51.3644 46.5639C53.9771 47.3165 56.6999 44.5098 57.4868 42.3303C57.8488 41.3268 57.9747 40.2763 57.959 39.2257C57.534 39.9784 57.0304 40.6996 56.3851 41.2484H56.4008Z" fill="#EEC688"/>
<path d="M33.4565 31.3843C33.7055 30.5908 32.9456 29.648 31.7592 29.2785C30.5729 28.9091 29.4093 29.2528 29.1603 30.0462C28.9113 30.8397 29.6712 31.7824 30.8576 32.1519C32.044 32.5214 33.2076 32.1777 33.4565 31.3843Z" fill="white"/>
<path d="M47.5856 31.9466C48.772 31.5771 49.5319 30.6343 49.2829 29.8408C49.034 29.0474 47.8704 28.7037 46.684 29.0732C45.4976 29.4427 44.7377 30.3854 44.9867 31.1789C45.2357 31.9723 46.3993 32.316 47.5856 31.9466Z" fill="white"/>
<path d="M31.4865 38.2847C32.3383 38.2847 33.0289 37.5967 33.0289 36.748C33.0289 35.8994 32.3383 35.2114 31.4865 35.2114C30.6346 35.2114 29.9441 35.8994 29.9441 36.748C29.9441 37.5967 30.6346 38.2847 31.4865 38.2847Z" fill="#231F20"/>
<path d="M48.5317 37.6733C49.3835 37.6733 50.074 36.9854 50.074 36.1367C50.074 35.2881 49.3835 34.6001 48.5317 34.6001C47.6798 34.6001 46.9893 35.2881 46.9893 36.1367C46.9893 36.9854 47.6798 37.6733 48.5317 37.6733Z" fill="#231F20"/>
<path d="M39.9067 41.4519C41.6017 41.4519 42.9758 40.6517 42.9758 39.6644C42.9758 38.6772 41.6017 37.877 39.9067 37.877C38.2117 37.877 36.8376 38.6772 36.8376 39.6644C36.8376 40.6517 38.2117 41.4519 39.9067 41.4519Z" fill="#231F20"/>
<path d="M29.3774 22.5896C31.5178 21.0373 34.3036 20.2062 36.9477 20.3944C37.6245 20.4414 38.2855 20.6296 38.9623 20.6923C39.7492 20.7707 40.5046 20.5512 41.2758 20.4414C42.7081 20.2376 44.1403 20.3473 45.5253 20.7393C47.0834 21.1784 48.5314 21.9153 49.9951 22.5896C50.6719 22.9032 51.2857 21.8996 50.5932 21.5704C47.8861 20.3003 45.1633 18.9832 42.0943 19.1714C41.2758 19.2184 40.4732 19.4379 39.6705 19.5006C38.8993 19.5634 38.1596 19.3282 37.3884 19.2341C35.9719 19.0616 34.5082 19.2341 33.1389 19.5634C31.5965 19.9553 30.0856 20.5982 28.8108 21.539C28.197 21.978 28.795 22.9972 29.4088 22.5582L29.3774 22.5896Z" fill="#231F20"/>
<path d="M28.2915 42.8007C28.0082 45.2938 29.8496 47.8966 32.3521 48.367C34.8545 48.8374 37.3098 47.3635 38.8679 45.4976C39.7493 44.4471 40.4418 43.1927 40.7251 41.8442L39.6391 41.9853C41.2917 44.2275 42.9915 47.3792 46.029 47.8496C47.54 48.0848 49.1296 47.6457 50.247 46.5952C51.3645 45.5446 51.9468 43.9296 51.7579 42.4087C51.6635 41.6717 50.4831 41.6561 50.5775 42.4087C50.908 45.1056 48.4528 47.3792 45.7615 46.5952C44.5811 46.2502 43.6525 45.3251 42.8813 44.4157C42.0786 43.4592 41.4019 42.4087 40.6464 41.4052C40.3788 41.0445 39.6706 40.9975 39.5604 41.5463C39.0725 44.0394 36.9478 46.4698 34.4611 47.144C33.2177 47.4889 31.8957 47.2694 30.9041 46.4227C29.8496 45.529 29.283 44.1962 29.4404 42.8164C29.5191 42.0637 28.3387 42.0637 28.26 42.8164L28.2915 42.8007Z" fill="#231F20"/>
<path d="M36.2868 47.2066C37.9708 48.8687 40.6464 49.1666 42.7554 48.1945C43.3378 47.9279 43.8729 47.5516 44.2978 47.0812C44.5182 46.8617 44.5339 46.4697 44.2978 46.2502C44.0617 46.0306 43.684 46.015 43.4637 46.2502C43.385 46.3442 43.2905 46.4226 43.2118 46.501C43.1646 46.5481 43.1174 46.5794 43.0702 46.6265C43.0545 46.6265 43.0387 46.6578 43.0072 46.6735C43.0702 46.6422 42.8971 46.7676 43.0072 46.6735C42.8026 46.799 42.598 46.9401 42.3777 47.0655C42.3147 47.0969 42.2675 47.1282 42.2046 47.1439C42.1731 47.1596 42 47.238 42.1259 47.1753C42 47.2223 41.8898 47.2693 41.7639 47.3007C41.5278 47.3791 41.2917 47.4418 41.0399 47.4889C40.9769 47.4889 40.9297 47.5045 40.8668 47.5202C40.8353 47.5202 40.8038 47.5202 40.7723 47.5202C40.6464 47.5202 40.5205 47.5359 40.3946 47.5516C40.1428 47.5516 39.891 47.5516 39.6549 47.5202C39.6077 47.5202 39.4818 47.5045 39.5919 47.5202C39.529 47.5202 39.466 47.5045 39.4031 47.4889C39.2772 47.4732 39.1513 47.4418 39.0253 47.4105C38.9152 47.3791 38.7893 47.3477 38.6791 47.3164C38.6319 47.3007 38.5689 47.285 38.5217 47.2693C38.4902 47.2693 38.4587 47.2537 38.4273 47.238C38.4273 47.238 38.2856 47.1753 38.3643 47.2066C38.443 47.238 38.3486 47.2066 38.3328 47.1909C38.3014 47.1753 38.2541 47.1596 38.2227 47.1439C38.1597 47.1125 38.0968 47.0812 38.0338 47.0498C37.9079 46.9871 37.7977 46.9244 37.6875 46.846C37.6246 46.8146 37.5616 46.7676 37.5144 46.7206C37.4987 46.7206 37.4829 46.6892 37.4515 46.6735C37.3256 46.5794 37.5459 46.7519 37.42 46.6422C37.3098 46.5481 37.1996 46.454 37.1052 46.3599C36.8849 46.1404 36.4914 46.1247 36.2711 46.3599C36.0507 46.5951 36.035 46.9557 36.2711 47.1909L36.2868 47.2066Z" fill="#231F20"/>
<path d="M22.4838 34.8509C21.4293 38.5357 20.8313 43.8198 24.7817 46.062C25.9621 46.7362 27.3156 46.9714 28.6691 46.7833C28.9839 46.7362 29.157 46.3442 29.0784 46.062C28.9839 45.717 28.6691 45.6073 28.3544 45.6543C26.4657 45.9052 24.5141 44.9174 23.617 43.2553C22.7671 41.703 22.7829 39.7587 23.0189 38.0339C23.1448 37.0618 23.3809 36.1053 23.6485 35.1645C23.8531 34.4276 22.7199 34.1297 22.5153 34.8509H22.4838Z" fill="#231F20"/>
<path d="M56.5111 34.9296C56.999 36.8426 57.2823 38.7555 57.0776 40.7468C57.0462 41.1388 56.9675 41.5622 56.8573 42.0169C56.7471 42.4402 56.6055 42.8636 56.4481 43.1772C56.3537 43.3654 56.2592 43.5378 56.1648 43.7103C56.1018 43.8044 56.0546 43.8828 55.9917 43.9769C55.8972 44.1023 55.9287 44.0709 55.8343 44.1807C55.5667 44.4943 55.2362 44.8079 54.9687 44.9804C54.0558 45.6076 53.0171 45.8428 51.8996 45.8898C51.1441 45.9212 51.1441 47.0972 51.8996 47.0658C53.0485 47.0188 54.1975 46.7992 55.2047 46.2191C56.0546 45.733 56.7471 45.0274 57.235 44.1807C58.2581 42.4089 58.3997 40.2294 58.2423 38.2381C58.1479 37.015 57.9275 35.8077 57.6285 34.616C57.4396 33.8791 56.3065 34.1927 56.4953 34.9296H56.5111Z" fill="#231F20"/>
<path d="M33.7057 39.3669C36.3812 36.9365 40.5677 36.5915 43.9044 37.6735C44.8644 37.987 45.7615 38.4418 46.5799 39.0219C46.9891 39.3198 47.3826 38.6456 46.9734 38.3477C43.8729 36.0898 39.3559 35.6978 35.8461 37.1403C34.8546 37.548 33.9417 38.0968 33.1548 38.8181C32.7771 39.163 33.3437 39.7118 33.7057 39.3669Z" fill="#231F20"/>
<path d="M34.8073 26.4311C35.6415 26.29 36.5386 26.2586 37.3727 26.4938C38.0967 26.6977 38.7262 27.1367 39.4817 27.1837C40.3473 27.2465 41.15 26.7761 41.9369 26.4938C42.8498 26.1646 43.7154 26.243 44.6598 26.3684C44.8644 26.3998 45.0532 26.1646 45.0532 25.9764C45.0532 25.7412 44.8644 25.6158 44.6598 25.5844C43.7154 25.4746 42.7868 25.3806 41.8583 25.6942C41.0871 25.9607 40.2686 26.5095 39.4345 26.3998C39.104 26.3527 38.7735 26.2116 38.4744 26.0705C38.0967 25.9137 37.7347 25.7569 37.3412 25.6628C36.4441 25.4746 35.5155 25.5217 34.6027 25.6628C34.3981 25.6942 34.2722 25.9607 34.3351 26.1489C34.3981 26.3684 34.6027 26.4625 34.823 26.4154L34.8073 26.4311Z" fill="#231F20"/>
<path d="M23.7903 25.6C23.1135 24.8473 22.9718 23.7184 23.1607 22.7619C23.3811 21.5389 23.9634 20.41 24.4828 19.2967C24.7661 18.7009 25.0336 18.0893 25.3169 17.4935C25.5373 17.0231 25.7733 16.5057 26.2298 16.2078C26.6862 15.9099 27.0324 15.9726 27.4259 16.2862C27.8508 16.6468 28.2443 17.0545 28.5906 17.4935C29.3775 18.45 29.9441 19.5789 30.2746 20.7706C30.4792 21.4919 31.6281 21.1939 31.4078 20.457C31.0458 19.2026 30.4635 18.0109 29.6608 16.9761C29.2516 16.443 28.7952 15.9255 28.2758 15.4865C27.7092 14.9847 27.0639 14.7025 26.2927 14.8907C24.8448 15.2513 24.3096 16.835 23.7588 18.0423C23.145 19.3751 22.421 20.7236 22.0905 22.1504C21.76 23.5773 21.9173 25.255 22.9718 26.4153C23.4755 26.9798 24.3096 26.1488 23.806 25.5843L23.7903 25.6Z" fill="#231F20"/>
<path d="M26.4971 18.1991C26.5758 18.4343 26.6388 18.6695 26.7017 18.9047C26.7175 19.0145 26.749 19.1085 26.7647 19.2183C26.7647 19.281 26.7804 19.3437 26.7962 19.4065C26.7804 19.2497 26.7962 19.4535 26.7962 19.4849C26.8434 19.9396 26.8434 20.41 26.7962 20.8647C26.7962 20.9274 26.7962 20.9901 26.7804 21.0528C26.8119 20.896 26.7804 21.0999 26.7804 21.1312C26.7647 21.241 26.749 21.3351 26.7175 21.4448C26.6703 21.6643 26.6073 21.8995 26.5444 22.1034C26.5129 22.2131 26.4657 22.3386 26.4184 22.4483C26.4027 22.5111 26.3712 22.5581 26.3555 22.6208C26.4184 22.4797 26.3555 22.6208 26.3555 22.6522C26.2611 22.8717 26.1351 23.0912 26.0092 23.3107C25.8518 23.5773 25.9463 23.9693 26.2138 24.1104C26.4814 24.2515 26.8591 24.1888 27.0165 23.9066C28.071 22.1191 28.3228 19.8768 27.6618 17.9169C27.5674 17.619 27.2526 17.3994 26.9378 17.5092C26.6545 17.6033 26.4184 17.9169 26.5286 18.2305L26.4971 18.1991Z" fill="#231F20"/>
<path d="M25.4269 25.1921C23.4596 27.3245 22.4365 30.288 22.6726 33.1888C22.7356 34.0198 22.893 34.8195 23.1605 35.6034C23.255 35.9014 23.5697 36.1052 23.8845 36.0111C24.1835 35.9327 24.4039 35.5878 24.2937 35.2898C23.4753 32.8438 23.7271 30.0842 24.9705 27.8106C25.3325 27.1677 25.7574 26.5562 26.2453 26.0231C26.4657 25.7879 26.4814 25.4272 26.2453 25.1921C26.025 24.9725 25.6315 24.9569 25.4112 25.1921H25.4269Z" fill="#231F20"/>
<path d="M57.2664 26.4309C58.1793 25.4274 58.4311 24.0476 58.2423 22.7305C58.0376 21.2722 57.3294 19.9238 56.7156 18.6067C56.4008 17.9324 56.1175 17.2425 55.7713 16.584C55.4722 16.0038 55.0473 15.4237 54.4492 15.1101C53.7724 14.7494 52.9855 14.7338 52.3402 15.1728C51.8051 15.5334 51.3329 16.0352 50.908 16.5369C49.9322 17.6816 49.224 19.0144 48.799 20.4726C48.5944 21.2095 49.7276 21.5074 49.9322 20.7862C50.247 19.7043 50.7349 18.7008 51.3959 17.7913C51.7107 17.368 52.0727 16.9603 52.4661 16.5997C52.8124 16.2704 53.1586 15.9098 53.6623 16.0666C54.1659 16.2234 54.4492 16.6781 54.6853 17.1171C54.9843 17.6816 55.2362 18.2774 55.488 18.8419C56.0074 19.9708 56.6054 21.0998 56.9202 22.3071C57.2035 23.4047 57.2035 24.7218 56.3851 25.6156C55.8814 26.18 56.7156 27.0111 57.2192 26.4466L57.2664 26.4309Z" fill="#231F20"/>
<path d="M52.5763 17.8856C51.9153 19.8456 52.1513 22.1035 53.2216 23.8753C53.379 24.1418 53.7567 24.2516 54.0242 24.0791C54.2918 23.9066 54.402 23.5617 54.2288 23.2794C54.1029 23.0756 53.9928 22.8561 53.8826 22.6209C53.8826 22.5895 53.8039 22.4641 53.8826 22.5895C53.8511 22.5268 53.8354 22.4798 53.8196 22.417C53.7724 22.3073 53.7409 22.1819 53.6937 22.0721C53.6308 21.8526 53.5678 21.6331 53.5206 21.4135C53.5049 21.3038 53.4734 21.2097 53.4577 21.0999C53.4577 21.0686 53.4104 20.8647 53.4577 21.0215C53.4577 20.9588 53.4576 20.8961 53.4419 20.8334C53.3947 20.3787 53.3947 19.9083 53.4419 19.4536C53.4419 19.4222 53.4734 19.2184 53.4419 19.3752C53.4419 19.3124 53.4576 19.2497 53.4734 19.187C53.4891 19.0773 53.5049 18.9832 53.5363 18.8734C53.5836 18.6382 53.6623 18.403 53.7409 18.1678C53.8354 17.8699 53.6308 17.5093 53.3317 17.4466C53.0012 17.3682 52.7179 17.5406 52.6078 17.8542L52.5763 17.8856Z" fill="#231F20"/>
<path d="M53.9614 26.0231C55.7398 27.936 56.574 30.5702 56.3694 33.1417C56.3064 33.863 56.149 34.5843 55.913 35.2898C55.8185 35.5878 56.0231 35.9327 56.3222 36.0111C56.637 36.1052 56.9517 35.9014 57.0462 35.6034C57.9747 32.8438 57.6285 29.7235 56.2277 27.1834C55.8343 26.4621 55.3464 25.7879 54.7798 25.1921C54.5594 24.9569 54.166 24.9725 53.9456 25.1921C53.7095 25.4272 53.7253 25.7879 53.9456 26.0231H53.9614Z" fill="#231F20"/>
</svg>
