<svg width="80" height="76" viewBox="0 0 80 76" fill="none" xmlns="http://www.w3.org/2000/svg">
<path d="M25.9246 21.1731C25.6727 22.6 25.5783 24.0425 25.6413 25.4851C24.4766 25.5478 23.2805 25.8614 22.4148 26.6454C21.5492 27.4294 21.1243 28.7465 21.6279 29.797C21.7066 29.9538 21.801 30.1263 21.8168 30.2988C21.8168 30.9103 20.2901 32.3999 19.9596 33.0114C19.4087 34.0149 18.9838 35.0654 18.6847 36.163C18.4172 37.1665 18.37 38.7972 18.968 39.691C19.4874 40.4436 20.1484 40.8827 20.3058 41.8391C20.4632 42.7956 20.054 43.6893 20.1327 44.6144C20.2429 45.7434 20.5262 46.8567 20.7937 47.9542C21.0928 49.1459 21.4233 50.416 22.3361 51.247C22.6194 51.4979 22.9499 51.7174 23.3277 51.7488C23.7054 51.7801 24.1146 51.592 24.2563 51.247C24.0674 51.7174 26.1921 53.2697 26.5856 53.599C27.404 54.2575 28.2382 55.1356 29.2769 55.4806C29.9694 55.7001 30.1898 55.4962 30.6462 56.1077C31.0554 56.6722 31.0711 57.7228 30.9924 58.3813C30.9452 58.7106 30.8665 59.0399 30.9767 59.3535C31.0869 59.6984 31.3702 59.9493 31.6692 60.1218C34.3448 61.7525 37.3824 59.6671 37.0833 56.7193C37.162 57.4249 39.9635 57.7541 40.4199 57.8012C41.8994 57.9423 43.4103 57.8012 44.8268 57.3778C44.6694 57.9736 44.6694 58.6322 44.9684 59.1653C45.8341 60.6706 50.5872 60.9528 50.839 58.8831C50.9019 58.3656 50.7446 57.8482 50.6029 57.3464C50.5557 57.1583 50.4927 56.9545 50.5399 56.7506C50.5714 56.6095 50.6501 56.4841 50.7446 56.3586C52.1138 54.43 54.6163 53.9282 56.2216 52.1878C56.9771 51.3881 57.6066 50.463 58.0631 49.4595C58.2519 49.0362 59.3064 46.6842 58.913 46.2922C59.5897 47.0762 60.5655 45.8061 60.8331 45.2887C61.321 44.3479 61.3367 43.1405 60.9118 42.1841C60.8488 42.0586 59.9517 39.6753 60.3924 39.6283C63.4142 39.346 61.9348 35.5202 61.1164 34.0776C61.0062 33.8895 58.9602 30.6281 58.5195 31.0514C58.913 30.6751 59.4796 30.5497 59.9517 30.2674C62.1866 28.8876 57.3863 25.7673 56.3003 25.2029C55.8911 24.999 55.4347 24.7638 55.3088 24.3405C55.2773 24.215 55.2773 24.0896 55.2616 23.9485C55.2301 22.4275 55.4347 20.4989 54.6478 19.1034C54.4589 18.7585 54.1126 18.4762 53.7349 18.4449C53.4359 18.4292 53.1526 18.5389 52.8693 18.6644C51.3426 19.3229 50.2567 20.2794 48.9503 21.2515C48.7929 20.6087 48.1949 20.1696 47.5811 19.8874C46.2118 19.2445 44.4963 19.1191 43.0483 19.6052C41.7735 20.0285 40.3885 21.2829 38.9877 20.3578C38.0434 19.7306 37.3509 19.6522 36.2177 19.4013C35.3363 19.2132 34.3605 19.072 33.6051 19.5424C32.9755 19.9344 32.645 20.6714 32.3617 21.3456C31.4489 20.5616 30.4258 19.8874 29.3399 19.3856C28.5215 19.0093 27.3725 18.3037 26.6171 19.1661C26.2708 19.5581 26.1449 20.0756 26.0347 20.593C26.0033 20.7811 25.956 20.985 25.9246 21.1731Z" fill="#F8C04E"/>
<path d="M27.6244 25.1871C28.3169 25.6418 30.0324 24.654 30.2527 23.9484C30.5046 23.1487 29.1982 22.2236 28.3798 22.2079C27.1679 22.1766 27.1207 23.9954 27.3568 24.8264C27.404 24.9832 27.4985 25.1087 27.6244 25.1871Z" fill="white"/>
<path d="M48.9345 37.684C47.9272 37.8722 46.9199 38.0447 45.9599 37.8095C45.2044 37.6213 44.5906 36.8844 43.9768 36.3826C42.2298 34.9087 39.3181 34.407 37.3036 35.7084C36.1389 36.461 35.4621 37.6213 33.9669 37.7468C32.1885 37.8722 30.4729 37.3548 28.7574 37.8722C26.7901 38.468 25.2634 39.8635 24.744 41.8705C24.3978 43.219 24.4922 44.6459 24.807 45.9943C25.3421 48.362 26.5697 50.6356 28.5371 52.0467C29.1509 52.4858 30.1267 52.768 30.5359 52.1408C31.9839 54.3203 34.1558 55.998 36.6268 56.8604C36.7527 56.4214 36.7527 55.951 36.6425 55.512C38.9719 57.9423 43.001 58.5539 45.9441 56.9075C46.6681 56.5155 47.3134 55.9981 47.9429 55.4806C49.0132 54.6339 50.1149 53.7558 50.7759 52.5642C50.7759 52.7837 50.7759 53.0032 50.7759 53.2384C52.3813 53.0189 53.7663 51.9056 54.6476 50.5415C55.529 49.1773 55.9697 47.5937 56.3159 46.01L56.4261 46.4491C56.9455 46.4804 57.1973 45.8062 57.2288 45.2887C57.339 43.4385 56.7566 41.557 55.6077 40.0987C54.6319 38.86 52.8849 37.4645 51.2323 37.4018C50.4926 37.3704 49.7214 37.5272 48.9502 37.6684L48.9345 37.684Z" fill="white"/>
<path d="M53.5461 22.0512C53.4359 21.6278 53.2628 21.2358 53.1369 20.9536C52.5545 21.2829 50.8233 22.5373 51.3112 23.3683C51.626 23.9014 52.8221 24.2777 53.31 23.8544C53.7664 23.4467 53.7192 22.7254 53.5461 22.0512Z" fill="white"/>
<path d="M48.6828 22.3177C48.9661 21.9884 49.2652 21.6748 49.58 21.3926C49.7373 21.2515 49.8947 21.126 50.0521 20.9849C50.0993 20.9535 50.1466 20.9222 50.178 20.8751C50.2882 20.7967 50.3826 20.7183 50.4928 20.6399C50.8391 20.4047 51.1853 20.1852 51.5473 19.9971C51.7362 19.903 51.9093 19.8089 52.0982 19.7148C52.1454 19.6835 52.2083 19.6678 52.2555 19.6521C52.2555 19.6521 52.4287 19.5737 52.3185 19.6208C52.4287 19.5737 52.5231 19.5424 52.6333 19.4953C53.0267 19.3385 53.4517 19.2131 53.8609 19.119C54.0183 19.0876 53.7979 19.119 53.8924 19.119C53.9396 19.119 53.9868 19.119 54.034 19.119C54.034 19.119 54.097 19.119 54.034 19.0876C54.0655 19.119 54.0812 19.1817 54.1127 19.2131C54.0498 19.1033 54.1127 19.2444 54.1285 19.2601C54.1442 19.3072 54.1599 19.3542 54.1757 19.4169C54.2386 19.6364 54.2858 19.8716 54.3331 20.1068C54.3645 20.2323 54.3803 20.3577 54.4117 20.4831C54.4117 20.5302 54.4118 20.5615 54.4275 20.6086C54.4275 20.6556 54.4275 20.687 54.4432 20.734C54.4432 20.8124 54.4432 20.8124 54.4432 20.7654C54.5062 21.2515 54.5377 21.7375 54.5377 22.2393C54.5377 23.3526 54.4117 24.2933 54.097 25.3596C54.0183 25.6575 54.2071 26.0181 54.5062 26.0808C54.8052 26.1436 55.1357 25.9868 55.2302 25.6732C55.8282 23.5877 55.8597 21.3299 55.3246 19.2288C55.1829 18.6643 54.9154 18.1155 54.3016 17.9587C53.8137 17.8333 53.2786 18.0057 52.8064 18.1625C51.8935 18.4448 51.0279 18.8524 50.2252 19.3542C49.3124 19.9344 48.4782 20.6399 47.77 21.4553C47.5654 21.6905 47.5182 22.0668 47.77 22.2863C47.9903 22.4902 48.3838 22.5372 48.6042 22.2863L48.6828 22.3177Z" fill="#231F20"/>
<path d="M33.1486 22.4276C32.0627 20.7185 30.4416 19.4014 28.5529 18.6644C28.0808 18.4763 27.5299 18.2568 27.0105 18.3038C26.4125 18.3508 25.9875 18.7428 25.7514 19.276C25.295 20.3265 25.0904 21.5182 25.0117 22.6628C24.9173 23.9485 25.0432 25.25 25.3737 26.5043C25.4524 26.8023 25.7986 27.0061 26.0977 26.912C26.3967 26.8179 26.5856 26.5043 26.5069 26.1908C26.0033 24.2621 26.0505 22.2238 26.6328 20.3108C26.6643 20.2011 26.7115 20.0756 26.743 19.9659C26.743 19.9188 26.7744 19.8875 26.7902 19.8404C26.8531 19.6836 26.7272 19.9345 26.8217 19.7777C26.8689 19.6993 26.9004 19.6209 26.9476 19.5582C26.8689 19.668 26.9791 19.5425 26.9948 19.5268C26.9948 19.5268 27.1679 19.4955 27.0892 19.4955C27.0105 19.4955 27.2151 19.4955 27.1994 19.4955C27.3568 19.4955 27.1207 19.4641 27.2938 19.4955C27.3568 19.5112 27.4197 19.5268 27.4827 19.5425C27.6873 19.6052 27.8919 19.668 28.0965 19.7464C28.2067 19.7934 28.3168 19.8248 28.4113 19.8718C28.3011 19.8248 28.4742 19.9032 28.49 19.9032C28.5214 19.9188 28.5529 19.9345 28.6001 19.9502C28.8047 20.0443 29.0093 20.154 29.214 20.2638C29.4028 20.3735 29.5759 20.4833 29.7491 20.5931C29.8278 20.6401 29.9065 20.7028 29.9852 20.7499C30.0324 20.7812 30.0796 20.8126 30.1268 20.8439C30.1425 20.8439 30.3157 20.9851 30.237 20.9223C30.6147 21.2203 30.9767 21.5495 31.2915 21.8945C31.3702 21.9886 31.4646 22.0826 31.5433 22.1767C31.5748 22.2081 31.6062 22.2551 31.6377 22.2865C31.6377 22.2865 31.7794 22.4746 31.7164 22.3962C31.8738 22.6001 32.0154 22.8039 32.1414 23.0078C32.2987 23.2743 32.6765 23.3997 32.944 23.2116C33.2116 23.0234 33.3375 22.6785 33.1486 22.4119V22.4276Z" fill="#231F20"/>
<path d="M27.955 23.1803C28.1439 23.2273 28.3485 23.29 28.5216 23.3684L28.3799 23.3057C28.6475 23.4155 28.9151 23.5723 29.1511 23.7604L29.0252 23.6664C29.2456 23.8388 29.4502 24.0427 29.6233 24.2622C29.6705 24.3249 29.7335 24.3563 29.8122 24.3876C29.8751 24.419 29.9538 24.4347 30.0325 24.4347C30.1742 24.4347 30.3473 24.3719 30.4575 24.2622C30.5676 24.1524 30.6306 23.9956 30.6306 23.8388V23.682C30.5834 23.588 30.5362 23.4939 30.4575 23.4155C30.2371 23.1332 29.9696 22.898 29.6863 22.6942C29.403 22.4904 29.0882 22.3179 28.7577 22.1924C28.6003 22.1297 28.4272 22.0827 28.254 22.0357C28.0967 22.0043 27.9393 22.02 27.7976 22.0984C27.6717 22.1768 27.5615 22.3022 27.5301 22.4433C27.4986 22.6001 27.4986 22.7569 27.593 22.898C27.6717 23.0235 27.7976 23.1332 27.9393 23.1646L27.955 23.1803Z" fill="#231F20"/>
<path d="M52.4601 20.9223C52.1768 21.0477 51.9092 21.2359 51.6731 21.4397C51.4371 21.6435 51.2325 21.8944 51.0593 22.1453C50.9806 22.2707 50.9019 22.4119 50.839 22.553C50.7918 22.6157 50.776 22.6941 50.776 22.7725C50.7603 22.8509 50.776 22.9293 50.776 23.0077C50.7918 23.0861 50.8233 23.1488 50.8862 23.2115C50.9334 23.2742 50.9806 23.3213 51.0593 23.3683C51.201 23.4467 51.3584 23.4781 51.5158 23.431L51.6574 23.3683C51.7518 23.3213 51.8148 23.2429 51.862 23.1645C51.9564 22.9606 52.0666 22.7568 52.2083 22.5843L52.1138 22.7098C52.2555 22.5216 52.4286 22.3491 52.6175 22.208L52.4916 22.3021C52.6647 22.161 52.8535 22.0512 53.0582 21.9728C53.1211 21.9415 53.1841 21.8787 53.2313 21.816C53.2785 21.7533 53.3257 21.6906 53.3415 21.6122C53.3729 21.5338 53.3729 21.4554 53.3415 21.377C53.3415 21.2986 53.31 21.2202 53.2785 21.1575C53.1998 21.032 53.0739 20.9223 52.9322 20.8909H52.7749C52.6647 20.8752 52.5703 20.8909 52.4758 20.9536L52.4601 20.9223Z" fill="#231F20"/>
<path d="M24.9173 25.0146C23.4221 25.3596 21.7223 25.8614 20.9826 27.3509C20.6678 27.9938 20.5892 28.7308 20.8567 29.405C21.1243 30.0792 21.6909 30.6437 22.4148 30.7848L22.2732 29.7029C20.8252 30.8005 19.7078 32.2117 18.9838 33.8737C18.6848 34.5636 18.3857 35.2536 18.1969 35.9905C18.008 36.7275 17.8664 37.5428 18.1339 38.2484C18.2598 38.5463 18.5274 38.7502 18.8579 38.6561C19.1412 38.5777 19.393 38.2327 19.2671 37.9348C19.0468 37.4017 19.1884 36.7902 19.3458 36.2257C19.5189 35.5985 19.7707 35.0027 20.0226 34.4225C20.6678 32.98 21.5964 31.6942 22.8713 30.7378C23.0601 30.5967 23.186 30.4085 23.1546 30.1576C23.1231 29.9381 22.9657 29.7029 22.7296 29.6715C22.3204 29.5932 22.0371 29.3266 21.9112 28.9189C21.7696 28.4642 21.9112 28.0252 22.1788 27.6489C22.8555 26.6767 24.1461 26.4102 25.2321 26.175C25.9718 26.0025 25.657 24.8735 24.9173 25.046V25.0146Z" fill="#231F20"/>
<path d="M19.8652 41.1647C19.1413 42.9993 19.3616 45.1004 19.8338 46.9819C20.0856 47.9541 20.4318 48.9105 20.841 49.82C21.2188 50.6353 21.628 51.6388 22.3992 52.1719C23.3592 52.8148 24.9174 52.1406 24.6183 50.8862L23.6268 51.4507C25.2321 53.4577 27.1208 55.6529 29.7964 56.1233C30.1112 56.1703 30.4259 56.0448 30.5204 55.7156C30.5991 55.4333 30.4259 55.0413 30.1112 54.9943C27.6244 54.5553 25.9404 52.4855 24.461 50.6196C24.0675 50.1336 23.3592 50.6667 23.4694 51.1841C23.4379 51.0744 23.5481 51.1371 23.4379 51.1841C23.3907 51.1998 23.3592 51.2312 23.3278 51.2468C23.1861 51.2782 23.0602 51.1998 22.95 51.1057C22.6038 50.8235 22.4149 50.3374 22.2103 49.9611C21.7696 49.0987 21.4076 48.1893 21.1243 47.2642C20.5735 45.4139 20.2587 43.3285 20.9827 41.4783C21.0929 41.1804 20.8568 40.8354 20.5735 40.757C20.243 40.663 19.9597 40.8668 19.8495 41.1647H19.8652Z" fill="#231F20"/>
<path d="M56.0327 25.626C56.9771 26.1121 57.8112 26.755 58.5667 27.4606C59.0231 27.8682 59.4166 28.2916 59.6999 28.7777C59.7313 28.8247 59.7628 28.8717 59.7786 28.9345C59.7786 28.9658 59.81 28.9815 59.81 29.0129C59.8573 29.0913 59.7786 28.9345 59.81 29.0129C59.8573 29.1226 59.8887 29.2324 59.9045 29.3578C59.9045 29.3892 59.9045 29.2794 59.9045 29.3892C59.9045 29.4362 59.9045 29.4989 59.9045 29.546C59.9045 29.4362 59.9045 29.5146 59.9045 29.5617C59.9045 29.593 59.8887 29.6244 59.873 29.6557C59.9045 29.593 59.8887 29.6087 59.873 29.6557C59.8573 29.6871 59.7471 29.8282 59.8258 29.7341C59.7786 29.7812 59.7471 29.8282 59.6999 29.8596C59.6527 29.8909 59.6212 29.9223 59.574 29.938C59.511 29.985 59.4323 30.0164 59.3694 30.0477C58.8342 30.2986 58.2362 30.2672 57.6696 30.2516C56.9141 30.2359 56.9141 31.3962 57.6696 31.4276C57.7011 31.4276 57.7325 31.4276 57.764 31.4276C57.764 31.4276 57.6538 31.4119 57.7325 31.4276C57.7955 31.4276 57.8427 31.4589 57.9057 31.4746C57.9686 31.4903 58.0158 31.5059 58.0788 31.5373C58.126 31.553 58.1575 31.5843 58.2047 31.6C58.488 31.7411 58.6454 31.8666 58.8657 32.0704C59.3851 32.5251 59.7943 33.0739 60.172 33.6541C60.5655 34.2813 60.9118 34.9555 61.1636 35.6454C61.3839 36.2569 61.557 36.8841 61.557 37.48C61.557 37.5584 61.557 37.6367 61.557 37.7151C61.557 37.7465 61.557 37.7936 61.557 37.8249C61.557 37.9347 61.557 37.7935 61.557 37.8563C61.557 37.919 61.5256 37.9817 61.5098 38.0601C61.5098 38.0915 61.5098 38.1071 61.4941 38.1385C61.5256 38.0915 61.4626 38.2483 61.4941 38.1385C61.3997 38.3267 61.0534 38.6716 60.8173 38.4835C60.5812 38.2953 60.2193 38.2483 59.9832 38.4835C59.7786 38.6873 59.7313 39.1107 59.9832 39.3145C60.9275 40.0985 62.2653 39.5497 62.643 38.4364C62.8791 37.7152 62.7689 36.8998 62.5958 36.1942C62.1709 34.4538 61.2108 32.6976 59.936 31.4276C59.3379 30.8317 58.5982 30.3143 57.7168 30.2672V31.4432C58.7398 31.4746 59.873 31.4119 60.6442 30.6436C61.1164 30.1732 61.258 29.4989 61.0691 28.8561C60.6599 27.5076 59.3379 26.4571 58.2519 25.6417C57.7483 25.2654 57.2289 24.9048 56.678 24.6225C56.0013 24.2776 55.4032 25.2967 56.08 25.6417L56.0327 25.626Z" fill="#231F20"/>
<path d="M59.5583 40.7259C60.2665 41.7294 60.6757 42.8113 60.6128 44.0657C60.5813 44.5831 60.5341 45.2574 60.1879 45.6807C59.999 45.9159 59.5898 46.057 59.4324 45.7278C59.1806 45.179 58.3307 45.4769 58.3307 46.0257C58.3307 49.5066 55.9069 52.7993 52.586 53.8656C51.8621 54.1008 52.1768 55.2297 52.9008 54.9945C56.7253 53.7872 59.5111 50.0397 59.5111 46.0257L58.4094 46.3236C58.7241 47.0292 59.637 47.2487 60.3138 46.9978C61.1322 46.6999 61.5256 45.8375 61.6673 45.0378C61.9821 43.266 61.6043 41.6196 60.5656 40.1457C60.1406 39.5342 59.1176 40.1144 59.5426 40.7416L59.5583 40.7259Z" fill="#231F20"/>
<path d="M42.639 20.6715C42.7335 20.6088 42.5918 20.7029 42.6863 20.6401C42.7335 20.6088 42.7649 20.5774 42.8122 20.5461C42.9066 20.4833 43.0168 20.4206 43.1112 20.3579C43.2056 20.3109 43.2843 20.2638 43.3788 20.2168C43.426 20.1854 43.4889 20.1697 43.5361 20.1384C43.5991 20.107 43.5204 20.1384 43.5047 20.1384C43.5361 20.1384 43.5676 20.107 43.5991 20.107C43.8037 20.0286 44.0083 19.9659 44.2287 19.9189C44.3231 19.9032 44.4333 19.8875 44.5277 19.8718C44.4175 19.8875 44.5277 19.8718 44.5749 19.8718C44.6379 19.8718 44.7166 19.8718 44.7795 19.8718C44.9841 19.8718 45.2045 19.8718 45.4091 19.8718C45.4563 19.8718 45.5822 19.9032 45.472 19.8718C45.5192 19.8718 45.5664 19.8718 45.6137 19.8875C45.7238 19.9032 45.8183 19.9346 45.9284 19.9502C46.0386 19.9659 46.133 20.0129 46.2275 20.0443C46.2747 20.0443 46.3219 20.0757 46.3691 20.0913C46.3849 20.0913 46.4163 20.107 46.4321 20.1227C46.4321 20.1227 46.5422 20.1697 46.4793 20.1384C46.4163 20.107 46.5422 20.1697 46.558 20.1697C46.6052 20.2011 46.6524 20.2168 46.7154 20.2481C46.8098 20.2952 46.9042 20.3422 46.9829 20.4049C47.0931 20.4677 47.1875 20.5304 47.282 20.6088C47.2977 20.6088 47.3134 20.6401 47.3449 20.6558C47.4079 20.7029 47.282 20.5931 47.3449 20.6558C47.3921 20.6872 47.4394 20.7342 47.4708 20.7656C47.6597 20.9224 47.8171 21.0949 47.9745 21.283C48.1791 21.5182 48.604 21.5025 48.8086 21.283C49.0447 21.0321 49.0132 20.7029 48.8086 20.452C47.518 18.8997 45.2989 18.2882 43.3945 18.9467C42.8122 19.1506 42.2928 19.4485 41.8206 19.8405C41.5845 20.0286 41.6003 20.4677 41.8206 20.6715C42.0724 20.9067 42.403 20.8753 42.6548 20.6715H42.639Z" fill="#231F20"/>
<path d="M30.5989 52.6581C30.7248 53.3323 31.1025 53.9125 31.5117 54.4456C31.9052 54.9474 32.3144 55.4491 32.7708 55.9038C33.7151 56.8289 35.1002 57.5345 36.4379 57.0328C36.6898 56.9387 36.8629 56.7349 36.8786 56.4683C36.8786 56.1077 36.8786 55.7314 36.8786 55.3707L35.7769 55.6686C36.9731 57.2053 38.7673 58.1617 40.7189 58.2401C41.0337 58.2401 41.317 57.9579 41.317 57.6443C41.317 57.315 41.0494 57.0641 40.7189 57.0485C39.2394 57.0014 37.7128 56.2645 36.7999 55.0571C36.6426 54.8533 36.4065 54.7122 36.1389 54.7906C35.8871 54.8533 35.714 55.1042 35.6982 55.355C35.6982 55.7157 35.6982 56.092 35.6982 56.4526L36.1389 55.8881C35.1474 56.2488 34.203 55.6373 33.5105 54.9317C33.1171 54.5397 32.7551 54.1007 32.4088 53.6616C32.0941 53.2539 31.8422 52.8306 31.7478 52.3288C31.6848 52.0152 31.3071 51.8428 31.0238 51.9212C30.6933 52.0152 30.5517 52.3288 30.6146 52.6424L30.5989 52.6581Z" fill="#231F20"/>
<path d="M43.6936 57.9264C45.96 57.7696 48.1162 56.7975 49.7373 55.2295C50.1937 54.7905 50.603 54.2887 50.9649 53.7713C51.1381 53.5204 51.0279 53.1127 50.7603 52.9716C50.4613 52.8148 50.1465 52.9089 49.9577 53.1754C49.8947 53.2695 49.816 53.3793 49.7531 53.4733C49.7373 53.5047 49.7058 53.5361 49.6901 53.5518C49.6901 53.5518 49.7373 53.489 49.6901 53.5361C49.6429 53.5988 49.5957 53.6615 49.5485 53.7242C49.3911 53.9124 49.2179 54.1005 49.0448 54.273C48.8717 54.4455 48.6828 54.618 48.494 54.7905C48.3995 54.8688 48.3051 54.9473 48.2107 55.0256C48.3051 54.9473 48.1477 55.0727 48.1162 55.0884C48.0533 55.1354 48.0061 55.1668 47.9431 55.2138C47.5339 55.496 47.0932 55.7626 46.6368 55.9821C46.5266 56.0292 46.4164 56.0919 46.3063 56.1389C46.2748 56.1389 46.1961 56.186 46.3063 56.1389C46.2748 56.1389 46.2433 56.1703 46.2118 56.186C46.1489 56.2173 46.0859 56.233 46.023 56.2644C45.7869 56.3584 45.5508 56.4368 45.299 56.4995C45.0157 56.5779 44.7481 56.6407 44.4648 56.6877C44.4019 56.6877 44.3232 56.7191 44.2602 56.7191C44.2288 56.7191 44.1973 56.7191 44.1501 56.7191C44.213 56.7191 44.213 56.7191 44.1501 56.7191C43.9927 56.7348 43.8353 56.7504 43.6779 56.7661C43.3631 56.7818 43.0798 57.017 43.0798 57.3619C43.0798 57.6599 43.3474 57.9735 43.6779 57.9578L43.6936 57.9264Z" fill="#231F20"/>
<path d="M29.7335 55.6686C29.8751 55.8724 30.001 56.0762 30.1269 56.2801C30.1742 56.3742 30.2214 56.4526 30.2686 56.5466C30.3001 56.5937 30.3316 56.6564 30.3473 56.7034C30.363 56.7348 30.3788 56.7818 30.3945 56.8132C30.3788 56.7662 30.3788 56.7662 30.3945 56.8446C30.4417 56.9543 30.4732 57.0641 30.5047 57.1738C30.5047 57.2365 30.5362 57.2836 30.5362 57.3463C30.5676 57.4561 30.5362 57.3933 30.5362 57.3463C30.5676 57.6442 30.5362 57.7697 30.4889 58.0049C30.3473 58.5066 30.1584 58.9927 30.3001 59.5258C30.426 59.9805 30.7722 60.3411 31.1972 60.5607C31.6379 60.7802 32.11 60.8743 32.6137 60.937C33.1173 60.9997 33.6052 61.0154 34.1089 60.9683C35.1161 60.8899 36.3752 60.6861 36.989 59.7924C37.2881 59.3376 37.3668 58.7888 37.4455 58.2714C37.5399 57.6599 37.6501 57.0484 37.7445 56.4369C37.7917 56.139 37.6658 55.794 37.3353 55.7156C37.052 55.6529 36.6585 55.794 36.6113 56.1233C36.5326 56.625 36.4539 57.1111 36.3595 57.6129C36.2808 58.0519 36.2493 58.5223 36.0919 58.9456C36.0605 59.0554 35.966 59.1965 35.8716 59.2906C35.8401 59.322 35.8244 59.3376 35.7929 59.369C35.8873 59.2906 35.7457 59.4004 35.7299 59.4004C35.6985 59.416 35.6512 59.4474 35.604 59.4631C35.5726 59.4631 35.5568 59.4944 35.5253 59.4944C35.5883 59.4788 35.5726 59.4788 35.5253 59.4944C35.3365 59.5572 35.1319 59.6199 34.943 59.6669C34.8328 59.6983 34.7069 59.714 34.5968 59.7453C34.5495 59.7453 34.5181 59.7453 34.4708 59.761C34.4236 59.761 34.3921 59.761 34.3449 59.7767C34.3921 59.7767 34.3764 59.7767 34.3135 59.7767C33.8413 59.8237 33.3691 59.8394 32.8812 59.7767C32.6451 59.761 32.5822 59.7453 32.3461 59.6983C32.2517 59.6826 32.1572 59.6512 32.0628 59.6356C32.0313 59.6356 31.9999 59.6199 31.9684 59.6042C31.9369 59.6042 31.748 59.5101 31.8897 59.5728C31.811 59.5415 31.748 59.5101 31.6851 59.4631C31.6379 59.4317 31.6064 59.416 31.5749 59.3847C31.6536 59.4631 31.5907 59.3847 31.5749 59.3847C31.5434 59.3533 31.512 59.322 31.4805 59.2906C31.5749 59.4004 31.4962 59.2906 31.4805 59.2906C31.449 59.2749 31.4175 59.1652 31.4805 59.2906C31.4805 59.2592 31.4333 59.0711 31.449 59.1965C31.449 59.1652 31.449 59.1181 31.449 59.0868C31.449 59.0868 31.4805 58.8986 31.449 59.0084C31.4647 58.9143 31.4962 58.8202 31.5277 58.7261C31.5907 58.5066 31.6693 58.2871 31.7166 58.0676C31.9054 56.9543 31.3546 55.9665 30.7408 55.0727C30.5676 54.8219 30.2056 54.6807 29.9381 54.8689C29.6863 55.0257 29.5446 55.402 29.7335 55.6686Z" fill="#231F20"/>
<path d="M50.7917 54.9943C50.2881 55.7626 49.753 56.6564 49.8002 57.6129C49.8002 57.8637 49.8632 58.1146 49.9419 58.3498C50.0048 58.5693 50.0992 58.7888 50.1307 59.0084C50.115 58.8672 50.0992 59.2279 50.1307 59.0868C50.1307 59.1181 50.115 59.2122 50.0992 59.2279L50.1307 59.1652C50.1307 59.1652 50.0992 59.2122 50.0835 59.2436C50.0835 59.2436 50.052 59.3063 50.0363 59.3063L50.0835 59.2592C50.0835 59.2592 50.052 59.3063 50.0205 59.322C49.9891 59.3533 49.9576 59.3847 49.9261 59.4004C50.052 59.3063 49.8946 59.4004 49.8632 59.4317C49.8002 59.4631 49.7372 59.5101 49.6586 59.5415C49.8002 59.4788 49.6586 59.5415 49.6271 59.5415C49.5799 59.5415 49.5326 59.5728 49.5012 59.5885C49.2966 59.6512 49.092 59.6826 48.8874 59.714C48.6828 59.7453 48.9503 59.714 48.8244 59.714C48.7772 59.714 48.7142 59.714 48.667 59.7296C48.5411 59.7296 48.4152 59.7453 48.2893 59.761C48.0375 59.761 47.7856 59.761 47.5338 59.761C47.0931 59.7296 46.7312 59.6826 46.2433 59.5415C46.1646 59.5101 46.0701 59.4944 45.9914 59.4631C45.834 59.4004 46.0859 59.5258 45.9442 59.4474C45.897 59.416 45.8498 59.4004 45.8026 59.369C45.7554 59.3376 45.7081 59.322 45.6767 59.2906C45.6452 59.2592 45.598 59.2122 45.5665 59.1808C45.6452 59.2749 45.535 59.1181 45.5193 59.0868C45.4878 59.0397 45.4721 58.9927 45.4563 58.9456C45.5035 59.0711 45.4563 58.9143 45.4563 58.8986C45.4248 58.7888 45.3934 58.6634 45.3619 58.538C45.3461 58.4282 45.3147 58.3341 45.2989 58.2244C45.2989 58.2087 45.2675 58.0049 45.2989 58.1617C45.2989 58.1146 45.2989 58.0676 45.2989 58.0205C45.2989 57.9735 45.2989 57.9265 45.2989 57.8794C45.3147 58.0049 45.2832 58.0362 45.2989 57.9578C45.2989 57.8951 45.3147 57.8167 45.3304 57.7383C45.3304 57.5345 45.2989 57.3306 45.2674 57.1268C45.2202 56.8289 44.8268 56.625 44.5435 56.7191C44.213 56.8289 44.0713 57.1111 44.1343 57.4404C44.1343 57.4561 44.1657 57.6599 44.1343 57.5031C44.1343 57.5345 44.1343 57.5815 44.1343 57.6129C44.1343 57.6599 44.1343 57.7069 44.1343 57.7697C44.1343 57.8637 44.1657 57.5972 44.1343 57.6913C44.1343 57.754 44.1185 57.8167 44.1028 57.8794C44.1028 57.9421 44.1028 57.9892 44.1028 58.0519C44.1343 58.538 44.2444 59.0397 44.4333 59.4788C44.8897 60.5136 46.0386 60.7645 47.0617 60.8899C47.581 60.9527 48.1004 60.9683 48.6198 60.9213C49.0762 60.8743 49.5641 60.8272 50.0048 60.6547C50.4455 60.4823 50.8704 60.2471 51.1223 59.8237C51.4213 59.3376 51.3426 58.7732 51.1852 58.2557C51.138 58.1303 51.1065 58.0049 51.0593 57.8637C51.0593 57.801 51.0278 57.754 51.0278 57.6913C51.0278 57.6129 51.0278 57.6129 51.0278 57.6913C51.0278 57.6599 51.0278 57.6129 51.0278 57.5815C51.0278 57.5188 51.0278 57.4717 51.0278 57.409C51.0278 57.3777 51.0593 57.1738 51.0278 57.2836C51.0436 57.1581 51.075 57.0327 51.1223 56.9073C51.138 56.8602 51.1537 56.7975 51.1852 56.7505C51.2167 56.6877 51.2167 56.6721 51.1852 56.7348C51.1852 56.7034 51.2167 56.6721 51.2324 56.625C51.2954 56.4996 51.3583 56.3742 51.4213 56.2644C51.5472 56.0292 51.7046 55.794 51.8462 55.5745C52.0194 55.3236 51.9092 54.9159 51.6416 54.7748C51.3426 54.618 51.0121 54.7121 50.839 54.9787L50.7917 54.9943Z" fill="#231F20"/>
<path d="M32.4404 21.2515C32.5978 21.0633 32.7709 20.8752 32.9598 20.7027C33.007 20.6713 33.0385 20.6243 33.0857 20.5929C33.1644 20.5302 33.0542 20.6086 33.1487 20.5459C33.2431 20.4832 33.3375 20.4048 33.4477 20.342C33.5579 20.2793 33.6523 20.2166 33.7467 20.1696C33.7939 20.1382 33.8412 20.1225 33.8884 20.1069C33.9199 20.1069 33.9356 20.0912 33.9671 20.0755C34.0458 20.0441 33.8884 20.1069 33.9671 20.0755C34.1874 19.9971 34.392 19.9344 34.6124 19.8873C34.6596 19.8873 34.7068 19.8717 34.7697 19.856C34.7855 19.856 34.9271 19.8246 34.8642 19.8403C34.8012 19.856 34.9429 19.8403 34.9586 19.8403C35.0216 19.8403 35.0845 19.8403 35.1317 19.8403C35.3678 19.8403 35.6039 19.8403 35.84 19.8717C35.7455 19.8717 35.8872 19.8717 35.9187 19.8717C35.9816 19.8717 36.0446 19.8873 36.0918 19.903C36.2334 19.9344 36.3751 19.9657 36.501 19.9971C36.7214 20.0598 37.0204 20.1696 37.1778 20.2323C37.6972 20.4518 38.2795 20.7968 38.7674 21.1417C39.0192 21.3142 39.4284 21.1888 39.5701 20.9379C39.7274 20.64 39.633 20.3264 39.3655 20.1382C38.4054 19.464 37.3037 18.8995 36.139 18.727C35.053 18.5702 33.9671 18.727 33.007 19.2445C32.4562 19.5424 31.9683 19.9657 31.5748 20.4361C31.3859 20.6713 31.323 21.032 31.5748 21.2672C31.7951 21.471 32.2043 21.518 32.4089 21.2672L32.4404 21.2515Z" fill="#231F20"/>
<path d="M39.2868 18.4918C39.2868 18.4918 39.3655 18.5702 39.3969 18.6173L39.3025 18.4918C39.4756 18.7114 39.6173 18.9622 39.7274 19.2288L39.6645 19.0877C39.7904 19.4013 39.8848 19.7149 39.9321 20.0441V19.8873C39.9321 20.0755 39.9478 20.2637 39.9321 20.4518C39.9321 20.6086 39.995 20.7654 40.1052 20.8752C40.2153 20.9849 40.3727 21.0477 40.5301 21.0477C40.8606 21.0477 41.1125 20.7968 41.1282 20.4518C41.1282 19.6678 40.9393 18.8682 40.5301 18.1939C40.4042 17.9901 40.2783 17.8176 40.1209 17.6451C40.0265 17.5354 39.8376 17.4727 39.696 17.4727C39.5543 17.4727 39.3812 17.5354 39.271 17.6451C39.1609 17.7549 39.0979 17.9117 39.0979 18.0685C39.0979 18.2253 39.1609 18.3664 39.271 18.4918H39.2868Z" fill="#231F20"/>
<path d="M18.3229 41.6981C18.3229 41.6981 18.4173 41.5569 18.4802 41.4942L18.3858 41.6197C18.7635 41.1179 19.22 40.6789 19.7236 40.2869L19.5977 40.3809C19.8023 40.2242 20.0069 40.083 20.2272 39.9419C20.3532 39.8635 20.4633 39.7381 20.4948 39.597C20.5263 39.4558 20.5105 39.2677 20.4318 39.1422C20.3532 39.0168 20.2272 38.907 20.0856 38.8757C19.9439 38.8443 19.7708 38.8443 19.6292 38.9384C18.9367 39.3618 18.3071 39.8949 17.7877 40.5064C17.6146 40.7102 17.4572 40.9141 17.2998 41.1179C17.2211 41.2277 17.2054 41.4315 17.2369 41.5726C17.2684 41.7137 17.3785 41.8548 17.5044 41.9176C17.6461 41.996 17.8035 42.0273 17.9609 41.9803L18.1025 41.9176C18.1969 41.8705 18.2599 41.7921 18.3071 41.7137L18.3229 41.6981Z" fill="#231F20"/>
<path d="M32.1889 37.3857C33.0407 37.3857 33.7313 36.6978 33.7313 35.8491C33.7313 35.0005 33.0407 34.3125 32.1889 34.3125C31.337 34.3125 30.6465 35.0005 30.6465 35.8491C30.6465 36.6978 31.337 37.3857 32.1889 37.3857Z" fill="#231F20"/>
<path d="M48.2109 37.3857C49.0627 37.3857 49.7533 36.6978 49.7533 35.8491C49.7533 35.0005 49.0627 34.3125 48.2109 34.3125C47.359 34.3125 46.6685 35.0005 46.6685 35.8491C46.6685 36.6978 47.359 37.3857 48.2109 37.3857Z" fill="#231F20"/>
<path d="M40.2 39.6281C41.8428 39.6281 43.1746 38.8067 43.1746 37.7935C43.1746 36.7803 41.8428 35.959 40.2 35.959C38.5571 35.959 37.2253 36.7803 37.2253 37.7935C37.2253 38.8067 38.5571 39.6281 40.2 39.6281Z" fill="#231F20"/>
</svg>
