<svg width="80" height="76" viewBox="0 0 80 76" fill="none" xmlns="http://www.w3.org/2000/svg">
<path d="M24.9934 19.8509C24.7416 21.2777 24.6472 22.7203 24.7101 24.1628C23.5454 24.2255 22.3493 24.5391 21.4837 25.3231C20.618 26.1071 20.1931 27.4242 20.6967 28.4748C20.7754 28.6316 20.8699 28.804 20.8856 28.9765C20.8856 29.588 19.3589 31.0776 19.0284 31.6891C18.4776 32.6926 18.0526 33.7432 17.7536 34.8408C17.486 35.8443 17.4388 37.475 18.0369 38.3687C18.5563 39.1214 19.2173 39.5604 19.3747 40.5169C19.5321 41.4733 19.1229 42.3671 19.2016 43.2922C19.3117 44.4211 19.595 45.5344 19.8626 46.632C20.1616 47.8236 20.4921 49.0937 21.405 49.9247C21.6883 50.1756 22.0188 50.3951 22.3965 50.4265C22.7743 50.4579 23.1835 50.2697 23.3251 49.9247C23.1362 50.3951 25.261 51.9474 25.6544 52.2767C26.4729 52.9353 27.307 53.8133 28.3458 54.1583C29.0383 54.3778 29.2586 54.174 29.715 54.7855C30.1242 55.3499 30.14 56.4005 30.0613 57.059C30.0141 57.3883 29.9354 57.7176 30.0455 58.0312C30.1557 58.3762 30.439 58.627 30.7381 58.7995C33.4136 60.4302 36.4512 58.3448 36.1522 55.397C36.2309 56.1026 39.0324 56.4319 39.4888 56.4789C40.9682 56.62 42.4791 56.4789 43.8956 56.0555C43.7382 56.6514 43.7382 57.3099 44.0373 57.843C44.9029 59.3483 49.656 59.6305 49.9078 57.5608C49.9708 57.0434 49.8134 56.5259 49.6717 56.0242C49.6245 55.836 49.5616 55.6322 49.6088 55.4283C49.6403 55.2872 49.719 55.1618 49.8134 55.0364C51.1827 53.1077 53.6851 52.606 55.2905 50.8655C56.0459 50.0659 56.6755 49.1408 57.1319 48.1372C57.3208 47.7139 58.3753 45.3619 57.9818 44.9699C58.6586 45.7539 59.6344 44.4838 59.9019 43.9664C60.3898 43.0256 60.4056 41.8183 59.9806 40.8618C59.9177 40.7364 59.0206 38.353 59.4612 38.306C62.4831 38.0238 61.0036 34.1979 60.1852 32.7554C60.0751 32.5672 58.029 29.3058 57.5883 29.7292C57.9818 29.3528 58.5484 29.2274 59.0206 28.9452C61.2555 27.5653 56.4551 24.4451 55.3692 23.8806C54.96 23.6767 54.5035 23.4416 54.3776 23.0182C54.3462 22.8928 54.3462 22.7673 54.3304 22.6262C54.2989 21.1053 54.5035 19.1766 53.7166 17.7811C53.5277 17.4362 53.1815 17.154 52.8038 17.1226C52.5047 17.1069 52.2214 17.2167 51.9381 17.3421C50.4115 18.0007 49.3255 18.9571 48.0192 19.9293C47.8618 19.2864 47.2637 18.8474 46.6499 18.5651C45.2806 17.9223 43.5651 17.7968 42.1172 18.2829C40.8423 18.7063 39.4573 19.9606 38.0566 19.0355C37.1122 18.4083 36.4197 18.3299 35.2865 18.0791C34.4052 17.8909 33.4294 17.7498 32.6739 18.2202C32.0444 18.6122 31.7139 19.3491 31.4306 20.0234C30.5177 19.2394 29.4947 18.5651 28.4087 18.0634C27.5903 17.6871 26.4414 16.9815 25.6859 17.8439C25.3397 18.2359 25.2138 18.7533 25.1036 19.2707C25.0721 19.4589 25.0249 19.6627 24.9934 19.8509Z" fill="#F8C04E"/>
<path d="M26.6935 23.8643C27.386 24.319 29.1015 23.3312 29.3218 22.6256C29.5736 21.826 28.2673 20.9008 27.4489 20.8852C26.237 20.8538 26.1898 22.6727 26.4259 23.5037C26.4731 23.6605 26.5675 23.7859 26.6935 23.8643Z" fill="white"/>
<path d="M48.0031 36.3618C46.9958 36.5499 45.9885 36.7224 45.0285 36.4872C44.273 36.2991 43.6592 35.5621 43.0454 35.0604C41.2984 33.5865 38.3867 33.0847 36.3722 34.3861C35.2075 35.1388 34.5307 36.2991 33.0355 36.4245C31.2571 36.5499 29.5415 36.0325 27.826 36.5499C25.8587 37.1458 24.332 38.5413 23.8126 40.5483C23.4664 41.8967 23.5608 43.3236 23.8756 44.6721C24.4107 47.0397 25.6383 49.3133 27.6057 50.7245C28.2195 51.1635 29.1953 51.4457 29.6045 50.8186C31.0525 52.998 33.2244 54.6758 35.6954 55.5382C35.8213 55.0991 35.8213 54.6287 35.7111 54.1897C38.0405 56.6201 42.0696 57.2316 45.0127 55.5852C45.7367 55.1932 46.382 54.6758 47.0115 54.1584C48.0818 53.3116 49.1835 52.4336 49.8445 51.2419C49.8445 51.4614 49.8445 51.6809 49.8445 51.9161C51.4499 51.6966 52.8349 50.5834 53.7162 49.2192C54.5976 47.8551 55.0383 46.2714 55.3846 44.6878L55.4947 45.1268C56.0141 45.1581 56.2659 44.4839 56.2974 43.9665C56.4076 42.1163 55.8252 40.2347 54.6763 38.7765C53.7005 37.5378 51.9535 36.1423 50.3009 36.0795C49.5612 36.0482 48.79 36.205 48.0188 36.3461L48.0031 36.3618Z" fill="white"/>
<path d="M52.6145 20.7284C52.5043 20.3051 52.3312 19.9131 52.2052 19.6309C51.6229 19.9601 49.8916 21.2145 50.3795 22.0455C50.6943 22.5787 51.8905 22.955 52.3784 22.5316C52.8348 22.1239 52.7876 21.4027 52.6145 20.7284Z" fill="white"/>
<path d="M47.7515 20.9959C48.0348 20.6666 48.3338 20.353 48.6486 20.0708C48.8059 19.9297 48.9633 19.8042 49.1207 19.6631C49.1679 19.6318 49.2152 19.6004 49.2466 19.5534C49.3568 19.475 49.4512 19.3966 49.5614 19.3182C49.9077 19.083 50.2539 18.8635 50.6159 18.6753C50.8048 18.5812 50.9779 18.4871 51.1668 18.3931C51.214 18.3617 51.2769 18.346 51.3241 18.3303C51.3241 18.3303 51.4973 18.2519 51.3871 18.299C51.4973 18.2519 51.5917 18.2206 51.7019 18.1735C52.0953 18.0167 52.5203 17.8913 52.9295 17.7972C53.0869 17.7659 52.8665 17.7972 52.961 17.7972C53.0082 17.7972 53.0554 17.7972 53.1026 17.7972C53.1026 17.7972 53.1656 17.7972 53.1026 17.7659C53.1341 17.7972 53.1498 17.8599 53.1813 17.8913C53.1184 17.7815 53.1813 17.9227 53.1971 17.9383C53.2128 17.9854 53.2285 18.0324 53.2443 18.0951C53.3072 18.3147 53.3544 18.5499 53.4017 18.7851C53.4331 18.9105 53.4489 19.0359 53.4804 19.1614C53.4804 19.2084 53.4804 19.2398 53.4961 19.2868C53.4961 19.3338 53.4961 19.3652 53.5118 19.4122C53.5118 19.4906 53.5118 19.4906 53.5118 19.4436C53.5748 19.9297 53.6063 20.4158 53.6063 20.9175C53.6063 22.0308 53.4804 22.9716 53.1656 24.0378C53.0869 24.3357 53.2758 24.6963 53.5748 24.7591C53.8738 24.8218 54.2043 24.665 54.2988 24.3514C54.8968 22.266 54.9283 20.0081 54.3932 17.907C54.2516 17.3425 53.984 16.7937 53.3702 16.6369C52.8823 16.5115 52.3472 16.684 51.875 16.8408C50.9622 17.123 50.0965 17.5307 49.2938 18.0324C48.381 18.6126 47.5468 19.3182 46.8386 20.1335C46.634 20.3687 46.5868 20.745 46.8386 20.9645C47.0589 21.1684 47.4524 21.2154 47.6728 20.9645L47.7515 20.9959Z" fill="#231F20"/>
<path d="M32.2172 21.1048C31.1313 19.3957 29.5102 18.0786 27.6215 17.3417C27.1494 17.1535 26.5985 16.934 26.0791 16.9811C25.4811 17.0281 25.0561 17.4201 24.82 17.9532C24.3636 19.0038 24.159 20.1954 24.0803 21.34C23.9859 22.6258 24.1118 23.9272 24.4423 25.1816C24.521 25.4795 24.8673 25.6833 25.1663 25.5893C25.4653 25.4952 25.6542 25.1816 25.5755 24.868C25.0719 22.9394 25.1191 20.901 25.7014 18.9881C25.7329 18.8783 25.7801 18.7529 25.8116 18.6431C25.8116 18.5961 25.8431 18.5647 25.8588 18.5177C25.9217 18.3609 25.7958 18.6118 25.8903 18.455C25.9375 18.3766 25.969 18.2982 26.0162 18.2354C25.9375 18.3452 26.0477 18.2198 26.0634 18.2041C26.0634 18.2041 26.2365 18.1727 26.1578 18.1727C26.0791 18.1727 26.2837 18.1727 26.268 18.1727C26.4254 18.1727 26.1893 18.1414 26.3624 18.1727C26.4254 18.1884 26.4883 18.2041 26.5513 18.2198C26.7559 18.2825 26.9605 18.3452 27.1651 18.4236C27.2753 18.4706 27.3854 18.502 27.4799 18.549C27.3697 18.502 27.5428 18.5804 27.5586 18.5804C27.5901 18.5961 27.6215 18.6118 27.6687 18.6274C27.8733 18.7215 28.078 18.8313 28.2826 18.941C28.4714 19.0508 28.6445 19.1605 28.8177 19.2703C28.8964 19.3173 28.9751 19.3801 29.0538 19.4271C29.101 19.4585 29.1482 19.4898 29.1954 19.5212C29.2111 19.5212 29.3843 19.6623 29.3056 19.5996C29.6833 19.8975 30.0453 20.2268 30.3601 20.5717C30.4388 20.6658 30.5332 20.7599 30.6119 20.854C30.6434 20.8853 30.6748 20.9324 30.7063 20.9637C30.7063 20.9637 30.848 21.1519 30.785 21.0735C30.9424 21.2773 31.0841 21.4812 31.21 21.685C31.3673 21.9516 31.7451 22.077 32.0126 21.8888C32.2802 21.7007 32.4061 21.3557 32.2172 21.0892V21.1048Z" fill="#231F20"/>
<path d="M27.0239 21.857C27.2127 21.9041 27.4173 21.9668 27.5904 22.0452L27.4488 21.9825C27.7164 22.0922 27.9839 22.249 28.22 22.4372L28.0941 22.3431C28.3144 22.5156 28.519 22.7194 28.6922 22.9389C28.7394 23.0017 28.8023 23.033 28.881 23.0644C28.944 23.0957 29.0227 23.1114 29.1014 23.1114C29.243 23.1114 29.4161 23.0487 29.5263 22.9389C29.6365 22.8292 29.6994 22.6724 29.6994 22.5156V22.3588C29.6522 22.2647 29.605 22.1706 29.5263 22.0922C29.306 21.81 29.0384 21.5748 28.7551 21.371C28.4718 21.1671 28.157 20.9946 27.8265 20.8692C27.6691 20.8065 27.496 20.7594 27.3229 20.7124C27.1655 20.681 27.0081 20.6967 26.8665 20.7751C26.7406 20.8535 26.6304 20.979 26.5989 21.1201C26.5674 21.2769 26.5674 21.4337 26.6619 21.5748C26.7406 21.7002 26.8665 21.81 27.0081 21.8414L27.0239 21.857Z" fill="#231F20"/>
<path d="M51.5289 19.5995C51.2456 19.725 50.9781 19.9131 50.742 20.1169C50.5059 20.3208 50.3013 20.5717 50.1282 20.8225C50.0495 20.948 49.9708 21.0891 49.9078 21.2302C49.8606 21.2929 49.8449 21.3713 49.8449 21.4497C49.8291 21.5281 49.8449 21.6065 49.8449 21.6849C49.8606 21.7633 49.8921 21.826 49.9551 21.8888C50.0023 21.9515 50.0495 21.9985 50.1282 22.0456C50.2698 22.124 50.4272 22.1553 50.5846 22.1083L50.7263 22.0456C50.8207 21.9985 50.8836 21.9201 50.9309 21.8417C51.0253 21.6379 51.1355 21.4341 51.2771 21.2616L51.1827 21.387C51.3243 21.1989 51.4975 21.0264 51.6863 20.8853L51.5604 20.9793C51.7335 20.8382 51.9224 20.7285 52.127 20.6501C52.19 20.6187 52.2529 20.556 52.3001 20.4933C52.3473 20.4305 52.3946 20.3678 52.4103 20.2894C52.4418 20.211 52.4418 20.1326 52.4103 20.0542C52.4103 19.9758 52.3788 19.8974 52.3473 19.8347C52.2686 19.7093 52.1427 19.5995 52.0011 19.5682H51.8437C51.7335 19.5525 51.6391 19.5682 51.5447 19.6309L51.5289 19.5995Z" fill="#231F20"/>
<path d="M23.9859 23.6914C22.4907 24.0364 20.7909 24.5381 20.0512 26.0277C19.7365 26.6706 19.6578 27.4075 19.9253 28.0818C20.1929 28.756 20.7595 29.3205 21.4835 29.4616L21.3418 28.3797C19.8938 29.4773 18.7764 30.8884 18.0524 32.5505C17.7534 33.2404 17.4543 33.9303 17.2655 34.6673C17.0766 35.4042 16.935 36.2196 17.2025 36.9252C17.3284 37.2231 17.596 37.4269 17.9265 37.3328C18.2098 37.2544 18.4616 36.9095 18.3357 36.6116C18.1154 36.0785 18.257 35.4669 18.4144 34.9025C18.5875 34.2753 18.8393 33.6794 19.0912 33.0993C19.7365 31.6567 20.665 30.371 21.9399 29.4145C22.1287 29.2734 22.2546 29.0853 22.2232 28.8344C22.1917 28.6149 22.0343 28.3797 21.7982 28.3483C21.389 28.2699 21.1057 28.0034 20.9798 27.5957C20.8382 27.141 20.9798 26.7019 21.2474 26.3256C21.9241 25.3535 23.2147 25.0869 24.3007 24.8517C25.0404 24.6792 24.7256 23.5503 23.9859 23.7228V23.6914Z" fill="#231F20"/>
<path d="M18.9338 39.8429C18.2099 41.6775 18.4302 43.7786 18.9024 45.6601C19.1542 46.6323 19.5004 47.5888 19.9096 48.4982C20.2874 49.3135 20.6966 50.317 21.4678 50.8502C22.4278 51.493 23.986 50.8188 23.6869 49.5644L22.6954 50.1289C24.3008 52.1359 26.1894 54.3311 28.865 54.8015C29.1798 54.8485 29.4945 54.7231 29.589 54.3938C29.6677 54.1116 29.4945 53.7196 29.1798 53.6725C26.693 53.2335 25.009 51.1638 23.5296 49.2979C23.1361 48.8118 22.4278 49.3449 22.538 49.8623C22.5065 49.7526 22.6167 49.8153 22.5065 49.8623C22.4593 49.878 22.4278 49.9094 22.3964 49.9251C22.2547 49.9564 22.1288 49.878 22.0186 49.7839C21.6724 49.5017 21.4835 49.0156 21.2789 48.6393C20.8382 47.7769 20.4762 46.8675 20.1929 45.9424C19.6421 44.0922 19.3273 42.0068 20.0513 40.1565C20.1615 39.8586 19.9254 39.5137 19.6421 39.4353C19.3116 39.3412 19.0283 39.545 18.9181 39.8429H18.9338Z" fill="#231F20"/>
<path d="M55.1018 24.3042C56.0462 24.7903 56.8803 25.4332 57.6358 26.1388C58.0922 26.5465 58.4857 26.9698 58.769 27.4559C58.8004 27.5029 58.8319 27.55 58.8477 27.6127C58.8477 27.644 58.8791 27.6597 58.8791 27.6911C58.8477 27.6127 58.9264 27.7695 58.8791 27.6911C58.9264 27.8008 58.9578 27.9106 58.9736 28.036C58.9736 28.0674 58.9736 27.9576 58.9736 28.0674C58.9736 28.1144 58.9736 28.1772 58.9736 28.2242C58.9736 28.1144 58.9736 28.1928 58.9736 28.2399C58.9736 28.2712 58.9578 28.3026 58.9421 28.334C58.9578 28.2869 58.9736 28.2712 58.9421 28.334C58.9264 28.3653 58.8162 28.5064 58.8949 28.4124C58.8477 28.4594 58.8162 28.5064 58.769 28.5378C58.7217 28.5692 58.6903 28.6005 58.6431 28.6162C58.5801 28.6632 58.5014 28.6946 58.4385 28.7259C57.9033 28.9768 57.3053 28.9455 56.7387 28.9298C55.9832 28.9141 55.9832 30.0744 56.7387 30.1058C56.7701 30.1058 56.8016 30.1058 56.8331 30.1058C56.8331 30.1058 56.7229 30.0901 56.8016 30.1058C56.8646 30.1058 56.9118 30.1371 56.9747 30.1528C57.0377 30.1685 57.0849 30.1842 57.1479 30.2155C57.1951 30.2312 57.2266 30.2626 57.2738 30.2782C57.5571 30.4194 57.7145 30.5448 57.9348 30.7486C58.4542 31.2034 58.8634 31.7522 59.2411 32.3323C59.6346 32.9595 59.9808 33.6337 60.2327 34.3236C60.453 34.9352 60.6261 35.5623 60.6261 36.1582C60.6261 36.2366 60.6261 36.315 60.6261 36.3934C60.6261 36.4247 60.6261 36.4718 60.6261 36.5031C60.6261 36.6129 60.6261 36.4718 60.6261 36.5345C60.6261 36.5972 60.5947 36.6599 60.5789 36.7383C60.5789 36.7697 60.5789 36.7854 60.5632 36.8167C60.5317 36.9265 60.5947 36.7697 60.5632 36.8167C60.4687 37.0049 60.1225 37.3498 59.8864 37.1617C59.6503 36.9735 59.2883 36.9265 59.0523 37.1617C58.8477 37.3655 58.8004 37.7889 59.0523 37.9927C59.9966 38.7767 61.3344 38.2279 61.7121 37.1146C61.9482 36.3934 61.838 35.578 61.6649 34.8724C61.2399 33.132 60.2799 31.3758 59.005 30.1058C58.407 29.5099 57.6673 28.9925 56.7859 28.9455V30.1215C57.8089 30.1528 58.9421 30.0901 59.7133 29.3218C60.1854 28.8514 60.3271 28.1772 60.1382 27.5343C59.729 26.1858 58.407 25.1353 57.321 24.3199C56.8174 23.9436 56.298 23.583 55.7471 23.3007C55.0704 22.9558 54.4723 23.975 55.1491 24.3199L55.1018 24.3042Z" fill="#231F20"/>
<path d="M58.6269 39.4041C59.3351 40.4076 59.7444 41.4895 59.6814 42.7439C59.6499 43.2614 59.6027 43.9356 59.2565 44.3589C59.0676 44.5941 58.6584 44.7353 58.501 44.406C58.2492 43.8572 57.3993 44.1551 57.3993 44.7039C57.3993 48.1848 54.9755 51.4776 51.6546 52.5438C50.9307 52.779 51.2454 53.9079 51.9694 53.6727C55.7939 52.4654 58.5797 48.7179 58.5797 44.7039L57.478 45.0018C57.7928 45.7074 58.7056 45.9269 59.3824 45.676C60.2008 45.3781 60.5942 44.5157 60.7359 43.7161C61.0507 41.9442 60.6729 40.2979 59.6342 38.824C59.2092 38.2125 58.1862 38.7926 58.6112 39.4198L58.6269 39.4041Z" fill="#231F20"/>
<path d="M41.7074 19.3483C41.8018 19.2855 41.6602 19.3796 41.7546 19.3169C41.8018 19.2855 41.8333 19.2542 41.8805 19.2228C41.975 19.1601 42.0851 19.0974 42.1796 19.0347C42.274 18.9876 42.3527 18.9406 42.4471 18.8935C42.4943 18.8622 42.5573 18.8465 42.6045 18.8151C42.6675 18.7838 42.5888 18.8151 42.573 18.8151C42.6045 18.8151 42.636 18.7838 42.6675 18.7838C42.8721 18.7054 43.0767 18.6427 43.297 18.5956C43.3914 18.5799 43.5016 18.5643 43.596 18.5486C43.4859 18.5643 43.596 18.5486 43.6433 18.5486C43.7062 18.5486 43.7849 18.5486 43.8479 18.5486C44.0525 18.5486 44.2728 18.5486 44.4774 18.5486C44.5246 18.5486 44.6505 18.5799 44.5404 18.5486C44.5876 18.5486 44.6348 18.5486 44.682 18.5643C44.7922 18.5799 44.8866 18.6113 44.9968 18.627C45.107 18.6427 45.2014 18.6897 45.2958 18.7211C45.343 18.7211 45.3903 18.7524 45.4375 18.7681C45.4532 18.7681 45.4847 18.7838 45.5004 18.7995C45.5004 18.7995 45.6106 18.8465 45.5477 18.8151C45.4847 18.7838 45.6106 18.8465 45.6263 18.8465C45.6736 18.8779 45.7208 18.8935 45.7837 18.9249C45.8782 18.9719 45.9726 19.019 46.0513 19.0817C46.1615 19.1444 46.2559 19.2071 46.3503 19.2855C46.3661 19.2855 46.3818 19.3169 46.4133 19.3326C46.3503 19.2699 46.4762 19.3796 46.4133 19.3326C46.4605 19.3639 46.5077 19.411 46.5392 19.4423C46.7281 19.5991 46.8854 19.7716 47.0428 19.9598C47.2474 20.195 47.6724 20.1793 47.877 19.9598C48.1131 19.7089 48.0816 19.3796 47.877 19.1287C46.5864 17.5764 44.3672 16.9649 42.4629 17.6235C41.8805 17.8273 41.3611 18.1252 40.889 18.5172C40.6529 18.7054 40.6686 19.1444 40.889 19.3483C41.1408 19.5835 41.4713 19.5521 41.7231 19.3483H41.7074Z" fill="#231F20"/>
<path d="M29.668 51.3358C29.7939 52.0101 30.1716 52.5902 30.5808 53.1233C30.9743 53.6251 31.3835 54.1269 31.8399 54.5816C32.7842 55.5067 34.1692 56.2123 35.507 55.7105C35.7589 55.6164 35.932 55.4126 35.9477 55.146C35.9477 54.7854 35.9477 54.4091 35.9477 54.0485L34.846 54.3464C36.0422 55.883 37.8364 56.8395 39.788 56.9179C40.1028 56.9179 40.386 56.6356 40.386 56.322C40.386 55.9927 40.1185 55.7419 39.788 55.7262C38.3085 55.6792 36.7819 54.9422 35.869 53.7349C35.7116 53.531 35.4756 53.3899 35.208 53.4683C34.9562 53.531 34.7831 53.7819 34.7673 54.0328C34.7673 54.3934 34.7673 54.7697 34.7673 55.1304L35.208 54.5659C34.2165 54.9265 33.2721 54.315 32.5796 53.6094C32.1862 53.2174 31.8242 52.7784 31.4779 52.3394C31.1631 51.9317 30.9113 51.5083 30.8169 51.0066C30.7539 50.693 30.3762 50.5205 30.0929 50.5989C29.7624 50.693 29.6208 51.0066 29.6837 51.3202L29.668 51.3358Z" fill="#231F20"/>
<path d="M42.7622 56.6051C45.0286 56.4483 47.1848 55.4762 48.8059 53.9082C49.2623 53.4692 49.6716 52.9674 50.0335 52.45C50.2067 52.1991 50.0965 51.7914 49.8289 51.6503C49.5299 51.4935 49.2151 51.5876 49.0263 51.8541C48.9633 51.9482 48.8846 52.058 48.8217 52.1521C48.8059 52.1834 48.7744 52.2148 48.7587 52.2305C48.7587 52.2305 48.8059 52.1677 48.7587 52.2148C48.7115 52.2775 48.6643 52.3402 48.6171 52.4029C48.4597 52.5911 48.2865 52.7793 48.1134 52.9517C47.9403 53.1242 47.7514 53.2967 47.5626 53.4692C47.4681 53.5476 47.3737 53.626 47.2793 53.7044C47.3737 53.626 47.2163 53.7514 47.1848 53.7671C47.1219 53.8141 47.0747 53.8455 47.0117 53.8925C46.6025 54.1748 46.1618 54.4413 45.7054 54.6608C45.5952 54.7079 45.485 54.7706 45.3749 54.8176C45.2647 54.8647 45.3434 54.8176 45.3749 54.8176C45.3434 54.8176 45.3119 54.849 45.2804 54.8647C45.2175 54.896 45.1545 54.9117 45.0916 54.9431C44.8555 55.0371 44.6194 55.1155 44.3676 55.1783C44.0843 55.2567 43.8167 55.3194 43.5334 55.3664C43.4705 55.3664 43.3918 55.3978 43.3288 55.3978C43.2974 55.3978 43.2659 55.3978 43.2187 55.3978C43.2816 55.3978 43.2816 55.3978 43.2187 55.3978C43.0613 55.4135 42.9039 55.4291 42.7465 55.4448C42.4317 55.4605 42.1484 55.6957 42.1484 56.0407C42.1484 56.3386 42.416 56.6522 42.7465 56.6365L42.7622 56.6051Z" fill="#231F20"/>
<path d="M28.8018 54.3473C28.9435 54.5511 29.0694 54.755 29.1953 54.9588C29.2425 55.0529 29.2897 55.1313 29.337 55.2253C29.3684 55.2724 29.3999 55.3351 29.4157 55.3821C29.4314 55.4135 29.4471 55.4605 29.4629 55.4919C29.4471 55.4449 29.4471 55.4449 29.4629 55.5233C29.5101 55.633 29.5416 55.7428 29.573 55.8525C29.573 55.9153 29.6045 55.9623 29.6045 56.025C29.6045 56.0721 29.636 56.1348 29.6045 56.025C29.636 56.3229 29.6045 56.4484 29.5573 56.6836C29.4157 57.1853 29.2268 57.6714 29.3684 58.2045C29.4943 58.6592 29.8406 59.0199 30.2655 59.2394C30.7062 59.4589 31.1784 59.553 31.682 59.6157C32.1857 59.6784 32.6736 59.6941 33.1772 59.6471C34.1845 59.5687 35.4436 59.3648 36.0574 58.4711C36.3564 58.0164 36.4351 57.4676 36.5138 56.9501C36.6083 56.3386 36.7184 55.7271 36.8129 55.1156C36.8601 54.8177 36.7342 54.4727 36.4036 54.3943C36.1204 54.3316 35.7269 54.4727 35.6797 54.802C35.601 55.3037 35.5223 55.7898 35.4278 56.2916C35.3492 56.7306 35.3177 57.201 35.1603 57.6244C35.1288 57.7341 35.0344 57.8752 34.9399 57.9693C34.9085 58.0007 34.8927 58.0164 34.8613 58.0477C34.9557 57.9693 34.814 58.0791 34.7983 58.0791C34.7668 58.0948 34.7196 58.1261 34.6724 58.1418C34.6409 58.1418 34.6252 58.1731 34.5937 58.1731C34.6409 58.1575 34.6567 58.1575 34.5937 58.1731C34.4048 58.2359 34.2002 58.2986 34.0114 58.3456C33.9012 58.377 33.7753 58.3927 33.6651 58.424C33.6179 58.424 33.5864 58.424 33.5392 58.4397C33.492 58.4397 33.4605 58.4397 33.4133 58.4554C33.4605 58.4554 33.4448 58.4554 33.3818 58.4554C32.9096 58.5024 32.4375 58.5181 31.9496 58.4554C31.7135 58.4397 31.6506 58.424 31.4145 58.377C31.32 58.3613 31.2256 58.3299 31.1312 58.3143C31.0997 58.3143 31.0682 58.2986 31.0367 58.2829C31.0053 58.2829 30.8164 58.1888 30.958 58.2515C30.8794 58.2202 30.8164 58.1888 30.7534 58.1418C30.7062 58.1104 30.6747 58.0947 30.6433 58.0634C30.659 58.0634 30.722 58.1418 30.6433 58.0634C30.6118 58.032 30.5803 58.0007 30.5488 57.9693C30.5646 57.9693 30.6433 58.0791 30.5488 57.9693C30.4859 57.8439 30.5174 57.9536 30.5488 57.9693C30.5488 57.938 30.5016 57.7498 30.5174 57.8752C30.5174 57.8439 30.5174 57.7968 30.5174 57.7655C30.5174 57.7655 30.5488 57.5773 30.5174 57.6871C30.5331 57.593 30.5646 57.4989 30.5961 57.4048C30.659 57.1853 30.7377 56.9658 30.7849 56.7463C30.9738 55.633 30.4229 54.6452 29.8091 53.7514C29.636 53.5006 29.274 53.3595 29.0064 53.5476C28.7546 53.7044 28.613 54.0807 28.8018 54.3473Z" fill="#231F20"/>
<path d="M49.8608 53.6726C49.3572 54.4409 48.8221 55.3346 48.8693 56.2911C48.8693 56.542 48.9323 56.7928 49.0109 57.028C49.0739 57.2475 49.1683 57.4671 49.1998 57.6866C49.1841 57.5455 49.1683 57.9061 49.1998 57.765C49.1998 57.7963 49.1841 57.8904 49.1683 57.9061L49.1998 57.8434C49.1998 57.8434 49.1683 57.8904 49.1526 57.9218C49.1526 57.9218 49.1211 57.9845 49.1054 57.9845L49.1526 57.9375C49.1526 57.9375 49.1211 57.9845 49.0896 58.0002C49.0582 58.0315 49.0267 58.0629 48.9952 58.0786C49.1211 57.9845 48.9637 58.0786 48.9323 58.1099C48.8693 58.1413 48.8063 58.1883 48.7276 58.2197C48.8693 58.157 48.7276 58.2197 48.6962 58.2197C48.649 58.2197 48.6017 58.2511 48.5703 58.2667C48.3657 58.3295 48.1611 58.3608 47.9564 58.3922C47.7518 58.4235 48.0194 58.3922 47.8935 58.3922C47.8463 58.3922 47.7833 58.3922 47.7361 58.4079C47.6102 58.4079 47.4843 58.4235 47.3584 58.4392C47.1066 58.4392 46.8547 58.4392 46.6029 58.4392C46.1622 58.4079 45.8002 58.3608 45.3123 58.2197C45.2337 58.1883 45.1392 58.1727 45.0605 58.1413C44.9031 58.0786 45.155 58.204 45.0133 58.1256C44.9661 58.0943 44.9189 58.0786 44.8717 58.0472C44.8244 58.0159 44.7772 58.0002 44.7457 57.9688C44.7143 57.9375 44.6671 57.8904 44.6356 57.8591C44.7143 57.9531 44.6041 57.7963 44.5884 57.765C44.5569 57.7179 44.5411 57.6709 44.5254 57.6239C44.5726 57.7493 44.5254 57.5925 44.5254 57.5768C44.4939 57.4671 44.4625 57.3416 44.431 57.2162C44.4152 57.1064 44.3838 57.0124 44.368 56.9026C44.368 56.8869 44.3365 56.6831 44.368 56.8399C44.368 56.7928 44.368 56.7458 44.368 56.6988C44.368 56.6517 44.368 56.6047 44.368 56.5576C44.3838 56.6831 44.3523 56.7144 44.368 56.636C44.368 56.5733 44.3838 56.4949 44.3995 56.4165C44.3995 56.2127 44.368 56.0088 44.3365 55.805C44.2893 55.5071 43.8959 55.3033 43.6126 55.3973C43.282 55.5071 43.1404 55.7893 43.2034 56.1186C43.2034 56.1343 43.2348 56.3381 43.2034 56.1813C43.2034 56.2127 43.2034 56.2597 43.2034 56.2911C43.2034 56.3381 43.2034 56.3852 43.2034 56.4479C43.2034 56.542 43.2348 56.2754 43.2034 56.3695C43.2034 56.4322 43.1876 56.4949 43.1719 56.5576C43.1719 56.6204 43.1719 56.6674 43.1719 56.7301C43.2034 57.2162 43.3135 57.7179 43.5024 58.157C43.9588 59.1918 45.1077 59.4427 46.1308 59.5682C46.6501 59.6309 47.1695 59.6466 47.6889 59.5995C48.1453 59.5525 48.6332 59.5054 49.0739 59.333C49.5146 59.1605 49.9395 58.9253 50.1914 58.5019C50.4904 58.0159 50.4117 57.4514 50.2543 56.934C50.2071 56.8085 50.1756 56.6831 50.1284 56.542C50.1284 56.4792 50.0969 56.4322 50.0969 56.3695C50.0969 56.2911 50.0969 56.2911 50.0969 56.3695C50.0969 56.3381 50.0969 56.2911 50.0969 56.2597C50.0969 56.197 50.0969 56.15 50.0969 56.0872C50.0969 56.0559 50.1284 55.852 50.0969 55.9618C50.1127 55.8364 50.1441 55.7109 50.1914 55.5855C50.2071 55.5385 50.2228 55.4757 50.2543 55.4287C50.2858 55.366 50.2858 55.3503 50.2543 55.413C50.2543 55.3817 50.2858 55.3503 50.3015 55.3033C50.3645 55.1778 50.4274 55.0524 50.4904 54.9426C50.6163 54.7074 50.7737 54.4722 50.9153 54.2527C51.0885 54.0018 50.9783 53.5942 50.7107 53.453C50.4117 53.2962 50.0812 53.3903 49.9081 53.6569L49.8608 53.6726Z" fill="#231F20"/>
<path d="M31.5093 19.9302C31.6667 19.742 31.8398 19.5539 32.0286 19.3814C32.0759 19.35 32.1073 19.303 32.1546 19.2716C32.2332 19.2089 32.1231 19.2873 32.2175 19.2246C32.3119 19.1619 32.4064 19.0835 32.5165 19.0208C32.6267 18.958 32.7211 18.8953 32.8156 18.8483C32.8628 18.8169 32.91 18.8012 32.9572 18.7856C32.9887 18.7856 33.0044 18.7699 33.0359 18.7542C32.9572 18.7856 33.1146 18.7228 33.0359 18.7542C33.2563 18.6758 33.4609 18.6131 33.6812 18.566C33.7284 18.566 33.7756 18.5504 33.8386 18.5347C33.8543 18.5347 33.996 18.5033 33.933 18.519C33.8701 18.5347 34.0117 18.519 34.0275 18.519C34.0904 18.519 34.1534 18.519 34.2006 18.519C34.4367 18.519 34.6727 18.519 34.9088 18.5504C34.8144 18.5504 34.956 18.5504 34.9875 18.5504C35.0505 18.5504 35.1134 18.566 35.1606 18.5817C35.3023 18.6131 35.4439 18.6444 35.5699 18.6758C35.7902 18.7385 36.0892 18.8483 36.2466 18.911C36.766 19.1305 37.3483 19.4755 37.8362 19.8204C38.0881 19.9929 38.4973 19.8675 38.6389 19.6166C38.7963 19.3187 38.7019 19.0051 38.4343 18.8169C37.4742 18.1427 36.3725 17.5782 35.2079 17.4057C34.1219 17.2489 33.0359 17.4057 32.0759 17.9232C31.525 18.2211 31.0371 18.6444 30.6436 19.1148C30.4548 19.35 30.3918 19.7107 30.6436 19.9459C30.864 20.1497 31.2732 20.1967 31.4778 19.9459L31.5093 19.9302Z" fill="#231F20"/>
<path d="M38.3559 17.1696C38.3559 17.1696 38.4346 17.248 38.466 17.295L38.3716 17.1696C38.5447 17.3891 38.6864 17.64 38.7965 17.9065L38.7336 17.7654C38.8595 18.079 38.9539 18.3926 39.0011 18.7219V18.5651C39.0011 18.7532 39.0169 18.9414 39.0011 19.1296C39.0011 19.2864 39.0641 19.4431 39.1743 19.5529C39.2844 19.6627 39.4418 19.7254 39.5992 19.7254C39.9297 19.7254 40.1816 19.4745 40.1973 19.1296C40.1973 18.3456 40.0084 17.5459 39.5992 16.8717C39.4733 16.6678 39.3474 16.4953 39.19 16.3229C39.0956 16.2131 38.9067 16.1504 38.7651 16.1504C38.6234 16.1504 38.4503 16.2131 38.3401 16.3229C38.2299 16.4326 38.167 16.5894 38.167 16.7462C38.167 16.903 38.2299 17.0441 38.3401 17.1696H38.3559Z" fill="#231F20"/>
<path d="M17.3912 40.3763C17.3912 40.3763 17.4856 40.2352 17.5486 40.1724L17.4542 40.2979C17.8319 39.7961 18.2883 39.3571 18.792 38.9651L18.666 39.0592C18.8707 38.9024 19.0753 38.7613 19.2956 38.6201C19.4215 38.5417 19.5317 38.4163 19.5632 38.2752C19.5946 38.1341 19.5789 37.9459 19.5002 37.8205C19.4215 37.695 19.2956 37.5853 19.154 37.5539C19.0123 37.5226 18.8392 37.5226 18.6975 37.6166C18.005 38.04 17.3755 38.5731 16.8561 39.1846C16.683 39.3884 16.5256 39.5923 16.3682 39.7961C16.2895 39.9059 16.2738 40.1097 16.3052 40.2508C16.3367 40.392 16.4469 40.5331 16.5728 40.5958C16.7144 40.6742 16.8718 40.7056 17.0292 40.6585L17.1709 40.5958C17.2653 40.5488 17.3283 40.4704 17.3755 40.392L17.3912 40.3763Z" fill="#231F20"/>
<path d="M31.2572 36.0635C32.1091 36.0635 32.7996 35.3755 32.7996 34.5269C32.7996 33.6782 32.1091 32.9902 31.2572 32.9902C30.4054 32.9902 29.7148 33.6782 29.7148 34.5269C29.7148 35.3755 30.4054 36.0635 31.2572 36.0635Z" fill="#231F20"/>
<path d="M47.2797 36.0635C48.1315 36.0635 48.8221 35.3755 48.8221 34.5269C48.8221 33.6782 48.1315 32.9902 47.2797 32.9902C46.4279 32.9902 45.7373 33.6782 45.7373 34.5269C45.7373 35.3755 46.4279 36.0635 47.2797 36.0635Z" fill="#231F20"/>
<path d="M39.2686 38.3058C40.9114 38.3058 42.2432 37.4844 42.2432 36.4713C42.2432 35.4581 40.9114 34.6367 39.2686 34.6367C37.6257 34.6367 36.2939 35.4581 36.2939 36.4713C36.2939 37.4844 37.6257 38.3058 39.2686 38.3058Z" fill="#231F20"/>
</svg>
