<svg width="80" height="76" viewBox="0 0 80 76" fill="none" xmlns="http://www.w3.org/2000/svg">
<path d="M28.625 49.6457C27.5705 49.975 26.7521 50.9628 26.6105 52.0761C26.516 52.8287 26.8308 54.4438 27.7909 54.5535C27.2872 55.0866 27.0984 55.902 27.3187 56.5919C27.5391 57.2818 28.1214 57.8306 28.8296 58.0188C28.9398 58.5519 29.1916 59.2731 29.6323 59.6338C29.9628 59.916 30.4035 60.0415 30.8442 60.0885C32.0089 60.1983 33.1735 59.6181 33.8188 58.6616C34.59 59.2104 35.015 60.0728 36.0222 60.3394C36.9194 60.5746 37.9896 60.1826 38.3673 59.3515C39.1385 60.2923 40.6494 60.5589 41.6882 59.916C43.1519 61.0136 45.6071 60.7 47.0551 59.6965C48.1253 60.6216 50.014 60.2923 51.1786 59.6965C52.5637 58.9752 53.4922 57.4856 53.5395 55.9333C54.9402 55.165 55.0346 52.8131 53.6968 51.935C54.3264 50.8688 53.6968 49.2851 52.485 48.9558C52.9099 48.1562 52.7525 47.1683 52.3433 46.3687C51.5406 44.785 49.9038 43.7658 48.1726 43.2954C46.4413 42.825 44.6471 42.8564 42.8686 42.8878C40.6967 42.9191 38.5404 42.9505 36.3685 42.9818C34.9205 42.9975 33.1893 42.8094 31.7885 43.2797C29.6166 44.0167 26.6577 47.4663 28.6093 49.6771L28.625 49.6457Z" fill="white"/>
<path d="M31.4109 43.2486C30.6397 43.5465 29.9629 43.9855 29.3176 44.4873C28.7353 44.942 28.1844 45.4594 27.791 46.0866C27.0198 47.3253 27.0827 48.9874 28.2789 49.9125V48.8933C27.1457 49.5832 26.2171 50.6808 26.044 52.0293C25.8866 53.2366 26.4532 54.5537 27.5549 55.1495C28.2159 55.5102 28.814 54.491 28.153 54.1303C27.4447 53.7383 27.0985 52.876 27.2244 52.1076C27.366 51.1512 28.0743 50.3986 28.8769 49.9125C29.2862 49.6616 29.2232 49.1598 28.8769 48.8933C28.5622 48.6581 28.452 48.2034 28.452 47.8271C28.452 47.341 28.6566 46.8706 28.9556 46.4629C29.2862 46.0239 29.7268 45.6476 30.1518 45.3026C30.6397 44.9263 31.1591 44.5813 31.7257 44.3618C32.0247 44.2521 32.2293 43.9698 32.1349 43.6406C32.0562 43.3583 31.7099 43.1074 31.4109 43.2329V43.2486Z" fill="#231F20"/>
<path d="M27.4605 57.6581L28.7983 56.8428C28.9242 56.7644 29.0344 56.639 29.0659 56.4978C29.0974 56.4194 29.0974 56.341 29.0659 56.2626C29.0659 56.1842 29.0344 56.1058 29.0029 56.0431C28.9242 55.9177 28.7983 55.8079 28.6567 55.7766C28.515 55.7452 28.3419 55.7452 28.2002 55.8393L26.8625 56.6546C26.7365 56.733 26.6264 56.8585 26.5949 56.9996C26.5634 57.078 26.5634 57.1564 26.5949 57.2348C26.5949 57.3132 26.6264 57.3916 26.6579 57.4543C26.7365 57.5797 26.8625 57.6895 27.0041 57.7209C27.1458 57.7522 27.3189 57.7522 27.4605 57.6581Z" fill="#231F20"/>
<path d="M28.1843 58.5519C28.326 59.3829 28.8926 60.1356 29.6323 60.5276C30.4507 60.9666 31.395 60.9509 32.2292 60.5589C32.6699 60.3551 33.0476 60.0101 33.3309 59.6025C33.504 59.3516 33.3938 58.9439 33.1263 58.8028C32.8273 58.646 32.5125 58.7401 32.3236 59.0066C32.2921 59.0537 32.1977 59.1477 32.3236 59.0066C32.2921 59.038 32.2764 59.0693 32.2449 59.1007C32.1977 59.1634 32.1348 59.2105 32.0875 59.2732C32.0561 59.3045 32.0246 59.3202 31.9931 59.3516C31.9144 59.4143 32.1033 59.2732 32.0246 59.3359C31.9616 59.3829 31.8987 59.43 31.8357 59.4613C31.7728 59.4927 31.6941 59.5397 31.6311 59.5711C31.5839 59.5868 31.5052 59.6025 31.6626 59.5711C31.6311 59.5711 31.5839 59.6025 31.5524 59.6181C31.4108 59.6652 31.2534 59.6965 31.096 59.7279H31.2534C31.0645 59.7279 30.8599 59.7279 30.671 59.7122H30.8284C30.7183 59.7122 30.5924 59.6965 30.4822 59.6495C30.435 59.6338 30.372 59.6181 30.3248 59.5868C30.3563 59.5868 30.4664 59.6495 30.372 59.6025C30.3405 59.6025 30.3248 59.5711 30.2933 59.5711C30.1989 59.5241 30.1045 59.4613 30.01 59.3986C29.9156 59.3359 30.01 59.3986 30.0415 59.4143C30.0415 59.4143 29.9943 59.3673 29.9785 59.3516C29.9313 59.3202 29.8841 59.2732 29.8526 59.2261C29.8212 59.1791 29.7739 59.1477 29.7267 59.1007C29.711 59.085 29.6952 59.0693 29.6795 59.038C29.6008 58.9439 29.7425 59.1164 29.6952 59.0693C29.6323 58.9753 29.5693 58.8812 29.5221 58.7871C29.4906 58.7401 29.4749 58.6773 29.4434 58.6303C29.5379 58.8185 29.4434 58.6303 29.4434 58.5833C29.4119 58.4735 29.3805 58.3638 29.3647 58.254C29.349 58.1129 29.2073 57.9718 29.0972 57.909C28.9713 57.8306 28.7824 57.7993 28.6408 57.8463C28.4991 57.8934 28.3575 57.9874 28.2945 58.1129C28.2158 58.254 28.2158 58.3951 28.2315 58.5676L28.1843 58.5519Z" fill="#231F20"/>
<path d="M33.0949 53.2679C32.3709 54.5536 32.6542 56.3255 33.7874 57.2819L33.693 56.5763C32.8903 57.7053 33.2366 59.4457 34.2911 60.3081C35.5344 61.3116 37.3601 61.1705 38.5877 60.2141C39.3275 59.6182 39.7996 58.6931 39.595 57.7366C39.5321 57.4387 39.1543 57.2349 38.871 57.329C38.5563 57.4387 38.3831 57.7366 38.4618 58.0502C38.4618 58.0502 38.4776 58.207 38.4618 58.113C38.4618 58.0346 38.4618 58.1443 38.4618 58.16C38.4618 58.207 38.4461 58.4109 38.4618 58.2698C38.4618 58.3325 38.4304 58.3952 38.4146 58.4579C38.4146 58.505 38.3831 58.5363 38.3831 58.5677C38.3831 58.5834 38.3674 58.6147 38.3517 58.6304C38.3831 58.5677 38.3831 58.5677 38.3517 58.599C38.273 58.7245 38.21 58.8499 38.1313 58.9597C38.1943 58.8656 38.1313 58.944 38.1313 58.9597C38.0998 58.991 38.0684 59.0224 38.0526 59.0538C37.9897 59.1165 37.9267 59.1792 37.8638 59.2262C37.8323 59.2576 37.8008 59.2889 37.7693 59.3046C37.8638 59.2419 37.7851 59.3046 37.7693 59.3046C37.7221 59.336 37.6592 59.383 37.6119 59.4144C37.549 59.4614 37.4703 59.4928 37.4073 59.5398C37.3759 59.5398 37.3444 59.5712 37.3286 59.5869C37.3129 59.6025 37.1713 59.6496 37.2972 59.6025C37.1713 59.6496 37.0453 59.6966 36.9037 59.728C36.8407 59.7437 36.762 59.7593 36.6991 59.775C36.6676 59.775 36.6361 59.775 36.6047 59.7907C36.7463 59.7593 36.6047 59.7907 36.5732 59.7907C36.4315 59.7907 36.2899 59.7907 36.1482 59.7907C36.0853 59.7907 36.0223 59.7907 35.9594 59.775C36.101 59.7907 35.8807 59.7593 35.8335 59.7437C35.7705 59.728 35.6918 59.7123 35.6289 59.6809C35.5974 59.6809 35.3928 59.5869 35.5187 59.6496C35.377 59.5869 35.2511 59.5085 35.1252 59.4301C35.1095 59.4301 35.0308 59.3673 35.0937 59.4144C35.1724 59.4771 35.0623 59.383 35.0623 59.383C35.015 59.3517 34.9836 59.3046 34.9364 59.2733C34.8891 59.2262 34.8577 59.1792 34.8104 59.1321C34.8891 59.2419 34.7475 59.0694 34.8104 59.1321C34.7947 59.1008 34.7632 59.0694 34.7475 59.0381C34.6845 58.944 34.6216 58.8342 34.5744 58.7245C34.6058 58.8186 34.5114 58.599 34.5744 58.7245C34.5744 58.6931 34.5429 58.6618 34.5429 58.6304C34.5271 58.5677 34.4957 58.4893 34.4799 58.4266C34.4642 58.3638 34.4485 58.2854 34.4327 58.2227C34.4327 58.1443 34.4012 58.2227 34.4327 58.2541C34.4327 58.2384 34.4327 58.1443 34.4327 58.1286C34.4327 58.0659 34.4327 57.9875 34.4327 57.9248C34.4327 57.8934 34.4327 57.8621 34.4327 57.8464C34.4327 57.815 34.4327 57.7837 34.4327 57.768V57.8464C34.4327 57.8464 34.4485 57.6896 34.4642 57.6426C34.4799 57.5798 34.5114 57.5171 34.5271 57.4387C34.5744 57.3133 34.4799 57.5171 34.5271 57.4387C34.5429 57.4074 34.5586 57.3603 34.5901 57.329C34.6216 57.2662 34.6688 57.2035 34.716 57.1408C34.8577 56.937 34.8104 56.592 34.6216 56.4352C34.5114 56.3411 34.417 56.2471 34.3225 56.1373C34.2753 56.0903 34.2753 56.0746 34.3225 56.1373C34.3068 56.1059 34.2753 56.0746 34.2596 56.0432C34.2281 55.9962 34.1809 55.9335 34.1494 55.8708C34.1179 55.808 34.0865 55.7453 34.055 55.6669C34.0707 55.7296 34.0078 55.5728 34.055 55.6669C34.055 55.6356 34.0235 55.6042 34.0235 55.5572C33.9763 55.4317 33.9448 55.2906 33.9133 55.1495C33.9133 55.1181 33.9133 55.0868 33.9133 55.0554C33.9133 55.1652 33.9133 54.977 33.9133 55.0554C33.9133 54.977 33.9133 54.9143 33.9133 54.8359C33.9133 54.7732 33.9133 54.7104 33.9133 54.632C33.9133 54.6007 33.9133 54.5536 33.9133 54.5223C33.9133 54.5066 33.9448 54.3812 33.9133 54.4752C33.8819 54.5693 33.9133 54.4282 33.9133 54.4282C33.9133 54.3968 33.9133 54.3655 33.9291 54.3341C33.9448 54.2557 33.9606 54.193 33.992 54.1146C33.992 54.0833 34.0235 54.0519 34.0235 54.0049C34.0865 53.8794 34.0235 53.9735 34.0235 54.0049C34.055 53.9421 34.0865 53.8794 34.1179 53.801C34.2753 53.5345 34.1966 53.1425 33.9133 53.0013C33.63 52.8602 33.2681 52.9229 33.1107 53.2052L33.0949 53.2679Z" fill="#231F20"/>
<path d="M38.9025 53.848C38.9497 53.9264 38.9969 54.0205 39.0284 54.1146L38.9655 53.9734C39.0599 54.2086 39.1386 54.4595 39.1701 54.7261V54.5693C39.1701 54.8358 39.1701 55.1181 39.1543 55.4003V55.2435C39.1386 55.5101 39.0756 55.7609 38.9655 56.0118L39.0284 55.8707C38.9497 56.0589 38.8396 56.247 38.7137 56.4195C38.635 56.5449 38.6192 56.7331 38.6507 56.8742C38.6822 57.0153 38.7923 57.1564 38.9183 57.2192C39.0599 57.2976 39.2173 57.3289 39.3747 57.2819C39.5321 57.2348 39.6265 57.1408 39.7209 57.0153C40.319 56.1843 40.4921 55.071 40.2403 54.0832C40.1616 53.801 40.0514 53.5187 39.9098 53.2679C39.7681 53.0013 39.3589 52.8915 39.1071 53.064C38.8553 53.2365 38.7294 53.5814 38.9025 53.8637V53.848Z" fill="#231F20"/>
<path d="M40.9643 53.4562C40.681 54.0677 40.5708 54.742 40.6495 55.4005C40.6967 55.7455 40.7597 56.0904 40.8698 56.4197C40.9171 56.5608 40.9643 56.7019 41.0272 56.8274C41.0587 56.8901 41.0902 56.9685 41.1059 57.0312C41.1059 57.0626 41.1059 57.0782 41.1217 57.1096C41.1217 57.1566 41.1217 57.141 41.1217 57.0939V57.1566C41.1217 57.2821 41.1217 57.188 41.1217 57.1566C41.1217 57.188 41.1059 57.235 41.0902 57.2664C41.0744 57.3448 41.0587 57.4075 41.043 57.4859C40.9957 57.6741 40.98 57.8622 40.9485 58.0661C40.9171 58.3953 40.9485 58.7089 40.9957 59.0382C41.1217 59.6811 41.4836 60.2299 42.0188 60.5905C42.6168 60.9982 43.3723 61.0609 44.0333 60.763C44.3166 60.6376 44.4111 60.2142 44.2379 59.9633C44.0491 59.6811 43.7343 59.6184 43.4352 59.7595C43.5454 59.7125 43.4352 59.7595 43.388 59.7595C43.3566 59.7595 43.3251 59.7595 43.3093 59.7752C43.2464 59.7909 43.3566 59.7752 43.3566 59.7752C43.3093 59.7909 43.2464 59.7752 43.1992 59.7752C43.1677 59.7752 43.1362 59.7752 43.1047 59.7752C43.089 59.7752 42.9946 59.7595 43.0733 59.7752C43.152 59.7909 42.9946 59.7595 42.9788 59.7438C42.9316 59.7438 42.8844 59.7125 42.8372 59.6968C42.7585 59.6654 42.9316 59.7438 42.8529 59.6968C42.8372 59.6968 42.8057 59.6811 42.79 59.6654C42.7427 59.6341 42.6798 59.6027 42.6326 59.5713C42.6011 59.5557 42.5854 59.54 42.5539 59.5243C42.6483 59.6027 42.5696 59.5243 42.5539 59.5243C42.5224 59.4929 42.4909 59.4616 42.4594 59.4302C42.428 59.3989 42.3335 59.2577 42.4122 59.3832C42.3808 59.3361 42.3335 59.2734 42.3021 59.2264C42.2706 59.1793 42.2391 59.1166 42.2234 59.0696C42.1919 59.0069 42.2234 59.0696 42.2234 59.0853C42.2234 59.0539 42.1919 59.0225 42.1919 58.9912C42.1762 58.9285 42.1604 58.8814 42.1447 58.8187C42.1447 58.7873 42.1447 58.7717 42.1289 58.7403C42.1289 58.7403 42.0975 58.5835 42.1289 58.6619C42.1289 58.7246 42.1289 58.6462 42.1289 58.6305C42.1289 58.5992 42.1289 58.5678 42.1289 58.5208C42.1289 58.4581 42.1289 58.3954 42.1289 58.3326C42.1289 58.2699 42.1289 58.2072 42.1289 58.1445C42.1289 58.1131 42.1447 57.9093 42.1289 58.0347C42.1761 57.7368 42.2706 57.4546 42.2863 57.1566C42.3021 56.8587 42.1761 56.5765 42.066 56.2943C41.9715 56.0277 41.8929 55.7611 41.8299 55.4946C41.8299 55.4632 41.8299 55.4475 41.8299 55.4162C41.8299 55.3692 41.8142 55.2908 41.8299 55.3848C41.8299 55.3064 41.8142 55.2437 41.8142 55.1653C41.8142 55.0242 41.8142 54.8674 41.8142 54.7263C41.8142 54.6949 41.8142 54.6479 41.8142 54.6165C41.8142 54.5695 41.8142 54.5538 41.8142 54.6165C41.8142 54.5381 41.8456 54.4597 41.8614 54.3813C41.8771 54.3186 41.8929 54.2402 41.9243 54.1775C41.9243 54.1461 41.9401 54.1304 41.9558 54.0991C42.0188 53.9266 41.9086 54.1932 41.9873 54.0364C42.1132 53.7541 42.0817 53.3935 41.7827 53.2367C41.5151 53.0956 41.1217 53.1583 40.98 53.4405L40.9643 53.4562Z" fill="#231F20"/>
<path d="M45.3238 60.9825C46.2367 61.0138 47.0708 60.418 47.48 59.6183C47.9522 58.7089 47.8892 57.6584 47.6531 56.7019L47.4957 57.2664C48.6762 56.3099 48.9595 54.5381 48.2669 53.221C48.1253 52.9544 47.7161 52.8447 47.4643 53.0171C47.181 53.1896 47.1023 53.5346 47.2597 53.8168C47.2754 53.8482 47.2911 53.8795 47.3069 53.9266C47.3069 53.9266 47.3541 54.0363 47.3226 53.9579C47.2911 53.8795 47.3384 54.005 47.3384 54.0206C47.3384 54.052 47.3541 54.0834 47.3698 54.1147C47.3856 54.1774 47.4171 54.2558 47.4328 54.3186C47.4328 54.3656 47.4643 54.5538 47.4485 54.4126C47.4643 54.5538 47.48 54.6949 47.4643 54.836C47.4643 54.9144 47.4643 54.9928 47.4485 55.0712C47.4485 54.9301 47.4485 55.1339 47.4328 55.1653C47.4013 55.3064 47.3698 55.4475 47.3069 55.5729C47.3069 55.5729 47.2597 55.6827 47.3069 55.62C47.3384 55.5416 47.2911 55.667 47.2754 55.6827C47.2439 55.7454 47.2125 55.8081 47.181 55.8709C47.1495 55.9336 47.1023 55.9963 47.0708 56.0433C47.0551 56.0747 47.0393 56.0904 47.0078 56.1217C46.9134 56.2315 46.8032 56.3413 46.6773 56.4353C46.5199 56.5608 46.4727 56.8116 46.5199 56.9998C46.5672 57.188 46.5986 57.3761 46.6301 57.5643C46.6301 57.6113 46.6301 57.6113 46.6301 57.5643V57.627C46.6301 57.627 46.6459 57.7211 46.6459 57.7838C46.6459 57.8779 46.6459 57.972 46.6459 58.0504C46.6459 58.1444 46.6459 58.2542 46.6459 58.3483V58.411C46.6459 58.458 46.6301 58.5051 46.6144 58.5521C46.5986 58.6462 46.5672 58.7246 46.5514 58.8187C46.5514 58.8657 46.5199 58.9127 46.5042 58.9598C46.5357 58.8814 46.5042 58.9284 46.5042 58.9755C46.4727 59.0382 46.4413 59.1166 46.394 59.1793C46.3783 59.2107 46.3468 59.242 46.3311 59.2891C46.2839 59.3675 46.4098 59.195 46.3311 59.3047C46.2839 59.3675 46.2367 59.4145 46.1737 59.4772C46.1422 59.5086 46.1107 59.5399 46.0793 59.5556C46.0006 59.634 46.1107 59.5399 46.0635 59.5556C46.0006 59.587 45.9376 59.634 45.8747 59.6811C45.8747 59.6811 45.733 59.7438 45.8117 59.7124C45.8904 59.6811 45.7645 59.7281 45.7487 59.7438C45.6701 59.7751 45.5914 59.7908 45.5127 59.8065C45.5914 59.8065 45.5599 59.8065 45.5127 59.8065C45.4655 59.8065 45.4182 59.8065 45.371 59.8065C45.0562 59.8065 44.7729 60.0887 44.7729 60.4023C44.7729 60.7159 45.0248 60.9825 45.371 60.9982L45.3238 60.9825Z" fill="#231F20"/>
<path d="M48.6763 44.346C48.9124 44.393 49.1327 44.4401 49.3531 44.5185C49.4632 44.5498 49.5734 44.5969 49.6836 44.6282L49.7623 44.6596C49.7623 44.6596 49.6364 44.5969 49.7465 44.6596C49.7938 44.691 49.8567 44.7066 49.9039 44.738C50.1085 44.8321 50.3131 44.9575 50.5177 45.083C50.6122 45.1457 50.7066 45.2084 50.7853 45.2711C50.7853 45.2711 50.6751 45.1927 50.7538 45.2554C50.7696 45.2711 50.801 45.2868 50.8168 45.3025C50.864 45.3338 50.9112 45.3809 50.9584 45.4279C51.1158 45.569 51.2732 45.7258 51.3991 45.8983C51.4935 46.0081 51.3519 45.8356 51.4148 45.914C51.4463 45.961 51.4778 45.9924 51.5093 46.0394C51.5722 46.1335 51.6352 46.2276 51.6824 46.3217C51.6981 46.3687 51.7296 46.4001 51.7454 46.4471C51.7611 46.4785 51.8241 46.5569 51.8083 46.5882C51.8083 46.5412 51.7768 46.4941 51.8083 46.5569C51.8083 46.5882 51.8241 46.6039 51.8398 46.6353C51.8555 46.698 51.887 46.745 51.9027 46.8077C51.9342 46.9018 51.95 47.0116 51.9814 47.1057C51.9814 47.137 51.9814 47.1527 51.9814 47.1841C51.9972 47.2938 51.9814 47.1684 51.9814 47.1527C51.9814 47.2154 51.9814 47.2781 51.9972 47.3408C51.9972 47.4663 51.9972 47.5917 51.9972 47.7015C51.9972 47.7328 51.9972 47.7485 51.9972 47.7799C52.0129 47.7799 51.9972 47.9053 51.9972 47.7799C51.9972 47.7956 51.9657 47.9367 51.9657 47.9524C51.9342 48.0778 51.9027 48.1876 51.8555 48.2973C51.8241 48.3757 51.9027 48.2032 51.8555 48.266C51.8555 48.2973 51.8241 48.3287 51.8083 48.36C51.7768 48.4228 51.7454 48.4855 51.7139 48.5325C51.5565 48.7991 51.6509 49.1911 51.9185 49.3322C52.186 49.4733 52.548 49.3949 52.7212 49.1283C53.3192 48.1562 53.272 46.9645 52.8156 45.961C52.3906 45.0359 51.588 44.299 50.7066 43.8286C50.1715 43.5307 49.5892 43.3268 48.9911 43.2171C48.692 43.17 48.3458 43.2955 48.2671 43.6247C48.2041 43.907 48.3615 44.2833 48.6763 44.346Z" fill="#231F20"/>
<path d="M53.4294 50.9162C53.4294 50.9162 53.5395 50.8535 53.6025 50.8378L53.4609 50.9005C53.6025 50.8378 53.7442 50.8065 53.9015 50.7751H53.7442C53.8543 50.7751 53.9488 50.7751 54.0589 50.7751C54.1376 50.7751 54.2163 50.7751 54.2793 50.7281C54.358 50.6967 54.4209 50.6653 54.4681 50.6026C54.5311 50.5556 54.5626 50.4929 54.594 50.4145C54.6255 50.3518 54.6413 50.2734 54.6413 50.195V50.0382C54.594 49.9441 54.5468 49.85 54.4681 49.7716L54.3422 49.6775C54.2478 49.6305 54.1534 49.5991 54.0432 49.5991C53.9645 49.5991 53.8858 49.5991 53.7914 49.5991C53.6655 49.5991 53.5238 49.6305 53.3979 49.6618C53.3192 49.6775 53.2405 49.7089 53.1618 49.7402C53.0359 49.7873 52.9257 49.8343 52.7998 49.897C52.7369 49.9284 52.6739 49.9911 52.6267 50.0538C52.5795 50.1166 52.5323 50.1793 52.5165 50.2577C52.4851 50.3361 52.4851 50.4145 52.5165 50.4929C52.5165 50.5713 52.548 50.6497 52.5795 50.7124L52.6739 50.8378C52.6739 50.8378 52.8313 50.9633 52.9415 50.9946H53.0989C53.209 51.0103 53.3035 50.9946 53.3979 50.9319L53.4294 50.9162Z" fill="#231F20"/>
<path d="M53.3506 52.7347C53.3506 52.7347 53.3506 52.7347 53.3821 52.766C53.4135 52.7974 53.445 52.8287 53.4922 52.8601C53.5237 52.8915 53.5394 52.9071 53.5709 52.9385C53.5709 52.9385 53.6654 53.0639 53.6339 53.0169C53.6024 52.9698 53.6968 53.0953 53.6811 53.0953C53.6968 53.1267 53.7283 53.158 53.744 53.1894C53.7913 53.2678 53.8227 53.3305 53.8542 53.4089C53.8857 53.4716 53.8542 53.3462 53.8542 53.4559C53.8542 53.503 53.8857 53.55 53.9014 53.597C53.9172 53.6754 53.9486 53.7538 53.9644 53.8479C53.9644 53.7695 53.9644 53.8479 53.9644 53.895C53.9644 53.9263 53.9644 53.9734 53.9644 54.0047C53.9644 54.0988 53.9644 54.1929 53.9644 54.287C53.9801 54.2086 53.9644 54.381 53.9644 54.287C53.9644 54.334 53.9486 54.381 53.9329 54.4281C53.9172 54.5065 53.8857 54.5849 53.8542 54.6633C53.8385 54.726 53.8857 54.6006 53.8385 54.6946C53.8227 54.726 53.807 54.7573 53.7913 54.7887C53.744 54.8671 53.6968 54.9455 53.6496 55.0239C53.6339 55.0553 53.6024 55.0866 53.6496 55.0239C53.6181 55.0553 53.5867 55.1023 53.5552 55.1337C53.4922 55.1964 53.445 55.2591 53.3821 55.3061C53.3821 55.3061 53.2719 55.4002 53.3191 55.3689C53.3663 55.3375 53.2404 55.4159 53.2404 55.4159C53.1617 55.4629 53.083 55.51 53.0043 55.557C52.7997 55.6668 52.6423 55.9961 52.7368 56.2156C52.784 56.341 52.8312 56.4664 52.8469 56.5919C52.8469 56.6232 52.8469 56.6389 52.8469 56.6703C52.8469 56.6076 52.8469 56.6076 52.8469 56.6703C52.8469 56.733 52.8469 56.7957 52.8469 56.8584C52.8469 56.9212 52.8469 56.9839 52.8469 57.0466C52.8469 57.078 52.8469 57.1093 52.8469 57.1564C52.8469 57.0936 52.8469 57.0936 52.8469 57.1564C52.8155 57.2818 52.7997 57.3916 52.7525 57.517C52.7368 57.564 52.721 57.6111 52.7053 57.6738C52.7525 57.564 52.6581 57.7522 52.6581 57.7835C52.5951 57.8933 52.5322 58.0031 52.4692 58.1128C52.4692 58.1285 52.3748 58.2539 52.4377 58.1755C52.3905 58.2383 52.3433 58.2853 52.2961 58.3323C52.2174 58.4264 52.123 58.5048 52.0285 58.5989C51.9813 58.6459 51.9656 58.6459 52.0285 58.5989C52.0128 58.6146 51.9813 58.6303 51.9656 58.6459C51.9026 58.693 51.8554 58.7243 51.7924 58.7557C51.6665 58.8341 51.5406 58.8968 51.4147 58.9595C51.3518 58.9909 51.336 58.9909 51.3832 58.9595C51.3518 58.9595 51.3045 58.9909 51.2731 59.0066C51.2101 59.0223 51.1629 59.0536 51.0999 59.0693C50.9583 59.1163 50.8324 59.1477 50.6907 59.179C50.612 59.1947 50.5333 59.2104 50.4547 59.2261C50.5648 59.2261 50.376 59.2261 50.3602 59.2261C50.2186 59.2261 50.0769 59.2418 49.9353 59.2418C49.7936 59.2418 49.652 59.2418 49.5103 59.2418C49.4316 59.2418 49.3529 59.2418 49.2585 59.2261C49.1798 59.2261 49.1798 59.2261 49.227 59.2261C49.1798 59.2261 49.1483 59.2261 49.1011 59.2104C48.8021 59.1634 48.4558 59.2888 48.3771 59.6181C48.3142 59.9003 48.4558 60.2923 48.7863 60.3394C49.9038 60.5118 51.0527 60.4491 52.0915 59.963C53.0201 59.524 53.744 58.6616 53.9801 57.6581C54.1218 57.0936 54.106 56.4978 53.9014 55.949L53.6339 56.6076C54.5152 56.1685 55.0976 55.2748 55.192 54.3026C55.2864 53.3305 54.7828 52.3427 53.9801 51.7468C53.7283 51.5587 53.3034 51.6998 53.1775 51.9507C53.0201 52.2643 53.1302 52.5622 53.3821 52.7503L53.3506 52.7347Z" fill="#231F20"/>
<path d="M21.48 26.8936C20.9134 27.0348 20.3783 27.2856 19.8589 27.7874C18.9776 28.6184 18.5998 29.9512 18.9303 31.1115C17.9545 30.7979 16.8843 31.5662 16.5066 32.5227C16.1289 33.4792 16.2705 34.5454 16.3964 35.5646C16.4436 35.8938 16.4908 36.2074 16.5223 36.5367C16.7584 38.2458 16.963 39.8765 18.9146 40.5037C19.4655 41.9149 20.1422 42.9341 21.7476 43.3574C22.7706 43.624 23.9195 43.3574 24.7222 42.6832C25.336 42.1658 25.6351 42.0717 26.359 42.3069C27.2719 42.5891 27.146 42.9968 28.2005 42.8243C28.3106 44.2041 29.4123 45.3488 30.6872 45.9132C31.962 46.4777 33.3785 46.5875 34.7635 46.6815C37.4076 46.854 40.0517 47.0422 42.7116 46.9167C44.3484 46.8384 46.0167 46.8227 47.6378 46.4777C49.432 46.0857 50.5495 45.3488 50.9115 43.4515C51.2735 43.8278 51.84 43.9846 52.3752 43.9533C53.1464 43.9062 53.9176 43.5613 54.4842 43.0438C54.5943 42.9498 55.9164 41.5699 55.759 41.4288C56.9709 42.448 58.592 43.1693 60.1501 42.84C61.7082 42.5107 63.0145 40.8643 62.5266 39.3591C63.3293 39.1396 63.9746 38.481 64.1792 37.6813C64.3838 36.8817 64.1163 35.9879 63.5182 35.4235C62.1647 34.1534 63.9274 33.5419 63.6441 32.068C63.4395 31.0174 62.4322 30.3118 61.5036 29.7787C60.0871 28.9634 60.701 26.7839 58.8438 25.8745C58.4503 25.6863 54.1064 25.6863 54.1536 25.4354C54.4369 24.1026 54.012 22.6601 53.0519 21.6723C52.0919 20.6844 50.6596 20.2297 49.3218 20.4649C49.2117 20.4806 47.0712 18.7245 46.599 18.5677C45.5446 18.2227 44.4271 18.1286 43.4198 18.6461C43.3254 18.6931 43.2152 18.7558 43.1208 18.7715C43.0106 18.7715 42.8847 18.7401 42.7903 18.6931C40.8229 17.9248 38.4779 17.4858 36.6522 18.5833C36.5577 18.6304 36.4633 18.6931 36.3531 18.6931C35.0783 18.6147 34.3858 17.8307 32.9536 18.3795C32.5916 18.5206 30.4354 20.5433 30.7029 20.5904C28.9717 20.3395 27.146 21.3743 26.4692 22.9737C26.1702 23.6793 26.0915 24.4633 25.7924 25.1845C25.4934 25.9058 24.9268 26.5957 24.1556 26.6584C23.2113 26.7368 22.3299 26.6898 21.4958 26.8936H21.48Z" fill="white"/>
<path d="M32.0722 36.9756C32.924 36.9756 33.6146 36.2876 33.6146 35.439C33.6146 34.5903 32.924 33.9023 32.0722 33.9023C31.2203 33.9023 30.5298 34.5903 30.5298 35.439C30.5298 36.2876 31.2203 36.9756 32.0722 36.9756Z" fill="#231F20"/>
<path d="M48.0785 36.9756C48.9304 36.9756 49.6209 36.2876 49.6209 35.439C49.6209 34.5903 48.9304 33.9023 48.0785 33.9023C47.2267 33.9023 46.5361 34.5903 46.5361 35.439C46.5361 36.2876 47.2267 36.9756 48.0785 36.9756Z" fill="#231F20"/>
<path d="M40.0833 39.2179C41.7261 39.2179 43.0579 38.3966 43.0579 37.3834C43.0579 36.3702 41.7261 35.5488 40.0833 35.5488C38.4404 35.5488 37.1086 36.3702 37.1086 37.3834C37.1086 38.3966 38.4404 39.2179 40.0833 39.2179Z" fill="#231F20"/>
<path d="M25.5563 28.8536C24.2185 29.669 24.0297 31.5505 24.3917 32.9304C24.4861 33.3067 24.6435 33.6987 24.8638 34.028C25.0369 34.2788 25.3989 34.4199 25.6665 34.2318C25.9183 34.0593 26.06 33.6987 25.8711 33.4321C25.7924 33.3067 25.7294 33.1812 25.6665 33.0558L25.635 32.9931C25.635 32.9931 25.698 33.1499 25.6665 33.0558C25.6665 33.0244 25.635 32.9931 25.635 32.9617C25.6035 32.8833 25.5878 32.8049 25.5563 32.7422C25.5091 32.5854 25.4776 32.4443 25.4461 32.2875C25.4461 32.2561 25.4461 32.2091 25.4304 32.1777C25.4461 32.3345 25.4147 32.0523 25.4304 32.1777C25.4304 32.0993 25.4147 32.0053 25.4147 31.9269C25.4147 31.7701 25.4147 31.6133 25.4147 31.4565C25.4147 31.3781 25.4147 31.2997 25.4304 31.2213C25.4304 31.2056 25.4304 31.1742 25.4304 31.1585C25.4304 31.1585 25.3989 31.331 25.4304 31.2369C25.4304 31.1899 25.4304 31.1429 25.4461 31.1115C25.4776 30.9704 25.5091 30.8136 25.5563 30.6725C25.5563 30.6411 25.5721 30.6098 25.5878 30.5784C25.5878 30.5627 25.6508 30.4216 25.6035 30.5314C25.5563 30.6411 25.6035 30.5314 25.6193 30.5C25.635 30.4686 25.6508 30.4216 25.6822 30.3902C25.7137 30.3275 25.7609 30.2491 25.8081 30.1864C25.8081 30.1864 25.8239 30.155 25.8396 30.1394C25.9026 30.0453 25.8396 30.1707 25.8081 30.1864C25.8396 30.1864 25.8711 30.108 25.8868 30.0923C25.934 30.0296 25.997 29.9826 26.06 29.9198C26.1701 29.8258 25.9498 29.9982 26.0442 29.9198C26.0757 29.8885 26.1229 29.8728 26.1544 29.8414C26.422 29.6846 26.5479 29.3083 26.359 29.0418C26.1701 28.7752 25.8396 28.6655 25.5563 28.8379V28.8536Z" fill="#231F20"/>
<path d="M24.7535 34.8273C24.3286 35.1409 23.9666 35.5015 23.762 36.0033C23.5889 36.4423 23.5889 36.9597 23.6676 37.4301C23.7463 37.8535 23.9509 38.2925 24.1869 38.6532C24.423 39.0138 24.7378 39.4371 25.147 39.6096L24.9424 38.81C24.2027 39.8291 24.2342 41.303 24.9424 42.3222C25.7451 43.4669 27.2717 43.9529 28.5938 43.4669L27.8698 42.7456C27.5236 43.6393 27.8698 44.6428 28.4836 45.3171C29.0659 45.9443 29.8529 46.3833 30.6398 46.6812C32.1665 47.2457 33.8663 47.277 35.4716 47.1202C35.7864 47.0889 36.0697 46.8694 36.0697 46.5244C36.0697 46.2265 35.8021 45.8972 35.4716 45.9286C34.1023 46.0697 32.6701 46.0697 31.3323 45.662C30.2778 45.3328 28.4679 44.4076 29.003 43.0435C29.1604 42.6358 28.6882 42.1654 28.279 42.3222C27.4449 42.6358 26.4218 42.432 25.9182 41.6637C25.446 40.9581 25.4618 40.08 25.9654 39.4058C26.1385 39.1706 26.0284 38.7159 25.7608 38.6061C25.7451 38.6061 25.5719 38.4964 25.6506 38.5591C25.6034 38.5277 25.5562 38.4807 25.509 38.4336C25.3988 38.3239 25.3201 38.2298 25.2414 38.1044C25.0683 37.8378 24.9109 37.5556 24.848 37.242C24.785 37.0068 24.8007 36.6775 24.8637 36.458C24.9267 36.2541 25.1155 36.0346 25.3516 35.8622C25.6034 35.674 25.7293 35.3447 25.5562 35.0625C25.4146 34.8116 25.0054 34.6705 24.7535 34.8586V34.8273Z" fill="#231F20"/>
<path d="M54.484 27.9599C55.2709 28.3362 55.869 29.0105 56.0893 29.8729C56.3097 30.7353 56.0421 31.6917 55.4598 32.3503C55.2237 32.6168 55.2237 33.1029 55.5857 33.2754C56.4671 33.6987 57.0651 34.5925 57.0494 35.5803C57.0337 36.5681 56.3884 37.4305 55.507 37.8225C55.2237 37.948 55.145 38.3713 55.3024 38.6222C55.4755 38.9201 55.8218 38.9672 56.1051 38.826C57.3642 38.2616 58.2141 36.9288 58.2298 35.5646C58.2455 34.2005 57.4114 32.852 56.1838 32.2562L56.3097 33.1813C57.1753 32.2248 57.5373 30.9077 57.2697 29.6377C57.0179 28.4774 56.1838 27.4582 55.1135 26.9564C54.8302 26.8153 54.484 26.878 54.3109 27.1603C54.1535 27.4111 54.2322 27.8345 54.5155 27.9599H54.484Z" fill="#231F20"/>
<path d="M55.3182 40.5193C55.3811 40.974 55.2552 41.4444 55.0034 41.8521C54.7516 42.2598 54.3581 42.6204 53.9332 42.887C53.461 43.1692 52.9888 43.3574 52.438 43.4515C52.2491 43.4828 51.9501 43.5142 51.6825 43.4828C51.415 43.4515 51.1789 43.3887 50.99 43.2006C50.5808 42.8086 49.8254 43.2006 49.9985 43.765C50.1244 44.157 49.9513 44.6118 49.5735 44.894C49.1801 45.1919 48.7236 45.3644 48.283 45.5212C47.2914 45.8661 46.2369 46.1327 45.1982 46.0386C44.8834 46.0073 44.6001 46.3365 44.6001 46.6345C44.6001 46.9794 44.8677 47.1989 45.1982 47.2303C45.7962 47.293 46.4258 47.1989 47.0239 47.0892C47.6849 46.9637 48.3302 46.7913 48.944 46.5404C49.5263 46.3052 50.1716 46.0386 50.6123 45.5682C51.1159 45.0038 51.3835 44.2198 51.1474 43.4828L50.1559 44.0473C51.3205 45.1449 53.3036 44.6431 54.5312 43.9062C55.1451 43.5299 55.6959 43.0124 56.0579 42.4009C56.4514 41.7267 56.5615 40.9897 56.4514 40.2214C56.4041 39.9078 56.0107 39.7353 55.7274 39.8137C55.3811 39.9078 55.271 40.2214 55.3182 40.535V40.5193Z" fill="#231F20"/>
<path d="M26.6738 25.2941C26.6108 24.6042 26.6266 23.977 26.8784 23.3341C26.9099 23.2714 26.9728 23.146 27.0358 23.0205C27.0987 22.8951 27.1774 22.7853 27.2718 22.6756C27.2246 22.7383 27.3505 22.5815 27.3663 22.5658C27.4135 22.5188 27.445 22.4874 27.4922 22.4404C27.5551 22.3933 27.6024 22.3306 27.6653 22.2836C27.6968 22.2522 27.7283 22.2365 27.7598 22.2052C27.7283 22.2365 27.7283 22.2365 27.7598 22.2052C28.2477 21.8602 28.6254 21.7034 29.192 21.578C29.5068 21.4996 29.6327 21.4839 29.9632 21.4682C30.2779 21.4526 30.577 21.4682 30.8918 21.4682C31.1278 21.4839 31.4269 21.2801 31.4584 21.0292C31.5528 20.402 31.7731 19.963 32.1981 19.571C32.2138 19.5553 32.3397 19.4455 32.3082 19.4769C32.2768 19.5083 32.4027 19.3985 32.4342 19.3985C32.5601 19.3201 32.686 19.2417 32.8276 19.179C32.8591 19.1633 32.8906 19.1476 32.9378 19.1319C32.8906 19.1476 32.8906 19.1476 32.9535 19.1319C33.0007 19.1163 33.0637 19.0849 33.1109 19.0692C33.2526 19.0222 33.41 18.9751 33.5516 18.9595C33.7562 18.9124 33.7247 18.9281 33.9136 18.9124C34.0552 18.9124 34.1969 18.8967 34.3385 18.9124C34.4959 18.9124 34.6533 18.9124 34.8264 18.9438C34.8264 18.9438 35.0153 18.9751 34.9051 18.9438C34.9838 18.9438 35.0625 18.9751 35.1412 18.9908C35.4403 19.0535 35.7236 19.1319 36.0068 19.2417C36.0698 19.2731 36.0855 19.2731 36.0226 19.2417C36.0541 19.2417 36.1013 19.2731 36.1328 19.2887C36.1957 19.3201 36.2744 19.3515 36.3374 19.3985C36.479 19.4769 36.6049 19.5553 36.7308 19.6337C36.9984 19.8062 37.3919 19.6807 37.5335 19.4299C37.7066 19.1476 37.5807 18.8027 37.3289 18.6302C35.5819 17.4542 32.6702 17.3131 31.1593 18.9908C30.7029 19.4926 30.4196 20.1041 30.3094 20.7783L30.876 20.3393C29.5382 20.2452 28.106 20.4961 27.02 21.3271C25.7767 22.2836 25.3517 23.8202 25.4934 25.3411C25.5248 25.6547 25.7452 25.937 26.0914 25.937C26.3905 25.937 26.7053 25.6704 26.6895 25.3411L26.6738 25.2941Z" fill="#231F20"/>
<path d="M37.4233 16.6389C37.5334 16.7957 37.6279 16.9682 37.7066 17.1407L37.6436 16.9996C37.738 17.2191 37.801 17.4386 37.8325 17.6738V17.517C37.8325 17.517 37.8167 17.5484 37.8325 17.5641C37.8325 17.6425 37.8325 17.7209 37.8797 17.7836C37.9112 17.862 37.9426 17.9247 38.0056 17.9717C38.0528 18.0345 38.1158 18.0658 38.1945 18.0972C38.2574 18.1285 38.3361 18.1442 38.4148 18.1442H38.5722C38.6666 18.0972 38.761 18.0501 38.8397 17.9717L38.9342 17.8463C38.9814 17.7522 39.0129 17.6581 39.0129 17.5484C38.9814 17.2661 38.9342 16.9996 38.8397 16.7487C38.7453 16.4978 38.6194 16.247 38.462 16.0274C38.4305 15.9647 38.3676 15.902 38.3046 15.855C38.2417 15.8079 38.1787 15.7609 38.1 15.7452C38.0213 15.7138 37.9426 15.7138 37.8639 15.7452C37.7852 15.7452 37.7066 15.7766 37.6436 15.8079C37.5177 15.8863 37.4075 16.0118 37.376 16.1529V16.3097C37.3603 16.4194 37.376 16.5135 37.439 16.6076L37.4233 16.6389Z" fill="#231F20"/>
<path d="M41.6885 18.0342C41.72 17.8931 41.7515 17.7677 41.8144 17.6265L41.7515 17.7677C41.8144 17.6109 41.9089 17.4541 42.019 17.3129L41.9246 17.4384C42.0348 17.2973 42.1607 17.1718 42.2866 17.0777L42.1607 17.1718C42.2866 17.0777 42.444 16.9837 42.5856 16.9209L42.444 16.9837C42.444 16.9837 42.5384 16.9523 42.5856 16.9366C42.7273 16.8896 42.8532 16.7955 42.9319 16.6701C42.9791 16.6074 42.9948 16.529 42.9948 16.4506C43.0106 16.3722 42.9948 16.2938 42.9948 16.2154C42.9476 16.0742 42.8532 15.9331 42.7273 15.8704C42.6014 15.8077 42.4283 15.7606 42.2709 15.8077C41.9089 15.9331 41.5941 16.1213 41.3108 16.3722C41.1692 16.4976 41.059 16.6387 40.9488 16.7955C40.8701 16.9053 40.7914 17.0307 40.7442 17.1561C40.6655 17.3443 40.5868 17.5325 40.5553 17.7363C40.5239 17.8147 40.5239 17.8931 40.5553 17.9715C40.5553 18.0499 40.5868 18.1283 40.6183 18.191C40.6498 18.2537 40.7127 18.3165 40.7757 18.3635C40.8386 18.4105 40.9016 18.4576 40.9803 18.4733C41.1377 18.5046 41.2951 18.5046 41.4367 18.4105C41.5626 18.3321 41.6885 18.2067 41.7043 18.0656L41.6885 18.0342Z" fill="#231F20"/>
<path d="M43.5455 19.5239C44.2538 18.881 45.5286 18.7712 46.4415 19.0221C47.4173 19.2887 48.4875 19.9159 48.6449 20.9664C48.7078 21.3741 49.2115 21.4525 49.5105 21.3114C49.7151 21.2173 50.0299 21.1703 50.3132 21.1703C50.6437 21.1703 50.8955 21.2016 51.2103 21.2957C51.8241 21.4525 52.4064 21.7504 52.8314 22.1738C53.1776 22.5344 53.3665 23.0205 53.5239 23.5379C53.7128 24.1965 53.7757 24.9334 53.4295 25.5606C53.0675 26.2192 54.0748 26.815 54.4525 26.1564C55.1607 24.8864 54.8617 23.3184 54.2164 22.0797C53.6498 20.9821 52.375 20.2922 51.1788 20.0727C50.4076 19.9316 49.6364 19.9786 48.9282 20.2922L49.7938 20.6371C49.5735 19.1789 48.0783 18.2381 46.772 17.8775C45.4657 17.5169 43.7816 17.7364 42.7271 18.6772C42.1605 19.1789 42.9947 20.01 43.5613 19.5082L43.5455 19.5239Z" fill="#231F20"/>
<path d="M24.7693 26.3604C24.4388 25.9371 23.6361 25.9998 23.1639 26.0155C22.5816 26.0468 21.9835 26.0782 21.4327 26.2507C20.0005 26.7054 18.5368 27.8186 18.3007 29.3709C18.1748 30.249 18.3794 31.1428 19.0089 31.77L19.5755 30.7821C18.2535 30.4528 16.8842 31.0644 16.113 32.1463C15.2788 33.3223 15.3418 34.9059 15.9241 36.1603C16.05 36.4425 16.475 36.5209 16.7268 36.3641C17.0258 36.1917 17.0731 35.8467 16.9314 35.5645C16.5222 34.6864 16.5379 33.6045 17.0888 32.7891C17.2934 32.4755 17.6869 32.1776 18.0174 32.0365C18.1118 31.9895 18.222 31.9581 18.3322 31.9267C18.3951 31.9111 18.4581 31.8954 18.521 31.8797H18.584C18.7099 31.8797 18.8201 31.8797 18.946 31.8797C19.0876 31.8797 19.0719 31.8797 19.245 31.9267C19.8116 32.0679 20.2365 31.3623 19.8116 30.9389C19.6542 30.7821 19.5283 30.594 19.4811 30.3901C19.4653 30.3274 19.4496 30.2647 19.4339 30.2176C19.4339 30.2176 19.4024 30.0765 19.4181 30.1392C19.4181 30.202 19.4181 30.0922 19.4181 30.0922C19.4181 29.9511 19.4181 29.7943 19.4181 29.6532C19.4181 29.5591 19.4181 29.6532 19.4181 29.5591C19.4339 29.4807 19.4496 29.418 19.4653 29.3396C19.5126 29.1985 19.544 29.0887 19.5913 29.0103C19.7329 28.7281 19.8431 28.587 20.0634 28.3674C20.4726 27.9598 21.0077 27.6305 21.5271 27.4423C22.015 27.2698 22.3613 27.2385 22.8649 27.2071C23.1325 27.1914 23.3843 27.1758 23.6519 27.1914C23.7148 27.1914 23.762 27.1914 23.825 27.1914C23.9351 27.1914 23.825 27.1914 23.8092 27.1914C23.8407 27.1914 23.8565 27.1914 23.8879 27.1914C23.9509 27.2071 24.0453 27.2698 23.9194 27.1914C23.9981 27.2385 23.825 27.0817 23.9037 27.1914C24.0925 27.4423 24.5332 27.3953 24.7378 27.1914C24.9896 26.9406 24.9267 26.6113 24.7378 26.3604H24.7693Z" fill="#231F20"/>
<path d="M16.6954 37.5088L15.5779 38.3398C15.5779 38.3398 15.452 38.4339 15.4048 38.4966C15.3576 38.5594 15.3103 38.6221 15.2946 38.7005C15.2631 38.7789 15.2631 38.8573 15.2946 38.9357C15.2946 39.0141 15.3261 39.0925 15.3576 39.1552L15.452 39.2806C15.452 39.2806 15.6094 39.4061 15.7196 39.4374H15.8769C15.9871 39.4531 16.0815 39.4374 16.176 39.3747L17.2934 38.5437C17.2934 38.5437 17.4193 38.4496 17.4665 38.3869C17.5138 38.3242 17.561 38.2614 17.5767 38.183C17.6082 38.1046 17.6082 38.0262 17.5767 37.9478C17.5767 37.8694 17.5452 37.791 17.5138 37.7283L17.4193 37.6029C17.4193 37.6029 17.2619 37.4774 17.1518 37.4461H16.9944C16.8842 37.4304 16.7898 37.4461 16.6954 37.5088Z" fill="#231F20"/>
<path d="M17.2935 39.7511L16.6797 40.2685C16.6797 40.2685 16.5853 40.3783 16.5538 40.4567C16.5223 40.5194 16.5066 40.5978 16.5066 40.6762C16.5066 40.7546 16.5066 40.833 16.5538 40.8957C16.5853 40.9741 16.6168 41.0368 16.6797 41.0839L16.8056 41.178C16.9001 41.225 16.9945 41.2564 17.1047 41.2564H17.2621C17.3565 41.2093 17.4509 41.1623 17.5296 41.0839L18.1434 40.5664C18.1434 40.5664 18.2379 40.4567 18.2693 40.3783C18.3008 40.3156 18.3165 40.2372 18.3165 40.1588C18.3165 40.0804 18.3165 40.002 18.2693 39.9392C18.2379 39.8608 18.2064 39.7981 18.1434 39.7511L18.0175 39.657C17.9231 39.61 17.8286 39.5786 17.7185 39.5786H17.5611C17.4667 39.6257 17.3722 39.6727 17.2935 39.7511Z" fill="#231F20"/>
<path d="M18.8673 41.6954C19.1663 42.6362 20.032 43.3888 20.9606 43.7338C21.3068 43.8592 21.6845 43.8906 22.0623 43.8906C22.4715 43.8906 22.8964 43.8436 23.3056 43.7652C23.7463 43.6711 24.1555 43.5143 24.5175 43.232C24.6277 43.138 24.6906 42.9498 24.6906 42.8087C24.6906 42.6676 24.6277 42.4951 24.5175 42.3853C24.4073 42.2756 24.25 42.2129 24.0926 42.2129C23.9194 42.2129 23.8093 42.2756 23.6676 42.3853C23.8565 42.2442 23.6676 42.3853 23.6204 42.401C23.5889 42.4167 23.5575 42.4324 23.526 42.4481C23.526 42.4481 23.4945 42.4481 23.4788 42.4637C23.3843 42.5108 23.6204 42.401 23.526 42.4481C23.3843 42.4951 23.2427 42.5421 23.0853 42.5892C23.0066 42.6049 22.9279 42.6205 22.8492 42.6362C22.802 42.6362 22.7705 42.6362 22.7233 42.6519C22.7076 42.6519 22.6761 42.6519 22.6603 42.6519C22.8492 42.6205 22.739 42.6519 22.6918 42.6519C22.5187 42.6676 22.3613 42.6832 22.1882 42.6832C22.0151 42.6832 21.8577 42.6832 21.6845 42.6676H21.5744C21.5744 42.6676 21.7475 42.6989 21.6531 42.6676C21.6373 42.6676 21.6216 42.6676 21.6059 42.6676C21.5429 42.6676 21.4799 42.6362 21.4012 42.6205C21.3383 42.6049 21.2596 42.5735 21.1966 42.5578C21.1022 42.5265 21.2439 42.5735 21.2439 42.5735C21.2281 42.5735 21.1966 42.5578 21.1809 42.5421C21.1337 42.5108 21.0707 42.4951 21.0235 42.4637C20.9448 42.4167 20.8661 42.3697 20.7874 42.3069C20.7402 42.2756 20.7087 42.2442 20.6615 42.2285C20.5986 42.1815 20.693 42.2285 20.693 42.2599C20.693 42.2442 20.6301 42.2129 20.6143 42.1972C20.5199 42.1188 20.4412 42.0404 20.3625 41.962C20.331 41.9306 20.2838 41.8836 20.2523 41.8365C20.2523 41.8209 20.2208 41.8052 20.2051 41.7738C20.2051 41.7738 20.2051 41.7581 20.1894 41.7425C20.1579 41.7111 20.1894 41.7268 20.2208 41.7895C20.2208 41.7425 20.1579 41.6954 20.1264 41.6641C20.0949 41.617 20.0792 41.57 20.0477 41.5386C20.0162 41.4916 20.0005 41.4445 19.969 41.3975C19.969 41.3975 20.0162 41.5386 19.9848 41.4445C19.9848 41.4132 19.969 41.3818 19.9533 41.3505C19.8589 41.0525 19.5441 40.833 19.2293 40.9428C18.9303 41.0369 18.7099 41.3505 18.8201 41.6641L18.8673 41.6954Z" fill="#231F20"/>
<path d="M56.1052 26.4861C56.0738 26.4861 55.9951 26.5802 56.1052 26.4861C56.1052 26.4861 56.2784 26.4234 56.0738 26.4861C56.0895 26.4861 56.1052 26.4861 56.1367 26.4704C56.2312 26.4391 56.3256 26.4234 56.42 26.4077C56.3099 26.4391 56.42 26.4077 56.483 26.4077C56.5302 26.4077 56.5774 26.4077 56.6404 26.4077C56.7663 26.4077 56.8764 26.4077 57.0024 26.4077C57.1125 26.4077 57.207 26.4077 57.3171 26.4234C57.3801 26.4234 57.443 26.4234 57.506 26.4391C57.3958 26.4391 57.5375 26.4391 57.569 26.4391C57.7578 26.4704 57.9467 26.5018 58.1198 26.5488C58.592 26.6743 59.0641 26.9408 59.4261 27.2858C59.5206 27.3642 59.5992 27.4582 59.6779 27.5523C59.7094 27.5994 59.7566 27.6464 59.7881 27.6934C59.8039 27.7091 59.8196 27.7405 59.8353 27.7562C59.8038 27.7091 59.8353 27.7562 59.8353 27.7718C59.9927 27.9757 60.1344 28.1952 60.2603 28.4304C60.276 28.4618 60.3547 28.6342 60.3232 28.5402C60.339 28.6029 60.3547 28.6499 60.3704 28.7126C60.3704 28.7283 60.3704 28.7597 60.3704 28.7753C60.3704 28.7126 60.3704 28.7597 60.3704 28.791C60.3704 28.8694 60.3704 28.9478 60.3704 29.0262C60.3704 29.0262 60.3704 29.1203 60.3704 29.0733C60.3704 29.0262 60.3704 29.136 60.3547 29.136C60.339 29.1987 60.3232 29.2771 60.2918 29.3398C60.276 29.3869 60.2445 29.4182 60.2131 29.4653C60.2131 29.4653 60.1501 29.5437 60.1816 29.4966C60.2131 29.4653 60.1029 29.575 60.1029 29.5593L60.937 30.3904C60.9843 30.359 61 30.359 60.9528 30.3904C60.9056 30.4061 60.9213 30.3904 60.9843 30.3904C60.9056 30.3904 60.9056 30.3904 60.9843 30.3904C61 30.3904 61.1574 30.4061 61.0472 30.3904C61.1102 30.3904 61.1574 30.4217 61.2203 30.4374C61.2361 30.4374 61.4407 30.5158 61.3462 30.4844C61.3935 30.5158 61.4564 30.5315 61.5036 30.5628C61.6138 30.6256 61.7082 30.6726 61.8184 30.7353C61.9443 30.8137 62.0545 30.8764 62.1804 30.9705C62.3063 31.0489 62.3063 31.0489 62.4007 31.1273C62.6368 31.3155 62.7313 31.4409 62.8414 31.6604C62.8414 31.6918 62.8729 31.7075 62.8729 31.7388C62.8414 31.6604 62.8257 31.6448 62.8572 31.7075C62.8572 31.7388 62.8886 31.7859 62.9044 31.8172C62.9359 31.9113 62.9516 32.0054 62.9831 32.0995C62.9831 32.1465 62.9988 32.2092 63.0146 32.2563C63.0303 32.3817 63.0146 32.1465 63.0146 32.2876C63.0146 32.3974 63.0146 32.5071 63.0146 32.6169C63.0146 32.6796 63.0146 32.7423 63.0146 32.7894C63.0146 32.9148 63.046 32.6953 63.0146 32.8364C62.9831 32.9462 62.9673 33.0559 62.9201 33.1657C62.9201 33.2127 62.9201 33.1971 62.9201 33.15C62.9201 33.1814 62.8886 33.2127 62.8729 33.2441C62.8414 33.2911 62.8257 33.3382 62.7942 33.3852C62.7313 33.495 62.8414 33.3539 62.7627 33.4323C62.7155 33.4793 62.6683 33.542 62.6053 33.5891C62.3693 33.7929 62.385 34.2006 62.6053 34.4201C62.8414 34.6553 63.2034 34.6239 63.4395 34.4201C64.2107 33.7458 64.3209 32.6169 64.0848 31.6761C63.8172 30.6412 62.9516 29.967 62.023 29.4966C61.4092 29.1987 60.638 29.0419 60.1186 29.575C59.8983 29.8102 59.8825 30.1709 60.1186 30.4061C60.3547 30.6412 60.7324 30.6256 60.9528 30.4061C61.4722 29.8886 61.6768 29.0889 61.4879 28.3834C61.3305 27.7562 60.8898 27.2074 60.4806 26.7213C60.0085 26.1725 59.3789 25.7491 58.7021 25.4983C58.1985 25.3101 57.6319 25.2474 57.0968 25.2004C56.4515 25.1533 55.7747 25.2004 55.2554 25.608C55.0035 25.8119 55.0508 26.2352 55.2554 26.4391C55.5072 26.6899 55.8377 26.6429 56.0895 26.4391L56.1052 26.4861Z" fill="#231F20"/>
<path d="M62.9042 36.3328C62.9042 36.3328 63.0301 36.4112 62.9357 36.3484C62.9829 36.3798 63.0301 36.4268 63.0616 36.4582C63.093 36.4896 63.1245 36.5209 63.156 36.568C63.156 36.568 63.2662 36.6934 63.219 36.6464C63.1717 36.5993 63.2819 36.7248 63.2819 36.7404C63.3134 36.7875 63.3291 36.8188 63.3606 36.8659C63.3921 36.9129 63.4078 36.96 63.4235 36.9913C63.3763 36.8972 63.4235 36.9913 63.4235 37.0384C63.455 37.1324 63.4865 37.2265 63.5022 37.3206C63.5022 37.3676 63.518 37.4147 63.5337 37.4617C63.518 37.3206 63.5337 37.4617 63.5337 37.4931C63.5337 37.5871 63.5337 37.6812 63.5337 37.791C63.5337 37.9321 63.5495 37.6969 63.5337 37.8223C63.5337 37.8851 63.518 37.9321 63.5022 37.9948C63.5022 38.0419 63.4708 38.0889 63.455 38.1359C63.455 38.1516 63.4393 38.183 63.4235 38.1987C63.455 38.1359 63.455 38.1359 63.4235 38.1673C63.3606 38.2614 63.3134 38.3555 63.2504 38.4495C63.1875 38.5436 63.3134 38.4025 63.219 38.4966C63.1875 38.5279 63.156 38.575 63.1088 38.6063C63.0616 38.6377 63.0301 38.6847 62.9986 38.7161C62.9986 38.7161 62.857 38.8259 62.9514 38.7475C62.857 38.8102 62.7783 38.8572 62.6838 38.9199C62.6366 38.9513 62.5894 38.967 62.5422 38.9826C62.6524 38.9356 62.5107 38.9826 62.495 38.9983C62.4005 39.0297 62.2904 39.0611 62.1959 39.0767C62.1645 39.0767 62.133 39.0767 62.0858 39.0924C62.1487 39.0924 62.1645 39.0924 62.1172 39.0924C62.0543 39.0924 61.9913 39.0924 61.9284 39.0924C61.4877 39.0924 61.1729 39.5942 61.4247 39.9705C61.4562 40.0332 61.4877 40.0802 61.5192 40.143C61.4562 40.0175 61.5349 40.2057 61.5506 40.237C61.5664 40.2998 61.5821 40.3625 61.5979 40.4252C61.5664 40.2684 61.5979 40.4722 61.5979 40.5036C61.5979 40.5663 61.5979 40.629 61.5979 40.6917C61.5979 40.7545 61.5979 40.7545 61.5979 40.6917C61.5979 40.7231 61.5979 40.7545 61.5821 40.7858C61.5506 40.9113 61.5192 41.0367 61.4719 41.1621C61.5192 41.0367 61.4405 41.2249 61.4247 41.2562C61.3933 41.3189 61.3618 41.366 61.3146 41.4287C61.2988 41.4601 61.2831 41.4914 61.2516 41.5071C61.2988 41.4601 61.2988 41.4601 61.2516 41.5071C61.2044 41.5541 61.1572 41.6012 61.11 41.6482C61.0627 41.6953 60.9998 41.7423 60.9526 41.7893C61.0313 41.7266 60.8581 41.8521 60.8424 41.8521C60.7322 41.9305 60.6063 41.9932 60.4804 42.0559C60.4489 42.0716 60.4489 42.0559 60.4804 42.0559C60.4489 42.0559 60.4175 42.0872 60.3702 42.1029C60.3073 42.1343 60.2286 42.15 60.1499 42.1656C60.0082 42.2127 59.8509 42.2284 59.7092 42.2597C59.6463 42.2597 59.6305 42.2597 59.7092 42.2597C59.6777 42.2597 59.6305 42.2597 59.599 42.2597C59.5203 42.2597 59.4416 42.2597 59.3787 42.2754C59.2213 42.2754 59.0797 42.2754 58.9223 42.2754C58.8436 42.2754 58.7649 42.2754 58.7019 42.2754C58.6705 42.2754 58.6232 42.2754 58.5918 42.2754C58.6547 42.2754 58.6547 42.2754 58.5918 42.2754C58.4501 42.244 58.2927 42.2127 58.1511 42.1656C57.9307 42.1029 57.6789 41.9618 57.5373 41.8364C57.3012 41.6325 56.9235 41.5855 56.7031 41.8364C56.4985 42.0559 56.4513 42.4479 56.7031 42.6674C57.6317 43.4984 59.001 43.6082 60.1814 43.3887C61.3618 43.1692 62.3848 42.4165 62.6996 41.2562C62.8727 40.629 62.8097 39.9391 62.4635 39.3903L61.9598 40.2684C63.156 40.2527 64.3207 39.453 64.6354 38.2771C64.9502 37.1011 64.4466 35.9251 63.4865 35.2979C63.2347 35.1254 62.8255 35.2352 62.6838 35.5017C62.5264 35.7997 62.6209 36.1289 62.8884 36.3014L62.9042 36.3328Z" fill="#231F20"/>
</svg>
