<svg width="80" height="76" viewBox="0 0 80 76" fill="none" xmlns="http://www.w3.org/2000/svg">
<path d="M50.9163 49.563C50.5385 48.3713 50.0506 47.211 49.6099 46.1918C49.3739 45.6587 49.0591 44.5768 48.5712 44.2319C46.8714 41.6604 43.9912 39.8729 40.9222 39.5279C37.7429 39.1673 34.4378 40.3119 32.1714 42.5541C29.4958 45.2197 28.221 49.8452 28.3154 53.5143C28.3626 55.2548 28.7561 57.1677 30.0782 58.4221C30.7235 59.0336 31.5261 59.4256 32.3918 59.6137C32.9269 59.7235 33.4148 59.6921 33.9499 59.7078C35.1775 59.7392 36.3894 60.1939 37.617 60.0371C38.2308 59.9587 38.7345 59.6765 39.3483 59.6137C40.0565 59.5353 40.7805 59.4099 41.4415 59.6921C41.8507 59.8646 42.0868 60.1469 42.5747 60.2723C43.0784 60.4134 43.5977 60.4605 44.1171 60.4134C44.8254 60.3664 45.5336 60.1625 46.1474 59.8176C46.8084 59.4569 47.375 59.3315 48.099 59.0806C52.4744 57.544 52.1439 53.3732 50.9163 49.563Z" fill="#EEC688"/>
<path d="M49.248 44.1691C47.1705 40.892 43.4404 38.7909 39.5372 38.8693C36.1533 38.932 32.7223 40.5627 30.755 43.3537C29.4329 45.251 28.583 47.5402 28.1108 49.7825C27.6387 52.0247 27.4498 54.5178 28.284 56.6972C28.7089 57.7948 29.3857 58.767 30.3772 59.4255C31.5104 60.1782 32.9112 60.3977 34.2647 60.3506C35.0201 60.3193 35.0201 59.1433 34.2647 59.1746C32.2816 59.2687 30.4874 58.5945 29.5903 56.76C28.6932 54.9254 28.7876 52.7616 29.1024 50.8644C29.4486 48.7476 30.1411 46.6622 31.2271 44.812C32.6436 42.3816 35.0831 40.7822 37.8531 40.2491C41.8665 39.4651 46.053 41.3624 48.2249 44.7963C48.6342 45.4391 49.6572 44.8433 49.248 44.2004V44.1691Z" fill="#231F20"/>
<path d="M48.2093 44.6708C48.4297 44.7963 48.5556 45.1412 48.6657 45.3607C48.8074 45.6743 48.9018 45.9879 49.0277 46.3015C49.2323 46.8033 49.4527 47.305 49.6415 47.8225C50.0665 48.9671 50.4285 50.1274 50.6803 51.3191C51.0895 53.2634 51.3413 55.7408 50.1137 57.3244C49.3425 58.3123 48.0991 58.7199 46.8715 58.814C46.1161 58.8767 46.1161 60.0527 46.8715 59.99C48.2408 59.8802 49.5943 59.4882 50.6173 58.5161C51.4672 57.7007 51.9237 56.5875 52.0968 55.4429C52.4745 52.8714 51.7663 50.1744 50.8849 47.7754C50.6488 47.1482 50.3655 46.4897 50.1294 45.8782C49.8147 45.1099 49.5786 44.1064 48.8074 43.6516C48.1464 43.2596 47.564 44.2788 48.2093 44.6708Z" fill="#231F20"/>
<path d="M31.2585 52.0562C31.227 53.5301 31.3844 55.004 31.7307 56.4308C31.8881 57.1207 32.0927 57.795 32.3602 58.4535C32.6278 59.1121 32.9583 59.7236 33.5721 60.1313C34.1859 60.5389 34.8784 60.586 35.5552 60.6801C36.232 60.7741 36.9874 60.8369 37.6485 60.6017C38.3095 60.3665 38.8289 59.9118 39.0807 59.2689C39.2066 58.971 39.2223 58.6103 39.1436 58.2967C39.0649 57.9518 38.8603 57.7009 38.6715 57.4187C38.577 57.2775 38.4983 57.1364 38.4197 56.9953C38.4197 56.9639 38.3882 56.9326 38.3724 56.9169C38.3252 56.8385 38.3724 56.9169 38.341 56.8542C38.3095 56.7758 38.278 56.6974 38.2623 56.619C38.215 56.4622 38.1678 56.3054 38.1364 56.1486C38.1049 55.9918 38.1049 55.9604 38.0891 55.7566C38.0577 55.1137 38.1993 54.5649 38.4983 54.0318C38.6557 53.7496 38.5613 53.389 38.2937 53.2322C38.0262 53.0754 37.6485 53.1694 37.4911 53.436C36.893 54.4709 36.7513 55.7409 37.0976 56.8855C37.192 57.1835 37.3022 57.4657 37.4596 57.7323C37.6012 57.9831 37.7744 58.187 37.916 58.4222C37.9318 58.4535 37.9632 58.5006 37.979 58.5319C37.979 58.5633 37.979 58.579 37.9947 58.6103C37.9947 58.6103 37.9947 58.5162 37.9947 58.5946C37.9947 58.6574 37.9947 58.7201 37.9947 58.7828C37.9947 58.673 37.979 58.8298 37.9632 58.8612C37.9632 58.8926 37.9475 58.9082 37.9318 58.9396C37.9003 59.018 37.8688 59.0494 37.8373 59.1121C37.7901 59.1905 37.8531 59.1121 37.7901 59.1748C37.7429 59.2375 37.6799 59.2846 37.6327 59.3316C37.554 59.3943 37.6485 59.3316 37.5698 59.3786C37.5225 59.41 37.4753 59.4414 37.4281 59.457C37.3652 59.4884 37.3966 59.4727 37.3022 59.5041C37.2235 59.5354 37.1448 59.5511 37.0661 59.5668C36.8143 59.6138 36.4995 59.6138 36.2005 59.5982C36.0431 59.5982 35.8857 59.5668 35.7283 59.5511C35.6496 59.5511 35.5867 59.5354 35.508 59.5198C35.4608 59.5198 35.4293 59.5198 35.3821 59.5041C35.445 59.5041 35.3663 59.5041 35.3506 59.5041C35.0673 59.457 34.7683 59.41 34.485 59.3159C34.4535 59.3159 34.422 59.3002 34.3905 59.2846C34.3433 59.2532 34.2804 59.2218 34.2174 59.1905C34.0915 59.1121 34.06 59.0807 33.9341 58.9553C33.7767 58.7985 33.6351 58.5319 33.5249 58.2811C33.5406 58.3281 33.4934 58.2027 33.4777 58.187C33.4462 58.1086 33.4147 58.0459 33.399 57.9675C33.336 57.795 33.2731 57.6382 33.2259 57.4657C33.1314 57.1521 33.037 56.8385 32.9426 56.5249C32.5491 55.0667 32.3917 53.6085 32.4232 52.0875C32.4232 51.7739 32.1399 51.4917 31.8251 51.4917C31.5103 51.4917 31.2428 51.7583 31.2271 52.0875L31.2585 52.0562Z" fill="#231F20"/>
<path d="M47.611 52.3072C47.6425 53.64 47.5166 54.9414 47.2176 56.2272C47.0602 56.87 46.8713 57.5129 46.651 58.1401C46.6038 58.2498 46.5408 58.4223 46.5093 58.5007C46.4778 58.5791 46.3834 58.7516 46.3205 58.8614C46.2418 59.0025 46.2103 59.0338 46.1316 59.1279C46.0214 59.2534 45.9585 59.3004 45.864 59.3631C45.8168 59.3945 45.7539 59.4258 45.6909 59.4572C45.6122 59.5042 45.6909 59.4572 45.5965 59.5042C45.4548 59.5513 45.3132 59.5983 45.1558 59.6297C45.0141 59.661 44.8725 59.6767 44.7308 59.7081C44.6994 59.7081 44.6679 59.7081 44.6364 59.7081C44.7151 59.7081 44.6049 59.7081 44.6049 59.7081C44.5262 59.7081 44.4476 59.7238 44.3689 59.7394C44.0541 59.7708 43.7236 59.8022 43.4088 59.8022C43.2671 59.8022 43.1412 59.8022 43.0311 59.7708C42.9681 59.7708 42.8894 59.7394 42.8265 59.7238C42.795 59.7238 42.7635 59.7081 42.732 59.6924L42.6691 59.661C42.6219 59.6297 42.5746 59.614 42.5274 59.5826C42.4959 59.5826 42.4802 59.5513 42.4487 59.5356C42.3858 59.4886 42.3543 59.4415 42.3071 59.3945C42.2913 59.3788 42.2756 59.3474 42.2441 59.3318C42.2913 59.3945 42.1812 59.269 42.2441 59.3318C42.2127 59.2847 42.1812 59.222 42.134 59.1593C42.0867 59.0809 42.134 59.1906 42.1025 59.0966C42.1025 59.0495 42.071 58.9868 42.0553 58.9398C42.0867 59.0495 42.0553 58.877 42.0553 58.83C42.0553 58.7202 42.0553 58.877 42.0553 58.7673C42.0553 58.7673 42.0867 58.6732 42.0553 58.7359C42.0553 58.7046 42.0867 58.6732 42.1025 58.6418C42.1812 58.5007 42.2756 58.391 42.37 58.2655C42.5274 58.0303 42.6691 57.7795 42.7792 57.5286C43.3144 56.2742 43.2357 54.816 42.5589 53.64C42.4015 53.3578 42.0238 53.2637 41.7562 53.4361C41.4887 53.6086 41.3785 53.9693 41.5516 54.2358C41.5831 54.2985 41.6146 54.3613 41.6618 54.424C41.6618 54.4397 41.7562 54.6121 41.7248 54.5337C41.7877 54.6749 41.8349 54.816 41.8664 54.9728C41.8979 55.0982 41.9294 55.2236 41.9451 55.3648C41.9451 55.2707 41.9451 55.3648 41.9451 55.3961C41.9451 55.4432 41.9451 55.4745 41.9451 55.5216C41.9451 55.6 41.9451 55.6784 41.9451 55.7724C41.9451 56.1017 41.9451 56.2428 41.8664 56.5251C41.8349 56.6662 41.7877 56.8073 41.7405 56.9327C41.6775 57.0895 41.6775 57.1052 41.5988 57.262C41.4572 57.5286 41.2683 57.7481 41.1109 58.0147C40.9378 58.3126 40.8276 58.6575 40.8591 59.0025C40.9221 59.6767 41.3313 60.2569 41.8979 60.6175C42.5117 60.9938 43.2986 61.0409 43.9911 60.9781C44.6364 60.9154 45.3447 60.8684 45.9585 60.6332C46.6352 60.3666 47.1389 59.8962 47.4536 59.2534C47.7684 58.6105 47.9888 57.9049 48.1776 57.215C48.6183 55.6313 48.8229 53.9693 48.7914 52.3229C48.7914 52.0093 48.5239 51.7271 48.1934 51.7271C47.8629 51.7271 47.5953 51.9936 47.5953 52.3229L47.611 52.3072Z" fill="#231F20"/>
<path d="M38.3253 60.2721C38.4669 60.2564 38.5928 60.2251 38.7345 60.2094H38.5771C39.6001 60.0996 40.6389 60.0526 41.6619 60.0996C41.9767 60.0996 42.26 59.8174 42.26 59.5038C42.26 59.1745 42.0081 58.9393 41.6619 58.908C40.4343 58.8453 39.2224 58.9237 38.0105 59.1118C37.8688 59.1275 37.7272 59.2686 37.6642 59.3784C37.5855 59.5038 37.5541 59.692 37.6013 59.8331C37.6485 59.9742 37.7429 60.1153 37.8688 60.178C38.0105 60.2564 38.1521 60.2564 38.3253 60.2408V60.2721Z" fill="#231F20"/>
<path d="M23.3733 30.2917C22.4919 33.5844 22.303 37.0653 22.7752 39.8093C23.4205 43.5881 25.3721 46.4889 29.291 47.3356C33.7451 48.2921 38.3408 48.637 42.8893 48.3391C46.7925 48.0883 50.8689 47.8374 54.3314 45.8304C55.5905 45.1091 56.7394 44.1683 57.5106 42.9453C58.4707 41.4243 58.754 39.5584 58.754 37.7709C58.754 34.1019 57.6208 30.5112 56.1728 27.1244C55.2757 25.0076 54.1583 22.8594 52.2381 21.5894C51.0105 20.774 49.5625 20.3977 48.1146 20.1155C44.0068 19.2845 39.7888 19.0336 35.618 19.3942C33.7451 19.551 31.8565 19.8489 30.1882 20.6643C26.7256 22.3734 24.5065 26.1992 23.389 30.3074L23.3733 30.2917Z" fill="#EEC688"/>
<path d="M20.9495 23.1418C20.257 23.8004 19.7219 24.7098 19.7376 25.6663C19.7376 26.4189 20.0682 27.1402 20.3987 27.8144C20.8079 28.6455 21.2328 29.4922 21.8624 30.1664C22.4919 30.8406 23.3576 31.3737 24.2861 31.4051C25.5452 31.4521 26.7099 30.5741 27.3552 29.4922C28.0005 28.4103 28.2208 27.1245 28.4097 25.8858C28.6458 24.3492 29.3383 19.5512 26.6942 19.6139C25.8285 19.6296 24.837 20.7272 24.1288 21.1505C23.0585 21.7934 21.8781 22.2638 20.9495 23.1418Z" fill="#5C564D"/>
<path d="M59.1788 23.4241C59.8713 24.0826 60.4064 24.9921 60.3907 25.9485C60.3907 26.7012 60.0602 27.4224 59.7297 28.0967C59.3204 28.9277 58.8955 29.7744 58.2659 30.4486C57.6364 31.1229 56.7708 31.656 55.8422 31.6873C54.5831 31.7344 53.4184 30.8563 52.7731 29.7744C52.1278 28.6925 51.9075 27.4067 51.7186 26.168C51.4826 24.6314 50.79 19.8334 53.4342 19.8961C54.2998 19.9118 55.2913 21.0094 55.9996 21.4327C57.0698 22.0756 58.2502 22.546 59.1788 23.4241Z" fill="#5C564D"/>
<path d="M30.6445 36.2344C32.157 36.2344 33.3831 35.0129 33.3831 33.5061C33.3831 31.9993 32.157 30.7778 30.6445 30.7778C29.1321 30.7778 27.906 31.9993 27.906 33.5061C27.906 35.0129 29.1321 36.2344 30.6445 36.2344Z" fill="white"/>
<path d="M30.6445 35.4506C31.7223 35.4506 32.5961 34.5801 32.5961 33.5063C32.5961 32.4325 31.7223 31.562 30.6445 31.562C29.5666 31.562 28.6929 32.4325 28.6929 33.5063C28.6929 34.5801 29.5666 35.4506 30.6445 35.4506Z" fill="#231F20"/>
<path d="M50.0977 36.2344C51.6101 36.2344 52.8362 35.0129 52.8362 33.5061C52.8362 31.9993 51.6101 30.7778 50.0977 30.7778C48.5852 30.7778 47.3591 31.9993 47.3591 33.5061C47.3591 35.0129 48.5852 36.2344 50.0977 36.2344Z" fill="white"/>
<path d="M50.0976 35.4506C51.1754 35.4506 52.0492 34.5801 52.0492 33.5063C52.0492 32.4325 51.1754 31.562 50.0976 31.562C49.0198 31.562 48.146 32.4325 48.146 33.5063C48.146 34.5801 49.0198 35.4506 50.0976 35.4506Z" fill="#231F20"/>
<path d="M29.9521 40.3112C29.6688 41.6753 30.2354 43.1649 31.3213 44.0587C32.4073 44.9524 33.9182 45.2503 35.2875 44.9211C35.8541 44.7799 36.4207 44.5291 36.9873 44.6231C37.3965 44.6859 37.7585 44.9054 38.1362 45.0779C39.5842 45.7364 41.3469 45.6423 42.7004 44.8113C43.1254 44.5604 43.5189 44.2311 43.9753 44.09C45.014 43.7608 46.0843 44.3723 47.1703 44.5291C48.3349 44.7015 49.5783 44.2782 50.4124 43.4472C54.0638 39.7781 49.3737 36.2658 46.1945 35.0428C44.3373 34.3215 42.3857 33.7727 40.4026 33.6473C36.3263 33.4121 30.8649 35.8738 29.9521 40.2955V40.3112Z" fill="#5C564D"/>
<path d="M29.2281 22.3421C31.0538 20.6486 33.7137 20.1469 36.106 19.8803C39.0334 19.5667 42.008 19.504 44.9354 19.9117C46.7296 20.1626 48.5081 20.5702 50.2236 21.119C50.9476 21.3542 51.2624 20.2096 50.5384 19.9901C47.3119 18.9552 43.9124 18.4378 40.5128 18.4535C37.7743 18.4535 34.8783 18.6416 32.25 19.4256C30.8335 19.849 29.4799 20.5075 28.394 21.511C27.8431 22.0285 28.6773 22.8595 29.2281 22.3421Z" fill="#231F20"/>
<path d="M26.1118 30.3544C25.7656 30.6993 25.3563 30.9659 24.8684 31.0756C24.4907 31.154 24.0658 31.107 23.7038 30.9502C23.2316 30.7464 22.8854 30.4014 22.5706 30.0251C22.2558 29.6488 21.941 29.3038 21.6263 28.9275C21.0282 28.2219 20.3672 27.4066 20.1783 26.4971C20.1468 26.3717 20.1783 26.4501 20.1783 26.4815C20.1783 26.4187 20.1783 26.3717 20.1783 26.309C20.1783 26.2306 20.1783 26.1365 20.1783 26.0581C20.1783 26.0267 20.2098 25.7915 20.1783 25.9013C20.194 25.7915 20.2255 25.6818 20.2413 25.572C20.2727 25.4779 20.2885 25.3995 20.32 25.3055C20.3672 25.1957 20.32 25.2898 20.32 25.3055C20.32 25.2741 20.3514 25.2428 20.3672 25.1957C20.4616 25.0076 20.5718 24.8194 20.6819 24.6469C21.0754 24.0824 21.7837 23.4866 22.3817 23.0789C23.0742 22.5929 23.814 22.1695 24.5537 21.7775C24.8842 21.605 25.2147 21.4169 25.5452 21.2444C25.9387 21.0406 26.3007 20.7897 26.7256 20.6642C27.1506 20.5388 27.5283 20.6172 27.7329 20.9935C27.9375 21.3698 27.9375 21.9186 27.9532 22.389C28.0005 23.91 27.8745 25.4309 27.5755 26.9205C27.3237 28.1435 26.9932 29.4293 26.0961 30.3544C25.561 30.9032 26.3951 31.7342 26.9302 31.1854C27.8745 30.2132 28.331 28.9275 28.63 27.6418C28.9763 26.1365 29.1494 24.5999 29.1494 23.0633C29.1494 21.903 29.1966 20.1939 27.9375 19.6137C26.7728 19.0649 25.6082 19.8959 24.6009 20.4291C22.9641 21.3071 21.1541 22.2009 19.958 23.6748C19.3756 24.396 18.9507 25.2584 18.9507 26.2149C18.9507 27.3909 19.6589 28.3944 20.3672 29.2881C20.7606 29.7899 21.1698 30.2603 21.5791 30.7307C22.0197 31.2324 22.4762 31.7028 23.0742 31.9851C24.4278 32.6123 25.8757 32.2359 26.9145 31.2168C27.4496 30.6836 26.6154 29.8526 26.0803 30.3857L26.1118 30.3544Z" fill="#231F20"/>
<path d="M22.2716 32.9728C21.9411 35.5756 21.6421 38.2412 22.1772 40.844C22.7752 43.7291 24.6324 46.0497 27.3395 47.2414C29.5901 48.2449 32.0768 48.5742 34.5163 48.6526C35.2718 48.6839 35.2718 47.508 34.5163 47.4766C31.1325 47.3668 27.1978 46.7553 24.9157 44.027C24.1603 43.1176 23.6566 42.0044 23.3891 40.8284C23.2317 40.1855 23.1687 39.6994 23.1215 39.0722C23.0743 38.445 23.0585 37.7865 23.0743 37.1436C23.1058 35.7481 23.2789 34.3526 23.452 32.9728C23.4992 32.6592 23.153 32.377 22.8539 32.377C22.5077 32.377 22.3031 32.6435 22.2559 32.9728H22.2716Z" fill="#231F20"/>
<path d="M57.369 31.0444C58.0142 34.0079 58.5966 37.2065 58.0142 40.2171C57.7782 41.4871 57.306 42.7101 56.5191 43.745C55.6534 44.874 54.4416 45.6893 53.1352 46.2381C50.9948 47.1318 48.6025 47.4141 46.3046 47.4768C45.5492 47.5082 45.5492 48.6841 46.3046 48.6528C50.0347 48.5273 54.3629 47.8845 57.007 44.9837C59.0845 42.6945 59.5409 39.5428 59.3678 36.5637C59.2576 34.6037 58.9114 32.6594 58.5022 30.7308C58.3448 29.9938 57.2116 30.3074 57.369 31.0444Z" fill="#231F20"/>
<path d="M53.088 31.1853C53.9851 32.079 55.2757 32.5337 56.5033 32.126C57.6522 31.7497 58.3605 30.7933 59.1159 29.9152C59.8714 29.0371 60.6898 28.0807 60.9573 26.9517C61.1934 26.0109 60.9573 25.0231 60.4537 24.2077C59.415 22.577 57.5735 21.5735 55.921 20.6955C55.0396 20.2251 54.111 19.5508 53.1037 19.4411C52.4112 19.3627 51.7345 19.6763 51.3567 20.2564C51.0262 20.7582 50.9475 21.3854 50.916 21.9812C50.8216 23.706 50.9633 25.4465 51.3095 27.1399C51.6085 28.5981 52.0492 30.1034 53.1037 31.1853C53.6388 31.7341 54.473 30.903 53.9379 30.3542C53.1667 29.5546 52.8204 28.4727 52.5686 27.4221C52.2538 26.105 52.0964 24.7565 52.065 23.4081C52.065 22.8279 52.0492 22.1694 52.1122 21.6206C52.1594 21.2286 52.2696 20.7895 52.6158 20.6484C53.0722 20.4603 53.6546 20.7739 54.0323 20.9934C54.3471 21.1659 54.6619 21.3383 54.9766 21.5108C56.4403 22.2948 57.9513 23.0631 59.053 24.2861C59.2103 24.4586 59.2418 24.5057 59.352 24.6625C59.4622 24.8193 59.5723 24.9917 59.651 25.1799C59.6668 25.2269 59.6983 25.2583 59.714 25.3053C59.714 25.274 59.6825 25.2113 59.714 25.3053C59.7455 25.3994 59.7769 25.4778 59.7927 25.5719C59.8084 25.666 59.8399 25.7444 59.8556 25.8384C59.8556 25.9482 59.8556 25.8541 59.8556 25.8384C59.8556 25.9012 59.8556 25.9482 59.8556 26.0109C59.8556 26.105 59.8556 26.1991 59.8556 26.2932C59.8556 26.3402 59.8556 26.3872 59.8556 26.4343C59.8556 26.544 59.8871 26.2932 59.8556 26.4813C59.8242 26.6695 59.7455 26.889 59.6825 27.0301C59.4779 27.5005 59.1789 27.9239 58.8641 28.3315C58.5336 28.7706 58.1559 29.1939 57.7939 29.6173C57.4319 30.0406 57.1171 30.4483 56.6607 30.7462C55.7321 31.3264 54.7091 31.1225 53.9221 30.3385C53.387 29.8054 52.5529 30.6365 53.088 31.1696V31.1853Z" fill="#231F20"/>
<path d="M40.072 38.712C41.7149 38.712 43.0467 37.8907 43.0467 36.8775C43.0467 35.8643 41.7149 35.043 40.072 35.043C38.4292 35.043 37.0974 35.8643 37.0974 36.8775C37.0974 37.8907 38.4292 38.712 40.072 38.712Z" fill="#231F20"/>
<path d="M48.1302 35.5288C43.503 32.7378 37.5695 32.4242 33.0053 35.5288C30.9593 36.9243 28.9919 39.1509 29.3696 41.8007C29.527 42.8983 30.0779 43.9646 30.975 44.6231C31.8721 45.2817 33.3043 45.5796 34.4375 45.5325C35.7596 45.4855 37.0501 44.6701 38.1204 43.9332C39.2693 43.1335 40.2609 42.1457 40.796 40.8286L40.072 40.9227C40.7487 42.0203 41.7718 42.8826 42.8577 43.5726C44.0539 44.3409 45.4074 44.9367 46.8239 45.1249C48.0987 45.2973 49.4208 45.0621 50.4123 44.1997C51.6085 43.1492 51.9547 41.4401 51.6557 39.9348C51.2622 38.0062 49.7513 36.5166 48.1302 35.5131C47.7053 35.2466 47.2961 35.9208 47.7367 36.1874C49.0431 36.987 50.2549 38.116 50.7428 39.5899C51.1835 40.907 51.0104 42.522 49.9874 43.5255C48.2404 45.2346 45.2972 44.137 43.5188 43.0551C42.4485 42.4123 41.4255 41.5812 40.7488 40.515C40.5599 40.2014 40.1507 40.2955 40.0248 40.6091C39.5998 41.6753 38.7499 42.5063 37.8371 43.1649C37.0187 43.745 35.9957 44.4349 35.0199 44.6701C34.044 44.9053 32.722 44.6701 31.8091 44.2154C30.8963 43.7607 30.2982 42.7415 30.1408 41.7223C29.7789 39.3077 31.7305 37.285 33.5876 36.0619C35.5392 34.7762 37.8371 34.0863 40.1664 34.0549C42.842 34.0236 45.4389 34.8232 47.721 36.2031C48.1617 36.4696 48.5552 35.7797 48.1145 35.5288H48.1302Z" fill="#231F20"/>
<path d="M37.0658 44.7017C38.7656 45.6425 40.8904 45.7993 42.716 45.1251C43.2354 44.9369 43.7391 44.6861 44.1955 44.3725C44.3686 44.247 44.4473 44.0275 44.3371 43.8394C44.2427 43.6669 43.9751 43.5728 43.802 43.6982C42.3698 44.6861 40.5284 44.9997 38.8443 44.5606C38.3564 44.4352 37.9 44.2627 37.4593 44.0118C37.0186 43.761 36.6252 44.4509 37.0658 44.6861V44.7017Z" fill="#231F20"/>
<path d="M35.5865 26.7322C38.2936 27.4849 41.221 27.3908 43.8651 26.4343C44.1641 26.3246 44.3687 26.0423 44.2743 25.713C44.1956 25.4308 43.8494 25.1956 43.5503 25.3054C41.0793 26.1991 38.4195 26.3089 35.9013 25.6033C35.6023 25.5249 35.256 25.713 35.1773 26.011C35.0986 26.3089 35.2875 26.6538 35.5865 26.7322Z" fill="#231F20"/>
</svg>
