<svg width="80" height="76" viewBox="0 0 80 76" fill="none" xmlns="http://www.w3.org/2000/svg">
<path d="M53.7473 55.4761C53.4955 56.0719 52.8502 57.436 52.016 56.8559C51.2763 56.3228 51.7012 54.5823 51.3078 53.7826C51.1346 53.4377 50.8514 53.0927 50.8986 52.7007C51.9216 52.3558 52.0632 51.3679 51.5753 50.5526C50.7254 49.1414 49.6867 47.8557 48.6322 46.5856C48.0184 45.833 47.4046 45.0803 46.6491 44.4532C45.9881 43.9044 45.2484 43.4653 44.4772 43.1047C39.8342 40.9409 34.1368 41.6622 30.4382 45.2528C28.8486 46.8051 27.6997 48.7965 27.0229 50.9132C26.9285 51.1955 26.5822 52.0735 26.8026 52.3244C26.9599 52.5126 27.2275 52.5596 27.4636 52.4969C27.6052 52.4655 27.7784 52.4185 27.8571 52.5283C27.92 52.6067 27.8728 52.7321 27.8413 52.8262C27.2118 54.4098 27.1016 56.1973 27.558 57.8437C27.621 58.0789 27.7626 58.3768 28.0144 58.3768C28.0774 58.3768 28.1404 58.3611 28.219 58.3611C28.6912 58.3611 28.8958 59.3019 29.1319 59.6155C29.6513 60.2584 30.4697 60.7131 31.2409 60.9483C31.6186 61.0581 33.2869 61.5128 33.586 61.1992L34.2312 60.5093C34.5303 60.9953 35.0024 61.3403 35.7736 61.4501C38.5122 61.8264 39.1575 60.133 39.3149 58.0946C39.0945 60.9953 42.0062 62.2027 44.1781 60.6034C44.5716 60.8856 45.1067 60.9013 45.5789 60.8542C46.7278 60.7445 47.861 60.3525 48.8211 59.7096C48.9155 59.6469 50.6153 60.3525 50.8671 60.3995C51.5596 60.5406 52.0318 60.4622 52.7085 60.3054C54.1565 59.9605 55.4156 59.4117 56.6117 58.5179C57.9338 57.5144 58.4059 56.1189 58.5004 54.5196C58.5791 53.1084 58.5004 51.5247 57.4774 50.5526C57.1626 50.2547 56.8006 50.0508 56.4071 49.8784C55.9507 49.6745 55.4313 49.5177 54.9277 49.502C54.3611 49.4864 53.8102 49.6275 53.4168 50.0352C53.3538 50.0979 53.3066 50.1606 53.2909 50.239C53.2909 50.3331 53.3381 50.4428 53.3853 50.5212C54.2352 52.0108 54.3611 53.8767 53.7158 55.4604L53.7473 55.4761Z" fill="white"/>
<path d="M33.2553 55.8204C33.2553 56.8082 33.1294 57.796 33.1766 58.7839C33.2396 59.8501 33.5386 60.932 34.4514 61.5749C34.9551 61.9355 35.6004 62.0453 36.1984 62.0766C36.765 62.108 37.3474 62.0609 37.8668 61.8414C38.3861 61.6219 38.7953 61.2926 39.1259 60.8379C39.4092 60.4459 39.5823 59.9912 39.6924 59.5208C39.9757 58.3762 39.96 57.1689 39.9443 56.0085C39.9443 55.695 39.6767 55.4127 39.3462 55.4127C39.0157 55.4127 38.7481 55.6636 38.7481 56.0085C38.7481 56.5103 38.7481 57.012 38.7481 57.4981C38.7481 57.749 38.7324 57.9842 38.7009 58.2351C38.7009 58.3448 38.6852 58.4546 38.6694 58.58C38.6694 58.6271 38.638 58.7368 38.6694 58.5487C38.6694 58.58 38.6694 58.6114 38.6694 58.6428C38.6694 58.7055 38.6537 58.7682 38.638 58.8152C38.6065 59.0347 38.5435 59.2543 38.4806 59.4581C38.4491 59.5522 38.4176 59.6463 38.3861 59.7403C38.3389 59.8815 38.4491 59.6149 38.3861 59.7403C38.3547 59.8031 38.3389 59.8501 38.3074 59.9128C38.2602 59.9912 38.213 60.0853 38.1658 60.1637C38.1343 60.1951 38.1186 60.2264 38.0871 60.2734C38.0241 60.3518 38.1815 60.1637 38.1186 60.2421C38.1028 60.2734 38.0714 60.2891 38.0556 60.3205C37.9927 60.3832 37.9297 60.4616 37.851 60.5243C37.8353 60.5243 37.8195 60.5557 37.8038 60.5714C37.7566 60.6184 37.9297 60.4773 37.851 60.54C37.8038 60.5714 37.7566 60.6027 37.6936 60.6498C37.6149 60.6968 37.5048 60.7282 37.4261 60.7909C37.5048 60.7282 37.552 60.7438 37.489 60.7595C37.4575 60.7595 37.4418 60.7752 37.4103 60.7909C37.3474 60.8066 37.2844 60.8379 37.2215 60.8536C37.1113 60.885 37.0011 60.9006 36.891 60.9163C36.891 60.9163 37.0483 60.9006 36.9539 60.9163C36.9224 60.9163 36.891 60.9163 36.8595 60.9163C36.7808 60.9163 36.7021 60.9163 36.6391 60.9163C36.5132 60.9163 36.3716 60.9163 36.2457 60.9163C36.167 60.9163 36.0883 60.9163 36.0096 60.9006C35.9624 60.9006 35.9309 60.9006 35.8837 60.9006C35.742 60.885 36.0096 60.9163 35.8837 60.9006C35.7578 60.885 35.6476 60.8536 35.5217 60.8222C35.4587 60.8066 35.3958 60.7752 35.3486 60.7595C35.2384 60.7282 35.4745 60.8222 35.38 60.7595C35.3486 60.7595 35.3328 60.7282 35.3013 60.7282C35.2069 60.6811 35.1282 60.6184 35.0338 60.5714C34.9393 60.5243 35.144 60.6654 35.0653 60.6027C35.0495 60.587 35.018 60.5714 35.0023 60.5557C34.9551 60.5243 34.9236 60.4773 34.8921 60.4459C34.8607 60.4146 34.8292 60.3519 34.782 60.3205C34.8764 60.3832 34.8607 60.4302 34.8292 60.3832C34.8292 60.3675 34.7977 60.3362 34.782 60.3205C34.719 60.2264 34.6718 60.1323 34.6246 60.0383C34.6246 60.0069 34.6088 59.9912 34.5931 59.9599C34.5459 59.8658 34.6403 60.101 34.6088 60.0069C34.6088 59.9599 34.5774 59.9285 34.5616 59.8815C34.5301 59.7717 34.4987 59.6619 34.4672 59.5522C34.4357 59.4424 34.42 59.3483 34.4042 59.2386C34.4042 59.2072 34.4042 59.1759 34.4042 59.1445C34.4357 59.317 34.4042 59.2386 34.4042 59.1915C34.4042 59.1288 34.4042 59.0661 34.3885 58.9877C34.2941 57.9372 34.4514 56.8866 34.4514 55.8361C34.4514 55.5225 34.1839 55.2402 33.8534 55.2402C33.5229 55.2402 33.271 55.4911 33.2553 55.8361V55.8204Z" fill="#231F20"/>
<path d="M48.6008 45.613C46.5391 42.3673 42.8405 40.2662 38.9687 40.3133C36.9857 40.3446 35.0183 40.8934 33.3028 41.8969C31.5873 42.9004 30.1865 44.4214 29.0376 46.0521C27.6841 47.965 26.6296 50.1602 26.2518 52.4808C26.1889 52.8258 26.4092 53.2648 26.8184 53.2178C27.4322 53.1707 28.0303 53.0453 28.5969 52.8101L27.9359 51.9477C27.0388 53.892 25.8584 56.7927 27.2591 58.7841C27.448 59.0506 27.7628 59.1447 28.0618 58.9879C28.3608 58.8311 28.6284 58.3607 28.8172 58.0785L27.7313 57.9374C28.2192 60.6029 31.1151 61.873 33.6176 61.7789C34.373 61.7476 34.373 60.5716 33.6176 60.6029C31.6187 60.6813 29.2737 59.8033 28.8802 57.6238C28.7858 57.0907 28.0618 57.0907 27.7942 57.4827C27.7313 57.5924 27.6526 57.6865 27.5739 57.7806C27.5109 57.8747 27.3063 58.0471 27.4637 57.9687L28.2664 58.1726C27.7155 57.3886 27.7313 56.4321 27.9201 55.5384C28.1405 54.5035 28.5025 53.4843 28.9432 52.5278C29.132 52.1202 28.8015 51.4459 28.2821 51.6655C27.81 51.8536 27.3221 51.9947 26.8184 52.0261L27.385 52.763C27.6998 50.8658 28.471 49.0783 29.494 47.4476C30.4698 45.911 31.6817 44.39 33.1769 43.3395C36.1043 41.2854 40.0075 40.8621 43.2497 42.3987C45.0124 43.2297 46.5233 44.5311 47.5621 46.1775C47.9713 46.8204 48.9943 46.2246 48.5851 45.5817L48.6008 45.613Z" fill="#231F20"/>
<path d="M44.2568 55.8205C44.2568 56.7613 44.3827 57.6864 44.3355 58.6272C44.3355 58.737 44.3355 58.8468 44.3198 58.9722C44.3198 59.0349 44.3198 59.082 44.304 59.1447C44.304 59.176 44.304 59.1917 44.304 59.2231C44.304 59.176 44.3198 59.0192 44.304 59.2231C44.2726 59.4426 44.2254 59.6621 44.1467 59.8659C44.1467 59.913 44.1152 59.9443 44.0994 59.9914C44.068 60.1011 44.1624 59.8503 44.1152 59.9443C44.1152 59.9757 44.0994 59.9914 44.0837 60.0227C44.0365 60.1168 43.9893 60.2109 43.9263 60.305C43.9263 60.3207 43.8948 60.3363 43.8948 60.352C43.8634 60.4147 43.8319 60.3834 43.9263 60.305C43.8948 60.3363 43.8634 60.3834 43.8161 60.4304C43.7847 60.4618 43.7532 60.4931 43.7217 60.5245C43.706 60.5402 43.6745 60.5559 43.6588 60.5715C43.5486 60.6656 43.7532 60.5088 43.6588 60.5715C43.5643 60.6343 43.4856 60.6813 43.3912 60.7283C43.344 60.7597 43.1866 60.791 43.3755 60.7283C43.3125 60.744 43.2338 60.7754 43.1709 60.8067C43.0449 60.8381 42.9348 60.8694 42.8089 60.8851C42.7617 60.8851 42.7459 60.9165 42.8561 60.8851C42.8246 60.8851 42.7617 60.8851 42.7302 60.8851C42.6357 60.8851 42.557 60.9008 42.4626 60.9008C42.3367 60.9008 42.1951 60.9008 42.0691 60.9008C42.0062 60.9008 41.9275 60.9008 41.8645 60.9008C41.8016 60.9008 41.597 60.8538 41.7858 60.9008C41.6757 60.8694 41.5655 60.8694 41.4553 60.8381C41.3924 60.8381 41.3452 60.8067 41.2822 60.791C41.2507 60.791 41.235 60.7754 41.2035 60.7597C41.1406 60.7283 41.1406 60.697 41.235 60.7754C41.172 60.7126 41.0461 60.6813 40.9674 60.6342C40.9202 60.6029 40.873 60.5715 40.8415 60.5402C40.7471 60.4775 40.8258 60.5402 40.8415 60.5402C40.936 60.6029 40.8415 60.5402 40.8258 60.5245C40.7471 60.4618 40.6841 60.3991 40.6212 60.3207C40.574 60.2736 40.4953 60.1325 40.6054 60.305C40.574 60.2579 40.5425 60.2266 40.511 60.1795C40.4638 60.1011 40.4166 60.0227 40.3694 59.9287C40.3379 59.8816 40.3221 59.8346 40.3064 59.7875C40.3064 59.7719 40.3064 59.7562 40.2907 59.7405C40.2435 59.6464 40.3536 59.8973 40.2907 59.7405C40.212 59.5367 40.149 59.3328 40.1018 59.129C40.0703 59.0035 40.0546 58.8781 40.0231 58.7527C40.0231 58.69 40.0074 58.6272 39.9916 58.5802C39.9759 58.4704 40.0074 58.737 39.9916 58.6116C39.9916 58.5802 39.9916 58.5332 39.9916 58.5018C39.9602 58.2352 39.9444 57.9687 39.9287 57.7021C39.8972 57.1377 39.9129 56.5732 39.9129 56.0087C39.9129 55.6951 39.6454 55.4129 39.3149 55.4129C38.9844 55.4129 38.7325 55.6638 38.7168 56.0087C38.7168 57.0749 38.7168 58.1568 38.9057 59.2074C39.0945 60.1639 39.5352 61.1203 40.4008 61.6378C40.8887 61.9357 41.4711 62.0454 42.0219 62.0768C42.6672 62.0925 43.344 62.0141 43.9263 61.7318C44.9651 61.2458 45.3585 60.1482 45.4687 59.0976C45.5789 58.0471 45.4215 56.9025 45.4215 55.7892C45.4215 55.4756 45.1539 55.1934 44.8234 55.1934C44.4929 55.1934 44.2254 55.4442 44.2254 55.7892L44.2568 55.8205Z" fill="#231F20"/>
<path d="M47.6255 46.9453C48.1448 47.1962 48.5383 47.5568 48.9475 47.9645C49.4669 48.482 49.9548 49.0464 50.364 49.6423C50.7417 50.1754 51.1037 50.7555 51.2769 51.3984C51.2926 51.4768 51.3398 51.7277 51.3398 51.6806C51.3398 51.7434 51.3398 51.8218 51.3398 51.8845C51.3398 52.0413 51.3398 51.8688 51.3398 51.9629C51.3398 52.0099 51.3241 52.0413 51.2926 52.0726C51.3398 52.0256 51.45 52.1824 51.2611 52.0256C51.0722 51.8531 50.7575 51.7747 50.5057 51.7747C50.0335 51.7747 49.8131 52.2765 50.002 52.6528C50.4899 53.672 50.9936 54.7539 51.1352 55.8828C51.1982 56.4159 51.1667 56.949 51.0093 57.4508C50.9463 57.639 50.9621 57.733 50.8362 57.686C50.663 57.6233 50.5686 57.3097 50.5214 57.1529C50.427 56.902 50.2381 56.7139 49.9548 56.7139C49.703 56.7139 49.4354 56.902 49.3882 57.1529C49.2308 57.9682 48.9633 58.7836 48.3809 59.3794C47.7986 59.9753 47.0431 60.2104 46.2562 60.2732C45.4693 60.3359 45.5007 61.5119 46.2562 61.4492C47.3264 61.3551 48.3652 61.0258 49.1521 60.2575C49.9391 59.4892 50.3325 58.4857 50.5214 57.4508H49.3882C49.6715 58.1721 50.1279 58.9404 51.025 58.8777C51.9221 58.8149 52.2212 57.7487 52.3156 56.9961C52.536 55.2556 51.7805 53.5779 51.0408 52.057L50.5371 52.935C50.5371 52.935 50.5057 52.9037 50.6001 52.9664C50.663 52.9977 50.7103 53.0448 50.7732 53.0761C50.9306 53.1545 51.088 53.2173 51.2611 53.2329C51.5759 53.2486 51.8749 53.1389 52.111 52.935C52.4573 52.6214 52.5674 52.1667 52.5517 51.7277C52.5045 50.928 52.111 50.1597 51.7018 49.4855C51.2139 48.7015 50.6316 47.9645 49.9863 47.306C49.4826 46.7885 48.916 46.2397 48.2393 45.9262C47.956 45.785 47.6097 45.8478 47.4366 46.13C47.2792 46.3809 47.3579 46.8042 47.6412 46.9297L47.6255 46.9453Z" fill="#231F20"/>
<path d="M58.0127 54.5822C57.997 54.7547 58.0285 54.4568 58.0127 54.6293C58.0127 54.6606 58.0127 54.692 57.997 54.739C57.997 54.8174 57.9655 54.9115 57.9498 54.9899C57.9183 55.1624 57.8711 55.3348 57.8239 55.4916C57.7766 55.6328 57.7294 55.7896 57.6822 55.9307C57.6507 56.0091 57.6193 56.0875 57.5878 56.1659C57.5406 56.2756 57.5878 56.1816 57.5878 56.1659C57.572 56.2129 57.5406 56.26 57.5248 56.307C57.3832 56.6206 57.21 56.9185 57.0212 57.2007C56.9425 57.3262 56.8481 57.4516 56.7536 57.5771C56.7221 57.6241 56.6907 57.6555 56.6592 57.7025C56.612 57.7652 56.549 57.8279 56.4861 57.8907C56.2657 58.1415 56.0296 58.361 55.7778 58.5649C55.7463 58.5962 55.7149 58.6119 55.6834 58.6433C55.6991 58.6433 55.7621 58.5806 55.6834 58.6433C55.6204 58.6903 55.5417 58.7374 55.4788 58.7844C55.3371 58.8785 55.1955 58.9726 55.0538 59.051C54.9279 59.1294 54.7863 59.1921 54.6604 59.2705C54.5817 59.3018 54.503 59.3332 54.4243 59.3802C54.44 59.3802 54.5345 59.3332 54.4243 59.3802C54.3771 59.3959 54.3141 59.4273 54.2512 59.443C53.9364 59.5527 53.6216 59.6468 53.2911 59.7095C53.2596 59.7095 53.2281 59.7095 53.1967 59.7252C53.1495 59.7252 53.0393 59.7409 53.1495 59.7252C53.0393 59.7252 52.9449 59.7566 52.8347 59.7566C52.6458 59.7566 52.4412 59.7722 52.2523 59.7566C52.0635 59.7409 51.8746 59.7409 51.6858 59.7095C51.5756 59.7095 51.8274 59.7409 51.6543 59.7095C51.6071 59.7095 51.5441 59.6938 51.4969 59.6782C51.3867 59.6625 51.2765 59.6311 51.1664 59.6154C50.8673 59.537 50.5053 59.7095 50.4424 60.0231C50.3794 60.3367 50.5368 60.666 50.8516 60.7444C52.394 61.105 54.0151 60.9169 55.4158 60.1799C56.7064 59.5057 57.7924 58.3767 58.4377 57.0753C58.8311 56.2756 59.083 55.4446 59.1774 54.5665C59.2089 54.2529 58.8784 53.9707 58.5793 53.9707C58.2331 53.9707 58.0285 54.2373 57.9812 54.5665L58.0127 54.5822Z" fill="#231F20"/>
<path d="M51.8746 58.1264C53.9364 57.609 55.0538 55.2884 54.9436 53.297C54.9122 52.7482 54.7863 52.2308 54.5817 51.729C54.4872 51.5252 54.3771 51.3214 54.2511 51.1489C54.078 50.9137 53.8734 50.7255 53.6845 50.4903C53.7632 50.5687 53.6059 50.3963 53.6216 50.3806C53.6531 50.3806 53.6373 50.4747 53.6531 50.4747C53.6216 50.3649 53.6531 50.4433 53.6531 50.4747C53.5901 50.5844 53.6216 50.5217 53.6845 50.4747C53.6216 50.5374 53.6845 50.4747 53.7003 50.4747C53.7475 50.459 53.779 50.4276 53.8262 50.4119C53.8262 50.4119 53.9521 50.3649 53.8734 50.3806C53.7947 50.3963 53.9049 50.3806 53.9206 50.3649C53.9836 50.3335 54.0465 50.3179 54.1252 50.3022C54.2669 50.2551 54.4085 50.2238 54.5502 50.2081C54.5659 50.2081 54.6604 50.1924 54.5502 50.2081C54.5817 50.2081 54.6131 50.2081 54.6446 50.2081C54.7076 50.2081 54.7705 50.2081 54.8492 50.2081C54.9909 50.2081 55.1325 50.2081 55.2742 50.2238C55.1797 50.2081 55.3686 50.2238 55.2742 50.2238C55.3056 50.2238 55.3371 50.2238 55.3686 50.2395C55.4315 50.2395 55.4945 50.2708 55.5575 50.2865C55.6991 50.3179 55.825 50.3649 55.9509 50.4119C55.9667 50.4119 56.0611 50.459 55.9509 50.4119C55.9824 50.4276 56.0296 50.4433 56.0611 50.459C56.1241 50.4903 56.187 50.5217 56.2657 50.5531C56.3916 50.6315 56.5175 50.7099 56.6434 50.7883C56.6749 50.8039 56.6906 50.8196 56.7221 50.851C56.612 50.7726 56.7379 50.8667 56.7536 50.8823C56.8166 50.9294 56.8638 50.9764 56.911 51.0235C57.0212 51.1332 57.1313 51.243 57.2258 51.3684C57.2415 51.3841 57.2887 51.4625 57.2258 51.3684C57.2415 51.3998 57.2572 51.4155 57.2887 51.4468C57.3359 51.5095 57.3832 51.5879 57.4304 51.6506C57.5091 51.7761 57.572 51.9015 57.635 52.0426C57.5878 51.9329 57.635 52.0113 57.635 52.0426C57.6507 52.0897 57.6665 52.1367 57.6822 52.1838C57.6979 52.2465 57.7294 52.3092 57.7451 52.3719C57.7609 52.4503 57.7924 52.5287 57.8081 52.6228C57.8081 52.6542 57.8081 52.6855 57.8238 52.7169C57.8081 52.6071 57.8238 52.7169 57.8238 52.7639C57.8553 53.0618 58.0757 53.3597 58.4219 53.3597C58.7209 53.3597 59.0515 53.0932 59.02 52.7639C58.8941 51.4782 58.1858 50.3492 57.0841 49.6593C55.9824 48.9694 54.5974 48.844 53.4013 49.3771C53.0393 49.5339 52.6615 49.8004 52.5671 50.2081C52.4412 50.6628 52.6458 51.0705 52.9448 51.3998C53.0393 51.5095 53.1494 51.6036 53.2439 51.7134C53.2596 51.729 53.2753 51.7604 53.2911 51.7761C53.3383 51.8388 53.2281 51.682 53.2753 51.7604C53.3068 51.8231 53.354 51.8702 53.3855 51.9329C53.4485 52.027 53.4957 52.121 53.5429 52.2151C53.5429 52.2465 53.6373 52.4346 53.5744 52.2778C53.5901 52.3406 53.6216 52.3876 53.6373 52.4503C53.6688 52.5601 53.716 52.6698 53.7318 52.7953C53.7318 52.8423 53.7632 52.905 53.7632 52.9677C53.7632 52.9991 53.7632 53.0305 53.7632 53.0462C53.7632 53.0618 53.779 53.1873 53.7632 53.0932C53.7632 52.9991 53.7632 53.0932 53.7632 53.1246C53.7632 53.1559 53.7632 53.2029 53.7632 53.2343C53.7632 53.297 53.7632 53.3441 53.7632 53.4068C53.7632 53.5322 53.7632 53.6733 53.7632 53.7988C53.7632 53.9085 53.7475 54.034 53.7318 54.1437C53.7318 54.1751 53.716 54.2535 53.7318 54.1124C53.7318 54.1437 53.7318 54.1751 53.7318 54.2065C53.7318 54.2849 53.7003 54.3476 53.6845 54.426C53.6373 54.6768 53.5586 54.912 53.4799 55.1472C53.4799 55.1786 53.3698 55.3824 53.4485 55.257C53.417 55.3197 53.4013 55.3824 53.3698 55.4295C53.3068 55.5549 53.2439 55.6647 53.1652 55.7901C53.0865 55.9156 53.0078 56.0096 52.9448 56.1194C52.8976 56.1978 53.0393 56.0096 52.9448 56.1194C52.9291 56.1508 52.8976 56.1664 52.8819 56.1978C52.8347 56.2448 52.8032 56.2919 52.756 56.3389C52.6615 56.433 52.5514 56.5271 52.4569 56.6211C52.4255 56.6368 52.3625 56.6839 52.4727 56.6055C52.4412 56.6211 52.4097 56.6525 52.394 56.6682C52.331 56.7152 52.2838 56.7466 52.2208 56.7779C52.1107 56.8407 52.0005 56.9034 51.8746 56.9504C52.0162 56.8877 51.8274 56.9504 51.7802 56.9818C51.7172 56.9975 51.6543 57.0288 51.5756 57.0445C51.2608 57.1229 51.0877 57.4679 51.1663 57.7658C51.245 58.0637 51.5756 58.2518 51.8903 58.1734L51.8746 58.1264Z" fill="#231F20"/>
<path d="M58.879 33.5233C58.7216 33.0215 58.517 32.5198 58.3281 32.0337C58.6271 31.7985 59.1937 32.2219 59.3983 31.9083C59.4613 31.8142 59.4613 31.7044 59.4456 31.5947C59.3669 30.5598 58.9734 29.5406 58.3438 28.7096C57.2736 27.2984 56.7228 26.2949 56.8014 24.4917C56.8644 22.9865 56.6913 21.4655 56.5654 19.9759C56.4552 18.6902 56.3765 17.3574 55.8886 16.1501C55.621 15.4758 55.0387 13.9706 54.2046 13.8765C53.9527 13.8451 53.7009 13.9549 53.4806 14.0803C52.0798 14.7859 50.7892 15.8051 49.7977 17.0125C48.8534 18.1571 48.5229 19.3488 47.9405 20.6659C46.1148 20.4777 44.2891 20.2739 42.4635 20.0857C42.731 19.8662 42.9986 19.631 43.1402 19.3174C43.2819 19.0038 43.2032 18.5804 42.8884 18.408C42.7468 18.3296 42.5894 18.3296 42.432 18.3296C41.8339 18.3296 41.2358 18.4707 40.7007 18.7216C39.9767 19.0508 39.237 19.584 38.4658 19.4115C37.8992 19.286 37.49 18.8156 37.0021 18.5177C36.1522 18.0317 35.0977 18.1101 34.1219 18.2041C33.996 18.2041 33.8858 18.2355 33.7914 18.2982C33.4924 18.5177 33.7599 19.0195 34.0904 19.192C34.421 19.3644 34.8616 19.4742 34.9876 19.8348C33.1304 19.9132 31.2732 20.2582 29.5105 20.854C28.5504 19.631 28.0625 18.0317 27.0552 16.8713C26.048 15.711 23.9547 13.0768 22.2077 14.5507C21.0588 15.5229 20.9486 17.9062 20.8699 19.2704C20.7597 21.3558 20.5709 24.0684 21.3263 26.0754C21.6411 26.8907 21.6883 27.0475 21.2791 27.8472C20.9329 28.5058 20.5866 29.1643 20.2404 29.8385C20.0043 30.2933 19.7682 30.7637 19.7367 31.2811C19.7052 31.7985 19.9571 32.3473 20.445 32.5198C20.8384 32.6609 21.4208 32.5982 21.5467 32.9902C21.5939 33.147 21.5467 33.3195 21.4837 33.4763C20.7912 35.3892 19.4692 37.2081 19.6895 39.2307C19.7367 39.7168 19.9098 40.2343 20.2876 40.5478C20.6653 40.8614 21.3106 40.9085 21.6254 40.5322C21.2634 41.7238 20.9958 42.9469 20.8227 44.1856C20.7597 44.6089 20.7283 45.0793 21.0116 45.3929C21.2949 45.7065 21.7828 45.7379 22.1762 45.5811C22.5697 45.4243 22.8687 45.1107 23.1678 44.8128C23.1678 45.4086 23.1992 46.0358 23.5298 46.5375C23.8603 47.0393 24.6315 47.2745 25.0722 46.8668C25.3712 46.5846 25.4341 46.0515 25.8119 45.879C27.2756 47.8076 29.416 49.2345 31.7769 49.846C31.8555 49.5637 31.9185 49.2658 31.9972 48.9836C36.6716 51.6021 42.8097 51.4296 47.3267 48.5445C47.1693 48.7641 47.5313 48.9679 47.7989 48.9836C50.3013 49.0777 52.7409 47.3215 53.4648 44.9382C53.575 45.4086 53.7167 45.8947 54.0314 46.271C54.3462 46.6473 54.9128 46.8354 55.3377 46.6003C55.7312 46.3807 55.8414 45.879 55.9201 45.4399C56.0932 44.4678 56.5811 43.2291 56.5024 42.2569C56.6913 42.5549 56.8959 42.8685 57.0847 43.1664C57.2107 43.3545 57.3366 43.5584 57.5254 43.6995C58.4225 44.358 58.7373 42.5392 58.7688 41.9904C58.8317 41.0182 58.8947 39.9991 58.5012 39.121C58.5012 39.121 59.1308 38.2116 59.178 38.1332C59.3983 37.6628 59.5242 37.2237 59.4928 36.6906C59.4298 35.6244 59.1937 34.5895 58.8632 33.586L58.879 33.5233Z" fill="white"/>
<path d="M24.2854 17.9062C24.2854 17.9062 24.1753 17.9062 24.1123 17.9376C23.2467 18.2355 23.3726 20.1955 23.3411 20.8697C23.2782 22.1398 23.4513 23.3001 23.7031 24.5231C23.7503 24.7583 23.9077 25.0092 24.1438 25.0092C24.3169 25.0092 24.4586 24.8681 24.5845 24.727C25.0409 24.2252 25.5445 23.7391 26.0797 23.3001C26.4731 22.9708 27.0712 22.7199 27.386 22.3436C27.7007 21.9987 27.2286 21.3088 27.0555 20.9952C26.662 20.2739 26.1898 19.584 25.6232 18.9882C25.3242 18.6746 24.7891 17.9376 24.2854 17.9219V17.9062Z" fill="#F9BDBE"/>
<path d="M53.7484 17.8445C53.3707 17.1075 52.6152 17.327 52.1588 18.0796C51.7023 18.8166 51.419 19.6319 51.0728 20.4316C50.6636 21.3567 50.034 21.8271 51.2459 22.4073C51.8597 22.7052 52.4578 23.0031 53.0716 23.3167C53.166 23.3637 53.2762 23.4108 53.3864 23.4265C53.6225 23.4421 53.8271 23.2697 53.9215 23.0658C54.5511 21.6703 54.2992 19.5222 53.8586 18.1267C53.8271 18.0326 53.7956 17.9385 53.7484 17.8601V17.8445Z" fill="#F9BDBE"/>
<path d="M32.8787 39.3255C33.7566 39.3255 34.4683 38.6165 34.4683 37.7419C34.4683 36.8672 33.7566 36.1582 32.8787 36.1582C32.0008 36.1582 31.2891 36.8672 31.2891 37.7419C31.2891 38.6165 32.0008 39.3255 32.8787 39.3255Z" fill="#231F20"/>
<path d="M47.0125 39.3255C47.8904 39.3255 48.6021 38.6165 48.6021 37.7419C48.6021 36.8672 47.8904 36.1582 47.0125 36.1582C46.1345 36.1582 45.4229 36.8672 45.4229 37.7419C45.4229 38.6165 46.1345 39.3255 47.0125 39.3255Z" fill="#231F20"/>
<path d="M39.8825 41.6461C41.5775 41.6461 42.9516 40.7966 42.9516 39.7488C42.9516 38.701 41.5775 37.8516 39.8825 37.8516C38.1875 37.8516 36.8135 38.701 36.8135 39.7488C36.8135 40.7966 38.1875 41.6461 39.8825 41.6461Z" fill="#231F20"/>
<path d="M26.9137 23.3623C29.3532 21.1201 32.9416 20.5713 36.1366 20.5242C36.9078 20.5242 36.892 19.411 36.1366 19.3482C35.1922 19.2698 34.3266 18.7838 33.7915 18.0155L33.4452 18.8778C34.2479 18.7054 35.0821 18.721 35.869 18.9249C36.7032 19.1444 37.3327 19.6775 38.1196 19.9911C38.9853 20.3517 39.788 19.9911 40.6064 19.6932C41.5035 19.3482 42.4006 19.019 43.3292 18.7838L42.6052 18.3761C42.6996 18.6583 42.7626 18.7994 42.5737 19.019C42.3534 19.2698 42.0229 19.4266 41.7553 19.6305C41.3146 19.9598 41.409 20.7281 42.0543 20.7281C45.69 20.6967 49.2784 21.6532 52.3789 23.5347C53.0242 23.9267 53.6223 22.9076 52.977 22.5156C49.6876 20.5242 45.8946 19.505 42.0543 19.5364L42.3534 20.634C42.7783 20.3047 43.3292 20.0225 43.6439 19.5834C43.9587 19.1444 43.943 18.5799 43.7541 18.0625C43.6439 17.7646 43.3607 17.5764 43.0301 17.6548C42.133 17.8743 41.2517 18.2036 40.386 18.5329C39.9453 18.7054 39.4574 18.9719 38.9695 19.0033C38.5603 19.0346 38.2141 18.7367 37.8836 18.5329C36.4513 17.6548 34.7516 17.4039 33.1305 17.7646C32.7685 17.843 32.5639 18.3291 32.7842 18.627C33.5712 19.7716 34.7673 20.4458 36.1523 20.5556V19.3796C32.6268 19.4266 28.7708 20.0852 26.0953 22.5626C25.5287 23.08 26.3786 23.9111 26.9294 23.3936L26.9137 23.3623Z" fill="#231F20"/>
<path d="M24.2536 24.3978C22.2076 25.7619 20.3347 27.6749 19.4061 29.9641C19.1858 30.4972 18.8867 30.9833 18.8867 31.5791C18.8867 32.175 19.2015 32.6924 19.7051 32.9746C20.3504 33.3509 21.9086 33.6959 22.302 32.8022L21.2161 32.3474C20.7282 33.8527 19.8625 35.1855 19.3746 36.6751C19.1071 37.4747 19.0284 38.3214 19.0913 39.1681C19.1543 39.8894 19.2802 40.8459 19.957 41.2692C20.8068 41.8024 21.6882 41.0497 22.2391 40.4382L21.2475 39.8737C20.4763 41.8964 19.7838 44.1543 20.8383 46.2084C20.9957 46.5063 21.3734 46.5533 21.641 46.4122C22.4279 46.0045 23.1362 45.4557 23.7028 44.7658L22.7112 44.2014C22.6011 44.907 22.6011 45.6125 22.8057 46.3025C22.9631 46.8669 23.2306 47.5568 23.7815 47.8548C24.3323 48.1527 24.9461 47.9175 25.3553 47.5098C25.796 47.0708 25.859 46.3965 26.3154 45.9889L25.3868 45.8634C26.7246 48.0116 28.928 49.5168 31.399 50.0499C32.1387 50.2067 32.4535 49.0778 31.7138 48.921C29.5261 48.4663 27.5902 47.1648 26.4098 45.2833C26.2052 44.954 25.7645 44.907 25.4813 45.1578C25.198 45.4087 25.0248 45.738 24.8674 46.0986C24.7887 46.2554 24.5841 46.8356 24.3323 46.8042C24.112 46.7729 23.9389 46.0045 23.8916 45.8321C23.7815 45.4087 23.7657 44.954 23.8444 44.515C23.9231 43.9975 23.2778 43.4331 22.8529 43.9505C22.3335 44.562 21.7354 45.0481 21.0272 45.4087L21.8299 45.6125C20.9485 43.8878 21.7197 41.8494 22.365 40.1873C22.5696 39.6385 21.7512 39.1838 21.3734 39.6229C21.1531 39.8737 20.8698 40.1717 20.5708 40.2814C20.5235 40.2814 20.5393 40.2814 20.5708 40.2814C20.5235 40.2501 20.555 40.2814 20.4763 40.156C20.2245 39.7013 20.2088 39.0114 20.2245 38.4782C20.2717 36.4242 21.704 34.6053 22.3335 32.661C22.5381 32.0338 21.5308 31.5948 21.2475 32.2063C21.2003 32.3161 21.3262 32.175 21.3105 32.1593C21.3105 32.1593 21.1688 32.1593 21.1531 32.1593C20.9957 32.1436 20.8541 32.1279 20.6967 32.0966C20.4291 32.0338 20.1143 31.9711 20.0356 31.6732C19.9412 31.3283 20.2402 30.8892 20.3819 30.5756C20.555 30.1836 20.6809 29.8073 20.9013 29.4467C21.8299 27.863 23.2936 26.4362 24.8202 25.417C25.4498 24.9936 24.8517 23.9744 24.2222 24.3978H24.2536Z" fill="#231F20"/>
<path d="M55.2746 25.0721C56.392 27.4711 58.3908 29.3998 58.9417 32.0496L59.5083 31.3127C58.8473 31.3284 58.2334 31.0618 57.8557 30.513C57.4308 29.8858 56.4392 30.4503 56.8327 31.1089C57.8085 32.6925 58.7213 34.7152 58.7213 36.5497C58.7213 37.0672 58.6899 37.6473 58.4853 38.1334C58.4695 38.1804 58.3908 38.3216 58.3908 38.3216C58.3436 38.2902 58.6269 38.2432 58.6269 38.2588C58.6269 38.3686 58.6899 38.1961 58.6269 38.2588C58.6269 38.2432 58.5167 38.1491 58.501 38.1334C58.3593 37.9609 58.2649 37.7571 58.1547 37.5533L57.2262 38.2588C58.2492 39.3878 58.2649 41.2066 57.9344 42.6178C57.9029 42.7433 57.8714 42.9314 57.777 43.0255C57.777 43.0255 57.9187 43.1823 57.7928 43.0255C57.6668 42.8687 57.6196 42.6492 57.5567 42.4767C57.3521 41.9436 57.0845 41.4732 56.5022 41.285C56.1559 41.1753 55.7152 41.4732 55.7625 41.8495C55.9041 43.3861 55.668 44.9071 55.007 46.3183L55.3532 46.0517C54.5348 46.2869 54.2673 45.1109 54.1256 44.5621C53.9682 43.9506 53.1813 44.0604 52.9924 44.5621C52.1583 46.6319 49.8447 48.5134 47.5783 48.6389C46.8229 48.6859 46.8229 49.8619 47.5783 49.8149C50.427 49.6424 53.0869 47.4472 54.1414 44.8757H53.0082C53.1813 45.6127 53.4174 46.3653 54.0469 46.8514C54.5506 47.2434 55.5893 47.557 56.0458 46.9298C56.2661 46.6319 56.3763 46.1771 56.5022 45.8165C56.6596 45.3775 56.7697 44.9228 56.8484 44.468C56.9901 43.6057 57.0373 42.7433 56.9586 41.8809L56.2189 42.4453C56.392 42.4924 56.4864 42.9001 56.5337 43.0412C56.6596 43.3705 56.7855 43.6997 57.0373 43.9349C57.7928 44.6562 58.7528 43.9976 59.0361 43.198C59.3509 42.3199 59.3824 41.1753 59.2722 40.2502C59.162 39.1996 58.8158 38.2275 58.0918 37.4435C57.6196 36.9417 56.8642 37.5846 57.1632 38.1491C57.5095 38.792 58.1862 39.8111 59.0519 39.2937C59.6971 38.9174 59.8073 37.9609 59.8703 37.3024C60.1221 34.9661 59.0519 32.473 57.8557 30.5287L56.8327 31.1245C57.4308 32.0183 58.4066 32.5357 59.4925 32.5044C59.886 32.5044 60.1378 32.1437 60.0591 31.7674C59.4768 28.9921 57.4308 27.0007 56.2818 24.5077C55.9671 23.8177 54.944 24.4136 55.2588 25.1035L55.2746 25.0721Z" fill="#231F20"/>
<path d="M48.3651 20.3057C49.1049 18.8475 50.1121 17.4833 51.2296 16.2916C51.7962 15.6801 52.3785 15.1313 53.071 14.7237C53.1497 14.6766 53.2284 14.6453 53.3071 14.5982C53.3386 14.5825 53.3701 14.5669 53.4015 14.5512C53.496 14.5041 53.2756 14.5982 53.433 14.5512C53.5747 14.5041 53.7163 14.4571 53.8737 14.4257C53.7321 14.4571 53.9367 14.4257 53.9681 14.4257C53.9996 14.4257 54.22 14.4571 54.0626 14.4257C54.1255 14.4257 54.1727 14.4571 54.2357 14.4728C54.3773 14.5041 54.157 14.4101 54.2829 14.4728C54.3301 14.5041 54.3616 14.5355 54.4088 14.5512C54.519 14.5982 54.3301 14.4728 54.4403 14.5825C54.519 14.6609 54.5977 14.7393 54.6764 14.8177C54.5662 14.6923 54.6921 14.8491 54.7079 14.8805C54.7393 14.9275 54.7708 14.9902 54.818 15.0373C54.881 15.147 54.9439 15.2725 55.0069 15.3979C55.0069 15.4293 55.0384 15.4606 55.0541 15.492C55.1171 15.6331 55.0226 15.4136 55.0541 15.5077C55.0856 15.5861 55.1171 15.6488 55.1328 15.7272C55.1958 15.884 55.243 16.0251 55.2902 16.1819C55.4004 16.5268 55.4791 16.8561 55.5578 17.2011C55.8883 18.7377 56.0142 20.29 56.0771 21.905C56.1401 23.2848 56.1558 24.6647 56.1243 26.0445C56.1086 26.7971 57.289 26.7971 57.3048 26.0445C57.3677 23.0653 57.3048 20.0078 56.7224 17.0756C56.4706 15.8526 56.1086 14.2846 55.0069 13.5477C53.6376 12.6226 51.9378 13.9397 50.9778 14.8491C50.1751 15.6017 49.4669 16.4798 48.8058 17.3735C48.255 18.1262 47.7356 18.8945 47.3264 19.7255C46.9801 20.3998 48.0032 20.9956 48.3494 20.3214L48.3651 20.3057Z" fill="#231F20"/>
<path d="M51.4184 21.2468C51.5758 20.7764 51.7489 20.3061 51.9378 19.8357L51.8748 19.9768C52.0637 19.5221 52.284 19.083 52.5201 18.6597C52.646 18.4402 52.7877 18.2363 52.9293 18.0325C52.945 18.0168 52.9608 17.9854 52.9765 17.9698C53.0395 17.8757 52.8821 18.0795 52.9608 18.0011C53.008 17.9541 53.0395 17.8914 53.0867 17.8443C53.1654 17.7502 53.2441 17.6562 53.3385 17.5778C53.5588 17.3583 53.5746 16.9663 53.3385 16.7467C53.1024 16.5272 52.7404 16.5115 52.5044 16.7467C51.5443 17.7189 50.962 19.0046 50.4898 20.2747C50.4111 20.4942 50.3324 20.7294 50.2537 20.9489C50.1593 21.2468 50.3639 21.6075 50.6629 21.6702C50.9934 21.7486 51.2767 21.5761 51.3869 21.2625L51.4184 21.2468Z" fill="#231F20"/>
<path d="M20.3972 23.7247C20.4602 24.3833 20.5861 25.0262 20.7435 25.6534C20.8694 26.1394 21.011 26.6098 21.137 27.0959C21.2157 27.3938 21.5619 27.5977 21.8609 27.5036C22.16 27.4095 22.3646 27.0959 22.2701 26.7823C22.0026 25.8258 21.7193 24.8694 21.5934 23.8659V24.0227C21.5934 23.9286 21.5934 23.8188 21.5934 23.7247C21.5776 23.5679 21.5462 23.4268 21.4203 23.3014C21.3101 23.1916 21.1527 23.1289 20.9953 23.1289C20.8379 23.1289 20.6805 23.1916 20.5704 23.3014C20.4759 23.4111 20.3815 23.5679 20.3972 23.7247Z" fill="#231F20"/>
<path d="M29.7779 19.8204C28.8651 18.4249 27.8421 17.0765 26.6459 15.9162C25.7646 15.0538 24.7101 14.1443 23.4824 13.8151C23.0103 13.6896 22.4594 13.6583 22.0187 13.8778C21.7669 14.0032 21.5781 14.2384 21.4049 14.4736C20.917 15.1635 20.6652 16.0416 20.4921 16.8569C20.1301 18.5347 20.0829 20.2595 20.193 21.9686C20.2088 22.2822 20.4449 22.5644 20.7911 22.5644C21.0902 22.5644 21.4049 22.2978 21.3892 21.9686C21.342 21.1689 21.3262 20.3535 21.3577 19.5382C21.3734 19.1932 21.4049 18.8326 21.4364 18.4876C21.4364 18.4249 21.4364 18.3465 21.4521 18.2838C21.4521 18.2524 21.4521 18.2054 21.4521 18.174C21.4521 18.174 21.4679 18.0329 21.4521 18.1113C21.4364 18.1897 21.4521 18.0643 21.4521 18.0486C21.4521 18.0173 21.4521 17.9702 21.4679 17.9389C21.4679 17.8605 21.4994 17.7821 21.4994 17.7037C21.5781 17.2176 21.6882 16.7158 21.8456 16.2454C21.8771 16.1514 21.9086 16.0416 21.94 15.9475C21.9558 15.9005 21.9715 15.8534 21.9873 15.8064C21.9873 15.7907 22.003 15.7594 22.0187 15.7437C22.0502 15.6496 21.9715 15.8378 22.0187 15.775C22.0817 15.6339 22.1604 15.4771 22.2391 15.336C22.2706 15.2733 22.302 15.2106 22.3493 15.1635C22.3493 15.1478 22.3807 15.1165 22.3965 15.1008C22.3965 15.1008 22.4122 15.0694 22.4279 15.0694C22.4909 14.991 22.4279 15.1165 22.3807 15.1165C22.3807 15.1165 22.5853 14.9283 22.5853 14.9127C22.5853 14.9127 22.4437 15.0381 22.5224 14.9597C22.5224 14.9597 22.5539 14.944 22.5696 14.9283C22.6325 14.8813 22.4752 14.9597 22.4752 14.9597C22.5066 14.9597 22.5539 14.9283 22.5853 14.9283C22.6011 14.9283 22.6325 14.9283 22.6483 14.9283C22.7427 14.897 22.6011 14.9283 22.5853 14.9283C22.5853 14.9283 22.6955 14.9283 22.727 14.9283C22.7742 14.9283 22.8214 14.9283 22.8686 14.9283C22.9473 14.9283 23.0103 14.9597 22.9001 14.9283C23.1204 14.9754 23.3251 15.0381 23.5454 15.1165C23.6241 15.1478 23.451 15.0694 23.5297 15.1165C23.5611 15.1165 23.5926 15.1478 23.6084 15.1478C23.6556 15.1635 23.7028 15.1949 23.75 15.2262C23.8759 15.289 24.0018 15.3517 24.112 15.4301C24.2222 15.5085 24.3481 15.5869 24.4582 15.6653C24.5055 15.6966 24.5684 15.7437 24.6156 15.775C24.6471 15.7907 24.6786 15.8221 24.7101 15.8378C24.8517 15.9475 24.6314 15.775 24.773 15.8848C25.0248 16.0886 25.2767 16.2925 25.5127 16.512C26.7718 17.6723 27.8106 19.0208 28.7392 20.4476C28.9123 20.7142 29.2586 20.8239 29.5419 20.6515C29.8094 20.4947 29.9196 20.1183 29.7465 19.8518L29.7779 19.8204Z" fill="#231F20"/>
<path d="M27.4333 21.6706C27.0713 20.3378 26.426 19.1148 25.5761 18.0172C25.3401 17.7193 25.104 17.4528 24.8364 17.1862C24.6161 16.9667 24.2226 16.951 24.0023 17.1862C23.7819 17.4214 23.7662 17.782 24.0023 18.0172C24.2383 18.2524 24.4429 18.4876 24.6476 18.7228C24.6633 18.7542 24.6948 18.7855 24.7105 18.8012C24.7105 18.8012 24.7262 18.8326 24.742 18.8483C24.7892 18.911 24.6633 18.7542 24.7105 18.8169C24.7577 18.8796 24.8049 18.9423 24.8522 19.0207C24.9466 19.1462 25.041 19.2873 25.1197 19.4127C25.2928 19.6793 25.4502 19.9458 25.5919 20.2124C25.6706 20.3535 25.7335 20.4946 25.7965 20.6357C25.828 20.6985 25.8594 20.7769 25.8909 20.8396C25.9224 20.9023 25.8594 20.7769 25.8594 20.7769C25.8594 20.7925 25.8594 20.8082 25.8752 20.8239C25.8909 20.8709 25.9067 20.918 25.9224 20.9493C26.0483 21.2786 26.1585 21.6236 26.2529 21.9685C26.3316 22.2664 26.6778 22.4703 26.9769 22.3762C27.2759 22.2821 27.4805 21.9685 27.3861 21.6549L27.4333 21.6706Z" fill="#231F20"/>
<path d="M31.4464 48.9059C32.312 49.831 33.4767 50.5052 34.7043 50.8188C35.082 50.9129 35.4598 50.9756 35.8375 51.007C35.9792 51.007 36.1523 50.9286 36.2624 50.8345C36.3726 50.7404 36.4356 50.568 36.4356 50.4112C36.4356 50.0662 36.168 49.8467 35.8375 49.8153C35.7431 49.8153 35.6486 49.7996 35.5542 49.784H35.7116C35.1765 49.7369 34.6414 49.5801 34.1377 49.3763L34.2794 49.439C33.8859 49.2665 33.5082 49.0627 33.1619 48.8275C33.1147 48.7961 33.0675 48.7648 33.036 48.7334C32.9888 48.7021 32.8471 48.5923 33.0045 48.7177C32.9258 48.655 32.8471 48.5923 32.7684 48.5296C32.5953 48.3885 32.4379 48.2317 32.2963 48.0749C32.0917 47.8553 31.6667 47.8397 31.4621 48.0749C31.2418 48.3101 31.2418 48.6707 31.4621 48.9059H31.4464Z" fill="#231F20"/>
<path d="M47.9721 47.4322C47.8777 47.5263 47.7832 47.6204 47.6731 47.7145C47.6258 47.7615 47.5629 47.8085 47.5157 47.8556C47.4842 47.8713 47.4685 47.9026 47.437 47.9183C47.437 47.9183 47.4055 47.9497 47.3898 47.9497C47.5314 47.8399 47.4527 47.9026 47.4212 47.9183C47.1537 48.1221 46.8861 48.2946 46.6028 48.4671C46.3195 48.6396 46.0048 48.7964 45.69 48.9375C45.6113 48.9689 45.5483 49.0002 45.4696 49.0316C45.3752 49.0629 45.5169 49.0159 45.5169 49.0159C45.5169 49.0159 45.4696 49.0316 45.4539 49.0473C45.4067 49.0629 45.3595 49.0786 45.328 49.0943C45.1863 49.157 45.029 49.204 44.8873 49.2511C44.7299 49.2981 44.5568 49.3452 44.3837 49.3765C44.3522 49.3765 44.3207 49.3765 44.2735 49.3922C44.242 49.3922 44.1004 49.4236 44.2263 49.3922C44.3522 49.3608 44.2105 49.3922 44.1791 49.3922C44.1318 49.3922 44.1004 49.3922 44.0531 49.3922C43.7384 49.3922 43.4551 49.6588 43.4551 49.988C43.4551 50.3016 43.7226 50.5839 44.0531 50.5839C44.7771 50.5525 45.4539 50.3173 46.0992 50.0351C46.7445 49.7528 47.3583 49.4079 47.9091 49.0002C48.2082 48.7807 48.5072 48.5455 48.7748 48.2789C48.9951 48.0594 49.0109 47.6674 48.7748 47.4479C48.5387 47.2284 48.1767 47.2127 47.9406 47.4479L47.9721 47.4322Z" fill="#231F20"/>
</svg>
