<svg width="80" height="76" viewBox="0 0 80 76" fill="none" xmlns="http://www.w3.org/2000/svg">
<path d="M50.269 49.5651C49.9699 48.6244 49.6079 47.7149 49.2302 46.8369C48.9941 46.3037 48.6794 45.2218 48.1915 44.8769C46.4917 42.3054 43.6115 40.5179 40.5424 40.1729C37.3632 39.8123 34.0581 40.9569 31.7917 43.1991C27.8413 47.1191 24.7565 60.8546 33.8849 60.3999L34.5302 59.71C34.8293 60.1961 35.3014 60.541 36.0726 60.6508C38.8112 61.0271 39.4565 59.3337 39.6138 57.2953C39.7712 59.318 40.4165 61.0114 43.1551 60.6508C46.1297 60.2431 49.5292 60.1333 50.5995 56.8876C51.4022 54.4572 51.0559 51.9328 50.3004 49.5651H50.269Z" fill="#888888"/>
<path d="M33.8536 58.6275C33.8694 58.7216 33.9008 58.8156 33.9166 58.9097C33.9795 59.1136 34.0425 59.3331 34.1212 59.5212C34.1212 59.5369 34.1212 59.5369 34.1212 59.5369C34.1212 59.5369 34.1212 59.5369 34.1369 59.5683C34.1527 59.6153 34.1841 59.6623 34.1999 59.7251C34.2314 59.7878 34.2628 59.8505 34.2943 59.8975L34.4989 59.6937C34.798 60.1798 35.2701 60.5247 36.0413 60.6345C38.1346 60.9167 39.0002 59.9916 39.3622 58.6275C37.5208 58.5804 35.6478 58.6118 33.8379 58.6118L33.8536 58.6275Z" fill="white"/>
<path d="M42.7457 49.8471C42.7457 49.8471 42.6198 49.7059 42.5411 49.6432C41.9588 49.1572 41.1089 49.2042 40.3849 49.4394C39.8341 49.6119 39.2675 49.8941 38.937 50.3802C38.3389 49.6746 36.828 49.1885 35.9623 49.5648C35.4744 49.7843 35.1125 50.2547 35.0967 50.7879C35.0338 52.6694 37.9297 54.0336 39.5508 53.8768C40.9987 53.72 44.2567 51.5405 42.7457 49.8471Z" fill="white"/>
<path d="M44.4613 60.3987C44.6029 60.2105 44.7288 60.0223 44.8548 59.8342C44.9807 59.646 45.1066 59.4422 45.2167 59.254C45.264 59.16 45.3112 59.0659 45.3584 58.9718C45.3899 58.9248 45.4056 58.862 45.4371 58.815C45.4528 58.768 45.4686 58.7052 45.4843 58.6582C43.6901 58.8464 41.8801 58.7366 40.0859 58.6582C39.9915 58.6582 39.9128 58.6582 39.8184 58.6582C40.1804 60.0067 41.046 60.9318 43.1392 60.6495C43.5484 60.5868 43.9734 60.5398 44.3983 60.4771C44.4141 60.4457 44.4455 60.43 44.4613 60.3987Z" fill="white"/>
<path d="M33.5073 55.0216C33.5073 56.0094 33.3813 56.9972 33.4286 57.985C33.4915 59.0513 33.7906 60.1332 34.7034 60.776C35.207 61.1367 35.8523 61.2464 36.4504 61.2778C37.017 61.3092 37.5993 61.2621 38.1187 61.0426C38.6381 60.8231 39.0473 60.4938 39.3778 60.0391C39.6611 59.6471 39.8342 59.1924 39.9444 58.722C40.2277 57.5774 40.212 56.37 40.1962 55.2097C40.1962 54.8961 39.9287 54.6139 39.5981 54.6139C39.2676 54.6139 39.0001 54.8648 39.0001 55.2097C39.0001 55.7115 39.0001 56.2132 39.0001 56.6993C39.0001 56.9502 38.9843 57.1854 38.9529 57.4362C38.9529 57.546 38.9371 57.6558 38.9214 57.7812C38.9214 57.8282 38.8899 57.938 38.9214 57.7498C38.9214 57.7812 38.9214 57.8126 38.9214 57.8439C38.9214 57.9066 38.9056 57.9694 38.8899 58.0164C38.8584 58.2359 38.7955 58.4554 38.7325 58.6593C38.701 58.7533 38.6696 58.8474 38.6381 58.9415C38.5909 59.0826 38.701 58.8161 38.6381 58.9415C38.6066 59.0042 38.5909 59.0513 38.5594 59.114C38.5122 59.1924 38.465 59.2865 38.4177 59.3649C38.3863 59.3962 38.3705 59.4276 38.339 59.4746C38.2761 59.553 38.4335 59.3649 38.3705 59.4433C38.3548 59.4746 38.3233 59.4903 38.3076 59.5217C38.2446 59.5844 38.1817 59.6628 38.103 59.7255C38.0872 59.7255 38.0715 59.7569 38.0558 59.7725C38.0085 59.8196 38.1817 59.6785 38.103 59.7412C38.0558 59.7725 38.0085 59.8039 37.9456 59.8509C37.8669 59.898 37.7567 59.9293 37.678 59.9921C37.7567 59.9293 37.8039 59.945 37.741 59.9607C37.7095 59.9607 37.6938 59.9764 37.6623 59.9921C37.5993 60.0077 37.5364 60.0391 37.4734 60.0548C37.3632 60.0861 37.2531 60.1018 37.1429 60.1175C37.1429 60.1175 37.3003 60.1018 37.2059 60.1175C37.1744 60.1175 37.1429 60.1175 37.1114 60.1175C37.0327 60.1175 36.954 60.1175 36.8911 60.1175C36.7652 60.1175 36.6235 60.1175 36.4976 60.1175C36.4189 60.1175 36.3402 60.1175 36.2615 60.1018C36.2143 60.1018 36.1828 60.1018 36.1356 60.1018C35.994 60.0861 36.2615 60.1175 36.1356 60.1018C36.0097 60.0861 35.8995 60.0548 35.7736 60.0234C35.7107 60.0077 35.6477 59.9764 35.6005 59.9607C35.4903 59.9293 35.7264 60.0234 35.632 59.9607C35.6005 59.9607 35.5848 59.9293 35.5533 59.9293C35.4589 59.8823 35.3802 59.8196 35.2857 59.7725C35.1913 59.7255 35.3959 59.8666 35.3172 59.8039C35.3015 59.7882 35.27 59.7725 35.2543 59.7569C35.207 59.7255 35.1756 59.6785 35.1441 59.6471C35.1126 59.6157 35.0811 59.553 35.0339 59.5217C35.1283 59.5844 35.1126 59.6314 35.0811 59.5844C35.0811 59.5687 35.0497 59.5373 35.0339 59.5217C34.971 59.4276 34.9237 59.3335 34.8765 59.2394C34.8765 59.2081 34.8608 59.1924 34.845 59.161C34.7978 59.0669 34.8923 59.3021 34.8608 59.2081C34.8608 59.161 34.8293 59.1297 34.8136 59.0826C34.7821 58.9729 34.7506 58.8631 34.7191 58.7534C34.6877 58.6436 34.6719 58.5495 34.6562 58.4398C34.6562 58.4084 34.6562 58.377 34.6562 58.3457C34.6877 58.5182 34.6562 58.4398 34.6562 58.3927C34.6562 58.33 34.6562 58.2673 34.6404 58.1889C34.546 57.1383 34.7034 56.0878 34.7034 55.0372C34.7034 54.7236 34.4358 54.4414 34.1053 54.4414C33.7748 54.4414 33.523 54.6923 33.5073 55.0372V55.0216Z" fill="#231F20"/>
<path d="M48.8529 44.8136C46.7754 41.5365 43.0454 39.4354 39.1421 39.5138C35.7583 39.5766 32.3273 41.2073 30.3599 43.9983C29.0379 45.8955 28.188 48.1848 27.7158 50.427C27.2437 52.6692 27.0548 55.1623 27.8889 57.3418C28.3139 58.4394 28.9907 59.4115 29.9822 60.0701C31.1154 60.8227 32.5161 61.0422 33.8697 60.9952C34.6251 60.9638 34.6251 59.7878 33.8697 59.8192C31.8866 59.9133 30.0924 59.239 29.1953 57.4045C28.2982 55.57 28.3926 53.4061 28.7074 51.5089C29.0536 49.3921 29.7461 47.3067 30.8321 45.4565C32.2486 43.0261 34.6881 41.4268 37.4581 40.8937C41.4715 40.1097 45.658 42.0069 47.8299 45.4408C48.2391 46.0837 49.2622 45.4878 48.8529 44.845V44.8136Z" fill="#231F20"/>
<path d="M44.5088 55.0217C44.5088 55.9625 44.6347 56.8876 44.5875 57.8284C44.5875 57.9382 44.5875 58.0479 44.5717 58.1734C44.5717 58.2361 44.5717 58.2831 44.556 58.3458C44.556 58.3772 44.556 58.3929 44.556 58.4242C44.556 58.3772 44.5717 58.2204 44.556 58.4242C44.5245 58.6438 44.4773 58.8633 44.3986 59.0671C44.3986 59.1142 44.3671 59.1455 44.3514 59.1926C44.3199 59.3023 44.4144 59.0514 44.3671 59.1455C44.3671 59.1769 44.3514 59.1926 44.3357 59.2239C44.2884 59.318 44.2412 59.4121 44.1783 59.5061C44.1783 59.5218 44.1468 59.5375 44.1468 59.5532C44.1153 59.6159 44.0838 59.5845 44.1783 59.5061C44.1468 59.5375 44.1153 59.5845 44.0681 59.6316C44.0366 59.6629 44.0051 59.6943 43.9737 59.7257C43.9579 59.7413 43.9265 59.757 43.9107 59.7727C43.8005 59.8668 44.0051 59.71 43.9107 59.7727C43.8163 59.8354 43.7376 59.8825 43.6432 59.9295C43.5959 59.9609 43.4385 59.9922 43.6274 59.9295C43.5645 59.9452 43.4858 59.9765 43.4228 60.0079C43.2969 60.0393 43.1867 60.0706 43.0608 60.0863C43.0136 60.0863 42.9979 60.1177 43.108 60.0863C43.0766 60.0863 43.0136 60.0863 42.9821 60.0863C42.8877 60.0863 42.809 60.102 42.7146 60.102C42.5887 60.102 42.447 60.102 42.3211 60.102C42.2581 60.102 42.1795 60.102 42.1165 60.102C42.0535 60.102 41.8489 60.0549 42.0378 60.102C41.9276 60.0706 41.8175 60.0706 41.7073 60.0393C41.6443 60.0393 41.5971 60.0079 41.5342 59.9922C41.5027 59.9922 41.4869 59.9765 41.4555 59.9609C41.3925 59.9295 41.3925 59.8981 41.4869 59.9765C41.424 59.9138 41.2981 59.8825 41.2194 59.8354C41.1722 59.8041 41.125 59.7727 41.0935 59.7413C40.999 59.6786 41.0777 59.7413 41.0935 59.7413C41.1879 59.8041 41.0935 59.7413 41.0777 59.7257C40.999 59.6629 40.9361 59.6002 40.8731 59.5218C40.8259 59.4748 40.7472 59.3337 40.8574 59.5061C40.8259 59.4591 40.7944 59.4277 40.763 59.3807C40.7157 59.3023 40.6685 59.2239 40.6213 59.1298C40.5898 59.0828 40.5741 59.0358 40.5584 58.9887C40.5584 58.973 40.5584 58.9574 40.5426 58.9417C40.4954 58.8476 40.6056 59.0985 40.5426 58.9417C40.4639 58.7378 40.401 58.534 40.3538 58.3302C40.3223 58.2047 40.3065 58.0793 40.2751 57.9538C40.2751 57.8911 40.2593 57.8284 40.2436 57.7814C40.2278 57.6716 40.2593 57.9382 40.2436 57.8127C40.2436 57.7814 40.2436 57.7343 40.2436 57.703C40.2121 57.4364 40.1964 57.1699 40.1806 56.9033C40.1492 56.3388 40.1649 55.7744 40.1649 55.2099C40.1649 54.8963 39.8973 54.6141 39.5668 54.6141C39.2363 54.6141 38.9845 54.8649 38.9688 55.2099C38.9688 56.2761 38.9687 57.358 39.1576 58.4086C39.3465 59.365 39.7872 60.3215 40.6528 60.8389C41.1407 61.1368 41.723 61.2466 42.2739 61.278C42.9192 61.2936 43.5959 61.2152 44.1783 60.933C45.217 60.4469 45.6105 59.3494 45.7207 58.2988C45.8308 57.2483 45.6735 56.1036 45.6735 54.9904C45.6735 54.6768 45.4059 54.3945 45.0754 54.3945C44.7449 54.3945 44.4773 54.6454 44.4773 54.9904L44.5088 55.0217Z" fill="#231F20"/>
<path d="M47.8145 45.332C48.0349 45.4574 48.1608 45.8024 48.271 46.0219C48.4126 46.3355 48.507 46.6491 48.633 46.9627C48.8376 47.4644 49.0579 47.9662 49.2468 48.4836C49.6717 49.6282 50.0337 50.7885 50.2855 51.9802C50.6947 53.9245 50.9466 56.4019 49.7189 57.9856C48.9477 58.9734 47.7044 59.3811 46.4768 59.4751C45.7213 59.5379 45.7213 60.7138 46.4768 60.6511C47.846 60.5414 49.1996 60.1494 50.2226 59.1772C51.0725 58.3619 51.5289 57.2486 51.702 56.104C52.0797 53.5325 51.3715 50.8356 50.4901 48.4366C50.254 47.8094 49.9707 47.1508 49.7347 46.5393C49.4199 45.771 49.1838 44.7675 48.4126 44.3128C47.7516 43.9208 47.1693 44.94 47.8145 45.332Z" fill="#231F20"/>
<path d="M24.4426 17.0274C23.3566 17.388 22.2549 17.7487 21.342 18.4229C20.4292 19.0971 19.7052 20.1477 19.721 21.2766C19.721 21.9979 20.0357 22.6721 20.3505 23.315C20.9486 24.4753 21.6568 25.5729 22.4595 26.5921C23.514 27.9092 25.0406 29.2106 26.6932 28.85C26.6145 31.2019 26.5673 33.6637 27.6375 35.7491C29.1327 38.6812 32.5008 40.2335 35.7745 40.6568C39.1583 41.0959 42.5736 40.5941 45.926 39.9669C47.3424 39.7004 48.8376 39.3711 49.9236 38.4303C50.8522 37.6463 51.6706 37.1446 52.0955 35.9372C52.6936 34.2595 52.6464 32.4093 52.2687 30.6688C52.127 30.0416 52.0168 29.2263 52.5834 28.897C52.7566 28.8029 52.9612 28.7716 53.15 28.7402C57.8087 27.9562 61.9952 21.3237 57.5097 17.7957C56.5968 17.0901 55.5108 16.6354 54.4406 16.2277C53.1186 15.726 51.7021 15.2712 50.3013 15.4594C48.9006 15.6476 47.4998 16.6354 47.3267 18.0466C47.3582 17.6075 46.8388 17.3567 46.4296 17.2312C42.4949 16.0552 38.151 14.9106 34.3895 16.5256C33.6025 16.8549 32.8628 17.2469 32.0129 16.9176C31.4306 16.6981 31.1158 16.212 30.4705 16.0396C28.5661 15.5378 26.2211 16.4159 24.4426 17.0117V17.0274Z" fill="#888888"/>
<path d="M31.4459 33.9141C29.0537 34.1179 26.7558 35.2468 25.119 37.003C24.4265 37.7399 23.8441 38.665 23.8914 39.6842C23.9386 40.7034 24.8829 41.6912 25.8587 41.4717C26.0003 41.4404 26.1263 41.3933 26.2679 41.3933C26.6299 41.3933 26.8975 41.801 26.9132 42.1616C26.9289 42.5223 26.7715 42.8829 26.6614 43.2279C26.2522 44.4979 26.7873 46.6147 28.55 46.2384C29.1481 46.1129 29.6517 45.7366 30.2183 45.5171C30.6905 46.3952 31.5561 47.0381 32.5162 47.2576C32.8782 47.336 33.2716 47.3517 33.6336 47.2262C34.7983 46.8342 35.0659 45.2819 36.1833 44.8899C35.6797 45.0624 38.3238 47.7907 38.9376 47.9318C40.7475 48.3395 42.4316 47.1008 43.7064 45.9875C44.1471 46.7715 45.0442 47.2733 45.9413 47.2576C46.8384 47.2419 47.7041 46.6774 48.1133 45.8778C48.1762 45.7366 48.2392 45.5798 48.3808 45.5014C48.6641 45.3133 49.0261 45.5485 49.3252 45.721C50.175 46.207 51.324 46.0973 52.0637 45.4701C52.8034 44.8429 53.0867 43.7139 52.7247 42.8045C52.5988 42.4909 52.4099 42.2087 52.347 41.8794C52.284 41.5501 52.3785 41.1581 52.6932 41.0327C53.795 40.5623 55.5262 42.146 55.9039 40.1076C56.2187 38.3671 55.0226 36.9716 53.7005 36.0308C50.4583 33.7259 46.0043 33.6005 42.3057 34.9646C40.6688 35.5761 38.9533 35.8427 37.3165 35.1998C35.3649 34.4315 33.6336 33.7416 31.4617 33.9297L31.4459 33.9141Z" fill="white"/>
<path d="M29.4942 15.2085C27.2121 15.3496 24.993 15.9141 22.9312 16.9176C21.9554 17.388 20.9009 17.9524 20.0982 18.7051C19.2955 19.4577 19.0122 20.5553 19.1224 21.6215C19.3585 23.848 20.775 25.9021 22.1757 27.5798C22.884 28.4422 23.7496 29.1792 24.8198 29.5712C25.8271 29.9318 26.9918 29.8848 27.9046 29.2889C28.8962 28.6617 29.51 27.6112 30.0294 26.592C30.6432 25.369 31.1625 24.0832 31.5718 22.7818C31.7921 22.0605 30.6589 21.7469 30.4386 22.4682C30.1238 23.4874 29.7461 24.4752 29.2896 25.4474C28.8962 26.2627 28.5027 27.1251 27.8731 27.7993C27.2908 28.4265 26.5196 28.7401 25.6697 28.5833C24.7569 28.4109 24.0172 27.8464 23.4033 27.1721C22.7423 26.4666 22.1757 25.6355 21.6563 24.8202C21.137 24.0048 20.6648 23.1111 20.4287 22.1546C20.2399 21.3549 20.2084 20.3985 20.775 19.7242C21.3731 19.0187 22.3331 18.5483 23.1358 18.1249C25.1031 17.1057 27.2908 16.5099 29.51 16.3688C30.2654 16.3217 30.2654 15.1457 29.51 15.1928L29.4942 15.2085Z" fill="#231F20"/>
<path d="M31.163 16.7299C31.163 16.7299 31.2102 16.7299 31.2259 16.7142C31.1158 16.7142 31.1 16.7299 31.163 16.7142C30.9898 16.7142 31.1 16.7142 31.163 16.7142C31.2102 16.7142 31.1787 16.7142 31.1 16.6828C31.1158 16.6828 31.1472 16.6985 31.163 16.7142C31.2102 16.7456 31.1945 16.7456 31.1315 16.6828C31.1472 16.6828 31.163 16.7142 31.1787 16.7299C31.1158 16.6201 31.2574 16.7926 31.1787 16.7299C31.1787 16.7456 31.2102 16.7769 31.2102 16.7926C31.2417 16.8553 31.2259 16.8396 31.2102 16.7612C31.2417 16.7612 31.2731 17.0121 31.2731 17.0278C31.2731 17.0435 31.3046 17.2003 31.2731 17.1062C31.2417 17.0121 31.2731 17.1846 31.2731 17.2003C31.2731 17.31 31.2889 17.4198 31.3046 17.5139C31.3046 17.7334 31.3046 17.9529 31.3046 18.1724C31.3046 18.3919 31.2731 18.6115 31.2574 18.831C31.2574 18.878 31.2574 18.9251 31.2574 18.9721C31.2574 19.0035 31.2259 19.2073 31.2574 19.0505C31.2574 19.1603 31.2259 19.27 31.2102 19.3641C31.1472 19.8031 31.0528 20.2422 30.9584 20.6812C30.8954 20.9791 31.0371 21.3241 31.3676 21.4025C31.6666 21.4652 32.0286 21.3084 32.0916 20.9948C32.2489 20.1951 32.4063 19.3798 32.485 18.5644C32.5165 18.1724 32.5322 17.7804 32.485 17.4041C32.4535 16.9808 32.4221 16.526 32.2017 16.1497C31.9499 15.6793 31.3833 15.3814 30.8482 15.5382C30.5492 15.6323 30.3288 15.9459 30.439 16.2595C30.5492 16.5731 30.8482 16.7612 31.163 16.6672V16.7299Z" fill="#231F20"/>
<path d="M33.6331 17.2462C37.4733 16.133 41.5969 16.2741 45.3585 17.6226C45.6575 17.7323 46.0037 17.4971 46.0824 17.2149C46.1769 16.8856 45.9723 16.6034 45.6732 16.4936C41.7228 15.0667 37.3474 14.9413 33.3183 16.1173C32.5943 16.3368 32.8934 17.4658 33.6331 17.2462Z" fill="#231F20"/>
<path d="M26.5357 29.4923C26.4727 30.8565 26.5042 32.2206 26.5986 33.5847C26.6144 33.8983 26.8505 34.1806 27.1967 34.1806C27.4957 34.1806 27.8105 33.914 27.7948 33.5847C27.7003 32.2206 27.6689 30.8565 27.7318 29.4923C27.7318 29.1787 27.4485 28.8965 27.1338 28.8965C26.8032 28.8965 26.5514 29.1474 26.5357 29.4923Z" fill="#231F20"/>
<path d="M38.8274 34.8715C35.9472 33.476 32.5319 33.1938 29.4157 33.8524C28.0149 34.1503 26.7401 34.8245 25.6541 35.7496C25.1032 36.22 24.6153 36.7374 24.1589 37.3019C23.6553 37.9134 23.2146 38.5563 23.0887 39.356C22.9628 40.1556 23.2461 41.0337 23.9228 41.5825C24.757 42.241 25.6856 42.0058 26.5827 41.6295C26.8817 41.5041 26.9447 41.0807 26.7873 40.8299C26.6142 40.5319 26.2679 40.5006 25.9846 40.626C25.4652 40.8455 24.8986 41.018 24.4894 40.5163C24.1274 40.0616 24.2061 39.4344 24.4422 38.9483C24.7098 38.4152 25.1347 37.9448 25.5439 37.5057C25.9531 37.0667 26.3623 36.6747 26.8345 36.3141C28.8491 34.8088 31.5089 34.5579 33.9642 34.7618C35.4436 34.8872 36.9073 35.2479 38.2451 35.8907C38.9219 36.22 39.5199 35.2008 38.8432 34.8715H38.8274Z" fill="#231F20"/>
<path d="M27.1645 41.708C26.472 42.5233 26.0156 43.6836 26.1258 44.7655C26.1887 45.3457 26.3776 45.9102 26.8183 46.3335C27.3691 46.8666 28.1403 47.0548 28.8958 46.9293C29.7457 46.7882 30.5011 46.2394 31.1307 45.6906L30.1234 45.2673C30.1234 46.5374 31.0205 47.7447 32.2481 48.074C33.4757 48.4032 34.8293 47.8388 35.4903 46.7569C35.6477 46.4903 35.5533 46.0983 35.2857 45.9572C35.0181 45.8161 34.6562 45.8945 34.483 46.161C34.4515 46.2081 34.4201 46.2551 34.3886 46.3178C34.3571 46.3492 34.3729 46.3492 34.3886 46.3022C34.3729 46.3335 34.3414 46.3492 34.3256 46.3806C34.2627 46.4589 34.184 46.5217 34.1053 46.6001C34.0581 46.6471 34.0581 46.6471 34.1053 46.6001C34.0738 46.6157 34.0423 46.6471 34.0266 46.6628C33.9794 46.6941 33.9322 46.7255 33.9007 46.7412C33.8692 46.7569 33.8063 46.7882 33.759 46.8196C33.7276 46.8353 33.6174 46.8823 33.7118 46.8509C33.6017 46.898 33.4915 46.9293 33.3656 46.9607C33.3184 46.9607 33.2711 46.9764 33.2082 46.9921C33.0665 47.0234 33.2869 46.9921 33.161 46.9921C33.0351 46.9921 32.9249 46.9921 32.799 46.9921C32.6416 46.9921 32.9092 47.0234 32.7518 46.9921C32.6888 46.9921 32.6259 46.9607 32.5786 46.9607C32.5314 46.9607 32.4685 46.9293 32.4055 46.898C32.2953 46.8666 32.4685 46.945 32.3583 46.8823C32.2639 46.8353 32.1537 46.7725 32.0593 46.7098C32.0435 46.7098 32.012 46.6785 31.9963 46.6628C32.0435 46.6941 32.0435 46.6941 31.9963 46.6628C31.9648 46.6314 31.9176 46.6001 31.8861 46.553C31.8547 46.506 31.8074 46.4746 31.776 46.4433C31.776 46.4433 31.6501 46.3022 31.6815 46.3335C31.713 46.3649 31.6186 46.2394 31.6028 46.2238C31.5714 46.1767 31.5556 46.1297 31.5241 46.0826C31.4927 46.0356 31.4769 45.9886 31.4455 45.9415C31.414 45.8788 31.414 45.8788 31.4455 45.9415C31.4455 45.9102 31.4297 45.8945 31.414 45.8631C31.3825 45.7534 31.351 45.6436 31.3195 45.5338C31.2881 45.3927 31.3195 45.6122 31.3195 45.4868C31.3195 45.4241 31.3195 45.3457 31.3195 45.283C31.3195 44.7499 30.69 44.5303 30.3123 44.8596C30.0604 45.0791 29.9345 45.1889 29.6512 45.377C29.5253 45.4554 29.3994 45.5338 29.2578 45.5966C29.2263 45.6122 29.1791 45.6279 29.1476 45.6436C29.1476 45.6436 29.0374 45.6906 29.1319 45.6436C29.0532 45.675 28.9902 45.6906 28.9115 45.722C28.8328 45.7534 28.7699 45.769 28.6912 45.7847C28.6597 45.7847 28.6125 45.7847 28.581 45.8004C28.6125 45.8004 28.6912 45.8004 28.581 45.8004C28.518 45.8004 28.4551 45.8004 28.3921 45.8004C28.3607 45.8004 28.3134 45.8004 28.282 45.8004C28.1875 45.8004 28.4079 45.8318 28.2505 45.8004C28.1875 45.7847 28.1246 45.769 28.0616 45.7534C27.9672 45.722 28.1246 45.7847 28.0459 45.7534C28.0301 45.7534 27.9987 45.7377 27.9829 45.722C27.9357 45.6906 27.8728 45.6593 27.8255 45.6279C27.7941 45.6279 27.7783 45.5966 27.7626 45.5809C27.8255 45.6122 27.8255 45.6279 27.7626 45.5809C27.7311 45.5495 27.6996 45.5182 27.6524 45.4868C27.6209 45.4554 27.5265 45.33 27.6209 45.4554C27.558 45.3614 27.5108 45.283 27.4636 45.1889C27.4163 45.0948 27.495 45.2986 27.4636 45.1732C27.4478 45.1262 27.4321 45.0791 27.4163 45.0164C27.4163 44.9694 27.4006 44.9223 27.3849 44.8753C27.3849 44.8439 27.3849 44.8282 27.3849 44.7969C27.3691 44.6871 27.3849 44.891 27.3849 44.7969C27.3849 44.5774 27.3849 44.3735 27.3849 44.154C27.3849 44.3265 27.3849 44.1383 27.3849 44.0913C27.3849 44.0443 27.4006 43.9972 27.4163 43.9502C27.4478 43.8404 27.4636 43.7307 27.5108 43.6209C27.5265 43.5582 27.558 43.4955 27.5737 43.4327C27.5737 43.4014 27.5895 43.3857 27.6052 43.3543C27.6052 43.3387 27.6524 43.2289 27.6209 43.3073C27.6367 43.276 27.6524 43.2289 27.6682 43.1976C27.6996 43.1505 27.7154 43.1035 27.7468 43.0564C27.8098 42.9467 27.857 42.8526 27.9357 42.7428C27.9672 42.6958 27.9987 42.6644 28.0301 42.6174C28.0931 42.539 28.0144 42.6331 27.9987 42.6488C27.9987 42.6174 28.0459 42.586 28.0616 42.5704C28.2662 42.3352 28.3134 41.9588 28.0616 41.7393C27.8413 41.5355 27.4478 41.4885 27.2275 41.7393L27.1645 41.708Z" fill="#231F20"/>
<path d="M35.4277 44.6233C35.4749 45.2818 35.6323 45.909 35.947 46.4892C36.2461 47.0223 36.6553 47.477 37.1589 47.8376C38.1033 48.5432 39.3309 48.7941 40.4955 48.6216C41.1566 48.5276 41.8019 48.261 42.3527 47.869C42.6045 47.6965 42.7462 47.3516 42.5573 47.0693C42.3999 46.8185 42.0222 46.6617 41.7546 46.8655C41.5343 47.0223 41.2825 47.1634 41.0307 47.2732C40.9205 47.3202 41.1251 47.2418 41.0464 47.2732C41.0149 47.2732 40.9834 47.2889 40.9677 47.3045C40.9047 47.3202 40.8575 47.3516 40.7946 47.3673C40.6687 47.4143 40.5428 47.4457 40.4168 47.4613C40.3539 47.4613 40.2909 47.4927 40.228 47.4927C40.1808 47.4927 40.1021 47.4927 40.2595 47.4927C40.228 47.4927 40.1965 47.4927 40.1493 47.4927C40.0234 47.4927 39.8975 47.5084 39.7716 47.5084C39.6614 47.5084 39.5355 47.5084 39.4253 47.5084C39.3938 47.5084 39.3624 47.5084 39.3151 47.5084C39.2207 47.5084 39.3624 47.5084 39.3624 47.5084C39.2994 47.5084 39.2207 47.4927 39.1577 47.477C38.9059 47.43 38.6698 47.3516 38.4338 47.2575C38.3236 47.2105 38.5439 47.3045 38.4652 47.2575C38.4338 47.2575 38.418 47.2418 38.3865 47.2261C38.3393 47.1948 38.2921 47.1791 38.2292 47.1477C38.119 47.085 38.0088 47.0223 37.9144 46.9596C37.8672 46.9282 37.82 46.8969 37.757 46.8498C37.7255 46.8185 37.6626 46.7714 37.7885 46.8655C37.757 46.8498 37.7413 46.8185 37.7098 46.8028C37.6153 46.7244 37.5209 46.646 37.4265 46.5519C37.3478 46.4735 37.2691 46.3794 37.2061 46.301C37.1274 46.2069 37.2848 46.4108 37.2061 46.301C37.2061 46.2853 37.1747 46.2697 37.1589 46.2383C37.1117 46.1756 37.0802 46.1285 37.0488 46.0658C36.9701 45.9404 36.9071 45.8306 36.8442 45.7052C36.8442 45.6738 36.8127 45.6425 36.7969 45.6111C36.7497 45.5014 36.8442 45.7209 36.7969 45.6111C36.7655 45.5484 36.7497 45.47 36.7182 45.4073C36.671 45.2662 36.6395 45.1094 36.6081 44.9526C36.6081 44.9212 36.6081 44.8898 36.5923 44.8585C36.5923 44.8271 36.5923 44.8114 36.5923 44.7801C36.5923 44.8742 36.5923 44.8898 36.5923 44.8428C36.5923 44.7644 36.5766 44.6703 36.5766 44.5919C36.5609 44.2783 36.3248 43.9961 35.9785 43.9961C35.6795 43.9961 35.3647 44.2627 35.3804 44.5919L35.4277 44.6233Z" fill="#231F20"/>
<path d="M49.8442 16.3836C52.0476 16.5404 54.3297 16.9637 56.2656 18.0613C57.1942 18.5944 58.17 19.3157 58.6106 20.3349C59.0041 21.2286 58.8625 22.1694 58.4847 23.0631C58.0283 24.1607 57.2571 25.1172 56.4544 26.011C55.9508 26.5754 56.7849 27.4065 57.2886 26.842C58.8152 25.1486 60.5622 22.7966 59.854 20.3819C59.492 19.1118 58.5162 18.1554 57.4617 17.4341C56.4072 16.7128 55.1953 16.2268 53.9835 15.8975C52.6299 15.5212 51.2292 15.3173 49.8442 15.2232C49.5294 15.2076 49.2461 15.5055 49.2461 15.8191C49.2461 16.1484 49.5137 16.3836 49.8442 16.4149V16.3836Z" fill="#231F20"/>
<path d="M51.6227 29.4924C51.7014 30.8722 51.8116 32.2678 51.7644 33.6476C51.7644 33.7887 51.7644 33.9298 51.7329 34.0709C51.7172 34.212 51.7329 34.1023 51.7329 34.0709C51.7329 34.118 51.7172 34.165 51.7014 34.212C51.6227 34.51 51.7959 34.8706 52.1107 34.9333C52.4254 34.996 52.7559 34.8392 52.8346 34.5256C52.9763 33.9925 52.9605 33.4124 52.9448 32.8636C52.9448 32.1266 52.9133 31.374 52.8661 30.6371C52.8504 30.2451 52.8189 29.8531 52.8032 29.4611C52.7874 29.1475 52.5513 28.8652 52.2051 28.8652C51.906 28.8652 51.5913 29.1318 51.607 29.4611L51.6227 29.4924Z" fill="#231F20"/>
<path d="M41.1094 35.8893C43.8008 34.5722 47.0429 34.4154 49.9389 35.0582C51.1507 35.3248 52.3469 35.7168 53.3384 36.4694C54.1726 37.0966 55.0225 38.0217 55.2743 39.0723C55.3687 39.4956 55.353 39.9033 55.0225 40.1855C54.5346 40.6089 53.8263 40.5932 53.3856 40.1228C52.882 39.5583 52.0479 40.3894 52.5515 40.9538C53.6375 42.1455 55.8094 41.7692 56.376 40.2482C56.8482 39.0095 56.0612 37.6454 55.2743 36.7203C53.181 34.2115 49.5926 33.4902 46.4606 33.5373C44.3988 33.5686 42.3528 33.9763 40.5114 34.8858C39.8346 35.215 40.4327 36.2342 41.1094 35.9049V35.8893Z" fill="#231F20"/>
<path d="M51.4342 41.9271C51.4342 41.9271 51.5129 42.0212 51.5444 42.0682C51.5601 42.0996 51.6546 42.2093 51.5916 42.1309C51.6703 42.225 51.749 42.3348 51.812 42.4445C51.9536 42.6484 52.0638 42.8522 52.1582 43.0717C52.1582 43.1031 52.174 43.1345 52.1897 43.1658C52.2054 43.2128 52.2212 43.2599 52.2369 43.3069C52.2684 43.4324 52.2999 43.5421 52.3313 43.6676C52.3471 43.7773 52.3313 43.5578 52.3313 43.7146C52.3313 43.7616 52.3313 43.8244 52.3313 43.8714C52.3313 43.9184 52.3313 43.9812 52.3313 44.0282C52.3313 44.0439 52.3313 44.0752 52.3313 44.0909C52.3313 44.0125 52.3313 44.0125 52.3313 44.0909C52.3313 44.138 52.3156 44.2007 52.2999 44.2477C52.2999 44.2634 52.2369 44.4202 52.2684 44.3418C52.2999 44.2791 52.2369 44.4202 52.2212 44.4359C52.1897 44.4986 52.1582 44.5456 52.111 44.6084C52.048 44.6868 52.111 44.624 52.111 44.6084C52.0953 44.624 52.0795 44.6554 52.0638 44.6711C52.0166 44.7181 51.9851 44.7651 51.9379 44.8122C51.8907 44.8592 51.8434 44.9063 51.7962 44.9533C51.7175 45.016 51.8592 44.9063 51.7805 44.969C51.749 45.0003 51.7175 45.016 51.6703 45.0474C51.5602 45.1258 51.45 45.1885 51.3398 45.2355C51.2611 45.2826 51.4185 45.2042 51.3398 45.2355C51.3083 45.2355 51.2926 45.2512 51.2611 45.2669C51.1982 45.2826 51.1352 45.3139 51.0565 45.3296C50.9778 45.3453 50.9149 45.361 50.8519 45.3767C50.9621 45.361 50.8519 45.3767 50.8047 45.3767C50.663 45.3767 50.5214 45.3767 50.3797 45.3767C50.3797 45.3767 50.2853 45.3767 50.3483 45.3767C50.427 45.3767 50.2853 45.3767 50.2696 45.3767C50.2066 45.3767 50.1279 45.3453 50.065 45.3296C50.002 45.3139 49.9233 45.2826 49.8604 45.2669C49.7502 45.2199 49.8446 45.2669 49.8604 45.2669C49.8289 45.2669 49.7974 45.2355 49.7659 45.2199C49.703 45.1885 49.64 45.1571 49.5771 45.1258C49.5456 45.1101 49.5141 45.0944 49.4826 45.0631C49.4826 45.0631 49.3567 44.969 49.4197 45.016C49.4669 45.0474 49.4039 45.016 49.4039 45.0003C49.3725 44.969 49.341 44.9376 49.3095 44.9063C49.2466 44.8592 49.1993 44.7965 49.1521 44.7338C48.8059 44.3418 48.1606 44.6711 48.1448 45.1571C48.1448 45.2355 48.1448 45.2983 48.1448 45.3767C48.1448 45.2669 48.1448 45.3923 48.1448 45.4394C48.1134 45.5648 48.0819 45.6903 48.0347 45.8C48.0819 45.6903 48.0032 45.8471 48.0032 45.8627C47.9717 45.9255 47.9402 45.9882 47.893 46.0509C47.8615 46.0979 47.8301 46.145 47.7986 46.192C47.7199 46.3018 47.8458 46.1607 47.7514 46.2391C47.6727 46.3331 47.5782 46.4272 47.4838 46.5056C47.4523 46.537 47.4366 46.5526 47.4051 46.5683C47.4523 46.537 47.4523 46.537 47.4051 46.5683C47.3579 46.5997 47.295 46.6467 47.2477 46.6781C47.2005 46.7094 47.1533 46.7251 47.1061 46.7565C47.0746 46.7722 47.0431 46.7878 47.0117 46.8035C47.0589 46.7878 47.0746 46.7878 47.0117 46.8035C46.9015 46.8349 46.7913 46.8819 46.6654 46.8976C46.6339 46.8976 46.6182 46.8976 46.5867 46.8976C46.6497 46.8976 46.6497 46.8976 46.5867 46.8976C46.5395 46.8976 46.4765 46.8976 46.4293 46.8976C46.3664 46.8976 46.3034 46.8976 46.2405 46.8976C46.209 46.8976 46.1932 46.8976 46.1618 46.8976C46.2247 46.8976 46.2247 46.8976 46.1618 46.8976C46.0359 46.8662 45.9257 46.8506 45.7998 46.8035C45.7526 46.7878 45.7053 46.7722 45.6424 46.7408C45.7526 46.7878 45.5794 46.7094 45.5637 46.6938C45.4535 46.6467 45.3591 46.584 45.2647 46.5213C45.2017 46.4742 45.2174 46.4742 45.2647 46.5213C45.2332 46.5056 45.2174 46.4742 45.186 46.4586C45.1387 46.4272 45.1073 46.3802 45.0758 46.3488C45.0443 46.3174 44.9971 46.2704 44.9656 46.2391C44.9499 46.2077 44.9184 46.192 44.9027 46.1607C44.9341 46.2077 44.9341 46.2077 44.9027 46.1607C44.8397 46.0509 44.7768 45.9568 44.7138 45.8314C44.5721 45.5491 44.1629 45.4707 43.9111 45.6275C43.6121 45.8 43.5649 46.145 43.7065 46.4272C44.1472 47.368 45.123 47.9638 46.1303 48.0893C47.2005 48.2147 48.2078 47.6659 48.8216 46.8035C49.1679 46.3331 49.341 45.753 49.3567 45.1728L48.3494 45.5962C49.2623 46.631 50.8991 46.8819 52.0953 46.2391C52.7091 45.9098 53.2285 45.361 53.4645 44.7024C53.6691 44.1536 53.6062 43.5264 53.4331 42.9777C53.197 42.3034 52.8035 41.7076 52.3313 41.1745C52.1267 40.9393 51.7175 40.955 51.4972 41.1745C51.2611 41.4097 51.2926 41.7703 51.4972 42.0055L51.4342 41.9271Z" fill="#231F20"/>
<path d="M48.0349 15.7578C47.1693 16.2125 46.7601 17.169 46.7286 18.0941C46.6971 18.878 46.9175 19.6464 47.0749 20.399C47.311 21.4652 47.5628 22.5158 47.8933 23.5506C48.5543 25.6517 49.6088 28.3016 51.8752 29.1326C53.5278 29.7442 55.2275 28.8974 56.4552 27.7999C57.0217 27.2824 56.1876 26.4514 55.621 26.9688C55.0544 27.4863 54.3776 27.941 53.5907 28.1135C53.213 28.1919 52.7723 28.1762 52.3788 28.0664C52.0483 27.9723 51.6391 27.7371 51.3873 27.5019C51.0096 27.1727 50.7735 26.8747 50.5217 26.5141C49.3727 24.7893 48.8376 22.7196 48.3654 20.6812C48.2395 20.1481 48.1136 19.615 48.0035 19.0662C47.8461 18.2822 47.7989 17.216 48.633 16.777C49.3098 16.432 48.7117 15.4128 48.0349 15.7578Z" fill="#231F20"/>
<path d="M32.9565 33.8213C33.8083 33.8213 34.4989 33.1333 34.4989 32.2847C34.4989 31.436 33.8083 30.748 32.9565 30.748C32.1046 30.748 31.4141 31.436 31.4141 32.2847C31.4141 33.1333 32.1046 33.8213 32.9565 33.8213Z" fill="#231F20"/>
<path d="M46.1928 33.8213C47.0446 33.8213 47.7352 33.1333 47.7352 32.2847C47.7352 31.436 47.0446 30.748 46.1928 30.748C45.3409 30.748 44.6504 31.436 44.6504 32.2847C44.6504 33.1333 45.3409 33.8213 46.1928 33.8213Z" fill="#231F20"/>
<path d="M39.5664 37.632C41.2093 37.632 42.541 36.8106 42.541 35.7974C42.541 34.7842 41.2093 33.9629 39.5664 33.9629C37.9236 33.9629 36.5918 34.7842 36.5918 35.7974C36.5918 36.8106 37.9236 37.632 39.5664 37.632Z" fill="#231F20"/>
<path d="M33.1302 28.6304C34.2776 28.6304 35.2078 28.0337 35.2078 27.2976C35.2078 26.5616 34.2776 25.9648 33.1302 25.9648C31.9829 25.9648 31.0527 26.5616 31.0527 27.2976C31.0527 28.0337 31.9829 28.6304 33.1302 28.6304Z" fill="white"/>
<path d="M46.0043 28.6304C47.1516 28.6304 48.0818 28.0337 48.0818 27.2976C48.0818 26.5616 47.1516 25.9648 46.0043 25.9648C44.8569 25.9648 43.9268 26.5616 43.9268 27.2976C43.9268 28.0337 44.8569 28.6304 46.0043 28.6304Z" fill="white"/>
</svg>
