<svg width="80" height="76" viewBox="0 0 80 76" fill="none" xmlns="http://www.w3.org/2000/svg">
<path d="M50.7113 49.2819C50.4123 48.3412 50.0503 47.4317 49.6726 46.5537C49.4365 46.0205 49.1217 44.9386 48.6338 44.5937C46.9341 42.0222 44.0539 40.2347 40.9848 39.8897C37.8056 39.5291 34.5004 40.6737 32.2341 42.9159C28.2836 46.8359 25.1989 60.5714 34.3273 60.1167L34.9726 59.4268C35.2716 59.9128 35.7438 60.2578 36.515 60.3676C39.2535 60.7439 39.8988 59.0505 40.0562 57.0121C40.2136 59.0348 40.8589 60.7282 43.5974 60.3676C46.5721 59.9599 49.9716 59.8501 51.0419 56.6044C51.8445 54.174 51.4983 51.6496 50.7428 49.2819H50.7113Z" fill="#888888"/>
<path d="M34.2958 58.3453C34.3115 58.4393 34.343 58.5334 34.3587 58.6275C34.4217 58.8313 34.4846 59.0508 34.5633 59.239C34.5633 59.2547 34.5633 59.2547 34.5633 59.2547C34.5633 59.2547 34.5633 59.2547 34.5791 59.286C34.5948 59.3331 34.6263 59.3801 34.642 59.4428C34.6735 59.5056 34.705 59.5683 34.7365 59.6153L34.9411 59.4115C35.2401 59.8976 35.7123 60.2425 36.4835 60.3523C38.5767 60.6345 39.4423 59.7094 39.8043 58.3453C37.9629 58.2982 36.09 58.3296 34.28 58.3296L34.2958 58.3453Z" fill="white"/>
<path d="M43.1881 49.5644C43.1881 49.5644 43.0622 49.4232 42.9835 49.3605C42.4012 48.8744 41.5513 48.9215 40.8273 49.1567C40.2765 49.3292 39.7099 49.6114 39.3793 50.0975C38.7813 49.3919 37.2704 48.9058 36.4047 49.2821C35.9168 49.5016 35.5548 49.972 35.5391 50.5051C35.4761 52.3867 38.3721 53.7509 39.9932 53.5941C41.4411 53.4373 44.699 51.2578 43.1881 49.5644Z" fill="white"/>
<path d="M44.9037 60.1169C45.0453 59.9288 45.1712 59.7406 45.2971 59.5524C45.423 59.3643 45.549 59.1605 45.6591 58.9723C45.7063 58.8782 45.7536 58.7841 45.8008 58.6901C45.8323 58.643 45.848 58.5803 45.8795 58.5333C45.8952 58.4862 45.9109 58.4235 45.9267 58.3765C44.1325 58.5646 42.3225 58.4549 40.5283 58.3765C40.4339 58.3765 40.3552 58.3765 40.2607 58.3765C40.6227 59.7249 41.4884 60.65 43.5816 60.3678C43.9908 60.3051 44.4158 60.258 44.8407 60.1953C44.8565 60.164 44.8879 60.1483 44.9037 60.1169Z" fill="white"/>
<path d="M33.9496 54.7384C33.9496 55.7262 33.8237 56.714 33.8709 57.7018C33.9339 58.7681 34.2329 59.85 35.1458 60.4928C35.6494 60.8535 36.2947 60.9632 36.8928 60.9946C37.4594 61.026 38.0417 60.9789 38.5611 60.7594C39.0805 60.5399 39.4897 60.2106 39.8202 59.7559C40.1035 59.3639 40.2766 58.9092 40.3868 58.4388C40.6701 57.2942 40.6543 56.0868 40.6386 54.9265C40.6386 54.6129 40.371 54.3307 40.0405 54.3307C39.71 54.3307 39.4425 54.5816 39.4425 54.9265C39.4425 55.4283 39.4425 55.93 39.4425 56.4161C39.4425 56.667 39.4267 56.9022 39.3952 57.153C39.3952 57.2628 39.3795 57.3726 39.3638 57.498C39.3638 57.545 39.3323 57.6548 39.3638 57.4666C39.3638 57.498 39.3638 57.5294 39.3638 57.5607C39.3638 57.6234 39.348 57.6862 39.3323 57.7332C39.3008 57.9527 39.2379 58.1722 39.1749 58.3761C39.1434 58.4701 39.1119 58.5642 39.0805 58.6583C39.1434 58.5329 39.0333 58.7994 39.0805 58.6583C39.049 58.721 39.0333 58.7681 39.0018 58.8308C38.9546 58.9092 38.9073 59.0033 38.8601 59.0817C38.8286 59.113 38.8129 59.1444 38.7814 59.1914C38.7185 59.2698 38.8759 59.0817 38.8129 59.1601C38.7972 59.1914 38.7657 59.2071 38.75 59.2385C38.687 59.3012 38.624 59.3796 38.5453 59.4423C38.5296 59.4423 38.5139 59.4737 38.4981 59.4893C38.4509 59.5364 38.624 59.3953 38.5453 59.458C38.4981 59.4893 38.4509 59.5207 38.388 59.5677C38.3093 59.6148 38.1991 59.6461 38.1204 59.7088C38.1991 59.6461 38.2463 59.6618 38.1834 59.6775C38.1519 59.6775 38.1361 59.6932 38.1047 59.7088C38.0417 59.7245 37.9788 59.7559 37.9158 59.7716C37.8056 59.8029 37.6955 59.8186 37.5853 59.8343C37.5853 59.8343 37.7427 59.8186 37.6482 59.8343C37.6168 59.8343 37.5853 59.8343 37.5538 59.8343C37.4751 59.8343 37.3964 59.8343 37.3335 59.8343C37.2076 59.8343 37.0659 59.8343 36.94 59.8343C36.8613 59.8343 36.7826 59.8343 36.7039 59.8186C36.6567 59.8186 36.6252 59.8186 36.578 59.8186C36.7039 59.8343 36.4364 59.8029 36.578 59.8186C36.4521 59.8029 36.3419 59.7716 36.216 59.7402C36.1531 59.7245 36.0901 59.6932 36.0429 59.6775C35.9327 59.6461 36.1688 59.7402 36.0744 59.6775C36.0429 59.6775 36.0272 59.6461 35.9957 59.6461C35.9012 59.5991 35.8225 59.5364 35.7281 59.4893C35.6337 59.4423 35.8383 59.5834 35.7596 59.5207C35.7439 59.505 35.7124 59.4893 35.6966 59.4737C35.6494 59.4423 35.6179 59.3953 35.5865 59.3639C35.555 59.3325 35.5235 59.2698 35.4763 59.2385C35.5707 59.3012 35.555 59.3482 35.5235 59.3012C35.5235 59.2855 35.492 59.2541 35.4763 59.2385C35.4133 59.1444 35.3661 59.0503 35.3189 58.9562C35.3189 58.9249 35.3032 58.9092 35.2874 58.8778C35.2402 58.7837 35.3346 59.0189 35.3032 58.9249C35.3032 58.8778 35.2717 58.8465 35.256 58.7994C35.2245 58.6897 35.193 58.5799 35.1615 58.4701C35.13 58.3604 35.1143 58.2663 35.0986 58.1566C35.0986 58.1252 35.0986 58.0938 35.0986 58.0625C35.13 58.2349 35.0986 58.1566 35.0986 58.1095C35.0986 58.0468 35.0986 57.9841 35.0828 57.9057C34.9884 56.8551 35.1458 55.8046 35.1458 54.754C35.1458 54.4404 34.8782 54.1582 34.5477 54.1582C34.2172 54.1582 33.9654 54.4091 33.9496 54.754V54.7384Z" fill="#231F20"/>
<path d="M49.2948 44.5309C47.2173 41.2538 43.4872 39.1527 39.584 39.2311C36.2002 39.2938 32.7692 40.9245 30.8018 43.7155C29.4798 45.6128 28.6299 47.9021 28.1577 50.1443C27.6856 52.3865 27.4967 54.8796 28.3308 57.0591C28.7558 58.1566 29.4326 59.1288 30.4241 59.7873C31.5573 60.54 32.958 60.7595 34.3116 60.7125C35.067 60.6811 35.067 59.5051 34.3116 59.5365C32.3285 59.6305 30.5343 58.9563 29.6372 57.1218C28.74 55.2872 28.8345 53.1234 29.1493 51.2262C29.4955 49.1094 30.188 47.024 31.274 45.1738C32.6905 42.7434 35.13 41.1441 37.9 40.6109C41.9134 39.827 46.0999 41.7242 48.2718 45.1581C48.681 45.801 49.704 45.2051 49.2948 44.5623V44.5309Z" fill="#231F20"/>
<path d="M44.9509 54.7385C44.9509 55.6793 45.0768 56.6044 45.0296 57.5452C45.0296 57.655 45.0296 57.7647 45.0139 57.8902C45.0139 57.9529 45.0139 57.9999 44.9981 58.0626C44.9981 58.094 44.9981 58.1097 44.9981 58.141C45.0139 57.9372 44.9981 58.094 44.9981 58.141C44.9667 58.3606 44.9194 58.5801 44.8408 58.7839C44.8408 58.8309 44.8093 58.8623 44.7935 58.9093C44.7621 59.0191 44.8565 58.7682 44.8093 58.8623C44.8093 58.8937 44.7935 58.9094 44.7778 58.9407C44.7306 59.0348 44.6834 59.1289 44.6204 59.2229C44.6204 59.2386 44.5889 59.2543 44.5889 59.27C44.5575 59.3327 44.526 59.3013 44.6204 59.2229C44.5889 59.2543 44.5575 59.3013 44.5102 59.3484C44.4788 59.3797 44.4473 59.4111 44.4158 59.4425C44.4001 59.4581 44.3686 59.4738 44.3529 59.4895C44.4473 59.4268 44.2427 59.5836 44.3529 59.4895C44.2584 59.5522 44.1797 59.5993 44.0853 59.6463C44.0381 59.6777 43.8807 59.709 44.0696 59.6463C44.0066 59.662 43.9279 59.6933 43.865 59.7247C43.739 59.7561 43.6289 59.7874 43.503 59.8031C43.4557 59.8031 43.44 59.8345 43.5502 59.8031C43.5187 59.8031 43.4557 59.8031 43.4243 59.8031C43.3298 59.8031 43.2511 59.8188 43.1567 59.8188C43.0308 59.8188 42.8891 59.8188 42.7632 59.8188C42.7003 59.8188 42.6216 59.8188 42.5586 59.8188C42.4957 59.8188 42.2911 59.7717 42.4799 59.8188C42.3698 59.7874 42.2596 59.7874 42.1494 59.7561C42.0865 59.7561 42.0393 59.7247 41.9763 59.709C41.9448 59.709 41.9291 59.6933 41.8976 59.6777C41.8347 59.6463 41.8347 59.6149 41.9291 59.6933C41.8661 59.6306 41.7402 59.5993 41.6615 59.5522C41.6143 59.5209 41.5671 59.4895 41.5356 59.4581C41.5199 59.4581 41.4412 59.3954 41.5356 59.4581C41.6301 59.5209 41.5356 59.4581 41.5199 59.4425C41.4412 59.3797 41.3782 59.317 41.3153 59.2386C41.2681 59.1916 41.1894 59.0505 41.2995 59.2229C41.2681 59.1759 41.2366 59.1445 41.2051 59.0975C41.1579 59.0191 41.1107 58.9407 41.0635 58.8466C41.032 58.7996 41.0162 58.7525 41.0005 58.7055C41.0005 58.6898 41.0005 58.6742 40.9848 58.6585C41.0477 58.8153 40.9375 58.5644 40.9848 58.6585C40.9061 58.4546 40.8431 58.2508 40.7959 58.047C40.7644 57.9215 40.7487 57.7961 40.7172 57.6706C40.7172 57.6079 40.7015 57.5452 40.6857 57.4982C40.67 57.3884 40.7015 57.655 40.6857 57.5295C40.6857 57.4982 40.6857 57.4511 40.6857 57.4198C40.6542 57.1532 40.6385 56.8867 40.6228 56.6201C40.5913 56.0556 40.607 55.4912 40.607 54.9267C40.607 54.6131 40.3395 54.3309 40.009 54.3309C39.6784 54.3309 39.4266 54.5817 39.4109 54.9267C39.4109 55.9929 39.4109 57.0748 39.5998 58.1254C39.7886 59.0818 40.2293 60.0383 41.0949 60.5557C41.5828 60.8536 42.1652 60.9634 42.716 60.9948C43.3613 61.0104 44.0381 60.932 44.6204 60.6498C45.6592 60.1637 46.0526 59.0661 46.1628 58.0156C46.273 56.9651 46.1156 55.8204 46.1156 54.7072C46.1156 54.3936 45.848 54.1113 45.5175 54.1113C45.187 54.1113 44.9194 54.3622 44.9194 54.7072L44.9509 54.7385Z" fill="#231F20"/>
<path d="M48.2562 45.0483C48.4765 45.1737 48.6024 45.5187 48.7126 45.7382C48.8543 46.0518 48.9487 46.3654 49.0746 46.679C49.2792 47.1807 49.4996 47.6825 49.6884 48.1999C50.1134 49.3445 50.4754 50.5048 50.7272 51.6965C51.1364 53.6408 51.3882 56.1182 50.1606 57.7019C49.3894 58.6897 48.146 59.0974 46.9184 59.1915C46.1629 59.2542 46.1629 60.4302 46.9184 60.3674C48.2877 60.2577 49.6412 59.8657 50.6642 58.8935C51.5141 58.0782 51.9705 56.9649 52.1437 55.8203C52.5214 53.2488 51.8131 50.5519 50.9318 48.1529C50.6957 47.5257 50.4124 46.8671 50.1763 46.2556C49.8615 45.4873 49.6255 44.4838 48.8543 44.0291C48.1932 43.6371 47.6109 44.6563 48.2562 45.0483Z" fill="#231F20"/>
<path d="M24.884 16.7447C23.798 17.1053 22.6963 17.4659 21.7835 18.1402C20.8706 18.8144 20.1466 19.865 20.1624 20.9939C20.1624 21.7152 20.4771 22.3894 20.7919 23.0323C21.39 24.1926 22.0982 25.2902 22.9009 26.3094C23.9554 27.6265 25.4821 28.9279 27.1346 28.5672C27.0559 30.9192 27.0087 33.3809 28.0789 35.4664C29.5741 38.3985 32.9422 39.9508 36.2159 40.3741C39.5997 40.8132 43.015 40.3114 46.3674 39.6842C47.7838 39.4177 49.279 39.0884 50.365 38.1476C51.2936 37.3636 52.112 36.8619 52.5369 35.6545C53.135 33.9768 53.0878 32.1266 52.7101 30.3861C52.5684 29.7589 52.4582 28.9436 53.0248 28.6143C53.198 28.5202 53.4026 28.4888 53.5914 28.4575C58.2501 27.6735 62.4366 21.0409 57.9511 17.513C57.0382 16.8074 55.9522 16.3527 54.882 15.945C53.56 15.4432 52.1435 14.9885 50.7427 15.1767C49.342 15.3648 47.9412 16.3527 47.7681 17.7639C47.7996 17.3248 47.2802 17.0739 46.871 16.9485C42.9363 15.7725 38.5924 14.6279 34.8309 16.2429C34.0439 16.5722 33.3042 16.9642 32.4543 16.6349C31.872 16.4154 31.5572 15.9293 30.9119 15.7568C29.0075 15.2551 26.6625 16.1332 24.884 16.729V16.7447Z" fill="#888888"/>
<path d="M31.8876 33.6318C29.4953 33.8357 27.1975 34.9646 25.5606 36.7208C24.8681 37.4577 24.2858 38.3828 24.333 39.402C24.3802 40.4212 25.3245 41.409 26.3003 41.1895C26.442 41.1581 26.5679 41.1111 26.7096 41.1111C27.0715 41.1111 27.3391 41.5188 27.3548 41.8794C27.3706 42.24 27.2132 42.6007 27.103 42.9456C26.6938 44.2157 27.2289 46.3325 28.9917 45.9562C29.5897 45.8307 30.0934 45.4544 30.66 45.2349C31.1321 46.113 31.9978 46.7558 32.9578 46.9753C33.3198 47.0537 33.7133 47.0694 34.0753 46.944C35.24 46.552 35.5075 44.9997 36.625 44.6077C36.1213 44.7802 38.7654 47.5085 39.3792 47.6496C41.1892 48.0573 42.8732 46.8185 44.1481 45.7053C44.5888 46.4893 45.4859 46.991 46.383 46.9753C47.2801 46.9597 48.1457 46.3952 48.5549 45.5955C48.6179 45.4544 48.6808 45.2976 48.8225 45.2192C49.1058 45.0311 49.4678 45.2662 49.7668 45.4387C50.6167 45.9248 51.7656 45.815 52.5053 45.1878C53.2451 44.5607 53.5284 43.4317 53.1664 42.5223C53.0405 42.2087 52.8516 41.9264 52.7886 41.5972C52.7257 41.2679 52.8201 40.8759 53.1349 40.7505C54.2366 40.2801 55.9679 41.8637 56.3456 39.8254C56.6604 38.0849 55.4642 36.6894 54.1422 35.7486C50.9 33.4437 46.4459 33.3182 42.7473 34.6824C41.1105 35.2939 39.395 35.5605 37.7581 34.9176C35.8065 34.1493 34.0753 33.4594 31.9033 33.6475L31.8876 33.6318Z" fill="white"/>
<path d="M29.9361 14.9257C27.654 15.0669 25.4349 15.6313 23.3731 16.6348C22.3973 17.1052 21.3428 17.6697 20.5401 18.4223C19.7374 19.175 19.4541 20.2726 19.5643 21.3388C19.8004 23.5653 21.2169 25.6194 22.6176 27.2971C23.3259 28.1595 24.1915 28.8965 25.2617 29.2884C26.269 29.6491 27.4337 29.602 28.3465 29.0062C29.3381 28.379 29.9519 27.3285 30.4712 26.3093C31.0851 25.0863 31.6044 23.8005 32.0136 22.4991C32.234 21.7778 31.1008 21.4642 30.8805 22.1855C30.5657 23.2047 30.188 24.1925 29.7315 25.1647C29.3381 25.98 28.9446 26.8424 28.315 27.5166C27.7327 28.1438 26.9615 28.4574 26.1116 28.3006C25.1988 28.1281 24.4591 27.5637 23.8452 26.8894C23.1842 26.1838 22.6176 25.3528 22.0982 24.5375C21.5789 23.7221 21.1067 22.8284 20.8706 21.8719C20.6818 21.0722 20.6503 20.1158 21.2169 19.4415C21.8149 18.7359 22.775 18.2655 23.5777 17.8422C25.545 16.823 27.7327 16.2272 29.9519 16.0861C30.7073 16.039 30.7073 14.863 29.9519 14.9101L29.9361 14.9257Z" fill="#231F20"/>
<path d="M31.6044 16.4467C31.6044 16.4467 31.6516 16.4467 31.6673 16.431C31.5572 16.431 31.5414 16.4467 31.6044 16.431C31.5414 16.431 31.4313 16.431 31.6044 16.431C31.6516 16.431 31.6201 16.431 31.5414 16.3996C31.5572 16.3996 31.5886 16.4153 31.6044 16.431C31.6516 16.4624 31.6359 16.4624 31.5729 16.3996C31.5886 16.3996 31.6044 16.431 31.6201 16.4467C31.6988 16.5094 31.5572 16.3369 31.6201 16.4467C31.6201 16.4624 31.6516 16.4937 31.6516 16.5094C31.6831 16.5721 31.6673 16.5564 31.6516 16.478C31.6831 16.478 31.7146 16.7289 31.7146 16.7446C31.7146 16.7603 31.746 16.9171 31.7146 16.823C31.6831 16.7289 31.7146 16.9014 31.7146 16.9171C31.7146 17.0268 31.7303 17.1366 31.746 17.2307C31.746 17.4502 31.746 17.6697 31.746 17.8892C31.746 18.1087 31.7146 18.3283 31.6988 18.5478C31.6988 18.5948 31.6988 18.6419 31.6988 18.6889C31.6988 18.7203 31.6673 18.9241 31.6988 18.7673C31.6988 18.8771 31.6673 18.9868 31.6516 19.0809C31.5886 19.5199 31.4942 19.959 31.3998 20.398C31.3368 20.6959 31.4785 21.0409 31.809 21.1193C32.108 21.182 32.47 21.0252 32.533 20.7116C32.6904 19.9119 32.8477 19.0966 32.9264 18.2812C32.9579 17.8892 32.9736 17.4972 32.9264 17.1209C32.895 16.6976 32.8635 16.2428 32.6431 15.8665C32.3913 15.3961 31.8247 15.0982 31.2896 15.255C30.9906 15.3491 30.7702 15.6627 30.8804 15.9763C30.9906 16.2899 31.2896 16.478 31.6044 16.384V16.4467Z" fill="#231F20"/>
<path d="M34.0755 16.964C37.9157 15.8507 42.0393 15.9919 45.8008 17.3403C46.0999 17.4501 46.4461 17.2149 46.5248 16.9326C46.6193 16.6034 46.4146 16.3211 46.1156 16.2114C42.1652 14.7845 37.7898 14.6591 33.7607 15.8351C33.0367 16.0546 33.3358 17.1835 34.0755 16.964Z" fill="#231F20"/>
<path d="M26.9773 29.2101C26.9144 30.5742 26.9459 31.9384 27.0403 33.3025C27.056 33.6161 27.2921 33.8983 27.6384 33.8983C27.9374 33.8983 28.2522 33.6318 28.2364 33.3025C28.142 31.9384 28.1105 30.5742 28.1735 29.2101C28.1735 28.8965 27.8902 28.6143 27.5754 28.6143C27.2449 28.6143 26.9931 28.8651 26.9773 29.2101Z" fill="#231F20"/>
<path d="M39.2693 34.5883C36.3891 33.1928 32.9738 32.9106 29.8576 33.5691C28.4568 33.8671 27.182 34.5413 26.096 35.4664C25.5451 35.9368 25.0572 36.4542 24.6008 37.0187C24.0972 37.6302 23.6565 38.2731 23.5306 39.0728C23.4047 39.8724 23.688 40.7505 24.3647 41.2993C25.1989 41.9578 26.1275 41.7226 27.0246 41.3463C27.3236 41.2209 27.3866 40.7975 27.2292 40.5467C27.0561 40.2487 26.7098 40.2174 26.4265 40.3428C25.9071 40.5623 25.3405 40.7348 24.9313 40.2331C24.5693 39.7783 24.648 39.1512 24.8841 38.6651C25.1517 38.132 25.5766 37.6616 25.9858 37.2225C26.395 36.7835 26.8042 36.3915 27.2764 36.0309C29.291 34.5256 31.9508 34.2747 34.406 34.4786C35.8855 34.604 37.3492 34.9646 38.687 35.6075C39.3637 35.9368 39.9618 34.9176 39.2851 34.5883H39.2693Z" fill="#231F20"/>
<path d="M27.6069 41.4248C26.9144 42.2401 26.458 43.4004 26.5681 44.4823C26.6311 45.0625 26.82 45.627 27.2606 46.0503C27.8115 46.5834 28.5827 46.7716 29.3382 46.6461C30.1881 46.505 30.9435 45.9562 31.5731 45.4074L30.5658 44.9841C30.5658 46.2541 31.4629 47.4615 32.6905 47.7908C33.9181 48.12 35.2717 47.5556 35.9327 46.4737C36.0901 46.2071 35.9956 45.8151 35.7281 45.674C35.4605 45.5329 35.0985 45.6113 34.9254 45.8778C34.8939 45.9249 34.8625 45.9719 34.831 46.0346C34.7995 46.066 34.8152 46.066 34.831 46.0189C34.8152 46.0503 34.7838 46.066 34.768 46.0973C34.7051 46.1757 34.6264 46.2385 34.5477 46.3169C34.5005 46.3639 34.5005 46.3639 34.5477 46.3169C34.5162 46.3325 34.4847 46.3639 34.469 46.3796C34.4218 46.4109 34.3746 46.4423 34.3431 46.458C34.3116 46.4737 34.2486 46.505 34.2014 46.5364C34.17 46.5521 34.0598 46.5991 34.1542 46.5677C34.044 46.6148 33.9339 46.6461 33.808 46.6775C33.7607 46.6775 33.7135 46.6932 33.6506 46.7089C33.5089 46.7402 33.7293 46.7089 33.6034 46.7089C33.4774 46.7089 33.3673 46.7089 33.2414 46.7089C33.084 46.7089 33.3515 46.7402 33.1941 46.7089C33.1312 46.7089 33.0682 46.6775 33.021 46.6775C32.9738 46.6775 32.9109 46.6461 32.8479 46.6148C32.7377 46.5834 32.9109 46.6618 32.8007 46.5991C32.7062 46.5521 32.5961 46.4893 32.5016 46.4266C32.4859 46.4266 32.4544 46.3953 32.4387 46.3796C32.4859 46.4109 32.4859 46.4109 32.4387 46.3796C32.4072 46.3482 32.36 46.3169 32.3285 46.2698C32.297 46.2228 32.2498 46.1914 32.2183 46.1601C32.2183 46.1601 32.0924 46.0189 32.1239 46.0503C32.1554 46.0817 32.061 45.9562 32.0452 45.9405C32.0137 45.8935 31.998 45.8465 31.9665 45.7994C31.9351 45.7524 31.9193 45.7054 31.8878 45.6583C31.8564 45.5956 31.8564 45.5956 31.8878 45.6583C31.8878 45.627 31.8721 45.6113 31.8564 45.5799C31.8249 45.4702 31.7934 45.3604 31.7619 45.2506C31.7304 45.1095 31.7619 45.329 31.7619 45.2036C31.7619 45.1409 31.7619 45.0625 31.7619 44.9998C31.7619 44.4666 31.1324 44.2471 30.7546 44.5764C30.5028 44.7959 30.3769 44.9057 30.0936 45.0938C29.9677 45.1722 29.8418 45.2506 29.7002 45.3134C29.6687 45.329 29.6215 45.3447 29.59 45.3604C29.59 45.3604 29.4798 45.4074 29.5742 45.3604C29.4955 45.3918 29.4326 45.4074 29.3539 45.4388C29.2752 45.4702 29.2122 45.4858 29.1336 45.5015C29.1021 45.5015 29.0549 45.5015 29.0234 45.5172C29.1336 45.5172 29.0549 45.5172 29.0234 45.5172C28.9604 45.5172 28.8975 45.5172 28.8345 45.5172C28.803 45.5172 28.7558 45.5172 28.7243 45.5172C28.6299 45.5172 28.8503 45.5486 28.6929 45.5172C28.6299 45.5015 28.567 45.4858 28.504 45.4702C28.4096 45.4388 28.567 45.5015 28.4883 45.4702C28.4725 45.4702 28.4411 45.4545 28.4253 45.4388C28.3781 45.4074 28.3151 45.3761 28.2679 45.3447C28.2364 45.3447 28.2207 45.3134 28.205 45.2977C28.2679 45.3447 28.2679 45.329 28.205 45.2977C28.1735 45.2663 28.142 45.235 28.0948 45.2036C28.0633 45.1722 27.9689 45.0468 28.0633 45.1722C28.0004 45.0782 27.9532 44.9998 27.9059 44.9057C27.8587 44.8116 27.9374 45.0154 27.9059 44.89C27.8902 44.843 27.8745 44.7959 27.8587 44.7332C27.8587 44.6862 27.843 44.6391 27.8272 44.5921C27.8272 44.5607 27.8272 44.545 27.8272 44.5137C27.8272 44.6078 27.8115 44.4039 27.8272 44.5137C27.8272 44.2942 27.8272 44.0903 27.8272 43.8708C27.8272 44.0433 27.8272 43.8551 27.8272 43.8081C27.8272 43.7611 27.843 43.714 27.8587 43.667C27.8902 43.5572 27.9059 43.4475 27.9531 43.3377C27.9689 43.275 28.0004 43.2123 28.0161 43.1495C28.0161 43.1182 28.0318 43.1025 28.0476 43.0711C28.0476 43.0555 28.0948 42.9457 28.0633 43.0241C28.0791 42.9927 28.0948 42.9457 28.1105 42.9143C28.142 42.8673 28.1578 42.8203 28.1892 42.7732C28.2522 42.6635 28.2994 42.5694 28.3781 42.4596C28.4096 42.4126 28.4411 42.3812 28.4725 42.3342C28.5355 42.2558 28.4568 42.3499 28.4411 42.3656C28.4411 42.3342 28.4883 42.3028 28.504 42.2872C28.7086 42.052 28.7558 41.6756 28.504 41.4561C28.2837 41.2523 27.8902 41.2053 27.6699 41.4561L27.6069 41.4248Z" fill="#231F20"/>
<path d="M35.8696 44.3411C35.9168 44.9996 36.0742 45.6268 36.3889 46.207C36.688 46.7401 37.0972 47.1948 37.6008 47.5554C38.5451 48.261 39.7728 48.5119 40.9374 48.3394C41.5985 48.2453 42.2437 47.9788 42.7946 47.5868C43.0464 47.4143 43.1881 47.0693 42.9992 46.7871C42.8418 46.5362 42.4641 46.3794 42.1965 46.5833C41.9762 46.7401 41.7244 46.8812 41.4726 46.9909C41.3624 47.038 41.567 46.9596 41.4883 46.9909C41.4568 46.9909 41.4253 47.0066 41.4096 47.0223C41.3466 47.038 41.2994 47.0693 41.2365 47.085C41.1106 47.1321 40.9847 47.1634 40.8587 47.1791C40.7958 47.1791 40.7328 47.2105 40.6699 47.2105C40.6227 47.2105 40.544 47.2105 40.7014 47.2105C40.6699 47.2105 40.6384 47.2105 40.5912 47.2105C40.4653 47.2105 40.3394 47.2261 40.2135 47.2261C40.1033 47.2261 39.9774 47.2261 39.8672 47.2261C39.8357 47.2261 39.8042 47.2261 39.757 47.2261C39.6626 47.2261 39.8042 47.2261 39.8042 47.2261C39.7413 47.2261 39.6626 47.2105 39.5996 47.1948C39.3478 47.1477 39.1117 47.0693 38.8757 46.9753C38.7655 46.9282 38.9858 47.0223 38.9071 46.9753C38.8757 46.9753 38.8599 46.9596 38.8284 46.9439C38.7812 46.9125 38.734 46.8969 38.6711 46.8655C38.5609 46.8028 38.4507 46.7401 38.3563 46.6774C38.3091 46.646 38.2618 46.6146 38.1989 46.5676C38.1674 46.5362 38.1045 46.4892 38.2304 46.5833C38.1989 46.5676 38.1832 46.5362 38.1517 46.5206C38.0572 46.4422 37.9628 46.3638 37.8684 46.2697C37.7897 46.1913 37.711 46.0972 37.648 46.0188C37.7267 46.1286 37.5693 45.9247 37.648 46.0188C37.648 46.0031 37.6166 45.9874 37.6008 45.9561C37.5536 45.8934 37.5221 45.8463 37.4907 45.7836C37.412 45.6582 37.349 45.5484 37.286 45.423C37.286 45.3916 37.2546 45.3602 37.2388 45.3289C37.286 45.4386 37.1916 45.2191 37.2388 45.3289C37.2074 45.2662 37.1916 45.1878 37.1601 45.125C37.1129 44.9839 37.0814 44.8271 37.05 44.6703C37.05 44.639 37.05 44.6076 37.0342 44.5763C37.0342 44.5449 37.0342 44.5292 37.0342 44.4979C37.0342 44.5919 37.0342 44.6076 37.0342 44.5606C37.0342 44.4822 37.0185 44.3881 37.0185 44.3097C37.0027 43.9961 36.7667 43.7139 36.4204 43.7139C36.1214 43.7139 35.8066 43.9804 35.8223 44.3097L35.8696 44.3411Z" fill="#231F20"/>
<path d="M50.2863 16.1018C52.4897 16.2586 54.7718 16.682 56.7077 17.7796C57.6363 18.3127 58.6121 19.0339 59.0528 20.0531C59.4462 20.9469 59.3046 21.8877 58.9269 22.7814C58.4704 23.879 57.6992 24.8355 56.8966 25.7292C56.3929 26.2937 57.2271 27.1247 57.7307 26.5602C59.2574 24.8668 61.0044 22.5149 60.2961 20.1002C59.9341 18.8301 58.9583 17.8736 57.9038 17.1524C56.8494 16.4311 55.6375 15.945 54.4256 15.6157C53.0721 15.2394 51.6713 15.0356 50.2863 14.9415C49.9715 14.9258 49.6882 15.2237 49.6882 15.5373C49.6882 15.8666 49.9558 16.1018 50.2863 16.1332V16.1018Z" fill="#231F20"/>
<path d="M52.0649 29.2102C52.1436 30.59 52.2538 31.9855 52.2065 33.3653C52.2065 33.5065 52.2065 33.6476 52.1751 33.7887C52.1751 33.8201 52.1593 33.9298 52.1751 33.7887C52.1751 33.8357 52.1593 33.8828 52.1436 33.9298C52.0649 34.2277 52.238 34.5884 52.5528 34.6511C52.8676 34.7138 53.1981 34.557 53.2768 34.2434C53.4184 33.7103 53.4027 33.1301 53.3869 32.5814C53.3869 31.8444 53.3555 31.0918 53.3082 30.3548C53.2925 29.9628 53.261 29.5708 53.2453 29.1788C53.2296 28.8652 52.9935 28.583 52.6472 28.583C52.3482 28.583 52.0334 28.8496 52.0492 29.1788L52.0649 29.2102Z" fill="#231F20"/>
<path d="M41.5513 35.6075C44.2427 34.2904 47.4848 34.1336 50.3808 34.7765C51.5926 35.043 52.7888 35.435 53.7803 36.1877C54.6145 36.8149 55.4644 37.74 55.7162 38.7905C55.8106 39.2139 55.7949 39.6215 55.4644 39.9038C54.9765 40.3271 54.2682 40.3115 53.8275 39.8411C53.3239 39.2766 52.4897 40.1076 52.9934 40.6721C54.0794 41.8638 56.2513 41.4874 56.8179 39.9665C57.2901 38.7278 56.5031 37.3637 55.7162 36.4386C53.6229 33.9298 50.0345 33.2085 46.9025 33.2555C44.8407 33.2869 42.7947 33.6946 40.9533 34.604C40.2765 34.9333 40.8746 35.9525 41.5513 35.6232V35.6075Z" fill="#231F20"/>
<path d="M51.8759 41.6439C51.8759 41.6439 51.9546 41.738 51.9861 41.785C52.0018 41.8164 52.0962 41.9261 52.0333 41.8477C52.112 41.9418 52.1907 42.0516 52.2536 42.1613C52.3953 42.3652 52.5054 42.569 52.5999 42.7885C52.5999 42.8199 52.6156 42.8512 52.6313 42.8826C52.6471 42.9296 52.6628 42.9767 52.6786 43.0237C52.71 43.1492 52.7415 43.2589 52.773 43.3844C52.7887 43.4941 52.773 43.2746 52.773 43.4314C52.773 43.4784 52.773 43.5412 52.773 43.5882C52.773 43.6352 52.773 43.698 52.773 43.745C52.773 43.7607 52.773 43.792 52.773 43.8077C52.773 43.7293 52.773 43.7293 52.773 43.8077C52.773 43.8548 52.7573 43.9175 52.7415 43.9645C52.7415 43.9802 52.6786 44.137 52.71 44.0586C52.7415 43.9959 52.6786 44.137 52.6628 44.1527C52.6313 44.2154 52.5999 44.2624 52.5527 44.3251C52.5527 44.3408 52.4897 44.4035 52.5527 44.3251C52.5369 44.3408 52.5212 44.3722 52.5054 44.3879C52.4582 44.4349 52.4267 44.4819 52.3795 44.529C52.3323 44.576 52.2851 44.6231 52.2379 44.6701C52.1592 44.7328 52.3008 44.6231 52.2221 44.6858C52.1907 44.7171 52.1592 44.7328 52.112 44.7642C52.0018 44.8426 51.8916 44.9053 51.7815 44.9523C51.8601 44.921 51.7028 44.9994 51.7815 44.9523C51.75 44.9523 51.7342 44.968 51.7028 44.9837C51.6398 44.9994 51.5768 45.0307 51.4982 45.0464C51.4195 45.0621 51.3565 45.0778 51.2936 45.0935C51.4037 45.0778 51.2936 45.0935 51.2463 45.0935C51.1047 45.0935 50.963 45.0935 50.8214 45.0935C50.8214 45.0935 50.727 45.0935 50.7899 45.0935C50.8686 45.0935 50.727 45.0935 50.7112 45.0935C50.6483 45.0935 50.5696 45.0621 50.5066 45.0464C50.4437 45.0307 50.365 44.9994 50.302 44.9837C50.2863 44.9837 50.1918 44.9367 50.302 44.9837C50.2705 44.9837 50.2391 44.9523 50.2076 44.9367C50.1446 44.9053 50.0817 44.8739 50.0187 44.8426C49.9872 44.8269 49.9558 44.8112 49.9243 44.7799C49.9243 44.7799 49.7984 44.6858 49.8613 44.7328C49.9085 44.7642 49.8456 44.7328 49.8456 44.7171C49.8141 44.6858 49.7826 44.6544 49.7512 44.6231C49.6882 44.576 49.641 44.5133 49.5938 44.4506C49.2475 44.0586 48.6022 44.3879 48.5865 44.8739C48.5865 44.9523 48.5865 45.0151 48.5865 45.0935C48.5865 44.9837 48.5865 45.1091 48.5865 45.1562C48.555 45.2816 48.5235 45.4071 48.4763 45.5168C48.5235 45.4071 48.4448 45.5639 48.4448 45.5795C48.4134 45.6423 48.3819 45.705 48.3347 45.7677C48.3032 45.8147 48.2717 45.8618 48.2402 45.9088C48.1615 46.0186 48.2875 45.8774 48.193 45.9558C48.1143 46.0499 48.0199 46.144 47.9255 46.2224C47.894 46.2538 47.8782 46.2694 47.8468 46.2851C47.894 46.2538 47.894 46.2538 47.8468 46.2851C47.7996 46.3165 47.7366 46.3635 47.6894 46.3949C47.6422 46.4262 47.595 46.4419 47.5477 46.4733C47.5163 46.489 47.4848 46.5046 47.4533 46.5203C47.5163 46.5046 47.5005 46.5046 47.4533 46.5203C47.3431 46.5517 47.233 46.5987 47.107 46.6144C47.0756 46.6144 47.0598 46.6144 47.0284 46.6144C47.0913 46.6144 47.0913 46.6144 47.0284 46.6144C46.9811 46.6144 46.9182 46.6144 46.871 46.6144C46.808 46.6144 46.7451 46.6144 46.6821 46.6144C46.6506 46.6144 46.6349 46.6144 46.6034 46.6144C46.6664 46.6144 46.6664 46.6144 46.6034 46.6144C46.4775 46.583 46.3673 46.5674 46.2414 46.5203C46.1942 46.5046 46.147 46.489 46.084 46.4576C46.1942 46.5046 46.0211 46.4262 46.0053 46.4106C45.8952 46.3635 45.8007 46.3008 45.7063 46.2381C45.6591 46.191 45.6433 46.191 45.7063 46.2381C45.6748 46.2224 45.6591 46.191 45.6276 46.1754C45.5804 46.144 45.5489 46.097 45.5174 46.0656C45.486 46.0342 45.4387 45.9872 45.4073 45.9558C45.3915 45.9245 45.3601 45.9088 45.3443 45.8774C45.3758 45.9245 45.3758 45.9245 45.3443 45.8774C45.2814 45.7677 45.2184 45.6736 45.1554 45.5482C45.0138 45.2659 44.6046 45.1875 44.3528 45.3443C44.0537 45.5168 44.0065 45.8618 44.1482 46.144C44.5889 47.0848 45.5647 47.6806 46.5719 47.8061C47.6422 47.9315 48.6494 47.3827 49.2633 46.5203C49.6095 46.0499 49.7826 45.4698 49.7984 44.8896L48.7911 45.313C49.7039 46.3478 51.3408 46.5987 52.5369 45.9558C53.1507 45.6266 53.6701 45.0778 53.9062 44.4192C54.1108 43.8704 54.0478 43.2432 53.8747 42.6944C53.6386 42.0202 53.2452 41.4244 52.773 40.8913C52.5684 40.6561 52.1592 40.6718 51.9388 40.8913C51.7028 41.1265 51.7342 41.4871 51.9388 41.7223L51.8759 41.6439Z" fill="#231F20"/>
<path d="M48.4763 15.4746C47.6107 15.9293 47.2015 16.8857 47.17 17.8109C47.1385 18.5948 47.3589 19.3632 47.5163 20.1158C47.7524 21.182 48.0042 22.2326 48.3347 23.2674C48.9957 25.3685 50.0502 28.0184 52.3166 28.8494C53.9692 29.4609 55.6689 28.6142 56.8966 27.5167C57.4632 26.9992 56.629 26.1682 56.0624 26.6856C55.4958 27.2031 54.819 27.6578 54.0321 27.8302C53.6544 27.9086 53.2137 27.893 52.8202 27.7832C52.4897 27.6891 52.0805 27.4539 51.8287 27.2187C51.451 26.8895 51.2149 26.5915 50.9631 26.2309C49.8141 24.5061 49.279 22.4364 48.8069 20.398C48.6809 19.8649 48.555 19.3318 48.4449 18.783C48.2875 17.999 48.2403 16.9328 49.0744 16.4938C49.7512 16.1488 49.1531 15.1296 48.4763 15.4746Z" fill="#231F20"/>
<path d="M33.3986 33.5376C34.2504 33.5376 34.941 32.8496 34.941 32.001C34.941 31.1523 34.2504 30.4644 33.3986 30.4644C32.5468 30.4644 31.8562 31.1523 31.8562 32.001C31.8562 32.8496 32.5468 33.5376 33.3986 33.5376Z" fill="#231F20"/>
<path d="M46.6349 33.5376C47.4868 33.5376 48.1773 32.8496 48.1773 32.001C48.1773 31.1523 47.4868 30.4644 46.6349 30.4644C45.7831 30.4644 45.0925 31.1523 45.0925 32.001C45.0925 32.8496 45.7831 33.5376 46.6349 33.5376Z" fill="#231F20"/>
<path d="M40.0088 37.3478C41.6516 37.3478 42.9834 36.5264 42.9834 35.5132C42.9834 34.5001 41.6516 33.6787 40.0088 33.6787C38.366 33.6787 37.0342 34.5001 37.0342 35.5132C37.0342 36.5264 38.366 37.3478 40.0088 37.3478Z" fill="#231F20"/>
<path d="M33.5719 28.3477C34.7193 28.3477 35.6494 27.751 35.6494 27.0149C35.6494 26.2788 34.7193 25.6821 33.5719 25.6821C32.4245 25.6821 31.4944 26.2788 31.4944 27.0149C31.4944 27.751 32.4245 28.3477 33.5719 28.3477Z" fill="white"/>
<path d="M46.4462 28.3477C47.5935 28.3477 48.5237 27.751 48.5237 27.0149C48.5237 26.2788 47.5935 25.6821 46.4462 25.6821C45.2988 25.6821 44.3687 26.2788 44.3687 27.0149C44.3687 27.751 45.2988 28.3477 46.4462 28.3477Z" fill="white"/>
</svg>
