<svg width="80" height="76" viewBox="0 0 80 76" fill="none" xmlns="http://www.w3.org/2000/svg">
<path d="M28.7701 47.478C28.5969 48.3247 28.172 48.7951 27.8887 49.7045C27.5582 50.7708 28.2979 51.8997 27.6683 52.9189C26.9758 54.0478 26.9601 56.0392 27.4795 57.2465C28.0933 58.6577 30.0292 59.1751 31.4929 59.2849C32.0595 59.3319 32.7362 59.2379 32.988 58.7361C33.6963 59.6142 35.3646 59.6926 36.3561 59.5201C37.5838 59.3006 38.7642 58.7831 40.0233 58.7204C40.3223 58.7204 40.6213 58.7204 40.8731 58.8615C41.0778 58.9713 41.2351 59.1438 41.4083 59.2849C42.9349 60.4452 44.2255 59.771 45.7994 59.3947C47.3732 59.0183 48.9943 59.5358 50.5053 58.6891C51.5125 58.1403 52.205 57.074 52.3152 55.9294C52.4254 54.7848 51.9532 53.6245 51.0719 52.8875C51.9217 52.3544 52.205 51.2412 52.1263 50.2533C52.0476 49.3596 51.9532 48.4658 51.5125 47.6662C51.4024 47.4623 51.2765 47.2742 51.1978 47.0546C51.1033 46.7254 51.1663 46.3647 51.1978 46.0041C51.2765 44.8438 50.82 43.6835 50.0803 42.7897C48.2074 40.4691 45.0282 40.5162 42.2739 40.1399C39.2363 39.7322 35.9941 39.6067 33.1454 40.9082C30.8004 41.9744 28.8645 44.2166 28.8015 46.7881C28.8015 47.0546 28.7701 47.2742 28.7228 47.478H28.7701Z" fill="#EEC688"/>
<path d="M45.7521 50.9585C47.1057 50.8017 48.4749 50.4567 49.6553 49.7511C50.8358 49.0456 51.7801 47.8539 51.7171 46.3957C51.6542 45.251 51.1191 44.2005 50.5682 43.2127C50.4265 42.9461 50.0173 42.8364 49.7655 43.0088C49.5137 43.1813 49.3878 43.5263 49.5609 43.8085C49.6711 44.0123 49.7813 44.2005 49.8914 44.4043C49.9544 44.5141 50.0016 44.6239 50.0646 44.7336C50.0803 44.765 50.096 44.812 50.1118 44.8434C50.1275 44.8747 50.1433 44.9218 50.159 44.9531C50.1905 45.0159 50.1905 45.0315 50.159 44.9845C50.2534 45.1883 50.3321 45.4078 50.3951 45.6274C50.4265 45.7214 50.458 45.8312 50.4738 45.9253C50.4738 45.988 50.5052 46.0507 50.5052 46.1134C50.5052 46.1448 50.5052 46.1762 50.521 46.2232C50.521 46.2859 50.521 46.2859 50.521 46.1918C50.5682 46.3173 50.5525 46.5211 50.5367 46.6465C50.5367 46.7093 50.5367 46.772 50.5367 46.8504C50.5367 46.9915 50.5682 46.7093 50.5367 46.8504C50.5367 46.8817 50.5367 46.9288 50.521 46.9601C50.4895 47.1013 50.458 47.2267 50.4108 47.3521C50.3479 47.4149 50.3793 47.4305 50.4108 47.3521C50.3951 47.3678 50.3793 47.4305 50.3636 47.4462C50.3321 47.5089 50.3006 47.5717 50.2534 47.6344C50.2219 47.6971 50.1905 47.7441 50.1433 47.8069C50.1275 47.8382 50.1118 47.8539 50.096 47.8853C50.0173 47.995 50.1905 47.7755 50.096 47.8853C50.0016 47.995 49.9072 48.1048 49.797 48.2145C49.7498 48.2616 49.7026 48.3086 49.6553 48.34C49.6081 48.3713 49.5294 48.4654 49.4822 48.4811C49.4822 48.4811 49.5924 48.4027 49.5137 48.4654C49.4822 48.4811 49.4507 48.5124 49.4193 48.5281C49.3563 48.5752 49.2934 48.6222 49.2304 48.6536C48.9628 48.826 48.6953 48.9672 48.412 49.0926C48.3805 49.1083 48.3333 49.124 48.3018 49.1396C48.1759 49.2024 48.3963 49.1083 48.3018 49.1396C48.2231 49.171 48.1602 49.2024 48.0972 49.218C47.9398 49.2808 47.7824 49.3278 47.6251 49.3748C47.3103 49.4846 46.9798 49.563 46.6492 49.6257C46.4919 49.6571 46.3187 49.6884 46.1456 49.7198C46.0669 49.7198 46.004 49.7355 45.9253 49.7511C45.7994 49.7668 46.0669 49.7355 45.9253 49.7511C45.8781 49.7511 45.8308 49.7511 45.7836 49.7668C45.4846 49.7982 45.1855 50.0177 45.1855 50.3627C45.1855 50.6449 45.4531 50.9899 45.7836 50.9585H45.7521Z" fill="#231F20"/>
<path d="M29.4318 43.6667C28.3458 44.7643 27.7635 46.348 28.2357 47.8689C28.7078 49.3898 30.0141 50.3934 31.5093 50.7383C32.7212 51.0205 33.9646 51.0049 35.2079 50.9892C35.5227 50.9892 35.806 50.7226 35.806 50.3934C35.806 50.0641 35.5542 49.7975 35.2079 49.7975C34.7043 49.7975 34.2007 49.7975 33.6813 49.7975C33.4452 49.7975 33.1934 49.7818 32.9573 49.7505C32.8314 49.7505 32.7212 49.7348 32.5953 49.7191C32.5953 49.7191 32.3907 49.6878 32.5166 49.7191C32.4379 49.7191 32.3592 49.6878 32.2805 49.6878C31.8871 49.625 31.5093 49.531 31.1316 49.3898C30.99 49.3428 31.2418 49.4526 31.1316 49.3898C31.1001 49.3742 31.0529 49.3585 31.0214 49.3428C30.9427 49.3114 30.8798 49.2644 30.8011 49.233C30.6594 49.1546 30.5178 49.0606 30.3761 48.9508C30.266 48.8724 30.4706 49.0292 30.3761 48.9508C30.3447 48.9194 30.3132 48.9038 30.2817 48.8724C30.2188 48.8254 30.1715 48.7783 30.1086 48.7156C30.0456 48.6529 29.9984 48.6059 29.9512 48.5588C29.9197 48.5275 29.904 48.4961 29.8725 48.4804C29.8568 48.4647 29.841 48.4491 29.8253 48.4177C29.7938 48.3707 29.7938 48.3863 29.8568 48.4491C29.8568 48.402 29.7781 48.3393 29.7466 48.3079C29.6994 48.2452 29.6679 48.1825 29.6364 48.1198C29.6049 48.0571 29.5577 47.9943 29.5262 47.9316C29.5105 47.9003 29.4948 47.8689 29.479 47.8375C29.4161 47.6807 29.5105 47.9159 29.479 47.8062C29.4318 47.6651 29.3846 47.5396 29.3374 47.3985C29.3216 47.3358 29.3059 47.2574 29.2902 47.1947C29.2902 47.1633 29.2902 47.1163 29.2744 47.0849C29.2587 46.9752 29.2744 47.226 29.2744 47.0692C29.2744 46.9281 29.2587 46.787 29.2744 46.6302C29.2744 46.5675 29.2744 46.5048 29.2744 46.442C29.2744 46.4107 29.2744 46.3636 29.2744 46.3323C29.2744 46.5048 29.2744 46.3636 29.2744 46.3009C29.3059 46.1284 29.3531 45.956 29.4161 45.7835C29.4161 45.7521 29.4476 45.7051 29.4633 45.6737C29.4633 45.6424 29.479 45.6267 29.4948 45.5953C29.4633 45.6737 29.4633 45.6894 29.4948 45.6267C29.542 45.5483 29.5735 45.4542 29.6207 45.3758C29.7151 45.2033 29.8253 45.0465 29.9355 44.8741C30.0141 44.7486 29.8568 44.9681 29.9355 44.8584C29.9669 44.8113 30.0141 44.7643 30.0456 44.7173C30.1086 44.6389 30.1873 44.5605 30.266 44.4821C30.4863 44.2626 30.502 43.8706 30.266 43.651C30.0299 43.4315 29.6679 43.4158 29.4318 43.651V43.6667Z" fill="#231F20"/>
<path d="M28.0302 48.2136C27.3849 48.8879 27.0072 49.813 27.0229 50.7381C27.0387 51.6632 27.4164 52.5413 28.0774 53.1841C28.4552 53.5605 28.8958 53.827 29.3837 54.0152C29.667 54.1249 30.0448 53.8897 30.1077 53.6075C30.1864 53.2782 29.9976 52.996 29.6985 52.8862C29.6828 52.8862 29.6513 52.8705 29.6356 52.8549C29.6356 52.8549 29.7457 52.9019 29.6985 52.8862C29.667 52.8705 29.6198 52.8549 29.5883 52.8392C29.5097 52.7922 29.4152 52.7451 29.3365 52.6981C29.2736 52.651 29.1949 52.604 29.1319 52.557C29.0532 52.4942 29.1634 52.5726 29.1634 52.5883C29.1634 52.5883 29.1162 52.557 29.1162 52.5413C29.0847 52.5099 29.0375 52.4786 29.006 52.4472C28.9431 52.3845 28.8801 52.3374 28.8329 52.2747C28.8014 52.2434 28.7699 52.212 28.7385 52.165C28.7385 52.165 28.7227 52.1336 28.707 52.1179C28.644 52.0395 28.707 52.1022 28.7227 52.1336C28.707 52.0709 28.6125 51.9925 28.5811 51.9298C28.5339 51.8514 28.4866 51.773 28.4394 51.6789C28.4237 51.6475 28.4079 51.6005 28.3922 51.5691C28.3293 51.4437 28.4237 51.6632 28.3922 51.5691C28.3607 51.475 28.3292 51.3966 28.2978 51.3026C28.282 51.2242 28.2506 51.1458 28.2348 51.0517C28.2348 51.0517 28.2348 50.989 28.2348 50.9733C28.2348 50.9733 28.2506 51.1301 28.2348 51.0203C28.2348 50.9733 28.2348 50.9263 28.2348 50.8792C28.2348 50.8008 28.2348 50.7067 28.2348 50.6127C28.2348 50.5186 28.2663 50.4088 28.2506 50.3147C28.2506 50.3147 28.2348 50.4559 28.2506 50.3618C28.2506 50.3461 28.2506 50.3304 28.2506 50.3147C28.2506 50.2677 28.2663 50.2363 28.282 50.1893C28.2978 50.0952 28.3292 50.0011 28.3607 49.9071C28.3607 49.86 28.3922 49.813 28.4079 49.7659C28.4079 49.7659 28.4394 49.7189 28.4394 49.7032C28.4394 49.7503 28.3922 49.813 28.4394 49.7189C28.4866 49.6248 28.5339 49.5308 28.5811 49.4367C28.6283 49.3583 28.6912 49.2799 28.7542 49.1858C28.6912 49.2956 28.707 49.2485 28.7227 49.2172C28.7385 49.2015 28.7699 49.1701 28.7857 49.1388C28.8172 49.0917 28.8644 49.0604 28.8958 49.0133C29.1162 48.7938 29.1319 48.4018 28.8958 48.1823C28.6598 47.9628 28.2978 47.9471 28.0617 48.1823L28.0302 48.2136Z" fill="#231F20"/>
<path d="M51.1505 48.199C51.2292 48.3088 51.2921 48.4028 51.3551 48.5283C51.3866 48.5753 51.4181 48.6224 51.4338 48.6851C51.4495 48.7478 51.481 48.8419 51.5282 48.8732C51.481 48.8262 51.4968 48.7948 51.5282 48.8576C51.5282 48.8889 51.544 48.9046 51.5597 48.936C51.5754 48.9987 51.6069 49.0614 51.6227 49.1241C51.6699 49.2496 51.7014 49.3907 51.7171 49.5161C51.7171 49.5475 51.7171 49.5788 51.7171 49.5945C51.7328 49.7043 51.7171 49.5945 51.7171 49.5631C51.7171 49.6259 51.7171 49.7043 51.7328 49.7513C51.7328 49.8767 51.7328 50.0022 51.7328 50.1433C51.7328 50.206 51.7328 50.2687 51.7328 50.3315C51.7328 50.3628 51.7328 50.3942 51.7328 50.4099C51.7328 50.5196 51.7328 50.4099 51.7328 50.3785C51.6856 50.5039 51.6856 50.6451 51.6541 50.7705C51.6227 50.8803 51.5912 51.0057 51.544 51.1154C51.544 51.1311 51.5282 51.1782 51.5125 51.1938C51.5754 51.0841 51.5282 51.1468 51.5125 51.1782C51.481 51.2409 51.4495 51.3036 51.4181 51.3663C51.3551 51.4761 51.2921 51.5858 51.2292 51.6799C51.2134 51.6956 51.1977 51.727 51.182 51.7426C51.1505 51.7897 51.119 51.7897 51.1977 51.727C51.1505 51.774 51.1033 51.8367 51.0561 51.8838C50.9774 51.9778 50.8987 52.0562 50.8042 52.1346C50.757 52.1817 50.7098 52.213 50.6626 52.2601C50.6469 52.2601 50.5996 52.2914 50.5996 52.3071C50.6626 52.2601 50.6783 52.2601 50.6311 52.2758C50.6154 52.2758 50.5996 52.3071 50.5839 52.3071C50.3793 52.4482 50.1747 52.5737 49.9544 52.6677C49.8442 52.7305 49.9229 52.6834 49.9544 52.6677C49.9229 52.6834 49.8914 52.6991 49.8599 52.6991C49.797 52.7305 49.734 52.7461 49.6553 52.7618C49.5294 52.8089 49.3878 52.8402 49.2461 52.8716C49.2146 52.8716 49.1832 52.8716 49.1359 52.8873C49.0258 52.9029 49.2304 52.8873 49.1359 52.8873C49.073 52.8873 48.9943 52.8873 48.9313 52.9029C48.7897 52.9029 48.6323 52.9029 48.4906 52.9029C48.1759 52.8873 47.8926 53.1852 47.8926 53.4988C47.8926 53.8281 48.1444 54.0633 48.4906 54.0946C49.6868 54.173 50.9144 53.6869 51.7328 52.8245C52.5512 51.9622 52.9919 50.7235 52.8503 49.5161C52.7716 48.8105 52.5355 48.1363 52.1106 47.5561C51.9217 47.3053 51.5912 47.1641 51.3079 47.3523C51.0561 47.5091 50.8987 47.8854 51.1033 48.152L51.1505 48.199Z" fill="#231F20"/>
<path d="M34.1376 54.2976C37.8362 55.8499 42.1329 55.6931 45.7528 54.0154C46.0361 53.8743 46.1148 53.4666 45.9574 53.2157C45.7843 52.9178 45.4381 52.8708 45.1548 53.0119C41.8024 54.5799 37.852 54.5956 34.4367 53.1844C34.1376 53.0589 33.7914 53.3098 33.7127 53.592C33.6183 53.937 33.8229 54.1879 34.1219 54.3133L34.1376 54.2976Z" fill="#231F20"/>
<path d="M31.3673 54.6741C31.5405 55.7874 31.7608 56.885 32.0284 57.9669C32.17 58.5157 32.3431 59.0488 32.7051 59.4878C33.0042 59.8484 33.4134 60.0836 33.8541 60.2404C34.641 60.5227 35.5538 60.507 36.3723 60.4129C36.8602 60.3659 37.3638 60.2561 37.7415 59.9112C37.9304 59.7387 38.0878 59.4878 38.135 59.2369C38.198 58.9077 38.135 58.5941 38.0248 58.2648C37.9304 57.9826 37.8517 57.7003 37.7887 57.4024C37.7887 57.324 37.7573 57.2456 37.7415 57.1829C37.7415 57.1515 37.7415 57.1202 37.7258 57.0888C37.7258 57.0261 37.7258 57.0418 37.7258 57.0888C37.7101 56.932 37.6943 56.7909 37.6786 56.6341C37.6628 56.3519 37.6628 56.0539 37.6786 55.7717C37.6786 55.6933 37.6786 55.6149 37.6943 55.5365C37.6943 55.5051 37.6943 55.4738 37.6943 55.4424C37.6943 55.4111 37.7101 55.3013 37.6943 55.4267C37.7101 55.2699 37.7415 55.1288 37.773 54.972C37.836 54.6741 37.6786 54.3292 37.3638 54.2508C37.0648 54.188 36.7028 54.3448 36.6398 54.6584C36.4195 55.709 36.4195 56.7752 36.6398 57.8101C36.687 58.0453 36.75 58.2962 36.8287 58.5314C36.8602 58.6411 36.9074 58.7665 36.9389 58.8763C36.9389 58.9077 36.9389 58.9233 36.9389 58.9547C36.9231 58.8449 36.9389 58.9233 36.9389 58.9547C36.9389 58.9861 36.9389 59.0017 36.9389 59.0331C36.9389 59.1115 36.9389 58.939 36.9389 59.0488C36.9074 59.1272 36.9389 59.0645 36.9389 59.0488C36.9389 59.0488 36.9074 59.0801 36.9074 59.0958C36.9074 59.0331 36.9861 59.0017 36.9389 59.0488C36.9231 59.0645 36.8129 59.1585 36.8916 59.0958C36.9703 59.0331 36.8444 59.1272 36.8287 59.1272C36.8287 59.1272 36.7972 59.1429 36.7815 59.1585C36.687 59.2056 36.8129 59.1429 36.8287 59.1429C36.8129 59.1429 36.7185 59.1742 36.7028 59.1899C36.6083 59.2213 36.5139 59.2369 36.4352 59.2526C36.4195 59.2526 36.4037 59.2526 36.3723 59.2526C36.2936 59.2526 36.4982 59.2526 36.4195 59.2526C36.3723 59.2526 36.3408 59.2526 36.2936 59.2526C36.1991 59.2526 36.1047 59.2526 36.0103 59.2683C35.8214 59.2683 35.6168 59.284 35.4279 59.284C35.2391 59.284 35.0345 59.284 34.8456 59.2526C34.7984 59.2526 34.7512 59.2526 34.704 59.2526C34.704 59.2526 34.8299 59.2683 34.7669 59.2526C34.7512 59.2526 34.7354 59.2526 34.704 59.2526C34.5938 59.2369 34.4994 59.2213 34.4049 59.1899C34.3262 59.1742 34.2318 59.1429 34.1531 59.1115C34.1216 59.1115 34.0901 59.0801 34.0429 59.0645C34.2003 59.1115 34.0429 59.0645 34.0115 59.0488C33.9328 59.0174 33.8541 58.9704 33.7911 58.9233L33.7282 58.8763C33.7282 58.8763 33.8226 58.9547 33.7754 58.9077C33.7282 58.8763 33.6967 58.8293 33.6495 58.7979C33.618 58.7665 33.6022 58.7509 33.5708 58.7195L33.5235 58.6568C33.5235 58.6568 33.5865 58.7509 33.555 58.7038C33.4921 58.6097 33.4291 58.5 33.3662 58.3902C33.3662 58.3589 33.3347 58.3275 33.3189 58.2962C33.3189 58.2962 33.3504 58.3902 33.3189 58.3275C33.3032 58.2805 33.2875 58.2177 33.256 58.1707C33.2245 58.061 33.193 57.9355 33.1616 57.8258C32.8625 56.6811 32.6264 55.5208 32.4533 54.3605C32.4061 54.0626 32.0126 53.8588 31.7293 53.9528C31.3988 54.0626 31.2729 54.3448 31.3201 54.6741H31.3673Z" fill="#231F20"/>
<path d="M27.3066 52.5576C26.3465 53.6865 26.1262 55.3172 26.6456 56.697C27.165 58.0769 28.4083 59.1431 29.872 59.5978C30.6589 59.8487 31.5088 59.9271 32.343 59.833C32.642 59.8016 32.9411 59.5821 32.9411 59.2372C32.9411 58.9549 32.6735 58.61 32.343 58.6413C32.0125 58.6727 31.682 58.6884 31.3515 58.6727C31.2728 58.6727 31.2098 58.6727 31.1311 58.657C31.0839 58.657 31.0524 58.657 31.0052 58.657C30.8321 58.6257 30.659 58.5943 30.4858 58.5629C30.3284 58.5316 30.1868 58.4845 30.0294 58.4375C29.9507 58.4061 29.8878 58.3905 29.8091 58.3591C29.7776 58.3591 29.7461 58.3434 29.7146 58.3277C29.8405 58.3748 29.7146 58.3277 29.6831 58.3121C29.3841 58.1709 29.1008 57.9985 28.8333 57.8103C28.7546 57.7319 28.8175 57.7946 28.8333 57.8103C28.8018 57.779 28.7703 57.7633 28.7388 57.7319C28.6916 57.6849 28.6287 57.6378 28.5814 57.5908C28.4555 57.481 28.3296 57.3556 28.2194 57.2145C28.2194 57.2145 28.125 57.089 28.1722 57.1674C28.2194 57.2458 28.1408 57.1204 28.1408 57.1204C28.0935 57.0577 28.0621 56.995 28.0148 56.9322C27.9361 56.8068 27.8575 56.6814 27.7945 56.5403C27.7788 56.4932 27.7473 56.4618 27.7315 56.4148C27.7315 56.4305 27.7788 56.5246 27.7315 56.4305C27.7001 56.3678 27.6843 56.2894 27.6529 56.2267C27.6056 56.0699 27.5584 55.9131 27.5269 55.7563C27.5269 55.7249 27.5269 55.6935 27.5112 55.6622C27.5112 55.6622 27.4797 55.5054 27.5112 55.6151C27.5427 55.7249 27.5112 55.5681 27.5112 55.5524C27.5112 55.5211 27.5112 55.4897 27.5112 55.4583C27.5112 55.3015 27.5112 55.1291 27.5112 54.9723C27.5112 54.8939 27.5112 54.7841 27.5269 54.7057C27.5269 54.7057 27.5112 54.8468 27.5269 54.7371C27.5269 54.69 27.5269 54.643 27.5427 54.6116C27.5742 54.4392 27.6214 54.2667 27.6843 54.1099C27.6843 54.0785 27.7001 54.0628 27.7158 54.0315C27.763 53.9217 27.6686 54.1256 27.7315 53.9844C27.763 53.906 27.8102 53.8433 27.8417 53.7649C27.8889 53.6865 27.9361 53.6081 27.9834 53.5454C27.9991 53.514 28.0148 53.4984 28.0306 53.467C27.9361 53.5924 28.0621 53.4356 28.0778 53.42C28.2824 53.1848 28.3296 52.8085 28.0778 52.5889C27.8575 52.3851 27.464 52.3381 27.2436 52.5889L27.3066 52.5576Z" fill="#231F20"/>
<path d="M46.7752 54.3618C46.6178 55.3966 46.4132 56.4315 46.1614 57.4507C46.0984 57.6859 46.0512 57.9211 45.9725 58.1563C45.9568 58.2033 45.941 58.266 45.9096 58.3131C45.9096 58.3131 45.8781 58.4072 45.9096 58.3288C45.941 58.2504 45.9096 58.3601 45.8938 58.3758C45.8466 58.4856 45.7836 58.5796 45.705 58.6894C45.642 58.7835 45.7836 58.5953 45.705 58.6894C45.6735 58.7208 45.642 58.7521 45.6105 58.7835C45.579 58.8148 45.5476 58.8462 45.5161 58.8776C45.4217 58.9716 45.6105 58.8305 45.4846 58.8932C45.4059 58.9403 45.343 58.9873 45.2643 59.0187C45.2485 59.0187 45.1541 59.0657 45.1541 59.0814C45.1541 59.0814 45.2643 59.0343 45.2013 59.0657C45.1698 59.0657 45.1384 59.0814 45.1069 59.0971C44.9338 59.1598 44.7449 59.2068 44.5718 59.2382C44.5245 59.2382 44.3829 59.2382 44.556 59.2382C44.5088 59.2382 44.4616 59.2382 44.4144 59.2382C44.3199 59.2382 44.2098 59.2382 44.1153 59.2539C43.7376 59.2539 43.3441 59.2539 42.9664 59.2225C42.9349 59.2225 42.8877 59.2225 42.8562 59.2225C42.7461 59.2225 42.8877 59.2225 42.9035 59.2225C42.9035 59.2225 42.8405 59.2225 42.8248 59.2225C42.7303 59.2225 42.6516 59.1911 42.5729 59.1598C42.5572 59.1598 42.447 59.1128 42.4313 59.1128C42.4313 59.1128 42.5415 59.1755 42.4943 59.1441C42.4943 59.1441 42.4628 59.1441 42.447 59.1284C42.4156 59.1127 42.3841 59.0814 42.3369 59.0657C42.2739 59.0343 42.4156 59.1441 42.3683 59.0971C42.3683 59.0814 42.3211 59.05 42.3054 59.0344C42.2424 58.9716 42.3526 59.1284 42.3054 59.0344L42.2739 58.9716C42.2739 58.9716 42.3054 59.0814 42.3054 59.0344C42.3054 59.0187 42.2739 58.9246 42.2897 59.003C42.2897 59.0657 42.2897 59.003 42.2897 58.9873C42.2897 58.9559 42.2897 58.9246 42.2897 58.8932C42.2897 58.9403 42.2897 58.956 42.2897 58.8932C42.3526 58.6424 42.4313 58.4228 42.51 58.172C42.8248 57.0273 42.8405 55.8043 42.6044 54.644C42.5415 54.3461 42.1637 54.1423 41.8804 54.2363C41.5657 54.3461 41.4083 54.644 41.4712 54.9576C41.5027 55.083 41.5184 55.2085 41.5342 55.3339C41.5342 55.3496 41.5499 55.4594 41.5342 55.381C41.5342 55.3026 41.5342 55.381 41.5342 55.3966C41.5342 55.475 41.5499 55.5534 41.5499 55.6318C41.5657 55.8984 41.5814 56.1649 41.5657 56.4315C41.5657 56.5569 41.5657 56.6824 41.5499 56.8078C41.5499 56.8705 41.5499 56.9333 41.5342 56.9803C41.5342 57.0117 41.5342 57.043 41.5342 57.0744C41.5342 56.996 41.5342 57.043 41.5342 57.0901C41.487 57.3566 41.4398 57.6075 41.3611 57.8584C41.2037 58.4385 40.9361 59.05 41.2824 59.6145C41.5499 60.0379 42.0221 60.2574 42.4943 60.3358C42.9192 60.4142 43.3599 60.4299 43.8006 60.4299C44.2413 60.4299 44.7134 60.3985 45.1384 60.2887C45.5633 60.179 46.004 59.9751 46.366 59.6615C46.7594 59.3166 46.9955 58.8148 47.1372 58.3131C47.4834 57.1214 47.7195 55.867 47.9084 54.644C47.9556 54.3461 47.8297 54.0011 47.4992 53.9227C47.2159 53.86 46.8224 54.0011 46.7752 54.3304V54.3618Z" fill="#231F20"/>
<path d="M51.1354 53.3879C51.1354 53.3879 51.1983 53.4507 51.2141 53.4977C51.2613 53.5604 51.2928 53.6231 51.34 53.6859C51.3872 53.7486 51.4187 53.8113 51.4502 53.874C51.4502 53.9054 51.4816 53.921 51.4816 53.9524C51.4816 53.9838 51.5131 53.9994 51.5131 54.0308C51.4816 53.9524 51.4816 53.9524 51.5131 54.0151C51.5603 54.1406 51.6076 54.266 51.639 54.3914C51.6548 54.4698 51.6705 54.5326 51.6862 54.611C51.6862 54.658 51.6862 54.705 51.702 54.7364C51.7177 54.8618 51.702 54.6266 51.702 54.7521C51.7335 55.0343 51.7649 55.3636 51.702 55.6458C51.7335 55.489 51.702 55.7085 51.6862 55.7556C51.6862 55.834 51.6548 55.8967 51.639 55.9751C51.5918 56.1319 51.5446 56.2887 51.4816 56.4455C51.4816 56.4769 51.4502 56.5553 51.4816 56.4298C51.4816 56.4612 51.4502 56.4925 51.4344 56.5396C51.4029 56.6023 51.3715 56.665 51.34 56.7277C51.2613 56.8688 51.1826 57.01 51.0724 57.1511C51.0724 57.1511 50.978 57.2765 51.041 57.1981C51.1039 57.1197 51.0095 57.2452 50.9937 57.2452C50.9465 57.3079 50.8836 57.3706 50.8364 57.4176C50.7262 57.5274 50.616 57.6372 50.4901 57.7469C50.4586 57.7783 50.4114 57.8096 50.3799 57.841C50.3957 57.841 50.4744 57.7783 50.3799 57.841C50.317 57.888 50.254 57.9351 50.1911 57.9821C50.0494 58.0762 49.892 58.1703 49.7504 58.2487C49.6874 58.28 49.6245 58.3114 49.5615 58.3427C49.53 58.3584 49.4828 58.3741 49.4513 58.3898C49.4828 58.3898 49.5615 58.3428 49.4513 58.3898C49.294 58.4525 49.1208 58.5152 48.9634 58.5623C48.8061 58.6093 48.6329 58.6563 48.4598 58.6877C48.4126 58.6877 48.3654 58.7034 48.3182 58.7191C48.3024 58.7191 48.1293 58.7504 48.2867 58.7191C48.1922 58.7191 48.0978 58.7347 48.0034 58.7504C47.6414 58.7818 47.2794 58.7661 46.9174 58.7347C46.6026 58.7034 46.3193 59.0327 46.3193 59.3306C46.3193 59.6755 46.5869 59.8794 46.9174 59.9264C48.4283 60.0989 49.9865 59.6912 51.1826 58.7504C52.3787 57.8096 52.9768 56.4141 52.8667 54.9716C52.8037 54.1092 52.5047 53.3252 51.9381 52.6667C51.7335 52.4315 51.3085 52.4471 51.1039 52.6667C50.8678 52.9175 50.8836 53.2468 51.1039 53.4977L51.1354 53.3879Z" fill="#231F20"/>
<path d="M38.434 59.5511C38.6543 59.6138 38.8747 59.6452 39.095 59.6766C39.2682 59.6922 39.457 59.6922 39.6302 59.6766C39.8505 59.6766 40.0708 59.6295 40.2912 59.5825C40.5115 59.5354 40.7161 59.4414 40.9207 59.3473C41.0466 59.2846 41.1568 59.1278 41.1883 59.0023C41.2198 58.8612 41.204 58.673 41.1253 58.5476C41.0466 58.4222 40.9207 58.3124 40.7791 58.281H40.6217C40.5115 58.2654 40.4171 58.281 40.3227 58.3438C40.3069 58.3438 40.2754 58.3594 40.2597 58.3751L40.4013 58.3124C40.1653 58.4065 39.9134 58.4849 39.6616 58.5162H39.819C39.5515 58.5162 39.2839 58.5162 39.0163 58.5006H39.1737C39.0321 58.5006 38.8904 58.4692 38.733 58.4222C38.5757 58.3751 38.4025 58.4065 38.2766 58.4849C38.1507 58.5633 38.0405 58.6887 38.0091 58.8298C37.9776 58.9866 37.9776 59.1434 38.072 59.2846C38.1664 59.4257 38.2766 59.5041 38.4183 59.5511H38.434Z" fill="#231F20"/>
<path d="M49.4355 18.7845C44.8871 17.4517 40.2756 18.0476 35.6484 18.126C32.3275 18.173 27.9837 18.2828 25.3868 20.6504C24.6313 21.3403 24.1119 22.2341 23.6555 23.1278C21.6095 27.0791 20.3661 31.4381 20.0356 35.8755C19.9254 37.3337 19.9254 38.8233 20.4291 40.2031C20.9327 41.5829 22.0344 42.7903 23.4666 43.0882C23.8286 43.1666 24.1906 43.1823 24.5211 43.3391C24.8674 43.5116 25.1192 43.8408 25.4025 44.1231C26.5357 45.2991 27.9364 45.6597 29.5103 45.7695C31.0842 45.8792 32.4062 45.2677 33.9329 45.2207C34.2791 45.2207 34.5939 45.3304 34.9244 45.4402C36.6242 46.036 38.3555 46.5378 40.1497 46.6475C42.6679 46.8043 45.1231 45.8635 47.6728 45.7851C49.8762 45.7224 52.5676 45.597 54.0313 43.684C54.1572 43.5116 54.2831 43.3391 54.4405 43.2136C54.6923 43.0255 55.0385 42.9785 55.3533 42.9157C56.817 42.6021 57.9974 41.4575 58.6427 40.1247C59.288 38.7919 59.4611 37.2553 59.4296 35.7814C59.3352 31.9399 57.9817 28.2238 56.1402 24.8526C55.0385 22.8456 53.7007 20.8542 51.7019 19.7253C50.9937 19.3176 50.2225 19.0354 49.4355 18.8002V18.7845Z" fill="#EEC688"/>
<path d="M24.5058 18.722C23.3411 18.8004 22.145 18.9415 21.0905 19.4119C20.036 19.8823 19.0917 20.776 18.8241 21.9207C18.6038 22.8771 18.8713 23.8806 19.1704 24.8214C19.4694 25.7152 19.7999 26.6089 20.3823 27.3302C20.9646 28.0515 21.8617 28.6003 22.806 28.5689C23.4356 28.5375 24.0336 28.2553 24.5845 27.926C25.3242 27.487 26.0325 26.9068 26.363 26.1072C26.5833 25.5897 26.6148 25.0096 26.7564 24.4765C26.9768 23.5984 27.4647 22.7987 27.7165 21.9363C28.4562 19.3648 26.7564 18.5652 24.5058 18.722Z" fill="#EEC688"/>
<path d="M51.2304 19.6468C51.1517 19.7566 51.1517 19.8977 51.1674 20.0388C51.2776 21.1991 51.372 22.3751 51.4822 23.5354C51.5766 24.5232 51.671 25.5267 52.0016 26.4675C52.3321 27.4083 52.9459 28.2864 53.8273 28.7568C54.1106 28.8979 54.4253 29.0077 54.7401 29.0077C55.0549 29.0077 55.3696 28.9293 55.6529 28.8038C58.0452 27.8787 58.722 25.856 58.7377 23.5511C58.7535 21.2462 58.0925 20.1799 55.7946 19.5371C54.567 19.1921 52.2376 18.4395 51.2461 19.6625L51.2304 19.6468Z" fill="#EEC688"/>
<path d="M31.6825 37.6467C31.0844 38.0701 30.5808 38.6032 30.3447 39.2931C29.9355 40.4063 30.3289 41.7078 31.1631 42.5545C31.9972 43.4012 33.2249 43.7775 34.4053 43.7461C35.5857 43.7148 36.7346 43.2601 37.7419 42.6486C38.6075 42.1154 39.4417 41.3471 39.5518 40.3279C39.5046 40.7199 40.748 41.9587 41.0313 42.2095C41.7238 42.8524 42.5894 43.3071 43.518 43.511C45.2965 43.8873 47.2481 43.3071 48.5072 42.0214C48.759 41.7548 48.9951 41.4726 49.1367 41.1276C49.5459 40.1555 49.1053 39.0108 48.46 38.1798C47.1694 36.5648 45.0919 35.7024 43.0301 35.4672C41.0942 35.232 39.0482 35.4045 37.1438 35.8278C35.806 36.1414 34.4997 36.2982 33.2091 36.8314C32.6898 37.0509 32.1704 37.3017 31.6982 37.631L31.6825 37.6467Z" fill="#5C564D"/>
<path d="M31.3203 37.1617C32.2156 37.1617 32.9414 36.4386 32.9414 35.5467C32.9414 34.6547 32.2156 33.9316 31.3203 33.9316C30.425 33.9316 29.6992 34.6547 29.6992 35.5467C29.6992 36.4386 30.425 37.1617 31.3203 37.1617Z" fill="#231F20"/>
<path d="M48.1924 37.1617C49.0877 37.1617 49.8135 36.4386 49.8135 35.5467C49.8135 34.6547 49.0877 33.9316 48.1924 33.9316C47.2971 33.9316 46.5713 34.6547 46.5713 35.5467C46.5713 36.4386 47.2971 37.1617 48.1924 37.1617Z" fill="#231F20"/>
<path d="M39.9133 38.7773C41.643 38.7773 43.0453 37.9068 43.0453 36.833C43.0453 35.7592 41.643 34.8887 39.9133 34.8887C38.1835 34.8887 36.7812 35.7592 36.7812 36.833C36.7812 37.9068 38.1835 38.7773 39.9133 38.7773Z" fill="#231F20"/>
<path d="M29.8728 19.8816C32.454 18.5488 35.4915 18.7056 38.3088 18.9095C38.6235 18.9251 38.9068 18.6272 38.9068 18.3136C38.9068 17.9687 38.6393 17.7492 38.3088 17.7178C35.2712 17.4983 32.0605 17.4042 29.2747 18.8467C28.9914 18.9879 28.9127 19.3799 29.0701 19.6464C29.2433 19.9286 29.5895 20.007 29.8728 19.8502V19.8816Z" fill="#231F20"/>
<path d="M40.5749 18.9102C43.5023 18.2673 46.5556 18.5182 49.3571 19.5687C49.6562 19.6785 50.0024 19.4433 50.0811 19.161C50.1755 18.8318 49.9709 18.5495 49.6719 18.4398C46.6815 17.3108 43.3921 17.0913 40.2601 17.7812C39.9454 17.8439 39.7722 18.2046 39.8509 18.5025C39.9454 18.8161 40.2601 18.9886 40.5749 18.9102Z" fill="#231F20"/>
<path d="M28.1098 19.0978C27.3858 18.3609 26.3628 18.1257 25.3555 18.1414C24.301 18.157 23.1993 18.3766 22.1763 18.6274C21.0903 18.9097 20.0201 19.3644 19.2017 20.164C18.3833 20.9637 17.9898 22.0299 18.037 23.1746C18.0527 23.7861 18.1629 24.3976 18.2731 24.9934C18.3833 25.5893 18.5406 26.1381 18.8082 26.6555C19.2174 27.4238 19.8942 28.0667 20.6811 28.4587C22.3494 29.3054 24.364 29.1799 25.8277 28.0039C27.4488 26.7025 28.1098 24.3192 27.4488 22.3592C27.3543 22.0613 27.0396 21.8575 26.7248 21.9515C26.4257 22.0299 26.2054 22.3749 26.3156 22.6728C26.772 24.0526 26.4572 25.652 25.4814 26.7182C24.9778 27.2827 24.4112 27.612 23.6872 27.7687C23.6085 27.7844 23.5298 27.8001 23.4511 27.8158C23.2623 27.8471 23.5141 27.8158 23.4039 27.8158C23.3567 27.8158 23.3095 27.8158 23.2623 27.8158C23.0734 27.8158 22.8845 27.8158 22.6957 27.8158C22.6012 27.8158 22.5225 27.8158 22.4281 27.7844C22.5383 27.7844 22.4124 27.7844 22.3809 27.7844C22.3337 27.7844 22.2865 27.7688 22.2392 27.7531C22.0504 27.7217 21.8773 27.659 21.7041 27.612C21.4838 27.5336 21.4995 27.5336 21.2949 27.4395C21.1218 27.3454 20.9487 27.2513 20.7913 27.1416C20.6654 27.0632 20.6024 27.0161 20.4608 26.875C20.3191 26.7496 20.1932 26.6084 20.083 26.4673C20.146 26.5457 20.0673 26.436 20.0516 26.4203C20.0201 26.3732 20.0043 26.3419 19.9729 26.2949C19.9256 26.2165 19.8784 26.1381 19.847 26.0753C19.7525 25.8872 19.6738 25.6833 19.6109 25.4795C19.4535 24.9777 19.3748 24.4446 19.2961 23.9272C19.1545 22.9864 19.1859 22.1083 19.7368 21.34C20.2089 20.6815 21.0116 20.2268 21.8143 19.9445C22.3652 19.7564 22.9475 19.6309 23.5141 19.5212C24.0177 19.4271 24.4427 19.3487 24.9148 19.3173C25.1666 19.3017 25.4185 19.286 25.6545 19.3017C25.7647 19.3017 25.8749 19.3017 25.9851 19.3173C26.111 19.3173 26.048 19.3173 26.0165 19.3173C26.0795 19.3173 26.1424 19.333 26.2054 19.3487C26.6461 19.4428 26.9766 19.5839 27.2756 19.8975C27.8108 20.4463 28.6449 19.6153 28.1098 19.0665V19.0978Z" fill="#231F20"/>
<path d="M51.3242 20.1025C52.9925 19.7575 54.7552 19.8673 56.3448 20.4631C56.6596 20.5729 56.9901 20.7611 57.1947 20.9492C57.4465 21.1844 57.5567 21.3569 57.7141 21.6548C57.8242 21.8743 57.9344 22.2193 57.9816 22.5172C58.0289 22.7994 58.0603 23.113 58.0603 23.4423C58.0603 24.9005 57.6826 26.5469 56.5179 27.4877C56.03 27.8797 55.432 28.0678 54.7867 28.0522C54.6765 28.0522 54.708 28.0522 54.7395 28.0522C54.6922 28.0522 54.645 28.0522 54.6135 28.0365C54.5349 28.0365 54.4562 28.0051 54.3932 27.9894C54.2043 27.9267 54.1099 27.8954 53.9525 27.817C53.6377 27.6602 53.4174 27.4877 53.1656 27.2682C51.8907 26.0451 51.7963 24.1165 51.9065 22.4231C51.9222 22.1095 51.6232 21.8273 51.3084 21.8273C50.9779 21.8273 50.7418 22.0938 50.7103 22.4231C50.6002 24.289 50.7576 26.296 52.0167 27.7856C52.5518 28.4285 53.2915 28.9302 54.0942 29.1497C54.9598 29.3849 55.8569 29.2595 56.6438 28.8362C58.3594 27.911 59.0361 25.9668 59.1935 24.1322C59.3194 22.5329 58.9732 20.6983 57.5252 19.7732C56.6124 19.1931 55.432 18.9579 54.3775 18.8324C53.2443 18.6913 52.0953 18.754 50.9779 18.9892C50.6631 19.052 50.49 19.4126 50.5687 19.7105C50.6631 20.0398 50.9779 20.1809 51.2927 20.1182L51.3242 20.1025Z" fill="#231F20"/>
<path d="M20.3665 29.7136C19.7055 31.9715 19.1232 34.3391 19.1074 36.7068C19.1074 38.8236 19.6425 41.0031 21.2164 42.5083C21.9876 43.2453 22.9634 43.7941 24.0179 43.9352C24.3327 43.9822 24.6475 43.8568 24.7419 43.5275C24.8206 43.2453 24.6475 42.8533 24.3327 42.8062C22.6959 42.5867 21.3895 41.3323 20.7915 39.8271C20.036 37.8828 20.2249 35.719 20.6026 33.7119C20.8229 32.4732 21.1535 31.2502 21.4997 30.0429C21.7043 29.3216 20.5711 29.008 20.3665 29.7293V29.7136Z" fill="#231F20"/>
<path d="M24.2222 38.4787C23.9861 40.0937 23.7972 41.8185 24.5055 43.3394C24.8674 44.1234 25.5127 44.7349 26.2525 45.174C26.9922 45.613 27.8578 45.9579 28.7077 46.1775C29.7307 46.444 30.8324 46.5067 31.8397 46.1775C32.1387 46.0834 32.3591 45.7698 32.2489 45.4562C32.1545 45.1583 31.8397 44.9388 31.5249 45.0485C31.3361 45.1112 31.1315 45.1583 30.9269 45.2053C30.801 45.221 30.8796 45.2053 30.8954 45.2053C30.8482 45.2053 30.801 45.2053 30.738 45.221C30.6278 45.221 30.5177 45.221 30.4075 45.2367C30.2029 45.2367 29.9983 45.2367 29.7937 45.2053C29.7465 45.2053 29.715 45.2053 29.6678 45.2053C29.7622 45.2053 29.6363 45.2053 29.6048 45.2053C29.4946 45.1896 29.3845 45.1583 29.2743 45.1426C28.8651 45.0485 28.4716 44.9231 28.0782 44.782C27.9837 44.7506 27.905 44.7192 27.8106 44.6722C27.7949 44.6722 27.6689 44.6095 27.7476 44.6565C27.7162 44.6565 27.6689 44.6252 27.6375 44.6095C27.4486 44.5311 27.244 44.437 27.0551 44.3273C26.8977 44.2489 26.7561 44.1548 26.5987 44.0607C26.52 44.0137 26.4413 43.9509 26.3626 43.9039C26.4413 43.9509 26.3626 43.9039 26.3469 43.9039C26.2997 43.8569 26.2367 43.8255 26.1895 43.7785C26.0479 43.653 25.9377 43.5276 25.8118 43.3865C25.7016 43.261 25.8432 43.4492 25.796 43.3551C25.7803 43.3237 25.7488 43.2767 25.7173 43.2453C25.6701 43.1669 25.6229 43.1042 25.5757 43.0258C25.5285 42.9474 25.497 42.869 25.4498 42.7906C25.4498 42.7906 25.3868 42.6338 25.4183 42.7122C25.4498 42.7906 25.3868 42.6338 25.3868 42.6338C25.3239 42.477 25.2767 42.3046 25.2294 42.1321C25.2137 42.0537 25.198 41.9596 25.1822 41.8812C25.1822 41.8498 25.1822 41.8185 25.1665 41.7714C25.1665 41.7558 25.135 41.5833 25.1665 41.7244C25.1507 41.5519 25.135 41.3638 25.1193 41.1913C25.1035 40.7836 25.1193 40.3916 25.1507 39.9839C25.1665 39.7801 25.1822 39.5763 25.2137 39.3724C25.2137 39.3254 25.2137 39.2627 25.2294 39.2156C25.2294 39.1843 25.2609 39.0275 25.2294 39.1529C25.2294 39.0432 25.2609 38.9334 25.2767 38.8393C25.3239 38.5414 25.198 38.1964 24.8674 38.118C24.5842 38.0553 24.1907 38.1964 24.1435 38.5257L24.2222 38.4787Z" fill="#231F20"/>
<path d="M35.0186 46.1611C37.4739 47.588 40.5587 47.8389 43.2342 46.8981C43.9897 46.6315 44.7294 46.2709 45.3905 45.8162C45.658 45.6437 45.7682 45.2988 45.5951 45.0165C45.4377 44.75 45.0599 44.6245 44.7924 44.8127C42.6991 46.2395 40.0235 46.6472 37.5998 45.9887C36.8915 45.8005 36.2462 45.5183 35.6167 45.1576C34.9871 44.797 34.3576 45.7848 35.0186 46.1768V46.1611Z" fill="#231F20"/>
<path d="M35.8688 23.5202C37.0492 24.3198 38.5916 24.5393 39.9608 24.2101C40.3543 24.116 40.7478 23.9592 41.1098 23.771C41.3773 23.6299 41.4875 23.2222 41.3144 22.9714C41.1412 22.6891 40.795 22.6107 40.5117 22.7675C40.4487 22.7989 40.3858 22.8302 40.3228 22.8616C40.2913 22.8616 40.2599 22.893 40.2284 22.9086C40.2284 22.9086 40.3386 22.8616 40.2913 22.8773C40.2756 22.8773 40.2441 22.893 40.2284 22.9086C40.0867 22.9714 39.9293 23.0184 39.772 23.0498C39.6146 23.0811 39.4729 23.1282 39.3313 23.1438C39.2998 23.1438 39.2526 23.1438 39.2211 23.1595C39.2211 23.1595 39.347 23.1438 39.2841 23.1595C39.2683 23.1595 39.2526 23.1595 39.2368 23.1595C39.1581 23.1595 39.0795 23.1595 39.0008 23.1752C38.8434 23.1752 38.7017 23.1752 38.5443 23.1752C38.4656 23.1752 38.387 23.1752 38.3083 23.1752C38.2768 23.1752 38.2296 23.1752 38.1981 23.1752C38.0564 23.1752 38.2925 23.1752 38.1981 23.1752C37.8991 23.1282 37.6 23.0654 37.3167 22.9557C37.2695 22.9557 37.238 22.9243 37.1908 22.9086C37.1751 22.9086 37.1593 22.9086 37.1436 22.893C37.0492 22.8616 37.238 22.94 37.1751 22.893C37.0964 22.8616 37.0177 22.8302 36.939 22.7832C36.7816 22.7048 36.6242 22.6107 36.4826 22.5166C36.2307 22.3442 35.8215 22.4539 35.6799 22.7205C35.5225 23.0184 35.6169 23.3477 35.8845 23.5202H35.8688Z" fill="#231F20"/>
<path d="M34.5154 33.4462C36.0421 32.9758 37.7891 32.3956 38.639 30.9374C39.3944 29.6517 39.3157 27.7701 37.9307 26.9391C37.1753 26.4843 36.1837 26.3903 35.3181 26.5157C34.4525 26.6411 33.7757 27.0488 33.1462 27.5819C32.5796 28.068 32.1074 28.6325 31.5565 29.1342C31.0529 29.6046 30.4548 29.9339 29.8253 30.2161C28.3616 30.8747 26.7405 31.3451 25.8434 32.7876C25.4499 33.4305 26.4729 34.0263 26.8664 33.3835C27.4802 32.3799 28.6921 31.9723 29.7308 31.5332C30.3447 31.2824 30.9427 31.0315 31.4936 30.6708C32.0444 30.3102 32.5166 29.8555 32.9888 29.3851C33.4609 28.9147 33.8701 28.4443 34.4053 28.0994C35.0191 27.7074 35.6958 27.5976 36.4041 27.676C36.9864 27.7544 37.5687 27.9739 37.8048 28.5227C37.9937 28.9461 37.9465 29.4792 37.7733 29.9496C37.2697 31.3921 35.4755 31.8939 34.1692 32.3015C33.4452 32.5211 33.76 33.6657 34.4839 33.4305L34.5154 33.4462Z" fill="#231F20"/>
<path d="M43.1087 31.9724C41.9598 32.0194 40.8581 31.2197 40.6692 30.0594C40.4804 28.8991 41.1729 27.8015 42.2903 27.4879C42.8097 27.3468 43.392 27.3468 43.8957 27.582C44.4937 27.8486 44.9502 28.3347 45.3908 28.8051C45.8945 29.3225 46.3981 29.8086 46.9962 30.2162C47.5943 30.6239 48.2395 30.9689 48.8691 31.3295C50.0967 32.0194 51.4345 32.8975 51.765 34.3557C51.9381 35.0927 53.0713 34.7791 52.8982 34.0421C52.5362 32.4741 51.2456 31.3765 49.9079 30.5769C49.1681 30.1378 48.3812 29.7458 47.6572 29.2598C46.9962 28.8207 46.4925 28.2563 45.9417 27.7075C45.3908 27.1587 44.7298 26.5942 43.9271 26.3747C43.2189 26.1708 42.4162 26.2022 41.7237 26.4688C40.2443 27.0332 39.2999 28.5385 39.4888 30.1222C39.6934 31.894 41.3145 33.2581 43.1087 33.1797C43.8642 33.1484 43.8642 31.9724 43.1087 32.0037V31.9724Z" fill="#231F20"/>
<path d="M36.9554 35.2642C35.2399 35.3897 33.4614 35.6562 31.982 36.597C30.6599 37.4124 29.6212 38.7452 29.5897 40.3445C29.574 41.0658 29.7786 41.8341 30.1878 42.4299C30.6914 43.1512 31.4311 43.5902 32.2496 43.8881C33.8392 44.484 35.6491 44.4526 37.2073 43.7784C38.7654 43.1041 39.993 41.693 40.2763 40.0466C40.3235 39.733 40.1976 39.4194 39.8671 39.3253C39.5838 39.2469 39.1903 39.4194 39.1431 39.733C38.9385 40.909 38.1988 41.8811 37.1758 42.4769C35.9954 43.1669 34.5474 43.2923 33.2411 42.963C32.6116 42.8062 31.919 42.5553 31.4469 42.1006C31.0534 41.7243 30.8173 41.2069 30.7701 40.7208C30.6599 39.5448 31.321 38.4943 32.2968 37.8044C33.6503 36.8479 35.3343 36.5813 36.9397 36.4559C37.2545 36.4245 37.5378 36.205 37.5378 35.8601C37.5378 35.5622 37.2702 35.2486 36.9397 35.2642H36.9554Z" fill="#231F20"/>
<path d="M57.7454 30.0279C58.3435 32.0976 58.8944 34.2457 58.9573 36.4096C59.0203 38.2598 58.6583 40.2041 57.3048 41.5839C56.6437 42.2424 55.8411 42.6815 54.9125 42.8069C54.5977 42.854 54.4246 43.246 54.5033 43.5282C54.5977 43.8731 54.9125 43.9829 55.2272 43.9359C57.1159 43.685 58.674 42.2111 59.4295 40.5177C60.3738 38.3695 60.2322 35.9705 59.8387 33.697C59.6026 32.3485 59.2721 31.0157 58.8786 29.6986C58.674 28.9773 57.5251 29.2752 57.7454 30.0122V30.0279Z" fill="#231F20"/>
<path d="M53.8738 38.7913C53.8738 38.8854 53.9053 38.9638 53.9053 39.0579C53.9368 39.2303 53.9053 38.9795 53.9053 39.0892C53.9053 39.1363 53.9053 39.1833 53.9211 39.2303C53.9368 39.4185 53.9683 39.591 53.984 39.7791C54.0155 40.1398 54.047 40.5161 54.0312 40.8767C54.0312 41.0492 54.0312 41.2217 54.0155 41.3941C54.0155 41.4725 54.0155 41.5509 53.9998 41.6293C53.984 41.8018 54.0155 41.5039 53.9998 41.6764C53.9998 41.7234 53.984 41.7861 53.9683 41.8332C53.9368 41.99 53.9053 42.1468 53.8581 42.2879C53.8266 42.3663 53.8109 42.4604 53.7794 42.5388C53.7794 42.5858 53.7479 42.6172 53.7322 42.6642C53.7165 42.6956 53.7322 42.6956 53.7322 42.6485C53.7322 42.6799 53.7007 42.7113 53.685 42.7426C53.622 42.8837 53.5433 43.0248 53.4646 43.1503C53.4332 43.1816 53.4174 43.2287 53.3859 43.26C53.3859 43.2757 53.3073 43.3698 53.3702 43.2914C53.3073 43.3698 53.2443 43.4482 53.1656 43.5266C53.0397 43.652 52.9138 43.7775 52.7564 43.8872C52.8351 43.8245 52.7407 43.8872 52.7092 43.9186C52.6777 43.95 52.6305 43.9813 52.5833 43.997C52.5046 44.044 52.4259 44.1068 52.3315 44.1538C52.1583 44.2479 52.0009 44.342 51.8278 44.4204C51.7334 44.4674 51.6547 44.4988 51.5603 44.5458C51.5288 44.5615 51.4973 44.5772 51.4501 44.5928C51.3399 44.6399 51.4816 44.5928 51.3714 44.6242C50.9779 44.781 50.5845 44.9221 50.191 45.0319C49.9706 45.0946 49.7503 45.1416 49.5142 45.173C49.3254 45.2043 49.5772 45.173 49.4513 45.173C49.3726 45.173 49.3096 45.1887 49.2309 45.1887C49.1365 45.1887 49.0263 45.1887 48.9319 45.2043C48.7115 45.2043 48.4755 45.2043 48.2551 45.173C48.3653 45.1887 48.1764 45.1573 48.1764 45.1573C48.1135 45.1573 48.0505 45.1259 48.0033 45.1259C47.8774 45.0946 47.7672 45.0632 47.6413 45.0319C47.3423 44.9378 46.9803 45.1416 46.9173 45.4395C46.8386 45.7688 47.0118 46.0511 47.3265 46.1608C49.0893 46.741 51.0881 46.1451 52.662 45.2984C53.4332 44.8907 54.1257 44.3263 54.5506 43.558C54.9441 42.8367 55.1172 42.037 55.1644 41.2217C55.2116 40.2966 55.0857 39.3871 54.9598 38.4777C54.9126 38.1798 54.5034 37.976 54.2358 38.07C53.9053 38.1798 53.7794 38.462 53.8266 38.7913H53.8738Z" fill="#231F20"/>
<path d="M42.4946 36.4398C43.9269 36.5496 45.422 36.7691 46.6811 37.4904C47.2163 37.7883 47.7199 38.2116 48.0662 38.682C48.1606 38.8075 48.2393 38.9329 48.318 39.0583C48.3809 39.1681 48.4754 39.3563 48.4911 39.419C48.5383 39.5601 48.5855 39.7012 48.617 39.8423C48.6642 40.0305 48.6642 40.0932 48.68 40.25C48.7114 40.8302 48.5855 41.3319 48.255 41.818C48.1134 42.0062 47.8615 42.2413 47.6255 42.3981C47.3422 42.5706 47.0431 42.7117 46.7284 42.8215C45.4535 43.2605 43.9741 43.3076 42.7307 42.7431C41.4874 42.1786 40.5273 41.0967 40.307 39.7483C40.2597 39.4347 39.8663 39.2622 39.583 39.3406C39.2525 39.4347 39.1108 39.7483 39.1738 40.0619C39.4256 41.5358 40.4486 42.8215 41.7392 43.5585C43.2029 44.3895 45.0286 44.5306 46.6339 44.0916C47.4366 43.872 48.255 43.5114 48.8688 42.9313C49.4354 42.3825 49.7502 41.6455 49.8446 40.8615C50.0335 39.2935 49.1679 37.8667 47.956 36.9416C46.3978 35.7499 44.4148 35.4363 42.5104 35.2795C42.1956 35.2482 41.9123 35.5618 41.9123 35.8753C41.9123 36.2203 42.1799 36.4398 42.5104 36.4712L42.4946 36.4398Z" fill="#231F20"/>
</svg>
