<svg width="80" height="76" viewBox="0 0 80 76" fill="none" xmlns="http://www.w3.org/2000/svg">
<path d="M29.6831 48.0034C29.51 48.8501 29.0851 49.3205 28.8018 50.2299C28.4713 51.2962 29.211 52.4251 28.5814 53.4443C27.8889 54.5732 27.8732 56.5646 28.3926 57.7719C29.0064 59.1831 30.9422 59.7005 32.4059 59.8103C32.9725 59.8573 33.6493 59.7632 33.9011 59.2615C34.6094 60.1396 36.2777 60.218 37.2692 60.0455C38.4968 59.826 39.6772 59.3085 40.9363 59.2458C41.2354 59.2458 41.5344 59.2458 41.7862 59.3869C41.9908 59.4967 42.1482 59.6692 42.3214 59.8103C43.848 60.9706 45.1386 60.2964 46.7125 59.92C48.2863 59.5437 49.9074 60.0612 51.4183 59.2145C52.4256 58.6657 53.1181 57.5994 53.2283 56.4548C53.3385 55.3102 52.8663 54.1499 51.9849 53.4129C52.8348 52.8798 53.1181 51.7665 53.0394 50.7787C52.9607 49.885 52.8663 48.9912 52.4256 48.1916C52.3154 47.9877 52.1895 47.7996 52.1108 47.58C52.0164 47.2508 52.0794 46.8901 52.1108 46.5295C52.1895 45.3692 51.7331 44.2089 50.9934 43.3151C49.1205 40.9945 45.9413 41.0416 43.187 40.6652C40.1494 40.2576 36.9072 40.1321 34.0585 41.4336C31.7134 42.4998 29.7776 44.742 29.7146 47.3135C29.7146 47.58 29.6831 47.7996 29.6359 48.0034H29.6831Z" fill="#EEC688"/>
<path d="M46.6652 51.4844C48.0188 51.3276 49.388 50.9826 50.5684 50.277C51.7488 49.5714 52.6932 48.3798 52.6302 46.9216C52.5673 45.7769 52.0321 44.7264 51.4813 43.7386C51.3396 43.472 50.9304 43.3622 50.6786 43.5347C50.4268 43.7072 50.3009 44.0521 50.474 44.3344C50.5842 44.5382 50.6943 44.7264 50.8045 44.9302C50.8675 45.04 50.9147 45.1497 50.9776 45.2595C50.9934 45.2909 51.0091 45.3379 51.0249 45.3693C51.0406 45.4006 51.0563 45.4477 51.0721 45.479C51.1036 45.5417 51.1036 45.5574 51.0721 45.5104C51.1665 45.7142 51.2452 45.9337 51.3082 46.1532C51.3396 46.2473 51.3711 46.3571 51.3868 46.4512C51.3868 46.5139 51.4183 46.5766 51.4183 46.6393C51.4183 46.6707 51.4183 46.702 51.4341 46.7491C51.4341 46.8118 51.4341 46.8118 51.4341 46.7177C51.4813 46.8432 51.4655 47.047 51.4498 47.1724C51.4498 47.2351 51.4498 47.2979 51.4498 47.3763C51.4813 47.2351 51.4498 47.5174 51.4498 47.3763C51.4498 47.4076 51.4498 47.4547 51.4341 47.486C51.4026 47.6271 51.3711 47.7526 51.3239 47.878C51.2924 47.9564 51.2609 47.9407 51.3239 47.878C51.3082 47.8937 51.2924 47.9564 51.2767 47.9721C51.2452 48.0348 51.2137 48.0975 51.1665 48.1603C51.135 48.223 51.1036 48.27 51.0563 48.3327C51.0406 48.3641 51.0249 48.3798 51.0091 48.4111C51.1036 48.3014 50.9304 48.5209 51.0091 48.4111C50.9147 48.5209 50.8203 48.6306 50.7101 48.7404C50.6629 48.7874 50.6157 48.8345 50.5684 48.8658C50.5212 48.8972 50.4425 48.9913 50.3953 49.007C50.3953 49.007 50.5055 48.9286 50.4268 48.9913C50.3953 49.007 50.3638 49.0383 50.3324 49.054C50.2694 49.101 50.2064 49.1481 50.1435 49.1794C49.8759 49.3519 49.6084 49.493 49.3251 49.6185C49.2936 49.6342 49.2464 49.6498 49.2149 49.6655C49.3093 49.6342 49.089 49.7282 49.2149 49.6655C49.1362 49.6969 49.0733 49.7282 49.0103 49.7439C48.8529 49.8066 48.6955 49.8537 48.5381 49.9007C48.2234 50.0105 47.8928 50.0889 47.5623 50.1516C47.4049 50.1829 47.2318 50.2143 47.0587 50.2457C46.98 50.2457 46.917 50.2613 46.8384 50.277C46.98 50.2613 46.7124 50.2927 46.8384 50.277C46.7911 50.277 46.7439 50.277 46.6967 50.2927C46.3977 50.3241 46.0986 50.5436 46.0986 50.8885C46.0986 51.1708 46.3662 51.5157 46.6967 51.4844H46.6652Z" fill="#231F20"/>
<path d="M30.3442 44.1931C29.2582 45.2907 28.6759 46.8743 29.148 48.3953C29.6202 49.9162 30.9265 50.9197 32.4217 51.2647C33.6336 51.5469 34.8769 51.5312 36.1203 51.5156C36.4351 51.5156 36.7184 51.249 36.7184 50.9197C36.7184 50.5904 36.4665 50.3239 36.1203 50.3239C35.6166 50.3239 35.113 50.3239 34.5936 50.3239C34.3575 50.3239 34.1057 50.3082 33.8696 50.2768C33.7437 50.2768 33.6336 50.2612 33.5077 50.2455C33.5077 50.2455 33.3031 50.2141 33.429 50.2455C33.3503 50.2455 33.2716 50.2141 33.1929 50.2141C32.7994 50.1514 32.4217 50.0573 32.044 49.9162C32.1541 49.9789 31.9023 49.8692 32.044 49.9162C32.0125 49.9005 31.9653 49.8849 31.9338 49.8692C31.8551 49.8378 31.7921 49.7908 31.7134 49.7594C31.5718 49.681 31.4301 49.5869 31.2885 49.4772C31.3829 49.5556 31.1783 49.3988 31.2885 49.4772C31.257 49.4458 31.2255 49.4301 31.1941 49.3988C31.1311 49.3517 31.0839 49.3047 31.0209 49.242C30.958 49.1793 30.9108 49.1322 30.8635 49.0852C30.8321 49.0538 30.8163 49.0225 30.7849 49.0068C30.7691 48.9911 30.7534 48.9754 30.7376 48.9441C30.7062 48.897 30.7062 48.9127 30.7691 48.9754C30.7691 48.9284 30.6904 48.8657 30.6589 48.8343C30.6117 48.7716 30.5802 48.7089 30.5488 48.6461C30.5173 48.5834 30.4701 48.5207 30.4386 48.458C30.4229 48.4266 30.4071 48.3953 30.3914 48.3639C30.3284 48.2071 30.4229 48.4423 30.3914 48.3326C30.3442 48.1914 30.297 48.066 30.2497 47.9249C30.234 47.8622 30.2183 47.7838 30.2025 47.721C30.2025 47.6897 30.2025 47.6426 30.1868 47.6113C30.171 47.5015 30.1868 47.7524 30.1868 47.5956C30.1868 47.4545 30.171 47.3134 30.1868 47.1566C30.1868 47.0938 30.1868 47.0311 30.1868 46.9684C30.1868 46.9371 30.1868 46.89 30.1868 46.8586C30.1868 47.0311 30.1868 46.89 30.1868 46.8273C30.2183 46.6548 30.2655 46.4823 30.3284 46.3099C30.3284 46.2785 30.3599 46.2315 30.3756 46.2001C30.3756 46.1687 30.3914 46.1531 30.4071 46.1217C30.3756 46.2001 30.3756 46.2158 30.4071 46.1531C30.4543 46.0747 30.4858 45.9806 30.533 45.9022C30.6275 45.7297 30.7376 45.5729 30.8478 45.4004C30.9265 45.275 30.7691 45.4945 30.8478 45.3847C30.8793 45.3377 30.9265 45.2907 30.958 45.2436C31.0209 45.1652 31.0996 45.0868 31.1783 45.0084C31.3987 44.7889 31.4144 44.3969 31.1783 44.1774C30.9422 43.9579 30.5803 43.9422 30.3442 44.1774V44.1931Z" fill="#231F20"/>
<path d="M28.9435 48.7405C28.2983 49.4147 27.9205 50.3398 27.9363 51.265C27.952 52.1901 28.3297 53.0681 28.9908 53.711C29.3685 54.0873 29.8092 54.3539 30.2971 54.542C30.5804 54.6518 30.9581 54.4166 31.0211 54.1344C31.0997 53.8051 30.9109 53.5228 30.6119 53.4131C30.5961 53.4131 30.5646 53.3974 30.5489 53.3817C30.5489 53.3817 30.6591 53.4288 30.6119 53.4131C30.5804 53.3974 30.5332 53.3817 30.5017 53.366C30.423 53.319 30.3286 53.272 30.2499 53.2249C30.1869 53.1779 30.1082 53.1308 30.0453 53.0838C29.9666 53.0211 30.0767 53.0995 30.0767 53.1152C30.0767 53.1152 30.0295 53.0838 30.0295 53.0681C29.998 53.0368 29.9508 53.0054 29.9193 52.9741C29.8564 52.9113 29.7934 52.8643 29.7462 52.8016C29.7147 52.7702 29.6833 52.7389 29.6518 52.6918C29.6518 52.6918 29.636 52.6605 29.6203 52.6448C29.5574 52.5664 29.6203 52.6291 29.636 52.6605C29.6203 52.5977 29.5259 52.5193 29.4944 52.4566C29.4472 52.3782 29.4 52.2998 29.3527 52.2057C29.337 52.1744 29.3213 52.1273 29.3055 52.096C29.337 52.1901 29.2426 51.9705 29.3055 52.096C29.2741 52.0019 29.2426 51.9235 29.2111 51.8294C29.1954 51.751 29.1639 51.6726 29.1481 51.5785C29.1481 51.5785 29.1481 51.5158 29.1481 51.5001C29.1481 51.5001 29.1639 51.6569 29.1481 51.5472C29.1481 51.5001 29.1481 51.4531 29.1481 51.4061C29.1481 51.3277 29.1481 51.2336 29.1481 51.1395C29.1481 51.0454 29.1796 50.9357 29.1639 50.8416C29.1639 50.8416 29.1481 50.9827 29.1639 50.8886C29.1639 50.873 29.1639 50.8573 29.1639 50.8416C29.1639 50.7946 29.1796 50.7632 29.1954 50.7162C29.2111 50.6221 29.2426 50.528 29.2741 50.4339C29.2741 50.3869 29.3055 50.3398 29.3213 50.2928C29.3213 50.2928 29.3527 50.2458 29.3527 50.2301C29.3527 50.2771 29.3055 50.3398 29.3527 50.2458C29.4 50.1517 29.4472 50.0576 29.4944 49.9635C29.5416 49.8851 29.6046 49.8067 29.6675 49.7127C29.6046 49.8224 29.6203 49.7754 29.636 49.744C29.6518 49.7283 29.6833 49.697 29.699 49.6656C29.7305 49.6186 29.7777 49.5872 29.8092 49.5402C30.0295 49.3207 30.0453 48.9287 29.8092 48.7091C29.5731 48.4896 29.2111 48.4739 28.975 48.7091L28.9435 48.7405Z" fill="#231F20"/>
<path d="M52.0636 48.7249C52.1423 48.8346 52.2052 48.9287 52.2682 49.0542C52.2997 49.1012 52.3311 49.1482 52.3469 49.211C52.3626 49.2737 52.3941 49.3678 52.4413 49.3991C52.3941 49.3521 52.4098 49.3207 52.4413 49.3834C52.4413 49.4148 52.457 49.4305 52.4728 49.4618C52.4885 49.5246 52.52 49.5873 52.5357 49.65C52.583 49.7754 52.6144 49.9165 52.6302 50.042C52.6302 50.0733 52.6302 50.1047 52.6302 50.1204C52.6459 50.2301 52.6302 50.1204 52.6302 50.089C52.6302 50.1517 52.6302 50.2301 52.6459 50.2772C52.6459 50.4026 52.6459 50.5281 52.6459 50.6692C52.6459 50.7319 52.6459 50.7946 52.6459 50.8573C52.6459 50.8887 52.6459 50.9201 52.6459 50.9357C52.6459 51.0455 52.6459 50.9357 52.6459 50.9044C52.5987 51.0298 52.5987 51.1709 52.5672 51.2964C52.5357 51.4061 52.5043 51.5316 52.4571 51.6413C52.4571 51.657 52.4413 51.704 52.4256 51.7197C52.4885 51.61 52.4413 51.6727 52.4256 51.704C52.3941 51.7668 52.3626 51.8295 52.3311 51.8922C52.2682 52.002 52.2052 52.1117 52.1423 52.2058C52.1265 52.2215 52.1108 52.2528 52.0951 52.2685C52.0636 52.3156 52.0321 52.3156 52.1108 52.2528C52.0636 52.2999 52.0164 52.3626 51.9691 52.4096C51.8905 52.5037 51.8118 52.5821 51.7173 52.6605C51.6701 52.7076 51.6229 52.7389 51.5757 52.786C51.5599 52.786 51.5127 52.8173 51.5127 52.833C51.5757 52.786 51.5914 52.786 51.5442 52.8016C51.5285 52.8016 51.5127 52.833 51.497 52.833C51.2924 52.9741 51.0878 53.0995 50.8674 53.1936C50.836 53.2093 50.7573 53.2563 50.8674 53.1936C50.836 53.2093 50.8045 53.225 50.773 53.225C50.7101 53.2563 50.6471 53.272 50.5684 53.2877C50.4425 53.3347 50.3008 53.3661 50.1592 53.3975C50.1277 53.3975 50.0962 53.3975 50.049 53.4131C50.1435 53.4131 49.9389 53.4288 50.049 53.4131C49.9861 53.4131 49.9074 53.4131 49.8444 53.4288C49.7028 53.4288 49.5454 53.4288 49.4037 53.4288C49.089 53.4131 48.8057 53.7111 48.8057 54.0247C48.8057 54.3539 49.0575 54.5891 49.4037 54.6205C50.5999 54.6989 51.8275 54.2128 52.6459 53.3504C53.4643 52.488 53.905 51.2493 53.7634 50.042C53.6847 49.3364 53.4486 48.6622 53.0236 48.082C52.8348 47.8311 52.5043 47.69 52.221 47.8782C51.9691 48.035 51.8118 48.4113 52.0164 48.6778L52.0636 48.7249Z" fill="#231F20"/>
<path d="M35.05 54.824C38.7486 56.3763 43.0453 56.2195 46.6652 54.5418C46.9485 54.4007 47.0272 53.993 46.8698 53.7421C46.6967 53.4442 46.3504 53.3971 46.0671 53.5383C42.7148 55.1062 38.7643 55.1219 35.349 53.7107C35.05 53.5853 34.7037 53.8362 34.6251 54.1184C34.5306 54.4634 34.7352 54.7142 35.0343 54.8397L35.05 54.824Z" fill="#231F20"/>
<path d="M32.2799 55.2005C32.4531 56.3137 32.6734 57.4113 32.941 58.4932C33.0826 59.042 33.2557 59.5751 33.6177 60.0142C33.9168 60.3748 34.326 60.61 34.7667 60.7668C35.5536 61.049 36.4664 61.0334 37.2849 60.9393C37.7728 60.8923 38.2764 60.7825 38.6541 60.4375C38.843 60.2651 39.0004 60.0142 39.0476 59.7633C39.1106 59.434 39.0476 59.1204 38.9374 58.7912C38.843 58.5089 38.7643 58.2267 38.7013 57.9288C38.7013 57.8504 38.6699 57.772 38.6541 57.7093C38.6541 57.6779 38.6541 57.6465 38.6384 57.6152C38.6384 57.5681 38.6384 57.5525 38.6384 57.6152C38.6227 57.4584 38.6069 57.3173 38.5912 57.1605C38.5754 56.8782 38.5754 56.5803 38.5912 56.2981C38.5912 56.2197 38.5912 56.1413 38.6069 56.0629C38.6069 56.0315 38.6069 56.0002 38.6069 55.9688C38.6069 55.9374 38.6227 55.8277 38.6069 55.9531C38.6227 55.7963 38.6541 55.6552 38.6856 55.4984C38.7486 55.2005 38.5912 54.8555 38.2764 54.7771C37.9774 54.7144 37.6154 54.8712 37.5524 55.1848C37.3321 56.2354 37.3321 57.3016 37.5524 58.3364C37.5996 58.5716 37.6626 58.8225 37.7413 59.0577C37.7728 59.1675 37.82 59.2929 37.8515 59.4027C37.8515 59.434 37.8515 59.4497 37.8515 59.4811C37.8515 59.4497 37.8357 59.3713 37.8515 59.4811C37.8515 59.5124 37.8515 59.5281 37.8515 59.5595C37.8515 59.6379 37.8515 59.4654 37.8515 59.5751C37.8515 59.5908 37.82 59.6535 37.8515 59.5751C37.8515 59.5751 37.82 59.6065 37.82 59.6222C37.82 59.5595 37.8987 59.5281 37.8515 59.5751C37.8357 59.5908 37.7255 59.6849 37.8042 59.6222C37.8829 59.5595 37.757 59.6535 37.7413 59.6535C37.7413 59.6535 37.7098 59.6692 37.6941 59.6849C37.5996 59.7319 37.7255 59.6692 37.7413 59.6692C37.7255 59.6692 37.6311 59.7006 37.6154 59.7163C37.5209 59.7476 37.4265 59.7633 37.3478 59.779C37.3321 59.779 37.3163 59.779 37.2849 59.779C37.2062 59.779 37.4108 59.779 37.3321 59.779C37.2849 59.779 37.2534 59.779 37.2062 59.779C37.1117 59.779 37.0173 59.779 36.9229 59.7947C36.734 59.7947 36.5294 59.8103 36.3405 59.8103C36.1517 59.8103 35.9471 59.8103 35.7582 59.779C35.711 59.779 35.6638 59.779 35.6166 59.779C35.6166 59.779 35.7425 59.7947 35.6795 59.779C35.6638 59.779 35.648 59.779 35.6166 59.779C35.5064 59.7633 35.412 59.7476 35.3175 59.7163C35.2388 59.7006 35.1444 59.6692 35.0657 59.6379C35.0342 59.6379 35.0027 59.6065 34.9555 59.5908C35.1129 59.6379 34.9555 59.5908 34.924 59.5751C34.8454 59.5438 34.7667 59.4968 34.7037 59.4497L34.6408 59.4027C34.6408 59.4027 34.7352 59.4811 34.688 59.434C34.6407 59.4027 34.6093 59.3556 34.5621 59.3243C34.5306 59.2929 34.5148 59.2772 34.4834 59.2459L34.4361 59.1832C34.4361 59.1832 34.4991 59.2772 34.4676 59.2302C34.4047 59.1361 34.3417 59.0264 34.2788 58.9166C34.2788 58.8852 34.2473 58.8539 34.2315 58.8225C34.2315 58.8225 34.263 58.9166 34.2315 58.8539C34.2158 58.8068 34.2001 58.7441 34.1686 58.6971C34.1371 58.5873 34.1056 58.4619 34.0742 58.3521C33.7751 57.2075 33.539 56.0472 33.3659 54.8869C33.3187 54.589 32.9252 54.3851 32.6419 54.4792C32.3114 54.589 32.1855 54.8712 32.2327 55.2005H32.2799Z" fill="#231F20"/>
<path d="M28.2194 53.0839C27.2594 54.2129 27.039 55.8436 27.5584 57.2234C28.0778 58.6032 29.3212 59.6695 30.7849 60.1242C31.5718 60.3751 32.4217 60.4535 33.2558 60.3594C33.5549 60.328 33.8539 60.1085 33.8539 59.7635C33.8539 59.4813 33.5863 59.1364 33.2558 59.1677C32.9253 59.1991 32.5948 59.2147 32.2643 59.1991C32.1856 59.1991 32.1226 59.1991 32.044 59.1834C31.9967 59.1834 31.9653 59.1834 31.918 59.1834C31.7449 59.152 31.5718 59.1207 31.3987 59.0893C31.2413 59.0579 31.0996 59.0109 30.9422 58.9639C30.8635 58.9325 30.8006 58.9168 30.7219 58.8855C30.6904 58.8855 30.6589 58.8698 30.6275 58.8541C30.7534 58.9012 30.6275 58.8541 30.596 58.8384C30.297 58.6973 30.0137 58.5248 29.7461 58.3367C29.7304 58.321 29.6674 58.2583 29.7461 58.3367C29.7146 58.3053 29.6831 58.2896 29.6517 58.2583C29.6045 58.2112 29.5415 58.1642 29.4943 58.1172C29.3684 58.0074 29.2425 57.882 29.1323 57.7409C29.1323 57.7409 29.0379 57.6154 29.0851 57.6938C29.1323 57.7722 29.0536 57.6468 29.0536 57.6468C29.0064 57.584 28.9749 57.5213 28.9277 57.4586C28.849 57.3332 28.7703 57.2077 28.7073 57.0666C28.6916 57.0196 28.6601 56.9882 28.6444 56.9412C28.6444 56.9569 28.6916 57.0509 28.6444 56.9569C28.6129 56.8941 28.5972 56.8157 28.5657 56.753C28.5185 56.5962 28.4713 56.4394 28.4398 56.2826C28.4398 56.2513 28.4398 56.2199 28.424 56.1885C28.424 56.1885 28.3926 56.0318 28.424 56.1415C28.4555 56.2513 28.424 56.0945 28.424 56.0788C28.424 56.0474 28.424 56.0161 28.424 55.9847C28.424 55.8279 28.424 55.6554 28.424 55.4986C28.424 55.4202 28.424 55.3105 28.4398 55.2321C28.4398 55.2321 28.424 55.3732 28.4398 55.2634C28.4398 55.2164 28.4398 55.1694 28.4555 55.138C28.487 54.9655 28.5342 54.793 28.5972 54.6362C28.5972 54.6049 28.6129 54.5892 28.6286 54.5578C28.6759 54.4481 28.5814 54.6519 28.6444 54.5108C28.6759 54.4324 28.7231 54.3697 28.7546 54.2913C28.8018 54.2129 28.849 54.1345 28.8962 54.0718C28.9119 54.0404 28.9277 54.0247 28.9434 53.9934C28.849 54.1188 28.9749 53.962 28.9906 53.9463C29.1952 53.7111 29.2425 53.3348 28.9906 53.1153C28.7703 52.9115 28.3768 52.8644 28.1565 53.1153L28.2194 53.0839Z" fill="#231F20"/>
<path d="M47.6883 54.8867C47.5309 55.9215 47.3263 56.9564 47.0745 57.9756C47.0115 58.2108 46.9643 58.446 46.8856 58.6812C46.8699 58.7282 46.8541 58.7909 46.8226 58.838C46.8226 58.838 46.7912 58.9321 46.8226 58.8537C46.8541 58.7753 46.8226 58.885 46.8069 58.9007C46.7597 59.0105 46.6967 59.1045 46.618 59.2143C46.6967 59.1202 46.5551 59.3084 46.618 59.2143C46.5866 59.2457 46.5551 59.277 46.5236 59.3084C46.4921 59.3397 46.4607 59.3711 46.4292 59.4025C46.3347 59.4965 46.5236 59.3554 46.3977 59.4181C46.319 59.4652 46.256 59.5122 46.1774 59.5436C46.1616 59.5436 46.0672 59.5906 46.0672 59.6063C46.0672 59.6063 46.1774 59.5592 46.1144 59.5906C46.0829 59.5906 46.0514 59.6063 46.02 59.622C45.8468 59.6847 45.658 59.7317 45.4849 59.7631C45.4376 59.7631 45.296 59.7631 45.4691 59.7631C45.4219 59.7631 45.3747 59.7631 45.3275 59.7631C45.233 59.7631 45.1229 59.7631 45.0284 59.7788C44.6507 59.7788 44.2572 59.7788 43.8795 59.7474C43.848 59.7474 43.8008 59.7474 43.7693 59.7474C43.6592 59.7474 43.8008 59.7474 43.8165 59.7474C43.8165 59.7474 43.7536 59.7474 43.7379 59.7474C43.6434 59.7474 43.5647 59.716 43.486 59.6847C43.4703 59.6847 43.3601 59.6377 43.3444 59.6377C43.3444 59.6377 43.4546 59.7004 43.4073 59.669C43.4073 59.669 43.3759 59.669 43.3601 59.6533C43.3286 59.6376 43.2972 59.6063 43.25 59.5906C43.187 59.5592 43.3286 59.669 43.2814 59.622C43.2814 59.6063 43.2342 59.5749 43.2185 59.5593C43.2657 59.6533 43.1555 59.4965 43.2185 59.5593L43.187 59.4965C43.187 59.4965 43.2185 59.6063 43.2185 59.5593C43.2185 59.5436 43.187 59.4495 43.2027 59.5279C43.2027 59.5906 43.2027 59.5279 43.2027 59.5122C43.2027 59.4809 43.2027 59.4495 43.2027 59.4181C43.2027 59.4809 43.2027 59.4652 43.2027 59.4181C43.2657 59.1673 43.3444 58.9477 43.4231 58.6969C43.7379 57.5522 43.7536 56.3292 43.5175 55.1689C43.4546 54.871 43.0768 54.6672 42.7935 54.7612C42.4788 54.871 42.3214 55.1689 42.3843 55.4825C42.4158 55.6079 42.4315 55.7334 42.4473 55.8588C42.4473 55.8745 42.463 55.9843 42.4473 55.9059C42.4473 55.8275 42.4473 55.9059 42.4473 55.9215C42.4473 55.9999 42.463 56.0783 42.463 56.1567C42.4788 56.4233 42.4945 56.6899 42.4788 56.9564C42.4788 57.0818 42.4788 57.2073 42.463 57.3327C42.463 57.3954 42.463 57.4582 42.4473 57.5052C42.4473 57.5366 42.4473 57.5679 42.4473 57.5993C42.4473 57.5209 42.4473 57.5679 42.4473 57.615C42.4001 57.8815 42.3528 58.1324 42.2742 58.3833C42.1168 58.9634 41.8492 59.5749 42.1955 60.1394C42.463 60.5628 42.9352 60.7823 43.4073 60.8607C43.8323 60.9391 44.273 60.9548 44.7137 60.9548C45.1543 60.9548 45.6265 60.9234 46.0514 60.8136C46.4764 60.7039 46.9171 60.5 47.2791 60.1864C47.6725 59.8415 47.9086 59.3397 48.0503 58.838C48.3965 57.6463 48.6326 56.3919 48.8215 55.1689C48.8687 54.871 48.7428 54.526 48.4123 54.4476C48.129 54.3849 47.7355 54.526 47.6883 54.8553V54.8867Z" fill="#231F20"/>
<path d="M52.048 53.9148C52.048 53.9148 52.1109 53.9775 52.1267 54.0245C52.1739 54.0873 52.2054 54.15 52.2526 54.2127C52.2998 54.2754 52.3313 54.3381 52.3628 54.4009C52.3628 54.4322 52.3942 54.4479 52.3942 54.4793C52.3942 54.5106 52.4257 54.5263 52.4257 54.5577C52.3942 54.4793 52.3942 54.4793 52.4257 54.542C52.4729 54.6674 52.5202 54.7929 52.5516 54.9183C52.5674 54.9967 52.5831 55.0594 52.5988 55.1378C52.5988 55.1849 52.5988 55.2319 52.6146 55.2633C52.6303 55.3887 52.6146 55.1535 52.6146 55.2789C52.6461 55.5612 52.6775 55.8904 52.6146 56.1727C52.6461 56.0159 52.6146 56.2354 52.5988 56.2824C52.5988 56.3608 52.5674 56.4236 52.5516 56.502C52.5044 56.6588 52.4572 56.8156 52.3942 56.9723C52.3942 57.0037 52.3628 57.0821 52.3942 56.9567C52.3942 56.988 52.3628 57.0194 52.347 57.0664C52.3155 57.1291 52.2841 57.1919 52.2526 57.2546C52.1739 57.3957 52.0952 57.5368 51.985 57.6779C51.985 57.6779 51.8906 57.8034 51.9536 57.725C52.0165 57.6466 51.9221 57.772 51.9063 57.772C51.8591 57.8347 51.7962 57.8975 51.7489 57.9445C51.6388 58.0543 51.5286 58.164 51.4027 58.2738C51.3712 58.3051 51.324 58.3365 51.2925 58.3679C51.387 58.3051 51.3083 58.3679 51.2925 58.3679C51.2296 58.4149 51.1666 58.4619 51.1037 58.509C50.962 58.603 50.8046 58.6971 50.663 58.7755C50.6 58.8069 50.5371 58.8382 50.4741 58.8696C50.4426 58.8853 50.3954 58.901 50.3639 58.9166C50.4741 58.8696 50.3954 58.9166 50.3639 58.9166C50.2066 58.9794 50.0334 59.0421 49.876 59.0891C49.7187 59.1362 49.5455 59.1832 49.3724 59.2146C49.3252 59.2146 49.278 59.2302 49.2308 59.2459C49.215 59.2459 49.0419 59.2773 49.1993 59.2459C49.1048 59.2459 49.0104 59.2616 48.916 59.2773C48.554 59.3086 48.192 59.293 47.83 59.2616C47.5152 59.2302 47.2319 59.5595 47.2319 59.8574C47.2319 60.2024 47.4995 60.4062 47.83 60.4533C49.3409 60.6257 50.8991 60.2181 52.0952 59.2773C53.2913 58.3365 53.8894 56.941 53.7792 55.4985C53.7163 54.6361 53.4173 53.8521 52.8507 53.1935C52.6461 52.9583 52.2211 52.974 52.0165 53.1935C51.7804 53.4444 51.7962 53.7737 52.0165 54.0245L52.048 53.9148Z" fill="#231F20"/>
<path d="M39.3468 60.077C39.5672 60.1397 39.7875 60.1711 40.0079 60.2024C40.181 60.2181 40.3699 60.2181 40.543 60.2024C40.7633 60.2024 40.9837 60.1554 41.204 60.1084C41.4244 60.0613 41.629 59.9672 41.8336 59.8732C41.9595 59.8104 42.0696 59.6536 42.1011 59.5282C42.1326 59.3871 42.1169 59.1989 42.0382 59.0735C41.9595 58.948 41.8336 58.8383 41.6919 58.8069H41.5345C41.4244 58.7912 41.3299 58.8069 41.2355 58.8696C41.2198 58.8696 41.1883 58.8853 41.1725 58.901L41.3142 58.8383C41.0781 58.9324 40.8263 59.0108 40.5745 59.0421H40.7319C40.4643 59.0421 40.1967 59.0421 39.9292 59.0264H40.0866C39.9449 59.0264 39.8033 58.9951 39.6459 58.948C39.4885 58.901 39.3154 58.9324 39.1895 59.0108C39.0636 59.0892 38.9534 59.2146 38.9219 59.3557C38.8904 59.5125 38.8904 59.6693 38.9849 59.8104C39.0793 59.9516 39.1895 60.03 39.3311 60.077H39.3468Z" fill="#231F20"/>
<path d="M50.3486 19.3099C45.8001 17.9771 41.1887 18.573 36.5615 18.6514C33.2406 18.6984 28.8967 18.8082 26.2998 21.1758C25.5444 21.8657 25.025 22.7595 24.5686 23.6532C22.5226 27.6045 21.2792 31.9635 20.9487 36.4009C20.8385 37.8591 20.8385 39.3487 21.3421 40.7285C21.8458 42.1083 22.9475 43.3157 24.3797 43.6136C24.7417 43.692 25.1037 43.7077 25.4342 43.8645C25.7805 44.037 26.0323 44.3662 26.3156 44.6485C27.4488 45.8244 28.8495 46.1851 30.4234 46.2948C31.9973 46.4046 33.3193 45.7931 34.846 45.7461C35.1922 45.7461 35.507 45.8558 35.8375 45.9656C37.5373 46.5614 39.2686 47.0632 41.0628 47.1729C43.581 47.3297 46.0362 46.3889 48.5859 46.3105C50.7893 46.2478 53.4806 46.1224 54.9443 44.2094C55.0703 44.037 55.1962 43.8645 55.3536 43.739C55.6054 43.5509 55.9516 43.5038 56.2664 43.4411C57.7301 43.1275 58.9105 41.9829 59.5558 40.6501C60.2011 39.3173 60.3742 37.7807 60.3427 36.3068C60.2483 32.4653 58.8948 28.7491 57.0533 25.378C55.9516 23.371 54.6138 21.3796 52.615 20.2507C51.9068 19.843 51.1356 19.5608 50.3486 19.3256V19.3099Z" fill="#EEC688"/>
<path d="M25.4184 19.2474C24.2537 19.3258 23.0576 19.4669 22.0031 19.9373C20.9486 20.4077 20.0043 21.3014 19.7367 22.446C19.5164 23.4025 19.7839 24.406 20.083 25.3468C20.382 26.2406 20.7125 27.1343 21.2949 27.8556C21.8772 28.5768 22.7743 29.1256 23.7186 29.0943C24.3482 29.0629 24.9462 28.7807 25.4971 28.4514C26.2368 28.0124 26.9451 27.4322 27.2756 26.6326C27.4959 26.1151 27.5274 25.535 27.669 25.0019C27.8894 24.1238 28.3773 23.3241 28.6291 22.4617C29.3688 19.8902 27.669 19.0906 25.4184 19.2474Z" fill="#EEC688"/>
<path d="M52.1427 20.1722C52.064 20.282 52.064 20.4231 52.0798 20.5642C52.1899 21.7245 52.2844 22.9005 52.3945 24.0608C52.489 25.0486 52.5834 26.0521 52.9139 26.9929C53.2444 27.9337 53.8582 28.8118 54.7396 29.2822C55.0229 29.4233 55.3377 29.5331 55.6525 29.5331C55.9672 29.5331 56.282 29.4547 56.5653 29.3292C58.9576 28.4041 59.6344 26.3814 59.6501 24.0765C59.6658 21.7716 59.0048 20.7053 56.7069 20.0625C55.4793 19.7175 53.15 18.9649 52.1585 20.1879L52.1427 20.1722Z" fill="#EEC688"/>
<path d="M32.5953 38.1726C31.9972 38.5959 31.4936 39.1291 31.2575 39.819C30.8483 40.9322 31.2418 42.2337 32.0759 43.0804C32.9101 43.9271 34.1377 44.3034 35.3181 44.272C36.4985 44.2407 37.6475 43.786 38.6547 43.1744C39.5204 42.6413 40.3545 41.873 40.4647 40.8538C40.4175 41.2458 41.6608 42.4845 41.9441 42.7354C42.6366 43.3783 43.5023 43.833 44.4308 44.0368C46.2093 44.4131 48.1609 43.833 49.42 42.5472C49.6718 42.2807 49.9079 41.9985 50.0496 41.6535C50.4588 40.6814 50.0181 39.5367 49.3728 38.7057C48.0822 37.0907 46.0047 36.2283 43.9429 35.9931C42.0071 35.7579 39.961 35.9304 38.0567 36.3537C36.7189 36.6673 35.4126 36.8241 34.122 37.3572C33.6026 37.5768 33.0832 37.8276 32.6111 38.1569L32.5953 38.1726Z" fill="#5C564D"/>
<path d="M32.2334 37.6871C33.1287 37.6871 33.8545 36.964 33.8545 36.0721C33.8545 35.1801 33.1287 34.457 32.2334 34.457C31.3381 34.457 30.6123 35.1801 30.6123 36.0721C30.6123 36.964 31.3381 37.6871 32.2334 37.6871Z" fill="#231F20"/>
<path d="M49.1052 37.6871C50.0005 37.6871 50.7263 36.964 50.7263 36.0721C50.7263 35.1801 50.0005 34.457 49.1052 34.457C48.2099 34.457 47.4841 35.1801 47.4841 36.0721C47.4841 36.964 48.2099 37.6871 49.1052 37.6871Z" fill="#231F20"/>
<path d="M40.8268 39.3022C42.5566 39.3022 43.9588 38.4317 43.9588 37.3579C43.9588 36.2841 42.5566 35.4136 40.8268 35.4136C39.0971 35.4136 37.6948 36.2841 37.6948 37.3579C37.6948 38.4317 39.0971 39.3022 40.8268 39.3022Z" fill="#231F20"/>
<path d="M30.7854 20.4075C33.3666 19.0747 36.4041 19.2315 39.2214 19.4353C39.5361 19.451 39.8194 19.1531 39.8194 18.8395C39.8194 18.4945 39.5519 18.275 39.2214 18.2437C36.1838 18.0242 32.9731 17.9301 30.1873 19.3726C29.904 19.5137 29.8253 19.9057 29.9827 20.1723C30.1559 20.4545 30.5021 20.5329 30.7854 20.3761V20.4075Z" fill="#231F20"/>
<path d="M41.4877 19.4355C44.4151 18.7927 47.4685 19.0435 50.27 20.0941C50.569 20.2039 50.9152 19.9687 50.9939 19.6864C51.0884 19.3571 50.8838 19.0749 50.5847 18.9652C47.5944 17.8362 44.305 17.6167 41.173 18.3066C40.8582 18.3693 40.6851 18.73 40.7638 19.0279C40.8582 19.3415 41.173 19.5139 41.4877 19.4355Z" fill="#231F20"/>
<path d="M29.0226 19.6237C28.2987 18.8867 27.2756 18.6516 26.2684 18.6672C25.2139 18.6829 24.1121 18.9024 23.0891 19.1533C22.0032 19.4355 20.9329 19.8903 20.1145 20.6899C19.2961 21.4896 18.9026 22.5558 18.9498 23.7004C18.9656 24.312 19.0758 24.9235 19.1859 25.5193C19.2961 26.1151 19.4535 26.6639 19.721 27.1814C20.1302 27.9497 20.807 28.5925 21.5939 28.9845C23.2623 29.8312 25.2768 29.7058 26.7405 28.5298C28.3616 27.2284 29.0226 24.8451 28.3616 22.8851C28.2672 22.5872 27.9524 22.3833 27.6376 22.4774C27.3386 22.5558 27.1182 22.9008 27.2284 23.1987C27.6848 24.5785 27.3701 26.1779 26.3943 27.2441C25.8906 27.8086 25.324 28.1378 24.6 28.2946C24.5214 28.3103 24.4427 28.326 24.364 28.3417C24.1751 28.373 24.4269 28.3417 24.3168 28.3417C24.2695 28.3417 24.2223 28.3417 24.1751 28.3417C23.9862 28.3417 23.7974 28.3417 23.6085 28.3417C23.5141 28.3417 23.4354 28.3417 23.3409 28.3103C23.4511 28.3103 23.3252 28.3103 23.2937 28.3103C23.2465 28.3103 23.1993 28.2946 23.1521 28.279C22.9632 28.2476 22.7901 28.1849 22.617 28.1378C22.3966 28.0594 22.4124 28.0594 22.2078 27.9654C22.0346 27.8713 21.8615 27.7772 21.7041 27.6674C21.5782 27.589 21.5153 27.542 21.3736 27.4009C21.232 27.2754 21.106 27.1343 20.9959 26.9932C21.0588 27.0716 20.9801 26.9618 20.9644 26.9462C20.9329 26.8991 20.9172 26.8678 20.8857 26.8207C20.8385 26.7423 20.7913 26.6639 20.7598 26.6012C20.6654 26.4131 20.5867 26.2092 20.5237 26.0054C20.3663 25.5036 20.2876 24.9705 20.2089 24.4531C20.0673 23.5123 20.0988 22.6342 20.6496 21.8659C21.1218 21.2074 21.9245 20.7526 22.7271 20.4704C23.278 20.2823 23.8603 20.1568 24.4269 20.0471C24.9306 19.953 25.3555 19.8746 25.8277 19.8432C26.0795 19.8275 26.3313 19.8119 26.5674 19.8275C26.6776 19.8275 26.7877 19.8275 26.8979 19.8432C27.0238 19.8432 26.9609 19.8432 26.9294 19.8432C26.9923 19.8432 27.0553 19.8589 27.1182 19.8746C27.5589 19.9687 27.8894 20.1098 28.1885 20.4234C28.7236 20.9722 29.5578 20.1411 29.0226 19.5923V19.6237Z" fill="#231F20"/>
<path d="M52.2372 20.6274C53.9055 20.2825 55.6683 20.3922 57.2579 20.988C57.5727 21.0978 57.9032 21.286 58.1078 21.4741C58.3596 21.7093 58.4698 21.8818 58.6272 22.1797C58.7373 22.3992 58.8475 22.7442 58.8947 23.0421C58.9419 23.3243 58.9734 23.6379 58.9734 23.9672C58.9734 25.4254 58.5957 27.0718 57.431 28.0126C56.9431 28.4046 56.345 28.5927 55.6998 28.5771C55.5896 28.5771 55.6211 28.5771 55.6525 28.5771C55.6053 28.5771 55.5581 28.5771 55.5266 28.5614C55.4479 28.5614 55.3692 28.53 55.3063 28.5143C55.1174 28.4516 55.023 28.4203 54.8656 28.3419C54.5508 28.1851 54.3305 28.0126 54.0787 27.7931C52.8038 26.5701 52.7094 24.6414 52.8196 22.948C52.8353 22.6344 52.5363 22.3522 52.2215 22.3522C51.891 22.3522 51.6549 22.6187 51.6234 22.948C51.5133 24.8139 51.6706 26.8209 52.9297 28.3105C53.4649 28.9534 54.2046 29.4551 55.0073 29.6747C55.8729 29.9098 56.77 29.7844 57.5569 29.3611C59.2725 28.4359 59.9492 26.4917 60.1066 24.6571C60.2325 23.0578 59.8863 21.2232 58.4383 20.2981C57.5255 19.718 56.345 19.4828 55.2905 19.3573C54.1574 19.2162 53.0084 19.2789 51.891 19.5141C51.5762 19.5769 51.4031 19.9375 51.4818 20.2354C51.5762 20.5647 51.891 20.7058 52.2058 20.6431L52.2372 20.6274Z" fill="#231F20"/>
<path d="M21.2791 30.239C20.6181 32.4969 20.0358 34.8645 20.02 37.2322C20.02 39.349 20.5551 41.5284 22.129 43.0337C22.9002 43.7707 23.876 44.3195 24.9305 44.4606C25.2453 44.5076 25.5601 44.3822 25.6545 44.0529C25.7332 43.7707 25.5601 43.3787 25.2453 43.3316C23.6085 43.1121 22.3021 41.8577 21.7041 40.3525C20.9486 38.4082 21.1375 36.2444 21.5152 34.2373C21.7355 32.9986 22.0661 31.7756 22.4123 30.5683C22.6169 29.847 21.4837 29.5334 21.2791 30.2547V30.239Z" fill="#231F20"/>
<path d="M25.1352 39.0041C24.8992 40.6191 24.7103 42.3439 25.4185 43.8648C25.7805 44.6488 26.4258 45.2603 27.1655 45.6993C27.9053 46.1384 28.7709 46.4833 29.6208 46.7029C30.6438 46.9694 31.7455 47.0321 32.7528 46.7029C33.0518 46.6088 33.2722 46.2952 33.162 45.9816C33.0676 45.6837 32.7528 45.4642 32.438 45.5739C32.2492 45.6366 32.0446 45.6837 31.8399 45.7307C31.714 45.7464 31.7927 45.7307 31.8085 45.7307C31.7613 45.7307 31.714 45.7307 31.6511 45.7464C31.5409 45.7464 31.4307 45.7464 31.3206 45.7621C31.116 45.7621 30.9114 45.7621 30.7068 45.7307C30.6595 45.7307 30.6281 45.7307 30.5809 45.7307C30.6753 45.7307 30.5494 45.7307 30.5179 45.7307C30.4077 45.715 30.2976 45.6837 30.1874 45.668C29.7782 45.5739 29.3847 45.4485 28.9912 45.3074C28.8968 45.276 28.8181 45.2446 28.7237 45.1976C28.7079 45.1976 28.582 45.1349 28.6607 45.1819C28.6292 45.1819 28.582 45.1506 28.5506 45.1349C28.3617 45.0565 28.1571 44.9624 27.9682 44.8526C27.8108 44.7742 27.6692 44.6802 27.5118 44.5861C27.4331 44.539 27.3544 44.4763 27.2757 44.4293C27.3544 44.4763 27.2757 44.4293 27.26 44.4293C27.2128 44.3822 27.1498 44.3509 27.1026 44.3038C26.9609 44.1784 26.8508 44.053 26.7249 43.9119C26.6147 43.7864 26.7563 43.9746 26.7091 43.8805C26.6934 43.8491 26.6619 43.8021 26.6304 43.7707C26.5832 43.6923 26.536 43.6296 26.4888 43.5512C26.4416 43.4728 26.4101 43.3944 26.3629 43.316C26.3629 43.316 26.2999 43.1592 26.3314 43.2376C26.3629 43.316 26.2999 43.1592 26.2999 43.1592C26.237 43.0024 26.1897 42.8299 26.1425 42.6575C26.1268 42.5791 26.111 42.485 26.0953 42.4066C26.0953 42.3752 26.0953 42.3439 26.0796 42.2968C26.0796 42.2812 26.0481 42.1087 26.0796 42.2498C26.0638 42.0773 26.0481 41.8892 26.0324 41.7167C26.0166 41.309 26.0324 40.917 26.0638 40.5093C26.0796 40.3055 26.0953 40.1017 26.1268 39.8978C26.1268 39.8508 26.1268 39.7881 26.1425 39.741C26.1425 39.7097 26.174 39.5529 26.1425 39.6783C26.1425 39.5685 26.174 39.4588 26.1897 39.3647C26.237 39.0668 26.111 38.7218 25.7805 38.6434C25.4972 38.5807 25.1038 38.7218 25.0566 39.0511L25.1352 39.0041Z" fill="#231F20"/>
<path d="M35.932 46.687C38.3872 48.1139 41.472 48.3648 44.1476 47.424C44.903 47.1574 45.6428 46.7968 46.3038 46.3421C46.5713 46.1696 46.6815 45.8246 46.5084 45.5424C46.351 45.2758 45.9733 45.1504 45.7057 45.3386C43.6125 46.7654 40.9369 47.1731 38.5131 46.5145C37.8049 46.3264 37.1596 46.0441 36.53 45.6835C35.9005 45.3229 35.2709 46.3107 35.932 46.7027V46.687Z" fill="#231F20"/>
<path d="M36.7818 24.0455C37.9622 24.8452 39.5046 25.0647 40.8739 24.7355C41.2674 24.6414 41.6608 24.4846 42.0228 24.2964C42.2904 24.1553 42.4006 23.7476 42.2274 23.4968C42.0543 23.2145 41.7081 23.1361 41.4248 23.2929C41.3618 23.3243 41.2989 23.3556 41.2359 23.387C41.2044 23.387 41.1729 23.4184 41.1415 23.434C41.1415 23.434 41.2516 23.387 41.2044 23.4027C41.1887 23.4027 41.1572 23.4184 41.1415 23.434C40.9998 23.4968 40.8424 23.5438 40.685 23.5752C40.5277 23.6065 40.386 23.6536 40.2444 23.6692C40.2129 23.6692 40.1657 23.6692 40.1342 23.6849C40.1342 23.6849 40.2601 23.6692 40.1971 23.6849C40.1814 23.6849 40.1657 23.6849 40.1499 23.6849C40.0712 23.6849 39.9925 23.6849 39.9138 23.7006C39.7565 23.7006 39.6148 23.7006 39.4574 23.7006C39.3787 23.7006 39.3 23.7006 39.2213 23.7006C39.1899 23.7006 39.1427 23.7006 39.1112 23.7006C39.2056 23.7006 38.9695 23.7006 39.1112 23.7006C38.8121 23.6536 38.5131 23.5908 38.2298 23.4811C38.1826 23.4811 38.1511 23.4497 38.1039 23.434C38.0882 23.434 38.0724 23.434 38.0567 23.4184C37.9622 23.387 38.1511 23.4654 38.0882 23.4184C38.0095 23.387 37.9308 23.3556 37.8521 23.3086C37.6947 23.2302 37.5373 23.1361 37.3957 23.042C37.1438 22.8696 36.7346 22.9793 36.593 23.2459C36.4356 23.5438 36.53 23.8731 36.7976 24.0455H36.7818Z" fill="#231F20"/>
<path d="M35.4283 33.9706C36.9549 33.5002 38.7019 32.92 39.5518 31.4618C40.3073 30.1761 40.2286 28.2945 38.8436 27.4635C38.0881 27.0088 37.0966 26.9147 36.2309 27.0401C35.3653 27.1655 34.6885 27.5732 34.059 28.1063C33.4924 28.5924 33.0202 29.1569 32.4694 29.6586C31.9657 30.129 31.3677 30.4583 30.7381 30.7405C29.2744 31.3991 27.6533 31.8695 26.7562 33.312C26.3628 33.9549 27.3858 34.5507 27.7792 33.9079C28.393 32.9044 29.6049 32.4967 30.6437 32.0576C31.2575 31.8068 31.8556 31.5559 32.4064 31.1953C32.9573 30.8346 33.4294 30.3799 33.9016 29.9095C34.3738 29.4391 34.783 28.9687 35.3181 28.6238C35.9319 28.2318 36.6087 28.122 37.3169 28.2004C37.8992 28.2788 38.4816 28.4983 38.7177 29.0471C38.9065 29.4705 38.8593 30.0036 38.6862 30.474C38.1825 31.9165 36.3883 32.4183 35.082 32.826C34.358 33.0455 34.6728 34.1901 35.3968 33.9549L35.4283 33.9706Z" fill="#231F20"/>
<path d="M44.0216 32.4968C42.8726 32.5438 41.7709 31.7442 41.5821 30.5839C41.3932 29.4235 42.0857 28.326 43.2031 28.0124C43.7225 27.8712 44.3049 27.8712 44.8085 28.1064C45.4066 28.373 45.863 28.8591 46.3037 29.3295C46.8073 29.8469 47.311 30.333 47.909 30.7406C48.5071 31.1483 49.1524 31.4933 49.7819 31.8539C51.0096 32.5438 52.3474 33.4219 52.6779 34.8801C52.851 35.6171 53.9842 35.3035 53.8111 34.5665C53.4491 32.9985 52.1585 31.901 50.8207 31.1013C50.081 30.6622 49.294 30.2703 48.5701 29.7842C47.909 29.3451 47.4054 28.7807 46.8545 28.2319C46.3037 27.6831 45.6427 27.1186 44.84 26.8991C44.1317 26.6953 43.3291 26.7266 42.6366 26.9932C41.1571 27.5576 40.2128 29.0629 40.4017 30.6466C40.6063 32.4184 42.2273 33.7825 44.0216 33.7041C44.777 33.6728 44.777 32.4968 44.0216 32.5281V32.4968Z" fill="#231F20"/>
<path d="M37.8678 35.7896C36.1523 35.9151 34.3738 36.1816 32.8944 37.1224C31.5723 37.9378 30.5335 39.2705 30.5021 40.8699C30.4863 41.5912 30.6909 42.3595 31.1001 42.9553C31.6038 43.6766 32.3435 44.1156 33.1619 44.4135C34.7515 45.0094 36.5615 44.978 38.1196 44.3038C39.6777 43.6295 40.9054 42.2183 41.1887 40.572C41.2359 40.2584 41.11 39.9448 40.7795 39.8507C40.4962 39.7723 40.1027 39.9448 40.0555 40.2584C39.8509 41.4344 39.1112 42.4065 38.0881 43.0023C36.9077 43.6922 35.4598 43.8177 34.1535 43.4884C33.5239 43.3316 32.8314 43.0807 32.3592 42.626C31.9658 42.2497 31.7297 41.7323 31.6825 41.2462C31.5723 40.0702 32.2333 39.0197 33.2091 38.3298C34.5627 37.3733 36.2467 37.1067 37.8521 36.9813C38.1668 36.9499 38.4501 36.7304 38.4501 36.3855C38.4501 36.0875 38.1826 35.7739 37.8521 35.7896H37.8678Z" fill="#231F20"/>
<path d="M58.6588 30.5523C59.2568 32.622 59.8077 34.7702 59.8707 36.934C59.9336 38.7842 59.5716 40.7285 58.2181 42.1083C57.5571 42.7669 56.7544 43.2059 55.8258 43.3313C55.511 43.3784 55.3379 43.7704 55.4166 44.0526C55.511 44.3976 55.8258 44.5073 56.1406 44.4603C58.0292 44.2094 59.5874 42.7355 60.3428 41.0421C61.2871 38.8939 61.1455 36.4949 60.752 34.2214C60.5159 32.8729 60.1854 31.5401 59.792 30.223C59.5874 29.5017 58.4384 29.7997 58.6588 30.5366V30.5523Z" fill="#231F20"/>
<path d="M54.7869 39.3177C54.7869 39.4117 54.8184 39.4901 54.8184 39.5842C54.8499 39.7567 54.8184 39.5058 54.8184 39.6156C54.8184 39.6626 54.8184 39.7097 54.8341 39.7567C54.8499 39.9449 54.8814 40.1173 54.8971 40.3055C54.9286 40.6661 54.9601 41.0424 54.9443 41.4031C54.9443 41.5756 54.9443 41.748 54.9286 41.9205C54.9286 41.9989 54.9286 42.0773 54.9128 42.1557C54.8971 42.3282 54.9286 42.0303 54.9128 42.2028C54.9128 42.2498 54.8971 42.3125 54.8814 42.3596C54.8499 42.5163 54.8184 42.6731 54.7712 42.8143C54.7397 42.8927 54.724 42.9867 54.6925 43.0651C54.6925 43.1122 54.661 43.1435 54.6453 43.1906C54.6295 43.2219 54.6453 43.2219 54.6453 43.1749C54.6453 43.2063 54.6138 43.2376 54.5981 43.269C54.5351 43.4101 54.4564 43.5512 54.3777 43.6767C54.3463 43.708 54.3305 43.7551 54.299 43.7864C54.299 43.8021 54.2203 43.8962 54.2833 43.8178C54.2203 43.8962 54.1574 43.9746 54.0787 44.053C53.9528 44.1784 53.8269 44.3038 53.6695 44.4136C53.7482 44.3509 53.6537 44.4136 53.6223 44.445C53.5908 44.4763 53.5436 44.5077 53.4964 44.5234C53.4177 44.5704 53.339 44.6331 53.2445 44.6802C53.0714 44.7742 52.914 44.8683 52.7409 44.9467C52.6465 44.9938 52.5678 45.0251 52.4733 45.0722C52.4419 45.0878 52.4104 45.1035 52.3632 45.1192C52.253 45.1662 52.3946 45.1192 52.2845 45.1506C51.891 45.3074 51.4975 45.4485 51.1041 45.5582C50.8837 45.6209 50.6634 45.668 50.4273 45.6993C50.2384 45.7307 50.4903 45.6993 50.3643 45.6993C50.2857 45.6993 50.2227 45.715 50.144 45.715C50.0496 45.715 49.9394 45.715 49.845 45.7307C49.6246 45.7307 49.3885 45.7307 49.1682 45.6993C49.2784 45.715 49.0895 45.6837 49.0895 45.6837C49.0266 45.6837 48.9636 45.6523 48.9164 45.6523C48.7905 45.621 48.6803 45.5896 48.5544 45.5582C48.2554 45.4642 47.8934 45.668 47.8304 45.9659C47.7517 46.2952 47.9248 46.5774 48.2396 46.6872C50.0024 47.2673 52.0012 46.6715 53.575 45.8248C54.3462 45.4171 55.0388 44.8526 55.4637 44.0843C55.8572 43.3631 56.0303 42.5634 56.0775 41.748C56.1247 40.8229 55.9988 39.9135 55.8729 39.0041C55.8257 38.7062 55.4165 38.5023 55.1489 38.5964C54.8184 38.7062 54.6925 38.9884 54.7397 39.3177H54.7869Z" fill="#231F20"/>
<path d="M43.4077 36.9657C44.84 37.0755 46.3351 37.295 47.5942 38.0162C48.1293 38.3142 48.633 38.7375 48.9792 39.2079C49.0737 39.3333 49.1524 39.4588 49.2311 39.5842C49.294 39.694 49.3884 39.8821 49.4042 39.9449C49.4514 40.086 49.4986 40.2271 49.5301 40.3682C49.5773 40.5564 49.5773 40.6191 49.593 40.7759C49.6245 41.356 49.4986 41.8578 49.1681 42.3439C49.0265 42.532 48.7746 42.7672 48.5386 42.924C48.2553 43.0965 47.9562 43.2376 47.6414 43.3474C46.3666 43.7864 44.8872 43.8335 43.6438 43.269C42.4004 42.7045 41.4404 41.6226 41.22 40.2741C41.1728 39.9605 40.7794 39.7881 40.4961 39.8665C40.1655 39.9605 40.0239 40.2741 40.0869 40.5877C40.3387 42.0616 41.3617 43.3474 42.6523 44.0843C44.116 44.9154 45.9417 45.0565 47.547 44.6174C48.3497 44.3979 49.1681 44.0373 49.7819 43.4571C50.3485 42.9083 50.6633 42.1714 50.7577 41.3874C50.9466 39.8194 50.0809 38.3926 48.8691 37.4675C47.3109 36.2758 45.3279 35.9622 43.4235 35.8054C43.1087 35.774 42.8254 36.0876 42.8254 36.4012C42.8254 36.7462 43.093 36.9657 43.4235 36.9971L43.4077 36.9657Z" fill="#231F20"/>
</svg>
