<svg width="80" height="76" viewBox="0 0 80 76" fill="none" xmlns="http://www.w3.org/2000/svg">
<path d="M55.6186 47.7086L55.7288 47.0971C54.5327 46.6424 53.0689 47.0187 52.2191 47.9751C51.3692 48.9316 51.2118 50.4369 51.8099 51.5501C51.8256 51.5815 51.8571 51.6285 51.8728 51.6599C51.7784 51.9265 51.6839 52.2087 51.5895 52.4752C51.558 52.5536 51.5423 52.6164 51.5108 52.6948C51.2275 50.5623 50.4091 48.3985 49.6064 46.5483C49.3703 46.0152 49.0556 44.9333 48.5677 44.5883C46.8679 42.0168 43.9877 40.2293 40.9186 39.8844C37.7394 39.5237 34.4343 40.6684 32.1679 42.9106C28.2175 46.8305 25.1327 60.566 34.2612 60.1113L34.9064 59.4214C35.2055 59.9075 35.6776 60.2524 36.4488 60.3622C39.1874 60.7385 39.8327 59.0451 39.9901 57.0067C40.1474 59.0294 40.7927 60.7228 43.5313 60.3622C46.317 59.9859 49.6222 59.7664 50.9757 57.289C51.3062 58.0102 51.7941 58.6374 51.7312 59.2176C53.7615 59.5625 55.7131 58.6531 57.2869 57.4457C58.4201 56.5834 59.3172 55.0624 59.695 53.6826C60.5921 50.3742 58.0581 47.6615 55.6186 47.6929V47.7086Z" fill="#5C564D"/>
<path d="M39.5967 57.3358C39.3292 57.1319 38.7626 56.7399 38.3376 56.4577C37.6766 56.0343 37.0156 55.6423 36.3073 55.3131C35.7879 55.0622 35.1899 54.7956 34.5918 54.7329C34.6548 55.0935 34.7334 55.4699 34.7807 55.8305C34.9538 57.0378 35.0954 58.3706 34.7807 59.578L34.9066 59.4369C35.2056 59.9229 35.6778 60.2679 36.449 60.3776C38.9514 60.7226 39.7069 59.3114 39.9272 57.5082C39.8013 57.4612 39.6911 57.3985 39.581 57.3201L39.5967 57.3358Z" fill="#F39B4A"/>
<path d="M45.42 54.7642C44.3498 55.2659 43.3268 55.8774 42.288 56.4419C42.2093 56.4889 42.1464 56.4889 42.0677 56.5046C41.5955 56.8182 41.1233 57.1318 40.6512 57.4611C40.4623 57.5865 40.2577 57.6022 40.0688 57.5552C40.3049 59.3427 41.0604 60.7225 43.5471 60.3775C44.035 60.3148 44.5229 60.2521 45.0265 60.1737C46.0024 58.6841 46.0024 56.5046 45.4358 54.7642H45.42Z" fill="#F39B4A"/>
<path d="M34.2455 58.355C34.2612 58.4491 34.2927 58.5432 34.3084 58.6373C34.3714 58.8411 34.4343 59.0606 34.513 59.2488C34.513 59.2645 34.513 59.2645 34.513 59.2645C34.513 59.2645 34.513 59.2645 34.5288 59.2958C34.5445 59.3429 34.576 59.3899 34.5917 59.4526C34.6232 59.5153 34.6547 59.578 34.6862 59.6251L34.8908 59.4212C35.1898 59.9073 35.662 60.2523 36.4332 60.362C38.5264 60.6443 39.392 59.7192 39.754 58.355C37.9126 58.308 36.0397 58.3393 34.2297 58.3393L34.2455 58.355Z" fill="white"/>
<path d="M55.6186 47.7084L55.7287 47.0969C54.5326 46.6422 53.0689 47.0185 52.219 47.9749C51.3691 48.9314 51.2117 50.4367 51.8098 51.5499C51.8255 51.5813 51.857 51.6283 51.8727 51.6597C51.8727 51.6597 51.8727 51.6754 51.8727 51.6911C52.1718 51.7381 52.4393 51.9106 52.5653 52.2712C52.6282 52.4437 52.7226 52.6162 52.8013 52.6946C52.88 52.773 52.943 52.8043 53.0374 52.8357C53.2105 52.8827 53.2263 52.8827 53.4466 52.8514C53.3522 52.8514 53.6197 52.8043 53.6512 52.7886C53.7142 52.773 53.7614 52.7416 53.8401 52.7102C54.0132 52.6162 54.2178 52.5064 54.3595 52.3653C54.4539 52.2712 54.4854 52.1928 54.5169 52.0987C54.6113 51.7695 54.5955 51.2991 54.5798 50.86C54.5798 50.2172 55.3195 49.7781 55.8704 50.1231C57.759 51.2991 57.2397 54.2939 56.5157 56.0187C55.9019 57.4612 54.7844 58.6058 53.4309 59.2487C54.8474 59.0449 56.1694 58.3393 57.3026 57.4769C58.4358 56.6145 59.3329 55.0936 59.7106 53.7137C60.6077 50.4053 58.0738 47.6927 55.6343 47.7241L55.6186 47.7084Z" fill="white"/>
<path d="M44.8534 60.1267C44.995 59.9385 45.1209 59.7504 45.2468 59.5622C45.3728 59.3741 45.4987 59.1702 45.6088 58.9821C45.656 58.888 45.7033 58.7939 45.7505 58.6998C45.782 58.6528 45.7977 58.5901 45.8292 58.543C45.8449 58.496 45.8607 58.4333 45.8764 58.3862C44.0822 58.5744 42.2722 58.4646 40.478 58.3862C40.3836 58.3862 40.3049 58.3862 40.2104 58.3862C40.5724 59.7347 41.4381 60.6598 43.5313 60.3776C43.9405 60.3148 44.3655 60.2678 44.7904 60.2051C44.8062 60.1737 44.8376 60.158 44.8534 60.1267Z" fill="white"/>
<path d="M33.8993 54.733C33.8993 55.7208 33.7734 56.7086 33.8207 57.6965C33.8836 58.7627 34.1826 59.8446 35.0955 60.4875C35.5991 60.8481 36.2444 60.9579 36.8425 60.9892C37.4091 61.0206 37.9914 60.9735 38.5108 60.754C39.0302 60.5345 39.4394 60.2052 39.7699 59.7505C40.0532 59.3585 40.2263 58.9038 40.3365 58.4334C40.6198 57.2888 40.604 56.0814 40.5883 54.9211C40.5883 54.6075 40.3208 54.3253 39.9902 54.3253C39.6597 54.3253 39.3922 54.5762 39.3922 54.9211C39.3922 55.4229 39.3922 55.9246 39.3922 56.4107C39.3922 56.6616 39.3764 56.8968 39.3449 57.1477C39.3449 57.2574 39.3292 57.3672 39.3135 57.4926C39.3135 57.5397 39.282 57.6494 39.3135 57.4613C39.3135 57.4926 39.3135 57.524 39.3135 57.5553C39.3135 57.6181 39.2977 57.6808 39.282 57.7278C39.2505 57.9473 39.1876 58.1669 39.1246 58.3707C39.0931 58.4648 39.0617 58.5589 39.0302 58.6529C39.0931 58.5275 38.983 58.7941 39.0302 58.6529C38.9987 58.7157 38.983 58.7627 38.9515 58.8254C38.9043 58.9038 38.857 58.9979 38.8098 59.0763C38.7784 59.1076 38.7626 59.139 38.7311 59.186C38.6682 59.2644 38.8256 59.0763 38.7626 59.1547C38.7469 59.186 38.7154 59.2017 38.6997 59.2331C38.6367 59.2958 38.5738 59.3742 38.4951 59.4369C38.4793 59.4369 38.4636 59.4683 38.4478 59.484C38.4006 59.531 38.5738 59.3899 38.4951 59.4526C38.4478 59.484 38.4006 59.5153 38.3377 59.5624C38.259 59.6094 38.1488 59.6408 38.0701 59.7035C38.1488 59.6408 38.196 59.6564 38.1331 59.6721C38.1016 59.6721 38.0859 59.6878 38.0544 59.7035C37.9914 59.7192 37.9285 59.7505 37.8655 59.7662C37.7553 59.7976 37.6452 59.8132 37.535 59.8289C37.535 59.8289 37.6924 59.8132 37.5979 59.8289C37.5665 59.8289 37.535 59.8289 37.5035 59.8289C37.4248 59.8289 37.3461 59.8289 37.2832 59.8289C37.1573 59.8289 37.0156 59.8289 36.8897 59.8289C36.811 59.8289 36.7323 59.8289 36.6536 59.8132C36.6064 59.8132 36.5749 59.8132 36.5277 59.8132C36.6536 59.8289 36.3861 59.7976 36.5277 59.8132C36.4018 59.7976 36.2916 59.7662 36.1657 59.7348C36.1028 59.7192 36.0398 59.6878 35.9926 59.6721C35.8824 59.6408 36.1185 59.7348 36.0241 59.6721C35.9926 59.6721 35.9769 59.6408 35.9454 59.6408C35.851 59.5937 35.7723 59.531 35.6778 59.484C35.5834 59.4369 35.788 59.578 35.7093 59.5153C35.6936 59.4996 35.6621 59.484 35.6463 59.4683C35.5991 59.4369 35.5677 59.3899 35.5362 59.3585C35.5047 59.3272 35.4732 59.2644 35.426 59.2331C35.5204 59.2958 35.5047 59.3428 35.4732 59.2958C35.4732 59.2801 35.4417 59.2488 35.426 59.2331C35.363 59.139 35.3158 59.0449 35.2686 58.9508C35.2686 58.9195 35.2529 58.9038 35.2371 58.8724C35.1899 58.7784 35.2844 59.0136 35.2529 58.9195C35.2529 58.8724 35.2214 58.8411 35.2057 58.7941C35.1742 58.6843 35.1427 58.5745 35.1112 58.4648C35.0798 58.355 35.064 58.2609 35.0483 58.1512C35.0483 58.1198 35.0483 58.0885 35.0483 58.0571C35.0798 58.2296 35.0483 58.1512 35.0483 58.1041C35.0483 58.0414 35.0483 57.9787 35.0325 57.9003C34.9381 56.8498 35.0955 55.7992 35.0955 54.7487C35.0955 54.4351 34.8279 54.1528 34.4974 54.1528C34.1669 54.1528 33.9151 54.4037 33.8993 54.7487V54.733Z" fill="#231F20"/>
<path d="M49.2445 44.5412C47.167 41.2641 43.437 39.163 39.5337 39.2414C36.1499 39.3041 32.7189 40.9348 30.7515 43.7258C29.4295 45.6231 28.5796 47.9123 28.1074 50.1545C27.6353 52.3967 27.4464 54.8898 28.2806 57.0693C28.7055 58.1669 29.3823 59.139 30.3738 59.7976C31.507 60.5502 32.9077 60.7697 34.2613 60.7227C35.0167 60.6913 35.0167 59.5154 34.2613 59.5467C32.2782 59.6408 30.484 58.9666 29.5869 57.132C28.6898 55.2975 28.7842 53.1337 29.099 51.2364C29.4452 49.1197 30.1377 47.0342 31.2237 45.184C32.6402 42.7537 35.0797 41.1543 37.8497 40.6212C41.8631 39.8372 46.0496 41.7345 48.2215 45.1683C48.6307 45.8112 49.6538 45.2154 49.2445 44.5725V44.5412Z" fill="#231F20"/>
<path d="M44.9006 54.7332C44.9006 55.6739 45.0265 56.599 44.9793 57.5398C44.9793 57.6496 44.9793 57.7594 44.9636 57.8848C44.9636 57.9475 44.9636 57.9945 44.9478 58.0573C44.9478 58.0886 44.9478 58.1043 44.9478 58.1357C44.9636 57.9318 44.9478 58.0886 44.9478 58.1357C44.9164 58.3552 44.8692 58.5747 44.7905 58.7785C44.7905 58.8256 44.759 58.8569 44.7432 58.904C44.7118 59.0137 44.8062 58.7629 44.759 58.8569C44.759 58.8883 44.7432 58.904 44.7275 58.9353C44.6803 59.0294 44.6331 59.1235 44.5701 59.2176C44.5701 59.2333 44.5386 59.2489 44.5386 59.2646C44.5072 59.3273 44.4757 59.296 44.5701 59.2176C44.5386 59.2489 44.5072 59.296 44.4599 59.343C44.4285 59.3744 44.397 59.4057 44.3655 59.4371C44.3498 59.4528 44.3183 59.4684 44.3026 59.4841C44.397 59.4214 44.1924 59.5782 44.3026 59.4841C44.2081 59.5468 44.1294 59.5939 44.035 59.6409C43.9878 59.6723 43.8304 59.7037 44.0193 59.6409C43.9563 59.6566 43.8776 59.688 43.8147 59.7193C43.6887 59.7507 43.5786 59.782 43.4527 59.7977C43.4055 59.7977 43.3897 59.8291 43.4999 59.7977C43.4684 59.7977 43.4054 59.7977 43.374 59.7977C43.2795 59.7977 43.2008 59.8134 43.1064 59.8134C42.9805 59.8134 42.8389 59.8134 42.7129 59.8134C42.65 59.8134 42.5713 59.8134 42.5083 59.8134C42.4454 59.8134 42.2408 59.7664 42.4297 59.8134C42.3195 59.782 42.2093 59.782 42.0991 59.7507C42.0362 59.7507 41.989 59.7193 41.926 59.7036C41.8945 59.7036 41.8788 59.688 41.8473 59.6723C41.7844 59.6409 41.7844 59.6096 41.8788 59.688C41.8158 59.6252 41.6899 59.5939 41.6112 59.5469C41.564 59.5155 41.5168 59.4841 41.4853 59.4528C41.4696 59.4528 41.3909 59.39 41.4853 59.4528C41.5798 59.5155 41.4853 59.4528 41.4696 59.4371C41.3909 59.3744 41.3279 59.3117 41.265 59.2333C41.2178 59.1862 41.1391 59.0451 41.2492 59.2176C41.2178 59.1705 41.1863 59.1392 41.1548 59.0921C41.1076 59.0137 41.0604 58.9353 41.0132 58.8413C40.9817 58.7942 40.9659 58.7472 40.9502 58.7001C40.9502 58.6845 40.9502 58.6688 40.9345 58.6531C40.9974 58.8099 40.8873 58.559 40.9345 58.6531C40.8558 58.4493 40.7928 58.2454 40.7456 58.0416C40.7141 57.9162 40.6984 57.7907 40.6669 57.6653C40.6669 57.6026 40.6512 57.5398 40.6354 57.4928C40.6197 57.383 40.6512 57.6496 40.6354 57.5242C40.6354 57.4928 40.6354 57.4458 40.6354 57.4144C40.604 57.1478 40.5882 56.8813 40.5725 56.6147C40.541 56.0503 40.5567 55.4858 40.5567 54.9213C40.5567 54.6077 40.2892 54.3255 39.9587 54.3255C39.6282 54.3255 39.3763 54.5764 39.3606 54.9213C39.3606 55.9875 39.3606 57.0694 39.5495 58.12C39.7383 59.0765 40.179 60.0329 41.0446 60.5504C41.5325 60.8483 42.1149 60.958 42.6657 60.9894C43.311 61.0051 43.9878 60.9267 44.5701 60.6444C45.6089 60.1584 46.0023 59.0608 46.1125 58.0102C46.2227 56.9597 46.0653 55.8151 46.0653 54.7018C46.0653 54.3882 45.7977 54.106 45.4672 54.106C45.1367 54.106 44.8692 54.3568 44.8692 54.7018L44.9006 54.7332Z" fill="#231F20"/>
<path d="M48.2059 45.0429C48.4262 45.1683 48.5522 45.5133 48.6623 45.7328C48.804 46.0464 48.8984 46.36 49.0243 46.6736C49.2289 47.1754 49.4493 47.6771 49.6381 48.1945C50.0631 49.3392 50.4251 50.4995 50.6769 51.6911C51.0861 53.6354 51.3379 56.1128 50.1103 57.6965C49.3391 58.6843 48.0957 59.092 46.8681 59.1861C46.1126 59.2488 46.1126 60.4248 46.8681 60.3621C48.2374 60.2523 49.5909 59.8603 50.6139 58.8882C51.4638 58.0728 51.9202 56.9595 52.0934 55.8149C52.4711 53.2434 51.7629 50.5465 50.8815 48.1475C50.6454 47.5203 50.3621 46.8618 50.126 46.2502C49.8112 45.4819 49.5752 44.4784 48.804 44.0237C48.1429 43.6317 47.5606 44.6509 48.2059 45.0429Z" fill="#231F20"/>
<path d="M58.4517 49.9194C59.5848 51.3933 59.4275 53.2436 58.6248 54.8272C58.2156 55.6269 57.6805 56.3795 56.9722 56.9597C56.264 57.5398 55.4928 58.0102 54.6744 58.3081C53.6828 58.6844 52.707 58.7785 51.6525 58.6531C51.3377 58.606 51.0544 58.951 51.0544 59.2489C51.0544 59.5939 51.322 59.7977 51.6525 59.8447C52.6913 59.9702 53.7458 59.8918 54.7373 59.5468C55.7288 59.2019 56.6574 58.6688 57.4916 58.0416C58.3257 57.4144 59.0025 56.599 59.5061 55.6896C60.0098 54.7802 60.3718 53.7453 60.4347 52.6791C60.4977 51.5031 60.1829 50.2801 59.4589 49.355C59.2701 49.1041 58.9553 48.963 58.6563 49.1511C58.4044 49.2922 58.247 49.6999 58.4517 49.9508V49.9194Z" fill="#231F20"/>
<path d="M54.5486 50.8133C54.5486 50.8133 54.5644 50.9074 54.5801 50.9544C54.5801 51.0171 54.5801 50.9074 54.5801 50.9074C54.5801 50.9074 54.5801 50.9701 54.5801 50.9858C54.5801 51.0328 54.5801 51.0642 54.5801 51.1112C54.5801 51.1426 54.5801 51.1739 54.5801 51.1896C54.5801 51.268 54.5801 51.1896 54.5801 51.1583C54.5644 51.1896 54.5643 51.268 54.5486 51.2994C54.5486 51.3464 54.5171 51.3935 54.5014 51.4405C54.5014 51.4562 54.5014 51.4875 54.4857 51.5032C54.4542 51.5816 54.5329 51.4091 54.4857 51.4719C54.4542 51.5189 54.4384 51.5659 54.407 51.613C54.407 51.6287 54.3283 51.7227 54.3283 51.7384C54.3283 51.7384 54.407 51.66 54.3597 51.7071C54.3597 51.7071 54.3283 51.7384 54.3125 51.7541C54.2811 51.7855 54.2496 51.8325 54.2024 51.8639C54.2024 51.8639 54.1551 51.8952 54.1551 51.9109C54.2181 51.8639 54.2181 51.8639 54.1866 51.8795C54.1866 51.8795 54.1709 51.8952 54.1551 51.9109C54.1079 51.9423 54.0765 51.9579 54.0292 51.9893C54.0135 51.9893 53.9191 52.0363 53.9191 52.052C53.9191 52.0207 54.0292 52.0207 53.9348 52.052C53.9191 52.052 53.8876 52.052 53.8718 52.0677C53.8246 52.0834 53.7617 52.099 53.7145 52.1147C53.683 52.1147 53.6515 52.1147 53.6358 52.1304C53.5728 52.1304 53.683 52.1304 53.683 52.1304C53.6515 52.1304 53.5571 52.1304 53.5413 52.1304C53.4941 52.1304 53.4469 52.1304 53.3997 52.1304C53.3839 52.1304 53.3053 52.1304 53.3997 52.1304C53.4941 52.1304 53.3682 52.1304 53.3525 52.1304C53.3053 52.1304 53.2738 52.1147 53.2266 52.099C53.1951 52.099 53.0692 52.052 53.1321 52.0677C53.1951 52.0834 53.0692 52.0363 53.0534 52.0207C53.0062 51.9893 52.959 51.9579 52.9118 51.9422C52.8803 51.9422 52.8331 51.8795 52.8016 51.8639C52.8488 51.8639 52.8803 51.9266 52.8174 51.8639C52.8174 51.8639 52.7859 51.8325 52.7701 51.8168C52.6914 51.7384 52.6127 51.66 52.5498 51.5816C52.4868 51.5032 52.6127 51.6757 52.5183 51.5503C52.4868 51.5032 52.4554 51.4719 52.4396 51.4248C52.3924 51.3464 52.3452 51.2523 52.298 51.1739C52.2822 51.1269 52.2508 51.0799 52.235 51.0485C52.2035 50.9858 52.2508 51.0955 52.2508 51.0955C52.2508 51.0799 52.235 51.0328 52.2193 51.0171C52.1878 50.9231 52.1563 50.829 52.1248 50.7506C52.0934 50.6722 52.0776 50.5624 52.0619 50.4683C52.0619 50.437 52.0619 50.4056 52.0619 50.39C52.0619 50.39 52.0619 50.5154 52.0619 50.437C52.0619 50.3899 52.0619 50.3272 52.0619 50.2802C52.0619 50.092 52.0619 49.9039 52.0619 49.7C52.0619 49.6373 52.0619 49.7471 52.0619 49.7471C52.0619 49.7157 52.0619 49.6844 52.0619 49.6687C52.0619 49.6216 52.0776 49.5746 52.0934 49.5276C52.1091 49.4335 52.1406 49.3394 52.1721 49.2453C52.2035 49.1512 52.235 49.0572 52.2665 48.9788C52.298 48.916 52.2508 49.0258 52.2508 49.0258C52.2508 49.0101 52.2822 48.9631 52.2822 48.9474C52.298 48.9004 52.3294 48.8533 52.3609 48.8063C52.4081 48.7279 52.4554 48.6495 52.5026 48.5711C52.5341 48.5241 52.5498 48.4927 52.5813 48.4457C52.5183 48.5084 52.597 48.43 52.6127 48.4143C52.6757 48.3516 52.7229 48.2889 52.7859 48.2261C52.8488 48.1634 52.9747 48.1007 53.0062 48.0223C53.0062 48.0223 52.896 48.1007 52.9905 48.038C53.0062 48.038 53.022 48.0066 53.0377 48.0066C53.0692 47.9753 53.1164 47.9596 53.1479 47.9282C53.2266 47.8812 53.3053 47.8341 53.3997 47.7871C53.4469 47.7557 53.4941 47.7401 53.5413 47.7087C53.5571 47.7087 53.5885 47.693 53.62 47.6773C53.5885 47.693 53.5256 47.7244 53.5885 47.6773C53.683 47.646 53.7932 47.5989 53.8876 47.5676C53.982 47.5362 54.0922 47.5206 54.2024 47.4892C54.2181 47.4892 54.2496 47.4892 54.2653 47.4892C54.3597 47.4892 54.3125 47.4892 54.2496 47.4892C54.2968 47.4892 54.3597 47.4892 54.407 47.4892C54.5171 47.4892 54.6273 47.4892 54.7375 47.4892C54.7847 47.4892 54.8319 47.4892 54.8791 47.4892C54.9106 47.4892 54.9263 47.4892 54.9578 47.4892C54.9736 47.4892 55.068 47.4892 54.9736 47.4892C54.8791 47.4892 54.9736 47.4892 54.9893 47.4892C55.0208 47.4892 55.0365 47.4892 55.068 47.4892C55.1152 47.4892 55.1782 47.5049 55.2254 47.5205C55.3355 47.5519 55.4457 47.5833 55.5559 47.6146C55.8392 47.7244 56.2169 47.4892 56.2799 47.207C56.3586 46.8777 56.1854 46.5954 55.8707 46.4857C54.9263 46.1407 53.8876 46.2505 52.9905 46.6425C52.0934 47.0345 51.3851 47.8341 51.0546 48.7749C50.7241 49.7157 50.7871 50.7663 51.212 51.6757C51.6684 52.6478 52.66 53.4005 53.7932 53.2437C54.4384 53.1496 55.005 52.8203 55.367 52.2715C55.729 51.7227 55.8234 51.0642 55.6661 50.4683C55.5874 50.1704 55.2411 49.9666 54.9421 50.0607C54.643 50.1548 54.4542 50.4684 54.5329 50.7819L54.5486 50.8133Z" fill="#231F20"/>
<path d="M57.4917 46.9717C57.4917 47.0815 57.4917 47.1755 57.4602 47.2696V47.1128C57.4445 47.3794 57.3658 47.6459 57.2714 47.8968L57.3343 47.7557C57.2871 47.8498 57.2556 47.9438 57.1927 48.0379C57.114 48.179 57.0982 48.3358 57.1297 48.4926C57.1454 48.571 57.1769 48.6338 57.2399 48.6965C57.2871 48.7592 57.3343 48.8062 57.413 48.8533C57.5546 48.9317 57.712 48.963 57.8694 48.916C58.0111 48.869 58.1527 48.7749 58.2157 48.6494C58.499 48.132 58.6564 47.5675 58.6721 46.9874C58.6721 46.909 58.6721 46.8306 58.6249 46.7679C58.5934 46.6895 58.5619 46.6267 58.499 46.5797C58.4518 46.517 58.3888 46.4856 58.3101 46.4543C58.2472 46.4229 58.1685 46.4072 58.0898 46.4072C57.9324 46.4072 57.775 46.4699 57.6648 46.5797L57.5704 46.7051C57.5232 46.7992 57.4917 46.8933 57.4917 47.0031V46.9717Z" fill="#231F20"/>
<path d="M27.9502 49.7156C27.9974 49.9508 28.0918 50.2174 28.3121 50.2644C28.4695 50.2958 28.6269 50.2174 28.7528 50.139C29.162 49.8724 29.5083 49.5588 29.8073 49.1825C30.1378 50.0763 30.5785 50.923 31.1294 51.707C31.4127 52.099 31.7589 52.5223 32.2468 52.585C32.7347 52.6478 33.2698 52.146 33.0495 51.707C35.127 53.761 38.7941 53.2279 41.0605 55.0781C41.5642 53.7924 43.0751 53.275 44.3971 52.883C45.247 52.6321 46.0969 52.3185 46.8052 51.7697C46.9311 51.6756 48.0643 50.4055 47.9541 50.3742C48.9299 50.7191 50.0631 50.3272 50.7398 49.5432C51.4166 48.7592 51.6684 47.6929 51.6055 46.6738C51.4323 44.1964 48.5049 42.3305 46.5061 41.1858C44.1453 39.8217 41.4383 39.1318 38.7469 38.9123C36.1815 38.7084 33.1597 38.6927 31.7432 41.2642C31.1923 42.2521 30.3897 42.7068 29.6499 43.5848C28.2492 45.2626 27.5882 47.5675 27.9816 49.7313L27.9502 49.7156Z" fill="white"/>
<path d="M31.1293 41.3741C29.461 42.1581 28.3435 43.6164 27.7769 45.3411C27.2104 47.0659 26.8011 49.0102 27.6983 50.6252C27.8399 50.8918 28.0602 51.1427 28.3908 51.1427C28.6741 51.1427 28.9259 50.9859 29.1462 50.8447C29.3508 50.7036 29.5554 50.5468 29.7443 50.39C29.8387 50.296 29.9332 50.2176 30.0276 50.1078C30.0905 50.0451 30.1535 49.9196 30.2165 49.8883L29.9174 49.9667H29.8859C29.7915 49.904 29.7128 49.8569 29.6184 49.8099C29.5712 49.7785 29.6026 49.6688 29.5869 49.7472C29.5712 49.8099 29.6184 49.9824 29.6341 50.0608C29.6813 50.2332 29.7443 50.4057 29.823 50.5782C29.9646 50.9231 30.1535 51.2524 30.3581 51.566C30.7358 52.1305 31.2395 52.8674 31.8848 53.134C32.1838 53.2594 32.5143 53.2281 32.6874 52.9302C32.8291 52.6793 32.7661 52.2559 32.4828 52.1305C32.4041 52.0991 32.3254 52.0521 32.2467 52.005C32.1208 51.911 32.3254 52.0834 32.1995 51.9737C32.1523 51.9423 32.1208 51.8953 32.0736 51.8639C31.9005 51.7071 31.7274 51.4876 31.6172 51.3465C31.4598 51.127 31.3024 50.9075 31.1765 50.6723C31.1136 50.5625 31.0506 50.4371 30.9877 50.3116C30.9562 50.2489 30.9247 50.2019 30.909 50.1392C30.909 50.1078 30.8775 50.0764 30.8775 50.0608C30.8932 50.1078 30.8932 50.1078 30.8775 50.0608C30.846 49.9667 30.8145 49.8726 30.783 49.7785C30.783 49.7315 30.7673 49.6844 30.7516 49.6374C30.7988 49.8256 30.7516 49.5276 30.7358 49.4963C30.6571 49.0886 30.3424 48.775 29.9174 48.8064C29.4925 48.8377 29.2564 49.2297 28.9731 49.4963C28.737 49.7158 28.4695 49.9196 28.1704 50.0451L28.4695 49.9667H28.3908C28.4852 49.998 28.5954 50.0294 28.6898 50.0451C28.7842 50.1705 28.8 50.1705 28.737 50.0608C28.7055 50.0137 28.6741 49.9667 28.6583 49.904C28.6268 49.8412 28.6111 49.7942 28.5796 49.7315C28.5167 49.5433 28.4537 49.3552 28.4222 49.1513C28.3593 48.8064 28.3593 48.4457 28.3908 48.0851C28.438 47.2854 28.6583 46.5014 28.8944 45.7488C29.1305 44.9962 29.461 44.2906 29.9646 43.7104C30.4683 43.1303 31.0506 42.7069 31.7274 42.3933C32.0107 42.2522 32.0894 41.8445 31.932 41.5937C31.7588 41.2957 31.4126 41.2487 31.1293 41.3898V41.3741Z" fill="#231F20"/>
<path d="M32.5773 52.0206C32.955 52.5381 33.4586 52.8203 34.041 53.0555C34.6233 53.2907 35.1584 53.4945 35.7408 53.667C36.7323 53.9806 37.7868 54.059 38.7626 54.404C38.8255 54.4196 38.8728 54.451 38.9357 54.4667C38.8255 54.4196 38.9987 54.498 39.0302 54.5137C39.1561 54.5764 39.2662 54.6391 39.3764 54.7019C39.4394 54.7332 39.4866 54.7803 39.5338 54.8116C39.4394 54.7489 39.5653 54.843 39.581 54.8587C39.6912 54.9527 39.7856 55.0625 39.88 55.1723C40.0689 55.4075 40.5096 55.3918 40.7142 55.1723C40.9503 54.9214 40.9188 54.5921 40.7142 54.3412C40.0689 53.5416 39.0459 53.1966 38.0858 52.9928C37.6137 52.883 37.1258 52.8046 36.6536 52.6949C36.0398 52.5381 35.4575 52.3342 34.8751 52.1147C34.7335 52.052 34.5918 52.0049 34.4344 51.9422C34.403 51.9422 34.3872 51.9265 34.3557 51.9109C34.4344 51.9422 34.3557 51.9109 34.3243 51.8952C34.2613 51.8638 34.1984 51.8481 34.1511 51.8168C34.0252 51.7541 33.8993 51.6757 33.7734 51.5973C33.8521 51.66 33.7262 51.5502 33.7105 51.5345C33.679 51.5032 33.6632 51.4875 33.6318 51.4561C33.6318 51.4405 33.5531 51.3464 33.6003 51.4248C33.4272 51.1739 33.0809 51.0328 32.7976 51.2209C32.5458 51.3777 32.3884 51.7541 32.593 52.0206H32.5773Z" fill="#231F20"/>
<path d="M41.2178 55.6894C41.2965 55.5483 41.3909 55.4072 41.4854 55.2817C41.5483 55.2033 41.4381 55.3445 41.4854 55.2661C41.5168 55.2347 41.5326 55.2033 41.564 55.172C41.627 55.0936 41.69 55.0309 41.7529 54.9681C41.8631 54.8584 41.989 54.7486 42.1149 54.6546C42.0362 54.7173 42.2093 54.5918 42.2251 54.5762C42.288 54.5291 42.3667 54.4821 42.4297 54.435C42.5713 54.3566 42.6972 54.2782 42.8389 54.1998C42.9018 54.1685 42.9648 54.1371 43.0435 54.1058C43.075 54.1058 43.1064 54.0744 43.1379 54.0587C43.311 53.9803 43.0277 54.1058 43.2009 54.0274C43.4999 53.9019 43.7989 53.8078 44.1137 53.7138C44.759 53.5256 45.4043 53.3688 46.0338 53.0866C46.6634 52.8043 47.2615 52.3339 47.7022 51.7851C48.253 51.0952 48.5993 50.3113 48.6937 49.4489C48.7252 49.1353 48.3947 48.853 48.0956 48.853C47.7494 48.853 47.5448 49.1196 47.4975 49.4489C47.4975 49.5743 47.4975 49.4959 47.4975 49.4645C47.4975 49.5116 47.4975 49.5429 47.4818 49.59C47.4818 49.6684 47.4503 49.7468 47.4346 49.8252C47.4189 49.9036 47.3874 49.982 47.3716 50.0447C47.3716 50.076 47.3402 50.1231 47.3244 50.1544C47.3244 50.1544 47.2457 50.3269 47.2929 50.2329C47.23 50.374 47.1513 50.5151 47.0726 50.6405C47.0254 50.7032 46.9939 50.766 46.9467 50.8287C46.931 50.86 46.8995 50.8914 46.8837 50.9228C46.7736 51.0796 46.9467 50.8444 46.8365 50.9855C46.6477 51.205 46.3644 51.4872 46.207 51.6127C46.0653 51.7067 45.9237 51.8008 45.782 51.8949C45.7191 51.9263 45.6561 51.9733 45.5774 52.0047C45.5459 52.0203 45.5145 52.036 45.483 52.0517C45.483 52.0517 45.3413 52.1144 45.4043 52.0831C45.4673 52.0517 45.3571 52.0987 45.3413 52.0987C45.3099 52.0987 45.2784 52.1301 45.2312 52.1301C45.1682 52.1615 45.0895 52.1771 45.0266 52.2085C44.8849 52.2555 44.7275 52.3026 44.5859 52.3496C44.2711 52.4437 43.9721 52.5221 43.6573 52.6162C43.0277 52.8043 42.3825 53.0552 41.8316 53.4158C41.1706 53.8392 40.604 54.388 40.2105 55.0779C40.0531 55.3445 40.1318 55.7365 40.4151 55.8776C40.6984 56.0187 41.0604 55.956 41.2178 55.6737V55.6894Z" fill="#231F20"/>
<path d="M49.5751 50.923C51.3378 49.8881 52.2821 47.7713 51.8887 45.78C51.5267 43.9454 49.8112 42.7538 48.3475 41.7816C44.6331 39.3199 40.0531 38.1126 35.6148 38.5359C33.679 38.7241 31.3811 39.414 30.8617 41.5308C30.6729 42.2677 31.8218 42.5813 31.9949 41.8443C32.3569 40.3548 34.1039 39.8687 35.4574 39.7276C37.3461 39.5237 39.2662 39.6335 41.1234 40.0255C42.9805 40.4175 44.8062 41.0917 46.4903 42.0325C47.3244 42.5029 48.1271 43.036 48.8983 43.6162C49.4492 44.0395 50 44.4942 50.362 45.0901C51.3693 46.7208 50.5824 48.9787 48.977 49.9194C48.316 50.2958 48.914 51.3149 49.5751 50.9386V50.923Z" fill="#231F20"/>
<path d="M28.642 13.4005C25.6045 12.4127 22.9761 15.0312 21.8272 17.5243C21.6855 17.8379 21.5596 18.1672 21.6068 18.4964C21.654 18.8257 21.9531 19.155 22.2993 19.0923C22.4882 19.0609 22.6298 18.9355 22.803 18.8414C24.3926 17.979 25.9665 20.5191 26.3442 21.7108C26.4229 21.9303 23.826 24.5959 23.5584 25.0192C22.7715 26.2109 22.3151 27.4966 21.7799 28.7981C20.6782 31.495 20.3477 34.3487 18.5378 36.7634C18.16 37.2652 17.7194 37.8453 17.9082 38.4411C18.1758 39.3035 19.309 39.2565 20.0172 39.2722C19.4978 40.3698 19.6395 41.7653 20.1903 42.8315C20.2848 43.004 20.3792 43.1608 20.5366 43.2705C20.8356 43.4744 21.2763 43.3803 21.5439 43.1294C21.8272 42.8472 21.9216 42.4238 21.9059 42.0318C21.8114 43.2392 22.7557 44.7915 23.9047 45.2619C24.2981 45.4187 24.8175 45.5598 25.0851 45.2305C25.2897 44.9953 25.2267 44.5719 25.1323 44.3054C26.5488 45.4814 28.2171 45.8106 30.0428 45.9674C34.2922 46.3281 38.6204 46.7358 42.8856 46.8455C45.0575 46.9082 47.2295 46.8455 49.3857 46.5319C50.4559 46.3908 51.5104 46.187 52.5492 45.9047C53.4305 45.6695 54.1073 45.1835 54.8628 44.6817C54.7841 44.9796 55.0359 45.2775 55.3192 45.3559C55.6025 45.4343 55.9173 45.3559 56.2006 45.2462C57.6328 44.6347 58.1207 43.2862 58.5614 41.9377C58.5929 42.2827 58.6401 42.6747 58.8919 42.9099C59.7575 43.6939 59.9464 41.7966 59.9464 41.3889C59.9464 40.6677 59.8677 39.8994 60.2139 39.2565C61.1268 39.3349 62.3702 39.1154 62.4016 38.2059C62.4174 37.5317 61.6934 37.1084 61.174 36.6536C60.3871 35.948 60.0251 34.8818 59.726 33.8626C58.8919 31.0089 58.2938 28.0454 57.0347 25.3642C56.5153 24.2509 56.0117 23.4356 55.272 22.5261C55.0202 22.2125 55.0674 21.7578 55.1303 21.3658C55.3035 20.3153 55.2877 19.1079 55.9802 18.2456C56.1219 18.0731 56.295 17.9006 56.5153 17.8222C57.2393 17.5556 57.9318 18.2926 58.5614 17.587C58.8761 17.2264 58.9548 16.7089 58.8289 16.2385C58.5771 15.3605 57.6643 14.8117 57.019 14.2315C56.2163 13.5103 55.3192 12.789 54.249 12.6479C52.1872 12.3656 50.5346 14.2158 49.3227 15.8936C48.9765 16.3797 48.5358 17.3832 47.9692 17.587C47.3711 17.7908 46.537 17.3361 45.9546 17.148C45.2621 16.9284 44.5224 16.9441 43.7984 16.9755C41.7052 17.0539 39.6277 17.1166 37.5344 17.195C36.716 17.2264 33.7414 17.7438 33.3479 16.8501C32.7026 15.3918 30.1057 13.8709 28.642 13.3848V13.4005Z" fill="#5C564D"/>
<path d="M59.9778 40.0564C58.0892 37.971 55.6182 36.4187 52.8482 36.8891C52.3288 36.9832 51.7307 36.6696 51.7622 36.0581C51.8566 33.5493 51.2743 30.821 50.2198 28.5317C49.2755 26.4934 47.0248 25.1763 44.8372 26.2739C42.6652 27.3714 41.7051 30.2408 41.2959 32.4831C41.0599 33.7688 40.9654 35.0545 40.6192 36.3246C40.5877 36.4344 40.5562 36.5441 40.4618 36.6225C40.3674 36.7009 40.2414 36.6852 40.1155 36.6852C39.848 36.6852 39.5962 36.6539 39.3286 36.6382C39.1869 36.6382 39.0296 36.6225 38.9194 36.5441C38.7148 36.4187 38.6676 36.1521 38.6361 35.9013C38.2426 32.5928 37.7075 26.2111 33.0961 26.3836C29.1142 26.5247 27.7134 32.3733 27.2727 35.4779C27.2255 35.8699 26.7848 36.0737 26.4386 36.1051C23.9519 36.3089 19.4821 37.2811 19.907 40.5582C19.9385 40.8404 19.8598 41.0442 19.7024 41.1853C19.7496 41.7655 19.907 42.3457 20.1746 42.8474C20.269 43.0199 20.3634 43.1767 20.5208 43.2864C20.8198 43.4903 21.2605 43.3962 21.5281 43.1453C21.8114 42.8631 21.9058 42.4397 21.8901 42.0477C21.7956 43.2551 22.74 44.8074 23.8889 45.2778C24.2824 45.4346 24.8017 45.5757 25.0693 45.2464C25.2739 45.0112 25.211 44.5879 25.1165 44.3213C26.533 45.4973 28.2013 45.8266 30.027 45.9834C34.2765 46.344 38.6046 46.7517 42.8698 46.8614C45.0418 46.9242 47.2137 46.8614 49.3699 46.5478C50.4401 46.4067 51.4946 46.2029 52.5334 45.9206C53.4148 45.6854 54.0915 45.1994 54.847 44.6976C54.7683 44.9955 55.0201 45.2935 55.3034 45.3719C55.5867 45.4503 55.9015 45.3719 56.1848 45.2621C57.617 44.6506 58.1049 43.3021 58.5456 41.9537C58.5771 42.2986 58.6243 42.6906 58.8761 42.9258C59.7417 43.7098 59.9306 41.8125 59.9306 41.4049C59.9306 40.9658 59.9149 40.5111 59.9621 40.0721L59.9778 40.0564Z" fill="#F39B4A"/>
<path d="M28.7207 19.092C28.7049 19.0136 28.6892 18.9352 28.6577 18.8568C28.5948 18.6373 28.5003 18.4178 28.4216 18.1983C28.2642 17.7749 28.0282 17.43 27.6976 17.1321C27.5875 17.038 27.619 17.0537 27.493 16.9753C27.4616 16.9596 27.2412 16.8341 27.3199 16.8812C27.0838 16.7871 27.0366 16.7871 26.8792 16.7871C26.8478 16.7871 26.8163 16.7871 26.8005 16.7871C26.7691 16.7871 26.7218 16.8028 26.6904 16.8185C26.5802 16.8498 26.47 16.8812 26.3756 16.9282C26.4858 16.8812 26.2497 16.9909 26.2182 17.0066C26.1238 17.0537 26.0293 17.1007 25.9192 17.1634C25.51 17.3986 25.148 17.6652 24.8017 17.9474C24.5342 18.1669 24.2823 18.4021 24.0305 18.653C24.5971 19.5938 25.2109 20.5032 25.6831 21.5067C26.6431 21.0834 27.5403 20.4091 28.2957 19.7349C28.3901 19.6565 28.4846 19.5624 28.5633 19.4684C28.5948 19.437 28.6734 19.3272 28.6734 19.3272C28.6734 19.2959 28.7049 19.2802 28.7207 19.2488C28.7207 19.2175 28.7207 19.1704 28.7364 19.2175C28.7364 19.1704 28.7364 19.1234 28.7364 19.1077L28.7207 19.092Z" fill="#F39B4A"/>
<path d="M55.6024 18.9511C55.7283 18.6531 55.8542 18.3552 55.9959 18.073C55.6496 17.5712 54.5322 16.6304 53.8711 16.6775C52.8953 16.7402 50.3771 18.5591 51.3687 19.735C51.6992 20.127 52.2658 20.127 52.675 20.425C53.3518 20.9267 53.7138 21.6637 54.5322 21.9929C54.8312 20.9581 55.1932 19.9389 55.6024 18.9511Z" fill="#F39B4A"/>
<path d="M51.2272 45.0112C52.1558 43.8508 52.2817 42.2829 51.3374 40.7462C50.4245 39.288 48.7877 38.41 47.0879 38.065C46.5528 37.9552 46.002 37.8925 45.4826 37.7044C44.554 37.3594 43.8143 36.3402 42.9801 35.7758C41.5164 34.7879 39.5806 34.5998 37.9122 35.1486C36.9679 35.4622 36.4328 36.0109 35.6616 36.5597C34.4497 37.4221 33.2693 37.4848 31.8371 37.6887C30.216 37.9239 28.6736 38.8804 27.9181 40.3386C27.1627 41.7968 27.2571 43.6941 28.3274 44.9328C29.4133 46.2028 31.2075 46.0774 32.687 46.438C35.6616 47.1593 38.7621 47.0652 41.7997 46.9084C44.3809 46.7673 47.3712 47.3474 49.7478 46.1715C50.3616 45.8735 50.8652 45.4659 51.2272 45.0112Z" fill="white"/>
<path d="M31.5851 37.0298C32.437 37.0298 33.1275 36.3418 33.1275 35.4932C33.1275 34.6445 32.437 33.9565 31.5851 33.9565C30.7333 33.9565 30.0427 34.6445 30.0427 35.4932C30.0427 36.3418 30.7333 37.0298 31.5851 37.0298Z" fill="#231F20"/>
<path d="M47.6071 37.0298C48.4589 37.0298 49.1495 36.3418 49.1495 35.4932C49.1495 34.6445 48.4589 33.9565 47.6071 33.9565C46.7553 33.9565 46.0647 34.6445 46.0647 35.4932C46.0647 36.3418 46.7553 37.0298 47.6071 37.0298Z" fill="#231F20"/>
<path d="M39.5962 39.2721C41.239 39.2721 42.5708 38.4508 42.5708 37.4376C42.5708 36.4244 41.239 35.603 39.5962 35.603C37.9534 35.603 36.6216 36.4244 36.6216 37.4376C36.6216 38.4508 37.9534 39.2721 39.5962 39.2721Z" fill="#231F20"/>
<path d="M28.7522 20.3935C29.067 19.9544 29.5864 19.7036 30.0585 19.4684C30.5779 19.2175 31.0973 18.998 31.6324 18.7941C32.7341 18.3708 33.883 18.0415 35.0477 17.8063C37.3613 17.3359 39.7693 17.2418 42.1144 17.5554C42.4292 17.6025 42.744 17.477 42.8384 17.1477C42.9171 16.8812 42.744 16.4735 42.4292 16.4265C39.8166 16.0815 37.1882 16.1599 34.607 16.7087C33.3479 16.9753 32.1046 17.3516 30.9084 17.8377C29.7123 18.3237 28.4374 18.7784 27.7135 19.8133C27.2885 20.4405 28.2958 21.0207 28.7365 20.4091L28.7522 20.3935Z" fill="#231F20"/>
<path d="M43.5781 15.7682L43.4521 16.8501C43.4521 16.9285 43.4521 17.0069 43.4994 17.0696C43.5308 17.148 43.5623 17.2107 43.6253 17.2578C43.6725 17.3205 43.7354 17.3519 43.8141 17.3832C43.8771 17.4146 43.9558 17.4303 44.0345 17.4303H44.1919C44.2863 17.3832 44.3807 17.3362 44.4594 17.2578L44.5539 17.1323C44.6011 17.0383 44.6326 16.9442 44.6326 16.8344L44.7585 15.7525C44.7585 15.6741 44.7585 15.5957 44.7112 15.533C44.6798 15.4546 44.6483 15.3919 44.5853 15.3448C44.5381 15.2821 44.4752 15.2508 44.3965 15.2194C44.3335 15.188 44.2548 15.1724 44.1761 15.1724H44.0187C43.9243 15.2194 43.8299 15.2664 43.7512 15.3448L43.6568 15.4703C43.6095 15.5644 43.5781 15.6584 43.5781 15.7682Z" fill="#231F20"/>
<path d="M45.9233 17.9163C46.6788 18.0418 47.4185 18.3083 48.1267 18.5749C48.3471 18.6533 48.5674 18.7474 48.7878 18.8258C48.835 18.8414 48.8979 18.8728 48.9452 18.8885C49.0711 18.9355 48.9766 18.8885 48.9452 18.8885C48.9766 18.8885 48.9924 18.9041 49.0239 18.9198C49.134 18.9669 49.2442 19.0139 49.3544 19.0609C49.7636 19.2334 50.157 19.4216 50.5505 19.6254C50.8968 19.8136 51.243 20.0017 51.542 20.2369C51.7939 20.4251 52.2188 20.284 52.3447 20.0331C52.5021 19.7195 52.3919 19.4216 52.1401 19.2334C51.5263 18.763 50.7866 18.4338 50.0941 18.1202C49.2127 17.7282 48.3156 17.3675 47.4028 17.0696C47.025 16.9599 46.6473 16.8501 46.2696 16.7874C45.9705 16.7403 45.6243 16.8658 45.5456 17.1951C45.4826 17.4773 45.6243 17.8693 45.9548 17.9163H45.9233Z" fill="#231F20"/>
<path d="M26.3285 20.7074C24.5657 22.4635 23.0234 24.5019 21.8902 26.7127C21.3236 27.7946 20.8514 28.9549 20.5681 30.1309C20.2376 31.4324 20.1589 32.7965 19.7654 34.0822C19.4034 35.2582 18.7109 36.3558 17.5463 36.8732C17.2472 36.9987 17.1843 37.422 17.3417 37.6729C17.5148 37.9708 17.861 38.0022 18.1443 37.8768C20.5838 36.8262 21.0717 34.0038 21.4652 31.6832C21.9059 29.1274 22.9919 26.8538 24.4713 24.7371C25.274 23.5768 26.1868 22.5105 27.1784 21.507C27.7135 20.9739 26.8793 20.1429 26.3442 20.676L26.3285 20.7074Z" fill="#231F20"/>
<path d="M17.6565 39.3037C18.0185 39.6173 18.4592 39.8525 18.9313 39.9152C19.4664 39.9936 19.9701 39.9152 20.458 39.6957L19.5923 39.0371C19.0887 40.2288 19.1517 41.6243 19.6396 42.8003C19.7812 43.1296 19.9543 43.4432 20.1589 43.7254C20.3006 43.9292 20.5681 44.086 20.82 43.992C21.2764 43.8352 21.4653 43.3805 21.2449 42.9414C21.1033 42.6592 20.6941 42.5651 20.4422 42.7376C20.1589 42.9257 20.0802 43.2393 20.2376 43.5372C20.096 43.2393 20.1904 43.0041 20.5209 42.8473L21.182 43.1139C21.0718 42.9571 20.9616 42.8003 20.8672 42.6435C20.82 42.5651 20.7885 42.5024 20.757 42.424C20.7413 42.3769 20.7255 42.3299 20.6941 42.2985C20.7255 42.3926 20.7413 42.3926 20.7098 42.3456C20.7098 42.3299 20.6941 42.2985 20.6783 42.2829C20.6154 42.1104 20.5681 41.9536 20.5209 41.7811C20.5052 41.687 20.4737 41.593 20.458 41.4989C20.458 41.4518 20.4422 41.4048 20.4265 41.3578C20.4422 41.4989 20.4108 41.2323 20.4265 41.3578C20.4108 41.1696 20.395 40.9971 20.395 40.809C20.395 40.6208 20.4265 40.464 20.4265 40.2759C20.4265 40.464 20.4265 40.3072 20.4265 40.2602C20.4265 40.2131 20.4422 40.1661 20.458 40.1191C20.4737 40.0407 20.4894 39.9623 20.5209 39.8839C20.5681 39.6957 20.6311 39.5232 20.7098 39.3507C20.7413 39.2723 20.7413 39.1312 20.7098 39.0371C20.6783 38.9117 20.5996 38.802 20.5052 38.7392C20.3006 38.5824 20.0645 38.5981 19.8442 38.6922C19.7812 38.7236 19.7969 38.7079 19.8914 38.6765C19.8756 38.6765 19.8442 38.6922 19.8284 38.7079C19.7812 38.7079 19.7497 38.7392 19.7025 38.7549C19.6238 38.7706 19.5451 38.7863 19.4664 38.802C19.5609 38.802 19.5923 38.7863 19.5294 38.802C19.5136 38.802 19.4822 38.802 19.4664 38.802C19.4192 38.802 19.372 38.802 19.3248 38.802C19.2776 38.802 19.2304 38.802 19.1831 38.802C19.1674 38.802 19.1359 38.802 19.1202 38.802C19.2146 38.802 19.2461 38.8176 19.1989 38.802C19.1202 38.802 19.0257 38.7706 18.9471 38.7549C18.8998 38.7549 18.8526 38.7236 18.8211 38.7079C18.8054 38.7079 18.7739 38.6922 18.7582 38.6765C18.8369 38.7079 18.8684 38.7236 18.8211 38.7079C18.7425 38.6765 18.6638 38.6295 18.6008 38.5824C18.5693 38.5668 18.5221 38.5197 18.4906 38.504C18.5693 38.5668 18.5851 38.5668 18.5378 38.5354C18.5221 38.5354 18.5064 38.504 18.4906 38.4884C18.2545 38.2845 17.8768 38.2375 17.6565 38.4884C17.4519 38.7079 17.4047 39.0999 17.6565 39.3194V39.3037Z" fill="#231F20"/>
<path d="M21.1662 41.248C20.9301 43.1296 21.9846 45.0582 23.7001 45.8892C24.2038 46.1401 24.7231 46.2812 25.2897 46.3439C25.7304 46.391 26.0452 45.8108 25.7934 45.4659C25.6832 45.3091 25.5888 45.1366 25.4943 44.9798C25.4471 44.8857 25.3999 44.7916 25.3527 44.6976C25.3999 44.8073 25.3055 44.5878 25.3527 44.6976C25.337 44.6505 25.3212 44.6035 25.2897 44.5564C25.2268 44.3683 25.1638 44.1958 25.1324 44.0077C25.1166 43.9136 25.1009 43.8352 25.0851 43.7411C25.0851 43.7097 25.0851 43.6941 25.0851 43.6627C25.0851 43.7568 25.0851 43.7725 25.0851 43.7097C25.0851 43.6627 25.0851 43.6 25.0851 43.5529C25.0851 43.3961 25.0222 43.255 24.912 43.1296C24.8018 43.0198 24.6444 42.9571 24.4871 42.9571C24.188 42.9571 23.8733 43.2237 23.889 43.5529C23.9677 44.4467 24.251 45.3248 24.7704 46.0617L25.274 45.1836C25.274 45.1836 25.2268 45.1836 25.211 45.1836C25.3684 45.1836 25.3055 45.1836 25.2583 45.1836C25.211 45.1836 25.1638 45.1836 25.1166 45.1523C25.0064 45.1366 24.912 45.1052 24.8018 45.0739C24.7231 45.0425 24.6287 45.0268 24.55 44.9955C24.5028 44.9955 24.4556 44.9641 24.4241 44.9484C24.4084 44.9484 24.3297 44.9014 24.4241 44.9484C24.5185 44.9955 24.4241 44.9484 24.3926 44.9484C24.2038 44.87 24.0306 44.776 23.8575 44.6662C23.7788 44.6192 23.7001 44.5565 23.6214 44.5094C23.59 44.4781 23.5742 44.4467 23.6529 44.5408C23.6529 44.5251 23.6214 44.5094 23.59 44.4937C23.5585 44.4624 23.5113 44.431 23.4798 44.3997C23.3224 44.2742 23.1807 44.1331 23.0548 43.9763C23.0234 43.9449 22.9919 43.8979 22.9604 43.8665C22.9604 43.8665 23.0391 43.9763 22.9919 43.8979C22.9919 43.8822 22.9604 43.8509 22.9447 43.8352C22.8817 43.7568 22.8188 43.6627 22.7715 43.5686C22.7243 43.4902 22.6771 43.4118 22.6456 43.3177C22.6299 43.2707 22.5984 43.2237 22.5827 43.1923C22.5827 43.1923 22.5669 43.1296 22.5512 43.1296C22.5827 43.208 22.5984 43.2237 22.5669 43.1923C22.5669 43.1766 22.5669 43.1609 22.5512 43.1453C22.4725 42.9571 22.4095 42.7533 22.3623 42.5651C22.3309 42.4554 22.3151 42.3299 22.2994 42.2202C22.2994 42.2202 22.3151 42.3613 22.2994 42.2672C22.2994 42.2358 22.2994 42.2045 22.2994 42.1731C22.2994 42.1104 22.2994 42.0634 22.2994 42.0006C22.2994 41.7654 22.2994 41.5302 22.3309 41.295C22.3466 41.1539 22.2522 40.9658 22.1577 40.8717C22.0476 40.7619 21.8902 40.6992 21.7328 40.6992C21.5754 40.6992 21.418 40.7619 21.3078 40.8717C21.1977 40.9971 21.1504 41.1226 21.1347 41.295L21.1662 41.248Z" fill="#231F20"/>
<path d="M23.9361 43.647C24.361 44.431 24.8332 45.215 25.5887 45.7481C26.3913 46.3126 27.493 46.4693 28.4531 46.5948C30.5149 46.877 32.6239 46.6889 34.6699 47.1122C34.9847 47.1749 35.3152 47.0181 35.3939 46.7045C35.4726 46.4066 35.2995 46.046 34.9847 45.9833C33.0016 45.5756 30.987 45.701 28.9725 45.4815C28.5003 45.4345 28.0282 45.3561 27.556 45.2463C27.1468 45.1522 26.7061 45.0582 26.3441 44.8386C25.6831 44.4467 25.3054 43.7097 24.9591 43.0512C24.6129 42.3926 23.5741 42.9728 23.9361 43.647Z" fill="#231F20"/>
<path d="M53.6195 22.0089C55.3036 23.6867 56.6414 25.7094 57.507 27.9202C57.9477 29.0335 58.2625 30.1938 58.4828 31.3855C58.7189 32.6712 58.8605 33.9883 59.3956 35.1956C59.8835 36.3403 60.702 37.3908 61.8666 37.8926C62.1657 38.018 62.4962 37.971 62.6693 37.6887C62.8109 37.4379 62.748 37.0145 62.4647 36.8891C60.1354 35.9012 59.9937 33.0005 59.5845 30.868C59.1438 28.5474 58.2467 26.3052 56.9719 24.3295C56.2479 23.2006 55.398 22.1501 54.4537 21.1936C53.9186 20.6605 53.0844 21.4915 53.6195 22.0246V22.0089Z" fill="#231F20"/>
<path d="M61.4889 38.4723C61.4889 38.4723 61.4575 38.5036 61.4417 38.5193C61.3945 38.5507 61.4102 38.5507 61.4889 38.4879C61.4575 38.5036 61.4102 38.535 61.3788 38.5663C61.3158 38.6134 61.2371 38.6447 61.1742 38.6761C61.1112 38.7075 61.1269 38.6918 61.2214 38.6604C61.2056 38.6604 61.1742 38.6761 61.1584 38.6918C61.1112 38.6918 61.0797 38.7231 61.0325 38.7388C60.9538 38.7702 60.8751 38.7859 60.7807 38.7859C60.7335 38.7859 60.765 38.7859 60.8594 38.7859C60.8436 38.7859 60.8122 38.7859 60.7964 38.7859C60.7492 38.7859 60.702 38.7859 60.6548 38.7859C60.6076 38.7859 60.5603 38.7859 60.5131 38.7859C60.4974 38.7859 60.34 38.7702 60.4502 38.7859C60.5603 38.8015 60.4187 38.7859 60.3872 38.7859C60.34 38.7859 60.2928 38.7702 60.2613 38.7545C60.2298 38.7388 60.1669 38.7231 60.1354 38.7075C60.1197 38.7075 60.0882 38.6918 60.0724 38.6761C60.1669 38.7075 60.1826 38.7231 60.1197 38.6918C59.8993 38.582 59.6632 38.582 59.4586 38.7388C59.2855 38.8643 59.1596 39.1465 59.254 39.3503C59.3327 39.5228 59.3957 39.6953 59.4429 39.8834C59.4586 39.9618 59.4901 40.0402 59.5059 40.1186C59.5059 40.1657 59.5216 40.2127 59.5373 40.2598C59.5531 40.3068 59.5373 40.4636 59.5373 40.2754C59.5373 40.4479 59.5688 40.6204 59.5688 40.8085C59.5688 40.9967 59.5688 41.1692 59.5373 41.3573C59.5531 41.2476 59.5216 41.4985 59.5373 41.3573C59.5373 41.4044 59.5373 41.4514 59.5059 41.4985C59.4901 41.5925 59.4744 41.6866 59.4429 41.7807C59.3957 41.9532 59.3485 42.1256 59.2855 42.2824C59.2855 42.2981 59.2698 42.3295 59.254 42.3452C59.2226 42.4079 59.2383 42.3922 59.2698 42.2981C59.2383 42.3295 59.2226 42.3922 59.2068 42.4236C59.1753 42.502 59.1281 42.5647 59.0966 42.6431C59.0022 42.8156 58.9078 42.9724 58.7819 43.1135L59.4429 42.8469C59.7734 43.0037 59.8678 43.2232 59.7262 43.5368C59.8678 43.2546 59.8049 42.894 59.5216 42.7372C59.254 42.596 58.8606 42.6588 58.7189 42.941C58.4986 43.3644 58.6874 43.8191 59.1439 43.9915C59.4114 44.0856 59.6632 43.9288 59.8049 43.725C60.5918 42.6588 60.8594 41.2946 60.6548 40.0089C60.6076 39.6796 60.5131 39.3503 60.3715 39.0367L59.5059 39.6953C59.9938 39.9305 60.4974 39.9932 61.0325 39.9148C61.5047 39.8521 61.9454 39.6169 62.3073 39.3033C62.5434 39.0994 62.5277 38.6761 62.3073 38.4723C62.0555 38.2527 61.725 38.2527 61.4732 38.4723H61.4889Z" fill="#231F20"/>
<path d="M57.6486 41.2477C57.6801 41.4515 57.6801 41.671 57.6801 41.8749C57.6801 41.969 57.6801 42.063 57.6644 42.1571C57.6644 42.1885 57.6644 42.2042 57.6644 42.2355C57.6644 42.3139 57.6801 42.1101 57.6644 42.1885C57.6644 42.2355 57.6486 42.2982 57.6329 42.3453C57.6014 42.5491 57.5385 42.753 57.4755 42.9568C57.4598 43.0038 57.444 43.0509 57.4283 43.0979C57.4283 43.1136 57.4126 43.1449 57.3968 43.1606C57.3968 43.1606 57.4598 43.0352 57.3968 43.1293C57.3339 43.2233 57.3181 43.3017 57.2709 43.3958C57.2237 43.4899 57.1765 43.5683 57.1135 43.6467C57.0821 43.6937 57.0663 43.7251 57.0348 43.7721C57.0348 43.7878 57.0034 43.8192 56.9876 43.8349C56.9876 43.8349 56.9719 43.8662 56.9561 43.8819C56.9247 43.9133 56.9561 43.8976 56.9876 43.8349C56.9247 43.8819 56.8617 43.9917 56.7988 44.0544C56.7358 44.1328 56.6571 44.1955 56.5941 44.2739C56.5312 44.3366 56.4682 44.3993 56.3895 44.4464C56.3738 44.4464 56.3581 44.4777 56.3423 44.4934C56.2636 44.5561 56.3738 44.4777 56.3738 44.462C56.3266 44.4934 56.2794 44.5248 56.2322 44.5718C56.0748 44.6816 55.9016 44.7756 55.7285 44.8697C55.6813 44.9011 55.6341 44.9168 55.5869 44.9324C55.5711 44.9324 55.5397 44.9481 55.5239 44.9638C55.6656 44.8854 55.5711 44.9481 55.5239 44.9638C55.4295 44.9952 55.3193 45.0422 55.2249 45.0736C55.1304 45.1049 55.0203 45.1363 54.9101 45.152C54.8471 45.152 54.7999 45.1676 54.737 45.1833C54.7212 45.1833 54.6898 45.1833 54.674 45.1833H54.7685C54.7685 45.1833 54.7212 45.1833 54.7055 45.1833L55.2091 46.0614C55.7285 45.3244 56.0118 44.4464 56.0905 43.5526C56.122 43.239 55.8072 42.9568 55.4924 42.9568C55.1462 42.9568 54.9258 43.2233 54.8944 43.5526C54.8944 43.5997 54.8944 43.6624 54.8944 43.7094C54.8944 43.7721 54.8944 43.7565 54.8944 43.6624C54.8944 43.6937 54.8944 43.7094 54.8944 43.7408C54.8944 43.8349 54.8629 43.9133 54.8471 44.0073C54.7999 44.1955 54.7527 44.3836 54.6898 44.5561C54.674 44.6032 54.6583 44.6502 54.6268 44.6972C54.6898 44.5718 54.5796 44.8227 54.6268 44.6972C54.5796 44.7913 54.5481 44.8854 54.4852 44.9795C54.3907 45.152 54.2963 45.3088 54.1861 45.4656C53.95 45.8105 54.2648 46.4063 54.6898 46.3436C55.1934 46.2809 55.6656 46.1555 56.1377 45.9516C56.5627 45.7635 56.9404 45.5126 57.2867 45.2147C57.9949 44.6032 58.5143 43.7408 58.7189 42.8313C58.8448 42.3139 58.8763 41.7651 58.8133 41.2477C58.7976 41.0909 58.7661 40.9498 58.6402 40.8243C58.53 40.7146 58.3726 40.6519 58.2152 40.6519C58.0579 40.6519 57.9005 40.7146 57.7903 40.8243C57.6959 40.9341 57.6014 41.0909 57.6172 41.2477H57.6486Z" fill="#231F20"/>
<path d="M55.0361 43.051C54.7055 43.6625 54.375 44.2897 53.8242 44.7131C53.5881 44.9013 53.2104 45.0424 52.8798 45.1208C52.4706 45.2305 52.0614 45.3246 51.6522 45.4187C49.9052 45.795 48.1268 46.0145 46.3798 46.3752C46.065 46.4379 45.8919 46.8142 45.9705 47.0964C46.065 47.4257 46.3798 47.5668 46.6945 47.5041C48.1268 47.2062 49.559 47.018 50.9912 46.7515C51.6994 46.626 52.4077 46.4692 53.1159 46.2811C53.777 46.1086 54.3593 45.842 54.8472 45.356C55.3351 44.8699 55.7128 44.2427 56.0433 43.6312C56.4053 42.9726 55.3823 42.3768 55.0203 43.0354L55.0361 43.051Z" fill="#231F20"/>
<path d="M33.5841 16.3012C32.4194 15.2036 31.1131 14.1687 29.6809 13.4318C28.9726 13.0712 28.2172 12.8046 27.4145 12.7262C26.6118 12.6478 25.8721 12.8516 25.1638 13.1966C23.8418 13.8552 22.7243 15.0311 21.9059 16.2542C21.481 16.897 21.0088 17.6967 21.2606 18.5121C21.5125 19.3274 22.3151 19.7664 23.1335 19.4372C23.952 19.1079 24.8018 18.6218 25.573 18.1514C26.3442 17.681 27.0997 17.1793 27.8079 16.6305C28.0598 16.4423 28.2014 16.1287 28.0126 15.8308C27.8709 15.5799 27.4617 15.4231 27.2099 15.627C26.1082 16.4737 24.9278 17.2263 23.7001 17.8692C23.4168 18.026 23.1178 18.1828 22.8188 18.3082C22.6142 18.4023 22.504 18.4493 22.4096 18.2455C22.205 17.8065 22.7401 17.1322 22.9762 16.7873C23.6372 15.7994 24.5343 14.89 25.5888 14.3255C26.7377 13.6984 27.9496 13.9022 29.0828 14.4667C30.4363 15.1566 31.6482 16.113 32.7499 17.1479C33.3008 17.6653 34.1349 16.8343 33.5841 16.3169V16.3012Z" fill="#231F20"/>
<path d="M26.7378 17.3673C27.2887 17.822 27.7766 18.3395 28.2172 18.904L28.1228 18.7785C28.1858 18.8726 28.2645 18.951 28.3274 19.0451C28.4691 19.2332 28.595 19.4527 28.8468 19.5155C28.957 19.5468 29.0829 19.5468 29.1931 19.5155C29.3032 19.4841 29.4134 19.4371 29.4763 19.3587C29.5393 19.2803 29.6023 19.1862 29.6337 19.0764C29.6652 18.9667 29.6652 18.9196 29.6337 18.8099C29.6337 18.7158 29.6023 18.6531 29.555 18.5747C29.4921 18.4806 29.4134 18.4022 29.3347 18.3552C29.2875 18.3238 29.2403 18.3081 29.1931 18.2924C29.0986 18.2768 28.9727 18.2611 28.8783 18.2924C28.7838 18.3238 28.6737 18.3708 28.595 18.4492C28.4848 18.559 28.4218 18.7158 28.4218 18.8726C28.4218 19.0294 28.4848 19.1862 28.595 19.2959C28.7051 19.4057 28.8625 19.4684 29.0199 19.4684C29.1773 19.4684 29.319 19.4057 29.4449 19.2959C29.4449 19.2959 29.3662 19.3587 29.319 19.3743C29.319 19.3743 29.2245 19.4057 29.1773 19.4371C29.0671 19.4371 28.9727 19.4371 28.8625 19.4371C28.8625 19.4371 28.7681 19.4057 28.7209 19.3743C28.7209 19.3743 28.6422 19.3116 28.595 19.2803L28.5005 19.1548L28.4376 19.0137C28.4376 19.0137 28.4376 19.0137 28.4376 19.0294V18.8726C28.4376 18.8726 28.4218 18.8883 28.4218 18.904V18.7472H28.4376L28.5005 18.606C28.5005 18.606 28.5635 18.5276 28.595 18.4963C28.595 18.4963 28.6737 18.4336 28.7209 18.4179C28.7209 18.4179 28.8153 18.3865 28.8625 18.3708C28.8625 18.3708 28.8625 18.3708 28.8468 18.3708H29.0042V18.3552H29.1616C29.1616 18.3552 29.1458 18.3708 29.1301 18.3552L29.2717 18.4179C29.2717 18.4179 29.256 18.4179 29.2403 18.4179L29.3662 18.512C29.3662 18.512 29.3347 18.4806 29.319 18.4649L29.4134 18.5904C29.3032 18.4492 29.2088 18.3081 29.1144 18.1827C28.9727 18.0102 28.8468 17.8377 28.7051 17.6652C28.4848 17.3987 28.233 17.1478 27.9812 16.9126C27.8395 16.7715 27.6979 16.6461 27.5405 16.5206C27.4933 16.4579 27.4303 16.4265 27.3516 16.3952C27.2887 16.3638 27.21 16.3481 27.1313 16.3481C26.9896 16.3481 26.8165 16.4109 26.7063 16.5206C26.5962 16.6304 26.5332 16.7872 26.5332 16.944C26.5332 17.0851 26.5804 17.2576 26.7063 17.3673H26.7378Z" fill="#231F20"/>
<path d="M24.0305 19.1549C24.5027 19.9232 24.9434 20.7072 25.3368 21.5225C25.3998 21.648 25.5572 21.7577 25.6831 21.7891C25.8247 21.8204 26.0136 21.8048 26.1395 21.7264C26.2654 21.648 26.3756 21.5225 26.4071 21.3814C26.4385 21.2246 26.4071 21.0835 26.3441 20.9267C25.9506 20.1113 25.51 19.3274 25.0378 18.559C24.9591 18.4336 24.8332 18.3238 24.6915 18.2925C24.5499 18.2611 24.361 18.2768 24.2351 18.3552C24.1092 18.4336 23.999 18.559 23.9676 18.7002C23.9361 18.8413 23.9361 19.0138 24.0305 19.1549Z" fill="#231F20"/>
<path d="M48.4886 17.587C49.37 16.5051 50.2671 15.3918 51.2901 14.4354C51.6993 14.059 52.14 13.7141 52.6594 13.5102C53.1945 13.2907 53.7296 13.3064 54.2805 13.5102C54.8628 13.7141 55.4294 14.0434 55.9488 14.357C56.4682 14.6705 56.9718 15.0312 57.3967 15.4702C57.743 15.8152 58.1207 16.2856 58.1365 16.7716C58.1365 16.9441 58.1365 17.0852 57.9633 17.195C57.7745 17.3361 57.5069 17.3361 57.2866 17.3361C56.5469 17.3361 55.8543 16.9912 55.1933 16.6776C54.4693 16.3326 53.7454 15.9406 53.0528 15.5329C52.3918 15.1409 51.8095 16.1601 52.4548 16.5521C53.1473 16.9598 53.8713 17.3361 54.5952 17.6967C55.3664 18.0731 56.1376 18.4023 57.0033 18.4964C57.7745 18.5748 58.6244 18.3867 59.065 17.7124C59.49 17.0696 59.3169 16.2385 58.9706 15.5957C58.2781 14.3099 56.8616 13.4632 55.5868 12.8203C54.8943 12.4597 54.1546 12.1461 53.3519 12.1775C52.6279 12.2088 51.9197 12.4911 51.3216 12.8987C50.6448 13.3534 50.0782 13.9336 49.5431 14.5294C48.8821 15.2664 48.2525 16.0033 47.623 16.7716C47.4184 17.0225 47.3869 17.3675 47.623 17.6027C47.8276 17.8065 48.2525 17.8535 48.4571 17.6027L48.4886 17.587Z" fill="#231F20"/>
<path d="M52.5806 16.4269C52.2973 16.6778 52.0455 16.9444 51.8094 17.2266C51.5576 17.5559 51.3215 17.8851 51.1169 18.2615C50.991 18.481 50.8966 18.7162 50.8021 18.9671C50.7549 19.0925 50.8021 19.2963 50.8651 19.4218C50.9281 19.5472 51.0697 19.657 51.2114 19.6883C51.3687 19.7197 51.5261 19.7197 51.6678 19.6256L51.7937 19.5315C51.7937 19.5315 51.9196 19.3747 51.9511 19.265C51.9668 19.2179 51.9825 19.1866 51.9983 19.1395L51.9353 19.2807C52.1399 18.8103 52.3918 18.3712 52.7065 17.9792L52.6121 18.1047C52.8482 17.7911 53.1157 17.5088 53.4148 17.258C53.5249 17.1639 53.5879 16.9757 53.5879 16.8346C53.5879 16.6935 53.5249 16.521 53.4148 16.4112C53.3046 16.3015 53.1472 16.2388 52.9898 16.2388C52.8324 16.2388 52.6908 16.3015 52.5649 16.4112L52.5806 16.4269Z" fill="#231F20"/>
<path d="M55.4766 17.9478C55.2563 18.4182 55.0674 18.9043 54.9258 19.4061C54.7841 19.9078 54.6897 20.4096 54.6267 20.927C54.611 21.0681 54.7054 21.2563 54.7999 21.3504C54.91 21.4601 55.0674 21.5228 55.2248 21.5228C55.3822 21.5228 55.5396 21.4601 55.6497 21.3504L55.7442 21.2249C55.7914 21.1308 55.8229 21.0368 55.8229 20.927C55.8229 20.9113 55.8229 20.8956 55.8229 20.88V21.0368C55.9173 20.2214 56.1376 19.4217 56.4524 18.6534L56.3895 18.7945C56.4209 18.7161 56.4682 18.6221 56.4996 18.5437C56.5626 18.4026 56.6098 18.2458 56.5626 18.089C56.5311 17.9478 56.4209 17.8067 56.295 17.744C56.1534 17.6656 55.996 17.6342 55.8386 17.6813C55.697 17.7283 55.5553 17.8224 55.4924 17.9478H55.4766Z" fill="#231F20"/>
</svg>
