<svg width="80" height="76" viewBox="0 0 80 76" fill="none" xmlns="http://www.w3.org/2000/svg">
<path d="M53.1651 49.1403C52.5985 49.1246 52.0477 49.2657 51.6542 49.6734C51.5913 49.7361 51.5441 49.7989 51.5283 49.8773C51.5283 49.9713 51.5755 50.0811 51.6227 50.1595C52.4726 51.6491 52.5985 53.515 51.9533 55.0986C51.7172 55.6945 51.3552 56.2589 50.8201 56.6039C50.285 56.9488 49.561 57.0586 49.0101 56.7293C49.7184 53.515 48.4435 50.1752 47.1687 47.2587C46.9326 46.7256 46.6178 45.6437 46.1299 45.2988C44.4301 42.7273 41.55 40.9398 38.4809 40.5948C35.3017 40.2342 31.9965 41.3788 29.7302 43.621C25.7797 47.541 22.6949 61.2765 31.8234 60.8218L32.4687 60.1318C32.7677 60.6179 33.2399 60.9629 34.0111 61.0726C36.7496 61.449 37.3949 59.7555 37.5523 57.7172C37.7097 59.7399 38.355 61.4333 41.0935 61.0726C42.6674 60.8531 44.1626 60.665 45.6578 60.1475C47.1844 59.6144 48.5852 59.9123 50.1118 60.0064C51.8116 60.1005 53.5429 59.1597 54.8492 58.1562C56.1712 57.1527 56.6434 55.7572 56.7378 54.1578C56.8165 52.7467 56.7378 51.163 55.7148 50.1909C55.4 49.8929 55.0381 49.6891 54.6446 49.5166C54.1882 49.3128 53.6688 49.156 53.1651 49.1403Z" fill="#F39B4A"/>
<path d="M51.0408 58.4685C53.8737 57.3553 55.8883 54.2036 55.1643 51.1147C55.0856 50.8011 54.9912 50.4875 54.7866 50.221C54.4561 49.7819 53.9052 49.5624 53.3544 49.5154C52.9609 49.484 51.1982 49.3899 51.6231 50.1426C52.473 51.6321 52.5989 53.498 51.9536 55.0817C51.7175 55.6775 51.3555 56.242 50.8204 56.587C49.7974 57.2612 49.0577 56.9006 48.4911 58.249C48.0976 59.2055 50.2066 58.7351 50.5529 58.6253C50.7103 58.5783 50.8676 58.5156 51.025 58.4528L51.0408 58.4685Z" fill="#5C564D"/>
<path d="M31.2883 48.1369C30.643 47.0393 29.3996 46.0985 28.3294 45.5027C27.6684 45.1264 25.8427 53.3896 25.9371 54.205C26.5352 53.7189 27.1018 53.468 27.8573 53.2015C28.9432 52.8252 30.0607 52.4018 30.8476 51.5708C31.9808 50.3791 31.9021 49.1875 31.304 48.1369H31.2883Z" fill="#5C564D"/>
<path d="M47.1847 47.2586C47.0431 46.9293 46.8542 46.3805 46.6181 45.9258C46.2561 46.1923 45.8784 46.4432 45.5321 46.7254C44.2888 47.729 42.3686 48.9833 43.313 50.8649C44.2888 52.8249 47.2319 53.4207 49.0576 54.2831C50.0806 52.9974 47.767 48.5913 47.2004 47.2742L47.1847 47.2586Z" fill="#5C564D"/>
<path d="M31.4614 55.4278C31.4614 56.4156 31.3354 57.4035 31.3827 58.3913C31.4456 59.4575 31.7447 60.5394 32.6575 61.1823C33.1611 61.5429 33.8064 61.6527 34.4045 61.6841C34.9711 61.7154 35.5534 61.6684 36.0728 61.4489C36.5922 61.2293 37.0014 60.9001 37.3319 60.4453C37.6152 60.0533 37.7883 59.5986 37.8985 59.1282C38.1818 57.9836 38.1661 56.7763 38.1503 55.616C38.1503 55.3024 37.8828 55.0201 37.5522 55.0201C37.2217 55.0201 36.9542 55.271 36.9542 55.616C36.9542 56.1177 36.9542 56.6195 36.9542 57.1055C36.9542 57.3564 36.9384 57.5916 36.907 57.8425C36.907 57.9523 36.8912 58.062 36.8755 58.1875C36.8755 58.2345 36.844 58.3443 36.8755 58.1561C36.8755 58.1875 36.8755 58.2188 36.8755 58.2502C36.8755 58.3129 36.8597 58.3756 36.844 58.4226C36.8125 58.6422 36.7496 58.8617 36.6866 59.0655C36.6551 59.1596 36.6237 59.2537 36.5922 59.3478C36.545 59.4889 36.6551 59.2223 36.5922 59.3478C36.5607 59.4105 36.545 59.4575 36.5135 59.5202C36.4663 59.5986 36.4191 59.6927 36.3718 59.7711C36.3404 59.8025 36.3246 59.8338 36.2931 59.8809C36.2302 59.9593 36.3876 59.7711 36.3246 59.8495C36.3089 59.8809 36.2774 59.8966 36.2617 59.9279C36.1987 59.9906 36.1358 60.069 36.0571 60.1317C36.0413 60.1317 36.0256 60.1631 36.0099 60.1788C35.9626 60.2258 36.1358 60.0847 36.0571 60.1474C36.0099 60.1788 35.9626 60.2101 35.8997 60.2572C35.821 60.3042 35.7108 60.3356 35.6321 60.3983C35.7108 60.3356 35.758 60.3513 35.6951 60.3669C35.6636 60.3669 35.6479 60.3826 35.6164 60.3983C35.5534 60.414 35.4905 60.4453 35.4275 60.461C35.3173 60.4924 35.2072 60.5081 35.097 60.5237C35.097 60.5237 35.2544 60.5081 35.16 60.5237C35.1285 60.5237 35.097 60.5237 35.0655 60.5237C34.9868 60.5237 34.9081 60.5237 34.8452 60.5237C34.7193 60.5237 34.5776 60.5237 34.4517 60.5237C34.373 60.5237 34.2943 60.5237 34.2156 60.5081C34.1684 60.5081 34.1369 60.5081 34.0897 60.5081C33.9481 60.4924 34.2156 60.5237 34.0897 60.5081C33.9638 60.4924 33.8536 60.461 33.7277 60.4297C33.6648 60.414 33.6018 60.3826 33.5546 60.3669C33.4444 60.3356 33.6805 60.4297 33.5861 60.3669C33.5546 60.3669 33.5389 60.3356 33.5074 60.3356C33.413 60.2885 33.3343 60.2258 33.2398 60.1788C33.1454 60.1318 33.35 60.2729 33.2713 60.2102C33.2556 60.1945 33.2241 60.1788 33.2084 60.1631C33.1611 60.1317 33.1297 60.0847 33.0982 60.0533C33.0667 60.022 33.0352 59.9593 32.988 59.9279C33.0824 59.9906 33.0667 60.0377 33.0352 59.9906C33.0352 59.9749 33.0038 59.9436 32.988 59.9279C32.9251 59.8338 32.8778 59.7398 32.8306 59.6457C32.8306 59.6143 32.8149 59.5986 32.7992 59.5673C32.7519 59.4732 32.8464 59.7084 32.8149 59.6143C32.8149 59.5673 32.7834 59.5359 32.7677 59.4889C32.7362 59.3791 32.7047 59.2694 32.6732 59.1596C32.6418 59.0498 32.626 58.9558 32.6103 58.846C32.6103 58.8146 32.6103 58.7833 32.6103 58.7519C32.6418 58.9244 32.6103 58.846 32.6103 58.799C32.6103 58.7362 32.6103 58.6735 32.5945 58.5951C32.5001 57.5446 32.6575 56.494 32.6575 55.4435C32.6575 55.1299 32.3899 54.8477 32.0594 54.8477C31.7289 54.8477 31.4771 55.0985 31.4614 55.4435V55.4278Z" fill="#231F20"/>
<path d="M46.807 45.2355C44.7295 41.9584 40.9995 39.8573 37.0962 39.9357C33.7124 39.9984 30.2814 41.6291 28.314 44.4201C26.992 46.3174 26.1421 48.6066 25.6699 50.8489C25.1978 53.0911 25.0089 55.5842 25.8431 57.7637C26.268 58.8612 26.9448 59.8334 27.9363 60.4919C29.0695 61.2446 30.4702 61.4641 31.8238 61.417C32.5792 61.3857 32.5792 60.2097 31.8238 60.2411C29.8407 60.3351 28.0465 59.6609 27.1494 57.8264C26.2523 55.9918 26.3467 53.828 26.6615 51.9308C27.0077 49.814 27.7002 47.7286 28.7862 45.8784C30.2027 43.448 32.6422 41.8487 35.4122 41.3155C39.4256 40.5315 43.6121 42.4288 45.784 45.8627C46.1932 46.5056 47.2163 45.9097 46.807 45.2668V45.2355Z" fill="#231F20"/>
<path d="M42.4629 55.428C42.4629 56.3688 42.5888 57.2939 42.5416 58.2347C42.5416 58.3444 42.5416 58.4542 42.5258 58.5796C42.5258 58.6423 42.5258 58.6894 42.5101 58.7521C42.5101 58.7835 42.5101 58.7991 42.5101 58.8305C42.5101 58.7835 42.5258 58.6267 42.5101 58.8305C42.4786 59.05 42.4314 59.2695 42.3527 59.4734C42.3527 59.5204 42.3212 59.5518 42.3055 59.5988C42.274 59.7086 42.3685 59.4577 42.3212 59.5518C42.3212 59.5831 42.3055 59.5988 42.2898 59.6302C42.2425 59.7242 42.1953 59.8183 42.1324 59.9124C42.1324 59.9281 42.1009 59.9438 42.1009 59.9594C42.0694 60.0222 42.0379 59.9908 42.1324 59.9124C42.1009 59.9438 42.0694 59.9908 42.0222 60.0378C41.9907 60.0692 41.9592 60.1006 41.9278 60.1319C41.912 60.1476 41.8806 60.1633 41.8648 60.179C41.7546 60.273 41.9592 60.1162 41.8648 60.179C41.7704 60.2417 41.6917 60.2887 41.5973 60.3357C41.55 60.3671 41.3927 60.3985 41.5815 60.3357C41.5186 60.3514 41.4399 60.3828 41.3769 60.4141C41.251 60.4455 41.1408 60.4769 41.0149 60.4926C40.9677 60.4926 40.952 60.5239 41.0621 60.4926C41.0307 60.4926 40.9677 60.4926 40.9362 60.4926C40.8418 60.4926 40.7631 60.5082 40.6687 60.5082C40.5428 60.5082 40.4011 60.5082 40.2752 60.5082C40.2122 60.5082 40.1336 60.5082 40.0706 60.5082C40.0076 60.5082 39.803 60.4612 39.9919 60.5082C39.8817 60.4769 39.7716 60.4769 39.6614 60.4455C39.5984 60.4455 39.5512 60.4141 39.4883 60.3985C39.4568 60.3985 39.4411 60.3828 39.4096 60.3671C39.3466 60.3358 39.3466 60.3044 39.4411 60.3828C39.3781 60.3201 39.2522 60.2887 39.1735 60.2417C39.1263 60.2103 39.0791 60.179 39.0476 60.1476C38.9531 60.0849 39.0318 60.1476 39.0476 60.1476C39.142 60.2103 39.0476 60.1476 39.0318 60.1319C38.9531 60.0692 38.8902 60.0065 38.8272 59.9281C38.78 59.881 38.7013 59.7399 38.8115 59.9124C38.78 59.8654 38.7485 59.834 38.7171 59.787C38.6699 59.7086 38.6226 59.6302 38.5754 59.5361C38.5439 59.489 38.5282 59.442 38.5125 59.395C38.5125 59.3793 38.5125 59.3636 38.4967 59.3479C38.4495 59.2538 38.5597 59.5047 38.4967 59.3479C38.418 59.1441 38.3551 58.9402 38.3079 58.7364C38.2764 58.611 38.2606 58.4855 38.2292 58.3601C38.2292 58.2974 38.2134 58.2347 38.1977 58.1876C38.182 58.0779 38.2134 58.3444 38.1977 58.219C38.1977 58.1876 38.1977 58.1406 38.1977 58.1092C38.1662 57.8427 38.1505 57.5761 38.1347 57.3095C38.1033 56.7451 38.119 56.1806 38.119 55.6161C38.119 55.3025 37.8514 55.0203 37.5209 55.0203C37.1904 55.0203 36.9386 55.2712 36.9229 55.6161C36.9229 56.6824 36.9229 57.7643 37.1117 58.8148C37.3006 59.7713 37.7413 60.7277 38.6069 61.2452C39.0948 61.5431 39.6771 61.6529 40.228 61.6842C40.8733 61.6999 41.55 61.6215 42.1324 61.3393C43.1711 60.8532 43.5646 59.7556 43.6748 58.705C43.7849 57.6545 43.6276 56.5099 43.6276 55.3966C43.6276 55.083 43.36 54.8008 43.0295 54.8008C42.699 54.8008 42.4314 55.0517 42.4314 55.3966L42.4629 55.428Z" fill="#231F20"/>
<path d="M45.7686 45.7382C45.989 45.8637 46.1149 46.2086 46.2251 46.4281C46.3667 46.7417 46.4612 47.0553 46.5871 47.3689C46.7917 47.8707 47.012 48.3724 47.2009 48.8899C47.6258 50.0345 47.9878 51.1948 48.2396 52.3864C48.6488 54.3307 48.9007 56.8082 47.673 58.3918C46.9018 59.3796 45.6585 59.7873 44.4309 59.8814C43.6754 59.9441 43.6754 61.1201 44.4309 61.0574C45.8001 60.9476 47.1537 60.5556 48.1767 59.5835C49.0266 58.7681 49.483 57.6549 49.6561 56.5102C50.0338 53.9387 49.3256 51.2418 48.4442 48.8428C48.2082 48.2156 47.9249 47.5571 47.6888 46.9456C47.374 46.1772 47.1379 45.1737 46.3667 44.719C45.7057 44.327 45.1234 45.3462 45.7686 45.7382Z" fill="#231F20"/>
<path d="M56.2188 54.2053C56.203 54.3777 56.2345 54.0798 56.2188 54.2523C56.2188 54.2837 56.2188 54.315 56.203 54.3621C56.203 54.4405 56.1716 54.5345 56.1558 54.6129C56.1243 54.7854 56.0771 54.9579 56.0299 55.1147C55.9827 55.2558 55.9355 55.4126 55.8883 55.5537C55.8568 55.6321 55.8253 55.7105 55.7938 55.7889C55.7466 55.8987 55.7938 55.8046 55.7938 55.7889C55.7781 55.836 55.7466 55.883 55.7309 55.93C55.5892 56.2436 55.4161 56.5416 55.2272 56.8238C55.1485 56.9492 55.0541 57.0747 54.9597 57.2001C54.9282 57.2471 54.8967 57.2785 54.8652 57.3255C54.818 57.3883 54.7551 57.451 54.6921 57.5137C54.4718 57.7646 54.2357 57.9841 53.9839 58.1879C53.9524 58.2193 53.9209 58.235 53.8894 58.2663C53.9052 58.2663 53.9681 58.2036 53.8894 58.2663C53.8265 58.3134 53.7478 58.3604 53.6848 58.4074C53.5432 58.5015 53.4015 58.5956 53.2599 58.674C53.134 58.7524 52.9923 58.8151 52.8664 58.8935C52.7877 58.9249 52.709 58.9562 52.6303 59.0033C52.6461 59.0033 52.7405 58.9562 52.6303 59.0033C52.5831 59.019 52.5202 59.0503 52.4572 59.066C52.1424 59.1758 51.8277 59.2698 51.4972 59.3326C51.4657 59.3326 51.4342 59.3326 51.4027 59.3482C51.3555 59.3482 51.2453 59.3639 51.3555 59.3482C51.2453 59.3482 51.1509 59.3796 51.0407 59.3796C50.8519 59.3796 50.6473 59.3953 50.4584 59.3796C50.2695 59.3639 50.0807 59.3639 49.8918 59.3326C49.7816 59.3326 50.0335 59.3639 49.8603 59.3326C49.8131 59.3326 49.7502 59.3169 49.7029 59.3012C49.5928 59.2855 49.4826 59.2542 49.3724 59.2385C49.0734 59.1601 48.7114 59.3326 48.6484 59.6462C48.5855 59.9598 48.7429 60.289 49.0577 60.3674C50.6 60.7281 52.2211 60.5399 53.6219 59.8029C54.9125 59.1287 55.9984 57.9998 56.6437 56.6983C57.0372 55.8987 57.289 55.0677 57.3834 54.1896C57.4149 53.876 57.0844 53.5938 56.7854 53.5938C56.4391 53.5938 56.2345 53.8603 56.1873 54.1896L56.2188 54.2053Z" fill="#231F20"/>
<path d="M50.0806 57.7475C52.1424 57.2301 53.2599 54.9095 53.1497 52.9181C53.1182 52.3693 52.9923 51.8519 52.7877 51.3501C52.6933 51.1463 52.5831 50.9425 52.4572 50.77C52.2841 50.5348 52.0795 50.3466 51.8906 50.1114C51.9693 50.1898 51.8119 50.0174 51.8276 50.0017C51.8591 50.0017 51.8434 50.0958 51.8591 50.0958C51.8276 49.986 51.8591 50.0644 51.8591 50.0958C51.7962 50.2055 51.8276 50.1428 51.8906 50.0958C51.8276 50.1585 51.8906 50.0958 51.9063 50.0958C51.9536 50.0801 51.985 50.0487 52.0323 50.033C52.0323 50.033 52.1582 49.986 52.0795 50.0017C52.0008 50.0174 52.1109 50.0017 52.1267 49.986C52.1896 49.9546 52.2526 49.939 52.3313 49.9233C52.4729 49.8762 52.6146 49.8449 52.7562 49.8292C52.772 49.8292 52.8664 49.8135 52.7562 49.8292C52.7877 49.8292 52.8192 49.8292 52.8507 49.8292C52.9136 49.8292 52.9766 49.8292 53.0553 49.8292C53.1969 49.8292 53.3386 49.8292 53.4802 49.8449C53.3858 49.8292 53.5746 49.8449 53.4802 49.8449C53.5117 49.8449 53.5432 49.8449 53.5746 49.8606C53.6376 49.8606 53.7006 49.8919 53.7635 49.9076C53.9052 49.939 54.0311 49.986 54.157 50.033C54.1727 50.033 54.2671 50.0801 54.157 50.033C54.1885 50.0487 54.2357 50.0644 54.2671 50.0801C54.3301 50.1114 54.3931 50.1428 54.4718 50.1742C54.5977 50.2526 54.7236 50.331 54.8495 50.4094C54.881 50.425 54.8967 50.4407 54.9282 50.4721C54.818 50.3937 54.9439 50.4878 54.9597 50.5034C55.0226 50.5505 55.0698 50.5975 55.117 50.6445C55.2272 50.7543 55.3374 50.8641 55.4318 50.9895C55.4476 51.0052 55.4948 51.0836 55.4318 50.9895C55.4476 51.0209 55.4633 51.0365 55.4948 51.0679C55.542 51.1306 55.5892 51.209 55.6364 51.2717C55.7151 51.3972 55.7781 51.5226 55.841 51.6637C55.7938 51.554 55.841 51.6324 55.841 51.6637C55.8568 51.7108 55.8725 51.7578 55.8882 51.8049C55.904 51.8676 55.9355 51.9303 55.9512 51.993C55.9669 52.0714 55.9984 52.1498 56.0141 52.2439C56.0141 52.2752 56.0141 52.3066 56.0299 52.338C56.0141 52.2282 56.0299 52.338 56.0299 52.385C56.0614 52.6829 56.2817 52.9808 56.628 52.9808C56.927 52.9808 57.2575 52.7143 57.226 52.385C57.1001 51.0993 56.3919 49.9703 55.2902 49.2804C54.1885 48.5905 52.8034 48.4651 51.6073 48.9982C51.2453 49.155 50.8676 49.4215 50.7731 49.8292C50.6472 50.2839 50.8518 50.6916 51.1509 51.0209C51.2453 51.1306 51.3555 51.2247 51.4499 51.3345C51.4657 51.3501 51.4814 51.3815 51.4971 51.3972C51.5443 51.4599 51.4342 51.3031 51.4814 51.3815C51.5129 51.4442 51.5601 51.4913 51.5916 51.554C51.6545 51.6481 51.7017 51.7421 51.749 51.8362C51.749 51.8676 51.8434 52.0557 51.7804 51.8989C51.7962 51.9617 51.8276 52.0087 51.8434 52.0714C51.8749 52.1812 51.9221 52.2909 51.9378 52.4164C51.9378 52.4634 51.9693 52.5261 51.9693 52.5888C51.9693 52.6202 51.9693 52.6516 51.9693 52.6672C51.9693 52.6829 51.985 52.8084 51.9693 52.7143C51.9693 52.6202 51.9693 52.7143 51.9693 52.7456C51.9693 52.777 51.9693 52.824 51.9693 52.8554C51.9693 52.9181 51.9693 52.9652 51.9693 53.0279C51.9693 53.1533 51.9693 53.2944 51.9693 53.4199C51.9693 53.5296 51.9536 53.6551 51.9378 53.7648C51.9378 53.7962 51.9221 53.8746 51.9378 53.7335C51.9378 53.7648 51.9378 53.7962 51.9378 53.8276C51.9378 53.906 51.9063 53.9687 51.8906 54.0471C51.8434 54.2979 51.7647 54.5331 51.686 54.7683C51.686 54.7997 51.5758 55.0035 51.6545 54.8781C51.623 54.9408 51.6073 55.0035 51.5758 55.0506C51.5129 55.176 51.4499 55.2858 51.3712 55.4112C51.2925 55.5366 51.2138 55.6307 51.1509 55.7405C51.1037 55.8189 51.2453 55.6307 51.1509 55.7405C51.1351 55.7718 51.1037 55.7875 51.0879 55.8189C51.0407 55.8659 51.0092 55.913 50.962 55.96C50.8676 56.0541 50.7574 56.1482 50.663 56.2422C50.6315 56.2579 50.5685 56.305 50.6787 56.2266C50.6472 56.2422 50.6158 56.2736 50.6 56.2893C50.5371 56.3363 50.4899 56.3677 50.4269 56.399C50.3167 56.4618 50.2066 56.5245 50.0806 56.5715C50.2223 56.5088 50.0334 56.5715 49.9862 56.6029C49.9233 56.6186 49.8603 56.6499 49.7816 56.6656C49.4668 56.744 49.2937 57.0889 49.3724 57.3869C49.4511 57.6848 49.7816 57.8729 50.0964 57.7945L50.0806 57.7475Z" fill="#231F20"/>
<path d="M28.2509 21.278C33.9798 20.4783 40.0393 19.7257 45.3589 21.9679C46.5708 18.1263 48.7585 14.5984 51.6544 11.7917C52.0322 11.4311 52.4729 11.0547 52.9922 11.1018C53.606 11.1645 53.9838 11.776 54.2513 12.3405C55.3845 14.8336 55.9669 17.5775 55.9826 20.3215C55.9983 23.5359 55.3058 25.4018 53.669 28.0987C53.5274 28.3182 53.4014 28.5534 53.3857 28.82C53.3857 29.0395 53.4801 29.2433 53.5746 29.4315C54.2513 30.874 54.6133 31.7678 54.692 33.3514C54.755 34.6999 54.8179 36.1111 55.4317 37.3498C55.6678 37.8202 55.9669 38.2749 56.1085 38.7766C56.439 39.9997 55.5734 41.4265 54.33 41.6931C54.6291 41.9596 54.9281 42.2105 55.2429 42.4771C53.3227 45.2994 50.0806 46.9772 46.7597 47.7612C41.8649 48.9215 36.4351 48.9371 31.4616 48.2629C28.1408 47.8082 23.2303 47.2437 20.7121 44.782C19.8937 43.9823 20.0353 43.1983 18.8234 42.7436C18.2568 42.5398 17.6116 42.1948 17.5801 41.599C17.5801 41.4108 17.643 41.2227 17.706 41.0502C18.1309 39.8272 18.5559 38.6512 18.6818 37.3498C18.9179 34.7469 19.1225 32.3636 19.8937 29.8705C20.114 29.1649 18.729 26.5934 18.4614 25.7467C17.706 23.3164 17.5486 20.5724 17.9263 17.9852C18.1624 16.4643 18.8234 11.4781 20.7436 11.0234C20.9324 10.9764 21.137 11.0234 21.3416 11.0704C23.1673 11.4938 24.395 13.7046 25.3235 15.1472C25.6383 15.6333 28.4083 21.2623 28.2824 21.278H28.2509Z" fill="#F39B4A"/>
<path d="M53.5903 29.306C53.5116 28.9297 53.4329 28.5534 53.307 28.2085C53.3542 28.2869 53.4171 28.3652 53.4644 28.4436C53.5116 28.3182 53.5903 28.2085 53.6532 28.0987C55.2901 25.4018 55.9826 23.5359 55.9668 20.3215C55.9511 17.5775 55.3688 14.8493 54.2356 12.3405C53.9837 11.776 53.5903 11.1645 52.9765 11.1018C52.4571 11.0547 52.0164 11.4311 51.6387 11.7917C48.7427 14.5984 46.5708 18.1263 45.3432 21.9679C40.0235 19.7257 33.9641 20.4783 28.2352 21.278C28.3611 21.2623 25.6068 15.6333 25.2763 15.1472C24.332 13.7046 23.1201 11.4938 21.2944 11.0704C21.1055 11.0234 20.9009 10.9764 20.6963 11.0234C18.7762 11.4781 18.0994 16.4643 17.8791 17.9852C17.4856 20.5724 17.6587 23.3164 18.4142 25.7467C18.6188 26.3896 19.4372 28.0046 19.7363 29.0552C18.9493 31.4071 18.4142 34.4961 18.4929 36.9891C19.2641 36.2365 20.3973 36.017 21.4046 35.6093C21.5934 35.5309 21.7508 35.4212 21.9397 35.3428C22.2859 29.8078 25.5753 25.4645 29.5887 25.4645C32.9253 25.4645 35.7583 28.475 36.8285 32.6772C37.883 28.475 40.716 25.4645 44.0683 25.4645C47.9873 25.4645 51.2137 29.604 51.6859 34.9508C51.7803 34.9821 51.8747 34.9978 51.9534 35.0135C53.1653 35.4055 54.2198 36.0954 55.353 36.6285C55.3373 35.0919 54.8179 32.6772 54.2356 31.2503C53.9837 30.6388 53.7319 30.0116 53.5903 29.3217V29.306ZM20.9167 26.6718C20.8222 26.5464 20.7278 26.421 20.6334 26.2798C18.5873 23.2223 18.5873 17.7343 20.6334 14.7865C22.1285 12.6071 25.2448 20.9487 25.292 21.8268C25.3707 23.4575 22.1443 25.8722 20.9324 26.6718H20.9167ZM50.1278 24.8373C49.6556 24.4453 49.152 24.0533 48.8844 23.5045C48.1919 22.1247 49.2306 19.3337 49.813 18.0479C50.411 16.6995 51.2295 14.9277 52.7089 14.3318C54.1254 16.1977 54.1883 18.0793 54.2513 20.3058C54.3143 22.4226 54.0782 24.1317 53.2598 26.1387C52.7089 27.4872 50.7258 25.3234 50.1278 24.8373Z" fill="#5C564D"/>
<path d="M36.9075 46.3032C41.1058 46.3032 44.5093 43.5232 44.5093 40.094C44.5093 36.6647 41.1058 33.8848 36.9075 33.8848C32.7091 33.8848 29.3057 36.6647 29.3057 40.094C29.3057 43.5232 32.7091 46.3032 36.9075 46.3032Z" fill="#5C564D"/>
<path d="M28.8959 35.5303C29.7478 35.5303 30.4383 34.8423 30.4383 33.9937C30.4383 33.145 29.7478 32.457 28.8959 32.457C28.0441 32.457 27.3535 33.145 27.3535 33.9937C27.3535 34.8423 28.0441 35.5303 28.8959 35.5303Z" fill="#231F20"/>
<path d="M44.9018 35.5303C45.7536 35.5303 46.4442 34.8423 46.4442 33.9937C46.4442 33.145 45.7536 32.457 44.9018 32.457C44.0499 32.457 43.3594 33.145 43.3594 33.9937C43.3594 34.8423 44.0499 35.5303 44.9018 35.5303Z" fill="#231F20"/>
<path d="M36.9072 37.7726C38.5501 37.7726 39.8819 36.9512 39.8819 35.9381C39.8819 34.9249 38.5501 34.1035 36.9072 34.1035C35.2644 34.1035 33.9326 34.9249 33.9326 35.9381C33.9326 36.9512 35.2644 37.7726 36.9072 37.7726Z" fill="#231F20"/>
<path d="M24.3794 24.2881C29.5732 21.1051 36.026 20.1487 41.9438 21.5599C43.6278 21.9675 45.2647 22.5477 46.8071 23.3317C47.4838 23.6766 48.0819 22.6574 47.4051 22.3125C41.6762 19.4431 34.8456 18.9884 28.7547 20.9797C27.0077 21.5442 25.3394 22.3282 23.7813 23.269C23.136 23.661 23.7341 24.6801 24.3794 24.2881Z" fill="#231F20"/>
<path d="M22.113 24.8836C20.1614 27.0631 18.7921 29.7757 18.3357 32.6765C18.0839 34.2288 18.257 35.7654 18.1469 37.3177C18.0996 37.9919 17.9423 38.4937 17.6275 39.0895C17.3442 39.607 17.0452 40.1401 16.935 40.7202C16.8091 41.3631 16.9822 42.0217 17.4858 42.4607C17.9895 42.8997 18.682 43.0565 19.2328 43.4485L18.9653 42.79C18.6977 44.06 19.6263 45.0008 20.6178 45.628C21.8297 46.3963 23.1675 47.0235 24.5053 47.5253C26.9448 48.4504 29.5417 48.8267 32.1386 48.9208C32.8941 48.9521 32.8941 47.7761 32.1386 47.7448C29.9194 47.6507 27.716 47.3685 25.607 46.6629C24.4424 46.2709 23.3249 45.7848 22.2389 45.2047C21.5622 44.844 19.8781 44.1071 20.0985 43.1036C20.1614 42.8213 20.0512 42.6018 19.8309 42.445C19.3587 42.1001 18.4302 41.9589 18.1469 41.4258C17.8793 40.9398 18.3672 40.2185 18.6033 39.7951C18.9653 39.1209 19.2171 38.5094 19.3115 37.7568C19.4217 36.863 19.3745 35.9693 19.3745 35.0755C19.3745 31.626 20.6651 28.2862 22.9787 25.7147C23.4823 25.1502 22.6481 24.3192 22.1445 24.8836H22.113Z" fill="#231F20"/>
<path d="M20.3341 29.2124C17.7372 25.7942 17.5641 20.8708 18.5557 16.8411C18.839 15.7121 19.2167 14.6145 19.7518 13.5953C20.0981 12.9211 19.075 12.3253 18.7288 12.9995C17.6743 15.0222 17.1234 17.2644 16.9188 19.5223C16.7142 21.7802 16.8874 24.2576 17.6113 26.4685C18.0048 27.6601 18.5557 28.8047 19.3111 29.8083C19.5 30.0591 19.8148 30.1846 20.1138 30.0121C20.3656 29.871 20.523 29.4633 20.3184 29.2124H20.3341Z" fill="#231F20"/>
<path d="M20.3811 12.3241C20.507 12.0732 20.6801 11.6499 20.9634 11.6342C21.2467 11.6185 21.6087 11.9635 21.829 12.1516C22.4743 12.7631 23.0724 13.4217 23.639 14.1116C24.7565 15.4914 25.685 17.0124 26.4405 18.6274C26.8654 19.5368 27.2117 20.4619 27.5107 21.4184C27.7311 22.1397 28.8643 21.8261 28.6439 21.1048C28.0458 19.1605 27.2117 17.2946 26.1257 15.5855C25.5906 14.7231 24.9925 13.9078 24.3315 13.1238C23.6705 12.3398 23.0095 11.5558 22.2068 10.96C21.7189 10.5993 21.0893 10.3328 20.4913 10.5523C19.9404 10.7561 19.6099 11.2422 19.3581 11.7439C19.2164 12.0262 19.2794 12.3868 19.5627 12.5436C19.8302 12.7004 20.2237 12.622 20.3653 12.3398L20.3811 12.3241Z" fill="#231F20"/>
<path d="M21.2941 14.8809C23.0884 17.029 24.2845 19.82 24.6465 22.5797C24.6937 22.8933 24.8826 23.1755 25.2446 23.1755C25.5279 23.1755 25.8741 22.909 25.8426 22.5797C25.5279 20.1493 24.7095 17.7974 23.3874 15.7276C23.0097 15.1475 22.6005 14.583 22.1598 14.0499C21.9552 13.799 21.5302 13.846 21.3256 14.0499C21.0895 14.2851 21.121 14.63 21.3256 14.8809H21.2941Z" fill="#231F20"/>
<path d="M50.7095 25.7146C52.2519 27.4237 53.3694 29.5091 53.9202 31.7357C54.4711 33.9622 54.2193 36.3926 55.3839 38.4936C55.683 39.0424 55.9348 39.5285 55.5885 40.1243C55.2423 40.7202 54.5813 41.0495 53.9989 41.3787C53.3379 41.7394 53.936 42.7586 54.597 42.3979C55.7144 41.7864 56.9893 40.9083 56.9578 39.4815C56.9578 38.8386 56.5958 38.2898 56.3125 37.741C56.0292 37.1922 55.8561 36.6121 55.7459 36.0319C55.4784 34.7619 55.4469 33.4448 55.2265 32.159C55.0062 30.8733 54.5655 29.6659 53.9989 28.5056C53.3694 27.1885 52.5352 25.9812 51.5594 24.8993C51.0558 24.3348 50.2216 25.1658 50.7253 25.7303L50.7095 25.7146Z" fill="#231F20"/>
<path d="M54.5654 29.0242C55.7616 26.5154 56.5485 23.8185 56.6744 21.0275C56.8003 18.2365 56.2023 15.4769 54.9117 13.0151C54.5654 12.3409 53.5424 12.9367 53.8887 13.611C56.3282 18.2992 55.7616 23.7872 53.5424 28.4441C53.2119 29.1183 54.2349 29.7141 54.5654 29.0399V29.0242Z" fill="#231F20"/>
<path d="M54.2829 11.7289C54.0625 11.3056 53.795 10.8665 53.3543 10.6314C52.8349 10.3491 52.2368 10.4432 51.7489 10.7254C51.3083 10.9763 50.9305 11.3526 50.5685 11.7133C50.2065 12.0739 49.876 12.4345 49.5455 12.8108C48.2392 14.3318 47.1217 16.0409 46.2561 17.8597C45.7682 18.9103 45.3433 19.9765 44.997 21.0898C44.7767 21.811 45.9099 22.1246 46.1302 21.4034C47.169 18.0165 49.0261 14.8649 51.5601 12.3718C51.8276 12.1053 52.1896 11.6662 52.5831 11.6349C52.7247 11.6192 52.8192 11.6819 52.9136 11.7917C53.0395 11.9328 53.1497 12.1523 53.2284 12.3248C53.37 12.607 53.7792 12.6854 54.0311 12.5286C54.3144 12.3561 54.393 12.0112 54.2357 11.7289H54.2829Z" fill="#231F20"/>
<path d="M51.5282 14.0499C49.97 15.9158 48.8368 18.1266 48.223 20.4943C48.0499 21.1842 47.924 21.8741 47.8295 22.5797C47.7823 22.8933 48.1286 23.1755 48.4276 23.1755C48.7739 23.1755 48.9785 22.909 49.0257 22.5797C49.3877 19.82 50.5681 17.029 52.378 14.8809C52.5826 14.63 52.6141 14.2851 52.378 14.0499C52.1734 13.846 51.7485 13.799 51.5439 14.0499H51.5282Z" fill="#231F20"/>
<path d="M45.2486 48.9842C46.8224 48.8117 48.3019 48.2629 49.7026 47.526C51.1034 46.789 52.3467 45.9423 53.5271 44.9702C54.2039 44.4214 54.8335 43.8412 55.4473 43.2297C55.9824 42.6809 55.1482 41.8499 54.6131 42.3987C53.6216 43.4179 52.5356 44.343 51.3552 45.1426C50.1748 45.9423 48.9157 46.7106 47.5622 47.228C46.8067 47.5103 46.0355 47.7455 45.2328 47.8239C44.9181 47.8552 44.6348 48.0748 44.6348 48.4197C44.6348 48.7176 44.9023 49.0469 45.2328 49.0155L45.2486 48.9842Z" fill="#231F20"/>
</svg>
