<svg width="80" height="76" viewBox="0 0 80 76" fill="none" xmlns="http://www.w3.org/2000/svg">
<path d="M57.1794 49.3928L57.2896 48.7813C56.0934 48.3422 54.6297 48.7029 53.7798 49.675C52.9457 50.6472 52.7725 52.1367 53.3863 53.25C53.4021 53.2814 53.4336 53.3284 53.4493 53.3598C53.3549 53.6263 53.2604 53.9085 53.166 54.1751C53.1345 54.2535 53.1188 54.3162 53.0873 54.3946C52.7883 52.2622 51.9699 50.114 51.1672 48.2638C50.9311 47.7307 50.6163 46.6488 50.1284 46.3195C48.4129 43.748 45.5327 41.9762 42.4637 41.6313C39.2844 41.2706 35.9793 42.4309 33.7287 44.6888C29.794 48.6245 26.7564 62.36 35.8691 61.8896L36.5144 61.1997C36.8292 61.6857 37.2856 62.0307 38.0568 62.1404C40.7954 62.5011 41.4406 60.8077 41.5823 58.785C41.7397 60.8077 42.4007 62.5011 45.1392 62.1248C47.925 61.7328 51.2301 61.5133 52.5679 59.0358C52.8984 59.7571 53.3863 60.3843 53.3234 60.9488C55.3537 61.2937 57.3053 60.3686 58.8792 59.1613C60.0124 58.2832 60.9095 56.778 61.2715 55.3981C62.1686 52.074 59.6189 49.3771 57.1794 49.4084V49.3928Z" fill="#F8C04E"/>
<path d="M35.8379 60.1029C35.8536 60.197 35.8851 60.2911 35.9166 60.3852C35.9795 60.589 36.0425 60.7928 36.1212 60.9967C36.1212 61.0124 36.1212 61.0124 36.1212 61.0124C36.1212 61.0124 36.1212 61.0124 36.1369 61.0437C36.1527 61.0908 36.1841 61.1378 36.1999 61.2005C36.2314 61.2632 36.2628 61.326 36.2943 61.373L36.4989 61.1692C36.8137 61.6552 37.2701 62.0002 38.0413 62.11C40.1346 62.3922 41.0002 61.4514 41.3622 60.1029C39.5208 60.0559 37.6478 60.1029 35.8379 60.1029Z" fill="white"/>
<path d="M48.7121 48.3265C48.5233 47.8718 48.1298 47.4798 47.7363 47.1819C46.0523 45.8962 44.5414 46.147 42.6213 45.8334C40.3864 45.4571 38.0255 45.4414 35.8851 46.2725C34.6889 46.7429 34.1066 47.3073 33.9649 48.5304C33.8076 49.9102 33.9649 51.1019 34.8463 52.2308C35.7906 53.4225 37.1756 54.1751 38.5449 54.8023C39.3004 55.1472 40.0716 55.4765 40.89 55.5392C41.4881 55.602 42.1019 55.5079 42.6999 55.3668C45.3441 54.7082 47.6262 52.7012 48.5862 50.1611C48.7751 49.6593 48.9167 49.1105 48.7908 48.5931C48.7751 48.499 48.7436 48.4049 48.6964 48.3108L48.7121 48.3265Z" fill="white"/>
<path d="M57.1795 49.3921L57.2897 48.7806C56.0935 48.3415 54.6298 48.7022 53.7799 49.6743C52.9458 50.6465 52.7726 52.1361 53.3865 53.2493C53.4022 53.2807 53.4337 53.3277 53.4494 53.3591C53.4494 53.3591 53.4494 53.3748 53.4494 53.3904C53.7484 53.4375 54.016 53.61 54.1419 53.9549C54.2049 54.1274 54.2993 54.2999 54.378 54.3783C54.4567 54.4567 54.5196 54.488 54.6141 54.5194C54.7872 54.5664 54.8029 54.5664 55.0233 54.5351C54.9289 54.5351 55.1964 54.488 55.2279 54.4723C55.2908 54.4567 55.3381 54.4253 55.4168 54.3939C55.5899 54.2999 55.7945 54.1901 55.9361 54.049C56.0306 53.9549 56.062 53.8765 56.0935 53.7824C56.1879 53.4532 56.1565 52.9828 56.1565 52.5437C56.1565 51.9009 56.8962 51.4618 57.447 51.8068C59.3514 52.9671 58.8321 55.9776 58.1081 57.6867C57.51 59.1292 56.3926 60.2895 55.0233 60.9324C56.424 60.7286 57.7618 60.0073 58.8793 59.1449C60.0125 58.2669 60.9096 56.7616 61.2716 55.3818C62.1687 52.0577 59.619 49.3607 57.1795 49.3921Z" fill="white"/>
<path d="M46.4457 61.842C46.5873 61.6539 46.7132 61.4657 46.8391 61.2775C46.965 61.0894 47.091 60.8855 47.2011 60.6974C47.2483 60.6033 47.2956 60.5092 47.3428 60.4152C47.3742 60.3681 47.39 60.3054 47.4215 60.2584C47.4372 60.2113 47.4529 60.1486 47.4687 60.1016C45.6745 60.2897 43.8645 60.1956 42.0703 60.1016C41.9759 60.1016 41.8972 60.1016 41.8027 60.1016C42.1647 61.45 43.0461 62.3751 45.1393 62.0929C45.5486 62.0302 45.9735 61.9831 46.3984 61.9204C46.4142 61.8891 46.4457 61.8734 46.4614 61.842H46.4457Z" fill="white"/>
<path d="M35.4907 56.4942C35.4907 57.482 35.3648 58.4699 35.4278 59.4577C35.4907 60.5239 35.7898 61.6058 36.7184 62.2487C37.2377 62.6093 37.883 62.7191 38.5126 62.7505C39.1421 62.7818 39.7245 62.7034 40.2753 62.4525C41.2039 62.0449 41.739 61.1511 41.9751 60.2103C42.2584 59.0657 42.2269 57.8427 42.2269 56.6824C42.2269 56.3688 41.9594 56.0865 41.6288 56.0865C41.2983 56.0865 41.0308 56.3374 41.0308 56.6824C41.0308 57.1841 41.0308 57.6702 41.0308 58.172C41.0308 58.4228 41.015 58.658 40.9836 58.9089C40.9836 59.0187 40.9678 59.1284 40.9521 59.2539C40.9521 59.2852 40.9521 59.3166 40.9521 59.3479C40.9678 59.1598 40.9521 59.2695 40.9521 59.3166C40.9521 59.3793 40.9363 59.442 40.9206 59.4891C40.8891 59.7086 40.8419 59.9281 40.7632 60.1319C40.7317 60.226 40.7003 60.3201 40.6688 60.4142C40.6688 60.4455 40.653 60.4612 40.6373 60.4926C40.6845 60.3358 40.6845 60.3985 40.653 60.4455C40.6216 60.4926 40.6058 60.5396 40.5901 60.5866C40.5429 60.665 40.4957 60.7591 40.4484 60.8375C40.417 60.8846 40.3855 60.9159 40.354 60.963C40.417 60.8375 40.4327 60.8689 40.4012 60.9002C40.3855 60.9316 40.354 60.9473 40.3383 60.9786C40.2753 61.0414 40.2124 61.1198 40.1337 61.1825C40.1179 61.1982 40.0864 61.2138 40.0707 61.2295C39.992 61.2922 40.1966 61.1354 40.1022 61.1982C40.055 61.2295 40.0235 61.2609 39.9763 61.2922C39.8976 61.3393 39.8032 61.3863 39.7245 61.4334C39.63 61.4804 39.8661 61.3863 39.7559 61.4177C39.7245 61.4177 39.7087 61.4334 39.6772 61.449C39.63 61.4647 39.5671 61.4804 39.5041 61.4961C39.3939 61.5274 39.2838 61.5431 39.1736 61.5745C39.1264 61.5745 39.032 61.5745 39.2051 61.5745C39.1736 61.5745 39.1421 61.5745 39.1264 61.5745C39.0477 61.5745 38.9847 61.5745 38.906 61.5745C38.7644 61.5745 38.6385 61.5745 38.4968 61.5745C38.4181 61.5745 38.3552 61.5745 38.2765 61.5588C38.245 61.5588 38.2135 61.5588 38.1663 61.5588C38.1348 61.5588 38.1034 61.5588 38.0876 61.5588C38.1821 61.5588 38.1978 61.5588 38.1348 61.5588C38.0089 61.5431 37.8988 61.5118 37.7729 61.4804C37.7256 61.4804 37.6784 61.449 37.6312 61.4334C37.584 61.4334 37.4896 61.3706 37.6627 61.4334C37.6312 61.4177 37.584 61.402 37.5525 61.3863C37.4581 61.3393 37.3794 61.2766 37.285 61.2295C37.1905 61.1825 37.3951 61.3236 37.3164 61.2609C37.3164 61.2609 37.285 61.2452 37.2692 61.2295C37.222 61.1825 37.1748 61.1511 37.1276 61.1041C37.0961 61.0727 37.0646 61.0414 37.0331 61.01C36.9544 60.9316 37.1118 61.1354 37.0646 61.0414C37.0646 61.0257 37.0331 60.9943 37.0174 60.9786C36.9544 60.8846 36.9072 60.7905 36.86 60.6964C36.86 60.6807 36.8443 60.6494 36.8285 60.6337C36.7971 60.5866 36.8285 60.5396 36.8443 60.6807C36.8443 60.6337 36.7971 60.571 36.7813 60.5239C36.7498 60.4142 36.7184 60.3044 36.6869 60.1946C36.6554 60.0849 36.6397 59.9908 36.6239 59.8811C36.6239 59.834 36.5925 59.6459 36.6239 59.8654C36.6239 59.8027 36.6082 59.7243 36.6082 59.6615C36.5138 58.611 36.6554 57.5604 36.6554 56.5099C36.6554 56.1963 36.3878 55.9141 36.0573 55.9141C35.7268 55.9141 35.4593 56.1649 35.4593 56.5099L35.4907 56.4942Z" fill="#231F20"/>
<path d="M50.805 46.2402C48.7274 42.9788 44.9816 40.8777 41.0784 40.9718C37.6946 41.0502 34.2636 42.6809 32.3119 45.4876C30.9899 47.3848 30.1557 49.6741 29.6836 51.9163C29.2114 54.1585 29.0383 56.6673 29.8882 58.8311C30.3131 59.9287 30.9899 60.9008 31.9814 61.5594C33.1146 62.312 34.5311 62.5315 35.8689 62.4688C36.6244 62.4374 36.6244 61.2614 35.8689 61.2928C33.8858 61.3869 32.0916 60.7283 31.1788 58.8938C30.2659 57.0593 30.3603 54.9111 30.6751 52.9982C31.0214 50.8814 31.7139 48.796 32.7841 46.9301C34.2006 44.4997 36.6244 42.8847 39.3944 42.3359C43.4078 41.5363 47.61 43.4178 49.7819 46.836C50.1911 47.4789 51.2142 46.8831 50.805 46.2402Z" fill="#231F20"/>
<path d="M46.4764 56.4474C46.4764 57.3882 46.6024 58.3133 46.5709 59.2541C46.5709 59.3639 46.5709 59.4736 46.5551 59.5991C46.5551 59.6618 46.5551 59.7088 46.5394 59.7716C46.5394 59.8029 46.5394 59.8186 46.5394 59.85C46.5394 59.7872 46.5551 59.6461 46.5394 59.85C46.5079 60.0695 46.4607 60.289 46.382 60.4928C46.382 60.5399 46.3505 60.5712 46.3348 60.6183C46.3033 60.728 46.3978 60.4772 46.3505 60.5712C46.3505 60.6026 46.3348 60.6183 46.3191 60.6496C46.2718 60.7437 46.2246 60.8378 46.1617 60.9319C46.1617 60.9476 46.1302 60.9632 46.1302 60.9789C46.0987 61.0259 46.0672 61.0103 46.1617 60.9319C46.1302 60.9632 46.0987 61.0103 46.0515 61.0573C46.02 61.0887 45.9885 61.12 45.9571 61.1514C45.9413 61.1671 45.9098 61.1827 45.8941 61.1984C45.7839 61.2925 45.9885 61.1357 45.8941 61.1984C45.7997 61.2611 45.721 61.3082 45.6266 61.3552C45.5793 61.3866 45.4219 61.4336 45.6108 61.3552C45.5479 61.3709 45.4692 61.4023 45.4062 61.4336C45.2803 61.465 45.1701 61.4963 45.0442 61.512H44.9813H45.06C45.06 61.512 44.997 61.512 44.9813 61.512C44.8868 61.512 44.8081 61.5277 44.7137 61.5277C44.5878 61.5277 44.4461 61.5277 44.3202 61.5277C44.2573 61.5277 44.1786 61.5277 44.1156 61.5277C44.0527 61.5277 43.8481 61.4807 44.0369 61.5277C43.9268 61.4963 43.8166 61.4963 43.7064 61.465C43.6435 61.465 43.5963 61.4336 43.5333 61.4179C43.5018 61.4179 43.4861 61.4023 43.4546 61.3866C43.3917 61.3552 43.3759 61.3239 43.4861 61.4023C43.4074 61.3395 43.2972 61.3082 43.2185 61.2611C43.1713 61.2298 43.1241 61.1984 43.0926 61.1671C42.9982 61.1043 43.0769 61.1671 43.0926 61.1671C43.187 61.2298 43.0926 61.1671 43.0769 61.1514C42.9982 61.0887 42.9352 61.026 42.8723 60.9632C42.8408 60.9319 42.8093 60.8848 42.7778 60.8535C42.9195 60.9946 42.8093 60.8848 42.7778 60.8221C42.7306 60.7437 42.6677 60.6653 42.6362 60.5712C42.6047 60.5242 42.589 60.4772 42.5575 60.4301C42.5575 60.4144 42.5575 60.3988 42.5418 60.3831C42.4945 60.289 42.6047 60.5399 42.5418 60.3988C42.4631 60.1949 42.4001 59.9911 42.3529 59.7872C42.3214 59.6618 42.3057 59.5364 42.2742 59.4109C42.2742 59.3482 42.2585 59.2855 42.2427 59.2385C42.2427 59.1914 42.227 59.0817 42.2427 59.2698C42.2427 59.2385 42.2427 59.1914 42.2427 59.1601C42.2112 58.8935 42.1955 58.6269 42.1798 58.3604C42.1483 57.7959 42.1483 57.2314 42.1483 56.667C42.1483 56.3534 41.8807 56.0711 41.5502 56.0711C41.2197 56.0711 40.9521 56.322 40.9521 56.667C40.9521 57.7332 40.9521 58.8151 41.141 59.8656C41.3299 60.8221 41.7706 61.7786 42.6519 62.296C43.1398 62.5783 43.7222 62.7037 44.273 62.7194C44.9183 62.735 45.5951 62.6566 46.1774 62.3744C47.2162 61.8883 47.6096 60.7908 47.7198 59.7402C47.83 58.6897 47.6726 57.545 47.6726 56.4318C47.6726 56.1182 47.405 55.8359 47.0745 55.8359C46.744 55.8359 46.4764 56.0868 46.4764 56.4318V56.4474Z" fill="#231F20"/>
<path d="M49.7662 46.7577C49.9866 46.8831 50.1125 47.2124 50.2227 47.4476C50.3643 47.7612 50.4745 48.1061 50.6161 48.4197C50.8207 48.9058 51.0253 49.3919 51.2299 49.9093C51.6549 51.0383 52.0326 52.2143 52.2844 53.3902C52.7094 55.3345 52.9612 57.8119 51.7336 59.3956C50.9624 60.3834 49.7348 60.7911 48.4914 60.9009C47.7359 60.9636 47.7359 62.1396 48.4914 62.0769C49.8607 61.9514 51.2142 61.5751 52.2215 60.603C53.0714 59.7876 53.5278 58.6743 53.6852 57.5297C54.0629 54.9582 53.3389 52.2613 52.4576 49.8623C52.2215 49.2194 51.9539 48.5922 51.7021 47.9807C51.3873 47.2124 51.1512 46.2089 50.38 45.7542C49.719 45.3622 49.1367 46.3814 49.782 46.7734L49.7662 46.7577Z" fill="#231F20"/>
<path d="M60.0277 51.6031C60.5786 52.3087 60.8461 53.1554 60.8619 54.0491C60.8776 54.9429 60.5943 55.7739 60.2008 56.5579C59.8074 57.3419 59.2565 58.1102 58.5483 58.6747C57.84 59.2391 57.0688 59.7095 56.2504 60.0231C55.2746 60.3838 54.2988 60.4935 53.2758 60.3524C52.961 60.3054 52.6777 60.6503 52.6777 60.9482C52.6777 61.2932 52.9453 61.497 53.2758 61.5441C54.3146 61.6695 55.3691 61.5754 56.3606 61.2462C57.3521 60.9169 58.2335 60.3995 59.0519 59.7723C59.9176 59.1294 60.6101 58.314 61.1137 57.3576C61.6173 56.4011 61.9636 55.4446 62.0423 54.4098C62.121 53.2181 61.7905 51.9794 61.0665 51.0229C60.8776 50.7721 60.5628 50.6309 60.2638 50.8191C60.012 50.9602 59.8546 51.3679 60.0592 51.6188L60.0277 51.6031Z" fill="#231F20"/>
<path d="M56.1243 52.4955C56.1243 52.4955 56.1401 52.5896 56.1558 52.6366C56.1558 52.6993 56.1558 52.5896 56.1558 52.5896C56.1558 52.5896 56.1558 52.6523 56.1558 52.668C56.1558 52.715 56.1558 52.7464 56.1558 52.7934C56.1558 52.8248 56.1558 52.8561 56.1558 52.8718C56.1558 52.9502 56.1558 52.8718 56.1558 52.8404C56.1401 52.8718 56.1401 52.9502 56.1243 52.9816C56.1243 53.0286 56.0929 53.0756 56.0771 53.1227C56.0771 53.1384 56.0771 53.1697 56.0614 53.1854C56.0299 53.2638 56.1086 53.0913 56.0614 53.154C56.0299 53.2011 56.0142 53.2481 55.9827 53.2952C55.9827 53.2952 55.904 53.4049 55.904 53.4206C55.904 53.4206 55.9827 53.3422 55.9355 53.3892C55.9355 53.3892 55.904 53.4206 55.8883 53.4363C55.8568 53.4676 55.8253 53.5147 55.7781 53.546C55.7781 53.546 55.7309 53.5774 55.7309 53.5931C55.7938 53.546 55.7938 53.546 55.7624 53.5617C55.7624 53.5617 55.7466 53.5774 55.7309 53.5931C55.6837 53.6244 55.6522 53.6401 55.605 53.6715C55.5892 53.6715 55.4948 53.7185 55.4948 53.7342C55.4948 53.7028 55.605 53.7028 55.5105 53.7342C55.4948 53.7342 55.4633 53.7342 55.4476 53.7499C55.4004 53.7656 55.3374 53.7812 55.2902 53.7969C55.2587 53.7969 55.2272 53.7969 55.2115 53.8126C55.1486 53.8126 55.2587 53.8126 55.2587 53.8126C55.2272 53.8126 55.1328 53.8126 55.1171 53.8126C55.0699 53.8126 55.0226 53.8126 54.9754 53.8126C54.881 53.8126 54.9597 53.8126 54.9754 53.8126C55.0699 53.8283 54.9282 53.8126 54.9282 53.8126C54.881 53.8126 54.8495 53.7969 54.8023 53.7812C54.7708 53.7812 54.6292 53.7342 54.7079 53.7499C54.7866 53.7656 54.6606 53.7185 54.6292 53.7028C54.582 53.6715 54.5347 53.6558 54.4875 53.6244C54.4718 53.6244 54.4088 53.546 54.3773 53.546C54.4088 53.546 54.456 53.6088 54.3931 53.546C54.3774 53.546 54.3616 53.5147 54.3459 53.499C54.2672 53.4206 54.1885 53.3579 54.1255 53.2638C54.1255 53.2481 54.0941 53.2324 54.0783 53.2168C54.0311 53.154 54.1413 53.2952 54.0783 53.2324C54.0468 53.1854 54.0154 53.154 53.9996 53.107C53.9524 53.0286 53.8895 52.9345 53.858 52.8561C53.8422 52.8091 53.8108 52.762 53.795 52.7307C53.7635 52.668 53.8108 52.7777 53.8108 52.7777C53.8108 52.762 53.795 52.715 53.7793 52.6993C53.7478 52.6053 53.7163 52.5112 53.6848 52.4328C53.6534 52.3544 53.6376 52.2446 53.6219 52.1505C53.6219 52.1192 53.6219 52.0878 53.6219 52.0721C53.6219 52.0721 53.6219 52.1976 53.6219 52.1192C53.6219 52.0721 53.6219 52.0094 53.6219 51.9624C53.6219 51.7742 53.6219 51.5704 53.6219 51.3822C53.6219 51.3665 53.6219 51.3352 53.6219 51.3195C53.6219 51.4606 53.6219 51.3979 53.6219 51.3509C53.6219 51.3038 53.6376 51.2568 53.6534 51.2097C53.6691 51.1157 53.7006 51.0216 53.7321 50.9275C53.7635 50.8334 53.795 50.7394 53.8265 50.661C53.8422 50.5982 53.8108 50.708 53.8108 50.708C53.8108 50.6923 53.8422 50.6453 53.8422 50.6296C53.858 50.5826 53.8894 50.5355 53.9209 50.4885C53.9681 50.4101 54.0154 50.3317 54.0626 50.2533C54.0941 50.2062 54.1098 50.1749 54.1413 50.1278C54.0941 50.2062 54.157 50.1122 54.1727 50.0965C54.2987 49.9554 54.4246 49.8299 54.582 49.7045C54.6292 49.6731 54.6292 49.7045 54.5505 49.7202C54.5662 49.7202 54.582 49.6888 54.5977 49.6888C54.6292 49.6574 54.6764 49.6418 54.7079 49.6104C54.7866 49.5634 54.8653 49.5163 54.9439 49.4693C54.9912 49.4379 55.0384 49.4223 55.0856 49.3909C55.1013 49.3909 55.1485 49.3752 55.1643 49.3595C55.1328 49.3752 55.0541 49.4066 55.1328 49.3595C55.2272 49.3282 55.3374 49.2811 55.4318 49.2498C55.5263 49.2184 55.6364 49.2027 55.7466 49.1714C55.7624 49.1714 55.7938 49.1714 55.8096 49.1714C55.904 49.1714 55.8568 49.1714 55.7938 49.1714C55.8411 49.1714 55.904 49.1714 55.9512 49.1557C56.1558 49.14 56.3604 49.1557 56.5808 49.1557C56.6595 49.1557 56.4706 49.14 56.5493 49.1557C56.5808 49.1557 56.5965 49.1557 56.628 49.1557C56.6752 49.1557 56.7382 49.1714 56.7854 49.1871C56.8956 49.2184 57.0057 49.2498 57.1159 49.2811C57.3992 49.3909 57.7769 49.1557 57.8399 48.8735C57.9186 48.5442 57.7454 48.2619 57.4307 48.1522C56.4863 47.8072 55.4476 47.917 54.5505 48.309C53.6534 48.701 52.9609 49.5006 52.6303 50.4414C52.2998 51.3822 52.3785 52.4485 52.8035 53.3422C53.2599 54.3143 54.2672 55.067 55.3846 54.9102C56.0299 54.8161 56.5965 54.4711 56.9585 53.938C57.3205 53.4049 57.4149 52.7307 57.2575 52.1349C57.1788 51.8369 56.8326 51.6331 56.5336 51.7272C56.2345 51.8213 56.0457 52.1349 56.1243 52.4485V52.4955Z" fill="#231F20"/>
<path d="M59.0519 48.6387C59.0519 48.7485 59.0519 48.8582 59.0204 48.9523V48.7955C59.0047 49.062 58.926 49.3286 58.8315 49.5795L58.8945 49.4384C58.863 49.5324 58.8158 49.6108 58.7686 49.7049C58.6899 49.846 58.6742 50.0028 58.7056 50.1596C58.7214 50.238 58.7528 50.3007 58.8158 50.3635C58.863 50.4262 58.9102 50.4732 58.9889 50.5203C59.1306 50.5987 59.288 50.63 59.4454 50.583C59.587 50.5359 59.7287 50.4419 59.7916 50.3164C60.0749 49.799 60.2323 49.2345 60.248 48.6544C60.248 48.576 60.248 48.4976 60.2008 48.4349C60.1693 48.3565 60.1379 48.2937 60.0749 48.2467C60.0277 48.184 59.9647 48.1526 59.886 48.1213C59.8231 48.0899 59.7444 48.0742 59.6657 48.0742C59.5083 48.0742 59.3509 48.1369 59.2407 48.2467C59.1306 48.3565 59.0676 48.4976 59.0676 48.6701L59.0519 48.6387Z" fill="#231F20"/>
<path d="M47.6881 47.918C47.6881 47.918 47.5307 47.9493 47.4678 47.965C47.4678 47.965 47.5465 47.965 47.6881 47.918Z" fill="white"/>
<path d="M59.7598 28.1924V27.9729C61.7271 24.1313 61.8373 19.6626 60.9087 15.4918L60.8458 15.9151L59.9644 13.375C55.0854 13.5632 50.3795 16.2914 47.8298 20.4309L48.5538 20.0076L47.9715 20.525C47.1216 20.3055 46.2402 20.133 45.3746 20.0703C44.5247 19.8821 43.6591 19.741 42.7777 19.6469C40.0864 19.3647 37.3006 19.4901 34.6565 20.1487C33.9325 20.2271 33.1928 20.3839 32.4846 20.572L32.3429 20.3525L32.5318 20.4623C29.9506 16.3385 25.229 13.6416 20.35 13.4848L20.0195 13.9395L19.988 13.5788C18.178 18.0789 18.6974 23.3787 21.3415 27.4868L21.2786 26.8753L22.0813 28.7412C19.626 33.1629 19.1066 39.231 22.0813 43.3705C24.2217 46.3339 28.0148 47.3845 31.4773 47.8862C35.3647 48.4507 39.6299 48.5448 43.5646 48.388C43.9738 48.3723 44.383 48.3253 44.7765 48.2626C50.2064 48.9211 55.9982 46.6632 58.422 43.2607C61.0346 39.5916 60.7513 34.1351 58.9099 29.8388L59.744 28.1767L59.7598 28.1924Z" fill="#F8C04E"/>
<path d="M21.0421 18.8942C21.1523 20.7758 21.53 22.7671 22.4271 24.4605C22.7734 25.1034 23.2455 26.1069 24.1269 25.9031C24.8037 25.7463 25.1971 24.8996 25.6378 24.4449C26.6136 23.457 27.9199 22.4065 29.1003 21.6852C29.1948 21.6225 29.3049 21.5598 29.3522 21.4657C29.4309 21.2932 29.3207 21.1051 29.2105 20.9483C28.0773 19.2705 26.6608 17.5457 24.7092 16.7931C23.9852 16.5109 22.4429 15.6955 21.6559 15.9307C21.2624 16.0405 21.1365 16.5266 21.0893 16.9499C21.0264 17.6085 21.0106 18.267 21.0421 18.9256V18.8942Z" fill="white"/>
<path d="M59.3192 18.7862C59.2248 20.6834 58.8628 22.6591 57.9814 24.3525C57.6509 24.9954 57.1787 26.0146 56.2816 25.7951C55.6049 25.6383 55.2114 24.7916 54.755 24.3368C53.7792 23.349 52.4571 22.2985 51.2767 21.5929C51.1823 21.5302 51.0721 21.4674 51.0249 21.3734C50.9462 21.2009 51.0564 21.0127 51.1508 20.8559C52.284 19.1625 53.6847 17.4377 55.6363 16.6851C56.3603 16.4029 57.9027 15.5718 58.6897 15.807C59.0831 15.9168 59.2248 16.4029 59.272 16.8105C59.3507 17.4691 59.3664 18.1276 59.335 18.7862H59.3192Z" fill="white"/>
<path d="M50.9612 37.1615C49.2457 36.4245 47.1682 35.9228 45.2009 35.9698C44.4139 35.421 43.6427 34.9506 42.6512 34.6213C42.0531 34.4175 41.4078 34.3234 40.7625 34.2921C39.3618 34.1666 38.4175 34.4332 37.8194 34.637C36.8436 34.982 36.0567 35.4524 35.2855 36.0012C33.3181 35.9698 31.2406 36.4872 29.5408 37.2399C26.5032 38.5726 24.9923 41.9438 26.6292 44.7662C27.3689 46.0519 28.5808 46.977 30.0287 47.5415C30.9573 47.9021 31.7128 47.9648 32.72 48.1373C32.9247 48.1687 33.0191 48.2157 33.0191 48.2314C33.2079 48.2784 33.3811 48.3098 33.5699 48.3412C35.6317 48.7018 38.8739 48.7488 40.9514 48.7175C42.9817 48.7175 44.9963 48.6704 47.0108 48.2941C47.1839 48.2628 47.3728 48.2157 47.5617 48.1844C47.5617 48.1844 47.6561 48.1216 47.8607 48.0903C48.868 47.9178 49.6077 47.8551 50.552 47.4788C52 46.9143 53.1961 45.9735 53.9359 44.6878C55.557 41.8497 54.0303 38.4942 50.977 37.1771L50.9612 37.1615Z" fill="white"/>
<path d="M33.1133 47.9648C33.1133 47.9648 33.2707 47.9962 33.3336 48.0119C33.3336 48.0119 33.2549 48.0119 33.1133 47.9648Z" fill="white"/>
<path d="M31.5988 30.4822C32.8679 30.4785 33.8946 29.8015 33.8922 28.9702C33.8897 28.1389 32.8589 27.468 31.5898 27.4717C30.3208 27.4755 29.294 28.1524 29.2965 28.9838C29.299 29.8151 30.3297 30.486 31.5988 30.4822Z" fill="white"/>
<path d="M48.8478 30.4158C50.1169 30.4121 51.1437 29.7351 51.1412 28.9038C51.1387 28.0725 50.1079 27.4016 48.8389 27.4053C47.5698 27.4091 46.543 28.086 46.5455 28.9174C46.548 29.7487 47.5788 30.4196 48.8478 30.4158Z" fill="white"/>
<path d="M24.4102 26.3902C26.7395 23.4581 30.2335 21.4668 33.9164 20.8239C34.9394 20.6514 35.9782 20.6044 37.0012 20.6671C37.7566 20.7141 37.7566 19.5381 37.0012 19.4911C33.0193 19.2246 28.9744 20.7455 25.8896 23.2072C25.024 23.8971 24.2371 24.6811 23.5603 25.5435C23.3557 25.7944 23.3085 26.1393 23.5603 26.3745C23.7649 26.5784 24.1898 26.6254 24.3944 26.3745L24.4102 26.3902Z" fill="#231F20"/>
<path d="M37.4574 18.3941C37.6305 18.5509 37.7879 18.7234 37.9453 18.9116L37.8509 18.7861C38.0555 19.0527 38.2286 19.3506 38.3545 19.6642L38.2916 19.5231C38.4332 19.8367 38.5119 20.1659 38.5591 20.5109V20.3541C38.5591 20.3541 38.5591 20.4482 38.5591 20.4952C38.5749 20.652 38.6221 20.7931 38.7323 20.9186C38.8424 21.0283 38.9998 21.0911 39.1572 21.0911C39.3146 21.0911 39.472 21.0283 39.5821 20.9186C39.6766 20.8088 39.771 20.652 39.7553 20.4952C39.7081 20.0719 39.6294 19.6485 39.4562 19.2408C39.3618 19.0213 39.2674 18.8175 39.1572 18.6136C39.047 18.4098 38.9054 18.2217 38.748 18.0335C38.6063 17.861 38.4647 17.7042 38.2916 17.5631C38.1814 17.4533 38.0398 17.3906 37.8666 17.3906C37.725 17.3906 37.5519 17.4533 37.4417 17.5631C37.3315 17.6729 37.2686 17.8297 37.2686 17.9865C37.2686 18.1433 37.3315 18.3001 37.4417 18.4098L37.4574 18.3941Z" fill="#231F20"/>
<path d="M40.8568 18.9107C40.8568 18.9107 40.8726 18.9578 40.8883 18.9891L40.8254 18.848C40.9041 19.0205 40.9513 19.2087 40.967 19.3968V19.24C40.967 19.4438 40.967 19.632 40.9513 19.8358V19.679C40.9513 19.8672 40.9041 20.0397 40.8254 20.2278L40.8883 20.0867C40.8883 20.0867 40.8569 20.1651 40.8254 20.2122C40.7467 20.3533 40.7152 20.5101 40.7624 20.6669C40.7939 20.808 40.9041 20.9491 41.03 21.0118C41.1716 21.0902 41.329 21.1216 41.4864 21.0745C41.6281 21.0275 41.7697 20.9334 41.8327 20.808C42.0215 20.416 42.1317 20.0083 42.1474 19.5693C42.1474 19.3498 42.1159 19.1459 42.0845 18.9264C42.053 18.7069 41.9586 18.5187 41.8641 18.3306C41.8327 18.2679 41.7697 18.2051 41.7067 18.1581C41.6438 18.1111 41.5808 18.064 41.5021 18.0483C41.3605 18.017 41.1716 18.0327 41.0457 18.1111C40.9198 18.1895 40.8096 18.3149 40.7782 18.456V18.6128C40.7624 18.7226 40.7782 18.8167 40.8411 18.9107H40.8568Z" fill="#231F20"/>
<path d="M21.168 29.5254C19.6886 33.0534 18.9489 37.2556 20.208 40.9717C20.806 42.7435 21.8448 44.3428 23.3242 45.5188C24.8037 46.6948 26.472 47.3847 28.2347 47.8708C30.3752 48.4509 32.6101 48.7018 34.8135 48.8586C35.569 48.9057 35.569 47.7297 34.8135 47.6826C31.351 47.4474 27.5422 47.0084 24.5991 45.0171C21.6559 43.0257 20.5385 39.2939 20.806 35.7973C20.9634 33.7433 21.5143 31.7363 22.317 29.8547C22.4429 29.5568 22.1753 29.2118 21.9078 29.1334C21.5615 29.0394 21.3097 29.2589 21.1838 29.5411L21.168 29.5254Z" fill="#231F20"/>
<path d="M19.4211 13.4231C17.9889 17.0294 17.9889 21.1689 19.3424 24.7909C19.7359 25.8258 20.2238 26.8293 20.8219 27.7701C21.2311 28.413 22.2541 27.8171 21.8449 27.1743C19.2952 23.1916 18.8073 18.127 20.5543 13.721C20.6645 13.4231 20.4284 13.0781 20.1451 12.9997C19.8146 12.9056 19.5313 13.1095 19.4211 13.4074V13.4231Z" fill="#231F20"/>
<path d="M20.3653 14.0809C24.0167 14.2063 27.5422 15.8057 30.1233 18.3615C30.8473 19.0828 31.4926 19.8824 32.0435 20.7605C32.4527 21.4034 33.4757 20.8075 33.0665 20.1647C30.9575 16.8405 27.5422 14.3788 23.7334 13.391C22.6474 13.1088 21.5142 12.9363 20.381 12.9049C19.6256 12.8736 19.6256 14.0495 20.381 14.0809H20.3653Z" fill="#231F20"/>
<path d="M24.5045 17.406H24.536C24.536 17.406 24.4416 17.3746 24.3944 17.3589C24.7249 17.5001 25.0397 17.6725 25.3387 17.8607C25.4961 17.9548 25.6377 18.0645 25.7794 18.1743C25.7951 18.1743 25.8109 18.2056 25.8266 18.2056C25.8896 18.2527 25.7322 18.1272 25.7794 18.1743C25.8109 18.2056 25.8581 18.237 25.8896 18.2684C25.9683 18.3311 26.0469 18.3938 26.1099 18.4565C26.3932 18.6917 26.645 18.9426 26.8968 19.2092C27.0227 19.3346 27.1329 19.4757 27.2588 19.6012C27.306 19.6639 27.369 19.7266 27.4162 19.7893C27.4477 19.8207 27.4792 19.852 27.4949 19.8991C27.4949 19.8991 27.5264 19.9304 27.5264 19.9461C27.5893 20.0245 27.5106 19.9461 27.4949 19.9147C27.4949 19.9618 27.5579 19.9931 27.5893 20.0245C27.6208 20.0559 27.6523 20.1029 27.668 20.1343C27.7152 20.197 27.7625 20.2754 27.8097 20.3381C27.9041 20.4792 27.9985 20.636 28.093 20.7771C28.2504 21.0437 28.6281 21.1535 28.8957 20.981C29.1632 20.8085 29.2734 20.4635 29.1003 20.1813C28.7383 19.5541 28.2818 18.974 27.7939 18.4408C27.2431 17.845 26.645 17.3119 25.9682 16.8729C25.5905 16.622 25.1813 16.4181 24.7721 16.2457C24.6462 16.1986 24.4259 16.2457 24.3157 16.3084C24.1898 16.3868 24.0796 16.5122 24.0481 16.6533C24.0166 16.8101 24.0166 16.9669 24.1111 17.1081C24.2055 17.2492 24.3157 17.3119 24.4573 17.3746L24.5045 17.406Z" fill="#231F20"/>
<path d="M56.8482 25.4498C54.3929 22.3766 50.6471 20.2598 46.7754 19.6326C45.6737 19.4601 44.572 19.3817 43.4545 19.4601C43.1397 19.4758 42.8564 19.711 42.8564 20.056C42.8564 20.3539 43.124 20.6675 43.4545 20.6518C47.1374 20.3853 50.9304 21.7337 53.7791 24.0387C54.5975 24.7129 55.353 25.4655 56.014 26.2809C56.2186 26.5317 56.6436 26.4847 56.8482 26.2809C57.1 26.03 57.0528 25.7007 56.8482 25.4498Z" fill="#231F20"/>
<path d="M58.186 29.8712C59.5867 33.1483 60.3107 37.0526 59.1618 40.5178C58.0128 43.9831 55.1956 45.9744 51.9062 46.8995C49.8917 47.464 47.7984 47.6521 45.7209 47.6365C44.9654 47.6365 44.9654 48.8124 45.7209 48.8124C49.5139 48.8281 53.606 48.2323 56.6908 45.8803C59.7756 43.5284 61.1291 39.6554 60.8458 35.7982C60.6884 33.5403 60.0746 31.3451 59.1933 29.2754C59.0673 28.9775 58.6424 28.9148 58.3906 29.0716C58.0915 29.2441 58.0601 29.589 58.186 29.8712Z" fill="#231F20"/>
<path d="M60.3419 15.6498C61.3177 20.1186 61.0816 24.9636 58.5792 28.9306C58.17 29.5735 59.193 30.1693 59.6022 29.5265C62.2778 25.3086 62.5139 20.1186 61.4909 15.3362C61.3335 14.5993 60.2003 14.9129 60.3577 15.6498H60.3419Z" fill="#231F20"/>
<path d="M59.9802 12.7799C56.014 12.9367 52.1738 14.6772 49.4038 17.4839C48.6168 18.2835 47.9243 19.1616 47.3263 20.1181C46.9171 20.7609 47.9401 21.3568 48.3493 20.7139C50.2851 17.625 53.4329 15.3514 56.9584 14.4106C57.9499 14.1441 58.9572 13.9873 59.9802 13.9559C60.7357 13.9245 60.7357 12.7486 59.9802 12.7799Z" fill="#231F20"/>
<path d="M54.7859 16.7156C53.4009 17.2957 52.3149 18.409 51.4808 19.632C51.2447 19.977 51.0401 20.3219 50.8512 20.6826C50.7096 20.9491 50.7725 21.3411 51.0558 21.4823C51.3391 21.6234 51.7011 21.5606 51.8585 21.2784C52.1575 20.7139 52.5038 20.1808 52.8973 19.6791L52.8028 19.8045C53.212 19.2871 53.6685 18.8167 54.1878 18.409L54.0619 18.5031C54.4711 18.1895 54.8961 17.9386 55.3682 17.7348C55.4942 17.6877 55.6043 17.5153 55.6358 17.3898C55.6673 17.2487 55.6515 17.0605 55.5729 16.9351C55.4942 16.8097 55.3682 16.6999 55.2266 16.6686C55.0535 16.6372 54.9276 16.6686 54.7702 16.7313L54.7859 16.7156Z" fill="#231F20"/>
<path d="M32.2328 36.2529C33.0847 36.2529 33.7752 35.565 33.7752 34.7163C33.7752 33.8677 33.0847 33.1797 32.2328 33.1797C31.381 33.1797 30.6904 33.8677 30.6904 34.7163C30.6904 35.565 31.381 36.2529 32.2328 36.2529Z" fill="#231F20"/>
<path d="M48.2553 36.2061C49.1071 36.2061 49.7977 35.5181 49.7977 34.6694C49.7977 33.8208 49.1071 33.1328 48.2553 33.1328C47.4034 33.1328 46.7129 33.8208 46.7129 34.6694C46.7129 35.5181 47.4034 36.2061 48.2553 36.2061Z" fill="#231F20"/>
<path d="M40.2482 38.4708C41.8911 38.466 43.2204 37.6407 43.2174 36.6275C43.2144 35.6143 41.8801 34.7969 40.2373 34.8018C38.5945 34.8066 37.2651 35.6319 37.2682 36.6451C37.2712 37.6583 38.6054 38.4757 40.2482 38.4708Z" fill="#231F20"/>
</svg>
