<svg width="80" height="76" viewBox="0 0 80 76" fill="none" xmlns="http://www.w3.org/2000/svg">
<path d="M51.5181 49.9993C51.5181 49.9993 51.5181 49.9209 51.5338 49.8895C51.7542 48.3686 50.6525 47.6944 49.9442 46.5811C49.3147 45.609 48.9999 44.6682 48.1815 43.7431C46.3558 41.6733 43.9478 40.1994 41.162 39.8858C37.9828 39.5252 34.6776 40.6698 32.4113 42.912C31.4984 43.8215 30.7744 44.9974 30.2708 46.1734C29.8144 47.2553 29.1219 48.1961 28.6812 49.2624C28.3822 49.9836 28.4294 50.8931 28.9802 51.4418C29.1061 51.5673 29.2635 51.6927 29.2793 51.8652C29.2793 51.9906 29.2006 52.1161 29.1219 52.2258C28.8071 52.6335 28.4923 53.0569 28.3192 53.5429C28.1461 54.029 28.1461 54.6092 28.4451 55.0168C28.7756 55.4716 29.4366 55.6754 29.594 56.2085C29.7042 56.5848 29.5153 56.9925 29.4366 57.3845C29.232 58.2626 29.594 59.2347 30.3023 59.7835C31.341 60.5832 33.2612 60.1912 34.5045 60.1285L35.1498 59.4385C35.4488 59.9246 35.921 60.2696 36.6922 60.3793C39.4307 60.7556 40.076 59.0622 40.2334 57.0239C40.3908 59.0466 41.0361 60.74 43.7746 60.3793C45.5059 60.1441 47.0011 59.7678 48.7481 59.8776C49.6137 59.9246 50.621 59.9246 51.1718 59.2661C52.0217 58.2626 51.1561 56.5848 51.8171 55.4402C51.9745 55.1736 52.1949 54.9698 52.3522 54.7032C52.5883 54.3113 52.6513 53.8095 52.5096 53.3705C52.2578 52.5708 51.4079 52.022 51.3292 51.191C51.2978 50.799 51.4394 50.407 51.5181 50.015V49.9993Z" fill="white"/>
<path d="M33.9694 47.4282C33.3242 46.3306 32.0808 45.3898 31.0106 44.794C30.8689 44.7156 28.4766 49.3097 28.6498 49.9683C28.8386 50.6896 29.3895 52.8534 28.6025 53.4963C29.2006 53.0102 29.7672 52.7593 30.5227 52.4927C31.6086 52.1164 32.7261 51.6931 33.513 50.862C34.6462 49.6704 34.5675 48.4787 33.9694 47.4282Z" fill="#F39B4A"/>
<path d="M50.1016 46.3149C49.8025 45.9856 49.5192 45.6563 49.2831 45.2173C48.9212 45.4838 48.5434 45.7347 48.1972 46.017C46.9538 47.0205 45.0337 48.2748 45.978 50.1564C46.7335 51.6774 48.5906 52.3673 50.0858 52.9161C52.0059 53.606 53.0447 53.2924 51.4551 51.4108C51.1718 51.0815 50.9515 50.6111 51.1088 50.2035C51.1718 50.0153 51.3134 49.8742 51.4079 49.7017C51.7699 49.0902 51.644 48.2905 51.2662 47.6947C50.92 47.1459 50.5108 46.7539 50.1173 46.3306L50.1016 46.3149Z" fill="#F39B4A"/>
<path d="M34.1425 54.7349C34.1425 55.7228 34.0166 56.7106 34.0638 57.6984C34.1268 58.7647 34.4258 59.8466 35.3387 60.4894C35.8423 60.8501 36.4876 60.9598 37.0857 60.9912C37.6522 61.0225 38.2346 60.9755 38.754 60.756C39.2733 60.5365 39.6825 60.2072 40.0131 59.7525C40.2964 59.3605 40.4695 58.9058 40.5797 58.4354C40.863 57.2907 40.8472 56.0834 40.8315 54.9231C40.8315 54.6095 40.5639 54.3273 40.2334 54.3273C39.9029 54.3273 39.6353 54.5781 39.6353 54.9231C39.6353 55.4249 39.6353 55.9266 39.6353 56.4127C39.6353 56.6636 39.6196 56.8988 39.5881 57.1496C39.5881 57.2594 39.5724 57.3691 39.5566 57.4946C39.5566 57.5416 39.5252 57.6514 39.5566 57.4632C39.5566 57.4946 39.5566 57.5259 39.5566 57.5573C39.5566 57.62 39.5409 57.6827 39.5252 57.7298C39.4937 57.9493 39.4307 58.1688 39.3678 58.3727C39.3363 58.4667 39.3048 58.5608 39.2733 58.6549C39.3363 58.5295 39.2261 58.796 39.2733 58.6549C39.2419 58.7176 39.2261 58.7646 39.1946 58.8274C39.1474 58.9058 39.1002 58.9998 39.053 59.0782C39.0215 59.1096 39.0058 59.141 38.9743 59.188C38.9113 59.2664 39.0687 59.0782 39.0058 59.1566C38.99 59.188 38.9586 59.2037 38.9428 59.235C38.8799 59.2978 38.8169 59.3762 38.7382 59.4389C38.7225 59.4389 38.7067 59.4702 38.691 59.4859C38.6438 59.533 38.8169 59.3918 38.7382 59.4546C38.691 59.4859 38.6438 59.5173 38.5808 59.5643C38.5021 59.6114 38.392 59.6427 38.3133 59.7054C38.392 59.6427 38.4392 59.6584 38.3762 59.6741C38.3448 59.6741 38.329 59.6898 38.2975 59.7054C38.2346 59.7211 38.1716 59.7525 38.1087 59.7682C37.9985 59.7995 37.8883 59.8152 37.7782 59.8309C37.7782 59.8309 37.9355 59.8152 37.8411 59.8309C37.8096 59.8309 37.7782 59.8309 37.7467 59.8309C37.668 59.8309 37.5893 59.8309 37.5263 59.8309C37.4004 59.8309 37.2588 59.8309 37.1329 59.8309C37.0542 59.8309 36.9755 59.8309 36.8968 59.8152C36.8496 59.8152 36.8181 59.8152 36.7709 59.8152C36.8968 59.8309 36.6292 59.7995 36.7709 59.8152C36.645 59.7995 36.5348 59.7682 36.4089 59.7368C36.3459 59.7211 36.283 59.6898 36.2358 59.6741C36.1256 59.6427 36.3617 59.7368 36.2672 59.6741C36.2358 59.6741 36.22 59.6427 36.1885 59.6427C36.0941 59.5957 36.0154 59.533 35.921 59.4859C35.8266 59.4389 36.0312 59.58 35.9525 59.5173C35.9367 59.5016 35.9052 59.4859 35.8895 59.4702C35.8423 59.4389 35.8108 59.3918 35.7793 59.3605C35.7479 59.3291 35.7164 59.2664 35.6692 59.235C35.7636 59.2978 35.7479 59.3448 35.7164 59.2978C35.7164 59.2821 35.6849 59.2507 35.6692 59.235C35.6062 59.141 35.559 59.0469 35.5118 58.9528C35.5118 58.9214 35.496 58.9058 35.4803 58.8744C35.4331 58.7803 35.5275 59.0155 35.496 58.9214C35.496 58.8744 35.4646 58.8431 35.4488 58.796C35.4174 58.6863 35.3859 58.5765 35.3544 58.4667C35.3229 58.357 35.3072 58.2629 35.2914 58.1531C35.2914 58.1218 35.2914 58.0904 35.2914 58.0591C35.3229 58.2315 35.2914 58.1531 35.2914 58.1061C35.2914 58.0434 35.2914 57.9807 35.2757 57.9023C35.1813 56.8517 35.3387 55.8012 35.3387 54.7506C35.3387 54.437 35.0711 54.1548 34.7406 54.1548C34.4101 54.1548 34.1582 54.4057 34.1425 54.7506V54.7349Z" fill="#231F20"/>
<path d="M49.4878 44.5272C47.2687 41.0306 43.1608 38.8825 39.0058 39.2744C36.9598 39.4626 34.9452 40.1839 33.2927 41.4069C32.3798 42.0811 31.5929 42.8494 30.9476 43.7902C30.3023 44.731 29.8773 45.7502 29.3737 46.7537C28.9173 47.6318 28.2248 48.4471 27.973 49.4193C27.6897 50.4698 28.1461 51.442 28.7914 52.273V51.6772C28.1146 52.5552 27.4536 53.5431 27.5795 54.7034C27.7054 55.8637 28.4923 56.4438 29.4052 56.9456L29.2793 56.0205C28.0831 57.416 28.6969 59.3289 30.2708 60.0972C31.5614 60.7401 33.1038 60.7715 34.5045 60.6931C35.26 60.6617 35.26 59.4857 34.5045 59.5171C33.45 59.5641 32.3641 59.5798 31.3568 59.2662C30.3495 58.9526 29.1848 57.9177 30.1134 56.8358C30.3495 56.5536 30.3495 56.1146 29.9875 55.9107C29.358 55.5658 28.6969 55.1894 28.7284 54.3741C28.7599 53.5587 29.3265 52.8688 29.7987 52.2416C29.9088 52.1005 29.9088 51.8026 29.7987 51.6458C29.3422 51.05 28.8858 50.3757 29.1376 49.6074C29.3737 48.8862 29.8773 48.259 30.2393 47.6161C30.7272 46.738 31.0892 45.8129 31.6086 44.9505C32.128 44.0881 32.7418 43.3512 33.513 42.7083C36.3617 40.3564 40.4853 39.7448 43.8691 41.2187C45.742 42.0341 47.3631 43.3982 48.4648 45.123C48.874 45.7659 49.897 45.1701 49.4878 44.5272Z" fill="#231F20"/>
<path d="M45.1282 54.7346C45.1282 55.6754 45.2541 56.6005 45.2069 57.5413C45.2069 57.6511 45.2069 57.7608 45.1911 57.8863C45.1911 57.949 45.1911 57.996 45.1754 58.0587C45.1754 58.0901 45.1754 58.1058 45.1754 58.1371C45.1911 57.9333 45.1754 58.0901 45.1754 58.1371C45.1439 58.3566 45.0967 58.5762 45.018 58.78C45.018 58.827 44.9865 58.8584 44.9708 58.9054C44.9393 59.0152 45.0337 58.7643 44.9865 58.8584C44.9865 58.8898 44.9708 58.9054 44.955 58.9368C44.9078 59.0309 44.8606 59.125 44.7977 59.219C44.7977 59.2347 44.7662 59.2504 44.7662 59.2661C44.7347 59.3288 44.7032 59.2974 44.7977 59.219C44.7662 59.2504 44.7347 59.2974 44.6875 59.3445C44.656 59.3758 44.6245 59.4072 44.5931 59.4386C44.5773 59.4542 44.5458 59.4699 44.5301 59.4856C44.6245 59.4229 44.4199 59.5797 44.5301 59.4856C44.4357 59.5483 44.357 59.5954 44.2625 59.6424C44.2153 59.6737 44.0579 59.7051 44.2468 59.6424C44.1838 59.6581 44.1052 59.6894 44.0422 59.7208C43.9163 59.7522 43.8061 59.7835 43.6802 59.7992C43.633 59.7992 43.6172 59.8306 43.7274 59.7992C43.6959 59.7992 43.633 59.7992 43.6015 59.7992C43.5071 59.7992 43.4284 59.8149 43.334 59.8149C43.208 59.8149 43.0664 59.8149 42.9405 59.8149C42.8775 59.8149 42.7988 59.8149 42.7359 59.8149C42.6729 59.8149 42.4683 59.7678 42.6572 59.8149C42.547 59.7835 42.4368 59.7835 42.3267 59.7521C42.2637 59.7521 42.2165 59.7208 42.1535 59.7051C42.1221 59.7051 42.1063 59.6894 42.0749 59.6738C42.0119 59.6424 42.0119 59.611 42.1063 59.6894C42.0434 59.6267 41.9175 59.5954 41.8388 59.5483C41.7916 59.517 41.7443 59.4856 41.7129 59.4542C41.6971 59.4542 41.6184 59.3915 41.7129 59.4542C41.8073 59.517 41.7129 59.4542 41.6971 59.4386C41.6184 59.3758 41.5555 59.3131 41.4925 59.2347C41.4453 59.1877 41.3666 59.0466 41.4768 59.219C41.4453 59.172 41.4138 59.1406 41.3823 59.0936C41.3351 59.0152 41.2879 58.9368 41.2407 58.8427C41.2092 58.7957 41.1935 58.7486 41.1777 58.7016C41.1777 58.6859 41.1777 58.6702 41.162 58.6546C41.225 58.8114 41.1148 58.5605 41.162 58.6546C41.0833 58.4507 41.0204 58.2469 40.9731 58.043C40.9417 57.9176 40.9259 57.7922 40.8944 57.6667C40.8944 57.604 40.8787 57.5413 40.863 57.4943C40.8472 57.3845 40.8787 57.6511 40.863 57.5256C40.863 57.4943 40.863 57.4472 40.863 57.4159C40.8315 57.1493 40.8158 56.8827 40.8 56.6162C40.7685 56.0517 40.7843 55.4872 40.7843 54.9228C40.7843 54.6092 40.5167 54.3269 40.1862 54.3269C39.8557 54.3269 39.6039 54.5778 39.5881 54.9228C39.5881 55.989 39.5881 57.0709 39.777 58.1215C39.9659 59.0779 40.4065 60.0344 41.2722 60.5518C41.7601 60.8497 42.3424 60.9595 42.8933 60.9909C43.5386 61.0065 44.2153 60.9281 44.7977 60.6459C45.8364 60.1598 46.2299 59.0622 46.3401 58.0117C46.4502 56.9611 46.2928 55.8165 46.2928 54.7033C46.2928 54.3897 46.0253 54.1074 45.6948 54.1074C45.3642 54.1074 45.0967 54.3583 45.0967 54.7033L45.1282 54.7346Z" fill="#231F20"/>
<path d="M48.449 45.0449C48.7952 45.2487 48.9683 45.8759 49.0942 46.2522C49.2988 46.8167 49.5507 47.3027 49.9284 47.7731C50.3061 48.2435 50.8255 48.7139 50.9672 49.3411C51.0144 49.592 51.0144 49.8586 50.8727 50.0938C50.6996 50.3917 50.4635 50.6112 50.4635 50.9875C50.4635 51.6931 51.156 52.1478 51.4865 52.6966C51.7856 53.1983 51.9902 53.8255 51.7226 54.39C51.581 54.6723 51.3764 54.9074 51.2347 55.174C51.0458 55.5503 50.9829 55.9423 51.0144 56.35C51.0773 57.0242 51.2662 57.6357 50.9357 58.2786C50.1802 59.7211 48.4175 59.094 47.1269 59.188C46.3714 59.2351 46.3714 60.4111 47.1269 60.364C48.5906 60.2699 50.1173 60.756 51.3291 59.6741C51.9115 59.1567 52.2577 58.404 52.3207 57.6357C52.3522 57.2594 52.2892 56.8988 52.2263 56.5225C52.1633 56.0834 52.2105 55.8012 52.4466 55.4406C52.903 54.7506 53.1391 54.0764 52.966 53.2297C52.8243 52.4928 52.3994 51.8342 51.9115 51.2854C51.8643 51.2227 51.6439 51.0502 51.6439 50.9718C51.6439 50.9718 51.8643 50.7209 51.8957 50.6739C52.1003 50.3446 52.179 49.9526 52.179 49.5763C52.179 48.7923 51.7698 48.1338 51.2977 47.5536C51.0458 47.2557 50.7783 46.9735 50.5737 46.6285C50.4006 46.3463 50.3061 46.0484 50.1802 45.7504C49.9441 45.1233 49.6608 44.3863 49.047 44.0257C48.386 43.6337 47.8037 44.6529 48.449 45.0449Z" fill="#231F20"/>
<path d="M59.1047 37.2043C58.9315 37.7217 60.0962 38.1451 60.4425 37.9726C61.0878 37.6747 60.8989 36.5614 60.9304 35.9813C61.733 36.2635 62.3626 35.2286 62.4885 34.3819C62.819 32.0299 62.0006 29.5525 60.348 27.8591C60.773 27.9532 61.1507 27.4828 61.1192 27.0438C61.0878 26.6047 60.8045 26.2441 60.5212 25.9148C58.9473 24.0176 57.1845 22.0106 54.7765 21.5088C54.2099 21.399 53.6119 21.3677 53.0453 21.2266C52.3213 21.0541 51.6602 20.6934 50.9992 20.3642C48.9217 19.345 46.7026 18.608 44.4047 18.1847C44.625 17.7456 44.8454 17.2909 45.0657 16.8519C43.4918 16.5226 41.7921 16.8205 40.4228 17.6829C40.7061 16.8362 40.6117 15.8641 40.171 15.0801C38.9434 15.6916 38.0935 16.9773 37.9676 18.3415C36.6612 16.993 34.7254 16.2874 32.8682 16.4599C33.2931 17.0714 33.7181 17.6829 34.143 18.2944C33.7968 17.8084 30.0195 19.2195 29.5159 19.4077C27.942 20.0349 26.4783 20.8816 25.1562 21.9165C22.8584 23.704 19.931 24.0646 18.0266 26.4793C17.6331 26.981 17.2711 27.5769 17.3341 28.2198C17.397 28.8626 18.0581 29.4585 18.6561 29.2233C17.5544 31.1519 17.1767 33.4882 17.6174 35.6677C17.7118 36.1067 17.8377 36.5771 18.184 36.875C18.5302 37.1729 19.1125 37.2356 19.3958 36.875C18.121 38.2235 21.3789 38.2235 22.1501 37.6276C21.9927 38.835 21.6622 40.011 21.678 41.234C21.6937 42.457 21.977 43.7584 22.7482 44.7463C22.8426 44.8717 22.9685 44.9971 23.1259 44.9971C23.299 44.9971 23.4092 44.809 23.5037 44.6679C23.8027 44.1347 24.1017 43.6016 24.385 43.0685C24.2119 43.3821 25.471 44.9815 25.7386 45.2637C26.5098 46.079 27.5328 46.6592 28.6502 46.816C28.7289 46.4867 28.8233 46.1731 28.902 45.8438C32.3016 49.0582 39.6831 47.4902 43.8538 47.3805C47.159 47.3021 51.4399 47.4902 53.3286 44.3386C53.3286 44.7463 53.3915 45.1539 53.5017 45.5459C54.9182 45.5459 56.0514 44.3386 56.6337 43.0528C57.3105 41.5633 57.4836 39.8542 57.1059 38.2705C57.1059 38.5527 57.3734 38.8193 57.6567 38.8036C58.3492 38.8036 58.8843 37.7217 59.0575 37.1886L59.1047 37.2043Z" fill="#F39B4A"/>
<path d="M51.8019 41.9238C51.251 40.6381 50.2595 39.4935 49.1735 38.8663C47.6154 37.9569 45.9471 37.2356 44.2158 36.7025C42.0281 36.0282 41.5874 34.523 41.6347 32.3435C41.6819 30.6657 41.9652 28.4079 43.1141 27.0751C44.263 25.7423 46.671 25.0837 48.2764 24.1273C50.291 22.9199 52.0537 20.568 49.3938 19.2979C48.9532 19.0784 44.7194 17.6202 44.4361 18.2003C44.6565 17.7613 44.8768 17.3066 45.0972 16.8675C43.5233 16.5382 41.8235 16.8362 40.4542 17.6985C40.7375 16.8518 40.6431 15.8797 40.2024 15.0957C38.9748 15.7072 38.1249 16.993 37.999 18.3571C36.6927 17.0086 34.7568 16.303 32.8997 16.4755L34.1745 18.3101C33.8282 17.824 30.0509 19.2352 29.563 19.4233C28.7604 19.7369 27.942 20.0976 27.2652 20.5993C27.9734 22.3241 29.4214 23.5785 31.0582 24.3781C32.8367 25.2405 34.442 26.0559 35.229 27.9061C36.1733 30.117 36.6769 33.6449 35.229 35.746C34.0486 37.4708 31.1841 37.706 29.4686 38.49C27.2652 39.5092 25.6913 41.6416 26.8402 43.9152C28.4771 47.1452 33.3246 47.9762 36.5825 48.0703C38.424 48.1174 40.2811 48.1644 42.1226 48.2114C45.648 48.3055 54.2729 47.5372 51.8176 41.9082L51.8019 41.9238Z" fill="white"/>
<path d="M29.925 38.0508C30.7768 38.0508 31.4674 37.3628 31.4674 36.5142C31.4674 35.6655 30.7768 34.9775 29.925 34.9775C29.0731 34.9775 28.3826 35.6655 28.3826 36.5142C28.3826 37.3628 29.0731 38.0508 29.925 38.0508Z" fill="#231F20"/>
<path d="M49.079 38.0508C49.9309 38.0508 50.6214 37.3628 50.6214 36.5142C50.6214 35.6655 49.9309 34.9775 49.079 34.9775C48.2272 34.9775 47.5366 35.6655 47.5366 36.5142C47.5366 37.3628 48.2272 38.0508 49.079 38.0508Z" fill="#231F20"/>
<path d="M39.6358 40.2931C41.2786 40.2931 42.6104 39.4717 42.6104 38.4586C42.6104 37.4454 41.2786 36.624 39.6358 36.624C37.9929 36.624 36.6611 37.4454 36.6611 38.4586C36.6611 39.4717 37.9929 40.2931 39.6358 40.2931Z" fill="#231F20"/>
<path d="M25.7699 22.1986C28.0835 20.0505 31.1998 18.9215 34.3475 19.047C35.0715 19.0783 35.0715 18.1219 34.5049 17.8867C33.9383 17.6515 33.5763 17.0086 33.6707 16.4285L32.9468 16.8361C34.4577 17.1027 35.8742 17.7456 37.0388 18.7334C37.3379 18.9843 37.9517 18.9529 38.0304 18.4668C38.2192 17.1811 39.1321 16.1462 40.4227 15.864L39.6829 15.2995C39.6515 16.1462 39.6042 16.9772 39.5728 17.824C39.557 18.2787 40.0921 18.5452 40.4541 18.3257C42.028 17.432 43.7907 17.0713 45.585 17.2752L45.16 16.2717C44.5777 16.8361 43.9796 17.4006 43.3973 17.9651C43.0353 18.31 43.3028 18.9843 43.8222 18.9686C46.5135 18.8431 49.1577 19.5174 51.4712 20.8972C52.1165 21.2892 52.7146 20.27 52.0693 19.878C49.5983 18.3884 46.7181 17.6515 43.8222 17.7926L44.2472 18.7961C44.8295 18.2316 45.4276 17.6672 46.0099 17.1027C46.4034 16.7107 46.0729 16.1462 45.585 16.0992C43.6019 15.8797 41.5873 16.3187 39.8561 17.3222L40.7374 17.824C40.7689 16.9772 40.8161 16.1462 40.8476 15.2995C40.8633 14.9075 40.4541 14.6566 40.1079 14.735C38.471 15.0957 37.1333 16.4912 36.8972 18.1532L37.8887 17.8867C36.5667 16.7577 34.9928 15.9894 33.2773 15.6758C32.994 15.6288 32.6005 15.7542 32.5533 16.0835C32.3644 17.3536 33.0097 18.4982 34.2216 18.9843L34.379 17.824C30.9165 17.6828 27.5011 18.9686 24.9672 21.3206C24.4164 21.838 25.2505 22.669 25.8014 22.1516L25.7699 22.1986Z" fill="#231F20"/>
<path d="M24.1017 22.4336C21.2215 22.5434 18.5617 24.2681 17.3813 26.9023C17.035 27.655 16.8304 28.439 16.736 29.27C16.7045 29.5993 17.035 29.8501 17.334 29.8658C17.4442 29.8658 17.5701 29.8658 17.6803 29.8658C17.9951 29.8658 18.2784 29.5836 18.2784 29.27C18.2784 28.9564 18.0266 28.6898 17.6803 28.6742C17.5701 28.6742 17.4442 28.6742 17.334 28.6742L17.9321 29.27C17.9321 29.27 17.9321 29.1916 17.9321 29.1602C17.9321 29.0818 17.9636 29.0034 17.9793 28.925C18.0108 28.7682 18.0423 28.6271 18.0738 28.4703C18.1525 28.1567 18.2626 27.8588 18.3728 27.5609C18.4043 27.4668 18.3413 27.6393 18.3728 27.5609C18.3728 27.5295 18.4043 27.4982 18.42 27.4668C18.4515 27.4041 18.483 27.3414 18.5145 27.263C18.5931 27.1219 18.6561 26.9651 18.7505 26.8239C18.8292 26.6828 18.9079 26.5574 19.0024 26.4319C19.0496 26.3692 19.081 26.3065 19.1283 26.2595C19.144 26.2281 19.1755 26.1967 19.1912 26.1654C19.1912 26.1497 19.3014 26.0243 19.2384 26.1183C19.4273 25.8831 19.6319 25.648 19.8522 25.4284C19.9624 25.3187 20.0726 25.2246 20.1828 25.1305C20.2457 25.0835 20.2929 25.0364 20.3559 24.9894C20.4503 24.911 20.3874 24.958 20.3559 24.9894C20.4031 24.958 20.4503 24.9267 20.4975 24.8953C20.7494 24.7072 21.0169 24.5504 21.3002 24.3936C21.4261 24.3308 21.5678 24.2525 21.6937 24.1897C21.7252 24.1897 21.7566 24.1584 21.7881 24.1427C21.9455 24.0643 21.7252 24.1584 21.8196 24.127C21.8983 24.0957 21.977 24.0643 22.0557 24.0329C22.3862 23.9075 22.7324 23.8134 23.0787 23.7507C23.1731 23.735 23.2675 23.7193 23.3462 23.7037C23.3777 23.7037 23.4249 23.7037 23.4564 23.688C23.6453 23.6566 23.3462 23.688 23.5194 23.688C23.6925 23.688 23.8971 23.6566 24.0702 23.6409C24.385 23.6409 24.6683 23.3744 24.6683 23.0451C24.6683 22.7315 24.4007 22.4493 24.0702 22.4493L24.1017 22.4336Z" fill="#231F20"/>
<path d="M19.0338 28.3136C17.8849 29.5994 17.098 31.2144 16.8461 32.9078C16.7045 33.7859 16.7045 34.664 16.8147 35.542C16.9248 36.3731 17.1294 37.3138 17.8692 37.8313C18.6089 38.3487 20.0568 37.8783 19.9467 36.8121C19.9152 36.4985 19.6948 36.2163 19.3486 36.2163C19.0338 36.2163 18.7505 36.4828 18.7505 36.8121C18.782 37.6902 19.1125 38.7564 20.0411 39.0543C21.1113 39.3993 21.914 38.4585 22.3862 37.6274C22.7639 36.9689 21.7409 36.3731 21.3632 37.0316C21.2058 37.3138 21.0641 37.549 20.828 37.7686C20.6549 37.9254 20.529 37.9881 20.3559 37.9254C20.4503 37.9567 20.3087 37.894 20.2929 37.8783C20.3716 37.941 20.2142 37.7999 20.1985 37.7842C20.2614 37.8626 20.1513 37.7215 20.1513 37.7058C20.1513 37.6902 20.0568 37.502 20.0726 37.5647C20.0096 37.4236 19.9781 37.2825 19.9467 37.1414C19.9152 37.0159 19.9152 36.9846 19.9152 36.7964H18.7348C18.7348 36.7964 18.7348 36.8591 18.7348 36.8748C18.719 36.9375 18.7348 36.8591 18.7348 36.8434V36.7964C18.7348 36.7964 18.7348 36.8278 18.7348 36.8434C18.7033 36.8434 18.8135 36.7807 18.7348 36.8278C18.7033 36.8278 18.6876 36.8591 18.6561 36.8748C18.5617 36.9062 18.7348 36.8434 18.6404 36.8748C18.6404 36.8748 18.5144 36.8905 18.5774 36.8748C18.6561 36.8748 18.4357 36.8748 18.5144 36.8748C18.5931 36.8748 18.4357 36.8278 18.5144 36.8748C18.5774 36.9062 18.4672 36.8434 18.4672 36.8434C18.3885 36.7807 18.3413 36.7337 18.2626 36.6239C17.9793 36.1379 17.9006 35.4323 17.8692 34.8521C17.7905 33.535 18.0108 32.2179 18.5774 31.0262C18.8922 30.3363 19.3171 29.7091 19.8208 29.1447C20.0411 28.9095 20.0568 28.5488 19.8208 28.3136C19.6004 28.0941 19.2069 28.0784 18.9866 28.3136H19.0338Z" fill="#231F20"/>
<path d="M53.8008 22.4337C54.1156 22.3866 54.4461 22.371 54.7609 22.3866C54.9183 22.3866 55.0914 22.4023 55.2488 22.4337C55.1543 22.4337 55.3432 22.4337 55.359 22.4494C55.4534 22.465 55.5321 22.4807 55.6265 22.4964C56.2875 22.6532 56.7597 22.8414 57.3263 23.202C57.6253 23.3901 57.7985 23.5313 58.066 23.7821C58.3336 24.033 58.5697 24.2839 58.8215 24.5661C59.2779 25.0836 59.6242 25.4912 59.9861 26.0714C60.0806 26.2282 60.175 26.385 60.2537 26.5575C60.2852 26.6359 60.3167 26.6986 60.3639 26.777C60.3324 26.6986 60.3639 26.7927 60.3639 26.8083C60.3796 26.8554 60.3954 26.9024 60.4111 26.9495C60.474 27.1219 60.5213 27.2944 60.5527 27.4669C60.5527 27.4983 60.5685 27.5453 60.5685 27.5923C60.5685 27.6237 60.5842 27.7335 60.5685 27.6394C60.5685 27.7335 60.5842 27.8432 60.5842 27.9373C60.5842 28.2509 60.8518 28.5331 61.1823 28.5331C61.4971 28.5331 61.7804 28.2666 61.7804 27.9373C61.7174 26.4007 60.8203 25.1149 59.8445 23.986C59.3251 23.3901 58.79 22.8414 58.1605 22.371C57.5781 21.9476 56.9171 21.6497 56.2246 21.4615C55.4377 21.242 54.6035 21.1636 53.7851 21.2734C53.486 21.3047 53.187 21.5086 53.187 21.8692C53.187 22.1514 53.4546 22.4964 53.7851 22.465L53.8008 22.4337Z" fill="#231F20"/>
<path d="M59.2935 27.6393C60.3323 28.7682 61.2766 30.054 61.7488 31.5122C62.0006 32.2805 62.1265 33.0488 62.0793 33.8642C62.0635 34.2405 62.0006 34.6168 61.8904 34.9931C61.8432 35.1342 61.796 35.291 61.7488 35.3538C61.7016 35.4008 61.6858 35.4165 61.7173 35.3851C61.7802 35.3694 61.7645 35.3694 61.7016 35.3851C61.7488 35.3851 61.8275 35.3694 61.8747 35.4165C61.6543 35.1813 61.2609 35.197 61.0405 35.4165C60.8044 35.6517 60.8202 36.0123 61.0405 36.2475C61.3553 36.5768 61.8747 36.6238 62.2682 36.42C62.6459 36.2318 62.8347 35.8555 62.9607 35.4792C63.2125 34.7422 63.2912 33.9426 63.2597 33.1743C63.1653 31.6063 62.5829 30.1324 61.7173 28.831C61.2451 28.1097 60.6943 27.4511 60.1277 26.8083C59.9073 26.5731 59.5139 26.5887 59.2935 26.8083C59.0574 27.0435 59.0732 27.4041 59.2935 27.6393Z" fill="#231F20"/>
<path d="M60.049 33.8175C60.1435 34.0371 60.2222 34.2722 60.2694 34.5074C60.3009 34.6172 60.3323 34.727 60.3481 34.8524C60.3481 34.9151 60.3638 34.9622 60.3796 35.0249C60.3796 35.0562 60.3796 35.0876 60.3796 35.119C60.3796 35.1974 60.3796 34.9935 60.3796 35.119C60.411 35.3542 60.4268 35.605 60.4268 35.8402C60.4268 35.95 60.4268 36.0754 60.4268 36.1852C60.4268 36.2322 60.4268 36.2949 60.4268 36.342C60.4268 36.4047 60.3953 36.4988 60.3953 36.5615C60.3953 36.5615 60.411 36.4204 60.3953 36.5301C60.3953 36.5615 60.3953 36.5929 60.3953 36.6242C60.3953 36.6869 60.3796 36.734 60.3638 36.7967C60.3323 36.9221 60.3166 37.0319 60.2851 37.1573C60.2222 37.3925 60.1435 37.612 60.049 37.8472C60.049 37.8786 60.0176 37.9413 60.049 37.8316C60.049 37.8629 60.0176 37.8943 60.0176 37.91C59.9861 37.957 59.9703 38.0197 59.9389 38.0668C59.9231 38.0981 59.8917 38.1452 59.8759 38.1765C59.8759 38.1922 59.8287 38.2706 59.8759 38.1922C59.9231 38.0824 59.8444 38.2236 59.8444 38.2079C59.8444 38.1765 59.9546 38.1295 59.9861 38.1295C59.8917 38.1608 60.0333 38.1295 60.049 38.1295C60.1749 38.1295 60.1592 38.1452 60.112 38.1295C60.2379 38.1765 60.2064 38.1765 60.175 38.1452C60.3009 38.2236 60.2379 38.2079 60.2222 38.1765L60.175 38.1295C60.2064 38.1295 60.2379 38.2236 60.2064 38.1608C60.1907 38.1295 60.1749 38.0981 60.1435 38.0668C60.0018 37.8159 59.9074 37.5493 59.7972 37.2828C59.6713 36.9849 59.5454 36.6869 59.4037 36.4047C59.3565 36.2793 59.1834 36.1695 59.0575 36.1381C58.9316 36.1068 58.8057 36.1225 58.6798 36.1695C58.3807 36.2949 58.302 36.5615 58.3335 36.8594C58.302 36.6869 58.3335 36.8594 58.3335 36.8908C58.3335 36.9378 58.3335 36.9692 58.3335 37.0162C58.3335 37.1103 58.3335 37.2044 58.3335 37.2828C58.3335 37.3298 58.3335 37.3612 58.3335 37.4082C58.365 37.2828 58.3335 37.5493 58.3335 37.4082C58.3178 37.5023 58.302 37.5807 58.2706 37.6748C58.2391 37.7688 58.2233 37.8472 58.1919 37.9413C58.1919 37.9727 58.1447 38.0981 58.1919 37.957C58.1919 38.004 58.1604 38.0354 58.1447 38.0668C58.066 38.2392 57.9715 38.3804 57.8614 38.5372C57.7827 38.6469 57.7669 38.8664 57.7984 38.9919C57.8299 39.1173 57.94 39.2741 58.066 39.3368C58.3807 39.4936 58.6798 39.3839 58.8686 39.133C59.4352 38.3804 59.6084 37.4396 59.4667 36.5301L58.3807 36.9849C58.5066 37.2828 58.6326 37.5807 58.7742 37.8629C58.8844 38.1295 58.9945 38.4117 59.1362 38.6626C59.2936 38.9448 59.5454 39.1957 59.8759 39.2741C60.3166 39.3682 60.6943 39.133 60.9304 38.7567C61.0878 38.5058 61.198 38.2079 61.2924 37.9413C61.3868 37.6748 61.4655 37.4082 61.5127 37.1417C61.6229 36.5772 61.6859 35.997 61.6387 35.4169C61.5914 34.774 61.4655 34.1155 61.2137 33.5196C61.1508 33.3785 61.0878 33.2531 60.9462 33.1747C60.8202 33.0963 60.6314 33.0649 60.4897 33.1119C60.2064 33.206 59.9546 33.5353 60.0805 33.8332L60.049 33.8175Z" fill="#231F20"/>
<path d="M23.598 32.6882C23.1259 35.0089 21.9297 37.1099 21.5363 39.4462C21.3631 40.4968 21.3159 41.5473 21.5363 42.5979C21.7251 43.5387 22.1815 44.7303 22.9842 45.3105C24.4322 46.3453 25.046 43.9463 24.9673 42.9585L23.8026 43.1153C24.1961 45.138 25.6913 46.8157 27.6114 47.5527C27.9104 47.6624 28.2567 47.4273 28.3354 47.145C28.4298 46.8157 28.2252 46.5335 27.9262 46.4237C26.3838 45.8279 25.2663 44.4167 24.9516 42.8174C24.8257 42.1745 23.7397 42.3156 23.7869 42.9742C23.8026 43.2878 23.7869 43.57 23.7082 43.8836C23.6767 43.9934 23.6453 44.0875 23.598 44.1815C23.5666 44.2599 23.5351 44.3227 23.4879 44.3854C23.3934 44.5108 23.4406 44.5108 23.661 44.3854C23.661 44.354 23.4564 44.1502 23.4249 44.1188C23.362 44.0404 23.299 43.9463 23.2518 43.8523C23.1101 43.6171 22.9842 43.3819 22.8898 43.131C22.5278 42.1588 22.4963 41.0926 22.6222 40.0577C22.9527 37.6117 24.2433 35.4165 24.7312 33.0175C24.8886 32.2806 23.7397 31.967 23.598 32.7039V32.6882Z" fill="#231F20"/>
<path d="M54.2729 33.2061C55.4376 35.3542 56.6809 37.6278 56.6652 40.1365C56.6495 42.1592 55.595 44.3074 53.5174 44.8875L54.2572 45.452C54.2257 44.9346 54.2886 44.4485 54.4303 43.9467L53.2971 43.6331C53.0925 44.5269 52.7305 45.1541 51.9593 45.7342C50.5743 46.8005 48.6384 47.2238 46.9387 47.5374C46.1989 47.6785 46.5137 48.8075 47.2534 48.6664C50.1021 48.1489 53.6906 47.1454 54.4303 43.9467C54.6034 43.2098 53.5017 42.9119 53.2971 43.6331C53.124 44.229 53.0453 44.8405 53.0768 45.452C53.0925 45.8283 53.4387 46.1262 53.8165 46.0165C56.256 45.3422 57.6567 42.9589 57.8141 40.5599C58.003 37.6905 56.6022 35.0563 55.2802 32.6102C54.9182 31.9517 53.8952 32.5318 54.2572 33.2061H54.2729Z" fill="#231F20"/>
<path d="M28.8075 47.7255C29.1223 47.3649 29.3111 46.9258 29.3269 46.4554C29.3426 45.985 29.1695 45.5303 28.8704 45.154L28.1622 46.0791C29.0436 46.7533 30.0508 47.2708 31.1053 47.6157C32.2543 47.992 33.4661 48.1175 34.6623 48.2272C34.9771 48.2586 35.2604 47.9293 35.2604 47.6314C35.2604 47.2865 34.9928 47.0669 34.6623 47.0356C34.3633 47.0042 34.0642 46.9729 33.7652 46.9415C33.6235 46.9415 33.4819 46.9101 33.3402 46.8945C33.4504 46.8945 33.2143 46.8788 33.1986 46.8788C33.1356 46.8788 33.0727 46.8631 33.0255 46.8474C32.4746 46.7533 31.9395 46.6436 31.4044 46.4711C31.2785 46.4241 31.1683 46.3927 31.0424 46.3457C30.9794 46.3143 30.9007 46.2986 30.8378 46.2673C30.8378 46.2673 30.6647 46.2046 30.7748 46.2516C30.523 46.1418 30.2869 46.0321 30.0508 45.9066C29.5944 45.6558 29.1537 45.3735 28.7288 45.0599C28.4927 44.8874 28.1307 44.9972 27.9733 45.2167C27.7845 45.4676 27.8317 45.7498 28.0205 45.985C27.9418 45.8753 28.0363 46.0321 28.0678 46.0634L28.0992 46.1418C28.0992 46.1732 28.115 46.2046 28.1307 46.2516C28.1307 46.2516 28.1307 46.283 28.1307 46.2986C28.1307 46.3457 28.1307 46.33 28.1307 46.2516C28.1307 46.2516 28.1307 46.4241 28.1307 46.4554C28.1307 46.4868 28.1307 46.5181 28.1307 46.5495C28.1622 46.4084 28.1307 46.6279 28.1307 46.5495C28.115 46.6122 28.0992 46.6749 28.0835 46.7377C28.0678 46.8161 28.1307 46.6436 28.0835 46.722C28.0678 46.7533 28.052 46.7847 28.0363 46.8161C28.0363 46.8474 28.0048 46.8631 27.9891 46.8945C27.9104 47.0199 28.0678 46.8004 27.9733 46.9101C27.7687 47.1453 27.7372 47.5217 27.9733 47.7412C28.1937 47.945 28.5871 47.992 28.8075 47.7412V47.7255Z" fill="#231F20"/>
<path d="M33.1829 37.7687C36.9288 36.138 41.2884 36.091 45.0814 37.5649C45.5536 37.7531 45.7582 36.9847 45.286 36.8123C41.2726 35.26 36.7084 35.3854 32.7737 37.0945C32.3173 37.2983 32.7108 37.9726 33.1672 37.7687H33.1829Z" fill="#231F20"/>
</svg>
