<svg width="80" height="76" viewBox="0 0 80 76" fill="none" xmlns="http://www.w3.org/2000/svg">
<path d="M51.9373 48.4192C51.9373 48.4192 51.9373 48.3408 51.953 48.3095C52.1734 46.7885 51.0717 46.1143 50.3634 45.001C49.7339 44.0289 49.4191 43.0881 48.6007 42.163C46.775 40.0933 44.367 38.6194 41.5812 38.3058C38.402 37.9451 35.0968 39.0897 32.8305 41.332C31.9176 42.2414 31.1936 43.4174 30.69 44.5934C30.2336 45.6753 29.5411 46.616 29.1004 47.6823C28.8013 48.4035 28.8486 49.313 29.3994 49.8618C29.5253 49.9872 29.6827 50.1126 29.6984 50.2851C29.6984 50.4106 29.6198 50.536 29.5411 50.6458C29.2263 51.0534 28.9115 51.4768 28.7384 51.9629C28.5653 52.4489 28.5653 53.0291 28.8643 53.4368C29.1948 53.8915 29.8558 54.0953 30.0132 54.6284C30.1234 55.0047 29.9345 55.4124 29.8558 55.8044C29.6512 56.6825 30.0132 57.6546 30.7215 58.2034C31.7602 59.0031 33.6803 58.6111 34.9237 58.5484L35.569 57.8585C35.868 58.3445 36.3402 58.6895 37.1114 58.7993C39.8499 59.1756 40.4952 57.4822 40.6526 55.4438C40.81 57.4665 41.4553 59.1599 44.1938 58.7993C45.9251 58.5641 47.4203 58.1877 49.1673 58.2975C50.0329 58.3445 51.0402 58.3445 51.591 57.686C52.4409 56.6825 51.5753 55.0047 52.2363 53.8601C52.3937 53.5936 52.614 53.3897 52.7714 53.1232C53.0075 52.7312 53.0705 52.2294 52.9288 51.7904C52.677 50.9907 51.8271 50.4419 51.7484 49.6109C51.7169 49.2189 51.8586 48.8269 51.9373 48.4349V48.4192Z" fill="white"/>
<path d="M34.3884 45.8481C33.7431 44.7505 32.4997 43.8097 31.4295 43.2139C31.2879 43.1355 28.8956 47.7297 29.0687 48.3882C29.2576 49.1095 29.8084 51.2733 29.0215 51.9162C29.6196 51.4301 30.1861 51.1792 30.9416 50.9127C32.0276 50.5364 33.145 50.113 33.932 49.282C35.0652 48.0903 34.9865 46.8986 34.3884 45.8481Z" fill="#F39B4A"/>
<path d="M50.5205 44.7343C50.2215 44.405 49.9382 44.0758 49.7021 43.6367C49.3401 43.9033 48.9624 44.1542 48.6161 44.4364C47.3728 45.4399 45.4526 46.6943 46.397 48.5759C47.1524 50.0968 49.0096 50.7867 50.5048 51.3355C52.4249 52.0254 53.4636 51.7118 51.874 49.8302C51.5907 49.501 51.3704 49.0306 51.5278 48.6229C51.5907 48.4347 51.7324 48.2936 51.8268 48.1211C52.1888 47.5096 52.0629 46.71 51.6852 46.1141C51.3389 45.5653 50.9297 45.1733 50.5362 44.75L50.5205 44.7343Z" fill="#F39B4A"/>
<path d="M34.5619 53.1544C34.5619 54.1422 34.436 55.13 34.4833 56.1179C34.5462 57.1841 34.8452 58.266 35.7581 58.9089C36.2617 59.2695 36.907 59.3793 37.5051 59.4106C38.0717 59.442 38.654 59.3949 39.1734 59.1754C39.6928 58.9559 40.102 58.6266 40.4325 58.1719C40.7158 57.7799 40.8889 57.3252 40.9991 56.8548C41.2824 55.7102 41.2666 54.5028 41.2509 53.3425C41.2509 53.0289 40.9833 52.7467 40.6528 52.7467C40.3223 52.7467 40.0548 52.9976 40.0548 53.3425C40.0548 53.8443 40.0548 54.346 40.0548 54.8321C40.0548 55.083 40.039 55.3182 40.0075 55.5691C40.0075 55.6788 39.9918 55.7886 39.9761 55.914C39.9761 55.9611 39.9446 56.0708 39.9761 55.8827C39.9761 55.914 39.9761 55.9454 39.9761 55.9767C39.9761 56.0395 39.9603 56.1022 39.9446 56.1492C39.9131 56.3687 39.8502 56.5883 39.7872 56.7921C39.7557 56.8862 39.7242 56.9802 39.6928 57.0743C39.6456 57.2154 39.7557 56.9489 39.6928 57.0743C39.6613 57.137 39.6456 57.1841 39.6141 57.2468C39.5669 57.3252 39.5196 57.4193 39.4724 57.4977C39.441 57.529 39.4252 57.5604 39.3937 57.6074C39.3308 57.6858 39.4882 57.4977 39.4252 57.5761C39.4095 57.6074 39.378 57.6231 39.3623 57.6545C39.2993 57.7172 39.2363 57.7956 39.1577 57.8583C39.1419 57.8583 39.1262 57.8897 39.1104 57.9054C39.0632 57.9524 39.2363 57.8113 39.1577 57.874C39.1104 57.9054 39.0632 57.9367 39.0003 57.9838C38.9216 58.0308 38.8114 58.0622 38.7327 58.1249C38.8114 58.0622 38.8586 58.0778 38.7957 58.0935C38.7642 58.0935 38.7484 58.1092 38.717 58.1249C38.654 58.1406 38.5911 58.1719 38.5281 58.1876C38.4179 58.219 38.3078 58.2346 38.1976 58.2503C38.1976 58.2503 38.355 58.2346 38.2605 58.2503C38.2291 58.2503 38.1976 58.2503 38.1661 58.2503C38.0874 58.2503 38.0087 58.2503 37.9458 58.2503C37.8199 58.2503 37.6782 58.2503 37.5523 58.2503C37.4736 58.2503 37.3949 58.2503 37.3162 58.2346C37.269 58.2346 37.2375 58.2346 37.1903 58.2346C37.0487 58.2189 37.3162 58.2503 37.1903 58.2346C37.0644 58.2189 36.9542 58.1876 36.8283 58.1562C36.7654 58.1406 36.7024 58.1092 36.6552 58.0935C36.545 58.0622 36.7811 58.1562 36.6867 58.0935C36.6552 58.0935 36.6395 58.0622 36.608 58.0622C36.5135 58.0151 36.4349 57.9524 36.3404 57.9054C36.246 57.8583 36.4506 57.9994 36.3719 57.9367C36.3562 57.921 36.3247 57.9054 36.3089 57.8897C36.2617 57.8583 36.2303 57.8113 36.1988 57.7799C36.1673 57.7486 36.1358 57.6858 36.0886 57.6545C36.183 57.7172 36.1673 57.7642 36.1358 57.7172C36.1358 57.7015 36.1043 57.6702 36.0886 57.6545C36.0256 57.5604 35.9784 57.4663 35.9312 57.3722C35.9312 57.3409 35.9155 57.3252 35.8997 57.2938C35.8525 57.1998 35.947 57.435 35.9155 57.3409C35.9155 57.2938 35.884 57.2625 35.8683 57.2154C35.8368 57.1057 35.8053 56.9959 35.7738 56.8862C35.7423 56.7764 35.7266 56.6823 35.7109 56.5726C35.7109 56.5412 35.7109 56.5099 35.7109 56.4785C35.7424 56.651 35.7109 56.5726 35.7109 56.5255C35.7109 56.4628 35.7109 56.4001 35.6951 56.3217C35.6007 55.2711 35.7581 54.2206 35.7581 53.1701C35.7581 52.8565 35.4905 52.5742 35.16 52.5742C34.8295 52.5742 34.5777 52.8251 34.5619 53.1701V53.1544Z" fill="#231F20"/>
<path d="M49.9072 42.9471C47.6881 39.4505 43.5803 37.3024 39.4252 37.6944C37.3792 37.8825 35.3647 38.6038 33.7121 39.8268C32.7992 40.5011 32.0123 41.2694 31.367 42.2102C30.7217 43.1509 30.2968 44.1701 29.7931 45.1736C29.3367 46.0517 28.6442 46.8671 28.3924 47.8392C28.1091 48.8897 28.5655 49.8619 29.2108 50.6929V50.0971C28.534 50.9752 27.873 51.963 27.9989 53.1233C28.1248 54.2836 28.9118 54.8638 29.8246 55.3655L29.6987 54.4404C28.5026 55.8359 29.1164 57.7488 30.6903 58.5171C31.9808 59.16 33.5232 59.1914 34.924 59.113C35.6794 59.0816 35.6794 57.9056 34.924 57.937C33.8695 57.984 32.7835 57.9997 31.7762 57.6861C30.7689 57.3725 29.6043 56.3377 30.5329 55.2557C30.7689 54.9735 30.7689 54.5345 30.407 54.3306C29.7774 53.9857 29.1164 53.6094 29.1479 52.794C29.1793 51.9787 29.7459 51.2888 30.2181 50.6616C30.3283 50.5204 30.3283 50.2225 30.2181 50.0657C29.7617 49.4699 29.3052 48.7957 29.5571 48.0274C29.7931 47.3061 30.2968 46.6789 30.6588 46.036C31.1467 45.158 31.5087 44.2328 32.028 43.3705C32.5474 42.5081 33.1612 41.7711 33.9324 41.1282C36.7811 38.7763 40.9047 38.1648 44.2885 39.6387C46.1614 40.454 47.7825 41.8182 48.8842 43.5429C49.2934 44.1858 50.3165 43.59 49.9072 42.9471Z" fill="#231F20"/>
<path d="M45.5478 53.1545C45.5478 54.0953 45.6738 55.0204 45.6265 55.9612C45.6265 56.071 45.6265 56.1807 45.6108 56.3062C45.6108 56.3689 45.6108 56.4159 45.5951 56.4787C45.5951 56.51 45.5951 56.5257 45.5951 56.5571C45.5951 56.51 45.6108 56.3532 45.5951 56.5571C45.5636 56.7766 45.5164 56.9961 45.4377 57.1999C45.4377 57.247 45.4062 57.2783 45.3905 57.3254C45.359 57.4351 45.4534 57.1842 45.4062 57.2783C45.4062 57.3097 45.3905 57.3254 45.3747 57.3567C45.3275 57.4508 45.2803 57.5449 45.2173 57.639C45.2173 57.6546 45.1859 57.6703 45.1859 57.686C45.1544 57.7487 45.1229 57.7174 45.2173 57.639C45.1859 57.6703 45.1544 57.7174 45.1072 57.7644C45.0757 57.7958 45.0442 57.8271 45.0127 57.8585C44.997 57.8742 44.9655 57.8898 44.9498 57.9055C44.8396 57.9996 45.0442 57.8428 44.9498 57.9055C44.8553 57.9682 44.7766 58.0153 44.6822 58.0623C44.635 58.0937 44.4776 58.125 44.6665 58.0623C44.6035 58.078 44.5248 58.1094 44.4619 58.1407C44.336 58.1721 44.2258 58.2034 44.0999 58.2191C44.0527 58.2191 44.0369 58.2505 44.1471 58.2191C44.1156 58.2191 44.0527 58.2191 44.0212 58.2191C43.9268 58.2191 43.8481 58.2348 43.7536 58.2348C43.6277 58.2348 43.4861 58.2348 43.3602 58.2348C43.2972 58.2348 43.2185 58.2348 43.1556 58.2348C43.0926 58.2348 42.888 58.1878 43.0769 58.2348C42.9667 58.2034 42.8565 58.2034 42.7464 58.1721C42.6834 58.1721 42.6362 58.1407 42.5732 58.125C42.5417 58.125 42.526 58.1094 42.4945 58.0937C42.4316 58.0623 42.4316 58.031 42.526 58.1094C42.4631 58.0466 42.3371 58.0153 42.2585 57.9682C42.2112 57.9369 42.164 57.9055 42.1325 57.8742C42.0381 57.8114 42.1168 57.8742 42.1325 57.8742C42.227 57.9369 42.1325 57.8742 42.1168 57.8585C42.0381 57.7958 41.9752 57.733 41.9122 57.6546C41.865 57.6076 41.7863 57.4665 41.8965 57.639C41.865 57.5919 41.8335 57.5606 41.802 57.5135C41.7548 57.4351 41.7076 57.3567 41.6604 57.2626C41.6289 57.2156 41.6132 57.1686 41.5974 57.1215C41.5974 57.1058 41.5974 57.0902 41.5817 57.0745C41.5345 56.9804 41.6446 57.2313 41.5817 57.0745C41.503 56.8707 41.44 56.6668 41.3928 56.463C41.3613 56.3375 41.3456 56.2121 41.3141 56.0867C41.3141 56.0239 41.2984 55.9612 41.2826 55.9142C41.2669 55.8044 41.2984 56.071 41.2826 55.9455C41.2826 55.9142 41.2826 55.8671 41.2826 55.8358C41.2512 55.5692 41.2354 55.3027 41.2197 55.0361C41.1882 54.4716 41.204 53.9072 41.204 53.3427C41.204 53.0291 40.9364 52.7469 40.6059 52.7469C40.2754 52.7469 40.0236 52.9977 40.0078 53.3427C40.0078 54.4089 40.0078 55.4908 40.1967 56.5414C40.3855 57.4978 40.8262 58.4543 41.6919 58.9717C42.1798 59.2697 42.7621 59.3794 43.3129 59.4108C43.9582 59.4265 44.635 59.3481 45.2173 59.0658C46.2561 58.5797 46.6496 57.4822 46.7597 56.4316C46.8699 55.3811 46.7125 54.2364 46.7125 53.1232C46.7125 52.8096 46.445 52.5273 46.1144 52.5273C45.7839 52.5273 45.5164 52.7782 45.5164 53.1232L45.5478 53.1545Z" fill="#231F20"/>
<path d="M48.8681 43.4648C49.2144 43.6686 49.3875 44.2958 49.5134 44.6721C49.718 45.2366 49.9699 45.7227 50.3476 46.1931C50.7253 46.6635 51.2447 47.1338 51.3863 47.761C51.4336 48.0119 51.4336 48.2785 51.2919 48.5137C51.1188 48.8116 50.8827 49.0311 50.8827 49.4074C50.8827 50.113 51.5752 50.5677 51.9057 51.1165C52.2048 51.6183 52.4094 52.2455 52.1418 52.8099C52.0002 53.0922 51.7955 53.3274 51.6539 53.5939C51.465 53.9702 51.4021 54.3622 51.4336 54.7699C51.4965 55.4441 51.6854 56.0557 51.3549 56.6985C50.5994 58.1411 48.8367 57.5139 47.5461 57.608C46.7906 57.655 46.7906 58.831 47.5461 58.7839C49.0098 58.6899 50.5364 59.1759 51.7483 58.094C52.3307 57.5766 52.6769 56.824 52.7399 56.0557C52.7713 55.6793 52.7084 55.3187 52.6454 54.9424C52.5825 54.5034 52.6297 54.2211 52.8658 53.8605C53.3222 53.1706 53.5583 52.4963 53.3852 51.6496C53.2435 50.9127 52.8186 50.2541 52.3307 49.7053C52.2834 49.6426 52.0631 49.4701 52.0631 49.3917C52.0631 49.3917 52.2835 49.1409 52.3149 49.0938C52.5195 48.7645 52.5982 48.3726 52.5982 47.9962C52.5982 47.2122 52.189 46.5537 51.7169 45.9735C51.465 45.6756 51.1975 45.3934 50.9929 45.0484C50.8197 44.7662 50.7253 44.4683 50.5994 44.1704C50.3633 43.5432 50.08 42.8062 49.4662 42.4456C48.8052 42.0536 48.2229 43.0728 48.8681 43.4648Z" fill="#231F20"/>
<path d="M59.5239 35.6242C59.3507 36.1416 60.5154 36.565 60.8617 36.3925C61.5069 36.0946 61.3181 34.9813 61.3496 34.4012C62.1522 34.6834 62.7818 33.6485 62.9077 32.8018C63.2382 30.4499 62.4198 27.9725 60.7672 26.279C61.1922 26.3731 61.5699 25.9027 61.5384 25.4637C61.5069 25.0247 61.2237 24.664 60.9404 24.3347C59.3665 22.4375 57.6037 20.4305 55.1957 19.9287C54.6291 19.819 54.031 19.7876 53.4645 19.6465C52.7405 19.474 52.0794 19.1134 51.4184 18.7841C49.3409 17.7649 47.1217 17.028 44.8239 16.6046C45.0442 16.1656 45.2646 15.7109 45.4849 15.2718C43.911 14.9425 42.2113 15.2405 40.842 16.1028C41.1253 15.2561 41.0309 14.284 40.5902 13.5C39.3625 14.1115 38.5127 15.3973 38.3867 16.7614C37.0804 15.4129 35.1446 14.7073 33.2874 14.8798C33.7123 15.4913 34.1373 16.1028 34.5622 16.7144C34.216 16.2283 30.4387 17.6395 29.935 17.8276C28.3612 18.4548 26.8975 19.3015 25.5754 20.3364C23.2776 22.1239 20.3501 22.4845 18.4458 24.8992C18.0523 25.401 17.6903 25.9968 17.7533 26.6397C17.8162 27.2825 18.4772 27.8784 19.0753 27.6432C17.9736 29.5718 17.5959 31.9081 18.0366 34.0876C18.131 34.5266 18.2569 34.997 18.6031 35.2949C18.9494 35.5928 19.5317 35.6556 19.815 35.2949C18.5402 36.6434 21.7981 36.6434 22.5693 36.0476C22.4119 37.2549 22.0814 38.4309 22.0971 39.6539C22.1129 40.8769 22.3962 42.1784 23.1674 43.1662C23.2618 43.2916 23.3877 43.4171 23.5451 43.4171C23.7182 43.4171 23.8284 43.2289 23.9228 43.0878C24.2219 42.5547 24.5209 42.0216 24.8042 41.4884C24.6311 41.802 25.8902 43.4014 26.1577 43.6836C26.9289 44.499 27.952 45.0791 29.0694 45.2359C29.1481 44.9066 29.2425 44.593 29.3212 44.2638C32.7208 47.4781 40.1023 45.9101 44.273 45.8004C47.5782 45.722 51.8591 45.9101 53.7477 42.7585C53.7477 43.1662 53.8107 43.5739 53.9209 43.9659C55.3374 43.9659 56.4706 42.7585 57.0529 41.4728C57.7296 39.9832 57.9028 38.2741 57.525 36.6904C57.525 36.9727 57.7926 37.2392 58.0759 37.2235C58.7684 37.2235 59.3035 36.1416 59.4767 35.6085L59.5239 35.6242Z" fill="#F39B4A"/>
<path d="M52.2218 40.3438C51.6709 39.058 50.6794 37.9134 49.5934 37.2862C48.0353 36.3768 46.367 35.6555 44.6357 35.1224C42.448 34.4482 42.0074 32.9429 42.0546 30.7634C42.1018 29.0857 42.3851 26.8278 43.534 25.495C44.6829 24.1622 47.091 23.5037 48.6963 22.5472C50.7109 21.3398 52.4736 18.9879 49.8138 17.7178C49.3731 17.4983 45.1394 16.0401 44.8561 16.6202C45.0764 16.1812 45.2968 15.7265 45.5171 15.2874C43.9432 14.9582 42.2434 15.2561 40.8742 16.1185C41.1575 15.2718 41.063 14.2996 40.6223 13.5156C39.3947 14.1271 38.5448 15.4129 38.4189 16.777C37.1126 15.4286 35.1767 14.723 33.3196 14.8954L34.5944 16.73C34.2482 16.2439 30.4709 17.6551 29.983 17.8433C29.1803 18.1568 28.3619 18.5175 27.6851 19.0192C28.3934 20.744 29.8413 21.9984 31.4781 22.7981C33.2566 23.6605 34.862 24.4758 35.6489 26.326C36.5932 28.5369 37.0969 32.0648 35.6489 34.1659C34.4685 35.8907 31.6041 36.1259 29.8885 36.9099C27.6851 37.9291 26.1112 40.0615 27.2602 42.3351C28.897 45.5651 33.7445 46.3962 37.0024 46.4902C38.8439 46.5373 40.701 46.5843 42.5425 46.6314C46.068 46.7254 54.6928 45.9571 52.2375 40.3281L52.2218 40.3438Z" fill="white"/>
<path d="M30.3442 36.4717C31.196 36.4717 31.8866 35.7837 31.8866 34.9351C31.8866 34.0864 31.196 33.3984 30.3442 33.3984C29.4923 33.3984 28.8018 34.0864 28.8018 34.9351C28.8018 35.7837 29.4923 36.4717 30.3442 36.4717Z" fill="#231F20"/>
<path d="M49.4985 36.4717C50.3503 36.4717 51.0408 35.7837 51.0408 34.9351C51.0408 34.0864 50.3503 33.3984 49.4985 33.3984C48.6466 33.3984 47.9561 34.0864 47.9561 34.9351C47.9561 35.7837 48.6466 36.4717 49.4985 36.4717Z" fill="#231F20"/>
<path d="M40.0547 38.714C41.6975 38.714 43.0293 37.8926 43.0293 36.8795C43.0293 35.8663 41.6975 35.0449 40.0547 35.0449C38.4119 35.0449 37.0801 35.8663 37.0801 36.8795C37.0801 37.8926 38.4119 38.714 40.0547 38.714Z" fill="#231F20"/>
<path d="M26.1893 20.6185C28.5029 18.4704 31.6192 17.3415 34.7669 17.4669C35.4909 17.4983 35.4909 16.5418 34.9243 16.3066C34.3577 16.0714 33.9957 15.4285 34.0902 14.8484L33.3662 15.2561C34.8771 15.5226 36.2936 16.1655 37.4583 17.1533C37.7573 17.4042 38.3711 17.3728 38.4498 16.8868C38.6387 15.601 39.5515 14.5661 40.8421 14.2839L40.1024 13.7194C40.0709 14.5661 40.0237 15.3972 39.9922 16.2439C39.9765 16.6986 40.5116 16.9652 40.8736 16.7456C42.4474 15.8519 44.2102 15.4913 46.0044 15.6951L45.5794 14.6916C44.9971 15.2561 44.399 15.8205 43.8167 16.385C43.4547 16.73 43.7223 17.4042 44.2417 17.3885C46.933 17.2631 49.5771 17.9373 51.8907 19.3171C52.536 19.7091 53.134 18.6899 52.4887 18.2979C50.0178 16.8084 47.1376 16.0714 44.2417 16.2125L44.6666 17.216C45.2489 16.6516 45.847 16.0871 46.4293 15.5226C46.8228 15.1306 46.4923 14.5661 46.0044 14.5191C44.0213 14.2996 42.0068 14.7386 40.2755 15.7421L41.1569 16.2439C41.1883 15.3972 41.2356 14.5661 41.267 13.7194C41.2828 13.3274 40.8736 13.0766 40.5273 13.155C38.8905 13.5156 37.5527 14.9111 37.3166 16.5732L38.3082 16.3066C36.9861 15.1777 35.4122 14.4093 33.6967 14.0957C33.4134 14.0487 33.0199 14.1741 32.9727 14.5034C32.7839 15.7735 33.4291 16.9181 34.641 17.4042L34.7984 16.2439C31.3359 16.1028 27.9206 17.3885 25.3866 19.7405C24.8358 20.2579 25.6699 21.0889 26.2208 20.5715L26.1893 20.6185Z" fill="#231F20"/>
<path d="M24.5211 20.8535C21.6409 20.9633 18.9811 22.6881 17.8007 25.3223C17.4544 26.0749 17.2498 26.8589 17.1554 27.6899C17.1239 28.0192 17.4544 28.2701 17.7535 28.2857C17.8637 28.2857 17.9896 28.2857 18.0997 28.2857C18.4145 28.2857 18.6978 28.0035 18.6978 27.6899C18.6978 27.3763 18.446 27.1098 18.0997 27.0941C17.9896 27.0941 17.8637 27.0941 17.7535 27.0941L18.3516 27.6899C18.3516 27.6899 18.3516 27.6115 18.3516 27.5802C18.3516 27.5018 18.383 27.4234 18.3988 27.345C18.4302 27.1882 18.4617 27.047 18.4932 26.8902C18.5719 26.5766 18.6821 26.2787 18.7922 25.9808C18.7608 26.0592 18.8237 25.8867 18.7922 25.9808C18.7922 25.9495 18.8237 25.9181 18.8395 25.8867C18.8709 25.824 18.9024 25.7613 18.9339 25.6829C19.0126 25.5418 19.0755 25.385 19.17 25.2439C19.2487 25.1027 19.3274 24.9773 19.4218 24.8519C19.469 24.7891 19.5005 24.7264 19.5477 24.6794C19.5634 24.648 19.5949 24.6167 19.6107 24.5853C19.6107 24.5696 19.7208 24.4442 19.6579 24.5383C19.8467 24.3031 20.0513 24.0679 20.2717 23.8484C20.3818 23.7386 20.492 23.6445 20.6022 23.5504C20.6651 23.5034 20.7124 23.4564 20.7753 23.4093C20.8068 23.378 20.8697 23.3309 20.7753 23.4093C20.8225 23.378 20.8697 23.3466 20.917 23.3152C21.1688 23.1271 21.4363 22.9703 21.7196 22.8135C21.8456 22.7508 21.9872 22.6724 22.1131 22.6097C22.1446 22.6097 22.1761 22.5783 22.2075 22.5626C22.3649 22.4842 22.1446 22.5783 22.239 22.5469C22.3177 22.5156 22.3964 22.4842 22.4751 22.4529C22.8056 22.3274 23.1519 22.2333 23.4981 22.1706C23.5926 22.1549 23.687 22.1393 23.7657 22.1236C23.7972 22.1236 23.8444 22.1236 23.8758 22.1079C24.0647 22.0765 23.7657 22.1079 23.9388 22.1079C24.1119 22.1079 24.3165 22.0765 24.4897 22.0609C24.8044 22.0609 25.0877 21.7943 25.0877 21.465C25.0877 21.1514 24.8202 20.8692 24.4897 20.8692L24.5211 20.8535Z" fill="#231F20"/>
<path d="M19.4535 26.7331C18.3046 28.0188 17.5176 29.6338 17.2658 31.3273C17.1242 32.2053 17.1242 33.0834 17.2343 33.9615C17.3445 34.7925 17.5491 35.7333 18.2888 36.2507C19.0286 36.7681 20.4765 36.2977 20.3663 35.2315C20.3349 34.9179 20.1145 34.6357 19.7683 34.6357C19.4535 34.6357 19.1702 34.9022 19.1702 35.2315C19.2017 36.1096 19.5322 37.1758 20.4608 37.4737C21.531 37.8187 22.3337 36.8779 22.8058 36.0469C23.1836 35.3883 22.1606 34.7925 21.7828 35.451C21.6254 35.7333 21.4838 35.9685 21.2477 36.188C21.0746 36.3448 20.9487 36.4075 20.7756 36.3448C20.87 36.3761 20.7283 36.3134 20.7126 36.2977C20.7913 36.3605 20.6339 36.2193 20.6182 36.2037C20.6811 36.2821 20.5709 36.141 20.5709 36.1253C20.5709 36.1096 20.4765 35.9214 20.4923 35.9842C20.4293 35.843 20.3978 35.7019 20.3663 35.5608C20.3349 35.4354 20.3349 35.404 20.3349 35.2158H19.1545C19.1545 35.2158 19.1545 35.2786 19.1545 35.2942C19.1387 35.357 19.1545 35.2786 19.1545 35.2629V35.2158C19.1545 35.2158 19.1545 35.2472 19.1545 35.2629C19.123 35.2629 19.2332 35.2002 19.1545 35.2472C19.123 35.2472 19.1072 35.2786 19.0758 35.2942C18.9813 35.3256 19.1545 35.2629 19.06 35.2942C19.06 35.2942 18.9341 35.3099 18.9971 35.2942C19.0758 35.2942 18.8554 35.2942 18.9341 35.2942C18.8554 35.2472 19.0128 35.2942 18.9341 35.2942C18.9971 35.3256 18.8869 35.2629 18.8869 35.2629C18.8082 35.2002 18.761 35.1531 18.6823 35.0434C18.399 34.5573 18.3203 33.8517 18.2888 33.2715C18.2101 31.9544 18.4305 30.6373 18.9971 29.4457C19.3118 28.7558 19.7368 28.1286 20.2404 27.5641C20.4608 27.3289 20.4765 26.9683 20.2404 26.7331C20.0201 26.5136 19.6266 26.4979 19.4063 26.7331H19.4535Z" fill="#231F20"/>
<path d="M54.2203 20.8541C54.535 20.8071 54.8655 20.7914 55.1803 20.8071C55.3377 20.8071 55.5108 20.8227 55.6682 20.8541C55.5738 20.8541 55.7626 20.8541 55.7784 20.8698C55.8728 20.8855 55.9515 20.9011 56.0459 20.9168C56.707 21.0736 57.1791 21.2618 57.7457 21.6224C58.0448 21.8106 58.2179 21.9517 58.4855 22.2026C58.753 22.4534 58.9891 22.7043 59.2409 22.9865C59.6973 23.504 60.0436 23.9117 60.4056 24.4918C60.5 24.6486 60.5944 24.8054 60.6731 24.9779C60.7046 25.0563 60.7361 25.119 60.7833 25.1974C60.7518 25.119 60.7833 25.2131 60.7833 25.2288C60.799 25.2758 60.8148 25.3228 60.8305 25.3699C60.8935 25.5424 60.9407 25.7148 60.9722 25.8873C60.9722 25.9187 60.9879 25.9657 60.9879 26.0127C60.9879 26.0441 61.0036 26.1539 60.9879 26.0598C60.9879 26.1539 61.0036 26.2636 61.0036 26.3577C61.0036 26.6713 61.2712 26.9535 61.6017 26.9535C61.9165 26.9535 62.1998 26.687 62.1998 26.3577C62.1368 24.8211 61.2397 23.5353 60.2639 22.4064C59.7446 21.8106 59.2094 21.2618 58.5799 20.7914C57.9976 20.368 57.3365 20.0701 56.644 19.8819C55.8571 19.6624 55.0229 19.584 54.2045 19.6938C53.9055 19.7251 53.6064 19.929 53.6064 20.2896C53.6064 20.5719 53.874 20.9168 54.2045 20.8855L54.2203 20.8541Z" fill="#231F20"/>
<path d="M59.7132 26.0602C60.752 27.1891 61.6963 28.4749 62.1684 29.9331C62.4203 30.7014 62.5462 31.4697 62.499 32.2851C62.4832 32.6614 62.4203 33.0377 62.3101 33.414C62.2629 33.5551 62.2157 33.7119 62.1684 33.7747C62.1212 33.8217 62.1055 33.8374 62.137 33.806C62.1999 33.7903 62.1842 33.7903 62.1212 33.806C62.1684 33.806 62.2471 33.7903 62.2944 33.8374C62.074 33.6022 61.6805 33.6179 61.4602 33.8374C61.2241 34.0726 61.2399 34.4332 61.4602 34.6684C61.775 34.9977 62.2944 35.0447 62.6878 34.8409C63.0656 34.6527 63.2544 34.2764 63.3803 33.9001C63.6322 33.1631 63.7108 32.3635 63.6794 31.5952C63.5849 30.0272 63.0026 28.5533 62.137 27.2519C61.6648 26.5306 61.114 25.872 60.5474 25.2292C60.327 24.994 59.9335 25.0096 59.7132 25.2292C59.4771 25.4644 59.4929 25.825 59.7132 26.0602Z" fill="#231F20"/>
<path d="M60.468 32.2375C60.5624 32.457 60.6411 32.6922 60.6883 32.9274C60.7198 33.0371 60.7513 33.1469 60.767 33.2723C60.767 33.335 60.7828 33.3821 60.7985 33.4448C60.7985 33.4762 60.7985 33.5075 60.7985 33.5389C60.7985 33.4134 60.7985 33.6173 60.7985 33.5389C60.83 33.7741 60.8457 34.025 60.8457 34.2602C60.8457 34.3699 60.8457 34.4953 60.8457 34.6051C60.8457 34.6521 60.8457 34.7149 60.8457 34.7619C60.8457 34.8246 60.8142 34.9187 60.8142 34.9814C60.8142 34.9814 60.83 34.8403 60.8142 34.9501C60.8142 34.9814 60.8142 35.0128 60.8142 35.0441C60.8142 35.1069 60.7985 35.1539 60.7828 35.2166C60.7513 35.3421 60.7355 35.4518 60.7041 35.5773C60.6411 35.8125 60.5624 36.032 60.468 36.2672C60.468 36.2985 60.4365 36.3612 60.468 36.2515C60.468 36.2828 60.4365 36.3142 60.4365 36.3299C60.405 36.3769 60.3893 36.4396 60.3578 36.4867C60.3421 36.518 60.3106 36.5651 60.2949 36.5964C60.2949 36.6121 60.2476 36.6905 60.2949 36.6121C60.3421 36.5024 60.2634 36.6435 60.2634 36.6278C60.2634 36.5964 60.3736 36.5494 60.405 36.5494C60.3106 36.5808 60.4522 36.5494 60.468 36.5494C60.5939 36.5494 60.5782 36.5651 60.5309 36.5494C60.6568 36.5964 60.6254 36.5964 60.5939 36.5651C60.7198 36.6435 60.6568 36.6278 60.6411 36.5964L60.5939 36.5494C60.6254 36.5494 60.6569 36.6435 60.6254 36.5808C60.6096 36.5494 60.5939 36.518 60.5624 36.4867C60.4208 36.2358 60.3263 35.9693 60.2162 35.7027C60.0903 35.4048 59.9643 35.1069 59.8227 34.8246C59.7755 34.6992 59.6024 34.5894 59.4764 34.5581C59.3505 34.5267 59.2246 34.5424 59.0987 34.5894C58.7997 34.7149 58.721 34.9814 58.7525 35.2793C58.721 35.1069 58.7525 35.2793 58.7525 35.3107C58.7525 35.3577 58.7525 35.3891 58.7525 35.4361C58.7525 35.5302 58.7525 35.6243 58.7525 35.7027C58.7525 35.7497 58.7525 35.7811 58.7525 35.8281C58.7525 35.9693 58.7839 35.7027 58.7525 35.8281C58.7367 35.9222 58.721 36.0006 58.6895 36.0947C58.658 36.1888 58.6423 36.2672 58.6108 36.3612C58.6108 36.3926 58.5636 36.518 58.6108 36.3769C58.6108 36.424 58.5793 36.4553 58.5636 36.4867C58.4849 36.6592 58.3905 36.8003 58.2803 36.9571C58.2016 37.0668 58.1859 37.2864 58.2173 37.4118C58.2488 37.5372 58.359 37.694 58.4849 37.7567C58.7997 37.9135 59.0987 37.8038 59.2876 37.5529C59.8542 36.8003 60.0273 35.8595 59.8857 34.9501L58.7997 35.4048C58.9256 35.7027 59.0515 36.0006 59.1931 36.2828C59.3033 36.5494 59.4135 36.8316 59.5551 37.0825C59.7125 37.3648 59.9643 37.6156 60.2949 37.694C60.7355 37.7881 61.1133 37.5529 61.3494 37.1766C61.5067 36.9257 61.6169 36.6278 61.7113 36.3612C61.8058 36.0947 61.8845 35.8281 61.9317 35.5616C62.0419 34.9971 62.1048 34.4169 62.0576 33.8368C62.0104 33.1939 61.8845 32.5354 61.6327 31.9395C61.5697 31.7984 61.5067 31.673 61.3651 31.5946C61.2392 31.5162 61.0503 31.4848 60.9087 31.5319C60.6254 31.6259 60.3736 31.9552 60.4995 32.2531L60.468 32.2375Z" fill="#231F20"/>
<path d="M24.0175 31.1077C23.5453 33.4283 22.3492 35.5294 21.9557 37.8657C21.7826 38.9162 21.7354 39.9668 21.9557 41.0173C22.1446 41.9581 22.601 43.1498 23.4037 43.7299C24.8516 44.7648 25.4654 42.3658 25.3867 41.3779L24.2221 41.5347C24.6155 43.5574 26.1107 45.2352 28.0308 45.9721C28.3299 46.0819 28.6761 45.8467 28.7548 45.5644C28.8493 45.2352 28.6447 44.9529 28.3456 44.8432C26.8032 44.2473 25.6858 42.8362 25.371 41.2368C25.2451 40.594 24.1591 40.7351 24.2063 41.3936C24.2221 41.7072 24.2063 41.9895 24.1276 42.3031C24.0962 42.4128 24.0647 42.5069 24.0175 42.601C23.986 42.6794 23.9545 42.7421 23.9073 42.8048C23.8129 42.9302 23.8601 42.9302 24.0804 42.8048C24.0804 42.7734 23.8758 42.5696 23.8443 42.5382C23.7814 42.4598 23.7184 42.3658 23.6712 42.2717C23.5296 42.0365 23.4037 41.8013 23.3092 41.5504C22.9472 40.5783 22.9158 39.512 23.0417 38.4772C23.3722 36.0311 24.6628 33.836 25.1507 31.4369C25.308 30.7 24.1591 30.3864 24.0175 31.1234V31.1077Z" fill="#231F20"/>
<path d="M54.6926 31.6255C55.8572 33.7736 57.1006 36.0472 57.0849 38.556C57.0691 40.5787 56.0146 42.7268 53.9371 43.307L54.6768 43.8714C54.6454 43.354 54.7083 42.8679 54.85 42.3662L53.7168 42.0526C53.5122 42.9463 53.1502 43.5735 52.379 44.1537C50.994 45.2199 49.0581 45.6432 47.3583 45.9568C46.6186 46.098 46.9334 47.2269 47.6731 47.0858C50.5218 46.5684 54.1102 45.5648 54.85 42.3662C55.0231 41.6292 53.9214 41.3313 53.7168 42.0526C53.5437 42.6484 53.465 43.2599 53.4964 43.8714C53.5122 44.2477 53.8584 44.5457 54.2362 44.4359C56.6757 43.7617 58.0764 41.3783 58.2338 38.9793C58.4227 36.1099 57.0219 33.4757 55.6999 31.0297C55.3379 30.3711 54.3149 30.9513 54.6768 31.6255H54.6926Z" fill="#231F20"/>
<path d="M29.2272 46.1449C29.5419 45.7843 29.7308 45.3453 29.7465 44.8749C29.7623 44.4045 29.5891 43.9498 29.2901 43.5734L28.5819 44.4985C29.4632 45.1728 30.4705 45.6902 31.525 46.0352C32.6739 46.4115 33.8858 46.5369 35.082 46.6467C35.3967 46.678 35.68 46.3488 35.68 46.0508C35.68 45.7059 35.4125 45.4864 35.082 45.455C34.7829 45.4237 34.4839 45.3923 34.1849 45.3609C34.0432 45.3609 33.9016 45.3296 33.7599 45.3139C33.8701 45.3139 33.634 45.2982 33.6183 45.2982C33.5553 45.2982 33.4924 45.2825 33.4451 45.2669C32.8943 45.1728 32.3592 45.063 31.824 44.8905C31.6981 44.8435 31.588 44.8121 31.4621 44.7651C31.3991 44.7337 31.3204 44.7181 31.2575 44.6867C31.2575 44.6867 31.0843 44.624 31.1945 44.671C30.9427 44.5613 30.7066 44.4515 30.4705 44.3261C30.0141 44.0752 29.5734 43.793 29.1485 43.4794C28.9124 43.3069 28.5504 43.4166 28.393 43.6362C28.2041 43.887 28.2514 44.1693 28.4402 44.4045C28.3615 44.2947 28.456 44.4515 28.4874 44.4829L28.5189 44.5613C28.5189 44.5926 28.5347 44.624 28.5504 44.671C28.5504 44.671 28.5504 44.7024 28.5504 44.7181C28.5504 44.7651 28.5504 44.7494 28.5504 44.671C28.5504 44.671 28.5504 44.8435 28.5504 44.8749C28.5504 44.9062 28.5504 44.9376 28.5504 44.9689C28.5504 45.0473 28.5819 44.8278 28.5504 44.9689C28.5347 45.0317 28.5189 45.0944 28.5032 45.1571C28.4874 45.2355 28.5504 45.063 28.5032 45.1414C28.4874 45.1728 28.4717 45.2041 28.456 45.2355C28.456 45.2669 28.4245 45.2825 28.4087 45.3139C28.33 45.4393 28.4874 45.2198 28.393 45.3296C28.1884 45.5648 28.1569 45.9411 28.393 46.1606C28.6133 46.3644 29.0068 46.4115 29.2272 46.1606V46.1449Z" fill="#231F20"/>
<path d="M33.6024 36.1877C37.3482 34.557 41.7078 34.5099 45.5009 35.9838C45.973 36.172 46.1776 35.4037 45.7055 35.2312C41.6921 33.6789 37.1278 33.8044 33.1932 35.5134C32.7367 35.7173 33.1302 36.3915 33.5866 36.1877H33.6024Z" fill="#231F20"/>
</svg>
