<svg width="80" height="76" viewBox="0 0 80 76" fill="none" xmlns="http://www.w3.org/2000/svg">
<path d="M33.0364 45.452C33.8391 44.0722 35.1927 43.0059 36.7193 42.5355C37.6479 42.2533 38.6394 42.1906 39.6152 42.1749C41.1104 42.1592 42.6371 42.2533 44.0221 42.8021C47.1226 44.0094 49.1214 47.5531 48.5391 50.8302C48.4762 51.1438 48.4132 51.473 48.4604 51.7866C48.5234 52.0845 48.6808 52.3354 48.8381 52.602C49.5464 53.8564 49.8454 55.3459 49.6723 56.7885C51.136 56.5063 52.4108 55.4243 52.9302 54.0445C53.0404 53.7623 53.1506 53.4173 53.4339 53.3076C53.6227 53.2292 53.8273 53.2605 54.0162 53.3546C54.7716 53.7466 54.7402 54.8285 54.5198 55.6439C54.3624 56.177 54.1736 56.7101 53.8588 57.1648C53.1506 58.1997 51.8757 58.7485 50.6166 58.7955C50.1445 58.8112 49.6408 58.7798 49.2316 58.9837C48.9955 59.1091 48.7909 59.2973 48.5706 59.4541C47.8623 59.9558 46.8865 60.0656 46.0839 59.7206C45.9265 59.6579 45.7848 59.5795 45.6274 59.5481C45.1868 59.5011 44.8405 59.8774 44.4628 60.1126C43.6444 60.6144 42.464 60.3792 41.9131 59.5952C40.6225 60.2694 39.0959 60.238 37.6322 60.2067C36.8767 60.191 36.137 60.1596 35.3815 60.144C34.1696 60.1126 32.8633 60.0342 31.919 59.2816C31.2108 58.7014 30.8173 57.8234 30.6442 56.9139C30.471 56.0045 30.4868 55.048 30.7071 54.1543C31.0691 52.6647 32.0134 51.3162 32.1551 49.7796C32.2967 48.243 32.218 46.8632 33.0522 45.452H33.0364Z" fill="#F39B4A"/>
<path d="M33.2884 43.9623C31.1479 46.8631 30.8488 50.9712 32.5329 54.1542C32.9736 55.0009 33.5716 55.7535 33.9651 56.6316C34.3114 57.3685 34.4058 58.1996 34.6576 58.9679C34.8937 59.6892 35.2714 60.3791 35.9639 60.7397C36.7194 61.1474 37.6322 61.0376 38.3405 60.5672C40.3865 59.2188 39.8514 56.3964 39.7098 54.3267C39.6625 53.574 38.4821 53.574 38.5294 54.3267C38.5923 55.2675 38.6867 56.2082 38.6867 57.149C38.6867 57.933 38.5608 58.7797 37.9785 59.3599C37.5693 59.7519 36.9083 60.0028 36.4046 59.6264C35.901 59.2501 35.7751 58.5759 35.6334 58.0271C35.4446 57.3215 35.2872 56.6316 34.9724 55.9574C34.5947 55.1734 34.091 54.4835 33.6661 53.7308C32.9264 52.398 32.5958 50.8928 32.6431 49.3718C32.706 47.6314 33.2884 45.9536 34.3271 44.5425C34.516 44.2916 34.3743 43.8839 34.1225 43.7428C33.8235 43.5703 33.5087 43.6958 33.3198 43.9466L33.2884 43.9623Z" fill="#231F20"/>
<path d="M31.5727 50.6261C30.8487 51.3788 30.534 52.398 30.3451 53.4015C30.172 54.2639 30.0775 55.1576 30.109 56.0357C30.1405 56.9608 30.2979 57.9173 30.7386 58.7483C31.1793 59.5793 31.8403 60.0654 32.6902 60.379C33.5873 60.7083 34.6733 60.7867 35.6018 60.4887C35.9009 60.3947 36.1055 60.0811 36.0111 59.7675C35.9324 59.4696 35.5861 59.25 35.2871 59.3598C35.1297 59.4068 34.9723 59.4539 34.8149 59.4696C34.9251 59.4539 34.8149 59.4696 34.7834 59.4696C34.7362 59.4696 34.689 59.4696 34.6418 59.4696C34.5474 59.4696 34.4529 59.4696 34.3427 59.4696C34.2483 59.4696 34.1696 59.4696 34.0752 59.4696C34.028 59.4696 33.9808 59.4696 33.9178 59.4696C33.9178 59.4696 33.8076 59.4696 33.8863 59.4696C33.6817 59.4382 33.4771 59.3912 33.2883 59.3441C32.9263 59.2344 32.7374 59.156 32.3911 58.9364C32.3754 58.9364 32.2652 58.858 32.3597 58.9208C32.3282 58.9051 32.2967 58.8737 32.281 58.858C32.218 58.811 32.1708 58.7483 32.1078 58.6856C32.0134 58.5915 31.9505 58.4974 31.856 58.3249C31.5098 57.7291 31.3524 56.9451 31.3209 56.2395C31.3052 55.8318 31.3052 55.4242 31.3209 55.0165C31.3366 54.6088 31.3839 54.3579 31.4468 53.9816C31.6042 53.0879 31.8088 52.1157 32.4226 51.4729C32.942 50.9241 32.1078 50.093 31.5885 50.6418L31.5727 50.6261Z" fill="#231F20"/>
<path d="M46.2256 44.5424C48.0355 47.0041 48.4605 50.438 47.1384 53.2133C46.7764 53.966 46.3043 54.6402 45.8951 55.3615C45.4859 56.0827 45.2183 56.7727 45.0294 57.5567C44.7934 58.4974 44.3841 60.379 42.9834 59.6577C42.1965 59.2501 41.9132 58.4034 41.8659 57.5723C41.803 56.4904 41.9446 55.3928 42.0076 54.3266C42.0548 53.574 40.8744 53.574 40.8272 54.3266C40.7013 56.1925 40.1976 58.6699 41.6928 60.1595C42.2909 60.7553 43.1408 61.116 43.9907 60.9592C44.7776 60.8024 45.3599 60.2065 45.6747 59.5009C45.9895 58.7954 46.1154 58.0584 46.32 57.3215C46.5876 56.3807 47.1699 55.581 47.6578 54.75C48.5864 53.1977 49.1058 51.4415 49.09 49.6227C49.09 47.6 48.4447 45.593 47.2486 43.9623C47.0597 43.7114 46.745 43.5859 46.4459 43.7584C46.1941 43.8995 46.0524 44.3072 46.2413 44.5581L46.2256 44.5424Z" fill="#231F20"/>
<path d="M48.6178 53.1191C48.6178 53.1191 48.6492 53.1975 48.665 53.2132C48.665 53.2132 48.602 53.0564 48.6335 53.1348C48.6335 53.1348 48.6335 53.1661 48.6492 53.1818C48.6807 53.2602 48.7122 53.3386 48.7279 53.4013C48.7752 53.5424 48.8224 53.6992 48.8539 53.856C48.9011 54.0285 48.9325 54.201 48.964 54.3735C48.964 54.4519 48.9955 54.5303 48.9955 54.6244C49.0112 54.7498 48.9798 54.4832 48.9955 54.6244C48.9955 54.6714 48.9955 54.7184 49.0112 54.7812C49.0585 55.1575 49.0742 55.5495 49.0742 55.9258C49.0742 56.1139 49.0742 56.3178 49.0427 56.5059C49.0427 56.6 49.0427 56.6941 49.0112 56.7882C49.0112 56.8352 49.0112 56.8822 48.9955 56.9293C48.9798 57.0861 49.0112 56.8038 48.9955 56.9606C48.9325 57.3213 48.8696 57.6819 48.7437 58.0269C48.7122 58.1053 48.6807 58.1837 48.665 58.2621C48.665 58.2777 48.665 58.2934 48.6492 58.3091C48.6178 58.3875 48.6807 58.2464 48.6807 58.2464C48.665 58.2934 48.6335 58.3405 48.6178 58.3875C48.5548 58.5286 48.4761 58.6697 48.3817 58.8109C48.3659 58.8422 48.3502 58.8579 48.3187 58.8893C48.4132 58.7795 48.24 59.0147 48.3187 58.8893C48.2715 58.952 48.2243 58.999 48.1771 59.0461C48.1299 59.0931 48.0669 59.1401 48.0197 59.1872C48.1613 59.0931 47.9725 59.2342 48.0197 59.1872C47.9882 59.2029 47.9567 59.2342 47.9253 59.2499C47.8623 59.2813 47.7994 59.3126 47.7364 59.344C47.6577 59.3753 47.8938 59.2813 47.7679 59.344C47.7364 59.344 47.6892 59.3753 47.6577 59.3753C47.5948 59.391 47.5161 59.4067 47.4531 59.4224C47.3901 59.4224 47.6262 59.4224 47.4688 59.4224C47.4216 59.4224 47.3744 59.4224 47.3272 59.4224C47.2328 59.4224 47.1541 59.4224 47.0596 59.4224C46.9652 59.4224 47.1383 59.4224 47.1383 59.4224C47.1069 59.4224 47.0754 59.4224 47.0596 59.4224C47.0124 59.4224 46.9495 59.4067 46.9022 59.391C46.7921 59.3597 46.6819 59.3283 46.5875 59.2969C46.5403 59.2813 46.4773 59.2499 46.4301 59.2342C46.6032 59.2813 46.4301 59.2342 46.3671 59.2029C46.0838 59.0617 45.7848 58.8265 45.4543 58.8579C45.2654 58.8579 45.0923 58.952 44.9506 59.0931L44.8562 59.2185C44.9349 59.1245 44.9664 59.0931 44.9349 59.1245C44.9979 59.0617 45.171 58.999 45.2969 58.9833H45.4228C45.5172 59.0461 45.5487 59.0617 45.5015 59.0304C45.47 58.999 45.4228 58.9833 45.3913 58.952C45.1395 58.7638 44.7146 58.9049 44.5887 59.1558C44.4313 59.4694 44.5414 59.7673 44.7933 59.9555C45.0923 60.175 45.533 60.222 45.7848 59.9241C45.832 59.8771 45.9894 59.7046 45.8005 59.9084C45.832 59.8771 45.8478 59.8771 45.7691 59.9241C45.6431 60.0025 45.5015 60.0496 45.3598 60.0182C45.4385 60.0339 45.3126 59.9868 45.3126 59.9868C45.3284 59.9868 45.6274 60.1593 45.6746 60.175C46.131 60.4102 46.6032 60.567 47.1068 60.614C47.8623 60.6924 48.6335 60.3788 49.1371 59.783C49.6565 59.1715 49.9398 58.4032 50.0972 57.6192C50.2546 56.7882 50.3018 55.9258 50.2389 55.0791C50.1759 54.2324 50.0185 53.3386 49.6408 52.5389C49.5149 52.2567 49.0899 52.1626 48.8381 52.3351C48.5548 52.5233 48.4919 52.8369 48.6335 53.1348L48.6178 53.1191Z" fill="#231F20"/>
<path d="M50.1129 57.541C51.734 57.0392 52.9931 55.7065 53.4967 54.1071C53.6384 53.6681 53.7013 53.1977 53.7171 52.7273L53.119 53.3231C53.119 53.3231 53.2607 53.3231 53.3236 53.3231C53.4495 53.3231 53.2292 53.3074 53.2921 53.3231C53.3236 53.3231 53.3551 53.3231 53.3866 53.3388C53.418 53.3388 53.4495 53.3702 53.4967 53.3702L53.418 53.3388C53.418 53.3388 53.4495 53.3545 53.481 53.3702C53.5282 53.4015 53.5912 53.4486 53.6384 53.4799L53.5754 53.4329C53.5754 53.4329 53.6069 53.4642 53.6226 53.4799C53.6541 53.4956 53.6699 53.527 53.7013 53.5426C53.7328 53.5583 53.7486 53.5897 53.7643 53.621C53.8115 53.7151 53.8115 53.6681 53.7643 53.621C53.7958 53.6838 53.843 53.7308 53.8745 53.7935C53.8902 53.8249 53.9059 53.8562 53.9217 53.8876C53.9217 53.9033 53.9374 53.9346 53.9532 53.9503C53.9217 53.8719 53.9059 53.8406 53.9217 53.8876C53.9374 53.9503 53.9689 54.013 53.9846 54.0758C53.9846 54.1228 54.0004 54.1542 54.0161 54.2012C54.0476 54.358 54.0161 54.1071 54.0161 54.2326C54.0161 54.405 54.0319 54.5775 54.0161 54.75C54.0161 54.797 54.0161 54.8284 54.0161 54.8754C54.0161 55.0479 54.0161 54.9068 54.0161 54.8754C54.0161 54.9538 53.9846 55.0479 53.9689 55.1263C53.9374 55.3145 53.8902 55.4869 53.843 55.6751C53.78 55.973 53.9374 56.3336 54.2522 56.3964C54.5512 56.4591 54.8975 56.3023 54.9762 55.9887C55.1808 55.1106 55.3382 54.2012 54.9762 53.3545C54.6614 52.6646 53.9059 52.0844 53.119 52.1785C52.9616 52.1942 52.82 52.2255 52.6941 52.351C52.5682 52.4764 52.5209 52.6019 52.5209 52.7743C52.5209 52.8684 52.5209 52.9468 52.5209 53.0409C52.5209 53.0879 52.5209 53.135 52.5209 53.1663C52.5209 53.182 52.5209 53.2134 52.5209 53.229C52.5209 53.3388 52.5367 53.1193 52.5209 53.182C52.4895 53.3545 52.458 53.527 52.4108 53.6994C52.3635 53.8719 52.3006 54.0444 52.2376 54.2169C52.2376 54.2169 52.3006 54.0758 52.2534 54.1698C52.2534 54.1855 52.2376 54.2169 52.2219 54.2326C52.2062 54.2796 52.1904 54.311 52.1589 54.358C52.1275 54.4364 52.0802 54.5148 52.033 54.5932C51.9386 54.75 51.8442 54.9068 51.734 55.0479C51.7183 55.0793 51.6868 55.1106 51.671 55.142C51.6081 55.2204 51.7025 55.1106 51.7025 55.0949C51.7025 55.1106 51.671 55.1263 51.6553 55.142C51.5924 55.2204 51.5294 55.2831 51.4664 55.3615C51.3405 55.5026 51.2146 55.6281 51.073 55.7378C51.0415 55.7692 51.01 55.8005 50.9785 55.8162C50.9628 55.8319 50.8526 55.9103 50.9313 55.8476C51.01 55.7849 50.8841 55.8789 50.8684 55.8946C50.8212 55.926 50.7897 55.9573 50.7425 55.973C50.5851 56.0828 50.4119 56.1769 50.2388 56.2709C50.1916 56.3023 50.1444 56.318 50.0972 56.3336C50.0814 56.3336 50.05 56.3493 50.0342 56.365C50.0657 56.3493 50.1601 56.318 50.0657 56.365C49.9713 56.3964 49.8768 56.4434 49.7667 56.4748C49.4676 56.5688 49.2473 56.8824 49.3574 57.196C49.4676 57.5096 49.7667 57.6978 50.0814 57.6037L50.1129 57.541Z" fill="#231F20"/>
<path d="M49.7981 59.5949C50.8369 59.5636 51.8599 59.2656 52.7413 58.7325C53.0088 58.5757 53.2764 58.3876 53.5125 58.1837C53.6227 58.0897 53.6856 57.9015 53.6856 57.7604C53.6856 57.6193 53.6227 57.4468 53.5125 57.337C53.4023 57.2273 53.2449 57.1646 53.0875 57.1646C52.9144 57.1646 52.8042 57.2273 52.6626 57.337C52.6311 57.3684 52.5839 57.3997 52.5524 57.4311L52.6783 57.337C52.2849 57.6349 51.8757 57.8701 51.4192 58.074L51.5609 58.0113C51.1202 58.1994 50.648 58.3249 50.1759 58.3876H50.3333C50.1444 58.3876 49.9713 58.4033 49.7824 58.4189C49.4676 58.4189 49.1843 58.6855 49.1843 59.0148C49.1843 59.344 49.4361 59.6106 49.7824 59.6106L49.7981 59.5949Z" fill="#231F20"/>
<path d="M33.9025 18.0599C35.3977 17.7463 36.9086 17.4327 38.4195 17.3386C39.9462 17.2446 41.4886 17.37 43.0153 17.5582C45.077 17.809 47.1703 18.1853 49.0275 19.1261C50.8846 20.0669 52.5372 21.6819 53.1667 23.7517C53.4973 24.8336 53.5287 25.9939 53.4815 27.1228C53.2297 32.4696 51.0263 37.4715 48.8701 42.3322C48.4136 43.3671 47.9415 44.4176 47.2175 45.28C46.1787 46.5031 44.5891 47.2557 43.0467 47.0362C40.7174 46.7069 40.6387 44.9821 39.5842 43.3357C39.0491 44.449 38.8288 45.8602 37.6484 46.4874C36.5309 47.0675 35.3662 47.0989 34.1858 46.5658C32.3129 45.7191 31.2427 43.3357 30.2669 41.5639C28.8661 39.0395 27.7015 36.3896 26.7729 33.6456C25.9387 31.1996 25.3092 28.5967 25.561 26.0096C26.0646 20.9763 29.5901 18.938 33.8868 18.0442L33.9025 18.0599Z" fill="#F39B4A"/>
<path d="M20.9497 26.7463C19.785 28.2046 18.9509 29.3805 19.2499 31.4346C19.486 33.0653 20.2886 34.5549 21.0756 35.9817C22.1458 37.9417 23.2161 39.886 24.2863 41.846C24.5224 42.285 24.8057 42.7711 25.2621 42.9592C26.2536 43.3826 27.2452 41.4069 27.5285 40.67C28.0636 39.2902 28.1108 37.7222 28.1108 36.264C28.1108 33.0339 28.0321 29.8039 28.1738 26.5739C28.2524 24.6609 28.3311 21.5406 29.7004 20.1138C30.3457 19.4395 30.9595 17.997 29.3542 18.3106C28.5043 18.4674 28.1738 19.1573 27.5757 19.6747C25.1519 21.7602 22.98 24.2532 20.9969 26.7463H20.9497Z" fill="#984E25"/>
<path d="M51.4671 28.0478C51.3727 30.0391 51.3255 32.0305 51.4671 34.0061C51.6245 35.9974 51.3412 43.3826 54.6778 43.1788C55.3546 43.1317 55.7953 42.4418 56.1258 41.8303C57.5737 39.1334 58.9115 36.3738 60.1706 33.5671C60.4854 32.8458 60.8159 32.1088 60.8474 31.3092C60.8789 30.4625 60.5956 29.6471 60.2651 28.8788C58.7699 25.492 56.2517 22.7794 53.5289 20.4274C52.6947 19.7061 51.0579 17.7305 49.8145 18.5929C48.6341 19.4082 50.6644 21.0859 51.0264 22.1051C51.6717 23.971 51.5458 26.0564 51.4514 28.0164L51.4671 28.0478Z" fill="#984E25"/>
<path d="M32.911 33.0029C33.7629 33.0029 34.4534 32.315 34.4534 31.4663C34.4534 30.6177 33.7629 29.9297 32.911 29.9297C32.0592 29.9297 31.3687 30.6177 31.3687 31.4663C31.3687 32.315 32.0592 33.0029 32.911 33.0029Z" fill="#231F20"/>
<path d="M46.6667 33.0029C47.5185 33.0029 48.2091 32.315 48.2091 31.4663C48.2091 30.6177 47.5185 29.9297 46.6667 29.9297C45.8148 29.9297 45.1243 30.6177 45.1243 31.4663C45.1243 32.315 45.8148 33.0029 46.6667 33.0029Z" fill="#231F20"/>
<path d="M39.4741 42.5988C41.117 42.5988 42.4488 41.7774 42.4488 40.7642C42.4488 39.751 41.117 38.9297 39.4741 38.9297C37.8313 38.9297 36.4995 39.751 36.4995 40.7642C36.4995 41.7774 37.8313 42.5988 39.4741 42.5988Z" fill="#231F20"/>
<path d="M30.2984 20.114C30.6447 19.5966 31.3215 19.4241 31.8881 19.2517C32.6593 19.0165 33.4462 18.7969 34.2331 18.6245C35.7598 18.2795 37.3022 18.06 38.8603 17.9659C41.8035 17.7934 45.1401 17.8091 47.7842 19.2673C48.4452 19.628 49.0433 18.6245 48.3823 18.2481C45.4548 16.6331 41.772 16.5704 38.5141 16.8056C36.7985 16.931 35.083 17.1976 33.4147 17.6053C32.5963 17.8091 31.7936 18.0129 31.0067 18.2952C30.3142 18.5461 29.7004 18.8753 29.2912 19.5025C28.882 20.1297 29.8892 20.7256 30.3142 20.0984L30.2984 20.114Z" fill="#231F20"/>
<path d="M30.6133 18.0598C29.5746 17.5894 28.6145 18.0912 27.8118 18.7811C27.2452 19.2672 26.6944 19.8003 26.1278 20.302C24.8844 21.3996 23.6096 22.4658 22.4449 23.6575C20.2572 25.884 18.2741 28.7221 18.7778 31.9992C18.9194 32.8929 19.2499 33.7083 19.6592 34.5079C20.2257 35.6369 20.7923 36.7815 21.3589 37.9105C21.9255 39.0394 22.4606 40.1213 23.0272 41.2189C23.4365 42.0186 23.767 43.0377 24.5382 43.5709C25.7028 44.3862 26.8518 43.3513 27.4813 42.3949C28.2997 41.1875 28.7876 39.7293 28.8663 38.2711C28.945 36.9226 28.8506 35.5585 28.8191 34.21C28.7876 32.8616 28.7719 31.4817 28.7876 30.1019C28.7876 27.3109 28.8978 24.5199 29.1496 21.7289C29.2126 20.9763 28.0322 20.9763 27.9692 21.7289C27.56 26.1663 27.5757 30.6193 27.6544 35.0567C27.6859 36.7658 27.8748 38.5063 27.2767 40.137C27.0721 40.7171 26.7888 41.2659 26.4583 41.7834C26.2379 42.1126 25.8917 42.5674 25.4982 42.6614C25.4353 42.6771 25.3094 42.6614 25.1677 42.5517C24.9316 42.3792 24.79 42.0656 24.6483 41.8147C24.1447 40.8269 23.6568 39.8391 23.1689 38.8512C22.681 37.8634 22.1459 36.8129 21.6422 35.7937C21.1858 34.8686 20.635 33.9591 20.273 33.0027C19.2342 30.2117 20.5248 27.5775 22.3662 25.4607C23.4679 24.1906 24.727 23.0617 25.9861 21.9641C26.5842 21.4467 27.1665 20.9449 27.7646 20.4118C28.2682 19.9571 29.2598 18.7027 30.031 19.0633C30.7235 19.3769 31.3216 18.3577 30.6291 18.0441L30.6133 18.0598Z" fill="#231F20"/>
<path d="M49.9405 19.0794C50.6488 18.7501 51.5301 19.832 52.0023 20.2397C52.5217 20.7101 53.0411 21.1491 53.5604 21.6039C54.6936 22.5917 55.8268 23.5795 56.8656 24.6614C58.7227 26.59 60.5642 29.1458 59.9976 31.9682C59.8244 32.8149 59.4625 33.5675 59.069 34.3359C58.5811 35.3237 58.0774 36.3115 57.5895 37.2993C57.1016 38.2872 56.5665 39.3377 56.0629 40.3569C55.8111 40.8587 55.575 41.3447 55.3232 41.8465C55.1973 42.0974 55.0399 42.3953 54.8038 42.5834C54.5205 42.8029 54.2844 42.6618 54.0011 42.3953C53.5762 42.0033 53.2771 41.4858 53.0253 40.9684C52.3485 39.5886 52.2384 38.2401 52.2699 36.7192C52.38 31.733 52.4587 26.7312 52.0023 21.745C51.9393 20.9923 50.7589 20.9923 50.8219 21.745C51.2783 26.6998 51.1996 31.6546 51.1052 36.6251C51.0894 37.6129 51.058 38.6164 51.2941 39.5729C51.4514 40.2315 51.6875 40.8587 51.9866 41.4545C52.4745 42.458 53.3401 43.9162 54.6464 43.8535C55.3389 43.8221 55.8583 43.289 56.2045 42.7245C56.8341 41.6897 57.3063 40.5451 57.8571 39.4632C58.408 38.3812 58.9588 37.2523 59.5254 36.1547C60.0133 35.1669 60.5799 34.1947 60.9419 33.1599C62.0436 29.9455 60.454 26.8879 58.345 24.5046C57.1174 23.1248 55.7324 21.9175 54.3316 20.7101C53.6863 20.1456 53.0568 19.5812 52.4272 19.0167C51.5773 18.2327 50.5543 17.5428 49.3897 18.0759C48.6972 18.3895 49.2952 19.4087 49.9877 19.0951L49.9405 19.0794Z" fill="#231F20"/>
<path d="M28.0636 37.1736C29.1181 39.8705 29.8735 42.8026 31.6992 45.1076C32.5334 46.1581 33.6665 47.0362 34.9729 47.3811C36.169 47.6947 37.4124 47.5066 38.3882 46.7383C39.6315 45.7661 40.088 44.1197 40.1981 42.6145C40.2296 42.3009 39.9148 42.0186 39.6 42.0186C39.2538 42.0186 39.0335 42.2852 39.002 42.6145C38.9548 43.2573 38.8289 43.9159 38.577 44.5274C38.3882 44.9664 38.1206 45.3741 37.7744 45.7034C37.6012 45.8759 37.5068 45.9386 37.255 46.0797C37.2078 46.1111 37.1605 46.1267 37.1133 46.1581C37.0032 46.2208 37.1133 46.1581 37.0189 46.1895C36.9087 46.2365 36.7986 46.2679 36.6726 46.2992C36.6254 46.2992 36.5625 46.3149 36.5153 46.3306C36.4838 46.3306 36.4523 46.3306 36.4366 46.3306C36.4366 46.3306 36.531 46.3306 36.4523 46.3306C36.3107 46.3306 36.1847 46.3463 36.0431 46.3463C35.9172 46.3463 35.807 46.3463 35.6811 46.3306C35.6496 46.3306 35.6182 46.3306 35.5867 46.3306C35.508 46.3306 35.4293 46.2992 35.3349 46.2835C34.2174 46.017 33.3046 45.2957 32.5806 44.402C31.8094 43.4455 31.227 42.2695 30.7549 41.1092C30.1725 39.7137 29.7161 38.2712 29.1653 36.8757C29.0551 36.5777 28.7718 36.3739 28.4413 36.468C28.158 36.5464 27.9062 36.8913 28.0321 37.1893L28.0636 37.1736Z" fill="#231F20"/>
<path d="M50.2237 36.86C49.2794 39.2903 48.5869 41.9246 47.0445 44.0727C46.3835 44.9821 45.4864 45.7975 44.4476 46.1581C43.9125 46.3463 43.5505 46.409 42.9839 46.3463C42.8737 46.3463 43.0311 46.3463 42.921 46.3463C42.858 46.3463 42.8108 46.3306 42.7636 46.3149C42.6534 46.2835 42.5275 46.2522 42.4173 46.2051C42.4173 46.2051 42.2914 46.1581 42.3544 46.1895C42.4173 46.2051 42.3229 46.1895 42.3229 46.1895C42.2757 46.1738 42.2285 46.1424 42.1812 46.1111C42.0711 46.0483 41.9766 45.9856 41.8665 45.9229C41.8507 45.9229 41.8193 45.8915 41.8035 45.8759C41.8665 45.9229 41.8035 45.8759 41.772 45.8445C41.7248 45.7975 41.6776 45.7504 41.6146 45.7034C41.5202 45.6093 41.4258 45.4995 41.3314 45.4055C41.2841 45.3427 41.3314 45.4055 41.2527 45.3114C41.2054 45.2487 41.1582 45.1703 41.111 45.1076C41.0323 44.9821 40.9536 44.841 40.8907 44.6999C40.6074 44.104 40.45 43.3514 40.4028 42.6458C40.3713 42.3322 40.1509 42.05 39.8047 42.05C39.5057 42.05 39.1909 42.3165 39.2066 42.6458C39.3168 44.0413 39.6945 45.4995 40.7175 46.5031C41.5989 47.3654 42.8108 47.6947 44.0227 47.4909C46.8871 47.0362 48.5712 44.2608 49.5942 41.8305C50.2395 40.3095 50.7589 38.7416 51.3569 37.1893C51.4671 36.8913 51.231 36.5464 50.9477 36.468C50.6172 36.3739 50.3339 36.5777 50.2237 36.8757V36.86Z" fill="#231F20"/>
</svg>
