<svg width="80" height="76" viewBox="0 0 80 76" fill="none" xmlns="http://www.w3.org/2000/svg">
<path d="M33.9483 47.431C34.751 46.0512 36.1045 44.9849 37.6312 44.5146C38.5598 44.2323 39.5513 44.1696 40.5271 44.1539C42.0223 44.1382 43.5489 44.2323 44.934 44.7811C48.0345 45.9885 50.0333 49.5321 49.451 52.8092C49.388 53.1228 49.3251 53.452 49.3723 53.7656C49.4352 54.0636 49.5926 54.3144 49.75 54.581C50.4583 55.8354 50.7573 57.3249 50.5842 58.7675C52.0479 58.4853 53.3227 57.4033 53.8421 56.0235C53.9522 55.7413 54.0624 55.3963 54.3457 55.2866C54.5346 55.2082 54.7392 55.2395 54.9281 55.3336C55.6835 55.7256 55.652 56.8075 55.4317 57.6229C55.2743 58.156 55.0854 58.6891 54.7707 59.1438C54.0624 60.1787 52.7876 60.7275 51.5285 60.7745C51.0563 60.7902 50.5527 60.7588 50.1435 60.9627C49.9074 61.0881 49.7028 61.2763 49.4824 61.4331C48.7742 61.9348 47.7984 62.0446 46.9957 61.6996C46.8383 61.6369 46.6967 61.5585 46.5393 61.5271C46.0986 61.4801 45.7524 61.8564 45.3746 62.0916C44.5562 62.5934 43.3758 62.3582 42.825 61.5742C41.5344 62.2484 40.0077 62.217 38.544 62.1857C37.7886 62.17 37.0488 62.1386 36.2934 62.123C35.0815 62.0916 33.7752 62.0132 32.8309 61.2606C32.1226 60.6804 31.7292 59.8024 31.556 58.8929C31.3829 57.9835 31.3986 57.027 31.619 56.1333C31.981 54.6437 32.9253 53.2952 33.0669 51.7586C33.2086 50.222 33.1299 48.8422 33.9641 47.431H33.9483Z" fill="#F39B4A"/>
<path d="M34.1995 45.9418C32.059 48.8426 31.76 52.9507 33.444 56.1337C33.8847 56.9804 34.4828 57.733 34.8763 58.6111C35.2225 59.348 35.3169 60.1791 35.5688 60.9474C35.8048 61.6686 36.1826 62.3586 36.8751 62.7192C37.6305 63.1269 38.5434 63.0171 39.2516 62.5467C41.2977 61.1983 40.7625 58.3759 40.6209 56.3062C40.5737 55.5535 39.3933 55.5535 39.4405 56.3062C39.5034 57.2469 39.5979 58.1877 39.5979 59.1285C39.5979 59.9125 39.472 60.7592 38.8896 61.3394C38.4804 61.7314 37.8194 61.9822 37.3158 61.6059C36.8121 61.2296 36.6862 60.5554 36.5446 60.0066C36.3557 59.301 36.1983 58.6111 35.8835 57.9369C35.5058 57.1529 35.0022 56.463 34.5772 55.7103C33.8375 54.3775 33.507 52.8723 33.5542 51.3513C33.6172 49.6109 34.1995 47.9331 35.2382 46.522C35.4271 46.2711 35.2855 45.8634 35.0336 45.7223C34.7346 45.5498 34.4198 45.6753 34.231 45.9261L34.1995 45.9418Z" fill="#231F20"/>
<path d="M32.4843 52.6056C31.7604 53.3583 31.4456 54.3775 31.2567 55.381C31.0836 56.2434 30.9892 57.1371 31.0206 58.0152C31.0521 58.9403 31.2095 59.8967 31.6502 60.7278C32.0909 61.5588 32.7519 62.0449 33.6018 62.3585C34.4989 62.6878 35.5849 62.7662 36.5135 62.4682C36.8125 62.3742 37.0171 62.0606 36.9227 61.747C36.844 61.449 36.4977 61.2295 36.1987 61.3393C36.0413 61.3863 35.8839 61.4334 35.7265 61.449C35.8367 61.4334 35.7265 61.449 35.6951 61.449C35.6478 61.449 35.6006 61.449 35.5534 61.449C35.459 61.449 35.3645 61.449 35.2544 61.449C35.1599 61.449 35.0812 61.449 34.9868 61.449C34.9396 61.449 34.8924 61.449 34.8294 61.449C34.8294 61.449 34.7193 61.449 34.7979 61.449C34.5933 61.4177 34.3887 61.3707 34.1999 61.3236C33.8379 61.2139 33.649 61.1354 33.3028 60.9159C33.287 60.9159 33.1769 60.8375 33.2713 60.9003C33.2398 60.8846 33.2083 60.8532 33.1926 60.8375C33.1296 60.7905 33.0824 60.7278 33.0195 60.6651C32.925 60.571 32.8621 60.4769 32.7676 60.3044C32.4214 59.7086 32.264 58.9246 32.2325 58.219C32.2168 57.8113 32.2168 57.4037 32.2325 56.996C32.2483 56.5883 32.2955 56.3374 32.3584 55.9611C32.5158 55.0674 32.7204 54.0952 33.3342 53.4523C33.8536 52.9036 33.0195 52.0725 32.5001 52.6213L32.4843 52.6056Z" fill="#231F20"/>
<path d="M47.1372 46.5219C48.9472 48.9836 49.3721 52.4175 48.05 55.1928C47.6881 55.9455 47.2159 56.6197 46.8067 57.341C46.3975 58.0622 46.1299 58.7522 45.9411 59.5361C45.705 60.4769 45.2958 62.3585 43.895 61.6372C43.1081 61.2296 42.8248 60.3828 42.7776 59.5518C42.7146 58.4699 42.8563 57.3723 42.9192 56.3061C42.9664 55.5535 41.786 55.5535 41.7388 56.3061C41.6129 58.172 41.1093 60.6494 42.6044 62.139C43.2025 62.7348 44.0524 63.0955 44.9023 62.9387C45.6892 62.7819 46.2716 62.186 46.5863 61.4804C46.9011 60.7748 47.027 60.0379 47.2316 59.3009C47.4992 58.3602 48.0815 57.5605 48.5694 56.7295C49.498 55.1772 50.0174 53.421 50.0016 51.6022C50.0016 49.5795 49.3564 47.5725 48.1602 45.9418C47.9714 45.6909 47.6566 45.5654 47.3575 45.7379C47.1057 45.879 46.9641 46.2867 47.1529 46.5376L47.1372 46.5219Z" fill="#231F20"/>
<path d="M49.5299 55.0991C49.5299 55.0991 49.5614 55.1775 49.5771 55.1932C49.5771 55.1932 49.5141 55.0364 49.5456 55.1148C49.5456 55.1148 49.5456 55.1461 49.5614 55.1618C49.5928 55.2402 49.6243 55.3186 49.64 55.3813C49.6873 55.5224 49.7345 55.6792 49.766 55.836C49.8132 56.0085 49.8447 56.181 49.8761 56.3535C49.8761 56.4319 49.9076 56.5103 49.9076 56.6043C49.8919 56.4632 49.9233 56.7298 49.9076 56.6043C49.9076 56.6514 49.9076 56.6984 49.9233 56.7611C49.9706 57.1374 49.9863 57.5294 49.9863 57.9058C49.9863 58.0939 49.9863 58.2978 49.9548 58.4859C49.9548 58.58 49.9548 58.6741 49.9233 58.7681C49.9233 58.8152 49.9233 58.8622 49.9076 58.9093C49.8919 59.0661 49.9233 58.7838 49.9076 58.9406C49.8447 59.3013 49.7817 59.6619 49.6558 60.0069C49.6243 60.0853 49.5928 60.1636 49.5771 60.242C49.5771 60.2577 49.5771 60.2734 49.5614 60.2891C49.5299 60.3675 49.5928 60.2264 49.5928 60.2264C49.5771 60.2734 49.5456 60.3204 49.5299 60.3675C49.4669 60.5086 49.3882 60.6497 49.2938 60.7908C49.2781 60.8222 49.2623 60.8379 49.2308 60.8692C49.1521 60.9947 49.3253 60.7595 49.2308 60.8692C49.1836 60.932 49.1364 60.979 49.0892 61.026C49.042 61.0731 48.979 61.1201 48.9318 61.1672C48.8846 61.2142 49.0735 61.0731 48.9318 61.1672C48.9003 61.1828 48.8689 61.2142 48.8374 61.2299C48.7744 61.2612 48.7115 61.2926 48.6485 61.324C48.5698 61.3553 48.8059 61.2612 48.68 61.324C48.6485 61.324 48.6013 61.3553 48.5698 61.3553C48.5069 61.371 48.4282 61.3867 48.3652 61.4024C48.3023 61.4024 48.5383 61.4024 48.3809 61.4024C48.3337 61.4024 48.2865 61.4024 48.2393 61.4024C48.1449 61.4024 48.0662 61.4024 47.9717 61.4024C47.8773 61.4024 48.0504 61.4024 48.0504 61.4024C48.019 61.4024 47.9875 61.4024 47.9717 61.4024C47.9245 61.4024 47.8616 61.3867 47.8144 61.371C47.7042 61.3396 47.594 61.3083 47.4996 61.2769C47.4524 61.2612 47.3894 61.2299 47.3422 61.2142C47.5153 61.2612 47.3422 61.2142 47.2792 61.1828C46.9959 61.0417 46.6969 60.8065 46.3664 60.8379C46.1775 60.8379 46.0044 60.932 45.8628 61.0731L45.7683 61.1985C45.847 61.1044 45.8785 61.0731 45.847 61.1044C45.91 61.0417 46.0831 60.979 46.209 60.9633H46.3349C46.4293 61.026 46.4608 61.0417 46.4136 61.0104C46.3821 60.979 46.3349 60.9633 46.3034 60.932C46.0516 60.7438 45.6267 60.8849 45.5008 61.1358C45.3434 61.4494 45.4535 61.7473 45.7054 61.9355C46.0044 62.155 46.4451 62.202 46.6969 61.9041C46.7441 61.8571 46.9015 61.6846 46.7126 61.8884C46.7441 61.8571 46.7599 61.8571 46.6812 61.9041C46.5553 61.9825 46.4136 62.0295 46.272 61.9982C46.3507 62.0139 46.2247 61.9668 46.2247 61.9668C46.2405 61.9668 46.5395 62.1393 46.5867 62.155C47.0432 62.3902 47.5153 62.547 48.019 62.594C48.7744 62.6724 49.5456 62.3588 50.0493 61.763C50.5686 61.1515 50.8519 60.3832 51.0093 59.5992C51.1667 58.7681 51.2139 57.9058 51.151 57.059C51.088 56.2123 50.9306 55.3186 50.5529 54.5189C50.427 54.2367 50.002 54.1426 49.7502 54.3151C49.4669 54.5032 49.404 54.8168 49.5456 55.1148L49.5299 55.0991Z" fill="#231F20"/>
<path d="M51.0245 59.521C52.6456 59.0192 53.9047 57.6864 54.4084 56.0871C54.55 55.6481 54.613 55.1777 54.6287 54.7073L54.0306 55.3031C54.0306 55.3031 54.1723 55.3031 54.2352 55.3031C54.3611 55.3031 54.1408 55.2874 54.2038 55.3031C54.2352 55.3031 54.2667 55.3031 54.2982 55.3188C54.3297 55.3188 54.3611 55.3501 54.4084 55.3501L54.3297 55.3188C54.3297 55.3188 54.3611 55.3345 54.3926 55.3501C54.4398 55.3815 54.5028 55.4285 54.55 55.4599L54.487 55.4129C54.487 55.4129 54.5185 55.4442 54.5343 55.4599C54.5657 55.4756 54.5815 55.5069 54.613 55.5226C54.6444 55.5383 54.6602 55.5697 54.6759 55.601C54.7231 55.6481 54.7231 55.6951 54.6759 55.601C54.7074 55.6637 54.7546 55.7108 54.7861 55.7735C54.8018 55.8049 54.8176 55.8362 54.8333 55.8676C54.8333 55.8833 54.849 55.9146 54.8648 55.9303C54.8333 55.8519 54.8176 55.8205 54.8333 55.8676C54.849 55.9303 54.8805 55.993 54.8963 56.0557C54.8963 56.1028 54.912 56.1341 54.9277 56.1812C54.9592 56.338 54.9277 56.0871 54.9277 56.2125C54.9277 56.385 54.9435 56.5575 54.9277 56.73C54.9277 56.777 54.9277 56.8084 54.9277 56.8554C54.9277 56.8868 54.9277 57.0279 54.9277 56.8554C54.9277 56.9338 54.8963 57.0279 54.8805 57.1063C54.849 57.2944 54.8018 57.4669 54.7546 57.6551C54.6917 57.953 54.849 58.3136 55.1638 58.3763C55.4629 58.4391 55.8091 58.2823 55.8878 57.9687C56.0924 57.0906 56.2498 56.1812 55.8878 55.3345C55.573 54.6446 54.8176 54.0644 54.0306 54.1585C53.8732 54.1742 53.7316 54.2055 53.6057 54.331C53.4798 54.4564 53.4326 54.5818 53.4326 54.7543C53.4326 54.8484 53.4326 54.9268 53.4326 55.0209C53.4326 55.0679 53.4326 55.1149 53.4326 55.1463C53.4326 55.162 53.4326 55.1933 53.4326 55.209C53.4326 55.3188 53.4483 55.0993 53.4326 55.162C53.4011 55.3345 53.3696 55.5069 53.3224 55.6794C53.2752 55.8519 53.2122 56.0244 53.1493 56.1969C53.1493 56.1969 53.2122 56.0557 53.165 56.1498C53.165 56.1655 53.1493 56.1969 53.1335 56.2125C53.1178 56.2596 53.102 56.2909 53.0706 56.338C53.0391 56.4164 52.9919 56.4948 52.9447 56.5732C52.8502 56.73 52.7558 56.8868 52.6456 57.0279C52.6299 57.0592 52.5984 57.0906 52.5827 57.122C52.5197 57.2004 52.6141 57.0906 52.6141 57.0749C52.6141 57.0906 52.5827 57.1063 52.5669 57.122C52.504 57.2004 52.441 57.2631 52.3781 57.3415C52.2521 57.4826 52.1262 57.608 51.9846 57.7178C51.9531 57.7492 51.9216 57.7805 51.8902 57.7962C51.8744 57.8119 51.7642 57.8903 51.8429 57.8276C51.9216 57.7648 51.7957 57.8589 51.78 57.8746C51.7328 57.906 51.7013 57.9373 51.6541 57.953C51.4967 58.0628 51.3236 58.1568 51.1504 58.2509C51.1032 58.2823 51.056 58.2979 51.0088 58.3136C50.9931 58.3136 50.9616 58.3293 50.9458 58.345C50.9773 58.3293 51.0717 58.2979 50.9773 58.345C50.8829 58.3763 50.7884 58.4234 50.6783 58.4547C50.3792 58.5488 50.1589 58.8624 50.2691 59.176C50.3792 59.4896 50.6783 59.6778 50.9931 59.5837L51.0245 59.521Z" fill="#231F20"/>
<path d="M50.7095 61.5749C51.7483 61.5435 52.7713 61.2456 53.6527 60.7125C53.9202 60.5557 54.1878 60.3676 54.4239 60.1637C54.534 60.0696 54.597 59.8815 54.597 59.7404C54.597 59.5992 54.534 59.4268 54.4239 59.317C54.3137 59.2073 54.1563 59.1445 53.9989 59.1445C53.8258 59.1445 53.7156 59.2073 53.574 59.317C53.5425 59.3484 53.4953 59.3797 53.4638 59.4111L53.5897 59.317C53.1962 59.6149 52.787 59.8501 52.3306 60.054L52.4723 59.9912C52.0316 60.1794 51.5594 60.3048 51.0872 60.3676H51.2446C51.0558 60.3676 50.8826 60.3832 50.6938 60.3989C50.379 60.3989 50.0957 60.6655 50.0957 60.9947C50.0957 61.324 50.3475 61.5906 50.6938 61.5906L50.7095 61.5749Z" fill="#231F20"/>
<path d="M34.8146 20.0384C36.3098 19.7248 37.8207 19.4112 39.3317 19.3171C40.8583 19.2231 42.4007 19.3485 43.9274 19.5367C45.9891 19.7875 48.0824 20.1639 49.9396 21.1046C51.7967 22.0454 53.4493 23.6605 54.0789 25.7302C54.4094 26.8121 54.4408 27.9724 54.3936 29.1013C54.1418 34.4482 51.9384 39.45 49.7822 44.3108C49.3258 45.3456 48.8536 46.3962 48.1296 47.2586C47.0909 48.4816 45.5012 49.2342 43.9588 49.0147C41.6295 48.6854 41.5508 46.9606 40.4963 45.3143C39.9612 46.4275 39.7409 47.8387 38.5605 48.4659C37.443 49.0461 36.2783 49.0774 35.0979 48.5443C33.225 47.6976 32.1548 45.3143 31.179 43.5424C29.7782 41.018 28.6136 38.3681 27.685 35.6241C26.8508 33.1781 26.2213 30.5752 26.4731 27.9881C26.9767 22.9549 30.5022 20.9165 34.7989 20.0227L34.8146 20.0384Z" fill="#F39B4A"/>
<path d="M21.8615 28.7258C20.6969 30.184 19.8627 31.36 20.1618 33.4141C20.3978 35.0448 21.2005 36.5344 21.9874 37.9612C23.0577 39.9212 24.1279 41.8655 25.1982 43.8255C25.4342 44.2645 25.7175 44.7506 26.174 44.9387C27.1655 45.3621 28.157 43.3864 28.4403 42.6495C28.9754 41.2697 29.0227 39.7017 29.0227 38.2435C29.0227 35.0134 28.944 31.7834 29.0856 28.5533C29.1643 26.6404 29.243 23.5201 30.6123 22.0933C31.2576 21.419 31.8714 19.9765 30.266 20.2901C29.4161 20.4469 29.0856 21.1368 28.4875 21.6542C26.0638 23.7396 23.8918 26.2327 21.9088 28.7258H21.8615Z" fill="#984E25"/>
<path d="M52.3787 30.0263C52.2843 32.0176 52.2371 34.009 52.3787 35.9846C52.5361 37.976 52.2528 45.3611 55.5894 45.1573C56.2662 45.1103 56.7069 44.4204 57.0374 43.8088C58.4854 41.1119 59.8232 38.3523 61.0822 35.5456C61.397 34.8243 61.7275 34.0874 61.759 33.2877C61.7905 32.441 61.5072 31.6256 61.1767 30.8573C59.6815 27.4705 57.1633 24.7579 54.4405 22.4059C53.6063 21.6846 51.9695 19.709 50.7262 20.5714C49.5458 21.3867 51.5761 23.0645 51.938 24.0836C52.5833 25.9495 52.4574 28.035 52.363 29.9949L52.3787 30.0263Z" fill="#984E25"/>
<path d="M33.8227 34.9814C34.6745 34.9814 35.3651 34.2935 35.3651 33.4448C35.3651 32.5962 34.6745 31.9082 33.8227 31.9082C32.9708 31.9082 32.2803 32.5962 32.2803 33.4448C32.2803 34.2935 32.9708 34.9814 33.8227 34.9814Z" fill="#231F20"/>
<path d="M47.5785 34.9814C48.4304 34.9814 49.1209 34.2935 49.1209 33.4448C49.1209 32.5962 48.4304 31.9082 47.5785 31.9082C46.7267 31.9082 46.0361 32.5962 46.0361 33.4448C46.0361 34.2935 46.7267 34.9814 47.5785 34.9814Z" fill="#231F20"/>
<path d="M40.3858 44.5773C42.0286 44.5773 43.3604 43.7559 43.3604 42.7427C43.3604 41.7296 42.0286 40.9082 40.3858 40.9082C38.7429 40.9082 37.4111 41.7296 37.4111 42.7427C37.4111 43.7559 38.7429 44.5773 40.3858 44.5773Z" fill="#231F20"/>
<path d="M31.2106 22.093C31.5568 21.5756 32.2336 21.4031 32.8002 21.2307C33.5714 20.9955 34.3583 20.7759 35.1452 20.6035C36.6719 20.2585 38.2143 20.039 39.7724 19.9449C42.7156 19.7724 46.0522 19.7881 48.6963 21.2463C49.3573 21.607 49.9554 20.6035 49.2944 20.2271C46.367 18.6121 42.6841 18.5494 39.4262 18.7846C37.7107 18.91 35.9951 19.1766 34.3268 19.5843C33.5084 19.7881 32.7057 19.992 31.9188 20.2742C31.2263 20.5251 30.6125 20.8543 30.2033 21.4815C29.7941 22.1087 30.8013 22.7046 31.2263 22.0774L31.2106 22.093Z" fill="#231F20"/>
<path d="M31.5249 20.0393C30.4862 19.5689 29.5261 20.0707 28.7234 20.7606C28.1568 21.2467 27.606 21.7798 27.0394 22.2815C25.796 23.3791 24.5212 24.4453 23.3565 25.637C21.1688 27.8635 19.1858 30.7016 19.6894 33.9787C19.8311 34.8724 20.1616 35.6878 20.5708 36.4874C21.1374 37.6164 21.704 38.761 22.2706 39.8899C22.8372 41.0189 23.3723 42.1008 23.9389 43.1984C24.3481 43.9981 24.6786 45.0172 25.4498 45.5504C26.6145 46.3657 27.7634 45.3308 28.3929 44.3744C29.2113 43.167 29.6992 41.7088 29.7779 40.2506C29.8566 38.9021 29.7622 37.538 29.7307 36.1895C29.6992 34.841 29.6835 33.4612 29.6992 32.0814C29.6992 29.2904 29.8094 26.4994 30.0612 23.7084C30.1242 22.9558 28.9438 22.9558 28.8808 23.7084C28.4716 28.1458 28.4874 32.5988 28.5661 37.0362C28.5975 38.7453 28.7864 40.4858 28.1883 42.1165C27.9837 42.6966 27.7004 43.2454 27.3699 43.7629C27.1496 44.0921 26.8033 44.5468 26.4098 44.6409C26.3469 44.6566 26.221 44.6409 26.0793 44.5312C25.8433 44.3587 25.7016 44.0451 25.56 43.7942C25.0563 42.8064 24.5684 41.8186 24.0805 40.8307C23.5926 39.8429 23.0575 38.7924 22.5539 37.7732C22.0974 36.8481 21.5466 35.9386 21.1846 34.9822C20.1458 32.1912 21.4364 29.557 23.2778 27.4402C24.3795 26.1701 25.6386 25.0412 26.8977 23.9436C27.4958 23.4262 28.0782 22.9244 28.6762 22.3913C29.1799 21.9366 30.1714 20.6822 30.9426 21.0428C31.6351 21.3564 32.2332 20.3372 31.5407 20.0236L31.5249 20.0393Z" fill="#231F20"/>
<path d="M50.8517 21.0589C51.5599 20.7296 52.4413 21.8115 52.9134 22.2192C53.4328 22.6896 53.9522 23.1286 54.4716 23.5833C55.6048 24.5712 56.7379 25.559 57.7767 26.6409C59.6339 28.5695 61.4753 31.1253 60.9087 33.9477C60.7356 34.7944 60.3736 35.547 59.9801 36.3153C59.4922 37.3032 58.9886 38.291 58.5007 39.2788C58.0128 40.2667 57.4777 41.3172 56.974 42.3364C56.7222 42.8381 56.4861 43.3242 56.2343 43.826C56.1084 44.0768 55.951 44.3748 55.7149 44.5629C55.4316 44.7824 55.1955 44.6413 54.9122 44.3748C54.4873 43.9828 54.1883 43.4653 53.9364 42.9479C53.2597 41.5681 53.1495 40.2196 53.181 38.6987C53.2912 33.7125 53.3699 28.7106 52.9134 23.7245C52.8505 22.9718 51.6701 22.9718 51.733 23.7245C52.1894 28.6793 52.1108 33.6341 52.0163 38.6046C52.0006 39.5924 51.9691 40.5959 52.2052 41.5524C52.3626 42.211 52.5987 42.8381 52.8977 43.434C53.3856 44.4375 54.2512 45.8957 55.5575 45.833C56.25 45.8016 56.7694 45.2685 57.1157 44.704C57.7452 43.6692 58.2174 42.5245 58.7682 41.4426C59.3191 40.3607 59.87 39.2318 60.4365 38.1342C60.9244 37.1464 61.491 36.1742 61.853 35.1394C62.9547 31.925 61.3651 28.8674 59.2561 26.4841C58.0285 25.1043 56.6435 23.8969 55.2428 22.6896C54.5975 22.1251 53.9679 21.5607 53.3384 20.9962C52.4885 20.2122 51.4655 19.5223 50.3008 20.0554C49.6083 20.369 50.2064 21.3882 50.8989 21.0746L50.8517 21.0589Z" fill="#231F20"/>
<path d="M28.9749 39.1526C30.0294 41.8495 30.7849 44.7816 32.6106 47.0866C33.4447 48.1371 34.5779 49.0152 35.8842 49.3601C37.0804 49.6737 38.3237 49.4856 39.2995 48.7173C40.5429 47.7451 40.9993 46.0987 41.1095 44.5935C41.141 44.2799 40.8262 43.9976 40.5114 43.9976C40.1652 43.9976 39.9448 44.2642 39.9134 44.5935C39.8661 45.2363 39.7402 45.8949 39.4884 46.5064C39.2995 46.9454 39.032 47.3531 38.6857 47.6824C38.5126 47.8549 38.4182 47.9176 38.1664 48.0587C38.1191 48.0901 38.0719 48.1057 38.0247 48.1371C37.9145 48.1998 38.0247 48.1371 37.9303 48.1685C37.8201 48.2155 37.7099 48.2469 37.584 48.2782C37.5368 48.2782 37.4739 48.2939 37.4266 48.3096C37.3952 48.3096 37.3637 48.3096 37.3479 48.3096C37.3479 48.3096 37.4424 48.3096 37.3637 48.3096C37.222 48.3096 37.0961 48.3253 36.9545 48.3253C36.8286 48.3253 36.7184 48.3253 36.5925 48.3096C36.561 48.3096 36.5295 48.3096 36.498 48.3096C36.4194 48.3096 36.3407 48.2782 36.2462 48.2625C35.1288 47.996 34.2159 47.2747 33.492 46.381C32.7208 45.4245 32.1384 44.2485 31.6663 43.0882C31.0839 41.6927 30.6275 40.2502 30.0766 38.8547C29.9665 38.5567 29.6832 38.3529 29.3527 38.447C29.0694 38.5254 28.8175 38.8703 28.9435 39.1683L28.9749 39.1526Z" fill="#231F20"/>
<path d="M51.1358 38.839C50.1915 41.2693 49.499 43.9036 47.9566 46.0517C47.2956 46.9611 46.3985 47.7765 45.3597 48.1371C44.8246 48.3253 44.4626 48.388 43.896 48.3253C43.7859 48.3253 43.9432 48.3253 43.8331 48.3253C43.7701 48.3253 43.7229 48.3096 43.6757 48.2939C43.5655 48.2625 43.4396 48.2312 43.3294 48.1841C43.3294 48.1841 43.2035 48.1371 43.2665 48.1685C43.3294 48.1841 43.235 48.1685 43.235 48.1685C43.1878 48.1528 43.1406 48.1214 43.0934 48.0901C42.9832 48.0273 42.8887 47.9646 42.7786 47.9019C42.7628 47.9019 42.7314 47.8705 42.7156 47.8549C42.7786 47.9019 42.7156 47.8549 42.6841 47.8235C42.6369 47.7765 42.5897 47.7294 42.5268 47.6824C42.4323 47.5883 42.3379 47.4785 42.2435 47.3845C42.1962 47.3218 42.2435 47.3845 42.1648 47.2904C42.1176 47.2277 42.0703 47.1493 42.0231 47.0866C41.9444 46.9611 41.8657 46.82 41.8028 46.6789C41.5195 46.083 41.3621 45.3304 41.3149 44.6248C41.2834 44.3112 41.0631 44.029 40.7168 44.029C40.4178 44.029 40.103 44.2955 40.1187 44.6248C40.2289 46.0203 40.6066 47.4785 41.6297 48.4821C42.511 49.3444 43.7229 49.6737 44.9348 49.4699C47.7992 49.0152 49.4833 46.2398 50.5063 43.8095C51.1516 42.2885 51.671 40.7206 52.269 39.1683C52.3792 38.8703 52.1431 38.5254 51.8598 38.447C51.5293 38.3529 51.246 38.5567 51.1358 38.8547V38.839Z" fill="#231F20"/>
</svg>
