<svg width="80" height="76" viewBox="0 0 80 76" fill="none" xmlns="http://www.w3.org/2000/svg">
<path d="M51.1337 57.7337C51.417 56.887 51.5586 56.0246 51.5586 55.0838C51.5586 54.1743 51.4799 53.2806 51.417 52.3712C51.0235 50.9757 50.4097 49.5958 49.7959 48.3885C49.5598 47.9338 49.245 46.993 48.7571 46.6951C47.0573 44.4685 44.1772 42.9319 41.1081 42.6183C37.9289 42.3047 34.6237 43.2926 32.3574 45.2369C28.4069 48.6394 25.3221 60.5247 34.4506 60.1327L35.0959 59.5368C35.3949 59.9602 35.8671 60.2581 36.6383 60.3522C39.3768 60.6658 40.0221 59.2076 40.1795 57.4514C40.3369 59.2076 40.9822 60.6658 43.7207 60.3522C46.4907 60.0229 49.7644 59.8348 51.1337 57.7337Z" fill="#F8C04E"/>
<path d="M49.4338 46.6168C47.2619 43.6533 43.5948 41.9912 39.9434 41.9912C36.7641 41.9912 33.2229 43.1829 31.1297 45.676C29.7762 47.291 28.8633 49.2823 28.3439 51.305C27.8245 53.3277 27.6357 55.6013 28.4856 57.5613C29.5243 59.9603 31.9638 60.8383 34.4506 60.7443C35.206 60.7129 35.206 59.5369 34.4506 59.5683C32.5619 59.6467 30.6733 59.1449 29.7447 57.4672C28.9105 55.9619 28.9735 54.0019 29.3197 52.2928C29.6975 50.4269 30.4529 48.5924 31.5546 47.0244C33.097 44.8449 35.7883 43.5905 38.4325 43.2613C42.1153 42.7909 46.1759 44.1707 48.4108 47.2126C48.8515 47.8241 49.8745 47.2283 49.4338 46.6168Z" fill="#231F20"/>
<path d="M48.395 47.15C48.8514 47.3851 49.0403 48.1691 49.2606 48.6238C49.481 49.0786 49.6856 49.5019 49.8744 49.941C50.2522 50.819 50.6299 51.8853 50.8817 52.8888C51.1335 53.8923 51.2594 54.7703 51.165 55.8052C51.1335 56.1502 51.0391 56.5892 50.8817 57.0125C50.7715 57.2948 50.504 57.7495 50.2679 58.0004C49.481 58.8314 48.2533 59.1607 47.0414 59.2548C46.286 59.3018 46.286 60.4778 47.0414 60.4307C48.3792 60.3367 49.7013 60.0231 50.7558 59.1607C51.5585 58.5021 52.0621 57.53 52.251 56.5108C52.6602 54.2529 51.9362 51.8853 51.0706 49.8155C50.8345 49.2354 50.5669 48.6709 50.2836 48.1064C49.9531 47.4165 49.7013 46.5228 48.9616 46.1464C48.2848 45.8015 47.6867 46.8207 48.3635 47.1656L48.395 47.15Z" fill="#231F20"/>
<path d="M34.4347 58.6119C34.4504 58.6903 34.4819 58.7843 34.4976 58.8627C34.5606 59.0509 34.6235 59.2234 34.7022 59.3958C34.7022 59.4115 34.7022 59.4115 34.7022 59.4115C34.7022 59.4115 34.7022 59.4115 34.718 59.4429C34.7337 59.4899 34.7652 59.537 34.7809 59.5683C34.8124 59.6154 34.8439 59.6781 34.8754 59.7251L35.08 59.537C35.379 59.9603 35.8512 60.2582 36.6224 60.3523C38.7156 60.6032 39.5812 59.7878 39.9432 58.6119C38.1018 58.5648 36.2289 58.5962 34.4189 58.5962L34.4347 58.6119Z" fill="white"/>
<path d="M48.6626 50.0037C49.1348 49.5177 49.4653 48.9689 49.5755 48.326C49.8745 46.6483 47.5924 44.6256 46.0815 43.8102C44.0512 42.7126 41.5959 42.1638 39.2036 42.2579C35.6152 42.399 28.3282 44.9705 30.4372 49.1414C31.2556 50.7721 34.0256 51.8069 36.2133 52.4341C37.315 52.7477 38.1491 52.8731 38.9833 53.5474C39.4082 53.8767 39.8017 54.253 40.1952 54.5822C41.5959 54.0021 42.9337 53.2808 44.303 52.638C45.6408 51.9951 47.5294 51.2111 48.6626 50.0351V50.0037Z" fill="white"/>
<path d="M45.0428 60.1488C45.1845 59.992 45.3104 59.8352 45.4363 59.6627C45.5622 59.5059 45.6881 59.3334 45.7983 59.1609C45.8455 59.0825 45.8927 59.0041 45.9399 58.9257C45.9714 58.8787 45.9872 58.8317 46.0186 58.8003C46.0344 58.7533 46.0501 58.7062 46.0658 58.6592C44.2716 58.816 42.4617 58.7219 40.6675 58.6592C40.573 58.6592 40.4943 58.6592 40.3999 58.6592C40.7619 59.8352 41.6275 60.6348 43.7208 60.384C44.13 60.3369 44.5549 60.2899 44.9799 60.2428C44.9956 60.2115 45.0271 60.1958 45.0428 60.1644V60.1488Z" fill="white"/>
<path d="M31.0824 44.7981C30.1066 45.6291 29.4141 46.9149 29.5557 48.2163C29.6974 49.5177 30.4686 50.5056 31.4759 51.2582C32.0739 51.6972 32.7507 52.0265 33.459 52.2617C33.758 52.3558 34.12 52.1519 34.1829 51.854C34.2616 51.5248 34.0885 51.2425 33.7737 51.1328C33.6321 51.0857 33.5062 51.0387 33.3645 50.976C33.333 50.976 33.2543 50.9289 33.3645 50.976C33.333 50.976 33.3016 50.9446 33.2701 50.9289C33.1914 50.8976 33.1127 50.8505 33.034 50.8192C32.7822 50.6937 32.5461 50.5526 32.31 50.3958C32.2628 50.3644 32.1999 50.3174 32.1526 50.2861C32.1212 50.2704 32.1054 50.2547 32.0739 50.2233C32.1369 50.286 32.011 50.1763 32.0739 50.2233C31.9638 50.1293 31.8693 50.0509 31.7749 49.9568C31.6805 49.8784 31.6018 49.7843 31.5073 49.6902C31.4601 49.6432 31.4287 49.5961 31.3814 49.5491C31.3657 49.5334 31.35 49.5021 31.3185 49.4864C31.2241 49.3766 31.3814 49.5805 31.3027 49.4707C31.1611 49.2825 31.0352 49.0787 30.9408 48.8592C30.9408 48.8278 30.925 48.8122 30.9093 48.7808C30.8778 48.7181 30.925 48.8278 30.925 48.8278C30.8935 48.7965 30.8778 48.7181 30.8621 48.671C30.8148 48.5456 30.7834 48.4045 30.7519 48.2634C30.7519 48.2634 30.7362 48.185 30.7362 48.1693C30.7362 48.1693 30.7362 48.3104 30.7362 48.185C30.7362 48.1222 30.7362 48.0595 30.7362 47.9968C30.7362 47.8714 30.7362 47.7302 30.7362 47.6048C30.7362 47.448 30.7204 47.6832 30.7362 47.5264C30.7362 47.4637 30.7519 47.401 30.7676 47.3382C30.7991 47.2128 30.8306 47.0874 30.8778 46.9619C30.8778 46.9306 30.8935 46.8992 30.9093 46.8679C30.9722 46.7267 30.8621 46.9776 30.925 46.8365C30.9565 46.7738 30.988 46.7111 31.0194 46.6483C31.0981 46.5072 31.1768 46.3818 31.2713 46.2407C31.287 46.2093 31.3185 46.1779 31.3342 46.1623C31.287 46.225 31.3342 46.1623 31.35 46.1466C31.3972 46.0839 31.4444 46.0211 31.5073 45.9741C31.6333 45.8487 31.7592 45.7232 31.9008 45.5978C32.1369 45.394 32.1212 44.9706 31.9008 44.7668C31.649 44.5316 31.3185 44.5472 31.0667 44.7668L31.0824 44.7981Z" fill="#231F20"/>
<path d="M34.5607 50.2548C34.2774 51.321 35.1587 52.2148 36.0086 52.7009C36.8585 53.1869 37.7714 53.4378 38.6055 53.9239C38.7157 53.9866 38.8101 54.0493 38.9203 54.1277C38.936 54.1277 38.9675 54.1591 38.9832 54.1748L38.9203 54.1277C38.9203 54.1277 38.9518 54.1591 38.9832 54.1748C39.0305 54.2061 39.0619 54.2532 39.1092 54.2845C39.1878 54.3629 39.2665 54.457 39.3452 54.5354C39.3452 54.5354 39.2665 54.4256 39.3138 54.504C39.3295 54.5354 39.3452 54.5667 39.3767 54.5824C39.4082 54.6295 39.4397 54.6765 39.4554 54.7235C39.5971 55.0058 40.0063 55.0999 40.2581 54.9274C40.5414 54.7392 40.6201 54.4256 40.4627 54.1277C40.2581 53.7044 39.8961 53.3908 39.5184 53.1242C39.1406 52.8576 38.7472 52.6695 38.338 52.4813C37.913 52.2932 37.4723 52.1207 37.0474 51.9169C36.8428 51.8228 36.6539 51.713 36.465 51.6033C36.3864 51.5562 36.2604 51.4935 36.1975 51.4151C36.2604 51.4935 36.2604 51.4621 36.229 51.4308C36.2132 51.4151 36.1817 51.3994 36.166 51.3838C36.1188 51.3367 36.0716 51.2897 36.0244 51.2583C35.9929 51.2269 35.9457 51.1799 35.9142 51.1486C35.8985 51.1329 35.8827 51.1172 35.867 51.0858C35.9457 51.1956 35.7883 50.9918 35.867 51.0858C35.8355 51.0388 35.804 50.9918 35.7725 50.9447C35.7411 50.8977 35.7253 50.835 35.6938 50.8036C35.7568 50.882 35.7411 50.9134 35.7096 50.8506C35.7096 50.8193 35.6938 50.7879 35.6781 50.7566C35.6781 50.7409 35.6781 50.7252 35.6781 50.7095C35.6624 50.6154 35.6781 50.7095 35.6781 50.7566C35.6781 50.7095 35.6781 50.6468 35.6781 50.5998C35.6781 50.537 35.7096 50.5684 35.6781 50.6625C35.6781 50.6311 35.6781 50.5998 35.6938 50.5684C35.7725 50.2705 35.5994 49.9098 35.2846 49.8471C34.9699 49.7844 34.6394 49.9412 34.5607 50.2548Z" fill="#231F20"/>
<path d="M47.9857 46.7426C48.0644 46.7897 48.1431 46.8367 48.2376 46.8838C48.269 46.8994 48.3005 46.9308 48.3163 46.9622C48.3792 47.0092 48.4264 47.0719 48.4894 47.1346C48.5051 47.1503 48.5838 47.2444 48.5209 47.166C48.5523 47.213 48.5838 47.2444 48.6153 47.2914C48.6468 47.3542 48.694 47.4169 48.7255 47.4796C48.7255 47.4796 48.7884 47.6364 48.7569 47.558C48.7255 47.4796 48.7884 47.6364 48.7884 47.6364C48.8042 47.6991 48.8356 47.7618 48.8514 47.8246C48.8514 47.8716 48.8514 47.903 48.8828 47.95C48.8828 47.997 48.8828 47.9814 48.8828 47.9186C48.8828 47.95 48.8828 47.9657 48.8828 47.997C48.9301 48.6556 48.5838 49.3455 48.1746 49.8629C47.6867 50.4744 47.1673 50.8664 46.4906 51.2114C45.861 51.525 45.3102 51.7288 44.6019 52.0111C43.7992 52.3403 43.0438 52.701 42.367 53.2498C42.1309 53.4379 42.1467 53.877 42.367 54.0808C42.6188 54.316 42.9493 54.2846 43.2012 54.0808C43.2012 54.0808 43.3585 53.971 43.2484 54.0338C43.2799 54.0181 43.3113 53.9867 43.3428 53.971C43.4215 53.924 43.5002 53.8613 43.5789 53.8142C43.7363 53.7202 43.8937 53.6261 44.0668 53.532C44.2399 53.4379 44.413 53.3595 44.5862 53.2811C44.6649 53.2498 44.7436 53.2184 44.8223 53.1714C44.9167 53.1243 44.6963 53.2184 44.8695 53.1557C44.9167 53.14 44.9796 53.1086 45.0269 53.093C45.7666 52.7951 46.5378 52.5128 47.246 52.1365C48.033 51.7131 48.6782 51.1487 49.2134 50.4431C49.7485 49.7375 50.1419 48.8594 50.079 47.9657C50.0003 47.0249 49.4652 46.1782 48.6153 45.7391C48.3477 45.598 47.9543 45.6607 47.8126 45.943C47.671 46.2095 47.7339 46.6015 48.0172 46.7426H47.9857Z" fill="#231F20"/>
<path d="M34.0884 55.4761C34.0884 57.1696 33.5375 59.5372 35.3475 60.5721C35.8983 60.8857 36.5279 60.9641 37.1417 60.9954C37.6768 61.0111 38.2592 60.9641 38.7628 60.7759C39.2035 60.6034 39.6127 60.3526 39.9117 59.9763C40.2108 59.5999 40.4154 59.1923 40.5413 58.7375C40.8246 57.7497 40.7931 56.6992 40.7931 55.68C40.7931 55.3664 40.5255 55.0842 40.195 55.0842C39.8645 55.0842 39.5969 55.335 39.5969 55.68C39.5969 56.1033 39.5969 56.5424 39.5969 56.9657C39.5969 57.1696 39.5812 57.3891 39.5497 57.5929C39.5497 57.64 39.5497 57.687 39.5497 57.734C39.5497 57.7654 39.5497 57.7968 39.5497 57.8124C39.5655 57.6243 39.5655 57.7027 39.5497 57.734C39.534 57.8438 39.5183 57.9536 39.4868 58.0633C39.4553 58.2515 39.4081 58.4239 39.3451 58.6121C39.3451 58.6591 39.3136 58.7062 39.2979 58.7375C39.3609 58.6121 39.2507 58.8787 39.2979 58.7375C39.2664 58.8159 39.2192 58.8943 39.172 58.9727C39.1248 59.0511 39.0776 59.1295 39.0303 59.1923C38.9674 59.2707 39.1248 59.0825 39.0776 59.1452C39.0776 59.1452 39.0461 59.1766 39.0461 59.1923C39.0146 59.2236 38.9831 59.2707 38.9517 59.302C38.8887 59.3647 38.81 59.4118 38.7471 59.4902C38.7471 59.4902 38.873 59.3961 38.81 59.4431C38.7943 59.4431 38.7628 59.4745 38.7471 59.4902C38.6998 59.5215 38.6526 59.5529 38.6211 59.5686C38.5897 59.5843 38.5424 59.6156 38.511 59.6313C38.4795 59.6313 38.4638 59.647 38.4323 59.6627C38.3378 59.7097 38.5582 59.6156 38.4795 59.647C38.3693 59.6783 38.2749 59.7254 38.1647 59.7567C38.0703 59.7881 37.9601 59.8038 37.8657 59.8195C37.8185 59.8195 37.7083 59.8195 37.8972 59.8195C37.8657 59.8195 37.8342 59.8195 37.8027 59.8195C37.7398 59.8195 37.6611 59.8195 37.5981 59.8195C37.3148 59.8195 37.0315 59.8195 36.7482 59.7881C36.7325 59.7881 36.6538 59.7724 36.6381 59.7881H36.7168C36.7168 59.7881 36.6695 59.7881 36.6381 59.7881C36.5751 59.7881 36.5279 59.7724 36.4649 59.7567C36.3548 59.7254 36.2289 59.694 36.1187 59.647C36.0715 59.6313 35.9928 59.5686 36.1502 59.647C36.1187 59.647 36.1029 59.6156 36.0715 59.6156C36.0243 59.5999 35.9928 59.5686 35.9456 59.5529C35.8983 59.5372 35.8669 59.5059 35.8354 59.4745C35.8196 59.4745 35.7882 59.4431 35.7724 59.4275C35.8983 59.4745 35.8669 59.5059 35.8039 59.4588C35.7252 59.3961 35.6623 59.3334 35.5993 59.255C35.678 59.3647 35.5049 59.1452 35.5993 59.255C35.5678 59.2079 35.5364 59.1766 35.5206 59.1295C35.5049 59.0982 35.4734 59.0511 35.4577 59.0198C35.4577 58.9884 35.379 58.8316 35.4262 58.9571C35.4734 59.0825 35.4104 58.91 35.3947 58.8787C35.379 58.8316 35.3632 58.7846 35.3475 58.7219C35.316 58.6278 35.3003 58.5494 35.2845 58.4553C35.2845 58.4083 35.2688 58.3456 35.2531 58.2985C35.2531 58.2828 35.2531 58.2672 35.2531 58.2358C35.2845 58.4396 35.2531 58.2985 35.2531 58.2515C35.1586 57.3264 35.3003 56.4169 35.3003 55.4918C35.3003 55.1782 35.0327 54.896 34.7022 54.896C34.3717 54.896 34.1199 55.1469 34.1041 55.4918L34.0884 55.4761Z" fill="#231F20"/>
<path d="M45.0899 55.4762C45.0899 56.3072 45.2158 57.1226 45.1686 57.9536C45.1686 58.0477 45.1686 58.1418 45.1529 58.2358C45.1529 58.2672 45.1529 58.2986 45.1529 58.3142C45.1686 58.1261 45.1686 58.2045 45.1529 58.2358C45.1529 58.2986 45.1371 58.3613 45.1214 58.4083C45.0899 58.5965 45.0112 58.769 44.964 58.9571C45.0112 58.8003 45.0112 58.863 44.9797 58.9101C44.9797 58.9258 44.964 58.9571 44.9483 58.9728C44.9325 59.0042 44.901 59.0512 44.8853 59.0826C44.8696 59.1139 44.8381 59.161 44.8223 59.1923C44.8223 59.208 44.7909 59.2394 44.7751 59.255C44.8381 59.1296 44.8538 59.161 44.8066 59.2237C44.7437 59.3021 44.6807 59.3648 44.602 59.4275C44.7122 59.3491 44.4918 59.5216 44.602 59.4275C44.5548 59.4589 44.5076 59.4902 44.4604 59.5216C44.4131 59.553 44.3817 59.5686 44.3344 59.5843C44.303 59.5843 44.2872 59.6 44.2558 59.6157C44.3974 59.5373 44.3502 59.5843 44.303 59.6C44.1928 59.647 44.0669 59.6784 43.941 59.7097C43.878 59.7097 43.8308 59.7411 43.7679 59.7411C43.7364 59.7411 43.5947 59.7568 43.7679 59.7411C43.7364 59.7411 43.7206 59.7411 43.6892 59.7411C43.516 59.7568 43.3586 59.7725 43.1855 59.7725C43.0596 59.7725 42.9337 59.7725 42.8078 59.7725C42.7448 59.7725 42.6819 59.7725 42.6347 59.7725C42.6032 59.7725 42.5717 59.7725 42.5245 59.7725C42.6819 59.8038 42.3986 59.7725 42.5245 59.7725C42.3042 59.7411 42.0996 59.6784 41.8949 59.6157C41.7848 59.5843 42.0366 59.6784 41.9422 59.6313C41.9107 59.6313 41.8949 59.6157 41.8635 59.6C41.8163 59.5843 41.7848 59.5529 41.7533 59.5373C41.7218 59.5216 41.6746 59.4902 41.6431 59.4746C41.5802 59.4432 41.47 59.3178 41.6116 59.4746C41.5487 59.4118 41.47 59.3648 41.407 59.2864C41.3756 59.255 41.3441 59.2237 41.3284 59.1923C41.3284 59.1923 41.2969 59.161 41.2969 59.1453C41.2182 59.0512 41.3756 59.255 41.3284 59.1766C41.2182 59.0198 41.1395 58.8787 41.0608 58.7062C41.108 58.8474 40.9978 58.5808 41.0608 58.7062C41.0608 58.6592 41.0293 58.6278 41.0136 58.5808C40.9821 58.4867 40.9506 58.377 40.9191 58.2829C40.8877 58.1888 40.8719 58.079 40.8562 57.9693C40.8562 57.9222 40.8405 57.8595 40.8247 57.8125C40.8247 57.7655 40.7932 57.5616 40.8247 57.7811C40.7932 57.5459 40.7775 57.3107 40.7618 57.0755C40.7303 56.6051 40.746 56.1191 40.746 55.6487C40.746 55.3351 40.4785 55.0528 40.1479 55.0528C39.8174 55.0528 39.5656 55.3037 39.5499 55.6487C39.5499 57.3264 39.4712 59.6157 41.1867 60.5721C41.6746 60.8387 42.2255 60.9485 42.7606 60.9798C43.0596 60.9955 43.3744 60.9798 43.6734 60.9485C43.9725 60.9171 44.2872 60.8701 44.5705 60.7603C45.0899 60.5565 45.5306 60.2429 45.8296 59.7881C46.0815 59.4118 46.2074 58.9728 46.2703 58.5338C46.412 57.5146 46.2703 56.5111 46.2546 55.4762C46.2546 55.1626 45.987 54.8804 45.6565 54.8804C45.326 54.8804 45.0584 55.1312 45.0584 55.4762H45.0899Z" fill="#231F20"/>
<path d="M61.9312 15.2252C61.8997 15.0997 61.8682 14.9586 61.8367 14.8332C61.459 13.3593 61.0498 10.8035 59.8694 9.79996C57.2095 7.57343 53.0073 11.5718 51.3705 13.5004C49.6235 15.5544 48.3801 17.9064 47.6089 20.4465C42.8716 18.7218 37.7722 18.565 32.9404 19.9448C31.9489 17.8437 30.737 15.9308 29.1946 14.1746C29.1789 14.1589 29.1474 14.1433 29.1316 14.1119C28.3447 13.0614 27.4948 12.0422 26.519 11.1641C25.4173 10.1606 24.0323 9.00029 22.4742 9.07869C22.4427 9.07869 22.3955 9.07869 22.364 9.07869C19.5625 8.31038 18.3034 15.8524 18.146 17.5458C17.7368 22.2654 18.9487 26.938 22.0649 30.2778C22.0177 30.4503 21.9705 30.6227 21.9863 30.8423C22.1279 33.3197 21.5141 35.4521 20.1133 37.4748C19.3579 38.5567 20.3966 39.8425 21.4669 39.9209C21.4197 39.9365 21.3567 39.9522 21.3095 39.9679C20.617 41.0655 21.5456 42.3512 22.663 42.4139C24.2841 42.508 25.5117 44.1074 26.7236 45.0482C28.1244 46.1301 29.6038 46.6789 31.3351 46.9454C35.3642 47.5883 39.5664 48.2312 43.6585 48.1057C47.2154 47.996 50.8668 47.1492 53.747 44.9227C54.833 44.076 55.6357 42.9941 56.9892 42.6178C58.1067 42.3199 58.9093 42.853 59.1454 41.0498C59.1926 40.7519 59.2084 40.4853 59.1454 40.1874C59.5546 39.9836 59.9009 39.5916 60.011 39.1525C60.5619 37.0828 60.011 37.1769 59.0667 35.5305C58.7834 35.0288 58.7362 34.3702 58.626 33.8057C58.5473 33.4137 57.7604 30.6698 57.9493 30.4503C61.2229 26.3735 63.1116 20.5563 61.8997 15.2409L61.9312 15.2252Z" fill="#F8C04E"/>
<path d="M29.4464 19.9603C28.6594 18.2198 27.6364 16.6519 26.6921 15.0055C24.8979 11.8852 21.6085 11.4932 20.8373 15.5856C20.0661 19.631 21.1206 23.99 23.6073 27.2044C24.1109 26.6242 29.7611 20.6816 29.7769 20.7443C29.6824 20.4934 29.5723 20.2269 29.4464 19.976V19.9603Z" fill="white"/>
<path d="M56.1867 12.9674C55.2424 13.5319 54.2823 14.504 53.8416 14.9744C52.6455 16.2445 51.7799 17.7968 50.93 19.3177C50.6309 19.8509 49.9542 21.0268 50.1115 21.6854C50.2532 22.2655 51.5123 22.9241 51.953 23.222C53.6213 24.351 55.1007 25.8562 56.47 27.3144C58.941 25.7465 59.4918 21.0425 59.665 18.3299C59.7751 16.6679 59.6807 13.3124 57.7921 12.5754C57.3514 12.4029 56.769 12.6068 56.171 12.9674H56.1867Z" fill="white"/>
<path d="M59.0983 35.499C58.815 34.9973 58.7678 34.3387 58.6577 33.7742C57.493 34.2917 56.2496 34.621 55.0692 34.8718C51.229 35.6401 45.2797 35.9537 43.4068 31.5164C41.8329 27.7846 42.6199 23.3158 43.2494 19.3645C40.8886 18.9882 38.5121 18.9568 36.1355 19.3018C36.2614 21.152 36.466 22.9865 36.5762 24.8368C36.6864 26.8124 36.7651 28.9449 36.0726 30.8264C35.4745 32.4571 34.4357 34.0408 32.9406 34.9189C32.4999 35.1697 32.0592 35.3422 31.6028 35.4363C30.0604 35.9224 28.3606 35.9224 26.7867 35.7813C25.0082 35.6245 23.1983 35.2952 21.4985 34.6523C21.1837 35.6245 20.743 36.5496 20.1135 37.459C19.358 38.5409 20.3968 39.8267 21.467 39.905C21.4198 39.9207 21.3569 39.9364 21.3096 39.9521C20.6171 41.0497 21.5457 42.3354 22.6632 42.3981C24.2843 42.4922 25.5119 44.0916 26.7238 45.0323C28.1245 46.1143 29.604 46.663 31.3352 46.9296C35.3643 47.5725 39.5666 48.2153 43.6586 48.0899C47.2156 47.9801 50.867 47.1334 53.7472 44.9069C54.8331 44.0602 55.6358 42.9783 56.9894 42.602C58.1068 42.3041 58.9095 42.8372 59.1456 41.034C59.1928 40.7361 59.2085 40.4695 59.1456 40.1716C59.5548 39.9678 59.901 39.5758 60.0112 39.1367C60.562 37.067 60.0112 37.1611 59.0669 35.5147L59.0983 35.499Z" fill="white"/>
<path d="M26.9441 23.6924C29.1947 21.5443 32.311 20.4781 35.3486 19.992C38.8268 19.4432 42.4939 19.7254 45.8463 20.8073C47.7507 21.4188 49.5449 22.3126 51.1502 23.5043C51.7641 23.959 52.3464 22.9398 51.7483 22.4851C48.7265 20.2429 45.0121 19.0512 41.2821 18.6749C37.552 18.2986 33.9635 18.7062 30.6269 20.0547C28.9744 20.7289 27.4162 21.6227 26.1257 22.8614C25.5748 23.3788 26.409 24.2099 26.9598 23.6924H26.9441Z" fill="#231F20"/>
<path d="M22.6631 29.5565C18.0359 24.6644 16.9657 17.2165 19.9245 11.1954C20.255 10.5212 19.232 9.92537 18.9015 10.5996C16.4148 15.6799 16.4778 21.7323 19.1691 26.7341C19.8931 28.0669 20.7902 29.2899 21.8289 30.4032C22.3483 30.952 23.1825 30.121 22.6631 29.5722V29.5565Z" fill="#231F20"/>
<path d="M22.2223 14.0962C22.2695 13.9551 22.3167 13.8297 22.3639 13.7043C22.3639 13.7043 22.3954 13.6102 22.3639 13.6729C22.3325 13.7356 22.3797 13.6415 22.3954 13.6259C22.4269 13.5475 22.4584 13.4847 22.5056 13.422C22.5371 13.3593 22.5843 13.2966 22.6158 13.2495C22.6158 13.2495 22.6787 13.1711 22.6158 13.2339C22.5686 13.2966 22.6472 13.2025 22.6472 13.2025C22.663 13.1711 22.6945 13.1555 22.7102 13.1241C22.7102 13.1241 22.8046 13.0457 22.7417 13.0927C22.6945 13.1398 22.7417 13.0927 22.7574 13.0927C22.8046 13.0614 22.8361 13.0457 22.8833 13.0143C22.9148 13.0143 23.025 12.9516 22.9305 12.9987C22.8204 13.0457 22.962 12.9987 22.9935 12.983C23.0722 12.9516 23.1509 12.9359 23.2138 12.9203C23.2296 12.9203 23.2453 12.9203 23.2768 12.9203C23.3398 12.9046 23.1351 12.9203 23.1981 12.9203C23.2296 12.9203 23.2611 12.9203 23.2925 12.9203C23.3712 12.9203 23.4499 12.9203 23.5286 12.9203C23.6545 12.9203 23.5286 12.9516 23.4971 12.9203C23.5129 12.9359 23.5758 12.9203 23.6073 12.9359C23.686 12.9516 23.7647 12.983 23.8434 12.9987C23.8749 12.9987 23.9063 13.03 23.9378 13.03C24.0165 13.0614 23.7962 12.9673 23.9378 13.03C24.0165 13.0614 24.0795 13.1084 24.1582 13.1398C24.2369 13.1711 24.2998 13.2339 24.3785 13.2809C24.41 13.2966 24.4415 13.3279 24.4729 13.3436C24.4887 13.3436 24.5044 13.375 24.5202 13.3907C24.6146 13.4534 24.5202 13.375 24.4887 13.375C24.5359 13.375 24.6461 13.5161 24.6933 13.5475C24.772 13.6102 24.8507 13.6886 24.9136 13.7513C25.0553 13.8924 25.1812 14.0335 25.3071 14.1746C25.37 14.253 25.433 14.3158 25.496 14.3942C25.5274 14.4412 25.5589 14.4726 25.5904 14.5196C25.6061 14.5353 25.6219 14.5666 25.6376 14.5823C25.5904 14.5353 25.5904 14.5039 25.6376 14.5823C25.9052 14.9273 26.1412 15.2879 26.3616 15.6642C26.818 16.4012 27.2115 17.1695 27.5577 17.9535C27.6049 18.0476 27.6522 18.1573 27.6994 18.2514C27.7151 18.2984 27.7466 18.3455 27.7623 18.3925C27.7151 18.2828 27.7466 18.3455 27.7623 18.4082C27.841 18.5807 27.904 18.7688 27.9827 18.957C28.0929 19.2392 28.1873 19.5215 28.2817 19.8194C28.3761 20.1173 28.7067 20.3211 29.0057 20.227C29.3047 20.133 29.5093 19.8194 29.4149 19.5058C29.2103 18.8315 28.9427 18.1887 28.6594 17.5458C28.2975 16.7148 27.8882 15.8994 27.4161 15.1311C26.9439 14.3628 26.3931 13.5631 25.732 12.9203C25.134 12.3401 24.41 11.854 23.5601 11.76C23.1037 11.7129 22.6472 11.807 22.238 12.0108C21.5455 12.3558 21.2308 13.1398 20.9947 13.8297C20.9002 14.1276 21.1049 14.4882 21.4039 14.551C21.7344 14.6294 22.0177 14.4569 22.1279 14.1433L22.2223 14.0962Z" fill="#231F20"/>
<path d="M24.4573 25.6677C22.8205 27.4866 21.8447 29.8856 21.341 32.2532C21.1049 33.3508 21.0105 34.5111 20.5856 35.5617C20.381 36.0791 20.0662 36.4868 19.7042 36.9101C19.3422 37.3335 19.0117 37.8352 19.0746 38.4311C19.1691 39.6541 20.3967 39.8109 21.1994 40.4381L21.042 39.8736C20.6957 40.7674 20.4754 41.8806 21.2623 42.6176C21.8919 43.1977 22.8205 43.2134 23.6389 43.135C23.9537 43.1036 24.2212 42.8841 24.237 42.5392C24.237 42.2413 23.9694 41.912 23.6389 41.9433C23.1825 41.9904 22.5372 42.1001 22.1437 41.8022C21.6401 41.4416 22.0178 40.6262 22.1909 40.1715C22.2539 39.999 22.1909 39.7168 22.0335 39.607C21.5928 39.2621 21.1049 39.0583 20.6328 38.776C20.1606 38.4938 20.2236 38.1645 20.5541 37.7568C20.9633 37.2551 21.341 36.8004 21.6086 36.2045C21.8919 35.5773 22.0493 34.9031 22.1909 34.2289C22.726 31.4849 23.3713 28.6782 25.3072 26.5301C25.8108 25.9656 24.9767 25.1346 24.473 25.6991L24.4573 25.6677Z" fill="#231F20"/>
<path d="M24.3628 43.6841C26.2671 46.3026 29.5723 47.0552 32.6099 47.4159C33.5384 47.5256 34.467 47.604 35.4114 47.6667C35.7261 47.6824 36.0094 47.3845 36.0094 47.0709C36.0094 46.7416 35.7419 46.5064 35.4114 46.4751C33.8847 46.3653 32.358 46.2556 30.8471 45.9576C29.4779 45.6911 28.1243 45.2991 26.9439 44.5465C26.3458 44.1701 25.795 43.6684 25.3858 43.0882C25.1969 42.8374 24.8664 42.7119 24.5831 42.8844C24.3313 43.0255 24.1896 43.4332 24.3785 43.6841H24.3628Z" fill="#231F20"/>
<path d="M21.1835 9.45492C23.324 9.40788 25.2441 10.4427 26.7865 11.8853C28.3289 13.3278 29.6195 15.2251 30.674 17.138C31.1619 18.0318 31.6183 18.9569 32.0433 19.882C32.1692 20.1642 32.5941 20.2426 32.8459 20.0858C33.145 19.9133 33.1922 19.5684 33.0505 19.2862C32.2164 17.4203 31.2406 15.6014 30.0602 13.9237C28.7224 12.0264 27.0856 10.2076 24.9766 9.157C23.7962 8.56117 22.5056 8.24758 21.1835 8.26326C20.4281 8.27894 20.4281 9.45492 21.1835 9.43924V9.45492Z" fill="#231F20"/>
<path d="M58.1696 30.952C61.9941 26.9066 63.6152 21.2149 62.6236 15.7583C62.3246 14.159 61.8052 12.6223 61.097 11.1484C60.7665 10.4742 59.7434 11.07 60.074 11.7443C63.0328 17.7653 61.9626 25.2132 57.3354 30.1053C56.816 30.6541 57.6502 31.4851 58.1696 30.9363V30.952Z" fill="#231F20"/>
<path d="M55.5098 12.7318C53.3851 14.2841 51.7797 16.4636 50.6308 18.8156C50.3003 19.4898 50.017 20.164 49.7652 20.8696C49.655 21.1519 49.8911 21.5282 50.1744 21.5909C50.5049 21.6693 50.7882 21.4968 50.8984 21.1832C51.1187 20.5874 51.2918 20.1484 51.5751 19.5839C51.8584 19.0194 52.1417 18.4706 52.4565 17.9375C53.1018 16.8556 53.7786 15.9462 54.6442 15.0367C54.8803 14.8015 55.1164 14.5664 55.3682 14.3468C55.4941 14.2371 55.6357 14.1116 55.7616 14.0019C55.7931 13.9862 55.8089 13.9705 55.8403 13.9392C55.8403 13.9392 55.9662 13.8451 55.919 13.8764C55.8718 13.9078 55.9662 13.8451 55.9505 13.8451C55.9977 13.8137 56.0449 13.7667 56.0922 13.7353C56.344 13.5472 56.4699 13.2179 56.2968 12.9357C56.1551 12.6848 55.7459 12.528 55.4941 12.7318H55.5098Z" fill="#231F20"/>
<path d="M56.8947 42.9468C57.9178 43.0879 58.9408 42.6802 59.4916 41.7865C60.0425 40.8927 59.9638 39.7324 59.3815 38.9014L58.8778 39.7795C60.1684 39.7481 60.9711 38.5408 60.7822 37.3177C60.672 36.6592 60.2628 36.2045 59.8379 35.7184C59.4129 35.2323 59.3972 34.6679 59.3185 34.072C58.925 31.4535 57.9964 28.9134 56.6429 26.6241C56.2494 25.9813 55.2422 26.5614 55.6199 27.22C56.7846 29.1799 57.603 31.3281 58.0279 33.5703C58.1381 34.1034 58.1853 34.6522 58.2797 35.1853C58.3899 35.7654 58.6732 36.2045 59.0667 36.6435C59.3814 36.9885 59.6805 37.3491 59.6175 37.8509C59.5703 38.2429 59.2713 38.5878 58.8621 38.6035C58.4529 38.6192 58.0751 39.1052 58.3584 39.4816C58.6889 39.952 58.7834 40.5478 58.5158 41.0809C58.2797 41.5513 57.7131 41.8806 57.1938 41.8022C56.879 41.7551 56.5642 41.8806 56.4698 42.2098C56.3911 42.4921 56.5642 42.8841 56.879 42.9311L56.8947 42.9468Z" fill="#231F20"/>
<path d="M55.1478 42.7588C54.2349 44.3111 52.5981 45.1892 50.9455 45.8007C49.1198 46.4749 47.1997 46.7415 45.2638 46.4906C44.9491 46.4436 44.6658 46.7885 44.6658 47.0865C44.6658 47.4471 44.9333 47.6353 45.2638 47.6823C46.8849 47.9018 48.5532 47.7607 50.1271 47.3217C51.701 46.8826 53.2119 46.2554 54.471 45.2676C55.1478 44.7502 55.7301 44.1073 56.1551 43.3703C56.5485 42.7118 55.5255 42.1316 55.132 42.7745L55.1478 42.7588Z" fill="#231F20"/>
<path d="M57.43 8.56129C55.2738 9.0944 53.3222 10.2233 51.7798 11.7913C50.3948 13.2025 49.3403 14.8803 48.4589 16.6364C48.0183 17.5145 47.6248 18.4082 47.2156 19.302C47.0897 19.5842 47.1369 19.9291 47.4202 20.1016C47.672 20.2427 48.0969 20.18 48.2229 19.8978C48.9468 18.2984 49.6708 16.6991 50.5994 15.2095C51.6067 13.6102 52.8658 12.1363 54.4554 11.1014C55.4784 10.4429 56.5486 9.98815 57.7291 9.70592C58.4688 9.53344 58.154 8.38881 57.4143 8.57697L57.43 8.56129Z" fill="#231F20"/>
<path d="M59.0511 9.12573C59.0511 9.12573 59.0511 9.17277 59.0511 9.20413V9.04733C59.0511 9.20413 59.0039 9.36092 58.9409 9.50204L59.0039 9.36092C58.9409 9.50204 58.8622 9.62748 58.7678 9.75292L58.8622 9.62748C58.8622 9.62748 58.7363 9.7686 58.6734 9.83132C58.6104 9.87836 58.5789 9.94108 58.5475 10.0195C58.516 10.0822 58.5002 10.1606 58.5002 10.239C58.5002 10.3174 58.5002 10.3958 58.5475 10.4585C58.5789 10.5369 58.6104 10.5996 58.6734 10.6467L58.7993 10.7407C58.8937 10.7878 58.9881 10.8191 59.0983 10.8191H59.2557C59.3501 10.7721 59.4446 10.7251 59.5233 10.6467C59.5862 10.5839 59.6492 10.5212 59.6964 10.4585C59.7751 10.3488 59.8695 10.2547 59.9325 10.1292C59.9954 10.0038 60.0426 9.89404 60.1056 9.7686C60.1371 9.6902 60.1686 9.6118 60.1843 9.51772C60.2158 9.3766 60.2472 9.23549 60.2472 9.07869C60.2472 9.00029 60.2472 8.92189 60.2 8.85917C60.1686 8.78077 60.1371 8.71805 60.0741 8.67101C60.0269 8.60829 59.9639 8.57693 59.8853 8.54557C59.8223 8.51421 59.7436 8.49854 59.6649 8.49854H59.5075C59.4131 8.54557 59.3187 8.59261 59.24 8.67101L59.1455 8.79645C59.0983 8.89053 59.0668 8.98461 59.0668 9.09437L59.0511 9.12573Z" fill="#231F20"/>
<path d="M31.9963 34.2759C32.8481 34.2759 33.5386 33.5879 33.5386 32.7393C33.5386 31.8906 32.8481 31.2026 31.9963 31.2026C31.1444 31.2026 30.4539 31.8906 30.4539 32.7393C30.4539 33.5879 31.1444 34.2759 31.9963 34.2759Z" fill="#231F20"/>
<path d="M48.0026 34.2759C48.8544 34.2759 49.545 33.5879 49.545 32.7393C49.545 31.8906 48.8544 31.2026 48.0026 31.2026C47.1508 31.2026 46.4602 31.8906 46.4602 32.7393C46.4602 33.5879 47.1508 34.2759 48.0026 34.2759Z" fill="#231F20"/>
<path d="M39.9915 36.5026C41.6343 36.5026 42.9661 35.6812 42.9661 34.668C42.9661 33.6548 41.6343 32.8335 39.9915 32.8335C38.3486 32.8335 37.0168 33.6548 37.0168 34.668C37.0168 35.6812 38.3486 36.5026 39.9915 36.5026Z" fill="#231F20"/>
</svg>
