<svg width="80" height="76" viewBox="0 0 80 76" fill="none" xmlns="http://www.w3.org/2000/svg">
<path d="M47.5619 43.9818C44.304 40.987 39.362 40.1089 35.1912 41.5044C30.7214 42.994 28.943 46.7572 28.5023 51.2573C28.2977 53.4524 28.0773 55.6319 27.8727 57.8271C27.794 58.7209 27.6996 59.6303 27.9829 60.477C28.2662 61.3237 29.0216 62.0763 29.903 62.092C30.3594 62.092 30.8159 61.9039 31.2565 61.9509C31.8861 62.0136 32.4527 62.5467 33.0822 62.4056C33.5859 62.2959 33.9479 61.9666 34.4672 62.0136C35.0653 62.0607 35.3644 62.7663 36.23 62.6251C36.8281 62.5311 37.3947 62.2959 37.9927 62.3272C38.6695 62.3586 39.3148 62.7192 39.9915 62.6565C40.3221 62.6251 40.6211 62.4997 40.9359 62.4213C41.9274 62.1704 42.9347 62.484 43.942 62.3743C44.4299 62.3272 44.9492 61.9823 45.4214 61.9979C45.9093 62.0136 46.2556 62.5467 46.7907 62.437C47.0425 62.3899 47.2471 62.2018 47.4832 62.0763C48.9784 61.2924 51.292 62.1077 51.7169 59.7714C51.8271 59.1129 51.7169 58.4386 51.591 57.7801C51.1346 55.2243 50.8355 52.6998 50.4893 50.144C50.3476 49.0621 50.1745 47.9645 49.7496 46.9453C49.2617 45.8007 48.4747 44.8129 47.5619 43.9662V43.9818Z" fill="#5C564D"/>
<path d="M46.7908 57.8277C46.7908 57.5925 46.8065 57.3417 46.7908 57.0908C46.7908 56.9497 46.775 56.8242 46.7593 56.6831C46.7593 56.6204 46.7436 56.5577 46.7278 56.5106C46.7121 56.4009 46.6806 56.2911 46.6491 56.1657C46.6334 56.103 46.6176 56.0402 46.5862 55.9775C46.5862 55.9462 46.5704 55.9148 46.5547 55.8834C46.5232 55.805 46.5389 55.8207 46.5862 55.9618C46.6019 55.9148 46.4603 55.711 46.4288 55.6796C46.4288 55.6796 46.4288 55.6796 46.4288 55.6639C46.3343 55.5855 46.2242 55.4914 46.1612 55.3817C46.1297 55.3503 46.0983 55.3503 46.0668 55.319C46.0668 55.319 46.0668 55.319 46.0196 55.319C45.9881 55.319 45.9566 55.3033 45.9251 55.2876C45.8779 55.2876 45.8307 55.2562 45.7835 55.2562C45.752 55.2562 45.7677 55.2562 45.752 55.2562C45.6733 55.2562 45.5946 55.2562 45.5159 55.2562C45.3743 55.2562 45.2326 55.2092 45.1225 55.1465C44.4772 55.6953 43.8004 56.2127 43.0764 56.6517C42.4626 57.0124 41.7229 57.2946 41.0146 57.3103C41.1091 57.8277 41.2193 58.3452 41.3609 58.8469C41.4396 59.1448 41.534 59.4428 41.6442 59.725C41.6757 59.7877 41.6914 59.8661 41.7229 59.9288C41.7229 59.9602 41.7229 59.9602 41.7229 59.9445C41.7229 59.9445 41.7229 59.9602 41.7386 59.9915C41.8016 60.117 41.8488 60.2581 41.9118 60.3835C42.2108 60.9951 42.5728 61.5595 42.9348 62.124C43.6273 62.4062 44.3513 62.4533 45.028 61.9829C45.9094 61.3714 46.1612 60.3365 46.4288 59.3644C46.5389 58.988 46.6334 58.6117 46.7278 58.2354C46.7278 58.11 46.7593 57.9845 46.7593 57.8591L46.7908 57.8277Z" fill="#F39B4A"/>
<path d="M34.4828 61.9987C34.829 62.03 35.0808 62.2652 35.3956 62.4377C36.5603 62.2652 37.6462 61.6067 38.3702 60.6659C38.984 59.8505 39.3618 58.7686 38.685 57.969C38.4804 57.7181 38.2128 57.5456 37.9295 57.3888C37.6777 57.2634 37.8036 57.3261 37.5676 57.232C37.0639 57.0282 36.5445 56.84 36.0252 56.6362C34.9392 56.1971 33.806 55.7581 32.8145 55.1152C32.9561 55.7581 33.0191 56.4167 33.0663 57.0595C33.145 58.2198 33.1922 59.3801 33.4597 60.5248C33.5857 61.0579 33.7745 61.5753 34.0263 62.0614C34.168 62.0143 34.3254 61.983 34.4985 61.9987H34.4828Z" fill="#F39B4A"/>
<path d="M30.926 51.7757C31.0204 53.7827 32.3268 55.6643 34.1682 56.4796C34.719 56.7305 35.2856 56.8873 35.8995 56.9343C36.2142 56.9657 36.4975 56.6364 36.4975 56.3385C36.4975 55.9936 36.23 55.774 35.8995 55.7427C35.8522 55.7427 35.7893 55.7427 35.7421 55.727C35.9467 55.7427 35.7421 55.727 35.7106 55.727C35.6004 55.7113 35.4902 55.68 35.3801 55.6486C35.1755 55.6016 34.9709 55.5232 34.7663 55.4448C34.6876 55.4134 34.9079 55.5075 34.7977 55.4448C34.7663 55.4448 34.7505 55.4291 34.719 55.4134C34.6718 55.3977 34.6246 55.3664 34.5931 55.3507C34.483 55.3036 34.3885 55.2409 34.2784 55.1782C34.1997 55.1312 34.1052 55.0841 34.0265 55.0214C33.9793 54.99 33.9321 54.9587 33.9006 54.9273C33.8692 54.9116 33.8534 54.896 33.8219 54.8646C33.7275 54.8019 33.9321 54.943 33.8377 54.8646C33.6646 54.7235 33.5072 54.5824 33.3498 54.4256C33.2711 54.3472 33.2081 54.2688 33.1294 54.1904C33.098 54.159 33.0665 54.112 33.035 54.0806C33.0193 54.0649 33.0035 54.0336 32.9878 54.0179C32.9091 53.9238 33.0665 54.1277 32.9878 54.0336C32.8619 53.8611 32.736 53.6886 32.6258 53.5005C32.5786 53.4064 32.5156 53.3123 32.4684 53.2182C32.4527 53.1712 32.4212 53.1241 32.4055 53.0771C32.4055 53.0614 32.3897 53.0301 32.374 53.0144C32.4527 53.1712 32.4055 53.0771 32.374 53.0301C32.2795 52.7949 32.2008 52.5597 32.1536 52.3245C32.1222 52.2147 32.1064 52.0893 32.0907 51.9795C32.1222 52.1834 32.0907 51.9638 32.0907 51.9168C32.0907 51.8541 32.0907 51.7914 32.0907 51.7286C32.0907 51.4151 31.8231 51.1328 31.4926 51.1328C31.1778 51.1328 30.8945 51.3994 30.8945 51.7286L30.926 51.7757Z" fill="#231F20"/>
<path d="M35.003 53.6721C34.9716 54.5344 35.3493 55.3341 35.9002 55.977C36.451 56.6199 37.1593 57.0432 37.899 57.3725C38.3554 57.5763 38.8276 57.7488 39.2997 57.9213C39.4414 57.9683 39.6302 57.9213 39.7561 57.8586C39.8821 57.7958 39.9922 57.6547 40.0237 57.5136C40.1024 57.1843 39.9293 56.9021 39.6145 56.7923C39.2368 56.6512 38.8748 56.5258 38.5128 56.369L38.6544 56.4317C38.3711 56.3063 38.1036 56.1808 37.836 56.0397C37.7101 55.9613 37.5842 55.8986 37.4583 55.8045C37.3953 55.7575 37.3324 55.7104 37.2694 55.6634C37.175 55.585 37.3796 55.7418 37.2694 55.6634C37.2379 55.6477 37.2222 55.6164 37.1907 55.6007C37.0806 55.5066 36.9861 55.4125 36.8917 55.3184C36.8445 55.2714 36.813 55.2244 36.7658 55.1773C36.7343 55.146 36.7186 55.1146 36.6871 55.0832C36.6556 55.0519 36.6084 54.9578 36.7028 55.1146C36.5454 54.8951 36.4038 54.6756 36.2936 54.409L36.3566 54.5501C36.2621 54.3463 36.2149 54.1268 36.1834 53.8916V54.0484C36.1834 53.9229 36.1834 53.7975 36.1834 53.6564C36.1834 53.3428 35.9002 53.0605 35.5854 53.0605C35.2549 53.0605 35.003 53.3114 34.9873 53.6564L35.003 53.6721Z" fill="#231F20"/>
<path d="M41.5023 57.7026C43.2179 57.342 44.839 56.3542 45.9407 55.0057C46.2712 54.598 46.5702 54.1747 46.8063 53.72C46.9479 53.4534 46.885 53.0614 46.6017 52.9203C46.3341 52.7792 45.9564 52.8419 45.799 53.1241C45.7046 53.3123 45.5944 53.4848 45.4842 53.6572C45.437 53.7356 45.3741 53.8297 45.3111 53.9081C45.2796 53.9395 45.2639 53.9865 45.2324 54.0179C45.2324 54.0336 45.2009 54.0649 45.1852 54.0806C45.1065 54.1904 45.2639 53.9708 45.1852 54.0806C44.9334 54.3942 44.6501 54.6921 44.351 54.9743C44.2724 55.0371 44.2094 55.0998 44.1307 55.1782C44.0992 55.2095 44.0678 55.2409 44.0363 55.2566C44.0205 55.2723 44.0048 55.2879 43.9733 55.3036C43.9733 55.3036 43.9418 55.3193 43.9261 55.335C43.8946 55.3663 43.9104 55.335 43.9733 55.3036C43.9576 55.3036 43.8789 55.382 43.8474 55.3977C43.8002 55.4291 43.7687 55.4604 43.7215 55.4918C43.6428 55.5545 43.5641 55.6015 43.4697 55.6643C43.1234 55.8838 42.7457 56.0562 42.3837 56.2444C42.3837 56.2444 42.5096 56.1974 42.4152 56.2287C42.3837 56.2287 42.3522 56.2444 42.3208 56.2601C42.2735 56.2758 42.2106 56.3071 42.1634 56.3228C42.0532 56.3542 41.9588 56.4012 41.8486 56.4326C41.6282 56.511 41.3922 56.558 41.1561 56.605C40.857 56.6678 40.6524 57.0441 40.7469 57.3263C40.857 57.6399 41.1561 57.8124 41.4709 57.734L41.5023 57.7026Z" fill="#231F20"/>
<path d="M32.248 56.6993C32.4054 57.1697 32.5313 57.6558 32.6415 58.1575C32.673 58.283 32.6887 58.4084 32.7045 58.5339C32.7045 58.5966 32.7202 58.6436 32.7359 58.7063C32.7359 58.7063 32.7359 58.6123 32.7359 58.6907C32.7359 58.7377 32.7359 58.7847 32.7517 58.8318C32.7832 59.0827 32.7989 59.3335 32.8146 59.5844C32.8304 60.0705 32.8146 60.5722 32.9248 61.0583C33.035 61.5444 33.334 61.9834 33.7432 62.2813C34.3885 62.7517 35.2856 62.8458 36.0568 62.7517C36.6077 62.689 37.1428 62.5949 37.6307 62.3127C38.0399 62.0775 38.3862 61.7169 38.638 61.3249C39.2675 60.3527 39.3147 59.1611 39.3462 58.0478C39.3462 57.7342 39.0629 57.452 38.7481 57.452C38.4334 57.452 38.1658 57.7028 38.1501 58.0478C38.1501 58.283 38.1501 58.5182 38.1343 58.7377C38.1343 58.8475 38.1343 58.9572 38.1186 59.067C38.1186 59.1297 38.1186 59.1767 38.1186 59.2395C38.1186 59.2708 38.1186 59.3022 38.1186 59.3179C38.1186 59.3649 38.1186 59.3806 38.1186 59.3179C38.0871 59.5374 38.0399 59.7726 37.9769 59.9921C37.9455 60.0862 37.9297 60.1646 37.8825 60.243C37.8825 60.243 37.8825 60.3057 37.851 60.3057C37.851 60.3057 37.8983 60.2116 37.851 60.2743C37.8353 60.3214 37.8038 60.3684 37.7881 60.4154C37.7409 60.4938 37.7094 60.5722 37.6622 60.6506C37.6307 60.682 37.615 60.729 37.5835 60.7604C37.5835 60.7761 37.552 60.7918 37.552 60.8231C37.552 60.8231 37.489 60.9172 37.5363 60.8545C37.5835 60.7918 37.489 60.9015 37.489 60.9172C37.4576 60.9486 37.4261 60.9799 37.3946 61.0113C37.3631 61.0426 37.3317 61.074 37.3002 61.1054C37.2844 61.1054 37.2687 61.1367 37.253 61.1524C37.19 61.1994 37.253 61.1681 37.253 61.1524C37.2215 61.2151 37.0798 61.2621 37.0326 61.2935C36.9854 61.3249 36.9382 61.3405 36.891 61.3719C36.891 61.3719 36.8123 61.4033 36.8595 61.3719C36.9067 61.3405 36.8123 61.3719 36.8123 61.3876C36.6077 61.466 36.3873 61.513 36.1827 61.5444C36.0726 61.5601 36.2457 61.5444 36.1355 61.5444C36.0883 61.5444 36.0411 61.5444 36.0096 61.5444C35.9152 61.5444 35.8365 61.5444 35.742 61.5601C35.5689 61.5601 35.3958 61.5601 35.2227 61.5444C35.2069 61.5444 35.1755 61.5444 35.1597 61.5444C35.081 61.5444 35.2699 61.5601 35.1912 61.5444C35.144 61.5444 35.1125 61.5444 35.0653 61.5287C34.9866 61.513 34.8922 61.4973 34.8135 61.466C34.782 61.466 34.7348 61.4346 34.7033 61.4346C34.5931 61.4033 34.7977 61.4817 34.7033 61.4346C34.6246 61.4033 34.5459 61.3562 34.4829 61.3092C34.4672 61.3092 34.357 61.2465 34.4357 61.2778C34.4515 61.2935 34.4987 61.3092 34.4357 61.2778C34.4357 61.2778 34.4043 61.2465 34.3885 61.2465C34.357 61.2151 34.3256 61.1994 34.3098 61.1681C34.3098 61.1681 34.2783 61.1367 34.2783 61.121C34.2154 61.0583 34.2941 61.121 34.2941 61.1524C34.2941 61.121 34.2469 61.074 34.2311 61.0583C34.1997 61.0113 34.1839 60.9642 34.1682 60.9329C34.2154 61.027 34.1682 60.9329 34.1682 60.8858C34.1524 60.8388 34.1367 60.7761 34.121 60.7134C34.121 60.6663 34.1052 60.6193 34.0895 60.5722C34.0895 60.5095 34.0895 60.6036 34.0895 60.6036C34.0895 60.5722 34.0895 60.5566 34.0895 60.5252C34.0895 60.4154 34.0737 60.3057 34.0737 60.1959C34.0737 59.9764 34.0737 59.7569 34.058 59.5374C34.0108 58.4555 33.8062 57.3736 33.4599 56.3544C33.3655 56.0565 33.0507 55.8369 32.7359 55.9467C32.4526 56.0408 32.2166 56.3544 32.3267 56.668L32.248 56.6993Z" fill="#231F20"/>
<path d="M46.3658 56.3853C46.051 57.2947 45.8621 58.2511 45.7992 59.2076C45.7677 59.6467 45.7834 60.0857 45.7362 60.5247C45.7362 60.5718 45.7205 60.6658 45.7362 60.5718C45.7362 60.6188 45.7205 60.6658 45.7048 60.7129C45.689 60.7599 45.689 60.807 45.6733 60.854C45.6733 60.8697 45.6733 60.901 45.6575 60.9167C45.6575 60.9167 45.6103 61.0265 45.6575 60.9638C45.7048 60.901 45.6575 60.9638 45.6575 60.9794C45.6575 60.9951 45.6418 61.0265 45.6261 61.0422C45.6103 61.0735 45.5788 61.1049 45.5631 61.1519C45.5316 61.2146 45.5946 61.1049 45.5946 61.1049C45.5946 61.1049 45.5631 61.1362 45.5631 61.1519C45.5316 61.1833 45.5001 61.2146 45.4687 61.246L45.39 61.3244C45.39 61.3244 45.4844 61.2617 45.4372 61.293C45.4215 61.293 45.4057 61.3087 45.39 61.3244C45.327 61.3714 45.2483 61.4028 45.1696 61.4498L45.1224 61.4812C45.1224 61.4812 45.2326 61.4342 45.1696 61.4655C45.1382 61.4655 45.0909 61.4969 45.0595 61.4969C44.9808 61.5282 44.8863 61.5439 44.8076 61.5596C44.7604 61.5596 44.7132 61.5753 44.666 61.5909C44.603 61.5909 44.7132 61.5909 44.7132 61.5909C44.6975 61.5909 44.666 61.5909 44.6503 61.5909C44.5558 61.5909 44.4771 61.5909 44.3827 61.6066C44.2096 61.6066 44.0364 61.6066 43.8633 61.6066C43.8161 61.6066 43.7846 61.6066 43.7374 61.6066C43.7059 61.6066 43.6902 61.6066 43.6587 61.6066C43.6587 61.6066 43.7532 61.6066 43.6902 61.6066C43.58 61.5909 43.4699 61.5753 43.3597 61.5439C43.2652 61.5125 43.1551 61.4969 43.0606 61.4655C43.0292 61.4655 42.919 61.4028 43.0134 61.4498C42.9505 61.4185 42.9033 61.4028 42.856 61.3714C42.7773 61.3244 42.6987 61.2774 42.62 61.2303C42.557 61.199 42.6514 61.2617 42.6514 61.2617C42.6514 61.2617 42.6042 61.2303 42.6042 61.2146C42.557 61.1833 42.5255 61.1519 42.4941 61.1049C42.4626 61.0578 42.3209 60.9638 42.3209 60.901C42.3209 60.901 42.3839 60.9951 42.3367 60.9324C42.3367 60.9167 42.3052 60.901 42.2894 60.8854C42.258 60.8383 42.2265 60.7913 42.195 60.7599C42.1321 60.6658 42.0848 60.5718 42.0376 60.4777C42.0219 60.4306 41.9747 60.3836 41.9747 60.3366C41.9747 60.3366 42.0062 60.4306 41.9904 60.3679C41.9904 60.3366 41.9747 60.3052 41.9589 60.2895C41.8802 60.07 41.8173 59.8348 41.7701 59.5996C41.7701 59.5369 41.7543 59.4742 41.7386 59.4115C41.7386 59.4115 41.7386 59.5055 41.7386 59.4271C41.7386 59.3958 41.7386 59.3487 41.7386 59.3174C41.7386 59.1919 41.7229 59.0508 41.7071 58.9254C41.6914 58.6588 41.6914 58.3923 41.6756 58.11C41.6756 57.7964 41.4081 57.5142 41.0776 57.5142C40.7471 57.5142 40.4795 57.7651 40.4795 58.11C40.4952 59.1292 40.5582 60.1798 41.0303 61.1206C41.235 61.5282 41.534 61.8889 41.896 62.1711C42.3052 62.4847 42.7931 62.6729 43.2967 62.7513C44.1466 62.8924 45.0752 62.908 45.8464 62.4847C46.2556 62.2652 46.5861 61.9045 46.7592 61.4812C46.9639 61.0108 46.9796 60.509 46.9796 60.0073C46.9796 59.7251 46.9953 59.4428 47.0268 59.1606C47.0268 59.0195 47.0583 58.8783 47.074 58.7529C47.074 58.6902 47.074 58.7529 47.074 58.7686C47.074 58.7372 47.074 58.6902 47.0898 58.6588C47.0898 58.5804 47.1055 58.5177 47.1212 58.4393C47.2157 57.8748 47.3573 57.3104 47.5462 56.7616C47.6406 56.4637 47.436 56.103 47.137 56.0403C46.8065 55.9619 46.5232 56.1344 46.413 56.448L46.3658 56.3853Z" fill="#231F20"/>
<path d="M48.3017 57.4981C48.3017 58.188 48.3489 58.8623 48.3489 59.5522C48.3489 59.6933 48.3489 59.8501 48.3489 59.9912C48.3489 60.0539 48.3489 60.1323 48.3332 60.195C48.3332 60.195 48.3332 60.2264 48.3332 60.2421C48.3332 60.3362 48.3332 60.1637 48.3332 60.1637L48.3174 60.2734C48.3017 60.3989 48.2702 60.5243 48.223 60.6498C48.223 60.6811 48.2073 60.7125 48.1915 60.7438C48.1915 60.7438 48.1915 60.7595 48.1915 60.7752C48.1758 60.8379 48.2545 60.6341 48.223 60.6968C48.1915 60.7595 48.16 60.8066 48.1286 60.8693C48.0971 60.932 48.0499 60.9947 48.0027 61.0574C47.9712 61.0888 48.0499 60.9947 48.0499 60.9947C48.0499 60.9947 48.0027 61.0418 48.0027 61.0574C47.9869 61.0888 47.9554 61.1045 47.9397 61.1358C47.8925 61.1829 47.8295 61.277 47.7666 61.2926C47.7666 61.2926 47.8767 61.2142 47.8295 61.2456C47.8138 61.2456 47.7981 61.277 47.7666 61.2926C47.7351 61.324 47.6879 61.3397 47.6407 61.371C47.3731 61.5278 47.2472 61.9041 47.4361 62.1707C47.6249 62.4373 47.9554 62.547 48.2387 62.3745C48.8368 62.0139 49.246 61.4494 49.4191 60.7752C49.5923 60.101 49.5451 59.4267 49.5136 58.7682C49.5136 58.3448 49.4821 57.9372 49.4821 57.5138C49.4821 57.2002 49.2145 56.918 48.884 56.918C48.5535 56.918 48.3017 57.1688 48.286 57.5138L48.3017 57.4981Z" fill="#231F20"/>
<path d="M39.3312 41.8344C40.8106 41.6306 42.4632 41.9756 43.8482 42.4773C45.4063 43.0418 46.5867 44.1237 47.6097 45.3938C48.1134 46.0209 48.6013 46.7109 48.8846 47.4635C49.2623 48.4513 49.4354 49.5175 49.6086 50.5524C49.9391 52.6378 49.8919 54.833 50.4585 56.8714C50.6945 57.6867 50.9306 58.5021 50.9464 59.3645C50.9464 59.9603 50.8991 60.7756 50.2539 61.0265C49.5614 61.2931 49.8604 62.4377 50.5686 62.1555C52.2527 61.4969 52.2684 59.5997 51.9851 58.0787C51.7962 57.0909 51.45 56.1344 51.3083 55.1309C51.1352 53.9236 51.088 52.7005 50.9306 51.4932C50.6316 49.3451 50.3326 47.1656 49.0577 45.3467C47.9875 43.8414 46.6182 42.3989 44.9027 41.6463C43.1872 40.8936 40.9837 40.4389 39.0321 40.7212C38.2767 40.8309 38.6072 41.9599 39.3469 41.8501L39.3312 41.8344Z" fill="#231F20"/>
<path d="M40.5585 40.7052C36.7182 40.1093 32.4845 40.6581 30.0922 44.045C29.3997 45.0328 28.9118 46.2088 28.7072 47.4004C28.5026 48.5921 28.4554 49.7054 28.298 50.85C28.0934 52.3396 27.8888 53.8448 27.6212 55.3344C27.4009 56.6045 26.9287 57.8902 26.9287 59.1917C26.9287 60.4931 27.6212 61.5279 28.7387 62.2335C29.384 62.6412 29.982 61.622 29.3367 61.2143C28.4239 60.6342 28.0462 59.8972 28.1249 58.8153C28.2035 57.7334 28.5498 56.7299 28.7387 55.6951C29.1951 53.1236 29.4941 50.5207 29.7932 47.9179C29.8246 47.6356 29.982 46.9771 30.1079 46.5694C30.2811 46.052 30.5014 45.5816 30.7847 45.1112C31.4615 43.9822 32.453 43.1042 33.6177 42.524C35.6322 41.5205 38.0245 41.5205 40.2122 41.8655C40.9519 41.9752 41.2824 40.8463 40.527 40.7365L40.5585 40.7052Z" fill="#231F20"/>
<path d="M29.7455 57.3412C29.5094 58.5956 29.6825 59.8814 30.2334 61.0417C30.375 61.3396 30.5482 61.6218 30.737 61.8727C30.8315 61.9981 30.9259 62.0922 31.0833 62.1392C31.2249 62.1706 31.4138 62.1549 31.5397 62.0765C31.6656 61.9981 31.7758 61.8727 31.8073 61.7316C31.8387 61.5904 31.8387 61.4023 31.7443 61.2769C31.6184 61.1044 31.4925 60.9162 31.3981 60.7281C31.3508 60.634 31.3036 60.5399 31.2564 60.4458C31.2249 60.3988 31.2092 60.3517 31.1935 60.289C31.1935 60.2733 31.1462 60.1793 31.1935 60.2733C31.2407 60.3674 31.1935 60.2733 31.1935 60.2577C31.0361 59.85 30.9259 59.4266 30.8629 59.0033V59.1601C30.8315 58.7054 30.8157 58.2507 30.8787 57.7959V57.9527C30.8787 57.8587 30.8787 57.7489 30.9102 57.6548C30.9416 57.498 30.9416 57.3412 30.8472 57.2001C30.7685 57.0747 30.6426 56.9649 30.501 56.9336C30.2177 56.8708 29.8399 57.0276 29.777 57.3412H29.7455Z" fill="#231F20"/>
<path d="M22.2077 30.6709C22.0818 30.9061 21.9559 31.1413 21.8457 31.4235C21.2004 32.9758 20.9014 34.6535 20.9801 36.3313C20.9958 36.6606 21.0588 37.0212 21.3106 37.2093C21.6411 37.4289 22.0976 37.2564 22.3966 37.0055C22.6956 36.7546 22.9474 36.4097 23.3094 36.2529C22.3809 38.6676 21.9244 42.1328 22.5697 44.6573C22.7114 45.206 22.9789 45.8332 23.5298 45.9744C24.1436 46.1312 24.7889 45.4256 24.5685 44.8297C25.025 46.0684 26.5831 47.5737 27.4645 48.5772C28.5662 49.8159 30.6594 50.5058 31.8398 49.3455C32.2648 50.2393 33.697 50.3961 34.2951 49.6121C37.2225 51.3525 41.0313 51.525 44.1003 50.0511C45.0918 50.4588 46.3667 50.0041 46.8703 49.0319C47.0277 49.7689 48.0193 49.9727 48.759 49.8629C51.1198 49.5337 53.1973 47.6991 53.8111 45.3942C53.7639 45.99 54.5351 46.382 55.1017 46.1782C55.6683 45.9744 56.0303 45.4412 56.2978 44.9081C57.793 41.9603 57.8402 38.3226 56.408 35.3435C56.7385 35.3435 57.069 35.3748 57.3995 35.3905C58.6744 33.4462 56.8329 29.8555 55.6683 28.2562C55.5424 28.0837 55.4007 27.8955 55.4007 27.676C55.4007 27.5506 55.4479 27.4252 55.4951 27.2997C56.5496 24.493 56.408 21.4511 55.9831 18.5033C55.3063 13.721 50.2069 17.9075 48.5544 19.5853C47.8146 20.3379 46.7602 22.5174 45.7057 22.7055C45.2335 22.7839 44.7456 22.6585 44.2577 22.5487C42.5107 22.1724 40.5276 22.047 38.7491 22.1254C37.254 22.2038 33.7127 23.2073 32.3749 22.5644C32.1861 22.4703 32.0759 22.2822 31.9815 22.094C30.9112 20.0556 30.0141 19.0051 28.2042 17.5626C27.2599 16.8099 24.8676 15.2419 23.7029 16.2455C23.1993 16.6688 22.9632 17.3117 22.7901 17.9389C21.893 21.1062 21.893 24.5401 22.8215 27.6917C23.215 29.0088 22.7114 29.6517 22.192 30.6552L22.2077 30.6709Z" fill="#F39B4A"/>
<path d="M57.3524 35.3278C58.4227 34.6693 57.4469 31.6117 57.0849 30.7964C56.4868 29.6517 55.7786 28.5698 54.9916 27.5506C54.9602 27.5193 54.9444 27.5036 54.9129 27.4722C54.3149 26.8764 53.7168 26.2806 53.1502 25.6534C53.0715 25.5593 52.9928 25.4652 52.8984 25.3555C52.2846 24.9008 51.6708 24.5558 50.994 24.352C50.6005 24.3049 50.2543 24.0384 50.2543 23.5366C50.27 22.345 50.8209 21.0906 51.6708 20.2439C52.379 19.5383 53.4335 19.1149 54.4093 19.4599C55.2277 19.7421 55.7628 20.4163 56.0776 21.1846C56.1563 21.3571 56.1878 21.5296 56.2507 21.7021C56.2193 20.6359 56.1248 19.5539 55.9674 18.4877C55.2907 13.7054 50.1913 17.8919 48.5387 19.5696C47.799 20.3223 46.7445 22.5018 45.69 22.6899C45.2179 22.7683 44.73 22.6429 44.2421 22.5331C42.4951 22.1568 40.512 22.0314 38.7335 22.1098C37.2383 22.1882 33.6971 23.1917 32.3593 22.5488C32.1705 22.4547 32.0603 22.2666 31.9659 22.0784C30.8956 20.04 29.9985 18.9895 28.1886 17.5469C27.2442 16.7943 24.8519 15.2263 23.6873 16.2298C23.1836 16.6532 22.9476 17.2961 22.7744 17.9232C22.743 18.0487 22.7272 18.1741 22.6957 18.2996C23.8604 17.4685 25.3084 17.9546 26.4416 18.7543C27.3859 19.4285 28.1886 20.5731 28.4089 21.7334C28.5506 22.5331 28.7866 23.3955 28.0627 23.9757C27.984 24.0384 27.921 24.0854 27.8423 24.1481C27.8108 24.1638 27.6692 24.2736 27.7636 24.1952C27.5747 24.3363 27.3859 24.5088 27.2285 24.6812C26.7091 25.23 26.2212 25.8102 25.6861 26.359C24.6946 27.3938 23.6873 28.3974 22.8374 29.5577C22.7902 29.6361 22.7272 29.6831 22.6643 29.7458C22.5226 30.0437 22.3652 30.326 22.1921 30.6552C22.0662 30.8904 21.9403 31.1256 21.8301 31.4079C21.1848 32.9602 20.8858 34.6379 20.9645 36.3157C20.9802 36.6449 21.0432 37.0056 21.295 37.1937C21.6255 37.4132 22.0819 37.2408 22.381 36.9899C22.68 36.739 22.9003 36.4725 23.2466 36.3C22.7902 36.5352 22.4911 39.8123 22.2708 40.361C23.1522 38.1032 25.0723 35.6101 27.1183 34.3086C28.5191 33.4149 30.2189 32.8818 31.8557 33.1327C34.0276 33.4776 35.8848 35.1867 36.9078 37.0683C37.2698 37.7582 37.4272 39.5927 37.9466 40.0161C38.5132 40.4708 40.3703 39.9847 41.0628 40.0161C41.7239 36.5509 43.0617 33.0543 47.138 32.725C49.5618 32.5368 51.9698 33.6501 53.764 35.2808C55.5582 36.9115 56.8331 39.0439 57.9348 41.2078C57.8876 40.314 58.0135 39.3262 57.7459 38.4638C57.62 38.0561 56.9118 35.4846 56.5183 35.4062C56.8803 35.4689 57.1478 35.4376 57.3367 35.3121L57.3524 35.3278Z" fill="#5C564D"/>
<path d="M41.5194 23.5361C40.7167 22.8148 36.7663 20.0238 35.6646 20.7608C35.4442 20.9176 35.3655 21.1998 35.3183 21.4664C35.2081 22.0465 35.098 22.658 35.2868 23.2225C35.4757 23.787 36.0266 24.273 36.6089 24.1633C36.9394 24.1006 37.1912 23.8654 37.4273 23.6302C38.6549 22.3758 39.6307 20.6981 41.3148 20.212C41.4879 20.1649 41.6768 20.1179 41.8499 20.1806C42.1017 20.259 42.2591 20.4942 42.3693 20.7137C42.81 21.5604 42.9673 22.5483 42.7942 23.4891C42.7785 23.5988 42.747 23.7243 42.6683 23.8183C42.385 24.1633 41.8342 23.8497 41.5036 23.5361H41.5194Z" fill="#EF4668"/>
<path d="M31.5248 40.1885C32.3767 40.1885 33.0672 39.5005 33.0672 38.6519C33.0672 37.8032 32.3767 37.1152 31.5248 37.1152C30.673 37.1152 29.9824 37.8032 29.9824 38.6519C29.9824 39.5005 30.673 40.1885 31.5248 40.1885Z" fill="#231F20"/>
<path d="M47.5307 40.1885C48.3825 40.1885 49.0731 39.5005 49.0731 38.6519C49.0731 37.8032 48.3825 37.1152 47.5307 37.1152C46.6788 37.1152 45.9883 37.8032 45.9883 38.6519C45.9883 39.5005 46.6788 40.1885 47.5307 40.1885Z" fill="#231F20"/>
<path d="M39.5205 42.4308C41.1634 42.4308 42.4951 41.6094 42.4951 40.5963C42.4951 39.5831 41.1634 38.7617 39.5205 38.7617C37.8777 38.7617 36.5459 39.5831 36.5459 40.5963C36.5459 41.6094 37.8777 42.4308 39.5205 42.4308Z" fill="#231F20"/>
<path d="M33.9799 22.0314C28.8334 21.6864 24.7885 25.5907 22.2231 29.6047C21.4676 30.7964 20.8381 32.0664 20.6964 33.4933C20.6649 33.8069 20.9955 34.0891 21.2945 34.0891C21.6407 34.0891 21.8454 33.8226 21.8926 33.4933C22.0027 32.3957 22.5221 31.3922 23.0887 30.4671C23.6553 29.542 24.3163 28.6012 25.0403 27.7388C26.4568 26.0611 28.1723 24.5715 30.2498 23.7718C31.446 23.3171 32.7051 23.0976 33.9957 23.176C34.7511 23.223 34.7511 22.047 33.9957 22L33.9799 22.0314Z" fill="#231F20"/>
<path d="M20.6811 35.8133C20.508 36.2994 20.382 36.8482 20.6811 37.3343C20.9329 37.7733 21.4523 38.0399 21.9559 37.8831C22.4123 37.7263 22.7901 37.2559 23.1206 36.9423C23.5141 36.566 23.9075 36.1897 24.3167 35.8133L23.3881 35.1077C21.468 38.2907 20.9959 42.2734 22.1133 45.817C22.3494 46.5383 23.4826 46.2247 23.2465 45.5035C22.2077 42.2421 22.6327 38.62 24.3954 35.6879C24.7417 35.1077 23.9547 34.5119 23.4668 34.9823C22.9475 35.4684 22.4281 35.9701 21.9087 36.4562C21.893 36.4719 21.5624 36.7698 21.5624 36.7698C21.5467 36.7384 21.6097 36.7384 21.6411 36.7541C21.83 36.7855 21.6726 36.8168 21.6726 36.7541C21.6726 36.566 21.7356 36.3464 21.8143 36.1426C21.9244 35.8447 21.6884 35.4997 21.4051 35.4213C21.0745 35.3273 20.7913 35.5311 20.6811 35.829V35.8133Z" fill="#231F20"/>
<path d="M25.2453 40.5637C24.3639 42.0376 24.1121 43.8251 24.5056 45.4871C24.8833 47.0394 25.8749 48.3879 27.1969 49.2817C27.9052 49.7677 28.7236 50.097 29.5577 50.2695C29.8725 50.3322 30.1873 50.1754 30.2817 49.8618C30.3604 49.5796 30.1873 49.2033 29.8725 49.1405C28.5662 48.8897 27.4645 48.2154 26.6146 47.1806C26.5516 47.1178 26.4572 46.9767 26.3785 46.8513C26.2841 46.7102 26.1896 46.5534 26.1109 46.4123C25.9378 46.0987 25.8276 45.8321 25.7332 45.5028C25.5286 44.7972 25.4656 44.123 25.5286 43.3861C25.5916 42.6491 25.8591 41.8494 26.2683 41.1752C26.6775 40.501 25.6388 39.9365 25.2453 40.5794V40.5637Z" fill="#231F20"/>
<path d="M29.998 46.459C30.0767 48.1054 31.084 49.642 32.532 50.4103C32.9412 50.6298 33.3819 50.7866 33.8226 50.865C33.9799 50.8964 34.1373 50.8964 34.279 50.8023C34.4049 50.7239 34.5151 50.5985 34.5465 50.4574C34.6095 50.1751 34.4521 49.7831 34.1373 49.7361C33.854 49.689 33.5707 49.6106 33.3032 49.5009L33.4448 49.5636C33.1143 49.4225 32.8153 49.25 32.532 49.0305L32.6579 49.1246C32.3589 48.8894 32.0913 48.6385 31.871 48.3406L31.9654 48.466C31.745 48.1838 31.5562 47.8702 31.4145 47.5252L31.4775 47.6663C31.3516 47.3528 31.2571 47.0235 31.1942 46.6785V46.8353C31.1942 46.7256 31.1942 46.6001 31.1942 46.4904C31.1942 46.1768 30.9266 45.8945 30.5961 45.8945C30.2813 45.8945 29.998 46.1611 29.998 46.4904V46.459Z" fill="#231F20"/>
<path d="M33.1622 47.8868C33.1937 48.075 33.2094 48.2788 33.2724 48.467C33.3353 48.6552 33.3983 48.8276 33.477 49.0001C33.6186 49.298 33.8233 49.5803 34.0436 49.8311C34.4843 50.3329 35.0981 50.7249 35.7434 50.9131C36.1054 51.0228 36.4988 51.0698 36.8766 51.0385C37.034 51.0385 37.1756 50.9758 37.3015 50.866C37.4117 50.7562 37.4746 50.5995 37.4746 50.4427C37.4746 50.2859 37.4117 50.1291 37.3015 50.0193C37.1913 49.9095 37.034 49.8311 36.8766 49.8468C36.6877 49.8468 36.5146 49.8468 36.3257 49.8468H36.4831C36.2313 49.8468 35.9952 49.7684 35.7591 49.6743L35.9008 49.7371C35.6489 49.6273 35.4129 49.4862 35.1925 49.3294L35.3184 49.4235C35.0981 49.251 34.9092 49.0628 34.7361 48.8433L34.8305 48.9688C34.6731 48.7649 34.5472 48.5454 34.4371 48.3102L34.5 48.4513C34.4056 48.2318 34.3426 48.0123 34.3112 47.7771V47.9339C34.3112 47.9339 34.3269 47.9025 34.3112 47.8868C34.2954 47.7301 34.2639 47.5889 34.138 47.4635C34.0279 47.3537 33.8705 47.291 33.7131 47.291C33.5557 47.291 33.3983 47.3537 33.2881 47.4635C33.1937 47.5733 33.0993 47.7301 33.115 47.8868H33.1622Z" fill="#231F20"/>
<path d="M21.9089 26.9373C22.0505 26.7962 22.1922 26.6708 22.3338 26.5453L22.2079 26.6394C22.4912 26.4199 22.7902 26.2474 23.105 26.1063L22.9634 26.169C23.2467 26.0436 23.5457 25.9652 23.8447 25.9025C23.9864 25.8711 24.128 25.7457 24.191 25.6359C24.2697 25.5105 24.3012 25.3223 24.2539 25.1812C24.2067 25.0401 24.1123 24.899 23.9864 24.8362L23.8447 24.7735C23.7346 24.7422 23.6401 24.7422 23.53 24.7735C23.1522 24.8362 22.7902 24.9617 22.444 25.1185C22.0977 25.2753 21.7672 25.4791 21.4682 25.7143C21.3108 25.8241 21.1692 25.9495 21.0432 26.0906C20.9331 26.2004 20.8701 26.3572 20.8701 26.514C20.8701 26.6551 20.9331 26.8276 21.0432 26.9373C21.1534 27.0471 21.3108 27.1098 21.4682 27.1098C21.6256 27.1098 21.7672 27.0471 21.8931 26.9373H21.9089Z" fill="#231F20"/>
<path d="M21.531 24.5085C21.6569 24.4614 21.7986 24.4457 21.9245 24.4144H21.7671C21.9874 24.4144 22.2078 24.4144 22.4281 24.4301H22.2707C22.4753 24.4301 22.6642 24.4928 22.8373 24.5555C22.916 24.5869 22.9947 24.5869 23.0734 24.5555C23.1521 24.5555 23.2308 24.5241 23.2937 24.4928C23.3567 24.4614 23.4197 24.3987 23.4669 24.336C23.5141 24.2733 23.5613 24.2105 23.577 24.1321C23.6085 23.9753 23.6085 23.8185 23.5141 23.6774L23.4197 23.552C23.4197 23.552 23.2623 23.4265 23.1521 23.3952C22.8531 23.2698 22.5068 23.2227 22.1763 23.207C22.0346 23.207 21.893 23.207 21.7514 23.2227C21.5625 23.2541 21.3736 23.2698 21.1848 23.3325C21.0431 23.3795 20.9172 23.4736 20.8385 23.599C20.7913 23.6617 20.7755 23.7401 20.7755 23.8185C20.7598 23.8969 20.7755 23.9753 20.7755 24.0537C20.8228 24.1949 20.9172 24.336 21.0431 24.3987C21.169 24.4614 21.3421 24.5085 21.4995 24.4614L21.531 24.5085Z" fill="#231F20"/>
<path d="M22.9316 22.0461C23.026 20.8544 23.2306 19.6784 23.5297 18.5181C23.6556 18.0634 23.7658 17.5774 23.9861 17.201C24.175 16.8874 24.3796 16.6366 24.773 16.6679C25.2609 16.715 25.7331 17.0442 26.1423 17.2638C26.5987 17.5146 27.0394 17.7969 27.4644 18.0948C28.2985 18.6749 29.0697 19.3178 29.778 20.0391C30.5964 20.8701 31.3361 21.7639 31.9656 22.736C32.3749 23.3632 33.3979 22.783 32.9887 22.1402C31.6981 20.1645 30.0455 18.4397 28.0939 17.0913C27.6375 16.762 27.1496 16.4641 26.6617 16.1975C26.0951 15.8839 25.5128 15.5547 24.8675 15.4763C23.5926 15.3508 22.8844 16.4954 22.5696 17.5617C22.1289 19.0042 21.8771 20.5252 21.7512 22.0304C21.7197 22.344 22.0345 22.6262 22.3493 22.6262C22.6955 22.6262 22.9159 22.3597 22.9473 22.0304L22.9316 22.0461Z" fill="#231F20"/>
<path d="M44.9342 23.2064C48.743 22.9555 52.1741 25.3232 54.5663 28.0671C54.9755 28.5218 55.3848 29.0079 55.6995 29.541C55.9041 29.9017 56.093 30.278 56.2819 30.6543C56.5337 31.1874 56.6911 31.548 56.8957 32.1125C57.0845 32.63 57.2419 33.1474 57.3364 33.6962C57.3364 33.7275 57.3678 33.9314 57.3364 33.7903C57.3364 33.853 57.3364 33.9157 57.3521 33.9784C57.3521 34.0882 57.3521 34.1979 57.3521 34.3077C57.3521 34.3391 57.3521 34.3547 57.3521 34.3861C57.3521 34.4645 57.3678 34.2763 57.3521 34.3391C57.3521 34.3861 57.3364 34.4331 57.3206 34.4802C57.2891 34.6056 57.3206 34.5115 57.3206 34.4958C57.3206 34.5115 57.2262 34.637 57.2891 34.5586C57.3521 34.4802 57.2577 34.5742 57.2419 34.6056C57.1947 34.6526 57.3521 34.5272 57.2891 34.5742C57.2734 34.5742 57.2419 34.5899 57.2262 34.6056C57.2577 34.5742 57.3206 34.5742 57.2104 34.6056C57.0845 34.637 57.3206 34.6056 57.179 34.6056C57.116 34.6056 57.0688 34.6056 57.0058 34.6056C56.9429 34.6056 57.0373 34.6056 57.0373 34.6056C56.9901 34.6056 56.9429 34.5899 56.8957 34.5742C56.6596 34.5115 56.455 34.3547 56.2661 34.1979C56.0143 33.9941 55.6681 33.9627 55.432 34.1979C55.2274 34.4018 55.1802 34.8251 55.432 35.029C56.0458 35.515 56.817 35.9698 57.6197 35.7032C58.1863 35.515 58.4538 34.9976 58.5168 34.4331C58.6427 33.3042 58.139 32.0655 57.7141 31.0463C57.3049 30.0741 56.8799 29.1177 56.2346 28.2866C54.9441 26.6089 53.4174 25.1193 51.6389 23.9747C49.6559 22.689 47.295 21.8579 44.9028 22.0304C44.588 22.0461 44.3047 22.2813 44.3047 22.6262C44.3047 22.9242 44.5722 23.2378 44.9028 23.2221L44.9342 23.2064Z" fill="#231F20"/>
<path d="M52.6465 41.1448C53.3705 42.3678 53.5908 43.8417 53.2603 45.1901C53.0872 45.8644 52.8196 46.4445 52.4104 47.009C52.0799 47.4637 51.5448 47.9655 51.0727 48.2791C50.4274 48.7024 49.8136 48.9533 49.0424 49.1101C48.7276 49.1728 48.5545 49.5491 48.6331 49.8314C48.7276 50.1606 49.0424 50.3018 49.3571 50.239C50.8523 49.9568 52.2531 49.0944 53.1974 47.9028C54.2361 46.6013 54.7398 44.9393 54.5666 43.2772C54.4722 42.3051 54.1732 41.38 53.6695 40.5489C53.2761 39.9061 52.2531 40.4862 52.6465 41.1448Z" fill="#231F20"/>
<path d="M47.7359 46.4592C47.7359 46.5847 47.7359 46.6944 47.7044 46.8042V46.6474C47.6729 46.9923 47.5785 47.3216 47.4526 47.6352L47.5155 47.4941C47.3739 47.8234 47.185 48.137 46.9647 48.4349L47.0591 48.3094C46.823 48.6074 46.5712 48.8739 46.2722 49.0934L46.3981 48.9994C46.1148 49.2189 45.8157 49.3913 45.4852 49.5325L45.6269 49.4697C45.3593 49.5795 45.076 49.6579 44.7927 49.7049C44.6511 49.7206 44.5094 49.8617 44.4465 49.9715C44.3678 50.0969 44.3363 50.2851 44.3835 50.4262C44.4307 50.5673 44.5252 50.7085 44.6511 50.7712C44.7927 50.8496 44.9344 50.8652 45.1075 50.8339C46.7443 50.5516 48.0821 49.2973 48.6644 47.7763C48.8218 47.353 48.9163 46.8826 48.932 46.4279C48.932 46.1143 48.6487 45.832 48.3339 45.832C48.0034 45.832 47.7516 46.0829 47.7359 46.4279V46.4592Z" fill="#231F20"/>
<path d="M44.5569 47.8868C44.5569 47.8868 44.5569 47.9182 44.5569 47.9338V47.777C44.5569 48.0122 44.4782 48.2317 44.3838 48.4513L44.4468 48.3101C44.3523 48.5453 44.2107 48.7649 44.0533 48.9687L44.1477 48.8433C43.9746 49.0628 43.7857 49.2509 43.5654 49.4234L43.6913 49.3293C43.471 49.5018 43.2349 49.6272 42.9831 49.737L43.1247 49.6743C42.8886 49.7684 42.6525 49.8311 42.4007 49.8624H42.5581C42.3692 49.8624 42.1961 49.8624 42.0073 49.8624C41.8656 49.8624 41.6925 49.9408 41.5823 50.0349C41.4721 50.129 41.4092 50.3015 41.4092 50.4583C41.4092 50.6151 41.4721 50.7719 41.5823 50.8816C41.6925 50.9914 41.8341 51.0384 42.0073 51.0541C43.3765 51.1639 44.7458 50.3015 45.3596 49.1098C45.454 48.9217 45.5327 48.7178 45.5957 48.5297C45.6586 48.3415 45.6901 48.122 45.7216 47.9025C45.7373 47.7614 45.6429 47.5732 45.5485 47.4791C45.4383 47.3694 45.2809 47.3066 45.1235 47.3066C44.9661 47.3066 44.8087 47.3694 44.6986 47.4791L44.6041 47.6046C44.5569 47.6986 44.5255 47.7927 44.5255 47.9025L44.5569 47.8868Z" fill="#231F20"/>
<path d="M56.0145 16.7931C55.5108 16.1032 54.8026 15.6484 53.937 15.6484C53.1028 15.6484 52.3001 15.9934 51.6076 16.4167C49.9708 17.3889 48.5858 18.8001 47.3739 20.2269C46.8545 20.8385 46.3351 21.4813 45.8945 22.1556C45.7213 22.4221 45.8472 22.7984 46.0991 22.9552C46.3824 23.1277 46.7286 23.0179 46.9017 22.7514C47.0434 22.5319 47.2008 22.3124 47.3739 22.0928C47.4211 22.0301 47.4683 21.9674 47.5156 21.9047C47.5313 21.8733 47.5628 21.842 47.5785 21.8106C47.4998 21.9204 47.5785 21.8106 47.61 21.7792C47.7202 21.6381 47.8461 21.4813 47.9562 21.3402C48.5071 20.666 49.0894 20.0231 49.7032 19.4273C50.0338 19.098 50.3643 18.7844 50.7263 18.4865C50.8994 18.3454 51.0725 18.2042 51.2456 18.0631C51.1512 18.1415 51.2614 18.0474 51.2929 18.0161C51.3243 17.9847 51.3715 17.9534 51.403 17.9377C51.4975 17.875 51.5919 17.7966 51.6863 17.7339C52.0168 17.5143 52.3631 17.2948 52.7251 17.138C52.7723 17.1223 52.8195 17.091 52.851 17.0753C52.8352 17.0753 52.9612 17.0283 52.851 17.0753C52.9454 17.0439 53.0241 17.0126 53.1028 16.9812C53.2759 16.9185 53.4333 16.8871 53.6064 16.8558C53.512 16.8558 53.7324 16.8244 53.6064 16.8558C53.6537 16.8558 53.7009 16.8558 53.7481 16.8558C53.8268 16.8558 53.9212 16.8558 53.9999 16.8558C54.0314 16.8558 54.173 16.8715 54.0629 16.8558C53.9527 16.8401 54.1101 16.8558 54.1258 16.8558C54.2045 16.8715 54.2832 16.9028 54.3619 16.9185C54.3147 16.8871 54.4878 16.9655 54.3619 16.9185C54.3934 16.9342 54.4249 16.9499 54.4721 16.9655C54.5036 16.9812 54.5508 17.0126 54.5822 17.0283C54.6452 17.0753 54.6609 17.091 54.5822 17.0283C54.6452 17.091 54.7239 17.1537 54.7869 17.2164C54.8183 17.2478 54.8498 17.2791 54.8813 17.3105C54.96 17.4046 54.8183 17.2321 54.9285 17.3575C55.1174 17.6084 55.4479 17.7339 55.7312 17.5614C55.983 17.4046 56.1246 17.0126 55.9358 16.7617L56.0145 16.7931Z" fill="#231F20"/>
<path d="M39.0798 21.4657C38.466 20.9169 37.7262 20.5092 36.9393 20.2897C36.5616 20.18 36.1209 20.1016 35.7274 20.1172C35.1608 20.1486 34.7988 20.5406 34.7674 21.1051C34.7359 21.4971 34.7988 21.9204 34.8303 22.3124C34.8618 22.6417 34.8933 22.9866 35.0034 23.3002C35.2238 24.0058 35.7589 24.633 36.5458 24.6173C37.443 24.6173 38.0568 23.8177 38.6234 23.2062C39.2214 22.5633 39.788 21.8891 40.4333 21.2775C40.4963 21.2148 40.5592 21.1678 40.6222 21.1051C40.7166 21.0267 40.7481 20.9953 40.7953 20.9639C40.8583 20.9169 40.937 20.8699 40.9999 20.8228C41.0314 20.8071 41.0629 20.7758 41.1101 20.7601C41.1101 20.7601 41.2832 20.6817 41.1888 20.7131C41.2517 20.6817 41.3304 20.666 41.4091 20.6347C41.4091 20.6347 41.5822 20.6033 41.5035 20.619C41.4406 20.619 41.5508 20.619 41.5665 20.619C41.6137 20.619 41.6609 20.619 41.7082 20.619C41.6137 20.5876 41.6767 20.619 41.7082 20.619C41.7396 20.619 41.7868 20.6347 41.8183 20.6503C41.96 20.6974 41.7554 20.6033 41.8813 20.6817C41.897 20.6817 42.0701 20.8071 41.9757 20.7444C42.0387 20.7915 42.1016 20.8542 42.1488 20.9169C42.2118 20.9953 42.0859 20.8071 42.1646 20.9483C42.1803 20.9796 42.2118 21.011 42.2275 21.0423C42.2433 21.0737 42.259 21.1051 42.2747 21.1364C42.2747 21.1364 42.3377 21.3089 42.3062 21.1991C42.4479 21.5911 42.4636 21.8891 42.4479 22.2967C42.4479 22.5006 42.4479 22.7044 42.4164 22.9082C42.4164 22.7828 42.4164 22.8769 42.4164 22.9082C42.4164 22.9553 42.4007 23.0023 42.3849 23.0494C42.3849 23.0807 42.3692 23.1121 42.3534 23.1434C42.322 23.2689 42.4007 23.0807 42.3534 23.1748C42.3377 23.2062 42.322 23.2218 42.3062 23.2532C42.3534 23.1905 42.3534 23.1905 42.3062 23.2375L42.3692 23.1905C42.259 23.2218 42.4007 23.1905 42.4007 23.1905C42.2747 23.1905 42.4479 23.1905 42.4479 23.1905C42.4479 23.2218 41.9442 22.9866 41.8813 22.9553C41.0314 22.5476 40.2287 22.0615 39.4732 21.4971C39.2214 21.3089 38.8122 21.45 38.6706 21.7009C38.4974 21.9988 38.6234 22.3124 38.8752 22.5006C39.5362 22.9866 40.2287 23.4257 40.9684 23.802C41.1416 23.8961 41.3147 23.9745 41.4878 24.0529C41.7082 24.1469 41.9442 24.2724 42.1803 24.3037C42.6525 24.3665 43.0774 24.1783 43.3292 23.7706C43.5181 23.4727 43.5811 23.1121 43.5968 22.7671C43.6283 22.3438 43.6283 21.9204 43.5811 21.5127C43.4709 20.7444 43.0932 19.9448 42.3534 19.5998C41.5035 19.2078 40.6537 19.5371 39.9612 20.0702C39.2686 20.6033 38.7493 21.2619 38.1827 21.8734C37.8679 22.2026 37.5689 22.5319 37.2541 22.8612C37.1439 22.9866 37.0337 23.0964 36.8921 23.2062C36.9551 23.1591 36.8606 23.2375 36.8449 23.2375C36.8134 23.2532 36.7819 23.2846 36.7504 23.3002C36.7347 23.3002 36.6245 23.363 36.7032 23.3316C36.656 23.3473 36.6088 23.363 36.5616 23.3786C36.4514 23.41 36.7032 23.3473 36.5144 23.3786C36.3885 23.3786 36.4829 23.3786 36.5144 23.3786C36.4514 23.3786 36.3255 23.3159 36.4514 23.3786C36.4199 23.3786 36.4042 23.3473 36.3727 23.3316C36.2625 23.2846 36.4199 23.3943 36.3727 23.3316C36.357 23.3159 36.3255 23.2846 36.3098 23.2689C36.2153 23.1905 36.3098 23.2846 36.294 23.2532C36.2625 23.1905 36.2153 23.1434 36.1839 23.0807C36.1839 23.0494 36.1524 23.018 36.1366 23.0023C36.1366 23.0337 36.1839 23.1121 36.1366 23.0023C36.0894 22.8455 36.0422 22.7044 36.0107 22.5476C36.0107 22.5162 36.0107 22.4849 35.995 22.4535C35.995 22.4065 35.995 22.4222 35.995 22.4849C35.995 22.4535 35.995 22.4378 35.995 22.4065C35.995 22.3281 35.995 22.2497 35.9793 22.1713C35.9793 21.9204 35.9478 21.6695 35.932 21.4187C35.932 21.3089 35.932 21.2148 35.932 21.1051C35.932 21.0894 35.932 20.9796 35.932 21.058C35.932 21.1051 35.932 21.0894 35.932 21.0423C35.932 21.0737 35.9163 21.1051 35.8848 21.1207C35.8533 21.1678 35.7274 21.2305 35.7274 21.2148C35.6802 21.2148 35.696 21.2148 35.7589 21.2148C35.7904 21.2148 35.8219 21.2148 35.8533 21.2148C35.9006 21.2148 35.932 21.2148 35.9793 21.2148C36.0107 21.2148 36.1524 21.2305 36.1209 21.2148C36.8921 21.3246 37.6633 21.6852 38.2299 22.187C38.466 22.3908 38.828 22.4222 39.064 22.187C39.2844 21.9675 39.3001 21.5598 39.064 21.3559L39.0798 21.4657Z" fill="#231F20"/>
<path d="M33.4606 27.5335C33.4606 27.5335 33.5078 27.3767 33.5393 27.314L33.4764 27.4551C33.6023 27.1729 33.7439 26.922 33.9328 26.6711L33.8384 26.7966C34.0115 26.5614 34.2318 26.3575 34.4522 26.1694L34.3263 26.2635C34.3263 26.2635 34.3577 26.2478 34.3735 26.2321C34.4364 26.2007 34.4994 26.138 34.5466 26.0753C34.5938 26.0126 34.641 25.9499 34.6568 25.8715C34.6882 25.7931 34.6882 25.7147 34.6568 25.6363C34.6568 25.5579 34.6253 25.4795 34.5938 25.4167C34.5151 25.2913 34.3892 25.1815 34.2476 25.1502H34.0902C33.98 25.1345 33.8856 25.1502 33.7911 25.2129C33.5393 25.4011 33.2875 25.6206 33.0829 25.8715C32.8783 26.1223 32.6894 26.3889 32.5478 26.6711C32.4533 26.8593 32.3746 27.0318 32.3117 27.2356C32.2802 27.314 32.2802 27.3924 32.3117 27.4708C32.3117 27.5492 32.3432 27.6276 32.3746 27.6903C32.4061 27.753 32.4691 27.8158 32.532 27.8628C32.595 27.9098 32.6579 27.9569 32.7366 27.9725C32.894 28.0039 33.0514 28.0039 33.1931 27.9098L33.319 27.8158C33.319 27.8158 33.4449 27.659 33.4764 27.5492L33.4606 27.5335Z" fill="#231F20"/>
<path d="M43.5647 25.7145L44.5405 26.8748L44.8238 27.2041C44.8238 27.2041 44.934 27.2982 45.0127 27.3295C45.0756 27.3609 45.1543 27.3766 45.233 27.3766C45.3117 27.3766 45.3904 27.3766 45.4534 27.3295C45.5321 27.2982 45.595 27.2668 45.6422 27.2041C45.7524 27.0943 45.8154 26.9375 45.8154 26.7807V26.6239C45.7682 26.5298 45.7209 26.4358 45.6422 26.3574L44.6664 25.1971L44.3831 24.8678C44.3831 24.8678 44.273 24.7737 44.1943 24.7424C44.1313 24.711 44.0526 24.6953 43.9739 24.6953C43.8952 24.6953 43.8165 24.6953 43.7536 24.7424C43.6749 24.7737 43.6119 24.8051 43.5647 24.8678C43.4546 24.9775 43.3916 25.1343 43.3916 25.2911V25.4479C43.4388 25.542 43.486 25.6361 43.5647 25.7145Z" fill="#231F20"/>
<path d="M36.4201 25.4478C36.2628 25.636 36.1054 25.8398 35.9795 26.0593C35.9322 26.1534 35.885 26.2318 35.8378 26.3259C35.7749 26.467 35.7276 26.5924 35.6804 26.7336C35.6489 26.8433 35.6175 26.9531 35.6017 27.0628C35.5703 27.1412 35.5703 27.2196 35.6017 27.298C35.6017 27.3764 35.6332 27.4548 35.6647 27.5175C35.6962 27.5803 35.7591 27.643 35.8221 27.69C35.885 27.7371 35.948 27.7841 36.0267 27.7998C36.1841 27.8311 36.3415 27.8311 36.4831 27.7371C36.609 27.6587 36.7192 27.5332 36.7507 27.3921C36.7821 27.1883 36.8451 27.0001 36.9238 26.812L36.8608 26.9531C36.9553 26.7179 37.0812 26.4984 37.2386 26.2945L37.1441 26.42C37.1441 26.42 37.2228 26.3259 37.27 26.2788C37.333 26.2318 37.3645 26.1691 37.3959 26.0907C37.4274 26.028 37.4432 25.9496 37.4432 25.8712C37.4432 25.7928 37.4432 25.7144 37.3959 25.6517C37.3645 25.5733 37.333 25.5105 37.27 25.4635C37.1599 25.3537 37.0025 25.291 36.8451 25.291C36.6877 25.291 36.5303 25.3537 36.4201 25.4635V25.4478Z" fill="#231F20"/>
<path d="M35.2076 17.7649C35.5381 17.8276 35.8528 17.906 36.1519 18.0471L36.0102 17.9844C36.3722 18.1412 36.7027 18.3294 37.0175 18.5646L36.8916 18.4705C37.2064 18.7214 37.4897 18.9879 37.7258 19.3015L37.6313 19.1761C37.8674 19.4897 38.072 19.8189 38.2137 20.1796L38.1507 20.0385C38.2609 20.305 38.3396 20.5716 38.4025 20.8538C38.4655 21.1517 38.8432 21.3556 39.1265 21.2615C39.4413 21.1517 39.5987 20.8695 39.5357 20.5402C39.2367 19.035 38.135 17.7022 36.75 17.0436C36.3565 16.8555 35.9315 16.6987 35.4909 16.6359C35.3335 16.6046 35.1761 16.6046 35.0344 16.6987C34.9085 16.7771 34.7984 16.9025 34.7669 17.0436C34.7354 17.2004 34.7354 17.3572 34.8298 17.4983C34.9085 17.6238 35.0344 17.7492 35.1761 17.7649H35.2076Z" fill="#231F20"/>
<path d="M39.5206 20.8853C39.6308 20.5247 39.7409 20.1797 39.8668 19.8191C39.8983 19.7407 39.9298 19.6623 39.9613 19.5682C39.977 19.5212 39.9927 19.4741 40.0242 19.4271C40.0242 19.4114 40.0242 19.3957 40.04 19.38C40.0714 19.3173 39.9927 19.5055 40.04 19.3957C40.1187 19.2232 40.1973 19.0664 40.276 18.894C40.3547 18.7215 40.4492 18.5804 40.5593 18.4236C40.6066 18.3609 40.638 18.2981 40.6852 18.2354C40.6852 18.2197 40.7167 18.2041 40.7167 18.1884C40.7167 18.1884 40.6223 18.2981 40.6852 18.2354C40.7167 18.2041 40.7325 18.1727 40.7639 18.1413C40.8741 18.0159 40.9843 17.9061 41.0945 17.7964C41.1417 17.7493 41.2046 17.7023 41.2676 17.6553C41.2991 17.6239 41.425 17.5455 41.2676 17.6553C41.2991 17.6239 41.3305 17.6082 41.3778 17.5769C41.5194 17.4671 41.6768 17.3887 41.8499 17.3103C41.8499 17.3103 41.8814 17.3103 41.8971 17.2946C41.9916 17.2476 41.8971 17.2946 41.8657 17.3103C41.8971 17.2946 41.9443 17.279 41.9916 17.2633C42.086 17.2319 42.1804 17.2006 42.2591 17.1849C42.5582 17.1065 42.7628 16.7615 42.6683 16.4636C42.5739 16.15 42.2591 15.9775 41.9443 16.0559C41.2204 16.2284 40.5593 16.6674 40.0557 17.2162C39.5048 17.8277 39.1271 18.549 38.8281 19.3173C38.6707 19.7407 38.529 20.164 38.4031 20.5874C38.3087 20.8853 38.5133 21.2459 38.8123 21.3087C39.1114 21.3714 39.4419 21.2146 39.5363 20.901L39.5206 20.8853Z" fill="#231F20"/>
<path d="M56.2511 37.0355C56.7862 38.0233 57.0852 39.1836 57.1324 40.2969C57.1797 41.4885 56.9908 42.5861 56.5501 43.7151C56.3298 44.2639 55.9678 44.891 55.5743 45.4085C55.3854 45.6594 55.5271 46.067 55.7789 46.2081C56.0779 46.3806 56.3927 46.2552 56.5816 46.0043C58.1712 43.9032 58.6748 41.0652 58.061 38.525C57.8879 37.8038 57.6203 37.0982 57.2583 36.4553C57.101 36.1731 56.7232 36.0947 56.4557 36.2515C56.1724 36.424 56.0937 36.7689 56.2511 37.0511V37.0355Z" fill="#231F20"/>
<path d="M26.7407 19.9763C26.9925 20.2115 27.2443 20.478 27.4489 20.7603L27.3545 20.6348C27.7007 21.0738 27.9683 21.5599 28.1886 22.0617L28.1257 21.9206C28.3303 22.4066 28.4719 22.9084 28.5664 23.4258C28.5821 23.5669 28.7237 23.7081 28.8339 23.7708C28.9598 23.8492 29.1487 23.8805 29.2903 23.8335C29.432 23.7865 29.5736 23.6924 29.6366 23.5669C29.7153 23.4258 29.7153 23.2847 29.6995 23.1122C29.5107 21.9049 28.9756 20.7916 28.2201 19.8351C28.0155 19.5843 27.7952 19.3491 27.5591 19.1296C27.323 18.91 26.9453 18.8944 26.7249 19.1296C26.5046 19.3647 26.4888 19.7411 26.7249 19.9606L26.7407 19.9763Z" fill="#231F20"/>
<path d="M52.1425 19.2233C51.1037 19.9132 50.3168 20.9011 49.8761 22.0614C49.7659 22.3593 49.6715 22.6572 49.6243 22.9708C49.5928 23.1276 49.5928 23.2844 49.6872 23.4255C49.7659 23.551 49.8919 23.6607 50.0335 23.6921C50.3168 23.7548 50.6945 23.598 50.7575 23.2844C50.8204 22.9081 50.9306 22.5475 51.088 22.2025L51.025 22.3436C51.1982 21.9203 51.4342 21.5283 51.7175 21.1676L51.6231 21.2931C51.8907 20.9481 52.2054 20.6345 52.5517 20.368L52.4258 20.462C52.5202 20.3836 52.6304 20.3209 52.7248 20.2425C52.8507 20.1641 52.9609 20.0387 52.9924 19.8976C53.0239 19.7564 53.0081 19.5683 52.9294 19.4429C52.772 19.192 52.3943 19.0509 52.1268 19.239L52.1425 19.2233Z" fill="#231F20"/>
<path d="M55.4006 18.91C56.0144 21.4501 55.9672 24.1314 55.259 26.6558C55.0544 27.3928 56.1876 27.6907 56.3922 26.9694C57.1634 24.2411 57.1948 21.3404 56.5338 18.5964C56.4551 18.2828 56.1089 18.1103 55.8098 18.1887C55.495 18.2828 55.3219 18.5964 55.4006 18.91Z" fill="#231F20"/>
</svg>
