<svg width="100" height="100" viewBox="0 0 100 100" fill="none" xmlns="http://www.w3.org/2000/svg">
<path d="M19.4191 25.3416C9.30188 24.2421 7.09618 23.9119 6.32683 24.0192C4.08336 24.3321 5.22067 31.1398 5.87776 35.675C6.22833 38.0947 7.08958 39.2065 7.6377 39.7563C8.40375 40.0881 9.61557 40.3093 12.0243 40.4744C13.6704 40.5306 16.1765 40.5306 18.7587 40.5306" stroke="#363636" stroke-width="4.4387" stroke-linecap="round"/>
<path d="M38.879 25.3416C28.7618 24.2421 26.5561 23.9119 25.7868 24.0192C23.5433 24.3321 24.6806 31.1398 25.3377 35.675C25.6883 38.0947 26.5495 39.2065 27.0977 39.7563C27.8637 40.0881 29.0755 40.3093 31.4843 40.4744C33.1303 40.5306 35.6365 40.5306 38.2186 40.5306" stroke="#363636" stroke-width="4.4387" stroke-linecap="round"/>
<path d="M24.3721 47.7949V53.4082" stroke="#363636" stroke-width="4.4387" stroke-linecap="round"/>
<path d="M8.52246 54.7266C13.099 55.3803 20.142 55.7171 27.4047 55.6627C30.3087 55.4992 30.9724 55.278 31.9036 55.1129C32.5078 55.0568 33.3795 55.0568 34.2777 55.0568" stroke="#363636" stroke-width="4.4387" stroke-linecap="round"/>
<path d="M25.0328 65.9545C23.5073 66.6083 22.5035 67.272 22.1188 67.9307C21.7587 68.5474 22.0577 70.2338 22.7709 72.4329C23.2526 73.9182 25.0229 74.6452 27.217 75.3056C29.7446 76.0664 31.6334 75.3122 32.2376 74.8186C33.5541 73.7431 33.5056 71.1386 33.4544 67.7277C32.3004 66.397 30.9829 65.7366 29.388 65.3503C28.7838 65.2941 27.9121 65.2941 26.3535 65.6243" stroke="#363636" stroke-width="4.4387" stroke-linecap="round"/>
<path d="M48.4766 32.9355C52.32 32.9355 54.6347 33.0445 56.3319 33.2641C57.4843 33.3747 59.2277 33.4837 60.1258 36.2639C61.024 39.0442 61.024 44.4924 61.024 50.1057" stroke="#363636" stroke-width="4.4387" stroke-linecap="round"/>
<path d="M51.4482 50.4355C52.102 55.8838 52.4388 59.7801 52.4933 61.7034C52.5478 62.5372 52.6568 63.082 52.7129 64.0165C52.769 64.9509 52.769 66.2585 52.769 67.6057" stroke="#363636" stroke-width="4.4387" stroke-linecap="round"/>
<path d="M45.5039 67.6055C48.5549 68.0413 52.8507 68.2659 57.1961 68.3203C59.2532 68.4838 60.1381 68.5961 60.962 68.6505C61.35 68.705 61.6768 68.814 62.0136 68.9262" stroke="#363636" stroke-width="4.4387" stroke-linecap="round"/>
<path d="M70.2695 25.6699C75.064 25.6699 77.9697 25.8879 78.7935 26.327C80.3496 27.1565 80.9447 28.6384 81.0553 29.2971C81.3161 30.8497 78.4253 32.4851 76.6043 34.1394C75.3347 35.3512 74.2385 36.672 72.4785 38.5937C71.9271 39.2013 71.2733 39.8551 70.5997 40.8589" stroke="#363636" stroke-width="4.4387" stroke-linecap="round"/>
<path d="M74.5615 36.5684C78.4842 37.0042 80.9409 37.3377 81.9827 37.6118C83.3513 37.9948 84.4641 38.3283 85.1773 38.4934C85.5636 38.5495 85.9995 38.5495 86.4485 38.8797" stroke="#363636" stroke-width="4.4387" stroke-linecap="round"/>
<path d="M94.7034 25.3398C94.7034 29.6984 94.7034 33.7961 94.5944 37.2566C94.4854 38.8646 94.2675 40.1722 94.1552 41.1727C94.043 42.1732 94.043 42.827 94.043 43.5006" stroke="#363636" stroke-width="4.4387" stroke-linecap="round"/>
<path d="M81.826 58.69C81.3902 64.1383 81.2746 67.5987 81.6032 68.8617C81.9246 70.0974 82.9223 70.686 83.7461 70.9601C85.5972 71.5759 89.1795 71.8978 92.3708 71.6799C93.5102 71.6021 93.6008 71.0261 93.6569 70.5837C93.8951 68.7065 94.3734 66.7336 94.6475 64.5873C94.7036 63.326 94.8126 62.3255 94.9777 61.0674C95.0338 60.1363 95.0338 58.6108 94.3734 57.0391" stroke="#363636" stroke-width="4.4387" stroke-linecap="round"/>
<path d="M82.8164 62.6543C86.6599 62.6543 89.0835 62.8722 91.2281 63.313C91.7284 63.4237 92.0553 63.5326 92.3871 63.6432C92.7189 63.7538 93.0458 63.8628 93.3826 63.9751" stroke="#363636" stroke-width="4.4387" stroke-linecap="round"/>
</svg>
