<svg width="100" height="100" viewBox="0 0 100 100" fill="none" xmlns="http://www.w3.org/2000/svg" xmlns:xlink="http://www.w3.org/1999/xlink">
<ellipse cx="50" cy="50.2069" rx="40" ry="21.2069" fill="white"/>
<use xlink:href="#stroke0_5055_14466" transform="translate(90.697 49.9537) scale(0.00360345) rotate(111.439)"/>
<use xlink:href="#stroke0_5055_14466" transform="translate(90.9693 50.3234) scale(0.00483671) rotate(119.45)"/>
<use xlink:href="#stroke0_5055_14466" transform="translate(89.6276 51.9138) scale(0.00516436) rotate(-119.321)"/>
<use xlink:href="#stroke0_5055_14466" transform="translate(89.1481 51.7767) scale(0.00458188) rotate(-80.3769)"/>
<use xlink:href="#stroke0_5055_14466" transform="translate(89.0556 52.1471) scale(0.00483705) rotate(-79.4173)"/>
<use xlink:href="#stroke0_5055_14466" transform="translate(89.1789 52.364) scale(0.00385422) rotate(-78.7903)"/>
<use xlink:href="#stroke0_5055_14466" transform="translate(88.9422 51.5894) scale(0.00547937) rotate(-8.49133)"/>
<use xlink:href="#stroke0_5055_14466" transform="translate(89.2002 52.0898) scale(0.00380573) rotate(-1.64184)"/>
<use xlink:href="#stroke0_5055_14466" transform="translate(89.2618 52.0296) scale(0.00505313) rotate(18.9844)"/>
<use xlink:href="#stroke0_5055_14466" transform="translate(90.3042 52.5921) scale(0.00524152) rotate(85.1847)"/>
<use xlink:href="#stroke0_5055_14466" transform="translate(90.243 53.0314) scale(0.00523078) rotate(89.3683)"/>
<use xlink:href="#stroke0_5055_14466" transform="translate(90.1384 53.8078) scale(0.00416138) rotate(112.045)"/>
<use xlink:href="#stroke0_5055_14466" transform="translate(88.3718 53.8854) scale(0.00482817) rotate(-16.3984)"/>
<use xlink:href="#stroke0_5055_14466" transform="translate(89.3958 55.4905) scale(0.00399877) rotate(-160.436)"/>
<use xlink:href="#stroke0_5055_14466" transform="translate(89.2397 54.0949) scale(0.00475845) rotate(58.0292)"/>
<use xlink:href="#stroke0_5055_14466" transform="translate(89.542 55.9734) scale(0.00463654) rotate(171.376)"/>
<use xlink:href="#stroke0_5055_14466" transform="translate(89.5086 55.218) scale(0.00471818) rotate(102.95)"/>
<use xlink:href="#stroke0_5055_14466" transform="translate(89.1463 56.7337) scale(0.00478371) rotate(179.503)"/>
<use xlink:href="#stroke0_5055_14466" transform="translate(89.0521 55.6541) scale(0.00485317) rotate(89.3064)"/>
<use xlink:href="#stroke0_5055_14466" transform="translate(87.3837 56.0031) scale(0.00475437) rotate(-7.95749)"/>
<use xlink:href="#stroke0_5055_14466" transform="translate(87.1806 57.249) scale(0.00406203) rotate(-71.3997)"/>
<use xlink:href="#stroke0_5055_14466" transform="translate(88.2233 56.3777) scale(0.00456289) rotate(70.0596)"/>
<use xlink:href="#stroke0_5055_14466" transform="translate(87.2248 58.232) scale(0.00406999) rotate(-112.928)"/>
<use xlink:href="#stroke0_5055_14466" transform="translate(88.0704 57.3186) scale(0.00371353) rotate(99.9104)"/>
<use xlink:href="#stroke0_5055_14466" transform="translate(86.7898 58.996) scale(0.00529215) rotate(-115.498)"/>
<use xlink:href="#stroke0_5055_14466" transform="translate(86.2076 57.8126) scale(0.00445996) rotate(-17.1658)"/>
<use xlink:href="#stroke0_5055_14466" transform="translate(86.8716 59.3872) scale(0.0040999) rotate(-144.314)"/>
<use xlink:href="#stroke0_5055_14466" transform="translate(85.987 59.4507) scale(0.00431856) rotate(-96.2739)"/>
<use xlink:href="#stroke0_5055_14466" transform="translate(86.0136 57.986) scale(0.0055477) rotate(24.7256)"/>
<use xlink:href="#stroke0_5055_14466" transform="translate(86.4061 60.4892) scale(0.00556125) rotate(-156.341)"/>
<use xlink:href="#stroke0_5055_14466" transform="translate(85.9754 58.8145) scale(0.00423983) rotate(52.5863)"/>
<use xlink:href="#stroke0_5055_14466" transform="translate(85.7163 60.7419) scale(0.00413675) rotate(-147.397)"/>
<use xlink:href="#stroke0_5055_14466" transform="translate(85.9099 59.5936) scale(0.00360948) rotate(87.1501)"/>
<use xlink:href="#stroke0_5055_14466" transform="translate(84.8942 59.5037) scale(0.00419294) rotate(23.1738)"/>
<use xlink:href="#stroke0_5055_14466" transform="translate(83.9266 60.1252) scale(0.00523292) rotate(-24.2362)"/>
<use xlink:href="#stroke0_5055_14466" transform="translate(84.1873 60.1986) scale(0.00371751) rotate(3.37653)"/>
<use xlink:href="#stroke0_5055_14466" transform="translate(85.0585 61.8325) scale(0.0050281) rotate(-177.391)"/>
<use xlink:href="#stroke0_5055_14466" transform="translate(83.2105 60.9833) scale(0.00468557) rotate(-31.2058)"/>
<use xlink:href="#stroke0_5055_14466" transform="translate(83.8411 62.226) scale(0.0036522) rotate(-134.769)"/>
<use xlink:href="#stroke0_5055_14466" transform="translate(83.9258 60.8495) scale(0.00417035) rotate(59.2448)"/>
<use xlink:href="#stroke0_5055_14466" transform="translate(82.4238 62.3818) scale(0.00523114) rotate(-75.559)"/>
<use xlink:href="#stroke0_5055_14466" transform="translate(84.0095 61.5626) scale(0.00539638) rotate(99.7497)"/>
<use xlink:href="#stroke0_5055_14466" transform="translate(83.3595 61.7642) scale(0.00404444) rotate(85.4404)"/>
<use xlink:href="#stroke0_5055_14466" transform="translate(82.1779 63.2187) scale(0.0037445) rotate(-110.273)"/>
<use xlink:href="#stroke0_5055_14466" transform="translate(82.1852 61.9596) scale(0.00369293) rotate(31.6732)"/>
<use xlink:href="#stroke0_5055_14466" transform="translate(82.1312 62.1155) scale(0.00369695) rotate(45.0872)"/>
<use xlink:href="#stroke0_5055_14466" transform="translate(82.2272 62.2307) scale(0.00442742) rotate(67.1631)"/>
<use xlink:href="#stroke0_5055_14466" transform="translate(80.6422 63.4584) scale(0.0045383) rotate(-61.8763)"/>
<use xlink:href="#stroke0_5055_14466" transform="translate(80.3765 63.9355) scale(0.00488072) rotate(-77.8814)"/>
<use xlink:href="#stroke0_5055_14466" transform="translate(80.7296 62.6324) scale(0.00505854) rotate(30.1565)"/>
<use xlink:href="#stroke0_5055_14466" transform="translate(80.6425 64.6935) scale(0.00414208) rotate(-138.839)"/>
<use xlink:href="#stroke0_5055_14466" transform="translate(79.6978 64.3952) scale(0.00383814) rotate(-78.5154)"/>
<use xlink:href="#stroke0_5055_14466" transform="translate(80.3364 65.2973) scale(0.00553669) rotate(-151.733)"/>
<use xlink:href="#stroke0_5055_14466" transform="translate(79.0129 64.4851) scale(0.00373064) rotate(-57.208)"/>
<use xlink:href="#stroke0_5055_14466" transform="translate(79.4224 63.6931) scale(0.00404427) rotate(34.9813)"/>
<use xlink:href="#stroke0_5055_14466" transform="translate(80.1196 64.6401) scale(0.00426138) rotate(129.043)"/>
<use xlink:href="#stroke0_5055_14466" transform="translate(79.2641 63.9947) scale(0.00435311) rotate(61.3873)"/>
<use xlink:href="#stroke0_5055_14466" transform="translate(78.7029 64.1938) scale(0.00386059) rotate(42.8441)"/>
<use xlink:href="#stroke0_5055_14466" transform="translate(77.2601 65.1357) scale(0.00539309) rotate(-47.4979)"/>
<use xlink:href="#stroke0_5055_14466" transform="translate(77.5564 65.9198) scale(0.00380903) rotate(-98.5292)"/>
<use xlink:href="#stroke0_5055_14466" transform="translate(77.6441 66.5306) scale(0.00515605) rotate(-132.368)"/>
<use xlink:href="#stroke0_5055_14466" transform="translate(78.1555 65.3295) scale(0.00368332) rotate(108.23)"/>
<use xlink:href="#stroke0_5055_14466" transform="translate(76.3115 66.3796) scale(0.00505328) rotate(-84.0407)"/>
<use xlink:href="#stroke0_5055_14466" transform="translate(77.9149 66.1909) scale(0.00557321) rotate(143.332)"/>
<use xlink:href="#stroke0_5055_14466" transform="translate(77.3381 66.8059) scale(0.00556112) rotate(167.371)"/>
<use xlink:href="#stroke0_5055_14466" transform="translate(75.046 66.0524) scale(0.00500949) rotate(-34.5703)"/>
<use xlink:href="#stroke0_5055_14466" transform="translate(75.54 65.6589) scale(0.00392415) rotate(27.4821)"/>
<use xlink:href="#stroke0_5055_14466" transform="translate(75.057 67.2047) scale(0.00370301) rotate(-106.156)"/>
<use xlink:href="#stroke0_5055_14466" transform="translate(76.1153 66.0878) scale(0.00558318) rotate(99.1413)"/>
<use xlink:href="#stroke0_5055_14466" transform="translate(75.2499 67.5788) scale(0.00417193) rotate(-169.963)"/>
<use xlink:href="#stroke0_5055_14466" transform="translate(74.4925 66.1931) scale(0.00373685) rotate(39.0239)"/>
<use xlink:href="#stroke0_5055_14466" transform="translate(73.4826 67.279) scale(0.00388255) rotate(-63.6203)"/>
<use xlink:href="#stroke0_5055_14466" transform="translate(73.4334 66.4008) scale(0.00460051) rotate(8.23225)"/>
<use xlink:href="#stroke0_5055_14466" transform="translate(74.4757 67.37) scale(0.00403328) rotate(135.364)"/>
<use xlink:href="#stroke0_5055_14466" transform="translate(73.1693 66.3267) scale(0.00546363) rotate(34.1393)"/>
<use xlink:href="#stroke0_5055_14466" transform="translate(72.9633 66.6032) scale(0.004743) rotate(42.3432)"/>
<use xlink:href="#stroke0_5055_14466" transform="translate(73.3637 67.1896) scale(0.0043875) rotate(96.978)"/>
<use xlink:href="#stroke0_5055_14466" transform="translate(72.7076 67.1409) scale(0.0037243) rotate(71.2547)"/>
<use xlink:href="#stroke0_5055_14466" transform="translate(71.6889 67.188) scale(0.00389746) rotate(14.2797)"/>
<use xlink:href="#stroke0_5055_14466" transform="translate(72.5071 67.6572) scale(0.0039305) rotate(106.375)"/>
<use xlink:href="#stroke0_5055_14466" transform="translate(70.6185 68.5796) scale(0.00470542) rotate(-77.903)"/>
<use xlink:href="#stroke0_5055_14466" transform="translate(70.8425 67.4616) scale(0.00393246) rotate(19.1032)"/>
<use xlink:href="#stroke0_5055_14466" transform="translate(71.5275 67.5891) scale(0.00490472) rotate(85.3408)"/>
<use xlink:href="#stroke0_5055_14466" transform="translate(69.7264 68.6131) scale(0.00391519) rotate(-62.5953)"/>
<use xlink:href="#stroke0_5055_14466" transform="translate(71.1331 69.0072) scale(0.00520455) rotate(158.358)"/>
<use xlink:href="#stroke0_5055_14466" transform="translate(69.268 69.5549) scale(0.00515703) rotate(-108.437)"/>
<use xlink:href="#stroke0_5055_14466" transform="translate(70.2661 69.4251) scale(0.00525797) rotate(169.916)"/>
<use xlink:href="#stroke0_5055_14466" transform="translate(68.552 69.4267) scale(0.00381806) rotate(-95.9179)"/>
<use xlink:href="#stroke0_5055_14466" transform="translate(69.7112 69.1242) scale(0.00462832) rotate(142.756)"/>
<use xlink:href="#stroke0_5055_14466" transform="translate(67.8521 69.5196) scale(0.00384315) rotate(-87.4738)"/>
<use xlink:href="#stroke0_5055_14466" transform="translate(67.6058 68.3801) scale(0.00444917) rotate(3.89731)"/>
<use xlink:href="#stroke0_5055_14466" transform="translate(68.0851 69.9173) scale(0.0037097) rotate(-155.568)"/>
<use xlink:href="#stroke0_5055_14466" transform="translate(67.5308 70.2881) scale(0.00494177) rotate(-137.995)"/>
<use xlink:href="#stroke0_5055_14466" transform="translate(66.564 68.4706) scale(0.00524582) rotate(7.57596)"/>
<use xlink:href="#stroke0_5055_14466" transform="translate(67.4419 68.7175) scale(0.00477744) rotate(82.4391)"/>
<use xlink:href="#stroke0_5055_14466" transform="translate(65.8877 68.9763) scale(0.00394329) rotate(-4.85405)"/>
<use xlink:href="#stroke0_5055_14466" transform="translate(65.157 69.485) scale(0.00485321) rotate(-41.1247)"/>
<use xlink:href="#stroke0_5055_14466" transform="translate(64.8671 69.4442) scale(0.00465962) rotate(-33.3123)"/>
<use xlink:href="#stroke0_5055_14466" transform="translate(65.0478 70.5304) scale(0.00420106) rotate(-109.983)"/>
<use xlink:href="#stroke0_5055_14466" transform="translate(65.8026 70.6941) scale(0.00531111) rotate(-177.919)"/>
<use xlink:href="#stroke0_5055_14466" transform="translate(65.0196 68.8754) scale(0.00535043) rotate(57.5496)"/>
<use xlink:href="#stroke0_5055_14466" transform="translate(63.4969 70.5675) scale(0.00487088) rotate(-82.2468)"/>
<use xlink:href="#stroke0_5055_14466" transform="translate(64.5735 69.5455) scale(0.00377662) rotate(88.2302)"/>
<use xlink:href="#stroke0_5055_14466" transform="translate(64.19 69.1536) scale(0.00546286) rotate(69.5366)"/>
<use xlink:href="#stroke0_5055_14466" transform="translate(62.3362 70.4836) scale(0.00476198) rotate(-64.3685)"/>
<use xlink:href="#stroke0_5055_14466" transform="translate(62.5298 69.6833) scale(0.00357473) rotate(4.88344)"/>
<use xlink:href="#stroke0_5055_14466" transform="translate(61.7122 70.22) scale(0.0046345) rotate(-41.9889)"/>
<use xlink:href="#stroke0_5055_14466" transform="translate(61.577 70.9048) scale(0.00439326) rotate(-83.3826)"/>
<use xlink:href="#stroke0_5055_14466" transform="translate(60.8336 70.2615) scale(0.0054839) rotate(-38.8819)"/>
<use xlink:href="#stroke0_5055_14466" transform="translate(62.108 71.0992) scale(0.00378951) rotate(-179.356)"/>
<use xlink:href="#stroke0_5055_14466" transform="translate(61.6233 71.4292) scale(0.00453902) rotate(-159.725)"/>
<use xlink:href="#stroke0_5055_14466" transform="translate(60.9025 69.5704) scale(0.00506773) rotate(40.1603)"/>
<use xlink:href="#stroke0_5055_14466" transform="translate(60.4148 71.4587) scale(0.00395153) rotate(-126.547)"/>
<use xlink:href="#stroke0_5055_14466" transform="translate(59.7667 70.1706) scale(0.0036543) rotate(-3.36119)"/>
<use xlink:href="#stroke0_5055_14466" transform="translate(60.5527 70.1174) scale(0.00405346) rotate(82.5858)"/>
<use xlink:href="#stroke0_5055_14466" transform="translate(58.9208 71.4123) scale(0.0047453) rotate(-88.2164)"/>
<use xlink:href="#stroke0_5055_14466" transform="translate(60.0077 70.2858) scale(0.00421104) rotate(92.2443)"/>
<use xlink:href="#stroke0_5055_14466" transform="translate(58.7124 69.8871) scale(0.00498977) rotate(25.8321)"/>
<use xlink:href="#stroke0_5055_14466" transform="translate(59.1604 70.1449) scale(0.00457361) rotate(76.0303)"/>
<use xlink:href="#stroke0_5055_14466" transform="translate(58.6066 71.7416) scale(0.00410019) rotate(-160.22)"/>
<use xlink:href="#stroke0_5055_14466" transform="translate(57.5515 70.2856) scale(0.00402737) rotate(9.73426)"/>
<use xlink:href="#stroke0_5055_14466" transform="translate(57.0125 70.5702) scale(0.00394329) rotate(-14.7097)"/>
<use xlink:href="#stroke0_5055_14466" transform="translate(56.5425 70.4616) scale(0.00488302) rotate(-12.3111)"/>
<use xlink:href="#stroke0_5055_14466" transform="translate(56.8578 71.9555) scale(0.00426828) rotate(-128.901)"/>
<use xlink:href="#stroke0_5055_14466" transform="translate(56.6662 70.038) scale(0.00527152) rotate(42.6326)"/>
<use xlink:href="#stroke0_5055_14466" transform="translate(56.0379 70.2558) scale(0.00451125) rotate(26.9447)"/>
<use xlink:href="#stroke0_5055_14466" transform="translate(56.9153 71.2019) scale(0.00486943) rotate(132.448)"/>
<use xlink:href="#stroke0_5055_14466" transform="translate(54.7506 70.9428) scale(0.00419039) rotate(-30.5613)"/>
<use xlink:href="#stroke0_5055_14466" transform="translate(56.2507 70.9322) scale(0.00525674) rotate(115.13)"/>
<use xlink:href="#stroke0_5055_14466" transform="translate(55.6367 71.2709) scale(0.00372302) rotate(132.354)"/>
<use xlink:href="#stroke0_5055_14466" transform="translate(55.2234 72.1081) scale(0.00525632) rotate(-178.596)"/>
<use xlink:href="#stroke0_5055_14466" transform="translate(55.0454 70.8159) scale(0.00501294) rotate(103.305)"/>
<use xlink:href="#stroke0_5055_14466" transform="translate(52.8291 71.4434) scale(0.00461262) rotate(-56.0174)"/>
<use xlink:href="#stroke0_5055_14466" transform="translate(54.1733 70.8854) scale(0.00420032) rotate(99.9372)"/>
<use xlink:href="#stroke0_5055_14466" transform="translate(53.2913 72.2119) scale(0.00427376) rotate(-150.241)"/>
<use xlink:href="#stroke0_5055_14466" transform="translate(52.5642 72.2593) scale(0.00447787) rotate(-125.045)"/>
<use xlink:href="#stroke0_5055_14466" transform="translate(52.8649 72.013) scale(0.00365071) rotate(-170.335)"/>
<use xlink:href="#stroke0_5055_14466" transform="translate(52.5758 70.4475) scale(0.00502415) rotate(66.4838)"/>
<use xlink:href="#stroke0_5055_14466" transform="translate(52.4063 70.6806) scale(0.0046417) rotate(83.1412)"/>
<use xlink:href="#stroke0_5055_14466" transform="translate(50.5596 71.3747) scale(0.00424519) rotate(-46.9071)"/>
<use xlink:href="#stroke0_5055_14466" transform="translate(50.6285 70.4435) scale(0.00515689) rotate(16.5243)"/>
<use xlink:href="#stroke0_5055_14466" transform="translate(49.9218 72.2082) scale(0.00532967) rotate(-95.2238)"/>
<use xlink:href="#stroke0_5055_14466" transform="translate(50.1117 72.1354) scale(0.00366798) rotate(-121.707)"/>
<use xlink:href="#stroke0_5055_14466" transform="translate(50.8981 70.8951) scale(0.00505199) rotate(101.48)"/>
<use xlink:href="#stroke0_5055_14466" transform="translate(49.5337 70.5605) scale(0.0041766) rotate(34.0626)"/>
<use xlink:href="#stroke0_5055_14466" transform="translate(50.2614 71.2816) scale(0.00469158) rotate(123.722)"/>
<use xlink:href="#stroke0_5055_14466" transform="translate(48.4062 71.8622) scale(0.00359093) rotate(-86.6031)"/>
<use xlink:href="#stroke0_5055_14466" transform="translate(49.7388 71.6044) scale(0.00539918) rotate(141.908)"/>
<use xlink:href="#stroke0_5055_14466" transform="translate(48.1291 72.4086) scale(0.00496655) rotate(-131.663)"/>
<use xlink:href="#stroke0_5055_14466" transform="translate(47.1867 71.7285) scale(0.00391418) rotate(-73.7974)"/>
<use xlink:href="#stroke0_5055_14466" transform="translate(48.1137 71.9403) scale(0.00361634) rotate(-179.423)"/>
<use xlink:href="#stroke0_5055_14466" transform="translate(46.8103 71.9486) scale(0.0038284) rotate(-96.0968)"/>
<use xlink:href="#stroke0_5055_14466" transform="translate(46.5529 70.3417) scale(0.00536473) rotate(17.979)"/>
<use xlink:href="#stroke0_5055_14466" transform="translate(46.5954 70.5141) scale(0.00401678) rotate(38.6689)"/>
<use xlink:href="#stroke0_5055_14466" transform="translate(47.1162 71.4033) scale(0.00379926) rotate(137.069)"/>
<use xlink:href="#stroke0_5055_14466" transform="translate(46.69 71.8216) scale(0.00400635) rotate(169.644)"/>
<use xlink:href="#stroke0_5055_14466" transform="translate(46.7143 71.5515) scale(0.00511056) rotate(145.668)"/>
<use xlink:href="#stroke0_5055_14466" transform="translate(45.1855 71.9987) scale(0.00362934) rotate(-125.002)"/>
<use xlink:href="#stroke0_5055_14466" transform="translate(44.1997 70.8937) scale(0.004492) rotate(-25.7185)"/>
<use xlink:href="#stroke0_5055_14466" transform="translate(44.1875 70.7093) scale(0.00369635) rotate(-5.18173)"/>
<use xlink:href="#stroke0_5055_14466" transform="translate(45.2447 70.4493) scale(0.00555175) rotate(89.8734)"/>
<use xlink:href="#stroke0_5055_14466" transform="translate(43.9065 70.45) scale(0.00360966) rotate(30.8239)"/>
<use xlink:href="#stroke0_5055_14466" transform="translate(44.5171 71.3114) scale(0.00373645) rotate(142.947)"/>
<use xlink:href="#stroke0_5055_14466" transform="translate(43.1086 71.9296) scale(0.00423539) rotate(-114.856)"/>
<use xlink:href="#stroke0_5055_14466" transform="translate(42.5456 71.8571) scale(0.00461906) rotate(-101.234)"/>
<use xlink:href="#stroke0_5055_14466" transform="translate(42.8333 71.8876) scale(0.00397286) rotate(-141.188)"/>
<use xlink:href="#stroke0_5055_14466" transform="translate(42.4176 71.8627) scale(0.00400957) rotate(-133.269)"/>
<use xlink:href="#stroke0_5055_14466" transform="translate(41.8284 71.9885) scale(0.00502853) rotate(-120.313)"/>
<use xlink:href="#stroke0_5055_14466" transform="translate(40.8727 71.3102) scale(0.00473118) rotate(-69.2985)"/>
<use xlink:href="#stroke0_5055_14466" transform="translate(42.0398 71.4999) scale(0.00398445) rotate(175.584)"/>
<use xlink:href="#stroke0_5055_14466" transform="translate(41.5278 71.6225) scale(0.00399489) rotate(-166.036)"/>
<use xlink:href="#stroke0_5055_14466" transform="translate(40.3127 71.4035) scale(0.00374404) rotate(-93.7541)"/>
<use xlink:href="#stroke0_5055_14466" transform="translate(40.2988 69.8579) scale(0.00479545) rotate(27.6248)"/>
<use xlink:href="#stroke0_5055_14466" transform="translate(41.0465 71.2847) scale(0.00495516) rotate(161.829)"/>
<use xlink:href="#stroke0_5055_14466" transform="translate(40.3649 70.1505) scale(0.0037848) rotate(84.0665)"/>
<use xlink:href="#stroke0_5055_14466" transform="translate(39.7268 71.4996) scale(0.00408049) rotate(-151.541)"/>
<use xlink:href="#stroke0_5055_14466" transform="translate(38.0885 70.7268) scale(0.00533713) rotate(-53.6929)"/>
<use xlink:href="#stroke0_5055_14466" transform="translate(39.3137 69.6495) scale(0.00514881) rotate(71.1734)"/>
<use xlink:href="#stroke0_5055_14466" transform="translate(37.9588 69.8417) scale(0.00403142) rotate(5.67523)"/>
<use xlink:href="#stroke0_5055_14466" transform="translate(38.1583 69.6579) scale(0.00393178) rotate(42.3019)"/>
<use xlink:href="#stroke0_5055_14466" transform="translate(37.5789 71.4335) scale(0.0050923) rotate(-126.16)"/>
<use xlink:href="#stroke0_5055_14466" transform="translate(36.5619 70.2735) scale(0.00432747) rotate(-43.737)"/>
<use xlink:href="#stroke0_5055_14466" transform="translate(37.4413 71.1687) scale(0.00455531) rotate(-158.926)"/>
<use xlink:href="#stroke0_5055_14466" transform="translate(37.2027 69.4002) scale(0.00452309) rotate(68.6904)"/>
<use xlink:href="#stroke0_5055_14466" transform="translate(36.6741 69.3968) scale(0.00388832) rotate(56.7382)"/>
<use xlink:href="#stroke0_5055_14466" transform="translate(37.0998 70.1439) scale(0.00464858) rotate(133.621)"/>
<use xlink:href="#stroke0_5055_14466" transform="translate(35.1436 70.6241) scale(0.00429565) rotate(-89.9352)"/>
<use xlink:href="#stroke0_5055_14466" transform="translate(36.0559 70.6016) scale(0.00408803) rotate(179.435)"/>
<use xlink:href="#stroke0_5055_14466" transform="translate(34.1258 69.6338) scale(0.00514232) rotate(-33.7987)"/>
<use xlink:href="#stroke0_5055_14466" transform="translate(34.1256 69.4196) scale(0.00389616) rotate(-17.6523)"/>
<use xlink:href="#stroke0_5055_14466" transform="translate(33.8933 69.3299) scale(0.00376057) rotate(-13.9746)"/>
<use xlink:href="#stroke0_5055_14466" transform="translate(33.7009 68.8167) scale(0.00493007) rotate(11.5419)"/>
<use xlink:href="#stroke0_5055_14466" transform="translate(33.8165 70.6496) scale(0.00505018) rotate(-137.652)"/>
<use xlink:href="#stroke0_5055_14466" transform="translate(32.7375 69.9249) scale(0.00414114) rotate(-76.2482)"/>
<use xlink:href="#stroke0_5055_14466" transform="translate(32.5172 69.7784) scale(0.00367746) rotate(-73.5469)"/>
<use xlink:href="#stroke0_5055_14466" transform="translate(32.2073 68.4746) scale(0.00543059) rotate(5.14334)"/>
<use xlink:href="#stroke0_5055_14466" transform="translate(33.3421 69.1876) scale(0.00402583) rotate(124.518)"/>
<use xlink:href="#stroke0_5055_14466" transform="translate(32.9599 68.4975) scale(0.00509097) rotate(89.4038)"/>
<use xlink:href="#stroke0_5055_14466" transform="translate(32.4797 68.6732) scale(0.00370244) rotate(96.2583)"/>
<use xlink:href="#stroke0_5055_14466" transform="translate(32.3846 69.0639) scale(0.00393033) rotate(133.431)"/>
<use xlink:href="#stroke0_5055_14466" transform="translate(30.8644 69.6579) scale(0.00398571) rotate(-107.606)"/>
<use xlink:href="#stroke0_5055_14466" transform="translate(31.5119 69.7274) scale(0.00498677) rotate(-171.103)"/>
<use xlink:href="#stroke0_5055_14466" transform="translate(29.7456 68.6505) scale(0.00427825) rotate(-41.2808)"/>
<use xlink:href="#stroke0_5055_14466" transform="translate(31.233 68.8287) scale(0.00464316) rotate(141.255)"/>
<use xlink:href="#stroke0_5055_14466" transform="translate(29.3709 69.0027) scale(0.00365622) rotate(-83.4027)"/>
<use xlink:href="#stroke0_5055_14466" transform="translate(29.7845 69.3126) scale(0.00402902) rotate(-143.767)"/>
<use xlink:href="#stroke0_5055_14466" transform="translate(29.6731 69.2819) scale(0.00453568) rotate(-155.57)"/>
<use xlink:href="#stroke0_5055_14466" transform="translate(28.5854 67.7239) scale(0.00372821) rotate(-0.777487)"/>
<use xlink:href="#stroke0_5055_14466" transform="translate(29.5928 68.7794) scale(0.00484818) rotate(167.636)"/>
<use xlink:href="#stroke0_5055_14466" transform="translate(28.9924 68.6707) scale(0.00380037) rotate(179.956)"/>
<use xlink:href="#stroke0_5055_14466" transform="translate(27.8922 68.9775) scale(0.00503564) rotate(-123.811)"/>
<use xlink:href="#stroke0_5055_14466" transform="translate(28.5966 68.4829) scale(0.00494206) rotate(169.85)"/>
<use xlink:href="#stroke0_5055_14466" transform="translate(28.2975 67.568) scale(0.00407025) rotate(119.923)"/>
<use xlink:href="#stroke0_5055_14466" transform="translate(27.926 67.2527) scale(0.00403893) rotate(104.565)"/>
<use xlink:href="#stroke0_5055_14466" transform="translate(26.1543 67.27) scale(0.00383631) rotate(-29.9071)"/>
<use xlink:href="#stroke0_5055_14466" transform="translate(26.8133 68.3262) scale(0.00456994) rotate(-151.516)"/>
<use xlink:href="#stroke0_5055_14466" transform="translate(25.7064 66.7041) scale(0.00405221) rotate(-3.81028)"/>
<use xlink:href="#stroke0_5055_14466" transform="translate(25.2516 67.9275) scale(0.00511006) rotate(-95.1539)"/>
<use xlink:href="#stroke0_5055_14466" transform="translate(24.6951 67.5011) scale(0.00504089) rotate(-76.3511)"/>
<use xlink:href="#stroke0_5055_14466" transform="translate(25.4224 67.8964) scale(0.0050476) rotate(-147.752)"/>
<use xlink:href="#stroke0_5055_14466" transform="translate(23.8791 66.5822) scale(0.00502881) rotate(-40.8433)"/>
<use xlink:href="#stroke0_5055_14466" transform="translate(23.6744 66.8048) scale(0.00450706) rotate(-62.69)"/>
<use xlink:href="#stroke0_5055_14466" transform="translate(25.0503 66.0455) scale(0.00427502) rotate(104.58)"/>
<use xlink:href="#stroke0_5055_14466" transform="translate(23.2937 66.643) scale(0.0037179) rotate(-73.8239)"/>
<use xlink:href="#stroke0_5055_14466" transform="translate(22.9247 66.2246) scale(0.00387925) rotate(-50.6362)"/>
<use xlink:href="#stroke0_5055_14466" transform="translate(22.8561 66.6342) scale(0.00398731) rotate(-92.0395)"/>
<use xlink:href="#stroke0_5055_14466" transform="translate(22.9172 65.2442) scale(0.00366006) rotate(20.0959)"/>
<use xlink:href="#stroke0_5055_14466" transform="translate(23.1476 66.7765) scale(0.00488246) rotate(-153.062)"/>
<use xlink:href="#stroke0_5055_14466" transform="translate(23.5128 65.8403) scale(0.00469513) rotate(143.317)"/>
<use xlink:href="#stroke0_5055_14466" transform="translate(21.1344 65.2839) scale(0.00537368) rotate(-39.0294)"/>
<use xlink:href="#stroke0_5055_14466" transform="translate(22.8366 64.7731) scale(0.00532706) rotate(103.785)"/>
<use xlink:href="#stroke0_5055_14466" transform="translate(20.9843 64.0883) scale(0.0054679) rotate(14.058)"/>
<use xlink:href="#stroke0_5055_14466" transform="translate(21.0053 65.6564) scale(0.00369229) rotate(-124.314)"/>
<use xlink:href="#stroke0_5055_14466" transform="translate(21.1288 65.6486) scale(0.00438157) rotate(-151.749)"/>
<use xlink:href="#stroke0_5055_14466" transform="translate(20.1855 63.5431) scale(0.0054545) rotate(19.7627)"/>
<use xlink:href="#stroke0_5055_14466" transform="translate(20.7122 65.3365) scale(0.00514316) rotate(-164.422)"/>
<use xlink:href="#stroke0_5055_14466" transform="translate(19.4351 63.3371) scale(0.00477143) rotate(11.5358)"/>
<use xlink:href="#stroke0_5055_14466" transform="translate(18.9555 63.5568) scale(0.00399605) rotate(-14.7888)"/>
<use xlink:href="#stroke0_5055_14466" transform="translate(19.5731 64.8834) scale(0.00524599) rotate(-150.963)"/>
<use xlink:href="#stroke0_5055_14466" transform="translate(18.466 64.2142) scale(0.00396849) rotate(-93.219)"/>
<use xlink:href="#stroke0_5055_14466" transform="translate(17.913 64.1579) scale(0.00533636) rotate(-89.1066)"/>
<use xlink:href="#stroke0_5055_14466" transform="translate(18.291 62.0867) scale(0.0055043) rotate(35.6454)"/>
<use xlink:href="#stroke0_5055_14466" transform="translate(18.4221 63.7361) scale(0.00381736) rotate(-161.667)"/>
<use xlink:href="#stroke0_5055_14466" transform="translate(18.8749 63.1565) scale(0.00534789) rotate(149.65)"/>
<use xlink:href="#stroke0_5055_14466" transform="translate(18.3185 63.0341) scale(0.00440883) rotate(160.58)"/>
<use xlink:href="#stroke0_5055_14466" transform="translate(17.7054 61.8049) scale(0.0035886) rotate(76.4229)"/>
<use xlink:href="#stroke0_5055_14466" transform="translate(18.0795 61.864) scale(0.00545453) rotate(113.871)"/>
<use xlink:href="#stroke0_5055_14466" transform="translate(17.343 61.0729) scale(0.00532106) rotate(78.2604)"/>
<use xlink:href="#stroke0_5055_14466" transform="translate(16.4553 60.7633) scale(0.00460945) rotate(45.3681)"/>
<use xlink:href="#stroke0_5055_14466" transform="translate(15.4137 61.7485) scale(0.00374266) rotate(-66.8938)"/>
<use xlink:href="#stroke0_5055_14466" transform="translate(15.3403 60.3332) scale(0.00532399) rotate(11.6425)"/>
<use xlink:href="#stroke0_5055_14466" transform="translate(15.712 60.2347) scale(0.00398731) rotate(48.0991)"/>
<use xlink:href="#stroke0_5055_14466" transform="translate(15.4413 60.0564) scale(0.00385558) rotate(44.9055)"/>
<use xlink:href="#stroke0_5055_14466" transform="translate(15.0838 59.9114) scale(0.00364304) rotate(33.8087)"/>
<use xlink:href="#stroke0_5055_14466" transform="translate(15.769 60.9886) scale(0.00479923) rotate(165.507)"/>
<use xlink:href="#stroke0_5055_14466" transform="translate(15.4881 60.0954) scale(0.00378529) rotate(123.203)"/>
<use xlink:href="#stroke0_5055_14466" transform="translate(13.3467 60.005) scale(0.00544945) rotate(-51.1473)"/>
<use xlink:href="#stroke0_5055_14466" transform="translate(14.6257 60.4605) scale(0.00425693) rotate(-166.843)"/>
<use xlink:href="#stroke0_5055_14466" transform="translate(14.5373 58.5778) scale(0.00497753) rotate(74.7756)"/>
<use xlink:href="#stroke0_5055_14466" transform="translate(13.5608 58.3019) scale(0.0042943) rotate(29.9644)"/>
<use xlink:href="#stroke0_5055_14466" transform="translate(13.0177 58.1308) scale(0.00450814) rotate(8.93497)"/>
<use xlink:href="#stroke0_5055_14466" transform="translate(13.8956 58.2213) scale(0.00357498) rotate(93.0075)"/>
<use xlink:href="#stroke0_5055_14466" transform="translate(13.8531 58.9007) scale(0.00410471) rotate(163.396)"/>
<use xlink:href="#stroke0_5055_14466" transform="translate(13.3483 58.9244) scale(0.00399856) rotate(-167.996)"/>
<use xlink:href="#stroke0_5055_14466" transform="translate(13.7845 58.3299) scale(0.00552268) rotate(152.716)"/>
<use xlink:href="#stroke0_5055_14466" transform="translate(11.8263 57.3931) scale(0.00358946) rotate(-29.3399)"/>
<use xlink:href="#stroke0_5055_14466" transform="translate(11.6466 58.1655) scale(0.00513562) rotate(-97.972)"/>
<use xlink:href="#stroke0_5055_14466" transform="translate(12.2966 56.1997) scale(0.00426483) rotate(51.9211)"/>
<use xlink:href="#stroke0_5055_14466" transform="translate(11.0746 56.62) scale(0.00438146) rotate(-38.0914)"/>
<use xlink:href="#stroke0_5055_14466" transform="translate(12.7374 56.5612) scale(0.004636) rotate(135.575)"/>
<use xlink:href="#stroke0_5055_14466" transform="translate(12.1879 55.2819) scale(0.00515413) rotate(75.0481)"/>
<use xlink:href="#stroke0_5055_14466" transform="translate(12.3312 56.2117) scale(0.00479137) rotate(154.135)"/>
<use xlink:href="#stroke0_5055_14466" transform="translate(10.9183 54.5436) scale(0.00493676) rotate(21.9465)"/>
<use xlink:href="#stroke0_5055_14466" transform="translate(10.4104 54.5586) scale(0.00450188) rotate(-6.98786)"/>
<use xlink:href="#stroke0_5055_14466" transform="translate(11.6895 55.2832) scale(0.00400268) rotate(160.968)"/>
<use xlink:href="#stroke0_5055_14466" transform="translate(11.6874 54.0502) scale(0.00479735) rotate(99.7936)"/>
<use xlink:href="#stroke0_5055_14466" transform="translate(10.2544 53.176) scale(0.00544967) rotate(17.5183)"/>
<use xlink:href="#stroke0_5055_14466" transform="translate(9.66418 53.2965) scale(0.00511864) rotate(-18.7901)"/>
<use xlink:href="#stroke0_5055_14466" transform="translate(9.68305 53.6202) scale(0.00390828) rotate(-57.7332)"/>
<use xlink:href="#stroke0_5055_14466" transform="translate(10.4824 52.0412) scale(0.005409) rotate(46.5751)"/>
<use xlink:href="#stroke0_5055_14466" transform="translate(10.3633 53.5779) scale(0.003739) rotate(-143.422)"/>
<use xlink:href="#stroke0_5055_14466" transform="translate(9.77466 51.8883) scale(0.00384017) rotate(5.59284)"/>
<use xlink:href="#stroke0_5055_14466" transform="translate(10.9848 52.0374) scale(0.00402436) rotate(117.592)"/>
<use xlink:href="#stroke0_5055_14466" transform="translate(10.6095 52.5869) scale(0.00392419) rotate(-174.92)"/>
<use xlink:href="#stroke0_5055_14466" transform="translate(9.61287 52.5711) scale(0.00529566) rotate(-113.013)"/>
<use xlink:href="#stroke0_5055_14466" transform="translate(10.754 50.9082) scale(0.00380178) rotate(106.051)"/>
<use xlink:href="#stroke0_5055_14466" transform="translate(9.18562 50.2463) scale(0.00516423) rotate(-10.4226)"/>
<use xlink:href="#stroke0_5055_14466" transform="translate(10.7282 50.9044) scale(0.0038945) rotate(156.996)"/>
<use xlink:href="#stroke0_5055_14466" transform="translate(10.7602 50.3164) scale(0.00370071) rotate(135.051)"/>
<use xlink:href="#stroke0_5055_14466" transform="translate(10.8037 50.6598) scale(0.00528093) rotate(173.989)"/>
<use xlink:href="#stroke0_5055_14466" transform="translate(9.04343 49.3951) scale(0.00479451) rotate(-40.1183)"/>
<use xlink:href="#stroke0_5055_14466" transform="translate(9.67309 50.2289) scale(0.005562) rotate(-119.423)"/>
<use xlink:href="#stroke0_5055_14466" transform="translate(10.489 49.7388) scale(0.00522278) rotate(-160.137)"/>
<use xlink:href="#stroke0_5055_14466" transform="translate(10.5418 49.2329) scale(0.00461763) rotate(-163.054)"/>
<use xlink:href="#stroke0_5055_14466" transform="translate(10.5019 46.9506) scale(0.00527196) rotate(56.7586)"/>
<use xlink:href="#stroke0_5055_14466" transform="translate(11.2031 47.6894) scale(0.00443921) rotate(134.795)"/>
<use xlink:href="#stroke0_5055_14466" transform="translate(9.96235 46.697) scale(0.00366272) rotate(9.2392)"/>
<use xlink:href="#stroke0_5055_14466" transform="translate(10.7189 46.23) scale(0.00418606) rotate(60.1969)"/>
<use xlink:href="#stroke0_5055_14466" transform="translate(9.59909 46.0899) scale(0.00545896) rotate(-16.0527)"/>
<use xlink:href="#stroke0_5055_14466" transform="translate(10.2318 47.1458) scale(0.00446458) rotate(-110.47)"/>
<use xlink:href="#stroke0_5055_14466" transform="translate(10.0714 46.8088) scale(0.0053278) rotate(-97.4179)"/>
<use xlink:href="#stroke0_5055_14466" transform="translate(10.1457 46.0069) scale(0.00417453) rotate(-73.262)"/>
<use xlink:href="#stroke0_5055_14466" transform="translate(10.1238 45.6598) scale(0.00482296) rotate(-67.7889)"/>
<use xlink:href="#stroke0_5055_14466" transform="translate(10.2844 45.0909) scale(0.00451766) rotate(-53.6757)"/>
<use xlink:href="#stroke0_5055_14466" transform="translate(10.8914 45.516) scale(0.00458811) rotate(-108.638)"/>
<use xlink:href="#stroke0_5055_14466" transform="translate(12.0242 43.9005) scale(0.00357485) rotate(86.185)"/>
<use xlink:href="#stroke0_5055_14466" transform="translate(10.9524 43.348) scale(0.00514652) rotate(-0.965458)"/>
<use xlink:href="#stroke0_5055_14466" transform="translate(11.2919 43.1466) scale(0.00423697) rotate(1.95045)"/>
<use xlink:href="#stroke0_5055_14466" transform="translate(11.3773 42.889) scale(0.00443315) rotate(-3.10406)"/>
<use xlink:href="#stroke0_5055_14466" transform="translate(11.3739 43.5752) scale(0.00427626) rotate(-69.5888)"/>
<use xlink:href="#stroke0_5055_14466" transform="translate(12.1281 42.2548) scale(0.00381133) rotate(23.6022)"/>
<use xlink:href="#stroke0_5055_14466" transform="translate(13.1854 41.9309) scale(0.00493422) rotate(79.5896)"/>
<use xlink:href="#stroke0_5055_14466" transform="translate(11.9124 42.8973) scale(0.00475872) rotate(-76.9881)"/>
<use xlink:href="#stroke0_5055_14466" transform="translate(13.6503 42.9471) scale(0.00506052) rotate(-177.13)"/>
<use xlink:href="#stroke0_5055_14466" transform="translate(13.4 42.6465) scale(0.00390957) rotate(-151.924)"/>
<use xlink:href="#stroke0_5055_14466" transform="translate(14.2675 41.2894) scale(0.00444199) rotate(110.226)"/>
<use xlink:href="#stroke0_5055_14466" transform="translate(13.0069 40.6041) scale(0.00477164) rotate(1.04662)"/>
<use xlink:href="#stroke0_5055_14466" transform="translate(14.1849 41.9638) scale(0.00452158) rotate(-157.772)"/>
<use xlink:href="#stroke0_5055_14466" transform="translate(14.364 40.0596) scale(0.004031) rotate(60.0881)"/>
<use xlink:href="#stroke0_5055_14466" transform="translate(14.774 40.0283) scale(0.00372787) rotate(79.5677)"/>
<use xlink:href="#stroke0_5055_14466" transform="translate(14.5408 41.349) scale(0.00459447) rotate(-139.79)"/>
<use xlink:href="#stroke0_5055_14466" transform="translate(13.9284 40.2786) scale(0.00405883) rotate(-56.1772)"/>
<use xlink:href="#stroke0_5055_14466" transform="translate(14.297 39.415) scale(0.00422123) rotate(-10.6277)"/>
<use xlink:href="#stroke0_5055_14466" transform="translate(14.6751 40.4478) scale(0.00439347) rotate(-101.611)"/>
<use xlink:href="#stroke0_5055_14466" transform="translate(15.6598 40.5254) scale(0.00515137) rotate(-147.937)"/>
<use xlink:href="#stroke0_5055_14466" transform="translate(14.9326 39.4235) scale(0.00408374) rotate(-60.9844)"/>
<use xlink:href="#stroke0_5055_14466" transform="translate(15.0083 38.9167) scale(0.00489527) rotate(-42.6461)"/>
<use xlink:href="#stroke0_5055_14466" transform="translate(16.5238 37.7507) scale(0.00510383) rotate(53.6552)"/>
<use xlink:href="#stroke0_5055_14466" transform="translate(15.8059 39.096) scale(0.00467254) rotate(-83.8655)"/>
<use xlink:href="#stroke0_5055_14466" transform="translate(17.5319 38.6157) scale(0.00361041) rotate(152.987)"/>
<use xlink:href="#stroke0_5055_14466" transform="translate(16.2333 38.2923) scale(0.00411827) rotate(-57.3045)"/>
<use xlink:href="#stroke0_5055_14466" transform="translate(16.6893 37.1352) scale(0.00510741) rotate(2.45228)"/>
<use xlink:href="#stroke0_5055_14466" transform="translate(18.1345 37.1194) scale(0.00392201) rotate(80.2895)"/>
<use xlink:href="#stroke0_5055_14466" transform="translate(17.0974 37.2974) scale(0.00400371) rotate(-29.3316)"/>
<use xlink:href="#stroke0_5055_14466" transform="translate(18.7636 38.0062) scale(0.00429394) rotate(175.814)"/>
<use xlink:href="#stroke0_5055_14466" transform="translate(17.4741 37.5496) scale(0.00491501) rotate(-69.4228)"/>
<use xlink:href="#stroke0_5055_14466" transform="translate(19.4635 36.5791) scale(0.00419363) rotate(102.527)"/>
<use xlink:href="#stroke0_5055_14466" transform="translate(19.9768 36.9918) scale(0.00484241) rotate(142.188)"/>
<use xlink:href="#stroke0_5055_14466" transform="translate(18.3925 36.7341) scale(0.00442201) rotate(-56.1277)"/>
<use xlink:href="#stroke0_5055_14466" transform="translate(19.9133 37.4191) scale(0.0050705) rotate(-156.113)"/>
<use xlink:href="#stroke0_5055_14466" transform="translate(20.285 37.0271) scale(0.00425996) rotate(-164.466)"/>
<use xlink:href="#stroke0_5055_14466" transform="translate(19.2144 36.5041) scale(0.0053603) rotate(-72.9699)"/>
<use xlink:href="#stroke0_5055_14466" transform="translate(19.8504 35.4557) scale(0.00384048) rotate(-16.8404)"/>
<use xlink:href="#stroke0_5055_14466" transform="translate(20.9372 36.5308) scale(0.00399139) rotate(-149.665)"/>
<use xlink:href="#stroke0_5055_14466" transform="translate(21.2944 36.3135) scale(0.00377715) rotate(-157.944)"/>
<use xlink:href="#stroke0_5055_14466" transform="translate(21.8544 36.1351) scale(0.00433151) rotate(-176.375)"/>
<use xlink:href="#stroke0_5055_14466" transform="translate(21.6113 36.1436) scale(0.0042247) rotate(-139.5)"/>
<use xlink:href="#stroke0_5055_14466" transform="translate(22.5021 35.6078) scale(0.00385176) rotate(168.441)"/>
<use xlink:href="#stroke0_5055_14466" transform="translate(21.7002 35.6525) scale(0.00379826) rotate(-105.593)"/>
<use xlink:href="#stroke0_5055_14466" transform="translate(22.4898 35.8641) scale(0.00495955) rotate(-142.368)"/>
<use xlink:href="#stroke0_5055_14466" transform="translate(22.6499 33.761) scale(0.00450889) rotate(35.4229)"/>
<use xlink:href="#stroke0_5055_14466" transform="translate(23.1243 33.7205) scale(0.00400339) rotate(47.2209)"/>
<use xlink:href="#stroke0_5055_14466" transform="translate(24.1417 34.8077) scale(0.00441552) rotate(157.908)"/>
<use xlink:href="#stroke0_5055_14466" transform="translate(23.0984 33.4852) scale(0.0045741) rotate(6.52157)"/>
<use xlink:href="#stroke0_5055_14466" transform="translate(24.6144 34.8423) scale(0.0047761) rotate(179.698)"/>
<use xlink:href="#stroke0_5055_14466" transform="translate(23.4646 34.4876) scale(0.00478238) rotate(-81.1357)"/>
<use xlink:href="#stroke0_5055_14466" transform="translate(23.6836 33.5949) scale(0.00470421) rotate(-35.6567)"/>
<use xlink:href="#stroke0_5055_14466" transform="translate(25.182 32.9699) scale(0.00370628) rotate(61.5796)"/>
<use xlink:href="#stroke0_5055_14466" transform="translate(25.3561 32.5241) scale(0.00505533) rotate(48.6227)"/>
<use xlink:href="#stroke0_5055_14466" transform="translate(26.0622 32.5816) scale(0.00469935) rotate(72.0396)"/>
<use xlink:href="#stroke0_5055_14466" transform="translate(26.7487 33.2218) scale(0.00420358) rotate(127.189)"/>
<use xlink:href="#stroke0_5055_14466" transform="translate(27.0238 33.6565) scale(0.00466963) rotate(162.486)"/>
<use xlink:href="#stroke0_5055_14466" transform="translate(26.5743 33.8529) scale(0.00395433) rotate(-143.494)"/>
<use xlink:href="#stroke0_5055_14466" transform="translate(26.4574 32.0298) scale(0.00467762) rotate(19.8349)"/>
<use xlink:href="#stroke0_5055_14466" transform="translate(27.8077 32.3907) scale(0.00391927) rotate(100.074)"/>
<use xlink:href="#stroke0_5055_14466" transform="translate(27.9032 32.1376) scale(0.00372028) rotate(83.1203)"/>
<use xlink:href="#stroke0_5055_14466" transform="translate(27.1114 31.9996) scale(0.00402545) rotate(-1.31072)"/>
<use xlink:href="#stroke0_5055_14466" transform="translate(28.3934 33.3632) scale(0.00465007) rotate(-164.024)"/>
<use xlink:href="#stroke0_5055_14466" transform="translate(27.4957 32.6224) scale(0.00403914) rotate(-64.7665)"/>
<use xlink:href="#stroke0_5055_14466" transform="translate(29.3677 32.391) scale(0.00386057) rotate(138.416)"/>
<use xlink:href="#stroke0_5055_14466" transform="translate(29.228 32.8527) scale(0.00364825) rotate(-168.682)"/>
<use xlink:href="#stroke0_5055_14466" transform="translate(29.036 32.8842) scale(0.00376413) rotate(-132.218)"/>
<use xlink:href="#stroke0_5055_14466" transform="translate(28.3534 32.1241) scale(0.00537341) rotate(-54.6281)"/>
<use xlink:href="#stroke0_5055_14466" transform="translate(30.5288 31.6199) scale(0.00385885) rotate(110.523)"/>
<use xlink:href="#stroke0_5055_14466" transform="translate(30.7213 31.0299) scale(0.00482235) rotate(79.984)"/>
<use xlink:href="#stroke0_5055_14466" transform="translate(29.7223 32.4771) scale(0.00526302) rotate(-94.8379)"/>
<use xlink:href="#stroke0_5055_14466" transform="translate(30.405 32.4659) scale(0.00476977) rotate(-112.23)"/>
<use xlink:href="#stroke0_5055_14466" transform="translate(31.7129 32.0477) scale(0.00381301) rotate(176.026)"/>
<use xlink:href="#stroke0_5055_14466" transform="translate(31.3483 30.3026) scale(0.00538757) rotate(34.0523)"/>
<use xlink:href="#stroke0_5055_14466" transform="translate(31.742 32.065) scale(0.00368467) rotate(-132.454)"/>
<use xlink:href="#stroke0_5055_14466" transform="translate(32.0477 32.0691) scale(0.00406701) rotate(-134.395)"/>
<use xlink:href="#stroke0_5055_14466" transform="translate(32.7913 31.9453) scale(0.00425555) rotate(-163.859)"/>
<use xlink:href="#stroke0_5055_14466" transform="translate(33.6352 30.5007) scale(0.0050508) rotate(98.5396)"/>
<use xlink:href="#stroke0_5055_14466" transform="translate(33.0642 29.9622) scale(0.00492193) rotate(37.7637)"/>
<use xlink:href="#stroke0_5055_14466" transform="translate(34.2514 30.1324) scale(0.00515602) rotate(86.4266)"/>
<use xlink:href="#stroke0_5055_14466" transform="translate(32.9254 30.5314) scale(0.00476152) rotate(-32.9887)"/>
<use xlink:href="#stroke0_5055_14466" transform="translate(33.9334 29.931) scale(0.00403924) rotate(22.864)"/>
<use xlink:href="#stroke0_5055_14466" transform="translate(35.2364 31.5618) scale(0.00557315) rotate(-174.985)"/>
<use xlink:href="#stroke0_5055_14466" transform="translate(35.04 31.3522) scale(0.00389565) rotate(-148.194)"/>
<use xlink:href="#stroke0_5055_14466" transform="translate(34.1899 30.5099) scale(0.00510867) rotate(-49.6651)"/>
<use xlink:href="#stroke0_5055_14466" transform="translate(35.0872 31.1016) scale(0.00410684) rotate(-102.486)"/>
<use xlink:href="#stroke0_5055_14466" transform="translate(36.298 29.304) scale(0.00535774) rotate(60.3286)"/>
<use xlink:href="#stroke0_5055_14466" transform="translate(35.826 29.4335) scale(0.00473032) rotate(10.9566)"/>
<use xlink:href="#stroke0_5055_14466" transform="translate(36.0103 30.6213) scale(0.00360108) rotate(-81.9606)"/>
<use xlink:href="#stroke0_5055_14466" transform="translate(37.5969 29.3885) scale(0.00488543) rotate(81.7385)"/>
<use xlink:href="#stroke0_5055_14466" transform="translate(37.7928 30.7947) scale(0.00420125) rotate(-174.412)"/>
<use xlink:href="#stroke0_5055_14466" transform="translate(37.3696 30.8297) scale(0.00399268) rotate(-122.661)"/>
<use xlink:href="#stroke0_5055_14466" transform="translate(38.8016 29.4906) scale(0.00486431) rotate(101.97)"/>
<use xlink:href="#stroke0_5055_14466" transform="translate(37.9327 28.8493) scale(0.00552512) rotate(21.4753)"/>
<use xlink:href="#stroke0_5055_14466" transform="translate(37.7466 29.338) scale(0.00539257) rotate(-20.9196)"/>
<use xlink:href="#stroke0_5055_14466" transform="translate(39.0773 30.7476) scale(0.00462635) rotate(-136.843)"/>
<use xlink:href="#stroke0_5055_14466" transform="translate(38.7036 28.9174) scale(0.00552892) rotate(-2.32953)"/>
<use xlink:href="#stroke0_5055_14466" transform="translate(40.6733 29.5021) scale(0.00407912) rotate(118.604)"/>
<use xlink:href="#stroke0_5055_14466" transform="translate(39.3474 29.4393) scale(0.00408892) rotate(-34.3758)"/>
<use xlink:href="#stroke0_5055_14466" transform="translate(40.0167 30.3725) scale(0.00436139) rotate(-107.462)"/>
<use xlink:href="#stroke0_5055_14466" transform="translate(41.6909 29.4697) scale(0.00431407) rotate(125.393)"/>
<use xlink:href="#stroke0_5055_14466" transform="translate(40.28 29.1369) scale(0.00460077) rotate(-24.6363)"/>
<use xlink:href="#stroke0_5055_14466" transform="translate(42.3327 29.3568) scale(0.00419242) rotate(123.049)"/>
<use xlink:href="#stroke0_5055_14466" transform="translate(41.864 30.2018) scale(0.00368448) rotate(-145.046)"/>
<use xlink:href="#stroke0_5055_14466" transform="translate(42.2494 28.4081) scale(0.00493242) rotate(49.5625)"/>
<use xlink:href="#stroke0_5055_14466" transform="translate(41.6438 29.7355) scale(0.00430489) rotate(-72.4792)"/>
<use xlink:href="#stroke0_5055_14466" transform="translate(41.8789 29.5905) scale(0.00458939) rotate(-63.7544)"/>
<use xlink:href="#stroke0_5055_14466" transform="translate(43.9705 29.344) scale(0.00412868) rotate(133.537)"/>
<use xlink:href="#stroke0_5055_14466" transform="translate(44.3853 29.8159) scale(0.00513494) rotate(161.825)"/>
<use xlink:href="#stroke0_5055_14466" transform="translate(43.4072 30.0737) scale(0.00452945) rotate(-110.725)"/>
<use xlink:href="#stroke0_5055_14466" transform="translate(43.2175 29.5087) scale(0.00499058) rotate(-64.8624)"/>
<use xlink:href="#stroke0_5055_14466" transform="translate(45.096 28.6844) scale(0.00369959) rotate(89.1458)"/>
<use xlink:href="#stroke0_5055_14466" transform="translate(44.7377 30.0374) scale(0.00421433) rotate(-132.29)"/>
<use xlink:href="#stroke0_5055_14466" transform="translate(45.4547 29.8343) scale(0.00365181) rotate(-164.002)"/>
<use xlink:href="#stroke0_5055_14466" transform="translate(46.2959 28.4109) scale(0.00531852) rotate(90.0412)"/>
<use xlink:href="#stroke0_5055_14466" transform="translate(44.9329 29.0004) scale(0.00448657) rotate(-41.6021)"/>
<use xlink:href="#stroke0_5055_14466" transform="translate(46.6741 28.149) scale(0.00510775) rotate(67.408)"/>
<use xlink:href="#stroke0_5055_14466" transform="translate(47.3502 28.5613) scale(0.00450994) rotate(97.6841)"/>
<use xlink:href="#stroke0_5055_14466" transform="translate(47.0304 28.1565) scale(0.00443347) rotate(48.4576)"/>
<use xlink:href="#stroke0_5055_14466" transform="translate(46.9123 27.966) scale(0.00558325) rotate(21.667)"/>
<use xlink:href="#stroke0_5055_14466" transform="translate(48.7127 29.3187) scale(0.00507466) rotate(147.211)"/>
<use xlink:href="#stroke0_5055_14466" transform="translate(47.5555 28.2496) scale(0.00452967) rotate(7.59679)"/>
<use xlink:href="#stroke0_5055_14466" transform="translate(47.9656 29.9419) scale(0.00505075) rotate(-111.578)"/>
<use xlink:href="#stroke0_5055_14466" transform="translate(48.0645 29.3014) scale(0.00371375) rotate(-71.0192)"/>
<use xlink:href="#stroke0_5055_14466" transform="translate(48.412 28.5883) scale(0.00372251) rotate(-15.5727)"/>
<use xlink:href="#stroke0_5055_14466" transform="translate(48.9319 28.1268) scale(0.00477704) rotate(14.3704)"/>
<use xlink:href="#stroke0_5055_14466" transform="translate(48.7221 29.2595) scale(0.0051992) rotate(-62.6092)"/>
<use xlink:href="#stroke0_5055_14466" transform="translate(50.6739 28.0393) scale(0.00528986) rotate(69.4414)"/>
<use xlink:href="#stroke0_5055_14466" transform="translate(51.6692 29.2686) scale(0.00547619) rotate(145.083)"/>
<use xlink:href="#stroke0_5055_14466" transform="translate(51.2202 28.2521) scale(0.00391887) rotate(62.2826)"/>
<use xlink:href="#stroke0_5055_14466" transform="translate(50.3743 29.2862) scale(0.00447277) rotate(-66.0453)"/>
<use xlink:href="#stroke0_5055_14466" transform="translate(51.1181 29.6862) scale(0.00393304) rotate(-104.483)"/>
<use xlink:href="#stroke0_5055_14466" transform="translate(51.0389 29.4989) scale(0.0047923) rotate(-77.4054)"/>
<use xlink:href="#stroke0_5055_14466" transform="translate(52.9393 28.3604) scale(0.00463723) rotate(86.5615)"/>
<use xlink:href="#stroke0_5055_14466" transform="translate(53.4856 29.1417) scale(0.00430614) rotate(137.718)"/>
<use xlink:href="#stroke0_5055_14466" transform="translate(53.8854 29.0353) scale(0.0045767) rotate(130.113)"/>
<use xlink:href="#stroke0_5055_14466" transform="translate(53.4096 28.1067) scale(0.00471748) rotate(48.0337)"/>
<use xlink:href="#stroke0_5055_14466" transform="translate(52.6399 28.8231) scale(0.00518526) rotate(-34.2068)"/>
<use xlink:href="#stroke0_5055_14466" transform="translate(53.2246 29.7357) scale(0.00508779) rotate(-85.428)"/>
<use xlink:href="#stroke0_5055_14466" transform="translate(55.3556 28.8329) scale(0.0046916) rotate(113.549)"/>
<use xlink:href="#stroke0_5055_14466" transform="translate(55.1984 29.7351) scale(0.00358235) rotate(-175.829)"/>
<use xlink:href="#stroke0_5055_14466" transform="translate(55.972 29.3229) scale(0.00449508) rotate(141.038)"/>
<use xlink:href="#stroke0_5055_14466" transform="translate(55.8213 29.8585) scale(0.00389545) rotate(-172.102)"/>
<use xlink:href="#stroke0_5055_14466" transform="translate(55.5535 28.1269) scale(0.00536017) rotate(32.2267)"/>
<use xlink:href="#stroke0_5055_14466" transform="translate(56.1329 28.4275) scale(0.00397319) rotate(44.9672)"/>
<use xlink:href="#stroke0_5055_14466" transform="translate(55.5983 28.9739) scale(0.00410976) rotate(-28.1595)"/>
<use xlink:href="#stroke0_5055_14466" transform="translate(57.5015 29.4342) scale(0.00395972) rotate(141.163)"/>
<use xlink:href="#stroke0_5055_14466" transform="translate(57.6955 30.1483) scale(0.00509558) rotate(-177.103)"/>
<use xlink:href="#stroke0_5055_14466" transform="translate(56.617 29.0811) scale(0.00397838) rotate(-28.6149)"/>
<use xlink:href="#stroke0_5055_14466" transform="translate(56.9564 29.9992) scale(0.00471513) rotate(-87.1725)"/>
<use xlink:href="#stroke0_5055_14466" transform="translate(57.7305 30.1261) scale(0.00369625) rotate(-115.25)"/>
<use xlink:href="#stroke0_5055_14466" transform="translate(58.3566 30.5728) scale(0.00537967) rotate(-137.51)"/>
<use xlink:href="#stroke0_5055_14466" transform="translate(58.8721 28.5881) scale(0.00451348) rotate(48.7417)"/>
<use xlink:href="#stroke0_5055_14466" transform="translate(58.7369 30.3274) scale(0.00413605) rotate(-114.746)"/>
<use xlink:href="#stroke0_5055_14466" transform="translate(60.4247 29.4353) scale(0.00492546) rotate(122.519)"/>
<use xlink:href="#stroke0_5055_14466" transform="translate(59.8499 30.4738) scale(0.00409246) rotate(-144.55)"/>
<use xlink:href="#stroke0_5055_14466" transform="translate(59.7439 30.6004) scale(0.00478346) rotate(-117.586)"/>
<use xlink:href="#stroke0_5055_14466" transform="translate(61.1864 29.8262) scale(0.00375104) rotate(138.802)"/>
<use xlink:href="#stroke0_5055_14466" transform="translate(60.7044 30.6554) scale(0.00429847) rotate(-137.23)"/>
<use xlink:href="#stroke0_5055_14466" transform="translate(60.2083 29.5435) scale(0.00430324) rotate(-30.4377)"/>
<use xlink:href="#stroke0_5055_14466" transform="translate(60.5807 30.1293) scale(0.00400382) rotate(-67.1021)"/>
<use xlink:href="#stroke0_5055_14466" transform="translate(62.4809 30.051) scale(0.00402864) rotate(140.806)"/>
<use xlink:href="#stroke0_5055_14466" transform="translate(61.3305 30.8236) scale(0.00529907) rotate(-99.8515)"/>
<use xlink:href="#stroke0_5055_14466" transform="translate(61.8924 29.3179) scale(0.00418581) rotate(7.61282)"/>
<use xlink:href="#stroke0_5055_14466" transform="translate(62.375 29.3352) scale(0.0039381) rotate(19.501)"/>
<use xlink:href="#stroke0_5055_14466" transform="translate(63.2805 31.0815) scale(0.00474266) rotate(-155.111)"/>
<use xlink:href="#stroke0_5055_14466" transform="translate(63.8881 29.3023) scale(0.0050932) rotate(71.0026)"/>
<use xlink:href="#stroke0_5055_14466" transform="translate(63.7592 29.1471) scale(0.0055503) rotate(41.0437)"/>
<use xlink:href="#stroke0_5055_14466" transform="translate(63.181 29.9246) scale(0.0052902) rotate(-24.4453)"/>
<use xlink:href="#stroke0_5055_14466" transform="translate(64.13 31.0903) scale(0.0036665) rotate(-108.361)"/>
<use xlink:href="#stroke0_5055_14466" transform="translate(65.9646 30.5395) scale(0.00542261) rotate(132.953)"/>
<use xlink:href="#stroke0_5055_14466" transform="translate(65.9049 31.1379) scale(0.00430751) rotate(169.821)"/>
<use xlink:href="#stroke0_5055_14466" transform="translate(65.926 29.9964) scale(0.00377881) rotate(73.8152)"/>
<use xlink:href="#stroke0_5055_14466" transform="translate(66.8158 30.4466) scale(0.00495458) rotate(115.459)"/>
<use xlink:href="#stroke0_5055_14466" transform="translate(67.113 30.5355) scale(0.0046598) rotate(114.78)"/>
<use xlink:href="#stroke0_5055_14466" transform="translate(67.2057 29.994) scale(0.005382) rotate(76.6387)"/>
<use xlink:href="#stroke0_5055_14466" transform="translate(65.8941 31.2117) scale(0.0052867) rotate(-60.0772)"/>
<use xlink:href="#stroke0_5055_14466" transform="translate(67.6111 30.2735) scale(0.00419828) rotate(61.9128)"/>
<use xlink:href="#stroke0_5055_14466" transform="translate(68.1768 30.4792) scale(0.00427833) rotate(80.3633)"/>
<use xlink:href="#stroke0_5055_14466" transform="translate(68.898 31.1172) scale(0.00463588) rotate(123.347)"/>
<use xlink:href="#stroke0_5055_14466" transform="translate(68.8284 30.6035) scale(0.00444416) rotate(77.6402)"/>
<use xlink:href="#stroke0_5055_14466" transform="translate(68.4597 30.6333) scale(0.00390472) rotate(31.8009)"/>
<use xlink:href="#stroke0_5055_14466" transform="translate(69.2933 30.4793) scale(0.00535769) rotate(60.5681)"/>
<use xlink:href="#stroke0_5055_14466" transform="translate(70.4142 31.4587) scale(0.00536196) rotate(122.232)"/>
<use xlink:href="#stroke0_5055_14466" transform="translate(70.2828 32.3277) scale(0.00412164) rotate(175.452)"/>
<use xlink:href="#stroke0_5055_14466" transform="translate(69.9274 30.8861) scale(0.00462006) rotate(37.4936)"/>
<use xlink:href="#stroke0_5055_14466" transform="translate(70.1608 31.0267) scale(0.00449403) rotate(31.3018)"/>
<use xlink:href="#stroke0_5055_14466" transform="translate(70.0868 32.7207) scale(0.0042692) rotate(-99.6478)"/>
<use xlink:href="#stroke0_5055_14466" transform="translate(71.6824 32.3939) scale(0.00384964) rotate(150.651)"/>
<use xlink:href="#stroke0_5055_14466" transform="translate(70.7222 32.8844) scale(0.00400873) rotate(-101.418)"/>
<use xlink:href="#stroke0_5055_14466" transform="translate(70.712 32.543) scale(0.00402881) rotate(-63.8535)"/>
<use xlink:href="#stroke0_5055_14466" transform="translate(71.6386 31.6105) scale(0.00403252) rotate(30.0327)"/>
<use xlink:href="#stroke0_5055_14466" transform="translate(71.8956 31.7638) scale(0.00379319) rotate(27.5566)"/>
<use xlink:href="#stroke0_5055_14466" transform="translate(72.8327 33.1764) scale(0.00360937) rotate(-179.532)"/>
<use xlink:href="#stroke0_5055_14466" transform="translate(72.4853 31.9672) scale(0.00365868) rotate(31.9754)"/>
<use xlink:href="#stroke0_5055_14466" transform="translate(73.2 31.933) scale(0.00453673) rotate(59.9191)"/>
<use xlink:href="#stroke0_5055_14466" transform="translate(74.0733 32.743) scale(0.00426053) rotate(118.681)"/>
<use xlink:href="#stroke0_5055_14466" transform="translate(74.2151 33.4362) scale(0.00392009) rotate(160.239)"/>
<use xlink:href="#stroke0_5055_14466" transform="translate(74.1991 32.2715) scale(0.00473319) rotate(64.733)"/>
<use xlink:href="#stroke0_5055_14466" transform="translate(73.6311 34.2222) scale(0.00515276) rotate(-108.396)"/>
<use xlink:href="#stroke0_5055_14466" transform="translate(75.2289 32.5477) scale(0.00554427) rotate(78.2882)"/>
<use xlink:href="#stroke0_5055_14466" transform="translate(75.3828 33.0271) scale(0.0037226) rotate(83.4219)"/>
<use xlink:href="#stroke0_5055_14466" transform="translate(75.915 33.6196) scale(0.00382215) rotate(124.94)"/>
<use xlink:href="#stroke0_5055_14466" transform="translate(74.6842 34.3616) scale(0.00439977) rotate(-84.4294)"/>
<use xlink:href="#stroke0_5055_14466" transform="translate(75.0267 33.5876) scale(0.00375548) rotate(-19.9639)"/>
<use xlink:href="#stroke0_5055_14466" transform="translate(76.2747 35.0017) scale(0.00463079) rotate(-155.463)"/>
<use xlink:href="#stroke0_5055_14466" transform="translate(75.5473 33.9388) scale(0.00388232) rotate(-27.6104)"/>
<use xlink:href="#stroke0_5055_14466" transform="translate(76.6868 33.2841) scale(0.00530267) rotate(45.4968)"/>
<use xlink:href="#stroke0_5055_14466" transform="translate(77.7502 34.6602) scale(0.00404883) rotate(140.74)"/>
<use xlink:href="#stroke0_5055_14466" transform="translate(76.4499 34.255) scale(0.00421129) rotate(-20.4099)"/>
<use xlink:href="#stroke0_5055_14466" transform="translate(76.73 34.5281) scale(0.00394288) rotate(-28.7632)"/>
<use xlink:href="#stroke0_5055_14466" transform="translate(78.623 35.2524) scale(0.00437585) rotate(151.256)"/>
<use xlink:href="#stroke0_5055_14466" transform="translate(77.8522 36.2162) scale(0.00547781) rotate(-125.517)"/>
<use xlink:href="#stroke0_5055_14466" transform="translate(77.8723 34.6052) scale(0.00432414) rotate(2.00182)"/>
<use xlink:href="#stroke0_5055_14466" transform="translate(79.5679 35.8683) scale(0.00451579) rotate(157.84)"/>
<use xlink:href="#stroke0_5055_14466" transform="translate(78.9868 34.8211) scale(0.00382916) rotate(39.3919)"/>
<use xlink:href="#stroke0_5055_14466" transform="translate(79.5128 36.6248) scale(0.00434068) rotate(-153.392)"/>
<use xlink:href="#stroke0_5055_14466" transform="translate(79.8547 35.2295) scale(0.00363667) rotate(65.7939)"/>
<use xlink:href="#stroke0_5055_14466" transform="translate(78.9956 35.9858) scale(0.0038995) rotate(-43.4902)"/>
<use xlink:href="#stroke0_5055_14466" transform="translate(80.9464 36.7507) scale(0.00489215) rotate(162.524)"/>
<use xlink:href="#stroke0_5055_14466" transform="translate(81.1861 36.6948) scale(0.00415898) rotate(150.817)"/>
<use xlink:href="#stroke0_5055_14466" transform="translate(80.5032 37.4903) scale(0.00446813) rotate(-129.031)"/>
<use xlink:href="#stroke0_5055_14466" transform="translate(82.0282 37.2119) scale(0.00551473) rotate(153.337)"/>
<use xlink:href="#stroke0_5055_14466" transform="translate(81.6652 36.073) scale(0.00485693) rotate(62.3155)"/>
<use xlink:href="#stroke0_5055_14466" transform="translate(80.7433 36.8161) scale(0.0046132) rotate(-24.1793)"/>
<use xlink:href="#stroke0_5055_14466" transform="translate(82.7252 37.3022) scale(0.00413119) rotate(125.033)"/>
<use xlink:href="#stroke0_5055_14466" transform="translate(83.0113 36.9875) scale(0.00506878) rotate(95.5473)"/>
<use xlink:href="#stroke0_5055_14466" transform="translate(83.4666 37.5623) scale(0.00497081) rotate(116.517)"/>
<use xlink:href="#stroke0_5055_14466" transform="translate(82.5674 37.1203) scale(0.00458998) rotate(29.0198)"/>
<use xlink:href="#stroke0_5055_14466" transform="translate(82.4345 37.3736) scale(0.00533853) rotate(6.19441)"/>
<use xlink:href="#stroke0_5055_14466" transform="translate(82.8613 39.0446) scale(0.00357545) rotate(-98.4527)"/>
<use xlink:href="#stroke0_5055_14466" transform="translate(84.2274 39.3464) scale(0.00453115) rotate(177.244)"/>
<use xlink:href="#stroke0_5055_14466" transform="translate(82.8737 39.3251) scale(0.00520662) rotate(-71.1457)"/>
<use xlink:href="#stroke0_5055_14466" transform="translate(84.8334 39.3793) scale(0.00367468) rotate(150.497)"/>
<use xlink:href="#stroke0_5055_14466" transform="translate(84.039 40.2109) scale(0.00450996) rotate(-118.754)"/>
<use xlink:href="#stroke0_5055_14466" transform="translate(83.6889 39.3777) scale(0.00459106) rotate(-36.7642)"/>
<use xlink:href="#stroke0_5055_14466" transform="translate(84.0889 39.1522) scale(0.00504167) rotate(-8.48734)"/>
<use xlink:href="#stroke0_5055_14466" transform="translate(85.1886 39.2337) scale(0.00400968) rotate(45.5164)"/>
<use xlink:href="#stroke0_5055_14466" transform="translate(84.5673 39.7377) scale(0.0047352) rotate(-13.9014)"/>
<use xlink:href="#stroke0_5055_14466" transform="translate(85.5813 39.6869) scale(0.00411829) rotate(39.7201)"/>
<use xlink:href="#stroke0_5055_14466" transform="translate(85.0081 40.8633) scale(0.00397197) rotate(-56.1039)"/>
<use xlink:href="#stroke0_5055_14466" transform="translate(86.7887 41.1726) scale(0.00386115) rotate(145.937)"/>
<use xlink:href="#stroke0_5055_14466" transform="translate(86.1717 40.2529) scale(0.00469918) rotate(37.4086)"/>
<use xlink:href="#stroke0_5055_14466" transform="translate(87.2305 41.7284) scale(0.00396727) rotate(150.005)"/>
<use xlink:href="#stroke0_5055_14466" transform="translate(87.3893 41.963) scale(0.00383298) rotate(151.28)"/>
<use xlink:href="#stroke0_5055_14466" transform="translate(87.4844 41.1076) scale(0.00512146) rotate(77.7007)"/>
<use xlink:href="#stroke0_5055_14466" transform="translate(87.0526 43.044) scale(0.00394686) rotate(-136.984)"/>
<use xlink:href="#stroke0_5055_14466" transform="translate(87.5762 43.6335) scale(0.00556964) rotate(-152.883)"/>
<use xlink:href="#stroke0_5055_14466" transform="translate(86.7171 43.5614) scale(0.00523626) rotate(-89.5309)"/>
<use xlink:href="#stroke0_5055_14466" transform="translate(88.3367 43.7537) scale(0.00413947) rotate(176.32)"/>
<use xlink:href="#stroke0_5055_14466" transform="translate(88.2218 44.2686) scale(0.00436966) rotate(-158.828)"/>
<use xlink:href="#stroke0_5055_14466" transform="translate(88.5862 44.5634) scale(0.00475063) rotate(-168.86)"/>
<use xlink:href="#stroke0_5055_14466" transform="translate(87.619 44.742) scale(0.0047113) rotate(-95.9267)"/>
<use xlink:href="#stroke0_5055_14466" transform="translate(88.3039 43.3526) scale(0.00490567) rotate(32.775)"/>
<use xlink:href="#stroke0_5055_14466" transform="translate(88.7682 43.5799) scale(0.00548203) rotate(48.0065)"/>
<use xlink:href="#stroke0_5055_14466" transform="translate(87.6975 45.1347) scale(0.00546677) rotate(-51.6217)"/>
<use xlink:href="#stroke0_5055_14466" transform="translate(89.2715 44.5801) scale(0.00430897) rotate(60.9406)"/>
<use xlink:href="#stroke0_5055_14466" transform="translate(89.9126 45.2147) scale(0.00464632) rotate(98.8177)"/>
<use xlink:href="#stroke0_5055_14466" transform="translate(88.7973 46.8692) scale(0.00449347) rotate(-110.473)"/>
<use xlink:href="#stroke0_5055_14466" transform="translate(90.0623 46.5083) scale(0.00360641) rotate(144.118)"/>
<use xlink:href="#stroke0_5055_14466" transform="translate(90.3276 46.7345) scale(0.00436761) rotate(137.88)"/>
<use xlink:href="#stroke0_5055_14466" transform="translate(89.8886 45.9922) scale(0.00507377) rotate(60.98)"/>
<use xlink:href="#stroke0_5055_14466" transform="translate(90.3199 46.6509) scale(0.00470312) rotate(86.3043)"/>
<use xlink:href="#stroke0_5055_14466" transform="translate(89.8923 46.8678) scale(0.00392873) rotate(54.1654)"/>
<use xlink:href="#stroke0_5055_14466" transform="translate(89.0788 47.3414) scale(0.00459042) rotate(-6.59059)"/>
<use xlink:href="#stroke0_5055_14466" transform="translate(90.7405 47.7175) scale(0.00530022) rotate(96.3224)"/>
<use xlink:href="#stroke0_5055_14466" transform="translate(89.9837 47.765) scale(0.00465619) rotate(46.2271)"/>
<use xlink:href="#stroke0_5055_14466" transform="translate(90.3715 49.7284) scale(0.00392511) rotate(-170.8)"/>
<use xlink:href="#stroke0_5055_14466" transform="translate(90.263 50.0251) scale(0.00366104) rotate(-161.759)"/>
<use xlink:href="#stroke0_5055_14466" transform="translate(90.6388 49.2677) scale(0.0035832) rotate(103.959)"/>
<use xlink:href="#stroke0_5055_14466" transform="translate(90.0189 50.9145) scale(0.00479929) rotate(-139.887)"/>
<use xlink:href="#stroke0_5055_14466" transform="translate(90.4334 49.5365) scale(0.00387913) rotate(74.2879)"/>
<path d="M31.1379 45.7922C31.2115 45.7462 31.2713 45.7232 31.3172 45.7232C31.3632 45.714 31.4368 45.7278 31.5379 45.7646C31.6759 45.8197 31.7586 45.8979 31.7862 45.9991C31.8138 46.1002 31.8276 46.3807 31.8276 46.8404C31.8184 47.383 31.823 47.6634 31.8414 47.6818C31.8598 47.691 32.1035 47.6956 32.5724 47.6956C33.0322 47.6956 33.331 47.7324 33.469 47.806C33.6069 47.8795 33.6667 48.0312 33.6483 48.2611C33.6299 48.4266 33.5655 48.5324 33.4552 48.5784C33.354 48.6151 33.0874 48.6289 32.6552 48.6197C32.6092 48.6197 32.5402 48.6197 32.4483 48.6197C32.0989 48.6106 31.892 48.6289 31.8276 48.6749C31.7724 48.7209 31.7494 48.8772 31.7586 49.1439C31.7586 49.2083 31.7586 49.2542 31.7586 49.2818C31.7586 49.7232 31.7264 50.0037 31.6621 50.1232C31.6069 50.2427 31.4782 50.3025 31.2759 50.3025C31.0276 50.3025 30.8805 50.183 30.8345 49.9439C30.7977 49.6956 30.8069 48.9968 30.8621 47.8473C30.8713 47.5163 30.8851 47.0703 30.9035 46.5094C30.9035 46.2703 30.9172 46.1094 30.9448 46.0266C30.9816 45.9347 31.046 45.8565 31.1379 45.7922ZM27.7035 46.2611C27.9793 46.1232 28.2 46.137 28.3655 46.3025C28.5402 46.4588 28.5402 46.6611 28.3655 46.9094C28.0529 47.3416 27.8552 47.6266 27.7724 47.7646C27.6897 47.8933 27.6575 47.9761 27.6759 48.0128C27.6943 48.0496 27.7862 48.1554 27.9517 48.3301C28.1356 48.5324 28.3012 48.7301 28.4483 48.9232C28.6138 49.1439 28.7379 49.2818 28.8207 49.337C28.9494 49.4473 29.0092 49.5715 29 49.7094C28.9908 49.8473 28.9172 49.9669 28.7793 50.068C28.6506 50.16 28.5081 50.1784 28.3517 50.1232C28.1586 50.068 27.9517 49.8795 27.731 49.5577C27.6023 49.3554 27.469 49.1807 27.331 49.0335C27.3127 49.0151 27.2943 48.9922 27.2759 48.9646C27.1839 48.8634 27.1149 48.8312 27.069 48.868C27.0322 48.9048 26.9218 49.0749 26.7379 49.3784C26.6828 49.4703 26.6368 49.5439 26.6 49.5991C26.4437 49.8657 26.3058 50.0358 26.1862 50.1094C26.0759 50.183 25.9471 50.183 25.8 50.1094C25.6253 50.0174 25.5609 49.8335 25.6069 49.5577C25.6621 49.2818 25.8184 48.9554 26.0759 48.5784C26.1218 48.5048 26.2368 48.3209 26.4207 48.0266C26.8621 47.3002 27.1977 46.7853 27.4276 46.4818C27.492 46.3991 27.5839 46.3255 27.7035 46.2611ZM26.0897 51.4611C26.1448 51.406 26.2322 51.383 26.3517 51.3922C26.4713 51.3922 26.5632 51.4243 26.6276 51.4887C26.7012 51.5531 26.7747 51.7554 26.8483 52.0956C27.1058 53.2726 27.377 53.9071 27.6621 53.9991C28.0759 54.1278 28.6598 54.183 29.4138 54.1646C30.177 54.1462 30.8759 54.0588 31.5104 53.9025C31.8138 53.8197 32.0299 53.7922 32.1586 53.8197C32.2966 53.8381 32.3931 53.9209 32.4483 54.068C32.5586 54.3071 32.4897 54.4956 32.2414 54.6335C32.0023 54.7807 31.5333 54.9048 30.8345 55.006C30.8069 55.0151 30.7287 55.0289 30.6 55.0473C30.4805 55.0657 30.3977 55.0795 30.3517 55.0887C30.0943 55.1255 29.6299 55.1301 28.9586 55.1025C28.2966 55.0841 27.8184 55.0427 27.5241 54.9784C27.1931 54.914 26.9172 54.7301 26.6966 54.4266C26.4759 54.114 26.2828 53.6496 26.1172 53.0335C25.8966 52.206 25.8874 51.6818 26.0897 51.4611ZM37.2316 45.5301C37.5626 45.4841 37.7603 45.5669 37.8247 45.7784C37.8799 45.9623 37.8339 46.114 37.6868 46.2335C37.5396 46.3439 37.3097 46.4128 36.9971 46.4404C36.804 46.4588 36.4086 46.5048 35.8109 46.5784C34.8178 46.7071 34.2707 46.6565 34.1695 46.4266C34.0959 46.2427 34.1143 46.091 34.2247 45.9715C34.335 45.8427 34.5143 45.7784 34.7626 45.7784C35.3235 45.7784 35.9994 45.7186 36.7902 45.5991C36.9373 45.5715 37.0845 45.5485 37.2316 45.5301ZM39.3143 45.9163C39.5074 45.8795 39.673 45.9255 39.8109 46.0542C39.8753 46.1186 39.912 46.2473 39.9212 46.4404C39.9396 46.6243 39.9304 46.96 39.8937 47.4473C39.8845 47.668 39.8982 47.7922 39.935 47.8197C39.9718 47.8473 40.1189 47.8335 40.3764 47.7784C40.4132 47.7692 40.4684 47.7554 40.5419 47.737C40.827 47.6726 40.9925 47.6083 41.0385 47.5439C41.0937 47.4795 41.135 47.2772 41.1626 46.937C41.1718 46.8542 41.1764 46.7853 41.1764 46.7301C41.204 46.3715 41.2776 46.1324 41.3971 46.0128C41.5166 45.8841 41.6822 45.8703 41.8937 45.9715C42.0316 46.045 42.1097 46.1784 42.1281 46.3715C42.1465 46.5646 42.1281 47.0335 42.073 47.7784C42.0546 48.0818 42.0316 48.4634 42.004 48.9232C41.9672 49.6312 41.912 50.0818 41.8385 50.2749C41.7649 50.4588 41.6132 50.5508 41.3833 50.5508C41.0339 50.56 40.9005 50.2703 40.9833 49.6818C41.0569 49.1577 41.0615 48.845 40.9971 48.7439C40.9327 48.6335 40.7258 48.6243 40.3764 48.7163C40.1741 48.7623 40.0408 48.8037 39.9764 48.8404C39.912 48.8772 39.8799 48.9278 39.8799 48.9922C39.8707 49.5255 39.8477 49.8657 39.8109 50.0128C39.7741 50.16 39.6868 50.2703 39.5488 50.3439C39.4017 50.4174 39.2684 50.4266 39.1488 50.3715C39.0293 50.3163 38.9511 50.206 38.9143 50.0404C38.8959 49.9485 38.9005 49.3186 38.9281 48.1508C38.9557 46.983 38.9833 46.3439 39.0109 46.2335C39.0201 46.1784 39.0615 46.114 39.135 46.0404C39.2086 45.9669 39.2684 45.9255 39.3143 45.9163ZM36.6937 47.2128C37.181 47.1761 37.4753 47.2542 37.5764 47.4473C37.6868 47.6312 37.6408 47.9945 37.4385 48.537C37.3741 48.7117 37.3557 48.845 37.3833 48.937C37.4201 49.0289 37.558 49.1991 37.7971 49.4473C37.9718 49.6404 38.0776 49.783 38.1143 49.8749C38.1511 49.9669 38.1373 50.0726 38.073 50.1922C37.981 50.3669 37.8477 50.445 37.673 50.4266C37.4982 50.3991 37.3051 50.2795 37.0937 50.068C36.9557 49.9301 36.8638 49.8565 36.8178 49.8473C36.781 49.8381 36.735 49.8841 36.6799 49.9853C36.3396 50.6657 36.004 50.9186 35.673 50.7439C35.4339 50.6151 35.4477 50.2979 35.7143 49.7922C36.2477 48.7991 36.5143 48.2657 36.5143 48.1922C36.5143 48.1094 36.1557 48.1692 35.4385 48.3715C35.2822 48.4083 35.1718 48.4312 35.1074 48.4404C35.0523 48.4404 34.9833 48.4174 34.9005 48.3715C34.7258 48.2795 34.6569 48.1324 34.6937 47.9301C34.7304 47.7278 34.85 47.6037 35.0523 47.5577C35.135 47.5485 35.2132 47.5301 35.2868 47.5025C35.8477 47.3462 36.3166 47.2496 36.6937 47.2128ZM40.0316 51.6404C40.0408 51.6312 40.1281 51.6312 40.2937 51.6404C40.6982 51.6772 40.9511 51.7968 41.0523 51.9991C41.1534 52.1922 41.158 52.5876 41.0661 53.1853C40.9557 53.9485 40.8592 54.4542 40.7764 54.7025C40.6937 54.96 40.5649 55.1255 40.3902 55.1991C40.2063 55.2726 40.0546 55.2542 39.935 55.1439C39.8155 55.0335 39.7879 54.8726 39.8523 54.6611C39.9534 54.3117 40.0408 53.9117 40.1143 53.4611C40.1971 53.0014 40.2247 52.7301 40.1971 52.6473C40.1787 52.6106 40.0592 52.6014 39.8385 52.6197C37.2822 52.7945 35.9488 52.8404 35.8385 52.7577C35.6914 52.6473 35.6546 52.4864 35.7281 52.2749C35.8017 52.0634 35.935 51.9393 36.1281 51.9025C36.4132 51.8565 37.0431 51.8151 38.0178 51.7784C39.3143 51.7324 39.9856 51.6864 40.0316 51.6404ZM48.6493 47.4197C48.8975 47.3922 49.0493 47.4473 49.1044 47.5853C49.1688 47.714 49.1964 48.0634 49.1872 48.6335C49.178 49.2588 49.1872 49.5853 49.2148 49.6128C49.2332 49.6312 49.6332 49.6312 50.4148 49.6128C50.8378 49.5945 51.0906 49.5899 51.1734 49.5991C51.2562 49.5991 51.3297 49.622 51.3941 49.668C51.5136 49.7508 51.5964 49.8795 51.6424 50.0542C51.6975 50.2197 51.6883 50.3485 51.6148 50.4404C51.5688 50.514 51.4768 50.56 51.3389 50.5784C51.2102 50.5968 50.8653 50.6151 50.3044 50.6335C49.5964 50.6427 49.2286 50.6611 49.201 50.6887C49.1734 50.7163 49.1458 51.0933 49.1182 51.8197C49.0998 52.4542 49.0814 52.8358 49.063 52.9646C49.0539 53.0933 49.0217 53.1807 48.9665 53.2266C48.8745 53.3186 48.7458 53.36 48.5803 53.3508C48.4148 53.3324 48.2952 53.2726 48.2217 53.1715C48.1757 53.1163 48.1481 52.914 48.1389 52.5646C48.1389 52.206 48.1573 51.8611 48.1941 51.5301C48.2217 51.3002 48.2355 50.6657 48.2355 49.6266C48.2355 48.5784 48.2493 47.9899 48.2768 47.8611C48.2952 47.7508 48.3412 47.6542 48.4148 47.5715C48.4883 47.4887 48.5665 47.4381 48.6493 47.4197ZM43.5734 48.068C43.6837 48.0496 44.0516 48.0496 44.6768 48.068C45.3021 48.0864 45.7159 48.1094 45.9182 48.137C46.0745 48.1554 46.1849 48.2335 46.2493 48.3715C46.3136 48.5002 46.3274 48.6657 46.2906 48.868C46.2722 48.9968 46.2493 49.1485 46.2217 49.3232C46.0745 50.16 45.9182 50.9324 45.7527 51.6404C45.6699 51.9991 45.5872 52.2243 45.5044 52.3163C45.4217 52.4083 45.2837 52.4266 45.0906 52.3715C44.9251 52.3255 44.824 52.2473 44.7872 52.137C44.7596 52.0174 44.778 51.806 44.8424 51.5025C45.0539 50.5186 45.1964 49.7416 45.2699 49.1715C45.2883 49.0335 45.2607 48.9554 45.1872 48.937C45.1228 48.9094 44.9251 48.9094 44.5941 48.937C43.8584 49.0014 43.4447 48.9922 43.3527 48.9094C43.2332 48.8174 43.201 48.6611 43.2562 48.4404C43.3205 48.2197 43.4263 48.0956 43.5734 48.068ZM57.3818 47.3784C57.6209 47.268 57.8002 47.2772 57.9197 47.406C58.0393 47.5347 58.099 47.7784 58.099 48.137V48.6197L58.4301 48.606C58.614 48.5968 58.8485 48.5784 59.1335 48.5508C59.4829 48.5048 59.7266 48.4956 59.8646 48.5232C60.0025 48.5416 60.099 48.6106 60.1542 48.7301C60.2462 48.914 60.2278 49.0795 60.099 49.2266C59.9703 49.3646 59.7726 49.4381 59.5059 49.4473C59.3404 49.4473 59.0783 49.4657 58.7197 49.5025C58.3611 49.5393 58.1634 49.5669 58.1266 49.5853C58.0806 49.6128 58.0485 49.7922 58.0301 50.1232C58.0209 50.445 58.0301 50.6289 58.0577 50.6749C58.0852 50.7209 58.2094 50.7347 58.4301 50.7163C59.4416 50.6427 60.0715 50.6151 60.3197 50.6335C60.5772 50.6519 60.7381 50.7301 60.8025 50.868C60.9312 51.1347 60.8393 51.3186 60.5266 51.4197C60.2232 51.5117 59.5565 51.5807 58.5266 51.6266L57.9473 51.6404L57.9335 51.806C57.9243 51.8979 57.9105 52.1324 57.8921 52.5094C57.8738 52.822 57.8508 53.0243 57.8232 53.1163C57.7956 53.1991 57.722 53.268 57.6025 53.3232C57.4738 53.3876 57.3404 53.4014 57.2025 53.3646C57.0646 53.3278 56.9818 53.2588 56.9542 53.1577C56.9174 53.0106 56.9358 52.3669 57.0094 51.2266C57.0738 50.3071 57.1151 49.3554 57.1335 48.3715C57.1427 47.9669 57.1611 47.714 57.1887 47.6128C57.2163 47.5025 57.2806 47.4243 57.3818 47.3784ZM54.637 48.0128C54.9496 47.9761 55.1565 47.9715 55.2577 47.9991C55.368 48.0174 55.46 48.0818 55.5335 48.1922C55.6071 48.3025 55.6301 48.4358 55.6025 48.5922C55.5749 48.7485 55.4738 48.9968 55.299 49.337C55.0692 49.7968 54.9358 50.0772 54.899 50.1784C54.8715 50.2795 54.8898 50.3807 54.9542 50.4818C55.0278 50.5922 55.0967 50.7117 55.1611 50.8404C55.2255 50.96 55.3496 51.1669 55.5335 51.4611C55.9197 52.0404 55.9381 52.4037 55.5887 52.5508C55.4416 52.6151 55.3174 52.6106 55.2163 52.537C55.1243 52.4634 55.0048 52.2887 54.8577 52.0128C54.5818 51.4979 54.4117 51.2404 54.3473 51.2404C54.3105 51.2404 54.2692 51.2956 54.2232 51.406C54.1588 51.5255 54.0669 51.6772 53.9473 51.8611C53.8186 52.0634 53.722 52.2151 53.6577 52.3163C53.5473 52.5094 53.4002 52.6151 53.2163 52.6335C53.0416 52.6427 52.9128 52.5554 52.8301 52.3715C52.7105 52.1324 52.7749 51.8473 53.0232 51.5163C53.2255 51.2496 53.5105 50.7761 53.8783 50.0956C54.2554 49.4151 54.4301 49.0565 54.4025 49.0197C54.3749 48.9738 53.9979 48.9922 53.2715 49.0749C52.7565 49.1301 52.4393 49.1393 52.3197 49.1025C52.2002 49.0657 52.1542 48.937 52.1818 48.7163C52.2002 48.5416 52.2462 48.422 52.3197 48.3577C52.4025 48.2841 52.545 48.2289 52.7473 48.1922C52.9496 48.1554 53.3036 48.114 53.8094 48.068C54.122 48.0496 54.3979 48.0312 54.637 48.0128ZM63.1982 45.6128C63.3085 45.5853 64.1683 45.5853 65.7775 45.6128C66.2005 45.622 66.4763 45.6496 66.6051 45.6956C66.743 45.7324 66.8534 45.8289 66.9361 45.9853C66.9637 46.0496 66.9683 46.2749 66.9499 46.6611C66.9407 47.0473 66.9131 47.4197 66.8671 47.7784C66.8671 47.806 66.858 47.8887 66.8396 48.0266C66.8212 48.1646 66.8074 48.2657 66.7982 48.3301C66.7338 48.8174 66.6419 49.1347 66.5223 49.2818C66.412 49.4289 66.2465 49.4473 66.0258 49.337C65.8694 49.2634 65.7775 49.1669 65.7499 49.0473C65.7223 48.9278 65.7407 48.6933 65.8051 48.3439C65.8419 48.1416 65.874 47.8014 65.9016 47.3232C65.9292 46.8358 65.9292 46.5784 65.9016 46.5508C65.8648 46.514 65.3913 46.4956 64.4809 46.4956C63.7913 46.4956 63.3867 46.491 63.2671 46.4818C63.1476 46.4726 63.0557 46.445 62.9913 46.3991C62.8534 46.2703 62.8074 46.1186 62.8534 45.9439C62.8993 45.7692 63.0143 45.6588 63.1982 45.6128ZM66.7568 49.8335C67.3085 49.8151 67.635 49.8106 67.7361 49.8197C67.8465 49.8197 67.9292 49.8335 67.9844 49.8611C68.1223 49.9347 68.1913 50.0726 68.1913 50.2749C68.1913 50.468 68.1269 50.6014 67.9982 50.6749C67.8786 50.7393 67.6625 50.7623 67.3499 50.7439C67.1108 50.7347 66.72 50.7393 66.1775 50.7577C65.635 50.7761 65.3545 50.7945 65.3361 50.8128C65.2993 50.8496 65.2442 51.3232 65.1706 52.2335C65.1062 53.1439 65.074 53.8014 65.074 54.206C65.074 54.4726 65.0557 54.6611 65.0189 54.7715C64.9913 54.891 64.9361 54.9876 64.8534 55.0611C64.6694 55.1899 64.5085 55.2358 64.3706 55.1991C64.2419 55.1623 64.1453 55.0381 64.0809 54.8266C64.0166 54.6243 64.012 54.3853 64.0671 54.1094C64.0947 53.9899 64.1315 53.5715 64.1775 52.8542C64.2143 52.1922 64.2557 51.691 64.3016 51.3508C64.3292 51.0749 64.3384 50.9232 64.3292 50.8956C64.3108 50.8588 63.8786 50.8496 63.0327 50.868C62.6373 50.8588 62.3292 50.8588 62.1085 50.868C61.8878 50.8772 61.7223 50.8634 61.612 50.8266C61.5016 50.7899 61.4327 50.7485 61.4051 50.7025C61.3775 50.6565 61.3591 50.5738 61.3499 50.4542C61.3223 50.2243 61.3775 50.0864 61.5154 50.0404C61.6534 49.9945 62.1039 49.9623 62.8671 49.9439C63.7039 49.9255 64.4993 49.9025 65.2534 49.8749C66.0442 49.8473 66.5453 49.8335 66.7568 49.8335ZM73.7758 48.9922C73.9505 48.9186 74.0976 48.937 74.2171 49.0473C74.3459 49.1577 74.4102 49.3278 74.4102 49.5577C74.4102 50.0726 74.2723 50.5278 73.9965 50.9232C73.7206 51.3094 73.3344 51.5945 72.8378 51.7784C72.5528 51.8887 72.2079 51.8197 71.8034 51.5715C71.3988 51.314 71.0861 50.9738 70.8654 50.5508C70.7183 50.2749 70.6034 50.1048 70.5206 50.0404C70.4378 49.9669 70.3091 49.9393 70.1344 49.9577C69.9689 49.9669 69.8355 50.0588 69.7344 50.2335C69.6424 50.4083 69.5965 50.6427 69.5965 50.937C69.5965 51.1669 69.5643 51.3278 69.4999 51.4197C69.4355 51.5025 69.316 51.5439 69.1413 51.5439C68.9482 51.5439 68.8194 51.4887 68.7551 51.3784C68.6907 51.2588 68.6631 51.0565 68.6723 50.7715C68.6999 50.3485 68.7689 50.022 68.8792 49.7922C68.9988 49.5531 69.1919 49.3416 69.4585 49.1577C69.5689 49.0841 69.647 49.0427 69.693 49.0335C69.7482 49.0151 69.8907 49.006 70.1206 49.006C70.4148 49.006 70.5666 49.0197 70.5758 49.0473C70.5942 49.0749 70.6263 49.0887 70.6723 49.0887C70.8102 49.0887 70.9666 49.1715 71.1413 49.337C71.3252 49.4933 71.4815 49.691 71.6102 49.9301C71.7942 50.2979 71.9873 50.5554 72.1896 50.7025C72.4011 50.8496 72.5942 50.868 72.7689 50.7577C73.0263 50.583 73.1965 50.4174 73.2792 50.2611C73.3712 50.1048 73.4355 49.8519 73.4723 49.5025C73.4907 49.245 73.5919 49.0749 73.7758 48.9922Z" fill="black"/>
<defs>
<g id="stroke0_5055_14466" data-figma-scatter-ref="stroke0_5055_14466_ref" data-figma-scatter="f0.28_w0_aj180_sj0.25_r0_s7048964905556052606_sw1.379">
<path d="M103.731 283.547C110.352 281.363 112.807 281.348 116.121 283.468C130.109 292.418 124.85 308.718 107.972 308.727C90.3768 308.737 87.0606 289.046 103.731 283.547ZM139.837 35.4146C140.937 35.1787 142.512 35.114 143.337 35.271C144.162 35.4281 146.516 35.8391 148.567 36.1851C155.802 37.4051 160.179 46.6969 156.734 53.5249C152.924 61.0769 144.715 67.5811 140.859 66.1021C135.872 64.1881 137.625 69.8792 144.066 76.5152C148.306 80.8841 150.337 81.2685 150.337 77.7066C150.337 76.6574 151.622 74.3218 153.193 72.5161C154.823 70.6412 156.597 66.9201 157.324 63.8501C158.925 57.0892 160.788 55.2289 167.369 53.8169C177.32 51.6829 185.581 56.9263 183.752 64.2153C183.293 66.0423 183.901 67.6656 186.09 70.4585C196.859 84.1975 193.875 104.273 180.596 107.418C177.049 108.258 176.832 108.532 176.773 112.27C176.739 114.448 176.365 116.987 175.943 117.912C175.255 119.417 175.946 119.564 182.506 119.31C190.415 119.003 192.674 119.705 195.953 123.487C199.054 127.064 201.598 126.114 202.609 121.002C203.503 116.483 209.096 110.731 212.596 110.731C214.841 110.731 215.934 108.156 214.449 106.367C206.1 96.3056 222.234 73.6632 235.605 76.6792C241.572 78.0252 246.302 83.6302 246.367 89.4312C246.384 90.9712 247.505 94.4811 248.858 97.231C255.362 110.453 243.304 126.225 232.777 118.263C229.924 116.105 229.837 116.226 229.837 122.341C229.837 128.93 225.932 133.292 219.049 134.393C216.068 134.87 214.933 135.67 213.775 138.116C212.964 139.829 211.55 142.415 210.63 143.863C208.984 146.456 209.02 146.565 213.147 151.254C215.451 153.871 217.337 156.555 217.337 157.218C217.337 157.882 218.074 159.901 218.974 161.706C222.148 168.067 221.073 181.731 217.4 181.731C217.052 181.731 215.97 183.081 214.995 184.731C214.02 186.381 212.573 187.731 211.779 187.731C209.595 187.731 210.044 189.817 212.863 192.76C216.384 196.435 217.425 204.867 214.728 207.858C209.503 213.649 203.05 218.01 198.064 219.122C193.944 220.041 192.83 220.705 192.804 222.259C192.669 230.389 188.242 235.387 179.682 237.077C172.845 238.427 172.072 240.31 177.577 242.203C190.358 246.597 192.892 257.693 182.442 263.506C176.521 266.799 172.426 266.758 167.515 263.354C163.894 260.845 163.161 260.686 159.679 261.653C153.737 263.303 147.363 262.934 141.337 260.593C135.874 258.47 130.724 257.068 124.689 256.061C118.715 255.064 115.151 249.943 114.592 241.551C114.184 235.417 113.671 233.745 111.425 231.231C109.951 229.581 107.986 226.544 107.058 224.481C105.42 220.844 105.211 220.731 100.164 220.731C93.7935 220.731 89.0798 217.922 86.2168 212.42C83.0468 206.327 78.9427 207.336 78.8477 214.231C78.8097 216.981 78.4233 220.817 77.9883 222.755C77.2354 226.113 77.3507 226.324 80.4366 227.255C90.5004 230.29 90.3981 247.946 80.2881 252.934C55.9904 264.92 26.2411 240.473 47.875 226.298C49.556 225.196 50.1805 223.494 50.6895 218.626C51.0495 215.185 52.1298 211.262 53.0908 209.91C54.0507 208.557 55.2736 206.856 55.8086 206.127C56.5016 205.184 56.0161 204.003 54.1221 202.017C50.6273 198.355 49.3112 194.657 49.9981 190.428C50.3281 188.392 50.1033 186.705 49.4463 186.299C48.8364 185.922 48.337 184.345 48.3369 182.794C48.3369 181.244 47.6012 179.366 46.7032 178.621C43.9996 176.376 34.3369 162.856 34.3369 161.317C34.3368 160.529 32.7627 157.822 30.8389 155.302C28.915 152.781 27.3998 150.384 27.4727 149.975C28.4457 144.478 24.6467 141.425 20.4727 144.348C18.2547 145.902 11.2222 145.776 6.86624 144.104C-3.23648 140.227 -1.78745 115.126 8.56839 114.62C14.8594 114.313 23.3369 117.551 23.3369 120.261C23.3372 122.018 26.1103 124.731 27.9073 124.731C28.6933 124.731 29.3369 124.041 29.3369 123.198C29.3372 109.814 50.1851 94.3087 69.8369 93.0767C82.9305 92.2547 88.2617 93.4969 97.1895 99.4468C101.45 102.287 108.337 96.8837 108.337 90.7007C108.337 88.6598 109.172 86.4706 110.483 85.0747C112.734 82.6789 111.804 79.7313 108.796 79.731C106.403 79.731 103.556 73.5422 104.077 69.4702C105.046 61.8843 117.633 57.7673 123.289 63.1861C125.639 65.4379 126.708 65.8083 129.245 65.2515C133.054 64.4145 133.128 63.4739 129.587 60.895C121.36 54.902 128.195 37.9086 139.837 35.4146ZM227.337 203.429C239.094 199.654 252.722 207.291 252.722 217.653C252.722 228.495 231.921 239.44 223.927 232.806C221.665 230.929 220.403 232.363 221.012 236.118C222.097 242.802 213.511 254.731 207.616 254.731C194.246 254.731 188.8 246.232 194.457 234.198C198.202 226.231 204.453 223.784 213.238 226.847C217.536 228.345 217.88 227.687 215.921 221.697C213.052 212.925 216.89 206.783 227.337 203.429ZM179.7 192.695C179.049 192.044 178.051 192.413 176.774 193.779C168.37 202.768 165.063 203.713 156.506 199.571C149.746 196.298 146.45 201.459 151.961 206.689C154.209 208.822 154.482 209.744 154.038 213.682C153.54 218.098 153.664 218.344 158.682 222.967C163.836 227.716 163.837 227.716 164.351 222.867C164.987 216.872 169.522 209.969 174.077 208.066C177.094 206.805 177.337 206.359 177.337 202.046C177.337 199.092 177.95 196.711 179.013 195.536C180.117 194.315 180.352 193.347 179.7 192.695ZM13.7354 183.697C21.2304 180.362 25.9355 181.225 32.1055 187.066C40.5644 195.074 37.0287 205.612 24.6309 209.343C9.40689 213.925 -0.704596 190.124 13.7354 183.697ZM252.956 148.251C262.129 145.732 267.81 147.203 270.983 152.921C277.397 164.478 257.352 180.919 247.179 172.445C237.093 164.044 240.016 151.805 252.956 148.251ZM175.822 162.709C174.842 161.123 172.482 161.589 171.417 163.579C170.283 165.699 171.384 170.913 173.086 171.481C174.366 171.905 176.761 164.229 175.822 162.709ZM150.152 111.481C150.492 108.526 149.534 108.177 145.513 109.79C142.108 111.155 143.035 114.231 146.851 114.231C149.365 114.231 149.886 113.796 150.152 111.481ZM156.837 98.731C156.012 98.731 155.337 99.406 155.337 100.231C155.337 101.056 156.012 101.731 156.837 101.731C157.662 101.731 158.337 101.056 158.337 100.231C158.337 99.4061 157.662 98.7312 156.837 98.731ZM131.337 85.6382C131.337 82.8002 129.491 81.4004 127.429 82.6743C126.501 83.2473 126.685 84.2905 128.185 86.9605C129.273 88.9003 130.316 91.46 130.5 92.6489C130.685 93.8379 131.287 94.905 131.837 95.021C133.25 95.317 133.729 90.7224 132.422 89.4155C131.825 88.8185 131.337 87.1191 131.337 85.6382ZM79.8369 36.9214C89.8819 31.2487 102.893 46.8492 95.6582 55.8921C92.2024 60.211 91.2042 63.981 91.8701 70.1997C92.5322 76.3837 92.4821 76.5638 89.0371 80.3628C76.0391 94.6997 55.1533 78.5005 64.8242 61.5825C66.3391 58.9327 67.3172 55.6452 67.3242 53.1753C67.3402 47.7053 72.4159 41.1124 79.8369 36.9214ZM120.896 78.731C120.653 78.731 120.177 79.1811 119.837 79.731C119.497 80.2809 119.695 80.7309 120.277 80.731C120.859 80.731 121.337 80.281 121.337 79.731C121.337 79.181 121.139 78.731 120.896 78.731ZM205.485 39.4898C219.631 37.0418 227.598 50.9151 220.597 65.8081C213.393 81.13 190.339 77.7861 190.091 61.3823C189.98 54.0764 199.509 40.5238 205.485 39.4898ZM51.8369 14.5542C64.4449 5.86451 75.68 19.3671 68.6241 34.731C62.385 48.3167 41.3372 43.775 41.3369 28.8423C41.3369 26.0333 47.6529 17.4382 51.8369 14.5542ZM108.212 2.17043C121.43 -6.81137 141.546 14.0924 133.237 28.1743C132.084 30.1297 130.819 31.7302 130.427 31.731C130.035 31.731 128.813 32.5703 127.713 33.5962C119.456 41.2872 107.786 35.7761 103.367 22.0991C100.152 12.1461 101.463 6.75643 108.212 2.17043Z" fill="black"/>
</g>
<path id="stroke0_5055_14466_ref" d="M90 50.2069C90 61.9191 72.0914 71.4138 50 71.4138C27.9086 71.4138 10 61.9191 10 50.2069C10 38.4947 27.9086 29 50 29C72.0914 29 90 38.4947 90 50.2069Z"/>
</defs>
</svg>
