<svg width="100" height="100" viewBox="0 0 100 100" fill="none" xmlns="http://www.w3.org/2000/svg">
<path d="M25.3398 19.2954C25.6739 22.6345 26.0538 24.7348 26.509 26.2682C26.8628 27.4598 29.9678 26.894 31.0467 27.013C31.3561 27.0471 31.7829 27.0373 32.0259 26.8244C33.1345 25.8532 32.6517 23.9864 32.8897 21.5284C32.9615 20.7869 32.9384 19.9807 32.7255 19.519C32.0309 18.0128 29.1277 18.438 27.9234 18.2682C27.7312 18.2445 27.542 18.1972 27.3262 18.1728C27.1105 18.1484 26.8739 18.1484 26.6302 18.1484" stroke="#363636" stroke-width="2.71107" stroke-linecap="round"/>
<path d="M37.8135 19.7266L43.5483 20.1567" stroke="#363636" stroke-width="2.71107" stroke-linecap="round"/>
<path d="M43.9783 17C43.931 18.2301 43.8837 19.4602 43.8593 20.9219C43.835 22.3835 43.835 24.0394 43.835 25.7455" stroke="#363636" stroke-width="2.71107" stroke-linecap="round"/>
<path d="M35.6631 29.9023C40.0158 30.1862 42.5419 30.4271 43.0194 30.6414C43.227 30.7346 43.3075 30.9031 43.309 31.0708C43.2158 31.4278 42.8817 32.6163 42.4997 34.7368C42.3541 35.8636 42.3068 37.0938 42.2581 38.3611" stroke="#363636" stroke-width="2.71107" stroke-linecap="round"/>
<path d="M47.2764 18.8652C49.2162 18.9125 51.1559 18.9599 52.1789 19.0552C53.2018 19.1505 53.2491 19.2925 53.0606 20.028C52.4463 22.0882 51.8656 24.21 51.6506 25.4989C51.5774 26.0308 51.5774 26.3147 51.4341 26.6072" stroke="#363636" stroke-width="2.71107" stroke-linecap="round"/>
<path d="M52.7236 23.4512C53.8591 23.9716 54.9946 24.492 55.6269 24.8311C56.2591 25.1702 56.3537 25.3121 56.4735 25.4089C56.5932 25.5057 56.7351 25.553 56.8813 25.6017" stroke="#363636" stroke-width="2.71107" stroke-linecap="round"/>
<path d="M56.8818 19.0098C58.4904 19.0098 59.5557 19.0571 59.9851 19.1997C60.1892 19.2676 60.3198 19.437 60.393 19.6284C60.7172 20.4771 59.9901 21.8686 59.5119 23.4012C59.4152 23.7381 59.3679 24.022 59.3435 24.4048C59.3191 24.7876 59.3191 25.2607 59.3191 25.7481" stroke="#363636" stroke-width="2.71107" stroke-linecap="round"/>
<path d="M61.0391 22.1621C61.9853 22.8245 62.9315 23.4868 63.49 23.8517C64.0484 24.2166 64.1903 24.2639 64.3344 24.3592C64.4785 24.4546 64.6204 24.5965 65.0534 24.8861" stroke="#363636" stroke-width="2.71107" stroke-linecap="round"/>
<path d="M69.7852 18.0059C69.8325 20.2295 69.8798 22.4532 69.9042 23.9772C69.9285 25.5012 69.9285 26.2582 70.0719 26.8948" stroke="#363636" stroke-width="2.71107" stroke-linecap="round"/>
<path d="M70.502 22.3066L74.2296 22.45" stroke="#363636" stroke-width="2.71107" stroke-linecap="round"/>
<path d="M62.9028 33.7737C61.8619 35.0984 61.3257 35.9701 61.3494 36.3515C61.3734 36.7387 61.5637 37.0698 61.7781 37.3321C61.9923 37.5944 62.5644 37.8339 63.4218 38.1207C64.4186 38.4541 65.1953 38.1235 65.5523 37.8619C66.0698 37.4825 66.391 37.0726 66.51 36.763C66.6512 36.3953 66.7738 35.7379 66.7265 34.9501C66.2978 34.2053 65.5351 33.5386 64.6512 33.2246C64.3408 33.2002 63.915 33.2002 63.3329 33.487" stroke="#363636" stroke-width="2.71107" stroke-linecap="round"/>
<path d="M10 42.4668C15.0151 43.0345 18.4502 43.3743 19.7169 44.2976C20.0846 46.8768 20.0832 48.8682 20.1549 49.3213C20.1792 49.5378 20.1792 49.727 20.3226 50.0654" stroke="#363636" stroke-width="2.71107" stroke-linecap="round"/>
<path d="M27.3467 41.1777C27.3467 43.3541 27.3467 45.5304 27.3467 46.8645C27.3467 48.1985 27.3467 48.6243 27.3703 48.9383C27.394 49.2523 27.4413 49.4415 27.6334 49.7799" stroke="#363636" stroke-width="2.71107" stroke-linecap="round"/>
<path d="M28.0645 46.1949C29.1999 46.1949 30.258 46.1949 31.1641 46.1713C31.5971 46.1476 31.9756 46.1003 32.2652 46.0523C32.5548 46.0043 32.744 45.9569 32.939 45.9082" stroke="#363636" stroke-width="2.71107" stroke-linecap="round"/>
<path d="M23.0462 54.7972C21.9107 56.7843 21.515 58.1392 21.8727 58.7119C22.134 59.1304 22.7078 59.5256 23.3759 59.9793C23.8109 60.2747 24.7121 60.2453 25.834 60.198C26.5437 60.168 27.0103 59.6747 27.3924 59.1263C28.1553 58.0313 27.5394 56.3772 27.3006 55.5177C27.1581 55.0046 26.5386 54.608 25.7049 54.3212C25.2497 54.2238 24.7293 54.2238 24.3902 54.2474C24.0512 54.2711 23.9092 54.3184 23.4763 54.6539" stroke="#363636" stroke-width="2.71107" stroke-linecap="round"/>
<path d="M40.9678 47.343C39.8323 48.1 39.1054 48.6319 38.8667 48.9652C38.6038 49.3324 38.6739 50.0154 38.7212 50.6835C38.7564 51.1817 39.1498 51.5466 39.5785 51.928C40.4622 52.7141 42.2925 52.6477 43.5219 52.386C43.8473 52.3168 44.0731 52.0756 44.2638 51.7423C44.7667 50.8632 44.6954 49.3588 44.5291 48.4921C44.1233 47.9179 43.1728 47.1566 42.2617 46.7939C41.9757 46.7695 41.5498 46.7695 41.1111 46.7695" stroke="#363636" stroke-width="2.71107" stroke-linecap="round"/>
<path d="M49.5703 43.7598C49.6176 45.8415 49.6649 47.9232 49.6893 49.8236C49.7137 51.7239 49.7137 53.3799 49.7137 54.9426" stroke="#363636" stroke-width="2.71107" stroke-linecap="round"/>
<path d="M50 48.7754C50.5677 48.7754 51.1355 48.7754 51.9484 48.8227C52.7613 48.87 53.8022 48.9646 54.8746 49.0621" stroke="#363636" stroke-width="2.71107" stroke-linecap="round"/>
<path d="M57.5977 44.043C60.1224 44.043 63.2693 44.2322 64.6443 44.5426C65.2785 44.6858 64.1984 47.7018 63.2199 51.1161C62.5726 52.9691 62.1396 54.1204 61.8055 55.1233C61.6607 55.5111 61.5661 55.653 61.4686 55.7993" stroke="#363636" stroke-width="2.71107" stroke-linecap="round"/>
<path d="M63.6201 50.2109C65.6244 52.0719 66.6739 53.0267 67.4646 53.5307C67.775 53.7923 68.0631 53.9859 68.3728 54.1285C68.5406 54.2238 68.7298 54.3658 69.0682 54.6554" stroke="#363636" stroke-width="2.71107" stroke-linecap="round"/>
<path d="M73.2256 44.1875V55.8004" stroke="#363636" stroke-width="2.71107" stroke-linecap="round"/>
<path d="M82.4021 45.9082C82.2128 45.9082 81.3583 46.2394 80.1404 47.1197C78.9745 47.9623 79.3913 49.3949 79.4623 49.8236C79.5546 50.381 79.916 50.7813 80.1777 51.091C80.5254 51.5026 80.9669 51.6903 81.4186 51.762C82.9621 52.007 83.8329 50.929 84.4071 50.4501C85.4136 49.6107 84.6974 47.5354 84.4114 47.1534C84.2673 47.0078 84.1254 46.9605 83.9813 46.8652C83.8372 46.7699 83.6953 46.6279 83.2623 46.4817" stroke="#363636" stroke-width="2.71107" stroke-linecap="round"/>
<path d="M78.2441 56.373C79.9947 56.6096 81.7452 56.8462 83.0492 56.968C84.3531 57.0899 85.1574 57.0899 85.9861 57.0899" stroke="#363636" stroke-width="2.71107" stroke-linecap="round"/>
<path d="M89.2832 44.6191C89.5671 46.8901 89.7133 49.4794 89.737 51.7245C89.8079 52.7396 89.8567 53.3604 89.8803 54.0765C89.904 54.3668 89.9513 54.5088 90.0001 55.0851" stroke="#363636" stroke-width="2.71107" stroke-linecap="round"/>
<path d="M38.2441 61.248V65.9792" stroke="#363636" stroke-width="2.71107" stroke-linecap="round"/>
<path d="M33.9424 66.8398C35.551 67.0764 37.1596 67.313 38.7453 67.4821C40.3309 67.6513 41.8449 67.7459 43.4048 67.8434" stroke="#363636" stroke-width="2.71107" stroke-linecap="round"/>
<path d="M38.8174 71.7173C37.9658 72.4743 37.5271 73.6212 37.5507 74.8628C37.5636 75.5403 37.8597 75.9682 38.2883 76.4212C38.7435 76.9022 39.5299 77.0693 40.2934 77.0937C40.8792 77.1124 41.2532 76.784 41.5392 76.546C42.3137 75.9015 42.3529 74.5417 42.307 73.0134C41.6862 72.1488 41.0195 71.6714 40.2303 71.3359C40.0145 71.2872 39.778 71.2872 39.3909 71.4306" stroke="#363636" stroke-width="2.71107" stroke-linecap="round"/>
<path d="M47.7061 63.6855C47.9899 66.8081 48.1835 68.8899 48.3025 69.7723C48.3742 70.1816 48.4688 70.5128 48.5175 70.778C48.5663 71.0433 48.5663 71.2325 48.5663 71.4275" stroke="#363636" stroke-width="2.71107" stroke-linecap="round"/>
<path d="M48.2793 67.2715H52.437" stroke="#363636" stroke-width="2.71107" stroke-linecap="round"/>
<path d="M58.0283 62.2539C60.8441 62.2539 62.4169 62.3958 63.7065 62.7528C64.218 62.8944 64.3337 63.2518 64.4068 63.8238C64.4799 64.3958 64.4799 65.2475 64.338 65.7808C64.1961 66.3141 63.9122 66.5034 63.6713 66.6245C62.9064 67.0093 62.0943 66.9851 61.4477 67.1041C60.6226 67.2559 59.7516 67.3665 59.3437 67.8432C58.828 68.446 59.0319 69.7521 58.9129 70.7564C58.879 71.0429 58.8885 71.3751 59.0068 71.5693C59.1251 71.7636 59.3617 71.8109 60.4061 71.8353C61.4505 71.8597 63.2957 71.8597 65.1968 71.8597" stroke="#363636" stroke-width="2.71107" stroke-linecap="round"/>
<path d="M53.8711 77.3066C56.0474 77.6851 58.5406 78.0694 61.3765 78.3561C62.8403 78.4536 64.3543 78.4536 64.9923 78.4299C65.6303 78.4063 65.3464 78.359 64.6238 78.3102" stroke="#363636" stroke-width="2.71107" stroke-linecap="round"/>
<path d="M60.1787 78.7402C60.1787 79.4972 60.1787 80.2542 60.1787 80.8807C60.1787 81.5073 60.1787 81.9804 60.3221 82.7546" stroke="#363636" stroke-width="2.71107" stroke-linecap="round"/>
</svg>
