<svg width="100" height="93" viewBox="0 0 100 93" fill="none" xmlns="http://www.w3.org/2000/svg">
<g clip-path="url(#clip0_4008_34615)">
<path fill-rule="evenodd" clip-rule="evenodd" d="M65 0C76.4156 0 85.8434 8.21823 87.3019 18.868C87.3735 19.3909 87.6943 19.8491 88.1623 20.093C95.2102 23.7662 100 30.9672 100 39.25C100 47.5325 95.2099 54.7318 88.1623 58.405C87.6943 58.649 87.3735 59.1072 87.302 59.6301C85.8442 70.2808 76.4162 78.5 65 78.5C60.1342 78.5 55.629 77.0069 51.9482 74.4688C51.2495 73.987 50.285 74.1129 49.741 74.7645C47.3509 77.6276 44.4829 79.8257 41.3096 81.1342C40.9573 81.2795 40.664 81.5417 40.4954 81.8834L35.6793 91.6445C35.0117 92.9977 32.9887 92.629 32.8413 91.1273L32.0913 83.4847C32.0239 82.798 31.4949 82.2523 30.8201 82.108C23.6855 80.5823 17.6818 74.6953 14.4838 66.6211C14.325 66.2202 14.008 65.9016 13.6099 65.7359C5.60475 62.4041 2.30679e-05 54.7099 0 45.75C0 38.3111 3.86344 31.7446 9.75639 27.8227C10.3153 27.4508 10.5913 26.771 10.4529 26.1141C10.1559 24.7042 10 23.2447 10 21.75C10 9.73782 20.0736 0 32.5 0C38.3349 2.01193e-05 43.6508 2.14736 47.6488 5.66881C48.2745 6.2199 49.2255 6.2199 49.8512 5.66881C53.8492 2.14736 59.1651 6.08299e-06 65 0Z" fill="#DEF4F1"/>
</g>
<defs>
<clipPath id="clip0_4008_34615">
<rect width="100" height="92.482" fill="white"/>
</clipPath>
</defs>
</svg>
