<svg width="100" height="100" viewBox="0 0 100 100" fill="none" xmlns="http://www.w3.org/2000/svg">
<path d="M36.4971 35.4023C39.2744 34.7411 41.3002 34.2682 42.3342 34.0678C42.7731 33.9997 43.0376 33.9997 43.1738 35.3222C43.3101 36.6447 43.3101 39.2898 43.5105 42.2154" stroke="#363636" stroke-width="3.31081" stroke-linecap="round"/>
<path d="M43.7109 34.601C45.4302 34.4687 47.1756 34.4006 48.478 35.0949C48.9209 37.1779 48.8548 39.1377 48.7546 40.4351C48.7205 41.2036 48.7205 42.1955 48.7205 43.2175" stroke="#363636" stroke-width="3.31081" stroke-linecap="round"/>
<path d="M41.707 48.4297C41.707 49.8845 41.707 51.3392 41.7401 52.254C41.7732 53.1687 41.8393 53.4994 41.9074 54.2408" stroke="#363636" stroke-width="3.31081" stroke-linecap="round"/>
<path d="M38.9023 54.0391C40.8861 54.1052 42.8699 54.1713 44.1233 54.2054C45.3767 54.2394 45.8396 54.2394 46.3165 54.4398" stroke="#363636" stroke-width="3.31081" stroke-linecap="round"/>
<path d="M58.5397 34C57.7462 35.587 56.9527 37.1741 56.4778 38.2892C56.0029 39.4043 55.8706 39.9995 55.7344 40.813" stroke="#363636" stroke-width="3.31081" stroke-linecap="round"/>
<path d="M57.7383 37.8066C58.7963 38.2034 59.8543 38.6002 60.7631 38.9699C61.6718 39.3396 62.3992 39.6702 62.9062 39.8736C63.4131 40.077 63.6776 40.1431 64.3509 40.612" stroke="#363636" stroke-width="3.31081" stroke-linecap="round"/>
<path d="M53.3301 47.4269C55.3139 47.4269 57.2977 47.4269 59.0139 47.4269C60.7302 47.4269 62.1189 47.4269 63.75 47.2266" stroke="#363636" stroke-width="3.31081" stroke-linecap="round"/>
<path d="M58.9414 48.0254C58.9414 48.9512 58.9414 49.8769 58.9745 50.5192C59.0075 51.1614 59.0737 51.492 59.1077 51.7946C59.1418 52.0972 59.1418 52.3617 59.1418 52.6342" stroke="#363636" stroke-width="3.31081" stroke-linecap="round"/>
<path d="M53.3301 55.6406C54.4642 59.6443 54.9973 60.9788 55.931 61.584C57.0011 61.586 58.1994 61.4517 59.5359 61.2854C60.0028 61.2513 60.6641 61.2513 61.3454 61.2513" stroke="#363636" stroke-width="3.31081" stroke-linecap="round"/>
<path d="M70.5625 35.6016C70.9593 39.9659 71.2959 42.7432 71.6285 43.5778C72.6966 44.0176 73.8307 44.0838 74.6643 44.217C75.035 44.2842 75.2996 44.3503 75.9728 44.6188" stroke="#363636" stroke-width="3.31081" stroke-linecap="round"/>
<path d="M82.5859 35.8047C82.6521 37.8546 82.7182 39.9045 82.7523 41.225C82.7863 42.5456 82.7863 43.0746 82.9867 44.0204" stroke="#363636" stroke-width="3.31081" stroke-linecap="round"/>
<path d="M83.9883 40.6133H88.7975" stroke="#363636" stroke-width="3.31081" stroke-linecap="round"/>
<path d="M90.0002 36.8047C90.0002 38.3256 90.0002 39.8465 89.9671 40.7622C89.9341 41.678 89.8679 41.9425 89.8339 42.4094C89.7998 42.8763 89.7998 43.5376 89.7998 44.2189" stroke="#363636" stroke-width="3.31081" stroke-linecap="round"/>
<path d="M28.4826 48.4297C28.2181 48.4297 26.4287 48.6281 23.6263 49.3585C20.0436 50.2922 20.4713 53.832 20.1006 55.6034C19.9297 56.42 20.1988 57.1764 20.5976 57.8757C21.0993 58.7556 22.1325 59.3806 23.1975 59.8816C23.7638 60.1479 24.5271 60.0519 24.9018 59.7874C25.2765 59.5229 25.2765 58.9939 25.1442 58.5891C24.7154 57.2766 23.3448 56.8498 21.9752 56.1134C20.6903 55.4225 18.4034 55.9761 16.6009 56.5422C14.5241 57.1944 14.0591 58.4448 13.2896 59.081C12.4402 59.7834 12.1194 61.0498 11.5192 62.7501C11.2548 63.4992 11.2497 64.1237 11.2497 64.293C11.2497 65.9944 10.8489 60.7252 10.6826 59.59C10.5096 58.4089 10.5163 57.4489 10.2829 57.2475C9.70178 56.7463 10.1797 59.4427 10.2808 60.8154C10.3781 62.135 10.7808 63.5867 11.0483 64.6236C11.1095 64.8607 11.1816 65.0575 11.3809 65.1927C12.5392 65.9785 14.6482 64.3962 16.0869 63.9273C16.4556 63.8592 16.8524 63.8592 17.156 63.793C17.4596 63.7269 17.6579 63.5947 18.2631 63.4584" stroke="#363636" stroke-width="3.31081" stroke-linecap="round"/>
</svg>
