<svg width="100" height="100" viewBox="0 0 100 100" fill="none" xmlns="http://www.w3.org/2000/svg">
<path d="M34.8096 33.5779C37.934 32.834 40.2131 32.3019 41.3764 32.0765C41.87 31.9999 42.1676 31.9999 42.3209 33.4877C42.4742 34.9755 42.4742 37.9512 42.6996 41.2425" stroke="#363636" stroke-width="3.72465" stroke-linecap="round"/>
<path d="M42.9248 32.6761C44.859 32.5273 46.8225 32.4507 48.2878 33.2318C48.786 35.5752 48.7116 37.7799 48.5989 39.2395C48.5606 40.104 48.5606 41.2199 48.5606 42.3696" stroke="#363636" stroke-width="3.72465" stroke-linecap="round"/>
<path d="M40.6709 48.2324C40.6709 49.869 40.6709 51.5057 40.7081 52.5348C40.7453 53.5639 40.8197 53.9358 40.8963 54.7699" stroke="#363636" stroke-width="3.72465" stroke-linecap="round"/>
<path d="M37.5156 54.5449C39.7474 54.6193 41.9791 54.6937 43.3892 54.732C44.7993 54.7704 45.32 54.7704 45.8565 54.9958" stroke="#363636" stroke-width="3.72465" stroke-linecap="round"/>
<path d="M59.6072 32C58.7145 33.7854 57.8218 35.5708 57.2875 36.8253C56.7532 38.0799 56.6045 38.7494 56.4512 39.6646" stroke="#363636" stroke-width="3.72465" stroke-linecap="round"/>
<path d="M58.7051 36.2832C59.8954 36.7296 61.0856 37.1759 62.1079 37.5918C63.1303 38.0077 63.9486 38.3797 64.5189 38.6085C65.0893 38.8373 65.3868 38.9117 66.1443 39.4392" stroke="#363636" stroke-width="3.72465" stroke-linecap="round"/>
<path d="M53.7461 47.1043C55.9779 47.1043 58.2096 47.1043 60.1404 47.1043C62.0712 47.1043 63.6335 47.1043 65.4685 46.8789" stroke="#363636" stroke-width="3.72465" stroke-linecap="round"/>
<path d="M60.0586 47.7793C60.0586 48.8208 60.0586 49.8623 60.0958 50.5848C60.133 51.3073 60.2074 51.6792 60.2457 52.0196C60.284 52.36 60.284 52.6576 60.284 52.9642" stroke="#363636" stroke-width="3.72465" stroke-linecap="round"/>
<path d="M53.7461 56.3457C55.022 60.8498 55.6217 62.3512 56.6722 63.032C57.876 63.0342 59.2241 62.8832 60.7277 62.6961C61.2529 62.6578 61.9968 62.6578 62.7633 62.6578" stroke="#363636" stroke-width="3.72465" stroke-linecap="round"/>
<path d="M73.1328 33.8027C73.5792 38.7126 73.9579 41.8371 74.3321 42.776C75.5336 43.2708 76.8096 43.3452 77.7474 43.4951C78.1644 43.5706 78.462 43.645 79.2194 43.9471" stroke="#363636" stroke-width="3.72465" stroke-linecap="round"/>
<path d="M86.6592 34.0293C86.7336 36.3354 86.808 38.6416 86.8463 40.1272C86.8846 41.6128 86.8846 42.2079 87.11 43.2719" stroke="#363636" stroke-width="3.72465" stroke-linecap="round"/>
<path d="M88.2363 39.4395H93.6467" stroke="#363636" stroke-width="3.72465" stroke-linecap="round"/>
<path d="M94.9998 35.1562C94.9998 36.8673 94.9998 38.5783 94.9626 39.6085C94.9255 40.6387 94.8511 40.9363 94.8127 41.4615C94.7744 41.9868 94.7744 42.7307 94.7744 43.4972" stroke="#363636" stroke-width="3.72465" stroke-linecap="round"/>
<path d="M25.7929 48.2324C25.4954 48.2324 23.4823 48.4556 20.3296 49.2773C16.2991 50.3278 16.7802 54.31 16.3632 56.3028C16.1709 57.2215 16.4736 58.0725 16.9222 58.8592C17.4866 59.8491 18.649 60.5522 19.8472 61.1158C20.4842 61.4154 21.3429 61.3074 21.7645 61.0098C22.186 60.7122 22.186 60.1171 22.0373 59.6617C21.5548 58.1852 20.0129 57.705 18.4721 56.8765C17.0266 56.0993 14.4538 56.7221 12.426 57.359C10.0897 58.0927 9.56644 59.4994 8.70079 60.2152C7.74518 61.0053 7.38428 62.43 6.70911 64.3428C6.41164 65.1856 6.40591 65.8881 6.40591 66.0786C6.40591 67.9927 5.95505 62.0648 5.76794 60.7878C5.57325 59.459 5.58083 58.379 5.31821 58.1525C4.6645 57.5886 5.20211 60.6221 5.31595 62.1663C5.4254 63.6509 5.8784 65.284 6.17935 66.4506C6.24815 66.7173 6.32926 66.9386 6.55356 67.0908C7.85665 67.9748 10.2292 66.1947 11.8478 65.6672C12.2626 65.5906 12.7089 65.5906 13.0505 65.5162C13.392 65.4418 13.6152 65.293 14.296 65.1397" stroke="#363636" stroke-width="3.72465" stroke-linecap="round"/>
</svg>
