<svg width="100" height="100" viewBox="0 0 100 100" fill="none" xmlns="http://www.w3.org/2000/svg">
<path d="M11.1309 20.9413C10.5239 21.6242 10.1353 22.3554 10.0203 23.082C9.91844 23.7259 10.2089 24.3489 10.6866 24.9037C11.1293 25.4178 11.7793 25.6538 12.4479 25.8263C13.2076 26.0223 13.8499 25.847 14.2701 25.6567C15.3339 25.175 15.3457 24.3167 15.4802 23.4746C15.7105 22.0326 15.0031 21.1735 14.6007 20.6176C14.4282 20.3687 14.1983 20.1756 13.7217 20.0606C13.397 20.0215 12.9037 20.0215 12.1656 20.1365" stroke="#363636" stroke-width="2.63247" stroke-linecap="round"/>
<path d="M19.0639 18.1836C18.9881 20.0047 18.9122 21.8258 18.8731 22.9537C18.834 24.0815 18.834 24.4609 18.949 25.0817" stroke="#363636" stroke-width="2.63247" stroke-linecap="round"/>
<path d="M19.2939 22.32C19.4078 22.32 19.5216 22.32 19.8268 22.32C20.1321 22.32 20.6253 22.32 21.0311 22.3011C21.437 22.2821 21.7405 22.2442 22.0532 22.2051" stroke="#363636" stroke-width="2.63247" stroke-linecap="round"/>
<path d="M28.261 16.9182C27.1987 18.5117 26.6514 19.5602 26.6704 20C26.6879 20.4054 26.8802 20.7869 27.1285 21.1692C27.3887 21.5697 27.9126 21.8987 28.5818 22.1476C29.1867 22.3726 29.7153 22.2838 30.1545 22.1504C31.313 21.7987 31.8227 20.8685 32.0544 20.2742C32.4806 19.1805 32.0941 18.0334 31.8262 17.3994C31.608 16.8829 31.0225 16.7274 30.3718 16.5929C30.1419 16.5733 29.8384 16.5733 29.6251 16.5923C29.4118 16.6113 29.298 16.6492 28.9508 16.8032" stroke="#363636" stroke-width="2.63247" stroke-linecap="round"/>
<path d="M29.5262 25.0801C29.0709 27.5082 28.7984 28.9488 28.741 29.369C28.7214 29.5995 28.7214 29.8651 28.7024 30.0588C28.6835 30.2525 28.6455 30.3663 28.6064 30.7136" stroke="#363636" stroke-width="2.63247" stroke-linecap="round"/>
<path d="M24.583 30.8281C26.2524 30.8281 27.7952 30.904 28.9438 31.019C29.637 31.0581 30.8201 31.2098 32.3141 31.4587C32.8596 31.5559 32.9734 31.5938 33.0907 31.6329" stroke="#363636" stroke-width="2.63247" stroke-linecap="round"/>
<path d="M39.1834 18.5293C38.0073 20.6539 36.8311 22.7785 36.2822 23.8161C35.7332 24.8537 35.847 24.7399 35.9643 24.6226" stroke="#363636" stroke-width="2.63247" stroke-linecap="round"/>
<path d="M38.6084 21.5156C39.2913 21.8571 39.9742 22.1985 40.364 22.4314C40.7537 22.6642 40.8296 22.778 40.9256 22.8556C41.0216 22.9332 41.1354 22.9711 41.2527 23.0102" stroke="#363636" stroke-width="2.63247" stroke-linecap="round"/>
<path d="M44.9319 19.6777C44.0214 20.8159 43.1108 21.9541 42.5848 22.6163C42.0589 23.2786 41.945 23.4303 41.8295 23.6223C41.714 23.8143 41.6001 24.042 41.2529 24.5064" stroke="#363636" stroke-width="2.63247" stroke-linecap="round"/>
<path d="M42.9775 22.2051C44.8745 23.2674 46.0035 23.8905 46.2904 24.0434C46.5393 24.1963 46.8083 24.3504 47.0951 24.5223C47.2302 24.6183 47.3441 24.7321 47.4613 24.8494" stroke="#363636" stroke-width="2.63247" stroke-linecap="round"/>
<path d="M52.29 16C52.4797 18.0108 52.6694 20.0216 52.7672 21.987C52.8649 23.9524 52.8649 25.8114 52.8459 26.9209C52.8269 28.0303 52.789 28.3339 52.7499 28.8765" stroke="#363636" stroke-width="2.63247" stroke-linecap="round"/>
<path d="M15.2697 35.7734C15.2318 35.8493 15.1938 35.9252 14.7949 36.9317C14.396 37.9383 13.6372 39.8732 13.1704 41.0028C12.7036 42.1324 12.5519 42.3979 12.3955 42.6716" stroke="#363636" stroke-width="2.63247" stroke-linecap="round"/>
<path d="M14.3496 38.9922C15.958 40.3327 16.4167 40.7144 16.9916 41.0794C17.2974 41.2893 17.5676 41.5204 17.8159 41.7307C17.9504 41.8273 18.1022 41.9032 18.2585 41.9814" stroke="#363636" stroke-width="2.63247" stroke-linecap="round"/>
<path d="M21.3636 36.9219C21.2877 36.9978 20.6416 38.4406 19.7028 40.6434C19.3332 41.5942 19.2182 41.9403 19.0843 42.3225C19.0262 42.5151 18.9883 42.7048 18.9492 42.9003" stroke="#363636" stroke-width="2.63247" stroke-linecap="round"/>
<path d="M21.1338 39.6836C21.8604 40.2573 22.3961 40.7919 22.9514 41.1765C23.4654 41.5944 23.8919 42.0198 24.1213 42.2687C24.2368 42.3658 24.3506 42.4038 24.4679 42.4428" stroke="#363636" stroke-width="2.63247" stroke-linecap="round"/>
<path d="M17.6846 48.1911C18.4054 48.1911 19.1263 48.1911 19.7632 48.1911C20.4001 48.1911 20.9313 48.1911 21.2618 48.1722C21.5924 48.1532 21.7062 48.1153 22.0534 48.0762" stroke="#363636" stroke-width="2.63247" stroke-linecap="round"/>
<path d="M33.8949 39.9121C31.3691 39.9121 30.0688 39.988 29.1841 40.046C28.991 40.0587 28.8018 40.103 28.6662 40.2363C27.6785 41.2072 28.4523 43.7383 28.8921 44.8713C29.0201 45.2012 29.1801 45.4295 29.4284 45.6209C29.9519 46.0244 31.5082 45.8905 32.7993 45.6807C33.012 45.6226 33.1637 45.5847 33.3747 45.5651C33.5857 45.5456 33.8513 45.5456 34.1249 45.5456" stroke="#363636" stroke-width="2.63247" stroke-linecap="round"/>
<path d="M37.6885 38.3027C37.9161 41.1103 38.0334 42.8222 38.0903 43.4712C38.261 44.3478 38.3783 45.1595 38.3973 45.6952C38.4162 45.9275 38.4542 46.0792 38.4933 46.2356" stroke="#363636" stroke-width="2.63247" stroke-linecap="round"/>
<path d="M38.3789 41.75C38.5307 41.75 38.6824 41.75 39.1021 41.75C39.5217 41.75 40.2046 41.75 40.6323 41.769C41.06 41.7879 41.2117 41.8259 41.598 41.9799" stroke="#363636" stroke-width="2.63247" stroke-linecap="round"/>
<path d="M43.8975 34.9688C43.9354 34.9309 43.9733 34.893 44.4861 34.7596C44.9989 34.6262 45.9853 34.3986 47.0016 34.1641" stroke="#363636" stroke-width="2.63247" stroke-linecap="round"/>
<path d="M43.7822 35.8887C44.51 38.8767 44.7388 39.4113 45.1596 39.9304C45.6539 39.9517 47.0289 39.5711 48.7144 39.0538C49.3375 38.8779 49.4893 38.8779 49.5307 38.8779" stroke="#363636" stroke-width="2.63247" stroke-linecap="round"/>
<path d="M43.4375 45.8906H50.6805" stroke="#363636" stroke-width="2.63247" stroke-linecap="round"/>
<path d="M45.3916 51.0647C45.4675 54.024 45.6204 55.7762 45.8118 56.178C45.8938 56.3501 45.9274 56.466 46.1745 56.5246C47.6837 56.8826 48.951 56.3533 49.6788 56.1257C51.336 55.6073 50.1812 52.8329 50.0685 50.9371C50.0351 50.3745 48.997 50.6807 48.1733 50.7388C47.7715 50.7957 47.3863 50.8727 46.8713 50.9302C46.5459 50.9498 46.0906 50.9498 45.6215 50.9498" stroke="#363636" stroke-width="2.63247" stroke-linecap="round"/>
<path d="M56.4289 34.2797C56.2012 34.2797 55.7804 34.9626 55.4723 36.1111C55.2767 36.8403 56.4254 37.1907 57.0376 37.4396C57.4822 37.6203 58.2626 37.5758 59.2008 37.4425C59.5782 37.3888 59.7216 37.1953 59.8377 36.9274C60.1062 36.308 60.1079 35.6237 60.0699 35.1454C60.0397 34.7648 59.7641 34.5487 59.5348 34.3958C59.0743 34.1268 58.0844 34.0498 57.2555 34.24C57.0451 34.3544 56.7416 34.5441 56.4289 34.7396" stroke="#363636" stroke-width="2.63247" stroke-linecap="round"/>
<path d="M55.5088 42.6694C56.7608 42.6315 58.0128 42.5935 58.9803 42.555C59.9477 42.5165 60.5927 42.4785 61.2572 42.4395" stroke="#363636" stroke-width="2.63247" stroke-linecap="round"/>
<path d="M56.8883 47.1552C58.5576 47.0034 59.6073 46.9252 59.9516 46.9442C60.1072 46.9528 60.2201 47.0011 60.3356 47.2293C60.4512 47.4575 60.565 47.8749 60.5667 48.3744C60.5685 48.874 60.4546 49.4431 59.8648 49.869C57.3682 51.6721 56.4307 51.2159 55.9318 51.7706C55.6836 52.0465 55.8915 52.5944 56.0628 53.1864C56.2832 53.9481 56.7722 54.3212 57.0015 54.3976C57.4999 54.5511 58.9083 54.6281 60.6512 54.6092C61.2939 54.5902 61.4457 54.5523 61.717 54.5132" stroke="#363636" stroke-width="2.63247" stroke-linecap="round"/>
<path d="M64.1318 31.1738C64.5135 32.8535 64.8975 34.8459 65.2223 36.2077C65.6057 37.8154 65.8564 38.4514 65.9897 39.009C66.0632 39.3161 67.9465 39.4516 70.6477 39.4326C71.6038 39.4259 71.7175 39.3757 71.8141 39.2613C72.0396 38.9942 72.1026 38.4962 72.1601 37.354C72.1417 33.3594 72.0647 32.7868 72.0457 32.2126C72.0267 31.9798 71.9888 31.8659 71.9497 31.6337" stroke="#363636" stroke-width="2.63247" stroke-linecap="round"/>
<path d="M65.7412 35.8862C66.8415 35.8862 67.9417 35.8862 68.7172 35.8862C69.4926 35.8862 69.91 35.8862 70.2388 35.8672C70.5676 35.8482 70.7952 35.8103 71.1447 35.6562" stroke="#363636" stroke-width="2.63247" stroke-linecap="round"/>
<path d="M75.2842 31.2891C75.782 35.7315 75.859 36.803 76.1637 38.0854C76.2716 38.5395 76.5442 39.0954 76.7184 39.4076C76.9393 39.8034 77.9204 39.7968 79.1655 39.7398C79.617 39.7192 79.6898 39.5691 79.7668 39.3967C79.9197 38.9966 80.0358 36.7892 80.1123 33.7431C80.1508 32.6698 80.1888 32.556 80.2278 32.0938" stroke="#363636" stroke-width="2.63247" stroke-linecap="round"/>
<path d="M76.0889 34.9688C77.3788 35.1205 78.1951 35.2366 78.4819 35.3321C78.617 35.3895 78.7309 35.4654 78.9033 35.5045C79.0758 35.5436 79.3034 35.5436 79.7679 35.6586" stroke="#363636" stroke-width="2.63247" stroke-linecap="round"/>
<path d="M83.3311 33.588C83.3311 33.5121 84.2416 33.2833 85.7161 32.9959C86.28 32.8982 86.4697 32.8982 86.6433 32.8792C86.8169 32.8602 86.9687 32.8223 87.4699 32.7832" stroke="#363636" stroke-width="2.63247" stroke-linecap="round"/>
<path d="M88.8506 29.4512C88.9265 30.5894 89.0023 31.7276 89.0414 33.0537C89.0805 34.3799 89.0805 35.8595 89.0805 37.384" stroke="#363636" stroke-width="2.63247" stroke-linecap="round"/>
<path d="M84.4814 39.5664C84.6723 42.4372 84.8264 43.5098 84.9787 44.0295C85.0133 44.1477 85.169 44.2019 85.3414 44.2221C86.2452 44.3275 87.312 43.8593 88.1191 43.7248C88.6525 43.7053 89.117 43.6673 89.4418 43.6099C89.6148 43.5903 89.8045 43.5903 89.9999 43.5903" stroke="#363636" stroke-width="2.63247" stroke-linecap="round"/>
<path d="M34.125 58.4219C34.3147 59.2945 34.5044 60.1671 34.6021 60.7304C34.6998 61.2938 34.6998 61.5214 34.7188 61.6956C34.7378 61.8698 34.7757 61.9836 34.8148 62.1009" stroke="#363636" stroke-width="2.63247" stroke-linecap="round"/>
<path d="M31.251 63.9411C33.2997 63.9032 35.3485 63.8652 36.6884 63.8457C38.0284 63.8261 38.5975 63.8261 39.4138 63.9411" stroke="#363636" stroke-width="2.63247" stroke-linecap="round"/>
<path d="M35.1601 69.2287C35.0084 69.2287 34.3232 69.9495 33.4793 71.3073C33.1206 71.8845 33.3942 72.4754 33.6621 72.8628C34.1699 73.5973 34.852 73.7504 35.5183 73.8079C36.9004 73.9271 37.9941 73.7136 38.3574 73.4653C38.7152 73.2207 39.0288 72.7191 39.3352 72.1454C39.5808 71.6856 39.529 71.0337 39.472 70.364C39.4289 69.8564 38.9564 69.5368 38.4218 69.25C37.0031 68.8458 35.8545 68.7688 35.1078 68.7878C34.8164 68.8067 34.7026 68.8447 34.4703 68.8838" stroke="#363636" stroke-width="2.63247" stroke-linecap="round"/>
<path d="M45.2773 62.4473V69.4604" stroke="#363636" stroke-width="2.63247" stroke-linecap="round"/>
<path d="M45.2773 65.8954C46.3017 65.7816 47.3261 65.6678 47.9297 65.5902C48.5333 65.5126 48.685 65.4746 49.0713 65.4355" stroke="#363636" stroke-width="2.63247" stroke-linecap="round"/>
<path d="M50.4505 61.6387C50.147 64.1427 49.8434 66.6467 49.6491 68.1453C49.4548 69.644 49.379 70.0613 49.3008 70.4913" stroke="#363636" stroke-width="2.63247" stroke-linecap="round"/>
<path d="M39.8735 78.4258C39.8735 78.4637 39.8735 78.5017 39.4182 79.261C38.963 80.0204 38.0524 81.5 37.1143 83.0245" stroke="#363636" stroke-width="2.63247" stroke-linecap="round"/>
<path d="M39.6436 81.416C39.6815 81.416 39.7194 81.416 40.2891 81.7006C40.8588 81.9851 41.959 82.5542 43.3226 83.1405" stroke="#363636" stroke-width="2.63247" stroke-linecap="round"/>
<path d="M46.0816 78.0801C45.7781 79.5977 45.4746 81.1153 45.2992 81.954C45.1239 82.7927 45.086 82.9065 45.0469 83.0237" stroke="#363636" stroke-width="2.63247" stroke-linecap="round"/>
<path d="M45.7373 80.7266C47.1031 81.2577 47.9964 81.6072 48.3597 81.7412C48.5333 81.7992 48.6851 81.8372 48.915 81.9136C49.145 81.9901 49.4485 82.1039 49.8762 82.2212" stroke="#363636" stroke-width="2.63247" stroke-linecap="round"/>
<path d="M56.4287 64.0566C56.6563 68.3059 56.8495 71.0261 57.0403 72.0205C57.1553 72.4839 57.3071 72.8633 57.9923 73.0587C58.6775 73.2541 59.8916 73.2541 61.1424 73.2541" stroke="#363636" stroke-width="2.63247" stroke-linecap="round"/>
<path d="M60.5674 66.9293C61.8194 66.6257 63.0714 66.3222 63.8112 66.1469C64.5511 65.9716 64.7408 65.9336 64.9902 65.9141C65.2397 65.8945 65.5432 65.8945 65.8559 65.8945" stroke="#363636" stroke-width="2.63247" stroke-linecap="round"/>
<path d="M65.9717 63.1367C66.0855 64.844 66.1993 66.5513 66.2959 67.6395C66.3925 68.7277 66.4683 69.145 66.6615 69.6899" stroke="#363636" stroke-width="2.63247" stroke-linecap="round"/>
<path d="M70.6846 61.1816C70.9524 65.547 71.0295 66.8473 71.1249 67.9039C71.1444 68.2683 71.1824 68.7661 71.2399 69.5111C71.2594 69.9147 71.2594 70.3699 71.0295 70.7241" stroke="#363636" stroke-width="2.63247" stroke-linecap="round"/>
</svg>
