<svg width="100" height="100" viewBox="0 0 100 100" fill="none" xmlns="http://www.w3.org/2000/svg">
<path d="M6.27229 17.5601C5.58937 18.3284 5.1522 19.151 5.02286 19.9685C4.90824 20.6928 5.23497 21.3938 5.77238 22.0179C6.27043 22.5962 7.00176 22.8618 7.75388 23.0558C8.60853 23.2763 9.33119 23.0791 9.80393 22.865C11.0007 22.3231 11.0139 21.3576 11.1652 20.4102C11.4244 18.7879 10.6285 17.8214 10.1758 17.1961C9.98177 16.916 9.72309 16.6987 9.18697 16.5694C8.82158 16.5254 8.26671 16.5254 7.43635 16.6548" stroke="#363636" stroke-width="2.96154" stroke-linecap="round"/>
<path d="M15.1972 14.457C15.1118 16.5058 15.0265 18.5545 14.9825 19.8234C14.9385 21.0922 14.9385 21.519 15.0678 22.2175" stroke="#363636" stroke-width="2.96154" stroke-linecap="round"/>
<path d="M15.4551 19.1118C15.5831 19.1118 15.7112 19.1118 16.0546 19.1118C16.398 19.1118 16.9528 19.1118 17.4094 19.0904C17.866 19.0691 18.2074 19.0264 18.5592 18.9824" stroke="#363636" stroke-width="2.96154" stroke-linecap="round"/>
<path d="M25.5439 13.033C24.3488 14.8257 23.7331 16.0052 23.7544 16.5C23.7741 16.9561 23.9905 17.3853 24.2699 17.8154C24.5626 18.2659 25.152 18.636 25.9047 18.916C26.5853 19.1692 27.18 19.0693 27.6741 18.9193C28.9774 18.5235 29.5508 17.4771 29.8115 16.8084C30.291 15.5781 29.8561 14.2876 29.5547 13.5743C29.3092 12.9932 28.6506 12.8183 27.9186 12.667C27.6599 12.645 27.3184 12.645 27.0785 12.6663C26.8386 12.6877 26.7105 12.7303 26.3199 12.9037" stroke="#363636" stroke-width="2.96154" stroke-linecap="round"/>
<path d="M26.9664 22.2168C26.4542 24.9485 26.1476 26.5691 26.083 27.0418C26.061 27.3012 26.061 27.5999 26.0396 27.8179C26.0183 28.0358 25.9756 28.1639 25.9316 28.5545" stroke="#363636" stroke-width="2.96154" stroke-linecap="round"/>
<path d="M21.4053 28.6836C23.2833 28.6836 25.019 28.769 26.3112 28.8983C27.0911 28.9423 28.422 29.113 30.1028 29.393C30.7165 29.5023 30.8445 29.545 30.9765 29.589" stroke="#363636" stroke-width="2.96154" stroke-linecap="round"/>
<path d="M37.8313 14.8457C36.5082 17.2359 35.185 19.6261 34.5674 20.7934C33.9498 21.9607 34.0779 21.8327 34.2098 21.7007" stroke="#363636" stroke-width="2.96154" stroke-linecap="round"/>
<path d="M37.1846 18.207C37.9529 18.5912 38.7211 18.9753 39.1596 19.2372C39.5981 19.4991 39.6834 19.6272 39.7914 19.7145C39.8994 19.8018 40.0275 19.8445 40.1594 19.8885" stroke="#363636" stroke-width="2.96154" stroke-linecap="round"/>
<path d="M44.2981 16.1387C43.2737 17.4191 42.2493 18.6996 41.6576 19.4446C41.0659 20.1896 40.9378 20.3603 40.8078 20.5763C40.6778 20.7923 40.5498 21.0484 40.1592 21.571" stroke="#363636" stroke-width="2.96154" stroke-linecap="round"/>
<path d="M42.0996 18.9824C44.2337 20.1775 45.5038 20.8786 45.8266 21.0506C46.1066 21.2226 46.4092 21.3959 46.7319 21.5893C46.8839 21.6973 47.012 21.8253 47.1439 21.9573" stroke="#363636" stroke-width="2.96154" stroke-linecap="round"/>
<path d="M52.5762 12C52.7896 14.2622 53.003 16.5243 53.1129 18.7354C53.2229 20.9465 53.2229 23.0379 53.2015 24.286C53.1802 25.5342 53.1375 25.8756 53.0935 26.4861" stroke="#363636" stroke-width="2.96154" stroke-linecap="round"/>
<path d="M10.9288 34.2461C10.8861 34.3315 10.8435 34.4168 10.3946 35.5492C9.94584 36.6816 9.09219 38.8584 8.56707 40.1291C8.04194 41.3999 7.87122 41.6987 7.69531 42.0065" stroke="#363636" stroke-width="2.96154" stroke-linecap="round"/>
<path d="M9.89355 37.8672C11.703 39.3753 12.2191 39.8047 12.8658 40.2154C13.2098 40.4514 13.5138 40.7114 13.7932 40.9481C13.9445 41.0567 14.1152 41.1421 14.2911 41.23" stroke="#363636" stroke-width="2.96154" stroke-linecap="round"/>
<path d="M17.7835 35.5391C17.6982 35.6244 16.9713 37.2476 15.9152 39.7258C15.4994 40.7955 15.37 41.1848 15.2194 41.6148C15.154 41.8315 15.1114 42.0449 15.0674 42.2648" stroke="#363636" stroke-width="2.96154" stroke-linecap="round"/>
<path d="M17.5254 38.6445C18.3428 39.2899 18.9455 39.8914 19.5703 40.324C20.1484 40.7942 20.6283 41.2727 20.8863 41.5528C21.0163 41.662 21.1443 41.7047 21.2763 41.7487" stroke="#363636" stroke-width="2.96154" stroke-linecap="round"/>
<path d="M13.6445 48.2153C14.4555 48.2153 15.2665 48.2153 15.983 48.2153C16.6996 48.2153 17.2971 48.2153 17.669 48.1939C18.0408 48.1726 18.1689 48.1299 18.5595 48.0859" stroke="#363636" stroke-width="2.96154" stroke-linecap="round"/>
<path d="M31.882 38.9023C29.0404 38.9023 27.5775 38.9877 26.5822 39.053C26.365 39.0673 26.1522 39.117 25.9996 39.2671C24.8884 40.3594 25.759 43.2068 26.2537 44.4814C26.3978 44.8526 26.5777 45.1094 26.8571 45.3247C27.446 45.7787 29.1969 45.628 30.6493 45.392C30.8886 45.3267 31.0594 45.284 31.2967 45.262C31.534 45.24 31.8328 45.24 32.1406 45.24" stroke="#363636" stroke-width="2.96154" stroke-linecap="round"/>
<path d="M36.1494 37.0918C36.4055 40.2503 36.5374 42.1762 36.6015 42.9063C36.7935 43.8925 36.9255 44.8057 36.9468 45.4084C36.9681 45.6697 37.0108 45.8404 37.0548 46.0163" stroke="#363636" stroke-width="2.96154" stroke-linecap="round"/>
<path d="M36.9258 40.9707C37.0965 40.9707 37.2672 40.9707 37.7393 40.9707C38.2114 40.9707 38.9797 40.9707 39.4609 40.992C39.942 41.0134 40.1127 41.0561 40.5473 41.2294" stroke="#363636" stroke-width="2.96154" stroke-linecap="round"/>
<path d="M43.1348 33.3409C43.1774 33.2982 43.2201 33.2556 43.797 33.1055C44.3738 32.9555 45.4836 32.6994 46.627 32.4355" stroke="#363636" stroke-width="2.96154" stroke-linecap="round"/>
<path d="M43.0049 34.375C43.8236 37.7366 44.081 38.338 44.5544 38.922C45.1105 38.9459 46.6575 38.5178 48.5536 37.9357C49.2546 37.7379 49.4253 37.7379 49.4719 37.7379" stroke="#363636" stroke-width="2.96154" stroke-linecap="round"/>
<path d="M42.6172 45.627H50.7656" stroke="#363636" stroke-width="2.96154" stroke-linecap="round"/>
<path d="M44.8154 51.4486C44.9008 54.7778 45.0728 56.7489 45.2882 57.201C45.3804 57.3946 45.4182 57.525 45.6962 57.5909C47.394 57.9937 48.8198 57.3982 49.6385 57.1421C51.5029 56.559 50.2038 53.4378 50.077 51.305C50.0394 50.672 48.8715 51.0166 47.9448 51.0819C47.4928 51.1459 47.0595 51.2326 46.48 51.2972C46.114 51.3192 45.6018 51.3192 45.0741 51.3192" stroke="#363636" stroke-width="2.96154" stroke-linecap="round"/>
<path d="M57.2328 32.5654C56.9768 32.5654 56.5034 33.3337 56.1567 34.6258C55.9367 35.4461 57.229 35.8403 57.9177 36.1203C58.4178 36.3236 59.2958 36.2736 60.3512 36.1235C60.7758 36.0632 60.9372 35.8455 61.0678 35.5441C61.3699 34.8472 61.3717 34.0774 61.3291 33.5393C61.2951 33.1111 60.985 32.868 60.727 32.696C60.209 32.3934 59.0954 32.3067 58.1628 32.5208C57.9261 32.6495 57.5847 32.8629 57.2328 33.0827" stroke="#363636" stroke-width="2.96154" stroke-linecap="round"/>
<path d="M56.1973 42.0048C57.6058 41.9621 59.0143 41.9194 60.1027 41.8761C61.1911 41.8328 61.9167 41.7901 62.6643 41.7461" stroke="#363636" stroke-width="2.96154" stroke-linecap="round"/>
<path d="M57.7497 47.051C59.6277 46.8803 60.8086 46.7924 61.196 46.8137C61.371 46.8233 61.498 46.8777 61.628 47.1345C61.758 47.3912 61.886 47.8607 61.888 48.4227C61.8899 48.9847 61.7618 49.6249 61.0983 50.1041C58.2896 52.1326 57.2349 51.6193 56.6736 52.2434C56.3944 52.5538 56.6283 53.1701 56.821 53.8362C57.0689 54.6931 57.6191 55.1128 57.8771 55.1988C58.4378 55.3715 60.0222 55.4582 61.983 55.4368C62.706 55.4155 62.8768 55.3728 63.182 55.3288" stroke="#363636" stroke-width="2.96154" stroke-linecap="round"/>
<path d="M65.8984 29.0723C66.3278 30.9619 66.7598 33.2034 67.1252 34.7354C67.5566 36.5441 67.8385 37.2595 67.9886 37.8868C68.0712 38.2324 70.19 38.3848 73.2288 38.3634C74.3045 38.3559 74.4323 38.2994 74.541 38.1707C74.7947 37.8702 74.8656 37.31 74.9303 36.025C74.9096 31.531 74.8229 30.8869 74.8016 30.2409C74.7802 29.9789 74.7376 29.8509 74.6936 29.5896" stroke="#363636" stroke-width="2.96154" stroke-linecap="round"/>
<path d="M67.709 34.3739C68.9468 34.3739 70.1846 34.3739 71.057 34.3739C71.9294 34.3739 72.3989 34.3739 72.7688 34.3526C73.1387 34.3312 73.3948 34.2886 73.788 34.1152" stroke="#363636" stroke-width="2.96154" stroke-linecap="round"/>
<path d="M78.4443 29.2012C79.0044 34.1989 79.091 35.4043 79.4338 36.8471C79.5551 37.3579 79.8619 37.9834 80.0579 38.3345C80.3064 38.7799 81.4101 38.7724 82.8109 38.7083C83.3188 38.6851 83.4007 38.5163 83.4873 38.3223C83.6593 37.8722 83.79 35.3888 83.876 31.9619C83.9193 30.7546 83.962 30.6265 84.006 30.1066" stroke="#363636" stroke-width="2.96154" stroke-linecap="round"/>
<path d="M79.3496 33.3398C80.8008 33.5106 81.7191 33.6412 82.0418 33.7486C82.1938 33.8132 82.3219 33.8986 82.5159 33.9426C82.7099 33.9865 82.966 33.9865 83.4885 34.1159" stroke="#363636" stroke-width="2.96154" stroke-linecap="round"/>
<path d="M87.498 31.7882C87.498 31.7028 88.5224 31.4454 90.1812 31.1221C90.8156 31.0122 91.029 31.0122 91.2243 30.9908C91.4196 30.9695 91.5904 30.9268 92.1543 30.8828" stroke="#363636" stroke-width="2.96154" stroke-linecap="round"/>
<path d="M93.707 27.1328C93.7924 28.4133 93.8778 29.6938 93.9217 31.1857C93.9657 32.6776 93.9657 34.3422 93.9657 36.0573" stroke="#363636" stroke-width="2.96154" stroke-linecap="round"/>
<path d="M88.792 38.5137C89.0067 41.7433 89.18 42.95 89.3514 43.5347C89.3904 43.6676 89.5654 43.7287 89.7595 43.7513C90.7763 43.8699 91.9764 43.3432 92.8843 43.1919C93.4845 43.1699 94.007 43.1272 94.3724 43.0626C94.567 43.0406 94.7805 43.0406 95.0003 43.0406" stroke="#363636" stroke-width="2.96154" stroke-linecap="round"/>
<path d="M32.1406 59.7246C32.354 60.7063 32.5674 61.688 32.6774 62.3218C32.7873 62.9555 32.7873 63.2116 32.8087 63.4076C32.83 63.6035 32.8727 63.7316 32.9167 63.8635" stroke="#363636" stroke-width="2.96154" stroke-linecap="round"/>
<path d="M28.9072 65.9347C31.2121 65.892 33.5169 65.8494 35.0244 65.8274C36.5318 65.8054 37.1721 65.8054 38.0904 65.9347" stroke="#363636" stroke-width="2.96154" stroke-linecap="round"/>
<path d="M33.3048 71.8837C33.1341 71.8837 32.3632 72.6947 31.4138 74.2222C31.0103 74.8715 31.3181 75.5363 31.6195 75.9722C32.1908 76.7985 32.9582 76.9707 33.7077 77.0354C35.2626 77.1695 36.493 76.9293 36.9018 76.6499C37.3043 76.3748 37.6571 75.8105 38.0018 75.1651C38.2781 74.6478 38.2197 73.9144 38.1557 73.161C38.1072 72.5899 37.5756 72.2304 36.9742 71.9077C35.3781 71.453 34.086 71.3664 33.2459 71.3877C32.9181 71.4091 32.79 71.4517 32.5288 71.4957" stroke="#363636" stroke-width="2.96154" stroke-linecap="round"/>
<path d="M44.6865 64.2539V72.1437" stroke="#363636" stroke-width="2.96154" stroke-linecap="round"/>
<path d="M44.6865 68.1345C45.8389 68.0065 46.9914 67.8785 47.6704 67.7912C48.3494 67.7038 48.5202 67.6612 48.9548 67.6172" stroke="#363636" stroke-width="2.96154" stroke-linecap="round"/>
<path d="M50.5073 63.3457C50.1658 66.1627 49.8244 68.9798 49.6058 70.6657C49.3872 72.3517 49.3018 72.8212 49.2139 73.3049" stroke="#363636" stroke-width="2.96154" stroke-linecap="round"/>
<path d="M38.6071 82.2305C38.6071 82.2732 38.6071 82.3158 38.0949 83.1701C37.5827 84.0244 36.5583 85.689 35.5029 87.4041" stroke="#363636" stroke-width="2.96154" stroke-linecap="round"/>
<path d="M38.3486 85.5938C38.3913 85.5938 38.434 85.5938 39.0749 85.9139C39.7158 86.234 40.9535 86.8742 42.4875 87.5339" stroke="#363636" stroke-width="2.96154" stroke-linecap="round"/>
<path d="M45.5918 81.8418C45.2503 83.5491 44.9089 85.2564 44.7116 86.1999C44.5144 87.1435 44.4717 87.2715 44.4277 87.4034" stroke="#363636" stroke-width="2.96154" stroke-linecap="round"/>
<path d="M45.2041 84.8184C46.7407 85.4159 47.7456 85.8091 48.1544 85.9598C48.3497 86.0251 48.5204 86.0678 48.7791 86.1538C49.0378 86.2398 49.3792 86.3679 49.8604 86.4998" stroke="#363636" stroke-width="2.96154" stroke-linecap="round"/>
<path d="M57.2324 66.0645C57.4885 70.8449 57.7058 73.9051 57.9205 75.0239C58.0499 75.5451 58.2206 75.9719 58.9915 76.1918C59.7623 76.4117 61.1282 76.4117 62.5354 76.4117" stroke="#363636" stroke-width="2.96154" stroke-linecap="round"/>
<path d="M61.8887 69.2969C63.2972 68.9554 64.7057 68.614 65.538 68.4167C66.3703 68.2195 66.5837 68.1768 66.8644 68.1548C67.1451 68.1328 67.4865 68.1328 67.8383 68.1328" stroke="#363636" stroke-width="2.96154" stroke-linecap="round"/>
<path d="M67.9678 65.0293C68.0958 66.95 68.2239 68.8707 68.3325 70.0949C68.4412 71.3191 68.5265 71.7886 68.7438 72.4017" stroke="#363636" stroke-width="2.96154" stroke-linecap="round"/>
<path d="M73.2705 62.8301C73.5719 67.7411 73.6585 69.204 73.7659 70.3926C73.7879 70.8026 73.8306 71.3627 73.8952 72.2008C73.9172 72.6548 73.9172 73.167 73.6585 73.5653" stroke="#363636" stroke-width="2.96154" stroke-linecap="round"/>
</svg>
