<svg width="100" height="100" viewBox="0 0 100 100" fill="none" xmlns="http://www.w3.org/2000/svg" xmlns:xlink="http://www.w3.org/1999/xlink">
<g clip-path="url(#clip0_4008_34589)">
<ellipse cx="50" cy="49.5086" rx="50" ry="26.5086" fill="white"/>
<use xlink:href="#stroke0_4008_34589" transform="translate(100.871 49.1921) scale(0.00450431) rotate(111.439)"/>
<use xlink:href="#stroke0_4008_34589" transform="translate(101.212 49.6543) scale(0.00604589) rotate(119.45)"/>
<use xlink:href="#stroke0_4008_34589" transform="translate(99.5345 51.6422) scale(0.00645545) rotate(-119.321)"/>
<use xlink:href="#stroke0_4008_34589" transform="translate(98.9351 51.4709) scale(0.00572735) rotate(-80.3769)"/>
<use xlink:href="#stroke0_4008_34589" transform="translate(98.8195 51.9339) scale(0.00604631) rotate(-79.4173)"/>
<use xlink:href="#stroke0_4008_34589" transform="translate(98.9736 52.205) scale(0.00481778) rotate(-78.7903)"/>
<use xlink:href="#stroke0_4008_34589" transform="translate(98.6777 51.2368) scale(0.00684921) rotate(-8.49133)"/>
<use xlink:href="#stroke0_4008_34589" transform="translate(99.0002 51.8623) scale(0.00475716) rotate(-1.64184)"/>
<use xlink:href="#stroke0_4008_34589" transform="translate(99.0772 51.787) scale(0.00631642) rotate(18.9844)"/>
<use xlink:href="#stroke0_4008_34589" transform="translate(100.38 52.4901) scale(0.0065519) rotate(85.1847)"/>
<use xlink:href="#stroke0_4008_34589" transform="translate(100.304 53.0392) scale(0.00653847) rotate(89.3683)"/>
<use xlink:href="#stroke0_4008_34589" transform="translate(100.173 54.0097) scale(0.00520172) rotate(112.045)"/>
<use xlink:href="#stroke0_4008_34589" transform="translate(97.9647 54.1067) scale(0.00603522) rotate(-16.3984)"/>
<use xlink:href="#stroke0_4008_34589" transform="translate(99.2447 56.1131) scale(0.00499846) rotate(-160.436)"/>
<use xlink:href="#stroke0_4008_34589" transform="translate(99.0496 54.3686) scale(0.00594806) rotate(58.0292)"/>
<use xlink:href="#stroke0_4008_34589" transform="translate(99.4275 56.7167) scale(0.00579567) rotate(171.376)"/>
<use xlink:href="#stroke0_4008_34589" transform="translate(99.3857 55.7724) scale(0.00589773) rotate(102.95)"/>
<use xlink:href="#stroke0_4008_34589" transform="translate(98.9329 57.6671) scale(0.00597964) rotate(179.503)"/>
<use xlink:href="#stroke0_4008_34589" transform="translate(98.8151 56.3177) scale(0.00606646) rotate(89.3064)"/>
<use xlink:href="#stroke0_4008_34589" transform="translate(96.7297 56.7539) scale(0.00594296) rotate(-7.95749)"/>
<use xlink:href="#stroke0_4008_34589" transform="translate(96.4758 58.3113) scale(0.00507754) rotate(-71.3997)"/>
<use xlink:href="#stroke0_4008_34589" transform="translate(97.7792 57.2222) scale(0.00570361) rotate(70.0596)"/>
<use xlink:href="#stroke0_4008_34589" transform="translate(96.531 59.54) scale(0.00508749) rotate(-112.928)"/>
<use xlink:href="#stroke0_4008_34589" transform="translate(97.588 58.3983) scale(0.00464191) rotate(99.9104)"/>
<use xlink:href="#stroke0_4008_34589" transform="translate(95.9873 60.495) scale(0.00661519) rotate(-115.498)"/>
<use xlink:href="#stroke0_4008_34589" transform="translate(95.2596 59.0158) scale(0.00557494) rotate(-17.1658)"/>
<use xlink:href="#stroke0_4008_34589" transform="translate(96.0895 60.984) scale(0.00512487) rotate(-144.314)"/>
<use xlink:href="#stroke0_4008_34589" transform="translate(94.9837 61.0634) scale(0.0053982) rotate(-96.2739)"/>
<use xlink:href="#stroke0_4008_34589" transform="translate(95.017 59.2325) scale(0.00693463) rotate(24.7256)"/>
<use xlink:href="#stroke0_4008_34589" transform="translate(95.5076 62.3614) scale(0.00695156) rotate(-156.341)"/>
<use xlink:href="#stroke0_4008_34589" transform="translate(94.9692 60.2681) scale(0.00529978) rotate(52.5863)"/>
<use xlink:href="#stroke0_4008_34589" transform="translate(94.6453 62.6774) scale(0.00517093) rotate(-147.397)"/>
<use xlink:href="#stroke0_4008_34589" transform="translate(94.8874 61.242) scale(0.00451185) rotate(87.1501)"/>
<use xlink:href="#stroke0_4008_34589" transform="translate(93.6177 61.1296) scale(0.00524118) rotate(23.1738)"/>
<use xlink:href="#stroke0_4008_34589" transform="translate(92.4082 61.9065) scale(0.00654115) rotate(-24.2362)"/>
<use xlink:href="#stroke0_4008_34589" transform="translate(92.7342 61.9982) scale(0.00464688) rotate(3.37653)"/>
<use xlink:href="#stroke0_4008_34589" transform="translate(93.8232 64.0406) scale(0.00628513) rotate(-177.391)"/>
<use xlink:href="#stroke0_4008_34589" transform="translate(91.5131 62.9792) scale(0.00585697) rotate(-31.2058)"/>
<use xlink:href="#stroke0_4008_34589" transform="translate(92.3014 64.5325) scale(0.00456525) rotate(-134.769)"/>
<use xlink:href="#stroke0_4008_34589" transform="translate(92.4072 62.8119) scale(0.00521294) rotate(59.2448)"/>
<use xlink:href="#stroke0_4008_34589" transform="translate(90.5297 64.7272) scale(0.00653892) rotate(-75.559)"/>
<use xlink:href="#stroke0_4008_34589" transform="translate(92.5119 63.7033) scale(0.00674547) rotate(99.7497)"/>
<use xlink:href="#stroke0_4008_34589" transform="translate(91.6994 63.9553) scale(0.00505555) rotate(85.4404)"/>
<use xlink:href="#stroke0_4008_34589" transform="translate(90.2224 65.7733) scale(0.00468062) rotate(-110.273)"/>
<use xlink:href="#stroke0_4008_34589" transform="translate(90.2315 64.1995) scale(0.00461617) rotate(31.6732)"/>
<use xlink:href="#stroke0_4008_34589" transform="translate(90.164 64.3944) scale(0.00462119) rotate(45.0872)"/>
<use xlink:href="#stroke0_4008_34589" transform="translate(90.284 64.5384) scale(0.00553428) rotate(67.1631)"/>
<use xlink:href="#stroke0_4008_34589" transform="translate(88.3027 66.073) scale(0.00567288) rotate(-61.8763)"/>
<use xlink:href="#stroke0_4008_34589" transform="translate(87.9706 66.6694) scale(0.00610089) rotate(-77.8814)"/>
<use xlink:href="#stroke0_4008_34589" transform="translate(88.412 65.0405) scale(0.00632317) rotate(30.1565)"/>
<use xlink:href="#stroke0_4008_34589" transform="translate(88.3031 67.6168) scale(0.0051776) rotate(-138.839)"/>
<use xlink:href="#stroke0_4008_34589" transform="translate(87.1223 67.244) scale(0.00479767) rotate(-78.5154)"/>
<use xlink:href="#stroke0_4008_34589" transform="translate(87.9206 68.3716) scale(0.00692086) rotate(-151.733)"/>
<use xlink:href="#stroke0_4008_34589" transform="translate(86.2662 67.3563) scale(0.0046633) rotate(-57.208)"/>
<use xlink:href="#stroke0_4008_34589" transform="translate(86.778 66.3663) scale(0.00505534) rotate(34.9813)"/>
<use xlink:href="#stroke0_4008_34589" transform="translate(87.6494 67.5501) scale(0.00532673) rotate(129.043)"/>
<use xlink:href="#stroke0_4008_34589" transform="translate(86.5801 66.7433) scale(0.00544139) rotate(61.3873)"/>
<use xlink:href="#stroke0_4008_34589" transform="translate(85.8786 66.9922) scale(0.00482574) rotate(42.8441)"/>
<use xlink:href="#stroke0_4008_34589" transform="translate(84.0751 68.1696) scale(0.00674136) rotate(-47.4979)"/>
<use xlink:href="#stroke0_4008_34589" transform="translate(84.4456 69.1497) scale(0.00476129) rotate(-98.5292)"/>
<use xlink:href="#stroke0_4008_34589" transform="translate(84.5552 69.9133) scale(0.00644507) rotate(-132.368)"/>
<use xlink:href="#stroke0_4008_34589" transform="translate(85.1944 68.4119) scale(0.00460415) rotate(108.23)"/>
<use xlink:href="#stroke0_4008_34589" transform="translate(82.8893 69.7245) scale(0.0063166) rotate(-84.0407)"/>
<use xlink:href="#stroke0_4008_34589" transform="translate(84.8936 69.4886) scale(0.00696651) rotate(143.332)"/>
<use xlink:href="#stroke0_4008_34589" transform="translate(84.1726 70.2574) scale(0.00695141) rotate(167.371)"/>
<use xlink:href="#stroke0_4008_34589" transform="translate(81.3075 69.3155) scale(0.00626187) rotate(-34.5703)"/>
<use xlink:href="#stroke0_4008_34589" transform="translate(81.9249 68.8237) scale(0.00490518) rotate(27.4821)"/>
<use xlink:href="#stroke0_4008_34589" transform="translate(81.3212 70.7559) scale(0.00462876) rotate(-106.156)"/>
<use xlink:href="#stroke0_4008_34589" transform="translate(82.6442 69.3597) scale(0.00697898) rotate(99.1413)"/>
<use xlink:href="#stroke0_4008_34589" transform="translate(81.5623 71.2235) scale(0.00521492) rotate(-169.963)"/>
<use xlink:href="#stroke0_4008_34589" transform="translate(80.6157 69.4914) scale(0.00467107) rotate(39.0239)"/>
<use xlink:href="#stroke0_4008_34589" transform="translate(79.3533 70.8487) scale(0.00485319) rotate(-63.6203)"/>
<use xlink:href="#stroke0_4008_34589" transform="translate(79.2917 69.751) scale(0.00575064) rotate(8.23224)"/>
<use xlink:href="#stroke0_4008_34589" transform="translate(80.5947 70.9625) scale(0.00504159) rotate(135.364)"/>
<use xlink:href="#stroke0_4008_34589" transform="translate(78.9616 69.6584) scale(0.00682954) rotate(34.1393)"/>
<use xlink:href="#stroke0_4008_34589" transform="translate(78.7041 70.004) scale(0.00592875) rotate(42.3432)"/>
<use xlink:href="#stroke0_4008_34589" transform="translate(79.2046 70.737) scale(0.00548437) rotate(96.978)"/>
<use xlink:href="#stroke0_4008_34589" transform="translate(78.3845 70.6761) scale(0.00465538) rotate(71.2547)"/>
<use xlink:href="#stroke0_4008_34589" transform="translate(77.1111 70.7349) scale(0.00487182) rotate(14.2797)"/>
<use xlink:href="#stroke0_4008_34589" transform="translate(78.1339 71.3214) scale(0.00491313) rotate(106.375)"/>
<use xlink:href="#stroke0_4008_34589" transform="translate(75.7731 72.4745) scale(0.00588178) rotate(-77.903)"/>
<use xlink:href="#stroke0_4008_34589" transform="translate(76.0531 71.077) scale(0.00491558) rotate(19.1031)"/>
<use xlink:href="#stroke0_4008_34589" transform="translate(76.9093 71.2363) scale(0.0061309) rotate(85.3408)"/>
<use xlink:href="#stroke0_4008_34589" transform="translate(74.658 72.5164) scale(0.00489399) rotate(-62.5953)"/>
<use xlink:href="#stroke0_4008_34589" transform="translate(76.4164 73.0089) scale(0.00650569) rotate(158.358)"/>
<use xlink:href="#stroke0_4008_34589" transform="translate(74.0849 73.6937) scale(0.00644628) rotate(-108.437)"/>
<use xlink:href="#stroke0_4008_34589" transform="translate(75.3327 73.5314) scale(0.00657246) rotate(169.916)"/>
<use xlink:href="#stroke0_4008_34589" transform="translate(73.19 73.5333) scale(0.00477258) rotate(-95.9179)"/>
<use xlink:href="#stroke0_4008_34589" transform="translate(74.639 73.1552) scale(0.0057854) rotate(142.756)"/>
<use xlink:href="#stroke0_4008_34589" transform="translate(72.3151 73.6495) scale(0.00480394) rotate(-87.4738)"/>
<use xlink:href="#stroke0_4008_34589" transform="translate(72.0073 72.2251) scale(0.00556147) rotate(3.89731)"/>
<use xlink:href="#stroke0_4008_34589" transform="translate(72.6064 74.1466) scale(0.00463712) rotate(-155.568)"/>
<use xlink:href="#stroke0_4008_34589" transform="translate(71.9135 74.6102) scale(0.00617721) rotate(-137.995)"/>
<use xlink:href="#stroke0_4008_34589" transform="translate(70.705 72.3382) scale(0.00655727) rotate(7.57596)"/>
<use xlink:href="#stroke0_4008_34589" transform="translate(71.8024 72.6469) scale(0.0059718) rotate(82.4391)"/>
<use xlink:href="#stroke0_4008_34589" transform="translate(69.8596 72.9704) scale(0.00492911) rotate(-4.85405)"/>
<use xlink:href="#stroke0_4008_34589" transform="translate(68.9462 73.6063) scale(0.00606651) rotate(-41.1247)"/>
<use xlink:href="#stroke0_4008_34589" transform="translate(68.5839 73.5552) scale(0.00582452) rotate(-33.3123)"/>
<use xlink:href="#stroke0_4008_34589" transform="translate(68.8098 74.913) scale(0.00525133) rotate(-109.983)"/>
<use xlink:href="#stroke0_4008_34589" transform="translate(69.7532 75.1177) scale(0.00663888) rotate(-177.919)"/>
<use xlink:href="#stroke0_4008_34589" transform="translate(68.7745 72.8442) scale(0.00668803) rotate(57.5496)"/>
<use xlink:href="#stroke0_4008_34589" transform="translate(66.8712 74.9594) scale(0.0060886) rotate(-82.2468)"/>
<use xlink:href="#stroke0_4008_34589" transform="translate(68.2169 73.6818) scale(0.00472078) rotate(88.2302)"/>
<use xlink:href="#stroke0_4008_34589" transform="translate(67.7375 73.192) scale(0.00682857) rotate(69.5366)"/>
<use xlink:href="#stroke0_4008_34589" transform="translate(65.4202 74.8545) scale(0.00595247) rotate(-64.3685)"/>
<use xlink:href="#stroke0_4008_34589" transform="translate(65.6623 73.8541) scale(0.00446841) rotate(4.88344)"/>
<use xlink:href="#stroke0_4008_34589" transform="translate(64.6402 74.525) scale(0.00579312) rotate(-41.9889)"/>
<use xlink:href="#stroke0_4008_34589" transform="translate(64.4713 75.381) scale(0.00549158) rotate(-83.3826)"/>
<use xlink:href="#stroke0_4008_34589" transform="translate(63.542 74.5768) scale(0.00685488) rotate(-38.8819)"/>
<use xlink:href="#stroke0_4008_34589" transform="translate(65.135 75.624) scale(0.00473689) rotate(-179.356)"/>
<use xlink:href="#stroke0_4008_34589" transform="translate(64.5292 76.0365) scale(0.00567378) rotate(-159.725)"/>
<use xlink:href="#stroke0_4008_34589" transform="translate(63.6281 73.713) scale(0.00633466) rotate(40.1604)"/>
<use xlink:href="#stroke0_4008_34589" transform="translate(63.0184 76.0734) scale(0.00493942) rotate(-126.547)"/>
<use xlink:href="#stroke0_4008_34589" transform="translate(62.2084 74.4633) scale(0.00456788) rotate(-3.36119)"/>
<use xlink:href="#stroke0_4008_34589" transform="translate(63.1908 74.3967) scale(0.00506683) rotate(82.5858)"/>
<use xlink:href="#stroke0_4008_34589" transform="translate(61.151 76.0154) scale(0.00593163) rotate(-88.2164)"/>
<use xlink:href="#stroke0_4008_34589" transform="translate(62.5097 74.6073) scale(0.0052638) rotate(92.2443)"/>
<use xlink:href="#stroke0_4008_34589" transform="translate(60.8905 74.1088) scale(0.00623721) rotate(25.8321)"/>
<use xlink:href="#stroke0_4008_34589" transform="translate(61.4505 74.4312) scale(0.00571701) rotate(76.0303)"/>
<use xlink:href="#stroke0_4008_34589" transform="translate(60.7582 76.427) scale(0.00512523) rotate(-160.22)"/>
<use xlink:href="#stroke0_4008_34589" transform="translate(59.4394 74.607) scale(0.00503421) rotate(9.73425)"/>
<use xlink:href="#stroke0_4008_34589" transform="translate(58.7657 74.9627) scale(0.00492911) rotate(-14.7097)"/>
<use xlink:href="#stroke0_4008_34589" transform="translate(58.1782 74.827) scale(0.00610378) rotate(-12.3111)"/>
<use xlink:href="#stroke0_4008_34589" transform="translate(58.5722 76.6944) scale(0.00533535) rotate(-128.901)"/>
<use xlink:href="#stroke0_4008_34589" transform="translate(58.3327 74.2976) scale(0.0065894) rotate(42.6326)"/>
<use xlink:href="#stroke0_4008_34589" transform="translate(57.5474 74.5697) scale(0.00563906) rotate(26.9447)"/>
<use xlink:href="#stroke0_4008_34589" transform="translate(58.6442 75.7524) scale(0.00608679) rotate(132.448)"/>
<use xlink:href="#stroke0_4008_34589" transform="translate(55.9382 75.4285) scale(0.00523799) rotate(-30.5613)"/>
<use xlink:href="#stroke0_4008_34589" transform="translate(57.8133 75.4153) scale(0.00657093) rotate(115.13)"/>
<use xlink:href="#stroke0_4008_34589" transform="translate(57.0458 75.8386) scale(0.00465377) rotate(132.354)"/>
<use xlink:href="#stroke0_4008_34589" transform="translate(56.5293 76.8851) scale(0.0065704) rotate(-178.596)"/>
<use xlink:href="#stroke0_4008_34589" transform="translate(56.3067 75.2699) scale(0.00626618) rotate(103.305)"/>
<use xlink:href="#stroke0_4008_34589" transform="translate(53.5363 76.0543) scale(0.00576577) rotate(-56.0174)"/>
<use xlink:href="#stroke0_4008_34589" transform="translate(55.2166 75.3568) scale(0.0052504) rotate(99.9372)"/>
<use xlink:href="#stroke0_4008_34589" transform="translate(54.1141 77.0149) scale(0.0053422) rotate(-150.241)"/>
<use xlink:href="#stroke0_4008_34589" transform="translate(53.2053 77.0741) scale(0.00559734) rotate(-125.045)"/>
<use xlink:href="#stroke0_4008_34589" transform="translate(53.5811 76.7662) scale(0.00456339) rotate(-170.335)"/>
<use xlink:href="#stroke0_4008_34589" transform="translate(53.2198 74.8094) scale(0.00628019) rotate(66.4838)"/>
<use xlink:href="#stroke0_4008_34589" transform="translate(53.0078 75.1007) scale(0.00580213) rotate(83.1412)"/>
<use xlink:href="#stroke0_4008_34589" transform="translate(50.6995 75.9684) scale(0.00530648) rotate(-46.9071)"/>
<use xlink:href="#stroke0_4008_34589" transform="translate(50.7856 74.8044) scale(0.00644611) rotate(16.5243)"/>
<use xlink:href="#stroke0_4008_34589" transform="translate(49.9022 77.0102) scale(0.00666209) rotate(-95.2238)"/>
<use xlink:href="#stroke0_4008_34589" transform="translate(50.1396 76.9193) scale(0.00458498) rotate(-121.707)"/>
<use xlink:href="#stroke0_4008_34589" transform="translate(51.1226 75.3689) scale(0.00631499) rotate(101.48)"/>
<use xlink:href="#stroke0_4008_34589" transform="translate(49.4171 74.9506) scale(0.00522075) rotate(34.0627)"/>
<use xlink:href="#stroke0_4008_34589" transform="translate(50.3267 75.852) scale(0.00586447) rotate(123.722)"/>
<use xlink:href="#stroke0_4008_34589" transform="translate(48.0078 76.5778) scale(0.00448866) rotate(-86.6031)"/>
<use xlink:href="#stroke0_4008_34589" transform="translate(49.6735 76.2555) scale(0.00674898) rotate(141.908)"/>
<use xlink:href="#stroke0_4008_34589" transform="translate(47.6614 77.2607) scale(0.00620818) rotate(-131.663)"/>
<use xlink:href="#stroke0_4008_34589" transform="translate(46.4834 76.4106) scale(0.00489272) rotate(-73.7974)"/>
<use xlink:href="#stroke0_4008_34589" transform="translate(47.6421 76.6753) scale(0.00452042) rotate(-179.423)"/>
<use xlink:href="#stroke0_4008_34589" transform="translate(46.0128 76.6858) scale(0.0047855) rotate(-96.0968)"/>
<use xlink:href="#stroke0_4008_34589" transform="translate(45.6912 74.6771) scale(0.00670591) rotate(17.979)"/>
<use xlink:href="#stroke0_4008_34589" transform="translate(45.7443 74.8926) scale(0.00502097) rotate(38.6689)"/>
<use xlink:href="#stroke0_4008_34589" transform="translate(46.3952 76.0041) scale(0.00474908) rotate(137.069)"/>
<use xlink:href="#stroke0_4008_34589" transform="translate(45.8625 76.527) scale(0.00500793) rotate(169.644)"/>
<use xlink:href="#stroke0_4008_34589" transform="translate(45.8928 76.1894) scale(0.0063882) rotate(145.668)"/>
<use xlink:href="#stroke0_4008_34589" transform="translate(43.9818 76.7484) scale(0.00453667) rotate(-125.002)"/>
<use xlink:href="#stroke0_4008_34589" transform="translate(42.7497 75.3671) scale(0.005615) rotate(-25.7185)"/>
<use xlink:href="#stroke0_4008_34589" transform="translate(42.7344 75.1366) scale(0.00462044) rotate(-5.18173)"/>
<use xlink:href="#stroke0_4008_34589" transform="translate(44.0559 74.8116) scale(0.00693968) rotate(89.8734)"/>
<use xlink:href="#stroke0_4008_34589" transform="translate(42.3831 74.8125) scale(0.00451208) rotate(30.8239)"/>
<use xlink:href="#stroke0_4008_34589" transform="translate(43.1464 75.8893) scale(0.00467056) rotate(142.947)"/>
<use xlink:href="#stroke0_4008_34589" transform="translate(41.3857 76.662) scale(0.00529423) rotate(-114.856)"/>
<use xlink:href="#stroke0_4008_34589" transform="translate(40.682 76.5714) scale(0.00577382) rotate(-101.234)"/>
<use xlink:href="#stroke0_4008_34589" transform="translate(41.0416 76.6095) scale(0.00496607) rotate(-141.188)"/>
<use xlink:href="#stroke0_4008_34589" transform="translate(40.5219 76.5783) scale(0.00501196) rotate(-133.269)"/>
<use xlink:href="#stroke0_4008_34589" transform="translate(39.7854 76.7357) scale(0.00628566) rotate(-120.313)"/>
<use xlink:href="#stroke0_4008_34589" transform="translate(38.5909 75.8877) scale(0.00591397) rotate(-69.2985)"/>
<use xlink:href="#stroke0_4008_34589" transform="translate(40.0498 76.1249) scale(0.00498056) rotate(175.584)"/>
<use xlink:href="#stroke0_4008_34589" transform="translate(39.4098 76.2781) scale(0.00499361) rotate(-166.036)"/>
<use xlink:href="#stroke0_4008_34589" transform="translate(37.8909 76.0044) scale(0.00468006) rotate(-93.7541)"/>
<use xlink:href="#stroke0_4008_34589" transform="translate(37.8735 74.0724) scale(0.00599432) rotate(27.6248)"/>
<use xlink:href="#stroke0_4008_34589" transform="translate(38.8082 75.8559) scale(0.00619395) rotate(161.829)"/>
<use xlink:href="#stroke0_4008_34589" transform="translate(37.9562 74.4381) scale(0.00473101) rotate(84.0664)"/>
<use xlink:href="#stroke0_4008_34589" transform="translate(37.1585 76.1245) scale(0.00510061) rotate(-151.541)"/>
<use xlink:href="#stroke0_4008_34589" transform="translate(35.1106 75.1585) scale(0.00667141) rotate(-53.6929)"/>
<use xlink:href="#stroke0_4008_34589" transform="translate(36.6422 73.8119) scale(0.00643601) rotate(71.1734)"/>
<use xlink:href="#stroke0_4008_34589" transform="translate(34.9484 74.0522) scale(0.00503928) rotate(5.67523)"/>
<use xlink:href="#stroke0_4008_34589" transform="translate(35.1978 73.8224) scale(0.00491473) rotate(42.3019)"/>
<use xlink:href="#stroke0_4008_34589" transform="translate(34.4736 76.0419) scale(0.00636538) rotate(-126.16)"/>
<use xlink:href="#stroke0_4008_34589" transform="translate(33.2024 74.5918) scale(0.00540934) rotate(-43.737)"/>
<use xlink:href="#stroke0_4008_34589" transform="translate(34.3017 75.7109) scale(0.00569414) rotate(-158.926)"/>
<use xlink:href="#stroke0_4008_34589" transform="translate(34.0034 73.5002) scale(0.00565386) rotate(68.6904)"/>
<use xlink:href="#stroke0_4008_34589" transform="translate(33.3426 73.4959) scale(0.0048604) rotate(56.7382)"/>
<use xlink:href="#stroke0_4008_34589" transform="translate(33.8747 74.4299) scale(0.00581073) rotate(133.621)"/>
<use xlink:href="#stroke0_4008_34589" transform="translate(31.4295 75.0301) scale(0.00536956) rotate(-89.9352)"/>
<use xlink:href="#stroke0_4008_34589" transform="translate(32.5699 75.002) scale(0.00511004) rotate(179.435)"/>
<use xlink:href="#stroke0_4008_34589" transform="translate(30.1572 73.7922) scale(0.0064279) rotate(-33.7987)"/>
<use xlink:href="#stroke0_4008_34589" transform="translate(30.157 73.5245) scale(0.0048702) rotate(-17.6522)"/>
<use xlink:href="#stroke0_4008_34589" transform="translate(29.8667 73.4124) scale(0.00470072) rotate(-13.9746)"/>
<use xlink:href="#stroke0_4008_34589" transform="translate(29.6262 72.7708) scale(0.00616258) rotate(11.5419)"/>
<use xlink:href="#stroke0_4008_34589" transform="translate(29.7707 75.062) scale(0.00631273) rotate(-137.652)"/>
<use xlink:href="#stroke0_4008_34589" transform="translate(28.4218 74.1561) scale(0.00517643) rotate(-76.2482)"/>
<use xlink:href="#stroke0_4008_34589" transform="translate(28.1465 73.973) scale(0.00459682) rotate(-73.5469)"/>
<use xlink:href="#stroke0_4008_34589" transform="translate(27.7591 72.3433) scale(0.00678824) rotate(5.14334)"/>
<use xlink:href="#stroke0_4008_34589" transform="translate(29.1777 73.2345) scale(0.00503229) rotate(124.518)"/>
<use xlink:href="#stroke0_4008_34589" transform="translate(28.6998 72.3719) scale(0.00636372) rotate(89.4038)"/>
<use xlink:href="#stroke0_4008_34589" transform="translate(28.0996 72.5915) scale(0.00462805) rotate(96.2583)"/>
<use xlink:href="#stroke0_4008_34589" transform="translate(27.9807 73.0799) scale(0.00491291) rotate(133.431)"/>
<use xlink:href="#stroke0_4008_34589" transform="translate(26.0805 73.8224) scale(0.00498214) rotate(-107.606)"/>
<use xlink:href="#stroke0_4008_34589" transform="translate(26.8899 73.9093) scale(0.00623346) rotate(-171.103)"/>
<use xlink:href="#stroke0_4008_34589" transform="translate(24.682 72.5632) scale(0.00534781) rotate(-41.2808)"/>
<use xlink:href="#stroke0_4008_34589" transform="translate(26.5413 72.7859) scale(0.00580395) rotate(141.255)"/>
<use xlink:href="#stroke0_4008_34589" transform="translate(24.2136 73.0034) scale(0.00457027) rotate(-83.4027)"/>
<use xlink:href="#stroke0_4008_34589" transform="translate(24.7306 73.3908) scale(0.00503628) rotate(-143.767)"/>
<use xlink:href="#stroke0_4008_34589" transform="translate(24.5913 73.3524) scale(0.0056696) rotate(-155.57)"/>
<use xlink:href="#stroke0_4008_34589" transform="translate(23.2317 71.4049) scale(0.00466026) rotate(-0.777488)"/>
<use xlink:href="#stroke0_4008_34589" transform="translate(24.491 72.7242) scale(0.00606022) rotate(167.636)"/>
<use xlink:href="#stroke0_4008_34589" transform="translate(23.7405 72.5884) scale(0.00475046) rotate(179.956)"/>
<use xlink:href="#stroke0_4008_34589" transform="translate(22.3652 72.9719) scale(0.00629455) rotate(-123.811)"/>
<use xlink:href="#stroke0_4008_34589" transform="translate(23.2457 72.3537) scale(0.00617757) rotate(169.85)"/>
<use xlink:href="#stroke0_4008_34589" transform="translate(22.8719 71.21) scale(0.00508781) rotate(119.923)"/>
<use xlink:href="#stroke0_4008_34589" transform="translate(22.4075 70.8158) scale(0.00504866) rotate(104.565)"/>
<use xlink:href="#stroke0_4008_34589" transform="translate(20.1928 70.8374) scale(0.00479539) rotate(-29.9071)"/>
<use xlink:href="#stroke0_4008_34589" transform="translate(21.0166 72.1577) scale(0.00571243) rotate(-151.516)"/>
<use xlink:href="#stroke0_4008_34589" transform="translate(19.633 70.1302) scale(0.00506526) rotate(-3.81028)"/>
<use xlink:href="#stroke0_4008_34589" transform="translate(19.0645 71.6594) scale(0.00638757) rotate(-95.1539)"/>
<use xlink:href="#stroke0_4008_34589" transform="translate(18.3689 71.1264) scale(0.00630111) rotate(-76.3511)"/>
<use xlink:href="#stroke0_4008_34589" transform="translate(19.278 71.6205) scale(0.0063095) rotate(-147.752)"/>
<use xlink:href="#stroke0_4008_34589" transform="translate(17.3489 69.9778) scale(0.00628601) rotate(-40.8433)"/>
<use xlink:href="#stroke0_4008_34589" transform="translate(17.093 70.256) scale(0.00563382) rotate(-62.69)"/>
<use xlink:href="#stroke0_4008_34589" transform="translate(18.8128 69.3069) scale(0.00534378) rotate(104.58)"/>
<use xlink:href="#stroke0_4008_34589" transform="translate(16.6172 70.0537) scale(0.00464737) rotate(-73.8239)"/>
<use xlink:href="#stroke0_4008_34589" transform="translate(16.1558 69.5307) scale(0.00484906) rotate(-50.6362)"/>
<use xlink:href="#stroke0_4008_34589" transform="translate(16.0702 70.0427) scale(0.00498413) rotate(-92.0395)"/>
<use xlink:href="#stroke0_4008_34589" transform="translate(16.1465 68.3053) scale(0.00457508) rotate(20.0959)"/>
<use xlink:href="#stroke0_4008_34589" transform="translate(16.4345 70.2206) scale(0.00610307) rotate(-153.062)"/>
<use xlink:href="#stroke0_4008_34589" transform="translate(16.891 69.0503) scale(0.00586891) rotate(143.317)"/>
<use xlink:href="#stroke0_4008_34589" transform="translate(13.918 68.3548) scale(0.00671711) rotate(-39.0294)"/>
<use xlink:href="#stroke0_4008_34589" transform="translate(16.0458 67.7163) scale(0.00665883) rotate(103.785)"/>
<use xlink:href="#stroke0_4008_34589" transform="translate(13.7304 66.8604) scale(0.00683488) rotate(14.058)"/>
<use xlink:href="#stroke0_4008_34589" transform="translate(13.7566 68.8204) scale(0.00461536) rotate(-124.314)"/>
<use xlink:href="#stroke0_4008_34589" transform="translate(13.9111 68.8107) scale(0.00547697) rotate(-151.749)"/>
<use xlink:href="#stroke0_4008_34589" transform="translate(12.7319 66.1788) scale(0.00681812) rotate(19.7627)"/>
<use xlink:href="#stroke0_4008_34589" transform="translate(13.3903 68.4206) scale(0.00642895) rotate(-164.422)"/>
<use xlink:href="#stroke0_4008_34589" transform="translate(11.7939 65.9214) scale(0.00596428) rotate(11.5358)"/>
<use xlink:href="#stroke0_4008_34589" transform="translate(11.1944 66.196) scale(0.00499506) rotate(-14.7888)"/>
<use xlink:href="#stroke0_4008_34589" transform="translate(11.9664 67.8543) scale(0.00655749) rotate(-150.963)"/>
<use xlink:href="#stroke0_4008_34589" transform="translate(10.5825 67.0178) scale(0.00496061) rotate(-93.219)"/>
<use xlink:href="#stroke0_4008_34589" transform="translate(9.89122 66.9474) scale(0.00667044) rotate(-89.1066)"/>
<use xlink:href="#stroke0_4008_34589" transform="translate(10.3637 64.3584) scale(0.00688037) rotate(35.6454)"/>
<use xlink:href="#stroke0_4008_34589" transform="translate(10.5276 66.4201) scale(0.0047717) rotate(-161.667)"/>
<use xlink:href="#stroke0_4008_34589" transform="translate(11.0936 65.6957) scale(0.00668486) rotate(149.65)"/>
<use xlink:href="#stroke0_4008_34589" transform="translate(10.3981 65.5426) scale(0.00551104) rotate(160.58)"/>
<use xlink:href="#stroke0_4008_34589" transform="translate(9.6317 64.0061) scale(0.00448574) rotate(76.4229)"/>
<use xlink:href="#stroke0_4008_34589" transform="translate(10.0994 64.08) scale(0.00681816) rotate(113.871)"/>
<use xlink:href="#stroke0_4008_34589" transform="translate(9.17876 63.0911) scale(0.00665132) rotate(78.2604)"/>
<use xlink:href="#stroke0_4008_34589" transform="translate(8.06912 62.7042) scale(0.00576181) rotate(45.3681)"/>
<use xlink:href="#stroke0_4008_34589" transform="translate(6.76714 63.9356) scale(0.00467832) rotate(-66.8938)"/>
<use xlink:href="#stroke0_4008_34589" transform="translate(6.67532 62.1665) scale(0.00665499) rotate(11.6425)"/>
<use xlink:href="#stroke0_4008_34589" transform="translate(7.14006 62.0434) scale(0.00498414) rotate(48.0991)"/>
<use xlink:href="#stroke0_4008_34589" transform="translate(6.80164 61.8204) scale(0.00481947) rotate(44.9055)"/>
<use xlink:href="#stroke0_4008_34589" transform="translate(6.35481 61.6392) scale(0.0045538) rotate(33.8087)"/>
<use xlink:href="#stroke0_4008_34589" transform="translate(7.21122 62.9857) scale(0.00599903) rotate(165.506)"/>
<use xlink:href="#stroke0_4008_34589" transform="translate(6.86012 61.8692) scale(0.00473162) rotate(123.203)"/>
<use xlink:href="#stroke0_4008_34589" transform="translate(4.18338 61.7563) scale(0.00681181) rotate(-51.1473)"/>
<use xlink:href="#stroke0_4008_34589" transform="translate(5.78212 62.3256) scale(0.00532116) rotate(-166.843)"/>
<use xlink:href="#stroke0_4008_34589" transform="translate(5.67169 59.9722) scale(0.00622192) rotate(74.7755)"/>
<use xlink:href="#stroke0_4008_34589" transform="translate(4.45103 59.6274) scale(0.00536787) rotate(29.9644)"/>
<use xlink:href="#stroke0_4008_34589" transform="translate(3.77219 59.4136) scale(0.00563518) rotate(8.93495)"/>
<use xlink:href="#stroke0_4008_34589" transform="translate(4.86951 59.5266) scale(0.00446873) rotate(93.0075)"/>
<use xlink:href="#stroke0_4008_34589" transform="translate(4.81639 60.3758) scale(0.00513088) rotate(163.396)"/>
<use xlink:href="#stroke0_4008_34589" transform="translate(4.18541 60.4055) scale(0.0049982) rotate(-167.996)"/>
<use xlink:href="#stroke0_4008_34589" transform="translate(4.7306 59.6624) scale(0.00690335) rotate(152.716)"/>
<use xlink:href="#stroke0_4008_34589" transform="translate(2.28286 58.4914) scale(0.00448683) rotate(-29.3399)"/>
<use xlink:href="#stroke0_4008_34589" transform="translate(2.05828 59.4569) scale(0.00641953) rotate(-97.9721)"/>
<use xlink:href="#stroke0_4008_34589" transform="translate(2.8707 56.9996) scale(0.00533104) rotate(51.9211)"/>
<use xlink:href="#stroke0_4008_34589" transform="translate(1.34325 57.525) scale(0.00547683) rotate(-38.0914)"/>
<use xlink:href="#stroke0_4008_34589" transform="translate(3.4217 57.4515) scale(0.00579499) rotate(135.575)"/>
<use xlink:href="#stroke0_4008_34589" transform="translate(2.7349 55.8524) scale(0.00644267) rotate(75.0481)"/>
<use xlink:href="#stroke0_4008_34589" transform="translate(2.91398 57.0147) scale(0.00598922) rotate(154.134)"/>
<use xlink:href="#stroke0_4008_34589" transform="translate(1.14787 54.9295) scale(0.00617095) rotate(21.9465)"/>
<use xlink:href="#stroke0_4008_34589" transform="translate(0.512966 54.9482) scale(0.00562735) rotate(-6.98791)"/>
<use xlink:href="#stroke0_4008_34589" transform="translate(2.11184 55.854) scale(0.00500335) rotate(160.968)"/>
<use xlink:href="#stroke0_4008_34589" transform="translate(2.10921 54.3128) scale(0.00599668) rotate(99.7935)"/>
<use xlink:href="#stroke0_4008_34589" transform="translate(0.318019 53.2201) scale(0.00681209) rotate(17.5183)"/>
<use xlink:href="#stroke0_4008_34589" transform="translate(-0.41977 53.3707) scale(0.00639831) rotate(-18.7902)"/>
<use xlink:href="#stroke0_4008_34589" transform="translate(-0.396187 53.7753) scale(0.00488534) rotate(-57.7332)"/>
<use xlink:href="#stroke0_4008_34589" transform="translate(0.602961 51.8015) scale(0.00676125) rotate(46.575)"/>
<use xlink:href="#stroke0_4008_34589" transform="translate(0.454183 53.7224) scale(0.00467375) rotate(-143.422)"/>
<use xlink:href="#stroke0_4008_34589" transform="translate(-0.281668 51.6105) scale(0.00480022) rotate(5.59276)"/>
<use xlink:href="#stroke0_4008_34589" transform="translate(1.23106 51.7968) scale(0.00503045) rotate(117.592)"/>
<use xlink:href="#stroke0_4008_34589" transform="translate(0.761843 52.4837) scale(0.00490523) rotate(-174.92)"/>
<use xlink:href="#stroke0_4008_34589" transform="translate(-0.483908 52.4639) scale(0.00661957) rotate(-113.013)"/>
<use xlink:href="#stroke0_4008_34589" transform="translate(0.942476 50.3853) scale(0.00475222) rotate(106.051)"/>
<use xlink:href="#stroke0_4008_34589" transform="translate(-1.01797 49.5579) scale(0.00645529) rotate(-10.4227)"/>
<use xlink:href="#stroke0_4008_34589" transform="translate(0.91031 50.3806) scale(0.00486813) rotate(156.996)"/>
<use xlink:href="#stroke0_4008_34589" transform="translate(0.950295 49.6455) scale(0.00462589) rotate(135.051)"/>
<use xlink:href="#stroke0_4008_34589" transform="translate(1.00461 50.0748) scale(0.00660117) rotate(173.989)"/>
<use xlink:href="#stroke0_4008_34589" transform="translate(-1.19571 48.4938) scale(0.00599314) rotate(-40.1183)"/>
<use xlink:href="#stroke0_4008_34589" transform="translate(-0.408635 49.5361) scale(0.00695249) rotate(-119.423)"/>
<use xlink:href="#stroke0_4008_34589" transform="translate(0.611226 48.9236) scale(0.00652848) rotate(-160.137)"/>
<use xlink:href="#stroke0_4008_34589" transform="translate(0.67722 48.2912) scale(0.00577204) rotate(-163.054)"/>
<use xlink:href="#stroke0_4008_34589" transform="translate(0.627339 45.4383) scale(0.00658995) rotate(56.7586)"/>
<use xlink:href="#stroke0_4008_34589" transform="translate(1.50387 46.3617) scale(0.00554901) rotate(134.795)"/>
<use xlink:href="#stroke0_4008_34589" transform="translate(-0.0470683 45.1213) scale(0.0045784) rotate(9.23913)"/>
<use xlink:href="#stroke0_4008_34589" transform="translate(0.898674 44.5375) scale(0.00523257) rotate(60.1968)"/>
<use xlink:href="#stroke0_4008_34589" transform="translate(-0.501139 44.3624) scale(0.0068237) rotate(-16.0528)"/>
<use xlink:href="#stroke0_4008_34589" transform="translate(0.289798 45.6823) scale(0.00558073) rotate(-110.47)"/>
<use xlink:href="#stroke0_4008_34589" transform="translate(0.0892084 45.261) scale(0.00665975) rotate(-97.418)"/>
<use xlink:href="#stroke0_4008_34589" transform="translate(0.182066 44.2586) scale(0.00521817) rotate(-73.2621)"/>
<use xlink:href="#stroke0_4008_34589" transform="translate(0.154798 43.8248) scale(0.0060287) rotate(-67.7889)"/>
<use xlink:href="#stroke0_4008_34589" transform="translate(0.355532 43.1136) scale(0.00564708) rotate(-53.6758)"/>
<use xlink:href="#stroke0_4008_34589" transform="translate(1.11428 43.645) scale(0.00573514) rotate(-108.639)"/>
<use xlink:href="#stroke0_4008_34589" transform="translate(2.53019 41.6257) scale(0.00446856) rotate(86.1849)"/>
<use xlink:href="#stroke0_4008_34589" transform="translate(1.19048 40.935) scale(0.00643315) rotate(-0.965512)"/>
<use xlink:href="#stroke0_4008_34589" transform="translate(1.61487 40.6833) scale(0.00529622) rotate(1.95041)"/>
<use xlink:href="#stroke0_4008_34589" transform="translate(1.72156 40.3613) scale(0.00554144) rotate(-3.10411)"/>
<use xlink:href="#stroke0_4008_34589" transform="translate(1.7174 41.219) scale(0.00534532) rotate(-69.5889)"/>
<use xlink:href="#stroke0_4008_34589" transform="translate(2.66013 39.5686) scale(0.00476416) rotate(23.6022)"/>
<use xlink:href="#stroke0_4008_34589" transform="translate(3.98172 39.1637) scale(0.00616777) rotate(79.5896)"/>
<use xlink:href="#stroke0_4008_34589" transform="translate(2.39055 40.3716) scale(0.00594841) rotate(-76.9882)"/>
<use xlink:href="#stroke0_4008_34589" transform="translate(4.56289 40.4339) scale(0.00632565) rotate(-177.13)"/>
<use xlink:href="#stroke0_4008_34589" transform="translate(4.25001 40.0582) scale(0.00488696) rotate(-151.924)"/>
<use xlink:href="#stroke0_4008_34589" transform="translate(5.33436 38.3618) scale(0.00555249) rotate(110.226)"/>
<use xlink:href="#stroke0_4008_34589" transform="translate(3.75856 37.5052) scale(0.00596454) rotate(1.04658)"/>
<use xlink:href="#stroke0_4008_34589" transform="translate(5.23117 39.2048) scale(0.00565197) rotate(-157.772)"/>
<use xlink:href="#stroke0_4008_34589" transform="translate(5.45503 36.8245) scale(0.00503875) rotate(60.088)"/>
<use xlink:href="#stroke0_4008_34589" transform="translate(5.96746 36.7854) scale(0.00465984) rotate(79.5677)"/>
<use xlink:href="#stroke0_4008_34589" transform="translate(5.676 38.4363) scale(0.00574309) rotate(-139.79)"/>
<use xlink:href="#stroke0_4008_34589" transform="translate(4.91045 37.0983) scale(0.00507354) rotate(-56.1773)"/>
<use xlink:href="#stroke0_4008_34589" transform="translate(5.37118 36.0188) scale(0.00527654) rotate(-10.6277)"/>
<use xlink:href="#stroke0_4008_34589" transform="translate(5.84392 37.3098) scale(0.00549184) rotate(-101.611)"/>
<use xlink:href="#stroke0_4008_34589" transform="translate(7.0748 37.4068) scale(0.00643921) rotate(-147.937)"/>
<use xlink:href="#stroke0_4008_34589" transform="translate(6.16568 36.0293) scale(0.00510468) rotate(-60.9844)"/>
<use xlink:href="#stroke0_4008_34589" transform="translate(6.26035 35.3959) scale(0.00611909) rotate(-42.6461)"/>
<use xlink:href="#stroke0_4008_34589" transform="translate(8.15479 33.9384) scale(0.00637979) rotate(53.6551)"/>
<use xlink:href="#stroke0_4008_34589" transform="translate(7.25735 35.6201) scale(0.00584068) rotate(-83.8655)"/>
<use xlink:href="#stroke0_4008_34589" transform="translate(9.41481 35.0197) scale(0.00451301) rotate(152.987)"/>
<use xlink:href="#stroke0_4008_34589" transform="translate(7.79158 34.6154) scale(0.00514784) rotate(-57.3045)"/>
<use xlink:href="#stroke0_4008_34589" transform="translate(8.36161 33.169) scale(0.00638426) rotate(2.45225)"/>
<use xlink:href="#stroke0_4008_34589" transform="translate(10.1681 33.1492) scale(0.00490251) rotate(80.2894)"/>
<use xlink:href="#stroke0_4008_34589" transform="translate(8.87168 33.3718) scale(0.00500463) rotate(-29.3317)"/>
<use xlink:href="#stroke0_4008_34589" transform="translate(10.9545 34.2578) scale(0.00536743) rotate(175.814)"/>
<use xlink:href="#stroke0_4008_34589" transform="translate(9.34258 33.687) scale(0.00614377) rotate(-69.4228)"/>
<use xlink:href="#stroke0_4008_34589" transform="translate(11.8294 32.4739) scale(0.00524204) rotate(102.527)"/>
<use xlink:href="#stroke0_4008_34589" transform="translate(12.471 32.9898) scale(0.00605302) rotate(142.188)"/>
<use xlink:href="#stroke0_4008_34589" transform="translate(10.4906 32.6676) scale(0.00552751) rotate(-56.1277)"/>
<use xlink:href="#stroke0_4008_34589" transform="translate(12.3916 33.5239) scale(0.00633812) rotate(-156.113)"/>
<use xlink:href="#stroke0_4008_34589" transform="translate(12.8562 33.0339) scale(0.00532495) rotate(-164.466)"/>
<use xlink:href="#stroke0_4008_34589" transform="translate(11.518 32.3801) scale(0.00670038) rotate(-72.9699)"/>
<use xlink:href="#stroke0_4008_34589" transform="translate(12.313 31.0696) scale(0.0048006) rotate(-16.8404)"/>
<use xlink:href="#stroke0_4008_34589" transform="translate(13.6715 32.4135) scale(0.00498923) rotate(-149.665)"/>
<use xlink:href="#stroke0_4008_34589" transform="translate(14.118 32.1419) scale(0.00472143) rotate(-157.944)"/>
<use xlink:href="#stroke0_4008_34589" transform="translate(14.818 31.9188) scale(0.00541438) rotate(-176.375)"/>
<use xlink:href="#stroke0_4008_34589" transform="translate(14.5141 31.9295) scale(0.00528088) rotate(-139.5)"/>
<use xlink:href="#stroke0_4008_34589" transform="translate(15.6276 31.2598) scale(0.0048147) rotate(168.441)"/>
<use xlink:href="#stroke0_4008_34589" transform="translate(14.6253 31.3156) scale(0.00474783) rotate(-105.593)"/>
<use xlink:href="#stroke0_4008_34589" transform="translate(15.6122 31.5802) scale(0.00619943) rotate(-142.368)"/>
<use xlink:href="#stroke0_4008_34589" transform="translate(15.8124 28.9513) scale(0.00563611) rotate(35.4228)"/>
<use xlink:href="#stroke0_4008_34589" transform="translate(16.4053 28.9006) scale(0.00500424) rotate(47.2209)"/>
<use xlink:href="#stroke0_4008_34589" transform="translate(17.6772 30.2597) scale(0.0055194) rotate(157.908)"/>
<use xlink:href="#stroke0_4008_34589" transform="translate(16.373 28.6065) scale(0.00571762) rotate(6.52155)"/>
<use xlink:href="#stroke0_4008_34589" transform="translate(18.2679 30.3029) scale(0.00597012) rotate(179.698)"/>
<use xlink:href="#stroke0_4008_34589" transform="translate(16.8308 29.8595) scale(0.00597797) rotate(-81.1358)"/>
<use xlink:href="#stroke0_4008_34589" transform="translate(17.1044 28.7437) scale(0.00588026) rotate(-35.6567)"/>
<use xlink:href="#stroke0_4008_34589" transform="translate(18.9775 27.9623) scale(0.00463285) rotate(61.5796)"/>
<use xlink:href="#stroke0_4008_34589" transform="translate(19.1951 27.4051) scale(0.00631916) rotate(48.6227)"/>
<use xlink:href="#stroke0_4008_34589" transform="translate(20.0777 27.477) scale(0.00587419) rotate(72.0395)"/>
<use xlink:href="#stroke0_4008_34589" transform="translate(20.9359 28.2773) scale(0.00525447) rotate(127.189)"/>
<use xlink:href="#stroke0_4008_34589" transform="translate(21.2797 28.8207) scale(0.00583703) rotate(162.486)"/>
<use xlink:href="#stroke0_4008_34589" transform="translate(20.7179 29.0661) scale(0.00494291) rotate(-143.494)"/>
<use xlink:href="#stroke0_4008_34589" transform="translate(20.5718 26.7873) scale(0.00584702) rotate(19.8349)"/>
<use xlink:href="#stroke0_4008_34589" transform="translate(22.2597 27.2383) scale(0.00489908) rotate(100.074)"/>
<use xlink:href="#stroke0_4008_34589" transform="translate(22.379 26.922) scale(0.00465035) rotate(83.1203)"/>
<use xlink:href="#stroke0_4008_34589" transform="translate(21.3892 26.7495) scale(0.00503181) rotate(-1.31073)"/>
<use xlink:href="#stroke0_4008_34589" transform="translate(22.9917 28.4541) scale(0.00581258) rotate(-164.024)"/>
<use xlink:href="#stroke0_4008_34589" transform="translate(21.8697 27.5281) scale(0.00504893) rotate(-64.7665)"/>
<use xlink:href="#stroke0_4008_34589" transform="translate(24.2097 27.2387) scale(0.00482572) rotate(138.416)"/>
<use xlink:href="#stroke0_4008_34589" transform="translate(24.035 27.8159) scale(0.00456031) rotate(-168.682)"/>
<use xlink:href="#stroke0_4008_34589" transform="translate(23.795 27.8553) scale(0.00470516) rotate(-132.218)"/>
<use xlink:href="#stroke0_4008_34589" transform="translate(22.9417 26.9052) scale(0.00671676) rotate(-54.6282)"/>
<use xlink:href="#stroke0_4008_34589" transform="translate(25.661 26.2749) scale(0.00482356) rotate(110.523)"/>
<use xlink:href="#stroke0_4008_34589" transform="translate(25.9017 25.5374) scale(0.00602793) rotate(79.984)"/>
<use xlink:href="#stroke0_4008_34589" transform="translate(24.6529 27.3464) scale(0.00657878) rotate(-94.8379)"/>
<use xlink:href="#stroke0_4008_34589" transform="translate(25.5062 27.3323) scale(0.00596222) rotate(-112.23)"/>
<use xlink:href="#stroke0_4008_34589" transform="translate(27.1411 26.8096) scale(0.00476626) rotate(176.026)"/>
<use xlink:href="#stroke0_4008_34589" transform="translate(26.6853 24.6283) scale(0.00673446) rotate(34.0523)"/>
<use xlink:href="#stroke0_4008_34589" transform="translate(27.1775 26.8312) scale(0.00460583) rotate(-132.454)"/>
<use xlink:href="#stroke0_4008_34589" transform="translate(27.5597 26.8363) scale(0.00508376) rotate(-134.395)"/>
<use xlink:href="#stroke0_4008_34589" transform="translate(28.4891 26.6817) scale(0.00531943) rotate(-163.859)"/>
<use xlink:href="#stroke0_4008_34589" transform="translate(29.544 24.8759) scale(0.0063135) rotate(98.5396)"/>
<use xlink:href="#stroke0_4008_34589" transform="translate(28.8302 24.2028) scale(0.00615241) rotate(37.7637)"/>
<use xlink:href="#stroke0_4008_34589" transform="translate(30.3143 24.4155) scale(0.00644503) rotate(86.4266)"/>
<use xlink:href="#stroke0_4008_34589" transform="translate(28.6567 24.9143) scale(0.0059519) rotate(-32.9887)"/>
<use xlink:href="#stroke0_4008_34589" transform="translate(29.9167 24.1638) scale(0.00504905) rotate(22.8639)"/>
<use xlink:href="#stroke0_4008_34589" transform="translate(31.5455 26.2022) scale(0.00696643) rotate(-174.985)"/>
<use xlink:href="#stroke0_4008_34589" transform="translate(31.3 25.9403) scale(0.00486956) rotate(-148.194)"/>
<use xlink:href="#stroke0_4008_34589" transform="translate(30.2374 24.8874) scale(0.00638584) rotate(-49.6651)"/>
<use xlink:href="#stroke0_4008_34589" transform="translate(31.359 25.627) scale(0.00513355) rotate(-102.486)"/>
<use xlink:href="#stroke0_4008_34589" transform="translate(32.8724 23.38) scale(0.00669718) rotate(60.3286)"/>
<use xlink:href="#stroke0_4008_34589" transform="translate(32.2825 23.5419) scale(0.00591289) rotate(10.9566)"/>
<use xlink:href="#stroke0_4008_34589" transform="translate(32.5128 25.0267) scale(0.00450135) rotate(-81.9606)"/>
<use xlink:href="#stroke0_4008_34589" transform="translate(34.4961 23.4857) scale(0.00610679) rotate(81.7385)"/>
<use xlink:href="#stroke0_4008_34589" transform="translate(34.741 25.2433) scale(0.00525156) rotate(-174.412)"/>
<use xlink:href="#stroke0_4008_34589" transform="translate(34.212 25.2871) scale(0.00499085) rotate(-122.661)"/>
<use xlink:href="#stroke0_4008_34589" transform="translate(36.002 23.6133) scale(0.00608039) rotate(101.97)"/>
<use xlink:href="#stroke0_4008_34589" transform="translate(34.9158 22.8117) scale(0.0069064) rotate(21.4753)"/>
<use xlink:href="#stroke0_4008_34589" transform="translate(34.6832 23.4225) scale(0.00674072) rotate(-20.9196)"/>
<use xlink:href="#stroke0_4008_34589" transform="translate(36.3467 25.1845) scale(0.00578293) rotate(-136.843)"/>
<use xlink:href="#stroke0_4008_34589" transform="translate(35.8795 22.8968) scale(0.00691116) rotate(-2.32954)"/>
<use xlink:href="#stroke0_4008_34589" transform="translate(38.3416 23.6276) scale(0.0050989) rotate(118.604)"/>
<use xlink:href="#stroke0_4008_34589" transform="translate(36.6842 23.5492) scale(0.00511115) rotate(-34.3758)"/>
<use xlink:href="#stroke0_4008_34589" transform="translate(37.5209 24.7156) scale(0.00545174) rotate(-107.462)"/>
<use xlink:href="#stroke0_4008_34589" transform="translate(39.6136 23.5871) scale(0.00539259) rotate(125.393)"/>
<use xlink:href="#stroke0_4008_34589" transform="translate(37.85 23.1711) scale(0.00575096) rotate(-24.6363)"/>
<use xlink:href="#stroke0_4008_34589" transform="translate(40.4158 23.446) scale(0.00524052) rotate(123.049)"/>
<use xlink:href="#stroke0_4008_34589" transform="translate(39.83 24.5023) scale(0.00460561) rotate(-145.046)"/>
<use xlink:href="#stroke0_4008_34589" transform="translate(40.3117 22.2602) scale(0.00616553) rotate(49.5625)"/>
<use xlink:href="#stroke0_4008_34589" transform="translate(39.5547 23.9194) scale(0.00538111) rotate(-72.4792)"/>
<use xlink:href="#stroke0_4008_34589" transform="translate(39.8486 23.7382) scale(0.00573673) rotate(-63.7545)"/>
<use xlink:href="#stroke0_4008_34589" transform="translate(42.4631 23.43) scale(0.00516085) rotate(133.537)"/>
<use xlink:href="#stroke0_4008_34589" transform="translate(42.9816 24.0199) scale(0.00641867) rotate(161.825)"/>
<use xlink:href="#stroke0_4008_34589" transform="translate(41.759 24.3422) scale(0.00566182) rotate(-110.725)"/>
<use xlink:href="#stroke0_4008_34589" transform="translate(41.5218 23.6359) scale(0.00623822) rotate(-64.8624)"/>
<use xlink:href="#stroke0_4008_34589" transform="translate(43.87 22.6056) scale(0.00462448) rotate(89.1458)"/>
<use xlink:href="#stroke0_4008_34589" transform="translate(43.4221 24.2967) scale(0.00526792) rotate(-132.29)"/>
<use xlink:href="#stroke0_4008_34589" transform="translate(44.3183 24.0429) scale(0.00456477) rotate(-164.002)"/>
<use xlink:href="#stroke0_4008_34589" transform="translate(45.3699 22.2636) scale(0.00664815) rotate(90.0412)"/>
<use xlink:href="#stroke0_4008_34589" transform="translate(43.6661 23.0005) scale(0.00560822) rotate(-41.6021)"/>
<use xlink:href="#stroke0_4008_34589" transform="translate(45.8426 21.9363) scale(0.00638469) rotate(67.408)"/>
<use xlink:href="#stroke0_4008_34589" transform="translate(46.6877 22.4516) scale(0.00563742) rotate(97.6841)"/>
<use xlink:href="#stroke0_4008_34589" transform="translate(46.288 21.9456) scale(0.00554184) rotate(48.4576)"/>
<use xlink:href="#stroke0_4008_34589" transform="translate(46.1403 21.7075) scale(0.00697907) rotate(21.667)"/>
<use xlink:href="#stroke0_4008_34589" transform="translate(48.3908 23.3984) scale(0.00634332) rotate(147.211)"/>
<use xlink:href="#stroke0_4008_34589" transform="translate(46.9444 22.0619) scale(0.00566209) rotate(7.59678)"/>
<use xlink:href="#stroke0_4008_34589" transform="translate(47.4569 24.1774) scale(0.00631344) rotate(-111.578)"/>
<use xlink:href="#stroke0_4008_34589" transform="translate(47.5806 23.3767) scale(0.00464219) rotate(-71.0192)"/>
<use xlink:href="#stroke0_4008_34589" transform="translate(48.0149 22.4854) scale(0.00465314) rotate(-15.5727)"/>
<use xlink:href="#stroke0_4008_34589" transform="translate(48.6648 21.9085) scale(0.00597131) rotate(14.3703)"/>
<use xlink:href="#stroke0_4008_34589" transform="translate(48.4026 23.3244) scale(0.006499) rotate(-62.6092)"/>
<use xlink:href="#stroke0_4008_34589" transform="translate(50.8424 21.7991) scale(0.00661233) rotate(69.4414)"/>
<use xlink:href="#stroke0_4008_34589" transform="translate(52.0865 23.3358) scale(0.00684524) rotate(145.083)"/>
<use xlink:href="#stroke0_4008_34589" transform="translate(51.5252 22.0651) scale(0.00489858) rotate(62.2826)"/>
<use xlink:href="#stroke0_4008_34589" transform="translate(50.4679 23.3578) scale(0.00559097) rotate(-66.0453)"/>
<use xlink:href="#stroke0_4008_34589" transform="translate(51.3976 23.8578) scale(0.0049163) rotate(-104.483)"/>
<use xlink:href="#stroke0_4008_34589" transform="translate(51.2987 23.6236) scale(0.00599037) rotate(-77.4054)"/>
<use xlink:href="#stroke0_4008_34589" transform="translate(53.6741 22.2005) scale(0.00579654) rotate(86.5615)"/>
<use xlink:href="#stroke0_4008_34589" transform="translate(54.3569 23.1771) scale(0.00538267) rotate(137.718)"/>
<use xlink:href="#stroke0_4008_34589" transform="translate(54.8567 23.0442) scale(0.00572088) rotate(130.113)"/>
<use xlink:href="#stroke0_4008_34589" transform="translate(54.262 21.8833) scale(0.00589685) rotate(48.0337)"/>
<use xlink:href="#stroke0_4008_34589" transform="translate(53.2999 22.7788) scale(0.00648157) rotate(-34.2068)"/>
<use xlink:href="#stroke0_4008_34589" transform="translate(54.0307 23.9197) scale(0.00635974) rotate(-85.428)"/>
<use xlink:href="#stroke0_4008_34589" transform="translate(56.6944 22.7911) scale(0.0058645) rotate(113.549)"/>
<use xlink:href="#stroke0_4008_34589" transform="translate(56.498 23.9189) scale(0.00447793) rotate(-175.829)"/>
<use xlink:href="#stroke0_4008_34589" transform="translate(57.465 23.4036) scale(0.00561885) rotate(141.038)"/>
<use xlink:href="#stroke0_4008_34589" transform="translate(57.2766 24.0732) scale(0.00486931) rotate(-172.102)"/>
<use xlink:href="#stroke0_4008_34589" transform="translate(56.9418 21.9086) scale(0.00670021) rotate(32.2267)"/>
<use xlink:href="#stroke0_4008_34589" transform="translate(57.6661 22.2843) scale(0.00496649) rotate(44.9672)"/>
<use xlink:href="#stroke0_4008_34589" transform="translate(56.9978 22.9674) scale(0.00513719) rotate(-28.1596)"/>
<use xlink:href="#stroke0_4008_34589" transform="translate(59.3769 23.5427) scale(0.00494965) rotate(141.163)"/>
<use xlink:href="#stroke0_4008_34589" transform="translate(59.6194 24.4353) scale(0.00636948) rotate(-177.103)"/>
<use xlink:href="#stroke0_4008_34589" transform="translate(58.2713 23.1013) scale(0.00497297) rotate(-28.6149)"/>
<use xlink:href="#stroke0_4008_34589" transform="translate(58.6955 24.249) scale(0.00589391) rotate(-87.1725)"/>
<use xlink:href="#stroke0_4008_34589" transform="translate(59.6632 24.4076) scale(0.00462031) rotate(-115.25)"/>
<use xlink:href="#stroke0_4008_34589" transform="translate(60.4457 24.966) scale(0.00672459) rotate(-137.51)"/>
<use xlink:href="#stroke0_4008_34589" transform="translate(61.0901 22.4851) scale(0.00564185) rotate(48.7417)"/>
<use xlink:href="#stroke0_4008_34589" transform="translate(60.9211 24.6593) scale(0.00517007) rotate(-114.746)"/>
<use xlink:href="#stroke0_4008_34589" transform="translate(63.0308 23.5441) scale(0.00615682) rotate(122.519)"/>
<use xlink:href="#stroke0_4008_34589" transform="translate(62.3123 24.8423) scale(0.00511558) rotate(-144.55)"/>
<use xlink:href="#stroke0_4008_34589" transform="translate(62.1799 25.0005) scale(0.00597933) rotate(-117.586)"/>
<use xlink:href="#stroke0_4008_34589" transform="translate(63.983 24.0328) scale(0.0046888) rotate(138.802)"/>
<use xlink:href="#stroke0_4008_34589" transform="translate(63.3804 25.0692) scale(0.00537308) rotate(-137.23)"/>
<use xlink:href="#stroke0_4008_34589" transform="translate(62.7604 23.6794) scale(0.00537904) rotate(-30.4377)"/>
<use xlink:href="#stroke0_4008_34589" transform="translate(63.2258 24.4116) scale(0.00500477) rotate(-67.1021)"/>
<use xlink:href="#stroke0_4008_34589" transform="translate(65.6012 24.3138) scale(0.0050358) rotate(140.806)"/>
<use xlink:href="#stroke0_4008_34589" transform="translate(64.1632 25.2795) scale(0.00662384) rotate(-99.8515)"/>
<use xlink:href="#stroke0_4008_34589" transform="translate(64.8655 23.3973) scale(0.00523226) rotate(7.61281)"/>
<use xlink:href="#stroke0_4008_34589" transform="translate(65.4688 23.419) scale(0.00492262) rotate(19.501)"/>
<use xlink:href="#stroke0_4008_34589" transform="translate(66.6006 25.6018) scale(0.00592833) rotate(-155.111)"/>
<use xlink:href="#stroke0_4008_34589" transform="translate(67.3601 23.3778) scale(0.0063665) rotate(71.0026)"/>
<use xlink:href="#stroke0_4008_34589" transform="translate(67.199 23.1839) scale(0.00693788) rotate(41.0437)"/>
<use xlink:href="#stroke0_4008_34589" transform="translate(66.4762 24.1557) scale(0.00661275) rotate(-24.4453)"/>
<use xlink:href="#stroke0_4008_34589" transform="translate(67.6625 25.6129) scale(0.00458312) rotate(-108.361)"/>
<use xlink:href="#stroke0_4008_34589" transform="translate(69.9557 24.9243) scale(0.00677826) rotate(132.953)"/>
<use xlink:href="#stroke0_4008_34589" transform="translate(69.8811 25.6723) scale(0.00538439) rotate(169.821)"/>
<use xlink:href="#stroke0_4008_34589" transform="translate(69.9075 24.2455) scale(0.00472351) rotate(73.8152)"/>
<use xlink:href="#stroke0_4008_34589" transform="translate(71.0198 24.8082) scale(0.00619322) rotate(115.459)"/>
<use xlink:href="#stroke0_4008_34589" transform="translate(71.3912 24.9194) scale(0.00582475) rotate(114.78)"/>
<use xlink:href="#stroke0_4008_34589" transform="translate(71.5071 24.2424) scale(0.0067275) rotate(76.6386)"/>
<use xlink:href="#stroke0_4008_34589" transform="translate(69.8676 25.7646) scale(0.00660838) rotate(-60.0772)"/>
<use xlink:href="#stroke0_4008_34589" transform="translate(72.0138 24.5919) scale(0.00524785) rotate(61.9128)"/>
<use xlink:href="#stroke0_4008_34589" transform="translate(72.721 24.849) scale(0.00534792) rotate(80.3632)"/>
<use xlink:href="#stroke0_4008_34589" transform="translate(73.6225 25.6465) scale(0.00579485) rotate(123.347)"/>
<use xlink:href="#stroke0_4008_34589" transform="translate(73.5355 25.0043) scale(0.0055552) rotate(77.6402)"/>
<use xlink:href="#stroke0_4008_34589" transform="translate(73.0746 25.0416) scale(0.00488089) rotate(31.8008)"/>
<use xlink:href="#stroke0_4008_34589" transform="translate(74.1166 24.8491) scale(0.00669712) rotate(60.5681)"/>
<use xlink:href="#stroke0_4008_34589" transform="translate(75.5177 26.0734) scale(0.00670245) rotate(122.232)"/>
<use xlink:href="#stroke0_4008_34589" transform="translate(75.3535 27.1596) scale(0.00515205) rotate(175.452)"/>
<use xlink:href="#stroke0_4008_34589" transform="translate(74.9092 25.3576) scale(0.00577508) rotate(37.4935)"/>
<use xlink:href="#stroke0_4008_34589" transform="translate(75.201 25.5334) scale(0.00561754) rotate(31.3018)"/>
<use xlink:href="#stroke0_4008_34589" transform="translate(75.1085 27.6508) scale(0.0053365) rotate(-99.6478)"/>
<use xlink:href="#stroke0_4008_34589" transform="translate(77.103 27.2424) scale(0.00481205) rotate(150.651)"/>
<use xlink:href="#stroke0_4008_34589" transform="translate(75.9027 27.8555) scale(0.00501091) rotate(-101.418)"/>
<use xlink:href="#stroke0_4008_34589" transform="translate(75.89 27.4287) scale(0.00503602) rotate(-63.8535)"/>
<use xlink:href="#stroke0_4008_34589" transform="translate(77.0482 26.2631) scale(0.00504064) rotate(30.0327)"/>
<use xlink:href="#stroke0_4008_34589" transform="translate(77.3695 26.4547) scale(0.00474149) rotate(27.5566)"/>
<use xlink:href="#stroke0_4008_34589" transform="translate(78.5408 28.2204) scale(0.00451171) rotate(-179.532)"/>
<use xlink:href="#stroke0_4008_34589" transform="translate(78.1066 26.709) scale(0.00457334) rotate(31.9754)"/>
<use xlink:href="#stroke0_4008_34589" transform="translate(79 26.6662) scale(0.00567091) rotate(59.9191)"/>
<use xlink:href="#stroke0_4008_34589" transform="translate(80.0916 27.6788) scale(0.00532566) rotate(118.681)"/>
<use xlink:href="#stroke0_4008_34589" transform="translate(80.2688 28.5452) scale(0.00490011) rotate(160.239)"/>
<use xlink:href="#stroke0_4008_34589" transform="translate(80.2488 27.0893) scale(0.00591649) rotate(64.733)"/>
<use xlink:href="#stroke0_4008_34589" transform="translate(79.5388 29.5278) scale(0.00644095) rotate(-108.396)"/>
<use xlink:href="#stroke0_4008_34589" transform="translate(81.5361 27.4346) scale(0.00693034) rotate(78.2882)"/>
<use xlink:href="#stroke0_4008_34589" transform="translate(81.7285 28.0339) scale(0.00465325) rotate(83.4219)"/>
<use xlink:href="#stroke0_4008_34589" transform="translate(82.3937 28.7745) scale(0.00477768) rotate(124.94)"/>
<use xlink:href="#stroke0_4008_34589" transform="translate(80.8552 29.702) scale(0.00549972) rotate(-84.4295)"/>
<use xlink:href="#stroke0_4008_34589" transform="translate(81.2833 28.7345) scale(0.00469434) rotate(-19.9639)"/>
<use xlink:href="#stroke0_4008_34589" transform="translate(82.8434 30.5022) scale(0.00578848) rotate(-155.463)"/>
<use xlink:href="#stroke0_4008_34589" transform="translate(81.9342 29.1735) scale(0.0048529) rotate(-27.6104)"/>
<use xlink:href="#stroke0_4008_34589" transform="translate(83.3585 28.3551) scale(0.00662833) rotate(45.4967)"/>
<use xlink:href="#stroke0_4008_34589" transform="translate(84.6878 30.0753) scale(0.00506103) rotate(140.74)"/>
<use xlink:href="#stroke0_4008_34589" transform="translate(83.0623 29.5688) scale(0.00526411) rotate(-20.41)"/>
<use xlink:href="#stroke0_4008_34589" transform="translate(83.4125 29.9101) scale(0.00492859) rotate(-28.7633)"/>
<use xlink:href="#stroke0_4008_34589" transform="translate(85.7787 30.8155) scale(0.00546981) rotate(151.256)"/>
<use xlink:href="#stroke0_4008_34589" transform="translate(84.8152 32.0203) scale(0.00684726) rotate(-125.517)"/>
<use xlink:href="#stroke0_4008_34589" transform="translate(84.8404 30.0065) scale(0.00540517) rotate(2.0018)"/>
<use xlink:href="#stroke0_4008_34589" transform="translate(86.9598 31.5854) scale(0.00564474) rotate(157.84)"/>
<use xlink:href="#stroke0_4008_34589" transform="translate(86.2335 30.2764) scale(0.00478645) rotate(39.3919)"/>
<use xlink:href="#stroke0_4008_34589" transform="translate(86.8909 32.5309) scale(0.00542584) rotate(-153.392)"/>
<use xlink:href="#stroke0_4008_34589" transform="translate(87.3184 30.7869) scale(0.00454583) rotate(65.7939)"/>
<use xlink:href="#stroke0_4008_34589" transform="translate(86.2444 31.7322) scale(0.00487437) rotate(-43.4903)"/>
<use xlink:href="#stroke0_4008_34589" transform="translate(88.6829 32.6884) scale(0.00611519) rotate(162.524)"/>
<use xlink:href="#stroke0_4008_34589" transform="translate(88.9826 32.6185) scale(0.00519872) rotate(150.817)"/>
<use xlink:href="#stroke0_4008_34589" transform="translate(88.129 33.6129) scale(0.00558516) rotate(-129.031)"/>
<use xlink:href="#stroke0_4008_34589" transform="translate(90.0353 33.2649) scale(0.00689341) rotate(153.337)"/>
<use xlink:href="#stroke0_4008_34589" transform="translate(89.5815 31.8412) scale(0.00607116) rotate(62.3155)"/>
<use xlink:href="#stroke0_4008_34589" transform="translate(88.4291 32.7701) scale(0.0057665) rotate(-24.1794)"/>
<use xlink:href="#stroke0_4008_34589" transform="translate(90.9064 33.3778) scale(0.00516399) rotate(125.033)"/>
<use xlink:href="#stroke0_4008_34589" transform="translate(91.2641 32.9844) scale(0.00633597) rotate(95.5472)"/>
<use xlink:href="#stroke0_4008_34589" transform="translate(91.8333 33.7028) scale(0.00621352) rotate(116.517)"/>
<use xlink:href="#stroke0_4008_34589" transform="translate(90.7093 33.1504) scale(0.00573748) rotate(29.0198)"/>
<use xlink:href="#stroke0_4008_34589" transform="translate(90.5431 33.467) scale(0.00667316) rotate(6.19438)"/>
<use xlink:href="#stroke0_4008_34589" transform="translate(91.0766 35.5557) scale(0.00446931) rotate(-98.4528)"/>
<use xlink:href="#stroke0_4008_34589" transform="translate(92.7842 35.933) scale(0.00566394) rotate(177.243)"/>
<use xlink:href="#stroke0_4008_34589" transform="translate(91.0921 35.9063) scale(0.00650828) rotate(-71.1457)"/>
<use xlink:href="#stroke0_4008_34589" transform="translate(93.5417 35.9741) scale(0.00459335) rotate(150.497)"/>
<use xlink:href="#stroke0_4008_34589" transform="translate(92.5488 37.0137) scale(0.00563745) rotate(-118.754)"/>
<use xlink:href="#stroke0_4008_34589" transform="translate(92.1111 35.9721) scale(0.00573882) rotate(-36.7643)"/>
<use xlink:href="#stroke0_4008_34589" transform="translate(92.6111 35.6903) scale(0.00630208) rotate(-8.48739)"/>
<use xlink:href="#stroke0_4008_34589" transform="translate(93.9857 35.7921) scale(0.0050121) rotate(45.5163)"/>
<use xlink:href="#stroke0_4008_34589" transform="translate(93.2091 36.4221) scale(0.005919) rotate(-13.9014)"/>
<use xlink:href="#stroke0_4008_34589" transform="translate(94.4767 36.3586) scale(0.00514786) rotate(39.72)"/>
<use xlink:href="#stroke0_4008_34589" transform="translate(93.7601 37.8291) scale(0.00496497) rotate(-56.104)"/>
<use xlink:href="#stroke0_4008_34589" transform="translate(95.9858 38.2157) scale(0.00482644) rotate(145.937)"/>
<use xlink:href="#stroke0_4008_34589" transform="translate(95.2146 37.066) scale(0.00587397) rotate(37.4085)"/>
<use xlink:href="#stroke0_4008_34589" transform="translate(96.5382 38.9105) scale(0.00495908) rotate(150.005)"/>
<use xlink:href="#stroke0_4008_34589" transform="translate(96.7366 39.2038) scale(0.00479122) rotate(151.28)"/>
<use xlink:href="#stroke0_4008_34589" transform="translate(96.8555 38.1345) scale(0.00640183) rotate(77.7006)"/>
<use xlink:href="#stroke0_4008_34589" transform="translate(96.3157 40.555) scale(0.00493357) rotate(-136.984)"/>
<use xlink:href="#stroke0_4008_34589" transform="translate(96.9703 41.2919) scale(0.00696204) rotate(-152.883)"/>
<use xlink:href="#stroke0_4008_34589" transform="translate(95.8964 41.2017) scale(0.00654532) rotate(-89.5309)"/>
<use xlink:href="#stroke0_4008_34589" transform="translate(97.9209 41.4421) scale(0.00517434) rotate(176.32)"/>
<use xlink:href="#stroke0_4008_34589" transform="translate(97.7773 42.0858) scale(0.00546208) rotate(-158.828)"/>
<use xlink:href="#stroke0_4008_34589" transform="translate(98.2327 42.4542) scale(0.00593829) rotate(-168.86)"/>
<use xlink:href="#stroke0_4008_34589" transform="translate(97.0238 42.6774) scale(0.00588913) rotate(-95.9268)"/>
<use xlink:href="#stroke0_4008_34589" transform="translate(97.8799 40.9407) scale(0.00613209) rotate(32.7749)"/>
<use xlink:href="#stroke0_4008_34589" transform="translate(98.4602 41.2248) scale(0.00685253) rotate(48.0064)"/>
<use xlink:href="#stroke0_4008_34589" transform="translate(97.1219 43.1684) scale(0.00683346) rotate(-51.6218)"/>
<use xlink:href="#stroke0_4008_34589" transform="translate(99.0894 42.4751) scale(0.00538621) rotate(60.9405)"/>
<use xlink:href="#stroke0_4008_34589" transform="translate(99.8907 43.2683) scale(0.0058079) rotate(98.8175)"/>
<use xlink:href="#stroke0_4008_34589" transform="translate(98.4966 45.3364) scale(0.00561684) rotate(-110.473)"/>
<use xlink:href="#stroke0_4008_34589" transform="translate(100.078 44.8853) scale(0.00450801) rotate(144.118)"/>
<use xlink:href="#stroke0_4008_34589" transform="translate(100.409 45.1681) scale(0.00545952) rotate(137.88)"/>
<use xlink:href="#stroke0_4008_34589" transform="translate(99.8607 44.2402) scale(0.00634221) rotate(60.9798)"/>
<use xlink:href="#stroke0_4008_34589" transform="translate(100.4 45.0636) scale(0.0058789) rotate(86.3042)"/>
<use xlink:href="#stroke0_4008_34589" transform="translate(99.8653 45.3348) scale(0.00491091) rotate(54.1653)"/>
<use xlink:href="#stroke0_4008_34589" transform="translate(98.8485 45.9267) scale(0.00573803) rotate(-6.59072)"/>
<use xlink:href="#stroke0_4008_34589" transform="translate(100.926 46.3968) scale(0.00662528) rotate(96.3223)"/>
<use xlink:href="#stroke0_4008_34589" transform="translate(99.9797 46.4562) scale(0.00582024) rotate(46.227)"/>
<use xlink:href="#stroke0_4008_34589" transform="translate(100.464 48.9104) scale(0.00490638) rotate(-170.801)"/>
<use xlink:href="#stroke0_4008_34589" transform="translate(100.329 49.2813) scale(0.0045763) rotate(-161.759)"/>
<use xlink:href="#stroke0_4008_34589" transform="translate(100.798 48.3346) scale(0.004479) rotate(103.959)"/>
<use xlink:href="#stroke0_4008_34589" transform="translate(100.024 50.3931) scale(0.00599912) rotate(-139.887)"/>
<use xlink:href="#stroke0_4008_34589" transform="translate(100.542 48.6706) scale(0.00484892) rotate(74.2879)"/>
<path d="M26.4222 43.4912C26.5141 43.4337 26.5888 43.405 26.6463 43.405C26.7038 43.3935 26.7957 43.4107 26.9222 43.4567C27.0946 43.5257 27.198 43.6234 27.2325 43.7498C27.267 43.8762 27.2842 44.2268 27.2842 44.8015C27.2728 45.4797 27.2785 45.8303 27.3015 45.8532C27.3245 45.8647 27.6291 45.8705 28.2153 45.8705C28.79 45.8705 29.1636 45.9165 29.336 46.0084C29.5084 46.1004 29.5831 46.29 29.5601 46.5774C29.5371 46.7843 29.4567 46.9165 29.3187 46.9739C29.1923 47.0199 28.859 47.0372 28.3187 47.0257C28.2613 47.0257 28.1751 47.0257 28.0601 47.0257C27.6233 47.0142 27.3647 47.0372 27.2842 47.0946C27.2153 47.1521 27.1865 47.3475 27.198 47.6808C27.198 47.7613 27.198 47.8188 27.198 47.8532C27.198 48.405 27.1578 48.7555 27.0774 48.905C27.0084 49.0544 26.8475 49.1291 26.5946 49.1291C26.2842 49.1291 26.1003 48.9797 26.0429 48.6808C25.9969 48.3705 26.0084 47.4969 26.0774 46.0601C26.0888 45.6463 26.1061 45.0889 26.1291 44.3877C26.1291 44.0889 26.1463 43.8877 26.1808 43.7843C26.2268 43.6693 26.3072 43.5716 26.4222 43.4912ZM22.1291 44.0774C22.4739 43.905 22.7498 43.9222 22.9567 44.1291C23.1751 44.3245 23.1751 44.5774 22.9567 44.8877C22.5659 45.428 22.3187 45.7843 22.2153 45.9567C22.1118 46.1176 22.0716 46.2211 22.0946 46.267C22.1176 46.313 22.2325 46.4452 22.4394 46.6636C22.6693 46.9165 22.8762 47.1636 23.0601 47.405C23.267 47.6808 23.4222 47.8532 23.5256 47.9222C23.6865 48.0601 23.7613 48.2153 23.7498 48.3877C23.7383 48.5601 23.6463 48.7096 23.4739 48.836C23.313 48.9509 23.1348 48.9739 22.9394 48.905C22.698 48.836 22.4394 48.6004 22.1636 48.1981C22.0026 47.9452 21.836 47.7268 21.6636 47.5429C21.6406 47.5199 21.6176 47.4912 21.5946 47.4567C21.4796 47.3303 21.3934 47.29 21.336 47.336C21.29 47.382 21.1521 47.5946 20.9222 47.9739C20.8532 48.0889 20.7957 48.1808 20.7498 48.2498C20.5544 48.5831 20.3819 48.7958 20.2325 48.8877C20.0946 48.9797 19.9337 48.9797 19.7498 48.8877C19.5314 48.7728 19.4509 48.5429 19.5084 48.1981C19.5774 47.8532 19.7728 47.4452 20.0946 46.9739C20.1521 46.882 20.2957 46.6521 20.5256 46.2843C21.0774 45.3762 21.4969 44.7326 21.7842 44.3532C21.8647 44.2498 21.9796 44.1578 22.1291 44.0774ZM20.1118 50.5774C20.1808 50.5084 20.29 50.4797 20.4394 50.4912C20.5888 50.4912 20.7038 50.5314 20.7842 50.6119C20.8762 50.6923 20.9682 50.9452 21.0601 51.3705C21.3819 52.8418 21.721 53.6349 22.0774 53.7498C22.5946 53.9107 23.3245 53.9797 24.267 53.9567C25.221 53.9337 26.0946 53.8245 26.8877 53.6291C27.267 53.5257 27.5371 53.4912 27.698 53.5257C27.8705 53.5486 27.9911 53.6521 28.0601 53.836C28.198 54.1349 28.1118 54.3705 27.8015 54.5429C27.5026 54.7268 26.9164 54.882 26.0429 55.0084C26.0084 55.0199 25.9107 55.0372 25.7498 55.0601C25.6003 55.0831 25.4969 55.1004 25.4394 55.1119C25.1176 55.1578 24.5371 55.1636 23.698 55.1291C22.8705 55.1061 22.2728 55.0544 21.9049 54.9739C21.4911 54.8935 21.1463 54.6636 20.8705 54.2843C20.5946 53.8935 20.3532 53.313 20.1463 52.5429C19.8705 51.5084 19.859 50.8532 20.1118 50.5774ZM34.0392 43.1636C34.453 43.1061 34.7002 43.2096 34.7806 43.4739C34.8496 43.7038 34.7921 43.8935 34.6082 44.0429C34.4243 44.1808 34.1369 44.267 33.7461 44.3015C33.5047 44.3245 33.0105 44.382 32.2634 44.4739C31.022 44.6349 30.3381 44.5716 30.2116 44.2843C30.1197 44.0544 30.1427 43.8647 30.2806 43.7153C30.4185 43.5544 30.6427 43.4739 30.953 43.4739C31.6542 43.4739 32.499 43.3992 33.4875 43.2498C33.6714 43.2153 33.8553 43.1866 34.0392 43.1636ZM36.6427 43.6463C36.8841 43.6004 37.091 43.6578 37.2634 43.8188C37.3438 43.8992 37.3898 44.0601 37.4013 44.3015C37.4243 44.5314 37.4128 44.9509 37.3668 45.5601C37.3553 45.836 37.3726 45.9912 37.4185 46.0257C37.4645 46.0601 37.6484 46.0429 37.9703 45.9739C38.0162 45.9624 38.0852 45.9452 38.1772 45.9222C38.5335 45.8418 38.7404 45.7613 38.7979 45.6808C38.8668 45.6004 38.9185 45.3475 38.953 44.9222C38.9645 44.8188 38.9703 44.7326 38.9703 44.6636C39.0047 44.2153 39.0967 43.9165 39.2461 43.767C39.3956 43.6061 39.6025 43.5889 39.8668 43.7153C40.0392 43.8073 40.1369 43.9739 40.1599 44.2153C40.1829 44.4567 40.1599 45.0429 40.091 45.9739C40.068 46.3532 40.0392 46.8303 40.0047 47.405C39.9588 48.29 39.8898 48.8532 39.7979 49.0946C39.7059 49.3245 39.5162 49.4395 39.2289 49.4395C38.7921 49.4509 38.6254 49.0889 38.7289 48.3532C38.8208 47.6981 38.8266 47.3073 38.7461 47.1808C38.6657 47.0429 38.407 47.0314 37.9703 47.1463C37.7174 47.2038 37.5507 47.2555 37.4703 47.3015C37.3898 47.3475 37.3496 47.4107 37.3496 47.4912C37.3381 48.1578 37.3093 48.5831 37.2634 48.767C37.2174 48.9509 37.1082 49.0889 36.9358 49.1808C36.7519 49.2728 36.5852 49.2843 36.4358 49.2153C36.2864 49.1463 36.1887 49.0084 36.1427 48.8015C36.1197 48.6866 36.1254 47.8992 36.1599 46.4395C36.1944 44.9797 36.2289 44.1808 36.2634 44.0429C36.2749 43.9739 36.3266 43.8935 36.4185 43.8015C36.5105 43.7096 36.5852 43.6578 36.6427 43.6463ZM33.3668 45.267C33.976 45.2211 34.3438 45.3188 34.4703 45.5601C34.6082 45.79 34.5507 46.244 34.2979 46.9222C34.2174 47.1406 34.1944 47.3073 34.2289 47.4222C34.2749 47.5372 34.4473 47.7498 34.7461 48.0601C34.9645 48.3015 35.0967 48.4797 35.1427 48.5946C35.1887 48.7096 35.1714 48.8418 35.091 48.9912C34.976 49.2096 34.8093 49.3073 34.591 49.2843C34.3726 49.2498 34.1312 49.1004 33.8668 48.836C33.6944 48.6636 33.5795 48.5716 33.522 48.5601C33.476 48.5486 33.4185 48.6061 33.3496 48.7326C32.9243 49.5831 32.5047 49.8992 32.091 49.6808C31.7921 49.5199 31.8093 49.1234 32.1427 48.4912C32.8093 47.2498 33.1427 46.5831 33.1427 46.4912C33.1427 46.3877 32.6944 46.4624 31.7979 46.7153C31.6025 46.7613 31.4645 46.79 31.3841 46.8015C31.3151 46.8015 31.2289 46.7728 31.1254 46.7153C30.907 46.6004 30.8208 46.4165 30.8668 46.1636C30.9128 45.9107 31.0622 45.7555 31.3151 45.6981C31.4185 45.6866 31.5162 45.6636 31.6082 45.6291C32.3093 45.4337 32.8956 45.313 33.3668 45.267ZM37.5392 50.8015C37.5507 50.79 37.6599 50.79 37.8668 50.8015C38.3726 50.8475 38.6887 50.9969 38.8151 51.2498C38.9415 51.4912 38.9473 51.9854 38.8323 52.7326C38.6944 53.6866 38.5737 54.3188 38.4703 54.6291C38.3668 54.9509 38.2059 55.1578 37.9875 55.2498C37.7576 55.3418 37.568 55.3188 37.4185 55.1808C37.2691 55.0429 37.2346 54.8418 37.3151 54.5774C37.4415 54.1406 37.5507 53.6406 37.6427 53.0774C37.7461 52.5027 37.7806 52.1636 37.7461 52.0601C37.7231 52.0142 37.5737 52.0027 37.2979 52.0257C34.1025 52.2441 32.4358 52.3015 32.2979 52.1981C32.1139 52.0601 32.068 51.859 32.1599 51.5946C32.2519 51.3303 32.4185 51.1751 32.6599 51.1291C33.0162 51.0716 33.8036 51.0199 35.022 50.9739C36.6427 50.9165 37.4818 50.859 37.5392 50.8015ZM48.3113 45.5257C48.6217 45.4912 48.8113 45.5601 48.8803 45.7326C48.9607 45.8935 48.9952 46.3303 48.9837 47.0429C48.9722 47.8245 48.9837 48.2326 49.0182 48.267C49.0412 48.29 49.5412 48.29 50.5182 48.267C51.047 48.2441 51.363 48.2383 51.4665 48.2498C51.5699 48.2498 51.6619 48.2785 51.7424 48.336C51.8918 48.4395 51.9952 48.6004 52.0527 48.8188C52.1217 49.0257 52.1102 49.1866 52.0182 49.3015C51.9607 49.3935 51.8458 49.4509 51.6734 49.4739C51.5125 49.4969 51.0814 49.5199 50.3803 49.5429C49.4952 49.5544 49.0355 49.5774 49.001 49.6119C48.9665 49.6463 48.932 50.1176 48.8975 51.0257C48.8745 51.8188 48.8516 52.2958 48.8286 52.4567C48.8171 52.6176 48.7768 52.7268 48.7079 52.7843C48.5929 52.8992 48.432 52.9509 48.2251 52.9395C48.0182 52.9165 47.8688 52.8418 47.7768 52.7153C47.7194 52.6463 47.6849 52.3935 47.6734 51.9567C47.6734 51.5084 47.6964 51.0774 47.7424 50.6636C47.7768 50.3762 47.7941 49.5831 47.7941 48.2843C47.7941 46.9739 47.8113 46.2383 47.8458 46.0774C47.8688 45.9395 47.9263 45.8188 48.0182 45.7153C48.1102 45.6119 48.2079 45.5486 48.3113 45.5257ZM41.9665 46.336C42.1044 46.313 42.5642 46.313 43.3458 46.336C44.1274 46.359 44.6447 46.3877 44.8975 46.4222C45.0929 46.4452 45.2309 46.5429 45.3113 46.7153C45.3918 46.8762 45.409 47.0831 45.363 47.336C45.3401 47.4969 45.3113 47.6866 45.2768 47.905C45.0929 48.9509 44.8975 49.9165 44.6906 50.8015C44.5872 51.2498 44.4837 51.5314 44.3803 51.6463C44.2768 51.7613 44.1044 51.7843 43.863 51.7153C43.6562 51.6578 43.5297 51.5601 43.4837 51.4222C43.4493 51.2728 43.4722 51.0084 43.5527 50.6291C43.8171 49.3992 43.9952 48.428 44.0872 47.7153C44.1102 47.5429 44.0757 47.4452 43.9837 47.4222C43.9033 47.3877 43.6562 47.3877 43.2424 47.4222C42.3228 47.5027 41.8056 47.4912 41.6906 47.3877C41.5412 47.2728 41.501 47.0774 41.5699 46.8015C41.6504 46.5257 41.7826 46.3705 41.9665 46.336ZM59.227 45.4739C59.5259 45.336 59.75 45.3475 59.8994 45.5084C60.0488 45.6693 60.1236 45.9739 60.1236 46.4222V47.0257L60.5373 47.0084C60.7672 46.9969 61.0603 46.9739 61.4167 46.9395C61.8534 46.882 62.158 46.8705 62.3304 46.905C62.5029 46.928 62.6236 47.0142 62.6925 47.1636C62.8075 47.3935 62.7845 47.6004 62.6236 47.7843C62.4626 47.9567 62.2155 48.0486 61.8822 48.0601C61.6753 48.0601 61.3477 48.0831 60.8994 48.1291C60.4511 48.1751 60.204 48.2096 60.158 48.2326C60.1006 48.267 60.0603 48.4912 60.0373 48.905C60.0259 49.3073 60.0373 49.5372 60.0718 49.5946C60.1063 49.6521 60.2615 49.6693 60.5373 49.6463C61.8017 49.5544 62.5891 49.5199 62.8994 49.5429C63.2213 49.5659 63.4224 49.6636 63.5029 49.836C63.6638 50.1693 63.5488 50.3992 63.158 50.5257C62.7787 50.6406 61.9454 50.7268 60.658 50.7843L59.9339 50.8015L59.9167 51.0084C59.9052 51.1234 59.8879 51.4165 59.8649 51.8877C59.8419 52.2785 59.8132 52.5314 59.7787 52.6463C59.7442 52.7498 59.6523 52.836 59.5029 52.905C59.3419 52.9854 59.1753 53.0027 59.0029 52.9567C58.8304 52.9107 58.727 52.8245 58.6925 52.6981C58.6465 52.5142 58.6695 51.7096 58.7615 50.2843C58.8419 49.1349 58.8937 47.9452 58.9167 46.7153C58.9282 46.2096 58.9511 45.8935 58.9856 45.767C59.0201 45.6291 59.1006 45.5314 59.227 45.4739ZM55.796 46.267C56.1868 46.2211 56.4454 46.2153 56.5718 46.2498C56.7098 46.2728 56.8247 46.3532 56.9167 46.4912C57.0086 46.6291 57.0373 46.7958 57.0029 46.9912C56.9684 47.1866 56.8419 47.4969 56.6236 47.9222C56.3362 48.4969 56.1695 48.8475 56.1236 48.9739C56.0891 49.1004 56.1121 49.2268 56.1925 49.3532C56.2845 49.4912 56.3707 49.6406 56.4511 49.8015C56.5316 49.9509 56.6868 50.2096 56.9167 50.5774C57.3994 51.3015 57.4224 51.7555 56.9856 51.9395C56.8017 52.0199 56.6465 52.0142 56.5201 51.9222C56.4052 51.8303 56.2557 51.6119 56.0718 51.267C55.727 50.6234 55.5144 50.3015 55.4339 50.3015C55.3879 50.3015 55.3362 50.3705 55.2787 50.5084C55.1983 50.6578 55.0833 50.8475 54.9339 51.0774C54.773 51.3303 54.6523 51.5199 54.5718 51.6463C54.4339 51.8877 54.25 52.0199 54.0201 52.0429C53.8017 52.0544 53.6408 51.9452 53.5373 51.7153C53.3879 51.4165 53.4684 51.0601 53.7787 50.6463C54.0316 50.313 54.3879 49.7211 54.8477 48.8705C55.319 48.0199 55.5373 47.5716 55.5029 47.5257C55.4684 47.4682 54.9971 47.4912 54.0891 47.5946C53.4454 47.6636 53.0488 47.6751 52.8994 47.6291C52.75 47.5831 52.6925 47.4222 52.727 47.1463C52.75 46.928 52.8075 46.7785 52.8994 46.6981C53.0029 46.6061 53.181 46.5372 53.4339 46.4912C53.6868 46.4452 54.1293 46.3935 54.7615 46.336C55.1523 46.313 55.4971 46.29 55.796 46.267ZM66.4975 43.267C66.6354 43.2326 67.7101 43.2326 69.7216 43.267C70.2504 43.2785 70.5952 43.313 70.7561 43.3705C70.9285 43.4165 71.0664 43.5372 71.1699 43.7326C71.2044 43.813 71.2101 44.0946 71.1871 44.5774C71.1756 45.0601 71.1412 45.5257 71.0837 45.9739C71.0837 46.0084 71.0722 46.1119 71.0492 46.2843C71.0262 46.4567 71.009 46.5831 70.9975 46.6636C70.917 47.2728 70.8021 47.6693 70.6527 47.8532C70.5147 48.0372 70.3078 48.0601 70.032 47.9222C69.8366 47.8303 69.7216 47.7096 69.6871 47.5601C69.6527 47.4107 69.6756 47.1176 69.7561 46.6808C69.8021 46.428 69.8423 46.0027 69.8768 45.405C69.9113 44.7958 69.9113 44.4739 69.8768 44.4395C69.8308 44.3935 69.2389 44.3705 68.1009 44.3705C67.2389 44.3705 66.7331 44.3647 66.5837 44.3532C66.4343 44.3418 66.3193 44.3073 66.2389 44.2498C66.0664 44.0889 66.009 43.8992 66.0664 43.6808C66.1239 43.4624 66.2676 43.3245 66.4975 43.267ZM70.9458 48.5429C71.6354 48.5199 72.0435 48.5142 72.1699 48.5257C72.3078 48.5257 72.4113 48.5429 72.4802 48.5774C72.6527 48.6693 72.7389 48.8418 72.7389 49.0946C72.7389 49.336 72.6584 49.5027 72.4975 49.5946C72.3481 49.6751 72.0779 49.7038 71.6871 49.6808C71.3883 49.6693 70.8998 49.6751 70.2216 49.6981C69.5435 49.7211 69.1929 49.7441 69.1699 49.767C69.1239 49.813 69.0549 50.405 68.963 51.5429C68.8825 52.6808 68.8423 53.5027 68.8423 54.0084C68.8423 54.3418 68.8193 54.5774 68.7733 54.7153C68.7389 54.8647 68.6699 54.9854 68.5664 55.0774C68.3366 55.2383 68.1354 55.2958 67.963 55.2498C67.8021 55.2038 67.6814 55.0486 67.6009 54.7843C67.5205 54.5314 67.5147 54.2326 67.5837 53.8877C67.6182 53.7383 67.6641 53.2153 67.7216 52.3188C67.7676 51.4912 67.8193 50.8647 67.8768 50.4395C67.9113 50.0946 67.9228 49.905 67.9113 49.8705C67.8883 49.8245 67.3481 49.813 66.2906 49.836C65.7963 49.8245 65.4113 49.8245 65.1354 49.836C64.8595 49.8475 64.6527 49.8303 64.5147 49.7843C64.3768 49.7383 64.2906 49.6866 64.2561 49.6291C64.2216 49.5716 64.1986 49.4682 64.1871 49.3188C64.1527 49.0314 64.2216 48.859 64.394 48.8015C64.5664 48.7441 65.1297 48.7038 66.0837 48.6808C67.1297 48.6578 68.1239 48.6291 69.0664 48.5946C70.0549 48.5601 70.6814 48.5429 70.9458 48.5429ZM79.7195 47.4912C79.9379 47.3992 80.1218 47.4222 80.2712 47.5601C80.4321 47.6981 80.5126 47.9107 80.5126 48.1981C80.5126 48.8418 80.3402 49.4107 79.9953 49.905C79.6505 50.3877 79.1677 50.7441 78.547 50.9739C78.1907 51.1119 77.7597 51.0257 77.2539 50.7153C76.7482 50.3935 76.3574 49.9682 76.0815 49.4395C75.8976 49.0946 75.7539 48.882 75.6505 48.8015C75.547 48.7096 75.3861 48.6751 75.1677 48.6981C74.9608 48.7096 74.7942 48.8245 74.6677 49.0429C74.5528 49.2613 74.4953 49.5544 74.4953 49.9222C74.4953 50.2096 74.4551 50.4107 74.3746 50.5257C74.2942 50.6291 74.1447 50.6808 73.9264 50.6808C73.685 50.6808 73.5241 50.6119 73.4436 50.4739C73.3631 50.3245 73.3287 50.0716 73.3401 49.7153C73.3746 49.1866 73.4608 48.7785 73.5988 48.4912C73.7482 48.1923 73.9896 47.928 74.3229 47.6981C74.4608 47.6061 74.5585 47.5544 74.616 47.5429C74.685 47.5199 74.8631 47.5084 75.1505 47.5084C75.5183 47.5084 75.708 47.5257 75.7195 47.5601C75.7424 47.5946 75.7827 47.6119 75.8401 47.6119C76.0126 47.6119 76.208 47.7153 76.4264 47.9222C76.6562 48.1176 76.8516 48.3647 77.0126 48.6636C77.2424 49.1234 77.4838 49.4452 77.7367 49.6291C78.0011 49.813 78.2424 49.836 78.4608 49.6981C78.7827 49.4797 78.9953 49.2728 79.0988 49.0774C79.2137 48.882 79.2942 48.5659 79.3402 48.1291C79.3631 47.8073 79.4896 47.5946 79.7195 47.4912Z" fill="black"/>
</g>
<defs>
<clipPath id="clip0_4008_34589">
<rect width="100" height="99.0172" fill="white"/>
</clipPath>
<g id="stroke0_4008_34589" data-figma-scatter-ref="stroke0_4008_34589_ref" data-figma-scatter="f0.28_w0_aj180_sj0.25_r0_s7048964905556052606_sw1.724">
<path d="M103.731 283.547C110.352 281.363 112.807 281.348 116.121 283.468C130.109 292.418 124.85 308.718 107.972 308.727C90.3768 308.737 87.0606 289.046 103.731 283.547ZM139.837 35.4146C140.937 35.1787 142.512 35.114 143.337 35.271C144.162 35.4281 146.516 35.8391 148.567 36.1851C155.802 37.4051 160.179 46.6969 156.734 53.5249C152.924 61.0769 144.715 67.5811 140.859 66.1021C135.872 64.1881 137.625 69.8792 144.066 76.5152C148.306 80.8841 150.337 81.2685 150.337 77.7066C150.337 76.6574 151.622 74.3218 153.193 72.5161C154.823 70.6412 156.597 66.9201 157.324 63.8501C158.925 57.0892 160.788 55.2289 167.369 53.8169C177.32 51.6829 185.581 56.9263 183.752 64.2153C183.293 66.0423 183.901 67.6656 186.09 70.4585C196.859 84.1975 193.875 104.273 180.596 107.418C177.049 108.258 176.832 108.532 176.773 112.27C176.739 114.448 176.365 116.987 175.943 117.912C175.255 119.417 175.946 119.564 182.506 119.31C190.415 119.003 192.674 119.705 195.953 123.487C199.054 127.064 201.598 126.114 202.609 121.002C203.503 116.483 209.096 110.731 212.596 110.731C214.841 110.731 215.934 108.156 214.449 106.367C206.1 96.3056 222.234 73.6632 235.605 76.6792C241.572 78.0252 246.302 83.6302 246.367 89.4312C246.384 90.9712 247.505 94.4811 248.858 97.231C255.362 110.453 243.304 126.225 232.777 118.263C229.924 116.105 229.837 116.226 229.837 122.341C229.837 128.93 225.932 133.292 219.049 134.393C216.068 134.87 214.933 135.67 213.775 138.116C212.964 139.829 211.55 142.415 210.63 143.863C208.984 146.456 209.02 146.565 213.147 151.254C215.451 153.871 217.337 156.555 217.337 157.218C217.337 157.882 218.074 159.901 218.974 161.706C222.148 168.067 221.073 181.731 217.4 181.731C217.052 181.731 215.97 183.081 214.995 184.731C214.02 186.381 212.573 187.731 211.779 187.731C209.595 187.731 210.044 189.817 212.863 192.76C216.384 196.435 217.425 204.867 214.728 207.858C209.503 213.649 203.05 218.01 198.064 219.122C193.944 220.041 192.83 220.705 192.804 222.259C192.669 230.389 188.242 235.387 179.682 237.077C172.845 238.427 172.072 240.31 177.577 242.203C190.358 246.597 192.892 257.693 182.442 263.506C176.521 266.799 172.426 266.758 167.515 263.354C163.894 260.845 163.161 260.686 159.679 261.653C153.737 263.303 147.363 262.934 141.337 260.593C135.874 258.47 130.724 257.068 124.689 256.061C118.715 255.064 115.151 249.943 114.592 241.551C114.184 235.417 113.671 233.745 111.425 231.231C109.951 229.581 107.986 226.544 107.058 224.481C105.42 220.844 105.211 220.731 100.164 220.731C93.7935 220.731 89.0798 217.922 86.2168 212.42C83.0468 206.327 78.9427 207.336 78.8477 214.231C78.8097 216.981 78.4233 220.817 77.9883 222.755C77.2354 226.113 77.3507 226.324 80.4366 227.255C90.5004 230.29 90.3981 247.946 80.2881 252.934C55.9904 264.92 26.2411 240.473 47.875 226.298C49.556 225.196 50.1805 223.494 50.6895 218.626C51.0495 215.185 52.1298 211.262 53.0908 209.91C54.0507 208.557 55.2736 206.856 55.8086 206.127C56.5016 205.184 56.0161 204.003 54.1221 202.017C50.6273 198.355 49.3112 194.657 49.9981 190.428C50.3281 188.392 50.1033 186.705 49.4463 186.299C48.8364 185.922 48.337 184.345 48.3369 182.794C48.3369 181.244 47.6012 179.366 46.7032 178.621C43.9996 176.376 34.3369 162.856 34.3369 161.317C34.3368 160.529 32.7627 157.822 30.8389 155.302C28.915 152.781 27.3998 150.384 27.4727 149.975C28.4457 144.478 24.6467 141.425 20.4727 144.348C18.2547 145.902 11.2222 145.776 6.86624 144.104C-3.23648 140.227 -1.78745 115.126 8.56839 114.62C14.8594 114.313 23.3369 117.551 23.3369 120.261C23.3372 122.018 26.1103 124.731 27.9073 124.731C28.6933 124.731 29.3369 124.041 29.3369 123.198C29.3372 109.814 50.1851 94.3087 69.8369 93.0767C82.9305 92.2547 88.2617 93.4969 97.1895 99.4468C101.45 102.287 108.337 96.8837 108.337 90.7007C108.337 88.6598 109.172 86.4706 110.483 85.0747C112.734 82.6789 111.804 79.7313 108.796 79.731C106.403 79.731 103.556 73.5422 104.077 69.4702C105.046 61.8843 117.633 57.7673 123.289 63.1861C125.639 65.4379 126.708 65.8083 129.245 65.2515C133.054 64.4145 133.128 63.4739 129.587 60.895C121.36 54.902 128.195 37.9086 139.837 35.4146ZM227.337 203.429C239.094 199.654 252.722 207.291 252.722 217.653C252.722 228.495 231.921 239.44 223.927 232.806C221.665 230.929 220.403 232.363 221.012 236.118C222.097 242.802 213.511 254.731 207.616 254.731C194.246 254.731 188.8 246.232 194.457 234.198C198.202 226.231 204.453 223.784 213.238 226.847C217.536 228.345 217.88 227.687 215.921 221.697C213.052 212.925 216.89 206.783 227.337 203.429ZM179.7 192.695C179.049 192.044 178.051 192.413 176.774 193.779C168.37 202.768 165.063 203.713 156.506 199.571C149.746 196.298 146.45 201.459 151.961 206.689C154.209 208.822 154.482 209.744 154.038 213.682C153.54 218.098 153.664 218.344 158.682 222.967C163.836 227.716 163.837 227.716 164.351 222.867C164.987 216.872 169.522 209.969 174.077 208.066C177.094 206.805 177.337 206.359 177.337 202.046C177.337 199.092 177.95 196.711 179.013 195.536C180.117 194.315 180.352 193.347 179.7 192.695ZM13.7354 183.697C21.2304 180.362 25.9355 181.225 32.1055 187.066C40.5644 195.074 37.0287 205.612 24.6309 209.343C9.40689 213.925 -0.704596 190.124 13.7354 183.697ZM252.956 148.251C262.129 145.732 267.81 147.203 270.983 152.921C277.397 164.478 257.352 180.919 247.179 172.445C237.093 164.044 240.016 151.805 252.956 148.251ZM175.822 162.709C174.842 161.123 172.482 161.589 171.417 163.579C170.283 165.699 171.384 170.913 173.086 171.481C174.366 171.905 176.761 164.229 175.822 162.709ZM150.152 111.481C150.492 108.526 149.534 108.177 145.513 109.79C142.108 111.155 143.035 114.231 146.851 114.231C149.365 114.231 149.886 113.796 150.152 111.481ZM156.837 98.731C156.012 98.731 155.337 99.406 155.337 100.231C155.337 101.056 156.012 101.731 156.837 101.731C157.662 101.731 158.337 101.056 158.337 100.231C158.337 99.4061 157.662 98.7312 156.837 98.731ZM131.337 85.6382C131.337 82.8002 129.491 81.4004 127.429 82.6743C126.501 83.2473 126.685 84.2905 128.185 86.9605C129.273 88.9003 130.316 91.46 130.5 92.6489C130.685 93.8379 131.287 94.905 131.837 95.021C133.25 95.317 133.729 90.7224 132.422 89.4155C131.825 88.8185 131.337 87.1191 131.337 85.6382ZM79.8369 36.9214C89.8819 31.2487 102.893 46.8492 95.6582 55.8921C92.2024 60.211 91.2042 63.981 91.8701 70.1997C92.5322 76.3837 92.4821 76.5638 89.0371 80.3628C76.0391 94.6997 55.1533 78.5005 64.8242 61.5825C66.3391 58.9327 67.3172 55.6452 67.3242 53.1753C67.3402 47.7053 72.4159 41.1124 79.8369 36.9214ZM120.896 78.731C120.653 78.731 120.177 79.1811 119.837 79.731C119.497 80.2809 119.695 80.7309 120.277 80.731C120.859 80.731 121.337 80.281 121.337 79.731C121.337 79.181 121.139 78.731 120.896 78.731ZM205.485 39.4898C219.631 37.0418 227.598 50.9151 220.597 65.8081C213.393 81.13 190.339 77.7861 190.091 61.3823C189.98 54.0764 199.509 40.5238 205.485 39.4898ZM51.8369 14.5542C64.4449 5.86451 75.68 19.3671 68.6241 34.731C62.385 48.3167 41.3372 43.775 41.3369 28.8423C41.3369 26.0333 47.6529 17.4382 51.8369 14.5542ZM108.212 2.17043C121.43 -6.81137 141.546 14.0924 133.237 28.1743C132.084 30.1297 130.819 31.7302 130.427 31.731C130.035 31.731 128.813 32.5703 127.713 33.5962C119.456 41.2872 107.786 35.7761 103.367 22.0991C100.152 12.1461 101.463 6.75643 108.212 2.17043Z" fill="black"/>
</g>
<path id="stroke0_4008_34589_ref" d="M100 49.5086C100 64.1489 77.6142 76.0172 50 76.0172C22.3858 76.0172 0 64.1489 0 49.5086C0 34.8683 22.3858 23 50 23C77.6142 23 100 34.8683 100 49.5086Z"/>
</defs>
</svg>
