<svg width="100" height="100" viewBox="0 0 100 100" fill="none" xmlns="http://www.w3.org/2000/svg">
<circle cx="50" cy="50" r="40" fill="#D7D760"/>
<path d="M50.7 35.72C48.46 35.72 46.71 36.4667 45.45 37.96C44.19 39.4067 43.56 41.53 43.56 44.33C43.56 46.1967 43.9567 47.8067 44.75 49.16C45.59 50.4667 46.9667 51.12 48.88 51.12C51.12 51.12 52.9167 50.28 54.27 48.6C55.67 46.92 56.37 44.68 56.37 41.88C56.37 39.92 55.9033 38.4033 54.97 37.33C54.0833 36.2567 52.66 35.72 50.7 35.72ZM48.88 57.84C46.8733 57.84 45.0767 57.49 43.49 56.79C41.9033 56.0433 40.55 55.0633 39.43 53.85C38.31 52.59 37.4467 51.1433 36.84 49.51C36.28 47.8767 36 46.1733 36 44.4C36 42.3933 36.3267 40.4567 36.98 38.59C37.6333 36.7233 38.5667 35.09 39.78 33.69C41.04 32.2433 42.58 31.1 44.4 30.26C46.2667 29.42 48.39 29 50.77 29C52.7767 29 54.5733 29.3267 56.16 29.98C57.7933 30.6333 59.17 31.5433 60.29 32.71C61.4567 33.83 62.3433 35.1833 62.95 36.77C63.5567 38.31 63.86 39.9667 63.86 41.74V43.49C63.86 44.47 63.7667 45.66 63.58 47.06C63.3933 48.4133 63.16 49.86 62.88 51.4C62.6 52.94 62.2733 54.5267 61.9 56.16C61.5267 57.7933 61.13 59.3567 60.71 60.85C60.29 62.3433 59.8933 63.72 59.52 64.98C59.1467 66.24 58.7967 67.2667 58.47 68.06C58.0967 69.18 57.5133 70.0433 56.72 70.65C55.9267 71.2567 54.9233 71.4433 53.71 71.21C52.7767 71.0233 52.0767 70.4633 51.61 69.53C51.19 68.5967 51.1433 67.6633 51.47 66.73C51.7967 65.8433 52.17 64.8167 52.59 63.65C53.01 62.4367 53.4067 61.27 53.78 60.15C54.2 58.9833 54.55 57.9333 54.83 57C55.1567 56.0667 55.3667 55.4367 55.46 55.11C54.6667 55.9033 53.64 56.5567 52.38 57.07C51.1667 57.5833 50 57.84 48.88 57.84Z" fill="white"/>
</svg>
