<svg width="100" height="100" viewBox="0 0 100 100" fill="none" xmlns="http://www.w3.org/2000/svg">
<circle cx="50" cy="50" r="40" fill="#EE7483"/>
<path d="M43.4749 50.3666C42.6296 50.227 41.8266 50.0176 41.0659 49.7384C40.3052 49.4591 39.629 49.0868 39.0373 48.6214C38.4879 48.156 38.0442 47.5742 37.7061 46.8761C37.368 46.1315 37.1989 45.2239 37.1989 44.1535L37.0087 35.7065C36.9242 33.6121 37.4525 32.0298 38.5936 30.9593C39.7769 29.8889 41.5097 29.2839 43.7918 29.1443L58.5625 29.0047C59.5345 28.9581 60.2741 29.2606 60.7812 29.9122C61.2884 30.5638 61.5631 31.3084 61.6053 32.1461C61.6899 32.9373 61.5208 33.682 61.0982 34.3801C60.6756 35.0782 59.9994 35.4505 59.0696 35.497L44.6159 35.7065C44.3201 35.753 44.1088 35.8228 43.982 35.9159C43.8552 35.9624 43.813 36.2184 43.8552 36.6838L43.982 43.0365C43.982 43.3158 44.0031 43.4787 44.0454 43.5252C44.0877 43.5718 44.2356 43.6416 44.4892 43.7347L53.2374 45.6894C54.1672 45.9221 55.1815 46.2944 56.2803 46.8063C57.4214 47.3183 58.4779 48.0396 59.45 48.9704C60.4643 49.8547 61.3095 50.9717 61.9857 52.3213C62.6619 53.671 63 55.2999 63 57.2081C63 59.2093 62.6619 60.9313 61.9857 62.374C61.3095 63.8168 60.3586 65.0501 59.133 66.074C57.9497 67.0513 56.5128 67.8425 54.8223 68.4476C53.174 69.0526 51.3568 69.4947 49.3704 69.774L42.3972 70.9607C41.5942 71.1004 40.9391 70.8676 40.432 70.2626C39.9248 69.6576 39.629 68.9595 39.5445 68.1683C39.5022 67.3306 39.6924 66.5161 40.115 65.7249C40.5376 64.9338 41.235 64.4451 42.207 64.2589L49.2437 63.0023C51.8216 62.5369 53.5755 61.769 54.5053 60.6986C55.4773 59.6282 55.9633 58.325 55.9633 56.7892C55.9633 55.2534 55.3083 54.0899 53.9981 53.2987C52.688 52.461 51.0609 51.8559 49.1169 51.4836L43.4749 50.3666Z" fill="white"/>
</svg>
