<svg width="100" height="100" viewBox="0 0 100 100" fill="none" xmlns="http://www.w3.org/2000/svg">
<circle cx="50" cy="50" r="40" fill="#B491CB"/>
<path d="M49 64.9056C50.0733 64.9056 51.1 64.6956 52.08 64.2756C53.06 63.8089 53.9 63.1789 54.6 62.3856C55.3467 61.5456 55.93 60.5422 56.35 59.3756C56.77 58.2089 56.98 56.9022 56.98 55.4556C56.98 53.5422 56.42 52.0256 55.3 50.9056C54.2267 49.7856 52.7333 49.2256 50.82 49.2256C49.7 49.2256 48.6267 49.4122 47.6 49.7856C46.62 50.1589 45.7333 50.7189 44.94 51.4656C44.1933 52.2122 43.5867 53.1456 43.12 54.2656C42.7 55.3389 42.49 56.5989 42.49 58.0456C42.49 60.0056 43.0733 61.6389 44.24 62.9456C45.4533 64.2522 47.04 64.9056 49 64.9056ZM50.82 42.7156C52.78 42.7156 54.6 43.0422 56.28 43.6956C58.0067 44.3022 59.5 45.1656 60.76 46.2856C62.02 47.4056 63 48.7356 63.7 50.2756C64.4 51.8156 64.75 53.4956 64.75 55.3156C64.75 57.3222 64.3533 59.3056 63.56 61.2656C62.8133 63.1789 61.74 64.8822 60.34 66.3756C58.9867 67.8689 57.33 69.0822 55.37 70.0156C53.4567 70.9489 51.31 71.4156 48.93 71.4156C46.97 71.4156 45.1267 71.1122 43.4 70.5056C41.72 69.8522 40.25 68.9656 38.99 67.8456C37.7767 66.6789 36.7967 65.2789 36.05 63.6456C35.35 62.0122 35 60.1922 35 58.1856V56.2956C35 53.1222 35.3733 50.1589 36.12 47.4056C36.8667 44.6056 37.8467 42.0622 39.06 39.7756C40.2733 37.4422 41.6267 35.3889 43.12 33.6156C44.6133 31.7956 46.1067 30.2556 47.6 28.9956C48.5333 28.2489 49.4433 27.9222 50.33 28.0156C51.2633 28.1089 52.01 28.4589 52.57 29.0656C53.13 29.6722 53.41 30.4422 53.41 31.3756C53.4567 32.2622 53.0367 33.1256 52.15 33.9656C50.47 35.4589 48.8833 37.2089 47.39 39.2156C45.9433 41.1756 44.6833 43.2756 43.61 45.5156C44.2633 45.0022 45.22 44.4189 46.48 43.7656C47.7867 43.0656 49.2333 42.7156 50.82 42.7156Z" fill="white"/>
</svg>
