<svg width="100" height="100" viewBox="0 0 100 100" fill="none" xmlns="http://www.w3.org/2000/svg">
<circle cx="50" cy="50" r="40" fill="#455392"/>
<path d="M49.02 33.042C50.84 32.902 52.59 33.112 54.27 33.672C55.95 34.1853 57.4433 35.0253 58.75 36.192C60.1033 37.312 61.2 38.7587 62.04 40.532C62.88 42.2587 63.37 44.2887 63.51 46.622C63.6967 49.7487 63.51 52.5487 62.95 55.022C62.39 57.4487 61.5267 59.5253 60.36 61.252C59.24 62.932 57.84 64.2387 56.16 65.172C54.5267 66.1053 52.7067 66.642 50.7 66.782C48.88 66.8753 47.1067 66.6653 45.38 66.152C43.7 65.6387 42.1833 64.822 40.83 63.702C39.5233 62.582 38.4267 61.1587 37.54 59.432C36.7 57.6587 36.21 55.582 36.07 53.202C35.8833 50.122 36.07 47.3687 36.63 44.942C37.19 42.4687 38.0533 40.3687 39.22 38.642C40.3867 36.9153 41.81 35.5853 43.49 34.652C45.17 33.672 47.0133 33.1353 49.02 33.042ZM50.21 60.062C52.17 59.922 53.6867 58.872 54.76 56.912C55.88 54.9053 56.3233 51.732 56.09 47.392C55.8567 44.452 55.1333 42.4453 53.92 41.372C52.7533 40.2987 51.2833 39.832 49.51 39.972C47.55 40.0653 46.01 41.092 44.89 43.052C43.77 44.9653 43.3267 48.0687 43.56 52.362C43.7933 55.3487 44.4933 57.402 45.66 58.522C46.8733 59.642 48.39 60.1553 50.21 60.062Z" fill="white"/>
</svg>
