<svg width="100" height="100" viewBox="0 0 100 100" fill="none" xmlns="http://www.w3.org/2000/svg">
<circle cx="50" cy="50" r="40" fill="#61A5D3"/>
<path d="M48.32 29.0233C49.9533 28.93 51.5633 29.1167 53.15 29.5833C54.7367 30.0033 56.1367 30.68 57.35 31.6133C58.61 32.5 59.6133 33.6433 60.36 35.0433C61.1533 36.4433 61.55 38.0533 61.55 39.8733C61.55 41.18 61.3633 42.37 60.99 43.4433C60.6633 44.5167 60.2667 45.45 59.8 46.2433C59.38 46.99 58.9833 47.5967 58.61 48.0633C58.2367 48.4833 58.0267 48.6933 57.98 48.6933C58.1667 48.74 58.54 48.9967 59.1 49.4633C59.66 49.93 60.2433 50.6067 60.85 51.4933C61.4567 52.38 61.9933 53.4767 62.46 54.7833C62.9267 56.09 63.16 57.6067 63.16 59.3333C63.16 61.4333 62.7633 63.3 61.97 64.9333C61.2233 66.52 60.15 67.8733 58.75 68.9933C57.35 70.0667 55.6467 70.8367 53.64 71.3033C51.68 71.77 49.4633 71.91 46.99 71.7233L39.22 71.0233C38.1467 70.93 37.3767 70.5333 36.91 69.8333C36.49 69.0867 36.3267 68.3167 36.42 67.5233C36.5133 66.6833 36.8633 65.96 37.47 65.3533C38.1233 64.7 38.9867 64.42 40.06 64.5133L47.13 65.2133C49.9767 65.4933 52.0533 65.0967 53.36 64.0233C54.7133 62.9033 55.39 61.34 55.39 59.3333C55.39 58.3067 55.2267 57.35 54.9 56.4633C54.5733 55.5767 54.06 54.8067 53.36 54.1533C52.66 53.4533 51.7733 52.94 50.7 52.6133C49.6267 52.2867 48.3433 52.17 46.85 52.2633L40.9 52.6833C39.8733 52.7767 39.08 52.52 38.52 51.9133C37.96 51.26 37.68 50.5367 37.68 49.7433C37.68 48.9033 37.9367 48.11 38.45 47.3633C38.9633 46.6167 39.7333 46.1967 40.76 46.1033L46.99 45.7533C49.4167 45.52 51.1433 44.9367 52.17 44.0033C53.2433 43.07 53.78 41.6933 53.78 39.8733C53.78 38.66 53.3833 37.61 52.59 36.7233C51.7967 35.8367 50.42 35.4633 48.46 35.6033L39.29 36.0233C38.2633 36.1167 37.47 35.86 36.91 35.2533C36.35 34.6 36.0467 33.8767 36 33.0833C36 32.29 36.2567 31.52 36.77 30.7733C37.2833 30.0267 38.0767 29.6067 39.15 29.5133L48.32 29.0233Z" fill="white"/>
</svg>
