<svg width="100" height="100" viewBox="0 0 100 100" fill="none" xmlns="http://www.w3.org/2000/svg">
<circle cx="50" cy="50" r="40" fill="#FFA952"/>
<path d="M41.32 52.47C40.5733 52.1433 39.8733 51.6767 39.22 51.07C38.5667 50.4167 38.0067 49.6933 37.54 48.9C37.0733 48.1067 36.7 47.2433 36.42 46.31C36.14 45.33 36 44.35 36 43.37C36 41.5967 36.3733 39.8933 37.12 38.26C37.8667 36.6267 38.87 35.2033 40.13 33.99C41.4367 32.7767 42.9533 31.82 44.68 31.12C46.4067 30.3733 48.2733 30 50.28 30C52.24 30 54.0133 30.35 55.6 31.05C57.1867 31.7033 58.54 32.59 59.66 33.71C60.78 34.7833 61.6433 36.0433 62.25 37.49C62.9033 38.89 63.23 40.3367 63.23 41.83C63.23 43.93 62.7867 45.75 61.9 47.29C61.0133 48.7833 59.9633 49.95 58.75 50.79C60.1967 51.3033 61.41 52.33 62.39 53.87C63.4167 55.3633 63.93 57.16 63.93 59.26C63.93 61.0333 63.58 62.6433 62.88 64.09C62.18 65.5367 61.2 66.7967 59.94 67.87C58.68 68.8967 57.1867 69.69 55.46 70.25C53.78 70.81 51.9367 71.09 49.93 71.09C48.0167 71.09 46.29 70.8333 44.75 70.32C43.21 69.76 41.88 69.0133 40.76 68.08C39.6867 67.1467 38.8467 66.05 38.24 64.79C37.68 63.4833 37.4 62.06 37.4 60.52C37.4 58.6067 37.7733 56.95 38.52 55.55C39.3133 54.15 40.2467 53.1233 41.32 52.47ZM50.21 36.37C48.25 36.37 46.6167 37.0233 45.31 38.33C44.0033 39.59 43.35 41.27 43.35 43.37C43.35 44.0233 43.4667 44.6767 43.7 45.33C43.98 45.9367 44.3533 46.4967 44.82 47.01C45.3333 47.5233 45.9167 47.9433 46.57 48.27C47.27 48.55 48.04 48.69 48.88 48.69C50.8867 48.69 52.5433 48.06 53.85 46.8C55.1567 45.54 55.81 43.8833 55.81 41.83C55.81 41.1767 55.67 40.5233 55.39 39.87C55.1567 39.2167 54.7833 38.6333 54.27 38.12C53.8033 37.6067 53.22 37.1867 52.52 36.86C51.82 36.5333 51.05 36.37 50.21 36.37ZM51.33 54.99C49.2767 54.99 47.6667 55.41 46.5 56.25C45.38 57.09 44.82 58.5133 44.82 60.52C44.82 61.8267 45.2633 62.8533 46.15 63.6C47.0367 64.3467 48.32 64.72 50 64.72C52.0533 64.72 53.64 64.3233 54.76 63.53C55.9267 62.69 56.51 61.2667 56.51 59.26C56.51 57.9533 56.0667 56.9267 55.18 56.18C54.2933 55.3867 53.01 54.99 51.33 54.99Z" fill="white"/>
</svg>
