<svg width="100" height="100" viewBox="0 0 100 100" fill="none" xmlns="http://www.w3.org/2000/svg">
<circle cx="50" cy="50" r="40" fill="#EFB89F"/>
<path d="M56.32 36.7064C56.46 36.193 56.39 35.913 56.11 35.8664C55.83 35.773 55.55 35.7264 55.27 35.7264L40.29 36.2164C39.2167 36.3097 38.4 35.983 37.84 35.2364C37.28 34.4897 37 33.743 37 32.9964C37 32.2497 37.28 31.503 37.84 30.7564C38.4 30.0097 39.17 29.613 40.15 29.5664L55.83 29.0064C57.23 28.9597 58.49 29.1697 59.61 29.6364C60.73 30.103 61.64 30.7564 62.34 31.5964C63.04 32.4364 63.5067 33.463 63.74 34.6764C63.9733 35.843 63.9033 37.1264 63.53 38.5264L55.62 68.2064C55.2933 69.2797 54.6633 70.003 53.73 70.3764C52.8433 70.703 51.9567 70.7497 51.07 70.5164C50.1833 70.2364 49.4367 69.6997 48.83 68.9064C48.27 68.113 48.1533 67.133 48.48 65.9664L56.32 36.7064Z" fill="white"/>
</svg>
