<svg width="100" height="100" viewBox="0 0 100 100" fill="none" xmlns="http://www.w3.org/2000/svg">
<circle cx="50" cy="50" r="40" fill="#8AC97E"/>
<path d="M63.2922 39.2541C63.2922 41.6341 62.7788 43.6408 61.7522 45.2741C60.7255 46.8608 59.4422 48.2375 57.9022 49.4041C56.3622 50.5241 54.7055 51.5274 52.9322 52.4141C51.1588 53.2541 49.5022 54.1174 47.9622 55.0041C46.4222 55.8908 45.1388 56.8941 44.1122 58.0141C43.1322 59.1341 42.6655 60.5341 42.7122 62.2141L61.2622 63.6141C62.2888 63.7074 63.0355 64.1275 63.5022 64.8741C64.0155 65.6208 64.2722 66.3908 64.2722 67.1841C64.2722 67.9774 63.9922 68.7008 63.4322 69.3541C62.9188 69.9608 62.1488 70.2175 61.1222 70.1241L41.1722 68.7241C39.5388 68.5841 38.1155 68.0941 36.9022 67.2541C35.6888 66.3674 35.0588 65.1308 35.0122 63.5441C34.9188 60.6975 35.3622 58.3408 36.3422 56.4741C37.3222 54.6075 38.5588 53.0441 40.0522 51.7841C41.5922 50.5241 43.2488 49.4741 45.0222 48.6341C46.8422 47.7475 48.5222 46.8841 50.0622 46.0441C51.6488 45.1575 52.9555 44.2008 53.9822 43.1741C55.0555 42.1008 55.5922 40.7708 55.5922 39.1841C55.5922 38.5308 55.4755 37.8774 55.2422 37.2241C55.0555 36.5708 54.7288 35.9874 54.2622 35.4741C53.7955 34.9141 53.1655 34.4708 52.3722 34.1441C51.6255 33.7708 50.6922 33.5608 49.5722 33.5141C48.6855 33.4675 47.8455 33.5374 47.0522 33.7241C46.3055 33.9108 45.6288 34.2374 45.0222 34.7041C44.4155 35.1708 43.9255 35.8008 43.5522 36.5941C43.2255 37.3408 43.0622 38.2974 43.0622 39.4641C43.0622 40.4908 42.6888 41.3074 41.9422 41.9141C41.1955 42.4741 40.3555 42.7541 39.4222 42.7541C38.5355 42.7074 37.7188 42.3808 36.9722 41.7741C36.2255 41.1208 35.8522 40.1174 35.8522 38.7641C35.8522 36.9908 36.2255 35.4041 36.9722 34.0041C37.7655 32.5574 38.7922 31.3208 40.0522 30.2941C41.3588 29.2674 42.8288 28.4741 44.4622 27.9141C46.0955 27.3074 47.7522 27.0041 49.4322 27.0041C51.8588 26.9574 53.9355 27.3074 55.6622 28.0541C57.4355 28.7541 58.8822 29.6875 60.0022 30.8541C61.1222 32.0208 61.9388 33.3508 62.4522 34.8441C63.0122 36.2908 63.2922 37.7608 63.2922 39.2541Z" fill="white"/>
</svg>
