<svg width="100" height="100" viewBox="0 0 100 100" fill="none" xmlns="http://www.w3.org/2000/svg">
<circle cx="50.0234" cy="49.6934" r="40" fill="#FCCC55"/>
<path d="M49.4823 56.4834L41.8523 68.8034C41.2457 69.7834 40.4757 70.2967 39.5423 70.3434C38.609 70.3434 37.7457 70.11 36.9523 69.6434C36.2057 69.13 35.6457 68.4534 35.2723 67.6134C34.899 66.7267 34.9457 65.91 35.4123 65.1634L45.0723 49.6234L35.6923 35.0634C35.2257 34.3634 35.179 33.6167 35.5523 32.8234C35.9257 32.03 36.4857 31.4 37.2323 30.9334C38.0257 30.42 38.889 30.1867 39.8223 30.2334C40.7557 30.2334 41.5257 30.7 42.1323 31.6334L49.4123 42.7634L57.3223 30.0934C57.8823 29.16 58.6057 28.6934 59.4923 28.6934C60.4257 28.6934 61.2657 28.95 62.0123 29.4634C62.8057 29.9767 63.389 30.6534 63.7623 31.4934C64.1823 32.2867 64.159 33.0567 63.6923 33.8034L53.8223 49.5534L64.0423 65.1634C64.509 65.91 64.5323 66.7267 64.1123 67.6134C63.739 68.4534 63.1557 69.13 62.3623 69.6434C61.569 70.11 60.7057 70.3434 59.7723 70.3434C58.839 70.2967 58.069 69.7834 57.4623 68.8034L49.4823 56.4834Z" fill="white"/>
</svg>
