<svg width="100" height="100" viewBox="0 0 100 100" fill="none" xmlns="http://www.w3.org/2000/svg">
<circle cx="50" cy="50" r="40" fill="#D6D65E"/>
<path d="M44.8778 35.16C43.9444 35.16 43.2444 34.8333 42.7778 34.18C42.3111 33.5267 42.0544 32.8267 42.0078 32.08C41.9611 31.2867 42.1244 30.5867 42.4978 29.98C42.9178 29.3267 43.5478 29 44.3878 29H55.9378C56.6378 29 57.1511 29.3267 57.4778 29.98C57.8511 30.5867 58.0144 31.2867 57.9678 32.08C57.9211 32.8267 57.6878 33.5267 57.2678 34.18C56.8944 34.7867 56.2878 35.09 55.4478 35.09H53.4178C53.5578 37.0967 53.6744 39.3133 53.7678 41.74C53.8611 44.1667 53.9544 46.6633 54.0478 49.23C54.1411 51.7967 54.2344 54.34 54.3278 56.86C54.4211 59.38 54.4911 61.7367 54.5378 63.93L56.4278 63.79C57.2211 63.7433 57.8278 64.0233 58.2478 64.63C58.7144 65.2367 58.9478 65.9367 58.9478 66.73C58.9944 67.4767 58.8078 68.2 58.3878 68.9C58.0144 69.5533 57.4078 69.88 56.5678 69.88L45.9978 70.65C45.0644 70.6967 44.3411 70.4167 43.8278 69.81C43.3611 69.2033 43.1044 68.5267 43.0578 67.78C43.0578 66.9867 43.2911 66.2633 43.7578 65.61C44.2244 64.9567 44.9244 64.6067 45.8578 64.56L47.1178 64.49C47.0244 62.1567 46.9311 59.7067 46.8378 57.14C46.7444 54.5267 46.6511 51.9367 46.5578 49.37C46.4644 46.7567 46.3478 44.2367 46.2078 41.81C46.1144 39.3367 46.0211 37.12 45.9278 35.16H44.8778Z" fill="white"/>
</svg>
