<svg width="100" height="100" viewBox="0 0 100 100" fill="none" xmlns="http://www.w3.org/2000/svg">
<circle cx="50" cy="50" r="40" fill="#62A6D5"/>
<path d="M49.14 58.73C47.04 58.73 45.1267 58.3567 43.4 57.61C41.6733 56.8633 40.18 55.8367 38.92 54.53C37.66 53.2233 36.68 51.66 35.98 49.84C35.3267 48.02 35 46.0367 35 43.89C35 41.6033 35.3733 39.5033 36.12 37.59C36.9133 35.63 37.9633 33.95 39.27 32.55C40.5767 31.1033 42.07 29.9833 43.75 29.19C45.4767 28.3967 47.25 28 49.07 28C50.4233 28 51.73 28.3267 52.99 28.98C54.25 29.5867 55.1367 30.4733 55.65 31.64V30.31C55.65 29.61 56.0233 29.0733 56.77 28.7C57.5633 28.3267 58.4033 28.1633 59.29 28.21C60.2233 28.2567 61.0633 28.49 61.81 28.91C62.6033 29.33 63 30.0067 63 30.94L63.42 58.52C63.42 60.4333 63.1633 62.2067 62.65 63.84C62.1367 65.4733 61.4367 66.8733 60.55 68.04C59.6633 69.2533 58.6133 70.1867 57.4 70.84C56.1867 71.54 54.88 71.89 53.48 71.89C51.9867 71.89 50.9133 71.5633 50.26 70.91C49.6533 70.3033 49.35 69.5567 49.35 68.67C49.35 67.8767 49.5833 67.1533 50.05 66.5C50.5167 65.8933 51.17 65.4967 52.01 65.31C53.6433 64.9367 54.7633 64.0967 55.37 62.79C56.0233 61.53 56.35 60.0133 56.35 58.24V54.6C55.8367 55.58 54.9033 56.5133 53.55 57.4C52.2433 58.2867 50.7733 58.73 49.14 58.73ZM49.07 52.22C50.9833 52.22 52.5933 51.4033 53.9 49.77C55.2067 48.1367 55.86 45.85 55.86 42.91C55.86 40.1567 55.2067 38.08 53.9 36.68C52.64 35.2333 51.03 34.51 49.07 34.51C47.2967 34.51 45.7567 35.3267 44.45 36.96C43.1433 38.5933 42.49 40.9033 42.49 43.89C42.49 45.15 42.6533 46.2933 42.98 47.32C43.3533 48.3467 43.8433 49.2333 44.45 49.98C45.0567 50.68 45.7567 51.24 46.55 51.66C47.3433 52.0333 48.1833 52.22 49.07 52.22Z" fill="white"/>
</svg>
