<svg width="100" height="100" viewBox="0 0 100 100" fill="none" xmlns="http://www.w3.org/2000/svg">
<circle cx="49.9766" cy="49.6934" r="40" fill="#FCCC55"/>
<path d="M34.0216 32.5625C33.8816 31.5358 34.0682 30.7191 34.5816 30.1125C35.1416 29.4591 35.8416 29.0391 36.6816 28.8525C37.5216 28.6191 38.3849 28.6425 39.2716 28.9224C40.1582 29.1558 40.8349 29.6224 41.3016 30.3225L58.5916 59.7925C58.6382 59.3725 58.6382 58.5791 58.5916 57.4125C58.5916 56.1991 58.5449 54.7991 58.4516 53.2125C58.4049 51.5791 58.3116 49.8291 58.1716 47.9625C58.0782 46.0958 57.9616 44.2758 57.8216 42.5025C57.6816 40.7291 57.5416 39.0958 57.4016 37.6025C57.3082 36.0625 57.1916 34.8258 57.0516 33.8925C56.9116 32.8191 57.1682 31.9791 57.8216 31.3725C58.5216 30.7658 59.3149 30.4158 60.2016 30.3225C61.1349 30.2291 62.0216 30.4158 62.8616 30.8824C63.7016 31.3491 64.2149 32.1424 64.4016 33.2625C64.5416 34.1025 64.6582 35.3858 64.7516 37.1125C64.8916 38.8391 65.0082 40.7758 65.1016 42.9225C65.1949 45.0691 65.2649 47.3558 65.3116 49.7824C65.3582 52.1624 65.3816 54.4725 65.3816 56.7125C65.3816 58.9058 65.3349 60.9125 65.2416 62.7325C65.1482 64.5525 65.0082 65.9758 64.8216 67.0025C64.6816 67.7491 64.2849 68.4491 63.6316 69.1025C62.9782 69.7091 62.2316 70.1291 61.3916 70.3625C60.5516 70.5958 59.6649 70.5958 58.7316 70.3625C57.8449 70.0825 57.0516 69.4058 56.3516 68.3325L41.6516 43.9725C41.6982 44.7658 41.7449 46.1891 41.7916 48.2424C41.8849 50.2958 41.9549 52.5591 42.0016 55.0324C42.0482 57.4591 42.0716 59.8625 42.0716 62.2425C42.1182 64.6225 42.0949 66.5358 42.0016 67.9825C41.9082 69.1491 41.4416 69.9658 40.6016 70.4325C39.8082 70.8991 38.9449 71.1091 38.0116 71.0625C37.0782 71.0158 36.2382 70.7358 35.4916 70.2225C34.7916 69.7091 34.4649 69.0325 34.5116 68.1925C34.6049 67.1658 34.6749 65.7425 34.7216 63.9225C34.7682 62.0558 34.7916 60.0024 34.7916 57.7624C34.8382 55.4758 34.8382 53.0958 34.7916 50.6224C34.7916 48.1024 34.7449 45.6991 34.6516 43.4125C34.6049 41.0791 34.5116 38.9558 34.3716 37.0424C34.2782 35.1291 34.1616 33.6358 34.0216 32.5625Z" fill="white"/>
</svg>
