<svg width="100" height="100" viewBox="0 0 100 100" fill="none" xmlns="http://www.w3.org/2000/svg">
<circle cx="49.9766" cy="49.6934" r="40" fill="#435190"/>
<path d="M62.2624 47.8359C62.6358 54.7425 61.8891 60.0859 60.0224 63.8659C58.2024 67.5992 55.4958 69.9559 51.9024 70.9359C50.4091 71.3559 48.8924 71.4492 47.3524 71.2159C45.8591 70.9359 44.4591 70.3759 43.1524 69.5359C41.8924 68.6492 40.7958 67.4825 39.8624 66.0359C38.9758 64.5425 38.3691 62.7692 38.0424 60.7159C37.8558 59.5025 38.0658 58.5459 38.6724 57.8459C39.2791 57.1459 40.0024 56.7492 40.8424 56.6559C41.6824 56.5159 42.4991 56.6792 43.2924 57.1459C44.0858 57.5659 44.5991 58.2892 44.8324 59.3159C45.2524 61.5092 45.9758 63.0025 47.0024 63.7959C48.0758 64.5425 49.2191 64.5659 50.4324 63.8659C52.0658 62.7925 53.2791 61.1359 54.0724 58.8959C54.8658 56.6092 55.1458 53.5292 54.9124 49.6559L53.7924 30.9659C53.6991 30.0792 54.0258 29.3559 54.7724 28.7959C55.5191 28.1892 56.3591 27.8392 57.2924 27.7459C58.2258 27.6059 59.0891 27.7459 59.8824 28.1659C60.7224 28.5859 61.1891 29.3559 61.2824 30.4759L62.2624 47.8359Z" fill="white"/>
</svg>
