<svg width="100" height="100" viewBox="0 0 100 100" fill="none" xmlns="http://www.w3.org/2000/svg">
<circle cx="50" cy="49.6934" r="40" fill="#B491CA"/>
<path d="M41.4241 58.9334L41.2141 67.2634C41.2141 68.29 40.8175 69.06 40.0241 69.5734C39.2775 70.04 38.4375 70.25 37.5041 70.2034C36.6175 70.1567 35.8008 69.9 35.0541 69.4334C34.3075 68.92 33.9575 68.1967 34.0041 67.2634L34.4941 34.2934C34.4941 32.6134 35.0308 31.26 36.1041 30.2334C37.1775 29.2067 38.5075 28.6934 40.0941 28.6934L50.0341 28.9034C52.2275 28.9034 54.3041 29.3 56.2641 30.0934C58.2241 30.84 59.9275 31.89 61.3741 33.2434C62.8208 34.5967 63.9641 36.2067 64.8041 38.0734C65.6441 39.8934 66.0641 41.8534 66.0641 43.9534C66.0641 46.0534 65.6441 48.0134 64.8041 49.8334C63.9641 51.6534 62.8208 53.24 61.3741 54.5934C59.9741 55.9467 58.3408 57.02 56.4741 57.8134C54.6075 58.56 52.6241 58.9334 50.5241 58.9334H41.4241ZM50.0341 52.4234C52.6008 52.4234 54.6775 51.6767 56.2641 50.1834C57.8508 48.6434 58.6441 46.5667 58.6441 43.9534C58.6441 41.34 57.8508 39.2634 56.2641 37.7234C54.6775 36.1834 52.6008 35.4134 50.0341 35.4134L41.7041 35.2734L41.4941 52.4234H50.0341Z" fill="white"/>
</svg>
