<svg width="100" height="100" viewBox="0 0 100 100" fill="none" xmlns="http://www.w3.org/2000/svg">
<circle cx="50" cy="50.0898" r="40" fill="#68CAD2"/>
<path d="M64.98 49.9298C64.98 52.1232 64.5833 54.1298 63.79 55.9498C63.0433 57.7698 62.0167 59.3332 60.71 60.6398C59.4033 61.9465 57.8633 62.9732 56.09 63.7198C54.3167 64.4198 52.45 64.7698 50.49 64.7698C48.53 64.7698 46.6633 64.4198 44.89 63.7198C43.1167 62.9732 41.5767 61.9465 40.27 60.6398C38.9633 59.3332 37.9133 57.7698 37.12 55.9498C36.3733 54.1298 36 52.1232 36 49.9298C36 47.7365 36.3733 45.7298 37.12 43.9098C37.9133 42.0898 38.9633 40.5265 40.27 39.2198C41.5767 37.9132 43.1167 36.9098 44.89 36.2098C46.6633 35.4632 48.53 35.0898 50.49 35.0898C52.45 35.0898 54.3167 35.4632 56.09 36.2098C57.8633 36.9098 59.4033 37.9132 60.71 39.2198C62.0167 40.5265 63.0433 42.0898 63.79 43.9098C64.5833 45.7298 64.98 47.7365 64.98 49.9298ZM57.63 49.9298C57.63 47.3632 56.93 45.3565 55.53 43.9098C54.13 42.4632 52.45 41.7398 50.49 41.7398C48.53 41.7398 46.85 42.4632 45.45 43.9098C44.05 45.3565 43.35 47.3632 43.35 49.9298C43.35 52.4965 44.05 54.5032 45.45 55.9498C46.85 57.3965 48.53 58.1198 50.49 58.1198C52.45 58.1198 54.13 57.3965 55.53 55.9498C56.93 54.5032 57.63 52.4965 57.63 49.9298Z" fill="white"/>
</svg>
