<svg width="100" height="100" viewBox="0 0 100 100" fill="none" xmlns="http://www.w3.org/2000/svg">
<circle cx="50.0234" cy="49.6934" r="40" fill="#ED7483"/>
<path d="M54.4868 67.5239C54.4868 68.5039 54.0901 69.2506 53.2968 69.7639C52.5034 70.2306 51.6168 70.4639 50.6368 70.4639C49.7034 70.4639 48.8168 70.2072 47.9768 69.6939C47.1834 69.1806 46.7868 68.4106 46.7868 67.3839L46.2268 55.9039L34.4668 33.7139C34.2801 33.3872 34.1401 33.0139 34.0468 32.5939C34.0001 32.1273 34.0234 31.6839 34.1168 31.2639C34.2101 30.8439 34.3968 30.4472 34.6768 30.0739C34.9568 29.7006 35.3301 29.3972 35.7968 29.1639C36.7301 28.6506 37.7101 28.5572 38.7368 28.8839C39.7634 29.1639 40.5101 29.7472 40.9768 30.6339L50.0768 48.0639L59.1768 30.6339C59.4101 30.2139 59.7368 29.8639 60.1568 29.5839C60.6234 29.3039 61.1134 29.1172 61.6268 29.0239C62.1868 28.9306 62.7234 28.9072 63.2368 28.9539C63.7501 29.0006 64.1934 29.1406 64.5668 29.3739C65.3134 29.7939 65.7801 30.4706 65.9668 31.4039C66.1534 32.3372 66.0601 33.1306 65.6868 33.7839L53.9268 55.6939L54.4868 67.5239Z" fill="white"/>
</svg>
