<svg width="100" height="100" viewBox="0 0 100 100" fill="none" xmlns="http://www.w3.org/2000/svg">
<circle cx="50" cy="49.5449" r="40" fill="#EE7584"/>
<path d="M46.7162 46.6049C46.6695 45.5783 47.0195 44.8316 47.7662 44.3649C48.5595 43.8516 49.4228 43.6183 50.3562 43.6649C51.2895 43.6649 52.1528 43.9216 52.9462 44.4349C53.7395 44.9483 54.1362 45.7416 54.1362 46.8149C54.3228 51.0149 54.4162 54.9116 54.4162 58.5049C54.4162 62.0516 54.4162 65.1549 54.4162 67.8149C54.4162 68.7483 54.0195 69.4483 53.2262 69.9149C52.4328 70.3349 51.5695 70.5216 50.6362 70.4749C49.7028 70.4283 48.8395 70.1249 48.0462 69.5649C47.2528 69.0049 46.8562 68.2116 46.8562 67.1849C46.9495 64.7116 46.9728 61.7249 46.9262 58.2249C46.8795 54.7249 46.8095 50.8516 46.7162 46.6049ZM46.0862 33.0949C45.8995 32.0683 46.0162 31.2283 46.4362 30.5749C46.8562 29.8749 47.4162 29.3616 48.1162 29.0349C48.8162 28.7083 49.5862 28.5449 50.4262 28.5449C51.2662 28.5449 52.0362 28.7316 52.7362 29.1049C53.4828 29.4316 54.0662 29.9449 54.4862 30.6449C54.9528 31.2983 55.1162 32.1383 54.9762 33.1649L54.5562 36.1749C54.3695 37.1549 53.8795 37.9016 53.0862 38.4149C52.2928 38.8816 51.4295 39.1149 50.4962 39.1149C49.6095 39.1149 48.7695 38.8816 47.9762 38.4149C47.2295 37.9016 46.7628 37.1549 46.5762 36.1749L46.0862 33.0949Z" fill="white"/>
</svg>
