<svg width="100" height="100" viewBox="0 0 100 100" fill="none" xmlns="http://www.w3.org/2000/svg">
<circle cx="50" cy="49.6934" r="40" fill="#68CAD2"/>
<path d="M65.31 48.0192C65.4033 51.7525 65.0767 55.0659 64.33 57.9592C63.5833 60.8525 62.51 63.2792 61.11 65.2392C59.71 67.1992 58.03 68.6925 56.07 69.7192C54.1567 70.6992 52.08 71.1892 49.84 71.1892C47.7867 71.1892 45.85 70.8159 44.03 70.0692C42.21 69.2759 40.6233 67.9225 39.27 66.0092C37.9633 64.0959 36.9133 61.5525 36.12 58.3792C35.3733 55.1592 35 51.0992 35 46.1992C35 45.0792 35.0233 43.9825 35.07 42.9092C35.1167 41.8359 35.1867 40.7159 35.28 39.5492C35.3733 38.3825 35.5133 37.1459 35.7 35.8392C35.8867 34.5325 36.12 33.1092 36.4 31.5692C36.5867 30.5892 37.0767 29.8659 37.87 29.3992C38.71 28.8859 39.5733 28.6525 40.46 28.6992C41.3467 28.6992 42.1167 28.9792 42.77 29.5392C43.4233 30.0992 43.6567 30.9392 43.47 32.0592C43.2367 33.6459 43.0267 35.1159 42.84 36.4692C42.7 37.7759 42.56 38.9892 42.42 40.1092C42.3267 41.2292 42.2333 42.2792 42.14 43.2592C42.0933 44.2392 42.07 45.1959 42.07 46.1292C42.07 49.8159 42.28 52.8725 42.7 55.2992C43.1667 57.6792 43.7733 59.5692 44.52 60.9692C45.2667 62.3692 46.0833 63.3492 46.97 63.9092C47.9033 64.4225 48.86 64.6792 49.84 64.6792C50.96 64.6792 52.0333 64.4225 53.06 63.9092C54.1333 63.3492 55.0433 62.4392 55.79 61.1792C56.5833 59.8725 57.1667 58.1459 57.54 55.9992C57.96 53.8525 58.1233 51.1925 58.03 48.0192L57.68 32.8292C57.68 31.8492 58.03 31.0792 58.73 30.5192C59.4767 29.9592 60.2933 29.6559 61.18 29.6092C62.0667 29.5625 62.8833 29.8192 63.63 30.3792C64.3767 30.8925 64.7733 31.7092 64.82 32.8292L65.31 48.0192Z" fill="white"/>
</svg>
