<svg width="100" height="100" viewBox="0 0 100 100" fill="none" xmlns="http://www.w3.org/2000/svg">
<circle cx="50" cy="50.0918" r="40" fill="#8AC97E"/>
<path d="M50.14 28.2396C52.24 28.2396 54.1533 28.6362 55.88 29.4296C57.6067 30.2229 59.1 31.2962 60.36 32.6496C61.62 34.0029 62.5767 35.6129 63.23 37.4796C63.93 39.3462 64.28 41.3529 64.28 43.4996C64.28 45.7862 63.8833 47.9329 63.09 49.9396C62.3433 51.8996 61.3167 53.6262 60.01 55.1196C58.7033 56.5662 57.1867 57.7096 55.46 58.5496C53.78 59.3896 52.0067 59.8096 50.14 59.8096C48.74 59.8096 47.4333 59.4362 46.22 58.6896C45.0533 57.9429 44.2133 57.1496 43.7 56.3096L43.56 69.0496C43.5133 70.1229 43.0933 70.8929 42.3 71.3596C41.5067 71.8262 40.6433 72.0362 39.71 71.9896C38.7767 71.9429 37.9133 71.6396 37.12 71.0796C36.3733 70.5196 36 69.7262 36 68.6996C36.0933 65.5262 36.1633 62.1896 36.21 58.6896C36.3033 55.1429 36.3733 51.6896 36.42 48.3296C36.4667 44.9229 36.49 41.7262 36.49 38.7396C36.49 35.7062 36.49 33.1396 36.49 31.0396C36.49 30.0129 36.84 29.2662 37.54 28.7996C38.2867 28.3329 39.1033 28.0996 39.99 28.0996C40.9233 28.0529 41.7633 28.2162 42.51 28.5896C43.2567 28.9629 43.63 29.4996 43.63 30.1996V31.9496C44.1433 30.9229 44.9833 30.0596 46.15 29.3596C47.3167 28.6129 48.6467 28.2396 50.14 28.2396ZM50.21 34.7496C48.7167 34.7496 47.3867 35.3562 46.22 36.5696C45.1 37.7829 44.3533 39.4629 43.98 41.6096C43.98 42.5429 43.9567 43.4529 43.91 44.3396C43.8633 45.1796 43.84 45.9962 43.84 46.7896C44.2133 48.8896 44.96 50.4996 46.08 51.6196C47.2467 52.7396 48.6233 53.2996 50.21 53.2996C51.05 53.2996 51.8667 53.0662 52.66 52.5996C53.5 52.1329 54.2233 51.4796 54.83 50.6396C55.4833 49.7529 55.9967 48.7029 56.37 47.4896C56.7433 46.2762 56.93 44.9462 56.93 43.4996C56.93 42.2396 56.7433 41.0729 56.37 39.9996C55.9967 38.9262 55.4833 38.0162 54.83 37.2696C54.2233 36.4762 53.5 35.8696 52.66 35.4496C51.8667 34.9829 51.05 34.7496 50.21 34.7496Z" fill="white"/>
</svg>
