<svg width="100" height="100" viewBox="0 0 100 100" fill="none" xmlns="http://www.w3.org/2000/svg">
<circle cx="50" cy="50.0918" r="40" fill="#FCCC55"/>
<path d="M46.14 61.5718C46.0933 62.5985 45.6967 63.3685 44.95 63.8818C44.2033 64.3485 43.3867 64.5585 42.5 64.5118C41.6133 64.4651 40.7967 64.1618 40.05 63.6018C39.35 63.0418 39 62.2485 39 61.2218V39.1718C39 38.1451 39.3733 37.3751 40.12 36.8618C40.8667 36.3485 41.6833 36.0918 42.57 36.0918C43.5033 36.0918 44.3433 36.3485 45.09 36.8618C45.8833 37.3751 46.28 38.1685 46.28 39.2418L46.21 43.0218C46.63 42.3218 47.19 41.6918 47.89 41.1318C48.6367 40.5251 49.4767 40.0118 50.41 39.5918C51.3433 39.1718 52.3467 38.8451 53.42 38.6118C54.54 38.3318 55.6833 38.1918 56.85 38.1918C57.83 38.1918 58.6 38.5418 59.16 39.2418C59.72 39.8951 60 40.6185 60 41.4118C60 42.1118 59.72 42.8351 59.16 43.5818C58.6467 44.3285 57.9467 44.7018 57.06 44.7018C55.8467 44.7018 54.61 45.0051 53.35 45.6118C52.09 46.1718 50.9467 47.0118 49.92 48.1318C48.8933 49.2051 48.03 50.5118 47.33 52.0518C46.63 53.5451 46.2333 55.2018 46.14 57.0218V61.5718Z" fill="white"/>
</svg>
