<svg width="100" height="100" viewBox="0 0 100 100" fill="none" xmlns="http://www.w3.org/2000/svg">
<circle cx="50.0234" cy="49.6934" r="40" fill="#62A6D5"/>
<path d="M60.8768 58.9727L65.2168 31.7427C65.4034 30.8094 65.8934 30.0394 66.6868 29.4327C67.5268 28.8261 68.4601 28.5927 69.4868 28.7327C70.5601 28.8727 71.3534 29.3627 71.8668 30.2027C72.3801 30.9961 72.5668 31.8594 72.4268 32.7927L65.9168 68.2127C65.6834 69.2394 65.1701 70.0327 64.3768 70.5927C63.5834 71.1061 62.7201 71.3627 61.7868 71.3627C60.9001 71.3161 60.0368 71.0361 59.1968 70.5227C58.4034 69.9627 57.8434 69.1694 57.5168 68.1427L50.5168 45.6727L46.5268 66.9527C46.2468 68.3061 45.6401 69.3327 44.7068 70.0327C43.7734 70.7327 42.7468 71.0827 41.6268 71.0827C40.5534 71.0827 39.5034 70.7327 38.4768 70.0327C37.4968 69.3327 36.7968 68.2827 36.3768 66.8827L28.1168 35.8727C28.0234 35.4994 28.0001 35.1027 28.0468 34.6827C28.0934 34.2161 28.2101 33.7961 28.3968 33.4227C28.6301 33.0027 28.9334 32.6527 29.3068 32.3727C29.6801 32.0461 30.1468 31.8127 30.7068 31.6727C32.0601 31.4394 33.0868 31.6727 33.7868 32.3727C34.4868 33.0727 34.9301 33.7494 35.1168 34.4027L41.2768 60.0227L45.1968 39.1627C45.4301 38.0894 46.0134 37.2961 46.9468 36.7827C47.8801 36.2227 48.8834 35.9194 49.9568 35.8727C51.0768 35.8261 52.1268 36.0594 53.1068 36.5727C54.0868 37.0394 54.7401 37.7394 55.0668 38.6727L60.8768 58.9727Z" fill="white"/>
</svg>
