<svg width="100" height="100" viewBox="0 0 100 100" fill="none" xmlns="http://www.w3.org/2000/svg">
<circle cx="50" cy="49.6367" r="40" fill="#42508E"/>
<path d="M44.6205 64.0231C44.0139 65.0031 43.2439 65.5397 42.3105 65.6331C41.3772 65.6797 40.5372 65.4697 39.7905 65.0031C39.0439 64.5364 38.5072 63.8831 38.1805 63.0431C37.8539 62.1564 37.9705 61.2464 38.5305 60.3131L46.0205 49.4631L39.5805 40.0831C39.0205 39.2431 38.8805 38.4264 39.1605 37.6331C39.4872 36.7931 40.0005 36.1397 40.7005 35.6731C41.4472 35.2064 42.2639 35.0197 43.1505 35.1131C44.0372 35.1598 44.7605 35.6264 45.3205 36.5131L50.0805 43.5131L55.9605 34.9731C56.5205 34.0864 57.2439 33.6431 58.1305 33.6431C59.0172 33.5964 59.8105 33.8064 60.5105 34.2731C61.2572 34.7397 61.7939 35.3931 62.1205 36.2331C62.4939 37.0264 62.4005 37.8431 61.8405 38.6831L54.3505 49.6731L60.9305 59.1231C61.5372 60.0564 61.6772 60.9431 61.3505 61.7831C61.0705 62.6231 60.5805 63.2764 59.8805 63.7431C59.1805 64.2097 58.3639 64.3964 57.4305 64.3031C56.5439 64.2098 55.7972 63.6964 55.1905 62.7631L50.2905 55.6931L44.6205 64.0231Z" fill="white"/>
</svg>
