<svg width="100" height="100" viewBox="0 0 100 100" fill="none" xmlns="http://www.w3.org/2000/svg">
<circle cx="50" cy="49.6934" r="40" fill="#F0BAA2"/>
<path d="M52.53 35.2034C48.7033 35.2034 45.67 36.7434 43.43 39.8234C41.2367 42.9034 40.14 47.2667 40.14 52.9134C40.14 57.16 41.0967 60.2634 43.01 62.2234C44.9233 64.1834 47.35 65.1634 50.29 65.1634C51.6433 65.1634 52.9267 65.0467 54.14 64.8134C55.3533 64.5334 56.4267 64.0667 57.36 63.4134C58.34 62.76 59.11 61.85 59.67 60.6834C60.23 59.47 60.51 57.9534 60.51 56.1334C60.51 55.62 60.4633 55.3167 60.37 55.2234C60.2767 55.0834 60.0433 54.9667 59.67 54.8734L49.17 53.5434C47.77 53.17 46.8833 52.6334 46.51 51.9334C46.1833 51.2334 46.1367 50.4167 46.37 49.4834C46.6033 48.5967 47.07 47.99 47.77 47.6634C48.5167 47.29 49.3567 47.15 50.29 47.2434L63.17 48.7834C64.15 48.97 64.9433 49.2734 65.55 49.6934C66.2033 50.1134 66.6933 50.58 67.02 51.0934C67.3467 51.56 67.5567 52.05 67.65 52.5634C67.79 53.0767 67.86 53.5434 67.86 53.9634C67.86 59.89 66.25 64.3234 63.03 67.2634C59.81 70.2034 55.4233 71.6734 49.87 71.6734C47.2567 71.6734 44.9 71.2534 42.8 70.4134C40.7467 69.5267 38.9733 68.29 37.48 66.7034C36.0333 65.07 34.9133 63.11 34.12 60.8234C33.3733 58.49 33 55.8767 33 52.9834C33 49.0167 33.5133 45.54 34.54 42.5534C35.6133 39.52 37.0367 36.9767 38.81 34.9234C40.5833 32.87 42.6367 31.33 44.97 30.3034C47.35 29.23 49.87 28.6934 52.53 28.6934C54.1633 28.6934 55.7267 28.9034 57.22 29.3234C58.76 29.7434 60.1367 30.3267 61.35 31.0734C62.5633 31.7734 63.59 32.59 64.43 33.5234C65.27 34.41 65.8533 35.3434 66.18 36.3234C66.46 37.1634 66.39 37.9334 65.97 38.6334C65.55 39.3334 64.9667 39.8467 64.22 40.1734C63.4733 40.4534 62.68 40.4767 61.84 40.2434C61 40.01 60.2533 39.38 59.6 38.3534C59.0867 37.56 58.2233 36.8367 57.01 36.1834C55.7967 35.53 54.3033 35.2034 52.53 35.2034Z" fill="white"/>
</svg>
