<svg width="100" height="100" viewBox="0 0 100 100" fill="none" xmlns="http://www.w3.org/2000/svg">
<circle cx="49.9766" cy="49.6934" r="40" fill="#68CAD2"/>
<path d="M65.4921 62.1755C66.1455 62.9688 66.3555 63.8088 66.1221 64.6955C65.9355 65.5821 65.5388 66.2821 64.9321 66.7955C64.2321 67.3555 63.3455 67.7055 62.2721 67.8455C61.1988 67.9388 60.3121 67.5888 59.6121 66.7955L46.1721 52.8655L42.6021 57.3455C42.6955 58.8388 42.7655 60.3321 42.8121 61.8255C42.8588 63.2721 42.9288 64.7421 43.0221 66.2355C43.0688 67.2155 42.6955 67.9621 41.9021 68.4755C41.1555 68.9421 40.2921 69.1755 39.3121 69.1755C38.3788 69.1755 37.5155 68.9188 36.7221 68.4055C35.9288 67.8921 35.5321 67.1221 35.5321 66.0955C35.3921 63.6221 35.2521 60.8688 35.1121 57.8355C35.0188 54.8021 34.9021 51.7688 34.7621 48.7355C34.6221 45.6555 34.4821 42.6921 34.3421 39.8455C34.2488 36.9521 34.1321 34.4555 33.9921 32.3555C33.8988 31.3755 34.2255 30.6521 34.9721 30.1855C35.7188 29.6721 36.5588 29.4155 37.4921 29.4155C38.4721 29.4155 39.3821 29.6721 40.2221 30.1855C41.0621 30.6988 41.5055 31.4688 41.5521 32.4955C41.6455 34.3155 41.7388 36.4155 41.8321 38.7955C41.9721 41.1755 42.0888 43.7188 42.1821 46.4255L54.8521 30.4655C55.5055 29.5321 56.3455 28.9721 57.3721 28.7855C58.4455 28.5521 59.3788 28.7621 60.1721 29.4155C60.8255 29.9288 61.2688 30.6521 61.5021 31.5855C61.7821 32.4721 61.5721 33.3821 60.8721 34.3155L50.8621 46.9155L65.4921 62.1755Z" fill="white"/>
</svg>
