<svg width="100" height="100" viewBox="0 0 100 100" fill="none" xmlns="http://www.w3.org/2000/svg">
<circle cx="50" cy="50.0918" r="40" fill="#B391CA"/>
<path d="M45.6 44.7718L43.08 44.8418C42.0533 44.8885 41.2833 44.5851 40.77 43.9318C40.2567 43.2785 40 42.5318 40 41.6918C40 40.8985 40.2567 40.1518 40.77 39.4518C41.2833 38.7518 42.03 38.4018 43.01 38.4018L45.6 38.3318L45.67 32.5918C45.67 31.4718 46.0433 30.6085 46.79 30.0018C47.5367 29.3951 48.33 29.0918 49.17 29.0918C50.0567 29.0918 50.8733 29.4185 51.62 30.0718C52.3667 30.6785 52.74 31.6585 52.74 33.0118L52.67 38.1218L56.94 37.9818C57.9667 37.9818 58.76 38.3085 59.32 38.9618C59.88 39.6151 60.1833 40.3385 60.23 41.1318C60.3233 42.0185 60.0667 42.7885 59.46 43.4418C58.9 44.0485 58.0833 44.3751 57.01 44.4218L52.6 44.5618L52.46 59.9618C52.46 61.5485 52.7167 62.5518 53.23 62.9718C53.79 63.3918 54.7233 63.5551 56.03 63.4618C56.9633 63.3685 57.7333 63.6485 58.34 64.3018C58.9467 64.9551 59.2967 65.7018 59.39 66.5418C59.53 67.3351 59.3433 68.1051 58.83 68.8518C58.3633 69.5985 57.5 70.0418 56.24 70.1818C54.98 70.3218 53.6967 70.2985 52.39 70.1118C51.13 69.8785 49.9867 69.3885 48.96 68.6418C47.98 67.8951 47.1633 66.8451 46.51 65.4918C45.8567 64.0918 45.53 62.2951 45.53 60.1018L45.6 44.7718Z" fill="white"/>
</svg>
