<svg width="100" height="100" viewBox="0 0 100 100" fill="none" xmlns="http://www.w3.org/2000/svg">
<circle cx="50" cy="49.5449" r="40" fill="#D8D861"/>
<path d="M53.01 43.5749C53.2433 42.8749 53.6167 42.2216 54.13 41.6149C54.69 40.9616 55.3433 40.3783 56.09 39.8649C56.8367 39.3516 57.6067 38.9549 58.4 38.6749C59.24 38.3483 60.0567 38.1849 60.85 38.1849C62.4833 38.1849 63.9067 38.5349 65.12 39.2349C66.38 39.9349 67.4533 40.8916 68.34 42.1049C69.2267 43.3183 69.88 44.7416 70.3 46.3749C70.7667 48.0083 71 49.7816 71 51.6949L71.14 61.6349C71.14 62.7549 70.7667 63.6183 70.02 64.2249C69.2733 64.7849 68.4333 65.0883 67.5 65.1349C66.6133 65.1349 65.7967 64.8783 65.05 64.3649C64.3033 63.8049 63.93 62.9416 63.93 61.7749L63.79 51.6949C63.79 49.8283 63.6267 48.4049 63.3 47.4249C62.9733 46.3983 62.5533 45.6983 62.04 45.3249C61.5267 44.9049 60.99 44.6949 60.43 44.6949C59.8233 44.6949 59.17 44.9749 58.47 45.5349C57.8167 46.0949 57.21 46.9116 56.65 47.9849C56.09 49.0116 55.6233 50.2483 55.25 51.6949C54.9233 53.1416 54.76 54.7749 54.76 56.5949L54.83 61.6349C54.83 62.7549 54.4567 63.6183 53.71 64.2249C52.9633 64.7849 52.1233 65.0883 51.19 65.1349C50.3033 65.1349 49.4867 64.8783 48.74 64.3649C47.9933 63.8049 47.62 62.9416 47.62 61.7749L47.69 50.5049C47.69 47.4716 47.27 45.2083 46.43 43.7149C45.59 42.1749 44.6333 41.4049 43.56 41.4049C42.5333 41.4049 41.5767 41.8483 40.69 42.7349C39.8033 43.5749 39.0333 44.6716 38.38 46.0249C37.7267 47.3316 37.19 48.7783 36.77 50.3649C36.3967 51.9516 36.21 53.4449 36.21 54.8449V62.1249C36.21 63.1983 35.8133 63.9916 35.02 64.5049C34.2733 64.9716 33.4333 65.1816 32.5 65.1349C31.6133 65.0883 30.7967 64.7849 30.05 64.2249C29.35 63.6649 29 62.8716 29 61.8449L29.14 38.5349C29.14 37.5083 29.4667 36.7383 30.12 36.2249C30.82 35.7116 31.59 35.4549 32.43 35.4549C33.27 35.4549 34.04 35.7116 34.74 36.2249C35.44 36.7383 35.79 37.5316 35.79 38.6049V39.7249C36.1167 38.9316 36.56 38.2083 37.12 37.5549C37.7267 36.9016 38.38 36.3649 39.08 35.9449C39.8267 35.4783 40.5967 35.1283 41.39 34.8949C42.1833 34.6616 42.9533 34.5449 43.7 34.5449C44.8667 34.5449 45.9633 34.8016 46.99 35.3149C48.0167 35.8283 48.9267 36.5049 49.72 37.3449C50.56 38.1849 51.26 39.1416 51.82 40.2149C52.4267 41.2883 52.8233 42.4083 53.01 43.5749Z" fill="white"/>
</svg>
