<svg width="100" height="100" viewBox="0 0 100 100" fill="none" xmlns="http://www.w3.org/2000/svg">
<circle cx="50" cy="49.5449" r="40" fill="#FFA851"/>
<path d="M46.42 31.4908C46.3733 30.4641 46.7233 29.7174 47.47 29.2508C48.2167 28.7374 49.0333 28.5041 49.92 28.5508C50.8533 28.5508 51.6933 28.8308 52.44 29.3908C53.2333 29.9041 53.63 30.6974 53.63 31.7708C53.6767 33.8708 53.6767 36.3208 53.63 39.1208C53.63 41.9208 53.6067 44.9074 53.56 48.0808C53.5133 51.2074 53.4433 54.4508 53.35 57.8108C53.3033 61.1241 53.2567 64.3674 53.21 67.5408C53.1633 68.5674 52.7667 69.3374 52.02 69.8508C51.2733 70.3174 50.4333 70.5274 49.5 70.4808C48.6133 70.4341 47.7967 70.1308 47.05 69.5708C46.35 69.0108 46 68.2174 46 67.1908C46.0467 64.0174 46.0933 60.7741 46.14 57.4608C46.2333 54.1474 46.3033 50.9274 46.35 47.8008C46.3967 44.6274 46.42 41.6408 46.42 38.8408C46.4667 36.0408 46.4667 33.5908 46.42 31.4908Z" fill="white"/>
</svg>
