<svg width="100" height="100" viewBox="0 0 100 100" fill="none" xmlns="http://www.w3.org/2000/svg">
<circle cx="50" cy="49.6367" r="40" fill="#D8D861"/>
<path d="M59 55.604L61.38 35.794C61.4733 34.954 61.9167 34.3707 62.71 34.044C63.5033 33.6707 64.3433 33.554 65.23 33.694C66.1167 33.834 66.8867 34.2073 67.54 34.814C68.1933 35.4207 68.4267 36.2607 68.24 37.334L63.55 62.254C63.3167 63.2807 62.8267 64.074 62.08 64.634C61.3333 65.1473 60.4933 65.404 59.56 65.404C58.6733 65.404 57.81 65.1473 56.97 64.634C56.1767 64.074 55.5933 63.2807 55.22 62.254L50.32 47.414L46.19 61.204C45.7233 62.604 45 63.654 44.02 64.354C43.0867 65.054 42.13 65.404 41.15 65.404C40.17 65.404 39.2367 65.054 38.35 64.354C37.51 63.654 36.9033 62.604 36.53 61.204L31.14 39.784C30.86 38.664 31 37.8007 31.56 37.194C32.1667 36.5407 32.89 36.144 33.73 36.004C34.6167 35.864 35.48 35.9807 36.32 36.354C37.16 36.7273 37.6733 37.3573 37.86 38.244L41.64 55.814L45.77 41.954C46.0967 40.8807 46.61 40.0173 47.31 39.364C48.0567 38.664 48.8733 38.244 49.76 38.104C50.6933 38.0107 51.5567 38.244 52.35 38.804C53.1433 39.364 53.7733 40.274 54.24 41.534L59 55.604Z" fill="white"/>
</svg>
