<svg width="100" height="100" viewBox="0 0 100 100" fill="none" xmlns="http://www.w3.org/2000/svg">
<circle cx="40" cy="49.6934" r="40" fill="#62A6D5"/>
<path d="M42.34 35.2734C40.4733 35.2734 38.84 35.7634 37.44 36.7434C36.0867 37.7234 34.9667 39.03 34.08 40.6634C33.1933 42.25 32.5167 44.0934 32.05 46.1934C31.63 48.2934 31.3967 50.44 31.35 52.6334C31.3033 54.3134 31.4667 55.8767 31.84 57.3234C32.26 58.77 32.8667 60.0534 33.66 61.1734C34.5 62.2467 35.55 63.11 36.81 63.7634C38.1167 64.37 39.6333 64.6734 41.36 64.6734C43.32 64.6734 45.0233 64.23 46.47 63.3434C47.9167 62.41 49.1767 61.4067 50.25 60.3334C50.95 59.6334 51.7433 59.3067 52.63 59.3534C53.5633 59.3534 54.38 59.5867 55.08 60.0534C55.78 60.4734 56.2933 61.0567 56.62 61.8034C56.9467 62.55 56.8767 63.2967 56.41 64.0434C55.8967 64.8367 55.1733 65.6534 54.24 66.4934C53.3067 67.3334 52.1867 68.1034 50.88 68.8034C49.5733 69.5034 48.1267 70.0867 46.54 70.5534C44.9533 70.9734 43.2267 71.1834 41.36 71.1834C38.3267 71.1834 35.7133 70.6934 33.52 69.7134C31.3267 68.6867 29.53 67.3334 28.13 65.6534C26.73 63.9734 25.68 62.0134 24.98 59.7734C24.3267 57.5334 24 55.1534 24 52.6334C24 49.5534 24.3967 46.59 25.19 43.7434C25.9833 40.85 27.1733 38.2834 28.76 36.0434C30.3467 33.8034 32.2833 32.03 34.57 30.7234C36.9033 29.37 39.61 28.6934 42.69 28.6934C44.1367 28.6934 45.56 28.88 46.96 29.2534C48.36 29.6267 49.6433 30.1634 50.81 30.8634C52.0233 31.5167 53.0733 32.3334 53.96 33.3134C54.8467 34.2467 55.5233 35.2967 55.99 36.4634C56.3633 37.3034 56.3167 38.0734 55.85 38.7734C55.43 39.4267 54.8467 39.9167 54.1 40.2434C53.3533 40.5234 52.56 40.57 51.72 40.3834C50.88 40.1967 50.2267 39.6834 49.76 38.8434C49.2 37.8167 48.3367 36.9767 47.17 36.3234C46.0033 35.6234 44.3933 35.2734 42.34 35.2734Z" fill="white"/>
</svg>
