<svg width="100" height="100" viewBox="0 0 100 100" fill="none" xmlns="http://www.w3.org/2000/svg">
<circle cx="50" cy="50" r="40" fill="#455392"/>
<path d="M54.9 31.9458C54.8533 30.9192 55.2267 30.1725 56.02 29.7058C56.8133 29.1925 57.6767 28.9592 58.61 29.0058C59.5433 29.0058 60.4067 29.2858 61.2 29.8458C61.9933 30.3592 62.39 31.1292 62.39 32.1558C62.4367 34.2558 62.46 36.6825 62.46 39.4358C62.46 42.1892 62.4367 45.1525 62.39 48.3258C62.39 51.4525 62.3667 54.7192 62.32 58.1258C62.32 61.5325 62.2967 64.9392 62.25 68.3458C62.25 69.3725 61.8767 70.1192 61.13 70.5858C60.3833 71.0525 59.5667 71.3092 58.68 71.3558C57.7933 71.3558 56.9767 71.1925 56.23 70.8658C55.4833 70.4925 55.11 70.0025 55.11 69.3958V67.7158C54.5033 68.7892 53.6167 69.5592 52.45 70.0258C51.33 70.4925 50.3033 70.7258 49.37 70.7258C47.5967 70.7258 45.8933 70.4225 44.26 69.8158C42.6733 69.2092 41.25 68.2992 39.99 67.0858C38.7767 65.8725 37.7967 64.3792 37.05 62.6058C36.35 60.8325 36 58.8025 36 56.5158C36 54.4625 36.35 52.5958 37.05 50.9158C37.7967 49.1892 38.7767 47.7192 39.99 46.5058C41.25 45.2925 42.6733 44.3358 44.26 43.6358C45.8933 42.9358 47.62 42.5858 49.44 42.5858C50.6533 42.5858 51.7267 42.8425 52.66 43.3558C53.64 43.8225 54.41 44.4525 54.97 45.2458C54.97 43.2392 54.97 41.2092 54.97 39.1558C54.97 37.1025 54.9467 34.6992 54.9 31.9458ZM54.97 55.8858C54.7833 53.5525 54.1533 51.8492 53.08 50.7758C52.0533 49.7025 50.8167 49.1658 49.37 49.1658C47.7367 49.1658 46.3833 49.8425 45.31 51.1958C44.2833 52.5025 43.77 54.2758 43.77 56.5158C43.77 59.1758 44.3067 61.1358 45.38 62.3958C46.4533 63.6092 47.7833 64.2158 49.37 64.2158C50.8167 64.2158 52.03 63.6792 53.01 62.6058C54.0367 61.4858 54.6667 59.9458 54.9 57.9858L54.97 55.8858Z" fill="white"/>
</svg>
