<svg width="100" height="100" viewBox="0 0 100 100" fill="none" xmlns="http://www.w3.org/2000/svg">
<circle cx="50" cy="50" r="40" fill="#435190"/>
<path d="M63.05 28C63.8433 28 64.45 28.35 64.87 29.05C65.29 29.7033 65.5233 30.4267 65.57 31.22C65.6167 32.0133 65.43 32.76 65.01 33.46C64.59 34.16 63.9367 34.51 63.05 34.51L53.32 34.86C53.4133 36.6333 53.5067 38.8267 53.6 41.44C53.74 44.0533 53.8567 46.8533 53.95 49.84C54.09 52.8267 54.2067 55.9067 54.3 59.08C54.44 62.2533 54.5567 65.2867 54.65 68.18C54.6967 69.16 54.3233 69.9067 53.53 70.42C52.7367 70.9333 51.85 71.19 50.87 71.19C49.89 71.19 48.98 70.9333 48.14 70.42C47.3467 69.9067 46.95 69.1367 46.95 68.11C46.8567 65.17 46.74 62.1367 46.6 59.01C46.5067 55.8833 46.39 52.85 46.25 49.91C46.11 46.97 45.97 44.2167 45.83 41.65C45.7367 39.0367 45.6433 36.82 45.55 35L36.87 35.28C35.9367 35.28 35.2133 34.9533 34.7 34.3C34.2333 33.6 34 32.8533 34 32.06C34 31.2667 34.2333 30.52 34.7 29.82C35.1667 29.12 35.8667 28.7467 36.8 28.7L63.05 28Z" fill="white"/>
</svg>
