<svg width="100" height="100" viewBox="0 0 100 100" fill="none" xmlns="http://www.w3.org/2000/svg">
<circle cx="50" cy="49.6934" r="40" fill="#B491CA"/>
<path d="M39.78 69.9234C39.22 69.9234 38.7067 69.8767 38.24 69.7834C37.7733 69.6434 37.3533 69.41 36.98 69.0834C36.6533 68.71 36.3967 68.22 36.21 67.6134C36.07 66.96 36 66.1434 36 65.1634L36.28 37.3734C36.2333 36.4867 36.3033 35.5767 36.49 34.6434C36.6767 33.71 37.0033 32.87 37.47 32.1234C37.9367 31.33 38.5667 30.6534 39.36 30.0934C40.2 29.5334 41.2033 29.16 42.37 28.9734C43.1167 28.88 44.26 28.81 45.8 28.7634C47.34 28.7167 48.9967 28.6934 50.77 28.6934C52.5433 28.6934 54.3167 28.6934 56.09 28.6934C57.8633 28.6934 59.3567 28.6934 60.57 28.6934C61.3167 28.6934 62.0167 28.9967 62.67 29.6034C63.3233 30.21 63.65 31.0267 63.65 32.0534C63.65 33.2667 63.3 34.13 62.6 34.6434C61.9 35.1567 61.1533 35.4134 60.36 35.4134C59.4733 35.4134 58.2367 35.4134 56.65 35.4134C55.11 35.4134 53.5 35.4134 51.82 35.4134C50.1867 35.4134 48.6467 35.4367 47.2 35.4834C45.7533 35.4834 44.7267 35.53 44.12 35.6234C43.7467 35.6234 43.5367 35.88 43.49 36.3934L43.35 46.6834C45.87 46.6834 48.6233 46.66 51.61 46.6134C54.6433 46.5667 57.63 46.52 60.57 46.4734C61.3633 46.4734 62.11 46.7534 62.81 47.3134C63.5567 47.8267 63.93 48.62 63.93 49.6934C63.93 50.8134 63.6267 51.6767 63.02 52.2834C62.46 52.8434 61.7833 53.1467 60.99 53.1934L43.35 53.5434L43.14 65.0934C43.14 66.4467 42.8833 67.59 42.37 68.5234C41.9033 69.4567 41.04 69.9234 39.78 69.9234Z" fill="white"/>
</svg>
