<svg width="100" height="100" viewBox="0 0 100 100" fill="none" xmlns="http://www.w3.org/2000/svg">
<circle cx="50" cy="49.6934" r="40" fill="#68CAD2"/>
<path d="M46.054 50.6767L54.804 50.5367L50.184 36.8867L46.054 50.6767ZM41.084 67.1967C40.7107 68.1767 40.1273 68.9 39.334 69.3667C38.5873 69.8334 37.7007 69.9734 36.674 69.7867C35.974 69.6467 35.4373 69.39 35.064 69.0167C34.6907 68.6434 34.4107 68.2234 34.224 67.7567C34.0373 67.29 33.9673 66.8234 34.014 66.3567C34.0607 65.8434 34.154 65.4 34.294 65.0267L45.004 30.9367C45.284 30.0034 45.844 29.2567 46.684 28.6967C47.5707 28.1367 48.504 27.81 49.484 27.7167C50.464 27.6234 51.4207 27.81 52.354 28.2767C53.2873 28.7434 53.964 29.5134 54.384 30.5867L67.614 65.7267C67.754 66.4267 67.684 67.1967 67.404 68.0367C67.124 68.83 66.3773 69.4134 65.164 69.7867C64.464 70.02 63.8573 70.09 63.344 69.9967C62.8307 69.9034 62.3873 69.74 62.014 69.5067C61.6407 69.2267 61.3373 68.9 61.104 68.5267C60.8707 68.1534 60.684 67.8034 60.544 67.4767L56.974 57.0467L44.094 57.2567L41.084 67.1967Z" fill="white"/>
</svg>
