<svg width="100" height="100" viewBox="0 0 100 100" fill="none" xmlns="http://www.w3.org/2000/svg">
<circle cx="50" cy="50" r="40" fill="#8FCC83"/>
<path d="M52.81 41.5844L56.59 41.4444C57.6633 41.3978 58.4567 41.7011 58.97 42.3544C59.53 43.0078 59.81 43.7544 59.81 44.5944C59.8567 45.4344 59.6 46.2044 59.04 46.9044C58.5267 47.6044 57.7333 47.9544 56.66 47.9544L52.88 48.0944L53.09 66.5044C53.09 67.8578 52.7167 68.8611 51.97 69.5144C51.2233 70.1211 50.3833 70.4244 49.45 70.4244C48.5633 70.4244 47.7233 70.1211 46.93 69.5144C46.1833 68.9078 45.81 68.0444 45.81 66.9244L45.53 48.6544L42.94 48.7944C41.96 48.7944 41.2133 48.4678 40.7 47.8144C40.2333 47.1611 40 46.4378 40 45.6444C40 44.8044 40.2333 44.0344 40.7 43.3344C41.2133 42.6344 41.96 42.2611 42.94 42.2144L45.46 42.0744V38.7144C45.46 36.6611 45.7867 34.9811 46.44 33.6744C47.14 32.3211 48.0033 31.2944 49.03 30.5944C50.1033 29.8478 51.27 29.3811 52.53 29.1944C53.8367 28.9611 55.12 28.9378 56.38 29.1244C57.4533 29.3111 58.2 29.8011 58.62 30.5944C59.0867 31.3411 59.2733 32.0644 59.18 32.7644C59.0867 33.4644 58.76 34.1644 58.2 34.8644C57.64 35.5178 56.9633 35.7744 56.17 35.6344C54.9567 35.4478 54.0933 35.5878 53.58 36.0544C53.0667 36.4744 52.81 37.4311 52.81 38.9244V41.5844Z" fill="white"/>
</svg>
