<svg width="100" height="100" viewBox="0 0 100 100" fill="none" xmlns="http://www.w3.org/2000/svg">
<circle cx="50" cy="50" r="40" fill="#EFB69D"/>
<path d="M48.18 52.29C46.78 52.29 45.6367 52.6867 44.75 53.48C43.91 54.2733 43.49 55.2533 43.49 56.42C43.49 57.4933 43.7933 58.38 44.4 59.08C45.0067 59.7333 45.8467 60.06 46.92 60.06C48.4133 60.06 49.8833 59.6633 51.33 58.87C52.8233 58.03 53.8967 56.7933 54.55 55.16C53.8033 54.2733 52.8233 53.5733 51.61 53.06C50.3967 52.5467 49.2533 52.29 48.18 52.29ZM55.25 47.95C54.83 45.85 54.0833 44.24 53.01 43.12C51.9367 41.9533 50.56 41.37 48.88 41.37C47.6667 41.37 46.5467 41.51 45.52 41.79C44.54 42.0233 43.7467 42.3033 43.14 42.63C42.3 43.0967 41.39 43.3067 40.41 43.26C39.43 43.1667 38.6833 42.7467 38.17 42C37.7033 41.3467 37.4933 40.6 37.54 39.76C37.5867 38.8733 38.0067 38.1267 38.8 37.52C39.9667 36.5867 41.3433 35.9333 42.93 35.56C44.5167 35.1867 46.5 35 48.88 35C50.84 35 52.66 35.35 54.34 36.05C56.02 36.75 57.4433 37.73 58.61 38.99C59.8233 40.25 60.7567 41.7667 61.41 43.54C62.11 45.3133 62.46 47.2733 62.46 49.42C62.46 51.38 62.1333 53.06 61.48 54.46C61.8533 54.9267 62.2033 55.51 62.53 56.21C62.9033 56.8633 63.23 57.5633 63.51 58.31C63.8367 59.01 64.0933 59.7567 64.28 60.55C64.5133 61.2967 64.6767 61.9967 64.77 62.65C64.8633 63.63 64.5833 64.4233 63.93 65.03C63.3233 65.59 62.6 65.9167 61.76 66.01C60.92 66.1033 60.1033 65.9633 59.31 65.59C58.5633 65.2167 58.12 64.54 57.98 63.56C57.9333 62.9533 57.8167 62.3233 57.63 61.67C56.6033 62.8833 55.1333 63.98 53.22 64.96C51.3533 65.94 49.2067 66.43 46.78 66.43C45.38 66.43 44.0267 66.22 42.72 65.8C41.4133 65.3333 40.2467 64.68 39.22 63.84C38.24 62.9533 37.4467 61.9033 36.84 60.69C36.28 59.43 36 58.0067 36 56.42C36 54.9733 36.3033 53.62 36.91 52.36C37.5167 51.0533 38.3567 49.9333 39.43 49C40.5033 48.0667 41.7867 47.32 43.28 46.76C44.7733 46.2 46.4067 45.92 48.18 45.92C49.6733 45.92 51.0967 46.1767 52.45 46.69C53.8033 47.1567 54.7367 47.5767 55.25 47.95Z" fill="white"/>
</svg>
