<svg width="100" height="100" viewBox="0 0 100 100" fill="none" xmlns="http://www.w3.org/2000/svg">
<circle cx="50" cy="49.6367" r="40" fill="#68CAD2"/>
<path d="M56.9022 29.7558C57.2756 28.7758 57.9056 28.1458 58.7922 27.8658C59.6789 27.5858 60.5422 27.5625 61.3822 27.7958C62.2689 28.0291 62.9689 28.4958 63.4822 29.1958C64.0422 29.8491 64.1589 30.6658 63.8322 31.6458L51.0222 68.3258C50.6022 69.4458 49.9256 70.1691 48.9922 70.4958C48.0589 70.8691 47.1489 70.9158 46.2622 70.6358C45.4222 70.4025 44.7222 69.9125 44.1622 69.1658C43.6489 68.4191 43.5789 67.4858 43.9522 66.3658L47.9422 55.0258L35.7622 36.4058C35.1089 35.5191 34.8756 34.5858 35.0622 33.6058C35.2956 32.6258 35.7622 31.8791 36.4622 31.3658C37.1156 30.8525 37.9556 30.6191 38.9822 30.6658C40.0556 30.7125 40.8956 31.1791 41.5022 32.0658L50.8822 46.6958L56.9022 29.7558Z" fill="white"/>
</svg>
