<svg width="100" height="100" viewBox="0 0 100 100" fill="none" xmlns="http://www.w3.org/2000/svg">
<mask id="mask0_3759_4992" style="mask-type:luminance" maskUnits="userSpaceOnUse" x="0" y="39" width="100" height="23">
<path d="M95.5256 56.9635L100 54.0107L96.1671 49.9311L100 46.5588L95.6819 43.3264L98.4948 39H0C1.97401 41.3277 4.27702 44.0255 4.27702 44.0255L0.123375 47.6774L4.44152 50.77L0.123375 54.2821L5.07485 57.2349L0.518178 61.3063H99.819L95.5256 56.9553V56.9635Z" fill="white"/>
</mask>
<g mask="url(#mask0_3759_4992)">
<path d="M95.5256 56.9635L100 54.0107L96.1671 49.9311L100 46.5588L95.6819 43.3264L98.4948 39H0C1.97401 41.3277 4.27702 44.0255 4.27702 44.0255L0.123375 47.6774L4.44152 50.77L0.123375 54.2821L5.07485 57.2349L0.518178 61.3063H99.819L95.5256 56.9553V56.9635Z" fill="#FFEBAC"/>
<path d="M96.2747 47.9142C97.3405 47.799 98.1337 47.0502 98.0463 46.2418C97.9589 45.4334 97.024 44.8715 95.9582 44.9867C94.8924 45.1019 94.0992 45.8507 94.1866 46.6591C94.274 47.4675 95.2088 48.0294 96.2747 47.9142Z" fill="#F7DC95"/>
<path d="M96.6178 50.1419C97.0243 50.0979 97.3142 49.6962 97.2654 49.2446C97.2166 48.7929 96.8475 48.4624 96.441 48.5064C96.0346 48.5503 95.7447 48.9521 95.7935 49.4037C95.8423 49.8553 96.2114 50.1858 96.6178 50.1419Z" fill="#F7DC95"/>
<path d="M95.0362 49.1593C95.1765 48.7273 94.975 48.2747 94.5861 48.1484C94.1973 48.0222 93.7684 48.27 93.6281 48.7021C93.4878 49.1341 93.6892 49.5867 94.0781 49.713C94.4669 49.8393 94.8959 49.5914 95.0362 49.1593Z" fill="#F7DC95"/>
<path d="M99.073 48.9766C99.4118 48.7479 99.4805 48.2573 99.2263 47.8808C98.9722 47.5042 98.4915 47.3845 98.1526 47.6132C97.8138 47.8419 97.7451 48.3326 97.9992 48.7091C98.2534 49.0856 98.7341 49.2054 99.073 48.9766Z" fill="#F7DC95"/>
<path d="M85.7581 42.9971C86.5711 42.2983 86.8005 41.2319 86.2705 40.6153C85.7405 39.9986 84.6518 40.0652 83.8388 40.764C83.0258 41.4628 82.7964 42.5292 83.3264 43.1458C83.8564 43.7625 84.9451 43.6959 85.7581 42.9971Z" fill="#EDD191"/>
<path d="M87.2982 44.638C87.6082 44.3715 87.6195 43.8763 87.3234 43.5318C87.0273 43.1873 86.536 43.124 86.2259 43.3905C85.9159 43.657 85.9046 44.1523 86.2007 44.4968C86.4968 44.8413 86.9882 44.9045 87.2982 44.638Z" fill="#EDD191"/>
<path d="M84.9636 45.7455C85.3555 45.6293 85.5686 45.182 85.4394 44.7465C85.3102 44.311 84.8878 44.0522 84.4958 44.1684C84.1039 44.2847 83.8908 44.732 84.02 45.1675C84.1492 45.603 84.5716 45.8618 84.9636 45.7455Z" fill="#EDD191"/>
<path d="M88.6568 42.3159C88.8065 41.9354 88.5852 41.4922 88.1625 41.3258C87.7398 41.1595 87.2757 41.3331 87.126 41.7135C86.9763 42.0939 87.1977 42.5372 87.6204 42.7035C88.0431 42.8699 88.5071 42.6963 88.6568 42.3159Z" fill="#EDD191"/>
<path d="M66.9804 43.9623C67.1119 43.1599 66.361 42.3688 65.303 42.1954C64.2451 42.0219 63.2809 42.5318 63.1493 43.3342C63.0178 44.1366 63.7687 44.9277 64.8267 45.1011C65.8846 45.2746 66.8488 44.7647 66.9804 43.9623Z" fill="#F7DC95"/>
<path d="M66.1741 40.8907C66.2476 40.4425 65.9801 40.0254 65.5767 39.9593C65.1733 39.8932 64.7866 40.2029 64.7131 40.6512C64.6397 41.0995 64.9071 41.5165 65.3106 41.5826C65.714 41.6488 66.1007 41.339 66.1741 40.8907Z" fill="#F7DC95"/>
<path d="M68.0856 42.146C68.3361 41.7671 68.2627 41.2771 67.9217 41.0517C67.5807 40.8262 67.1011 40.9506 66.8506 41.3295C66.6001 41.7084 66.6734 42.1984 67.0145 42.4239C67.3555 42.6493 67.8351 42.5249 68.0856 42.146Z" fill="#F7DC95"/>
<path d="M63.4366 41.9749C63.8242 41.8449 64.0214 41.3905 63.8771 40.9597C63.7327 40.529 63.3014 40.2852 62.9138 40.4151C62.5262 40.5451 62.3289 40.9995 62.4733 41.4303C62.6177 41.861 63.0489 42.1048 63.4366 41.9749Z" fill="#F7DC95"/>
<path d="M84.1274 61.1966C84.2589 60.3942 83.5079 59.6032 82.45 59.4297C81.3921 59.2563 80.4278 59.7662 80.2963 60.5686C80.1647 61.371 80.9157 62.1621 81.9736 62.3355C83.0316 62.5089 83.9958 61.9991 84.1274 61.1966Z" fill="#F7DC95"/>
<path d="M83.3206 58.1232C83.3941 57.6749 83.1266 57.2579 82.7232 57.1917C82.3197 57.1256 81.9331 57.4354 81.8596 57.8836C81.7861 58.3319 82.0536 58.7489 82.4571 58.8151C82.8605 58.8812 83.2471 58.5714 83.3206 58.1232Z" fill="#F7DC95"/>
<path d="M85.2306 59.3765C85.4811 58.9976 85.4077 58.5076 85.0667 58.2821C84.7257 58.0566 84.2461 58.1811 83.9956 58.56C83.7451 58.9389 83.8185 59.4289 84.1595 59.6543C84.5005 59.8798 84.9801 59.7554 85.2306 59.3765Z" fill="#F7DC95"/>
<path d="M80.586 59.2112C80.9736 59.0813 81.1708 58.6268 81.0265 58.1961C80.8821 57.7654 80.4508 57.5215 80.0632 57.6515C79.6756 57.7814 79.4784 58.2359 79.6227 58.6666C79.7671 59.0973 80.1984 59.3411 80.586 59.2112Z" fill="#F7DC95"/>
<path d="M24.8184 54.8816C25.8892 54.8304 26.7258 54.1304 26.6869 53.3182C26.6481 52.506 25.7485 51.8892 24.6777 51.9404C23.6068 51.9917 22.7703 52.6916 22.8092 53.5038C22.848 54.316 23.7476 54.9329 24.8184 54.8816Z" fill="#EDD191"/>
<path d="M24.551 51.3441C24.9593 51.3245 25.2728 50.9409 25.251 50.4871C25.2293 50.0334 24.8807 49.6814 24.4723 49.7009C24.064 49.7205 23.7505 50.1042 23.7722 50.5579C23.7939 51.0116 24.1426 51.3636 24.551 51.3441Z" fill="#EDD191"/>
<path d="M27.3842 51.3004C27.5501 50.8775 27.376 50.4137 26.9954 50.2643C26.6149 50.115 26.1718 50.3368 26.0059 50.7597C25.8401 51.1826 26.0141 51.6464 26.3947 51.7957C26.7753 51.945 27.2183 51.7233 27.3842 51.3004Z" fill="#EDD191"/>
<path d="M22.8033 52.1217C23.1553 51.9137 23.2532 51.428 23.0221 51.0369C22.791 50.6459 22.3184 50.4974 21.9664 50.7054C21.6144 50.9134 21.5164 51.3991 21.7475 51.7901C21.9786 52.1812 22.4513 52.3296 22.8033 52.1217Z" fill="#EDD191"/>
<path d="M66.0639 58.271C67.0826 57.9369 67.7029 57.0397 67.4495 56.2671C67.196 55.4945 66.1648 55.139 65.1462 55.4731C64.1275 55.8073 63.5072 56.7045 63.7606 57.4771C64.0141 58.2497 65.0453 58.6052 66.0639 58.271Z" fill="#F7DC95"/>
<path d="M66.8601 60.3792C67.2486 60.2518 67.4487 59.7986 67.3072 59.367C67.1656 58.9353 66.7359 58.6887 66.3474 58.8162C65.959 58.9436 65.7588 59.3968 65.9004 59.8284C66.042 60.26 66.4717 60.5066 66.8601 60.3792Z" fill="#F7DC95"/>
<path d="M65.1013 59.745C65.1488 59.2932 64.8577 58.8923 64.4511 58.8496C64.0445 58.8069 63.6764 59.1384 63.6289 59.5902C63.5815 60.042 63.8726 60.4428 64.2792 60.4856C64.6858 60.5283 65.0539 60.1967 65.1013 59.745Z" fill="#F7DC95"/>
<path d="M69.0139 58.7372C69.2979 58.4431 69.2633 57.9489 68.9365 57.6333C68.6097 57.3178 68.1146 57.3004 67.8306 57.5945C67.5466 57.8885 67.5813 58.3828 67.9081 58.6983C68.2348 59.0139 68.73 59.0313 69.0139 58.7372Z" fill="#F7DC95"/>
<path d="M16.6037 56.8744C16.8754 56.108 16.2765 55.1963 15.2661 54.8381C14.2556 54.4799 13.2163 54.8108 12.9446 55.5772C12.6729 56.3436 13.2718 57.2552 14.2822 57.6134C15.2926 57.9716 16.332 57.6408 16.6037 56.8744Z" fill="#F7DC95"/>
<path d="M14.6097 59.2409C14.7615 58.8128 14.5722 58.355 14.1868 58.2184C13.8015 58.0818 13.3661 58.3181 13.2143 58.7463C13.0625 59.1744 13.2518 59.6322 13.6372 59.7688C14.0225 59.9054 14.4579 59.6691 14.6097 59.2409Z" fill="#F7DC95"/>
<path d="M12.6095 58.2069C12.9232 57.8784 12.9378 57.3832 12.6422 57.1009C12.3465 56.8185 11.8525 56.8559 11.5387 57.1845C11.225 57.513 11.2104 58.0082 11.5061 58.2905C11.8017 58.5729 12.2957 58.5355 12.6095 58.2069Z" fill="#F7DC95"/>
<path d="M16.3274 59.7843C16.732 59.7251 17.0066 59.3128 16.9409 58.8633C16.8751 58.4138 16.4939 58.0974 16.0894 58.1566C15.6849 58.2157 15.4102 58.628 15.476 59.0775C15.5417 59.527 15.9229 59.8434 16.3274 59.7843Z" fill="#F7DC95"/>
<path d="M46.4834 54.2829C47.4431 53.8052 47.9274 52.8279 47.5651 52.1C47.2028 51.372 46.1311 51.1691 45.1714 51.6468C44.2116 52.1245 43.7273 53.1018 44.0896 53.8298C44.4519 54.5577 45.5236 54.7606 46.4834 54.2829Z" fill="#F7DC95"/>
<path d="M44.8083 51.1507C45.1743 50.9685 45.3069 50.4912 45.1045 50.0845C44.9021 49.6778 44.4413 49.4958 44.0753 49.678C43.7093 49.8601 43.5767 50.3375 43.7791 50.7442C43.9815 51.1508 44.4423 51.3328 44.8083 51.1507Z" fill="#F7DC95"/>
<path d="M46.6865 50.8405C47.095 50.8241 47.4114 50.4429 47.3932 49.989C47.375 49.5351 47.029 49.1804 46.6205 49.1969C46.212 49.2133 45.8956 49.5945 45.9139 50.0484C45.9321 50.5023 46.278 50.8569 46.6865 50.8405Z" fill="#F7DC95"/>
<path d="M43.5335 52.5639C43.772 52.2319 43.6664 51.7478 43.2975 51.4827C42.9286 51.2177 42.4362 51.2719 42.1976 51.6039C41.959 51.9359 42.0647 52.42 42.4336 52.685C42.8025 52.9501 43.2949 52.8959 43.5335 52.5639Z" fill="#F7DC95"/>
<path d="M16.4841 44.8622C17.2923 44.7726 17.8516 43.8361 17.7334 42.7706C17.6152 41.7051 16.8642 40.914 16.0561 41.0037C15.2479 41.0933 14.6886 42.0298 14.8068 43.0953C14.925 44.1608 15.676 44.9519 16.4841 44.8622Z" fill="#F7DC95"/>
<path d="M13.4793 44.082C13.9307 44.0319 14.2602 43.6619 14.2151 43.2555C14.1701 42.8492 13.7675 42.5604 13.316 42.6105C12.8645 42.6606 12.5351 43.0306 12.5802 43.4369C12.6252 43.8433 13.0278 44.1321 13.4793 44.082Z" fill="#F7DC95"/>
<path d="M14.5729 41.4006C14.6981 41.0114 14.449 40.5831 14.0166 40.444C13.5842 40.3049 13.1321 40.5077 13.0069 40.8969C12.8818 41.2861 13.1308 41.7143 13.5633 41.8534C13.9957 41.9925 14.4477 41.7897 14.5729 41.4006Z" fill="#F7DC95"/>
<path d="M14.8382 46.0169C15.2141 45.7617 15.3326 45.2807 15.103 44.9425C14.8734 44.6042 14.3825 44.5368 14.0067 44.7919C13.6309 45.0471 13.5123 45.5281 13.7419 45.8664C13.9716 46.2046 14.4624 46.272 14.8382 46.0169Z" fill="#F7DC95"/>
<path d="M46.5316 41.6859C46.9449 40.9856 46.5315 39.9762 45.6083 39.4313C44.6851 38.8864 43.6016 39.0123 43.1883 39.7126C42.775 40.4128 43.1884 41.4222 44.1116 41.9671C45.0348 42.512 46.1183 42.3861 46.5316 41.6859Z" fill="#EDD191"/>
<path d="M46.8952 38.5227C47.1261 38.1315 47.0279 37.6459 46.6758 37.4381C46.3237 37.2303 45.8511 37.379 45.6202 37.7702C45.3893 38.1614 45.4876 38.647 45.8396 38.8548C46.1917 39.0626 46.6643 38.9139 46.8952 38.5227Z" fill="#EDD191"/>
<path d="M48.2171 40.3934C48.5879 40.131 48.697 39.6477 48.4608 39.314C48.2246 38.9803 47.7326 38.9226 47.3618 39.185C46.991 39.4474 46.8819 39.9307 47.1181 40.2644C47.3543 40.5981 47.8463 40.6559 48.2171 40.3934Z" fill="#EDD191"/>
<path d="M56.9518 48.0254C56.9883 46.954 56.3591 46.063 55.5464 46.0354C54.7338 46.0077 54.0454 46.8538 54.0089 47.9252C53.9724 48.9967 54.6017 49.8877 55.4143 49.9153C56.2269 49.943 56.9153 49.0969 56.9518 48.0254Z" fill="#EDD191"/>
<path d="M59.1976 48.0036C59.2115 47.5951 58.8547 47.2513 58.4007 47.2358C57.9467 47.2204 57.5674 47.5391 57.5535 47.9477C57.5396 48.3563 57.8964 48.7 58.3503 48.7155C58.8043 48.7309 59.1837 48.4122 59.1976 48.0036Z" fill="#EDD191"/>
<path d="M58.4167 50.4655C58.5966 50.0984 58.4118 49.6387 58.0039 49.4388C57.596 49.2389 57.1195 49.3744 56.9395 49.7415C56.7596 50.1087 56.9444 50.5683 57.3523 50.7682C57.7602 50.9681 58.2368 50.8326 58.4167 50.4655Z" fill="#EDD191"/>
<path d="M57.9943 46.4493C58.403 46.251 58.5896 45.792 58.411 45.4242C58.2325 45.0564 57.7565 44.9191 57.3479 45.1174C56.9392 45.3158 56.7526 45.7747 56.9311 46.1425C57.1097 46.5103 57.5857 46.6477 57.9943 46.4493Z" fill="#EDD191"/>
<path d="M35.5231 58.2794C35.5595 57.2079 34.9303 56.3169 34.1177 56.2893C33.305 56.2616 32.6167 57.1077 32.5802 58.1792C32.5437 59.2506 33.1729 60.1416 33.9856 60.1692C34.7982 60.1969 35.4866 59.3508 35.5231 58.2794Z" fill="#EDD191"/>
<path d="M37.7855 58.2595C37.7994 57.8509 37.4426 57.5072 36.9886 57.4917C36.5346 57.4762 36.1553 57.7949 36.1414 58.2035C36.1275 58.6121 36.4842 58.9559 36.9382 58.9713C37.3922 58.9868 37.7715 58.6681 37.7855 58.2595Z" fill="#EDD191"/>
<path d="M37.0007 60.7311C37.1806 60.364 36.9958 59.9044 36.5879 59.7044C36.18 59.5045 35.7035 59.6401 35.5235 60.0072C35.3436 60.3743 35.5284 60.8339 35.9363 61.0339C36.3442 61.2338 36.8207 61.0982 37.0007 60.7311Z" fill="#EDD191"/>
<path d="M36.572 56.713C36.9806 56.5147 37.1672 56.0557 36.9887 55.6879C36.8102 55.3201 36.3342 55.1827 35.9255 55.3811C35.5168 55.5794 35.3303 56.0384 35.5088 56.4062C35.6873 56.774 36.1633 56.9114 36.572 56.713Z" fill="#EDD191"/>
<path d="M53.1997 63.8748C53.6434 63.1934 53.2748 62.1668 52.3765 61.5819C51.4781 60.9969 50.3901 61.0751 49.9464 61.7565C49.5027 62.4379 49.8713 63.4645 50.7697 64.0494C51.6681 64.6344 52.7561 64.5562 53.1997 63.8748Z" fill="#EDD191"/>
<path d="M53.7002 60.7436C53.9481 60.3629 53.8713 59.8735 53.5287 59.6504C53.1861 59.4273 52.7074 59.5551 52.4596 59.9357C52.2117 60.3164 52.2885 60.8058 52.6311 61.0289C52.9737 61.252 53.4524 61.1243 53.7002 60.7436Z" fill="#EDD191"/>
<path d="M54.9485 62.6473C55.3305 62.4015 55.4607 61.9235 55.2394 61.5797C55.0182 61.2359 54.5291 61.1566 54.1472 61.4025C53.7652 61.6483 53.635 62.1263 53.8562 62.4701C54.0775 62.8139 54.5666 62.8932 54.9485 62.6473Z" fill="#EDD191"/>
<path d="M51.5703 59.8803C51.6117 59.428 51.3152 59.031 50.9081 58.9938C50.501 58.9565 50.1374 59.293 50.096 59.7454C50.0546 60.1977 50.351 60.5947 50.7582 60.6319C51.1653 60.6692 51.5289 60.3327 51.5703 59.8803Z" fill="#EDD191"/>
<path d="M8.32112 52.1318C9.13411 51.433 9.36351 50.3667 8.8335 49.75C8.30348 49.1334 7.21475 49.2 6.40175 49.8988C5.58875 50.5976 5.35935 51.6639 5.88937 52.2806C6.41939 52.8972 7.50812 52.8306 8.32112 52.1318Z" fill="#EDD191"/>
<path d="M5.94029 49.4994C6.25033 49.2329 6.26164 48.7376 5.96554 48.3931C5.66944 48.0486 5.17806 47.9854 4.86802 48.2519C4.55798 48.5183 4.54668 49.0136 4.84278 49.3581C5.13888 49.7026 5.63025 49.7659 5.94029 49.4994Z" fill="#EDD191"/>
<path d="M7.66525 48.7318C8.0572 48.6156 8.27023 48.1683 8.14106 47.7328C8.0119 47.2973 7.58944 47.0385 7.19749 47.1547C6.80553 47.271 6.5925 47.7183 6.72167 48.1538C6.85084 48.5893 7.27329 48.8481 7.66525 48.7318Z" fill="#EDD191"/>
<path d="M5.03619 51.2006C5.1859 50.8202 4.96458 50.377 4.54188 50.2106C4.11917 50.0443 3.65514 50.2178 3.50544 50.5983C3.35573 50.9787 3.57705 51.422 3.99975 51.5883C4.42246 51.7546 4.88649 51.5811 5.03619 51.2006Z" fill="#EDD191"/>
<path d="M32.522 44.8467C33.5159 44.4452 34.0748 43.5084 33.7702 42.7545C33.4656 42.0006 32.4129 41.715 31.4189 42.1166C30.4249 42.5182 29.8661 43.4549 30.1707 44.2088C30.4753 44.9627 31.528 45.2483 32.522 44.8467Z" fill="#F7DC95"/>
<path d="M33.4671 46.8983C33.8462 46.7452 34.0155 46.2796 33.8454 45.8584C33.6752 45.4372 33.23 45.2199 32.8509 45.3731C32.4718 45.5262 32.3025 45.9918 32.4727 46.413C32.6428 46.8342 33.0881 47.0515 33.4671 46.8983Z" fill="#F7DC95"/>
<path d="M31.6569 46.3882C31.6741 45.9342 31.3568 45.5538 30.9482 45.5384C30.5397 45.5229 30.1946 45.8784 30.1775 46.3324C30.1604 46.7863 30.4777 47.1668 30.8862 47.1822C31.2948 47.1976 31.6398 46.8421 31.6569 46.3882Z" fill="#F7DC95"/>
<path d="M35.4822 45.1182C35.7458 44.8058 35.6781 44.315 35.331 44.022C34.9838 43.7291 34.4886 43.7449 34.225 44.0573C33.9613 44.3698 34.029 44.8605 34.3762 45.1535C34.7233 45.4465 35.2185 45.4307 35.4822 45.1182Z" fill="#F7DC95"/>
<path d="M95.1448 59.9502C95.9378 59.7702 96.3882 58.7768 96.1508 57.7313C95.9135 56.6859 95.0783 55.9843 94.2854 56.1643C93.4924 56.3443 93.042 57.3377 93.2793 58.3832C93.5167 59.4286 94.3519 60.1302 95.1448 59.9502Z" fill="#EDD191"/>
<path d="M97.6889 58.0351C98.1319 57.9346 98.4177 57.5298 98.3271 57.1312C98.2366 56.7325 97.8042 56.4908 97.3612 56.5914C96.9182 56.6919 96.6325 57.0966 96.723 57.4953C96.8135 57.894 97.2459 58.1357 97.6889 58.0351Z" fill="#EDD191"/>
<path d="M98.2128 59.708C98.2934 59.3072 97.9977 58.9096 97.5523 58.8201C97.107 58.7305 96.6806 58.9828 96.6 59.3837C96.5194 59.7845 96.8151 60.182 97.2605 60.2715C97.7058 60.3611 98.1322 60.1088 98.2128 59.708Z" fill="#EDD191"/>
<path d="M96.7587 55.9318C97.1034 55.636 97.1671 55.1446 96.9009 54.8344C96.6347 54.5241 96.1394 54.5124 95.7946 54.8082C95.4499 55.104 95.3862 55.5953 95.6524 55.9055C95.9187 56.2158 96.4139 56.2276 96.7587 55.9318Z" fill="#EDD191"/>
<path d="M77.7421 50.8122C78.3025 50.2231 78.1272 49.1465 77.3505 48.4076C76.5737 47.6687 75.4897 47.5473 74.9293 48.1364C74.3689 48.7255 74.5442 49.8021 75.3209 50.541C76.0977 51.2799 77.1817 51.4013 77.7421 50.8122Z" fill="#EDD191"/>
<path d="M74.9535 52.1589C75.2666 51.8297 75.2803 51.3345 74.9841 51.0527C74.6879 50.7709 74.194 50.8093 73.8809 51.1384C73.5678 51.4676 73.5541 51.9628 73.8503 52.2446C74.1465 52.5264 74.6405 52.488 74.9535 52.1589Z" fill="#EDD191"/>
<path d="M73.562 50.3865C73.9823 50.2143 74.1975 49.7681 74.0426 49.3898C73.8876 49.0114 73.4213 48.8443 73.0009 49.0164C72.5805 49.1886 72.3653 49.6348 72.5203 50.0132C72.6752 50.3915 73.1416 50.5586 73.562 50.3865Z" fill="#EDD191"/>
<path d="M77.232 52.7581C77.3552 52.3209 77.136 51.8766 76.7425 51.7657C76.349 51.6549 75.9301 51.9195 75.807 52.3567C75.6838 52.794 75.903 53.2383 76.2965 53.3491C76.69 53.46 77.1089 53.1954 77.232 52.7581Z" fill="#EDD191"/>
</g>
</svg>
