<svg width="100" height="100" viewBox="0 0 100 100" fill="none" xmlns="http://www.w3.org/2000/svg">
<path d="M100 39.0742L97.6914 41.3818L100 43.6895L97.6914 45.9971L100 48.3047L97.6914 50.6133L100 52.9209L97.6914 55.2285L100 57.5361L97.6914 59.8438L99.6943 61.8457H1.33398L0 61.0752L2.30762 58.7676L0 56.46L2.30762 54.1523L0 51.8447L2.30762 49.5371L0 47.2295L2.30762 44.9219L0 42.6143L2.30762 40.3066L0.000976562 38H98.1387L100 39.0742Z" fill="white"/>
<mask id="mask0_3710_32715" style="mask-type:alpha" maskUnits="userSpaceOnUse" x="0" y="38" width="100" height="24">
<path d="M100 39.0742L97.6914 41.3818L100 43.6895L97.6914 45.9971L100 48.3047L97.6914 50.6133L100 52.9209L97.6914 55.2285L100 57.5361L97.6914 59.8438L99.6943 61.8457H1.33398L0 61.0752L2.30762 58.7676L0 56.46L2.30762 54.1523L0 51.8447L2.30762 49.5371L0 47.2295L2.30762 44.9219L0 42.6143L2.30762 40.3066L0.000976562 38H98.1387L100 39.0742Z" fill="white"/>
</mask>
<g mask="url(#mask0_3710_32715)">
<rect x="99.7373" y="39.9863" width="4.90798" height="99.7371" transform="rotate(90 99.7373 39.9863)" fill="#F3F099" fill-opacity="0.47"/>
<rect x="99.7373" y="49.9785" width="4.90798" height="99.7371" transform="rotate(90 99.7373 49.9785)" fill="#F3F099" fill-opacity="0.47"/>
<rect x="99.7373" y="59.9707" width="4.90798" height="99.7371" transform="rotate(90 99.7373 59.9707)" fill="#F3F099" fill-opacity="0.47"/>
<rect x="2.54199" y="18.5137" width="4.90798" height="63.2778" fill="#F3F099" fill-opacity="0.47"/>
<rect x="12.5332" y="18.5137" width="4.90798" height="63.2778" fill="#F3F099" fill-opacity="0.47"/>
<rect x="22.5244" y="18.5137" width="4.90798" height="63.2778" fill="#F3F099" fill-opacity="0.47"/>
<rect x="32.5146" y="18.5137" width="4.90798" height="63.2778" fill="#F3F099" fill-opacity="0.47"/>
<rect x="42.5068" y="18.5137" width="4.90798" height="63.2778" fill="#F3F099" fill-opacity="0.47"/>
<rect x="52.498" y="18.5137" width="4.90798" height="63.2778" fill="#F3F099" fill-opacity="0.47"/>
<rect x="62.4893" y="18.5137" width="4.90798" height="63.2778" fill="#F3F099" fill-opacity="0.47"/>
<rect x="72.4795" y="18.5137" width="4.90798" height="63.2778" fill="#F3F099" fill-opacity="0.47"/>
<rect x="82.4717" y="18.5137" width="4.90798" height="63.2778" fill="#F3F099" fill-opacity="0.47"/>
<rect x="92.4629" y="18.5137" width="4.90798" height="63.2778" fill="#F3F099" fill-opacity="0.47"/>
</g>
</svg>
