<svg width="100" height="100" viewBox="0 0 100 100" fill="none" xmlns="http://www.w3.org/2000/svg">
<path d="M100 39.0762L97.6914 41.3838L100 43.6914L97.6914 45.999L100 48.3076L97.6914 50.6152L100 52.9229L97.6914 55.2305L100 57.5381L97.6914 59.8457L99.6934 61.8467H1.33203L0 61.0771L2.30762 58.7695L0 56.4619L2.30762 54.1543L0 51.8467L2.30762 49.5391L0 47.2314L2.30762 44.9238L0 42.6162L2.30762 40.3076L0 38H98.1348L100 39.0762Z" fill="white"/>
<mask id="mask0_3710_32704" style="mask-type:alpha" maskUnits="userSpaceOnUse" x="0" y="38" width="100" height="24">
<path d="M100 39.0762L97.6914 41.3838L100 43.6914L97.6914 45.999L100 48.3076L97.6914 50.6152L100 52.9229L97.6914 55.2305L100 57.5381L97.6914 59.8457L99.6934 61.8467H1.33203L0 61.0771L2.30762 58.7695L0 56.4619L2.30762 54.1543L0 51.8467L2.30762 49.5391L0 47.2314L2.30762 44.9238L0 42.6162L2.30762 40.3076L0 38H98.1348L100 39.0762Z" fill="white"/>
</mask>
<g mask="url(#mask0_3710_32704)">
<rect x="99.7373" y="39.9863" width="4.90798" height="99.7371" transform="rotate(90 99.7373 39.9863)" fill="#D3D3D3" fill-opacity="0.47"/>
<rect x="99.7373" y="49.9766" width="4.90798" height="99.7371" transform="rotate(90 99.7373 49.9766)" fill="#D3D3D3" fill-opacity="0.47"/>
<rect x="99.7373" y="59.9688" width="4.90798" height="99.7371" transform="rotate(90 99.7373 59.9688)" fill="#D3D3D3" fill-opacity="0.47"/>
<rect x="2.54199" y="18.5137" width="4.90798" height="63.2778" fill="#D3D3D3" fill-opacity="0.47"/>
<rect x="12.5332" y="18.5137" width="4.90798" height="63.2778" fill="#D3D3D3" fill-opacity="0.47"/>
<rect x="22.5244" y="18.5137" width="4.90798" height="63.2778" fill="#D3D3D3" fill-opacity="0.47"/>
<rect x="32.5146" y="18.5137" width="4.90798" height="63.2778" fill="#D3D3D3" fill-opacity="0.47"/>
<rect x="42.5068" y="18.5137" width="4.90798" height="63.2778" fill="#D3D3D3" fill-opacity="0.47"/>
<rect x="52.498" y="18.5137" width="4.90798" height="63.2778" fill="#D3D3D3" fill-opacity="0.47"/>
<rect x="62.4893" y="18.5137" width="4.90798" height="63.2778" fill="#D3D3D3" fill-opacity="0.47"/>
<rect x="72.4795" y="18.5137" width="4.90798" height="63.2778" fill="#D3D3D3" fill-opacity="0.47"/>
<rect x="82.4717" y="18.5137" width="4.90798" height="63.2778" fill="#D3D3D3" fill-opacity="0.47"/>
<rect x="92.4629" y="18.5137" width="4.90798" height="63.2778" fill="#D3D3D3" fill-opacity="0.47"/>
</g>
</svg>
