<svg width="100" height="100" viewBox="0 0 100 100" fill="none" xmlns="http://www.w3.org/2000/svg">
<mask id="mask0_3759_4996" style="mask-type:luminance" maskUnits="userSpaceOnUse" x="0" y="39" width="100" height="23">
<path d="M95.5256 56.9635L100 54.0107L96.1671 49.9311L100 46.5588L95.6819 43.3264L98.4948 39H0C1.97401 41.3277 4.27702 44.0255 4.27702 44.0255L0.123376 47.6774L4.44152 50.77L0.123376 54.2821L5.07485 57.2349L0.518177 61.3063H99.819L95.5256 56.9553V56.9635Z" fill="white"/>
</mask>
<g mask="url(#mask0_3759_4996)">
<path d="M95.5256 56.9635L100 54.0107L96.1671 49.9311L100 46.5588L95.6819 43.3264L98.4948 39H0C1.97401 41.3277 4.27702 44.0255 4.27702 44.0255L0.123376 47.6774L4.44152 50.77L0.123376 54.2821L5.07485 57.2349L0.518177 61.3063H99.819L95.5256 56.9553V56.9635Z" fill="#FFF1B6"/>
<path d="M10.5446 36.5488H6.79395V64.588H10.5446V36.5488Z" fill="#FFF1B6"/>
<path d="M19.8063 36.5488H16.0557V64.588H19.8063V36.5488Z" fill="#FFF1B6"/>
<path d="M29.0675 36.5488H25.3169V64.588H29.0675V36.5488Z" fill="#FFF1B6"/>
<path d="M38.3287 36.5488H34.5781V64.588H38.3287V36.5488Z" fill="#FFF1B6"/>
<path d="M-3.05127 52.892L-3.05127 56.6426L103.34 56.6426V52.892L-3.05127 52.892Z" fill="#FFF1B6"/>
<path d="M-3.04297 43.6302L-3.04297 47.3809L103.348 47.3809V43.6302L-3.04297 43.6302Z" fill="#FFF1B6"/>
<path d="M47.5905 36.5488H43.8398V64.588H47.5905V36.5488Z" fill="#FFF1B6"/>
<path d="M56.8517 36.5488H53.1011V64.588H56.8517V36.5488Z" fill="#FFF1B6"/>
<path d="M66.1129 36.5488H62.3623V64.588H66.1129V36.5488Z" fill="#FFF1B6"/>
<path d="M75.3829 36.5488H71.6323V64.588H75.3829V36.5488Z" fill="#FFF1B6"/>
<path d="M84.6442 36.5488H80.8936V64.588H84.6442V36.5488Z" fill="#FFF1B6"/>
<path d="M93.9054 36.5488H90.1548V64.588H93.9054V36.5488Z" fill="#FFF1B6"/>
</g>
</svg>
