<svg width="100" height="100" viewBox="0 0 100 100" fill="none" xmlns="http://www.w3.org/2000/svg">
<g clip-path="url(#clip0_3759_4987)">
<path d="M85.8742 36.5477C87.6533 36.0041 89.5066 36.1853 91.2857 36.6465C92.8837 37.0666 94.5228 37.7915 95.5524 39.1176C96.5161 40.3531 96.7138 41.7698 96.1866 43.1289C95.6594 44.488 94.4157 45.8058 93.1966 46.7036C92.4801 47.2308 92.1341 48.1451 92.6201 48.9605C93.0402 49.6689 94.1604 50.0643 94.877 49.5371C96.7879 48.1369 98.427 46.4154 99.2836 44.1832C100.14 41.951 99.8108 39.5212 98.4929 37.6102C97.0762 35.5593 94.9264 34.2908 92.5624 33.5989C90.1985 32.9071 87.4227 32.6435 84.9599 33.393C82.9336 34.0108 83.8232 37.1819 85.8577 36.5642L85.8742 36.5477Z" fill="#A09D97"/>
<path d="M85.9156 36.4975C87.703 35.9703 89.5562 36.1598 91.3272 36.6457C92.9251 37.074 94.5477 37.8154 95.5691 39.1497C96.5246 40.3935 96.7058 41.8102 96.1704 43.161C95.635 44.5119 94.383 45.8215 93.1475 46.7111C92.4309 47.23 92.0767 48.1443 92.5544 48.9679C92.9745 49.6763 94.0865 50.0799 94.8113 49.561C96.7305 48.1772 98.3861 46.4722 99.2674 44.24C100.149 42.0079 99.8357 39.5863 98.5343 37.6589C97.1341 35.5914 94.9925 34.3147 92.6368 33.5981C90.2811 32.8815 87.5053 32.6015 85.0343 33.3263C83.008 33.9276 83.8646 37.107 85.9074 36.5057L85.9156 36.4975Z" stroke="#565250" stroke-width="0.823678" stroke-linecap="round" stroke-linejoin="round"/>
<path d="M18.4718 61.248C18.4471 61.9482 18.4059 62.7142 18.34 63.5543C18.0682 67.0138 17.3187 68.1505 15.6384 68.1505C13.9581 68.1505 12.6649 66.6926 12.6649 63.2166C12.6649 62.706 12.6649 62.1459 12.6484 61.561" fill="white"/>
<path d="M18.4718 61.248C18.4471 61.9482 18.4059 62.7142 18.34 63.5543C18.0682 67.0138 17.3187 68.1505 15.6384 68.1505C13.9581 68.1505 12.6649 66.6926 12.6649 63.2166C12.6649 62.706 12.6649 62.1459 12.6484 61.561" stroke="#565250" stroke-width="0.823678" stroke-linecap="round" stroke-linejoin="round"/>
<path d="M87.34 61.248C87.3153 61.9482 87.2741 62.7142 87.2082 63.5543C86.9364 67.0138 86.1869 68.1505 84.5066 68.1505C82.8263 68.1505 81.5331 66.6926 81.5331 63.2166C81.5331 62.706 81.5331 62.1459 81.5166 61.561" fill="white"/>
<path d="M87.34 61.248C87.3153 61.9482 87.2741 62.7142 87.2082 63.5543C86.9364 67.0138 86.1869 68.1505 84.5066 68.1505C82.8263 68.1505 81.5331 66.6926 81.5331 63.2166C81.5331 62.706 81.5331 62.1459 81.5166 61.561" stroke="#565250" stroke-width="0.823678" stroke-linecap="round" stroke-linejoin="round"/>
<path d="M91.7053 40.625H17.2778C12.6969 40.625 8.9834 44.3385 8.9834 48.9194V54.6769C8.9834 59.2578 12.6969 62.9714 17.2778 62.9714H91.7053C96.2862 62.9714 99.9998 59.2578 99.9998 54.6769V48.9194C99.9998 44.3385 96.2862 40.625 91.7053 40.625Z" fill="white"/>
<path d="M32.0294 50.0299C32.3919 50.0051 32.7543 49.9557 33.1085 49.8898C35.1018 49.4862 36.9468 48.3084 38.0588 46.6034C38.7095 45.5985 39.1048 44.4536 39.4343 43.3004C39.7967 42.0567 40.0603 41.1259 38.9319 40.6235C37.9023 40.1622 35.5795 40.6235 34.4346 40.6235C32.9108 40.6235 27.0462 39.7751 26.0001 40.9447C25.6624 41.3153 25.5636 41.8425 25.4977 42.3449C25.3329 43.7205 25.3741 45.1125 25.5142 46.488C25.5718 47.0564 25.6624 47.6494 26.0001 48.1107C26.239 48.4319 26.5849 48.6625 26.9391 48.8685C28.4217 49.7416 30.275 50.1534 32.0294 50.0381V50.0299Z" fill="#F7BE4E"/>
<path d="M69.4082 45.1058C70.7096 46.3248 72.7606 46.6873 74.4821 46.6214C75.9976 46.5637 77.3238 45.9789 78.3451 44.8505C79.3665 43.722 79.9925 42.1735 80.0913 40.625H67.3984C67.9585 42.1818 68.1315 43.895 69.4165 45.1058H69.4082Z" fill="#F7BE4E"/>
<path d="M91.6148 40.625C90.5852 41.4816 90.0992 42.8242 90.3298 44.2574C90.6181 46.0448 91.9772 47.6427 93.4433 48.6311C94.8683 49.5948 96.5816 49.9655 98.2783 49.7102C98.8631 49.6196 99.4397 49.4713 99.9916 49.2736V48.9194C99.9916 44.3398 96.2768 40.625 91.6972 40.625H91.6148Z" fill="#A09D97"/>
<path d="M85.2803 45.919C85.2803 45.919 85.2803 45.8861 85.2721 45.8696C85.2638 45.8284 85.2556 45.7872 85.2391 45.7461C85.2391 45.7214 85.2062 45.6472 85.2062 45.639C85.1979 45.6143 85.1815 45.5896 85.165 45.5649C85.1403 45.5237 85.1156 45.4907 85.0991 45.4495C85.0991 45.4413 85.0991 45.4331 85.0909 45.4331C85.0909 45.4331 85.0909 45.4331 85.0744 45.4166C85.0414 45.3836 85.0085 45.3425 84.9755 45.3095C84.9755 45.3095 84.9344 45.2766 84.9179 45.2601C84.8932 45.2436 84.852 45.2107 84.8438 45.2107C84.8108 45.186 84.7779 45.1695 84.7449 45.153C84.7284 45.153 84.679 45.1201 84.6543 45.1118C84.6296 45.1118 84.5719 45.0789 84.5637 45.0789C84.4813 45.0542 84.399 45.0295 84.3166 45.013C84.2919 45.013 84.2589 45.0048 84.2342 44.9965C84.193 44.9965 84.1519 44.9883 84.1024 44.9883C84.0118 44.9883 83.9212 44.9883 83.8306 44.9883C83.773 44.9883 83.7153 44.9883 83.6577 44.9965C83.6329 44.9965 83.6247 44.9965 83.6165 44.9965C83.6165 44.9965 83.6165 44.9965 83.5918 44.9965C83.4929 45.013 83.3941 45.0295 83.2952 45.0624C83.1882 45.0871 83.0811 45.1201 82.9822 45.1613C82.9658 45.1613 82.8175 45.2271 82.8916 45.1942C82.8422 45.2107 82.801 45.2354 82.7516 45.2601C82.1091 45.5731 81.6479 46.0508 81.4008 46.6851C81.3843 46.9981 81.4008 47.2369 81.5326 47.5334C81.6067 47.7064 81.7303 47.8794 81.9115 48.0441C82.0268 48.1512 82.3068 48.2995 82.4633 48.3571C82.7516 48.4477 82.8916 48.4724 83.1717 48.4642C83.5835 48.4642 83.9954 48.3324 84.366 48.0771C84.7367 47.8217 84.9755 47.3852 85.1403 46.9157C85.2226 46.6851 85.2803 46.4215 85.2968 46.2567C85.2968 46.1497 85.2968 46.0344 85.2968 45.9273L85.2803 45.919Z" fill="#F7BE4E"/>
<path d="M49.9611 43.2525C48.635 42.3135 46.6088 41.9511 45.2085 42.9395C45.192 42.9478 45.1756 42.956 45.1591 42.9642C44.4425 43.6067 43.7753 44.348 43.4129 45.2376C43.1493 45.8883 43.0999 46.5967 43.38 47.1568C43.9153 48.244 45.2168 48.7629 46.4111 48.8371C47.8608 48.9277 49.3269 48.4252 50.3071 47.3133C50.8342 46.712 51.2626 45.913 51.1719 45.0976C51.0896 44.3398 50.5707 43.6891 49.9694 43.2608L49.9611 43.2525Z" fill="#A09D97"/>
<path d="M91.7053 40.625H17.2778C12.6969 40.625 8.9834 44.3385 8.9834 48.9194V54.6769C8.9834 59.2578 12.6969 62.9714 17.2778 62.9714H91.7053C96.2862 62.9714 99.9998 59.2578 99.9998 54.6769V48.9194C99.9998 44.3385 96.2862 40.625 91.7053 40.625Z" stroke="#565250" stroke-width="0.823678" stroke-linecap="round" stroke-linejoin="round"/>
<path d="M25.9347 61.248C25.91 61.9482 25.8688 62.7142 25.8029 63.5543C25.5311 67.0138 24.7816 68.1505 23.1013 68.1505C21.421 68.1505 20.1278 66.6926 20.1278 63.2166C20.1278 62.706 20.1278 62.1459 20.1113 61.561" fill="white"/>
<path d="M25.9347 61.248C25.91 61.9482 25.8688 62.7142 25.8029 63.5543C25.5311 67.0138 24.7816 68.1505 23.1013 68.1505C21.421 68.1505 20.1278 66.6926 20.1278 63.2166C20.1278 62.706 20.1278 62.1459 20.1113 61.561" stroke="#565250" stroke-width="0.823678" stroke-linecap="round" stroke-linejoin="round"/>
<path d="M94.8029 61.248C94.7782 61.9482 94.737 62.7142 94.6711 63.5543C94.3993 67.0138 93.6497 68.1505 91.9694 68.1505C90.2891 68.1505 88.996 66.6926 88.996 63.2166C88.996 62.706 88.996 62.1459 88.9795 61.561" fill="white"/>
<path d="M94.8029 61.248C94.7782 61.9482 94.737 62.7142 94.6711 63.5543C94.3993 67.0138 93.6497 68.1505 91.9694 68.1505C90.2891 68.1505 88.996 66.6926 88.996 63.2166C88.996 62.706 88.996 62.1459 88.9795 61.561" stroke="#565250" stroke-width="0.823678" stroke-linecap="round" stroke-linejoin="round"/>
<mask id="mask0_3759_4987" style="mask-type:luminance" maskUnits="userSpaceOnUse" x="0" y="32" width="30" height="27">
<path d="M0.359336 36.703C0.309915 39.0258 0.639386 41.3568 1.3148 43.5725C1.44659 44.009 1.59485 44.4456 1.63604 44.9069C1.68546 45.4175 1.59485 45.9282 1.52896 46.4307C1.10888 49.7418 1.89961 53.3907 4.37065 55.6394C7.16291 58.1763 11.3142 58.3822 15.0867 58.234C17.1871 58.1516 19.2957 58.0033 21.3137 57.435C23.3317 56.8667 25.2673 55.8371 26.6347 54.2391C27.1783 53.5967 27.6231 52.8718 27.9525 52.0976C28.455 50.9032 28.8339 49.3794 28.768 48.0698C28.7103 46.9496 28.1749 46.0188 28.3644 44.8327C28.4962 43.9761 28.8174 43.1607 29.0727 42.3287C29.8388 39.8907 30.1023 37.2631 29.5669 34.7674C29.4022 34.0014 29.1304 33.1942 28.4962 32.7247C27.4748 31.9586 26.6594 32.8317 25.8027 33.3259C24.4601 34.1084 23.274 35.1627 22.3351 36.3983C22.0221 36.8101 21.7091 37.2631 21.2313 37.4526C20.7701 37.642 20.2512 37.5432 19.7652 37.4608C18.0355 37.1725 16.281 37.0654 14.5266 37.1396C13.3075 37.189 11.0754 37.016 9.97165 37.502C9.83163 37.5597 9.6916 37.6338 9.54334 37.6173C9.37037 37.5926 9.24682 37.4443 9.13974 37.3125C7.53357 35.3275 5.72148 33.3589 3.32458 32.494C0.952384 31.6374 0.392283 35.0227 0.359336 36.7113V36.703Z" fill="white"/>
</mask>
<g mask="url(#mask0_3759_4987)">
<path d="M0.359336 36.703C0.309915 39.0258 0.639386 41.3568 1.3148 43.5725C1.44659 44.009 1.59485 44.4456 1.63604 44.9069C1.68546 45.4175 1.59485 45.9282 1.52896 46.4307C1.10888 49.7418 1.89961 53.3907 4.37065 55.6394C7.16291 58.1763 11.3142 58.3822 15.0867 58.234C17.1871 58.1516 19.2957 58.0033 21.3137 57.435C23.3317 56.8667 25.2673 55.8371 26.6347 54.2391C27.1783 53.5967 27.6231 52.8718 27.9525 52.0976C28.455 50.9032 28.8339 49.3794 28.768 48.0698C28.7103 46.9496 28.1749 46.0188 28.3644 44.8327C28.4962 43.9761 28.8174 43.1607 29.0727 42.3287C29.8388 39.8907 30.1023 37.2631 29.5669 34.7674C29.4022 34.0014 29.1304 33.1942 28.4962 32.7247C27.4748 31.9586 26.6594 32.8317 25.8027 33.3259C24.4601 34.1084 23.274 35.1627 22.3351 36.3983C22.0221 36.8101 21.7091 37.2631 21.2313 37.4526C20.7701 37.642 20.2512 37.5432 19.7652 37.4608C18.0355 37.1725 16.281 37.0654 14.5266 37.1396C13.3075 37.189 11.0754 37.016 9.97165 37.502C9.83163 37.5597 9.6916 37.6338 9.54334 37.6173C9.37037 37.5926 9.24682 37.4443 9.13974 37.3125C7.53357 35.3275 5.72148 33.3589 3.32458 32.494C0.952384 31.6374 0.392283 35.0227 0.359336 36.7113V36.703Z" fill="white"/>
<path d="M28.5374 44.232C28.8504 43.3754 29.4764 42.4282 29.6824 41.5962C30.226 39.4382 30.226 37.1484 29.6659 34.9904C28.6363 31.0696 25.9264 32.5111 23.859 34.5868C23.1012 35.3445 21.4785 37.1154 20.3913 37.2802C19.79 37.3708 19.2052 37.0743 18.6451 36.8519C16.347 35.9458 16.3305 37.8156 16.2564 39.5288C16.1576 41.761 16.4376 44.0343 17.2036 46.1429C17.4672 46.8595 17.772 47.5679 18.2579 48.1527C18.7604 48.7622 19.4358 49.207 20.1524 49.5447C22.0716 50.4508 28.5704 51.1015 28.8752 48.0045C28.9822 46.909 28.2492 45.8629 28.3562 44.9074C28.3809 44.6933 28.4386 44.4709 28.5292 44.232H28.5374Z" fill="#F7BE4E"/>
<path d="M5.87769 50.9936C7.79686 50.9112 9.7325 50.5323 11.4128 49.618C12.3106 48.9179 13.0766 48.0119 13.6367 46.8505C14.7322 44.5524 14.9381 41.9661 14.7322 39.4539C14.4686 36.3239 13.332 36.8263 10.5068 37.2464C10.2185 37.2876 9.91371 37.3205 9.63366 37.2299C9.30419 37.1311 9.04885 36.8922 8.79351 36.6616C7.57446 35.5743 6.26482 34.6601 4.92222 33.7375C4.3127 33.3175 3.30781 32.1314 2.59121 31.9831C1.41336 31.7278 1.05917 32.7491 0.770886 33.7128C0.0872341 36.0274 0.153128 39.2562 0.680281 41.6037C1.03446 43.1687 1.6028 44.7089 1.62751 46.3069C1.64399 47.32 0.952096 49.8322 1.7593 50.6147C2.44295 51.2819 4.98812 51.0183 5.87769 50.9771V50.9936Z" fill="#A09D97"/>
<path d="M5.44919 37.1805C5.06206 36.6946 3.34881 35.2531 2.74753 35.8627C2.46748 36.1427 2.42629 36.5793 2.40158 36.9746C2.2945 38.8526 2.32745 40.813 3.13466 42.5097C3.00287 42.2379 4.59257 41.0189 4.76554 40.8871C5.27622 40.4917 6.26463 39.8822 6.40466 39.1903C6.55292 38.5149 5.81984 37.65 5.44095 37.1723L5.44919 37.1805Z" fill="white"/>
<path d="M26.8317 42.8985C27.8942 41.2265 27.8531 38.426 27.5071 36.515C27.4659 36.3009 27.4165 36.0702 27.2518 35.9137C26.5599 35.2548 25.728 36.375 25.3326 36.8116C24.6819 37.5282 24.0065 38.4177 23.71 39.3732C23.9982 40.2133 24.9949 40.8805 25.5797 41.4736C26.0327 41.9348 26.3952 42.4785 26.7823 42.9891C26.7988 42.9644 26.8152 42.9315 26.8399 42.9068L26.8317 42.8985Z" fill="white"/>
</g>
<path d="M8.54674 48.8865C9.21545 48.8865 9.75755 48.3444 9.75755 47.6756C9.75755 47.0069 9.21545 46.4648 8.54674 46.4648C7.87803 46.4648 7.33594 47.0069 7.33594 47.6756C7.33594 48.3444 7.87803 48.8865 8.54674 48.8865Z" fill="#231F20"/>
<path d="M21.1815 48.8865C21.8502 48.8865 22.3923 48.3444 22.3923 47.6756C22.3923 47.0069 21.8502 46.4648 21.1815 46.4648C20.5128 46.4648 19.9707 47.0069 19.9707 47.6756C19.9707 48.3444 20.5128 48.8865 21.1815 48.8865Z" fill="#231F20"/>
<path d="M14.864 49.7423C15.4691 49.7423 15.9595 49.4362 15.9595 49.0587C15.9595 48.6811 15.4691 48.375 14.864 48.375C14.259 48.375 13.7686 48.6811 13.7686 49.0587C13.7686 49.4362 14.259 49.7423 14.864 49.7423Z" fill="#231F20"/>
<path d="M7.71477 38.9034C12.1297 37.0995 17.0882 36.9513 21.602 38.508C22.1044 38.681 22.3186 37.882 21.8244 37.7173C17.1871 36.1276 12.0391 36.2676 7.50062 38.1127C7.01465 38.3104 7.2288 39.1093 7.72301 38.9034H7.71477Z" fill="#565250"/>
<path d="M2.37774 32.7982C4.97232 33.9184 7.27038 35.6152 9.11542 37.765C9.46136 38.1686 10.0379 37.5838 9.70023 37.1802C7.82224 34.9892 5.45005 33.2348 2.79781 32.0899C2.32008 31.8839 1.9 32.5923 2.38597 32.7982H2.37774Z" fill="#565250"/>
<path d="M0.936195 33.071C-0.439346 36.8599 -0.282848 41.0524 1.29861 44.7507C1.50453 45.2367 2.21289 44.8166 2.00698 44.3389C0.507882 40.8465 0.433751 36.8599 1.72693 33.2934C1.90813 32.7909 1.10917 32.5768 0.936195 33.071Z" fill="#565250"/>
<path d="M3.08586 36.2165C4.32962 36.8837 5.29332 37.938 5.86989 39.2312C5.9605 39.4371 6.25702 39.4783 6.42999 39.3794C6.63591 39.2559 6.66886 39.017 6.57826 38.8193C5.9605 37.4191 4.84853 36.233 3.4977 35.5082C3.30002 35.4011 3.05292 35.4587 2.9376 35.6564C2.82229 35.8541 2.88818 36.1177 3.08586 36.2165Z" fill="#565250"/>
<path d="M3.95939 41.2423C1.1836 44.2899 0.145767 48.7625 1.76018 52.6173C2.84743 55.1954 4.9231 57.0899 7.5671 57.9959C9.8075 58.762 12.2374 58.8443 14.5684 58.6466C15.0955 58.6055 15.0955 57.7818 14.5684 57.823C11.2325 58.0948 7.46002 57.823 4.81602 55.5249C2.7074 53.6963 1.62839 50.8547 1.81783 48.0953C1.97433 45.7726 2.97098 43.5404 4.53597 41.8272C4.89015 41.44 4.31358 40.8552 3.95116 41.2423H3.95939Z" fill="#565250"/>
<path d="M21.372 37.8894C22.5664 36.7197 23.6866 35.5172 25.0127 34.4876C25.5151 34.1004 26.0258 33.7051 26.5612 33.3674C26.9401 33.1285 27.5167 32.7084 27.9862 32.8402C28.8181 33.0708 29.0158 34.5123 29.1228 35.2042C29.2793 36.1761 29.304 37.1645 29.3205 38.1447C29.3452 40.2698 28.9663 42.3784 28.1262 44.3387C27.9203 44.8247 28.6286 45.2448 28.8345 44.7506C30.1277 41.7359 30.416 38.3753 29.9383 35.1465C29.79 34.1416 29.5264 32.7661 28.571 32.206C27.4425 31.5388 26.0835 32.6508 25.2104 33.2932C24.5679 33.771 23.9254 34.2487 23.3241 34.7759C22.4263 35.5666 21.6356 36.4644 20.779 37.3045C20.4001 37.6752 20.9849 38.26 21.3638 37.8894H21.372Z" fill="#565250"/>
<path d="M26.6262 35.5082C25.2754 36.233 24.1717 37.4191 23.5457 38.8193C23.4551 39.0253 23.488 39.2641 23.6939 39.3794C23.8669 39.4783 24.1634 39.4371 24.254 39.2312C24.8306 37.938 25.7943 36.8837 27.0381 36.2165C27.2358 36.1094 27.2934 35.8376 27.1863 35.6564C27.071 35.4587 26.8157 35.4011 26.6262 35.5082Z" fill="#565250"/>
<path d="M25.5886 41.819C27.4748 43.8864 28.5126 46.6952 28.2985 49.5039C28.0843 52.3127 26.5358 54.6766 24.213 56.0851C22.9445 56.8511 21.5113 57.2547 20.037 57.2053C19.5098 57.1888 19.5098 58.0125 20.037 58.029C22.9116 58.1113 25.6297 56.6122 27.3348 54.3389C29.1798 51.8843 29.5587 48.6473 28.7103 45.7397C28.2161 44.0676 27.343 42.5356 26.1734 41.2507C25.8192 40.8553 25.2344 41.4401 25.5886 41.8355V41.819Z" fill="#565250"/>
</g>
<defs>
<clipPath id="clip0_3759_4987">
<rect width="100" height="100" fill="white"/>
</clipPath>
</defs>
</svg>
