<svg width="100" height="100" viewBox="0 0 100 100" fill="none" xmlns="http://www.w3.org/2000/svg">
<g clip-path="url(#clip0_3759_4986)">
<path d="M96.8912 45.1281C98.6083 45.1281 100 43.7362 100 42.0191C100 40.3021 98.6083 38.9102 96.8912 38.9102C95.1742 38.9102 93.7822 40.3021 93.7822 42.0191C93.7822 43.7362 95.1742 45.1281 96.8912 45.1281Z" fill="#F7D58B"/>
<path d="M96.8912 45.1281C98.6083 45.1281 100 43.7362 100 42.0191C100 40.3021 98.6083 38.9102 96.8912 38.9102C95.1742 38.9102 93.7822 40.3021 93.7822 42.0191C93.7822 43.7362 95.1742 45.1281 96.8912 45.1281Z" stroke="#9E5F3C" stroke-width="0.81387" stroke-miterlimit="10"/>
<path d="M18.7511 61.6094C18.7267 62.3012 18.686 63.0581 18.6209 63.8882C18.3523 67.3065 17.6117 68.4296 15.9514 68.4296C14.2911 68.4296 13.0133 66.9891 13.0133 63.5545C13.0133 63.0499 13.0133 62.4965 12.9971 61.9186" fill="#F7D58B"/>
<path d="M16.4719 65.7116C15.3895 65.7035 14.3071 65.679 13.2246 65.7116C13.656 67.5916 14.6896 68.4218 15.9429 68.4218C17.2777 68.4218 18.0102 67.6974 18.3927 65.6465C17.7497 65.6872 17.1068 65.7197 16.4719 65.7116Z" fill="white"/>
<path d="M18.7511 61.6094C18.7267 62.3012 18.686 63.0581 18.6209 63.8882C18.3523 67.3065 17.6117 68.4296 15.9514 68.4296C14.2911 68.4296 13.0133 66.9891 13.0133 63.5545C13.0133 63.0499 13.0133 62.4965 12.9971 61.9186" stroke="#9E5F3C" stroke-width="0.81387" stroke-miterlimit="10"/>
<path d="M86.799 61.6094C86.7746 62.3012 86.7339 63.0581 86.6688 63.8882C86.4002 67.3065 85.6596 68.4296 83.9993 68.4296C82.339 68.4296 81.0612 66.9891 81.0612 63.5545C81.0612 63.0499 81.0612 62.4965 81.0449 61.9186" fill="#F7D58B"/>
<path d="M84.5198 65.7116C83.4374 65.7035 82.3549 65.679 81.2725 65.7116C81.7038 67.5916 82.7374 68.4218 83.9908 68.4218C85.3255 68.4218 86.058 67.6974 86.4405 65.6465C85.7976 65.6872 85.1546 65.7197 84.5198 65.7116Z" fill="white"/>
<path d="M86.799 61.6094C86.7746 62.3012 86.7339 63.0581 86.6688 63.8882C86.4002 67.3065 85.6596 68.4296 83.9993 68.4296C82.339 68.4296 81.0612 66.9891 81.0612 63.5545C81.0612 63.0499 81.0612 62.4965 81.0449 61.9186" stroke="#9E5F3C" stroke-width="0.81387" stroke-miterlimit="10"/>
<path d="M91.1129 41.2207H17.5716C13.0453 41.2207 9.37598 44.89 9.37598 49.4164V55.1053C9.37598 59.6317 13.0453 63.301 17.5716 63.301H91.1129C95.6393 63.301 99.3086 59.6317 99.3086 55.1053V49.4164C99.3086 44.89 95.6393 41.2207 91.1129 41.2207Z" fill="#F7D58B"/>
<path d="M19.5331 60.1591C19.5331 60.1591 19.4598 60.094 19.4273 60.0533C17.2298 57.8966 17.7751 55.0562 17.71 52.1506C17.653 49.8718 17.6205 47.6011 17.474 45.3223C17.417 44.3619 17.3275 43.4015 17.3112 42.4412C17.3112 42.0342 17.3356 41.6273 17.4007 41.2285C12.957 41.3262 9.37598 44.9479 9.37598 49.416V55.0969C9.37598 59.622 13.0465 63.2925 17.5716 63.2925H20.8108C20.7864 62.8937 20.7457 62.4949 20.6969 62.0961C20.526 61.0625 20.2086 60.8021 19.5331 60.1429V60.1591Z" fill="white"/>
<path d="M97.4449 57.0829C96.688 57.9701 95.8335 58.8002 94.9301 59.5571C94.694 60.5826 94.515 61.6243 94.3115 62.6579C97.2496 61.4127 99.3087 58.4991 99.3087 55.1052V54.0879C98.9262 55.2029 98.1611 56.2365 97.4449 57.0829Z" fill="white"/>
<path d="M86.6206 59.1348H27.9487C27.8917 59.1836 27.8185 59.2324 27.7208 59.2406C27.6394 59.2487 27.5581 59.2568 27.4767 59.265C26.6384 59.7533 26.3861 60.8358 26.264 61.7392C26.1989 62.26 26.1745 62.7809 26.1582 63.3018H88.2158C88.2402 63.082 88.2565 62.8623 88.2809 62.6425C88.1181 61.259 87.6786 59.9161 86.6125 59.1348H86.6206Z" fill="white"/>
<path d="M91.1129 41.2207H17.5716C13.0453 41.2207 9.37598 44.89 9.37598 49.4164V55.1053C9.37598 59.6317 13.0453 63.301 17.5716 63.301H91.1129C95.6393 63.301 99.3086 59.6317 99.3086 55.1053V49.4164C99.3086 44.89 95.6393 41.2207 91.1129 41.2207Z" stroke="#9E5F3C" stroke-width="0.81387" stroke-miterlimit="10"/>
<path d="M29.4216 35.0851C29.3239 34.8328 29.21 34.5886 29.0798 34.3444C28.9088 34.027 28.7135 33.7096 28.4368 33.4736C27.9159 33.0423 27.1753 32.9527 26.5242 33.1155C25.8731 33.2783 25.2871 33.6445 24.75 34.0515C23.2362 35.199 21.9747 36.6803 21.0875 38.3568C19.3621 37.8685 17.4251 37.4127 15.5776 37.3151C13.8848 37.2255 11.4839 37.3965 9.88869 37.958C9.10738 36.7291 8.31793 35.5001 7.30873 34.4584C6.29953 33.4166 5.02175 32.5783 3.59748 32.3179C3.29635 32.2609 2.97894 32.2365 2.68595 32.3179C1.90463 32.5458 1.56281 33.4492 1.40817 34.2386C0.797768 37.25 1.18843 40.4485 2.49876 43.2238C2.6127 43.4679 2.74292 43.7284 2.74292 43.9969C2.74292 44.1516 2.70222 44.3062 2.66153 44.4608C2.1081 46.5444 2.0023 48.7499 0.740798 50.5649C0.203644 51.3462 0.944264 52.274 1.71744 52.331C1.67675 52.3391 1.64419 52.3554 1.6035 52.3635C1.10704 53.153 1.77441 54.0808 2.58014 54.1296C3.74398 54.2029 4.63109 55.3504 5.50194 56.0259C6.51113 56.8073 7.57731 57.1979 8.80625 57.4014C11.6955 57.8653 14.7231 58.3211 17.653 58.2315C20.2004 58.1583 22.8292 57.5479 24.8965 55.9364C25.6778 55.326 26.2475 54.5447 27.2323 54.2761C28.038 54.0564 28.6077 54.447 28.7786 53.1448C28.8112 52.9251 28.8193 52.7379 28.7786 52.5182C29.0798 52.3717 29.3239 52.0868 29.4053 51.7694C29.796 50.28 29.3972 50.3451 28.7216 49.1569C28.5182 48.7906 28.4856 48.3186 28.4042 47.9117C28.331 47.5617 27.3625 44.0702 27.2404 44.1841C29.7553 41.9948 30.6342 38.1452 29.4216 35.0606V35.0851Z" fill="#F7D58B"/>
<path d="M7.60114 37.9167C7.3407 37.1598 6.56753 36.11 6.29895 35.8577C5.84318 35.41 5.05373 35.1821 4.46774 34.9543C4.28869 34.881 4.09336 34.8159 3.90617 34.8485C3.15741 34.9787 2.97836 36.232 2.95395 36.8099C2.88884 38.7632 3.2388 40.4153 4.01198 42.2058C5.02117 41.4734 5.49322 40.1956 6.46172 39.4061C6.80355 39.1294 7.19421 38.9259 7.55231 38.6655C7.73136 38.5353 7.71509 38.2504 7.60114 37.9167Z" fill="white"/>
<path d="M26.6138 35.0196C24.7988 35.8172 23.4234 37.7542 22.5688 39.4715C22.4793 39.6587 24.8884 41.3759 25.1163 41.5631C25.5639 41.9375 25.9464 42.5723 26.4998 42.1654C27.094 41.7259 27.3218 40.1877 27.4439 39.504C27.6311 38.4379 27.5904 37.3473 27.4765 36.273C27.4358 35.8823 27.3788 35.4916 27.1916 35.1498C27.1428 35.0603 27.0777 34.9626 26.9719 34.9382C26.8905 34.9138 26.801 34.9464 26.7277 34.9789C26.687 34.9952 26.6545 35.0115 26.6138 35.0277V35.0196Z" fill="white"/>
<path d="M28.7295 49.1808C28.526 48.8145 28.4934 48.3425 28.412 47.9356C27.5738 48.3018 26.6785 48.5541 25.8321 48.725C23.0731 49.2866 18.8084 49.5063 17.4574 46.3078C16.3261 43.6221 16.8958 40.3991 17.3434 37.5506C15.6506 37.2739 13.9333 37.2576 12.2405 37.5018C12.33 38.8284 12.4846 40.155 12.5497 41.4897C12.623 42.914 12.6881 44.4522 12.1916 45.8114C11.7603 46.9915 11.0196 48.1228 9.94534 48.7576C9.63607 48.9366 9.31052 49.0587 8.98497 49.132C7.87811 49.4819 6.65731 49.4819 5.53416 49.3843C4.25639 49.2703 2.9542 49.0343 1.74153 48.5704C1.52179 49.2703 1.19624 49.9458 0.74861 50.5888C0.211456 51.3701 0.952077 52.2979 1.72525 52.3549C1.68456 52.363 1.65201 52.3793 1.61131 52.3874C1.11485 53.1769 1.78222 54.1047 2.58795 54.1535C3.75179 54.2268 4.63891 55.3743 5.50975 56.0498C6.51895 56.8312 7.58512 57.2218 8.81406 57.4253C11.7033 57.8892 14.7309 58.345 17.6608 58.2554C20.2082 58.1822 22.837 57.5718 24.9043 55.9603C25.6856 55.3499 26.2553 54.5686 27.2401 54.3C28.0458 54.0803 28.6155 54.4709 28.7864 53.1687C28.819 52.949 28.8271 52.7618 28.7864 52.5421C29.0876 52.3956 29.3317 52.1107 29.4131 51.7933C29.8038 50.3039 29.405 50.369 28.7295 49.1808Z" fill="white"/>
<path d="M5.62336 40.6506C7.25924 39.0961 9.49739 38.3148 11.6867 37.9811C14.1771 37.5986 16.7897 37.7939 19.1906 38.5671C20.566 39.0066 21.8601 39.6577 23.0158 40.5122C23.439 40.8215 23.8459 40.1216 23.4227 39.8123C19.2557 36.7277 13.0866 36.1255 8.30913 38.0462C7.11275 38.5264 5.9896 39.1856 5.04551 40.0809C4.663 40.439 5.24084 41.0168 5.62336 40.6587V40.6506Z" fill="#9E5F3C"/>
<path d="M3.11743 43.4031C2.18962 42.1253 1.84779 40.4406 1.57107 38.9186C1.2618 37.1688 1.49782 35.3132 2.04312 33.6366C2.20589 33.1402 1.41644 32.9204 1.2618 33.4169C0.683955 35.1911 0.456071 37.1363 0.765342 38.9837C1.03392 40.6196 1.42458 42.4508 2.4175 43.8181C2.71863 44.2413 3.4267 43.8344 3.11743 43.4112V43.4031Z" fill="#9E5F3C"/>
<path d="M3.38582 36.1672C3.42652 35.858 3.46721 35.5487 3.5486 35.2476C3.56487 35.1987 3.58115 35.1499 3.59743 35.1011C3.57301 35.1662 3.59743 35.1092 3.6137 35.0848C3.6544 35.0278 3.5486 35.1336 3.62998 35.0685C3.60557 35.0929 3.5486 35.1173 3.57301 35.1092C3.44279 35.1418 3.59743 35.1092 3.64626 35.1173C3.70323 35.1173 3.7602 35.1173 3.80903 35.1336C3.93925 35.1499 4.06133 35.1825 4.18341 35.2232C4.45199 35.3045 4.69615 35.4348 4.94031 35.5894C5.4205 35.8905 5.84371 36.2893 6.20995 36.7207C6.35645 36.8997 6.4948 37.0869 6.61689 37.2822C6.67386 37.3799 6.73083 37.4694 6.7878 37.5752C6.81221 37.6159 6.82849 37.6648 6.85291 37.7055C6.88546 37.7706 6.83663 37.6566 6.86918 37.7543C6.94243 37.9578 7.1459 38.0961 7.37378 38.0391C7.56911 37.9822 7.73189 37.7461 7.65864 37.5345C7.34123 36.6556 6.63316 35.8661 5.91696 35.2883C5.46933 34.9302 4.98101 34.629 4.43571 34.45C4.02064 34.3116 3.4021 34.1651 3.044 34.5069C2.88122 34.6616 2.80797 34.8895 2.751 35.1011C2.66148 35.451 2.62078 35.8091 2.58009 36.1672C2.54754 36.387 2.7917 36.5742 2.98703 36.5742C3.23119 36.5742 3.36141 36.387 3.39396 36.1672H3.38582Z" fill="#9E5F3C"/>
<path d="M4.2889 41.0912C3.532 41.9458 3.01927 42.9957 2.57164 44.0374C2.12401 45.0792 1.75777 46.1291 1.5543 47.2359C1.44036 47.8382 1.35897 48.4486 1.1555 49.0264C0.93576 49.6613 0.455575 50.0519 0.146305 50.6216C-0.081579 51.053 -0.0490242 51.5739 0.284662 51.9401C0.618349 52.3063 1.13109 52.4203 1.51361 52.7214L1.4078 52.3226C1.17178 52.9493 1.00087 53.6981 1.52175 54.2434C1.96937 54.7073 2.66116 54.7154 3.25529 54.6503C3.76803 54.5933 3.77617 53.7795 3.25529 53.8364C2.92974 53.869 2.50653 53.9341 2.21354 53.755C1.79032 53.4946 2.05076 52.9005 2.18912 52.5424C2.23795 52.4203 2.18912 52.225 2.08332 52.1436C1.74149 51.8831 1.302 51.7529 0.984591 51.4762C0.512547 51.0774 1.26131 50.5321 1.49733 50.174C2.08332 49.2706 2.18098 48.1637 2.39259 47.1383C2.60419 46.1128 2.93788 45.2094 3.32854 44.2979C3.71919 43.3863 4.1831 42.4178 4.85861 41.6609C5.20044 41.2703 4.63073 40.6924 4.28076 41.0831L4.2889 41.0912Z" fill="#9E5F3C"/>
<path d="M3.80078 55.0648C4.69604 56.2856 6.07962 56.9856 7.49575 57.4413C9.06652 57.9459 10.7187 58.1575 12.3627 58.2796C12.8836 58.3203 12.8836 57.5064 12.3627 57.4657C10.8733 57.3599 9.37579 57.1565 7.94338 56.7251C6.67374 56.3426 5.31458 55.7566 4.50071 54.6498C4.19144 54.2347 3.49151 54.6335 3.80078 55.0567V55.0648Z" fill="#9E5F3C"/>
<path d="M2.3516 32.8143C3.94678 32.7899 5.37919 33.6282 6.51861 34.6862C7.49525 35.5896 8.3254 36.6639 8.96836 37.8359C9.22066 38.2998 9.92059 37.8847 9.66829 37.4289C8.23588 34.8001 5.57452 31.9597 2.3516 32.0004C1.83072 32.0004 1.83072 32.8224 2.3516 32.8143Z" fill="#9E5F3C"/>
<path d="M28.2003 44.0209C30.2431 41.2456 30.7884 37.5507 29.5839 34.3196C29.4048 33.8313 28.6154 34.0429 28.8026 34.5393C29.942 37.5913 29.4211 40.9933 27.5004 43.614C27.1911 44.0372 27.8992 44.4441 28.2003 44.0209Z" fill="#9E5F3C"/>
<path d="M26.0759 34.8396C24.3912 35.8325 23.089 37.4684 22.2345 39.2019C22.0066 39.674 22.7065 40.0809 22.9344 39.6089C23.732 37.9893 24.9121 36.4592 26.4829 35.5395C26.9305 35.2709 26.5236 34.571 26.0759 34.8396Z" fill="#9E5F3C"/>
<path d="M27.248 54.5439C28.835 54.7311 29.7628 52.908 28.9083 51.6384L28.5583 52.2488C29.6652 52.1756 30.243 51.0036 29.7466 50.0269C29.6163 49.7746 29.4129 49.5793 29.2338 49.3677C28.9815 49.0666 28.9246 48.7329 28.8757 48.3585C28.8106 47.919 28.7455 47.4877 28.6478 47.0563C28.1758 44.867 27.2073 42.7591 25.5144 41.2453C25.1238 40.8953 24.5459 41.4732 24.9366 41.8231C26.3609 43.1009 27.2317 44.8182 27.7119 46.6575C27.9072 47.4144 27.9886 48.1713 28.1351 48.9364C28.2246 49.4003 28.4525 49.7177 28.7536 50.0676C29.0955 50.4583 29.3722 51.3942 28.5502 51.4512C28.2653 51.4675 28.013 51.793 28.2002 52.0616C28.7292 52.8511 28.2165 53.8521 27.2398 53.7382C26.719 53.6812 26.7271 54.4951 27.2398 54.5521L27.248 54.5439Z" fill="#9E5F3C"/>
<path d="M25.9049 54.4126C25.026 55.8695 23.3657 56.488 21.8112 56.9356C20.3381 57.3588 18.7103 57.7251 17.164 57.5298C16.6431 57.4646 16.6512 58.2785 17.164 58.3436C18.8487 58.5552 20.6718 58.132 22.2832 57.6437C23.9679 57.131 25.6608 56.3903 26.613 54.8196C26.8816 54.3719 26.1817 53.9569 25.9131 54.4126H25.9049Z" fill="#9E5F3C"/>
<path d="M27.4682 32.5033C25.694 32.7637 24.1313 33.7973 22.9187 35.0751C22.0315 36.0029 21.2014 37.1179 20.7375 38.3306C20.5503 38.8189 21.3397 39.0305 21.5188 38.5503C21.5676 38.412 21.6653 38.2085 21.7711 38.0132C21.9013 37.7772 22.0397 37.5411 22.1862 37.3133C22.5687 36.7191 23.0082 36.1657 23.4884 35.653C24.6196 34.4647 26.0276 33.5288 27.6798 33.2846C27.8995 33.252 28.0135 32.9753 27.9647 32.78C27.8995 32.544 27.6798 32.4626 27.46 32.4951L27.4682 32.5033Z" fill="#9E5F3C"/>
<path d="M28.3954 32.9036C28.3791 32.9769 28.3628 33.042 28.3303 33.1071L28.371 33.0094C28.3384 33.0908 28.2896 33.1641 28.2326 33.2373L28.2977 33.1559C28.2489 33.221 28.1838 33.2861 28.1187 33.335L28.2001 33.2699C28.2001 33.2699 28.1919 33.2699 28.1838 33.278C28.1349 33.3024 28.0942 33.335 28.0698 33.3838C28.0373 33.4245 28.0129 33.4652 27.9966 33.5222C27.9803 33.5791 27.9803 33.628 27.9966 33.6849C27.9966 33.7419 28.0129 33.7907 28.0454 33.8396C28.1024 33.9291 28.1838 34.0024 28.2896 34.0268L28.3954 34.043C28.4686 34.043 28.5337 34.0268 28.5988 33.9861C28.6802 33.9291 28.7535 33.8721 28.8186 33.7989C28.8837 33.7256 28.9407 33.6524 28.9976 33.571C29.0546 33.4896 29.0872 33.4001 29.1197 33.3106C29.1441 33.2455 29.1604 33.1803 29.1767 33.1152C29.2011 33.0094 29.193 32.9036 29.136 32.7978C29.0872 32.7164 28.9895 32.6351 28.8918 32.6106C28.786 32.5862 28.6721 32.5944 28.5744 32.6513C28.493 32.7083 28.4117 32.7897 28.3872 32.8955L28.3954 32.9036Z" fill="#9E5F3C"/>
<path d="M9.26214 48.286C9.87344 48.286 10.369 47.7904 10.369 47.1791C10.369 46.5678 9.87344 46.0723 9.26214 46.0723C8.65084 46.0723 8.15527 46.5678 8.15527 47.1791C8.15527 47.7904 8.65084 48.286 9.26214 48.286Z" fill="#231F20"/>
<path d="M20.7621 48.286C21.3734 48.286 21.869 47.7904 21.869 47.1791C21.869 46.5678 21.3734 46.0723 20.7621 46.0723C20.1508 46.0723 19.6553 46.5678 19.6553 47.1791C19.6553 47.7904 20.1508 48.286 20.7621 48.286Z" fill="#231F20"/>
<path d="M15.0086 49.9052C16.1908 49.9052 17.1491 49.3112 17.1491 48.5786C17.1491 47.8459 16.1908 47.252 15.0086 47.252C13.8265 47.252 12.8682 47.8459 12.8682 48.5786C12.8682 49.3112 13.8265 49.9052 15.0086 49.9052Z" fill="#231F20"/>
<path d="M26.1252 61.6094C26.1007 62.3012 26.06 63.0581 25.9949 63.8882C25.7264 67.3065 24.9857 68.4296 23.3254 68.4296C21.6651 68.4296 20.3874 66.9891 20.3874 63.5545C20.3874 63.0499 20.3874 62.4965 20.3711 61.9186" fill="#F7D58B"/>
<path d="M23.8548 65.7116C22.7723 65.7035 21.6899 65.679 20.6074 65.7116C21.0388 67.5916 22.0724 68.4218 23.3257 68.4218C24.6605 68.4218 25.393 67.6974 25.7755 65.6465C25.1325 65.6872 24.4896 65.7197 23.8548 65.7116Z" fill="white"/>
<path d="M26.1252 61.6094C26.1007 62.3012 26.06 63.0581 25.9949 63.8882C25.7264 67.3065 24.9857 68.4296 23.3254 68.4296C21.6651 68.4296 20.3874 66.9891 20.3874 63.5545C20.3874 63.0499 20.3874 62.4965 20.3711 61.9186" stroke="#9E5F3C" stroke-width="0.81387" stroke-linecap="round" stroke-linejoin="round"/>
<path d="M94.173 61.6094C94.1486 62.3012 94.1079 63.0581 94.0428 63.8882C93.7742 67.3065 93.0336 68.4296 91.3733 68.4296C89.713 68.4296 88.4352 66.9891 88.4352 63.5545C88.4352 63.0499 88.4352 62.4965 88.4189 61.9186" fill="#F7D58B"/>
<path d="M91.8938 65.7116C90.8114 65.7035 89.7289 65.679 88.6465 65.7116C89.0778 67.5916 90.1115 68.4218 91.3648 68.4218C92.6996 68.4218 93.432 67.6974 93.8146 65.6465C93.1716 65.6872 92.5286 65.7197 91.8938 65.7116Z" fill="white"/>
<path d="M94.173 61.6094C94.1486 62.3012 94.1079 63.0581 94.0428 63.8882C93.7742 67.3065 93.0336 68.4296 91.3733 68.4296C89.713 68.4296 88.4352 66.9891 88.4352 63.5545C88.4352 63.0499 88.4352 62.4965 88.4189 61.9186" stroke="#9E5F3C" stroke-width="0.81387" stroke-miterlimit="10" stroke-linecap="round"/>
</g>
<defs>
<clipPath id="clip0_3759_4986">
<rect width="100" height="100" fill="white"/>
</clipPath>
</defs>
</svg>
