<svg width="100" height="100" viewBox="0 0 100 100" fill="none" xmlns="http://www.w3.org/2000/svg">
<g clip-path="url(#clip0_3759_4982)">
<path d="M89.2124 39.7438H17.0087C16.9451 39.7438 16.8894 39.7518 16.8258 39.7518C16.8258 39.72 16.8258 39.6802 16.8258 39.6484C16.8258 36.5298 14.2959 34 11.1774 34C8.05887 34 5.52904 36.5298 5.52904 39.6484C5.52904 41.6452 6.5712 43.3954 8.13047 44.3978C8.035 44.533 7.94749 44.6762 7.85998 44.8194C7.18377 44.533 6.43596 44.3739 5.64837 44.3739C2.52983 44.3739 0 46.9037 0 50.0223C0 53.1408 2.52983 55.6706 5.64837 55.6706C6.25298 55.6706 6.83373 55.5752 7.38266 55.4002C7.45426 55.5434 7.52586 55.6786 7.59746 55.8138C6.33254 56.848 5.52108 58.4232 5.52108 60.1893C5.52108 63.3079 8.05091 65.8377 11.1694 65.8377C13.9061 65.8377 16.1893 63.8886 16.7064 61.3111C16.8019 61.3111 16.8974 61.327 17.0008 61.327H89.2045C95.1631 61.327 100 56.498 100 50.5314C100 44.5648 95.171 39.7359 89.2045 39.7359L89.2124 39.7438Z" fill="white" stroke="#A4968C" stroke-width="0.795545" stroke-linecap="round" stroke-linejoin="round"/>
<path d="M5.83133 52.9088C7.43063 52.9088 8.72711 51.6123 8.72711 50.013C8.72711 48.4137 7.43063 47.1172 5.83133 47.1172C4.23203 47.1172 2.93555 48.4137 2.93555 50.013C2.93555 51.6123 4.23203 52.9088 5.83133 52.9088Z" fill="#F6A2A4"/>
<path d="M11.2327 42.8775C12.832 42.8775 14.1285 41.581 14.1285 39.9817C14.1285 38.3824 12.832 37.0859 11.2327 37.0859C9.6334 37.0859 8.33691 38.3824 8.33691 39.9817C8.33691 41.581 9.6334 42.8775 11.2327 42.8775Z" fill="#F6A2A4"/>
<path d="M11.0423 62.9498C12.6416 62.9498 13.9381 61.6533 13.9381 60.054C13.9381 58.4547 12.6416 57.1582 11.0423 57.1582C9.44297 57.1582 8.14648 58.4547 8.14648 60.054C8.14648 61.6533 9.44297 62.9498 11.0423 62.9498Z" fill="#F6A2A4"/>
<path d="M16.7306 55.4163C19.7666 55.4163 22.2278 52.9551 22.2278 49.9191C22.2278 46.8831 19.7666 44.4219 16.7306 44.4219C13.6946 44.4219 11.2334 46.8831 11.2334 49.9191C11.2334 52.9551 13.6946 55.4163 16.7306 55.4163Z" fill="#F6A2A4"/>
</g>
<defs>
<clipPath id="clip0_3759_4982">
<rect width="100" height="100" fill="white"/>
</clipPath>
</defs>
</svg>
