<svg width="100" height="100" viewBox="0 0 100 100" fill="none" xmlns="http://www.w3.org/2000/svg">
<mask id="mask0_3759_4991" style="mask-type:luminance" maskUnits="userSpaceOnUse" x="0" y="39" width="100" height="23">
<path d="M95.5256 56.9635L100 54.0107L96.1671 49.9311L100 46.5588L95.6819 43.3264L98.4948 39H0C1.97401 41.3277 4.27702 44.0255 4.27702 44.0255L0.123376 47.6774L4.44152 50.77L0.123376 54.2821L5.07485 57.2349L0.518177 61.3063H99.819L95.5256 56.9553V56.9635Z" fill="white"/>
</mask>
<g mask="url(#mask0_3759_4991)">
<path d="M95.5256 56.9635L100 54.0107L96.1671 49.9311L100 46.5588L95.6819 43.3264L98.4948 39H0C1.97401 41.3277 4.27702 44.0255 4.27702 44.0255L0.123376 47.6774L4.44152 50.77L0.123376 54.2821L5.07485 57.2349L0.518177 61.3063H99.819L95.5256 56.9553V56.9635Z" fill="#A8EABD"/>
<path d="M8.10174 48.2219C8.34849 48.2466 8.59524 48.1232 8.71039 47.8847C8.85844 47.5886 8.72684 47.2267 8.43074 47.0786C8.13464 46.9306 7.77274 47.0622 7.63291 47.3583L5.97968 46.5604C6.11951 46.2643 5.99613 45.9024 5.70003 45.7626C5.40393 45.6228 5.04203 45.7462 4.89398 46.0423C4.81172 46.215 4.81995 46.4124 4.89398 46.5769C4.91865 46.6262 4.94332 46.6756 4.98445 46.7167H4.9351C4.71302 46.7167 4.49917 46.8401 4.40047 47.0539C4.25242 47.35 4.38402 47.7119 4.68012 47.86C4.97623 48.008 5.33813 47.8764 5.47795 47.5803L7.13118 48.3782C6.99136 48.6743 7.11473 49.0362 7.41084 49.176C7.70694 49.3158 8.06884 49.1925 8.21689 48.8964C8.33204 48.6578 8.27447 48.3864 8.10174 48.2137V48.2219Z" fill="#7AD6B4"/>
<path d="M27.0358 57.2682C27.2825 57.2929 27.5293 57.1613 27.6362 56.9227C27.776 56.6266 27.6362 56.2565 27.3319 56.1249C27.0276 55.9933 26.6821 56.1249 26.5423 56.421L24.8726 55.6643C25.0042 55.36 24.8726 55.0145 24.5765 54.8747C24.2804 54.7349 23.9103 54.8747 23.7787 55.179C23.6964 55.36 23.7129 55.5574 23.8033 55.7137C23.828 55.763 23.8609 55.8124 23.8938 55.8535C23.8774 55.8535 23.8609 55.8535 23.8445 55.8535C23.6224 55.8617 23.4168 55.9933 23.3181 56.1989C23.1782 56.495 23.3181 56.8652 23.6224 56.9968C23.9267 57.1284 24.2722 56.9968 24.412 56.7007L26.0817 57.4574C25.9501 57.7617 26.0817 58.1071 26.3778 58.247C26.6739 58.3868 27.044 58.247 27.1756 57.9426C27.2825 57.7041 27.225 57.4327 27.044 57.26L27.0358 57.2682Z" fill="white"/>
<path d="M82.2915 44.3226C82.0448 44.2979 81.798 44.4378 81.6911 44.6763C81.5513 44.9806 81.6911 45.3343 81.9954 45.4741C82.2998 45.6139 82.6534 45.4741 82.785 45.178L84.4629 45.9265C84.3313 46.2308 84.4629 46.5845 84.7673 46.7161C85.0716 46.8477 85.4253 46.7161 85.5651 46.4118C85.6474 46.2308 85.6309 46.0334 85.5404 45.8771C85.5158 45.8278 85.4829 45.7784 85.4499 45.7373H85.4993C85.7214 45.7373 85.927 45.5975 86.0257 45.3836C86.1655 45.0793 86.0257 44.7256 85.7214 44.5858C85.417 44.446 85.0634 44.5858 84.9318 44.8819L83.2539 44.1334C83.3855 43.8291 83.2539 43.4754 82.9495 43.3438C82.6452 43.2122 82.2915 43.3438 82.1517 43.6482C82.0448 43.8867 82.1106 44.1581 82.2833 44.3308H82.2915V44.3226Z" fill="white"/>
<path d="M47.9438 44.3234C48.1083 44.5126 48.3715 44.5866 48.6182 44.4961C48.9308 44.3727 49.0788 44.0273 48.9637 43.7147C48.8485 43.4022 48.4948 43.2541 48.1905 43.3693L47.5243 41.6585C47.8286 41.5351 47.9849 41.1896 47.8615 40.8853C47.7381 40.581 47.3927 40.4247 47.0801 40.5399C46.8992 40.6139 46.7676 40.7619 46.7182 40.9347C46.7018 40.984 46.6853 41.0416 46.6853 41.0992C46.6771 41.0909 46.6607 41.0745 46.6442 41.0663C46.4797 40.9182 46.2412 40.8606 46.0191 40.9511C45.7066 41.0745 45.5585 41.4199 45.6737 41.7325C45.7888 42.045 46.1425 42.1931 46.4468 42.0779L47.113 43.7888C46.8087 43.9121 46.6524 44.2576 46.7758 44.5619C46.8992 44.8662 47.2446 45.0225 47.5572 44.9074C47.8039 44.8087 47.952 44.5784 47.9438 44.3234Z" fill="white"/>
<path d="M69.2468 59.3245C69.4688 59.4396 69.7403 59.415 69.9377 59.234C70.1844 59.0119 70.1926 58.6254 69.9706 58.3868C69.7485 58.1483 69.3701 58.1319 69.1234 58.3457L67.8732 56.9968C68.1117 56.7747 68.1282 56.3964 67.9061 56.1496C67.684 55.9029 67.2974 55.8947 67.0589 56.1167C66.9108 56.2483 66.8533 56.4375 66.8697 56.6185C66.8697 56.676 66.8779 56.7336 66.8944 56.783C66.8779 56.783 66.8615 56.783 66.845 56.7665C66.6394 56.6843 66.3927 56.7254 66.2199 56.8817C65.9732 57.1037 65.965 57.4903 66.187 57.7288C66.4091 57.9674 66.7875 57.9838 67.0342 57.77L68.2844 59.1189C68.0459 59.3409 68.0295 59.7193 68.2515 59.966C68.4736 60.2128 68.8602 60.221 69.0987 59.9989C69.2879 59.818 69.3372 59.5466 69.2385 59.3163H69.2468V59.3245Z" fill="white"/>
<path d="M17.4947 43.0143C17.4947 42.7676 17.322 42.5373 17.0752 42.4633C16.7627 42.3646 16.4172 42.5373 16.3185 42.8581C16.2198 43.1788 16.3926 43.5078 16.7051 43.6148L16.1458 45.3667C15.8333 45.268 15.496 45.4489 15.3973 45.7615C15.2986 46.074 15.4714 46.4195 15.7921 46.5182C15.9813 46.5758 16.1705 46.5429 16.3185 46.4359C16.3679 46.403 16.409 46.3701 16.4501 46.329C16.4501 46.3455 16.4501 46.3619 16.4501 46.3784C16.483 46.6005 16.6393 46.7896 16.8614 46.8637C17.1739 46.9624 17.5194 46.7896 17.6181 46.4688C17.7168 46.1481 17.5441 45.8191 17.2315 45.7121L17.7908 43.9602C18.1034 44.0589 18.4406 43.878 18.5393 43.5654C18.638 43.2529 18.4653 42.9074 18.1445 42.8087C17.8978 42.7265 17.6345 42.8252 17.4865 43.0226L17.4947 43.0143Z" fill="white"/>
<path d="M48.1412 56.7253C48.1412 56.4785 47.9685 56.2482 47.7217 56.1742C47.4092 56.0755 47.0637 56.2482 46.965 56.569C46.8663 56.8898 47.0391 57.2188 47.3516 57.3257L46.7923 59.0776C46.4798 58.9789 46.1425 59.1599 46.0438 59.4724C45.9451 59.785 46.1179 60.1304 46.4386 60.2291C46.6278 60.2867 46.817 60.2538 46.965 60.1469C47.0144 60.114 47.0555 60.0811 47.0966 60.04C47.0966 60.0564 47.0966 60.0729 47.1049 60.0893C47.1378 60.3114 47.294 60.5006 47.5161 60.5746C47.8287 60.6733 48.1741 60.5006 48.2728 60.1798C48.3715 59.859 48.1988 59.53 47.8862 59.4231L48.4455 57.6712C48.7581 57.7699 49.0953 57.5889 49.194 57.2763C49.2927 56.9638 49.12 56.6183 48.7992 56.5196C48.5525 56.4374 48.2893 56.5361 48.1412 56.7335V56.7253Z" fill="white"/>
<path d="M91.1744 56.6432C91.1744 56.3965 91.0017 56.1662 90.7549 56.0922C90.4424 55.9935 90.0969 56.1662 89.9982 56.487C89.8995 56.8077 90.0723 57.1367 90.3848 57.2437L89.8255 58.9956C89.513 58.8969 89.1757 59.0779 89.077 59.3904C88.9783 59.703 89.1511 60.0484 89.4718 60.1471C89.661 60.2047 89.8502 60.1718 89.9982 60.0649C90.0476 60.032 90.0887 59.9991 90.1298 59.9579C90.1298 59.9744 90.1298 59.9908 90.1298 60.0073C90.1627 60.2294 90.319 60.4185 90.5411 60.4926C90.8536 60.5913 91.1991 60.4185 91.2978 60.0978C91.3965 59.777 91.2238 59.448 90.9112 59.3411L91.4705 57.5891C91.7831 57.6878 92.1203 57.5069 92.219 57.1943C92.3177 56.8818 92.145 56.5363 91.8242 56.4376C91.5774 56.3554 91.3142 56.4541 91.1662 56.6515L91.1744 56.6432Z" fill="white"/>
<path d="M30.9506 44.9302C31.1974 44.9878 31.4606 44.8891 31.5922 44.667C31.7732 44.3874 31.6909 44.0173 31.4113 43.8363C31.1316 43.6554 30.7697 43.7376 30.5887 44.0173L29.0342 43.0303C29.2152 42.7506 29.1247 42.3805 28.845 42.2078C28.5654 42.035 28.1953 42.1091 28.0143 42.3887C27.9074 42.5532 27.8992 42.7506 27.9567 42.9233C27.9732 42.9809 27.9979 43.0303 28.0225 43.0714C28.0061 43.0714 27.9896 43.0714 27.9732 43.0714C27.7593 43.0467 27.529 43.1454 27.3974 43.3428C27.2165 43.6225 27.2987 43.9926 27.5784 44.1735C27.858 44.3545 28.2199 44.2722 28.4009 43.9926L29.9554 44.9796C29.7745 45.2592 29.8649 45.6294 30.1446 45.8021C30.4242 45.9748 30.7944 45.9008 30.9753 45.6212C31.1151 45.3991 31.0987 45.1194 30.9342 44.9302H30.9506Z" fill="#7AD6B4"/>
<path d="M12.5265 57.5648C12.691 57.3756 12.7239 57.096 12.5923 56.8739C12.4278 56.586 12.0576 56.4873 11.7698 56.6518C11.4819 56.8163 11.3832 57.1782 11.5477 57.4661L9.95202 58.3873C9.78752 58.0994 9.41739 58.0089 9.13774 58.1734C8.85809 58.3379 8.75117 58.7081 8.91567 58.9959C9.01437 59.1687 9.17887 59.2674 9.35982 59.292C9.41739 59.292 9.47497 59.3085 9.52432 59.292C9.52432 59.3085 9.50787 59.3167 9.49964 59.3332C9.37627 59.5141 9.35982 59.7609 9.47497 59.9665C9.63947 60.2544 10.0096 60.3531 10.2975 60.1886C10.5853 60.0241 10.684 59.6622 10.5195 59.3743L12.1152 58.4531C12.2797 58.741 12.6498 58.8314 12.9295 58.6669C13.2091 58.5024 13.3161 58.1323 13.1516 57.8444C13.02 57.6141 12.765 57.5072 12.5182 57.5566L12.5265 57.5648Z" fill="#7AD6B4"/>
<path d="M57.3861 50.3853C57.2874 50.155 57.0571 49.9987 56.7939 50.0151C56.4649 50.0398 56.2099 50.3195 56.2346 50.6567C56.2592 50.9939 56.5389 51.2407 56.8679 51.216L56.983 53.0502C56.654 53.0748 56.4073 53.3545 56.4237 53.6835C56.4402 54.0125 56.7281 54.2675 57.0653 54.2428C57.2627 54.2428 57.4272 54.1276 57.5259 53.9714C57.5588 53.9302 57.5835 53.8809 57.6081 53.8233C57.6081 53.8398 57.6246 53.848 57.6328 53.8644C57.7397 54.0536 57.9536 54.1852 58.1921 54.1688C58.5211 54.1441 58.7761 53.8644 58.7514 53.5272C58.7267 53.19 58.4471 52.9432 58.1181 52.9679L58.0029 51.1337C58.3319 51.1091 58.5787 50.8294 58.5622 50.5004C58.5458 50.1714 58.2579 49.9164 57.9207 49.9411C57.6575 49.9576 57.4436 50.1385 57.3778 50.377H57.3861V50.3853Z" fill="#7AD6B4"/>
<path d="M37.531 54.1177C37.383 54.3233 37.3912 54.603 37.5392 54.8168C37.7366 55.08 38.115 55.1458 38.3782 54.9484C38.6414 54.751 38.699 54.3809 38.5098 54.1177L39.9985 53.0238C40.1959 53.287 40.566 53.3446 40.8292 53.1472C41.0924 52.9498 41.1582 52.5714 40.9608 52.3082C40.8457 52.1519 40.6647 52.0697 40.4838 52.0615C40.4344 52.0615 40.3686 52.0615 40.3193 52.0615L40.3357 52.0203C40.4427 51.8229 40.4344 51.5762 40.2864 51.387C40.089 51.1238 39.7106 51.058 39.4474 51.2554C39.1842 51.4528 39.1267 51.8229 39.3158 52.0861L37.8271 53.1801C37.6297 52.9169 37.2596 52.8593 36.9964 53.0567C36.7332 53.2541 36.6674 53.6324 36.8648 53.8956C37.0211 54.1095 37.2843 54.1917 37.5228 54.1095L37.531 54.1177Z" fill="#7AD6B4"/>
<path d="M77.455 54.4951C77.307 54.6925 77.2905 54.9721 77.4304 55.186C77.6113 55.4656 77.9897 55.5396 78.2611 55.3587C78.5325 55.1777 78.6148 54.8076 78.4338 54.528L79.9719 53.5163C80.1528 53.7877 80.523 53.8617 80.8026 53.6808C81.0823 53.4998 81.1563 53.1215 80.9753 52.8501C80.8684 52.6856 80.6957 52.5951 80.5148 52.5786H80.3502C80.3502 52.5786 80.3667 52.5457 80.3749 52.5375C80.4901 52.3483 80.4901 52.1016 80.3585 51.9042C80.1775 51.6245 79.7992 51.5505 79.5277 51.7315C79.2563 51.9124 79.1741 52.2825 79.355 52.5622L77.8169 53.5739C77.636 53.3024 77.2659 53.2284 76.9862 53.4094C76.7066 53.5903 76.6325 53.9687 76.8135 54.2401C76.9615 54.4622 77.2165 54.5526 77.4633 54.4951H77.455Z" fill="#7AD6B4"/>
<path d="M64.5664 43.4912C64.4183 43.6886 64.4019 43.9682 64.5417 44.1821C64.7226 44.4617 65.101 44.5357 65.3724 44.3548C65.6438 44.1738 65.7261 43.8037 65.5451 43.5241L67.0832 42.5124C67.2642 42.7838 67.6343 42.8578 67.914 42.6769C68.1936 42.4959 68.2676 42.1176 68.0867 41.8462C67.9798 41.6817 67.807 41.5912 67.6261 41.5747H67.4616C67.4616 41.5747 67.478 41.5418 67.4863 41.5336C67.6014 41.3444 67.6014 41.0977 67.4698 40.9003C67.2889 40.6206 66.9105 40.5466 66.6391 40.7275C66.3677 40.9085 66.2854 41.2786 66.4664 41.5583L64.9283 42.57C64.7473 42.2985 64.3772 42.2245 64.0975 42.4055C63.8179 42.5864 63.7439 42.9648 63.9248 43.2362C64.0729 43.4583 64.3278 43.5487 64.5746 43.4912H64.5664Z" fill="#7AD6B4"/>
<path d="M96.4795 46.4685C96.2409 46.5425 96.0682 46.7564 96.0518 47.0196C96.0518 47.3486 96.3067 47.6282 96.6275 47.6365C96.9483 47.6447 97.2279 47.3897 97.2444 47.0607L99.0786 47.1265C99.0786 47.4555 99.3335 47.7352 99.6625 47.7434C99.9915 47.7516 100.271 47.4884 100.279 47.1676C100.279 46.9702 100.197 46.7975 100.049 46.6824C100.008 46.6412 99.9669 46.6083 99.9093 46.5837C99.9258 46.5754 99.934 46.559 99.9504 46.559C100.156 46.4685 100.296 46.2629 100.312 46.0326C100.312 45.7036 100.057 45.4239 99.7366 45.4157C99.4158 45.4075 99.1361 45.6625 99.1197 45.9915L97.2855 45.9257C97.2855 45.5967 97.0305 45.317 96.7015 45.3088C96.3725 45.3006 96.0929 45.5638 96.0847 45.8845C96.0682 46.1477 96.2327 46.3698 96.4712 46.4685H96.4795Z" fill="#7AD6B4"/>
</g>
</svg>
