<svg width="100" height="100" viewBox="0 0 100 100" fill="none" xmlns="http://www.w3.org/2000/svg">
<path d="M95.5256 56.9635L100 54.0107L96.1671 49.9311L100 46.5588L95.6819 43.3264L98.4948 39H0C1.97401 41.3277 4.27702 44.0255 4.27702 44.0255L0.123375 47.6774L4.44152 50.77L0.123375 54.2821L5.07485 57.2349L0.518177 61.3063H99.819L95.5256 56.9553V56.9635Z" fill="#ABDAE6"/>
<path d="M76.9698 52.2014C76.9698 51.5105 76.4105 50.9429 75.7195 50.9429C75.3905 50.9429 75.0862 51.0745 74.8641 51.2802C74.7161 50.7538 74.239 50.3672 73.6633 50.3672C73.0217 50.3672 72.5036 50.8442 72.4213 51.4693C72.2075 51.2966 71.936 51.1897 71.6482 51.1897C70.9572 51.1897 70.3979 51.749 70.3979 52.4399C70.3979 53.0814 70.875 53.5996 71.4919 53.6819C71.4754 53.7641 71.4672 53.8382 71.4672 53.9204C71.4672 54.6113 72.0265 55.1788 72.7174 55.1788C73.178 55.1788 73.581 54.9239 73.7949 54.5537C74.017 54.9074 74.4035 55.1377 74.8559 55.1377C75.5468 55.1377 76.1061 54.5784 76.1061 53.8875C76.1061 53.723 76.0732 53.5585 76.0157 53.4187C76.5667 53.2871 76.9698 52.7936 76.9698 52.2014Z" fill="white"/>
<path d="M95.2705 50.5314C95.2705 49.8405 94.7112 49.273 94.0203 49.273C93.6913 49.273 93.387 49.4046 93.1649 49.6102C93.0169 49.0838 92.5398 48.6973 91.9641 48.6973C91.3225 48.6973 90.8043 49.1743 90.7221 49.7994C90.5082 49.6267 90.2368 49.5198 89.9489 49.5198C89.258 49.5198 88.6987 50.0791 88.6987 50.77C88.6987 51.4115 89.1758 51.9297 89.7927 52.012C89.7762 52.0942 89.768 52.1682 89.768 52.2505C89.768 52.9414 90.3273 53.5089 91.0182 53.5089C91.4788 53.5089 91.8818 53.2539 92.0957 52.8838C92.3178 53.2375 92.7043 53.4678 93.1567 53.4678C93.8476 53.4678 94.4069 52.9085 94.4069 52.2176C94.4069 52.0531 94.374 51.8886 94.3164 51.7488C94.8675 51.6172 95.2705 51.1237 95.2705 50.5314Z" fill="white"/>
<path d="M33.1878 47.8927C33.1878 47.4321 32.8177 47.0619 32.3571 47.0619C32.135 47.0619 31.9376 47.1524 31.7895 47.2922C31.6908 46.9386 31.3701 46.6836 30.9917 46.6836C30.564 46.6836 30.2186 47.0044 30.1692 47.4156C30.0294 47.3005 29.8484 47.2347 29.651 47.2347C29.1904 47.2347 28.8203 47.6048 28.8203 48.0654C28.8203 48.4931 29.1411 48.8386 29.5441 48.8879C29.5359 48.9373 29.5277 48.9948 29.5277 49.0524C29.5277 49.513 29.8978 49.8831 30.3584 49.8831C30.6627 49.8831 30.9341 49.7104 31.074 49.4637C31.222 49.694 31.477 49.8502 31.7813 49.8502C32.2419 49.8502 32.6121 49.4801 32.6121 49.0195C32.6121 48.9126 32.5874 48.8057 32.5463 48.707C32.9082 48.6165 33.1796 48.2875 33.1796 47.9009H33.1878V47.8927Z" fill="white"/>
<path d="M38.6165 57.3321C38.6165 56.8715 38.2464 56.5014 37.7858 56.5014C37.5637 56.5014 37.3663 56.5919 37.2183 56.7317C37.1196 56.378 36.7988 56.123 36.4204 56.123C35.9927 56.123 35.6473 56.4438 35.5979 56.8551C35.4581 56.7399 35.2772 56.6741 35.0798 56.6741C34.6191 56.6741 34.249 57.0443 34.249 57.5049C34.249 57.9326 34.5698 58.278 34.9728 58.3274C34.9728 58.3767 34.9564 58.4343 34.9564 58.4919C34.9564 58.9525 35.3265 59.3226 35.7871 59.3226C36.0914 59.3226 36.3629 59.1499 36.5027 58.9031C36.6507 59.1334 36.9057 59.2897 37.21 59.2897C37.6706 59.2897 38.0408 58.9196 38.0408 58.459C38.0408 58.352 38.0161 58.2451 37.975 58.1464C38.3369 58.0559 38.6083 57.7269 38.6083 57.3404H38.6165V57.3321Z" fill="white"/>
<path d="M50.9705 46.1974C50.9705 45.7368 50.6004 45.3666 50.1398 45.3666C49.9177 45.3666 49.7203 45.4571 49.5723 45.5969C49.4736 45.2433 49.1528 44.9883 48.7744 44.9883C48.3467 44.9883 48.0013 45.3091 47.9519 45.7203C47.8121 45.6052 47.6312 45.5394 47.4338 45.5394C46.9732 45.5394 46.603 45.9095 46.603 46.3701C46.603 46.7978 46.9238 47.1432 47.3268 47.1926C47.3268 47.2419 47.3104 47.2995 47.3104 47.3571C47.3104 47.8177 47.6805 48.1878 48.1411 48.1878C48.4454 48.1878 48.7169 48.0151 48.8567 47.7683C49.0047 47.9986 49.2597 48.1549 49.564 48.1549C50.0246 48.1549 50.3948 47.7848 50.3948 47.3242C50.3948 47.2173 50.3701 47.1103 50.329 47.0116C50.6909 46.9212 50.9623 46.5922 50.9623 46.2056H50.9705V46.1974Z" fill="white"/>
<path d="M10.2811 52.1915C10.2811 51.7309 9.91094 51.3608 9.45034 51.3608C9.22826 51.3608 9.03086 51.4512 8.88281 51.5911C8.78411 51.2374 8.46334 50.9824 8.08498 50.9824C7.65728 50.9824 7.31183 51.3032 7.26248 51.7144C7.12266 51.5993 6.9417 51.5335 6.7443 51.5335C6.2837 51.5335 5.91357 51.9036 5.91357 52.3642C5.91357 52.7919 6.23435 53.1374 6.63738 53.1867C6.63738 53.2361 6.62093 53.2937 6.62093 53.3512C6.62093 53.8118 6.99105 54.182 7.45166 54.182C7.75598 54.182 8.02741 54.0092 8.16724 53.7625C8.31529 53.9928 8.57026 54.1491 8.87459 54.1491C9.33519 54.1491 9.70532 53.7789 9.70532 53.3183C9.70532 53.2114 9.68064 53.1045 9.63952 53.0058C10.0014 52.9153 10.2728 52.5863 10.2728 52.1997H10.2811V52.1915Z" fill="white"/>
<path d="M67.9798 43.047C67.9798 42.5864 67.6097 42.2162 67.1491 42.2162C66.927 42.2162 66.7296 42.3067 66.5815 42.4465C66.4828 42.0929 66.1621 41.8379 65.7837 41.8379C65.356 41.8379 65.0106 42.1587 64.9612 42.5699C64.8214 42.4548 64.6404 42.389 64.443 42.389C63.9824 42.389 63.6123 42.7591 63.6123 43.2197C63.6123 43.6474 63.9331 43.9929 64.3361 44.0422C64.3361 44.0916 64.3197 44.1491 64.3197 44.2067C64.3197 44.6673 64.6898 45.0374 65.1504 45.0374C65.4547 45.0374 65.7261 44.8647 65.866 44.618C66.014 44.8483 66.269 45.0045 66.5733 45.0045C67.0339 45.0045 67.404 44.6344 67.404 44.1738C67.404 44.0669 67.3794 43.9599 67.3382 43.8612C67.7001 43.7708 67.9716 43.4418 67.9716 43.0552H67.9798V43.047Z" fill="white"/>
<path d="M55.0501 55.8106C55.0501 55.35 54.68 54.9799 54.2194 54.9799C53.9973 54.9799 53.7999 55.0704 53.6519 55.2102C53.5532 54.8565 53.2324 54.6016 52.854 54.6016C52.4263 54.6016 52.0809 54.9223 52.0315 55.3336C51.8917 55.2184 51.7107 55.1526 51.5133 55.1526C51.0527 55.1526 50.6826 55.5228 50.6826 55.9834C50.6826 56.4111 51.0034 56.7565 51.4064 56.8059C51.3982 56.8552 51.39 56.9128 51.39 56.9704C51.39 57.431 51.7601 57.8011 52.2207 57.8011C52.525 57.8011 52.7964 57.6284 52.9363 57.3816C53.0843 57.6119 53.3393 57.7682 53.6436 57.7682C54.1042 57.7682 54.4744 57.3981 54.4744 56.9375C54.4744 56.8305 54.4497 56.7236 54.4086 56.6249C54.7705 56.5344 55.0419 56.2054 55.0419 55.8189H55.0501V55.8106Z" fill="white"/>
<path d="M70.0692 57.3165C70.0692 56.8559 69.699 56.4858 69.2384 56.4858C69.0163 56.4858 68.8189 56.5762 68.6709 56.7161C68.5722 56.3624 68.2514 56.1074 67.8731 56.1074C67.4454 56.1074 67.0999 56.4282 67.0506 56.8394C66.9107 56.7243 66.7298 56.6585 66.5324 56.6585C66.0718 56.6585 65.7017 57.0286 65.7017 57.4892C65.7017 57.9169 66.0224 58.2624 66.4255 58.3117C66.4172 58.3611 66.409 58.4187 66.409 58.4762C66.409 58.9368 66.7791 59.307 67.2397 59.307C67.5441 59.307 67.8155 59.1342 67.9553 58.8875C68.1034 59.1178 68.3583 59.2741 68.6627 59.2741C69.1233 59.2741 69.4934 58.9039 69.4934 58.4433C69.4934 58.3364 69.4687 58.2295 69.4276 58.1308C69.7895 58.0403 70.0609 57.7113 70.0609 57.3247H70.0692V57.3165Z" fill="white"/>
<path d="M90.3275 44.0333C90.3275 43.5727 89.9573 43.2026 89.4967 43.2026C89.2747 43.2026 89.0773 43.293 88.9292 43.4329C88.8305 43.0792 88.5097 42.8242 88.1314 42.8242C87.7037 42.8242 87.3582 43.145 87.3089 43.5562C87.169 43.4411 86.9881 43.3753 86.7907 43.3753C86.3301 43.3753 85.96 43.7454 85.96 44.206C85.96 44.6337 86.2807 44.9792 86.6838 45.0285C86.6755 45.0779 86.6673 45.1355 86.6673 45.193C86.6673 45.6536 87.0374 46.0238 87.498 46.0238C87.8024 46.0238 88.0738 45.851 88.2136 45.6043C88.3617 45.8346 88.6166 45.9909 88.921 45.9909C89.3816 45.9909 89.7517 45.6207 89.7517 45.1601C89.7517 45.0532 89.727 44.9463 89.6859 44.8476C90.0478 44.7571 90.3192 44.4281 90.3192 44.0415H90.3275V44.0333Z" fill="white"/>
<path d="M22.7752 41.4513C22.7752 40.9907 22.4051 40.6205 21.9445 40.6205C21.7224 40.6205 21.525 40.711 21.377 40.8508C21.2782 40.4972 20.9575 40.2422 20.5791 40.2422C20.1514 40.2422 19.806 40.563 19.7566 40.9742C19.6168 40.8591 19.4358 40.7933 19.2384 40.7933C18.7778 40.7933 18.4077 41.1634 18.4077 41.624C18.4077 42.0517 18.7285 42.3971 19.1315 42.4465C19.1233 42.4958 19.1151 42.5534 19.1151 42.611C19.1151 43.0716 19.4852 43.4417 19.9458 43.4417C20.2501 43.4417 20.5215 43.269 20.6614 43.0223C20.8094 43.2526 21.0644 43.4088 21.3687 43.4088C21.8293 43.4088 22.1995 43.0387 22.1995 42.5781C22.1995 42.4712 22.1748 42.3642 22.1337 42.2655C22.4956 42.1751 22.767 41.8461 22.767 41.4595H22.7752V41.4513Z" fill="white"/>
<path d="M18.8763 57.1935C18.8763 56.7329 18.5062 56.3627 18.0456 56.3627C17.8235 56.3627 17.6261 56.4532 17.478 56.593C17.3793 56.2394 17.0585 55.9844 16.6802 55.9844C16.2525 55.9844 15.907 56.3052 15.8577 56.7164C15.7179 56.6013 15.5369 56.5355 15.3395 56.5355C14.8789 56.5355 14.5088 56.9056 14.5088 57.3662C14.5088 57.7939 14.8296 58.1393 15.2326 58.1887C15.2244 58.238 15.2161 58.2956 15.2161 58.3532C15.2161 58.8138 15.5863 59.1839 16.0469 59.1839C16.3512 59.1839 16.6226 59.0112 16.7625 58.7644C16.9105 58.9947 17.1655 59.151 17.4698 59.151C17.9304 59.151 18.3005 58.7809 18.3005 58.3203C18.3005 58.2134 18.2759 58.1064 18.2347 58.0077C18.5966 57.9173 18.8681 57.5883 18.8681 57.2017H18.8763V57.1935Z" fill="white"/>
<path d="M87.1443 56.8478C87.1443 56.3871 86.7742 56.017 86.3136 56.017C86.0915 56.017 85.8941 56.1075 85.7461 56.2473C85.6474 55.8936 85.3266 55.6387 84.9483 55.6387C84.5206 55.6387 84.1751 55.9594 84.1258 56.3707C83.9859 56.2555 83.805 56.1897 83.6076 56.1897C83.147 56.1897 82.7769 56.5599 82.7769 57.0205C82.7769 57.4482 83.0976 57.7936 83.5007 57.843C83.4924 57.8923 83.4842 57.9499 83.4842 58.0075C83.4842 58.4681 83.8543 58.8382 84.3149 58.8382C84.6193 58.8382 84.8907 58.6655 85.0305 58.4187C85.1786 58.649 85.4335 58.8053 85.7379 58.8053C86.1985 58.8053 86.5686 58.4352 86.5686 57.9746C86.5686 57.8677 86.5439 57.7607 86.5028 57.662C86.8647 57.5716 87.1361 57.2426 87.1361 56.856H87.1443V56.8478Z" fill="white"/>
<path d="M63.5054 47.9006C63.5054 47.2097 62.9461 46.6422 62.2552 46.6422C61.9262 46.6422 61.6219 46.7738 61.3998 46.9794C61.2517 46.453 60.7747 46.0664 60.1989 46.0664C59.5574 46.0664 59.0392 46.5435 58.957 47.1686C58.7431 46.9958 58.4717 46.8889 58.1838 46.8889C57.4929 46.8889 56.9336 47.4482 56.9336 48.1391C56.9336 48.7807 57.4106 49.2988 58.0275 49.3811C58.0111 49.4633 58.0029 49.5374 58.0029 49.6196C58.0029 50.3105 58.5622 50.8781 59.2531 50.8781C59.7137 50.8781 60.1167 50.6231 60.3305 50.253C60.5526 50.6066 60.9392 50.8369 61.3916 50.8369C62.0825 50.8369 62.6418 50.2776 62.6418 49.5867C62.6418 49.4222 62.6089 49.2577 62.5513 49.1179C63.1024 48.9863 63.5054 48.4928 63.5054 47.9006Z" fill="white"/>
<path d="M44.333 43.1779C44.333 42.487 43.7737 41.9195 43.0828 41.9195C42.7538 41.9195 42.4495 42.0511 42.2274 42.2567C42.0794 41.7303 41.6023 41.3438 41.0266 41.3438C40.385 41.3438 39.8668 41.8208 39.7846 42.4459C39.5707 42.2732 39.2993 42.1663 39.0114 42.1663C38.3205 42.1663 37.7612 42.7256 37.7612 43.4165C37.7612 44.058 38.2383 44.5762 38.8552 44.6584C38.8387 44.7407 38.8305 44.8147 38.8305 44.897C38.8305 45.5879 39.3898 46.1554 40.0807 46.1554C40.5413 46.1554 40.9443 45.9004 41.1582 45.5303C41.3802 45.884 41.7668 46.1143 42.2192 46.1143C42.9101 46.1143 43.4694 45.555 43.4694 44.8641C43.4694 44.6996 43.4365 44.5351 43.3789 44.3952C43.93 44.2636 44.333 43.7701 44.333 43.1779Z" fill="white"/>
<path d="M27.8994 51.5275C27.8994 50.8366 27.3401 50.2691 26.6492 50.2691C26.3202 50.2691 26.0159 50.4007 25.7938 50.6063C25.6458 50.0799 25.1687 49.6934 24.593 49.6934C23.9514 49.6934 23.4332 50.1704 23.351 50.7955C23.1371 50.6228 22.8657 50.5159 22.5778 50.5159C21.8869 50.5159 21.3276 51.0752 21.3276 51.7661C21.3276 52.4076 21.8047 52.9258 22.4216 53.008C22.4051 53.0903 22.3969 53.1643 22.3969 53.2466C22.3969 53.9375 22.9562 54.505 23.6471 54.505C24.1077 54.505 24.5107 54.25 24.7246 53.8799C24.9467 54.2336 25.3332 54.4639 25.7856 54.4639C26.4765 54.4639 27.0358 53.9046 27.0358 53.2137C27.0358 53.0492 27.0029 52.8847 26.9453 52.7448C27.4964 52.6132 27.8994 52.1197 27.8994 51.5275Z" fill="white"/>
<path d="M46.6358 55.2443C46.6358 54.5534 46.0765 53.9859 45.3856 53.9859C45.0566 53.9859 44.7522 54.1175 44.5302 54.3231C44.3821 53.7967 43.9051 53.4102 43.3293 53.4102C42.6877 53.4102 42.1696 53.8872 42.0873 54.5123C41.8735 54.3396 41.602 54.2327 41.3142 54.2327C40.6233 54.2327 40.064 54.792 40.064 55.4829C40.064 56.1244 40.541 56.6426 41.1579 56.7248C41.1414 56.8071 41.1332 56.8811 41.1332 56.9634C41.1332 57.6543 41.6925 58.2218 42.3834 58.2218C42.844 58.2218 43.2471 57.9668 43.4609 57.5967C43.683 57.9504 44.0696 58.1807 44.5219 58.1807C45.2128 58.1807 45.7721 57.6214 45.7721 56.9305C45.7721 56.766 45.7392 56.6015 45.6817 56.4616C46.2327 56.33 46.6358 55.8365 46.6358 55.2443Z" fill="white"/>
<path d="M83.3277 43.1623C83.3277 42.4714 82.7684 41.9039 82.0775 41.9039C81.7485 41.9039 81.4441 42.0355 81.2221 42.2411C81.074 41.7147 80.597 41.3281 80.0212 41.3281C79.3796 41.3281 78.8615 41.8052 78.7792 42.4303C78.5654 42.2576 78.2939 42.1506 78.0061 42.1506C77.3152 42.1506 76.7559 42.7099 76.7559 43.4008C76.7559 44.0424 77.2329 44.5606 77.8498 44.6428C77.8333 44.7251 77.8251 44.7991 77.8251 44.8813C77.8251 45.5722 78.3844 46.1398 79.0753 46.1398C79.5359 46.1398 79.939 45.8848 80.1528 45.5147C80.3749 45.8683 80.7615 46.0986 81.2138 46.0986C81.9047 46.0986 82.464 45.5393 82.464 44.8484C82.464 44.6839 82.4311 44.5194 82.3736 44.3796C82.9246 44.248 83.3277 43.7545 83.3277 43.1623Z" fill="white"/>
<path d="M14.1221 45.4397C14.1221 44.7487 13.5628 44.1812 12.8719 44.1812C12.5429 44.1812 12.2386 44.3128 12.0165 44.5184C11.8684 43.992 11.3914 43.6055 10.8156 43.6055C10.1741 43.6055 9.6559 44.0825 9.57365 44.7076C9.3598 44.5349 9.08837 44.428 8.8005 44.428C8.10959 44.428 7.55029 44.9873 7.55029 45.6782C7.55029 46.3197 8.02735 46.8379 8.64422 46.9202C8.62777 47.0024 8.61955 47.0764 8.61955 47.1587C8.61955 47.8496 9.17885 48.4171 9.86975 48.4171C10.3304 48.4171 10.7334 48.1621 10.9472 47.792C11.1693 48.1457 11.5559 48.376 12.0083 48.376C12.6992 48.376 13.2585 47.8167 13.2585 47.1258C13.2585 46.9613 13.2256 46.7968 13.168 46.657C13.7191 46.5254 14.1221 46.0319 14.1221 45.4397Z" fill="white"/>
</svg>
