<svg width="100" height="100" viewBox="0 0 100 100" fill="none" xmlns="http://www.w3.org/2000/svg">
<path d="M95.526 56.962L100 54.0095L96.1675 49.9302L100 46.5582L95.6822 43.326L98.495 39H0C1.97385 41.3275 4.27667 44.0251 4.27667 44.0251L0.123366 47.6767L4.44116 50.7691L0.123366 54.2809L5.07443 57.2334L0.518135 61.3045H99.8108L95.5177 56.9538L95.526 56.962Z" fill="#FFDBD3"/>
<path d="M29.7308 55.7056C29.4348 55.4671 29.0153 55.3931 28.6617 55.5411C28.4725 55.6152 28.3163 55.7468 28.1929 55.903C28.1024 55.7879 28.0037 55.6892 27.8721 55.6152C27.5349 55.4178 27.1155 55.426 26.7865 55.6152C26.4164 55.829 26.2355 56.2402 26.2848 56.6597C26.3424 57.112 26.622 57.4821 26.9263 57.8111C27.2718 58.1812 27.6583 58.5184 28.0777 58.8062C28.1106 58.8309 28.1435 58.8309 28.1847 58.8309C28.2258 58.8309 28.2587 58.8309 28.2916 58.8062C28.6617 58.5513 29.0071 58.2552 29.3279 57.9344C29.6322 57.6219 29.9447 57.2847 30.0598 56.8488C30.1667 56.4376 30.0763 55.9853 29.7226 55.7139L29.7308 55.7056Z" fill="#F9AAAA"/>
<path d="M88.9296 55.7056C88.6335 55.4671 88.2141 55.3931 87.8604 55.5411C87.6712 55.6152 87.515 55.7468 87.3916 55.903C87.3012 55.7879 87.2025 55.6892 87.0709 55.6152C86.7337 55.4178 86.3142 55.426 85.9853 55.6152C85.6152 55.829 85.4342 56.2402 85.4836 56.6597C85.5411 57.112 85.8208 57.4821 86.1251 57.8111C86.4705 58.1812 86.857 58.5184 87.2765 58.8062C87.3094 58.8309 87.3423 58.8309 87.3834 58.8309C87.4245 58.8309 87.4574 58.8309 87.4903 58.8062C87.8604 58.5513 88.2058 58.2552 88.5266 57.9344C88.8309 57.6219 89.1434 57.2847 89.2586 56.8488C89.3655 56.4376 89.275 55.9853 88.9214 55.7139H88.9296V55.7056Z" fill="#F9AAAA"/>
<path d="M59.3304 55.7056C59.0344 55.4671 58.6149 55.3931 58.2613 55.5411C58.0721 55.6152 57.9159 55.7468 57.7925 55.903C57.702 55.7879 57.6033 55.6892 57.4717 55.6152C57.1345 55.4178 56.7151 55.426 56.3861 55.6152C56.016 55.829 55.8351 56.2402 55.8844 56.6597C55.942 57.112 56.2216 57.4821 56.5259 57.8111C56.8714 58.1812 57.2579 58.5184 57.6774 58.8062C57.7103 58.8309 57.7432 58.8309 57.7843 58.8309C57.8254 58.8309 57.8583 58.8309 57.8912 58.8062C58.2613 58.5513 58.6067 58.2552 58.9275 57.9344C59.2318 57.6219 59.5443 57.2847 59.6594 56.8488C59.7663 56.4376 59.6759 55.9853 59.3222 55.7139H59.3304V55.7056Z" fill="#F9AAAA"/>
<path d="M29.7308 41.0572C29.4348 40.8187 29.0153 40.7447 28.6617 40.8927C28.4725 40.9667 28.3163 41.0983 28.1929 41.2546C28.1024 41.1394 28.0037 41.0407 27.8721 40.9667C27.5349 40.7693 27.1155 40.7776 26.7865 40.9667C26.4164 41.1806 26.2355 41.5918 26.2848 42.0112C26.3424 42.4636 26.622 42.8337 26.9263 43.1626C27.2718 43.5327 27.6583 43.8699 28.0777 44.1578C28.1106 44.1825 28.1435 44.1825 28.1847 44.1825C28.2258 44.1825 28.2587 44.1825 28.2916 44.1578C28.6617 43.9028 29.0071 43.6067 29.3279 43.286C29.6322 42.9735 29.9447 42.6363 30.0598 42.2004C30.1667 41.7892 30.0763 41.3368 29.7226 41.0654L29.7308 41.0572Z" fill="#F9AAAA"/>
<path d="M88.9296 41.0572C88.6335 40.8187 88.2141 40.7447 87.8604 40.8927C87.6712 40.9667 87.515 41.0983 87.3916 41.2546C87.3012 41.1394 87.2025 41.0407 87.0709 40.9667C86.7337 40.7693 86.3142 40.7776 85.9853 40.9667C85.6152 41.1806 85.4342 41.5918 85.4836 42.0112C85.5411 42.4636 85.8208 42.8337 86.1251 43.1626C86.4705 43.5327 86.857 43.8699 87.2765 44.1578C87.3094 44.1825 87.3423 44.1825 87.3834 44.1825C87.4245 44.1825 87.4574 44.1825 87.4903 44.1578C87.8604 43.9028 88.2058 43.6067 88.5266 43.286C88.8309 42.9735 89.1434 42.6363 89.2586 42.2004C89.3655 41.7892 89.275 41.3368 88.9214 41.0654H88.9296V41.0572Z" fill="#F9AAAA"/>
<path d="M59.3304 41.0572C59.0344 40.8187 58.6149 40.7447 58.2613 40.8927C58.0721 40.9667 57.9159 41.0983 57.7925 41.2546C57.702 41.1394 57.6033 41.0407 57.4717 40.9667C57.1345 40.7693 56.7151 40.7776 56.3861 40.9667C56.016 41.1806 55.8351 41.5918 55.8844 42.0112C55.942 42.4636 56.2216 42.8337 56.5259 43.1626C56.8714 43.5327 57.2579 43.8699 57.6774 44.1578C57.7103 44.1825 57.7432 44.1825 57.7843 44.1825C57.8254 44.1825 57.8583 44.1825 57.8912 44.1578C58.2613 43.9028 58.6067 43.6067 58.9275 43.286C59.2318 42.9735 59.5443 42.6363 59.6594 42.2004C59.7663 41.7892 59.6759 41.3368 59.3222 41.0654H59.3304V41.0572Z" fill="#F9AAAA"/>
<path d="M44.535 48.9127C44.239 48.6742 43.8195 48.6001 43.4659 48.7482C43.2767 48.8222 43.1205 48.9538 42.9971 49.1101C42.9066 48.9949 42.8079 48.8962 42.6763 48.8222C42.3391 48.6248 41.9197 48.633 41.5907 48.8222C41.2206 49.036 41.0397 49.4472 41.089 49.8667C41.1466 50.319 41.4262 50.6891 41.7305 51.0181C42.076 51.3882 42.4625 51.7254 42.8819 52.0133C42.9148 52.0379 42.9477 52.0379 42.9889 52.0379C43.03 52.0379 43.0629 52.0379 43.0958 52.0133C43.4659 51.7583 43.8113 51.4622 44.1321 51.1415C44.4364 50.8289 44.7489 50.4917 44.864 50.0559C44.9709 49.6446 44.8805 49.1923 44.5268 48.9209H44.535V48.9127Z" fill="#F9AAAA"/>
<path d="M14.8778 48.9127C14.5817 48.6742 14.1623 48.6001 13.8087 48.7482C13.6195 48.8222 13.4632 48.9538 13.3399 49.1101C13.2494 48.9949 13.1507 48.8962 13.0191 48.8222C12.6819 48.6248 12.2625 48.633 11.9335 48.8222C11.5634 49.036 11.3825 49.4472 11.4318 49.8667C11.4894 50.319 11.769 50.6891 12.0733 51.0181C12.4187 51.3882 12.8053 51.7254 13.2247 52.0133C13.2576 52.0379 13.2905 52.0379 13.3316 52.0379C13.3728 52.0379 13.4057 52.0379 13.4386 52.0133C13.8087 51.7583 14.1541 51.4622 14.4748 51.1415C14.7791 50.8289 15.0917 50.4917 15.2068 50.0559C15.3137 49.6446 15.2232 49.1923 14.8696 48.9209L14.8778 48.9127Z" fill="#F9AAAA"/>
<path d="M74.1835 48.9127C73.8874 48.6742 73.468 48.6001 73.1143 48.7482C72.9252 48.8222 72.7689 48.9538 72.6455 49.1101C72.5551 48.9949 72.4564 48.8962 72.3248 48.8222C71.9876 48.6248 71.5681 48.633 71.2392 48.8222C70.8691 49.036 70.6881 49.4472 70.7375 49.8667C70.795 50.319 71.0747 50.6891 71.379 51.0181C71.7244 51.3882 72.1109 51.7254 72.5304 52.0133C72.5633 52.0379 72.5962 52.0379 72.6373 52.0379C72.6784 52.0379 72.7113 52.0379 72.7442 52.0133C73.1143 51.7583 73.4597 51.4622 73.7805 51.1415C74.0848 50.8289 74.3973 50.4917 74.5125 50.0559C74.6194 49.6446 74.5289 49.1923 74.1753 48.9209H74.1835V48.9127Z" fill="#F9AAAA"/>
</svg>
