<svg width="100" height="100" viewBox="0 0 100 100" fill="none" xmlns="http://www.w3.org/2000/svg">
<path d="M100 39.0762L97.6914 41.3838L100 43.6914L97.6914 45.999L100 48.3066L97.6914 50.6143L100 52.9219L97.6914 55.2295L100 57.5371L97.6914 59.8447L99.6934 61.8457H1.33105L0 61.0771L2.30762 58.7695L0 56.4619L2.30762 54.1543L0 51.8467L2.30762 49.5391L0 47.2305L2.30762 44.9229L0 42.6152L2.30762 40.3076L0 38H98.1357L100 39.0762Z" fill="#D7DDB8"/>
<mask id="mask0_3710_32717" style="mask-type:alpha" maskUnits="userSpaceOnUse" x="0" y="38" width="100" height="24">
<path d="M100 39.0762L97.6914 41.3838L100 43.6914L97.6914 45.999L100 48.3066L97.6914 50.6143L100 52.9219L97.6914 55.2295L100 57.5371L97.6914 59.8447L99.6934 61.8457H1.33105L0 61.0771L2.30762 58.7695L0 56.4619L2.30762 54.1543L0 51.8467L2.30762 49.5391L0 47.2305L2.30762 44.9229L0 42.6152L2.30762 40.3076L0 38H98.1357L100 39.0762Z" fill="white"/>
</mask>
<g mask="url(#mask0_3710_32717)">
<circle cx="1.82224" cy="55.7812" r="1.2988" fill="white"/>
<circle cx="1.82224" cy="44.3086" r="1.2988" fill="white"/>
<circle cx="11.5625" cy="50.1543" r="1.2988" fill="white"/>
<circle cx="11.5625" cy="38.4648" r="1.2988" fill="white"/>
<circle cx="11.5625" cy="61.6269" r="1.2988" fill="white"/>
<circle cx="15.6758" cy="55.7812" r="1.2988" fill="white"/>
<circle cx="15.6758" cy="44.3086" r="1.2988" fill="white"/>
<circle cx="25.417" cy="50.1543" r="1.2988" fill="white"/>
<circle cx="25.417" cy="38.4648" r="1.2988" fill="white"/>
<circle cx="25.417" cy="61.6269" r="1.2988" fill="white"/>
<circle cx="29.5302" cy="55.7812" r="1.2988" fill="white"/>
<circle cx="29.5302" cy="44.3086" r="1.2988" fill="white"/>
<circle cx="46.1972" cy="50.1543" r="1.2988" fill="white"/>
<circle cx="46.1972" cy="38.4648" r="1.2988" fill="white"/>
<circle cx="46.1972" cy="61.6269" r="1.2988" fill="white"/>
<circle cx="50.3105" cy="55.7812" r="1.2988" fill="white"/>
<circle cx="50.3105" cy="44.3086" r="1.2988" fill="white"/>
<circle cx="4.63572" cy="50.1543" r="1.2988" fill="white"/>
<circle cx="4.63572" cy="38.4648" r="1.2988" fill="white"/>
<circle cx="4.63572" cy="61.6269" r="1.2988" fill="white"/>
<circle cx="8.749" cy="55.7812" r="1.2988" fill="white"/>
<circle cx="8.749" cy="44.3086" r="1.2988" fill="white"/>
<circle cx="18.4892" cy="38.4648" r="1.2988" fill="white"/>
<circle cx="18.4892" cy="50.1543" r="1.2988" fill="white"/>
<circle cx="18.4892" cy="61.6269" r="1.2988" fill="white"/>
<circle cx="22.6025" cy="55.7812" r="1.2988" fill="white"/>
<circle cx="22.6025" cy="44.3086" r="1.2988" fill="white"/>
<circle cx="39.2705" cy="50.1543" r="1.2988" fill="white"/>
<circle cx="39.2705" cy="38.4648" r="1.2988" fill="white"/>
<circle cx="39.2705" cy="61.6269" r="1.2988" fill="white"/>
<circle cx="43.3838" cy="55.7812" r="1.2988" fill="white"/>
<circle cx="43.3838" cy="44.3086" r="1.2988" fill="white"/>
<circle cx="32.3437" cy="50.1543" r="1.2988" fill="white"/>
<circle cx="32.3437" cy="38.4648" r="1.2988" fill="white"/>
<circle cx="32.3437" cy="61.6269" r="1.2988" fill="white"/>
<circle cx="36.457" cy="55.7812" r="1.2988" fill="white"/>
<circle cx="36.457" cy="44.3086" r="1.2988" fill="white"/>
<circle cx="53.125" cy="50.1543" r="1.2988" fill="white"/>
<circle cx="53.125" cy="38.4648" r="1.2988" fill="white"/>
<circle cx="53.125" cy="61.6269" r="1.2988" fill="white"/>
<circle cx="57.2373" cy="55.7812" r="1.2988" fill="white"/>
<circle cx="57.2373" cy="44.3086" r="1.2988" fill="white"/>
<circle cx="60.0517" cy="50.1543" r="1.2988" fill="white"/>
<circle cx="60.0517" cy="38.4648" r="1.2988" fill="white"/>
<circle cx="60.0517" cy="61.6269" r="1.2988" fill="white"/>
<circle cx="64.165" cy="55.7812" r="1.2988" fill="white"/>
<circle cx="64.165" cy="44.3086" r="1.2988" fill="white"/>
<circle cx="73.9053" cy="50.1543" r="1.2988" fill="white"/>
<circle cx="73.9053" cy="38.4648" r="1.2988" fill="white"/>
<circle cx="73.9053" cy="61.6269" r="1.2988" fill="white"/>
<circle cx="78.0185" cy="55.7812" r="1.2988" fill="white"/>
<circle cx="78.0185" cy="44.3086" r="1.2988" fill="white"/>
<circle cx="87.7597" cy="50.1543" r="1.2988" fill="white"/>
<circle cx="87.7597" cy="38.4648" r="1.2988" fill="white"/>
<circle cx="87.7597" cy="61.6269" r="1.2988" fill="white"/>
<circle cx="91.872" cy="55.7812" r="1.2988" fill="white"/>
<circle cx="91.872" cy="44.3086" r="1.2988" fill="white"/>
<circle cx="66.9785" cy="50.1543" r="1.2988" fill="white"/>
<circle cx="66.9785" cy="38.4648" r="1.2988" fill="white"/>
<circle cx="66.9785" cy="61.6269" r="1.2988" fill="white"/>
<circle cx="71.0918" cy="55.7812" r="1.2988" fill="white"/>
<circle cx="71.0918" cy="44.3086" r="1.2988" fill="white"/>
<circle cx="80.832" cy="38.4648" r="1.2988" fill="white"/>
<circle cx="80.832" cy="50.1543" r="1.2988" fill="white"/>
<circle cx="80.832" cy="61.6269" r="1.2988" fill="white"/>
<circle cx="84.9453" cy="55.7812" r="1.2988" fill="white"/>
<circle cx="84.9453" cy="44.3086" r="1.2988" fill="white"/>
<circle cx="94.6865" cy="50.1543" r="1.2988" fill="white"/>
<circle cx="94.6865" cy="38.4648" r="1.2988" fill="white"/>
<circle cx="94.6865" cy="61.6269" r="1.2988" fill="white"/>
<circle cx="98.7998" cy="55.7812" r="1.2988" fill="white"/>
<circle cx="98.7998" cy="44.3086" r="1.2988" fill="white"/>
</g>
</svg>
