<svg width="100" height="100" viewBox="0 0 100 100" fill="none" xmlns="http://www.w3.org/2000/svg">
<mask id="mask0_3759_4990" style="mask-type:luminance" maskUnits="userSpaceOnUse" x="0" y="39" width="100" height="23">
<path d="M95.5256 56.9635L100 54.0107L96.1671 49.9311L100 46.5588L95.6818 43.3264L98.4948 39H0C1.97401 41.3277 4.27702 44.0255 4.27702 44.0255L0.123375 47.6774L4.44152 50.77L0.123375 54.2821L5.07485 57.2349L0.518177 61.3063H99.819L95.5256 56.9553V56.9635Z" fill="white"/>
</mask>
<g mask="url(#mask0_3759_4990)">
<path d="M95.5256 56.9635L100 54.0107L96.1671 49.9311L100 46.5588L95.6818 43.3264L98.4948 39H0C1.97401 41.3277 4.27702 44.0255 4.27702 44.0255L0.123375 47.6774L4.44152 50.77L0.123375 54.2821L5.07485 57.2349L0.518177 61.3063H99.819L95.5256 56.9553V56.9635Z" fill="#FCCA83"/>
<g opacity="0.73">
<g opacity="0.56">
<path d="M-0.180664 37.5938V64.4814" stroke="#FF915A" stroke-width="1.64501" stroke-miterlimit="10"/>
<path d="M9.66455 37.5938V64.4814" stroke="#FF915A" stroke-width="1.64501" stroke-miterlimit="10"/>
<path d="M19.5181 37.5938V64.4814" stroke="#FF915A" stroke-width="1.64501" stroke-miterlimit="10"/>
<path d="M29.3716 37.5938V64.4814" stroke="#FF915A" stroke-width="1.64501" stroke-miterlimit="10"/>
<path d="M39.2256 37.5938V64.4814" stroke="#FF915A" stroke-width="1.64501" stroke-miterlimit="10"/>
<path d="M49.0791 37.5938V64.4814" stroke="#FF915A" stroke-width="1.64501" stroke-miterlimit="10"/>
<path d="M58.9326 37.5938V64.4814" stroke="#FF915A" stroke-width="1.64501" stroke-miterlimit="10"/>
<path d="M68.7778 37.5938V64.4814" stroke="#FF915A" stroke-width="1.64501" stroke-miterlimit="10"/>
<path d="M78.6318 37.5938V64.4814" stroke="#FF915A" stroke-width="1.64501" stroke-miterlimit="10"/>
<path d="M88.4854 37.5938V64.4814" stroke="#FF915A" stroke-width="1.64501" stroke-miterlimit="10"/>
<path d="M98.3389 37.5938V64.4814" stroke="#FF915A" stroke-width="1.64501" stroke-miterlimit="10"/>
<path d="M4.73779 37.5938V64.4814" stroke="white" stroke-width="0.411252" stroke-miterlimit="10"/>
<path d="M14.5913 37.5938V64.4814" stroke="white" stroke-width="0.411252" stroke-miterlimit="10"/>
<path d="M24.4448 37.5938V64.4814" stroke="white" stroke-width="0.411252" stroke-miterlimit="10"/>
<path d="M34.2983 37.5938V64.4814" stroke="white" stroke-width="0.411252" stroke-miterlimit="10"/>
<path d="M44.1523 37.5938V64.4814" stroke="white" stroke-width="0.411252" stroke-miterlimit="10"/>
<path d="M54.0059 37.5938V64.4814" stroke="white" stroke-width="0.411252" stroke-miterlimit="10"/>
<path d="M63.8511 37.5938V64.4814" stroke="white" stroke-width="0.411252" stroke-miterlimit="10"/>
<path d="M73.7051 37.5938V64.4814" stroke="white" stroke-width="0.411252" stroke-miterlimit="10"/>
<path d="M83.5586 37.5938V64.4814" stroke="white" stroke-width="0.411252" stroke-miterlimit="10"/>
<path d="M93.4121 37.5938V64.4814" stroke="white" stroke-width="0.411252" stroke-miterlimit="10"/>
</g>
<g opacity="0.56" style="mix-blend-mode:multiply">
<path d="M104.952 53.0488H-1.2583" stroke="#FF915A" stroke-width="1.64501" stroke-miterlimit="10"/>
</g>
<g opacity="0.56" style="mix-blend-mode:multiply">
<path d="M104.952 43.1797H-1.2583" stroke="#FF915A" stroke-width="1.64501" stroke-miterlimit="10"/>
</g>
<path d="M104.952 57.9766H-1.2583" stroke="white" stroke-width="0.411252" stroke-miterlimit="10"/>
<path d="M104.952 48.1309H-1.2583" stroke="white" stroke-width="0.411252" stroke-miterlimit="10"/>
</g>
</g>
</svg>
