<svg width="270" height="270" viewBox="0 0 270 270" fill="none" xmlns="http://www.w3.org/2000/svg">
<path d="M118.58 169.49C128.87 171.63 136.32 171.4 146.78 170.44C149.91 170.15 160.66 169.77 158.18 164.1C156.77 160.89 151.4 160.27 148.5 159.81C141.47 158.7 133.99 158.59 126.91 159.24C123.4 159.56 119.24 160.2 115.95 161.45C111.55 163.12 112.94 168.31 118.59 169.49H118.58Z" fill="#C5C1C5"/>
<path d="M117.86 133.09C115.36 133.66 112.17 132.29 110.27 129.84C106.91 125.51 107.37 116.65 114.59 117.1C117.1 117.26 118.92 119.56 120 121.83C121 123.91 121.68 126.21 121.42 128.5C121.1 131.25 119.66 132.67 117.86 133.08V133.09Z" fill="#5B564C"/>
<path d="M117.69 132.459C114.75 133.079 111.62 131.029 110.2 128.559C109.12 126.689 108.65 124.339 109.02 122.209C109.39 120.079 110.62 118.339 112.77 117.869C114.19 117.559 115.65 117.769 116.81 118.659C118.2 119.709 119.1 121.329 119.77 122.909C121.02 125.859 121.87 131.459 117.68 132.469C116.87 132.669 117.21 133.919 118.03 133.719C122.06 132.749 122.62 128.009 121.73 124.599C120.79 121.009 118.37 116.479 114.13 116.449C111.34 116.429 109.04 117.969 108.1 120.599C107.16 123.229 107.57 126.019 108.65 128.389C110.21 131.829 114.18 134.519 118.04 133.719C118.86 133.549 118.51 132.299 117.69 132.469V132.459Z" fill="#231F20"/>
<path d="M144.34 144.249C148.65 144.439 153.09 142.809 156.06 139.639C158.07 137.499 159.39 134.869 160.75 132.299C161.51 130.859 162.42 129.419 163.57 128.239C164.16 127.639 164.81 127.089 165.52 126.649C166.23 126.209 167.08 125.999 167.74 125.489C168.44 124.949 168.84 124.069 168.63 123.189C168.34 121.999 167.13 120.979 165.85 121.309C161.64 122.409 158.9 125.829 156.91 129.499C155.15 132.759 153.55 136.459 150.1 138.269C148.46 139.139 146.56 139.599 144.7 139.519C143.46 139.469 142.19 140.389 142.15 141.699C142.11 143.009 143.01 144.189 144.33 144.249H144.34Z" fill="#5B564C"/>
<path d="M160.19 125.079C160.52 126.679 161.7 127.949 163.02 128.839C163.2 128.629 163.37 128.419 163.56 128.219C164.15 127.619 164.8 127.069 165.51 126.629C166.22 126.189 167.07 125.979 167.73 125.469C168.43 124.929 168.83 124.049 168.62 123.169C168.33 121.979 167.12 120.959 165.84 121.289C163.54 121.889 161.7 123.189 160.16 124.829C160.17 124.909 160.16 124.979 160.19 125.059V125.079Z" fill="white"/>
<path d="M144.34 144.249C148.65 144.439 153.09 142.809 156.06 139.639C158.07 137.499 159.39 134.869 160.75 132.299C161.51 130.859 162.42 129.419 163.57 128.239C164.16 127.639 164.81 127.089 165.52 126.649C166.23 126.209 167.08 125.999 167.74 125.489C168.44 124.949 168.84 124.069 168.63 123.189C168.34 121.999 167.13 120.979 165.85 121.309C161.64 122.409 158.9 125.829 156.91 129.499C155.15 132.759 153.55 136.459 150.1 138.269C148.46 139.139 146.56 139.599 144.7 139.519C143.46 139.469 142.19 140.389 142.15 141.699C142.11 143.009 143.01 144.189 144.33 144.249H144.34Z" stroke="#231F20" stroke-width="1.3" stroke-miterlimit="10"/>
<path d="M161.55 108.94C161.1 108.27 160.4 107.8 159.64 107.65C158.92 107.51 158.19 107.66 157.58 108.08C156.63 108.72 155.98 109.68 155.35 110.6C155.11 110.95 154.87 111.31 154.62 111.63C153.65 112.88 152.55 114.06 151.35 115.13C148.96 117.26 146.25 118.95 143.22 120.15C143.18 120.12 143.15 120.04 143.16 119.97C143.16 119.92 143.19 119.89 143.25 119.86C143.71 119.67 144.17 119.47 144.62 119.26L145.14 119.02L144.78 118.57C144.31 117.99 143.86 117.49 143.43 117.05C141.08 114.68 138.36 112.96 135.59 112.07C132.69 111.15 129.76 111.25 126.91 112.37C122.2 114.22 118.77 118.62 116.72 125.44C114.76 131.95 114.67 139.02 116.44 145.89C117.35 149.42 118.69 152.73 120.42 155.72C120.88 156.52 121.38 157.31 121.87 158.1C122.34 158.85 122.81 159.6 123.25 160.37C123.69 161.13 123.97 161.96 124.18 162.67L124.28 163.05C124.46 163.72 124.67 164.47 125.15 165.01C125.68 165.59 126.46 165.8 127.26 165.76C127.95 165.72 128.66 165.5 129.23 165.16C130.61 164.34 131.48 163.58 132.3 162.15C132.59 161.64 132.89 161.11 132.96 160.52C133.02 160.07 132.93 159.61 132.85 159.16C132.63 157.98 132.42 156.81 132.2 155.63C132.03 154.68 131.48 153.37 131.59 152.42C132.11 152.46 132.6 152.42 133.12 152.33C134.28 152.12 135.45 151.91 136.61 151.71C136.69 151.7 136.77 151.68 136.85 151.71C136.94 151.74 137 151.81 137.06 151.87C138.9 153.9 140.7 156.52 143.92 155.75C144.13 155.7 144.36 155.63 144.57 155.67C144.74 155.7 144.89 155.8 145.03 155.9C145.35 156.12 145.67 156.33 145.99 156.55C146.38 156.81 146.79 157.08 147.26 157.1C147.83 157.12 148.34 156.77 148.75 156.38C150.52 154.67 150.97 151.81 149.96 149.59C149.39 148.33 148.39 147.84 147.5 146.93C146.43 145.83 147.67 143.55 147.97 142.23C148.41 140.28 148.62 138.28 148.6 136.28C148.56 132.5 147.71 128.61 145.94 125.25C145.92 125.21 145.9 125.15 145.95 125.07C146 125 146.07 124.97 146.11 125.01C146.52 125.81 146.88 126.62 147.2 127.43L147.36 127.83L147.77 127.69C151.43 126.47 154.35 123.87 156.96 121.25C159.16 119.04 161.49 116.34 162.11 113.01C162.42 111.34 162.22 109.97 161.53 108.94H161.55Z" fill="#5B564C"/>
<path d="M158.71 115.1C159.27 115.81 159.79 116.55 160.3 117.31C161.16 116 161.84 114.58 162.13 113.01C162.44 111.34 162.24 109.97 161.55 108.94C161.1 108.27 160.4 107.8 159.64 107.65C158.92 107.51 158.19 107.66 157.58 108.08C156.63 108.72 155.98 109.68 155.35 110.6C155.19 110.84 155.02 111.07 154.86 111.29C156.34 112.33 157.62 113.71 158.72 115.1H158.71Z" fill="white"/>
<path d="M128.94 159.95C127.32 160.76 125.56 161.21 123.77 161.48C123.93 161.89 124.06 162.3 124.17 162.67L124.27 163.05C124.45 163.72 124.66 164.47 125.14 165.01C125.67 165.59 126.45 165.8 127.25 165.76C127.94 165.72 128.65 165.5 129.22 165.16C130.58 164.35 131.5 163.7 132.05 162.13C132.6 160.54 132.94 158.74 132.22 157.21C131.19 158.15 130.19 159.32 128.93 159.96L128.94 159.95Z" fill="white"/>
<path d="M150.76 152.1C150.71 150.35 149.97 148.58 148.62 147.88L148.08 147.6C148.03 147.74 147.98 147.88 147.94 148.02C148.58 150.85 148.21 153.82 145.64 155.57C145.54 155.64 145.43 155.72 145.4 155.84C145.36 156.02 145.52 156.17 145.68 156.27C146.94 157.06 148.32 156.64 149.37 155.8C150.35 155.02 150.8 153.57 150.76 152.11V152.1Z" fill="white"/>
<path d="M136.91 151.41C139.21 150.22 141.08 148.09 141.78 145.53C143.15 140.5 143.08 132.9 139.47 128.77C137.17 126.13 133.37 124.89 129.95 125.65C126.53 126.41 123.62 129.15 122.66 132.51C122.07 134.57 122.17 136.75 122.38 138.88C123.07 145.92 128.31 155.86 136.92 151.4L136.91 151.41Z" fill="white"/>
<path d="M130.86 152.679C131.01 154.459 131.5 156.09 131.93 157.81C132.26 159.13 132.21 160.499 131.7 161.759C131.19 163.019 130.34 164 129.2 164.63C128.19 165.19 126.57 165.639 125.61 164.729C125.08 164.229 124.91 163.34 124.72 162.67C124.47 161.83 124.21 160.999 123.77 160.229C122.88 158.659 121.86 157.17 120.95 155.61C119.18 152.57 117.86 149.29 116.98 145.89C115.25 139.25 115.24 132.13 117.23 125.54C118.83 120.27 121.77 114.88 127.19 112.81C130.32 111.62 133.52 111.72 136.61 112.99C139.7 114.26 142.49 116.5 144.6 119.13C145.12 119.78 146.04 118.86 145.52 118.21C141.65 113.36 135.18 109.49 128.8 110.96C126.02 111.6 123.48 113.03 121.48 115.07C119.32 117.27 117.86 120.02 116.77 122.87C114.11 129.82 113.77 137.559 115.38 144.789C116.19 148.459 117.52 152.03 119.31 155.33C120.26 157.09 121.38 158.75 122.41 160.46C122.91 161.3 123.22 162.16 123.5 163.1C123.73 163.88 123.97 164.75 124.49 165.39C126.42 167.77 130.21 166.04 131.77 164.14C132.68 163.03 133.23 161.7 133.4 160.28C133.6 158.6 133.06 157.1 132.65 155.5C132.41 154.56 132.25 153.61 132.17 152.64C132.1 151.81 130.8 151.8 130.87 152.64L130.86 152.679Z" fill="#231F20"/>
<path d="M127.03 151.95C131.86 153.88 137.57 153.21 141.83 150.23C142.51 149.75 141.86 148.63 141.17 149.11C137.16 151.91 131.91 152.51 127.37 150.7C126.59 150.39 126.26 151.65 127.02 151.95H127.03Z" fill="#231F20"/>
<path d="M146.78 147.97C150.34 140.73 150.28 131.99 146.61 124.8C146.23 124.05 145.11 124.71 145.49 125.46C148.94 132.21 149.01 140.51 145.66 147.32C145.29 148.07 146.41 148.73 146.78 147.98V147.97Z" fill="#231F20"/>
<path d="M144.65 156.61C145.23 157.06 145.81 157.44 146.55 157.53C147.2 157.61 147.92 157.5 148.52 157.25C149.86 156.71 150.79 155.43 151.08 154.04C151.63 151.38 150.85 147.79 148.05 146.75C147.26 146.46 146.93 147.72 147.7 148C149.7 148.74 150.15 151.6 149.86 153.45C149.7 154.47 149.18 155.44 148.25 155.94C147.32 156.44 146.36 156.32 145.55 155.69C145.27 155.47 144.9 155.42 144.63 155.69C144.4 155.91 144.35 156.39 144.63 156.61H144.65Z" fill="#231F20"/>
<path d="M137.04 152.6C138.47 154.69 140.73 156.38 143.34 156.5C145.81 156.62 147.72 155.03 148.4 152.72C148.64 151.92 147.39 151.57 147.15 152.37C146.61 154.2 145.16 155.32 143.23 155.19C141.15 155.05 139.3 153.6 138.16 151.94C137.69 151.25 136.56 151.9 137.04 152.6Z" fill="#231F20"/>
<path d="M146.5 146.7C146.74 147.23 147.01 147.75 147.25 148.29C147.28 148.36 147.31 148.43 147.35 148.51C147.37 148.55 147.38 148.58 147.4 148.62C147.46 148.76 147.36 148.53 147.4 148.62C147.46 148.77 147.52 148.91 147.57 149.06C147.66 149.31 147.74 149.56 147.79 149.81C147.85 150.15 148.28 150.36 148.59 150.26C148.95 150.14 149.11 149.82 149.04 149.46C148.93 148.84 148.65 148.25 148.4 147.68C148.15 147.11 147.88 146.6 147.63 146.05C147.49 145.74 147.02 145.64 146.74 145.82C146.42 146.03 146.36 146.38 146.51 146.71L146.5 146.7Z" fill="#231F20"/>
<path d="M147.55 128.61C151.13 127.55 154.08 125.15 156.73 122.6C159.22 120.19 161.77 117.44 162.71 114.02C163.42 111.45 163.1 107.62 159.93 106.9C158.3 106.53 156.95 107.34 155.92 108.55C154.81 109.86 153.93 111.33 152.77 112.61C150.1 115.55 146.78 117.89 143.1 119.37C142.33 119.68 142.67 120.94 143.45 120.62C146.43 119.42 149.17 117.75 151.58 115.62C152.8 114.54 153.92 113.36 154.92 112.08C155.82 110.93 156.56 109.45 157.76 108.57C158.85 107.77 160.29 108.04 161.08 109.13C161.87 110.22 161.88 111.56 161.66 112.8C161.1 116.04 158.81 118.7 156.56 120.95C153.89 123.62 150.91 126.26 147.22 127.35C146.42 127.59 146.76 128.84 147.57 128.6L147.55 128.61Z" fill="#231F20"/>
<path d="M100.7 71.2399C99.5897 76.0699 99.2497 81.0699 99.6997 86.0099C99.7897 86.9799 99.9097 87.9599 99.7997 88.9299C99.6697 90.0099 99.2597 91.0399 98.9097 92.0699C96.5797 98.7999 96.6497 106.77 100.83 112.54C105.55 119.06 114.13 121.29 122.07 122.62C126.48 123.36 130.96 123.98 135.43 123.66C139.9 123.34 144.39 122.04 147.93 119.3C149.35 118.2 150.59 116.88 151.61 115.4C153.17 113.13 154.64 110.1 155.07 107.35C155.44 104.98 154.72 102.81 155.63 100.41C156.29 98.6799 157.3 97.1099 158.21 95.4899C160.86 90.7299 162.57 85.3699 162.54 79.9199C162.54 78.2399 162.31 76.4399 161.2 75.1799C159.41 73.1399 157.31 74.5999 155.32 75.2599C152.18 76.3099 149.24 77.9899 146.73 80.1599C145.9 80.8799 145.05 81.6899 143.96 81.8799C142.92 82.0699 141.87 81.6399 140.89 81.2599C137.41 79.8999 133.79 78.9099 130.1 78.3099C127.54 77.8899 122.95 76.5499 120.44 77.0799C120.13 77.1499 119.8 77.2399 119.5 77.1299C119.15 77.0099 118.95 76.6499 118.78 76.3199C116.29 71.4799 113.37 66.5699 108.73 63.7299C104.14 60.9099 101.51 67.7199 100.7 71.2399Z" fill="#5B564C"/>
<path d="M134.02 115.87C140.12 108.86 137.37 98.2398 128.54 95.6098C121.17 93.4098 113.98 99.5998 113.67 106.9C113.46 111.74 116.33 116.63 120.74 118.63C125.15 120.63 130.84 119.52 134.02 115.86V115.87Z" fill="white"/>
<path d="M156.14 81.3102C153.72 82.1202 151.37 83.2302 149.78 85.2902C149.49 85.6702 149.26 86.0902 148.99 86.4802C149.23 86.7002 149.46 87.2201 149.63 87.4501C150 87.9901 150.36 88.5302 150.68 89.1002C151.53 90.5902 151.97 92.2902 152.53 93.9002C152.88 94.9102 153.27 95.9102 153.7 96.8902C155.49 94.7602 156.74 92.1102 157.54 89.5002C158.39 86.7402 159.02 83.5502 158.39 80.6602C157.63 80.8502 156.87 81.0602 156.14 81.3102Z" fill="#F8BCBD"/>
<path d="M103.57 85.3696C105.5 83.8996 107.44 82.4196 109.24 80.7896C110.07 80.0496 111.17 79.2296 111.92 78.5996C111.97 78.5596 112.03 78.5096 112.08 78.4696C111.99 78.2296 111.96 77.8296 111.88 77.5796C110.95 74.6696 109.48 72.3296 107 70.4996C106.91 70.4296 106.81 70.3796 106.71 70.3096C103.71 74.4296 103.19 80.2396 103.57 85.3696Z" fill="#F8BCBD"/>
<path d="M115.22 78.7798C122.96 77.3398 131.06 78.1798 138.38 81.0698C140.45 81.8898 142.44 82.8898 144.35 84.0298C145.07 84.4598 145.72 83.3398 145.01 82.9098C138.03 78.7398 129.87 76.6098 121.74 76.7998C119.44 76.8598 117.14 77.1098 114.88 77.5298C114.06 77.6798 114.41 78.9398 115.23 78.7798H115.22Z" fill="#231F20"/>
<path d="M106.89 63.8797C111.78 67.3297 115.83 71.8797 118.71 77.1197C119.11 77.8497 120.24 77.1997 119.83 76.4597C116.84 71.0197 112.62 66.3297 107.55 62.7597C106.86 62.2797 106.21 63.3997 106.89 63.8797Z" fill="#231F20"/>
<path d="M103.71 63.9896C99.2198 71.1996 97.6598 80.0396 99.3598 88.3496C99.5298 89.1696 100.78 88.8196 100.61 87.9996C98.9798 80.0196 100.53 71.5496 104.83 64.6396C105.27 63.9296 104.15 63.2696 103.71 63.9796V63.9896Z" fill="#231F20"/>
<path d="M106.75 71.2296C109.08 73.1896 110.68 75.8496 111.32 78.8296C111.5 79.6496 112.75 79.2996 112.57 78.4796C111.89 75.3096 110.14 72.3996 107.66 70.3096C107.02 69.7696 106.1 70.6896 106.74 71.2296H106.75Z" fill="#231F20"/>
<path d="M106.41 82.4597C102.48 85.2797 99.4498 89.2497 97.8098 93.7997C96.4498 97.5797 96.2598 101.56 96.9998 105.49C97.4498 107.84 98.2698 110.14 99.6098 112.14C101.3 114.67 103.68 116.64 106.29 118.16C110.83 120.81 116.01 122.3 121.11 123.42C121.93 123.6 122.27 122.35 121.46 122.17C116.98 121.19 112.47 119.92 108.37 117.81C105.71 116.44 103.18 114.68 101.33 112.3C97.8998 107.9 97.0998 101.42 98.4498 96.1297C99.7998 90.8397 102.86 86.5897 107.07 83.5697C107.74 83.0897 107.1 81.9597 106.41 82.4497V82.4597Z" fill="#231F20"/>
<path d="M143.91 82.6898C145.63 81.5898 147.28 80.3898 149.01 79.3098C150.39 78.4498 151.83 77.7398 153.29 77.0198C154.56 76.3998 155.84 75.7798 157.18 75.3198C158.08 75.0098 159.36 74.5098 160.26 75.0398C161.03 75.4898 161.32 76.4498 161.49 77.2698C161.73 78.4398 161.71 79.6698 161.65 80.8598C161.53 83.0198 161.15 85.1498 160.72 87.2598C159.84 91.6698 158.05 95.8598 155.46 99.5398C154.98 100.23 156.1 100.88 156.58 100.2C160.47 94.6798 162.43 87.9798 162.91 81.2898C163.07 79.1198 163.2 76.0698 161.52 74.3998C160.67 73.5598 159.58 73.4398 158.45 73.6398C156.95 73.8998 155.5 74.5598 154.12 75.1998C152.56 75.9198 150.98 76.6498 149.49 77.5098C147.34 78.7498 145.34 80.2498 143.25 81.5798C142.55 82.0298 143.2 83.1498 143.91 82.6998V82.6898Z" fill="#231F20"/>
<path d="M156.19 80.3994C153.01 81.3394 150.24 83.3394 148.31 86.0294C148.11 86.3194 148.26 86.7494 148.54 86.9194C148.87 87.1094 149.22 86.9694 149.43 86.6894C151.16 84.2794 153.7 82.4994 156.54 81.6594C157.34 81.4194 157 80.1694 156.19 80.4094V80.3994Z" fill="#231F20"/>
<path d="M151.33 92.7697C154.29 97.7497 155.32 103.89 153.88 109.53C152.55 114.71 149.09 119.2 144.12 121.32C141.99 122.23 139.68 122.69 137.37 122.7C136.53 122.7 136.53 124 137.37 124C142.17 123.98 146.93 122.1 150.29 118.64C154.58 114.24 156.34 107.86 155.67 101.83C155.29 98.3997 154.21 95.0797 152.44 92.1197C152.01 91.3997 150.89 92.0497 151.32 92.7797L151.33 92.7697Z" fill="#231F20"/>
<path d="M123.24 103.88C122.67 104.15 122.26 104.32 122.26 104.25C122.24 105.32 122.14 106.46 122.42 107.52C122.69 108.52 123.35 109.47 124.33 109.8C125.16 110.08 126.1 109.88 126.83 109.39C128.25 108.44 128.8 106.59 128.86 104.95C128.17 104.72 127.28 104.34 126.96 103.64C126.74 103.17 126.7 102.65 126.48 102.2C126.32 102.29 124.44 103.31 123.24 103.88Z" fill="#FF9F9F"/>
<path d="M129.633 100.032C129.809 99.1717 128.816 98.2416 127.415 97.9544C126.014 97.6673 124.735 98.1319 124.558 98.9922C124.382 99.8524 125.375 100.783 126.777 101.07C128.178 101.357 129.457 100.892 129.633 100.032Z" fill="#231F20"/>
<path d="M119.79 101.02C118.92 103.2 121.44 104.84 123.36 104.69C125.53 104.52 126.9 102.65 127.5 100.72C127.75 99.9105 126.53 99.6005 126.25 100.37C125.54 102.32 126.03 104.74 128.09 105.62C129.01 106.01 130.11 106.03 131.02 105.62C131.98 105.2 132.58 104.34 132.91 103.37C133.18 102.58 131.93 102.24 131.66 103.02C131.2 104.37 129.8 105.03 128.48 104.37C127.16 103.71 127.04 101.99 127.51 100.71L126.26 100.36C125.85 101.65 125.03 103.04 123.6 103.34C122.46 103.58 120.47 102.82 121.05 101.36C121.36 100.58 120.1 100.24 119.8 101.01L119.79 101.02Z" fill="#231F20"/>
<path d="M121.72 103.79C121.36 104.87 121.29 106 121.49 107.12C121.67 108.15 122.09 109.27 122.8 110.06C123.51 110.85 124.52 111.09 125.49 110.81C126.46 110.53 127.25 109.86 127.86 109.09C128.6 108.14 129.12 107.03 129.38 105.84C129.56 105.02 128.3 104.68 128.13 105.49C127.91 106.52 127.47 107.51 126.81 108.33C126.3 108.97 125.44 109.72 124.55 109.61C123.6 109.49 123.17 108.28 122.93 107.5C122.59 106.38 122.62 105.24 122.99 104.13C123.25 103.33 122 102.99 121.74 103.78L121.72 103.79Z" fill="#231F20"/>
<path d="M144.56 96.03C141.73 96.94 138.9 97.85 136.08 98.76C135.66 98.89 135.38 99.52 135.79 99.85C138.3 101.83 140.83 103.78 143.39 105.7C143.67 105.91 144.11 105.74 144.28 105.47C144.48 105.14 144.33 104.79 144.05 104.58C141.58 102.73 139.14 100.85 136.72 98.94L136.43 100.03C139.26 99.12 142.09 98.21 144.91 97.3C145.7 97.04 145.36 95.79 144.56 96.05V96.03Z" fill="#231F20"/>
<path d="M111.13 90.3297C113.37 92.2797 115.61 94.2297 117.85 96.1797L118.14 95.0897C115.11 95.9097 112.07 96.6897 109.02 97.4397C108.21 97.6397 108.55 98.8897 109.37 98.6897C112.42 97.9397 115.46 97.1597 118.49 96.3397C118.94 96.2197 119.15 95.5797 118.78 95.2497C116.54 93.2997 114.3 91.3497 112.06 89.3997C111.43 88.8497 110.51 89.7697 111.14 90.3197L111.13 90.3297Z" fill="#231F20"/>
<path d="M110.017 103.242C110.31 101.932 108.769 100.473 106.576 99.9816C104.382 99.4905 102.367 100.154 102.073 101.464C101.78 102.773 103.321 104.233 105.514 104.724C107.708 105.215 109.724 104.552 110.017 103.242Z" fill="#FF9F9F"/>
<path d="M147.572 111.567C147.865 110.258 146.325 108.798 144.131 108.307C141.938 107.816 139.922 108.479 139.629 109.789C139.335 111.098 140.876 112.558 143.069 113.049C145.263 113.54 147.279 112.877 147.572 111.567Z" fill="#FF9F9F"/>
<path d="M105.3 135.04L100.63 131.71L111.4 115.43L117.19 119.57L105.3 135.04Z" fill="#E53333" stroke="#6D1726" stroke-miterlimit="10"/>
<path d="M105.061 135.412C105.485 134.818 104.779 133.588 103.484 132.664C102.19 131.74 100.797 131.472 100.373 132.065C99.9498 132.659 100.656 133.889 101.951 134.813C103.245 135.737 104.638 136.005 105.061 135.412Z" fill="#E53333" stroke="#6D1726" stroke-miterlimit="10"/>
<path d="M113.49 116.75C114.45 117.18 115.24 118.04 115.94 118.8C116.03 118.9 116.12 119.01 116.21 119.11C116.26 119.15 116.32 119.19 116.37 119.23C116.58 119.39 116.81 119.57 117.01 119.77C118.81 119.73 120.57 118.88 121.7 117.31C123.6 114.65 122.98 110.95 120.32 109.05C117.66 107.15 113.96 107.77 112.06 110.43C110.94 112 110.7 113.92 111.23 115.63C111.96 115.87 112.65 116.25 113.29 116.69C113.36 116.71 113.42 116.73 113.49 116.76V116.75Z" fill="#CCC2A3" stroke="#231F20" stroke-width="0.75" stroke-linecap="round" stroke-linejoin="round"/>
<path d="M120.99 118.3C120.93 118.26 120.88 118.21 120.84 118.15C117.04 113.13 111.63 111.52 111.58 111.51C111.14 111.38 110.95 110.87 111.15 110.37C111.35 109.87 111.87 109.56 112.31 109.69C112.55 109.76 118.22 111.44 122.29 116.82C122.57 117.19 122.47 117.78 122.07 118.15C121.74 118.46 121.3 118.51 121 118.3H120.99Z" fill="white" stroke="#231F20" stroke-width="0.75" stroke-linecap="round" stroke-linejoin="round"/>
<path d="M116.08 121.369C116.03 121.329 115.98 121.289 115.95 121.229C113.5 117.789 110.13 117.039 110.09 117.029C109.67 116.939 109.49 116.469 109.69 115.979C109.88 115.489 110.38 115.159 110.79 115.239C110.95 115.269 114.64 116.079 117.36 119.899C117.6 120.239 117.49 120.819 117.1 121.179C116.77 121.489 116.36 121.549 116.09 121.359L116.08 121.369Z" fill="white" stroke="#231F20" stroke-width="0.75" stroke-linecap="round" stroke-linejoin="round"/>
<path d="M115.9 110.19C116.181 110.19 116.41 109.962 116.41 109.68C116.41 109.398 116.181 109.17 115.9 109.17C115.618 109.17 115.39 109.398 115.39 109.68C115.39 109.962 115.618 110.19 115.9 110.19Z" fill="#5E5639"/>
<path d="M117.96 109.97C118.241 109.97 118.47 109.742 118.47 109.46C118.47 109.179 118.241 108.95 117.96 108.95C117.678 108.95 117.45 109.179 117.45 109.46C117.45 109.742 117.678 109.97 117.96 109.97Z" fill="#5E5639"/>
<path d="M118.739 111.85C119.021 111.85 119.249 111.622 119.249 111.34C119.249 111.058 119.021 110.83 118.739 110.83C118.458 110.83 118.229 111.058 118.229 111.34C118.229 111.622 118.458 111.85 118.739 111.85Z" fill="#5E5639"/>
<path d="M120.48 111.77C120.761 111.77 120.99 111.542 120.99 111.26C120.99 110.978 120.761 110.75 120.48 110.75C120.198 110.75 119.97 110.978 119.97 111.26C119.97 111.542 120.198 111.77 120.48 111.77Z" fill="#5E5639"/>
<path d="M121.16 113.79C121.442 113.79 121.67 113.561 121.67 113.28C121.67 112.998 121.442 112.77 121.16 112.77C120.878 112.77 120.65 112.998 120.65 113.28C120.65 113.561 120.878 113.79 121.16 113.79Z" fill="#5E5639"/>
<path d="M112.66 113.8C112.942 113.8 113.17 113.572 113.17 113.29C113.17 113.009 112.942 112.78 112.66 112.78C112.378 112.78 112.15 113.009 112.15 113.29C112.15 113.572 112.378 113.8 112.66 113.8Z" fill="#5E5639"/>
<path d="M113.81 115.58C114.091 115.58 114.32 115.351 114.32 115.07C114.32 114.788 114.091 114.56 113.81 114.56C113.528 114.56 113.3 114.788 113.3 115.07C113.3 115.351 113.528 115.58 113.81 115.58Z" fill="#5E5639"/>
<path d="M115.94 115.78C116.221 115.78 116.45 115.551 116.45 115.27C116.45 114.988 116.221 114.76 115.94 114.76C115.658 114.76 115.43 114.988 115.43 115.27C115.43 115.551 115.658 115.78 115.94 115.78Z" fill="#5E5639"/>
<path d="M116.76 117.61C117.041 117.61 117.27 117.382 117.27 117.1C117.27 116.818 117.041 116.59 116.76 116.59C116.478 116.59 116.25 116.818 116.25 117.1C116.25 117.382 116.478 117.61 116.76 117.61Z" fill="#5E5639"/>
<path d="M118.67 118.1C118.951 118.1 119.18 117.872 119.18 117.59C119.18 117.308 118.951 117.08 118.67 117.08C118.388 117.08 118.16 117.308 118.16 117.59C118.16 117.872 118.388 118.1 118.67 118.1Z" fill="#5E5639"/>
<path d="M109.78 126.319C107.54 127.819 104.31 128.689 102.97 125.439C101.35 121.509 105.8 116.819 109.75 118.389C113.32 119.809 112.46 124.529 109.78 126.319Z" fill="white"/>
<path d="M109.45 125.759C108.2 126.589 106.28 127.539 104.81 126.719C103.18 125.819 102.98 123.499 103.64 121.949C104.3 120.399 105.92 118.929 107.71 118.749C109.38 118.579 111.04 119.509 111.4 121.189C111.76 122.869 110.85 124.799 109.45 125.759C108.76 126.229 109.41 127.359 110.11 126.879C111.79 125.729 112.91 123.649 112.76 121.589C112.6 119.279 110.81 117.659 108.54 117.449C106.27 117.239 103.99 118.729 102.85 120.669C101.65 122.709 101.63 125.579 103.43 127.299C105.33 129.119 108.2 128.149 110.11 126.889C110.8 126.429 110.15 125.299 109.45 125.769V125.759Z" fill="#231F20"/>
<path d="M107.07 124.84C107.77 125.17 108.37 125.71 108.76 126.37" stroke="#231F20" stroke-linecap="round" stroke-linejoin="round"/>
<path d="M109.51 122.54C110.27 123.02 110.78 123.87 110.85 124.77" stroke="#231F20" stroke-linecap="round" stroke-linejoin="round"/>
<path d="M68.2429 78.5584L56.5913 86.0645L59.1258 89.9987L70.7774 82.4927L68.2429 78.5584Z" fill="#FF888D" stroke="#FF888D" stroke-miterlimit="10"/>
<path d="M59.1299 90L64.9099 98.98" stroke="#FF888D" stroke-miterlimit="10"/>
<path d="M63.8713 102.318C65.5241 101.253 66.1827 99.3325 65.3423 98.0278C64.5018 96.7232 62.4806 96.5287 60.8277 97.5935C59.1749 98.6583 58.5163 100.579 59.3567 101.884C60.1972 103.188 62.2184 103.383 63.8713 102.318Z" fill="#FF888D" stroke="#FF888D" stroke-miterlimit="10"/>
<path d="M70.7798 82.5L76.5698 91.47" stroke="#FF888D" stroke-miterlimit="10"/>
<path d="M75.5178 94.8161C77.1706 93.7513 77.8292 91.8305 76.9887 90.5259C76.1483 89.2212 74.127 89.0268 72.4742 90.0916C70.8213 91.1564 70.1628 93.0771 71.0032 94.3818C71.8437 95.6864 73.8649 95.8809 75.5178 94.8161Z" fill="#FF888D" stroke="#FF888D" stroke-miterlimit="10"/>
<path d="M200.781 97.4071L189.318 91.3174L187.263 95.1854L198.726 101.275L200.781 97.4071Z" fill="#FFCF6E" stroke="#FFCF6E" stroke-miterlimit="10"/>
<path d="M187.25 95.1904L182.56 104.02" stroke="#FFCF6E" stroke-miterlimit="10"/>
<path d="M183.521 103.92C184.203 102.637 183.438 100.898 181.814 100.035C180.19 99.1725 178.321 99.5129 177.64 100.796C176.958 102.078 177.722 103.818 179.347 104.68C180.971 105.543 182.84 105.203 183.521 103.92Z" fill="#FFCF6E" stroke="#FFCF6E" stroke-miterlimit="10"/>
<path d="M198.71 101.28L194.02 110.11" stroke="#FFCF6E" stroke-miterlimit="10"/>
<path d="M194.986 110.017C195.667 108.734 194.903 106.995 193.279 106.132C191.655 105.269 189.786 105.61 189.105 106.892C188.423 108.175 189.187 109.914 190.811 110.777C192.436 111.64 194.305 111.3 194.986 110.017Z" fill="#FFCF6E" stroke="#FFCF6E" stroke-miterlimit="10"/>
<path d="M138.05 44.4199L132.18 58.1199" stroke="#5FBEED" stroke-linecap="round" stroke-linejoin="round"/>
<path d="M133.138 57.9551C133.709 56.6199 132.803 54.9505 131.112 54.2263C129.422 53.5021 127.588 53.9973 127.016 55.3325C126.444 56.6676 127.35 58.3371 129.041 59.0613C130.731 59.7855 132.566 59.2902 133.138 57.9551Z" fill="#5FBEED" stroke="#5FBEED" stroke-linecap="round" stroke-linejoin="round"/>
<path d="M141.73 54.0999L136.43 48.1999L138.16 44.1699L143.45 50.0699L141.73 54.0999Z" fill="#5FBEED" stroke="#5FBEED" stroke-linecap="round" stroke-linejoin="round"/>
<path d="M203.1 60.8203L206.07 75.4303" stroke="#FF888D" stroke-miterlimit="10"/>
<path d="M204.029 77.9893C205.832 77.623 207.058 76.1721 206.769 74.7487C206.479 73.3253 204.784 72.4684 202.982 72.8347C201.179 73.2011 199.953 74.6519 200.242 76.0753C200.531 77.4987 202.227 78.3557 204.029 77.9893Z" fill="#FF888D" stroke="#FF888D" stroke-miterlimit="10"/>
<path d="M55.4402 226.04C68.9202 228.35 78.7002 228.1 92.4002 227.07C96.5002 226.76 110.59 226.34 107.34 220.23C105.5 216.77 98.4602 216.09 94.6502 215.6C85.4402 214.4 75.6402 214.29 66.3502 214.99C61.7502 215.34 56.2902 216.03 51.9902 217.38C46.2302 219.18 48.0402 224.78 55.4502 226.05L55.4402 226.04Z" fill="#C5C1C5"/>
<path d="M88.0801 189.82C90.3401 189.86 92.6101 189.5 94.7401 188.75C95.4301 188.51 96.1101 188.22 96.6901 187.8C98.4301 186.54 99.0601 184.21 98.7401 182.13C98.3701 179.72 96.7201 177.9 94.8901 176.24C91.9401 173.55 88.4601 171.22 84.4901 170.45C83.2001 170.2 81.8701 170.12 80.5701 170.33C77.7101 170.8 75.0701 172.66 73.1201 174.76" fill="#F7BE4E"/>
<path d="M88.0802 190.321C89.9202 190.341 91.7601 190.131 93.5401 189.651C95.0901 189.231 96.7701 188.671 97.8501 187.411C99.7201 185.231 99.7202 181.971 98.3702 179.531C97.6302 178.181 96.5302 177.051 95.4002 176.011C94.2002 174.901 92.9201 173.871 91.5701 172.961C88.8801 171.151 85.7102 169.791 82.4302 169.701C78.6502 169.601 75.2901 171.721 72.7801 174.391C72.3401 174.861 73.0501 175.571 73.4901 175.101C75.4801 172.981 78.0802 171.111 81.0502 170.751C84.0202 170.391 87.2401 171.521 89.8401 173.041C92.2401 174.451 94.5502 176.291 96.3702 178.411C98.1902 180.531 99.0501 183.391 97.6701 185.911C96.8401 187.441 95.3202 188.071 93.7201 188.541C91.8901 189.091 89.9902 189.331 88.0802 189.311C87.4402 189.311 87.4402 190.301 88.0802 190.311V190.321Z" fill="#231F20"/>
<path d="M59.6201 202.491C58.1801 202.611 56.7001 202.44 55.3301 201.98C54.4901 201.69 53.7201 201.241 52.9001 200.921C52.0401 200.591 51.1501 200.411 50.2401 200.271C49.9801 200.341 49.7301 200.41 49.4801 200.51L49.7801 200.461C48.1501 200.911 46.7601 201.921 46.2301 203.551C45.6701 205.251 46.1301 207.221 47.2001 208.751C47.9701 209.851 49.0701 210.771 50.3501 211.251C54.3901 212.761 59.1901 209.401 60.1901 205.831C60.5001 204.721 60.6001 203.55 60.5301 202.37C60.2101 202.43 59.9001 202.471 59.6101 202.491H59.6201Z" fill="#F7BE4E"/>
<path d="M59.6202 202.49C59.0802 202.53 58.5302 202.52 57.9902 202.49C58.1602 207.06 53.5302 210.72 49.2402 207.3C47.9202 206.24 46.8002 204.63 47.5202 202.19C45.6102 203.3 46.2102 207.33 47.2102 208.75C47.9802 209.85 49.0802 210.77 50.3602 211.25C54.4002 212.76 59.2002 209.4 60.2002 205.83C60.5102 204.72 60.6102 203.55 60.5402 202.37C60.2202 202.43 59.9102 202.47 59.6202 202.49Z" fill="white"/>
<path d="M54.4702 200.93C53.1102 199.65 51.2402 199.06 49.4402 199.75C47.7602 200.4 46.5102 201.86 45.9302 203.55C44.7402 207.07 47.0602 210.69 50.4502 211.78C52.3302 212.39 54.4202 212.13 56.0602 211.01C56.7502 210.54 56.1002 209.41 55.4002 209.89C53.0402 211.51 49.8402 210.83 48.0602 208.66C46.2802 206.49 46.6902 202.83 49.2402 201.29C50.7002 200.4 52.3302 200.7 53.5502 201.85C54.1602 202.42 55.0802 201.51 54.4702 200.93Z" fill="#231F20"/>
<path d="M55.98 206.48C56.21 206.17 56.32 205.76 56.32 205.37C56.32 204.98 56.2 204.57 55.98 204.24C55.88 204.1 55.76 203.99 55.59 203.94C55.43 203.9 55.23 203.92 55.09 204.01C54.95 204.1 54.83 204.23 54.79 204.4C54.75 204.57 54.76 204.76 54.86 204.9C54.92 204.98 54.96 205.07 55 205.16L54.93 205C54.98 205.11 55.01 205.23 55.03 205.35L55.01 205.18C55.03 205.31 55.03 205.44 55.01 205.56L55.03 205.39C55.01 205.51 54.98 205.62 54.94 205.73L55.01 205.57C54.97 205.66 54.92 205.74 54.87 205.82C54.78 205.95 54.76 206.17 54.8 206.32C54.84 206.47 54.96 206.63 55.1 206.71C55.25 206.79 55.43 206.83 55.6 206.78C55.77 206.73 55.88 206.63 55.99 206.48H55.98Z" fill="#231F20"/>
<path d="M53.7801 194.371C52.3601 202.471 56.6701 209.551 58.3301 218.331C58.4201 218.811 58.6901 219.251 59.0101 219.631C59.6701 220.421 60.8101 220.711 61.8801 220.751C62.9501 220.791 63.7901 220.921 64.8501 221.011C65.8401 221.091 67.0501 221.081 68.0401 221.121C69.0301 221.161 69.7101 221.131 70.2301 220.341C70.8301 219.421 70.6801 218.201 70.4701 217.141C70.2601 216.081 70.3401 213.951 71.4201 213.601C71.8301 213.471 72.5901 214.071 73.0301 214.111C76.0501 214.411 79.1601 213.981 81.9601 212.791C82.7901 212.441 82.8601 212.431 83.4601 213.111C83.9601 213.681 84.4801 214.221 85.0401 214.731C86.2001 215.771 87.1801 217.171 88.5901 217.841C89.0901 218.081 90.1401 218.311 90.6901 218.341C91.8301 218.421 93.2001 217.261 94.0501 216.491C95.1401 215.511 95.5801 214.281 96.3301 213.031C96.9801 211.961 98.0601 210.571 97.2401 209.351C96.6801 208.521 95.2201 208.851 94.3401 207.681C93.5301 206.611 92.2801 205.771 91.4601 204.701C91.5401 204.801 92.0201 203.591 92.0501 203.491C92.1801 202.991 92.5001 202.261 92.7301 201.801C93.1301 200.981 93.4901 200.431 93.6801 199.531C94.7001 194.751 94.3901 192.011 93.6401 187.191C92.8901 182.371 90.5601 177.781 86.9201 174.311C83.2801 170.841 77.9801 168.771 72.8401 169.411C67.0701 170.131 64.2201 173.811 61.4301 178.131C58.1601 183.211 54.8301 188.431 53.7801 194.381V194.371Z" fill="#F7BE4E"/>
<path d="M89.3899 207.911C93.8199 202.871 94.7999 196.151 93.5199 189.911C92.2399 183.671 90.4499 177.271 85.6299 172.671C84.0499 171.161 82.2199 169.681 79.8699 169.811C77.8999 169.921 76.0599 170.641 74.1999 171.181C71.9699 171.821 66.5299 172.641 65.6499 175.161C65.3499 176.031 66.0199 176.891 66.3699 177.741C66.5899 178.271 66.6899 178.841 66.7699 179.411C67.4499 184.811 65.5899 189.701 64.8299 194.961C64.4799 197.361 64.4799 199.921 65.5599 202.161C66.4099 203.921 67.8199 205.321 69.0499 206.831C70.4699 208.571 71.5399 210.331 71.5799 212.581C71.5799 212.921 71.5599 213.251 71.5299 213.591C71.9599 213.571 72.6299 214.071 73.0299 214.111C79.1799 214.721 85.5399 212.291 89.3899 207.911Z" fill="white"/>
<path d="M64.0402 221.38C64.6802 221.45 65.2702 221.5 65.7202 221.57C66.6202 221.7 67.5502 221.81 68.4402 221.6C69.3302 221.39 70.1702 220.8 70.3802 219.97C70.6102 219.09 70.1602 217.99 70.0702 217.09C68.6702 217.34 67.2502 217.39 65.8302 217.42C63.1802 217.47 61.0802 216.96 58.2202 215.87C58.4602 217.13 58.4302 218.99 59.4402 219.95C60.2602 220.73 61.5602 221.02 62.6702 221.2C65.1602 221.61 68.0402 221.56 70.5002 221" fill="white"/>
<path d="M96.8502 209.24C96.2702 208.72 95.8802 208.91 95.1402 208.66C94.6702 209.96 94.1302 210.85 93.1202 212.44C91.8802 214.4 90.3502 215.97 88.2402 217.57C89.3702 218.16 90.9202 218.41 92.2802 217.82C93.1302 217.45 94.5502 216.25 95.1402 215.47C96.3102 213.89 98.5002 210.7 96.8502 209.23V209.24Z" fill="white"/>
<path d="M92.7302 218.811C92.7102 218.881 92.6802 218.951 92.6602 219.021C92.7302 219.061 92.7902 219.111 92.8702 219.151C93.7402 219.611 94.8702 219.701 95.9402 219.701C98.0902 219.701 103.5 219.501 103.75 217.301C103.82 216.701 103.1 215.901 102.8 215.291C101.85 215.891 98.6702 217.531 92.7302 218.811Z" fill="white"/>
<path d="M83.0999 171.87C87.7299 175.4 90.9599 180.51 92.4599 186.11C93.7899 191.08 93.8499 196.53 92.1199 201.41C91.2699 203.8 89.9399 206.02 88.0599 207.74C87.4399 208.31 88.3599 209.22 88.9799 208.66C92.7199 205.24 94.3699 200.08 94.6799 195.14C95.0499 189.39 93.6199 183.5 90.6999 178.54C88.9099 175.51 86.5499 172.88 83.7599 170.75C83.0899 170.24 82.4499 171.37 83.0999 171.87Z" fill="#231F20"/>
<path d="M60.08 177.69C57.78 182.03 55.36 186.31 54.08 191.09C52.88 195.57 52.61 200.17 53.83 204.67C54.97 208.88 56.99 212.83 57.64 217.17C57.79 218.19 57.76 219.3 58.55 220.08C59.28 220.81 60.41 221.06 61.39 221.28C63.74 221.82 66.31 222.07 68.71 221.76C69.75 221.62 70.76 221.15 71.02 220.04C71.24 219.06 70.81 218.1 70.85 217.12C70.89 216.01 71.23 214.96 71.44 213.87C71.67 212.7 71.65 211.56 71.33 210.41C71.1 209.61 69.85 209.95 70.08 210.76C70.61 212.64 69.91 214.27 69.65 216.12C69.53 217.01 69.57 217.79 69.72 218.67C69.78 219.02 69.86 219.43 69.76 219.78C69.63 220.25 69.18 220.38 68.75 220.46C67.68 220.66 66.51 220.6 65.42 220.54C64.26 220.48 63.11 220.33 61.98 220.08C61.12 219.89 59.69 219.72 59.25 218.83C59.06 218.43 59.06 217.94 59.01 217.51C58.95 217.01 58.87 216.51 58.78 216.01C58.04 212.08 56.27 208.45 55.19 204.61C54.64 202.66 54.29 200.67 54.32 198.65C54.35 196.47 54.65 194.3 55.16 192.19C56.37 187.22 58.85 182.82 61.22 178.34C61.61 177.6 60.49 176.94 60.1 177.68L60.08 177.69Z" fill="#231F20"/>
<path d="M71.6102 214.231C76.8902 215.431 82.4102 213.401 87.0502 210.991C87.7902 210.611 87.1402 209.481 86.3902 209.871C82.0802 212.101 76.8702 214.101 71.9502 212.971C71.1402 212.781 70.7902 214.041 71.6002 214.221L71.6102 214.231Z" fill="#231F20"/>
<path d="M91.0402 205.08C92.0802 206.01 92.9002 207.19 93.9102 208.16C94.3702 208.6 94.8602 209.07 95.4702 209.29C96.2602 209.57 97.2702 209.74 97.0602 210.79C96.8802 211.68 96.3302 212.52 95.8302 213.26C95.3002 214.06 94.7202 214.85 94.0702 215.55C92.9202 216.8 91.0202 218.35 89.2302 217.48C88.1402 216.95 87.2202 216.07 86.3602 215.24C85.2702 214.18 84.2602 213.05 83.2302 211.94C82.6602 211.32 81.7502 212.24 82.3102 212.86C84.1102 214.82 85.9502 217.14 88.3102 218.47C90.2702 219.57 92.2902 218.83 93.9302 217.49C94.8602 216.73 95.6002 215.78 96.3202 214.82C96.9502 213.97 97.5502 213.08 97.9802 212.11C98.3402 211.29 98.6302 210.27 98.1302 209.44C97.8702 209.01 97.4602 208.68 97.0102 208.47C96.5302 208.24 96.0002 208.19 95.6402 207.95C94.1702 206.97 93.2602 205.34 91.9602 204.18C91.3402 203.62 90.4202 204.54 91.0402 205.1V205.08Z" fill="#231F20"/>
<path d="M87.0901 199.72C87.2101 198.79 87.4201 197.62 88.0001 196.8C88.5101 196.08 89.4201 195.66 90.2201 195.15C91.7601 194.18 92.9301 192.77 93.6701 191.19C95.2701 188.73 94.9101 185.63 93.6401 183.15C92.4801 180.9 90.6001 178.98 88.2401 177.85C86.0301 176.72 83.3601 176.25 80.9501 177.12C79.1001 177.57 77.3801 178.47 76.0901 179.82C75.4501 180.49 74.8801 181.29 74.0501 181.66C73.1001 182.09 71.8801 182.27 70.8901 182.32C64.7101 182.61 63.1601 184.55 60.8401 188.73C59.7301 190.71 59.4501 192.7 59.5101 193.78C59.7101 197.48 61.2301 199.64 63.8601 202.4C63.9801 202.54 64.1001 202.68 64.2201 202.81C66.8801 205.82 68.9101 207.12 72.5301 208.13C73.6401 208.44 75.8701 208.71 77.0101 208.55C82.3201 207.85 86.4601 204.67 87.1101 199.7L87.0901 199.72Z" fill="#DB904E"/>
<path d="M87.5903 199.72C87.7203 198.76 87.9003 197.6 88.6003 196.87C89.3003 196.14 90.2703 195.78 91.0603 195.19C92.6103 194.03 93.6803 192.45 94.5103 190.73C96.2103 187.2 94.7303 183.06 92.2703 180.3C89.8103 177.54 85.5103 175.5 81.6503 176.4C79.7503 176.85 77.8903 177.59 76.3903 178.86C75.6403 179.5 75.0903 180.36 74.2903 180.94C73.4903 181.52 72.2603 181.72 71.2603 181.8C68.3703 182.03 65.4303 182.28 63.2403 184.4C62.3403 185.27 61.6403 186.34 61.0003 187.42C60.0503 189.03 59.2703 190.7 59.0503 192.58C58.6303 196.02 60.2703 199.16 62.4803 201.66C63.7103 203.05 64.9503 204.49 66.3903 205.67C67.6403 206.69 69.0203 207.46 70.5303 208.03C72.1203 208.63 73.7603 208.99 75.4603 209.09C77.1603 209.19 78.7603 208.85 80.3003 208.29C83.2603 207.22 85.8003 205.14 86.9803 202.17C87.2703 201.43 87.4603 200.65 87.5703 199.86C87.6603 199.23 86.6903 198.96 86.6103 199.59C86.1903 202.61 84.4003 205.07 81.7403 206.54C79.0803 208.01 75.8103 208.47 72.7603 207.69C71.2603 207.3 69.7803 206.74 68.4503 205.93C67.0503 205.07 65.8603 203.92 64.7603 202.7C63.6603 201.48 62.4203 200.22 61.5203 198.78C60.6203 197.34 60.1503 195.83 60.0103 194.19C59.8703 192.47 60.3303 190.73 61.1303 189.2C61.7303 188.07 62.3903 186.92 63.2003 185.92C64.8703 183.86 67.2203 183.13 69.7903 182.9C71.5203 182.75 73.5003 182.8 74.9403 181.69C75.6403 181.15 76.1503 180.43 76.7903 179.83C77.4703 179.2 78.2603 178.69 79.0903 178.3C80.8903 177.45 82.9703 176.96 84.9503 177.28C86.8103 177.58 88.6203 178.44 90.0903 179.61C92.8303 181.8 94.9703 185.63 94.0003 189.21C93.7603 190.1 93.2803 190.92 92.8203 191.72C92.3603 192.52 91.8003 193.22 91.1303 193.83C89.8103 195.04 87.9203 195.53 87.1603 197.28C86.8303 198.06 86.6903 198.88 86.5703 199.72C86.4803 200.36 87.4903 200.35 87.5703 199.72H87.5903Z" fill="#231F20"/>
<path d="M78.7603 198.12C76.4003 200.03 72.8503 199.78 70.8203 197.56C68.7903 195.35 69.0603 192.01 71.4103 190.1C73.7703 188.19 77.3203 188.44 79.3503 190.66C81.3803 192.88 81.1103 196.21 78.7603 198.12Z" fill="#231F20"/>
<path d="M70.9903 204L64.0703 196.44L66.0203 194.86L72.9403 202.42L70.9903 204Z" fill="white" stroke="#231F20" stroke-linecap="round" stroke-linejoin="round"/>
<path d="M82.6402 191.47L78.9902 187.48L98.1302 172L101.78 175.99L82.6402 191.47Z" fill="#93684E" stroke="#231F20" stroke-miterlimit="10"/>
<path d="M96.4701 174.45L67.3301 198" stroke="white" stroke-width="0.5" stroke-linecap="round" stroke-linejoin="round"/>
<path d="M97.3199 175.38L68.1699 198.93" stroke="white" stroke-width="0.5" stroke-linecap="round" stroke-linejoin="round"/>
<path d="M98.16 176.3L69.02 199.85" stroke="white" stroke-width="0.5" stroke-linecap="round" stroke-linejoin="round"/>
<path d="M99.0101 177.23L69.8701 200.78" stroke="white" stroke-width="0.5" stroke-linecap="round" stroke-linejoin="round"/>
<path d="M99.6602 165.73L102.46 168.79" stroke="#231F20" stroke-width="2" stroke-linecap="round" stroke-linejoin="round"/>
<path d="M100.03 166.3C99.4202 166.79 98.5102 166.73 97.9902 166.16C97.4702 165.59 97.5402 164.73 98.1402 164.24C98.7402 163.75 99.6602 163.81 100.18 164.38C100.7 164.95 100.63 165.81 100.03 166.3Z" fill="#F7BE4E" stroke="#231F20" stroke-miterlimit="10"/>
<path d="M96.4702 168.891L99.0202 171.681" stroke="#231F20" stroke-width="2" stroke-linecap="round" stroke-linejoin="round"/>
<path d="M96.8402 169.46C96.2302 169.95 95.3202 169.89 94.8002 169.32C94.2802 168.75 94.3502 167.89 94.9502 167.4C95.5502 166.91 96.4702 166.97 96.9902 167.54C97.5102 168.11 97.4402 168.97 96.8402 169.46Z" fill="#F7BE4E" stroke="#231F20" stroke-miterlimit="10"/>
<path d="M108.75 175.76L105.94 172.7" stroke="#231F20" stroke-width="2" stroke-linecap="round" stroke-linejoin="round"/>
<path d="M108 175.11C107.39 175.6 107.33 176.46 107.85 177.03C108.37 177.6 109.29 177.66 109.89 177.17C110.49 176.68 110.56 175.82 110.04 175.25C109.52 174.68 108.6 174.62 108 175.11Z" fill="#F7BE4E" stroke="#231F20" stroke-miterlimit="10"/>
<path d="M104.95 178.261L102.39 175.471" stroke="#231F20" stroke-width="2" stroke-linecap="round" stroke-linejoin="round"/>
<path d="M104.2 177.61C103.59 178.1 103.53 178.96 104.05 179.53C104.57 180.1 105.49 180.16 106.09 179.67C106.69 179.18 106.76 178.32 106.24 177.75C105.72 177.18 104.8 177.12 104.2 177.61Z" fill="#F7BE4E" stroke="#231F20" stroke-miterlimit="10"/>
<path d="M98.3004 176.45L97.2104 175.26C96.1304 174.08 95.9804 172.34 96.9604 171.3L100.4 167.64C101.9 166.05 104.52 165.97 106.06 167.66L107.61 169.35C109.16 171.04 108.69 173.46 106.79 174.62L102.43 177.27C101.18 178.03 99.3804 177.63 98.2904 176.45H98.3004Z" fill="#93684E" stroke="#231F20" stroke-miterlimit="10"/>
<path d="M61.0203 173.32C55.2803 177.03 53.0803 183.78 55.9703 190.33C58.2003 195.4 70.1203 201.96 73.9803 195.01C75.0103 193.16 74.6003 191.18 72.8303 189.9C70.4203 188.16 67.1303 188.39 65.6203 185.45C65.1503 184.54 64.9703 183.53 64.7803 182.54" fill="#F7BE4E"/>
<path d="M72.8301 189.9C71.7901 189.15 70.5801 188.76 69.4301 188.33C67.6201 189.94 66.1201 191.86 65.2001 194.05C64.7801 195.06 64.4901 196.1 64.3301 197.16C68.0801 198.58 72.0401 198.49 73.9801 195.01C75.0101 193.16 74.6001 191.18 72.8301 189.9Z" fill="white"/>
<path d="M60.6899 172.76C56.8599 175.27 54.2599 179.32 54.0599 183.95C53.9599 186.27 54.4599 188.64 55.4399 190.74C56.0899 192.13 57.1899 193.32 58.3399 194.31C61.0199 196.63 64.5299 198.47 68.1199 198.65C69.7099 198.73 71.3699 198.39 72.6799 197.44C74.1999 196.33 75.3799 194.42 75.1399 192.48C74.8099 189.81 72.2599 188.68 70.0299 187.86C68.9999 187.48 67.9099 187.1 67.0899 186.34C65.9599 185.3 65.6599 183.81 65.3899 182.36C65.2399 181.54 63.9899 181.89 64.1399 182.71C64.5499 184.93 65.2699 186.93 67.3299 188.11C68.9499 189.04 70.8899 189.32 72.4199 190.41C74.2599 191.72 74.1799 193.93 72.8099 195.56C71.9099 196.64 70.6099 197.23 69.2099 197.34C65.9999 197.6 62.7399 196.02 60.2099 194.17C59.0399 193.31 57.9199 192.28 57.0999 191.07C56.0699 189.54 55.5499 187.57 55.3799 185.75C54.9399 180.94 57.3199 176.5 61.3199 173.88C62.0199 173.42 61.3699 172.3 60.6599 172.76H60.6899Z" fill="#231F20"/>
<path d="M95.9206 182.391C92.7906 181.291 91.8406 177.161 94.7506 175.311C95.9006 174.581 97.4906 174.531 98.6906 175.171C99.0806 175.381 99.4206 175.651 99.7206 175.961C103.391 179.681 100.031 186.151 95.9806 188.271" fill="#F7BE4E"/>
<path d="M93.8204 182.26C94.9404 183.09 96.6004 183.18 98.0004 182.69C99.1504 182.29 100.93 181.16 101.23 179.86C101.53 178.56 100.57 176.84 99.7104 175.96C99.4104 175.65 99.0604 175.38 98.6804 175.17C97.4804 174.52 95.8904 174.58 94.7404 175.31C93.1004 176.35 92.2104 178.52 92.6404 180.41C92.8204 181.23 93.2504 181.84 93.8204 182.26Z" fill="white"/>
<path d="M94.6604 182.33C91.3404 181.08 93.4204 175.98 96.1804 175.44C98.2504 175.03 99.9904 176.67 100.46 178.58C100.87 180.24 100.36 182.02 99.5604 183.49C98.6204 185.22 97.2104 186.73 95.4704 187.66C94.7304 188.05 95.3904 189.18 96.1304 188.78C99.7004 186.87 102.92 182.1 101.63 177.94C100.89 175.53 98.6104 173.72 96.0204 174.15C93.9104 174.5 92.3004 176.39 91.8404 178.42C91.3504 180.57 92.1604 182.78 94.3104 183.58C95.0904 183.87 95.4304 182.62 94.6604 182.33Z" fill="#231F20"/>
<path d="M92.97 219.84C94.28 220.29 95.73 220.24 97.09 220.14C98.45 220.04 99.97 219.92 101.37 219.64C102.47 219.42 104.07 218.98 104.38 217.71C104.67 216.56 103.7 215.62 102.77 215.13C102.2 214.83 101.7 215.69 102.27 215.99C102.84 216.29 103.84 217.02 103.26 217.75C102.93 218.17 102.32 218.35 101.83 218.49C101.2 218.67 100.55 218.78 99.9 218.85C98.78 218.98 97.66 219.11 96.54 219.17C95.42 219.23 94.29 219.23 93.23 218.87C92.62 218.66 92.36 219.63 92.96 219.83L92.97 219.84Z" fill="#231F20"/>
<path d="M97.8904 214.06C97.9704 214.14 98.0404 214.22 98.1104 214.31C98.1304 214.33 98.1404 214.35 98.1604 214.37C98.2004 214.42 98.1204 214.32 98.1604 214.37C98.1904 214.41 98.2304 214.46 98.2604 214.5C98.3904 214.68 98.5004 214.87 98.6004 215.07C98.6204 215.12 98.6504 215.16 98.6704 215.21C98.6804 215.23 98.6904 215.26 98.7004 215.28C98.7004 215.29 98.7004 215.3 98.7204 215.32C98.7104 215.3 98.6904 215.26 98.7204 215.3C98.7604 215.4 98.8004 215.51 98.8404 215.61C98.9104 215.82 98.9604 216.03 99.0004 216.24C99.0004 216.27 99.0104 216.31 99.0204 216.34C99.0204 216.35 99.0204 216.37 99.0204 216.38C99.0204 216.36 99.0204 216.31 99.0204 216.36C99.0204 216.42 99.0304 216.48 99.0404 216.54C99.0504 216.67 99.0604 216.8 99.0604 216.92C99.0604 217.12 99.2304 217.3 99.4404 217.3C99.6504 217.3 99.8104 217.14 99.8204 216.92C99.8204 215.96 99.5304 214.98 98.9904 214.18C98.8304 213.95 98.6504 213.72 98.4604 213.52C98.3204 213.38 98.0604 213.37 97.9304 213.52C97.8004 213.67 97.7904 213.9 97.9304 214.05L97.8904 214.06Z" fill="#231F20"/>
<path d="M98.9 212.281C98.9 212.281 98.99 212.341 99.03 212.371C99.05 212.381 99.07 212.401 99.09 212.411C99.09 212.411 99.02 212.351 99.06 212.391C99.07 212.391 99.08 212.411 99.09 212.421C99.17 212.491 99.25 212.551 99.33 212.621C99.48 212.761 99.63 212.921 99.76 213.091C99.81 213.151 99.72 213.041 99.76 213.091C99.77 213.111 99.79 213.131 99.8 213.151C99.83 213.191 99.86 213.241 99.9 213.291C99.96 213.381 100.01 213.461 100.07 213.551C100.13 213.641 100.17 213.731 100.22 213.831C100.24 213.881 100.26 213.921 100.29 213.971C100.29 213.971 100.29 213.991 100.3 214.001C100.32 214.041 100.27 213.921 100.29 213.971C100.3 214.001 100.31 214.031 100.32 214.061C100.41 214.281 100.47 214.511 100.52 214.741C100.56 214.931 100.8 215.061 100.98 215.001C101.18 214.931 101.28 214.741 101.24 214.541C101.05 213.641 100.58 212.791 99.92 212.161C99.73 211.971 99.51 211.801 99.29 211.651C99.13 211.541 98.87 211.611 98.78 211.781C98.68 211.971 98.74 212.171 98.91 212.291L98.9 212.281Z" fill="#231F20"/>
<path d="M91.24 114.38C91.18 114.28 91.13 114.18 91.07 114.08C90.8 113.62 90.5 113.15 90.05 112.82C89.04 112.09 87.6 112.32 86.39 112.68C82.86 113.74 79.67 115.74 77.2 118.34C76.01 119.59 74.98 120.98 74.15 122.47C73.35 123.92 73.96 126.35 72.12 127.03C71.43 127.29 70.66 127.29 69.92 127.31C63.37 127.48 54.75 128.83 50 133.51C49.81 133.7 49.58 133.91 49.3 133.9C49.13 133.9 48.95 133.83 48.83 133.71C42.88 128.4 25.02 123.85 24.92 131.94C24.83 138.42 27.71 141.68 31.85 146.85C33.77 149.25 36.75 150.18 36.6 151.55C36.34 153.97 38.2 163.25 37.06 166.72C36.41 168.69 38.7 170.13 40.45 169.74C40.38 169.79 40.3 169.84 40.23 169.89C39.69 171.85 41.8 173.34 43.62 172.91C46.24 172.29 48.99 174.1 51.39 174.93C54.16 175.9 56.78 176 59.65 175.6C66.36 174.67 75.46 171.53 81.87 169.42C87.09 167.7 92.32 164.75 95.92 160.76C97.72 158.76 99.17 156.37 99.43 153.72C99.78 150.1 97.47 149.42 96.09 146.44C95.04 144.18 95.38 141.59 94.13 139.37C92.36 136.23 94.46 130.94 94.4 127.29C94.32 122.84 93.48 118.32 91.25 114.35L91.24 114.38Z" fill="#F7BE4E"/>
<path d="M46.6502 138.66C44.3202 136.79 42.1002 135.6 39.3602 134.26C34.9102 132.08 29.3302 131.54 31.0102 137.86C32.5302 143.57 38.2402 147.23 40.7002 149.1C42.5002 143.96 43.4302 142.45 46.6502 138.65V138.66Z" fill="white"/>
<path d="M89.8299 134.01C90.7499 131.11 90.8699 129.52 90.9899 127.18C91.1199 124.57 90.8999 119.32 87.7399 118.2C87.0099 117.94 86.0399 118.28 85.0599 118.86C83.5099 119.78 81.9299 121.31 81.2199 122.05C79.5799 123.75 78.3299 125.77 77.1499 127.79C82.2399 128.75 86.9299 129.99 89.8299 134V134.01Z" fill="white"/>
<path d="M95.27 167.099C99.75 163.889 104.95 156.269 101.02 150.929C99.51 148.879 98.14 146.639 95.05 147.409C93.89 147.699 92.71 148.059 91.71 148.689C87.98 151.059 84.17 151.459 80.48 148.859C73.47 143.909 71.1 134.869 71.51 127.109C67.34 127.139 63.84 128.029 59.83 129.109C60.65 128.889 62.99 132.939 63.37 133.559C66.04 138.009 68.34 143.069 68.73 148.219C69.05 152.439 67.63 156.349 62.93 157.679C57.59 159.189 56.53 156.739 48.23 159.099C45.27 159.939 36.29 163.999 36.78 167.839C36.99 169.469 38.54 169.859 40.32 169.459C40.25 169.509 40.17 169.559 40.1 169.609C39.48 171.969 43.06 174.329 45.17 172.809C47 175.019 50.05 176.019 53 176.429C57.78 177.089 62.64 176.509 67.42 175.859C77.22 174.519 87.39 172.729 95.27 167.089V167.099Z" fill="white"/>
<path d="M50.71 134.24C51.36 133.37 52.32 132.72 53.23 132.17C54.61 131.34 56.09 130.7 57.6 130.16C61.5 128.78 65.65 128.07 69.79 127.94C72.44 127.86 75.1 128.03 77.71 128.47C78.53 128.61 78.88 127.36 78.06 127.22C73.29 126.4 68.42 126.45 63.66 127.26C59.94 127.9 56.16 128.98 52.87 130.87C51.64 131.58 50.44 132.43 49.58 133.58C49.08 134.25 50.21 134.9 50.7 134.24H50.71Z" fill="#231F20"/>
<path d="M35.8702 152.88C35.6502 154.99 35.9002 157.1 36.2602 159.18C36.5502 160.9 37.0302 162.66 36.9502 164.42C36.8802 165.99 35.3002 167.54 36.4402 169.05C37.3802 170.3 39.2102 170.04 40.5302 170.53L40.0502 169.9C39.9502 171.41 40.1602 173.04 41.7102 173.74C43.0102 174.32 44.7102 174.27 46.0102 173.75C46.7802 173.44 46.4402 172.19 45.6602 172.5C44.6902 172.89 43.5002 172.99 42.4902 172.66C41.2502 172.26 41.2702 171.01 41.3402 169.9C41.3602 169.6 41.1202 169.37 40.8602 169.27C40.1802 169.02 39.4602 168.96 38.7502 168.82C38.1402 168.7 37.3302 168.55 37.3002 167.78C37.2702 167.01 37.9002 166.28 38.0802 165.54C38.2402 164.92 38.2602 164.27 38.2302 163.64C38.1502 162.02 37.7702 160.42 37.5002 158.82C37.1602 156.85 36.9502 154.86 37.1602 152.87C37.2502 152.04 35.9502 152.04 35.8602 152.87L35.8702 152.88Z" fill="#231F20"/>
<path d="M46.93 175.18C48.1 175.99 49.5 176.43 50.87 176.74C52.65 177.14 54.48 177.33 56.29 177.42C60.3 177.63 64.34 177.4 68.32 176.92C70.16 176.69 72 176.42 73.81 176.01C74.63 175.83 74.28 174.57 73.46 174.76C70.1 175.52 66.65 175.89 63.21 176.08C59.48 176.29 55.63 176.34 51.94 175.64C50.42 175.35 48.86 174.95 47.57 174.06C46.88 173.58 46.23 174.71 46.91 175.18H46.93Z" fill="#231F20"/>
<path d="M93.5099 137.95C94.0399 135.56 94.4799 133.21 94.5999 130.75C94.6899 128.81 94.6799 126.86 94.6299 124.92C94.5999 123.59 94.4999 122.27 94.2499 120.97C93.8599 119.02 93.1899 117.13 92.5299 115.26C92.2499 114.48 90.9999 114.81 91.2799 115.61C92.2899 118.5 93.2099 121.33 93.3199 124.4C93.4299 127.63 93.4899 130.95 92.9799 134.15C92.7899 135.31 92.5099 136.45 92.2599 137.59C92.0799 138.41 93.3299 138.75 93.5099 137.94V137.95Z" fill="#231F20"/>
<path d="M84.11 118.72C82.42 119.92 80.81 121.25 79.52 122.89C78.45 124.25 77.66 125.76 76.96 127.33C76.82 127.65 76.87 128.03 77.19 128.22C77.47 128.38 77.94 128.31 78.08 127.99C78.73 126.53 79.45 125.08 80.44 123.81C81.64 122.26 83.17 120.98 84.77 119.85C85.45 119.37 84.8 118.24 84.11 118.73V118.72Z" fill="#231F20"/>
<path d="M96.1799 144.96C95.7099 142.66 95.0399 140.41 93.9899 138.3C92.5299 135.38 90.3399 132.87 87.6199 131.05C85.6299 129.72 83.3899 128.78 81.0899 128.14C80.2799 127.92 79.9399 129.17 80.7399 129.39C84.3499 130.39 87.6899 132.18 90.1999 134.99C92.0099 137.01 93.2799 139.45 94.0899 142.02C94.4299 143.09 94.6899 144.19 94.9099 145.29C95.0799 146.11 96.3299 145.76 96.1599 144.94L96.1799 144.96Z" fill="#231F20"/>
<path d="M96.1999 147.46C98.3799 148.22 100.18 149.82 101.02 151.99C101.86 154.16 101.82 156.56 101.07 158.72C99.4899 163.26 95.0899 166.35 91.0499 168.53C88.4499 169.94 85.7099 171.07 82.9099 172.03C82.1199 172.3 82.4599 173.56 83.2599 173.28C88.5399 171.47 93.9099 169.06 98.0599 165.23C101.7 161.87 104.1 156.9 102.39 151.94C101.44 149.17 99.2899 147.15 96.5499 146.19C95.7599 145.91 95.4199 147.17 96.1999 147.44V147.46Z" fill="#231F20"/>
<path d="M87.1101 112.16C80.9501 113.68 76.2601 118.11 73.4301 123.66C73.0101 124.48 72.6401 125.32 72.2701 126.16C71.9401 126.92 73.0601 127.58 73.3901 126.82C75.2801 122.44 77.8901 118.35 81.9901 115.73C83.6701 114.66 85.5101 113.89 87.4501 113.41C88.2601 113.21 87.9201 111.96 87.1001 112.16H87.1101Z" fill="#231F20"/>
<path d="M90.0603 112.74C90.0603 112.74 90.0604 112.83 90.0504 112.88L90.0704 112.71C90.0404 112.94 89.9803 113.17 89.8803 113.39L89.9503 113.23C89.8603 113.45 89.7403 113.65 89.5903 113.84L89.6904 113.71C89.5904 113.84 89.4804 113.96 89.3604 114.06C89.1104 114.29 89.1104 114.75 89.3604 114.98C89.6304 115.23 90.0103 115.22 90.2803 114.98C90.9203 114.4 91.2904 113.59 91.3604 112.73C91.3704 112.57 91.2803 112.38 91.1703 112.27C91.0603 112.16 90.8704 112.07 90.7104 112.08C90.5504 112.09 90.3704 112.14 90.2504 112.27C90.1304 112.4 90.0703 112.55 90.0603 112.73V112.74Z" fill="#231F20"/>
<path d="M63.7402 152.11C64.1702 153.38 63.4202 154.73 62.0702 155.13C60.7202 155.53 59.2802 154.83 58.8602 153.56C58.4402 152.29 59.1802 150.94 60.5302 150.54C61.8802 150.14 63.3202 150.84 63.7402 152.11Z" fill="#231F20"/>
<path d="M88.6904 144.75C89.1204 146.02 88.3704 147.37 87.0204 147.77C85.6704 148.17 84.2304 147.47 83.8104 146.2C83.3904 144.93 84.1304 143.58 85.4804 143.18C86.8304 142.78 88.2704 143.48 88.6904 144.75Z" fill="#231F20"/>
<path d="M78.72 156.631C81.3385 155.905 83.1145 154.066 82.6868 152.522C82.259 150.979 79.7895 150.316 77.171 151.041C74.5524 151.767 72.7764 153.607 73.2042 155.15C73.6319 156.694 76.1014 157.357 78.72 156.631Z" fill="#231F20"/>
<path d="M39.0901 152.51C36.4301 150.53 33.8701 148.5 31.7601 145.91C30.5501 144.43 29.4701 142.83 28.4601 141.21C27.6601 139.92 26.9401 138.59 26.4801 137.14C25.9101 135.35 25.7601 133.5 25.8101 131.63C25.8301 130.79 24.5301 130.79 24.5101 131.63C24.4601 133.35 24.5801 135.09 25.0201 136.77C25.4301 138.32 26.1101 139.78 26.9201 141.16C28.8501 144.47 31.1901 147.63 34.0601 150.18C35.4501 151.42 36.9501 152.52 38.4401 153.63C39.1101 154.13 39.7601 153 39.1001 152.51H39.0901Z" fill="#231F20"/>
<path d="M26.7201 129.41C33.5601 126.94 40.8601 129.33 46.7701 133.04C48.1401 133.9 49.4601 134.85 50.7101 135.88C51.3501 136.41 52.2801 135.49 51.6301 134.96C46.3901 130.66 39.7601 127.16 32.8401 127.08C30.6401 127.05 28.4501 127.41 26.3801 128.16C25.6001 128.44 25.9401 129.7 26.7301 129.41H26.7201Z" fill="#231F20"/>
<path d="M31.4701 136.53C31.3601 135.73 30.8901 134.85 31.5601 134.2C31.8801 133.89 32.2701 133.69 32.6901 133.57C33.7301 133.28 34.8601 133.45 35.8801 133.71C38.4101 134.35 40.7901 135.67 42.9401 137.14C43.8101 137.74 44.6901 138.38 45.4101 139.16C45.9801 139.77 46.9001 138.85 46.3301 138.24C44.6101 136.4 42.2001 134.99 39.9601 133.89C37.7201 132.79 34.5201 131.45 31.9501 132.46C31.3501 132.7 30.8001 133.06 30.3901 133.57C29.5501 134.6 30.0501 135.72 30.2101 136.89C30.3201 137.72 31.5701 137.36 31.4601 136.54L31.4701 136.53Z" fill="#231F20"/>
<path d="M70.8703 162.409C70.2403 164.399 71.8103 166.289 73.6003 166.939C75.7803 167.729 78.2403 166.719 79.9803 165.399C80.2603 165.189 80.4103 164.839 80.2103 164.509C80.0503 164.229 79.6003 164.059 79.3203 164.279C77.9303 165.329 76.0703 166.259 74.2803 165.789C73.0003 165.459 71.6703 164.169 72.1203 162.759C72.3703 161.959 71.1203 161.619 70.8703 162.409Z" fill="#231F20"/>
<path d="M180.06 222.66C191.63 225.01 200.01 224.76 211.77 223.71C215.29 223.4 227.37 222.97 224.58 216.73C223 213.19 216.96 212.51 213.69 212.01C205.79 210.79 197.38 210.67 189.41 211.39C185.47 211.75 180.78 212.45 177.09 213.82C172.15 215.66 173.7 221.37 180.06 222.67V222.66Z" fill="#C5C1C5"/>
<path d="M174.34 186.58C174.83 186.86 175.31 187.23 175.96 187.64C176.75 188.15 177.57 188.41 178.51 188.5C178.85 188.53 180.96 188.17 181.06 188.25C181.8 188.93 182.35 189.78 183.09 190.46C184.93 192.17 187.95 191.86 189.28 189.73C190.06 188.47 189.99 186.81 189.42 185.44C188.85 184.07 187.82 182.94 186.75 181.91C184.58 179.8 182 176.62 178.88 176.06C178.6 176.01 178.3 175.97 178.06 175.81C177.81 175.64 177.66 175.35 177.49 175.09C176.31 173.32 173.88 173.01 171.76 172.87C171.19 171.31 168.99 170.91 167.53 171.7C166.07 172.49 165.23 174.06 164.59 175.6C163.97 177.08 163.46 178.68 163.71 180.26C163.96 181.84 165.17 183.37 166.77 183.49C167.18 183.52 167.6 183.46 167.97 183.64C168.34 183.82 168.55 184.19 168.81 184.51C169.5 185.37 170.58 185.89 171.68 185.9C172.91 185.9 173.63 186.16 174.36 186.58H174.34Z" fill="white"/>
<path d="M178.79 188.03C177.03 188.45 175.04 187.57 174.15 185.99C172.36 186.51 170.29 185.83 169.15 184.36C168.99 184.16 168.84 183.93 168.61 183.82C168.33 183.68 168 183.74 167.69 183.76C165.85 183.86 164.23 182.27 163.79 180.48C163.35 178.69 163.87 176.8 164.67 175.14C165.24 173.96 165.99 172.82 167.07 172.08C168.15 171.34 169.64 171.09 170.8 171.71C171.46 172.06 172.05 172.67 172.36 173.35C174.96 173 177.7 174.29 179.09 176.51C180.75 176.55 182.89 177.89 183.84 179.26" stroke="#231F20" stroke-width="1.3" stroke-linecap="round" stroke-linejoin="round"/>
<path d="M157.54 189.32C159.346 189.32 160.81 187.856 160.81 186.05C160.81 184.244 159.346 182.78 157.54 182.78C155.734 182.78 154.27 184.244 154.27 186.05C154.27 187.856 155.734 189.32 157.54 189.32Z" fill="white" stroke="#235968" stroke-width="1.3" stroke-linecap="round" stroke-linejoin="round"/>
<path d="M155.69 179.939C157.496 179.939 158.96 178.475 158.96 176.669C158.96 174.863 157.496 173.399 155.69 173.399C153.884 173.399 152.42 174.863 152.42 176.669C152.42 178.475 153.884 179.939 155.69 179.939Z" fill="white" stroke="#235968" stroke-width="1.3" stroke-linecap="round" stroke-linejoin="round"/>
<path d="M159.74 172.229C161.546 172.229 163.01 170.765 163.01 168.959C163.01 167.153 161.546 165.689 159.74 165.689C157.934 165.689 156.47 167.153 156.47 168.959C156.47 170.765 157.934 172.229 159.74 172.229Z" fill="white" stroke="#235968" stroke-width="1.3" stroke-linecap="round" stroke-linejoin="round"/>
<path d="M168.14 169.17C169.946 169.17 171.41 167.706 171.41 165.9C171.41 164.094 169.946 162.63 168.14 162.63C166.334 162.63 164.87 164.094 164.87 165.9C164.87 167.706 166.334 169.17 168.14 169.17Z" fill="white" stroke="#235968" stroke-width="1.3" stroke-linecap="round" stroke-linejoin="round"/>
<path d="M173.53 166.84C169.71 174.52 166.19 182.33 162.83 190.22C162.33 191.39 164.05 192.41 164.56 191.23C167.92 183.34 171.44 175.53 175.26 167.85C175.83 166.7 174.11 165.69 173.53 166.84Z" fill="#DD001F"/>
<path d="M175.19 166.27C172.26 165.03 169.13 164.34 165.97 165.03C162.81 165.72 160.16 167.67 158.27 170.14C155.14 174.23 153.78 180.8 156.31 185.52C157.77 188.25 160.43 190.51 163.28 191.7C164.47 192.2 164.98 190.26 163.81 189.77C161.22 188.69 158.6 186.26 157.63 183.61C156.66 180.96 156.95 177.96 157.78 175.37C158.82 172.13 161.08 169.29 164.16 167.78C167.24 166.27 170.98 166.65 174.18 168.01C175.35 168.51 176.37 166.78 175.19 166.28V166.27Z" fill="#DD001F"/>
<path d="M169.19 173.68C170.81 174.13 172.15 174.84 172.47 176.7C172.66 177.77 172.01 179.05 170.93 179.14C171.72 181.28 169.99 183.53 167.9 183.89C167.06 184.03 166.12 183.82 165.57 183.17" fill="white"/>
<path d="M169.19 173.68C170.81 174.13 172.15 174.84 172.47 176.7C172.66 177.77 172.01 179.05 170.93 179.14C171.72 181.28 169.99 183.53 167.9 183.89C167.06 184.03 166.12 183.82 165.57 183.17" stroke="#231F20" stroke-width="1.3" stroke-linecap="round" stroke-linejoin="round"/>
<path d="M148.55 176.65C148.4 177.76 148.62 178.9 149.12 179.89C149.26 180.16 149.42 180.43 149.6 180.67C149.72 180.83 149.93 180.92 150.11 180.8C150.26 180.7 150.37 180.45 150.24 180.29C150.04 180.02 149.86 179.73 149.71 179.42C149.69 179.38 149.67 179.34 149.66 179.3C149.66 179.29 149.6 179.16 149.63 179.24C149.6 179.17 149.57 179.1 149.55 179.03C149.49 178.87 149.44 178.71 149.4 178.55C149.36 178.39 149.32 178.22 149.3 178.05C149.3 178.03 149.28 177.9 149.3 177.99C149.3 177.96 149.3 177.93 149.29 177.9C149.29 177.82 149.27 177.73 149.27 177.65C149.25 177.31 149.27 176.97 149.3 176.64C149.33 176.44 149.11 176.26 148.92 176.26C148.69 176.27 148.57 176.43 148.54 176.64L148.55 176.65Z" fill="#231F20"/>
<path d="M146.85 179.89C147.17 180.81 147.61 181.69 148.19 182.48C148.36 182.72 148.54 182.95 148.73 183.17C148.86 183.32 149.13 183.31 149.26 183.17C149.41 183.01 149.4 182.8 149.26 182.64C149.18 182.55 149.11 182.46 149.04 182.37C149.02 182.35 149.01 182.33 148.99 182.31C148.99 182.3 148.97 182.29 148.97 182.28C148.94 182.25 148.99 182.3 148.99 182.3C148.97 182.25 148.92 182.2 148.88 182.16C148.74 181.97 148.61 181.78 148.48 181.58C148.24 181.19 148.02 180.79 147.83 180.37C147.82 180.34 147.8 180.3 147.79 180.27C147.79 180.26 147.79 180.24 147.77 180.23C147.78 180.25 147.79 180.29 147.77 180.24C147.75 180.18 147.72 180.12 147.7 180.06C147.65 179.93 147.6 179.81 147.56 179.68C147.5 179.49 147.3 179.35 147.1 179.42C146.92 179.48 146.77 179.68 146.84 179.88L146.85 179.89Z" fill="#231F20"/>
<path d="M185.03 178.08C184.36 178.85 183.69 179.62 182.94 180.38C182.17 181.16 181.75 182.27 181.79 183.36C181.8 183.62 181.84 183.89 181.81 184.15C181.71 185.34 180.58 186.2 180.28 187.36C179.89 188.87 179.65 189.9 179.09 191.33C178.95 191.7 178.94 192.1 178.94 192.49C178.94 193.58 179.05 194.71 179.57 195.68C179.8 196.12 180.13 196.55 180.13 197.04C180.13 197.32 180.02 197.59 179.94 197.86C179.52 199.34 180.16 201.54 181.14 202.7C181.41 203.02 181.74 203.29 181.91 203.67C182.07 204.03 182.06 204.43 182.1 204.82C182.24 206.21 183.05 207.51 184.22 208.27C184.53 208.47 185.3 208.89 185.46 209.23C185.78 209.9 185.33 211.02 185.48 211.86C185.56 212.33 185.72 212.79 185.73 213.27C185.78 214.74 184.52 216.26 185.23 217.56C185.55 218.15 186.19 218.48 186.82 218.73C188.36 219.35 190.01 219.69 191.67 219.75C192.88 219.79 194.15 219.67 195.19 219.05C196.92 218.01 197.27 215.28 197.01 213.52C197.82 213.39 198.64 213.3 199.46 213.19C199.83 213.14 200.21 213.1 200.55 213.23C201.17 213.47 201.45 214.18 201.57 214.83C201.69 215.48 201.75 216.19 202.18 216.7C202.72 217.35 203.69 217.47 204.31 218.05C204.72 218.44 204.93 219.01 205.34 219.41C206.01 220.07 207.08 220.14 208 219.92C211.51 219.1 214.78 215.53 213.56 211.92C213.66 212.22 215.68 211.07 215.89 210.92C217.06 210.08 217.8 208.57 218 207.17C218.15 207.54 218.49 207.83 218.88 207.92C219.48 208.06 219.94 208.48 220.58 208.49C221.15 208.49 221.58 208.27 222.04 207.98C222.26 207.84 222.43 207.37 222.61 207.28C222.92 207.14 223.16 207.32 223.46 207.22C224.55 206.86 225.54 206.75 226.06 205.46C226.28 204.92 226.33 204.33 226.32 203.75C226.28 202.13 225.69 200.44 224.41 199.43C223.13 198.42 221.11 198.31 219.94 199.44C220.46 198.93 219.18 197.7 219 197.32C218.74 196.78 218.81 196.19 218.55 195.65C218.25 195.03 218.14 195.34 218.15 194.64C218.15 194.26 218.34 193.84 218.38 193.45C218.46 192.59 218.38 191.71 218.2 190.86C218.03 190.1 217.31 189.59 216.92 188.96C216.73 188.64 216.73 188.39 216.42 188.11C216.33 188.03 215.54 187.69 215.54 187.68C215.39 186.83 215.4 185.96 215.11 185.17C214.82 184.38 214.34 183.54 213.93 182.78C213.05 181.14 211.98 179.6 210.75 178.22C207.18 174.22 202.01 171.45 196.64 171.56C193.52 171.62 190.67 172.79 188.27 174.76C187.02 175.79 186.01 176.92 185.02 178.06L185.03 178.08Z" fill="white"/>
<path d="M201.34 175.199C202.56 175.089 203.86 175.199 204.98 175.749C206.38 176.419 206.89 177.609 207.32 179.029C207.56 179.839 208.74 179.499 208.57 178.679C208.55 179.059 208.41 179.259 208.15 179.289H208.22C208.22 179.289 208.35 179.319 208.38 179.329C208.59 179.379 208.8 179.449 209 179.529C209.38 179.669 209.74 179.839 210.1 180.019C210.16 180.049 210.21 180.079 210.27 180.109C210.4 180.199 209.96 179.729 210.38 180.239C210.6 180.499 210.83 180.749 211.04 181.019C211.25 181.289 211.43 181.579 211.63 181.859C212.04 182.419 212.66 182.749 213.16 183.229C214.08 184.109 214.56 185.199 214.48 186.489C214.43 187.329 215.73 187.319 215.78 186.489C215.88 184.889 215.23 183.419 214.08 182.309C213.74 181.979 213.34 181.729 212.98 181.429C212.69 181.189 212.64 181.039 212.39 180.679C211.99 180.119 211.52 179.409 210.95 179.019C210.56 178.759 210.09 178.579 209.66 178.409C208.95 178.119 206.99 177.519 207.3 179.039L208.55 178.689C208.04 177.019 207.37 175.549 205.77 174.699C204.42 173.989 202.83 173.759 201.33 173.899C200.5 173.979 200.5 175.279 201.33 175.199H201.34Z" fill="#231F20"/>
<path d="M215.57 188.419C217.53 189.549 218.48 192.879 217.38 194.859C217.23 195.129 217.29 195.419 217.48 195.649C218.12 196.409 218.7 197.269 218.86 198.269C218.94 198.749 218.91 199.249 218.81 199.729C218.69 200.279 218.35 200.849 218.32 201.409C218.3 201.879 218.55 202.319 218.63 202.789C218.71 203.259 218.7 203.739 218.62 204.199C218.45 205.129 217.98 206.029 217.2 206.609C216.62 207.029 216.95 207.969 217.7 207.799H217.73C217.52 207.739 217.31 207.679 217.1 207.629C216.85 207.429 217.05 207.429 217.02 207.569C217.01 207.639 217.04 207.749 217.04 207.819C217.05 208.009 217.07 208.209 217.06 208.389C217.03 208.849 216.79 209.299 216.51 209.669C215.77 210.659 214.58 211.169 213.4 211.369C212.58 211.509 212.93 212.769 213.75 212.619C215.51 212.309 217.26 211.309 218.04 209.639C218.35 208.979 218.84 206.209 217.37 206.549L217.87 207.739C218.81 207.049 219.47 206.099 219.79 204.969C219.94 204.429 220.02 203.849 220 203.289C219.99 202.979 219.95 202.669 219.89 202.369C219.84 202.109 219.65 201.799 219.64 201.539C219.63 201.279 219.86 200.909 219.94 200.659C220.04 200.359 220.11 200.049 220.16 199.729C220.25 199.159 220.25 198.589 220.16 198.019C219.95 196.759 219.23 195.699 218.43 194.739L218.53 195.529C219.96 192.929 218.83 188.799 216.25 187.309C215.52 186.889 214.87 188.009 215.59 188.429L215.57 188.419Z" fill="#231F20"/>
<path d="M211.34 209.649C211.55 210.859 212.41 211.719 213.02 212.739C213.26 213.149 213.45 213.599 213.39 214.079C213.31 214.729 213 215.469 212.64 216.019C212.12 216.819 211.35 217.489 210.57 218.039C209.7 218.639 208.73 219.159 207.68 219.349C206.63 219.539 205.73 219.239 205.19 218.319C204.77 217.599 203.64 218.249 204.07 218.979C205.51 221.429 208.46 220.819 210.54 219.609C211.59 218.999 212.59 218.209 213.35 217.259C213.8 216.709 214.1 216.119 214.35 215.449C214.62 214.719 214.8 213.999 214.63 213.219C214.3 211.739 212.86 210.809 212.6 209.309C212.45 208.489 211.2 208.839 211.35 209.659L211.34 209.649Z" fill="#231F20"/>
<path d="M203.88 217.05C203.26 216.6 202.58 216.06 202.26 215.34C202.08 214.94 202.17 214.62 202.14 214.21C202.11 213.8 201.68 213.45 201.47 213.1C200.64 211.76 200.4 209.97 201.05 208.5C201.38 207.74 200.26 207.08 199.93 207.84C198.92 210.12 199.41 212.79 201.04 214.66L200.87 214.03C200.62 215.9 201.83 217.14 203.23 218.17C203.91 218.66 204.56 217.54 203.89 217.05H203.88Z" fill="#231F20"/>
<path d="M225.62 203.209C225.92 203.659 226.03 204.079 225.88 204.599C225.75 205.039 225.48 205.579 225.19 205.879C224.7 206.399 223.77 206.899 223.06 206.609C222.86 206.529 222.57 206.619 222.43 206.779C221.58 207.739 219.82 208.129 219.11 206.829C218.71 206.099 217.58 206.749 217.99 207.489C219.1 209.519 221.95 209.279 223.36 207.699L222.73 207.869C223.88 208.329 225.41 207.599 226.18 206.739C227.21 205.589 227.66 203.889 226.76 202.549C226.3 201.859 225.17 202.509 225.64 203.209H225.62Z" fill="#231F20"/>
<path d="M226.22 200.979C225.56 198.629 222.66 197.399 220.5 198.489C220.19 198.649 220.1 199.089 220.27 199.379C220.46 199.699 220.84 199.769 221.16 199.609C221.21 199.579 221.27 199.559 221.32 199.529C221.2 199.579 221.38 199.509 221.39 199.509C221.49 199.469 221.6 199.449 221.7 199.419C221.76 199.409 221.82 199.399 221.87 199.389C221.95 199.379 221.78 199.389 221.9 199.389C222.02 199.389 222.14 199.369 222.26 199.369C222.38 199.369 222.5 199.369 222.62 199.389C222.52 199.379 222.6 199.389 222.65 199.389C222.71 199.399 222.77 199.409 222.83 199.429C222.94 199.449 223.04 199.479 223.15 199.519C223.21 199.539 223.26 199.559 223.32 199.579C223.32 199.579 223.51 199.659 223.39 199.609C223.59 199.699 223.78 199.809 223.97 199.929C224.02 199.959 224.07 199.999 224.12 200.029C224.02 199.949 224.17 200.069 224.17 200.079C224.26 200.159 224.35 200.239 224.43 200.329C224.46 200.369 224.5 200.399 224.53 200.439C224.55 200.459 224.57 200.489 224.59 200.509C224.56 200.459 224.55 200.459 224.58 200.499C224.64 200.589 224.7 200.679 224.76 200.769C224.82 200.869 224.88 200.979 224.92 201.089C224.88 200.979 224.93 201.129 224.94 201.159C224.96 201.219 224.98 201.269 224.99 201.329C225.08 201.669 225.45 201.879 225.79 201.779C226.13 201.679 226.34 201.319 226.24 200.979H226.22Z" fill="#231F20"/>
<path d="M199.54 212.699C199.03 212.849 198.37 212.839 197.72 212.819C196.77 212.789 195.83 212.669 194.9 212.479C193.24 212.139 191.02 211.579 190.01 210.079C189.55 209.389 188.42 210.039 188.89 210.739C190.09 212.529 192.42 213.289 194.43 213.709C195.48 213.929 196.55 214.069 197.62 214.119C198.36 214.149 199.17 214.169 199.88 213.959C200.68 213.719 200.34 212.469 199.53 212.709L199.54 212.699Z" fill="#231F20"/>
<path d="M186.64 209.03C184.54 208.25 182.49 206.16 182.79 203.77C182.82 203.55 182.65 203.32 182.47 203.21C180.71 202.12 180.35 199.58 180.96 197.75C181.23 196.96 179.97 196.61 179.71 197.4C178.9 199.8 179.57 202.94 181.82 204.33L181.5 203.77C181.13 206.75 183.71 209.32 186.3 210.28C187.09 210.57 187.42 209.32 186.65 209.03H186.64Z" fill="#231F20"/>
<path d="M196.29 214.949C196.16 215.849 196.11 216.879 195.76 217.709C195.67 217.919 195.54 218.189 195.4 218.379C195.18 218.689 194.71 218.759 194.34 218.849C192.46 219.329 190.72 219.039 188.87 218.619C187.63 218.339 185.59 218.089 185.52 216.479C185.52 216.289 185.52 216.099 185.52 215.919C185.52 215.839 185.52 215.749 185.53 215.669C185.51 215.789 185.51 215.799 185.53 215.709C185.57 215.529 185.62 215.359 185.67 215.189C185.75 214.929 185.83 214.669 185.92 214.419C185.94 214.359 185.99 214.269 186 214.209C186.02 214.159 186.04 214.119 186.07 214.079C186.23 213.849 186.02 213.909 185.46 214.269L185.07 213.969L185.09 213.989C185.47 214.569 186.56 214.209 186.28 213.489C185.81 212.289 185.8 211.009 186.36 209.839C186.72 209.089 185.6 208.429 185.24 209.179C184.54 210.649 184.43 212.299 185.03 213.829L186.22 213.329C185.88 212.809 185.25 212.929 184.96 213.419C184.71 213.839 184.57 214.369 184.42 214.839C184.08 215.979 184.05 217.399 184.89 218.339C185.96 219.529 187.85 219.709 189.31 220.069C191.27 220.549 193.38 220.589 195.31 219.919C197.24 219.249 197.3 216.939 197.53 215.289C197.65 214.469 196.39 214.119 196.28 214.939L196.29 214.949Z" fill="#231F20"/>
<path d="M180.24 194.959C179.74 193.729 179.68 192.399 180.15 191.149C180.26 190.859 180.44 190.609 180.56 190.329C180.7 189.999 180.58 189.769 180.51 189.449C180.36 188.779 180.48 188.089 180.72 187.459C181.14 186.309 182.3 185.389 182.28 184.129C182.25 182.679 182.63 181.499 183.64 180.429C184.21 179.819 183.29 178.899 182.72 179.509C182.05 180.229 181.52 181.049 181.22 181.989C181.08 182.419 181 182.879 180.97 183.329C180.94 183.839 181.09 184.319 180.79 184.769C179.71 186.379 178.7 188.189 179.38 190.189L179.45 189.689C178.44 191.389 178.25 193.489 178.99 195.319C179.3 196.079 180.56 195.749 180.24 194.969V194.959Z" fill="#231F20"/>
<path d="M205.43 191.901C205.14 192.481 204.7 192.931 204.1 193.211C203.44 193.521 202.89 193.401 202.2 193.361C201.55 193.321 201.08 193.821 200.51 194.041C199.87 194.291 199.17 194.381 198.48 194.331C197.79 194.281 197.17 194.081 196.6 193.741C196.31 193.571 196.08 193.311 195.72 193.351C195.38 193.381 195.04 193.541 194.7 193.601C193.26 193.821 191.81 193.391 190.66 192.511C189.99 192.011 189.34 193.131 190 193.631C191.69 194.911 193.96 195.271 195.98 194.611L195.48 194.541C197.21 195.811 199.62 195.971 201.52 194.991C201.72 194.891 201.92 194.701 202.15 194.671C202.4 194.641 202.68 194.741 202.93 194.741C203.41 194.741 203.91 194.661 204.36 194.481C205.31 194.121 206.09 193.451 206.55 192.541C206.93 191.791 205.8 191.141 205.43 191.881V191.901Z" fill="#231F20"/>
<path d="M204.15 183.85C203 182.39 201.03 182.8 199.54 183.38C199.06 183.57 198.78 183.75 198.32 183.44C197.96 183.2 197.58 183 197.17 182.85C196.76 182.7 196.33 182.62 195.9 182.58C195.4 182.54 194.93 182.68 194.44 182.67C193.95 182.66 193.61 182.36 193.23 182.13C192.89 181.92 192.53 181.75 192.15 181.61C191.37 181.33 190.5 181.23 189.68 181.32C188.04 181.49 186.57 182.28 185.6 183.62C184.54 185.09 184.23 187.04 184.77 188.77C185.02 189.57 186.27 189.23 186.02 188.42C185.49 186.72 185.98 184.78 187.35 183.6C188.72 182.42 190.91 182.27 192.49 183.19C192.88 183.42 193.24 183.7 193.67 183.84C194.15 184 194.59 183.94 195.09 183.89C195.62 183.84 196.13 183.87 196.63 184.03C197.13 184.19 197.49 184.49 197.93 184.74C198.82 185.26 199.74 184.63 200.61 184.35C201.48 184.07 202.57 183.92 203.23 184.76C203.75 185.42 204.66 184.49 204.15 183.84V183.85Z" fill="#231F20"/>
<path d="M188.54 191.81C188.38 191.83 188.23 191.81 188.07 191.81H188.17C188.17 191.81 188.12 191.81 188.1 191.81C188.06 191.81 188.03 191.8 187.99 191.79C187.92 191.77 187.85 191.75 187.78 191.73C187.74 191.72 187.7 191.7 187.66 191.69C187.6 191.67 187.81 191.76 187.68 191.69C187.61 191.66 187.54 191.62 187.47 191.58C187.41 191.54 187.35 191.5 187.29 191.46C187.27 191.45 187.25 191.43 187.23 191.42L187.3 191.48C187.3 191.48 187.23 191.42 187.2 191.4C187.09 191.3 186.99 191.18 186.89 191.07C187.01 191.2 186.94 191.13 186.91 191.08C186.89 191.05 186.87 191.02 186.85 190.99C186.81 190.92 186.77 190.86 186.73 190.79C186.71 190.76 186.7 190.72 186.68 190.69C186.66 190.64 186.67 190.67 186.71 190.76C186.71 190.74 186.69 190.72 186.68 190.69C186.66 190.62 186.63 190.55 186.62 190.48C186.61 190.41 186.6 190.34 186.58 190.27C186.63 190.45 186.59 190.36 186.58 190.3C186.58 190.25 186.58 190.2 186.58 190.15C186.58 189.81 186.28 189.48 185.93 189.5C185.58 189.52 185.28 189.79 185.28 190.15C185.3 191.79 186.86 193.28 188.52 193.11C188.7 193.09 188.85 193.05 188.98 192.92C189.09 192.81 189.18 192.62 189.17 192.46C189.16 192.14 188.88 191.77 188.52 191.81H188.54Z" fill="#231F20"/>
<path d="M169.66 140.36C170.17 139.15 171.11 138.12 172.35 137.65C172.69 137.52 173.05 137.43 173.36 137.25C173.62 137.1 173.84 136.88 174.07 136.69C175.36 135.59 177.09 135.09 178.77 135.16C179.68 135.2 180.61 135.4 181.44 135.79C182.33 136.21 182.46 136.96 183.18 137.39C184.04 136.18 185.35 135.3 186.8 134.96C187.22 134.86 187.67 134.8 188.05 134.6C188.42 134.41 188.7 134.1 189.03 133.85C190.07 133.05 191.43 132.86 192.73 132.69C195.76 132.3 198.84 131.91 201.84 132.49C202.99 132.71 204.12 133.08 205.3 133.15C205.88 133.18 206.46 133.14 207.04 133.15C210.64 133.17 214.17 135.11 216.13 138.12C218.99 137.9 221.88 139.85 222.75 142.59C222.86 142.95 222.95 143.33 223.17 143.65C223.4 143.98 223.74 144.19 224.06 144.43C225.57 145.53 226.66 147.21 227.04 149.04C227.13 149.47 227.19 149.91 227.43 150.28C227.63 150.59 227.94 150.81 228.21 151.05C229.31 152.01 230 153.58 229.49 154.95C229.29 155.48 228.93 155.94 228.71 156.46C228.49 156.98 228.44 157.65 228.82 158.07C231.38 158.64 233.32 161.25 233.13 163.87C234.71 164.55 235.91 165.93 236.5 167.54C236.87 168.55 236.87 169.88 236.43 170.89C236.01 171.84 235.36 172.43 235.08 173.46C234.78 174.54 234.71 175.62 234.06 176.6C232.97 178.25 230.5 178.79 228.83 177.74C226.36 179.42 222.82 179.35 220.41 177.57C219.79 179.8 217.55 181.46 215.25 181.4C214.93 181.4 214.59 181.36 214.29 181.48C214.02 181.59 213.82 181.81 213.61 182.01C212.14 183.42 209.88 183.95 207.93 183.34C207.41 183.18 206.91 182.94 206.38 182.87C205.98 182.82 205.58 182.87 205.18 182.91C199.95 183.44 194.58 182.5 189.85 180.22C186.92 180.48 183.51 179.67 182.14 177.06C180.21 176.95 178.31 176.18 176.84 174.93C175.63 173.9 174.99 171.96 173.69 171.13C172.28 170.25 170.73 169.26 170.3 167.65C169.89 166.13 170.63 164.48 170.28 162.95C170.16 162.42 169.91 161.93 169.79 161.4C169.14 158.47 171.78 155.29 174.58 154.74C174.75 154.69 174.94 152.08 174.97 151.81C173.26 151.79 171.53 151.04 170.47 149.69C169.41 148.34 169.13 146.38 169.89 144.85C169.07 143.52 169.07 141.82 169.67 140.38L169.66 140.36Z" fill="white"/>
<path d="M178.24 145.569C178.12 143.259 180.18 141.029 182.43 140.739C182.68 140.709 183.02 140.559 183.06 140.259C183.4 137.739 185.92 135.309 188.53 135.389C189.37 135.419 189.37 134.119 188.53 134.089C185.4 133.989 182.22 136.849 181.8 139.909L182.43 139.429C179.51 139.799 176.78 142.479 176.94 145.559C176.98 146.389 178.28 146.399 178.24 145.559V145.569Z" fill="#231F20"/>
<path d="M221.35 160.109C219.66 159.689 218.21 160.839 217.43 162.259C216.71 163.569 216.27 165.489 217.21 166.809V166.149C216.33 167.319 215.72 168.919 215.86 170.379C216.04 172.299 217.37 173.809 219.06 174.629L218.76 173.899C217.91 176.129 219.52 178.089 221.44 179.029C223.19 179.879 225.74 180.409 227.38 179.049C228.03 178.519 227.1 177.599 226.46 178.129C225.34 179.049 223.24 178.459 222.1 177.899C220.67 177.199 219.37 175.929 220.01 174.239C220.1 173.989 219.95 173.619 219.71 173.509C218.32 172.839 217.14 171.639 217.14 170.009C217.14 168.879 217.66 167.709 218.33 166.809C218.46 166.639 218.45 166.319 218.33 166.149C217.22 164.599 218.89 160.829 221 161.359C221.81 161.559 222.16 160.309 221.35 160.109Z" fill="#231F20"/>
<path d="M203.36 168.059C204.796 168.059 205.96 166.895 205.96 165.459C205.96 164.023 204.796 162.859 203.36 162.859C201.924 162.859 200.76 164.023 200.76 165.459C200.76 166.895 201.924 168.059 203.36 168.059Z" fill="#231F20"/>
<path d="M192.35 167.013C192.943 165.395 191.31 163.308 188.702 162.352C186.094 161.395 183.499 161.932 182.905 163.549C182.312 165.167 183.945 167.254 186.553 168.21C189.162 169.167 191.757 168.631 192.35 167.013Z" fill="#231F20"/>
<path d="M205.1 183.11C206.69 184.02 208.53 184.23 210.31 183.96C211.75 183.74 213.37 183.15 214.29 181.96L213.5 182.06C214.86 182.65 216.35 182.19 217.6 181.53C218.67 180.97 219.92 180.14 220.38 178.97C220.68 178.19 219.43 177.85 219.13 178.62C218.85 179.33 217.75 179.97 217.08 180.33C216.29 180.76 215.06 181.32 214.15 180.93C213.91 180.83 213.55 180.79 213.36 181.03C212.59 182.02 211.31 182.46 210.12 182.66C208.64 182.91 207.06 182.72 205.74 181.97C205.01 181.55 204.36 182.68 205.08 183.09L205.1 183.11Z" fill="#231F20"/>
<path d="M228.96 178.23C230.44 179.05 232.48 178.62 233.8 177.68C235.48 176.49 236.11 174.33 235.58 172.37L235.28 173.1C236.97 171.86 237.92 169.73 237.43 167.64C236.94 165.55 235.46 163.8 233.37 163.54L234.02 164.19C234.33 160.67 231.97 157.08 228.13 157.67C227.31 157.8 227.66 159.05 228.48 158.92C231.5 158.45 232.95 161.64 232.72 164.18C232.69 164.56 233.05 164.79 233.37 164.83C234.85 165.01 235.87 166.63 236.18 167.98C236.53 169.45 235.84 171.09 234.63 171.97C234.39 172.14 234.25 172.4 234.33 172.7C234.72 174.15 234.29 175.8 233 176.64C232.1 177.24 230.64 177.65 229.62 177.09C228.89 176.68 228.23 177.81 228.96 178.21V178.23Z" fill="#231F20"/>
<path d="M183.19 136.5C180.94 133.64 175.89 133.27 173.57 136.25C173.35 136.53 173.3 136.9 173.57 137.17C173.79 137.4 174.27 137.45 174.49 137.17C176.41 134.7 180.42 135.07 182.28 137.42C182.5 137.7 182.97 137.64 183.2 137.42C183.48 137.15 183.42 136.78 183.2 136.5H183.19Z" fill="#231F20"/>
<path d="M172.75 137.419C170.8 137.259 169.42 139.019 168.8 140.669C168.18 142.319 168.11 144.409 169.65 145.449L169.42 144.559C168.58 146.289 168.67 148.169 169.75 149.789C170.65 151.139 172.1 152.069 173.71 152.299C174.53 152.409 174.88 151.159 174.06 151.049C171.35 150.669 169.26 147.869 170.55 145.219C170.71 144.889 170.63 144.539 170.32 144.329C169.32 143.659 169.71 141.929 170.06 141.019C170.49 139.889 171.41 138.619 172.76 138.729C173.59 138.799 173.59 137.499 172.76 137.429L172.75 137.419Z" fill="#231F20"/>
<path d="M173.78 170.219C171.24 169.509 170.28 166.069 171.61 163.939C171.85 163.549 171.59 163.139 171.22 162.989C170.93 162.869 170.47 161.839 170.34 161.389C170.08 160.499 170.17 159.489 170.49 158.629C171.24 156.649 172.94 155.589 174.95 155.189C175.72 155.039 175.46 153.969 174.78 153.909C175.21 154.399 175.39 154.519 175.32 154.259C175.33 154.319 175.32 154.319 175.32 154.259C175.35 154.179 175.32 154.029 175.32 153.939C175.33 153.699 175.36 153.459 175.38 153.219C175.45 152.659 175.54 152.099 175.68 151.549C176.01 150.259 176.67 149.079 177.56 148.099C178.12 147.479 177.2 146.559 176.64 147.179C175.5 148.439 174.66 149.979 174.32 151.649C174.17 152.379 174.05 153.129 174.01 153.879C173.98 154.459 174.03 155.139 174.75 155.199L174.58 153.919C172.01 154.429 169.84 156.039 169.1 158.629C168.79 159.689 168.77 160.959 169.17 161.999C169.5 162.839 169.97 163.859 170.86 164.219L170.47 163.269C168.69 166.119 170.08 170.529 173.41 171.459C174.22 171.689 174.56 170.429 173.76 170.209L173.78 170.219Z" fill="#231F20"/>
<path d="M174.53 172.739C175.43 175.999 179.33 178.139 182.57 177.299L181.77 176.849C182.17 178.739 183.78 179.879 185.51 180.479C186.32 180.759 187.15 181.059 188 181.169C189 181.299 189.98 181.089 190.92 180.749C191.7 180.459 191.36 179.209 190.57 179.499C189.78 179.789 188.99 179.999 188.15 179.899C187.48 179.819 186.83 179.559 186.19 179.339C184.76 178.869 183.36 178.109 183.03 176.509C182.96 176.159 182.55 175.969 182.23 176.059C179.67 176.729 176.5 174.989 175.79 172.409C175.57 171.599 174.31 171.949 174.54 172.759L174.53 172.739Z" fill="#231F20"/>
<path d="M188.94 129.819C188.69 131.189 188.94 132.619 189.69 133.809C189.87 134.099 190.28 134.239 190.58 134.039C190.88 133.839 191.01 133.459 190.81 133.149C190.73 133.019 190.65 132.879 190.58 132.739C190.55 132.689 190.53 132.629 190.5 132.579C190.48 132.539 190.47 132.509 190.45 132.469C190.48 132.539 190.48 132.529 190.45 132.469C190.35 132.199 190.27 131.929 190.21 131.649C190.2 131.579 190.19 131.519 190.17 131.449C190.16 131.369 190.16 131.369 190.17 131.449C190.17 131.409 190.17 131.369 190.16 131.329C190.15 131.189 190.14 131.059 190.14 130.919C190.14 130.779 190.14 130.649 190.15 130.509C190.15 130.429 190.16 130.349 190.17 130.279C190.15 130.429 190.19 130.189 190.19 130.159C190.25 129.829 190.1 129.439 189.74 129.359C189.42 129.289 189 129.459 188.94 129.809V129.819Z" fill="#231F20"/>
<path d="M193.08 128.77C192.29 129.77 191.93 131.01 192.1 132.28C192.25 133.44 193.09 135.45 194.59 134.79C194.91 134.65 194.99 134.18 194.82 133.9C194.63 133.57 194.25 133.52 193.93 133.67C193.97 133.65 194.08 133.66 194.1 133.64C194.06 133.66 194.04 133.61 194.03 133.61C194.01 133.6 193.92 133.51 193.91 133.5C193.78 133.34 193.69 133.14 193.6 132.96C193.47 132.67 193.37 132.2 193.35 131.87C193.31 131.09 193.52 130.28 193.99 129.7C194.21 129.43 194.26 129.05 193.99 128.78C193.76 128.55 193.29 128.5 193.07 128.78L193.08 128.77Z" fill="#231F20"/>
<path d="M196.67 133.099C197.43 132.579 198.63 132.489 199.54 132.469C201.08 132.429 202.68 132.769 203.93 133.709C204.38 134.049 204.52 134.169 205.09 134.069C205.58 133.979 206.07 133.889 206.56 133.819C207.26 133.729 207.96 133.679 208.67 133.729C209.72 133.809 210.91 134.179 211.84 134.689C213.2 135.429 214.81 136.749 215.12 138.339C215.25 138.989 216.21 138.929 216.37 138.339V138.319C216.28 138.449 216.18 138.579 216.08 138.709C215.94 138.799 215.91 138.729 216.07 138.759C216.18 138.779 216.32 138.769 216.44 138.779C216.68 138.799 216.92 138.829 217.17 138.859C217.74 138.939 218.28 139.089 218.81 139.319C220.48 140.059 221.77 141.429 222.11 143.249C222.26 144.069 223.52 143.719 223.36 142.899C222.92 140.559 221.11 138.809 218.94 137.969C218.24 137.699 217.55 137.589 216.81 137.509C216.26 137.449 215.34 137.279 215.13 137.989H216.38C215.93 135.719 213.53 133.889 211.48 133.129C210.57 132.789 209.65 132.509 208.68 132.429C207.29 132.319 205.88 132.589 204.52 132.849L205.15 133.019C203.67 131.739 201.79 131.169 199.85 131.149C198.64 131.149 197.05 131.249 196.02 131.959C195.33 132.429 195.98 133.559 196.68 133.079L196.67 133.099Z" fill="#231F20"/>
<path d="M223.66 145.289C225.65 145.809 226.46 148.249 226.27 150.089C226.24 150.349 226.49 150.669 226.75 150.719C227.89 150.939 228.44 152.029 228.68 153.069C228.89 154.009 228.93 155.329 228.28 156.119C227.75 156.759 228.67 157.689 229.2 157.039C230.98 154.879 230.16 150.049 227.1 149.459L227.58 150.089C227.84 147.669 226.54 144.699 224.02 144.039C223.21 143.829 222.86 145.079 223.67 145.289H223.66Z" fill="#231F20"/>
<path d="M190.45 174.499C193.09 175.349 196.08 173.169 196.17 170.429C196.18 170.079 195.86 169.779 195.52 169.779C195.16 169.779 194.88 170.079 194.87 170.429C194.87 170.499 194.87 170.579 194.86 170.649C194.86 170.699 194.86 170.689 194.86 170.639C194.86 170.669 194.86 170.699 194.84 170.729C194.81 170.859 194.78 170.999 194.74 171.129C194.72 171.189 194.7 171.249 194.68 171.309C194.62 171.489 194.73 171.209 194.65 171.389C194.6 171.499 194.54 171.619 194.47 171.719C194.31 171.989 194.25 172.069 194.03 172.289C193.94 172.379 193.85 172.469 193.75 172.549C193.7 172.589 193.65 172.629 193.6 172.669C193.68 172.599 193.52 172.729 193.5 172.739C193.28 172.889 193.05 173.019 192.8 173.129C192.91 173.079 192.72 173.159 192.72 173.159C192.66 173.179 192.6 173.199 192.54 173.219C192.41 173.259 192.28 173.299 192.14 173.319C191.98 173.349 191.75 173.379 191.47 173.359C191.41 173.359 191.34 173.359 191.28 173.349C191.13 173.339 191.34 173.369 191.2 173.339C191.05 173.309 190.91 173.279 190.77 173.229C190.44 173.119 190.06 173.359 189.97 173.679C189.87 174.029 190.09 174.369 190.42 174.479L190.45 174.499Z" fill="#231F20"/>
<path d="M179.17 155.859C179.24 155.849 179.31 155.829 179.37 155.819C179.42 155.819 179.41 155.819 179.34 155.819C179.38 155.819 179.42 155.819 179.46 155.809C179.58 155.809 179.69 155.809 179.81 155.809C179.87 155.809 179.93 155.809 179.98 155.819C180.06 155.819 180.06 155.819 179.98 155.819C180.01 155.819 180.04 155.819 180.07 155.829C180.19 155.849 180.32 155.879 180.44 155.919C180.55 155.949 180.66 155.989 180.77 156.029C180.64 155.979 180.83 156.059 180.86 156.069C180.92 156.099 180.98 156.129 181.04 156.159C181.14 156.219 181.24 156.279 181.34 156.339C181.39 156.369 181.44 156.409 181.49 156.439C181.55 156.489 181.55 156.489 181.49 156.439C181.51 156.459 181.54 156.479 181.56 156.499C181.75 156.659 181.92 156.839 182.08 157.019C182.18 157.129 182.05 156.959 182.12 157.079C182.16 157.139 182.2 157.189 182.24 157.249C182.31 157.359 182.37 157.469 182.43 157.579C182.46 157.629 182.48 157.689 182.51 157.739C182.45 157.619 182.52 157.769 182.53 157.799C182.58 157.929 182.62 158.059 182.65 158.189C182.66 158.249 182.67 158.299 182.69 158.359C182.73 158.539 182.69 158.239 182.69 158.419C182.69 158.559 182.71 158.689 182.7 158.829C182.7 159.179 183.01 159.479 183.35 159.479C183.69 159.479 183.99 159.179 184 158.829C184.07 156.189 181.36 154.029 178.81 154.579C178.47 154.649 178.27 155.049 178.36 155.379C178.46 155.729 178.82 155.909 179.16 155.829L179.17 155.859Z" fill="#231F20"/>
<path d="M175.2 160.61C175.29 160.54 175.39 160.48 175.5 160.43C175.52 160.42 175.55 160.41 175.57 160.4C175.54 160.42 175.5 160.43 175.56 160.4C175.62 160.37 175.67 160.36 175.72 160.35C175.77 160.34 175.83 160.32 175.89 160.31C175.92 160.31 175.94 160.31 175.97 160.3C176.09 160.28 175.9 160.3 175.97 160.3C176.09 160.3 176.2 160.29 176.32 160.3C176.37 160.3 176.42 160.3 176.47 160.31C176.53 160.31 176.37 160.29 176.47 160.31C176.5 160.31 176.52 160.31 176.55 160.32C176.66 160.34 176.77 160.38 176.88 160.42C176.94 160.44 176.9 160.42 176.87 160.42C176.9 160.43 176.93 160.45 176.96 160.46C177.01 160.48 177.05 160.51 177.09 160.53C177.14 160.56 177.19 160.59 177.23 160.62C177.31 160.67 177.19 160.58 177.23 160.62C177.25 160.64 177.28 160.66 177.3 160.68C177.5 160.85 177.82 160.89 178.01 160.68C178.18 160.49 178.22 160.16 178.01 159.97C177.11 159.17 175.69 159.04 174.69 159.74C174.48 159.89 174.36 160.18 174.51 160.42C174.65 160.63 174.97 160.76 175.19 160.6L175.2 160.61Z" fill="#FF9F9F"/>
<path d="M176.87 162.39C176.87 162.39 176.97 162.34 177.01 162.32C176.92 162.37 177.04 162.31 177.08 162.3C177.19 162.26 177.3 162.23 177.41 162.21C177.44 162.21 177.46 162.21 177.49 162.2C177.56 162.19 177.4 162.2 177.48 162.2C177.53 162.2 177.59 162.2 177.64 162.19C177.75 162.19 177.87 162.19 177.98 162.19C178 162.19 178.04 162.19 178.06 162.19C178.02 162.18 177.99 162.18 178.05 162.19C178.1 162.2 178.15 162.21 178.21 162.22C178.31 162.24 178.42 162.28 178.52 162.31C178.57 162.33 178.55 162.32 178.52 162.31C178.54 162.32 178.57 162.33 178.59 162.34C178.64 162.37 178.7 162.39 178.75 162.42C178.8 162.45 178.84 162.47 178.89 162.5C178.91 162.51 178.93 162.53 178.96 162.55C179.02 162.59 178.87 162.48 178.96 162.55C179.16 162.71 179.47 162.76 179.67 162.55C179.84 162.37 179.89 162.02 179.67 161.84C178.75 161.09 177.46 160.93 176.39 161.49C176.16 161.61 176.07 161.95 176.21 162.17C176.36 162.41 176.65 162.48 176.89 162.35L176.87 162.39Z" fill="#FF9F9F"/>
<path d="M205.55 173.66C205.47 173.72 205.62 173.61 205.63 173.6C205.68 173.57 205.73 173.53 205.78 173.5C205.83 173.47 205.89 173.44 205.94 173.41C205.96 173.41 206.12 173.33 206.03 173.37C206.25 173.28 206.5 173.21 206.74 173.18C206.63 173.2 206.82 173.18 206.84 173.18C206.9 173.18 206.96 173.18 207.02 173.18C207.14 173.18 207.26 173.18 207.39 173.2C207.28 173.19 207.46 173.21 207.48 173.22C207.54 173.23 207.6 173.25 207.66 173.26C207.72 173.27 207.78 173.29 207.84 173.31C207.86 173.31 208.03 173.38 207.93 173.34C208.17 173.44 208.48 173.42 208.61 173.16C208.72 172.95 208.69 172.59 208.43 172.48C207.22 171.97 205.87 172.15 204.84 172.97C204.63 173.13 204.66 173.51 204.84 173.68C205.06 173.88 205.33 173.86 205.55 173.68V173.66Z" fill="#FF9F9F"/>
<path d="M203.56 171.88C203.58 171.86 203.6 171.85 203.62 171.83C203.66 171.8 203.7 171.77 203.75 171.74C203.84 171.68 203.93 171.63 204.02 171.58C204.07 171.56 204.11 171.53 204.16 171.51C204.18 171.5 204.29 171.45 204.18 171.5C204.27 171.46 204.38 171.43 204.47 171.39C204.56 171.35 204.67 171.33 204.77 171.31C204.81 171.31 204.85 171.29 204.88 171.29C204.91 171.29 204.93 171.29 204.96 171.28C204.89 171.28 204.89 171.28 204.94 171.28C205.15 171.26 205.35 171.25 205.56 171.27C205.82 171.29 206.07 171.03 206.06 170.77C206.05 170.48 205.84 170.29 205.56 170.27C204.57 170.2 203.61 170.54 202.85 171.16C202.65 171.33 202.67 171.7 202.85 171.87C203.07 172.07 203.34 172.05 203.56 171.87V171.88Z" fill="#FF9F9F"/>
</svg>
