<svg width="100" height="100" viewBox="0 0 100 100" fill="none" xmlns="http://www.w3.org/2000/svg">
<g filter="url(#filter0_d_5055_14339)">
<path d="M25.0399 42.1744C23.2621 43.8293 20.8356 44.5338 18.5546 45.35C16.2735 46.1663 13.8919 47.2397 12.5948 49.286C10.6492 52.3721 11.3872 56.3863 12.6619 59.573C13.2769 61.1049 13.8919 62.2343 15.625 62.6256C16.9444 62.9275 17.7719 62.3461 18.9795 62.1784C21.4618 61.8429 23.3403 63.2518 24.5032 65.4098C25.7891 67.7915 26.46 70.5087 28.0254 72.745C29.7362 75.1938 32.6322 76.1218 35.4947 76.4573C37.664 76.7145 39.945 76.2896 41.7676 75.0484C44.3059 73.3264 45.6812 70.3745 47.7163 68.0711C48.5437 67.143 49.6507 66.1478 50.9142 65.9018C52.2001 65.6558 53.1282 66.7069 53.9668 67.512C55.0179 68.5407 55.9683 69.3346 57.5337 69.4017C58.4618 69.4352 59.3787 69.2004 60.2844 68.9544C61.4026 68.6637 62.5431 68.3506 63.4823 67.6685C65.4168 66.2708 66.2442 63.4531 68.5029 62.6703C68.57 64.4706 68.8719 66.2261 71.1977 66.1143C72.7184 66.036 74.049 65.1303 75.469 64.6048C76.8891 64.0792 78.79 64.0904 79.6062 65.3651C80.143 66.2261 80.4784 69.8825 79.8746 70.8106C80.6685 69.5918 81.4959 68.3394 82.6588 67.4673C83.7658 66.651 85.1076 66.2149 86.2928 65.5217C87.8583 64.5936 89.1777 63.1176 89.5579 61.3286C89.938 59.5395 89.2001 57.4933 87.6011 56.6211C86.8631 56.2186 86.0133 56.0844 85.1859 55.9166C83.6763 55.6036 80.9928 55.5477 80.4225 53.9711C79.7069 52.0031 81.4288 49.3866 82.6253 48.0001C84.2242 46.1439 86.2146 44.5449 87.1762 42.2863C88.6633 38.8088 87.042 34.7387 84.2913 32.4576C83.0166 31.4065 81.809 30.4449 80.1765 30.1877C78.3315 29.9082 76.453 29.6958 74.5857 29.7181C72.4388 29.7517 71.1753 32.0104 69.0172 30.1318C67.6754 28.9689 67.2394 27.124 65.8752 25.9611C64.6005 24.8765 63.0686 24.0155 61.4585 23.5459C58.1934 22.6066 54.4252 23.1433 51.7752 25.3573C50.8583 26.1288 50.042 27.0681 48.9351 27.5377C43.758 29.7293 41.175 24.1161 36.9707 22.7408C30.6978 20.6834 24.8498 27.9067 26.1134 33.8777C26.7284 36.7514 27.5334 39.8375 25.0399 42.1521V42.1744Z" fill="white"/>
<path d="M27.6793 38.2042C26.2369 35.2523 26.2145 31.8083 27.4892 28.7893C28.1489 27.2127 29.1664 25.7367 30.4747 24.6297C32.4091 22.9972 34.5336 22.5052 36.8594 23.6569C40.1356 25.2894 42.7409 28.4315 46.6992 28.3644C48.2311 28.342 49.6176 27.7829 50.7917 26.8213C52.4913 25.446 53.6206 23.7575 55.9688 23.478C58.1827 23.2096 60.6651 23.7687 62.7337 24.5291C64.5115 25.1776 66.2894 26.2734 66.4907 28.3085C66.5466 28.8228 68.1679 28.4762 68.112 27.8724C67.743 24.1601 62.6218 23.0978 59.6475 22.6729C57.7355 22.4046 55.7228 22.4269 53.9002 23.1537C52.0776 23.8805 50.9147 25.5019 49.3381 26.6871C46.688 28.6775 43.3336 26.3293 41.1196 24.7527C39.4424 23.5563 37.6645 22.3039 35.5623 22.0468C32.096 21.6219 28.7415 24.1601 26.9413 26.9331C24.705 30.3882 24.2353 34.8944 26.058 38.6291C26.3263 39.177 27.9029 38.6626 27.6793 38.193V38.2042Z" fill="#343B3F"/>
<path d="M24.593 41.6606C22.9493 44.4784 19.1252 44.5231 16.3634 45.5294C13.7357 46.4799 11.6895 48.2354 10.862 50.9637C10.001 53.8486 10.4148 57.1248 11.5217 59.8866C12.0696 61.262 12.8747 62.6261 14.4178 62.9839C16.095 63.3641 17.6045 62.5367 19.2482 62.4472C23.8662 62.2124 24.2017 68.9773 25.9907 71.8062C27.7798 74.6352 30.5864 76.346 33.7284 76.8491C36.8705 77.3523 39.9678 76.592 42.5843 75.0154C45.7375 73.1257 47.0122 69.883 49.4721 67.3448C50.0424 66.7633 50.7245 66.1036 51.6302 66.5397C51.9656 66.7074 52.2452 67.2777 52.4912 67.5572C53.0055 68.1498 53.6094 68.6307 54.3026 69.0108C55.5102 69.6705 56.8856 69.9501 58.2609 69.9501C61.0899 69.9277 63.9412 68.7425 65.5401 66.3384C65.6967 66.1148 64.2095 66.1819 63.9412 66.6068C62.1297 69.3351 58.4734 69.9501 55.678 68.3735C55.1971 68.1051 54.7499 67.7697 54.3585 67.3783C53.8553 66.8751 53.4864 66.1372 52.8602 65.7682C52.0216 65.265 50.9481 65.4886 50.0983 65.8688C47.2246 67.1547 45.9723 70.5315 43.9932 72.7455C41.4661 75.5856 37.6308 76.9386 33.9073 75.9658C30.5752 75.0936 27.8804 72.6225 26.6281 69.4245C25.577 66.741 25.0068 63.0958 21.8983 61.9776C20.6907 61.5415 19.4048 61.7651 18.186 62.0223C17.0902 62.2571 15.9161 62.6373 14.8762 61.9888C13.9817 61.4297 13.5009 60.401 13.1319 59.4617C12.092 56.8564 11.6447 53.8038 12.3604 51.0643C12.7853 49.4318 13.6574 47.8776 15.0775 46.9048C16.3857 45.9991 17.9735 45.6524 19.4942 45.2499C22.0325 44.579 24.772 43.8298 26.1808 41.4146C26.3374 41.1574 24.8279 41.2469 24.5819 41.6829L24.593 41.6606Z" fill="#343B3F"/>
<path d="M73.3788 30.9136C75.9617 29.4824 78.8913 30.3769 81.3065 31.741C83.3081 32.8704 85.4549 34.4582 86.5955 36.4932C89.5809 41.838 82.6483 45.8858 80.3114 49.8441C79.305 51.5437 78.6453 53.9925 80.3449 55.4908C81.7314 56.7208 83.7889 56.5307 85.4997 56.8438C88.0714 57.3022 89.3797 59.7622 88.474 62.2221C87.5683 64.6821 85.2648 65.6884 83.1739 66.829C81.5749 67.7011 79.6964 68.8081 79.182 70.6978C78.5335 73.1019 80.535 74.8909 82.257 76.1992C82.8384 76.6464 84.2473 75.819 83.4981 75.2487C81.3625 73.6274 79.4169 71.1451 82.0781 68.9647C83.7441 67.6005 85.891 66.9967 87.5682 65.6325C89.2455 64.2684 90.5537 62.2892 90.386 60.0529C90.2518 58.2191 89.2008 56.6313 87.4564 55.9828C85.7121 55.3343 82.4359 55.9828 81.2842 54.1378C79.7076 51.6331 83.0062 48.3905 84.5492 46.7468C86.3047 44.8683 88.1609 42.8891 88.7647 40.3062C89.3126 37.958 88.4069 35.7776 86.8079 34.078C83.4199 30.4887 77.4713 27.246 72.6632 29.9184C71.7015 30.4552 72.5737 31.3497 73.39 30.9024L73.3788 30.9136Z" fill="#343B3F"/>
<path d="M68.3468 63.8538C67.8436 65.2068 69.0624 66.3921 70.2812 66.7387C71.9026 67.1971 73.591 66.4032 75.011 65.6876C76.2522 65.0614 77.8959 64.234 79.0476 65.4863C80.0316 66.5486 79.7521 68.2929 79.5061 69.5788C79.4054 70.1267 81.0268 69.8584 81.1162 69.3552C81.3622 68.0581 81.597 66.5151 80.8814 65.3186C80.0875 64.0104 78.4662 63.8315 77.0908 64.0998C76.3081 64.2452 75.5813 64.5247 74.8657 64.8714C74.1053 65.2404 73.3562 65.71 72.5287 65.9336C71.2205 66.2914 69.3867 65.1285 69.9458 63.6302C70.1135 63.1718 68.5145 63.3618 68.3356 63.8538H68.3468Z" fill="#343B3F"/>
</g>
<defs>
<filter id="filter0_d_5055_14339" x="-4" y="0" width="108" height="108" filterUnits="userSpaceOnUse" color-interpolation-filters="sRGB">
<feFlood flood-opacity="0" result="BackgroundImageFix"/>
<feColorMatrix in="SourceAlpha" type="matrix" values="0 0 0 0 0 0 0 0 0 0 0 0 0 0 0 0 0 0 127 0" result="hardAlpha"/>
<feOffset dy="4"/>
<feGaussianBlur stdDeviation="2"/>
<feComposite in2="hardAlpha" operator="out"/>
<feColorMatrix type="matrix" values="0 0 0 0 0 0 0 0 0 0 0 0 0 0 0 0 0 0 0.25 0"/>
<feBlend mode="normal" in2="BackgroundImageFix" result="effect1_dropShadow_5055_14339"/>
<feBlend mode="normal" in="SourceGraphic" in2="effect1_dropShadow_5055_14339" result="shape"/>
</filter>
</defs>
</svg>
