<svg width="100" height="100" viewBox="0 0 100 100" fill="none" xmlns="http://www.w3.org/2000/svg">
<path d="M60.0717 70.931C55.0184 72.8798 49.7582 74.2423 44.4117 75.0012C39.0653 75.76 33.7188 75.967 28.4413 75.3806C23.9917 74.8804 19.5938 73.4317 16.4894 70.0686C14.0231 67.3954 12.6089 63.8943 12.057 60.3415C11.5051 56.7887 11.8673 52.7357 13.0228 49.1657C14.3336 45.1644 16.7826 41.6289 19.7145 38.6452C26.251 31.9708 35.0985 27.8143 43.6874 24.4857C52.9833 20.8812 64.0902 18.1044 73.6276 22.4678C80.9919 25.8309 87.2524 33.316 85.752 41.8358C84.2515 50.3557 76.4043 56.0988 69.3332 60.0311C64.6938 62.6008 59.8475 64.8429 54.9495 66.878C50.0514 68.9131 44.6532 71.0172 39.3067 72.3452C34.4087 73.5697 29.2002 73.9836 24.4056 72.1037C20.3527 70.517 16.9723 67.2919 16.041 62.9458C15.0234 58.2202 16.8688 53.2704 19.2489 49.2347C21.6289 45.1989 24.4746 41.9221 27.7687 38.9212C34.3224 32.9538 42.4629 28.7629 51.1207 26.883C55.4669 25.9517 59.9337 25.5895 64.3661 25.9172C68.7985 26.2449 73.7656 27.4176 76.9907 30.867C79.6639 33.7299 80.8022 37.7139 80.7505 41.5772C80.6987 45.7336 79.3535 49.7003 77.0252 53.1324C74.4037 56.9957 70.7646 60.0828 66.9014 62.6871C62.7794 65.4638 58.347 67.8783 53.8284 69.9479C49.3098 72.0175 43.9978 73.7939 38.7548 73.9664C34.4777 74.1216 30.235 73.1385 26.5442 70.931C23.1639 68.9131 20.2664 65.8432 19.0764 62.0144C17.6622 57.4613 18.9039 52.5978 21.3702 48.6483C24.0262 44.3711 28.0792 41.2322 32.2873 38.5762C36.4955 35.9202 41.1694 33.2988 45.9122 31.3499C50.655 29.401 55.5703 28.0903 60.6408 28.3835C63.0899 28.5214 65.5389 29.0733 67.7982 30.0564C70.0575 31.0394 72.2651 32.4882 74.2312 34.0921C76.0939 35.5926 77.991 37.2137 79.4052 39.1626C80.8195 41.1115 81.5783 43.3536 81.4748 45.7681C81.2506 50.5282 78.1807 54.8398 75.0591 58.2202C68.6261 65.1533 60.6236 70.655 51.8623 74.2251C47.6369 75.9497 43.239 77.226 38.7548 78.0193C37.9442 78.1746 38.2892 79.4163 39.0998 79.2611C48.8096 77.5192 58.1056 73.5525 66.1253 67.7748C70.1265 64.8946 73.938 61.566 77.1287 57.789C80.3193 54.012 83.0615 49.4589 82.7338 44.4918C82.3889 39.2661 78.2842 35.5753 74.4037 32.5744C72.3513 30.9877 70.1783 29.6252 67.781 28.6422C65.3837 27.6591 62.7794 27.1417 60.1924 27.0555C54.915 26.8485 49.7065 28.349 44.8947 30.3841C40.0828 32.4192 35.2365 35.0924 30.7696 38.0071C26.3027 40.9218 22.3705 44.2331 19.8008 48.769C17.4035 52.9772 16.3687 58.0994 17.9726 62.7905C20.8873 71.2069 30.3212 75.5703 38.7548 75.2771C44.1703 75.0874 49.396 73.38 54.2941 71.1552C59.1921 68.9303 63.6418 66.4813 67.9189 63.5666C71.9029 60.8417 75.5937 57.6165 78.2842 53.5808C80.6815 49.9763 82.044 45.7164 82.044 41.3702C82.044 37.3 80.8022 33.178 78.0427 30.1254C74.7314 26.4691 69.7471 25.0893 64.9698 24.6754C55.7256 23.8648 46.2744 25.9862 38.0477 30.2116C29.8211 34.437 22.4912 40.939 17.8864 48.976C15.4374 53.2359 13.7127 58.3582 14.7647 63.2907C15.7478 67.8266 19.1799 71.2759 23.3708 73.0695C28.2171 75.1564 33.5636 74.9667 38.6341 73.8284C41.4798 73.1903 44.2565 72.259 47.016 71.2931C49.7755 70.3273 52.3797 69.327 55.0012 68.2405C60.089 66.1364 65.1422 63.8253 69.9713 61.1521C73.9208 58.9618 77.7495 56.392 80.9057 53.1497C84.0618 49.9073 86.3211 46.2682 87.0282 41.9738C87.7354 37.6794 86.7006 33.4712 84.355 29.8839C82.0095 26.2966 78.4222 23.3302 74.4727 21.4675C69.9368 19.3462 64.9008 18.7253 59.9337 19.1048C54.2768 19.5359 48.7751 21.1571 43.4977 23.1922C38.8583 24.9859 34.288 27.0037 29.959 29.4355C22.1463 33.8334 14.5233 40.1629 11.7121 48.976C9.38378 56.2541 10.1944 65.2223 15.5408 70.9999C18.8005 74.5183 23.3708 76.0705 28.0447 76.6396C33.4946 77.295 39.0998 77.0363 44.5325 76.2947C49.9652 75.5531 55.2771 74.1561 60.3994 72.19C61.1755 71.8968 60.8306 70.6378 60.0545 70.9482L60.0717 70.931Z" fill="#343B3F"/>
<path d="M14.1781 50.4402C17.6791 44.3521 22.353 39.0057 27.8374 34.625C33.3219 30.2444 39.5651 26.9158 46.2051 24.8117C53.3107 22.5524 61.1925 21.4658 68.574 22.8801C75.9556 24.2943 82.5611 28.4852 85.2515 35.4701C86.5278 38.7987 86.5795 42.4033 85.5792 45.8009C84.5099 49.3882 82.4403 52.5961 80.0258 55.4245C77.6113 58.253 74.6276 60.9262 71.6267 63.3235C68.6258 65.7208 65.3144 67.9456 61.9168 69.8944C58.5192 71.8433 54.9492 73.5852 51.2756 75.0167C47.6021 76.4482 44.1873 77.5692 40.5137 78.3281C34.1497 79.6216 26.5267 79.7595 21.1975 75.4479C15.8682 71.1362 14.2126 62.9958 14.7127 56.2696C15.1611 50.285 17.4377 43.8692 22.3185 40.075C23.474 39.1782 24.7675 38.4538 26.1472 37.9364C26.9233 37.6432 26.5784 36.4014 25.8023 36.6946C19.628 39.0229 15.851 44.8006 14.2643 50.9921C13.4537 54.1827 13.1605 57.5458 13.4192 60.8227C13.7124 64.5825 14.5575 68.4285 16.4201 71.7398C18.2828 75.0512 20.9215 77.3623 24.2674 78.7765C27.6132 80.1907 31.0798 80.5529 34.5636 80.3977C38.0474 80.2424 41.8072 79.5181 45.291 78.466C49.206 77.2933 53.0175 75.8273 56.7256 74.0854C64.0899 70.6016 70.9713 66.014 76.9732 60.4778C82.4748 55.39 87.7523 48.5431 87.5971 40.6786C87.4419 33.3488 82.2506 26.9848 75.8176 23.8976C68.3671 20.3276 59.6403 20.4655 51.6895 22.0695C44.5494 23.5009 37.7025 26.3639 31.6144 30.3306C25.5264 34.2973 20.1454 39.4024 15.92 45.3352C14.9024 46.7667 13.9366 48.2671 13.057 49.8021C12.6431 50.5265 13.7641 51.1818 14.1781 50.4575V50.4402Z" fill="#343B3F"/>
<path d="M31.1658 80.6073C38.0645 80.5556 44.9114 79.2276 51.4651 77.0717C58.0189 74.9159 64.3829 71.8978 70.4537 68.5174C75.7312 65.5682 81.0604 62.2741 85.0616 57.652C88.8041 53.3231 91.0462 47.8559 90.3563 42.0955C89.7182 36.6801 86.8898 31.5578 82.4574 28.3327C81.9055 27.936 81.3363 27.5738 80.75 27.2289C80.0256 26.815 79.3702 27.936 80.0946 28.3499C84.6649 30.9369 87.7866 35.5935 88.8386 40.7158C89.9424 46.1657 88.2867 51.5812 84.8719 55.8756C81.2846 60.3942 76.3521 63.6539 71.385 66.4995C65.5384 69.8626 59.4676 72.8636 53.1208 75.1401C46.774 77.4167 40.3238 78.9171 33.6666 79.2448C32.8387 79.2793 31.9936 79.3138 31.1658 79.3138C30.338 79.3138 30.338 80.6073 31.1658 80.6073Z" fill="#343B3F"/>
<path d="M70.5058 65.2409C67.9188 67.207 65.6768 69.5353 63.8314 72.2085C63.4002 72.8294 62.9173 73.4675 62.8311 74.2436C62.7448 74.9335 63.0208 75.6234 63.5209 76.1063C64.6765 77.2273 66.2976 77.0376 67.6774 76.5202C69.3158 75.8993 70.937 75.2784 72.6272 74.8473C73.4895 74.6231 74.3691 74.4334 75.2487 74.2781C75.7661 74.1919 76.9043 73.8297 77.1803 74.4851C77.37 74.968 77.0941 75.6234 76.8699 76.0373C76.5077 76.6927 76.042 77.2791 75.7833 78.0034C75.2831 79.3659 75.9213 80.7801 77.3528 81.1251C78.0599 81.2975 78.7842 81.2458 79.5086 81.1251C80.5089 80.9698 81.5264 80.7801 82.5268 80.5904C84.5791 80.1937 86.597 79.7281 88.6148 79.2107C89.4254 79.0037 89.0805 77.762 88.2699 77.9689C86.597 78.4001 84.9068 78.7968 83.1994 79.1417C81.6989 79.4521 80.1467 79.8661 78.6118 79.935C78.1288 79.9523 77.4907 79.9523 77.1285 79.5901C76.6629 79.1072 77.0078 78.3656 77.2665 77.8827C77.8529 76.8306 78.6463 75.8648 78.5255 74.5886C78.4738 74.0367 78.2151 73.5193 77.7494 73.1916C77.1113 72.7432 76.3352 72.7949 75.6108 72.9157C74.0414 73.1571 72.472 73.5193 70.9542 73.9677C70.2471 74.1747 69.5573 74.4161 68.8846 74.6748C68.1085 74.968 67.3497 75.3302 66.5391 75.5371C65.8837 75.7096 65.1766 75.7441 64.6075 75.3302C64.0383 74.9163 64.0211 74.3644 64.366 73.778C66.0217 70.915 68.5397 68.3625 71.1612 66.3619C71.8166 65.8618 71.1612 64.7407 70.5058 65.2409Z" fill="#343B3F"/>
</svg>
