<svg width="100" height="100" viewBox="0 0 100 100" fill="none" xmlns="http://www.w3.org/2000/svg">
<path d="M77.0139 62.3351C78.4033 52.1836 89.6313 44.7733 89.0305 34.5467C88.6925 28.7136 84.0235 23.5565 78.3657 22.117C72.7079 20.6775 66.4242 22.7554 62.3311 26.9236C59.8401 29.4647 58.1252 32.6941 57.249 36.1239C56.7984 37.8513 56.7984 39.5786 56.5105 41.3185C56.1725 43.4215 55.6844 41.644 55.4966 40.6301C55.3464 39.829 55.1336 39.0404 54.8707 38.2768C54.32 36.6871 53.5189 35.1851 52.5175 33.8332C50.5272 31.1295 47.7108 29.014 44.4689 28.0752C37.1588 25.9723 28.6094 30.103 25.7054 37.1252C24.7541 39.4284 24.3661 41.9194 24.1908 44.4103C23.5024 54.1237 26.5942 64.7885 34.6178 70.3086C40.2255 74.1765 47.3228 75.0026 54.0947 75.6034C63.4576 76.4296 72.8331 77.0554 82.2085 77.456L80.6063 75.5534C78.1654 71.6605 76.388 66.8789 77.0139 62.3351Z" fill="white"/>
<path d="M56.8976 43.2954C56.7849 43.4707 57.1479 43.8212 56.86 43.6209C56.7349 43.5333 56.7098 43.2954 56.6598 43.1578C56.5721 42.8824 56.5346 42.5945 56.4845 42.3066C56.3719 41.5681 56.3719 40.8295 56.2842 40.091C56.0464 38.1383 55.1076 36.1981 54.0687 34.5459C51.8531 31.0035 48.2857 28.2622 44.18 27.3484C37.1453 25.7837 29.1217 29.2761 25.5668 35.5848C23.3888 39.4526 23.0383 44.2217 23.1885 48.5777C23.3387 52.9338 24.1774 57.0144 25.8922 60.8823C27.4944 64.4747 29.8352 67.7167 32.9645 70.1325C36.6446 72.974 41.1508 74.4135 45.6696 75.2146C51.2398 76.2034 56.9477 76.5038 62.593 76.9294C69.0143 77.4051 75.4357 77.7806 81.8571 78.056C82.6206 78.0935 83.7597 76.9795 82.533 76.9294C72.1061 76.4788 61.6416 75.903 51.2648 74.7765C46.5708 74.2633 41.7517 73.4496 37.5333 71.2215C33.8532 69.2814 30.9117 66.3022 28.8588 62.7098C26.806 59.1173 25.692 55.1493 25.2288 51.1188C24.7156 46.7127 24.8032 41.8059 26.3804 37.6126C29.2844 29.8769 38.9978 25.7837 46.4081 29.6766C50.4637 31.8171 54.0937 36.3233 54.4817 41.0048C54.5694 42.0688 54.4442 43.8838 55.3705 44.6348C56.4845 45.536 57.9616 44.3594 58.5749 43.4331C59.0631 42.6821 57.2356 42.7822 56.8726 43.333L56.8976 43.2954Z" fill="#FF646B"/>
<path d="M58.0882 44.7231C56.9492 43.5966 57.4123 40.8177 57.5625 39.3657C57.7628 37.4381 58.2134 35.5229 58.9269 33.7204C60.2037 30.4784 62.269 27.5744 65.0854 25.5091C70.8434 21.3033 78.9421 21.2156 84.1493 26.3477C88.9559 31.0793 88.8933 37.5382 85.9643 43.2336C83.2981 48.4408 79.1924 52.8469 77.1271 58.367C74.6737 64.8885 76.376 72.1485 81.7209 76.7048C82.3843 77.2681 83.924 76.3168 83.1103 75.6158C80.2063 73.1374 78.3287 69.6326 77.8906 65.8273C77.4775 62.2724 78.554 58.8552 80.1813 55.7384C83.1354 50.0931 87.8794 45.2363 89.4942 38.9276C91.1089 32.6189 88.0171 25.9472 82.2091 22.7928C76.4011 19.6385 68.753 20.8401 63.4957 24.8832C60.2412 27.3867 57.913 30.9791 56.6863 34.872C56.0604 36.8498 55.6974 38.9026 55.6098 40.9679C55.5472 42.6578 55.4221 44.5229 56.7113 45.7996C57.3247 46.4005 58.8643 45.4617 58.1008 44.7106L58.0882 44.7231Z" fill="#FF646B"/>
<path d="M14.5147 42.2056C14.7025 48.9024 16.3798 55.474 19.434 61.4447C19.6844 61.9329 21.4243 61.3196 21.249 60.9566C18.2073 54.9858 16.53 48.4142 16.3297 41.7175C16.3297 41.3419 14.5022 41.6424 14.5147 42.2056Z" fill="#FF646B"/>
<path d="M9.93352 55.4631C11.0976 60.3073 14.0016 64.6132 18.0072 67.5548C18.583 67.9804 20.2102 67.1542 19.4216 66.5784C15.5913 63.762 12.8626 59.5938 11.7485 54.9749C11.5608 54.2238 9.74576 54.687 9.93352 55.4631Z" fill="#FF646B"/>
<path d="M88.0422 52.0596C85.6139 54.2627 84.2119 57.5047 84.4748 60.7967C84.5124 61.2473 84.8879 61.4727 85.326 61.4476C85.6765 61.4226 86.3524 61.1347 86.3149 60.6841C86.1021 57.8301 87.141 54.9011 89.2689 52.9609C89.5694 52.6855 89.7321 52.2474 89.344 51.9595C88.9936 51.6966 88.3552 51.7592 88.0422 52.0471V52.0596Z" fill="#FF646B"/>
</svg>
