<svg width="100" height="100" viewBox="0 0 100 100" fill="none" xmlns="http://www.w3.org/2000/svg">
<path d="M22.6757 23.057C25.1333 24.5656 29.4523 30.1986 29.6348 33.082C29.8173 35.9655 28.698 38.0216 26.4473 39.8222C23.1502 42.4623 17.3712 42.2676 13.186 42.8637C15.3273 42.7542 17.505 43.6302 19.3786 44.5549C21.1184 45.4065 23.4909 45.7958 24.7561 47.3409C25.8511 48.6671 25.9241 50.6137 25.3523 52.2318C24.7805 53.8499 23.6368 55.2004 22.4567 56.4413C20.7534 58.2298 18.7338 59.6654 16.7872 61.1618C15.8383 61.8918 14.9015 62.6218 14.0133 63.4248C13.7335 63.6681 12.967 64.1426 12.821 64.4832C12.164 66.0405 14.5121 65.0185 15.0839 64.7996C20.4493 62.7313 26.1674 59.7992 32.0559 61.7458C33.1022 62.0865 34.1242 62.6218 34.7933 63.4856C35.8396 64.8239 35.8518 66.7583 35.2556 68.3521C34.6595 69.9459 33.5524 71.2963 32.4696 72.5981C34.6473 71.3815 36.9954 70.3717 39.4895 70.2014C41.8863 70.0311 44.429 70.834 46.2661 72.3791C48.5656 74.3257 48.2736 77.0632 49.1252 79.7033C49.1617 79.8127 49.1982 79.9344 49.2955 79.9952C49.5389 80.1656 49.8309 79.8492 49.9647 79.5816C50.8042 77.9026 51.6315 76.1507 52.3493 74.4352C52.8968 73.1213 54.0769 71.9533 54.9894 70.8827C55.841 69.8729 57.0211 69.0456 58.2378 68.4494C59.3206 67.9263 60.3425 67.172 61.4497 66.734C64.5642 65.5174 68.3601 65.2862 71.6693 65.4322C73.7619 65.5295 75.8424 65.8337 77.862 66.3568C79.5409 66.7948 81.8404 67.2571 83.3125 68.1453C78.9569 65.1524 75.5261 60.3102 74.6136 55.0544C74.0904 52.0128 74.4919 48.8009 75.891 46.0635C76.694 44.494 77.8011 43.1071 78.9448 41.7809C79.9424 40.613 81.0374 39.445 82.4852 38.9462C78.811 39.3963 74.9786 38.4474 71.9248 36.3548C71.3044 35.929 70.7204 35.4545 70.2824 34.8583C69.4551 33.7025 69.2726 32.2182 69.2482 30.7948C69.1996 27.8992 69.4672 24.809 70.9029 22.2541C71.5477 21.0983 72.4601 18.9813 73.5551 18.2148C68.4453 21.7917 62.9218 24.7238 57.4105 27.6559C56.2425 28.2764 55.0502 28.909 53.7606 29.1888C52.4709 29.4687 51.0353 29.3713 49.9404 28.6292C48.8819 27.9114 48.2736 26.6704 48.0424 25.4173C47.8113 24.1642 48.6264 20.8306 47.3124 20.0155C46.8623 19.7356 46.2783 20.0033 45.8525 20.3196C43.8207 21.8161 42.7987 24.3345 40.9251 26.0256C38.2851 28.4224 35.2921 28.0817 32.0681 27.6194C28.5034 27.1084 25.3645 25.1618 22.6514 22.8745" fill="white"/>
<path d="M11.2632 44.6029C14.0858 43.4714 17.2368 44.4569 19.9013 45.5518C22.152 46.4765 24.9746 47.7296 25.0719 50.54C25.1693 53.3504 22.882 55.4065 20.8137 56.976C18.3196 58.8617 15.8134 60.711 13.3193 62.5846C12.3582 63.3024 13.8181 63.7769 14.4629 63.2903C17.3585 61.1247 20.3879 59.0442 23.174 56.7327C25.3518 54.9199 27.5174 52.2068 26.7144 49.1652C25.9601 46.3061 22.6508 45.0773 20.1689 44.1405C17.0422 42.9604 13.6965 42.4008 10.5089 43.6782C10.1804 43.8121 9.85191 44.177 10.0709 44.5177C10.2899 44.8584 10.959 44.7367 11.2632 44.615V44.6029Z" fill="#FF9122"/>
<path d="M17.3097 64.5559C19.8403 63.461 22.5047 62.8405 25.1813 62.2565C27.6267 61.7212 30.3884 61.125 32.6514 62.5606C37.7369 65.7725 31.897 71.1135 30.5709 74.6783C30.3154 75.3596 31.9457 74.9946 32.1647 74.7391C34.452 72.172 37.7369 70.6634 41.2043 70.9675C44.6716 71.2717 48.2729 73.7171 47.2752 77.5252C47.0927 78.2065 48.869 77.951 49.0393 77.3184C50.2195 72.8533 45.6814 70.2254 41.8734 69.9091C37.7247 69.5684 33.4908 71.296 30.7291 74.3984L32.3229 74.4593C33.3327 71.7219 35.7903 69.6779 36.3377 66.7459C36.7879 64.3126 35.4618 62.2565 33.2597 61.2589C31.0576 60.2612 28.3567 60.5654 25.9599 61.0642C22.7723 61.7212 19.5604 62.4633 16.5675 63.7529C15.4482 64.2396 16.458 64.8966 17.2853 64.5438L17.3097 64.5559Z" fill="#FF9122"/>
<path d="M52.6529 75.8694C53.7966 70.1026 60.4637 67.1097 65.683 66.2094C71.4255 65.2118 77.3505 66.3189 82.3873 69.251C82.8618 69.5308 84.4921 68.8252 83.7986 68.4237C78.0805 65.0779 71.2065 64.1168 64.7462 65.5159C59.2349 66.6961 52.1055 69.9688 50.8888 76.1128C50.7672 76.7454 52.5313 76.4534 52.6529 75.8816V75.8694Z" fill="#FF9122"/>
<path d="M11.543 43.5928C15.3023 43.459 19.1469 43.0575 22.7846 42.0477C25.4247 41.3177 28.1378 40.0037 29.4031 37.4245C32.5906 30.9399 25.8018 25.3069 21.9573 21.146L20.473 22.0341C24.719 25.4042 29.3544 28.8716 35.0361 28.8473C39.7444 28.8229 44.0391 25.8909 45.6086 21.4258C45.937 20.4769 44.1851 20.5012 43.9296 21.2312C42.421 25.5259 38.4183 28.0443 33.8924 27.4846C29.3666 26.925 25.4125 23.8469 21.8478 21.0243C21.349 20.635 19.7795 21.2798 20.3635 21.9125C23.8917 25.7205 29.6464 30.1612 28.1499 36.1105C27.4078 39.0913 24.5487 40.3566 21.8235 41.0257C18.5264 41.8287 15.1198 42.1937 11.7376 42.3153C10.74 42.3518 10.375 43.6293 11.5795 43.5928H11.543Z" fill="#FF9122"/>
<path d="M47.312 20.8656C46.9956 23.1893 46.7645 26.0606 48.2123 28.0802C49.8912 30.4161 52.9936 30.0998 55.3782 29.2116C58.7118 27.9585 61.8872 25.9633 64.9166 24.114C68.238 22.0944 71.462 19.9288 74.6861 17.7753L73.3113 17.4468C69.9777 22.6662 65.8047 30.0511 70.2697 35.9153C74.0169 40.8305 81.3289 39.626 86.5361 38.5067C87.3755 38.3242 87.5702 37.4117 86.5239 37.5091C79.2363 38.2269 73.7858 44.9548 73.506 52.0964C73.1775 60.2965 79.1146 67.3286 85.8304 71.2705C86.3536 71.5747 87.9717 70.8203 87.2295 70.3824C81.1099 66.7933 75.8541 60.7345 75.2944 53.4104C74.7956 46.8163 79.3093 39.2367 86.2927 38.5432V37.5456C81.3289 38.604 74.4914 39.626 71.4012 34.4675C68.0068 28.798 71.8757 22.3134 74.9416 17.5077C75.4161 16.7777 73.8345 16.9967 73.5668 17.1792C68.5665 20.5249 63.5539 23.895 58.2251 26.7054C55.804 27.9829 51.9351 30.3431 49.8304 27.3624C48.5042 25.4888 48.7719 22.7878 49.0639 20.6466C49.1612 19.9044 47.3849 20.2086 47.2998 20.8534L47.312 20.8656Z" fill="#FF9122"/>
<path d="M78.9442 23.1655L76.9733 26.5234C76.803 26.8154 76.7178 27.156 76.8273 27.4845C76.9368 27.7887 77.2288 28.0564 77.5329 28.1537C78.2386 28.3848 79.1754 28.1294 79.5647 27.4602C80.2217 26.3409 80.8787 25.2216 81.5357 24.1023C81.706 23.8103 81.7911 23.4697 81.6816 23.1412C81.5721 22.837 81.2802 22.5694 80.976 22.472C80.2704 22.2409 79.3335 22.4964 78.9442 23.1655Z" fill="#FF9122"/>
<path d="M85.3443 30.8897L89.201 28.9431C89.493 28.7971 89.8093 28.5051 89.931 28.1888C90.0405 27.9211 90.0283 27.5439 89.8336 27.3128C89.347 26.7166 88.4467 26.7653 87.814 27.0816L83.9573 29.0282C83.6653 29.1742 83.349 29.4662 83.2273 29.7825C83.1178 30.0502 83.13 30.4274 83.3247 30.6585C83.8113 31.2547 84.7116 31.206 85.3443 30.8897Z" fill="#FF9122"/>
<path d="M60.9135 81.8915C60.9743 80.5411 61.1203 79.5434 61.4853 78.2538C61.8503 76.9642 62.2883 75.8692 62.8479 74.8472C63.1886 74.2268 63.0183 73.4481 62.2883 73.217C61.5948 72.998 60.6215 73.2413 60.2565 73.9104C58.8574 76.4775 58.0666 79.3001 57.9327 82.22C57.8962 82.9743 58.7722 83.388 59.4292 83.2907C60.1592 83.1812 60.8892 82.6702 60.9257 81.8794L60.9135 81.8915Z" fill="#FF9122"/>
<path d="M12.772 26.5103C14.7916 28.5299 17.1883 30.148 19.8041 31.3038C20.0961 31.4255 20.9477 31.5958 20.6679 30.9996C20.3881 30.4035 19.6459 29.9533 19.0376 29.6857C18.916 29.637 18.7943 29.564 18.6726 29.5275C18.7578 29.5519 18.9038 29.637 18.7335 29.5519C18.6605 29.5154 18.5875 29.4789 18.5145 29.4424C18.2833 29.3207 18.04 29.199 17.8088 29.0774C17.675 29.0044 17.5533 28.9314 17.4195 28.8584C17.237 28.761 17.456 28.8705 17.5168 28.9192C17.456 28.8827 17.4073 28.8462 17.3465 28.8219C17.1032 28.6759 16.872 28.5177 16.6409 28.3596C16.5314 28.2866 16.4219 28.2136 16.3124 28.1284C16.2759 28.1041 16.0812 27.9581 16.2759 28.1041C16.4705 28.2501 16.2759 28.1041 16.2394 28.0797C16.0204 27.9094 15.8014 27.7391 15.5824 27.5566C15.4851 27.4714 15.3756 27.3863 15.2782 27.3011C15.2296 27.2524 15.1809 27.2159 15.1322 27.1673C14.9984 27.0456 15.1201 27.1673 15.1809 27.2159C14.9497 27.0334 14.7429 26.8023 14.5361 26.5954C14.0859 26.1453 13.3681 25.61 12.699 25.5978C12.0298 25.5856 12.5165 26.2791 12.7477 26.5103H12.772Z" fill="#FF9122"/>
<path d="M23.8186 75.4923L28.2958 70.2973C28.5269 70.0297 28.7216 69.7498 28.7216 69.3849C28.7216 69.0685 28.5391 68.7157 28.2715 68.5454C27.6631 68.1561 26.6533 68.2412 26.1667 68.813L21.6895 74.008C21.4583 74.2757 21.2637 74.5555 21.2637 74.9205C21.2637 75.2368 21.4462 75.5897 21.7138 75.76C22.3221 76.1493 23.3319 76.0642 23.8186 75.4923Z" fill="#FF9122"/>
</svg>
