<svg width="100" height="100" viewBox="0 0 100 100" fill="none" xmlns="http://www.w3.org/2000/svg">
<path d="M62 13C71.1326 13 78.6754 19.5748 79.8421 28.0948C79.8994 28.5131 80.156 28.8796 80.5304 29.0748C86.1685 32.0135 90 37.7743 90 44.4004C89.9999 51.0261 86.1681 56.7854 80.5304 59.724C80.156 59.9192 79.8994 60.2857 79.8422 60.7041C78.6761 69.2247 71.1331 75.7998 62 75.7998C58.1074 75.7998 54.5037 74.6053 51.5592 72.5749C51.0002 72.1894 50.2286 72.2901 49.7934 72.8114C47.8812 75.102 45.5866 76.8603 43.0478 77.9072C42.766 78.0234 42.5314 78.2332 42.3965 78.5065L38.5437 86.3151C38.0095 87.3976 36.3911 87.1026 36.2733 85.9012L35.6738 79.7881C35.6199 79.2386 35.1966 78.8021 34.6568 78.6867C28.9487 77.4662 24.1449 72.7568 21.5864 66.297C21.4594 65.9763 21.2058 65.7215 20.8874 65.5889C14.4836 62.9234 10.0002 56.7682 10 49.6006C10 43.6495 13.0906 38.3959 17.8049 35.2584C18.2521 34.9608 18.4729 34.417 18.3622 33.8915C18.1246 32.7636 18 31.5961 18 30.4004C18 20.7906 26.0589 13 36 13C40.668 13 44.9207 14.7183 48.1191 17.5356C48.6196 17.9765 49.3804 17.9765 49.8809 17.5356C53.0793 14.7183 57.332 13 62 13Z" fill="#DEF4F1"/>
</svg>
