<svg width="100" height="100" viewBox="0 0 100 100" fill="none" xmlns="http://www.w3.org/2000/svg">
<rect x="10" y="11" width="80" height="78.4858" fill="#B02015"/>
<ellipse cx="50.0002" cy="50.3689" rx="32.9338" ry="33.3123" fill="#F1E6E6"/>
<path d="M82.8345 52.8609L82.9601 52.8728L82.8345 52.8609ZM82.4204 56.1587L82.5439 56.1846L82.4204 56.1587ZM82.098 57.7909L82.2221 57.8139L82.098 57.7909ZM81.2418 61.0026L81.1237 60.9582L81.2418 61.0026ZM80.6678 62.5656L80.549 62.5229L80.6678 62.5656ZM80.0084 64.0908L79.896 64.0335L80.0084 64.0908ZM76.6615 69.8212L76.7643 69.8943L76.6615 69.8212ZM75.6703 71.1531L75.7698 71.2307L75.6703 71.1531ZM74.6427 72.4608L74.5438 72.3824L74.6427 72.4608ZM72.324 74.8411L72.4102 74.9332L72.324 74.8411ZM67.048 78.8694L66.9894 78.7576L67.048 78.8694ZM64.1267 80.4598L64.1851 80.5716L64.1267 80.4598ZM62.6066 81.1277L62.6495 81.2464L62.6066 81.1277ZM59.4764 82.2427L59.5131 82.3634L59.4764 82.2427ZM57.879 82.702L57.9121 82.8237L57.879 82.702ZM56.263 83.095L56.2896 83.2184L56.263 83.095ZM54.6253 83.3891L54.6433 83.514L54.6253 83.3891ZM51.3113 83.7005L51.3062 83.5744L51.3113 83.7005ZM43.0456 82.9322L43.0131 83.0541L43.0456 82.9322ZM39.8337 82.0732L39.7881 82.1909L39.8337 82.0732ZM36.733 80.8676L36.6847 80.9842L36.733 80.8676ZM35.2456 80.1289L35.3093 80.02L35.2456 80.1289ZM33.804 79.3009L33.742 79.4108L33.804 79.3009ZM32.3595 78.4785L32.2966 78.588L32.3595 78.4785ZM30.987 77.5451L30.9084 77.6438L30.987 77.5451ZM28.3824 75.4806L28.4689 75.3887L28.3824 75.4806ZM27.1566 74.3552L27.0724 74.4492L27.1566 74.3552ZM24.8995 71.9173L24.9991 71.8398L24.8995 71.9173ZM22.8951 69.2654L22.7908 69.3365L22.8951 69.2654ZM21.9895 67.8714L21.8822 67.9377L21.9895 67.8714ZM21.1519 66.4354L21.0413 66.4963L21.1519 66.4354ZM19.6655 63.459L19.5501 63.51L19.6655 63.459ZM19.095 61.8974L18.9739 61.9328L19.095 61.8974ZM18.1189 58.7184L18.2413 58.6877L18.1189 58.7184ZM17.7546 57.0965L17.6308 57.1211L17.7546 57.0965ZM17.0928 52.156L16.9666 52.1599L17.0928 52.156ZM17.158 48.8278L17.0321 48.8197L17.158 48.8278ZM17.4276 45.517L17.3028 45.4984L17.4276 45.517ZM18.0666 42.2562L18.1884 42.2894L18.0666 42.2562ZM19.0264 39.0726L18.9049 39.0383L19.0264 39.0726ZM19.588 37.5088L19.4725 37.458L19.588 37.5088ZM21.8398 33.0572L21.7292 32.9964L21.8398 33.0572ZM22.7293 31.653L22.6271 31.579L22.7293 31.653ZM24.727 28.9937L24.82 29.079L24.727 28.9937ZM25.8606 27.776L25.9523 27.8626L25.8606 27.776ZM27.006 26.5719L27.0972 26.6591L27.006 26.5719ZM28.2038 25.4211L28.1203 25.3265L28.2038 25.4211ZM30.7903 23.3324L30.871 23.4294L30.7903 23.3324ZM32.1493 22.3792L32.213 22.4881L32.1493 22.3792ZM36.505 19.9524L36.5531 20.0691L36.505 19.9524ZM39.6039 18.7396L39.5593 18.6215L39.6039 18.7396ZM44.4419 17.5462L44.4214 17.4217L44.4419 17.5462ZM47.7411 17.1559L47.7371 17.0298L47.7411 17.1559ZM52.7282 17.1519L52.742 17.0265L52.7282 17.1519ZM56.0242 17.6035L56.0006 17.7274L56.0242 17.6035ZM60.8455 18.8808L60.8856 18.7612L60.8455 18.8808ZM63.8986 20.1988L63.9476 20.0825L63.8986 20.1988ZM68.2714 22.5928L68.2001 22.6969L68.2714 22.5928ZM69.6031 23.5905L69.5232 23.6882L69.6031 23.5905ZM70.8739 24.6636L70.9568 24.5685L70.8739 24.6636ZM73.3209 26.9097L73.2342 27.0014L73.3209 26.9097ZM74.4914 28.0902L74.5839 28.0042L74.4914 28.0902ZM75.545 29.3746L75.6473 29.3008L75.545 29.3746ZM79.8764 36.4401L79.7614 36.4922L79.8764 36.4401ZM81.1157 39.5211L80.9951 39.5584L81.1157 39.5211ZM81.6217 41.1055L81.7416 41.066L81.6217 41.1055ZM82.3486 44.3455L82.4732 44.3254L82.3486 44.3455ZM82.8078 47.6352L82.6818 47.6415L82.8078 47.6352ZM82.9042 49.2959L83.0301 49.2875L82.9042 49.2959ZM82.9232 51.2008L82.797 51.1992C82.79 51.7504 82.7606 52.3004 82.7089 52.8491L82.8345 52.8609L82.9601 52.8728C83.0125 52.3172 83.0422 51.7605 83.0494 51.2025L82.9232 51.2008ZM82.8345 52.8609L82.7089 52.8491C82.6569 53.401 82.6033 53.9527 82.5481 54.5042L82.6737 54.5168L82.7992 54.5294C82.8545 53.9773 82.9081 53.4251 82.9601 52.8728L82.8345 52.8609ZM82.6737 54.5168L82.5481 54.5042C82.4934 55.0516 82.4096 55.5944 82.2969 56.1329L82.4204 56.1587L82.5439 56.1846C82.6585 55.6374 82.7436 55.0856 82.7992 54.5294L82.6737 54.5168ZM82.4204 56.1587L82.2969 56.1329C82.1831 56.6766 82.0755 57.2216 81.974 57.7678L82.098 57.7909L82.2221 57.8139C82.3232 57.2696 82.4305 56.7264 82.5439 56.1846L82.4204 56.1587ZM82.098 57.7909L81.974 57.7678C81.8731 58.3104 81.7545 58.8494 81.6181 59.3847L81.7403 59.4159L81.8626 59.447C82.0004 58.9063 82.1202 58.362 82.2221 57.8139L82.098 57.7909ZM81.7403 59.4159L81.6181 59.3847C81.4821 59.9182 81.3173 60.4427 81.1237 60.9582L81.2418 61.0026L81.36 61.0469C81.5568 60.5228 81.7244 59.9895 81.8626 59.447L81.7403 59.4159ZM81.2418 61.0026L81.1237 60.9582C80.9283 61.4785 80.7367 62.0001 80.549 62.5229L80.6678 62.5656L80.7865 62.6082C80.9738 62.0866 81.165 61.5661 81.36 61.0469L81.2418 61.0026ZM80.6678 62.5656L80.549 62.5229C80.3633 63.0402 80.1457 63.5437 79.896 64.0335L80.0084 64.0908L80.1209 64.1481C80.3754 63.6488 80.5973 63.1355 80.7865 62.6082L80.6678 62.5656ZM80.0084 64.0908L79.896 64.0335C79.6427 64.5304 79.4055 65.0353 79.1843 65.548L79.3001 65.598L79.416 65.648C79.6351 65.1402 79.87 64.6402 80.1209 64.1481L80.0084 64.0908ZM79.3001 65.598L79.1843 65.548C78.9671 66.0515 78.7076 66.532 78.4059 66.9898L78.5112 67.0592L78.6166 67.1287C78.9265 66.6586 79.1929 66.165 79.416 65.648L79.3001 65.598ZM78.5112 67.0592L78.4059 66.9898C78.1 67.4538 77.7954 67.9175 77.492 68.3807L77.5975 68.4498L77.7031 68.519C78.0063 68.056 78.3109 67.5925 78.6166 67.1287L78.5112 67.0592ZM77.5975 68.4498L77.492 68.3807C77.1895 68.8424 76.8784 69.2982 76.5586 69.7481L76.6615 69.8212L76.7643 69.8943C77.0859 69.4418 77.3988 68.9834 77.7031 68.519L77.5975 68.4498ZM76.6615 69.8212L76.5586 69.7481C76.2391 70.1977 75.9097 70.6402 75.5707 71.0756L75.6703 71.1531L75.7698 71.2307C76.1111 70.7924 76.4426 70.3469 76.7643 69.8943L76.6615 69.8212ZM75.6703 71.1531L75.5707 71.0756C75.2308 71.5121 74.8885 71.9477 74.5438 72.3824L74.6427 72.4608L74.7416 72.5392C75.0867 72.1039 75.4294 71.6678 75.7698 71.2307L75.6703 71.1531ZM74.6427 72.4608L74.5438 72.3824C74.2023 72.8131 73.8345 73.2198 73.4402 73.6025L73.5281 73.693L73.616 73.7836C74.0181 73.3932 74.3933 72.9784 74.7416 72.5392L74.6427 72.4608ZM73.5281 73.693L73.4402 73.6025C73.0426 73.9885 72.6417 74.3706 72.2377 74.749L72.324 74.8411L72.4102 74.9332C72.8153 74.5538 73.2172 74.1706 73.616 73.7836L73.5281 73.693ZM72.324 74.8411L72.2377 74.749C71.8348 75.1264 71.4222 75.4929 71 75.8487L71.0813 75.9451L71.1626 76.0416C71.5882 75.6831 72.0041 75.3136 72.4102 74.9332L72.324 74.8411ZM71.0813 75.9451L71 75.8487C70.5769 76.2052 70.1497 76.5574 69.7186 76.9053L69.7978 77.0035L69.877 77.1017C70.3096 76.7527 70.7381 76.3994 71.1626 76.0416L71.0813 75.9451ZM69.7978 77.0035L69.7186 76.9053C69.289 77.2519 68.848 77.5838 68.3957 77.9009L68.4681 78.0042L68.5406 78.1075C68.9975 77.7872 69.443 77.4519 69.877 77.1017L69.7978 77.0035ZM68.4681 78.0042L68.3957 77.9009C67.9455 78.2165 67.4767 78.5021 66.9894 78.7576L67.048 78.8694L67.1067 78.9811C67.6035 78.7205 68.0815 78.4293 68.5406 78.1075L68.4681 78.0042ZM67.048 78.8694L66.9894 78.7576C66.4962 79.0163 66.008 79.2824 65.5249 79.5558L65.5871 79.6656L65.6493 79.7755C66.13 79.5033 66.6158 79.2385 67.1067 78.9811L67.048 78.8694ZM65.5871 79.6656L65.5249 79.5558C65.0443 79.8279 64.5588 80.0919 64.0683 80.3479L64.1267 80.4598L64.1851 80.5716C64.6781 80.3144 65.1661 80.049 65.6493 79.7755L65.5871 79.6656ZM64.1267 80.4598L64.0683 80.3479C63.5816 80.6019 63.0801 80.8223 62.5636 81.0091L62.6066 81.1277L62.6495 81.2464C63.1765 81.0557 63.6884 80.8308 64.1851 80.5716L64.1267 80.4598ZM62.6066 81.1277L62.5636 81.0091C62.0413 81.198 61.521 81.391 61.0028 81.588L61.0476 81.7059L61.0925 81.8239C61.6094 81.6274 62.1284 81.4349 62.6495 81.2464L62.6066 81.1277ZM61.0476 81.7059L61.0028 81.588C60.4879 81.7837 59.9669 81.9617 59.4397 82.122L59.4764 82.2427L59.5131 82.3634C60.0458 82.2015 60.5722 82.0217 61.0925 81.8239L61.0476 81.7059ZM59.4764 82.2427L59.4397 82.122C58.911 82.2827 58.3798 82.4354 57.846 82.5802L57.879 82.702L57.9121 82.8237C58.4483 82.6783 58.9819 82.5249 59.5131 82.3634L59.4764 82.2427ZM57.879 82.702L57.846 82.5802C57.3132 82.7247 56.7766 82.8552 56.2364 82.9717L56.263 83.095L56.2896 83.2184C56.8341 83.101 57.375 82.9694 57.9121 82.8237L57.879 82.702ZM56.263 83.095L56.2364 82.9717C55.6968 83.088 55.1538 83.1855 54.6073 83.2642L54.6253 83.3891L54.6433 83.514C55.1956 83.4345 55.7443 83.3359 56.2896 83.2184L56.263 83.095ZM54.6253 83.3891L54.6073 83.2642C54.0599 83.343 53.5109 83.4088 52.9602 83.4618L52.9723 83.5874L52.9844 83.713C53.5389 83.6597 54.0919 83.5933 54.6433 83.514L54.6253 83.3891ZM52.9723 83.5874L52.9602 83.4618C52.41 83.5147 51.8586 83.5522 51.3062 83.5744L51.3113 83.7005L51.3163 83.8266C51.8734 83.8042 52.4294 83.7663 52.9844 83.713L52.9723 83.5874ZM51.3113 83.7005L51.3062 83.5744C50.7557 83.5965 50.2047 83.5909 49.6534 83.5575L49.6457 83.6834L49.6381 83.8094C50.1979 83.8433 50.7573 83.849 51.3163 83.8266L51.3113 83.7005ZM49.6457 83.6834L49.6534 83.5575C49.0955 83.5237 48.5376 83.5052 47.9799 83.5022L47.9792 83.6283L47.9785 83.7545C48.5316 83.7576 49.0848 83.7759 49.6381 83.8094L49.6457 83.6834ZM47.9792 83.6283L47.9799 83.5022C47.4316 83.4991 46.8876 83.4493 46.3477 83.3528L46.3255 83.477L46.3033 83.6012C46.8573 83.7003 47.4158 83.7514 47.9785 83.7545L47.9792 83.6283ZM46.3255 83.477L46.3477 83.3528C45.7979 83.2545 45.2459 83.1746 44.6915 83.1129L44.6775 83.2383L44.6636 83.3637C45.2124 83.4248 45.759 83.504 46.3033 83.6012L46.3255 83.477ZM44.6775 83.2383L44.6915 83.1129C44.1461 83.0521 43.6083 82.9513 43.078 82.8102L43.0456 82.9322L43.0131 83.0541C43.5555 83.1984 44.1057 83.3016 44.6636 83.3637L44.6775 83.2383ZM43.0456 82.9322L43.078 82.8102C42.5396 82.667 41.9975 82.5378 41.4519 82.4227L41.4258 82.5461L41.3998 82.6696C41.9411 82.7838 42.4789 82.912 43.0131 83.0541L43.0456 82.9322ZM41.4258 82.5461L41.4519 82.4227C40.915 82.3094 40.3908 82.1537 39.8793 81.9556L39.8337 82.0732L39.7881 82.1909C40.3124 82.3939 40.8496 82.5535 41.3998 82.6696L41.4258 82.5461ZM39.8337 82.0732L39.8793 81.9556C39.361 81.7548 38.8425 81.5567 38.3237 81.3612L38.2792 81.4792L38.2347 81.5973C38.7527 81.7926 39.2705 81.9904 39.7881 82.1909L39.8337 82.0732ZM38.2792 81.4792L38.3237 81.3612C37.8066 81.1662 37.2924 80.9629 36.7813 80.751L36.733 80.8676L36.6847 80.9842C37.1983 81.197 37.715 81.4014 38.2347 81.5973L38.2792 81.4792ZM36.733 80.8676L36.7813 80.751C36.2741 80.5409 35.7835 80.2972 35.3093 80.02L35.2456 80.1289L35.182 80.2379C35.666 80.5208 36.1669 80.7696 36.6847 80.9842L36.733 80.8676ZM35.2456 80.1289L35.3093 80.02C34.8296 79.7396 34.3485 79.4633 33.8661 79.191L33.804 79.3009L33.742 79.4108C34.2234 79.6824 34.7034 79.9581 35.182 80.2379L35.2456 80.1289ZM33.804 79.3009L33.8661 79.191C33.3844 78.9193 32.9032 78.6453 32.4223 78.3691L32.3595 78.4785L32.2966 78.588C32.778 78.8645 33.2598 79.1388 33.742 79.4108L33.804 79.3009ZM32.3595 78.4785L32.4223 78.3691C31.9468 78.0959 31.4946 77.7884 31.0657 77.4465L30.987 77.5451L30.9084 77.6438C31.3472 77.9937 31.81 78.3084 32.2966 78.588L32.3595 78.4785ZM30.987 77.5451L31.0657 77.4465C30.6303 77.0994 30.1872 76.7626 29.7363 76.4362L29.6623 76.5384L29.5883 76.6407C30.036 76.9647 30.4761 77.2991 30.9084 77.6438L30.987 77.5451ZM29.6623 76.5384L29.7363 76.4362C29.2913 76.1142 28.8689 75.765 28.4689 75.3887L28.3824 75.4806L28.296 75.5725C28.7038 75.9562 29.1346 76.3123 29.5883 76.6407L29.6623 76.5384ZM28.3824 75.4806L28.4689 75.3887C28.0642 75.008 27.6549 74.6322 27.2408 74.2613L27.1566 74.3552L27.0724 74.4492C27.4849 74.8188 27.8928 75.1933 28.296 75.5725L28.3824 75.4806ZM27.1566 74.3552L27.2408 74.2613C26.8306 73.8937 26.4392 73.5071 26.0665 73.1015L25.9736 73.1869L25.8807 73.2723C26.2589 73.6839 26.6561 74.0762 27.0724 74.4492L27.1566 74.3552ZM25.9736 73.1869L26.0665 73.1015C25.6934 72.6955 25.3376 72.2749 24.9991 71.8398L24.8995 71.9173L24.7999 71.9948C25.1426 72.4353 25.5029 72.8611 25.8807 73.2723L25.9736 73.1869ZM24.8995 71.9173L24.9991 71.8398C24.6584 71.4019 24.3172 70.9648 23.9756 70.5284L23.8762 70.6062L23.7769 70.684C24.1184 71.1202 24.4594 71.5571 24.7999 71.9948L24.8995 71.9173ZM23.8762 70.6062L23.9756 70.5284C23.6357 70.0944 23.3102 69.6496 22.9993 69.1942L22.8951 69.2654L22.7908 69.3365C23.1049 69.7965 23.4336 70.2456 23.7769 70.684L23.8762 70.6062ZM22.8951 69.2654L22.9993 69.1942C22.6878 68.7381 22.3871 68.2751 22.0969 67.8051L21.9895 67.8714L21.8822 67.9377C22.1744 68.4109 22.4772 68.8772 22.7908 69.3365L22.8951 69.2654ZM21.9895 67.8714L22.0969 67.8051C21.8069 67.3353 21.5287 66.8584 21.2624 66.3746L21.1519 66.4354L21.0413 66.4963C21.3096 66.9838 21.5899 67.4642 21.8822 67.9377L21.9895 67.8714ZM21.1519 66.4354L21.2624 66.3746C20.9959 65.8902 20.7382 65.4011 20.4892 64.907L20.3765 64.9638L20.2639 65.0206C20.5142 65.5174 20.7733 66.0092 21.0413 66.4963L21.1519 66.4354ZM20.3765 64.9638L20.4892 64.907C20.2405 64.4136 20.0045 63.9139 19.7809 63.408L19.6655 63.459L19.5501 63.51C19.7753 64.0198 20.0133 64.5233 20.2639 65.0206L20.3765 64.9638ZM19.6655 63.459L19.7809 63.408C19.5588 62.9053 19.3705 62.3899 19.2161 61.8619L19.095 61.8974L18.9739 61.9328C19.1314 62.4714 19.3235 62.9971 19.5501 63.51L19.6655 63.459ZM19.095 61.8974L19.2161 61.8619C19.0596 61.3268 18.891 60.7963 18.7105 60.2702L18.5911 60.3112L18.4718 60.3521C18.6511 60.8745 18.8184 61.4014 18.9739 61.9328L19.095 61.8974ZM18.5911 60.3112L18.7105 60.2702C18.5317 59.7494 18.3753 59.2219 18.2413 58.6877L18.1189 58.7184L17.9966 58.7491C18.1323 59.2902 18.2907 59.8246 18.4718 60.3521L18.5911 60.3112ZM18.1189 58.7184L18.2413 58.6877C18.107 58.152 17.986 57.6134 17.8783 57.0719L17.7546 57.0965L17.6308 57.1211C17.7392 57.6667 17.8612 58.2094 17.9966 58.7491L18.1189 58.7184ZM17.7546 57.0965L17.8783 57.0719C17.7704 56.5287 17.6648 55.9846 17.5617 55.4397L17.4377 55.4632L17.3137 55.4866C17.417 56.0323 17.5227 56.5772 17.6308 57.1211L17.7546 57.0965ZM17.4377 55.4632L17.5617 55.4397C17.4592 54.898 17.3807 54.3528 17.3262 53.8041L17.2007 53.8166L17.0751 53.829C17.1303 54.3851 17.2098 54.9376 17.3137 55.4866L17.4377 55.4632ZM17.2007 53.8166L17.3262 53.8041C17.2717 53.2545 17.2359 52.7039 17.2189 52.1521L17.0928 52.156L16.9666 52.1599C16.9838 52.7174 17.02 53.2738 17.0751 53.829L17.2007 53.8166ZM17.0928 52.156L17.2189 52.1521C17.2018 51.5997 17.1995 51.0467 17.2119 50.4931L17.0858 50.4903L16.9596 50.4874C16.9471 51.0455 16.9495 51.603 16.9666 52.1599L17.0928 52.156ZM17.0858 50.4903L17.2119 50.4931C17.2243 49.939 17.2483 49.3866 17.284 48.836L17.158 48.8278L17.0321 48.8197C16.9963 49.3739 16.9721 49.9298 16.9596 50.4874L17.0858 50.4903ZM17.158 48.8278L17.284 48.836C17.3197 48.2831 17.3531 47.7299 17.3842 47.1762L17.2582 47.1692L17.1322 47.1621C17.1012 47.715 17.0678 48.2676 17.0321 48.8197L17.158 48.8278ZM17.2582 47.1692L17.3842 47.1762C17.415 46.6268 17.471 46.08 17.5524 45.5356L17.4276 45.517L17.3028 45.4984C17.2203 46.0503 17.1634 46.6049 17.1322 47.1621L17.2582 47.1692ZM17.4276 45.517L17.5524 45.5356C17.634 44.9888 17.7243 44.4433 17.8231 43.8991L17.699 43.8766L17.5748 43.854C17.4755 44.4008 17.3848 44.9489 17.3028 45.4984L17.4276 45.517ZM17.699 43.8766L17.8231 43.8991C17.9216 43.3572 18.0433 42.8207 18.1884 42.2894L18.0666 42.2562L17.9449 42.2229C17.7979 42.7612 17.6746 43.3049 17.5748 43.854L17.699 43.8766ZM18.0666 42.2562L18.1884 42.2894C18.3339 41.7565 18.492 41.2278 18.6627 40.7032L18.5427 40.6642L18.4227 40.6251C18.2507 41.1536 18.0915 41.6862 17.9449 42.2229L18.0666 42.2562ZM18.5427 40.6642L18.6627 40.7032C18.8345 40.1751 18.9962 39.643 19.1478 39.1069L19.0264 39.0726L18.9049 39.0383C18.7543 39.5712 18.5935 40.1001 18.4227 40.6251L18.5427 40.6642ZM19.0264 39.0726L19.1478 39.1069C19.2973 38.578 19.4826 38.0623 19.7035 37.5595L19.588 37.5088L19.4725 37.458C19.2468 37.9714 19.0576 38.4982 18.9049 39.0383L19.0264 39.0726ZM19.588 37.5088L19.7035 37.5595C19.9263 37.0526 20.1564 36.5493 20.3938 36.0495L20.2798 35.9953L20.1659 35.9412C19.9274 36.4432 19.6963 36.9488 19.4725 37.458L19.588 37.5088ZM20.2798 35.9953L20.3938 36.0495C20.6306 35.5509 20.8821 35.0598 21.1481 34.5763L21.0376 34.5154L20.927 34.4546C20.6586 34.9425 20.4048 35.4381 20.1659 35.9412L20.2798 35.9953ZM21.0376 34.5154L21.1481 34.5763C21.4154 34.0906 21.6828 33.6045 21.9503 33.118L21.8398 33.0572L21.7292 32.9964C21.4617 33.4828 21.1943 33.9689 20.927 34.4546L21.0376 34.5154ZM21.8398 33.0572L21.9503 33.118C22.2154 32.6361 22.5091 32.1724 22.8315 31.727L22.7293 31.653L22.6271 31.579C22.2985 32.0329 21.9992 32.5054 21.7292 32.9964L21.8398 33.0572ZM22.7293 31.653L22.8315 31.727C23.1576 31.2765 23.4786 30.8224 23.7947 30.3648L23.6908 30.2931L23.587 30.2214C23.272 30.6775 22.9521 31.13 22.6271 31.579L22.7293 31.653ZM23.6908 30.2931L23.7947 30.3648C24.1069 29.9127 24.4486 29.4841 24.82 29.079L24.727 28.9937L24.634 28.9084C24.2548 29.3221 23.9058 29.7598 23.587 30.2214L23.6908 30.2931ZM24.727 28.9937L24.82 29.079C25.1948 28.67 25.5723 28.2646 25.9523 27.8626L25.8606 27.776L25.7689 27.6893C25.388 28.0922 25.0097 28.4986 24.634 28.9084L24.727 28.9937ZM25.8606 27.776L25.9523 27.8626C26.3326 27.4604 26.7142 27.0592 27.0972 26.6591L27.006 26.5719L26.9148 26.4846C26.5315 26.8851 26.1495 27.2867 25.7689 27.6893L25.8606 27.776ZM27.006 26.5719L27.0972 26.6591C27.4778 26.2614 27.8746 25.8802 28.2873 25.5157L28.2038 25.4211L28.1203 25.3265C27.7022 25.6957 27.3004 26.0818 26.9148 26.4846L27.006 26.5719ZM28.2038 25.4211L28.2873 25.5157C28.7004 25.1509 29.1262 24.8019 29.5648 24.4686L29.4885 24.3681L29.4122 24.2677C28.9686 24.6047 28.538 24.9576 28.1203 25.3265L28.2038 25.4211ZM29.4885 24.3681L29.5648 24.4686C30.0074 24.1323 30.4428 23.7859 30.871 23.4294L30.7903 23.3324L30.7096 23.2355C30.2842 23.5896 29.8517 23.9337 29.4122 24.2677L29.4885 24.3681ZM30.7903 23.3324L30.871 23.4294C31.2925 23.0785 31.7398 22.7648 32.213 22.4881L32.1493 22.3792L32.0856 22.2702C31.6004 22.5539 31.1417 22.8757 30.7096 23.2355L30.7903 23.3324ZM32.1493 22.3792L32.213 22.4881C32.6923 22.2079 33.1707 21.9275 33.6482 21.647L33.5843 21.5382L33.5204 21.4294C33.043 21.7099 32.5648 21.9901 32.0856 22.2702L32.1493 22.3792ZM33.5843 21.5382L33.6482 21.647C34.1258 21.3665 34.6037 21.0849 35.082 20.8023L35.0178 20.6937L34.9536 20.585C34.4755 20.8675 33.9978 21.149 33.5204 21.4294L33.5843 21.5382ZM35.0178 20.6937L35.082 20.8023C35.555 20.5228 36.0454 20.2784 36.5531 20.0691L36.505 19.9524L36.4569 19.8358C35.9381 20.0497 35.437 20.2994 34.9536 20.585L35.0178 20.6937ZM36.505 19.9524L36.5531 20.0691C37.0655 19.8578 37.5797 19.6521 38.0956 19.4522L38.05 19.3345L38.0044 19.2169C37.4868 19.4175 36.9709 19.6238 36.4569 19.8358L36.505 19.9524ZM38.05 19.3345L38.0956 19.4522C38.612 19.252 39.1297 19.0538 39.6485 18.8576L39.6039 18.7396L39.5593 18.6215C39.0398 18.818 38.5215 19.0164 38.0044 19.2169L38.05 19.3345ZM39.6039 18.7396L39.6485 18.8576C40.1638 18.6627 40.6874 18.494 41.2195 18.3513L41.1868 18.2294L41.1542 18.1075C40.614 18.2524 40.0823 18.4237 39.5593 18.6215L39.6039 18.7396ZM41.1868 18.2294L41.2195 18.3513C41.7532 18.2082 42.2905 18.0814 42.8315 17.9709L42.8063 17.8473L42.781 17.7237C42.235 17.8352 41.6927 17.9631 41.1542 18.1075L41.1868 18.2294ZM42.8063 17.8473L42.8315 17.9709C43.3734 17.8603 43.917 17.7602 44.4623 17.6707L44.4419 17.5462L44.4214 17.4217C43.8729 17.5117 43.3261 17.6124 42.781 17.7237L42.8063 17.8473ZM44.4419 17.5462L44.4623 17.6707C45.0082 17.5812 45.5552 17.4982 46.1034 17.4219L46.086 17.2969L46.0686 17.1719C45.5184 17.2485 44.9693 17.3318 44.4214 17.4217L44.4419 17.5462ZM46.086 17.2969L46.1034 17.4219C46.6481 17.346 47.1953 17.2994 47.7451 17.282L47.7411 17.1559L47.7371 17.0298C47.1784 17.0474 46.6222 17.0948 46.0686 17.1719L46.086 17.2969ZM47.7411 17.1559L47.7451 17.282C48.3004 17.2644 48.8558 17.24 49.4113 17.2089L49.4042 17.0829L49.3972 16.9569C48.8437 16.988 48.2903 17.0122 47.7371 17.0298L47.7411 17.1559ZM49.4042 17.0829L49.4113 17.2089C49.9628 17.1779 50.5146 17.1666 51.0665 17.1749L51.0684 17.0487L51.0703 16.9226C50.5124 16.9142 49.9547 16.9256 49.3972 16.9569L49.4042 17.0829ZM51.0684 17.0487L51.0665 17.1749C51.6174 17.1832 52.1667 17.2173 52.7145 17.2774L52.7282 17.1519L52.742 17.0265C52.1864 16.9656 51.6291 16.931 51.0703 16.9226L51.0684 17.0487ZM52.7282 17.1519L52.7145 17.2774C53.2656 17.3377 53.816 17.4021 54.3657 17.4704L54.3813 17.3452L54.3969 17.2199C53.8459 17.1515 53.2942 17.087 52.742 17.0265L52.7282 17.1519ZM54.3813 17.3452L54.3657 17.4704C54.9134 17.5384 55.4584 17.6241 56.0006 17.7274L56.0242 17.6035L56.0478 17.4795C55.5002 17.3752 54.9499 17.2887 54.3969 17.2199L54.3813 17.3452ZM56.0242 17.6035L56.0006 17.7274C56.5418 17.8306 57.0772 17.9575 57.6069 18.1084L57.6415 17.987L57.676 17.8657C57.1391 17.7128 56.5964 17.584 56.0478 17.4795L56.0242 17.6035ZM57.6415 17.987L57.6069 18.1084C58.1416 18.2606 58.6787 18.4039 59.2183 18.5381L59.2488 18.4157L59.2792 18.2932C58.7424 18.1597 58.208 18.0171 57.676 17.8657L57.6415 17.987ZM59.2488 18.4157L59.2183 18.5381C59.7533 18.6712 60.2823 18.8253 60.8054 19.0005L60.8455 18.8808L60.8856 18.7612C60.3561 18.5839 59.8207 18.4279 59.2792 18.2932L59.2488 18.4157ZM60.8455 18.8808L60.8054 19.0005C61.3265 19.1749 61.8341 19.3827 62.3283 19.6237L62.3836 19.5103L62.439 19.3969C61.9349 19.151 61.4171 18.9391 60.8856 18.7612L60.8455 18.8808ZM62.3836 19.5103L62.3283 19.6237C62.8295 19.8682 63.3366 20.0986 63.8495 20.315L63.8986 20.1988L63.9476 20.0825C63.439 19.8679 62.9361 19.6394 62.439 19.3969L62.3836 19.5103ZM63.8986 20.1988L63.8495 20.315C64.3563 20.5289 64.8508 20.7682 65.3329 21.033L65.3937 20.9224L65.4544 20.8118C64.9647 20.5428 64.4624 20.2997 63.9476 20.0825L63.8986 20.1988ZM65.3937 20.9224L65.3329 21.033C65.8189 21.2999 66.3055 21.5667 66.7926 21.8333L66.8532 21.7226L66.9138 21.6119C66.4267 21.3454 65.9403 21.0786 65.4544 20.8118L65.3937 20.9224ZM66.8532 21.7226L66.7926 21.8333C67.2761 22.0979 67.7452 22.3858 68.2001 22.6969L68.2714 22.5928L68.3426 22.4886C67.8808 22.1728 67.4045 21.8805 66.9138 21.6119L66.8532 21.7226ZM68.2714 22.5928L68.2001 22.6969C68.6555 23.0084 69.0965 23.3388 69.5232 23.6882L69.6031 23.5905L69.6831 23.4929C69.2508 23.1389 68.8039 22.8042 68.3426 22.4886L68.2714 22.5928ZM69.6031 23.5905L69.5232 23.6882C69.9517 24.039 70.3743 24.3959 70.791 24.7588L70.8739 24.6636L70.9568 24.5685C70.5381 24.2039 70.1136 23.8454 69.6831 23.4929L69.6031 23.5905ZM70.8739 24.6636L70.791 24.7588C71.2077 25.1216 71.6182 25.4908 72.0228 25.8664L72.1086 25.774L72.1945 25.6815C71.788 25.3041 71.3754 24.9331 70.9568 24.5685L70.8739 24.6636ZM72.1086 25.774L72.0228 25.8664C72.428 26.2427 72.8318 26.621 73.2342 27.0014L73.3209 26.9097L73.4075 26.8181C73.0046 26.4371 72.6002 26.0582 72.1945 25.6815L72.1086 25.774ZM73.3209 26.9097L73.2342 27.0014C73.6349 27.3803 74.0232 27.7718 74.399 28.1761L74.4914 28.0902L74.5839 28.0042C74.2043 27.596 73.8122 27.2006 73.4075 26.8181L73.3209 26.9097ZM74.4914 28.0902L74.399 28.1761C74.7732 28.5785 75.1211 29.0026 75.4427 29.4484L75.545 29.3746L75.6473 29.3008C75.3196 28.8465 74.9651 28.4143 74.5839 28.0042L74.4914 28.0902ZM75.545 29.3746L75.4427 29.4484C75.7675 29.8988 76.0941 30.3471 76.4222 30.7934L76.5239 30.7186L76.6255 30.6438C76.2978 30.1982 75.9718 29.7505 75.6473 29.3008L75.545 29.3746ZM76.5239 30.7186L76.4222 30.7934C76.7486 31.2372 77.0609 31.6908 77.3591 32.154L77.4652 32.0857L77.5713 32.0175C77.2703 31.5498 76.955 31.0919 76.6255 30.6438L76.5239 30.7186ZM77.4652 32.0857L77.3591 32.154C77.6583 32.6189 77.9536 33.0865 78.2449 33.5569L78.3522 33.4905L78.4595 33.424C78.1673 32.9524 77.8713 32.4835 77.5713 32.0175L77.4652 32.0857ZM78.3522 33.4905L78.2449 33.5569C78.5347 34.0247 78.8027 34.5046 79.049 34.9966L79.1618 34.9402L79.2747 34.8837C79.025 34.3848 78.7532 33.8982 78.4595 33.424L78.3522 33.4905ZM79.1618 34.9402L79.049 34.9966C79.2962 35.4907 79.5337 35.9892 79.7614 36.4922L79.8764 36.4401L79.9913 36.3881C79.7623 35.8821 79.5234 35.3806 79.2747 34.8837L79.1618 34.9402ZM79.8764 36.4401L79.7614 36.4922C79.9894 36.9958 80.2117 37.5022 80.4282 38.0113L80.5443 37.9619L80.6604 37.9125C80.4431 37.4016 80.2201 36.8935 79.9913 36.3881L79.8764 36.4401ZM80.5443 37.9619L80.4282 38.0113C80.6435 38.5174 80.8324 39.0331 80.9951 39.5584L81.1157 39.5211L81.2362 39.4838C81.071 38.9503 80.879 38.4265 80.6604 37.9125L80.5443 37.9619ZM81.1157 39.5211L80.9951 39.5584C81.1593 40.0886 81.3282 40.6174 81.5018 41.1449L81.6217 41.1055L81.7416 41.066C81.5684 40.5399 81.3999 40.0125 81.2362 39.4838L81.1157 39.5211ZM81.6217 41.1055L81.5018 41.1449C81.6737 41.6671 81.8149 42.1974 81.9255 42.7359L82.0491 42.7105L82.1727 42.6851C82.0602 42.1372 81.9165 41.5974 81.7416 41.066L81.6217 41.1055ZM82.0491 42.7105L81.9255 42.7359C82.0366 43.2774 82.1362 43.8206 82.224 44.3656L82.3486 44.3455L82.4732 44.3254C82.3847 43.7769 82.2846 43.2301 82.1727 42.6851L82.0491 42.7105ZM82.3486 44.3455L82.224 44.3656C82.3123 44.9129 82.4041 45.4599 82.4994 46.0068L82.6237 45.9851L82.7481 45.9634C82.6529 45.4176 82.5612 44.8716 82.4732 44.3254L82.3486 44.3455ZM82.6237 45.9851L82.4994 46.0068C82.5938 46.548 82.6546 47.0929 82.6818 47.6415L82.8078 47.6352L82.9338 47.629C82.9062 47.07 82.8442 46.5148 82.7481 45.9634L82.6237 45.9851ZM82.8078 47.6352L82.6818 47.6415C82.7092 48.196 82.7414 48.7502 82.7783 49.3043L82.9042 49.2959L83.0301 49.2875C82.9933 48.7349 82.9612 48.1821 82.9338 47.629L82.8078 47.6352ZM82.9042 49.2959L82.7783 49.3043C82.7967 49.5806 82.8093 49.7972 82.8164 49.9544C82.8236 50.1164 82.8242 50.2052 82.8212 50.2342L82.9467 50.2474L83.0722 50.2606C83.0776 50.2086 83.0754 50.0984 83.0685 49.9431C83.0613 49.7832 83.0485 49.5645 83.0301 49.2875L82.9042 49.2959ZM82.9467 50.2474L82.8212 50.2342C82.8119 50.3227 82.8041 50.6486 82.797 51.1992L82.9232 51.2008L83.0494 51.2025C83.0566 50.6438 83.0644 50.3342 83.0722 50.2606L82.9467 50.2474Z" fill="#F1E6E6"/>
<path fill-rule="evenodd" clip-rule="evenodd" d="M49.958 19.9781C50.6756 19.5641 51.3608 20.0634 51.9404 20.9195C52.638 21.767 52.4036 22.2512 52.6504 22.3746C52.9026 22.5005 52.9026 21.9959 54.1641 21.8697V21.8746C55.4069 21.7466 56.4446 21.9538 56.543 22.8951C56.6416 23.8392 55.6627 24.256 54.415 24.3863C54.3099 24.3973 54.2076 24.3996 54.1084 24.399C53.1268 24.5081 52.3943 24.2371 52.5234 24.6246C52.7337 25.2555 53.0289 26.1385 53.2812 27.274C53.5229 28.3615 53.7861 29.3376 53.7861 29.8424L52.9023 29.4195C52.9023 29.083 52.871 28.1907 52.5234 27.148C52.2712 26.3911 52.271 25.7604 51.8926 25.0035C51.6402 24.4988 51.1354 25.003 50.126 25.8863C49.3844 26.5352 48.4859 27.5262 48.2334 27.9049C48.0315 28.2077 47.8968 27.7384 47.7285 27.4439C47.8555 26.9388 49.7157 25.2117 50.3789 24.7506C51.4694 23.9923 51.1205 23.8135 50.5566 23.2545C50.3836 23.1048 50.2192 22.9189 50.0742 22.6939C50.0057 22.5967 49.9374 22.4917 49.874 22.3756L49.8857 22.3707C49.3471 21.361 49.1881 20.4227 49.958 19.9781Z" fill="#56614F"/>
<circle cx="47.0975" cy="29.4647" r="2.27129" fill="#B22013"/>
<circle cx="53.1551" cy="31.2322" r="2.27129" fill="#B22013"/>
</svg>
