<svg width="100" height="100" viewBox="0 0 100 100" fill="none" xmlns="http://www.w3.org/2000/svg">
<g clip-path="url(#clip0_3710_33365)">
<rect width="55.615" height="80" transform="translate(10 78) rotate(-90)" fill="#FFF8DF"/>
<path d="M6.58398 74.7148L93.2846 74.7148" stroke="#1848D1" stroke-width="0.0874449" stroke-miterlimit="10"/>
<path d="M6.58398 70.9844L93.2846 70.9844" stroke="#1848D1" stroke-width="0.0874449" stroke-miterlimit="10"/>
<path d="M6.58398 67.2539L93.2846 67.2539" stroke="#1848D1" stroke-width="0.0874449" stroke-miterlimit="10"/>
<path d="M6.58398 63.5254L93.2846 63.5254" stroke="#1848D1" stroke-width="0.0874449" stroke-miterlimit="10"/>
<path d="M6.58398 59.7969L93.2846 59.7969" stroke="#1848D1" stroke-width="0.0874449" stroke-miterlimit="10"/>
<path d="M6.58398 56.0645L93.2846 56.0645" stroke="#1848D1" stroke-width="0.0874449" stroke-miterlimit="10"/>
<path d="M6.58398 52.3359L93.2846 52.3359" stroke="#1848D1" stroke-width="0.0874449" stroke-miterlimit="10"/>
<path d="M6.58398 48.6055L93.2846 48.6055" stroke="#1848D1" stroke-width="0.0874449" stroke-miterlimit="10"/>
<path d="M6.58398 44.875L93.2846 44.875" stroke="#1848D1" stroke-width="0.0874449" stroke-miterlimit="10"/>
<path d="M6.58398 41.1465L93.2846 41.1465" stroke="#1848D1" stroke-width="0.0874449" stroke-miterlimit="10"/>
<path d="M6.58398 37.416L93.2846 37.416" stroke="#1848D1" stroke-width="0.0874449" stroke-miterlimit="10"/>
<path d="M6.58398 33.6875L93.2846 33.6875" stroke="#1848D1" stroke-width="0.0874449" stroke-miterlimit="10"/>
<path d="M6.58398 29.957L93.2846 29.957" stroke="#1848D1" stroke-width="0.0874449" stroke-miterlimit="10"/>
<path d="M6.58398 26.2266L93.2846 26.2266" stroke="#1848D1" stroke-width="0.0874449" stroke-miterlimit="10"/>
<path d="M25.2637 10.5391L25.2637 188.846" stroke="#CE1919" stroke-width="0.0874449" stroke-miterlimit="10"/>
</g>
<defs>
<clipPath id="clip0_3710_33365">
<rect width="55.615" height="80" fill="white" transform="translate(10 78) rotate(-90)"/>
</clipPath>
</defs>
</svg>
