<svg width="100" height="100" viewBox="0 0 100 100" fill="none" xmlns="http://www.w3.org/2000/svg">
<rect x="15.8347" y="23.8347" width="74.0357" height="58.3469" rx="3.50081" fill="white" stroke="black" stroke-width="0.259319"/>
<path d="M19.3359 23.835H86.3691C88.3026 23.835 89.8701 25.4025 89.8701 27.3359V31.874H15.835V27.3359C15.835 25.4025 17.4025 23.835 19.3359 23.835Z" fill="#858688" stroke="black" stroke-width="0.259319"/>
<circle cx="72.1063" cy="27.8543" r="1.81524" fill="#D9D9D9"/>
<circle cx="77.8113" cy="27.8543" r="1.81524" fill="#D9D9D9"/>
<circle cx="83.5164" cy="27.8543" r="1.81524" fill="#D9D9D9"/>
<rect x="12.9822" y="20.9832" width="74.0357" height="58.3469" rx="3.50081" fill="white" stroke="black" stroke-width="0.259319"/>
<path d="M16.4834 20.9834H83.5166C85.4501 20.9834 87.0176 22.5509 87.0176 24.4844V29.0225H12.9824V24.4844C12.9824 22.5509 14.55 20.9834 16.4834 20.9834Z" fill="#858688" stroke="black" stroke-width="0.259319"/>
<circle cx="69.2547" cy="25.0027" r="1.81524" fill="#D9D9D9"/>
<circle cx="74.9598" cy="25.0027" r="1.81524" fill="#D9D9D9"/>
<circle cx="80.6648" cy="25.0027" r="1.81524" fill="#D9D9D9"/>
<rect x="10.1297" y="18.1297" width="74.0357" height="58.3469" rx="3.50081" fill="white" stroke="black" stroke-width="0.259319"/>
<path d="M13.6309 18.1299H80.6641C82.5975 18.1299 84.165 19.6974 84.165 21.6309V26.1689H10.1299V21.6309C10.1299 19.6974 11.6974 18.1299 13.6309 18.1299Z" fill="#858688" stroke="black" stroke-width="0.259319"/>
<circle cx="66.4022" cy="22.1492" r="1.81524" fill="#D9D9D9"/>
<circle cx="72.1072" cy="22.1492" r="1.81524" fill="#D9D9D9"/>
<circle cx="77.8123" cy="22.1492" r="1.81524" fill="#D9D9D9"/>
</svg>
