<svg width="100" height="100" viewBox="0 0 100 100" fill="none" xmlns="http://www.w3.org/2000/svg">
<g clip-path="url(#clip0_3710_33002)">
<rect width="63.6735" height="80" transform="translate(17.959 10)" fill="white"/>
<ellipse cx="49.7957" cy="50.0595" rx="31.8367" ry="40.0595" fill="url(#paint0_radial_3710_33002)"/>
<path d="M26.1083 20.8706L26.5448 20.0939C26.5736 20.0414 26.611 20.0006 26.6569 19.9714C26.7028 19.9421 26.753 19.9235 26.8076 19.9157C26.8622 19.9078 26.9157 19.9115 26.968 19.9266C27.0204 19.9417 27.0678 19.9704 27.1104 20.0126L27.7502 20.6345L28.613 20.7914C28.6952 20.8051 28.763 20.8404 28.8161 20.8973C28.8693 20.9542 28.9015 21.0209 28.9126 21.0974C28.9177 21.1327 28.9177 21.1687 28.9123 21.2053C28.907 21.2418 28.8948 21.2779 28.8757 21.3135L28.4469 22.1269L28.5804 22.9056C28.5988 23.0089 28.577 23.1013 28.5149 23.1829C28.4529 23.2645 28.3737 23.3122 28.2774 23.326C28.2746 23.3264 28.2407 23.3269 28.1756 23.3275L27.2862 23.2077L26.4672 23.5731C26.4516 23.5821 26.435 23.5883 26.4175 23.5919C26.4 23.5954 26.3839 23.5983 26.3692 23.6004C26.272 23.6144 26.1822 23.5909 26.0999 23.5301C26.0176 23.4693 25.9706 23.3868 25.9589 23.2825L25.8644 22.4932L25.2253 21.8383C25.1968 21.8095 25.1748 21.7782 25.1593 21.7444C25.1437 21.7107 25.1334 21.6762 25.1283 21.641C25.1175 21.5667 25.1293 21.4944 25.1637 21.4242C25.1981 21.354 25.2526 21.2999 25.3271 21.2619L26.1083 20.8706Z" fill="#FFE17E"/>
<path d="M72.3025 77.6956L71.8663 78.472C71.8374 78.5245 71.8001 78.5653 71.7542 78.5946C71.7083 78.6238 71.6581 78.6424 71.6035 78.6502C71.5489 78.658 71.4954 78.6544 71.443 78.6392C71.3907 78.6241 71.3432 78.5954 71.3006 78.5532L70.6606 77.9312L69.7977 77.7741C69.7154 77.7604 69.6477 77.725 69.5945 77.6681C69.5413 77.6112 69.5091 77.5444 69.4979 77.468C69.4928 77.4327 69.4929 77.3967 69.4982 77.3602C69.5035 77.3236 69.5157 77.2875 69.5348 77.2519L69.9634 76.4387L69.8297 75.66C69.8112 75.5567 69.833 75.4643 69.8951 75.3828C69.9571 75.3012 70.0363 75.2535 70.1326 75.2397C70.1354 75.2393 70.1693 75.2388 70.2344 75.2383L71.1239 75.3583L71.9429 74.9931C71.9585 74.9842 71.9751 74.9779 71.9925 74.9744C72.01 74.9708 72.0262 74.968 72.0409 74.9659C72.1381 74.9519 72.2279 74.9754 72.3102 75.0363C72.3925 75.0971 72.4396 75.1796 72.4513 75.2838L72.546 76.0731L73.1853 76.7281C73.2138 76.757 73.2359 76.7883 73.2514 76.822C73.267 76.8558 73.2773 76.8903 73.2824 76.9255C73.2933 76.9998 73.2815 77.0721 73.2471 77.1422C73.2127 77.2124 73.1582 77.2665 73.0837 77.3045L72.3025 77.6956Z" fill="#FFE17E"/>
<path d="M29.9025 18.1401L30.3242 17.7609C30.3523 17.7352 30.3831 17.7181 30.4168 17.7099C30.4504 17.7016 30.4845 17.7006 30.519 17.707C30.5535 17.7133 30.5849 17.7264 30.6134 17.7462C30.6419 17.7659 30.6646 17.7928 30.6817 17.8269L30.9401 18.3317L31.4279 18.6016C31.4747 18.6266 31.5083 18.6616 31.5287 18.7067C31.5491 18.7518 31.5549 18.7985 31.5459 18.8469C31.5418 18.8692 31.5344 18.8908 31.5237 18.9118C31.5131 18.9327 31.4983 18.952 31.4795 18.9695L31.055 19.3724L30.9763 19.8686C30.9663 19.9346 30.9343 19.9858 30.8802 20.0223C30.8262 20.0589 30.7687 20.0715 30.7079 20.0603C30.7061 20.06 30.6855 20.0534 30.6462 20.0405L30.1347 19.7875L29.5666 19.8411C29.5554 19.8433 29.5441 19.8437 29.5328 19.8423C29.5216 19.8409 29.5113 19.8393 29.502 19.8376C29.4405 19.8262 29.3913 19.7939 29.3541 19.7405C29.3169 19.6871 29.3055 19.6279 29.3197 19.5627L29.424 19.068L29.1727 18.5435C29.1615 18.5203 29.1546 18.497 29.1521 18.4735C29.1496 18.45 29.1505 18.4272 29.1546 18.4049C29.1633 18.3579 29.1851 18.3168 29.2202 18.2815C29.2553 18.2462 29.2992 18.2247 29.3519 18.2169L29.9025 18.1401Z" fill="#FFE17E"/>
<path d="M68.5819 80.5533L68.1602 80.9325C68.1321 80.9582 68.1012 80.9752 68.0676 80.9835C68.034 80.9918 67.9999 80.9928 67.9654 80.9864C67.9309 80.98 67.8994 80.9669 67.871 80.9472C67.8425 80.9274 67.8198 80.9005 67.8027 80.8664L67.5443 80.3617L67.0564 80.0918C67.0097 80.0668 66.9761 80.0318 66.9557 79.9867C66.9353 79.9415 66.9295 79.8948 66.9384 79.8465C66.9426 79.8242 66.95 79.8025 66.9606 79.7816C66.9713 79.7606 66.986 79.7414 67.0049 79.7238L67.4294 79.321L67.508 78.8247C67.518 78.7588 67.5501 78.7075 67.6041 78.671C67.6582 78.6345 67.7156 78.6218 67.7765 78.6331C67.7783 78.6334 67.7988 78.64 67.8381 78.6529L68.3496 78.9059L68.9178 78.8523C68.929 78.8501 68.9403 78.8497 68.9515 78.8511C68.9628 78.8525 68.9731 78.8541 68.9824 78.8558C69.0438 78.8671 69.0931 78.8995 69.1303 78.9529C69.1674 79.0062 69.1789 79.0655 69.1647 79.1307L69.0603 79.6254L69.3116 80.1499C69.3229 80.173 69.3298 80.1964 69.3323 80.2198C69.3347 80.2433 69.3339 80.2662 69.3298 80.2885C69.3211 80.3354 69.2992 80.3766 69.2642 80.4119C69.2291 80.4472 69.1852 80.4687 69.1325 80.4764L68.5819 80.5533Z" fill="#FFE17E"/>
<path d="M71.744 25.7349L71.3223 26.1141C71.2942 26.1398 71.2633 26.1569 71.2297 26.1651C71.1961 26.1734 71.162 26.1744 71.1275 26.168C71.093 26.1617 71.0615 26.1486 71.0331 26.1288C71.0046 26.1091 70.9819 26.0822 70.9648 26.0481L70.7064 25.5433L70.2186 25.2734C70.1718 25.2484 70.1382 25.2134 70.1178 25.1683C70.0974 25.1232 70.0916 25.0765 70.1005 25.0281C70.1047 25.0058 70.1121 24.9842 70.1227 24.9632C70.1334 24.9423 70.1482 24.923 70.167 24.9055L70.5915 24.5026L70.6701 24.0064C70.6802 23.9404 70.7122 23.8892 70.7663 23.8527C70.8203 23.8161 70.8778 23.8035 70.9386 23.8147C70.9404 23.815 70.9609 23.8216 71.0002 23.8345L71.5117 24.0875L72.0799 24.0339C72.0911 24.0317 72.1024 24.0313 72.1136 24.0327C72.1249 24.0341 72.1352 24.0357 72.1445 24.0374C72.2059 24.0488 72.2552 24.0811 72.2924 24.1345C72.3295 24.1879 72.341 24.2471 72.3268 24.3123L72.2224 24.807L72.4737 25.3315C72.485 25.3547 72.4919 25.378 72.4944 25.4015C72.4968 25.425 72.496 25.4478 72.4919 25.4701C72.4832 25.5171 72.4614 25.5582 72.4263 25.5935C72.3912 25.6288 72.3473 25.6503 72.2946 25.6581L71.744 25.7349Z" fill="#FFE17E"/>
</g>
<g clip-path="url(#clip1_3710_33002)">
<rect width="63.6735" height="80" transform="translate(18 10)" fill="white"/>
<ellipse cx="49.8367" cy="50.0595" rx="31.8367" ry="40.0595" fill="url(#paint1_radial_3710_33002)"/>
<path d="M26.1494 20.8706L26.5858 20.0939C26.6146 20.0414 26.652 20.0006 26.6979 19.9714C26.7438 19.9421 26.794 19.9235 26.8486 19.9157C26.9032 19.9078 26.9567 19.9115 27.009 19.9266C27.0614 19.9417 27.1089 19.9704 27.1515 20.0126L27.7912 20.6345L28.654 20.7914C28.7363 20.8051 28.804 20.8404 28.8571 20.8973C28.9104 20.9542 28.9425 21.0209 28.9536 21.0974C28.9588 21.1327 28.9587 21.1687 28.9534 21.2053C28.948 21.2418 28.9358 21.2779 28.9167 21.3135L28.4879 22.1269L28.6214 22.9056C28.6399 23.0089 28.618 23.1013 28.556 23.1829C28.4939 23.2645 28.4148 23.3122 28.3184 23.326C28.3156 23.3264 28.2817 23.3269 28.2167 23.3275L27.3272 23.2077L26.5082 23.5731C26.4926 23.5821 26.476 23.5883 26.4585 23.5919C26.441 23.5954 26.4249 23.5983 26.4102 23.6004C26.313 23.6144 26.2232 23.5909 26.1409 23.5301C26.0587 23.4693 26.0116 23.3868 25.9999 23.2825L25.9054 22.4932L25.2664 21.8383C25.2378 21.8095 25.2158 21.7782 25.2003 21.7444C25.1847 21.7107 25.1744 21.6762 25.1693 21.641C25.1585 21.5667 25.1703 21.4944 25.2047 21.4242C25.2392 21.354 25.2936 21.2999 25.3682 21.2619L26.1494 20.8706Z" fill="#FFE17E"/>
<path d="M72.3435 77.6956L71.9073 78.472C71.8785 78.5245 71.8411 78.5653 71.7952 78.5946C71.7493 78.6238 71.6991 78.6424 71.6445 78.6502C71.5899 78.658 71.5364 78.6544 71.484 78.6392C71.4317 78.6241 71.3842 78.5954 71.3416 78.5532L70.7016 77.9312L69.8387 77.7741C69.7564 77.7604 69.6887 77.725 69.6355 77.6681C69.5823 77.6112 69.5501 77.5444 69.539 77.468C69.5338 77.4327 69.5339 77.3967 69.5392 77.3602C69.5445 77.3236 69.5567 77.2875 69.5759 77.2519L70.0044 76.4387L69.8707 75.66C69.8522 75.5567 69.8741 75.4643 69.9361 75.3828C69.9981 75.3012 70.0773 75.2535 70.1736 75.2397C70.1764 75.2393 70.2104 75.2388 70.2754 75.2383L71.165 75.3583L71.9839 74.9931C71.9995 74.9842 72.0161 74.9779 72.0336 74.9744C72.0511 74.9708 72.0672 74.968 72.0819 74.9659C72.1791 74.9519 72.2689 74.9754 72.3512 75.0363C72.4335 75.0971 72.4806 75.1796 72.4924 75.2838L72.587 76.0731L73.2263 76.7281C73.2549 76.757 73.2769 76.7883 73.2924 76.822C73.308 76.8558 73.3183 76.8903 73.3234 76.9255C73.3343 76.9998 73.3225 77.0721 73.2881 77.1422C73.2537 77.2124 73.1992 77.2665 73.1247 77.3045L72.3435 77.6956Z" fill="#FFE17E"/>
<path d="M29.9435 18.1401L30.3652 17.7609C30.3933 17.7352 30.4242 17.7181 30.4578 17.7099C30.4914 17.7016 30.5255 17.7006 30.56 17.707C30.5945 17.7133 30.626 17.7264 30.6544 17.7462C30.6829 17.7659 30.7056 17.7928 30.7227 17.8269L30.9811 18.3317L31.4689 18.6016C31.5157 18.6266 31.5493 18.6616 31.5697 18.7067C31.5901 18.7518 31.5959 18.7985 31.587 18.8469C31.5828 18.8692 31.5754 18.8908 31.5648 18.9118C31.5541 18.9327 31.5393 18.952 31.5205 18.9695L31.096 19.3724L31.0174 19.8686C31.0073 19.9346 30.9753 19.9858 30.9212 20.0223C30.8672 20.0589 30.8097 20.0715 30.7489 20.0603C30.7471 20.06 30.7266 20.0534 30.6873 20.0405L30.1758 19.7875L29.6076 19.8411C29.5964 19.8433 29.5851 19.8437 29.5739 19.8423C29.5626 19.8409 29.5523 19.8393 29.543 19.8376C29.4816 19.8262 29.4323 19.7939 29.3951 19.7405C29.358 19.6871 29.3465 19.6279 29.3607 19.5627L29.4651 19.068L29.2138 18.5435C29.2025 18.5203 29.1956 18.497 29.1931 18.4735C29.1907 18.45 29.1915 18.4272 29.1956 18.4049C29.2043 18.3579 29.2261 18.3168 29.2612 18.2815C29.2963 18.2462 29.3402 18.2247 29.3929 18.2169L29.9435 18.1401Z" fill="#FFE17E"/>
<path d="M68.6229 80.5533L68.2012 80.9325C68.1731 80.9582 68.1423 80.9752 68.1086 80.9835C68.075 80.9918 68.0409 80.9928 68.0064 80.9864C67.9719 80.98 67.9404 80.9669 67.912 80.9472C67.8835 80.9274 67.8608 80.9005 67.8437 80.8664L67.5853 80.3617L67.0975 80.0918C67.0507 80.0668 67.0171 80.0318 66.9967 79.9867C66.9763 79.9415 66.9705 79.8948 66.9795 79.8465C66.9836 79.8242 66.991 79.8025 67.0016 79.7816C67.0123 79.7606 67.0271 79.7414 67.0459 79.7238L67.4704 79.321L67.549 78.8247C67.5591 78.7588 67.5911 78.7075 67.6452 78.671C67.6992 78.6345 67.7567 78.6218 67.8175 78.6331C67.8193 78.6334 67.8398 78.64 67.8792 78.6529L68.3907 78.9059L68.9588 78.8523C68.97 78.8501 68.9813 78.8497 68.9925 78.8511C69.0038 78.8525 69.0141 78.8541 69.0234 78.8558C69.0848 78.8671 69.1341 78.8995 69.1713 78.9529C69.2085 79.0062 69.2199 79.0655 69.2057 79.1307L69.1014 79.6254L69.3526 80.1499C69.3639 80.173 69.3708 80.1964 69.3733 80.2198C69.3757 80.2433 69.3749 80.2662 69.3708 80.2885C69.3621 80.3354 69.3403 80.3766 69.3052 80.4119C69.2701 80.4472 69.2262 80.4687 69.1735 80.4764L68.6229 80.5533Z" fill="#FFE17E"/>
<path d="M71.785 25.7349L71.3633 26.1141C71.3352 26.1398 71.3044 26.1569 71.2707 26.1651C71.2371 26.1734 71.203 26.1744 71.1685 26.168C71.134 26.1617 71.1026 26.1486 71.0741 26.1288C71.0456 26.1091 71.0229 26.0822 71.0058 26.0481L70.7474 25.5433L70.2596 25.2734C70.2128 25.2484 70.1792 25.2134 70.1588 25.1683C70.1384 25.1232 70.1326 25.0765 70.1416 25.0281C70.1457 25.0058 70.1531 24.9842 70.1638 24.9632C70.1744 24.9423 70.1892 24.923 70.208 24.9055L70.6325 24.5026L70.7112 24.0064C70.7212 23.9404 70.7532 23.8892 70.8073 23.8527C70.8613 23.8161 70.9188 23.8035 70.9796 23.8147C70.9814 23.815 71.002 23.8216 71.0413 23.8345L71.5528 24.0875L72.1209 24.0339C72.1321 24.0317 72.1434 24.0313 72.1547 24.0327C72.1659 24.0341 72.1762 24.0357 72.1855 24.0374C72.247 24.0488 72.2962 24.0811 72.3334 24.1345C72.3706 24.1879 72.382 24.2471 72.3678 24.3123L72.2635 24.807L72.5148 25.3315C72.526 25.3547 72.5329 25.378 72.5354 25.4015C72.5379 25.425 72.537 25.4478 72.5329 25.4701C72.5242 25.5171 72.5024 25.5582 72.4673 25.5935C72.4322 25.6288 72.3883 25.6503 72.3356 25.6581L71.785 25.7349Z" fill="#FFE17E"/>
</g>
<defs>
<radialGradient id="paint0_radial_3710_33002" cx="0" cy="0" r="1" gradientUnits="userSpaceOnUse" gradientTransform="translate(49.7957 50.0595) rotate(90) scale(40.0595 31.8367)">
<stop stop-color="#FFFB7E"/>
<stop offset="1" stop-color="#FFFB7E" stop-opacity="0"/>
</radialGradient>
<radialGradient id="paint1_radial_3710_33002" cx="0" cy="0" r="1" gradientUnits="userSpaceOnUse" gradientTransform="translate(49.8367 50.0595) rotate(90) scale(40.0595 31.8367)">
<stop stop-color="#FFFB7E"/>
<stop offset="1" stop-color="#FFFB7E" stop-opacity="0"/>
</radialGradient>
<clipPath id="clip0_3710_33002">
<rect width="63.6735" height="80" fill="white" transform="translate(17.959 10)"/>
</clipPath>
<clipPath id="clip1_3710_33002">
<rect width="63.6735" height="80" fill="white" transform="translate(18 10)"/>
</clipPath>
</defs>
</svg>
